<svg width="128" height="128" viewBox="0 0 128 128" fill="none" xmlns="http://www.w3.org/2000/svg">
<path d="M116 4H12C7.58 4 4 7.58 4 12V116C4 120.42 7.58 124 12 124H116C120.42 124 124 120.42 124 116V12C124 7.58 120.42 4 116 4Z" fill="#427687" style="fill:#427687;fill:color(display-p3 0.2588 0.4627 0.5294);fill-opacity:1;"/>
<path d="M109.7 4H11.5C7.37002 4.03 4.03002 7.37 4.00002 11.5V109.4C3.99002 113.54 7.34002 116.89 11.48 116.9C11.49 116.9 11.49 116.9 11.5 116.9H109.6C113.74 116.91 117.09 113.56 117.1 109.42C117.1 109.41 117.1 109.41 117.1 109.4V11.5C117.19 7.45 113.97 4.09 109.92 4C109.85 4 109.77 4 109.7 4Z" fill="#8CAFBF" style="fill:#8CAFBF;fill:color(display-p3 0.5490 0.6863 0.7490);fill-opacity:1;"/>
<path opacity="0.75" d="M39.6996 12.8999C39.6996 10.5999 38.0996 9.89988 28.8996 10.1999C21.1996 10.4999 17.3996 11.3999 15.0996 14.1999C12.7996 16.9999 12.1996 22.6999 12.0996 29.4999C12.0996 34.2999 12.0996 38.7999 14.5996 38.7999C17.9996 38.7999 17.9996 30.8999 20.7996 26.4999C26.1996 17.7999 39.6996 15.8999 39.6996 12.8999Z" fill="#9BC2D0" style="fill:#9BC2D0;fill:color(display-p3 0.6078 0.7608 0.8157);fill-opacity:1;"/>
<g opacity="0.2">
<path d="M63.9997 36C64.9397 36.02 65.7997 36.51 66.2997 37.3L95.4997 88C96.2297 89.29 95.7797 90.92 94.4897 91.65C94.0997 91.87 93.6497 91.99 93.1997 92H34.7997C33.3197 91.98 32.1297 90.77 32.1497 89.29C32.1597 88.84 32.2697 88.4 32.4997 88L61.6997 37.3C62.1997 36.51 63.0597 36.02 63.9997 36Z" fill="#424242" style="fill:#424242;fill:color(display-p3 0.2588 0.2588 0.2588);fill-opacity:1;"/>
</g>
<path d="M63.9999 92H93.1999C94.6799 91.98 95.8699 90.77 95.8499 89.29C95.8399 88.84 95.7299 88.4 95.4999 88L66.2999 37.3C65.5999 36.03 63.9899 35.57 62.7199 36.28C62.2899 36.52 61.9299 36.87 61.6999 37.3L32.4999 88C31.7699 89.29 32.2199 90.92 33.5099 91.65C33.8999 91.87 34.3499 91.99 34.7999 92H63.9999Z" fill="#FAFAFA" style="fill:#FAFAFA;fill:color(display-p3 0.9804 0.9804 0.9804);fill-opacity:1;"/>
</svg>
