<svg width="128" height="128" viewBox="0 0 128 128" fill="none" xmlns="http://www.w3.org/2000/svg">
<path d="M63.6001 118.8C35.7001 118.8 5.6001 101.3 5.6001 62.9C5.6001 24.5 35.7001 7 63.6001 7C79.1001 7 93.4001 12.1 104 21.4C115.5 31.6 121.6 46 121.6 62.9C121.6 79.8 115.5 94.1 104 104.3C93.4001 113.6 79.0001 118.8 63.6001 118.8Z" fill="url(#paint0_radial_169_13010)" style=""/>
<path d="M63.6001 118.8C35.7001 118.8 5.6001 101.3 5.6001 62.9C5.6001 24.5 35.7001 7 63.6001 7C79.1001 7 93.4001 12.1 104 21.4C115.5 31.6 121.6 46 121.6 62.9C121.6 79.8 115.5 94.1 104 104.3C93.4001 113.6 79.0001 118.8 63.6001 118.8Z" fill="url(#paint1_radial_169_13010)" style=""/>
<path d="M63.6001 118.8C35.7001 118.8 5.6001 101.3 5.6001 62.9C5.6001 24.5 35.7001 7 63.6001 7C79.1001 7 93.4001 12.1 104 21.4C115.5 31.6 121.6 46 121.6 62.9C121.6 79.8 115.5 94.1 104 104.3C93.4001 113.6 79.0001 118.8 63.6001 118.8Z" fill="url(#paint2_radial_169_13010)" style=""/>
<path d="M63.6001 118.8C35.7001 118.8 5.6001 101.3 5.6001 62.9C5.6001 24.5 35.7001 7 63.6001 7C79.1001 7 93.4001 12.1 104 21.4C115.5 31.6 121.6 46 121.6 62.9C121.6 79.8 115.5 94.1 104 104.3C93.4001 113.6 79.0001 118.8 63.6001 118.8Z" fill="url(#paint3_radial_169_13010)" style=""/>
<path d="M63.6001 118.8C35.7001 118.8 5.6001 101.3 5.6001 62.9C5.6001 24.5 35.7001 7 63.6001 7C79.1001 7 93.4001 12.1 104 21.4C115.5 31.6 121.6 46 121.6 62.9C121.6 79.8 115.5 94.1 104 104.3C93.4001 113.6 79.0001 118.8 63.6001 118.8Z" fill="url(#paint4_radial_169_13010)" style=""/>
<path d="M111.49 29.67C116.82 38.27 119.6 48.51 119.6 59.9C119.6 76.8 113.5 91.1 102 101.3C91.4002 110.6 77.0002 115.8 61.6002 115.8C43.5402 115.8 24.6002 108.45 13.4202 92.86C24.1802 110.52 44.4202 118.8 63.6002 118.8C79.0002 118.8 93.4002 113.6 104 104.3C115.5 94.1 121.6 79.8 121.6 62.9C121.6 50.16 118.13 38.84 111.49 29.67Z" fill="#EB8F00" style="fill:#EB8F00;fill:color(display-p3 0.9216 0.5608 0.0000);fill-opacity:1;"/>
<path d="M111.49 29.67C116.82 38.27 119.6 48.51 119.6 59.9C119.6 76.8 113.5 91.1 102 101.3C91.4002 110.6 77.0002 115.8 61.6002 115.8C43.5402 115.8 24.6002 108.45 13.4202 92.86C24.1802 110.52 44.4202 118.8 63.6002 118.8C79.0002 118.8 93.4002 113.6 104 104.3C115.5 94.1 121.6 79.8 121.6 62.9C121.6 50.16 118.13 38.84 111.49 29.67Z" fill="#F3B872" style="fill:#F3B872;fill:color(display-p3 0.9542 0.7229 0.4453);fill-opacity:1;"/>
<path d="M111.49 29.67C116.82 38.27 119.6 48.51 119.6 59.9C119.6 76.8 113.5 91.1 102 101.3C91.4002 110.6 77.0002 115.8 61.6002 115.8C43.5402 115.8 24.6002 108.45 13.4202 92.86C24.1802 110.52 44.4202 118.8 63.6002 118.8C79.0002 118.8 93.4002 113.6 104 104.3C115.5 94.1 121.6 79.8 121.6 62.9C121.6 50.16 118.13 38.84 111.49 29.67Z" fill="#91674D" style="fill:#91674D;fill:color(display-p3 0.5686 0.4039 0.3020);fill-opacity:1;"/>
<path d="M101.7 72.21C100.3 69.69 97.2601 68.58 94.5601 69.61C85.5601 72.41 74.5601 73.44 63.4801 73.45C52.7901 73.49 42.1501 72 31.8901 69C29.1901 67.97 26.1501 69.08 24.7501 71.6C23.3901 74.11 24.3801 77.02 25.5201 79.53C32.0001 93.65 46.1001 102.09 63.4001 102.14H63.5601C80.8601 102.14 94.5001 94.24 100.93 80.14C102.07 77.63 103.06 74.72 101.7 72.21Z" fill="white" style="fill:white;fill-opacity:1;"/>
<path d="M49.0002 56.89L48.8502 56.69L48.4202 56.14L47.8902 55.57C47.6702 55.32 47.4102 55.08 47.1602 54.82C46.9102 54.56 46.6002 54.31 46.3202 54.1C46.0602 53.9 45.7802 53.71 45.4802 53.56C45.2802 53.45 45.0602 53.36 44.8302 53.31C44.7602 53.3 44.6902 53.3 44.6202 53.31C44.6202 53.31 44.5602 53.31 44.5302 53.31H44.4502C44.5702 53.31 44.1802 53.31 44.7202 53.31H44.1702C44.0202 53.31 44.1202 53.31 44.1702 53.31H44.2502C44.2502 53.31 44.3302 53.31 44.2502 53.31H44.1402C43.9102 53.36 43.6902 53.44 43.4802 53.56C43.1902 53.72 42.9002 53.9 42.6402 54.1C42.3502 54.32 42.0702 54.56 41.8102 54.82C41.2802 55.33 40.8102 55.82 40.5102 56.21L39.9902 56.81L39.7602 57.08C38.3202 58.69 35.8902 58.95 34.1402 57.69C33.0202 56.91 32.4502 55.56 32.6702 54.21C32.6702 54.21 32.7402 53.81 32.9302 53.1C33.2302 52.09 33.6502 51.11 34.1802 50.19C35.0302 48.69 36.1802 47.38 37.5602 46.34C38.4702 45.64 39.4802 45.08 40.5602 44.69C40.8602 44.57 41.1702 44.48 41.4802 44.4C41.8102 44.3 42.1402 44.23 42.4802 44.17L43.0902 44.08L43.6002 44.02H44.1502H44.9402H45.4502C45.7902 44.02 46.1202 44.11 46.4502 44.16C47.0902 44.27 47.7302 44.44 48.3402 44.67C49.4202 45.06 50.4302 45.62 51.3402 46.32C52.7202 47.36 53.8702 48.67 54.7202 50.17C55.0302 50.69 55.3002 51.24 55.5202 51.8C55.7102 52.25 55.8702 52.7 56.0002 53.17C56.0702 53.41 56.1302 53.65 56.1602 53.89V54.14C56.4602 56.18 55.0402 58.08 53.0002 58.38C52.9502 58.39 52.9002 58.39 52.8502 58.4C51.3902 58.61 49.9302 58.03 49.0002 56.89Z" fill="#49362E" style="fill:#49362E;fill:color(display-p3 0.2863 0.2118 0.1804);fill-opacity:1;"/>
<path d="M49.0002 56.89L48.8502 56.69L48.4202 56.14L47.8902 55.57C47.6702 55.32 47.4102 55.08 47.1602 54.82C46.9102 54.56 46.6002 54.31 46.3202 54.1C46.0602 53.9 45.7802 53.71 45.4802 53.56C45.2802 53.45 45.0602 53.36 44.8302 53.31C44.7602 53.3 44.6902 53.3 44.6202 53.31C44.6202 53.31 44.5602 53.31 44.5302 53.31H44.4502C44.5702 53.31 44.1802 53.31 44.7202 53.31H44.1702C44.0202 53.31 44.1202 53.31 44.1702 53.31H44.2502C44.2502 53.31 44.3302 53.31 44.2502 53.31H44.1402C43.9102 53.36 43.6902 53.44 43.4802 53.56C43.1902 53.72 42.9002 53.9 42.6402 54.1C42.3502 54.32 42.0702 54.56 41.8102 54.82C41.2802 55.33 40.8102 55.82 40.5102 56.21L39.9902 56.81L39.7602 57.08C38.3202 58.69 35.8902 58.95 34.1402 57.69C33.0202 56.91 32.4502 55.56 32.6702 54.21C32.6702 54.21 32.7402 53.81 32.9302 53.1C33.2302 52.09 33.6502 51.11 34.1802 50.19C35.0302 48.69 36.1802 47.38 37.5602 46.34C38.4702 45.64 39.4802 45.08 40.5602 44.69C40.8602 44.57 41.1702 44.48 41.4802 44.4C41.8102 44.3 42.1402 44.23 42.4802 44.17L43.0902 44.08L43.6002 44.02H44.1502H44.9402H45.4502C45.7902 44.02 46.1202 44.11 46.4502 44.16C47.0902 44.27 47.7302 44.44 48.3402 44.67C49.4202 45.06 50.4302 45.62 51.3402 46.32C52.7202 47.36 53.8702 48.67 54.7202 50.17C55.0302 50.69 55.3002 51.24 55.5202 51.8C55.7102 52.25 55.8702 52.7 56.0002 53.17C56.0702 53.41 56.1302 53.65 56.1602 53.89V54.14C56.4602 56.18 55.0402 58.08 53.0002 58.38C52.9502 58.39 52.9002 58.39 52.8502 58.4C51.3902 58.61 49.9302 58.03 49.0002 56.89Z" fill="#1A1717" style="fill:#1A1717;fill:color(display-p3 0.1020 0.0902 0.0902);fill-opacity:1;"/>
<path d="M49.0002 56.89L48.8502 56.69L48.4202 56.14L47.8902 55.57C47.6702 55.32 47.4102 55.08 47.1602 54.82C46.9102 54.56 46.6002 54.31 46.3202 54.1C46.0602 53.9 45.7802 53.71 45.4802 53.56C45.2802 53.45 45.0602 53.36 44.8302 53.31C44.7602 53.3 44.6902 53.3 44.6202 53.31C44.6202 53.31 44.5602 53.31 44.5302 53.31H44.4502C44.5702 53.31 44.1802 53.31 44.7202 53.31H44.1702C44.0202 53.31 44.1202 53.31 44.1702 53.31H44.2502C44.2502 53.31 44.3302 53.31 44.2502 53.31H44.1402C43.9102 53.36 43.6902 53.44 43.4802 53.56C43.1902 53.72 42.9002 53.9 42.6402 54.1C42.3502 54.32 42.0702 54.56 41.8102 54.82C41.2802 55.33 40.8102 55.82 40.5102 56.21L39.9902 56.81L39.7602 57.08C38.3202 58.69 35.8902 58.95 34.1402 57.69C33.0202 56.91 32.4502 55.56 32.6702 54.21C32.6702 54.21 32.7402 53.81 32.9302 53.1C33.2302 52.09 33.6502 51.11 34.1802 50.19C35.0302 48.69 36.1802 47.38 37.5602 46.34C38.4702 45.64 39.4802 45.08 40.5602 44.69C40.8602 44.57 41.1702 44.48 41.4802 44.4C41.8102 44.3 42.1402 44.23 42.4802 44.17L43.0902 44.08L43.6002 44.02H44.1502H44.9402H45.4502C45.7902 44.02 46.1202 44.11 46.4502 44.16C47.0902 44.27 47.7302 44.44 48.3402 44.67C49.4202 45.06 50.4302 45.62 51.3402 46.32C52.7202 47.36 53.8702 48.67 54.7202 50.17C55.0302 50.69 55.3002 51.24 55.5202 51.8C55.7102 52.25 55.8702 52.7 56.0002 53.17C56.0702 53.41 56.1302 53.65 56.1602 53.89V54.14C56.4602 56.18 55.0402 58.08 53.0002 58.38C52.9502 58.39 52.9002 58.39 52.8502 58.4C51.3902 58.61 49.9302 58.03 49.0002 56.89Z" fill="#49362E" style="fill:#49362E;fill:color(display-p3 0.2863 0.2118 0.1804);fill-opacity:1;"/>
<path d="M88.4601 56.89L88.3001 56.69L87.8701 56.14L87.3401 55.57C87.1201 55.32 86.8601 55.08 86.6101 54.82C86.3601 54.56 86.0501 54.31 85.7701 54.1C85.5101 53.9 85.2301 53.71 84.9301 53.56C84.7301 53.45 84.5101 53.36 84.2801 53.31C84.2101 53.3 84.1401 53.3 84.0701 53.31C84.0701 53.31 84.0101 53.31 83.9801 53.31H83.9001C84.0201 53.31 83.6301 53.31 84.1701 53.31H83.6201C83.4701 53.31 83.5701 53.31 83.6201 53.31H83.7001C83.7001 53.31 83.7801 53.31 83.7001 53.31H83.5901C83.3601 53.36 83.1401 53.44 82.9301 53.56C82.6401 53.71 82.3601 53.9 82.1001 54.1C81.8001 54.32 81.5201 54.56 81.2601 54.82C80.7301 55.33 80.2601 55.82 79.9601 56.21L79.4401 56.81L79.2201 57.08C77.7701 58.69 75.3501 58.95 73.5901 57.69C72.4701 56.91 71.9001 55.56 72.1201 54.21C72.1201 54.21 72.1901 53.81 72.3901 53.1C72.6901 52.08 73.1001 51.1 73.6401 50.19C74.4901 48.69 75.6301 47.38 77.0101 46.34C77.9201 45.64 78.9301 45.08 80.0101 44.69C80.3101 44.57 80.6201 44.48 80.9301 44.4C81.2601 44.3 81.5901 44.23 81.9301 44.17L82.5501 44.08L83.0501 44.02H83.6001H84.3901H84.9001C85.2401 44.02 85.5701 44.11 85.9001 44.16C86.5501 44.27 87.1801 44.44 87.7901 44.67C88.8701 45.06 89.8801 45.62 90.7901 46.32C92.1701 47.36 93.3201 48.67 94.1701 50.17C94.4801 50.69 94.7501 51.24 94.9701 51.8C95.1601 52.24 95.3201 52.69 95.4501 53.15C95.5201 53.39 95.5801 53.63 95.6101 53.87V54.12C95.9301 56.16 94.5301 58.07 92.4901 58.39C92.4601 58.39 92.4301 58.4 92.4001 58.4C90.9101 58.65 89.4001 58.07 88.4601 56.89Z" fill="#49362E" style="fill:#49362E;fill:color(display-p3 0.2863 0.2118 0.1804);fill-opacity:1;"/>
<path d="M88.4601 56.89L88.3001 56.69L87.8701 56.14L87.3401 55.57C87.1201 55.32 86.8601 55.08 86.6101 54.82C86.3601 54.56 86.0501 54.31 85.7701 54.1C85.5101 53.9 85.2301 53.71 84.9301 53.56C84.7301 53.45 84.5101 53.36 84.2801 53.31C84.2101 53.3 84.1401 53.3 84.0701 53.31C84.0701 53.31 84.0101 53.31 83.9801 53.31H83.9001C84.0201 53.31 83.6301 53.31 84.1701 53.31H83.6201C83.4701 53.31 83.5701 53.31 83.6201 53.31H83.7001C83.7001 53.31 83.7801 53.31 83.7001 53.31H83.5901C83.3601 53.36 83.1401 53.44 82.9301 53.56C82.6401 53.71 82.3601 53.9 82.1001 54.1C81.8001 54.32 81.5201 54.56 81.2601 54.82C80.7301 55.33 80.2601 55.82 79.9601 56.21L79.4401 56.81L79.2201 57.08C77.7701 58.69 75.3501 58.95 73.5901 57.69C72.4701 56.91 71.9001 55.56 72.1201 54.21C72.1201 54.21 72.1901 53.81 72.3901 53.1C72.6901 52.08 73.1001 51.1 73.6401 50.19C74.4901 48.69 75.6301 47.38 77.0101 46.34C77.9201 45.64 78.9301 45.08 80.0101 44.69C80.3101 44.57 80.6201 44.48 80.9301 44.4C81.2601 44.3 81.5901 44.23 81.9301 44.17L82.5501 44.08L83.0501 44.02H83.6001H84.3901H84.9001C85.2401 44.02 85.5701 44.11 85.9001 44.16C86.5501 44.27 87.1801 44.44 87.7901 44.67C88.8701 45.06 89.8801 45.62 90.7901 46.32C92.1701 47.36 93.3201 48.67 94.1701 50.17C94.4801 50.69 94.7501 51.24 94.9701 51.8C95.1601 52.24 95.3201 52.69 95.4501 53.15C95.5201 53.39 95.5801 53.63 95.6101 53.87V54.12C95.9301 56.16 94.5301 58.07 92.4901 58.39C92.4601 58.39 92.4301 58.4 92.4001 58.4C90.9101 58.65 89.4001 58.07 88.4601 56.89Z" fill="#1A1717" style="fill:#1A1717;fill:color(display-p3 0.1020 0.0902 0.0902);fill-opacity:1;"/>
<path d="M88.4601 56.89L88.3001 56.69L87.8701 56.14L87.3401 55.57C87.1201 55.32 86.8601 55.08 86.6101 54.82C86.3601 54.56 86.0501 54.31 85.7701 54.1C85.5101 53.9 85.2301 53.71 84.9301 53.56C84.7301 53.45 84.5101 53.36 84.2801 53.31C84.2101 53.3 84.1401 53.3 84.0701 53.31C84.0701 53.31 84.0101 53.31 83.9801 53.31H83.9001C84.0201 53.31 83.6301 53.31 84.1701 53.31H83.6201C83.4701 53.31 83.5701 53.31 83.6201 53.31H83.7001C83.7001 53.31 83.7801 53.31 83.7001 53.31H83.5901C83.3601 53.36 83.1401 53.44 82.9301 53.56C82.6401 53.71 82.3601 53.9 82.1001 54.1C81.8001 54.32 81.5201 54.56 81.2601 54.82C80.7301 55.33 80.2601 55.82 79.9601 56.21L79.4401 56.81L79.2201 57.08C77.7701 58.69 75.3501 58.95 73.5901 57.69C72.4701 56.91 71.9001 55.56 72.1201 54.21C72.1201 54.21 72.1901 53.81 72.3901 53.1C72.6901 52.08 73.1001 51.1 73.6401 50.19C74.4901 48.69 75.6301 47.38 77.0101 46.34C77.9201 45.64 78.9301 45.08 80.0101 44.69C80.3101 44.57 80.6201 44.48 80.9301 44.4C81.2601 44.3 81.5901 44.23 81.9301 44.17L82.5501 44.08L83.0501 44.02H83.6001H84.3901H84.9001C85.2401 44.02 85.5701 44.11 85.9001 44.16C86.5501 44.27 87.1801 44.44 87.7901 44.67C88.8701 45.06 89.8801 45.62 90.7901 46.32C92.1701 47.36 93.3201 48.67 94.1701 50.17C94.4801 50.69 94.7501 51.24 94.9701 51.8C95.1601 52.24 95.3201 52.69 95.4501 53.15C95.5201 53.39 95.5801 53.63 95.6101 53.87V54.12C95.9301 56.16 94.5301 58.07 92.4901 58.39C92.4601 58.39 92.4301 58.4 92.4001 58.4C90.9101 58.65 89.4001 58.07 88.4601 56.89Z" fill="#49362E" style="fill:#49362E;fill:color(display-p3 0.2863 0.2118 0.1804);fill-opacity:1;"/>
<path d="M100.89 75.83C100.8 75.89 94.69 80.46 83.2 83.42V72.12C81.89 72.32 80.55 72.49 79.2 72.64V84.32C74.55 85.24 69.82 85.75 65.08 85.85V73.43H63.5C62.69 73.43 61.89 73.43 61.08 73.43V85.85C61.51 85.86 61.51 85.87 61.08 85.87L61.06 85.85C56.43 85.77 51.82 85.33 47.26 84.52V72.33C45.9 72.15 44.57 71.94 43.26 71.71V83.68C31.44 80.87 25.5 76.38 25.42 76.31C25.09 76.05 24.68 75.9 24.26 75.89C24.54 77.15 24.96 78.38 25.52 79.55C25.87 80.32 26.25 81.06 26.65 81.8C31.88 84.57 37.47 86.59 43.26 87.8V87.82V97.66C44.56 98.29 45.9 98.86 47.26 99.35V88.6C51.82 89.36 56.44 89.78 61.06 89.85L61.08 89.87C61.07 89.87 61.07 89.87 61.06 89.87V102.08C61.83 102.08 62.61 102.16 63.4 102.16H63.56C64.07 102.16 64.56 102.16 65.06 102.16V89.85H65H65.06C69.8 89.76 74.53 89.28 79.2 88.42V99.63C80.56 99.17 81.9 98.63 83.2 98.02V87.57C89.3 86.17 95.17 83.88 100.61 80.78C100.71 80.56 100.83 80.36 100.93 80.14C101.66 78.66 102.14 77.07 102.33 75.43C101.82 75.37 101.3 75.52 100.89 75.83Z" fill="#B3B3B3" style="fill:#B3B3B3;fill:color(display-p3 0.7020 0.7020 0.7020);fill-opacity:1;"/>
<path d="M102.11 71.63C100.69 69.1 97.6399 67.98 94.9199 69C84.6599 71.99 74.0199 73.48 63.3399 73.43C52.6499 73.48 42.0099 71.99 31.7499 69C29.0599 67.98 26.0199 69.08 24.6199 71.6C23.2599 74.11 24.2399 77.02 25.3899 79.53C25.8999 80.66 26.4699 81.77 27.0999 82.84C27.0999 82.84 24.9999 75.06 26.8199 72.8C27.4399 71.84 28.4799 71.24 29.6199 71.18C30.0899 71.18 30.5499 71.26 30.9999 71.4C41.4399 74.47 52.2699 76.02 63.1599 76H63.5099C74.3999 76.02 85.2299 74.47 95.6699 71.4C96.1199 71.26 96.5799 71.18 97.0499 71.18C98.1899 71.24 99.2399 71.84 99.8599 72.8C101.71 75.06 99.5799 82.87 99.5799 82.87C100.2 81.8 100.82 80.7 101.34 79.56C102.48 77.05 103.47 74.15 102.11 71.63Z" fill="#EB8F00" style="fill:#EB8F00;fill:color(display-p3 0.9216 0.5608 0.0000);fill-opacity:1;"/>
<path d="M102.11 71.63C100.69 69.1 97.6399 67.98 94.9199 69C84.6599 71.99 74.0199 73.48 63.3399 73.43C52.6499 73.48 42.0099 71.99 31.7499 69C29.0599 67.98 26.0199 69.08 24.6199 71.6C23.2599 74.11 24.2399 77.02 25.3899 79.53C25.8999 80.66 26.4699 81.77 27.0999 82.84C27.0999 82.84 24.9999 75.06 26.8199 72.8C27.4399 71.84 28.4799 71.24 29.6199 71.18C30.0899 71.18 30.5499 71.26 30.9999 71.4C41.4399 74.47 52.2699 76.02 63.1599 76H63.5099C74.3999 76.02 85.2299 74.47 95.6699 71.4C96.1199 71.26 96.5799 71.18 97.0499 71.18C98.1899 71.24 99.2399 71.84 99.8599 72.8C101.71 75.06 99.5799 82.87 99.5799 82.87C100.2 81.8 100.82 80.7 101.34 79.56C102.48 77.05 103.47 74.15 102.11 71.63Z" fill="#F3B872" style="fill:#F3B872;fill:color(display-p3 0.9542 0.7229 0.4453);fill-opacity:1;"/>
<path d="M102.11 71.63C100.69 69.1 97.6399 67.98 94.9199 69C84.6599 71.99 74.0199 73.48 63.3399 73.43C52.6499 73.48 42.0099 71.99 31.7499 69C29.0599 67.98 26.0199 69.08 24.6199 71.6C23.2599 74.11 24.2399 77.02 25.3899 79.53C25.8999 80.66 26.4699 81.77 27.0999 82.84C27.0999 82.84 24.9999 75.06 26.8199 72.8C27.4399 71.84 28.4799 71.24 29.6199 71.18C30.0899 71.18 30.5499 71.26 30.9999 71.4C41.4399 74.47 52.2699 76.02 63.1599 76H63.5099C74.3999 76.02 85.2299 74.47 95.6699 71.4C96.1199 71.26 96.5799 71.18 97.0499 71.18C98.1899 71.24 99.2399 71.84 99.8599 72.8C101.71 75.06 99.5799 82.87 99.5799 82.87C100.2 81.8 100.82 80.7 101.34 79.56C102.48 77.05 103.47 74.15 102.11 71.63Z" fill="#91674D" style="fill:#91674D;fill:color(display-p3 0.5686 0.4039 0.3020);fill-opacity:1;"/>
<defs>
<radialGradient id="paint0_radial_169_13010" cx="0" cy="0" r="1" gradientUnits="userSpaceOnUse" gradientTransform="translate(63.6001 62.9) scale(56.9597 56.9597)">
<stop offset="0.5" stop-color="#FDE030" style="stop-color:#FDE030;stop-color:color(display-p3 0.9922 0.8784 0.1882);stop-opacity:1;"/>
<stop offset="0.92" stop-color="#F7C02B" style="stop-color:#F7C02B;stop-color:color(display-p3 0.9686 0.7529 0.1686);stop-opacity:1;"/>
<stop offset="1" stop-color="#F4A223" style="stop-color:#F4A223;stop-color:color(display-p3 0.9569 0.6353 0.1373);stop-opacity:1;"/>
</radialGradient>
<radialGradient id="paint1_radial_169_13010" cx="0" cy="0" r="1" gradientUnits="userSpaceOnUse" gradientTransform="translate(38.5991 34.5377) rotate(-43.2082) scale(102.024 101.825)">
<stop offset="0.3533" stop-color="#F9DDBD" style="stop-color:#F9DDBD;stop-color:color(display-p3 0.9765 0.8667 0.7412);stop-opacity:1;"/>
<stop offset="0.8723" stop-color="#FFD29C" style="stop-color:#FFD29C;stop-color:color(display-p3 1.0000 0.8235 0.6118);stop-opacity:1;"/>
</radialGradient>
<radialGradient id="paint2_radial_169_13010" cx="0" cy="0" r="1" gradientUnits="userSpaceOnUse" gradientTransform="translate(38.5991 34.5377) rotate(-43.2082) scale(102.024 101.825)">
<stop offset="0.3533" stop-color="#70534A" style="stop-color:#70534A;stop-color:color(display-p3 0.4392 0.3255 0.2902);stop-opacity:1;"/>
<stop offset="0.8723" stop-color="#5C4037" style="stop-color:#5C4037;stop-color:color(display-p3 0.3608 0.2510 0.2157);stop-opacity:1;"/>
</radialGradient>
<radialGradient id="paint3_radial_169_13010" cx="0" cy="0" r="1" gradientUnits="userSpaceOnUse" gradientTransform="translate(38.5991 34.5377) rotate(-43.2082) scale(102.024 101.825)">
<stop offset="0.3533" stop-color="#A37A58" style="stop-color:#A37A58;stop-color:color(display-p3 0.6375 0.4772 0.3453);stop-opacity:1;"/>
<stop offset="0.8723" stop-color="#8D5738" style="stop-color:#8D5738;stop-color:color(display-p3 0.5529 0.3412 0.2196);stop-opacity:1;"/>
</radialGradient>
<radialGradient id="paint4_radial_169_13010" cx="0" cy="0" r="1" gradientUnits="userSpaceOnUse" gradientTransform="translate(38.5991 34.5377) rotate(-43.2082) scale(102.024 101.825)">
<stop offset="0.3533" stop-color="#AD8264" style="stop-color:#AD8264;stop-color:color(display-p3 0.6784 0.5098 0.3922);stop-opacity:1;"/>
<stop offset="0.8723" stop-color="#A47B62" style="stop-color:#A47B62;stop-color:color(display-p3 0.6431 0.4824 0.3843);stop-opacity:1;"/>
</radialGradient>
</defs>
</svg>
