<svg width="128" height="128" viewBox="0 0 128 128" fill="none" xmlns="http://www.w3.org/2000/svg">
<path d="M63.6 118.8C35.7 118.8 5.59998 101.3 5.59998 62.9C5.59998 24.5 35.7 7 63.6 7C79.1 7 93.4 12.1 104 21.4C115.5 31.6 121.6 46 121.6 62.9C121.6 79.8 115.5 94.1 104 104.3C93.4 113.6 79 118.8 63.6 118.8Z" fill="url(#paint0_radial_169_7792)" style=""/>
<path d="M63.6 118.8C35.7 118.8 5.59998 101.3 5.59998 62.9C5.59998 24.5 35.7 7 63.6 7C79.1 7 93.4 12.1 104 21.4C115.5 31.6 121.6 46 121.6 62.9C121.6 79.8 115.5 94.1 104 104.3C93.4 113.6 79 118.8 63.6 118.8Z" fill="url(#paint1_radial_169_7792)" style=""/>
<path d="M63.6 118.8C35.7 118.8 5.59998 101.3 5.59998 62.9C5.59998 24.5 35.7 7 63.6 7C79.1 7 93.4 12.1 104 21.4C115.5 31.6 121.6 46 121.6 62.9C121.6 79.8 115.5 94.1 104 104.3C93.4 113.6 79 118.8 63.6 118.8Z" fill="url(#paint2_radial_169_7792)" style=""/>
<path d="M111.49 29.6699C116.82 38.2699 119.6 48.5099 119.6 59.8999C119.6 76.7999 113.5 91.0999 102 101.3C91.4 110.6 77 115.8 61.6 115.8C43.54 115.8 24.6 108.45 13.42 92.8599C24.18 110.52 44.42 118.8 63.6 118.8C79 118.8 93.4 113.6 104 104.3C115.5 94.0999 121.6 79.7999 121.6 62.8999C121.6 50.1599 118.13 38.8399 111.49 29.6699Z" fill="#EB8F00" style="fill:#EB8F00;fill:color(display-p3 0.9216 0.5608 0.0000);fill-opacity:1;"/>
<path d="M111.49 29.6699C116.82 38.2699 119.6 48.5099 119.6 59.8999C119.6 76.7999 113.5 91.0999 102 101.3C91.4 110.6 77 115.8 61.6 115.8C43.54 115.8 24.6 108.45 13.42 92.8599C24.18 110.52 44.42 118.8 63.6 118.8C79 118.8 93.4 113.6 104 104.3C115.5 94.0999 121.6 79.7999 121.6 62.8999C121.6 50.1599 118.13 38.8399 111.49 29.6699Z" fill="#F3B872" style="fill:#F3B872;fill:color(display-p3 0.9542 0.7229 0.4453);fill-opacity:1;"/>
<path d="M111.49 29.6699C116.82 38.2699 119.6 48.5099 119.6 59.8999C119.6 76.7999 113.5 91.0999 102 101.3C91.4 110.6 77 115.8 61.6 115.8C43.54 115.8 24.6 108.45 13.42 92.8599C24.18 110.52 44.42 118.8 63.6 118.8C79 118.8 93.4 113.6 104 104.3C115.5 94.0999 121.6 79.7999 121.6 62.8999C121.6 50.1599 118.13 38.8399 111.49 29.6699Z" fill="#BA8F63" style="fill:#BA8F63;fill:color(display-p3 0.7294 0.5608 0.3882);fill-opacity:1;"/>
<path d="M52.7 103C49.35 103 46.25 101.26 44.5 98.4C42.82 95.63 42.97 92.11 44.9 89.5C49.2 83.5 55.8 80.3 64 80.3C72.2 80.3 78.8 83.5 83.1 89.5C85.03 92.11 85.18 95.63 83.5 98.4C81.75 101.26 78.65 103 75.3 103C74.25 102.99 73.2 102.82 72.2 102.5C66.87 100.77 61.13 100.77 55.8 102.5C54.8 102.81 53.75 102.98 52.7 103Z" fill="#5D4037" style="fill:#5D4037;fill:color(display-p3 0.3647 0.2510 0.2157);fill-opacity:1;"/>
<path d="M83.3999 31.31H83.2999C82.2899 31.39 81.3999 30.64 81.3099 29.63C81.2299 28.62 81.9799 27.73 82.9899 27.64C84.9199 27.35 86.8899 27.3701 88.8199 27.6901C94.0499 28.4901 98.7799 31.25 102.04 35.42C103.53 37.42 100.9 39.32 99.2499 37.82C94.8499 33.93 89.2699 31.64 83.3999 31.31Z" fill="#5D4037" style="fill:#5D4037;fill:color(display-p3 0.3647 0.2510 0.2157);fill-opacity:1;"/>
<path d="M44.8499 31.3101H44.9999C46.0199 31.3301 46.8499 30.5201 46.8699 29.5001C46.8899 28.5801 46.2099 27.7801 45.2999 27.6501C43.3699 27.3601 41.3999 27.3801 39.4699 27.7001C34.2299 28.4901 29.4999 31.2601 26.2399 35.4301C24.7599 37.4301 27.3899 39.3301 29.0299 37.8301C33.4299 33.9501 38.9999 31.6501 44.8499 31.3101Z" fill="#5D4037" style="fill:#5D4037;fill:color(display-p3 0.3647 0.2510 0.2157);fill-opacity:1;"/>
<path d="M44 49.9399C39.81 49.9399 36 53.4799 36 59.3599C36 65.2399 39.81 68.7699 44 68.7699C48.2 68.7699 52 65.2299 52 59.3599C52 53.4899 48.24 49.9399 44 49.9399Z" fill="#5D4037" style="fill:#5D4037;fill:color(display-p3 0.3647 0.2510 0.2157);fill-opacity:1;"/>
<path d="M43.65 53.8701C42.23 53.1901 40.52 53.7901 39.83 55.2101C39.3 56.3201 39.54 57.6501 40.43 58.5101C41.85 59.1901 43.56 58.5901 44.25 57.1701C44.78 56.0601 44.54 54.7301 43.65 53.8701Z" fill="#836258" style="fill:#836258;fill:color(display-p3 0.5125 0.3838 0.3438);fill-opacity:1;"/>
<path d="M82.3999 49.9399C78.2099 49.9399 74.3999 53.4799 74.3999 59.3599C74.3999 65.2399 78.2099 68.7699 82.3999 68.7699C86.5899 68.7699 90.3999 65.2299 90.3999 59.3599C90.3999 53.4899 86.5899 49.9399 82.3999 49.9399Z" fill="#5D4037" style="fill:#5D4037;fill:color(display-p3 0.3647 0.2510 0.2157);fill-opacity:1;"/>
<path d="M81.9999 53.8701C80.5799 53.1901 78.8699 53.7901 78.1799 55.2101C77.6499 56.3201 77.8899 57.6501 78.7799 58.5101C80.1999 59.1901 81.9099 58.5901 82.5999 57.1701C83.1299 56.0601 82.8899 54.7301 81.9999 53.8701Z" fill="#836258" style="fill:#836258;fill:color(display-p3 0.5125 0.3838 0.3438);fill-opacity:1;"/>
<defs>
<radialGradient id="paint0_radial_169_7792" cx="0" cy="0" r="1" gradientUnits="userSpaceOnUse" gradientTransform="translate(63.6 62.9) scale(56.9597 56.9597)">
<stop offset="0.5" stop-color="#FDE030" style="stop-color:#FDE030;stop-color:color(display-p3 0.9922 0.8784 0.1882);stop-opacity:1;"/>
<stop offset="0.92" stop-color="#F7C02B" style="stop-color:#F7C02B;stop-color:color(display-p3 0.9686 0.7529 0.1686);stop-opacity:1;"/>
<stop offset="1" stop-color="#F4A223" style="stop-color:#F4A223;stop-color:color(display-p3 0.9569 0.6353 0.1373);stop-opacity:1;"/>
</radialGradient>
<radialGradient id="paint1_radial_169_7792" cx="0" cy="0" r="1" gradientUnits="userSpaceOnUse" gradientTransform="translate(38.599 34.5377) rotate(-43.2082) scale(102.024 101.825)">
<stop offset="0.3533" stop-color="#F9DDBD" style="stop-color:#F9DDBD;stop-color:color(display-p3 0.9765 0.8667 0.7412);stop-opacity:1;"/>
<stop offset="0.8723" stop-color="#FFD29C" style="stop-color:#FFD29C;stop-color:color(display-p3 1.0000 0.8235 0.6118);stop-opacity:1;"/>
</radialGradient>
<radialGradient id="paint2_radial_169_7792" cx="0" cy="0" r="1" gradientUnits="userSpaceOnUse" gradientTransform="translate(38.599 34.5377) rotate(-43.2082) scale(102.024 101.825)">
<stop offset="0.3533" stop-color="#E0BB95" style="stop-color:#E0BB95;stop-color:color(display-p3 0.8784 0.7333 0.5843);stop-opacity:1;"/>
<stop offset="0.8723" stop-color="#CCA47A" style="stop-color:#CCA47A;stop-color:color(display-p3 0.8000 0.6431 0.4784);stop-opacity:1;"/>
</radialGradient>
</defs>
</svg>
