<svg width="128" height="128" viewBox="0 0 128 128" fill="none" xmlns="http://www.w3.org/2000/svg">
<path d="M63.6 118.8C35.7 118.8 5.59998 101.3 5.59998 62.9C5.59998 24.5 35.7 7 63.6 7C79.1 7 93.4 12.1 104 21.4C115.5 31.6 121.6 46 121.6 62.9C121.6 79.8 115.5 94.1 104 104.3C93.4 113.6 79 118.8 63.6 118.8Z" fill="url(#paint0_radial_169_11352)" style=""/>
<path d="M63.6 118.8C35.7 118.8 5.59998 101.3 5.59998 62.9C5.59998 24.5 35.7 7 63.6 7C79.1 7 93.4 12.1 104 21.4C115.5 31.6 121.6 46 121.6 62.9C121.6 79.8 115.5 94.1 104 104.3C93.4 113.6 79 118.8 63.6 118.8Z" fill="url(#paint1_radial_169_11352)" style=""/>
<path d="M63.6 118.8C35.7 118.8 5.59998 101.3 5.59998 62.9C5.59998 24.5 35.7 7 63.6 7C79.1 7 93.4 12.1 104 21.4C115.5 31.6 121.6 46 121.6 62.9C121.6 79.8 115.5 94.1 104 104.3C93.4 113.6 79 118.8 63.6 118.8Z" fill="url(#paint2_radial_169_11352)" style=""/>
<path d="M63.6 118.8C35.7 118.8 5.59998 101.3 5.59998 62.9C5.59998 24.5 35.7 7 63.6 7C79.1 7 93.4 12.1 104 21.4C115.5 31.6 121.6 46 121.6 62.9C121.6 79.8 115.5 94.1 104 104.3C93.4 113.6 79 118.8 63.6 118.8Z" fill="url(#paint3_radial_169_11352)" style=""/>
<path d="M111.49 29.67C116.82 38.27 119.6 48.51 119.6 59.9C119.6 76.8 113.5 91.1 102 101.3C91.3999 110.6 76.9999 115.8 61.5999 115.8C43.5399 115.8 24.5999 108.45 13.4199 92.86C24.1799 110.52 44.4199 118.8 63.5999 118.8C78.9999 118.8 93.3999 113.6 104 104.3C115.5 94.1 121.6 79.8 121.6 62.9C121.6 50.16 118.13 38.84 111.49 29.67Z" fill="#EB8F00" style="fill:#EB8F00;fill:color(display-p3 0.9216 0.5608 0.0000);fill-opacity:1;"/>
<path d="M111.49 29.67C116.82 38.27 119.6 48.51 119.6 59.9C119.6 76.8 113.5 91.1 102 101.3C91.3999 110.6 76.9999 115.8 61.5999 115.8C43.5399 115.8 24.5999 108.45 13.4199 92.86C24.1799 110.52 44.4199 118.8 63.5999 118.8C78.9999 118.8 93.3999 113.6 104 104.3C115.5 94.1 121.6 79.8 121.6 62.9C121.6 50.16 118.13 38.84 111.49 29.67Z" fill="#F3B872" style="fill:#F3B872;fill:color(display-p3 0.9542 0.7229 0.4453);fill-opacity:1;"/>
<path d="M111.49 29.67C116.82 38.27 119.6 48.51 119.6 59.9C119.6 76.8 113.5 91.1 102 101.3C91.3999 110.6 76.9999 115.8 61.5999 115.8C43.5399 115.8 24.5999 108.45 13.4199 92.86C24.1799 110.52 44.4199 118.8 63.5999 118.8C78.9999 118.8 93.3999 113.6 104 104.3C115.5 94.1 121.6 79.8 121.6 62.9C121.6 50.16 118.13 38.84 111.49 29.67Z" fill="#4A2F27" style="fill:#4A2F27;fill:color(display-p3 0.2902 0.1843 0.1529);fill-opacity:1;"/>
<path d="M57.38 66.41L57.18 66.27L57.08 66.19C53.47 63.6 44.58 56.44 40.88 53.91C39.3 52.75 37.12 52.87 35.68 54.21C34.14 55.8 34.19 58.33 35.77 59.87C35.9 59.99 36.03 60.11 36.18 60.21C36.28 60.31 36.38 60.31 36.48 60.41L47.37 65.22C46.55 65.22 45.74 65.22 44.98 65.31L41.48 65.61C40.28 65.81 38.98 66.01 37.68 66.21C36.38 66.41 34.88 66.81 33.38 67.21C32.14 67.56 31 68.21 30.08 69.11C29.21 69.89 28.65 70.95 28.48 72.11C28.36 73.22 28.61 74.35 29.18 75.31C29.66 76.17 30.45 76.81 31.38 77.11C32.31 77.41 33.3 77.51 34.28 77.41C35.35 77.27 36.37 76.89 37.28 76.31C38.58 75.61 39.88 74.91 41.08 74.41C42.22 73.87 43.4 73.4 44.6 73C45.72 72.61 46.85 72.27 48 72C49.22 71.7 50.45 71.47 51.7 71.3C53 71.1 54.5 71 56.1 70.9C57.25 70.67 58.08 69.67 58.1 68.5C58.19 67.73 57.93 66.96 57.38 66.41Z" fill="#42312C" style="fill:#42312C;fill:color(display-p3 0.2588 0.1922 0.1725);fill-opacity:1;"/>
<path d="M57.38 66.41L57.18 66.27L57.08 66.19C53.47 63.6 44.58 56.44 40.88 53.91C39.3 52.75 37.12 52.87 35.68 54.21C34.14 55.8 34.19 58.33 35.77 59.87C35.9 59.99 36.03 60.11 36.18 60.21C36.28 60.31 36.38 60.31 36.48 60.41L47.37 65.22C46.55 65.22 45.74 65.22 44.98 65.31L41.48 65.61C40.28 65.81 38.98 66.01 37.68 66.21C36.38 66.41 34.88 66.81 33.38 67.21C32.14 67.56 31 68.21 30.08 69.11C29.21 69.89 28.65 70.95 28.48 72.11C28.36 73.22 28.61 74.35 29.18 75.31C29.66 76.17 30.45 76.81 31.38 77.11C32.31 77.41 33.3 77.51 34.28 77.41C35.35 77.27 36.37 76.89 37.28 76.31C38.58 75.61 39.88 74.91 41.08 74.41C42.22 73.87 43.4 73.4 44.6 73C45.72 72.61 46.85 72.27 48 72C49.22 71.7 50.45 71.47 51.7 71.3C53 71.1 54.5 71 56.1 70.9C57.25 70.67 58.08 69.67 58.1 68.5C58.19 67.73 57.93 66.96 57.38 66.41Z" fill="#42312C" style="fill:#42312C;fill:color(display-p3 0.2588 0.1922 0.1725);fill-opacity:1;"/>
<path d="M99.4999 72.1C99.3299 70.94 98.7699 69.88 97.8999 69.1C96.9799 68.2 95.8399 67.55 94.5999 67.2C93.0999 66.8 91.6999 66.5 90.2999 66.2C88.8999 65.9 87.6999 65.8 86.4999 65.6L82.9999 65.3C82.2099 65.23 81.3699 65.21 80.5199 65.21L91.3999 60.4C91.4999 60.3 91.5999 60.3 91.6999 60.2C93.4799 58.89 93.8599 56.38 92.5399 54.61C92.4299 54.47 92.3199 54.33 92.1999 54.2C90.7599 52.86 88.5799 52.74 86.9999 53.9C83.3999 56.43 74.5099 63.59 70.8999 66.18L70.7999 66.26L70.5999 66.4C70.0499 66.95 69.7899 67.72 69.8799 68.49C69.8999 69.66 70.7299 70.66 71.8799 70.89C73.4799 70.99 74.9799 71.09 76.2799 71.29C77.5299 71.46 78.7699 71.7 79.9999 72C81.1499 72.27 82.2799 72.61 83.3999 73C84.5899 73.4 85.7599 73.86 86.8999 74.4C88.0999 74.9 89.3999 75.6 90.6999 76.3C91.5999 76.9 92.6299 77.27 93.6999 77.4C94.6799 77.5 95.6699 77.4 96.5999 77.1C97.5299 76.8 98.3199 76.16 98.7999 75.3C99.3699 74.34 99.6199 73.21 99.4999 72.1Z" fill="#42312C" style="fill:#42312C;fill:color(display-p3 0.2588 0.1922 0.1725);fill-opacity:1;"/>
<path d="M99.4999 72.1C99.3299 70.94 98.7699 69.88 97.8999 69.1C96.9799 68.2 95.8399 67.55 94.5999 67.2C93.0999 66.8 91.6999 66.5 90.2999 66.2C88.8999 65.9 87.6999 65.8 86.4999 65.6L82.9999 65.3C82.2099 65.23 81.3699 65.21 80.5199 65.21L91.3999 60.4C91.4999 60.3 91.5999 60.3 91.6999 60.2C93.4799 58.89 93.8599 56.38 92.5399 54.61C92.4299 54.47 92.3199 54.33 92.1999 54.2C90.7599 52.86 88.5799 52.74 86.9999 53.9C83.3999 56.43 74.5099 63.59 70.8999 66.18L70.7999 66.26L70.5999 66.4C70.0499 66.95 69.7899 67.72 69.8799 68.49C69.8999 69.66 70.7299 70.66 71.8799 70.89C73.4799 70.99 74.9799 71.09 76.2799 71.29C77.5299 71.46 78.7699 71.7 79.9999 72C81.1499 72.27 82.2799 72.61 83.3999 73C84.5899 73.4 85.7599 73.86 86.8999 74.4C88.0999 74.9 89.3999 75.6 90.6999 76.3C91.5999 76.9 92.6299 77.27 93.6999 77.4C94.6799 77.5 95.6699 77.4 96.5999 77.1C97.5299 76.8 98.3199 76.16 98.7999 75.3C99.3699 74.34 99.6199 73.21 99.4999 72.1Z" fill="#42312C" style="fill:#42312C;fill:color(display-p3 0.2588 0.1922 0.1725);fill-opacity:1;"/>
<path d="M63.9999 83.2C74.7999 83.2 81.7999 91.1 83.6999 94.8C84.3999 96.2 84.3999 97.4 83.7999 97.9C83.1599 98.3 82.3399 98.3 81.6999 97.9C81.3799 97.77 81.0799 97.6 80.7999 97.4C75.8999 93.88 70.0299 91.96 63.9999 91.9C57.9899 91.98 52.1299 93.86 47.1999 97.3C46.9199 97.5 46.6199 97.67 46.2999 97.8C45.6599 98.2 44.8399 98.2 44.1999 97.8C43.5999 97.2 43.5999 96.1 44.2999 94.7C46.1999 91.1 53.1999 83.2 63.9999 83.2Z" fill="#42312C" style="fill:#42312C;fill:color(display-p3 0.2588 0.1922 0.1725);fill-opacity:1;"/>
<path d="M63.9999 83.2C74.7999 83.2 81.7999 91.1 83.6999 94.8C84.3999 96.2 84.3999 97.4 83.7999 97.9C83.1599 98.3 82.3399 98.3 81.6999 97.9C81.3799 97.77 81.0799 97.6 80.7999 97.4C75.8999 93.88 70.0299 91.96 63.9999 91.9C57.9899 91.98 52.1299 93.86 47.1999 97.3C46.9199 97.5 46.6199 97.67 46.2999 97.8C45.6599 98.2 44.8399 98.2 44.1999 97.8C43.5999 97.2 43.5999 96.1 44.2999 94.7C46.1999 91.1 53.1999 83.2 63.9999 83.2Z" fill="#42312C" style="fill:#42312C;fill:color(display-p3 0.2588 0.1922 0.1725);fill-opacity:1;"/>
<path d="M27.4 42.8C25.2 43.2 25.1 46.4 27.5 46.5C32.8 46.57 37.92 44.6 41.8 41C43.28 39.72 44.53 38.2 45.5 36.5C46.08 35.67 45.88 34.53 45.05 33.95C44.22 33.37 43.08 33.57 42.5 34.4L42.4 34.5C38.48 38.88 33.19 41.81 27.4 42.8Z" fill="#42312C" style="fill:#42312C;fill:color(display-p3 0.2588 0.1922 0.1725);fill-opacity:1;"/>
<path d="M84.5 34.4C83.92 33.57 82.7799 33.37 81.9499 33.95C81.1199 34.53 80.92 35.67 81.5 36.5C82.47 38.2 83.7199 39.72 85.1999 41C89.0999 44.57 94.21 46.54 99.5 46.5C102 46.4 101.8 43.2 99.6 42.8C93.74 41.84 88.41 38.87 84.5 34.4Z" fill="#42312C" style="fill:#42312C;fill:color(display-p3 0.2588 0.1922 0.1725);fill-opacity:1;"/>
<defs>
<radialGradient id="paint0_radial_169_11352" cx="0" cy="0" r="1" gradientUnits="userSpaceOnUse" gradientTransform="translate(63.6 62.9) scale(56.9597 56.9597)">
<stop offset="0.5" stop-color="#FDE030" style="stop-color:#FDE030;stop-color:color(display-p3 0.9922 0.8784 0.1882);stop-opacity:1;"/>
<stop offset="0.92" stop-color="#F7C02B" style="stop-color:#F7C02B;stop-color:color(display-p3 0.9686 0.7529 0.1686);stop-opacity:1;"/>
<stop offset="1" stop-color="#F4A223" style="stop-color:#F4A223;stop-color:color(display-p3 0.9569 0.6353 0.1373);stop-opacity:1;"/>
</radialGradient>
<radialGradient id="paint1_radial_169_11352" cx="0" cy="0" r="1" gradientUnits="userSpaceOnUse" gradientTransform="translate(38.599 34.5377) rotate(-43.2082) scale(102.024 101.825)">
<stop offset="0.3533" stop-color="#F9DDBD" style="stop-color:#F9DDBD;stop-color:color(display-p3 0.9765 0.8667 0.7412);stop-opacity:1;"/>
<stop offset="0.8723" stop-color="#FFD29C" style="stop-color:#FFD29C;stop-color:color(display-p3 1.0000 0.8235 0.6118);stop-opacity:1;"/>
</radialGradient>
<radialGradient id="paint2_radial_169_11352" cx="0" cy="0" r="1" gradientUnits="userSpaceOnUse" gradientTransform="translate(38.599 34.5377) rotate(-43.2082) scale(102.024 101.825)">
<stop offset="0.3533" stop-color="#70534A" style="stop-color:#70534A;stop-color:color(display-p3 0.4392 0.3255 0.2902);stop-opacity:1;"/>
<stop offset="0.8723" stop-color="#5C4037" style="stop-color:#5C4037;stop-color:color(display-p3 0.3608 0.2510 0.2157);stop-opacity:1;"/>
</radialGradient>
<radialGradient id="paint3_radial_169_11352" cx="0" cy="0" r="1" gradientUnits="userSpaceOnUse" gradientTransform="translate(38.599 34.5377) rotate(-43.2082) scale(102.024 101.825)">
<stop offset="0.3533" stop-color="#A56C43" style="stop-color:#A56C43;stop-color:color(display-p3 0.6471 0.4235 0.2627);stop-opacity:1;"/>
<stop offset="0.8723" stop-color="#8D5738" style="stop-color:#8D5738;stop-color:color(display-p3 0.5529 0.3412 0.2196);stop-opacity:1;"/>
</radialGradient>
</defs>
</svg>
