<svg width="128" height="128" viewBox="0 0 128 128" fill="none" xmlns="http://www.w3.org/2000/svg">
<path d="M63.6001 118.8C35.7001 118.8 5.6001 101.3 5.6001 62.9C5.6001 24.5 35.7001 7 63.6001 7C79.1001 7 93.4001 12.1 104 21.4C115.5 31.6 121.6 46 121.6 62.9C121.6 79.8 115.5 94.1 104 104.3C93.4001 113.6 79.0001 118.8 63.6001 118.8Z" fill="url(#paint0_radial_169_8558)" style=""/>
<path d="M63.6001 118.8C35.7001 118.8 5.6001 101.3 5.6001 62.9C5.6001 24.5 35.7001 7 63.6001 7C79.1001 7 93.4001 12.1 104 21.4C115.5 31.6 121.6 46 121.6 62.9C121.6 79.8 115.5 94.1 104 104.3C93.4001 113.6 79.0001 118.8 63.6001 118.8Z" fill="url(#paint1_linear_169_8558)" style=""/>
<path d="M63.6001 118.8C35.7001 118.8 5.6001 101.3 5.6001 62.9C5.6001 24.5 35.7001 7 63.6001 7C79.1001 7 93.4001 12.1 104 21.4C115.5 31.6 121.6 46 121.6 62.9C121.6 79.8 115.5 94.1 104 104.3C93.4001 113.6 79.0001 118.8 63.6001 118.8Z" fill="url(#paint2_radial_169_8558)" style=""/>
<path d="M63.6001 118.8C35.7001 118.8 5.6001 101.3 5.6001 62.9C5.6001 24.5 35.7001 7 63.6001 7C79.1001 7 93.4001 12.1 104 21.4C115.5 31.6 121.6 46 121.6 62.9C121.6 79.8 115.5 94.1 104 104.3C93.4001 113.6 79.0001 118.8 63.6001 118.8Z" fill="url(#paint3_radial_169_8558)" style=""/>
<path d="M111.49 29.67C116.82 38.27 119.6 48.51 119.6 59.9C119.6 76.8 113.5 91.1 102 101.3C91.4002 110.6 77.0002 115.8 61.6002 115.8C43.5402 115.8 24.6002 108.45 13.4202 92.86C24.1802 110.52 44.4202 118.8 63.6002 118.8C79.0002 118.8 93.4002 113.6 104 104.3C115.5 94.1 121.6 79.8 121.6 62.9C121.6 50.16 118.13 38.84 111.49 29.67Z" fill="#EB8F00" style="fill:#EB8F00;fill:color(display-p3 0.9216 0.5608 0.0000);fill-opacity:1;"/>
<path d="M111.49 29.67C116.82 38.27 119.6 48.51 119.6 59.9C119.6 76.8 113.5 91.1 102 101.3C91.4002 110.6 77.0002 115.8 61.6002 115.8C43.5402 115.8 24.6002 108.45 13.4202 92.86C24.1802 110.52 44.4202 118.8 63.6002 118.8C79.0002 118.8 93.4002 113.6 104 104.3C115.5 94.1 121.6 79.8 121.6 62.9C121.6 50.16 118.13 38.84 111.49 29.67Z" fill="#4A2F27" style="fill:#4A2F27;fill:color(display-p3 0.2902 0.1843 0.1529);fill-opacity:1;"/>
<path d="M62.8999 111.04C78.4964 111.04 91.1399 99.968 91.1399 86.31C91.1399 72.652 78.4964 61.58 62.8999 61.58C47.3034 61.58 34.6599 72.652 34.6599 86.31C34.6599 99.968 47.3034 111.04 62.8999 111.04Z" fill="#422B0D" style="fill:#422B0D;fill:color(display-p3 0.2588 0.1686 0.0510);fill-opacity:1;"/>
<path d="M62.8999 111.04C78.4964 111.04 91.1399 99.968 91.1399 86.31C91.1399 72.652 78.4964 61.58 62.8999 61.58C47.3034 61.58 34.6599 72.652 34.6599 86.31C34.6599 99.968 47.3034 111.04 62.8999 111.04Z" fill="#1A1717" style="fill:#1A1717;fill:color(display-p3 0.1020 0.0902 0.0902);fill-opacity:1;"/>
<path d="M95.81 49.07C95.81 49.07 89.6 38 76.76 40.36L95.81 49.07Z" fill="#1A1717" style="fill:#1A1717;fill:color(display-p3 0.1020 0.0902 0.0902);fill-opacity:1;"/>
<path d="M95.81 49.07C95.81 49.07 89.6 38 76.76 40.36L95.81 49.07Z" fill="#1A1717" style="fill:#1A1717;fill:color(display-p3 0.1020 0.0902 0.0902);fill-opacity:1;"/>
<path d="M95.81 49.07C95.81 49.07 89.6 38 76.76 40.36" stroke="#1A1717" style="stroke:#1A1717;stroke:color(display-p3 0.1020 0.0902 0.0902);stroke-opacity:1;" stroke-width="6" stroke-miterlimit="10" stroke-linecap="round"/>
<path d="M31.76 49.07C31.76 49.07 38 38 50.81 40.36L31.76 49.07Z" fill="#1A1717" style="fill:#1A1717;fill:color(display-p3 0.1020 0.0902 0.0902);fill-opacity:1;"/>
<path d="M31.76 49.07C31.76 49.07 38 38 50.81 40.36" stroke="#1A1717" style="stroke:#1A1717;stroke:color(display-p3 0.1020 0.0902 0.0902);stroke-opacity:1;" stroke-width="6" stroke-miterlimit="10" stroke-linecap="round"/>
<path opacity="0.66" d="M71.1699 83.0001C71.6199 81.0001 71.9599 81.9101 72.2499 79.9201C72.4699 78.4201 74.9299 75.1 74.9599 73.59C74.9599 72.48 75.4999 70.7201 74.8699 69.8101C72.6699 66.6701 70.3099 70.7401 69.1899 71.1201C65.3299 72.4001 62.9799 76.2901 59.3999 78.1501C54.8499 80.4801 45.5199 85.3001 40.5299 86.4301C42.6699 82.2701 47.5899 63.5201 40.6899 65.1301C37.5399 65.8601 35.4899 70.7801 34.7699 72.2101C30.8599 80.0101 25.4299 83.7201 21.2099 91.1001C16.9899 98.4801 16.8299 106.44 21.4999 113.84C23.1999 116.68 25.5399 119.08 28.3399 120.84C31.2799 122.56 34.4499 121.28 37.2099 119.84C44.0099 116.37 50.3799 112.13 56.2099 107.2C61.9299 102.2 66.7899 95.9501 69.4499 88.7901C70.1499 86.8901 70.7299 84.9601 71.1699 83.0001Z" fill="url(#paint4_linear_169_8558)" style=""/>
<path d="M86.7999 86.85C84.5799 83.67 78.7999 86.92 78.7999 86.92C78.7999 86.92 81.7999 84.31 84.2999 81.92C85.8999 80.39 87.2999 77.13 85.9899 74.92C84.6799 72.71 80.8699 72.85 78.9999 74L71.6699 78.5C71.6699 78.5 74.4199 77.3 75.2499 72.58C75.7699 70.67 74.6499 68.7 72.7399 68.18C72.3799 68.08 72.0099 68.04 71.6399 68.06C69.9099 68.21 68.2599 68.85 66.8699 69.9C61.5699 73.66 47.4199 83.25 44.2499 83C43.0199 82.9 42.9099 82.71 45.4999 77.17C47.2399 73.85 47.3999 69.92 45.9399 66.47C45.0899 64.47 41.1699 63.92 39.9399 65.85C39.0099 67.27 38.3399 70.75 36.7199 74.25C33.9999 80 27.7299 87.72 27.2199 88.48C23.4899 94 16.5399 104.29 23.8199 115.83C30.2599 126.05 44.9599 126.53 52.4899 123.83C66.8799 118.73 80.1299 108.93 80.3799 108.73C82.9999 106.65 85.3799 103.6 84.2999 100.82C82.9699 97.38 78.5599 99.42 78.5599 99.42C81.1099 97.87 83.3999 95.92 85.3299 93.64C87.1599 91.28 88.2899 89 86.7999 86.85Z" fill="url(#paint5_radial_169_8558)" style=""/>
<path d="M86.7999 86.85C84.5799 83.67 78.7999 86.92 78.7999 86.92C78.7999 86.92 81.7999 84.31 84.2999 81.92C85.8999 80.39 87.2999 77.13 85.9899 74.92C84.6799 72.71 80.8699 72.85 78.9999 74L71.6699 78.5C71.6699 78.5 74.4199 77.3 75.2499 72.58C75.7699 70.67 74.6499 68.7 72.7399 68.18C72.3799 68.08 72.0099 68.04 71.6399 68.06C69.9099 68.21 68.2599 68.85 66.8699 69.9C61.5699 73.66 47.4199 83.25 44.2499 83C43.0199 82.9 42.9099 82.71 45.4999 77.17C47.2399 73.85 47.3999 69.92 45.9399 66.47C45.0899 64.47 41.1699 63.92 39.9399 65.85C39.0099 67.27 38.3399 70.75 36.7199 74.25C33.9999 80 27.7299 87.72 27.2199 88.48C23.4899 94 16.5399 104.29 23.8199 115.83C30.2599 126.05 44.9599 126.53 52.4899 123.83C66.8799 118.73 80.1299 108.93 80.3799 108.73C82.9999 106.65 85.3799 103.6 84.2999 100.82C82.9699 97.38 78.5599 99.42 78.5599 99.42C81.1099 97.87 83.3999 95.92 85.3299 93.64C87.1599 91.28 88.2899 89 86.7999 86.85Z" fill="url(#paint6_radial_169_8558)" style=""/>
<path d="M86.7999 86.85C84.5799 83.67 78.7999 86.92 78.7999 86.92C78.7999 86.92 81.7999 84.31 84.2999 81.92C85.8999 80.39 87.2999 77.13 85.9899 74.92C84.6799 72.71 80.8699 72.85 78.9999 74L71.6699 78.5C71.6699 78.5 74.4199 77.3 75.2499 72.58C75.7699 70.67 74.6499 68.7 72.7399 68.18C72.3799 68.08 72.0099 68.04 71.6399 68.06C69.9099 68.21 68.2599 68.85 66.8699 69.9C61.5699 73.66 47.4199 83.25 44.2499 83C43.0199 82.9 42.9099 82.71 45.4999 77.17C47.2399 73.85 47.3999 69.92 45.9399 66.47C45.0899 64.47 41.1699 63.92 39.9399 65.85C39.0099 67.27 38.3399 70.75 36.7199 74.25C33.9999 80 27.7299 87.72 27.2199 88.48C23.4899 94 16.5399 104.29 23.8199 115.83C30.2599 126.05 44.9599 126.53 52.4899 123.83C66.8799 118.73 80.1299 108.93 80.3799 108.73C82.9999 106.65 85.3799 103.6 84.2999 100.82C82.9699 97.38 78.5599 99.42 78.5599 99.42C81.1099 97.87 83.3999 95.92 85.3299 93.64C87.1599 91.28 88.2899 89 86.7999 86.85Z" fill="url(#paint7_radial_169_8558)" style=""/>
<path d="M54.06 90.2501C53.06 89.1701 58.06 87.2501 60.06 85.7901L66.32 81.7901C68.38 80.4601 70.29 78.9201 72.03 77.2001C73.83 75.5501 74.96 73.3001 75.2 70.8701C75.47 72.1501 75.4 73.4801 75 74.7201C74.58 75.9701 73.95 77.1401 73.12 78.1601C71.46 80.1201 69.53 81.8301 67.38 83.2401C65.34 84.7201 63.21 86.0501 60.99 87.2401C58.77 88.4101 54.63 91.3501 54.06 90.2501Z" fill="#EB8F00" style="fill:#EB8F00;fill:color(display-p3 0.9216 0.5608 0.0000);fill-opacity:1;"/>
<path d="M54.06 90.2501C53.06 89.1701 58.06 87.2501 60.06 85.7901L66.32 81.7901C68.38 80.4601 70.29 78.9201 72.03 77.2001C73.83 75.5501 74.96 73.3001 75.2 70.8701C75.47 72.1501 75.4 73.4801 75 74.7201C74.58 75.9701 73.95 77.1401 73.12 78.1601C71.46 80.1201 69.53 81.8301 67.38 83.2401C65.34 84.7201 63.21 86.0501 60.99 87.2401C58.77 88.4101 54.63 91.3501 54.06 90.2501Z" fill="#4A2F27" style="fill:#4A2F27;fill:color(display-p3 0.2902 0.1843 0.1529);fill-opacity:1;"/>
<path d="M66.3799 105.75C65.8199 104.94 70.29 103.6 72.19 102.48C74.08 101.38 75.9099 100.19 77.6699 98.9101C79.4399 97.6001 81.2099 96.3301 82.8499 94.9101C84.5499 93.5101 86.0999 91.9401 87.4899 90.2401C86.7999 92.4401 85.6 94.4501 84 96.1101C82.44 97.7701 80.69 99.2401 78.8 100.51C77 101.82 67.4099 107.54 66.3799 105.75Z" fill="#EB8F00" style="fill:#EB8F00;fill:color(display-p3 0.9216 0.5608 0.0000);fill-opacity:1;"/>
<path d="M66.3799 105.75C65.8199 104.94 70.29 103.6 72.19 102.48C74.08 101.38 75.9099 100.19 77.6699 98.9101C79.4399 97.6001 81.2099 96.3301 82.8499 94.9101C84.5499 93.5101 86.0999 91.9401 87.4899 90.2401C86.7999 92.4401 85.6 94.4501 84 96.1101C82.44 97.7701 80.69 99.2401 78.8 100.51C77 101.82 67.4099 107.54 66.3799 105.75Z" fill="#4A2F27" style="fill:#4A2F27;fill:color(display-p3 0.2902 0.1843 0.1529);fill-opacity:1;"/>
<path d="M60.9999 98.0001C60.1499 97.0001 65.9999 94.8301 68.3699 93.2601C70.7399 91.6901 73.1099 90.2001 75.5199 88.5301C77.8999 86.9501 80.1599 85.2101 82.2799 83.3101C83.3099 82.3601 84.2199 81.2901 84.9999 80.1301C85.8099 78.9401 86.2999 77.5601 86.4199 76.1301C86.6699 77.6201 86.4499 79.1601 85.7899 80.5201C85.1599 81.9001 84.3199 83.1701 83.3099 84.2901C82.3399 85.4201 81.2699 86.4601 80.1199 87.4101C78.9899 88.4101 77.8099 89.2601 76.6199 90.1101C74.2699 91.8701 71.7799 93.4301 69.1799 94.8001C66.5399 96.1501 61.8799 99.1501 60.9999 98.0001Z" fill="#EB8F00" style="fill:#EB8F00;fill:color(display-p3 0.9216 0.5608 0.0000);fill-opacity:1;"/>
<path d="M60.9999 98.0001C60.1499 97.0001 65.9999 94.8301 68.3699 93.2601C70.7399 91.6901 73.1099 90.2001 75.5199 88.5301C77.8999 86.9501 80.1599 85.2101 82.2799 83.3101C83.3099 82.3601 84.2199 81.2901 84.9999 80.1301C85.8099 78.9401 86.2999 77.5601 86.4199 76.1301C86.6699 77.6201 86.4499 79.1601 85.7899 80.5201C85.1599 81.9001 84.3199 83.1701 83.3099 84.2901C82.3399 85.4201 81.2699 86.4601 80.1199 87.4101C78.9899 88.4101 77.8099 89.2601 76.6199 90.1101C74.2699 91.8701 71.7799 93.4301 69.1799 94.8001C66.5399 96.1501 61.8799 99.1501 60.9999 98.0001Z" fill="#4A2F27" style="fill:#4A2F27;fill:color(display-p3 0.2902 0.1843 0.1529);fill-opacity:1;"/>
<path d="M30.5798 122C33.0998 122.96 35.7398 123.58 38.4298 123.84C41.0898 124.14 43.7698 124.14 46.4298 123.84C49.0598 123.54 51.6498 122.96 54.1598 122.11C56.6798 121.24 59.1298 120.18 61.4898 118.93C66.3398 116.56 71.1498 114.11 75.7498 111.33C78.0498 109.99 80.1998 108.39 82.1498 106.57C83.1098 105.67 83.8298 104.55 84.2598 103.3C84.6898 102.02 84.3998 100.6 83.5098 99.59C84.5598 100.55 85.0098 102.01 84.6698 103.39C84.3198 104.76 83.6698 106.03 82.7598 107.11C81.8898 108.21 80.9098 109.21 79.8398 110.11C78.7898 111 77.6998 111.84 76.5698 112.62C72.0398 115.68 67.2998 118.41 62.3698 120.77C59.9198 122.05 57.3698 123.12 54.7498 123.98C52.0898 124.8 49.3398 125.3 46.5598 125.46C41.0098 125.84 35.4698 124.64 30.5798 122Z" fill="#EB8F00" style="fill:#EB8F00;fill:color(display-p3 0.9216 0.5608 0.0000);fill-opacity:1;"/>
<path d="M30.5798 122C33.0998 122.96 35.7398 123.58 38.4298 123.84C41.0898 124.14 43.7698 124.14 46.4298 123.84C49.0598 123.54 51.6498 122.96 54.1598 122.11C56.6798 121.24 59.1298 120.18 61.4898 118.93C66.3398 116.56 71.1498 114.11 75.7498 111.33C78.0498 109.99 80.1998 108.39 82.1498 106.57C83.1098 105.67 83.8298 104.55 84.2598 103.3C84.6898 102.02 84.3998 100.6 83.5098 99.59C84.5598 100.55 85.0098 102.01 84.6698 103.39C84.3198 104.76 83.6698 106.03 82.7598 107.11C81.8898 108.21 80.9098 109.21 79.8398 110.11C78.7898 111 77.6998 111.84 76.5698 112.62C72.0398 115.68 67.2998 118.41 62.3698 120.77C59.9198 122.05 57.3698 123.12 54.7498 123.98C52.0898 124.8 49.3398 125.3 46.5598 125.46C41.0098 125.84 35.4698 124.64 30.5798 122Z" fill="#4A2F27" style="fill:#4A2F27;fill:color(display-p3 0.2902 0.1843 0.1529);fill-opacity:1;"/>
<defs>
<radialGradient id="paint0_radial_169_8558" cx="0" cy="0" r="1" gradientUnits="userSpaceOnUse" gradientTransform="translate(63.6001 62.8999) scale(56.9597 56.9597)">
<stop offset="0.5" stop-color="#FDE030" style="stop-color:#FDE030;stop-color:color(display-p3 0.9922 0.8784 0.1882);stop-opacity:1;"/>
<stop offset="0.92" stop-color="#F7C02B" style="stop-color:#F7C02B;stop-color:color(display-p3 0.9686 0.7529 0.1686);stop-opacity:1;"/>
<stop offset="1" stop-color="#F4A223" style="stop-color:#F4A223;stop-color:color(display-p3 0.9569 0.6353 0.1373);stop-opacity:1;"/>
</radialGradient>
<linearGradient id="paint1_linear_169_8558" x1="63.6001" y1="118.8" x2="63.6001" y2="7" gradientUnits="userSpaceOnUse">
<stop offset="0.16" stop-color="#F4A223" style="stop-color:#F4A223;stop-color:color(display-p3 0.9569 0.6353 0.1373);stop-opacity:1;"/>
<stop offset="0.33" stop-color="#F7C02B" style="stop-color:#F7C02B;stop-color:color(display-p3 0.9686 0.7529 0.1686);stop-opacity:1;"/>
<stop offset="0.81" stop-color="#FDE030" stop-opacity="0" style="stop-color:none;stop-opacity:0;"/>
</linearGradient>
<radialGradient id="paint2_radial_169_8558" cx="0" cy="0" r="1" gradientUnits="userSpaceOnUse" gradientTransform="translate(38.5991 34.5377) rotate(-43.2082) scale(102.024 101.825)">
<stop offset="0.3533" stop-color="#F9DDBD" style="stop-color:#F9DDBD;stop-color:color(display-p3 0.9765 0.8667 0.7412);stop-opacity:1;"/>
<stop offset="0.8723" stop-color="#FFD29C" style="stop-color:#FFD29C;stop-color:color(display-p3 1.0000 0.8235 0.6118);stop-opacity:1;"/>
</radialGradient>
<radialGradient id="paint3_radial_169_8558" cx="0" cy="0" r="1" gradientUnits="userSpaceOnUse" gradientTransform="translate(38.5991 34.5377) rotate(-43.2082) scale(102.024 101.825)">
<stop offset="0.3533" stop-color="#70534A" style="stop-color:#70534A;stop-color:color(display-p3 0.4392 0.3255 0.2902);stop-opacity:1;"/>
<stop offset="0.8723" stop-color="#5C4037" style="stop-color:#5C4037;stop-color:color(display-p3 0.3608 0.2510 0.2157);stop-opacity:1;"/>
</radialGradient>
<linearGradient id="paint4_linear_169_8558" x1="46.817" y1="134.693" x2="45.7433" y2="65.1577" gradientUnits="userSpaceOnUse">
<stop stop-color="#140905" style="stop-color:#140905;stop-color:color(display-p3 0.0792 0.0350 0.0214);stop-opacity:1;"/>
<stop offset="1" stop-color="#2C1109" stop-opacity="0.2" style="stop-color:#2C1109;stop-color:color(display-p3 0.1708 0.0679 0.0363);stop-opacity:0.2;"/>
</linearGradient>
<radialGradient id="paint5_radial_169_8558" cx="0" cy="0" r="1" gradientUnits="userSpaceOnUse" gradientTransform="translate(55.0599 81.94) scale(65.06 65.06)">
<stop offset="0.27" stop-color="#FFF176" style="stop-color:#FFF176;stop-color:color(display-p3 1.0000 0.9451 0.4627);stop-opacity:1;"/>
<stop offset="1" stop-color="#FFC400" style="stop-color:#FFC400;stop-color:color(display-p3 1.0000 0.7686 0.0000);stop-opacity:1;"/>
</radialGradient>
<radialGradient id="paint6_radial_169_8558" cx="0" cy="0" r="1" gradientUnits="userSpaceOnUse" gradientTransform="translate(39.6499 79.5747) rotate(-41.4461) scale(57.1781 56.7387)">
<stop offset="0.3533" stop-color="#F9DDBD" style="stop-color:#F9DDBD;stop-color:color(display-p3 0.9765 0.8667 0.7412);stop-opacity:1;"/>
<stop offset="0.8723" stop-color="#FFD29C" style="stop-color:#FFD29C;stop-color:color(display-p3 1.0000 0.8235 0.6118);stop-opacity:1;"/>
</radialGradient>
<radialGradient id="paint7_radial_169_8558" cx="0" cy="0" r="1" gradientUnits="userSpaceOnUse" gradientTransform="translate(39.6499 79.5747) rotate(-12.789) scale(67.404 66.886)">
<stop offset="0.3533" stop-color="#8C6D64" style="stop-color:#8C6D64;stop-color:color(display-p3 0.5500 0.4293 0.3919);stop-opacity:1;"/>
<stop offset="0.8723" stop-color="#5C4037" style="stop-color:#5C4037;stop-color:color(display-p3 0.3608 0.2510 0.2157);stop-opacity:1;"/>
</radialGradient>
</defs>
</svg>
