<svg width="128" height="128" viewBox="0 0 128 128" fill="none" xmlns="http://www.w3.org/2000/svg">
<path d="M63.6001 118.8C35.7001 118.8 5.6001 101.3 5.6001 62.9C5.6001 24.5 35.7001 7 63.6001 7C79.1001 7 93.4001 12.1 104 21.4C115.5 31.6 121.6 46 121.6 62.9C121.6 79.8 115.5 94.1 104 104.3C93.4001 113.6 79.0001 118.8 63.6001 118.8Z" fill="url(#paint0_radial_169_9137)" style=""/>
<path d="M63.6001 118.8C35.7001 118.8 5.6001 101.3 5.6001 62.9C5.6001 24.5 35.7001 7 63.6001 7C79.1001 7 93.4001 12.1 104 21.4C115.5 31.6 121.6 46 121.6 62.9C121.6 79.8 115.5 94.1 104 104.3C93.4001 113.6 79.0001 118.8 63.6001 118.8Z" fill="url(#paint1_linear_169_9137)" style=""/>
<path d="M63.6001 118.8C35.7001 118.8 5.6001 101.3 5.6001 62.9C5.6001 24.5 35.7001 7 63.6001 7C79.1001 7 93.4001 12.1 104 21.4C115.5 31.6 121.6 46 121.6 62.9C121.6 79.8 115.5 94.1 104 104.3C93.4001 113.6 79.0001 118.8 63.6001 118.8Z" fill="url(#paint2_radial_169_9137)" style=""/>
<path d="M63.6001 118.8C35.7001 118.8 5.6001 101.3 5.6001 62.9C5.6001 24.5 35.7001 7 63.6001 7C79.1001 7 93.4001 12.1 104 21.4C115.5 31.6 121.6 46 121.6 62.9C121.6 79.8 115.5 94.1 104 104.3C93.4001 113.6 79.0001 118.8 63.6001 118.8Z" fill="url(#paint3_radial_169_9137)" style=""/>
<path d="M111.49 29.67C116.82 38.27 119.6 48.51 119.6 59.9C119.6 76.8 113.5 91.1 102 101.3C91.4002 110.6 77.0002 115.8 61.6002 115.8C43.5402 115.8 24.6002 108.45 13.4202 92.86C24.1802 110.52 44.4202 118.8 63.6002 118.8C79.0002 118.8 93.4002 113.6 104 104.3C115.5 94.1 121.6 79.8 121.6 62.9C121.6 50.16 118.13 38.84 111.49 29.67Z" fill="#EB8F00" style="fill:#EB8F00;fill:color(display-p3 0.9216 0.5608 0.0000);fill-opacity:1;"/>
<path d="M111.49 29.67C116.82 38.27 119.6 48.51 119.6 59.9C119.6 76.8 113.5 91.1 102 101.3C91.4002 110.6 77.0002 115.8 61.6002 115.8C43.5402 115.8 24.6002 108.45 13.4202 92.86C24.1802 110.52 44.4202 118.8 63.6002 118.8C79.0002 118.8 93.4002 113.6 104 104.3C115.5 94.1 121.6 79.8 121.6 62.9C121.6 50.16 118.13 38.84 111.49 29.67Z" fill="#4A2F27" style="fill:#4A2F27;fill:color(display-p3 0.2902 0.1843 0.1529);fill-opacity:1;"/>
<path opacity="0.5" d="M27.25 85.66C36.915 85.66 44.75 77.825 44.75 68.16C44.75 58.495 36.915 50.66 27.25 50.66C17.585 50.66 9.75 58.495 9.75 68.16C9.75 77.825 17.585 85.66 27.25 85.66Z" fill="url(#paint4_radial_169_9137)" style=""/>
<path opacity="0.5" d="M100.36 85.66C110.025 85.66 117.86 77.825 117.86 68.16C117.86 58.495 110.025 50.66 100.36 50.66C90.6951 50.66 82.8601 58.495 82.8601 68.16C82.8601 77.825 90.6951 85.66 100.36 85.66Z" fill="url(#paint5_radial_169_9137)" style=""/>
<path d="M49.56 49.12L49.41 48.92L49 48.38L48.47 47.8C48.25 47.56 47.99 47.31 47.74 47.05C47.49 46.79 47.18 46.55 46.9 46.33C46.64 46.13 46.36 45.94 46.06 45.79C45.86 45.68 45.64 45.59 45.41 45.54C45.34 45.53 45.27 45.53 45.2 45.54H45.3H44.75C44.6 45.54 44.75 45.54 44.75 45.54H44.83C44.83 45.54 44.91 45.54 44.83 45.54C44.79 45.53 44.76 45.53 44.72 45.54C44.49 45.59 44.27 45.67 44.06 45.79C43.77 45.95 43.48 46.13 43.22 46.33C42.94 46.55 42.65 46.8 42.39 47.05C41.86 47.56 41.39 48.05 41.09 48.44L40.57 49.04L40.34 49.31C38.9 50.92 36.47 51.18 34.72 49.92C33.6 49.14 33.03 47.79 33.25 46.45C33.25 46.45 33.32 46.04 33.51 45.33C33.82 44.32 34.24 43.34 34.76 42.42C35.62 40.92 36.77 39.62 38.14 38.58C39.06 37.87 40.09 37.31 41.19 36.92C41.49 36.8 41.8 36.71 42.11 36.63C42.44 36.54 42.77 36.46 43.11 36.4L43.72 36.31L44.23 36.26H44.78H45.31H45.57H46.08C46.42 36.26 46.75 36.35 47.08 36.4C48.87 36.73 50.56 37.47 52 38.58C53.38 39.62 54.53 40.92 55.38 42.42C55.69 42.94 55.96 43.49 56.18 44.06C56.37 44.5 56.53 44.94 56.66 45.4C56.73 45.64 56.79 45.88 56.82 46.12V46.37C57.12 48.42 55.7 50.32 53.65 50.62C53.6 50.63 53.56 50.63 53.51 50.64C52.02 50.88 50.51 50.3 49.56 49.12Z" fill="#422B0D" style="fill:#422B0D;fill:color(display-p3 0.2588 0.1686 0.0510);fill-opacity:1;"/>
<path d="M49.56 49.12L49.41 48.92L49 48.38L48.47 47.8C48.25 47.56 47.99 47.31 47.74 47.05C47.49 46.79 47.18 46.55 46.9 46.33C46.64 46.13 46.36 45.94 46.06 45.79C45.86 45.68 45.64 45.59 45.41 45.54C45.34 45.53 45.27 45.53 45.2 45.54H45.3H44.75C44.6 45.54 44.75 45.54 44.75 45.54H44.83C44.83 45.54 44.91 45.54 44.83 45.54C44.79 45.53 44.76 45.53 44.72 45.54C44.49 45.59 44.27 45.67 44.06 45.79C43.77 45.95 43.48 46.13 43.22 46.33C42.94 46.55 42.65 46.8 42.39 47.05C41.86 47.56 41.39 48.05 41.09 48.44L40.57 49.04L40.34 49.31C38.9 50.92 36.47 51.18 34.72 49.92C33.6 49.14 33.03 47.79 33.25 46.45C33.25 46.45 33.32 46.04 33.51 45.33C33.82 44.32 34.24 43.34 34.76 42.42C35.62 40.92 36.77 39.62 38.14 38.58C39.06 37.87 40.09 37.31 41.19 36.92C41.49 36.8 41.8 36.71 42.11 36.63C42.44 36.54 42.77 36.46 43.11 36.4L43.72 36.31L44.23 36.26H44.78H45.31H45.57H46.08C46.42 36.26 46.75 36.35 47.08 36.4C48.87 36.73 50.56 37.47 52 38.58C53.38 39.62 54.53 40.92 55.38 42.42C55.69 42.94 55.96 43.49 56.18 44.06C56.37 44.5 56.53 44.94 56.66 45.4C56.73 45.64 56.79 45.88 56.82 46.12V46.37C57.12 48.42 55.7 50.32 53.65 50.62C53.6 50.63 53.56 50.63 53.51 50.64C52.02 50.88 50.51 50.3 49.56 49.12Z" fill="#1A1717" style="fill:#1A1717;fill:color(display-p3 0.1020 0.0902 0.0902);fill-opacity:1;"/>
<path d="M87.0599 49.12L86.8999 48.92L86.4699 48.38L85.9399 47.8C85.7199 47.56 85.4599 47.31 85.2099 47.05C84.9599 46.79 84.6499 46.55 84.3699 46.33C84.1099 46.13 83.8299 45.94 83.5299 45.79C83.3299 45.68 83.1099 45.59 82.8799 45.54C82.8099 45.53 82.7399 45.53 82.6699 45.54H82.7699H82.2199C82.0699 45.54 82.2199 45.54 82.2199 45.54H82.2999C82.2999 45.54 82.3799 45.54 82.2999 45.54C82.2599 45.53 82.2299 45.53 82.1899 45.54C81.9599 45.59 81.7399 45.67 81.5299 45.79C81.2399 45.94 80.9599 46.13 80.6999 46.33C80.4099 46.55 80.1299 46.79 79.8599 47.05C79.3299 47.56 78.8599 48.05 78.5599 48.44L77.9999 49L77.7799 49.27C76.3299 50.88 73.9099 51.14 72.1499 49.88C71.0299 49.1 70.4599 47.75 70.6799 46.41C70.6799 46.41 70.7499 46 70.9499 45.29C71.2499 44.27 71.6699 43.3 72.1999 42.38C73.0499 40.88 74.1999 39.58 75.5699 38.54C76.4799 37.84 77.4899 37.28 78.5699 36.88C78.8699 36.76 79.1799 36.67 79.4899 36.59C79.8199 36.5 80.1499 36.42 80.4899 36.36L81.1099 36.27L81.6099 36.22H82.1599H82.6899H82.9499H83.4599C83.7999 36.22 84.1299 36.31 84.4599 36.36C85.0999 36.47 85.7399 36.64 86.3499 36.87C87.4299 37.26 88.4399 37.82 89.3499 38.53C90.7299 39.57 91.8799 40.87 92.7299 42.37C93.0399 42.89 93.3099 43.44 93.5299 44.01C93.7199 44.45 93.8799 44.89 94.0099 45.35C94.0799 45.59 94.1399 45.83 94.1699 46.07V46.32C94.5099 48.36 93.1199 50.29 91.0799 50.63C91.0499 50.63 91.0299 50.64 90.9999 50.64C89.5099 50.88 87.9999 50.3 87.0599 49.12Z" fill="#422B0D" style="fill:#422B0D;fill:color(display-p3 0.2588 0.1686 0.0510);fill-opacity:1;"/>
<path d="M87.0599 49.12L86.8999 48.92L86.4699 48.38L85.9399 47.8C85.7199 47.56 85.4599 47.31 85.2099 47.05C84.9599 46.79 84.6499 46.55 84.3699 46.33C84.1099 46.13 83.8299 45.94 83.5299 45.79C83.3299 45.68 83.1099 45.59 82.8799 45.54C82.8099 45.53 82.7399 45.53 82.6699 45.54H82.7699H82.2199C82.0699 45.54 82.2199 45.54 82.2199 45.54H82.2999C82.2999 45.54 82.3799 45.54 82.2999 45.54C82.2599 45.53 82.2299 45.53 82.1899 45.54C81.9599 45.59 81.7399 45.67 81.5299 45.79C81.2399 45.94 80.9599 46.13 80.6999 46.33C80.4099 46.55 80.1299 46.79 79.8599 47.05C79.3299 47.56 78.8599 48.05 78.5599 48.44L77.9999 49L77.7799 49.27C76.3299 50.88 73.9099 51.14 72.1499 49.88C71.0299 49.1 70.4599 47.75 70.6799 46.41C70.6799 46.41 70.7499 46 70.9499 45.29C71.2499 44.27 71.6699 43.3 72.1999 42.38C73.0499 40.88 74.1999 39.58 75.5699 38.54C76.4799 37.84 77.4899 37.28 78.5699 36.88C78.8699 36.76 79.1799 36.67 79.4899 36.59C79.8199 36.5 80.1499 36.42 80.4899 36.36L81.1099 36.27L81.6099 36.22H82.1599H82.6899H82.9499H83.4599C83.7999 36.22 84.1299 36.31 84.4599 36.36C85.0999 36.47 85.7399 36.64 86.3499 36.87C87.4299 37.26 88.4399 37.82 89.3499 38.53C90.7299 39.57 91.8799 40.87 92.7299 42.37C93.0399 42.89 93.3099 43.44 93.5299 44.01C93.7199 44.45 93.8799 44.89 94.0099 45.35C94.0799 45.59 94.1399 45.83 94.1699 46.07V46.32C94.5099 48.36 93.1199 50.29 91.0799 50.63C91.0499 50.63 91.0299 50.64 90.9999 50.64C89.5099 50.88 87.9999 50.3 87.0599 49.12Z" fill="#1A1717" style="fill:#1A1717;fill:color(display-p3 0.1020 0.0902 0.0902);fill-opacity:1;"/>
<path opacity="0.66" d="M79.1699 75C79.6199 73 79.9599 73.91 80.2499 71.92C80.4699 70.42 82.9299 67.1 82.9599 65.59C82.9599 64.48 83.4999 62.72 82.8699 61.81C80.6699 58.67 76.9899 60.18 75.8699 60.56C72.0099 61.84 68.6999 64.26 65.1199 66.12C60.5699 68.45 55.7399 70.2 50.7499 71.33C52.8899 67.17 55.5899 55.51 48.6899 57.12C45.5399 57.85 43.4899 62.77 42.7699 64.2C38.8599 72 33.4299 75.71 29.2099 83.09C24.9899 90.47 24.8299 98.43 29.4999 105.83C31.1999 108.67 33.5399 111.07 36.3399 112.83C39.2799 114.55 42.4499 113.27 45.2099 111.83C52.0299 108.34 58.4199 104.07 64.2599 99.11C69.9999 94.06 74.8399 87.86 77.4999 80.7C78.1799 78.84 78.7399 76.93 79.1699 75Z" fill="url(#paint6_linear_169_9137)" style=""/>
<path d="M94.7999 78.85C92.5799 75.67 86.7999 78.92 86.7999 78.92C86.7999 78.92 89.7999 76.31 92.2999 73.92C93.8999 72.39 95.2999 69.13 93.9899 66.92C92.6799 64.71 88.8699 64.85 86.9999 66L79.6699 70.5C79.6699 70.5 82.4199 69.3 83.2499 64.58C83.7699 62.67 82.6499 60.7 80.7399 60.18C80.3799 60.08 80.0099 60.04 79.6399 60.06C77.9099 60.21 76.2599 60.85 74.8699 61.9C69.5699 65.66 55.4199 75.25 52.2499 75C51.0199 74.9 50.9099 74.71 53.4999 69.17C55.2399 65.85 55.3999 61.92 53.9399 58.47C53.0899 56.47 49.1699 55.92 47.9399 57.85C47.0099 59.27 46.3399 62.75 44.7199 66.25C41.9999 72 35.7299 79.72 35.2199 80.48C31.4899 86 24.5399 96.29 31.8199 107.83C38.2599 118.05 52.9599 118.53 60.4899 115.83C74.8799 110.73 88.1299 100.93 88.3799 100.73C90.9999 98.65 93.3799 95.6 92.2999 92.82C90.9699 89.38 86.5599 91.42 86.5599 91.42C89.1099 89.87 91.3999 87.92 93.3299 85.64C95.1599 83.28 96.2899 81 94.7999 78.85Z" fill="url(#paint7_radial_169_9137)" style=""/>
<path d="M94.7999 78.85C92.5799 75.67 86.7999 78.92 86.7999 78.92C86.7999 78.92 89.7999 76.31 92.2999 73.92C93.8999 72.39 95.2999 69.13 93.9899 66.92C92.6799 64.71 88.8699 64.85 86.9999 66L79.6699 70.5C79.6699 70.5 82.4199 69.3 83.2499 64.58C83.7699 62.67 82.6499 60.7 80.7399 60.18C80.3799 60.08 80.0099 60.04 79.6399 60.06C77.9099 60.21 76.2599 60.85 74.8699 61.9C69.5699 65.66 55.4199 75.25 52.2499 75C51.0199 74.9 50.9099 74.71 53.4999 69.17C55.2399 65.85 55.3999 61.92 53.9399 58.47C53.0899 56.47 49.1699 55.92 47.9399 57.85C47.0099 59.27 46.3399 62.75 44.7199 66.25C41.9999 72 35.7299 79.72 35.2199 80.48C31.4899 86 24.5399 96.29 31.8199 107.83C38.2599 118.05 52.9599 118.53 60.4899 115.83C74.8799 110.73 88.1299 100.93 88.3799 100.73C90.9999 98.65 93.3799 95.6 92.2999 92.82C90.9699 89.38 86.5599 91.42 86.5599 91.42C89.1099 89.87 91.3999 87.92 93.3299 85.64C95.1599 83.28 96.2899 81 94.7999 78.85Z" fill="url(#paint8_radial_169_9137)" style=""/>
<path d="M94.7999 78.85C92.5799 75.67 86.7999 78.92 86.7999 78.92C86.7999 78.92 89.7999 76.31 92.2999 73.92C93.8999 72.39 95.2999 69.13 93.9899 66.92C92.6799 64.71 88.8699 64.85 86.9999 66L79.6699 70.5C79.6699 70.5 82.4199 69.3 83.2499 64.58C83.7699 62.67 82.6499 60.7 80.7399 60.18C80.3799 60.08 80.0099 60.04 79.6399 60.06C77.9099 60.21 76.2599 60.85 74.8699 61.9C69.5699 65.66 55.4199 75.25 52.2499 75C51.0199 74.9 50.9099 74.71 53.4999 69.17C55.2399 65.85 55.3999 61.92 53.9399 58.47C53.0899 56.47 49.1699 55.92 47.9399 57.85C47.0099 59.27 46.3399 62.75 44.7199 66.25C41.9999 72 35.7299 79.72 35.2199 80.48C31.4899 86 24.5399 96.29 31.8199 107.83C38.2599 118.05 52.9599 118.53 60.4899 115.83C74.8799 110.73 88.1299 100.93 88.3799 100.73C90.9999 98.65 93.3799 95.6 92.2999 92.82C90.9699 89.38 86.5599 91.42 86.5599 91.42C89.1099 89.87 91.3999 87.92 93.3299 85.64C95.1599 83.28 96.2899 81 94.7999 78.85Z" fill="url(#paint9_radial_169_9137)" style=""/>
<path d="M94.7999 78.85C92.5799 75.67 86.7999 78.92 86.7999 78.92C86.7999 78.92 89.7999 76.31 92.2999 73.92C93.8999 72.39 95.2999 69.13 93.9899 66.92C92.6799 64.71 88.8699 64.85 86.9999 66L79.6699 70.5C79.6699 70.5 82.4199 69.3 83.2499 64.58C83.7699 62.67 82.6499 60.7 80.7399 60.18C80.3799 60.08 80.0099 60.04 79.6399 60.06C77.9099 60.21 76.2599 60.85 74.8699 61.9C69.5699 65.66 55.4199 75.25 52.2499 75C51.0199 74.9 50.9099 74.71 53.4999 69.17C55.2399 65.85 55.3999 61.92 53.9399 58.47C53.0899 56.47 49.1699 55.92 47.9399 57.85C47.0099 59.27 46.3399 62.75 44.7199 66.25C41.9999 72 35.7299 79.72 35.2199 80.48C31.4899 86 24.5399 96.29 31.8199 107.83C38.2599 118.05 52.9599 118.53 60.4899 115.83C74.8799 110.73 88.1299 100.93 88.3799 100.73C90.9999 98.65 93.3799 95.6 92.2999 92.82C90.9699 89.38 86.5599 91.42 86.5599 91.42C89.1099 89.87 91.3999 87.92 93.3299 85.64C95.1599 83.28 96.2899 81 94.7999 78.85Z" fill="url(#paint10_radial_169_9137)" style=""/>
<path d="M62.06 82.25C61.06 81.17 66.06 79.25 68.06 77.79L74.32 73.79C76.38 72.46 78.29 70.92 80.03 69.2C81.83 67.55 82.96 65.3 83.2 62.87C83.47 64.15 83.4 65.48 83 66.72C82.58 67.97 81.95 69.14 81.12 70.16C79.46 72.12 77.53 73.83 75.38 75.24C73.34 76.72 71.21 78.05 68.99 79.24C66.77 80.41 62.63 83.35 62.06 82.25Z" fill="#EB8F00" style="fill:#EB8F00;fill:color(display-p3 0.9216 0.5608 0.0000);fill-opacity:1;"/>
<path d="M62.06 82.25C61.06 81.17 66.06 79.25 68.06 77.79L74.32 73.79C76.38 72.46 78.29 70.92 80.03 69.2C81.83 67.55 82.96 65.3 83.2 62.87C83.47 64.15 83.4 65.48 83 66.72C82.58 67.97 81.95 69.14 81.12 70.16C79.46 72.12 77.53 73.83 75.38 75.24C73.34 76.72 71.21 78.05 68.99 79.24C66.77 80.41 62.63 83.35 62.06 82.25Z" fill="#4A2F27" style="fill:#4A2F27;fill:color(display-p3 0.2902 0.1843 0.1529);fill-opacity:1;"/>
<path d="M74.38 97.75C73.93 97.13 78.29 95.6 80.19 94.48C82.08 93.38 83.91 92.19 85.67 90.91C87.44 89.6 89.21 88.33 90.85 86.91C92.55 85.51 94.1 83.94 95.49 82.24C94.8 84.44 93.6 86.45 92 88.11C90.44 89.77 88.69 91.24 86.8 92.51C85 93.82 75.4 99.3 74.38 97.75Z" fill="#EB8F00" style="fill:#EB8F00;fill:color(display-p3 0.9216 0.5608 0.0000);fill-opacity:1;"/>
<path d="M74.38 97.75C73.93 97.13 78.29 95.6 80.19 94.48C82.08 93.38 83.91 92.19 85.67 90.91C87.44 89.6 89.21 88.33 90.85 86.91C92.55 85.51 94.1 83.94 95.49 82.24C94.8 84.44 93.6 86.45 92 88.11C90.44 89.77 88.69 91.24 86.8 92.51C85 93.82 75.4 99.3 74.38 97.75Z" fill="#4A2F27" style="fill:#4A2F27;fill:color(display-p3 0.2902 0.1843 0.1529);fill-opacity:1;"/>
<path d="M68.9999 90C68.1499 89 73.9999 86.83 76.3699 85.26C78.7399 83.69 81.1099 82.2 83.5199 80.53C85.8999 78.95 88.1599 77.21 90.2799 75.31C91.3099 74.36 92.2199 73.29 92.9999 72.13C93.8099 70.94 94.2999 69.56 94.4199 68.13C94.6699 69.62 94.4499 71.16 93.7899 72.52C93.1599 73.9 92.3199 75.17 91.3099 76.29C90.3399 77.42 89.2699 78.46 88.1199 79.41C86.9899 80.41 85.8099 81.26 84.6199 82.11C82.2699 83.87 79.7799 85.43 77.1799 86.8C74.5399 88.15 69.8799 91.15 68.9999 90Z" fill="#EB8F00" style="fill:#EB8F00;fill:color(display-p3 0.9216 0.5608 0.0000);fill-opacity:1;"/>
<path d="M68.9999 90C68.1499 89 73.9999 86.83 76.3699 85.26C78.7399 83.69 81.1099 82.2 83.5199 80.53C85.8999 78.95 88.1599 77.21 90.2799 75.31C91.3099 74.36 92.2199 73.29 92.9999 72.13C93.8099 70.94 94.2999 69.56 94.4199 68.13C94.6699 69.62 94.4499 71.16 93.7899 72.52C93.1599 73.9 92.3199 75.17 91.3099 76.29C90.3399 77.42 89.2699 78.46 88.1199 79.41C86.9899 80.41 85.8099 81.26 84.6199 82.11C82.2699 83.87 79.7799 85.43 77.1799 86.8C74.5399 88.15 69.8799 91.15 68.9999 90Z" fill="#4A2F27" style="fill:#4A2F27;fill:color(display-p3 0.2902 0.1843 0.1529);fill-opacity:1;"/>
<path d="M38.5798 114C41.0998 114.96 43.7398 115.58 46.4298 115.84C49.0898 116.14 51.7698 116.14 54.4298 115.84C57.0598 115.54 59.6498 114.96 62.1598 114.11C64.6798 113.24 67.1298 112.18 69.4898 110.93C74.3398 108.56 79.1498 106.11 83.7498 103.33C86.0498 101.99 88.1998 100.39 90.1498 98.57C91.1098 97.67 91.8298 96.55 92.2598 95.3C92.6898 94.02 92.3998 92.6 91.5098 91.59C92.5598 92.55 93.0098 94.01 92.6698 95.39C92.3198 96.76 91.6698 98.03 90.7598 99.11C89.8898 100.21 88.9098 101.21 87.8398 102.11C86.7898 103 85.6998 103.84 84.5698 104.62C80.0398 107.68 75.2998 110.41 70.3698 112.77C67.9198 114.05 65.3698 115.12 62.7498 115.98C60.0898 116.8 57.3398 117.3 54.5598 117.46C49.0098 117.84 43.4698 116.64 38.5798 114Z" fill="#EB8F00" style="fill:#EB8F00;fill:color(display-p3 0.9216 0.5608 0.0000);fill-opacity:1;"/>
<path d="M38.5798 114C41.0998 114.96 43.7398 115.58 46.4298 115.84C49.0898 116.14 51.7698 116.14 54.4298 115.84C57.0598 115.54 59.6498 114.96 62.1598 114.11C64.6798 113.24 67.1298 112.18 69.4898 110.93C74.3398 108.56 79.1498 106.11 83.7498 103.33C86.0498 101.99 88.1998 100.39 90.1498 98.57C91.1098 97.67 91.8298 96.55 92.2598 95.3C92.6898 94.02 92.3998 92.6 91.5098 91.59C92.5598 92.55 93.0098 94.01 92.6698 95.39C92.3198 96.76 91.6698 98.03 90.7598 99.11C89.8898 100.21 88.9098 101.21 87.8398 102.11C86.7898 103 85.6998 103.84 84.5698 104.62C80.0398 107.68 75.2998 110.41 70.3698 112.77C67.9198 114.05 65.3698 115.12 62.7498 115.98C60.0898 116.8 57.3398 117.3 54.5598 117.46C49.0098 117.84 43.4698 116.64 38.5798 114Z" fill="#4A2F27" style="fill:#4A2F27;fill:color(display-p3 0.2902 0.1843 0.1529);fill-opacity:1;"/>
<defs>
<radialGradient id="paint0_radial_169_9137" cx="0" cy="0" r="1" gradientUnits="userSpaceOnUse" gradientTransform="translate(63.6001 62.9) scale(56.9597 56.9597)">
<stop offset="0.5" stop-color="#FDE030" style="stop-color:#FDE030;stop-color:color(display-p3 0.9922 0.8784 0.1882);stop-opacity:1;"/>
<stop offset="0.92" stop-color="#F7C02B" style="stop-color:#F7C02B;stop-color:color(display-p3 0.9686 0.7529 0.1686);stop-opacity:1;"/>
<stop offset="1" stop-color="#F4A223" style="stop-color:#F4A223;stop-color:color(display-p3 0.9569 0.6353 0.1373);stop-opacity:1;"/>
</radialGradient>
<linearGradient id="paint1_linear_169_9137" x1="63.6001" y1="118.8" x2="63.6001" y2="7" gradientUnits="userSpaceOnUse">
<stop offset="0.16" stop-color="#F4A223" style="stop-color:#F4A223;stop-color:color(display-p3 0.9569 0.6353 0.1373);stop-opacity:1;"/>
<stop offset="0.33" stop-color="#F7C02B" style="stop-color:#F7C02B;stop-color:color(display-p3 0.9686 0.7529 0.1686);stop-opacity:1;"/>
<stop offset="0.81" stop-color="#FDE030" stop-opacity="0" style="stop-color:none;stop-opacity:0;"/>
</linearGradient>
<radialGradient id="paint2_radial_169_9137" cx="0" cy="0" r="1" gradientUnits="userSpaceOnUse" gradientTransform="translate(53 33.5) rotate(79.6952) scale(61.4919 100.858)">
<stop offset="0.3533" stop-color="#F9DDBD" style="stop-color:#F9DDBD;stop-color:color(display-p3 0.9765 0.8667 0.7412);stop-opacity:1;"/>
<stop offset="0.8723" stop-color="#FECD92" style="stop-color:#FECD92;stop-color:color(display-p3 0.9958 0.8035 0.5726);stop-opacity:1;"/>
</radialGradient>
<radialGradient id="paint3_radial_169_9137" cx="0" cy="0" r="1" gradientUnits="userSpaceOnUse" gradientTransform="translate(64 24) rotate(94.514) scale(76.2365 76.0874)">
<stop offset="0.3533" stop-color="#70534A" style="stop-color:#70534A;stop-color:color(display-p3 0.4392 0.3255 0.2902);stop-opacity:1;"/>
<stop offset="0.8723" stop-color="#52372F" style="stop-color:#52372F;stop-color:color(display-p3 0.3208 0.2166 0.1831);stop-opacity:1;"/>
</radialGradient>
<radialGradient id="paint4_radial_169_9137" cx="0" cy="0" r="1" gradientUnits="userSpaceOnUse" gradientTransform="translate(27.25 68.16) scale(19.0831 18.1094)">
<stop stop-color="#ED7770" style="stop-color:#ED7770;stop-color:color(display-p3 0.9294 0.4667 0.4392);stop-opacity:1;"/>
<stop offset="0.08" stop-color="#ED7770" stop-opacity="0.96" style="stop-color:#ED7770;stop-color:color(display-p3 0.9294 0.4667 0.4392);stop-opacity:0.96;"/>
<stop offset="0.22" stop-color="#ED7770" stop-opacity="0.85" style="stop-color:#ED7770;stop-color:color(display-p3 0.9294 0.4667 0.4392);stop-opacity:0.85;"/>
<stop offset="0.39" stop-color="#ED7770" stop-opacity="0.68" style="stop-color:#ED7770;stop-color:color(display-p3 0.9294 0.4667 0.4392);stop-opacity:0.68;"/>
<stop offset="0.59" stop-color="#ED7770" stop-opacity="0.43" style="stop-color:#ED7770;stop-color:color(display-p3 0.9294 0.4667 0.4392);stop-opacity:0.43;"/>
<stop offset="0.81" stop-color="#ED7770" stop-opacity="0.13" style="stop-color:#ED7770;stop-color:color(display-p3 0.9294 0.4667 0.4392);stop-opacity:0.13;"/>
<stop offset="0.9" stop-color="#ED7770" stop-opacity="0" style="stop-color:none;stop-opacity:0;"/>
</radialGradient>
<radialGradient id="paint5_radial_169_9137" cx="0" cy="0" r="1" gradientUnits="userSpaceOnUse" gradientTransform="translate(100.357 68.16) scale(19.0831 18.1094)">
<stop stop-color="#ED7770" style="stop-color:#ED7770;stop-color:color(display-p3 0.9294 0.4667 0.4392);stop-opacity:1;"/>
<stop offset="0.08" stop-color="#ED7770" stop-opacity="0.96" style="stop-color:#ED7770;stop-color:color(display-p3 0.9294 0.4667 0.4392);stop-opacity:0.96;"/>
<stop offset="0.22" stop-color="#ED7770" stop-opacity="0.85" style="stop-color:#ED7770;stop-color:color(display-p3 0.9294 0.4667 0.4392);stop-opacity:0.85;"/>
<stop offset="0.39" stop-color="#ED7770" stop-opacity="0.68" style="stop-color:#ED7770;stop-color:color(display-p3 0.9294 0.4667 0.4392);stop-opacity:0.68;"/>
<stop offset="0.59" stop-color="#ED7770" stop-opacity="0.43" style="stop-color:#ED7770;stop-color:color(display-p3 0.9294 0.4667 0.4392);stop-opacity:0.43;"/>
<stop offset="0.81" stop-color="#ED7770" stop-opacity="0.13" style="stop-color:#ED7770;stop-color:color(display-p3 0.9294 0.4667 0.4392);stop-opacity:0.13;"/>
<stop offset="0.9" stop-color="#ED7770" stop-opacity="0" style="stop-color:none;stop-opacity:0;"/>
</radialGradient>
<linearGradient id="paint6_linear_169_9137" x1="54.817" y1="126.695" x2="53.7413" y2="57.094" gradientUnits="userSpaceOnUse">
<stop stop-color="#140905" style="stop-color:#140905;stop-color:color(display-p3 0.0792 0.0350 0.0214);stop-opacity:1;"/>
<stop offset="1" stop-color="#2C1109" stop-opacity="0.2" style="stop-color:#2C1109;stop-color:color(display-p3 0.1708 0.0679 0.0363);stop-opacity:0.2;"/>
</linearGradient>
<radialGradient id="paint7_radial_169_9137" cx="0" cy="0" r="1" gradientUnits="userSpaceOnUse" gradientTransform="translate(63.0599 73.94) scale(65.06 65.06)">
<stop offset="0.27" stop-color="#FFF176" style="stop-color:#FFF176;stop-color:color(display-p3 1.0000 0.9451 0.4627);stop-opacity:1;"/>
<stop offset="1" stop-color="#FFC400" style="stop-color:#FFC400;stop-color:color(display-p3 1.0000 0.7686 0.0000);stop-opacity:1;"/>
</radialGradient>
<radialGradient id="paint8_radial_169_9137" cx="0" cy="0" r="1" gradientUnits="userSpaceOnUse" gradientTransform="translate(47.6499 71.5747) rotate(-41.4461) scale(57.1781 56.7387)">
<stop offset="0.3533" stop-color="#F9DDBD" style="stop-color:#F9DDBD;stop-color:color(display-p3 0.9765 0.8667 0.7412);stop-opacity:1;"/>
<stop offset="0.8723" stop-color="#FFD29C" style="stop-color:#FFD29C;stop-color:color(display-p3 1.0000 0.8235 0.6118);stop-opacity:1;"/>
</radialGradient>
<radialGradient id="paint9_radial_169_9137" cx="0" cy="0" r="1" gradientUnits="userSpaceOnUse" gradientTransform="translate(47.6499 71.5747) rotate(-41.4461) scale(57.1781 56.7387)">
<stop offset="0.3533" stop-color="#7D5B50" style="stop-color:#7D5B50;stop-color:color(display-p3 0.4917 0.3572 0.3155);stop-opacity:1;"/>
<stop offset="0.8723" stop-color="#6D4C41" style="stop-color:#6D4C41;stop-color:color(display-p3 0.4292 0.2966 0.2539);stop-opacity:1;"/>
</radialGradient>
<radialGradient id="paint10_radial_169_9137" cx="0" cy="0" r="1" gradientUnits="userSpaceOnUse" gradientTransform="translate(47.6499 71.5747) rotate(-12.789) scale(67.404 66.886)">
<stop offset="0.3533" stop-color="#8C6D64" style="stop-color:#8C6D64;stop-color:color(display-p3 0.5500 0.4293 0.3919);stop-opacity:1;"/>
<stop offset="0.8723" stop-color="#5C4037" style="stop-color:#5C4037;stop-color:color(display-p3 0.3608 0.2510 0.2157);stop-opacity:1;"/>
</radialGradient>
</defs>
</svg>
