<svg width="128" height="128" viewBox="0 0 128 128" fill="none" xmlns="http://www.w3.org/2000/svg">
<path d="M23.9902 19.4657C23.9902 19.4657 24.9602 12.8757 26.2202 10.2357C27.4802 7.59569 29.4602 4.81569 33.2602 4.07569C37.7902 3.19569 90.3102 3.65569 93.9502 3.88569C97.6202 4.12569 100.03 5.27569 101.41 7.53569C102.46 9.26569 102.83 11.3757 103.32 14.5057C103.58 16.1557 104.12 20.6757 104.12 20.6757L23.9902 19.4657Z" fill="#FFA828" style="fill:#FFA828;fill:color(display-p3 1.0000 0.6588 0.1569);fill-opacity:1;"/>
<path d="M50.6302 37.3156L22.4702 32.6356C22.4702 32.6356 23.0602 20.9856 24.2802 17.9356C25.5002 14.8856 27.0102 13.0656 31.4402 12.3056C35.8702 11.5456 46.9702 11.8556 63.6202 11.7056C80.2702 11.5556 94.9302 12.5656 97.5302 12.7156C100.13 12.8656 102.57 14.1456 103.33 16.5856C104.09 19.0256 104.46 22.3256 105.01 28.1956C105.21 30.3256 105.03 34.3556 105.03 34.3556L72.7602 36.5556L50.6302 37.3156Z" fill="#F1EDEC" style="fill:#F1EDEC;fill:color(display-p3 0.9451 0.9294 0.9255);fill-opacity:1;"/>
<path d="M22.2302 35.6857C22.4202 32.6357 22.4802 29.3357 24.8002 27.3657C26.7902 25.6857 30.1502 25.9957 34.1202 25.8357C37.7902 25.6957 47.1002 25.7757 64.6702 25.7757C82.2402 25.7757 97.0302 26.0357 99.7802 26.0357C102.53 26.0357 104.87 28.1857 105.17 30.1757C105.48 32.1657 104.1 116.326 103.95 118.156C103.8 119.986 103.19 123.656 99.2102 123.956C95.2402 124.266 32.7702 124.266 30.1702 123.956C27.5702 123.646 25.2802 121.356 24.8202 117.086C24.3602 112.816 22.0702 38.1257 22.2302 35.6857Z" fill="#D8CDC9" style="fill:#D8CDC9;fill:color(display-p3 0.8471 0.8039 0.7882);fill-opacity:1;"/>
<path d="M29.61 50.0259C31.91 50.3259 33.82 40.4159 36.82 38.1059C39.82 35.8059 45.43 34.5959 45.43 32.2959C45.43 31.1459 41.79 31.1559 38.42 31.1959C35.05 31.2359 32.15 30.9559 30.51 32.6959C28.71 34.5959 28.53 37.6459 28.41 40.7059C28.2 45.6159 28.19 49.8359 29.61 50.0259Z" fill="#F1EDEC" style="fill:#F1EDEC;fill:color(display-p3 0.9451 0.9294 0.9255);fill-opacity:1;"/>
<path d="M79.3398 117.656C79.3398 119.336 80.5698 119.886 87.2198 119.656C92.8398 119.466 95.6198 118.756 97.2898 116.746C98.9598 114.746 99.4198 110.546 99.4898 105.506C99.5298 102.016 99.4398 98.6562 97.6798 98.6562C95.1598 98.6562 95.1699 104.406 93.1599 107.636C89.2199 113.976 79.3398 115.416 79.3398 117.656Z" fill="#F1EDEC" style="fill:#F1EDEC;fill:color(display-p3 0.9451 0.9294 0.9255);fill-opacity:1;"/>
<path d="M94.1259 85.2527L94.1129 85.2386C91.2944 82.182 87.8121 80.6661 83.5614 80.666L94.1259 85.2527ZM94.1259 85.2527L94.1392 85.2665M94.1259 85.2527L94.1392 85.2665M94.1392 85.2665C97.0535 88.2691 98.4999 91.8533 98.5 96.1028C98.4999 100.617 97.005 104.316 94.0299 107.305M94.1392 85.2665L94.0299 107.305M94.0299 107.305C91.1203 110.226 87.6583 111.666 83.5613 111.666C79.3002 111.666 75.7675 110.184 72.8674 107.199C69.9506 104.113 68.5 100.442 68.5 96.1028C68.5 91.7643 69.9497 88.1426 72.8542 85.1469M94.0299 107.305L72.8542 85.1469M72.8542 85.1469C75.8465 82.1441 79.389 80.6661 83.5613 80.666L72.8542 85.1469Z" stroke="#426FE4" style="stroke:#426FE4;stroke:color(display-p3 0.2588 0.4353 0.8941);stroke-opacity:1;" stroke-width="3"/>
<circle cx="84" cy="96.166" r="4" fill="#426FE4" style="fill:#426FE4;fill:color(display-p3 0.2588 0.4353 0.8941);fill-opacity:1;"/>
<path d="M55.9964 85.2688L55.9831 85.2549C53.0747 82.1935 49.4703 80.6661 45.0632 80.666L55.9964 85.2688ZM55.9964 85.2688L56.01 85.2824M55.9964 85.2688L56.01 85.2824M56.01 85.2824C59.0157 88.2883 60.4999 91.8675 60.5 96.1028C60.4999 100.603 58.9659 104.297 55.8974 107.289M56.01 85.2824L55.8974 107.289M55.8974 107.289C52.8944 110.215 49.3109 111.666 45.0632 111.666C40.6464 111.666 36.9901 110.173 33.9968 107.183C30.9888 104.095 29.5 100.428 29.5 96.1028C29.5 91.7784 30.9876 88.1616 33.9833 85.1628C37.0715 82.1549 40.7378 80.6661 45.0632 80.666L55.8974 107.289Z" stroke="#40A940" style="stroke:#40A940;stroke:color(display-p3 0.2512 0.6625 0.2512);stroke-opacity:1;" stroke-width="3"/>
<circle cx="44.5" cy="96.666" r="3.5" fill="#40A940" style="fill:#40A940;fill:color(display-p3 0.2512 0.6625 0.2512);fill-opacity:1;"/>
<path d="M94.1259 44.2527L94.1129 44.2386C91.2944 41.182 87.8121 39.6661 83.5614 39.666L94.1259 44.2527ZM94.1259 44.2527L94.1392 44.2665M94.1259 44.2527L94.1392 44.2665M94.1392 44.2665C97.0535 47.2691 98.4999 50.8533 98.5 55.1028C98.4999 59.6172 97.005 63.3161 94.0299 66.3048M94.1392 44.2665L94.0299 66.3048M94.0299 66.3048C91.1203 69.2255 87.6583 70.666 83.5613 70.666C79.3002 70.666 75.7675 69.1836 72.8674 66.1988C69.9506 63.1134 68.5 59.442 68.5 55.1028C68.5 50.7643 69.9497 47.1426 72.8542 44.1469M94.0299 66.3048L72.8542 44.1469M72.8542 44.1469C75.8465 41.1441 79.389 39.6661 83.5613 39.666L72.8542 44.1469Z" stroke="#40A940" style="stroke:#40A940;stroke:color(display-p3 0.2512 0.6625 0.2512);stroke-opacity:1;" stroke-width="3"/>
<path d="M84 57.166C84.7477 57.166 85.4632 56.94 86.0142 56.5267C86.5656 56.1132 87 55.4656 87 54.666C87 53.8665 86.5656 53.2189 86.0142 52.8054C85.4632 52.3921 84.7477 52.166 84 52.166C83.2523 52.166 82.5368 52.3921 81.9858 52.8054C81.4344 53.2189 81 53.8665 81 54.666C81 55.4656 81.4344 56.1132 81.9858 56.5267C82.5368 56.94 83.2523 57.166 84 57.166Z" fill="#40A940" stroke="#40A940" style="fill:#40A940;fill:color(display-p3 0.2512 0.6625 0.2512);fill-opacity:1;stroke:#40A940;stroke:color(display-p3 0.2512 0.6625 0.2512);stroke-opacity:1;" stroke-width="2"/>
<path d="M55.9964 44.2688L55.9831 44.2549C53.0747 41.1935 49.4703 39.6661 45.0632 39.666L55.9964 44.2688ZM55.9964 44.2688L56.01 44.2824M55.9964 44.2688L56.01 44.2824M56.01 44.2824C59.0157 47.2883 60.4999 50.8675 60.5 55.1028C60.4999 59.6028 58.9659 63.2967 55.8974 66.2887M56.01 44.2824L55.8974 66.2887M55.8974 66.2887C52.8944 69.2147 49.3109 70.666 45.0632 70.666C40.6464 70.666 36.9901 69.1728 33.9968 66.1827C30.9888 63.0946 29.5 59.4282 29.5 55.1028C29.5 50.7784 30.9876 47.1616 33.9833 44.1628C37.0715 41.1549 40.7378 39.6661 45.0632 39.666L55.8974 66.2887Z" stroke="#426FE4" style="stroke:#426FE4;stroke:color(display-p3 0.2588 0.4353 0.8941);stroke-opacity:1;" stroke-width="3"/>
<circle cx="44.5" cy="55.666" r="3.5" fill="#426FE4" style="fill:#426FE4;fill:color(display-p3 0.2588 0.4353 0.8941);fill-opacity:1;"/>
</svg>
