<svg width="129" height="128" viewBox="0 0 129 128" fill="none" xmlns="http://www.w3.org/2000/svg">
<g opacity="0.8">
<path d="M52.9402 53.2698C51.9102 51.5598 49.7702 47.9898 34.3902 47.5798C23.8502 47.2198 17.7102 48.5098 15.5802 51.5498C14.6502 53.0098 13.7302 56.5498 14.6302 65.1198C16.1902 79.4498 23.3902 79.8298 32.5202 80.2998L33.2102 80.3398C34.2002 80.3898 35.1302 80.4198 36.0102 80.4198C48.9502 80.4198 51.2102 74.7698 52.8702 66.9398C54.3502 60.2698 54.3802 55.6798 52.9402 53.2698Z" fill="#90CAF9" style="fill:#90CAF9;fill:color(display-p3 0.5647 0.7922 0.9765);fill-opacity:1;"/>
<path d="M113.2 51.5097C111.1 48.4997 104.96 47.2197 94.4202 47.5797C79.0302 47.9997 76.8902 51.5597 75.8602 53.2697C74.4202 55.6797 74.4402 60.2697 75.9402 66.9097C77.6102 74.7597 79.8602 80.3997 92.8002 80.3997C93.6802 80.3997 94.6202 80.3697 95.6002 80.3197L96.2902 80.2797C105.41 79.8097 112.62 79.4297 114.18 65.0997C115.07 56.5497 114.15 53.0097 113.2 51.5097Z" fill="#90CAF9" style="fill:#90CAF9;fill:color(display-p3 0.5647 0.7922 0.9765);fill-opacity:1;"/>
</g>
<path d="M124.3 47.8398C124.3 47.8398 123.3 46.1398 105.27 44.4298C86.34 42.6298 76.92 46.4298 73.02 48.8398C72.32 49.1398 71.12 49.4398 69.71 49.3398H69.41C67.51 49.2398 65.8 49.1398 63.8 49.1398H63.7C62.6 49.1398 60.19 49.2398 58.49 49.3398C57.69 49.4398 56.99 49.3398 56.39 49.1398C52.78 46.7398 43.37 42.5298 23.64 44.4298C5.6 46.1398 4.6 47.8398 4.6 47.8398L4.5 54.6498C4.5 54.6498 7.2 55.4498 8.91 57.5498C10.61 59.6498 11.41 71.6698 14.32 77.2798C18.72 85.9998 40.46 83.7998 40.46 83.7998C40.46 83.7998 49.37 84.4998 53.68 76.9898C57.39 70.5798 58.89 61.5598 59.29 59.3598C60.19 58.4598 61.89 57.3598 64.4 57.2598C67.2 57.2598 69.01 58.6598 69.81 59.6598C70.21 62.3598 71.71 70.8798 75.32 76.9898C79.63 84.4998 88.54 83.7998 88.54 83.7998C88.54 83.7998 110.28 85.9998 114.68 77.2898C117.48 71.6798 118.29 59.6598 120.09 57.5598C121.79 55.3598 124.5 54.6598 124.5 54.6598L124.3 47.8398ZM51.88 66.7098C50.18 74.7198 47.97 80.1298 33.25 79.3298C23.73 78.8298 17.12 78.8298 15.62 65.0098C14.72 56.3998 15.72 53.1898 16.42 52.0898C17.12 51.0898 19.63 48.0798 34.35 48.5798C49.07 48.9798 51.18 52.2898 52.08 53.7898C52.98 55.2898 53.68 58.6998 51.88 66.7098ZM113.18 65.0098C111.68 78.8298 105.07 78.8298 95.55 79.3298C80.83 80.1298 78.62 74.7198 76.92 66.7098C75.12 58.6998 75.82 55.2898 76.72 53.7898C77.62 52.2898 79.73 48.9798 94.45 48.5798C109.17 48.0798 111.68 51.0798 112.38 52.0898C113.08 53.1898 114.08 56.3898 113.18 65.0098Z" fill="#606265" style="fill:#606265;fill:color(display-p3 0.3765 0.3843 0.3961);fill-opacity:1;"/>
<path opacity="0.7" d="M27.3199 52.2198C31.6499 51.3798 33.1099 53.4798 32.6899 55.3598C31.9199 58.8298 28.5799 56.9798 23.6899 59.9598C21.6299 61.2198 20.7899 62.1198 20.0299 62.0898C19.2999 62.0598 18.6699 61.3098 19.0199 59.8898C19.6499 57.3098 20.6999 53.4998 27.3199 52.2198Z" fill="white" style="fill:white;fill-opacity:1;"/>
<path opacity="0.7" d="M84.16 53.2098C85.93 52.2198 90.9 51.3298 91.43 53.9398C91.97 56.6298 89.44 57.3698 87.65 57.9798C83.42 59.4198 82.72 61.4698 81.84 62.0298C81.25 62.3998 79.51 63.2398 79.7 60.6898C79.92 57.4498 80.98 54.9998 84.16 53.2098Z" fill="white" style="fill:white;fill-opacity:1;"/>
</svg>
