<svg width="128" height="128" viewBox="0 0 128 128" fill="none" xmlns="http://www.w3.org/2000/svg">
<path d="M63.6 118.8C35.7 118.8 5.59998 101.3 5.59998 62.9C5.59998 24.5 35.7 7 63.6 7C79.1 7 93.4 12.1 104 21.4C115.5 31.6 121.6 46 121.6 62.9C121.6 79.8 115.5 94.1 104 104.3C93.4 113.6 79 118.8 63.6 118.8Z" fill="url(#paint0_radial_169_7247)" style=""/>
<path d="M63.6 118.8C35.7 118.8 5.59998 101.3 5.59998 62.9C5.59998 24.5 35.7 7 63.6 7C79.1 7 93.4 12.1 104 21.4C115.5 31.6 121.6 46 121.6 62.9C121.6 79.8 115.5 94.1 104 104.3C93.4 113.6 79 118.8 63.6 118.8Z" fill="url(#paint1_radial_169_7247)" style=""/>
<path d="M63.6 118.8C35.7 118.8 5.59998 101.3 5.59998 62.9C5.59998 24.5 35.7 7 63.6 7C79.1 7 93.4 12.1 104 21.4C115.5 31.6 121.6 46 121.6 62.9C121.6 79.8 115.5 94.1 104 104.3C93.4 113.6 79 118.8 63.6 118.8Z" fill="url(#paint2_radial_169_7247)" style=""/>
<path d="M111.49 29.67C116.82 38.27 119.6 48.51 119.6 59.9C119.6 76.8 113.5 91.1 102 101.3C91.3999 110.6 76.9999 115.8 61.5999 115.8C43.5399 115.8 24.5999 108.45 13.4199 92.86C24.1799 110.52 44.4199 118.8 63.5999 118.8C78.9999 118.8 93.3999 113.6 104 104.3C115.5 94.1001 121.6 79.8 121.6 62.9C121.6 50.16 118.13 38.84 111.49 29.67Z" fill="#EB8F00" style="fill:#EB8F00;fill:color(display-p3 0.9216 0.5608 0.0000);fill-opacity:1;"/>
<path d="M111.49 29.67C116.82 38.27 119.6 48.51 119.6 59.9C119.6 76.8 113.5 91.1 102 101.3C91.3999 110.6 76.9999 115.8 61.5999 115.8C43.5399 115.8 24.5999 108.45 13.4199 92.86C24.1799 110.52 44.4199 118.8 63.5999 118.8C78.9999 118.8 93.3999 113.6 104 104.3C115.5 94.1001 121.6 79.8 121.6 62.9C121.6 50.16 118.13 38.84 111.49 29.67Z" fill="#F3B872" style="fill:#F3B872;fill:color(display-p3 0.9542 0.7229 0.4453);fill-opacity:1;"/>
<path d="M111.49 29.67C116.82 38.27 119.6 48.51 119.6 59.9C119.6 76.8 113.5 91.1 102 101.3C91.3999 110.6 76.9999 115.8 61.5999 115.8C43.5399 115.8 24.5999 108.45 13.4199 92.86C24.1799 110.52 44.4199 118.8 63.5999 118.8C78.9999 118.8 93.3999 113.6 104 104.3C115.5 94.1001 121.6 79.8 121.6 62.9C121.6 50.16 118.13 38.84 111.49 29.67Z" fill="#BA8F63" style="fill:#BA8F63;fill:color(display-p3 0.7294 0.5608 0.3882);fill-opacity:1;"/>
<path d="M77.6 92.4C77.6 99.47 71.87 105.2 64.8 105.2C57.73 105.2 52 99.47 52 92.4C52 85.33 57.73 79.6 64.8 79.6C71.85 79.58 77.58 85.27 77.6 92.32C77.6 92.35 77.6 92.37 77.6 92.4Z" fill="#5D4037" style="fill:#5D4037;fill:color(display-p3 0.3647 0.2510 0.2157);fill-opacity:1;"/>
<path d="M42.6699 46.9399C38.4799 46.9399 34.6699 50.4799 34.6699 56.3599C34.6699 62.2399 38.4799 65.7699 42.6699 65.7699C46.8599 65.7699 50.6699 62.2299 50.6699 56.3599C50.6699 50.4899 46.8599 46.9399 42.6699 46.9399Z" fill="#5D4037" style="fill:#5D4037;fill:color(display-p3 0.3647 0.2510 0.2157);fill-opacity:1;"/>
<path d="M42.28 50.87C40.86 50.19 39.15 50.79 38.46 52.21C37.93 53.32 38.17 54.65 39.06 55.51C40.48 56.19 42.19 55.59 42.88 54.17C43.41 53.06 43.17 51.73 42.28 50.87Z" fill="#836258" style="fill:#836258;fill:color(display-p3 0.5125 0.3838 0.3438);fill-opacity:1;"/>
<path d="M86 46.9399C81.81 46.9399 78 50.4799 78 56.3599C78 62.2399 81.81 65.7699 86 65.7699C90.19 65.7699 94 62.2299 94 56.3599C94 50.4899 90.21 46.9399 86 46.9399Z" fill="#5D4037" style="fill:#5D4037;fill:color(display-p3 0.3647 0.2510 0.2157);fill-opacity:1;"/>
<path d="M85.63 50.87C84.21 50.19 82.5 50.79 81.81 52.21C81.28 53.32 81.52 54.65 82.41 55.51C83.83 56.19 85.54 55.59 86.23 54.17C86.76 53.06 86.52 51.73 85.63 50.87Z" fill="#836258" style="fill:#836258;fill:color(display-p3 0.5125 0.3838 0.3438);fill-opacity:1;"/>
<path d="M28.6999 38C27.9999 38.73 26.8299 38.76 26.0999 38.05C25.4399 37.42 25.3499 36.39 25.8799 35.65C27.0099 34.02 28.3999 32.6 29.9999 31.43C34.1899 28.2 39.4399 26.67 44.7099 27.15C47.1999 27.46 46.7099 30.64 44.4999 30.85C38.5599 31.32 32.9699 33.85 28.6999 38Z" fill="#5D4037" style="fill:#5D4037;fill:color(display-p3 0.3647 0.2510 0.2157);fill-opacity:1;"/>
<path d="M99.7699 38.2299C100.47 38.9599 101.64 38.9899 102.37 38.2799C103.03 37.6499 103.12 36.6199 102.59 35.8799C101.48 34.2699 100.1 32.8599 98.5199 31.7099C94.3299 28.4799 89.0799 26.9499 83.8099 27.4399C81.3299 27.7499 81.8099 30.9199 84.0199 31.1299C89.9399 31.5999 95.4999 34.1099 99.7699 38.2299Z" fill="#5D4037" style="fill:#5D4037;fill:color(display-p3 0.3647 0.2510 0.2157);fill-opacity:1;"/>
<defs>
<radialGradient id="paint0_radial_169_7247" cx="0" cy="0" r="1" gradientUnits="userSpaceOnUse" gradientTransform="translate(63.6 62.9) scale(56.9597 56.9597)">
<stop offset="0.5" stop-color="#FDE030" style="stop-color:#FDE030;stop-color:color(display-p3 0.9922 0.8784 0.1882);stop-opacity:1;"/>
<stop offset="0.92" stop-color="#F7C02B" style="stop-color:#F7C02B;stop-color:color(display-p3 0.9686 0.7529 0.1686);stop-opacity:1;"/>
<stop offset="1" stop-color="#F4A223" style="stop-color:#F4A223;stop-color:color(display-p3 0.9569 0.6353 0.1373);stop-opacity:1;"/>
</radialGradient>
<radialGradient id="paint1_radial_169_7247" cx="0" cy="0" r="1" gradientUnits="userSpaceOnUse" gradientTransform="translate(38.599 34.5377) rotate(-43.2082) scale(102.024 101.825)">
<stop offset="0.3533" stop-color="#F9DDBD" style="stop-color:#F9DDBD;stop-color:color(display-p3 0.9765 0.8667 0.7412);stop-opacity:1;"/>
<stop offset="0.8723" stop-color="#FFD29C" style="stop-color:#FFD29C;stop-color:color(display-p3 1.0000 0.8235 0.6118);stop-opacity:1;"/>
</radialGradient>
<radialGradient id="paint2_radial_169_7247" cx="0" cy="0" r="1" gradientUnits="userSpaceOnUse" gradientTransform="translate(38.599 34.5377) rotate(-43.2082) scale(102.024 101.825)">
<stop offset="0.3533" stop-color="#E0BB95" style="stop-color:#E0BB95;stop-color:color(display-p3 0.8784 0.7333 0.5843);stop-opacity:1;"/>
<stop offset="0.8723" stop-color="#CCA47A" style="stop-color:#CCA47A;stop-color:color(display-p3 0.8000 0.6431 0.4784);stop-opacity:1;"/>
</radialGradient>
</defs>
</svg>
