<svg width="128" height="128" viewBox="0 0 128 128" fill="none" xmlns="http://www.w3.org/2000/svg">
<path d="M109.15 79.0836C110.24 77.8336 115.87 68.4536 118.68 61.4236C121.49 54.3936 124.3 44.7036 124.3 44.7036L79.1398 49.7036L5.0698 91.2636C5.0698 91.2636 12.5698 95.7936 22.5698 100.324C32.5698 104.854 37.5698 105.954 38.6598 106.264C39.7498 106.574 53.6898 107.064 76.9398 97.9836C99.7698 89.0836 109.15 79.0836 109.15 79.0836Z" fill="#848484" style="fill:#848484;fill:color(display-p3 0.5176 0.5176 0.5176);fill-opacity:1;"/>
<path d="M112.21 42.9534L122 42.0334C122 42.0334 123.29 42.0334 124.03 42.8634C124.77 43.6934 124.31 44.7134 124.31 44.7134C124.31 44.7134 104.31 62.9234 68.3699 77.2234C29.6799 92.6134 5.07988 91.2834 5.07988 91.2834C5.07988 91.2834 3.99988 90.7434 3.99988 89.6534C3.99988 88.5634 4.86988 87.8234 4.86988 87.8234L65.7799 59.5434L112.21 42.9534Z" fill="#9A9A9A" style="fill:#9A9A9A;fill:color(display-p3 0.6039 0.6039 0.6039);fill-opacity:1;"/>
<path d="M56.4897 42.8835C72.4697 36.0335 83.8397 37.4135 88.8397 37.5735C93.8397 37.7335 121.99 42.0335 121.99 42.0335C121.99 42.0335 98.5197 61.7935 66.1797 73.9835C33.8397 86.1735 4.86974 87.8135 4.86974 87.8135C4.86974 87.8135 17.4297 71.9535 25.0797 63.9835C35.3597 53.2835 42.2697 48.9735 56.4897 42.8835Z" fill="#B0B0B0" style="fill:#B0B0B0;fill:color(display-p3 0.6902 0.6902 0.6902);fill-opacity:1;"/>
<path d="M96.6497 40.7235C98.0797 39.8935 109.72 41.9935 109.72 45.7735C109.72 48.5835 103.63 51.9435 97.6897 55.0735C92.4797 57.8235 83.5797 61.5635 83.1797 59.1635C82.7097 56.3535 92.5597 53.7135 95.6097 48.5835C97.8497 44.8135 94.7297 41.8535 96.6497 40.7235Z" fill="#9C9C9C" style="fill:#9C9C9C;fill:color(display-p3 0.6125 0.6125 0.6125);fill-opacity:1;"/>
<path d="M25.13 67.7434C27.02 67.8334 27.21 71.1134 31.95 72.5534C36.69 73.9934 46.81 71.3334 48.06 72.8034C50.47 75.6134 23.12 84.9934 17.67 80.6634C13.62 77.4434 23.37 67.6634 25.13 67.7434Z" fill="#9A9A9A" style="fill:#9A9A9A;fill:color(display-p3 0.6039 0.6039 0.6039);fill-opacity:1;"/>
<path d="M25.13 67.7434C27.02 67.8334 27.21 71.1134 31.95 72.5534C36.69 73.9934 46.81 71.3334 48.06 72.8034C50.47 75.6134 23.12 84.9934 17.67 80.6634C13.62 77.4434 23.37 67.6634 25.13 67.7434Z" fill="#E3E3DF" style="fill:#E3E3DF;fill:color(display-p3 0.8902 0.8902 0.8745);fill-opacity:1;"/>
<path d="M83.6998 36.0535C83.6998 36.0535 85.1798 38.5335 84.8998 40.3035C84.4398 43.2535 78.8998 49.0735 61.2698 55.7235C43.0098 62.6035 33.4798 60.9835 32.2798 59.3235C31.4098 58.1135 31.4498 55.4435 31.4498 55.4435L58.6898 42.8835L83.6998 36.0535Z" fill="#B73D3D" style="fill:#B73D3D;fill:color(display-p3 0.7167 0.2389 0.2389);fill-opacity:1;"/>
<path d="M83.6998 36.0535C83.6998 36.0535 85.1798 38.5335 84.8998 40.3035C84.4398 43.2535 78.8998 49.0735 61.2698 55.7235C43.0098 62.6035 33.4798 60.9835 32.2798 59.3235C31.4098 58.1135 31.4498 55.4435 31.4498 55.4435L58.6898 42.8835L83.6998 36.0535Z" fill="#E03131" style="fill:#E03131;fill:color(display-p3 0.8792 0.1905 0.1905);fill-opacity:1;"/>
<path d="M83.6997 36.0534C83.6997 36.0534 71.3997 14.2834 47.6397 23.1034C26.1197 31.0934 31.4497 55.4434 31.4497 55.4434C31.4497 55.4434 59.7697 48.9235 61.3197 47.9834C62.8797 47.0534 83.6997 36.0534 83.6997 36.0534Z" fill="#64BEDA" style="fill:#64BEDA;fill:color(display-p3 0.3922 0.7438 0.8549);fill-opacity:1;"/>
<path d="M59.7897 51.5635C82.1797 42.8235 83.6997 36.0535 83.6997 36.0535C83.6997 36.0535 74.9397 34.4135 55.9097 41.5035C35.6097 49.0735 31.4497 55.4335 31.4497 55.4335C31.4497 55.4335 40.8697 58.9435 59.7897 51.5635Z" fill="#5385B4" style="fill:#5385B4;fill:color(display-p3 0.3255 0.5233 0.7059);fill-opacity:1;"/>
<path d="M57.6697 41.8634C57.6697 41.8634 56.2297 38.5734 56.5597 37.0634C57.1097 34.5734 58.6997 32.1534 57.6697 29.7734C56.1897 26.3534 53.0997 25.4734 49.0797 27.0034C45.1997 28.4834 44.3797 32.1734 45.4797 34.5734C46.9597 37.8034 49.2597 37.3434 50.9297 38.8234C52.3497 40.0834 53.4197 43.5334 53.4197 43.5334L57.6697 41.8634Z" fill="#5385B4" style="fill:#5385B4;fill:color(display-p3 0.3255 0.5233 0.7059);fill-opacity:1;"/>
<path d="M37.1952 53.3515C39.7155 52.7212 38.2924 47.7121 39.4338 41.2993C40.7883 33.6817 46.3025 27.5061 44.9353 26.5583C43.3331 25.4229 35.673 32.0808 33.6809 40.5564C31.8039 48.5777 34.386 54.0432 37.1952 53.3515Z" fill="#9CDFFC" style="fill:#9CDFFC;fill:color(display-p3 0.6118 0.8753 0.9882);fill-opacity:1;"/>
<path d="M73.9323 41.7803C74.9547 43.4106 78.4253 41.7572 79.1367 39.2642C80.0954 35.9369 77.0374 32.1141 75.2548 33.1481C73.5892 34.1219 75.3384 36.0898 74.9778 37.7723C74.6171 39.4548 73.1735 40.5642 73.9323 41.7803Z" fill="#9CDFFC" style="fill:#9CDFFC;fill:color(display-p3 0.6118 0.8753 0.9882);fill-opacity:1;"/>
<path d="M94.7801 89.98C89.3787 89.98 85.0001 85.5073 85.0001 79.99C85.0001 74.4727 89.3787 70 94.7801 70C100.181 70 104.56 74.4727 104.56 79.99C104.56 85.5073 100.181 89.98 94.7801 89.98Z" fill="url(#paint0_radial_2199_2140)" style=""/>
<path d="M73.6099 101.064C67.5237 101.064 62.5899 96.3177 62.5899 90.4635C62.5899 84.6093 67.5237 79.8635 73.6099 79.8635C79.6961 79.8635 84.6299 84.6093 84.6299 90.4635C84.6299 96.3177 79.6961 101.064 73.6099 101.064Z" fill="url(#paint1_radial_2199_2140)" style=""/>
<path d="M52.7698 106.084C47.6556 106.084 43.5098 101.965 43.5098 96.8836C43.5098 91.8026 47.6556 87.6836 52.7698 87.6836C57.8839 87.6836 62.0298 91.8026 62.0298 96.8836C62.0298 101.965 57.8839 106.084 52.7698 106.084Z" fill="url(#paint2_radial_2199_2140)" style=""/>
<path d="M23.7496 95.3636C22.3996 99.9936 25.1996 104.884 30.0197 106.294C34.8397 107.704 39.8396 105.094 41.1896 100.464C42.5396 95.8336 39.7397 90.9436 34.9197 89.5336C30.1097 88.1236 25.1096 90.7336 23.7496 95.3636Z" fill="url(#paint3_radial_2199_2140)" style=""/>
<path d="M108.21 76.8836C102.808 76.8836 98.4297 72.4109 98.4297 66.8936C98.4297 61.3762 102.808 56.9036 108.21 56.9036C113.611 56.9036 117.99 61.3762 117.99 66.8936C117.99 72.4109 113.611 76.8836 108.21 76.8836Z" stroke="url(#paint4_radial_2199_2140)" style="" stroke-miterlimit="10"/>
<path d="M97.0796 76.9634C98.8396 78.8234 98.7996 81.7834 96.6096 83.4034C94.4896 84.9734 92.1296 84.0334 91.0396 82.6934C89.9496 81.3534 89.7796 78.4534 91.5096 76.9634C93.2296 75.4734 95.7496 75.5534 97.0796 76.9634Z" fill="#5385B4" style="fill:#5385B4;fill:color(display-p3 0.3255 0.5233 0.7059);fill-opacity:1;"/>
<path d="M95.7498 78.7735C96.4898 79.5735 96.5798 80.7735 95.5898 81.6835C94.6498 82.5435 93.1598 82.2335 92.6098 81.4435C91.9398 80.4835 92.1398 79.0835 92.9998 78.5335C93.8598 77.9835 94.8798 77.8235 95.7498 78.7735Z" fill="#64BEDA" style="fill:#64BEDA;fill:color(display-p3 0.3922 0.7438 0.8549);fill-opacity:1;"/>
<path d="M78.3097 89.5236C79.2497 91.8036 77.6797 94.3136 74.7797 95.0236C72.2397 95.6436 69.9097 94.3936 69.3597 92.1136C68.8497 89.9836 69.9497 87.5036 72.6597 86.8536C74.9397 86.3036 77.2697 87.0036 78.3097 89.5236Z" fill="#5385B4" style="fill:#5385B4;fill:color(display-p3 0.3255 0.5233 0.7059);fill-opacity:1;"/>
<path d="M75.3299 89.4136C76.0699 90.2036 76.1599 91.3936 75.1699 92.2836C74.2299 93.1336 72.7399 92.8236 72.1899 92.0536C71.5199 91.1136 71.7199 89.7236 72.5799 89.1836C73.4499 88.6336 74.4699 88.4836 75.3299 89.4136Z" fill="#64BEDA" style="fill:#64BEDA;fill:color(display-p3 0.3922 0.7438 0.8549);fill-opacity:1;"/>
<path d="M55.3397 93.8636C57.1597 95.4636 57.1597 98.3236 55.2797 100.164C53.6397 101.764 51.2597 101.654 49.7397 99.8936C48.3197 98.2436 47.9797 95.6036 49.7297 93.8936C51.2097 92.4536 53.3197 92.0936 55.3397 93.8636Z" fill="#5385B4" style="fill:#5385B4;fill:color(display-p3 0.3255 0.5233 0.7059);fill-opacity:1;"/>
<path d="M51.2397 95.4836C51.9997 94.7036 53.1597 94.5736 54.0697 95.5536C54.9397 96.4936 54.6797 98.0436 53.9397 98.6336C53.0297 99.3536 51.6597 99.1936 51.0997 98.3136C50.5297 97.4536 50.3497 96.4036 51.2397 95.4836Z" fill="#64BEDA" style="fill:#64BEDA;fill:color(display-p3 0.3922 0.7438 0.8549);fill-opacity:1;"/>
<path d="M31.17 93.6636C33.54 93.2436 35.82 94.9436 36.13 97.4636C36.4 99.6636 34.86 101.394 32.54 101.484C30.37 101.574 28.07 100.264 27.78 97.9236C27.55 95.9436 28.54 94.1236 31.17 93.6636Z" fill="#5385B4" style="fill:#5385B4;fill:color(display-p3 0.3255 0.5233 0.7059);fill-opacity:1;"/>
<path d="M34.0196 97.4834C34.0496 98.5834 33.3296 99.5234 31.9796 99.5034C30.6796 99.4834 29.7496 98.2234 29.8396 97.2634C29.9596 96.0934 31.0296 95.2034 32.0596 95.4034C33.0896 95.6034 33.9796 96.1934 34.0196 97.4834Z" fill="#64BEDA" style="fill:#64BEDA;fill:color(display-p3 0.3922 0.7438 0.8549);fill-opacity:1;"/>
<path d="M103.02 59.1735C98.4 62.1835 97.04 68.2935 99.99 72.8135C102.94 77.3335 109.07 78.5635 113.69 75.5535C118.31 72.5435 119.67 66.4335 116.72 61.9135C113.77 57.3935 107.65 56.1635 103.02 59.1735Z" fill="url(#paint5_radial_2199_2140)" style=""/>
<path d="M109.72 63.4535C112.08 64.4335 112.84 66.7735 111.92 69.0235C111.06 71.1435 108.86 72.0835 106.74 71.3835C104.62 70.6835 103.21 68.2435 104.38 65.7335C105.53 63.2835 107.84 62.6735 109.72 63.4535Z" fill="#5385B4" style="fill:#5385B4;fill:color(display-p3 0.3255 0.5233 0.7059);fill-opacity:1;"/>
<path d="M109.36 65.4635C110.35 66.1035 110.56 67.4435 109.85 68.5035C109.14 69.5635 107.66 69.4935 106.88 68.8535C106.1 68.2135 105.89 66.7335 106.67 65.8135C107.45 64.8935 108.56 64.9435 109.36 65.4635Z" fill="#64BEDA" style="fill:#64BEDA;fill:color(display-p3 0.3922 0.7438 0.8549);fill-opacity:1;"/>
<defs>
<radialGradient id="paint0_radial_2199_2140" cx="0" cy="0" r="1" gradientUnits="userSpaceOnUse" gradientTransform="translate(94.7849 79.9953) rotate(-122.286) scale(9.94679 9.82314)">
<stop stop-color="#64BEDA" style="stop-color:#64BEDA;stop-color:color(display-p3 0.3922 0.7451 0.8549);stop-opacity:1;"/>
<stop offset="1" stop-color="#64BEDA" stop-opacity="0" style="stop-color:none;stop-opacity:0;"/>
</radialGradient>
<radialGradient id="paint1_radial_2199_2140" cx="0" cy="0" r="1" gradientUnits="userSpaceOnUse" gradientTransform="translate(73.6154 90.4692) rotate(-123.861) scale(10.7447 10.8723)">
<stop stop-color="#64BEDA" style="stop-color:#64BEDA;stop-color:color(display-p3 0.3922 0.7451 0.8549);stop-opacity:1;"/>
<stop offset="1" stop-color="#64BEDA" stop-opacity="0" style="stop-color:none;stop-opacity:0;"/>
</radialGradient>
<radialGradient id="paint2_radial_2199_2140" cx="0" cy="0" r="1" gradientUnits="userSpaceOnUse" gradientTransform="translate(52.7744 96.8885) rotate(-123.008) scale(9.23447 9.22605)">
<stop stop-color="#64BEDA" style="stop-color:#64BEDA;stop-color:color(display-p3 0.3922 0.7451 0.8549);stop-opacity:1;"/>
<stop offset="1" stop-color="#64BEDA" stop-opacity="0" style="stop-color:none;stop-opacity:0;"/>
</radialGradient>
<radialGradient id="paint3_radial_2199_2140" cx="0" cy="0" r="1" gradientUnits="userSpaceOnUse" gradientTransform="translate(32.4742 97.9183) rotate(-123.713) scale(8.86687 8.9531)">
<stop stop-color="#64BEDA" style="stop-color:#64BEDA;stop-color:color(display-p3 0.3922 0.7451 0.8549);stop-opacity:1;"/>
<stop offset="1" stop-color="#64BEDA" stop-opacity="0" style="stop-color:none;stop-opacity:0;"/>
</radialGradient>
<radialGradient id="paint4_radial_2199_2140" cx="0" cy="0" r="1" gradientUnits="userSpaceOnUse" gradientTransform="translate(108.208 66.8922) rotate(180) scale(10.3817 10.3817)">
<stop stop-color="#53B4A0" stop-opacity="0.7" style="stop-color:#53B4A0;stop-color:color(display-p3 0.3255 0.7059 0.6275);stop-opacity:0.7;"/>
<stop offset="1" stop-color="#53B4A0" stop-opacity="0" style="stop-color:none;stop-opacity:0;"/>
</radialGradient>
<radialGradient id="paint5_radial_2199_2140" cx="0" cy="0" r="1" gradientUnits="userSpaceOnUse" gradientTransform="translate(108.36 67.3687) rotate(-123.067) scale(9.88132)">
<stop stop-color="#64BEDA" style="stop-color:#64BEDA;stop-color:color(display-p3 0.3922 0.7451 0.8549);stop-opacity:1;"/>
<stop offset="1" stop-color="#64BEDA" stop-opacity="0" style="stop-color:none;stop-opacity:0;"/>
</radialGradient>
</defs>
</svg>
