<svg width="128" height="128" viewBox="0 0 128 128" fill="none" xmlns="http://www.w3.org/2000/svg">
<g clip-path="url(#clip0_2339_40)">
<path d="M62.54 4.84021L10.38 31.7302C9.24002 32.4002 8.91002 33.4002 8.92002 34.8502L9.02002 36.6602L64.09 64.9002L119.03 37.1102C119.03 37.1102 119.09 36.8302 119.09 35.8502C119.09 35.8502 119.04 34.5602 118.75 33.9602C118.43 33.2802 117.75 32.6702 117.31 32.3002C116.14 31.3302 114.97 30.4702 112.98 29.3502C84.45 13.2202 65.69 4.91021 65.69 4.91021C64.48 4.46021 63.48 4.30021 62.54 4.84021Z" fill="#DEA66C" style="fill:#DEA66C;fill:color(display-p3 0.8706 0.6510 0.4235);fill-opacity:1;"/>
<path d="M9.74003 96.1603C12.78 98.1703 18.33 100.81 23.94 103.85C36.98 110.91 53.46 119.49 61.66 122.86C62.77 123.32 63.43 123.54 64.2 123.58C64.77 123.61 65.71 123.23 65.71 123.23C65.71 123.23 64.18 68.0403 64.09 64.8903C64 61.8103 62.71 60.7903 61.57 60.0503C59.79 58.9103 55.93 57.1303 55.93 57.1303C55.93 57.1303 42.41 50.4103 28.91 43.3303C22.49 39.9603 17.07 36.5103 11.24 33.6703C10.17 33.1603 8.91003 33.8003 8.91003 35.0003V94.8003C8.91003 95.3703 9.26003 95.8503 9.74003 96.1603Z" fill="#B38251" style="fill:#B38251;fill:color(display-p3 0.7020 0.5098 0.3176);fill-opacity:1;"/>
<path d="M41.4364 74.566C42.4962 75.2739 44.4363 76.2121 46.3954 77.2882C50.9493 79.7875 56.7063 82.8283 59.5756 84.0319C59.964 84.1961 60.1952 84.2754 60.4661 84.2933C60.6666 84.3067 60.9995 84.181 60.9995 84.181C60.9995 84.181 61.6792 65.0596 61.664 63.9753C61.6485 62.9151 61.1997 62.5572 60.8023 62.2965C60.1816 61.8946 58.8319 61.2614 58.8319 61.2614C58.8319 61.2614 53.1792 59.0007 48.4635 56.4921C46.2209 55.298 44.3308 54.0818 42.2932 53.0733C41.9191 52.8921 41.4721 53.1055 41.4658 53.5184L41.1514 74.0936C41.1484 74.2897 41.2691 74.4567 41.4364 74.566Z" fill="#F1E3D5" style="fill:#F1E3D5;fill:color(display-p3 0.9458 0.8907 0.8355);fill-opacity:1;"/>
<path d="M42.2813 74.0581C42.75 74.3553 43.6081 74.7494 44.4746 75.2014C46.4887 76.2511 49.0349 77.5282 50.3038 78.034C50.4755 78.103 50.5778 78.1363 50.6975 78.1439C50.7862 78.1496 50.9333 78.097 50.9333 78.097C50.9333 78.097 51.2271 70.0785 51.2201 69.6238C51.2129 69.1792 51.0143 69.0289 50.8385 68.9194C50.564 68.7507 49.9671 68.4847 49.9671 68.4847C49.9671 68.4847 47.4673 67.5347 45.3816 66.481C44.3898 65.9795 43.5537 65.4688 42.6526 65.0452C42.4871 64.9691 42.2896 65.0584 42.287 65.2316L42.1551 73.8599C42.1538 73.9421 42.2073 74.0122 42.2813 74.0581Z" fill="#7D7267" style="fill:#7D7267;fill:color(display-p3 0.4917 0.4476 0.4036);fill-opacity:1;"/>
<path d="M117.58 96.51L65.8201 123.2C64.9901 123.63 64.0001 123.03 64.0001 122.09L64.0901 64.91C64.0901 64.36 63.9201 63.15 63.7501 62.67C63.2801 61.27 64.3001 60.71 64.7601 60.48L116.1 34.04C117.46 33.34 119.09 34.33 119.09 35.86V94.05C119.09 95.08 118.51 96.03 117.58 96.51Z" fill="#966239" style="fill:#966239;fill:color(display-p3 0.5882 0.3843 0.2235);fill-opacity:1;"/>
<path opacity="0.5" d="M94.4601 47.5901C94.4601 47.5901 66.0901 62.1001 65.6301 63.3301C65.1701 64.5501 87.8901 53.6301 90.5501 52.2601C93.5601 50.7101 117.2 38.0701 117.2 36.6801C117.21 35.5401 94.4601 47.5901 94.4601 47.5901Z" fill="#212121" style="fill:#212121;fill:color(display-p3 0.1294 0.1294 0.1294);fill-opacity:1;"/>
<path d="M114.92 93.1101C111.23 94.9701 107.57 96.8901 103.01 99.2201C103.01 98.5101 103.01 98.1501 103.01 97.4401C107.55 95.1201 111.22 93.2101 114.92 91.3301C114.92 92.0401 114.92 92.4001 114.92 93.1101Z" fill="#5B412D" style="fill:#5B412D;fill:color(display-p3 0.3569 0.2549 0.1765);fill-opacity:1;"/>
<path d="M107.15 93.9202C106.11 94.4502 105.59 94.7202 104.61 95.2202C104.6 92.1202 104.6 90.5702 104.59 87.4702C105.57 86.9702 106.08 86.7102 107.11 86.1802C107.13 89.2802 107.14 90.8202 107.15 93.9202Z" fill="#5B412D" style="fill:#5B412D;fill:color(display-p3 0.3569 0.2549 0.1765);fill-opacity:1;"/>
<path d="M113.61 90.5999C112.75 91.0399 112.27 91.2899 111.29 91.7899C111.27 88.6999 111.26 87.1599 111.24 84.0699C112.23 83.5599 112.71 83.3199 113.58 82.8599C113.59 85.9599 113.6 87.5099 113.61 90.5999Z" fill="#5B412D" style="fill:#5B412D;fill:color(display-p3 0.3569 0.2549 0.1765);fill-opacity:1;"/>
<path d="M108.78 86.2499C106.41 87.4599 105.15 88.1099 103.06 89.1699C104.1 87.2799 104.67 86.3199 105.81 84.3799C106.98 85.1399 107.59 85.5099 108.78 86.2499Z" fill="#5B412D" style="fill:#5B412D;fill:color(display-p3 0.3569 0.2549 0.1765);fill-opacity:1;"/>
<path d="M114.92 83.1C113.15 84.02 111.96 84.63 109.62 85.83C110.78 83.88 111.36 82.91 112.43 81C113.52 81.79 114.03 82.2 114.92 83.1Z" fill="#5B412D" style="fill:#5B412D;fill:color(display-p3 0.3569 0.2549 0.1765);fill-opacity:1;"/>
<path d="M95.92 101.66C95.09 102.09 94.66 102.32 93.83 102.75C93.89 99.0703 93.92 97.2303 93.99 93.5503C94.79 93.1303 95.19 92.9203 95.99 92.5103C95.96 96.1703 95.95 98.0003 95.92 101.66Z" fill="#5B412D" style="fill:#5B412D;fill:color(display-p3 0.3569 0.2549 0.1765);fill-opacity:1;"/>
<path d="M98.97 101.01C95.93 102.61 93.57 103.81 90.65 105.37C90.67 104.32 91.48 103.05 92.58 102.46C94.3 101.55 95.28 101.05 97.02 100.14C98.14 99.5701 98.97 99.9801 98.97 101.01Z" fill="#5B412D" style="fill:#5B412D;fill:color(display-p3 0.3569 0.2549 0.1765);fill-opacity:1;"/>
<path d="M93.18 90.62C92.67 91.7 92.41 92.25 91.9 93.33C92.3 94.18 92.51 94.61 92.93 95.45C92.57 95.42 92.39 95.41 92.03 95.38C91.55 94.74 91.31 94.42 90.85 93.78C91.27 92.79 91.49 92.29 91.93 91.3C90.71 91.97 90.11 92.31 89 92.96C89 96.54 91.34 98.12 94.86 96.28C98.38 94.45 100.71 90.36 100.71 86.77C98.09 88.08 96.33 88.94 93.18 90.62Z" fill="#5B412D" style="fill:#5B412D;fill:color(display-p3 0.3569 0.2549 0.1765);fill-opacity:1;"/>
<path d="M100.74 41.4903C100.24 41.1203 46.55 13.0703 46.55 13.0703L29.89 21.6803L84.94 50.0703L84.97 50.1003L101.08 41.8503C101.08 41.8503 101.05 41.7703 100.96 41.6703C100.89 41.6103 100.77 41.5203 100.74 41.4903Z" fill="#FFE0B2" style="fill:#FFE0B2;fill:color(display-p3 1.0000 0.8784 0.6980);fill-opacity:1;"/>
<path d="M101 41.73C91.8801 46.22 84.9401 50.07 84.9401 50.07C85.1701 50.3 85.1801 50.6 85.1801 50.75C85.1501 51.91 85.1301 52.83 85.1001 53.98C84.9601 59.93 84.8801 65.89 84.6801 71.84C85.3501 71.44 86.1601 72.32 86.7701 71.84C87.7101 71.1 89.7101 67.84 90.0101 67.74C90.4101 67.61 90.8401 67.71 91.2501 67.69C93.0501 67.59 97.0801 63.92 97.9401 63.75C98.7701 63.59 101.51 64.12 101.51 64.12C101.51 64.12 101.32 45.97 101.25 42.92C101.23 41.84 101 41.73 101 41.73Z" fill="#BF9F85" style="fill:#BF9F85;fill:color(display-p3 0.7490 0.6235 0.5216);fill-opacity:1;"/>
</g>
<defs>
<clipPath id="clip0_2339_40">
<rect width="128" height="128" fill="white" style="fill:white;fill-opacity:1;"/>
</clipPath>
</defs>
</svg>
