<svg width="128" height="128" viewBox="0 0 128 128" fill="none" xmlns="http://www.w3.org/2000/svg">
<path d="M80.2799 80.9801L78.6499 78.6401C77.5499 77.0501 74.6699 76.3601 74.6699 76.3601L68.8199 80.4201L64.7599 85.8201C63.8299 87.2101 63.8399 89.0201 64.7899 90.3901L65.5199 91.4501C65.7199 91.7401 66.0399 91.8901 66.3599 91.8901C66.5599 91.8901 66.7599 91.8301 66.9399 91.7101L79.9899 82.6101C80.5199 82.2401 80.6499 81.5101 80.2799 80.9801Z" fill="#4568AD" style="fill:#4568AD;fill:color(display-p3 0.2706 0.4078 0.6784);fill-opacity:1;"/>
<path d="M51.68 10.35C48.44 6.98001 42.35 5.11001 37.98 6.79001C33.09 8.67001 31.13 12.86 31.38 17.6C31.47 19.32 31.87 20.97 32.41 22.09C32.47 22.22 32.97 23.19 33.06 23.51C33.51 24.71 31.36 26.44 31.36 27.87C31.36 28.94 33.67 29.15 33.87 29.3C34.91 30.05 34.5 34.69 40.53 33.92C42.56 33.66 42.66 33.45 43.39 33.41C45.29 33.29 50.65 35.04 50.65 35.04L52.77 30.6C52.77 30.6 51.03 29.8 52.73 24.43C54.04 20.31 53.76 12.51 51.68 10.35Z" fill="#A56C43" style="fill:#A56C43;fill:color(display-p3 0.6471 0.4235 0.2627);fill-opacity:1;"/>
<path d="M35.01 31.6301C35.84 31.5101 36.62 31.1501 37.2 30.4901C37.84 29.7701 37.19 29.2601 36.4 29.8001C35.92 30.1301 35.2 30.4001 34.5 30.4101L35.01 31.6301Z" fill="#473530" style="fill:#473530;fill:color(display-p3 0.2784 0.2078 0.1882);fill-opacity:1;"/>
<path d="M37.2872 25.07C37.8821 24.9222 38.182 24.0681 37.957 23.1623C37.732 22.2564 37.0672 21.6419 36.4723 21.7898C35.8773 21.9376 35.5774 22.7917 35.8025 23.6975C36.0275 24.6033 36.6922 25.2178 37.2872 25.07Z" fill="#42312C" style="fill:#42312C;fill:color(display-p3 0.2588 0.1922 0.1725);fill-opacity:1;"/>
<path d="M35.65 21.3401C34.72 21.9801 34.26 21.3901 34.42 20.7301C34.54 20.2501 35.05 19.7101 36.33 19.5401C37.53 19.3901 38.22 19.8801 38.65 20.1701C39.09 20.4601 39.18 20.8701 38.93 20.9901C38.59 21.1601 36.8 20.5501 35.65 21.3401Z" fill="#42312C" style="fill:#42312C;fill:color(display-p3 0.2588 0.1922 0.1725);fill-opacity:1;"/>
<path d="M53.1301 12.16C52.7001 11.58 52.2301 11.04 51.6901 10.56C50.9301 9.87998 50.0501 9.34998 49.1301 8.91998C46.6901 7.78998 43.8901 7.41997 41.2501 7.95997C38.6101 8.49997 36.1701 9.97997 34.5201 12.11C33.2501 13.76 32.4701 16.02 33.2701 17.94C34.2601 17.65 34.9901 16.79 36.0701 16.57C37.4701 16.27 39.0001 16.25 40.1901 15.46C40.6501 15.16 41.0401 14.75 41.4701 14.41C41.5801 14.38 41.6501 14.37 41.6501 14.37C43.5601 14.92 42.1501 19.4 44.5601 21.35C45.0401 21.74 45.6001 22.06 45.6001 22.06C45.6001 22.06 45.1901 18.9 47.2101 18.87C49.3101 18.84 49.4801 20.99 48.8801 22.82C48.2601 24.72 47.1901 24.05 47.5701 24.68C48.1901 25.71 51.3801 26.01 52.3801 25.8C53.7201 25.53 54.5801 24.07 55.3801 22.96C56.3101 21.68 56.2301 20.16 56.0901 18.58C55.9301 16.84 55.1001 15.23 54.1801 13.74C53.8501 13.19 53.5001 12.66 53.1301 12.16Z" fill="#3C2C23" style="fill:#3C2C23;fill:color(display-p3 0.2353 0.1725 0.1373);fill-opacity:1;"/>
<path d="M48.5698 25.35L49.3298 24.57C49.2398 24.54 49.1398 24.52 49.0598 24.49C49.3298 24.19 49.5998 23.75 49.8098 23.1C50.0698 22.31 50.5598 20.33 49.5598 18.95C49.1998 18.46 48.5098 17.86 47.2598 17.86H47.1998C46.4798 17.87 45.8498 18.15 45.3998 18.68C45.0498 19.08 44.8498 19.58 44.7298 20.08C44.2898 19.45 44.0998 18.61 43.9698 17.74L43.0498 18.16C43.2498 19.34 43.5998 20.54 44.5598 21.32C45.0398 21.71 45.5998 22.03 45.5998 22.03C45.5998 22.03 45.1898 18.87 47.2098 18.84H47.2598C49.3098 18.84 49.4798 20.97 48.8898 22.79C48.2698 24.69 47.1998 24.02 47.5798 24.65C47.7298 24.95 48.1098 25.17 48.5698 25.35Z" fill="#3C2C23" style="fill:#3C2C23;fill:color(display-p3 0.2353 0.1725 0.1373);fill-opacity:1;"/>
<path d="M83.5598 49.6199L77.3498 37.95L53.2998 51.86V51.8699C50.5598 53.3199 49.5298 56.7199 50.9798 59.4599C51.1298 59.75 51.3098 60.0099 51.5098 60.2599L51.5498 60.31C51.5998 60.37 51.6498 60.43 51.6998 60.5L68.5598 80.7699L75.6398 75.5599L64.2598 59.0099L83.5598 49.6199Z" fill="#875334" style="fill:#875334;fill:color(display-p3 0.5294 0.3255 0.2039);fill-opacity:1;"/>
<path d="M87.5102 40.0201C86.1102 37.3801 83.3802 35.8601 80.5702 35.8601C79.3202 35.8601 78.0602 36.1601 76.8802 36.7801V36.7701L59.9102 46.6301L66.9502 59.8701L84.2602 50.6601C88.1002 48.6201 89.5502 43.8601 87.5102 40.0201Z" fill="#646464" style="fill:#646464;fill:color(display-p3 0.3922 0.3922 0.3922);fill-opacity:1;"/>
<path d="M71.3002 69.26L63.6602 74.88L68.5602 80.77L75.6402 75.56L71.3002 69.26Z" fill="#E0E0E0" style="fill:#E0E0E0;fill:color(display-p3 0.8784 0.8784 0.8784);fill-opacity:1;"/>
<path d="M97.5202 76.4102C84.6502 76.4102 74.1802 86.8802 74.1802 99.7402C74.1802 112.61 84.6502 123.07 97.5202 123.07C110.38 123.07 120.85 112.6 120.85 99.7402C120.85 86.8702 110.39 76.4102 97.5202 76.4102ZM97.5202 114.74C89.2602 114.74 82.5102 108.01 82.5102 99.7402C82.5102 91.4701 89.2502 84.7402 97.5202 84.7402C105.79 84.7402 112.52 91.4701 112.52 99.7402C112.52 108.01 105.79 114.74 97.5202 114.74Z" fill="#484D50" style="fill:#484D50;fill:color(display-p3 0.2824 0.3020 0.3137);fill-opacity:1;"/>
<path d="M30.4801 76.4102C17.6101 76.4102 7.14014 86.8802 7.14014 99.7402C7.14014 112.61 17.6101 123.07 30.4801 123.07C43.3401 123.07 53.8101 112.6 53.8101 99.7402C53.8101 86.8702 43.3501 76.4102 30.4801 76.4102ZM30.4801 114.74C22.2201 114.74 15.4701 108.01 15.4701 99.7402C15.4701 91.4701 22.2101 84.7402 30.4801 84.7402C38.7501 84.7402 45.4801 91.4701 45.4801 99.7402C45.4801 108.01 38.7501 114.74 30.4801 114.74Z" fill="#484D50" style="fill:#484D50;fill:color(display-p3 0.2824 0.3020 0.3137);fill-opacity:1;"/>
<path d="M99.9203 98.0701C99.8303 97.8301 99.7103 97.6101 99.5503 97.4001L90.3803 85.0601L80.1903 71.3201L83.9303 63.1901C84.0103 63.0201 84.0703 62.8401 84.1103 62.6601C84.1503 62.4801 84.1803 62.3001 84.1803 62.1201C84.1903 61.9401 84.1703 61.7601 84.1403 61.5901C84.0803 61.2401 83.9603 60.9101 83.7703 60.6101C83.4903 60.1601 83.0903 59.7801 82.5703 59.5501C82.3903 59.4701 82.2103 59.4101 82.0203 59.3701C81.9503 59.3601 81.8903 59.3501 81.8203 59.3401C81.7003 59.3201 81.5803 59.3001 81.4603 59.3001C81.4503 59.3001 81.4403 59.3001 81.4203 59.3001C81.3903 59.3001 81.3603 59.3101 81.3403 59.3101C81.1403 59.3201 80.9403 59.3401 80.7503 59.3901C80.7003 59.4001 80.6503 59.4101 80.6003 59.4301C80.3803 59.5001 80.1703 59.5901 79.9703 59.7101C79.9603 59.7201 79.9403 59.7301 79.9303 59.7401C79.7503 59.8601 79.5903 60.0001 79.4403 60.1501C79.4003 60.1901 79.3603 60.2401 79.3203 60.2801C79.1703 60.4601 79.0303 60.6601 78.9303 60.8801L78.9103 60.9201L75.3003 68.7701L43.3303 64.1501L44.4003 60.1001C44.7903 58.6401 43.9103 57.1401 42.4403 56.7501C42.4303 56.7501 42.4103 56.7501 42.4003 56.7401C42.1803 56.6801 41.9603 56.6501 41.7403 56.6501C40.5303 56.6501 39.4203 57.4601 39.0903 58.6901L36.8303 67.2401L28.3303 99.4101C27.9503 100.87 28.8203 102.37 30.2803 102.76C30.5203 102.82 30.7503 102.85 30.9903 102.85C30.9903 102.85 30.9903 102.85 31.0003 102.85C32.2103 102.85 33.3203 102.04 33.6503 100.81L41.2703 71.9501L62.2103 100.64C62.2603 100.71 62.3303 100.77 62.3903 100.83C62.4503 100.89 62.5003 100.95 62.5603 101.01C62.6203 101.07 62.6803 101.12 62.7503 101.17L62.7703 101.19C62.7803 101.2 62.8003 101.21 62.8103 101.22C62.8703 101.27 62.9303 101.31 63.0003 101.35C63.0303 101.37 63.0503 101.39 63.0803 101.4C63.1103 101.41 63.1403 101.43 63.1703 101.45C63.1803 101.45 63.1903 101.46 63.2003 101.47C63.2203 101.48 63.2403 101.49 63.2603 101.5C63.2903 101.51 63.3103 101.52 63.3403 101.53C63.3703 101.54 63.4103 101.56 63.4403 101.57C63.5103 101.6 63.5903 101.63 63.6603 101.65C63.7103 101.67 63.7603 101.69 63.8203 101.7C64.0103 101.74 64.2203 101.77 64.4203 101.77H97.3403C98.3803 101.77 99.3303 101.19 99.7903 100.26C100.15 99.5901 100.19 98.7801 99.9203 98.0701ZM46.7903 70.2101L63.2603 72.5901L72.9203 73.9901L63.9003 93.6401L46.7903 70.2101ZM68.7203 96.2901L77.5803 77.0201L91.9003 96.2901H68.7203Z" fill="url(#paint0_linear_1015_526)" style=""/>
<path d="M71.04 99.4801C70.57 98.4601 69.71 97.7401 68.79 97.5901C67.61 97.3901 62.73 98.9801 62.01 99.3101C60.26 100.09 58.13 102.31 59.1 104.62C59.71 106.04 60.58 106.47 61.51 106.47C62.29 106.47 63.1 106.17 63.84 105.9L64.4 105.7C64.77 105.57 65.2 105.44 65.65 105.31C67.61 104.73 70.05 104 71.05 102.32C71.5 101.54 71.51 100.48 71.04 99.4801Z" fill="#504F4F" style="fill:#504F4F;fill:color(display-p3 0.3137 0.3098 0.3098);fill-opacity:1;"/>
<path d="M43.1603 56.2501L34.6203 54.2001C34.4103 54.1401 34.1903 54.1201 33.9803 54.1201C32.7403 54.1201 31.6103 54.9601 31.3103 56.2201C30.9603 57.7001 31.8603 59.1801 33.3403 59.5301L41.8803 61.5801C42.0903 61.6301 42.3003 61.6601 42.5203 61.6601C43.7603 61.6601 44.8803 60.8201 45.1903 59.5601C45.5403 58.0901 44.6303 56.6101 43.1603 56.2501Z" fill="#405966" style="fill:#405966;fill:color(display-p3 0.2510 0.3490 0.4000);fill-opacity:1;"/>
<path d="M88.4402 56.7701C88.3102 56.6701 88.1702 56.5701 88.0302 56.4901C86.8802 55.8401 85.5902 55.9901 84.2702 55.9301C82.6702 55.8501 81.0502 55.7801 79.4502 55.6801C78.5702 55.6201 77.6902 55.6101 76.8102 55.6101C75.7802 55.6101 74.7402 55.6301 73.7202 55.6301C72.9402 55.6301 72.1702 55.6201 71.4002 55.5801C71.3602 55.5701 71.3002 55.5701 71.2402 55.5701C69.7702 55.5701 68.3802 56.6801 67.8702 58.0001C67.1502 59.8701 68.4202 61.0501 70.0102 61.9101C71.9602 62.9701 74.1502 63.4701 76.2802 63.9901C78.6002 64.5501 80.9202 65.2901 83.3002 65.6101C83.6002 65.6501 83.9002 65.6701 84.2102 65.6701C86.2702 65.6701 88.4002 64.7601 89.5702 63.0501C90.9702 61.0101 90.3902 58.2901 88.4402 56.7701Z" fill="#504F4F" style="fill:#504F4F;fill:color(display-p3 0.3137 0.3098 0.3098);fill-opacity:1;"/>
<path d="M86.5401 46.67L75.3001 39.71L61.5301 63.85H61.5401C60.7801 65.08 60.5601 66.48 60.8001 67.8L63.5701 93.64L70.3601 93.55L71.8401 68.65L86.5401 46.67Z" fill="url(#paint1_linear_1015_526)" style=""/>
<path d="M62.5898 85.9899L63.5698 93.6299L70.3598 93.5399L70.9498 85.8999L62.5898 85.9899Z" fill="#E0E0E0" style="fill:#E0E0E0;fill:color(display-p3 0.8784 0.8784 0.8784);fill-opacity:1;"/>
<path d="M85.1299 36.38C83.8399 35.59 82.4099 35.21 80.9999 35.21C78.3699 35.21 75.7899 36.53 74.2999 38.94L64.1699 56.35L76.9199 64.24C76.9199 64.24 86.4799 49.44 87.6799 47.21C89.6099 43.61 88.8299 38.67 85.1299 36.38Z" fill="#7C7C7C" style="fill:#7C7C7C;fill:color(display-p3 0.4863 0.4863 0.4863);fill-opacity:1;"/>
<path d="M74.1099 97.52L73.3399 94.77C72.8299 92.89 70.3399 91.28 70.3399 91.28L63.4799 93.18L57.8699 96.93C56.5399 97.93 55.9499 99.64 56.3799 101.26L56.7199 102.51C56.8399 102.96 57.2599 103.26 57.6999 103.26C57.7899 103.26 57.8799 103.25 57.9699 103.22L73.2999 98.96C73.9199 98.79 74.2899 98.14 74.1099 97.52Z" fill="#4568AD" style="fill:#4568AD;fill:color(display-p3 0.2706 0.4078 0.6784);fill-opacity:1;"/>
<path d="M61.0998 23.5399C59.9198 23.2899 58.7398 23.1399 57.6298 23.1399C55.1098 23.1399 52.9998 23.9199 52.0998 25.9599C51.3698 27.5799 50.6098 29.2299 49.8198 30.8799C48.4098 33.8699 49.5598 38.4599 53.0598 39.5599C62.1498 42.4499 61.8998 45.1499 67.1798 47.5999C68.7098 48.3099 70.1598 48.6199 71.5198 48.6199C78.1798 48.6199 82.8898 41.2199 85.6698 36.4999C79.5598 30.2699 71.4198 25.8099 61.0998 23.5399Z" fill="url(#paint2_radial_1015_526)" style=""/>
<path d="M57.4602 31.31L49.6802 29.01L45.0502 46.23L36.7302 53.24C35.2902 52.75 33.3902 52.49 32.0402 52.49C32.0402 52.49 32.0402 52.49 32.0302 52.49C32.0202 52.49 32.0202 52.49 32.0102 52.49C31.8702 52.49 31.7402 52.49 31.6202 52.5C31.5602 52.5 31.5102 52.51 31.4602 52.51C31.3902 52.52 31.3202 52.52 31.2602 52.53C31.1902 52.54 31.1102 52.55 31.0502 52.56C31.0302 52.56 31.0102 52.57 30.9802 52.57C30.8002 52.6 30.6402 52.65 30.5402 52.71C30.1702 52.93 29.6002 53.43 29.0602 53.92C28.2302 54.69 27.8002 55.8 27.8902 56.93L27.9502 57.75C27.8802 58 28.2602 58.58 28.8302 58.92C28.8602 58.94 28.9002 58.96 28.9302 58.98C28.9602 59 29.0002 59.01 29.0402 59.03C29.4802 59.24 30.0102 59.29 30.5302 58.93C31.2102 58.48 30.4802 57.23 30.8002 56.7C31.1702 56.07 31.8102 55.43 31.8102 55.43C31.8102 55.43 33.7902 55.28 34.2202 55.59C34.9802 56.22 35.2002 56.78 34.7702 57.98C34.4602 58.84 33.7502 59.73 34.1102 60.02C34.2402 60.13 34.3702 60.22 34.4902 60.3C34.5002 60.31 34.5102 60.31 34.5202 60.32C34.6102 60.38 34.7002 60.44 34.7902 60.48C34.8402 60.51 34.9002 60.52 34.9502 60.55C34.9902 60.57 35.0302 60.58 35.0802 60.59C35.1602 60.61 35.2402 60.62 35.3202 60.62C35.3302 60.62 35.3402 60.62 35.3502 60.62H35.3602C35.8202 60.63 36.3202 60.34 37.0502 59.61C38.0802 58.57 39.0602 58.92 39.8502 58.13L49.7502 51.48L49.8702 51.4C50.0602 51.3 50.2502 51.18 50.4202 51.05L50.4602 51.03C51.0302 50.58 51.4502 49.96 51.6602 49.25H51.6702L57.4902 31.3L57.4602 31.31Z" fill="url(#paint3_linear_1015_526)" style=""/>
<path d="M32.9401 53.71C31.3701 53.71 30.1001 54.98 30.1001 56.55C30.1001 58.12 31.3701 59.39 32.9401 59.39C34.5101 59.39 35.7801 58.12 35.7801 56.55C35.7801 54.98 34.5001 53.71 32.9401 53.71Z" fill="url(#paint4_radial_1015_526)" style=""/>
<path d="M55.1099 26.23C54.5999 26.08 54.0899 26.01 53.5899 26.01C51.2899 26.01 49.1699 27.51 48.4899 29.82L45.9399 39.31L55.6699 42.19L58.6999 32.84C59.5299 30.02 57.9299 27.06 55.1099 26.23Z" fill="#ED6D23" style="fill:#ED6D23;fill:color(display-p3 0.9294 0.4275 0.1373);fill-opacity:1;"/>
<path d="M62.89 18.1399C62.86 17.9999 62.77 17.8899 62.64 17.8399C62.58 17.8199 62.53 17.7999 62.46 17.7999C62.39 17.7999 62.31 17.8199 62.24 17.8599C61.78 18.1199 61.4 18.1999 61.12 18.1999C61 18.1999 60.89 18.1799 60.8 18.1599C61.48 17.2299 61.47 15.6599 60.7 14.4599C60.66 14.3399 60.53 14.2699 60.38 14.2699C60.35 14.2699 60.33 14.2699 60.3 14.2799C60.13 14.3099 59.99 14.4499 59.95 14.6199C59.95 14.6199 59.18 15.3599 58.22 15.3599C57.96 15.3599 57.68 15.2999 57.39 15.1599C55.88 13.7099 52.05 8.6699 50.57 8.6199C49.91 8.5999 51.03 18.1799 51.12 18.9899C51.31 20.7899 51.22 22.9399 51.33 24.8199C51.22 24.7899 51.13 24.7699 51.09 24.7599L50.67 25.7799C50.82 25.8299 51.61 26.1799 52.74 26.1799C53.42 26.1799 54.22 26.0499 55.08 25.6599C55.93 25.2799 56.31 24.5799 56.5 24.1199C56.85 24.2399 57.35 24.3599 57.88 24.3599C58.26 24.3599 58.65 24.2999 59.01 24.1199C60.03 23.6199 60.35 22.7599 60.44 22.2899C61.66 21.8899 63.43 20.6299 62.89 18.1399Z" fill="#3C2C23" style="fill:#3C2C23;fill:color(display-p3 0.2353 0.1725 0.1373);fill-opacity:1;"/>
<path d="M62.89 18.1399C62.86 17.9999 62.77 17.8899 62.64 17.8399C62.58 17.8199 62.53 17.7999 62.46 17.7999C62.39 17.7999 62.31 17.8199 62.24 17.8599C61.78 18.1199 61.4 18.1999 61.12 18.1999C61 18.1999 60.89 18.1799 60.8 18.1599C61.48 17.2299 61.47 15.6599 60.7 14.4599C60.66 14.3399 60.53 14.2699 60.38 14.2699C60.35 14.2699 60.33 14.2699 60.3 14.2799C60.13 14.3099 59.99 14.4499 59.95 14.6199C59.95 14.6199 59.18 15.3599 58.22 15.3599C57.96 15.3599 57.68 15.2999 57.39 15.1599C55.88 13.7099 52.05 8.6699 50.57 8.6199C49.91 8.5999 51.03 18.1799 51.12 18.9899C51.31 20.7899 51.22 22.9399 51.33 24.8199C51.22 24.7899 51.13 24.7699 51.09 24.7599L50.67 25.7799C50.82 25.8299 51.61 26.1799 52.74 26.1799C53.42 26.1799 54.22 26.0499 55.08 25.6599C55.93 25.2799 56.31 24.5799 56.5 24.1199C56.85 24.2399 57.35 24.3599 57.88 24.3599C58.26 24.3599 58.65 24.2999 59.01 24.1199C60.03 23.6199 60.35 22.7599 60.44 22.2899C61.66 21.8899 63.43 20.6299 62.89 18.1399Z" fill="url(#paint5_radial_1015_526)" style=""/>
<path d="M45.9302 27.8001C46.0402 29.4601 43.1302 33.2201 43.0502 33.4501C42.8902 33.8301 44.4802 33.8901 44.8302 33.5301C45.1802 33.1701 48.4002 30.0001 50.4702 26.0401C51.4002 24.2601 53.5002 19.5301 53.5002 19.5301L50.5702 18.1001C50.5702 18.1001 49.7102 26.3201 47.6402 26.2901C45.5602 26.2601 45.6002 18.3001 45.6002 18.3001L40.9302 20.2401C40.9302 20.2401 45.8702 26.7701 45.9302 27.8001Z" fill="url(#paint6_linear_1015_526)" style=""/>
<path d="M53.6402 7.62999C51.0402 5.18999 47.5602 3.98999 44.0602 3.98999C42.4202 3.98999 40.7602 4.24999 39.1902 4.77999C37.7502 5.25999 33.2202 7.48999 31.2802 11.35C30.4702 12.97 29.8302 14.74 29.6702 16.54C29.5802 17.52 29.5702 19.27 30.3602 20.13C30.7102 20.51 31.1302 20.63 31.5302 20.63C31.7402 20.63 31.9502 20.6 32.1502 20.56C33.2002 20.33 35.8502 19.21 36.6402 19.13C36.7502 19.12 36.8502 19.12 36.9602 19.12C38.6202 19.12 39.8502 20.31 40.1802 20.55C40.8502 21.03 41.5202 21.41 42.3002 21.41C42.9702 21.41 43.7302 21.14 44.6602 20.42C45.8702 19.49 46.1402 18.77 47.2202 18.58C47.3402 18.56 47.4802 18.54 47.6202 18.54C48.3502 18.54 49.3502 18.92 50.5202 20.74C51.5102 22.28 52.6602 22.93 53.6402 22.93C54.2102 22.93 54.7202 22.72 55.1102 22.34C56.6002 20.92 59.5002 13.07 53.6402 7.62999Z" fill="url(#paint7_radial_1015_526)" style=""/>
<defs>
<linearGradient id="paint0_linear_1015_526" x1="34.6815" y1="79.7686" x2="99.0917" y2="79.7686" gradientUnits="userSpaceOnUse">
<stop stop-color="#D8EB21" style="stop-color:#D8EB21;stop-color:color(display-p3 0.8471 0.9216 0.1294);stop-opacity:1;"/>
<stop offset="0.4414" stop-color="#D6E921" style="stop-color:#D6E921;stop-color:color(display-p3 0.8392 0.9137 0.1294);stop-opacity:1;"/>
<stop offset="0.6058" stop-color="#B8C721" style="stop-color:#B8C721;stop-color:color(display-p3 0.7216 0.7804 0.1294);stop-opacity:1;"/>
<stop offset="0.8038" stop-color="#ADBA21" style="stop-color:#ADBA21;stop-color:color(display-p3 0.6784 0.7294 0.1294);stop-opacity:1;"/>
</linearGradient>
<linearGradient id="paint1_linear_1015_526" x1="102.028" y1="3.22026" x2="36.1996" y2="140.874" gradientUnits="userSpaceOnUse">
<stop offset="0.1952" stop-color="#8D5738" style="stop-color:#8D5738;stop-color:color(display-p3 0.5529 0.3412 0.2196);stop-opacity:1;"/>
<stop offset="0.6908" stop-color="#A56C43" style="stop-color:#A56C43;stop-color:color(display-p3 0.6471 0.4235 0.2627);stop-opacity:1;"/>
</linearGradient>
<radialGradient id="paint2_radial_1015_526" cx="0" cy="0" r="1" gradientUnits="userSpaceOnUse" gradientTransform="translate(67.4513 35.8799) scale(15.7197)">
<stop offset="0.3666" stop-color="#F78C1F" style="stop-color:#F78C1F;stop-color:color(display-p3 0.9686 0.5490 0.1216);stop-opacity:1;"/>
<stop offset="0.6798" stop-color="#F37F21" style="stop-color:#F37F21;stop-color:color(display-p3 0.9529 0.4980 0.1294);stop-opacity:1;"/>
<stop offset="1" stop-color="#ED6D23" style="stop-color:#ED6D23;stop-color:color(display-p3 0.9294 0.4275 0.1373);stop-opacity:1;"/>
</radialGradient>
<linearGradient id="paint3_linear_1015_526" x1="27.891" y1="44.8245" x2="57.4832" y2="44.8245" gradientUnits="userSpaceOnUse">
<stop offset="0.5" stop-color="#A56C43" style="stop-color:#A56C43;stop-color:color(display-p3 0.6471 0.4235 0.2627);stop-opacity:1;"/>
<stop offset="1" stop-color="#8D5738" style="stop-color:#8D5738;stop-color:color(display-p3 0.5529 0.3412 0.2196);stop-opacity:1;"/>
</linearGradient>
<radialGradient id="paint4_radial_1015_526" cx="0" cy="0" r="1" gradientUnits="userSpaceOnUse" gradientTransform="translate(32.9401 56.55) scale(2.84)">
<stop stop-color="#78909C" style="stop-color:#78909C;stop-color:color(display-p3 0.4706 0.5647 0.6118);stop-opacity:1;"/>
<stop offset="0.5619" stop-color="#617A86" style="stop-color:#617A86;stop-color:color(display-p3 0.3804 0.4784 0.5255);stop-opacity:1;"/>
<stop offset="1" stop-color="#546E7A" style="stop-color:#546E7A;stop-color:color(display-p3 0.3294 0.4314 0.4784);stop-opacity:1;"/>
</radialGradient>
<radialGradient id="paint5_radial_1015_526" cx="0" cy="0" r="1" gradientUnits="userSpaceOnUse" gradientTransform="translate(43.5867 20.1314) scale(17.1874 17.1874)">
<stop offset="0.7836" stop-color="#554138" stop-opacity="0" style="stop-color:none;stop-opacity:0;"/>
<stop offset="1" stop-color="#554138" style="stop-color:#554138;stop-color:color(display-p3 0.3333 0.2549 0.2196);stop-opacity:1;"/>
</radialGradient>
<linearGradient id="paint6_linear_1015_526" x1="46.969" y1="22.7101" x2="46.2878" y2="30.5282" gradientUnits="userSpaceOnUse">
<stop stop-color="#646464" style="stop-color:#646464;stop-color:color(display-p3 0.3922 0.3922 0.3922);stop-opacity:1;"/>
<stop offset="0.9947" stop-color="#262626" style="stop-color:#262626;stop-color:color(display-p3 0.1490 0.1490 0.1490);stop-opacity:1;"/>
</linearGradient>
<radialGradient id="paint7_radial_1015_526" cx="0" cy="0" r="1" gradientUnits="userSpaceOnUse" gradientTransform="translate(38.9443 12.0868) scale(11.8136)">
<stop stop-color="#81D4FA" style="stop-color:#81D4FA;stop-color:color(display-p3 0.5059 0.8314 0.9804);stop-opacity:1;"/>
<stop offset="0.3601" stop-color="#5EB3E7" style="stop-color:#5EB3E7;stop-color:color(display-p3 0.3686 0.7020 0.9059);stop-opacity:1;"/>
<stop offset="0.7751" stop-color="#3C92D3" style="stop-color:#3C92D3;stop-color:color(display-p3 0.2353 0.5725 0.8275);stop-opacity:1;"/>
<stop offset="1" stop-color="#2F85CC" style="stop-color:#2F85CC;stop-color:color(display-p3 0.1843 0.5216 0.8000);stop-opacity:1;"/>
</radialGradient>
</defs>
</svg>
