<svg width="128" height="128" viewBox="0 0 128 128" fill="none" xmlns="http://www.w3.org/2000/svg">
<path d="M116 4H12C7.58 4 4 7.58 4 12V116C4 120.42 7.58 124 12 124H116C120.42 124 124 120.42 124 116V12C124 7.58 120.42 4 116 4Z" fill="#427687" style="fill:#427687;fill:color(display-p3 0.2588 0.4627 0.5294);fill-opacity:1;"/>
<path d="M109.7 4H11.5C7.37002 4.03 4.03002 7.37 4.00002 11.5V109.4C3.99002 113.54 7.34002 116.89 11.48 116.9C11.49 116.9 11.49 116.9 11.5 116.9H109.6C113.74 116.91 117.09 113.56 117.1 109.42C117.1 109.41 117.1 109.41 117.1 109.4V11.5C117.19 7.45 113.97 4.09 109.92 4C109.85 4 109.77 4 109.7 4Z" fill="#8CAFBF" style="fill:#8CAFBF;fill:color(display-p3 0.5490 0.6863 0.7490);fill-opacity:1;"/>
<path opacity="0.75" d="M39.6996 12.8999C39.6996 10.5999 38.0996 9.89988 28.8996 10.1999C21.1996 10.4999 17.3996 11.3999 15.0996 14.1999C12.7996 16.9999 12.1996 22.6999 12.0996 29.4999C12.0996 34.2999 12.0996 38.7999 14.5996 38.7999C17.9996 38.7999 17.9996 30.8999 20.7996 26.4999C26.1996 17.7999 39.6996 15.8999 39.6996 12.8999Z" fill="#A0C8D6" style="fill:#A0C8D6;fill:color(display-p3 0.6275 0.7843 0.8392);fill-opacity:1;"/>
<g opacity="0.2">
<path opacity="0.2" d="M63.8001 23.9999C64.7401 24.0199 65.6001 24.5099 66.1001 25.2999L95.3001 75.9999C96.0301 77.2899 95.5801 78.9199 94.2901 79.6499C93.8901 79.8799 93.4501 79.9899 93.0001 79.9999H34.7001C33.2201 79.9799 32.0301 78.7699 32.0501 77.2899C32.0601 76.8399 32.1701 76.3999 32.4001 75.9999L61.6001 25.2999C62.0401 24.4899 62.8801 23.9899 63.8001 23.9999Z" fill="#424242" style="fill:#424242;fill:color(display-p3 0.2588 0.2588 0.2588);fill-opacity:1;"/>
<path opacity="0.2" d="M94.1997 87.9998C95.1897 87.9898 95.9897 88.7898 95.9997 89.7798C95.9997 89.7898 95.9997 89.7899 95.9997 89.7999V98.0998C96.0097 99.0898 95.2097 99.8898 94.2197 99.8998C94.2097 99.8998 94.2097 99.8998 94.1997 99.8998H33.8997C32.9097 99.9099 32.1097 99.1099 32.0997 98.1199C32.0997 98.1099 32.0997 98.1098 32.0997 98.0998V89.7999C32.0897 88.8099 32.8897 88.0098 33.8797 87.9998C33.8897 87.9998 33.8897 87.9998 33.8997 87.9998H94.1997Z" fill="#424242" style="fill:#424242;fill:color(display-p3 0.2588 0.2588 0.2588);fill-opacity:1;"/>
</g>
<path d="M63.7997 80H92.9997C94.4797 79.98 95.6697 78.77 95.6497 77.29C95.6397 76.84 95.5297 76.4 95.2997 76L66.0997 25.3C65.3997 24.03 63.7897 23.57 62.5197 24.28C62.0897 24.52 61.7297 24.87 61.4997 25.3L32.2997 76C31.5697 77.29 32.0197 78.92 33.3097 79.65C33.6997 79.87 34.1497 79.99 34.5997 80H63.7997Z" fill="#FAFAFA" style="fill:#FAFAFA;fill:color(display-p3 0.9804 0.9804 0.9804);fill-opacity:1;"/>
<path d="M32.0001 98.1999V89.8999C31.9901 88.9099 32.7901 88.1099 33.7801 88.0999C33.7901 88.0999 33.7901 88.0999 33.8001 88.0999H94.1001C95.0901 88.0899 95.8901 88.8899 95.9001 89.8799C95.9001 89.8899 95.9001 89.8899 95.9001 89.8999V98.1999C95.9101 99.1899 95.1101 99.9899 94.1201 99.9999C94.1101 99.9999 94.1101 99.9999 94.1001 99.9999H33.8001C32.8101 100.01 32.0101 99.2099 32.0001 98.2199C32.0001 98.2099 32.0001 98.2099 32.0001 98.1999Z" fill="#FAFAFA" style="fill:#FAFAFA;fill:color(display-p3 0.9804 0.9804 0.9804);fill-opacity:1;"/>
</svg>
