<svg width="128" height="129" viewBox="0 0 128 129" fill="none" xmlns="http://www.w3.org/2000/svg">
<path d="M8.87977 7.88C18.1098 17.27 30.2398 24.88 41.7698 24.55C42.8698 24.52 43.7898 25.39 43.8198 26.49C43.8298 26.81 43.7598 27.12 43.6298 27.41C38.5598 37.82 27.4098 48.22 17.2298 46.8C16.7498 46.74 16.3098 46.49 15.9998 46.12C9.35977 38.18 4.69977 22.31 5.44977 9.12C5.52977 8.02 6.49977 7.19 7.59977 7.28C8.07977 7.32 8.53977 7.53 8.87977 7.88Z" fill="#E75625" style="fill:#E75625;fill:color(display-p3 0.9059 0.3373 0.1451);fill-opacity:1;"/>
<path d="M119.07 8.13C109.84 17.5 97.7099 25.1 86.1799 24.8C85.0799 24.77 84.1598 25.64 84.1298 26.74C84.1198 27.06 84.1899 27.37 84.3199 27.66C89.3899 38.07 100.54 48.47 110.72 47.05C111.19 46.98 111.63 46.74 111.93 46.37C118.56 38.43 123.22 22.56 122.48 9.37C122.39 8.27 121.42 7.45 120.32 7.55C119.85 7.59 119.4 7.79 119.07 8.13Z" fill="#E75625" style="fill:#E75625;fill:color(display-p3 0.9059 0.3373 0.1451);fill-opacity:1;"/>
<path d="M63.5999 119.3C38.3599 119.3 11.1299 103.47 11.1299 68.73C11.1299 33.99 38.3599 18.15 63.5999 18.15C77.5999 18.15 90.5999 22.77 100.15 31.15C110.55 40.38 116.07 53.41 116.07 68.7C116.07 83.99 110.55 96.92 100.15 106.15C90.5599 114.6 77.5299 119.3 63.5999 119.3Z" fill="url(#paint0_radial_118_60)" style=""/>
<path d="M63.5999 119.3C38.3599 119.3 11.1299 103.47 11.1299 68.73C11.1299 33.99 38.3599 18.15 63.5999 18.15C77.5999 18.15 90.5999 22.77 100.15 31.15C110.55 40.38 116.07 53.41 116.07 68.7C116.07 83.99 110.55 96.92 100.15 106.15C90.5599 114.6 77.5299 119.3 63.5999 119.3Z" fill="url(#paint1_linear_118_60)" style=""/>
<path d="M63.5999 119.3C38.3599 119.3 11.1299 103.47 11.1299 68.73C11.1299 33.99 38.3599 18.15 63.5999 18.15C77.5999 18.15 90.5999 22.77 100.15 31.15C110.55 40.38 116.07 53.41 116.07 68.7C116.07 83.99 110.55 96.92 100.15 106.15C90.5599 114.6 77.5299 119.3 63.5999 119.3Z" fill="url(#paint2_radial_118_60)" style=""/>
<path d="M107.22 38.83C112.17 47.06 114.71 56.52 114.54 66.12C114.54 81.38 109.03 94.29 98.6497 103.5C89.0797 111.9 76.0797 116.59 62.1697 116.59C45.8697 116.59 28.7397 109.96 18.6797 95.88C28.3897 111.88 46.6797 119.3 63.9797 119.3C77.8797 119.3 90.8797 114.61 100.45 106.21C110.84 97 116.34 84.09 116.34 68.83C116.34 57.33 113.21 47.11 107.22 38.83Z" fill="#792D85" style="fill:#792D85;fill:color(display-p3 0.4745 0.1765 0.5216);fill-opacity:1;"/>
<path d="M107.22 38.83C112.17 47.06 114.71 56.52 114.54 66.12C114.54 81.38 109.03 94.29 98.6497 103.5C89.0797 111.9 76.0797 116.59 62.1697 116.59C45.8697 116.59 28.7397 109.96 18.6797 95.88C28.3897 111.88 46.6797 119.3 63.9797 119.3C77.8797 119.3 90.8797 114.61 100.45 106.21C110.84 97 116.34 84.09 116.34 68.83C116.34 57.33 113.21 47.11 107.22 38.83Z" fill="#B11B17" style="fill:#B11B17;fill:color(display-p3 0.6958 0.1049 0.0899);fill-opacity:1;"/>
<path d="M58.3514 76.9934C57.7125 78.9677 56.6775 80.8 55.3054 82.3859C53.9333 83.9718 52.2511 85.2801 50.3547 86.2362C48.4583 87.1923 46.385 87.7775 44.2531 87.9582C42.1212 88.139 39.9724 87.9119 37.9295 87.2898C35.8866 86.6677 33.9895 85.6628 32.3466 84.3326C30.7037 83.0023 29.3471 81.3728 28.3544 79.5369C27.3616 77.701 26.7521 75.6948 26.5606 73.6328C26.3691 71.5708 26.5994 69.4934 27.2383 67.5192L58.3514 76.9934Z" fill="#2F2F2F" style="fill:#2F2F2F;fill:color(display-p3 0.1843 0.1843 0.1843);fill-opacity:1;"/>
<path d="M52.9089 75.3829C52.4977 76.7362 51.8256 77.995 50.9308 79.0872C50.036 80.1794 48.9361 81.0838 47.6939 81.7486C46.4517 82.4135 45.0914 82.8258 43.6909 82.9621C42.2903 83.0984 40.8769 82.9559 39.5313 82.5428C38.1856 82.1297 36.9341 81.4541 35.8482 80.5546C34.7624 79.6551 33.8634 78.5492 33.2026 77.3002C32.5418 76.0512 32.1321 74.6834 31.997 73.275C31.8619 71.8666 32.0039 70.4452 32.415 69.0918L52.9089 75.3829Z" fill="#FBB817" style="fill:#FBB817;fill:color(display-p3 0.9843 0.7216 0.0902);fill-opacity:1;"/>
<path d="M68.8927 76.9934C69.5316 78.9677 70.5667 80.8 71.9388 82.3859C73.3108 83.9718 74.9931 85.2801 76.8894 86.2362C78.7858 87.1923 80.8591 87.7775 82.991 87.9582C85.123 88.139 87.2717 87.9118 89.3146 87.2898C91.3576 86.6677 93.2546 85.6628 94.8975 84.3326C96.5404 83.0023 97.897 81.3728 98.8898 79.5369C99.8825 77.701 100.492 75.6948 100.684 73.6328C100.875 71.5708 100.645 69.4934 100.006 67.5192L68.8927 76.9934Z" fill="#2F2F2F" style="fill:#2F2F2F;fill:color(display-p3 0.1843 0.1843 0.1843);fill-opacity:1;"/>
<path d="M74.2349 75.3989C74.6603 76.7608 75.3482 78.0252 76.2594 79.12C77.1706 80.2147 78.2872 81.1184 79.5455 81.7793C80.8038 82.4402 82.1791 82.8455 83.593 82.9719C85.0068 83.0984 86.4315 82.9435 87.7857 82.5163C89.1398 82.089 90.3969 81.3977 91.4853 80.4818C92.5736 79.5659 93.4717 78.4433 94.1285 77.1782C94.7853 75.913 95.1878 74.5301 95.313 73.1083C95.4382 71.6866 95.2838 70.2538 94.8584 68.8919L74.2349 75.3989Z" fill="#FBB817" style="fill:#FBB817;fill:color(display-p3 0.9843 0.7216 0.0902);fill-opacity:1;"/>
<path d="M79.0147 91.5004C80.102 91.4817 81.0995 92.0977 81.6207 93.087C82.2497 94.487 82.088 96.1296 81.1983 97.3616C79.2034 100.507 72.6435 105.5 63.4955 105.5C54.3476 105.5 47.7876 100.507 45.8017 97.3616C44.912 96.1296 44.7503 94.487 45.3793 93.0964C45.8915 92.0977 46.898 91.4817 47.9853 91.5004C48.3538 91.5004 48.7222 91.5564 49.0727 91.6777C53.7455 93.143 58.607 93.871 63.4955 93.843C68.366 93.871 73.2096 93.143 77.8734 91.6777C78.2239 91.5564 78.5923 91.5004 78.9608 91.5004H79.0147Z" fill="#422B0D" style="fill:#422B0D;fill:color(display-p3 0.2588 0.1686 0.0510);fill-opacity:1;"/>
<defs>
<radialGradient id="paint0_radial_118_60" cx="0" cy="0" r="1" gradientUnits="userSpaceOnUse" gradientTransform="translate(63.5999 68.7251) scale(51.5312 51.5312)">
<stop stop-color="#FF00FF" style="stop-color:#FF00FF;stop-color:color(display-p3 1.0000 0.0000 1.0000);stop-opacity:1;"/>
<stop offset="0.86" stop-color="#DF0BE2" style="stop-color:#DF0BE2;stop-color:color(display-p3 0.8745 0.0431 0.8863);stop-opacity:1;"/>
<stop offset="1" stop-color="#792D85" style="stop-color:#792D85;stop-color:color(display-p3 0.4745 0.1765 0.5216);stop-opacity:1;"/>
</radialGradient>
<linearGradient id="paint1_linear_118_60" x1="63.5999" y1="119.3" x2="63.5999" y2="18.15" gradientUnits="userSpaceOnUse">
<stop stop-color="#F4A223" style="stop-color:#F4A223;stop-color:color(display-p3 0.9569 0.6353 0.1373);stop-opacity:1;"/>
<stop offset="0.0833" stop-color="#F4A223" stop-opacity="0.9051" style="stop-color:#F4A223;stop-color:color(display-p3 0.9569 0.6353 0.1373);stop-opacity:0.9051;"/>
<stop offset="0.8772" stop-color="#F4A223" stop-opacity="0" style="stop-color:none;stop-opacity:0;"/>
</linearGradient>
<radialGradient id="paint2_radial_118_60" cx="0" cy="0" r="1" gradientUnits="userSpaceOnUse" gradientTransform="translate(63.5999 68.7249) scale(51.5289 51.5338)">
<stop offset="0.1228" stop-color="#E65525" style="stop-color:#E65525;stop-color:color(display-p3 0.9020 0.3333 0.1451);stop-opacity:1;"/>
<stop offset="1" stop-color="#C72A28" style="stop-color:#C72A28;stop-color:color(display-p3 0.7804 0.1647 0.1569);stop-opacity:1;"/>
</radialGradient>
</defs>
</svg>
