<svg width="128" height="128" viewBox="0 0 128 128" fill="none" xmlns="http://www.w3.org/2000/svg">
<path d="M63.6001 118.8C35.7001 118.8 5.6001 101.3 5.6001 62.9C5.6001 24.5 35.7001 7 63.6001 7C79.1001 7 93.4001 12.1 104 21.4C115.5 31.6 121.6 46 121.6 62.9C121.6 79.8 115.5 94.1 104 104.3C93.4001 113.6 79.0001 118.8 63.6001 118.8Z" fill="url(#paint0_radial_169_13381)" style=""/>
<path d="M111.49 29.67C116.82 38.27 119.6 48.51 119.6 59.9C119.6 76.8 113.5 91.1 102 101.3C91.3999 110.6 76.9999 115.8 61.5999 115.8C43.5399 115.8 24.5999 108.45 13.4199 92.86C24.1799 110.52 44.4199 118.8 63.5999 118.8C78.9999 118.8 93.3999 113.6 104 104.3C115.5 94.1001 121.6 79.8 121.6 62.9C121.6 50.16 118.13 38.84 111.49 29.67Z" fill="#EB8F00" style="fill:#EB8F00;fill:color(display-p3 0.9216 0.5608 0.0000);fill-opacity:1;"/>
<path d="M63.6001 118.8C35.7001 118.8 5.6001 101.3 5.6001 62.9C5.6001 24.5 35.7001 7 63.6001 7C79.1001 7 93.4001 12.1 104 21.4C115.5 31.6 121.6 46 121.6 62.9C121.6 79.8 115.5 94.1 104 104.3C93.4001 113.6 79.0001 118.8 63.6001 118.8Z" fill="url(#paint1_linear_169_13381)" style=""/>
<path d="M63.6001 118.8C35.7001 118.8 5.6001 101.3 5.6001 62.9C5.6001 24.5 35.7001 7 63.6001 7C79.1001 7 93.4001 12.1 104 21.4C115.5 31.6 121.6 46 121.6 62.9C121.6 79.8 115.5 94.1 104 104.3C93.4001 113.6 79.0001 118.8 63.6001 118.8Z" fill="url(#paint2_radial_169_13381)" style=""/>
<path d="M63.6001 118.8C35.7001 118.8 5.6001 101.3 5.6001 62.9C5.6001 24.5 35.7001 7 63.6001 7C79.1001 7 93.4001 12.1 104 21.4C115.5 31.6 121.6 46 121.6 62.9C121.6 79.8 115.5 94.1 104 104.3C93.4001 113.6 79.0001 118.8 63.6001 118.8Z" fill="url(#paint3_radial_169_13381)" style=""/>
<path d="M63.6001 118.8C35.7001 118.8 5.6001 101.3 5.6001 62.9C5.6001 24.5 35.7001 7 63.6001 7C79.1001 7 93.4001 12.1 104 21.4C115.5 31.6 121.6 46 121.6 62.9C121.6 79.8 115.5 94.1 104 104.3C93.4001 113.6 79.0001 118.8 63.6001 118.8Z" fill="url(#paint4_radial_169_13381)" style=""/>
<path d="M63.6001 118.8C35.7001 118.8 5.6001 101.3 5.6001 62.9C5.6001 24.5 35.7001 7 63.6001 7C79.1001 7 93.4001 12.1 104 21.4C115.5 31.6 121.6 46 121.6 62.9C121.6 79.8 115.5 94.1 104 104.3C93.4001 113.6 79.0001 118.8 63.6001 118.8Z" fill="url(#paint5_radial_169_13381)" style=""/>
<path d="M63.6001 118.8C35.7001 118.8 5.6001 101.3 5.6001 62.9C5.6001 24.5 35.7001 7 63.6001 7C79.1001 7 93.4001 12.1 104 21.4C115.5 31.6 121.6 46 121.6 62.9C121.6 79.8 115.5 94.1 104 104.3C93.4001 113.6 79.0001 118.8 63.6001 118.8Z" fill="url(#paint6_linear_169_13381)" style=""/>
<path d="M44 49.9401C39.81 49.9401 36 53.4801 36 59.3601C36 65.2401 39.81 68.7701 44 68.7701C48.2 68.7701 52 65.2301 52 59.3601C52 53.4901 48.24 49.9401 44 49.9401Z" fill="#49362E" style="fill:#49362E;fill:color(display-p3 0.2863 0.2118 0.1804);fill-opacity:1;"/>
<path d="M44 49.9401C39.81 49.9401 36 53.4801 36 59.3601C36 65.2401 39.81 68.7701 44 68.7701C48.2 68.7701 52 65.2301 52 59.3601C52 53.4901 48.24 49.9401 44 49.9401Z" fill="#1A1717" style="fill:#1A1717;fill:color(display-p3 0.1020 0.0902 0.0902);fill-opacity:1;"/>
<path d="M44 49.9401C39.81 49.9401 36 53.4801 36 59.3601C36 65.2401 39.81 68.7701 44 68.7701C48.2 68.7701 52 65.2301 52 59.3601C52 53.4901 48.24 49.9401 44 49.9401Z" fill="#49362E" style="fill:#49362E;fill:color(display-p3 0.2863 0.2118 0.1804);fill-opacity:1;"/>
<path d="M43.65 53.8701C42.23 53.1901 40.52 53.7901 39.83 55.2101C39.3 56.3201 39.54 57.6501 40.43 58.5101C41.85 59.1901 43.56 58.5901 44.25 57.1701C44.78 56.0601 44.54 54.7301 43.65 53.8701Z" fill="#555050" style="fill:#555050;fill:color(display-p3 0.3333 0.3125 0.3125);fill-opacity:1;"/>
<path d="M43.65 53.8701C42.23 53.1901 40.52 53.7901 39.83 55.2101C39.3 56.3201 39.54 57.6501 40.43 58.5101C41.85 59.1901 43.56 58.5901 44.25 57.1701C44.78 56.0601 44.54 54.7301 43.65 53.8701Z" fill="#6A564E" style="fill:#6A564E;fill:color(display-p3 0.4167 0.3385 0.3056);fill-opacity:1;"/>
<path d="M82.4001 49.9401C78.2101 49.9401 74.4001 53.4801 74.4001 59.3601C74.4001 65.2401 78.2101 68.7701 82.4001 68.7701C86.5901 68.7701 90.4001 65.2301 90.4001 59.3601C90.4001 53.4901 86.5901 49.9401 82.4001 49.9401Z" fill="#49362E" style="fill:#49362E;fill:color(display-p3 0.2863 0.2118 0.1804);fill-opacity:1;"/>
<path d="M82.4001 49.9401C78.2101 49.9401 74.4001 53.4801 74.4001 59.3601C74.4001 65.2401 78.2101 68.7701 82.4001 68.7701C86.5901 68.7701 90.4001 65.2301 90.4001 59.3601C90.4001 53.4901 86.5901 49.9401 82.4001 49.9401Z" fill="#1A1717" style="fill:#1A1717;fill:color(display-p3 0.1020 0.0902 0.0902);fill-opacity:1;"/>
<path d="M82.4001 49.9401C78.2101 49.9401 74.4001 53.4801 74.4001 59.3601C74.4001 65.2401 78.2101 68.7701 82.4001 68.7701C86.5901 68.7701 90.4001 65.2301 90.4001 59.3601C90.4001 53.4901 86.5901 49.9401 82.4001 49.9401Z" fill="#49362E" style="fill:#49362E;fill:color(display-p3 0.2863 0.2118 0.1804);fill-opacity:1;"/>
<path d="M82.0001 53.8701C80.5801 53.1901 78.8701 53.7901 78.1801 55.2101C77.6501 56.3201 77.8901 57.6501 78.7801 58.5101C80.2001 59.1901 81.9101 58.5901 82.6001 57.1701C83.1301 56.0601 82.8901 54.7301 82.0001 53.8701Z" fill="#555050" style="fill:#555050;fill:color(display-p3 0.3333 0.3125 0.3125);fill-opacity:1;"/>
<path d="M82.0001 53.8701C80.5801 53.1901 78.8701 53.7901 78.1801 55.2101C77.6501 56.3201 77.8901 57.6501 78.7801 58.5101C80.2001 59.1901 81.9101 58.5901 82.6001 57.1701C83.1301 56.0601 82.8901 54.7301 82.0001 53.8701Z" fill="#6A564E" style="fill:#6A564E;fill:color(display-p3 0.4167 0.3385 0.3056);fill-opacity:1;"/>
<path d="M52.7 103C49.35 103 46.25 101.26 44.5 98.4C42.82 95.63 42.97 92.11 44.9 89.5C49.2 83.5 55.8 80.3 64 80.3C72.2 80.3 78.8 83.5 83.1 89.5C85.03 92.11 85.18 95.63 83.5 98.4C81.75 101.26 78.65 103 75.3 103C74.25 102.99 73.2 102.82 72.2 102.5C66.87 100.77 61.13 100.77 55.8 102.5C54.8 102.81 53.75 102.98 52.7 103Z" fill="#49362E" style="fill:#49362E;fill:color(display-p3 0.2863 0.2118 0.1804);fill-opacity:1;"/>
<path d="M52.7 103C49.35 103 46.25 101.26 44.5 98.4C42.82 95.63 42.97 92.11 44.9 89.5C49.2 83.5 55.8 80.3 64 80.3C72.2 80.3 78.8 83.5 83.1 89.5C85.03 92.11 85.18 95.63 83.5 98.4C81.75 101.26 78.65 103 75.3 103C74.25 102.99 73.2 102.82 72.2 102.5C66.87 100.77 61.13 100.77 55.8 102.5C54.8 102.81 53.75 102.98 52.7 103Z" fill="#1A1717" style="fill:#1A1717;fill:color(display-p3 0.1020 0.0902 0.0902);fill-opacity:1;"/>
<path d="M52.7 103C49.35 103 46.25 101.26 44.5 98.4C42.82 95.63 42.97 92.11 44.9 89.5C49.2 83.5 55.8 80.3 64 80.3C72.2 80.3 78.8 83.5 83.1 89.5C85.03 92.11 85.18 95.63 83.5 98.4C81.75 101.26 78.65 103 75.3 103C74.25 102.99 73.2 102.82 72.2 102.5C66.87 100.77 61.13 100.77 55.8 102.5C54.8 102.81 53.75 102.98 52.7 103Z" fill="#5D4037" style="fill:#5D4037;fill:color(display-p3 0.3647 0.2510 0.2157);fill-opacity:1;"/>
<path d="M83.4003 31.31H83.3003C82.2903 31.39 81.4003 30.64 81.3103 29.63C81.2303 28.62 81.9803 27.73 82.9903 27.64C84.9203 27.35 86.8903 27.3701 88.8203 27.6901C94.0503 28.4901 98.7803 31.25 102.04 35.42C103.53 37.42 100.9 39.32 99.2503 37.82C94.8503 33.93 89.2703 31.64 83.4003 31.31Z" fill="#49362E" style="fill:#49362E;fill:color(display-p3 0.2863 0.2118 0.1804);fill-opacity:1;"/>
<path d="M44.8502 31.3101H45.0002C46.0202 31.3301 46.8502 30.5201 46.8702 29.5001C46.8902 28.5801 46.2102 27.7801 45.3002 27.6501C43.3702 27.3601 41.4002 27.3801 39.4702 27.7001C34.2302 28.4901 29.5002 31.2601 26.2402 35.4301C24.7602 37.4301 27.3902 39.3301 29.0302 37.8301C33.4302 33.9501 39.0002 31.6501 44.8502 31.3101Z" fill="#49362E" style="fill:#49362E;fill:color(display-p3 0.2863 0.2118 0.1804);fill-opacity:1;"/>
<defs>
<radialGradient id="paint0_radial_169_13381" cx="0" cy="0" r="1" gradientUnits="userSpaceOnUse" gradientTransform="translate(63.6001 62.9) scale(56.9597 56.9597)">
<stop offset="0.5" stop-color="#FDE030" style="stop-color:#FDE030;stop-color:color(display-p3 0.9922 0.8784 0.1882);stop-opacity:1;"/>
<stop offset="0.92" stop-color="#F7C02B" style="stop-color:#F7C02B;stop-color:color(display-p3 0.9686 0.7529 0.1686);stop-opacity:1;"/>
<stop offset="1" stop-color="#F4A223" style="stop-color:#F4A223;stop-color:color(display-p3 0.9569 0.6353 0.1373);stop-opacity:1;"/>
</radialGradient>
<linearGradient id="paint1_linear_169_13381" x1="63.6001" y1="118.8" x2="63.6001" y2="7" gradientUnits="userSpaceOnUse">
<stop offset="0.39" stop-color="#40C0E7" stop-opacity="0" style="stop-color:none;stop-opacity:0;"/>
<stop offset="1" stop-color="#5F7AFF" style="stop-color:#5F7AFF;stop-color:color(display-p3 0.3725 0.4784 1.0000);stop-opacity:1;"/>
</linearGradient>
<radialGradient id="paint2_radial_169_13381" cx="0" cy="0" r="1" gradientUnits="userSpaceOnUse" gradientTransform="translate(38.5991 34.5377) rotate(-43.2082) scale(102.024 101.825)">
<stop offset="0.3533" stop-color="#F9DDBD" style="stop-color:#F9DDBD;stop-color:color(display-p3 0.9765 0.8667 0.7412);stop-opacity:1;"/>
<stop offset="0.8723" stop-color="#FFD29C" style="stop-color:#FFD29C;stop-color:color(display-p3 1.0000 0.8235 0.6118);stop-opacity:1;"/>
</radialGradient>
<radialGradient id="paint3_radial_169_13381" cx="0" cy="0" r="1" gradientUnits="userSpaceOnUse" gradientTransform="translate(38.5991 34.5377) rotate(-43.2082) scale(102.024 101.825)">
<stop offset="0.3533" stop-color="#70534A" style="stop-color:#70534A;stop-color:color(display-p3 0.4392 0.3255 0.2902);stop-opacity:1;"/>
<stop offset="0.8723" stop-color="#5C4037" style="stop-color:#5C4037;stop-color:color(display-p3 0.3608 0.2510 0.2157);stop-opacity:1;"/>
</radialGradient>
<radialGradient id="paint4_radial_169_13381" cx="0" cy="0" r="1" gradientUnits="userSpaceOnUse" gradientTransform="translate(38.5991 34.5377) rotate(-43.2082) scale(102.024 101.825)">
<stop offset="0.3533" stop-color="#A37A58" style="stop-color:#A37A58;stop-color:color(display-p3 0.6375 0.4772 0.3453);stop-opacity:1;"/>
<stop offset="0.8723" stop-color="#8D5738" style="stop-color:#8D5738;stop-color:color(display-p3 0.5529 0.3412 0.2196);stop-opacity:1;"/>
</radialGradient>
<radialGradient id="paint5_radial_169_13381" cx="0" cy="0" r="1" gradientUnits="userSpaceOnUse" gradientTransform="translate(38.5991 34.5377) rotate(-43.2082) scale(102.024 101.825)">
<stop offset="0.3533" stop-color="#AD8264" style="stop-color:#AD8264;stop-color:color(display-p3 0.6784 0.5098 0.3922);stop-opacity:1;"/>
<stop offset="0.8723" stop-color="#A47B62" style="stop-color:#A47B62;stop-color:color(display-p3 0.6431 0.4824 0.3843);stop-opacity:1;"/>
</radialGradient>
<linearGradient id="paint6_linear_169_13381" x1="63.6001" y1="118.8" x2="63.6001" y2="7" gradientUnits="userSpaceOnUse">
<stop offset="0.39" stop-color="#40C0E7" stop-opacity="0" style="stop-color:none;stop-opacity:0;"/>
<stop offset="1" stop-color="#5F7AFF" style="stop-color:#5F7AFF;stop-color:color(display-p3 0.3725 0.4784 1.0000);stop-opacity:1;"/>
</linearGradient>
</defs>
</svg>
