<svg width="128" height="128" viewBox="0 0 128 128" fill="none" xmlns="http://www.w3.org/2000/svg">
<path d="M64 120C94.9279 120 120 94.9279 120 64C120 33.0721 94.9279 8 64 8C33.0721 8 8 33.0721 8 64C8 94.9279 33.0721 120 64 120Z" fill="url(#paint0_linear_21_481)" style=""/>
<path opacity="0.2" d="M64 17C89.92 17 111 38.08 111 64C111 89.92 89.92 111 64 111C38.08 111 17 89.92 17 64C17 38.08 38.08 17 64 17ZM64 14C36.39 14 14 36.39 14 64C14 91.61 36.39 114 64 114C91.61 114 114 91.61 114 64C114 36.39 91.61 14 64 14Z" fill="#424242" style="fill:#424242;fill:color(display-p3 0.2588 0.2588 0.2588);fill-opacity:1;"/>
<path d="M64 4C30.86 4 4 30.86 4 64C4 97.14 30.86 124 64 124C97.14 124 124 97.14 124 64C124 30.86 97.14 4 64 4ZM114 64C114.04 75.53 110.04 86.71 102.7 95.6L32.4 25.3C41.29 17.96 52.47 13.96 64 14C91.61 14 114 36.39 114 64ZM14 64C13.96 52.47 17.96 41.29 25.3 32.4L95.6 102.7C86.71 110.04 75.53 114.04 64 114C36.39 114 14 91.61 14 64Z" fill="#CC3333" style="fill:#CC3333;fill:color(display-p3 0.8000 0.2000 0.2000);fill-opacity:1;"/>
<path d="M60.1 119.2C91.0832 119.2 116.2 94.0832 116.2 63.1C116.2 32.1168 91.0832 7 60.1 7C29.1168 7 4 32.1168 4 63.1C4 94.0832 29.1168 119.2 60.1 119.2Z" fill="#F44336" style="fill:#F44336;fill:color(display-p3 0.9569 0.2627 0.2118);fill-opacity:1;"/>
<path d="M95.5998 102.7C86.7098 110.04 75.5298 114.04 63.9998 114C36.3898 114 13.9998 91.61 13.9998 64C13.9598 52.47 17.9598 41.29 25.2998 32.4L32.3998 25.3C41.2898 17.96 52.4698 13.96 63.9998 14C91.6098 14 114 36.39 114 64C114.04 75.53 110.04 86.71 102.7 95.6" fill="white" style="fill:white;fill-opacity:1;"/>
<path d="M95.5998 102.7C86.7098 110.04 75.5298 114.04 63.9998 114C36.3898 114 13.9998 91.61 13.9998 64C13.9598 52.47 17.9598 41.29 25.2998 32.4L32.3998 25.3C41.2898 17.96 52.4698 13.96 63.9998 14C91.6098 14 114 36.39 114 64C114.04 75.53 110.04 86.71 102.7 95.6" fill="#231F20" style="fill:#231F20;fill:color(display-p3 0.1373 0.1216 0.1255);fill-opacity:1;"/>
<path d="M96.3999 103.2C75.9099 119.94 45.7399 116.9 28.9999 96.41C14.5899 78.78 14.5899 53.44 28.9999 35.8L35.7999 29C44.3299 21.97 55.0499 18.15 66.0999 18.2C92.5499 18.2 114 39.64 114 66.1C114 77.14 110.18 87.85 103.2 96.4" fill="#414042" style="fill:#414042;fill:color(display-p3 0.2549 0.2510 0.2588);fill-opacity:1;"/>
<path opacity="0.8" d="M23.3999 35.6L94.9999 102.1L96.9999 100.2L30.5999 33.4" fill="#231F20" style="fill:#231F20;fill:color(display-p3 0.1373 0.1216 0.1255);fill-opacity:1;"/>
<path d="M103.9 96.8L25.3002 18.9L18.2002 26L96.8002 103.9" fill="#F44336" style="fill:#F44336;fill:color(display-p3 0.9569 0.2627 0.2118);fill-opacity:1;"/>
<path d="M44.9999 10.9C46.6999 10.5 49.1999 9.30003 50.8999 9.80003C51.9899 10.1 52.6499 11.2 52.3999 12.3C52.0299 13.11 51.2799 13.67 50.3999 13.8C46.4999 14.77 42.7199 16.15 39.0999 17.9C31.9199 21.68 25.7199 27.09 20.9999 33.7C19.0999 36.4 17.5999 39.2 15.1999 41.5C14.9899 41.73 14.7099 41.87 14.3999 41.9C14.2299 41.93 14.0499 41.89 13.8999 41.8C12.6999 41.3 12.4999 40.7 12.6999 39.5C12.8799 38.49 13.2199 37.51 13.6999 36.6C14.7099 34.84 15.8099 33.14 16.9999 31.5C18.8899 28.59 21.1099 25.91 23.5999 23.5C30.3999 17.2 39.1999 12.4 44.9999 10.9Z" fill="#FF8A80" style="fill:#FF8A80;fill:color(display-p3 1.0000 0.5412 0.5020);fill-opacity:1;"/>
<path d="M32.3999 25.3L30.3999 27.3L101.5 98.4L103.3 96.2L32.3999 25.3Z" fill="#CC3333" style="fill:#CC3333;fill:color(display-p3 0.8000 0.2000 0.2000);fill-opacity:1;"/>
<path d="M64 4C30.86 4 4 30.86 4 64C4 97.14 30.86 124 64 124C97.14 124 124 97.14 124 64C124 30.86 97.14 4 64 4ZM114 64C114 75.99 109.76 87 102.7 95.62L32.38 25.3C41 18.24 52.01 14 64 14C91.57 14 114 36.43 114 64ZM14 64C14 52.01 18.24 41 25.3 32.38L95.62 102.7C87 109.76 75.99 114 64 114C36.43 114 14 91.57 14 64Z" fill="url(#paint1_linear_21_481)" style=""/>
<path d="M64 4C30.86 4 4 30.86 4 64C4 97.14 30.86 124 64 124C97.14 124 124 97.14 124 64C124 30.86 97.14 4 64 4ZM114 64C114.04 75.53 110.04 86.71 102.7 95.6L32.4 25.3C41.29 17.96 52.47 13.96 64 14C91.61 14 114 36.39 114 64ZM14 64C13.96 52.47 17.96 41.29 25.3 32.4L95.6 102.7C86.71 110.04 75.53 114.04 64 114C36.39 114 14 91.61 14 64Z" fill="#CC3333" style="fill:#CC3333;fill:color(display-p3 0.8000 0.2000 0.2000);fill-opacity:1;"/>
<path d="M60.1 119.2C91.0832 119.2 116.2 94.0832 116.2 63.1C116.2 32.1168 91.0832 7 60.1 7C29.1168 7 4 32.1168 4 63.1C4 94.0832 29.1168 119.2 60.1 119.2Z" fill="#F44336" style="fill:#F44336;fill:color(display-p3 0.9569 0.2627 0.2118);fill-opacity:1;"/>
<path d="M95.5998 102.7C86.7098 110.04 75.5298 114.04 63.9998 114C36.3898 114 13.9998 91.61 13.9998 64C13.9598 52.47 17.9598 41.29 25.2998 32.4L32.3998 25.3C41.2898 17.96 52.4698 13.96 63.9998 14C91.6098 14 114 36.39 114 64C114.04 75.53 110.04 86.71 102.7 95.6" fill="white" style="fill:white;fill-opacity:1;"/>
<path d="M95.5998 102.7C86.7098 110.04 75.5298 114.04 63.9998 114C36.3898 114 13.9998 91.61 13.9998 64C13.9598 52.47 17.9598 41.29 25.2998 32.4L32.3998 25.3C41.2898 17.96 52.4698 13.96 63.9998 14C91.6098 14 114 36.39 114 64C114.04 75.53 110.04 86.71 102.7 95.6" fill="#231F20" style="fill:#231F20;fill:color(display-p3 0.1373 0.1216 0.1255);fill-opacity:1;"/>
<path d="M96.3999 103.2C75.9099 119.94 45.7399 116.9 28.9999 96.41C14.5899 78.78 14.5899 53.44 28.9999 35.8L35.7999 29C44.3299 21.97 55.0499 18.15 66.0999 18.2C92.5499 18.2 114 39.64 114 66.1C114 77.14 110.18 87.85 103.2 96.4" fill="#414042" style="fill:#414042;fill:color(display-p3 0.2549 0.2510 0.2588);fill-opacity:1;"/>
<path d="M99.0601 61.0278C98.7829 68.261 96.9816 74.0253 93.656 78.3208C90.3304 82.6164 85.8963 84.7642 80.3537 84.7642C78.0812 84.7642 76.072 84.2792 74.326 83.3092C72.5801 82.3115 71.2222 80.912 70.2522 79.1107C67.5363 82.7688 63.892 84.5979 59.3194 84.5979C56.6589 84.5979 54.331 83.8219 52.3356 82.27C50.3403 80.6903 48.8715 78.4594 47.9292 75.5772C47.0147 72.6951 46.7376 69.4249 47.0979 65.7668C47.9292 58.8385 50.1602 53.2681 53.7906 49.0557C57.421 44.8433 61.869 42.7371 67.1345 42.7371C71.2083 42.7371 74.714 43.6794 77.6516 45.5639L80.2705 47.3098L78.1505 71.7113C77.6793 75.5634 79.0096 77.4894 82.1412 77.4894C84.4968 77.4894 86.4644 75.9929 88.0441 72.9999C89.6514 69.9792 90.5382 66.127 90.7045 61.4435C91.1757 52.1873 89.2496 45.0373 84.9263 39.9935C80.6308 34.9497 74.326 32.4278 66.0121 32.4278C60.7189 32.4278 56.0076 33.7858 51.8784 36.5017C47.7768 39.1898 44.5205 43.0143 42.1095 47.9749C39.7261 52.9079 38.3821 58.5336 38.0772 64.8522C37.6338 74.5519 39.5737 81.9651 43.897 87.0921C48.2202 92.2467 54.7051 94.824 63.3516 94.824C65.6795 94.824 68.146 94.5469 70.751 93.9926C73.3561 93.4661 75.4761 92.8425 77.1112 92.122L78.6493 99.0226C76.9588 100.131 74.6725 101.018 71.7903 101.683C68.9358 102.376 66.0675 102.722 63.1853 102.722C55.6196 102.722 49.2179 101.267 43.9801 98.3575C38.77 95.4753 34.8902 91.1936 32.3406 85.5124C29.791 79.8312 28.6547 72.9445 28.9319 64.8522C29.2644 57.2034 31.0242 50.3583 34.2112 44.3168C37.426 38.2476 41.8046 33.5641 47.3473 30.2662C52.9176 26.9406 59.1946 25.2778 66.1784 25.2778C73.1621 25.2778 79.1897 26.7328 84.2612 29.6427C89.3327 32.5248 93.1433 36.6818 95.6929 42.1136C98.2425 47.5454 99.3649 53.8501 99.0601 61.0278ZM57.4903 65.7668C57.1854 69.3695 57.4626 72.0992 58.3217 73.956C59.2085 75.7851 60.6219 76.6996 62.5618 76.6996C63.8643 76.6996 65.056 76.1176 66.1368 74.9537C67.2453 73.7897 68.1599 72.1269 68.8804 69.9653L70.5432 51.0095C69.7118 50.7878 68.8527 50.677 67.9659 50.677C64.862 50.677 62.4648 51.8963 60.7743 54.3351C59.1115 56.7461 58.0168 60.5567 57.4903 65.7668Z" fill="white" style="fill:white;fill-opacity:1;"/>
<path opacity="0.8" d="M23.3999 35.6L94.9999 102.1L96.9999 100.2L30.5999 33.4" fill="#231F20" style="fill:#231F20;fill:color(display-p3 0.1373 0.1216 0.1255);fill-opacity:1;"/>
<path d="M103.9 96.8L25.3002 18.9L18.2002 26L96.8002 103.9" fill="#F44336" style="fill:#F44336;fill:color(display-p3 0.9569 0.2627 0.2118);fill-opacity:1;"/>
<path d="M44.9999 10.9C46.6999 10.5 49.1999 9.30003 50.8999 9.80003C51.9899 10.1 52.6499 11.2 52.3999 12.3C52.0299 13.11 51.2799 13.67 50.3999 13.8C46.4999 14.77 42.7199 16.15 39.0999 17.9C31.9199 21.68 25.7199 27.09 20.9999 33.7C19.0999 36.4 17.5999 39.2 15.1999 41.5C14.9899 41.73 14.7099 41.87 14.3999 41.9C14.2299 41.93 14.0499 41.89 13.8999 41.8C12.6999 41.3 12.4999 40.7 12.6999 39.5C12.8799 38.49 13.2199 37.51 13.6999 36.6C14.7099 34.84 15.8099 33.14 16.9999 31.5C18.8899 28.59 21.1099 25.91 23.5999 23.5C30.3999 17.2 39.1999 12.4 44.9999 10.9Z" fill="#FF8A80" style="fill:#FF8A80;fill:color(display-p3 1.0000 0.5412 0.5020);fill-opacity:1;"/>
<path d="M32.3999 25.3L30.3999 27.3L101.5 98.4L103.3 96.2L32.3999 25.3Z" fill="#CC3333" style="fill:#CC3333;fill:color(display-p3 0.8000 0.2000 0.2000);fill-opacity:1;"/>
<path d="M44.3676 11.2199C46.0676 10.8199 48.5676 9.61991 50.2676 10.1199C51.3576 10.4199 52.0176 11.5199 51.7676 12.6199C51.3976 13.4299 50.6476 13.9899 49.7676 14.1199C45.8676 15.0899 42.0876 16.4699 38.4676 18.2199C31.2876 21.9999 25.0876 27.4099 20.3676 34.0199C18.4676 36.7199 16.9676 39.5199 14.5676 41.8199C14.3576 42.0499 14.0776 42.1899 13.7676 42.2199C13.5976 42.2499 13.4176 42.2099 13.2676 42.1199C12.0676 41.6199 11.8676 41.0199 12.0676 39.8199C12.2476 38.8099 12.5876 37.8299 13.0676 36.9199C14.0776 35.1599 15.1776 33.4599 16.3676 31.8199C18.2576 28.9099 20.4776 26.2299 22.9676 23.8199C29.7676 17.5199 38.5676 12.7199 44.3676 11.2199Z" fill="#FF8A80" style="fill:#FF8A80;fill:color(display-p3 1.0000 0.5412 0.5020);fill-opacity:1;"/>
<defs>
<linearGradient id="paint0_linear_21_481" x1="64" y1="8.25" x2="64" y2="120.13" gradientUnits="userSpaceOnUse">
<stop stop-color="#616161" style="stop-color:#616161;stop-color:color(display-p3 0.3804 0.3804 0.3804);stop-opacity:1;"/>
<stop offset="0.3054" stop-color="#515151" style="stop-color:#515151;stop-color:color(display-p3 0.3176 0.3176 0.3176);stop-opacity:1;"/>
<stop offset="0.8963" stop-color="#292929" style="stop-color:#292929;stop-color:color(display-p3 0.1608 0.1608 0.1608);stop-opacity:1;"/>
<stop offset="1" stop-color="#212121" style="stop-color:#212121;stop-color:color(display-p3 0.1294 0.1294 0.1294);stop-opacity:1;"/>
</linearGradient>
<linearGradient id="paint1_linear_21_481" x1="64" y1="4" x2="64" y2="124.13" gradientUnits="userSpaceOnUse">
<stop stop-color="#FF5252" style="stop-color:#FF5252;stop-color:color(display-p3 1.0000 0.3216 0.3216);stop-opacity:1;"/>
<stop offset="0.324" stop-color="#F33B3B" style="stop-color:#F33B3B;stop-color:color(display-p3 0.9529 0.2314 0.2314);stop-opacity:1;"/>
<stop offset="1" stop-color="#D50000" style="stop-color:#D50000;stop-color:color(display-p3 0.8353 0.0000 0.0000);stop-opacity:1;"/>
</linearGradient>
</defs>
</svg>
