<svg width="128" height="128" viewBox="0 0 128 128" fill="none" xmlns="http://www.w3.org/2000/svg">
<g clip-path="url(#clip0_2452_98)">
<path d="M95.6356 88.6741C98.8529 90.9135 103.941 89.1661 107 84.7714C110.058 80.3766 109.93 74.9986 106.713 72.7593C103.495 70.5199 98.4073 72.2673 95.3485 76.662C92.2897 81.0568 92.4182 86.4348 95.6356 88.6741Z" fill="#575757" style="fill:#575757;fill:color(display-p3 0.3412 0.3412 0.3412);fill-opacity:1;"/>
<path d="M44.773 34.6923C48.9082 34.2109 51.7505 29.4411 51.1217 24.0385C50.4928 18.636 46.6308 14.6466 42.4956 15.1279C38.3605 15.6093 35.5181 20.3791 36.147 25.7817C36.7759 31.1842 40.6379 35.1736 44.773 34.6923Z" fill="#575757" style="fill:#575757;fill:color(display-p3 0.3412 0.3412 0.3412);fill-opacity:1;"/>
<path d="M68.5788 30.3965C68.9094 25.2168 65.8095 20.8028 61.6549 20.5376C57.5003 20.2724 53.8643 24.2564 53.5337 29.4362C53.2031 34.6159 56.303 39.0299 60.4576 39.2951C64.6122 39.5603 68.2482 35.5762 68.5788 30.3965Z" fill="#575757" style="fill:#575757;fill:color(display-p3 0.3412 0.3412 0.3412);fill-opacity:1;"/>
<path d="M28.929 39.2616C32.9889 38.0624 34.9467 32.5759 33.3018 27.0072C31.657 21.4384 27.0324 17.8961 22.9725 19.0953C18.9125 20.2945 16.9547 25.781 18.5996 31.3497C20.2444 36.9185 24.8691 40.4608 28.929 39.2616Z" fill="#575757" style="fill:#575757;fill:color(display-p3 0.3412 0.3412 0.3412);fill-opacity:1;"/>
<path d="M84.0992 90.2005C100.221 93.5788 105.179 112.935 97.8579 118.054C90.0086 123.532 86.6294 113.953 80.0555 111.433C76.0169 109.884 65.8649 112.096 63.8192 103.564C62.0374 96.1208 73.5815 87.9931 84.0992 90.2005Z" fill="#575757" style="fill:#575757;fill:color(display-p3 0.3412 0.3412 0.3412);fill-opacity:1;"/>
<path d="M37.347 40.9027C47.7477 37.5433 62.9285 44.9165 61.7731 54.3649C60.6847 63.2605 48.2315 60.107 43.37 62.2334C37.0346 65.0016 29.3203 72.5439 24.3086 65.7169C18.6588 58.004 28.2179 43.8573 37.347 40.9027Z" fill="#575757" style="fill:#575757;fill:color(display-p3 0.3412 0.3412 0.3412);fill-opacity:1;"/>
<path d="M18.0325 50.9466C21.5198 48.663 21.9578 43.1635 19.0108 38.663C16.0638 34.1625 10.8478 32.3654 7.36046 34.6489C3.87316 36.9325 3.43517 42.432 6.38218 46.9325C9.32919 51.433 14.5452 53.2301 18.0325 50.9466Z" fill="#575757" style="fill:#575757;fill:color(display-p3 0.3412 0.3412 0.3412);fill-opacity:1;"/>
<path d="M82.1475 84.4916C86.2785 85.2982 90.4592 81.692 91.4854 76.4367C92.5117 71.1815 89.9948 66.2673 85.8638 65.4606C81.7328 64.6539 77.5521 68.2602 76.5259 73.5155C75.4997 78.7707 78.0166 83.6849 82.1475 84.4916Z" fill="#575757" style="fill:#575757;fill:color(display-p3 0.3412 0.3412 0.3412);fill-opacity:1;"/>
<path d="M65.1968 87.9375C69.0974 88.3267 72.6905 84.3229 73.2221 78.9948C73.7537 73.6666 71.0225 69.0318 67.1219 68.6427C63.2212 68.2535 59.6281 72.2573 59.0965 77.5854C58.5649 82.9135 61.2961 87.5483 65.1968 87.9375Z" fill="#575757" style="fill:#575757;fill:color(display-p3 0.3412 0.3412 0.3412);fill-opacity:1;"/>
<path d="M106.865 101.7C109.961 104.078 114.926 102.809 117.954 98.867C120.981 94.9245 120.926 89.8007 117.829 87.4226C114.733 85.0445 109.768 86.3127 106.74 90.2552C103.712 94.1976 103.768 99.3215 106.865 101.7Z" fill="#575757" style="fill:#575757;fill:color(display-p3 0.3412 0.3412 0.3412);fill-opacity:1;"/>
</g>
<defs>
<clipPath id="clip0_2452_98">
<rect width="128" height="128" fill="white" style="fill:white;fill-opacity:1;"/>
</clipPath>
</defs>
</svg>
