<svg width="128" height="128" viewBox="0 0 128 128" fill="none" xmlns="http://www.w3.org/2000/svg">
<path d="M63.6001 118.8C35.7001 118.8 5.6001 101.3 5.6001 62.9C5.6001 24.5 35.7001 7 63.6001 7C79.1001 7 93.4001 12.1 104 21.4C115.5 31.6 121.6 46 121.6 62.9C121.6 79.8 115.5 94.1 104 104.3C93.4001 113.6 79.0001 118.8 63.6001 118.8Z" fill="url(#paint0_radial_2354_161)" style=""/>
<path d="M111.49 29.6699C116.82 38.2699 119.6 48.5099 119.6 59.8999C119.6 76.7999 113.5 91.0999 102 101.3C91.4002 110.6 77.0002 115.8 61.6002 115.8C43.5402 115.8 24.6002 108.45 13.4202 92.8599C24.1802 110.52 44.4202 118.8 63.6002 118.8C79.0002 118.8 93.4002 113.6 104 104.3C115.5 94.0999 121.6 79.7999 121.6 62.8999C121.6 50.1599 118.13 38.8399 111.49 29.6699Z" fill="#EB8F00" style="fill:#EB8F00;fill:color(display-p3 0.9216 0.5608 0.0000);fill-opacity:1;"/>
<path d="M74 92.5821C74 98.3817 69.2996 103.082 63.5 103.082C57.7004 103.082 53 98.3817 53 92.5821C53 86.7825 57.7004 82.0821 63.5 82.0821C69.2832 82.0657 73.9836 86.7332 74 92.5164C74 92.541 74 92.5574 74 92.5821Z" fill="#422B0D" style="fill:#422B0D;fill:color(display-p3 0.2588 0.1686 0.0510);fill-opacity:1;"/>
<path d="M35.9001 55.7819C36.2401 55.7919 36.5701 55.8219 36.9001 55.8819C37.0701 55.8619 37.2501 55.9019 37.4001 55.9819H38.8C39.2 56.0019 39.6101 55.9619 40.0001 55.8819C40.4001 55.8819 40.8 55.6819 41.3 55.6819C41.72 55.6119 42.1201 55.4719 42.5001 55.2819C43.3101 55.0419 44.0601 54.6319 44.7001 54.0819C45.0201 53.8419 45.33 53.5719 45.6 53.2819C45.8 52.9819 46.1 52.6819 46.3 52.3819L46.9001 51.4819C47.0701 51.2019 47.21 50.9019 47.3 50.5819C47.4001 50.2819 47.5 50.0819 47.6 49.7819C47.69 49.5219 47.8301 49.2919 48.0001 49.0819L48.4001 48.2819C49.2601 46.4119 51.4601 45.5919 53.3301 46.4519C53.3501 46.4619 53.3801 46.4719 53.4001 46.4819C54.5801 47.0619 55.4 48.1819 55.6 49.4819C55.6101 49.9119 55.6401 50.3519 55.7001 50.7819V52.2819C55.6401 52.9519 55.5401 53.6219 55.4001 54.2819C55.2101 55.0719 54.9401 55.8419 54.6 56.5819C54.0401 57.9519 53.2201 59.2119 52.2001 60.2819L51.7001 60.8819L51.0001 61.2819C50.1801 61.9719 49.3101 62.6019 48.4001 63.1819C47.4701 63.6619 46.5001 64.0719 45.5001 64.3819L44.8 64.5819L44.1 64.6819C43.64 64.7919 43.1701 64.8619 42.7001 64.8819C41.8001 64.9819 40.9001 64.9819 40.0001 64.8819C39.2301 64.8419 38.4601 64.7419 37.7001 64.5819C37.0201 64.4419 36.3501 64.2419 35.7001 63.9819C35.4301 63.9019 35.1601 63.8019 34.9001 63.6819C34.7001 63.5819 34.6001 63.4819 34.4001 63.3819C34.0901 63.2319 33.7901 63.0619 33.5001 62.8819C31.7101 61.7419 31.18 59.3819 32.3 57.5819C33.09 56.3819 34.4601 55.6919 35.9001 55.7819Z" fill="#422B0D" style="fill:#422B0D;fill:color(display-p3 0.2588 0.1686 0.0510);fill-opacity:1;"/>
<path d="M36.7201 38.5621C34.6501 39.4221 35.2401 42.562 37.6101 42.1521C42.8001 41.0821 47.3801 38.0721 50.4001 33.7221C51.5701 32.1521 52.4701 30.4021 53.0601 28.5421C53.4501 27.6121 53.0101 26.5321 52.0701 26.1421C51.1301 25.7521 50.0601 26.1921 49.6701 27.1321L49.5901 27.2521C46.7101 32.3721 42.1701 36.3521 36.7201 38.5621Z" fill="#422B0D" style="fill:#422B0D;fill:color(display-p3 0.2588 0.1686 0.0510);fill-opacity:1;"/>
<path d="M92.06 55.7819C91.72 55.7919 91.39 55.8219 91.06 55.8819C90.89 55.8619 90.71 55.9019 90.56 55.9819H89.16C88.76 56.0019 88.35 55.9619 87.96 55.8819C87.56 55.8819 87.16 55.6819 86.66 55.6819C86.24 55.6119 85.84 55.4719 85.46 55.2819C84.65 55.0419 83.9 54.6319 83.26 54.0819C82.94 53.8419 82.63 53.5719 82.36 53.2819C82.16 52.9819 81.86 52.6819 81.66 52.3819L81.06 51.4819C80.89 51.2019 80.75 50.9019 80.66 50.5819C80.56 50.2819 80.46 50.0819 80.36 49.7819C80.28 49.5319 80.16 49.2919 80 49.0819L79.6 48.2819C78.74 46.4119 76.54 45.5919 74.67 46.4519C74.65 46.4619 74.62 46.4719 74.6 46.4819C73.42 47.0619 72.6 48.1819 72.4 49.4819C72.39 49.9119 72.36 50.3519 72.3 50.7819V52.2819C72.36 52.9519 72.46 53.6219 72.6 54.2819C72.79 55.0719 73.06 55.8419 73.4 56.5819C73.96 57.9519 74.78 59.2119 75.8 60.2819L76.3 60.8819L77 61.2819C77.82 61.9719 78.69 62.6019 79.6 63.1819C80.53 63.6619 81.5 64.0719 82.5 64.3819L83.2 64.5819L83.9 64.6819C84.36 64.7919 84.83 64.8619 85.3 64.8819C86.2 64.9819 87.1 64.9819 88 64.8819C88.77 64.8419 89.54 64.7419 90.3 64.5819C90.98 64.4419 91.65 64.2419 92.3 63.9819C92.57 63.9019 92.84 63.8019 93.1 63.6819C93.3 63.5819 93.4 63.4819 93.6 63.3819C93.91 63.2319 94.21 63.0619 94.5 62.8819C96.29 61.7419 96.82 59.3819 95.7 57.5819C94.9 56.3619 93.51 55.6719 92.06 55.7819Z" fill="#422B0D" style="fill:#422B0D;fill:color(display-p3 0.2588 0.1686 0.0510);fill-opacity:1;"/>
<path d="M91.2401 38.5619C93.3101 39.4219 92.7201 42.5619 90.3501 42.1519C85.1601 41.0819 80.5801 38.0719 77.5601 33.7219C76.3901 32.1619 75.4901 30.4019 74.9101 28.5419C74.5801 27.5919 75.0801 26.5419 76.0401 26.2119C76.9101 25.9119 77.8701 26.3019 78.2801 27.1319L78.3601 27.2519C81.2501 32.3719 85.7901 36.3519 91.2401 38.5619Z" fill="#422B0D" style="fill:#422B0D;fill:color(display-p3 0.2588 0.1686 0.0510);fill-opacity:1;"/>
<path d="M77.946 93.9855C79.976 94.2855 82.006 94.5255 84.046 94.7255C86.696 94.9755 89.506 95.1155 91.886 93.9155C92.996 93.3555 93.956 92.5256 95.056 91.9656C97.796 90.5656 101.206 90.9455 103.936 92.3755C106.306 93.6055 108.326 95.6756 109.046 98.2456C109.766 100.816 108.966 103.866 106.786 105.406C103.016 108.066 105.236 108.776 104.216 112.486C103.126 116.486 98.596 119.516 94.556 118.356C93.106 117.936 91.886 116.706 90.446 116.426C88.876 116.116 87.256 116.996 85.686 116.986C82.386 116.966 80.066 113.476 79.726 110.186C79.556 108.586 79.696 106.966 79.426 105.386C78.576 100.486 74.116 97.2156 70.486 93.8256C68.756 92.2056 72.156 93.0055 72.746 93.1255C74.476 93.4555 76.216 93.7355 77.946 93.9855Z" fill="white" style="fill:white;fill-opacity:1;"/>
<path d="M109.046 98.2355C108.326 95.6655 106.296 93.5955 103.936 92.3655C101.206 90.9455 97.7956 90.5555 95.0556 91.9555C94.9256 92.0255 94.7956 92.1055 94.6656 92.1855C95.8156 92.0355 96.9656 91.8955 98.1556 92.0055C99.8856 92.1555 101.626 92.7455 102.906 93.9255C103.406 94.3855 103.826 94.9355 104.186 95.5155C105.116 97.0155 105.636 98.8655 105.206 100.576C104.866 101.916 103.686 103.416 102.236 103.636C100.636 103.876 99.1956 102.396 97.5256 102.606C96.8056 102.696 96.0356 103.456 96.4356 104.066C96.6756 104.426 97.1756 104.476 97.6056 104.556C98.9756 104.806 100.196 105.776 100.756 107.056C101.036 107.686 101.156 108.376 101.156 109.066C101.166 111.646 99.3856 114.146 96.9456 114.976C95.3656 115.506 93.5756 115.326 92.1056 114.566C91.4056 114.206 91.0056 113.496 90.3056 113.156C89.6156 112.826 88.6156 112.776 87.8656 112.816C87.0556 112.856 86.2556 112.996 85.4456 112.936C83.5256 112.786 82.1256 111.476 81.3256 109.816C80.4156 107.916 80.7656 106.096 80.5056 104.056C80.2856 102.296 79.4256 100.656 78.3156 99.2655C77.2556 97.9355 75.9656 96.7455 74.6556 95.6655C73.9756 95.1055 73.1956 94.6855 72.4356 94.2255C72.1556 94.0555 70.4256 92.7755 70.1956 92.8855C69.9356 93.0055 69.9456 93.2755 70.5156 93.8055C74.1456 97.1955 78.6056 100.466 79.4556 105.366C79.7356 106.946 79.5956 108.576 79.7556 110.166C80.1056 113.456 82.4156 116.946 85.7156 116.966C87.2856 116.976 88.9056 116.096 90.4756 116.406C91.9156 116.686 93.1356 117.916 94.5856 118.336C98.6156 119.506 103.146 116.466 104.246 112.466C105.266 108.756 103.036 108.046 106.816 105.386C108.966 103.856 109.766 100.806 109.046 98.2355Z" fill="#92CBEB" style="fill:#92CBEB;fill:color(display-p3 0.5725 0.7961 0.9216);fill-opacity:1;"/>
<defs>
<radialGradient id="paint0_radial_2354_161" cx="0" cy="0" r="1" gradientUnits="userSpaceOnUse" gradientTransform="translate(63.6001 62.9) scale(56.9597 56.9597)">
<stop offset="0.5" stop-color="#FDE030" style="stop-color:#FDE030;stop-color:color(display-p3 0.9922 0.8784 0.1882);stop-opacity:1;"/>
<stop offset="0.92" stop-color="#F7C02B" style="stop-color:#F7C02B;stop-color:color(display-p3 0.9686 0.7529 0.1686);stop-opacity:1;"/>
<stop offset="1" stop-color="#F4A223" style="stop-color:#F4A223;stop-color:color(display-p3 0.9569 0.6353 0.1373);stop-opacity:1;"/>
</radialGradient>
</defs>
</svg>
