<svg width="128" height="128" viewBox="0 0 128 128" fill="none" xmlns="http://www.w3.org/2000/svg">
<g opacity="0.2">
<path d="M99.73 7.09009C102.49 7.09009 104.73 9.33009 104.73 12.0901V116.09C104.73 118.85 102.49 121.09 99.73 121.09H27.73C24.97 121.09 22.73 118.85 22.73 116.09V12.0901C22.73 9.33009 24.97 7.09009 27.73 7.09009H99.73ZM99.73 4.09009H27.73C23.31 4.09009 19.73 7.67009 19.73 12.0901V116.09C19.73 120.51 23.31 124.09 27.73 124.09H99.73C104.15 124.09 107.73 120.51 107.73 116.09V12.0901C107.73 7.67009 104.15 4.09009 99.73 4.09009Z" fill="#212121" style="fill:#212121;fill:color(display-p3 0.1294 0.1294 0.1294);fill-opacity:1;"/>
<path d="M99.73 7.09009C102.49 7.09009 104.73 9.33009 104.73 12.0901V116.09C104.73 118.85 102.49 121.09 99.73 121.09H27.73C24.97 121.09 22.73 118.85 22.73 116.09V12.0901C22.73 9.33009 24.97 7.09009 27.73 7.09009H99.73ZM99.73 4.09009H27.73C23.31 4.09009 19.73 7.67009 19.73 12.0901V116.09C19.73 120.51 23.31 124.09 27.73 124.09H99.73C104.15 124.09 107.73 120.51 107.73 116.09V12.0901C107.73 7.67009 104.15 4.09009 99.73 4.09009Z" fill="#212121" style="fill:#212121;fill:color(display-p3 0.1294 0.1294 0.1294);fill-opacity:1;"/>
<path d="M99.73 7.09009C102.49 7.09009 104.73 9.33009 104.73 12.0901V116.09C104.73 118.85 102.49 121.09 99.73 121.09H27.73C24.97 121.09 22.73 118.85 22.73 116.09V12.0901C22.73 9.33009 24.97 7.09009 27.73 7.09009H99.73ZM99.73 4.09009H27.73C23.31 4.09009 19.73 7.67009 19.73 12.0901V116.09C19.73 120.51 23.31 124.09 27.73 124.09H99.73C104.15 124.09 107.73 120.51 107.73 116.09V12.0901C107.73 7.67009 104.15 4.09009 99.73 4.09009Z" fill="#212121" style="fill:#212121;fill:color(display-p3 0.1294 0.1294 0.1294);fill-opacity:1;"/>
</g>
<path d="M102.29 125.43L26.2695 125.06C22.8195 125.06 20.0195 122.26 20.0195 118.81L32.2195 26.6801L102.41 4.5001C108.54 4.1701 108.89 7.0301 108.89 10.4801L108.52 119.17C108.54 122.64 105.74 125.43 102.29 125.43Z" fill="#D9CDC9" style="fill:#D9CDC9;fill:color(display-p3 0.8510 0.8039 0.7882);fill-opacity:1;"/>
<path d="M101.83 122.06C101.83 122.06 44.0696 123.04 25.3596 121.98C21.7796 121.78 20.0296 120.36 20.0196 118.82L19.8496 10.3301C19.8496 6.88008 22.6496 4.08008 26.0996 4.08008L101.74 4.40008C105.19 4.40008 106.5 7.26008 106.5 10.7101L105.93 116.11C105.91 119.56 105.28 122.06 101.83 122.06Z" fill="#F1EDEC" style="fill:#F1EDEC;fill:color(display-p3 0.9451 0.9294 0.9255);fill-opacity:1;"/>
<path d="M65.2668 97.4444C66.0334 96.3333 67.9501 94.6667 69.8668 94.6667C73.3168 94.6667 74.8501 96.8889 74.8501 99.6667C74.8501 102.444 73.3168 104.944 69.8668 104.944C67.9501 104.944 66.8001 103.556 65.6501 102.722C65.2668 102.444 64.8834 102.722 65.2668 103C66.4168 103.833 68.3334 106.056 68.3334 108C68.3334 110.222 66.4168 113 63.3501 113C60.2834 113 58.3668 110.222 58.3668 108C58.3668 106.056 60.2834 103.833 61.4334 103C61.8168 102.722 61.4334 102.444 61.0501 102.722C59.9001 103.556 58.7501 104.944 56.8334 104.944C53.3834 104.944 51.8501 102.444 51.8501 99.6667C51.8501 96.8889 53.3834 94.6667 56.8334 94.6667C58.7501 94.6667 60.6668 96.3333 61.4334 97.4444C61.8168 97.7222 61.8168 97.4444 61.8168 97.1667C61.4334 94.9444 61.4334 94.3889 61.0501 92.7222C60.6668 91.0556 59.5168 88 59.5168 88C61.4334 88.5556 65.2668 88.5556 67.1834 88C67.1834 88 66.0334 91.0556 65.6501 92.7222C65.2668 94.3889 65.2668 94.9444 64.8834 97.1667C64.8834 97.4444 64.8834 97.7222 65.2668 97.4444Z" fill="#212121" style="fill:#212121;fill:color(display-p3 0.1294 0.1294 0.1294);fill-opacity:1;"/>
<path d="M65.2668 97.4444C66.0334 96.3333 67.9501 94.6667 69.8668 94.6667C73.3168 94.6667 74.8501 96.8889 74.8501 99.6667C74.8501 102.444 73.3168 104.944 69.8668 104.944C67.9501 104.944 66.8001 103.556 65.6501 102.722C65.2668 102.444 64.8834 102.722 65.2668 103C66.4168 103.833 68.3334 106.056 68.3334 108C68.3334 110.222 66.4168 113 63.3501 113C60.2834 113 58.3668 110.222 58.3668 108C58.3668 106.056 60.2834 103.833 61.4334 103C61.8168 102.722 61.4334 102.444 61.0501 102.722C59.9001 103.556 58.7501 104.944 56.8334 104.944C53.3834 104.944 51.8501 102.444 51.8501 99.6667C51.8501 96.8889 53.3834 94.6667 56.8334 94.6667C58.7501 94.6667 60.6668 96.3333 61.4334 97.4444C61.8168 97.7222 61.8168 97.4444 61.8168 97.1667C61.4334 94.9444 61.4334 94.3889 61.0501 92.7222C60.6668 91.0556 59.5168 88 59.5168 88C61.4334 88.5556 65.2668 88.5556 67.1834 88C67.1834 88 66.0334 91.0556 65.6501 92.7222C65.2668 94.3889 65.2668 94.9444 64.8834 97.1667C64.8834 97.4444 64.8834 97.7222 65.2668 97.4444Z" fill="#212121" style="fill:#212121;fill:color(display-p3 0.1294 0.1294 0.1294);fill-opacity:1;"/>
<path d="M65.2668 97.4444C66.0334 96.3333 67.9501 94.6667 69.8668 94.6667C73.3168 94.6667 74.8501 96.8889 74.8501 99.6667C74.8501 102.444 73.3168 104.944 69.8668 104.944C67.9501 104.944 66.8001 103.556 65.6501 102.722C65.2668 102.444 64.8834 102.722 65.2668 103C66.4168 103.833 68.3334 106.056 68.3334 108C68.3334 110.222 66.4168 113 63.3501 113C60.2834 113 58.3668 110.222 58.3668 108C58.3668 106.056 60.2834 103.833 61.4334 103C61.8168 102.722 61.4334 102.444 61.0501 102.722C59.9001 103.556 58.7501 104.944 56.8334 104.944C53.3834 104.944 51.8501 102.444 51.8501 99.6667C51.8501 96.8889 53.3834 94.6667 56.8334 94.6667C58.7501 94.6667 60.6668 96.3333 61.4334 97.4444C61.8168 97.7222 61.8168 97.4444 61.8168 97.1667C61.4334 94.9444 61.4334 94.3889 61.0501 92.7222C60.6668 91.0556 59.5168 88 59.5168 88C61.4334 88.5556 65.2668 88.5556 67.1834 88C67.1834 88 66.0334 91.0556 65.6501 92.7222C65.2668 94.3889 65.2668 94.9444 64.8834 97.1667C64.8834 97.4444 64.8834 97.7222 65.2668 97.4444Z" fill="#212121" style="fill:#212121;fill:color(display-p3 0.1294 0.1294 0.1294);fill-opacity:1;"/>
<path d="M65.2668 32.5556C66.0334 33.6667 67.9501 35.3333 69.8668 35.3333C73.3168 35.3333 74.8501 33.1111 74.8501 30.3333C74.8501 27.5556 73.3168 25.0556 69.8668 25.0556C67.9501 25.0556 66.8001 26.4444 65.6501 27.2778C65.2668 27.5556 64.8834 27.2778 65.2668 27C66.4168 26.1667 68.3334 23.9444 68.3334 22C68.3334 19.7778 66.4168 17 63.3501 17C60.2834 17 58.3668 19.7778 58.3668 22C58.3668 23.9444 60.2834 26.1667 61.4334 27C61.8168 27.2778 61.4334 27.5556 61.0501 27.2778C59.9001 26.4444 58.7501 25.0556 56.8334 25.0556C53.3834 25.0556 51.8501 27.5556 51.8501 30.3333C51.8501 33.1111 53.3834 35.3333 56.8334 35.3333C58.7501 35.3333 60.6668 33.6667 61.4334 32.5556C61.8168 32.2778 61.8168 32.5556 61.8168 32.8333C61.4334 35.0556 61.4334 35.6111 61.0501 37.2778C60.6668 38.9444 59.5168 42 59.5168 42C61.4334 41.4444 65.2668 41.4444 67.1834 42C67.1834 42 66.0334 38.9444 65.6501 37.2778C65.2668 35.6111 65.2668 35.0556 64.8834 32.8333C64.8834 32.5556 64.8834 32.2778 65.2668 32.5556Z" fill="#212121" style="fill:#212121;fill:color(display-p3 0.1294 0.1294 0.1294);fill-opacity:1;"/>
<path d="M65.2668 32.5556C66.0334 33.6667 67.9501 35.3333 69.8668 35.3333C73.3168 35.3333 74.8501 33.1111 74.8501 30.3333C74.8501 27.5556 73.3168 25.0556 69.8668 25.0556C67.9501 25.0556 66.8001 26.4444 65.6501 27.2778C65.2668 27.5556 64.8834 27.2778 65.2668 27C66.4168 26.1667 68.3334 23.9444 68.3334 22C68.3334 19.7778 66.4168 17 63.3501 17C60.2834 17 58.3668 19.7778 58.3668 22C58.3668 23.9444 60.2834 26.1667 61.4334 27C61.8168 27.2778 61.4334 27.5556 61.0501 27.2778C59.9001 26.4444 58.7501 25.0556 56.8334 25.0556C53.3834 25.0556 51.8501 27.5556 51.8501 30.3333C51.8501 33.1111 53.3834 35.3333 56.8334 35.3333C58.7501 35.3333 60.6668 33.6667 61.4334 32.5556C61.8168 32.2778 61.8168 32.5556 61.8168 32.8333C61.4334 35.0556 61.4334 35.6111 61.0501 37.2778C60.6668 38.9444 59.5168 42 59.5168 42C61.4334 41.4444 65.2668 41.4444 67.1834 42C67.1834 42 66.0334 38.9444 65.6501 37.2778C65.2668 35.6111 65.2668 35.0556 64.8834 32.8333C64.8834 32.5556 64.8834 32.2778 65.2668 32.5556Z" fill="#212121" style="fill:#212121;fill:color(display-p3 0.1294 0.1294 0.1294);fill-opacity:1;"/>
<path d="M65.2668 32.5556C66.0334 33.6667 67.9501 35.3333 69.8668 35.3333C73.3168 35.3333 74.8501 33.1111 74.8501 30.3333C74.8501 27.5556 73.3168 25.0556 69.8668 25.0556C67.9501 25.0556 66.8001 26.4444 65.6501 27.2778C65.2668 27.5556 64.8834 27.2778 65.2668 27C66.4168 26.1667 68.3334 23.9444 68.3334 22C68.3334 19.7778 66.4168 17 63.3501 17C60.2834 17 58.3668 19.7778 58.3668 22C58.3668 23.9444 60.2834 26.1667 61.4334 27C61.8168 27.2778 61.4334 27.5556 61.0501 27.2778C59.9001 26.4444 58.7501 25.0556 56.8334 25.0556C53.3834 25.0556 51.8501 27.5556 51.8501 30.3333C51.8501 33.1111 53.3834 35.3333 56.8334 35.3333C58.7501 35.3333 60.6668 33.6667 61.4334 32.5556C61.8168 32.2778 61.8168 32.5556 61.8168 32.8333C61.4334 35.0556 61.4334 35.6111 61.0501 37.2778C60.6668 38.9444 59.5168 42 59.5168 42C61.4334 41.4444 65.2668 41.4444 67.1834 42C67.1834 42 66.0334 38.9444 65.6501 37.2778C65.2668 35.6111 65.2668 35.0556 64.8834 32.8333C64.8834 32.5556 64.8834 32.2778 65.2668 32.5556Z" fill="#212121" style="fill:#212121;fill:color(display-p3 0.1294 0.1294 0.1294);fill-opacity:1;"/>
<path d="M65.2668 65.5556C66.0334 66.6667 67.9501 68.3333 69.8668 68.3333C73.3168 68.3333 74.8501 66.1111 74.8501 63.3333C74.8501 60.5556 73.3168 58.0556 69.8668 58.0556C67.9501 58.0556 66.8001 59.4444 65.6501 60.2778C65.2668 60.5556 64.8834 60.2778 65.2668 60C66.4168 59.1667 68.3334 56.9444 68.3334 55C68.3334 52.7778 66.4168 50 63.3501 50C60.2834 50 58.3668 52.7778 58.3668 55C58.3668 56.9444 60.2834 59.1667 61.4334 60C61.8168 60.2778 61.4334 60.5556 61.0501 60.2778C59.9001 59.4444 58.7501 58.0556 56.8334 58.0556C53.3834 58.0556 51.8501 60.5556 51.8501 63.3333C51.8501 66.1111 53.3834 68.3333 56.8334 68.3333C58.7501 68.3333 60.6668 66.6667 61.4334 65.5556C61.8168 65.2778 61.8168 65.5556 61.8168 65.8333C61.4334 68.0556 61.4334 68.6111 61.0501 70.2778C60.6668 71.9444 59.5168 75 59.5168 75C61.4334 74.4444 65.2668 74.4444 67.1834 75C67.1834 75 66.0334 71.9444 65.6501 70.2778C65.2668 68.6111 65.2668 68.0556 64.8834 65.8333C64.8834 65.5556 64.8834 65.2778 65.2668 65.5556Z" fill="#212121" style="fill:#212121;fill:color(display-p3 0.1294 0.1294 0.1294);fill-opacity:1;"/>
<path d="M65.2668 65.5556C66.0334 66.6667 67.9501 68.3333 69.8668 68.3333C73.3168 68.3333 74.8501 66.1111 74.8501 63.3333C74.8501 60.5556 73.3168 58.0556 69.8668 58.0556C67.9501 58.0556 66.8001 59.4444 65.6501 60.2778C65.2668 60.5556 64.8834 60.2778 65.2668 60C66.4168 59.1667 68.3334 56.9444 68.3334 55C68.3334 52.7778 66.4168 50 63.3501 50C60.2834 50 58.3668 52.7778 58.3668 55C58.3668 56.9444 60.2834 59.1667 61.4334 60C61.8168 60.2778 61.4334 60.5556 61.0501 60.2778C59.9001 59.4444 58.7501 58.0556 56.8334 58.0556C53.3834 58.0556 51.8501 60.5556 51.8501 63.3333C51.8501 66.1111 53.3834 68.3333 56.8334 68.3333C58.7501 68.3333 60.6668 66.6667 61.4334 65.5556C61.8168 65.2778 61.8168 65.5556 61.8168 65.8333C61.4334 68.0556 61.4334 68.6111 61.0501 70.2778C60.6668 71.9444 59.5168 75 59.5168 75C61.4334 74.4444 65.2668 74.4444 67.1834 75C67.1834 75 66.0334 71.9444 65.6501 70.2778C65.2668 68.6111 65.2668 68.0556 64.8834 65.8333C64.8834 65.5556 64.8834 65.2778 65.2668 65.5556Z" fill="#212121" style="fill:#212121;fill:color(display-p3 0.1294 0.1294 0.1294);fill-opacity:1;"/>
<path d="M65.2668 65.5556C66.0334 66.6667 67.9501 68.3333 69.8668 68.3333C73.3168 68.3333 74.8501 66.1111 74.8501 63.3333C74.8501 60.5556 73.3168 58.0556 69.8668 58.0556C67.9501 58.0556 66.8001 59.4444 65.6501 60.2778C65.2668 60.5556 64.8834 60.2778 65.2668 60C66.4168 59.1667 68.3334 56.9444 68.3334 55C68.3334 52.7778 66.4168 50 63.3501 50C60.2834 50 58.3668 52.7778 58.3668 55C58.3668 56.9444 60.2834 59.1667 61.4334 60C61.8168 60.2778 61.4334 60.5556 61.0501 60.2778C59.9001 59.4444 58.7501 58.0556 56.8334 58.0556C53.3834 58.0556 51.8501 60.5556 51.8501 63.3333C51.8501 66.1111 53.3834 68.3333 56.8334 68.3333C58.7501 68.3333 60.6668 66.6667 61.4334 65.5556C61.8168 65.2778 61.8168 65.5556 61.8168 65.8333C61.4334 68.0556 61.4334 68.6111 61.0501 70.2778C60.6668 71.9444 59.5168 75 59.5168 75C61.4334 74.4444 65.2668 74.4444 67.1834 75C67.1834 75 66.0334 71.9444 65.6501 70.2778C65.2668 68.6111 65.2668 68.0556 64.8834 65.8333C64.8834 65.5556 64.8834 65.2778 65.2668 65.5556Z" fill="#212121" style="fill:#212121;fill:color(display-p3 0.1294 0.1294 0.1294);fill-opacity:1;"/>
</svg>
