<svg width="128" height="128" viewBox="0 0 128 128" fill="none" xmlns="http://www.w3.org/2000/svg">
<path d="M63.6 118.8C35.7 118.8 5.59998 101.3 5.59998 62.9C5.59998 24.5 35.7 7 63.6 7C79.1 7 93.4 12.1 104 21.4C115.5 31.6 121.6 46 121.6 62.9C121.6 79.8 115.5 94.1 104 104.3C93.4 113.6 79 118.8 63.6 118.8Z" fill="url(#paint0_radial_169_10578)" style=""/>
<path d="M63.6 118.8C35.7 118.8 5.59998 101.3 5.59998 62.9C5.59998 24.5 35.7 7 63.6 7C79.1 7 93.4 12.1 104 21.4C115.5 31.6 121.6 46 121.6 62.9C121.6 79.8 115.5 94.1 104 104.3C93.4 113.6 79 118.8 63.6 118.8Z" fill="url(#paint1_radial_169_10578)" style=""/>
<path d="M63.6 118.8C35.7 118.8 5.59998 101.3 5.59998 62.9C5.59998 24.5 35.7 7 63.6 7C79.1 7 93.4 12.1 104 21.4C115.5 31.6 121.6 46 121.6 62.9C121.6 79.8 115.5 94.1 104 104.3C93.4 113.6 79 118.8 63.6 118.8Z" fill="url(#paint2_radial_169_10578)" style=""/>
<path d="M63.6 118.8C35.7 118.8 5.59998 101.3 5.59998 62.9C5.59998 24.5 35.7 7 63.6 7C79.1 7 93.4 12.1 104 21.4C115.5 31.6 121.6 46 121.6 62.9C121.6 79.8 115.5 94.1 104 104.3C93.4 113.6 79 118.8 63.6 118.8Z" fill="url(#paint3_radial_169_10578)" style=""/>
<path d="M25.15 70.57C26.84 74.34 29.07 77.86 31.76 81C34.42 84.1 37.51 86.79 40.94 89C44.35 91.22 48.05 92.95 51.94 94.13C59.78 96.42 68.1 96.42 75.94 94.13C79.83 92.95 83.53 91.22 86.94 89C90.41 86.8 93.55 84.1 96.24 81C98.93 77.87 101.15 74.38 102.85 70.62C103.45 69.53 104.81 69.13 105.9 69.73C106.8 70.23 107.26 71.27 107 72.27C105.39 76.59 103.12 80.64 100.28 84.27C91.52 95.39 78.15 101.88 64 101.88C49.84 101.87 36.47 95.38 27.72 84.25C24.88 80.62 22.61 76.57 21 72.25C20.53 71.11 21.07 69.79 22.21 69.32C23.35 68.85 24.67 69.39 25.14 70.53L25.15 70.57Z" fill="#42312C" style="fill:#42312C;fill:color(display-p3 0.2588 0.1922 0.1725);fill-opacity:1;"/>
<path d="M111.49 29.67C116.82 38.27 119.6 48.51 119.6 59.9C119.6 76.8 113.5 91.1 102 101.3C91.4 110.6 77 115.8 61.6 115.8C43.54 115.8 24.6 108.45 13.42 92.86C24.18 110.52 44.42 118.8 63.6 118.8C79 118.8 93.4 113.6 104 104.3C115.5 94.1 121.6 79.8 121.6 62.9C121.6 50.16 118.13 38.84 111.49 29.67Z" fill="#EB8F00" style="fill:#EB8F00;fill:color(display-p3 0.9216 0.5608 0.0000);fill-opacity:1;"/>
<path d="M111.49 29.67C116.82 38.27 119.6 48.51 119.6 59.9C119.6 76.8 113.5 91.1 102 101.3C91.4 110.6 77 115.8 61.6 115.8C43.54 115.8 24.6 108.45 13.42 92.86C24.18 110.52 44.42 118.8 63.6 118.8C79 118.8 93.4 113.6 104 104.3C115.5 94.1 121.6 79.8 121.6 62.9C121.6 50.16 118.13 38.84 111.49 29.67Z" fill="#F3B872" style="fill:#F3B872;fill:color(display-p3 0.9542 0.7229 0.4453);fill-opacity:1;"/>
<path d="M111.49 29.67C116.82 38.27 119.6 48.51 119.6 59.9C119.6 76.8 113.5 91.1 102 101.3C91.4 110.6 77 115.8 61.6 115.8C43.54 115.8 24.6 108.45 13.42 92.86C24.18 110.52 44.42 118.8 63.6 118.8C79 118.8 93.4 113.6 104 104.3C115.5 94.1 121.6 79.8 121.6 62.9C121.6 50.16 118.13 38.84 111.49 29.67Z" fill="#4A2F27" style="fill:#4A2F27;fill:color(display-p3 0.2902 0.1843 0.1529);fill-opacity:1;"/>
<path d="M50.15 56.1L50 55.88L49.79 55.61C49.71 55.5 49.63 55.41 49.53 55.32L48.91 54.7C48.66 54.45 48.36 54.18 48.05 53.91C47.39 53.34 46.65 52.88 45.85 52.52C45.07 52.17 44.22 52 43.37 52H43C42.9 51.98 42.81 51.98 42.71 52C42.53 52.02 42.35 52.05 42.17 52.09C41.75 52.19 41.35 52.32 40.95 52.48C40.15 52.84 39.41 53.3 38.75 53.87C38.21 54.33 37.71 54.82 37.24 55.34L36.67 55.98L36.37 56.32C35.18 57.72 33.08 57.9 31.68 56.71C30.61 55.8 30.22 54.32 30.71 53L30.82 52.68C30.92 52.37 31.04 52.07 31.17 51.77C31.65 50.68 32.26 49.66 33 48.73C34.75 46.42 37.21 44.74 40 43.94C40.57 43.79 41.15 43.68 41.74 43.6C42.04 43.6 42.48 43.51 42.61 43.51H43.37C44.51 43.53 45.64 43.69 46.74 43.98C47.79 44.27 48.8 44.69 49.74 45.23C51.29 46.13 52.65 47.34 53.74 48.77C54.16 49.31 54.54 49.87 54.87 50.47C55.14 50.94 55.38 51.42 55.59 51.91C55.67 52.07 55.74 52.24 55.79 52.41C55.79 52.54 55.87 52.65 55.9 52.74L56 53C56.57 54.77 55.6 56.67 53.83 57.24C52.49 57.66 51.02 57.2 50.15 56.1Z" fill="#42312C" style="fill:#42312C;fill:color(display-p3 0.2588 0.1922 0.1725);fill-opacity:1;"/>
<path d="M50.15 56.1L50 55.88L49.79 55.61C49.71 55.5 49.63 55.41 49.53 55.32L48.91 54.7C48.66 54.45 48.36 54.18 48.05 53.91C47.39 53.34 46.65 52.88 45.85 52.52C45.07 52.17 44.22 52 43.37 52H43C42.9 51.98 42.81 51.98 42.71 52C42.53 52.02 42.35 52.05 42.17 52.09C41.75 52.19 41.35 52.32 40.95 52.48C40.15 52.84 39.41 53.3 38.75 53.87C38.21 54.33 37.71 54.82 37.24 55.34L36.67 55.98L36.37 56.32C35.18 57.72 33.08 57.9 31.68 56.71C30.61 55.8 30.22 54.32 30.71 53L30.82 52.68C30.92 52.37 31.04 52.07 31.17 51.77C31.65 50.68 32.26 49.66 33 48.73C34.75 46.42 37.21 44.74 40 43.94C40.57 43.79 41.15 43.68 41.74 43.6C42.04 43.6 42.48 43.51 42.61 43.51H43.37C44.51 43.53 45.64 43.69 46.74 43.98C47.79 44.27 48.8 44.69 49.74 45.23C51.29 46.13 52.65 47.34 53.74 48.77C54.16 49.31 54.54 49.87 54.87 50.47C55.14 50.94 55.38 51.42 55.59 51.91C55.67 52.07 55.74 52.24 55.79 52.41C55.79 52.54 55.87 52.65 55.9 52.74L56 53C56.57 54.77 55.6 56.67 53.83 57.24C52.49 57.66 51.02 57.2 50.15 56.1Z" fill="#42312C" style="fill:#42312C;fill:color(display-p3 0.2588 0.1922 0.1725);fill-opacity:1;"/>
<path d="M93.48 56.1L93.3 55.88L93.09 55.61C93.01 55.5 92.93 55.41 92.83 55.32L92.21 54.7C91.96 54.45 91.66 54.18 91.35 53.91C90.69 53.34 89.95 52.88 89.15 52.52C88.38 52.18 87.54 52 86.7 52H86.29C86.19 51.98 86.1 51.98 86 52C85.82 52.02 85.64 52.05 85.46 52.09C85.04 52.19 84.64 52.32 84.24 52.48C83.43 52.85 82.67 53.33 82 53.91C81.46 54.37 80.96 54.86 80.48 55.38L80 56L79.7 56.34C78.58 57.8 76.49 58.07 75.03 56.94C73.83 56.02 73.4 54.4 74 53L74.11 52.68C74.21 52.37 74.33 52.07 74.46 51.77C74.93 50.67 75.55 49.64 76.28 48.69C78.03 46.38 80.49 44.7 83.28 43.9C83.85 43.75 84.43 43.64 85.02 43.56C85.32 43.56 85.75 43.47 85.89 43.47H86.65C87.79 43.49 88.92 43.65 90.02 43.94C91.07 44.23 92.08 44.65 93.02 45.19C94.57 46.09 95.93 47.3 97.02 48.73C97.44 49.27 97.82 49.83 98.15 50.43C98.42 50.9 98.66 51.38 98.87 51.87C98.95 52.03 99.02 52.2 99.07 52.37L99.18 52.7L99.27 52.97C99.84 54.74 98.87 56.63 97.1 57.2C95.77 57.63 94.32 57.19 93.45 56.1H93.48Z" fill="#42312C" style="fill:#42312C;fill:color(display-p3 0.2588 0.1922 0.1725);fill-opacity:1;"/>
<path d="M93.48 56.1L93.3 55.88L93.09 55.61C93.01 55.5 92.93 55.41 92.83 55.32L92.21 54.7C91.96 54.45 91.66 54.18 91.35 53.91C90.69 53.34 89.95 52.88 89.15 52.52C88.38 52.18 87.54 52 86.7 52H86.29C86.19 51.98 86.1 51.98 86 52C85.82 52.02 85.64 52.05 85.46 52.09C85.04 52.19 84.64 52.32 84.24 52.48C83.43 52.85 82.67 53.33 82 53.91C81.46 54.37 80.96 54.86 80.48 55.38L80 56L79.7 56.34C78.58 57.8 76.49 58.07 75.03 56.94C73.83 56.02 73.4 54.4 74 53L74.11 52.68C74.21 52.37 74.33 52.07 74.46 51.77C74.93 50.67 75.55 49.64 76.28 48.69C78.03 46.38 80.49 44.7 83.28 43.9C83.85 43.75 84.43 43.64 85.02 43.56C85.32 43.56 85.75 43.47 85.89 43.47H86.65C87.79 43.49 88.92 43.65 90.02 43.94C91.07 44.23 92.08 44.65 93.02 45.19C94.57 46.09 95.93 47.3 97.02 48.73C97.44 49.27 97.82 49.83 98.15 50.43C98.42 50.9 98.66 51.38 98.87 51.87C98.95 52.03 99.02 52.2 99.07 52.37L99.18 52.7L99.27 52.97C99.84 54.74 98.87 56.63 97.1 57.2C95.77 57.63 94.32 57.19 93.45 56.1H93.48Z" fill="#42312C" style="fill:#42312C;fill:color(display-p3 0.2588 0.1922 0.1725);fill-opacity:1;"/>
<path d="M81.53 92.07C82.41 91.66 83.28 91.22 84.13 90.76C83.28 91.22 82.41 91.66 81.53 92.07Z" fill="#FF4081" style="fill:#FF4081;fill:color(display-p3 1.0000 0.2510 0.5059);fill-opacity:1;"/>
<path d="M86.67 89.27C85.84 89.79 85 90.27 84.14 90.75C85.14 90.21 86.14 89.64 87.06 89.03L86.67 89.27Z" fill="#FF4081" style="fill:#FF4081;fill:color(display-p3 1.0000 0.2510 0.5059);fill-opacity:1;"/>
<path d="M74 94.68C74.67 94.52 75.34 94.35 76 94.15C75.36 94.36 74.69 94.51 74 94.68Z" fill="#FF4081" style="fill:#FF4081;fill:color(display-p3 1.0000 0.2510 0.5059);fill-opacity:1;"/>
<path d="M94.16 83.21C94.87 82.48 95.57 81.73 96.24 80.95C95.57 81.73 94.87 82.48 94.16 83.21Z" fill="#FF4081" style="fill:#FF4081;fill:color(display-p3 1.0000 0.2510 0.5059);fill-opacity:1;"/>
<path d="M78.83 93.21C79.72 92.87 80.6 92.5 81.47 92.1C80.6 92.5 79.72 92.87 78.83 93.21Z" fill="#FF4081" style="fill:#FF4081;fill:color(display-p3 1.0000 0.2510 0.5059);fill-opacity:1;"/>
<path d="M76 94.16C76.93 93.89 77.83 93.58 78.73 93.24C77.85 93.58 77 93.89 76 94.16Z" fill="#FF4081" style="fill:#FF4081;fill:color(display-p3 1.0000 0.2510 0.5059);fill-opacity:1;"/>
<path d="M92.21 85.1C91.6 85.64 90.97 86.16 90.32 86.65C90 86.91 89.67 87.15 89.32 87.4C88.57 87.97 87.81 88.52 87.03 89.03C88.03 88.4 88.93 87.72 89.85 87.03C90.77 86.34 91.46 85.77 92.21 85.1Z" fill="#FF4081" style="fill:#FF4081;fill:color(display-p3 1.0000 0.2510 0.5059);fill-opacity:1;"/>
<path opacity="0.3" d="M94.16 83.21C94.09 83.28 94.03 83.35 93.96 83.41C93.4 84 92.81 84.56 92.21 85.1C92.84 84.54 93.45 83.96 94.03 83.35L94.16 83.21Z" fill="#AB3F2E" style="fill:#AB3F2E;fill:color(display-p3 0.6706 0.2471 0.1804);fill-opacity:1;"/>
<path d="M68.35 95.64L72.06 99.58L72.42 99.95L68.35 95.64Z" fill="#FF4081" style="fill:#FF4081;fill:color(display-p3 1.0000 0.2510 0.5059);fill-opacity:1;"/>
<path opacity="0.3" d="M72.42 99.95L73.31 100.91L73.32 100.9V100.89L72.42 99.95Z" fill="#AB3F2E" style="fill:#AB3F2E;fill:color(display-p3 0.6706 0.2471 0.1804);fill-opacity:1;"/>
<path d="M109.62 89.11L102.62 81.79L102.34 81.5L99.66 78.7L98.87 77.87L98.77 77.77C97.98 78.89 97.14 79.97 96.24 81C93.58 84.1 90.49 86.79 87.06 89C83.65 91.22 79.95 92.95 76.06 94.13C73.56 94.87 70.99 95.36 68.39 95.61L72.42 100L73.32 100.94L74.04 101.69L74.45 102.12L84.79 112.92C90.78 119.18 100.71 119.4 106.97 113.41L109.13 111.34C115.4 105.35 115.64 95.42 109.65 89.14C109.64 89.13 109.63 89.12 109.62 89.11Z" fill="#FF4081" style="fill:#FF4081;fill:color(display-p3 1.0000 0.2510 0.5059);fill-opacity:1;"/>
<path d="M95.67 96.63L87.86 88.46C87.59 88.65 87.33 88.85 87.06 89.03C86.23 89.56 85.39 90.03 84.54 90.54L92.9 99.28C93.25 99.65 93.73 99.86 94.24 99.87C94.75 99.89 95.24 99.7 95.61 99.34C96.37 98.62 96.41 97.42 95.69 96.65C95.69 96.65 95.68 96.64 95.67 96.63Z" fill="#E62B6B" style="fill:#E62B6B;fill:color(display-p3 0.9020 0.1686 0.4196);fill-opacity:1;"/>
<path opacity="0.3" d="M99.61 78.66L98.82 77.83L98.72 77.73C97.95 78.86 97.12 79.95 96.24 81C93.58 84.1 90.49 86.79 87.06 89C83.65 91.22 79.95 92.95 76.06 94.13C73.56 94.87 70.99 95.36 68.39 95.61L72.42 100L73.32 100.94C91.93 94.19 98.38 81.71 99.61 78.66Z" fill="#AB3F2E" style="fill:#AB3F2E;fill:color(display-p3 0.6706 0.2471 0.1804);fill-opacity:1;"/>
<defs>
<radialGradient id="paint0_radial_169_10578" cx="0" cy="0" r="1" gradientUnits="userSpaceOnUse" gradientTransform="translate(63.6 62.9) scale(56.9597 56.9597)">
<stop offset="0.5" stop-color="#FDE030" style="stop-color:#FDE030;stop-color:color(display-p3 0.9922 0.8784 0.1882);stop-opacity:1;"/>
<stop offset="0.92" stop-color="#F7C02B" style="stop-color:#F7C02B;stop-color:color(display-p3 0.9686 0.7529 0.1686);stop-opacity:1;"/>
<stop offset="1" stop-color="#F4A223" style="stop-color:#F4A223;stop-color:color(display-p3 0.9569 0.6353 0.1373);stop-opacity:1;"/>
</radialGradient>
<radialGradient id="paint1_radial_169_10578" cx="0" cy="0" r="1" gradientUnits="userSpaceOnUse" gradientTransform="translate(38.599 34.5377) rotate(-43.2082) scale(102.024 101.825)">
<stop offset="0.3533" stop-color="#F9DDBD" style="stop-color:#F9DDBD;stop-color:color(display-p3 0.9765 0.8667 0.7412);stop-opacity:1;"/>
<stop offset="0.8723" stop-color="#FFD29C" style="stop-color:#FFD29C;stop-color:color(display-p3 1.0000 0.8235 0.6118);stop-opacity:1;"/>
</radialGradient>
<radialGradient id="paint2_radial_169_10578" cx="0" cy="0" r="1" gradientUnits="userSpaceOnUse" gradientTransform="translate(38.599 34.5377) rotate(-43.2082) scale(102.024 101.825)">
<stop offset="0.3533" stop-color="#70534A" style="stop-color:#70534A;stop-color:color(display-p3 0.4392 0.3255 0.2902);stop-opacity:1;"/>
<stop offset="0.8723" stop-color="#5C4037" style="stop-color:#5C4037;stop-color:color(display-p3 0.3608 0.2510 0.2157);stop-opacity:1;"/>
</radialGradient>
<radialGradient id="paint3_radial_169_10578" cx="0" cy="0" r="1" gradientUnits="userSpaceOnUse" gradientTransform="translate(38.599 34.5377) rotate(-43.2082) scale(102.024 101.825)">
<stop offset="0.3533" stop-color="#A56C43" style="stop-color:#A56C43;stop-color:color(display-p3 0.6471 0.4235 0.2627);stop-opacity:1;"/>
<stop offset="0.8723" stop-color="#8D5738" style="stop-color:#8D5738;stop-color:color(display-p3 0.5529 0.3412 0.2196);stop-opacity:1;"/>
</radialGradient>
</defs>
</svg>
