<svg width="129" height="129" viewBox="0 0 129 129" fill="none" xmlns="http://www.w3.org/2000/svg">
<path d="M106.255 119.394H40.0539C38.9005 119.394 37.9668 118.46 37.9668 117.307V23.0639C37.9668 21.9104 38.9005 20.9767 40.0539 20.9767H106.255C107.408 20.9767 108.342 21.9104 108.342 23.0639V117.307C108.342 118.46 107.408 119.394 106.255 119.394Z" fill="white" stroke="#6FBFF0" style="fill:white;fill-opacity:1;stroke:#6FBFF0;stroke:color(display-p3 0.4353 0.7490 0.9412);stroke-opacity:1;" stroke-width="3"/>
<path opacity="0.1" d="M107.786 23.0639C107.786 22.2256 107.107 21.5326 106.255 21.5326H40.0539C39.2157 21.5326 38.5226 22.211 38.5226 23.0639V117.307C38.5226 118.145 39.201 118.838 40.0539 118.838H106.255C107.093 118.838 107.786 118.16 107.786 117.307V23.0639ZM40.0539 19.9767H106.255C107.96 19.9767 109.342 21.3663 109.342 23.0639V117.307C109.342 119.013 107.96 120.394 106.255 120.394H40.0539C38.3482 120.394 36.9668 119.013 36.9668 117.307V23.0639C36.9668 21.3581 38.3482 19.9767 40.0539 19.9767Z" fill="#424242" stroke="#6FBFF0" style="fill:#424242;fill:color(display-p3 0.2588 0.2588 0.2588);fill-opacity:1;stroke:#6FBFF0;stroke:color(display-p3 0.4353 0.7490 0.9412);stroke-opacity:1;"/>
<path d="M96.9548 110.62H30.7541C29.6007 110.62 28.667 109.687 28.667 108.533V14.2901C28.667 13.1367 29.6007 12.203 30.7541 12.203H96.9548C98.1082 12.203 99.0419 13.1367 99.0419 14.2901V108.533C99.0419 109.687 98.1082 110.62 96.9548 110.62Z" fill="white" stroke="#6FBFF0" style="fill:white;fill-opacity:1;stroke:#6FBFF0;stroke:color(display-p3 0.4353 0.7490 0.9412);stroke-opacity:1;" stroke-width="3"/>
<g opacity="0.2">
<path opacity="0.2" d="M98.4861 14.2901C98.4861 13.4519 97.8077 12.7588 96.9548 12.7588H30.7541C29.9158 12.7588 29.2228 13.4372 29.2228 14.2901V108.533C29.2228 109.371 29.9012 110.065 30.7541 110.065H96.9548C97.793 110.065 98.4861 109.386 98.4861 108.533V14.2901ZM30.7541 11.203H96.9548C98.6597 11.203 100.042 12.5925 100.042 14.2901V108.533C100.042 110.239 98.6605 111.62 96.9548 111.62H30.7541C29.0484 111.62 27.667 110.239 27.667 108.533V14.2901C27.667 12.5844 29.0484 11.203 30.7541 11.203Z" fill="white" stroke="#6FBFF0" style="fill:white;fill-opacity:1;stroke:#6FBFF0;stroke:color(display-p3 0.4353 0.7490 0.9412);stroke-opacity:1;"/>
</g>
<path d="M87.1892 101.877H17.4104C16.2569 101.877 15.3232 100.943 15.3232 99.7895V8.20091C15.3232 7.04744 16.2569 6.11377 17.4104 6.11377H87.1892C88.3426 6.11377 89.2763 7.04744 89.2763 8.20091V99.7895C89.2763 100.943 88.3426 101.877 87.1892 101.877Z" fill="white" stroke="#6FBFF0" style="fill:white;fill-opacity:1;stroke:#6FBFF0;stroke:color(display-p3 0.4353 0.7490 0.9412);stroke-opacity:1;" stroke-width="3"/>
<g opacity="0.2">
<path opacity="0.2" d="M87.1892 7.19651C87.7452 7.19651 88.1936 7.6449 88.1936 8.20091V99.7895C88.1936 100.346 87.7452 100.794 87.1892 100.794H17.4104C16.8544 100.794 16.406 100.346 16.406 99.7895V8.20091C16.406 7.6449 16.8544 7.19651 17.4104 7.19651H87.1892ZM87.1892 4.61377H17.4104C15.4285 4.61377 13.8232 6.21901 13.8232 8.20091V99.7895C13.8232 101.771 15.4285 103.377 17.4104 103.377H87.1892C89.1711 103.377 90.7763 101.771 90.7763 99.7895V8.20091C90.7763 6.21901 89.1711 4.61377 87.1892 4.61377Z" fill="#424242" style="fill:#424242;fill:color(display-p3 0.2588 0.2588 0.2588);fill-opacity:1;"/>
</g>
</svg>
