<svg width="128" height="128" viewBox="0 0 128 128" fill="none" xmlns="http://www.w3.org/2000/svg">
<path d="M63.6 118.8C35.7 118.8 5.59998 101.3 5.59998 62.9C5.59998 24.5 35.7 7 63.6 7C79.1 7 93.4 12.1 104 21.4C115.5 31.6 121.6 46 121.6 62.9C121.6 79.8 115.5 94.1 104 104.3C93.4 113.6 79 118.8 63.6 118.8Z" fill="url(#paint0_radial_169_10265)" style=""/>
<path d="M63.6 118.8C35.7 118.8 5.59998 101.3 5.59998 62.9C5.59998 24.5 35.7 7 63.6 7C79.1 7 93.4 12.1 104 21.4C115.5 31.6 121.6 46 121.6 62.9C121.6 79.8 115.5 94.1 104 104.3C93.4 113.6 79 118.8 63.6 118.8Z" fill="url(#paint1_radial_169_10265)" style=""/>
<path d="M63.6 118.8C35.7 118.8 5.59998 101.3 5.59998 62.9C5.59998 24.5 35.7 7 63.6 7C79.1 7 93.4 12.1 104 21.4C115.5 31.6 121.6 46 121.6 62.9C121.6 79.8 115.5 94.1 104 104.3C93.4 113.6 79 118.8 63.6 118.8Z" fill="url(#paint2_radial_169_10265)" style=""/>
<path d="M63.6 118.8C35.7 118.8 5.59998 101.3 5.59998 62.9C5.59998 24.5 35.7 7 63.6 7C79.1 7 93.4 12.1 104 21.4C115.5 31.6 121.6 46 121.6 62.9C121.6 79.8 115.5 94.1 104 104.3C93.4 113.6 79 118.8 63.6 118.8Z" fill="url(#paint3_radial_169_10265)" style=""/>
<path d="M111.49 29.67C116.82 38.27 119.6 48.51 119.6 59.9C119.6 76.8 113.5 91.1 102 101.3C91.3999 110.6 76.9999 115.8 61.5999 115.8C43.5399 115.8 24.5999 108.45 13.4199 92.86C24.1799 110.52 44.4199 118.8 63.5999 118.8C78.9999 118.8 93.3999 113.6 104 104.3C115.5 94.1 121.6 79.8 121.6 62.9C121.6 50.16 118.13 38.84 111.49 29.67Z" fill="#EB8F00" style="fill:#EB8F00;fill:color(display-p3 0.9216 0.5608 0.0000);fill-opacity:1;"/>
<path d="M111.49 29.67C116.82 38.27 119.6 48.51 119.6 59.9C119.6 76.8 113.5 91.1 102 101.3C91.3999 110.6 76.9999 115.8 61.5999 115.8C43.5399 115.8 24.5999 108.45 13.4199 92.86C24.1799 110.52 44.4199 118.8 63.5999 118.8C78.9999 118.8 93.3999 113.6 104 104.3C115.5 94.1 121.6 79.8 121.6 62.9C121.6 50.16 118.13 38.84 111.49 29.67Z" fill="#F3B872" style="fill:#F3B872;fill:color(display-p3 0.9542 0.7229 0.4453);fill-opacity:1;"/>
<path d="M111.49 29.67C116.82 38.27 119.6 48.51 119.6 59.9C119.6 76.8 113.5 91.1 102 101.3C91.3999 110.6 76.9999 115.8 61.5999 115.8C43.5399 115.8 24.5999 108.45 13.4199 92.86C24.1799 110.52 44.4199 118.8 63.5999 118.8C78.9999 118.8 93.3999 113.6 104 104.3C115.5 94.1 121.6 79.8 121.6 62.9C121.6 50.16 118.13 38.84 111.49 29.67Z" fill="#4A2F27" style="fill:#4A2F27;fill:color(display-p3 0.2902 0.1843 0.1529);fill-opacity:1;"/>
<path d="M64 97.31C50.75 97.31 41.29 89.5 38.45 85.17C37.38 83.78 37.15 81.91 37.87 80.31C38.42 79.29 39.49 78.66 40.65 78.69C41.07 78.69 41.5 78.76 41.9 78.89C48.58 81 54.42 84 64 84C73.58 84 79.44 81 86.1 78.87C86.5 78.74 86.93 78.67 87.35 78.67C88.51 78.64 89.58 79.27 90.13 80.29C90.85 81.89 90.62 83.76 89.55 85.15C86.71 89.5 77.25 97.31 64 97.31Z" fill="#42312C" style="fill:#42312C;fill:color(display-p3 0.2588 0.1922 0.1725);fill-opacity:1;"/>
<path d="M64 97.31C50.75 97.31 41.29 89.5 38.45 85.17C37.38 83.78 37.15 81.91 37.87 80.31C38.42 79.29 39.49 78.66 40.65 78.69C41.07 78.69 41.5 78.76 41.9 78.89C48.58 81 54.42 84 64 84C73.58 84 79.44 81 86.1 78.87C86.5 78.74 86.93 78.67 87.35 78.67C88.51 78.64 89.58 79.27 90.13 80.29C90.85 81.89 90.62 83.76 89.55 85.15C86.71 89.5 77.25 97.31 64 97.31Z" fill="#42312C" style="fill:#42312C;fill:color(display-p3 0.2588 0.1922 0.1725);fill-opacity:1;"/>
<path d="M82.34 110.1C81.34 105.46 79.7601 101.04 80.1401 98.1C80.8801 92.4 84.3101 90.4301 84.3101 90.4301C82.5401 90.0001 80.6801 90.21 79.0501 91.03C75.7701 92.53 77.1901 93.2901 72.1401 94.3301C67.8901 95.2101 65.4401 93.0201 60.5901 93.8601C56.2601 94.6201 55.1801 96.0801 55.1801 96.0801C57.5601 96.8301 60.0201 97.3401 62.5001 97.6101C70.5001 98.5601 69.5001 105.61 68.9301 108.61C67.7901 114.42 66.2501 124.54 75.8001 124.17C82.7301 123.93 83.7101 116.72 82.34 110.1Z" fill="url(#paint4_linear_169_10265)" style=""/>
<path d="M29.91 58.48C28.55 57.19 28.49 55.04 29.78 53.67C29.97 53.47 30.18 53.29 30.41 53.15C33.34 51 36.61 49.37 40.09 48.34C43.61 47.46 47.25 47.19 50.86 47.55C52.74 47.63 54.21 49.21 54.13 51.09C54.12 51.36 54.08 51.63 54 51.9C53.43 53.63 51.74 54.74 49.93 54.57C47.25 54.28 44.55 54.46 41.93 55.09C39.36 55.88 36.93 57.11 34.77 58.71C33.3 59.78 31.28 59.69 29.91 58.48Z" fill="#42312C" style="fill:#42312C;fill:color(display-p3 0.2588 0.1922 0.1725);fill-opacity:1;"/>
<path d="M29.91 58.48C28.55 57.19 28.49 55.04 29.78 53.67C29.97 53.47 30.18 53.29 30.41 53.15C33.34 51 36.61 49.37 40.09 48.34C43.61 47.46 47.25 47.19 50.86 47.55C52.74 47.63 54.21 49.21 54.13 51.09C54.12 51.36 54.08 51.63 54 51.9C53.43 53.63 51.74 54.74 49.93 54.57C47.25 54.28 44.55 54.46 41.93 55.09C39.36 55.88 36.93 57.11 34.77 58.71C33.3 59.78 31.28 59.69 29.91 58.48Z" fill="#42312C" style="fill:#42312C;fill:color(display-p3 0.2588 0.1922 0.1725);fill-opacity:1;"/>
<path d="M98.0901 58.48C99.4501 57.19 99.5101 55.04 98.2201 53.67C98.0301 53.47 97.8201 53.29 97.5901 53.15C94.6601 51 91.3901 49.37 87.9101 48.34C84.3901 47.46 80.7501 47.19 77.1401 47.55C75.2601 47.63 73.7901 49.21 73.8701 51.09C73.8801 51.36 73.9201 51.63 74.0001 51.9C74.5701 53.63 76.2601 54.74 78.0701 54.57C80.7501 54.28 83.4501 54.46 86.0701 55.09C88.6401 55.88 91.0701 57.11 93.2301 58.71C94.7001 59.78 96.7201 59.69 98.0901 58.48Z" fill="#42312C" style="fill:#42312C;fill:color(display-p3 0.2588 0.1922 0.1725);fill-opacity:1;"/>
<path d="M98.0901 58.48C99.4501 57.19 99.5101 55.04 98.2201 53.67C98.0301 53.47 97.8201 53.29 97.5901 53.15C94.6601 51 91.3901 49.37 87.9101 48.34C84.3901 47.46 80.7501 47.19 77.1401 47.55C75.2601 47.63 73.7901 49.21 73.8701 51.09C73.8801 51.36 73.9201 51.63 74.0001 51.9C74.5701 53.63 76.2601 54.74 78.0701 54.57C80.7501 54.28 83.4501 54.46 86.0701 55.09C88.6401 55.88 91.0701 57.11 93.2301 58.71C94.7001 59.78 96.7201 59.69 98.0901 58.48Z" fill="#42312C" style="fill:#42312C;fill:color(display-p3 0.2588 0.1922 0.1725);fill-opacity:1;"/>
<path d="M79.88 118.61C78.81 120.27 76.39 119.95 76.39 117.21C76.39 115.45 76.75 106.44 78.25 107.7C80.71 109.75 81.41 116.28 79.88 118.61Z" fill="#81D4FA" style="fill:#81D4FA;fill:color(display-p3 0.5059 0.8314 0.9804);fill-opacity:1;"/>
<path d="M30.32 40.57C28.98 42.36 26.07 41.03 27.05 38.84C29.33 34.06 33.37 30.34 38.32 28.46C40.13 27.7 42.05 27.26 44 27.14C45 26.99 45.93 27.68 46.08 28.67C46.23 29.66 45.54 30.6 44.55 30.75H44.42C38.74 32.34 33.77 35.8 30.32 40.57Z" fill="#42312C" style="fill:#42312C;fill:color(display-p3 0.2588 0.1922 0.1725);fill-opacity:1;"/>
<path d="M30.32 40.57C28.98 42.36 26.07 41.03 27.05 38.84C29.33 34.06 33.37 30.34 38.32 28.46C40.13 27.7 42.05 27.26 44 27.14C45 26.99 45.93 27.68 46.08 28.67C46.23 29.66 45.54 30.6 44.55 30.75H44.42C38.74 32.34 33.77 35.8 30.32 40.57Z" fill="#42312C" style="fill:#42312C;fill:color(display-p3 0.2588 0.1922 0.1725);fill-opacity:1;"/>
<path d="M97.15 33.44C98.59 35.15 101.42 33.66 100.32 31.53C97.77 26.89 93.53 23.4 88.48 21.8C86.64 21.15 84.7 20.81 82.74 20.8C81.72 20.79 80.9 21.61 80.89 22.63C80.89 23.52 81.52 24.29 82.4 24.45H82.53C88.28 25.71 93.43 28.87 97.15 33.44Z" fill="#42312C" style="fill:#42312C;fill:color(display-p3 0.2588 0.1922 0.1725);fill-opacity:1;"/>
<path d="M97.15 33.44C98.59 35.15 101.42 33.66 100.32 31.53C97.77 26.89 93.53 23.4 88.48 21.8C86.64 21.15 84.7 20.81 82.74 20.8C81.72 20.79 80.9 21.61 80.89 22.63C80.89 23.52 81.52 24.29 82.4 24.45H82.53C88.28 25.71 93.43 28.87 97.15 33.44Z" fill="#42312C" style="fill:#42312C;fill:color(display-p3 0.2588 0.1922 0.1725);fill-opacity:1;"/>
<defs>
<radialGradient id="paint0_radial_169_10265" cx="0" cy="0" r="1" gradientUnits="userSpaceOnUse" gradientTransform="translate(63.6 62.8999) scale(56.9597 56.9597)">
<stop offset="0.5" stop-color="#FDE030" style="stop-color:#FDE030;stop-color:color(display-p3 0.9922 0.8784 0.1882);stop-opacity:1;"/>
<stop offset="0.92" stop-color="#F7C02B" style="stop-color:#F7C02B;stop-color:color(display-p3 0.9686 0.7529 0.1686);stop-opacity:1;"/>
<stop offset="1" stop-color="#F4A223" style="stop-color:#F4A223;stop-color:color(display-p3 0.9569 0.6353 0.1373);stop-opacity:1;"/>
</radialGradient>
<radialGradient id="paint1_radial_169_10265" cx="0" cy="0" r="1" gradientUnits="userSpaceOnUse" gradientTransform="translate(38.599 34.5377) rotate(-43.2082) scale(102.024 101.825)">
<stop offset="0.3533" stop-color="#F9DDBD" style="stop-color:#F9DDBD;stop-color:color(display-p3 0.9765 0.8667 0.7412);stop-opacity:1;"/>
<stop offset="0.8723" stop-color="#FFD29C" style="stop-color:#FFD29C;stop-color:color(display-p3 1.0000 0.8235 0.6118);stop-opacity:1;"/>
</radialGradient>
<radialGradient id="paint2_radial_169_10265" cx="0" cy="0" r="1" gradientUnits="userSpaceOnUse" gradientTransform="translate(38.599 34.5377) rotate(-43.2082) scale(102.024 101.825)">
<stop offset="0.3533" stop-color="#70534A" style="stop-color:#70534A;stop-color:color(display-p3 0.4392 0.3255 0.2902);stop-opacity:1;"/>
<stop offset="0.8723" stop-color="#5C4037" style="stop-color:#5C4037;stop-color:color(display-p3 0.3608 0.2510 0.2157);stop-opacity:1;"/>
</radialGradient>
<radialGradient id="paint3_radial_169_10265" cx="0" cy="0" r="1" gradientUnits="userSpaceOnUse" gradientTransform="translate(38.599 34.5377) rotate(-43.2082) scale(102.024 101.825)">
<stop offset="0.3533" stop-color="#A56C43" style="stop-color:#A56C43;stop-color:color(display-p3 0.6471 0.4235 0.2627);stop-opacity:1;"/>
<stop offset="0.8723" stop-color="#8D5738" style="stop-color:#8D5738;stop-color:color(display-p3 0.5529 0.3412 0.2196);stop-opacity:1;"/>
</radialGradient>
<linearGradient id="paint4_linear_169_10265" x1="69.7451" y1="124.18" x2="69.7451" y2="90.2142" gradientUnits="userSpaceOnUse">
<stop offset="0.46" stop-color="#29B6F6" style="stop-color:#29B6F6;stop-color:color(display-p3 0.1608 0.7137 0.9647);stop-opacity:1;"/>
<stop offset="1" stop-color="#1E88E5" style="stop-color:#1E88E5;stop-color:color(display-p3 0.1176 0.5333 0.8980);stop-opacity:1;"/>
</linearGradient>
</defs>
</svg>
