<svg width="128" height="128" viewBox="0 0 128 128" fill="none" xmlns="http://www.w3.org/2000/svg">
<path d="M63.6 118.8C35.7 118.8 5.59998 101.3 5.59998 62.9C5.59998 24.5 35.7 7 63.6 7C79.1 7 93.4 12.1 104 21.4C115.5 31.6 121.6 46 121.6 62.9C121.6 79.8 115.5 94.1 104 104.3C93.4 113.6 79 118.8 63.6 118.8Z" fill="url(#paint0_radial_169_8407)" style=""/>
<path d="M111.49 29.67C116.82 38.27 119.6 48.51 119.6 59.9C119.6 76.8 113.5 91.1 102 101.3C91.3999 110.6 76.9999 115.8 61.5999 115.8C43.5399 115.8 24.5999 108.45 13.4199 92.86C24.1799 110.52 44.4199 118.8 63.5999 118.8C78.9999 118.8 93.3999 113.6 104 104.3C115.5 94.1 121.6 79.8 121.6 62.9C121.6 50.16 118.13 38.84 111.49 29.67Z" fill="#789E46" style="fill:#789E46;fill:color(display-p3 0.4706 0.6196 0.2745);fill-opacity:1;"/>
<g opacity="0.65">
<path opacity="0.65" d="M92.13 107.99C99.2932 107.99 105.1 102.667 105.1 96.1C105.1 89.5334 99.2932 84.21 92.13 84.21C84.9669 84.21 79.16 89.5334 79.16 96.1C79.16 102.667 84.9669 107.99 92.13 107.99Z" fill="url(#paint1_radial_169_8407)" style=""/>
</g>
<g opacity="0.65">
<path opacity="0.65" d="M36.98 109.99C44.1431 109.99 49.95 104.667 49.95 98.1C49.95 91.5334 44.1431 86.21 36.98 86.21C29.8169 86.21 24.01 91.5334 24.01 98.1C24.01 104.667 29.8169 109.99 36.98 109.99Z" fill="url(#paint2_radial_169_8407)" style=""/>
</g>
<path d="M42.73 87.14C45.38 88.41 48.42 92 49.53 94.72C50.39 96.88 50.62 99.25 50.17 101.54" stroke="#35220B" style="stroke:#35220B;stroke:color(display-p3 0.2078 0.1333 0.0431);stroke-opacity:1;" stroke-width="5.26" stroke-linecap="round" stroke-linejoin="round"/>
<path d="M84.5 86.41C81.85 87.67 78.79 91.24 77.68 93.96C77.12 95.32 76.82 96.78 76.79 98.25" stroke="#35220B" style="stroke:#35220B;stroke:color(display-p3 0.2078 0.1333 0.0431);stroke-opacity:1;" stroke-width="5.26" stroke-linecap="round" stroke-linejoin="round"/>
<path d="M49.45 94.18C49.45 94.18 51.1699 89.37 63.6399 89.18C74.95 89 77.6399 92.63 77.6399 92.63" stroke="#35220B" style="stroke:#35220B;stroke:color(display-p3 0.2078 0.1333 0.0431);stroke-opacity:1;" stroke-width="5.26" stroke-linecap="round" stroke-linejoin="round"/>
<path d="M27.4 51.8C25.2 52.2 25.1 55.4 27.5 55.5C32.8 55.57 37.92 53.6 41.8 50C43.28 48.72 44.53 47.2 45.5 45.5C46.08 44.67 45.88 43.53 45.05 42.95C44.22 42.37 43.08 42.57 42.5 43.4L42.4 43.5C38.48 47.88 33.19 50.81 27.4 51.8Z" fill="#422B0D" style="fill:#422B0D;fill:color(display-p3 0.2588 0.1686 0.0510);fill-opacity:1;"/>
<path d="M84.5 36.4C83.92 35.57 82.7799 35.37 81.9499 35.95C81.1199 36.53 80.92 37.67 81.5 38.5C82.47 40.2 83.7199 41.72 85.1999 43C89.0999 46.57 94.21 48.54 99.5 48.5C102 48.4 101.8 45.2 99.6 44.8C93.74 43.84 88.41 40.87 84.5 36.4Z" fill="#422B0D" style="fill:#422B0D;fill:color(display-p3 0.2588 0.1686 0.0510);fill-opacity:1;"/>
<path d="M37.75 62.65C36.26 63.37 35.46 65.03 35.84 66.65C36.84 70.96 40.2 73.46 43.79 73.46C48.13 73.46 52.07 69.79 52.07 63.71C52.08 62.62 51.94 61.54 51.66 60.49C51.12 58.64 49.19 57.58 47.35 58.12C47.15 58.18 46.97 58.25 46.78 58.34L37.75 62.65Z" fill="#422B0D" style="fill:#422B0D;fill:color(display-p3 0.2588 0.1686 0.0510);fill-opacity:1;"/>
<path d="M37.75 62.65C36.26 63.37 35.46 65.03 35.84 66.65C36.84 70.96 40.2 73.46 43.79 73.46C48.13 73.46 52.07 69.79 52.07 63.71C52.08 62.62 51.94 61.54 51.66 60.49C51.12 58.64 49.19 57.58 47.35 58.12C47.15 58.18 46.97 58.25 46.78 58.34L37.75 62.65Z" fill="#1A1717" style="fill:#1A1717;fill:color(display-p3 0.1020 0.0902 0.0902);fill-opacity:1;"/>
<path d="M47.38 61.78C46.83 60.95 45.44 60.78 43.97 61.78C42.5 62.78 42.12 64.1 42.67 64.93C43.23 65.77 44.61 65.93 46.08 64.93C47.55 63.93 47.93 62.62 47.38 61.78Z" fill="#555050" style="fill:#555050;fill:color(display-p3 0.3333 0.3125 0.3125);fill-opacity:1;"/>
<path d="M89.84 62.65C91.34 63.37 92.14 65.03 91.76 66.65C90.71 70.96 87.39 73.46 83.76 73.46C79.42 73.46 75.47 69.79 75.47 63.71C75.47 62.62 75.6 61.54 75.88 60.49C76.42 58.64 78.36 57.58 80.21 58.12C80.4 58.18 80.59 58.25 80.77 58.34L89.84 62.65Z" fill="#422B0D" style="fill:#422B0D;fill:color(display-p3 0.2588 0.1686 0.0510);fill-opacity:1;"/>
<path d="M89.84 62.65C91.34 63.37 92.14 65.03 91.76 66.65C90.71 70.96 87.39 73.46 83.76 73.46C79.42 73.46 75.47 69.79 75.47 63.71C75.47 62.62 75.6 61.54 75.88 60.49C76.42 58.64 78.36 57.58 80.21 58.12C80.4 58.18 80.59 58.25 80.77 58.34L89.84 62.65Z" fill="#1A1717" style="fill:#1A1717;fill:color(display-p3 0.1020 0.0902 0.0902);fill-opacity:1;"/>
<path d="M80.2099 61.78C80.7699 60.95 82.2099 60.78 83.6299 61.78C85.0499 62.78 85.4799 64.1 84.9199 64.93C84.3699 65.77 82.9799 65.93 81.5099 64.93C80.0399 63.93 79.6599 62.62 80.2099 61.78Z" fill="#555050" style="fill:#555050;fill:color(display-p3 0.3333 0.3125 0.3125);fill-opacity:1;"/>
<defs>
<radialGradient id="paint0_radial_169_8407" cx="0" cy="0" r="1" gradientUnits="userSpaceOnUse" gradientTransform="translate(63.6 62.8999) scale(56.9597 56.9597)">
<stop stop-color="#705249" style="stop-color:#705249;stop-color:color(display-p3 0.4392 0.3216 0.2863);stop-opacity:1;"/>
<stop offset="0.53" stop-color="#B38F5A" style="stop-color:#B38F5A;stop-color:color(display-p3 0.7000 0.5612 0.3529);stop-opacity:1;"/>
<stop offset="0.927083" stop-color="#CCC265" style="stop-color:#CCC265;stop-color:color(display-p3 0.8000 0.7596 0.3961);stop-opacity:1;"/>
</radialGradient>
<radialGradient id="paint1_radial_169_8407" cx="0" cy="0" r="1" gradientUnits="userSpaceOnUse" gradientTransform="translate(92.1028 96.2768) scale(14.0976 12.3552)">
<stop stop-color="#ED7770" style="stop-color:#ED7770;stop-color:color(display-p3 0.9294 0.4667 0.4392);stop-opacity:1;"/>
<stop offset="0.08" stop-color="#ED7770" stop-opacity="0.97" style="stop-color:#ED7770;stop-color:color(display-p3 0.9294 0.4667 0.4392);stop-opacity:0.97;"/>
<stop offset="0.21" stop-color="#ED7770" stop-opacity="0.88" style="stop-color:#ED7770;stop-color:color(display-p3 0.9294 0.4667 0.4392);stop-opacity:0.88;"/>
<stop offset="0.35" stop-color="#ED7770" stop-opacity="0.74" style="stop-color:#ED7770;stop-color:color(display-p3 0.9294 0.4667 0.4392);stop-opacity:0.74;"/>
<stop offset="0.52" stop-color="#ED7770" stop-opacity="0.55" style="stop-color:#ED7770;stop-color:color(display-p3 0.9294 0.4667 0.4392);stop-opacity:0.55;"/>
<stop offset="0.71" stop-color="#ED7770" stop-opacity="0.29" style="stop-color:#ED7770;stop-color:color(display-p3 0.9294 0.4667 0.4392);stop-opacity:0.29;"/>
<stop offset="0.9" stop-color="#ED7770" stop-opacity="0" style="stop-color:none;stop-opacity:0;"/>
</radialGradient>
<radialGradient id="paint2_radial_169_8407" cx="0" cy="0" r="1" gradientUnits="userSpaceOnUse" gradientTransform="translate(36.98 98.2774) scale(14.0911 12.3495)">
<stop stop-color="#ED7770" style="stop-color:#ED7770;stop-color:color(display-p3 0.9294 0.4667 0.4392);stop-opacity:1;"/>
<stop offset="0.08" stop-color="#ED7770" stop-opacity="0.97" style="stop-color:#ED7770;stop-color:color(display-p3 0.9294 0.4667 0.4392);stop-opacity:0.97;"/>
<stop offset="0.21" stop-color="#ED7770" stop-opacity="0.88" style="stop-color:#ED7770;stop-color:color(display-p3 0.9294 0.4667 0.4392);stop-opacity:0.88;"/>
<stop offset="0.35" stop-color="#ED7770" stop-opacity="0.74" style="stop-color:#ED7770;stop-color:color(display-p3 0.9294 0.4667 0.4392);stop-opacity:0.74;"/>
<stop offset="0.52" stop-color="#ED7770" stop-opacity="0.55" style="stop-color:#ED7770;stop-color:color(display-p3 0.9294 0.4667 0.4392);stop-opacity:0.55;"/>
<stop offset="0.71" stop-color="#ED7770" stop-opacity="0.29" style="stop-color:#ED7770;stop-color:color(display-p3 0.9294 0.4667 0.4392);stop-opacity:0.29;"/>
<stop offset="0.9" stop-color="#ED7770" stop-opacity="0" style="stop-color:none;stop-opacity:0;"/>
</radialGradient>
</defs>
</svg>
