<svg width="128" height="128" viewBox="0 0 128 128" fill="none" xmlns="http://www.w3.org/2000/svg">
<path d="M63.6001 7C91.5001 7 121.6 24.5 121.6 62.9C121.6 101.3 91.5001 118.8 63.6001 118.8C48.1001 118.8 33.8001 113.7 23.2001 104.4C11.7001 94.2 5.6001 79.8 5.6001 62.9C5.6001 46 11.7001 31.7 23.2001 21.5C33.8001 12.2 48.2001 7 63.6001 7Z" fill="url(#paint0_radial_169_9858)" style=""/>
<path d="M63.6001 7C91.5001 7 121.6 24.5 121.6 62.9C121.6 101.3 91.5001 118.8 63.6001 118.8C48.1001 118.8 33.8001 113.7 23.2001 104.4C11.7001 94.2 5.6001 79.8 5.6001 62.9C5.6001 46 11.7001 31.7 23.2001 21.5C33.8001 12.2 48.2001 7 63.6001 7Z" fill="url(#paint1_radial_169_9858)" style=""/>
<path d="M63.6001 7C91.5001 7 121.6 24.5 121.6 62.9C121.6 101.3 91.5001 118.8 63.6001 118.8C48.1001 118.8 33.8001 113.7 23.2001 104.4C11.7001 94.2 5.6001 79.8 5.6001 62.9C5.6001 46 11.7001 31.7 23.2001 21.5C33.8001 12.2 48.2001 7 63.6001 7Z" fill="url(#paint2_radial_169_9858)" style=""/>
<path d="M83.1602 84.86C87.3502 84.86 91.1602 81.32 91.1602 75.44C91.1602 69.57 87.3502 66.02 83.1602 66.02C78.9702 66.02 75.1602 69.56 75.1602 75.44C75.1602 81.32 78.9602 84.86 83.1602 84.86Z" fill="#422B0D" style="fill:#422B0D;fill:color(display-p3 0.2588 0.1686 0.0510);fill-opacity:1;"/>
<path d="M83.1602 84.86C87.3502 84.86 91.1602 81.32 91.1602 75.44C91.1602 69.57 87.3502 66.02 83.1602 66.02C78.9702 66.02 75.1602 69.56 75.1602 75.44C75.1602 81.32 78.9602 84.86 83.1602 84.86Z" fill="#1A1717" style="fill:#1A1717;fill:color(display-p3 0.1020 0.0902 0.0902);fill-opacity:1;"/>
<path d="M83.5501 80.93C84.5801 81.65 86.1301 81.42 87.1301 79.98C88.1301 78.53 87.8001 77.01 86.7701 76.29C85.7401 75.57 84.1901 75.8 83.1901 77.24C82.1901 78.68 82.5101 80.21 83.5501 80.93Z" fill="#896024" style="fill:#896024;fill:color(display-p3 0.5373 0.3765 0.1412);fill-opacity:1;"/>
<path d="M83.5501 80.93C84.5801 81.65 86.1301 81.42 87.1301 79.98C88.1301 78.53 87.8001 77.01 86.7701 76.29C85.7401 75.57 84.1901 75.8 83.1901 77.24C82.1901 78.68 82.5101 80.21 83.5501 80.93Z" fill="#555050" style="fill:#555050;fill:color(display-p3 0.3333 0.3125 0.3125);fill-opacity:1;"/>
<path d="M44.8 84.86C48.99 84.86 52.8 81.32 52.8 75.44C52.8 69.57 48.99 66.02 44.8 66.02C40.61 66.02 36.8 69.56 36.8 75.44C36.8 81.32 40.61 84.86 44.8 84.86Z" fill="#422B0D" style="fill:#422B0D;fill:color(display-p3 0.2588 0.1686 0.0510);fill-opacity:1;"/>
<path d="M44.8 84.86C48.99 84.86 52.8 81.32 52.8 75.44C52.8 69.57 48.99 66.02 44.8 66.02C40.61 66.02 36.8 69.56 36.8 75.44C36.8 81.32 40.61 84.86 44.8 84.86Z" fill="#1A1717" style="fill:#1A1717;fill:color(display-p3 0.1020 0.0902 0.0902);fill-opacity:1;"/>
<path d="M45.1902 80.93C46.2202 81.65 47.7702 81.42 48.7702 79.98C49.7702 78.54 49.4402 77.01 48.4102 76.29C47.3802 75.57 45.8302 75.8 44.8302 77.24C43.8302 78.68 44.1602 80.21 45.1902 80.93Z" fill="#896024" style="fill:#896024;fill:color(display-p3 0.5373 0.3765 0.1412);fill-opacity:1;"/>
<path d="M45.1902 80.93C46.2202 81.65 47.7702 81.42 48.7702 79.98C49.7702 78.54 49.4402 77.01 48.4102 76.29C47.3802 75.57 45.8302 75.8 44.8302 77.24C43.8302 78.68 44.1602 80.21 45.1902 80.93Z" fill="#555050" style="fill:#555050;fill:color(display-p3 0.3333 0.3125 0.3125);fill-opacity:1;"/>
<path d="M64.18 34.19C74.87 34.19 83.33 39.26 88 44.67C88.47 45.21 88.58 45.95 88.28 46.59C87.98 47.24 87.34 47.67 86.63 47.67C86.31 47.67 86 47.58 85.71 47.42C80.9 44.65 72.83 41.21 64.2 41.21H64.06C55.43 41.21 47.36 44.64 42.55 47.42C42.26 47.58 41.95 47.67 41.63 47.67C40.93 47.67 40.28 47.24 39.98 46.59C39.69 45.95 39.8 45.21 40.26 44.67C44.93 39.25 53.39 34.19 64.08 34.19" fill="#422B0D" style="fill:#422B0D;fill:color(display-p3 0.2588 0.1686 0.0510);fill-opacity:1;"/>
<path d="M64.18 34.19C74.87 34.19 83.33 39.26 88 44.67C88.47 45.21 88.58 45.95 88.28 46.59C87.98 47.24 87.34 47.67 86.63 47.67C86.31 47.67 86 47.58 85.71 47.42C80.9 44.65 72.83 41.21 64.2 41.21H64.06C55.43 41.21 47.36 44.64 42.55 47.42C42.26 47.58 41.95 47.67 41.63 47.67C40.93 47.67 40.28 47.24 39.98 46.59C39.69 45.95 39.8 45.21 40.26 44.67C44.93 39.25 53.39 34.19 64.08 34.19" fill="#1A1717" style="fill:#1A1717;fill:color(display-p3 0.1020 0.0902 0.0902);fill-opacity:1;"/>
<path d="M111.49 29.67C116.82 38.27 119.6 48.51 119.6 59.9C119.6 76.8 113.5 91.1 102 101.3C91.3999 110.6 76.9999 115.8 61.5999 115.8C43.5399 115.8 24.5599 108.45 13.4199 92.86C24.1799 110.52 44.4099 118.8 63.5999 118.8C78.9999 118.8 93.3999 113.6 104 104.3C115.5 94.1 121.6 79.8 121.6 62.9C121.6 50.16 118.13 38.84 111.49 29.67Z" fill="#EB8F00" style="fill:#EB8F00;fill:color(display-p3 0.9216 0.5608 0.0000);fill-opacity:1;"/>
<path d="M111.49 29.67C116.82 38.27 119.6 48.51 119.6 59.9C119.6 76.8 113.5 91.1 102 101.3C91.3999 110.6 76.9999 115.8 61.5999 115.8C43.5399 115.8 24.5599 108.45 13.4199 92.86C24.1799 110.52 44.4099 118.8 63.5999 118.8C78.9999 118.8 93.3999 113.6 104 104.3C115.5 94.1 121.6 79.8 121.6 62.9C121.6 50.16 118.13 38.84 111.49 29.67Z" fill="#4A2F27" style="fill:#4A2F27;fill:color(display-p3 0.2902 0.1843 0.1529);fill-opacity:1;"/>
<defs>
<radialGradient id="paint0_radial_169_9858" cx="0" cy="0" r="1" gradientUnits="userSpaceOnUse" gradientTransform="translate(63.6001 62.9) rotate(180) scale(56.9597 56.9597)">
<stop offset="0.5" stop-color="#FDE030" style="stop-color:#FDE030;stop-color:color(display-p3 0.9922 0.8784 0.1882);stop-opacity:1;"/>
<stop offset="0.9188" stop-color="#F7C02B" style="stop-color:#F7C02B;stop-color:color(display-p3 0.9686 0.7529 0.1686);stop-opacity:1;"/>
<stop offset="1" stop-color="#F4A223" style="stop-color:#F4A223;stop-color:color(display-p3 0.9569 0.6353 0.1373);stop-opacity:1;"/>
</radialGradient>
<radialGradient id="paint1_radial_169_9858" cx="0" cy="0" r="1" gradientUnits="userSpaceOnUse" gradientTransform="translate(38.5991 34.5377) rotate(-43.2082) scale(102.024 101.825)">
<stop offset="0.3533" stop-color="#F9DDBD" style="stop-color:#F9DDBD;stop-color:color(display-p3 0.9765 0.8667 0.7412);stop-opacity:1;"/>
<stop offset="0.8723" stop-color="#FFD29C" style="stop-color:#FFD29C;stop-color:color(display-p3 1.0000 0.8235 0.6118);stop-opacity:1;"/>
</radialGradient>
<radialGradient id="paint2_radial_169_9858" cx="0" cy="0" r="1" gradientUnits="userSpaceOnUse" gradientTransform="translate(38.5991 34.5377) rotate(-43.2082) scale(102.024 101.825)">
<stop offset="0.3533" stop-color="#70534A" style="stop-color:#70534A;stop-color:color(display-p3 0.4392 0.3255 0.2902);stop-opacity:1;"/>
<stop offset="0.8723" stop-color="#5C4037" style="stop-color:#5C4037;stop-color:color(display-p3 0.3608 0.2510 0.2157);stop-opacity:1;"/>
</radialGradient>
</defs>
</svg>
