<svg width="128" height="129" viewBox="0 0 128 129" fill="none" xmlns="http://www.w3.org/2000/svg">
<path d="M124 38.825C122.2 39.925 120.3 40.925 118.6 41.625C116.8 42.425 115.1 43.125 113.4 43.625C111.7 44.125 110 44.625 108.3 44.925C106.6 45.225 105 45.425 103.4 45.625C101.8 45.825 100.2 45.825 98.6 45.825C97 45.825 95.5 45.725 94 45.625C92.5 45.525 91 45.325 89.5 45.125C88 44.925 86.6 44.625 85.1 44.425C83.6 44.225 82.2 43.825 80.8 43.525C79.4 43.225 78 42.825 76.6 42.525C75.2 42.125 73.8 41.725 72.4 41.325C71 40.925 69.6 40.525 68.2 40.125C66.8 39.725 65.4 39.325 64 38.925C62.6 38.525 61.2 38.125 59.8 37.725C58.4 37.325 57 36.925 55.6 36.525C54.2 36.125 52.8 35.725 51.4 35.325C50 34.925 48.6 34.625 47.2 34.325C45.8 34.025 44.3 33.725 42.9 33.425C41.4 33.125 40 32.925 38.5 32.725C37 32.525 35.5 32.325 34 32.225C32.5 32.125 30.9 32.025 29.4 32.025C27.9 32.025 26.3 32.125 24.6 32.225C22.9 32.325 21.4 32.625 19.7 32.925C18 33.225 16.4 33.625 14.6 34.225C12.8 34.825 11.1 35.425 9.4 36.225C7.6 37.025 5.8 37.925 4 39.025V34.025C4 34.025 4 28.125 4 26.625V21.625C5.8 20.525 7.7 19.525 9.4 18.725C11.1 17.925 12.9 17.225 14.6 16.725C16.3 16.225 18 15.825 19.7 15.425C21.4 15.125 23 14.925 24.6 14.725C26.2 14.625 27.8 14.525 29.4 14.525C31 14.525 32.5 14.625 34 14.725C35.5 14.825 37 15.025 38.5 15.225C40 15.425 41.5 15.625 42.9 15.925C44.3 16.225 45.8 16.525 47.2 16.825C48.6 17.125 50 17.525 51.4 17.825C52.8 18.225 54.2 18.625 55.6 18.925C57 19.225 58.4 19.725 59.8 20.125C61.2 20.525 62.6 20.925 64 21.325C65.4 21.725 66.8 22.125 68.2 22.525C69.6 22.925 71 23.325 72.4 23.725C73.8 24.125 75.2 24.525 76.6 24.825C78 25.125 79.4 25.525 80.8 25.825C82.2 26.125 83.7 26.425 85.1 26.725C86.5 27.025 88 27.225 89.5 27.425C91 27.625 92.5 27.825 94 27.925C95.5 28.025 97.1 28.125 98.6 28.125C100.1 28.125 101.7 28.025 103.4 27.925C105.1 27.825 106.6 27.525 108.3 27.225C110 26.925 111.6 26.525 113.4 25.925C115.2 25.325 116.9 24.725 118.6 23.925C120.3 23.125 122.2 22.225 124 21.025V26.025V30.425C124 30.825 124 36.925 124 38.825Z" fill="#D42C00" style="fill:#D42C00;fill:color(display-p3 0.8314 0.1725 0.0000);fill-opacity:1;"/>
<path d="M124 56.225C117.24 60.355 109.29 62.855 101.37 63.185C93.37 63.525 85.48 62.055 77.75 60.185C61.77 56.335 46.09 49.415 29.4 49.425C20.53 49.425 11.7 51.765 4 56.225C4 51.885 4 38.835 4 38.835C4 38.835 5.92 37.705 6.58 37.365C8.76 36.215 11.08 35.215 13.41 34.415C18.32 32.725 23.48 31.935 28.66 31.835C39.3 31.645 49.67 34.635 59.8 37.525C70.1 40.465 80.33 43.785 91 45.125C102.47 46.565 114.05 44.705 124 38.625C124 44.495 124 50.355 124 56.225Z" fill="#FD9855" style="fill:#FD9855;fill:color(display-p3 0.9922 0.5961 0.3333);fill-opacity:1;"/>
<path d="M124 73.625C117.24 77.755 109.29 80.255 101.37 80.585C93.48 80.915 85.33 79.675 77.75 77.545C69.47 75.225 61.2 72.815 52.93 70.455C49.05 69.345 45.06 68.435 41.07 67.785C37.25 67.165 33.28 66.625 29.41 66.615C20.34 66.585 11.83 69.085 4.01001 73.615C4.01001 69.385 4.01001 56.215 4.01001 56.215C4.01001 56.215 5.70001 55.225 6.26001 54.925C8.49001 53.725 10.86 52.695 13.24 51.855C18.19 50.125 23.43 49.315 28.66 49.225C39.17 49.045 49.41 51.955 59.42 54.805C69.85 57.795 80.2 61.165 91 62.525C102.47 63.965 114.05 62.105 124 56.025C124 61.895 124 67.755 124 73.625Z" fill="white" style="fill:white;fill-opacity:1;"/>
<path d="M124 91.025C117.3 95.115 109.57 97.495 101.74 97.925C93.85 98.355 85.73 97.155 78.13 95.055C69.84 92.765 61.58 90.335 53.31 87.965C45.64 85.775 37.76 84.095 29.75 84.025C20.7 83.945 11.74 86.295 4 91.025C4 86.795 4 73.625 4 73.625C4 73.625 6.99 71.935 7.7 71.595C12.71 69.165 17.98 67.675 23.49 66.965C34.46 65.555 45.49 68.365 55.98 71.235C61.6 72.765 67.18 74.435 72.78 76.035C78.17 77.575 83.56 79.025 89.12 79.775C95.1 80.575 101.17 80.885 107.15 79.835C113.08 78.785 118.85 76.675 124 73.525C124 79.355 124 85.195 124 91.025Z" fill="#D161A2" style="fill:#D161A2;fill:color(display-p3 0.8196 0.3804 0.6353);fill-opacity:1;"/>
<path d="M124 108.425C122.2 109.525 120.3 110.525 118.6 111.225C116.8 112.025 115.1 112.625 113.4 113.225C111.7 113.825 110 114.125 108.3 114.525C106.6 114.925 105 115.025 103.4 115.225C101.8 115.325 100.2 115.425 98.6 115.425C97 115.425 95.5 115.325 94 115.225C92.5 115.125 91 114.925 89.5 114.725C88 114.525 86.6 114.325 85.1 114.025C83.6 113.725 82.2 113.425 80.8 113.125C79.4 112.825 78 112.425 76.6 112.025C75.2 111.625 73.8 111.225 72.4 110.825C71 110.425 69.6 110.025 68.2 109.625C66.8 109.225 65.4 108.825 64 108.425C62.6 108.025 61.2 107.625 59.8 107.225C58.4 106.825 57 106.425 55.6 106.025C54.2 105.625 52.8 105.225 51.4 104.825C50 104.425 48.6 104.125 47.2 103.725C45.8 103.325 44.3 103.125 42.9 102.825C41.4 102.525 40 102.325 38.5 102.125C37 101.925 35.5 101.725 34 101.625C32.5 101.525 30.9 101.425 29.4 101.425C27.9 101.425 26.3 101.525 24.6 101.625C22.9 101.725 21.4 102.025 19.7 102.325C18 102.625 16.4 103.025 14.6 103.625C12.8 104.225 11.1 104.825 9.4 105.625C7.7 106.425 5.8 107.325 4 108.425V103.425C4 103.425 4 97.525 4 96.025V91.025C5.8 89.925 7.7 88.925 9.4 88.225C11.2 87.425 12.9 86.825 14.6 86.225C16.3 85.625 18 85.325 19.7 84.925C21.4 84.625 23 84.425 24.6 84.225C26.2 84.125 27.8 84.025 29.4 84.025C31 84.025 32.5 84.125 34 84.225C35.5 84.325 37 84.525 38.5 84.725C40 84.925 41.5 85.125 42.9 85.425C44.3 85.725 45.8 86.025 47.2 86.325C48.6 86.625 50 87.025 51.4 87.425C52.8 87.825 54.2 88.225 55.6 88.625C57 89.025 58.4 89.425 59.8 89.825C61.2 90.225 62.6 90.625 64 91.025C65.4 91.425 66.8 91.825 68.2 92.225C69.6 92.625 71 93.025 72.4 93.425C73.8 93.825 75.2 94.225 76.6 94.625C78 95.025 79.4 95.325 80.8 95.725C82.2 96.025 83.7 96.325 85.1 96.625C86.5 96.925 88 97.125 89.5 97.325C91 97.525 92.5 97.725 94 97.825C95.5 97.925 97.1 98.025 98.6 98.025C100.1 98.025 101.7 97.925 103.4 97.825C105.1 97.725 106.6 97.425 108.3 97.125C110 96.825 111.6 96.425 113.4 95.825C115.2 95.225 116.9 94.625 118.6 93.825C120.3 93.025 122.2 92.125 124 91.025V96.025V103.425C124 103.425 124 106.525 124 108.425Z" fill="#A20161" style="fill:#A20161;fill:color(display-p3 0.6353 0.0039 0.3804);fill-opacity:1;"/>
<path opacity="0.3" d="M124 107.825C122.15 108.945 120.34 109.885 118.57 110.675C116.79 111.475 115.05 112.125 113.33 112.655C111.61 113.185 109.93 113.605 108.27 113.915C106.61 114.235 104.98 114.455 103.38 114.595C101.77 114.735 100.19 114.795 98.63 114.795C97.07 114.795 95.53 114.735 94.01 114.615C92.49 114.505 90.99 114.335 89.51 114.135C88.03 113.925 86.56 113.685 85.11 113.405C83.66 113.125 82.22 112.825 80.79 112.495C79.36 112.165 77.94 111.815 76.54 111.445C75.14 111.075 73.73 110.685 72.33 110.295C70.93 109.895 69.54 109.485 68.16 109.075C66.77 108.665 65.39 108.245 64 107.825C62.62 107.405 61.23 106.985 59.84 106.575C58.45 106.165 57.06 105.755 55.67 105.355C54.27 104.955 52.87 104.575 51.46 104.205C50.05 103.835 48.63 103.485 47.21 103.155C45.79 102.825 44.34 102.515 42.89 102.245C41.44 101.965 39.97 101.725 38.49 101.515C37.01 101.305 35.51 101.145 33.99 101.035C32.47 100.925 30.93 100.855 29.37 100.855C27.81 100.855 26.23 100.915 24.62 101.055C23.01 101.195 21.38 101.415 19.73 101.735C18.07 102.055 16.39 102.465 14.67 102.995C12.95 103.525 11.21 104.175 9.43 104.975C7.65 105.775 5.84 106.715 4 107.825V102.215V96.895V91.825V86.965V82.285C4 82.285 4 79.235 4 77.745V73.315C4 73.315 4 70.395 4 68.955C4 67.515 4 66.065 4 64.625V60.295V55.935V51.505C4 51.505 4 48.505 4 46.965C4 45.425 4 43.875 4 42.285V37.425C4 37.425 4 34.085 4 32.355V27.035V21.425C5.85 20.305 7.66 19.365 9.43 18.575C11.2 17.785 12.95 17.125 14.67 16.595C16.39 16.065 18.07 15.645 19.73 15.335C21.39 15.015 23.02 14.795 24.62 14.655C26.23 14.515 27.81 14.455 29.37 14.455C30.93 14.455 32.47 14.515 33.99 14.635C35.51 14.745 37.01 14.915 38.49 15.115C39.97 15.315 41.44 15.565 42.89 15.845C44.34 16.125 45.78 16.425 47.21 16.755C48.64 17.085 50.06 17.435 51.46 17.805C52.87 18.175 54.27 18.565 55.67 18.955C57.07 19.345 58.46 19.765 59.84 20.175C61.22 20.585 62.61 21.005 64 21.425C65.38 21.845 66.77 22.265 68.16 22.675C69.55 23.085 70.94 23.495 72.33 23.895C73.72 24.295 75.13 24.675 76.54 25.045C77.95 25.415 79.37 25.765 80.79 26.095C82.22 26.425 83.66 26.735 85.11 27.005C86.56 27.285 88.03 27.525 89.51 27.735C90.99 27.945 92.49 28.105 94.01 28.215C95.53 28.325 97.07 28.395 98.63 28.395C100.19 28.395 101.77 28.335 103.38 28.195C104.99 28.055 106.62 27.835 108.27 27.515C109.93 27.195 111.61 26.785 113.33 26.255C115.05 25.725 116.79 25.075 118.57 24.275C120.35 23.475 122.16 22.535 124 21.425V27.035V32.355V37.425C124 37.425 124 40.695 124 42.285V46.965C124 46.965 124 50.015 124 51.505C124 52.995 124 54.475 124 55.935V60.295V64.625V68.955C124 68.955 124 71.855 124 73.315C124 74.775 124 76.255 124 77.745V82.285C124 82.285 124 85.375 124 86.965V91.825V96.895V102.215V107.825Z" fill="url(#paint0_linear_159_34)" style=""/>
<defs>
<linearGradient id="paint0_linear_159_34" x1="5.3703" y1="23.284" x2="122.37" y2="105.785" gradientUnits="userSpaceOnUse">
<stop stop-color="white" stop-opacity="0" style="stop-color:none;stop-opacity:0;"/>
<stop offset="0.1646" stop-color="#C8C8C8" stop-opacity="0.1646" style="stop-color:#C8C8C8;stop-color:color(display-p3 0.7843 0.7843 0.7843);stop-opacity:0.1646;"/>
<stop offset="0.3934" stop-color="#828282" stop-opacity="0.3934" style="stop-color:#828282;stop-color:color(display-p3 0.5098 0.5098 0.5098);stop-opacity:0.3934;"/>
<stop offset="0.5997" stop-color="#4A4A4A" stop-opacity="0.5997" style="stop-color:#4A4A4A;stop-color:color(display-p3 0.2902 0.2902 0.2902);stop-opacity:0.5997;"/>
<stop offset="0.7759" stop-color="#222222" stop-opacity="0.7759" style="stop-color:#222222;stop-color:color(display-p3 0.1333 0.1333 0.1333);stop-opacity:0.7759;"/>
<stop offset="0.9151" stop-color="#090909" stop-opacity="0.9151" style="stop-color:#090909;stop-color:color(display-p3 0.0353 0.0353 0.0353);stop-opacity:0.9151;"/>
<stop offset="1" style="stop-color:black;stop-opacity:1;"/>
</linearGradient>
</defs>
</svg>
