<svg width="128" height="128" viewBox="0 0 128 128" fill="none" xmlns="http://www.w3.org/2000/svg">
<path d="M63.6001 118.8C35.7001 118.8 5.6001 101.3 5.6001 62.9C5.6001 24.5 35.7001 7 63.6001 7C79.1001 7 93.4001 12.1 104 21.4C115.5 31.6 121.6 46 121.6 62.9C121.6 79.8 115.5 94.1 104 104.3C93.4001 113.6 79.0001 118.8 63.6001 118.8Z" fill="url(#paint0_radial_169_13593)" style=""/>
<path d="M63.6001 118.8C35.7001 118.8 5.6001 101.3 5.6001 62.9C5.6001 24.5 35.7001 7 63.6001 7C79.1001 7 93.4001 12.1 104 21.4C115.5 31.6 121.6 46 121.6 62.9C121.6 79.8 115.5 94.1 104 104.3C93.4001 113.6 79.0001 118.8 63.6001 118.8Z" fill="url(#paint1_radial_169_13593)" style=""/>
<path d="M63.6001 118.8C35.7001 118.8 5.6001 101.3 5.6001 62.9C5.6001 24.5 35.7001 7 63.6001 7C79.1001 7 93.4001 12.1 104 21.4C115.5 31.6 121.6 46 121.6 62.9C121.6 79.8 115.5 94.1 104 104.3C93.4001 113.6 79.0001 118.8 63.6001 118.8Z" fill="url(#paint2_radial_169_13593)" style=""/>
<path d="M63.6001 118.8C35.7001 118.8 5.6001 101.3 5.6001 62.9C5.6001 24.5 35.7001 7 63.6001 7C79.1001 7 93.4001 12.1 104 21.4C115.5 31.6 121.6 46 121.6 62.9C121.6 79.8 115.5 94.1 104 104.3C93.4001 113.6 79.0001 118.8 63.6001 118.8Z" fill="url(#paint3_radial_169_13593)" style=""/>
<path d="M63.6001 118.8C35.7001 118.8 5.6001 101.3 5.6001 62.9C5.6001 24.5 35.7001 7 63.6001 7C79.1001 7 93.4001 12.1 104 21.4C115.5 31.6 121.6 46 121.6 62.9C121.6 79.8 115.5 94.1 104 104.3C93.4001 113.6 79.0001 118.8 63.6001 118.8Z" fill="url(#paint4_radial_169_13593)" style=""/>
<path d="M111.49 29.67C116.82 38.27 119.6 48.51 119.6 59.9C119.6 76.8 113.5 91.1 102 101.3C91.4002 110.6 77.0002 115.8 61.6002 115.8C43.5402 115.8 24.6002 108.45 13.4202 92.86C24.1802 110.52 44.4202 118.8 63.6002 118.8C79.0002 118.8 93.4002 113.6 104 104.3C115.5 94.1001 121.6 79.8 121.6 62.9C121.6 50.16 118.13 38.84 111.49 29.67Z" fill="#EB8F00" style="fill:#EB8F00;fill:color(display-p3 0.9216 0.5608 0.0000);fill-opacity:1;"/>
<path d="M111.49 29.67C116.82 38.27 119.6 48.51 119.6 59.9C119.6 76.8 113.5 91.1 102 101.3C91.4002 110.6 77.0002 115.8 61.6002 115.8C43.5402 115.8 24.6002 108.45 13.4202 92.86C24.1802 110.52 44.4202 118.8 63.6002 118.8C79.0002 118.8 93.4002 113.6 104 104.3C115.5 94.1001 121.6 79.8 121.6 62.9C121.6 50.16 118.13 38.84 111.49 29.67Z" fill="#F3B872" style="fill:#F3B872;fill:color(display-p3 0.9542 0.7229 0.4453);fill-opacity:1;"/>
<path d="M111.49 29.67C116.82 38.27 119.6 48.51 119.6 59.9C119.6 76.8 113.5 91.1 102 101.3C91.4002 110.6 77.0002 115.8 61.6002 115.8C43.5402 115.8 24.6002 108.45 13.4202 92.86C24.1802 110.52 44.4202 118.8 63.6002 118.8C79.0002 118.8 93.4002 113.6 104 104.3C115.5 94.1001 121.6 79.8 121.6 62.9C121.6 50.16 118.13 38.84 111.49 29.67Z" fill="#91674D" style="fill:#91674D;fill:color(display-p3 0.5686 0.4039 0.3020);fill-opacity:1;"/>
<path d="M44 40.9399C39.81 40.9399 36 44.4799 36 50.3599C36 56.2399 39.81 59.7699 44 59.7699C48.2 59.7699 52 56.2299 52 50.3599C52 44.4899 48.24 40.9399 44 40.9399Z" fill="#49362E" style="fill:#49362E;fill:color(display-p3 0.2863 0.2118 0.1804);fill-opacity:1;"/>
<path d="M44 40.9399C39.81 40.9399 36 44.4799 36 50.3599C36 56.2399 39.81 59.7699 44 59.7699C48.2 59.7699 52 56.2299 52 50.3599C52 44.4899 48.24 40.9399 44 40.9399Z" fill="#1A1717" style="fill:#1A1717;fill:color(display-p3 0.1020 0.0902 0.0902);fill-opacity:1;"/>
<path d="M44 40.9399C39.81 40.9399 36 44.4799 36 50.3599C36 56.2399 39.81 59.7699 44 59.7699C48.2 59.7699 52 56.2299 52 50.3599C52 44.4899 48.24 40.9399 44 40.9399Z" fill="#49362E" style="fill:#49362E;fill:color(display-p3 0.2863 0.2118 0.1804);fill-opacity:1;"/>
<path d="M43.65 44.87C42.23 44.19 40.52 44.79 39.83 46.21C39.3 47.32 39.54 48.65 40.43 49.51C41.85 50.19 43.56 49.59 44.25 48.17C44.78 47.06 44.54 45.73 43.65 44.87Z" fill="#555050" style="fill:#555050;fill:color(display-p3 0.3333 0.3125 0.3125);fill-opacity:1;"/>
<path d="M43.65 44.87C42.23 44.19 40.52 44.79 39.83 46.21C39.3 47.32 39.54 48.65 40.43 49.51C41.85 50.19 43.56 49.59 44.25 48.17C44.78 47.06 44.54 45.73 43.65 44.87Z" fill="#6A564E" style="fill:#6A564E;fill:color(display-p3 0.4167 0.3385 0.3056);fill-opacity:1;"/>
<path d="M82.3999 40.9399C78.2099 40.9399 74.3999 44.4799 74.3999 50.3599C74.3999 56.2399 78.2099 59.7699 82.3999 59.7699C86.5899 59.7699 90.3999 56.2299 90.3999 50.3599C90.3999 44.4899 86.5899 40.9399 82.3999 40.9399Z" fill="#49362E" style="fill:#49362E;fill:color(display-p3 0.2863 0.2118 0.1804);fill-opacity:1;"/>
<path d="M82.3999 40.9399C78.2099 40.9399 74.3999 44.4799 74.3999 50.3599C74.3999 56.2399 78.2099 59.7699 82.3999 59.7699C86.5899 59.7699 90.3999 56.2299 90.3999 50.3599C90.3999 44.4899 86.5899 40.9399 82.3999 40.9399Z" fill="#1A1717" style="fill:#1A1717;fill:color(display-p3 0.1020 0.0902 0.0902);fill-opacity:1;"/>
<path d="M82.3999 40.9399C78.2099 40.9399 74.3999 44.4799 74.3999 50.3599C74.3999 56.2399 78.2099 59.7699 82.3999 59.7699C86.5899 59.7699 90.3999 56.2299 90.3999 50.3599C90.3999 44.4899 86.5899 40.9399 82.3999 40.9399Z" fill="#49362E" style="fill:#49362E;fill:color(display-p3 0.2863 0.2118 0.1804);fill-opacity:1;"/>
<path d="M82.0001 44.87C80.5801 44.19 78.8701 44.79 78.1801 46.21C77.6501 47.32 77.8901 48.65 78.7801 49.51C80.2001 50.19 81.9101 49.59 82.6001 48.17C83.1301 47.06 82.8901 45.73 82.0001 44.87Z" fill="#555050" style="fill:#555050;fill:color(display-p3 0.3333 0.3125 0.3125);fill-opacity:1;"/>
<path d="M82.0001 44.87C80.5801 44.19 78.8701 44.79 78.1801 46.21C77.6501 47.32 77.8901 48.65 78.7801 49.51C80.2001 50.19 81.9101 49.59 82.6001 48.17C83.1301 47.06 82.8901 45.73 82.0001 44.87Z" fill="#6A564E" style="fill:#6A564E;fill:color(display-p3 0.4167 0.3385 0.3056);fill-opacity:1;"/>
<path d="M64.1799 78.19C73.2499 78.11 81.9299 81.9299 87.9999 88.6699C88.4599 89.1999 88.5699 89.9499 88.2799 90.5899C87.9899 91.2399 87.3499 91.6599 86.6399 91.6699C86.3199 91.6699 85.9999 91.5799 85.7199 91.4199C80.8999 88.6499 72.8399 85.2099 64.1999 85.2099H64.0599C55.4299 85.2099 47.3599 88.6499 42.5499 91.4199C42.2699 91.5799 41.9499 91.6699 41.6299 91.6699C40.9199 91.6599 40.2899 91.2399 39.9999 90.5899C39.6999 89.9499 39.8099 89.1999 40.2799 88.6699C46.3499 81.9299 55.0199 78.11 64.0899 78.19" fill="#49362E" style="fill:#49362E;fill:color(display-p3 0.2863 0.2118 0.1804);fill-opacity:1;"/>
<path d="M64.1799 78.19C73.2499 78.11 81.9299 81.9299 87.9999 88.6699C88.4599 89.1999 88.5699 89.9499 88.2799 90.5899C87.9899 91.2399 87.3499 91.6599 86.6399 91.6699C86.3199 91.6699 85.9999 91.5799 85.7199 91.4199C80.8999 88.6499 72.8399 85.2099 64.1999 85.2099H64.0599C55.4299 85.2099 47.3599 88.6499 42.5499 91.4199C42.2699 91.5799 41.9499 91.6699 41.6299 91.6699C40.9199 91.6599 40.2899 91.2399 39.9999 90.5899C39.6999 89.9499 39.8099 89.1999 40.2799 88.6699C46.3499 81.9299 55.0199 78.11 64.0899 78.19" fill="#1A1717" style="fill:#1A1717;fill:color(display-p3 0.1020 0.0902 0.0902);fill-opacity:1;"/>
<path d="M64.1799 78.19C73.2499 78.11 81.9299 81.9299 87.9999 88.6699C88.4599 89.1999 88.5699 89.9499 88.2799 90.5899C87.9899 91.2399 87.3499 91.6599 86.6399 91.6699C86.3199 91.6699 85.9999 91.5799 85.7199 91.4199C80.8999 88.6499 72.8399 85.2099 64.1999 85.2099H64.0599C55.4299 85.2099 47.3599 88.6499 42.5499 91.4199C42.2699 91.5799 41.9499 91.6699 41.6299 91.6699C40.9199 91.6599 40.2899 91.2399 39.9999 90.5899C39.6999 89.9499 39.8099 89.1999 40.2799 88.6699C46.3499 81.9299 55.0199 78.11 64.0899 78.19" fill="#5D4037" style="fill:#5D4037;fill:color(display-p3 0.3647 0.2510 0.2157);fill-opacity:1;"/>
<defs>
<radialGradient id="paint0_radial_169_13593" cx="0" cy="0" r="1" gradientUnits="userSpaceOnUse" gradientTransform="translate(63.6001 62.9) scale(56.9597 56.9597)">
<stop offset="0.5" stop-color="#FDE030" style="stop-color:#FDE030;stop-color:color(display-p3 0.9922 0.8784 0.1882);stop-opacity:1;"/>
<stop offset="0.92" stop-color="#F7C02B" style="stop-color:#F7C02B;stop-color:color(display-p3 0.9686 0.7529 0.1686);stop-opacity:1;"/>
<stop offset="1" stop-color="#F4A223" style="stop-color:#F4A223;stop-color:color(display-p3 0.9569 0.6353 0.1373);stop-opacity:1;"/>
</radialGradient>
<radialGradient id="paint1_radial_169_13593" cx="0" cy="0" r="1" gradientUnits="userSpaceOnUse" gradientTransform="translate(38.5991 34.5377) rotate(-43.2082) scale(102.024 101.825)">
<stop offset="0.3533" stop-color="#F9DDBD" style="stop-color:#F9DDBD;stop-color:color(display-p3 0.9765 0.8667 0.7412);stop-opacity:1;"/>
<stop offset="0.8723" stop-color="#FFD29C" style="stop-color:#FFD29C;stop-color:color(display-p3 1.0000 0.8235 0.6118);stop-opacity:1;"/>
</radialGradient>
<radialGradient id="paint2_radial_169_13593" cx="0" cy="0" r="1" gradientUnits="userSpaceOnUse" gradientTransform="translate(38.5991 34.5377) rotate(-43.2082) scale(102.024 101.825)">
<stop offset="0.3533" stop-color="#70534A" style="stop-color:#70534A;stop-color:color(display-p3 0.4392 0.3255 0.2902);stop-opacity:1;"/>
<stop offset="0.8723" stop-color="#5C4037" style="stop-color:#5C4037;stop-color:color(display-p3 0.3608 0.2510 0.2157);stop-opacity:1;"/>
</radialGradient>
<radialGradient id="paint3_radial_169_13593" cx="0" cy="0" r="1" gradientUnits="userSpaceOnUse" gradientTransform="translate(38.5991 34.5377) rotate(-43.2082) scale(102.024 101.825)">
<stop offset="0.3533" stop-color="#A37A58" style="stop-color:#A37A58;stop-color:color(display-p3 0.6375 0.4772 0.3453);stop-opacity:1;"/>
<stop offset="0.8723" stop-color="#8D5738" style="stop-color:#8D5738;stop-color:color(display-p3 0.5529 0.3412 0.2196);stop-opacity:1;"/>
</radialGradient>
<radialGradient id="paint4_radial_169_13593" cx="0" cy="0" r="1" gradientUnits="userSpaceOnUse" gradientTransform="translate(38.5991 34.5377) rotate(-43.2082) scale(102.024 101.825)">
<stop offset="0.3533" stop-color="#AD8264" style="stop-color:#AD8264;stop-color:color(display-p3 0.6784 0.5098 0.3922);stop-opacity:1;"/>
<stop offset="0.8723" stop-color="#A47B62" style="stop-color:#A47B62;stop-color:color(display-p3 0.6431 0.4824 0.3843);stop-opacity:1;"/>
</radialGradient>
</defs>
</svg>
