<svg width="128" height="128" viewBox="0 0 128 128" fill="none" xmlns="http://www.w3.org/2000/svg">
<path d="M63.6 118.8C35.7 118.8 5.59998 101.3 5.59998 62.9C5.59998 24.5 35.7 7 63.6 7C79.1 7 93.4 12.1 104 21.4C115.5 31.6 121.6 46 121.6 62.9C121.6 79.8 115.5 94.1 104 104.3C93.4 113.6 79 118.8 63.6 118.8Z" fill="url(#paint0_radial_169_10706)" style=""/>
<path d="M63.6 118.8C35.7 118.8 5.59998 101.3 5.59998 62.9C5.59998 24.5 35.7 7 63.6 7C79.1 7 93.4 12.1 104 21.4C115.5 31.6 121.6 46 121.6 62.9C121.6 79.8 115.5 94.1 104 104.3C93.4 113.6 79 118.8 63.6 118.8Z" fill="url(#paint1_radial_169_10706)" style=""/>
<path d="M63.6 118.8C35.7 118.8 5.59998 101.3 5.59998 62.9C5.59998 24.5 35.7 7 63.6 7C79.1 7 93.4 12.1 104 21.4C115.5 31.6 121.6 46 121.6 62.9C121.6 79.8 115.5 94.1 104 104.3C93.4 113.6 79 118.8 63.6 118.8Z" fill="url(#paint2_radial_169_10706)" style=""/>
<path d="M63.6 118.8C35.7 118.8 5.59998 101.3 5.59998 62.9C5.59998 24.5 35.7 7 63.6 7C79.1 7 93.4 12.1 104 21.4C115.5 31.6 121.6 46 121.6 62.9C121.6 79.8 115.5 94.1 104 104.3C93.4 113.6 79 118.8 63.6 118.8Z" fill="url(#paint3_radial_169_10706)" style=""/>
<path d="M111.49 29.67C116.82 38.27 119.6 48.51 119.6 59.9C119.6 76.8 113.5 91.1 102 101.3C91.3999 110.6 76.9999 115.8 61.5999 115.8C43.5399 115.8 24.5999 108.45 13.4199 92.86C24.1799 110.52 44.4199 118.8 63.5999 118.8C78.9999 118.8 93.3999 113.6 104 104.3C115.5 94.1 121.6 79.8 121.6 62.9C121.6 50.16 118.13 38.84 111.49 29.67Z" fill="#EB8F00" style="fill:#EB8F00;fill:color(display-p3 0.9216 0.5608 0.0000);fill-opacity:1;"/>
<path d="M111.49 29.67C116.82 38.27 119.6 48.51 119.6 59.9C119.6 76.8 113.5 91.1 102 101.3C91.3999 110.6 76.9999 115.8 61.5999 115.8C43.5399 115.8 24.5999 108.45 13.4199 92.86C24.1799 110.52 44.4199 118.8 63.5999 118.8C78.9999 118.8 93.3999 113.6 104 104.3C115.5 94.1 121.6 79.8 121.6 62.9C121.6 50.16 118.13 38.84 111.49 29.67Z" fill="#F3B872" style="fill:#F3B872;fill:color(display-p3 0.9542 0.7229 0.4453);fill-opacity:1;"/>
<path d="M111.49 29.67C116.82 38.27 119.6 48.51 119.6 59.9C119.6 76.8 113.5 91.1 102 101.3C91.3999 110.6 76.9999 115.8 61.5999 115.8C43.5399 115.8 24.5999 108.45 13.4199 92.86C24.1799 110.52 44.4199 118.8 63.5999 118.8C78.9999 118.8 93.3999 113.6 104 104.3C115.5 94.1 121.6 79.8 121.6 62.9C121.6 50.16 118.13 38.84 111.49 29.67Z" fill="#4A2F27" style="fill:#4A2F27;fill:color(display-p3 0.2902 0.1843 0.1529);fill-opacity:1;"/>
<path d="M82.56 71.19C92.1918 71.19 100 63.3818 100 53.75C100 44.1181 92.1918 36.31 82.56 36.31C72.9281 36.31 65.12 44.1181 65.12 53.75C65.12 63.3818 72.9281 71.19 82.56 71.19Z" fill="white" style="fill:white;fill-opacity:1;"/>
<path d="M83.3101 61.35C87.4412 61.35 90.7901 57.9474 90.7901 53.75C90.7901 49.5526 87.4412 46.15 83.3101 46.15C79.179 46.15 75.8301 49.5526 75.8301 53.75C75.8301 57.9474 79.179 61.35 83.3101 61.35Z" fill="#42312C" style="fill:#42312C;fill:color(display-p3 0.2588 0.1922 0.1725);fill-opacity:1;"/>
<path d="M83.3101 61.35C87.4412 61.35 90.7901 57.9474 90.7901 53.75C90.7901 49.5526 87.4412 46.15 83.3101 46.15C79.179 46.15 75.8301 49.5526 75.8301 53.75C75.8301 57.9474 79.179 61.35 83.3101 61.35Z" fill="#42312C" style="fill:#42312C;fill:color(display-p3 0.2588 0.1922 0.1725);fill-opacity:1;"/>
<path d="M52.56 56.89L52.41 56.64C52.24 56.37 52.06 56.1 51.87 55.85C51.21 54.98 50.49 54.16 49.71 53.4C48.65 52.38 47.52 51.42 46.34 50.54C45.69 50.08 45.02 49.54 44.34 49.14C43.66 48.74 42.94 48.26 42.16 47.81C41.38 47.36 40.69 47.01 39.94 46.64C39.19 46.27 38.43 45.94 37.7 45.64C36.34 45.07 34.94 44.59 33.51 44.21C32.46 43.93 31.39 43.73 30.31 43.62C29.98 43.58 29.64 43.56 29.31 43.56H29C27.64 43.54 26.52 44.62 26.5 45.98C26.48 47.05 27.16 48.01 28.17 48.35L28.43 48.44L29.3 48.72C29.87 48.91 30.69 49.22 31.71 49.64C32.73 50.06 33.9 50.64 35.16 51.24L37.09 52.24C37.75 52.58 38.37 52.93 39.09 53.35L39.5 53.58C39.05 53.58 38.6 53.66 38.15 53.72C37.7 53.78 37.39 53.84 36.89 53.94C36.39 54.04 35.98 54.13 35.57 54.23C34.74 54.44 33.92 54.7 33.12 55C31.67 55.54 30.29 56.25 29 57.11C28.47 57.47 27.97 57.86 27.5 58.29C27.12 58.62 26.77 58.97 26.44 59.35C26.21 59.6 26 59.86 25.81 60.13L25.6 60.41C24.84 61.53 25.13 63.06 26.25 63.83C27.08 64.39 28.17 64.4 29 63.84L29.27 63.63L29.44 63.5L29.94 63.15C30.58 62.72 31.25 62.34 31.94 62.01C32.96 61.52 34.02 61.12 35.1 60.8C35.71 60.61 36.35 60.46 37 60.31C37.33 60.23 37.65 60.17 37.95 60.12C38.25 60.07 38.74 60 39 60C40.33 59.82 41.66 59.73 43 59.74C44.13 59.76 45.26 59.86 46.38 60.04C46.85 60.13 47.29 60.22 47.65 60.32C48.01 60.42 48.36 60.52 48.57 60.58L48.86 60.67L49.17 60.8L49.43 60.92C50.45 61.36 51.65 61.07 52.35 60.2C52.68 59.79 52.87 59.29 52.89 58.77C53.04 58.12 52.92 57.45 52.56 56.89Z" fill="#42312C" style="fill:#42312C;fill:color(display-p3 0.2588 0.1922 0.1725);fill-opacity:1;"/>
<path d="M52.56 56.89L52.41 56.64C52.24 56.37 52.06 56.1 51.87 55.85C51.21 54.98 50.49 54.16 49.71 53.4C48.65 52.38 47.52 51.42 46.34 50.54C45.69 50.08 45.02 49.54 44.34 49.14C43.66 48.74 42.94 48.26 42.16 47.81C41.38 47.36 40.69 47.01 39.94 46.64C39.19 46.27 38.43 45.94 37.7 45.64C36.34 45.07 34.94 44.59 33.51 44.21C32.46 43.93 31.39 43.73 30.31 43.62C29.98 43.58 29.64 43.56 29.31 43.56H29C27.64 43.54 26.52 44.62 26.5 45.98C26.48 47.05 27.16 48.01 28.17 48.35L28.43 48.44L29.3 48.72C29.87 48.91 30.69 49.22 31.71 49.64C32.73 50.06 33.9 50.64 35.16 51.24L37.09 52.24C37.75 52.58 38.37 52.93 39.09 53.35L39.5 53.58C39.05 53.58 38.6 53.66 38.15 53.72C37.7 53.78 37.39 53.84 36.89 53.94C36.39 54.04 35.98 54.13 35.57 54.23C34.74 54.44 33.92 54.7 33.12 55C31.67 55.54 30.29 56.25 29 57.11C28.47 57.47 27.97 57.86 27.5 58.29C27.12 58.62 26.77 58.97 26.44 59.35C26.21 59.6 26 59.86 25.81 60.13L25.6 60.41C24.84 61.53 25.13 63.06 26.25 63.83C27.08 64.39 28.17 64.4 29 63.84L29.27 63.63L29.44 63.5L29.94 63.15C30.58 62.72 31.25 62.34 31.94 62.01C32.96 61.52 34.02 61.12 35.1 60.8C35.71 60.61 36.35 60.46 37 60.31C37.33 60.23 37.65 60.17 37.95 60.12C38.25 60.07 38.74 60 39 60C40.33 59.82 41.66 59.73 43 59.74C44.13 59.76 45.26 59.86 46.38 60.04C46.85 60.13 47.29 60.22 47.65 60.32C48.01 60.42 48.36 60.52 48.57 60.58L48.86 60.67L49.17 60.8L49.43 60.92C50.45 61.36 51.65 61.07 52.35 60.2C52.68 59.79 52.87 59.29 52.89 58.77C53.04 58.12 52.92 57.45 52.56 56.89Z" fill="#42312C" style="fill:#42312C;fill:color(display-p3 0.2588 0.1922 0.1725);fill-opacity:1;"/>
<path d="M62.82 80.43C51.32 80.49 39.84 79.53 28.51 77.54C26.61 77.18 24.77 78.43 24.41 80.33C24.33 80.77 24.33 81.23 24.41 81.67C27.67 97.67 43.41 110.8 62.81 110.8C84.02 110.8 98.29 97.23 101.26 81.61C101.6 79.7 100.34 77.88 98.43 77.53C98.01 77.45 97.57 77.46 97.15 77.54C85.82 79.53 74.33 80.49 62.82 80.43Z" fill="#42312C" style="fill:#42312C;fill:color(display-p3 0.2588 0.1922 0.1725);fill-opacity:1;"/>
<path d="M62.82 80.43C51.32 80.49 39.84 79.53 28.51 77.54C26.61 77.18 24.77 78.43 24.41 80.33C24.33 80.77 24.33 81.23 24.41 81.67C27.67 97.67 43.41 110.8 62.81 110.8C84.02 110.8 98.29 97.23 101.26 81.61C101.6 79.7 100.34 77.88 98.43 77.53C98.01 77.45 97.57 77.46 97.15 77.54C85.82 79.53 74.33 80.49 62.82 80.43Z" fill="#42312C" style="fill:#42312C;fill:color(display-p3 0.2588 0.1922 0.1725);fill-opacity:1;"/>
<path d="M65.54 85H62.81H61.55C55.82 85 50.17 84.73 44.74 84.28V108.85C44.75 118.32 52.44 126 61.91 126H65.18C74.66 126 82.35 118.31 82.35 108.83V84.15C76.93 84.64 71.29 84.93 65.54 85Z" fill="#FF4081" style="fill:#FF4081;fill:color(display-p3 1.0000 0.2510 0.5059);fill-opacity:1;"/>
<path opacity="0.3" d="M63.55 106.25C64.65 106.25 65.55 105.35 65.55 104.25V85H62.82H61.55V104.24C61.54 105.34 62.44 106.24 63.54 106.25H63.55Z" fill="#AB3F2E" style="fill:#AB3F2E;fill:color(display-p3 0.6706 0.2471 0.1804);fill-opacity:1;"/>
<path opacity="0.3" d="M65.54 85H61.54C55.81 85 50.16 84.73 44.73 84.28V87.83C49.47 88.9 63.53 91.31 82.34 87.61V84.15C76.93 84.64 71.29 84.93 65.54 85Z" fill="#AB3F2E" style="fill:#AB3F2E;fill:color(display-p3 0.6706 0.2471 0.1804);fill-opacity:1;"/>
<defs>
<radialGradient id="paint0_radial_169_10706" cx="0" cy="0" r="1" gradientUnits="userSpaceOnUse" gradientTransform="translate(63.6 62.9) scale(56.9597 56.9597)">
<stop offset="0.5" stop-color="#FDE030" style="stop-color:#FDE030;stop-color:color(display-p3 0.9922 0.8784 0.1882);stop-opacity:1;"/>
<stop offset="0.92" stop-color="#F7C02B" style="stop-color:#F7C02B;stop-color:color(display-p3 0.9686 0.7529 0.1686);stop-opacity:1;"/>
<stop offset="1" stop-color="#F4A223" style="stop-color:#F4A223;stop-color:color(display-p3 0.9569 0.6353 0.1373);stop-opacity:1;"/>
</radialGradient>
<radialGradient id="paint1_radial_169_10706" cx="0" cy="0" r="1" gradientUnits="userSpaceOnUse" gradientTransform="translate(38.599 34.5377) rotate(-43.2082) scale(102.024 101.825)">
<stop offset="0.3533" stop-color="#F9DDBD" style="stop-color:#F9DDBD;stop-color:color(display-p3 0.9765 0.8667 0.7412);stop-opacity:1;"/>
<stop offset="0.8723" stop-color="#FFD29C" style="stop-color:#FFD29C;stop-color:color(display-p3 1.0000 0.8235 0.6118);stop-opacity:1;"/>
</radialGradient>
<radialGradient id="paint2_radial_169_10706" cx="0" cy="0" r="1" gradientUnits="userSpaceOnUse" gradientTransform="translate(38.599 34.5377) rotate(-43.2082) scale(102.024 101.825)">
<stop offset="0.3533" stop-color="#70534A" style="stop-color:#70534A;stop-color:color(display-p3 0.4392 0.3255 0.2902);stop-opacity:1;"/>
<stop offset="0.8723" stop-color="#5C4037" style="stop-color:#5C4037;stop-color:color(display-p3 0.3608 0.2510 0.2157);stop-opacity:1;"/>
</radialGradient>
<radialGradient id="paint3_radial_169_10706" cx="0" cy="0" r="1" gradientUnits="userSpaceOnUse" gradientTransform="translate(38.599 34.5377) rotate(-43.2082) scale(102.024 101.825)">
<stop offset="0.3533" stop-color="#A56C43" style="stop-color:#A56C43;stop-color:color(display-p3 0.6471 0.4235 0.2627);stop-opacity:1;"/>
<stop offset="0.8723" stop-color="#8D5738" style="stop-color:#8D5738;stop-color:color(display-p3 0.5529 0.3412 0.2196);stop-opacity:1;"/>
</radialGradient>
</defs>
</svg>
