<svg width="128" height="128" viewBox="0 0 128 128" fill="none" xmlns="http://www.w3.org/2000/svg">
<path d="M66.7107 37.0789L90.9961 61.2713C92.3872 62.7275 92.3453 65.0304 90.9031 66.4355L66.7107 90.7209C65.2591 92.1725 62.905 92.1725 61.4535 90.7209L37.2611 66.4355C35.8467 65.0211 35.8049 62.7368 37.168 61.2713L61.4535 37.0789C62.905 35.6273 65.2591 35.6273 66.7107 37.0789Z" fill="#1976D2" style="fill:#1976D2;fill:color(display-p3 0.0980 0.4627 0.8235);fill-opacity:1;"/>
<path d="M64.4309 38.9863L86.9949 61.5038C88.2929 62.8484 88.2557 64.9885 86.9112 66.2865C86.9065 66.2912 86.9065 66.2912 86.9019 66.2958L64.3843 88.8599C63.0351 90.2091 60.8532 90.2091 59.504 88.8645C59.504 88.8645 59.504 88.8645 59.4993 88.8599L37.0283 66.2958C35.6791 64.9978 35.6372 62.8577 36.9306 61.5085C36.9306 61.5085 36.9306 61.5085 36.9352 61.5038L59.5458 38.9863C60.8904 37.6371 63.077 37.6325 64.4309 38.9863C64.4309 38.9816 64.4262 38.9816 64.4309 38.9863Z" fill="#2196F3" style="fill:#2196F3;fill:color(display-p3 0.1294 0.5882 0.9529);fill-opacity:1;"/>
<path d="M58.9409 42.3362C58.1966 42.8479 43.5415 57.3634 43.5415 57.3634C43.5415 57.3634 42.3319 58.4334 43.1693 59.55C43.9603 60.5735 45.1699 60.0618 45.7747 59.5035C46.3795 58.9452 59.5923 46.0116 60.1506 45.3602C60.7042 44.6205 60.8112 43.6435 60.4297 42.8014C60.0575 42.057 59.4527 41.964 58.9409 42.3362Z" fill="#90CAF9" style="fill:#90CAF9;fill:color(display-p3 0.5647 0.7922 0.9765);fill-opacity:1;"/>
<path d="M41.5411 63.7883C42.3891 63.7883 43.0764 63.101 43.0764 62.2531C43.0764 61.4051 42.3891 60.7178 41.5411 60.7178C40.6932 60.7178 40.0059 61.4051 40.0059 62.2531C40.0059 63.101 40.6932 63.7883 41.5411 63.7883Z" fill="#90CAF9" style="fill:#90CAF9;fill:color(display-p3 0.5647 0.7922 0.9765);fill-opacity:1;"/>
</svg>
