<svg width="128" height="128" viewBox="0 0 128 128" fill="none" xmlns="http://www.w3.org/2000/svg">
<path d="M63.6001 118.8C35.7001 118.8 5.6001 101.3 5.6001 62.9C5.6001 24.5 35.7001 7 63.6001 7C79.1001 7 93.4001 12.1 104 21.4C115.5 31.6 121.6 46 121.6 62.9C121.6 79.8 115.5 94.1 104 104.3C93.4001 113.6 79.0001 118.8 63.6001 118.8Z" fill="url(#paint0_radial_169_5833)" style=""/>
<path d="M63.6001 118.8C35.7001 118.8 5.6001 101.3 5.6001 62.9C5.6001 24.5 35.7001 7 63.6001 7C79.1001 7 93.4001 12.1 104 21.4C115.5 31.6 121.6 46 121.6 62.9C121.6 79.8 115.5 94.1 104 104.3C93.4001 113.6 79.0001 118.8 63.6001 118.8Z" fill="url(#paint1_radial_169_5833)" style=""/>
<path d="M72.8598 84.9301C74.5698 83.4201 75.6398 81.3301 75.8598 79.0601C76.0498 75.4601 75.1298 74.2201 73.9498 72.6501C71.2398 69.0001 63.5498 69.8701 63.5498 69.8701C61.5498 69.9501 59.1098 70.9301 59.3998 73.3101C59.7898 74.6601 60.8898 75.6901 62.2698 76.0001C65.2698 76.7301 69.6398 76.0001 69.7598 79.0901C69.8998 82.5501 64.5798 81.0901 64.1598 84.7901C63.7398 88.4901 69.7598 87.9801 69.7598 90.5001C69.7598 92.4301 67.7598 92.7601 65.6898 93.2001C63.8998 93.5701 60.4598 94.1301 60.1798 96.2001C59.8998 98.2701 61.0898 100.77 65.9298 100.04C73.5398 98.8901 76.0998 94.7201 76.0998 92.1601C76.1498 89.3901 74.9598 86.7401 72.8598 84.9301Z" fill="#312D2D" style="fill:#312D2D;fill:color(display-p3 0.1922 0.1765 0.1765);fill-opacity:1;"/>
<path d="M44 40.9401C39.81 40.9401 36 44.4801 36 50.3601C36 56.2401 39.81 59.7701 44 59.7701C48.2 59.7701 52 56.2301 52 50.3601C52 44.4901 48.24 40.9401 44 40.9401Z" fill="#312D2D" style="fill:#312D2D;fill:color(display-p3 0.1922 0.1765 0.1765);fill-opacity:1;"/>
<path d="M43.65 44.8701C42.23 44.1901 40.52 44.7901 39.83 46.2101C39.3 47.3201 39.54 48.6501 40.43 49.5101C41.85 50.1901 43.56 49.5901 44.25 48.1701C44.78 47.0601 44.54 45.7301 43.65 44.8701Z" fill="#767070" style="fill:#767070;fill:color(display-p3 0.4625 0.4374 0.4374);fill-opacity:1;"/>
<path d="M82.3999 40.9401C78.2099 40.9401 74.3999 44.4801 74.3999 50.3601C74.3999 56.2401 78.2099 59.7701 82.3999 59.7701C86.5899 59.7701 90.3999 56.2301 90.3999 50.3601C90.3999 44.4901 86.5899 40.9401 82.3999 40.9401Z" fill="#312D2D" style="fill:#312D2D;fill:color(display-p3 0.1922 0.1765 0.1765);fill-opacity:1;"/>
<path d="M81.9998 44.8701C80.5798 44.1901 78.8698 44.7901 78.1798 46.2101C77.6498 47.3201 77.8898 48.6501 78.7798 49.5101C80.1998 50.1901 81.9098 49.5901 82.5998 48.1701C83.1298 47.0601 82.8898 45.7301 81.9998 44.8701Z" fill="#767070" style="fill:#767070;fill:color(display-p3 0.4625 0.4374 0.4374);fill-opacity:1;"/>
<path d="M111.49 29.67C116.82 38.27 119.6 48.51 119.6 59.9C119.6 76.8 113.5 91.1 102 101.3C91.3999 110.6 76.9999 115.8 61.5999 115.8C43.5399 115.8 24.5999 108.45 13.4199 92.86C24.1799 110.52 44.4199 118.8 63.5999 118.8C78.9999 118.8 93.3999 113.6 104 104.3C115.5 94.1001 121.6 79.8 121.6 62.9C121.6 50.16 118.13 38.84 111.49 29.67Z" fill="#EB8F00" style="fill:#EB8F00;fill:color(display-p3 0.9216 0.5608 0.0000);fill-opacity:1;"/>
<path d="M111.49 29.67C116.82 38.27 119.6 48.51 119.6 59.9C119.6 76.8 113.5 91.1 102 101.3C91.3999 110.6 76.9999 115.8 61.5999 115.8C43.5399 115.8 24.5999 108.45 13.4199 92.86C24.1799 110.52 44.4199 118.8 63.5999 118.8C78.9999 118.8 93.3999 113.6 104 104.3C115.5 94.1001 121.6 79.8 121.6 62.9C121.6 50.16 118.13 38.84 111.49 29.67Z" fill="#F3B872" style="fill:#F3B872;fill:color(display-p3 0.9542 0.7229 0.4453);fill-opacity:1;"/>
<defs>
<radialGradient id="paint0_radial_169_5833" cx="0" cy="0" r="1" gradientUnits="userSpaceOnUse" gradientTransform="translate(63.6001 62.9) scale(56.9597 56.9597)">
<stop offset="0.5" stop-color="#FDE030" style="stop-color:#FDE030;stop-color:color(display-p3 0.9922 0.8784 0.1882);stop-opacity:1;"/>
<stop offset="0.92" stop-color="#F7C02B" style="stop-color:#F7C02B;stop-color:color(display-p3 0.9686 0.7529 0.1686);stop-opacity:1;"/>
<stop offset="1" stop-color="#F4A223" style="stop-color:#F4A223;stop-color:color(display-p3 0.9569 0.6353 0.1373);stop-opacity:1;"/>
</radialGradient>
<radialGradient id="paint1_radial_169_5833" cx="0" cy="0" r="1" gradientUnits="userSpaceOnUse" gradientTransform="translate(38.5991 34.5377) rotate(-43.2082) scale(102.024 101.825)">
<stop offset="0.3533" stop-color="#F9DDBD" style="stop-color:#F9DDBD;stop-color:color(display-p3 0.9765 0.8667 0.7412);stop-opacity:1;"/>
<stop offset="0.8723" stop-color="#FFD29C" style="stop-color:#FFD29C;stop-color:color(display-p3 1.0000 0.8235 0.6118);stop-opacity:1;"/>
</radialGradient>
</defs>
</svg>
