<svg width="128" height="128" viewBox="0 0 128 128" fill="none" xmlns="http://www.w3.org/2000/svg">
<path d="M63.6 118.8C35.7 118.8 5.59998 101.3 5.59998 62.9C5.59998 24.5 35.7 7 63.6 7C79.1 7 93.4 12.1 104 21.4C115.5 31.6 121.6 46 121.6 62.9C121.6 79.8 115.5 94.1 104 104.3C93.4 113.6 79 118.8 63.6 118.8Z" fill="url(#paint0_radial_169_7302)" style=""/>
<path d="M63.6 118.8C35.7 118.8 5.59998 101.3 5.59998 62.9C5.59998 24.5 35.7 7 63.6 7C79.1 7 93.4 12.1 104 21.4C115.5 31.6 121.6 46 121.6 62.9C121.6 79.8 115.5 94.1 104 104.3C93.4 113.6 79 118.8 63.6 118.8Z" fill="url(#paint1_radial_169_7302)" style=""/>
<path d="M111.49 29.67C116.82 38.27 119.6 48.51 119.6 59.9C119.6 76.8 113.5 91.1 102 101.3C91.3999 110.6 76.9999 115.8 61.5999 115.8C43.5399 115.8 24.5999 108.45 13.4199 92.86C24.1799 110.52 44.4199 118.8 63.5999 118.8C78.9999 118.8 93.3999 113.6 104 104.3C115.5 94.1001 121.6 79.8 121.6 62.9C121.6 50.16 118.13 38.84 111.49 29.67Z" fill="#D84213" style="fill:#D84213;fill:color(display-p3 0.8471 0.2588 0.0745);fill-opacity:1;"/>
<path d="M24.5657 72.6439L21.0321 106.208L100.025 114.525L103.559 80.9602L24.5657 72.6439Z" fill="black" style="fill:black;fill-opacity:1;"/>
<path d="M38.73 94.29L36.63 94.09L35.24 99.35L32.64 99.1L34 93.84L31.11 93.56L31.34 91.17L34.63 91.49L35.53 88.1L32.65 87.82L32.88 85.44L36.15 85.76L37.58 80.42L40.16 80.67L38.78 86L40.88 86.2L42.3 80.86L44.89 81.11L43.47 86.45L46.47 86.74L46.24 89.13L42.84 88.8L41.93 92.18L44.93 92.47L44.7 94.86L41.32 94.53L39.93 99.8L37.34 99.55L38.73 94.29ZM37.25 91.74L39.35 91.94L40.25 88.56L38.15 88.35L37.25 91.74Z" fill="white" style="fill:white;fill-opacity:1;"/>
<path d="M57 96.4999C57.07 95.9699 56.95 95.4399 56.65 94.9999C56.25 94.5199 55.75 94.1399 55.18 93.8799C54.46 93.4999 53.8 93.1299 53.18 92.7599C52.62 92.4099 52.1 91.9899 51.65 91.5099C51.25 91.0699 50.95 90.5599 50.76 89.9999C50.56 89.3499 50.5 88.6699 50.58 87.9999C50.68 86.8199 51.26 85.7399 52.19 84.9999C53.23 84.2199 54.51 83.8299 55.81 83.8799L56 81.4399L57.81 81.6199L57.58 84.0699C58.83 84.3199 59.94 85.0399 60.69 86.0699C61.41 87.1499 61.72 88.4699 61.54 89.7599L57.68 89.3899C57.78 88.7499 57.68 88.0999 57.4 87.5199C56.92 86.7499 55.9 86.5099 55.13 86.9899C55.07 87.0299 55.01 87.0699 54.95 87.1199C54.62 87.4599 54.42 87.9099 54.4 88.3799C54.33 88.8699 54.45 89.3699 54.75 89.7699C55.16 90.2299 55.65 90.5999 56.2 90.8699C56.88 91.2399 57.52 91.6099 58.12 91.9999C58.68 92.3499 59.19 92.7799 59.64 93.2599C60.05 93.7099 60.36 94.2299 60.57 94.7999C60.78 95.4399 60.85 96.1299 60.77 96.7999C60.7 97.9899 60.14 99.0999 59.22 99.8699C58.23 100.64 57 101.04 55.75 101L55.52 103.29L53.71 103.12L53.93 100.81C52.5 100.6 51.2 99.8599 50.28 98.7399C49.45 97.6099 49.09 96.1899 49.28 94.7999L53.12 95.1699C53.01 95.8599 53.15 96.5699 53.51 97.1699C53.88 97.6699 54.46 97.9799 55.08 98.0099C55.53 98.0799 55.99 97.9499 56.35 97.6599C56.71 97.3699 56.94 96.9599 57 96.4999Z" fill="white" style="fill:white;fill-opacity:1;"/>
<path d="M65.75 101.68C65.79 101.09 66.09 100.56 66.57 100.22C67.63 99.51 69.03 99.65 69.94 100.54C70.71 101.41 70.63 102.73 69.77 103.5C69.73 103.54 69.69 103.57 69.64 103.61C69.13 103.97 68.51 104.12 67.9 104.04C67.28 104 66.7 103.73 66.28 103.28C65.88 102.85 65.68 102.27 65.75 101.68ZM70.24 98.17L66.8 97.84L67.47 85.25L71.99 85.69L70.24 98.17Z" fill="white" style="fill:white;fill-opacity:1;"/>
<path d="M96.2601 96.18C96.1101 97.93 95.4101 99.59 94.2601 100.91C93.2701 102.01 91.8001 102.56 90.3301 102.37C89.7401 102.32 89.1601 102.12 88.6701 101.79C88.2201 101.46 87.8701 101.02 87.6701 100.5C86.8701 101.43 85.6501 101.9 84.4301 101.75C83.7101 101.69 83.0401 101.39 82.5201 100.89C81.9901 100.34 81.6401 99.64 81.5201 98.89C81.3301 97.97 81.3301 97.01 81.5201 96.09C81.8301 94.38 82.6501 92.8 83.8701 91.56C84.9001 90.51 86.3501 89.98 87.8101 90.13C88.8601 90.21 89.8701 90.59 90.7101 91.22L91.4001 91.79L90.1301 98.62C89.9001 99.7 90.2201 100.28 91.1301 100.36C91.9001 100.38 92.6001 99.94 92.9301 99.25C93.5201 98.28 93.8801 97.19 93.9901 96.06C94.4801 93.94 94.1201 91.71 92.9901 89.85C91.7701 88.23 89.8801 87.25 87.8501 87.19C86.4401 87.03 85.0101 87.3 83.7501 87.95C82.4701 88.64 81.4001 89.68 80.6801 90.95C79.8301 92.38 79.2801 93.96 79.0701 95.61C78.6801 98.34 79.0101 100.49 80.0701 102.06C81.3301 103.72 83.2801 104.72 85.3601 104.77C86.0601 104.84 86.7701 104.84 87.4701 104.77C88.1001 104.72 88.7201 104.59 89.3201 104.41L89.5701 106.41C88.9401 106.71 88.2601 106.91 87.5701 106.98C86.7201 107.1 85.8501 107.1 85.0001 107C83.1101 106.88 81.2901 106.28 79.7001 105.25C78.2801 104.29 77.2201 102.88 76.7001 101.25C76.1201 99.33 75.9901 97.3 76.3101 95.32C76.5601 93.3 77.2601 91.37 78.3601 89.66C79.3601 88.09 80.7801 86.84 82.4601 86.05C85.8601 84.55 89.7801 84.86 92.9001 86.88C94.2401 87.82 95.2601 89.17 95.7901 90.72C96.3901 92.47 96.5501 94.35 96.2601 96.18ZM84.3901 96.38C84.1901 97.14 84.1901 97.95 84.3901 98.71C84.5401 99.21 84.9801 99.57 85.5001 99.61C85.9001 99.63 86.2901 99.49 86.5701 99.21C86.9601 98.84 87.2701 98.38 87.4701 97.88L88.4701 92.56C88.2401 92.48 88.0001 92.42 87.7501 92.4C86.9501 92.29 86.1401 92.6 85.6301 93.23C84.9701 94.16 84.5401 95.25 84.3901 96.38Z" fill="white" style="fill:white;fill-opacity:1;"/>
<path d="M82.77 51.36C86.96 51.36 90.77 54.9 90.77 60.78C90.77 66.66 86.96 70.19 82.77 70.19C78.58 70.19 74.77 66.65 74.77 60.78C74.77 54.91 78.58 51.36 82.77 51.36Z" fill="#5D4037" style="fill:#5D4037;fill:color(display-p3 0.3647 0.2510 0.2157);fill-opacity:1;"/>
<path d="M45.23 51.36C41.04 51.36 37.23 54.9 37.23 60.78C37.23 66.66 41.04 70.19 45.23 70.19C49.42 70.19 53.23 66.65 53.23 60.78C53.23 54.91 49.42 51.36 45.23 51.36Z" fill="#5D4037" style="fill:#5D4037;fill:color(display-p3 0.3647 0.2510 0.2157);fill-opacity:1;"/>
<path d="M36.58 43.73L36.47 43.64C34.8 42.15 32.17 44.56 33.66 46.64C34.87 48.24 36.33 49.63 38 50.75C42.45 53.76 47.98 54.69 53.17 53.29C55.62 52.58 55.06 49.04 52.82 49.21C46.9 49.56 41.08 47.59 36.58 43.73Z" fill="#5D4037" style="fill:#5D4037;fill:color(display-p3 0.3647 0.2510 0.2157);fill-opacity:1;"/>
<path d="M91.42 43.73L91.53 43.64C93.2 42.15 95.83 44.56 94.34 46.64C93.13 48.24 91.67 49.63 90 50.75C85.55 53.76 80.02 54.69 74.83 53.29C72.38 52.58 72.94 49.04 75.18 49.21C81.1 49.56 86.92 47.59 91.42 43.73Z" fill="#5D4037" style="fill:#5D4037;fill:color(display-p3 0.3647 0.2510 0.2157);fill-opacity:1;"/>
<path d="M44.28 54.87C42.86 54.19 41.15 54.79 40.46 56.21C39.93 57.32 40.17 58.65 41.06 59.51C42.48 60.19 44.19 59.59 44.88 58.17C45.41 57.06 45.17 55.73 44.28 54.87Z" fill="#836258" style="fill:#836258;fill:color(display-p3 0.5125 0.3838 0.3438);fill-opacity:1;"/>
<path d="M82.63 54.87C81.21 54.19 79.5 54.79 78.81 56.21C78.28 57.32 78.52 58.65 79.41 59.51C80.83 60.19 82.54 59.59 83.23 58.17C83.76 57.06 83.52 55.73 82.63 54.87Z" fill="#836258" style="fill:#836258;fill:color(display-p3 0.5125 0.3838 0.3438);fill-opacity:1;"/>
<defs>
<radialGradient id="paint0_radial_169_7302" cx="0" cy="0" r="1" gradientUnits="userSpaceOnUse" gradientTransform="translate(63.6 62.8999) scale(56.9597 56.9597)">
<stop offset="0.12" stop-color="#FAC742" style="stop-color:#FAC742;stop-color:color(display-p3 0.9804 0.7804 0.2588);stop-opacity:1;"/>
<stop offset="0.32" stop-color="#FAC440" style="stop-color:#FAC440;stop-color:color(display-p3 0.9804 0.7686 0.2510);stop-opacity:1;"/>
<stop offset="0.48" stop-color="#FBBA3B" style="stop-color:#FBBA3B;stop-color:color(display-p3 0.9843 0.7294 0.2314);stop-opacity:1;"/>
<stop offset="0.62" stop-color="#FBA931" style="stop-color:#FBA931;stop-color:color(display-p3 0.9843 0.6627 0.1922);stop-opacity:1;"/>
<stop offset="0.76" stop-color="#FC9224" style="stop-color:#FC9224;stop-color:color(display-p3 0.9882 0.5725 0.1412);stop-opacity:1;"/>
<stop offset="0.88" stop-color="#FE7413" style="stop-color:#FE7413;stop-color:color(display-p3 0.9961 0.4549 0.0745);stop-opacity:1;"/>
<stop offset="1" stop-color="#FF5100" style="stop-color:#FF5100;stop-color:color(display-p3 1.0000 0.3176 0.0000);stop-opacity:1;"/>
</radialGradient>
<radialGradient id="paint1_radial_169_7302" cx="0" cy="0" r="1" gradientUnits="userSpaceOnUse" gradientTransform="translate(63.6 62.8999) scale(56.9597 56.9597)">
<stop offset="0.12" stop-color="#E0BB95" style="stop-color:#E0BB95;stop-color:color(display-p3 0.8784 0.7333 0.5843);stop-opacity:1;"/>
<stop offset="0.48" stop-color="#ECC373" style="stop-color:#ECC373;stop-color:color(display-p3 0.9250 0.7645 0.4509);stop-opacity:1;"/>
<stop offset="0.62" stop-color="#FCB54E" style="stop-color:#FCB54E;stop-color:color(display-p3 0.9875 0.7102 0.3045);stop-opacity:1;"/>
<stop offset="0.76" stop-color="#FE9A33" style="stop-color:#FE9A33;stop-color:color(display-p3 0.9958 0.6049 0.1992);stop-opacity:1;"/>
<stop offset="0.88" stop-color="#FE7413" style="stop-color:#FE7413;stop-color:color(display-p3 0.9961 0.4549 0.0745);stop-opacity:1;"/>
<stop offset="1" stop-color="#FF5100" style="stop-color:#FF5100;stop-color:color(display-p3 1.0000 0.3176 0.0000);stop-opacity:1;"/>
</radialGradient>
</defs>
</svg>
