<svg width="128" height="128" viewBox="0 0 128 128" fill="none" xmlns="http://www.w3.org/2000/svg">
<path d="M63.6 118.8C35.7 118.8 5.59998 101.3 5.59998 62.9C5.59998 24.5 35.7 7 63.6 7C79.1 7 93.4 12.1 104 21.4C115.5 31.6 121.6 46 121.6 62.9C121.6 79.8 115.5 94.1 104 104.3C93.4 113.6 79 118.8 63.6 118.8Z" fill="url(#paint0_radial_169_10950)" style=""/>
<path d="M63.6 118.8C35.7 118.8 5.59998 101.3 5.59998 62.9C5.59998 24.5 35.7 7 63.6 7C79.1 7 93.4 12.1 104 21.4C115.5 31.6 121.6 46 121.6 62.9C121.6 79.8 115.5 94.1 104 104.3C93.4 113.6 79 118.8 63.6 118.8Z" fill="url(#paint1_linear_169_10950)" style=""/>
<path d="M63.6 118.8C35.7 118.8 5.59998 101.3 5.59998 62.9C5.59998 24.5 35.7 7 63.6 7C79.1 7 93.4 12.1 104 21.4C115.5 31.6 121.6 46 121.6 62.9C121.6 79.8 115.5 94.1 104 104.3C93.4 113.6 79 118.8 63.6 118.8Z" fill="url(#paint2_radial_169_10950)" style=""/>
<path d="M63.6 118.8C35.7 118.8 5.59998 101.3 5.59998 62.9C5.59998 24.5 35.7 7 63.6 7C79.1 7 93.4 12.1 104 21.4C115.5 31.6 121.6 46 121.6 62.9C121.6 79.8 115.5 94.1 104 104.3C93.4 113.6 79 118.8 63.6 118.8Z" fill="url(#paint3_radial_169_10950)" style=""/>
<path d="M63.6 118.8C35.7 118.8 5.59998 101.3 5.59998 62.9C5.59998 24.5 35.7 7 63.6 7C79.1 7 93.4 12.1 104 21.4C115.5 31.6 121.6 46 121.6 62.9C121.6 79.8 115.5 94.1 104 104.3C93.4 113.6 79 118.8 63.6 118.8Z" fill="url(#paint4_radial_169_10950)" style=""/>
<path d="M111.49 29.67C116.82 38.27 119.6 48.51 119.6 59.9C119.6 76.8 113.5 91.1 102 101.3C91.3999 110.6 76.9999 115.8 61.5999 115.8C43.5399 115.8 24.5999 108.45 13.4199 92.86C24.1799 110.52 44.4199 118.8 63.5999 118.8C78.9999 118.8 93.3999 113.6 104 104.3C115.5 94.1 121.6 79.8 121.6 62.9C121.6 50.16 118.13 38.84 111.49 29.67Z" fill="#EB8F00" style="fill:#EB8F00;fill:color(display-p3 0.9216 0.5608 0.0000);fill-opacity:1;"/>
<path d="M111.49 29.67C116.82 38.27 119.6 48.51 119.6 59.9C119.6 76.8 113.5 91.1 102 101.3C91.3999 110.6 76.9999 115.8 61.5999 115.8C43.5399 115.8 24.5999 108.45 13.4199 92.86C24.1799 110.52 44.4199 118.8 63.5999 118.8C78.9999 118.8 93.3999 113.6 104 104.3C115.5 94.1 121.6 79.8 121.6 62.9C121.6 50.16 118.13 38.84 111.49 29.67Z" fill="#F3B872" style="fill:#F3B872;fill:color(display-p3 0.9542 0.7229 0.4453);fill-opacity:1;"/>
<path d="M111.49 29.67C116.82 38.27 119.6 48.51 119.6 59.9C119.6 76.8 113.5 91.1 102 101.3C91.3999 110.6 76.9999 115.8 61.5999 115.8C43.5399 115.8 24.5999 108.45 13.4199 92.86C24.1799 110.52 44.4199 118.8 63.5999 118.8C78.9999 118.8 93.3999 113.6 104 104.3C115.5 94.1 121.6 79.8 121.6 62.9C121.6 50.16 118.13 38.84 111.49 29.67Z" fill="#4A2F27" style="fill:#4A2F27;fill:color(display-p3 0.2902 0.1843 0.1529);fill-opacity:1;"/>
<path opacity="0.5" d="M27.25 85.66C36.915 85.66 44.75 77.825 44.75 68.16C44.75 58.495 36.915 50.66 27.25 50.66C17.585 50.66 9.75 58.495 9.75 68.16C9.75 77.825 17.585 85.66 27.25 85.66Z" fill="url(#paint5_radial_169_10950)" style=""/>
<path opacity="0.5" d="M100.36 85.66C110.025 85.66 117.86 77.825 117.86 68.16C117.86 58.495 110.025 50.66 100.36 50.66C90.695 50.66 82.86 58.495 82.86 68.16C82.86 77.825 90.695 85.66 100.36 85.66Z" fill="url(#paint6_radial_169_10950)" style=""/>
<path d="M49.56 49.12L49.41 48.92L49 48.38L48.47 47.8C48.25 47.56 47.99 47.31 47.74 47.05C47.49 46.79 47.18 46.55 46.9 46.33C46.64 46.13 46.36 45.94 46.06 45.79C45.86 45.68 45.64 45.59 45.41 45.54C45.34 45.53 45.27 45.53 45.2 45.54H45.3H44.75C44.6 45.54 44.75 45.54 44.75 45.54H44.83C44.83 45.54 44.91 45.54 44.83 45.54C44.79 45.53 44.76 45.53 44.72 45.54C44.49 45.59 44.27 45.67 44.06 45.79C43.77 45.95 43.48 46.13 43.22 46.33C42.94 46.55 42.65 46.8 42.39 47.05C41.86 47.56 41.39 48.05 41.09 48.44L40.57 49.04L40.34 49.31C38.9 50.92 36.47 51.18 34.72 49.92C33.6 49.14 33.03 47.79 33.25 46.45C33.25 46.45 33.32 46.04 33.51 45.33C33.82 44.32 34.24 43.34 34.76 42.42C35.62 40.92 36.77 39.62 38.14 38.58C39.06 37.87 40.09 37.31 41.19 36.92C41.49 36.8 41.8 36.71 42.11 36.63C42.44 36.54 42.77 36.46 43.11 36.4L43.72 36.31L44.23 36.26H44.78H45.31H45.57H46.08C46.42 36.26 46.75 36.35 47.08 36.4C48.87 36.73 50.56 37.47 52 38.58C53.38 39.62 54.53 40.92 55.38 42.42C55.69 42.94 55.96 43.49 56.18 44.06C56.37 44.5 56.53 44.94 56.66 45.4C56.73 45.64 56.79 45.88 56.82 46.12V46.37C57.12 48.42 55.7 50.32 53.65 50.62C53.6 50.63 53.56 50.63 53.51 50.64C52.02 50.88 50.51 50.3 49.56 49.12Z" fill="#42312C" style="fill:#42312C;fill:color(display-p3 0.2588 0.1922 0.1725);fill-opacity:1;"/>
<path d="M49.56 49.12L49.41 48.92L49 48.38L48.47 47.8C48.25 47.56 47.99 47.31 47.74 47.05C47.49 46.79 47.18 46.55 46.9 46.33C46.64 46.13 46.36 45.94 46.06 45.79C45.86 45.68 45.64 45.59 45.41 45.54C45.34 45.53 45.27 45.53 45.2 45.54H45.3H44.75C44.6 45.54 44.75 45.54 44.75 45.54H44.83C44.83 45.54 44.91 45.54 44.83 45.54C44.79 45.53 44.76 45.53 44.72 45.54C44.49 45.59 44.27 45.67 44.06 45.79C43.77 45.95 43.48 46.13 43.22 46.33C42.94 46.55 42.65 46.8 42.39 47.05C41.86 47.56 41.39 48.05 41.09 48.44L40.57 49.04L40.34 49.31C38.9 50.92 36.47 51.18 34.72 49.92C33.6 49.14 33.03 47.79 33.25 46.45C33.25 46.45 33.32 46.04 33.51 45.33C33.82 44.32 34.24 43.34 34.76 42.42C35.62 40.92 36.77 39.62 38.14 38.58C39.06 37.87 40.09 37.31 41.19 36.92C41.49 36.8 41.8 36.71 42.11 36.63C42.44 36.54 42.77 36.46 43.11 36.4L43.72 36.31L44.23 36.26H44.78H45.31H45.57H46.08C46.42 36.26 46.75 36.35 47.08 36.4C48.87 36.73 50.56 37.47 52 38.58C53.38 39.62 54.53 40.92 55.38 42.42C55.69 42.94 55.96 43.49 56.18 44.06C56.37 44.5 56.53 44.94 56.66 45.4C56.73 45.64 56.79 45.88 56.82 46.12V46.37C57.12 48.42 55.7 50.32 53.65 50.62C53.6 50.63 53.56 50.63 53.51 50.64C52.02 50.88 50.51 50.3 49.56 49.12Z" fill="#42312C" style="fill:#42312C;fill:color(display-p3 0.2588 0.1922 0.1725);fill-opacity:1;"/>
<path d="M87.06 49.12L86.9 48.92L86.47 48.38L85.94 47.8C85.72 47.56 85.46 47.31 85.21 47.05C84.96 46.79 84.65 46.55 84.37 46.33C84.11 46.13 83.83 45.94 83.53 45.79C83.33 45.68 83.11 45.59 82.88 45.54C82.81 45.53 82.74 45.53 82.67 45.54H82.77H82.22C82.07 45.54 82.22 45.54 82.22 45.54H82.3C82.3 45.54 82.38 45.54 82.3 45.54C82.26 45.53 82.23 45.53 82.19 45.54C81.96 45.59 81.74 45.67 81.53 45.79C81.24 45.94 80.96 46.13 80.7 46.33C80.41 46.55 80.13 46.79 79.86 47.05C79.33 47.56 78.86 48.05 78.56 48.44L78 49L77.78 49.27C76.33 50.88 73.91 51.14 72.15 49.88C71.03 49.1 70.46 47.75 70.68 46.41C70.68 46.41 70.75 46 70.95 45.29C71.25 44.27 71.67 43.3 72.2 42.38C73.05 40.88 74.2 39.58 75.57 38.54C76.48 37.84 77.49 37.28 78.57 36.88C78.87 36.76 79.18 36.67 79.49 36.59C79.82 36.5 80.15 36.42 80.49 36.36L81.11 36.27L81.61 36.22H82.16H82.69H82.95H83.46C83.8 36.22 84.13 36.31 84.46 36.36C85.1 36.47 85.74 36.64 86.35 36.87C87.43 37.26 88.44 37.82 89.35 38.53C90.73 39.57 91.88 40.87 92.73 42.37C93.04 42.89 93.31 43.44 93.53 44.01C93.72 44.45 93.88 44.89 94.01 45.35C94.08 45.59 94.14 45.83 94.17 46.07V46.32C94.51 48.36 93.12 50.29 91.08 50.63C91.05 50.63 91.03 50.64 91 50.64C89.51 50.88 88 50.3 87.06 49.12Z" fill="#42312C" style="fill:#42312C;fill:color(display-p3 0.2588 0.1922 0.1725);fill-opacity:1;"/>
<path d="M87.06 49.12L86.9 48.92L86.47 48.38L85.94 47.8C85.72 47.56 85.46 47.31 85.21 47.05C84.96 46.79 84.65 46.55 84.37 46.33C84.11 46.13 83.83 45.94 83.53 45.79C83.33 45.68 83.11 45.59 82.88 45.54C82.81 45.53 82.74 45.53 82.67 45.54H82.77H82.22C82.07 45.54 82.22 45.54 82.22 45.54H82.3C82.3 45.54 82.38 45.54 82.3 45.54C82.26 45.53 82.23 45.53 82.19 45.54C81.96 45.59 81.74 45.67 81.53 45.79C81.24 45.94 80.96 46.13 80.7 46.33C80.41 46.55 80.13 46.79 79.86 47.05C79.33 47.56 78.86 48.05 78.56 48.44L78 49L77.78 49.27C76.33 50.88 73.91 51.14 72.15 49.88C71.03 49.1 70.46 47.75 70.68 46.41C70.68 46.41 70.75 46 70.95 45.29C71.25 44.27 71.67 43.3 72.2 42.38C73.05 40.88 74.2 39.58 75.57 38.54C76.48 37.84 77.49 37.28 78.57 36.88C78.87 36.76 79.18 36.67 79.49 36.59C79.82 36.5 80.15 36.42 80.49 36.36L81.11 36.27L81.61 36.22H82.16H82.69H82.95H83.46C83.8 36.22 84.13 36.31 84.46 36.36C85.1 36.47 85.74 36.64 86.35 36.87C87.43 37.26 88.44 37.82 89.35 38.53C90.73 39.57 91.88 40.87 92.73 42.37C93.04 42.89 93.31 43.44 93.53 44.01C93.72 44.45 93.88 44.89 94.01 45.35C94.08 45.59 94.14 45.83 94.17 46.07V46.32C94.51 48.36 93.12 50.29 91.08 50.63C91.05 50.63 91.03 50.64 91 50.64C89.51 50.88 88 50.3 87.06 49.12Z" fill="#42312C" style="fill:#42312C;fill:color(display-p3 0.2588 0.1922 0.1725);fill-opacity:1;"/>
<path opacity="0.66" d="M79.17 75C79.62 73 79.96 73.91 80.25 71.92C80.47 70.42 82.93 67.1 82.96 65.59C82.96 64.48 83.5 62.72 82.87 61.81C80.67 58.67 76.99 60.18 75.87 60.56C72.01 61.84 68.7001 64.26 65.12 66.12C60.57 68.45 55.74 70.2 50.75 71.33C52.89 67.17 55.59 55.51 48.69 57.12C45.54 57.85 43.49 62.77 42.77 64.2C38.86 72 33.43 75.71 29.21 83.09C24.99 90.47 24.83 98.43 29.5 105.83C31.2 108.67 33.54 111.07 36.34 112.83C39.28 114.55 42.45 113.27 45.21 111.83C52.03 108.34 58.42 104.07 64.26 99.11C70 94.06 74.84 87.86 77.5 80.7C78.18 78.84 78.74 76.93 79.17 75Z" fill="url(#paint7_linear_169_10950)" style=""/>
<path d="M94.8 78.85C92.58 75.67 86.8 78.92 86.8 78.92C86.8 78.92 89.8 76.31 92.3 73.92C93.9 72.39 95.3 69.13 93.99 66.92C92.68 64.71 88.87 64.85 87 66L79.67 70.5C79.67 70.5 82.42 69.3 83.25 64.58C83.77 62.67 82.65 60.7 80.74 60.18C80.38 60.08 80.01 60.04 79.64 60.06C77.91 60.21 76.26 60.85 74.87 61.9C69.57 65.66 55.42 75.25 52.25 75C51.02 74.9 50.91 74.71 53.5 69.17C55.24 65.85 55.4 61.92 53.94 58.47C53.09 56.47 49.17 55.92 47.94 57.85C47.01 59.27 46.34 62.75 44.72 66.25C42 72 35.73 79.72 35.22 80.48C31.49 86 24.54 96.29 31.82 107.83C38.26 118.05 52.96 118.53 60.49 115.83C74.88 110.73 88.13 100.93 88.38 100.73C91 98.65 93.38 95.6 92.3 92.82C90.97 89.38 86.56 91.42 86.56 91.42C89.11 89.87 91.4 87.92 93.33 85.64C95.16 83.28 96.29 81 94.8 78.85Z" fill="url(#paint8_radial_169_10950)" style=""/>
<path d="M94.8 78.85C92.58 75.67 86.8 78.92 86.8 78.92C86.8 78.92 89.8 76.31 92.3 73.92C93.9 72.39 95.3 69.13 93.99 66.92C92.68 64.71 88.87 64.85 87 66L79.67 70.5C79.67 70.5 82.42 69.3 83.25 64.58C83.77 62.67 82.65 60.7 80.74 60.18C80.38 60.08 80.01 60.04 79.64 60.06C77.91 60.21 76.26 60.85 74.87 61.9C69.57 65.66 55.42 75.25 52.25 75C51.02 74.9 50.91 74.71 53.5 69.17C55.24 65.85 55.4 61.92 53.94 58.47C53.09 56.47 49.17 55.92 47.94 57.85C47.01 59.27 46.34 62.75 44.72 66.25C42 72 35.73 79.72 35.22 80.48C31.49 86 24.54 96.29 31.82 107.83C38.26 118.05 52.96 118.53 60.49 115.83C74.88 110.73 88.13 100.93 88.38 100.73C91 98.65 93.38 95.6 92.3 92.82C90.97 89.38 86.56 91.42 86.56 91.42C89.11 89.87 91.4 87.92 93.33 85.64C95.16 83.28 96.29 81 94.8 78.85Z" fill="url(#paint9_radial_169_10950)" style=""/>
<path d="M94.8 78.85C92.58 75.67 86.8 78.92 86.8 78.92C86.8 78.92 89.8 76.31 92.3 73.92C93.9 72.39 95.3 69.13 93.99 66.92C92.68 64.71 88.87 64.85 87 66L79.67 70.5C79.67 70.5 82.42 69.3 83.25 64.58C83.77 62.67 82.65 60.7 80.74 60.18C80.38 60.08 80.01 60.04 79.64 60.06C77.91 60.21 76.26 60.85 74.87 61.9C69.57 65.66 55.42 75.25 52.25 75C51.02 74.9 50.91 74.71 53.5 69.17C55.24 65.85 55.4 61.92 53.94 58.47C53.09 56.47 49.17 55.92 47.94 57.85C47.01 59.27 46.34 62.75 44.72 66.25C42 72 35.73 79.72 35.22 80.48C31.49 86 24.54 96.29 31.82 107.83C38.26 118.05 52.96 118.53 60.49 115.83C74.88 110.73 88.13 100.93 88.38 100.73C91 98.65 93.38 95.6 92.3 92.82C90.97 89.38 86.56 91.42 86.56 91.42C89.11 89.87 91.4 87.92 93.33 85.64C95.16 83.28 96.29 81 94.8 78.85Z" fill="url(#paint10_radial_169_10950)" style=""/>
<path d="M94.8 78.85C92.58 75.67 86.8 78.92 86.8 78.92C86.8 78.92 89.8 76.31 92.3 73.92C93.9 72.39 95.3 69.13 93.99 66.92C92.68 64.71 88.87 64.85 87 66L79.67 70.5C79.67 70.5 82.42 69.3 83.25 64.58C83.77 62.67 82.65 60.7 80.74 60.18C80.38 60.08 80.01 60.04 79.64 60.06C77.91 60.21 76.26 60.85 74.87 61.9C69.57 65.66 55.42 75.25 52.25 75C51.02 74.9 50.91 74.71 53.5 69.17C55.24 65.85 55.4 61.92 53.94 58.47C53.09 56.47 49.17 55.92 47.94 57.85C47.01 59.27 46.34 62.75 44.72 66.25C42 72 35.73 79.72 35.22 80.48C31.49 86 24.54 96.29 31.82 107.83C38.26 118.05 52.96 118.53 60.49 115.83C74.88 110.73 88.13 100.93 88.38 100.73C91 98.65 93.38 95.6 92.3 92.82C90.97 89.38 86.56 91.42 86.56 91.42C89.11 89.87 91.4 87.92 93.33 85.64C95.16 83.28 96.29 81 94.8 78.85Z" fill="url(#paint11_radial_169_10950)" style=""/>
<path d="M62.0601 82.25C61.0601 81.17 66.0601 79.25 68.0601 77.79L74.3201 73.79C76.3801 72.46 78.2901 70.92 80.0301 69.2C81.8301 67.55 82.9601 65.3 83.2001 62.87C83.4701 64.15 83.4001 65.48 83.0001 66.72C82.5801 67.97 81.9501 69.14 81.1201 70.16C79.4601 72.12 77.5301 73.83 75.3801 75.24C73.3401 76.72 71.2101 78.05 68.9901 79.24C66.7701 80.41 62.6301 83.35 62.0601 82.25Z" fill="#ED6C30" style="fill:#ED6C30;fill:color(display-p3 0.9294 0.4235 0.1882);fill-opacity:1;"/>
<path d="M62.0601 82.25C61.0601 81.17 66.0601 79.25 68.0601 77.79L74.3201 73.79C76.3801 72.46 78.2901 70.92 80.0301 69.2C81.8301 67.55 82.9601 65.3 83.2001 62.87C83.4701 64.15 83.4001 65.48 83.0001 66.72C82.5801 67.97 81.9501 69.14 81.1201 70.16C79.4601 72.12 77.5301 73.83 75.3801 75.24C73.3401 76.72 71.2101 78.05 68.9901 79.24C66.7701 80.41 62.6301 83.35 62.0601 82.25Z" fill="#4A2F27" style="fill:#4A2F27;fill:color(display-p3 0.2902 0.1843 0.1529);fill-opacity:1;"/>
<path d="M74.38 97.75C73.93 97.13 78.29 95.6 80.19 94.48C82.08 93.38 83.91 92.19 85.67 90.91C87.44 89.6 89.21 88.33 90.85 86.91C92.55 85.51 94.1 83.94 95.49 82.24C94.8 84.44 93.6 86.45 92 88.11C90.44 89.77 88.69 91.24 86.8 92.51C85 93.82 75.4 99.3 74.38 97.75Z" fill="#ED6C30" style="fill:#ED6C30;fill:color(display-p3 0.9294 0.4235 0.1882);fill-opacity:1;"/>
<path d="M74.38 97.75C73.93 97.13 78.29 95.6 80.19 94.48C82.08 93.38 83.91 92.19 85.67 90.91C87.44 89.6 89.21 88.33 90.85 86.91C92.55 85.51 94.1 83.94 95.49 82.24C94.8 84.44 93.6 86.45 92 88.11C90.44 89.77 88.69 91.24 86.8 92.51C85 93.82 75.4 99.3 74.38 97.75Z" fill="#4A2F27" style="fill:#4A2F27;fill:color(display-p3 0.2902 0.1843 0.1529);fill-opacity:1;"/>
<path d="M69.0001 90C68.1501 89 74.0001 86.83 76.3701 85.26C78.7401 83.69 81.1101 82.2 83.5201 80.53C85.9001 78.95 88.1601 77.21 90.2801 75.31C91.3101 74.36 92.2201 73.29 93.0001 72.13C93.8101 70.94 94.3001 69.56 94.4201 68.13C94.6701 69.62 94.4501 71.16 93.7901 72.52C93.1601 73.9 92.3201 75.17 91.3101 76.29C90.3401 77.42 89.2701 78.46 88.1201 79.41C86.9901 80.41 85.8101 81.26 84.6201 82.11C82.2701 83.87 79.7801 85.43 77.1801 86.8C74.5401 88.15 69.8801 91.15 69.0001 90Z" fill="#ED6C30" style="fill:#ED6C30;fill:color(display-p3 0.9294 0.4235 0.1882);fill-opacity:1;"/>
<path d="M69.0001 90C68.1501 89 74.0001 86.83 76.3701 85.26C78.7401 83.69 81.1101 82.2 83.5201 80.53C85.9001 78.95 88.1601 77.21 90.2801 75.31C91.3101 74.36 92.2201 73.29 93.0001 72.13C93.8101 70.94 94.3001 69.56 94.4201 68.13C94.6701 69.62 94.4501 71.16 93.7901 72.52C93.1601 73.9 92.3201 75.17 91.3101 76.29C90.3401 77.42 89.2701 78.46 88.1201 79.41C86.9901 80.41 85.8101 81.26 84.6201 82.11C82.2701 83.87 79.7801 85.43 77.1801 86.8C74.5401 88.15 69.8801 91.15 69.0001 90Z" fill="#4A2F27" style="fill:#4A2F27;fill:color(display-p3 0.2902 0.1843 0.1529);fill-opacity:1;"/>
<path d="M38.5801 114C41.1001 114.96 43.7401 115.58 46.4301 115.84C49.0901 116.14 51.7701 116.14 54.4301 115.84C57.0601 115.54 59.6501 114.96 62.1601 114.11C64.6801 113.24 67.1301 112.18 69.4901 110.93C74.3401 108.56 79.1501 106.11 83.7501 103.33C86.0501 101.99 88.2001 100.39 90.1501 98.57C91.1101 97.67 91.8301 96.55 92.2601 95.3C92.6901 94.02 92.4001 92.6 91.5101 91.59C92.5601 92.55 93.0101 94.01 92.6701 95.39C92.3201 96.76 91.6701 98.03 90.7601 99.11C89.8901 100.21 88.9101 101.21 87.8401 102.11C86.7901 103 85.7001 103.84 84.5701 104.62C80.0401 107.68 75.3001 110.41 70.3701 112.77C67.9201 114.05 65.3701 115.12 62.7501 115.98C60.0901 116.8 57.3401 117.3 54.5601 117.46C49.0101 117.84 43.4701 116.64 38.5801 114Z" fill="#ED6C30" style="fill:#ED6C30;fill:color(display-p3 0.9294 0.4235 0.1882);fill-opacity:1;"/>
<path d="M38.5801 114C41.1001 114.96 43.7401 115.58 46.4301 115.84C49.0901 116.14 51.7701 116.14 54.4301 115.84C57.0601 115.54 59.6501 114.96 62.1601 114.11C64.6801 113.24 67.1301 112.18 69.4901 110.93C74.3401 108.56 79.1501 106.11 83.7501 103.33C86.0501 101.99 88.2001 100.39 90.1501 98.57C91.1101 97.67 91.8301 96.55 92.2601 95.3C92.6901 94.02 92.4001 92.6 91.5101 91.59C92.5601 92.55 93.0101 94.01 92.6701 95.39C92.3201 96.76 91.6701 98.03 90.7601 99.11C89.8901 100.21 88.9101 101.21 87.8401 102.11C86.7901 103 85.7001 103.84 84.5701 104.62C80.0401 107.68 75.3001 110.41 70.3701 112.77C67.9201 114.05 65.3701 115.12 62.7501 115.98C60.0901 116.8 57.3401 117.3 54.5601 117.46C49.0101 117.84 43.4701 116.64 38.5801 114Z" fill="#4A2F27" style="fill:#4A2F27;fill:color(display-p3 0.2902 0.1843 0.1529);fill-opacity:1;"/>
<defs>
<radialGradient id="paint0_radial_169_10950" cx="0" cy="0" r="1" gradientUnits="userSpaceOnUse" gradientTransform="translate(63.6 62.9) scale(56.9597 56.9597)">
<stop offset="0.5" stop-color="#FDE030" style="stop-color:#FDE030;stop-color:color(display-p3 0.9922 0.8784 0.1882);stop-opacity:1;"/>
<stop offset="0.92" stop-color="#F7C02B" style="stop-color:#F7C02B;stop-color:color(display-p3 0.9686 0.7529 0.1686);stop-opacity:1;"/>
<stop offset="1" stop-color="#F4A223" style="stop-color:#F4A223;stop-color:color(display-p3 0.9569 0.6353 0.1373);stop-opacity:1;"/>
</radialGradient>
<linearGradient id="paint1_linear_169_10950" x1="63.6" y1="118.8" x2="63.6" y2="7" gradientUnits="userSpaceOnUse">
<stop offset="0.16" stop-color="#F4A223" style="stop-color:#F4A223;stop-color:color(display-p3 0.9569 0.6353 0.1373);stop-opacity:1;"/>
<stop offset="0.33" stop-color="#F7C02B" style="stop-color:#F7C02B;stop-color:color(display-p3 0.9686 0.7529 0.1686);stop-opacity:1;"/>
<stop offset="0.81" stop-color="#FDE030" stop-opacity="0" style="stop-color:none;stop-opacity:0;"/>
</linearGradient>
<radialGradient id="paint2_radial_169_10950" cx="0" cy="0" r="1" gradientUnits="userSpaceOnUse" gradientTransform="translate(52.9999 33.5) rotate(79.6952) scale(61.4919 100.858)">
<stop offset="0.3533" stop-color="#F9DDBD" style="stop-color:#F9DDBD;stop-color:color(display-p3 0.9765 0.8667 0.7412);stop-opacity:1;"/>
<stop offset="0.8723" stop-color="#FECD92" style="stop-color:#FECD92;stop-color:color(display-p3 0.9958 0.8035 0.5726);stop-opacity:1;"/>
</radialGradient>
<radialGradient id="paint3_radial_169_10950" cx="0" cy="0" r="1" gradientUnits="userSpaceOnUse" gradientTransform="translate(63.9999 24) rotate(94.514) scale(76.2365 76.0874)">
<stop offset="0.3533" stop-color="#70534A" style="stop-color:#70534A;stop-color:color(display-p3 0.4392 0.3255 0.2902);stop-opacity:1;"/>
<stop offset="0.8723" stop-color="#52372F" style="stop-color:#52372F;stop-color:color(display-p3 0.3208 0.2166 0.1831);stop-opacity:1;"/>
</radialGradient>
<radialGradient id="paint4_radial_169_10950" cx="0" cy="0" r="1" gradientUnits="userSpaceOnUse" gradientTransform="translate(38.599 34.5377) rotate(-43.2082) scale(102.024 101.825)">
<stop offset="0.3533" stop-color="#A56C43" style="stop-color:#A56C43;stop-color:color(display-p3 0.6471 0.4235 0.2627);stop-opacity:1;"/>
<stop offset="0.8723" stop-color="#8D5738" style="stop-color:#8D5738;stop-color:color(display-p3 0.5529 0.3412 0.2196);stop-opacity:1;"/>
</radialGradient>
<radialGradient id="paint5_radial_169_10950" cx="0" cy="0" r="1" gradientUnits="userSpaceOnUse" gradientTransform="translate(27.25 68.16) scale(19.0831 18.1094)">
<stop stop-color="#ED7770" style="stop-color:#ED7770;stop-color:color(display-p3 0.9294 0.4667 0.4392);stop-opacity:1;"/>
<stop offset="0.08" stop-color="#ED7770" stop-opacity="0.96" style="stop-color:#ED7770;stop-color:color(display-p3 0.9294 0.4667 0.4392);stop-opacity:0.96;"/>
<stop offset="0.22" stop-color="#ED7770" stop-opacity="0.85" style="stop-color:#ED7770;stop-color:color(display-p3 0.9294 0.4667 0.4392);stop-opacity:0.85;"/>
<stop offset="0.39" stop-color="#ED7770" stop-opacity="0.68" style="stop-color:#ED7770;stop-color:color(display-p3 0.9294 0.4667 0.4392);stop-opacity:0.68;"/>
<stop offset="0.59" stop-color="#ED7770" stop-opacity="0.43" style="stop-color:#ED7770;stop-color:color(display-p3 0.9294 0.4667 0.4392);stop-opacity:0.43;"/>
<stop offset="0.81" stop-color="#ED7770" stop-opacity="0.13" style="stop-color:#ED7770;stop-color:color(display-p3 0.9294 0.4667 0.4392);stop-opacity:0.13;"/>
<stop offset="0.9" stop-color="#ED7770" stop-opacity="0" style="stop-color:none;stop-opacity:0;"/>
</radialGradient>
<radialGradient id="paint6_radial_169_10950" cx="0" cy="0" r="1" gradientUnits="userSpaceOnUse" gradientTransform="translate(100.357 68.16) scale(19.0831 18.1094)">
<stop stop-color="#ED7770" style="stop-color:#ED7770;stop-color:color(display-p3 0.9294 0.4667 0.4392);stop-opacity:1;"/>
<stop offset="0.08" stop-color="#ED7770" stop-opacity="0.96" style="stop-color:#ED7770;stop-color:color(display-p3 0.9294 0.4667 0.4392);stop-opacity:0.96;"/>
<stop offset="0.22" stop-color="#ED7770" stop-opacity="0.85" style="stop-color:#ED7770;stop-color:color(display-p3 0.9294 0.4667 0.4392);stop-opacity:0.85;"/>
<stop offset="0.39" stop-color="#ED7770" stop-opacity="0.68" style="stop-color:#ED7770;stop-color:color(display-p3 0.9294 0.4667 0.4392);stop-opacity:0.68;"/>
<stop offset="0.59" stop-color="#ED7770" stop-opacity="0.43" style="stop-color:#ED7770;stop-color:color(display-p3 0.9294 0.4667 0.4392);stop-opacity:0.43;"/>
<stop offset="0.81" stop-color="#ED7770" stop-opacity="0.13" style="stop-color:#ED7770;stop-color:color(display-p3 0.9294 0.4667 0.4392);stop-opacity:0.13;"/>
<stop offset="0.9" stop-color="#ED7770" stop-opacity="0" style="stop-color:none;stop-opacity:0;"/>
</radialGradient>
<linearGradient id="paint7_linear_169_10950" x1="54.8171" y1="126.695" x2="53.7414" y2="57.094" gradientUnits="userSpaceOnUse">
<stop stop-color="#140905" style="stop-color:#140905;stop-color:color(display-p3 0.0792 0.0350 0.0214);stop-opacity:1;"/>
<stop offset="1" stop-color="#2C1109" stop-opacity="0.2" style="stop-color:#2C1109;stop-color:color(display-p3 0.1708 0.0679 0.0363);stop-opacity:0.2;"/>
</linearGradient>
<radialGradient id="paint8_radial_169_10950" cx="0" cy="0" r="1" gradientUnits="userSpaceOnUse" gradientTransform="translate(63.06 73.94) scale(65.06 65.06)">
<stop offset="0.27" stop-color="#FFF176" style="stop-color:#FFF176;stop-color:color(display-p3 1.0000 0.9451 0.4627);stop-opacity:1;"/>
<stop offset="1" stop-color="#FFC400" style="stop-color:#FFC400;stop-color:color(display-p3 1.0000 0.7686 0.0000);stop-opacity:1;"/>
</radialGradient>
<radialGradient id="paint9_radial_169_10950" cx="0" cy="0" r="1" gradientUnits="userSpaceOnUse" gradientTransform="translate(47.6501 71.5747) rotate(-41.4461) scale(57.1781 56.7387)">
<stop offset="0.3533" stop-color="#F9DDBD" style="stop-color:#F9DDBD;stop-color:color(display-p3 0.9765 0.8667 0.7412);stop-opacity:1;"/>
<stop offset="0.8723" stop-color="#FFD29C" style="stop-color:#FFD29C;stop-color:color(display-p3 1.0000 0.8235 0.6118);stop-opacity:1;"/>
</radialGradient>
<radialGradient id="paint10_radial_169_10950" cx="0" cy="0" r="1" gradientUnits="userSpaceOnUse" gradientTransform="translate(47.6501 71.5747) rotate(-41.4461) scale(57.1781 56.7387)">
<stop offset="0.3533" stop-color="#7D5B50" style="stop-color:#7D5B50;stop-color:color(display-p3 0.4917 0.3572 0.3155);stop-opacity:1;"/>
<stop offset="0.8723" stop-color="#6D4C41" style="stop-color:#6D4C41;stop-color:color(display-p3 0.4292 0.2966 0.2539);stop-opacity:1;"/>
</radialGradient>
<radialGradient id="paint11_radial_169_10950" cx="0" cy="0" r="1" gradientUnits="userSpaceOnUse" gradientTransform="translate(47.6501 71.5747) rotate(-41.4461) scale(57.1781 56.7387)">
<stop offset="0.3533" stop-color="#BC8157" style="stop-color:#BC8157;stop-color:color(display-p3 0.7375 0.5069 0.3411);stop-opacity:1;"/>
<stop offset="0.8723" stop-color="#8D5738" style="stop-color:#8D5738;stop-color:color(display-p3 0.5529 0.3412 0.2196);stop-opacity:1;"/>
</radialGradient>
</defs>
</svg>
