<svg width="129" height="128" viewBox="0 0 129 128" fill="none" xmlns="http://www.w3.org/2000/svg">
<path fill-rule="evenodd" clip-rule="evenodd" d="M64.5 23.375C96.4365 26.4166 115.051 47.2204 114.582 108.837C114.559 111.799 112.332 114.281 109.395 114.661L103.982 115.362C86.424 117.637 68.6419 117.57 51.1018 115.163L47.8094 114.711C44.8387 114.304 42.5425 111.737 43.0294 108.778C46.6652 86.6865 73.454 90.6349 67.625 48.375" fill="white" style="fill:white;fill-opacity:1;"/>
<path fill-rule="evenodd" clip-rule="evenodd" d="M64.5 23.375C96.4365 26.4166 115.051 47.2204 114.582 108.837C114.559 111.799 112.332 114.281 109.395 114.661L103.982 115.362C86.424 117.637 68.6419 117.57 51.1018 115.163L47.8094 114.711C44.8387 114.304 42.5425 111.737 43.0294 108.778C46.6652 86.6865 73.454 90.6349 67.625 48.375" fill="#DFE6EB" style="fill:#DFE6EB;fill:color(display-p3 0.8745 0.9020 0.9216);fill-opacity:1;"/>
<path fill-rule="evenodd" clip-rule="evenodd" d="M70.75 48.375C71.9375 57.4688 53.4063 71.4062 45.75 76.5C36.375 82.75 36.9375 90.0625 30.125 89C26.8688 86.0625 34.5313 79.5 30.125 79.625C27 79.625 30.7188 83.4688 27 85.875C23.875 85.875 14.4906 89 14.5 73.375C14.5 67.125 33.25 35.875 33.25 35.875C33.25 35.875 39.1563 29.9375 39.5 24.9375C37.2188 21.8312 37.9375 18.6875 37.9375 15.5625C41.0625 12.4375 47.3125 23.375 47.3125 23.375H53.5625C53.5625 23.375 56 17.15 61.375 14C64.5 14 64.5 23.375 64.5 23.375" fill="white" style="fill:white;fill-opacity:1;"/>
<path fill-rule="evenodd" clip-rule="evenodd" d="M70.75 48.375C71.9375 57.4688 53.4063 71.4062 45.75 76.5C36.375 82.75 36.9375 90.0625 30.125 89C26.8688 86.0625 34.5313 79.5 30.125 79.625C27 79.625 30.7188 83.4688 27 85.875C23.875 85.875 14.4906 89 14.5 73.375C14.5 67.125 33.25 35.875 33.25 35.875C33.25 35.875 39.1563 29.9375 39.5 24.9375C37.2188 21.8312 37.9375 18.6875 37.9375 15.5625C41.0625 12.4375 47.3125 23.375 47.3125 23.375H53.5625C53.5625 23.375 56 17.15 61.375 14C64.5 14 64.5 23.375 64.5 23.375" fill="#DFE6EB" style="fill:#DFE6EB;fill:color(display-p3 0.8745 0.9020 0.9216);fill-opacity:1;"/>
<path fill-rule="evenodd" clip-rule="evenodd" d="M25.4375 71.8125C25.4375 72.2269 25.2729 72.6243 24.9799 72.9174C24.6868 73.2104 24.2894 73.375 23.875 73.375C23.4606 73.375 23.0632 73.2104 22.7701 72.9174C22.4771 72.6243 22.3125 72.2269 22.3125 71.8125C22.3125 71.3981 22.4771 71.0007 22.7701 70.7076C23.0632 70.4146 23.4606 70.25 23.875 70.25C24.2894 70.25 24.6868 70.4146 24.9799 70.7076C25.2729 71.0007 25.4375 71.3981 25.4375 71.8125Z" fill="#4C4B4B" style="fill:#4C4B4B;fill:color(display-p3 0.2980 0.2941 0.2941);fill-opacity:1;"/>
<path d="M37.6133 42.5092C37.1727 43.6238 36.6808 44.6102 36.2113 45.3595C36.4208 44.391 36.7598 43.2755 37.2004 42.161C37.6409 41.0464 38.1329 40.0599 38.6024 39.3107C38.3928 40.2791 38.0539 41.3946 37.6133 42.5092ZM35.0811 46.6858C35.0811 46.6858 35.0817 46.6856 35.0828 46.6852C35.0817 46.6857 35.0811 46.6858 35.0811 46.6858ZM39.7326 37.9843C39.7326 37.9843 39.732 37.9846 39.7309 37.9849C39.732 37.9845 39.7326 37.9843 39.7326 37.9843Z" fill="#5E6367" stroke="#616161" style="fill:#5E6367;fill:color(display-p3 0.3686 0.3882 0.4039);fill-opacity:1;stroke:#616161;stroke:color(display-p3 0.3804 0.3804 0.3804);stroke-opacity:1;" stroke-width="3" stroke-linecap="round" stroke-linejoin="round"/>
<path d="M72.758 91.5762C73.3092 89.3668 62.1419 90.7739 56.2869 94.0048C53.293 95.6515 50.1309 97.8381 48.181 102.528C46.3997 106.816 48.6165 111.106 53.7225 108.7C60.3444 105.579 57.9481 102.081 63.3709 98.3464C67.6388 95.4029 72.16 93.8933 72.758 91.5762Z" fill="white" style="fill:white;fill-opacity:1;"/>
</svg>
