<svg width="128" height="129" viewBox="0 0 128 129" fill="none" xmlns="http://www.w3.org/2000/svg">
<g clip-path="url(#clip0_43_0)">
<path d="M124 35.45C122.15 36.57 120.34 37.51 118.57 38.3C116.79 39.1 115.05 39.75 113.33 40.28C111.61 40.81 109.93 41.23 108.27 41.54C106.61 41.86 104.98 42.08 103.38 42.22C101.78 42.36 100.19 42.42 98.63 42.42C97.07 42.42 95.53 42.36 94.01 42.24C92.49 42.12 90.99 41.96 89.51 41.76C88.03 41.55 86.56 41.31 85.11 41.03C83.66 40.75 82.22 40.45 80.79 40.12C79.36 39.79 77.94 39.44 76.54 39.07C75.13 38.7 73.73 38.31 72.33 37.92C70.93 37.53 69.54 37.11 68.16 36.7C66.77 36.29 65.39 35.87 64 35.45C62.62 35.03 61.23 34.61 59.84 34.2C58.45 33.79 57.06 33.38 55.67 32.98C54.27 32.58 52.87 32.2 51.46 31.83C50.05 31.46 48.63 31.11 47.21 30.78C45.79 30.45 44.34 30.14 42.89 29.87C41.44 29.59 39.97 29.35 38.49 29.14C37.01 28.93 35.51 28.77 33.99 28.66C32.47 28.55 30.93 28.48 29.37 28.48C27.81 28.48 26.23 28.54 24.62 28.68C23.01 28.82 21.38 29.04 19.73 29.36C18.07 29.68 16.39 30.09 14.67 30.62C12.95 31.15 11.21 31.8 9.43 32.6C7.66 33.4 5.85 34.34 4 35.45V30.44C4 30.44 4 27.56 4 26.07V21.06C5.85 19.94 7.66 19 9.43 18.21C11.2 17.42 12.95 16.76 14.67 16.23C16.39 15.7 18.07 15.28 19.73 14.97C21.39 14.65 23.02 14.43 24.62 14.29C26.23 14.15 27.81 14.09 29.37 14.09C30.93 14.09 32.47 14.15 33.99 14.27C35.51 14.38 37.01 14.55 38.49 14.75C39.97 14.95 41.44 15.2 42.89 15.48C44.34 15.76 45.78 16.06 47.21 16.39C48.64 16.72 50.06 17.07 51.46 17.44C52.87 17.81 54.27 18.2 55.67 18.59C57.07 18.98 58.46 19.4 59.84 19.81C61.22 20.22 62.61 20.64 64 21.06C65.38 21.48 66.77 21.9 68.16 22.31C69.55 22.72 70.94 23.13 72.33 23.53C73.72 23.93 75.13 24.31 76.54 24.68C77.95 25.05 79.37 25.4 80.79 25.73C82.22 26.06 83.66 26.37 85.11 26.64C86.56 26.92 88.03 27.16 89.51 27.37C90.99 27.58 92.49 27.74 94.01 27.85C95.53 27.96 97.07 28.03 98.63 28.03C100.19 28.03 101.77 27.97 103.38 27.83C104.99 27.69 106.62 27.47 108.27 27.15C109.93 26.83 111.61 26.42 113.33 25.89C115.05 25.36 116.79 24.71 118.57 23.91C120.35 23.11 122.16 22.17 124 21.06V26.07V30.44C124 30.44 124 33.53 124 35.45Z" fill="#E105AA" style="fill:#E105AA;fill:color(display-p3 0.8824 0.0196 0.6667);fill-opacity:1;"/>
<path d="M124 49.85C122.15 50.97 120.34 51.91 118.57 52.7C116.79 53.5 115.05 54.15 113.33 54.68C111.61 55.21 109.93 55.63 108.27 55.94C106.61 56.26 104.98 56.48 103.38 56.62C101.78 56.76 100.19 56.82 98.63 56.82C97.07 56.82 95.53 56.76 94.01 56.64C92.49 56.52 90.99 56.36 89.51 56.16C88.03 55.95 86.56 55.71 85.11 55.43C83.66 55.15 82.22 54.85 80.79 54.52C79.36 54.19 77.94 53.84 76.54 53.47C75.13 53.1 73.73 52.71 72.33 52.32C70.93 51.93 69.54 51.51 68.16 51.1C66.77 50.69 65.39 50.27 64 49.85C62.61 49.43 61.23 49.01 59.84 48.6C58.45 48.19 57.06 47.78 55.67 47.38C54.27 46.98 52.87 46.6 51.46 46.23C50.05 45.86 48.63 45.51 47.21 45.18C45.78 44.85 44.34 44.54 42.89 44.27C41.44 43.99 39.97 43.75 38.49 43.54C37.01 43.33 35.51 43.17 33.99 43.06C32.47 42.95 30.93 42.88 29.37 42.88C27.81 42.88 26.23 42.94 24.62 43.08C23.01 43.22 21.38 43.44 19.73 43.76C18.07 44.08 16.39 44.49 14.67 45.02C12.95 45.55 11.21 46.2 9.43 47C7.65 47.8 5.85 48.73 4 49.85V44.84C4 44.84 4 41.96 4 40.47C4 38.98 4 37.38 4 35.46C5.85 34.34 7.66 33.4 9.43 32.61C11.21 31.81 12.95 31.16 14.67 30.63C16.39 30.1 18.07 29.68 19.73 29.37C21.39 29.05 23.02 28.83 24.62 28.69C26.23 28.55 27.81 28.49 29.37 28.49C30.93 28.49 32.47 28.55 33.99 28.67C35.51 28.78 37.01 28.95 38.49 29.15C39.97 29.35 41.44 29.6 42.89 29.88C44.34 30.16 45.78 30.46 47.21 30.79C48.64 31.12 50.06 31.47 51.46 31.84C52.87 32.21 54.27 32.6 55.67 32.99C57.07 33.39 58.46 33.8 59.84 34.21C61.23 34.62 62.61 35.04 64 35.46C65.38 35.88 66.77 36.3 68.16 36.71C69.55 37.12 70.94 37.53 72.33 37.93C73.72 38.33 75.13 38.71 76.54 39.08C77.95 39.45 79.37 39.8 80.79 40.13C82.22 40.46 83.66 40.77 85.11 41.04C86.56 41.32 88.03 41.56 89.51 41.77C90.99 41.98 92.49 42.14 94.01 42.25C95.53 42.36 97.07 42.43 98.63 42.43C100.19 42.43 101.77 42.37 103.38 42.23C104.99 42.09 106.62 41.87 108.27 41.55C109.93 41.23 111.61 40.82 113.33 40.29C115.05 39.76 116.79 39.11 118.57 38.31C120.35 37.51 122.16 36.57 124 35.46V40.47C124 40.47 124 43.35 124 44.84C124 46.33 124 47.93 124 49.85Z" fill="#E105AA" style="fill:#E105AA;fill:color(display-p3 0.8824 0.0196 0.6667);fill-opacity:1;"/>
<path d="M124 64.25C122.15 65.37 120.34 66.31 118.57 67.1C116.79 67.9 115.05 68.55 113.33 69.08C111.61 69.61 109.93 70.03 108.27 70.34C106.61 70.66 104.98 70.88 103.38 71.02C101.78 71.16 100.19 71.22 98.63 71.22C97.07 71.22 95.53 71.16 94.01 71.04C92.49 70.92 90.99 70.76 89.51 70.56C88.03 70.35 86.56 70.11 85.11 69.83C83.66 69.55 82.22 69.25 80.79 68.92C79.36 68.59 77.94 68.24 76.54 67.87C75.13 67.5 73.73 67.11 72.33 66.72C70.93 66.33 69.54 65.91 68.16 65.5C66.77 65.09 65.38 64.67 64 64.25C62.62 63.83 61.23 63.41 59.84 63C58.45 62.59 57.06 62.18 55.67 61.78C54.27 61.38 52.87 61 51.46 60.63C50.05 60.26 48.63 59.91 47.21 59.58C45.79 59.25 44.34 58.94 42.89 58.67C41.44 58.39 39.97 58.15 38.49 57.94C37.01 57.73 35.51 57.57 33.99 57.46C32.47 57.35 30.93 57.28 29.37 57.28C27.81 57.28 26.23 57.34 24.62 57.48C23.01 57.62 21.38 57.84 19.73 58.16C18.07 58.48 16.39 58.89 14.67 59.42C12.95 59.95 11.21 60.6 9.43 61.4C7.66 62.19 5.85 63.13 4 64.25V59.24C4 59.24 4 56.36 4 54.87V49.86C5.85 48.74 7.66 47.8 9.43 47.01C11.2 46.22 12.95 45.56 14.67 45.03C16.39 44.5 18.07 44.08 19.73 43.77C21.39 43.45 23.02 43.23 24.62 43.09C26.23 42.95 27.81 42.89 29.37 42.89C30.93 42.89 32.47 42.95 33.99 43.07C35.51 43.18 37.01 43.35 38.49 43.55C39.97 43.76 41.44 44 42.89 44.28C44.34 44.56 45.78 44.86 47.21 45.19C48.64 45.52 50.06 45.87 51.46 46.24C52.87 46.61 54.27 47 55.67 47.39C57.07 47.79 58.46 48.2 59.84 48.61C61.23 49.02 62.61 49.44 64 49.86C65.39 50.28 66.77 50.7 68.16 51.11C69.55 51.52 70.94 51.93 72.33 52.33C73.72 52.73 75.13 53.11 76.54 53.48C77.95 53.85 79.37 54.2 80.79 54.53C82.22 54.86 83.66 55.17 85.11 55.44C86.56 55.72 88.03 55.96 89.51 56.17C90.99 56.38 92.49 56.54 94.01 56.65C95.53 56.76 97.07 56.83 98.63 56.83C100.19 56.83 101.77 56.77 103.38 56.63C104.99 56.49 106.62 56.27 108.27 55.95C109.93 55.63 111.61 55.22 113.33 54.69C115.05 54.16 116.79 53.51 118.57 52.71C120.35 51.91 122.16 50.97 124 49.86V54.87V59.24C124 59.24 124 62.33 124 64.25Z" fill="#20BF60" style="fill:#20BF60;fill:color(display-p3 0.1255 0.7490 0.3765);fill-opacity:1;"/>
<path d="M124 78.65C122.15 79.77 120.34 80.71 118.57 81.5C116.79 82.3 115.05 82.95 113.33 83.48C111.61 84.01 109.93 84.43 108.27 84.74C106.61 85.05 104.98 85.28 103.38 85.42C101.77 85.56 100.19 85.62 98.63 85.62C97.07 85.62 95.53 85.56 94.01 85.44C92.49 85.33 90.99 85.16 89.51 84.96C88.03 84.75 86.56 84.51 85.11 84.23C83.66 83.95 82.22 83.65 80.79 83.32C79.36 82.99 77.94 82.64 76.54 82.27C75.13 81.9 73.73 81.51 72.33 81.12C70.93 80.73 69.54 80.31 68.16 79.9C66.77 79.49 65.39 79.07 64 78.65C62.62 78.23 61.23 77.81 59.84 77.4C58.45 76.99 57.06 76.58 55.67 76.18C54.27 75.78 52.87 75.4 51.46 75.03C50.05 74.66 48.63 74.31 47.21 73.98C45.79 73.65 44.34 73.34 42.89 73.07C41.44 72.79 39.97 72.55 38.49 72.34C37.01 72.13 35.51 71.97 33.99 71.86C32.47 71.75 30.93 71.68 29.37 71.68C27.81 71.68 26.23 71.74 24.62 71.88C23.01 72.02 21.38 72.24 19.73 72.56C18.07 72.88 16.39 73.29 14.67 73.82C12.95 74.35 11.21 75 9.43 75.8C7.66 76.6 5.85 77.54 4 78.65V73.64C4 73.64 4 70.76 4 69.27V64.26C5.85 63.14 7.66 62.2 9.43 61.41C11.21 60.61 12.95 59.96 14.67 59.43C16.39 58.9 18.07 58.48 19.73 58.17C21.39 57.85 23.02 57.63 24.62 57.49C26.23 57.35 27.81 57.29 29.37 57.29C30.93 57.29 32.47 57.35 33.99 57.47C35.51 57.58 37.01 57.75 38.49 57.95C39.97 58.16 41.44 58.4 42.89 58.68C44.34 58.96 45.78 59.26 47.21 59.59C48.64 59.92 50.06 60.27 51.46 60.64C52.87 61.01 54.27 61.4 55.67 61.79C57.07 62.19 58.46 62.6 59.84 63.01C61.23 63.42 62.61 63.84 64 64.26C65.38 64.68 66.77 65.1 68.16 65.51C69.55 65.92 70.94 66.33 72.33 66.73C73.72 67.13 75.13 67.51 76.54 67.88C77.95 68.25 79.37 68.6 80.79 68.93C82.22 69.26 83.66 69.57 85.11 69.84C86.56 70.12 88.03 70.36 89.51 70.57C90.99 70.78 92.49 70.94 94.01 71.05C95.53 71.16 97.07 71.23 98.63 71.23C100.19 71.23 101.77 71.17 103.38 71.03C104.99 70.89 106.62 70.67 108.27 70.35C109.93 70.03 111.61 69.62 113.33 69.09C115.05 68.56 116.79 67.91 118.57 67.11C120.35 66.31 122.16 65.37 124 64.26V69.27V73.64C124 73.64 124 76.73 124 78.65Z" fill="#20BF60" style="fill:#20BF60;fill:color(display-p3 0.1255 0.7490 0.3765);fill-opacity:1;"/>
<path d="M124 93.0499C122.15 94.1699 120.34 95.1099 118.57 95.8999C116.79 96.6999 115.05 97.3499 113.33 97.8799C111.61 98.4099 109.93 98.8299 108.27 99.1399C106.61 99.4499 104.98 99.6799 103.38 99.8199C101.77 99.9599 100.19 100.02 98.63 100.02C97.07 100.02 95.53 99.9599 94.01 99.8399C92.49 99.7299 90.99 99.5599 89.51 99.3599C88.03 99.1499 86.56 98.9099 85.11 98.6299C83.66 98.3499 82.22 98.0499 80.79 97.7199C79.36 97.3899 77.94 97.0399 76.54 96.6699C75.13 96.2999 73.73 95.9099 72.33 95.5199C70.93 95.1199 69.54 94.7099 68.16 94.2999C66.77 93.8899 65.39 93.4699 64 93.0499C62.62 92.6299 61.23 92.2099 59.84 91.7999C58.45 91.3899 57.06 90.9799 55.67 90.5799C54.27 90.1799 52.87 89.7999 51.46 89.4299C50.05 89.0599 48.63 88.7099 47.21 88.3799C45.79 88.0499 44.34 87.7399 42.89 87.4699C41.44 87.1899 39.97 86.9499 38.49 86.7399C37.01 86.5299 35.51 86.3699 33.99 86.2599C32.47 86.1499 30.93 86.0799 29.37 86.0799C27.81 86.0799 26.23 86.1399 24.62 86.2799C23.01 86.4199 21.38 86.6399 19.73 86.9599C18.08 87.2799 16.39 87.6899 14.67 88.2199C12.95 88.7499 11.21 89.3999 9.43 90.1999C7.65 90.9999 5.85 91.9299 4 93.0499V88.0399C4 88.0399 4 85.1599 4 83.6699V78.6599C5.85 77.5399 7.66 76.5999 9.43 75.8099C11.21 75.0099 12.95 74.3599 14.67 73.8299C16.39 73.2999 18.07 72.8799 19.73 72.5699C21.39 72.2499 23.02 72.0299 24.62 71.8899C26.23 71.7499 27.81 71.6899 29.37 71.6899C30.93 71.6899 32.47 71.7499 33.99 71.8699C35.51 71.9799 37.01 72.1499 38.49 72.3499C39.97 72.5599 41.44 72.7999 42.89 73.0799C44.34 73.3599 45.78 73.6599 47.21 73.9899C48.64 74.3199 50.06 74.6699 51.46 75.0399C52.87 75.4099 54.27 75.7999 55.67 76.1899C57.07 76.5899 58.46 76.9999 59.84 77.4099C61.23 77.8199 62.61 78.2399 64 78.6599C65.38 79.0799 66.77 79.4999 68.16 79.9099C69.55 80.3199 70.94 80.7299 72.33 81.1299C73.72 81.5299 75.13 81.9099 76.54 82.2799C77.95 82.6499 79.37 82.9999 80.79 83.3299C82.22 83.6599 83.66 83.9699 85.11 84.2399C86.56 84.5199 88.03 84.7599 89.51 84.9699C90.99 85.1799 92.49 85.3399 94.01 85.4499C95.53 85.5599 97.07 85.6299 98.63 85.6299C100.19 85.6299 101.77 85.5699 103.38 85.4299C104.99 85.2899 106.62 85.0699 108.27 84.7499C109.93 84.4299 111.61 84.0199 113.33 83.4899C115.05 82.9599 116.79 82.3099 118.57 81.5099C120.35 80.7099 122.16 79.7699 124 78.6599V83.6699V88.0399C124 88.0399 124 91.1299 124 93.0499Z" fill="#2080ED" style="fill:#2080ED;fill:color(display-p3 0.1255 0.5020 0.9294);fill-opacity:1;"/>
<path d="M124 107.45C122.15 108.57 120.34 109.51 118.57 110.3C116.79 111.1 115.05 111.75 113.33 112.28C111.61 112.81 109.93 113.23 108.27 113.54C106.61 113.86 104.98 114.08 103.38 114.22C101.77 114.36 100.19 114.42 98.63 114.42C97.07 114.42 95.53 114.36 94.01 114.24C92.49 114.13 90.99 113.96 89.51 113.76C88.03 113.55 86.56 113.31 85.11 113.03C83.66 112.75 82.22 112.45 80.79 112.12C79.36 111.79 77.94 111.44 76.54 111.07C75.14 110.7 73.73 110.31 72.33 109.92C70.93 109.52 69.54 109.11 68.16 108.7C66.77 108.29 65.39 107.87 64 107.45C62.62 107.03 61.23 106.61 59.84 106.2C58.45 105.79 57.06 105.38 55.67 104.98C54.27 104.58 52.87 104.2 51.46 103.83C50.05 103.46 48.63 103.11 47.21 102.78C45.79 102.45 44.34 102.14 42.89 101.87C41.44 101.59 39.97 101.35 38.49 101.14C37.01 100.93 35.51 100.77 33.99 100.66C32.47 100.55 30.93 100.48 29.37 100.48C27.81 100.48 26.23 100.54 24.62 100.68C23.01 100.82 21.38 101.04 19.73 101.36C18.07 101.68 16.39 102.09 14.67 102.62C12.95 103.15 11.21 103.8 9.43 104.6C7.65 105.4 5.84 106.34 4 107.45V102.44C4 102.44 4 99.56 4 98.07V93.06C5.85 91.94 7.66 91 9.43 90.21C11.2 89.42 12.95 88.76 14.67 88.23C16.39 87.7 18.07 87.28 19.73 86.97C21.39 86.66 23.02 86.43 24.62 86.29C26.23 86.15 27.81 86.09 29.37 86.09C30.93 86.09 32.47 86.15 33.99 86.27C35.51 86.38 37.01 86.55 38.49 86.75C39.97 86.95 41.44 87.2 42.89 87.48C44.34 87.76 45.78 88.06 47.21 88.39C48.64 88.72 50.06 89.07 51.46 89.44C52.87 89.81 54.27 90.2 55.67 90.59C57.07 90.99 58.46 91.4 59.84 91.81C61.23 92.22 62.61 92.64 64 93.06C65.38 93.48 66.77 93.9 68.16 94.31C69.55 94.72 70.94 95.13 72.33 95.53C73.73 95.93 75.13 96.31 76.54 96.68C77.95 97.05 79.37 97.4 80.79 97.73C82.22 98.06 83.66 98.37 85.11 98.64C86.56 98.92 88.03 99.16 89.51 99.37C90.99 99.58 92.49 99.74 94.01 99.85C95.53 99.96 97.07 100.03 98.63 100.03C100.19 100.03 101.77 99.97 103.38 99.83C104.99 99.69 106.62 99.47 108.27 99.15C109.92 98.83 111.61 98.42 113.33 97.89C115.05 97.36 116.79 96.71 118.57 95.91C120.35 95.11 122.16 94.17 124 93.06V98.07V102.44C124 102.44 124 105.53 124 107.45Z" fill="#2080ED" style="fill:#2080ED;fill:color(display-p3 0.1255 0.5020 0.9294);fill-opacity:1;"/>
<path opacity="0.3" d="M124 107.45C122.15 108.57 120.34 109.51 118.57 110.3C116.79 111.1 115.05 111.75 113.33 112.28C111.61 112.81 109.93 113.23 108.27 113.54C106.61 113.86 104.98 114.08 103.38 114.22C101.77 114.36 100.19 114.42 98.63 114.42C97.07 114.42 95.53 114.36 94.01 114.24C92.49 114.13 90.99 113.96 89.51 113.76C88.03 113.55 86.56 113.31 85.11 113.03C83.66 112.75 82.22 112.45 80.79 112.12C79.36 111.79 77.94 111.44 76.54 111.07C75.14 110.7 73.73 110.31 72.33 109.92C70.93 109.52 69.54 109.11 68.16 108.7C66.77 108.29 65.39 107.87 64 107.45C62.62 107.03 61.23 106.61 59.84 106.2C58.45 105.79 57.06 105.38 55.67 104.98C54.27 104.58 52.87 104.2 51.46 103.83C50.05 103.46 48.63 103.11 47.21 102.78C45.79 102.45 44.34 102.14 42.89 101.87C41.44 101.59 39.97 101.35 38.49 101.14C37.01 100.93 35.51 100.77 33.99 100.66C32.47 100.55 30.93 100.48 29.37 100.48C27.81 100.48 26.23 100.54 24.62 100.68C23.01 100.82 21.38 101.04 19.73 101.36C18.07 101.68 16.39 102.09 14.67 102.62C12.95 103.15 11.21 103.8 9.43 104.6C7.65 105.4 5.84 106.34 4 107.45V101.84V96.52V91.45V86.59V81.91C4 81.91 4 78.86 4 77.37V72.94C4 72.94 4 70.02 4 68.58C4 67.14 4 65.69 4 64.25V59.92V55.56V51.13C4 51.13 4 48.13 4 46.59C4 45.05 4 43.5 4 41.91V37.05C4 37.05 4 33.71 4 31.98V26.66V21.05C5.85 19.93 7.66 18.99 9.43 18.2C11.2 17.41 12.95 16.75 14.67 16.22C16.39 15.69 18.07 15.27 19.73 14.96C21.39 14.64 23.02 14.42 24.62 14.28C26.23 14.14 27.81 14.08 29.37 14.08C30.93 14.08 32.47 14.14 33.99 14.26C35.51 14.37 37.01 14.54 38.49 14.74C39.97 14.94 41.44 15.19 42.89 15.47C44.34 15.75 45.78 16.05 47.21 16.38C48.64 16.71 50.06 17.06 51.46 17.43C52.87 17.8 54.27 18.19 55.67 18.58C57.07 18.97 58.46 19.39 59.84 19.8C61.22 20.21 62.61 20.63 64 21.05C65.38 21.47 66.77 21.89 68.16 22.3C69.55 22.71 70.94 23.12 72.33 23.52C73.72 23.92 75.13 24.3 76.54 24.67C77.95 25.04 79.37 25.39 80.79 25.72C82.22 26.05 83.66 26.36 85.11 26.63C86.56 26.91 88.03 27.15 89.51 27.36C90.99 27.57 92.49 27.73 94.01 27.84C95.53 27.95 97.07 28.02 98.63 28.02C100.19 28.02 101.77 27.96 103.38 27.82C104.99 27.68 106.62 27.46 108.27 27.14C109.93 26.82 111.61 26.41 113.33 25.88C115.05 25.35 116.79 24.7 118.57 23.9C120.35 23.1 122.16 22.16 124 21.05V26.66V31.98V37.05C124 37.05 124 40.32 124 41.91V46.59C124 46.59 124 49.64 124 51.13C124 52.62 124 54.1 124 55.56V59.92V64.25V68.58C124 68.58 124 71.48 124 72.94C124 74.4 124 75.88 124 77.37V81.91C124 81.91 124 85 124 86.59V91.45V96.52V101.84V107.45Z" fill="url(#paint0_linear_43_0)" style=""/>
</g>
<defs>
<linearGradient id="paint0_linear_43_0" x1="5.3703" y1="22.909" x2="122.37" y2="105.41" gradientUnits="userSpaceOnUse">
<stop stop-color="white" stop-opacity="0" style="stop-color:none;stop-opacity:0;"/>
<stop offset="0.1646" stop-color="#C8C8C8" stop-opacity="0.1646" style="stop-color:#C8C8C8;stop-color:color(display-p3 0.7843 0.7843 0.7843);stop-opacity:0.1646;"/>
<stop offset="0.3934" stop-color="#828282" stop-opacity="0.3934" style="stop-color:#828282;stop-color:color(display-p3 0.5098 0.5098 0.5098);stop-opacity:0.3934;"/>
<stop offset="0.5997" stop-color="#4A4A4A" stop-opacity="0.5997" style="stop-color:#4A4A4A;stop-color:color(display-p3 0.2902 0.2902 0.2902);stop-opacity:0.5997;"/>
<stop offset="0.7759" stop-color="#222222" stop-opacity="0.7759" style="stop-color:#222222;stop-color:color(display-p3 0.1333 0.1333 0.1333);stop-opacity:0.7759;"/>
<stop offset="0.9151" stop-color="#090909" stop-opacity="0.9151" style="stop-color:#090909;stop-color:color(display-p3 0.0353 0.0353 0.0353);stop-opacity:0.9151;"/>
<stop offset="1" style="stop-color:black;stop-opacity:1;"/>
</linearGradient>
<clipPath id="clip0_43_0">
<rect width="128" height="128" fill="white" style="fill:white;fill-opacity:1;" transform="translate(0 0.25)"/>
</clipPath>
</defs>
</svg>
