<svg width="129" height="129" viewBox="0 0 129 129" fill="none" xmlns="http://www.w3.org/2000/svg">
<path d="M76.46 75.9L78.79 73.52C78.96 73.4 79.89 73.38 80.08 73.44C80.14 73.44 80.53 74.13 80.59 74.14L81.49 74.3C81.87 74.39 82.12 74.78 82.03 75.17L81.99 75.38C81.91 75.77 81.53 76.02 81.15 75.93L79.78 75.61L77.4 77.29C77.08 77.52 76.64 77.43 76.41 77.1L76.29 76.92C76.06 76.57 76.14 76.12 76.46 75.9Z" fill="#EDA600" style="fill:#EDA600;fill:color(display-p3 0.9294 0.6510 0.0000);fill-opacity:1;"/>
<path d="M76.46 75.9L78.79 73.52C78.96 73.4 79.89 73.38 80.08 73.44C80.14 73.44 80.53 74.13 80.59 74.14L81.49 74.3C81.87 74.39 82.12 74.78 82.03 75.17L81.99 75.38C81.91 75.77 81.53 76.02 81.15 75.93L79.78 75.61L77.4 77.29C77.08 77.52 76.64 77.43 76.41 77.1L76.29 76.92C76.06 76.57 76.14 76.12 76.46 75.9Z" fill="#EDBD82" style="fill:#EDBD82;fill:color(display-p3 0.9294 0.7412 0.5098);fill-opacity:1;"/>
<path d="M76.46 75.9L78.79 73.52C78.96 73.4 79.89 73.38 80.08 73.44C80.14 73.44 80.53 74.13 80.59 74.14L81.49 74.3C81.87 74.39 82.12 74.78 82.03 75.17L81.99 75.38C81.91 75.77 81.53 76.02 81.15 75.93L79.78 75.61L77.4 77.29C77.08 77.52 76.64 77.43 76.41 77.1L76.29 76.92C76.06 76.57 76.14 76.12 76.46 75.9Z" fill="#3C2B24" style="fill:#3C2B24;fill:color(display-p3 0.2353 0.1686 0.1412);fill-opacity:1;"/>
<path d="M121.34 113.67C120.78 111.24 118.1 108.55 115.47 105.95C113.77 104.27 110.71 104.62 109.04 106.33C107.37 108.04 107.07 111.11 108.77 112.79C111.4 115.39 114.13 118.03 116.56 118.55C118.47 118.96 120.06 118.35 120.63 117.77C121.2 117.18 121.78 115.58 121.34 113.67Z" fill="#504F4F" style="fill:#504F4F;fill:color(display-p3 0.3137 0.3098 0.3098);fill-opacity:1;"/>
<path d="M91.8 124.32H85.74L82.46 105.04C83.11 106.74 84.76 107.95 86.7 107.95C89.2 107.95 91.23 105.93 91.24 103.44L91.8 124.32Z" fill="url(#paint0_linear_84_3899)" style=""/>
<path d="M91.8 124.32H85.74L82.46 105.04C83.11 106.74 84.76 107.95 86.7 107.95C89.2 107.95 91.23 105.93 91.24 103.44L91.8 124.32Z" fill="url(#paint1_linear_84_3899)" style=""/>
<path d="M91.8 124.32H85.74L82.46 105.04C83.11 106.74 84.76 107.95 86.7 107.95C89.2 107.95 91.23 105.93 91.24 103.44L91.8 124.32Z" fill="url(#paint2_linear_84_3899)" style=""/>
<path d="M116.06 113.97C115.06 114.53 113.82 114.46 112.89 113.78L100.74 103.14C100.63 103.04 100.52 102.94 100.42 102.83C101.26 103.66 102.41 104.18 103.69 104.18C106.26 104.18 108.34 102.1 108.34 99.53C108.34 99.03 108.26 98.54 108.11 98.09C108.12 98.1 108.13 98.12 108.14 98.13L116.69 109.29C118.08 110.67 117.77 113.01 116.06 113.97Z" fill="url(#paint3_linear_84_3899)" style=""/>
<path d="M116.06 113.97C115.06 114.53 113.82 114.46 112.89 113.78L100.74 103.14C100.63 103.04 100.52 102.94 100.42 102.83C101.26 103.66 102.41 104.18 103.69 104.18C106.26 104.18 108.34 102.1 108.34 99.53C108.34 99.03 108.26 98.54 108.11 98.09C108.12 98.1 108.13 98.12 108.14 98.13L116.69 109.29C118.08 110.67 117.77 113.01 116.06 113.97Z" fill="url(#paint4_linear_84_3899)" style=""/>
<path d="M116.06 113.97C115.06 114.53 113.82 114.46 112.89 113.78L100.74 103.14C100.63 103.04 100.52 102.94 100.42 102.83C101.26 103.66 102.41 104.18 103.69 104.18C106.26 104.18 108.34 102.1 108.34 99.53C108.34 99.03 108.26 98.54 108.11 98.09C108.12 98.1 108.13 98.12 108.14 98.13L116.69 109.29C118.08 110.67 117.77 113.01 116.06 113.97Z" fill="url(#paint5_linear_84_3899)" style=""/>
<path d="M108.34 99.53C108.34 102.1 106.26 104.18 103.69 104.18C102.41 104.18 101.26 103.66 100.42 102.83C100.29 102.7 100.17 102.57 100.06 102.43C99.8502 102.18 99.6602 101.9 99.5002 101.62L92.6702 88.97C92.6302 88.75 91.4602 88.6 91.2602 88.6C91.0602 88.6 90.8902 88.76 90.8502 88.97L91.2402 103.31V103.42C91.2402 103.43 91.2402 103.43 91.2402 103.44C91.2302 105.93 89.2002 107.95 86.7002 107.95C84.7602 107.95 83.1102 106.74 82.4602 105.04L82.1702 103.28L78.7402 83.12L90.0802 75.09L102.78 83.11L107.45 96.81L107.55 97.1C107.69 97.45 107.87 97.79 108.11 98.09C108.26 98.54 108.34 99.03 108.34 99.53Z" fill="url(#paint6_linear_84_3899)" style=""/>
<path d="M108.34 99.53C108.34 102.1 106.26 104.18 103.69 104.18C102.41 104.18 101.26 103.66 100.42 102.83C100.29 102.7 100.17 102.57 100.06 102.43C99.8502 102.18 99.6602 101.9 99.5002 101.62L92.6702 88.97C92.6302 88.75 91.4602 88.6 91.2602 88.6C91.0602 88.6 90.8902 88.76 90.8502 88.97L91.2402 103.31V103.42C91.2402 103.43 91.2402 103.43 91.2402 103.44C91.2302 105.93 89.2002 107.95 86.7002 107.95C84.7602 107.95 83.1102 106.74 82.4602 105.04L82.1702 103.28L78.7402 83.12L90.0802 75.09L102.78 83.11L107.45 96.81L107.55 97.1C107.69 97.45 107.87 97.79 108.11 98.09C108.26 98.54 108.34 99.03 108.34 99.53Z" fill="url(#paint7_linear_84_3899)" style=""/>
<path d="M108.34 99.53C108.34 102.1 106.26 104.18 103.69 104.18C102.41 104.18 101.26 103.66 100.42 102.83C100.29 102.7 100.17 102.57 100.06 102.43C99.8502 102.18 99.6602 101.9 99.5002 101.62L92.6702 88.97C92.6302 88.75 91.4602 88.6 91.2602 88.6C91.0602 88.6 90.8902 88.76 90.8502 88.97L91.2402 103.31V103.42C91.2402 103.43 91.2402 103.43 91.2402 103.44C91.2302 105.93 89.2002 107.95 86.7002 107.95C84.7602 107.95 83.1102 106.74 82.4602 105.04L82.1702 103.28L78.7402 83.12L90.0802 75.09L102.78 83.11L107.45 96.81L107.55 97.1C107.69 97.45 107.87 97.79 108.11 98.09C108.26 98.54 108.34 99.03 108.34 99.53Z" fill="url(#paint8_linear_84_3899)" style=""/>
<path d="M105.39 75.64L102.75 73.42C102.58 73.3 102.03 73.66 101.84 73.71C101.78 73.71 101.32 73.86 101.26 73.87L100.36 74.03C99.9801 74.12 99.7301 74.51 99.8201 74.9L99.8601 75.11C99.9401 75.5 100.32 75.75 100.7 75.66L102.07 75.34L104.45 77.02C104.77 77.25 105.21 77.16 105.44 76.83L105.56 76.65C105.79 76.32 105.71 75.87 105.39 75.64Z" fill="#EDA600" style="fill:#EDA600;fill:color(display-p3 0.9294 0.6510 0.0000);fill-opacity:1;"/>
<path d="M105.39 75.64L102.75 73.42C102.58 73.3 102.03 73.66 101.84 73.71C101.78 73.71 101.32 73.86 101.26 73.87L100.36 74.03C99.9801 74.12 99.7301 74.51 99.8201 74.9L99.8601 75.11C99.9401 75.5 100.32 75.75 100.7 75.66L102.07 75.34L104.45 77.02C104.77 77.25 105.21 77.16 105.44 76.83L105.56 76.65C105.79 76.32 105.71 75.87 105.39 75.64Z" fill="#EDBD82" style="fill:#EDBD82;fill:color(display-p3 0.9294 0.7412 0.5098);fill-opacity:1;"/>
<path d="M105.39 75.64L102.75 73.42C102.58 73.3 102.03 73.66 101.84 73.71C101.78 73.71 101.32 73.86 101.26 73.87L100.36 74.03C99.9801 74.12 99.7301 74.51 99.8201 74.9L99.8601 75.11C99.9401 75.5 100.32 75.75 100.7 75.66L102.07 75.34L104.45 77.02C104.77 77.25 105.21 77.16 105.44 76.83L105.56 76.65C105.79 76.32 105.71 75.87 105.39 75.64Z" fill="#3C2B24" style="fill:#3C2B24;fill:color(display-p3 0.2353 0.1686 0.1412);fill-opacity:1;"/>
<path d="M109.27 60.8401C109.27 60.8401 107.2 53.4301 90.23 53.4301C73.26 53.4301 72.27 60.8401 72.27 60.8401L78.62 65.6701H101.87L109.27 60.8401Z" fill="#444444" style="fill:#444444;fill:color(display-p3 0.2667 0.2667 0.2667);fill-opacity:1;"/>
<path d="M110.24 60.8401C110.24 60.8401 107.17 53.4301 90.2002 53.4301C73.2302 53.4301 71.2402 60.8401 71.2402 60.8401L78.6602 67.7301V83.1501L88.4002 89.5801C89.1702 89.9701 90.0202 90.1701 90.8802 90.1701C91.7702 90.1701 92.6502 89.9501 93.4402 89.5401L102.75 83.1501V67.7301L110.24 60.8401Z" fill="url(#paint9_linear_84_3899)" style=""/>
<path d="M116.21 69.51L108.82 59.74L102.64 64.1L110.06 71.05L104.87 75.36C104.33 75.34 103.4 75.2 102.21 75.2H101.82L101.8 75.19C101.8 75.19 100.13 75.31 99.6902 75.65C99.2902 75.96 99.3302 76.5 99.5102 76.7C99.7202 76.94 99.6702 77.36 99.4602 77.59C99.2502 77.83 99.1202 78.12 99.1402 78.42C99.1602 78.71 99.2902 78.88 99.5802 79.1C99.7202 79.2 99.7902 79.48 99.7202 79.63C99.6002 79.87 99.4102 80.28 99.4502 80.5C99.5402 80.93 99.9802 81.02 100.08 81.35C100.12 81.48 99.7102 81.92 100.13 82.29C100.52 82.64 101.19 82.92 102.21 82.92C103.12 82.92 104.31 82.7 105.82 82.1C105.86 82.08 116.21 73.66 116.21 73.66C117.26 72.55 117.21 70.67 116.21 69.51Z" fill="url(#paint10_linear_84_3899)" style=""/>
<path d="M116.21 69.51L108.82 59.74L102.64 64.1L110.06 71.05L104.87 75.36C104.33 75.34 103.4 75.2 102.21 75.2H101.82L101.8 75.19C101.8 75.19 100.13 75.31 99.6902 75.65C99.2902 75.96 99.3302 76.5 99.5102 76.7C99.7202 76.94 99.6702 77.36 99.4602 77.59C99.2502 77.83 99.1202 78.12 99.1402 78.42C99.1602 78.71 99.2902 78.88 99.5802 79.1C99.7202 79.2 99.7902 79.48 99.7202 79.63C99.6002 79.87 99.4102 80.28 99.4502 80.5C99.5402 80.93 99.9802 81.02 100.08 81.35C100.12 81.48 99.7102 81.92 100.13 82.29C100.52 82.64 101.19 82.92 102.21 82.92C103.12 82.92 104.31 82.7 105.82 82.1C105.86 82.08 116.21 73.66 116.21 73.66C117.26 72.55 117.21 70.67 116.21 69.51Z" fill="url(#paint11_linear_84_3899)" style=""/>
<path d="M116.21 69.51L108.82 59.74L102.64 64.1L110.06 71.05L104.87 75.36C104.33 75.34 103.4 75.2 102.21 75.2H101.82L101.8 75.19C101.8 75.19 100.13 75.31 99.6902 75.65C99.2902 75.96 99.3302 76.5 99.5102 76.7C99.7202 76.94 99.6702 77.36 99.4602 77.59C99.2502 77.83 99.1202 78.12 99.1402 78.42C99.1602 78.71 99.2902 78.88 99.5802 79.1C99.7202 79.2 99.7902 79.48 99.7202 79.63C99.6002 79.87 99.4102 80.28 99.4502 80.5C99.5402 80.93 99.9802 81.02 100.08 81.35C100.12 81.48 99.7102 81.92 100.13 82.29C100.52 82.64 101.19 82.92 102.21 82.92C103.12 82.92 104.31 82.7 105.82 82.1C105.86 82.08 116.21 73.66 116.21 73.66C117.26 72.55 117.21 70.67 116.21 69.51Z" fill="url(#paint12_linear_84_3899)" style=""/>
<path d="M82.7202 78.44C82.7402 78.14 82.6102 77.85 82.4002 77.61C82.1902 77.37 82.1402 76.95 82.3502 76.72C82.5302 76.52 82.5602 75.97 82.1702 75.67C81.7302 75.33 80.0602 75.21 80.0602 75.21L80.0402 75.22H79.6502C78.4602 75.22 77.5302 75.35 76.9902 75.38L71.8002 71.07L79.2202 64.12L73.0302 59.74L65.6502 69.53C64.6502 70.68 64.6002 72.57 65.6502 73.68C65.6502 73.68 76.0002 82.1 76.0402 82.12C77.5502 82.71 78.7402 82.94 79.6502 82.94C80.6602 82.94 81.3402 82.66 81.7302 82.31C82.1502 81.93 81.7402 81.5 81.7802 81.37C81.8802 81.04 82.3102 80.95 82.4102 80.52C82.4602 80.31 82.2602 79.89 82.1402 79.65C82.0602 79.5 82.1402 79.22 82.2802 79.12C82.5702 78.9 82.7002 78.73 82.7202 78.44Z" fill="url(#paint13_linear_84_3899)" style=""/>
<path d="M82.7202 78.44C82.7402 78.14 82.6102 77.85 82.4002 77.61C82.1902 77.37 82.1402 76.95 82.3502 76.72C82.5302 76.52 82.5602 75.97 82.1702 75.67C81.7302 75.33 80.0602 75.21 80.0602 75.21L80.0402 75.22H79.6502C78.4602 75.22 77.5302 75.35 76.9902 75.38L71.8002 71.07L79.2202 64.12L73.0302 59.74L65.6502 69.53C64.6502 70.68 64.6002 72.57 65.6502 73.68C65.6502 73.68 76.0002 82.1 76.0402 82.12C77.5502 82.71 78.7402 82.94 79.6502 82.94C80.6602 82.94 81.3402 82.66 81.7302 82.31C82.1502 81.93 81.7402 81.5 81.7802 81.37C81.8802 81.04 82.3102 80.95 82.4102 80.52C82.4602 80.31 82.2602 79.89 82.1402 79.65C82.0602 79.5 82.1402 79.22 82.2802 79.12C82.5702 78.9 82.7002 78.73 82.7202 78.44Z" fill="url(#paint14_linear_84_3899)" style=""/>
<path d="M82.7202 78.44C82.7402 78.14 82.6102 77.85 82.4002 77.61C82.1902 77.37 82.1402 76.95 82.3502 76.72C82.5302 76.52 82.5602 75.97 82.1702 75.67C81.7302 75.33 80.0602 75.21 80.0602 75.21L80.0402 75.22H79.6502C78.4602 75.22 77.5302 75.35 76.9902 75.38L71.8002 71.07L79.2202 64.12L73.0302 59.74L65.6502 69.53C64.6502 70.68 64.6002 72.57 65.6502 73.68C65.6502 73.68 76.0002 82.1 76.0402 82.12C77.5502 82.71 78.7402 82.94 79.6502 82.94C80.6602 82.94 81.3402 82.66 81.7302 82.31C82.1502 81.93 81.7402 81.5 81.7802 81.37C81.8802 81.04 82.3102 80.95 82.4102 80.52C82.4602 80.31 82.2602 79.89 82.1402 79.65C82.0602 79.5 82.1402 79.22 82.2802 79.12C82.5702 78.9 82.7002 78.73 82.7202 78.44Z" fill="url(#paint15_linear_84_3899)" style=""/>
<path d="M110.27 60.8401C110.27 60.8401 107.2 53.4301 90.23 53.4301C73.26 53.4301 71.27 60.8401 71.27 60.8401L78.62 67.6701H102.87L110.27 60.8401Z" fill="url(#paint16_linear_84_3899)" style=""/>
<path d="M101.26 54.8501C101.17 57.8501 97.4398 62.0701 90.7598 62.0701C83.9998 62.0701 80.2598 57.7401 80.2598 54.7401C80.2598 54.6901 80.2598 54.6401 80.2698 54.5901C82.7498 53.8901 85.9898 53.4301 90.2298 53.4301C94.9798 53.4301 98.5698 54.0101 101.26 54.8501Z" fill="#FFCA28" style="fill:#FFCA28;fill:color(display-p3 1.0000 0.7922 0.1569);fill-opacity:1;"/>
<path d="M101.26 54.8501C101.17 57.8501 97.4398 62.0701 90.7598 62.0701C83.9998 62.0701 80.2598 57.7401 80.2598 54.7401C80.2598 54.6901 80.2598 54.6401 80.2698 54.5901C82.7498 53.8901 85.9898 53.4301 90.2298 53.4301C94.9798 53.4301 98.5698 54.0101 101.26 54.8501Z" fill="#F9DDBD" style="fill:#F9DDBD;fill:color(display-p3 0.9765 0.8667 0.7412);fill-opacity:1;"/>
<path d="M101.26 54.8501C101.17 57.8501 97.4398 62.0701 90.7598 62.0701C83.9998 62.0701 80.2598 57.7401 80.2598 54.7401C80.2598 54.6901 80.2598 54.6401 80.2698 54.5901C82.7498 53.8901 85.9898 53.4301 90.2298 53.4301C94.9798 53.4301 98.5698 54.0101 101.26 54.8501Z" fill="#70534A" style="fill:#70534A;fill:color(display-p3 0.4392 0.3255 0.2902);fill-opacity:1;"/>
<path d="M88.49 124.5H84.11C83.3 124.48 82.72 123.55 82.96 122.75C83.69 120.29 85.91 118.48 88.49 118.48C91.13 118.48 93.38 120.36 94.06 122.89C94.28 123.7 93.68 124.5 92.87 124.5H88.49Z" fill="#504F4F" style="fill:#504F4F;fill:color(display-p3 0.3137 0.3098 0.3098);fill-opacity:1;"/>
<path d="M20.6099 75.9L22.9399 73.52C23.1099 73.4 24.0399 73.38 24.2299 73.44C24.2899 73.44 24.6799 74.13 24.7399 74.14L25.6399 74.3C26.0199 74.39 26.2699 74.78 26.1799 75.17L26.1399 75.38C26.0599 75.77 25.6799 76.02 25.2999 75.93L23.9299 75.61L21.5499 77.29C21.2299 77.52 20.7899 77.43 20.5599 77.1L20.4399 76.92C20.2099 76.57 20.2899 76.12 20.6099 75.9Z" fill="#EDA600" style="fill:#EDA600;fill:color(display-p3 0.9294 0.6510 0.0000);fill-opacity:1;"/>
<path d="M20.6099 75.9L22.9399 73.52C23.1099 73.4 24.0399 73.38 24.2299 73.44C24.2899 73.44 24.6799 74.13 24.7399 74.14L25.6399 74.3C26.0199 74.39 26.2699 74.78 26.1799 75.17L26.1399 75.38C26.0599 75.77 25.6799 76.02 25.2999 75.93L23.9299 75.61L21.5499 77.29C21.2299 77.52 20.7899 77.43 20.5599 77.1L20.4399 76.92C20.2099 76.57 20.2899 76.12 20.6099 75.9Z" fill="#EDBD82" style="fill:#EDBD82;fill:color(display-p3 0.9294 0.7412 0.5098);fill-opacity:1;"/>
<path d="M20.6099 75.9L22.9399 73.52C23.1099 73.4 24.0399 73.38 24.2299 73.44C24.2899 73.44 24.6799 74.13 24.7399 74.14L25.6399 74.3C26.0199 74.39 26.2699 74.78 26.1799 75.17L26.1399 75.38C26.0599 75.77 25.6799 76.02 25.2999 75.93L23.9299 75.61L21.5499 77.29C21.2299 77.52 20.7899 77.43 20.5599 77.1L20.4399 76.92C20.2099 76.57 20.2899 76.12 20.6099 75.9Z" fill="#3C2B24" style="fill:#3C2B24;fill:color(display-p3 0.2353 0.1686 0.1412);fill-opacity:1;"/>
<path d="M65.49 113.67C64.93 111.24 62.25 108.55 59.62 105.95C57.92 104.27 54.86 104.62 53.19 106.33C51.52 108.04 51.22 111.11 52.92 112.79C55.55 115.39 58.28 118.03 60.71 118.55C62.62 118.96 64.21 118.35 64.78 117.77C65.35 117.18 65.93 115.58 65.49 113.67Z" fill="#504F4F" style="fill:#504F4F;fill:color(display-p3 0.3137 0.3098 0.3098);fill-opacity:1;"/>
<path d="M35.9499 124.32H29.8899L26.6099 105.04C27.2599 106.74 28.9099 107.95 30.8499 107.95C33.3499 107.95 35.3799 105.93 35.3899 103.44L35.9499 124.32Z" fill="url(#paint17_linear_84_3899)" style=""/>
<path d="M35.9499 124.32H29.8899L26.6099 105.04C27.2599 106.74 28.9099 107.95 30.8499 107.95C33.3499 107.95 35.3799 105.93 35.3899 103.44L35.9499 124.32Z" fill="url(#paint18_linear_84_3899)" style=""/>
<path d="M35.9499 124.32H29.8899L26.6099 105.04C27.2599 106.74 28.9099 107.95 30.8499 107.95C33.3499 107.95 35.3799 105.93 35.3899 103.44L35.9499 124.32Z" fill="url(#paint19_linear_84_3899)" style=""/>
<path d="M60.2098 113.97C59.2098 114.53 57.9698 114.46 57.0398 113.78L44.8898 103.14C44.7798 103.04 44.6698 102.94 44.5698 102.83C45.4098 103.66 46.5598 104.18 47.8398 104.18C50.4098 104.18 52.4898 102.1 52.4898 99.53C52.4898 99.03 52.4098 98.54 52.2598 98.09C52.2698 98.1 52.2798 98.12 52.2898 98.13L60.8398 109.29C62.2298 110.67 61.9198 113.01 60.2098 113.97Z" fill="url(#paint20_linear_84_3899)" style=""/>
<path d="M60.2098 113.97C59.2098 114.53 57.9698 114.46 57.0398 113.78L44.8898 103.14C44.7798 103.04 44.6698 102.94 44.5698 102.83C45.4098 103.66 46.5598 104.18 47.8398 104.18C50.4098 104.18 52.4898 102.1 52.4898 99.53C52.4898 99.03 52.4098 98.54 52.2598 98.09C52.2698 98.1 52.2798 98.12 52.2898 98.13L60.8398 109.29C62.2298 110.67 61.9198 113.01 60.2098 113.97Z" fill="url(#paint21_linear_84_3899)" style=""/>
<path d="M60.2098 113.97C59.2098 114.53 57.9698 114.46 57.0398 113.78L44.8898 103.14C44.7798 103.04 44.6698 102.94 44.5698 102.83C45.4098 103.66 46.5598 104.18 47.8398 104.18C50.4098 104.18 52.4898 102.1 52.4898 99.53C52.4898 99.03 52.4098 98.54 52.2598 98.09C52.2698 98.1 52.2798 98.12 52.2898 98.13L60.8398 109.29C62.2298 110.67 61.9198 113.01 60.2098 113.97Z" fill="url(#paint22_linear_84_3899)" style=""/>
<path d="M52.4901 99.53C52.4901 102.1 50.4101 104.18 47.8401 104.18C46.5601 104.18 45.4101 103.66 44.5701 102.83C44.4401 102.7 44.3201 102.57 44.2101 102.43C44.0001 102.18 43.8101 101.9 43.6501 101.62L36.8201 88.97C36.7801 88.75 35.6101 88.6 35.4101 88.6C35.2101 88.6 35.0401 88.76 35.0001 88.97L35.3901 103.31V103.42C35.3901 103.43 35.3901 103.43 35.3901 103.44C35.3801 105.93 33.3501 107.95 30.8501 107.95C28.9101 107.95 27.2601 106.74 26.6101 105.04L26.3201 103.28L22.8901 83.12L34.2301 75.09L46.9301 83.11L51.6001 96.81L51.7001 97.1C51.8401 97.45 52.0201 97.79 52.2601 98.09C52.4101 98.54 52.4901 99.03 52.4901 99.53Z" fill="url(#paint23_linear_84_3899)" style=""/>
<path d="M52.4901 99.53C52.4901 102.1 50.4101 104.18 47.8401 104.18C46.5601 104.18 45.4101 103.66 44.5701 102.83C44.4401 102.7 44.3201 102.57 44.2101 102.43C44.0001 102.18 43.8101 101.9 43.6501 101.62L36.8201 88.97C36.7801 88.75 35.6101 88.6 35.4101 88.6C35.2101 88.6 35.0401 88.76 35.0001 88.97L35.3901 103.31V103.42C35.3901 103.43 35.3901 103.43 35.3901 103.44C35.3801 105.93 33.3501 107.95 30.8501 107.95C28.9101 107.95 27.2601 106.74 26.6101 105.04L26.3201 103.28L22.8901 83.12L34.2301 75.09L46.9301 83.11L51.6001 96.81L51.7001 97.1C51.8401 97.45 52.0201 97.79 52.2601 98.09C52.4101 98.54 52.4901 99.03 52.4901 99.53Z" fill="url(#paint24_linear_84_3899)" style=""/>
<path d="M52.4901 99.53C52.4901 102.1 50.4101 104.18 47.8401 104.18C46.5601 104.18 45.4101 103.66 44.5701 102.83C44.4401 102.7 44.3201 102.57 44.2101 102.43C44.0001 102.18 43.8101 101.9 43.6501 101.62L36.8201 88.97C36.7801 88.75 35.6101 88.6 35.4101 88.6C35.2101 88.6 35.0401 88.76 35.0001 88.97L35.3901 103.31V103.42C35.3901 103.43 35.3901 103.43 35.3901 103.44C35.3801 105.93 33.3501 107.95 30.8501 107.95C28.9101 107.95 27.2601 106.74 26.6101 105.04L26.3201 103.28L22.8901 83.12L34.2301 75.09L46.9301 83.11L51.6001 96.81L51.7001 97.1C51.8401 97.45 52.0201 97.79 52.2601 98.09C52.4101 98.54 52.4901 99.03 52.4901 99.53Z" fill="url(#paint25_linear_84_3899)" style=""/>
<path d="M49.54 75.64L46.9 73.42C46.73 73.3 46.18 73.66 45.99 73.71C45.93 73.71 45.47 73.86 45.41 73.87L44.51 74.03C44.13 74.12 43.88 74.51 43.97 74.9L44.01 75.11C44.09 75.5 44.47 75.75 44.85 75.66L46.22 75.34L48.6 77.02C48.92 77.25 49.36 77.16 49.59 76.83L49.71 76.65C49.94 76.32 49.86 75.87 49.54 75.64Z" fill="#EDA600" style="fill:#EDA600;fill:color(display-p3 0.9294 0.6510 0.0000);fill-opacity:1;"/>
<path d="M49.54 75.64L46.9 73.42C46.73 73.3 46.18 73.66 45.99 73.71C45.93 73.71 45.47 73.86 45.41 73.87L44.51 74.03C44.13 74.12 43.88 74.51 43.97 74.9L44.01 75.11C44.09 75.5 44.47 75.75 44.85 75.66L46.22 75.34L48.6 77.02C48.92 77.25 49.36 77.16 49.59 76.83L49.71 76.65C49.94 76.32 49.86 75.87 49.54 75.64Z" fill="#EDBD82" style="fill:#EDBD82;fill:color(display-p3 0.9294 0.7412 0.5098);fill-opacity:1;"/>
<path d="M49.54 75.64L46.9 73.42C46.73 73.3 46.18 73.66 45.99 73.71C45.93 73.71 45.47 73.86 45.41 73.87L44.51 74.03C44.13 74.12 43.88 74.51 43.97 74.9L44.01 75.11C44.09 75.5 44.47 75.75 44.85 75.66L46.22 75.34L48.6 77.02C48.92 77.25 49.36 77.16 49.59 76.83L49.71 76.65C49.94 76.32 49.86 75.87 49.54 75.64Z" fill="#3C2B24" style="fill:#3C2B24;fill:color(display-p3 0.2353 0.1686 0.1412);fill-opacity:1;"/>
<path d="M53.4199 60.8401C53.4199 60.8401 51.3499 53.4301 34.3799 53.4301C17.4099 53.4301 16.4199 60.8401 16.4199 60.8401L22.7699 65.6701H46.0199L53.4199 60.8401Z" fill="#444444" style="fill:#444444;fill:color(display-p3 0.2667 0.2667 0.2667);fill-opacity:1;"/>
<path d="M54.3901 60.8401C54.3901 60.8401 51.3201 53.4301 34.3501 53.4301C17.3801 53.4301 15.3901 60.8401 15.3901 60.8401L22.8101 67.7301V83.1501L32.5501 89.5801C33.3201 89.9701 34.1701 90.1701 35.0301 90.1701C35.9201 90.1701 36.8001 89.9501 37.5901 89.5401L46.9001 83.1501V67.7301L54.3901 60.8401Z" fill="url(#paint26_linear_84_3899)" style=""/>
<path d="M48.6599 46.08C48.1599 45.17 48.7999 44.24 49.8899 43.09C51.6199 41.27 53.4999 37.05 51.7499 32.76C51.7599 32.74 51.4099 32.01 51.4199 31.99L50.6999 31.95C50.4699 31.92 42.5699 31.9 34.6699 31.9C26.7699 31.9 18.8699 31.92 18.6399 31.95C18.6399 31.95 17.5799 32.73 17.5899 32.76C15.8399 37.05 17.7199 41.27 19.4499 43.09C20.5399 44.24 21.1799 45.16 20.6799 46.08C20.1899 46.96 18.7499 47.09 18.7499 47.09C18.7499 47.09 19.0799 48 19.8899 48.48C20.6299 48.93 21.5499 49.04 22.1799 49.05C22.1799 49.05 24.6499 52.47 31.0899 52.47H34.6799H38.2699C44.7199 52.47 47.1899 49.05 47.1899 49.05C47.8199 49.04 48.7299 48.93 49.4799 48.48C50.2799 47.99 50.6199 47.09 50.6199 47.09C50.6199 47.09 49.1499 46.97 48.6599 46.08Z" fill="#543930" style="fill:#543930;fill:color(display-p3 0.3294 0.2235 0.1882);fill-opacity:1;"/>
<path d="M48.6599 46.08C48.1599 45.17 48.7999 44.24 49.8899 43.09C51.6199 41.27 53.4999 37.05 51.7499 32.76C51.7599 32.74 51.4099 32.01 51.4199 31.99L50.6999 31.95C50.4699 31.92 42.5699 31.9 34.6699 31.9C26.7699 31.9 18.8699 31.92 18.6399 31.95C18.6399 31.95 17.5799 32.73 17.5899 32.76C15.8399 37.05 17.7199 41.27 19.4499 43.09C20.5399 44.24 21.1799 45.16 20.6799 46.08C20.1899 46.96 18.7499 47.09 18.7499 47.09C18.7499 47.09 19.0799 48 19.8899 48.48C20.6299 48.93 21.5499 49.04 22.1799 49.05C22.1799 49.05 24.6499 52.47 31.0899 52.47H34.6799H38.2699C44.7199 52.47 47.1899 49.05 47.1899 49.05C47.8199 49.04 48.7299 48.93 49.4799 48.48C50.2799 47.99 50.6199 47.09 50.6199 47.09C50.6199 47.09 49.1499 46.97 48.6599 46.08Z" fill="#312D2D" style="fill:#312D2D;fill:color(display-p3 0.1922 0.1765 0.1765);fill-opacity:1;"/>
<path d="M34.6602 52.48V48.69L46.1202 47.78L47.1602 49.06C47.1602 49.06 44.6902 52.48 38.2402 52.48H34.6602Z" fill="url(#paint27_radial_84_3899)" style=""/>
<path d="M47.1398 47.4101C45.4198 44.8001 49.2298 43.8301 49.2298 43.8301C48.5698 44.6501 48.2698 45.3701 48.6498 46.0801C49.1398 46.9601 50.5798 47.0901 50.5798 47.0901C50.5798 47.0901 48.6198 48.8501 47.1398 47.4101Z" fill="url(#paint28_radial_84_3899)" style=""/>
<path d="M51.7601 32.7601C53.4601 36.9101 51.6701 41.1901 49.9901 42.9901C49.7601 43.2401 48.7801 44.2001 48.5601 44.9601C48.5601 44.9601 44.7301 39.6201 43.5901 36.4901C43.3601 35.8601 43.1501 35.2101 43.1201 34.5301C43.1001 34.0301 43.1801 33.4201 43.4701 33.0001C43.8301 32.4701 51.5601 32.3201 51.5601 32.3201C51.5601 32.3301 51.7601 32.7601 51.7601 32.7601Z" fill="url(#paint29_radial_84_3899)" style=""/>
<path d="M17.58 32.7601C15.88 36.9101 17.67 41.1901 19.35 42.9901C19.58 43.2401 20.56 44.2001 20.78 44.9601C20.78 44.9601 24.61 39.6201 25.75 36.4901C25.98 35.8601 26.19 35.2101 26.22 34.5301C26.24 34.0301 26.16 33.4201 25.87 33.0001C25.51 32.4701 25.1 32.6101 24.49 32.6101C23.33 32.6101 18.28 32.3101 17.89 32.3101C17.89 32.3301 17.58 32.7601 17.58 32.7601Z" fill="url(#paint30_radial_84_3899)" style=""/>
<path d="M34.6802 52.48V48.69L23.2202 47.78L22.1802 49.06C22.1802 49.06 24.6502 52.48 31.0902 52.48H34.6802Z" fill="url(#paint31_radial_84_3899)" style=""/>
<path d="M22.1998 47.4101C23.9198 44.8001 20.1098 43.8301 20.1098 43.8301C20.7698 44.6501 21.0698 45.3701 20.6898 46.0801C20.1998 46.9601 18.7598 47.0901 18.7598 47.0901C18.7598 47.0901 20.7198 48.8501 22.1998 47.4101Z" fill="url(#paint32_radial_84_3899)" style=""/>
<path d="M60.3601 69.51L52.9701 59.74L46.7901 64.1L54.2101 71.05L49.0201 75.36C48.4801 75.34 47.5501 75.2 46.3601 75.2H45.9701L45.9501 75.19C45.9501 75.19 44.2801 75.31 43.8401 75.65C43.4401 75.96 43.4801 76.5 43.6601 76.7C43.8701 76.94 43.8201 77.36 43.6101 77.59C43.4001 77.83 43.2701 78.12 43.2901 78.42C43.3101 78.71 43.4401 78.88 43.7301 79.1C43.8701 79.2 43.9401 79.48 43.8701 79.63C43.7501 79.87 43.5601 80.28 43.6001 80.5C43.6901 80.93 44.1301 81.02 44.2301 81.35C44.2701 81.48 43.8601 81.92 44.2801 82.29C44.6701 82.64 45.3401 82.92 46.3601 82.92C47.2701 82.92 48.4601 82.7 49.9701 82.1C50.0101 82.08 60.3601 73.66 60.3601 73.66C61.4101 72.55 61.3601 70.67 60.3601 69.51Z" fill="url(#paint33_linear_84_3899)" style=""/>
<path d="M60.3601 69.51L52.9701 59.74L46.7901 64.1L54.2101 71.05L49.0201 75.36C48.4801 75.34 47.5501 75.2 46.3601 75.2H45.9701L45.9501 75.19C45.9501 75.19 44.2801 75.31 43.8401 75.65C43.4401 75.96 43.4801 76.5 43.6601 76.7C43.8701 76.94 43.8201 77.36 43.6101 77.59C43.4001 77.83 43.2701 78.12 43.2901 78.42C43.3101 78.71 43.4401 78.88 43.7301 79.1C43.8701 79.2 43.9401 79.48 43.8701 79.63C43.7501 79.87 43.5601 80.28 43.6001 80.5C43.6901 80.93 44.1301 81.02 44.2301 81.35C44.2701 81.48 43.8601 81.92 44.2801 82.29C44.6701 82.64 45.3401 82.92 46.3601 82.92C47.2701 82.92 48.4601 82.7 49.9701 82.1C50.0101 82.08 60.3601 73.66 60.3601 73.66C61.4101 72.55 61.3601 70.67 60.3601 69.51Z" fill="url(#paint34_linear_84_3899)" style=""/>
<path d="M60.3601 69.51L52.9701 59.74L46.7901 64.1L54.2101 71.05L49.0201 75.36C48.4801 75.34 47.5501 75.2 46.3601 75.2H45.9701L45.9501 75.19C45.9501 75.19 44.2801 75.31 43.8401 75.65C43.4401 75.96 43.4801 76.5 43.6601 76.7C43.8701 76.94 43.8201 77.36 43.6101 77.59C43.4001 77.83 43.2701 78.12 43.2901 78.42C43.3101 78.71 43.4401 78.88 43.7301 79.1C43.8701 79.2 43.9401 79.48 43.8701 79.63C43.7501 79.87 43.5601 80.28 43.6001 80.5C43.6901 80.93 44.1301 81.02 44.2301 81.35C44.2701 81.48 43.8601 81.92 44.2801 82.29C44.6701 82.64 45.3401 82.92 46.3601 82.92C47.2701 82.92 48.4601 82.7 49.9701 82.1C50.0101 82.08 60.3601 73.66 60.3601 73.66C61.4101 72.55 61.3601 70.67 60.3601 69.51Z" fill="url(#paint35_linear_84_3899)" style=""/>
<path d="M26.8701 78.44C26.8901 78.14 26.7601 77.85 26.5501 77.61C26.3401 77.37 26.2901 76.95 26.5001 76.72C26.6801 76.52 26.7101 75.97 26.3201 75.67C25.8801 75.33 24.2101 75.21 24.2101 75.21L24.1901 75.22H23.8001C22.6101 75.22 21.6801 75.35 21.1401 75.38L15.9501 71.07L23.3701 64.12L17.1801 59.74L9.80011 69.53C8.80011 70.68 8.75011 72.57 9.80011 73.68C9.80011 73.68 20.1501 82.1 20.1901 82.12C21.7001 82.71 22.8901 82.94 23.8001 82.94C24.8101 82.94 25.4901 82.66 25.8801 82.31C26.3001 81.93 25.8901 81.5 25.9301 81.37C26.0301 81.04 26.4601 80.95 26.5601 80.52C26.6101 80.31 26.4101 79.89 26.2901 79.65C26.2101 79.5 26.2901 79.22 26.4301 79.12C26.7201 78.9 26.8501 78.73 26.8701 78.44Z" fill="url(#paint36_linear_84_3899)" style=""/>
<path d="M26.8701 78.44C26.8901 78.14 26.7601 77.85 26.5501 77.61C26.3401 77.37 26.2901 76.95 26.5001 76.72C26.6801 76.52 26.7101 75.97 26.3201 75.67C25.8801 75.33 24.2101 75.21 24.2101 75.21L24.1901 75.22H23.8001C22.6101 75.22 21.6801 75.35 21.1401 75.38L15.9501 71.07L23.3701 64.12L17.1801 59.74L9.80011 69.53C8.80011 70.68 8.75011 72.57 9.80011 73.68C9.80011 73.68 20.1501 82.1 20.1901 82.12C21.7001 82.71 22.8901 82.94 23.8001 82.94C24.8101 82.94 25.4901 82.66 25.8801 82.31C26.3001 81.93 25.8901 81.5 25.9301 81.37C26.0301 81.04 26.4601 80.95 26.5601 80.52C26.6101 80.31 26.4101 79.89 26.2901 79.65C26.2101 79.5 26.2901 79.22 26.4301 79.12C26.7201 78.9 26.8501 78.73 26.8701 78.44Z" fill="url(#paint37_linear_84_3899)" style=""/>
<path d="M26.8701 78.44C26.8901 78.14 26.7601 77.85 26.5501 77.61C26.3401 77.37 26.2901 76.95 26.5001 76.72C26.6801 76.52 26.7101 75.97 26.3201 75.67C25.8801 75.33 24.2101 75.21 24.2101 75.21L24.1901 75.22H23.8001C22.6101 75.22 21.6801 75.35 21.1401 75.38L15.9501 71.07L23.3701 64.12L17.1801 59.74L9.80011 69.53C8.80011 70.68 8.75011 72.57 9.80011 73.68C9.80011 73.68 20.1501 82.1 20.1901 82.12C21.7001 82.71 22.8901 82.94 23.8001 82.94C24.8101 82.94 25.4901 82.66 25.8801 82.31C26.3001 81.93 25.8901 81.5 25.9301 81.37C26.0301 81.04 26.4601 80.95 26.5601 80.52C26.6101 80.31 26.4101 79.89 26.2901 79.65C26.2101 79.5 26.2901 79.22 26.4301 79.12C26.7201 78.9 26.8501 78.73 26.8701 78.44Z" fill="url(#paint38_linear_84_3899)" style=""/>
<path d="M54.4199 60.8401C54.4199 60.8401 51.3499 53.4301 34.3799 53.4301C17.4099 53.4301 15.4199 60.8401 15.4199 60.8401L22.7699 67.6701H47.0199L54.4199 60.8401Z" fill="url(#paint39_linear_84_3899)" style=""/>
<path d="M45.4102 54.8501C45.3202 57.8501 41.5902 62.0701 34.9102 62.0701C28.1502 62.0701 24.4102 57.7401 24.4102 54.7401C24.4102 54.6901 24.4102 54.6401 24.4202 54.5901C26.9002 53.8901 30.1402 53.4301 34.3802 53.4301C39.1302 53.4301 42.7202 54.0101 45.4102 54.8501Z" fill="#FFCA28" style="fill:#FFCA28;fill:color(display-p3 1.0000 0.7922 0.1569);fill-opacity:1;"/>
<path d="M45.4102 54.8501C45.3202 57.8501 41.5902 62.0701 34.9102 62.0701C28.1502 62.0701 24.4102 57.7401 24.4102 54.7401C24.4102 54.6901 24.4102 54.6401 24.4202 54.5901C26.9002 53.8901 30.1402 53.4301 34.3802 53.4301C39.1302 53.4301 42.7202 54.0101 45.4102 54.8501Z" fill="#F9DDBD" style="fill:#F9DDBD;fill:color(display-p3 0.9765 0.8667 0.7412);fill-opacity:1;"/>
<path d="M45.4102 54.8501C45.3202 57.8501 41.5902 62.0701 34.9102 62.0701C28.1502 62.0701 24.4102 57.7401 24.4102 54.7401C24.4102 54.6901 24.4102 54.6401 24.4202 54.5901C26.9002 53.8901 30.1402 53.4301 34.3802 53.4301C39.1302 53.4301 42.7202 54.0101 45.4102 54.8501Z" fill="#70534A" style="fill:#70534A;fill:color(display-p3 0.4392 0.3255 0.2902);fill-opacity:1;"/>
<path d="M32.6399 124.5H28.2599C27.4499 124.48 26.8699 123.55 27.1099 122.75C27.8399 120.29 30.0599 118.48 32.6399 118.48C35.2799 118.48 37.5299 120.36 38.2099 122.89C38.4299 123.7 37.8299 124.5 37.0199 124.5H32.6399Z" fill="#504F4F" style="fill:#504F4F;fill:color(display-p3 0.3137 0.3098 0.3098);fill-opacity:1;"/>
<path d="M34.4601 57.8C32.4901 57.8 30.8901 56.28 30.8901 54.4V50.14H38.8501V54.4C38.8501 56.27 37.2501 57.8 35.2801 57.8H34.4601Z" fill="#E59600" style="fill:#E59600;fill:color(display-p3 0.8980 0.5882 0.0000);fill-opacity:1;"/>
<path d="M34.4601 57.8C32.4901 57.8 30.8901 56.28 30.8901 54.4V50.14H38.8501V54.4C38.8501 56.27 37.2501 57.8 35.2801 57.8H34.4601Z" fill="#3C2B24" style="fill:#3C2B24;fill:color(display-p3 0.2353 0.1686 0.1412);fill-opacity:1;"/>
<path d="M45.5999 34.87H24.1499C21.8399 34.87 19.9399 36.89 19.9399 39.35C19.9399 41.81 21.8299 43.83 24.1499 43.83H45.5999C47.9099 43.83 49.8099 41.81 49.8099 39.35C49.8099 36.89 47.9099 34.87 45.5999 34.87Z" fill="#E59600" style="fill:#E59600;fill:color(display-p3 0.8980 0.5882 0.0000);fill-opacity:1;"/>
<path d="M45.5999 34.87H24.1499C21.8399 34.87 19.9399 36.89 19.9399 39.35C19.9399 41.81 21.8299 43.83 24.1499 43.83H45.5999C47.9099 43.83 49.8099 41.81 49.8099 39.35C49.8099 36.89 47.9099 34.87 45.5999 34.87Z" fill="#3C2B24" style="fill:#3C2B24;fill:color(display-p3 0.2353 0.1686 0.1412);fill-opacity:1;"/>
<path d="M34.8299 19.03C27.9999 19.03 21.6699 26.34 21.6699 36.85C21.6699 47.31 28.1899 52.48 34.8299 52.48C41.4699 52.48 47.9899 47.31 47.9899 36.85C47.9899 26.33 41.6599 19.03 34.8299 19.03Z" fill="#FFCA28" style="fill:#FFCA28;fill:color(display-p3 1.0000 0.7922 0.1569);fill-opacity:1;"/>
<path d="M34.8299 19.03C27.9999 19.03 21.6699 26.34 21.6699 36.85C21.6699 47.31 28.1899 52.48 34.8299 52.48C41.4699 52.48 47.9899 47.31 47.9899 36.85C47.9899 26.33 41.6599 19.03 34.8299 19.03Z" fill="#F9DDBD" style="fill:#F9DDBD;fill:color(display-p3 0.9765 0.8667 0.7412);fill-opacity:1;"/>
<path d="M34.8299 19.03C27.9999 19.03 21.6699 26.34 21.6699 36.85C21.6699 47.31 28.1899 52.48 34.8299 52.48C41.4699 52.48 47.9899 47.31 47.9899 36.85C47.9899 26.33 41.6599 19.03 34.8299 19.03Z" fill="#70534A" style="fill:#70534A;fill:color(display-p3 0.4392 0.3255 0.2902);fill-opacity:1;"/>
<path d="M28.4197 40.55C29.4857 40.55 30.3497 39.6546 30.3497 38.55C30.3497 37.4455 29.4857 36.55 28.4197 36.55C27.3538 36.55 26.4897 37.4455 26.4897 38.55C26.4897 39.6546 27.3538 40.55 28.4197 40.55Z" fill="#6D4C41" style="fill:#6D4C41;fill:color(display-p3 0.4275 0.2980 0.2549);fill-opacity:1;"/>
<path d="M28.4197 40.55C29.4857 40.55 30.3497 39.6546 30.3497 38.55C30.3497 37.4455 29.4857 36.55 28.4197 36.55C27.3538 36.55 26.4897 37.4455 26.4897 38.55C26.4897 39.6546 27.3538 40.55 28.4197 40.55Z" fill="#454140" style="fill:#454140;fill:color(display-p3 0.2706 0.2549 0.2510);fill-opacity:1;"/>
<path d="M28.4197 40.55C29.4857 40.55 30.3497 39.6546 30.3497 38.55C30.3497 37.4455 29.4857 36.55 28.4197 36.55C27.3538 36.55 26.4897 37.4455 26.4897 38.55C26.4897 39.6546 27.3538 40.55 28.4197 40.55Z" fill="#1A1717" style="fill:#1A1717;fill:color(display-p3 0.1020 0.0902 0.0902);fill-opacity:1;"/>
<path d="M41.3299 40.55C42.3958 40.55 43.2599 39.6546 43.2599 38.55C43.2599 37.4455 42.3958 36.55 41.3299 36.55C40.264 36.55 39.3999 37.4455 39.3999 38.55C39.3999 39.6546 40.264 40.55 41.3299 40.55Z" fill="#6D4C41" style="fill:#6D4C41;fill:color(display-p3 0.4275 0.2980 0.2549);fill-opacity:1;"/>
<path d="M41.3299 40.55C42.3958 40.55 43.2599 39.6546 43.2599 38.55C43.2599 37.4455 42.3958 36.55 41.3299 36.55C40.264 36.55 39.3999 37.4455 39.3999 38.55C39.3999 39.6546 40.264 40.55 41.3299 40.55Z" fill="#454140" style="fill:#454140;fill:color(display-p3 0.2706 0.2549 0.2510);fill-opacity:1;"/>
<path d="M41.3299 40.55C42.3958 40.55 43.2599 39.6546 43.2599 38.55C43.2599 37.4455 42.3958 36.55 41.3299 36.55C40.264 36.55 39.3999 37.4455 39.3999 38.55C39.3999 39.6546 40.264 40.55 41.3299 40.55Z" fill="#1A1717" style="fill:#1A1717;fill:color(display-p3 0.1020 0.0902 0.0902);fill-opacity:1;"/>
<path d="M38.0902 45.7101C36.8402 46.4501 32.7402 46.4501 31.4902 45.7101C30.7702 45.2801 30.0402 45.9401 30.3402 46.5901C30.6302 47.2301 32.8702 48.7201 34.8002 48.7201C36.7302 48.7201 38.9402 47.2301 39.2302 46.5901C39.5302 45.9301 38.8102 45.2801 38.0902 45.7101Z" fill="#6D4C41" style="fill:#6D4C41;fill:color(display-p3 0.4275 0.2980 0.2549);fill-opacity:1;"/>
<path d="M38.0902 45.7101C36.8402 46.4501 32.7402 46.4501 31.4902 45.7101C30.7702 45.2801 30.0402 45.9401 30.3402 46.5901C30.6302 47.2301 32.8702 48.7201 34.8002 48.7201C36.7302 48.7201 38.9402 47.2301 39.2302 46.5901C39.5302 45.9301 38.8102 45.2801 38.0902 45.7101Z" fill="#454140" style="fill:#454140;fill:color(display-p3 0.2706 0.2549 0.2510);fill-opacity:1;"/>
<path d="M38.0902 45.7101C36.8402 46.4501 32.7402 46.4501 31.4902 45.7101C30.7702 45.2801 30.0402 45.9401 30.3402 46.5901C30.6302 47.2301 32.8702 48.7201 34.8002 48.7201C36.7302 48.7201 38.9402 47.2301 39.2302 46.5901C39.5302 45.9301 38.8102 45.2801 38.0902 45.7101Z" fill="#1A1717" style="fill:#1A1717;fill:color(display-p3 0.1020 0.0902 0.0902);fill-opacity:1;"/>
<path d="M36.12 42.1001C36.08 42.0801 36.04 42.0701 35.99 42.0701H33.22C33.18 42.0801 33.14 42.0901 33.09 42.1001C32.84 42.2001 32.7 42.4601 32.82 42.7401C32.94 43.0201 33.49 43.8001 34.61 43.8001C35.72 43.8001 36.28 43.0201 36.4 42.7401C36.51 42.4601 36.37 42.2001 36.12 42.1001Z" fill="#E59600" style="fill:#E59600;fill:color(display-p3 0.8980 0.5882 0.0000);fill-opacity:1;"/>
<path d="M36.12 42.1001C36.08 42.0801 36.04 42.0701 35.99 42.0701H33.22C33.18 42.0801 33.14 42.0901 33.09 42.1001C32.84 42.2001 32.7 42.4601 32.82 42.7401C32.94 43.0201 33.49 43.8001 34.61 43.8001C35.72 43.8001 36.28 43.0201 36.4 42.7401C36.51 42.4601 36.37 42.2001 36.12 42.1001Z" fill="#DBA689" style="fill:#DBA689;fill:color(display-p3 0.8588 0.6510 0.5373);fill-opacity:1;"/>
<path d="M36.12 42.1001C36.08 42.0801 36.04 42.0701 35.99 42.0701H33.22C33.18 42.0801 33.14 42.0901 33.09 42.1001C32.84 42.2001 32.7 42.4601 32.82 42.7401C32.94 43.0201 33.49 43.8001 34.61 43.8001C35.72 43.8001 36.28 43.0201 36.4 42.7401C36.51 42.4601 36.37 42.2001 36.12 42.1001Z" fill="#33251F" style="fill:#33251F;fill:color(display-p3 0.2000 0.1451 0.1216);fill-opacity:1;"/>
<path d="M50.7399 24.13C49.7599 22.65 47.5699 20.66 45.5999 20.53C45.2799 18.64 43.2599 17.03 41.2999 16.41C35.9899 14.73 32.5399 16.61 30.6799 17.63C30.2899 17.84 27.7999 19.22 26.0599 18.23C24.9699 17.61 24.9899 15.93 24.9899 15.93C24.9899 15.93 21.5699 17.23 22.7399 20.86C21.5699 20.91 20.0199 21.4 19.2099 23.05C18.2399 25.01 18.5799 26.66 18.8699 27.44C17.8599 28.3 16.5899 30.12 17.4599 32.5C18.1199 34.28 20.7399 35.11 20.7399 35.11C20.5599 38.32 21.1599 40.3 21.4699 41.1C21.5299 41.24 21.7199 41.23 21.7599 41.08C22.1599 39.49 23.5099 33.94 23.3799 32.98C23.3799 32.98 27.9299 32.08 32.2699 28.88C33.1499 28.23 34.1099 27.68 35.1299 27.27C40.5799 25.1 41.7199 28.8 41.7199 28.8C41.7199 28.8 45.4999 28.07 46.6399 33.32C47.0699 35.29 47.3599 38.43 47.5999 40.64C47.6199 40.8 47.8299 40.83 47.8899 40.68C48.2699 39.81 49.0299 38.07 49.2199 36.3C49.2799 35.68 50.9599 34.86 51.6799 32.18C52.6299 28.62 51.4499 25.2 50.7399 24.13Z" fill="#434343" style="fill:#434343;fill:color(display-p3 0.2625 0.2625 0.2625);fill-opacity:1;"/>
<path d="M50.7399 24.13C49.7599 22.65 47.5699 20.66 45.5999 20.53C45.2799 18.64 43.2599 17.03 41.2999 16.41C35.9899 14.73 32.5399 16.61 30.6799 17.63C30.2899 17.84 27.7999 19.22 26.0599 18.23C24.9699 17.61 24.9899 15.93 24.9899 15.93C24.9899 15.93 21.5699 17.23 22.7399 20.86C21.5699 20.91 20.0199 21.4 19.2099 23.05C18.2399 25.01 18.5799 26.66 18.8699 27.44C17.8599 28.3 16.5899 30.12 17.4599 32.5C18.1199 34.28 20.7399 35.11 20.7399 35.11C20.5599 38.32 21.1599 40.3 21.4699 41.1C21.5299 41.24 21.7199 41.23 21.7599 41.08C22.1599 39.49 23.5099 33.94 23.3799 32.98C23.3799 32.98 27.9299 32.08 32.2699 28.88C33.1499 28.23 34.1099 27.68 35.1299 27.27C40.5799 25.1 41.7199 28.8 41.7199 28.8C41.7199 28.8 45.4999 28.07 46.6399 33.32C47.0699 35.29 47.3599 38.43 47.5999 40.64C47.6199 40.8 47.8299 40.83 47.8899 40.68C48.2699 39.81 49.0299 38.07 49.2199 36.3C49.2799 35.68 50.9599 34.86 51.6799 32.18C52.6299 28.62 51.4499 25.2 50.7399 24.13Z" fill="#312D2D" style="fill:#312D2D;fill:color(display-p3 0.1922 0.1765 0.1765);fill-opacity:1;"/>
<path d="M49.19 36.32C49.25 35.7 50.93 34.8801 51.65 32.2001C51.73 31.9201 51.79 31.63 51.85 31.34C52.43 28.09 51.38 25.11 50.73 24.13C49.83 22.76 47.88 20.96 46.04 20.6C45.88 20.58 45.72 20.56 45.57 20.55C45.57 20.55 45.7 21.41 45.35 22.1C44.9 22.99 43.98 23.2001 43.98 23.2001C48.8 28.0001 48.46 32.02 49.19 36.32Z" fill="url(#paint40_radial_84_3899)" style=""/>
<path d="M31.8399 17.0199C31.3999 17.2299 31.0099 17.4399 30.6799 17.6299C30.2899 17.8399 27.7999 19.2199 26.0599 18.2299C24.9899 17.6199 24.9899 15.9899 24.9899 15.9299C24.4999 16.5599 22.9999 21.0599 27.3699 21.3599C29.2499 21.4899 30.4099 19.8499 31.0999 18.4599C31.3399 17.9499 31.7299 17.2199 31.8399 17.0199Z" fill="url(#paint41_radial_84_3899)" style=""/>
<path d="M40.7398 16.25C43.6798 17.04 45.1098 18.54 45.5898 20.53C45.7298 21.11 45.8998 26.58 35.4698 20.37C31.5898 18.06 32.6498 16.61 33.0998 16.45C34.8798 15.81 37.4598 15.36 40.7398 16.25Z" fill="url(#paint42_radial_84_3899)" style=""/>
<path d="M24.9798 15.9299C24.9698 15.9299 24.9698 15.9399 24.9598 15.9399C24.5898 16.0999 21.6498 17.4599 22.7498 20.8599L25.8698 21.3599C23.1098 18.5599 24.9998 15.9299 24.9998 15.9299H24.9798Z" fill="url(#paint43_radial_84_3899)" style=""/>
<path d="M24.6698 21.17L22.7398 20.86C22.6598 20.86 22.4098 20.88 22.2698 20.9C21.1798 21.05 19.8998 21.61 19.2098 23.05C18.4598 24.6 18.4798 25.93 18.6898 26.81C18.7498 27.11 18.8698 27.44 18.8698 27.44C18.8698 27.44 19.8298 26.53 22.0998 26.47L24.6698 21.17Z" fill="url(#paint44_radial_84_3899)" style=""/>
<path d="M18.77 27.52C17.82 28.36 16.54 30.25 17.48 32.58C18.19 34.34 20.73 35.1 20.73 35.1C20.73 35.11 21.24 35.26 21.5 35.26L22.09 26.48C20.87 26.48 19.71 26.84 18.95 27.37C18.96 27.38 18.77 27.51 18.77 27.52Z" fill="url(#paint45_radial_84_3899)" style=""/>
<path d="M104.91 46.08C104.41 45.17 105.05 44.24 106.14 43.09C107.87 41.27 109.75 37.05 108 32.76C108.01 32.74 107.66 32.01 107.67 31.99L106.95 31.95C106.72 31.92 98.8204 31.9 90.9204 31.9C83.0204 31.9 75.1204 31.92 74.8904 31.95C74.8904 31.95 73.8304 32.73 73.8404 32.76C72.0904 37.05 73.9704 41.27 75.7004 43.09C76.7904 44.24 77.4304 45.16 76.9304 46.08C76.4404 46.96 75.0004 47.09 75.0004 47.09C75.0004 47.09 75.3304 48 76.1404 48.48C76.8804 48.93 77.8004 49.04 78.4304 49.05C78.4304 49.05 80.9004 52.47 87.3504 52.47H90.9404H94.5304C100.98 52.47 103.45 49.05 103.45 49.05C104.08 49.04 104.99 48.93 105.74 48.48C106.54 47.99 106.88 47.09 106.88 47.09C106.88 47.09 105.39 46.97 104.91 46.08Z" fill="#543930" style="fill:#543930;fill:color(display-p3 0.3294 0.2235 0.1882);fill-opacity:1;"/>
<path d="M104.91 46.08C104.41 45.17 105.05 44.24 106.14 43.09C107.87 41.27 109.75 37.05 108 32.76C108.01 32.74 107.66 32.01 107.67 31.99L106.95 31.95C106.72 31.92 98.8204 31.9 90.9204 31.9C83.0204 31.9 75.1204 31.92 74.8904 31.95C74.8904 31.95 73.8304 32.73 73.8404 32.76C72.0904 37.05 73.9704 41.27 75.7004 43.09C76.7904 44.24 77.4304 45.16 76.9304 46.08C76.4404 46.96 75.0004 47.09 75.0004 47.09C75.0004 47.09 75.3304 48 76.1404 48.48C76.8804 48.93 77.8004 49.04 78.4304 49.05C78.4304 49.05 80.9004 52.47 87.3504 52.47H90.9404H94.5304C100.98 52.47 103.45 49.05 103.45 49.05C104.08 49.04 104.99 48.93 105.74 48.48C106.54 47.99 106.88 47.09 106.88 47.09C106.88 47.09 105.39 46.97 104.91 46.08Z" fill="#312D2D" style="fill:#312D2D;fill:color(display-p3 0.1922 0.1765 0.1765);fill-opacity:1;"/>
<path d="M104.831 46.08C104.331 45.17 104.971 44.24 106.061 43.09C107.791 41.27 109.671 37.05 107.921 32.76C107.931 32.74 107.581 32.01 107.591 31.99L106.871 31.95C106.641 31.92 98.7408 31.9 90.8408 31.9C82.9408 31.9 75.0408 31.92 74.8108 31.95C74.8108 31.95 73.7508 32.73 73.7608 32.76C72.0108 37.05 73.8908 41.27 75.6208 43.09C76.7108 44.24 77.3508 45.16 76.8508 46.08C76.3608 46.96 74.9208 47.09 74.9208 47.09C74.9208 47.09 75.2508 48 76.0608 48.48C76.8008 48.93 77.7208 49.04 78.3508 49.05C78.3508 49.05 80.8208 52.47 87.2608 52.47H90.8508H94.4408C100.891 52.47 103.361 49.05 103.361 49.05C103.991 49.04 104.901 48.93 105.651 48.48C106.451 47.99 106.791 47.09 106.791 47.09C106.791 47.09 105.321 46.97 104.831 46.08Z" fill="#543930" style="fill:#543930;fill:color(display-p3 0.3294 0.2235 0.1882);fill-opacity:1;"/>
<path d="M104.831 46.08C104.331 45.17 104.971 44.24 106.061 43.09C107.791 41.27 109.671 37.05 107.921 32.76C107.931 32.74 107.581 32.01 107.591 31.99L106.871 31.95C106.641 31.92 98.7408 31.9 90.8408 31.9C82.9408 31.9 75.0408 31.92 74.8108 31.95C74.8108 31.95 73.7508 32.73 73.7608 32.76C72.0108 37.05 73.8908 41.27 75.6208 43.09C76.7108 44.24 77.3508 45.16 76.8508 46.08C76.3608 46.96 74.9208 47.09 74.9208 47.09C74.9208 47.09 75.2508 48 76.0608 48.48C76.8008 48.93 77.7208 49.04 78.3508 49.05C78.3508 49.05 80.8208 52.47 87.2608 52.47H90.8508H94.4408C100.891 52.47 103.361 49.05 103.361 49.05C103.991 49.04 104.901 48.93 105.651 48.48C106.451 47.99 106.791 47.09 106.791 47.09C106.791 47.09 105.321 46.97 104.831 46.08Z" fill="#312D2D" style="fill:#312D2D;fill:color(display-p3 0.1922 0.1765 0.1765);fill-opacity:1;"/>
<path d="M90.8311 52.48V48.69L102.291 47.78L103.331 49.06C103.331 49.06 100.861 52.48 94.4111 52.48H90.8311Z" fill="url(#paint46_radial_84_3899)" style=""/>
<path d="M103.311 47.4101C101.591 44.8001 105.401 43.8301 105.401 43.8301C104.741 44.6501 104.441 45.3701 104.821 46.0801C105.311 46.9601 106.751 47.0901 106.751 47.0901C106.751 47.0901 104.791 48.8501 103.311 47.4101Z" fill="url(#paint47_radial_84_3899)" style=""/>
<path d="M107.931 32.7601C109.631 36.9101 107.841 41.1901 106.161 42.9901C105.931 43.2401 104.951 44.2001 104.731 44.9601C104.731 44.9601 100.901 39.6201 99.761 36.4901C99.531 35.8601 99.321 35.2101 99.291 34.5301C99.271 34.0301 99.351 33.4201 99.641 33.0001C100.001 32.4701 107.731 32.3201 107.731 32.3201C107.731 32.3301 107.931 32.7601 107.931 32.7601Z" fill="url(#paint48_radial_84_3899)" style=""/>
<path d="M73.7509 32.7601C72.0509 36.9101 73.8409 41.1901 75.5209 42.9901C75.7509 43.2401 76.7309 44.2001 76.9509 44.9601C76.9509 44.9601 80.7809 39.6201 81.9209 36.4901C82.1509 35.8601 82.3609 35.2101 82.3909 34.5301C82.4109 34.0301 82.3309 33.4201 82.0409 33.0001C81.6809 32.4701 81.2709 32.6101 80.6609 32.6101C79.5009 32.6101 74.4509 32.3101 74.0609 32.3101C74.0609 32.3301 73.7509 32.7601 73.7509 32.7601Z" fill="url(#paint49_radial_84_3899)" style=""/>
<path d="M90.8511 52.48V48.69L79.3911 47.78L78.3511 49.06C78.3511 49.06 80.8211 52.48 87.2611 52.48H90.8511Z" fill="url(#paint50_radial_84_3899)" style=""/>
<path d="M78.3707 47.4101C80.0907 44.8001 76.2807 43.8301 76.2807 43.8301C76.9407 44.6501 77.2407 45.3701 76.8607 46.0801C76.3707 46.9601 74.9307 47.0901 74.9307 47.0901C74.9307 47.0901 76.8907 48.8501 78.3707 47.4101Z" fill="url(#paint51_radial_84_3899)" style=""/>
<path d="M50.45 5.83995C50.28 4.83995 49.25 4.24995 48.31 4.59995C46.09 5.41995 42.33 7.22995 40.43 10.53C39 13.01 38.4 16.6899 38.16 19.7099C38.07 20.8099 37.12 21.6299 36.02 21.5499C35.65 21.5199 34.0799 21.5199 33.7099 21.5499C32.6099 21.6299 31.6499 20.82 31.5699 19.7099C31.3299 16.6899 30.7299 13.01 29.2999 10.53C27.3999 7.21995 23.6199 5.41995 21.4099 4.59995C20.4699 4.24995 19.46 4.83995 19.29 5.82995C18.89 8.15995 18.5599 12.3499 20.4699 15.65C21.8999 18.1399 24.7699 20.4899 27.2599 22.2099C27.82 22.5999 27.82 23.41 27.28 23.83C26.2699 24.6 25.51 25.5 24.92 26.4C24.34 27.2999 25.37 28.3899 26.27 27.8099C28.05 26.66 30.76 25.7199 34.86 25.7199C38.9599 25.7199 41.67 26.66 43.45 27.8099C44.35 28.3899 45.3899 27.2999 44.7999 26.4C44.2099 25.49 43.45 24.6 42.45 23.82C41.91 23.4 41.91 22.59 42.47 22.2C44.95 20.48 47.8199 18.13 49.2599 15.64C51.1699 12.35 50.85 8.17995 50.45 5.83995Z" fill="url(#paint52_linear_84_3899)" style=""/>
<path d="M42.77 12.27C41.73 14.07 41.52 17.13 41.47 18.45C41.46 18.74 41.76 18.92 42.01 18.76C43.13 18.06 45.66 16.35 46.7 14.54C47.61 12.96 47.53 11 47.38 9.90999C47.32 9.43999 46.86 9.17999 46.43 9.35999C45.41 9.77999 43.68 10.69 42.77 12.27Z" fill="#FF4081" style="fill:#FF4081;fill:color(display-p3 1.0000 0.2510 0.5059);fill-opacity:1;"/>
<path d="M26.9597 12.27C27.9997 14.07 28.2197 17.13 28.2597 18.46C28.2697 18.75 27.9697 18.93 27.7297 18.77C26.6097 18.07 24.0797 16.36 23.0397 14.55C22.1297 12.97 22.2097 11.01 22.3497 9.92C22.4097 9.45 22.8697 9.18999 23.2997 9.36999C24.3097 9.77999 26.0497 10.69 26.9597 12.27Z" fill="#FF4081" style="fill:#FF4081;fill:color(display-p3 1.0000 0.2510 0.5059);fill-opacity:1;"/>
<path d="M90.5002 57.8C88.5302 57.8 86.9302 56.28 86.9302 54.4V50.14H94.8902V54.4C94.8902 56.27 93.2902 57.8 91.3202 57.8H90.5002Z" fill="#E59600" style="fill:#E59600;fill:color(display-p3 0.8980 0.5882 0.0000);fill-opacity:1;"/>
<path d="M90.5002 57.8C88.5302 57.8 86.9302 56.28 86.9302 54.4V50.14H94.8902V54.4C94.8902 56.27 93.2902 57.8 91.3202 57.8H90.5002Z" fill="#EDC391" style="fill:#EDC391;fill:color(display-p3 0.9294 0.7647 0.5686);fill-opacity:1;"/>
<path d="M90.5002 57.8C88.5302 57.8 86.9302 56.28 86.9302 54.4V50.14H94.8902V54.4C94.8902 56.27 93.2902 57.8 91.3202 57.8H90.5002Z" fill="#3C2B24" style="fill:#3C2B24;fill:color(display-p3 0.2353 0.1686 0.1412);fill-opacity:1;"/>
<path d="M101.64 34.87H80.1802C77.8702 34.87 75.9702 36.89 75.9702 39.35C75.9702 41.81 77.8602 43.83 80.1802 43.83H101.63C103.94 43.83 105.84 41.81 105.84 39.35C105.85 36.89 103.94 34.87 101.64 34.87Z" fill="#E59600" style="fill:#E59600;fill:color(display-p3 0.8980 0.5882 0.0000);fill-opacity:1;"/>
<path d="M101.64 34.87H80.1802C77.8702 34.87 75.9702 36.89 75.9702 39.35C75.9702 41.81 77.8602 43.83 80.1802 43.83H101.63C103.94 43.83 105.84 41.81 105.84 39.35C105.85 36.89 103.94 34.87 101.64 34.87Z" fill="#3C2B24" style="fill:#3C2B24;fill:color(display-p3 0.2353 0.1686 0.1412);fill-opacity:1;"/>
<path d="M90.8602 19.03C84.0302 19.03 77.7002 26.34 77.7002 36.85C77.7002 47.31 84.2202 52.48 90.8602 52.48C97.5002 52.48 104.02 47.31 104.02 36.85C104.03 26.33 97.6902 19.03 90.8602 19.03Z" fill="#FFCA28" style="fill:#FFCA28;fill:color(display-p3 1.0000 0.7922 0.1569);fill-opacity:1;"/>
<path d="M90.8602 19.03C84.0302 19.03 77.7002 26.34 77.7002 36.85C77.7002 47.31 84.2202 52.48 90.8602 52.48C97.5002 52.48 104.02 47.31 104.02 36.85C104.03 26.33 97.6902 19.03 90.8602 19.03Z" fill="#F9DDBD" style="fill:#F9DDBD;fill:color(display-p3 0.9765 0.8667 0.7412);fill-opacity:1;"/>
<path d="M90.8602 19.03C84.0302 19.03 77.7002 26.34 77.7002 36.85C77.7002 47.31 84.2202 52.48 90.8602 52.48C97.5002 52.48 104.02 47.31 104.02 36.85C104.03 26.33 97.6902 19.03 90.8602 19.03Z" fill="#70534A" style="fill:#70534A;fill:color(display-p3 0.4392 0.3255 0.2902);fill-opacity:1;"/>
<path d="M84.4603 40.55C85.5262 40.55 86.3903 39.6546 86.3903 38.55C86.3903 37.4455 85.5262 36.55 84.4603 36.55C83.3944 36.55 82.5303 37.4455 82.5303 38.55C82.5303 39.6546 83.3944 40.55 84.4603 40.55Z" fill="#6D4C41" style="fill:#6D4C41;fill:color(display-p3 0.4275 0.2980 0.2549);fill-opacity:1;"/>
<path d="M84.4603 40.55C85.5262 40.55 86.3903 39.6546 86.3903 38.55C86.3903 37.4455 85.5262 36.55 84.4603 36.55C83.3944 36.55 82.5303 37.4455 82.5303 38.55C82.5303 39.6546 83.3944 40.55 84.4603 40.55Z" fill="#454140" style="fill:#454140;fill:color(display-p3 0.2706 0.2549 0.2510);fill-opacity:1;"/>
<path d="M84.4603 40.55C85.5262 40.55 86.3903 39.6546 86.3903 38.55C86.3903 37.4455 85.5262 36.55 84.4603 36.55C83.3944 36.55 82.5303 37.4455 82.5303 38.55C82.5303 39.6546 83.3944 40.55 84.4603 40.55Z" fill="#1A1717" style="fill:#1A1717;fill:color(display-p3 0.1020 0.0902 0.0902);fill-opacity:1;"/>
<path d="M97.3602 40.55C98.4261 40.55 99.2902 39.6546 99.2902 38.55C99.2902 37.4455 98.4261 36.55 97.3602 36.55C96.2943 36.55 95.4302 37.4455 95.4302 38.55C95.4302 39.6546 96.2943 40.55 97.3602 40.55Z" fill="#6D4C41" style="fill:#6D4C41;fill:color(display-p3 0.4275 0.2980 0.2549);fill-opacity:1;"/>
<path d="M97.3602 40.55C98.4261 40.55 99.2902 39.6546 99.2902 38.55C99.2902 37.4455 98.4261 36.55 97.3602 36.55C96.2943 36.55 95.4302 37.4455 95.4302 38.55C95.4302 39.6546 96.2943 40.55 97.3602 40.55Z" fill="#454140" style="fill:#454140;fill:color(display-p3 0.2706 0.2549 0.2510);fill-opacity:1;"/>
<path d="M97.3602 40.55C98.4261 40.55 99.2902 39.6546 99.2902 38.55C99.2902 37.4455 98.4261 36.55 97.3602 36.55C96.2943 36.55 95.4302 37.4455 95.4302 38.55C95.4302 39.6546 96.2943 40.55 97.3602 40.55Z" fill="#1A1717" style="fill:#1A1717;fill:color(display-p3 0.1020 0.0902 0.0902);fill-opacity:1;"/>
<path d="M94.1204 45.7101C92.8704 46.4501 88.7704 46.4501 87.5204 45.7101C86.8004 45.2801 86.0704 45.9401 86.3704 46.5901C86.6604 47.2301 88.9004 48.7201 90.8304 48.7201C92.7604 48.7201 94.9704 47.2301 95.2604 46.5901C95.5704 45.9301 94.8504 45.2801 94.1204 45.7101Z" fill="#6D4C41" style="fill:#6D4C41;fill:color(display-p3 0.4275 0.2980 0.2549);fill-opacity:1;"/>
<path d="M94.1204 45.7101C92.8704 46.4501 88.7704 46.4501 87.5204 45.7101C86.8004 45.2801 86.0704 45.9401 86.3704 46.5901C86.6604 47.2301 88.9004 48.7201 90.8304 48.7201C92.7604 48.7201 94.9704 47.2301 95.2604 46.5901C95.5704 45.9301 94.8504 45.2801 94.1204 45.7101Z" fill="#454140" style="fill:#454140;fill:color(display-p3 0.2706 0.2549 0.2510);fill-opacity:1;"/>
<path d="M94.1204 45.7101C92.8704 46.4501 88.7704 46.4501 87.5204 45.7101C86.8004 45.2801 86.0704 45.9401 86.3704 46.5901C86.6604 47.2301 88.9004 48.7201 90.8304 48.7201C92.7604 48.7201 94.9704 47.2301 95.2604 46.5901C95.5704 45.9301 94.8504 45.2801 94.1204 45.7101Z" fill="#1A1717" style="fill:#1A1717;fill:color(display-p3 0.1020 0.0902 0.0902);fill-opacity:1;"/>
<path d="M92.1502 42.1001C92.1102 42.0801 92.0702 42.0701 92.0202 42.0701H89.2502C89.2102 42.0801 89.1702 42.0901 89.1202 42.1001C88.8702 42.2001 88.7302 42.4601 88.8502 42.7401C88.9702 43.0201 89.5202 43.8001 90.6402 43.8001C91.7502 43.8001 92.3102 43.0201 92.4302 42.7401C92.5402 42.4601 92.4002 42.2001 92.1502 42.1001Z" fill="#E59600" style="fill:#E59600;fill:color(display-p3 0.8980 0.5882 0.0000);fill-opacity:1;"/>
<path d="M92.1502 42.1001C92.1102 42.0801 92.0702 42.0701 92.0202 42.0701H89.2502C89.2102 42.0801 89.1702 42.0901 89.1202 42.1001C88.8702 42.2001 88.7302 42.4601 88.8502 42.7401C88.9702 43.0201 89.5202 43.8001 90.6402 43.8001C91.7502 43.8001 92.3102 43.0201 92.4302 42.7401C92.5402 42.4601 92.4002 42.2001 92.1502 42.1001Z" fill="#DBA689" style="fill:#DBA689;fill:color(display-p3 0.8588 0.6510 0.5373);fill-opacity:1;"/>
<path d="M92.1502 42.1001C92.1102 42.0801 92.0702 42.0701 92.0202 42.0701H89.2502C89.2102 42.0801 89.1702 42.0901 89.1202 42.1001C88.8702 42.2001 88.7302 42.4601 88.8502 42.7401C88.9702 43.0201 89.5202 43.8001 90.6402 43.8001C91.7502 43.8001 92.3102 43.0201 92.4302 42.7401C92.5402 42.4601 92.4002 42.2001 92.1502 42.1001Z" fill="#33251F" style="fill:#33251F;fill:color(display-p3 0.2000 0.1451 0.1216);fill-opacity:1;"/>
<path d="M106.91 24.13C105.93 22.65 103.74 20.66 101.77 20.53C101.45 18.64 99.4303 17.03 97.4703 16.41C92.1603 14.73 88.7103 16.61 86.8503 17.63C86.4603 17.84 83.9703 19.22 82.2303 18.23C81.1403 17.61 81.1603 15.93 81.1603 15.93C81.1603 15.93 77.7403 17.23 78.9103 20.86C77.7403 20.91 76.1903 21.4 75.3803 23.05C74.4103 25.01 74.7503 26.66 75.0403 27.44C74.0303 28.3 72.7603 30.12 73.6303 32.5C74.2903 34.28 76.9103 35.11 76.9103 35.11C76.7303 38.32 77.3303 40.3 77.6403 41.1C77.7003 41.24 77.8903 41.23 77.9303 41.08C78.3303 39.49 79.6803 33.94 79.5503 32.98C79.5503 32.98 84.1003 32.08 88.4403 28.88C89.3203 28.23 90.2803 27.68 91.3003 27.27C96.7503 25.1 97.8903 28.8 97.8903 28.8C97.8903 28.8 101.67 28.07 102.81 33.32C103.24 35.29 103.53 38.43 103.77 40.64C103.79 40.8 104 40.83 104.06 40.68C104.44 39.81 105.2 38.07 105.39 36.3C105.45 35.68 107.13 34.86 107.85 32.18C108.8 28.62 107.62 25.2 106.91 24.13Z" fill="#434343" style="fill:#434343;fill:color(display-p3 0.2625 0.2625 0.2625);fill-opacity:1;"/>
<path d="M106.91 24.13C105.93 22.65 103.74 20.66 101.77 20.53C101.45 18.64 99.4303 17.03 97.4703 16.41C92.1603 14.73 88.7103 16.61 86.8503 17.63C86.4603 17.84 83.9703 19.22 82.2303 18.23C81.1403 17.61 81.1603 15.93 81.1603 15.93C81.1603 15.93 77.7403 17.23 78.9103 20.86C77.7403 20.91 76.1903 21.4 75.3803 23.05C74.4103 25.01 74.7503 26.66 75.0403 27.44C74.0303 28.3 72.7603 30.12 73.6303 32.5C74.2903 34.28 76.9103 35.11 76.9103 35.11C76.7303 38.32 77.3303 40.3 77.6403 41.1C77.7003 41.24 77.8903 41.23 77.9303 41.08C78.3303 39.49 79.6803 33.94 79.5503 32.98C79.5503 32.98 84.1003 32.08 88.4403 28.88C89.3203 28.23 90.2803 27.68 91.3003 27.27C96.7503 25.1 97.8903 28.8 97.8903 28.8C97.8903 28.8 101.67 28.07 102.81 33.32C103.24 35.29 103.53 38.43 103.77 40.64C103.79 40.8 104 40.83 104.06 40.68C104.44 39.81 105.2 38.07 105.39 36.3C105.45 35.68 107.13 34.86 107.85 32.18C108.8 28.62 107.62 25.2 106.91 24.13Z" fill="#312D2D" style="fill:#312D2D;fill:color(display-p3 0.1922 0.1765 0.1765);fill-opacity:1;"/>
<path d="M105.36 36.32C105.42 35.7 107.1 34.8801 107.82 32.2001C107.9 31.9201 107.96 31.63 108.02 31.34C108.6 28.09 107.55 25.11 106.9 24.13C106 22.76 104.05 20.96 102.21 20.6C102.05 20.58 101.89 20.56 101.74 20.55C101.74 20.55 101.87 21.41 101.52 22.1C101.07 22.99 100.15 23.2001 100.15 23.2001C104.97 28.0001 104.63 32.02 105.36 36.32Z" fill="url(#paint53_radial_84_3899)" style=""/>
<path d="M88.0104 17.0199C87.5704 17.2299 87.1804 17.4399 86.8504 17.6299C86.4604 17.8399 83.9704 19.2199 82.2304 18.2299C81.1604 17.6199 81.1604 15.9899 81.1604 15.9299C80.6704 16.5599 79.1704 21.0599 83.5404 21.3599C85.4204 21.4899 86.5804 19.8499 87.2704 18.4599C87.5104 17.9499 87.9004 17.2199 88.0104 17.0199Z" fill="url(#paint54_radial_84_3899)" style=""/>
<path d="M96.9103 16.25C99.8503 17.04 101.28 18.54 101.76 20.53C101.9 21.11 102.07 26.58 91.6403 20.37C87.7603 18.06 88.8202 16.61 89.2702 16.45C91.0502 15.81 93.6303 15.36 96.9103 16.25Z" fill="url(#paint55_radial_84_3899)" style=""/>
<path d="M81.1502 15.9299C81.1402 15.9299 81.1402 15.9399 81.1302 15.9399C80.7602 16.0999 77.8202 17.4599 78.9202 20.8599L82.0402 21.3599C79.2802 18.5599 81.1702 15.9299 81.1702 15.9299H81.1502Z" fill="url(#paint56_radial_84_3899)" style=""/>
<path d="M80.8402 21.17L78.9102 20.86C78.8302 20.86 78.5803 20.88 78.4403 20.9C77.3503 21.05 76.0702 21.61 75.3802 23.05C74.6302 24.6 74.6503 25.93 74.8603 26.81C74.9203 27.11 75.0403 27.44 75.0403 27.44C75.0403 27.44 76.0003 26.53 78.2703 26.47L80.8402 21.17Z" fill="url(#paint57_radial_84_3899)" style=""/>
<path d="M74.9404 27.52C73.9904 28.36 72.7104 30.25 73.6504 32.58C74.3604 34.34 76.9004 35.1 76.9004 35.1C76.9004 35.11 77.4104 35.26 77.6704 35.26L78.2604 26.48C77.0404 26.48 75.8804 26.84 75.1204 27.37C75.1304 27.38 74.9404 27.51 74.9404 27.52Z" fill="url(#paint58_radial_84_3899)" style=""/>
<path d="M106.49 5.83995C106.32 4.83995 105.29 4.24995 104.35 4.59995C102.13 5.41995 98.37 7.22995 96.47 10.53C95.04 13.01 94.44 16.6899 94.2 19.7099C94.11 20.8099 93.16 21.6299 92.06 21.5499C91.69 21.5199 90.12 21.5199 89.75 21.5499C88.65 21.6299 87.69 20.82 87.61 19.7099C87.37 16.6899 86.77 13.01 85.34 10.53C83.44 7.21995 79.66 5.41995 77.45 4.59995C76.51 4.24995 75.5 4.83995 75.33 5.82995C74.93 8.15995 74.6 12.3499 76.51 15.65C77.94 18.1399 80.81 20.4899 83.3 22.2099C83.86 22.5999 83.86 23.41 83.32 23.83C82.31 24.6 81.55 25.5 80.96 26.4C80.38 27.2999 81.41 28.3899 82.31 27.8099C84.09 26.66 86.8 25.7199 90.9 25.7199C95 25.7199 97.71 26.66 99.49 27.8099C100.39 28.3899 101.43 27.2999 100.84 26.4C100.25 25.49 99.49 24.6 98.49 23.82C97.95 23.4 97.95 22.59 98.51 22.2C100.99 20.48 103.86 18.13 105.3 15.64C107.21 12.35 106.89 8.17995 106.49 5.83995Z" fill="url(#paint59_linear_84_3899)" style=""/>
<path d="M98.81 12.27C97.77 14.07 97.56 17.13 97.51 18.45C97.5 18.74 97.8 18.92 98.05 18.76C99.17 18.06 101.7 16.35 102.74 14.54C103.65 12.96 103.57 11 103.42 9.90999C103.36 9.43999 102.9 9.17999 102.47 9.35999C101.45 9.77999 99.72 10.69 98.81 12.27Z" fill="#FF4081" style="fill:#FF4081;fill:color(display-p3 1.0000 0.2510 0.5059);fill-opacity:1;"/>
<path d="M82.9998 12.27C84.0398 14.07 84.2598 17.13 84.2998 18.46C84.3098 18.75 84.0098 18.93 83.7698 18.77C82.6498 18.07 80.1198 16.36 79.0798 14.55C78.1698 12.97 78.2498 11.01 78.3898 9.92C78.4498 9.45 78.9098 9.18999 79.3398 9.36999C80.3498 9.77999 82.0898 10.69 82.9998 12.27Z" fill="#FF4081" style="fill:#FF4081;fill:color(display-p3 1.0000 0.2510 0.5059);fill-opacity:1;"/>
<path d="M31.39 35.06C31.02 34.57 30.17 33.86 28.52 33.86C26.87 33.86 26.01 34.57 25.65 35.06C25.49 35.28 25.53 35.53 25.64 35.68C25.74 35.82 26.05 35.95 26.4 35.83C26.74 35.71 27.41 35.37 28.53 35.36C29.65 35.37 30.32 35.71 30.66 35.83C31 35.95 31.31 35.82 31.42 35.68C31.51 35.52 31.55 35.27 31.39 35.06Z" fill="#6D4C41" style="fill:#6D4C41;fill:color(display-p3 0.4275 0.2980 0.2549);fill-opacity:1;"/>
<path d="M31.39 35.06C31.02 34.57 30.17 33.86 28.52 33.86C26.87 33.86 26.01 34.57 25.65 35.06C25.49 35.28 25.53 35.53 25.64 35.68C25.74 35.82 26.05 35.95 26.4 35.83C26.74 35.71 27.41 35.37 28.53 35.36C29.65 35.37 30.32 35.71 30.66 35.83C31 35.95 31.31 35.82 31.42 35.68C31.51 35.52 31.55 35.27 31.39 35.06Z" fill="#454140" style="fill:#454140;fill:color(display-p3 0.2706 0.2549 0.2510);fill-opacity:1;"/>
<path d="M31.39 35.06C31.02 34.57 30.17 33.86 28.52 33.86C26.87 33.86 26.01 34.57 25.65 35.06C25.49 35.28 25.53 35.53 25.64 35.68C25.74 35.82 26.05 35.95 26.4 35.83C26.74 35.71 27.41 35.37 28.53 35.36C29.65 35.37 30.32 35.71 30.66 35.83C31 35.95 31.31 35.82 31.42 35.68C31.51 35.52 31.55 35.27 31.39 35.06Z" fill="#1A1717" style="fill:#1A1717;fill:color(display-p3 0.1020 0.0902 0.0902);fill-opacity:1;"/>
<path d="M44.16 35.06C43.79 34.57 42.94 33.86 41.29 33.86C39.64 33.86 38.78 34.57 38.42 35.06C38.26 35.28 38.3 35.53 38.41 35.68C38.51 35.82 38.82 35.95 39.17 35.83C39.51 35.71 40.18 35.37 41.3 35.36C42.42 35.37 43.09 35.71 43.43 35.83C43.77 35.95 44.08 35.82 44.19 35.68C44.28 35.52 44.32 35.27 44.16 35.06Z" fill="#6D4C41" style="fill:#6D4C41;fill:color(display-p3 0.4275 0.2980 0.2549);fill-opacity:1;"/>
<path d="M44.16 35.06C43.79 34.57 42.94 33.86 41.29 33.86C39.64 33.86 38.78 34.57 38.42 35.06C38.26 35.28 38.3 35.53 38.41 35.68C38.51 35.82 38.82 35.95 39.17 35.83C39.51 35.71 40.18 35.37 41.3 35.36C42.42 35.37 43.09 35.71 43.43 35.83C43.77 35.95 44.08 35.82 44.19 35.68C44.28 35.52 44.32 35.27 44.16 35.06Z" fill="#454140" style="fill:#454140;fill:color(display-p3 0.2706 0.2549 0.2510);fill-opacity:1;"/>
<path d="M44.16 35.06C43.79 34.57 42.94 33.86 41.29 33.86C39.64 33.86 38.78 34.57 38.42 35.06C38.26 35.28 38.3 35.53 38.41 35.68C38.51 35.82 38.82 35.95 39.17 35.83C39.51 35.71 40.18 35.37 41.3 35.36C42.42 35.37 43.09 35.71 43.43 35.83C43.77 35.95 44.08 35.82 44.19 35.68C44.28 35.52 44.32 35.27 44.16 35.06Z" fill="#1A1717" style="fill:#1A1717;fill:color(display-p3 0.1020 0.0902 0.0902);fill-opacity:1;"/>
<path d="M87.3002 35.06C86.9302 34.57 86.0802 33.86 84.4302 33.86C82.7802 33.86 81.9202 34.57 81.5602 35.06C81.4002 35.28 81.4402 35.53 81.5502 35.68C81.6502 35.82 81.9602 35.95 82.3102 35.83C82.6502 35.71 83.3202 35.37 84.4402 35.36C85.5602 35.37 86.2302 35.71 86.5702 35.83C86.9102 35.95 87.2202 35.82 87.3302 35.68C87.4202 35.52 87.4602 35.27 87.3002 35.06Z" fill="#6D4C41" style="fill:#6D4C41;fill:color(display-p3 0.4275 0.2980 0.2549);fill-opacity:1;"/>
<path d="M87.3002 35.06C86.9302 34.57 86.0802 33.86 84.4302 33.86C82.7802 33.86 81.9202 34.57 81.5602 35.06C81.4002 35.28 81.4402 35.53 81.5502 35.68C81.6502 35.82 81.9602 35.95 82.3102 35.83C82.6502 35.71 83.3202 35.37 84.4402 35.36C85.5602 35.37 86.2302 35.71 86.5702 35.83C86.9102 35.95 87.2202 35.82 87.3302 35.68C87.4202 35.52 87.4602 35.27 87.3002 35.06Z" fill="#454140" style="fill:#454140;fill:color(display-p3 0.2706 0.2549 0.2510);fill-opacity:1;"/>
<path d="M87.3002 35.06C86.9302 34.57 86.0802 33.86 84.4302 33.86C82.7802 33.86 81.9202 34.57 81.5602 35.06C81.4002 35.28 81.4402 35.53 81.5502 35.68C81.6502 35.82 81.9602 35.95 82.3102 35.83C82.6502 35.71 83.3202 35.37 84.4402 35.36C85.5602 35.37 86.2302 35.71 86.5702 35.83C86.9102 35.95 87.2202 35.82 87.3302 35.68C87.4202 35.52 87.4602 35.27 87.3002 35.06Z" fill="#1A1717" style="fill:#1A1717;fill:color(display-p3 0.1020 0.0902 0.0902);fill-opacity:1;"/>
<path d="M100.07 35.06C99.7002 34.57 98.8502 33.86 97.2002 33.86C95.5502 33.86 94.6902 34.57 94.3302 35.06C94.1702 35.28 94.2102 35.53 94.3202 35.68C94.4202 35.82 94.7302 35.95 95.0802 35.83C95.4202 35.71 96.0902 35.37 97.2102 35.36C98.3302 35.37 99.0002 35.71 99.3402 35.83C99.6802 35.95 99.9902 35.82 100.1 35.68C100.19 35.52 100.23 35.27 100.07 35.06Z" fill="#6D4C41" style="fill:#6D4C41;fill:color(display-p3 0.4275 0.2980 0.2549);fill-opacity:1;"/>
<path d="M100.07 35.06C99.7002 34.57 98.8502 33.86 97.2002 33.86C95.5502 33.86 94.6902 34.57 94.3302 35.06C94.1702 35.28 94.2102 35.53 94.3202 35.68C94.4202 35.82 94.7302 35.95 95.0802 35.83C95.4202 35.71 96.0902 35.37 97.2102 35.36C98.3302 35.37 99.0002 35.71 99.3402 35.83C99.6802 35.95 99.9902 35.82 100.1 35.68C100.19 35.52 100.23 35.27 100.07 35.06Z" fill="#454140" style="fill:#454140;fill:color(display-p3 0.2706 0.2549 0.2510);fill-opacity:1;"/>
<path d="M100.07 35.06C99.7002 34.57 98.8502 33.86 97.2002 33.86C95.5502 33.86 94.6902 34.57 94.3302 35.06C94.1702 35.28 94.2102 35.53 94.3202 35.68C94.4202 35.82 94.7302 35.95 95.0802 35.83C95.4202 35.71 96.0902 35.37 97.2102 35.36C98.3302 35.37 99.0002 35.71 99.3402 35.83C99.6802 35.95 99.9902 35.82 100.1 35.68C100.19 35.52 100.23 35.27 100.07 35.06Z" fill="#1A1717" style="fill:#1A1717;fill:color(display-p3 0.1020 0.0902 0.0902);fill-opacity:1;"/>
<defs>
<linearGradient id="paint0_linear_84_3899" x1="86.8008" y1="103.411" x2="90.1176" y2="124.336" gradientUnits="userSpaceOnUse">
<stop stop-color="#FFB300" style="stop-color:#FFB300;stop-color:color(display-p3 1.0000 0.7020 0.0000);stop-opacity:1;"/>
<stop offset="0.4007" stop-color="#FFCA28" style="stop-color:#FFCA28;stop-color:color(display-p3 1.0000 0.7922 0.1569);stop-opacity:1;"/>
</linearGradient>
<linearGradient id="paint1_linear_84_3899" x1="87.133" y1="103.443" x2="87.133" y2="124.324" gradientUnits="userSpaceOnUse">
<stop stop-color="#FFD29C" style="stop-color:#FFD29C;stop-color:color(display-p3 1.0000 0.8235 0.6118);stop-opacity:1;"/>
<stop offset="0.5" stop-color="#F9DDBD" style="stop-color:#F9DDBD;stop-color:color(display-p3 0.9765 0.8667 0.7412);stop-opacity:1;"/>
</linearGradient>
<linearGradient id="paint2_linear_84_3899" x1="87.1284" y1="103.443" x2="87.1284" y2="124.324" gradientUnits="userSpaceOnUse">
<stop stop-color="#5C4037" style="stop-color:#5C4037;stop-color:color(display-p3 0.3608 0.2510 0.2157);stop-opacity:1;"/>
<stop offset="0.5" stop-color="#70534A" style="stop-color:#70534A;stop-color:color(display-p3 0.4392 0.3255 0.2902);stop-opacity:1;"/>
</linearGradient>
<linearGradient id="paint3_linear_84_3899" x1="108.388" y1="98.0673" x2="109.505" y2="114.692" gradientUnits="userSpaceOnUse">
<stop stop-color="#FFB300" style="stop-color:#FFB300;stop-color:color(display-p3 1.0000 0.7020 0.0000);stop-opacity:1;"/>
<stop offset="0.4007" stop-color="#FFCA28" style="stop-color:#FFCA28;stop-color:color(display-p3 1.0000 0.7922 0.1569);stop-opacity:1;"/>
</linearGradient>
<linearGradient id="paint4_linear_84_3899" x1="108.998" y1="98.0921" x2="108.998" y2="114.348" gradientUnits="userSpaceOnUse">
<stop stop-color="#FFD29C" style="stop-color:#FFD29C;stop-color:color(display-p3 1.0000 0.8235 0.6118);stop-opacity:1;"/>
<stop offset="0.5" stop-color="#F9DDBD" style="stop-color:#F9DDBD;stop-color:color(display-p3 0.9765 0.8667 0.7412);stop-opacity:1;"/>
</linearGradient>
<linearGradient id="paint5_linear_84_3899" x1="108.989" y1="98.0921" x2="108.989" y2="114.348" gradientUnits="userSpaceOnUse">
<stop stop-color="#5C4037" style="stop-color:#5C4037;stop-color:color(display-p3 0.3608 0.2510 0.2157);stop-opacity:1;"/>
<stop offset="0.5" stop-color="#70534A" style="stop-color:#70534A;stop-color:color(display-p3 0.4392 0.3255 0.2902);stop-opacity:1;"/>
</linearGradient>
<linearGradient id="paint6_linear_84_3899" x1="91.2178" y1="90.9173" x2="96.7062" y2="103.289" gradientUnits="userSpaceOnUse">
<stop stop-color="#FFB300" style="stop-color:#FFB300;stop-color:color(display-p3 1.0000 0.7020 0.0000);stop-opacity:1;"/>
<stop offset="0.4007" stop-color="#FFCA28" style="stop-color:#FFCA28;stop-color:color(display-p3 1.0000 0.7922 0.1569);stop-opacity:1;"/>
</linearGradient>
<linearGradient id="paint7_linear_84_3899" x1="93.5499" y1="75.0944" x2="93.5499" y2="107.956" gradientUnits="userSpaceOnUse">
<stop stop-color="#FFD29C" style="stop-color:#FFD29C;stop-color:color(display-p3 1.0000 0.8235 0.6118);stop-opacity:1;"/>
<stop offset="0.5" stop-color="#F9DDBD" style="stop-color:#F9DDBD;stop-color:color(display-p3 0.9765 0.8667 0.7412);stop-opacity:1;"/>
</linearGradient>
<linearGradient id="paint8_linear_84_3899" x1="93.5351" y1="75.0944" x2="93.5351" y2="107.956" gradientUnits="userSpaceOnUse">
<stop stop-color="#5C4037" style="stop-color:#5C4037;stop-color:color(display-p3 0.3608 0.2510 0.2157);stop-opacity:1;"/>
<stop offset="0.5" stop-color="#70534A" style="stop-color:#70534A;stop-color:color(display-p3 0.4392 0.3255 0.2902);stop-opacity:1;"/>
</linearGradient>
<linearGradient id="paint9_linear_84_3899" x1="90.7402" y1="52.3638" x2="90.7402" y2="98.9678" gradientUnits="userSpaceOnUse">
<stop stop-color="#515151" style="stop-color:#515151;stop-color:color(display-p3 0.3176 0.3176 0.3176);stop-opacity:1;"/>
<stop offset="0.9439" stop-color="#313131" style="stop-color:#313131;stop-color:color(display-p3 0.1922 0.1922 0.1922);stop-opacity:1;"/>
</linearGradient>
<linearGradient id="paint10_linear_84_3899" x1="100.685" y1="66.5742" x2="110.359" y2="77.923" gradientUnits="userSpaceOnUse">
<stop offset="0.1719" stop-color="#FFB300" style="stop-color:#FFB300;stop-color:color(display-p3 1.0000 0.7020 0.0000);stop-opacity:1;"/>
<stop offset="0.518" stop-color="#FFCA28" style="stop-color:#FFCA28;stop-color:color(display-p3 1.0000 0.7922 0.1569);stop-opacity:1;"/>
</linearGradient>
<linearGradient id="paint11_linear_84_3899" x1="108.064" y1="59.7431" x2="108.064" y2="82.9241" gradientUnits="userSpaceOnUse">
<stop stop-color="#FFD29C" style="stop-color:#FFD29C;stop-color:color(display-p3 1.0000 0.8235 0.6118);stop-opacity:1;"/>
<stop offset="0.5" stop-color="#F9DDBD" style="stop-color:#F9DDBD;stop-color:color(display-p3 0.9765 0.8667 0.7412);stop-opacity:1;"/>
</linearGradient>
<linearGradient id="paint12_linear_84_3899" x1="108.056" y1="59.7431" x2="108.056" y2="82.9241" gradientUnits="userSpaceOnUse">
<stop stop-color="#5C4037" style="stop-color:#5C4037;stop-color:color(display-p3 0.3608 0.2510 0.2157);stop-opacity:1;"/>
<stop offset="0.5" stop-color="#70534A" style="stop-color:#70534A;stop-color:color(display-p3 0.4392 0.3255 0.2902);stop-opacity:1;"/>
</linearGradient>
<linearGradient id="paint13_linear_84_3899" x1="66.428" y1="66.5801" x2="76.112" y2="77.9304" gradientUnits="userSpaceOnUse">
<stop offset="0.1719" stop-color="#FFB300" style="stop-color:#FFB300;stop-color:color(display-p3 1.0000 0.7020 0.0000);stop-opacity:1;"/>
<stop offset="0.518" stop-color="#FFCA28" style="stop-color:#FFCA28;stop-color:color(display-p3 1.0000 0.7922 0.1569);stop-opacity:1;"/>
</linearGradient>
<linearGradient id="paint14_linear_84_3899" x1="73.8076" y1="59.7431" x2="73.8076" y2="82.9441" gradientUnits="userSpaceOnUse">
<stop stop-color="#FFD29C" style="stop-color:#FFD29C;stop-color:color(display-p3 1.0000 0.8235 0.6118);stop-opacity:1;"/>
<stop offset="0.5" stop-color="#F9DDBD" style="stop-color:#F9DDBD;stop-color:color(display-p3 0.9765 0.8667 0.7412);stop-opacity:1;"/>
</linearGradient>
<linearGradient id="paint15_linear_84_3899" x1="73.7987" y1="59.7431" x2="73.7987" y2="82.9441" gradientUnits="userSpaceOnUse">
<stop stop-color="#5C4037" style="stop-color:#5C4037;stop-color:color(display-p3 0.3608 0.2510 0.2157);stop-opacity:1;"/>
<stop offset="0.5" stop-color="#70534A" style="stop-color:#70534A;stop-color:color(display-p3 0.4392 0.3255 0.2902);stop-opacity:1;"/>
</linearGradient>
<linearGradient id="paint16_linear_84_3899" x1="90.77" y1="51.3086" x2="90.77" y2="97.9125" gradientUnits="userSpaceOnUse">
<stop stop-color="#515151" style="stop-color:#515151;stop-color:color(display-p3 0.3176 0.3176 0.3176);stop-opacity:1;"/>
<stop offset="0.9439" stop-color="#313131" style="stop-color:#313131;stop-color:color(display-p3 0.1922 0.1922 0.1922);stop-opacity:1;"/>
</linearGradient>
<linearGradient id="paint17_linear_84_3899" x1="30.9507" y1="103.411" x2="34.2675" y2="124.336" gradientUnits="userSpaceOnUse">
<stop stop-color="#FFB300" style="stop-color:#FFB300;stop-color:color(display-p3 1.0000 0.7020 0.0000);stop-opacity:1;"/>
<stop offset="0.4007" stop-color="#FFCA28" style="stop-color:#FFCA28;stop-color:color(display-p3 1.0000 0.7922 0.1569);stop-opacity:1;"/>
</linearGradient>
<linearGradient id="paint18_linear_84_3899" x1="31.2829" y1="103.443" x2="31.2829" y2="124.324" gradientUnits="userSpaceOnUse">
<stop stop-color="#FFD29C" style="stop-color:#FFD29C;stop-color:color(display-p3 1.0000 0.8235 0.6118);stop-opacity:1;"/>
<stop offset="0.5" stop-color="#F9DDBD" style="stop-color:#F9DDBD;stop-color:color(display-p3 0.9765 0.8667 0.7412);stop-opacity:1;"/>
</linearGradient>
<linearGradient id="paint19_linear_84_3899" x1="31.2783" y1="103.443" x2="31.2783" y2="124.324" gradientUnits="userSpaceOnUse">
<stop stop-color="#5C4037" style="stop-color:#5C4037;stop-color:color(display-p3 0.3608 0.2510 0.2157);stop-opacity:1;"/>
<stop offset="0.5" stop-color="#70534A" style="stop-color:#70534A;stop-color:color(display-p3 0.4392 0.3255 0.2902);stop-opacity:1;"/>
</linearGradient>
<linearGradient id="paint20_linear_84_3899" x1="52.5376" y1="98.0673" x2="53.6552" y2="114.692" gradientUnits="userSpaceOnUse">
<stop stop-color="#FFB300" style="stop-color:#FFB300;stop-color:color(display-p3 1.0000 0.7020 0.0000);stop-opacity:1;"/>
<stop offset="0.4007" stop-color="#FFCA28" style="stop-color:#FFCA28;stop-color:color(display-p3 1.0000 0.7922 0.1569);stop-opacity:1;"/>
</linearGradient>
<linearGradient id="paint21_linear_84_3899" x1="53.1474" y1="98.0921" x2="53.1474" y2="114.348" gradientUnits="userSpaceOnUse">
<stop stop-color="#FFD29C" style="stop-color:#FFD29C;stop-color:color(display-p3 1.0000 0.8235 0.6118);stop-opacity:1;"/>
<stop offset="0.5" stop-color="#F9DDBD" style="stop-color:#F9DDBD;stop-color:color(display-p3 0.9765 0.8667 0.7412);stop-opacity:1;"/>
</linearGradient>
<linearGradient id="paint22_linear_84_3899" x1="53.1389" y1="98.0921" x2="53.1389" y2="114.348" gradientUnits="userSpaceOnUse">
<stop stop-color="#5C4037" style="stop-color:#5C4037;stop-color:color(display-p3 0.3608 0.2510 0.2157);stop-opacity:1;"/>
<stop offset="0.5" stop-color="#70534A" style="stop-color:#70534A;stop-color:color(display-p3 0.4392 0.3255 0.2902);stop-opacity:1;"/>
</linearGradient>
<linearGradient id="paint23_linear_84_3899" x1="35.3677" y1="90.9173" x2="40.8561" y2="103.289" gradientUnits="userSpaceOnUse">
<stop stop-color="#FFB300" style="stop-color:#FFB300;stop-color:color(display-p3 1.0000 0.7020 0.0000);stop-opacity:1;"/>
<stop offset="0.4007" stop-color="#FFCA28" style="stop-color:#FFCA28;stop-color:color(display-p3 1.0000 0.7922 0.1569);stop-opacity:1;"/>
</linearGradient>
<linearGradient id="paint24_linear_84_3899" x1="37.6998" y1="75.0944" x2="37.6998" y2="107.956" gradientUnits="userSpaceOnUse">
<stop stop-color="#FFD29C" style="stop-color:#FFD29C;stop-color:color(display-p3 1.0000 0.8235 0.6118);stop-opacity:1;"/>
<stop offset="0.5" stop-color="#F9DDBD" style="stop-color:#F9DDBD;stop-color:color(display-p3 0.9765 0.8667 0.7412);stop-opacity:1;"/>
</linearGradient>
<linearGradient id="paint25_linear_84_3899" x1="37.685" y1="75.0944" x2="37.685" y2="107.956" gradientUnits="userSpaceOnUse">
<stop stop-color="#5C4037" style="stop-color:#5C4037;stop-color:color(display-p3 0.3608 0.2510 0.2157);stop-opacity:1;"/>
<stop offset="0.5" stop-color="#70534A" style="stop-color:#70534A;stop-color:color(display-p3 0.4392 0.3255 0.2902);stop-opacity:1;"/>
</linearGradient>
<linearGradient id="paint26_linear_84_3899" x1="34.8901" y1="52.3638" x2="34.8901" y2="98.9678" gradientUnits="userSpaceOnUse">
<stop stop-color="#515151" style="stop-color:#515151;stop-color:color(display-p3 0.3176 0.3176 0.3176);stop-opacity:1;"/>
<stop offset="0.9439" stop-color="#313131" style="stop-color:#313131;stop-color:color(display-p3 0.1922 0.1922 0.1922);stop-opacity:1;"/>
</linearGradient>
<radialGradient id="paint27_radial_84_3899" cx="0" cy="0" r="1" gradientUnits="userSpaceOnUse" gradientTransform="translate(33.9347 49.8024) rotate(-105.086) scale(4.68275 13.1838)">
<stop offset="0.7247" stop-color="#484848" stop-opacity="0" style="stop-color:none;stop-opacity:0;"/>
<stop offset="1" stop-color="#323232" style="stop-color:#323232;stop-color:color(display-p3 0.1958 0.1958 0.1958);stop-opacity:1;"/>
</radialGradient>
<radialGradient id="paint28_radial_84_3899" cx="0" cy="0" r="1" gradientUnits="userSpaceOnUse" gradientTransform="translate(46.4683 45.6142) rotate(-95.4263) scale(4.00676 4.22582)">
<stop offset="0.7247" stop-color="#484848" stop-opacity="0" style="stop-color:none;stop-opacity:0;"/>
<stop offset="1" stop-color="#323232" style="stop-color:#323232;stop-color:color(display-p3 0.1958 0.1958 0.1958);stop-opacity:1;"/>
</radialGradient>
<radialGradient id="paint29_radial_84_3899" cx="0" cy="0" r="1" gradientUnits="userSpaceOnUse" gradientTransform="translate(42.5758 37.7589) rotate(-94.2783) scale(12.1935 10.1625)">
<stop offset="0.7247" stop-color="#484848" stop-opacity="0" style="stop-color:none;stop-opacity:0;"/>
<stop offset="1" stop-color="#323232" style="stop-color:#323232;stop-color:color(display-p3 0.1958 0.1958 0.1958);stop-opacity:1;"/>
</radialGradient>
<radialGradient id="paint30_radial_84_3899" cx="0" cy="0" r="1" gradientUnits="userSpaceOnUse" gradientTransform="translate(16.3521 37.7532) rotate(-94.2749) scale(12.2031 10.1626)">
<stop offset="0.7247" stop-color="#484848" stop-opacity="0" style="stop-color:none;stop-opacity:0;"/>
<stop offset="1" stop-color="#323232" style="stop-color:#323232;stop-color:color(display-p3 0.1958 0.1958 0.1958);stop-opacity:1;"/>
</radialGradient>
<radialGradient id="paint31_radial_84_3899" cx="0" cy="0" r="1" gradientUnits="userSpaceOnUse" gradientTransform="translate(21.4548 49.8024) rotate(-105.086) scale(4.68275 13.1838)">
<stop offset="0.7247" stop-color="#484848" stop-opacity="0" style="stop-color:none;stop-opacity:0;"/>
<stop offset="1" stop-color="#323232" style="stop-color:#323232;stop-color:color(display-p3 0.1958 0.1958 0.1958);stop-opacity:1;"/>
</radialGradient>
<radialGradient id="paint32_radial_84_3899" cx="0" cy="0" r="1" gradientUnits="userSpaceOnUse" gradientTransform="translate(18.5343 45.6142) rotate(-95.4263) scale(4.00676 4.22582)">
<stop offset="0.7247" stop-color="#484848" stop-opacity="0" style="stop-color:none;stop-opacity:0;"/>
<stop offset="1" stop-color="#323232" style="stop-color:#323232;stop-color:color(display-p3 0.1958 0.1958 0.1958);stop-opacity:1;"/>
</radialGradient>
<linearGradient id="paint33_linear_84_3899" x1="44.8347" y1="66.5742" x2="54.5091" y2="77.923" gradientUnits="userSpaceOnUse">
<stop offset="0.1719" stop-color="#FFB300" style="stop-color:#FFB300;stop-color:color(display-p3 1.0000 0.7020 0.0000);stop-opacity:1;"/>
<stop offset="0.518" stop-color="#FFCA28" style="stop-color:#FFCA28;stop-color:color(display-p3 1.0000 0.7922 0.1569);stop-opacity:1;"/>
</linearGradient>
<linearGradient id="paint34_linear_84_3899" x1="52.2143" y1="59.7431" x2="52.2143" y2="82.9241" gradientUnits="userSpaceOnUse">
<stop stop-color="#FFD29C" style="stop-color:#FFD29C;stop-color:color(display-p3 1.0000 0.8235 0.6118);stop-opacity:1;"/>
<stop offset="0.5" stop-color="#F9DDBD" style="stop-color:#F9DDBD;stop-color:color(display-p3 0.9765 0.8667 0.7412);stop-opacity:1;"/>
</linearGradient>
<linearGradient id="paint35_linear_84_3899" x1="52.2055" y1="59.7431" x2="52.2055" y2="82.9241" gradientUnits="userSpaceOnUse">
<stop stop-color="#5C4037" style="stop-color:#5C4037;stop-color:color(display-p3 0.3608 0.2510 0.2157);stop-opacity:1;"/>
<stop offset="0.5" stop-color="#70534A" style="stop-color:#70534A;stop-color:color(display-p3 0.4392 0.3255 0.2902);stop-opacity:1;"/>
</linearGradient>
<linearGradient id="paint36_linear_84_3899" x1="10.5779" y1="66.5801" x2="20.2619" y2="77.9304" gradientUnits="userSpaceOnUse">
<stop offset="0.1719" stop-color="#FFB300" style="stop-color:#FFB300;stop-color:color(display-p3 1.0000 0.7020 0.0000);stop-opacity:1;"/>
<stop offset="0.518" stop-color="#FFCA28" style="stop-color:#FFCA28;stop-color:color(display-p3 1.0000 0.7922 0.1569);stop-opacity:1;"/>
</linearGradient>
<linearGradient id="paint37_linear_84_3899" x1="17.9575" y1="59.7431" x2="17.9575" y2="82.9441" gradientUnits="userSpaceOnUse">
<stop stop-color="#FFD29C" style="stop-color:#FFD29C;stop-color:color(display-p3 1.0000 0.8235 0.6118);stop-opacity:1;"/>
<stop offset="0.5" stop-color="#F9DDBD" style="stop-color:#F9DDBD;stop-color:color(display-p3 0.9765 0.8667 0.7412);stop-opacity:1;"/>
</linearGradient>
<linearGradient id="paint38_linear_84_3899" x1="17.9486" y1="59.7431" x2="17.9486" y2="82.9441" gradientUnits="userSpaceOnUse">
<stop stop-color="#5C4037" style="stop-color:#5C4037;stop-color:color(display-p3 0.3608 0.2510 0.2157);stop-opacity:1;"/>
<stop offset="0.5" stop-color="#70534A" style="stop-color:#70534A;stop-color:color(display-p3 0.4392 0.3255 0.2902);stop-opacity:1;"/>
</linearGradient>
<linearGradient id="paint39_linear_84_3899" x1="34.9199" y1="51.3086" x2="34.9199" y2="97.9125" gradientUnits="userSpaceOnUse">
<stop stop-color="#515151" style="stop-color:#515151;stop-color:color(display-p3 0.3176 0.3176 0.3176);stop-opacity:1;"/>
<stop offset="0.9439" stop-color="#313131" style="stop-color:#313131;stop-color:color(display-p3 0.1922 0.1922 0.1922);stop-opacity:1;"/>
</linearGradient>
<radialGradient id="paint40_radial_84_3899" cx="0" cy="0" r="1" gradientUnits="userSpaceOnUse" gradientTransform="translate(41.892 31.3235) rotate(72.0851) scale(14.2928 10.6049)">
<stop offset="0.6985" stop-color="#3D3D3D" stop-opacity="0" style="stop-color:none;stop-opacity:0;"/>
<stop offset="1" stop-color="#3C3C3C" style="stop-color:#3C3C3C;stop-color:color(display-p3 0.2333 0.2333 0.2333);stop-opacity:1;"/>
</radialGradient>
<radialGradient id="paint41_radial_84_3899" cx="0" cy="0" r="1" gradientUnits="userSpaceOnUse" gradientTransform="translate(27.9595 15.7411) rotate(28.2026) scale(3.74758 4.44353)">
<stop offset="0.58" stop-color="#6D4C41" style="stop-color:#6D4C41;stop-color:color(display-p3 0.4275 0.2980 0.2549);stop-opacity:1;"/>
<stop offset="1" stop-color="#6D4C41" stop-opacity="0" style="stop-color:none;stop-opacity:0;"/>
</radialGradient>
<radialGradient id="paint42_radial_84_3899" cx="0" cy="0" r="1" gradientUnits="userSpaceOnUse" gradientTransform="translate(36.337 22.5421) rotate(-157.19) scale(11.7206 6.58702)">
<stop offset="0.6985" stop-color="#141414" stop-opacity="0" style="stop-color:none;stop-opacity:0;"/>
<stop offset="1" stop-color="#3D3D3D" style="stop-color:#3D3D3D;stop-color:color(display-p3 0.2375 0.2375 0.2375);stop-opacity:1;"/>
</radialGradient>
<radialGradient id="paint43_radial_84_3899" cx="0" cy="0" r="1" gradientUnits="userSpaceOnUse" gradientTransform="translate(26.4538 19.1594) scale(3.4398 4.20791)">
<stop offset="0.7016" stop-color="#484848" stop-opacity="0" style="stop-color:none;stop-opacity:0;"/>
<stop offset="1" stop-color="#323232" style="stop-color:#323232;stop-color:color(display-p3 0.1958 0.1958 0.1958);stop-opacity:1;"/>
</radialGradient>
<radialGradient id="paint44_radial_84_3899" cx="0" cy="0" r="1" gradientUnits="userSpaceOnUse" gradientTransform="translate(25.9804 25.2308) rotate(-164.942) scale(6.45163 6.03756)">
<stop offset="0.6605" stop-color="#484848" stop-opacity="0" style="stop-color:none;stop-opacity:0;"/>
<stop offset="0.947917" stop-color="#3E3E3E" style="stop-color:#3E3E3E;stop-color:color(display-p3 0.2417 0.2417 0.2417);stop-opacity:1;"/>
</radialGradient>
<radialGradient id="paint45_radial_84_3899" cx="0" cy="0" r="1" gradientUnits="userSpaceOnUse" gradientTransform="translate(24.4521 31.4596) rotate(7.83354) scale(6.77332 9.51763)">
<stop offset="0.5981" stop-color="#393939" stop-opacity="0" style="stop-color:none;stop-opacity:0;"/>
<stop offset="0.973958" stop-color="#484848" style="stop-color:#484848;stop-color:color(display-p3 0.2833 0.2833 0.2833);stop-opacity:1;"/>
</radialGradient>
<radialGradient id="paint46_radial_84_3899" cx="0" cy="0" r="1" gradientUnits="userSpaceOnUse" gradientTransform="translate(90.1056 49.8024) rotate(-105.086) scale(4.68275 13.1838)">
<stop offset="0.7247" stop-color="#484848" stop-opacity="0" style="stop-color:none;stop-opacity:0;"/>
<stop offset="1" stop-color="#323232" style="stop-color:#323232;stop-color:color(display-p3 0.1958 0.1958 0.1958);stop-opacity:1;"/>
</radialGradient>
<radialGradient id="paint47_radial_84_3899" cx="0" cy="0" r="1" gradientUnits="userSpaceOnUse" gradientTransform="translate(102.639 45.6142) rotate(-95.4263) scale(4.00676 4.22582)">
<stop offset="0.7247" stop-color="#484848" stop-opacity="0" style="stop-color:none;stop-opacity:0;"/>
<stop offset="1" stop-color="#323232" style="stop-color:#323232;stop-color:color(display-p3 0.1958 0.1958 0.1958);stop-opacity:1;"/>
</radialGradient>
<radialGradient id="paint48_radial_84_3899" cx="0" cy="0" r="1" gradientUnits="userSpaceOnUse" gradientTransform="translate(98.7467 37.7589) rotate(-94.2783) scale(12.1935 10.1625)">
<stop offset="0.7247" stop-color="#484848" stop-opacity="0" style="stop-color:none;stop-opacity:0;"/>
<stop offset="1" stop-color="#323232" style="stop-color:#323232;stop-color:color(display-p3 0.1958 0.1958 0.1958);stop-opacity:1;"/>
</radialGradient>
<radialGradient id="paint49_radial_84_3899" cx="0" cy="0" r="1" gradientUnits="userSpaceOnUse" gradientTransform="translate(72.523 37.7532) rotate(-94.2749) scale(12.2031 10.1626)">
<stop offset="0.7247" stop-color="#484848" stop-opacity="0" style="stop-color:none;stop-opacity:0;"/>
<stop offset="1" stop-color="#323232" style="stop-color:#323232;stop-color:color(display-p3 0.1958 0.1958 0.1958);stop-opacity:1;"/>
</radialGradient>
<radialGradient id="paint50_radial_84_3899" cx="0" cy="0" r="1" gradientUnits="userSpaceOnUse" gradientTransform="translate(77.6257 49.8024) rotate(-105.086) scale(4.68275 13.1838)">
<stop offset="0.7247" stop-color="#484848" stop-opacity="0" style="stop-color:none;stop-opacity:0;"/>
<stop offset="1" stop-color="#323232" style="stop-color:#323232;stop-color:color(display-p3 0.1958 0.1958 0.1958);stop-opacity:1;"/>
</radialGradient>
<radialGradient id="paint51_radial_84_3899" cx="0" cy="0" r="1" gradientUnits="userSpaceOnUse" gradientTransform="translate(74.7051 45.6142) rotate(-95.4263) scale(4.00676 4.22582)">
<stop offset="0.7247" stop-color="#484848" stop-opacity="0" style="stop-color:none;stop-opacity:0;"/>
<stop offset="1" stop-color="#323232" style="stop-color:#323232;stop-color:color(display-p3 0.1958 0.1958 0.1958);stop-opacity:1;"/>
</radialGradient>
<linearGradient id="paint52_linear_84_3899" x1="34.8712" y1="10.8499" x2="34.8712" y2="36.2274" gradientUnits="userSpaceOnUse">
<stop stop-color="#504F4F" style="stop-color:#504F4F;stop-color:color(display-p3 0.3137 0.3098 0.3098);stop-opacity:1;"/>
<stop offset="1" stop-color="#212121" style="stop-color:#212121;stop-color:color(display-p3 0.1294 0.1294 0.1294);stop-opacity:1;"/>
</linearGradient>
<radialGradient id="paint53_radial_84_3899" cx="0" cy="0" r="1" gradientUnits="userSpaceOnUse" gradientTransform="translate(98.0624 31.3235) rotate(72.0851) scale(14.2928 10.6049)">
<stop offset="0.6985" stop-color="#3D3D3D" stop-opacity="0" style="stop-color:none;stop-opacity:0;"/>
<stop offset="1" stop-color="#3C3C3C" style="stop-color:#3C3C3C;stop-color:color(display-p3 0.2333 0.2333 0.2333);stop-opacity:1;"/>
</radialGradient>
<radialGradient id="paint54_radial_84_3899" cx="0" cy="0" r="1" gradientUnits="userSpaceOnUse" gradientTransform="translate(84.13 15.7411) rotate(28.2026) scale(3.74758 4.44353)">
<stop offset="0.58" stop-color="#6D4C41" style="stop-color:#6D4C41;stop-color:color(display-p3 0.4275 0.2980 0.2549);stop-opacity:1;"/>
<stop offset="1" stop-color="#6D4C41" stop-opacity="0" style="stop-color:none;stop-opacity:0;"/>
</radialGradient>
<radialGradient id="paint55_radial_84_3899" cx="0" cy="0" r="1" gradientUnits="userSpaceOnUse" gradientTransform="translate(92.5074 22.5421) rotate(-157.19) scale(11.7206 6.58702)">
<stop offset="0.6985" stop-color="#141414" stop-opacity="0" style="stop-color:none;stop-opacity:0;"/>
<stop offset="1" stop-color="#3D3D3D" style="stop-color:#3D3D3D;stop-color:color(display-p3 0.2375 0.2375 0.2375);stop-opacity:1;"/>
</radialGradient>
<radialGradient id="paint56_radial_84_3899" cx="0" cy="0" r="1" gradientUnits="userSpaceOnUse" gradientTransform="translate(82.6242 19.1594) scale(3.4398 4.20791)">
<stop offset="0.7016" stop-color="#484848" stop-opacity="0" style="stop-color:none;stop-opacity:0;"/>
<stop offset="1" stop-color="#323232" style="stop-color:#323232;stop-color:color(display-p3 0.1958 0.1958 0.1958);stop-opacity:1;"/>
</radialGradient>
<radialGradient id="paint57_radial_84_3899" cx="0" cy="0" r="1" gradientUnits="userSpaceOnUse" gradientTransform="translate(82.1508 25.2308) rotate(-164.942) scale(6.45163 6.03756)">
<stop offset="0.6605" stop-color="#484848" stop-opacity="0" style="stop-color:none;stop-opacity:0;"/>
<stop offset="0.947917" stop-color="#3E3E3E" style="stop-color:#3E3E3E;stop-color:color(display-p3 0.2417 0.2417 0.2417);stop-opacity:1;"/>
</radialGradient>
<radialGradient id="paint58_radial_84_3899" cx="0" cy="0" r="1" gradientUnits="userSpaceOnUse" gradientTransform="translate(80.6225 31.4596) rotate(7.83354) scale(6.77332 9.51763)">
<stop offset="0.5981" stop-color="#393939" stop-opacity="0" style="stop-color:none;stop-opacity:0;"/>
<stop offset="0.973958" stop-color="#484848" style="stop-color:#484848;stop-color:color(display-p3 0.2833 0.2833 0.2833);stop-opacity:1;"/>
</radialGradient>
<linearGradient id="paint59_linear_84_3899" x1="90.9103" y1="11.161" x2="90.9103" y2="36.5385" gradientUnits="userSpaceOnUse">
<stop stop-color="#504F4F" style="stop-color:#504F4F;stop-color:color(display-p3 0.3137 0.3098 0.3098);stop-opacity:1;"/>
<stop offset="1" stop-color="#212121" style="stop-color:#212121;stop-color:color(display-p3 0.1294 0.1294 0.1294);stop-opacity:1;"/>
</linearGradient>
</defs>
</svg>
