<svg width="128" height="128" viewBox="0 0 128 128" fill="none" xmlns="http://www.w3.org/2000/svg">
<path d="M63.6001 118.8C35.7001 118.8 5.6001 101.3 5.6001 62.9C5.6001 24.5 35.7001 7 63.6001 7C79.1001 7 93.4001 12.1 104 21.4C115.5 31.6 121.6 46 121.6 62.9C121.6 79.8 115.5 94.1 104 104.3C93.4001 113.6 79.0001 118.8 63.6001 118.8Z" fill="url(#paint0_radial_169_12567)" style=""/>
<path d="M63.6001 118.8C35.7001 118.8 5.6001 101.3 5.6001 62.9C5.6001 24.5 35.7001 7 63.6001 7C79.1001 7 93.4001 12.1 104 21.4C115.5 31.6 121.6 46 121.6 62.9C121.6 79.8 115.5 94.1 104 104.3C93.4001 113.6 79.0001 118.8 63.6001 118.8Z" fill="url(#paint1_radial_169_12567)" style=""/>
<path d="M63.6001 118.8C35.7001 118.8 5.6001 101.3 5.6001 62.9C5.6001 24.5 35.7001 7 63.6001 7C79.1001 7 93.4001 12.1 104 21.4C115.5 31.6 121.6 46 121.6 62.9C121.6 79.8 115.5 94.1 104 104.3C93.4001 113.6 79.0001 118.8 63.6001 118.8Z" fill="url(#paint2_radial_169_12567)" style=""/>
<path d="M63.6001 118.8C35.7001 118.8 5.6001 101.3 5.6001 62.9C5.6001 24.5 35.7001 7 63.6001 7C79.1001 7 93.4001 12.1 104 21.4C115.5 31.6 121.6 46 121.6 62.9C121.6 79.8 115.5 94.1 104 104.3C93.4001 113.6 79.0001 118.8 63.6001 118.8Z" fill="url(#paint3_radial_169_12567)" style=""/>
<path d="M63.6001 118.8C35.7001 118.8 5.6001 101.3 5.6001 62.9C5.6001 24.5 35.7001 7 63.6001 7C79.1001 7 93.4001 12.1 104 21.4C115.5 31.6 121.6 46 121.6 62.9C121.6 79.8 115.5 94.1 104 104.3C93.4001 113.6 79.0001 118.8 63.6001 118.8Z" fill="url(#paint4_radial_169_12567)" style=""/>
<path d="M111.49 29.67C116.82 38.27 119.6 48.51 119.6 59.9C119.6 76.8 113.5 91.1 102 101.3C91.4002 110.6 77.0002 115.8 61.6002 115.8C43.5402 115.8 24.6002 108.45 13.4202 92.86C24.1802 110.52 44.4202 118.8 63.6002 118.8C79.0002 118.8 93.4002 113.6 104 104.3C115.5 94.1 121.6 79.8 121.6 62.9C121.6 50.16 118.13 38.84 111.49 29.67Z" fill="#EB8F00" style="fill:#EB8F00;fill:color(display-p3 0.9216 0.5608 0.0000);fill-opacity:1;"/>
<path d="M111.49 29.67C116.82 38.27 119.6 48.51 119.6 59.9C119.6 76.8 113.5 91.1 102 101.3C91.4002 110.6 77.0002 115.8 61.6002 115.8C43.5402 115.8 24.6002 108.45 13.4202 92.86C24.1802 110.52 44.4202 118.8 63.6002 118.8C79.0002 118.8 93.4002 113.6 104 104.3C115.5 94.1 121.6 79.8 121.6 62.9C121.6 50.16 118.13 38.84 111.49 29.67Z" fill="#F3B872" style="fill:#F3B872;fill:color(display-p3 0.9542 0.7229 0.4453);fill-opacity:1;"/>
<path d="M111.49 29.67C116.82 38.27 119.6 48.51 119.6 59.9C119.6 76.8 113.5 91.1 102 101.3C91.4002 110.6 77.0002 115.8 61.6002 115.8C43.5402 115.8 24.6002 108.45 13.4202 92.86C24.1802 110.52 44.4202 118.8 63.6002 118.8C79.0002 118.8 93.4002 113.6 104 104.3C115.5 94.1 121.6 79.8 121.6 62.9C121.6 50.16 118.13 38.84 111.49 29.67Z" fill="#91674D" style="fill:#91674D;fill:color(display-p3 0.5686 0.4039 0.3020);fill-opacity:1;"/>
<path d="M64.4003 83.3C60.8203 83.3 57.2703 82.7 53.9003 81.5C49.7503 80.07 45.2403 82.28 43.8103 86.42C43.0003 88.76 43.3303 91.34 44.7003 93.4C49.0003 100 55.8003 103.6 64.4003 103.6C73.0003 103.6 79.8003 100 84.1003 93.4C86.5303 89.75 85.5303 84.82 81.8803 82.39C79.8203 81.02 77.2403 80.69 74.9003 81.5C71.5303 82.7 67.9803 83.3 64.4003 83.3Z" fill="#49362E" style="fill:#49362E;fill:color(display-p3 0.2863 0.2118 0.1804);fill-opacity:1;"/>
<path d="M64.4003 83.3C60.8203 83.3 57.2703 82.7 53.9003 81.5C49.7503 80.07 45.2403 82.28 43.8103 86.42C43.0003 88.76 43.3303 91.34 44.7003 93.4C49.0003 100 55.8003 103.6 64.4003 103.6C73.0003 103.6 79.8003 100 84.1003 93.4C86.5303 89.75 85.5303 84.82 81.8803 82.39C79.8203 81.02 77.2403 80.69 74.9003 81.5C71.5303 82.7 67.9803 83.3 64.4003 83.3Z" fill="#1A1717" style="fill:#1A1717;fill:color(display-p3 0.1020 0.0902 0.0902);fill-opacity:1;"/>
<path d="M64.4003 83.3C60.8203 83.3 57.2703 82.7 53.9003 81.5C49.7503 80.07 45.2403 82.28 43.8103 86.42C43.0003 88.76 43.3303 91.34 44.7003 93.4C49.0003 100 55.8003 103.6 64.4003 103.6C73.0003 103.6 79.8003 100 84.1003 93.4C86.5303 89.75 85.5303 84.82 81.8803 82.39C79.8203 81.02 77.2403 80.69 74.9003 81.5C71.5303 82.7 67.9803 83.3 64.4003 83.3Z" fill="#5D4037" style="fill:#5D4037;fill:color(display-p3 0.3647 0.2510 0.2157);fill-opacity:1;"/>
<path opacity="0.8" d="M34.2002 89.2C43.8652 89.2 51.7002 81.8127 51.7002 72.7C51.7002 63.5873 43.8652 56.2 34.2002 56.2C24.5352 56.2 16.7002 63.5873 16.7002 72.7C16.7002 81.8127 24.5352 89.2 34.2002 89.2Z" fill="url(#paint5_radial_169_12567)" style=""/>
<path opacity="0.8" d="M94.5 89C104.165 89 112 81.6127 112 72.5C112 63.3873 104.165 56 94.5 56C84.835 56 77 63.3873 77 72.5C77 81.6127 84.835 89 94.5 89Z" fill="url(#paint6_radial_169_12567)" style=""/>
<path opacity="0.8" d="M94.6001 89.2C104.265 89.2 112.1 81.8127 112.1 72.7C112.1 63.5873 104.265 56.2 94.6001 56.2C84.9351 56.2 77.1001 63.5873 77.1001 72.7C77.1001 81.8127 84.9351 89.2 94.6001 89.2Z" fill="url(#paint7_radial_169_12567)" style=""/>
<path d="M107.59 34.37C99.3801 32.06 93.3501 38.77 93.3501 38.77C93.3501 38.77 92.6501 31.16 85.6301 28.77C77.2101 25.88 68.3201 30.48 67.7901 42.41C67.1901 56 85.1701 73.84 85.1701 73.84C85.1701 73.84 107.49 67.84 114.8 55.12C120.75 44.77 113.8 36.11 107.59 34.37Z" fill="#F44336" style="fill:#F44336;fill:color(display-p3 0.9569 0.2627 0.2118);fill-opacity:1;"/>
<path d="M107.59 34.37C106.58 34.1 105.54 33.98 104.5 34C107.44 35.97 109.77 38.72 111.22 41.94C112.63 45.33 113 49.71 110.32 54.94C104.51 66.31 86.6201 73.35 85.3201 73.84C86.9501 73.38 107.81 67.38 114.84 55.15C120.75 44.77 113.8 36.11 107.59 34.37Z" fill="#C62828" style="fill:#C62828;fill:color(display-p3 0.7765 0.1569 0.1569);fill-opacity:1;"/>
<path d="M93.3401 40C93.2801 38.96 93.1201 37.92 92.8801 36.9C92.3001 33.96 90.4801 31.41 87.8801 29.9C86.1001 28.86 84.1301 28.2 82.0901 27.95C82.0901 27.95 85.0901 28.86 87.2301 33.01C88.3201 35.19 88.9701 37.57 89.1301 40C89.1201 40.89 89.2801 41.76 89.6001 42.59C89.9601 43.42 90.8401 43.91 91.7401 43.77C93.1101 43.42 93.4101 41.71 93.3401 40Z" fill="#C62828" style="fill:#C62828;fill:color(display-p3 0.7765 0.1569 0.1569);fill-opacity:1;"/>
<path d="M73.9001 35.23C75.7701 32.91 78.8401 30.7 81.7801 32.74C83.3401 33.83 83.3601 36.92 81.4501 38.31C78.2301 40.67 78.0801 42.22 77.7201 43.52C77.2801 45.07 77.0001 46.92 75.5901 47.7C74.1801 48.48 72.9401 47.7 72.2001 45.47C70.9401 41.99 71.5801 38.11 73.9001 35.23Z" fill="#FF847A" style="fill:#FF847A;fill:color(display-p3 1.0000 0.5176 0.4784);fill-opacity:1;"/>
<path d="M40.7201 28.57C32.6101 31.2 31.3101 40.13 31.3101 40.13C31.3101 40.13 26.5101 34.13 19.3101 36.07C10.7201 38.33 5.8701 47.09 12.0001 57.3C19.1001 69 43.9401 73.85 43.9401 73.85C43.9401 73.85 59.1901 56.49 58.2301 41.85C57.4401 29.93 46.8501 26.58 40.7201 28.57Z" fill="#F44336" style="fill:#F44336;fill:color(display-p3 0.9569 0.2627 0.2118);fill-opacity:1;"/>
<path d="M40.7202 28.57C39.7302 28.89 38.7802 29.35 37.9102 29.93C41.4502 29.94 44.9102 30.94 47.9102 32.82C50.9702 34.82 53.7002 38.3 54.3802 44.15C55.8502 56.84 44.8502 72.61 44.0002 73.76C45.1102 72.48 59.1402 55.92 58.2202 41.84C57.4402 29.93 46.8502 26.58 40.7202 28.57Z" fill="#C62828" style="fill:#C62828;fill:color(display-p3 0.7765 0.1569 0.1569);fill-opacity:1;"/>
<path d="M32 41.18C31.38 40.33 30.68 39.55 29.9 38.85C27.8 36.71 24.89 35.57 21.9 35.73C19.85 35.85 17.84 36.38 16 37.31C16 37.31 19 36.4 23.08 38.68C25.21 39.91 27.06 41.56 28.54 43.52C29.02 44.27 29.64 44.91 30.37 45.42C31.13 45.91 32.13 45.82 32.8 45.21C33.69 44.13 33 42.55 32 41.18Z" fill="#C62828" style="fill:#C62828;fill:color(display-p3 0.7765 0.1569 0.1569);fill-opacity:1;"/>
<path d="M13.2001 48C13.2401 47.16 13.3901 46.33 13.6401 45.53C14.0501 43.85 15.2401 42.46 16.8301 41.79C18.3601 41.31 20.4801 41.65 21.3001 43.18C22.0301 44.54 21.5001 46.18 21.1001 47.68C20.7401 49.4 20.5401 51.16 20.5001 52.92C20.5101 54.36 19.3601 55.53 17.9201 55.55C16.5601 55.55 15.5001 54.37 14.7401 53.24C13.6801 51.7 13.1401 49.87 13.2001 48Z" fill="#FF847A" style="fill:#FF847A;fill:color(display-p3 1.0000 0.5176 0.4784);fill-opacity:1;"/>
<defs>
<radialGradient id="paint0_radial_169_12567" cx="0" cy="0" r="1" gradientUnits="userSpaceOnUse" gradientTransform="translate(63.6001 62.9) scale(56.9597 56.9597)">
<stop offset="0.5" stop-color="#FDE030" style="stop-color:#FDE030;stop-color:color(display-p3 0.9922 0.8784 0.1882);stop-opacity:1;"/>
<stop offset="0.92" stop-color="#F7C02B" style="stop-color:#F7C02B;stop-color:color(display-p3 0.9686 0.7529 0.1686);stop-opacity:1;"/>
<stop offset="1" stop-color="#F4A223" style="stop-color:#F4A223;stop-color:color(display-p3 0.9569 0.6353 0.1373);stop-opacity:1;"/>
</radialGradient>
<radialGradient id="paint1_radial_169_12567" cx="0" cy="0" r="1" gradientUnits="userSpaceOnUse" gradientTransform="translate(38.5991 34.5377) rotate(-43.2082) scale(102.024 101.825)">
<stop offset="0.3533" stop-color="#F9DDBD" style="stop-color:#F9DDBD;stop-color:color(display-p3 0.9765 0.8667 0.7412);stop-opacity:1;"/>
<stop offset="0.8723" stop-color="#FFD29C" style="stop-color:#FFD29C;stop-color:color(display-p3 1.0000 0.8235 0.6118);stop-opacity:1;"/>
</radialGradient>
<radialGradient id="paint2_radial_169_12567" cx="0" cy="0" r="1" gradientUnits="userSpaceOnUse" gradientTransform="translate(38.5991 34.5377) rotate(-43.2082) scale(102.024 101.825)">
<stop offset="0.3533" stop-color="#70534A" style="stop-color:#70534A;stop-color:color(display-p3 0.4392 0.3255 0.2902);stop-opacity:1;"/>
<stop offset="0.8723" stop-color="#5C4037" style="stop-color:#5C4037;stop-color:color(display-p3 0.3608 0.2510 0.2157);stop-opacity:1;"/>
</radialGradient>
<radialGradient id="paint3_radial_169_12567" cx="0" cy="0" r="1" gradientUnits="userSpaceOnUse" gradientTransform="translate(38.5991 34.5377) rotate(-43.2082) scale(102.024 101.825)">
<stop offset="0.3533" stop-color="#A37A58" style="stop-color:#A37A58;stop-color:color(display-p3 0.6375 0.4772 0.3453);stop-opacity:1;"/>
<stop offset="0.8723" stop-color="#8D5738" style="stop-color:#8D5738;stop-color:color(display-p3 0.5529 0.3412 0.2196);stop-opacity:1;"/>
</radialGradient>
<radialGradient id="paint4_radial_169_12567" cx="0" cy="0" r="1" gradientUnits="userSpaceOnUse" gradientTransform="translate(38.5991 34.5377) rotate(-43.2082) scale(102.024 101.825)">
<stop offset="0.3533" stop-color="#AD8264" style="stop-color:#AD8264;stop-color:color(display-p3 0.6784 0.5098 0.3922);stop-opacity:1;"/>
<stop offset="0.8723" stop-color="#A47B62" style="stop-color:#A47B62;stop-color:color(display-p3 0.6431 0.4824 0.3843);stop-opacity:1;"/>
</radialGradient>
<radialGradient id="paint5_radial_169_12567" cx="0" cy="0" r="1" gradientUnits="userSpaceOnUse" gradientTransform="translate(34.2002 65.1106) scale(19.0719 17.1258)">
<stop stop-color="#ED7770" style="stop-color:#ED7770;stop-color:color(display-p3 0.9294 0.4667 0.4392);stop-opacity:1;"/>
<stop offset="0.9" stop-color="#ED7770" stop-opacity="0" style="stop-color:none;stop-opacity:0;"/>
</radialGradient>
<radialGradient id="paint6_radial_169_12567" cx="0" cy="0" r="1" gradientUnits="userSpaceOnUse" gradientTransform="translate(94.5 64.9105) scale(19.0719 17.1258)">
<stop stop-color="#ED7770" style="stop-color:#ED7770;stop-color:color(display-p3 0.9294 0.4667 0.4392);stop-opacity:1;"/>
<stop offset="0.9" stop-color="#ED7770" stop-opacity="0" style="stop-color:none;stop-opacity:0;"/>
</radialGradient>
<radialGradient id="paint7_radial_169_12567" cx="0" cy="0" r="1" gradientUnits="userSpaceOnUse" gradientTransform="translate(123.12 2527.59) scale(19.46 19.46)">
<stop stop-color="#ED7770" style="stop-color:#ED7770;stop-color:color(display-p3 0.9294 0.4667 0.4392);stop-opacity:1;"/>
<stop offset="0.9" stop-color="#ED7770" stop-opacity="0" style="stop-color:none;stop-opacity:0;"/>
</radialGradient>
</defs>
</svg>
