<svg width="128" height="128" viewBox="0 0 128 128" fill="none" xmlns="http://www.w3.org/2000/svg">
<path d="M23.9902 19.4657C23.9902 19.4657 24.9602 12.8757 26.2202 10.2357C27.4802 7.59569 29.4602 4.81569 33.2602 4.07569C37.7902 3.19569 90.3102 3.65569 93.9502 3.88569C97.6202 4.12569 100.03 5.27569 101.41 7.53569C102.46 9.26569 102.83 11.3757 103.32 14.5057C103.58 16.1557 104.12 20.6757 104.12 20.6757L23.9902 19.4657Z" fill="#FFA828" style="fill:#FFA828;fill:color(display-p3 1.0000 0.6588 0.1569);fill-opacity:1;"/>
<path d="M50.6302 37.3156L22.4702 32.6356C22.4702 32.6356 23.0602 20.9856 24.2802 17.9356C25.5002 14.8856 27.0102 13.0656 31.4402 12.3056C35.8702 11.5456 46.9702 11.8556 63.6202 11.7056C80.2702 11.5556 94.9302 12.5656 97.5302 12.7156C100.13 12.8656 102.57 14.1456 103.33 16.5856C104.09 19.0256 104.46 22.3256 105.01 28.1956C105.21 30.3256 105.03 34.3556 105.03 34.3556L72.7602 36.5556L50.6302 37.3156Z" fill="#F1EDEC" style="fill:#F1EDEC;fill:color(display-p3 0.9451 0.9294 0.9255);fill-opacity:1;"/>
<path d="M22.2302 35.6857C22.4202 32.6357 22.4802 29.3357 24.8002 27.3657C26.7902 25.6857 30.1502 25.9957 34.1202 25.8357C37.7902 25.6957 47.1002 25.7757 64.6702 25.7757C82.2402 25.7757 97.0302 26.0357 99.7802 26.0357C102.53 26.0357 104.87 28.1857 105.17 30.1757C105.48 32.1657 104.1 116.326 103.95 118.156C103.8 119.986 103.19 123.656 99.2102 123.956C95.2402 124.266 32.7702 124.266 30.1702 123.956C27.5702 123.646 25.2802 121.356 24.8202 117.086C24.3602 112.816 22.0702 38.1257 22.2302 35.6857Z" fill="#D8CDC9" style="fill:#D8CDC9;fill:color(display-p3 0.8471 0.8039 0.7882);fill-opacity:1;"/>
<path d="M29.61 50.0259C31.91 50.3259 33.82 40.4159 36.82 38.1059C39.82 35.8059 45.43 34.5959 45.43 32.2959C45.43 31.1459 41.79 31.1559 38.42 31.1959C35.05 31.2359 32.15 30.9559 30.51 32.6959C28.71 34.5959 28.53 37.6459 28.41 40.7059C28.2 45.6159 28.19 49.8359 29.61 50.0259Z" fill="#F1EDEC" style="fill:#F1EDEC;fill:color(display-p3 0.9451 0.9294 0.9255);fill-opacity:1;"/>
<path d="M79.3398 117.656C79.3398 119.336 80.5698 119.886 87.2198 119.656C92.8398 119.466 95.6198 118.756 97.2898 116.746C98.9598 114.746 99.4198 110.546 99.4898 105.506C99.5298 102.016 99.4398 98.6562 97.6798 98.6562C95.1598 98.6562 95.1699 104.406 93.1599 107.636C89.2199 113.976 79.3398 115.416 79.3398 117.656Z" fill="#F1EDEC" style="fill:#F1EDEC;fill:color(display-p3 0.9451 0.9294 0.9255);fill-opacity:1;"/>
<path d="M65.4167 63.928L65.4142 63.9297C65.3739 63.9568 61.0877 66.8385 59.3777 67.9912C58.9932 68.2504 58.4815 68.2129 58.1379 67.9014C57.7814 67.5782 57.3083 67.1497 56.815 66.7031C56.0714 66.0298 54.9103 66.7485 55.1815 67.7143L57.2386 75.0402C57.3048 75.2762 57.5248 75.4354 57.7696 75.4245C58.0163 75.4136 58.2213 75.2313 58.2733 74.99C59.3242 70.1111 63.1296 67.7956 64.9773 66.944C65.3736 66.7614 65.8966 66.8762 65.9898 67.3026C66.0069 67.3809 66.0164 67.4638 66.0164 67.5523C66.0164 67.6537 66.0049 67.7552 65.9923 67.8659C65.991 67.8771 65.9897 67.8883 65.9884 67.8997C65.6945 69.9716 62.6429 73.6565 56.6378 76.845C56.4187 76.9577 56.366 77.2475 56.5313 77.4302L57.1433 78.1066C57.2627 78.2385 57.4457 78.2927 57.6177 78.247C57.7016 78.2221 66.8423 75.6912 72.1196 75.9145L72.1619 75.9161C72.5649 75.9318 72.7201 75.3977 72.3715 75.1949C72.3698 75.1939 72.3675 75.1926 72.3646 75.191C72.2212 75.111 70.6472 74.2328 68.6795 73.9624C67.8994 73.8552 67.5006 73.1096 68.0723 72.5681C69.2111 71.4895 70.9715 70.0373 72.6795 68.7558C72.8883 68.6006 72.8759 68.284 72.6555 68.1456L65.9234 63.9172C65.7675 63.8193 65.5683 63.8236 65.4167 63.928Z" fill="#DF0B26" style="fill:#DF0B26;fill:color(display-p3 0.8745 0.0431 0.1490);fill-opacity:1;"/>
<path d="M65.4167 63.928L65.4142 63.9297C65.3739 63.9568 61.0877 66.8385 59.3777 67.9912C58.9932 68.2504 58.4815 68.2129 58.1379 67.9014C57.7814 67.5782 57.3083 67.1497 56.815 66.7031C56.0714 66.0298 54.9103 66.7485 55.1815 67.7143L57.2386 75.0402C57.3048 75.2762 57.5248 75.4354 57.7696 75.4245C58.0163 75.4136 58.2213 75.2313 58.2733 74.99C59.3242 70.1111 63.1296 67.7956 64.9773 66.944C65.3736 66.7614 65.8966 66.8762 65.9898 67.3026C66.0069 67.3809 66.0164 67.4638 66.0164 67.5523C66.0164 67.6537 66.0049 67.7552 65.9923 67.8659C65.991 67.8771 65.9897 67.8883 65.9884 67.8997C65.6945 69.9716 62.6429 73.6565 56.6378 76.845C56.4187 76.9577 56.366 77.2475 56.5313 77.4302L57.1433 78.1066C57.2627 78.2385 57.4457 78.2927 57.6177 78.247C57.7016 78.2221 66.8423 75.6912 72.1196 75.9145L72.1619 75.9161C72.5649 75.9318 72.7201 75.3977 72.3715 75.1949C72.3698 75.1939 72.3675 75.1926 72.3646 75.191C72.2212 75.111 70.6472 74.2328 68.6795 73.9624C67.8994 73.8552 67.5006 73.1096 68.0723 72.5681C69.2111 71.4895 70.9715 70.0373 72.6795 68.7558C72.8883 68.6006 72.8759 68.284 72.6555 68.1456L65.9234 63.9172C65.7675 63.8193 65.5683 63.8236 65.4167 63.928Z" stroke="#ED4337" style="stroke:#ED4337;stroke:color(display-p3 0.9294 0.2627 0.2157);stroke-opacity:1;"/>
<path d="M89.8456 97.2477C89.7825 97.1836 89.6806 96.7933 89.5314 96.2222C89.0639 94.4327 88.1329 90.8686 86.482 90.0069C85.6694 89.5865 79.6829 88.8861 73.4888 89.4147L73.4838 89.4151C73.1906 89.4327 72.9654 89.1424 73.0809 88.8722C74.8643 84.6996 77.0562 80.3243 78.2995 79.7451C78.6248 79.595 78.6187 79.1305 78.2895 78.989L74.5318 77.3741C74.3623 77.3012 74.176 77.2767 73.9934 77.3032L73.9505 77.3094C72.0443 77.6389 70.0299 78.0026 68.0499 78.36C61.8897 79.4721 56.0632 80.5239 54.8677 80.3C54.5607 80.2377 54.2526 80.4099 54.1469 80.7049C53.8687 81.4958 52.6299 86.8157 53.0197 90.6334C53.0809 91.2325 52.6631 91.8015 52.0627 91.8488C47.0056 92.2478 42.1381 92.3163 40.114 92.3264C39.668 92.3286 39.3824 92.8046 39.5905 93.199L40.3953 94.7252C40.534 94.9883 40.8381 95.1182 41.1241 95.0365C42.8269 94.5238 43.9124 94.6536 45.3261 94.8225C45.9397 94.8959 46.6152 94.9766 47.4298 95.0154C47.8386 95.0349 48.207 95.2855 48.363 95.6639C49.1158 97.4902 51.2162 102.482 51.9274 104.17C52.065 104.497 52.4207 104.672 52.7642 104.584C53.1145 104.494 53.3431 104.161 53.2961 103.802C53.0977 102.289 52.5879 98.3978 52.3176 96.3332C52.2379 95.7242 52.7204 95.1804 53.3345 95.1737C54.239 95.164 55.5414 95.143 56.9804 95.1199C59.0874 95.086 61.487 95.0474 63.3582 95.0324C64.2747 95.025 64.7118 96.1711 64.0566 96.8121C63.2079 97.6424 62.396 98.4739 61.9287 98.9573C61.6849 99.2095 61.6374 99.5898 61.8076 99.8965C61.9968 100.238 62.4001 100.395 62.7687 100.267C64.4132 99.696 68.7798 98.1806 70.0783 97.729C70.3087 97.6489 70.5543 97.6547 70.7814 97.7437C71.323 97.9559 72.3902 98.3718 73.4915 98.8004C74.4489 99.173 75.277 98.0334 74.6263 97.2383L74.1649 96.6747C73.6128 96.0006 74.1273 94.9901 74.9965 95.0511C78.9265 95.327 80.0602 95.6389 80.4006 96.0642C80.7123 96.4383 80.64 96.7178 80.5385 97.1103C80.4752 97.355 80.4006 97.6435 80.4006 98.0262C80.4006 99.7011 80.2951 102.166 78.7883 103.956C78.5647 104.221 78.2014 104.314 77.8705 104.209C75.5921 103.486 72.2578 101.704 70.9606 100.991C70.6412 100.815 70.2516 100.889 70.0194 101.17C69.7858 101.453 69.7811 101.86 70.0081 102.148L77.1772 111.247C77.3198 111.428 77.5527 111.512 77.7781 111.465C83.331 110.313 89.006 99.7331 89.831 98.1949C89.8764 98.1103 89.9071 98.053 89.9223 98.0262C90.0752 97.7797 90.0445 97.4588 89.8456 97.2477ZM71.4581 84.1578C71.3981 84.6008 71.0478 84.9485 70.6026 84.9889C69.6434 85.0759 68.6345 85.1046 67.8305 85.1275C67.748 85.1298 67.6677 85.1321 67.5898 85.1344C66.9832 85.1522 66.4445 84.6542 66.4445 84.0474V83.0028C66.4445 82.482 66.8442 82.0483 67.3633 82.006C68.5511 81.909 69.645 81.8191 70.4653 81.7493C71.1308 81.6927 71.7006 82.2917 71.6156 82.9542C71.5683 83.3233 71.5152 83.7359 71.4581 84.1578ZM62.1773 82.769C62.7527 82.7463 63.2459 83.1939 63.3777 83.7544C63.4533 84.0759 63.5485 84.3674 63.6358 84.6233C63.8039 85.1156 63.4856 85.553 62.9684 85.6087C61.7431 85.7405 60.6382 85.8395 59.6601 85.9056C59.0293 85.9481 58.5303 85.3898 58.618 84.7637C58.6713 84.3833 58.7249 83.9864 58.7811 83.5709L58.7911 83.497C58.8539 83.0333 59.2309 82.7102 59.698 82.7378C60.271 82.7718 61.1099 82.811 62.1773 82.769ZM58.9427 90.6361C58.2686 90.6947 57.7667 90.0897 57.9398 89.4355L57.9561 89.3734C58.0601 88.9732 58.3757 88.6531 58.7831 88.5824C60.1555 88.3442 61.4837 88.1683 62.8339 87.99C63.4259 87.9119 63.9562 88.3656 63.9726 88.9626L63.9799 89.2267C63.995 89.772 63.5698 90.2384 63.0261 90.2837C62.2813 90.3457 61.1718 90.4422 59.8306 90.5589C59.5447 90.5838 59.2484 90.6095 58.9427 90.6361ZM67.5063 89.9209C66.9252 89.9674 66.3916 89.5072 66.2162 88.9513C66.2058 88.9184 66.1954 88.8857 66.185 88.853C66.1711 88.8094 66.1573 88.7658 66.1437 88.7225C65.9904 88.2336 66.3519 87.8031 66.859 87.7299C67.0598 87.7009 67.2517 87.6713 67.4359 87.6429C68.2106 87.5232 68.8487 87.4247 69.4351 87.4842L69.8203 87.5087C70.4051 87.5458 70.8321 88.0754 70.747 88.6551L70.7142 88.8794C70.6463 89.346 70.2646 89.7048 69.7944 89.7409C68.9713 89.8041 68.1511 89.8693 67.5063 89.9209Z" fill="#DF0B26" style="fill:#DF0B26;fill:color(display-p3 0.8745 0.0431 0.1490);fill-opacity:1;"/>
<path d="M89.8456 97.2477C89.7825 97.1836 89.6806 96.7933 89.5314 96.2222C89.0639 94.4327 88.1329 90.8686 86.482 90.0069C85.6694 89.5865 79.6829 88.8861 73.4888 89.4147L73.4838 89.4151C73.1906 89.4327 72.9654 89.1424 73.0809 88.8722C74.8643 84.6996 77.0562 80.3243 78.2995 79.7451C78.6248 79.595 78.6187 79.1305 78.2895 78.989L74.5318 77.3741C74.3623 77.3012 74.176 77.2767 73.9934 77.3032L73.9505 77.3094C72.0443 77.6389 70.0299 78.0026 68.0499 78.36C61.8897 79.4721 56.0632 80.5239 54.8677 80.3C54.5607 80.2377 54.2526 80.4099 54.1469 80.7049C53.8687 81.4958 52.6299 86.8157 53.0197 90.6334C53.0809 91.2325 52.6631 91.8015 52.0627 91.8488C47.0056 92.2478 42.1381 92.3163 40.114 92.3264C39.668 92.3286 39.3824 92.8046 39.5905 93.199L40.3953 94.7252C40.534 94.9883 40.8381 95.1182 41.1241 95.0365C42.8269 94.5238 43.9124 94.6536 45.3261 94.8225C45.9397 94.8959 46.6152 94.9766 47.4298 95.0154C47.8386 95.0349 48.207 95.2855 48.363 95.6639C49.1158 97.4902 51.2162 102.482 51.9274 104.17C52.065 104.497 52.4207 104.672 52.7642 104.584C53.1145 104.494 53.3431 104.161 53.2961 103.802C53.0977 102.289 52.5879 98.3978 52.3176 96.3332C52.2379 95.7242 52.7204 95.1804 53.3345 95.1737C54.239 95.164 55.5414 95.143 56.9804 95.1199C59.0874 95.086 61.487 95.0474 63.3582 95.0324C64.2747 95.025 64.7118 96.1711 64.0566 96.8121C63.2079 97.6424 62.396 98.4739 61.9287 98.9573C61.6849 99.2095 61.6374 99.5898 61.8076 99.8965C61.9968 100.238 62.4001 100.395 62.7687 100.267C64.4132 99.696 68.7798 98.1806 70.0783 97.729C70.3087 97.6489 70.5543 97.6547 70.7814 97.7437C71.323 97.9559 72.3902 98.3718 73.4915 98.8004C74.4489 99.173 75.277 98.0334 74.6263 97.2383L74.1649 96.6747C73.6128 96.0006 74.1273 94.9901 74.9965 95.0511C78.9265 95.327 80.0602 95.6389 80.4006 96.0642C80.7123 96.4383 80.64 96.7178 80.5385 97.1103C80.4752 97.355 80.4006 97.6435 80.4006 98.0262C80.4006 99.7011 80.2951 102.166 78.7883 103.956C78.5647 104.221 78.2014 104.314 77.8705 104.209C75.5921 103.486 72.2578 101.704 70.9606 100.991C70.6412 100.815 70.2516 100.889 70.0194 101.17C69.7858 101.453 69.7811 101.86 70.0081 102.148L77.1772 111.247C77.3198 111.428 77.5527 111.512 77.7781 111.465C83.331 110.313 89.006 99.7331 89.831 98.1949C89.8764 98.1103 89.9071 98.053 89.9223 98.0262C90.0752 97.7797 90.0445 97.4588 89.8456 97.2477ZM71.4581 84.1578C71.3981 84.6008 71.0478 84.9485 70.6026 84.9889C69.6434 85.0759 68.6345 85.1046 67.8305 85.1275C67.748 85.1298 67.6677 85.1321 67.5898 85.1344C66.9832 85.1522 66.4445 84.6542 66.4445 84.0474V83.0028C66.4445 82.482 66.8442 82.0483 67.3633 82.006C68.5511 81.909 69.645 81.8191 70.4653 81.7493C71.1308 81.6927 71.7006 82.2917 71.6156 82.9542C71.5683 83.3233 71.5152 83.7359 71.4581 84.1578ZM62.1773 82.769C62.7527 82.7463 63.2459 83.1939 63.3777 83.7544C63.4533 84.0759 63.5485 84.3674 63.6358 84.6233C63.8039 85.1156 63.4856 85.553 62.9684 85.6087C61.7431 85.7405 60.6382 85.8395 59.6601 85.9056C59.0293 85.9481 58.5303 85.3898 58.618 84.7637C58.6713 84.3833 58.7249 83.9864 58.7811 83.5709L58.7911 83.497C58.8539 83.0333 59.2309 82.7102 59.698 82.7378C60.271 82.7718 61.1099 82.811 62.1773 82.769ZM58.9427 90.6361C58.2686 90.6947 57.7667 90.0897 57.9398 89.4355L57.9561 89.3734C58.0601 88.9732 58.3757 88.6531 58.7831 88.5824C60.1555 88.3442 61.4837 88.1683 62.8339 87.99C63.4259 87.9119 63.9562 88.3656 63.9726 88.9626L63.9799 89.2267C63.995 89.772 63.5698 90.2384 63.0261 90.2837C62.2813 90.3457 61.1718 90.4422 59.8306 90.5589C59.5447 90.5838 59.2484 90.6095 58.9427 90.6361ZM67.5063 89.9209C66.9252 89.9674 66.3916 89.5072 66.2162 88.9513C66.2058 88.9184 66.1954 88.8857 66.185 88.853C66.1711 88.8094 66.1573 88.7658 66.1437 88.7225C65.9904 88.2336 66.3519 87.8031 66.859 87.7299C67.0598 87.7009 67.2517 87.6713 67.4359 87.6429C68.2106 87.5232 68.8487 87.4247 69.4351 87.4842L69.8203 87.5087C70.4051 87.5458 70.8321 88.0754 70.747 88.6551L70.7142 88.8794C70.6463 89.346 70.2646 89.7048 69.7944 89.7409C68.9713 89.8041 68.1511 89.8693 67.5063 89.9209Z" stroke="#ED4337" style="stroke:#ED4337;stroke:color(display-p3 0.9294 0.2627 0.2157);stroke-opacity:1;"/>
<path d="M73.6273 35.2461C73.3557 35.7275 71.5904 37.5328 62.3563 44.3933C62.2205 43.5508 62.0847 42.4676 62.0847 42.4676L62.0846 42.467C61.8143 40.1908 61.544 37.9145 61.0058 35.0448C61.0009 35.0187 60.9936 34.9928 60.9843 34.9679C60.9122 34.7764 60.7218 34.656 60.5179 34.6729L57.4342 34.9291C56.9158 34.9722 56.517 35.4055 56.517 35.9257V37.0514C56.517 41.0233 56.9245 44.5137 57.7392 47.7634C57.4298 47.9462 49.7587 53.5433 46.0856 56.2257C45.1021 56.944 45.0549 58.3902 45.9847 59.1769C46.6626 59.7504 47.6447 59.7752 48.3463 59.2311C51.1728 57.0394 58.072 51.681 58.8256 51.0131C59.7761 53.661 60.9983 55.8274 62.4921 57.031C65.208 59.4382 68.1955 59.0772 71.9978 58.5957C74.7137 58.2347 77.837 57.8736 81.5035 58.355C81.8237 58.4118 82.0968 58.1212 82.0204 57.8051L81.3677 55.1053C81.3677 54.3831 80.9603 53.7813 80.4171 53.2999C78.7057 52.2498 75.4628 52.7833 71.9256 53.3651C71.8141 53.3835 71.7024 53.4019 71.5904 53.4202C69.8251 53.7813 67.9239 54.0221 66.2943 54.1424C64.529 52.6981 63.4427 50.7724 62.7637 47.8838C72.9484 40.4215 76.7506 38.4957 78.1086 38.1347L78.3802 38.0143V37.6532V37.1718C78.3802 35.0053 77.158 33.8018 76.0716 33.561C75.3927 33.6814 74.3063 33.9221 73.6273 35.2461Z" fill="#426FE4" style="fill:#426FE4;fill:color(display-p3 0.2588 0.4353 0.8941);fill-opacity:1;"/>
<path d="M73.6273 35.2461C73.3557 35.7275 71.5904 37.5328 62.3563 44.3933C62.2205 43.5508 62.0847 42.4676 62.0847 42.4676L62.0846 42.467C61.8143 40.1908 61.544 37.9145 61.0058 35.0448C61.0009 35.0187 60.9936 34.9928 60.9843 34.9679C60.9122 34.7764 60.7218 34.656 60.5179 34.6729L57.4342 34.9291C56.9158 34.9722 56.517 35.4055 56.517 35.9257V37.0514C56.517 41.0233 56.9245 44.5137 57.7392 47.7634C57.4298 47.9462 49.7587 53.5433 46.0856 56.2257C45.1021 56.944 45.0549 58.3902 45.9847 59.1769C46.6626 59.7504 47.6447 59.7752 48.3463 59.2311C51.1728 57.0394 58.072 51.681 58.8256 51.0131C59.7761 53.661 60.9983 55.8274 62.4921 57.031C65.208 59.4382 68.1955 59.0772 71.9978 58.5957C74.7137 58.2347 77.837 57.8736 81.5035 58.355C81.8237 58.4118 82.0968 58.1212 82.0204 57.8051L81.3677 55.1053C81.3677 54.3831 80.9603 53.7813 80.4171 53.2999C78.7057 52.2498 75.4628 52.7833 71.9256 53.3651C71.8141 53.3835 71.7024 53.4019 71.5904 53.4202C69.8251 53.7813 67.9239 54.0221 66.2943 54.1424C64.529 52.6981 63.4427 50.7724 62.7637 47.8838C72.9484 40.4215 76.7506 38.4957 78.1086 38.1347L78.3802 38.0143V37.6532V37.1718C78.3802 35.0053 77.158 33.8018 76.0716 33.561C75.3927 33.6814 74.3063 33.9221 73.6273 35.2461Z" stroke="#3C64CE" style="stroke:#3C64CE;stroke:color(display-p3 0.2353 0.3922 0.8078);stroke-opacity:1;"/>
</svg>
