<svg width="128" height="128" viewBox="0 0 128 128" fill="none" xmlns="http://www.w3.org/2000/svg">
<path d="M91.8864 109.549C91.8864 109.549 87.8564 107.949 85.8464 106.409C83.9664 104.969 82.2664 103.009 81.0964 101.969C80.3364 101.279 79.6664 100.969 79.0764 100.969C78.4764 100.969 77.9464 101.279 77.4964 101.829L74.9164 105.069C73.8364 106.849 74.7564 109.179 74.7564 109.179C74.7564 109.179 72.0564 112.039 76.5564 113.019C81.1664 114.029 86.6864 114.579 86.6864 114.579C86.9764 114.629 87.3264 114.659 87.7064 114.659C89.6064 114.659 92.3064 113.969 93.1664 111.999C93.1664 111.999 94.4564 110.569 91.8864 109.549Z" fill="#4568AC" style="fill:#4568AC;fill:color(display-p3 0.2706 0.4078 0.6745);fill-opacity:1;"/>
<path d="M74.5184 104.947L58.6465 103.506C58.6365 103.506 83.9674 104.439 81.1382 89.9844C81.1382 89.9844 65.0865 90.8912 58.6465 90.8912C58.6465 90.8912 34.9825 95.5415 34.5173 106.46C34.1101 116.019 50.2437 114.965 51.5516 114.965C52.6286 114.965 53.6176 114.965 54.8176 114.965C60.1376 114.965 67.6665 114.066 73.7865 113.346C76.1365 113.066 76.1984 106.037 74.5184 104.947Z" fill="#616161" style="fill:#616161;fill:color(display-p3 0.3804 0.3804 0.3804);fill-opacity:1;"/>
<path d="M72.585 40.4687C73.675 36.7487 74.275 32.1387 73.775 29.3687C73.665 28.7487 73.505 28.2087 73.285 27.7987C72.655 26.6887 71.815 25.6187 70.825 24.6587C70.805 24.6387 70.785 24.6187 70.765 24.6087C70.545 24.3887 70.315 24.1787 70.075 23.9787C70.035 23.9487 69.995 23.9087 69.955 23.8787C69.735 23.6887 69.515 23.5087 69.285 23.3387C69.235 23.2987 69.175 23.2587 69.125 23.2187C68.905 23.0487 68.675 22.8887 68.445 22.7387C68.385 22.6987 68.325 22.6587 68.265 22.6187C68.035 22.4687 67.795 22.3187 67.555 22.1787C67.495 22.1387 67.435 22.1087 67.375 22.0687C67.125 21.9287 66.875 21.7987 66.625 21.6687C66.575 21.6387 66.515 21.6087 66.465 21.5887C66.195 21.4587 65.915 21.3287 65.635 21.2087C65.605 21.1987 65.565 21.1787 65.535 21.1687C63.985 20.5287 62.365 20.1587 60.795 20.1587C60.755 20.1587 60.715 20.1687 60.685 20.1687C60.335 20.1687 59.995 20.1887 59.655 20.2287C53.915 20.9087 50.665 24.8787 49.615 30.0387C49.235 31.9087 49.205 33.7987 49.465 35.1387C49.495 35.2987 49.755 36.4787 49.765 36.8387C49.915 38.2487 47.135 39.5187 46.745 41.0587C46.455 42.2087 48.855 43.0687 49.035 43.2787C49.945 44.3687 48.205 49.2787 54.855 50.0787C57.415 50.3887 57.655 50.3187 58.455 50.4287C60.045 50.6587 59.575 57.1087 59.575 57.1087H59.585L71.105 54.7987C71.105 54.7987 69.575 47.3487 71.225 44.0987C71.715 43.1087 72.185 41.8487 72.585 40.4687Z" fill="#FFCA28" style="fill:#FFCA28;fill:color(display-p3 1.0000 0.7922 0.1569);fill-opacity:1;"/>
<path d="M49.585 46.1285C50.505 46.2185 51.435 46.0485 52.245 45.5085C53.125 44.9085 52.575 44.1785 51.575 44.5485C50.975 44.7785 50.135 44.8585 49.375 44.6785L49.585 46.1285Z" fill="#795548" style="fill:#795548;fill:color(display-p3 0.4745 0.3333 0.2824);fill-opacity:1;"/>
<path d="M55.0848 37.8458C55.0992 36.8076 54.5646 35.9584 53.8909 35.9491C53.2172 35.9398 52.6594 36.7739 52.6451 37.8121C52.6308 38.8503 53.1653 39.6994 53.839 39.7087C54.5127 39.718 55.0705 38.8839 55.0848 37.8458Z" fill="#404040" style="fill:#404040;fill:color(display-p3 0.2510 0.2510 0.2510);fill-opacity:1;"/>
<path d="M53.0357 35.0085C51.8157 35.2385 51.6157 34.4285 52.0757 33.8385C52.4157 33.3985 53.1757 33.0885 54.5357 33.4985C55.8157 33.8885 56.2857 34.6885 56.5857 35.1885C56.8857 35.6885 56.8057 36.1385 56.4957 36.1385C56.0757 36.1485 54.5457 34.7285 53.0357 35.0085Z" fill="#6D4C41" style="fill:#6D4C41;fill:color(display-p3 0.4275 0.2980 0.2549);fill-opacity:1;"/>
<path d="M72.585 40.4687C73.675 36.7487 74.275 32.1387 73.775 29.3687C73.665 28.7487 73.505 28.2087 73.285 27.7987C72.655 26.6887 71.815 25.6187 70.825 24.6587C70.805 24.6387 70.785 24.6187 70.765 24.6087C70.545 24.3887 70.315 24.1787 70.075 23.9787C70.035 23.9487 69.995 23.9087 69.955 23.8787C69.735 23.6887 69.515 23.5087 69.285 23.3387C69.235 23.2987 69.175 23.2587 69.125 23.2187C68.905 23.0487 68.675 22.8887 68.445 22.7387C68.385 22.6987 68.325 22.6587 68.265 22.6187C68.035 22.4687 67.795 22.3187 67.555 22.1787C67.495 22.1387 67.435 22.1087 67.375 22.0687C67.125 21.9287 66.875 21.7987 66.625 21.6687C66.575 21.6387 66.515 21.6087 66.465 21.5887C66.195 21.4587 65.915 21.3287 65.635 21.2087C65.605 21.1987 65.565 21.1787 65.535 21.1687C63.985 20.5287 62.365 20.1587 60.795 20.1587C60.755 20.1587 60.715 20.1687 60.685 20.1687C60.335 20.1687 59.995 20.1887 59.655 20.2287C53.915 20.9087 50.665 24.8787 49.615 30.0387C49.235 31.9087 49.205 33.7987 49.465 35.1387C49.495 35.2987 49.755 36.4787 49.765 36.8387C49.915 38.2487 47.135 39.5187 46.745 41.0587C46.455 42.2087 48.855 43.0687 49.035 43.2787C49.945 44.3687 48.205 49.2787 54.855 50.0787C57.415 50.3887 57.655 50.3187 58.455 50.4287C60.045 50.6587 59.575 57.1087 59.575 57.1087H59.585L71.105 54.7987C71.105 54.7987 69.575 47.3487 71.225 44.0987C71.715 43.1087 72.185 41.8487 72.585 40.4687Z" fill="#70534A" style="fill:#70534A;fill:color(display-p3 0.4392 0.3255 0.2902);fill-opacity:1;"/>
<path d="M72.585 40.4687C73.675 36.7487 74.275 32.1387 73.775 29.3687C73.665 28.7487 73.505 28.2087 73.285 27.7987C72.655 26.6887 71.815 25.6187 70.825 24.6587C70.805 24.6387 70.785 24.6187 70.765 24.6087C70.545 24.3887 70.315 24.1787 70.075 23.9787C70.035 23.9487 69.995 23.9087 69.955 23.8787C69.735 23.6887 69.515 23.5087 69.285 23.3387C69.235 23.2987 69.175 23.2587 69.125 23.2187C68.905 23.0487 68.675 22.8887 68.445 22.7387C68.385 22.6987 68.325 22.6587 68.265 22.6187C68.035 22.4687 67.795 22.3187 67.555 22.1787C67.495 22.1387 67.435 22.1087 67.375 22.0687C67.125 21.9287 66.875 21.7987 66.625 21.6687C66.575 21.6387 66.515 21.6087 66.465 21.5887C66.195 21.4587 65.915 21.3287 65.635 21.2087C65.605 21.1987 65.565 21.1787 65.535 21.1687C63.985 20.5287 62.365 20.1587 60.795 20.1587C60.755 20.1587 60.715 20.1687 60.685 20.1687C60.335 20.1687 59.995 20.1887 59.655 20.2287C53.915 20.9087 50.665 24.8787 49.615 30.0387C49.235 31.9087 49.205 33.7987 49.465 35.1387C49.495 35.2987 49.755 36.4787 49.765 36.8387C49.915 38.2487 47.135 39.5187 46.745 41.0587C46.455 42.2087 48.855 43.0687 49.035 43.2787C49.945 44.3687 48.205 49.2787 54.855 50.0787C57.415 50.3887 57.655 50.3187 58.455 50.4287C60.045 50.6587 59.575 57.1087 59.575 57.1087H59.585L71.105 54.7987C71.105 54.7987 69.575 47.3487 71.225 44.0987C71.715 43.1087 72.185 41.8487 72.585 40.4687Z" fill="#F9DDBD" style="fill:#F9DDBD;fill:color(display-p3 0.9765 0.8667 0.7412);fill-opacity:1;"/>
<path d="M49.585 46.1285C50.505 46.2185 51.435 46.0485 52.245 45.5085C53.125 44.9085 52.575 44.1785 51.575 44.5485C50.975 44.7785 50.135 44.8585 49.375 44.6785L49.585 46.1285Z" fill="#1A1717" style="fill:#1A1717;fill:color(display-p3 0.1020 0.0902 0.0902);fill-opacity:1;"/>
<path d="M55.0848 37.8458C55.0992 36.8076 54.5646 35.9584 53.8909 35.9491C53.2172 35.9398 52.6594 36.7739 52.6451 37.8121C52.6308 38.8503 53.1653 39.6994 53.839 39.7087C54.5127 39.718 55.0705 38.8839 55.0848 37.8458Z" fill="#1A1717" style="fill:#1A1717;fill:color(display-p3 0.1020 0.0902 0.0902);fill-opacity:1;"/>
<path d="M53.0357 35.0085C51.8157 35.2385 51.6157 34.4285 52.0757 33.8385C52.4157 33.3985 53.1757 33.0885 54.5357 33.4985C55.8157 33.8885 56.2857 34.6885 56.5857 35.1885C56.8857 35.6885 56.8057 36.1385 56.4957 36.1385C56.0757 36.1485 54.5457 34.7285 53.0357 35.0085Z" fill="#1A1717" style="fill:#1A1717;fill:color(display-p3 0.1020 0.0902 0.0902);fill-opacity:1;"/>
<path d="M74.9253 60.2485C73.0653 53.8785 69.8953 52.2485 67.1253 52.2485C64.2453 52.2485 61.8053 54.0285 61.8053 54.0285C56.9053 57.3985 56.8953 62.5385 56.4453 69.4485C55.9853 76.3585 55.6553 90.4385 55.6553 90.4385C55.6553 90.4385 61.0953 92.6885 69.3653 92.6885H70.0153C78.6553 92.5685 81.8553 89.5785 81.8553 89.5785C81.8553 89.5785 77.2553 68.2085 74.9253 60.2485Z" fill="url(#paint0_radial_179_545)" style=""/>
<path d="M74.9253 60.2485C73.0653 53.8785 69.8953 52.2485 67.1253 52.2485C64.2453 52.2485 61.8053 54.0285 61.8053 54.0285C56.9053 57.3985 56.8953 62.5385 56.4453 69.4485C55.9853 76.3585 55.6553 90.4385 55.6553 90.4385C55.6553 90.4385 61.0953 92.6885 69.3653 92.6885H70.0153C78.6553 92.5685 81.8553 89.5785 81.8553 89.5785C81.8553 89.5785 77.2553 68.2085 74.9253 60.2485Z" fill="url(#paint1_radial_179_545)" style=""/>
<path d="M77.2501 76.3252C76.4702 73.3685 73.0616 62.2639 73.0307 62.1564C72.9559 61.9127 72.7101 61.7665 72.4534 61.8125L62.3529 63.8135C62.2146 63.8374 62.0933 63.93 62.0158 64.0584C61.9482 64.1859 61.9323 64.3282 61.9762 64.4644L67.0407 79.2417C65.4046 80.4616 57.3284 86.3998 54.9228 87.1644C53.2962 87.6798 50.4906 88.3641 47.2513 89.1321C44.6605 89.7546 42.3801 93.4614 41.25 95.6154C40.9131 96.2623 41.032 97.0444 41.5258 97.5575C41.8972 97.9523 42.4167 98.1212 42.9142 98.0711C43.2425 98.0381 43.5609 97.9056 43.8194 97.6785L47.1593 95.2119C47.6738 95.2305 49.1842 95.2594 51.205 94.9657C53.7013 94.604 56.0309 93.2842 56.1065 93.2364C56.9769 92.7971 61.228 91.5956 65.3418 90.428C68.41 89.5565 71.5767 88.6651 73.7096 87.9882C79.8071 86.0582 77.9501 78.9885 77.2501 76.3252Z" fill="url(#paint2_linear_179_545)" style=""/>
<path d="M77.2501 76.3252C76.4702 73.3685 73.0616 62.2639 73.0307 62.1564C72.9559 61.9127 72.7101 61.7665 72.4534 61.8125L62.3529 63.8135C62.2146 63.8374 62.0933 63.93 62.0158 64.0584C61.9482 64.1859 61.9323 64.3282 61.9762 64.4644L67.0407 79.2417C65.4046 80.4616 57.3284 86.3998 54.9228 87.1644C53.2962 87.6798 50.4906 88.3641 47.2513 89.1321C44.6605 89.7546 42.3801 93.4614 41.25 95.6154C40.9131 96.2623 41.032 97.0444 41.5258 97.5575C41.8972 97.9523 42.4167 98.1212 42.9142 98.0711C43.2425 98.0381 43.5609 97.9056 43.8194 97.6785L47.1593 95.2119C47.6738 95.2305 49.1842 95.2594 51.205 94.9657C53.7013 94.604 56.0309 93.2842 56.1065 93.2364C56.9769 92.7971 61.228 91.5956 65.3418 90.428C68.41 89.5565 71.5767 88.6651 73.7096 87.9882C79.8071 86.0582 77.9501 78.9885 77.2501 76.3252Z" fill="url(#paint3_linear_179_545)" style=""/>
<path d="M77.2501 76.3252C76.4702 73.3685 73.0616 62.2639 73.0307 62.1564C72.9559 61.9127 72.7101 61.7665 72.4534 61.8125L62.3529 63.8135C62.2146 63.8374 62.0933 63.93 62.0158 64.0584C61.9482 64.1859 61.9323 64.3282 61.9762 64.4644L67.0407 79.2417C65.4046 80.4616 57.3284 86.3998 54.9228 87.1644C53.2962 87.6798 50.4906 88.3641 47.2513 89.1321C44.6605 89.7546 42.3801 93.4614 41.25 95.6154C40.9131 96.2623 41.032 97.0444 41.5258 97.5575C41.8972 97.9523 42.4167 98.1212 42.9142 98.0711C43.2425 98.0381 43.5609 97.9056 43.8194 97.6785L47.1593 95.2119C47.6738 95.2305 49.1842 95.2594 51.205 94.9657C53.7013 94.604 56.0309 93.2842 56.1065 93.2364C56.9769 92.7971 61.228 91.5956 65.3418 90.428C68.41 89.5565 71.5767 88.6651 73.7096 87.9882C79.8071 86.0582 77.9501 78.9885 77.2501 76.3252Z" fill="url(#paint4_linear_179_545)" style=""/>
<path d="M74.1086 62.5803C73.3198 59.735 70.5875 56.3515 66.707 56.7418C66.3687 56.7759 66.0136 56.8418 65.6514 56.9385C61.2182 58.1282 60.3684 63.0681 61.2319 66.1571L64.1061 75.5466L76.9828 71.9698L74.1086 62.5803Z" fill="#04A287" style="fill:#04A287;fill:color(display-p3 0.0157 0.6353 0.5294);fill-opacity:1;"/>
<path d="M74.1086 62.5803C73.3198 59.735 70.5875 56.3515 66.707 56.7418C66.3687 56.7759 66.0136 56.8418 65.6514 56.9385C61.2182 58.1282 60.3684 63.0681 61.2319 66.1571L64.1061 75.5466L76.9828 71.9698L74.1086 62.5803Z" fill="#EC6E24" style="fill:#EC6E24;fill:color(display-p3 0.9255 0.4314 0.1412);fill-opacity:1;"/>
<path d="M77.2692 28.3484C75.9692 24.6984 73.0992 23.5084 72.1592 23.2084C71.7592 21.8884 69.6992 16.8684 61.4892 17.9084C59.4892 18.1584 57.9992 19.0584 56.6892 19.8384C56.1292 20.1784 55.5892 20.4984 55.0892 20.7084C54.6892 20.8784 53.9792 21.0284 53.4092 20.8084C52.1092 20.3284 52.5992 18.3484 52.5992 18.3484C52.5992 18.3484 47.7492 19.1184 49.6492 23.8584C48.0092 24.5084 47.1892 26.1984 46.8392 27.7984C46.3592 29.9884 47.3592 32.1184 49.4392 33.1483C49.4392 33.1483 49.1492 29.5983 54.2492 29.9883C55.8292 30.1083 57.4792 30.4184 58.9692 29.8884C59.5392 29.6784 60.0792 29.3484 60.6292 29.0984C60.7492 29.0984 60.8292 29.0984 60.8292 29.0984C62.7292 30.2084 60.0092 34.6784 62.0692 37.4284C62.4792 37.9684 62.8392 37.7884 62.8392 37.7884L63.7492 36.5484C64.4392 35.7084 65.0592 34.9684 65.8692 35.1784C68.2592 35.7984 67.6592 40.0784 64.7692 40.9184C64.4792 40.9984 64.9592 45.8184 70.8792 46.0384C73.9392 46.1584 75.1092 43.6483 75.1092 43.6483C75.1092 43.6483 73.7892 43.9284 73.5492 42.8084C73.4192 42.2284 73.9792 41.4683 74.9692 40.6583C77.8192 38.3083 76.9292 35.4484 76.5492 34.5584C77.0292 33.7784 78.2892 31.1984 77.2692 28.3484Z" fill="#312D2D" style="fill:#312D2D;fill:color(display-p3 0.1922 0.1765 0.1765);fill-opacity:1;"/>
<path d="M76.579 34.5783C76.629 34.4883 75.649 36.7283 71.749 36.2083C70.139 36.1483 67.759 39.9383 70.009 42.5883C72.009 44.9283 75.129 43.6783 75.129 43.6783C75.129 43.6783 74.699 43.7883 74.089 43.5483C73.699 43.3883 73.569 42.8583 73.569 42.8383C73.439 42.2583 73.999 41.4983 74.989 40.6883C77.839 38.3283 76.949 35.4683 76.579 34.5783Z" fill="url(#paint5_radial_179_545)" style=""/>
<path d="M77.2694 28.3483C76.5894 26.4283 75.2694 24.7783 73.4794 23.7883C73.2194 23.6383 72.5894 23.3083 72.1394 23.2083C72.3194 24.0583 72.2594 24.9483 71.8694 25.8683C71.8594 25.8983 71.3994 27.2583 70.1694 28.3183C70.9894 29.5383 71.3694 31.0083 71.7194 32.4383C72.0294 33.6883 72.3194 35.0683 71.7294 36.2083C72.4794 36.1883 73.6594 36.4483 74.9994 35.9083C76.2794 35.3883 76.9894 33.9683 77.3494 32.6683C77.7594 31.2483 77.7694 29.7383 77.2694 28.3483Z" fill="url(#paint6_radial_179_545)" style=""/>
<path d="M71.8792 25.8683C72.9092 23.4783 71.6692 21.1983 69.7092 19.6283C67.4092 17.7983 64.3092 17.5383 61.4892 17.8983C59.4892 18.1483 57.9992 19.0483 56.6892 19.8283C56.1292 20.1683 55.5892 20.4883 55.0892 20.6983C54.6892 20.8683 53.9792 21.0183 53.4092 20.7983C52.1092 20.3183 52.5992 18.3383 52.5992 18.3383C52.5992 18.3383 47.7492 19.1083 49.6492 23.8483C48.0092 24.4983 47.1892 26.1883 46.8392 27.7883C46.3592 29.9783 47.3592 32.1083 49.4392 33.1383C49.4392 33.1383 49.1492 29.5883 54.2492 29.9783C55.8292 30.0983 57.4792 30.4083 58.9692 29.8783C60.2892 29.3983 60.7592 28.7183 62.2092 28.8483C63.7792 28.9983 65.8492 29.6683 67.4792 29.4883C70.7892 29.1183 71.8592 25.9083 71.8792 25.8683Z" fill="url(#paint7_radial_179_545)" style=""/>
<path d="M70.0092 42.5783C68.9992 41.4183 68.7892 39.5683 67.1692 38.5183C66.8292 39.5783 66.0092 40.5683 64.7792 40.9283C64.4892 41.0083 64.9692 45.8283 70.8892 46.0483C73.9492 46.1683 75.1192 43.6583 75.1192 43.6583C75.1192 43.6583 72.0492 44.9083 70.0092 42.5783Z" fill="url(#paint8_radial_179_545)" style=""/>
<defs>
<radialGradient id="paint0_radial_179_545" cx="0" cy="0" r="1" gradientUnits="userSpaceOnUse" gradientTransform="translate(65.672 67.2601) scale(17.0361 17.0361)">
<stop offset="0.3637" stop-color="#00BFA5" style="stop-color:#00BFA5;stop-color:color(display-p3 0.0000 0.7490 0.6471);stop-opacity:1;"/>
<stop offset="0.8121" stop-color="#00B29A" style="stop-color:#00B29A;stop-color:color(display-p3 0.0000 0.6980 0.6039);stop-opacity:1;"/>
<stop offset="1" stop-color="#00AB94" style="stop-color:#00AB94;stop-color:color(display-p3 0.0000 0.6706 0.5804);stop-opacity:1;"/>
</radialGradient>
<radialGradient id="paint1_radial_179_545" cx="0" cy="0" r="1" gradientUnits="userSpaceOnUse" gradientTransform="translate(65.6747 67.2639) scale(17.0361 17.0361)">
<stop offset="0.3666" stop-color="#F58B21" style="stop-color:#F58B21;stop-color:color(display-p3 0.9608 0.5451 0.1294);stop-opacity:1;"/>
<stop offset="0.6967" stop-color="#F17E22" style="stop-color:#F17E22;stop-color:color(display-p3 0.9451 0.4941 0.1333);stop-opacity:1;"/>
<stop offset="1" stop-color="#EC6E24" style="stop-color:#EC6E24;stop-color:color(display-p3 0.9255 0.4314 0.1412);stop-opacity:1;"/>
</radialGradient>
<linearGradient id="paint2_linear_179_545" x1="60.3704" y1="91.279" x2="56.8173" y2="77.1889" gradientUnits="userSpaceOnUse">
<stop offset="0.5" stop-color="#FFCA28" style="stop-color:#FFCA28;stop-color:color(display-p3 1.0000 0.7922 0.1569);stop-opacity:1;"/>
<stop offset="1" stop-color="#FFB300" style="stop-color:#FFB300;stop-color:color(display-p3 1.0000 0.7020 0.0000);stop-opacity:1;"/>
</linearGradient>
<linearGradient id="paint3_linear_179_545" x1="60.3704" y1="91.279" x2="56.8173" y2="77.1889" gradientUnits="userSpaceOnUse">
<stop offset="0.5" stop-color="#70534A" style="stop-color:#70534A;stop-color:color(display-p3 0.4392 0.3255 0.2902);stop-opacity:1;"/>
<stop offset="1" stop-color="#5C4037" style="stop-color:#5C4037;stop-color:color(display-p3 0.3608 0.2510 0.2157);stop-opacity:1;"/>
</linearGradient>
<linearGradient id="paint4_linear_179_545" x1="60.3704" y1="91.279" x2="56.8173" y2="77.1889" gradientUnits="userSpaceOnUse">
<stop offset="0.5" stop-color="#F9DDBD" style="stop-color:#F9DDBD;stop-color:color(display-p3 0.9765 0.8667 0.7412);stop-opacity:1;"/>
<stop offset="1" stop-color="#FFD29C" style="stop-color:#FFD29C;stop-color:color(display-p3 1.0000 0.8235 0.6118);stop-opacity:1;"/>
</linearGradient>
<radialGradient id="paint5_radial_179_545" cx="0" cy="0" r="1" gradientUnits="userSpaceOnUse" gradientTransform="translate(68.9851 39.9524) rotate(22.4132) scale(7.73725 11.1419)">
<stop offset="0.45" stop-color="#454140" stop-opacity="0" style="stop-color:none;stop-opacity:0;"/>
<stop offset="1" stop-color="#454140" style="stop-color:#454140;stop-color:color(display-p3 0.2706 0.2549 0.2510);stop-opacity:1;"/>
</radialGradient>
<radialGradient id="paint6_radial_179_545" cx="0" cy="0" r="1" gradientUnits="userSpaceOnUse" gradientTransform="translate(70.1919 32.192) rotate(-5.57206) scale(7.8426 9.89609)">
<stop offset="0.45" stop-color="#454140" stop-opacity="0" style="stop-color:none;stop-opacity:0;"/>
<stop offset="1" stop-color="#454140" style="stop-color:#454140;stop-color:color(display-p3 0.2706 0.2549 0.2510);stop-opacity:1;"/>
</radialGradient>
<radialGradient id="paint7_radial_179_545" cx="0" cy="0" r="1" gradientUnits="userSpaceOnUse" gradientTransform="translate(61.5476 29.1589) rotate(-6.67302) scale(16.1408 12.1333)">
<stop offset="0.45" stop-color="#454140" stop-opacity="0" style="stop-color:none;stop-opacity:0;"/>
<stop offset="1" stop-color="#454140" style="stop-color:#454140;stop-color:color(display-p3 0.2706 0.2549 0.2510);stop-opacity:1;"/>
</radialGradient>
<radialGradient id="paint8_radial_179_545" cx="0" cy="0" r="1" gradientUnits="userSpaceOnUse" gradientTransform="translate(70.7297 40.9644) rotate(16.4089) scale(8.68967 5.58626)">
<stop offset="0.45" stop-color="#454140" stop-opacity="0" style="stop-color:none;stop-opacity:0;"/>
<stop offset="1" stop-color="#454140" style="stop-color:#454140;stop-color:color(display-p3 0.2706 0.2549 0.2510);stop-opacity:1;"/>
</radialGradient>
</defs>
</svg>
