<svg width="128" height="128" viewBox="0 0 128 128" fill="none" xmlns="http://www.w3.org/2000/svg">
<path d="M63.6 118.8C35.7 118.8 5.59998 101.3 5.59998 62.9C5.59998 24.5 35.7 7 63.6 7C79.1 7 93.4 12.1 104 21.4C115.5 31.6 121.6 46 121.6 62.9C121.6 79.8 115.5 94.1 104 104.3C93.4 113.6 79 118.8 63.6 118.8Z" fill="url(#paint0_radial_169_10927)" style=""/>
<path d="M63.6 118.8C35.7 118.8 5.59998 101.3 5.59998 62.9C5.59998 24.5 35.7 7 63.6 7C79.1 7 93.4 12.1 104 21.4C115.5 31.6 121.6 46 121.6 62.9C121.6 79.8 115.5 94.1 104 104.3C93.4 113.6 79 118.8 63.6 118.8Z" fill="url(#paint1_radial_169_10927)" style=""/>
<path d="M111.49 29.67C116.82 38.27 119.6 48.51 119.6 59.9C119.6 76.8 113.5 91.1 102 101.3C91.3999 110.6 76.9999 115.8 61.5999 115.8C43.5399 115.8 24.5999 108.45 13.4199 92.86C24.1799 110.52 44.4199 118.8 63.5999 118.8C78.9999 118.8 93.3999 113.6 104 104.3C115.5 94.1 121.6 79.8 121.6 62.9C121.6 50.16 118.13 38.84 111.49 29.67Z" fill="#D84213" style="fill:#D84213;fill:color(display-p3 0.8471 0.2588 0.0745);fill-opacity:1;"/>
<path d="M24.5657 72.6439L21.0321 106.208L100.025 114.525L103.559 80.9602L24.5657 72.6439Z" fill="black" style="fill:black;fill-opacity:1;"/>
<path d="M38.73 94.29L36.63 94.09L35.24 99.35L32.64 99.1L34 93.84L31.11 93.56L31.34 91.17L34.63 91.49L35.53 88.1L32.65 87.82L32.88 85.44L36.15 85.76L37.58 80.42L40.16 80.67L38.78 86L40.88 86.2L42.3 80.86L44.89 81.11L43.47 86.45L46.47 86.74L46.24 89.13L42.84 88.8L41.93 92.18L44.93 92.47L44.7 94.86L41.32 94.53L39.93 99.8L37.34 99.55L38.73 94.29ZM37.25 91.74L39.35 91.94L40.25 88.56L38.15 88.35L37.25 91.74Z" fill="white" style="fill:white;fill-opacity:1;"/>
<path d="M57 96.5C57.07 95.97 56.95 95.44 56.65 95C56.25 94.52 55.75 94.14 55.18 93.88C54.46 93.5 53.8 93.13 53.18 92.76C52.62 92.41 52.1 91.99 51.65 91.51C51.25 91.07 50.95 90.56 50.76 90C50.56 89.35 50.5 88.67 50.58 88C50.68 86.82 51.26 85.74 52.19 85C53.23 84.22 54.51 83.83 55.81 83.88L56 81.44L57.81 81.62L57.58 84.07C58.83 84.32 59.94 85.04 60.69 86.07C61.41 87.15 61.72 88.47 61.54 89.76L57.68 89.39C57.78 88.75 57.68 88.1 57.4 87.52C56.92 86.75 55.9 86.51 55.13 86.99C55.07 87.03 55.01 87.07 54.95 87.12C54.62 87.46 54.42 87.91 54.4 88.38C54.33 88.87 54.45 89.37 54.75 89.77C55.16 90.23 55.65 90.6 56.2 90.87C56.88 91.24 57.52 91.61 58.12 92C58.68 92.35 59.19 92.78 59.64 93.26C60.05 93.71 60.36 94.23 60.57 94.8C60.78 95.44 60.85 96.13 60.77 96.8C60.7 97.99 60.14 99.1 59.22 99.87C58.23 100.64 57 101.04 55.75 101L55.52 103.29L53.71 103.12L53.93 100.81C52.5 100.6 51.2 99.86 50.28 98.74C49.45 97.61 49.09 96.19 49.28 94.8L53.12 95.17C53.01 95.86 53.15 96.57 53.51 97.17C53.88 97.67 54.46 97.98 55.08 98.01C55.53 98.08 55.99 97.95 56.35 97.66C56.71 97.37 56.94 96.96 57 96.5Z" fill="white" style="fill:white;fill-opacity:1;"/>
<path d="M65.75 101.68C65.79 101.09 66.09 100.56 66.57 100.22C67.63 99.51 69.03 99.65 69.94 100.54C70.71 101.41 70.63 102.73 69.77 103.5C69.73 103.54 69.69 103.57 69.64 103.61C69.13 103.97 68.51 104.12 67.9 104.04C67.28 104 66.7 103.73 66.28 103.28C65.88 102.85 65.68 102.27 65.75 101.68ZM70.24 98.17L66.8 97.84L67.47 85.25L71.99 85.69L70.24 98.17Z" fill="white" style="fill:white;fill-opacity:1;"/>
<path d="M96.2601 96.18C96.1101 97.93 95.4101 99.59 94.2601 100.91C93.2701 102.01 91.8001 102.56 90.3301 102.37C89.7401 102.32 89.1601 102.12 88.6701 101.79C88.2201 101.46 87.8701 101.02 87.6701 100.5C86.8701 101.43 85.6501 101.9 84.4301 101.75C83.7101 101.69 83.0401 101.39 82.5201 100.89C81.9901 100.34 81.6401 99.64 81.5201 98.89C81.3301 97.97 81.3301 97.01 81.5201 96.09C81.8301 94.38 82.6501 92.8 83.8701 91.56C84.9001 90.51 86.3501 89.98 87.8101 90.13C88.8601 90.21 89.8701 90.59 90.7101 91.22L91.4001 91.79L90.1301 98.62C89.9001 99.7 90.2201 100.28 91.1301 100.36C91.9001 100.38 92.6001 99.94 92.9301 99.25C93.5201 98.28 93.8801 97.19 93.9901 96.06C94.4801 93.94 94.1201 91.71 92.9901 89.85C91.7701 88.23 89.8801 87.25 87.8501 87.19C86.4401 87.03 85.0101 87.3 83.7501 87.95C82.4701 88.64 81.4001 89.68 80.6801 90.95C79.8301 92.38 79.2801 93.96 79.0701 95.61C78.6801 98.34 79.0101 100.49 80.0701 102.06C81.3301 103.72 83.2801 104.72 85.3601 104.77C86.0601 104.84 86.7701 104.84 87.4701 104.77C88.1001 104.72 88.7201 104.59 89.3201 104.41L89.5701 106.41C88.9401 106.71 88.2601 106.91 87.5701 106.98C86.7201 107.1 85.8501 107.1 85.0001 107C83.1101 106.88 81.2901 106.28 79.7001 105.25C78.2801 104.29 77.2201 102.88 76.7001 101.25C76.1201 99.33 75.9901 97.3 76.3101 95.32C76.5601 93.3 77.2601 91.37 78.3601 89.66C79.3601 88.09 80.7801 86.84 82.4601 86.05C85.8601 84.55 89.7801 84.86 92.9001 86.88C94.2401 87.82 95.2601 89.17 95.7901 90.72C96.3901 92.47 96.5501 94.35 96.2601 96.18ZM84.3901 96.38C84.1901 97.14 84.1901 97.95 84.3901 98.71C84.5401 99.21 84.9801 99.57 85.5001 99.61C85.9001 99.63 86.2901 99.49 86.5701 99.21C86.9601 98.84 87.2701 98.38 87.4701 97.88L88.4701 92.56C88.2401 92.48 88.0001 92.42 87.7501 92.4C86.9501 92.29 86.1401 92.6 85.6301 93.23C84.9701 94.16 84.5401 95.25 84.3901 96.38Z" fill="white" style="fill:white;fill-opacity:1;"/>
<path d="M82.77 51.36C86.96 51.36 90.77 54.9 90.77 60.78C90.77 66.66 86.96 70.19 82.77 70.19C78.58 70.19 74.77 66.65 74.77 60.78C74.77 54.91 78.58 51.36 82.77 51.36Z" fill="#42312C" style="fill:#42312C;fill:color(display-p3 0.2588 0.1922 0.1725);fill-opacity:1;"/>
<path d="M45.23 51.36C41.04 51.36 37.23 54.9 37.23 60.78C37.23 66.66 41.04 70.19 45.23 70.19C49.42 70.19 53.23 66.65 53.23 60.78C53.23 54.91 49.42 51.36 45.23 51.36Z" fill="#42312C" style="fill:#42312C;fill:color(display-p3 0.2588 0.1922 0.1725);fill-opacity:1;"/>
<path d="M36.58 43.73L36.47 43.64C34.8 42.15 32.17 44.56 33.66 46.64C34.87 48.24 36.33 49.63 38 50.75C42.45 53.76 47.98 54.69 53.17 53.29C55.62 52.58 55.06 49.04 52.82 49.21C46.9 49.56 41.08 47.59 36.58 43.73Z" fill="#42312C" style="fill:#42312C;fill:color(display-p3 0.2588 0.1922 0.1725);fill-opacity:1;"/>
<path d="M91.42 43.73L91.53 43.64C93.2 42.15 95.83 44.56 94.34 46.64C93.13 48.24 91.67 49.63 90 50.75C85.55 53.76 80.02 54.69 74.83 53.29C72.38 52.58 72.94 49.04 75.18 49.21C81.1 49.56 86.92 47.59 91.42 43.73Z" fill="#42312C" style="fill:#42312C;fill:color(display-p3 0.2588 0.1922 0.1725);fill-opacity:1;"/>
<path d="M44.28 54.87C42.86 54.19 41.15 54.79 40.46 56.21C39.93 57.32 40.17 58.65 41.06 59.51C42.48 60.19 44.19 59.59 44.88 58.17C45.41 57.06 45.17 55.73 44.28 54.87Z" fill="#654F48" style="fill:#654F48;fill:color(display-p3 0.3958 0.3092 0.2837);fill-opacity:1;"/>
<path d="M82.63 54.87C81.21 54.19 79.5 54.79 78.81 56.21C78.28 57.32 78.52 58.65 79.41 59.51C80.83 60.19 82.54 59.59 83.23 58.17C83.76 57.06 83.52 55.73 82.63 54.87Z" fill="#654F48" style="fill:#654F48;fill:color(display-p3 0.3958 0.3092 0.2837);fill-opacity:1;"/>
<defs>
<radialGradient id="paint0_radial_169_10927" cx="0" cy="0" r="1" gradientUnits="userSpaceOnUse" gradientTransform="translate(63.6 62.8999) scale(56.9597 56.9597)">
<stop offset="0.12" stop-color="#6B4E45" style="stop-color:#6B4E45;stop-color:color(display-p3 0.4196 0.3059 0.2706);stop-opacity:1;"/>
<stop offset="0.453125" stop-color="#AF593F" style="stop-color:#AF593F;stop-color:color(display-p3 0.6875 0.3508 0.2464);stop-opacity:1;"/>
<stop offset="0.88" stop-color="#FE4B13" style="stop-color:#FE4B13;stop-color:color(display-p3 0.9961 0.2957 0.0745);stop-opacity:1;"/>
<stop offset="1" stop-color="#FF5100" style="stop-color:#FF5100;stop-color:color(display-p3 1.0000 0.3176 0.0000);stop-opacity:1;"/>
</radialGradient>
<radialGradient id="paint1_radial_169_10927" cx="0" cy="0" r="1" gradientUnits="userSpaceOnUse" gradientTransform="translate(63.6 62.8999) scale(56.9597 56.9597)">
<stop offset="0.12" stop-color="#A16841" style="stop-color:#A16841;stop-color:color(display-p3 0.6314 0.4078 0.2549);stop-opacity:1;"/>
<stop offset="0.484375" stop-color="#D5613D" style="stop-color:#D5613D;stop-color:color(display-p3 0.8333 0.3802 0.2396);stop-opacity:1;"/>
<stop offset="0.88" stop-color="#FE4B13" style="stop-color:#FE4B13;stop-color:color(display-p3 0.9961 0.2957 0.0745);stop-opacity:1;"/>
<stop offset="1" stop-color="#FF5100" style="stop-color:#FF5100;stop-color:color(display-p3 1.0000 0.3176 0.0000);stop-opacity:1;"/>
</radialGradient>
</defs>
</svg>
