<svg width="128" height="128" viewBox="0 0 128 128" fill="none" xmlns="http://www.w3.org/2000/svg">
<path d="M63.6 118.8C35.7 118.8 5.59998 101.3 5.59998 62.9C5.59998 24.5 35.7 7 63.6 7C79.1 7 93.4 12.1 104 21.4C115.5 31.6 121.6 46 121.6 62.9C121.6 79.8 115.5 94.1 104 104.3C93.4 113.6 79 118.8 63.6 118.8Z" fill="url(#paint0_radial_169_9522)" style=""/>
<path d="M63.6 118.8C35.7 118.8 5.59998 101.3 5.59998 62.9C5.59998 24.5 35.7 7 63.6 7C79.1 7 93.4 12.1 104 21.4C115.5 31.6 121.6 46 121.6 62.9C121.6 79.8 115.5 94.1 104 104.3C93.4 113.6 79 118.8 63.6 118.8Z" fill="url(#paint1_radial_169_9522)" style=""/>
<path d="M63.6 118.8C35.7 118.8 5.59998 101.3 5.59998 62.9C5.59998 24.5 35.7 7 63.6 7C79.1 7 93.4 12.1 104 21.4C115.5 31.6 121.6 46 121.6 62.9C121.6 79.8 115.5 94.1 104 104.3C93.4 113.6 79 118.8 63.6 118.8Z" fill="url(#paint2_radial_169_9522)" style=""/>
<path d="M111.49 29.67C116.82 38.27 119.6 48.51 119.6 59.9C119.6 76.8 113.5 91.1 102 101.3C91.3999 110.6 76.9999 115.8 61.5999 115.8C43.5399 115.8 24.5999 108.45 13.4199 92.86C24.1799 110.52 44.4199 118.8 63.5999 118.8C78.9999 118.8 93.3999 113.6 104 104.3C115.5 94.1 121.6 79.8 121.6 62.9C121.6 50.16 118.13 38.84 111.49 29.67Z" fill="#EB8F00" style="fill:#EB8F00;fill:color(display-p3 0.9216 0.5608 0.0000);fill-opacity:1;"/>
<path d="M111.49 29.67C116.82 38.27 119.6 48.51 119.6 59.9C119.6 76.8 113.5 91.1 102 101.3C91.3999 110.6 76.9999 115.8 61.5999 115.8C43.5399 115.8 24.5999 108.45 13.4199 92.86C24.1799 110.52 44.4199 118.8 63.5999 118.8C78.9999 118.8 93.3999 113.6 104 104.3C115.5 94.1 121.6 79.8 121.6 62.9C121.6 50.16 118.13 38.84 111.49 29.67Z" fill="#4A2F27" style="fill:#4A2F27;fill:color(display-p3 0.2902 0.1843 0.1529);fill-opacity:1;"/>
<path d="M64 79.4C74.8 79.4 82.4 85 84.7 88.5C85.58 89.61 85.77 91.11 85.2 92.4C84.76 93.21 83.92 93.71 83 93.7C82.66 93.68 82.32 93.61 82 93.5C76.15 91.83 70.09 90.99 64 91C57.94 90.96 51.9 91.84 46.1 93.6C45.78 93.71 45.44 93.78 45.1 93.8C44.18 93.83 43.32 93.33 42.9 92.5C42.32 91.21 42.52 89.7 43.4 88.6C45.6 85 53.3 79.4 64 79.4Z" fill="#422B0D" style="fill:#422B0D;fill:color(display-p3 0.2588 0.1686 0.0510);fill-opacity:1;"/>
<path d="M64 79.4C74.8 79.4 82.4 85 84.7 88.5C85.58 89.61 85.77 91.11 85.2 92.4C84.76 93.21 83.92 93.71 83 93.7C82.66 93.68 82.32 93.61 82 93.5C76.15 91.83 70.09 90.99 64 91C57.94 90.96 51.9 91.84 46.1 93.6C45.78 93.71 45.44 93.78 45.1 93.8C44.18 93.83 43.32 93.33 42.9 92.5C42.32 91.21 42.52 89.7 43.4 88.6C45.6 85 53.3 79.4 64 79.4Z" fill="#1A1717" style="fill:#1A1717;fill:color(display-p3 0.1020 0.0902 0.0902);fill-opacity:1;"/>
<path d="M37 104.5C30.5 104.5 25.5 98.2 25.5 92.8C25.5 89 27.2 84.6 29.6 78.5C29.9 77.6 30.3 76.7 30.7 75.7C32.1 72.08 33.7 68.54 35.5 65.1C35.86 64.41 36.68 64.11 37.4 64.4C37.7 64.55 37.95 64.8 38.1 65.1C39.6 68.2 41.3 72 43 75.9C47.2 85.3 48.4 89.1 48.4 92.9C48.5 98.2 43.4 104.5 37 104.5Z" fill="url(#paint3_radial_169_9522)" style=""/>
<path d="M44 97.29C42.53 99.56 39.2 99.13 39.2 95.36C39.2 92.95 39.6899 80.57 41.7599 82.3C45.1599 85.12 46.12 94.08 44 97.29Z" fill="#81D4FA" style="fill:#81D4FA;fill:color(display-p3 0.5059 0.8314 0.9804);fill-opacity:1;"/>
<path d="M30 46.7C28.75 48.55 25.78 47.36 26.65 45.12C28.7 40.25 32.53 36.35 37.37 34.23C39.14 33.39 41.05 32.86 43 32.65C43.99 32.45 44.96 33.09 45.16 34.08C45.36 35.07 44.72 36.04 43.72 36.24H43.59C38.01 38.09 33.22 41.78 30 46.7Z" fill="#1A1717" style="fill:#1A1717;fill:color(display-p3 0.1020 0.0902 0.0902);fill-opacity:1;"/>
<path d="M30 46.7C28.75 48.55 25.78 47.36 26.65 45.12C28.7 40.25 32.53 36.35 37.37 34.23C39.14 33.39 41.05 32.86 43 32.65C43.99 32.45 44.96 33.09 45.16 34.08C45.36 35.07 44.72 36.04 43.72 36.24H43.59C38.01 38.09 33.22 41.78 30 46.7Z" fill="#1A1717" style="fill:#1A1717;fill:color(display-p3 0.1020 0.0902 0.0902);fill-opacity:1;"/>
<path d="M97.29 46.7C98.54 48.55 101.51 47.36 100.64 45.12C98.58 40.24 94.73 36.34 89.87 34.23C88.1 33.39 86.21 32.86 84.26 32.65C83.27 32.45 82.3 33.09 82.11 34.08C81.91 35.07 82.55 36.04 83.54 36.24H83.6699C89.2599 38.08 94.07 41.77 97.29 46.7Z" fill="#1A1717" style="fill:#1A1717;fill:color(display-p3 0.1020 0.0902 0.0902);fill-opacity:1;"/>
<path d="M97.29 46.7C98.54 48.55 101.51 47.36 100.64 45.12C98.58 40.24 94.73 36.34 89.87 34.23C88.1 33.39 86.21 32.86 84.26 32.65C83.27 32.45 82.3 33.09 82.11 34.08C81.91 35.07 82.55 36.04 83.54 36.24H83.6699C89.2599 38.08 94.07 41.77 97.29 46.7Z" fill="#1A1717" style="fill:#1A1717;fill:color(display-p3 0.1020 0.0902 0.0902);fill-opacity:1;"/>
<path d="M44.67 46.94C40.48 46.94 36.67 50.48 36.67 56.36C36.67 62.24 40.48 65.77 44.67 65.77C48.86 65.77 52.67 62.23 52.67 56.36C52.67 50.49 48.86 46.94 44.67 46.94Z" fill="#1A1717" style="fill:#1A1717;fill:color(display-p3 0.1020 0.0902 0.0902);fill-opacity:1;"/>
<path d="M44.28 50.87C42.86 50.19 41.15 50.79 40.46 52.21C39.93 53.32 40.17 54.65 41.06 55.51C42.48 56.19 44.19 55.59 44.88 54.17C45.41 53.06 45.17 51.73 44.28 50.87Z" fill="#555050" style="fill:#555050;fill:color(display-p3 0.3333 0.3125 0.3125);fill-opacity:1;"/>
<path d="M83 46.94C78.81 46.94 75 50.48 75 56.36C75 62.24 78.81 65.77 83 65.77C87.19 65.77 91 62.23 91 56.36C91 50.49 87.21 46.94 83 46.94Z" fill="#1A1717" style="fill:#1A1717;fill:color(display-p3 0.1020 0.0902 0.0902);fill-opacity:1;"/>
<path d="M82.63 50.87C81.21 50.19 79.5 50.79 78.81 52.21C78.28 53.32 78.52 54.65 79.41 55.51C80.83 56.19 82.54 55.59 83.23 54.17C83.76 53.06 83.52 51.73 82.63 50.87Z" fill="#555050" style="fill:#555050;fill:color(display-p3 0.3333 0.3125 0.3125);fill-opacity:1;"/>
<defs>
<radialGradient id="paint0_radial_169_9522" cx="0" cy="0" r="1" gradientUnits="userSpaceOnUse" gradientTransform="translate(63.6 62.9) scale(56.9597 56.9597)">
<stop offset="0.5" stop-color="#FDE030" style="stop-color:#FDE030;stop-color:color(display-p3 0.9922 0.8784 0.1882);stop-opacity:1;"/>
<stop offset="0.92" stop-color="#F7C02B" style="stop-color:#F7C02B;stop-color:color(display-p3 0.9686 0.7529 0.1686);stop-opacity:1;"/>
<stop offset="1" stop-color="#F4A223" style="stop-color:#F4A223;stop-color:color(display-p3 0.9569 0.6353 0.1373);stop-opacity:1;"/>
</radialGradient>
<radialGradient id="paint1_radial_169_9522" cx="0" cy="0" r="1" gradientUnits="userSpaceOnUse" gradientTransform="translate(38.599 34.5377) rotate(-43.2082) scale(102.024 101.825)">
<stop offset="0.3533" stop-color="#F9DDBD" style="stop-color:#F9DDBD;stop-color:color(display-p3 0.9765 0.8667 0.7412);stop-opacity:1;"/>
<stop offset="0.8723" stop-color="#FFD29C" style="stop-color:#FFD29C;stop-color:color(display-p3 1.0000 0.8235 0.6118);stop-opacity:1;"/>
</radialGradient>
<radialGradient id="paint2_radial_169_9522" cx="0" cy="0" r="1" gradientUnits="userSpaceOnUse" gradientTransform="translate(38.599 34.5377) rotate(-43.2082) scale(102.024 101.825)">
<stop offset="0.3533" stop-color="#70534A" style="stop-color:#70534A;stop-color:color(display-p3 0.4392 0.3255 0.2902);stop-opacity:1;"/>
<stop offset="0.8723" stop-color="#5C4037" style="stop-color:#5C4037;stop-color:color(display-p3 0.3608 0.2510 0.2157);stop-opacity:1;"/>
</radialGradient>
<radialGradient id="paint3_radial_169_9522" cx="0" cy="0" r="1" gradientUnits="userSpaceOnUse" gradientTransform="translate(37.82 69.3931) scale(26.42 40.6868)">
<stop offset="0.46" stop-color="#29B6F6" style="stop-color:#29B6F6;stop-color:color(display-p3 0.1608 0.7137 0.9647);stop-opacity:1;"/>
<stop offset="1" stop-color="#1E88E5" style="stop-color:#1E88E5;stop-color:color(display-p3 0.1176 0.5333 0.8980);stop-opacity:1;"/>
</radialGradient>
</defs>
</svg>
