<svg width="128" height="128" viewBox="0 0 128 128" fill="none" xmlns="http://www.w3.org/2000/svg">
<path d="M63.6 118.8C35.7 118.8 5.59998 101.3 5.59998 62.9C5.59998 24.5 35.7 7 63.6 7C79.1 7 93.4 12.1 104 21.4C115.5 31.6 121.6 46 121.6 62.9C121.6 79.8 115.5 94.1 104 104.3C93.4 113.6 79 118.8 63.6 118.8Z" fill="url(#paint0_radial_169_10724)" style=""/>
<path d="M63.6 118.8C35.7 118.8 5.59998 101.3 5.59998 62.9C5.59998 24.5 35.7 7 63.6 7C79.1 7 93.4 12.1 104 21.4C115.5 31.6 121.6 46 121.6 62.9C121.6 79.8 115.5 94.1 104 104.3C93.4 113.6 79 118.8 63.6 118.8Z" fill="url(#paint1_radial_169_10724)" style=""/>
<path d="M63.6 118.8C35.7 118.8 5.59998 101.3 5.59998 62.9C5.59998 24.5 35.7 7 63.6 7C79.1 7 93.4 12.1 104 21.4C115.5 31.6 121.6 46 121.6 62.9C121.6 79.8 115.5 94.1 104 104.3C93.4 113.6 79 118.8 63.6 118.8Z" fill="url(#paint2_radial_169_10724)" style=""/>
<path d="M63.6 118.8C35.7 118.8 5.59998 101.3 5.59998 62.9C5.59998 24.5 35.7 7 63.6 7C79.1 7 93.4 12.1 104 21.4C115.5 31.6 121.6 46 121.6 62.9C121.6 79.8 115.5 94.1 104 104.3C93.4 113.6 79 118.8 63.6 118.8Z" fill="url(#paint3_radial_169_10724)" style=""/>
<path d="M111.49 29.67C116.82 38.27 119.6 48.51 119.6 59.9C119.6 76.8 113.5 91.1 102 101.3C91.3999 110.6 76.9999 115.8 61.5999 115.8C43.5399 115.8 24.5999 108.45 13.4199 92.86C24.1799 110.52 44.4199 118.8 63.5999 118.8C78.9999 118.8 93.3999 113.6 104 104.3C115.5 94.1 121.6 79.8 121.6 62.9C121.6 50.16 118.13 38.84 111.49 29.67Z" fill="#EB8F00" style="fill:#EB8F00;fill:color(display-p3 0.9216 0.5608 0.0000);fill-opacity:1;"/>
<path d="M111.49 29.67C116.82 38.27 119.6 48.51 119.6 59.9C119.6 76.8 113.5 91.1 102 101.3C91.3999 110.6 76.9999 115.8 61.5999 115.8C43.5399 115.8 24.5999 108.45 13.4199 92.86C24.1799 110.52 44.4199 118.8 63.5999 118.8C78.9999 118.8 93.3999 113.6 104 104.3C115.5 94.1 121.6 79.8 121.6 62.9C121.6 50.16 118.13 38.84 111.49 29.67Z" fill="#F3B872" style="fill:#F3B872;fill:color(display-p3 0.9542 0.7229 0.4453);fill-opacity:1;"/>
<path d="M111.49 29.67C116.82 38.27 119.6 48.51 119.6 59.9C119.6 76.8 113.5 91.1 102 101.3C91.3999 110.6 76.9999 115.8 61.5999 115.8C43.5399 115.8 24.5999 108.45 13.4199 92.86C24.1799 110.52 44.4199 118.8 63.5999 118.8C78.9999 118.8 93.3999 113.6 104 104.3C115.5 94.1 121.6 79.8 121.6 62.9C121.6 50.16 118.13 38.84 111.49 29.67Z" fill="#4A2F27" style="fill:#4A2F27;fill:color(display-p3 0.2902 0.1843 0.1529);fill-opacity:1;"/>
<path d="M31.53 60.38L43.7 58L31.15 52.82L30.73 52.59C28.69 51.5 27.91 48.97 29 46.92C29.24 46.43 29.58 46 30 45.65C32 44.11 34.75 43.99 36.88 45.35L58.15 58.35C58.67 58.54 58.93 59.11 58.74 59.63C58.6101 59.98 58.3 60.23 57.93 60.28L35 68.93C34.84 68.96 34.67 69.01 34.52 69.08C31.52 69.92 28.19 68.2 27.73 65.3C27.4 63.1 29.1 61.05 31.53 60.38Z" fill="#42312C" style="fill:#42312C;fill:color(display-p3 0.2588 0.1922 0.1725);fill-opacity:1;"/>
<path d="M31.53 60.38L43.7 58L31.15 52.82L30.73 52.59C28.69 51.5 27.91 48.97 29 46.92C29.24 46.43 29.58 46 30 45.65C32 44.11 34.75 43.99 36.88 45.35L58.15 58.35C58.67 58.54 58.93 59.11 58.74 59.63C58.6101 59.98 58.3 60.23 57.93 60.28L35 68.93C34.84 68.96 34.67 69.01 34.52 69.08C31.52 69.92 28.19 68.2 27.73 65.3C27.4 63.1 29.1 61.05 31.53 60.38Z" fill="#42312C" style="fill:#42312C;fill:color(display-p3 0.2588 0.1922 0.1725);fill-opacity:1;"/>
<path d="M96.47 60.13L84.3 57.78L96.85 52.57L97.27 52.34C99.31 51.25 100.09 48.72 99 46.67C98.76 46.18 98.42 45.75 98 45.4C96 43.86 93.25 43.74 91.12 45.1L69.85 58.1C69.33 58.29 69.07 58.86 69.26 59.38C69.39 59.73 69.7 59.98 70.07 60.03L93 68.68C93.16 68.71 93.33 68.76 93.48 68.83C96.48 69.67 99.81 67.95 100.27 65.05C100.6 62.85 98.9 60.8 96.47 60.13Z" fill="#42312C" style="fill:#42312C;fill:color(display-p3 0.2588 0.1922 0.1725);fill-opacity:1;"/>
<path d="M96.47 60.13L84.3 57.78L96.85 52.57L97.27 52.34C99.31 51.25 100.09 48.72 99 46.67C98.76 46.18 98.42 45.75 98 45.4C96 43.86 93.25 43.74 91.12 45.1L69.85 58.1C69.33 58.29 69.07 58.86 69.26 59.38C69.39 59.73 69.7 59.98 70.07 60.03L93 68.68C93.16 68.71 93.33 68.76 93.48 68.83C96.48 69.67 99.81 67.95 100.27 65.05C100.6 62.85 98.9 60.8 96.47 60.13Z" fill="#42312C" style="fill:#42312C;fill:color(display-p3 0.2588 0.1922 0.1725);fill-opacity:1;"/>
<path d="M62.82 80.43C51.32 80.49 39.84 79.53 28.51 77.54C26.61 77.18 24.77 78.43 24.41 80.33C24.32 80.77 24.32 81.23 24.41 81.67C27.67 97.67 43.41 110.8 62.81 110.8C84.02 110.8 98.29 97.23 101.26 81.61C101.6 79.7 100.34 77.88 98.43 77.53C98.01 77.46 97.57 77.46 97.15 77.53C85.82 79.52 74.33 80.49 62.82 80.43Z" fill="#42312C" style="fill:#42312C;fill:color(display-p3 0.2588 0.1922 0.1725);fill-opacity:1;"/>
<path d="M62.82 80.43C51.32 80.49 39.84 79.53 28.51 77.54C26.61 77.18 24.77 78.43 24.41 80.33C24.32 80.77 24.32 81.23 24.41 81.67C27.67 97.67 43.41 110.8 62.81 110.8C84.02 110.8 98.29 97.23 101.26 81.61C101.6 79.7 100.34 77.88 98.43 77.53C98.01 77.46 97.57 77.46 97.15 77.53C85.82 79.52 74.33 80.49 62.82 80.43Z" fill="#42312C" style="fill:#42312C;fill:color(display-p3 0.2588 0.1922 0.1725);fill-opacity:1;"/>
<path d="M62.82 80.43C51.32 80.49 39.84 79.53 28.51 77.54C26.61 77.18 24.77 78.43 24.41 80.33C24.32 80.77 24.32 81.23 24.41 81.67C27.67 97.67 43.41 110.8 62.81 110.8C84.02 110.8 98.29 97.23 101.26 81.61C101.6 79.7 100.34 77.88 98.43 77.53C98.01 77.46 97.57 77.46 97.15 77.53C85.82 79.52 74.33 80.49 62.82 80.43Z" fill="#42312C" style="fill:#42312C;fill:color(display-p3 0.2588 0.1922 0.1725);fill-opacity:1;"/>
<path d="M44.74 87.83V108.83C44.75 118.31 52.43 125.99 61.91 126H65.18C74.66 126 82.35 118.31 82.35 108.83V87.61C63.54 91.31 49.48 88.9 44.74 87.83Z" fill="#FF4081" style="fill:#FF4081;fill:color(display-p3 1.0000 0.2510 0.5059);fill-opacity:1;"/>
<path d="M65.54 85H61.54C55.81 85 50.16 84.73 44.73 84.28V87.83C49.47 88.9 63.53 91.31 82.34 87.61V84.15C76.93 84.64 71.29 84.93 65.54 85Z" fill="#FF4081" style="fill:#FF4081;fill:color(display-p3 1.0000 0.2510 0.5059);fill-opacity:1;"/>
<path opacity="0.3" d="M65.54 85H61.54C55.81 85 50.16 84.73 44.73 84.28V87.83C49.47 88.9 63.53 91.31 82.34 87.61V84.15C76.93 84.64 71.29 84.93 65.54 85Z" fill="#AB3F2E" style="fill:#AB3F2E;fill:color(display-p3 0.6706 0.2471 0.1804);fill-opacity:1;"/>
<path opacity="0.3" d="M63.55 106.25C64.65 106.25 65.55 105.35 65.55 104.25V85H61.55V104.24C61.55 105.34 62.45 106.24 63.55 106.24V106.25Z" fill="#AB3F2E" style="fill:#AB3F2E;fill:color(display-p3 0.6706 0.2471 0.1804);fill-opacity:1;"/>
<defs>
<radialGradient id="paint0_radial_169_10724" cx="0" cy="0" r="1" gradientUnits="userSpaceOnUse" gradientTransform="translate(63.6 62.9) scale(56.9597 56.9597)">
<stop offset="0.5" stop-color="#FDE030" style="stop-color:#FDE030;stop-color:color(display-p3 0.9922 0.8784 0.1882);stop-opacity:1;"/>
<stop offset="0.92" stop-color="#F7C02B" style="stop-color:#F7C02B;stop-color:color(display-p3 0.9686 0.7529 0.1686);stop-opacity:1;"/>
<stop offset="1" stop-color="#F4A223" style="stop-color:#F4A223;stop-color:color(display-p3 0.9569 0.6353 0.1373);stop-opacity:1;"/>
</radialGradient>
<radialGradient id="paint1_radial_169_10724" cx="0" cy="0" r="1" gradientUnits="userSpaceOnUse" gradientTransform="translate(38.599 34.5377) rotate(-43.2082) scale(102.024 101.825)">
<stop offset="0.3533" stop-color="#F9DDBD" style="stop-color:#F9DDBD;stop-color:color(display-p3 0.9765 0.8667 0.7412);stop-opacity:1;"/>
<stop offset="0.8723" stop-color="#FFD29C" style="stop-color:#FFD29C;stop-color:color(display-p3 1.0000 0.8235 0.6118);stop-opacity:1;"/>
</radialGradient>
<radialGradient id="paint2_radial_169_10724" cx="0" cy="0" r="1" gradientUnits="userSpaceOnUse" gradientTransform="translate(38.599 34.5377) rotate(-43.2082) scale(102.024 101.825)">
<stop offset="0.3533" stop-color="#70534A" style="stop-color:#70534A;stop-color:color(display-p3 0.4392 0.3255 0.2902);stop-opacity:1;"/>
<stop offset="0.8723" stop-color="#5C4037" style="stop-color:#5C4037;stop-color:color(display-p3 0.3608 0.2510 0.2157);stop-opacity:1;"/>
</radialGradient>
<radialGradient id="paint3_radial_169_10724" cx="0" cy="0" r="1" gradientUnits="userSpaceOnUse" gradientTransform="translate(38.599 34.5377) rotate(-43.2082) scale(102.024 101.825)">
<stop offset="0.3533" stop-color="#A56C43" style="stop-color:#A56C43;stop-color:color(display-p3 0.6471 0.4235 0.2627);stop-opacity:1;"/>
<stop offset="0.8723" stop-color="#8D5738" style="stop-color:#8D5738;stop-color:color(display-p3 0.5529 0.3412 0.2196);stop-opacity:1;"/>
</radialGradient>
</defs>
</svg>
