<svg width="128" height="128" viewBox="0 0 128 128" fill="none" xmlns="http://www.w3.org/2000/svg">
<path d="M80.2902 80.98L78.6602 78.64C77.5602 77.05 74.6802 76.36 74.6802 76.36L68.8302 80.42L64.7702 85.82C63.8402 87.21 63.8502 89.02 64.8002 90.39L65.5302 91.45C65.7302 91.74 66.0502 91.89 66.3702 91.89C66.5702 91.89 66.7702 91.83 66.9502 91.71L80.0002 82.61C80.5302 82.24 80.6502 81.51 80.2902 80.98Z" fill="#4568AD" style="fill:#4568AD;fill:color(display-p3 0.2706 0.4078 0.6784);fill-opacity:1;"/>
<path d="M51.6902 10.35C48.4502 6.98001 42.3602 5.11001 37.9902 6.79001C33.1002 8.67001 31.1402 12.86 31.3902 17.6C31.4802 19.32 31.8802 20.97 32.4202 22.09C32.4802 22.22 32.9802 23.19 33.0702 23.51C33.5202 24.71 31.3702 26.44 31.3702 27.87C31.3702 28.94 33.6802 29.15 33.8802 29.3C34.9202 30.05 34.5102 34.69 40.5402 33.92C42.5702 33.66 42.6702 33.45 43.4002 33.41C45.3002 33.29 50.6602 35.04 50.6602 35.04L52.7802 30.6C52.7802 30.6 51.0402 29.8 52.7402 24.43C54.0402 20.31 53.7602 12.51 51.6902 10.35Z" fill="#E0BB95" style="fill:#E0BB95;fill:color(display-p3 0.8784 0.7333 0.5843);fill-opacity:1;"/>
<path d="M35.01 31.63C35.84 31.51 36.62 31.15 37.2 30.49C37.84 29.77 37.19 29.26 36.4 29.8C35.92 30.13 35.2 30.4 34.5 30.41L35.01 31.63Z" fill="#6D4C41" style="fill:#6D4C41;fill:color(display-p3 0.4275 0.2980 0.2549);fill-opacity:1;"/>
<path d="M37.2872 25.0711C37.8821 24.9233 38.182 24.0692 37.957 23.1634C37.732 22.2575 37.0672 21.643 36.4723 21.7909C35.8773 21.9387 35.5774 22.7928 35.8025 23.6986C36.0275 24.6044 36.6922 25.2189 37.2872 25.0711Z" fill="#5D4037" style="fill:#5D4037;fill:color(display-p3 0.3647 0.2510 0.2157);fill-opacity:1;"/>
<path d="M35.65 21.34C34.72 21.98 34.26 21.39 34.42 20.73C34.54 20.25 35.05 19.71 36.33 19.54C37.53 19.39 38.22 19.88 38.65 20.17C39.09 20.46 39.18 20.87 38.93 20.99C38.6 21.16 36.81 20.55 35.65 21.34Z" fill="#AB872F" style="fill:#AB872F;fill:color(display-p3 0.6706 0.5294 0.1843);fill-opacity:1;"/>
<path d="M53.1301 12.16C52.7001 11.58 52.2301 11.04 51.6901 10.56C50.9301 9.87998 50.0501 9.34998 49.1301 8.91998C46.6901 7.78998 43.8901 7.41997 41.2501 7.95997C38.6101 8.49997 36.1701 9.97997 34.5201 12.11C33.2501 13.76 32.4701 16.02 33.2701 17.94C34.2601 17.65 34.9901 16.79 36.0701 16.57C37.4701 16.27 39.0001 16.25 40.1901 15.46C40.6501 15.16 41.0401 14.75 41.4701 14.41C41.5801 14.38 41.6501 14.37 41.6501 14.37C43.5601 14.92 42.1501 19.4 44.5601 21.35C45.0401 21.74 45.6001 22.06 45.6001 22.06C45.6001 22.06 45.1901 18.9 47.2101 18.87C49.3101 18.84 49.4801 20.99 48.8801 22.82C48.2601 24.72 47.1901 24.05 47.5701 24.68C48.1901 25.71 51.3801 26.01 52.3801 25.8C53.7201 25.53 54.5801 24.07 55.3801 22.96C56.3101 21.68 56.2301 20.16 56.0901 18.58C55.9301 16.84 55.1001 15.23 54.1801 13.74C53.8501 13.19 53.5101 12.66 53.1301 12.16Z" fill="#AB872F" style="fill:#AB872F;fill:color(display-p3 0.6706 0.5294 0.1843);fill-opacity:1;"/>
<path d="M83.57 49.6199L77.36 37.95L53.31 51.86V51.8699C50.57 53.3199 49.54 56.7199 50.99 59.4599C51.14 59.75 51.32 60.0099 51.52 60.2599L51.56 60.31C51.61 60.37 51.66 60.43 51.71 60.5L68.57 80.7699L75.65 75.5599L64.27 59.0099L83.57 49.6199Z" fill="#BA8F63" style="fill:#BA8F63;fill:color(display-p3 0.7294 0.5608 0.3882);fill-opacity:1;"/>
<path d="M87.5102 40.02C86.1102 37.38 83.3802 35.86 80.5702 35.86C79.3202 35.86 78.0602 36.16 76.8802 36.78V36.77L59.9102 46.63L66.9502 59.87L84.2602 50.66C88.1102 48.62 89.5602 43.86 87.5102 40.02Z" fill="#646464" style="fill:#646464;fill:color(display-p3 0.3922 0.3922 0.3922);fill-opacity:1;"/>
<path d="M71.3099 69.26L63.6699 74.88L68.5699 80.77L75.6399 75.56L71.3099 69.26Z" fill="#E0E0E0" style="fill:#E0E0E0;fill:color(display-p3 0.8784 0.8784 0.8784);fill-opacity:1;"/>
<path d="M97.5299 76.41C84.6599 76.41 74.1899 86.88 74.1899 99.74C74.1899 112.61 84.6599 123.07 97.5299 123.07C110.39 123.07 120.86 112.6 120.86 99.74C120.86 86.87 110.39 76.41 97.5299 76.41ZM97.5299 114.74C89.2699 114.74 82.5199 108.01 82.5199 99.74C82.5199 91.47 89.2599 84.74 97.5299 84.74C105.8 84.74 112.53 91.47 112.53 99.74C112.53 108.01 105.79 114.74 97.5299 114.74Z" fill="#484D50" style="fill:#484D50;fill:color(display-p3 0.2824 0.3020 0.3137);fill-opacity:1;"/>
<path d="M30.4899 76.41C17.6199 76.41 7.1499 86.88 7.1499 99.74C7.1499 112.61 17.6199 123.07 30.4899 123.07C43.3499 123.07 53.8199 112.6 53.8199 99.74C53.8099 86.87 43.3499 76.41 30.4899 76.41ZM30.4899 114.74C22.2299 114.74 15.4799 108.01 15.4799 99.74C15.4799 91.47 22.2199 84.74 30.4899 84.74C38.7599 84.74 45.4899 91.47 45.4899 99.74C45.4899 108.01 38.7599 114.74 30.4899 114.74Z" fill="#484D50" style="fill:#484D50;fill:color(display-p3 0.2824 0.3020 0.3137);fill-opacity:1;"/>
<path d="M99.9201 98.07C99.8301 97.83 99.7101 97.61 99.5501 97.4L90.3801 85.06L80.2001 71.32L83.9401 63.19C84.0201 63.02 84.0801 62.84 84.1201 62.66C84.1601 62.48 84.1901 62.3 84.1901 62.12C84.2001 61.94 84.1801 61.76 84.1501 61.59C84.0901 61.24 83.9701 60.91 83.7801 60.61C83.5001 60.16 83.1001 59.78 82.5801 59.55C82.4001 59.47 82.2201 59.41 82.0301 59.37C81.9601 59.36 81.9001 59.35 81.8301 59.34C81.7101 59.32 81.5901 59.3 81.4701 59.3C81.4601 59.3 81.4501 59.3 81.4301 59.3C81.4001 59.3 81.3701 59.31 81.3501 59.31C81.1501 59.32 80.9501 59.34 80.7601 59.39C80.7101 59.4 80.6601 59.41 80.6101 59.43C80.3901 59.5 80.1801 59.59 79.9801 59.71C79.9701 59.72 79.9501 59.73 79.9401 59.74C79.7601 59.86 79.6001 60 79.4501 60.15C79.4101 60.19 79.3701 60.24 79.3301 60.28C79.1801 60.46 79.0401 60.66 78.9401 60.88L78.9201 60.92L75.3101 68.77L43.3401 64.15L44.4101 60.1C44.8001 58.64 43.9201 57.14 42.4501 56.75C42.4401 56.75 42.4201 56.75 42.4101 56.74C42.1901 56.68 41.9701 56.65 41.7501 56.65C40.5401 56.65 39.4301 57.46 39.1001 58.69L36.8401 67.24L28.3401 99.41C27.9601 100.87 28.8301 102.37 30.2901 102.76C30.5301 102.82 30.7601 102.85 31.0001 102.85C31.0001 102.85 31.0001 102.85 31.0101 102.85C32.2201 102.85 33.3301 102.04 33.6601 100.81L41.2801 71.95L62.2201 100.64C62.2701 100.71 62.3401 100.77 62.4001 100.83C62.4601 100.89 62.5101 100.95 62.5701 101.01C62.6301 101.07 62.6901 101.12 62.7601 101.17L62.7801 101.19C62.7901 101.2 62.8101 101.21 62.8201 101.22C62.8801 101.27 62.9401 101.31 63.0101 101.35C63.0401 101.37 63.0601 101.39 63.0901 101.4C63.1201 101.41 63.1501 101.43 63.1801 101.45C63.1901 101.45 63.2001 101.46 63.2101 101.47C63.2301 101.48 63.2501 101.49 63.2701 101.5C63.3001 101.51 63.3201 101.52 63.3501 101.53C63.3801 101.54 63.4201 101.56 63.4501 101.57C63.5201 101.6 63.6001 101.63 63.6701 101.65C63.7201 101.67 63.7701 101.69 63.8301 101.7C64.0201 101.74 64.2301 101.77 64.4301 101.77H97.3501C98.3901 101.77 99.3401 101.19 99.8001 100.26C100.16 99.59 100.19 98.78 99.9201 98.07ZM46.8001 70.21L63.2701 72.59L72.9301 73.99L63.9001 93.64L46.8001 70.21ZM68.7201 96.29L77.5801 77.02L91.9001 96.29H68.7201Z" fill="url(#paint0_linear_1015_402)" style=""/>
<path d="M71.0498 99.4801C70.5798 98.4601 69.7198 97.7401 68.7998 97.5901C67.6198 97.3901 62.7398 98.9801 62.0198 99.3101C60.2698 100.09 58.1398 102.31 59.1098 104.62C59.7198 106.04 60.5898 106.47 61.5198 106.47C62.2998 106.47 63.1098 106.17 63.8498 105.9L64.4098 105.7C64.7798 105.57 65.2098 105.44 65.6598 105.31C67.6198 104.73 70.0598 104 71.0598 102.32C71.5098 101.54 71.5098 100.48 71.0498 99.4801Z" fill="#504F4F" style="fill:#504F4F;fill:color(display-p3 0.3137 0.3098 0.3098);fill-opacity:1;"/>
<path d="M43.1701 56.25L34.6301 54.2C34.4201 54.14 34.2001 54.12 33.9901 54.12C32.7501 54.12 31.6201 54.96 31.3201 56.22C30.9701 57.7 31.8701 59.18 33.3501 59.53L41.8901 61.58C42.1001 61.63 42.3101 61.66 42.5301 61.66C43.7701 61.66 44.8901 60.82 45.2001 59.56C45.5401 58.09 44.6301 56.61 43.1701 56.25Z" fill="#484D50" style="fill:#484D50;fill:color(display-p3 0.2824 0.3020 0.3137);fill-opacity:1;"/>
<path d="M88.4397 56.7699C88.3097 56.6699 88.1697 56.5699 88.0297 56.4899C86.8797 55.8399 85.5897 55.9899 84.2697 55.9299C82.6697 55.8499 81.0497 55.7799 79.4497 55.6799C78.5697 55.6199 77.6897 55.6099 76.8097 55.6099C75.7797 55.6099 74.7397 55.6299 73.7197 55.6299C72.9397 55.6299 72.1697 55.6199 71.3997 55.5799C71.3597 55.5699 71.2997 55.5699 71.2397 55.5699C69.7697 55.5699 68.3797 56.6799 67.8697 57.9999C67.1497 59.8699 68.4197 61.0499 70.0097 61.9099C71.9597 62.9699 74.1497 63.4699 76.2797 63.9899C78.5997 64.5499 80.9197 65.2899 83.2997 65.6099C83.5997 65.6499 83.8997 65.6699 84.2097 65.6699C86.2697 65.6699 88.3997 64.7599 89.5697 63.0499C90.9697 61.0099 90.3897 58.2899 88.4397 56.7699Z" fill="#504F4F" style="fill:#504F4F;fill:color(display-p3 0.3137 0.3098 0.3098);fill-opacity:1;"/>
<path d="M86.5401 46.67L75.3001 39.71L61.5301 63.85H61.5401C60.7801 65.08 60.5601 66.48 60.8001 67.8L63.5701 93.64L70.3601 93.55L71.8401 68.65L86.5401 46.67Z" fill="url(#paint1_linear_1015_402)" style=""/>
<path d="M62.6001 85.99L63.5801 93.63L70.3601 93.54L70.9601 85.9L62.6001 85.99Z" fill="#E0E0E0" style="fill:#E0E0E0;fill:color(display-p3 0.8784 0.8784 0.8784);fill-opacity:1;"/>
<path d="M85.1402 36.38C83.8502 35.59 82.4202 35.21 81.0102 35.21C78.3802 35.21 75.8002 36.53 74.3102 38.94L64.1802 56.35L76.9302 64.24C76.9302 64.24 86.4902 49.44 87.6902 47.21C89.6102 43.61 88.8302 38.67 85.1402 36.38Z" fill="#7C7C7C" style="fill:#7C7C7C;fill:color(display-p3 0.4863 0.4863 0.4863);fill-opacity:1;"/>
<path d="M74.1099 97.52L73.3399 94.77C72.8299 92.89 70.3399 91.28 70.3399 91.28L63.4799 93.18L57.8699 96.93C56.5399 97.93 55.9499 99.64 56.3799 101.26L56.7199 102.51C56.8399 102.96 57.2599 103.26 57.6999 103.26C57.7899 103.26 57.8799 103.25 57.9699 103.22L73.2999 98.96C73.9299 98.79 74.2899 98.14 74.1099 97.52Z" fill="#4568AD" style="fill:#4568AD;fill:color(display-p3 0.2706 0.4078 0.6784);fill-opacity:1;"/>
<path d="M61.0998 23.54C59.9198 23.29 58.7398 23.14 57.6298 23.14C55.1098 23.14 52.9998 23.92 52.0998 25.96C51.3698 27.58 50.6098 29.23 49.8198 30.88C48.4098 33.87 49.5598 38.46 53.0598 39.56C62.1498 42.45 61.8998 45.15 67.1798 47.6C68.7098 48.31 70.1598 48.62 71.5198 48.62C78.1798 48.62 82.8898 41.22 85.6698 36.5C79.5698 30.27 71.4298 25.81 61.0998 23.54Z" fill="url(#paint2_radial_1015_402)" style=""/>
<path d="M57.4602 31.31L49.6802 29.01L45.0502 46.23L36.7302 53.24C35.2902 52.75 33.3902 52.49 32.0402 52.49C32.0402 52.49 32.0402 52.49 32.0302 52.49C32.0202 52.49 32.0202 52.49 32.0102 52.49C31.8702 52.49 31.7402 52.49 31.6202 52.5C31.5602 52.5 31.5102 52.51 31.4602 52.51C31.3902 52.52 31.3202 52.52 31.2602 52.53C31.1902 52.54 31.1102 52.55 31.0502 52.56C31.0302 52.56 31.0102 52.57 30.9802 52.57C30.8002 52.6 30.6402 52.65 30.5402 52.71C30.1702 52.93 29.6002 53.43 29.0602 53.92C28.2302 54.69 27.8002 55.8 27.8902 56.93L27.9502 57.75C27.8802 58 28.2602 58.58 28.8302 58.92C28.8602 58.94 28.9002 58.96 28.9302 58.98C28.9602 59 29.0002 59.01 29.0402 59.03C29.4802 59.24 30.0102 59.29 30.5302 58.93C31.2102 58.48 30.4802 57.23 30.8002 56.7C31.1702 56.07 31.8102 55.43 31.8102 55.43C31.8102 55.43 33.7902 55.28 34.2202 55.59C34.9802 56.22 35.2002 56.78 34.7702 57.98C34.4602 58.84 33.7502 59.73 34.1102 60.02C34.2402 60.13 34.3702 60.22 34.4902 60.3C34.5002 60.31 34.5102 60.31 34.5202 60.32C34.6102 60.38 34.7002 60.44 34.7902 60.48C34.8402 60.51 34.9002 60.52 34.9502 60.55C34.9902 60.57 35.0302 60.58 35.0802 60.59C35.1602 60.61 35.2402 60.62 35.3202 60.62C35.3302 60.62 35.3402 60.62 35.3502 60.62H35.3602C35.8202 60.63 36.3202 60.34 37.0502 59.61C38.0802 58.57 39.0602 58.92 39.8502 58.13L49.7502 51.48L49.8702 51.4C50.0602 51.3 50.2502 51.18 50.4202 51.05L50.4602 51.03C51.0302 50.58 51.4502 49.96 51.6602 49.25H51.6702L57.4902 31.3L57.4602 31.31Z" fill="url(#paint3_linear_1015_402)" style=""/>
<path d="M32.9401 53.71C31.3701 53.71 30.1001 54.98 30.1001 56.55C30.1001 58.12 31.3701 59.39 32.9401 59.39C34.5101 59.39 35.7801 58.12 35.7801 56.55C35.7801 54.98 34.5101 53.71 32.9401 53.71Z" fill="url(#paint4_radial_1015_402)" style=""/>
<path d="M55.1202 26.23C54.6102 26.08 54.1002 26.01 53.6002 26.01C51.3002 26.01 49.1802 27.51 48.5002 29.82L45.9502 39.31L55.6802 42.19L58.7102 32.84C59.5302 30.02 57.9402 27.06 55.1202 26.23Z" fill="#04A287" style="fill:#04A287;fill:color(display-p3 0.0157 0.6353 0.5294);fill-opacity:1;"/>
<path d="M45.94 27.8C46.05 29.46 43.14 33.22 43.06 33.45C42.9 33.83 44.49 33.89 44.84 33.53C45.19 33.17 48.41 30 50.48 26.04C51.41 24.26 53.51 19.53 53.51 19.53L50.58 18.1C50.58 18.1 49.72 26.32 47.65 26.29C45.57 26.26 45.61 18.3 45.61 18.3L40.94 20.24C40.93 20.24 45.88 26.77 45.94 27.8Z" fill="url(#paint5_linear_1015_402)" style=""/>
<path d="M53.65 7.62999C51.05 5.18999 47.57 3.98999 44.07 3.98999C42.43 3.98999 40.77 4.24999 39.2 4.77999C37.76 5.25999 33.23 7.48999 31.29 11.35C30.48 12.97 29.84 14.74 29.68 16.54C29.59 17.52 29.58 19.27 30.37 20.13C30.72 20.51 31.14 20.63 31.54 20.63C31.75 20.63 31.96 20.6 32.16 20.56C33.21 20.33 35.86 19.21 36.65 19.13C36.76 19.12 36.86 19.12 36.97 19.12C38.63 19.12 39.86 20.31 40.19 20.55C40.86 21.03 41.53 21.41 42.31 21.41C42.98 21.41 43.74 21.14 44.67 20.42C45.88 19.49 46.15 18.77 47.23 18.58C47.35 18.56 47.49 18.54 47.63 18.54C48.36 18.54 49.36 18.92 50.53 20.74C51.52 22.28 52.67 22.93 53.65 22.93C54.22 22.93 54.73 22.72 55.12 22.34C56.6 20.92 59.51 13.07 53.65 7.62999Z" fill="url(#paint6_radial_1015_402)" style=""/>
<defs>
<linearGradient id="paint0_linear_1015_402" x1="34.6863" y1="79.7685" x2="99.0965" y2="79.7685" gradientUnits="userSpaceOnUse">
<stop stop-color="#D8EB21" style="stop-color:#D8EB21;stop-color:color(display-p3 0.8471 0.9216 0.1294);stop-opacity:1;"/>
<stop offset="0.4414" stop-color="#D6E921" style="stop-color:#D6E921;stop-color:color(display-p3 0.8392 0.9137 0.1294);stop-opacity:1;"/>
<stop offset="0.6058" stop-color="#B8C721" style="stop-color:#B8C721;stop-color:color(display-p3 0.7216 0.7804 0.1294);stop-opacity:1;"/>
<stop offset="0.8038" stop-color="#ADBA21" style="stop-color:#ADBA21;stop-color:color(display-p3 0.6784 0.7294 0.1294);stop-opacity:1;"/>
</linearGradient>
<linearGradient id="paint1_linear_1015_402" x1="102.033" y1="3.22026" x2="36.2046" y2="140.874" gradientUnits="userSpaceOnUse">
<stop offset="0.1952" stop-color="#CCA47A" style="stop-color:#CCA47A;stop-color:color(display-p3 0.8000 0.6431 0.4784);stop-opacity:1;"/>
<stop offset="0.6908" stop-color="#E0BB95" style="stop-color:#E0BB95;stop-color:color(display-p3 0.8784 0.7333 0.5843);stop-opacity:1;"/>
</linearGradient>
<radialGradient id="paint2_radial_1015_402" cx="0" cy="0" r="1" gradientUnits="userSpaceOnUse" gradientTransform="translate(67.4564 35.88) scale(15.7197)">
<stop offset="0.3637" stop-color="#00BFA5" style="stop-color:#00BFA5;stop-color:color(display-p3 0.0000 0.7490 0.6471);stop-opacity:1;"/>
<stop offset="0.8121" stop-color="#00B29A" style="stop-color:#00B29A;stop-color:color(display-p3 0.0000 0.6980 0.6039);stop-opacity:1;"/>
<stop offset="1" stop-color="#00AB94" style="stop-color:#00AB94;stop-color:color(display-p3 0.0000 0.6706 0.5804);stop-opacity:1;"/>
</radialGradient>
<linearGradient id="paint3_linear_1015_402" x1="27.896" y1="44.8245" x2="57.4882" y2="44.8245" gradientUnits="userSpaceOnUse">
<stop offset="0.5" stop-color="#E0BB95" style="stop-color:#E0BB95;stop-color:color(display-p3 0.8784 0.7333 0.5843);stop-opacity:1;"/>
<stop offset="1" stop-color="#CCA47A" style="stop-color:#CCA47A;stop-color:color(display-p3 0.8000 0.6431 0.4784);stop-opacity:1;"/>
</linearGradient>
<radialGradient id="paint4_radial_1015_402" cx="0" cy="0" r="1" gradientUnits="userSpaceOnUse" gradientTransform="translate(32.9451 56.55) scale(2.84)">
<stop stop-color="#78909C" style="stop-color:#78909C;stop-color:color(display-p3 0.4706 0.5647 0.6118);stop-opacity:1;"/>
<stop offset="0.5619" stop-color="#617A86" style="stop-color:#617A86;stop-color:color(display-p3 0.3804 0.4784 0.5255);stop-opacity:1;"/>
<stop offset="1" stop-color="#546E7A" style="stop-color:#546E7A;stop-color:color(display-p3 0.3294 0.4314 0.4784);stop-opacity:1;"/>
</radialGradient>
<linearGradient id="paint5_linear_1015_402" x1="46.9738" y1="22.7099" x2="46.2926" y2="30.5281" gradientUnits="userSpaceOnUse">
<stop stop-color="#646464" style="stop-color:#646464;stop-color:color(display-p3 0.3922 0.3922 0.3922);stop-opacity:1;"/>
<stop offset="0.9947" stop-color="#262626" style="stop-color:#262626;stop-color:color(display-p3 0.1490 0.1490 0.1490);stop-opacity:1;"/>
</linearGradient>
<radialGradient id="paint6_radial_1015_402" cx="0" cy="0" r="1" gradientUnits="userSpaceOnUse" gradientTransform="translate(38.9491 12.0868) scale(11.8136)">
<stop stop-color="#81D4FA" style="stop-color:#81D4FA;stop-color:color(display-p3 0.5059 0.8314 0.9804);stop-opacity:1;"/>
<stop offset="0.3601" stop-color="#5EB3E7" style="stop-color:#5EB3E7;stop-color:color(display-p3 0.3686 0.7020 0.9059);stop-opacity:1;"/>
<stop offset="0.7751" stop-color="#3C92D3" style="stop-color:#3C92D3;stop-color:color(display-p3 0.2353 0.5725 0.8275);stop-opacity:1;"/>
<stop offset="1" stop-color="#2F85CC" style="stop-color:#2F85CC;stop-color:color(display-p3 0.1843 0.5216 0.8000);stop-opacity:1;"/>
</radialGradient>
</defs>
</svg>
