<svg width="129" height="128" viewBox="0 0 129 128" fill="none" xmlns="http://www.w3.org/2000/svg">
<path d="M58.0883 109H27.5V19H58.7053C67.6673 19 75.3658 20.8018 81.8008 24.4053C88.2652 27.9795 93.231 33.1211 96.6982 39.8301C100.166 46.5391 101.899 54.5664 101.899 63.9121C101.899 73.2871 100.151 81.3438 96.6542 88.082C93.1869 94.8203 88.177 99.9912 81.6245 103.595C75.1014 107.198 67.2559 109 58.0883 109ZM43.852 94.8935H57.2949C63.583 94.8935 68.8279 93.751 73.0298 91.4658C77.2316 89.1514 80.3904 85.709 82.506 81.1387C84.6216 76.5391 85.6794 70.7969 85.6794 63.9121C85.6794 57.0273 84.6216 51.3145 82.506 46.7734C80.3904 42.2031 77.261 38.79 73.1179 36.5342C69.0042 34.249 63.8915 33.1064 57.7798 33.1064H43.852V94.8935Z" fill="#DFE6EB" style="fill:#DFE6EB;fill:color(display-p3 0.8745 0.9020 0.9216);fill-opacity:1;"/>
<path d="M58.0883 109H27.5V19H58.7053C67.6673 19 75.3658 20.8018 81.8008 24.4053C88.2652 27.9795 93.231 33.1211 96.6982 39.8301C100.166 46.5391 101.899 54.5664 101.899 63.9121C101.899 73.2871 100.151 81.3438 96.6542 88.082C93.1869 94.8203 88.177 99.9912 81.6245 103.595C75.1014 107.198 67.2559 109 58.0883 109ZM43.852 94.8935H57.2949C63.583 94.8935 68.8279 93.751 73.0298 91.4658C77.2316 89.1514 80.3904 85.709 82.506 81.1387C84.6216 76.5391 85.6794 70.7969 85.6794 63.9121C85.6794 57.0273 84.6216 51.3145 82.506 46.7734C80.3904 42.2031 77.261 38.79 73.1179 36.5342C69.0042 34.249 63.8915 33.1064 57.7798 33.1064H43.852V94.8935Z" fill="#8CAFBF" style="fill:#8CAFBF;fill:color(display-p3 0.5490 0.6863 0.7490);fill-opacity:1;"/>
<path fill-rule="evenodd" clip-rule="evenodd" d="M24.5 112V16H58.7053C68.0676 16 76.2912 17.8835 83.2595 21.7838C90.2516 25.6515 95.6316 31.2319 99.3634 38.4527C103.097 45.6768 104.899 54.199 104.899 63.9121C104.899 73.6554 103.082 82.2072 99.3187 89.4604C95.5826 96.7188 90.1523 102.328 83.0718 106.223C76.014 110.121 67.6463 112 58.0883 112H24.5ZM81.6245 103.595C88.177 99.9912 93.1869 94.8203 96.6542 88.082C100.151 81.3438 101.899 73.2871 101.899 63.9121C101.899 54.5664 100.166 46.5391 96.6982 39.8301C93.231 33.1211 88.2652 27.9795 81.8008 24.4053C75.3658 20.8018 67.6673 19 58.7053 19H27.5V109H58.0883C67.2559 109 75.1014 107.198 81.6245 103.595ZM79.7867 48.0404L79.7835 48.0337C77.9191 44.0059 75.2214 41.0954 71.6833 39.1689L71.6722 39.1629L71.6611 39.1567C68.1068 37.1823 63.5298 36.1064 57.7798 36.1064H46.852V91.8935H57.2949C63.2307 91.8935 67.9451 90.8142 71.5893 88.8343C75.198 86.8447 77.9221 83.8983 79.7823 79.8812C81.6632 75.79 82.6794 70.5091 82.6794 63.9121C82.6794 57.3108 81.6618 52.0652 79.7867 48.0404ZM82.506 81.1387C80.3904 85.709 77.2316 89.1514 73.0298 91.4658C68.8279 93.751 63.583 94.8935 57.2949 94.8935H43.852V33.1064H57.7798C63.8915 33.1064 69.0042 34.249 73.1179 36.5342C77.261 38.79 80.3904 42.2031 82.506 46.7734C84.6216 51.3145 85.6794 57.0273 85.6794 63.9121C85.6794 70.7969 84.6216 76.5391 82.506 81.1387Z" fill="#427687" style="fill:#427687;fill:color(display-p3 0.2588 0.4627 0.5294);fill-opacity:1;"/>
<path d="M58.0883 109H27.5V19H58.7053C67.6673 19 75.3658 20.8018 81.8008 24.4053C88.2652 27.9795 93.231 33.1211 96.6982 39.8301C100.166 46.5391 101.899 54.5664 101.899 63.9121C101.899 73.2871 100.151 81.3438 96.6542 88.082C93.1869 94.8203 88.177 99.9912 81.6245 103.595C75.1014 107.198 67.2559 109 58.0883 109ZM43.852 94.8935H57.2949C63.583 94.8935 68.8279 93.751 73.0298 91.4658C77.2316 89.1514 80.3904 85.709 82.506 81.1387C84.6216 76.5391 85.6794 70.7969 85.6794 63.9121C85.6794 57.0273 84.6216 51.3145 82.506 46.7734C80.3904 42.2031 77.261 38.79 73.1179 36.5342C69.0042 34.249 63.8915 33.1064 57.7798 33.1064H43.852V94.8935Z" fill="#DFE6EB" style="fill:#DFE6EB;fill:color(display-p3 0.8745 0.9020 0.9216);fill-opacity:1;"/>
<path d="M58.0883 109H27.5V19H58.7053C67.6673 19 75.3658 20.8018 81.8008 24.4053C88.2652 27.9795 93.231 33.1211 96.6982 39.8301C100.166 46.5391 101.899 54.5664 101.899 63.9121C101.899 73.2871 100.151 81.3438 96.6542 88.082C93.1869 94.8203 88.177 99.9912 81.6245 103.595C75.1014 107.198 67.2559 109 58.0883 109ZM43.852 94.8935H57.2949C63.583 94.8935 68.8279 93.751 73.0298 91.4658C77.2316 89.1514 80.3904 85.709 82.506 81.1387C84.6216 76.5391 85.6794 70.7969 85.6794 63.9121C85.6794 57.0273 84.6216 51.3145 82.506 46.7734C80.3904 42.2031 77.261 38.79 73.1179 36.5342C69.0042 34.249 63.8915 33.1064 57.7798 33.1064H43.852V94.8935Z" fill="#8CAFBF" style="fill:#8CAFBF;fill:color(display-p3 0.5490 0.6863 0.7490);fill-opacity:1;"/>
<path fill-rule="evenodd" clip-rule="evenodd" d="M24.5 112V16H58.7053C68.0676 16 76.2912 17.8835 83.2595 21.7838C90.2516 25.6515 95.6316 31.2319 99.3634 38.4527C103.097 45.6768 104.899 54.199 104.899 63.9121C104.899 73.6554 103.082 82.2072 99.3187 89.4604C95.5826 96.7188 90.1523 102.328 83.0718 106.223C76.014 110.121 67.6463 112 58.0883 112H24.5ZM81.6245 103.595C88.177 99.9912 93.1869 94.8203 96.6542 88.082C100.151 81.3438 101.899 73.2871 101.899 63.9121C101.899 54.5664 100.166 46.5391 96.6982 39.8301C93.231 33.1211 88.2652 27.9795 81.8008 24.4053C75.3658 20.8018 67.6673 19 58.7053 19H27.5V109H58.0883C67.2559 109 75.1014 107.198 81.6245 103.595ZM79.7867 48.0404L79.7835 48.0337C77.9191 44.0059 75.2214 41.0954 71.6833 39.1689L71.6722 39.1629L71.6611 39.1567C68.1068 37.1823 63.5298 36.1064 57.7798 36.1064H46.852V91.8935H57.2949C63.2307 91.8935 67.9451 90.8142 71.5893 88.8343C75.198 86.8447 77.9221 83.8983 79.7823 79.8812C81.6632 75.79 82.6794 70.5091 82.6794 63.9121C82.6794 57.3108 81.6618 52.0652 79.7867 48.0404ZM82.506 81.1387C80.3904 85.709 77.2316 89.1514 73.0298 91.4658C68.8279 93.751 63.583 94.8935 57.2949 94.8935H43.852V33.1064H57.7798C63.8915 33.1064 69.0042 34.249 73.1179 36.5342C77.261 38.79 80.3904 42.2031 82.506 46.7734C84.6216 51.3145 85.6794 57.0273 85.6794 63.9121C85.6794 70.7969 84.6216 76.5391 82.506 81.1387Z" fill="#427687" style="fill:#427687;fill:color(display-p3 0.2588 0.4627 0.5294);fill-opacity:1;"/>
</svg>
