<svg width="128" height="128" viewBox="0 0 128 128" fill="none" xmlns="http://www.w3.org/2000/svg">
<path d="M91.8864 109.549C91.8864 109.549 87.8564 107.949 85.8464 106.409C83.9664 104.969 82.2664 103.009 81.0964 101.969C80.3364 101.279 79.6664 100.969 79.0764 100.969C78.4764 100.969 77.9464 101.279 77.4964 101.829L74.9164 105.069C73.8364 106.849 74.7564 109.179 74.7564 109.179C74.7564 109.179 72.0564 112.039 76.5564 113.019C81.1664 114.029 86.6864 114.579 86.6864 114.579C86.9764 114.629 87.3264 114.659 87.7064 114.659C89.6064 114.659 92.3064 113.969 93.1664 111.999C93.1664 111.999 94.4564 110.569 91.8864 109.549Z" fill="#4568AC" style="fill:#4568AC;fill:color(display-p3 0.2706 0.4078 0.6745);fill-opacity:1;"/>
<path d="M74.5184 104.947L58.6465 103.506C58.6365 103.506 83.9674 104.439 81.1382 89.9844C81.1382 89.9844 65.0865 90.8912 58.6465 90.8912C58.6465 90.8912 34.9825 95.5415 34.5173 106.46C34.1101 116.019 50.2437 114.965 51.5516 114.965C52.6286 114.965 53.6176 114.965 54.8176 114.965C60.1376 114.965 67.6665 114.066 73.7865 113.346C76.1365 113.066 76.1984 106.037 74.5184 104.947Z" fill="#616161" style="fill:#616161;fill:color(display-p3 0.3804 0.3804 0.3804);fill-opacity:1;"/>
<path d="M72.585 40.4687C73.675 36.7487 74.275 32.1387 73.775 29.3687C73.665 28.7487 73.505 28.2087 73.285 27.7987C72.655 26.6887 71.815 25.6187 70.825 24.6587C70.805 24.6387 70.785 24.6187 70.765 24.6087C70.545 24.3887 70.315 24.1787 70.075 23.9787C70.035 23.9487 69.995 23.9087 69.955 23.8787C69.735 23.6887 69.515 23.5087 69.285 23.3387C69.235 23.2987 69.175 23.2587 69.125 23.2187C68.905 23.0487 68.675 22.8887 68.445 22.7387C68.385 22.6987 68.325 22.6587 68.265 22.6187C68.035 22.4687 67.795 22.3187 67.555 22.1787C67.495 22.1387 67.435 22.1087 67.375 22.0687C67.125 21.9287 66.875 21.7987 66.625 21.6687C66.575 21.6387 66.515 21.6087 66.465 21.5887C66.195 21.4587 65.915 21.3287 65.635 21.2087C65.605 21.1987 65.565 21.1787 65.535 21.1687C63.985 20.5287 62.365 20.1587 60.795 20.1587C60.755 20.1587 60.715 20.1687 60.685 20.1687C60.335 20.1687 59.995 20.1887 59.655 20.2287C53.915 20.9087 50.665 24.8787 49.615 30.0387C49.235 31.9087 49.205 33.7987 49.465 35.1387C49.495 35.2987 49.755 36.4787 49.765 36.8387C49.915 38.2487 47.135 39.5187 46.745 41.0587C46.455 42.2087 48.855 43.0687 49.035 43.2787C49.945 44.3687 48.205 49.2787 54.855 50.0787C57.415 50.3887 57.655 50.3187 58.455 50.4287C60.045 50.6587 59.575 57.1087 59.575 57.1087H59.585L71.105 54.7987C71.105 54.7987 69.575 47.3487 71.225 44.0987C71.715 43.1087 72.185 41.8487 72.585 40.4687Z" fill="#FFCA28" style="fill:#FFCA28;fill:color(display-p3 1.0000 0.7922 0.1569);fill-opacity:1;"/>
<path d="M72.585 40.4687C73.675 36.7487 74.275 32.1387 73.775 29.3687C73.665 28.7487 73.505 28.2087 73.285 27.7987C72.655 26.6887 71.815 25.6187 70.825 24.6587C70.805 24.6387 70.785 24.6187 70.765 24.6087C70.545 24.3887 70.315 24.1787 70.075 23.9787C70.035 23.9487 69.995 23.9087 69.955 23.8787C69.735 23.6887 69.515 23.5087 69.285 23.3387C69.235 23.2987 69.175 23.2587 69.125 23.2187C68.905 23.0487 68.675 22.8887 68.445 22.7387C68.385 22.6987 68.325 22.6587 68.265 22.6187C68.035 22.4687 67.795 22.3187 67.555 22.1787C67.495 22.1387 67.435 22.1087 67.375 22.0687C67.125 21.9287 66.875 21.7987 66.625 21.6687C66.575 21.6387 66.515 21.6087 66.465 21.5887C66.195 21.4587 65.915 21.3287 65.635 21.2087C65.605 21.1987 65.565 21.1787 65.535 21.1687C63.985 20.5287 62.365 20.1587 60.795 20.1587C60.755 20.1587 60.715 20.1687 60.685 20.1687C60.335 20.1687 59.995 20.1887 59.655 20.2287C53.915 20.9087 50.665 24.8787 49.615 30.0387C49.235 31.9087 49.205 33.7987 49.465 35.1387C49.495 35.2987 49.755 36.4787 49.765 36.8387C49.915 38.2487 47.135 39.5187 46.745 41.0587C46.455 42.2087 48.855 43.0687 49.035 43.2787C49.945 44.3687 48.205 49.2787 54.855 50.0787C57.415 50.3887 57.655 50.3187 58.455 50.4287C60.045 50.6587 59.575 57.1087 59.575 57.1087H59.585L71.105 54.7987C71.105 54.7987 69.575 47.3487 71.225 44.0987C71.715 43.1087 72.185 41.8487 72.585 40.4687Z" fill="#E0BB95" style="fill:#E0BB95;fill:color(display-p3 0.8784 0.7333 0.5843);fill-opacity:1;"/>
<path d="M49.585 46.1285C50.505 46.2185 51.435 46.0485 52.245 45.5085C53.125 44.9085 52.575 44.1785 51.575 44.5485C50.975 44.7785 50.135 44.8585 49.375 44.6785L49.585 46.1285Z" fill="#795548" style="fill:#795548;fill:color(display-p3 0.4745 0.3333 0.2824);fill-opacity:1;"/>
<path d="M55.0848 37.8458C55.0992 36.8076 54.5646 35.9584 53.8909 35.9491C53.2172 35.9398 52.6594 36.7739 52.6451 37.8121C52.6308 38.8503 53.1653 39.6994 53.839 39.7087C54.5127 39.718 55.0705 38.8839 55.0848 37.8458Z" fill="#404040" style="fill:#404040;fill:color(display-p3 0.2510 0.2510 0.2510);fill-opacity:1;"/>
<path d="M53.0357 35.0085C51.8157 35.2385 51.6157 34.4285 52.0757 33.8385C52.4157 33.3985 53.1757 33.0885 54.5357 33.4985C55.8157 33.8885 56.2857 34.6885 56.5857 35.1885C56.8857 35.6885 56.8057 36.1385 56.4957 36.1385C56.0757 36.1485 54.5457 34.7285 53.0357 35.0085Z" fill="#6D4C41" style="fill:#6D4C41;fill:color(display-p3 0.4275 0.2980 0.2549);fill-opacity:1;"/>
<path d="M53.0357 35.0085C51.8157 35.2385 51.6157 34.4285 52.0757 33.8385C52.4157 33.3985 53.1757 33.0885 54.5357 33.4985C55.8157 33.8885 56.2857 34.6885 56.5857 35.1885C56.8857 35.6885 56.8057 36.1385 56.4957 36.1385C56.0757 36.1485 54.5457 34.7285 53.0357 35.0085Z" fill="#AB872F" style="fill:#AB872F;fill:color(display-p3 0.6706 0.5294 0.1843);fill-opacity:1;"/>
<path d="M74.9253 60.2485C73.0653 53.8785 69.8953 52.2485 67.1253 52.2485C64.2453 52.2485 61.8053 54.0285 61.8053 54.0285C56.9053 57.3985 56.8953 62.5385 56.4453 69.4485C55.9853 76.3585 55.6553 90.4385 55.6553 90.4385C55.6553 90.4385 61.0953 92.6885 69.3653 92.6885H70.0153C78.6553 92.5685 81.8553 89.5785 81.8553 89.5785C81.8553 89.5785 77.2553 68.2085 74.9253 60.2485Z" fill="url(#paint0_radial_179_481)" style=""/>
<path d="M74.9253 60.2485C73.0653 53.8785 69.8953 52.2485 67.1253 52.2485C64.2453 52.2485 61.8053 54.0285 61.8053 54.0285C56.9053 57.3985 56.8953 62.5385 56.4453 69.4485C55.9853 76.3585 55.6553 90.4385 55.6553 90.4385C55.6553 90.4385 61.0953 92.6885 69.3653 92.6885H70.0153C78.6553 92.5685 81.8553 89.5785 81.8553 89.5785C81.8553 89.5785 77.2553 68.2085 74.9253 60.2485Z" fill="url(#paint1_radial_179_481)" style=""/>
<path d="M77.2501 76.3252C76.4702 73.3685 73.0616 62.2639 73.0307 62.1564C72.9559 61.9127 72.7101 61.7665 72.4534 61.8125L62.3529 63.8135C62.2146 63.8374 62.0933 63.93 62.0158 64.0584C61.9482 64.1859 61.9323 64.3282 61.9762 64.4644L67.0407 79.2417C65.4046 80.4616 57.3284 86.3998 54.9228 87.1644C53.2962 87.6798 50.4906 88.3641 47.2513 89.1321C44.6605 89.7546 42.3801 93.4614 41.25 95.6154C40.9131 96.2623 41.032 97.0444 41.5258 97.5575C41.8972 97.9523 42.4167 98.1212 42.9142 98.0711C43.2425 98.0381 43.5609 97.9056 43.8194 97.6785L47.1593 95.2119C47.6738 95.2305 49.1842 95.2594 51.205 94.9657C53.7013 94.604 56.0309 93.2842 56.1065 93.2364C56.9769 92.7971 61.228 91.5956 65.3418 90.428C68.41 89.5565 71.5767 88.6651 73.7096 87.9882C79.8071 86.0582 77.9501 78.9885 77.2501 76.3252Z" fill="url(#paint2_linear_179_481)" style=""/>
<path d="M77.2501 76.3252C76.4702 73.3685 73.0616 62.2639 73.0307 62.1564C72.9559 61.9127 72.7101 61.7665 72.4534 61.8125L62.3529 63.8135C62.2146 63.8374 62.0933 63.93 62.0158 64.0584C61.9482 64.1859 61.9323 64.3282 61.9762 64.4644L67.0407 79.2417C65.4046 80.4616 57.3284 86.3998 54.9228 87.1644C53.2962 87.6798 50.4906 88.3641 47.2513 89.1321C44.6605 89.7546 42.3801 93.4614 41.25 95.6154C40.9131 96.2623 41.032 97.0444 41.5258 97.5575C41.8972 97.9523 42.4167 98.1212 42.9142 98.0711C43.2425 98.0381 43.5609 97.9056 43.8194 97.6785L47.1593 95.2119C47.6738 95.2305 49.1842 95.2594 51.205 94.9657C53.7013 94.604 56.0309 93.2842 56.1065 93.2364C56.9769 92.7971 61.228 91.5956 65.3418 90.428C68.41 89.5565 71.5767 88.6651 73.7096 87.9882C79.8071 86.0582 77.9501 78.9885 77.2501 76.3252Z" fill="url(#paint3_linear_179_481)" style=""/>
<path d="M74.1086 62.5803C73.3198 59.735 70.5875 56.3515 66.707 56.7418C66.3687 56.7759 66.0136 56.8418 65.6514 56.9385C61.2182 58.1282 60.3684 63.0681 61.2319 66.1571L64.1061 75.5466L76.9828 71.9698L74.1086 62.5803Z" fill="#04A287" style="fill:#04A287;fill:color(display-p3 0.0157 0.6353 0.5294);fill-opacity:1;"/>
<path d="M74.1086 62.5803C73.3198 59.735 70.5875 56.3515 66.707 56.7418C66.3687 56.7759 66.0136 56.8418 65.6514 56.9385C61.2182 58.1282 60.3684 63.0681 61.2319 66.1571L64.1061 75.5466L76.9828 71.9698L74.1086 62.5803Z" fill="#EC6E24" style="fill:#EC6E24;fill:color(display-p3 0.9255 0.4314 0.1412);fill-opacity:1;"/>
<path d="M77.2692 28.8293C75.9692 25.1793 73.0992 23.9893 72.1592 23.6893C71.7592 22.3693 69.6992 17.3493 61.4892 18.3893C59.4892 18.6393 57.9992 19.5393 56.6892 20.3193C56.1292 20.6593 55.5892 20.9793 55.0892 21.1893C54.6892 21.3593 53.9792 21.5093 53.4092 21.2893C52.1092 20.8093 52.5992 18.8293 52.5992 18.8293C52.5992 18.8293 47.7492 19.5993 49.6492 24.3393C48.0092 24.9893 47.1892 26.6793 46.8392 28.2793C46.3592 30.4693 47.3592 32.5993 49.4392 33.6293C49.4392 33.6293 49.1492 30.0793 54.2492 30.4693C55.8292 30.5893 57.4792 30.8993 58.9692 30.3693C59.5392 30.1593 60.0792 29.8293 60.6292 29.5793C60.7492 29.5793 60.8292 29.5793 60.8292 29.5793C62.7292 30.6893 60.0092 35.1593 62.0692 37.9093C62.4792 38.4493 62.8392 38.2693 62.8392 38.2693L63.7492 37.0293C64.4392 36.1893 65.0592 35.4493 65.8692 35.6593C68.2592 36.2793 67.6592 40.5593 64.7692 41.3993C64.4792 41.4793 64.9592 46.2993 70.8792 46.5193C73.9392 46.6393 75.1092 44.1293 75.1092 44.1293C75.1092 44.1293 73.7892 44.4093 73.5492 43.2893C73.4192 42.7093 73.9792 41.9493 74.9692 41.1393C77.8192 38.7893 76.9292 35.9293 76.5492 35.0393C77.0292 34.2593 78.2892 31.6793 77.2692 28.8293Z" fill="#AB872F" style="fill:#AB872F;fill:color(display-p3 0.6706 0.5294 0.1843);fill-opacity:1;"/>
<path d="M76.579 35.0593C76.629 34.9693 75.649 37.2093 71.749 36.6893C70.139 36.6293 67.759 40.4193 70.009 43.0693C72.009 45.4093 75.129 44.1593 75.129 44.1593C75.129 44.1593 74.699 44.2693 74.089 44.0293C73.699 43.8693 73.569 43.3393 73.569 43.3193C73.439 42.7393 73.999 41.9793 74.989 41.1693C77.839 38.8093 76.949 35.9493 76.579 35.0593Z" fill="url(#paint4_radial_179_481)" style=""/>
<path d="M77.2694 28.8292C76.5894 26.9092 75.2694 25.2592 73.4794 24.2692C73.2194 24.1192 72.5894 23.7892 72.1394 23.6892C72.3194 24.5392 72.2594 25.4292 71.8694 26.3492C71.8594 26.3792 71.3994 27.7392 70.1694 28.7992C70.9894 30.0192 71.3694 31.4892 71.7194 32.9192C72.0294 34.1692 72.3194 35.5492 71.7294 36.6892C72.4794 36.6692 73.6594 36.9292 74.9994 36.3892C76.2794 35.8692 76.9894 34.4492 77.3494 33.1492C77.7594 31.7292 77.7694 30.2192 77.2694 28.8292Z" fill="url(#paint5_radial_179_481)" style=""/>
<path d="M71.8792 26.3492C72.9092 23.9592 71.6692 21.6792 69.7092 20.1092C67.4092 18.2792 64.3092 18.0192 61.4892 18.3792C59.4892 18.6292 57.9992 19.5292 56.6892 20.3092C56.1292 20.6492 55.5892 20.9692 55.0892 21.1792C54.6892 21.3492 53.9792 21.4992 53.4092 21.2792C52.1092 20.7992 52.5992 18.8192 52.5992 18.8192C52.5992 18.8192 47.7492 19.5892 49.6492 24.3292C48.0092 24.9792 47.1892 26.6692 46.8392 28.2692C46.3592 30.4592 47.3592 32.5892 49.4392 33.6192C49.4392 33.6192 49.1492 30.0692 54.2492 30.4592C55.8292 30.5792 57.4792 30.8892 58.9692 30.3592C60.2892 29.8792 60.7592 29.1992 62.2092 29.3292C63.7792 29.4792 65.8492 30.1492 67.4792 29.9692C70.7892 29.5992 71.8592 26.3892 71.8792 26.3492Z" fill="url(#paint6_radial_179_481)" style=""/>
<path d="M70.0092 43.0593C68.9992 41.8993 68.7892 40.0493 67.1692 38.9993C66.8292 40.0593 66.0092 41.0493 64.7792 41.4093C64.4892 41.4893 64.9692 46.3093 70.8892 46.5293C73.9492 46.6493 75.1192 44.1393 75.1192 44.1393C75.1192 44.1393 72.0492 45.3893 70.0092 43.0593Z" fill="url(#paint7_radial_179_481)" style=""/>
<defs>
<radialGradient id="paint0_radial_179_481" cx="0" cy="0" r="1" gradientUnits="userSpaceOnUse" gradientTransform="translate(65.672 67.2601) scale(17.0361 17.0361)">
<stop offset="0.3637" stop-color="#00BFA5" style="stop-color:#00BFA5;stop-color:color(display-p3 0.0000 0.7490 0.6471);stop-opacity:1;"/>
<stop offset="0.8121" stop-color="#00B29A" style="stop-color:#00B29A;stop-color:color(display-p3 0.0000 0.6980 0.6039);stop-opacity:1;"/>
<stop offset="1" stop-color="#00AB94" style="stop-color:#00AB94;stop-color:color(display-p3 0.0000 0.6706 0.5804);stop-opacity:1;"/>
</radialGradient>
<radialGradient id="paint1_radial_179_481" cx="0" cy="0" r="1" gradientUnits="userSpaceOnUse" gradientTransform="translate(65.6747 67.2639) scale(17.0361 17.0361)">
<stop offset="0.3666" stop-color="#F58B21" style="stop-color:#F58B21;stop-color:color(display-p3 0.9608 0.5451 0.1294);stop-opacity:1;"/>
<stop offset="0.6967" stop-color="#F17E22" style="stop-color:#F17E22;stop-color:color(display-p3 0.9451 0.4941 0.1333);stop-opacity:1;"/>
<stop offset="1" stop-color="#EC6E24" style="stop-color:#EC6E24;stop-color:color(display-p3 0.9255 0.4314 0.1412);stop-opacity:1;"/>
</radialGradient>
<linearGradient id="paint2_linear_179_481" x1="60.3704" y1="91.279" x2="56.8173" y2="77.1889" gradientUnits="userSpaceOnUse">
<stop offset="0.5" stop-color="#FFCA28" style="stop-color:#FFCA28;stop-color:color(display-p3 1.0000 0.7922 0.1569);stop-opacity:1;"/>
<stop offset="1" stop-color="#FFB300" style="stop-color:#FFB300;stop-color:color(display-p3 1.0000 0.7020 0.0000);stop-opacity:1;"/>
</linearGradient>
<linearGradient id="paint3_linear_179_481" x1="60.3704" y1="91.279" x2="56.8173" y2="77.1889" gradientUnits="userSpaceOnUse">
<stop offset="0.5" stop-color="#E0BB95" style="stop-color:#E0BB95;stop-color:color(display-p3 0.8784 0.7333 0.5843);stop-opacity:1;"/>
<stop offset="1" stop-color="#CCA47A" style="stop-color:#CCA47A;stop-color:color(display-p3 0.8000 0.6431 0.4784);stop-opacity:1;"/>
</linearGradient>
<radialGradient id="paint4_radial_179_481" cx="0" cy="0" r="1" gradientUnits="userSpaceOnUse" gradientTransform="translate(68.9851 40.4334) rotate(22.4132) scale(7.73725 11.1419)">
<stop offset="0.45" stop-color="#BFA055" stop-opacity="0" style="stop-color:none;stop-opacity:0;"/>
<stop offset="1" stop-color="#BFA055" style="stop-color:#BFA055;stop-color:color(display-p3 0.7490 0.6275 0.3333);stop-opacity:1;"/>
</radialGradient>
<radialGradient id="paint5_radial_179_481" cx="0" cy="0" r="1" gradientUnits="userSpaceOnUse" gradientTransform="translate(70.1919 32.673) rotate(-5.57206) scale(7.8426 9.89609)">
<stop offset="0.45" stop-color="#BFA055" stop-opacity="0" style="stop-color:none;stop-opacity:0;"/>
<stop offset="1" stop-color="#BFA055" style="stop-color:#BFA055;stop-color:color(display-p3 0.7490 0.6275 0.3333);stop-opacity:1;"/>
</radialGradient>
<radialGradient id="paint6_radial_179_481" cx="0" cy="0" r="1" gradientUnits="userSpaceOnUse" gradientTransform="translate(61.5476 29.6398) rotate(-6.67302) scale(16.1408 12.1333)">
<stop offset="0.45" stop-color="#BFA055" stop-opacity="0" style="stop-color:none;stop-opacity:0;"/>
<stop offset="1" stop-color="#BFA055" style="stop-color:#BFA055;stop-color:color(display-p3 0.7490 0.6275 0.3333);stop-opacity:1;"/>
</radialGradient>
<radialGradient id="paint7_radial_179_481" cx="0" cy="0" r="1" gradientUnits="userSpaceOnUse" gradientTransform="translate(70.7297 41.4454) rotate(16.4089) scale(8.68967 5.58626)">
<stop offset="0.45" stop-color="#BFA055" stop-opacity="0" style="stop-color:none;stop-opacity:0;"/>
<stop offset="1" stop-color="#BFA055" style="stop-color:#BFA055;stop-color:color(display-p3 0.7490 0.6275 0.3333);stop-opacity:1;"/>
</radialGradient>
</defs>
</svg>
