<svg width="128" height="128" viewBox="0 0 128 128" fill="none" xmlns="http://www.w3.org/2000/svg">
<path d="M9.05816 42.5577L116.841 39C116.841 39 134.113 70.3365 110.81 101.929C88.0536 132.796 40.2285 129.238 18.9505 103.936C-4.89741 75.5593 9.05816 42.5577 9.05816 42.5577Z" fill="#D4D4D4" style="fill:#D4D4D4;fill:color(display-p3 0.8314 0.8314 0.8314);fill-opacity:1;"/>
<path d="M62.4996 4.00176C28.0901 4.24486 7.51036 27.7536 7.00772 58.7553C6.50507 90.0145 30.6033 119 65.257 119C101.419 119 121.754 89.7571 121.998 58.9984C122.228 31.7289 98.1443 3.74437 62.4996 4.00176Z" fill="url(#paint0_radial_2339_481)" style=""/>
<path d="M24 60L27.208 50.7673C27.208 50.7673 36.005 23.9883 63.8788 24.1341C89.8563 24.28 99.4803 49.513 99.4803 49.513L102.432 59.2999L104 53.7866L100.293 40.6304L87.7462 25.7094L66.602 19L48.951 21.5379L34.5079 30.9164L24.884 46.1437L24 60Z" fill="#D5D5D5" style="fill:#D5D5D5;fill:color(display-p3 0.8353 0.8353 0.8353);fill-opacity:1;"/>
<path d="M53.9773 19.4243C53.9773 19.4243 50.2176 18.2143 47.3743 19.2768C44.5332 20.3473 43.6386 22.441 43.6386 22.441L40.6887 47.5616L53.3551 55.694L60.8913 58.334L73.0767 54.6741L68.2294 15.64L53.9773 19.4243Z" fill="#307D31" style="fill:#307D31;fill:color(display-p3 0.1882 0.4902 0.1922);fill-opacity:1;"/>
<path d="M59.9169 35.6859C59.9169 35.6859 56.4327 32.7084 55.0668 29.6047C53.7008 26.501 55.5405 23.8076 56.8576 23.3531C60.0825 22.2401 61.1457 24.1302 63.0162 23.286C64.8866 22.4418 64.9134 20.5006 64.5246 17.6916C64.1271 14.8314 65.8814 12.5377 68.4082 13.1553C70.8385 13.752 71.4446 17.786 71.4446 17.786C71.4446 17.786 72.3514 15.2883 74.6055 16.0993C76.6071 16.8259 77.4382 20.8906 77.4382 20.8906C77.4382 20.8906 79.4897 15.7046 83.0638 16.6649C86.638 17.6252 86.7704 25.127 86.7704 25.127L87.8899 31.5027L69.1587 30.8081C69.1587 30.8081 67.3965 28.8342 63.9682 30.3153C60.5479 31.7937 59.9169 35.6859 59.9169 35.6859Z" fill="#58A12F" style="fill:#58A12F;fill:color(display-p3 0.3451 0.6314 0.1843);fill-opacity:1;"/>
<path d="M54.6129 49.612C54.6129 49.612 55.5402 42.6668 62.6857 42.4149C70.1771 42.1496 71.1606 48.9823 71.1606 48.9823C71.1606 48.9823 72.4648 47.1384 74.4361 46.2639C76.4074 45.3895 79.0078 44.8802 79.0078 44.8802L77.5005 41.5541C77.5005 41.5541 73.3826 43.6017 69.7206 41.4779C64.7977 38.616 65.5473 33.1084 65.5473 33.1084L65.148 29.9468L57.6088 28.1732L51.5037 24.2549C51.5037 24.2549 49.0433 21.7076 45.1781 22.8475C41.3129 23.9874 40.4312 27.2382 40.4312 27.2382C40.4312 27.2382 31.4855 27.7408 28.5239 32.6445C26.5248 35.9634 28.583 39.5581 28.583 39.5581C28.583 39.5581 27.0052 41.3906 22.622 39.754C20.6721 39.0243 18.0308 41.0033 18.4 43.5048C18.7665 45.9984 20.7231 48.596 20.7231 48.596L18.5541 51.1883L31.0695 57.3581L54.6129 49.612Z" fill="#58A12F" style="fill:#58A12F;fill:color(display-p3 0.3451 0.6314 0.1843);fill-opacity:1;"/>
<path d="M64.302 49.0093C64.302 49.0093 60.6629 50.5361 55.2584 44.065C52.0191 40.1871 50.2212 31.1169 54.5327 30.612C57.9141 30.2174 59.5566 36.3919 61.9174 36.1289C63.0884 35.9956 63.2708 28.6998 68.286 26.5275C72.3655 24.7584 80.0304 29.1052 80.0304 29.1052C80.0304 29.1052 81.7945 26.2894 81.8182 25.5087C81.8419 24.7281 81.3596 21.9151 84.1423 21.1755C87.2248 20.3524 88.1259 24.2246 88.1259 24.2246C88.1259 24.2246 91.1691 21.4087 94.2989 21.9838C97.6674 22.6069 98.5208 25.7232 98.5208 25.7232C98.5208 25.7232 99.9979 21.7926 102.558 22.6744C105.119 23.5563 103.783 38.1122 100.542 46.3028C97.3023 54.4935 90.1403 56.4938 90.1403 56.4938L64.302 49.0093Z" fill="#86C82C" style="fill:#86C82C;fill:color(display-p3 0.5255 0.7843 0.1725);fill-opacity:1;"/>
<path d="M32.86 48.2445C32.86 48.2445 36.8292 41.1875 37.9069 38.0445C39.6325 33.0075 41.0804 28.58 41.3677 27.152C41.5205 26.3932 41.4937 25.73 42.2307 25.2458C42.9678 24.7617 59.3196 30.1758 54.2963 43.0762C52.2652 48.2986 48.9053 52.7267 48.9053 52.7267L38.6072 53.596L32.86 48.2445Z" fill="#FE2A19" style="fill:#FE2A19;fill:color(display-p3 0.9961 0.1647 0.0980);fill-opacity:1;"/>
<path d="M36.4672 48.0447C36.7087 48.5549 45.1111 51.0073 49.1837 42.5295C53.018 34.5546 44.4381 29.8193 43.8303 29.9511C43.4369 30.0426 42.1048 34.3135 40.3572 38.6172C38.5277 43.1063 36.2765 47.6342 36.4672 48.0447Z" fill="#CB1C35" style="fill:#CB1C35;fill:color(display-p3 0.7961 0.1098 0.2078);fill-opacity:1;"/>
<path d="M42.0281 44.0995C43.4234 43.431 44.4164 41.6889 45.271 39.7834C46.059 38.0303 46.8763 35.71 46.1065 34.8516C45.342 33.9987 42.2041 35.3156 41.6359 35.9138C41.0791 36.5112 39.4852 40.1214 39.6278 40.9586C39.7758 41.8012 41.0096 44.5863 42.0281 44.0995Z" fill="#FF5F5D" style="fill:#FF5F5D;fill:color(display-p3 1.0000 0.3725 0.3647);fill-opacity:1;"/>
<path d="M41.478 44.9778C40.6521 45.5144 40.569 46.6831 41.0327 47.4902C41.6409 48.542 42.814 47.7281 42.9664 46.9706C43.2021 45.7986 42.2568 44.4651 41.478 44.9778Z" fill="#F7CA76" style="fill:#F7CA76;fill:color(display-p3 0.9686 0.7922 0.4627);fill-opacity:1;"/>
<path d="M44.9801 42.7103C44.4868 43.2331 45.0948 44.2295 45.846 44.6302C46.8246 45.1628 47.3907 44.1987 47.1084 43.6472C46.6172 42.6609 45.468 42.1928 44.9801 42.7103Z" fill="#F7CA76" style="fill:#F7CA76;fill:color(display-p3 0.9686 0.7922 0.4627);fill-opacity:1;"/>
<path d="M46.6187 37.5432C46.555 38.3635 47.828 38.7833 48.796 38.5763C50.0612 38.309 49.8734 37.0567 49.2159 36.7809C48.0512 36.2905 46.6822 36.7355 46.6187 37.5432Z" fill="#F7CA76" style="fill:#F7CA76;fill:color(display-p3 0.9686 0.7922 0.4627);fill-opacity:1;"/>
<path d="M45.0787 33.8164C45.612 34.2943 46.6298 33.6891 47.0366 32.9551C47.5714 31.9918 46.5811 31.4474 46.0181 31.7245C45.0128 32.2153 44.5509 33.3442 45.0787 33.8164Z" fill="#F7CA76" style="fill:#F7CA76;fill:color(display-p3 0.9686 0.7922 0.4627);fill-opacity:1;"/>
<path d="M48.2509 49.8143C48.3087 47.7037 50.9584 43.4408 55.8006 44.8546C60.5189 46.2347 60.3073 51.2539 59.1867 53.2639C57.9717 55.4509 54.6267 57.1238 51.9191 55.6617C49.2114 54.1995 48.1713 52.6378 48.2509 49.8143Z" fill="#E9FCAE" style="fill:#E9FCAE;fill:color(display-p3 0.9137 0.9882 0.6824);fill-opacity:1;"/>
<path d="M76.3151 43.3199C76.4272 43.0009 76.7019 42.1877 76.0075 41.1659C74.8449 39.456 72.7445 37.5792 69.2284 35.4376C63.0945 31.7029 60.479 31.0813 59.6179 33.0429C58.7053 35.1274 62.0419 38.1106 65.9527 40.5539C69.8636 42.9973 75.6163 45.3306 76.3151 43.3199Z" fill="#307D31" style="fill:#307D31;fill:color(display-p3 0.1882 0.4902 0.1922);fill-opacity:1;"/>
<path d="M22.7537 57.8048C22.4284 58.3132 19.4315 57.5165 15.9269 55.513C12.4224 53.5094 9.74239 51.7319 10.336 50.8668C11.0868 49.7714 16.018 52.2157 17.4204 53.1665C18.8228 54.1174 23.4801 56.665 22.7537 57.8048Z" fill="#E9FCAE" style="fill:#E9FCAE;fill:color(display-p3 0.9137 0.9882 0.6824);fill-opacity:1;"/>
<path d="M69.4064 24.6612L70.3286 22.9521C70.3286 22.9521 76.6148 26.9858 79.2026 23.3366C82.315 18.9518 76.5745 15.5659 76.5745 15.5659L78.0786 14.0912L81.6741 16.7838L83.5657 21.6943L80.6487 26.4895C80.6487 26.4895 76.1556 28.0402 75.6195 27.6535C75.0808 27.2592 69.4064 24.6612 69.4064 24.6612Z" fill="white" style="fill:white;fill-opacity:1;"/>
<path d="M68.0956 26.3632L69.3639 24.0966C69.3639 24.0966 77.098 29.6942 80.9499 24.0697C84.6395 18.6676 77.7577 13.5147 77.7577 13.5147L79.2168 11.8011C79.2168 11.8011 84.27 14.6663 84.6922 20.5521C85.0263 25.2768 81.4269 28.7821 77.662 29.2501C71.7524 29.9781 68.0956 26.3632 68.0956 26.3632Z" fill="#D2608C" style="fill:#D2608C;fill:color(display-p3 0.8235 0.3765 0.5490);fill-opacity:1;"/>
<path d="M78.8913 32.8968C78.8913 32.8968 77.9129 29.5968 81.3002 24.3704C84.6875 19.144 88.9273 18.7912 90.6012 19.429C92.2858 20.0718 95.2261 23.5516 93.2001 29.1302C92.2278 31.7918 91.0232 32.5398 89.1255 33.0111C86.9062 33.5584 82.5372 33.0201 82.5372 33.0201L78.8913 32.8968Z" fill="#2C7B2E" style="fill:#2C7B2E;fill:color(display-p3 0.1725 0.4824 0.1804);fill-opacity:1;"/>
<path d="M89.1074 21.1821C86.8242 20.5054 83.7636 23.8815 82.4952 26.5117C81.1463 29.3243 81.3927 31.8956 81.3927 31.8956L86.5172 32.0556C86.5172 32.0556 89.0423 31.1114 90.0218 28.4262C91.4845 24.4281 90.8186 21.6922 89.1074 21.1821Z" fill="#E0FEAC" style="fill:#E0FEAC;fill:color(display-p3 0.8784 0.9961 0.6745);fill-opacity:1;"/>
<path d="M69.9581 57.6989C69.9581 57.6989 69.6686 56.1793 67.9192 54.4388C67.1642 53.6883 64.7937 52.4932 65.5725 50.4886C66.3541 48.4919 71.136 47.9242 72.6849 47.7476C74.2339 47.5709 76.5291 46.7072 77.096 45.5004C77.6629 44.2937 76.9963 40.3452 79.8805 38.3387C82.8575 36.2734 85.4447 38.7269 87.2122 39.4858C88.6114 40.0856 90.3068 39.9299 92.2321 38.3976C94.1573 36.8652 94.5511 40.0489 94.5511 40.0489L94.0076 46.795L69.9581 57.6989Z" fill="#86C82C" style="fill:#86C82C;fill:color(display-p3 0.5255 0.7843 0.1725);fill-opacity:1;"/>
<path d="M34.5149 68.599C34.5149 68.599 30.506 64.8126 26.495 58.2612C22.484 51.7098 21.8027 49.3419 23.2554 48.244C25.7438 46.3638 28.8076 49.0935 29.7211 48.5613C30.6346 48.0291 29.413 43.8592 32.0582 42.2232C34.7007 40.5792 36.711 42.8047 38.9534 44.6519C41.1958 46.4992 46.0242 51.8194 46.0242 51.8194C46.0242 51.8194 48.1641 49.7703 50.7883 50.1752C53.4125 50.5801 56.7802 53.3495 58.5406 55.5077C60.3091 57.6631 61.9501 59.528 61.9501 59.528C61.9501 59.528 65.2891 59.0354 68.77 59.7683C72.7098 60.5959 75.5975 63.8925 75.5975 63.8925L59.9091 70.4548C59.9091 70.4548 38.0611 70.2041 37.7551 69.9481C37.4411 69.695 34.2203 68.4023 34.5149 68.599Z" fill="#86C82C" style="fill:#86C82C;fill:color(display-p3 0.5255 0.7843 0.1725);fill-opacity:1;"/>
<path d="M29.1562 65.1049C29.1562 65.1049 27.3457 63.1289 26.6557 60.0488C25.9658 56.9687 26.7549 54.5798 29.1718 53.7457C31.0554 53.0956 34.7123 53.1518 39.3396 56.317C43.9669 59.4821 45.7056 63.2227 45.7056 63.2227L31.7677 66.1586L29.1562 65.1049Z" fill="#2D792A" style="fill:#2D792A;fill:color(display-p3 0.1765 0.4745 0.1647);fill-opacity:1;"/>
<path d="M30.2183 63.6388C30.2183 63.6388 27.2937 59.0099 28.3734 57.3138C29.1224 56.1288 30.7907 55.8442 34.7905 58.152C39.3539 60.7947 41.1732 63.8374 41.1732 63.8374L30.2183 63.6388Z" fill="#E7FCAE" style="fill:#E7FCAE;fill:color(display-p3 0.9059 0.9882 0.6824);fill-opacity:1;"/>
<path d="M99.8767 77.4646C99.8767 77.4646 98.7118 81.2385 96.2109 82.9584C93.7046 84.672 91.4764 84.2043 91.4764 84.2043L69.2053 72.2149L69.8068 57.1746L71.9658 49.4868L81.9521 41.6031L111.15 67.959L99.8767 77.4646Z" fill="#307D31" style="fill:#307D31;fill:color(display-p3 0.1882 0.4902 0.1922);fill-opacity:1;"/>
<path d="M85.4805 62.7665C85.4805 62.7665 86.219 67.2898 88.1641 70.0674C90.1093 72.8451 93.3662 72.6691 94.438 71.7788C97.0622 69.5989 95.9977 67.7095 97.6895 66.5482C99.3814 65.3868 101.055 66.3708 103.255 68.1601C105.494 69.9834 108.365 69.6732 109.148 67.1925C109.898 64.8052 106.763 62.1947 106.763 62.1947C106.763 62.1947 109.369 62.7149 109.845 60.3671C110.262 58.2789 107.218 55.46 107.218 55.46C107.218 55.46 112.716 56.3959 113.748 52.842C114.781 49.2881 108.436 45.284 108.436 45.284L103.566 41.0199L94.4443 57.395C94.4443 57.395 95.2179 59.9254 92.1734 62.0883C89.1354 64.2458 85.4805 62.7665 85.4805 62.7665Z" fill="#58A12F" style="fill:#58A12F;fill:color(display-p3 0.3451 0.6314 0.1843);fill-opacity:1;"/>
<path d="M74.7038 89.9733C74.7038 89.9733 71.5284 92.3137 73.7202 99.6435C75.0333 104.036 81.2304 109.525 83.9618 106.177C86.1028 103.551 82.1105 99.4677 83.5955 97.6285C84.3342 96.7176 90.2 99.7841 94.63 96.5886C98.2352 93.9902 98.9453 85.7254 98.9453 85.7254C98.9453 85.7254 102.125 85.5062 102.755 85.8308C103.385 86.1555 105.348 87.7955 107.438 85.8171C109.756 83.6273 107.182 81.1733 107.182 81.1733C107.182 81.1733 111.054 79.8948 112.293 77.0492C113.622 73.9847 111.621 71.9036 111.621 71.9036C111.621 71.9036 115.527 72.4138 116.215 69.9043C116.903 67.3947 104.674 62.0822 96.4467 61.1534C88.2196 60.2247 82.7642 65.2739 82.7642 65.2739L74.7038 89.9733Z" fill="#86C82C" style="fill:#86C82C;fill:color(display-p3 0.5255 0.7843 0.1725);fill-opacity:1;"/>
<path d="M74.1075 98.0844L74.4203 99.5498C74.4203 99.5498 77.7741 100.268 80.9372 96.6759C84.4075 92.7323 82.5372 89.6674 82.5372 89.6674C82.5372 89.6674 79.8428 90.609 79.8573 90.7577C79.8718 90.9064 79.5975 94.499 79.5975 94.499L75.6745 97.5435L74.1075 98.0844Z" fill="#D2608C" style="fill:#D2608C;fill:color(display-p3 0.8235 0.3765 0.5490);fill-opacity:1;"/>
<path d="M73.9557 96.7597C73.9557 96.7597 76.4197 96.168 77.8173 94.3543C79.2149 92.5407 78.4219 90.7707 78.4219 90.7707L80.5763 90.1151C80.5763 90.1151 81.4405 93.2062 79.4292 95.6153C77.224 98.2603 74.2589 97.9523 74.2589 97.9523L73.9557 96.7597Z" fill="white" style="fill:white;fill-opacity:1;"/>
<path d="M70.6852 95.0538C70.6852 95.0538 78.0848 91.767 81.3153 90.9902C86.4924 89.7467 91.0367 88.7223 92.4854 88.5708C93.2552 88.4901 93.9129 88.5793 94.4643 87.8912C95.0158 87.203 91.1661 70.4139 77.8498 74.1997C72.4593 75.7298 67.7344 78.6576 67.7344 78.6576L65.8989 88.8281L70.6852 95.0538Z" fill="#FE2A19" style="fill:#FE2A19;fill:color(display-p3 0.9961 0.1647 0.0980);fill-opacity:1;"/>
<path d="M71.224 91.4815C70.7389 91.1931 69.0889 82.5969 77.9126 79.3411C86.2132 76.2751 90.1193 85.2628 89.9308 85.8555C89.8026 86.2385 85.4253 87.1624 80.9761 88.4969C76.3346 89.8954 71.6147 91.71 71.224 91.4815Z" fill="#CB1C35" style="fill:#CB1C35;fill:color(display-p3 0.7961 0.1098 0.2078);fill-opacity:1;"/>
<path d="M75.6758 86.3171C76.4727 84.9909 78.3006 84.1664 80.2781 83.4951C82.0977 82.8758 84.4847 82.2807 85.2667 83.1279C86.0438 83.9693 84.4372 86.9692 83.7882 87.4786C83.1409 87.9766 79.3967 89.2233 78.5767 89.0025C77.7518 88.7758 75.0952 87.2851 75.6758 86.3171Z" fill="#FF5F5D" style="fill:#FF5F5D;fill:color(display-p3 1.0000 0.3725 0.3647);fill-opacity:1;"/>
<path d="M74.7494 86.7821C74.1374 87.5537 72.9661 87.5263 72.2062 86.9887C71.2164 86.2842 72.1371 85.1929 72.9057 85.1125C74.0946 84.9883 75.3331 86.055 74.7494 86.7821Z" fill="#F7CA76" style="fill:#F7CA76;fill:color(display-p3 0.9686 0.7922 0.4627);fill-opacity:1;"/>
<path d="M77.3363 83.5088C76.7694 83.9507 75.8346 83.2515 75.5065 82.4659C75.0684 81.4414 76.0816 80.9687 76.604 81.3017C77.5396 81.8837 77.8974 83.0718 77.3363 83.5088Z" fill="#F7CA76" style="fill:#F7CA76;fill:color(display-p3 0.9686 0.7922 0.4627);fill-opacity:1;"/>
<path d="M82.6353 82.3646C81.8127 82.3507 81.5147 81.0438 81.812 80.0997C82.1973 78.8653 83.4263 79.1702 83.6389 79.8507C84.0174 81.0564 83.4454 82.3774 82.6353 82.3646Z" fill="#F7CA76" style="fill:#F7CA76;fill:color(display-p3 0.9686 0.7922 0.4627);fill-opacity:1;"/>
<path d="M82.7752 60.7866C82.7752 60.7866 89.7056 61.8194 91.9269 55.0231C94.2569 47.8984 87.9639 45.0608 87.9639 45.0608C87.9639 45.0608 90.097 44.3183 91.4833 42.6664C92.8695 41.0144 94.0792 38.6568 94.0792 38.6568L96.8577 41.0265C96.8577 41.0265 93.7495 44.4162 94.7759 48.5231C96.1621 54.0461 101.662 54.8514 101.662 54.8514L104.589 56.1109L104.205 63.8463L106.279 70.7979C106.279 70.7979 108.045 73.8676 105.879 77.2658C103.713 80.6641 100.345 80.6107 100.345 80.6107C100.345 80.6107 97.3845 89.0672 91.8523 90.5546C88.1095 91.5562 85.2256 88.5828 85.2256 88.5828C85.2256 88.5828 83.0278 89.5912 83.3862 94.2563C83.5472 96.3321 80.9141 98.3218 78.6127 97.2741C76.3182 96.2313 74.3642 93.6317 74.3642 93.6317L71.2725 94.9978L68.8109 81.2631L82.7752 60.7866Z" fill="#58A12F" style="fill:#58A12F;fill:color(display-p3 0.3451 0.6314 0.1843);fill-opacity:1;"/>
<path d="M86.1999 84.2485C85.7743 83.6724 86.4728 82.7163 87.2418 82.3803C88.2512 81.9387 88.7 82.9759 88.371 83.5103C87.7877 84.4648 86.6203 84.8183 86.1999 84.2485Z" fill="#F7CA76" style="fill:#F7CA76;fill:color(display-p3 0.9686 0.7922 0.4627);fill-opacity:1;"/>
<path d="M72.168 69.3816C74.0025 70.4269 79.0216 70.3724 80.3243 65.4992C81.5915 60.7494 77.1905 58.327 74.8908 58.2425C72.3908 58.147 69.2256 60.1392 69.0713 63.2125C68.917 66.2859 69.7128 67.9851 72.168 69.3816Z" fill="#E9FCAE" style="fill:#E9FCAE;fill:color(display-p3 0.9137 0.9882 0.6824);fill-opacity:1;"/>
<path d="M51.1672 83.5933C51.4981 83.663 52.3358 83.8498 52.8493 84.9735C53.7082 86.8544 54.2234 89.6236 54.2307 93.7406C54.2424 100.922 53.4172 103.481 51.2935 103.199C49.0379 102.898 48.218 98.4985 48.1574 93.8875C48.0968 89.2765 49.0857 83.1479 51.1672 83.5933Z" fill="#307D31" style="fill:#307D31;fill:color(display-p3 0.1882 0.4902 0.1922);fill-opacity:1;"/>
<path d="M52.1115 87.0366C51.5082 87.051 50.6349 90.0265 50.5302 94.0619C50.4255 98.0974 50.5552 101.311 51.6027 101.252C52.9287 101.178 53.3965 95.6943 53.3109 94.0021C53.2253 92.3099 53.4628 87.0067 52.1115 87.0366Z" fill="#E9FCAE" style="fill:#E9FCAE;fill:color(display-p3 0.9137 0.9882 0.6824);fill-opacity:1;"/>
<path d="M74.2284 65.5731C74.2284 65.5731 76.5424 68.1212 82.7677 67.9359C88.9931 67.7507 91.4937 64.3087 91.8167 62.5467C92.1408 60.773 90.6907 56.4543 84.8703 55.293C82.0904 54.7438 80.8261 55.3858 79.4389 56.7638C77.8198 58.3774 76.0141 62.3919 76.0141 62.3919L74.2284 65.5731Z" fill="#2C7B2E" style="fill:#2C7B2E;fill:color(display-p3 0.1725 0.4824 0.1804);fill-opacity:1;"/>
<path d="M89.5429 62.9147C88.9372 65.2177 84.4633 66.0834 81.5567 65.8037C78.4523 65.4981 76.3817 63.9538 76.3817 63.9538L78.9028 59.4895C78.9028 59.4895 81.0198 57.8203 83.8236 58.3755C88.0005 59.1987 89.9943 61.187 89.5429 62.9147Z" fill="#E0FEAC" style="fill:#E0FEAC;fill:color(display-p3 0.8784 0.9961 0.6745);fill-opacity:1;"/>
<path d="M106.881 63.7809C106.542 64.4946 103.525 67.1874 97.4366 66.489C91.1404 65.7599 86.9411 61.2539 86.2941 53.7015C85.4758 44.0332 92.3722 38.4919 93.6235 37.7314C94.8749 36.971 97.6267 35.4466 98.5629 36.4713C99.4992 37.4961 99.9813 43.9621 102.37 51.3885C105.063 59.7305 107.639 62.1919 106.881 63.7809Z" fill="#FE2A19" style="fill:#FE2A19;fill:color(display-p3 0.9961 0.1647 0.0980);fill-opacity:1;"/>
<path d="M103.34 60.4944C102.854 61.507 93.9045 62.6238 91.1703 54.7696C88.8146 48.0043 96.2461 42.8459 97.2539 43.3465C98.2616 43.8471 97.9663 46.9168 99.8374 51.9511C101.717 56.9933 103.716 59.7005 103.34 60.4944Z" fill="#CB1C35" style="fill:#CB1C35;fill:color(display-p3 0.7961 0.1098 0.2078);fill-opacity:1;"/>
<path d="M98.3437 57.6277C97.2258 57.3998 95.8525 56.2677 94.8072 53.6683C93.9741 51.6038 94.2988 49.3716 94.6417 48.4253C94.9846 47.4789 98.3707 47.7923 98.4754 48.2195C98.8051 49.5514 100.114 53.5845 100.578 54.8135C100.878 55.6079 99.5451 57.8712 98.3437 57.6277Z" fill="#FE6261" style="fill:#FE6261;fill:color(display-p3 0.9961 0.3843 0.3804);fill-opacity:1;"/>
<path d="M98.0654 57.6535C98.7824 57.6819 99.0401 58.8288 98.7868 59.6354C98.4591 60.698 97.3879 60.4043 97.2003 59.8124C96.8582 58.7594 97.3562 57.625 98.0654 57.6535Z" fill="#F7CA76" style="fill:#F7CA76;fill:color(display-p3 0.9686 0.7922 0.4627);fill-opacity:1;"/>
<path d="M95.0913 55.3209C95.586 55.9944 94.8281 57.1584 93.9745 57.577C92.859 58.1316 92.3227 56.9199 92.6794 56.272C93.3097 55.1099 94.6053 54.6566 95.0913 55.3209Z" fill="#F7CA76" style="fill:#F7CA76;fill:color(display-p3 0.9686 0.7922 0.4627);fill-opacity:1;"/>
<path d="M61.2612 54.7427C61.2612 54.7427 62.7287 56.0654 63.4704 59.1285C63.7897 60.4501 63.5244 63.8301 66.2292 64.3075C68.9271 64.7767 72.7145 59.9314 73.9334 58.3571C75.1524 56.7828 77.6158 54.8487 79.309 55.0291C81.0021 55.2094 84.872 58.5527 88.9734 56.7326C93.2006 54.8501 92.2354 50.3998 92.5774 47.9672C92.8494 46.0421 94.1424 44.2939 97.0909 43.2068C100.039 42.1197 96.824 39.5808 96.824 39.5808L89.0977 35.7055L61.2612 54.7427Z" fill="#86C82C" style="fill:#86C82C;fill:color(display-p3 0.5255 0.7843 0.1725);fill-opacity:1;"/>
<path d="M58.1193 91.1613C58.1193 91.1613 60.1611 96.2836 64.7723 102.427C69.3836 108.571 71.3336 110.077 72.8897 109.132C75.5548 107.512 74.1469 103.657 74.9783 103.004C75.8098 102.351 79.2357 105.024 81.7316 103.168C84.234 101.318 82.9063 98.629 82.0159 95.8635C81.1255 93.0981 77.9599 86.6484 77.9599 86.6484C77.9599 86.6484 80.6536 85.4147 81.2446 82.826C81.8357 80.2374 80.5028 76.086 79.1456 73.654C77.794 71.2154 76.6654 69.0025 76.6654 69.0025C76.6654 69.0025 78.3542 66.0802 78.9562 62.5743C79.6393 58.607 77.6395 54.7073 77.6395 54.7073L65.7558 66.8715C65.7558 66.8715 57.9345 87.2732 58.0596 87.6519C58.1792 88.0372 58.1934 91.5076 58.1193 91.1613Z" fill="#86C82C" style="fill:#86C82C;fill:color(display-p3 0.5255 0.7843 0.1725);fill-opacity:1;"/>
<path d="M49.1911 77.7765C49.1911 77.7765 49.9414 80.3493 52.217 82.5367C54.4926 84.7242 56.9442 85.2885 58.911 83.6547C60.4437 82.3815 62.2924 79.2258 61.9863 73.6279C61.6802 68.03 59.3839 64.6034 59.3839 64.6034L49.6446 74.9971L49.1911 77.7765Z" fill="#2D792A" style="fill:#2D792A;fill:color(display-p3 0.1765 0.4745 0.1647);fill-opacity:1;"/>
<path d="M50.9952 77.6286C50.9952 77.6286 53.4359 82.5299 55.4461 82.4866C56.8477 82.4608 57.9563 81.1821 58.0578 76.5653C58.1652 71.293 56.5074 68.1594 56.5074 68.1594L50.9952 77.6286Z" fill="#E7FCAE" style="fill:#E7FCAE;fill:color(display-p3 0.9059 0.9882 0.6824);fill-opacity:1;"/>
<path d="M60.2797 62.8737L61.3241 61.8254C61.3241 61.8254 64.6925 64.5717 68.3252 63.8351C71.816 63.1146 73.483 59.9119 73.483 59.9119L75.1738 61.1497L73.4915 64.5458L69.218 66.7294C69.218 66.7294 63.2784 66.2094 63.1452 66.049C63.012 65.8887 60.4129 63.034 60.2797 62.8737Z" fill="white" style="fill:white;fill-opacity:1;"/>
<path d="M57.899 64.2195C58.0288 64.3757 61.9966 68.5156 67.692 67.9535C74.9223 67.2384 76.5424 61.3936 76.5424 61.3936L74.8145 60.2879C74.8145 60.2879 72.3058 65.3748 67.0067 65.2448C62.6569 65.1401 59.3483 62.3005 59.3483 62.3005L57.899 64.2195Z" fill="#D2608C" style="fill:#D2608C;fill:color(display-p3 0.8235 0.3765 0.5490);fill-opacity:1;"/>
<path d="M39.4897 91.9319C39.4897 91.9319 40.6545 95.7058 43.1555 97.4257C45.6617 99.1393 47.89 98.6716 47.89 98.6716L70.1611 86.6822L69.5595 71.6419L67.4005 63.9541L57.4142 56.0703L28.2163 82.4263L39.4897 91.9319Z" fill="#307D31" style="fill:#307D31;fill:color(display-p3 0.1882 0.4902 0.1922);fill-opacity:1;"/>
<path d="M42.7419 87.5106C42.7419 87.5106 42.0034 92.0339 40.0583 94.8115C38.1132 97.5892 34.8562 97.4132 33.7845 96.5229C31.1603 94.343 32.2248 92.4537 30.5329 91.2923C28.841 90.1309 27.1673 91.1149 24.9674 92.9042C22.7282 94.7276 19.8572 94.4173 19.0747 91.9367C18.3243 89.5493 21.4589 86.9388 21.4589 86.9388C21.4589 86.9388 18.8532 87.4591 18.3774 85.1112C17.9604 83.023 21.0046 80.2042 21.0046 80.2042C21.0046 80.2042 15.5067 81.14 14.474 77.5862C13.4412 74.0323 19.7863 70.0281 19.7863 70.0281L24.6568 65.7641L33.7781 82.1391C33.7781 82.1391 33.0045 84.6695 36.049 86.8324C39.087 88.99 42.7419 87.5106 42.7419 87.5106Z" fill="#58A12F" style="fill:#58A12F;fill:color(display-p3 0.3451 0.6314 0.1843);fill-opacity:1;"/>
<path d="M49.5469 74.1315C49.5469 74.1315 52.7223 76.472 50.5306 83.8017C49.2175 88.1946 43.0203 93.6836 40.289 90.3356C38.148 87.7092 42.1403 83.626 40.6553 81.7867C39.9165 80.8758 34.0507 83.9423 29.6207 80.7468C26.0155 78.1484 25.3054 69.8836 25.3054 69.8836C25.3054 69.8836 22.1253 69.6644 21.4954 69.989C20.8655 70.3137 18.9028 71.9537 16.8129 69.9753C14.4949 67.7855 17.0683 65.3315 17.0683 65.3315C17.0683 65.3315 13.1963 64.053 11.9579 61.2074C10.6283 58.1429 12.63 56.0618 12.63 56.0618C12.63 56.0618 8.72397 56.572 8.03596 54.0625C7.34795 51.5529 19.5769 46.2404 27.804 45.3117C36.0311 44.3829 41.4865 49.4321 41.4865 49.4321L49.5469 74.1315Z" fill="#86C82C" style="fill:#86C82C;fill:color(display-p3 0.5255 0.7843 0.1725);fill-opacity:1;"/>
<path d="M65.2589 112.552L64.9462 114.018C64.9462 114.018 61.5923 114.736 58.4293 111.144C54.959 107.2 56.8292 104.135 56.8292 104.135C56.8292 104.135 59.5237 105.077 59.5092 105.225C59.4946 105.374 59.769 108.967 59.769 108.967L63.692 112.011L65.2589 112.552Z" fill="#D2608C" style="fill:#D2608C;fill:color(display-p3 0.8235 0.3765 0.5490);fill-opacity:1;"/>
<path d="M65.4107 111.227C65.4107 111.227 62.9467 110.635 61.5491 108.822C60.1515 107.008 60.9445 105.238 60.9445 105.238L58.7901 104.582C58.7901 104.582 57.9259 107.674 59.9372 110.083C62.1425 112.728 65.1076 112.42 65.1076 112.42L65.4107 111.227Z" fill="white" style="fill:white;fill-opacity:1;"/>
<path d="M68.6812 109.522C68.6812 109.522 61.2817 106.235 58.0512 105.458C52.874 104.215 48.3298 103.19 46.8811 103.039C46.1112 102.958 45.4535 103.047 44.9021 102.359C44.3507 101.671 48.2004 84.8817 61.5167 88.6674C66.9071 90.1976 71.632 93.1254 71.632 93.1254L73.4676 103.296L68.6812 109.522Z" fill="#FE2A19" style="fill:#FE2A19;fill:color(display-p3 0.9961 0.1647 0.0980);fill-opacity:1;"/>
<path d="M68.1424 105.949C68.6276 105.66 70.2776 97.0642 61.4539 93.8084C53.1532 90.7424 49.2472 99.7301 49.4356 100.323C49.5638 100.706 53.9412 101.63 58.3904 102.964C63.0318 104.363 67.7517 106.177 68.1424 105.949Z" fill="#CB1C35" style="fill:#CB1C35;fill:color(display-p3 0.7961 0.1098 0.2078);fill-opacity:1;"/>
<path d="M63.6906 100.784C62.8937 99.4582 61.0658 98.6337 59.0883 97.9624C57.2687 97.3431 54.8817 96.748 54.0998 97.5952C53.3227 98.4366 54.9293 101.437 55.5783 101.946C56.2255 102.444 59.9698 103.691 60.7898 103.47C61.6147 103.243 64.2713 101.752 63.6906 100.784Z" fill="#FF5F5D" style="fill:#FF5F5D;fill:color(display-p3 1.0000 0.3725 0.3647);fill-opacity:1;"/>
<path d="M64.617 101.249C65.229 102.021 66.4003 101.994 67.1601 101.456C68.15 100.751 67.2292 99.6602 66.4607 99.5798C65.2717 99.4556 64.0332 100.522 64.617 101.249Z" fill="#F7CA76" style="fill:#F7CA76;fill:color(display-p3 0.9686 0.7922 0.4627);fill-opacity:1;"/>
<path d="M62.0301 97.9761C62.5971 98.418 63.5318 97.7188 63.86 96.9331C64.298 95.9087 63.2849 95.436 62.7625 95.769C61.8268 96.351 61.469 97.5391 62.0301 97.9761Z" fill="#F7CA76" style="fill:#F7CA76;fill:color(display-p3 0.9686 0.7922 0.4627);fill-opacity:1;"/>
<path d="M56.7311 96.8318C57.5538 96.818 57.8518 95.5111 57.5545 94.567C57.1692 93.3326 55.9402 93.6375 55.7275 94.318C55.349 95.5237 55.921 96.8447 56.7311 96.8318Z" fill="#F7CA76" style="fill:#F7CA76;fill:color(display-p3 0.9686 0.7922 0.4627);fill-opacity:1;"/>
<path d="M53.1665 98.7158C53.5921 98.1397 52.8937 97.1835 52.1246 96.8476C51.1152 96.406 50.6665 97.4432 50.9954 97.9776C51.5788 98.9321 52.7461 99.2856 53.1665 98.7158Z" fill="#F7CA76" style="fill:#F7CA76;fill:color(display-p3 0.9686 0.7922 0.4627);fill-opacity:1;"/>
<path d="M67.1983 83.8488C65.3638 84.8941 60.3448 84.8397 59.0421 79.9665C57.7748 75.2166 62.1759 72.7943 64.4755 72.7098C66.9756 72.6143 70.1407 74.6065 70.295 77.6798C70.4493 80.7531 69.6536 82.4524 67.1983 83.8488Z" fill="#E9FCAE" style="fill:#E9FCAE;fill:color(display-p3 0.9137 0.9882 0.6824);fill-opacity:1;"/>
<path d="M34.1427 56.8484L32.2032 56.9464C32.2032 56.9464 32.3914 49.4797 27.9293 49.1599C22.5661 48.7732 22.6487 55.4373 22.6487 55.4373L20.6077 54.9162L21.0449 50.4456L24.2621 46.2814L29.8749 46.2883C29.8749 46.2883 33.5311 49.3255 33.4786 49.9843C33.4209 50.6494 34.1427 56.8484 34.1427 56.8484Z" fill="white" style="fill:white;fill-opacity:1;"/>
<path d="M36.2777 57.0862L33.682 57.1774C33.682 57.1774 34.4564 47.6616 27.6497 47.2856C21.1174 46.933 20.2812 55.4894 20.2812 55.4894L18.0593 55.1306C18.0593 55.1306 17.888 49.3242 22.7013 45.9105C26.5675 43.1743 31.4313 44.4337 33.7842 47.4098C37.4717 52.0848 36.2777 57.0862 36.2777 57.0862Z" fill="#D2608C" style="fill:#D2608C;fill:color(display-p3 0.8235 0.3765 0.5490);fill-opacity:1;"/>
<path d="M75.1429 59.327C75.1429 59.327 78.5826 63.637 81.6377 70.6851C84.6927 77.7332 85.0359 80.1732 83.4439 81.057C80.717 82.5706 78.0652 79.4391 77.0862 79.8382C76.1073 80.2374 76.7334 84.5372 73.8854 85.787C71.0389 87.0452 69.3597 84.5603 67.3978 82.4175C65.4359 80.2748 61.3993 74.3313 61.3993 74.3313C61.3993 74.3313 58.9937 76.0609 56.452 75.2929C53.9103 74.5248 50.9632 71.3115 49.522 68.9283C48.0725 66.5466 46.7085 64.4704 46.7085 64.4704C46.7085 64.4704 43.3334 64.491 39.9892 63.2784C36.204 61.9078 33.8059 58.2396 33.8059 58.2396L50.2581 53.9367C50.2581 53.9367 71.8562 57.2415 72.1233 57.5378C72.3989 57.8324 75.4071 59.5629 75.1429 59.327Z" fill="#86C82C" style="fill:#86C82C;fill:color(display-p3 0.5255 0.7843 0.1725);fill-opacity:1;"/>
<path d="M80.0188 55.4066C80.1619 54.6297 79.2912 50.6802 73.9459 47.6832C68.414 44.5894 62.3718 45.7854 57.4269 51.5304C51.1049 58.8909 53.4536 67.4203 54.0232 68.7693C54.5927 70.1182 55.9318 72.9648 57.2907 72.6819C58.6496 72.399 62.825 67.4382 69.1085 62.8148C76.1742 57.6268 79.7034 57.1386 80.0188 55.4066Z" fill="#FE2A19" style="fill:#FE2A19;fill:color(display-p3 0.9961 0.1647 0.0980);fill-opacity:1;"/>
<path d="M75.2238 55.9994C75.4225 54.894 68.8195 48.7505 62.0056 53.5187C56.136 57.6256 59.1427 66.1577 60.2528 66.3416C61.363 66.5254 62.9201 63.8636 67.3837 60.8767C71.8585 57.8881 75.0641 56.8632 75.2238 55.9994Z" fill="#CB1C35" style="fill:#CB1C35;fill:color(display-p3 0.7961 0.1098 0.2078);fill-opacity:1;"/>
<path d="M69.495 55.3995C68.4553 54.9301 66.6792 55.0443 64.3102 56.5401C62.4265 57.7265 61.3833 59.7265 61.1075 60.6945C60.8317 61.6625 63.7606 63.3902 64.0955 63.1051C65.1424 62.2182 68.5637 59.7137 69.66 58.9892C70.3676 58.5204 70.6117 55.9052 69.495 55.3995Z" fill="#FE6261" style="fill:#FE6261;fill:color(display-p3 0.9961 0.3843 0.3804);fill-opacity:1;"/>
<path d="M69.2846 55.2154C69.8826 55.612 70.7628 54.833 71.0295 54.0306C71.3857 52.9773 70.3452 52.5884 69.8467 52.9586C68.953 53.6122 68.6928 54.8235 69.2846 55.2154Z" fill="#F7CA76" style="fill:#F7CA76;fill:color(display-p3 0.9686 0.7922 0.4627);fill-opacity:1;"/>
<path d="M65.5076 55.3662C66.3029 55.1096 66.3696 53.7222 65.9225 52.8833C65.3427 51.7807 64.1986 52.4493 64.1087 53.1834C63.9395 54.4946 64.7248 55.6204 65.5076 55.3662Z" fill="#F7CA76" style="fill:#F7CA76;fill:color(display-p3 0.9686 0.7922 0.4627);fill-opacity:1;"/>
<path d="M88.6712 75.2871L87.253 74.8645C87.253 74.8645 85.6043 78.8857 82.0606 79.9725C78.6492 81.0059 75.6556 78.9874 75.6556 78.9874L74.7608 80.8822L77.8602 83.0633L82.6577 82.942C82.6577 82.942 87.6286 79.6496 87.6691 79.4451C87.7096 79.2406 88.6307 75.4916 88.6712 75.2871Z" fill="white" style="fill:white;fill-opacity:1;"/>
<path d="M91.4055 75.3327C91.366 75.5319 89.8558 81.0638 84.5829 83.2887C77.8882 86.1118 73.6745 81.7494 73.6745 81.7494L74.665 79.953C74.665 79.953 79.2977 83.2253 83.8919 80.5814C87.6642 78.413 89.2159 74.3384 89.2159 74.3384L91.4055 75.3327Z" fill="#D2608C" style="fill:#D2608C;fill:color(display-p3 0.8235 0.3765 0.5490);fill-opacity:1;"/>
<path d="M44.0102 73.4334L45.4482 73.0841C45.4482 73.0841 44.8473 68.7798 47.3612 66.0561C49.7878 63.4452 53.3906 63.6811 53.3906 63.6811L53.2093 61.5935L49.4332 61.2703L45.3497 63.7915C45.3497 63.7915 42.7136 69.1395 42.7816 69.3365C42.8496 69.5336 43.9422 73.2363 44.0102 73.4334Z" fill="white" style="fill:white;fill-opacity:1;"/>
<path d="M41.625 74.771C41.5588 74.5791 40.0772 69.0394 43.5118 64.4615C47.8734 58.6507 53.7108 60.2971 53.7108 60.2971L53.7599 62.3479C53.7599 62.3479 48.1096 61.8543 45.4723 66.4524C43.3056 70.2256 44.0174 74.5272 44.0174 74.5272L41.625 74.771Z" fill="#D2608C" style="fill:#D2608C;fill:color(display-p3 0.8235 0.3765 0.5490);fill-opacity:1;"/>
<defs>
<radialGradient id="paint0_radial_2339_481" cx="0" cy="0" r="1" gradientUnits="userSpaceOnUse" gradientTransform="translate(64.5 61.5) rotate(90) scale(57.5)">
<stop stop-color="#ADB4AD" style="stop-color:#ADB4AD;stop-color:color(display-p3 0.6784 0.7059 0.6784);stop-opacity:1;"/>
<stop offset="1" stop-color="#F6F6F6" style="stop-color:#F6F6F6;stop-color:color(display-p3 0.9647 0.9647 0.9647);stop-opacity:1;"/>
</radialGradient>
</defs>
</svg>
