<svg width="128" height="128" viewBox="0 0 128 128" fill="none" xmlns="http://www.w3.org/2000/svg">
<path d="M63.6001 118.8C35.7001 118.8 5.6001 101.3 5.6001 62.9C5.6001 24.5 35.7001 7 63.6001 7C79.1001 7 93.4001 12.1 104 21.4C115.5 31.6 121.6 46 121.6 62.9C121.6 79.8 115.5 94.1 104 104.3C93.4001 113.6 79.0001 118.8 63.6001 118.8Z" fill="url(#paint0_radial_169_13510)" style=""/>
<path d="M63.6001 118.8C35.7001 118.8 5.6001 101.3 5.6001 62.9C5.6001 24.5 35.7001 7 63.6001 7C79.1001 7 93.4001 12.1 104 21.4C115.5 31.6 121.6 46 121.6 62.9C121.6 79.8 115.5 94.1 104 104.3C93.4001 113.6 79.0001 118.8 63.6001 118.8Z" fill="url(#paint1_radial_169_13510)" style=""/>
<path d="M63.6001 118.8C35.7001 118.8 5.6001 101.3 5.6001 62.9C5.6001 24.5 35.7001 7 63.6001 7C79.1001 7 93.4001 12.1 104 21.4C115.5 31.6 121.6 46 121.6 62.9C121.6 79.8 115.5 94.1 104 104.3C93.4001 113.6 79.0001 118.8 63.6001 118.8Z" fill="url(#paint2_radial_169_13510)" style=""/>
<path d="M63.6001 118.8C35.7001 118.8 5.6001 101.3 5.6001 62.9C5.6001 24.5 35.7001 7 63.6001 7C79.1001 7 93.4001 12.1 104 21.4C115.5 31.6 121.6 46 121.6 62.9C121.6 79.8 115.5 94.1 104 104.3C93.4001 113.6 79.0001 118.8 63.6001 118.8Z" fill="url(#paint3_radial_169_13510)" style=""/>
<path d="M63.6001 118.8C35.7001 118.8 5.6001 101.3 5.6001 62.9C5.6001 24.5 35.7001 7 63.6001 7C79.1001 7 93.4001 12.1 104 21.4C115.5 31.6 121.6 46 121.6 62.9C121.6 79.8 115.5 94.1 104 104.3C93.4001 113.6 79.0001 118.8 63.6001 118.8Z" fill="url(#paint4_radial_169_13510)" style=""/>
<path d="M111.49 29.67C116.82 38.27 119.6 48.51 119.6 59.9C119.6 76.8 113.5 91.1 102 101.3C91.3999 110.6 76.9999 115.8 61.5999 115.8C43.5399 115.8 24.5999 108.45 13.4199 92.86C24.1799 110.52 44.4199 118.8 63.5999 118.8C78.9999 118.8 93.3999 113.6 104 104.3C115.5 94.1001 121.6 79.8 121.6 62.9C121.6 50.16 118.13 38.84 111.49 29.67Z" fill="#EB8F00" style="fill:#EB8F00;fill:color(display-p3 0.9216 0.5608 0.0000);fill-opacity:1;"/>
<path d="M111.49 29.67C116.82 38.27 119.6 48.51 119.6 59.9C119.6 76.8 113.5 91.1 102 101.3C91.3999 110.6 76.9999 115.8 61.5999 115.8C43.5399 115.8 24.5999 108.45 13.4199 92.86C24.1799 110.52 44.4199 118.8 63.5999 118.8C78.9999 118.8 93.3999 113.6 104 104.3C115.5 94.1001 121.6 79.8 121.6 62.9C121.6 50.16 118.13 38.84 111.49 29.67Z" fill="#F3B872" style="fill:#F3B872;fill:color(display-p3 0.9542 0.7229 0.4453);fill-opacity:1;"/>
<path d="M111.49 29.67C116.82 38.27 119.6 48.51 119.6 59.9C119.6 76.8 113.5 91.1 102 101.3C91.3999 110.6 76.9999 115.8 61.5999 115.8C43.5399 115.8 24.5999 108.45 13.4199 92.86C24.1799 110.52 44.4199 118.8 63.5999 118.8C78.9999 118.8 93.3999 113.6 104 104.3C115.5 94.1001 121.6 79.8 121.6 62.9C121.6 50.16 118.13 38.84 111.49 29.67Z" fill="#91674D" style="fill:#91674D;fill:color(display-p3 0.5686 0.4039 0.3020);fill-opacity:1;"/>
<path d="M48.5998 54.7001L48.3998 54.9001L47.8998 55.4001C47.6998 55.6001 47.4998 55.7001 47.1998 56.0001C46.8798 56.2601 46.5498 56.4901 46.1998 56.7001C45.7998 56.9001 45.3998 57.2001 44.9998 57.4001C44.5998 57.6001 44.0998 57.8001 43.5998 58.0001C43.1098 58.1801 42.6098 58.3101 42.0998 58.4001C41.5698 58.4901 41.0398 58.5201 40.4998 58.5001H39.5998C39.3598 58.5201 39.1198 58.4801 38.8998 58.4001C38.3898 58.3101 37.8898 58.1801 37.3998 58.0001C36.9198 57.8401 36.4498 57.6401 35.9998 57.4001C35.5998 57.2001 35.1998 56.9001 34.7998 56.7001C34.0998 56.2001 33.4998 55.7001 33.0998 55.4001L32.4998 54.8001L32.2998 54.6001C31.0098 53.4401 29.0798 53.3601 27.6998 54.4001C26.7298 55.1601 26.3998 56.4801 26.8998 57.6001L27.0998 57.9001C27.2098 58.1801 27.3498 58.4401 27.4998 58.7001C28.1098 59.7301 28.8498 60.6701 29.6998 61.5001C30.2898 62.0801 30.9298 62.6201 31.5998 63.1001C32.3898 63.6501 33.2198 64.1201 34.0998 64.5001C35.0598 64.9401 36.0698 65.2701 37.0998 65.5001L38.7998 65.8001C39.0998 65.8001 39.4998 65.9001 39.5998 65.9001H40.3998C41.5098 65.9001 42.6098 65.8001 43.6998 65.6001C44.7398 65.3901 45.7398 65.0501 46.6998 64.6001C47.5798 64.2201 48.4098 63.7501 49.1998 63.2001C49.8998 62.7501 50.5398 62.2101 51.0998 61.6001C51.5898 61.1501 52.0298 60.6501 52.3998 60.1001C52.5998 59.9001 52.6998 59.6001 52.8998 59.4001C53.0998 59.2001 53.1998 59.0001 53.2998 58.8001C53.4698 58.5601 53.6098 58.2901 53.6998 58.0001L53.7998 57.8001C54.4198 56.4001 53.7798 54.7501 52.3798 54.1301C52.2598 54.0801 52.1298 54.0301 51.9998 54.0001C50.8298 53.4901 49.4698 53.7701 48.5998 54.7001Z" fill="#49362E" style="fill:#49362E;fill:color(display-p3 0.2863 0.2118 0.1804);fill-opacity:1;"/>
<path d="M48.5998 54.7001L48.3998 54.9001L47.8998 55.4001C47.6998 55.6001 47.4998 55.7001 47.1998 56.0001C46.8798 56.2601 46.5498 56.4901 46.1998 56.7001C45.7998 56.9001 45.3998 57.2001 44.9998 57.4001C44.5998 57.6001 44.0998 57.8001 43.5998 58.0001C43.1098 58.1801 42.6098 58.3101 42.0998 58.4001C41.5698 58.4901 41.0398 58.5201 40.4998 58.5001H39.5998C39.3598 58.5201 39.1198 58.4801 38.8998 58.4001C38.3898 58.3101 37.8898 58.1801 37.3998 58.0001C36.9198 57.8401 36.4498 57.6401 35.9998 57.4001C35.5998 57.2001 35.1998 56.9001 34.7998 56.7001C34.0998 56.2001 33.4998 55.7001 33.0998 55.4001L32.4998 54.8001L32.2998 54.6001C31.0098 53.4401 29.0798 53.3601 27.6998 54.4001C26.7298 55.1601 26.3998 56.4801 26.8998 57.6001L27.0998 57.9001C27.2098 58.1801 27.3498 58.4401 27.4998 58.7001C28.1098 59.7301 28.8498 60.6701 29.6998 61.5001C30.2898 62.0801 30.9298 62.6201 31.5998 63.1001C32.3898 63.6501 33.2198 64.1201 34.0998 64.5001C35.0598 64.9401 36.0698 65.2701 37.0998 65.5001L38.7998 65.8001C39.0998 65.8001 39.4998 65.9001 39.5998 65.9001H40.3998C41.5098 65.9001 42.6098 65.8001 43.6998 65.6001C44.7398 65.3901 45.7398 65.0501 46.6998 64.6001C47.5798 64.2201 48.4098 63.7501 49.1998 63.2001C49.8998 62.7501 50.5398 62.2101 51.0998 61.6001C51.5898 61.1501 52.0298 60.6501 52.3998 60.1001C52.5998 59.9001 52.6998 59.6001 52.8998 59.4001C53.0998 59.2001 53.1998 59.0001 53.2998 58.8001C53.4698 58.5601 53.6098 58.2901 53.6998 58.0001L53.7998 57.8001C54.4198 56.4001 53.7798 54.7501 52.3798 54.1301C52.2598 54.0801 52.1298 54.0301 51.9998 54.0001C50.8298 53.4901 49.4698 53.7701 48.5998 54.7001Z" fill="#1A1717" style="fill:#1A1717;fill:color(display-p3 0.1020 0.0902 0.0902);fill-opacity:1;"/>
<path d="M48.5998 54.7001L48.3998 54.9001L47.8998 55.4001C47.6998 55.6001 47.4998 55.7001 47.1998 56.0001C46.8798 56.2601 46.5498 56.4901 46.1998 56.7001C45.7998 56.9001 45.3998 57.2001 44.9998 57.4001C44.5998 57.6001 44.0998 57.8001 43.5998 58.0001C43.1098 58.1801 42.6098 58.3101 42.0998 58.4001C41.5698 58.4901 41.0398 58.5201 40.4998 58.5001H39.5998C39.3598 58.5201 39.1198 58.4801 38.8998 58.4001C38.3898 58.3101 37.8898 58.1801 37.3998 58.0001C36.9198 57.8401 36.4498 57.6401 35.9998 57.4001C35.5998 57.2001 35.1998 56.9001 34.7998 56.7001C34.0998 56.2001 33.4998 55.7001 33.0998 55.4001L32.4998 54.8001L32.2998 54.6001C31.0098 53.4401 29.0798 53.3601 27.6998 54.4001C26.7298 55.1601 26.3998 56.4801 26.8998 57.6001L27.0998 57.9001C27.2098 58.1801 27.3498 58.4401 27.4998 58.7001C28.1098 59.7301 28.8498 60.6701 29.6998 61.5001C30.2898 62.0801 30.9298 62.6201 31.5998 63.1001C32.3898 63.6501 33.2198 64.1201 34.0998 64.5001C35.0598 64.9401 36.0698 65.2701 37.0998 65.5001L38.7998 65.8001C39.0998 65.8001 39.4998 65.9001 39.5998 65.9001H40.3998C41.5098 65.9001 42.6098 65.8001 43.6998 65.6001C44.7398 65.3901 45.7398 65.0501 46.6998 64.6001C47.5798 64.2201 48.4098 63.7501 49.1998 63.2001C49.8998 62.7501 50.5398 62.2101 51.0998 61.6001C51.5898 61.1501 52.0298 60.6501 52.3998 60.1001C52.5998 59.9001 52.6998 59.6001 52.8998 59.4001C53.0998 59.2001 53.1998 59.0001 53.2998 58.8001C53.4698 58.5601 53.6098 58.2901 53.6998 58.0001L53.7998 57.8001C54.4198 56.4001 53.7798 54.7501 52.3798 54.1301C52.2598 54.0801 52.1298 54.0301 51.9998 54.0001C50.8298 53.4901 49.4698 53.7701 48.5998 54.7001Z" fill="#49362E" style="fill:#49362E;fill:color(display-p3 0.2863 0.2118 0.1804);fill-opacity:1;"/>
<path d="M93.4997 54.7001L93.2997 54.9001L92.7997 55.4001C92.5997 55.6001 92.3997 55.7001 92.0997 56.0001C91.7797 56.2601 91.4497 56.4901 91.0997 56.7001C90.6997 56.9001 90.2997 57.2001 89.8997 57.4001C89.4997 57.6001 88.9997 57.8001 88.4997 58.0001C88.0097 58.1801 87.5097 58.3101 86.9997 58.4001C86.4697 58.4901 85.9397 58.5201 85.3997 58.5001H84.4997C84.2597 58.5101 84.0297 58.4701 83.7997 58.4001C83.2897 58.3101 82.7897 58.1801 82.2997 58.0001C81.8197 57.8401 81.3497 57.6401 80.8997 57.4001C80.4997 57.2001 80.0997 56.9001 79.6997 56.7001C78.9997 56.2001 78.3997 55.7001 77.9997 55.4001L77.3997 54.8001L77.1997 54.6001C75.9097 53.4401 73.9797 53.3601 72.5997 54.4001C71.6297 55.1601 71.2997 56.4801 71.7997 57.6001L71.9997 57.9001C72.1097 58.1801 72.2497 58.4401 72.3997 58.7001C73.0097 59.7301 73.7497 60.6701 74.5997 61.5001C75.1897 62.0801 75.8297 62.6201 76.4997 63.1001C77.2897 63.6501 78.1197 64.1201 78.9997 64.5001C79.9597 64.9401 80.9697 65.2701 81.9997 65.5001L83.6997 65.8001C83.9997 65.8001 84.3997 65.9001 84.4997 65.9001H85.2997C86.4097 65.9001 87.5097 65.8001 88.5997 65.6001C89.6397 65.3901 90.6397 65.0501 91.5997 64.6001C92.4797 64.2201 93.3097 63.7501 94.0997 63.2001C94.8197 62.7701 95.4597 62.2301 95.9997 61.6001C96.4897 61.1501 96.9297 60.6501 97.2997 60.1001C97.4997 59.9001 97.5997 59.6001 97.7997 59.4001C97.9997 59.2001 98.0997 59.0001 98.1997 58.8001C98.3697 58.5601 98.5097 58.2901 98.5997 58.0001L98.6997 57.8001C99.3197 56.4001 98.6797 54.7501 97.2797 54.1301C97.1597 54.0801 97.0297 54.0301 96.8997 54.0001C95.7297 53.4901 94.3697 53.7701 93.4997 54.7001Z" fill="#49362E" style="fill:#49362E;fill:color(display-p3 0.2863 0.2118 0.1804);fill-opacity:1;"/>
<path d="M93.4997 54.7001L93.2997 54.9001L92.7997 55.4001C92.5997 55.6001 92.3997 55.7001 92.0997 56.0001C91.7797 56.2601 91.4497 56.4901 91.0997 56.7001C90.6997 56.9001 90.2997 57.2001 89.8997 57.4001C89.4997 57.6001 88.9997 57.8001 88.4997 58.0001C88.0097 58.1801 87.5097 58.3101 86.9997 58.4001C86.4697 58.4901 85.9397 58.5201 85.3997 58.5001H84.4997C84.2597 58.5101 84.0297 58.4701 83.7997 58.4001C83.2897 58.3101 82.7897 58.1801 82.2997 58.0001C81.8197 57.8401 81.3497 57.6401 80.8997 57.4001C80.4997 57.2001 80.0997 56.9001 79.6997 56.7001C78.9997 56.2001 78.3997 55.7001 77.9997 55.4001L77.3997 54.8001L77.1997 54.6001C75.9097 53.4401 73.9797 53.3601 72.5997 54.4001C71.6297 55.1601 71.2997 56.4801 71.7997 57.6001L71.9997 57.9001C72.1097 58.1801 72.2497 58.4401 72.3997 58.7001C73.0097 59.7301 73.7497 60.6701 74.5997 61.5001C75.1897 62.0801 75.8297 62.6201 76.4997 63.1001C77.2897 63.6501 78.1197 64.1201 78.9997 64.5001C79.9597 64.9401 80.9697 65.2701 81.9997 65.5001L83.6997 65.8001C83.9997 65.8001 84.3997 65.9001 84.4997 65.9001H85.2997C86.4097 65.9001 87.5097 65.8001 88.5997 65.6001C89.6397 65.3901 90.6397 65.0501 91.5997 64.6001C92.4797 64.2201 93.3097 63.7501 94.0997 63.2001C94.8197 62.7701 95.4597 62.2301 95.9997 61.6001C96.4897 61.1501 96.9297 60.6501 97.2997 60.1001C97.4997 59.9001 97.5997 59.6001 97.7997 59.4001C97.9997 59.2001 98.0997 59.0001 98.1997 58.8001C98.3697 58.5601 98.5097 58.2901 98.5997 58.0001L98.6997 57.8001C99.3197 56.4001 98.6797 54.7501 97.2797 54.1301C97.1597 54.0801 97.0297 54.0301 96.8997 54.0001C95.7297 53.4901 94.3697 53.7701 93.4997 54.7001Z" fill="#1A1717" style="fill:#1A1717;fill:color(display-p3 0.1020 0.0902 0.0902);fill-opacity:1;"/>
<path d="M93.4997 54.7001L93.2997 54.9001L92.7997 55.4001C92.5997 55.6001 92.3997 55.7001 92.0997 56.0001C91.7797 56.2601 91.4497 56.4901 91.0997 56.7001C90.6997 56.9001 90.2997 57.2001 89.8997 57.4001C89.4997 57.6001 88.9997 57.8001 88.4997 58.0001C88.0097 58.1801 87.5097 58.3101 86.9997 58.4001C86.4697 58.4901 85.9397 58.5201 85.3997 58.5001H84.4997C84.2597 58.5101 84.0297 58.4701 83.7997 58.4001C83.2897 58.3101 82.7897 58.1801 82.2997 58.0001C81.8197 57.8401 81.3497 57.6401 80.8997 57.4001C80.4997 57.2001 80.0997 56.9001 79.6997 56.7001C78.9997 56.2001 78.3997 55.7001 77.9997 55.4001L77.3997 54.8001L77.1997 54.6001C75.9097 53.4401 73.9797 53.3601 72.5997 54.4001C71.6297 55.1601 71.2997 56.4801 71.7997 57.6001L71.9997 57.9001C72.1097 58.1801 72.2497 58.4401 72.3997 58.7001C73.0097 59.7301 73.7497 60.6701 74.5997 61.5001C75.1897 62.0801 75.8297 62.6201 76.4997 63.1001C77.2897 63.6501 78.1197 64.1201 78.9997 64.5001C79.9597 64.9401 80.9697 65.2701 81.9997 65.5001L83.6997 65.8001C83.9997 65.8001 84.3997 65.9001 84.4997 65.9001H85.2997C86.4097 65.9001 87.5097 65.8001 88.5997 65.6001C89.6397 65.3901 90.6397 65.0501 91.5997 64.6001C92.4797 64.2201 93.3097 63.7501 94.0997 63.2001C94.8197 62.7701 95.4597 62.2301 95.9997 61.6001C96.4897 61.1501 96.9297 60.6501 97.2997 60.1001C97.4997 59.9001 97.5997 59.6001 97.7997 59.4001C97.9997 59.2001 98.0997 59.0001 98.1997 58.8001C98.3697 58.5601 98.5097 58.2901 98.5997 58.0001L98.6997 57.8001C99.3197 56.4001 98.6797 54.7501 97.2797 54.1301C97.1597 54.0801 97.0297 54.0301 96.8997 54.0001C95.7297 53.4901 94.3697 53.7701 93.4997 54.7001Z" fill="#49362E" style="fill:#49362E;fill:color(display-p3 0.2863 0.2118 0.1804);fill-opacity:1;"/>
<path d="M77.2 21.6C76.86 21.41 76.49 21.27 76.1 21.2C75.7 21 75.2 20.9 74.8 20.7L72.7 20.1C71.9 19.8 71 19.6 70.2 19.3C68.6 18.8 66.6 17.5 65.6 19.8C65.33 20.29 65.19 20.84 65.2 21.4C65.2 22.2 65.8 22.6 66.5 22.9C67.24 23.23 68.01 23.49 68.8 23.7C69.05 23.83 69.32 23.89 69.6 23.9C69.8 23.9 70 24 70 24.2C70 24.4 69.8 24.4 69.7 24.5C69.6 24.6 69.3 24.8 69.1 24.9L68.8 25.1C68.26 25.5 67.69 25.87 67.1 26.2C66.7 26.5 66.2 26.8 65.8 27.1C65.58 27.2 65.38 27.33 65.2 27.5C64.61 27.9 64.04 28.34 63.5 28.8L63.3 29C62.76 29.43 62.37 30.03 62.2 30.7C62.1 31.6 62.8 32 63.6 32.4L64.5 32.7C65.55 33.09 66.62 33.43 67.7 33.7C68.5 34 69.4 34.2 70.2 34.5C71.8 35 73.8 36.3 74.8 34C75.07 33.51 75.21 32.96 75.2 32.4C75.1 31.69 74.59 31.1 73.9 30.9C73.16 30.57 72.39 30.31 71.6 30.1C71.4 30.1 71.3 30 71.1 29.9C70.9 29.8 70.8 29.8 70.7 29.8C70.5 29.6 70.9 29.4 71 29.3C71.42 29.07 71.82 28.8 72.2 28.5C72.62 28.23 73.02 27.93 73.4 27.6C73.6 27.5 73.8 27.3 74 27.2C74.4 26.9 74.9 26.6 75.3 26.3C76.4 25.4 78.9 24.3 78.1 22.6C77.89 22.2 77.58 21.85 77.2 21.6Z" fill="#5F7AFF" style="fill:#5F7AFF;fill:color(display-p3 0.3725 0.4784 1.0000);fill-opacity:1;"/>
<path d="M97.0999 12.1C96.7199 11.92 96.3099 11.79 95.8999 11.7C95.3999 11.6 94.8999 11.4 94.3999 11.3C93.5999 11.1 92.7999 11 92.0999 10.8C91.1999 10.6 90.1999 10.3 89.2999 10.1C87.4999 9.69998 85.1999 8.49998 84.2999 11.1C84.0599 11.67 83.9499 12.28 83.9999 12.9C84.0999 13.8 84.7999 14.2 85.5999 14.4C86.4199 14.68 87.2499 14.91 88.0999 15.1C88.3999 15.2 88.6999 15.2 88.9999 15.3C89.2999 15.4 89.3999 15.4 89.3999 15.6C89.3999 15.8 89.1999 15.9 89.0999 16C88.9999 16.1 88.6999 16.3 88.4999 16.5C88.2999 16.7 88.2999 16.6 88.1999 16.7C87.5999 17.2 86.9999 17.6 86.3999 18.1L84.9999 19.2C84.7999 19.3 84.5999 19.5 84.3999 19.6C83.7999 20.1 83.1999 20.6 82.6999 21.1C82.5999 21.2 82.4999 21.2 82.4999 21.3C81.8899 21.8 81.4999 22.52 81.3999 23.3C81.3999 24.3 82.1999 24.7 83.0999 25.1L84.0999 25.4C85.2499 25.76 86.4199 26.06 87.5999 26.3C88.4999 26.5 89.4999 26.8 90.3999 27C92.1999 27.4 94.4999 28.6 95.3999 26C95.6399 25.43 95.7499 24.82 95.6999 24.2C95.5999 23.3 94.8999 22.9 94.0999 22.7C93.2499 22.41 92.3799 22.17 91.4999 22C91.2999 22 91.0999 21.9 90.8999 21.9C90.6999 21.9 90.4999 21.9 90.3999 21.8C90.2999 21.7 90.5999 21.4 90.6999 21.3C91.0999 21 91.4999 20.7 91.9999 20.3L93.2999 19.3C93.5199 19.11 93.7499 18.94 93.9999 18.8C94.4899 18.46 94.9499 18.09 95.3999 17.7C96.4999 16.6 99.1999 15.3 98.0999 13.4C97.9699 12.84 97.5999 12.37 97.0999 12.1Z" fill="#5F7AFF" style="fill:#5F7AFF;fill:color(display-p3 0.3725 0.4784 1.0000);fill-opacity:1;"/>
<path d="M123.6 9.00004C123.22 8.36004 122.67 7.83004 122 7.50004C121.48 7.29004 120.95 7.12004 120.4 7.00004C119.75 6.79004 119.08 6.62004 118.4 6.50004C117.4 6.20004 116.3 6.00004 115.3 5.80004C114.1 5.50004 112.8 5.10004 111.6 4.80004C109.2 4.20004 106.2 2.60004 104.9 6.10004C104.57 6.86004 104.44 7.68004 104.5 8.50004C104.68 9.56004 105.54 10.37 106.6 10.5C107.72 10.86 108.85 11.16 110 11.4C110.4 11.5 110.8 11.6 111.1 11.7C111.4 11.8 111.7 11.8 111.7 12.1C111.66 12.32 111.51 12.51 111.3 12.6C111 12.8 110.8 13 110.5 13.2C110.39 13.32 110.25 13.43 110.1 13.5C109.3 14.1 108.5 14.7 107.8 15.3L106 16.8C105.75 17.02 105.48 17.22 105.2 17.4C104.4 18 103.7 18.7 102.9 19.4L102.6 19.7C101.8 20.34 101.29 21.28 101.2 22.3C101.2 23.6 102.3 24.2 103.5 24.7C103.92 24.88 104.35 25.01 104.8 25.1H104.9C106.4 25.6 108 25.9 109.6 26.3L113.3 27.2C115.7 27.8 118.8 29.4 120 25.9C120.33 25.14 120.46 24.32 120.4 23.5C120.22 22.44 119.36 21.63 118.3 21.5C117.2 21.08 116.06 20.74 114.9 20.5C114.6 20.4 114.4 20.4 114.1 20.3C113.88 20.3 113.68 20.23 113.5 20.1C113.2 19.8 113.7 19.5 113.9 19.4C114.49 19 115.06 18.56 115.6 18.1C116.2 17.6 116.8 17.2 117.3 16.7C117.62 16.5 117.93 16.26 118.2 16C118.84 15.56 119.45 15.05 120 14.5C121.5 13.2 125 11.4 123.6 9.00004Z" fill="#5F7AFF" style="fill:#5F7AFF;fill:color(display-p3 0.3725 0.4784 1.0000);fill-opacity:1;"/>
<path d="M55.6999 99.3C51.8699 99.23 48.8199 96.06 48.8899 92.23C48.9099 90.94 49.2999 89.68 49.9999 88.6C53.0999 83.8 57.9999 81.3 63.9999 81.3C69.9999 81.3 74.8999 83.8 77.9999 88.6C79.3899 90.7 79.4999 93.39 78.2999 95.6C77.1099 97.82 74.8199 99.24 72.2999 99.3C71.5099 99.32 70.7299 99.19 69.9999 98.9C68.0699 98.23 66.0399 97.89 63.9999 97.9C61.9599 97.88 59.9299 98.22 57.9999 98.9C57.2599 99.17 56.4799 99.31 55.6999 99.3Z" fill="#49362E" style="fill:#49362E;fill:color(display-p3 0.2863 0.2118 0.1804);fill-opacity:1;"/>
<path d="M55.6999 99.3C51.8699 99.23 48.8199 96.06 48.8899 92.23C48.9099 90.94 49.2999 89.68 49.9999 88.6C53.0999 83.8 57.9999 81.3 63.9999 81.3C69.9999 81.3 74.8999 83.8 77.9999 88.6C79.3899 90.7 79.4999 93.39 78.2999 95.6C77.1099 97.82 74.8199 99.24 72.2999 99.3C71.5099 99.32 70.7299 99.19 69.9999 98.9C68.0699 98.23 66.0399 97.89 63.9999 97.9C61.9599 97.88 59.9299 98.22 57.9999 98.9C57.2599 99.17 56.4799 99.31 55.6999 99.3Z" fill="#1A1717" style="fill:#1A1717;fill:color(display-p3 0.1020 0.0902 0.0902);fill-opacity:1;"/>
<path d="M55.6999 99.3C51.8699 99.23 48.8199 96.06 48.8899 92.23C48.9099 90.94 49.2999 89.68 49.9999 88.6C53.0999 83.8 57.9999 81.3 63.9999 81.3C69.9999 81.3 74.8999 83.8 77.9999 88.6C79.3899 90.7 79.4999 93.39 78.2999 95.6C77.1099 97.82 74.8199 99.24 72.2999 99.3C71.5099 99.32 70.7299 99.19 69.9999 98.9C68.0699 98.23 66.0399 97.89 63.9999 97.9C61.9599 97.88 59.9299 98.22 57.9999 98.9C57.2599 99.17 56.4799 99.31 55.6999 99.3Z" fill="#5D4037" style="fill:#5D4037;fill:color(display-p3 0.3647 0.2510 0.2157);fill-opacity:1;"/>
<defs>
<radialGradient id="paint0_radial_169_13510" cx="0" cy="0" r="1" gradientUnits="userSpaceOnUse" gradientTransform="translate(63.6001 62.8999) scale(56.9597 56.9597)">
<stop offset="0.5" stop-color="#FDE030" style="stop-color:#FDE030;stop-color:color(display-p3 0.9922 0.8784 0.1882);stop-opacity:1;"/>
<stop offset="0.92" stop-color="#F7C02B" style="stop-color:#F7C02B;stop-color:color(display-p3 0.9686 0.7529 0.1686);stop-opacity:1;"/>
<stop offset="1" stop-color="#F4A223" style="stop-color:#F4A223;stop-color:color(display-p3 0.9569 0.6353 0.1373);stop-opacity:1;"/>
</radialGradient>
<radialGradient id="paint1_radial_169_13510" cx="0" cy="0" r="1" gradientUnits="userSpaceOnUse" gradientTransform="translate(38.5991 34.5377) rotate(-43.2082) scale(102.024 101.825)">
<stop offset="0.3533" stop-color="#F9DDBD" style="stop-color:#F9DDBD;stop-color:color(display-p3 0.9765 0.8667 0.7412);stop-opacity:1;"/>
<stop offset="0.8723" stop-color="#FFD29C" style="stop-color:#FFD29C;stop-color:color(display-p3 1.0000 0.8235 0.6118);stop-opacity:1;"/>
</radialGradient>
<radialGradient id="paint2_radial_169_13510" cx="0" cy="0" r="1" gradientUnits="userSpaceOnUse" gradientTransform="translate(38.5991 34.5377) rotate(-43.2082) scale(102.024 101.825)">
<stop offset="0.3533" stop-color="#70534A" style="stop-color:#70534A;stop-color:color(display-p3 0.4392 0.3255 0.2902);stop-opacity:1;"/>
<stop offset="0.8723" stop-color="#5C4037" style="stop-color:#5C4037;stop-color:color(display-p3 0.3608 0.2510 0.2157);stop-opacity:1;"/>
</radialGradient>
<radialGradient id="paint3_radial_169_13510" cx="0" cy="0" r="1" gradientUnits="userSpaceOnUse" gradientTransform="translate(38.5991 34.5377) rotate(-43.2082) scale(102.024 101.825)">
<stop offset="0.3533" stop-color="#A37A58" style="stop-color:#A37A58;stop-color:color(display-p3 0.6375 0.4772 0.3453);stop-opacity:1;"/>
<stop offset="0.8723" stop-color="#8D5738" style="stop-color:#8D5738;stop-color:color(display-p3 0.5529 0.3412 0.2196);stop-opacity:1;"/>
</radialGradient>
<radialGradient id="paint4_radial_169_13510" cx="0" cy="0" r="1" gradientUnits="userSpaceOnUse" gradientTransform="translate(38.5991 34.5377) rotate(-43.2082) scale(102.024 101.825)">
<stop offset="0.3533" stop-color="#AD8264" style="stop-color:#AD8264;stop-color:color(display-p3 0.6784 0.5098 0.3922);stop-opacity:1;"/>
<stop offset="0.8723" stop-color="#A47B62" style="stop-color:#A47B62;stop-color:color(display-p3 0.6431 0.4824 0.3843);stop-opacity:1;"/>
</radialGradient>
</defs>
</svg>
