<svg width="129" height="129" viewBox="0 0 129 129" fill="none" xmlns="http://www.w3.org/2000/svg">
<path d="M80.2062 120.5C80.2062 122.71 73.3562 124.5 64.9062 124.5C56.4562 124.5 49.6062 122.71 49.6062 120.5C49.6062 118.29 56.4562 116.49 64.9062 116.49C73.3562 116.49 80.2062 118.28 80.2062 120.5Z" fill="url(#paint0_radial_2634_2063)" style=""/>
<path d="M65.6347 8.43018C50.5842 8.43018 50.7054 22.3466 50.7054 22.5668C50.7054 31.5802 51.3953 44.3112 55.0029 49.3207C56.4341 51.3062 59.1976 51.4163 59.1976 51.4163L65.4255 51.4089L71.6534 51.4199C71.6534 51.4199 74.4205 51.3098 75.8482 49.3244C79.4557 44.3149 80.1457 31.5839 80.1457 22.5705C80.142 22.3466 80.6851 8.43018 65.6347 8.43018Z" fill="#3C2C23" style="fill:#3C2C23;fill:color(display-p3 0.2353 0.1725 0.1373);fill-opacity:1;"/>
<path d="M64.9062 36.35H60.8662V40.63C60.8662 42.57 62.5162 44.14 64.5362 44.14H65.2662C67.2962 44.14 68.9462 42.57 68.9462 40.63V36.35H64.9062Z" fill="#7A4C32" style="fill:#7A4C32;fill:color(display-p3 0.4784 0.2980 0.1961);fill-opacity:1;"/>
<path d="M49.6063 70.62C49.8363 71.83 50.3463 72.96 51.0863 73.94C52.3463 75.61 54.6763 75.48 55.5363 75.5C57.1263 75.54 56.4363 71.43 56.4163 71.3C56.4163 71.3 56.0763 64.85 51.8363 64.85C50.1063 64.89 48.8263 66.47 49.1463 68.17L49.6063 70.62Z" fill="url(#paint1_linear_2634_2063)" style=""/>
<path d="M80.2063 70.62C79.9763 71.83 79.4663 72.96 78.7263 73.94C77.4663 75.61 75.1363 75.48 74.2763 75.5C72.6863 75.54 73.3763 71.43 73.3963 71.3C73.3963 71.3 73.7363 64.85 77.9763 64.85C79.7063 64.89 80.9863 66.47 80.6663 68.17L80.2063 70.62Z" fill="url(#paint2_linear_2634_2063)" style=""/>
<path d="M65.0863 108.367C65.0763 110.166 65.0163 112.62 62.7463 112.62C60.0863 112.62 58.7363 105.773 58.5563 104.078C58.4725 103.295 58.4277 102.192 58.4038 101.237C58.3762 100.134 59.2697 99.2391 60.3729 99.2372L62.1214 99.2342C63.7879 99.2313 65.1374 100.587 65.1265 102.254L65.0863 108.367Z" fill="url(#paint3_linear_2634_2063)" style=""/>
<path d="M64.1963 105.75C64.1863 106.84 63.4063 108.32 62.5463 108.32C60.6763 108.32 59.7163 104.19 59.5963 103.18C59.4763 102.17 59.4663 100.98 59.4663 100.98L64.2363 100.97L64.1963 105.75Z" fill="#A56C43" style="fill:#A56C43;fill:color(display-p3 0.6471 0.4235 0.2627);fill-opacity:1;"/>
<path d="M65.0763 108.367C65.0863 110.166 65.2663 112.62 67.4163 112.62C70.0763 112.62 71.4263 105.772 71.6063 104.078C71.69 103.29 71.7348 102.189 71.7588 101.237C71.7865 100.134 70.893 99.2389 69.7898 99.237L68.0413 99.234C66.3747 99.2311 65.0253 100.587 65.0362 102.254L65.0763 108.367Z" fill="url(#paint4_linear_2634_2063)" style=""/>
<path d="M65.9663 105.75C65.9763 106.84 66.7563 108.32 67.6163 108.32C69.4863 108.32 70.4363 104.19 70.5663 103.18C70.6963 102.17 70.6963 100.98 70.6963 100.98L65.9263 100.97L65.9663 105.75Z" fill="#A56C43" style="fill:#A56C43;fill:color(display-p3 0.6471 0.4235 0.2627);fill-opacity:1;"/>
<path d="M63.3766 77.1897H57.1951L59.4534 101.109C59.5273 101.877 60.1693 102.46 60.9369 102.46H64.2471L63.3766 77.1897Z" fill="#A56C43" style="fill:#A56C43;fill:color(display-p3 0.6471 0.4235 0.2627);fill-opacity:1;"/>
<path d="M65.9096 102.46L66.624 77.1897H73.0775L70.8118 101.109C70.7454 101.877 70.1033 102.46 69.3283 102.46H65.9096Z" fill="#A56C43" style="fill:#A56C43;fill:color(display-p3 0.6471 0.4235 0.2627);fill-opacity:1;"/>
<path d="M70.8163 89.7886H59.4463C58.4063 89.7886 57.5363 89.2909 57.4363 88.6358L54.3763 68.2202H75.8963L72.8263 88.6358C72.7363 89.2909 71.8663 89.7886 70.8163 89.7886Z" fill="#8F8F8F" style="fill:#8F8F8F;fill:color(display-p3 0.5608 0.5608 0.5608);fill-opacity:1;"/>
<path d="M70.8163 89.7886H59.4463C58.4063 89.7886 57.5363 89.2909 57.4363 88.6358L54.3763 68.2202H75.8963L72.8263 88.6358C72.7363 89.2909 71.8663 89.7886 70.8163 89.7886Z" fill="url(#paint5_linear_2634_2063)" style=""/>
<path d="M74.5663 69.3602H80.1263C81.1763 69.3602 82.0463 68.5602 82.1363 67.5202L82.3963 64.6402H74.5663V69.3602Z" fill="#E5E5E5" style="fill:#E5E5E5;fill:color(display-p3 0.8980 0.8980 0.8980);fill-opacity:1;"/>
<path d="M56.0363 69.3602H50.4763C49.4263 69.3602 48.5563 68.5602 48.4663 67.5202L48.2063 64.6402H56.0363V69.3602Z" fill="#E5E5E5" style="fill:#E5E5E5;fill:color(display-p3 0.8980 0.8980 0.8980);fill-opacity:1;"/>
<path d="M80.6563 38.3C80.6563 38.3 74.7063 36.56 68.9063 35.97L66.7934 38.7986C66.0012 39.8592 64.4155 39.8713 63.6072 38.8228L61.4463 36.02C55.6563 36.65 49.6463 38.31 49.6463 38.31C46.9163 39.05 45.8263 41.68 46.1563 45.73L48.0263 66H54.1463L54.8463 73.29H75.4763L76.1763 66H82.2963L84.1563 45.72C84.4763 41.67 83.3963 39.04 80.6563 38.3Z" fill="url(#paint6_linear_2634_2063)" style=""/>
<path opacity="0.5" d="M52.8263 48.0802L53.8363 65.0202H55.0363L54.7263 47.8802C54.7063 47.5502 54.3663 47.0502 53.6663 47.1202C52.9663 47.1802 52.7763 47.7502 52.8263 48.0802Z" fill="url(#paint7_linear_2634_2063)" style=""/>
<path opacity="0.5" d="M77.5362 48.0802L76.4962 64.9702L75.3962 65.0102L75.6362 47.8802C75.6562 47.5502 75.9962 47.0502 76.6962 47.1202C77.3962 47.1802 77.5862 47.7502 77.5362 48.0802Z" fill="url(#paint8_linear_2634_2063)" style=""/>
<path d="M64.9062 7.5C58.7362 7.5 53.0262 14.09 53.0262 23.58C53.0262 33.02 58.9062 37.68 64.9062 37.68C70.9062 37.68 76.7862 33.01 76.7862 23.58C76.7862 14.09 71.0762 7.5 64.9062 7.5Z" fill="#A56C43" style="fill:#A56C43;fill:color(display-p3 0.6471 0.4235 0.2627);fill-opacity:1;"/>
<path d="M56.4362 21.9C57.1362 20.84 58.6362 20.48 59.8162 20.72C60.4462 20.84 61.0862 21.14 61.5362 21.62C61.9162 22.03 62.1062 22.78 61.2862 22.79C60.9862 22.8 60.6462 22.57 60.3662 22.48C59.7262 22.29 59.0362 22.24 58.3762 22.35C58.0562 22.4 57.7362 22.51 57.4262 22.61C57.1962 22.69 57.0462 22.84 56.7862 22.78C56.4262 22.69 56.2062 22.25 56.4362 21.9Z" fill="#42312C" style="fill:#42312C;fill:color(display-p3 0.2588 0.1922 0.1725);fill-opacity:1;"/>
<path d="M72.7562 22.7501C71.8862 22.2901 70.8062 22.1701 69.8562 22.3801C69.3962 22.4801 67.3962 23.3101 68.1162 21.8901C68.6962 20.7501 70.5662 20.4801 71.6362 20.7401C72.2062 20.8801 72.8462 21.1701 73.2362 21.6301C73.6162 22.0501 73.5962 23.0901 72.7562 22.7501Z" fill="#42312C" style="fill:#42312C;fill:color(display-p3 0.2588 0.1922 0.1725);fill-opacity:1;"/>
<path d="M67.8863 31.65C66.7563 32.32 63.0563 32.32 61.9263 31.65C61.2763 31.26 60.6163 31.85 60.8863 32.44C61.1463 33.02 63.1663 34.36 64.9163 34.36C66.6663 34.36 68.6563 33.02 68.9163 32.44C69.1863 31.86 68.5363 31.27 67.8863 31.65Z" fill="#473530" style="fill:#473530;fill:color(display-p3 0.2784 0.2078 0.1882);fill-opacity:1;"/>
<path d="M66.2763 28.31C66.2363 28.3 66.1963 28.29 66.1663 28.28H63.6563C63.6163 28.28 63.5763 28.29 63.5463 28.31C63.3163 28.4 63.1963 28.64 63.3063 28.89C63.4163 29.14 63.9163 29.84 64.9163 29.84C65.9263 29.84 66.4163 29.14 66.5263 28.89C66.6263 28.64 66.4963 28.41 66.2763 28.31Z" fill="#875334" style="fill:#875334;fill:color(display-p3 0.5294 0.3255 0.2039);fill-opacity:1;"/>
<path d="M76.2662 27.66C76.2462 27.49 77.5162 25.37 77.7362 23.22C77.8162 22.47 78.3462 19.96 77.8062 18.38C76.1862 11.9 71.8462 8 64.8562 8C57.5162 8 53.0062 11.9 51.7662 18.88C51.7662 20.17 52.3162 22.15 52.3162 22.15C52.0962 26 53.3062 27.86 53.3062 27.86C53.3062 27.86 54.8162 21.25 54.6762 20.24C54.6762 20.24 57.4562 19.69 60.6062 17.88C62.7362 16.66 64.1962 15.23 66.5862 14.69C70.2262 13.87 71.0462 16.51 71.0462 16.51C71.0462 16.51 74.4162 15.86 75.4362 20.55C75.8562 22.48 76.0362 25.7 76.2662 27.66Z" fill="#3C2C23" style="fill:#3C2C23;fill:color(display-p3 0.2353 0.1725 0.1373);fill-opacity:1;"/>
<path d="M77.9963 15.38C77.9963 15.38 76.7563 8.04 75.3163 6.39C73.8863 4.76 68.2763 4.51 64.9063 4.5C61.5363 4.51 55.9263 4.76 54.4963 6.39C53.0463 8.04 51.8163 15.38 51.8163 15.38C51.8163 15.38 46.3163 17.01 48.7063 18.41C49.8763 19.09 54.9863 19.52 64.9063 19.53C74.8263 19.52 79.9363 19.1 81.1063 18.41C83.5063 17.01 77.9963 15.38 77.9963 15.38Z" fill="url(#paint9_linear_2634_2063)" style=""/>
<path d="M76.5562 22.62L76.2962 22.56C74.6362 22.17 72.9462 21.98 71.2562 21.98C70.6262 21.98 69.5862 22.13 68.5362 22.31C66.1562 22.73 63.7162 22.73 61.3462 22.31C60.2762 22.12 59.2262 21.97 58.5862 21.97C56.8862 21.97 55.1962 22.17 53.5362 22.55L53.2762 22.61C53.0662 22.66 52.8962 22.84 52.8962 23.04V24.12C52.8962 24.39 53.1662 24.6 53.4562 24.56L53.8962 27.33C54.1862 29.22 55.8362 30.91 58.6462 30.91C61.5562 30.91 63.0062 28.24 63.6962 26.01C63.8662 25.48 64.3562 25.11 64.9162 25.11C64.9262 25.11 64.9262 25.11 64.9362 25.11C65.4962 25.11 65.9862 25.48 66.1562 26.01C66.8562 28.24 68.2962 30.91 71.2062 30.91C74.0162 30.91 75.6662 29.22 75.9562 27.33L76.3762 24.56C76.6562 24.59 76.9162 24.39 76.9162 24.12V23.04C76.9262 22.85 76.7762 22.67 76.5562 22.62Z" fill="url(#paint10_linear_2634_2063)" style=""/>
<defs>
<radialGradient id="paint0_radial_2634_2063" cx="0" cy="0" r="1" gradientUnits="userSpaceOnUse" gradientTransform="translate(64.9057 120.494) scale(15.2017 4.63652)">
<stop offset="0.1396" stop-color="#504F4F" stop-opacity="0.8" style="stop-color:#504F4F;stop-color:color(display-p3 0.3137 0.3098 0.3098);stop-opacity:0.8;"/>
<stop offset="0.8722" stop-color="#616161" stop-opacity="0" style="stop-color:none;stop-opacity:0;"/>
</radialGradient>
<linearGradient id="paint1_linear_2634_2063" x1="52.8402" y1="69.8961" x2="52.8402" y2="80.5433" gradientUnits="userSpaceOnUse">
<stop stop-color="#8D5738" style="stop-color:#8D5738;stop-color:color(display-p3 0.5529 0.3412 0.2196);stop-opacity:1;"/>
<stop offset="0.5" stop-color="#A56C43" style="stop-color:#A56C43;stop-color:color(display-p3 0.6471 0.4235 0.2627);stop-opacity:1;"/>
</linearGradient>
<linearGradient id="paint2_linear_2634_2063" x1="76.9724" y1="69.5527" x2="76.9724" y2="80.1999" gradientUnits="userSpaceOnUse">
<stop stop-color="#8D5738" style="stop-color:#8D5738;stop-color:color(display-p3 0.5529 0.3412 0.2196);stop-opacity:1;"/>
<stop offset="0.5" stop-color="#A56C43" style="stop-color:#A56C43;stop-color:color(display-p3 0.6471 0.4235 0.2627);stop-opacity:1;"/>
</linearGradient>
<linearGradient id="paint3_linear_2634_2063" x1="61.7543" y1="98.958" x2="61.7543" y2="112.239" gradientUnits="userSpaceOnUse">
<stop stop-color="#212121" style="stop-color:#212121;stop-color:color(display-p3 0.1294 0.1294 0.1294);stop-opacity:1;"/>
<stop offset="0.7876" stop-color="#616161" style="stop-color:#616161;stop-color:color(display-p3 0.3804 0.3804 0.3804);stop-opacity:1;"/>
</linearGradient>
<linearGradient id="paint4_linear_2634_2063" x1="68.4023" y1="98.9581" x2="68.4023" y2="112.239" gradientUnits="userSpaceOnUse">
<stop stop-color="#212121" style="stop-color:#212121;stop-color:color(display-p3 0.1294 0.1294 0.1294);stop-opacity:1;"/>
<stop offset="0.7876" stop-color="#616161" style="stop-color:#616161;stop-color:color(display-p3 0.3804 0.3804 0.3804);stop-opacity:1;"/>
</linearGradient>
<linearGradient id="paint5_linear_2634_2063" x1="65.1398" y1="66.2771" x2="65.1398" y2="87.6967" gradientUnits="userSpaceOnUse">
<stop stop-color="#212121" style="stop-color:#212121;stop-color:color(display-p3 0.1294 0.1294 0.1294);stop-opacity:1;"/>
<stop offset="0.8778" stop-color="#616161" style="stop-color:#616161;stop-color:color(display-p3 0.3804 0.3804 0.3804);stop-opacity:1;"/>
</linearGradient>
<linearGradient id="paint6_linear_2634_2063" x1="65.1561" y1="39.9267" x2="65.1561" y2="77.8369" gradientUnits="userSpaceOnUse">
<stop offset="0.3285" stop-color="#5F5F5F" style="stop-color:#5F5F5F;stop-color:color(display-p3 0.3725 0.3725 0.3725);stop-opacity:1;"/>
<stop offset="1" stop-color="#212121" style="stop-color:#212121;stop-color:color(display-p3 0.1294 0.1294 0.1294);stop-opacity:1;"/>
</linearGradient>
<linearGradient id="paint7_linear_2634_2063" x1="53.9273" y1="65.0192" x2="53.9273" y2="47.1056" gradientUnits="userSpaceOnUse">
<stop stop-color="#616161" stop-opacity="0.2" style="stop-color:#616161;stop-color:color(display-p3 0.3804 0.3804 0.3804);stop-opacity:0.2;"/>
<stop offset="0.7537" stop-color="#212121" style="stop-color:#212121;stop-color:color(display-p3 0.1294 0.1294 0.1294);stop-opacity:1;"/>
</linearGradient>
<linearGradient id="paint8_linear_2634_2063" x1="76.4711" y1="65.0072" x2="76.4711" y2="47.1066" gradientUnits="userSpaceOnUse">
<stop stop-color="#616161" stop-opacity="0.2" style="stop-color:#616161;stop-color:color(display-p3 0.3804 0.3804 0.3804);stop-opacity:0.2;"/>
<stop offset="0.7537" stop-color="#212121" style="stop-color:#212121;stop-color:color(display-p3 0.1294 0.1294 0.1294);stop-opacity:1;"/>
</linearGradient>
<linearGradient id="paint9_linear_2634_2063" x1="64.9066" y1="3.1618" x2="64.9066" y2="22.4204" gradientUnits="userSpaceOnUse">
<stop offset="0.4429" stop-color="#5F5F5F" style="stop-color:#5F5F5F;stop-color:color(display-p3 0.3725 0.3725 0.3725);stop-opacity:1;"/>
<stop offset="1" stop-color="#212121" style="stop-color:#212121;stop-color:color(display-p3 0.1294 0.1294 0.1294);stop-opacity:1;"/>
</linearGradient>
<linearGradient id="paint10_linear_2634_2063" x1="64.9082" y1="21.7643" x2="64.9082" y2="30.7857" gradientUnits="userSpaceOnUse">
<stop offset="0.005" stop-color="#616161" style="stop-color:#616161;stop-color:color(display-p3 0.3804 0.3804 0.3804);stop-opacity:1;"/>
<stop offset="0.4" stop-color="#212121" style="stop-color:#212121;stop-color:color(display-p3 0.1294 0.1294 0.1294);stop-opacity:1;"/>
</linearGradient>
</defs>
</svg>
