<svg width="128" height="128" viewBox="0 0 128 128" fill="none" xmlns="http://www.w3.org/2000/svg">
<path d="M63.6001 118.8C35.7001 118.8 5.6001 101.3 5.6001 62.9C5.6001 24.5 35.7001 7 63.6001 7C79.1001 7 93.4001 12.1 104 21.4C115.5 31.6 121.6 46 121.6 62.9C121.6 79.8 115.5 94.1 104 104.3C93.4001 113.6 79.0001 118.8 63.6001 118.8Z" fill="url(#paint0_radial_169_6128)" style=""/>
<path d="M63.6001 118.8C35.7001 118.8 5.6001 101.3 5.6001 62.9C5.6001 24.5 35.7001 7 63.6001 7C79.1001 7 93.4001 12.1 104 21.4C115.5 31.6 121.6 46 121.6 62.9C121.6 79.8 115.5 94.1 104 104.3C93.4001 113.6 79.0001 118.8 63.6001 118.8Z" fill="url(#paint1_radial_169_6128)" style=""/>
<path d="M111.49 29.6699C116.82 38.2699 119.6 48.5099 119.6 59.8999C119.6 76.7999 113.5 91.0999 102 101.3C91.3999 110.6 76.9999 115.8 61.5999 115.8C43.5399 115.8 24.5999 108.45 13.4199 92.8599C24.1799 110.52 44.4199 118.8 63.5999 118.8C78.9999 118.8 93.3999 113.6 104 104.3C115.5 94.0999 121.6 79.7999 121.6 62.8999C121.6 50.1599 118.13 38.8399 111.49 29.6699Z" fill="#EB8F00" style="fill:#EB8F00;fill:color(display-p3 0.9216 0.5608 0.0000);fill-opacity:1;"/>
<path d="M111.49 29.6699C116.82 38.2699 119.6 48.5099 119.6 59.8999C119.6 76.7999 113.5 91.0999 102 101.3C91.3999 110.6 76.9999 115.8 61.5999 115.8C43.5399 115.8 24.5999 108.45 13.4199 92.8599C24.1799 110.52 44.4199 118.8 63.5999 118.8C78.9999 118.8 93.3999 113.6 104 104.3C115.5 94.0999 121.6 79.7999 121.6 62.8999C121.6 50.1599 118.13 38.8399 111.49 29.6699Z" fill="#F3B872" style="fill:#F3B872;fill:color(display-p3 0.9542 0.7229 0.4453);fill-opacity:1;"/>
<path d="M48.5998 54.7L48.3998 54.9L47.8998 55.4C47.6998 55.6 47.4998 55.7 47.1998 56C46.8798 56.26 46.5498 56.49 46.1998 56.7C45.7998 56.9 45.3998 57.2 44.9998 57.4C44.5998 57.6 44.0998 57.8 43.5998 58C43.1098 58.18 42.6098 58.31 42.0998 58.4C41.5698 58.49 41.0398 58.52 40.4998 58.5H39.5998C39.3598 58.52 39.1198 58.48 38.8998 58.4C38.3898 58.31 37.8898 58.18 37.3998 58C36.9198 57.84 36.4498 57.64 35.9998 57.4C35.5998 57.2 35.1998 56.9 34.7998 56.7C34.0998 56.2 33.4998 55.7 33.0998 55.4L32.4998 54.8L32.2998 54.6C31.0098 53.44 29.0798 53.36 27.6998 54.4C26.7298 55.16 26.3998 56.48 26.8998 57.6L27.0998 57.9C27.2098 58.18 27.3498 58.44 27.4998 58.7C28.1098 59.73 28.8498 60.67 29.6998 61.5C30.2898 62.08 30.9298 62.62 31.5998 63.1C32.3898 63.65 33.2198 64.12 34.0998 64.5C35.0598 64.94 36.0698 65.27 37.0998 65.5L38.7998 65.8C39.0998 65.8 39.4998 65.9 39.5998 65.9H40.3998C41.5098 65.9 42.6098 65.8 43.6998 65.6C44.7398 65.39 45.7398 65.05 46.6998 64.6C47.5798 64.22 48.4098 63.75 49.1998 63.2C49.8998 62.75 50.5398 62.21 51.0998 61.6C51.5898 61.15 52.0298 60.65 52.3998 60.1C52.5998 59.9 52.6998 59.6 52.8998 59.4C53.0998 59.2 53.1998 59 53.2998 58.8C53.4698 58.56 53.6098 58.29 53.6998 58L53.7998 57.8C54.4198 56.4 53.7798 54.75 52.3798 54.13C52.2598 54.08 52.1298 54.03 51.9998 54C50.8298 53.49 49.4698 53.77 48.5998 54.7Z" fill="#312D2D" style="fill:#312D2D;fill:color(display-p3 0.1922 0.1765 0.1765);fill-opacity:1;"/>
<path d="M93.4997 54.7L93.2997 54.9L92.7997 55.4C92.5997 55.6 92.3997 55.7 92.0997 56C91.7797 56.26 91.4497 56.49 91.0997 56.7C90.6997 56.9 90.2997 57.2 89.8997 57.4C89.4997 57.6 88.9997 57.8 88.4997 58C88.0097 58.18 87.5097 58.31 86.9997 58.4C86.4697 58.49 85.9397 58.52 85.3997 58.5H84.4997C84.2597 58.51 84.0297 58.47 83.7997 58.4C83.2897 58.31 82.7897 58.18 82.2997 58C81.8197 57.84 81.3497 57.64 80.8997 57.4C80.4997 57.2 80.0997 56.9 79.6997 56.7C78.9997 56.2 78.3997 55.7 77.9997 55.4L77.3997 54.8L77.1997 54.6C75.9097 53.44 73.9797 53.36 72.5997 54.4C71.6297 55.16 71.2997 56.48 71.7997 57.6L71.9997 57.9C72.1097 58.18 72.2497 58.44 72.3997 58.7C73.0097 59.73 73.7497 60.67 74.5997 61.5C75.1897 62.08 75.8297 62.62 76.4997 63.1C77.2897 63.65 78.1197 64.12 78.9997 64.5C79.9597 64.94 80.9697 65.27 81.9997 65.5L83.6997 65.8C83.9997 65.8 84.3997 65.9 84.4997 65.9H85.2997C86.4097 65.9 87.5097 65.8 88.5997 65.6C89.6397 65.39 90.6397 65.05 91.5997 64.6C92.4797 64.22 93.3097 63.75 94.0997 63.2C94.8197 62.77 95.4597 62.23 95.9997 61.6C96.4897 61.15 96.9297 60.65 97.2997 60.1C97.4997 59.9 97.5997 59.6 97.7997 59.4C97.9997 59.2 98.0997 59 98.1997 58.8C98.3697 58.56 98.5097 58.29 98.5997 58L98.6997 57.8C99.3197 56.4 98.6797 54.75 97.2797 54.13C97.1597 54.08 97.0297 54.03 96.8997 54C95.7297 53.49 94.3697 53.77 93.4997 54.7Z" fill="#312D2D" style="fill:#312D2D;fill:color(display-p3 0.1922 0.1765 0.1765);fill-opacity:1;"/>
<path d="M77.1997 21.6C76.8597 21.41 76.4897 21.27 76.0997 21.2C75.6997 21 75.1997 20.9 74.7997 20.7L72.6997 20.1C71.8997 19.8 70.9997 19.6 70.1997 19.3C68.5997 18.8 66.5997 17.5 65.5997 19.8C65.3297 20.29 65.1897 20.84 65.1997 21.4C65.1997 22.2 65.7997 22.6 66.4997 22.9C67.2397 23.23 68.0097 23.49 68.7997 23.7C69.0497 23.83 69.3197 23.89 69.5997 23.9C69.7997 23.9 69.9997 24 69.9997 24.2C69.9997 24.4 69.7997 24.4 69.6997 24.5C69.5997 24.6 69.2997 24.8 69.0997 24.9L68.7997 25.1C68.2597 25.5 67.6897 25.87 67.0997 26.2C66.6997 26.5 66.1997 26.8 65.7997 27.1C65.5797 27.2 65.3797 27.33 65.1997 27.5C64.6097 27.9 64.0397 28.34 63.4997 28.8L63.2997 29C62.7597 29.43 62.3697 30.03 62.1997 30.7C62.0997 31.6 62.7997 32 63.5997 32.4L64.4997 32.7C65.5497 33.09 66.6197 33.43 67.6997 33.7C68.4997 34 69.3997 34.2 70.1997 34.5C71.7997 35 73.7997 36.3 74.7997 34C75.0697 33.51 75.2097 32.96 75.1997 32.4C75.0997 31.69 74.5897 31.1 73.8997 30.9C73.1597 30.57 72.3897 30.31 71.5997 30.1C71.3997 30.1 71.2997 30 71.0997 29.9C70.8997 29.8 70.7997 29.8 70.6997 29.8C70.4997 29.6 70.8997 29.4 70.9997 29.3C71.4197 29.07 71.8197 28.8 72.1997 28.5C72.6197 28.23 73.0197 27.93 73.3997 27.6C73.5997 27.5 73.7997 27.3 73.9997 27.2C74.3997 26.9 74.8997 26.6 75.2997 26.3C76.3997 25.4 78.8997 24.3 78.0997 22.6C77.8897 22.2 77.5797 21.85 77.1997 21.6Z" fill="#5F7AFF" style="fill:#5F7AFF;fill:color(display-p3 0.3725 0.4784 1.0000);fill-opacity:1;"/>
<path d="M97.0997 12.0999C96.7197 11.9199 96.3097 11.7899 95.8997 11.6999C95.3997 11.5999 94.8997 11.3999 94.3997 11.2999C93.5997 11.0999 92.7997 10.9999 92.0997 10.7999C91.1997 10.5999 90.1997 10.2999 89.2997 10.0999C87.4997 9.69986 85.1997 8.49986 84.2997 11.0999C84.0597 11.6699 83.9497 12.2799 83.9997 12.8999C84.0997 13.7999 84.7997 14.1999 85.5997 14.3999C86.4197 14.6799 87.2497 14.9099 88.0997 15.0999C88.3997 15.1999 88.6997 15.1999 88.9997 15.2999C89.2997 15.3999 89.3997 15.3999 89.3997 15.5999C89.3997 15.7999 89.1997 15.8999 89.0997 15.9999C88.9997 16.0999 88.6997 16.2999 88.4997 16.4999C88.2997 16.6999 88.2997 16.5999 88.1997 16.6999C87.5997 17.1999 86.9997 17.5999 86.3997 18.0999L84.9997 19.1999C84.7997 19.2999 84.5997 19.4999 84.3997 19.5999C83.7997 20.0999 83.1997 20.5999 82.6997 21.0999C82.5997 21.1999 82.4997 21.1999 82.4997 21.2999C81.8897 21.7999 81.4997 22.5199 81.3997 23.2999C81.3997 24.2999 82.1997 24.6999 83.0997 25.0999L84.0997 25.3999C85.2497 25.7599 86.4197 26.0599 87.5997 26.2999C88.4997 26.4999 89.4997 26.7999 90.3997 26.9999C92.1997 27.3999 94.4997 28.5999 95.3997 25.9999C95.6397 25.4299 95.7497 24.8199 95.6997 24.1999C95.5997 23.2999 94.8997 22.8999 94.0997 22.6999C93.2497 22.4099 92.3797 22.1699 91.4997 21.9999C91.2997 21.9999 91.0997 21.8999 90.8997 21.8999C90.6997 21.8999 90.4997 21.8999 90.3997 21.7999C90.2997 21.6999 90.5997 21.3999 90.6997 21.2999C91.0997 20.9999 91.4997 20.6999 91.9997 20.2999L93.2997 19.2999C93.5197 19.1099 93.7497 18.9399 93.9997 18.7999C94.4897 18.4599 94.9497 18.0899 95.3997 17.6999C96.4997 16.5999 99.1997 15.2999 98.0997 13.3999C97.9697 12.8399 97.5997 12.3699 97.0997 12.0999Z" fill="#5F7AFF" style="fill:#5F7AFF;fill:color(display-p3 0.3725 0.4784 1.0000);fill-opacity:1;"/>
<path d="M123.6 8.99992C123.22 8.35992 122.67 7.82992 122 7.49992C121.48 7.28992 120.95 7.11992 120.4 6.99992C119.75 6.78992 119.08 6.61992 118.4 6.49992C117.4 6.19992 116.3 5.99992 115.3 5.79992C114.1 5.49992 112.8 5.09992 111.6 4.79992C109.2 4.19992 106.2 2.59992 104.9 6.09992C104.57 6.85992 104.44 7.67992 104.5 8.49992C104.68 9.55992 105.54 10.3699 106.6 10.4999C107.72 10.8599 108.85 11.1599 110 11.3999C110.4 11.4999 110.8 11.5999 111.1 11.6999C111.4 11.7999 111.7 11.7999 111.7 12.0999C111.66 12.3199 111.51 12.5099 111.3 12.5999C111 12.7999 110.8 12.9999 110.5 13.1999C110.39 13.3199 110.25 13.4299 110.1 13.4999C109.3 14.0999 108.5 14.6999 107.8 15.2999L106 16.7999C105.75 17.0199 105.48 17.2199 105.2 17.3999C104.4 17.9999 103.7 18.6999 102.9 19.3999L102.6 19.6999C101.8 20.3399 101.29 21.2799 101.2 22.2999C101.2 23.5999 102.3 24.1999 103.5 24.6999C103.92 24.8799 104.35 25.0099 104.8 25.0999H104.9C106.4 25.5999 108 25.8999 109.6 26.2999L113.3 27.1999C115.7 27.7999 118.8 29.3999 120 25.8999C120.33 25.1399 120.46 24.3199 120.4 23.4999C120.22 22.4399 119.36 21.6299 118.3 21.4999C117.2 21.0799 116.06 20.7399 114.9 20.4999C114.6 20.3999 114.4 20.3999 114.1 20.2999C113.88 20.2999 113.68 20.2299 113.5 20.0999C113.2 19.7999 113.7 19.4999 113.9 19.3999C114.49 18.9999 115.06 18.5599 115.6 18.0999C116.2 17.5999 116.8 17.1999 117.3 16.6999C117.62 16.4999 117.93 16.2599 118.2 15.9999C118.84 15.5599 119.45 15.0499 120 14.4999C121.5 13.1999 125 11.3999 123.6 8.99992Z" fill="#5F7AFF" style="fill:#5F7AFF;fill:color(display-p3 0.3725 0.4784 1.0000);fill-opacity:1;"/>
<path d="M55.6999 99.2998C51.8699 99.2298 48.8199 96.0598 48.8899 92.2298C48.9099 90.9398 49.2999 89.6798 49.9999 88.5998C53.0999 83.7998 57.9999 81.2998 63.9999 81.2998C69.9999 81.2998 74.8999 83.7998 77.9999 88.5998C79.3899 90.6998 79.4999 93.3898 78.2999 95.5998C77.1099 97.8198 74.8199 99.2398 72.2999 99.2998C71.5099 99.3198 70.7299 99.1898 69.9999 98.8998C68.0699 98.2298 66.0399 97.8898 63.9999 97.8998C61.9599 97.8798 59.9299 98.2198 57.9999 98.8998C57.2599 99.1698 56.4799 99.3098 55.6999 99.2998Z" fill="#312D2D" style="fill:#312D2D;fill:color(display-p3 0.1922 0.1765 0.1765);fill-opacity:1;"/>
<defs>
<radialGradient id="paint0_radial_169_6128" cx="0" cy="0" r="1" gradientUnits="userSpaceOnUse" gradientTransform="translate(63.6001 62.8999) scale(56.9597 56.9597)">
<stop offset="0.5" stop-color="#FDE030" style="stop-color:#FDE030;stop-color:color(display-p3 0.9922 0.8784 0.1882);stop-opacity:1;"/>
<stop offset="0.92" stop-color="#F7C02B" style="stop-color:#F7C02B;stop-color:color(display-p3 0.9686 0.7529 0.1686);stop-opacity:1;"/>
<stop offset="1" stop-color="#F4A223" style="stop-color:#F4A223;stop-color:color(display-p3 0.9569 0.6353 0.1373);stop-opacity:1;"/>
</radialGradient>
<radialGradient id="paint1_radial_169_6128" cx="0" cy="0" r="1" gradientUnits="userSpaceOnUse" gradientTransform="translate(38.5991 34.5377) rotate(-43.2082) scale(102.024 101.825)">
<stop offset="0.3533" stop-color="#F9DDBD" style="stop-color:#F9DDBD;stop-color:color(display-p3 0.9765 0.8667 0.7412);stop-opacity:1;"/>
<stop offset="0.8723" stop-color="#FFD29C" style="stop-color:#FFD29C;stop-color:color(display-p3 1.0000 0.8235 0.6118);stop-opacity:1;"/>
</radialGradient>
</defs>
</svg>
