<svg width="128" height="128" viewBox="0 0 128 128" fill="none" xmlns="http://www.w3.org/2000/svg">
<path d="M23.9902 19.4657C23.9902 19.4657 24.9602 12.8757 26.2202 10.2357C27.4802 7.59569 29.4602 4.81569 33.2602 4.07569C37.7902 3.19569 90.3102 3.65569 93.9502 3.88569C97.6202 4.12569 100.03 5.27569 101.41 7.53569C102.46 9.26569 102.83 11.3757 103.32 14.5057C103.58 16.1557 104.12 20.6757 104.12 20.6757L23.9902 19.4657Z" fill="#FFA828" style="fill:#FFA828;fill:color(display-p3 1.0000 0.6588 0.1569);fill-opacity:1;"/>
<path d="M50.6302 37.3156L22.4702 32.6356C22.4702 32.6356 23.0602 20.9856 24.2802 17.9356C25.5002 14.8856 27.0102 13.0656 31.4402 12.3056C35.8702 11.5456 46.9702 11.8556 63.6202 11.7056C80.2702 11.5556 94.9302 12.5656 97.5302 12.7156C100.13 12.8656 102.57 14.1456 103.33 16.5856C104.09 19.0256 104.46 22.3256 105.01 28.1956C105.21 30.3256 105.03 34.3556 105.03 34.3556L72.7602 36.5556L50.6302 37.3156Z" fill="#F1EDEC" style="fill:#F1EDEC;fill:color(display-p3 0.9451 0.9294 0.9255);fill-opacity:1;"/>
<path d="M22.2302 35.6857C22.4202 32.6357 22.4802 29.3357 24.8002 27.3657C26.7902 25.6857 30.1502 25.9957 34.1202 25.8357C37.7902 25.6957 47.1002 25.7757 64.6702 25.7757C82.2402 25.7757 97.0302 26.0357 99.7802 26.0357C102.53 26.0357 104.87 28.1857 105.17 30.1757C105.48 32.1657 104.1 116.326 103.95 118.156C103.8 119.986 103.19 123.656 99.2102 123.956C95.2402 124.266 32.7702 124.266 30.1702 123.956C27.5702 123.646 25.2802 121.356 24.8202 117.086C24.3602 112.816 22.0702 38.1257 22.2302 35.6857Z" fill="#D8CDC9" style="fill:#D8CDC9;fill:color(display-p3 0.8471 0.8039 0.7882);fill-opacity:1;"/>
<path d="M29.61 50.0259C31.91 50.3259 33.82 40.4159 36.82 38.1059C39.82 35.8059 45.43 34.5959 45.43 32.2959C45.43 31.1459 41.79 31.1559 38.42 31.1959C35.05 31.2359 32.15 30.9559 30.51 32.6959C28.71 34.5959 28.53 37.6459 28.41 40.7059C28.2 45.6159 28.19 49.8359 29.61 50.0259Z" fill="#F1EDEC" style="fill:#F1EDEC;fill:color(display-p3 0.9451 0.9294 0.9255);fill-opacity:1;"/>
<path d="M79.3398 117.656C79.3398 119.336 80.5698 119.886 87.2198 119.656C92.8398 119.466 95.6198 118.756 97.2898 116.746C98.9598 114.746 99.4198 110.546 99.4898 105.506C99.5298 102.016 99.4398 98.6562 97.6798 98.6562C95.1598 98.6562 95.1699 104.406 93.1599 107.636C89.2199 113.976 79.3398 115.416 79.3398 117.656Z" fill="#F1EDEC" style="fill:#F1EDEC;fill:color(display-p3 0.9451 0.9294 0.9255);fill-opacity:1;"/>
<path d="M89.6533 70.0658C88.6295 68.7679 86.677 68.3828 84.7424 68.425C80.7006 68.5252 76.4682 69.5488 72.5217 70.3402C72.4919 66.9794 70.7656 64.009 66.0274 63.8191C65.9081 63.8214 65.7928 63.8578 65.6987 63.9229C65.6047 63.988 65.5369 64.0783 65.5054 64.1803C65.474 64.2823 65.4806 64.3906 65.5242 64.4891C65.5678 64.5875 65.6462 64.6708 65.7476 64.7266C68.9322 66.2671 69.462 68.5516 68.7536 71.0577C64.944 71.7647 61.1224 72.4031 57.3008 73.0309C56.7055 71.2476 56.2293 69.4327 55.7591 67.507C55.7055 67.356 55.5989 67.2241 55.4549 67.1305C55.311 67.0368 55.137 66.9863 54.9584 66.9863C54.7799 66.9863 54.6059 67.0368 54.4619 67.1305C54.3179 67.2241 54.2114 67.356 54.1578 67.507C53.4906 69.4919 53.306 71.5796 53.6161 73.6324C50.4374 74.16 47.2647 74.6876 44.0919 75.2152C43.9402 75.2547 43.807 75.3367 43.7123 75.449C43.6176 75.5612 43.5664 75.6976 43.5664 75.8377C43.5664 75.9779 43.6176 76.1143 43.7123 76.2265C43.807 76.3387 43.9402 76.4207 44.0919 76.4603C47.5038 77.0355 50.9858 77.2128 54.4495 76.9879C54.7805 77.9382 55.1945 78.8643 55.6876 79.7578C56.8782 81.9473 60.5212 80.0321 59.3664 77.8532C59.1461 77.4416 58.9437 77.0301 58.7711 76.6186C60.926 76.3759 63.0748 76.054 65.2118 75.7111C65.6999 75.632 66.1821 75.5423 66.6702 75.4579C65.7 76.9932 64.5809 78.5126 63.5987 79.9055C61.7766 80.7515 60.1366 81.8748 58.7532 83.2241C58.6463 83.3458 58.5884 83.4958 58.5887 83.6501C58.589 83.8044 58.6476 83.9541 58.7551 84.0755C58.8626 84.1969 59.0128 84.2829 59.1819 84.3198C59.3509 84.3567 59.529 84.3425 59.6878 84.2793C60.2434 84.0155 60.8009 83.7622 61.3605 83.5195V83.5723C60.9732 84.5209 60.6687 85.4946 60.4497 86.4846C58.1654 86.9565 55.9263 87.5862 53.753 88.3681C52.8312 87.3236 51.7376 86.4076 50.5089 85.651C50.389 85.5916 50.2521 85.5646 50.1152 85.5733C49.9782 85.5821 49.8471 85.6263 49.7382 85.7004C49.6292 85.7745 49.5472 85.8753 49.5022 85.9903C49.4572 86.1053 49.4512 86.2295 49.485 86.3474C49.86 87.5926 50.4553 88.7797 50.8005 90.0406C51.1458 91.3016 51.1696 92.5995 51.4375 93.8815C51.8244 95.7228 54.8602 95.496 55.396 93.8815C55.6532 93.0952 55.6819 92.2639 55.4793 91.4651C56.9377 90.9639 58.4556 90.526 59.9319 90.1198C59.912 90.4715 59.8981 90.8232 59.8902 91.175C59.664 91.2594 59.4318 91.349 59.2056 91.4493C57.4198 92.2671 58.4139 94.1981 60.0092 94.4355C60.0569 94.9631 60.1283 95.4907 60.2057 95.9761C56.4258 96.9732 52.628 98.1287 48.9493 99.4371C47.8123 98.1181 46.3956 96.9996 44.7824 96.7094C44.701 96.6963 44.6172 96.7009 44.5382 96.7227C44.4592 96.7446 44.3874 96.7831 44.3288 96.835C44.2703 96.8869 44.2269 96.9506 44.2022 97.0206C44.1775 97.0906 44.1723 97.1649 44.1872 97.237C44.6153 98.4046 45.2158 99.517 45.9729 100.545C43.8955 101.352 41.8656 102.212 39.9251 103.13C39.1572 103.494 39.7346 104.365 40.4668 104.275C42.7938 103.974 45.1009 103.562 47.3778 103.041C47.4611 103.231 47.5444 103.42 47.6099 103.621C48.4671 106.206 48.3838 108.686 48.2588 111.345C48.1576 113.503 51.9911 113.983 52.5327 111.873C53.2443 108.789 52.7903 105.583 51.241 102.75C51.1517 102.576 51.0505 102.397 50.9434 102.223C54.3304 101.363 57.6877 100.403 61.0271 99.5373C61.2176 100.197 61.426 100.841 61.6581 101.458C60.9855 101.716 60.3307 101.985 59.6878 102.265C59.289 102.434 58.8128 102.618 58.3306 102.824C57.1214 102.795 55.9149 102.941 54.759 103.257C54.4525 103.34 54.1892 103.517 54.0163 103.756C53.8433 103.995 53.772 104.281 53.8149 104.563C53.8578 104.844 54.0122 105.103 54.2506 105.293C54.489 105.483 54.7958 105.591 55.1162 105.599C55.4495 105.599 55.7769 105.599 56.1043 105.636C56.2204 105.793 56.3994 105.905 56.605 105.949C56.8106 105.993 57.0274 105.966 57.2115 105.874C57.271 105.837 57.3425 105.81 57.402 105.779C61.7176 106.396 65.7357 108.485 69.9025 109.636C73.6229 110.691 78.2362 111.92 82.1947 111.577C88.8854 110.991 88.5461 101.927 86.4806 97.8227C84.1412 93.1693 78.8612 92.61 73.7301 93.164C74.1615 93.0404 74.5782 92.8796 74.9742 92.6839C78.8434 90.7476 78.2481 86.0467 77.9862 82.7123C77.6409 78.3069 74.1765 77.2464 70.212 77.8057L70.5692 77.2781C71.119 76.4154 71.562 75.5027 71.8907 74.5557L73.4205 74.2549C78.2957 74.1389 83.3852 72.3028 88.2009 72.994C88.3689 73.0131 88.5389 73.0131 88.7068 72.994C89.0684 72.9512 89.408 72.8158 89.684 72.6045C89.9601 72.3933 90.1606 72.1152 90.2611 71.8044C90.3616 71.4936 90.3576 71.1636 90.2496 70.8548C90.1417 70.546 89.9344 70.2718 89.6533 70.0658ZM65.3785 98.4399C66.9798 98.0653 68.5929 97.7277 70.212 97.4428C70.1466 98.5402 70.1347 99.6481 70.1704 100.751C69.9541 100.397 69.619 100.112 69.2117 99.9338C68.8043 99.7561 68.3447 99.695 67.8965 99.7589C67.1394 99.854 66.3898 99.9914 65.6523 100.17C65.569 99.5848 65.4738 99.015 65.3726 98.4399H65.3785ZM64.7059 104.127C66.1405 103.858 67.581 103.6 68.9799 103.246C69.2465 103.188 69.4967 103.081 69.7148 102.933C69.933 102.785 70.1144 102.599 70.2478 102.386C70.2478 102.434 70.2478 102.481 70.2478 102.529C70.3251 103.7 70.343 104.951 70.5275 106.153C68.5989 105.531 66.6583 104.766 64.7059 104.127ZM81.5578 98.0654C83.3971 99.7326 83.6769 103.463 83.0578 105.642C82.1411 108.865 78.1231 108.127 74.8848 107.314C74.8313 105.578 74.1943 103.779 73.7717 102.107C73.3491 100.434 72.9086 98.7354 72.3669 97.0788C75.3849 96.5828 79.385 96.0921 81.5578 98.0601V98.0654ZM67.4024 94.2508C66.5155 94.446 65.6166 94.6518 64.7237 94.8628C64.6761 94.5815 64.6325 94.3001 64.5928 94.0187C66.1047 93.8868 67.6167 93.7918 69.1703 93.7232L70.3073 93.6652C69.2953 93.871 68.3191 94.0504 67.4024 94.2456V94.2508ZM68.5929 81.33C70.2894 81.0873 72.986 80.4806 73.8491 82.3535C74.2539 83.2293 73.8789 84.944 73.8491 85.8884C73.8491 87.7403 73.7777 89.1701 71.5811 89.9034C70.2359 90.3519 68.2655 90.0987 66.819 90.1514C65.9678 90.1831 65.1226 90.2147 64.2951 90.2833C64.2951 89.9509 64.2951 89.6185 64.3428 89.2862C64.3428 89.149 64.3725 89.0224 64.3904 88.8852C65.8937 88.4575 67.3667 87.9501 68.8013 87.3657C68.9192 87.3002 69.0134 87.206 69.0726 87.0944C69.1319 86.9828 69.1537 86.8585 69.1356 86.7362C69.1174 86.6139 69.0599 86.4988 68.9701 86.4047C68.8802 86.3105 68.7617 86.2412 68.6286 86.205C67.4521 86.0065 66.2539 85.9269 65.0571 85.9676C65.6712 84.4074 66.4819 82.9137 67.4738 81.5147C67.8786 81.4408 68.2239 81.3775 68.581 81.3247L68.5929 81.33Z" fill="#F44336" style="fill:#F44336;fill:color(display-p3 0.9569 0.2627 0.2118);fill-opacity:1;"/>
<path d="M82.9382 38.1254C83.2556 37.192 82.7064 35.9996 81.2703 35.9951C69.8826 35.9951 57.9456 36.2363 46.8048 38.706C47.0337 38.3913 47.3119 38.1071 47.6311 37.8619C47.6854 37.8106 47.7218 37.7465 47.736 37.6773C47.7502 37.6081 47.7417 37.5368 47.7114 37.4718C47.6811 37.4068 47.6304 37.3509 47.5652 37.3108C47.5 37.2707 47.4232 37.2481 47.3439 37.2456C42.3051 37.1295 41.8314 40.3718 41.6349 44.293C41.3779 49.4424 41.7256 55.7886 44.1543 60.5271C45.0512 62.2777 48.3769 61.4203 48.2408 59.5445C48.2056 59.0979 48.1552 58.629 48.0947 58.169C52.5962 57.9834 57.1065 58.0491 61.5987 58.3655C66.8089 58.7049 72.0644 58.9595 77.2493 58.294C77.4761 58.3554 77.7167 58.3655 77.949 58.3234C78.1814 58.2813 78.3982 58.1883 78.5796 58.0529C78.7692 57.9701 78.9371 57.853 79.0725 57.7092C79.2079 57.5653 79.3078 57.3979 79.3656 57.2177C82.2616 53.914 83.9917 49.9257 84.3389 45.7534C84.5203 43.5025 84.4296 40.2691 82.9382 38.1254ZM58.5099 54.8195C54.8773 54.8134 51.2587 55.2183 47.7418 56.0242C47.5941 55.2388 47.4278 54.4508 47.2609 53.66C46.8584 51.7529 46.4525 49.8294 46.2958 47.8882C46.2515 47.3503 46.1729 46.7563 46.09 46.1304C45.8619 44.4073 45.6017 42.4428 45.9381 40.7425C48.5885 40.7425 51.2389 40.6443 53.8893 40.5326C52.8197 42.4444 52.4954 44.6166 52.9672 46.7091C53.5573 49.7827 55.421 51.6728 57.4283 53.7085C57.7864 54.0717 58.1491 54.4395 58.5099 54.8195ZM60.8077 54.8329C59.3038 52.6158 58.3992 50.0503 57.528 47.5799C57.5059 47.5173 57.4839 47.4549 57.4619 47.3924C56.6847 45.1283 56.5224 42.7334 56.9882 40.4031C59.798 40.2576 62.6029 40.0904 65.4126 39.9229L65.524 39.9163C65.524 39.9431 65.5438 39.9698 65.5622 39.9947C65.5683 40.003 65.5744 40.0112 65.5794 40.019C65.832 40.3869 66.084 40.7392 66.3284 41.0807C68.092 43.5457 69.4556 45.4516 67.7562 48.6563C67.132 49.8325 66.3485 50.9271 65.5655 52.0211C64.8947 52.9582 64.2242 53.8949 63.6546 54.882C63.2452 54.8762 62.8357 54.868 62.4267 54.8598C61.8843 54.8489 61.3427 54.838 60.8026 54.8329H60.8077ZM65.4988 54.94C68.1117 52.9628 70.0737 50.3968 71.1775 47.513C72.3163 44.561 71.9434 41.9975 70.1698 39.6528C72.3163 39.5367 74.4629 39.4295 76.6094 39.3536C76.6385 39.4208 76.6721 39.4864 76.7102 39.5501C79.7637 44.2216 78.2218 50.4651 75.3144 55.0606C72.4156 55.1495 69.4385 55.0593 66.4427 54.9686C66.1265 54.959 65.8102 54.9494 65.4938 54.94H65.4988Z" fill="#464547" style="fill:#464547;fill:color(display-p3 0.2745 0.2706 0.2784);fill-opacity:1;"/>
<path d="M82.9382 38.1254C83.2556 37.192 82.7064 35.9996 81.2703 35.9951C69.8826 35.9951 57.9456 36.2363 46.8048 38.706C47.0337 38.3913 47.3119 38.1071 47.6311 37.8619C47.6854 37.8106 47.7218 37.7465 47.736 37.6773C47.7502 37.6081 47.7417 37.5368 47.7114 37.4718C47.6811 37.4068 47.6304 37.3509 47.5652 37.3108C47.5 37.2707 47.4232 37.2481 47.3439 37.2456C42.3051 37.1295 41.8314 40.3718 41.6349 44.293C41.3779 49.4424 41.7256 55.7886 44.1543 60.5271C45.0512 62.2777 48.3769 61.4203 48.2408 59.5445C48.2056 59.0979 48.1552 58.629 48.0947 58.169C52.5962 57.9834 57.1065 58.0491 61.5987 58.3655C66.8089 58.7049 72.0644 58.9595 77.2493 58.294C77.4761 58.3554 77.7167 58.3655 77.949 58.3234C78.1814 58.2813 78.3982 58.1883 78.5796 58.0529C78.7692 57.9701 78.9371 57.853 79.0725 57.7092C79.2079 57.5653 79.3078 57.3979 79.3656 57.2177C82.2616 53.914 83.9917 49.9257 84.3389 45.7534C84.5203 43.5025 84.4296 40.2691 82.9382 38.1254ZM58.5099 54.8195C54.8773 54.8134 51.2587 55.2183 47.7418 56.0242C47.5941 55.2388 47.4278 54.4508 47.2609 53.66C46.8584 51.7529 46.4525 49.8294 46.2958 47.8882C46.2515 47.3503 46.1729 46.7563 46.09 46.1304C45.8619 44.4073 45.6017 42.4428 45.9381 40.7425C48.5885 40.7425 51.2389 40.6443 53.8893 40.5326C52.8197 42.4444 52.4954 44.6166 52.9672 46.7091C53.5573 49.7827 55.421 51.6728 57.4283 53.7085C57.7864 54.0717 58.1491 54.4395 58.5099 54.8195ZM60.8077 54.8329C59.3038 52.6158 58.3992 50.0503 57.528 47.5799C57.5059 47.5173 57.4839 47.4549 57.4619 47.3924C56.6847 45.1283 56.5224 42.7334 56.9882 40.4031C59.798 40.2576 62.6029 40.0904 65.4126 39.9229L65.524 39.9163C65.524 39.9431 65.5438 39.9698 65.5622 39.9947C65.5683 40.003 65.5744 40.0112 65.5794 40.019C65.832 40.3869 66.084 40.7392 66.3284 41.0807C68.092 43.5457 69.4556 45.4516 67.7562 48.6563C67.132 49.8325 66.3485 50.9271 65.5655 52.0211C64.8947 52.9582 64.2242 53.8949 63.6546 54.882C63.2452 54.8762 62.8357 54.868 62.4267 54.8598C61.8843 54.8489 61.3427 54.838 60.8026 54.8329H60.8077ZM65.4988 54.94C68.1117 52.9628 70.0737 50.3968 71.1775 47.513C72.3163 44.561 71.9434 41.9975 70.1698 39.6528C72.3163 39.5367 74.4629 39.4295 76.6094 39.3536C76.6385 39.4208 76.6721 39.4864 76.7102 39.5501C79.7637 44.2216 78.2218 50.4651 75.3144 55.0606C72.4156 55.1495 69.4385 55.0593 66.4427 54.9686C66.1265 54.959 65.8102 54.9494 65.4938 54.94H65.4988Z" fill="#426FE4" style="fill:#426FE4;fill:color(display-p3 0.2588 0.4353 0.8941);fill-opacity:1;"/>
<path d="M82.9382 38.1254C83.2556 37.192 82.7064 35.9996 81.2703 35.9951C69.8826 35.9951 57.9456 36.2363 46.8048 38.706C47.0337 38.3913 47.3119 38.1071 47.6311 37.8619C47.6854 37.8106 47.7218 37.7465 47.736 37.6773C47.7502 37.6081 47.7417 37.5368 47.7114 37.4718C47.6811 37.4068 47.6304 37.3509 47.5652 37.3108C47.5 37.2707 47.4232 37.2481 47.3439 37.2456C42.3051 37.1295 41.8314 40.3718 41.6349 44.293C41.3779 49.4424 41.7256 55.7886 44.1543 60.5271C45.0512 62.2777 48.3769 61.4203 48.2408 59.5445C48.2056 59.0979 48.1552 58.629 48.0947 58.169C52.5962 57.9834 57.1065 58.0491 61.5987 58.3655C66.8089 58.7049 72.0644 58.9595 77.2493 58.294C77.4761 58.3554 77.7167 58.3655 77.949 58.3234C78.1814 58.2813 78.3982 58.1883 78.5796 58.0529C78.7692 57.9701 78.9371 57.853 79.0725 57.7092C79.2079 57.5653 79.3078 57.3979 79.3656 57.2177C82.2616 53.914 83.9917 49.9257 84.3389 45.7534C84.5203 43.5025 84.4296 40.2691 82.9382 38.1254ZM58.5099 54.8195C54.8773 54.8134 51.2587 55.2183 47.7418 56.0242C47.5941 55.2388 47.4278 54.4508 47.2609 53.66C46.8584 51.7529 46.4525 49.8294 46.2958 47.8882C46.2515 47.3503 46.1729 46.7563 46.09 46.1304C45.8619 44.4073 45.6017 42.4428 45.9381 40.7425C48.5885 40.7425 51.2389 40.6443 53.8893 40.5326C52.8197 42.4444 52.4954 44.6166 52.9672 46.7091C53.5573 49.7827 55.421 51.6728 57.4283 53.7085C57.7864 54.0717 58.1491 54.4395 58.5099 54.8195ZM60.8077 54.8329C59.3038 52.6158 58.3992 50.0503 57.528 47.5799C57.5059 47.5173 57.4839 47.4549 57.4619 47.3924C56.6847 45.1283 56.5224 42.7334 56.9882 40.4031C59.798 40.2576 62.6029 40.0904 65.4126 39.9229L65.524 39.9163C65.524 39.9431 65.5438 39.9698 65.5622 39.9947C65.5683 40.003 65.5744 40.0112 65.5794 40.019C65.832 40.3869 66.084 40.7392 66.3284 41.0807C68.092 43.5457 69.4556 45.4516 67.7562 48.6563C67.132 49.8325 66.3485 50.9271 65.5655 52.0211C64.8947 52.9582 64.2242 53.8949 63.6546 54.882C63.2452 54.8762 62.8357 54.868 62.4267 54.8598C61.8843 54.8489 61.3427 54.838 60.8026 54.8329H60.8077ZM65.4988 54.94C68.1117 52.9628 70.0737 50.3968 71.1775 47.513C72.3163 44.561 71.9434 41.9975 70.1698 39.6528C72.3163 39.5367 74.4629 39.4295 76.6094 39.3536C76.6385 39.4208 76.6721 39.4864 76.7102 39.5501C79.7637 44.2216 78.2218 50.4651 75.3144 55.0606C72.4156 55.1495 69.4385 55.0593 66.4427 54.9686C66.1265 54.959 65.8102 54.9494 65.4938 54.94H65.4988Z" stroke="#3C64CE" style="stroke:#3C64CE;stroke:color(display-p3 0.2353 0.3922 0.8078);stroke-opacity:1;"/>
</svg>
