<svg width="128" height="128" viewBox="0 0 128 128" fill="none" xmlns="http://www.w3.org/2000/svg">
<path d="M63.6 118.8C35.7 118.8 5.59998 101.3 5.59998 62.9C5.59998 24.5 35.7 7 63.6 7C79.1 7 93.4 12.1 104 21.4C115.5 31.6 121.6 46 121.6 62.9C121.6 79.8 115.5 94.1 104 104.3C93.4 113.6 79 118.8 63.6 118.8Z" fill="url(#paint0_radial_169_11031)" style=""/>
<path d="M63.6 118.8C35.7 118.8 5.59998 101.3 5.59998 62.9C5.59998 24.5 35.7 7 63.6 7C79.1 7 93.4 12.1 104 21.4C115.5 31.6 121.6 46 121.6 62.9C121.6 79.8 115.5 94.1 104 104.3C93.4 113.6 79 118.8 63.6 118.8Z" fill="url(#paint1_radial_169_11031)" style=""/>
<path d="M63.6 118.8C35.7 118.8 5.59998 101.3 5.59998 62.9C5.59998 24.5 35.7 7 63.6 7C79.1 7 93.4 12.1 104 21.4C115.5 31.6 121.6 46 121.6 62.9C121.6 79.8 115.5 94.1 104 104.3C93.4 113.6 79 118.8 63.6 118.8Z" fill="url(#paint2_radial_169_11031)" style=""/>
<path d="M63.6 118.8C35.7 118.8 5.59998 101.3 5.59998 62.9C5.59998 24.5 35.7 7 63.6 7C79.1 7 93.4 12.1 104 21.4C115.5 31.6 121.6 46 121.6 62.9C121.6 79.8 115.5 94.1 104 104.3C93.4 113.6 79 118.8 63.6 118.8Z" fill="url(#paint3_radial_169_11031)" style=""/>
<path d="M111.49 29.67C116.82 38.27 119.6 48.51 119.6 59.9C119.6 76.8 113.5 91.1 102 101.3C91.4 110.6 77 115.8 61.6 115.8C43.54 115.8 24.6 108.45 13.42 92.86C24.18 110.52 44.42 118.8 63.6 118.8C79 118.8 93.4 113.6 104 104.3C115.5 94.1 121.6 79.8 121.6 62.9C121.6 50.16 118.13 38.84 111.49 29.67Z" fill="#EB8F00" style="fill:#EB8F00;fill:color(display-p3 0.9216 0.5608 0.0000);fill-opacity:1;"/>
<path d="M111.49 29.67C116.82 38.27 119.6 48.51 119.6 59.9C119.6 76.8 113.5 91.1 102 101.3C91.4 110.6 77 115.8 61.6 115.8C43.54 115.8 24.6 108.45 13.42 92.86C24.18 110.52 44.42 118.8 63.6 118.8C79 118.8 93.4 113.6 104 104.3C115.5 94.1 121.6 79.8 121.6 62.9C121.6 50.16 118.13 38.84 111.49 29.67Z" fill="#F3B872" style="fill:#F3B872;fill:color(display-p3 0.9542 0.7229 0.4453);fill-opacity:1;"/>
<path d="M111.49 29.67C116.82 38.27 119.6 48.51 119.6 59.9C119.6 76.8 113.5 91.1 102 101.3C91.4 110.6 77 115.8 61.6 115.8C43.54 115.8 24.6 108.45 13.42 92.86C24.18 110.52 44.42 118.8 63.6 118.8C79 118.8 93.4 113.6 104 104.3C115.5 94.1 121.6 79.8 121.6 62.9C121.6 50.16 118.13 38.84 111.49 29.67Z" fill="#4A2F27" style="fill:#4A2F27;fill:color(display-p3 0.2902 0.1843 0.1529);fill-opacity:1;"/>
<path d="M71 101C70.43 101 69.86 100.88 69.34 100.64C65.66 99.01 61.47 98.98 57.78 100.58C55.81 101.57 53.4 100.77 52.41 98.8C51.42 96.83 52.22 94.42 54.19 93.43C60.06 90.77 66.77 90.75 72.66 93.36C74.67 94.28 75.56 96.65 74.64 98.66C73.99 100.09 72.57 101 71 101Z" fill="#42312C" style="fill:#42312C;fill:color(display-p3 0.2588 0.1922 0.1725);fill-opacity:1;"/>
<path d="M71 101C70.43 101 69.86 100.88 69.34 100.64C65.66 99.01 61.47 98.98 57.78 100.58C55.81 101.57 53.4 100.77 52.41 98.8C51.42 96.83 52.22 94.42 54.19 93.43C60.06 90.77 66.77 90.75 72.66 93.36C74.67 94.28 75.56 96.65 74.64 98.66C73.99 100.09 72.57 101 71 101Z" fill="#42312C" style="fill:#42312C;fill:color(display-p3 0.2588 0.1922 0.1725);fill-opacity:1;"/>
<path d="M43 47.7C52.58 47.73 60.33 55.52 60.3 65.1C60.27 74.68 52.48 82.43 42.9 82.4C33.32 82.37 25.57 74.58 25.6 65C25.66 55.43 33.43 47.71 43 47.7Z" fill="white" style="fill:white;fill-opacity:1;"/>
<path d="M42.7 78.2C51.2052 78.2 58.1 71.3052 58.1 62.8C58.1 54.2948 51.2052 47.4 42.7 47.4C34.1948 47.4 27.3 54.2948 27.3 62.8C27.3 71.3052 34.1948 78.2 42.7 78.2Z" fill="#42312C" style="fill:#42312C;fill:color(display-p3 0.2588 0.1922 0.1725);fill-opacity:1;"/>
<path d="M42.7 78.2C51.2052 78.2 58.1 71.3052 58.1 62.8C58.1 54.2948 51.2052 47.4 42.7 47.4C34.1948 47.4 27.3 54.2948 27.3 62.8C27.3 71.3052 34.1948 78.2 42.7 78.2Z" fill="#42312C" style="fill:#42312C;fill:color(display-p3 0.2588 0.1922 0.1725);fill-opacity:1;"/>
<path d="M49.6674 70.459C50.7672 69.5359 50.9679 67.9645 50.1158 66.9493C49.2636 65.9342 47.6813 65.8596 46.5815 66.7827C45.4817 67.7059 45.281 69.2772 46.1331 70.2924C46.9853 71.3076 48.5676 71.3822 49.6674 70.459Z" fill="white" style="fill:white;fill-opacity:1;"/>
<path d="M43.0516 63.8681C47.039 60.9002 48.3199 55.8723 45.9126 52.6381C43.5052 49.4039 38.3213 49.188 34.3339 52.156C30.3465 55.1239 29.0657 60.1517 31.473 63.3859C33.8803 66.6201 39.0642 66.836 43.0516 63.8681Z" fill="white" style="fill:white;fill-opacity:1;"/>
<path d="M86 47.7C95.58 47.73 103.33 55.52 103.3 65.1C103.27 74.68 95.48 82.43 85.9 82.4C76.32 82.37 68.57 74.58 68.6 65C68.66 55.43 76.43 47.71 86 47.7Z" fill="white" style="fill:white;fill-opacity:1;"/>
<path d="M85.7 78.2C94.2052 78.2 101.1 71.3052 101.1 62.8C101.1 54.2948 94.2052 47.4 85.7 47.4C77.1948 47.4 70.3 54.2948 70.3 62.8C70.3 71.3052 77.1948 78.2 85.7 78.2Z" fill="#42312C" style="fill:#42312C;fill:color(display-p3 0.2588 0.1922 0.1725);fill-opacity:1;"/>
<path d="M85.7 78.2C94.2052 78.2 101.1 71.3052 101.1 62.8C101.1 54.2948 94.2052 47.4 85.7 47.4C77.1948 47.4 70.3 54.2948 70.3 62.8C70.3 71.3052 77.1948 78.2 85.7 78.2Z" fill="#42312C" style="fill:#42312C;fill:color(display-p3 0.2588 0.1922 0.1725);fill-opacity:1;"/>
<path d="M92.7474 70.3979C93.8472 69.4747 94.048 67.9033 93.1958 66.8882C92.3436 65.873 90.7613 65.7984 89.6615 66.7215C88.5617 67.6447 88.361 69.216 89.2131 70.2312C90.0653 71.2464 91.6476 71.321 92.7474 70.3979Z" fill="white" style="fill:white;fill-opacity:1;"/>
<path d="M86.0626 63.8752C90.05 60.9073 91.3309 55.8795 88.9236 52.6453C86.5162 49.4111 81.3323 49.1952 77.3449 52.1631C73.3575 55.131 72.0766 60.1589 74.484 63.3931C76.8913 66.6273 82.0752 66.8432 86.0626 63.8752Z" fill="white" style="fill:white;fill-opacity:1;"/>
<path d="M27.4 39.8C25.2 40.2 25.1 43.4 27.5 43.5C32.8 43.57 37.92 41.6 41.8 38C43.28 36.72 44.53 35.2 45.5 33.5C46.08 32.67 45.88 31.53 45.05 30.95C44.22 30.37 43.08 30.57 42.5 31.4L42.4 31.5C38.48 35.88 33.19 38.81 27.4 39.8Z" fill="#42312C" style="fill:#42312C;fill:color(display-p3 0.2588 0.1922 0.1725);fill-opacity:1;"/>
<path d="M27.4 39.8C25.2 40.2 25.1 43.4 27.5 43.5C32.8 43.57 37.92 41.6 41.8 38C43.28 36.72 44.53 35.2 45.5 33.5C46.08 32.67 45.88 31.53 45.05 30.95C44.22 30.37 43.08 30.57 42.5 31.4L42.4 31.5C38.48 35.88 33.19 38.81 27.4 39.8Z" fill="#42312C" style="fill:#42312C;fill:color(display-p3 0.2588 0.1922 0.1725);fill-opacity:1;"/>
<path d="M84.5 31.4C83.92 30.57 82.7799 30.37 81.9499 30.95C81.1199 31.53 80.92 32.67 81.5 33.5C82.47 35.2 83.7199 36.72 85.1999 38C89.0999 41.57 94.21 43.54 99.5 43.5C102 43.4 101.8 40.2 99.6 39.8C93.74 38.84 88.41 35.87 84.5 31.4Z" fill="#42312C" style="fill:#42312C;fill:color(display-p3 0.2588 0.1922 0.1725);fill-opacity:1;"/>
<path d="M84.5 31.4C83.92 30.57 82.7799 30.37 81.9499 30.95C81.1199 31.53 80.92 32.67 81.5 33.5C82.47 35.2 83.7199 36.72 85.1999 38C89.0999 41.57 94.21 43.54 99.5 43.5C102 43.4 101.8 40.2 99.6 39.8C93.74 38.84 88.41 35.87 84.5 31.4Z" fill="#42312C" style="fill:#42312C;fill:color(display-p3 0.2588 0.1922 0.1725);fill-opacity:1;"/>
<defs>
<radialGradient id="paint0_radial_169_11031" cx="0" cy="0" r="1" gradientUnits="userSpaceOnUse" gradientTransform="translate(63.6 62.9) scale(56.9597 56.9597)">
<stop offset="0.5" stop-color="#FDE030" style="stop-color:#FDE030;stop-color:color(display-p3 0.9922 0.8784 0.1882);stop-opacity:1;"/>
<stop offset="0.92" stop-color="#F7C02B" style="stop-color:#F7C02B;stop-color:color(display-p3 0.9686 0.7529 0.1686);stop-opacity:1;"/>
<stop offset="1" stop-color="#F4A223" style="stop-color:#F4A223;stop-color:color(display-p3 0.9569 0.6353 0.1373);stop-opacity:1;"/>
</radialGradient>
<radialGradient id="paint1_radial_169_11031" cx="0" cy="0" r="1" gradientUnits="userSpaceOnUse" gradientTransform="translate(38.599 34.5377) rotate(-43.2082) scale(102.024 101.825)">
<stop offset="0.3533" stop-color="#F9DDBD" style="stop-color:#F9DDBD;stop-color:color(display-p3 0.9765 0.8667 0.7412);stop-opacity:1;"/>
<stop offset="0.8723" stop-color="#FFD29C" style="stop-color:#FFD29C;stop-color:color(display-p3 1.0000 0.8235 0.6118);stop-opacity:1;"/>
</radialGradient>
<radialGradient id="paint2_radial_169_11031" cx="0" cy="0" r="1" gradientUnits="userSpaceOnUse" gradientTransform="translate(38.599 34.5377) rotate(-43.2082) scale(102.024 101.825)">
<stop offset="0.3533" stop-color="#70534A" style="stop-color:#70534A;stop-color:color(display-p3 0.4392 0.3255 0.2902);stop-opacity:1;"/>
<stop offset="0.8723" stop-color="#5C4037" style="stop-color:#5C4037;stop-color:color(display-p3 0.3608 0.2510 0.2157);stop-opacity:1;"/>
</radialGradient>
<radialGradient id="paint3_radial_169_11031" cx="0" cy="0" r="1" gradientUnits="userSpaceOnUse" gradientTransform="translate(38.599 34.5377) rotate(-43.2082) scale(102.024 101.825)">
<stop offset="0.3533" stop-color="#A56C43" style="stop-color:#A56C43;stop-color:color(display-p3 0.6471 0.4235 0.2627);stop-opacity:1;"/>
<stop offset="0.8723" stop-color="#8D5738" style="stop-color:#8D5738;stop-color:color(display-p3 0.5529 0.3412 0.2196);stop-opacity:1;"/>
</radialGradient>
</defs>
</svg>
