<svg width="128" height="129" viewBox="0 0 128 129" fill="none" xmlns="http://www.w3.org/2000/svg">
<path d="M23.9902 20.4657C23.9902 20.4657 24.9602 13.8757 26.2202 11.2357C27.4802 8.59569 29.4602 5.81569 33.2602 5.07569C37.7902 4.19569 90.3102 4.65569 93.9502 4.88569C97.6202 5.12569 100.03 6.27569 101.41 8.53569C102.46 10.2657 102.83 12.3757 103.32 15.5057C103.58 17.1557 104.12 21.6757 104.12 21.6757L23.9902 20.4657Z" fill="#FFA828" style="fill:#FFA828;fill:color(display-p3 1.0000 0.6588 0.1569);fill-opacity:1;"/>
<path d="M50.6302 38.3156L22.4702 33.6356C22.4702 33.6356 23.0602 21.9856 24.2802 18.9356C25.5002 15.8856 27.0102 14.0656 31.4402 13.3056C35.8702 12.5456 46.9702 12.8556 63.6202 12.7056C80.2702 12.5556 94.9302 13.5656 97.5302 13.7156C100.13 13.8656 102.57 15.1456 103.33 17.5856C104.09 20.0256 104.46 23.3256 105.01 29.1956C105.21 31.3256 105.03 35.3556 105.03 35.3556L72.7602 37.5556L50.6302 38.3156Z" fill="#F1EDEC" style="fill:#F1EDEC;fill:color(display-p3 0.9451 0.9294 0.9255);fill-opacity:1;"/>
<path d="M22.2302 36.6857C22.4202 33.6357 22.4802 30.3357 24.8002 28.3657C26.7902 26.6857 30.1502 26.9957 34.1202 26.8357C37.7902 26.6957 47.1002 26.7757 64.6702 26.7757C82.2402 26.7757 97.0302 27.0357 99.7802 27.0357C102.53 27.0357 104.87 29.1857 105.17 31.1757C105.48 33.1657 104.1 117.326 103.95 119.156C103.8 120.986 103.19 124.656 99.2102 124.956C95.2402 125.266 32.7702 125.266 30.1702 124.956C27.5702 124.646 25.2802 122.356 24.8202 118.086C24.3602 113.816 22.0702 39.1257 22.2302 36.6857Z" fill="#D8CDC9" style="fill:#D8CDC9;fill:color(display-p3 0.8471 0.8039 0.7882);fill-opacity:1;"/>
<path d="M29.61 51.0259C31.91 51.3259 33.82 41.4159 36.82 39.1059C39.82 36.8059 45.43 35.5959 45.43 33.2959C45.43 32.1459 41.79 32.1559 38.42 32.1959C35.05 32.2359 32.15 31.9559 30.51 33.6959C28.71 35.5959 28.53 38.6459 28.41 41.7059C28.2 46.6159 28.19 50.8359 29.61 51.0259Z" fill="#F1EDEC" style="fill:#F1EDEC;fill:color(display-p3 0.9451 0.9294 0.9255);fill-opacity:1;"/>
<path d="M79.3398 118.656C79.3398 120.336 80.5698 120.886 87.2198 120.656C92.8398 120.466 95.6198 119.756 97.2898 117.746C98.9598 115.746 99.4198 111.546 99.4898 106.506C99.5298 103.016 99.4398 99.6562 97.6798 99.6562C95.1598 99.6562 95.1699 105.406 93.1599 108.636C89.2199 114.976 79.3398 116.416 79.3398 118.656Z" fill="#F1EDEC" style="fill:#F1EDEC;fill:color(display-p3 0.9451 0.9294 0.9255);fill-opacity:1;"/>
<path d="M54.9598 65.3554C57.0755 57.8912 60.094 54.166 64 54.166C67.9059 54.166 70.9244 57.8912 73.0402 65.3554C75.5628 62.1776 78.6474 60.6095 82.3093 60.6094C87.5986 60.6095 92.0411 62.6418 95.6217 66.7064C99.2021 70.6972 101 75.3462 101 80.6672C101 85.1753 99.4386 89.3947 96.3464 93.3115C93.3355 97.2284 89.6075 99.166 85.132 99.166C83.0162 99.166 81.1852 98.3669 79.6392 96.7411C78.1744 95.1891 77.0529 93.4662 76.3206 91.5448C75.6696 89.5494 74.7897 87.7619 73.6505 86.2099C72.5926 84.584 71.405 83.785 70.1031 83.785C68.7275 83.785 68.0509 84.728 68.0434 86.6277L68.04 86.6302H66.4219C66.4863 86.4055 66.565 86.1499 66.6701 85.8635C66.8245 85.3726 66.956 85.0148 67.0386 84.7901L67.0515 84.7549C67.1283 84.5456 67.255 84.3157 67.4059 84.0419C67.4149 84.0257 67.4239 84.0093 67.433 83.9928C67.5957 83.6972 67.7279 83.4824 67.8907 83.3346C68.0534 83.1868 68.2569 83.0321 68.501 82.8843C68.7451 82.7365 69.0197 82.6764 69.2639 82.6764C69.508 82.6025 69.7775 82.5378 70.1031 82.5378C71.8119 82.5379 73.269 83.3716 74.4897 84.9974C75.7916 86.5494 76.7427 88.3023 77.3124 90.2977C77.9633 92.2191 78.9474 94.0067 80.2495 95.6325C81.6328 97.1845 83.2933 97.9535 85.2464 97.9535C89.2337 97.9535 92.5878 96.076 95.3546 92.3069C98.2027 88.5378 99.6267 84.5332 99.6268 80.3208C99.6267 75.7388 97.9001 71.6141 94.401 67.9189C90.9832 64.1499 86.9476 62.2723 82.3093 62.2723C80.0307 62.2723 78.0294 62.8866 76.3206 64.1429C74.6931 65.3993 73.4725 66.8473 72.6588 68.4732C71.845 70.0991 70.8278 71.9767 69.6072 74.1198C68.4679 76.1891 67.2804 77.7919 66.0598 78.9004C65.5715 78.9004 65.335 78.7457 65.3351 78.4501C69.6479 71.4293 71.8195 67.3346 71.8196 66.1522C71.8195 64.4524 71.0388 62.2954 69.4928 59.7087C68.028 57.1222 66.1971 55.8289 64 55.8288C61.8842 55.8289 60.0202 57.1522 58.3928 59.8127C56.8466 62.3993 56.0659 64.5263 56.066 66.1522C56.0659 67.4085 58.2707 71.5032 62.665 78.4501C62.6649 78.7457 62.4284 78.9004 61.9402 78.9004C60.7196 77.7919 59.4989 76.1891 58.2784 74.1198C57.1391 71.9767 56.155 70.0991 55.3412 68.4732C54.5275 66.8473 53.2738 65.3993 51.5649 64.1429C49.9374 62.8866 47.9692 62.2723 45.6907 62.2723C40.971 62.2723 36.8692 64.1499 33.3701 67.9189C29.9524 71.6141 28.2206 75.7388 28.2206 80.3208C28.2206 84.4593 29.6447 88.4639 32.4928 92.3069C35.4223 96.076 38.8476 97.9535 42.7536 97.9535C44.7066 97.9535 46.3341 97.1845 47.6361 95.6325C49.0194 94.0067 50.0035 92.2191 50.5732 90.2977C51.2242 88.3023 52.1752 86.5494 53.3959 84.9974C54.6978 83.3716 56.188 82.5379 57.8969 82.5378C59.3616 82.5379 60.3788 83.0921 60.9485 84.2007C61.2932 84.7878 61.6081 85.6004 61.8884 86.6302H59.9916C59.9799 86.6235 59.9682 86.6168 59.9565 86.6101C59.9448 84.7222 59.2682 83.785 57.8969 83.785C56.5949 83.785 55.3743 84.584 54.2351 86.2099C53.1771 87.7619 52.2973 89.5494 51.5649 91.5448C50.9139 93.4662 49.7925 95.1891 48.2464 96.7411C46.7816 98.3669 44.9838 99.166 42.868 99.166C38.3924 99.166 34.6314 97.2284 31.5392 93.3115C28.5283 89.3947 27 85.1753 27 80.6672C27 75.3462 28.7979 70.6972 32.3784 66.7064C35.9588 62.6418 40.4014 60.6095 45.6907 60.6094C49.3525 60.6095 52.4372 62.1776 54.9598 65.3554Z" fill="#9C0000" style="fill:#9C0000;fill:color(display-p3 0.6118 0.0000 0.0000);fill-opacity:1;"/>
<path d="M54.9598 65.3554C57.0755 57.8912 60.094 54.166 64 54.166C67.9059 54.166 70.9244 57.8912 73.0402 65.3554C75.5628 62.1776 78.6474 60.6095 82.3093 60.6094C87.5986 60.6095 92.0411 62.6418 95.6217 66.7064C99.2021 70.6972 101 75.3462 101 80.6672C101 85.1753 99.4386 89.3947 96.3464 93.3115C93.3355 97.2284 89.6075 99.166 85.132 99.166C83.0162 99.166 81.1852 98.3669 79.6392 96.7411C78.1744 95.1891 77.0529 93.4662 76.3206 91.5448C75.6696 89.5494 74.7897 87.7619 73.6505 86.2099C72.5926 84.584 71.405 83.785 70.1031 83.785C68.7275 83.785 68.0509 84.728 68.0434 86.6277L68.04 86.6302H66.4219C66.4863 86.4055 66.565 86.1499 66.6701 85.8635C66.8245 85.3726 66.956 85.0148 67.0386 84.7901L67.0515 84.7549C67.1283 84.5456 67.255 84.3157 67.4059 84.0419C67.4149 84.0257 67.4239 84.0093 67.433 83.9928C67.5957 83.6972 67.7279 83.4824 67.8907 83.3346C68.0534 83.1868 68.2569 83.0321 68.501 82.8843C68.7451 82.7365 69.0197 82.6764 69.2639 82.6764C69.508 82.6025 69.7775 82.5378 70.1031 82.5378C71.8119 82.5379 73.269 83.3716 74.4897 84.9974C75.7916 86.5494 76.7427 88.3023 77.3124 90.2977C77.9633 92.2191 78.9474 94.0067 80.2495 95.6325C81.6328 97.1845 83.2933 97.9535 85.2464 97.9535C89.2337 97.9535 92.5878 96.076 95.3546 92.3069C98.2027 88.5378 99.6267 84.5332 99.6268 80.3208C99.6267 75.7388 97.9001 71.6141 94.401 67.9189C90.9832 64.1499 86.9476 62.2723 82.3093 62.2723C80.0307 62.2723 78.0294 62.8866 76.3206 64.1429C74.6931 65.3993 73.4725 66.8473 72.6588 68.4732C71.845 70.0991 70.8278 71.9767 69.6072 74.1198C68.4679 76.1891 67.2804 77.7919 66.0598 78.9004C65.5715 78.9004 65.335 78.7457 65.3351 78.4501C69.6479 71.4293 71.8195 67.3346 71.8196 66.1522C71.8195 64.4524 71.0388 62.2954 69.4928 59.7087C68.028 57.1222 66.1971 55.8289 64 55.8288C61.8842 55.8289 60.0202 57.1522 58.3928 59.8127C56.8466 62.3993 56.0659 64.5263 56.066 66.1522C56.0659 67.4085 58.2707 71.5032 62.665 78.4501C62.6649 78.7457 62.4284 78.9004 61.9402 78.9004C60.7196 77.7919 59.4989 76.1891 58.2784 74.1198C57.1391 71.9767 56.155 70.0991 55.3412 68.4732C54.5275 66.8473 53.2738 65.3993 51.5649 64.1429C49.9374 62.8866 47.9692 62.2723 45.6907 62.2723C40.971 62.2723 36.8692 64.1499 33.3701 67.9189C29.9524 71.6141 28.2206 75.7388 28.2206 80.3208C28.2206 84.4593 29.6447 88.4639 32.4928 92.3069C35.4223 96.076 38.8476 97.9535 42.7536 97.9535C44.7066 97.9535 46.3341 97.1845 47.6361 95.6325C49.0194 94.0067 50.0035 92.2191 50.5732 90.2977C51.2242 88.3023 52.1752 86.5494 53.3959 84.9974C54.6978 83.3716 56.188 82.5379 57.8969 82.5378C59.3616 82.5379 60.3788 83.0921 60.9485 84.2007C61.2932 84.7878 61.6081 85.6004 61.8884 86.6302H59.9916C59.9799 86.6235 59.9682 86.6168 59.9565 86.6101C59.9448 84.7222 59.2682 83.785 57.8969 83.785C56.5949 83.785 55.3743 84.584 54.2351 86.2099C53.1771 87.7619 52.2973 89.5494 51.5649 91.5448C50.9139 93.4662 49.7925 95.1891 48.2464 96.7411C46.7816 98.3669 44.9838 99.166 42.868 99.166C38.3924 99.166 34.6314 97.2284 31.5392 93.3115C28.5283 89.3947 27 85.1753 27 80.6672C27 75.3462 28.7979 70.6972 32.3784 66.7064C35.9588 62.6418 40.4014 60.6095 45.6907 60.6094C49.3525 60.6095 52.4372 62.1776 54.9598 65.3554Z" fill="#DF0B26" style="fill:#DF0B26;fill:color(display-p3 0.8745 0.0431 0.1490);fill-opacity:1;"/>
<path d="M54.9598 65.3554C57.0755 57.8912 60.094 54.166 64 54.166C67.9059 54.166 70.9244 57.8912 73.0402 65.3554C75.5628 62.1776 78.6474 60.6095 82.3093 60.6094C87.5986 60.6095 92.0411 62.6418 95.6217 66.7064C99.2021 70.6972 101 75.3462 101 80.6672C101 85.1753 99.4386 89.3947 96.3464 93.3115C93.3355 97.2284 89.6075 99.166 85.132 99.166C83.0162 99.166 81.1852 98.3669 79.6392 96.7411C78.1744 95.1891 77.0529 93.4662 76.3206 91.5448C75.6696 89.5494 74.7897 87.7619 73.6505 86.2099C72.5926 84.584 71.405 83.785 70.1031 83.785C68.7275 83.785 68.0509 84.728 68.0434 86.6277L68.04 86.6302H66.4219C66.4863 86.4055 66.565 86.1499 66.6701 85.8635C66.8245 85.3726 66.956 85.0148 67.0386 84.7901L67.0515 84.7549C67.1283 84.5456 67.255 84.3157 67.4059 84.0419C67.4149 84.0257 67.4239 84.0093 67.433 83.9928C67.5957 83.6972 67.7279 83.4824 67.8907 83.3346C68.0534 83.1868 68.2569 83.0321 68.501 82.8843C68.7451 82.7365 69.0197 82.6764 69.2639 82.6764C69.508 82.6025 69.7775 82.5378 70.1031 82.5378C71.8119 82.5379 73.269 83.3716 74.4897 84.9974C75.7916 86.5494 76.7427 88.3023 77.3124 90.2977C77.9633 92.2191 78.9474 94.0067 80.2495 95.6325C81.6328 97.1845 83.2933 97.9535 85.2464 97.9535C89.2337 97.9535 92.5878 96.076 95.3546 92.3069C98.2027 88.5378 99.6267 84.5332 99.6268 80.3208C99.6267 75.7388 97.9001 71.6141 94.401 67.9189C90.9832 64.1499 86.9476 62.2723 82.3093 62.2723C80.0307 62.2723 78.0294 62.8866 76.3206 64.1429C74.6931 65.3993 73.4725 66.8473 72.6588 68.4732C71.845 70.0991 70.8278 71.9767 69.6072 74.1198C68.4679 76.1891 67.2804 77.7919 66.0598 78.9004C65.5715 78.9004 65.335 78.7457 65.3351 78.4501C69.6479 71.4293 71.8195 67.3346 71.8196 66.1522C71.8195 64.4524 71.0388 62.2954 69.4928 59.7087C68.028 57.1222 66.1971 55.8289 64 55.8288C61.8842 55.8289 60.0202 57.1522 58.3928 59.8127C56.8466 62.3993 56.0659 64.5263 56.066 66.1522C56.0659 67.4085 58.2707 71.5032 62.665 78.4501C62.6649 78.7457 62.4284 78.9004 61.9402 78.9004C60.7196 77.7919 59.4989 76.1891 58.2784 74.1198C57.1391 71.9767 56.155 70.0991 55.3412 68.4732C54.5275 66.8473 53.2738 65.3993 51.5649 64.1429C49.9374 62.8866 47.9692 62.2723 45.6907 62.2723C40.971 62.2723 36.8692 64.1499 33.3701 67.9189C29.9524 71.6141 28.2206 75.7388 28.2206 80.3208C28.2206 84.4593 29.6447 88.4639 32.4928 92.3069C35.4223 96.076 38.8476 97.9535 42.7536 97.9535C44.7066 97.9535 46.3341 97.1845 47.6361 95.6325C49.0194 94.0067 50.0035 92.2191 50.5732 90.2977C51.2242 88.3023 52.1752 86.5494 53.3959 84.9974C54.6978 83.3716 56.188 82.5379 57.8969 82.5378C59.3616 82.5379 60.3788 83.0921 60.9485 84.2007C61.2932 84.7878 61.6081 85.6004 61.8884 86.6302H59.9916C59.9799 86.6235 59.9682 86.6168 59.9565 86.6101C59.9448 84.7222 59.2682 83.785 57.8969 83.785C56.5949 83.785 55.3743 84.584 54.2351 86.2099C53.1771 87.7619 52.2973 89.5494 51.5649 91.5448C50.9139 93.4662 49.7925 95.1891 48.2464 96.7411C46.7816 98.3669 44.9838 99.166 42.868 99.166C38.3924 99.166 34.6314 97.2284 31.5392 93.3115C28.5283 89.3947 27 85.1753 27 80.6672C27 75.3462 28.7979 70.6972 32.3784 66.7064C35.9588 62.6418 40.4014 60.6095 45.6907 60.6094C49.3525 60.6095 52.4372 62.1776 54.9598 65.3554Z" stroke="black" style="stroke:black;stroke-opacity:1;" stroke-width="3"/>
<path d="M54.9598 65.3554C57.0755 57.8912 60.094 54.166 64 54.166C67.9059 54.166 70.9244 57.8912 73.0402 65.3554C75.5628 62.1776 78.6474 60.6095 82.3093 60.6094C87.5986 60.6095 92.0411 62.6418 95.6217 66.7064C99.2021 70.6972 101 75.3462 101 80.6672C101 85.1753 99.4386 89.3947 96.3464 93.3115C93.3355 97.2284 89.6075 99.166 85.132 99.166C83.0162 99.166 81.1852 98.3669 79.6392 96.7411C78.1744 95.1891 77.0529 93.4662 76.3206 91.5448C75.6696 89.5494 74.7897 87.7619 73.6505 86.2099C72.5926 84.584 71.405 83.785 70.1031 83.785C68.7275 83.785 68.0509 84.728 68.0434 86.6277L68.04 86.6302H66.4219C66.4863 86.4055 66.565 86.1499 66.6701 85.8635C66.8245 85.3726 66.956 85.0148 67.0386 84.7901L67.0515 84.7549C67.1283 84.5456 67.255 84.3157 67.4059 84.0419C67.4149 84.0257 67.4239 84.0093 67.433 83.9928C67.5957 83.6972 67.7279 83.4824 67.8907 83.3346C68.0534 83.1868 68.2569 83.0321 68.501 82.8843C68.7451 82.7365 69.0197 82.6764 69.2639 82.6764C69.508 82.6025 69.7775 82.5378 70.1031 82.5378C71.8119 82.5379 73.269 83.3716 74.4897 84.9974C75.7916 86.5494 76.7427 88.3023 77.3124 90.2977C77.9633 92.2191 78.9474 94.0067 80.2495 95.6325C81.6328 97.1845 83.2933 97.9535 85.2464 97.9535C89.2337 97.9535 92.5878 96.076 95.3546 92.3069C98.2027 88.5378 99.6267 84.5332 99.6268 80.3208C99.6267 75.7388 97.9001 71.6141 94.401 67.9189C90.9832 64.1499 86.9476 62.2723 82.3093 62.2723C80.0307 62.2723 78.0294 62.8866 76.3206 64.1429C74.6931 65.3993 73.4725 66.8473 72.6588 68.4732C71.845 70.0991 70.8278 71.9767 69.6072 74.1198C68.4679 76.1891 67.2804 77.7919 66.0598 78.9004C65.5715 78.9004 65.335 78.7457 65.3351 78.4501C69.6479 71.4293 71.8195 67.3346 71.8196 66.1522C71.8195 64.4524 71.0388 62.2954 69.4928 59.7087C68.028 57.1222 66.1971 55.8289 64 55.8288C61.8842 55.8289 60.0202 57.1522 58.3928 59.8127C56.8466 62.3993 56.0659 64.5263 56.066 66.1522C56.0659 67.4085 58.2707 71.5032 62.665 78.4501C62.6649 78.7457 62.4284 78.9004 61.9402 78.9004C60.7196 77.7919 59.4989 76.1891 58.2784 74.1198C57.1391 71.9767 56.155 70.0991 55.3412 68.4732C54.5275 66.8473 53.2738 65.3993 51.5649 64.1429C49.9374 62.8866 47.9692 62.2723 45.6907 62.2723C40.971 62.2723 36.8692 64.1499 33.3701 67.9189C29.9524 71.6141 28.2206 75.7388 28.2206 80.3208C28.2206 84.4593 29.6447 88.4639 32.4928 92.3069C35.4223 96.076 38.8476 97.9535 42.7536 97.9535C44.7066 97.9535 46.3341 97.1845 47.6361 95.6325C49.0194 94.0067 50.0035 92.2191 50.5732 90.2977C51.2242 88.3023 52.1752 86.5494 53.3959 84.9974C54.6978 83.3716 56.188 82.5379 57.8969 82.5378C59.3616 82.5379 60.3788 83.0921 60.9485 84.2007C61.2932 84.7878 61.6081 85.6004 61.8884 86.6302H59.9916C59.9799 86.6235 59.9682 86.6168 59.9565 86.6101C59.9448 84.7222 59.2682 83.785 57.8969 83.785C56.5949 83.785 55.3743 84.584 54.2351 86.2099C53.1771 87.7619 52.2973 89.5494 51.5649 91.5448C50.9139 93.4662 49.7925 95.1891 48.2464 96.7411C46.7816 98.3669 44.9838 99.166 42.868 99.166C38.3924 99.166 34.6314 97.2284 31.5392 93.3115C28.5283 89.3947 27 85.1753 27 80.6672C27 75.3462 28.7979 70.6972 32.3784 66.7064C35.9588 62.6418 40.4014 60.6095 45.6907 60.6094C49.3525 60.6095 52.4372 62.1776 54.9598 65.3554Z" stroke="#ED4337" style="stroke:#ED4337;stroke:color(display-p3 0.9294 0.2627 0.2157);stroke-opacity:1;" stroke-width="3"/>
<path d="M54.9598 65.3554C57.0755 57.8912 60.094 54.166 64 54.166C67.9059 54.166 70.9244 57.8912 73.0402 65.3554C75.5628 62.1776 78.6474 60.6095 82.3093 60.6094C87.5986 60.6095 92.0411 62.6418 95.6217 66.7064C99.2021 70.6972 101 75.3462 101 80.6672C101 85.1753 99.4386 89.3947 96.3464 93.3115C93.3355 97.2284 89.6075 99.166 85.132 99.166C83.0162 99.166 81.1852 98.3669 79.6392 96.7411C78.1744 95.1891 77.0529 93.4662 76.3206 91.5448C75.6696 89.5494 74.7897 87.7619 73.6505 86.2099C72.5926 84.584 71.405 83.785 70.1031 83.785C68.7275 83.785 68.0509 84.728 68.0434 86.6277L68.04 86.6302H66.4219C66.4863 86.4055 66.565 86.1499 66.6701 85.8635C66.8245 85.3726 66.956 85.0148 67.0386 84.7901L67.0515 84.7549C67.1283 84.5456 67.255 84.3157 67.4059 84.0419C67.4149 84.0257 67.4239 84.0093 67.433 83.9928C67.5957 83.6972 67.7279 83.4824 67.8907 83.3346C68.0534 83.1868 68.2569 83.0321 68.501 82.8843C68.7451 82.7365 69.0197 82.6764 69.2639 82.6764C69.508 82.6025 69.7775 82.5378 70.1031 82.5378C71.8119 82.5379 73.269 83.3716 74.4897 84.9974C75.7916 86.5494 76.7427 88.3023 77.3124 90.2977C77.9633 92.2191 78.9474 94.0067 80.2495 95.6325C81.6328 97.1845 83.2933 97.9535 85.2464 97.9535C89.2337 97.9535 92.5878 96.076 95.3546 92.3069C98.2027 88.5378 99.6267 84.5332 99.6268 80.3208C99.6267 75.7388 97.9001 71.6141 94.401 67.9189C90.9832 64.1499 86.9476 62.2723 82.3093 62.2723C80.0307 62.2723 78.0294 62.8866 76.3206 64.1429C74.6931 65.3993 73.4725 66.8473 72.6588 68.4732C71.845 70.0991 70.8278 71.9767 69.6072 74.1198C68.4679 76.1891 67.2804 77.7919 66.0598 78.9004C65.5715 78.9004 65.335 78.7457 65.3351 78.4501C69.6479 71.4293 71.8195 67.3346 71.8196 66.1522C71.8195 64.4524 71.0388 62.2954 69.4928 59.7087C68.028 57.1222 66.1971 55.8289 64 55.8288C61.8842 55.8289 60.0202 57.1522 58.3928 59.8127C56.8466 62.3993 56.0659 64.5263 56.066 66.1522C56.0659 67.4085 58.2707 71.5032 62.665 78.4501C62.6649 78.7457 62.4284 78.9004 61.9402 78.9004C60.7196 77.7919 59.4989 76.1891 58.2784 74.1198C57.1391 71.9767 56.155 70.0991 55.3412 68.4732C54.5275 66.8473 53.2738 65.3993 51.5649 64.1429C49.9374 62.8866 47.9692 62.2723 45.6907 62.2723C40.971 62.2723 36.8692 64.1499 33.3701 67.9189C29.9524 71.6141 28.2206 75.7388 28.2206 80.3208C28.2206 84.4593 29.6447 88.4639 32.4928 92.3069C35.4223 96.076 38.8476 97.9535 42.7536 97.9535C44.7066 97.9535 46.3341 97.1845 47.6361 95.6325C49.0194 94.0067 50.0035 92.2191 50.5732 90.2977C51.2242 88.3023 52.1752 86.5494 53.3959 84.9974C54.6978 83.3716 56.188 82.5379 57.8969 82.5378C59.3616 82.5379 60.3788 83.0921 60.9485 84.2007C61.2932 84.7878 61.6081 85.6004 61.8884 86.6302H59.9916C59.9799 86.6235 59.9682 86.6168 59.9565 86.6101C59.9448 84.7222 59.2682 83.785 57.8969 83.785C56.5949 83.785 55.3743 84.584 54.2351 86.2099C53.1771 87.7619 52.2973 89.5494 51.5649 91.5448C50.9139 93.4662 49.7925 95.1891 48.2464 96.7411C46.7816 98.3669 44.9838 99.166 42.868 99.166C38.3924 99.166 34.6314 97.2284 31.5392 93.3115C28.5283 89.3947 27 85.1753 27 80.6672C27 75.3462 28.7979 70.6972 32.3784 66.7064C35.9588 62.6418 40.4014 60.6095 45.6907 60.6094C49.3525 60.6095 52.4372 62.1776 54.9598 65.3554Z" fill="#9C0000" style="fill:#9C0000;fill:color(display-p3 0.6118 0.0000 0.0000);fill-opacity:1;"/>
<path d="M54.9598 65.3554C57.0755 57.8912 60.094 54.166 64 54.166C67.9059 54.166 70.9244 57.8912 73.0402 65.3554C75.5628 62.1776 78.6474 60.6095 82.3093 60.6094C87.5986 60.6095 92.0411 62.6418 95.6217 66.7064C99.2021 70.6972 101 75.3462 101 80.6672C101 85.1753 99.4386 89.3947 96.3464 93.3115C93.3355 97.2284 89.6075 99.166 85.132 99.166C83.0162 99.166 81.1852 98.3669 79.6392 96.7411C78.1744 95.1891 77.0529 93.4662 76.3206 91.5448C75.6696 89.5494 74.7897 87.7619 73.6505 86.2099C72.5926 84.584 71.405 83.785 70.1031 83.785C68.7275 83.785 68.0509 84.728 68.0434 86.6277L68.04 86.6302H66.4219C66.4863 86.4055 66.565 86.1499 66.6701 85.8635C66.8245 85.3726 66.956 85.0148 67.0386 84.7901L67.0515 84.7549C67.1283 84.5456 67.255 84.3157 67.4059 84.0419C67.4149 84.0257 67.4239 84.0093 67.433 83.9928C67.5957 83.6972 67.7279 83.4824 67.8907 83.3346C68.0534 83.1868 68.2569 83.0321 68.501 82.8843C68.7451 82.7365 69.0197 82.6764 69.2639 82.6764C69.508 82.6025 69.7775 82.5378 70.1031 82.5378C71.8119 82.5379 73.269 83.3716 74.4897 84.9974C75.7916 86.5494 76.7427 88.3023 77.3124 90.2977C77.9633 92.2191 78.9474 94.0067 80.2495 95.6325C81.6328 97.1845 83.2933 97.9535 85.2464 97.9535C89.2337 97.9535 92.5878 96.076 95.3546 92.3069C98.2027 88.5378 99.6267 84.5332 99.6268 80.3208C99.6267 75.7388 97.9001 71.6141 94.401 67.9189C90.9832 64.1499 86.9476 62.2723 82.3093 62.2723C80.0307 62.2723 78.0294 62.8866 76.3206 64.1429C74.6931 65.3993 73.4725 66.8473 72.6588 68.4732C71.845 70.0991 70.8278 71.9767 69.6072 74.1198C68.4679 76.1891 67.2804 77.7919 66.0598 78.9004C65.5715 78.9004 65.335 78.7457 65.3351 78.4501C69.6479 71.4293 71.8195 67.3346 71.8196 66.1522C71.8195 64.4524 71.0388 62.2954 69.4928 59.7087C68.028 57.1222 66.1971 55.8289 64 55.8288C61.8842 55.8289 60.0202 57.1522 58.3928 59.8127C56.8466 62.3993 56.0659 64.5263 56.066 66.1522C56.0659 67.4085 58.2707 71.5032 62.665 78.4501C62.6649 78.7457 62.4284 78.9004 61.9402 78.9004C60.7196 77.7919 59.4989 76.1891 58.2784 74.1198C57.1391 71.9767 56.155 70.0991 55.3412 68.4732C54.5275 66.8473 53.2738 65.3993 51.5649 64.1429C49.9374 62.8866 47.9692 62.2723 45.6907 62.2723C40.971 62.2723 36.8692 64.1499 33.3701 67.9189C29.9524 71.6141 28.2206 75.7388 28.2206 80.3208C28.2206 84.4593 29.6447 88.4639 32.4928 92.3069C35.4223 96.076 38.8476 97.9535 42.7536 97.9535C44.7066 97.9535 46.3341 97.1845 47.6361 95.6325C49.0194 94.0067 50.0035 92.2191 50.5732 90.2977C51.2242 88.3023 52.1752 86.5494 53.3959 84.9974C54.6978 83.3716 56.188 82.5379 57.8969 82.5378C59.3616 82.5379 60.3788 83.0921 60.9485 84.2007C61.2932 84.7878 61.6081 85.6004 61.8884 86.6302H59.9916C59.9799 86.6235 59.9682 86.6168 59.9565 86.6101C59.9448 84.7222 59.2682 83.785 57.8969 83.785C56.5949 83.785 55.3743 84.584 54.2351 86.2099C53.1771 87.7619 52.2973 89.5494 51.5649 91.5448C50.9139 93.4662 49.7925 95.1891 48.2464 96.7411C46.7816 98.3669 44.9838 99.166 42.868 99.166C38.3924 99.166 34.6314 97.2284 31.5392 93.3115C28.5283 89.3947 27 85.1753 27 80.6672C27 75.3462 28.7979 70.6972 32.3784 66.7064C35.9588 62.6418 40.4014 60.6095 45.6907 60.6094C49.3525 60.6095 52.4372 62.1776 54.9598 65.3554Z" fill="#DF0B26" style="fill:#DF0B26;fill:color(display-p3 0.8745 0.0431 0.1490);fill-opacity:1;"/>
<path d="M56.6768 79.166C56.9001 79.644 57.0258 79.9403 57.0258 80.0996C57.0258 81.0556 56.6535 82.4175 55.909 84.1702C55.2388 85.9229 54.8968 87.22 54.8968 88.0166C54.8968 88.176 54.8968 88.3054 54.8968 88.4648C54.9712 88.5445 55.0666 88.6789 55.1411 88.8382C55.29 88.9179 55.3807 88.9826 55.4552 89.0623C55.6041 89.142 55.76 89.2764 55.909 89.4357C56.1323 89.5154 56.3184 89.5801 56.4674 89.6598L57.1305 90.0332C57.4283 90.1926 57.6447 90.327 57.7936 90.4067C57.3469 90.6457 56.8536 91.1735 56.258 92.0498C55.6623 93.0058 55.3505 93.8722 55.3505 94.5893C55.3505 95.1469 55.9089 96.5411 57.0258 98.7718L58.8058 101.983C58.8057 102.621 58.4334 102.954 57.6889 102.954C56.572 102.954 55.4552 101.759 54.3384 99.3693C53.296 96.9793 52.5817 94.6863 52.2094 92.5353C52.0604 93.6507 52 94.5494 52 95.1868C52 97.9751 52.5584 100.462 53.6753 102.693C54.8665 105.003 56.4162 106.166 58.352 106.166C58.9477 106.166 59.9738 105.768 61.3885 104.971L63.5174 103.888C63.5918 103.888 64.2713 104.254 65.6115 104.971C67.0262 105.768 68.0523 106.166 68.648 106.166C70.5838 106.166 72.1031 105.003 73.22 102.693C74.4113 100.462 74.9999 97.9751 75 95.1868C74.9999 94.2307 74.9092 93.332 74.6859 92.5353C74.4625 94.6067 73.7482 96.8299 72.5569 99.22C71.44 101.69 70.3534 102.954 69.3111 102.954C68.5665 102.954 68.1942 102.621 68.1942 101.983L69.9742 98.7718C71.091 96.5411 71.6494 95.1469 71.6495 94.5893C71.6494 93.8722 71.3725 93.0058 70.7769 92.0498C70.1812 91.1735 69.6531 90.6457 69.2064 90.4067C71.1422 89.2913 72.1031 88.4946 72.1032 88.0166C72.1031 87.22 71.7309 85.9229 70.9863 84.1702C70.3162 82.4175 69.9742 81.0556 69.9742 80.0996C69.9742 79.9403 70.0998 79.644 70.3232 79.166C69.1319 79.644 68.0755 80.2739 67.1821 81.0706H59.8179C58.4032 80.1146 57.3469 79.4847 56.6768 79.166ZM58.4917 81.1826C58.7894 81.82 58.9104 82.3527 58.9105 82.7511C58.9104 83.0698 58.6033 83.7644 57.9332 84.8797C57.3375 85.9154 57.0258 86.9112 57.0258 87.8673C57.1002 87.7876 57.3166 87.3893 57.6889 86.6722C58.0612 85.9552 58.4334 85.4274 58.8058 85.0291C59.2525 84.5511 59.7504 84.1851 60.2716 83.9461C59.6759 85.0614 59.3642 86.1544 59.3642 87.2697C59.3642 87.5088 59.4596 87.8424 59.6085 88.2407C59.7574 88.5594 59.8179 88.7909 59.8179 88.9502L58.5964 89.5478C57.6284 89.0697 56.9746 88.7038 56.6768 88.4648C56.3789 88.1461 56.2579 87.8175 56.258 87.4191C56.2579 87.1801 57.0025 85.0864 58.4917 81.1826ZM68.5432 81.1826C69.9579 84.927 70.6373 87.0208 70.6373 87.4191C70.6373 88.2158 69.8927 88.9104 68.4036 89.5478L67.2868 88.8382C67.5101 88.4399 67.6358 87.9071 67.6358 87.2697C67.6358 86.1544 67.324 85.0614 66.7284 83.9461C67.324 84.1851 68.4106 85.4449 69.9742 87.7552C69.9742 86.9585 69.6321 86.0648 68.9621 85.0291C68.2919 83.9137 68.1942 83.1494 68.1942 82.7511C68.1942 82.5121 68.1709 81.9793 68.5432 81.1826Z" fill="#40A940" style="fill:#40A940;fill:color(display-p3 0.2512 0.6625 0.2512);fill-opacity:1;"/>
</svg>
