<svg width="128" height="128" viewBox="0 0 128 128" fill="none" xmlns="http://www.w3.org/2000/svg">
<path d="M124 38.4C122.2 39.5 120.3 40.5 118.6 41.2C116.8 42 115.1 42.6 113.4 43.2C111.7 43.8 110 44.1 108.3 44.5C106.6 44.9 105 45 103.4 45.2C101.8 45.3 100.2 45.4 98.6 45.4C97 45.4 95.5 45.3 94 45.2C92.5 45.1 91 44.9 89.5 44.7C88 44.5 86.6 44.3 85.1 44C83.6 43.7 82.2 43.4 80.8 43.1C79.4 42.8 78 42.4 76.6 42C75.2 41.6 73.8 41.2 72.4 40.8C71 40.4 69.6 40 68.2 39.6C66.8 39.2 65.4 38.8 64 38.4C62.6 38 61.2 37.6 59.8 37.2C58.4 36.8 57 36.4 55.6 36C54.2 35.6 52.8 35.2 51.4 34.8C50 34.4 48.6 34.1 47.2 33.7C45.8 33.3 44.3 33.1 42.9 32.8C41.4 32.5 40 32.3 38.5 32.1C37 31.9 35.5 31.7 34 31.6C32.5 31.5 30.9 31.4 29.4 31.4C27.9 31.4 26.3 31.5 24.6 31.6C22.9 31.7 21.4 32 19.7 32.3C18 32.6 16.4 33 14.6 33.6C12.8 34.2 11.1 34.8 9.4 35.6C7.7 36.4 5.8 37.3 4 38.4V33.4C4 33.4 4 27.5 4 26V21C5.8 19.9 7.7 18.9 9.4 18.2C11.2 17.4 12.9 16.8 14.6 16.2C16.3 15.6 18 15.3 19.7 14.9C21.4 14.6 23 14.4 24.6 14.2C26.2 14.1 27.8 14 29.4 14C31 14 32.5 14.1 34 14.2C35.5 14.3 37 14.5 38.5 14.7C40 14.9 41.5 15.1 42.9 15.4C44.3 15.7 45.8 16 47.2 16.3C48.6 16.6 50 17 51.4 17.4C52.8 17.8 54.2 18.2 55.6 18.6C57 19 58.4 19.4 59.8 19.8C61.2 20.2 62.6 20.6 64 21C65.4 21.4 66.8 21.8 68.2 22.2C69.6 22.6 71 23 72.4 23.4C73.8 23.8 75.2 24.2 76.6 24.6C78 25 79.4 25.3 80.8 25.7C82.2 26 83.7 26.3 85.1 26.6C86.5 26.9 88 27.1 89.5 27.3C91 27.5 92.5 27.7 94 27.8C95.5 27.9 97.1 28 98.6 28C100.1 28 101.7 27.9 103.4 27.8C105.1 27.7 106.6 27.4 108.3 27.1C110 26.8 111.6 26.4 113.4 25.8C115.2 25.2 116.9 24.6 118.6 23.8C120.3 23 122.2 22.1 124 21V26V33.4C124 33.4 124 36.5 124 38.4Z" fill="white" style="fill:white;fill-opacity:1;"/>
<path d="M124 49.9883C122.2 51.0883 120.3 52.0883 118.6 52.7883C116.8 53.5883 115.1 54.1883 113.4 54.7883C111.7 55.3883 110 55.6883 108.3 56.0883C106.6 56.4883 105 56.5883 103.4 56.7883C101.8 56.8883 100.2 56.9883 98.6 56.9883C97 56.9883 95.5 56.8883 94 56.7883C92.5 56.6883 91 56.4883 89.5 56.2883C88 56.0883 86.6 55.8883 85.1 55.5883C83.6 55.2883 82.2 54.9883 80.8 54.6883C79.4 54.3883 78 53.9883 76.6 53.5883C75.2 53.1883 73.8 52.7883 72.4 52.3883C71 51.9883 69.6 51.5883 68.2 51.1883C66.8 50.7883 65.4 50.3883 64 49.9883C62.6 49.5883 61.2 49.1883 59.8 48.7883C58.4 48.3883 57 47.9883 55.6 47.5883C54.2 47.1883 52.8 46.7883 51.4 46.3883C50 45.9883 48.6 45.6883 47.2 45.2883C45.8 44.8883 44.3 44.6883 42.9 44.3883C41.4 44.0883 40 43.8883 38.5 43.6883C37 43.4883 35.5 43.2883 34 43.1883C32.5 43.0883 30.9 42.9883 29.4 42.9883C27.9 42.9883 26.3 43.0883 24.6 43.1883C22.9 43.2883 21.4 43.5883 19.7 43.8883C18 44.1883 16.4 44.5883 14.6 45.1883C12.8 45.7883 11.1 46.3883 9.4 47.1883C7.7 47.9883 5.8 48.8883 4 49.9883V44.9883C4 44.9883 4 39.0883 4 37.5883V32.5883C5.8 31.4883 7.7 30.4883 9.4 29.7883C11.2 28.9883 12.9 28.3883 14.6 27.7883C16.3 27.1883 18 26.8883 19.7 26.4883C21.4 26.1883 23 25.9883 24.6 25.7883C26.2 25.6883 27.8 25.5883 29.4 25.5883C31 25.5883 32.5 25.6883 34 25.7883C35.5 25.8883 37 26.0883 38.5 26.2883C40 26.4883 41.5 26.6883 42.9 26.9883C44.3 27.2883 45.8 27.5883 47.2 27.8883C48.6 28.1883 50 28.5883 51.4 28.9883C52.8 29.3883 54.2 29.7883 55.6 30.1883C57 30.5883 58.4 30.9883 59.8 31.3883C61.2 31.7883 62.6 32.1883 64 32.5883C65.4 32.9883 66.8 33.3883 68.2 33.7883C69.6 34.1883 71 34.5883 72.4 34.9883C73.8 35.3883 75.2 35.7883 76.6 36.1883C78 36.5883 79.4 36.8883 80.8 37.2883C82.2 37.5883 83.7 37.8883 85.1 38.1883C86.5 38.4883 88 38.6883 89.5 38.8883C91 39.0883 92.5 39.2883 94 39.3883C95.5 39.4883 97.1 39.5883 98.6 39.5883C100.1 39.5883 101.7 39.4883 103.4 39.3883C105.1 39.2883 106.6 38.9883 108.3 38.6883C110 38.3883 111.6 37.9883 113.4 37.3883C115.2 36.7883 116.9 36.1883 118.6 35.3883C120.3 34.5883 122.2 33.6883 124 32.5883V37.5883V44.9883C124 44.9883 124 48.0883 124 49.9883Z" fill="white" style="fill:white;fill-opacity:1;"/>
<path d="M124 61.5766C122.2 62.6766 120.3 63.6766 118.6 64.3766C116.8 65.1766 115.1 65.7766 113.4 66.3766C111.7 66.9766 110 67.2766 108.3 67.6766C106.6 68.0766 105 68.1766 103.4 68.3766C101.8 68.4766 100.2 68.5766 98.6 68.5766C97 68.5766 95.5 68.4766 94 68.3766C92.5 68.2766 91 68.0766 89.5 67.8766C88 67.6766 86.6 67.4766 85.1 67.1766C83.6 66.8766 82.2 66.5766 80.8 66.2766C79.4 65.9766 78 65.5766 76.6 65.1766C75.2 64.7766 73.8 64.3766 72.4 63.9766C71 63.5766 69.6 63.1766 68.2 62.7766C66.8 62.3766 65.4 61.9766 64 61.5766C62.6 61.1766 61.2 60.7766 59.8 60.3766C58.4 59.9766 57 59.5766 55.6 59.1766C54.2 58.7766 52.8 58.3766 51.4 57.9766C50 57.5766 48.6 57.2766 47.2 56.8766C45.8 56.4766 44.3 56.2766 42.9 55.9766C41.4 55.6766 40 55.4766 38.5 55.2766C37 55.0766 35.5 54.8766 34 54.7766C32.5 54.6766 30.9 54.5766 29.4 54.5766C27.9 54.5766 26.3 54.6766 24.6 54.7766C22.9 54.8766 21.4 55.1766 19.7 55.4766C18 55.7766 16.4 56.1766 14.6 56.7766C12.8 57.3766 11.1 57.9766 9.4 58.7766C7.7 59.5766 5.8 60.4766 4 61.5766V56.5766C4 56.5766 4 50.6766 4 49.1766V44.1766C5.8 43.0766 7.7 42.0766 9.4 41.3766C11.2 40.5766 12.9 39.9766 14.6 39.3766C16.3 38.7766 18 38.4766 19.7 38.0766C21.4 37.7766 23 37.5766 24.6 37.3766C26.2 37.2766 27.8 37.1766 29.4 37.1766C31 37.1766 32.5 37.2766 34 37.3766C35.5 37.4766 37 37.6766 38.5 37.8766C40 38.0766 41.5 38.2766 42.9 38.5766C44.3 38.8766 45.8 39.1766 47.2 39.4766C48.6 39.7766 50 40.1766 51.4 40.5766C52.8 40.9766 54.2 41.3766 55.6 41.7766C57 42.1766 58.4 42.5766 59.8 42.9766C61.2 43.3766 62.6 43.7766 64 44.1766C65.4 44.5766 66.8 44.9766 68.2 45.3766C69.6 45.7766 71 46.1766 72.4 46.5766C73.8 46.9766 75.2 47.3766 76.6 47.7766C78 48.1766 79.4 48.4766 80.8 48.8766C82.2 49.1766 83.7 49.4766 85.1 49.7766C86.5 50.0766 88 50.2766 89.5 50.4766C91 50.6766 92.5 50.8766 94 50.9766C95.5 51.0766 97.1 51.1766 98.6 51.1766C100.1 51.1766 101.7 51.0766 103.4 50.9766C105.1 50.8766 106.6 50.5766 108.3 50.2766C110 49.9766 111.6 49.5766 113.4 48.9766C115.2 48.3766 116.9 47.7766 118.6 46.9766C120.3 46.1766 122.2 45.2766 124 44.1766V49.1766V56.5766C124 56.5766 124 59.6766 124 61.5766Z" fill="white" style="fill:white;fill-opacity:1;"/>
<path d="M124 73.1648C122.2 74.2648 120.3 75.2648 118.6 75.9648C116.8 76.7648 115.1 77.3648 113.4 77.9648C111.7 78.5648 110 78.8648 108.3 79.2648C106.6 79.6648 105 79.7648 103.4 79.9648C101.8 80.0648 100.2 80.1648 98.6 80.1648C97 80.1648 95.5 80.0648 94 79.9648C92.5 79.8648 91 79.6648 89.5 79.4648C88 79.2648 86.6 79.0648 85.1 78.7648C83.6 78.4648 82.2 78.1648 80.8 77.8648C79.4 77.5648 78 77.1648 76.6 76.7648C75.2 76.3648 73.8 75.9648 72.4 75.5648C71 75.1648 69.6 74.7648 68.2 74.3648C66.8 73.9648 65.4 73.5648 64 73.1648C62.6 72.7648 61.2 72.3648 59.8 71.9648C58.4 71.5648 57 71.1648 55.6 70.7648C54.2 70.3648 52.8 69.9648 51.4 69.5648C50 69.1648 48.6 68.8648 47.2 68.4648C45.8 68.0648 44.3 67.8648 42.9 67.5648C41.4 67.2648 40 67.0648 38.5 66.8648C37 66.6648 35.5 66.4648 34 66.3648C32.5 66.2648 30.9 66.1648 29.4 66.1648C27.9 66.1648 26.3 66.2648 24.6 66.3648C22.9 66.4648 21.4 66.7648 19.7 67.0648C18 67.3648 16.4 67.7648 14.6 68.3648C12.8 68.9648 11.1 69.5648 9.4 70.3648C7.7 71.1648 5.8 72.0648 4 73.1648V68.1648C4 68.1648 4 62.2648 4 60.7648V55.7648C5.8 54.6648 7.7 53.6648 9.4 52.9648C11.2 52.1648 12.9 51.5648 14.6 50.9648C16.3 50.3648 18 50.0648 19.7 49.6648C21.4 49.3648 23 49.1648 24.6 48.9648C26.2 48.8648 27.8 48.7648 29.4 48.7648C31 48.7648 32.5 48.8648 34 48.9648C35.5 49.0648 37 49.2648 38.5 49.4648C40 49.6648 41.5 49.8648 42.9 50.1648C44.3 50.4648 45.8 50.7648 47.2 51.0648C48.6 51.3648 50 51.7648 51.4 52.1648C52.8 52.5648 54.2 52.9648 55.6 53.3648C57 53.7648 58.4 54.1648 59.8 54.5648C61.2 54.9648 62.6 55.3648 64 55.7648C65.4 56.1648 66.8 56.5648 68.2 56.9648C69.6 57.3648 71 57.7648 72.4 58.1648C73.8 58.5648 75.2 58.9648 76.6 59.3648C78 59.7648 79.4 60.0648 80.8 60.4648C82.2 60.7648 83.7 61.0648 85.1 61.3648C86.5 61.6648 88 61.8648 89.5 62.0648C91 62.2648 92.5 62.4648 94 62.5648C95.5 62.6648 97.1 62.7648 98.6 62.7648C100.1 62.7648 101.7 62.6648 103.4 62.5648C105.1 62.4648 106.6 62.1648 108.3 61.8648C110 61.5648 111.6 61.1648 113.4 60.5648C115.2 59.9648 116.9 59.3648 118.6 58.5648C120.3 57.7648 122.2 56.8648 124 55.7648V60.7648V68.1648C124 68.1648 124 71.2648 124 73.1648Z" fill="white" style="fill:white;fill-opacity:1;"/>
<path d="M124 84.7532C122.2 85.8532 120.3 86.8531 118.6 87.5531C116.8 88.3531 115.1 88.9531 113.4 89.5531C111.7 90.1531 110 90.4531 108.3 90.8531C106.6 91.2531 105 91.3531 103.4 91.5531C101.8 91.6531 100.2 91.7532 98.6 91.7532C97 91.7532 95.5 91.6531 94 91.5531C92.5 91.4531 91 91.2531 89.5 91.0531C88 90.8531 86.6 90.6531 85.1 90.3531C83.6 90.0532 82.2 89.7531 80.8 89.4531C79.4 89.1531 78 88.7531 76.6 88.3531C75.2 87.9531 73.8 87.5531 72.4 87.1531C71 86.7531 69.6 86.3531 68.2 85.9531C66.8 85.5531 65.4 85.1532 64 84.7532C62.6 84.3532 61.2 83.9531 59.8 83.5531C58.4 83.1531 57 82.7531 55.6 82.3531C54.2 81.9531 52.8 81.5531 51.4 81.1531C50 80.7531 48.6 80.4531 47.2 80.0531C45.8 79.6531 44.3 79.4531 42.9 79.1531C41.4 78.8531 40 78.6531 38.5 78.4531C37 78.2531 35.5 78.0531 34 77.9531C32.5 77.8531 30.9 77.7532 29.4 77.7532C27.9 77.7532 26.3 77.8531 24.6 77.9531C22.9 78.0531 21.4 78.3531 19.7 78.6531C18 78.9531 16.4 79.3531 14.6 79.9531C12.8 80.5531 11.1 81.1531 9.4 81.9531C7.7 82.7531 5.8 83.6532 4 84.7532V79.7532C4 79.7532 4 73.8531 4 72.3531V67.3531C5.8 66.2531 7.7 65.2531 9.4 64.5531C11.2 63.7531 12.9 63.1531 14.6 62.5531C16.3 61.9531 18 61.6532 19.7 61.2532C21.4 60.9532 23 60.7531 24.6 60.5531C26.2 60.4531 27.8 60.3531 29.4 60.3531C31 60.3531 32.5 60.4531 34 60.5531C35.5 60.6531 37 60.8531 38.5 61.0531C40 61.2531 41.5 61.4532 42.9 61.7532C44.3 62.0532 45.8 62.3531 47.2 62.6531C48.6 62.9531 50 63.3532 51.4 63.7532C52.8 64.1532 54.2 64.5531 55.6 64.9531C57 65.3531 58.4 65.7531 59.8 66.1531C61.2 66.5531 62.6 66.9531 64 67.3531C65.4 67.7531 66.8 68.1531 68.2 68.5531C69.6 68.9531 71 69.3532 72.4 69.7532C73.8 70.1532 75.2 70.5531 76.6 70.9531C78 71.3531 79.4 71.6531 80.8 72.0531C82.2 72.3531 83.7 72.6531 85.1 72.9531C86.5 73.2531 88 73.4531 89.5 73.6531C91 73.8531 92.5 74.0531 94 74.1531C95.5 74.2531 97.1 74.3531 98.6 74.3531C100.1 74.3531 101.7 74.2531 103.4 74.1531C105.1 74.0531 106.6 73.7531 108.3 73.4531C110 73.1531 111.6 72.7531 113.4 72.1531C115.2 71.5531 116.9 70.9531 118.6 70.1531C120.3 69.3531 122.2 68.4531 124 67.3531V72.3531V79.7532C124 79.7532 124 82.8532 124 84.7532Z" fill="white" style="fill:white;fill-opacity:1;"/>
<path d="M124 96.3414C122.2 97.4414 120.3 98.4414 118.6 99.1414C116.8 99.9414 115.1 100.541 113.4 101.141C111.7 101.741 110 102.041 108.3 102.441C106.6 102.841 105 102.941 103.4 103.141C101.8 103.241 100.2 103.341 98.6 103.341C97 103.341 95.5 103.241 94 103.141C92.5 103.041 91 102.841 89.5 102.641C88 102.441 86.6 102.241 85.1 101.941C83.6 101.641 82.2 101.341 80.8 101.041C79.4 100.741 78 100.341 76.6 99.9414C75.2 99.5414 73.8 99.1414 72.4 98.7414C71 98.3414 69.6 97.9414 68.2 97.5414C66.8 97.1414 65.4 96.7414 64 96.3414C62.6 95.9414 61.2 95.5414 59.8 95.1414C58.4 94.7414 57 94.3414 55.6 93.9414C54.2 93.5414 52.8 93.1414 51.4 92.7414C50 92.3414 48.6 92.0414 47.2 91.6414C45.8 91.2414 44.3 91.0414 42.9 90.7414C41.4 90.4414 40 90.2414 38.5 90.0414C37 89.8414 35.5 89.6414 34 89.5414C32.5 89.4414 30.9 89.3414 29.4 89.3414C27.9 89.3414 26.3 89.4414 24.6 89.5414C22.9 89.6414 21.4 89.9414 19.7 90.2414C18 90.5414 16.4 90.9414 14.6 91.5414C12.8 92.1414 11.1 92.7414 9.4 93.5414C7.7 94.3414 5.8 95.2414 4 96.3414V91.3414C4 91.3414 4 86.7017 4 85.2017V80.2017C5.8 79.1017 7.7 78.1017 9.4 77.4017C11.2 76.6017 12.9 76.0017 14.6 75.4017C16.3 74.8017 18 74.5017 19.7 74.1017C21.4 73.8017 23 73.6017 24.6 73.4017C26.2 73.3017 27.8 73.2017 29.4 73.2017C31 73.2017 32.5 73.3017 34 73.4017C35.5 73.5017 37 73.7017 38.5 73.9017C40 74.1017 41.5 74.3017 42.9 74.6017C44.3 74.9017 45.8 75.2017 47.2 75.5017C48.6 75.8017 50 76.2017 51.4 76.6017C52.8 77.0017 54.2 77.4017 55.6 77.8017C57 78.2017 58.4 78.6017 59.8 79.0017C61.2 79.4017 62.6 79.8017 64 80.2017C65.4 80.6017 66.8 81.0017 68.2 81.4017C69.6 81.8017 71 82.2017 72.4 82.6017C73.8 83.0017 75.2 83.4017 76.6 83.8017C78 84.2017 79.4 84.5017 80.8 84.9017C82.2 85.2017 83.7 85.5017 85.1 85.8017C86.5 86.1017 88 86.3017 89.5 86.5017C91 86.7017 92.5 86.9017 94 87.0017C95.5 87.1017 97.1 87.2017 98.6 87.2017C100.1 87.2017 101.7 87.1017 103.4 87.0017C105.1 86.9017 106.6 86.6017 108.3 86.3017C110 86.0017 111.6 85.6017 113.4 85.0017C115.2 84.4017 116.9 83.8017 118.6 83.0017C120.3 82.2017 122.2 81.3017 124 80.2017V85.2017V91.3414C124 91.3414 124 94.4414 124 96.3414Z" fill="white" style="fill:white;fill-opacity:1;"/>
<path d="M124 107.93C122.2 109.03 120.3 110.03 118.6 110.73C116.8 111.53 115.1 112.13 113.4 112.73C111.7 113.33 110 113.63 108.3 114.03C106.6 114.43 105 114.53 103.4 114.73C101.8 114.83 100.2 114.93 98.6 114.93C97 114.93 95.5 114.83 94 114.73C92.5 114.63 91 114.43 89.5 114.23C88 114.03 86.6 113.83 85.1 113.53C83.6 113.23 82.2 112.93 80.8 112.63C79.4 112.33 78 111.93 76.6 111.53C75.2 111.13 73.8 110.73 72.4 110.33C71 109.93 69.6 109.53 68.2 109.13C66.8 108.73 65.4 108.33 64 107.93C62.6 107.53 61.2 107.13 59.8 106.73C58.4 106.33 57 105.93 55.6 105.53C54.2 105.13 52.8 104.73 51.4 104.33C50 103.93 48.6 103.63 47.2 103.23C45.8 102.83 44.3 102.63 42.9 102.33C41.4 102.03 40 101.83 38.5 101.63C37 101.43 35.5 101.23 34 101.13C32.5 101.03 30.9 100.93 29.4 100.93C27.9 100.93 26.3 101.03 24.6 101.13C22.9 101.23 21.4 101.53 19.7 101.83C18 102.13 16.4 102.53 14.6 103.13C12.8 103.73 11.1 104.33 9.4 105.13C7.7 105.93 5.8 106.83 4 107.93V102.93C4 102.93 4 99.8318 4 98.3318V93.3318C5.8 92.2318 7.7 91.2318 9.4 90.5318C11.2 89.7318 12.9 89.1318 14.6 88.5318C16.3 87.9318 18 87.6318 19.7 87.2318C21.4 86.9318 23 86.7318 24.6 86.5318C26.2 86.4318 27.8 86.3318 29.4 86.3318C31 86.3318 32.5 86.4318 34 86.5318C35.5 86.6318 37 86.8318 38.5 87.0318C40 87.2318 41.5 87.4318 42.9 87.7318C44.3 88.0318 45.8 88.3318 47.2 88.6318C48.6 88.9318 50 89.3318 51.4 89.7318C52.8 90.1318 54.2 90.5318 55.6 90.9318C57 91.3318 58.4 91.7318 59.8 92.1318C61.2 92.5318 62.6 92.9318 64 93.3318C65.4 93.7318 66.8 94.1318 68.2 94.5318C69.6 94.9318 71 95.3319 72.4 95.7318C73.8 96.1318 75.2 96.5318 76.6 96.9318C78 97.3318 79.4 97.6318 80.8 98.0318C82.2 98.3318 83.7 98.6318 85.1 98.9318C86.5 99.2318 88 99.4318 89.5 99.6318C91 99.8318 92.5 100.032 94 100.132C95.5 100.232 97.1 100.332 98.6 100.332C100.1 100.332 101.7 100.232 103.4 100.132C105.1 100.032 106.6 99.7318 108.3 99.4318C110 99.1318 111.6 98.7318 113.4 98.1318C115.2 97.5318 116.9 96.9318 118.6 96.1318C120.3 95.3318 122.2 94.4318 124 93.3318V98.3318L124 102.93C124 102.93 124 106.03 124 107.93Z" fill="#9C2735" style="fill:#9C2735;fill:color(display-p3 0.6118 0.1529 0.2078);fill-opacity:1;"/>
<path fill-rule="evenodd" clip-rule="evenodd" d="M38.7834 69.6923C46.575 69.6923 54.317 70.9321 61.719 73.3653L66.604 74.971C72.7086 76.9777 79.0348 78.2333 85.4431 78.71C89.0563 78.9788 92.6872 78.8919 96.2835 78.4505L100.017 77.9922C100.956 78.0685 101.349 78.0966 101.503 77.0316C101.545 76.7369 101.485 76.0587 100.568 75.83C98.3711 75.2815 96.089 74.6233 93.7268 73.942C87.6258 72.1822 80.99 70.2682 73.8995 69.6923C72.9507 69.6152 68.5097 67.8262 67.5715 67.7639C67.0647 67.709 66.5556 67.6604 66.044 67.6189C56.2084 66.82 46.9099 66.8197 38.8236 67.4886C37.8823 67.5664 37.031 67.9015 37.0167 68.6867C37.0107 69.0135 37.8887 69.6196 38.7834 69.6923Z" fill="#5B7649" style="fill:#5B7649;fill:color(display-p3 0.3563 0.4625 0.2871);fill-opacity:1;"/>
<path d="M47.856 53.1148C48.2353 53.4213 48.2007 54.0099 47.7882 54.27L45.1149 55.9551C44.6785 56.2302 44.5869 56.8281 44.921 57.2213C45.1117 57.4457 45.4053 57.5551 45.6964 57.5101L49 57L48.1327 58.4816C47.7604 59.1175 48.1881 59.923 48.9239 59.8852C54.1567 59.6169 53.7209 55.5238 57.8259 57.2645C58.2826 57.4582 58.4859 57.9835 58.2919 58.4401C57.4558 60.4082 55.0001 65.3734 51.2641 66.05C50.9213 66.1121 50.6391 66.3813 50.6139 66.7288C50.5866 67.1069 50.8709 67.437 51.2488 67.4655C52.5488 67.5633 51.6218 67.4559 53.3482 67.5931C53.5355 67.6079 53.7264 67.5702 53.8929 67.4832C57.5844 65.5547 60.609 63.7024 63.2879 61.3734C63.873 60.8647 64.8392 61.1384 65.1848 61.8325C66.4986 64.4708 68.803 65.6529 67.3804 67.2675C67.062 67.6289 67.2254 68.2906 67.7054 68.3296L71.0796 68.6036C71.2695 68.6191 71.4499 68.6921 71.6211 68.7756C71.9635 68.9427 72.5917 69.1212 73.0894 68.5403C73.4493 68.1203 72.5897 66.1301 71.6367 64.2393C71.1623 63.2979 72.316 62.1917 73.2332 62.7113C74.824 63.6123 76.6721 64.5756 78.1885 65.1353C79.0534 65.4546 80.2363 67.1956 80.3677 68.108C80.705 70.4512 82.4557 72.1711 79.263 72.6293C78.8394 72.6901 78.6391 73.2212 78.9505 73.5148C79.0306 73.5902 79.1339 73.6362 79.2436 73.6451L81.7233 73.8465C81.9918 73.8683 82.2551 73.7832 82.456 73.6037C83.1508 72.9832 84.8863 71.4017 86.4722 69.7042C87.2237 68.8998 90.8471 69.3711 91.7519 69.9982C93.4234 71.1567 95.0245 70.9447 92.6418 72.7959C92.1239 73.1982 92.1488 74.0071 92.7163 74.3358C92.8995 74.4418 93.1143 74.4798 93.3228 74.4429L95.0967 74.129C95.7794 74.0081 96.1335 73.2407 95.8533 72.6067C92.2733 64.5062 98.9965 57.4383 93.9147 57.6397C89.6288 57.8096 89.9367 49.959 73.0143 50.2253C71.9118 50.1357 69.5895 48.8516 67.3622 47.6603C64.3868 46.069 61.0939 46.4661 57.8185 47.2765C55.9819 47.731 54.8292 47.773 54.1951 47.7785C53.7276 47.7825 53.0556 48.4889 52.5882 48.4791C51.7124 48.4608 50.1724 48.5615 49.6915 49.2936C48.9947 50.3541 48.1925 51.4882 47.7249 52.1404C47.5038 52.4489 47.5608 52.8763 47.856 53.1148Z" fill="#89513A" stroke="#834931" style="fill:#89513A;fill:color(display-p3 0.5375 0.3196 0.2262);fill-opacity:1;stroke:#834931;stroke:color(display-p3 0.5125 0.2854 0.1922);stroke-opacity:1;" stroke-linejoin="round"/>
<mask id="mask0_177_347" style="mask-type:alpha" maskUnits="userSpaceOnUse" x="4" y="13" width="120" height="102">
<path d="M94.69 27.35C105.06 28.01 115.1 25.84 124 20.4V107.8C114.17 113.59 104.78 115.29 94.7 114.65C84.16 113.98 74.09 110.68 64 107.8C53.84 104.89 43.74 101.62 33.13 100.94C22.95 100.29 12.76 102.45 4 107.8V20.89C4 20.89 10.34 17.66 11.44 17.23C19.91 13.9 28.56 13.74 33.65 14.08C44.15 14.78 54.33 17.94 64.38 20.81C74.3 23.65 84.33 26.68 94.69 27.35Z" fill="#C4C4C4" style="fill:#C4C4C4;fill:color(display-p3 0.7686 0.7686 0.7686);fill-opacity:1;"/>
</mask>
<g mask="url(#mask0_177_347)">
<path d="M124 14H4V115H124V14Z" fill="white" style="fill:white;fill-opacity:1;"/>
<path d="M119.627 14H93.085L124 109.95V115H99.085L66.5425 14H40L72.5425 115H46L22 40.5125L4 34.0737V67.025L19.4575 115H46L4 99.9762V67.025L124 109.95V76.9988L22 40.5125L13.4575 14H40L124 44.0475V27.5719L119.627 14Z" fill="#0098D4" style="fill:#0098D4;fill:color(display-p3 0.0000 0.5961 0.8314);fill-opacity:1;"/>
</g>
<path opacity="0.3" d="M124 107.2C122.15 108.32 120.34 109.26 118.57 110.05C116.79 110.85 115.05 111.5 113.33 112.03C111.61 112.56 109.93 112.98 108.27 113.29C106.61 113.61 104.98 113.83 103.38 113.97C101.77 114.11 100.19 114.17 98.63 114.17C97.07 114.17 95.53 114.11 94.01 113.99C92.49 113.88 90.99 113.71 89.51 113.51C88.03 113.3 86.56 113.06 85.11 112.78C83.66 112.5 82.22 112.2 80.79 111.87C79.36 111.54 77.94 111.19 76.54 110.82C75.14 110.45 73.73 110.06 72.33 109.67C70.93 109.27 69.54 108.86 68.16 108.45C66.77 108.04 65.39 107.62 64 107.2C62.62 106.78 61.23 106.36 59.84 105.95C58.45 105.54 57.06 105.13 55.67 104.73C54.27 104.33 52.87 103.95 51.46 103.58C50.05 103.21 48.63 102.86 47.21 102.53C45.79 102.2 44.34 101.89 42.89 101.62C41.44 101.34 39.97 101.1 38.49 100.89C37.01 100.68 35.51 100.52 33.99 100.41C32.47 100.3 30.93 100.23 29.37 100.23C27.81 100.23 26.23 100.29 24.62 100.43C23.01 100.57 21.38 100.79 19.73 101.11C18.07 101.43 16.39 101.84 14.67 102.37C12.95 102.9 11.21 103.55 9.43 104.35C7.65 105.15 5.84 106.09 4 107.2V101.59V96.27V91.2V86.34V81.66C4 81.66 4 78.61 4 77.12V72.69C4 72.69 4 69.77 4 68.33C4 66.89 4 65.44 4 64V59.67V55.31V50.88C4 50.88 4 47.88 4 46.34C4 44.8 4 43.25 4 41.66V36.8C4 36.8 4 33.46 4 31.73V26.41V20.8C5.85 19.68 7.66 18.74 9.43 17.95C11.2 17.16 12.95 16.5 14.67 15.97C16.39 15.44 18.07 15.02 19.73 14.71C21.39 14.39 23.02 14.17 24.62 14.03C26.23 13.89 27.81 13.83 29.37 13.83C30.93 13.83 32.47 13.89 33.99 14.01C35.51 14.12 37.01 14.29 38.49 14.49C39.97 14.69 41.44 14.94 42.89 15.22C44.34 15.5 45.78 15.8 47.21 16.13C48.64 16.46 50.06 16.81 51.46 17.18C52.87 17.55 54.27 17.94 55.67 18.33C57.07 18.72 58.46 19.14 59.84 19.55C61.22 19.96 62.61 20.38 64 20.8C65.38 21.22 66.77 21.64 68.16 22.05C69.55 22.46 70.94 22.87 72.33 23.27C73.72 23.67 75.13 24.05 76.54 24.42C77.95 24.79 79.37 25.14 80.79 25.47C82.22 25.8 83.66 26.11 85.11 26.38C86.56 26.66 88.03 26.9 89.51 27.11C90.99 27.32 92.49 27.48 94.01 27.59C95.53 27.7 97.07 27.77 98.63 27.77C100.19 27.77 101.77 27.71 103.38 27.57C104.99 27.43 106.62 27.21 108.27 26.89C109.93 26.57 111.61 26.16 113.33 25.63C115.05 25.1 116.79 24.45 118.57 23.65C120.35 22.85 122.16 21.91 124 20.8V26.41V31.73V36.8C124 36.8 124 40.07 124 41.66V46.34C124 46.34 124 49.39 124 50.88C124 52.37 124 53.85 124 55.31V59.67V64V68.33C124 68.33 124 71.23 124 72.69C124 74.15 124 75.63 124 77.12V81.66C124 81.66 124 84.75 124 86.34V91.2V96.27V101.59V107.2Z" fill="url(#paint0_linear_177_347)" style=""/>
<defs>
<linearGradient id="paint0_linear_177_347" x1="5.3703" y1="22.659" x2="122.37" y2="105.16" gradientUnits="userSpaceOnUse">
<stop stop-color="white" stop-opacity="0" style="stop-color:none;stop-opacity:0;"/>
<stop offset="0.1646" stop-color="#C8C8C8" stop-opacity="0.1646" style="stop-color:#C8C8C8;stop-color:color(display-p3 0.7843 0.7843 0.7843);stop-opacity:0.1646;"/>
<stop offset="0.3934" stop-color="#828282" stop-opacity="0.3934" style="stop-color:#828282;stop-color:color(display-p3 0.5098 0.5098 0.5098);stop-opacity:0.3934;"/>
<stop offset="0.5997" stop-color="#4A4A4A" stop-opacity="0.5997" style="stop-color:#4A4A4A;stop-color:color(display-p3 0.2902 0.2902 0.2902);stop-opacity:0.5997;"/>
<stop offset="0.7759" stop-color="#222222" stop-opacity="0.7759" style="stop-color:#222222;stop-color:color(display-p3 0.1333 0.1333 0.1333);stop-opacity:0.7759;"/>
<stop offset="0.9151" stop-color="#090909" stop-opacity="0.9151" style="stop-color:#090909;stop-color:color(display-p3 0.0353 0.0353 0.0353);stop-opacity:0.9151;"/>
<stop offset="1" style="stop-color:black;stop-opacity:1;"/>
</linearGradient>
</defs>
</svg>
