<svg width="128" height="129" viewBox="0 0 128 129" fill="none" xmlns="http://www.w3.org/2000/svg">
<g clip-path="url(#clip0_62_44)">
<path d="M124 35.825C122.15 36.945 120.34 37.885 118.57 38.675C116.79 39.475 115.05 40.125 113.33 40.655C111.61 41.185 109.93 41.605 108.27 41.915C106.61 42.235 104.98 42.455 103.38 42.595C101.78 42.735 100.19 42.795 98.63 42.795C97.07 42.795 95.53 42.735 94.01 42.615C92.49 42.495 90.99 42.335 89.51 42.135C88.03 41.925 86.56 41.685 85.11 41.405C83.66 41.125 82.22 40.825 80.79 40.495C79.36 40.165 77.94 39.815 76.54 39.445C75.13 39.075 73.73 38.685 72.33 38.295C70.93 37.905 69.54 37.485 68.16 37.075C66.77 36.665 65.39 36.245 64 35.825C62.62 35.405 61.23 34.985 59.84 34.575C58.45 34.165 57.06 33.755 55.67 33.355C54.27 32.955 52.87 32.575 51.46 32.205C50.05 31.835 48.63 31.485 47.21 31.155C45.79 30.825 44.34 30.515 42.89 30.245C41.44 29.965 39.97 29.725 38.49 29.515C37.01 29.305 35.51 29.145 33.99 29.035C32.47 28.925 30.93 28.855 29.37 28.855C27.81 28.855 26.23 28.915 24.62 29.055C23.01 29.195 21.38 29.415 19.73 29.735C18.07 30.055 16.39 30.465 14.67 30.995C12.95 31.525 11.21 32.175 9.43 32.975C7.66 33.775 5.85 34.715 4 35.825V30.815C4 30.815 4 27.935 4 26.445V21.435C5.85 20.315 7.66 19.375 9.43 18.585C11.2 17.795 12.95 17.135 14.67 16.605C16.39 16.075 18.07 15.655 19.73 15.345C21.39 15.025 23.02 14.805 24.62 14.665C26.23 14.525 27.81 14.465 29.37 14.465C30.93 14.465 32.47 14.525 33.99 14.645C35.51 14.755 37.01 14.925 38.49 15.125C39.97 15.325 41.44 15.575 42.89 15.855C44.34 16.135 45.78 16.435 47.21 16.765C48.64 17.095 50.06 17.445 51.46 17.815C52.87 18.185 54.27 18.575 55.67 18.965C57.07 19.355 58.46 19.775 59.84 20.185C61.22 20.595 62.61 21.015 64 21.435C65.38 21.855 66.77 22.275 68.16 22.685C69.55 23.095 70.94 23.505 72.33 23.905C73.72 24.305 75.13 24.685 76.54 25.055C77.95 25.425 79.37 25.775 80.79 26.105C82.22 26.435 83.66 26.745 85.11 27.015C86.56 27.295 88.03 27.535 89.51 27.745C90.99 27.955 92.49 28.115 94.01 28.225C95.53 28.335 97.07 28.405 98.63 28.405C100.19 28.405 101.77 28.345 103.38 28.205C104.99 28.065 106.62 27.845 108.27 27.525C109.93 27.205 111.61 26.795 113.33 26.265C115.05 25.735 116.79 25.085 118.57 24.285C120.35 23.485 122.16 22.545 124 21.435V26.445V30.815C124 30.815 124 33.905 124 35.825Z" fill="#FF0C9A" style="fill:#FF0C9A;fill:color(display-p3 1.0000 0.0471 0.6039);fill-opacity:1;"/>
<path d="M124 50.225C122.15 51.345 120.34 52.285 118.57 53.075C116.79 53.875 115.05 54.525 113.33 55.055C111.61 55.585 109.93 56.005 108.27 56.315C106.61 56.635 104.98 56.855 103.38 56.995C101.78 57.135 100.19 57.195 98.63 57.195C97.07 57.195 95.53 57.135 94.01 57.015C92.49 56.895 90.99 56.735 89.51 56.535C88.03 56.325 86.56 56.085 85.11 55.805C83.66 55.525 82.22 55.225 80.79 54.895C79.36 54.565 77.94 54.215 76.54 53.845C75.13 53.475 73.73 53.085 72.33 52.695C70.93 52.305 69.54 51.885 68.16 51.475C66.77 51.065 65.39 50.645 64 50.225C62.61 49.805 61.23 49.385 59.84 48.975C58.45 48.565 57.06 48.155 55.67 47.755C54.27 47.355 52.87 46.975 51.46 46.605C50.05 46.235 48.63 45.885 47.21 45.555C45.78 45.225 44.34 44.915 42.89 44.645C41.44 44.365 39.97 44.125 38.49 43.915C37.01 43.705 35.51 43.545 33.99 43.435C32.47 43.325 30.93 43.255 29.37 43.255C27.81 43.255 26.23 43.315 24.62 43.455C23.01 43.595 21.38 43.815 19.73 44.135C18.07 44.455 16.39 44.865 14.67 45.395C12.95 45.925 11.21 46.575 9.43 47.375C7.65 48.175 5.85 49.105 4 50.225V45.215C4 45.215 4 42.335 4 40.845C4 39.355 4 37.755 4 35.835C5.85 34.715 7.66 33.775 9.43 32.985C11.21 32.185 12.95 31.535 14.67 31.005C16.39 30.475 18.07 30.055 19.73 29.745C21.39 29.425 23.02 29.205 24.62 29.065C26.23 28.925 27.81 28.865 29.37 28.865C30.93 28.865 32.47 28.925 33.99 29.045C35.51 29.155 37.01 29.325 38.49 29.525C39.97 29.725 41.44 29.975 42.89 30.255C44.34 30.535 45.78 30.835 47.21 31.165C48.64 31.495 50.06 31.845 51.46 32.215C52.87 32.585 54.27 32.975 55.67 33.365C57.07 33.765 58.46 34.175 59.84 34.585C61.23 34.995 62.61 35.415 64 35.835C65.38 36.255 66.77 36.675 68.16 37.085C69.55 37.495 70.94 37.905 72.33 38.305C73.72 38.705 75.13 39.085 76.54 39.455C77.95 39.825 79.37 40.175 80.79 40.505C82.22 40.835 83.66 41.145 85.11 41.415C86.56 41.695 88.03 41.935 89.51 42.145C90.99 42.355 92.49 42.515 94.01 42.625C95.53 42.735 97.07 42.805 98.63 42.805C100.19 42.805 101.77 42.745 103.38 42.605C104.99 42.465 106.62 42.245 108.27 41.925C109.93 41.605 111.61 41.195 113.33 40.665C115.05 40.135 116.79 39.485 118.57 38.685C120.35 37.885 122.16 36.945 124 35.835V40.845C124 40.845 124 43.725 124 45.215C124 46.705 124 48.305 124 50.225Z" fill="#FF0C9A" style="fill:#FF0C9A;fill:color(display-p3 1.0000 0.0471 0.6039);fill-opacity:1;"/>
<path d="M124 64.625C122.15 65.745 120.34 66.685 118.57 67.475C116.79 68.275 115.05 68.925 113.33 69.455C111.61 69.985 109.93 70.405 108.27 70.715C106.61 71.035 104.98 71.255 103.38 71.395C101.78 71.535 100.19 71.595 98.63 71.595C97.07 71.595 95.53 71.535 94.01 71.415C92.49 71.295 90.99 71.135 89.51 70.935C88.03 70.725 86.56 70.485 85.11 70.205C83.66 69.925 82.22 69.625 80.79 69.295C79.36 68.965 77.94 68.615 76.54 68.245C75.13 67.875 73.73 67.485 72.33 67.095C70.93 66.705 69.54 66.285 68.16 65.875C66.77 65.465 65.38 65.045 64 64.625C62.62 64.205 61.23 63.785 59.84 63.375C58.45 62.965 57.06 62.555 55.67 62.155C54.27 61.755 52.87 61.375 51.46 61.005C50.05 60.635 48.63 60.285 47.21 59.955C45.79 59.625 44.34 59.315 42.89 59.045C41.44 58.765 39.97 58.525 38.49 58.315C37.01 58.105 35.51 57.945 33.99 57.835C32.47 57.725 30.93 57.655 29.37 57.655C27.81 57.655 26.23 57.715 24.62 57.855C23.01 57.995 21.38 58.215 19.73 58.535C18.07 58.855 16.39 59.265 14.67 59.795C12.95 60.325 11.21 60.975 9.43 61.775C7.66 62.565 5.85 63.505 4 64.625V59.615C4 59.615 4 56.735 4 55.245V50.235C5.85 49.115 7.66 48.175 9.43 47.385C11.2 46.595 12.95 45.935 14.67 45.405C16.39 44.875 18.07 44.455 19.73 44.145C21.39 43.825 23.02 43.605 24.62 43.465C26.23 43.325 27.81 43.265 29.37 43.265C30.93 43.265 32.47 43.325 33.99 43.445C35.51 43.555 37.01 43.725 38.49 43.925C39.97 44.135 41.44 44.375 42.89 44.655C44.34 44.935 45.78 45.235 47.21 45.565C48.64 45.895 50.06 46.245 51.46 46.615C52.87 46.985 54.27 47.375 55.67 47.765C57.07 48.165 58.46 48.575 59.84 48.985C61.23 49.395 62.61 49.815 64 50.235C65.39 50.655 66.77 51.075 68.16 51.485C69.55 51.895 70.94 52.305 72.33 52.705C73.72 53.105 75.13 53.485 76.54 53.855C77.95 54.225 79.37 54.575 80.79 54.905C82.22 55.235 83.66 55.545 85.11 55.815C86.56 56.095 88.03 56.335 89.51 56.545C90.99 56.755 92.49 56.915 94.01 57.025C95.53 57.135 97.07 57.205 98.63 57.205C100.19 57.205 101.77 57.145 103.38 57.005C104.99 56.865 106.62 56.645 108.27 56.325C109.93 56.005 111.61 55.595 113.33 55.065C115.05 54.535 116.79 53.885 118.57 53.085C120.35 52.285 122.16 51.345 124 50.235V55.245V59.615C124 59.615 124 62.705 124 64.625Z" fill="#F2CB1F" style="fill:#F2CB1F;fill:color(display-p3 0.9490 0.7961 0.1216);fill-opacity:1;"/>
<path d="M124 79.025C122.15 80.145 120.34 81.085 118.57 81.875C116.79 82.675 115.05 83.325 113.33 83.855C111.61 84.385 109.93 84.805 108.27 85.115C106.61 85.425 104.98 85.655 103.38 85.795C101.77 85.935 100.19 85.995 98.63 85.995C97.07 85.995 95.53 85.935 94.01 85.815C92.49 85.705 90.99 85.535 89.51 85.335C88.03 85.125 86.56 84.885 85.11 84.605C83.66 84.325 82.22 84.025 80.79 83.695C79.36 83.365 77.94 83.015 76.54 82.645C75.13 82.275 73.73 81.885 72.33 81.495C70.93 81.105 69.54 80.685 68.16 80.275C66.77 79.865 65.39 79.445 64 79.025C62.62 78.605 61.23 78.185 59.84 77.775C58.45 77.365 57.06 76.955 55.67 76.555C54.27 76.155 52.87 75.775 51.46 75.405C50.05 75.035 48.63 74.685 47.21 74.355C45.79 74.025 44.34 73.715 42.89 73.445C41.44 73.165 39.97 72.925 38.49 72.715C37.01 72.505 35.51 72.345 33.99 72.235C32.47 72.125 30.93 72.055 29.37 72.055C27.81 72.055 26.23 72.115 24.62 72.255C23.01 72.395 21.38 72.615 19.73 72.935C18.07 73.255 16.39 73.665 14.67 74.195C12.95 74.725 11.21 75.375 9.43 76.175C7.66 76.975 5.85 77.915 4 79.025V74.015C4 74.015 4 71.135 4 69.645V64.635C5.85 63.515 7.66 62.575 9.43 61.785C11.21 60.985 12.95 60.335 14.67 59.805C16.39 59.275 18.07 58.855 19.73 58.545C21.39 58.225 23.02 58.005 24.62 57.865C26.23 57.725 27.81 57.665 29.37 57.665C30.93 57.665 32.47 57.725 33.99 57.845C35.51 57.955 37.01 58.125 38.49 58.325C39.97 58.535 41.44 58.775 42.89 59.055C44.34 59.335 45.78 59.635 47.21 59.965C48.64 60.295 50.06 60.645 51.46 61.015C52.87 61.385 54.27 61.775 55.67 62.165C57.07 62.565 58.46 62.975 59.84 63.385C61.23 63.795 62.61 64.215 64 64.635C65.38 65.055 66.77 65.475 68.16 65.885C69.55 66.295 70.94 66.705 72.33 67.105C73.72 67.505 75.13 67.885 76.54 68.255C77.95 68.625 79.37 68.975 80.79 69.305C82.22 69.635 83.66 69.945 85.11 70.215C86.56 70.495 88.03 70.735 89.51 70.945C90.99 71.155 92.49 71.315 94.01 71.425C95.53 71.535 97.07 71.605 98.63 71.605C100.19 71.605 101.77 71.545 103.38 71.405C104.99 71.265 106.62 71.045 108.27 70.725C109.93 70.405 111.61 69.995 113.33 69.465C115.05 68.935 116.79 68.285 118.57 67.485C120.35 66.685 122.16 65.745 124 64.635V69.645V74.015C124 74.015 124 77.105 124 79.025Z" fill="#F2CB1F" style="fill:#F2CB1F;fill:color(display-p3 0.9490 0.7961 0.1216);fill-opacity:1;"/>
<path d="M124 93.4249C122.15 94.5449 120.34 95.4849 118.57 96.2749C116.79 97.0749 115.05 97.7249 113.33 98.2549C111.61 98.7849 109.93 99.2049 108.27 99.5149C106.61 99.8249 104.98 100.055 103.38 100.195C101.77 100.335 100.19 100.395 98.63 100.395C97.07 100.395 95.53 100.335 94.01 100.215C92.49 100.105 90.99 99.9349 89.51 99.7349C88.03 99.5249 86.56 99.2849 85.11 99.0049C83.66 98.7249 82.22 98.4249 80.79 98.0949C79.36 97.7649 77.94 97.4149 76.54 97.0449C75.13 96.6749 73.73 96.2849 72.33 95.8949C70.93 95.4949 69.54 95.0849 68.16 94.6749C66.77 94.2649 65.39 93.8449 64 93.4249C62.62 93.0049 61.23 92.5849 59.84 92.1749C58.45 91.7649 57.06 91.3549 55.67 90.9549C54.27 90.5549 52.87 90.1749 51.46 89.8049C50.05 89.4349 48.63 89.0849 47.21 88.7549C45.79 88.4249 44.34 88.1149 42.89 87.8449C41.44 87.5649 39.97 87.3249 38.49 87.1149C37.01 86.9049 35.51 86.7449 33.99 86.6349C32.47 86.5249 30.93 86.4549 29.37 86.4549C27.81 86.4549 26.23 86.5149 24.62 86.6549C23.01 86.7949 21.38 87.0149 19.73 87.3349C18.08 87.6549 16.39 88.0649 14.67 88.5949C12.95 89.1249 11.21 89.7749 9.43 90.5749C7.65 91.3749 5.85 92.3049 4 93.4249V88.4149C4 88.4149 4 85.5349 4 84.0449V79.0349C5.85 77.9149 7.66 76.9749 9.43 76.1849C11.21 75.3849 12.95 74.7349 14.67 74.2049C16.39 73.6749 18.07 73.2549 19.73 72.9449C21.39 72.6249 23.02 72.4049 24.62 72.2649C26.23 72.1249 27.81 72.0649 29.37 72.0649C30.93 72.0649 32.47 72.1249 33.99 72.2449C35.51 72.3549 37.01 72.5249 38.49 72.7249C39.97 72.9349 41.44 73.1749 42.89 73.4549C44.34 73.7349 45.78 74.0349 47.21 74.3649C48.64 74.6949 50.06 75.0449 51.46 75.4149C52.87 75.7849 54.27 76.1749 55.67 76.5649C57.07 76.9649 58.46 77.3749 59.84 77.7849C61.23 78.1949 62.61 78.6149 64 79.0349C65.38 79.4549 66.77 79.8749 68.16 80.2849C69.55 80.6949 70.94 81.1049 72.33 81.5049C73.72 81.9049 75.13 82.2849 76.54 82.6549C77.95 83.0249 79.37 83.3749 80.79 83.7049C82.22 84.0349 83.66 84.3449 85.11 84.6149C86.56 84.8949 88.03 85.1349 89.51 85.3449C90.99 85.5549 92.49 85.7149 94.01 85.8249C95.53 85.9349 97.07 86.0049 98.63 86.0049C100.19 86.0049 101.77 85.9449 103.38 85.8049C104.99 85.6649 106.62 85.4449 108.27 85.1249C109.93 84.8049 111.61 84.3949 113.33 83.8649C115.05 83.3349 116.79 82.6849 118.57 81.8849C120.35 81.0849 122.16 80.1449 124 79.0349V84.0449V88.4149C124 88.4149 124 91.5049 124 93.4249Z" fill="#2874F7" style="fill:#2874F7;fill:color(display-p3 0.1569 0.4549 0.9686);fill-opacity:1;"/>
<path d="M124 107.825C122.15 108.945 120.34 109.885 118.57 110.675C116.79 111.475 115.05 112.125 113.33 112.655C111.61 113.185 109.93 113.605 108.27 113.915C106.61 114.235 104.98 114.455 103.38 114.595C101.77 114.735 100.19 114.795 98.63 114.795C97.07 114.795 95.53 114.735 94.01 114.615C92.49 114.505 90.99 114.335 89.51 114.135C88.03 113.925 86.56 113.685 85.11 113.405C83.66 113.125 82.22 112.825 80.79 112.495C79.36 112.165 77.94 111.815 76.54 111.445C75.14 111.075 73.73 110.685 72.33 110.295C70.93 109.895 69.54 109.485 68.16 109.075C66.77 108.665 65.39 108.245 64 107.825C62.62 107.405 61.23 106.985 59.84 106.575C58.45 106.165 57.06 105.755 55.67 105.355C54.27 104.955 52.87 104.575 51.46 104.205C50.05 103.835 48.63 103.485 47.21 103.155C45.79 102.825 44.34 102.515 42.89 102.245C41.44 101.965 39.97 101.725 38.49 101.515C37.01 101.305 35.51 101.145 33.99 101.035C32.47 100.925 30.93 100.855 29.37 100.855C27.81 100.855 26.23 100.915 24.62 101.055C23.01 101.195 21.38 101.415 19.73 101.735C18.07 102.055 16.39 102.465 14.67 102.995C12.95 103.525 11.21 104.175 9.43 104.975C7.65 105.775 5.84 106.715 4 107.825V102.815C4 102.815 4 99.935 4 98.445V93.435C5.85 92.315 7.66 91.375 9.43 90.585C11.2 89.795 12.95 89.135 14.67 88.605C16.39 88.075 18.07 87.655 19.73 87.345C21.39 87.035 23.02 86.805 24.62 86.665C26.23 86.525 27.81 86.465 29.37 86.465C30.93 86.465 32.47 86.525 33.99 86.645C35.51 86.755 37.01 86.925 38.49 87.125C39.97 87.325 41.44 87.575 42.89 87.855C44.34 88.135 45.78 88.435 47.21 88.765C48.64 89.095 50.06 89.445 51.46 89.815C52.87 90.185 54.27 90.575 55.67 90.965C57.07 91.365 58.46 91.775 59.84 92.185C61.23 92.595 62.61 93.015 64 93.435C65.38 93.855 66.77 94.275 68.16 94.685C69.55 95.095 70.94 95.505 72.33 95.905C73.73 96.305 75.13 96.685 76.54 97.055C77.95 97.425 79.37 97.775 80.79 98.105C82.22 98.435 83.66 98.745 85.11 99.015C86.56 99.295 88.03 99.535 89.51 99.745C90.99 99.955 92.49 100.115 94.01 100.225C95.53 100.335 97.07 100.405 98.63 100.405C100.19 100.405 101.77 100.345 103.38 100.205C104.99 100.065 106.62 99.845 108.27 99.525C109.92 99.205 111.61 98.795 113.33 98.265C115.05 97.735 116.79 97.085 118.57 96.285C120.35 95.485 122.16 94.545 124 93.435V98.445V102.815C124 102.815 124 105.905 124 107.825Z" fill="#2874F7" style="fill:#2874F7;fill:color(display-p3 0.1569 0.4549 0.9686);fill-opacity:1;"/>
<path opacity="0.3" d="M124 107.825C122.15 108.945 120.34 109.885 118.57 110.675C116.79 111.475 115.05 112.125 113.33 112.655C111.61 113.185 109.93 113.605 108.27 113.915C106.61 114.235 104.98 114.455 103.38 114.595C101.77 114.735 100.19 114.795 98.63 114.795C97.07 114.795 95.53 114.735 94.01 114.615C92.49 114.505 90.99 114.335 89.51 114.135C88.03 113.925 86.56 113.685 85.11 113.405C83.66 113.125 82.22 112.825 80.79 112.495C79.36 112.165 77.94 111.815 76.54 111.445C75.14 111.075 73.73 110.685 72.33 110.295C70.93 109.895 69.54 109.485 68.16 109.075C66.77 108.665 65.39 108.245 64 107.825C62.62 107.405 61.23 106.985 59.84 106.575C58.45 106.165 57.06 105.755 55.67 105.355C54.27 104.955 52.87 104.575 51.46 104.205C50.05 103.835 48.63 103.485 47.21 103.155C45.79 102.825 44.34 102.515 42.89 102.245C41.44 101.965 39.97 101.725 38.49 101.515C37.01 101.305 35.51 101.145 33.99 101.035C32.47 100.925 30.93 100.855 29.37 100.855C27.81 100.855 26.23 100.915 24.62 101.055C23.01 101.195 21.38 101.415 19.73 101.735C18.07 102.055 16.39 102.465 14.67 102.995C12.95 103.525 11.21 104.175 9.43 104.975C7.65 105.775 5.84 106.715 4 107.825V102.215V96.895V91.825V86.965V82.285C4 82.285 4 79.235 4 77.745V73.315C4 73.315 4 70.395 4 68.955C4 67.515 4 66.065 4 64.625V60.295V55.935V51.505C4 51.505 4 48.505 4 46.965C4 45.425 4 43.875 4 42.285V37.425C4 37.425 4 34.085 4 32.355V27.035V21.425C5.85 20.305 7.66 19.365 9.43 18.575C11.2 17.785 12.95 17.125 14.67 16.595C16.39 16.065 18.07 15.645 19.73 15.335C21.39 15.015 23.02 14.795 24.62 14.655C26.23 14.515 27.81 14.455 29.37 14.455C30.93 14.455 32.47 14.515 33.99 14.635C35.51 14.745 37.01 14.915 38.49 15.115C39.97 15.315 41.44 15.565 42.89 15.845C44.34 16.125 45.78 16.425 47.21 16.755C48.64 17.085 50.06 17.435 51.46 17.805C52.87 18.175 54.27 18.565 55.67 18.955C57.07 19.345 58.46 19.765 59.84 20.175C61.22 20.585 62.61 21.005 64 21.425C65.38 21.845 66.77 22.265 68.16 22.675C69.55 23.085 70.94 23.495 72.33 23.895C73.72 24.295 75.13 24.675 76.54 25.045C77.95 25.415 79.37 25.765 80.79 26.095C82.22 26.425 83.66 26.735 85.11 27.005C86.56 27.285 88.03 27.525 89.51 27.735C90.99 27.945 92.49 28.105 94.01 28.215C95.53 28.325 97.07 28.395 98.63 28.395C100.19 28.395 101.77 28.335 103.38 28.195C104.99 28.055 106.62 27.835 108.27 27.515C109.93 27.195 111.61 26.785 113.33 26.255C115.05 25.725 116.79 25.075 118.57 24.275C120.35 23.475 122.16 22.535 124 21.425V27.035V32.355V37.425C124 37.425 124 40.695 124 42.285V46.965C124 46.965 124 50.015 124 51.505C124 52.995 124 54.475 124 55.935V60.295V64.625V68.955C124 68.955 124 71.855 124 73.315C124 74.775 124 76.255 124 77.745V82.285C124 82.285 124 85.375 124 86.965V91.825V96.895V102.215V107.825Z" fill="url(#paint0_linear_62_44)" style=""/>
</g>
<defs>
<linearGradient id="paint0_linear_62_44" x1="5.3703" y1="23.284" x2="122.37" y2="105.785" gradientUnits="userSpaceOnUse">
<stop stop-color="white" stop-opacity="0" style="stop-color:none;stop-opacity:0;"/>
<stop offset="0.1646" stop-color="#C8C8C8" stop-opacity="0.1646" style="stop-color:#C8C8C8;stop-color:color(display-p3 0.7843 0.7843 0.7843);stop-opacity:0.1646;"/>
<stop offset="0.3934" stop-color="#828282" stop-opacity="0.3934" style="stop-color:#828282;stop-color:color(display-p3 0.5098 0.5098 0.5098);stop-opacity:0.3934;"/>
<stop offset="0.5997" stop-color="#4A4A4A" stop-opacity="0.5997" style="stop-color:#4A4A4A;stop-color:color(display-p3 0.2902 0.2902 0.2902);stop-opacity:0.5997;"/>
<stop offset="0.7759" stop-color="#222222" stop-opacity="0.7759" style="stop-color:#222222;stop-color:color(display-p3 0.1333 0.1333 0.1333);stop-opacity:0.7759;"/>
<stop offset="0.9151" stop-color="#090909" stop-opacity="0.9151" style="stop-color:#090909;stop-color:color(display-p3 0.0353 0.0353 0.0353);stop-opacity:0.9151;"/>
<stop offset="1" style="stop-color:black;stop-opacity:1;"/>
</linearGradient>
<clipPath id="clip0_62_44">
<rect width="128" height="128" fill="white" style="fill:white;fill-opacity:1;" transform="translate(0 0.625)"/>
</clipPath>
</defs>
</svg>
