<svg width="128" height="128" viewBox="0 0 128 128" fill="none" xmlns="http://www.w3.org/2000/svg">
<g opacity="0.2">
<path d="M64.73 20C19.51 20 5 61.27 5 61.27C5 61.27 17.42 101.12 64.73 101.12C72.07 101.18 79.37 100.1 86.37 97.91C92.37 106.4 105.15 110.38 111.67 111.24H111.94C113.04 111.22 113.93 110.31 113.91 109.21C113.9 108.83 113.79 108.46 113.58 108.14C110.65 103.83 106 96.14 104.36 88.47C113.39 81.45 120.25 72.02 124.14 61.26C124.14 61.26 109.95 20 64.73 20Z" fill="white" style="fill:white;fill-opacity:1;"/>
</g>
<path d="M15.677 38.6288C25.386 27.8343 41.0803 17 64.73 17C88.3821 17 104 27.8367 113.632 38.6384C118.43 44.0198 121.749 49.3932 123.871 53.424C124.933 55.4423 125.7 57.1323 126.206 58.3301C126.459 58.9292 126.647 59.406 126.774 59.74C126.837 59.907 126.886 60.0384 126.919 60.1317L126.948 60.2115L126.959 60.2427L126.971 60.2761L126.976 60.2914L126.977 60.2946C127.2 60.942 127.194 61.6461 126.961 62.29C123.101 72.9685 116.453 82.3984 107.73 89.6218C109.526 96.1007 113.418 102.575 116.061 106.463L116.067 106.472C116.75 107.485 117.027 108.698 116.876 109.88L116.876 109.882C116.527 112.596 114.059 114.543 111.318 114.219L111.278 114.214C107.734 113.747 102.622 112.458 97.5835 110.167C93.1889 108.17 88.6309 105.311 85.2646 101.368C78.5844 103.251 71.6676 104.176 64.7176 104.12C40.1026 104.117 24.3999 93.7027 14.8997 83.2084C10.175 77.9893 7.00231 72.7748 5.00684 68.8586C4.00782 66.8979 3.29987 65.2548 2.83726 64.088C2.60585 63.5043 2.4355 63.039 2.32056 62.7117C2.26307 62.5481 2.21942 62.4189 2.18888 62.3265C2.17361 62.2804 2.16162 62.2435 2.15282 62.216L2.14199 62.1821L2.13835 62.1705L2.13697 62.1661L2.14972 62.1599L2.13588 62.1627C1.94374 61.5462 1.95565 60.8841 2.16983 60.2749L2.17508 60.2756L2.17095 60.2718L2.1724 60.2677L2.17633 60.2566L2.18828 60.2232C2.19808 60.196 2.21154 60.159 2.22874 60.1124C2.26313 60.0193 2.31247 59.888 2.37725 59.7211C2.50679 59.3873 2.69822 58.9108 2.95564 58.3119C3.47026 57.1147 4.24992 55.4254 5.32765 53.408C7.48012 49.3787 10.8391 44.0076 15.677 38.6288Z" fill="#575757" style="fill:#575757;fill:color(display-p3 0.3412 0.3412 0.3412);fill-opacity:1;"/>
<path d="M15.677 38.6288C25.386 27.8343 41.0803 17 64.73 17C88.3821 17 104 27.8367 113.632 38.6384C118.43 44.0198 121.749 49.3932 123.871 53.424C124.933 55.4423 125.7 57.1323 126.206 58.3301C126.459 58.9292 126.647 59.406 126.774 59.74C126.837 59.907 126.886 60.0384 126.919 60.1317L126.948 60.2115L126.959 60.2427L126.971 60.2761L126.976 60.2914L126.977 60.2946C127.2 60.942 127.194 61.6461 126.961 62.29C123.101 72.9685 116.453 82.3984 107.73 89.6218C109.526 96.1007 113.418 102.575 116.061 106.463L116.067 106.472C116.75 107.485 117.027 108.698 116.876 109.88L116.876 109.882C116.527 112.596 114.059 114.543 111.318 114.219L111.278 114.214C107.734 113.747 102.622 112.458 97.5835 110.167C93.1889 108.17 88.6309 105.311 85.2646 101.368C78.5844 103.251 71.6676 104.176 64.7176 104.12C40.1026 104.117 24.3999 93.7027 14.8997 83.2084C10.175 77.9893 7.00231 72.7748 5.00684 68.8586C4.00782 66.8979 3.29987 65.2548 2.83726 64.088C2.60585 63.5043 2.4355 63.039 2.32056 62.7117C2.26307 62.5481 2.21942 62.4189 2.18888 62.3265C2.17361 62.2804 2.16162 62.2435 2.15282 62.216L2.14199 62.1821L2.13835 62.1705L2.13697 62.1661L2.14972 62.1599L2.13588 62.1627C1.94374 61.5462 1.95565 60.8841 2.16983 60.2749L2.17508 60.2756L2.17095 60.2718L2.1724 60.2677L2.17633 60.2566L2.18828 60.2232C2.19808 60.196 2.21154 60.159 2.22874 60.1124C2.26313 60.0193 2.31247 59.888 2.37725 59.7211C2.50679 59.3873 2.69822 58.9108 2.95564 58.3119C3.47026 57.1147 4.24992 55.4254 5.32765 53.408C7.48012 49.3787 10.8391 44.0076 15.677 38.6288Z" fill="white" style="fill:white;fill-opacity:1;"/>
<path fill-rule="evenodd" clip-rule="evenodd" d="M102.912 90.9577C102.385 89.0587 103.023 87.0275 104.541 85.7707C112.392 79.2699 118.417 70.8304 122.007 61.2749C121.905 61.0134 121.769 60.6771 121.599 60.2744L126.206 58.3301C126.459 58.9292 126.647 59.406 126.774 59.74C126.837 59.907 126.886 60.0384 126.919 60.1317L126.948 60.2115L126.959 60.2427L126.971 60.2761L126.976 60.2914L126.977 60.2946C127.2 60.942 127.194 61.6461 126.961 62.29C123.101 72.9685 116.453 82.3984 107.73 89.6218C109.526 96.1007 113.418 102.575 116.061 106.463L116.067 106.472C116.75 107.485 117.027 108.698 116.876 109.88L116.876 109.882C116.527 112.596 114.059 114.543 111.318 114.219L111.278 114.214C107.734 113.747 102.622 112.458 97.5835 110.167C93.1889 108.17 88.6309 105.311 85.2646 101.368C78.5844 103.251 71.6676 104.176 64.7176 104.12C40.1026 104.117 24.3999 93.7027 14.8997 83.2084C10.175 77.9893 7.00231 72.7748 5.00684 68.8586C4.28211 67.4362 3.71057 66.181 3.27474 65.1535C3.10979 64.7646 2.96428 64.4083 2.83726 64.088C2.60585 63.5043 2.4355 63.039 2.32056 62.7117C2.26307 62.5481 2.21942 62.4189 2.18888 62.3265C2.1833 62.3097 2.17817 62.2941 2.17346 62.2797C2.16528 62.2547 2.1584 62.2334 2.15282 62.216L2.14199 62.1821L2.13835 62.1705L2.13697 62.1661L2.14972 62.1599L2.13588 62.1627C2.12769 62.1364 2.11987 62.11 2.11242 62.0836C2.0646 61.9138 2.03206 61.741 2.01475 61.5671C2.01394 61.559 2.01317 61.5509 2.01243 61.5428C2.01226 61.5409 2.01208 61.539 2.01191 61.5371C2.00856 61.4996 2.00592 61.4621 2.00398 61.4245C1.98416 61.0401 2.03838 60.6531 2.16626 60.2851C2.16744 60.2817 2.16863 60.2783 2.16983 60.2749L2.17508 60.2756L2.17095 60.2718L2.1724 60.2677L2.17633 60.2566L2.18828 60.2232C2.19808 60.196 2.21154 60.159 2.22874 60.1124C2.26313 60.0193 2.31247 59.888 2.37725 59.7211C2.50679 59.3873 2.69822 58.9108 2.95564 58.3119C3.08519 58.0106 3.23153 57.678 3.39519 57.3169C3.88167 56.2435 4.52121 54.9176 5.32765 53.408C7.48012 49.3787 10.8391 44.0076 15.677 38.6288C25.386 27.8343 41.0803 17 64.73 17C88.3821 17 104 27.8367 113.632 38.6384C118.43 44.0198 121.749 49.3932 123.871 53.424C124.933 55.4423 125.7 57.1323 126.206 58.3301L121.599 60.2744C121.143 59.1922 120.436 57.632 119.447 55.7532C117.466 51.992 114.367 46.9764 109.9 41.9661C100.987 31.9706 86.6444 22 64.73 22C42.814 22 28.3892 31.9722 19.3945 41.9725C14.8865 46.9845 11.7476 52.0017 9.73782 55.7639C8.73391 57.6432 8.01462 59.2038 7.54924 60.2865C7.3723 60.6981 7.2322 61.0404 7.12722 61.3044C7.21707 61.5519 7.33574 61.868 7.48528 62.2452C7.89689 63.2834 8.54153 64.7824 9.46185 66.5886C11.3042 70.2043 14.2406 75.0301 18.6064 79.8528C27.3022 89.4585 41.7156 99.1167 64.7184 99.12L64.7577 99.1202C71.2374 99.1721 77.6841 98.3097 83.9083 96.5555C85.7861 96.0263 87.8003 96.6376 89.0672 98.1214C91.7936 101.315 95.6471 103.795 99.6526 105.616C104.216 107.69 108.839 108.847 111.91 109.254C111.91 109.254 111.911 109.254 111.911 109.253C111.911 109.253 111.911 109.253 111.911 109.253C109.175 105.225 104.926 98.2212 102.912 90.9577Z" fill="black" style="fill:black;fill-opacity:1;"/>
</svg>
