<svg width="128" height="128" viewBox="0 0 128 128" fill="none" xmlns="http://www.w3.org/2000/svg">
<path d="M63.6 118.8C35.7 118.8 5.59998 101.3 5.59998 62.9C5.59998 24.5 35.7 7 63.6 7C79.1 7 93.4 12.1 104 21.4C115.5 31.6 121.6 46 121.6 62.9C121.6 79.8 115.5 94.1 104 104.3C93.4 113.6 79 118.8 63.6 118.8Z" fill="url(#paint0_radial_169_7920)" style=""/>
<path d="M63.6 118.8C35.7 118.8 5.59998 101.3 5.59998 62.9C5.59998 24.5 35.7 7 63.6 7C79.1 7 93.4 12.1 104 21.4C115.5 31.6 121.6 46 121.6 62.9C121.6 79.8 115.5 94.1 104 104.3C93.4 113.6 79 118.8 63.6 118.8Z" fill="url(#paint1_radial_169_7920)" style=""/>
<path d="M63.6 118.8C35.7 118.8 5.59998 101.3 5.59998 62.9C5.59998 24.5 35.7 7 63.6 7C79.1 7 93.4 12.1 104 21.4C115.5 31.6 121.6 46 121.6 62.9C121.6 79.8 115.5 94.1 104 104.3C93.4 113.6 79 118.8 63.6 118.8Z" fill="url(#paint2_radial_169_7920)" style=""/>
<path d="M111.49 29.6699C116.82 38.2699 119.6 48.5099 119.6 59.8999C119.6 76.7999 113.5 91.0999 102 101.3C91.3999 110.6 76.9999 115.8 61.5999 115.8C43.5399 115.8 24.5999 108.45 13.4199 92.8599C24.1799 110.52 44.4199 118.8 63.5999 118.8C78.9999 118.8 93.3999 113.6 104 104.3C115.5 94.0999 121.6 79.7999 121.6 62.8999C121.6 50.1599 118.13 38.8399 111.49 29.6699Z" fill="#EB8F00" style="fill:#EB8F00;fill:color(display-p3 0.9216 0.5608 0.0000);fill-opacity:1;"/>
<path d="M111.49 29.6699C116.82 38.2699 119.6 48.5099 119.6 59.8999C119.6 76.7999 113.5 91.0999 102 101.3C91.3999 110.6 76.9999 115.8 61.5999 115.8C43.5399 115.8 24.5999 108.45 13.4199 92.8599C24.1799 110.52 44.4199 118.8 63.5999 118.8C78.9999 118.8 93.3999 113.6 104 104.3C115.5 94.0999 121.6 79.7999 121.6 62.8999C121.6 50.1599 118.13 38.8399 111.49 29.6699Z" fill="#F3B872" style="fill:#F3B872;fill:color(display-p3 0.9542 0.7229 0.4453);fill-opacity:1;"/>
<path d="M111.49 29.6699C116.82 38.2699 119.6 48.5099 119.6 59.8999C119.6 76.7999 113.5 91.0999 102 101.3C91.3999 110.6 76.9999 115.8 61.5999 115.8C43.5399 115.8 24.5999 108.45 13.4199 92.8599C24.1799 110.52 44.4199 118.8 63.5999 118.8C78.9999 118.8 93.3999 113.6 104 104.3C115.5 94.0999 121.6 79.7999 121.6 62.8999C121.6 50.1599 118.13 38.8399 111.49 29.6699Z" fill="#BA8F63" style="fill:#BA8F63;fill:color(display-p3 0.7294 0.5608 0.3882);fill-opacity:1;"/>
<path opacity="0.8" d="M27.2 99.7002C36.8649 99.7002 44.7 91.8652 44.7 82.2002C44.7 72.5352 36.8649 64.7002 27.2 64.7002C17.535 64.7002 9.69995 72.5352 9.69995 82.2002C9.69995 91.8652 17.535 99.7002 27.2 99.7002Z" fill="url(#paint3_radial_169_7920)" style=""/>
<path opacity="0.8" d="M94.88 99.7002C104.545 99.7002 112.38 91.8652 112.38 82.2002C112.38 72.5352 104.545 64.7002 94.88 64.7002C85.215 64.7002 77.38 72.5352 77.38 82.2002C77.38 91.8652 85.215 99.7002 94.88 99.7002Z" fill="url(#paint4_radial_169_7920)" style=""/>
<path opacity="0.8" d="M99.7999 99.7002C109.465 99.7002 117.3 91.8652 117.3 82.2002C117.3 72.5352 109.465 64.7002 99.7999 64.7002C90.1349 64.7002 82.2999 72.5352 82.2999 82.2002C82.2999 91.8652 90.1349 99.7002 99.7999 99.7002Z" fill="url(#paint5_radial_169_7920)" style=""/>
<path d="M56 96H71" stroke="#35220B" style="stroke:#35220B;stroke:color(display-p3 0.2078 0.1333 0.0431);stroke-opacity:1;" stroke-width="8" stroke-linecap="round" stroke-linejoin="round"/>
<path d="M89.1999 41.8003C98.8099 41.8003 106.6 49.5903 106.6 59.2003C106.6 68.8103 98.8099 76.6003 89.1999 76.6003C79.5899 76.6003 71.7999 68.8103 71.7999 59.2003C71.8099 49.5903 79.5899 41.8103 89.1999 41.8003Z" fill="white" style="fill:white;fill-opacity:1;"/>
<path d="M89.2 66.8001C93.3421 66.8001 96.7 63.3975 96.7 59.2001C96.7 55.0027 93.3421 51.6001 89.2 51.6001C85.0578 51.6001 81.7 55.0027 81.7 59.2001C81.7 63.3975 85.0578 66.8001 89.2 66.8001Z" fill="#5D4037" style="fill:#5D4037;fill:color(display-p3 0.3647 0.2510 0.2157);fill-opacity:1;"/>
<path d="M38.6999 41.7002C48.3099 41.7002 56.0999 49.4902 56.0999 59.1002C56.0999 68.7102 48.3099 76.5002 38.6999 76.5002C29.0899 76.5002 21.2999 68.7102 21.2999 59.1002C21.3099 49.4902 29.0899 41.7102 38.6999 41.7002Z" fill="white" style="fill:white;fill-opacity:1;"/>
<path d="M38.7 66.7002C42.8421 66.7002 46.2 63.2976 46.2 59.1002C46.2 54.9029 42.8421 51.5002 38.7 51.5002C34.5578 51.5002 31.2 54.9029 31.2 59.1002C31.2 63.2976 34.5578 66.7002 38.7 66.7002Z" fill="#5D4037" style="fill:#5D4037;fill:color(display-p3 0.3647 0.2510 0.2157);fill-opacity:1;"/>
<path d="M46.5599 27.2701H46.6599C47.6099 27.6201 48.6599 27.1301 49.0099 26.1801C49.3599 25.2301 48.8699 24.1801 47.9199 23.8301C46.1299 23.0301 44.2299 22.5201 42.2799 22.3301C37.0299 21.7001 31.7299 23.1001 27.4799 26.2501C25.4799 27.7601 27.5499 30.3101 29.5299 29.3101C34.8199 26.7401 40.8199 26.0201 46.5599 27.2701Z" fill="#5D4037" style="fill:#5D4037;fill:color(display-p3 0.3647 0.2510 0.2157);fill-opacity:1;"/>
<path d="M80.86 27.2701H80.76C79.81 27.6201 78.76 27.1301 78.41 26.1801C78.06 25.2301 78.55 24.1801 79.5 23.8301C81.29 23.0301 83.19 22.5201 85.14 22.3301C90.39 21.7001 95.69 23.1001 99.94 26.2501C101.94 27.7601 99.87 30.3101 97.94 29.3101C92.64 26.7301 86.62 26.0101 80.86 27.2701Z" fill="#5D4037" style="fill:#5D4037;fill:color(display-p3 0.3647 0.2510 0.2157);fill-opacity:1;"/>
<defs>
<radialGradient id="paint0_radial_169_7920" cx="0" cy="0" r="1" gradientUnits="userSpaceOnUse" gradientTransform="translate(63.6 62.9) scale(56.9597 56.9597)">
<stop offset="0.5" stop-color="#FDE030" style="stop-color:#FDE030;stop-color:color(display-p3 0.9922 0.8784 0.1882);stop-opacity:1;"/>
<stop offset="0.92" stop-color="#F7C02B" style="stop-color:#F7C02B;stop-color:color(display-p3 0.9686 0.7529 0.1686);stop-opacity:1;"/>
<stop offset="1" stop-color="#F4A223" style="stop-color:#F4A223;stop-color:color(display-p3 0.9569 0.6353 0.1373);stop-opacity:1;"/>
</radialGradient>
<radialGradient id="paint1_radial_169_7920" cx="0" cy="0" r="1" gradientUnits="userSpaceOnUse" gradientTransform="translate(38.599 34.5377) rotate(-43.2082) scale(102.024 101.825)">
<stop offset="0.3533" stop-color="#F9DDBD" style="stop-color:#F9DDBD;stop-color:color(display-p3 0.9765 0.8667 0.7412);stop-opacity:1;"/>
<stop offset="0.8723" stop-color="#FFD29C" style="stop-color:#FFD29C;stop-color:color(display-p3 1.0000 0.8235 0.6118);stop-opacity:1;"/>
</radialGradient>
<radialGradient id="paint2_radial_169_7920" cx="0" cy="0" r="1" gradientUnits="userSpaceOnUse" gradientTransform="translate(38.599 34.5377) rotate(-43.2082) scale(102.024 101.825)">
<stop offset="0.3533" stop-color="#E0BB95" style="stop-color:#E0BB95;stop-color:color(display-p3 0.8784 0.7333 0.5843);stop-opacity:1;"/>
<stop offset="0.8723" stop-color="#CCA47A" style="stop-color:#CCA47A;stop-color:color(display-p3 0.8000 0.6431 0.4784);stop-opacity:1;"/>
</radialGradient>
<radialGradient id="paint3_radial_169_7920" cx="0" cy="0" r="1" gradientUnits="userSpaceOnUse" gradientTransform="translate(27.3222 82.0472) scale(19.0512 18.0792)">
<stop stop-color="#ED7770" style="stop-color:#ED7770;stop-color:color(display-p3 0.9294 0.4667 0.4392);stop-opacity:1;"/>
<stop offset="0.9" stop-color="#ED7770" stop-opacity="0" style="stop-color:none;stop-opacity:0;"/>
</radialGradient>
<radialGradient id="paint4_radial_169_7920" cx="0" cy="0" r="1" gradientUnits="userSpaceOnUse" gradientTransform="translate(95.0006 82.0472) scale(19.0512 18.0792)">
<stop stop-color="#ED7770" style="stop-color:#ED7770;stop-color:color(display-p3 0.9294 0.4667 0.4392);stop-opacity:1;"/>
<stop offset="0.9" stop-color="#ED7770" stop-opacity="0" style="stop-color:none;stop-opacity:0;"/>
</radialGradient>
<radialGradient id="paint5_radial_169_7920" cx="0" cy="0" r="1" gradientUnits="userSpaceOnUse" gradientTransform="translate(147.43 1053.9) scale(19.44)">
<stop stop-color="#ED7770" style="stop-color:#ED7770;stop-color:color(display-p3 0.9294 0.4667 0.4392);stop-opacity:1;"/>
<stop offset="0.9" stop-color="#ED7770" stop-opacity="0" style="stop-color:none;stop-opacity:0;"/>
</radialGradient>
</defs>
</svg>
