<svg width="128" height="128" viewBox="0 0 128 128" fill="none" xmlns="http://www.w3.org/2000/svg">
<path d="M63.6001 118.8C35.7001 118.8 5.6001 101.3 5.6001 62.9C5.6001 24.5 35.7001 7 63.6001 7C79.1001 7 93.4001 12.1 104 21.4C115.5 31.6 121.6 46 121.6 62.9C121.6 79.8 115.5 94.1 104 104.3C93.4001 113.6 79.0001 118.8 63.6001 118.8Z" fill="url(#paint0_radial_169_8312)" style=""/>
<path d="M63.6001 118.8C35.7001 118.8 5.6001 101.3 5.6001 62.9C5.6001 24.5 35.7001 7 63.6001 7C79.1001 7 93.4001 12.1 104 21.4C115.5 31.6 121.6 46 121.6 62.9C121.6 79.8 115.5 94.1 104 104.3C93.4001 113.6 79.0001 118.8 63.6001 118.8Z" fill="url(#paint1_linear_169_8312)" style=""/>
<path d="M63.6001 118.8C35.7001 118.8 5.6001 101.3 5.6001 62.9C5.6001 24.5 35.7001 7 63.6001 7C79.1001 7 93.4001 12.1 104 21.4C115.5 31.6 121.6 46 121.6 62.9C121.6 79.8 115.5 94.1 104 104.3C93.4001 113.6 79.0001 118.8 63.6001 118.8Z" fill="url(#paint2_radial_169_8312)" style=""/>
<path d="M63.6001 118.8C35.7001 118.8 5.6001 101.3 5.6001 62.9C5.6001 24.5 35.7001 7 63.6001 7C79.1001 7 93.4001 12.1 104 21.4C115.5 31.6 121.6 46 121.6 62.9C121.6 79.8 115.5 94.1 104 104.3C93.4001 113.6 79.0001 118.8 63.6001 118.8Z" fill="url(#paint3_radial_169_8312)" style=""/>
<path d="M111.49 29.67C116.82 38.27 119.6 48.51 119.6 59.9C119.6 76.8 113.5 91.1 102 101.3C91.4002 110.6 77.0002 115.8 61.6002 115.8C43.5402 115.8 24.6002 108.45 13.4202 92.86C24.1802 110.52 44.4202 118.8 63.6002 118.8C79.0002 118.8 93.4002 113.6 104 104.3C115.5 94.1 121.6 79.8 121.6 62.9C121.6 50.16 118.13 38.84 111.49 29.67Z" fill="#EB8F00" style="fill:#EB8F00;fill:color(display-p3 0.9216 0.5608 0.0000);fill-opacity:1;"/>
<path d="M111.49 29.67C116.82 38.27 119.6 48.51 119.6 59.9C119.6 76.8 113.5 91.1 102 101.3C91.4002 110.6 77.0002 115.8 61.6002 115.8C43.5402 115.8 24.6002 108.45 13.4202 92.86C24.1802 110.52 44.4202 118.8 63.6002 118.8C79.0002 118.8 93.4002 113.6 104 104.3C115.5 94.1 121.6 79.8 121.6 62.9C121.6 50.16 118.13 38.84 111.49 29.67Z" fill="#4A2F27" style="fill:#4A2F27;fill:color(display-p3 0.2902 0.1843 0.1529);fill-opacity:1;"/>
<path opacity="0.66" d="M6.47998 75.11C7.47998 72.5 11.9 72.46 15.17 74.04C21.5 77.11 20.75 83.83 23.92 85.17C27.09 86.51 37.1 78.3 51.17 77C52.75 76.85 62.08 75.68 63 79.6C63.36 81.15 60.72 81.45 60.72 81.45C55 83.57 49.18 85.73 44.06 89.08C38.25 92.87 33.17 98.23 26.42 99.81C23.79 100.42 20.82 100.33 18.68 98.7C16.02 96.7 15.43 93.03 14.46 89.84C13.35 86.19 11.52 82.79 9.09998 79.84" fill="url(#paint4_linear_169_8312)" style=""/>
<path d="M6.36003 75.1C4.54003 77.31 8.41003 83.18 9.10003 86.17C10.76 93.39 9.10003 95.17 8.97003 101.59C8.86003 108.65 10.97 114.59 16.35 118.38C21.41 121.97 26.98 122.38 34.78 120.08C42.58 117.78 47.85 116.67 48.25 112.83C48.47 111.24 47.63 109.68 46.17 109C46.95 108.63 47.57 108 47.92 107.21C49.78 102.77 46.07 101.83 46.07 101.83C46.58 101.22 47.01 100.55 47.35 99.83C48.46 97.62 48.28 94.62 45.08 93.64C43.61 93.19 43.21 93.43 43.21 93.43C44.73 91.87 46.55 90.62 48.56 89.78C53.94 87.47 60.32 86.07 61.91 84.72C64.22 82.72 64.36 78.87 60.28 77.72C54.42 76 43.64 80 37.08 84.17C30.52 88.34 24.5 90.59 22.5 89.83C20.5 89.07 19.26 87.83 18.5 84.83C17.09 79.25 16 77.09 13.61 75C11.63 73.3 7.76003 73.4 6.36003 75.1Z" fill="url(#paint5_radial_169_8312)" style=""/>
<path d="M6.36003 75.1C4.54003 77.31 8.41003 83.18 9.10003 86.17C10.76 93.39 9.10003 95.17 8.97003 101.59C8.86003 108.65 10.97 114.59 16.35 118.38C21.41 121.97 26.98 122.38 34.78 120.08C42.58 117.78 47.85 116.67 48.25 112.83C48.47 111.24 47.63 109.68 46.17 109C46.95 108.63 47.57 108 47.92 107.21C49.78 102.77 46.07 101.83 46.07 101.83C46.58 101.22 47.01 100.55 47.35 99.83C48.46 97.62 48.28 94.62 45.08 93.64C43.61 93.19 43.21 93.43 43.21 93.43C44.73 91.87 46.55 90.62 48.56 89.78C53.94 87.47 60.32 86.07 61.91 84.72C64.22 82.72 64.36 78.87 60.28 77.72C54.42 76 43.64 80 37.08 84.17C30.52 88.34 24.5 90.59 22.5 89.83C20.5 89.07 19.26 87.83 18.5 84.83C17.09 79.25 16 77.09 13.61 75C11.63 73.3 7.76003 73.4 6.36003 75.1Z" fill="url(#paint6_radial_169_8312)" style=""/>
<path d="M6.36003 75.1C4.54003 77.31 8.41003 83.18 9.10003 86.17C10.76 93.39 9.10003 95.17 8.97003 101.59C8.86003 108.65 10.97 114.59 16.35 118.38C21.41 121.97 26.98 122.38 34.78 120.08C42.58 117.78 47.85 116.67 48.25 112.83C48.47 111.24 47.63 109.68 46.17 109C46.95 108.63 47.57 108 47.92 107.21C49.78 102.77 46.07 101.83 46.07 101.83C46.58 101.22 47.01 100.55 47.35 99.83C48.46 97.62 48.28 94.62 45.08 93.64C43.61 93.19 43.21 93.43 43.21 93.43C44.73 91.87 46.55 90.62 48.56 89.78C53.94 87.47 60.32 86.07 61.91 84.72C64.22 82.72 64.36 78.87 60.28 77.72C54.42 76 43.64 80 37.08 84.17C30.52 88.34 24.5 90.59 22.5 89.83C20.5 89.07 19.26 87.83 18.5 84.83C17.09 79.25 16 77.09 13.61 75C11.63 73.3 7.76003 73.4 6.36003 75.1Z" fill="url(#paint7_radial_169_8312)" style=""/>
<path d="M38.88 96.78C38.88 96.78 37.41 95.78 43.28 91.09C47.28 87.88 49.59 87.3 54.38 86.09C64.06 83.72 63.45 80.67 63.45 80.67C63.97 85.16 59.53 86.16 56.28 87.18C55.94 87.28 55.62 87.41 55.28 87.49C44.15 90.33 40.26 97.67 38.88 96.78Z" fill="#EB8F00" style="fill:#EB8F00;fill:color(display-p3 0.9216 0.5608 0.0000);fill-opacity:1;"/>
<path d="M38.88 96.78C38.88 96.78 37.41 95.78 43.28 91.09C47.28 87.88 49.59 87.3 54.38 86.09C64.06 83.72 63.45 80.67 63.45 80.67C63.97 85.16 59.53 86.16 56.28 87.18C55.94 87.28 55.62 87.41 55.28 87.49C44.15 90.33 40.26 97.67 38.88 96.78Z" fill="#4A2F27" style="fill:#4A2F27;fill:color(display-p3 0.2902 0.1843 0.1529);fill-opacity:1;"/>
<path d="M48.0001 107.91C48.8701 106.47 49.1101 104.72 48.6501 103.1C48.3301 102.15 47.7201 101.32 46.8901 100.75C47.0101 100.59 47.1301 100.44 47.2401 100.26C48.1301 98.87 48.2601 97.12 47.5901 95.61C46.8301 94.42 45.5901 93.63 44.2001 93.45C45.1501 93.91 45.8601 94.76 46.1401 95.78C46.3001 97.01 46.1201 98.27 45.6401 99.41C45.0001 100.97 43.5701 102.06 41.9001 102.28C39.4801 102.76 40.2201 103.76 40.2201 103.76C40.4301 104.56 43.2901 103.82 45.4601 102.2C46.0701 102.52 46.5301 103.07 46.7501 103.72C46.9801 104.73 46.8401 105.8 46.3601 106.72C45.6901 108.19 44.3901 109.29 42.8301 109.72C40.6801 110.31 41.2701 111.1 41.2701 111.1C41.2701 111.1 41.3701 112.8 45.7901 110C46.3101 111 47.0001 113.23 45.6201 114.67C40.9401 119.6 27.1501 121.5 27.1501 121.5C34.1501 121.5 43.7701 118.8 46.7501 116.33C47.9101 115.42 48.5901 114.04 48.6001 112.57C48.7301 111.2 48.2201 109.84 47.2301 108.88C47.5101 108.58 47.7701 108.26 48.0001 107.91Z" fill="#EB8F00" style="fill:#EB8F00;fill:color(display-p3 0.9216 0.5608 0.0000);fill-opacity:1;"/>
<path d="M48.0001 107.91C48.8701 106.47 49.1101 104.72 48.6501 103.1C48.3301 102.15 47.7201 101.32 46.8901 100.75C47.0101 100.59 47.1301 100.44 47.2401 100.26C48.1301 98.87 48.2601 97.12 47.5901 95.61C46.8301 94.42 45.5901 93.63 44.2001 93.45C45.1501 93.91 45.8601 94.76 46.1401 95.78C46.3001 97.01 46.1201 98.27 45.6401 99.41C45.0001 100.97 43.5701 102.06 41.9001 102.28C39.4801 102.76 40.2201 103.76 40.2201 103.76C40.4301 104.56 43.2901 103.82 45.4601 102.2C46.0701 102.52 46.5301 103.07 46.7501 103.72C46.9801 104.73 46.8401 105.8 46.3601 106.72C45.6901 108.19 44.3901 109.29 42.8301 109.72C40.6801 110.31 41.2701 111.1 41.2701 111.1C41.2701 111.1 41.3701 112.8 45.7901 110C46.3101 111 47.0001 113.23 45.6201 114.67C40.9401 119.6 27.1501 121.5 27.1501 121.5C34.1501 121.5 43.7701 118.8 46.7501 116.33C47.9101 115.42 48.5901 114.04 48.6001 112.57C48.7301 111.2 48.2201 109.84 47.2301 108.88C47.5101 108.58 47.7701 108.26 48.0001 107.91Z" fill="#4A2F27" style="fill:#4A2F27;fill:color(display-p3 0.2902 0.1843 0.1529);fill-opacity:1;"/>
<path d="M76.8699 71.31C76.5499 71.25 76.2499 71.12 75.9999 70.91C71.4899 67.29 66.1099 64.93 60.3999 64.05C54.6899 63.06 48.8299 63.6 43.3999 65.61C43.0999 65.73 42.7799 65.77 42.4599 65.72C41.7599 65.6 41.1899 65.08 40.9999 64.39C40.8099 63.71 41.0399 62.99 41.5799 62.54C52.1799 53.74 67.8999 55.2 76.6999 65.8C77.4199 66.67 78.0799 67.59 78.6799 68.54C79.0599 69.13 79.0599 69.89 78.6799 70.48C78.2899 71.09 77.5799 71.41 76.8699 71.31Z" fill="#422B0D" style="fill:#422B0D;fill:color(display-p3 0.2588 0.1686 0.0510);fill-opacity:1;"/>
<path d="M76.8699 71.31C76.5499 71.25 76.2499 71.12 75.9999 70.91C71.4899 67.29 66.1099 64.93 60.3999 64.05C54.6899 63.06 48.8299 63.6 43.3999 65.61C43.0999 65.73 42.7799 65.77 42.4599 65.72C41.7599 65.6 41.1899 65.08 40.9999 64.39C40.8099 63.71 41.0399 62.99 41.5799 62.54C52.1799 53.74 67.8999 55.2 76.6999 65.8C77.4199 66.67 78.0799 67.59 78.6799 68.54C79.0599 69.13 79.0599 69.89 78.6799 70.48C78.2899 71.09 77.5799 71.41 76.8699 71.31Z" fill="#1A1717" style="fill:#1A1717;fill:color(display-p3 0.1020 0.0902 0.0902);fill-opacity:1;"/>
<path d="M80.7698 31.11C84.9598 31.11 88.7698 34.65 88.7698 40.53C88.7698 46.41 84.9598 49.94 80.7698 49.94C76.5798 49.94 72.7698 46.4 72.7698 40.53C72.7698 34.66 76.5798 31.11 80.7698 31.11Z" fill="#422B0D" style="fill:#422B0D;fill:color(display-p3 0.2588 0.1686 0.0510);fill-opacity:1;"/>
<path d="M80.7698 31.11C84.9598 31.11 88.7698 34.65 88.7698 40.53C88.7698 46.41 84.9598 49.94 80.7698 49.94C76.5798 49.94 72.7698 46.4 72.7698 40.53C72.7698 34.66 76.5798 31.11 80.7698 31.11Z" fill="#1A1717" style="fill:#1A1717;fill:color(display-p3 0.1020 0.0902 0.0902);fill-opacity:1;"/>
<path d="M80.7698 31.11C84.9598 31.11 88.7698 34.65 88.7698 40.53C88.7698 46.41 84.9598 49.94 80.7698 49.94C76.5798 49.94 72.7698 46.4 72.7698 40.53C72.7698 34.66 76.5798 31.11 80.7698 31.11Z" fill="#1A1717" style="fill:#1A1717;fill:color(display-p3 0.1020 0.0902 0.0902);fill-opacity:1;"/>
<path d="M46.1399 22C41.9499 22 38.1399 25.54 38.1399 31.41C38.1399 37.28 41.9499 40.83 46.1399 40.83C50.3399 40.83 54.1399 37.29 54.1399 31.41C54.1399 25.53 50.3399 22 46.1399 22Z" fill="#422B0D" style="fill:#422B0D;fill:color(display-p3 0.2588 0.1686 0.0510);fill-opacity:1;"/>
<path d="M46.1399 22C41.9499 22 38.1399 25.54 38.1399 31.41C38.1399 37.28 41.9499 40.83 46.1399 40.83C50.3399 40.83 54.1399 37.29 54.1399 31.41C54.1399 25.53 50.3399 22 46.1399 22Z" fill="#1A1717" style="fill:#1A1717;fill:color(display-p3 0.1020 0.0902 0.0902);fill-opacity:1;"/>
<path d="M39.7299 10.63C39.2799 9.89001 39.2199 8.97001 39.5699 8.18001C39.9499 7.39001 40.6999 6.85001 41.5699 6.74001C47.0199 5.89001 52.5799 7.18001 57.0999 10.33C58.7899 11.49 60.2899 12.89 61.5599 14.5C61.6399 14.6 61.7099 14.71 61.7799 14.83C62.4599 15.89 62.2299 17.29 61.2499 18.08C60.1999 18.95 58.6599 18.92 57.6499 18L58.0699 17.32L57.5599 17.92C53.1799 14.26 47.6999 12.17 41.9999 12C41.0499 12 40.1699 11.5 39.6899 10.68L39.7299 10.63Z" fill="#422B0D" style="fill:#422B0D;fill:color(display-p3 0.2588 0.1686 0.0510);fill-opacity:1;"/>
<path d="M39.7299 10.63C39.2799 9.89001 39.2199 8.97001 39.5699 8.18001C39.9499 7.39001 40.6999 6.85001 41.5699 6.74001C47.0199 5.89001 52.5799 7.18001 57.0999 10.33C58.7899 11.49 60.2899 12.89 61.5599 14.5C61.6399 14.6 61.7099 14.71 61.7799 14.83C62.4599 15.89 62.2299 17.29 61.2499 18.08C60.1999 18.95 58.6599 18.92 57.6499 18L58.0699 17.32L57.5599 17.92C53.1799 14.26 47.6999 12.17 41.9999 12C41.0499 12 40.1699 11.5 39.6899 10.68L39.7299 10.63Z" fill="#1A1717" style="fill:#1A1717;fill:color(display-p3 0.1020 0.0902 0.0902);fill-opacity:1;"/>
<path d="M93 28.52C93.74 28.11 94.24 27.36 94.34 26.52C94.4 25.65 94.03 24.81 93.34 24.28C89.01 20.83 83.51 19.18 78 19.7C75.96 19.87 73.96 20.35 72.06 21.12L71.7 21.29C70.59 21.88 70.1 23.21 70.56 24.38C71.05 25.65 72.38 26.37 73.71 26.08V25.28L73.85 26.06C79.45 25.02 85.24 25.89 90.29 28.53C91.12 29 92.13 29 92.96 28.53L93 28.52Z" fill="#422B0D" style="fill:#422B0D;fill:color(display-p3 0.2588 0.1686 0.0510);fill-opacity:1;"/>
<path d="M93 28.52C93.74 28.11 94.24 27.36 94.34 26.52C94.4 25.65 94.03 24.81 93.34 24.28C89.01 20.83 83.51 19.18 78 19.7C75.96 19.87 73.96 20.35 72.06 21.12L71.7 21.29C70.59 21.88 70.1 23.21 70.56 24.38C71.05 25.65 72.38 26.37 73.71 26.08V25.28L73.85 26.06C79.45 25.02 85.24 25.89 90.29 28.53C91.12 29 92.13 29 92.96 28.53L93 28.52Z" fill="#1A1717" style="fill:#1A1717;fill:color(display-p3 0.1020 0.0902 0.0902);fill-opacity:1;"/>
<defs>
<radialGradient id="paint0_radial_169_8312" cx="0" cy="0" r="1" gradientUnits="userSpaceOnUse" gradientTransform="translate(63.6001 62.9) scale(56.9597 56.9597)">
<stop offset="0.5" stop-color="#FDE030" style="stop-color:#FDE030;stop-color:color(display-p3 0.9922 0.8784 0.1882);stop-opacity:1;"/>
<stop offset="0.92" stop-color="#F7C02B" style="stop-color:#F7C02B;stop-color:color(display-p3 0.9686 0.7529 0.1686);stop-opacity:1;"/>
<stop offset="1" stop-color="#F4A223" style="stop-color:#F4A223;stop-color:color(display-p3 0.9569 0.6353 0.1373);stop-opacity:1;"/>
</radialGradient>
<linearGradient id="paint1_linear_169_8312" x1="63.6001" y1="118.8" x2="63.6001" y2="7" gradientUnits="userSpaceOnUse">
<stop stop-color="#F4A223" style="stop-color:#F4A223;stop-color:color(display-p3 0.9569 0.6353 0.1373);stop-opacity:1;"/>
<stop offset="0.08" stop-color="#F7C02B" style="stop-color:#F7C02B;stop-color:color(display-p3 0.9686 0.7529 0.1686);stop-opacity:1;"/>
<stop offset="0.54" stop-color="#FDE030" stop-opacity="0" style="stop-color:none;stop-opacity:0;"/>
</linearGradient>
<radialGradient id="paint2_radial_169_8312" cx="0" cy="0" r="1" gradientUnits="userSpaceOnUse" gradientTransform="translate(38.5991 34.5377) rotate(-43.2082) scale(102.024 101.825)">
<stop offset="0.3533" stop-color="#F9DDBD" style="stop-color:#F9DDBD;stop-color:color(display-p3 0.9765 0.8667 0.7412);stop-opacity:1;"/>
<stop offset="0.8723" stop-color="#FFD29C" style="stop-color:#FFD29C;stop-color:color(display-p3 1.0000 0.8235 0.6118);stop-opacity:1;"/>
</radialGradient>
<radialGradient id="paint3_radial_169_8312" cx="0" cy="0" r="1" gradientUnits="userSpaceOnUse" gradientTransform="translate(38.5991 34.5377) rotate(-43.2082) scale(102.024 101.825)">
<stop offset="0.3533" stop-color="#70534A" style="stop-color:#70534A;stop-color:color(display-p3 0.4392 0.3255 0.2902);stop-opacity:1;"/>
<stop offset="0.8723" stop-color="#5C4037" style="stop-color:#5C4037;stop-color:color(display-p3 0.3608 0.2510 0.2157);stop-opacity:1;"/>
</radialGradient>
<linearGradient id="paint4_linear_169_8312" x1="34.9734" y1="106.41" x2="34.7234" y2="73.03" gradientUnits="userSpaceOnUse">
<stop stop-color="#140905" style="stop-color:#140905;stop-color:color(display-p3 0.0792 0.0350 0.0214);stop-opacity:1;"/>
<stop offset="1" stop-color="#2C1109" stop-opacity="0.2" style="stop-color:#2C1109;stop-color:color(display-p3 0.1708 0.0679 0.0363);stop-opacity:0.2;"/>
</linearGradient>
<radialGradient id="paint5_radial_169_8312" cx="0" cy="0" r="1" gradientUnits="userSpaceOnUse" gradientTransform="translate(41.45 83.311) scale(59.21 55.6574)">
<stop offset="0.27" stop-color="#FFF176" style="stop-color:#FFF176;stop-color:color(display-p3 1.0000 0.9451 0.4627);stop-opacity:1;"/>
<stop offset="1" stop-color="#FFC400" style="stop-color:#FFC400;stop-color:color(display-p3 1.0000 0.7686 0.0000);stop-opacity:1;"/>
</radialGradient>
<radialGradient id="paint6_radial_169_8312" cx="0" cy="0" r="1" gradientUnits="userSpaceOnUse" gradientTransform="translate(22.2768 85.5319) rotate(-38.9059) scale(47.4884 46.418)">
<stop offset="0.3533" stop-color="#F9DDBD" style="stop-color:#F9DDBD;stop-color:color(display-p3 0.9765 0.8667 0.7412);stop-opacity:1;"/>
<stop offset="0.8723" stop-color="#FFD29C" style="stop-color:#FFD29C;stop-color:color(display-p3 1.0000 0.8235 0.6118);stop-opacity:1;"/>
</radialGradient>
<radialGradient id="paint7_radial_169_8312" cx="0" cy="0" r="1" gradientUnits="userSpaceOnUse" gradientTransform="translate(22.2768 85.5318) rotate(-10.3675) scale(65.3364 63.8637)">
<stop offset="0.3533" stop-color="#87665C" style="stop-color:#87665C;stop-color:color(display-p3 0.5292 0.4013 0.3616);stop-opacity:1;"/>
<stop offset="0.8723" stop-color="#5C4037" style="stop-color:#5C4037;stop-color:color(display-p3 0.3608 0.2510 0.2157);stop-opacity:1;"/>
</radialGradient>
</defs>
</svg>
