<svg width="128" height="129" viewBox="0 0 128 129" fill="none" xmlns="http://www.w3.org/2000/svg">
<path d="M23.9902 19.4657C23.9902 19.4657 24.9602 12.8757 26.2202 10.2357C27.4802 7.59569 29.4602 4.81569 33.2602 4.07569C37.7902 3.19569 90.3102 3.65569 93.9502 3.88569C97.6202 4.12569 100.03 5.27569 101.41 7.53569C102.46 9.26569 102.83 11.3757 103.32 14.5057C103.58 16.1557 104.12 20.6757 104.12 20.6757L23.9902 19.4657Z" fill="#FFA828" style="fill:#FFA828;fill:color(display-p3 1.0000 0.6588 0.1569);fill-opacity:1;"/>
<path d="M50.6302 37.3156L22.4702 32.6356C22.4702 32.6356 23.0602 20.9856 24.2802 17.9356C25.5002 14.8856 27.0102 13.0656 31.4402 12.3056C35.8702 11.5456 46.9702 11.8556 63.6202 11.7056C80.2702 11.5556 94.9302 12.5656 97.5302 12.7156C100.13 12.8656 102.57 14.1456 103.33 16.5856C104.09 19.0256 104.46 22.3256 105.01 28.1956C105.21 30.3256 105.03 34.3556 105.03 34.3556L72.7602 36.5556L50.6302 37.3156Z" fill="#F1EDEC" style="fill:#F1EDEC;fill:color(display-p3 0.9451 0.9294 0.9255);fill-opacity:1;"/>
<path d="M22.2302 35.6857C22.4202 32.6357 22.4802 29.3357 24.8002 27.3657C26.7902 25.6857 30.1502 25.9957 34.1202 25.8357C37.7902 25.6957 47.1002 25.7757 64.6702 25.7757C82.2402 25.7757 97.0302 26.0357 99.7802 26.0357C102.53 26.0357 104.87 28.1857 105.17 30.1757C105.48 32.1657 104.1 116.326 103.95 118.156C103.8 119.986 103.19 123.656 99.2102 123.956C95.2402 124.266 32.7702 124.266 30.1702 123.956C27.5702 123.646 25.2802 121.356 24.8202 117.086C24.3602 112.816 22.0702 38.1257 22.2302 35.6857Z" fill="#D8CDC9" style="fill:#D8CDC9;fill:color(display-p3 0.8471 0.8039 0.7882);fill-opacity:1;"/>
<path d="M29.61 50.0259C31.91 50.3259 33.82 40.4159 36.82 38.1059C39.82 35.8059 45.43 34.5959 45.43 32.2959C45.43 31.1459 41.79 31.1559 38.42 31.1959C35.05 31.2359 32.15 30.9559 30.51 32.6959C28.71 34.5959 28.53 37.6459 28.41 40.7059C28.2 45.6159 28.19 49.8359 29.61 50.0259Z" fill="#F1EDEC" style="fill:#F1EDEC;fill:color(display-p3 0.9451 0.9294 0.9255);fill-opacity:1;"/>
<path d="M79.3398 117.656C79.3398 119.336 80.5698 119.886 87.2198 119.656C92.8398 119.466 95.6198 118.756 97.2898 116.746C98.9598 114.746 99.4198 110.546 99.4898 105.506C99.5298 102.016 99.4398 98.6562 97.6798 98.6562C95.1598 98.6562 95.1699 104.406 93.1599 107.636C89.2199 113.976 79.3398 115.416 79.3398 117.656Z" fill="#F1EDEC" style="fill:#F1EDEC;fill:color(display-p3 0.9451 0.9294 0.9255);fill-opacity:1;"/>
<path d="M66.4898 94.3327C66.4898 95.0811 67.0966 95.6879 67.845 95.6879H85.8422C86.9468 95.6879 87.8422 96.5833 87.8422 97.6879V110.353C87.8422 111.418 87.6688 112.257 87.3221 112.87C86.9753 113.483 86.5129 113.951 85.9349 114.273C85.3569 114.596 84.6716 114.806 83.8789 114.903C83.0862 114.999 82.244 115.048 81.3523 115.048H80.4248C79.6083 115.048 78.8738 114.552 78.5692 113.794L78.5106 113.648C77.9909 112.356 78.9185 110.941 80.3109 110.903L82.6899 110.837C83.0862 110.837 83.367 110.773 83.5321 110.643C83.6973 110.514 83.7798 110.24 83.7798 109.821V101.608C83.7798 100.504 82.8844 99.6083 81.7798 99.6083H68.4898C67.3853 99.6083 66.4898 100.504 66.4898 101.608V102.169C66.4898 103.324 67.4668 104.242 68.6179 104.139C68.8918 104.114 69.165 104.088 69.4376 104.061C69.9184 104.013 70.4013 103.962 70.8862 103.906C71.5239 103.833 71.8083 103.073 71.3819 102.593C71.0522 102.223 71.1366 101.644 71.5585 101.383L72.7482 100.646C73.611 100.112 74.7371 100.319 75.3645 101.116C76.0935 102.043 76.8261 102.952 77.5624 103.843C78.2463 104.671 78.8891 105.539 79.491 106.447C80.1083 107.378 79.7591 108.619 78.7821 109.161L78.4917 109.322C77.6243 109.803 76.5348 109.452 76.0514 108.586C75.9501 108.405 75.8451 108.227 75.7362 108.051C75.3476 107.424 74.6054 107.133 73.8757 107.241C70.0761 107.802 66.2765 108.25 62.477 108.586C58.7302 108.918 54.9702 109.101 51.1971 109.137C50.3826 109.144 49.6529 108.639 49.3642 107.878L48.8669 106.566C48.6209 105.917 49.1003 105.223 49.7943 105.223C51.8751 105.223 53.9641 105.182 56.0613 105.102C57.5391 105.045 59.0127 104.968 60.4822 104.871C61.5245 104.802 62.3284 103.932 62.3284 102.888V101.608C62.3284 100.504 61.4329 99.6083 60.3284 99.6083H48.1778C47.0732 99.6083 46.1778 100.504 46.1778 101.608V112.806C46.1778 113.91 45.2824 114.806 44.1778 114.806H44.0659C42.9613 114.806 42.0659 113.91 42.0659 112.806V101.268C42.0659 100.351 41.3228 99.6083 40.4062 99.6083C39.4896 99.6083 38.7466 98.8652 38.7466 97.9486V97.3475C38.7466 96.4309 39.4896 95.6879 40.4062 95.6879H41.2189C41.6867 95.6879 42.0659 95.3087 42.0659 94.8409C42.0659 94.3731 42.4451 93.9939 42.9129 93.9939H45.3308C45.7986 93.9939 46.1778 94.3731 46.1778 94.8409C46.1778 95.3087 46.557 95.6879 47.0248 95.6879H60.9732C61.7216 95.6879 62.3284 95.0811 62.3284 94.3327C62.3284 93.5842 61.7216 92.9775 60.9732 92.9775H47.4347C46.3301 92.9775 45.4347 92.0821 45.4347 90.9775V78.0375C45.4347 76.9329 46.3301 76.0375 47.4347 76.0375H81.334C82.4385 76.0375 83.334 76.9329 83.334 78.0375V90.9775C83.334 92.0821 82.4385 92.9775 81.334 92.9775H67.845C67.0966 92.9775 66.4898 93.5842 66.4898 94.3327ZM53.0145 73.8837C53.0145 73.1219 52.397 72.5043 51.6351 72.5043H40.7575C39.7016 72.5043 38.8457 71.6484 38.8457 70.5925C38.8457 69.5367 39.7016 68.6807 40.7575 68.6807H51.0301C52.1261 68.6807 53.0145 67.7923 53.0145 66.6963C53.0145 65.6004 53.903 64.7119 54.9989 64.7119H55.1916C56.2876 64.7119 57.176 65.6004 57.176 66.6963C57.176 67.7923 58.0645 68.6807 59.1604 68.6807H61.7542C62.81 68.6807 63.666 69.5367 63.666 70.5925C63.666 71.6484 62.81 72.5043 61.7542 72.5043H58.5554C57.7936 72.5043 57.176 73.1219 57.176 73.8837C57.176 74.6455 56.5585 75.2631 55.7966 75.2631H54.3939C53.6321 75.2631 53.0145 74.6455 53.0145 73.8837ZM87.9121 68.6807C88.968 68.6807 89.8239 69.5367 89.8239 70.5925C89.8239 71.6484 88.968 72.5043 87.9121 72.5043H78.4216C77.6598 72.5043 77.0422 73.1219 77.0422 73.8837C77.0422 74.6455 76.4246 75.2631 75.6628 75.2631H74.4087C73.6469 75.2631 73.0293 74.6455 73.0293 73.8837C73.0293 73.1219 72.4117 72.5043 71.6499 72.5043H66.9649C65.9091 72.5043 65.0531 71.6484 65.0531 70.5925C65.0531 69.5367 65.9091 68.6807 66.9649 68.6807H71.0449C72.1409 68.6807 73.0293 67.7923 73.0293 66.6963C73.0293 65.6004 73.9178 64.7119 75.0137 64.7119H75.0578C76.1537 64.7119 77.0422 65.6004 77.0422 66.6963C77.0422 67.7923 77.9306 68.6807 79.0266 68.6807H87.9121ZM50.9018 86.3467C50.1534 86.3467 49.5466 86.9534 49.5466 87.7019C49.5466 88.4503 50.1534 89.0571 50.9018 89.0571H60.9732C61.7216 89.0571 62.3284 88.4503 62.3284 87.7019C62.3284 86.9534 61.7216 86.3467 60.9732 86.3467H50.9018ZM67.845 86.3467C67.0966 86.3467 66.4898 86.9534 66.4898 87.7019C66.4898 88.4503 67.0966 89.0571 67.845 89.0571H77.8668C78.6153 89.0571 79.222 88.4503 79.222 87.7019C79.222 86.9534 78.6153 86.3467 77.8668 86.3467H67.845ZM50.8534 79.9095C50.1317 79.9095 49.5466 80.4946 49.5466 81.2163C49.5466 81.938 50.1317 82.5231 50.8534 82.5231H61.0216C61.7433 82.5231 62.3284 81.938 62.3284 81.2163C62.3284 80.4946 61.7433 79.9095 61.0216 79.9095H50.8534ZM67.7966 79.9095C67.0749 79.9095 66.4898 80.4946 66.4898 81.2163C66.4898 81.938 67.0749 82.5231 67.7966 82.5231H77.9152C78.6369 82.5231 79.222 81.938 79.222 81.2163C79.222 80.4946 78.6369 79.9095 77.9152 79.9095H67.7966Z" fill="#DF0B26" style="fill:#DF0B26;fill:color(display-p3 0.8745 0.0431 0.1490);fill-opacity:1;"/>
<path d="M50.2746 40.3756H77.5041C78.0564 40.3756 78.5041 39.9279 78.5041 39.3756V37.9392C78.5041 37.3869 78.0564 36.9392 77.5041 36.9392H67.1131C66.6702 36.9392 66.2819 36.6473 66.1446 36.2262C65.8262 35.2491 65.4543 34.2929 65.0288 33.3576C64.6286 32.4778 64.2189 31.6074 63.7997 30.7462C63.5723 30.2788 63.0224 30.0685 62.5392 30.26L61.088 30.8353C60.5085 31.0651 60.2793 31.7629 60.5854 32.3059C61.195 33.3871 61.7245 34.4962 62.1739 35.6333C62.4251 36.2688 61.9438 36.9392 61.2604 36.9392H50.2746C49.7223 36.9392 49.2746 37.3869 49.2746 37.9392V39.3756C49.2746 39.9279 49.7223 40.3756 50.2746 40.3756Z" fill="black" style="fill:black;fill-opacity:1;"/>
<path d="M50.2746 40.3756H77.5041C78.0564 40.3756 78.5041 39.9279 78.5041 39.3756V37.9392C78.5041 37.3869 78.0564 36.9392 77.5041 36.9392H67.1131C66.6702 36.9392 66.2819 36.6473 66.1446 36.2262C65.8262 35.2491 65.4543 34.2929 65.0288 33.3576C64.6286 32.4778 64.2189 31.6074 63.7997 30.7462C63.5723 30.2788 63.0224 30.0685 62.5392 30.26L61.088 30.8353C60.5085 31.0651 60.2793 31.7629 60.5854 32.3059C61.195 33.3871 61.7245 34.4962 62.1739 35.6333C62.4251 36.2688 61.9438 36.9392 61.2604 36.9392H50.2746C49.7223 36.9392 49.2746 37.3869 49.2746 37.9392V39.3756C49.2746 39.9279 49.7223 40.3756 50.2746 40.3756Z" fill="#426FE4" style="fill:#426FE4;fill:color(display-p3 0.2588 0.4353 0.8941);fill-opacity:1;"/>
<path d="M54.303 50.467C52.816 52.6388 51.0862 54.7915 49.1136 56.9249C48.7213 57.3492 48.758 58.0169 49.201 58.3879L50.4863 59.4642C50.8704 59.7858 51.4346 59.7751 51.7914 59.4236C52.613 58.6143 53.4502 57.6777 54.303 56.6138C55.3764 55.2747 56.4085 53.855 57.3994 52.3546C58.3902 50.8542 59.2985 49.3538 60.1242 47.8534C60.76 46.698 61.2978 45.6049 61.7378 44.5739C61.9514 44.0735 61.7031 43.5023 61.1994 43.2967L59.6876 42.6795C59.1861 42.4747 58.6135 42.707 58.387 43.1991C57.1662 45.8507 55.8049 48.2733 54.303 50.467Z" fill="black" style="fill:black;fill-opacity:1;"/>
<path d="M54.303 50.467C52.816 52.6388 51.0862 54.7915 49.1136 56.9249C48.7213 57.3492 48.758 58.0169 49.201 58.3879L50.4863 59.4642C50.8704 59.7858 51.4346 59.7751 51.7914 59.4236C52.613 58.6143 53.4502 57.6777 54.303 56.6138C55.3764 55.2747 56.4085 53.855 57.3994 52.3546C58.3902 50.8542 59.2985 49.3538 60.1242 47.8534C60.76 46.698 61.2978 45.6049 61.7378 44.5739C61.9514 44.0735 61.7031 43.5023 61.1994 43.2967L59.6876 42.6795C59.1861 42.4747 58.6135 42.707 58.387 43.1991C57.1662 45.8507 55.8049 48.2733 54.303 50.467Z" fill="#426FE4" style="fill:#426FE4;fill:color(display-p3 0.2588 0.4353 0.8941);fill-opacity:1;"/>
<path d="M77.2332 59.3908L78.7019 58.1951C79.0102 57.9441 79.075 57.4988 78.8509 57.1703C77.2655 54.5245 75.5811 51.9593 73.7976 49.4748C72.2096 47.2626 70.5562 45.076 68.8373 42.915C68.4885 42.4765 67.8468 42.4141 67.4177 42.7745L66.1252 43.86C65.7086 44.2098 65.6482 44.8285 65.9891 45.2524L66.4655 45.8448C68.282 48.168 70.0325 50.475 71.7169 52.766C73.1669 54.7381 74.4946 56.8418 75.6999 59.077C76.0019 59.6371 76.7397 59.7926 77.2332 59.3908Z" fill="black" style="fill:black;fill-opacity:1;"/>
<path d="M77.2332 59.3908L78.7019 58.1951C79.0102 57.9441 79.075 57.4988 78.8509 57.1703C77.2655 54.5245 75.5811 51.9593 73.7976 49.4748C72.2096 47.2626 70.5562 45.076 68.8373 42.915C68.4885 42.4765 67.8468 42.4141 67.4177 42.7745L66.1252 43.86C65.7086 44.2098 65.6482 44.8285 65.9891 45.2524L66.4655 45.8448C68.282 48.168 70.0325 50.475 71.7169 52.766C73.1669 54.7381 74.4946 56.8418 75.6999 59.077C76.0019 59.6371 76.7397 59.7926 77.2332 59.3908Z" fill="#426FE4" style="fill:#426FE4;fill:color(display-p3 0.2588 0.4353 0.8941);fill-opacity:1;"/>
</svg>
