<svg width="129" height="128" viewBox="0 0 129 128" fill="none" xmlns="http://www.w3.org/2000/svg">
<path d="M116.5 124H12.5C8.08 124 4.5 120.42 4.5 116V12C4.5 7.58 8.08 4 12.5 4H116.5C120.92 4 124.5 7.58 124.5 12V116C124.5 120.42 120.92 124 116.5 124Z" fill="url(#paint0_linear_124_10795)" style=""/>
<path d="M116.5 124H12.5C8.08 124 4.5 120.42 4.5 116V12C4.5 7.58 8.08 4 12.5 4H116.5C120.92 4 124.5 7.58 124.5 12V116C124.5 120.42 120.92 124 116.5 124Z" fill="url(#paint1_radial_124_10795)" style=""/>
<path opacity="0.2" d="M116.5 7C119.26 7 121.5 9.24 121.5 12V116C121.5 118.76 119.26 121 116.5 121H12.5C9.74 121 7.5 118.76 7.5 116V12C7.5 9.24 9.74 7 12.5 7H116.5ZM116.5 4H12.5C8.08 4 4.5 7.58 4.5 12V116C4.5 120.42 8.08 124 12.5 124H116.5C120.92 124 124.5 120.42 124.5 116V12C124.5 7.58 120.92 4 116.5 4Z" fill="#424242" style="fill:#424242;fill:color(display-p3 0.2588 0.2588 0.2588);fill-opacity:1;"/>
<path opacity="0.2" d="M108.81 36C110.56 36 111.51 38.04 110.38 39.38L93.4202 59.6C92.8202 60.31 92.7802 61.34 93.3202 62.11L112.12 88.77C113.08 90.13 112.11 92.01 110.44 92.01H103.94C103.27 92.01 102.64 91.68 102.25 91.13L87.4702 69.88C87.0602 69.3 86.4202 69 85.7802 69C85.2402 69 84.7002 69.21 84.2902 69.65L80.2402 73.95C79.8802 74.33 79.6802 74.84 79.6802 75.36V89.95C79.6802 91.08 78.7602 92 77.6302 92H72.0002C70.8702 92 69.9502 91.08 69.9502 89.95V38.05C69.9502 36.92 70.8702 36 72.0002 36H77.6202C78.7502 36 79.6702 36.92 79.6702 38.05V56.46C79.6702 57.72 80.6902 58.52 81.7402 58.52C82.3102 58.52 82.8902 58.28 83.3202 57.75L85.0502 55.61L100.82 36.73C101.21 36.26 101.79 35.99 102.4 35.99H108.81V36ZM108.81 33H102.41C100.91 33 99.4902 33.66 98.5302 34.81L82.7602 53.69L82.6802 53.79V38.05C82.6802 35.26 80.4102 33 77.6302 33H72.0002C69.2102 33 66.9502 35.27 66.9502 38.05V89.94C66.9502 92.73 69.2202 94.99 72.0002 94.99H77.6202C80.4102 94.99 82.6702 92.72 82.6702 89.94V75.73L85.6702 72.55L99.7902 92.83C100.73 94.19 102.29 95 103.94 95H110.44C112.34 95 114.06 93.95 114.93 92.27C115.8 90.59 115.67 88.58 114.57 87.03L96.1902 60.97L112.68 41.31C113.96 39.79 114.23 37.72 113.39 35.92C112.55 34.12 110.79 33 108.81 33Z" fill="#424242" style="fill:#424242;fill:color(display-p3 0.2588 0.2588 0.2588);fill-opacity:1;"/>
<path d="M116.5 124H12.5C8.08 124 4.5 120.42 4.5 116V12C4.5 7.58 8.08 4 12.5 4H116.5C120.92 4 124.5 7.58 124.5 12V116C124.5 120.42 120.92 124 116.5 124Z" fill="url(#paint2_linear_124_10795)" style=""/>
<path d="M116.5 124H12.5C8.08 124 4.5 120.42 4.5 116V12C4.5 7.58 8.08 4 12.5 4H116.5C120.92 4 124.5 7.58 124.5 12V116C124.5 120.42 120.92 124 116.5 124Z" fill="url(#paint3_radial_124_10795)" style=""/>
<path d="M116.5 124H12.5C8.08 124 4.5 120.42 4.5 116V12C4.5 7.58 8.08 4 12.5 4H116.5C120.92 4 124.5 7.58 124.5 12V116C124.5 120.42 120.92 124 116.5 124Z" fill="url(#paint4_linear_124_10795)" style=""/>
<path opacity="0.2" d="M116.5 7C119.26 7 121.5 9.24 121.5 12V116C121.5 118.76 119.26 121 116.5 121H12.5C9.74 121 7.5 118.76 7.5 116V12C7.5 9.24 9.74 7 12.5 7H116.5ZM116.5 4H12.5C8.08 4 4.5 7.58 4.5 12V116C4.5 120.42 8.08 124 12.5 124H116.5C120.92 124 124.5 120.42 124.5 116V12C124.5 7.58 120.92 4 116.5 4Z" fill="#424242" style="fill:#424242;fill:color(display-p3 0.2588 0.2588 0.2588);fill-opacity:1;"/>
<path d="M116.5 4H12.5C8.08 4 4.5 7.58 4.5 12V116C4.5 120.42 8.08 124 12.5 124H116.5C120.92 124 124.5 120.42 124.5 116V12C124.5 7.58 120.92 4 116.5 4Z" fill="#F1A003" style="fill:#F1A003;fill:color(display-p3 0.9458 0.6283 0.0118);fill-opacity:1;"/>
<path d="M116.5 4H12.5C8.08 4 4.5 7.58 4.5 12V116C4.5 120.42 8.08 124 12.5 124H116.5C120.92 124 124.5 120.42 124.5 116V12C124.5 7.58 120.92 4 116.5 4Z" fill="#F2A600" style="fill:#F2A600;fill:color(display-p3 0.9490 0.6510 0.0000);fill-opacity:1;"/>
<path d="M110.2 4H12C7.87002 4.03 4.53002 7.37 4.50002 11.5V109.4C4.49002 113.54 7.84002 116.89 11.98 116.9C11.99 116.9 11.99 116.9 12 116.9H110.1C114.24 116.91 117.59 113.56 117.6 109.42C117.6 109.41 117.6 109.41 117.6 109.4V11.5C117.69 7.45 114.47 4.09 110.42 4C110.35 4 110.27 4 110.2 4Z" fill="#FFD33A" style="fill:#FFD33A;fill:color(display-p3 1.0000 0.8275 0.2275);fill-opacity:1;"/>
<path d="M110.2 4H12C7.87002 4.03 4.53002 7.37 4.50002 11.5V109.4C4.49002 113.54 7.84002 116.89 11.98 116.9C11.99 116.9 11.99 116.9 12 116.9H110.1C114.24 116.91 117.59 113.56 117.6 109.42C117.6 109.41 117.6 109.41 117.6 109.4V11.5C117.69 7.45 114.47 4.09 110.42 4C110.35 4 110.27 4 110.2 4Z" fill="#FFCC32" style="fill:#FFCC32;fill:color(display-p3 1.0000 0.8000 0.1961);fill-opacity:1;"/>
<path opacity="0.75" d="M40.2001 12.8999C40.2001 10.5999 38.6001 9.89988 29.4001 10.1999C21.7001 10.4999 17.9001 11.3999 15.6001 14.1999C13.3001 16.9999 12.7001 22.6999 12.6001 29.4999C12.6001 34.2999 12.6001 38.7999 15.1001 38.7999C18.5001 38.7999 18.5001 30.8999 21.3001 26.4999C26.7001 17.7999 40.2001 15.8999 40.2001 12.8999Z" fill="#FFF6D9" style="fill:#FFF6D9;fill:color(display-p3 1.0000 0.9665 0.8500);fill-opacity:1;"/>
<path d="M84.2902 69.65L80.2402 73.95C79.8802 74.33 79.6802 74.84 79.6802 75.36V89.95C79.6802 91.08 78.7602 92 77.6302 92H72.0002C70.8702 92 69.9502 91.08 69.9502 89.95V38.05C69.9502 36.92 70.8702 36 72.0002 36H77.6202C78.7502 36 79.6702 36.92 79.6702 38.05V56.46C79.6702 58.4 82.1002 59.26 83.3202 57.75L85.0502 55.61L100.82 36.73C101.21 36.26 101.79 35.99 102.4 35.99H108.8C110.55 35.99 111.5 38.03 110.37 39.37L93.4202 59.6C92.8202 60.31 92.7802 61.34 93.3202 62.11L112.12 88.77C113.08 90.13 112.11 92.01 110.44 92.01H103.94C103.27 92.01 102.64 91.68 102.25 91.13L87.4702 69.88C86.7202 68.81 85.1802 68.7 84.2902 69.65Z" fill="black" style="fill:black;fill-opacity:1;"/>
<path d="M84.2902 69.65L80.2402 73.95C79.8802 74.33 79.6802 74.84 79.6802 75.36V89.95C79.6802 91.08 78.7602 92 77.6302 92H72.0002C70.8702 92 69.9502 91.08 69.9502 89.95V38.05C69.9502 36.92 70.8702 36 72.0002 36H77.6202C78.7502 36 79.6702 36.92 79.6702 38.05V56.46C79.6702 58.4 82.1002 59.26 83.3202 57.75L85.0502 55.61L100.82 36.73C101.21 36.26 101.79 35.99 102.4 35.99H108.8C110.55 35.99 111.5 38.03 110.37 39.37L93.4202 59.6C92.8202 60.31 92.7802 61.34 93.3202 62.11L112.12 88.77C113.08 90.13 112.11 92.01 110.44 92.01H103.94C103.27 92.01 102.64 91.68 102.25 91.13L87.4702 69.88C86.7202 68.81 85.1802 68.7 84.2902 69.65Z" fill="black" style="fill:black;fill-opacity:1;"/>
<path d="M56.2924 51.123C56.2924 53.7932 55.6006 56.1765 54.217 58.2727C52.8333 60.344 50.9465 61.9786 48.5566 63.1765C51.4245 64.4991 53.6258 66.3084 55.1604 68.6043C56.7201 70.9002 57.5 73.4955 57.5 76.3904C57.5 81.1818 55.8648 84.9875 52.5943 87.8075C49.3239 90.6025 44.9717 92 39.5377 92C34.0786 92 29.7013 90.59 26.4057 87.7701C23.1352 84.9501 21.5 81.1569 21.5 76.3904C21.5 73.4706 22.2799 70.8503 23.8396 68.5294C25.3994 66.2086 27.588 64.4242 30.4057 63.1765C28.0409 61.9786 26.1667 60.344 24.783 58.2727C23.4245 56.1765 22.7453 53.7932 22.7453 51.123C22.7453 46.4813 24.2547 42.8004 27.2736 40.0802C30.2925 37.3601 34.3679 36 39.5 36C44.6572 36 48.7453 37.3601 51.7642 40.0802C54.783 42.8004 56.2924 46.4813 56.2924 51.123ZM48.3302 75.9412C48.3302 73.246 47.5126 71.0749 45.8774 69.4278C44.2673 67.7558 42.1289 66.9198 39.4623 66.9198C36.7956 66.9198 34.6572 67.7433 33.0472 69.3904C31.4623 71.0374 30.6698 73.221 30.6698 75.9412C30.6698 78.6114 31.4497 80.7451 33.0094 82.3422C34.5943 83.9394 36.7704 84.738 39.5377 84.738C42.305 84.738 44.456 83.9643 45.9906 82.4171C47.5503 80.8699 48.3302 78.7112 48.3302 75.9412ZM47.1604 51.4599C47.1604 49.0891 46.4686 47.1426 45.0849 45.6203C43.7013 44.0731 41.8396 43.2995 39.5 43.2995C37.1604 43.2995 35.3113 44.0357 33.9528 45.508C32.5943 46.9554 31.9151 48.9394 31.9151 51.4599C31.9151 53.9554 32.5943 55.9394 33.9528 57.4118C35.3365 58.8841 37.1981 59.6203 39.5377 59.6203C41.8774 59.6203 43.7264 58.8841 45.0849 57.4118C46.4686 55.9394 47.1604 53.9554 47.1604 51.4599Z" fill="black" style="fill:black;fill-opacity:1;"/>
<path d="M56.2924 51.123C56.2924 53.7932 55.6006 56.1765 54.217 58.2727C52.8333 60.344 50.9465 61.9786 48.5566 63.1765C51.4245 64.4991 53.6258 66.3084 55.1604 68.6043C56.7201 70.9002 57.5 73.4955 57.5 76.3904C57.5 81.1818 55.8648 84.9875 52.5943 87.8075C49.3239 90.6025 44.9717 92 39.5377 92C34.0786 92 29.7013 90.59 26.4057 87.7701C23.1352 84.9501 21.5 81.1569 21.5 76.3904C21.5 73.4706 22.2799 70.8503 23.8396 68.5294C25.3994 66.2086 27.588 64.4242 30.4057 63.1765C28.0409 61.9786 26.1667 60.344 24.783 58.2727C23.4245 56.1765 22.7453 53.7932 22.7453 51.123C22.7453 46.4813 24.2547 42.8004 27.2736 40.0802C30.2925 37.3601 34.3679 36 39.5 36C44.6572 36 48.7453 37.3601 51.7642 40.0802C54.783 42.8004 56.2924 46.4813 56.2924 51.123ZM48.3302 75.9412C48.3302 73.246 47.5126 71.0749 45.8774 69.4278C44.2673 67.7558 42.1289 66.9198 39.4623 66.9198C36.7956 66.9198 34.6572 67.7433 33.0472 69.3904C31.4623 71.0374 30.6698 73.221 30.6698 75.9412C30.6698 78.6114 31.4497 80.7451 33.0094 82.3422C34.5943 83.9394 36.7704 84.738 39.5377 84.738C42.305 84.738 44.456 83.9643 45.9906 82.4171C47.5503 80.8699 48.3302 78.7112 48.3302 75.9412ZM47.1604 51.4599C47.1604 49.0891 46.4686 47.1426 45.0849 45.6203C43.7013 44.0731 41.8396 43.2995 39.5 43.2995C37.1604 43.2995 35.3113 44.0357 33.9528 45.508C32.5943 46.9554 31.9151 48.9394 31.9151 51.4599C31.9151 53.9554 32.5943 55.9394 33.9528 57.4118C35.3365 58.8841 37.1981 59.6203 39.5377 59.6203C41.8774 59.6203 43.7264 58.8841 45.0849 57.4118C46.4686 55.9394 47.1604 53.9554 47.1604 51.4599Z" fill="black" style="fill:black;fill-opacity:1;"/>
<defs>
<linearGradient id="paint0_linear_124_10795" x1="64.5" y1="-0.3333" x2="64.5" y2="128.1" gradientUnits="userSpaceOnUse">
<stop stop-color="#29B6F6" style="stop-color:#29B6F6;stop-color:color(display-p3 0.1608 0.7137 0.9647);stop-opacity:1;"/>
<stop offset="0.5369" stop-color="#169FE4" style="stop-color:#169FE4;stop-color:color(display-p3 0.0863 0.6235 0.8941);stop-opacity:1;"/>
<stop offset="0.9954" stop-color="#0288D1" style="stop-color:#0288D1;stop-color:color(display-p3 0.0078 0.5333 0.8196);stop-opacity:1;"/>
</linearGradient>
<radialGradient id="paint1_radial_124_10795" cx="0" cy="0" r="1" gradientUnits="userSpaceOnUse" gradientTransform="translate(64.3073 2.95884) scale(119.4 147.647)">
<stop stop-color="#FFD740" style="stop-color:#FFD740;stop-color:color(display-p3 1.0000 0.8431 0.2510);stop-opacity:1;"/>
<stop offset="0.203" stop-color="#FFD43C" style="stop-color:#FFD43C;stop-color:color(display-p3 1.0000 0.8314 0.2353);stop-opacity:1;"/>
<stop offset="0.4162" stop-color="#FFCB2F" style="stop-color:#FFCB2F;stop-color:color(display-p3 1.0000 0.7961 0.1843);stop-opacity:1;"/>
<stop offset="0.6332" stop-color="#FFBD1A" style="stop-color:#FFBD1A;stop-color:color(display-p3 1.0000 0.7412 0.1020);stop-opacity:1;"/>
<stop offset="0.8336" stop-color="#FFAB00" style="stop-color:#FFAB00;stop-color:color(display-p3 1.0000 0.6706 0.0000);stop-opacity:1;"/>
<stop offset="1" stop-color="#FFAB00" style="stop-color:#FFAB00;stop-color:color(display-p3 1.0000 0.6706 0.0000);stop-opacity:1;"/>
</radialGradient>
<linearGradient id="paint2_linear_124_10795" x1="64.5" y1="-0.3333" x2="64.5" y2="128.1" gradientUnits="userSpaceOnUse">
<stop stop-color="#29B6F6" style="stop-color:#29B6F6;stop-color:color(display-p3 0.1608 0.7137 0.9647);stop-opacity:1;"/>
<stop offset="0.5369" stop-color="#169FE4" style="stop-color:#169FE4;stop-color:color(display-p3 0.0863 0.6235 0.8941);stop-opacity:1;"/>
<stop offset="0.9954" stop-color="#0288D1" style="stop-color:#0288D1;stop-color:color(display-p3 0.0078 0.5333 0.8196);stop-opacity:1;"/>
</linearGradient>
<radialGradient id="paint3_radial_124_10795" cx="0" cy="0" r="1" gradientUnits="userSpaceOnUse" gradientTransform="translate(64.3073 2.95884) scale(119.4 147.647)">
<stop stop-color="#FFD740" style="stop-color:#FFD740;stop-color:color(display-p3 1.0000 0.8431 0.2510);stop-opacity:1;"/>
<stop offset="0.203" stop-color="#FFD43C" style="stop-color:#FFD43C;stop-color:color(display-p3 1.0000 0.8314 0.2353);stop-opacity:1;"/>
<stop offset="0.4162" stop-color="#FFCB2F" style="stop-color:#FFCB2F;stop-color:color(display-p3 1.0000 0.7961 0.1843);stop-opacity:1;"/>
<stop offset="0.6332" stop-color="#FFBD1A" style="stop-color:#FFBD1A;stop-color:color(display-p3 1.0000 0.7412 0.1020);stop-opacity:1;"/>
<stop offset="0.8336" stop-color="#FFAB00" style="stop-color:#FFAB00;stop-color:color(display-p3 1.0000 0.6706 0.0000);stop-opacity:1;"/>
<stop offset="1" stop-color="#FFAB00" style="stop-color:#FFAB00;stop-color:color(display-p3 1.0000 0.6706 0.0000);stop-opacity:1;"/>
</radialGradient>
<linearGradient id="paint4_linear_124_10795" x1="64.5" y1="5.6667" x2="64.5" y2="121.92" gradientUnits="userSpaceOnUse">
<stop stop-color="#FFAB40" style="stop-color:#FFAB40;stop-color:color(display-p3 1.0000 0.6706 0.2510);stop-opacity:1;"/>
<stop offset="1" stop-color="#FF6D00" style="stop-color:#FF6D00;stop-color:color(display-p3 1.0000 0.4275 0.0000);stop-opacity:1;"/>
</linearGradient>
</defs>
</svg>
