<svg width="128" height="128" viewBox="0 0 128 128" fill="none" xmlns="http://www.w3.org/2000/svg">
<path d="M23.9902 19.4657C23.9902 19.4657 24.9602 12.8757 26.2202 10.2357C27.4802 7.59569 29.4602 4.81569 33.2602 4.07569C37.7902 3.19569 90.3102 3.65569 93.9502 3.88569C97.6202 4.12569 100.03 5.27569 101.41 7.53569C102.46 9.26569 102.83 11.3757 103.32 14.5057C103.58 16.1557 104.12 20.6757 104.12 20.6757L23.9902 19.4657Z" fill="#FFA828" style="fill:#FFA828;fill:color(display-p3 1.0000 0.6588 0.1569);fill-opacity:1;"/>
<path d="M50.6302 37.3156L22.4702 32.6356C22.4702 32.6356 23.0602 20.9856 24.2802 17.9356C25.5002 14.8856 27.0102 13.0656 31.4402 12.3056C35.8702 11.5456 46.9702 11.8556 63.6202 11.7056C80.2702 11.5556 94.9302 12.5656 97.5302 12.7156C100.13 12.8656 102.57 14.1456 103.33 16.5856C104.09 19.0256 104.46 22.3256 105.01 28.1956C105.21 30.3256 105.03 34.3556 105.03 34.3556L72.7602 36.5556L50.6302 37.3156Z" fill="#F1EDEC" style="fill:#F1EDEC;fill:color(display-p3 0.9451 0.9294 0.9255);fill-opacity:1;"/>
<path d="M22.2302 35.6857C22.4202 32.6357 22.4802 29.3357 24.8002 27.3657C26.7902 25.6857 30.1502 25.9957 34.1202 25.8357C37.7902 25.6957 47.1002 25.7757 64.6702 25.7757C82.2402 25.7757 97.0302 26.0357 99.7802 26.0357C102.53 26.0357 104.87 28.1857 105.17 30.1757C105.48 32.1657 104.1 116.326 103.95 118.156C103.8 119.986 103.19 123.656 99.2102 123.956C95.2402 124.266 32.7702 124.266 30.1702 123.956C27.5702 123.646 25.2802 121.356 24.8202 117.086C24.3602 112.816 22.0702 38.1257 22.2302 35.6857Z" fill="#D8CDC9" style="fill:#D8CDC9;fill:color(display-p3 0.8471 0.8039 0.7882);fill-opacity:1;"/>
<path d="M29.61 50.0259C31.91 50.3259 33.82 40.4159 36.82 38.1059C39.82 35.8059 45.43 34.5959 45.43 32.2959C45.43 31.1459 41.79 31.1559 38.42 31.1959C35.05 31.2359 32.15 30.9559 30.51 32.6959C28.71 34.5959 28.53 37.6459 28.41 40.7059C28.2 45.6159 28.19 49.8359 29.61 50.0259Z" fill="#F1EDEC" style="fill:#F1EDEC;fill:color(display-p3 0.9451 0.9294 0.9255);fill-opacity:1;"/>
<path d="M79.3398 117.656C79.3398 119.336 80.5698 119.886 87.2198 119.656C92.8398 119.466 95.6198 118.756 97.2898 116.746C98.9598 114.746 99.4198 110.546 99.4898 105.506C99.5298 102.016 99.4398 98.6562 97.6798 98.6562C95.1598 98.6562 95.1699 104.406 93.1599 107.636C89.2199 113.976 79.3398 115.416 79.3398 117.656Z" fill="#F1EDEC" style="fill:#F1EDEC;fill:color(display-p3 0.9451 0.9294 0.9255);fill-opacity:1;"/>
<path d="M94.0881 93.463L94.1024 93.4754L94.1171 93.4875C97.1024 95.9461 98.4999 98.801 98.5 102.114C98.4999 105.647 97.0511 108.595 94.0051 111.041C91.0121 113.442 87.3923 114.666 83.0632 114.666C78.5644 114.666 74.8722 113.408 71.8901 110.955C68.9055 108.431 67.5 105.505 67.5 102.114V102.114C67.5 98.7254 68.9028 95.8404 71.8758 93.3893C74.9536 90.9207 78.656 89.6661 83.0632 89.666C87.5565 89.6661 91.1953 90.9554 94.0881 93.463Z" stroke="#40A940" style="stroke:#40A940;stroke:color(display-p3 0.2512 0.6625 0.2512);stroke-opacity:1;" stroke-width="3"/>
<ellipse cx="82.5" cy="101.166" rx="3.5" ry="3" fill="#426FE4" style="fill:#426FE4;fill:color(display-p3 0.2588 0.4353 0.8941);fill-opacity:1;"/>
<ellipse cx="82.5" cy="101.166" rx="3.5" ry="3" fill="#40A940" style="fill:#40A940;fill:color(display-p3 0.2512 0.6625 0.2512);fill-opacity:1;"/>
<path d="M55.0881 36.463L55.1024 36.4754L55.1171 36.4875C58.1024 38.9461 59.4999 41.801 59.5 45.1139C59.4999 48.6468 58.0511 51.5952 55.0051 54.041C52.0121 56.4424 48.3923 57.666 44.0632 57.666C39.5644 57.666 35.8722 56.4075 32.8901 53.9546C29.9055 51.4309 28.5 48.505 28.5 45.114V45.114C28.5 41.7254 29.9028 38.8404 32.8758 36.3893C35.9536 33.9207 39.656 32.6661 44.0632 32.666C48.5565 32.6661 52.1953 33.9554 55.0881 36.463Z" stroke="#426FE4" style="stroke:#426FE4;stroke:color(display-p3 0.2588 0.4353 0.8941);stroke-opacity:1;" stroke-width="3"/>
<ellipse cx="44" cy="45.666" rx="3" ry="2.5" fill="#426FE4" style="fill:#426FE4;fill:color(display-p3 0.2588 0.4353 0.8941);fill-opacity:1;"/>
<path d="M74.0881 64.463L74.1024 64.4754L74.1171 64.4875C77.1024 66.9461 78.4999 69.801 78.5 73.1139C78.4999 76.6468 77.0511 79.5952 74.0051 82.041C71.0121 84.4424 67.3923 85.666 63.0632 85.666C58.5644 85.666 54.8722 84.4075 51.8901 81.9546C48.9055 79.4309 47.5 76.505 47.5 73.114V73.114C47.5 69.7254 48.9028 66.8404 51.8758 64.3893C54.9536 61.9207 58.656 60.6661 63.0632 60.666C67.5565 60.6661 71.1953 61.9554 74.0881 64.463Z" stroke="#DF0B26" style="stroke:#DF0B26;stroke:color(display-p3 0.8745 0.0431 0.1490);stroke-opacity:1;" stroke-width="3"/>
<circle cx="62.5" cy="73.666" r="2.5" fill="#DF0B26" style="fill:#DF0B26;fill:color(display-p3 0.8745 0.0431 0.1490);fill-opacity:1;"/>
</svg>
