<svg width="128" height="128" viewBox="0 0 128 128" fill="none" xmlns="http://www.w3.org/2000/svg">
<path d="M23.9902 19.4657C23.9902 19.4657 24.9602 12.8757 26.2202 10.2357C27.4802 7.59569 29.4602 4.81569 33.2602 4.07569C37.7902 3.19569 90.3102 3.65569 93.9502 3.88569C97.6202 4.12569 100.03 5.27569 101.41 7.53569C102.46 9.26569 102.83 11.3757 103.32 14.5057C103.58 16.1557 104.12 20.6757 104.12 20.6757L23.9902 19.4657Z" fill="#FFA828" style="fill:#FFA828;fill:color(display-p3 1.0000 0.6588 0.1569);fill-opacity:1;"/>
<path d="M50.6302 37.3156L22.4702 32.6356C22.4702 32.6356 23.0602 20.9856 24.2802 17.9356C25.5002 14.8856 27.0102 13.0656 31.4402 12.3056C35.8702 11.5456 46.9702 11.8556 63.6202 11.7056C80.2702 11.5556 94.9302 12.5656 97.5302 12.7156C100.13 12.8656 102.57 14.1456 103.33 16.5856C104.09 19.0256 104.46 22.3256 105.01 28.1956C105.21 30.3256 105.03 34.3556 105.03 34.3556L72.7602 36.5556L50.6302 37.3156Z" fill="#F1EDEC" style="fill:#F1EDEC;fill:color(display-p3 0.9451 0.9294 0.9255);fill-opacity:1;"/>
<path d="M22.2302 35.6857C22.4202 32.6357 22.4802 29.3357 24.8002 27.3657C26.7902 25.6857 30.1502 25.9957 34.1202 25.8357C37.7902 25.6957 47.1002 25.7757 64.6702 25.7757C82.2402 25.7757 97.0302 26.0357 99.7802 26.0357C102.53 26.0357 104.87 28.1857 105.17 30.1757C105.48 32.1657 104.1 116.326 103.95 118.156C103.8 119.986 103.19 123.656 99.2102 123.956C95.2402 124.266 32.7702 124.266 30.1702 123.956C27.5702 123.646 25.2802 121.356 24.8202 117.086C24.3602 112.816 22.0702 38.1257 22.2302 35.6857Z" fill="#D8CDC9" style="fill:#D8CDC9;fill:color(display-p3 0.8471 0.8039 0.7882);fill-opacity:1;"/>
<path d="M29.61 50.0259C31.91 50.3259 33.82 40.4159 36.82 38.1059C39.82 35.8059 45.43 34.5959 45.43 32.2959C45.43 31.1459 41.79 31.1559 38.42 31.1959C35.05 31.2359 32.15 30.9559 30.51 32.6959C28.71 34.5959 28.53 37.6459 28.41 40.7059C28.2 45.6159 28.19 49.8359 29.61 50.0259Z" fill="#F1EDEC" style="fill:#F1EDEC;fill:color(display-p3 0.9451 0.9294 0.9255);fill-opacity:1;"/>
<path d="M79.3398 117.656C79.3398 119.336 80.5698 119.886 87.2198 119.656C92.8398 119.466 95.6198 118.756 97.2898 116.746C98.9598 114.746 99.4198 110.546 99.4898 105.506C99.5298 102.016 99.4398 98.6562 97.6798 98.6562C95.1598 98.6562 95.1699 104.406 93.1599 107.636C89.2199 113.976 79.3398 115.416 79.3398 117.656Z" fill="#F1EDEC" style="fill:#F1EDEC;fill:color(display-p3 0.9451 0.9294 0.9255);fill-opacity:1;"/>
<rect x="61" y="30.5334" width="7" height="38.9983" rx="1" fill="#426FE4" style="fill:#426FE4;fill:color(display-p3 0.2588 0.4353 0.8941);fill-opacity:1;"/>
<rect x="61" y="30.7717" width="9" height="3" rx="1" fill="#426FE4" style="fill:#426FE4;fill:color(display-p3 0.2588 0.4353 0.8941);fill-opacity:1;"/>
<rect x="58" y="37.6233" width="12" height="4.43163" rx="1" fill="#426FE4" style="fill:#426FE4;fill:color(display-p3 0.2588 0.4353 0.8941);fill-opacity:1;"/>
<rect x="58" y="52.6907" width="12" height="4.43163" rx="1" fill="#426FE4" style="fill:#426FE4;fill:color(display-p3 0.2588 0.4353 0.8941);fill-opacity:1;"/>
<rect x="61" y="79.2163" width="7" height="38.9983" rx="1" fill="#40A940" style="fill:#40A940;fill:color(display-p3 0.2512 0.6625 0.2512);fill-opacity:1;"/>
<rect x="61" y="78.3301" width="9" height="2.65898" rx="1" fill="#40A940" style="fill:#40A940;fill:color(display-p3 0.2512 0.6625 0.2512);fill-opacity:1;"/>
<rect x="58" y="87.1934" width="12" height="3.5453" rx="1" fill="#40A940" style="fill:#40A940;fill:color(display-p3 0.2512 0.6625 0.2512);fill-opacity:1;"/>
<rect x="58" y="101.375" width="12" height="4.43163" rx="1" fill="#40A940" style="fill:#40A940;fill:color(display-p3 0.2512 0.6625 0.2512);fill-opacity:1;"/>
</svg>
