<svg width="129" height="128" viewBox="0 0 129 128" fill="none" xmlns="http://www.w3.org/2000/svg">
<path fill-rule="evenodd" clip-rule="evenodd" d="M42.6094 30.1829V15.7894C42.6094 14.6849 43.5048 13.7894 44.6094 13.7894H48.5269C49.6315 13.7894 50.5269 14.6849 50.5269 15.7894V20.3468L60.4238 21.9733V17.4159C60.4238 16.3113 61.3192 15.4159 62.4238 15.4159H68.3207C69.4252 15.4159 70.3207 16.3113 70.3207 17.4159V21.9733L80.2176 20.3468V15.7894C80.2176 14.6849 81.113 13.7894 82.2176 13.7894H86.1351C87.2396 13.7894 88.1351 14.6849 88.1351 15.7894V30.1829" fill="white" style="fill:white;fill-opacity:1;"/>
<path fill-rule="evenodd" clip-rule="evenodd" d="M42.6094 30.1829V15.7894C42.6094 14.6849 43.5048 13.7894 44.6094 13.7894H48.5269C49.6315 13.7894 50.5269 14.6849 50.5269 15.7894V20.3468L60.4238 21.9733V17.4159C60.4238 16.3113 61.3192 15.4159 62.4238 15.4159H68.3207C69.4252 15.4159 70.3207 16.3113 70.3207 17.4159V21.9733L80.2176 20.3468V15.7894C80.2176 14.6849 81.113 13.7894 82.2176 13.7894H86.1351C87.2396 13.7894 88.1351 14.6849 88.1351 15.7894V30.1829" fill="#5E6367" style="fill:#5E6367;fill:color(display-p3 0.3686 0.3882 0.4039);fill-opacity:1;"/>
<path fill-rule="evenodd" clip-rule="evenodd" d="M88.1351 30.183L83.9471 37.12C82.8609 38.9193 80.9123 40.019 78.8106 40.019H51.9339C49.8321 40.019 47.8836 38.9193 46.7973 37.12L42.6094 30.183" fill="white" style="fill:white;fill-opacity:1;"/>
<path fill-rule="evenodd" clip-rule="evenodd" d="M88.1351 30.183L83.9471 37.12C82.8609 38.9193 80.9123 40.019 78.8106 40.019H51.9339C49.8321 40.019 47.8836 38.9193 46.7973 37.12L42.6094 30.183" fill="#474C50" style="fill:#474C50;fill:color(display-p3 0.2784 0.2980 0.3137);fill-opacity:1;"/>
<path d="M63.8201 76.52L42.6101 81.57C42.6101 81.57 42.0501 82.35 42.0601 83.19C42.0801 84.6 42.6801 84.93 42.6801 84.93L34.2101 95.2C34.2101 95.2 33.2201 97.23 33.2701 99.8C33.3201 102.26 34.3401 103.77 34.4801 103.7L31.7301 107.37L29.9801 108.12C29.9801 108.12 29.0301 109.66 29.1501 111.54C29.3001 113.86 30.8001 116.33 36.6501 119.04C42.7001 121.85 49.2401 124.37 64.4101 124.37C79.5801 124.37 91.0801 121.37 95.8301 118.04C100.58 114.71 100.96 111.81 101.04 110.56C101.11 109.47 100.83 108.53 100.49 107.87C100.45 107.8 100.36 107.66 100.36 107.66L96.6101 103.61C96.6101 103.61 97.5101 101.38 97.4001 99.01C97.2601 96.02 95.7501 93.86 95.7501 93.86L86.9101 86.19L86.9901 84.19C86.9901 84.19 87.1401 83.55 86.8501 82.48C86.6001 81.56 86.4001 81.05 86.1901 80.73C85.5701 79.78 84.8101 79.88 84.8101 79.88L63.8201 76.52Z" fill="#474C50" style="fill:#474C50;fill:color(display-p3 0.2784 0.2980 0.3137);fill-opacity:1;"/>
<path fill-rule="evenodd" clip-rule="evenodd" d="M77.4995 40H52.4995L55.8961 55.5273C55.8623 57.4208 55.6137 62.5483 53.9894 67.2699C51.9394 73.1999 46.9294 79.2299 46.9294 79.2299C46.9294 79.2299 46.0594 79.1099 44.7094 79.5599C43.5894 79.9299 42.6094 81.5599 42.6094 81.5599C42.6094 81.5599 48.7494 85.9199 65.4394 86.2799C81.0894 86.6199 86.2994 81.7899 86.5394 81.4599C86.5394 81.4599 85.8294 79.6699 85.0994 79.0799C84.3694 78.4899 82.4594 78.6199 82.4594 78.6199C82.4594 78.6199 80.3394 75.1799 77.4094 68.0799C75.4177 63.2536 74.7845 58.455 74.5832 55.8766L77.4995 40Z" fill="#5E6367" style="fill:#5E6367;fill:color(display-p3 0.3686 0.3882 0.4039);fill-opacity:1;"/>
<path d="M64.7497 81.6901C70.8997 81.6901 76.2497 80.4501 78.5197 79.7901C80.7897 79.1301 82.5097 78.0201 84.2697 78.6101C85.2597 78.9401 85.6397 79.6901 85.6397 79.6901C85.6397 79.6901 79.0997 85.1901 64.6797 84.6301C49.3097 84.0401 43.4297 80.5201 43.4297 80.5201C43.4297 80.5201 44.4297 79.0901 46.6797 79.2301C47.2797 79.2701 47.8397 79.4401 51.2797 80.2401C54.7197 81.0401 58.7397 81.6901 64.7497 81.6901Z" fill="#B0B0AF" style="fill:#B0B0AF;fill:color(display-p3 0.6902 0.6902 0.6863);fill-opacity:1;"/>
<path d="M42.68 84.9199C42.68 84.9199 52.81 88.9299 64.75 89.0899C80.72 89.2999 87 84.1899 87 84.1899C87 84.1899 90.75 87.6299 92.28 89.2399C93.81 90.8499 95.75 93.8599 95.75 93.8599C95.75 93.8599 89.06 104.91 64.61 104.69C40.15 104.47 34.21 95.1999 34.21 95.1999C34.21 95.1999 35.5 91.8199 38.17 89.0199C39.81 87.2899 42.68 84.9199 42.68 84.9199Z" fill="#5E6367" style="fill:#5E6367;fill:color(display-p3 0.3686 0.3882 0.4039);fill-opacity:1;"/>
<path d="M42.4896 89.4501C40.6696 88.9601 37.0696 92.6001 37.5096 94.8701C37.7296 96.0301 38.3796 97.3201 41.8996 98.6001C45.1196 99.7701 50.0996 99.7101 50.0996 97.7901C50.0996 95.3001 45.7796 95.5301 44.6796 93.3201C43.8096 91.5801 44.3896 89.9701 42.4896 89.4501Z" fill="#B0B0AF" style="fill:#B0B0AF;fill:color(display-p3 0.6902 0.6902 0.6863);fill-opacity:1;"/>
<path d="M34.4805 103.69C34.4805 103.69 33.0405 104.67 31.9205 105.77C30.5105 107.16 29.9805 108.11 29.9805 108.11C29.9805 108.11 33.2105 119.73 64.2505 119.98C94.6405 120.23 100.36 107.65 100.36 107.65C100.36 107.65 99.3705 106.22 98.3305 105.18C97.2905 104.14 96.6005 103.61 96.6005 103.61C96.6005 103.61 87.7905 113.56 64.0405 113.3C41.4005 113.07 34.4805 103.69 34.4805 103.69Z" fill="#5E6367" style="fill:#5E6367;fill:color(display-p3 0.3686 0.3882 0.4039);fill-opacity:1;"/>
<path d="M32.92 106.89C32.09 107.82 32.12 109.75 34.57 111.36C37.19 113.08 41.41 115.53 47.46 116.66C53.62 117.81 60.04 117.46 59.64 115.4C59.37 113.99 54.03 115.57 44.56 111.82C39 109.62 37.28 108.41 36.15 107.61C35.42 107.08 34.12 105.55 32.92 106.89Z" fill="#B0B0AF" style="fill:#B0B0AF;fill:color(display-p3 0.6902 0.6902 0.6863);fill-opacity:1;"/>
<path d="M40.0901 96.2798C42.0201 96.2798 42.0201 93.2798 40.0901 93.2798C38.1601 93.2798 38.1601 96.2798 40.0901 96.2798Z" fill="#B0B0AF" style="fill:#B0B0AF;fill:color(display-p3 0.6902 0.6902 0.6863);fill-opacity:1;"/>
</svg>
