<svg width="128" height="129" viewBox="0 0 128 129" fill="none" xmlns="http://www.w3.org/2000/svg">
<path d="M36.1136 110.299C36.1136 110.299 40.1436 108.699 42.1536 107.159C44.0336 105.719 45.7336 103.759 46.9036 102.719C47.6636 102.029 48.3336 101.719 48.9236 101.719C49.5236 101.719 50.0536 102.029 50.5036 102.579L53.0836 105.819C54.1636 107.599 53.2436 109.929 53.2436 109.929C53.2436 109.929 55.9436 112.789 51.4436 113.769C46.8336 114.779 41.3136 115.329 41.3136 115.329C41.0236 115.379 40.6736 115.409 40.2936 115.409C38.3936 115.409 35.6936 114.719 34.8336 112.749C34.8336 112.749 33.5436 111.319 36.1136 110.299Z" fill="#4568AC" style="fill:#4568AC;fill:color(display-p3 0.2706 0.4078 0.6745);fill-opacity:1;"/>
<path d="M53.4816 105.697L69.3535 104.256C69.3635 104.256 44.0326 105.189 46.8618 90.7344C46.8618 90.7344 62.9135 91.6412 69.3535 91.6412C69.3535 91.6412 93.0175 96.2915 93.4827 107.21C93.8899 116.769 77.7563 115.715 76.4484 115.715C75.3714 115.715 74.3824 115.715 73.1824 115.715C67.8624 115.715 60.3335 114.816 54.2135 114.096C51.8635 113.816 51.8016 106.787 53.4816 105.697Z" fill="#616161" style="fill:#616161;fill:color(display-p3 0.3804 0.3804 0.3804);fill-opacity:1;"/>
<path d="M55.415 41.2187C54.325 37.4987 53.725 32.8887 54.225 30.1187C54.335 29.4987 54.495 28.9587 54.715 28.5487C55.345 27.4387 56.185 26.3687 57.175 25.4087C57.195 25.3887 57.215 25.3687 57.235 25.3587C57.455 25.1387 57.685 24.9287 57.925 24.7287C57.965 24.6987 58.005 24.6587 58.045 24.6287C58.265 24.4387 58.485 24.2587 58.715 24.0887C58.765 24.0487 58.825 24.0087 58.875 23.9687C59.095 23.7987 59.325 23.6387 59.555 23.4887C59.615 23.4487 59.675 23.4087 59.735 23.3687C59.965 23.2187 60.205 23.0687 60.445 22.9287C60.505 22.8887 60.565 22.8587 60.625 22.8187C60.875 22.6787 61.125 22.5487 61.375 22.4187C61.425 22.3887 61.485 22.3587 61.535 22.3387C61.805 22.2087 62.085 22.0787 62.365 21.9587C62.395 21.9487 62.435 21.9287 62.465 21.9187C64.015 21.2787 65.635 20.9087 67.205 20.9087C67.245 20.9087 67.285 20.9187 67.315 20.9187C67.665 20.9187 68.005 20.9387 68.345 20.9787C74.085 21.6587 77.335 25.6287 78.385 30.7887C78.765 32.6587 78.795 34.5487 78.535 35.8887C78.505 36.0487 78.245 37.2287 78.235 37.5887C78.085 38.9987 80.865 40.2687 81.255 41.8087C81.545 42.9587 79.145 43.8187 78.965 44.0287C78.055 45.1187 79.795 50.0287 73.145 50.8287C70.585 51.1387 70.345 51.0687 69.545 51.1787C67.955 51.4087 68.425 57.8587 68.425 57.8587H68.415L56.895 55.5487C56.895 55.5487 58.425 48.0987 56.775 44.8487C56.285 43.8587 55.815 42.5987 55.415 41.2187Z" fill="#FFCA28" style="fill:#FFCA28;fill:color(display-p3 1.0000 0.7922 0.1569);fill-opacity:1;"/>
<path d="M78.415 46.8785C77.495 46.9685 76.565 46.7985 75.755 46.2585C74.875 45.6585 75.425 44.9285 76.425 45.2985C77.025 45.5285 77.865 45.6085 78.625 45.4285L78.415 46.8785Z" fill="#795548" style="fill:#795548;fill:color(display-p3 0.4745 0.3333 0.2824);fill-opacity:1;"/>
<path d="M72.9152 38.5958C72.9008 37.5576 73.4354 36.7084 74.1091 36.6991C74.7828 36.6898 75.3406 37.5239 75.3549 38.5621C75.3692 39.6003 74.8347 40.4494 74.161 40.4587C73.4873 40.468 72.9295 39.6339 72.9152 38.5958Z" fill="#404040" style="fill:#404040;fill:color(display-p3 0.2510 0.2510 0.2510);fill-opacity:1;"/>
<path d="M74.9643 35.7585C76.1843 35.9885 76.3843 35.1785 75.9243 34.5885C75.5843 34.1485 74.8243 33.8385 73.4643 34.2485C72.1843 34.6385 71.7143 35.4385 71.4143 35.9385C71.1143 36.4385 71.1943 36.8885 71.5043 36.8885C71.9243 36.8985 73.4543 35.4785 74.9643 35.7585Z" fill="#6D4C41" style="fill:#6D4C41;fill:color(display-p3 0.4275 0.2980 0.2549);fill-opacity:1;"/>
<path d="M53.0747 60.9985C54.9347 54.6285 58.1047 52.9985 60.8747 52.9985C63.7547 52.9985 66.1947 54.7785 66.1947 54.7785C71.0947 58.1485 71.1047 63.2885 71.5547 70.1985C72.0147 77.1085 72.3447 91.1885 72.3447 91.1885C72.3447 91.1885 66.9047 93.4385 58.6347 93.4385H57.9847C49.3447 93.3185 46.1447 90.3285 46.1447 90.3285C46.1447 90.3285 50.7447 68.9585 53.0747 60.9985Z" fill="url(#paint0_radial_2637_551)" style=""/>
<path d="M53.0747 60.9985C54.9347 54.6285 58.1047 52.9985 60.8747 52.9985C63.7547 52.9985 66.1947 54.7785 66.1947 54.7785C71.0947 58.1485 71.1047 63.2885 71.5547 70.1985C72.0147 77.1085 72.3447 91.1885 72.3447 91.1885C72.3447 91.1885 66.9047 93.4385 58.6347 93.4385H57.9847C49.3447 93.3185 46.1447 90.3285 46.1447 90.3285C46.1447 90.3285 50.7447 68.9585 53.0747 60.9985Z" fill="url(#paint1_radial_2637_551)" style=""/>
<path d="M50.7499 77.0752C51.5298 74.1185 54.9384 63.0139 54.9693 62.9064C55.0441 62.6627 55.2899 62.5165 55.5466 62.5625L65.6471 64.5635C65.7854 64.5874 65.9067 64.68 65.9842 64.8084C66.0518 64.9359 66.0677 65.0782 66.0238 65.2144L60.9593 79.9917C62.5954 81.2116 70.6716 87.1498 73.0772 87.9144C74.7038 88.4298 77.5094 89.1141 80.7487 89.8821C83.3395 90.5046 85.6199 94.2114 86.75 96.3654C87.0869 97.0123 86.968 97.7944 86.4742 98.3075C86.1028 98.7023 85.5833 98.8712 85.0858 98.8211C84.7575 98.7881 84.4391 98.6556 84.1806 98.4285L80.8407 95.9619C80.3262 95.9805 78.8158 96.0094 76.795 95.7157C74.2987 95.354 71.9691 94.0342 71.8935 93.9864C71.0231 93.5471 66.772 92.3456 62.6582 91.178C59.59 90.3065 56.4233 89.4151 54.2904 88.7382C48.1929 86.8082 50.0499 79.7385 50.7499 77.0752Z" fill="url(#paint2_linear_2637_551)" style=""/>
<path d="M53.8914 63.3303C54.6802 60.485 57.4125 57.1015 61.293 57.4918C61.6313 57.5259 61.9864 57.5918 62.3486 57.6885C66.7818 58.8782 67.6316 63.8181 66.7681 66.9071L63.8939 76.2966L51.0172 72.7198L53.8914 63.3303Z" fill="#04A287" style="fill:#04A287;fill:color(display-p3 0.0157 0.6353 0.5294);fill-opacity:1;"/>
<path d="M53.8914 63.3303C54.6802 60.485 57.4125 57.1015 61.293 57.4918C61.6313 57.5259 61.9864 57.5918 62.3486 57.6885C66.7818 58.8782 67.6316 63.8181 66.7681 66.9071L63.8939 76.2966L51.0172 72.7198L53.8914 63.3303Z" fill="#EC6E24" style="fill:#EC6E24;fill:color(display-p3 0.9255 0.4314 0.1412);fill-opacity:1;"/>
<path d="M50.7308 29.1975C52.0308 25.5475 54.9008 24.3575 55.8408 24.0575C56.2408 22.7375 58.3008 17.7175 66.5108 18.7575C68.5108 19.0075 70.0008 19.9075 71.3108 20.6875C71.8708 21.0275 72.4108 21.3475 72.9108 21.5575C73.3108 21.7275 74.0208 21.8775 74.5908 21.6575C75.8908 21.1775 75.4008 19.1975 75.4008 19.1975C75.4008 19.1975 80.2508 19.9675 78.3508 24.7075C79.9908 25.3575 80.8108 27.0475 81.1608 28.6475C81.6408 30.8375 80.6408 32.9675 78.5608 33.9975C78.5608 33.9975 78.8508 30.4475 73.7508 30.8375C72.1708 30.9575 70.5208 31.2675 69.0308 30.7375C68.4608 30.5275 67.9208 30.1975 67.3708 29.9475C67.2508 29.9475 67.1708 29.9475 67.1708 29.9475C65.2708 31.0575 67.9908 35.5275 65.9308 38.2775C65.5208 38.8175 65.1608 38.6375 65.1608 38.6375L64.2508 37.3975C63.5608 36.5575 62.9408 35.8175 62.1308 36.0275C59.7408 36.6475 60.3408 40.9275 63.2308 41.7675C63.5208 41.8475 63.0408 46.6675 57.1208 46.8875C54.0608 47.0075 52.8908 44.4975 52.8908 44.4975C52.8908 44.4975 54.2108 44.7775 54.4508 43.6575C54.5808 43.0775 54.0208 42.3175 53.0308 41.5075C50.1808 39.1575 51.0708 36.2975 51.4508 35.4075C50.9708 34.6275 49.7108 32.0475 50.7308 29.1975Z" fill="#543930" style="fill:#543930;fill:color(display-p3 0.3294 0.2235 0.1882);fill-opacity:1;"/>
<path d="M51.421 35.4274C51.371 35.3374 52.351 37.5775 56.251 37.0575C57.861 36.9975 60.241 40.7875 57.991 43.4375C55.991 45.7775 52.871 44.5275 52.871 44.5275C52.871 44.5275 53.301 44.6375 53.911 44.3975C54.301 44.2375 54.431 43.7075 54.431 43.6875C54.561 43.1075 54.001 42.3475 53.011 41.5375C50.161 39.1775 51.051 36.3174 51.421 35.4274Z" fill="url(#paint3_radial_2637_551)" style=""/>
<path d="M50.7306 29.1974C51.4106 27.2774 52.7306 25.6274 54.5206 24.6374C54.7806 24.4874 55.4106 24.1574 55.8606 24.0574C55.6806 24.9074 55.7406 25.7974 56.1306 26.7174C56.1406 26.7474 56.6006 28.1074 57.8306 29.1674C57.0106 30.3874 56.6306 31.8574 56.2806 33.2874C55.9706 34.5374 55.6806 35.9174 56.2706 37.0574C55.5206 37.0374 54.3406 37.2974 53.0006 36.7574C51.7206 36.2374 51.0106 34.8174 50.6506 33.5174C50.2406 32.0974 50.2306 30.5874 50.7306 29.1974Z" fill="url(#paint4_radial_2637_551)" style=""/>
<path d="M56.1208 26.7174C55.0908 24.3274 56.3308 22.0474 58.2908 20.4774C60.5908 18.6474 63.6908 18.3874 66.5108 18.7474C68.5108 18.9974 70.0008 19.8974 71.3108 20.6774C71.8708 21.0174 72.4108 21.3374 72.9108 21.5474C73.3108 21.7174 74.0208 21.8674 74.5908 21.6474C75.8908 21.1674 75.4008 19.1874 75.4008 19.1874C75.4008 19.1874 80.2508 19.9574 78.3508 24.6974C79.9908 25.3474 80.8108 27.0374 81.1608 28.6374C81.6408 30.8274 80.6408 32.9574 78.5608 33.9874C78.5608 33.9874 78.8508 30.4374 73.7508 30.8274C72.1708 30.9474 70.5208 31.2574 69.0308 30.7274C67.7108 30.2474 67.2408 29.5674 65.7908 29.6974C64.2208 29.8474 62.1508 30.5174 60.5208 30.3374C57.2108 29.9674 56.1408 26.7574 56.1208 26.7174Z" fill="url(#paint5_radial_2637_551)" style=""/>
<path d="M57.9908 43.4274C59.0008 42.2674 59.2108 40.4174 60.8308 39.3674C61.1708 40.4274 61.9908 41.4174 63.2208 41.7774C63.5108 41.8574 63.0308 46.6774 57.1108 46.8974C54.0508 47.0174 52.8808 44.5074 52.8808 44.5074C52.8808 44.5074 55.9508 45.7574 57.9908 43.4274Z" fill="url(#paint6_radial_2637_551)" style=""/>
<defs>
<radialGradient id="paint0_radial_2637_551" cx="0" cy="0" r="1" gradientUnits="userSpaceOnUse" gradientTransform="translate(62.328 68.0101) rotate(180) scale(17.0361 17.0361)">
<stop offset="0.3637" stop-color="#00BFA5" style="stop-color:#00BFA5;stop-color:color(display-p3 0.0000 0.7490 0.6471);stop-opacity:1;"/>
<stop offset="0.8121" stop-color="#00B29A" style="stop-color:#00B29A;stop-color:color(display-p3 0.0000 0.6980 0.6039);stop-opacity:1;"/>
<stop offset="1" stop-color="#00AB94" style="stop-color:#00AB94;stop-color:color(display-p3 0.0000 0.6706 0.5804);stop-opacity:1;"/>
</radialGradient>
<radialGradient id="paint1_radial_2637_551" cx="0" cy="0" r="1" gradientUnits="userSpaceOnUse" gradientTransform="translate(62.3253 68.0139) rotate(180) scale(17.0361 17.0361)">
<stop offset="0.3666" stop-color="#F58B21" style="stop-color:#F58B21;stop-color:color(display-p3 0.9608 0.5451 0.1294);stop-opacity:1;"/>
<stop offset="0.6967" stop-color="#F17E22" style="stop-color:#F17E22;stop-color:color(display-p3 0.9451 0.4941 0.1333);stop-opacity:1;"/>
<stop offset="1" stop-color="#EC6E24" style="stop-color:#EC6E24;stop-color:color(display-p3 0.9255 0.4314 0.1412);stop-opacity:1;"/>
</radialGradient>
<linearGradient id="paint2_linear_2637_551" x1="67.6296" y1="92.029" x2="71.1827" y2="77.9389" gradientUnits="userSpaceOnUse">
<stop offset="0.5" stop-color="#FFCA28" style="stop-color:#FFCA28;stop-color:color(display-p3 1.0000 0.7922 0.1569);stop-opacity:1;"/>
<stop offset="1" stop-color="#FFB300" style="stop-color:#FFB300;stop-color:color(display-p3 1.0000 0.7020 0.0000);stop-opacity:1;"/>
</linearGradient>
<radialGradient id="paint3_radial_2637_551" cx="0" cy="0" r="1" gradientUnits="userSpaceOnUse" gradientTransform="translate(59.0149 40.8015) rotate(157.587) scale(7.73725 11.1419)">
<stop offset="0.45" stop-color="#6D4C41" stop-opacity="0" style="stop-color:none;stop-opacity:0;"/>
<stop offset="1" stop-color="#6D4C41" style="stop-color:#6D4C41;stop-color:color(display-p3 0.4275 0.2980 0.2549);stop-opacity:1;"/>
</radialGradient>
<radialGradient id="paint4_radial_2637_551" cx="0" cy="0" r="1" gradientUnits="userSpaceOnUse" gradientTransform="translate(57.8081 33.0411) rotate(-174.428) scale(7.8426 9.89609)">
<stop offset="0.45" stop-color="#6D4C41" stop-opacity="0" style="stop-color:none;stop-opacity:0;"/>
<stop offset="1" stop-color="#6D4C41" style="stop-color:#6D4C41;stop-color:color(display-p3 0.4275 0.2980 0.2549);stop-opacity:1;"/>
</radialGradient>
<radialGradient id="paint5_radial_2637_551" cx="0" cy="0" r="1" gradientUnits="userSpaceOnUse" gradientTransform="translate(66.4524 30.008) rotate(-173.327) scale(16.1408 12.1333)">
<stop offset="0.45" stop-color="#6D4C41" stop-opacity="0" style="stop-color:none;stop-opacity:0;"/>
<stop offset="1" stop-color="#6D4C41" style="stop-color:#6D4C41;stop-color:color(display-p3 0.4275 0.2980 0.2549);stop-opacity:1;"/>
</radialGradient>
<radialGradient id="paint6_radial_2637_551" cx="0" cy="0" r="1" gradientUnits="userSpaceOnUse" gradientTransform="translate(57.2703 41.8135) rotate(163.591) scale(8.68967 5.58626)">
<stop offset="0.45" stop-color="#6D4C41" stop-opacity="0" style="stop-color:none;stop-opacity:0;"/>
<stop offset="1" stop-color="#6D4C41" style="stop-color:#6D4C41;stop-color:color(display-p3 0.4275 0.2980 0.2549);stop-opacity:1;"/>
</radialGradient>
</defs>
</svg>
