<svg width="128" height="128" viewBox="0 0 128 128" fill="none" xmlns="http://www.w3.org/2000/svg">
<path d="M63.6 118.8C35.7 118.8 5.59998 101.3 5.59998 62.9C5.59998 24.5 35.7 7 63.6 7C79.1 7 93.4 12.1 104 21.4C115.5 31.6 121.6 46 121.6 62.9C121.6 79.8 115.5 94.1 104 104.3C93.4 113.6 79 118.8 63.6 118.8Z" fill="url(#paint0_radial_169_10650)" style=""/>
<path d="M63.6 118.8C35.7 118.8 5.59998 101.3 5.59998 62.9C5.59998 24.5 35.7 7 63.6 7C79.1 7 93.4 12.1 104 21.4C115.5 31.6 121.6 46 121.6 62.9C121.6 79.8 115.5 94.1 104 104.3C93.4 113.6 79 118.8 63.6 118.8Z" fill="url(#paint1_radial_169_10650)" style=""/>
<path d="M63.6 118.8C35.7 118.8 5.59998 101.3 5.59998 62.9C5.59998 24.5 35.7 7 63.6 7C79.1 7 93.4 12.1 104 21.4C115.5 31.6 121.6 46 121.6 62.9C121.6 79.8 115.5 94.1 104 104.3C93.4 113.6 79 118.8 63.6 118.8Z" fill="url(#paint2_radial_169_10650)" style=""/>
<path d="M63.6 118.8C35.7 118.8 5.59998 101.3 5.59998 62.9C5.59998 24.5 35.7 7 63.6 7C79.1 7 93.4 12.1 104 21.4C115.5 31.6 121.6 46 121.6 62.9C121.6 79.8 115.5 94.1 104 104.3C93.4 113.6 79 118.8 63.6 118.8Z" fill="url(#paint3_radial_169_10650)" style=""/>
<path d="M39.3701 42.45C40.3801 42.45 41.2001 41.63 41.2001 40.62C41.2001 39.61 40.3801 38.79 39.3701 38.79C37.4201 38.59 35.4601 38.73 33.5601 39.19C28.3901 40.3 23.8301 43.33 20.7901 47.66C19.4201 49.75 22.1401 51.44 23.7401 49.88C27.9201 45.67 33.4401 43.04 39.3401 42.45" fill="#42312C" style="fill:#42312C;fill:color(display-p3 0.2588 0.1922 0.1725);fill-opacity:1;"/>
<path d="M39.3701 42.45C40.3801 42.45 41.2001 41.63 41.2001 40.62C41.2001 39.61 40.3801 38.79 39.3701 38.79C37.4201 38.59 35.4601 38.73 33.5601 39.19C28.3901 40.3 23.8301 43.33 20.7901 47.66C19.4201 49.75 22.1401 51.44 23.7401 49.88C27.9201 45.67 33.4401 43.04 39.3401 42.45" fill="#42312C" style="fill:#42312C;fill:color(display-p3 0.2588 0.1922 0.1725);fill-opacity:1;"/>
<path d="M88.2201 42.45C87.2101 42.45 86.3901 41.63 86.3901 40.62C86.3901 39.61 87.2101 38.79 88.2201 38.79C90.1701 38.59 92.1301 38.73 94.0301 39.19C99.2001 40.3 103.77 43.32 106.8 47.66C108.17 49.75 105.45 51.44 103.8 49.88C99.6201 45.67 94.1101 43.04 88.2001 42.45" fill="#42312C" style="fill:#42312C;fill:color(display-p3 0.2588 0.1922 0.1725);fill-opacity:1;"/>
<path d="M88.2201 42.45C87.2101 42.45 86.3901 41.63 86.3901 40.62C86.3901 39.61 87.2101 38.79 88.2201 38.79C90.1701 38.59 92.1301 38.73 94.0301 39.19C99.2001 40.3 103.77 43.32 106.8 47.66C108.17 49.75 105.45 51.44 103.8 49.88C99.6201 45.67 94.1101 43.04 88.2001 42.45" fill="#42312C" style="fill:#42312C;fill:color(display-p3 0.2588 0.1922 0.1725);fill-opacity:1;"/>
<path d="M46.6301 94.31C50.5501 93.8 54.3701 93.64 58.1001 93.43C61.8301 93.22 65.5001 93.01 68.9501 92.43C72.1501 92.09 75.2601 91.19 78.1401 89.77C80.5601 88.48 82.3201 86.23 83.0001 83.58V83.45C83.5101 81.65 85.3801 80.61 87.1801 81.12C88.6601 81.54 89.6701 82.91 89.6301 84.45C89.5801 86.9 88.9401 89.3 87.7601 91.45C86.5301 93.66 84.8101 95.56 82.7301 97C78.7301 99.75 74.3401 100.76 70.2501 101.42C66.2701 101.94 62.2601 102.12 58.2501 101.95C54.3301 101.83 50.4901 101.49 46.7501 101.06C44.9001 100.83 43.5801 99.15 43.8101 97.29C44.0001 95.75 45.2101 94.53 46.7501 94.35L46.6301 94.31Z" fill="#35220B" style="fill:#35220B;fill:color(display-p3 0.2078 0.1333 0.0431);fill-opacity:1;"/>
<path d="M46.6301 94.31C50.5501 93.8 54.3701 93.64 58.1001 93.43C61.8301 93.22 65.5001 93.01 68.9501 92.43C72.1501 92.09 75.2601 91.19 78.1401 89.77C80.5601 88.48 82.3201 86.23 83.0001 83.58V83.45C83.5101 81.65 85.3801 80.61 87.1801 81.12C88.6601 81.54 89.6701 82.91 89.6301 84.45C89.5801 86.9 88.9401 89.3 87.7601 91.45C86.5301 93.66 84.8101 95.56 82.7301 97C78.7301 99.75 74.3401 100.76 70.2501 101.42C66.2701 101.94 62.2601 102.12 58.2501 101.95C54.3301 101.83 50.4901 101.49 46.7501 101.06C44.9001 100.83 43.5801 99.15 43.8101 97.29C44.0001 95.75 45.2101 94.53 46.7501 94.35L46.6301 94.31Z" fill="#42312C" style="fill:#42312C;fill:color(display-p3 0.2588 0.1922 0.1725);fill-opacity:1;"/>
<path d="M48.16 55.81C42.11 54.23 35.72 54.47 29.8 56.5C28.74 56.91 28.21 58.09 28.62 59.15C29 60.14 30.06 60.67 31.08 60.39C33.45 59.93 35.87 59.8 38.28 59.99C38.28 60.05 38.28 60.38 38.28 60.38C38.28 65.27 41.45 68.23 44.95 68.23C46.74 68.21 48.45 67.47 49.69 66.17C51.77 63.96 52.2 60.66 50.74 58C50.19 56.97 49.27 56.18 48.16 55.81Z" fill="#42312C" style="fill:#42312C;fill:color(display-p3 0.2588 0.1922 0.1725);fill-opacity:1;"/>
<path d="M48.16 55.81C42.11 54.23 35.72 54.47 29.8 56.5C28.74 56.91 28.21 58.09 28.62 59.15C29 60.14 30.06 60.67 31.08 60.39C33.45 59.93 35.87 59.8 38.28 59.99C38.28 60.05 38.28 60.38 38.28 60.38C38.28 65.27 41.45 68.23 44.95 68.23C46.74 68.21 48.45 67.47 49.69 66.17C51.77 63.96 52.2 60.66 50.74 58C50.19 56.97 49.27 56.18 48.16 55.81Z" fill="#42312C" style="fill:#42312C;fill:color(display-p3 0.2588 0.1922 0.1725);fill-opacity:1;"/>
<path d="M96.0001 55.81C89.9501 54.23 83.5601 54.47 77.6401 56.5C76.5701 56.88 76.0001 58.05 76.3801 59.12C76.7601 60.19 77.9301 60.76 79.0001 60.38C81.3701 59.92 83.7901 59.79 86.1901 59.98C86.1901 60.04 86.1901 60.37 86.1901 60.37C86.1901 65.26 89.3701 68.22 92.8601 68.22C94.6601 68.2 96.3701 67.46 97.6101 66.16C99.6601 63.95 100.06 60.67 98.6101 58.03C98.0601 56.99 97.1201 56.19 96.0001 55.81Z" fill="#42312C" style="fill:#42312C;fill:color(display-p3 0.2588 0.1922 0.1725);fill-opacity:1;"/>
<path d="M96.0001 55.81C89.9501 54.23 83.5601 54.47 77.6401 56.5C76.5701 56.88 76.0001 58.05 76.3801 59.12C76.7601 60.19 77.9301 60.76 79.0001 60.38C81.3701 59.92 83.7901 59.79 86.1901 59.98C86.1901 60.04 86.1901 60.37 86.1901 60.37C86.1901 65.26 89.3701 68.22 92.8601 68.22C94.6601 68.2 96.3701 67.46 97.6101 66.16C99.6601 63.95 100.06 60.67 98.6101 58.03C98.0601 56.99 97.1201 56.19 96.0001 55.81Z" fill="#42312C" style="fill:#42312C;fill:color(display-p3 0.2588 0.1922 0.1725);fill-opacity:1;"/>
<path d="M45.0601 59.18C46.4801 58.5 48.1901 59.1 48.8801 60.52C49.4101 61.63 49.1701 62.96 48.2801 63.82C46.8601 64.5 45.1501 63.9 44.4601 62.48C43.9301 61.37 44.1701 60.04 45.0601 59.18Z" fill="#555050" style="fill:#555050;fill:color(display-p3 0.3333 0.3125 0.3125);fill-opacity:1;"/>
<path d="M93.0601 59.18C94.4901 58.51 96.1901 59.12 96.8701 60.55C97.3901 61.66 97.1501 62.97 96.2701 63.82C94.8401 64.49 93.1401 63.88 92.4601 62.45C91.9401 61.35 92.1801 60.03 93.0601 59.18Z" fill="#555050" style="fill:#555050;fill:color(display-p3 0.3333 0.3125 0.3125);fill-opacity:1;"/>
<path d="M111.49 29.67C116.82 38.27 119.6 48.51 119.6 59.9C119.6 76.8 113.5 91.1 102 101.3C91.4 110.6 77 115.8 61.6 115.8C43.54 115.8 24.6 108.45 13.42 92.86C24.18 110.52 44.42 118.8 63.6 118.8C79 118.8 93.4 113.6 104 104.3C115.5 94.1 121.6 79.8 121.6 62.9C121.6 50.16 118.13 38.84 111.49 29.67Z" fill="#EB8F00" style="fill:#EB8F00;fill:color(display-p3 0.9216 0.5608 0.0000);fill-opacity:1;"/>
<path d="M111.49 29.67C116.82 38.27 119.6 48.51 119.6 59.9C119.6 76.8 113.5 91.1 102 101.3C91.4 110.6 77 115.8 61.6 115.8C43.54 115.8 24.6 108.45 13.42 92.86C24.18 110.52 44.42 118.8 63.6 118.8C79 118.8 93.4 113.6 104 104.3C115.5 94.1 121.6 79.8 121.6 62.9C121.6 50.16 118.13 38.84 111.49 29.67Z" fill="#F3B872" style="fill:#F3B872;fill:color(display-p3 0.9542 0.7229 0.4453);fill-opacity:1;"/>
<path d="M111.49 29.67C116.82 38.27 119.6 48.51 119.6 59.9C119.6 76.8 113.5 91.1 102 101.3C91.4 110.6 77 115.8 61.6 115.8C43.54 115.8 24.6 108.45 13.42 92.86C24.18 110.52 44.42 118.8 63.6 118.8C79 118.8 93.4 113.6 104 104.3C115.5 94.1 121.6 79.8 121.6 62.9C121.6 50.16 118.13 38.84 111.49 29.67Z" fill="#4A2F27" style="fill:#4A2F27;fill:color(display-p3 0.2902 0.1843 0.1529);fill-opacity:1;"/>
<defs>
<radialGradient id="paint0_radial_169_10650" cx="0" cy="0" r="1" gradientUnits="userSpaceOnUse" gradientTransform="translate(63.6 62.9) scale(56.9597 56.9597)">
<stop offset="0.5" stop-color="#FDE030" style="stop-color:#FDE030;stop-color:color(display-p3 0.9922 0.8784 0.1882);stop-opacity:1;"/>
<stop offset="0.92" stop-color="#F7C02B" style="stop-color:#F7C02B;stop-color:color(display-p3 0.9686 0.7529 0.1686);stop-opacity:1;"/>
<stop offset="1" stop-color="#F4A223" style="stop-color:#F4A223;stop-color:color(display-p3 0.9569 0.6353 0.1373);stop-opacity:1;"/>
</radialGradient>
<radialGradient id="paint1_radial_169_10650" cx="0" cy="0" r="1" gradientUnits="userSpaceOnUse" gradientTransform="translate(38.599 34.5377) rotate(-43.2082) scale(102.024 101.825)">
<stop offset="0.3533" stop-color="#F9DDBD" style="stop-color:#F9DDBD;stop-color:color(display-p3 0.9765 0.8667 0.7412);stop-opacity:1;"/>
<stop offset="0.8723" stop-color="#FFD29C" style="stop-color:#FFD29C;stop-color:color(display-p3 1.0000 0.8235 0.6118);stop-opacity:1;"/>
</radialGradient>
<radialGradient id="paint2_radial_169_10650" cx="0" cy="0" r="1" gradientUnits="userSpaceOnUse" gradientTransform="translate(38.599 34.5377) rotate(-43.2082) scale(102.024 101.825)">
<stop offset="0.3533" stop-color="#70534A" style="stop-color:#70534A;stop-color:color(display-p3 0.4392 0.3255 0.2902);stop-opacity:1;"/>
<stop offset="0.8723" stop-color="#5C4037" style="stop-color:#5C4037;stop-color:color(display-p3 0.3608 0.2510 0.2157);stop-opacity:1;"/>
</radialGradient>
<radialGradient id="paint3_radial_169_10650" cx="0" cy="0" r="1" gradientUnits="userSpaceOnUse" gradientTransform="translate(38.599 34.5377) rotate(-43.2082) scale(102.024 101.825)">
<stop offset="0.3533" stop-color="#A56C43" style="stop-color:#A56C43;stop-color:color(display-p3 0.6471 0.4235 0.2627);stop-opacity:1;"/>
<stop offset="0.8723" stop-color="#8D5738" style="stop-color:#8D5738;stop-color:color(display-p3 0.5529 0.3412 0.2196);stop-opacity:1;"/>
</radialGradient>
</defs>
</svg>
