<svg width="128" height="128" viewBox="0 0 128 128" fill="none" xmlns="http://www.w3.org/2000/svg">
<path d="M63.6001 118.8C35.7001 118.8 5.6001 101.3 5.6001 62.9C5.6001 24.5 35.7001 7 63.6001 7C79.1001 7 93.4001 12.1 104 21.4C115.5 31.6 121.6 46 121.6 62.9C121.6 79.8 115.5 94.1 104 104.3C93.4001 113.6 79.0001 118.8 63.6001 118.8Z" fill="url(#paint0_radial_402_147)" style=""/>
<path d="M63.6001 118.8C35.7001 118.8 5.6001 101.3 5.6001 62.9C5.6001 24.5 35.7001 7 63.6001 7C79.1001 7 93.4001 12.1 104 21.4C115.5 31.6 121.6 46 121.6 62.9C121.6 79.8 115.5 94.1 104 104.3C93.4001 113.6 79.0001 118.8 63.6001 118.8Z" fill="url(#paint1_radial_402_147)" style=""/>
<path d="M111.49 29.6699C116.82 38.2699 119.6 48.5099 119.6 59.8999C119.6 76.7999 113.5 91.0999 102 101.3C91.4002 110.6 77.0002 115.8 61.6002 115.8C43.5402 115.8 24.6002 108.45 13.4202 92.8599C24.1802 110.52 44.4202 118.8 63.6002 118.8C79.0002 118.8 93.4002 113.6 104 104.3C115.5 94.0999 121.6 79.7999 121.6 62.8999C121.6 50.1599 118.13 38.8399 111.49 29.6699Z" fill="#018CE3" style="fill:#018CE3;fill:color(display-p3 0.0039 0.5490 0.8902);fill-opacity:1;"/>
<path d="M70.18 19.1898C76.7 19.9998 88.11 21.6298 85.66 11.8598C83.21 2.08976 66.93 5.33976 60.41 4.52976C53.89 3.71976 43.3 1.26976 36.78 5.33976C30.26 9.40976 25.38 19.1898 20.49 20.8198C15.6 22.4498 13.16 22.4498 10.31 26.9298C7.75998 30.9398 5.22998 38.5698 6.99998 43.9998C8.76998 49.4298 15.75 44.7498 26.25 33.2498" fill="url(#paint2_linear_402_147)" style=""/>
<path d="M30.94 66.2996C30.82 65.8396 30.34 65.5596 29.88 65.6796H29.87L27.7 66.2596C27.16 66.3796 26.59 66.2996 26.09 66.0496L22.29 63.8596C22.05 63.7696 21.92 63.4996 22.01 63.2596C22.06 63.1296 22.16 63.0296 22.29 62.9796L26.09 60.7796C26.59 60.5296 27.15 60.4596 27.7 60.5696L29.87 61.1596C30.34 61.3096 30.84 61.0496 30.99 60.5796C30.99 60.5696 31 60.5496 31 60.5396L31.34 59.2796C31.47 58.8096 31.19 58.3296 30.72 58.1996L29.4 57.8496C28.94 57.7296 28.66 57.2496 28.78 56.7896V56.7796L29.13 55.4696C29.25 54.9996 28.98 54.5196 28.51 54.3896L27.19 53.9996C26.72 53.8696 26.24 54.1496 26.11 54.6196L25.54 56.7996C25.37 57.3296 25.01 57.7896 24.54 58.0896L20.74 60.2796C20.33 60.5296 19.99 60.2796 19.99 59.8496V55.5196C20.02 54.9596 20.23 54.4396 20.6 54.0196L22.2 52.4296C22.54 52.0896 22.54 51.5296 22.2 51.1896L21.26 50.2496C20.92 49.9096 20.37 49.9096 20.03 50.2496L19.03 51.2496C18.69 51.5896 18.13 51.5896 17.79 51.2496L16.79 50.2496C16.45 49.9096 15.9 49.9096 15.56 50.2496L14.62 51.1796C14.28 51.5196 14.28 52.0796 14.62 52.4196L16.3 53.9996C16.67 54.4096 16.89 54.9396 16.92 55.4996V59.8896C16.92 60.3696 16.58 60.5696 16.16 60.3296L12.37 58.1296C11.89 57.8196 11.54 57.3496 11.37 56.8096L10.78 54.6396C10.66 54.1696 10.19 53.8896 9.72003 53.9996L8.45003 54.3396C7.98003 54.4696 7.70003 54.9496 7.83003 55.4196L8.18003 56.7396C8.30003 57.2096 8.02003 57.6796 7.56003 57.8096L6.24003 58.1596C5.77003 58.2896 5.49003 58.7696 5.61003 59.2396L6.00003 60.5496C6.13003 60.9796 6.56003 61.2396 7.00003 61.1596L9.19003 60.5696C9.74003 60.4596 10.3 60.5396 10.8 60.7896L14.65 62.9996C14.89 63.0896 15.02 63.3596 14.93 63.5996C14.88 63.7296 14.78 63.8296 14.65 63.8796L10.85 66.0796C10.35 66.3296 9.79003 66.3996 9.24003 66.2896L7.05003 65.6996C6.60003 65.5896 6.14003 65.8496 6.00003 66.2996L5.66003 67.5696C5.53003 68.0396 5.81003 68.5196 6.28003 68.6496L7.57003 68.9996C8.03003 69.1096 8.31003 69.5796 8.20003 70.0396C8.20003 70.0496 8.20003 70.0596 8.19003 70.0696L7.84003 71.3896C7.71003 71.8496 7.99003 72.3296 8.45003 72.4596H8.46003L9.73003 72.7996C10.2 72.9196 10.68 72.6496 10.81 72.1796L11.38 69.9996C11.55 69.4696 11.91 69.0196 12.38 68.7196L16.17 66.5196C16.59 66.2796 16.93 66.5196 16.93 66.9596V71.3496C16.9 71.9096 16.68 72.4296 16.31 72.8496L14.72 74.4396C14.38 74.7796 14.38 75.3396 14.72 75.6796L15.66 76.5896C16 76.9296 16.55 76.9296 16.89 76.5896L17.89 75.5896C18.23 75.2496 18.79 75.2496 19.13 75.5896L20.13 76.5896C20.47 76.9296 21.02 76.9296 21.36 76.5896L22.3 75.6496C22.64 75.3096 22.64 74.7496 22.3 74.4096L20.7 72.8196C20.33 72.3996 20.12 71.8796 20.09 71.3196V66.9296C20.09 66.4496 20.43 66.2496 20.84 66.4996L24.64 68.6896C25.11 68.9996 25.47 69.4596 25.64 69.9996L26.22 72.1696C26.35 72.6396 26.83 72.9196 27.3 72.7896L28.57 72.4496C29.03 72.3396 29.31 71.8696 29.2 71.4096C29.2 71.3996 29.2 71.3896 29.19 71.3796L28.84 70.0596C28.72 69.6296 28.94 69.1696 29.36 68.9996L30.68 68.6496C31.14 68.5396 31.42 68.0696 31.31 67.6096C31.31 67.5996 31.31 67.5896 31.3 67.5796L30.94 66.2996Z" fill="#B7E4FF" style="fill:#B7E4FF;fill:color(display-p3 0.7176 0.8941 1.0000);fill-opacity:1;"/>
<path d="M121.53 48.64C121.69 48.11 121.4 47.55 120.87 47.39C120.86 47.39 120.85 47.38 120.83 47.38L118.31 46.68C117.69 46.48 117.17 46.07 116.82 45.52L114.32 41.08C114.13 40.86 114.15 40.53 114.37 40.33L114.38 40.32C114.51 40.21 114.68 40.17 114.84 40.2H119.93C120.58 40.24 121.19 40.5 121.67 40.93L123.5 42.8C123.88 43.2 124.52 43.21 124.91 42.83C124.92 42.82 124.93 42.81 124.94 42.8L126 41.8C126.4 41.42 126.42 40.79 126.04 40.39C126.03 40.38 126.02 40.37 126 40.35L124.89 39.22C124.49 38.84 124.48 38.2 124.86 37.81C124.87 37.8 124.88 37.79 124.89 37.78L126.02 36.67C126.42 36.29 126.44 35.66 126.06 35.26C126.05 35.25 126.04 35.24 126.02 35.22L125 34.13C124.62 33.73 123.98 33.72 123.59 34.1C123.58 34.11 123.57 34.12 123.56 34.13L121.72 36C121.23 36.42 120.62 36.67 119.97 36.7L114.87 36.65C114.31 36.65 114.09 36.25 114.37 35.77L117 31.37C117.36 30.83 117.89 30.43 118.5 30.24L121.04 29.59C121.58 29.46 121.91 28.92 121.78 28.38C121.78 28.37 121.77 28.36 121.77 28.35L121.39 26.85C121.26 26.31 120.72 25.98 120.18 26.11C120.17 26.11 120.16 26.12 120.15 26.12L118.62 26.51C118.09 26.65 117.54 26.34 117.4 25.8C117.4 25.79 117.4 25.79 117.39 25.78L116.99 24.26C116.86 23.72 116.32 23.39 115.78 23.52C115.77 23.52 115.76 23.53 115.75 23.53L114.27 23.91C113.73 24.03 113.4 24.57 113.52 25.11C113.52 25.12 113.53 25.14 113.53 25.15L114.19 27.69C114.31 28.33 114.22 28.98 113.92 29.56L111.28 34C110.99 34.48 110.53 34.48 110.28 34L107.77 29.56C107.48 28.97 107.41 28.3 107.56 27.66L108.26 25.14C108.42 24.61 108.12 24.05 107.59 23.89C107.58 23.89 107.56 23.88 107.55 23.88L106.08 23.48C105.55 23.32 104.99 23.61 104.83 24.14C104.83 24.15 104.82 24.16 104.82 24.18L104.39 25.7C104.25 26.24 103.71 26.56 103.17 26.42C103.16 26.42 103.14 26.41 103.13 26.41L101.61 25.98C101.08 25.82 100.52 26.12 100.36 26.65C100.36 26.66 100.35 26.68 100.35 26.69L99.94 28.16C99.78 28.69 100.08 29.25 100.61 29.41C100.63 29.42 100.64 29.42 100.66 29.42L103.2 30.13C103.82 30.34 104.34 30.75 104.69 31.3L107.19 35.74C107.38 35.97 107.36 36.31 107.13 36.5C107 36.61 106.83 36.65 106.67 36.62H101.58C100.93 36.58 100.32 36.32 99.84 35.88L98 33.89C97.62 33.49 96.98 33.48 96.59 33.86C96.58 33.87 96.57 33.88 96.56 33.89L95.44 35C95.04 35.38 95.03 36.02 95.41 36.41C95.42 36.42 95.43 36.43 95.44 36.44L96.55 37.57C96.95 37.95 96.96 38.59 96.58 38.98C96.57 38.99 96.56 39 96.55 39.01L95.4 40.08C95 40.46 94.99 41.1 95.37 41.49C95.38 41.5 95.39 41.51 95.4 41.52L96.47 42.61C96.85 43.01 97.49 43.02 97.88 42.64C97.89 42.63 97.9 42.62 97.91 42.61L99.77 40.76C100.26 40.34 100.87 40.09 101.52 40.06L106.62 40.11C107.18 40.11 107.4 40.51 107.12 40.99L104.53 45.39C104.17 45.94 103.63 46.34 103 46.54L100.46 47.19C99.92 47.32 99.59 47.86 99.72 48.4C99.72 48.41 99.73 48.42 99.73 48.43L100.13 49.9C100.26 50.44 100.8 50.77 101.34 50.64C101.35 50.64 101.36 50.63 101.37 50.63L102.9 50.23C103.43 50.09 103.98 50.41 104.12 50.94C104.12 50.95 104.13 50.96 104.13 50.97L104.53 52.49C104.66 53.03 105.2 53.36 105.74 53.23C105.75 53.23 105.76 53.22 105.77 53.22L107.25 52.84C107.79 52.72 108.13 52.19 108.01 51.65C108.01 51.63 108 51.62 108 51.6L107.34 49.06C107.22 48.43 107.31 47.77 107.61 47.2L110.2 42.8C110.49 42.32 110.95 42.32 111.2 42.8L113.7 47.24C113.99 47.83 114.07 48.5 113.92 49.14L113.22 51.66C113.06 52.19 113.37 52.75 113.9 52.9C113.91 52.9 113.92 52.91 113.93 52.91L115.4 53.31C115.93 53.47 116.49 53.18 116.65 52.65C116.65 52.64 116.66 52.63 116.66 52.61L117.09 51.09C117.23 50.55 117.77 50.23 118.31 50.37C118.32 50.37 118.34 50.38 118.35 50.38L119.87 50.81C120.4 50.97 120.96 50.67 121.12 50.14C121.12 50.13 121.13 50.11 121.13 50.1L121.53 48.64Z" fill="#B7E4FF" style="fill:#B7E4FF;fill:color(display-p3 0.7176 0.8941 1.0000);fill-opacity:1;"/>
<path d="M56.89 116.1C56.71 115.82 56.33 115.74 56.05 115.92L54.76 116.78C54.43 116.98 54.04 117.05 53.66 117L50.66 116.4C50.48 116.39 50.34 116.25 50.35 116.07C50.35 115.98 50.4 115.89 50.47 115.83L52.47 113.56C52.74 113.29 53.09 113.11 53.47 113.07L55.02 112.97C55.35 112.95 55.6 112.68 55.58 112.35C55.58 112.34 55.58 112.33 55.58 112.33V111.43C55.56 111.1 55.28 110.84 54.95 110.86H54.94L54 110.92C53.67 110.94 53.38 110.69 53.36 110.36L53.3 109.42C53.28 109.09 52.99 108.84 52.66 108.86H51.76C51.43 108.88 51.18 109.17 51.2 109.5L51.3 111.05C51.31 111.43 51.18 111.81 50.94 112.11L48.94 114.38C48.85 114.53 48.65 114.58 48.5 114.49C48.42 114.44 48.36 114.36 48.35 114.26L47.35 111.41C47.25 111.04 47.28 110.65 47.43 110.3L48.12 108.91C48.27 108.61 48.15 108.25 47.86 108.1C47.86 108.1 47.86 108.1 47.85 108.1L47.03 107.69C46.73 107.55 46.38 107.67 46.22 107.96L45.81 108.8C45.66 109.1 45.3 109.22 45.01 109.07C45.01 109.07 45.01 109.07 45 109.07L44.17 108.66C43.87 108.51 43.51 108.63 43.36 108.92C43.36 108.92 43.36 108.92 43.36 108.93L42.95 109.74C42.81 110.04 42.93 110.4 43.23 110.55L44.62 111.24C44.95 111.43 45.21 111.73 45.35 112.09L46.35 114.95C46.46 115.27 46.28 115.47 45.95 115.4L42.95 114.8C42.58 114.7 42.25 114.47 42.02 114.16L41.16 112.87C40.97 112.6 40.61 112.52 40.33 112.7L39.58 113.21C39.3 113.39 39.23 113.76 39.41 114.04L39.93 114.83C40.11 115.11 40.04 115.48 39.76 115.67L38.98 116.18C38.7 116.36 38.62 116.74 38.8 117.02L39.3 117.78C39.49 118.05 39.86 118.12 40.14 117.94L41.45 117.08C41.78 116.89 42.16 116.81 42.54 116.87L45.54 117.47C45.72 117.47 45.86 117.61 45.86 117.79C45.86 117.89 45.81 117.98 45.74 118.04L43.74 120.31C43.47 120.58 43.12 120.75 42.74 120.8L41.17 120.9C40.84 120.92 40.59 121.21 40.61 121.54V122.44C40.63 122.78 40.92 123.03 41.26 123.01L42.19 122.95C42.52 122.93 42.81 123.18 42.84 123.51L42.9 124.45C42.92 124.78 43.21 125.03 43.54 125.01H44.44C44.77 124.99 45.03 124.71 45.01 124.38V124.37L44.9 122.82C44.9 122.44 45.03 122.06 45.26 121.76L47.26 119.49C47.35 119.34 47.55 119.29 47.7 119.38C47.78 119.43 47.84 119.51 47.85 119.61L48.85 122.48C48.95 122.85 48.92 123.24 48.77 123.59L48.08 125C47.93 125.3 48.05 125.66 48.34 125.81C48.34 125.81 48.34 125.81 48.35 125.81L49.16 126.2C49.46 126.34 49.81 126.22 49.97 125.93L50.38 125.09C50.53 124.79 50.89 124.67 51.18 124.82C51.18 124.82 51.18 124.82 51.19 124.82L52.03 125.23C52.32 125.38 52.68 125.26 52.82 124.97C52.82 124.97 52.82 124.96 52.83 124.96L53.24 124.15C53.39 123.85 53.27 123.49 52.98 123.34C52.98 123.34 52.98 123.34 52.97 123.34L51.58 122.65C51.25 122.46 50.99 122.16 50.85 121.81L49.85 118.94C49.75 118.63 49.93 118.42 50.25 118.49L53.25 119.09C53.63 119.18 53.96 119.41 54.18 119.73L55 121C55.18 121.28 55.56 121.36 55.84 121.18L56.59 120.67C56.86 120.49 56.95 120.13 56.77 119.86C56.77 119.85 56.76 119.85 56.76 119.84L56.24 119.06C56.06 118.78 56.14 118.41 56.41 118.22L57.19 117.7C57.47 117.52 57.54 117.15 57.36 116.87L56.89 116.1Z" fill="#B7E4FF" style="fill:#B7E4FF;fill:color(display-p3 0.7176 0.8941 1.0000);fill-opacity:1;"/>
<path d="M44 45.9399C39.81 45.9399 36 49.4799 36 55.3599C36 61.2399 39.81 64.7699 44 64.7699C48.2 64.7699 52 61.2299 52 55.3599C52 49.4899 48.24 45.9399 44 45.9399Z" fill="#0D1942" style="fill:#0D1942;fill:color(display-p3 0.0510 0.0967 0.2588);fill-opacity:1;"/>
<path d="M43.65 49.8696C42.23 49.1896 40.52 49.7896 39.83 51.2096C39.3 52.3196 39.54 53.6496 40.43 54.5096C41.85 55.1896 43.56 54.5896 44.25 53.1696C44.78 52.0596 44.54 50.7296 43.65 49.8696Z" fill="#80A0AE" style="fill:#80A0AE;fill:color(display-p3 0.5011 0.6287 0.6833);fill-opacity:1;"/>
<path d="M82.4001 45.9399C78.2101 45.9399 74.4001 49.4799 74.4001 55.3599C74.4001 61.2399 78.2101 64.7699 82.4001 64.7699C86.5901 64.7699 90.4001 61.2299 90.4001 55.3599C90.4001 49.4899 86.5901 45.9399 82.4001 45.9399Z" fill="#0D1942" style="fill:#0D1942;fill:color(display-p3 0.0510 0.0967 0.2588);fill-opacity:1;"/>
<path d="M82.0001 49.8696C80.5801 49.1896 78.8701 49.7896 78.1801 51.2096C77.6501 52.3196 77.8901 53.6496 78.7801 54.5096C80.2001 55.1896 81.9101 54.5896 82.6001 53.1696C83.1301 52.0596 82.8901 50.7296 82.0001 49.8696Z" fill="#80A0AE" style="fill:#80A0AE;fill:color(display-p3 0.5011 0.6287 0.6833);fill-opacity:1;"/>
<path d="M39.3699 74.0996H89.4599C95.7799 74.0996 100.9 79.2196 100.9 85.5396V85.5496C100.9 91.8696 95.7799 96.9896 89.4599 96.9896H39.3699C33.0499 96.9896 27.9299 91.8696 27.9299 85.5496V85.5396C27.9299 79.2196 33.0499 74.0996 39.3699 74.0996Z" fill="white" style="fill:white;fill-opacity:1;"/>
<path d="M100.74 83.6699H28.1001C27.8501 84.9899 27.8501 86.3499 28.1001 87.6699H100.7C100.95 86.3499 100.95 84.9899 100.7 83.6699H100.74Z" fill="#B3B3B3" style="fill:#B3B3B3;fill:color(display-p3 0.7020 0.7020 0.7020);fill-opacity:1;"/>
<path d="M89.4602 74.0996H88.9102V96.9996H89.4602C90.3502 96.9996 91.2402 96.8896 92.1102 96.6796V74.4196C91.2402 74.2096 90.3502 74.0996 89.4602 74.0996Z" fill="#B3B3B3" style="fill:#B3B3B3;fill:color(display-p3 0.7020 0.7020 0.7020);fill-opacity:1;"/>
<path d="M65.7801 74.0996H62.5801V96.9896H65.7801V74.0996Z" fill="#B3B3B3" style="fill:#B3B3B3;fill:color(display-p3 0.7020 0.7020 0.7020);fill-opacity:1;"/>
<path d="M39.38 74.0996C38.32 74.0996 37.26 74.2496 36.24 74.5496V96.5496C37.26 96.8496 38.32 96.9996 39.38 96.9996H39.44V74.0996H39.38Z" fill="#B3B3B3" style="fill:#B3B3B3;fill:color(display-p3 0.7020 0.7020 0.7020);fill-opacity:1;"/>
<path d="M52.6099 74.0996H49.4099V96.9896H52.6099V74.0996Z" fill="#B3B3B3" style="fill:#B3B3B3;fill:color(display-p3 0.7020 0.7020 0.7020);fill-opacity:1;"/>
<path d="M78.94 74.0996H75.74V96.9896H78.94V74.0996Z" fill="#B3B3B3" style="fill:#B3B3B3;fill:color(display-p3 0.7020 0.7020 0.7020);fill-opacity:1;"/>
<path d="M100.91 85.5496C100.62 82.0296 98.7201 78.8496 95.7801 76.8996C94.3901 75.9796 92.8001 75.4096 91.1401 75.2296C89.4001 75.1396 87.6701 75.1396 85.9301 75.2296C82.3401 75.3696 78.7601 75.3996 75.1801 75.4796L64.4201 75.5596L53.6701 75.4796C50.0801 75.3996 46.5001 75.3696 42.9101 75.2296C41.1701 75.1396 39.4401 75.1396 37.7001 75.2296C36.0401 75.3996 34.4501 75.9796 33.0701 76.9096C30.1201 78.8496 28.2301 82.0296 27.9301 85.5496C27.6401 81.7696 29.2401 78.0896 32.2001 75.7196C33.7101 74.4996 35.4901 73.6696 37.3901 73.2896L38.1101 73.1496L38.8401 73.0896C39.3401 73.0896 39.7801 73.0296 40.2301 73.0196L42.9101 72.9296C46.5001 72.7896 50.0801 72.7596 53.6701 72.6796L64.4201 72.5996L75.1801 72.6896C78.7601 72.7696 82.3401 72.7996 85.9301 72.9396L88.6201 73.0196C89.0701 73.0196 89.5001 73.0196 90.0101 73.0896L90.7301 73.1596L91.4501 73.2996C93.3501 73.6696 95.1301 74.4996 96.6401 75.7196C99.6001 78.0896 101.2 81.7696 100.91 85.5496Z" fill="#018CE3" style="fill:#018CE3;fill:color(display-p3 0.0039 0.5490 0.8902);fill-opacity:1;"/>
<defs>
<radialGradient id="paint0_radial_402_147" cx="0" cy="0" r="1" gradientUnits="userSpaceOnUse" gradientTransform="translate(63.6001 62.8999) scale(56.9597 56.9597)">
<stop offset="0.5" stop-color="#FDE030" style="stop-color:#FDE030;stop-color:color(display-p3 0.9922 0.8784 0.1882);stop-opacity:1;"/>
<stop offset="0.92" stop-color="#F7C02B" style="stop-color:#F7C02B;stop-color:color(display-p3 0.9686 0.7529 0.1686);stop-opacity:1;"/>
<stop offset="1" stop-color="#F4A223" style="stop-color:#F4A223;stop-color:color(display-p3 0.9569 0.6353 0.1373);stop-opacity:1;"/>
</radialGradient>
<radialGradient id="paint1_radial_402_147" cx="0" cy="0" r="1" gradientUnits="userSpaceOnUse" gradientTransform="translate(63.6001 62.8999) scale(56.9597 56.9597)">
<stop offset="0.16" stop-color="#40E3E7" style="stop-color:#40E3E7;stop-color:color(display-p3 0.2510 0.8902 0.9059);stop-opacity:1;"/>
<stop offset="0.51" stop-color="#3FE1E7" style="stop-color:#3FE1E7;stop-color:color(display-p3 0.2471 0.8824 0.9059);stop-opacity:1;"/>
<stop offset="0.65" stop-color="#39DAE7" style="stop-color:#39DAE7;stop-color:color(display-p3 0.2235 0.8549 0.9059);stop-opacity:1;"/>
<stop offset="0.77" stop-color="#30CDE6" style="stop-color:#30CDE6;stop-color:color(display-p3 0.1882 0.8039 0.9020);stop-opacity:1;"/>
<stop offset="0.86" stop-color="#23BCE5" style="stop-color:#23BCE5;stop-color:color(display-p3 0.1373 0.7373 0.8980);stop-opacity:1;"/>
<stop offset="0.94" stop-color="#13A5E4" style="stop-color:#13A5E4;stop-color:color(display-p3 0.0745 0.6471 0.8941);stop-opacity:1;"/>
<stop offset="1" stop-color="#018CE3" style="stop-color:#018CE3;stop-color:color(display-p3 0.0039 0.5490 0.8902);stop-opacity:1;"/>
</radialGradient>
<linearGradient id="paint2_linear_402_147" x1="38.0985" y1="7.26036" x2="44.5985" y2="23.5104" gradientUnits="userSpaceOnUse">
<stop stop-color="white" style="stop-color:white;stop-opacity:1;"/>
<stop offset="0.21" stop-color="#F6FCFF" style="stop-color:#F6FCFF;stop-color:color(display-p3 0.9647 0.9882 1.0000);stop-opacity:1;"/>
<stop offset="0.56" stop-color="#DEF3FF" style="stop-color:#DEF3FF;stop-color:color(display-p3 0.8706 0.9529 1.0000);stop-opacity:1;"/>
<stop offset="1" stop-color="#B7E4FF" style="stop-color:#B7E4FF;stop-color:color(display-p3 0.7176 0.8941 1.0000);stop-opacity:1;"/>
</linearGradient>
</defs>
</svg>
