<svg width="128" height="129" viewBox="0 0 128 129" fill="none" xmlns="http://www.w3.org/2000/svg">
<g filter="url(#filter0_i_124_392)">
<rect x="15" y="16.25" width="98" height="95" rx="18" fill="#C4C4C4" style="fill:#C4C4C4;fill:color(display-p3 0.7686 0.7686 0.7686);fill-opacity:1;"/>
<rect x="15" y="16.25" width="98" height="95" rx="18" fill="url(#paint0_linear_124_392)" style=""/>
<rect x="15" y="16.25" width="98" height="95" rx="18" fill="url(#paint1_radial_124_392)" style=""/>
</g>
<path d="M116 4.25H12C7.58 4.25 4 7.83 4 12.25V116.25C4 120.67 7.58 124.25 12 124.25H116C120.42 124.25 124 120.67 124 116.25V12.25C124 7.83 120.42 4.25 116 4.25Z" fill="#BDBDBD" style="fill:#BDBDBD;fill:color(display-p3 0.7412 0.7412 0.7412);fill-opacity:1;"/>
<path d="M109.7 4.25H11.5C7.37002 4.28 4.03002 7.62 4.00002 11.75V109.65C3.99002 113.79 7.34002 117.14 11.48 117.15C11.49 117.15 11.49 117.15 11.5 117.15H109.6C113.74 117.16 117.09 113.81 117.1 109.67C117.1 109.66 117.1 109.66 117.1 109.65V11.75C117.19 7.7 113.97 4.34 109.92 4.25C109.85 4.25 109.77 4.25 109.7 4.25Z" fill="#E0E0E0" style="fill:#E0E0E0;fill:color(display-p3 0.8784 0.8784 0.8784);fill-opacity:1;"/>
<path d="M39.7001 13.15C39.7001 10.85 38.1001 10.15 28.9001 10.45C21.2001 10.75 17.4001 11.65 15.1001 14.45C12.8001 17.25 12.2001 22.95 12.1001 29.75C12.1001 34.55 12.1001 39.05 14.6001 39.05C18.0001 39.05 18.0001 31.15 20.8001 26.75C26.2001 18.05 39.7001 16.15 39.7001 13.15Z" fill="white" style="fill:white;fill-opacity:1;"/>
<circle cx="91" cy="89.25" r="11" fill="#54646D" style="fill:#54646D;fill:color(display-p3 0.3294 0.3922 0.4275);fill-opacity:1;"/>
<circle cx="37" cy="38.25" r="11" fill="#54646D" style="fill:#54646D;fill:color(display-p3 0.3294 0.3922 0.4275);fill-opacity:1;"/>
<defs>
<filter id="filter0_i_124_392" x="15" y="16.25" width="98" height="95" filterUnits="userSpaceOnUse" color-interpolation-filters="sRGB">
<feFlood flood-opacity="0" result="BackgroundImageFix"/>
<feBlend mode="normal" in="SourceGraphic" in2="BackgroundImageFix" result="shape"/>
<feColorMatrix in="SourceAlpha" type="matrix" values="0 0 0 0 0 0 0 0 0 0 0 0 0 0 0 0 0 0 127 0" result="hardAlpha"/>
<feOffset/>
<feGaussianBlur stdDeviation="2.5"/>
<feComposite in2="hardAlpha" operator="arithmetic" k2="-1" k3="1"/>
<feColorMatrix type="matrix" values="0 0 0 0 0 0 0 0 0 0 0 0 0 0 0 0 0 0 0.25 0"/>
<feBlend mode="normal" in2="shape" result="effect1_innerShadow_124_392"/>
</filter>
<linearGradient id="paint0_linear_124_392" x1="64" y1="-16.4063" x2="64" y2="103.616" gradientUnits="userSpaceOnUse">
<stop offset="0.5" stop-color="#FDE030" style="stop-color:#FDE030;stop-color:color(display-p3 0.9922 0.8784 0.1882);stop-opacity:1;"/>
<stop offset="0.807964" stop-color="#F7C02B" style="stop-color:#F7C02B;stop-color:color(display-p3 0.9686 0.7529 0.1686);stop-opacity:1;"/>
<stop offset="1" stop-color="#F4A223" style="stop-color:#F4A223;stop-color:color(display-p3 0.9569 0.6353 0.1373);stop-opacity:1;"/>
</linearGradient>
<radialGradient id="paint1_radial_124_392" cx="0" cy="0" r="1" gradientUnits="userSpaceOnUse" gradientTransform="translate(65.0818 99.9528) scale(60.2792 94.4626)">
<stop offset="0.1976" stop-color="#FAFAFA" style="stop-color:#FAFAFA;stop-color:color(display-p3 0.9804 0.9804 0.9804);stop-opacity:1;"/>
<stop offset="0.5158" stop-color="#F6F6F6" style="stop-color:#F6F6F6;stop-color:color(display-p3 0.9647 0.9647 0.9647);stop-opacity:1;"/>
<stop offset="0.8191" stop-color="#EBEBEB" style="stop-color:#EBEBEB;stop-color:color(display-p3 0.9216 0.9216 0.9216);stop-opacity:1;"/>
<stop offset="1" stop-color="#E0E0E0" style="stop-color:#E0E0E0;stop-color:color(display-p3 0.8784 0.8784 0.8784);stop-opacity:1;"/>
</radialGradient>
</defs>
</svg>
