<svg width="128" height="129" viewBox="0 0 128 129" fill="none" xmlns="http://www.w3.org/2000/svg">
<path d="M110.47 59.52C119.98 34.69 114.12 15.69 110.76 10.24C109.43 8.08001 106.87 7.48001 104.51 8.22001C98.2901 10.18 81.5001 23.9 74.0801 43.1" fill="#FFC022" style="fill:#FFC022;fill:color(display-p3 1.0000 0.7529 0.1333);fill-opacity:1;"/>
<path d="M17.5301 59.52C8.02013 34.69 13.8801 15.69 17.2401 10.24C18.5701 8.08001 21.1301 7.48001 23.4901 8.22001C29.7101 10.18 46.5001 23.9 53.9201 43.1" fill="#FFC022" style="fill:#FFC022;fill:color(display-p3 1.0000 0.7529 0.1333);fill-opacity:1;"/>
<path d="M114.11 71.26C112.31 45.28 94.4401 26.8 64.0001 26.8C33.5601 26.8 15.6901 45.28 13.8901 71.26C12.8401 86.4 18.9401 99.27 30.9801 107.47C30.9801 107.47 43.1901 117.35 64.0001 117.61C84.8101 117.35 97.0201 107.47 97.0201 107.47C109.05 99.27 115.16 86.4 114.11 71.26Z" fill="#FFC022" style="fill:#FFC022;fill:color(display-p3 1.0000 0.7529 0.1333);fill-opacity:1;"/>
<path opacity="0.47" d="M54.1201 45.52C55.2501 46.48 57.5401 46.34 58.8701 44.8C60.4801 42.93 62.1601 36.63 61.1101 26.89C56.4401 27.06 52.0201 27.73 47.9001 28.86C51.2301 34.32 52.0301 43.74 54.1201 45.52Z" fill="#FF7043" style="fill:#FF7043;fill:color(display-p3 1.0000 0.4392 0.2627);fill-opacity:1;"/>
<path opacity="0.47" d="M73.88 45.52C72.75 46.48 70.46 46.34 69.13 44.8C67.52 42.93 65.84 36.63 66.89 26.89C71.56 27.06 75.98 27.73 80.1 28.86C76.77 34.32 75.97 43.74 73.88 45.52Z" fill="#FF7043" style="fill:#FF7043;fill:color(display-p3 1.0000 0.4392 0.2627);fill-opacity:1;"/>
<path d="M2.40015 70.92C2.40015 70.92 11.7101 69.23 22.4301 74.87" stroke="#9E9E9E" style="stroke:#9E9E9E;stroke:color(display-p3 0.6196 0.6196 0.6196);stroke-opacity:1;" stroke-width="3" stroke-miterlimit="10" stroke-linecap="round"/>
<path d="M2.31006 83.65C2.31006 83.65 10.5201 79.93 21.5501 81.89" stroke="#9E9E9E" style="stroke:#9E9E9E;stroke:color(display-p3 0.6196 0.6196 0.6196);stroke-opacity:1;" stroke-width="3" stroke-miterlimit="10" stroke-linecap="round"/>
<path d="M5.5 94.87C5.5 94.87 13.32 89.69 23.25 88.81" stroke="#9E9E9E" style="stroke:#9E9E9E;stroke:color(display-p3 0.6196 0.6196 0.6196);stroke-opacity:1;" stroke-width="3" stroke-miterlimit="10" stroke-linecap="round"/>
<path d="M125.17 68.84C125.17 68.84 115.81 67.46 105.29 73.46" stroke="#9E9E9E" style="stroke:#9E9E9E;stroke:color(display-p3 0.6196 0.6196 0.6196);stroke-opacity:1;" stroke-width="3" stroke-miterlimit="10" stroke-linecap="round"/>
<path d="M125.69 81.56C125.69 81.56 117.36 78.12 106.4 80.45" stroke="#9E9E9E" style="stroke:#9E9E9E;stroke:color(display-p3 0.6196 0.6196 0.6196);stroke-opacity:1;" stroke-width="3" stroke-miterlimit="10" stroke-linecap="round"/>
<path d="M122.88 92.89C122.88 92.89 114.89 87.97 104.94 87.44" stroke="#9E9E9E" style="stroke:#9E9E9E;stroke:color(display-p3 0.6196 0.6196 0.6196);stroke-opacity:1;" stroke-width="3" stroke-miterlimit="10" stroke-linecap="round"/>
<path d="M55.9599 77.69C55.9099 74.83 60.0199 73.45 63.9099 73.39C67.7999 73.32 71.9799 74.59 72.0299 77.45C72.0799 80.31 67.1699 84.09 64.0799 84.09C60.9899 84.09 56.0099 80.55 55.9599 77.69Z" fill="black" style="fill:black;fill-opacity:1;"/>
<path d="M71.89 88.85C71.99 88.87 72.09 88.89 72.2 88.91C73.5 89.15 74.7 89.35 75.9 90.01C76.06 90.1 76.24 90.21 76.3 90.4C76.37 90.59 76.3 90.81 76.23 91C75.8 92.03 75 92.8 74.2 93.5C71.04 96.22 67.2 98.28 63.22 98.04C59.78 97.84 56.46 95.83 54.42 92.73C54.32 92.58 54.23 92.42 54.22 92.24C54.21 92.05 54.3 91.87 54.4 91.72C54.99 90.83 55.98 90.43 56.87 89.96C58.42 89.16 59.84 88.05 61.05 86.7C61.61 86.08 62.14 85.4 62.87 85.06C64.16 84.46 64.68 85.53 65.57 86.23C66.57 87.01 67.84 87.65 69.02 87.99C69.98 88.26 70.94 88.64 71.89 88.85Z" fill="#EF7F9D" style="fill:#EF7F9D;fill:color(display-p3 0.9373 0.4980 0.6157);fill-opacity:1;"/>
<path d="M77.1701 89.36C77.1701 89.36 72.7501 98.79 64.2701 98.79C56.1401 98.79 51.3701 89.36 51.3701 89.36" stroke="black" style="stroke:black;stroke-opacity:1;" stroke-width="3.7747" stroke-miterlimit="10"/>
<path d="M40.77 85.37C40.77 85.37 44.81 90.29 52.7 90.29C62.2 90.29 64.63 79.81 64.63 79.81" stroke="black" style="stroke:black;stroke-opacity:1;" stroke-width="4" stroke-miterlimit="10" stroke-linecap="round"/>
<path d="M87.2301 85.37C87.2301 85.37 83.1901 90.29 75.3001 90.29C65.8001 90.29 63.3701 79.81 63.3701 79.81" stroke="black" style="stroke:black;stroke-opacity:1;" stroke-width="4" stroke-miterlimit="10" stroke-linecap="round"/>
<path d="M92.1601 36.73C90.6201 35.44 90.66 33.36 91.56 31.57C93.72 27.26 98.8901 22.79 100.72 21.34C103.72 18.96 106.04 18.16 106.93 21.99C108.58 29.07 108.45 38.68 106.68 43.98C106.06 45.85 104.14 46.84 102.66 45.55L92.1601 36.73Z" fill="#FFD1D1" style="fill:#FFD1D1;fill:color(display-p3 1.0000 0.8196 0.8196);fill-opacity:1;"/>
<path d="M35.8401 36.73C37.3801 35.44 37.3401 33.36 36.4401 31.57C34.2801 27.26 29.1101 22.79 27.2801 21.34C24.2801 18.96 21.9601 18.16 21.0701 21.99C19.4201 29.07 19.5501 38.68 21.3201 43.98C21.9401 45.85 23.8601 46.84 25.3401 45.55L35.8401 36.73Z" fill="#FFD1D1" style="fill:#FFD1D1;fill:color(display-p3 1.0000 0.8196 0.8196);fill-opacity:1;"/>
<path d="M32.5599 69.76C32.2599 69.76 31.9599 69.7 31.6699 69.57C30.5499 69.08 30.0299 67.77 30.5299 66.65C30.8799 65.85 34.1299 58.8 39.8799 58.8C45.5599 58.8 49.0499 65.54 49.4299 66.31C49.9699 67.41 49.5199 68.74 48.4199 69.28C47.3199 69.82 46.2499 69.16 45.4499 68.27C44.4799 67.19 42.3699 64.77 39.8799 64.77C37.3799 64.77 35.2999 67.36 34.5999 68.42C34.0899 69.19 33.4099 69.76 32.5599 69.76Z" fill="black" style="fill:black;fill-opacity:1;"/>
<path d="M95.4401 69.76C95.7401 69.76 96.0401 69.7 96.3301 69.57C97.4501 69.08 97.9701 67.77 97.4701 66.65C97.1201 65.85 93.8701 58.8 88.1201 58.8C82.4401 58.8 78.9501 65.54 78.5701 66.31C78.0301 67.41 78.4801 68.74 79.5801 69.28C80.6801 69.82 81.7501 69.16 82.5501 68.27C83.5201 67.19 85.6301 64.77 88.1201 64.77C90.6201 64.77 92.7001 67.36 93.4001 68.42C93.9101 69.19 94.5901 69.76 95.4401 69.76Z" fill="black" style="fill:black;fill-opacity:1;"/>
</svg>
