<svg width="128" height="128" viewBox="0 0 128 128" fill="none" xmlns="http://www.w3.org/2000/svg">
<path d="M63.5999 118.8C35.6999 118.8 5.59985 101.3 5.59985 62.9C5.59985 24.5 35.6999 7 63.5999 7C79.0999 7 93.3999 12.1 104 21.4C115.5 31.6 121.6 46 121.6 62.9C121.6 79.8 115.5 94.1 104 104.3C93.3999 113.6 78.9999 118.8 63.5999 118.8Z" fill="url(#paint0_radial_169_13022)" style=""/>
<path d="M63.5999 118.8C35.6999 118.8 5.59985 101.3 5.59985 62.9C5.59985 24.5 35.6999 7 63.5999 7C79.0999 7 93.3999 12.1 104 21.4C115.5 31.6 121.6 46 121.6 62.9C121.6 79.8 115.5 94.1 104 104.3C93.3999 113.6 78.9999 118.8 63.5999 118.8Z" fill="url(#paint1_radial_169_13022)" style=""/>
<path d="M63.5999 118.8C35.6999 118.8 5.59985 101.3 5.59985 62.9C5.59985 24.5 35.6999 7 63.5999 7C79.0999 7 93.3999 12.1 104 21.4C115.5 31.6 121.6 46 121.6 62.9C121.6 79.8 115.5 94.1 104 104.3C93.3999 113.6 78.9999 118.8 63.5999 118.8Z" fill="url(#paint2_radial_169_13022)" style=""/>
<path d="M63.5999 118.8C35.6999 118.8 5.59985 101.3 5.59985 62.9C5.59985 24.5 35.6999 7 63.5999 7C79.0999 7 93.3999 12.1 104 21.4C115.5 31.6 121.6 46 121.6 62.9C121.6 79.8 115.5 94.1 104 104.3C93.3999 113.6 78.9999 118.8 63.5999 118.8Z" fill="url(#paint3_radial_169_13022)" style=""/>
<path d="M63.5999 118.8C35.6999 118.8 5.59985 101.3 5.59985 62.9C5.59985 24.5 35.6999 7 63.5999 7C79.0999 7 93.3999 12.1 104 21.4C115.5 31.6 121.6 46 121.6 62.9C121.6 79.8 115.5 94.1 104 104.3C93.3999 113.6 78.9999 118.8 63.5999 118.8Z" fill="url(#paint4_radial_169_13022)" style=""/>
<path d="M111.49 29.67C116.82 38.27 119.6 48.51 119.6 59.9C119.6 76.8 113.5 91.1 102 101.3C91.3999 110.6 76.9999 115.8 61.5999 115.8C43.5399 115.8 24.5999 108.45 13.4199 92.86C24.1799 110.52 44.4199 118.8 63.5999 118.8C78.9999 118.8 93.3999 113.6 104 104.3C115.5 94.1 121.6 79.8 121.6 62.9C121.6 50.16 118.13 38.84 111.49 29.67Z" fill="#EB8F00" style="fill:#EB8F00;fill:color(display-p3 0.9216 0.5608 0.0000);fill-opacity:1;"/>
<path d="M111.49 29.67C116.82 38.27 119.6 48.51 119.6 59.9C119.6 76.8 113.5 91.1 102 101.3C91.3999 110.6 76.9999 115.8 61.5999 115.8C43.5399 115.8 24.5999 108.45 13.4199 92.86C24.1799 110.52 44.4199 118.8 63.5999 118.8C78.9999 118.8 93.3999 113.6 104 104.3C115.5 94.1 121.6 79.8 121.6 62.9C121.6 50.16 118.13 38.84 111.49 29.67Z" fill="#F3B872" style="fill:#F3B872;fill:color(display-p3 0.9542 0.7229 0.4453);fill-opacity:1;"/>
<path d="M111.49 29.67C116.82 38.27 119.6 48.51 119.6 59.9C119.6 76.8 113.5 91.1 102 101.3C91.3999 110.6 76.9999 115.8 61.5999 115.8C43.5399 115.8 24.5999 108.45 13.4199 92.86C24.1799 110.52 44.4199 118.8 63.5999 118.8C78.9999 118.8 93.3999 113.6 104 104.3C115.5 94.1 121.6 79.8 121.6 62.9C121.6 50.16 118.13 38.84 111.49 29.67Z" fill="#91674D" style="fill:#91674D;fill:color(display-p3 0.5686 0.4039 0.3020);fill-opacity:1;"/>
<path d="M39.4401 31.21C39.0001 30.15 37.8001 29.61 36.7201 30C35.1001 30.53 33.5401 31.22 32.0501 32.05C28.0901 34.23 24.7001 37.32 22.1601 41.05C21.4601 42 21.6401 43.33 22.5701 44.05C23.0601 44.46 23.7001 44.66 24.3401 44.58C24.8201 44.51 25.2601 44.28 25.6001 43.93C29.4401 40.17 33.7401 36.91 38.3901 34.23L38.5001 34.17C39.5601 33.6 39.9801 32.29 39.4401 31.21Z" fill="#49362E" style="fill:#49362E;fill:color(display-p3 0.2863 0.2118 0.1804);fill-opacity:1;"/>
<path d="M39.4401 31.21C39.0001 30.15 37.8001 29.61 36.7201 30C35.1001 30.53 33.5401 31.22 32.0501 32.05C28.0901 34.23 24.7001 37.32 22.1601 41.05C21.4601 42 21.6401 43.33 22.5701 44.05C23.0601 44.46 23.7001 44.66 24.3401 44.58C24.8201 44.51 25.2601 44.28 25.6001 43.93C29.4401 40.17 33.7401 36.91 38.3901 34.23L38.5001 34.17C39.5601 33.6 39.9801 32.29 39.4401 31.21Z" fill="#1A1717" style="fill:#1A1717;fill:color(display-p3 0.1020 0.0902 0.0902);fill-opacity:1;"/>
<path d="M39.4401 31.21C39.0001 30.15 37.8001 29.61 36.7201 30C35.1001 30.53 33.5401 31.22 32.0501 32.05C28.0901 34.23 24.7001 37.32 22.1601 41.05C21.4601 42 21.6401 43.33 22.5701 44.05C23.0601 44.46 23.7001 44.66 24.3401 44.58C24.8201 44.51 25.2601 44.28 25.6001 43.93C29.4401 40.17 33.7401 36.91 38.3901 34.23L38.5001 34.17C39.5601 33.6 39.9801 32.29 39.4401 31.21Z" fill="#613E31" style="fill:#613E31;fill:color(display-p3 0.3804 0.2431 0.1922);fill-opacity:1;"/>
<path d="M90.69 30.21C91.13 29.15 92.33 28.61 93.41 29C95.02 29.52 96.58 30.19 98.07 31C102.03 33.18 105.42 36.26 107.97 40C108.66 40.95 108.48 42.27 107.56 43C107.07 43.41 106.43 43.6 105.79 43.53C105.31 43.46 104.87 43.23 104.53 42.88C100.69 39.12 96.39 35.86 91.74 33.18L91.63 33.12C90.6 32.55 90.18 31.28 90.69 30.21Z" fill="#49362E" style="fill:#49362E;fill:color(display-p3 0.2863 0.2118 0.1804);fill-opacity:1;"/>
<path d="M90.69 30.21C91.13 29.15 92.33 28.61 93.41 29C95.02 29.52 96.58 30.19 98.07 31C102.03 33.18 105.42 36.26 107.97 40C108.66 40.95 108.48 42.27 107.56 43C107.07 43.41 106.43 43.6 105.79 43.53C105.31 43.46 104.87 43.23 104.53 42.88C100.69 39.12 96.39 35.86 91.74 33.18L91.63 33.12C90.6 32.55 90.18 31.28 90.69 30.21Z" fill="#1A1717" style="fill:#1A1717;fill:color(display-p3 0.1020 0.0902 0.0902);fill-opacity:1;"/>
<path d="M90.69 30.21C91.13 29.15 92.33 28.61 93.41 29C95.02 29.52 96.58 30.19 98.07 31C102.03 33.18 105.42 36.26 107.97 40C108.66 40.95 108.48 42.27 107.56 43C107.07 43.41 106.43 43.6 105.79 43.53C105.31 43.46 104.87 43.23 104.53 42.88C100.69 39.12 96.39 35.86 91.74 33.18L91.63 33.12C90.6 32.55 90.18 31.28 90.69 30.21Z" fill="#613E31" style="fill:#613E31;fill:color(display-p3 0.3804 0.2431 0.1922);fill-opacity:1;"/>
<path d="M102.07 71.62C100.67 69.09 97.6299 67.98 94.9299 69C84.6699 71.99 74.0299 73.48 63.3399 73.43C52.6499 73.48 42.0099 71.99 31.7499 69C29.0599 67.98 26.0199 69.08 24.6199 71.6C23.2599 74.11 24.2399 77.02 25.3899 79.53C31.8099 93.63 45.9599 102.07 63.2599 102.12H63.4199C80.7199 102.12 94.8699 93.63 101.3 79.53C102.44 77 103.43 74.13 102.07 71.62Z" fill="#49362E" style="fill:#49362E;fill:color(display-p3 0.2863 0.2118 0.1804);fill-opacity:1;"/>
<path d="M102.07 71.62C100.67 69.09 97.6299 67.98 94.9299 69C84.6699 71.99 74.0299 73.48 63.3399 73.43C52.6499 73.48 42.0099 71.99 31.7499 69C29.0599 67.98 26.0199 69.08 24.6199 71.6C23.2599 74.11 24.2399 77.02 25.3899 79.53C31.8099 93.63 45.9599 102.07 63.2599 102.12H63.4199C80.7199 102.12 94.8699 93.63 101.3 79.53C102.44 77 103.43 74.13 102.07 71.62Z" fill="#1A1717" style="fill:#1A1717;fill:color(display-p3 0.1020 0.0902 0.0902);fill-opacity:1;"/>
<path d="M102.07 71.62C100.67 69.09 97.6299 67.98 94.9299 69C84.6699 71.99 74.0299 73.48 63.3399 73.43C52.6499 73.48 42.0099 71.99 31.7499 69C29.0599 67.98 26.0199 69.08 24.6199 71.6C23.2599 74.11 24.2399 77.02 25.3899 79.53C31.8099 93.63 45.9599 102.07 63.2599 102.12H63.4199C80.7199 102.12 94.8699 93.63 101.3 79.53C102.44 77 103.43 74.13 102.07 71.62Z" fill="#5D4037" style="fill:#5D4037;fill:color(display-p3 0.3647 0.2510 0.2157);fill-opacity:1;"/>
<path d="M79.35 98.14C78.98 97.8 78.6 97.49 78.22 97.14C74.14 93.55 68.86 91.62 63.42 91.73C57.82 91.64 52.37 93.5 48 97C47.62 97.31 47.22 97.61 46.85 98C46.48 98.39 46.28 98.67 46.04 99C51.54 101.15 57.4 102.25 63.31 102.22H63.47C69.13 102.22 74.74 101.21 80.04 99.22C79.84 98.84 79.61 98.48 79.35 98.14Z" fill="#ED7770" style="fill:#ED7770;fill:color(display-p3 0.9294 0.4667 0.4392);fill-opacity:1;"/>
<path d="M94.9299 69C84.6699 71.99 74.0299 73.48 63.3399 73.43C52.6499 73.48 42.0099 71.99 31.7499 69C29.0599 67.98 26.0199 69.08 24.6199 71.6C24.4199 71.98 24.2599 72.38 24.1599 72.79C24.4899 72.96 24.8699 73.13 25.3199 73.31C37.3599 79.34 50.6699 82.4 64.1299 82.24C77.0399 82.39 89.7999 79.58 101.46 74.04C101.93 73.84 102.32 73.65 102.67 73.47C102.59 72.82 102.38 72.18 102.07 71.6C100.67 69.08 97.6299 67.97 94.9299 69Z" fill="white" style="fill:white;fill-opacity:1;"/>
<path d="M102.11 71.63C100.69 69.1 97.6399 67.98 94.9199 69C84.6599 71.99 74.0199 73.48 63.3399 73.43C52.6499 73.48 42.0099 71.99 31.7499 69C29.0599 67.98 26.0199 69.08 24.6199 71.6C23.2599 74.11 24.2399 77.02 25.3899 79.53C25.8999 80.66 26.4699 81.77 27.0999 82.84C27.0999 82.84 24.9999 75.06 26.8199 72.8C27.4399 71.84 28.4799 71.24 29.6199 71.18C30.0899 71.18 30.5499 71.26 30.9999 71.4C41.4399 74.47 52.2699 76.02 63.1599 76H63.5099C74.3999 76.02 85.2299 74.47 95.6699 71.4C96.1199 71.26 96.5799 71.18 97.0499 71.18C98.1899 71.24 99.2399 71.84 99.8599 72.8C101.71 75.06 99.5799 82.87 99.5799 82.87C100.2 81.8 100.82 80.7 101.34 79.56C102.48 77.05 103.47 74.15 102.11 71.63Z" fill="#EB8F00" style="fill:#EB8F00;fill:color(display-p3 0.9216 0.5608 0.0000);fill-opacity:1;"/>
<path d="M102.11 71.63C100.69 69.1 97.6399 67.98 94.9199 69C84.6599 71.99 74.0199 73.48 63.3399 73.43C52.6499 73.48 42.0099 71.99 31.7499 69C29.0599 67.98 26.0199 69.08 24.6199 71.6C23.2599 74.11 24.2399 77.02 25.3899 79.53C25.8999 80.66 26.4699 81.77 27.0999 82.84C27.0999 82.84 24.9999 75.06 26.8199 72.8C27.4399 71.84 28.4799 71.24 29.6199 71.18C30.0899 71.18 30.5499 71.26 30.9999 71.4C41.4399 74.47 52.2699 76.02 63.1599 76H63.5099C74.3999 76.02 85.2299 74.47 95.6699 71.4C96.1199 71.26 96.5799 71.18 97.0499 71.18C98.1899 71.24 99.2399 71.84 99.8599 72.8C101.71 75.06 99.5799 82.87 99.5799 82.87C100.2 81.8 100.82 80.7 101.34 79.56C102.48 77.05 103.47 74.15 102.11 71.63Z" fill="#F3B872" style="fill:#F3B872;fill:color(display-p3 0.9542 0.7229 0.4453);fill-opacity:1;"/>
<path d="M102.11 71.63C100.69 69.1 97.6399 67.98 94.9199 69C84.6599 71.99 74.0199 73.48 63.3399 73.43C52.6499 73.48 42.0099 71.99 31.7499 69C29.0599 67.98 26.0199 69.08 24.6199 71.6C23.2599 74.11 24.2399 77.02 25.3899 79.53C25.8999 80.66 26.4699 81.77 27.0999 82.84C27.0999 82.84 24.9999 75.06 26.8199 72.8C27.4399 71.84 28.4799 71.24 29.6199 71.18C30.0899 71.18 30.5499 71.26 30.9999 71.4C41.4399 74.47 52.2699 76.02 63.1599 76H63.5099C74.3999 76.02 85.2299 74.47 95.6699 71.4C96.1199 71.26 96.5799 71.18 97.0499 71.18C98.1899 71.24 99.2399 71.84 99.8599 72.8C101.71 75.06 99.5799 82.87 99.5799 82.87C100.2 81.8 100.82 80.7 101.34 79.56C102.48 77.05 103.47 74.15 102.11 71.63Z" fill="#91674D" style="fill:#91674D;fill:color(display-p3 0.5686 0.4039 0.3020);fill-opacity:1;"/>
<path d="M100.69 57.09C100.69 57.09 117.69 57.56 124.48 70.09C127.32 75.35 127.48 84.09 121.6 87.28C114.49 91.19 107.82 85.64 106.97 79.72C104.68 63.66 100.69 57.09 100.69 57.09Z" fill="#29B6F6" style="fill:#29B6F6;fill:color(display-p3 0.1608 0.7137 0.9647);fill-opacity:1;"/>
<path d="M123.26 81.27C122.59 82.49 121.12 83.0201 119.83 82.5101C118.68 81.9001 118.37 80.43 118.19 79.14L117.64 75.14C117.41 73.55 115.79 68.4 117.49 67.56C118.84 66.9 121.43 68.72 122.19 69.77C123.86 72.15 124.65 78.93 123.26 81.27Z" fill="#81D4FA" style="fill:#81D4FA;fill:color(display-p3 0.5059 0.8314 0.9804);fill-opacity:1;"/>
<path d="M117.49 67.61C118.84 66.95 121.43 68.77 122.19 69.82C123.86 72.15 124.65 78.93 123.26 81.27C122.59 82.49 121.12 83.02 119.83 82.51C118.68 81.9 118.37 80.43 118.19 79.14L117.64 75.14" fill="#81D4FA" style="fill:#81D4FA;fill:color(display-p3 0.5059 0.8314 0.9804);fill-opacity:1;"/>
<path d="M27.31 57.09C27.31 57.09 10.31 57.56 3.51995 70.09C0.679955 75.3 0.569954 84 6.39995 87.23C13.51 91.14 20.18 85.59 21.03 79.67C23.32 63.66 27.31 57.09 27.31 57.09Z" fill="#29B6F6" style="fill:#29B6F6;fill:color(display-p3 0.1608 0.7137 0.9647);fill-opacity:1;"/>
<path d="M4.73996 81.27C5.40996 82.49 6.87996 83.0201 8.16996 82.5101C9.31996 81.9001 9.62996 80.43 9.80996 79.14L10.36 75.14C10.59 73.55 12.21 68.4 10.51 67.56C9.15996 66.9 6.56996 68.72 5.80996 69.77C4.13996 72.15 3.34996 78.93 4.73996 81.27Z" fill="#81D4FA" style="fill:#81D4FA;fill:color(display-p3 0.5059 0.8314 0.9804);fill-opacity:1;"/>
<path d="M48.1499 55.87L47.9999 55.65L47.7899 55.38C47.7099 55.27 47.6299 55.18 47.5299 55.09L46.9199 54.47C46.6599 54.21 46.3699 53.95 46.0499 53.68C45.3899 53.11 44.6499 52.65 43.8499 52.29C43.0799 51.95 42.2399 51.77 41.3999 51.77C41.7499 51.77 41.4899 51.77 41.5699 51.77H40.9999C40.8999 51.76 40.8099 51.76 40.7099 51.77C40.5299 51.79 40.3499 51.82 40.1699 51.86C39.7599 51.96 39.3499 52.09 38.9599 52.25C38.1599 52.6 37.4199 53.07 36.7599 53.64C36.2199 54.09 35.7099 54.58 35.2399 55.11L34.6699 55.75L34.3699 56.09C33.1599 57.47 31.0699 57.61 29.6899 56.41C28.6599 55.51 28.2899 54.06 28.7499 52.77L28.8599 52.45C28.9499 52.24 29.0299 51.92 29.2199 51.54C29.6799 50.46 30.2799 49.43 30.9999 48.5C32.7499 46.19 35.2099 44.51 37.9999 43.71C38.5699 43.56 39.1499 43.45 39.7399 43.37C40.0399 43.37 40.4799 43.28 40.6099 43.28H41.3699C42.4999 43.3 43.6299 43.46 44.7299 43.74C45.7799 44.03 46.7799 44.45 47.7299 44.99C49.2799 45.9 50.6399 47.1 51.7299 48.53C52.4699 49.5 53.0999 50.55 53.5899 51.67C53.6699 51.83 53.7399 51.99 53.7799 52.16C53.8299 52.29 53.8599 52.4 53.8899 52.49L53.9799 52.76C54.5499 54.53 53.5799 56.43 51.8099 57C50.4799 57.43 49.0099 56.99 48.1399 55.9L48.1499 55.87Z" fill="#49362E" style="fill:#49362E;fill:color(display-p3 0.2863 0.2118 0.1804);fill-opacity:1;"/>
<path d="M48.1499 55.87L47.9999 55.65L47.7899 55.38C47.7099 55.27 47.6299 55.18 47.5299 55.09L46.9199 54.47C46.6599 54.21 46.3699 53.95 46.0499 53.68C45.3899 53.11 44.6499 52.65 43.8499 52.29C43.0799 51.95 42.2399 51.77 41.3999 51.77C41.7499 51.77 41.4899 51.77 41.5699 51.77H40.9999C40.8999 51.76 40.8099 51.76 40.7099 51.77C40.5299 51.79 40.3499 51.82 40.1699 51.86C39.7599 51.96 39.3499 52.09 38.9599 52.25C38.1599 52.6 37.4199 53.07 36.7599 53.64C36.2199 54.09 35.7099 54.58 35.2399 55.11L34.6699 55.75L34.3699 56.09C33.1599 57.47 31.0699 57.61 29.6899 56.41C28.6599 55.51 28.2899 54.06 28.7499 52.77L28.8599 52.45C28.9499 52.24 29.0299 51.92 29.2199 51.54C29.6799 50.46 30.2799 49.43 30.9999 48.5C32.7499 46.19 35.2099 44.51 37.9999 43.71C38.5699 43.56 39.1499 43.45 39.7399 43.37C40.0399 43.37 40.4799 43.28 40.6099 43.28H41.3699C42.4999 43.3 43.6299 43.46 44.7299 43.74C45.7799 44.03 46.7799 44.45 47.7299 44.99C49.2799 45.9 50.6399 47.1 51.7299 48.53C52.4699 49.5 53.0999 50.55 53.5899 51.67C53.6699 51.83 53.7399 51.99 53.7799 52.16C53.8299 52.29 53.8599 52.4 53.8899 52.49L53.9799 52.76C54.5499 54.53 53.5799 56.43 51.8099 57C50.4799 57.43 49.0099 56.99 48.1399 55.9L48.1499 55.87Z" fill="#1A1717" style="fill:#1A1717;fill:color(display-p3 0.1020 0.0902 0.0902);fill-opacity:1;"/>
<path d="M48.1499 55.87L47.9999 55.65L47.7899 55.38C47.7099 55.27 47.6299 55.18 47.5299 55.09L46.9199 54.47C46.6599 54.21 46.3699 53.95 46.0499 53.68C45.3899 53.11 44.6499 52.65 43.8499 52.29C43.0799 51.95 42.2399 51.77 41.3999 51.77C41.7499 51.77 41.4899 51.77 41.5699 51.77H40.9999C40.8999 51.76 40.8099 51.76 40.7099 51.77C40.5299 51.79 40.3499 51.82 40.1699 51.86C39.7599 51.96 39.3499 52.09 38.9599 52.25C38.1599 52.6 37.4199 53.07 36.7599 53.64C36.2199 54.09 35.7099 54.58 35.2399 55.11L34.6699 55.75L34.3699 56.09C33.1599 57.47 31.0699 57.61 29.6899 56.41C28.6599 55.51 28.2899 54.06 28.7499 52.77L28.8599 52.45C28.9499 52.24 29.0299 51.92 29.2199 51.54C29.6799 50.46 30.2799 49.43 30.9999 48.5C32.7499 46.19 35.2099 44.51 37.9999 43.71C38.5699 43.56 39.1499 43.45 39.7399 43.37C40.0399 43.37 40.4799 43.28 40.6099 43.28H41.3699C42.4999 43.3 43.6299 43.46 44.7299 43.74C45.7799 44.03 46.7799 44.45 47.7299 44.99C49.2799 45.9 50.6399 47.1 51.7299 48.53C52.4699 49.5 53.0999 50.55 53.5899 51.67C53.6699 51.83 53.7399 51.99 53.7799 52.16C53.8299 52.29 53.8599 52.4 53.8899 52.49L53.9799 52.76C54.5499 54.53 53.5799 56.43 51.8099 57C50.4799 57.43 49.0099 56.99 48.1399 55.9L48.1499 55.87Z" fill="#49362E" style="fill:#49362E;fill:color(display-p3 0.2863 0.2118 0.1804);fill-opacity:1;"/>
<path d="M93.4799 55.87L93.2999 55.65L93.0899 55.38C93.0099 55.27 92.9299 55.18 92.8299 55.09L92.2099 54.47C91.9399 54.19 91.6499 53.93 91.3499 53.68C90.6899 53.11 89.9499 52.65 89.1499 52.29C88.3799 51.95 87.5399 51.77 86.6999 51.77C87.0499 51.77 86.7899 51.77 86.8699 51.77H86.2899C86.1899 51.76 86.0999 51.76 85.9999 51.77C85.8199 51.79 85.6399 51.82 85.4599 51.86C85.0499 51.96 84.6399 52.09 84.2499 52.25C83.4399 52.62 82.6799 53.1 81.9999 53.68C81.4599 54.14 80.9599 54.63 80.4899 55.15L79.9199 55.79L79.6199 56.13C78.4099 57.51 76.3199 57.65 74.9399 56.45C73.9099 55.55 73.5399 54.1 73.9999 52.81L74.1099 52.49C74.1999 52.28 74.2799 51.96 74.4599 51.58C74.9399 50.48 75.5499 49.45 76.2899 48.5C78.0399 46.19 80.4999 44.51 83.2899 43.71C83.8599 43.56 84.4399 43.45 85.0299 43.37C85.3299 43.37 85.7699 43.28 85.8999 43.28H86.6599C87.7899 43.3 88.9199 43.46 90.0199 43.74C91.0599 44.04 92.0599 44.46 92.9999 45C94.5499 45.9 95.9099 47.11 96.9999 48.54C97.4199 49.08 97.7899 49.65 98.1299 50.24C98.3999 50.71 98.6399 51.19 98.8599 51.68C98.9399 51.84 98.9999 52 99.0499 52.17C99.0499 52.3 99.1299 52.41 99.1599 52.5L99.2499 52.77C99.8199 54.54 98.8499 56.44 97.0799 57.01C95.7499 57.44 94.2799 57 93.4099 55.91L93.4799 55.87Z" fill="#49362E" style="fill:#49362E;fill:color(display-p3 0.2863 0.2118 0.1804);fill-opacity:1;"/>
<path d="M93.4799 55.87L93.2999 55.65L93.0899 55.38C93.0099 55.27 92.9299 55.18 92.8299 55.09L92.2099 54.47C91.9399 54.19 91.6499 53.93 91.3499 53.68C90.6899 53.11 89.9499 52.65 89.1499 52.29C88.3799 51.95 87.5399 51.77 86.6999 51.77C87.0499 51.77 86.7899 51.77 86.8699 51.77H86.2899C86.1899 51.76 86.0999 51.76 85.9999 51.77C85.8199 51.79 85.6399 51.82 85.4599 51.86C85.0499 51.96 84.6399 52.09 84.2499 52.25C83.4399 52.62 82.6799 53.1 81.9999 53.68C81.4599 54.14 80.9599 54.63 80.4899 55.15L79.9199 55.79L79.6199 56.13C78.4099 57.51 76.3199 57.65 74.9399 56.45C73.9099 55.55 73.5399 54.1 73.9999 52.81L74.1099 52.49C74.1999 52.28 74.2799 51.96 74.4599 51.58C74.9399 50.48 75.5499 49.45 76.2899 48.5C78.0399 46.19 80.4999 44.51 83.2899 43.71C83.8599 43.56 84.4399 43.45 85.0299 43.37C85.3299 43.37 85.7699 43.28 85.8999 43.28H86.6599C87.7899 43.3 88.9199 43.46 90.0199 43.74C91.0599 44.04 92.0599 44.46 92.9999 45C94.5499 45.9 95.9099 47.11 96.9999 48.54C97.4199 49.08 97.7899 49.65 98.1299 50.24C98.3999 50.71 98.6399 51.19 98.8599 51.68C98.9399 51.84 98.9999 52 99.0499 52.17C99.0499 52.3 99.1299 52.41 99.1599 52.5L99.2499 52.77C99.8199 54.54 98.8499 56.44 97.0799 57.01C95.7499 57.44 94.2799 57 93.4099 55.91L93.4799 55.87Z" fill="#1A1717" style="fill:#1A1717;fill:color(display-p3 0.1020 0.0902 0.0902);fill-opacity:1;"/>
<path d="M93.4799 55.87L93.2999 55.65L93.0899 55.38C93.0099 55.27 92.9299 55.18 92.8299 55.09L92.2099 54.47C91.9399 54.19 91.6499 53.93 91.3499 53.68C90.6899 53.11 89.9499 52.65 89.1499 52.29C88.3799 51.95 87.5399 51.77 86.6999 51.77C87.0499 51.77 86.7899 51.77 86.8699 51.77H86.2899C86.1899 51.76 86.0999 51.76 85.9999 51.77C85.8199 51.79 85.6399 51.82 85.4599 51.86C85.0499 51.96 84.6399 52.09 84.2499 52.25C83.4399 52.62 82.6799 53.1 81.9999 53.68C81.4599 54.14 80.9599 54.63 80.4899 55.15L79.9199 55.79L79.6199 56.13C78.4099 57.51 76.3199 57.65 74.9399 56.45C73.9099 55.55 73.5399 54.1 73.9999 52.81L74.1099 52.49C74.1999 52.28 74.2799 51.96 74.4599 51.58C74.9399 50.48 75.5499 49.45 76.2899 48.5C78.0399 46.19 80.4999 44.51 83.2899 43.71C83.8599 43.56 84.4399 43.45 85.0299 43.37C85.3299 43.37 85.7699 43.28 85.8999 43.28H86.6599C87.7899 43.3 88.9199 43.46 90.0199 43.74C91.0599 44.04 92.0599 44.46 92.9999 45C94.5499 45.9 95.9099 47.11 96.9999 48.54C97.4199 49.08 97.7899 49.65 98.1299 50.24C98.3999 50.71 98.6399 51.19 98.8599 51.68C98.9399 51.84 98.9999 52 99.0499 52.17C99.0499 52.3 99.1299 52.41 99.1599 52.5L99.2499 52.77C99.8199 54.54 98.8499 56.44 97.0799 57.01C95.7499 57.44 94.2799 57 93.4099 55.91L93.4799 55.87Z" fill="#49362E" style="fill:#49362E;fill:color(display-p3 0.2863 0.2118 0.1804);fill-opacity:1;"/>
<defs>
<radialGradient id="paint0_radial_169_13022" cx="0" cy="0" r="1" gradientUnits="userSpaceOnUse" gradientTransform="translate(63.5999 62.9) scale(56.9597 56.9597)">
<stop offset="0.5" stop-color="#FDE030" style="stop-color:#FDE030;stop-color:color(display-p3 0.9922 0.8784 0.1882);stop-opacity:1;"/>
<stop offset="0.92" stop-color="#F7C02B" style="stop-color:#F7C02B;stop-color:color(display-p3 0.9686 0.7529 0.1686);stop-opacity:1;"/>
<stop offset="1" stop-color="#F4A223" style="stop-color:#F4A223;stop-color:color(display-p3 0.9569 0.6353 0.1373);stop-opacity:1;"/>
</radialGradient>
<radialGradient id="paint1_radial_169_13022" cx="0" cy="0" r="1" gradientUnits="userSpaceOnUse" gradientTransform="translate(38.5989 34.5377) rotate(-43.2082) scale(102.024 101.825)">
<stop offset="0.3533" stop-color="#F9DDBD" style="stop-color:#F9DDBD;stop-color:color(display-p3 0.9765 0.8667 0.7412);stop-opacity:1;"/>
<stop offset="0.8723" stop-color="#FFD29C" style="stop-color:#FFD29C;stop-color:color(display-p3 1.0000 0.8235 0.6118);stop-opacity:1;"/>
</radialGradient>
<radialGradient id="paint2_radial_169_13022" cx="0" cy="0" r="1" gradientUnits="userSpaceOnUse" gradientTransform="translate(38.5989 34.5377) rotate(-43.2082) scale(102.024 101.825)">
<stop offset="0.3533" stop-color="#70534A" style="stop-color:#70534A;stop-color:color(display-p3 0.4392 0.3255 0.2902);stop-opacity:1;"/>
<stop offset="0.8723" stop-color="#5C4037" style="stop-color:#5C4037;stop-color:color(display-p3 0.3608 0.2510 0.2157);stop-opacity:1;"/>
</radialGradient>
<radialGradient id="paint3_radial_169_13022" cx="0" cy="0" r="1" gradientUnits="userSpaceOnUse" gradientTransform="translate(38.5989 34.5377) rotate(-43.2082) scale(102.024 101.825)">
<stop offset="0.3533" stop-color="#A37A58" style="stop-color:#A37A58;stop-color:color(display-p3 0.6375 0.4772 0.3453);stop-opacity:1;"/>
<stop offset="0.8723" stop-color="#8D5738" style="stop-color:#8D5738;stop-color:color(display-p3 0.5529 0.3412 0.2196);stop-opacity:1;"/>
</radialGradient>
<radialGradient id="paint4_radial_169_13022" cx="0" cy="0" r="1" gradientUnits="userSpaceOnUse" gradientTransform="translate(38.5989 34.5377) rotate(-43.2082) scale(102.024 101.825)">
<stop offset="0.3533" stop-color="#AD8264" style="stop-color:#AD8264;stop-color:color(display-p3 0.6784 0.5098 0.3922);stop-opacity:1;"/>
<stop offset="0.8723" stop-color="#A47B62" style="stop-color:#A47B62;stop-color:color(display-p3 0.6431 0.4824 0.3843);stop-opacity:1;"/>
</radialGradient>
</defs>
</svg>
