<svg width="128" height="128" viewBox="0 0 128 128" fill="none" xmlns="http://www.w3.org/2000/svg">
<g opacity="0.2">
<path d="M99.73 7.09009C102.49 7.09009 104.73 9.33009 104.73 12.0901V116.09C104.73 118.85 102.49 121.09 99.73 121.09H27.73C24.97 121.09 22.73 118.85 22.73 116.09V12.0901C22.73 9.33009 24.97 7.09009 27.73 7.09009H99.73ZM99.73 4.09009H27.73C23.31 4.09009 19.73 7.67009 19.73 12.0901V116.09C19.73 120.51 23.31 124.09 27.73 124.09H99.73C104.15 124.09 107.73 120.51 107.73 116.09V12.0901C107.73 7.67009 104.15 4.09009 99.73 4.09009Z" fill="#212121" style="fill:#212121;fill:color(display-p3 0.1294 0.1294 0.1294);fill-opacity:1;"/>
<path d="M99.73 7.09009C102.49 7.09009 104.73 9.33009 104.73 12.0901V116.09C104.73 118.85 102.49 121.09 99.73 121.09H27.73C24.97 121.09 22.73 118.85 22.73 116.09V12.0901C22.73 9.33009 24.97 7.09009 27.73 7.09009H99.73ZM99.73 4.09009H27.73C23.31 4.09009 19.73 7.67009 19.73 12.0901V116.09C19.73 120.51 23.31 124.09 27.73 124.09H99.73C104.15 124.09 107.73 120.51 107.73 116.09V12.0901C107.73 7.67009 104.15 4.09009 99.73 4.09009Z" fill="#212121" style="fill:#212121;fill:color(display-p3 0.1294 0.1294 0.1294);fill-opacity:1;"/>
<path d="M99.73 7.09009C102.49 7.09009 104.73 9.33009 104.73 12.0901V116.09C104.73 118.85 102.49 121.09 99.73 121.09H27.73C24.97 121.09 22.73 118.85 22.73 116.09V12.0901C22.73 9.33009 24.97 7.09009 27.73 7.09009H99.73ZM99.73 4.09009H27.73C23.31 4.09009 19.73 7.67009 19.73 12.0901V116.09C19.73 120.51 23.31 124.09 27.73 124.09H99.73C104.15 124.09 107.73 120.51 107.73 116.09V12.0901C107.73 7.67009 104.15 4.09009 99.73 4.09009Z" fill="#212121" style="fill:#212121;fill:color(display-p3 0.1294 0.1294 0.1294);fill-opacity:1;"/>
</g>
<path d="M102.439 125.43L26.4194 125.06C22.9694 125.06 20.1694 122.26 20.1694 118.81L32.3694 26.6801L102.559 4.5001C108.689 4.1701 109.039 7.0301 109.039 10.4801L108.669 119.17C108.689 122.64 105.889 125.43 102.439 125.43Z" fill="#D9CDC9" style="fill:#D9CDC9;fill:color(display-p3 0.8510 0.8039 0.7882);fill-opacity:1;"/>
<path d="M101.98 122.06C101.98 122.06 44.2195 123.04 25.5095 121.98C21.9295 121.78 20.1795 120.36 20.1695 118.82L19.9995 10.3301C19.9995 6.88008 22.7995 4.08008 26.2495 4.08008L101.89 4.40008C105.34 4.40008 106.65 7.26008 106.65 10.7101L106.08 116.11C106.06 119.56 105.43 122.06 101.98 122.06Z" fill="#F1EDEC" style="fill:#F1EDEC;fill:color(display-p3 0.9451 0.9294 0.9255);fill-opacity:1;"/>
<path d="M42.2668 97.2C42.6501 96 44.1834 93 46.8668 93C50.3168 93 51.8501 95.4 51.8501 98.4C51.8501 100.5 50.8615 101.884 49.9334 103.5C48.9452 105.221 47.488 106.757 46.1001 108.3C44.3194 110.279 40.3501 114 40.3501 114C40.3501 114 36.3808 110.279 34.6001 108.3C33.2122 106.757 31.755 105.221 30.7668 103.5C29.8387 101.884 28.8501 100.5 28.8501 98.4C28.8501 95.4 30.3834 93 33.8334 93C36.5168 93 38.0501 96 38.4334 97.2C38.8168 97.5 38.8168 97.2 38.8168 96.9C38.4334 94.5 38.4334 93.9 38.0501 92.1C37.6668 90.3 36.5168 87 36.5168 87C38.4334 87.6 42.2668 87.6 44.1834 87C44.1834 87 43.0334 90.3 42.6501 92.1C42.2668 93.9 42.2668 94.5 41.8834 96.9C41.8834 97.2 41.8834 97.5 42.2668 97.2Z" fill="#212121" style="fill:#212121;fill:color(display-p3 0.1294 0.1294 0.1294);fill-opacity:1;"/>
<path d="M42.2668 97.2C42.6501 96 44.1834 93 46.8668 93C50.3168 93 51.8501 95.4 51.8501 98.4C51.8501 100.5 50.8615 101.884 49.9334 103.5C48.9452 105.221 47.488 106.757 46.1001 108.3C44.3194 110.279 40.3501 114 40.3501 114C40.3501 114 36.3808 110.279 34.6001 108.3C33.2122 106.757 31.755 105.221 30.7668 103.5C29.8387 101.884 28.8501 100.5 28.8501 98.4C28.8501 95.4 30.3834 93 33.8334 93C36.5168 93 38.0501 96 38.4334 97.2C38.8168 97.5 38.8168 97.2 38.8168 96.9C38.4334 94.5 38.4334 93.9 38.0501 92.1C37.6668 90.3 36.5168 87 36.5168 87C38.4334 87.6 42.2668 87.6 44.1834 87C44.1834 87 43.0334 90.3 42.6501 92.1C42.2668 93.9 42.2668 94.5 41.8834 96.9C41.8834 97.2 41.8834 97.5 42.2668 97.2Z" fill="#212121" style="fill:#212121;fill:color(display-p3 0.1294 0.1294 0.1294);fill-opacity:1;"/>
<path d="M42.2668 97.2C42.6501 96 44.1834 93 46.8668 93C50.3168 93 51.8501 95.4 51.8501 98.4C51.8501 100.5 50.8615 101.884 49.9334 103.5C48.9452 105.221 47.488 106.757 46.1001 108.3C44.3194 110.279 40.3501 114 40.3501 114C40.3501 114 36.3808 110.279 34.6001 108.3C33.2122 106.757 31.755 105.221 30.7668 103.5C29.8387 101.884 28.8501 100.5 28.8501 98.4C28.8501 95.4 30.3834 93 33.8334 93C36.5168 93 38.0501 96 38.4334 97.2C38.8168 97.5 38.8168 97.2 38.8168 96.9C38.4334 94.5 38.4334 93.9 38.0501 92.1C37.6668 90.3 36.5168 87 36.5168 87C38.4334 87.6 42.2668 87.6 44.1834 87C44.1834 87 43.0334 90.3 42.6501 92.1C42.2668 93.9 42.2668 94.5 41.8834 96.9C41.8834 97.2 41.8834 97.5 42.2668 97.2Z" fill="#212121" style="fill:#212121;fill:color(display-p3 0.1294 0.1294 0.1294);fill-opacity:1;"/>
<path d="M87.4167 32.8C87.8 34 89.3333 37 92.0167 37C95.4667 37 97 34.6 97 31.6C97 29.5 96.0114 28.1163 95.0833 26.5C94.0951 24.779 92.6379 23.2428 91.25 21.7C89.4693 19.7206 85.5 16 85.5 16C85.5 16 81.5307 19.7206 79.75 21.7C78.3621 23.2428 76.9049 24.779 75.9167 26.5C74.9886 28.1163 74 29.5 74 31.6C74 34.6 75.5333 37 78.9833 37C81.6667 37 83.2 34 83.5833 32.8C83.9667 32.5 83.9667 32.8 83.9667 33.1C83.5833 35.5 83.5833 36.1 83.2 37.9C82.8167 39.7 81.6667 43 81.6667 43C83.5833 42.4 87.4167 42.4 89.3333 43C89.3333 43 88.1833 39.7 87.8 37.9C87.4167 36.1 87.4167 35.5 87.0333 33.1C87.0333 32.8 87.0333 32.5 87.4167 32.8Z" fill="#212121" style="fill:#212121;fill:color(display-p3 0.1294 0.1294 0.1294);fill-opacity:1;"/>
<path d="M87.4167 32.8C87.8 34 89.3333 37 92.0167 37C95.4667 37 97 34.6 97 31.6C97 29.5 96.0114 28.1163 95.0833 26.5C94.0951 24.779 92.6379 23.2428 91.25 21.7C89.4693 19.7206 85.5 16 85.5 16C85.5 16 81.5307 19.7206 79.75 21.7C78.3621 23.2428 76.9049 24.779 75.9167 26.5C74.9886 28.1163 74 29.5 74 31.6C74 34.6 75.5333 37 78.9833 37C81.6667 37 83.2 34 83.5833 32.8C83.9667 32.5 83.9667 32.8 83.9667 33.1C83.5833 35.5 83.5833 36.1 83.2 37.9C82.8167 39.7 81.6667 43 81.6667 43C83.5833 42.4 87.4167 42.4 89.3333 43C89.3333 43 88.1833 39.7 87.8 37.9C87.4167 36.1 87.4167 35.5 87.0333 33.1C87.0333 32.8 87.0333 32.5 87.4167 32.8Z" fill="#212121" style="fill:#212121;fill:color(display-p3 0.1294 0.1294 0.1294);fill-opacity:1;"/>
<path d="M87.4167 32.8C87.8 34 89.3333 37 92.0167 37C95.4667 37 97 34.6 97 31.6C97 29.5 96.0114 28.1163 95.0833 26.5C94.0951 24.779 92.6379 23.2428 91.25 21.7C89.4693 19.7206 85.5 16 85.5 16C85.5 16 81.5307 19.7206 79.75 21.7C78.3621 23.2428 76.9049 24.779 75.9167 26.5C74.9886 28.1163 74 29.5 74 31.6C74 34.6 75.5333 37 78.9833 37C81.6667 37 83.2 34 83.5833 32.8C83.9667 32.5 83.9667 32.8 83.9667 33.1C83.5833 35.5 83.5833 36.1 83.2 37.9C82.8167 39.7 81.6667 43 81.6667 43C83.5833 42.4 87.4167 42.4 89.3333 43C89.3333 43 88.1833 39.7 87.8 37.9C87.4167 36.1 87.4167 35.5 87.0333 33.1C87.0333 32.8 87.0333 32.5 87.4167 32.8Z" fill="#212121" style="fill:#212121;fill:color(display-p3 0.1294 0.1294 0.1294);fill-opacity:1;"/>
<path d="M41.4167 32.8C41.8 34 43.3333 37 46.0167 37C49.4667 37 51 34.6 51 31.6C51 29.5 50.0114 28.1163 49.0833 26.5C48.0951 24.779 46.6379 23.2428 45.25 21.7C43.4693 19.7206 39.5 16 39.5 16C39.5 16 35.5307 19.7206 33.75 21.7C32.3621 23.2428 30.9049 24.779 29.9167 26.5C28.9886 28.1163 28 29.5 28 31.6C28 34.6 29.5333 37 32.9833 37C35.6667 37 37.2 34 37.5833 32.8C37.9667 32.5 37.9667 32.8 37.9667 33.1C37.5833 35.5 37.5833 36.1 37.2 37.9C36.8167 39.7 35.6667 43 35.6667 43C37.5833 42.4 41.4167 42.4 43.3333 43C43.3333 43 42.1833 39.7 41.8 37.9C41.4167 36.1 41.4167 35.5 41.0333 33.1C41.0333 32.8 41.0333 32.5 41.4167 32.8Z" fill="#212121" style="fill:#212121;fill:color(display-p3 0.1294 0.1294 0.1294);fill-opacity:1;"/>
<path d="M41.4167 32.8C41.8 34 43.3333 37 46.0167 37C49.4667 37 51 34.6 51 31.6C51 29.5 50.0114 28.1163 49.0833 26.5C48.0951 24.779 46.6379 23.2428 45.25 21.7C43.4693 19.7206 39.5 16 39.5 16C39.5 16 35.5307 19.7206 33.75 21.7C32.3621 23.2428 30.9049 24.779 29.9167 26.5C28.9886 28.1163 28 29.5 28 31.6C28 34.6 29.5333 37 32.9833 37C35.6667 37 37.2 34 37.5833 32.8C37.9667 32.5 37.9667 32.8 37.9667 33.1C37.5833 35.5 37.5833 36.1 37.2 37.9C36.8167 39.7 35.6667 43 35.6667 43C37.5833 42.4 41.4167 42.4 43.3333 43C43.3333 43 42.1833 39.7 41.8 37.9C41.4167 36.1 41.4167 35.5 41.0333 33.1C41.0333 32.8 41.0333 32.5 41.4167 32.8Z" fill="#212121" style="fill:#212121;fill:color(display-p3 0.1294 0.1294 0.1294);fill-opacity:1;"/>
<path d="M41.4167 32.8C41.8 34 43.3333 37 46.0167 37C49.4667 37 51 34.6 51 31.6C51 29.5 50.0114 28.1163 49.0833 26.5C48.0951 24.779 46.6379 23.2428 45.25 21.7C43.4693 19.7206 39.5 16 39.5 16C39.5 16 35.5307 19.7206 33.75 21.7C32.3621 23.2428 30.9049 24.779 29.9167 26.5C28.9886 28.1163 28 29.5 28 31.6C28 34.6 29.5333 37 32.9833 37C35.6667 37 37.2 34 37.5833 32.8C37.9667 32.5 37.9667 32.8 37.9667 33.1C37.5833 35.5 37.5833 36.1 37.2 37.9C36.8167 39.7 35.6667 43 35.6667 43C37.5833 42.4 41.4167 42.4 43.3333 43C43.3333 43 42.1833 39.7 41.8 37.9C41.4167 36.1 41.4167 35.5 41.0333 33.1C41.0333 32.8 41.0333 32.5 41.4167 32.8Z" fill="#212121" style="fill:#212121;fill:color(display-p3 0.1294 0.1294 0.1294);fill-opacity:1;"/>
<path d="M41.4167 69.8C41.8 71 43.3333 74 46.0167 74C49.4667 74 51 71.6 51 68.6C51 66.5 50.0114 65.1163 49.0833 63.5C48.0951 61.779 46.6379 60.2428 45.25 58.7C43.4693 56.7206 39.5 53 39.5 53C39.5 53 35.5307 56.7206 33.75 58.7C32.3621 60.2428 30.9049 61.779 29.9167 63.5C28.9886 65.1163 28 66.5 28 68.6C28 71.6 29.5333 74 32.9833 74C35.6667 74 37.2 71 37.5833 69.8C37.9667 69.5 37.9667 69.8 37.9667 70.1C37.5833 72.5 37.5833 73.1 37.2 74.9C36.8167 76.7 35.6667 80 35.6667 80C37.5833 79.4 41.4167 79.4 43.3333 80C43.3333 80 42.1833 76.7 41.8 74.9C41.4167 73.1 41.4167 72.5 41.0333 70.1C41.0333 69.8 41.0333 69.5 41.4167 69.8Z" fill="#212121" style="fill:#212121;fill:color(display-p3 0.1294 0.1294 0.1294);fill-opacity:1;"/>
<path d="M41.4167 69.8C41.8 71 43.3333 74 46.0167 74C49.4667 74 51 71.6 51 68.6C51 66.5 50.0114 65.1163 49.0833 63.5C48.0951 61.779 46.6379 60.2428 45.25 58.7C43.4693 56.7206 39.5 53 39.5 53C39.5 53 35.5307 56.7206 33.75 58.7C32.3621 60.2428 30.9049 61.779 29.9167 63.5C28.9886 65.1163 28 66.5 28 68.6C28 71.6 29.5333 74 32.9833 74C35.6667 74 37.2 71 37.5833 69.8C37.9667 69.5 37.9667 69.8 37.9667 70.1C37.5833 72.5 37.5833 73.1 37.2 74.9C36.8167 76.7 35.6667 80 35.6667 80C37.5833 79.4 41.4167 79.4 43.3333 80C43.3333 80 42.1833 76.7 41.8 74.9C41.4167 73.1 41.4167 72.5 41.0333 70.1C41.0333 69.8 41.0333 69.5 41.4167 69.8Z" fill="#212121" style="fill:#212121;fill:color(display-p3 0.1294 0.1294 0.1294);fill-opacity:1;"/>
<path d="M41.4167 69.8C41.8 71 43.3333 74 46.0167 74C49.4667 74 51 71.6 51 68.6C51 66.5 50.0114 65.1163 49.0833 63.5C48.0951 61.779 46.6379 60.2428 45.25 58.7C43.4693 56.7206 39.5 53 39.5 53C39.5 53 35.5307 56.7206 33.75 58.7C32.3621 60.2428 30.9049 61.779 29.9167 63.5C28.9886 65.1163 28 66.5 28 68.6C28 71.6 29.5333 74 32.9833 74C35.6667 74 37.2 71 37.5833 69.8C37.9667 69.5 37.9667 69.8 37.9667 70.1C37.5833 72.5 37.5833 73.1 37.2 74.9C36.8167 76.7 35.6667 80 35.6667 80C37.5833 79.4 41.4167 79.4 43.3333 80C43.3333 80 42.1833 76.7 41.8 74.9C41.4167 73.1 41.4167 72.5 41.0333 70.1C41.0333 69.8 41.0333 69.5 41.4167 69.8Z" fill="#212121" style="fill:#212121;fill:color(display-p3 0.1294 0.1294 0.1294);fill-opacity:1;"/>
<path d="M87.4167 69.8C87.8 71 89.3333 74 92.0167 74C95.4667 74 97 71.6 97 68.6C97 66.5 96.0114 65.1163 95.0833 63.5C94.0951 61.779 92.6379 60.2428 91.25 58.7C89.4693 56.7206 85.5 53 85.5 53C85.5 53 81.5307 56.7206 79.75 58.7C78.3621 60.2428 76.9049 61.779 75.9167 63.5C74.9886 65.1163 74 66.5 74 68.6C74 71.6 75.5333 74 78.9833 74C81.6667 74 83.2 71 83.5833 69.8C83.9667 69.5 83.9667 69.8 83.9667 70.1C83.5833 72.5 83.5833 73.1 83.2 74.9C82.8167 76.7 81.6667 80 81.6667 80C83.5833 79.4 87.4167 79.4 89.3333 80C89.3333 80 88.1833 76.7 87.8 74.9C87.4167 73.1 87.4167 72.5 87.0333 70.1C87.0333 69.8 87.0333 69.5 87.4167 69.8Z" fill="#212121" style="fill:#212121;fill:color(display-p3 0.1294 0.1294 0.1294);fill-opacity:1;"/>
<path d="M87.4167 69.8C87.8 71 89.3333 74 92.0167 74C95.4667 74 97 71.6 97 68.6C97 66.5 96.0114 65.1163 95.0833 63.5C94.0951 61.779 92.6379 60.2428 91.25 58.7C89.4693 56.7206 85.5 53 85.5 53C85.5 53 81.5307 56.7206 79.75 58.7C78.3621 60.2428 76.9049 61.779 75.9167 63.5C74.9886 65.1163 74 66.5 74 68.6C74 71.6 75.5333 74 78.9833 74C81.6667 74 83.2 71 83.5833 69.8C83.9667 69.5 83.9667 69.8 83.9667 70.1C83.5833 72.5 83.5833 73.1 83.2 74.9C82.8167 76.7 81.6667 80 81.6667 80C83.5833 79.4 87.4167 79.4 89.3333 80C89.3333 80 88.1833 76.7 87.8 74.9C87.4167 73.1 87.4167 72.5 87.0333 70.1C87.0333 69.8 87.0333 69.5 87.4167 69.8Z" fill="#212121" style="fill:#212121;fill:color(display-p3 0.1294 0.1294 0.1294);fill-opacity:1;"/>
<path d="M87.4167 69.8C87.8 71 89.3333 74 92.0167 74C95.4667 74 97 71.6 97 68.6C97 66.5 96.0114 65.1163 95.0833 63.5C94.0951 61.779 92.6379 60.2428 91.25 58.7C89.4693 56.7206 85.5 53 85.5 53C85.5 53 81.5307 56.7206 79.75 58.7C78.3621 60.2428 76.9049 61.779 75.9167 63.5C74.9886 65.1163 74 66.5 74 68.6C74 71.6 75.5333 74 78.9833 74C81.6667 74 83.2 71 83.5833 69.8C83.9667 69.5 83.9667 69.8 83.9667 70.1C83.5833 72.5 83.5833 73.1 83.2 74.9C82.8167 76.7 81.6667 80 81.6667 80C83.5833 79.4 87.4167 79.4 89.3333 80C89.3333 80 88.1833 76.7 87.8 74.9C87.4167 73.1 87.4167 72.5 87.0333 70.1C87.0333 69.8 87.0333 69.5 87.4167 69.8Z" fill="#212121" style="fill:#212121;fill:color(display-p3 0.1294 0.1294 0.1294);fill-opacity:1;"/>
<path d="M87.2668 97.2C87.6501 96 89.1834 93 91.8668 93C95.3168 93 96.8501 95.4 96.8501 98.4C96.8501 100.5 95.8615 101.884 94.9334 103.5C93.9452 105.221 92.488 106.757 91.1001 108.3C89.3194 110.279 85.3501 114 85.3501 114C85.3501 114 81.3808 110.279 79.6001 108.3C78.2122 106.757 76.755 105.221 75.7668 103.5C74.8387 101.884 73.8501 100.5 73.8501 98.4C73.8501 95.4 75.3834 93 78.8334 93C81.5168 93 83.0501 96 83.4334 97.2C83.8168 97.5 83.8168 97.2 83.8168 96.9C83.4334 94.5 83.4334 93.9 83.0501 92.1C82.6668 90.3 81.5168 87 81.5168 87C83.4334 87.6 87.2668 87.6 89.1834 87C89.1834 87 88.0334 90.3 87.6501 92.1C87.2668 93.9 87.2668 94.5 86.8834 96.9C86.8834 97.2 86.8834 97.5 87.2668 97.2Z" fill="#212121" style="fill:#212121;fill:color(display-p3 0.1294 0.1294 0.1294);fill-opacity:1;"/>
<path d="M87.2668 97.2C87.6501 96 89.1834 93 91.8668 93C95.3168 93 96.8501 95.4 96.8501 98.4C96.8501 100.5 95.8615 101.884 94.9334 103.5C93.9452 105.221 92.488 106.757 91.1001 108.3C89.3194 110.279 85.3501 114 85.3501 114C85.3501 114 81.3808 110.279 79.6001 108.3C78.2122 106.757 76.755 105.221 75.7668 103.5C74.8387 101.884 73.8501 100.5 73.8501 98.4C73.8501 95.4 75.3834 93 78.8334 93C81.5168 93 83.0501 96 83.4334 97.2C83.8168 97.5 83.8168 97.2 83.8168 96.9C83.4334 94.5 83.4334 93.9 83.0501 92.1C82.6668 90.3 81.5168 87 81.5168 87C83.4334 87.6 87.2668 87.6 89.1834 87C89.1834 87 88.0334 90.3 87.6501 92.1C87.2668 93.9 87.2668 94.5 86.8834 96.9C86.8834 97.2 86.8834 97.5 87.2668 97.2Z" fill="#212121" style="fill:#212121;fill:color(display-p3 0.1294 0.1294 0.1294);fill-opacity:1;"/>
<path d="M87.2668 97.2C87.6501 96 89.1834 93 91.8668 93C95.3168 93 96.8501 95.4 96.8501 98.4C96.8501 100.5 95.8615 101.884 94.9334 103.5C93.9452 105.221 92.488 106.757 91.1001 108.3C89.3194 110.279 85.3501 114 85.3501 114C85.3501 114 81.3808 110.279 79.6001 108.3C78.2122 106.757 76.755 105.221 75.7668 103.5C74.8387 101.884 73.8501 100.5 73.8501 98.4C73.8501 95.4 75.3834 93 78.8334 93C81.5168 93 83.0501 96 83.4334 97.2C83.8168 97.5 83.8168 97.2 83.8168 96.9C83.4334 94.5 83.4334 93.9 83.0501 92.1C82.6668 90.3 81.5168 87 81.5168 87C83.4334 87.6 87.2668 87.6 89.1834 87C89.1834 87 88.0334 90.3 87.6501 92.1C87.2668 93.9 87.2668 94.5 86.8834 96.9C86.8834 97.2 86.8834 97.5 87.2668 97.2Z" fill="#212121" style="fill:#212121;fill:color(display-p3 0.1294 0.1294 0.1294);fill-opacity:1;"/>
<path d="M64.4167 53.8C64.8 55 66.3333 58 69.0167 58C72.4667 58 74 55.6 74 52.6C74 50.5 73.0114 49.1163 72.0833 47.5C71.0951 45.779 69.6379 44.2428 68.25 42.7C66.4693 40.7206 62.5 37 62.5 37C62.5 37 58.5307 40.7206 56.75 42.7C55.3621 44.2428 53.9049 45.779 52.9167 47.5C51.9886 49.1163 51 50.5 51 52.6C51 55.6 52.5333 58 55.9833 58C58.6667 58 60.2 55 60.5833 53.8C60.9667 53.5 60.9667 53.8 60.9667 54.1C60.5833 56.5 60.5833 57.1 60.2 58.9C59.8167 60.7 58.6667 64 58.6667 64C60.5833 63.4 64.4167 63.4 66.3333 64C66.3333 64 65.1833 60.7 64.8 58.9C64.4167 57.1 64.4167 56.5 64.0333 54.1C64.0333 53.8 64.0333 53.5 64.4167 53.8Z" fill="#212121" style="fill:#212121;fill:color(display-p3 0.1294 0.1294 0.1294);fill-opacity:1;"/>
<path d="M64.4167 53.8C64.8 55 66.3333 58 69.0167 58C72.4667 58 74 55.6 74 52.6C74 50.5 73.0114 49.1163 72.0833 47.5C71.0951 45.779 69.6379 44.2428 68.25 42.7C66.4693 40.7206 62.5 37 62.5 37C62.5 37 58.5307 40.7206 56.75 42.7C55.3621 44.2428 53.9049 45.779 52.9167 47.5C51.9886 49.1163 51 50.5 51 52.6C51 55.6 52.5333 58 55.9833 58C58.6667 58 60.2 55 60.5833 53.8C60.9667 53.5 60.9667 53.8 60.9667 54.1C60.5833 56.5 60.5833 57.1 60.2 58.9C59.8167 60.7 58.6667 64 58.6667 64C60.5833 63.4 64.4167 63.4 66.3333 64C66.3333 64 65.1833 60.7 64.8 58.9C64.4167 57.1 64.4167 56.5 64.0333 54.1C64.0333 53.8 64.0333 53.5 64.4167 53.8Z" fill="#212121" style="fill:#212121;fill:color(display-p3 0.1294 0.1294 0.1294);fill-opacity:1;"/>
<path d="M64.4167 53.8C64.8 55 66.3333 58 69.0167 58C72.4667 58 74 55.6 74 52.6C74 50.5 73.0114 49.1163 72.0833 47.5C71.0951 45.779 69.6379 44.2428 68.25 42.7C66.4693 40.7206 62.5 37 62.5 37C62.5 37 58.5307 40.7206 56.75 42.7C55.3621 44.2428 53.9049 45.779 52.9167 47.5C51.9886 49.1163 51 50.5 51 52.6C51 55.6 52.5333 58 55.9833 58C58.6667 58 60.2 55 60.5833 53.8C60.9667 53.5 60.9667 53.8 60.9667 54.1C60.5833 56.5 60.5833 57.1 60.2 58.9C59.8167 60.7 58.6667 64 58.6667 64C60.5833 63.4 64.4167 63.4 66.3333 64C66.3333 64 65.1833 60.7 64.8 58.9C64.4167 57.1 64.4167 56.5 64.0333 54.1C64.0333 53.8 64.0333 53.5 64.4167 53.8Z" fill="#212121" style="fill:#212121;fill:color(display-p3 0.1294 0.1294 0.1294);fill-opacity:1;"/>
</svg>
