<svg width="128" height="129" viewBox="0 0 128 129" fill="none" xmlns="http://www.w3.org/2000/svg">
<rect x="24" y="58.5" width="80" height="20" fill="#5C4138" style="fill:#5C4138;fill:color(display-p3 0.3625 0.2534 0.2190);fill-opacity:1;"/>
<path d="M114.363 64.2741C110.378 61.8663 106.907 58.5941 104.447 55.9726C96.6817 47.6949 91.0587 38.3961 80.7199 37.2325C72.5798 36.3207 66.9141 44.6554 64.2356 44.6554C64.2261 44.6554 64.2166 44.6554 64.2071 44.6554C64.1976 44.6554 64.1881 44.6554 64.1786 44.6554C61.5096 44.6554 55.8391 36.316 47.6944 37.2325C37.3603 38.4008 32.8771 47.5192 24.965 54.7948C22.3198 57.2311 17.7796 61.3534 13.7998 63.7565C11.4253 65.1907 11.1783 67.8407 13.8378 68.6101C23.4026 71.3741 34.6153 67.779 44.0613 64.0699C47.6374 62.6689 49.594 64.1411 52.9374 65.4139C56.5183 66.7722 59.1445 68.0877 64.1786 68.0877C64.1881 68.0877 64.1976 68.0877 64.2071 68.0877C64.2166 68.0877 64.2261 68.0877 64.2356 68.0877C69.2697 68.0877 71.9007 66.7769 75.4768 65.4139C78.8202 64.1411 80.7768 62.6689 84.3529 64.0699C93.799 67.779 105.012 71.3741 114.576 68.6101C117.241 67.8455 116.733 65.7036 114.363 64.2741Z" fill="#EF5592" style="fill:#EF5592;fill:color(display-p3 0.9373 0.3333 0.5725);fill-opacity:1;"/>
<path d="M114.5 67.8769C115.464 66.5234 114.339 64.8755 112.62 64.8755C104.356 64.866 91.9821 68.2425 83.8801 71.092C77.3168 73.4001 72.4964 76.2733 65.4107 76.4443C57.038 76.6485 48.8552 73.4618 42.3109 71.0967C33.2258 67.8056 22.508 64.6476 14.7622 64.7189C12.9527 64.7331 11.8462 66.5425 13.0002 67.877C15.8117 71.1159 23.9033 79.4172 29.2033 85.2776C37.4478 94.396 47.5302 101.61 62.8177 102.118C78.7843 102.65 86.5918 94.8424 95.3255 86.7166C101.11 81.3406 112.221 71.0683 114.5 67.8769Z" fill="#EF5592" style="fill:#EF5592;fill:color(display-p3 0.9373 0.3333 0.5725);fill-opacity:1;"/>
<path d="M82 80C82 82.4853 74.165 86.5001 64.5 86.5001C54.835 86.5001 47 82.4853 47 80C47 77.5147 54.835 79.9999 64.5 79.9999C74.165 79.9999 82 77.5147 82 80Z" fill="#F386AB" style="fill:#F386AB;fill:color(display-p3 0.9529 0.5255 0.6706);fill-opacity:1;"/>
</svg>
