<svg width="128" height="128" viewBox="0 0 128 128" fill="none" xmlns="http://www.w3.org/2000/svg">
<path d="M12.3901 110.69L51.7601 71.5601L56.7201 77.0301L17.0301 115.99L12.3901 110.69Z" fill="#9A9A99" style="fill:#9A9A99;fill:color(display-p3 0.6039 0.6039 0.6000);fill-opacity:1;"/>
<path d="M123.03 53.76C122.96 53.66 121.31 51.22 119.12 49.03C116.71 46.62 113.3 44.48 113.16 44.39L110.92 43L111.25 45.61C111.25 45.64 111.59 48.34 111.46 50.36C111.25 53.56 110.63 56.08 110.63 56.11C110.46 56.78 110.87 57.46 111.54 57.62C111.64 57.65 111.74 57.66 111.84 57.66C112.4 57.66 112.91 57.28 113.05 56.71C113.08 56.6 113.73 53.96 113.95 50.52C114 49.69 113.99 48.79 113.95 47.96C115.02 48.74 116.3 49.75 117.34 50.79C119.36 52.81 120.93 55.13 120.95 55.15C121.34 55.72 122.12 55.87 122.69 55.49C123.26 55.11 123.42 54.33 123.03 53.76Z" fill="#9B9B9C" style="fill:#9B9B9C;fill:color(display-p3 0.6078 0.6078 0.6118);fill-opacity:1;"/>
<path d="M72.32 67.8601C71.63 67.8701 71.08 68.4401 71.09 69.1301L71.21 77.7801C71.22 78.4601 71.78 79.0101 72.46 79.0101C72.47 79.0101 72.47 79.0101 72.48 79.0101C73.17 79.0001 73.72 78.4301 73.71 77.7401L73.59 69.0901C73.58 68.4001 73.04 67.8801 72.32 67.8601Z" fill="#9B9B9C" style="fill:#9B9B9C;fill:color(display-p3 0.6078 0.6078 0.6118);fill-opacity:1;"/>
<path d="M109.68 39.6901C110.61 40.3801 111.43 41.0701 112.11 41.7201C112.01 41.9101 111.96 42.0201 111.95 42.0301L113 42.6201C114.33 44.0301 114.99 45.0701 115.01 45.1001L116.72 44.0601C116.64 43.9301 115.93 42.7901 114.51 41.2701C114.98 40.1501 115.59 38.4901 116.18 36.2901C118.79 38.3901 120.44 40.0401 120.46 40.0701L121.88 38.6701C121.77 38.5501 119.79 36.5701 116.7 34.1601C116.82 33.6301 116.94 33.0801 117.05 32.5101C117.33 31.0801 117.51 29.7201 117.64 28.4501C119.99 29.6301 121.29 30.6001 121.33 30.6201L122.55 29.0301C122.4 28.9101 120.73 27.6701 117.8 26.2701C117.92 23.6001 117.77 21.5001 117.64 20.3201C118.48 20.4801 118.97 20.5901 118.99 20.6001L119.47 18.6601C119.24 18.6001 115.82 17.7801 110.51 17.4101C110.19 15.7601 109.91 14.7101 109.88 14.5901L107.95 15.1101C107.96 15.1401 108.17 15.9501 108.44 17.2901C107.4 17.2501 106.3 17.2301 105.15 17.2301C104.56 15.2401 103.77 13.5401 102.93 12.1001C106.69 11.8001 109.5 11.9901 109.54 11.9901L109.68 9.99011C109.49 9.98011 106.08 9.75011 101.67 10.1901C99.7399 7.57011 97.8899 6.28011 97.7499 6.19011L96.6199 7.84011C96.6499 7.86011 97.8799 8.73011 99.3299 10.4801C98.4499 10.6101 97.5499 10.7701 96.6499 10.9701C96.0599 11.1001 95.4899 11.2301 94.9199 11.3701C92.3199 8.50011 89.6799 6.63011 89.5099 6.52011L88.3599 8.16011C88.3899 8.18011 90.4799 9.66011 92.6999 11.9501C90.7099 12.5001 88.8699 13.1001 87.2999 13.6501C86.9499 13.4301 86.6999 13.3101 86.6499 13.2801L86.2899 14.0101C84.2399 14.7601 82.7799 15.3801 82.2199 15.6201L83.9699 12.7001L76.5799 4.96011C76.0999 4.46011 75.3099 4.44011 74.8099 4.92011C74.3099 5.40011 74.2899 6.19011 74.7699 6.69011L80.8399 13.0601L80.0399 14.3901C79.1999 14.4501 77.6799 14.5701 76.0499 14.7901C73.6499 15.1201 71.5099 15.5401 71.4199 15.5601C70.7399 15.7001 70.2999 16.3501 70.4399 17.0301C70.5599 17.6201 71.0799 18.0301 71.6599 18.0301C71.7399 18.0301 71.8199 18.0201 71.9099 18.0101C71.9299 18.0101 74.0699 17.5801 76.3899 17.2601C78.6899 16.9501 80.8199 16.8401 80.8399 16.8401L81.5099 16.8101L82.0399 15.9301L82.4799 16.9101L81.2899 18.0101C81.2999 18.0301 82.2799 19.1001 83.6899 21.3401C80.6299 22.5801 78.7199 23.6501 78.5499 23.7501L79.5399 25.4901C79.5799 25.4701 81.5599 24.3601 84.7399 23.1001C85.0799 23.6901 85.4299 24.3401 85.7899 25.0401C80.8199 27.0401 77.5999 29.4001 77.3699 29.5701L78.5699 31.1701C78.6199 31.1301 81.7699 28.8301 86.6299 26.8801C87.3499 28.6901 87.8099 30.5901 88.0999 32.5501C86.5999 32.6601 85.1499 32.8201 83.7799 33.0201C83.5299 31.6001 83.3099 30.6801 83.2899 30.5801L81.3399 31.0501C81.3499 31.0701 81.5499 31.9501 81.7899 33.3401C80.1999 33.6101 78.7599 33.9101 77.5399 34.1901C77.2299 33.0201 76.9199 32.5301 76.8099 32.3801L75.1899 33.5601C75.1999 33.5701 75.3699 33.8701 75.5899 34.6801C74.3299 35.0101 73.5599 35.2601 73.4299 35.3001L74.0399 37.2001C74.0699 37.1901 74.7799 36.9701 75.9899 36.6501C76.1199 37.4801 76.2399 38.5101 76.3199 39.7801C74.9299 40.1101 73.6699 40.4501 72.5599 40.7801C72.5499 40.5301 72.5399 40.3701 72.5399 40.3301L70.5399 40.4101C70.5399 40.4201 70.5599 40.8001 70.5799 41.3901C68.9499 41.9201 67.9499 42.3201 67.8199 42.3801L68.5699 44.2301C68.5999 44.2201 69.3499 43.9201 70.6499 43.4901C70.6699 44.1301 70.6799 44.8201 70.6899 45.5201C69.6499 45.7601 68.7099 46.0001 67.8899 46.2301L66.2099 45.9601L66.0799 46.7601C64.4599 47.2801 63.5599 47.6501 63.4599 47.7001L64.2499 49.5401C64.2699 49.5301 64.7699 49.3201 65.7199 49.0001L65.2199 52.1501C62.2499 53.2001 60.0499 54.3301 58.9199 55.2301C58.7199 55.0901 58.4999 54.9801 58.2399 54.9801C58.1099 54.9801 55.0899 54.8901 53.0799 55.0901C49.8999 55.4201 47.3999 55.9601 47.2999 55.9801C46.6299 56.1301 46.1999 56.7901 46.3399 57.4701C46.4699 58.0601 46.9799 58.4501 47.5599 58.4501C47.6499 58.4501 47.7399 58.4401 47.8299 58.4201C47.8499 58.4101 50.2999 57.8901 53.3399 57.5701C55.1899 57.3801 58.1399 57.4701 58.1699 57.4701C58.8599 57.5001 59.3799 56.9801 59.4399 56.3301H60.0699C60.0699 56.6501 59.9099 56.8901 59.8199 56.9701C60.1199 56.6901 61.8799 55.6201 64.8399 54.4601L64.7899 54.7601L66.7699 55.0701L66.9899 53.6801C67.9799 53.3501 69.0699 53.0201 70.2499 52.7201C70.0299 54.1201 69.7599 55.3301 69.5099 56.2901C68.0999 56.6101 67.2099 56.8701 67.1199 56.9001L67.7099 58.8101C67.7199 58.8101 68.1299 58.6801 68.8299 58.5101C68.7899 58.6101 68.7699 58.6701 68.7699 58.6801L70.6299 59.4201C70.6499 59.3601 70.8499 58.8601 71.1199 58.0001C72.1899 57.7901 73.4599 57.5701 74.8499 57.4101C74.5999 58.3501 74.3399 59.2301 74.0799 60.0501C71.7999 60.4201 70.3599 61.0301 70.2799 61.0601L71.0699 62.8901C71.0799 62.8801 71.9299 62.5301 73.3299 62.2201C72.4199 64.7201 71.6499 66.2501 71.6299 66.2901L73.4099 67.2001C73.4999 67.0201 74.5099 65.0301 75.5899 61.8601C75.9999 61.8201 76.4299 61.7901 76.8899 61.7801C80.2599 61.6901 81.9599 62.4401 81.9699 62.4501L82.8199 60.6401C82.7899 60.6301 82.4999 60.5001 81.9899 60.3501C82.2099 59.5101 82.4899 58.4001 82.7799 57.0401C86.0699 56.9601 87.2699 56.9001 87.3399 56.9001L88.0599 56.8601L88.2499 56.1601C88.2899 56.0101 88.8599 53.8701 89.4099 50.8901C94.7399 51.0601 95.9099 51.8401 95.9699 51.8901L96.6199 51.1301L97.3499 50.4401C97.2499 50.3301 97.0499 50.1701 96.6799 50.0001C96.7299 49.3801 96.8099 48.1501 96.8799 46.5301C97.3899 46.6801 97.8599 46.8301 98.2999 46.9801C97.7599 48.0201 97.4099 48.6201 97.3899 48.6501L99.0999 49.6801C99.1799 49.5501 99.5799 48.8701 100.16 47.7501C101.71 48.4901 102.44 49.1201 102.45 49.1401L103.8 47.6701C103.71 47.5901 102.84 46.8201 101.05 45.9501C101.5 45.0001 102 43.8901 102.5 42.6501C103.8 43.4101 104.79 44.2101 105.5 44.9201C105.04 45.8701 104.72 46.4001 104.71 46.4201L106.41 47.4801C106.44 47.4301 106.63 47.1201 106.91 46.6001C107 46.7301 107.05 46.8301 107.07 46.8601L108.83 45.9001C108.79 45.8201 108.49 45.3101 107.89 44.5701C108.46 43.2901 109.09 41.6601 109.68 39.6901ZM112.96 39.7601C112.18 39.0501 111.28 38.3201 110.24 37.6001C110.61 36.1001 110.92 34.4601 111.16 32.6801C111.23 32.7201 111.3 32.7601 111.37 32.8101C112.47 33.5301 113.51 34.2601 114.46 34.9701C113.95 37.0001 113.41 38.6001 112.96 39.7601ZM94.9799 43.9701C93.6199 43.7101 92.0699 43.5201 90.3599 43.4201C90.3599 43.3501 90.3699 43.2901 90.3699 43.2201C90.4299 42.1401 90.4699 41.0601 90.4899 39.9701C91.4299 39.9701 92.3799 39.9901 93.3299 40.0401C93.9199 40.0701 94.4799 40.1301 95.0199 40.2001C95.0299 41.5501 95.0099 42.8201 94.9799 43.9701ZM84.1699 48.8801C84.2999 47.7901 84.4099 46.6501 84.4999 45.4801C84.5199 45.4801 84.5399 45.4801 84.5699 45.4701C85.8699 45.3701 87.0599 45.3501 88.2099 45.3601C88.0899 46.5601 87.9299 47.7301 87.7599 48.8301C86.6799 48.8201 85.4899 48.8401 84.1699 48.8801ZM81.0799 49.0101C80.1499 49.0601 79.2299 49.1401 78.3299 49.2301C78.4099 48.2601 78.4699 47.2801 78.4899 46.2801C78.4899 46.2201 78.4899 46.1701 78.4899 46.1201C79.7499 45.9501 81.0699 45.7901 82.4899 45.6601C82.3999 46.8001 82.2799 47.9001 82.1499 48.9701C81.7899 48.9701 81.4399 48.9901 81.0799 49.0101ZM81.8699 50.9701C81.6499 52.4501 81.4099 53.8101 81.1699 55.0401C80.4899 55.0501 79.7599 55.0701 78.9399 55.0801C78.4399 55.0901 77.9499 55.1101 77.4599 55.1401C77.7199 53.9101 77.9399 52.6101 78.1099 51.2701C79.0999 51.1601 80.1199 51.0701 81.1799 51.0101C81.4199 51.0001 81.6399 50.9901 81.8699 50.9701ZM72.6999 47.1101C73.8499 46.8701 75.1099 46.6301 76.4699 46.4101C76.4499 47.4501 76.3799 48.4701 76.2899 49.4701C75.0099 49.6501 73.7799 49.8601 72.5899 50.1001C72.6099 49.8501 72.6299 49.6101 72.6399 49.3501C72.6799 48.7201 72.6999 47.9401 72.6999 47.1101ZM82.6099 43.6301C81.1599 43.7601 79.7899 43.9201 78.4899 44.0901C78.4799 43.1001 78.4599 42.1901 78.4299 41.3601C79.7399 41.0801 81.1399 40.8201 82.5999 40.6001C82.6399 41.6001 82.6499 42.6101 82.6099 43.6301ZM84.6199 43.4701C84.6499 42.4101 84.6399 41.3601 84.5999 40.3401C85.8699 40.1901 87.1699 40.0801 88.4899 40.0201C88.4699 41.0601 88.4299 42.0901 88.3799 43.1201C88.3799 43.2001 88.3699 43.2801 88.3699 43.3601C87.1899 43.3501 85.9499 43.3801 84.6199 43.4701ZM93.4499 38.0501C92.4599 37.9901 91.4799 37.9701 90.4999 37.9701C90.4899 36.7901 90.4399 35.6101 90.3399 34.4401C91.8299 34.3901 93.3399 34.4001 94.8399 34.5001C94.9199 35.7501 94.9599 36.9901 94.9899 38.2001C94.4899 38.1401 93.9899 38.0801 93.4499 38.0501ZM96.8599 34.6901C97.5999 34.7801 98.3399 34.8901 99.0599 35.0401C100.34 35.2901 101.53 35.6201 102.64 36.0101C102.26 37.3601 101.85 38.6501 101.41 39.8501C100.14 39.3101 98.6799 38.8401 96.9999 38.5101C96.9799 37.2701 96.9399 35.9901 96.8599 34.6901ZM99.4499 33.0801C98.5499 32.9001 97.6399 32.7701 96.7199 32.6701C96.5799 30.9601 96.3799 29.2501 96.1199 27.6101C95.9399 26.5001 95.6799 25.4801 95.3799 24.5101C96.5399 24.3501 97.7399 24.2601 98.9699 24.2301C99.2199 26.1701 99.0399 27.3501 99.0299 27.3701L99.3399 27.4301V28.9401C99.3699 28.9401 101.28 28.9601 103.96 29.6301C103.77 31.1501 103.49 32.6301 103.15 34.0601C101.99 33.6801 100.77 33.3301 99.4499 33.0801ZM103.61 19.2601C103.85 20.3201 104.01 21.3901 104.11 22.4601C103 22.3401 101.85 22.2601 100.65 22.2301C100.46 21.3801 100.2 20.4601 99.8399 19.4701C101.14 19.3601 102.4 19.2901 103.61 19.2601ZM109.45 29.4601C108.3 28.9201 107.19 28.4901 106.14 28.1601C106.23 27.0401 106.26 25.9101 106.25 24.7701C107.38 24.9601 108.45 25.1801 109.46 25.4401C109.52 26.7401 109.52 28.1001 109.45 29.4601ZM104.15 27.6101C102.93 27.3201 101.88 27.1501 101.07 27.0601C101.11 26.4701 101.14 25.5001 100.99 24.2401C102.11 24.2801 103.19 24.3601 104.23 24.4801C104.26 25.5301 104.23 26.5801 104.15 27.6101ZM98.5899 22.2401C97.2499 22.2801 95.9499 22.4001 94.6899 22.5901C94.3599 21.7901 93.9899 21.0701 93.6099 20.3901C94.9499 20.1001 96.3399 19.8601 97.7799 19.6901C98.1299 20.5901 98.3999 21.4501 98.5899 22.2401ZM105.92 30.2001C106.99 30.5601 108.12 31.0101 109.27 31.6001C109.07 33.3501 108.79 34.9701 108.45 36.4601C107.43 35.8601 106.3 35.2901 105.07 34.7801C105.42 33.3101 105.71 31.7701 105.92 30.2001ZM115.1 32.1301C115.05 32.3701 115 32.6101 114.95 32.8401C114.17 32.2701 113.34 31.7001 112.46 31.1301C112.1 30.9001 111.75 30.6801 111.39 30.4801C111.51 28.9601 111.53 27.4501 111.48 26.0001C113.06 26.4801 114.48 27.0101 115.71 27.5401C115.6 28.9601 115.41 30.5001 115.1 32.1301ZM115.58 19.9701C115.68 20.7601 115.89 22.7201 115.82 25.4001C114.51 24.8601 113.03 24.3301 111.37 23.8501C111.25 22.2301 111.06 20.7501 110.86 19.4501C112.7 19.5901 114.31 19.7801 115.58 19.9701ZM109.31 23.3201C108.31 23.0901 107.25 22.9001 106.15 22.7301C106.06 21.5701 105.89 20.4001 105.65 19.2501C106.75 19.2501 107.81 19.2801 108.81 19.3301C109 20.4901 109.18 21.8501 109.31 23.3201ZM97.0799 12.9401C98.3099 12.6701 99.5199 12.4801 100.69 12.3301C101.56 13.6601 102.41 15.3101 103.05 17.2701C101.76 17.3101 100.42 17.4001 99.0399 17.5201C98.8399 17.0901 98.6299 16.6601 98.3999 16.2201C97.8099 15.1201 97.1099 14.0701 96.3599 13.1101C96.5999 13.0501 96.8399 13.0001 97.0799 12.9401ZM94.2199 13.6301C95.1199 14.7101 95.9699 15.9001 96.6299 17.1601C96.7399 17.3601 96.8299 17.5601 96.9299 17.7601C95.3799 17.9701 93.8999 18.2501 92.4799 18.5701C91.4099 17.0701 90.2699 15.9301 89.2899 15.1001C90.7799 14.6101 92.4499 14.1001 94.2199 13.6301ZM83.3599 17.3401C84.0399 17.0501 85.3299 16.5201 87.0499 15.9001C87.9299 16.5401 89.1499 17.5801 90.3599 19.1201C88.6299 19.5901 87.0399 20.1001 85.6199 20.6201C84.6499 19.0401 83.8599 17.9701 83.3599 17.3401ZM87.6599 24.2701C87.3099 23.5901 86.9799 22.9601 86.6499 22.3801C88.1299 21.8501 89.7799 21.3301 91.5699 20.8701C91.9599 21.5001 92.3199 22.2001 92.6599 22.9601C90.8899 23.3301 89.2299 23.8101 87.6899 24.3401C87.6799 24.3101 87.6699 24.2901 87.6599 24.2701ZM88.5199 26.1801C90.0299 25.6601 91.6599 25.1901 93.3899 24.8401C93.6999 25.7901 93.9599 26.8101 94.1399 27.9201C94.3799 29.4001 94.5599 30.9301 94.6899 32.4801C93.1499 32.3901 91.6199 32.3801 90.1099 32.4301C89.8199 30.2901 89.3099 28.1901 88.5199 26.1801ZM88.3399 34.5501C88.4399 35.7001 88.4899 36.8501 88.4999 38.0201C87.1299 38.0801 85.7799 38.1901 84.4699 38.3301C84.3699 37.1301 84.2399 36.0101 84.0999 35.0101C85.4499 34.8201 86.8699 34.6501 88.3399 34.5501ZM77.9699 36.1501C79.1599 35.8801 80.5599 35.5801 82.1199 35.3201C82.2599 36.3101 82.3899 37.4101 82.4799 38.5901C81.0199 38.8001 79.6299 39.0501 78.3099 39.3201C78.2299 38.0601 78.0999 37.0101 77.9699 36.1501ZM72.6499 42.8401C73.7399 42.5101 75.0199 42.1601 76.4399 41.8101C76.4699 42.6001 76.4899 43.4401 76.4899 44.3801C75.1199 44.5901 73.8499 44.8201 72.6899 45.0601C72.6799 44.2801 72.6699 43.5201 72.6499 42.8401ZM67.3799 51.4201L67.8699 48.3101C68.6799 48.0701 69.6199 47.8201 70.6999 47.5601C70.6899 48.1801 70.6799 48.7601 70.6499 49.2401C70.6199 49.6901 70.5899 50.1301 70.5499 50.5501C69.4399 50.8301 68.3799 51.1201 67.3799 51.4201ZM71.7199 55.8201C71.9599 54.7901 72.1899 53.5701 72.3799 52.1901C73.5299 51.9401 74.7699 51.7201 76.0599 51.5301C75.8799 52.8401 75.6399 54.1101 75.3799 55.3101C74.0499 55.4401 72.8099 55.6301 71.7199 55.8201ZM80.0599 59.9201C79.1899 59.8001 78.1399 59.7201 76.8699 59.7601C76.6699 59.7701 76.4799 59.7801 76.2899 59.7901C76.5399 58.9701 76.7799 58.1001 76.9999 57.1801C77.6399 57.1401 78.2999 57.1001 78.9699 57.0901C79.6099 57.0801 80.1899 57.0701 80.7399 57.0601C80.4899 58.2201 80.2499 59.1901 80.0599 59.9201ZM86.5299 54.9001C85.9099 54.9201 84.8299 54.9601 83.2199 55.0001C83.4599 53.7501 83.6899 52.3801 83.9099 50.8901C85.2099 50.8501 86.3699 50.8301 87.4099 50.8301C87.0699 52.6301 86.7299 54.0901 86.5299 54.9001ZM94.7399 49.3801C93.6099 49.1501 92.0199 48.9601 89.7699 48.8701C89.9399 47.7701 90.0899 46.6101 90.2099 45.4201C91.9899 45.5201 93.5499 45.7401 94.9199 46.0201C94.8599 47.4801 94.7899 48.6501 94.7399 49.3801ZM99.2199 45.1401C98.5599 44.8901 97.7999 44.6601 96.9799 44.4401C97.0099 43.2501 97.3699 42.0001 97.3699 40.6001C98.7599 40.9001 99.6499 41.2501 100.71 41.7101C100.2 43.0001 99.6899 44.1601 99.2199 45.1401ZM103.26 40.7301C103.71 39.4901 104.15 38.1501 104.55 36.7301C105.8 37.2701 106.91 37.8701 107.92 38.5001C107.42 40.2601 106.88 41.7601 106.39 42.9601C105.58 42.2401 104.56 41.4601 103.26 40.7301Z" fill="#9B9B9C" style="fill:#9B9B9C;fill:color(display-p3 0.6078 0.6078 0.6118);fill-opacity:1;"/>
<path d="M114.65 11.59C96.4702 -4.74002 80.8202 7.89998 80.0602 12.02C79.6402 14.28 78.6502 20.26 77.3502 24.27C76.0502 28.28 70.4102 36.63 65.9702 42.05C61.5202 47.47 56.5602 52.89 56.0002 56.69C55.5702 59.62 55.5702 61.46 54.8102 63.63C54.0502 65.8 50.0402 68.4 50.1502 70.46C50.2602 72.52 55.9602 78.12 57.3102 78.37C59.2402 78.73 61.2602 75.21 63.3202 73.91C65.3802 72.61 68.1502 71.86 71.7302 71.21C75.3102 70.56 79.5802 66.33 83.9702 62.79C89.8602 58.04 98.1002 51.81 104.69 50.29C110.33 48.99 116.57 48.36 118.78 47.25C121.15 46.06 131.67 26.87 114.65 11.59ZM109.93 11.89C110.67 11.14 112.19 12.3 113.7 13.74C115.19 15.17 116.7 16.57 115.92 17.44C115.37 18.05 113.53 16.77 112.29 15.61C111 14.38 109.29 12.54 109.93 11.89ZM75.8502 63.78C71.5102 67.14 67.8702 67.69 63.4802 63.3C59.5802 59.4 61.5102 54.43 63.6802 51.83C64.7602 50.53 68.7602 45.3 72.9602 39.7C72.9902 39.68 92.6602 23.46 98.1602 29.75C102.28 34.47 92.6402 49.83 91.6202 51.42C85.6202 55.32 79.3002 61.11 75.8502 63.78ZM97.9402 48.14C100.83 42.54 105.08 32.36 100.86 27.57C94.8302 20.71 83.5802 27.56 79.1302 30.73C81.6602 25.63 82.4602 20.05 83.2602 16.23C85.6302 16.51 94.2702 17.97 101.85 24.99C109.57 32.13 110.68 42.26 110.84 44.81C106.86 45.78 101.89 46.69 97.9402 48.14ZM117.57 41.94C117.1 42.63 116.05 43.2 114.64 43.71L114.65 43.68C114.65 43.68 114.45 31.54 104.57 22.33C96.7302 15.01 87.8502 12.88 84.5102 12.31C84.6102 12.16 84.7102 12.02 84.8202 11.91C93.8202 3.33998 106.94 11.15 106.94 11.15C106.94 11.15 106.2 14.39 110.17 18.03C114.71 22.19 117.56 21.02 117.56 21.02C117.56 21.02 123.52 33.27 117.57 41.94Z" fill="#5E6367" style="fill:#5E6367;fill:color(display-p3 0.3686 0.3882 0.4039);fill-opacity:1;"/>
<path d="M62.7401 57.7399C63.0701 60.7199 67.2601 64.9199 70.1001 65.2299C72.4901 65.4999 74.3401 63.7699 74.3401 62.3099C74.3401 60.7599 67.2401 53.6899 65.9201 53.4199C64.6001 53.1499 62.4901 55.4999 62.7401 57.7399Z" fill="#5E6367" style="fill:#5E6367;fill:color(display-p3 0.3686 0.3882 0.4039);fill-opacity:1;"/>
<path d="M4.06982 116.15C4.06982 117.33 10.6798 124.2 11.3998 124.2C12.1198 124.2 17.7498 117.66 18.2698 116.08C18.6698 114.89 18.7898 114.38 18.3998 113.92C18.0098 113.46 14.3698 109.73 13.7498 109.27C13.2998 108.94 12.1798 109.34 11.2598 109.86C10.3598 110.39 4.06982 115.23 4.06982 116.15Z" fill="#5F6367" style="fill:#5F6367;fill:color(display-p3 0.3725 0.3882 0.4039);fill-opacity:1;"/>
<path d="M51.4702 74.8499C50.2902 73.5499 40.6102 84.6699 31.8402 93.2399C23.0702 101.81 16.0402 109.01 15.6102 109.54C15.0202 110.26 16.4002 111.83 17.2502 111.11C18.1002 110.39 25.5602 103.26 34.2702 94.2299C42.9802 85.1999 52.7202 76.2199 51.4702 74.8499Z" fill="#C7C7C7" style="fill:#C7C7C7;fill:color(display-p3 0.7804 0.7804 0.7804);fill-opacity:1;"/>
<path d="M99.4021 79.0007C90.9721 79.0607 81.1821 84.0107 81.0021 96.8607C80.8421 108.151 90.0321 115.131 98.7921 115.191C107.922 115.251 116.862 108.791 117.122 97.4007C117.382 85.6407 108.852 78.9207 99.4021 79.0007Z" fill="#FF6011" style="fill:#FF6011;fill:color(display-p3 1.0000 0.3765 0.0667);fill-opacity:1;"/>
<path d="M91.7125 104.471C97.1825 107.011 104.773 105.601 107.213 99.8907C110.543 92.1007 106.583 85.7007 101.593 83.6407C96.8625 81.6907 90.6725 82.9907 87.5325 88.1607C85.4525 91.6007 84.3025 101.031 91.7125 104.471Z" fill="#FF8F50" style="fill:#FF8F50;fill:color(display-p3 1.0000 0.5608 0.3137);fill-opacity:1;"/>
<path d="M89.1819 101.171C86.7319 101.891 82.8119 92.9408 88.6419 86.5508C94.2319 80.4208 102.542 82.9708 102.722 85.4708C103.062 90.0508 96.9219 86.4808 93.4219 90.7308C89.7519 95.1808 93.0919 100.031 89.1819 101.171Z" fill="#FFAF76" style="fill:#FFAF76;fill:color(display-p3 1.0000 0.6863 0.4627);fill-opacity:1;"/>
</svg>
