<svg width="128" height="128" viewBox="0 0 128 128" fill="none" xmlns="http://www.w3.org/2000/svg">
<path d="M63.6 118.8C35.7 118.8 5.59998 101.3 5.59998 62.9C5.59998 24.5 35.7 7 63.6 7C79.1 7 93.4 12.1 104 21.4C115.5 31.6 121.6 46 121.6 62.9C121.6 79.8 115.5 94.1 104 104.3C93.4 113.6 79 118.8 63.6 118.8Z" fill="url(#paint0_radial_169_7849)" style=""/>
<path d="M111.49 29.6699C116.82 38.2699 119.6 48.5099 119.6 59.8999C119.6 76.7999 113.5 91.0999 102 101.3C91.4 110.6 77 115.8 61.6 115.8C43.54 115.8 24.6 108.45 13.42 92.8599C24.18 110.52 44.42 118.8 63.6 118.8C79 118.8 93.4 113.6 104 104.3C115.5 94.0999 121.6 79.7999 121.6 62.8999C121.6 50.1599 118.13 38.8399 111.49 29.6699Z" fill="#EB8F00" style="fill:#EB8F00;fill:color(display-p3 0.9216 0.5608 0.0000);fill-opacity:1;"/>
<path d="M63.6 118.8C35.7 118.8 5.59998 101.3 5.59998 62.9C5.59998 24.5 35.7 7 63.6 7C79.1 7 93.4 12.1 104 21.4C115.5 31.6 121.6 46 121.6 62.9C121.6 79.8 115.5 94.1 104 104.3C93.4 113.6 79 118.8 63.6 118.8Z" fill="url(#paint1_linear_169_7849)" style=""/>
<path d="M63.6 118.8C35.7 118.8 5.59998 101.3 5.59998 62.9C5.59998 24.5 35.7 7 63.6 7C79.1 7 93.4 12.1 104 21.4C115.5 31.6 121.6 46 121.6 62.9C121.6 79.8 115.5 94.1 104 104.3C93.4 113.6 79 118.8 63.6 118.8Z" fill="url(#paint2_radial_169_7849)" style=""/>
<path d="M63.6 118.8C35.7 118.8 5.59998 101.3 5.59998 62.9C5.59998 24.5 35.7 7 63.6 7C79.1 7 93.4 12.1 104 21.4C115.5 31.6 121.6 46 121.6 62.9C121.6 79.8 115.5 94.1 104 104.3C93.4 113.6 79 118.8 63.6 118.8Z" fill="url(#paint3_radial_169_7849)" style=""/>
<path d="M63.6 118.8C35.7 118.8 5.59998 101.3 5.59998 62.9C5.59998 24.5 35.7 7 63.6 7C79.1 7 93.4 12.1 104 21.4C115.5 31.6 121.6 46 121.6 62.9C121.6 79.8 115.5 94.1 104 104.3C93.4 113.6 79 118.8 63.6 118.8Z" fill="url(#paint4_linear_169_7849)" style=""/>
<path d="M64 99.9C67.85 99.9 71.67 100.56 75.3 101.83C83 104.52 89.67 95.83 85.2 89.03C80.54 82 73.29 80 64 80C54.71 80 47.47 81.91 42.81 89C38.33 95.81 45.01 104.48 52.71 101.8C56.34 100.53 60.16 99.89 64 99.9Z" fill="#5D4037" style="fill:#5D4037;fill:color(display-p3 0.3647 0.2510 0.2157);fill-opacity:1;"/>
<path d="M19.52 107C11.06 107 4.52002 98.7901 4.52002 91.7601C4.52002 86.8201 6.73002 81.0901 9.86002 73.1501C10.25 71.9801 10.77 70.8001 11.29 69.5001C12.78 65.7801 14.09 61.7501 16.09 58.2601C17.04 56.5601 19.19 55.9601 20.88 56.9101C21.44 57.2301 21.91 57.6901 22.23 58.2601C24.09 61.6901 25.37 65.4001 27.3 69.7301C32.77 81.9701 34.3 86.9201 34.3 91.8601C34.49 98.8301 27.85 107 19.52 107Z" fill="url(#paint5_radial_169_7849)" style=""/>
<path d="M28.67 97.6502C26.76 100.65 22.42 100.05 22.42 95.1402C22.42 92.0002 23.06 75.8802 25.76 78.1402C30.14 81.8102 31.39 93.4702 28.67 97.6502Z" fill="#81D4FA" style="fill:#81D4FA;fill:color(display-p3 0.5059 0.8314 0.9804);fill-opacity:1;"/>
<path d="M27.39 39.7701C25.19 40.1601 25.08 43.3601 27.48 43.4701C32.78 43.5501 37.9 41.5901 41.8 38.0001C43.28 36.7201 44.54 35.2101 45.51 33.5101C46.09 32.6801 45.89 31.5401 45.07 30.9501C44.25 30.3601 43.1 30.5701 42.51 31.3901L42.41 31.4901C38.48 35.8801 33.19 38.7901 27.39 39.7701Z" fill="#5D4037" style="fill:#5D4037;fill:color(display-p3 0.3647 0.2510 0.2157);fill-opacity:1;"/>
<path d="M86.12 31.52L86.02 31.42C85.44 30.59 84.29 30.39 83.46 30.97C82.63 31.55 82.43 32.7 83.02 33.53C84 35.22 85.26 36.73 86.75 38C90.65 41.59 95.77 43.54 101.07 43.45C103.47 43.34 103.36 40.14 101.15 39.75C95.35 38.78 90.06 35.88 86.12 31.52Z" fill="#5D4037" style="fill:#5D4037;fill:color(display-p3 0.3647 0.2510 0.2157);fill-opacity:1;"/>
<path d="M44 49.9402C39.81 49.9402 36 53.4802 36 59.3602C36 65.2402 39.81 68.7702 44 68.7702C48.2 68.7702 52 65.2302 52 59.3602C52 53.4902 48.24 49.9402 44 49.9402Z" fill="#5D4037" style="fill:#5D4037;fill:color(display-p3 0.3647 0.2510 0.2157);fill-opacity:1;"/>
<path d="M43.65 53.8701C42.23 53.1901 40.52 53.7901 39.83 55.2101C39.3 56.3201 39.54 57.6501 40.43 58.5101C41.85 59.1901 43.56 58.5901 44.25 57.1701C44.78 56.0601 44.54 54.7301 43.65 53.8701Z" fill="#836258" style="fill:#836258;fill:color(display-p3 0.5125 0.3838 0.3438);fill-opacity:1;"/>
<path d="M82.4 49.9402C78.21 49.9402 74.4 53.4802 74.4 59.3602C74.4 65.2402 78.21 68.7702 82.4 68.7702C86.59 68.7702 90.4 65.2302 90.4 59.3602C90.4 53.4902 86.59 49.9402 82.4 49.9402Z" fill="#5D4037" style="fill:#5D4037;fill:color(display-p3 0.3647 0.2510 0.2157);fill-opacity:1;"/>
<path d="M82 53.8701C80.58 53.1901 78.87 53.7901 78.18 55.2101C77.65 56.3201 77.89 57.6501 78.78 58.5101C80.2 59.1901 81.91 58.5901 82.6 57.1701C83.13 56.0601 82.89 54.7301 82 53.8701Z" fill="#836258" style="fill:#836258;fill:color(display-p3 0.5125 0.3838 0.3438);fill-opacity:1;"/>
<defs>
<radialGradient id="paint0_radial_169_7849" cx="0" cy="0" r="1" gradientUnits="userSpaceOnUse" gradientTransform="translate(63.6 62.9) scale(56.9597 56.9597)">
<stop offset="0.5" stop-color="#FDE030" style="stop-color:#FDE030;stop-color:color(display-p3 0.9922 0.8784 0.1882);stop-opacity:1;"/>
<stop offset="0.92" stop-color="#F7C02B" style="stop-color:#F7C02B;stop-color:color(display-p3 0.9686 0.7529 0.1686);stop-opacity:1;"/>
<stop offset="1" stop-color="#F4A223" style="stop-color:#F4A223;stop-color:color(display-p3 0.9569 0.6353 0.1373);stop-opacity:1;"/>
</radialGradient>
<linearGradient id="paint1_linear_169_7849" x1="63.6" y1="118.8" x2="63.6" y2="7" gradientUnits="userSpaceOnUse">
<stop offset="0.39" stop-color="#40C0E7" stop-opacity="0" style="stop-color:none;stop-opacity:0;"/>
<stop offset="1" stop-color="#5F7AFF" style="stop-color:#5F7AFF;stop-color:color(display-p3 0.3725 0.4784 1.0000);stop-opacity:1;"/>
</linearGradient>
<radialGradient id="paint2_radial_169_7849" cx="0" cy="0" r="1" gradientUnits="userSpaceOnUse" gradientTransform="translate(38.599 34.5377) rotate(-43.2082) scale(102.024 101.825)">
<stop offset="0.3533" stop-color="#F9DDBD" style="stop-color:#F9DDBD;stop-color:color(display-p3 0.9765 0.8667 0.7412);stop-opacity:1;"/>
<stop offset="0.8723" stop-color="#FFD29C" style="stop-color:#FFD29C;stop-color:color(display-p3 1.0000 0.8235 0.6118);stop-opacity:1;"/>
</radialGradient>
<radialGradient id="paint3_radial_169_7849" cx="0" cy="0" r="1" gradientUnits="userSpaceOnUse" gradientTransform="translate(38.599 34.5377) rotate(-43.2082) scale(102.024 101.825)">
<stop offset="0.3533" stop-color="#E0BB95" style="stop-color:#E0BB95;stop-color:color(display-p3 0.8784 0.7333 0.5843);stop-opacity:1;"/>
<stop offset="0.8723" stop-color="#CCA47A" style="stop-color:#CCA47A;stop-color:color(display-p3 0.8000 0.6431 0.4784);stop-opacity:1;"/>
</radialGradient>
<linearGradient id="paint4_linear_169_7849" x1="63.6" y1="118.8" x2="63.6" y2="7" gradientUnits="userSpaceOnUse">
<stop offset="0.39" stop-color="#40C0E7" stop-opacity="0" style="stop-color:none;stop-opacity:0;"/>
<stop offset="1" stop-color="#5F7AFF" style="stop-color:#5F7AFF;stop-color:color(display-p3 0.3725 0.4784 1.0000);stop-opacity:1;"/>
</linearGradient>
<radialGradient id="paint5_radial_169_7849" cx="0" cy="0" r="1" gradientUnits="userSpaceOnUse" gradientTransform="translate(20.59 62.9464) scale(33.4 51.436)">
<stop offset="0.46" stop-color="#29B6F6" style="stop-color:#29B6F6;stop-color:color(display-p3 0.1608 0.7137 0.9647);stop-opacity:1;"/>
<stop offset="1" stop-color="#1E88E5" style="stop-color:#1E88E5;stop-color:color(display-p3 0.1176 0.5333 0.8980);stop-opacity:1;"/>
</radialGradient>
</defs>
</svg>
