<svg width="128" height="128" viewBox="0 0 128 128" fill="none" xmlns="http://www.w3.org/2000/svg">
<path d="M101.04 39.4499C101.79 33.7699 103.06 23.7599 102.22 18.2499C101.38 12.7399 99.18 7.65987 94.59 5.64987C90.62 3.91987 85.67 5.74987 82.81 10.0299C81.18 12.4699 80.25 15.4799 79.46 18.4599C78.11 23.5799 76.82 30.5799 76.17 35.8499" stroke="#B97231" style="stroke:#B97231;stroke:color(display-p3 0.7250 0.4470 0.1903);stroke-opacity:1;" stroke-width="3" stroke-miterlimit="10"/>
<path d="M97.29 116.64L121.46 106.57L115.85 81.83L117.05 25.45L55.89 18.27V23.61L41.34 25.45L97.29 116.64Z" fill="#CD9541" style="fill:#CD9541;fill:color(display-p3 0.8042 0.5844 0.2547);fill-opacity:1;"/>
<path d="M36.15 107.44L97.3 116.7L102.5 84.3197V34.6997L41.34 25.4497V75.0597L36.15 107.44Z" fill="#FECF5D" style="fill:#FECF5D;fill:color(display-p3 0.9961 0.8118 0.3647);fill-opacity:1;"/>
<path d="M102.5 34.6999V29.1199L117.05 25.4499L55.77 18.6499L53.81 22.9899L41.34 25.4499L102.5 34.6999Z" fill="#263238" style="fill:#263238;fill:color(display-p3 0.1490 0.1961 0.2196);fill-opacity:1;"/>
<path d="M121.46 106.57C121.04 106.57 106.98 95.4197 106.98 95.4197L97.3 116.7L99.38 82.7697L102.53 34.6997L106.62 86.6497L121.46 106.57Z" fill="#B97231" style="fill:#B97231;fill:color(display-p3 0.7250 0.4470 0.1903);fill-opacity:1;"/>
<path d="M55.95 19.29L54.47 22.71L54.28 23.16L53.81 23.28L46.36 25.19L101.5 33.54V29.12V28.34L102.26 28.15L111.54 25.81L55.95 19.29ZM55.32 18.21L117.04 25.45L102.49 29.12V34.71L41.34 25.45L53.55 22.31L55.32 18.21Z" fill="#CD9541" style="fill:#CD9541;fill:color(display-p3 0.8042 0.5844 0.2547);fill-opacity:1;"/>
<path d="M84.0499 38.4498C84.7999 32.7798 92.6099 10.9998 77.6599 8.21978C66.3599 6.11978 61.3699 30.1898 60.7099 35.4698" stroke="#FECF5D" style="stroke:#FECF5D;stroke:color(display-p3 0.9961 0.8118 0.3647);stroke-opacity:1;" stroke-width="3" stroke-miterlimit="10"/>
<path d="M63.715 28.1451C62.845 31.0751 61.935 36.9951 61.895 37.2551L64.855 37.7051C64.865 37.6451 65.925 31.6051 67.085 28.7751L63.715 28.1451Z" fill="#CD9541" style="fill:#CD9541;fill:color(display-p3 0.8042 0.5844 0.2547);fill-opacity:1;"/>
<path d="M87.0353 31.6949C86.1653 34.6249 85.2553 40.5449 85.2153 40.8049L88.1753 41.2549C88.1853 41.1949 89.4153 35.0549 90.4453 32.3149L87.0353 31.6949Z" fill="#CD9541" style="fill:#CD9541;fill:color(display-p3 0.8042 0.5844 0.2547);fill-opacity:1;"/>
<path d="M81.1599 114.26L72.7599 99.7096L76.7699 60.9196L43.1999 54.3896L61.1999 111.28L81.1599 114.26Z" fill="#CD9541" style="fill:#CD9541;fill:color(display-p3 0.8042 0.5844 0.2547);fill-opacity:1;"/>
<path d="M54.9298 57.0499C54.9298 57.0499 58.7098 36.9799 46.1198 38.3099C39.2698 39.0299 39.5498 54.9599 39.5498 54.9599" stroke="#D7578A" style="stroke:#D7578A;stroke:color(display-p3 0.8431 0.3412 0.5412);stroke-opacity:1;" stroke-width="3" stroke-miterlimit="10"/>
<path d="M53.5399 123.99L72.1099 116.22L67.7899 97.1998L68.7099 53.8598L21.7099 48.3398V52.4498L10.5299 53.8598L53.5399 123.99Z" fill="#D7578A" style="fill:#D7578A;fill:color(display-p3 0.8431 0.3412 0.5412);fill-opacity:1;"/>
<path d="M6.53979 116.88L53.5398 124L57.5298 99.1099V60.9799L10.5298 53.8599V91.9999L6.53979 116.88Z" fill="#FF9FC2" style="fill:#FF9FC2;fill:color(display-p3 1.0000 0.6235 0.7591);fill-opacity:1;"/>
<path d="M57.53 60.9798L61.29 58.0998L68.71 53.8598L21.71 48.3398L17.44 51.0298L10.53 53.8598L57.53 60.9798Z" fill="#263238" style="fill:#263238;fill:color(display-p3 0.1490 0.1961 0.2196);fill-opacity:1;"/>
<path d="M21.89 49.3698L13.84 53.3398L57.32 59.9198L65.81 54.5198L21.89 49.3698ZM21.71 48.3398L68.71 53.8598L57.53 60.9798L10.53 53.8598L21.71 48.3398Z" fill="#D7578A" style="fill:#D7578A;fill:color(display-p3 0.8431 0.3412 0.5412);fill-opacity:1;"/>
<path d="M27.9449 55.6099C27.2749 57.5503 26.5849 61.4916 26.5549 61.6562L29.1949 61.9507C29.2049 61.9074 29.8749 57.9401 30.4949 56.1123L27.9449 55.6099Z" fill="#D7578A" style="fill:#D7578A;fill:color(display-p3 0.8431 0.3412 0.5412);fill-opacity:1;"/>
<path d="M45.8348 57.9916C45.1648 59.932 44.4748 63.8733 44.4448 64.0379L47.0548 64.3237C47.0648 64.2804 47.6048 60.1918 48.2248 58.3641L45.8348 57.9916Z" fill="#D7578A" style="fill:#D7578A;fill:color(display-p3 0.8431 0.3412 0.5412);fill-opacity:1;"/>
<path d="M43.12 64.91C43.7 60.55 49.64 42.1699 38.44 40.6199C29.69 39.4099 25.92 57.5099 25.41 61.5599" stroke="#FF9FC2" style="stroke:#FF9FC2;stroke:color(display-p3 1.0000 0.6235 0.7591);stroke-opacity:1;" stroke-width="3" stroke-miterlimit="10"/>
<path d="M72.1099 116.22L62.6199 108.18L53.5399 124L57.5099 99.2597L57.4699 61.0996L58.5899 60.6396L62.1299 99.4296L72.1099 116.22Z" fill="#AB2C5E" style="fill:#AB2C5E;fill:color(display-p3 0.6706 0.1725 0.3686);fill-opacity:1;"/>
</svg>
