<svg width="129" height="129" viewBox="0 0 129 129" fill="none" xmlns="http://www.w3.org/2000/svg">
<path d="M80.2062 120.5C80.2062 122.71 73.3562 124.5 64.9062 124.5C56.4562 124.5 49.6062 122.71 49.6062 120.5C49.6062 118.29 56.4562 116.49 64.9062 116.49C73.3562 116.49 80.2062 118.28 80.2062 120.5Z" fill="url(#paint0_radial_2634_1471)" style=""/>
<path d="M64.9062 36.35H60.8662V40.63C60.8662 42.57 62.5162 44.14 64.5362 44.14H65.2662C67.2962 44.14 68.9462 42.57 68.9462 40.63V36.35H64.9062Z" fill="#7A4C32" style="fill:#7A4C32;fill:color(display-p3 0.4784 0.2980 0.1961);fill-opacity:1;"/>
<path d="M49.6063 70.62C49.8363 71.83 50.3463 72.96 51.0863 73.94C52.3463 75.61 54.6763 75.48 55.5363 75.5C57.1263 75.54 56.4363 71.43 56.4163 71.3C56.4163 71.3 56.0763 64.85 51.8363 64.85C50.1063 64.89 48.8263 66.47 49.1463 68.17L49.6063 70.62Z" fill="url(#paint1_linear_2634_1471)" style=""/>
<path d="M80.2063 70.62C79.9763 71.83 79.4663 72.96 78.7263 73.94C77.4663 75.61 75.1363 75.48 74.2763 75.5C72.6863 75.54 73.3763 71.43 73.3963 71.3C73.3963 71.3 73.7363 64.85 77.9763 64.85C79.7063 64.89 80.9863 66.47 80.6663 68.17L80.2063 70.62Z" fill="url(#paint2_linear_2634_1471)" style=""/>
<path d="M64.8363 108.98C64.8263 110.52 64.7663 112.62 62.4963 112.62C59.8363 112.62 58.4863 106.76 58.3063 105.31C58.1263 103.87 58.1263 101.17 58.1263 101.17L64.8963 101.16L64.8363 108.98Z" fill="url(#paint3_linear_2634_1471)" style=""/>
<path d="M63.9463 105.75C63.9363 106.84 63.1563 108.32 62.2963 108.32C60.4263 108.32 59.4663 104.19 59.3463 103.18C59.2263 102.17 59.2163 100.98 59.2163 100.98L63.9863 100.97L63.9463 105.75Z" fill="url(#paint4_linear_2634_1471)" style=""/>
<path d="M64.8264 108.98C64.8364 110.52 65.0164 112.62 67.1664 112.62C69.8264 112.62 71.1764 106.76 71.3564 105.31C71.5364 103.86 71.5364 101.17 71.5364 101.17L64.7664 101.16L64.8264 108.98Z" fill="url(#paint5_linear_2634_1471)" style=""/>
<path d="M65.7163 105.75C65.7263 106.84 66.5063 108.32 67.3663 108.32C69.2363 108.32 70.1863 104.19 70.3163 103.18C70.4463 102.17 70.4463 100.98 70.4463 100.98L65.6763 100.97L65.7163 105.75Z" fill="url(#paint6_linear_2634_1471)" style=""/>
<path d="M70.5663 102.46H59.1963C58.1563 102.46 57.2863 101.67 57.1863 100.63L54.1263 68.22H75.6463L72.5763 100.63C72.4863 101.67 71.6163 102.46 70.5663 102.46Z" fill="url(#paint7_linear_2634_1471)" style=""/>
<path opacity="0.5" d="M64.0663 72.57C63.6163 72.84 63.3463 73.34 63.3563 73.86L64.3063 101.44H65.4963L66.2763 73.85C66.2863 73.32 66.0164 72.83 65.5664 72.56H65.5563C65.1063 72.3 64.5263 72.3 64.0663 72.57Z" fill="url(#paint8_linear_2634_1471)" style=""/>
<path d="M74.3163 69.36H79.8763C80.9263 69.36 81.7963 68.56 81.8863 67.52L82.1463 64.64H74.3163V69.36Z" fill="#E5E5E5" style="fill:#E5E5E5;fill:color(display-p3 0.8980 0.8980 0.8980);fill-opacity:1;"/>
<path d="M55.7863 69.36H50.2263C49.1763 69.36 48.3063 68.56 48.2163 67.52L47.9563 64.64H55.7863V69.36Z" fill="#E5E5E5" style="fill:#E5E5E5;fill:color(display-p3 0.8980 0.8980 0.8980);fill-opacity:1;"/>
<path d="M80.4063 38.3C80.4063 38.3 74.4563 36.56 68.6563 35.97L64.9663 40.91L61.1963 36.02C55.4063 36.65 49.3963 38.31 49.3963 38.31C46.6663 39.05 45.5763 41.68 45.9063 45.73L47.7763 66H53.8963L54.5963 73.29H75.2263L75.9263 66H82.0463L83.9063 45.72C84.2263 41.67 83.1463 39.04 80.4063 38.3Z" fill="url(#paint9_linear_2634_1471)" style=""/>
<path d="M69.5263 50.98L64.9363 57.05L60.8263 50.98V41.98H69.5263V50.98Z" fill="#E5E5E5" style="fill:#E5E5E5;fill:color(display-p3 0.8980 0.8980 0.8980);fill-opacity:1;"/>
<path d="M65.0063 57.5999L62.6663 53.7099L63.9163 44.2999H66.1063L67.3563 53.6999L65.0063 57.5999Z" fill="#D32F2F" style="fill:#D32F2F;fill:color(display-p3 0.8275 0.1843 0.1843);fill-opacity:1;"/>
<path d="M66.1063 44.38H63.9163L62.9463 42.17L63.3563 40.89H66.6563L67.0663 42.17L66.1063 44.38Z" fill="#D32F2F" style="fill:#D32F2F;fill:color(display-p3 0.8275 0.1843 0.1843);fill-opacity:1;"/>
<path d="M61.2063 36.01L64.9763 40.9L61.2463 44.15L58.7563 36.33L61.2063 36.01Z" fill="white" style="fill:white;fill-opacity:1;"/>
<path d="M68.6263 35.96L64.9763 40.9L68.6463 44.12L71.2063 36.29C70.2863 36.13 68.6263 35.96 68.6263 35.96Z" fill="white" style="fill:white;fill-opacity:1;"/>
<path d="M75.2962 51.42H70.1462V50.79L72.7262 48.77L75.2962 50.79V51.42Z" fill="#D32F2F" style="fill:#D32F2F;fill:color(display-p3 0.8275 0.1843 0.1843);fill-opacity:1;"/>
<path d="M53.6464 37.35L55.6563 41L52.2563 41.44L64.9063 59.59L64.8964 55.59L58.6863 36.13L53.6464 37.35Z" fill="url(#paint10_linear_2634_1471)" style=""/>
<path d="M76.2662 37.35L74.2662 41L77.6662 41.44L64.8962 59.62V55.62L71.2262 36.13L76.2662 37.35Z" fill="url(#paint11_linear_2634_1471)" style=""/>
<path opacity="0.5" d="M52.5763 48.0799L53.5863 65.0199H54.7863L54.4763 47.8799C54.4563 47.5499 54.1163 47.0499 53.4163 47.1199C52.7163 47.1799 52.5263 47.7499 52.5763 48.0799Z" fill="url(#paint12_linear_2634_1471)" style=""/>
<path opacity="0.5" d="M77.2862 48.0799L76.2462 64.9699L75.1462 65.0099L75.3862 47.8799C75.4062 47.5499 75.7462 47.0499 76.4462 47.1199C77.1462 47.1799 77.3362 47.7499 77.2862 48.0799Z" fill="url(#paint13_linear_2634_1471)" style=""/>
<path d="M65.1363 65.76C66.252 65.76 67.1563 64.8556 67.1563 63.74C67.1563 62.6244 66.252 61.72 65.1363 61.72C64.0207 61.72 63.1163 62.6244 63.1163 63.74C63.1163 64.8556 64.0207 65.76 65.1363 65.76Z" fill="#212121" style="fill:#212121;fill:color(display-p3 0.1294 0.1294 0.1294);fill-opacity:1;"/>
<path d="M74.5863 21.8H71.9763H57.8363H55.2263C53.1363 21.8 51.4363 23.62 51.4363 25.84C51.4363 28.0601 53.1463 29.88 55.2263 29.88H57.8363H71.9763H74.5863C76.6763 29.88 78.3763 28.0601 78.3763 25.84C78.3763 23.62 76.6763 21.8 74.5863 21.8Z" fill="#7A4C32" style="fill:#7A4C32;fill:color(display-p3 0.4784 0.2980 0.1961);fill-opacity:1;"/>
<path d="M64.9062 7.5C58.7362 7.5 53.0262 14.09 53.0262 23.58C53.0262 33.02 58.9062 37.68 64.9062 37.68C70.9062 37.68 76.7862 33.01 76.7862 23.58C76.7862 14.09 71.0762 7.5 64.9062 7.5Z" fill="#A56C43" style="fill:#A56C43;fill:color(display-p3 0.6471 0.4235 0.2627);fill-opacity:1;"/>
<path d="M56.4362 21.9C57.1362 20.84 58.6362 20.48 59.8162 20.72C60.4462 20.84 61.0862 21.14 61.5362 21.62C61.9162 22.03 62.1062 22.78 61.2862 22.79C60.9862 22.8 60.6462 22.57 60.3662 22.48C59.7262 22.29 59.0362 22.24 58.3762 22.35C58.0562 22.4 57.7362 22.51 57.4262 22.61C57.1962 22.69 57.0462 22.84 56.7862 22.78C56.4262 22.69 56.2062 22.25 56.4362 21.9Z" fill="#42312C" style="fill:#42312C;fill:color(display-p3 0.2588 0.1922 0.1725);fill-opacity:1;"/>
<path d="M72.7562 22.7501C71.8862 22.2901 70.8062 22.1701 69.8562 22.3801C69.3962 22.4801 67.3962 23.3101 68.1162 21.8901C68.6962 20.7501 70.5662 20.4801 71.6362 20.7401C72.2062 20.8801 72.8462 21.1701 73.2362 21.6301C73.6162 22.0501 73.5962 23.0901 72.7562 22.7501Z" fill="#42312C" style="fill:#42312C;fill:color(display-p3 0.2588 0.1922 0.1725);fill-opacity:1;"/>
<path d="M67.8863 31.65C66.7563 32.32 63.0563 32.32 61.9263 31.65C61.2763 31.26 60.6163 31.85 60.8863 32.44C61.1463 33.02 63.1663 34.36 64.9163 34.36C66.6663 34.36 68.6563 33.02 68.9163 32.44C69.1863 31.86 68.5363 31.27 67.8863 31.65Z" fill="#473530" style="fill:#473530;fill:color(display-p3 0.2784 0.2078 0.1882);fill-opacity:1;"/>
<path d="M66.2763 28.31C66.2363 28.3 66.1963 28.29 66.1663 28.28H63.6563C63.6163 28.28 63.5763 28.29 63.5463 28.31C63.3163 28.4 63.1963 28.64 63.3063 28.89C63.4163 29.14 63.9163 29.84 64.9163 29.84C65.9263 29.84 66.4163 29.14 66.5263 28.89C66.6263 28.64 66.4963 28.41 66.2763 28.31Z" fill="#875334" style="fill:#875334;fill:color(display-p3 0.5294 0.3255 0.2039);fill-opacity:1;"/>
<path d="M76.2662 27.66C76.2462 27.49 77.5162 25.37 77.7362 23.22C77.8162 22.47 78.3462 19.96 77.8062 18.38C76.1862 11.9 71.8462 8 64.8562 8C57.5162 8 53.0062 11.9 51.7662 18.88C51.7662 20.17 52.3162 22.15 52.3162 22.15C52.0962 26 53.3062 27.86 53.3062 27.86C53.3062 27.86 54.8162 21.25 54.6762 20.24C54.6762 20.24 57.4562 19.69 60.6062 17.88C62.7362 16.66 64.1962 15.23 66.5862 14.69C70.2262 13.87 71.0462 16.51 71.0462 16.51C71.0462 16.51 74.4162 15.86 75.4362 20.55C75.8562 22.48 76.0362 25.7 76.2662 27.66Z" fill="#3C2C23" style="fill:#3C2C23;fill:color(display-p3 0.2353 0.1725 0.1373);fill-opacity:1;"/>
<path d="M77.9963 15.38C77.9963 15.38 76.7563 8.04 75.3163 6.39C73.8863 4.76 68.2763 4.51 64.9063 4.5C61.5363 4.51 55.9263 4.76 54.4963 6.39C53.0463 8.04 51.8163 15.38 51.8163 15.38C51.8163 15.38 46.3163 17.01 48.7063 18.41C49.8763 19.09 54.9863 19.52 64.9063 19.53C74.8263 19.52 79.9363 19.1 81.1063 18.41C83.5063 17.01 77.9963 15.38 77.9963 15.38Z" fill="url(#paint14_linear_2634_1471)" style=""/>
<path d="M76.5562 22.62L76.2962 22.56C74.6362 22.17 72.9462 21.98 71.2562 21.98C70.6262 21.98 69.5862 22.13 68.5362 22.31C66.1562 22.73 63.7162 22.73 61.3462 22.31C60.2762 22.12 59.2262 21.97 58.5862 21.97C56.8862 21.97 55.1962 22.17 53.5362 22.55L53.2762 22.61C53.0662 22.66 52.8962 22.84 52.8962 23.04V24.12C52.8962 24.39 53.1662 24.6 53.4562 24.56L53.8962 27.33C54.1862 29.22 55.8362 30.91 58.6462 30.91C61.5562 30.91 63.0062 28.24 63.6962 26.01C63.8662 25.48 64.3562 25.11 64.9162 25.11C64.9262 25.11 64.9262 25.11 64.9362 25.11C65.4962 25.11 65.9862 25.48 66.1562 26.01C66.8562 28.24 68.2962 30.91 71.2062 30.91C74.0162 30.91 75.6662 29.22 75.9562 27.33L76.3762 24.56C76.6562 24.59 76.9162 24.39 76.9162 24.12V23.04C76.9262 22.85 76.7762 22.67 76.5562 22.62Z" fill="url(#paint15_linear_2634_1471)" style=""/>
<defs>
<radialGradient id="paint0_radial_2634_1471" cx="0" cy="0" r="1" gradientUnits="userSpaceOnUse" gradientTransform="translate(64.9057 120.494) scale(15.2017 4.63652)">
<stop offset="0.1396" stop-color="#504F4F" stop-opacity="0.8" style="stop-color:#504F4F;stop-color:color(display-p3 0.3137 0.3098 0.3098);stop-opacity:0.8;"/>
<stop offset="0.8722" stop-color="#616161" stop-opacity="0" style="stop-color:none;stop-opacity:0;"/>
</radialGradient>
<linearGradient id="paint1_linear_2634_1471" x1="52.8402" y1="69.8961" x2="52.8402" y2="80.5433" gradientUnits="userSpaceOnUse">
<stop stop-color="#8D5738" style="stop-color:#8D5738;stop-color:color(display-p3 0.5529 0.3412 0.2196);stop-opacity:1;"/>
<stop offset="0.5" stop-color="#A56C43" style="stop-color:#A56C43;stop-color:color(display-p3 0.6471 0.4235 0.2627);stop-opacity:1;"/>
</linearGradient>
<linearGradient id="paint2_linear_2634_1471" x1="76.9724" y1="69.5527" x2="76.9724" y2="80.1999" gradientUnits="userSpaceOnUse">
<stop stop-color="#8D5738" style="stop-color:#8D5738;stop-color:color(display-p3 0.5529 0.3412 0.2196);stop-opacity:1;"/>
<stop offset="0.5" stop-color="#A56C43" style="stop-color:#A56C43;stop-color:color(display-p3 0.6471 0.4235 0.2627);stop-opacity:1;"/>
</linearGradient>
<linearGradient id="paint3_linear_2634_1471" x1="61.5043" y1="100.928" x2="61.5043" y2="112.294" gradientUnits="userSpaceOnUse">
<stop stop-color="#212121" style="stop-color:#212121;stop-color:color(display-p3 0.1294 0.1294 0.1294);stop-opacity:1;"/>
<stop offset="0.7876" stop-color="#616161" style="stop-color:#616161;stop-color:color(display-p3 0.3804 0.3804 0.3804);stop-opacity:1;"/>
</linearGradient>
<linearGradient id="paint4_linear_2634_1471" x1="61.5983" y1="101.172" x2="61.5983" y2="108.024" gradientUnits="userSpaceOnUse">
<stop offset="0.1222" stop-color="#BDBDBD" style="stop-color:#BDBDBD;stop-color:color(display-p3 0.7412 0.7412 0.7412);stop-opacity:1;"/>
<stop offset="0.7213" stop-color="#EEEEEE" style="stop-color:#EEEEEE;stop-color:color(display-p3 0.9333 0.9333 0.9333);stop-opacity:1;"/>
</linearGradient>
<linearGradient id="paint5_linear_2634_1471" x1="68.1524" y1="100.928" x2="68.1524" y2="112.294" gradientUnits="userSpaceOnUse">
<stop stop-color="#212121" style="stop-color:#212121;stop-color:color(display-p3 0.1294 0.1294 0.1294);stop-opacity:1;"/>
<stop offset="0.7876" stop-color="#616161" style="stop-color:#616161;stop-color:color(display-p3 0.3804 0.3804 0.3804);stop-opacity:1;"/>
</linearGradient>
<linearGradient id="paint6_linear_2634_1471" x1="68.0593" y1="101.172" x2="68.0593" y2="108.024" gradientUnits="userSpaceOnUse">
<stop offset="0.1222" stop-color="#BDBDBD" style="stop-color:#BDBDBD;stop-color:color(display-p3 0.7412 0.7412 0.7412);stop-opacity:1;"/>
<stop offset="0.7213" stop-color="#EEEEEE" style="stop-color:#EEEEEE;stop-color:color(display-p3 0.9333 0.9333 0.9333);stop-opacity:1;"/>
</linearGradient>
<linearGradient id="paint7_linear_2634_1471" x1="64.8898" y1="65.1353" x2="64.8898" y2="99.1392" gradientUnits="userSpaceOnUse">
<stop stop-color="#212121" style="stop-color:#212121;stop-color:color(display-p3 0.1294 0.1294 0.1294);stop-opacity:1;"/>
<stop offset="0.8778" stop-color="#616161" style="stop-color:#616161;stop-color:color(display-p3 0.3804 0.3804 0.3804);stop-opacity:1;"/>
</linearGradient>
<linearGradient id="paint8_linear_2634_1471" x1="64.8192" y1="101.454" x2="64.8192" y2="72.365" gradientUnits="userSpaceOnUse">
<stop stop-color="#616161" stop-opacity="0.2" style="stop-color:#616161;stop-color:color(display-p3 0.3804 0.3804 0.3804);stop-opacity:0.2;"/>
<stop offset="0.7537" stop-color="#212121" style="stop-color:#212121;stop-color:color(display-p3 0.1294 0.1294 0.1294);stop-opacity:1;"/>
</linearGradient>
<linearGradient id="paint9_linear_2634_1471" x1="64.9061" y1="39.9267" x2="64.9061" y2="77.8369" gradientUnits="userSpaceOnUse">
<stop offset="0.3285" stop-color="#5F5F5F" style="stop-color:#5F5F5F;stop-color:color(display-p3 0.3725 0.3725 0.3725);stop-opacity:1;"/>
<stop offset="1" stop-color="#212121" style="stop-color:#212121;stop-color:color(display-p3 0.1294 0.1294 0.1294);stop-opacity:1;"/>
</linearGradient>
<linearGradient id="paint10_linear_2634_1471" x1="58.5813" y1="29.6041" x2="58.5813" y2="55.9703" gradientUnits="userSpaceOnUse">
<stop offset="0.1709" stop-color="#616161" style="stop-color:#616161;stop-color:color(display-p3 0.3804 0.3804 0.3804);stop-opacity:1;"/>
<stop offset="0.8364" stop-color="#212121" style="stop-color:#212121;stop-color:color(display-p3 0.1294 0.1294 0.1294);stop-opacity:1;"/>
</linearGradient>
<linearGradient id="paint11_linear_2634_1471" x1="71.2777" y1="29.5969" x2="71.2777" y2="55.9923" gradientUnits="userSpaceOnUse">
<stop offset="0.1709" stop-color="#616161" style="stop-color:#616161;stop-color:color(display-p3 0.3804 0.3804 0.3804);stop-opacity:1;"/>
<stop offset="0.8364" stop-color="#212121" style="stop-color:#212121;stop-color:color(display-p3 0.1294 0.1294 0.1294);stop-opacity:1;"/>
</linearGradient>
<linearGradient id="paint12_linear_2634_1471" x1="53.6773" y1="65.0189" x2="53.6773" y2="47.1053" gradientUnits="userSpaceOnUse">
<stop stop-color="#616161" stop-opacity="0.2" style="stop-color:#616161;stop-color:color(display-p3 0.3804 0.3804 0.3804);stop-opacity:0.2;"/>
<stop offset="0.7537" stop-color="#212121" style="stop-color:#212121;stop-color:color(display-p3 0.1294 0.1294 0.1294);stop-opacity:1;"/>
</linearGradient>
<linearGradient id="paint13_linear_2634_1471" x1="76.2211" y1="65.0069" x2="76.2211" y2="47.1063" gradientUnits="userSpaceOnUse">
<stop stop-color="#616161" stop-opacity="0.2" style="stop-color:#616161;stop-color:color(display-p3 0.3804 0.3804 0.3804);stop-opacity:0.2;"/>
<stop offset="0.7537" stop-color="#212121" style="stop-color:#212121;stop-color:color(display-p3 0.1294 0.1294 0.1294);stop-opacity:1;"/>
</linearGradient>
<linearGradient id="paint14_linear_2634_1471" x1="64.9066" y1="3.1618" x2="64.9066" y2="22.4204" gradientUnits="userSpaceOnUse">
<stop offset="0.4429" stop-color="#5F5F5F" style="stop-color:#5F5F5F;stop-color:color(display-p3 0.3725 0.3725 0.3725);stop-opacity:1;"/>
<stop offset="1" stop-color="#212121" style="stop-color:#212121;stop-color:color(display-p3 0.1294 0.1294 0.1294);stop-opacity:1;"/>
</linearGradient>
<linearGradient id="paint15_linear_2634_1471" x1="64.9082" y1="21.7643" x2="64.9082" y2="30.7857" gradientUnits="userSpaceOnUse">
<stop offset="0.005" stop-color="#616161" style="stop-color:#616161;stop-color:color(display-p3 0.3804 0.3804 0.3804);stop-opacity:1;"/>
<stop offset="0.4" stop-color="#212121" style="stop-color:#212121;stop-color:color(display-p3 0.1294 0.1294 0.1294);stop-opacity:1;"/>
</linearGradient>
</defs>
</svg>
