<svg width="128" height="128" viewBox="0 0 128 128" fill="none" xmlns="http://www.w3.org/2000/svg">
<g clip-path="url(#clip0_2352_879)">
<path d="M100.847 54.7165C101.135 40.5687 94.5823 28.6241 80.0037 23.5549C65.5432 18.5279 53.0523 23.7997 44.5132 34.8662C36.0805 32.2388 29.1007 30.7993 22.8986 31.4644C16.568 32.1497 13.2517 32.9465 9.56959 37.8403C2.56473 47.1462 11.9498 75.6921 48.153 90.2561C85.4489 105.265 116.493 94.0076 123.431 78.3749C127.995 68.0978 117.83 61.4209 100.847 54.7165Z" fill="#FADA80" style="fill:#FADA80;fill:color(display-p3 0.9804 0.8549 0.5020);fill-opacity:1;"/>
<path d="M100.847 54.7168C101.138 40.7202 94.7034 28.8786 80.4347 23.72C81.6481 24.6725 83.1083 26.1631 82.2452 27.1092C81.1747 28.2804 80.3627 27.8821 78.3269 28.1326C77.6027 28.2267 77.5283 28.8458 78.1188 29.765C78.6787 30.6181 80.2055 31.8249 83.5929 32.8898C85.0194 33.3328 85.1062 34.5238 83.6578 35.0967C81.4077 35.9782 80.1387 36.1481 78.6794 36.2671C77.1821 36.4022 77.4529 37.797 78.3808 38.4807C79.2432 39.1343 80.9494 40.5152 84.5812 40.8835C85.6308 40.9911 85.5678 42.388 83.5543 43.1007C81.6942 43.7587 79.4223 43.9249 78.4163 44.0938C77.4119 44.2726 77.6879 45.0592 78.1407 45.5546C79.9212 47.4705 81.6024 47.7316 84.2912 48.4107C85.0606 48.6031 85.0184 49.6829 83.2445 50.631C81.8637 51.3754 80.278 51.8484 78.1117 51.9777C74.6623 52.188 72.0503 54.8174 74.1223 58.1957L71.188 68.2764C70.5927 69.4435 67.4885 69.083 67.7723 69.919C68.3992 71.7739 70.8113 73.0738 73.459 74.3263C74.6739 74.904 74.3006 76.0664 73.4022 76.5322C72.7762 76.8638 70.2413 77.4157 68.7851 77.7468C68.1592 77.8861 67.9153 78.5219 68.498 79.1993C69.2955 80.1466 71.6114 81.1579 75.5516 81.2346C76.2929 81.2492 76.6271 82.5328 75.4007 83.2933C73.6304 84.3927 72.8381 84.5684 70.7451 85.1619C69.2187 85.4332 69.6163 86.4132 70.6217 87.0745C72.6996 88.4373 76.4677 88.45 78.571 88.7558C79.9289 88.9566 79.305 90.5837 76.5642 91.3706C75.2671 91.7475 74.0646 91.8259 71.9809 92.094C70.6625 92.2717 70.6895 93.3406 71.9267 94.1881C73.2227 95.087 75.4228 96.0053 78.6002 96.6376C69.4093 96.3267 59.4013 94.3022 48.9485 90.1004C33.4134 83.8459 15.6226 70.7392 10.1665 53.2965C7.58743 45.0376 10.1468 37.0712 10.1468 37.0712C9.7433 37.5297 4.81763 43.4601 7.88832 55.1544C9.45953 61.1326 16.5972 80.5067 47.7625 93.0413C65.3291 100.109 81.1925 101.837 93.8984 99.4672C120.972 94.4147 124.529 77.8881 124.529 77.8881C125.44 72.4393 124.148 68.614 120.342 64.3856C116.567 60.2233 108.069 57.5656 100.847 54.7168Z" fill="#E6A467" style="fill:#E6A467;fill:color(display-p3 0.9020 0.6431 0.4039);fill-opacity:1;"/>
<path d="M71.0504 49.3161C69.9946 48.7842 69.5512 47.7709 69.3115 47.1507C69.0719 46.5305 69.3907 45.5994 70.6721 46.0855C72.1896 46.6559 73.1357 47.1343 75.2932 47.2696C76.4385 47.3419 76.3521 48.9754 74.6869 49.5217C73.6565 49.8564 72.4483 50.0268 71.0504 49.3161Z" fill="#E6A467" style="fill:#E6A467;fill:color(display-p3 0.9020 0.6431 0.4039);fill-opacity:1;"/>
<path d="M63.8241 74.7941C62.5972 74.2689 61.95 73.4397 61.6621 72.5132C61.4287 71.7402 61.9533 71.1512 62.7825 71.4658C64.6113 72.149 67.3188 73.139 67.3188 73.139C68.1163 73.3168 68.7047 74.4793 67.4284 74.9237C66.3548 75.3058 65.0738 75.3358 63.8241 74.7941Z" fill="#E6A467" style="fill:#E6A467;fill:color(display-p3 0.9020 0.6431 0.4039);fill-opacity:1;"/>
<path d="M62.8831 83.2641C61.5751 82.8024 60.8374 81.9773 60.4855 81.0306C60.1882 80.2373 60.8553 79.5246 61.7 79.9379C62.864 80.5135 63.8658 80.8312 66.5774 81.1423C67.4331 81.24 67.9425 82.6073 66.6423 83.1568C65.5516 83.6225 64.2139 83.7425 62.8831 83.2641Z" fill="#E6A467" style="fill:#E6A467;fill:color(display-p3 0.9020 0.6431 0.4039);fill-opacity:1;"/>
<path d="M65.837 91.1404C64.4485 90.6813 63.6583 89.8442 63.2492 88.8559C62.9161 88.0277 64.0068 87.9467 64.6873 88.1531C64.6873 88.1531 66.8702 88.578 69.3515 88.9052C70.2514 89.0263 70.8419 90.3302 69.4819 90.9498C68.3511 91.4826 67.2568 91.6047 65.837 91.1404Z" fill="#E6A467" style="fill:#E6A467;fill:color(display-p3 0.9020 0.6431 0.4039);fill-opacity:1;"/>
<path d="M81.9982 94.1776C80.4984 93.4627 81.6287 92.606 82.3409 92.5645C85.0006 92.418 85.3765 92.1056 87.7846 91.3915C88.7802 91.0926 89.4741 92.2182 88.5133 93.2506C87.5775 94.2487 84.6687 95.4468 81.9982 94.1776Z" fill="#FADA80" style="fill:#FADA80;fill:color(display-p3 0.9804 0.8549 0.5020);fill-opacity:1;"/>
<path d="M82.9464 87.1644C81.9254 86.4042 82.9085 86.0263 83.9665 85.9302C85.9326 85.7515 86.2571 85.3055 88.3143 84.4847C89.1523 84.15 89.9893 85.2834 89.083 86.4691C87.9974 87.8655 84.9426 88.6513 82.9464 87.1644Z" fill="#FADA80" style="fill:#FADA80;fill:color(display-p3 0.9804 0.8549 0.5020);fill-opacity:1;"/>
<path d="M70.4906 39.6753C70.2094 38.7276 70.7704 38.1126 71.6167 38.5358C72.9933 39.2398 75.8151 39.9283 75.8151 39.9283C76.767 40.1223 77.0971 41.1231 75.7765 41.9288C74.456 42.7345 71.3934 42.7016 70.4906 39.6753Z" fill="#E6A467" style="fill:#E6A467;fill:color(display-p3 0.9020 0.6431 0.4039);fill-opacity:1;"/>
<path d="M88.9659 38.9666C86.7777 39.5347 85.5904 38.6186 85.0617 37.963C84.5346 37.3172 85.1127 37.0033 85.7589 36.9924C88.1795 36.9343 89.2359 36.2513 89.9882 36.1427C90.4639 36.0777 90.7893 36.6642 90.8527 37.13C90.9566 37.8526 90.6779 38.5243 88.9659 38.9666Z" fill="#FADA80" style="fill:#FADA80;fill:color(display-p3 0.9804 0.8549 0.5020);fill-opacity:1;"/>
<path d="M91.7395 46.4052C90.2209 46.7258 89.0315 46.2454 88.3411 45.4635C87.5661 44.5937 88.1598 44.1861 88.8029 44.1555C90.6796 44.0516 91.578 43.7782 93.6555 42.8935C94.5185 42.5245 94.6546 43.7077 94.4731 44.3539C94.3119 44.9362 93.8263 45.9645 91.7395 46.4052Z" fill="#FADA80" style="fill:#FADA80;fill:color(display-p3 0.9804 0.8549 0.5020);fill-opacity:1;"/>
<path d="M90.6353 54.3541C89.0871 54.4871 87.7339 53.9313 87.1246 53.0859C86.6438 52.4127 87.1096 51.9646 88.2024 52.025C90.0792 52.1134 91.3446 51.7922 93.4657 50.9918C94.2211 50.7106 94.4357 51.7498 93.8934 52.6757C93.361 53.6 92.654 54.1874 90.6353 54.3541Z" fill="#FADA80" style="fill:#FADA80;fill:color(display-p3 0.9804 0.8549 0.5020);fill-opacity:1;"/>
<path d="M74.2893 30.9668C75.9809 31.5502 76.6297 31.6199 77.3305 31.7624C78.0313 31.9049 78.1664 33.0175 77.7416 33.4692C77.2025 34.0301 76.0821 34.3082 75.0159 34.031C73.4215 33.6145 72.7561 32.4135 72.6022 31.9519C72.4583 31.4887 72.5977 30.3834 74.2893 30.9668Z" fill="#E6A467" style="fill:#E6A467;fill:color(display-p3 0.9020 0.6431 0.4039);fill-opacity:1;"/>
<path d="M100.755 57.5355C100.755 57.5355 99.9819 60.2695 91.8665 61.2568C87.9924 61.7265 78.2416 61.3318 67.2757 57.1503C56.3196 52.9672 49.2485 49.1529 45.0752 43.6867C42.2952 40.0557 42.6696 37.4252 42.6696 37.4252C42.6696 37.4252 39.5502 40.1751 38.7032 41.7363C36.9459 44.9698 37.9328 50.0683 40.9759 54.2753C45.2749 60.2177 52.2284 64.6984 63.1944 68.88C74.1604 73.0615 80.1005 72.6605 85.9684 72.4431C91.1521 72.2526 97.6761 69.7144 99.5485 64.9645C100.458 62.6443 100.755 57.5355 100.755 57.5355Z" fill="#58A12F" style="fill:#58A12F;fill:color(display-p3 0.3451 0.6314 0.1843);fill-opacity:1;"/>
<path d="M70.6706 72.4C67.8841 86.5897 68.3463 102.178 69.1041 107.446C69.1951 108.104 70.0449 108.293 70.4301 107.754L74.8435 102.575C75.0956 102.205 75.6244 102.151 75.9522 102.466L80.8136 108.367C81.2865 108.831 82.0877 108.462 82.0477 107.803L81.7991 72.836C86.3093 86.0254 94.8928 97.5529 97.9875 100.215C98.5231 100.671 99.3447 100.356 99.4336 99.6604L99.4405 93.7822C99.499 93.3048 99.928 92.9677 100.407 93.0163L105.61 93.5891C106.388 93.673 106.879 92.7879 106.404 92.1704L84.8763 64.7834L70.6706 72.4Z" fill="#58A12F" style="fill:#58A12F;fill:color(display-p3 0.3451 0.6314 0.1843);fill-opacity:1;"/>
<path d="M65.1863 56.9411C61.7108 55.5021 57.8101 53.5416 53.8545 50.9602C49.1654 57.4684 50.7932 62.8363 50.8843 63.053C54.5914 65.1572 57.7002 66.4307 60.4941 67.2969C61.8025 64.4571 64.1066 59.356 65.1863 56.9411Z" fill="#307D31" style="fill:#307D31;fill:color(display-p3 0.1882 0.4902 0.1922);fill-opacity:1;"/>
<path d="M70.2025 74.9676C70.2025 74.9676 69.1432 81.3617 69.0347 84.2914C69.0347 84.2914 78.7938 80.2304 81.7992 72.8359C81.7992 72.8359 87.8923 78.7318 95.9937 78.8174L90.884 72.2298L85.5832 68.4142L79.4864 68.4886L70.2025 74.9676Z" fill="#307D31" style="fill:#307D31;fill:color(display-p3 0.1882 0.4902 0.1922);fill-opacity:1;"/>
<path fill-rule="evenodd" clip-rule="evenodd" d="M100.73 50.5674L99 50.9998V54.9998L100.848 54.6301C100.874 53.2535 100.835 51.8978 100.73 50.5674Z" fill="#307D31" style="fill:#307D31;fill:color(display-p3 0.1882 0.4902 0.1922);fill-opacity:1;"/>
<path d="M73.5962 51.7865C70.5005 48.3106 61.3016 42.9243 58.6889 48.8662C55.5694 55.9445 55.5495 63.9666 58.013 72.9093C59.0018 76.5012 60.8771 76.9727 63.3395 77.1874C71.7985 77.9194 79.0868 69.4309 79.0868 69.4309C79.0868 69.4309 83.3218 69.4673 84.8715 68.7388C89.7113 72.4075 100.225 79.7986 102.313 70.9412C103.872 64.3248 103.05 45.0988 93.33 44.254C89.1456 43.8913 85.1234 52.8664 82.0868 56.5525C80.6905 56.567 78.8382 56.9542 78.8382 56.9542C78.8382 56.9542 75.1279 53.1196 73.5962 51.7865Z" fill="#58A12F" style="fill:#58A12F;fill:color(display-p3 0.3451 0.6314 0.1843);fill-opacity:1;"/>
<path d="M83.1049 57.1498C83.1049 57.1498 90.4547 47.6759 92.2265 46.6837C94.1695 45.5912 96.029 47.2397 94.5116 49.3779C92.9826 51.5241 83.413 59.0993 83.413 59.0993L83.1049 57.1498Z" fill="#307D31" style="fill:#307D31;fill:color(display-p3 0.1882 0.4902 0.1922);fill-opacity:1;"/>
<path d="M79.4094 58.4753C79.4094 58.4753 68.9604 49.3161 65.8862 47.9092C64.0214 47.0531 61.6445 47.3629 62.9292 49.7486C64.2139 52.1343 79.3464 59.7961 79.3464 59.7961L79.4094 58.4753Z" fill="#307D31" style="fill:#307D31;fill:color(display-p3 0.1882 0.4902 0.1922);fill-opacity:1;"/>
<path d="M79.1281 68.9915C79.5355 67.4602 80.4993 62.452 78.467 59.0013C77.6866 57.6759 78.6774 56.5077 80.2799 56.3689C83.2989 56.1075 84.5059 56.6173 85.2863 57.9426C88.9878 64.227 85.5653 68.4007 85.4328 68.6202C84.8351 69.6989 78.6333 70.8828 79.1281 68.9915Z" fill="#86C82C" style="fill:#86C82C;fill:color(display-p3 0.5255 0.7843 0.1725);fill-opacity:1;"/>
<path d="M65.7205 60.0439C65.4314 62.5229 65.7908 65.2346 66.2272 67.6962C66.7035 70.0534 67.804 73.0456 65.8077 74.8606C64.8577 75.7008 62.7601 75.9305 61.8095 75.0819C59.3166 72.8475 58.2143 61.0763 59.4387 55.1605C59.9752 52.5547 61.7114 51.6983 64.0314 53.1682C66.9686 55.0379 66.1816 56.0407 65.7205 60.0439Z" fill="#86C82C" style="fill:#86C82C;fill:color(display-p3 0.5255 0.7843 0.1725);fill-opacity:1;"/>
</g>
<defs>
<clipPath id="clip0_2352_879">
<rect width="128" height="128" fill="white" style="fill:white;fill-opacity:1;"/>
</clipPath>
</defs>
</svg>
