<svg width="128" height="128" viewBox="0 0 128 128" fill="none" xmlns="http://www.w3.org/2000/svg">
<path d="M63.6001 118.8C35.7001 118.8 5.6001 101.3 5.6001 62.9C5.6001 24.5 35.7001 7 63.6001 7C79.1001 7 93.4001 12.1 104 21.4C115.5 31.6 121.6 46 121.6 62.9C121.6 79.8 115.5 94.1 104 104.3C93.4001 113.6 79.0001 118.8 63.6001 118.8Z" fill="url(#paint0_radial_169_5109)" style=""/>
<path d="M63.6001 118.8C35.7001 118.8 5.6001 101.3 5.6001 62.9C5.6001 24.5 35.7001 7 63.6001 7C79.1001 7 93.4001 12.1 104 21.4C115.5 31.6 121.6 46 121.6 62.9C121.6 79.8 115.5 94.1 104 104.3C93.4001 113.6 79.0001 118.8 63.6001 118.8Z" fill="url(#paint1_radial_169_5109)" style=""/>
<path d="M111.49 29.67C116.82 38.27 119.6 48.51 119.6 59.9C119.6 76.8 113.5 91.1 102 101.3C91.4002 110.6 77.0002 115.8 61.6002 115.8C43.5402 115.8 24.6002 108.45 13.4202 92.86C24.1802 110.52 44.4202 118.8 63.6002 118.8C79.0002 118.8 93.4002 113.6 104 104.3C115.5 94.1001 121.6 79.8 121.6 62.9C121.6 50.16 118.13 38.84 111.49 29.67Z" fill="#EB8F00" style="fill:#EB8F00;fill:color(display-p3 0.9216 0.5608 0.0000);fill-opacity:1;"/>
<path d="M111.49 29.67C116.82 38.27 119.6 48.51 119.6 59.9C119.6 76.8 113.5 91.1 102 101.3C91.4002 110.6 77.0002 115.8 61.6002 115.8C43.5402 115.8 24.6002 108.45 13.4202 92.86C24.1802 110.52 44.4202 118.8 63.6002 118.8C79.0002 118.8 93.4002 113.6 104 104.3C115.5 94.1001 121.6 79.8 121.6 62.9C121.6 50.16 118.13 38.84 111.49 29.67Z" fill="#F3B872" style="fill:#F3B872;fill:color(display-p3 0.9542 0.7229 0.4453);fill-opacity:1;"/>
<path d="M74.3001 24.5C75.1901 23.71 76.1201 22.98 77.1001 22.3C78.1001 21.6 79.2001 21.1 80.2001 20.5C82.5301 19.3 85.0801 18.58 87.7001 18.4C88.4301 18.39 89.1701 18.42 89.9001 18.5C90.6501 18.57 91.3901 18.74 92.1001 19C92.3001 19.1 92.5001 19.1001 92.6001 19.2001L93.1001 19.5L94.1001 20C94.7201 20.44 95.3201 20.9 95.9001 21.4C96.9101 22.41 97.7201 23.59 98.3001 24.9C98.5801 25.48 98.8101 26.0801 99.0001 26.7001C99.2001 27.3001 99.3001 27.9 99.4001 28.3L99.5001 28.6C99.7101 29.8101 98.9101 30.9701 97.7001 31.2001C96.7501 31.3801 95.7901 30.9401 95.3001 30.1C95.0001 29.5 94.7001 29 94.5001 28.6C94.3001 28.2001 94.0001 27.8 93.8001 27.4C93.3101 26.73 92.7401 26.13 92.1001 25.6C91.9501 25.4801 91.7801 25.38 91.6001 25.3C91.4501 25.23 91.3101 25.12 91.2001 25C91.0001 24.9 90.9001 24.9 90.7001 24.8L90.5001 24.7001H90.2001C89.4901 24.4801 88.7401 24.41 88.0001 24.5C86.1401 24.63 84.3201 25.07 82.6001 25.8C81.7001 26.2 80.7001 26.6 79.8001 27C78.8601 27.49 77.8901 27.93 76.9001 28.3L76.7001 28.4C75.6001 28.88 74.3201 28.3901 73.8401 27.2901C73.8301 27.2601 73.8101 27.2301 73.8001 27.2001C73.3301 26.2901 73.5401 25.18 74.3001 24.5Z" fill="#312D2D" style="fill:#312D2D;fill:color(display-p3 0.1922 0.1765 0.1765);fill-opacity:1;"/>
<path d="M45.6 38.5C44.95 38.69 44.28 38.79 43.6 38.8C42.97 38.85 42.33 38.85 41.7 38.8C40.41 38.8 39.13 38.6001 37.9 38.2001C36.04 37.7101 34.12 37.4401 32.2 37.4001C31.46 37.3901 30.71 37.4901 30 37.7001C29.39 37.9001 28.84 38.2401 28.4 38.7001C27.22 40.1101 26.21 41.65 25.4 43.3C24.79 44.4 23.41 44.8001 22.3 44.2001C21.46 43.7101 20.98 42.77 21.1 41.8C21.32 40.61 21.62 39.44 22 38.3C22.47 37 23.15 35.7901 24 34.7001C24.99 33.4701 26.31 32.53 27.8 32C29.19 31.53 30.64 31.3 32.1 31.3C34.57 31.44 37 31.9801 39.3 32.9001C40.19 33.2101 41.09 33.4801 42 33.7001C42.46 33.8201 42.93 33.8801 43.4 33.9001C43.8 33.9001 44.4 34 44.7 34H45.1C46.29 34.03 47.23 35.02 47.2 36.21C47.2 36.24 47.2 36.27 47.2 36.3C47.36 37.35 46.64 38.33 45.6 38.5Z" fill="#312D2D" style="fill:#312D2D;fill:color(display-p3 0.1922 0.1765 0.1765);fill-opacity:1;"/>
<path d="M43.9999 91.3001C45.7999 89.3001 50.5999 87.0001 57.2999 87.1001C66.1999 87.3001 70.9999 91.3001 70.9999 91.3001C73.8999 93.7001 72.5999 97.4001 69.4999 97.1001C64.4999 96.5001 64.7999 95.6001 55.7999 95.4001C52.4799 95.2801 49.1499 95.5801 45.8999 96.3001C44.0999 96.4001 43.3999 95.7001 43.0999 94.5001C42.8099 93.3501 43.1499 92.1301 43.9999 91.3001Z" fill="#312D2D" style="fill:#312D2D;fill:color(display-p3 0.1922 0.1765 0.1765);fill-opacity:1;"/>
<path d="M82.2999 43.8C86.6999 43.8 90.6999 47.5001 90.6999 53.7001C90.6999 59.9001 86.6999 63.6 82.2999 63.6C77.8999 63.6 73.8999 59.9001 73.8999 53.7001C73.8999 47.5001 77.8999 43.8 82.2999 43.8Z" fill="#312D2D" style="fill:#312D2D;fill:color(display-p3 0.1922 0.1765 0.1765);fill-opacity:1;"/>
<path d="M37.2 45.5C33 45.5 29.2 49 29.2 54.9C29.2 60.8 33 64.3 37.2 64.3C41.4 64.3 45.2 60.8 45.2 54.9C45.2 49 41.4 45.5 37.2 45.5Z" fill="#312D2D" style="fill:#312D2D;fill:color(display-p3 0.1922 0.1765 0.1765);fill-opacity:1;"/>
<path d="M106.5 49.9001H100.9V58.9001H106.5C109.2 58.9001 111.9 57.2001 111.9 54.6001V54.2001C111.9 51.5001 109.2 49.9001 106.5 49.9001ZM106 57.6001C104.18 57.5401 102.75 56.0201 102.8 54.2001C102.86 52.3801 104.38 50.9501 106.2 51.0001C107.98 51.0501 109.4 52.5101 109.4 54.3001C109.37 56.1501 107.85 57.6301 106 57.6001Z" fill="#404040" style="fill:#404040;fill:color(display-p3 0.2510 0.2510 0.2510);fill-opacity:1;"/>
<path d="M106.1 70.8001C105.8 70.8201 105.53 70.6001 105.5 70.3001V65.7001C105.48 65.4401 105.68 65.2201 105.94 65.2001C105.96 65.2001 105.98 65.2001 106 65.2001H106.1C106.36 65.1801 106.58 65.3801 106.6 65.6401C106.6 65.6601 106.6 65.6801 106.6 65.7001V70.3001C106.58 70.5701 106.37 70.7801 106.1 70.8001Z" fill="#404040" style="fill:#404040;fill:color(display-p3 0.2510 0.2510 0.2510);fill-opacity:1;"/>
<path d="M106.1 78.4001C105.8 78.4201 105.53 78.2001 105.5 77.9001V73.3001C105.48 73.0401 105.68 72.8201 105.94 72.8001C105.96 72.8001 105.98 72.8001 106 72.8001H106.1C106.36 72.7801 106.58 72.9801 106.6 73.2401C106.6 73.2601 106.6 73.2801 106.6 73.3001V77.9001C106.62 78.1601 106.42 78.3801 106.16 78.4001C106.14 78.4001 106.12 78.4001 106.1 78.4001Z" fill="#404040" style="fill:#404040;fill:color(display-p3 0.2510 0.2510 0.2510);fill-opacity:1;"/>
<path d="M106.1 86.1002C105.8 86.1202 105.53 85.9002 105.5 85.6002V81.0002C105.48 80.7402 105.68 80.5202 105.94 80.5002C105.96 80.5002 105.98 80.5002 106 80.5002H106.1C106.36 80.4802 106.58 80.6802 106.6 80.9402C106.6 80.9602 106.6 80.9802 106.6 81.0002V85.6002C106.62 85.8602 106.42 86.0802 106.16 86.1002C106.14 86.1002 106.12 86.1002 106.1 86.1002Z" fill="#404040" style="fill:#404040;fill:color(display-p3 0.2510 0.2510 0.2510);fill-opacity:1;"/>
<path d="M106.1 93.8001C105.8 93.8201 105.53 93.6001 105.5 93.3001V88.7001C105.48 88.4401 105.68 88.2201 105.94 88.2001C105.96 88.2001 105.98 88.2001 106 88.2001H106.1C106.36 88.1801 106.58 88.3801 106.6 88.6401C106.6 88.6601 106.6 88.6801 106.6 88.7001V93.3001C106.62 93.5601 106.42 93.7801 106.16 93.8001C106.14 93.8001 106.12 93.8001 106.1 93.8001Z" fill="#404040" style="fill:#404040;fill:color(display-p3 0.2510 0.2510 0.2510);fill-opacity:1;"/>
<path d="M106.1 101.5C105.8 101.52 105.53 101.3 105.5 101V96.4001C105.48 96.1401 105.68 95.9201 105.94 95.9001C105.96 95.9001 105.98 95.9001 106 95.9001H106.1C106.36 95.8801 106.58 96.0801 106.6 96.3401C106.6 96.3601 106.6 96.3801 106.6 96.4001V101C106.62 101.26 106.42 101.48 106.16 101.5C106.14 101.5 106.12 101.5 106.1 101.5Z" fill="#404040" style="fill:#404040;fill:color(display-p3 0.2510 0.2510 0.2510);fill-opacity:1;"/>
<path d="M106.1 109.2C105.8 109.22 105.53 109 105.5 108.7V104.1C105.48 103.84 105.68 103.62 105.94 103.6C105.96 103.6 105.98 103.6 106 103.6H106.1C106.36 103.58 106.58 103.78 106.6 104.04C106.6 104.06 106.6 104.08 106.6 104.1V108.7C106.62 108.96 106.42 109.18 106.16 109.2C106.14 109.2 106.12 109.2 106.1 109.2Z" fill="#404040" style="fill:#404040;fill:color(display-p3 0.2510 0.2510 0.2510);fill-opacity:1;"/>
<path d="M106.1 116.9C105.8 116.92 105.53 116.7 105.5 116.4V111.8C105.48 111.54 105.68 111.32 105.94 111.3C105.96 111.3 105.98 111.3 106 111.3H106.1C106.36 111.28 106.58 111.48 106.6 111.74C106.6 111.76 106.6 111.78 106.6 111.8V116.4C106.62 116.66 106.42 116.88 106.16 116.9C106.14 116.9 106.12 116.9 106.1 116.9Z" fill="#404040" style="fill:#404040;fill:color(display-p3 0.2510 0.2510 0.2510);fill-opacity:1;"/>
<path d="M106.1 62.7001C105.8 62.7201 105.53 62.5001 105.5 62.2001V57.6001C105.48 57.3401 105.68 57.1201 105.94 57.1001C105.96 57.1001 105.98 57.1001 106 57.1001H106.1C106.36 57.0801 106.58 57.2801 106.6 57.5401C106.6 57.5601 106.6 57.5801 106.6 57.6001V62.2001C106.58 62.4701 106.37 62.6801 106.1 62.7001Z" fill="#404040" style="fill:#404040;fill:color(display-p3 0.2510 0.2510 0.2510);fill-opacity:1;"/>
<path d="M106.1 66.7001C107.536 66.7001 108.7 65.5361 108.7 64.1001C108.7 62.6642 107.536 61.5001 106.1 61.5001C104.664 61.5001 103.5 62.6642 103.5 64.1001C103.5 65.5361 104.664 66.7001 106.1 66.7001Z" stroke="#404040" style="stroke:#404040;stroke:color(display-p3 0.2510 0.2510 0.2510);stroke-opacity:1;" stroke-miterlimit="10"/>
<path d="M106.1 74.4001C107.536 74.4001 108.7 73.236 108.7 71.8001C108.7 70.3641 107.536 69.2001 106.1 69.2001C104.664 69.2001 103.5 70.3641 103.5 71.8001C103.5 73.236 104.664 74.4001 106.1 74.4001Z" stroke="#404040" style="stroke:#404040;stroke:color(display-p3 0.2510 0.2510 0.2510);stroke-opacity:1;" stroke-miterlimit="10"/>
<path d="M106.1 82C107.536 82 108.7 80.836 108.7 79.4C108.7 77.9641 107.536 76.8 106.1 76.8C104.664 76.8 103.5 77.9641 103.5 79.4C103.5 80.836 104.664 82 106.1 82Z" stroke="#404040" style="stroke:#404040;stroke:color(display-p3 0.2510 0.2510 0.2510);stroke-opacity:1;" stroke-miterlimit="10"/>
<path d="M106.1 89.7001C107.536 89.7001 108.7 88.5361 108.7 87.1001C108.7 85.6642 107.536 84.5001 106.1 84.5001C104.664 84.5001 103.5 85.6642 103.5 87.1001C103.5 88.5361 104.664 89.7001 106.1 89.7001Z" stroke="#404040" style="stroke:#404040;stroke:color(display-p3 0.2510 0.2510 0.2510);stroke-opacity:1;" stroke-miterlimit="10"/>
<path d="M106.1 97.3001C107.536 97.3001 108.7 96.136 108.7 94.7001C108.7 93.2642 107.536 92.1001 106.1 92.1001C104.664 92.1001 103.5 93.2642 103.5 94.7001C103.5 96.136 104.664 97.3001 106.1 97.3001Z" stroke="#404040" style="stroke:#404040;stroke:color(display-p3 0.2510 0.2510 0.2510);stroke-opacity:1;" stroke-miterlimit="10"/>
<path d="M106.1 105C107.536 105 108.7 103.836 108.7 102.4C108.7 100.964 107.536 99.8 106.1 99.8C104.664 99.8 103.5 100.964 103.5 102.4C103.5 103.836 104.664 105 106.1 105Z" stroke="#404040" style="stroke:#404040;stroke:color(display-p3 0.2510 0.2510 0.2510);stroke-opacity:1;" stroke-miterlimit="10"/>
<path d="M106.1 112.6C107.536 112.6 108.7 111.436 108.7 110C108.7 108.564 107.536 107.4 106.1 107.4C104.664 107.4 103.5 108.564 103.5 110C103.5 111.436 104.664 112.6 106.1 112.6Z" stroke="#404040" style="stroke:#404040;stroke:color(display-p3 0.2510 0.2510 0.2510);stroke-opacity:1;" stroke-miterlimit="10"/>
<path d="M106.1 120.3C107.536 120.3 108.7 119.136 108.7 117.7C108.7 116.264 107.536 115.1 106.1 115.1C104.664 115.1 103.5 116.264 103.5 117.7C103.5 119.136 104.664 120.3 106.1 120.3Z" stroke="#404040" style="stroke:#404040;stroke:color(display-p3 0.2510 0.2510 0.2510);stroke-opacity:1;" stroke-miterlimit="10"/>
<path d="M79.6 74.3001C90.9771 74.3001 100.2 65.0772 100.2 53.7001C100.2 42.323 90.9771 33.1001 79.6 33.1001C68.2229 33.1001 59 42.323 59 53.7001C59 65.0772 68.2229 74.3001 79.6 74.3001Z" fill="#CCCCCC" fill-opacity="0.5" stroke="#404040" style="fill:#CCCCCC;fill:color(display-p3 0.8000 0.8000 0.8000);fill-opacity:0.5;stroke:#404040;stroke:color(display-p3 0.2510 0.2510 0.2510);stroke-opacity:1;" stroke-width="3.5" stroke-miterlimit="10"/>
<path d="M94.7999 52.5C94.4599 48.76 92.7099 45.29 89.8999 42.8C87.1099 40.42 83.5699 39.11 79.8999 39.1C76.2299 39.07 72.6599 40.3 69.7999 42.6C66.9399 45.01 65.1699 48.47 64.8999 52.2C64.8999 52.5 64.5999 52.7 64.3999 52.6C64.1499 52.57 63.9799 52.35 63.9999 52.1C63.9199 50.04 64.2899 47.99 65.0999 46.1C65.9199 44.19 67.1099 42.46 68.5999 41C71.7099 38.17 75.7899 36.63 79.9999 36.7C84.2099 36.69 88.2599 38.3 91.2999 41.2C92.7899 42.66 93.9799 44.39 94.7999 46.3C95.5799 48.2 95.9199 50.25 95.7999 52.3C95.8199 52.56 95.6199 52.78 95.3599 52.8C95.3399 52.8 95.3199 52.8 95.2999 52.8C95.1299 52.88 94.9199 52.81 94.8299 52.63C94.8099 52.59 94.7999 52.55 94.7999 52.5Z" fill="white" style="fill:white;fill-opacity:1;"/>
<defs>
<radialGradient id="paint0_radial_169_5109" cx="0" cy="0" r="1" gradientUnits="userSpaceOnUse" gradientTransform="translate(63.6001 62.9) scale(56.9597 56.9597)">
<stop offset="0.5" stop-color="#FDE030" style="stop-color:#FDE030;stop-color:color(display-p3 0.9922 0.8784 0.1882);stop-opacity:1;"/>
<stop offset="0.92" stop-color="#F7C02B" style="stop-color:#F7C02B;stop-color:color(display-p3 0.9686 0.7529 0.1686);stop-opacity:1;"/>
<stop offset="1" stop-color="#F4A223" style="stop-color:#F4A223;stop-color:color(display-p3 0.9569 0.6353 0.1373);stop-opacity:1;"/>
</radialGradient>
<radialGradient id="paint1_radial_169_5109" cx="0" cy="0" r="1" gradientUnits="userSpaceOnUse" gradientTransform="translate(38.5991 34.5377) rotate(-43.2082) scale(102.024 101.825)">
<stop offset="0.3533" stop-color="#F9DDBD" style="stop-color:#F9DDBD;stop-color:color(display-p3 0.9765 0.8667 0.7412);stop-opacity:1;"/>
<stop offset="0.8723" stop-color="#FFD29C" style="stop-color:#FFD29C;stop-color:color(display-p3 1.0000 0.8235 0.6118);stop-opacity:1;"/>
</radialGradient>
</defs>
</svg>
