<svg width="129" height="128" viewBox="0 0 129 128" fill="none" xmlns="http://www.w3.org/2000/svg">
<path d="M97.6797 50.8843C96.5097 51.0241 5.09967 63.2148 4.89967 66.2238C4.70967 69.2329 4.91967 75.9058 6.06967 77.9805C8.59967 82.5713 13.2797 87.1548 17.7597 91.6058C22.2397 96.0569 27.3097 101.501 32.5697 103.797C37.8297 106.092 49.1397 111.683 71.1597 109.535C93.1797 107.387 111.7 93.4745 115.01 89.1706C118.32 84.8667 120.08 79.8492 120.47 78.4146C120.86 76.9799 123.39 67.3715 123.98 65.2233C124.56 63.075 125.15 56.6228 124.17 53.8933C123.21 51.1712 97.6797 50.8843 97.6797 50.8843Z" fill="#D69640" style="fill:#D69640;fill:color(display-p3 0.8392 0.5882 0.2510);fill-opacity:1;"/>
<path d="M31.7296 28.0921C24.2496 32.7344 18.4996 38.9511 15.2496 42.0926C11.9996 45.2341 3.93963 52.6574 4.31963 61.5154C4.69963 70.3733 6.61963 74.5154 9.10963 77.9438C11.5996 81.3722 16.7796 87.2284 21.1896 91.2307C25.5996 95.233 28.7696 97.8227 38.2496 101.369C44.7596 103.811 53.5696 104.952 62.9596 104.827C71.7996 104.709 79.9396 103.627 85.3096 101.773C90.6796 99.9194 101.64 95.3212 106.27 91.5912C110.42 88.2437 112.8 86.3529 116.36 81.843C118.21 79.5035 119.69 71.1973 121.11 68.3133C125.46 59.4407 124.87 51.4361 121.9 46.9262C120.38 44.6087 114.68 38.4582 111.62 36.744C108.56 35.0298 104.78 32.1973 101.14 30.1962C97.4996 28.1951 91.5296 22.7361 82.1396 21.4486C72.7496 20.1611 65.6596 21.8091 63.7396 22.0887C61.8196 22.3756 47.4496 22.8023 42.8496 23.95C38.2496 25.0977 34.0296 26.6648 31.7296 28.0921Z" fill="url(#paint0_radial_2017_152)" style=""/>
<path d="M25.6995 58.9186C25.4495 58.8083 30.4195 53.8496 33.8595 50.8258C37.2995 47.802 49.8895 38.797 53.8295 36.4721C57.7695 34.1473 61.9895 32.0358 62.3895 32.3889C62.7795 32.7421 58.5495 36.7517 52.1595 41.5338C45.7695 46.3159 41.1495 49.9135 34.7495 54.0629C30.3595 56.9175 26.1995 59.132 25.6995 58.9186Z" fill="url(#paint1_radial_2017_152)" style=""/>
<path d="M52.1896 52.6499C43.2796 59.2934 30.4396 70.822 31.0096 71.1604C32.2096 71.8667 43.1196 65.5322 57.1696 54.7688C71.2196 44.0054 78.1896 37.6194 76.9296 37.0382C75.6696 36.457 60.6496 46.3449 52.1896 52.6499Z" fill="url(#paint2_radial_2017_152)" style=""/>
<path d="M63.1397 60.809C56.8797 65.5838 52.6197 68.5487 48.3497 71.9992C41.1797 77.804 37.1797 81.5781 37.8697 82.5051C38.1597 82.9024 43.1797 80.3863 52.3297 74.199C56.5197 71.3665 61.8997 67.2392 67.6797 63.0897C73.3997 58.9845 77.6697 55.6223 80.9297 52.8339C87.5397 47.1911 89.6897 44.1746 89.1597 44.0054C88.6597 43.8509 83.7997 46.3008 77.4997 50.6562C72.8097 53.9081 66.6897 58.1016 63.1397 60.809Z" fill="url(#paint3_radial_2017_152)" style=""/>
<path d="M72.5195 69.0714C65.8095 74.7069 50.7695 86.8756 52.4895 87.8835C54.1995 88.8914 73.2795 74.1846 78.6495 69.8954C84.0195 65.6062 98.2995 53.592 97.4995 53.0035C96.6995 52.4149 81.4395 61.5966 72.5195 69.0714Z" fill="url(#paint4_radial_2017_152)" style=""/>
<path d="M84.2495 76.3694C91.5095 70.447 102.53 63.5092 103.56 64.267C104.59 65.0248 94.7295 73.4928 88.8195 78.3044C82.4195 83.5132 70.8795 91.1646 70.1995 90.576C69.1495 89.6711 77.9695 81.4973 84.2495 76.3694Z" fill="url(#paint5_radial_2017_152)" style=""/>
<defs>
<radialGradient id="paint0_radial_2017_152" cx="0" cy="0" r="1" gradientUnits="userSpaceOnUse" gradientTransform="translate(65.3697 63.3275) scale(61.5528 45.285)">
<stop stop-color="#FFEACD" style="stop-color:#FFEACD;stop-color:color(display-p3 1.0000 0.9176 0.8039);stop-opacity:1;"/>
<stop offset="0.4412" stop-color="#FFE9CB" style="stop-color:#FFE9CB;stop-color:color(display-p3 1.0000 0.9137 0.7961);stop-opacity:1;"/>
<stop offset="0.6002" stop-color="#FFE6C4" style="stop-color:#FFE6C4;stop-color:color(display-p3 1.0000 0.9020 0.7686);stop-opacity:1;"/>
<stop offset="0.7135" stop-color="#FFE1B9" style="stop-color:#FFE1B9;stop-color:color(display-p3 1.0000 0.8824 0.7255);stop-opacity:1;"/>
<stop offset="0.805" stop-color="#FFDAA8" style="stop-color:#FFDAA8;stop-color:color(display-p3 1.0000 0.8549 0.6588);stop-opacity:1;"/>
<stop offset="0.8828" stop-color="#FFD092" style="stop-color:#FFD092;stop-color:color(display-p3 1.0000 0.8157 0.5725);stop-opacity:1;"/>
<stop offset="0.9512" stop-color="#FFC577" style="stop-color:#FFC577;stop-color:color(display-p3 1.0000 0.7725 0.4667);stop-opacity:1;"/>
<stop offset="0.9605" stop-color="#FFC373" style="stop-color:#FFC373;stop-color:color(display-p3 1.0000 0.7647 0.4510);stop-opacity:1;"/>
</radialGradient>
<radialGradient id="paint1_radial_2017_152" cx="0" cy="0" r="1" gradientUnits="userSpaceOnUse" gradientTransform="translate(26.4665 32.7407) scale(29.469 21.0832)">
<stop stop-color="#82614E" style="stop-color:#82614E;stop-color:color(display-p3 0.5098 0.3804 0.3059);stop-opacity:1;"/>
<stop offset="0.2035" stop-color="#93725C" style="stop-color:#93725C;stop-color:color(display-p3 0.5765 0.4471 0.3608);stop-opacity:1;"/>
<stop offset="0.7281" stop-color="#BC987B" style="stop-color:#BC987B;stop-color:color(display-p3 0.7373 0.5961 0.4824);stop-opacity:1;"/>
<stop offset="1" stop-color="#CBA787" style="stop-color:#CBA787;stop-color:color(display-p3 0.7961 0.6549 0.5294);stop-opacity:1;"/>
</radialGradient>
<radialGradient id="paint2_radial_2017_152" cx="0" cy="0" r="1" gradientUnits="userSpaceOnUse" gradientTransform="translate(63.3093 58.6066) scale(24.6382 18.1266)">
<stop stop-color="#82614E" style="stop-color:#82614E;stop-color:color(display-p3 0.5098 0.3804 0.3059);stop-opacity:1;"/>
<stop offset="0.357" stop-color="#9C7A63" style="stop-color:#9C7A63;stop-color:color(display-p3 0.6118 0.4784 0.3882);stop-opacity:1;"/>
<stop offset="0.8907" stop-color="#CBA787" style="stop-color:#CBA787;stop-color:color(display-p3 0.7961 0.6549 0.5294);stop-opacity:1;"/>
</radialGradient>
<radialGradient id="paint3_radial_2017_152" cx="0" cy="0" r="1" gradientUnits="userSpaceOnUse" gradientTransform="translate(66.0717 62.0946) scale(39.6006 29.1346)">
<stop stop-color="#82614E" style="stop-color:#82614E;stop-color:color(display-p3 0.5098 0.3804 0.3059);stop-opacity:1;"/>
<stop offset="0.2102" stop-color="#876652" style="stop-color:#876652;stop-color:color(display-p3 0.5294 0.4000 0.3216);stop-opacity:1;"/>
<stop offset="0.4699" stop-color="#96755E" style="stop-color:#96755E;stop-color:color(display-p3 0.5882 0.4588 0.3686);stop-opacity:1;"/>
<stop offset="0.7543" stop-color="#AF8D71" style="stop-color:#AF8D71;stop-color:color(display-p3 0.6863 0.5529 0.4431);stop-opacity:1;"/>
<stop offset="1" stop-color="#CBA787" style="stop-color:#CBA787;stop-color:color(display-p3 0.7961 0.6549 0.5294);stop-opacity:1;"/>
</radialGradient>
<radialGradient id="paint4_radial_2017_152" cx="0" cy="0" r="1" gradientUnits="userSpaceOnUse" gradientTransform="translate(82.4496 75.7094) scale(33.4722 24.6258)">
<stop stop-color="#82614E" style="stop-color:#82614E;stop-color:color(display-p3 0.5098 0.3804 0.3059);stop-opacity:1;"/>
<stop offset="0.138" stop-color="#906F59" style="stop-color:#906F59;stop-color:color(display-p3 0.5647 0.4353 0.3490);stop-opacity:1;"/>
<stop offset="0.4949" stop-color="#B08D72" style="stop-color:#B08D72;stop-color:color(display-p3 0.6902 0.5529 0.4471);stop-opacity:1;"/>
<stop offset="0.795" stop-color="#C4A081" style="stop-color:#C4A081;stop-color:color(display-p3 0.7686 0.6275 0.5059);stop-opacity:1;"/>
<stop offset="1" stop-color="#CBA787" style="stop-color:#CBA787;stop-color:color(display-p3 0.7961 0.6549 0.5294);stop-opacity:1;"/>
</radialGradient>
<radialGradient id="paint5_radial_2017_152" cx="0" cy="0" r="1" gradientUnits="userSpaceOnUse" gradientTransform="translate(100.486 87.3428) scale(24.4343 17.9766)">
<stop stop-color="#82614E" style="stop-color:#82614E;stop-color:color(display-p3 0.5098 0.3804 0.3059);stop-opacity:1;"/>
<stop offset="0.2035" stop-color="#93725C" style="stop-color:#93725C;stop-color:color(display-p3 0.5765 0.4471 0.3608);stop-opacity:1;"/>
<stop offset="0.7281" stop-color="#BC987B" style="stop-color:#BC987B;stop-color:color(display-p3 0.7373 0.5961 0.4824);stop-opacity:1;"/>
<stop offset="1" stop-color="#CBA787" style="stop-color:#CBA787;stop-color:color(display-p3 0.7961 0.6549 0.5294);stop-opacity:1;"/>
</radialGradient>
</defs>
</svg>
