<svg width="129" height="128" viewBox="0 0 129 128" fill="none" xmlns="http://www.w3.org/2000/svg">
<path d="M116.5 124H12.5C8.08 124 4.5 120.42 4.5 116V12C4.5 7.58 8.08 4 12.5 4H116.5C120.92 4 124.5 7.58 124.5 12V116C124.5 120.42 120.92 124 116.5 124Z" fill="url(#paint0_linear_124_10940)" style=""/>
<path opacity="0.2" d="M116.5 7C119.26 7 121.5 9.24 121.5 12V116C121.5 118.76 119.26 121 116.5 121H12.5C9.74 121 7.5 118.76 7.5 116V12C7.5 9.24 9.74 7 12.5 7H116.5ZM116.5 4H12.5C8.08 4 4.5 7.58 4.5 12V116C4.5 120.42 8.08 124 12.5 124H116.5C120.92 124 124.5 120.42 124.5 116V12C124.5 7.58 120.92 4 116.5 4Z" fill="#424242" style="fill:#424242;fill:color(display-p3 0.2588 0.2588 0.2588);fill-opacity:1;"/>
<path fill-rule="evenodd" clip-rule="evenodd" d="M103.88 86.43V33.14C103.88 32.04 102.98 31.14 101.87 31.14H70.7601C69.6601 31.14 68.7601 30.24 68.7601 29.14V20C68.7601 18.9 67.8601 18 66.7601 18H61.1301C60.0301 18 59.1301 18.9 59.1301 20V29.14C59.1301 30.24 58.2301 31.14 57.1301 31.14H27.1201C26.0201 31.14 25.1201 32.04 25.1201 33.14V86.93C25.1201 88.03 26.0201 88.93 27.1201 88.93H32.3501C33.4501 88.93 34.3501 88.03 34.3501 86.93V85.41C34.3501 84.31 35.2501 83.41 36.3501 83.41H57.1301C58.2301 83.41 59.1301 84.31 59.1301 85.41V108C59.1301 109.1 60.0301 110 61.1301 110H66.7601C67.8601 110 68.7601 109.1 68.7601 108V85.41C68.7601 84.31 69.6601 83.41 70.7601 83.41H92.2501C93.3501 83.41 94.2501 84.31 94.2501 85.41V86.43C94.2501 87.53 95.1501 88.43 96.2501 88.43H101.88C102.98 88.43 103.88 87.53 103.88 86.43ZM34.3501 50.61V42.07C34.3501 40.97 35.2501 40.07 36.3501 40.07H57.1301C58.2301 40.07 59.1301 40.97 59.1301 42.07V47V68V72.48C59.1301 73.59 58.2401 74.48 57.1301 74.48H36.3501C35.2501 74.48 34.3501 73.58 34.3501 72.48V63.24V50.61ZM68.7601 47V42.07C68.7601 40.97 69.6601 40.07 70.7601 40.07H92.2401C93.3401 40.07 94.2401 40.97 94.2401 42.07V47L94.2501 68V72.48C94.2501 73.59 93.3501 74.48 92.2401 74.48H70.7601C69.6601 74.48 68.7601 73.58 68.7601 72.48V68V47Z" fill="#FAFAFA" style="fill:#FAFAFA;fill:color(display-p3 0.9804 0.9804 0.9804);fill-opacity:1;"/>
<path d="M92.7401 47V47.0007L92.7501 68V68.0007V72.48C92.7501 72.7518 92.5315 72.98 92.2401 72.98H70.7601C70.4885 72.98 70.2601 72.7516 70.2601 72.48V68V47V42.07C70.2601 41.7984 70.4885 41.57 70.7601 41.57H92.2401C92.5117 41.57 92.7401 41.7984 92.7401 42.07V47ZM105.38 86.43V33.14C105.38 31.2067 103.804 29.64 101.87 29.64H70.7601C70.4885 29.64 70.2601 29.4116 70.2601 29.14V20C70.2601 18.0716 68.6885 16.5 66.7601 16.5H61.1301C59.2017 16.5 57.6301 18.0716 57.6301 20V29.14C57.6301 29.4116 57.4017 29.64 57.1301 29.64H27.1201C25.1917 29.64 23.6201 31.2116 23.6201 33.14V86.93C23.6201 88.8584 25.1917 90.43 27.1201 90.43H32.3501C34.2785 90.43 35.8501 88.8584 35.8501 86.93V85.41C35.8501 85.1384 36.0785 84.91 36.3501 84.91H57.1301C57.4017 84.91 57.6301 85.1384 57.6301 85.41V108C57.6301 109.928 59.2017 111.5 61.1301 111.5H66.7601C68.6885 111.5 70.2601 109.928 70.2601 108V85.41C70.2601 85.1384 70.4885 84.91 70.7601 84.91H92.2501C92.5217 84.91 92.7501 85.1384 92.7501 85.41V86.43C92.7501 88.3584 94.3217 89.93 96.2501 89.93H101.88C103.809 89.93 105.38 88.3584 105.38 86.43ZM35.8501 50.61V42.07C35.8501 41.7984 36.0785 41.57 36.3501 41.57H57.1301C57.4017 41.57 57.6301 41.7984 57.6301 42.07V47V68V72.48C57.6301 72.7616 57.4117 72.98 57.1301 72.98H36.3501C36.0785 72.98 35.8501 72.7516 35.8501 72.48V63.24V50.61Z" stroke="#424242" stroke-opacity="0.2" style="stroke:#424242;stroke:color(display-p3 0.2588 0.2588 0.2588);stroke-opacity:0.2;" stroke-width="3"/>
<path d="M116.5 4H12.5C8.08 4 4.5 7.58 4.5 12V116C4.5 120.42 8.08 124 12.5 124H116.5C120.92 124 124.5 120.42 124.5 116V12C124.5 7.58 120.92 4 116.5 4Z" fill="#F77E00" style="fill:#F77E00;fill:color(display-p3 0.9686 0.4941 0.0000);fill-opacity:1;"/>
<path d="M110.2 4H12C7.87002 4.03 4.53002 7.37 4.50002 11.5V109.4C4.49002 113.54 7.84002 116.89 11.98 116.9C11.99 116.9 11.99 116.9 12 116.9H110.1C114.24 116.91 117.59 113.56 117.6 109.42C117.6 109.41 117.6 109.41 117.6 109.4V11.5C117.69 7.45 114.47 4.09 110.42 4C110.35 4 110.27 4 110.2 4Z" fill="#FF9800" style="fill:#FF9800;fill:color(display-p3 1.0000 0.5961 0.0000);fill-opacity:1;"/>
<path opacity="0.75" d="M40.2001 12.8999C40.2001 10.5999 38.6001 9.89988 29.4001 10.1999C21.7001 10.4999 17.9001 11.3999 15.6001 14.1999C13.3001 16.9999 12.7001 22.6999 12.6001 29.4999C12.6001 34.2999 12.6001 38.7999 15.1001 38.7999C18.5001 38.7999 18.5001 30.8999 21.3001 26.4999C26.7001 17.7999 40.2001 15.8999 40.2001 12.8999Z" fill="#FFBD52" style="fill:#FFBD52;fill:color(display-p3 1.0000 0.7412 0.3216);fill-opacity:1;"/>
<path fill-rule="evenodd" clip-rule="evenodd" d="M103.88 86.43V33.14C103.88 32.04 102.98 31.14 101.87 31.14H70.7601C69.6601 31.14 68.7601 30.24 68.7601 29.14V20C68.7601 18.9 67.8601 18 66.7601 18H61.1301C60.0301 18 59.1301 18.9 59.1301 20V29.14C59.1301 30.24 58.2301 31.14 57.1301 31.14H27.1201C26.0201 31.14 25.1201 32.04 25.1201 33.14V86.93C25.1201 88.03 26.0201 88.93 27.1201 88.93H32.3501C33.4501 88.93 34.3501 88.03 34.3501 86.93V85.41C34.3501 84.31 35.2501 83.41 36.3501 83.41H57.1301C58.2301 83.41 59.1301 84.31 59.1301 85.41V108C59.1301 109.1 60.0301 110 61.1301 110H66.7601C67.8601 110 68.7601 109.1 68.7601 108V85.41C68.7601 84.31 69.6601 83.41 70.7601 83.41H92.2501C93.3501 83.41 94.2501 84.31 94.2501 85.41V86.43C94.2501 87.53 95.1501 88.43 96.2501 88.43H101.88C102.98 88.43 103.88 87.53 103.88 86.43ZM34.3501 50.61V42.07C34.3501 40.97 35.2501 40.07 36.3501 40.07H57.1301C58.2301 40.07 59.1301 40.97 59.1301 42.07V47V68V72.48C59.1301 73.59 58.2401 74.48 57.1301 74.48H36.3501C35.2501 74.48 34.3501 73.58 34.3501 72.48V63.24V50.61ZM68.7601 47V42.07C68.7601 40.97 69.6601 40.07 70.7601 40.07H92.2401C93.3401 40.07 94.2401 40.97 94.2401 42.07V47L94.2501 68V72.48C94.2501 73.59 93.3501 74.48 92.2401 74.48H70.7601C69.6601 74.48 68.7601 73.58 68.7601 72.48V68V47Z" fill="#FAFAFA" style="fill:#FAFAFA;fill:color(display-p3 0.9804 0.9804 0.9804);fill-opacity:1;"/>
<defs>
<linearGradient id="paint0_linear_124_10940" x1="64.5" y1="5.6667" x2="64.5" y2="121.92" gradientUnits="userSpaceOnUse">
<stop stop-color="#FFAB40" style="stop-color:#FFAB40;stop-color:color(display-p3 1.0000 0.6706 0.2510);stop-opacity:1;"/>
<stop offset="1" stop-color="#FF6D00" style="stop-color:#FF6D00;stop-color:color(display-p3 1.0000 0.4275 0.0000);stop-opacity:1;"/>
</linearGradient>
</defs>
</svg>
