<svg width="128" height="128" viewBox="0 0 128 128" fill="none" xmlns="http://www.w3.org/2000/svg">
<path d="M63.6 7C91.5 7 121.6 24.5 121.6 62.9C121.6 101.3 91.5 118.8 63.6 118.8C48.1 118.8 33.8 113.7 23.2 104.4C11.7 94.2 5.59998 79.8 5.59998 62.9C5.59998 46 11.7 31.7 23.2 21.5C33.8 12.2 48.2 7 63.6 7Z" fill="url(#paint0_radial_169_8047)" style=""/>
<path d="M63.6 7C91.5 7 121.6 24.5 121.6 62.9C121.6 101.3 91.5 118.8 63.6 118.8C48.1 118.8 33.8 113.7 23.2 104.4C11.7 94.2 5.59998 79.8 5.59998 62.9C5.59998 46 11.7 31.7 23.2 21.5C33.8 12.2 48.2 7 63.6 7Z" fill="url(#paint1_radial_169_8047)" style=""/>
<path d="M63.6 7C91.5 7 121.6 24.5 121.6 62.9C121.6 101.3 91.5 118.8 63.6 118.8C48.1 118.8 33.8 113.7 23.2 104.4C11.7 94.2 5.59998 79.8 5.59998 62.9C5.59998 46 11.7 31.7 23.2 21.5C33.8 12.2 48.2 7 63.6 7Z" fill="url(#paint2_radial_169_8047)" style=""/>
<path d="M83.16 84.86C87.35 84.86 91.16 81.32 91.16 75.44C91.16 69.57 87.35 66.02 83.16 66.02C78.97 66.02 75.16 69.56 75.16 75.44C75.16 81.32 78.96 84.86 83.16 84.86Z" fill="#5D4037" style="fill:#5D4037;fill:color(display-p3 0.3647 0.2510 0.2157);fill-opacity:1;"/>
<path d="M83.16 84.86C87.35 84.86 91.16 81.32 91.16 75.44C91.16 69.57 87.35 66.02 83.16 66.02C78.97 66.02 75.16 69.56 75.16 75.44C75.16 81.32 78.96 84.86 83.16 84.86Z" fill="#5D4037" style="fill:#5D4037;fill:color(display-p3 0.3647 0.2510 0.2157);fill-opacity:1;"/>
<path d="M83.55 80.9299C84.58 81.6499 86.13 81.4199 87.13 79.9799C88.13 78.5299 87.8 77.0099 86.77 76.2899C85.74 75.5699 84.19 75.7999 83.19 77.2399C82.19 78.6799 82.51 80.2099 83.55 80.9299Z" fill="#836258" style="fill:#836258;fill:color(display-p3 0.5125 0.3838 0.3438);fill-opacity:1;"/>
<path d="M44.8 84.86C48.99 84.86 52.8 81.32 52.8 75.44C52.8 69.57 48.99 66.02 44.8 66.02C40.61 66.02 36.8 69.56 36.8 75.44C36.8 81.32 40.61 84.86 44.8 84.86Z" fill="#5D4037" style="fill:#5D4037;fill:color(display-p3 0.3647 0.2510 0.2157);fill-opacity:1;"/>
<path d="M44.8 84.86C48.99 84.86 52.8 81.32 52.8 75.44C52.8 69.57 48.99 66.02 44.8 66.02C40.61 66.02 36.8 69.56 36.8 75.44C36.8 81.32 40.61 84.86 44.8 84.86Z" fill="#5D4037" style="fill:#5D4037;fill:color(display-p3 0.3647 0.2510 0.2157);fill-opacity:1;"/>
<path d="M45.19 80.9299C46.22 81.6499 47.77 81.4199 48.77 79.9799C49.77 78.5399 49.44 77.0099 48.41 76.2899C47.38 75.5699 45.83 75.7999 44.83 77.2399C43.83 78.6799 44.16 80.2099 45.19 80.9299Z" fill="#836258" style="fill:#836258;fill:color(display-p3 0.5125 0.3838 0.3438);fill-opacity:1;"/>
<path d="M64.18 34.1899C74.87 34.1899 83.33 39.2599 88 44.6699C88.47 45.2099 88.58 45.9499 88.28 46.5899C87.98 47.2399 87.34 47.6699 86.63 47.6699C86.31 47.6699 86 47.5799 85.71 47.4199C80.9 44.6499 72.83 41.2099 64.2 41.2099H64.06C55.43 41.2099 47.36 44.6399 42.55 47.4199C42.26 47.5799 41.95 47.6699 41.63 47.6699C40.93 47.6699 40.28 47.2399 39.98 46.5899C39.69 45.9499 39.8 45.2099 40.26 44.6699C44.93 39.2499 53.39 34.1899 64.08 34.1899" fill="#5D4037" style="fill:#5D4037;fill:color(display-p3 0.3647 0.2510 0.2157);fill-opacity:1;"/>
<path d="M64.18 34.1899C74.87 34.1899 83.33 39.2599 88 44.6699C88.47 45.2099 88.58 45.9499 88.28 46.5899C87.98 47.2399 87.34 47.6699 86.63 47.6699C86.31 47.6699 86 47.5799 85.71 47.4199C80.9 44.6499 72.83 41.2099 64.2 41.2099H64.06C55.43 41.2099 47.36 44.6399 42.55 47.4199C42.26 47.5799 41.95 47.6699 41.63 47.6699C40.93 47.6699 40.28 47.2399 39.98 46.5899C39.69 45.9499 39.8 45.2099 40.26 44.6699C44.93 39.2499 53.39 34.1899 64.08 34.1899" fill="#5D4037" style="fill:#5D4037;fill:color(display-p3 0.3647 0.2510 0.2157);fill-opacity:1;"/>
<path d="M111.49 29.6699C116.82 38.2699 119.6 48.5099 119.6 59.8999C119.6 76.7999 113.5 91.0999 102 101.3C91.4 110.6 77 115.8 61.6 115.8C43.54 115.8 24.56 108.45 13.42 92.8599C24.18 110.52 44.41 118.8 63.6 118.8C79 118.8 93.4 113.6 104 104.3C115.5 94.0999 121.6 79.7999 121.6 62.8999C121.6 50.1599 118.13 38.8399 111.49 29.6699Z" fill="#EB8F00" style="fill:#EB8F00;fill:color(display-p3 0.9216 0.5608 0.0000);fill-opacity:1;"/>
<path d="M111.49 29.6699C116.82 38.2699 119.6 48.5099 119.6 59.8999C119.6 76.7999 113.5 91.0999 102 101.3C91.4 110.6 77 115.8 61.6 115.8C43.54 115.8 24.56 108.45 13.42 92.8599C24.18 110.52 44.41 118.8 63.6 118.8C79 118.8 93.4 113.6 104 104.3C115.5 94.0999 121.6 79.7999 121.6 62.8999C121.6 50.1599 118.13 38.8399 111.49 29.6699Z" fill="#F3B872" style="fill:#F3B872;fill:color(display-p3 0.9542 0.7229 0.4453);fill-opacity:1;"/>
<path d="M111.49 29.6699C116.82 38.2699 119.6 48.5099 119.6 59.8999C119.6 76.7999 113.5 91.0999 102 101.3C91.4 110.6 77 115.8 61.6 115.8C43.54 115.8 24.56 108.45 13.42 92.8599C24.18 110.52 44.41 118.8 63.6 118.8C79 118.8 93.4 113.6 104 104.3C115.5 94.0999 121.6 79.7999 121.6 62.8999C121.6 50.1599 118.13 38.8399 111.49 29.6699Z" fill="#BA8F63" style="fill:#BA8F63;fill:color(display-p3 0.7294 0.5608 0.3882);fill-opacity:1;"/>
<defs>
<radialGradient id="paint0_radial_169_8047" cx="0" cy="0" r="1" gradientUnits="userSpaceOnUse" gradientTransform="translate(63.6 62.9) rotate(180) scale(56.9597 56.9597)">
<stop offset="0.5" stop-color="#FDE030" style="stop-color:#FDE030;stop-color:color(display-p3 0.9922 0.8784 0.1882);stop-opacity:1;"/>
<stop offset="0.9188" stop-color="#F7C02B" style="stop-color:#F7C02B;stop-color:color(display-p3 0.9686 0.7529 0.1686);stop-opacity:1;"/>
<stop offset="1" stop-color="#F4A223" style="stop-color:#F4A223;stop-color:color(display-p3 0.9569 0.6353 0.1373);stop-opacity:1;"/>
</radialGradient>
<radialGradient id="paint1_radial_169_8047" cx="0" cy="0" r="1" gradientUnits="userSpaceOnUse" gradientTransform="translate(38.599 34.5377) rotate(-43.2082) scale(102.024 101.825)">
<stop offset="0.3533" stop-color="#F9DDBD" style="stop-color:#F9DDBD;stop-color:color(display-p3 0.9765 0.8667 0.7412);stop-opacity:1;"/>
<stop offset="0.8723" stop-color="#FFD29C" style="stop-color:#FFD29C;stop-color:color(display-p3 1.0000 0.8235 0.6118);stop-opacity:1;"/>
</radialGradient>
<radialGradient id="paint2_radial_169_8047" cx="0" cy="0" r="1" gradientUnits="userSpaceOnUse" gradientTransform="translate(38.599 34.5377) rotate(-43.2082) scale(102.024 101.825)">
<stop offset="0.3533" stop-color="#E0BB95" style="stop-color:#E0BB95;stop-color:color(display-p3 0.8784 0.7333 0.5843);stop-opacity:1;"/>
<stop offset="0.8723" stop-color="#CCA47A" style="stop-color:#CCA47A;stop-color:color(display-p3 0.8000 0.6431 0.4784);stop-opacity:1;"/>
</radialGradient>
</defs>
</svg>
