<svg width="128" height="128" viewBox="0 0 128 128" fill="none" xmlns="http://www.w3.org/2000/svg">
<path d="M63.6 118.8C35.7 118.8 5.59998 101.3 5.59998 62.9C5.59998 24.5 35.7 7 63.6 7C79.1 7 93.4 12.1 104 21.4C115.5 31.6 121.6 46 121.6 62.9C121.6 79.8 115.5 94.1 104 104.3C93.4 113.6 79 118.8 63.6 118.8Z" fill="url(#paint0_radial_169_7954)" style=""/>
<path d="M63.6 118.8C35.7 118.8 5.59998 101.3 5.59998 62.9C5.59998 24.5 35.7 7 63.6 7C79.1 7 93.4 12.1 104 21.4C115.5 31.6 121.6 46 121.6 62.9C121.6 79.8 115.5 94.1 104 104.3C93.4 113.6 79 118.8 63.6 118.8Z" fill="url(#paint1_radial_169_7954)" style=""/>
<path d="M63.6 118.8C35.7 118.8 5.59998 101.3 5.59998 62.9C5.59998 24.5 35.7 7 63.6 7C79.1 7 93.4 12.1 104 21.4C115.5 31.6 121.6 46 121.6 62.9C121.6 79.8 115.5 94.1 104 104.3C93.4 113.6 79 118.8 63.6 118.8Z" fill="url(#paint2_radial_169_7954)" style=""/>
<path d="M111.49 29.6699C116.82 38.2699 119.6 48.5099 119.6 59.8999C119.6 76.7999 113.5 91.0999 102 101.3C91.3999 110.6 76.9999 115.8 61.5999 115.8C43.5399 115.8 24.5999 108.45 13.4199 92.8599C24.1799 110.52 44.4199 118.8 63.5999 118.8C78.9999 118.8 93.3999 113.6 104 104.3C115.5 94.0999 121.6 79.7999 121.6 62.8999C121.6 50.1599 118.13 38.8399 111.49 29.6699Z" fill="#EB8F00" style="fill:#EB8F00;fill:color(display-p3 0.9216 0.5608 0.0000);fill-opacity:1;"/>
<path d="M111.49 29.6699C116.82 38.2699 119.6 48.5099 119.6 59.8999C119.6 76.7999 113.5 91.0999 102 101.3C91.3999 110.6 76.9999 115.8 61.5999 115.8C43.5399 115.8 24.5999 108.45 13.4199 92.8599C24.1799 110.52 44.4199 118.8 63.5999 118.8C78.9999 118.8 93.3999 113.6 104 104.3C115.5 94.0999 121.6 79.7999 121.6 62.8999C121.6 50.1599 118.13 38.8399 111.49 29.6699Z" fill="#F3B872" style="fill:#F3B872;fill:color(display-p3 0.9542 0.7229 0.4453);fill-opacity:1;"/>
<path d="M111.49 29.6699C116.82 38.2699 119.6 48.5099 119.6 59.8999C119.6 76.7999 113.5 91.0999 102 101.3C91.3999 110.6 76.9999 115.8 61.5999 115.8C43.5399 115.8 24.5999 108.45 13.4199 92.8599C24.1799 110.52 44.4199 118.8 63.5999 118.8C78.9999 118.8 93.3999 113.6 104 104.3C115.5 94.0999 121.6 79.7999 121.6 62.8999C121.6 50.1599 118.13 38.8399 111.49 29.6699Z" fill="#BA8F63" style="fill:#BA8F63;fill:color(display-p3 0.7294 0.5608 0.3882);fill-opacity:1;"/>
<path d="M82.5601 92.85C82.5601 100.43 74.2501 104.85 64.0001 104.85C53.7501 104.85 45.4401 100.4 45.4401 92.85C45.4401 85.3 53.7501 77 64.0001 77C74.2501 77 82.5601 85.27 82.5601 92.85Z" fill="#5D4037" style="fill:#5D4037;fill:color(display-p3 0.3647 0.2510 0.2157);fill-opacity:1;"/>
<path d="M46.27 56.5998L54.73 48.7298C55.93 47.2398 56.11 45.2298 54.9 44.0298C53.31 42.4298 50.49 42.8198 48.96 44.6398C48.88 44.7898 48.82 44.8298 48.74 44.9798L42.74 53.6998L34.62 46.1298C34.5 45.9998 34.43 45.9798 34.32 45.8498C32.43 44.4098 29.59 44.6498 28.4 46.5598C27.47 47.9998 28.09 49.9098 29.59 51.1098L40 57.2798L31.18 65.5298C30 66.9998 29.78 68.9998 31 70.2298C32.58 71.8398 35.4 71.4698 36.94 69.6598C37.02 69.5098 37.08 69.4698 37.17 69.3198L43.49 60.1798L51.17 67.4198C51.29 67.5498 51.36 67.5798 51.47 67.7098C53.35 69.1598 56.19 68.9398 57.4 67.0398C58.33 65.5998 57.72 63.6798 56.23 62.4798L46.27 56.5998Z" fill="#5D4037" style="fill:#5D4037;fill:color(display-p3 0.3647 0.2510 0.2157);fill-opacity:1;"/>
<path d="M84.75 56.5998L76.29 48.7298C75.09 47.2398 74.91 45.2298 76.13 44.0298C77.72 42.4298 80.53 42.8198 82.06 44.6398C82.14 44.7898 82.21 44.8298 82.29 44.9798L88.29 53.6998L96.42 46.1298C96.53 45.9998 96.6 45.9798 96.71 45.8498C98.61 44.4098 101.44 44.6498 102.64 46.5598C103.56 47.9998 102.94 49.9098 101.44 51.1098L91 57.2798L99.82 65.5298C101.03 67.0198 101.23 69.0198 100.01 70.2298C98.44 71.8398 95.62 71.4698 94.08 69.6598C93.99 69.5098 93.93 69.4698 93.85 69.3198L87.53 60.1798L79.84 67.4198C79.73 67.5498 79.66 67.5798 79.54 67.7098C77.66 69.1598 74.83 68.9398 73.62 67.0398C72.68 65.5998 73.29 63.6798 74.78 62.4798L84.75 56.5998Z" fill="#5D4037" style="fill:#5D4037;fill:color(display-p3 0.3647 0.2510 0.2157);fill-opacity:1;"/>
<path d="M45.6 28.8999C47.9 29.0999 48.8 25.9999 46.4 25.2999C44.51 24.7899 42.55 24.5899 40.6 24.6999C35.31 24.8999 30.3 27.1199 26.6 30.8999C24.9 32.6999 27.3 34.8999 29.1 33.5999C33.92 30.2299 39.73 28.5699 45.6 28.8999Z" fill="#5D4037" style="fill:#5D4037;fill:color(display-p3 0.3647 0.2510 0.2157);fill-opacity:1;"/>
<path d="M82.2 28.8999C88.1 28.5599 93.95 30.2099 98.8 33.5999C100.6 34.8999 103 32.6999 101.3 30.8999C97.59 27.1399 92.58 24.9199 87.3 24.6999C85.35 24.5899 83.39 24.7899 81.5 25.2999C80.52 25.5799 79.95 26.5899 80.23 27.5699C80.47 28.4399 81.31 28.9999 82.2 28.8999Z" fill="#5D4037" style="fill:#5D4037;fill:color(display-p3 0.3647 0.2510 0.2157);fill-opacity:1;"/>
<defs>
<radialGradient id="paint0_radial_169_7954" cx="0" cy="0" r="1" gradientUnits="userSpaceOnUse" gradientTransform="translate(63.6 62.9) scale(56.9597 56.9597)">
<stop offset="0.5" stop-color="#FDE030" style="stop-color:#FDE030;stop-color:color(display-p3 0.9922 0.8784 0.1882);stop-opacity:1;"/>
<stop offset="0.92" stop-color="#F7C02B" style="stop-color:#F7C02B;stop-color:color(display-p3 0.9686 0.7529 0.1686);stop-opacity:1;"/>
<stop offset="1" stop-color="#F4A223" style="stop-color:#F4A223;stop-color:color(display-p3 0.9569 0.6353 0.1373);stop-opacity:1;"/>
</radialGradient>
<radialGradient id="paint1_radial_169_7954" cx="0" cy="0" r="1" gradientUnits="userSpaceOnUse" gradientTransform="translate(38.599 34.5377) rotate(-43.2082) scale(102.024 101.825)">
<stop offset="0.3533" stop-color="#F9DDBD" style="stop-color:#F9DDBD;stop-color:color(display-p3 0.9765 0.8667 0.7412);stop-opacity:1;"/>
<stop offset="0.8723" stop-color="#FFD29C" style="stop-color:#FFD29C;stop-color:color(display-p3 1.0000 0.8235 0.6118);stop-opacity:1;"/>
</radialGradient>
<radialGradient id="paint2_radial_169_7954" cx="0" cy="0" r="1" gradientUnits="userSpaceOnUse" gradientTransform="translate(38.599 34.5377) rotate(-43.2082) scale(102.024 101.825)">
<stop offset="0.3533" stop-color="#E0BB95" style="stop-color:#E0BB95;stop-color:color(display-p3 0.8784 0.7333 0.5843);stop-opacity:1;"/>
<stop offset="0.8723" stop-color="#CCA47A" style="stop-color:#CCA47A;stop-color:color(display-p3 0.8000 0.6431 0.4784);stop-opacity:1;"/>
</radialGradient>
</defs>
</svg>
