<svg width="128" height="128" viewBox="0 0 128 128" fill="none" xmlns="http://www.w3.org/2000/svg">
<g filter="url(#filter0_i_183_100)">
<path d="M64.04 14.48H64.01C64.01 14.48 63.99 14.48 63.98 14.48C-9.81002 14.87 5.29998 99.16 5.29998 99.16C5.29998 99.16 13.59 113.76 13.58 113.47C13.31 101.69 18.03 80.84 21.37 71.97C23.05 67.49 27.7 64.89 32.41 65.74C39.64 67.05 51.16 68.67 63.87 68.67H64.01H64.15C76.86 68.67 88.38 67.05 95.61 65.74C100.32 64.89 104.96 67.49 106.65 71.97C109.99 80.85 114.71 101.7 114.44 113.47C114.43 113.76 122.72 99.16 122.72 99.16C122.72 99.16 137.84 14.87 64.04 14.48Z" fill="url(#paint0_radial_183_100)" style=""/>
</g>
<defs>
<filter id="filter0_i_183_100" x="4.02441" y="14.48" width="119.973" height="103.994" filterUnits="userSpaceOnUse" color-interpolation-filters="sRGB">
<feFlood flood-opacity="0" result="BackgroundImageFix"/>
<feBlend mode="normal" in="SourceGraphic" in2="BackgroundImageFix" result="shape"/>
<feColorMatrix in="SourceAlpha" type="matrix" values="0 0 0 0 0 0 0 0 0 0 0 0 0 0 0 0 0 0 127 0" result="hardAlpha"/>
<feOffset dy="5"/>
<feGaussianBlur stdDeviation="5"/>
<feComposite in2="hardAlpha" operator="arithmetic" k2="-1" k3="1"/>
<feColorMatrix type="matrix" values="0 0 0 0 1 0 0 0 0 1 0 0 0 0 1 0 0 0 1 0"/>
<feBlend mode="normal" in2="shape" result="effect1_innerShadow_183_100"/>
</filter>
<radialGradient id="paint0_radial_183_100" cx="0" cy="0" r="1" gradientUnits="userSpaceOnUse" gradientTransform="translate(64.436 14.875) scale(79.341)">
<stop stop-color="white" style="stop-color:white;stop-opacity:1;"/>
<stop offset="0.298" stop-color="#F8F8F8" style="stop-color:#F8F8F8;stop-color:color(display-p3 0.9725 0.9725 0.9725);stop-opacity:1;"/>
<stop offset="0.7178" stop-color="#E6E6E6" style="stop-color:#E6E6E6;stop-color:color(display-p3 0.9020 0.9020 0.9020);stop-opacity:1;"/>
<stop offset="0.9957" stop-color="#D6D6D6" style="stop-color:#D6D6D6;stop-color:color(display-p3 0.8392 0.8392 0.8392);stop-opacity:1;"/>
</radialGradient>
</defs>
</svg>
