<svg width="129" height="129" viewBox="0 0 129 129" fill="none" xmlns="http://www.w3.org/2000/svg">
<path d="M80.1436 120.5C80.1436 122.71 73.2936 124.5 64.8436 124.5C56.3936 124.5 49.5436 122.71 49.5436 120.5C49.5436 118.29 56.3936 116.49 64.8436 116.49C73.2936 116.49 80.1436 118.28 80.1436 120.5Z" fill="url(#paint0_radial_2634_2107)" style=""/>
<path d="M65.6346 8.43018C50.5841 8.43018 50.7052 22.3466 50.7052 22.5668C50.7052 31.5802 51.3952 44.3112 55.0027 49.3207C56.434 51.3062 59.1975 51.4163 59.1975 51.4163L65.4254 51.4089L71.6533 51.4199C71.6533 51.4199 74.4204 51.3098 75.848 49.3244C79.4556 44.3149 80.1455 31.5839 80.1455 22.5705C80.1419 22.3466 80.685 8.43018 65.6346 8.43018Z" fill="#312D2D" style="fill:#312D2D;fill:color(display-p3 0.1922 0.1765 0.1765);fill-opacity:1;"/>
<path d="M65.6346 8.43018C50.5841 8.43018 50.7052 22.3466 50.7052 22.5668C50.7052 31.5802 51.3952 44.3112 55.0027 49.3207C56.434 51.3062 59.1975 51.4163 59.1975 51.4163L65.4254 51.4089L71.6533 51.4199C71.6533 51.4199 74.4204 51.3098 75.848 49.3244C79.4556 44.3149 80.1455 31.5839 80.1455 22.5705C80.1419 22.3466 80.685 8.43018 65.6346 8.43018Z" fill="#543930" style="fill:#543930;fill:color(display-p3 0.3294 0.2235 0.1882);fill-opacity:1;"/>
<path d="M65.6346 8.43018C50.5841 8.43018 50.7052 22.3466 50.7052 22.5668C50.7052 31.5802 51.3952 44.3112 55.0027 49.3207C56.434 51.3062 59.1975 51.4163 59.1975 51.4163L65.4254 51.4089L71.6533 51.4199C71.6533 51.4199 74.4204 51.3098 75.848 49.3244C79.4556 44.3149 80.1455 31.5839 80.1455 22.5705C80.1419 22.3466 80.685 8.43018 65.6346 8.43018Z" fill="#232020" style="fill:#232020;fill:color(display-p3 0.1373 0.1255 0.1255);fill-opacity:1;"/>
<path d="M64.8436 36.35H60.8036V40.63C60.8036 42.57 62.4536 44.14 64.4736 44.14H65.2036C67.2336 44.14 68.8836 42.57 68.8836 40.63V36.35H64.8436Z" fill="#3C2B24" style="fill:#3C2B24;fill:color(display-p3 0.2353 0.1686 0.1412);fill-opacity:1;"/>
<path d="M49.5436 70.62C49.7736 71.83 50.2836 72.96 51.0236 73.94C52.2836 75.61 54.6136 75.48 55.4736 75.5C57.0636 75.54 56.3736 71.43 56.3536 71.3C56.3536 71.3 56.0136 64.85 51.7736 64.85C50.0436 64.89 48.7636 66.47 49.0836 68.17L49.5436 70.62Z" fill="url(#paint1_linear_2634_2107)" style=""/>
<path d="M80.1437 70.62C79.9137 71.83 79.4037 72.96 78.6637 73.94C77.4037 75.61 75.0737 75.48 74.2137 75.5C72.6237 75.54 73.3137 71.43 73.3337 71.3C73.3337 71.3 73.6737 64.85 77.9137 64.85C79.6437 64.89 80.9237 66.47 80.6037 68.17L80.1437 70.62Z" fill="url(#paint2_linear_2634_2107)" style=""/>
<path d="M65.0863 108.367C65.0763 110.166 65.0163 112.62 62.7463 112.62C60.0863 112.62 58.7363 105.773 58.5563 104.078C58.4725 103.295 58.4277 102.192 58.4038 101.237C58.3762 100.134 59.2697 99.2391 60.3729 99.2372L62.1214 99.2342C63.7879 99.2313 65.1374 100.587 65.1265 102.254L65.0863 108.367Z" fill="url(#paint3_linear_2634_2107)" style=""/>
<path d="M64.1963 105.75C64.1863 106.84 63.4063 108.32 62.5463 108.32C60.6763 108.32 59.7163 104.19 59.5963 103.18C59.4763 102.17 59.4663 100.98 59.4663 100.98L64.2363 100.97L64.1963 105.75Z" fill="#70534A" style="fill:#70534A;fill:color(display-p3 0.4392 0.3255 0.2902);fill-opacity:1;"/>
<path d="M65.0763 108.367C65.0863 110.166 65.2663 112.62 67.4163 112.62C70.0763 112.62 71.4263 105.772 71.6063 104.078C71.69 103.29 71.7348 102.189 71.7588 101.237C71.7865 100.134 70.893 99.2389 69.7898 99.237L68.0413 99.234C66.3747 99.2311 65.0253 100.587 65.0362 102.254L65.0763 108.367Z" fill="url(#paint4_linear_2634_2107)" style=""/>
<path d="M65.9663 105.75C65.9763 106.84 66.7563 108.32 67.6163 108.32C69.4863 108.32 70.4363 104.19 70.5663 103.18C70.6963 102.17 70.6963 100.98 70.6963 100.98L65.9263 100.97L65.9663 105.75Z" fill="#70534A" style="fill:#70534A;fill:color(display-p3 0.4392 0.3255 0.2902);fill-opacity:1;"/>
<path d="M63.3766 77.1897H57.1951L59.4534 101.109C59.5273 101.877 60.1693 102.46 60.9369 102.46H64.2471L63.3766 77.1897Z" fill="#70534A" style="fill:#70534A;fill:color(display-p3 0.4392 0.3255 0.2902);fill-opacity:1;"/>
<path d="M65.9096 102.46L66.624 77.1897H73.0775L70.8118 101.109C70.7454 101.877 70.1033 102.46 69.3283 102.46H65.9096Z" fill="#70534A" style="fill:#70534A;fill:color(display-p3 0.4392 0.3255 0.2902);fill-opacity:1;"/>
<path d="M70.8163 89.7886H59.4463C58.4063 89.7886 57.5363 89.2909 57.4363 88.6358L54.3763 68.2202H75.8963L72.8263 88.6358C72.7363 89.2909 71.8663 89.7886 70.8163 89.7886Z" fill="#8F8F8F" style="fill:#8F8F8F;fill:color(display-p3 0.5608 0.5608 0.5608);fill-opacity:1;"/>
<path d="M70.8163 89.7886H59.4463C58.4063 89.7886 57.5363 89.2909 57.4363 88.6358L54.3763 68.2202H75.8963L72.8263 88.6358C72.7363 89.2909 71.8663 89.7886 70.8163 89.7886Z" fill="url(#paint5_linear_2634_2107)" style=""/>
<path d="M74.5663 69.3602H80.1263C81.1763 69.3602 82.0463 68.5602 82.1363 67.5202L82.3963 64.6402H74.5663V69.3602Z" fill="#E5E5E5" style="fill:#E5E5E5;fill:color(display-p3 0.8980 0.8980 0.8980);fill-opacity:1;"/>
<path d="M56.0363 69.3602H50.4763C49.4263 69.3602 48.5563 68.5602 48.4663 67.5202L48.2063 64.6402H56.0363V69.3602Z" fill="#E5E5E5" style="fill:#E5E5E5;fill:color(display-p3 0.8980 0.8980 0.8980);fill-opacity:1;"/>
<path d="M80.6563 38.3C80.6563 38.3 74.7063 36.56 68.9063 35.97L66.7934 38.7986C66.0012 39.8592 64.4155 39.8713 63.6072 38.8228L61.4463 36.02C55.6563 36.65 49.6463 38.31 49.6463 38.31C46.9163 39.05 45.8263 41.68 46.1563 45.73L48.0263 66H54.1463L54.8463 73.29H75.4763L76.1763 66H82.2963L84.1563 45.72C84.4763 41.67 83.3963 39.04 80.6563 38.3Z" fill="url(#paint6_linear_2634_2107)" style=""/>
<path opacity="0.5" d="M52.8263 48.0802L53.8363 65.0202H55.0363L54.7263 47.8802C54.7063 47.5502 54.3663 47.0502 53.6663 47.1202C52.9663 47.1802 52.7763 47.7502 52.8263 48.0802Z" fill="url(#paint7_linear_2634_2107)" style=""/>
<path opacity="0.5" d="M77.5362 48.0802L76.4962 64.9702L75.3962 65.0102L75.6362 47.8802C75.6562 47.5502 75.9962 47.0502 76.6962 47.1202C77.3962 47.1802 77.5862 47.7502 77.5362 48.0802Z" fill="url(#paint8_linear_2634_2107)" style=""/>
<path d="M64.8436 7.5C58.6736 7.5 52.9636 14.09 52.9636 23.58C52.9636 33.02 58.8436 37.68 64.8436 37.68C70.8436 37.68 76.7236 33.01 76.7236 23.58C76.7236 14.09 71.0136 7.5 64.8436 7.5Z" fill="#70534A" style="fill:#70534A;fill:color(display-p3 0.4392 0.3255 0.2902);fill-opacity:1;"/>
<path d="M56.3736 21.9C57.0736 20.84 58.5736 20.48 59.7536 20.72C60.3836 20.84 61.0236 21.14 61.4736 21.62C61.8536 22.03 62.0436 22.78 61.2236 22.79C60.9236 22.8 60.5836 22.57 60.3036 22.48C59.6636 22.29 58.9736 22.24 58.3136 22.35C57.9936 22.4 57.6736 22.51 57.3636 22.61C57.1336 22.69 56.9836 22.84 56.7236 22.78C56.3636 22.69 56.1436 22.25 56.3736 21.9Z" fill="#1A1717" style="fill:#1A1717;fill:color(display-p3 0.1020 0.0902 0.0902);fill-opacity:1;"/>
<path d="M72.6936 22.7501C71.8236 22.2901 70.7436 22.1701 69.7936 22.3801C69.3336 22.4801 67.3336 23.3101 68.0536 21.8901C68.6336 20.7501 70.5036 20.4801 71.5736 20.7401C72.1436 20.8801 72.7836 21.1701 73.1736 21.6301C73.5536 22.0501 73.5336 23.0901 72.6936 22.7501Z" fill="#1A1717" style="fill:#1A1717;fill:color(display-p3 0.1020 0.0902 0.0902);fill-opacity:1;"/>
<path d="M67.8236 31.65C66.6936 32.32 62.9936 32.32 61.8636 31.65C61.2136 31.26 60.5536 31.85 60.8236 32.44C61.0836 33.02 63.1036 34.36 64.8536 34.36C66.6036 34.36 68.5936 33.02 68.8536 32.44C69.1236 31.86 68.4736 31.27 67.8236 31.65Z" fill="#1A1717" style="fill:#1A1717;fill:color(display-p3 0.1020 0.0902 0.0902);fill-opacity:1;"/>
<path d="M66.2137 28.31C66.1737 28.3 66.1337 28.29 66.1037 28.28H63.5937C63.5537 28.28 63.5137 28.29 63.4837 28.31C63.2537 28.4 63.1337 28.64 63.2437 28.89C63.3537 29.14 63.8537 29.84 64.8537 29.84C65.8637 29.84 66.3537 29.14 66.4637 28.89C66.5637 28.64 66.4337 28.41 66.2137 28.31Z" fill="#33251F" style="fill:#33251F;fill:color(display-p3 0.2000 0.1451 0.1216);fill-opacity:1;"/>
<path d="M76.2036 27.66C76.1836 27.49 77.4536 25.37 77.6736 23.22C77.7536 22.47 78.2836 19.96 77.7436 18.38C76.1236 11.9 71.7836 8 64.7936 8C57.4536 8 52.9436 11.9 51.7036 18.88C51.7036 20.17 52.2536 22.15 52.2536 22.15C52.0336 26 53.2436 27.86 53.2436 27.86C53.2436 27.86 54.7536 21.25 54.6136 20.24C54.6136 20.24 57.3936 19.69 60.5436 17.88C62.6736 16.66 64.1336 15.23 66.5236 14.69C70.1636 13.87 70.9836 16.51 70.9836 16.51C70.9836 16.51 74.3536 15.86 75.3736 20.55C75.7936 22.48 75.9736 25.7 76.2036 27.66Z" fill="#232020" style="fill:#232020;fill:color(display-p3 0.1373 0.1255 0.1255);fill-opacity:1;"/>
<path d="M77.9336 15.38C77.9336 15.38 76.6936 8.04 75.2536 6.39C73.8236 4.76 68.2136 4.51 64.8436 4.5C61.4736 4.51 55.8636 4.76 54.4336 6.39C52.9836 8.04 51.7536 15.38 51.7536 15.38C51.7536 15.38 46.2536 17.01 48.6436 18.41C49.8136 19.09 54.9236 19.52 64.8436 19.53C74.7636 19.52 79.8736 19.1 81.0436 18.41C83.4436 17.01 77.9336 15.38 77.9336 15.38Z" fill="url(#paint9_linear_2634_2107)" style=""/>
<path d="M76.4936 22.62L76.2336 22.56C74.5736 22.17 72.8836 21.98 71.1936 21.98C70.5636 21.98 69.5236 22.13 68.4736 22.31C66.0936 22.73 63.6536 22.73 61.2836 22.31C60.2136 22.12 59.1636 21.97 58.5236 21.97C56.8236 21.97 55.1336 22.17 53.4736 22.55L53.2136 22.61C53.0036 22.66 52.8336 22.84 52.8336 23.04V24.12C52.8336 24.39 53.1036 24.6 53.3936 24.56L53.8336 27.33C54.1236 29.22 55.7736 30.91 58.5836 30.91C61.4936 30.91 62.9436 28.24 63.6336 26.01C63.8036 25.48 64.2936 25.11 64.8536 25.11C64.8636 25.11 64.8636 25.11 64.8736 25.11C65.4336 25.11 65.9236 25.48 66.0936 26.01C66.7936 28.24 68.2336 30.91 71.1436 30.91C73.9536 30.91 75.6036 29.22 75.8936 27.33L76.3136 24.56C76.5936 24.59 76.8536 24.39 76.8536 24.12V23.04C76.8636 22.85 76.7136 22.67 76.4936 22.62Z" fill="url(#paint10_linear_2634_2107)" style=""/>
<defs>
<radialGradient id="paint0_radial_2634_2107" cx="0" cy="0" r="1" gradientUnits="userSpaceOnUse" gradientTransform="translate(64.8431 120.494) scale(15.2017 4.63652)">
<stop offset="0.1396" stop-color="#504F4F" stop-opacity="0.8" style="stop-color:#504F4F;stop-color:color(display-p3 0.3137 0.3098 0.3098);stop-opacity:0.8;"/>
<stop offset="0.8722" stop-color="#616161" stop-opacity="0" style="stop-color:none;stop-opacity:0;"/>
</radialGradient>
<linearGradient id="paint1_linear_2634_2107" x1="52.7775" y1="69.8961" x2="52.7775" y2="80.5433" gradientUnits="userSpaceOnUse">
<stop stop-color="#5C4037" style="stop-color:#5C4037;stop-color:color(display-p3 0.3608 0.2510 0.2157);stop-opacity:1;"/>
<stop offset="0.5" stop-color="#70534A" style="stop-color:#70534A;stop-color:color(display-p3 0.4392 0.3255 0.2902);stop-opacity:1;"/>
</linearGradient>
<linearGradient id="paint2_linear_2634_2107" x1="76.9098" y1="69.5527" x2="76.9098" y2="80.1999" gradientUnits="userSpaceOnUse">
<stop stop-color="#5C4037" style="stop-color:#5C4037;stop-color:color(display-p3 0.3608 0.2510 0.2157);stop-opacity:1;"/>
<stop offset="0.5" stop-color="#70534A" style="stop-color:#70534A;stop-color:color(display-p3 0.4392 0.3255 0.2902);stop-opacity:1;"/>
</linearGradient>
<linearGradient id="paint3_linear_2634_2107" x1="61.7543" y1="98.958" x2="61.7543" y2="112.239" gradientUnits="userSpaceOnUse">
<stop stop-color="#212121" style="stop-color:#212121;stop-color:color(display-p3 0.1294 0.1294 0.1294);stop-opacity:1;"/>
<stop offset="0.7876" stop-color="#616161" style="stop-color:#616161;stop-color:color(display-p3 0.3804 0.3804 0.3804);stop-opacity:1;"/>
</linearGradient>
<linearGradient id="paint4_linear_2634_2107" x1="68.4023" y1="98.9581" x2="68.4023" y2="112.239" gradientUnits="userSpaceOnUse">
<stop stop-color="#212121" style="stop-color:#212121;stop-color:color(display-p3 0.1294 0.1294 0.1294);stop-opacity:1;"/>
<stop offset="0.7876" stop-color="#616161" style="stop-color:#616161;stop-color:color(display-p3 0.3804 0.3804 0.3804);stop-opacity:1;"/>
</linearGradient>
<linearGradient id="paint5_linear_2634_2107" x1="65.1398" y1="66.2771" x2="65.1398" y2="87.6967" gradientUnits="userSpaceOnUse">
<stop stop-color="#212121" style="stop-color:#212121;stop-color:color(display-p3 0.1294 0.1294 0.1294);stop-opacity:1;"/>
<stop offset="0.8778" stop-color="#616161" style="stop-color:#616161;stop-color:color(display-p3 0.3804 0.3804 0.3804);stop-opacity:1;"/>
</linearGradient>
<linearGradient id="paint6_linear_2634_2107" x1="65.1561" y1="39.9267" x2="65.1561" y2="77.8369" gradientUnits="userSpaceOnUse">
<stop offset="0.3285" stop-color="#5F5F5F" style="stop-color:#5F5F5F;stop-color:color(display-p3 0.3725 0.3725 0.3725);stop-opacity:1;"/>
<stop offset="1" stop-color="#212121" style="stop-color:#212121;stop-color:color(display-p3 0.1294 0.1294 0.1294);stop-opacity:1;"/>
</linearGradient>
<linearGradient id="paint7_linear_2634_2107" x1="53.9273" y1="65.0192" x2="53.9273" y2="47.1056" gradientUnits="userSpaceOnUse">
<stop stop-color="#616161" stop-opacity="0.2" style="stop-color:#616161;stop-color:color(display-p3 0.3804 0.3804 0.3804);stop-opacity:0.2;"/>
<stop offset="0.7537" stop-color="#212121" style="stop-color:#212121;stop-color:color(display-p3 0.1294 0.1294 0.1294);stop-opacity:1;"/>
</linearGradient>
<linearGradient id="paint8_linear_2634_2107" x1="76.4711" y1="65.0072" x2="76.4711" y2="47.1066" gradientUnits="userSpaceOnUse">
<stop stop-color="#616161" stop-opacity="0.2" style="stop-color:#616161;stop-color:color(display-p3 0.3804 0.3804 0.3804);stop-opacity:0.2;"/>
<stop offset="0.7537" stop-color="#212121" style="stop-color:#212121;stop-color:color(display-p3 0.1294 0.1294 0.1294);stop-opacity:1;"/>
</linearGradient>
<linearGradient id="paint9_linear_2634_2107" x1="64.8439" y1="3.1618" x2="64.8439" y2="22.4204" gradientUnits="userSpaceOnUse">
<stop offset="0.4429" stop-color="#5F5F5F" style="stop-color:#5F5F5F;stop-color:color(display-p3 0.3725 0.3725 0.3725);stop-opacity:1;"/>
<stop offset="1" stop-color="#212121" style="stop-color:#212121;stop-color:color(display-p3 0.1294 0.1294 0.1294);stop-opacity:1;"/>
</linearGradient>
<linearGradient id="paint10_linear_2634_2107" x1="64.8456" y1="21.7643" x2="64.8456" y2="30.7857" gradientUnits="userSpaceOnUse">
<stop offset="0.005" stop-color="#616161" style="stop-color:#616161;stop-color:color(display-p3 0.3804 0.3804 0.3804);stop-opacity:1;"/>
<stop offset="0.4" stop-color="#212121" style="stop-color:#212121;stop-color:color(display-p3 0.1294 0.1294 0.1294);stop-opacity:1;"/>
</linearGradient>
</defs>
</svg>
