<svg width="128" height="128" viewBox="0 0 128 128" fill="none" xmlns="http://www.w3.org/2000/svg">
<g opacity="0.2">
<path d="M99.73 7.09009C102.49 7.09009 104.73 9.33009 104.73 12.0901V116.09C104.73 118.85 102.49 121.09 99.73 121.09H27.73C24.97 121.09 22.73 118.85 22.73 116.09V12.0901C22.73 9.33009 24.97 7.09009 27.73 7.09009H99.73ZM99.73 4.09009H27.73C23.31 4.09009 19.73 7.67009 19.73 12.0901V116.09C19.73 120.51 23.31 124.09 27.73 124.09H99.73C104.15 124.09 107.73 120.51 107.73 116.09V12.0901C107.73 7.67009 104.15 4.09009 99.73 4.09009Z" fill="#212121" style="fill:#212121;fill:color(display-p3 0.1294 0.1294 0.1294);fill-opacity:1;"/>
<path d="M99.73 7.09009C102.49 7.09009 104.73 9.33009 104.73 12.0901V116.09C104.73 118.85 102.49 121.09 99.73 121.09H27.73C24.97 121.09 22.73 118.85 22.73 116.09V12.0901C22.73 9.33009 24.97 7.09009 27.73 7.09009H99.73ZM99.73 4.09009H27.73C23.31 4.09009 19.73 7.67009 19.73 12.0901V116.09C19.73 120.51 23.31 124.09 27.73 124.09H99.73C104.15 124.09 107.73 120.51 107.73 116.09V12.0901C107.73 7.67009 104.15 4.09009 99.73 4.09009Z" fill="#212121" style="fill:#212121;fill:color(display-p3 0.1294 0.1294 0.1294);fill-opacity:1;"/>
<path d="M99.73 7.09009C102.49 7.09009 104.73 9.33009 104.73 12.0901V116.09C104.73 118.85 102.49 121.09 99.73 121.09H27.73C24.97 121.09 22.73 118.85 22.73 116.09V12.0901C22.73 9.33009 24.97 7.09009 27.73 7.09009H99.73ZM99.73 4.09009H27.73C23.31 4.09009 19.73 7.67009 19.73 12.0901V116.09C19.73 120.51 23.31 124.09 27.73 124.09H99.73C104.15 124.09 107.73 120.51 107.73 116.09V12.0901C107.73 7.67009 104.15 4.09009 99.73 4.09009Z" fill="#212121" style="fill:#212121;fill:color(display-p3 0.1294 0.1294 0.1294);fill-opacity:1;"/>
</g>
<path d="M102.29 125.43L26.2695 125.06C22.8195 125.06 20.0195 122.26 20.0195 118.81L32.2195 26.6801L102.41 4.5001C108.54 4.1701 108.89 7.0301 108.89 10.4801L108.52 119.17C108.54 122.64 105.74 125.43 102.29 125.43Z" fill="#D9CDC9" style="fill:#D9CDC9;fill:color(display-p3 0.8510 0.8039 0.7882);fill-opacity:1;"/>
<path d="M101.83 122.06C101.83 122.06 44.0696 123.04 25.3596 121.98C21.7796 121.78 20.0296 120.36 20.0196 118.82L19.8496 10.3301C19.8496 6.88008 22.6496 4.08008 26.0996 4.08008L101.74 4.40008C105.19 4.40008 106.5 7.26008 106.5 10.7101L105.93 116.11C105.91 119.56 105.28 122.06 101.83 122.06Z" fill="#F1EDEC" style="fill:#F1EDEC;fill:color(display-p3 0.9451 0.9294 0.9255);fill-opacity:1;"/>
<path d="M44.2668 97.2C44.6501 96 46.1834 93 48.8668 93C52.3168 93 53.8501 95.4 53.8501 98.4C53.8501 100.5 52.8615 101.884 51.9334 103.5C50.9452 105.221 49.488 106.757 48.1001 108.3C46.3194 110.279 42.3501 114 42.3501 114C42.3501 114 38.3808 110.279 36.6001 108.3C35.2122 106.757 33.755 105.221 32.7668 103.5C31.8387 101.884 30.8501 100.5 30.8501 98.4C30.8501 95.4 32.3834 93 35.8334 93C38.5168 93 40.0501 96 40.4334 97.2C40.8168 97.5 40.8168 97.2 40.8168 96.9C40.4334 94.5 40.4334 93.9 40.0501 92.1C39.6668 90.3 38.5168 87 38.5168 87C40.4334 87.6 44.2668 87.6 46.1834 87C46.1834 87 45.0334 90.3 44.6501 92.1C44.2668 93.9 44.2668 94.5 43.8834 96.9C43.8834 97.2 43.8834 97.5 44.2668 97.2Z" fill="#212121" style="fill:#212121;fill:color(display-p3 0.1294 0.1294 0.1294);fill-opacity:1;"/>
<path d="M44.2668 97.2C44.6501 96 46.1834 93 48.8668 93C52.3168 93 53.8501 95.4 53.8501 98.4C53.8501 100.5 52.8615 101.884 51.9334 103.5C50.9452 105.221 49.488 106.757 48.1001 108.3C46.3194 110.279 42.3501 114 42.3501 114C42.3501 114 38.3808 110.279 36.6001 108.3C35.2122 106.757 33.755 105.221 32.7668 103.5C31.8387 101.884 30.8501 100.5 30.8501 98.4C30.8501 95.4 32.3834 93 35.8334 93C38.5168 93 40.0501 96 40.4334 97.2C40.8168 97.5 40.8168 97.2 40.8168 96.9C40.4334 94.5 40.4334 93.9 40.0501 92.1C39.6668 90.3 38.5168 87 38.5168 87C40.4334 87.6 44.2668 87.6 46.1834 87C46.1834 87 45.0334 90.3 44.6501 92.1C44.2668 93.9 44.2668 94.5 43.8834 96.9C43.8834 97.2 43.8834 97.5 44.2668 97.2Z" fill="#212121" style="fill:#212121;fill:color(display-p3 0.1294 0.1294 0.1294);fill-opacity:1;"/>
<path d="M44.2668 97.2C44.6501 96 46.1834 93 48.8668 93C52.3168 93 53.8501 95.4 53.8501 98.4C53.8501 100.5 52.8615 101.884 51.9334 103.5C50.9452 105.221 49.488 106.757 48.1001 108.3C46.3194 110.279 42.3501 114 42.3501 114C42.3501 114 38.3808 110.279 36.6001 108.3C35.2122 106.757 33.755 105.221 32.7668 103.5C31.8387 101.884 30.8501 100.5 30.8501 98.4C30.8501 95.4 32.3834 93 35.8334 93C38.5168 93 40.0501 96 40.4334 97.2C40.8168 97.5 40.8168 97.2 40.8168 96.9C40.4334 94.5 40.4334 93.9 40.0501 92.1C39.6668 90.3 38.5168 87 38.5168 87C40.4334 87.6 44.2668 87.6 46.1834 87C46.1834 87 45.0334 90.3 44.6501 92.1C44.2668 93.9 44.2668 94.5 43.8834 96.9C43.8834 97.2 43.8834 97.5 44.2668 97.2Z" fill="#212121" style="fill:#212121;fill:color(display-p3 0.1294 0.1294 0.1294);fill-opacity:1;"/>
<path d="M87.2668 97.2C87.6501 96 89.1834 93 91.8668 93C95.3168 93 96.8501 95.4 96.8501 98.4C96.8501 100.5 95.8615 101.884 94.9334 103.5C93.9452 105.221 92.488 106.757 91.1001 108.3C89.3194 110.279 85.3501 114 85.3501 114C85.3501 114 81.3808 110.279 79.6001 108.3C78.2122 106.757 76.755 105.221 75.7668 103.5C74.8387 101.884 73.8501 100.5 73.8501 98.4C73.8501 95.4 75.3834 93 78.8334 93C81.5168 93 83.0501 96 83.4334 97.2C83.8168 97.5 83.8168 97.2 83.8168 96.9C83.4334 94.5 83.4334 93.9 83.0501 92.1C82.6668 90.3 81.5168 87 81.5168 87C83.4334 87.6 87.2668 87.6 89.1834 87C89.1834 87 88.0334 90.3 87.6501 92.1C87.2668 93.9 87.2668 94.5 86.8834 96.9C86.8834 97.2 86.8834 97.5 87.2668 97.2Z" fill="#212121" style="fill:#212121;fill:color(display-p3 0.1294 0.1294 0.1294);fill-opacity:1;"/>
<path d="M87.2668 97.2C87.6501 96 89.1834 93 91.8668 93C95.3168 93 96.8501 95.4 96.8501 98.4C96.8501 100.5 95.8615 101.884 94.9334 103.5C93.9452 105.221 92.488 106.757 91.1001 108.3C89.3194 110.279 85.3501 114 85.3501 114C85.3501 114 81.3808 110.279 79.6001 108.3C78.2122 106.757 76.755 105.221 75.7668 103.5C74.8387 101.884 73.8501 100.5 73.8501 98.4C73.8501 95.4 75.3834 93 78.8334 93C81.5168 93 83.0501 96 83.4334 97.2C83.8168 97.5 83.8168 97.2 83.8168 96.9C83.4334 94.5 83.4334 93.9 83.0501 92.1C82.6668 90.3 81.5168 87 81.5168 87C83.4334 87.6 87.2668 87.6 89.1834 87C89.1834 87 88.0334 90.3 87.6501 92.1C87.2668 93.9 87.2668 94.5 86.8834 96.9C86.8834 97.2 86.8834 97.5 87.2668 97.2Z" fill="#212121" style="fill:#212121;fill:color(display-p3 0.1294 0.1294 0.1294);fill-opacity:1;"/>
<path d="M87.2668 97.2C87.6501 96 89.1834 93 91.8668 93C95.3168 93 96.8501 95.4 96.8501 98.4C96.8501 100.5 95.8615 101.884 94.9334 103.5C93.9452 105.221 92.488 106.757 91.1001 108.3C89.3194 110.279 85.3501 114 85.3501 114C85.3501 114 81.3808 110.279 79.6001 108.3C78.2122 106.757 76.755 105.221 75.7668 103.5C74.8387 101.884 73.8501 100.5 73.8501 98.4C73.8501 95.4 75.3834 93 78.8334 93C81.5168 93 83.0501 96 83.4334 97.2C83.8168 97.5 83.8168 97.2 83.8168 96.9C83.4334 94.5 83.4334 93.9 83.0501 92.1C82.6668 90.3 81.5168 87 81.5168 87C83.4334 87.6 87.2668 87.6 89.1834 87C89.1834 87 88.0334 90.3 87.6501 92.1C87.2668 93.9 87.2668 94.5 86.8834 96.9C86.8834 97.2 86.8834 97.5 87.2668 97.2Z" fill="#212121" style="fill:#212121;fill:color(display-p3 0.1294 0.1294 0.1294);fill-opacity:1;"/>
<path d="M44.2668 33.8C44.6501 35 46.1834 38 48.8668 38C52.3168 38 53.8501 35.6 53.8501 32.6C53.8501 30.5 52.8615 29.1163 51.9334 27.5C50.9452 25.779 49.488 24.2428 48.1001 22.7C46.3194 20.7206 42.3501 17 42.3501 17C42.3501 17 38.3808 20.7206 36.6001 22.7C35.2122 24.2428 33.755 25.779 32.7668 27.5C31.8387 29.1163 30.8501 30.5 30.8501 32.6C30.8501 35.6 32.3834 38 35.8334 38C38.5168 38 40.0501 35 40.4334 33.8C40.8168 33.5 40.8168 33.8 40.8168 34.1C40.4334 36.5 40.4334 37.1 40.0501 38.9C39.6668 40.7 38.5168 44 38.5168 44C40.4334 43.4 44.2668 43.4 46.1834 44C46.1834 44 45.0334 40.7 44.6501 38.9C44.2668 37.1 44.2668 36.5 43.8834 34.1C43.8834 33.8 43.8834 33.5 44.2668 33.8Z" fill="#212121" style="fill:#212121;fill:color(display-p3 0.1294 0.1294 0.1294);fill-opacity:1;"/>
<path d="M44.2668 33.8C44.6501 35 46.1834 38 48.8668 38C52.3168 38 53.8501 35.6 53.8501 32.6C53.8501 30.5 52.8615 29.1163 51.9334 27.5C50.9452 25.779 49.488 24.2428 48.1001 22.7C46.3194 20.7206 42.3501 17 42.3501 17C42.3501 17 38.3808 20.7206 36.6001 22.7C35.2122 24.2428 33.755 25.779 32.7668 27.5C31.8387 29.1163 30.8501 30.5 30.8501 32.6C30.8501 35.6 32.3834 38 35.8334 38C38.5168 38 40.0501 35 40.4334 33.8C40.8168 33.5 40.8168 33.8 40.8168 34.1C40.4334 36.5 40.4334 37.1 40.0501 38.9C39.6668 40.7 38.5168 44 38.5168 44C40.4334 43.4 44.2668 43.4 46.1834 44C46.1834 44 45.0334 40.7 44.6501 38.9C44.2668 37.1 44.2668 36.5 43.8834 34.1C43.8834 33.8 43.8834 33.5 44.2668 33.8Z" fill="#212121" style="fill:#212121;fill:color(display-p3 0.1294 0.1294 0.1294);fill-opacity:1;"/>
<path d="M44.2668 33.8C44.6501 35 46.1834 38 48.8668 38C52.3168 38 53.8501 35.6 53.8501 32.6C53.8501 30.5 52.8615 29.1163 51.9334 27.5C50.9452 25.779 49.488 24.2428 48.1001 22.7C46.3194 20.7206 42.3501 17 42.3501 17C42.3501 17 38.3808 20.7206 36.6001 22.7C35.2122 24.2428 33.755 25.779 32.7668 27.5C31.8387 29.1163 30.8501 30.5 30.8501 32.6C30.8501 35.6 32.3834 38 35.8334 38C38.5168 38 40.0501 35 40.4334 33.8C40.8168 33.5 40.8168 33.8 40.8168 34.1C40.4334 36.5 40.4334 37.1 40.0501 38.9C39.6668 40.7 38.5168 44 38.5168 44C40.4334 43.4 44.2668 43.4 46.1834 44C46.1834 44 45.0334 40.7 44.6501 38.9C44.2668 37.1 44.2668 36.5 43.8834 34.1C43.8834 33.8 43.8834 33.5 44.2668 33.8Z" fill="#212121" style="fill:#212121;fill:color(display-p3 0.1294 0.1294 0.1294);fill-opacity:1;"/>
<path d="M87.2668 33.8C87.6501 35 89.1834 38 91.8668 38C95.3168 38 96.8501 35.6 96.8501 32.6C96.8501 30.5 95.8615 29.1163 94.9334 27.5C93.9452 25.779 92.488 24.2428 91.1001 22.7C89.3194 20.7206 85.3501 17 85.3501 17C85.3501 17 81.3808 20.7206 79.6001 22.7C78.2122 24.2428 76.755 25.779 75.7668 27.5C74.8387 29.1163 73.8501 30.5 73.8501 32.6C73.8501 35.6 75.3834 38 78.8334 38C81.5168 38 83.0501 35 83.4334 33.8C83.8168 33.5 83.8168 33.8 83.8168 34.1C83.4334 36.5 83.4334 37.1 83.0501 38.9C82.6668 40.7 81.5168 44 81.5168 44C83.4334 43.4 87.2668 43.4 89.1834 44C89.1834 44 88.0334 40.7 87.6501 38.9C87.2668 37.1 87.2668 36.5 86.8834 34.1C86.8834 33.8 86.8834 33.5 87.2668 33.8Z" fill="#212121" style="fill:#212121;fill:color(display-p3 0.1294 0.1294 0.1294);fill-opacity:1;"/>
<path d="M87.2668 33.8C87.6501 35 89.1834 38 91.8668 38C95.3168 38 96.8501 35.6 96.8501 32.6C96.8501 30.5 95.8615 29.1163 94.9334 27.5C93.9452 25.779 92.488 24.2428 91.1001 22.7C89.3194 20.7206 85.3501 17 85.3501 17C85.3501 17 81.3808 20.7206 79.6001 22.7C78.2122 24.2428 76.755 25.779 75.7668 27.5C74.8387 29.1163 73.8501 30.5 73.8501 32.6C73.8501 35.6 75.3834 38 78.8334 38C81.5168 38 83.0501 35 83.4334 33.8C83.8168 33.5 83.8168 33.8 83.8168 34.1C83.4334 36.5 83.4334 37.1 83.0501 38.9C82.6668 40.7 81.5168 44 81.5168 44C83.4334 43.4 87.2668 43.4 89.1834 44C89.1834 44 88.0334 40.7 87.6501 38.9C87.2668 37.1 87.2668 36.5 86.8834 34.1C86.8834 33.8 86.8834 33.5 87.2668 33.8Z" fill="#212121" style="fill:#212121;fill:color(display-p3 0.1294 0.1294 0.1294);fill-opacity:1;"/>
<path d="M87.2668 33.8C87.6501 35 89.1834 38 91.8668 38C95.3168 38 96.8501 35.6 96.8501 32.6C96.8501 30.5 95.8615 29.1163 94.9334 27.5C93.9452 25.779 92.488 24.2428 91.1001 22.7C89.3194 20.7206 85.3501 17 85.3501 17C85.3501 17 81.3808 20.7206 79.6001 22.7C78.2122 24.2428 76.755 25.779 75.7668 27.5C74.8387 29.1163 73.8501 30.5 73.8501 32.6C73.8501 35.6 75.3834 38 78.8334 38C81.5168 38 83.0501 35 83.4334 33.8C83.8168 33.5 83.8168 33.8 83.8168 34.1C83.4334 36.5 83.4334 37.1 83.0501 38.9C82.6668 40.7 81.5168 44 81.5168 44C83.4334 43.4 87.2668 43.4 89.1834 44C89.1834 44 88.0334 40.7 87.6501 38.9C87.2668 37.1 87.2668 36.5 86.8834 34.1C86.8834 33.8 86.8834 33.5 87.2668 33.8Z" fill="#212121" style="fill:#212121;fill:color(display-p3 0.1294 0.1294 0.1294);fill-opacity:1;"/>
</svg>
