<svg width="128" height="128" viewBox="0 0 128 128" fill="none" xmlns="http://www.w3.org/2000/svg">
<path d="M77.48 19.52C86.1 31.92 96.47 47.45 100.07 65.21C106.51 97 95.14 109.87 85.01 116.66C83.19 118.05 81.19 119.24 79.02 120.22C75.39 121.87 71.29 122.97 66.73 123.58C54.48 125.22 37.67 121.74 30.53 103.61C29.4155 100.778 28.7396 97.978 28.0603 95.1645C27.1975 91.591 26.3292 87.995 24.55 84.28C23.5181 82.1265 23.3771 80.3459 23.8318 78.9938C24.2132 78.2047 24.8968 77.6626 25.8022 77.3468C26.9323 76.9526 28.3974 76.92 29.9679 77.2453C32.8575 77.8438 35.9435 79.6183 37.716 82.2405C38.8323 84.2195 39.9853 87.137 40.66 91.37C41.66 97.68 47.66 101.86 52.26 102.6C61.73 104.13 70.65 97.68 72.18 88.21C73.71 78.73 67.07 70.55 57.6 69.02C53.25 68.32 49.02 69.3 45.57 71.49C45.1382 71.763 44.6315 72.1496 44.0491 72.5939C41.6302 74.4392 37.9068 77.2799 32.8318 77.1115C31.5591 77.0017 31.0316 76.8615 30.1523 76.6793C28.7906 76.3973 27.4876 75.735 26.5404 74.717C24.4473 72.4677 24.4556 69.0896 29.03 67.02C32.3571 65.5111 35.6117 62.5776 38.792 59.7112C42.5036 56.3658 46.114 53.1117 49.62 52.32C49.7022 52.3017 49.7848 52.2833 49.8679 52.2648C51.1501 51.9791 52.5472 51.6678 54.2 51.48C51.72 45.2 49.02 34.83 49.02 29.52C49.02 23.53 52.71 23.54 52.71 23.54C52.71 23.54 52.21 19.7 52.35 17.82C52.72 12.82 57.16 12.26 57.16 12.26C57.16 12.26 56.76 10.96 57.9 7.73C59.05 4.5 62.61 3.16 65.74 4.54C67.28 5.22 74.8 15.65 77.48 19.52Z" fill="#E0BB95" style="fill:#E0BB95;fill:color(display-p3 0.8784 0.7333 0.5843);fill-opacity:1;"/>
<path d="M63.4 51.43C69.11 52.4 73.11 54.35 73.11 54.35C72.88 50.83 71.21 47.4 69.62 44.17C66.07 36.98 62.8 31.51 59.69 24.12C58.31 20.85 56.9 15.62 56.91 12.07C54.54 11.63 52.49 16.07 52.36 17.8C52.22 19.68 52.72 23.52 52.72 23.52C52.72 23.52 49.03 23.51 49.03 29.5C49.03 34.78 51.7 45.07 54.17 51.35C54.16 51.36 57.69 50.45 63.4 51.43Z" fill="#CCA47A" style="fill:#CCA47A;fill:color(display-p3 0.8000 0.6431 0.4784);fill-opacity:1;"/>
<path d="M76.49 85.2296C77.18 70.6296 65.25 64.8096 54.81 64.8096C45.6 64.8096 41.3 71.6796 37.39 74.0496C35.61 75.1296 33.56 75.8096 32.22 76.1796C31.81 76.2896 31.85 76.8796 32.27 76.9496C38.12 78.0096 44.04 72.4496 45.55 71.4896C48.26 69.7696 51.45 68.7996 54.8 68.7996C65.94 68.7996 73.93 78.7696 72.17 88.1996C70.47 97.3096 62.5 101.11 62.5 101.11C68 99.9896 76.01 95.3496 76.49 85.2296Z" fill="#BA8F63" style="fill:#BA8F63;fill:color(display-p3 0.7294 0.5608 0.3882);fill-opacity:1;"/>
<path d="M101.63 65.8598C96.8001 48.3998 86.1001 31.9198 77.4801 19.5198C74.8001 15.6498 67.2801 5.21979 65.7401 4.53979C65.3201 4.35979 68.9401 13.2798 74.2101 21.7998C82.7701 35.6498 93.5201 50.8098 97.5701 67.0498C102.72 87.7198 99.9401 102.83 84.3901 115.05C73.0901 123.93 55.8301 123.53 55.8301 123.53C55.8301 123.53 72.4801 126.31 86.2501 118.39C100.21 110.36 109.26 93.4998 101.63 65.8598Z" fill="#BA8F63" style="fill:#BA8F63;fill:color(display-p3 0.7294 0.5608 0.3882);fill-opacity:1;"/>
<path d="M75.7899 55.9998C76.5599 56.3598 77.3899 55.6298 77.1299 54.8198C75.9699 51.2798 73.2499 44.0198 68.6699 37.3398C65.2999 32.4298 59.6199 21.7498 57.3699 12.6198C57.2499 12.1498 56.5499 12.2298 56.5699 12.7198C56.7799 17.7198 58.1699 25.2898 63.1199 35.2998C66.3199 41.7698 69.9699 46.3698 70.0399 48.5898C70.1199 50.8098 64.0099 50.2098 62.6299 48.7398C60.5999 46.5798 55.2899 33.2098 52.8599 23.8798C52.7699 23.5198 52.4499 23.4598 52.2699 24.3998C52.0899 25.3398 52.0299 26.4098 52.5799 29.9398C53.7099 37.1798 57.7499 47.2398 58.1099 48.2098C58.6699 49.7198 55.0299 49.7798 54.2199 51.4498C54.2199 51.4498 59.7199 51.1598 65.6699 52.4098C69.5399 53.2198 73.4899 54.9098 75.7899 55.9998Z" fill="#BA8F63" style="fill:#BA8F63;fill:color(display-p3 0.7294 0.5608 0.3882);fill-opacity:1;"/>
</svg>
