<svg width="128" height="128" viewBox="0 0 128 128" fill="none" xmlns="http://www.w3.org/2000/svg">
<path d="M63.6001 118.8C35.7001 118.8 5.6001 101.3 5.6001 62.9C5.6001 24.5 35.7001 7 63.6001 7C79.1001 7 93.4001 12.1 104 21.4C115.5 31.6 121.6 46 121.6 62.9C121.6 79.8 115.5 94.1 104 104.3C93.4001 113.6 79.0001 118.8 63.6001 118.8Z" fill="url(#paint0_radial_169_9114)" style=""/>
<path d="M111.49 29.67C116.82 38.27 119.6 48.51 119.6 59.9C119.6 76.8 113.5 91.1 102 101.3C91.4002 110.6 77.0002 115.8 61.6002 115.8C43.5402 115.8 24.6002 108.45 13.4202 92.86C24.1802 110.52 44.4202 118.8 63.6002 118.8C79.0002 118.8 93.4002 113.6 104 104.3C115.5 94.1 121.6 79.8 121.6 62.9C121.6 50.16 118.13 38.84 111.49 29.67Z" fill="#D84213" style="fill:#D84213;fill:color(display-p3 0.8471 0.2588 0.0745);fill-opacity:1;"/>
<path d="M24.5656 72.6439L21.032 106.208L100.025 114.525L103.559 80.9602L24.5656 72.6439Z" fill="black" style="fill:black;fill-opacity:1;"/>
<path d="M38.7299 94.29L36.6299 94.09L35.2399 99.35L32.6399 99.1L33.9999 93.84L31.1099 93.56L31.3399 91.17L34.6299 91.49L35.5299 88.1L32.6499 87.82L32.8799 85.44L36.1499 85.76L37.5799 80.42L40.1599 80.67L38.7799 86L40.8799 86.2L42.2999 80.86L44.8899 81.11L43.4699 86.45L46.4699 86.74L46.2399 89.13L42.8399 88.8L41.9299 92.18L44.9299 92.47L44.6999 94.86L41.3199 94.53L39.9299 99.8L37.3399 99.55L38.7299 94.29ZM37.2499 91.74L39.3499 91.94L40.2499 88.56L38.1499 88.35L37.2499 91.74Z" fill="white" style="fill:white;fill-opacity:1;"/>
<path d="M56.9999 96.5C57.0699 95.97 56.9499 95.44 56.6499 95C56.2499 94.52 55.7499 94.14 55.1799 93.88C54.4599 93.5 53.7999 93.13 53.1799 92.76C52.6199 92.41 52.0999 91.99 51.6499 91.51C51.2499 91.07 50.9499 90.56 50.7599 90C50.5599 89.35 50.4999 88.67 50.5799 88C50.6799 86.82 51.2599 85.74 52.1899 85C53.2299 84.22 54.5099 83.83 55.8099 83.88L55.9999 81.44L57.8099 81.62L57.5799 84.07C58.8299 84.32 59.9399 85.04 60.6899 86.07C61.4099 87.15 61.7199 88.47 61.5399 89.76L57.6799 89.39C57.7799 88.75 57.6799 88.1 57.3999 87.52C56.9199 86.75 55.8999 86.51 55.1299 86.99C55.0699 87.03 55.0099 87.07 54.9499 87.12C54.6199 87.46 54.4199 87.91 54.3999 88.38C54.3299 88.87 54.4499 89.37 54.7499 89.77C55.1599 90.23 55.6499 90.6 56.1999 90.87C56.8799 91.24 57.5199 91.61 58.1199 92C58.6799 92.35 59.1899 92.78 59.6399 93.26C60.0499 93.71 60.3599 94.23 60.5699 94.8C60.7799 95.44 60.8499 96.13 60.7699 96.8C60.6999 97.99 60.1399 99.1 59.2199 99.87C58.2299 100.64 56.9999 101.04 55.7499 101L55.5199 103.29L53.7099 103.12L53.9299 100.81C52.4999 100.6 51.1999 99.86 50.2799 98.74C49.4499 97.61 49.0899 96.19 49.2799 94.8L53.1199 95.17C53.0099 95.86 53.1499 96.57 53.5099 97.17C53.8799 97.67 54.4599 97.98 55.0799 98.01C55.5299 98.08 55.9899 97.95 56.3499 97.66C56.7099 97.37 56.9399 96.96 56.9999 96.5Z" fill="white" style="fill:white;fill-opacity:1;"/>
<path d="M65.7499 101.68C65.7899 101.09 66.0899 100.56 66.5699 100.22C67.6299 99.51 69.0299 99.65 69.9399 100.54C70.7099 101.41 70.6298 102.73 69.7698 103.5C69.7298 103.54 69.6899 103.57 69.6399 103.61C69.1299 103.97 68.5099 104.12 67.8999 104.04C67.2799 104 66.6999 103.73 66.2799 103.28C65.8799 102.85 65.6799 102.27 65.7499 101.68ZM70.2398 98.17L66.7999 97.84L67.4699 85.25L71.9898 85.69L70.2398 98.17Z" fill="white" style="fill:white;fill-opacity:1;"/>
<path d="M96.2598 96.18C96.1098 97.93 95.4098 99.59 94.2598 100.91C93.2698 102.01 91.7998 102.56 90.3298 102.37C89.7398 102.32 89.1598 102.12 88.6698 101.79C88.2198 101.46 87.8698 101.02 87.6698 100.5C86.8698 101.43 85.6498 101.9 84.4298 101.75C83.7098 101.69 83.0398 101.39 82.5198 100.89C81.9898 100.34 81.6398 99.64 81.5198 98.89C81.3298 97.97 81.3298 97.01 81.5198 96.09C81.8298 94.38 82.6498 92.8 83.8698 91.56C84.8998 90.51 86.3498 89.98 87.8098 90.13C88.8598 90.21 89.8698 90.59 90.7098 91.22L91.3998 91.79L90.1298 98.62C89.8998 99.7 90.2198 100.28 91.1298 100.36C91.8998 100.38 92.5998 99.94 92.9298 99.25C93.5198 98.28 93.8798 97.19 93.9898 96.06C94.4798 93.94 94.1198 91.71 92.9898 89.85C91.7698 88.23 89.8798 87.25 87.8498 87.19C86.4398 87.03 85.0098 87.3 83.7498 87.95C82.4698 88.64 81.3998 89.68 80.6798 90.95C79.8298 92.38 79.2798 93.96 79.0698 95.61C78.6798 98.34 79.0098 100.49 80.0698 102.06C81.3298 103.72 83.2798 104.72 85.3598 104.77C86.0598 104.84 86.7698 104.84 87.4698 104.77C88.0998 104.72 88.7198 104.59 89.3198 104.41L89.5698 106.41C88.9398 106.71 88.2598 106.91 87.5698 106.98C86.7198 107.1 85.8498 107.1 84.9998 107C83.1098 106.88 81.2898 106.28 79.6998 105.25C78.2798 104.29 77.2198 102.88 76.6998 101.25C76.1198 99.33 75.9898 97.3 76.3098 95.32C76.5598 93.3 77.2598 91.37 78.3598 89.66C79.3598 88.09 80.7798 86.84 82.4598 86.05C85.8598 84.55 89.7798 84.86 92.8998 86.88C94.2398 87.82 95.2598 89.17 95.7898 90.72C96.3898 92.47 96.5498 94.35 96.2598 96.18ZM84.3898 96.38C84.1898 97.14 84.1898 97.95 84.3898 98.71C84.5398 99.21 84.9798 99.57 85.4998 99.61C85.8998 99.63 86.2898 99.49 86.5698 99.21C86.9598 98.84 87.2698 98.38 87.4698 97.88L88.4698 92.56C88.2398 92.48 87.9998 92.42 87.7498 92.4C86.9498 92.29 86.1398 92.6 85.6298 93.23C84.9698 94.16 84.5398 95.25 84.3898 96.38Z" fill="white" style="fill:white;fill-opacity:1;"/>
<path d="M82.77 51.36C86.96 51.36 90.77 54.9 90.77 60.78C90.77 66.66 86.96 70.19 82.77 70.19C78.58 70.19 74.77 66.65 74.77 60.78C74.77 54.91 78.58 51.36 82.77 51.36Z" fill="#422B0D" style="fill:#422B0D;fill:color(display-p3 0.2588 0.1686 0.0510);fill-opacity:1;"/>
<path d="M82.77 51.36C86.96 51.36 90.77 54.9 90.77 60.78C90.77 66.66 86.96 70.19 82.77 70.19C78.58 70.19 74.77 66.65 74.77 60.78C74.77 54.91 78.58 51.36 82.77 51.36Z" fill="#1A1717" style="fill:#1A1717;fill:color(display-p3 0.1020 0.0902 0.0902);fill-opacity:1;"/>
<path d="M45.23 51.36C41.04 51.36 37.23 54.9 37.23 60.78C37.23 66.66 41.04 70.19 45.23 70.19C49.42 70.19 53.23 66.65 53.23 60.78C53.23 54.91 49.42 51.36 45.23 51.36Z" fill="#422B0D" style="fill:#422B0D;fill:color(display-p3 0.2588 0.1686 0.0510);fill-opacity:1;"/>
<path d="M45.23 51.36C41.04 51.36 37.23 54.9 37.23 60.78C37.23 66.66 41.04 70.19 45.23 70.19C49.42 70.19 53.23 66.65 53.23 60.78C53.23 54.91 49.42 51.36 45.23 51.36Z" fill="#1A1717" style="fill:#1A1717;fill:color(display-p3 0.1020 0.0902 0.0902);fill-opacity:1;"/>
<path d="M36.58 43.73L36.47 43.64C34.8 42.15 32.17 44.56 33.66 46.64C34.87 48.24 36.33 49.63 38 50.75C42.45 53.76 47.98 54.69 53.17 53.29C55.62 52.58 55.06 49.04 52.82 49.21C46.9 49.56 41.08 47.59 36.58 43.73Z" fill="#422B0D" style="fill:#422B0D;fill:color(display-p3 0.2588 0.1686 0.0510);fill-opacity:1;"/>
<path d="M36.58 43.73L36.47 43.64C34.8 42.15 32.17 44.56 33.66 46.64C34.87 48.24 36.33 49.63 38 50.75C42.45 53.76 47.98 54.69 53.17 53.29C55.62 52.58 55.06 49.04 52.82 49.21C46.9 49.56 41.08 47.59 36.58 43.73Z" fill="#1A1717" style="fill:#1A1717;fill:color(display-p3 0.1020 0.0902 0.0902);fill-opacity:1;"/>
<path d="M91.4199 43.73L91.5299 43.64C93.1999 42.15 95.8299 44.56 94.3399 46.64C93.1299 48.24 91.6699 49.63 89.9999 50.75C85.5499 53.76 80.0199 54.69 74.8299 53.29C72.3799 52.58 72.9399 49.04 75.1799 49.21C81.0999 49.56 86.9199 47.59 91.4199 43.73Z" fill="#422B0D" style="fill:#422B0D;fill:color(display-p3 0.2588 0.1686 0.0510);fill-opacity:1;"/>
<path d="M91.4199 43.73L91.5299 43.64C93.1999 42.15 95.8299 44.56 94.3399 46.64C93.1299 48.24 91.6699 49.63 89.9999 50.75C85.5499 53.76 80.0199 54.69 74.8299 53.29C72.3799 52.58 72.9399 49.04 75.1799 49.21C81.0999 49.56 86.9199 47.59 91.4199 43.73Z" fill="#1A1717" style="fill:#1A1717;fill:color(display-p3 0.1020 0.0902 0.0902);fill-opacity:1;"/>
<path d="M44.2799 54.87C42.8599 54.19 41.1499 54.79 40.4599 56.21C39.9299 57.32 40.1699 58.65 41.0599 59.51C42.4799 60.19 44.1899 59.59 44.8799 58.17C45.4099 57.06 45.1699 55.73 44.2799 54.87Z" fill="#896024" style="fill:#896024;fill:color(display-p3 0.5373 0.3765 0.1412);fill-opacity:1;"/>
<path d="M82.63 54.87C81.21 54.19 79.5 54.79 78.81 56.21C78.28 57.32 78.52 58.65 79.41 59.51C80.83 60.19 82.54 59.59 83.23 58.17C83.76 57.06 83.52 55.73 82.63 54.87Z" fill="#896024" style="fill:#896024;fill:color(display-p3 0.5373 0.3765 0.1412);fill-opacity:1;"/>
<defs>
<radialGradient id="paint0_radial_169_9114" cx="0" cy="0" r="1" gradientUnits="userSpaceOnUse" gradientTransform="translate(63.6001 62.8999) scale(56.9597 56.9597)">
<stop offset="0.12" stop-color="#6B4E45" style="stop-color:#6B4E45;stop-color:color(display-p3 0.4196 0.3059 0.2706);stop-opacity:1;"/>
<stop offset="0.453125" stop-color="#BA421D" style="stop-color:#BA421D;stop-color:color(display-p3 0.7292 0.2585 0.1124);stop-opacity:1;"/>
<stop offset="0.76" stop-color="#F74A14" style="stop-color:#F74A14;stop-color:color(display-p3 0.9667 0.2902 0.0765);stop-opacity:1;"/>
<stop offset="0.88" stop-color="#FE4B13" style="stop-color:#FE4B13;stop-color:color(display-p3 0.9961 0.2957 0.0745);stop-opacity:1;"/>
<stop offset="1" stop-color="#FF5100" style="stop-color:#FF5100;stop-color:color(display-p3 1.0000 0.3176 0.0000);stop-opacity:1;"/>
</radialGradient>
</defs>
</svg>
