<svg width="128" height="129" viewBox="0 0 128 129" fill="none" xmlns="http://www.w3.org/2000/svg">
<path d="M23.9902 20.4657C23.9902 20.4657 24.9602 13.8757 26.2202 11.2357C27.4802 8.59569 29.4602 5.81569 33.2602 5.07569C37.7902 4.19569 90.3102 4.65569 93.9502 4.88569C97.6202 5.12569 100.03 6.27569 101.41 8.53569C102.46 10.2657 102.83 12.3757 103.32 15.5057C103.58 17.1557 104.12 21.6757 104.12 21.6757L23.9902 20.4657Z" fill="#FFA828" style="fill:#FFA828;fill:color(display-p3 1.0000 0.6588 0.1569);fill-opacity:1;"/>
<path d="M50.6302 38.3156L22.4702 33.6356C22.4702 33.6356 23.0602 21.9856 24.2802 18.9356C25.5002 15.8856 27.0102 14.0656 31.4402 13.3056C35.8702 12.5456 46.9702 12.8556 63.6202 12.7056C80.2702 12.5556 94.9302 13.5656 97.5302 13.7156C100.13 13.8656 102.57 15.1456 103.33 17.5856C104.09 20.0256 104.46 23.3256 105.01 29.1956C105.21 31.3256 105.03 35.3556 105.03 35.3556L72.7602 37.5556L50.6302 38.3156Z" fill="#F1EDEC" style="fill:#F1EDEC;fill:color(display-p3 0.9451 0.9294 0.9255);fill-opacity:1;"/>
<path d="M22.2302 36.6857C22.4202 33.6357 22.4802 30.3357 24.8002 28.3657C26.7902 26.6857 30.1502 26.9957 34.1202 26.8357C37.7902 26.6957 47.1002 26.7757 64.6702 26.7757C82.2402 26.7757 97.0302 27.0357 99.7802 27.0357C102.53 27.0357 104.87 29.1857 105.17 31.1757C105.48 33.1657 104.1 117.326 103.95 119.156C103.8 120.986 103.19 124.656 99.2102 124.956C95.2402 125.266 32.7702 125.266 30.1702 124.956C27.5702 124.646 25.2802 122.356 24.8202 118.086C24.3602 113.816 22.0702 39.1257 22.2302 36.6857Z" fill="#D8CDC9" style="fill:#D8CDC9;fill:color(display-p3 0.8471 0.8039 0.7882);fill-opacity:1;"/>
<path d="M29.61 51.0259C31.91 51.3259 33.82 41.4159 36.82 39.1059C39.82 36.8059 45.43 35.5959 45.43 33.2959C45.43 32.1459 41.79 32.1559 38.42 32.1959C35.05 32.2359 32.15 31.9559 30.51 33.6959C28.71 35.5959 28.53 38.6459 28.41 41.7059C28.2 46.6159 28.19 50.8359 29.61 51.0259Z" fill="#F1EDEC" style="fill:#F1EDEC;fill:color(display-p3 0.9451 0.9294 0.9255);fill-opacity:1;"/>
<path d="M79.3398 118.656C79.3398 120.336 80.5698 120.886 87.2198 120.656C92.8398 120.466 95.6198 119.756 97.2898 117.746C98.9598 115.746 99.4198 111.546 99.4898 106.506C99.5298 103.016 99.4398 99.6562 97.6798 99.6562C95.1598 99.6562 95.1699 105.406 93.1599 108.636C89.2199 114.976 79.3398 116.416 79.3398 118.656Z" fill="#F1EDEC" style="fill:#F1EDEC;fill:color(display-p3 0.9451 0.9294 0.9255);fill-opacity:1;"/>
<mask id="path-6-inside-1_499_336" fill="white">
<path fill-rule="evenodd" clip-rule="evenodd" d="M66.5023 57.4881V60.7301C66.5023 61.6549 67.3978 62.4047 68.5023 62.4047H94.1782C95.2827 62.4047 96.1782 63.1544 96.1782 64.0793V99.2726C96.1782 100.487 95.9052 101.452 95.3593 102.166C94.8134 102.881 94.1037 103.426 93.2302 103.801C92.3568 104.176 91.3414 104.426 90.1841 104.551C89.0267 104.676 87.8585 104.738 86.6793 104.738C85.7622 104.738 84.8341 104.703 83.8951 104.631C82.9978 104.563 82.1105 104.527 81.2332 104.524C81.152 104.524 81.071 104.532 80.9919 104.547C80.4356 104.654 79.8762 104.379 79.7181 103.92L79.06 102.009C78.6645 100.86 79.7931 99.7421 81.2182 99.8108C81.6869 99.8335 82.1534 99.8505 82.6177 99.8621C84.0589 99.8978 85.522 99.9156 87.0068 99.9156C87.3125 99.9156 87.6619 99.9067 88.055 99.8888C88.448 99.871 88.8083 99.8174 89.1359 99.7281C89.4634 99.6388 89.7473 99.4959 89.9875 99.2994C90.2277 99.1029 90.3478 98.826 90.3478 98.4688V68.7949C90.3478 67.8701 89.4508 67.1203 88.3463 67.1203H73.3808L78.2797 68.2093C78.8726 68.3411 79.1853 68.8846 78.9382 69.3547C78.4396 70.3031 77.941 71.2463 77.4424 72.1843C77.258 72.5314 77.0666 72.8763 76.8682 73.2192C76.1936 74.3853 77.1677 75.8014 78.7153 75.8014H82.3209C83.4255 75.8014 84.3209 76.5512 84.3209 77.476V79.0033C84.3209 79.9281 83.4255 80.6779 82.3209 80.6779H68.5678C67.4633 80.6779 66.5679 81.4276 66.5679 82.3525V84.6299C66.5679 85.5548 67.4633 86.3045 68.5679 86.3045H85.2034C86.3079 86.3045 87.2034 87.0543 87.2034 87.9791V89.3992C87.2034 90.324 86.3079 91.0738 85.2034 91.0738H68.5679C67.4633 91.0738 66.5679 91.8235 66.5679 92.7484V99.7505C66.5679 100.478 66.0074 101.122 65.1807 101.345L63.1538 101.891C61.8626 102.239 60.541 101.432 60.541 100.297V92.7484C60.541 91.8235 59.6455 91.0738 58.541 91.0738H41.7089C40.6044 91.0738 39.7089 90.324 39.7089 89.3992V87.9791C39.7089 87.0543 40.6044 86.3045 41.7089 86.3045H58.541C59.6455 86.3045 60.541 85.5548 60.541 84.6299V82.3525C60.541 81.4276 59.6455 80.6779 58.541 80.6779H45.1809C44.0764 80.6779 43.1809 79.9281 43.1809 79.0033V77.476C43.1809 76.5512 44.0764 75.8014 45.1809 75.8014H49.1757C50.5976 75.8014 51.5605 74.5944 50.9153 73.5335C50.6426 73.085 50.3573 72.6442 50.0594 72.2111C49.4885 71.3808 48.8829 70.5598 48.2428 69.7483C47.8781 69.286 48.1236 68.6551 48.7487 68.4733L53.4004 67.1203H39.4161C38.3115 67.1203 37.4161 67.8701 37.4161 68.7949V103.01C37.4161 103.935 36.5207 104.685 35.4161 104.685H33.2813C32.0728 104.685 31.1404 103.794 31.2984 102.791L31.6513 100.552V64.0793C31.6513 63.1544 32.5467 62.4047 33.6513 62.4047H58.4755C59.58 62.4047 60.4755 61.6549 60.4755 60.7301V57.4881C60.4755 56.5632 59.58 55.8135 58.4755 55.8135H28.8421C27.8012 55.8135 26.9343 55.145 26.8488 54.2764L26.6807 52.5683C26.5839 51.584 27.5202 50.7437 28.6996 50.7564L58.4498 51.076C59.5643 51.088 60.4755 50.3348 60.4755 49.4016V45.8905C60.4755 45.0636 61.1963 44.3605 62.1725 44.2352L64.5631 43.9284C65.8189 43.7673 66.9336 44.6147 66.863 45.6768L66.6199 49.3301C66.5561 50.29 67.4686 51.0978 68.6168 51.0978H97.4106C98.3412 51.0978 99.1488 51.6352 99.3589 52.3943L99.7371 53.7608C100.028 54.8105 99.0757 55.8135 97.7888 55.8135H68.5023C67.3978 55.8135 66.5023 56.5632 66.5023 57.4881ZM68.853 75.0315C69.6774 73.9155 70.4443 72.7701 71.1536 71.5952C72.027 70.1484 72.7694 68.6565 73.3808 67.1203H53.4004C55.2832 69.5719 56.8618 72.1069 58.136 74.7244C58.45 75.3694 59.1917 75.8018 60.0237 75.8018H67.1826C67.8613 75.8018 68.4959 75.5148 68.853 75.0315Z"/>
</mask>
<path fill-rule="evenodd" clip-rule="evenodd" d="M66.5023 57.4881V60.7301C66.5023 61.6549 67.3978 62.4047 68.5023 62.4047H94.1782C95.2827 62.4047 96.1782 63.1544 96.1782 64.0793V99.2726C96.1782 100.487 95.9052 101.452 95.3593 102.166C94.8134 102.881 94.1037 103.426 93.2302 103.801C92.3568 104.176 91.3414 104.426 90.1841 104.551C89.0267 104.676 87.8585 104.738 86.6793 104.738C85.7622 104.738 84.8341 104.703 83.8951 104.631C82.9978 104.563 82.1105 104.527 81.2332 104.524C81.152 104.524 81.071 104.532 80.9919 104.547C80.4356 104.654 79.8762 104.379 79.7181 103.92L79.06 102.009C78.6645 100.86 79.7931 99.7421 81.2182 99.8108C81.6869 99.8335 82.1534 99.8505 82.6177 99.8621C84.0589 99.8978 85.522 99.9156 87.0068 99.9156C87.3125 99.9156 87.6619 99.9067 88.055 99.8888C88.448 99.871 88.8083 99.8174 89.1359 99.7281C89.4634 99.6388 89.7473 99.4959 89.9875 99.2994C90.2277 99.1029 90.3478 98.826 90.3478 98.4688V68.7949C90.3478 67.8701 89.4508 67.1203 88.3463 67.1203H73.3808L78.2797 68.2093C78.8726 68.3411 79.1853 68.8846 78.9382 69.3547C78.4396 70.3031 77.941 71.2463 77.4424 72.1843C77.258 72.5314 77.0666 72.8763 76.8682 73.2192C76.1936 74.3853 77.1677 75.8014 78.7153 75.8014H82.3209C83.4255 75.8014 84.3209 76.5512 84.3209 77.476V79.0033C84.3209 79.9281 83.4255 80.6779 82.3209 80.6779H68.5678C67.4633 80.6779 66.5679 81.4276 66.5679 82.3525V84.6299C66.5679 85.5548 67.4633 86.3045 68.5679 86.3045H85.2034C86.3079 86.3045 87.2034 87.0543 87.2034 87.9791V89.3992C87.2034 90.324 86.3079 91.0738 85.2034 91.0738H68.5679C67.4633 91.0738 66.5679 91.8235 66.5679 92.7484V99.7505C66.5679 100.478 66.0074 101.122 65.1807 101.345L63.1538 101.891C61.8626 102.239 60.541 101.432 60.541 100.297V92.7484C60.541 91.8235 59.6455 91.0738 58.541 91.0738H41.7089C40.6044 91.0738 39.7089 90.324 39.7089 89.3992V87.9791C39.7089 87.0543 40.6044 86.3045 41.7089 86.3045H58.541C59.6455 86.3045 60.541 85.5548 60.541 84.6299V82.3525C60.541 81.4276 59.6455 80.6779 58.541 80.6779H45.1809C44.0764 80.6779 43.1809 79.9281 43.1809 79.0033V77.476C43.1809 76.5512 44.0764 75.8014 45.1809 75.8014H49.1757C50.5976 75.8014 51.5605 74.5944 50.9153 73.5335C50.6426 73.085 50.3573 72.6442 50.0594 72.2111C49.4885 71.3808 48.8829 70.5598 48.2428 69.7483C47.8781 69.286 48.1236 68.6551 48.7487 68.4733L53.4004 67.1203H39.4161C38.3115 67.1203 37.4161 67.8701 37.4161 68.7949V103.01C37.4161 103.935 36.5207 104.685 35.4161 104.685H33.2813C32.0728 104.685 31.1404 103.794 31.2984 102.791L31.6513 100.552V64.0793C31.6513 63.1544 32.5467 62.4047 33.6513 62.4047H58.4755C59.58 62.4047 60.4755 61.6549 60.4755 60.7301V57.4881C60.4755 56.5632 59.58 55.8135 58.4755 55.8135H28.8421C27.8012 55.8135 26.9343 55.145 26.8488 54.2764L26.6807 52.5683C26.5839 51.584 27.5202 50.7437 28.6996 50.7564L58.4498 51.076C59.5643 51.088 60.4755 50.3348 60.4755 49.4016V45.8905C60.4755 45.0636 61.1963 44.3605 62.1725 44.2352L64.5631 43.9284C65.8189 43.7673 66.9336 44.6147 66.863 45.6768L66.6199 49.3301C66.5561 50.29 67.4686 51.0978 68.6168 51.0978H97.4106C98.3412 51.0978 99.1488 51.6352 99.3589 52.3943L99.7371 53.7608C100.028 54.8105 99.0757 55.8135 97.7888 55.8135H68.5023C67.3978 55.8135 66.5023 56.5632 66.5023 57.4881ZM68.853 75.0315C69.6774 73.9155 70.4443 72.7701 71.1536 71.5952C72.027 70.1484 72.7694 68.6565 73.3808 67.1203H53.4004C55.2832 69.5719 56.8618 72.1069 58.136 74.7244C58.45 75.3694 59.1917 75.8018 60.0237 75.8018H67.1826C67.8613 75.8018 68.4959 75.5148 68.853 75.0315Z" fill="black" style="fill:black;fill-opacity:1;"/>
<path fill-rule="evenodd" clip-rule="evenodd" d="M66.5023 57.4881V60.7301C66.5023 61.6549 67.3978 62.4047 68.5023 62.4047H94.1782C95.2827 62.4047 96.1782 63.1544 96.1782 64.0793V99.2726C96.1782 100.487 95.9052 101.452 95.3593 102.166C94.8134 102.881 94.1037 103.426 93.2302 103.801C92.3568 104.176 91.3414 104.426 90.1841 104.551C89.0267 104.676 87.8585 104.738 86.6793 104.738C85.7622 104.738 84.8341 104.703 83.8951 104.631C82.9978 104.563 82.1105 104.527 81.2332 104.524C81.152 104.524 81.071 104.532 80.9919 104.547C80.4356 104.654 79.8762 104.379 79.7181 103.92L79.06 102.009C78.6645 100.86 79.7931 99.7421 81.2182 99.8108C81.6869 99.8335 82.1534 99.8505 82.6177 99.8621C84.0589 99.8978 85.522 99.9156 87.0068 99.9156C87.3125 99.9156 87.6619 99.9067 88.055 99.8888C88.448 99.871 88.8083 99.8174 89.1359 99.7281C89.4634 99.6388 89.7473 99.4959 89.9875 99.2994C90.2277 99.1029 90.3478 98.826 90.3478 98.4688V68.7949C90.3478 67.8701 89.4508 67.1203 88.3463 67.1203H73.3808L78.2797 68.2093C78.8726 68.3411 79.1853 68.8846 78.9382 69.3547C78.4396 70.3031 77.941 71.2463 77.4424 72.1843C77.258 72.5314 77.0666 72.8763 76.8682 73.2192C76.1936 74.3853 77.1677 75.8014 78.7153 75.8014H82.3209C83.4255 75.8014 84.3209 76.5512 84.3209 77.476V79.0033C84.3209 79.9281 83.4255 80.6779 82.3209 80.6779H68.5678C67.4633 80.6779 66.5679 81.4276 66.5679 82.3525V84.6299C66.5679 85.5548 67.4633 86.3045 68.5679 86.3045H85.2034C86.3079 86.3045 87.2034 87.0543 87.2034 87.9791V89.3992C87.2034 90.324 86.3079 91.0738 85.2034 91.0738H68.5679C67.4633 91.0738 66.5679 91.8235 66.5679 92.7484V99.7505C66.5679 100.478 66.0074 101.122 65.1807 101.345L63.1538 101.891C61.8626 102.239 60.541 101.432 60.541 100.297V92.7484C60.541 91.8235 59.6455 91.0738 58.541 91.0738H41.7089C40.6044 91.0738 39.7089 90.324 39.7089 89.3992V87.9791C39.7089 87.0543 40.6044 86.3045 41.7089 86.3045H58.541C59.6455 86.3045 60.541 85.5548 60.541 84.6299V82.3525C60.541 81.4276 59.6455 80.6779 58.541 80.6779H45.1809C44.0764 80.6779 43.1809 79.9281 43.1809 79.0033V77.476C43.1809 76.5512 44.0764 75.8014 45.1809 75.8014H49.1757C50.5976 75.8014 51.5605 74.5944 50.9153 73.5335C50.6426 73.085 50.3573 72.6442 50.0594 72.2111C49.4885 71.3808 48.8829 70.5598 48.2428 69.7483C47.8781 69.286 48.1236 68.6551 48.7487 68.4733L53.4004 67.1203H39.4161C38.3115 67.1203 37.4161 67.8701 37.4161 68.7949V103.01C37.4161 103.935 36.5207 104.685 35.4161 104.685H33.2813C32.0728 104.685 31.1404 103.794 31.2984 102.791L31.6513 100.552V64.0793C31.6513 63.1544 32.5467 62.4047 33.6513 62.4047H58.4755C59.58 62.4047 60.4755 61.6549 60.4755 60.7301V57.4881C60.4755 56.5632 59.58 55.8135 58.4755 55.8135H28.8421C27.8012 55.8135 26.9343 55.145 26.8488 54.2764L26.6807 52.5683C26.5839 51.584 27.5202 50.7437 28.6996 50.7564L58.4498 51.076C59.5643 51.088 60.4755 50.3348 60.4755 49.4016V45.8905C60.4755 45.0636 61.1963 44.3605 62.1725 44.2352L64.5631 43.9284C65.8189 43.7673 66.9336 44.6147 66.863 45.6768L66.6199 49.3301C66.5561 50.29 67.4686 51.0978 68.6168 51.0978H97.4106C98.3412 51.0978 99.1488 51.6352 99.3589 52.3943L99.7371 53.7608C100.028 54.8105 99.0757 55.8135 97.7888 55.8135H68.5023C67.3978 55.8135 66.5023 56.5632 66.5023 57.4881ZM68.853 75.0315C69.6774 73.9155 70.4443 72.7701 71.1536 71.5952C72.027 70.1484 72.7694 68.6565 73.3808 67.1203H53.4004C55.2832 69.5719 56.8618 72.1069 58.136 74.7244C58.45 75.3694 59.1917 75.8018 60.0237 75.8018H67.1826C67.8613 75.8018 68.4959 75.5148 68.853 75.0315Z" fill="#426FE4" style="fill:#426FE4;fill:color(display-p3 0.2588 0.4353 0.8941);fill-opacity:1;"/>
<path d="M73.8428 67.3116C73.8428 67.3115 73.8428 67.3117 73.8428 67.3116C73.8428 67.3116 73.8428 67.3116 73.8428 67.3116C73.8428 67.3116 73.8428 67.3116 73.8428 67.3116C73.8428 67.3116 73.8428 67.3116 73.8428 67.3116C73.8428 67.3116 73.8428 67.3116 73.8428 67.3116C73.8428 67.3116 73.8428 67.3116 73.8428 67.3116C73.5721 66.6583 72.9189 66.929 72.9189 66.929C72.9189 66.9291 72.9189 66.929 72.9189 66.929C72.9189 66.9291 72.9189 66.929 72.9189 66.9291C72.9188 66.9291 72.9189 66.929 72.9189 66.9291C72.9188 66.9292 72.9189 66.929 72.9189 66.9291C72.9189 66.9291 72.9189 66.9291 72.9189 66.9291C72.9189 66.9291 72.9189 66.9291 72.9189 66.9291C72.9188 66.9291 72.9189 66.9291 72.9189 66.9291C72.9189 66.9291 72.9189 66.9291 72.9189 66.9291C72.9189 66.9291 72.9189 66.9291 72.9189 66.9291C72.9189 66.9291 72.9189 66.9291 72.9189 66.9291C72.9189 66.9291 73.5721 66.6584 73.8428 67.3116C73.8428 67.3116 73.8428 67.3116 73.8428 67.3116C73.8428 67.3116 73.8428 67.3116 73.8428 67.3116C73.8428 67.3116 73.8428 67.3116 73.8428 67.3116C73.8428 67.3116 73.8428 67.3116 73.8428 67.3116C73.8428 67.3116 73.8428 67.3116 73.8428 67.3116L72.9189 66.9291C72.9188 66.9291 72.9189 66.929 72.9189 66.9291C72.9189 66.9291 72.9189 66.9291 72.9189 66.9291C72.9189 66.9291 72.9189 66.9291 72.9189 66.9291C72.9189 66.9291 72.9189 66.9291 72.9189 66.9291C72.9189 66.9291 72.9189 66.9291 72.9189 66.9291C72.9189 66.9291 72.9189 66.9291 72.9189 66.9291C73.1896 67.5823 73.8428 67.3116 73.8428 67.3116C73.8428 67.3116 73.8428 67.3117 73.8428 67.3116C73.8428 67.3116 73.8428 67.3117 73.8428 67.3116C73.8428 67.3115 73.8428 67.3117 73.8428 67.3116C73.8428 67.3115 73.8428 67.3117 73.8428 67.3116C73.8428 67.3116 73.8428 67.3116 73.8428 67.3116C73.8428 67.3116 73.8428 67.3116 73.8428 67.3116C73.8428 67.3115 73.8428 67.3116 73.8428 67.3116C73.8428 67.3116 73.8428 67.3116 73.8428 67.3116C73.8428 67.3116 73.8428 67.3116 73.8428 67.3116C73.8428 67.3116 73.8428 67.3116 73.8428 67.3116C73.8428 67.3116 73.1896 67.5823 72.9189 66.929C72.9189 66.929 72.9189 66.929 72.9189 66.929C72.9189 66.929 72.9189 66.929 72.9189 66.929C72.9189 66.9291 72.9189 66.929 72.9189 66.9291L73.8428 67.3116ZM93.2302 103.801L92.8356 102.882L92.8356 102.882L93.2302 103.801ZM90.1841 104.551L90.2915 105.545L90.2915 105.545L90.1841 104.551ZM83.8951 104.631L83.8193 105.628H83.8193L83.8951 104.631ZM81.2332 104.524L81.2297 105.524H81.2297L81.2332 104.524ZM80.9919 104.547L81.1813 105.529L81.1814 105.529L80.9919 104.547ZM79.7181 103.92L78.7726 104.245L79.7181 103.92ZM79.06 102.009L80.0055 101.683V101.683L79.06 102.009ZM81.2182 99.8108L81.1699 100.81H81.1699L81.2182 99.8108ZM82.6177 99.8621L82.5929 100.862H82.5929L82.6177 99.8621ZM89.9875 99.2994L89.3544 98.5254L89.3544 98.5254L89.9875 99.2994ZM78.2797 68.2093L78.4967 67.2331L78.2797 68.2093ZM78.9382 69.3547L79.8233 69.82L78.9382 69.3547ZM77.4424 72.1843L78.3255 72.6537V72.6536L77.4424 72.1843ZM76.8682 73.2192L77.7338 73.7199V73.7199L76.8682 73.2192ZM65.1807 101.345L65.4409 102.31H65.4409L65.1807 101.345ZM63.1538 101.891L63.414 102.856L63.1538 101.891ZM50.9153 73.5335L50.0609 74.0531V74.0531L50.9153 73.5335ZM50.0594 72.2111L49.2355 72.7777V72.7777L50.0594 72.2111ZM48.2428 69.7483L49.0279 69.129L48.2428 69.7483ZM48.7487 68.4733L48.4694 67.5131L48.4694 67.5131L48.7487 68.4733ZM31.2984 102.791L30.3106 102.636L31.2984 102.791ZM31.6513 100.552L32.6391 100.708L32.6513 100.63V100.552H31.6513ZM26.8488 54.2764L25.8536 54.3743H25.8536L26.8488 54.2764ZM26.6807 52.5683L27.6759 52.4704L26.6807 52.5683ZM28.6996 50.7564L28.6889 51.7563H28.6889L28.6996 50.7564ZM58.4498 51.076L58.4391 52.076H58.4391L58.4498 51.076ZM62.1725 44.2352L62.2998 45.2271V45.2271L62.1725 44.2352ZM64.5631 43.9284L64.6903 44.9203V44.9203L64.5631 43.9284ZM66.863 45.6768L65.8652 45.6105V45.6105L66.863 45.6768ZM66.6199 49.3301L67.6177 49.3964V49.3964L66.6199 49.3301ZM99.3589 52.3943L100.323 52.1276L100.323 52.1276L99.3589 52.3943ZM99.7371 53.7608L100.701 53.4941V53.494L99.7371 53.7608ZM71.1536 71.5952L72.0097 72.112V72.112L71.1536 71.5952ZM68.853 75.0315L68.0487 74.4373V74.4373L68.853 75.0315ZM58.136 74.7244L57.2369 75.1621L58.136 74.7244ZM67.5023 60.7301V57.4881H65.5023V60.7301H67.5023ZM68.5023 61.4047C67.7764 61.4047 67.5023 60.9437 67.5023 60.7301H65.5023C65.5023 62.3662 67.0192 63.4047 68.5023 63.4047V61.4047ZM94.1782 61.4047H68.5023V63.4047H94.1782V61.4047ZM97.1782 64.0793C97.1782 62.4432 95.6614 61.4047 94.1782 61.4047V63.4047C94.9041 63.4047 95.1782 63.8657 95.1782 64.0793H97.1782ZM97.1782 99.2726V64.0793H95.1782V99.2726H97.1782ZM96.1539 102.773C96.8729 101.832 97.1782 100.63 97.1782 99.2726H95.1782C95.1782 100.344 94.9375 101.071 94.5647 101.559L96.1539 102.773ZM93.6248 104.72C94.6469 104.281 95.4977 103.632 96.1539 102.773L94.5647 101.559C94.1291 102.129 93.5606 102.571 92.8356 102.882L93.6248 104.72ZM90.2915 105.545C91.5264 105.412 92.6421 105.142 93.6249 104.72L92.8356 102.882C92.0715 103.21 91.1564 103.44 90.0766 103.557L90.2915 105.545ZM86.6793 105.738C87.8939 105.738 89.098 105.674 90.2915 105.545L90.0766 103.557C88.9554 103.678 87.823 103.738 86.6793 103.738V105.738ZM83.8193 105.628C84.7828 105.702 85.7362 105.738 86.6793 105.738V103.738C85.7881 103.738 84.8854 103.704 83.971 103.634L83.8193 105.628ZM81.2297 105.524C82.0823 105.527 82.9454 105.562 83.8193 105.628L83.971 103.634C83.0502 103.564 82.1388 103.527 81.2366 103.524L81.2297 105.524ZM81.1814 105.529C81.1981 105.526 81.2145 105.524 81.2297 105.524L81.2366 103.524C81.0895 103.524 80.9439 103.538 80.8024 103.565L81.1814 105.529ZM78.7726 104.245C79.1296 105.282 80.2558 105.708 81.1813 105.529L80.8024 103.565C80.7387 103.578 80.6814 103.565 80.6476 103.549C80.6123 103.531 80.6424 103.532 80.6636 103.594L78.7726 104.245ZM78.1145 102.334L78.7726 104.245L80.6636 103.594L80.0055 101.683L78.1145 102.334ZM81.2664 98.812C80.2858 98.7647 79.367 99.1229 78.7461 99.7493C78.1152 100.386 77.7721 101.34 78.1145 102.334L80.0055 101.683C79.9525 101.529 79.9758 101.35 80.1666 101.157C80.3674 100.955 80.7254 100.788 81.1699 100.81L81.2664 98.812ZM82.6425 98.8624C82.1861 98.851 81.7274 98.8343 81.2664 98.812L81.1699 100.81C81.6464 100.833 82.1208 100.85 82.5929 100.862L82.6425 98.8624ZM87.0068 98.9156C85.53 98.9156 84.0752 98.8979 82.6425 98.8624L82.5929 100.862C84.0426 100.898 85.5139 100.916 87.0068 100.916V98.9156ZM88.0096 98.8899C87.6276 98.9072 87.2938 98.9156 87.0068 98.9156V100.916C87.3312 100.916 87.6962 100.906 88.1004 100.888L88.0096 98.8899ZM88.8728 98.7633C88.6265 98.8305 88.3404 98.8748 88.0096 98.8899L88.1004 100.888C88.5557 100.867 88.9902 100.804 89.399 100.693L88.8728 98.7633ZM89.3544 98.5254C89.2326 98.6249 89.0779 98.7074 88.8728 98.7633L89.399 100.693C89.849 100.57 90.262 100.367 90.6207 100.073L89.3544 98.5254ZM89.3478 98.4688C89.3478 98.5353 89.3368 98.5545 89.3403 98.5464C89.3419 98.5428 89.345 98.5371 89.3494 98.5313C89.3538 98.5255 89.3564 98.5237 89.3544 98.5254L90.6207 100.073C91.1297 99.657 91.3478 99.0752 91.3478 98.4688H89.3478ZM89.3478 68.7949V98.4688H91.3478V68.7949H89.3478ZM88.3463 68.1203C89.0733 68.1203 89.3478 68.5822 89.3478 68.7949H91.3478C91.3478 67.1579 89.8284 66.1203 88.3463 66.1203V68.1203ZM73.3808 68.1203H88.3463V66.1203H73.3808V68.1203ZM78.4967 67.2331L73.5978 66.1442L73.1639 68.0965L78.0627 69.1854L78.4967 67.2331ZM79.8233 69.82C80.1156 69.2642 80.0728 68.647 79.7908 68.1566C79.5159 67.6785 79.0395 67.3537 78.4967 67.2331L78.0627 69.1854C78.1128 69.1966 78.0892 69.2095 78.0571 69.1536C78.0409 69.1256 78.0252 69.0826 78.0235 69.0281C78.0216 68.9715 78.0356 68.9225 78.0531 68.8893L79.8233 69.82ZM78.3255 72.6536C78.8248 71.7143 79.3241 70.7697 79.8233 69.82L78.0531 68.8893C77.5552 69.8364 77.0573 70.7783 76.5594 71.715L78.3255 72.6536ZM77.7338 73.7199C77.9381 73.3668 78.1353 73.0114 78.3255 72.6537L76.5594 71.715C76.3806 72.0514 76.195 72.3859 76.0027 72.7184L77.7338 73.7199ZM78.7153 74.8014C78.2517 74.8014 77.9324 74.5935 77.7755 74.3711C77.6251 74.158 77.6109 73.9324 77.7338 73.7199L76.0027 72.7184C75.4509 73.6721 75.5864 74.7376 76.1413 75.5241C76.6897 76.3013 77.6313 76.8014 78.7153 76.8014V74.8014ZM82.3209 74.8014H78.7153V76.8014H82.3209V74.8014ZM85.3209 77.476C85.3209 75.8399 83.8041 74.8014 82.3209 74.8014V76.8014C83.0469 76.8014 83.3209 77.2625 83.3209 77.476H85.3209ZM85.3209 79.0033V77.476H83.3209V79.0033H85.3209ZM82.3209 81.6779C83.8041 81.6779 85.3209 80.6394 85.3209 79.0033H83.3209C83.3209 79.2169 83.0469 79.6779 82.3209 79.6779V81.6779ZM68.5678 81.6779H82.3209V79.6779H68.5678V81.6779ZM67.5679 82.3525C67.5679 82.1389 67.8419 81.6779 68.5678 81.6779V79.6779C67.0847 79.6779 65.5679 80.7163 65.5679 82.3525H67.5679ZM67.5679 84.6299V82.3525H65.5679V84.6299H67.5679ZM68.5679 85.3045C67.8419 85.3045 67.5679 84.8435 67.5679 84.6299H65.5679C65.5679 86.266 67.0847 87.3045 68.5679 87.3045V85.3045ZM85.2034 85.3045H68.5679V87.3045H85.2034V85.3045ZM88.2034 87.9791C88.2034 86.343 86.6865 85.3045 85.2034 85.3045V87.3045C85.9293 87.3045 86.2034 87.7655 86.2034 87.9791H88.2034ZM88.2034 89.3992V87.9791H86.2034V89.3992H88.2034ZM85.2034 92.0738C86.6865 92.0738 88.2034 91.0353 88.2034 89.3992H86.2034C86.2034 89.6128 85.9293 90.0738 85.2034 90.0738V92.0738ZM68.5679 92.0738H85.2034V90.0738H68.5679V92.0738ZM67.5679 92.7484C67.5679 92.5348 67.8419 92.0738 68.5679 92.0738V90.0738C67.0847 90.0738 65.5679 91.1122 65.5679 92.7484H67.5679ZM67.5679 99.7505V92.7484H65.5679V99.7505H67.5679ZM65.4409 102.31C66.5989 101.998 67.5679 101.03 67.5679 99.7505H65.5679C65.5679 99.9252 65.4158 100.245 64.9204 100.379L65.4409 102.31ZM63.414 102.856L65.4409 102.31L64.9204 100.379L62.8936 100.925L63.414 102.856ZM59.541 100.297C59.541 101.284 60.1188 102.062 60.8424 102.504C61.5656 102.945 62.5009 103.102 63.414 102.856L62.8936 100.925C62.5155 101.027 62.1444 100.955 61.884 100.797C61.624 100.638 61.541 100.445 61.541 100.297H59.541ZM59.541 92.7484V100.297H61.541V92.7484H59.541ZM58.541 92.0738C59.2669 92.0738 59.541 92.5348 59.541 92.7484H61.541C61.541 91.1122 60.0241 90.0738 58.541 90.0738V92.0738ZM41.7089 92.0738H58.541V90.0738H41.7089V92.0738ZM38.7089 89.3992C38.7089 91.0353 40.2258 92.0738 41.7089 92.0738V90.0738C40.983 90.0738 40.7089 89.6128 40.7089 89.3992H38.7089ZM38.7089 87.9791V89.3992H40.7089V87.9791H38.7089ZM41.7089 85.3045C40.2258 85.3045 38.7089 86.343 38.7089 87.9791H40.7089C40.7089 87.7655 40.983 87.3045 41.7089 87.3045V85.3045ZM58.541 85.3045H41.7089V87.3045H58.541V85.3045ZM59.541 84.6299C59.541 84.8435 59.2669 85.3045 58.541 85.3045V87.3045C60.0241 87.3045 61.541 86.266 61.541 84.6299H59.541ZM59.541 82.3525V84.6299H61.541V82.3525H59.541ZM58.541 81.6779C59.2669 81.6779 59.541 82.1389 59.541 82.3525H61.541C61.541 80.7163 60.0241 79.6779 58.541 79.6779V81.6779ZM45.1809 81.6779H58.541V79.6779H45.1809V81.6779ZM42.1809 79.0033C42.1809 80.6394 43.6978 81.6779 45.1809 81.6779V79.6779C44.455 79.6779 44.1809 79.2169 44.1809 79.0033H42.1809ZM42.1809 77.476V79.0033H44.1809V77.476H42.1809ZM45.1809 74.8014C43.6978 74.8014 42.1809 75.8399 42.1809 77.476H44.1809C44.1809 77.2624 44.455 76.8014 45.1809 76.8014V74.8014ZM49.1757 74.8014H45.1809V76.8014H49.1757V74.8014ZM50.0609 74.0531C50.1169 74.1451 50.1226 74.2097 50.1191 74.2528C50.115 74.3015 50.0941 74.3706 50.0313 74.4514C49.9018 74.6179 49.6102 74.8014 49.1757 74.8014V76.8014C50.1631 76.8014 51.0639 76.3815 51.6101 75.6792C52.1769 74.9503 52.329 73.9336 51.7697 73.0139L50.0609 74.0531ZM49.2355 72.7777C49.5227 73.1955 49.7979 73.6206 50.0609 74.0531L51.7697 73.0139C51.4872 72.5494 51.1918 72.093 50.8834 71.6445L49.2355 72.7777ZM47.4577 70.3676C48.0846 71.1624 48.6772 71.9658 49.2355 72.7777L50.8834 71.6445C50.2998 70.7957 49.6812 69.9572 49.0279 69.129L47.4577 70.3676ZM48.4694 67.5131C47.8903 67.6815 47.4129 68.0843 47.1942 68.6389C46.9706 69.2061 47.0535 69.8552 47.4577 70.3676L49.0279 69.129C49.0412 69.1458 49.0619 69.1823 49.0696 69.2354C49.0772 69.2872 49.0695 69.3352 49.0549 69.3724C49.0241 69.4504 48.9819 69.4469 49.028 69.4335L48.4694 67.5131ZM53.1212 66.1601L48.4694 67.5131L49.028 69.4335L53.6797 68.0805L53.1212 66.1601ZM39.4161 68.1203H53.4004V66.1203H39.4161V68.1203ZM38.4161 68.7949C38.4161 68.5813 38.6901 68.1203 39.4161 68.1203V66.1203C37.9329 66.1203 36.4161 67.1588 36.4161 68.7949H38.4161ZM38.4161 103.01V68.7949H36.4161V103.01H38.4161ZM35.4161 105.685C36.8993 105.685 38.4161 104.646 38.4161 103.01H36.4161C36.4161 103.224 36.1421 103.685 35.4161 103.685V105.685ZM33.2813 105.685H35.4161V103.685H33.2813V105.685ZM30.3106 102.636C30.0261 104.441 31.6746 105.685 33.2813 105.685V103.685C32.9195 103.685 32.636 103.551 32.4681 103.391C32.3047 103.235 32.2656 103.078 32.2863 102.947L30.3106 102.636ZM30.6634 100.396L30.3106 102.636L32.2863 102.947L32.6391 100.708L30.6634 100.396ZM30.6513 64.0793V100.552H32.6513V64.0793H30.6513ZM33.6513 61.4047C32.1681 61.4047 30.6513 62.4431 30.6513 64.0793H32.6513C32.6513 63.8657 32.9253 63.4047 33.6513 63.4047V61.4047ZM58.4755 61.4047H33.6513V63.4047H58.4755V61.4047ZM59.4755 60.7301C59.4755 60.9437 59.2014 61.4047 58.4755 61.4047V63.4047C59.9586 63.4047 61.4755 62.3662 61.4755 60.7301H59.4755ZM59.4755 57.4881V60.7301H61.4755V57.4881H59.4755ZM58.4755 56.8135C59.2014 56.8135 59.4755 57.2745 59.4755 57.4881H61.4755C61.4755 55.8519 59.9586 54.8135 58.4755 54.8135V56.8135ZM28.8421 56.8135H58.4755V54.8135H28.8421V56.8135ZM25.8536 54.3743C26.0028 55.8907 27.4359 56.8135 28.8421 56.8135V54.8135C28.1664 54.8135 27.8657 54.3992 27.844 54.1784L25.8536 54.3743ZM25.6855 52.6663L25.8536 54.3743L27.844 54.1784L27.6759 52.4704L25.6855 52.6663ZM28.7104 49.7564C27.1389 49.7395 25.5121 50.9043 25.6855 52.6663L27.6759 52.4704C27.6633 52.342 27.7095 52.1852 27.8795 52.0327C28.053 51.877 28.3362 51.7525 28.6889 51.7563L28.7104 49.7564ZM58.4605 50.0761L28.7104 49.7564L28.6889 51.7563L58.4391 52.076L58.4605 50.0761ZM59.4755 49.4016C59.4755 49.6168 59.1951 50.084 58.4605 50.0761L58.4391 52.076C59.9336 52.092 61.4755 51.0528 61.4755 49.4016H59.4755ZM59.4755 45.8905V49.4016H61.4755V45.8905H59.4755ZM62.0452 43.2433C60.7101 43.4147 59.4755 44.4311 59.4755 45.8905H61.4755C61.4755 45.6961 61.6825 45.3063 62.2998 45.2271L62.0452 43.2433ZM64.4358 42.9366L62.0452 43.2433L62.2998 45.2271L64.6903 44.9203L64.4358 42.9366ZM67.8608 45.7432C67.9223 44.8186 67.4597 44.0374 66.8156 43.5478C66.1742 43.0602 65.3171 42.8235 64.4358 42.9366L64.6903 44.9203C65.0649 44.8722 65.393 44.9786 65.6053 45.14C65.8148 45.2993 65.8743 45.4729 65.8652 45.6105L67.8608 45.7432ZM67.6177 49.3964L67.8608 45.7432L65.8652 45.6105L65.6221 49.2637L67.6177 49.3964ZM68.6168 50.0978C68.2739 50.0978 67.998 49.9768 67.8267 49.8252C67.6584 49.6762 67.6094 49.522 67.6177 49.3964L65.6221 49.2637C65.5083 50.9755 67.0814 52.0978 68.6168 52.0978V50.0978ZM97.4106 50.0978H68.6168V52.0978H97.4106V50.0978ZM100.323 52.1276C99.9656 50.8374 98.6805 50.0978 97.4106 50.0978V52.0978C98.0019 52.0978 98.332 52.433 98.3952 52.6611L100.323 52.1276ZM100.701 53.494L100.323 52.1276L98.3952 52.6611L98.7734 54.0276L100.701 53.494ZM97.7888 56.8135C98.6891 56.8135 99.5168 56.4624 100.08 55.8692C100.65 55.2688 100.952 54.4024 100.701 53.4941L98.7734 54.0275C98.8125 54.1689 98.7844 54.3288 98.6292 54.4923C98.4671 54.6631 98.1754 54.8135 97.7888 54.8135V56.8135ZM68.5023 56.8135H97.7888V54.8135H68.5023V56.8135ZM67.5023 57.4881C67.5023 57.2745 67.7764 56.8135 68.5023 56.8135V54.8135C67.0192 54.8135 65.5023 55.8519 65.5023 57.4881H67.5023ZM70.2975 71.0784C69.6044 72.2264 68.8549 73.346 68.0487 74.4373L69.6573 75.6257C70.5 74.485 71.2842 73.3138 72.0097 72.112L70.2975 71.0784ZM72.4517 66.7505C71.861 68.2347 71.1432 69.6775 70.2975 71.0784L72.0097 72.112C72.9108 70.6192 73.6778 69.0783 74.31 67.4901L72.4517 66.7505ZM53.4004 68.1203H73.3808V66.1203H53.4004V68.1203ZM59.0351 74.2867C57.7297 71.605 56.1148 69.013 54.1935 66.5113L52.6073 67.7294C54.4516 70.1309 55.9939 72.6087 57.2369 75.1621L59.0351 74.2867ZM60.0237 74.8018C59.5134 74.8018 59.1566 74.5361 59.0351 74.2867L57.2369 75.1621C57.7435 76.2028 58.8701 76.8018 60.0237 76.8018V74.8018ZM67.1826 74.8018H60.0237V76.8018H67.1826V74.8018ZM68.0487 74.4373C67.912 74.6223 67.6015 74.8018 67.1826 74.8018V76.8018C68.121 76.8018 69.0799 76.4072 69.6573 75.6257L68.0487 74.4373Z" fill="#3D6ADE" style="fill:#3D6ADE;fill:color(display-p3 0.2392 0.4157 0.8706);fill-opacity:1;" mask="url(#path-6-inside-1_499_336)"/>
</svg>
