<svg width="128" height="128" viewBox="0 0 128 128" fill="none" xmlns="http://www.w3.org/2000/svg">
<path d="M119.47 119.01C120.45 119.1 121.09 120.06 120.82 121C120.49 122.19 119.82 123.4 118.06 123.82C116.22 124.26 115.26 123.78 114.18 123.63C113.11 123.48 108.94 123.97 105.98 123.8C103.02 123.63 99.11 122.2 95.49 122.39C91.87 122.58 86.03 123.69 82.89 123.69C79.74 123.69 76.5 123.93 74.79 122.32C73.43 121.04 72.02 118.35 72.98 114.82C73.94 111.29 74.81 105.84 74.9 104.31C75.38 95.8101 73.59 86.8301 73 81.9801C72.41 77.1301 69.11 72.1701 68.66 59.1401C68.29 48.5501 72.52 42.0601 72.52 42.0601C72.52 42.0601 72.12 40.6301 67.74 41.3401C63.36 42.0501 30.87 43.2901 15.71 39.1701C4.41999 36.1001 3.12 11.8301 18.85 5.5001C33.27 -0.299899 73.85 12.5501 81.48 14.6401C89.11 16.7301 95.08 18.1001 97.84 27.9401C99.61 34.2501 96.75 42.9601 96.75 42.9601L90.48 94.2501C90.48 94.2501 89.12 102.67 93.18 105.37C99.1 109.31 106.22 114.42 111.12 116.97C111.91 117.38 113.51 118.36 115.91 118.64C117.15 118.79 118.47 118.92 119.47 119.01Z" fill="#F9DDBD" style="fill:#F9DDBD;fill:color(display-p3 0.9765 0.8667 0.7412);fill-opacity:1;"/>
<path d="M67.7299 41.3302C63.3499 42.0502 30.8599 43.2802 15.6999 39.1602C6.40992 35.2802 4.56992 20.8502 11.4699 20.6202C17.4799 20.4202 22.0099 26.3702 31.0199 28.8402C40.0299 31.3102 55.0999 32.1002 67.9199 35.4202C78.1599 38.0702 77.3599 40.1402 74.2399 47.1502C72.4999 51.0602 71.5999 62.7402 74.2999 69.5802C77.1699 77.0702 79.8499 85.5002 80.4099 93.6002C80.4099 103.61 78.6599 107.04 80.4099 113.52C81.0799 116 80.5099 116.02 81.3799 118.04C83.5499 121.46 88.8999 120.47 92.4199 121.2C89.9299 122.52 79.5399 123.87 77.2599 123.41C74.7599 122.87 73.2499 120.95 72.7799 118.74C72.5099 117.47 72.7099 116.12 72.9699 114.82C73.6899 111.16 74.5399 108.22 74.7999 105.01C76.5399 83.3502 61.9299 61.6402 72.4999 42.0502C72.4999 42.0502 72.7299 41.4902 72.1099 41.2202C71.4799 40.9402 69.9499 40.9702 67.7299 41.3302Z" fill="#FFD29C" style="fill:#FFD29C;fill:color(display-p3 1.0000 0.8235 0.6118);fill-opacity:1;"/>
<path d="M87.14 37.2598C87.91 37.7398 89.45 38.2298 89.79 37.6398C90.13 37.0498 88.74 36.2898 88.14 35.5898C86.37 33.5298 84.8 31.8898 83.97 29.2698C83.87 28.9498 83.4 27.6198 83.04 27.4498C81.5 26.7298 80.56 28.4098 80.77 29.8998C80.86 30.7198 81.6 31.8898 82.07 32.5598C83.49 34.5998 85.04 35.9298 87.14 37.2598Z" fill="#EDBD82" style="fill:#EDBD82;fill:color(display-p3 0.9294 0.7412 0.5098);fill-opacity:1;"/>
<path d="M83.4099 61.0999C84.3199 57.9399 84.7199 54.4999 84.1899 51.2199C83.9999 50.0599 83.4799 48.5099 82.3199 48.5899C81.6699 48.6399 81.2799 49.4899 81.0999 50.2599C80.7299 51.7999 80.6899 53.4299 80.5999 55.0399C80.3399 59.4899 79.8699 63.9599 78.5099 68.1299C77.9799 69.7699 78.5999 70.0899 78.9099 70.1299C80.2399 70.2899 82.6699 63.6499 83.4099 61.0999Z" fill="#EDBD82" style="fill:#EDBD82;fill:color(display-p3 0.9294 0.7412 0.5098);fill-opacity:1;"/>
<path d="M82.0699 115.11C82.6499 115.11 83.0399 114.65 82.5099 114.17C81.7199 113.45 80.8299 112.76 80.6799 109.88C80.6499 109.32 80.5299 108.41 79.8099 108.31C79.0899 108.21 78.8099 108.91 78.6799 109.58C78.4799 110.62 78.2999 111.71 79.4099 113.39C80.3299 114.76 81.4899 115.1 82.0699 115.11Z" fill="#EDBD82" style="fill:#EDBD82;fill:color(display-p3 0.9294 0.7412 0.5098);fill-opacity:1;"/>
<path d="M72.79 118.72C72.72 118.48 72.64 117.88 72.82 117.92C73.13 117.99 74.55 119.92 75.7 120.48C80.6 122.87 88.21 121.01 93.07 120.42C95.33 120.11 97.72 120.06 99.9 120.74C103.54 122.02 107.54 122.99 111.42 122.33C112.11 122.2 112.79 122.01 113.49 122.03C114.82 122.08 116.08 122.85 117.33 123.07C118.09 123.2 119.36 122.72 119.61 122.6C119.86 122.48 119.84 122.87 119.68 123C118.82 123.75 117.61 124 116.61 124C115.34 124 114.69 123.58 113.57 123.59C111.99 123.59 108.35 123.94 105.98 123.79C103.03 123.62 99.07 122.18 95.49 122.38C90.81 122.69 85.79 123.69 81.51 123.69C79.7 123.69 77.41 123.67 76.03 123.12C74.13 122.37 73.23 120.87 72.79 118.72Z" fill="#EDBD82" style="fill:#EDBD82;fill:color(display-p3 0.9294 0.7412 0.5098);fill-opacity:1;"/>
<path d="M8.39007 31.3198C26.6701 38.6898 50.2301 40.1298 65.6201 39.2198C67.6101 39.0998 72.5601 38.4298 73.6701 40.0398C75.0301 42.0198 71.1501 46.2098 70.1901 47.7898C70.4301 45.8498 71.3201 44.0098 72.2401 42.2898C72.7601 41.1698 70.5901 41.1598 69.9201 41.1298C58.0201 42.5698 28.1501 42.6998 15.7101 39.1598C11.9901 38.1698 9.42007 34.8298 8.39007 31.3198Z" fill="#EDBD82" style="fill:#EDBD82;fill:color(display-p3 0.9294 0.7412 0.5098);fill-opacity:1;"/>
</svg>
