<svg width="129" height="129" viewBox="0 0 129 129" fill="none" xmlns="http://www.w3.org/2000/svg">
<path d="M76.46 75.9L78.79 73.52C78.96 73.4 79.89 73.38 80.08 73.44C80.14 73.44 80.53 74.13 80.59 74.14L81.49 74.3C81.87 74.39 82.12 74.78 82.03 75.17L81.99 75.38C81.91 75.77 81.53 76.02 81.15 75.93L79.78 75.61L77.4 77.29C77.08 77.52 76.64 77.43 76.41 77.1L76.29 76.92C76.06 76.57 76.14 76.12 76.46 75.9Z" fill="#EDA600" style="fill:#EDA600;fill:color(display-p3 0.9294 0.6510 0.0000);fill-opacity:1;"/>
<path d="M76.46 75.9L78.79 73.52C78.96 73.4 79.89 73.38 80.08 73.44C80.14 73.44 80.53 74.13 80.59 74.14L81.49 74.3C81.87 74.39 82.12 74.78 82.03 75.17L81.99 75.38C81.91 75.77 81.53 76.02 81.15 75.93L79.78 75.61L77.4 77.29C77.08 77.52 76.64 77.43 76.41 77.1L76.29 76.92C76.06 76.57 76.14 76.12 76.46 75.9Z" fill="#EDBD82" style="fill:#EDBD82;fill:color(display-p3 0.9294 0.7412 0.5098);fill-opacity:1;"/>
<path d="M91.0099 16.8301C74.7099 16.8301 74.8399 31.9401 74.8399 32.1801C74.8399 41.9701 75.5899 55.8001 79.4899 61.2401C81.0399 63.4001 84.0299 63.5201 84.0299 63.5201L90.7799 63.5001L97.5199 63.5101C97.5199 63.5101 100.51 63.3901 102.06 61.2301C105.97 55.7901 106.71 41.9601 106.71 32.1701C106.72 31.9401 107.31 16.8301 91.0099 16.8301Z" fill="#262626" style="fill:#262626;fill:color(display-p3 0.1490 0.1490 0.1490);fill-opacity:1;"/>
<path d="M121.34 113.67C120.78 111.24 118.1 108.55 115.47 105.95C113.77 104.27 110.71 104.62 109.04 106.33C107.37 108.04 107.07 111.11 108.77 112.79C111.4 115.39 114.13 118.03 116.56 118.55C118.47 118.96 120.06 118.35 120.63 117.77C121.2 117.18 121.78 115.58 121.34 113.67Z" fill="#504F4F" style="fill:#504F4F;fill:color(display-p3 0.3137 0.3098 0.3098);fill-opacity:1;"/>
<path d="M91.8 124.32H85.74L82.46 105.04C83.11 106.74 84.76 107.95 86.7 107.95C89.2 107.95 91.23 105.93 91.24 103.44L91.8 124.32Z" fill="url(#paint0_linear_84_2796)" style=""/>
<path d="M91.8 124.32H85.74L82.46 105.04C83.11 106.74 84.76 107.95 86.7 107.95C89.2 107.95 91.23 105.93 91.24 103.44L91.8 124.32Z" fill="url(#paint1_linear_84_2796)" style=""/>
<path d="M116.06 113.97C115.06 114.53 113.82 114.46 112.89 113.78L100.74 103.14C100.63 103.04 100.52 102.94 100.42 102.83C101.26 103.66 102.41 104.18 103.69 104.18C106.26 104.18 108.34 102.1 108.34 99.53C108.34 99.03 108.26 98.54 108.11 98.09C108.12 98.1 108.13 98.12 108.14 98.13L116.69 109.29C118.08 110.67 117.77 113.01 116.06 113.97Z" fill="url(#paint2_linear_84_2796)" style=""/>
<path d="M116.06 113.97C115.06 114.53 113.82 114.46 112.89 113.78L100.74 103.14C100.63 103.04 100.52 102.94 100.42 102.83C101.26 103.66 102.41 104.18 103.69 104.18C106.26 104.18 108.34 102.1 108.34 99.53C108.34 99.03 108.26 98.54 108.11 98.09C108.12 98.1 108.13 98.12 108.14 98.13L116.69 109.29C118.08 110.67 117.77 113.01 116.06 113.97Z" fill="url(#paint3_linear_84_2796)" style=""/>
<path d="M108.34 99.5301C108.34 102.1 106.26 104.18 103.69 104.18C102.41 104.18 101.26 103.66 100.42 102.83C100.29 102.7 100.17 102.57 100.06 102.43C99.8502 102.18 99.6602 101.9 99.5002 101.62L92.6702 88.9701C92.6302 88.7501 91.4602 88.6001 91.2602 88.6001C91.0602 88.6001 90.8902 88.7601 90.8502 88.9701L91.2402 103.31V103.42C91.2402 103.43 91.2402 103.43 91.2402 103.44C91.2302 105.93 89.2002 107.95 86.7002 107.95C84.7602 107.95 83.1102 106.74 82.4602 105.04L82.1702 103.28L78.7402 83.1201L90.0802 75.0901L102.78 83.1101L107.45 96.8101L107.55 97.1001C107.69 97.4501 107.87 97.7901 108.11 98.0901C108.26 98.5401 108.34 99.0301 108.34 99.5301Z" fill="url(#paint4_linear_84_2796)" style=""/>
<path d="M108.34 99.5301C108.34 102.1 106.26 104.18 103.69 104.18C102.41 104.18 101.26 103.66 100.42 102.83C100.29 102.7 100.17 102.57 100.06 102.43C99.8502 102.18 99.6602 101.9 99.5002 101.62L92.6702 88.9701C92.6302 88.7501 91.4602 88.6001 91.2602 88.6001C91.0602 88.6001 90.8902 88.7601 90.8502 88.9701L91.2402 103.31V103.42C91.2402 103.43 91.2402 103.43 91.2402 103.44C91.2302 105.93 89.2002 107.95 86.7002 107.95C84.7602 107.95 83.1102 106.74 82.4602 105.04L82.1702 103.28L78.7402 83.1201L90.0802 75.0901L102.78 83.1101L107.45 96.8101L107.55 97.1001C107.69 97.4501 107.87 97.7901 108.11 98.0901C108.26 98.5401 108.34 99.0301 108.34 99.5301Z" fill="url(#paint5_linear_84_2796)" style=""/>
<path d="M105.39 75.6401L102.75 73.4201C102.58 73.3001 102.03 73.6601 101.84 73.7101C101.78 73.7101 101.32 73.8601 101.26 73.8701L100.36 74.0301C99.9801 74.1201 99.7301 74.5101 99.8201 74.9001L99.8601 75.1101C99.9401 75.5001 100.32 75.7501 100.7 75.6601L102.07 75.3401L104.45 77.0201C104.77 77.2501 105.21 77.1601 105.44 76.8301L105.56 76.6501C105.79 76.3201 105.71 75.8701 105.39 75.6401Z" fill="#EDA600" style="fill:#EDA600;fill:color(display-p3 0.9294 0.6510 0.0000);fill-opacity:1;"/>
<path d="M105.39 75.6401L102.75 73.4201C102.58 73.3001 102.03 73.6601 101.84 73.7101C101.78 73.7101 101.32 73.8601 101.26 73.8701L100.36 74.0301C99.9801 74.1201 99.7301 74.5101 99.8201 74.9001L99.8601 75.1101C99.9401 75.5001 100.32 75.7501 100.7 75.6601L102.07 75.3401L104.45 77.0201C104.77 77.2501 105.21 77.1601 105.44 76.8301L105.56 76.6501C105.79 76.3201 105.71 75.8701 105.39 75.6401Z" fill="#EDBD82" style="fill:#EDBD82;fill:color(display-p3 0.9294 0.7412 0.5098);fill-opacity:1;"/>
<path d="M109.27 60.8399C109.27 60.8399 107.2 53.4299 90.23 53.4299C73.26 53.4299 72.27 60.8399 72.27 60.8399L78.62 65.6699H101.87L109.27 60.8399Z" fill="#444444" style="fill:#444444;fill:color(display-p3 0.2667 0.2667 0.2667);fill-opacity:1;"/>
<path d="M110.24 60.8399C110.24 60.8399 107.17 53.4299 90.2002 53.4299C73.2302 53.4299 71.2402 60.8399 71.2402 60.8399L78.6602 67.7299V83.1499L88.4002 89.5799C89.1702 89.9699 90.0202 90.1699 90.8802 90.1699C91.7702 90.1699 92.6502 89.9499 93.4402 89.5399L102.75 83.1499V67.7299L110.24 60.8399Z" fill="url(#paint6_linear_84_2796)" style=""/>
<path d="M116.21 69.51L108.82 59.74L102.64 64.1L110.06 71.05L104.87 75.36C104.33 75.34 103.4 75.2 102.21 75.2H101.82L101.8 75.19C101.8 75.19 100.13 75.31 99.6902 75.65C99.2902 75.96 99.3302 76.5 99.5102 76.7C99.7202 76.94 99.6702 77.36 99.4602 77.59C99.2502 77.83 99.1202 78.12 99.1402 78.42C99.1602 78.71 99.2902 78.88 99.5802 79.1C99.7202 79.2 99.7902 79.48 99.7202 79.63C99.6002 79.87 99.4102 80.28 99.4502 80.5C99.5402 80.93 99.9802 81.02 100.08 81.35C100.12 81.48 99.7102 81.92 100.13 82.29C100.52 82.64 101.19 82.92 102.21 82.92C103.12 82.92 104.31 82.7 105.82 82.1C105.86 82.08 116.21 73.66 116.21 73.66C117.26 72.55 117.21 70.67 116.21 69.51Z" fill="url(#paint7_linear_84_2796)" style=""/>
<path d="M116.21 69.51L108.82 59.74L102.64 64.1L110.06 71.05L104.87 75.36C104.33 75.34 103.4 75.2 102.21 75.2H101.82L101.8 75.19C101.8 75.19 100.13 75.31 99.6902 75.65C99.2902 75.96 99.3302 76.5 99.5102 76.7C99.7202 76.94 99.6702 77.36 99.4602 77.59C99.2502 77.83 99.1202 78.12 99.1402 78.42C99.1602 78.71 99.2902 78.88 99.5802 79.1C99.7202 79.2 99.7902 79.48 99.7202 79.63C99.6002 79.87 99.4102 80.28 99.4502 80.5C99.5402 80.93 99.9802 81.02 100.08 81.35C100.12 81.48 99.7102 81.92 100.13 82.29C100.52 82.64 101.19 82.92 102.21 82.92C103.12 82.92 104.31 82.7 105.82 82.1C105.86 82.08 116.21 73.66 116.21 73.66C117.26 72.55 117.21 70.67 116.21 69.51Z" fill="url(#paint8_linear_84_2796)" style=""/>
<path d="M82.7202 78.44C82.7402 78.14 82.6102 77.85 82.4002 77.61C82.1902 77.37 82.1402 76.95 82.3502 76.72C82.5302 76.52 82.5602 75.97 82.1702 75.67C81.7302 75.33 80.0602 75.21 80.0602 75.21L80.0402 75.22H79.6502C78.4602 75.22 77.5302 75.35 76.9902 75.38L71.8002 71.07L79.2202 64.12L73.0302 59.74L65.6502 69.53C64.6502 70.68 64.6002 72.57 65.6502 73.68C65.6502 73.68 76.0002 82.1 76.0402 82.12C77.5502 82.71 78.7402 82.94 79.6502 82.94C80.6602 82.94 81.3402 82.66 81.7302 82.31C82.1502 81.93 81.7402 81.5 81.7802 81.37C81.8802 81.04 82.3102 80.95 82.4102 80.52C82.4602 80.31 82.2602 79.89 82.1402 79.65C82.0602 79.5 82.1402 79.22 82.2802 79.12C82.5702 78.9 82.7002 78.73 82.7202 78.44Z" fill="url(#paint9_linear_84_2796)" style=""/>
<path d="M82.7202 78.44C82.7402 78.14 82.6102 77.85 82.4002 77.61C82.1902 77.37 82.1402 76.95 82.3502 76.72C82.5302 76.52 82.5602 75.97 82.1702 75.67C81.7302 75.33 80.0602 75.21 80.0602 75.21L80.0402 75.22H79.6502C78.4602 75.22 77.5302 75.35 76.9902 75.38L71.8002 71.07L79.2202 64.12L73.0302 59.74L65.6502 69.53C64.6502 70.68 64.6002 72.57 65.6502 73.68C65.6502 73.68 76.0002 82.1 76.0402 82.12C77.5502 82.71 78.7402 82.94 79.6502 82.94C80.6602 82.94 81.3402 82.66 81.7302 82.31C82.1502 81.93 81.7402 81.5 81.7802 81.37C81.8802 81.04 82.3102 80.95 82.4102 80.52C82.4602 80.31 82.2602 79.89 82.1402 79.65C82.0602 79.5 82.1402 79.22 82.2802 79.12C82.5702 78.9 82.7002 78.73 82.7202 78.44Z" fill="url(#paint10_linear_84_2796)" style=""/>
<path d="M110.27 60.8399C110.27 60.8399 107.2 53.4299 90.23 53.4299C73.26 53.4299 71.27 60.8399 71.27 60.8399L78.62 67.6699H102.87L110.27 60.8399Z" fill="url(#paint11_linear_84_2796)" style=""/>
<path d="M101.26 54.8499C101.17 57.8499 97.4398 62.0699 90.7598 62.0699C83.9998 62.0699 80.2598 57.7399 80.2598 54.7399C80.2598 54.6899 80.2598 54.6399 80.2698 54.5899C82.7498 53.8899 85.9898 53.4299 90.2298 53.4299C94.9798 53.4299 98.5698 54.0099 101.26 54.8499Z" fill="url(#paint12_linear_84_2796)" style=""/>
<path d="M90.3498 57.7999C88.3798 57.7999 86.7798 56.2799 86.7798 54.3999V50.1399H94.7398V54.3999C94.7398 56.2699 93.1398 57.7999 91.1698 57.7999H90.3498Z" fill="#E59600" style="fill:#E59600;fill:color(display-p3 0.8980 0.5882 0.0000);fill-opacity:1;"/>
<path d="M90.3498 57.7999C88.3798 57.7999 86.7798 56.2799 86.7798 54.3999V50.1399H94.7398V54.3999C94.7398 56.2699 93.1398 57.7999 91.1698 57.7999H90.3498Z" fill="#EDC391" style="fill:#EDC391;fill:color(display-p3 0.9294 0.7647 0.5686);fill-opacity:1;"/>
<path d="M90.7999 20.77C83.9599 20.77 77.6299 25.87 77.6299 36.68C77.6299 45.36 82.9899 50.5 87.6599 52.16C88.7699 52.55 89.8499 52.75 90.7999 52.75C91.7499 52.75 92.8099 52.55 93.9199 52.16C98.5899 50.51 103.97 45.37 103.97 36.68C103.97 25.87 97.6399 20.77 90.7999 20.77Z" fill="#FFCA28" style="fill:#FFCA28;fill:color(display-p3 1.0000 0.7922 0.1569);fill-opacity:1;"/>
<path d="M90.7999 20.77C83.9599 20.77 77.6299 25.87 77.6299 36.68C77.6299 45.36 82.9899 50.5 87.6599 52.16C88.7699 52.55 89.8499 52.75 90.7999 52.75C91.7499 52.75 92.8099 52.55 93.9199 52.16C98.5899 50.51 103.97 45.37 103.97 36.68C103.97 25.87 97.6399 20.77 90.7999 20.77Z" fill="#F9DDBD" style="fill:#F9DDBD;fill:color(display-p3 0.9765 0.8667 0.7412);fill-opacity:1;"/>
<path d="M84.41 40.53C85.4759 40.53 86.34 39.6301 86.34 38.52C86.34 37.4099 85.4759 36.51 84.41 36.51C83.3441 36.51 82.48 37.4099 82.48 38.52C82.48 39.6301 83.3441 40.53 84.41 40.53Z" fill="#404040" style="fill:#404040;fill:color(display-p3 0.2510 0.2510 0.2510);fill-opacity:1;"/>
<path d="M97.3201 40.53C98.386 40.53 99.2501 39.6301 99.2501 38.52C99.2501 37.4099 98.386 36.51 97.3201 36.51C96.2542 36.51 95.3901 37.4099 95.3901 38.52C95.3901 39.6301 96.2542 40.53 97.3201 40.53Z" fill="#404040" style="fill:#404040;fill:color(display-p3 0.2510 0.2510 0.2510);fill-opacity:1;"/>
<path d="M92.2799 42.1701C92.2399 42.1501 92.1999 42.1401 92.1499 42.1401H89.3699C89.3299 42.1501 89.2899 42.1601 89.2399 42.1701C88.9899 42.2701 88.8499 42.5301 88.9699 42.8101C89.0899 43.0901 89.6399 43.8701 90.7599 43.8701C91.8699 43.8701 92.4299 43.0901 92.5499 42.8101C92.6699 42.5401 92.5299 42.2801 92.2799 42.1701Z" fill="#E59600" style="fill:#E59600;fill:color(display-p3 0.8980 0.5882 0.0000);fill-opacity:1;"/>
<path d="M92.2799 42.1701C92.2399 42.1501 92.1999 42.1401 92.1499 42.1401H89.3699C89.3299 42.1501 89.2899 42.1601 89.2399 42.1701C88.9899 42.2701 88.8499 42.5301 88.9699 42.8101C89.0899 43.0901 89.6399 43.8701 90.7599 43.8701C91.8699 43.8701 92.4299 43.0901 92.5499 42.8101C92.6699 42.5401 92.5299 42.2801 92.2799 42.1701Z" fill="#DBA689" style="fill:#DBA689;fill:color(display-p3 0.8588 0.6510 0.5373);fill-opacity:1;"/>
<path d="M87.2797 34.91C86.9097 34.42 86.0597 33.71 84.4097 33.71C82.7597 33.71 81.8997 34.42 81.5397 34.91C81.3797 35.13 81.4197 35.38 81.5297 35.53C81.6297 35.67 81.9397 35.8 82.2897 35.68C82.6297 35.56 83.2997 35.22 84.4197 35.21C85.5397 35.22 86.2097 35.56 86.5497 35.68C86.8897 35.8 87.1997 35.67 87.3097 35.53C87.4097 35.37 87.4497 35.12 87.2797 34.91Z" fill="#6D4C41" style="fill:#6D4C41;fill:color(display-p3 0.4275 0.2980 0.2549);fill-opacity:1;"/>
<path d="M87.2797 34.91C86.9097 34.42 86.0597 33.71 84.4097 33.71C82.7597 33.71 81.8997 34.42 81.5397 34.91C81.3797 35.13 81.4197 35.38 81.5297 35.53C81.6297 35.67 81.9397 35.8 82.2897 35.68C82.6297 35.56 83.2997 35.22 84.4197 35.21C85.5397 35.22 86.2097 35.56 86.5497 35.68C86.8897 35.8 87.1997 35.67 87.3097 35.53C87.4097 35.37 87.4497 35.12 87.2797 34.91Z" fill="#454140" style="fill:#454140;fill:color(display-p3 0.2706 0.2549 0.2510);fill-opacity:1;"/>
<path d="M100.2 34.91C99.8296 34.42 98.9796 33.71 97.3296 33.71C95.6796 33.71 94.8196 34.42 94.4596 34.91C94.2996 35.13 94.3396 35.38 94.4496 35.53C94.5496 35.67 94.8596 35.8 95.2096 35.68C95.5496 35.56 96.2196 35.22 97.3396 35.21C98.4596 35.22 99.1296 35.56 99.4696 35.68C99.8096 35.8 100.12 35.67 100.23 35.53C100.32 35.37 100.36 35.12 100.2 34.91Z" fill="#6D4C41" style="fill:#6D4C41;fill:color(display-p3 0.4275 0.2980 0.2549);fill-opacity:1;"/>
<path d="M100.2 34.91C99.8296 34.42 98.9796 33.71 97.3296 33.71C95.6796 33.71 94.8196 34.42 94.4596 34.91C94.2996 35.13 94.3396 35.38 94.4496 35.53C94.5496 35.67 94.8596 35.8 95.2096 35.68C95.5496 35.56 96.2196 35.22 97.3396 35.21C98.4596 35.22 99.1296 35.56 99.4696 35.68C99.8096 35.8 100.12 35.67 100.23 35.53C100.32 35.37 100.36 35.12 100.2 34.91Z" fill="#454140" style="fill:#454140;fill:color(display-p3 0.2706 0.2549 0.2510);fill-opacity:1;"/>
<path d="M90.9698 16.8301C74.6298 16.8301 74.7598 31.9401 74.7598 32.1801C74.7598 39.4801 75.1798 49.0301 77.0198 55.6701C77.6198 55.4001 78.2798 55.1501 78.9998 54.9201C79.2598 54.8301 79.5298 54.7501 79.8098 54.6701C79.6598 52.6301 79.0198 43.8501 78.9398 39.4301C78.9198 38.2601 78.5698 33.9101 80.9898 33.3601C89.8798 31.3401 94.8998 26.5701 94.8998 26.5701C96.2098 29.4601 100.3 32.2801 101.76 33.3501C102.97 34.2301 102.8 37.8401 102.77 39.3901L101.58 54.8801C101.74 54.9301 101.9 54.9801 102.06 55.0301C102.92 55.3101 103.69 55.6201 104.39 55.9301C106.3 49.2801 106.72 39.5801 106.72 32.1801C106.72 31.9401 107.31 16.8301 90.9698 16.8301Z" fill="#543930" style="fill:#543930;fill:color(display-p3 0.3294 0.2235 0.1882);fill-opacity:1;"/>
<path d="M90.9698 16.8301C74.6298 16.8301 74.7598 31.9401 74.7598 32.1801C74.7598 39.4801 75.1798 49.0301 77.0198 55.6701C77.6198 55.4001 78.2798 55.1501 78.9998 54.9201C79.2598 54.8301 79.5298 54.7501 79.8098 54.6701C79.6598 52.6301 79.0198 43.8501 78.9398 39.4301C78.9198 38.2601 78.5698 33.9101 80.9898 33.3601C89.8798 31.3401 94.8998 26.5701 94.8998 26.5701C96.2098 29.4601 100.3 32.2801 101.76 33.3501C102.97 34.2301 102.8 37.8401 102.77 39.3901L101.58 54.8801C101.74 54.9301 101.9 54.9801 102.06 55.0301C102.92 55.3101 103.69 55.6201 104.39 55.9301C106.3 49.2801 106.72 39.5801 106.72 32.1801C106.72 31.9401 107.31 16.8301 90.9698 16.8301Z" fill="#312D2D" style="fill:#312D2D;fill:color(display-p3 0.1922 0.1765 0.1765);fill-opacity:1;"/>
<path d="M94.0697 45.5801C92.8197 46.3301 88.7197 46.3301 87.4697 45.5801C86.7497 45.1501 86.0197 45.8101 86.3197 46.4601C86.6097 47.1001 88.8497 48.6001 90.7797 48.6001C92.7097 48.6001 94.9197 47.1101 95.2197 46.4601C95.5197 45.8001 94.7897 45.1501 94.0697 45.5801Z" fill="#795548" style="fill:#795548;fill:color(display-p3 0.4745 0.3333 0.2824);fill-opacity:1;"/>
<path d="M94.0697 45.5801C92.8197 46.3301 88.7197 46.3301 87.4697 45.5801C86.7497 45.1501 86.0197 45.8101 86.3197 46.4601C86.6097 47.1001 88.8497 48.6001 90.7797 48.6001C92.7097 48.6001 94.9197 47.1101 95.2197 46.4601C95.5197 45.8001 94.7897 45.1501 94.0697 45.5801Z" fill="#444444" style="fill:#444444;fill:color(display-p3 0.2667 0.2667 0.2667);fill-opacity:1;"/>
<path d="M88.49 124.5H84.11C83.3 124.48 82.72 123.55 82.96 122.75C83.69 120.29 85.91 118.48 88.49 118.48C91.13 118.48 93.38 120.36 94.06 122.89C94.28 123.7 93.68 124.5 92.87 124.5H88.49Z" fill="#504F4F" style="fill:#504F4F;fill:color(display-p3 0.3137 0.3098 0.3098);fill-opacity:1;"/>
<path d="M90.9698 16.8301C74.6298 16.8301 74.7598 31.9401 74.7598 32.1801C74.7598 35.2701 74.8298 38.7601 75.0598 42.2701L77.7398 42.2601C77.7198 41.1001 78.5298 33.9101 80.9598 33.3601C89.8698 31.3601 94.9098 26.6301 94.9098 26.6301C96.2198 29.4901 100.32 32.2901 101.79 33.3501C103 34.2201 103.37 40.7401 103.35 42.2701H106.42C106.42 42.2501 106.43 42.2301 106.43 42.2101C106.65 38.7201 106.73 35.2501 106.73 32.1801C106.72 31.9401 107.31 16.8301 90.9698 16.8301Z" fill="url(#paint13_radial_84_2796)" style=""/>
<path d="M106.34 5.84007C106.17 4.84007 105.14 4.25007 104.2 4.60007C101.98 5.42007 98.2201 7.23007 96.3201 10.5301C94.8901 13.0101 94.2901 16.6901 94.0501 19.7101C93.9601 20.8101 93.0101 21.6301 91.9101 21.5501C91.5401 21.5201 89.9701 21.5201 89.6001 21.5501C88.5001 21.6301 87.5401 20.8201 87.4601 19.7101C87.2201 16.6901 86.6201 13.0101 85.1901 10.5301C83.2901 7.22007 79.5101 5.42007 77.3001 4.60007C76.3601 4.25007 75.3501 4.84007 75.1801 5.83007C74.7801 8.16007 74.4501 12.3501 76.3601 15.6501C77.7901 18.1401 80.6601 20.4901 83.1501 22.2101C83.7101 22.6001 83.7101 23.4101 83.1701 23.8301C82.1601 24.6001 81.4001 25.5001 80.8101 26.4001C80.2301 27.3001 81.2601 28.3901 82.1601 27.8101C83.9401 26.6601 86.6501 25.7201 90.7501 25.7201C94.8501 25.7201 97.5601 26.6601 99.3401 27.8101C100.24 28.3901 101.28 27.3001 100.69 26.4001C100.1 25.4901 99.3401 24.6001 98.3401 23.8201C97.8001 23.4001 97.8001 22.5901 98.3601 22.2001C100.84 20.4801 103.71 18.1301 105.15 15.6401C107.06 12.3501 106.74 8.18007 106.34 5.84007Z" fill="url(#paint14_linear_84_2796)" style=""/>
<path d="M98.6601 12.2701C97.6201 14.0701 97.4101 17.1301 97.3601 18.4501C97.3501 18.7401 97.6501 18.9201 97.9001 18.7601C99.0201 18.0601 101.55 16.3501 102.59 14.5401C103.5 12.9601 103.42 11.0001 103.27 9.91011C103.21 9.44011 102.75 9.18011 102.32 9.36011C101.3 9.78011 99.5701 10.6901 98.6601 12.2701Z" fill="#FF4081" style="fill:#FF4081;fill:color(display-p3 1.0000 0.2510 0.5059);fill-opacity:1;"/>
<path d="M82.8499 12.2701C83.8899 14.0701 84.1099 17.1301 84.1499 18.4601C84.1599 18.7501 83.8599 18.9301 83.6199 18.7701C82.4999 18.0701 79.9699 16.3601 78.9299 14.5501C78.0199 12.9701 78.0999 11.0101 78.2399 9.92012C78.2999 9.45012 78.7599 9.19012 79.1899 9.37012C80.1999 9.78012 81.9399 10.6901 82.8499 12.2701Z" fill="#FF4081" style="fill:#FF4081;fill:color(display-p3 1.0000 0.2510 0.5059);fill-opacity:1;"/>
<path d="M20.6099 75.9L22.9399 73.52C23.1099 73.4 24.0399 73.38 24.2299 73.44C24.2899 73.44 24.6799 74.13 24.7399 74.14L25.6399 74.3C26.0199 74.39 26.2699 74.78 26.1799 75.17L26.1399 75.38C26.0599 75.77 25.6799 76.02 25.2999 75.93L23.9299 75.61L21.5499 77.29C21.2299 77.52 20.7899 77.43 20.5599 77.1L20.4399 76.92C20.2099 76.57 20.2899 76.12 20.6099 75.9Z" fill="#EDA600" style="fill:#EDA600;fill:color(display-p3 0.9294 0.6510 0.0000);fill-opacity:1;"/>
<path d="M20.6099 75.9L22.9399 73.52C23.1099 73.4 24.0399 73.38 24.2299 73.44C24.2899 73.44 24.6799 74.13 24.7399 74.14L25.6399 74.3C26.0199 74.39 26.2699 74.78 26.1799 75.17L26.1399 75.38C26.0599 75.77 25.6799 76.02 25.2999 75.93L23.9299 75.61L21.5499 77.29C21.2299 77.52 20.7899 77.43 20.5599 77.1L20.4399 76.92C20.2099 76.57 20.2899 76.12 20.6099 75.9Z" fill="#EDBD82" style="fill:#EDBD82;fill:color(display-p3 0.9294 0.7412 0.5098);fill-opacity:1;"/>
<path d="M35.1598 16.8301C18.8598 16.8301 18.9898 31.9401 18.9898 32.1801C18.9898 41.9701 19.7398 55.8001 23.6398 61.2401C25.1898 63.4001 28.1798 63.5201 28.1798 63.5201L34.9298 63.5001L41.6698 63.5101C41.6698 63.5101 44.6598 63.3901 46.2098 61.2301C50.1198 55.7901 50.8598 41.9601 50.8598 32.1701C50.8698 31.9401 51.4598 16.8301 35.1598 16.8301Z" fill="#262626" style="fill:#262626;fill:color(display-p3 0.1490 0.1490 0.1490);fill-opacity:1;"/>
<path d="M65.49 113.67C64.93 111.24 62.25 108.55 59.62 105.95C57.92 104.27 54.86 104.62 53.19 106.33C51.52 108.04 51.22 111.11 52.92 112.79C55.55 115.39 58.28 118.03 60.71 118.55C62.62 118.96 64.21 118.35 64.78 117.77C65.35 117.18 65.93 115.58 65.49 113.67Z" fill="#504F4F" style="fill:#504F4F;fill:color(display-p3 0.3137 0.3098 0.3098);fill-opacity:1;"/>
<path d="M35.9499 124.32H29.8899L26.6099 105.04C27.2599 106.74 28.9099 107.95 30.8499 107.95C33.3499 107.95 35.3799 105.93 35.3899 103.44L35.9499 124.32Z" fill="url(#paint15_linear_84_2796)" style=""/>
<path d="M35.9499 124.32H29.8899L26.6099 105.04C27.2599 106.74 28.9099 107.95 30.8499 107.95C33.3499 107.95 35.3799 105.93 35.3899 103.44L35.9499 124.32Z" fill="url(#paint16_linear_84_2796)" style=""/>
<path d="M60.2098 113.97C59.2098 114.53 57.9698 114.46 57.0398 113.78L44.8898 103.14C44.7798 103.04 44.6698 102.94 44.5698 102.83C45.4098 103.66 46.5598 104.18 47.8398 104.18C50.4098 104.18 52.4898 102.1 52.4898 99.53C52.4898 99.03 52.4098 98.54 52.2598 98.09C52.2698 98.1 52.2798 98.12 52.2898 98.13L60.8398 109.29C62.2298 110.67 61.9198 113.01 60.2098 113.97Z" fill="url(#paint17_linear_84_2796)" style=""/>
<path d="M60.2098 113.97C59.2098 114.53 57.9698 114.46 57.0398 113.78L44.8898 103.14C44.7798 103.04 44.6698 102.94 44.5698 102.83C45.4098 103.66 46.5598 104.18 47.8398 104.18C50.4098 104.18 52.4898 102.1 52.4898 99.53C52.4898 99.03 52.4098 98.54 52.2598 98.09C52.2698 98.1 52.2798 98.12 52.2898 98.13L60.8398 109.29C62.2298 110.67 61.9198 113.01 60.2098 113.97Z" fill="url(#paint18_linear_84_2796)" style=""/>
<path d="M52.4901 99.5301C52.4901 102.1 50.4101 104.18 47.8401 104.18C46.5601 104.18 45.4101 103.66 44.5701 102.83C44.4401 102.7 44.3201 102.57 44.2101 102.43C44.0001 102.18 43.8101 101.9 43.6501 101.62L36.8201 88.9701C36.7801 88.7501 35.6101 88.6001 35.4101 88.6001C35.2101 88.6001 35.0401 88.7601 35.0001 88.9701L35.3901 103.31V103.42C35.3901 103.43 35.3901 103.43 35.3901 103.44C35.3801 105.93 33.3501 107.95 30.8501 107.95C28.9101 107.95 27.2601 106.74 26.6101 105.04L26.3201 103.28L22.8901 83.1201L34.2301 75.0901L46.9301 83.1101L51.6001 96.8101L51.7001 97.1001C51.8401 97.4501 52.0201 97.7901 52.2601 98.0901C52.4101 98.5401 52.4901 99.0301 52.4901 99.5301Z" fill="url(#paint19_linear_84_2796)" style=""/>
<path d="M52.4901 99.5301C52.4901 102.1 50.4101 104.18 47.8401 104.18C46.5601 104.18 45.4101 103.66 44.5701 102.83C44.4401 102.7 44.3201 102.57 44.2101 102.43C44.0001 102.18 43.8101 101.9 43.6501 101.62L36.8201 88.9701C36.7801 88.7501 35.6101 88.6001 35.4101 88.6001C35.2101 88.6001 35.0401 88.7601 35.0001 88.9701L35.3901 103.31V103.42C35.3901 103.43 35.3901 103.43 35.3901 103.44C35.3801 105.93 33.3501 107.95 30.8501 107.95C28.9101 107.95 27.2601 106.74 26.6101 105.04L26.3201 103.28L22.8901 83.1201L34.2301 75.0901L46.9301 83.1101L51.6001 96.8101L51.7001 97.1001C51.8401 97.4501 52.0201 97.7901 52.2601 98.0901C52.4101 98.5401 52.4901 99.0301 52.4901 99.5301Z" fill="url(#paint20_linear_84_2796)" style=""/>
<path d="M49.54 75.6401L46.9 73.4201C46.73 73.3001 46.18 73.6601 45.99 73.7101C45.93 73.7101 45.47 73.8601 45.41 73.8701L44.51 74.0301C44.13 74.1201 43.88 74.5101 43.97 74.9001L44.01 75.1101C44.09 75.5001 44.47 75.7501 44.85 75.6601L46.22 75.3401L48.6 77.0201C48.92 77.2501 49.36 77.1601 49.59 76.8301L49.71 76.6501C49.94 76.3201 49.86 75.8701 49.54 75.6401Z" fill="#EDA600" style="fill:#EDA600;fill:color(display-p3 0.9294 0.6510 0.0000);fill-opacity:1;"/>
<path d="M49.54 75.6401L46.9 73.4201C46.73 73.3001 46.18 73.6601 45.99 73.7101C45.93 73.7101 45.47 73.8601 45.41 73.8701L44.51 74.0301C44.13 74.1201 43.88 74.5101 43.97 74.9001L44.01 75.1101C44.09 75.5001 44.47 75.7501 44.85 75.6601L46.22 75.3401L48.6 77.0201C48.92 77.2501 49.36 77.1601 49.59 76.8301L49.71 76.6501C49.94 76.3201 49.86 75.8701 49.54 75.6401Z" fill="#EDBD82" style="fill:#EDBD82;fill:color(display-p3 0.9294 0.7412 0.5098);fill-opacity:1;"/>
<path d="M53.4199 60.8399C53.4199 60.8399 51.3499 53.4299 34.3799 53.4299C17.4099 53.4299 16.4199 60.8399 16.4199 60.8399L22.7699 65.6699H46.0199L53.4199 60.8399Z" fill="#444444" style="fill:#444444;fill:color(display-p3 0.2667 0.2667 0.2667);fill-opacity:1;"/>
<path d="M54.3901 60.8399C54.3901 60.8399 51.3201 53.4299 34.3501 53.4299C17.3801 53.4299 15.3901 60.8399 15.3901 60.8399L22.8101 67.7299V83.1499L32.5501 89.5799C33.3201 89.9699 34.1701 90.1699 35.0301 90.1699C35.9201 90.1699 36.8001 89.9499 37.5901 89.5399L46.9001 83.1499V67.7299L54.3901 60.8399Z" fill="url(#paint21_linear_84_2796)" style=""/>
<path d="M60.3601 69.51L52.9701 59.74L46.7901 64.1L54.2101 71.05L49.0201 75.36C48.4801 75.34 47.5501 75.2 46.3601 75.2H45.9701L45.9501 75.19C45.9501 75.19 44.2801 75.31 43.8401 75.65C43.4401 75.96 43.4801 76.5 43.6601 76.7C43.8701 76.94 43.8201 77.36 43.6101 77.59C43.4001 77.83 43.2701 78.12 43.2901 78.42C43.3101 78.71 43.4401 78.88 43.7301 79.1C43.8701 79.2 43.9401 79.48 43.8701 79.63C43.7501 79.87 43.5601 80.28 43.6001 80.5C43.6901 80.93 44.1301 81.02 44.2301 81.35C44.2701 81.48 43.8601 81.92 44.2801 82.29C44.6701 82.64 45.3401 82.92 46.3601 82.92C47.2701 82.92 48.4601 82.7 49.9701 82.1C50.0101 82.08 60.3601 73.66 60.3601 73.66C61.4101 72.55 61.3601 70.67 60.3601 69.51Z" fill="url(#paint22_linear_84_2796)" style=""/>
<path d="M60.3601 69.51L52.9701 59.74L46.7901 64.1L54.2101 71.05L49.0201 75.36C48.4801 75.34 47.5501 75.2 46.3601 75.2H45.9701L45.9501 75.19C45.9501 75.19 44.2801 75.31 43.8401 75.65C43.4401 75.96 43.4801 76.5 43.6601 76.7C43.8701 76.94 43.8201 77.36 43.6101 77.59C43.4001 77.83 43.2701 78.12 43.2901 78.42C43.3101 78.71 43.4401 78.88 43.7301 79.1C43.8701 79.2 43.9401 79.48 43.8701 79.63C43.7501 79.87 43.5601 80.28 43.6001 80.5C43.6901 80.93 44.1301 81.02 44.2301 81.35C44.2701 81.48 43.8601 81.92 44.2801 82.29C44.6701 82.64 45.3401 82.92 46.3601 82.92C47.2701 82.92 48.4601 82.7 49.9701 82.1C50.0101 82.08 60.3601 73.66 60.3601 73.66C61.4101 72.55 61.3601 70.67 60.3601 69.51Z" fill="url(#paint23_linear_84_2796)" style=""/>
<path d="M26.8701 78.44C26.8901 78.14 26.7601 77.85 26.5501 77.61C26.3401 77.37 26.2901 76.95 26.5001 76.72C26.6801 76.52 26.7101 75.97 26.3201 75.67C25.8801 75.33 24.2101 75.21 24.2101 75.21L24.1901 75.22H23.8001C22.6101 75.22 21.6801 75.35 21.1401 75.38L15.9501 71.07L23.3701 64.12L17.1801 59.74L9.80011 69.53C8.80011 70.68 8.75011 72.57 9.80011 73.68C9.80011 73.68 20.1501 82.1 20.1901 82.12C21.7001 82.71 22.8901 82.94 23.8001 82.94C24.8101 82.94 25.4901 82.66 25.8801 82.31C26.3001 81.93 25.8901 81.5 25.9301 81.37C26.0301 81.04 26.4601 80.95 26.5601 80.52C26.6101 80.31 26.4101 79.89 26.2901 79.65C26.2101 79.5 26.2901 79.22 26.4301 79.12C26.7201 78.9 26.8501 78.73 26.8701 78.44Z" fill="url(#paint24_linear_84_2796)" style=""/>
<path d="M26.8701 78.44C26.8901 78.14 26.7601 77.85 26.5501 77.61C26.3401 77.37 26.2901 76.95 26.5001 76.72C26.6801 76.52 26.7101 75.97 26.3201 75.67C25.8801 75.33 24.2101 75.21 24.2101 75.21L24.1901 75.22H23.8001C22.6101 75.22 21.6801 75.35 21.1401 75.38L15.9501 71.07L23.3701 64.12L17.1801 59.74L9.80011 69.53C8.80011 70.68 8.75011 72.57 9.80011 73.68C9.80011 73.68 20.1501 82.1 20.1901 82.12C21.7001 82.71 22.8901 82.94 23.8001 82.94C24.8101 82.94 25.4901 82.66 25.8801 82.31C26.3001 81.93 25.8901 81.5 25.9301 81.37C26.0301 81.04 26.4601 80.95 26.5601 80.52C26.6101 80.31 26.4101 79.89 26.2901 79.65C26.2101 79.5 26.2901 79.22 26.4301 79.12C26.7201 78.9 26.8501 78.73 26.8701 78.44Z" fill="url(#paint25_linear_84_2796)" style=""/>
<path d="M54.4199 60.8399C54.4199 60.8399 51.3499 53.4299 34.3799 53.4299C17.4099 53.4299 15.4199 60.8399 15.4199 60.8399L22.7699 67.6699H47.0199L54.4199 60.8399Z" fill="url(#paint26_linear_84_2796)" style=""/>
<path d="M45.4102 54.8499C45.3202 57.8499 41.5902 62.0699 34.9102 62.0699C28.1502 62.0699 24.4102 57.7399 24.4102 54.7399C24.4102 54.6899 24.4102 54.6399 24.4202 54.5899C26.9002 53.8899 30.1402 53.4299 34.3802 53.4299C39.1302 53.4299 42.7202 54.0099 45.4102 54.8499Z" fill="url(#paint27_linear_84_2796)" style=""/>
<path d="M34.5002 57.7999C32.5302 57.7999 30.9302 56.2799 30.9302 54.3999V50.1399H38.8902V54.3999C38.8902 56.2699 37.2902 57.7999 35.3202 57.7999H34.5002Z" fill="#E59600" style="fill:#E59600;fill:color(display-p3 0.8980 0.5882 0.0000);fill-opacity:1;"/>
<path d="M34.5002 57.7999C32.5302 57.7999 30.9302 56.2799 30.9302 54.3999V50.1399H38.8902V54.3999C38.8902 56.2699 37.2902 57.7999 35.3202 57.7999H34.5002Z" fill="#EDC391" style="fill:#EDC391;fill:color(display-p3 0.9294 0.7647 0.5686);fill-opacity:1;"/>
<path d="M34.9503 20.77C28.1103 20.77 21.7803 25.87 21.7803 36.68C21.7803 45.36 27.1403 50.5 31.8103 52.16C32.9203 52.55 34.0003 52.75 34.9503 52.75C35.9003 52.75 36.9603 52.55 38.0703 52.16C42.7403 50.51 48.1203 45.37 48.1203 36.68C48.1203 25.87 41.7903 20.77 34.9503 20.77Z" fill="#FFCA28" style="fill:#FFCA28;fill:color(display-p3 1.0000 0.7922 0.1569);fill-opacity:1;"/>
<path d="M34.9503 20.77C28.1103 20.77 21.7803 25.87 21.7803 36.68C21.7803 45.36 27.1403 50.5 31.8103 52.16C32.9203 52.55 34.0003 52.75 34.9503 52.75C35.9003 52.75 36.9603 52.55 38.0703 52.16C42.7403 50.51 48.1203 45.37 48.1203 36.68C48.1203 25.87 41.7903 20.77 34.9503 20.77Z" fill="#F9DDBD" style="fill:#F9DDBD;fill:color(display-p3 0.9765 0.8667 0.7412);fill-opacity:1;"/>
<path d="M28.5604 40.53C29.6263 40.53 30.4904 39.6301 30.4904 38.52C30.4904 37.4099 29.6263 36.51 28.5604 36.51C27.4945 36.51 26.6304 37.4099 26.6304 38.52C26.6304 39.6301 27.4945 40.53 28.5604 40.53Z" fill="#404040" style="fill:#404040;fill:color(display-p3 0.2510 0.2510 0.2510);fill-opacity:1;"/>
<path d="M41.4705 40.53C42.5364 40.53 43.4005 39.6301 43.4005 38.52C43.4005 37.4099 42.5364 36.51 41.4705 36.51C40.4046 36.51 39.5405 37.4099 39.5405 38.52C39.5405 39.6301 40.4046 40.53 41.4705 40.53Z" fill="#404040" style="fill:#404040;fill:color(display-p3 0.2510 0.2510 0.2510);fill-opacity:1;"/>
<path d="M36.4303 42.1701C36.3903 42.1501 36.3503 42.1401 36.3003 42.1401H33.5203C33.4803 42.1501 33.4403 42.1601 33.3903 42.1701C33.1403 42.2701 33.0003 42.5301 33.1203 42.8101C33.2403 43.0901 33.7903 43.8701 34.9103 43.8701C36.0203 43.8701 36.5803 43.0901 36.7003 42.8101C36.8203 42.5401 36.6803 42.2801 36.4303 42.1701Z" fill="#E59600" style="fill:#E59600;fill:color(display-p3 0.8980 0.5882 0.0000);fill-opacity:1;"/>
<path d="M36.4303 42.1701C36.3903 42.1501 36.3503 42.1401 36.3003 42.1401H33.5203C33.4803 42.1501 33.4403 42.1601 33.3903 42.1701C33.1403 42.2701 33.0003 42.5301 33.1203 42.8101C33.2403 43.0901 33.7903 43.8701 34.9103 43.8701C36.0203 43.8701 36.5803 43.0901 36.7003 42.8101C36.8203 42.5401 36.6803 42.2801 36.4303 42.1701Z" fill="#DBA689" style="fill:#DBA689;fill:color(display-p3 0.8588 0.6510 0.5373);fill-opacity:1;"/>
<path d="M31.4301 34.91C31.0601 34.42 30.2101 33.71 28.5601 33.71C26.9101 33.71 26.0501 34.42 25.6901 34.91C25.5301 35.13 25.5701 35.38 25.6801 35.53C25.7801 35.67 26.0901 35.8 26.4401 35.68C26.7801 35.56 27.4501 35.22 28.5701 35.21C29.6901 35.22 30.3601 35.56 30.7001 35.68C31.0401 35.8 31.3501 35.67 31.4601 35.53C31.5601 35.37 31.6001 35.12 31.4301 34.91Z" fill="#6D4C41" style="fill:#6D4C41;fill:color(display-p3 0.4275 0.2980 0.2549);fill-opacity:1;"/>
<path d="M31.4301 34.91C31.0601 34.42 30.2101 33.71 28.5601 33.71C26.9101 33.71 26.0501 34.42 25.6901 34.91C25.5301 35.13 25.5701 35.38 25.6801 35.53C25.7801 35.67 26.0901 35.8 26.4401 35.68C26.7801 35.56 27.4501 35.22 28.5701 35.21C29.6901 35.22 30.3601 35.56 30.7001 35.68C31.0401 35.8 31.3501 35.67 31.4601 35.53C31.5601 35.37 31.6001 35.12 31.4301 34.91Z" fill="#454140" style="fill:#454140;fill:color(display-p3 0.2706 0.2549 0.2510);fill-opacity:1;"/>
<path d="M44.35 34.91C43.98 34.42 43.13 33.71 41.48 33.71C39.83 33.71 38.97 34.42 38.61 34.91C38.45 35.13 38.49 35.38 38.6 35.53C38.7 35.67 39.01 35.8 39.36 35.68C39.7 35.56 40.37 35.22 41.49 35.21C42.61 35.22 43.28 35.56 43.62 35.68C43.96 35.8 44.27 35.67 44.38 35.53C44.47 35.37 44.51 35.12 44.35 34.91Z" fill="#6D4C41" style="fill:#6D4C41;fill:color(display-p3 0.4275 0.2980 0.2549);fill-opacity:1;"/>
<path d="M44.35 34.91C43.98 34.42 43.13 33.71 41.48 33.71C39.83 33.71 38.97 34.42 38.61 34.91C38.45 35.13 38.49 35.38 38.6 35.53C38.7 35.67 39.01 35.8 39.36 35.68C39.7 35.56 40.37 35.22 41.49 35.21C42.61 35.22 43.28 35.56 43.62 35.68C43.96 35.8 44.27 35.67 44.38 35.53C44.47 35.37 44.51 35.12 44.35 34.91Z" fill="#454140" style="fill:#454140;fill:color(display-p3 0.2706 0.2549 0.2510);fill-opacity:1;"/>
<path d="M35.1202 16.8301C18.7802 16.8301 18.9102 31.9401 18.9102 32.1801C18.9102 39.4801 19.3302 49.0301 21.1702 55.6701C21.7702 55.4001 22.4302 55.1501 23.1502 54.9201C23.4102 54.8301 23.6802 54.7501 23.9602 54.6701C23.8102 52.6301 23.1702 43.8501 23.0902 39.4301C23.0702 38.2601 22.7202 33.9101 25.1402 33.3601C34.0302 31.3401 39.0502 26.5701 39.0502 26.5701C40.3602 29.4601 44.4502 32.2801 45.9102 33.3501C47.1202 34.2301 46.9502 37.8401 46.9202 39.3901L45.7302 54.8801C45.8902 54.9301 46.0502 54.9801 46.2102 55.0301C47.0702 55.3101 47.8402 55.6201 48.5402 55.9301C50.4502 49.2801 50.8702 39.5801 50.8702 32.1801C50.8702 31.9401 51.4602 16.8301 35.1202 16.8301Z" fill="#543930" style="fill:#543930;fill:color(display-p3 0.3294 0.2235 0.1882);fill-opacity:1;"/>
<path d="M35.1202 16.8301C18.7802 16.8301 18.9102 31.9401 18.9102 32.1801C18.9102 39.4801 19.3302 49.0301 21.1702 55.6701C21.7702 55.4001 22.4302 55.1501 23.1502 54.9201C23.4102 54.8301 23.6802 54.7501 23.9602 54.6701C23.8102 52.6301 23.1702 43.8501 23.0902 39.4301C23.0702 38.2601 22.7202 33.9101 25.1402 33.3601C34.0302 31.3401 39.0502 26.5701 39.0502 26.5701C40.3602 29.4601 44.4502 32.2801 45.9102 33.3501C47.1202 34.2301 46.9502 37.8401 46.9202 39.3901L45.7302 54.8801C45.8902 54.9301 46.0502 54.9801 46.2102 55.0301C47.0702 55.3101 47.8402 55.6201 48.5402 55.9301C50.4502 49.2801 50.8702 39.5801 50.8702 32.1801C50.8702 31.9401 51.4602 16.8301 35.1202 16.8301Z" fill="#312D2D" style="fill:#312D2D;fill:color(display-p3 0.1922 0.1765 0.1765);fill-opacity:1;"/>
<path d="M38.22 45.5801C36.97 46.3301 32.87 46.3301 31.62 45.5801C30.9 45.1501 30.17 45.8101 30.47 46.4601C30.76 47.1001 33 48.6001 34.93 48.6001C36.86 48.6001 39.07 47.1101 39.37 46.4601C39.67 45.8001 38.94 45.1501 38.22 45.5801Z" fill="#795548" style="fill:#795548;fill:color(display-p3 0.4745 0.3333 0.2824);fill-opacity:1;"/>
<path d="M38.22 45.5801C36.97 46.3301 32.87 46.3301 31.62 45.5801C30.9 45.1501 30.17 45.8101 30.47 46.4601C30.76 47.1001 33 48.6001 34.93 48.6001C36.86 48.6001 39.07 47.1101 39.37 46.4601C39.67 45.8001 38.94 45.1501 38.22 45.5801Z" fill="#444444" style="fill:#444444;fill:color(display-p3 0.2667 0.2667 0.2667);fill-opacity:1;"/>
<path d="M32.6399 124.5H28.2599C27.4499 124.48 26.8699 123.55 27.1099 122.75C27.8399 120.29 30.0599 118.48 32.6399 118.48C35.2799 118.48 37.5299 120.36 38.2099 122.89C38.4299 123.7 37.8299 124.5 37.0199 124.5H32.6399Z" fill="#504F4F" style="fill:#504F4F;fill:color(display-p3 0.3137 0.3098 0.3098);fill-opacity:1;"/>
<path d="M35.1202 16.8301C18.7802 16.8301 18.9102 31.9401 18.9102 32.1801C18.9102 35.2701 18.9902 38.7601 19.2102 42.2701L21.8902 42.2601C21.8702 41.1001 22.6802 33.9101 25.1102 33.3601C34.0202 31.3601 39.0602 26.6301 39.0602 26.6301C40.3702 29.4901 44.4702 32.2901 45.9402 33.3501C47.1502 34.2201 47.5202 40.7401 47.5002 42.2701H50.5702C50.5702 42.2501 50.5802 42.2301 50.5802 42.2101C50.8002 38.7201 50.8802 35.2501 50.8802 32.1801C50.8702 31.9401 51.4602 16.8301 35.1202 16.8301Z" fill="url(#paint28_radial_84_2796)" style=""/>
<path d="M50.49 5.84007C50.32 4.84007 49.29 4.25007 48.35 4.60007C46.13 5.42007 42.37 7.23007 40.47 10.5301C39.04 13.0101 38.44 16.6901 38.2 19.7101C38.11 20.8101 37.16 21.6301 36.06 21.5501C35.69 21.5201 34.12 21.5201 33.75 21.5501C32.65 21.6301 31.69 20.8201 31.61 19.7101C31.37 16.6901 30.77 13.0101 29.34 10.5301C27.44 7.22007 23.66 5.42007 21.45 4.60007C20.51 4.25007 19.5 4.84007 19.33 5.83007C18.93 8.16007 18.6 12.3501 20.51 15.6501C21.94 18.1401 24.81 20.4901 27.3 22.2101C27.86 22.6001 27.86 23.4101 27.32 23.8301C26.31 24.6001 25.55 25.5001 24.96 26.4001C24.38 27.3001 25.41 28.3901 26.31 27.8101C28.09 26.6601 30.8 25.7201 34.9 25.7201C39 25.7201 41.71 26.6601 43.49 27.8101C44.39 28.3901 45.43 27.3001 44.84 26.4001C44.25 25.4901 43.49 24.6001 42.49 23.8201C41.95 23.4001 41.95 22.5901 42.51 22.2001C44.99 20.4801 47.86 18.1301 49.3 15.6401C51.21 12.3501 50.89 8.18007 50.49 5.84007Z" fill="url(#paint29_linear_84_2796)" style=""/>
<path d="M42.81 12.2701C41.77 14.0701 41.56 17.1301 41.51 18.4501C41.5 18.7401 41.8 18.9201 42.05 18.7601C43.17 18.0601 45.7 16.3501 46.74 14.5401C47.65 12.9601 47.57 11.0001 47.42 9.91011C47.36 9.44011 46.9 9.18011 46.47 9.36011C45.45 9.78011 43.72 10.6901 42.81 12.2701Z" fill="#FF4081" style="fill:#FF4081;fill:color(display-p3 1.0000 0.2510 0.5059);fill-opacity:1;"/>
<path d="M26.9998 12.2701C28.0398 14.0701 28.2598 17.1301 28.2998 18.4601C28.3098 18.7501 28.0098 18.9301 27.7698 18.7701C26.6498 18.0701 24.1198 16.3601 23.0798 14.5501C22.1698 12.9701 22.2498 11.0101 22.3898 9.92012C22.4498 9.45012 22.9098 9.19012 23.3398 9.37012C24.3498 9.78012 26.0898 10.6901 26.9998 12.2701Z" fill="#FF4081" style="fill:#FF4081;fill:color(display-p3 1.0000 0.2510 0.5059);fill-opacity:1;"/>
<defs>
<linearGradient id="paint0_linear_84_2796" x1="86.8008" y1="103.411" x2="90.1176" y2="124.336" gradientUnits="userSpaceOnUse">
<stop stop-color="#FFB300" style="stop-color:#FFB300;stop-color:color(display-p3 1.0000 0.7020 0.0000);stop-opacity:1;"/>
<stop offset="0.4007" stop-color="#FFCA28" style="stop-color:#FFCA28;stop-color:color(display-p3 1.0000 0.7922 0.1569);stop-opacity:1;"/>
</linearGradient>
<linearGradient id="paint1_linear_84_2796" x1="87.133" y1="103.443" x2="87.133" y2="124.324" gradientUnits="userSpaceOnUse">
<stop stop-color="#FFD29C" style="stop-color:#FFD29C;stop-color:color(display-p3 1.0000 0.8235 0.6118);stop-opacity:1;"/>
<stop offset="0.5" stop-color="#F9DDBD" style="stop-color:#F9DDBD;stop-color:color(display-p3 0.9765 0.8667 0.7412);stop-opacity:1;"/>
</linearGradient>
<linearGradient id="paint2_linear_84_2796" x1="108.388" y1="98.0673" x2="109.505" y2="114.692" gradientUnits="userSpaceOnUse">
<stop stop-color="#FFB300" style="stop-color:#FFB300;stop-color:color(display-p3 1.0000 0.7020 0.0000);stop-opacity:1;"/>
<stop offset="0.4007" stop-color="#FFCA28" style="stop-color:#FFCA28;stop-color:color(display-p3 1.0000 0.7922 0.1569);stop-opacity:1;"/>
</linearGradient>
<linearGradient id="paint3_linear_84_2796" x1="108.998" y1="98.0921" x2="108.998" y2="114.348" gradientUnits="userSpaceOnUse">
<stop stop-color="#FFD29C" style="stop-color:#FFD29C;stop-color:color(display-p3 1.0000 0.8235 0.6118);stop-opacity:1;"/>
<stop offset="0.5" stop-color="#F9DDBD" style="stop-color:#F9DDBD;stop-color:color(display-p3 0.9765 0.8667 0.7412);stop-opacity:1;"/>
</linearGradient>
<linearGradient id="paint4_linear_84_2796" x1="91.2178" y1="90.9174" x2="96.7062" y2="103.289" gradientUnits="userSpaceOnUse">
<stop stop-color="#FFB300" style="stop-color:#FFB300;stop-color:color(display-p3 1.0000 0.7020 0.0000);stop-opacity:1;"/>
<stop offset="0.4007" stop-color="#FFCA28" style="stop-color:#FFCA28;stop-color:color(display-p3 1.0000 0.7922 0.1569);stop-opacity:1;"/>
</linearGradient>
<linearGradient id="paint5_linear_84_2796" x1="93.5499" y1="75.0945" x2="93.5499" y2="107.956" gradientUnits="userSpaceOnUse">
<stop stop-color="#FFD29C" style="stop-color:#FFD29C;stop-color:color(display-p3 1.0000 0.8235 0.6118);stop-opacity:1;"/>
<stop offset="0.5" stop-color="#F9DDBD" style="stop-color:#F9DDBD;stop-color:color(display-p3 0.9765 0.8667 0.7412);stop-opacity:1;"/>
</linearGradient>
<linearGradient id="paint6_linear_84_2796" x1="90.7402" y1="52.3636" x2="90.7402" y2="98.9676" gradientUnits="userSpaceOnUse">
<stop stop-color="#515151" style="stop-color:#515151;stop-color:color(display-p3 0.3176 0.3176 0.3176);stop-opacity:1;"/>
<stop offset="0.9439" stop-color="#313131" style="stop-color:#313131;stop-color:color(display-p3 0.1922 0.1922 0.1922);stop-opacity:1;"/>
</linearGradient>
<linearGradient id="paint7_linear_84_2796" x1="100.685" y1="66.5742" x2="110.359" y2="77.923" gradientUnits="userSpaceOnUse">
<stop offset="0.1719" stop-color="#FFB300" style="stop-color:#FFB300;stop-color:color(display-p3 1.0000 0.7020 0.0000);stop-opacity:1;"/>
<stop offset="0.518" stop-color="#FFCA28" style="stop-color:#FFCA28;stop-color:color(display-p3 1.0000 0.7922 0.1569);stop-opacity:1;"/>
</linearGradient>
<linearGradient id="paint8_linear_84_2796" x1="108.064" y1="59.7431" x2="108.064" y2="82.9241" gradientUnits="userSpaceOnUse">
<stop stop-color="#FFD29C" style="stop-color:#FFD29C;stop-color:color(display-p3 1.0000 0.8235 0.6118);stop-opacity:1;"/>
<stop offset="0.5" stop-color="#F9DDBD" style="stop-color:#F9DDBD;stop-color:color(display-p3 0.9765 0.8667 0.7412);stop-opacity:1;"/>
</linearGradient>
<linearGradient id="paint9_linear_84_2796" x1="81.228" y1="67.1779" x2="70.8107" y2="77.5952" gradientUnits="userSpaceOnUse">
<stop offset="0.1719" stop-color="#FFB300" style="stop-color:#FFB300;stop-color:color(display-p3 1.0000 0.7020 0.0000);stop-opacity:1;"/>
<stop offset="0.518" stop-color="#FFCA28" style="stop-color:#FFCA28;stop-color:color(display-p3 1.0000 0.7922 0.1569);stop-opacity:1;"/>
</linearGradient>
<linearGradient id="paint10_linear_84_2796" x1="73.8076" y1="59.7431" x2="73.8076" y2="82.9441" gradientUnits="userSpaceOnUse">
<stop stop-color="#FFD29C" style="stop-color:#FFD29C;stop-color:color(display-p3 1.0000 0.8235 0.6118);stop-opacity:1;"/>
<stop offset="0.5" stop-color="#F9DDBD" style="stop-color:#F9DDBD;stop-color:color(display-p3 0.9765 0.8667 0.7412);stop-opacity:1;"/>
</linearGradient>
<linearGradient id="paint11_linear_84_2796" x1="90.77" y1="51.3084" x2="90.77" y2="97.9124" gradientUnits="userSpaceOnUse">
<stop stop-color="#515151" style="stop-color:#515151;stop-color:color(display-p3 0.3176 0.3176 0.3176);stop-opacity:1;"/>
<stop offset="0.9439" stop-color="#313131" style="stop-color:#313131;stop-color:color(display-p3 0.1922 0.1922 0.1922);stop-opacity:1;"/>
</linearGradient>
<linearGradient id="paint12_linear_84_2796" x1="90.7598" y1="53.3568" x2="90.7598" y2="60.1939" gradientUnits="userSpaceOnUse">
<stop stop-color="#F6D0A1" style="stop-color:#F6D0A1;stop-color:color(display-p3 0.9667 0.8140 0.6324);stop-opacity:1;"/>
<stop offset="0.6846" stop-color="#F9D6AC" style="stop-color:#F9D6AC;stop-color:color(display-p3 0.9750 0.8378 0.6744);stop-opacity:1;"/>
</linearGradient>
<radialGradient id="paint13_radial_84_2796" cx="0" cy="0" r="1" gradientUnits="userSpaceOnUse" gradientTransform="translate(90.8726 40.5752) scale(19.8371 24.0723)">
<stop offset="0.7945" stop-color="#505050" stop-opacity="0" style="stop-color:none;stop-opacity:0;"/>
<stop offset="1" stop-color="#484848" style="stop-color:#484848;stop-color:color(display-p3 0.2833 0.2833 0.2833);stop-opacity:1;"/>
</radialGradient>
<linearGradient id="paint14_linear_84_2796" x1="90.7584" y1="8.58597" x2="90.7584" y2="33.9635" gradientUnits="userSpaceOnUse">
<stop stop-color="#504F4F" style="stop-color:#504F4F;stop-color:color(display-p3 0.3137 0.3098 0.3098);stop-opacity:1;"/>
<stop offset="1" stop-color="#212121" style="stop-color:#212121;stop-color:color(display-p3 0.1294 0.1294 0.1294);stop-opacity:1;"/>
</linearGradient>
<linearGradient id="paint15_linear_84_2796" x1="30.9507" y1="103.411" x2="34.2675" y2="124.336" gradientUnits="userSpaceOnUse">
<stop stop-color="#FFB300" style="stop-color:#FFB300;stop-color:color(display-p3 1.0000 0.7020 0.0000);stop-opacity:1;"/>
<stop offset="0.4007" stop-color="#FFCA28" style="stop-color:#FFCA28;stop-color:color(display-p3 1.0000 0.7922 0.1569);stop-opacity:1;"/>
</linearGradient>
<linearGradient id="paint16_linear_84_2796" x1="31.2829" y1="103.443" x2="31.2829" y2="124.324" gradientUnits="userSpaceOnUse">
<stop stop-color="#FFD29C" style="stop-color:#FFD29C;stop-color:color(display-p3 1.0000 0.8235 0.6118);stop-opacity:1;"/>
<stop offset="0.5" stop-color="#F9DDBD" style="stop-color:#F9DDBD;stop-color:color(display-p3 0.9765 0.8667 0.7412);stop-opacity:1;"/>
</linearGradient>
<linearGradient id="paint17_linear_84_2796" x1="52.5376" y1="98.0673" x2="53.6552" y2="114.692" gradientUnits="userSpaceOnUse">
<stop stop-color="#FFB300" style="stop-color:#FFB300;stop-color:color(display-p3 1.0000 0.7020 0.0000);stop-opacity:1;"/>
<stop offset="0.4007" stop-color="#FFCA28" style="stop-color:#FFCA28;stop-color:color(display-p3 1.0000 0.7922 0.1569);stop-opacity:1;"/>
</linearGradient>
<linearGradient id="paint18_linear_84_2796" x1="53.1474" y1="98.0921" x2="53.1474" y2="114.348" gradientUnits="userSpaceOnUse">
<stop stop-color="#FFD29C" style="stop-color:#FFD29C;stop-color:color(display-p3 1.0000 0.8235 0.6118);stop-opacity:1;"/>
<stop offset="0.5" stop-color="#F9DDBD" style="stop-color:#F9DDBD;stop-color:color(display-p3 0.9765 0.8667 0.7412);stop-opacity:1;"/>
</linearGradient>
<linearGradient id="paint19_linear_84_2796" x1="35.3677" y1="90.9174" x2="40.8561" y2="103.289" gradientUnits="userSpaceOnUse">
<stop stop-color="#FFB300" style="stop-color:#FFB300;stop-color:color(display-p3 1.0000 0.7020 0.0000);stop-opacity:1;"/>
<stop offset="0.4007" stop-color="#FFCA28" style="stop-color:#FFCA28;stop-color:color(display-p3 1.0000 0.7922 0.1569);stop-opacity:1;"/>
</linearGradient>
<linearGradient id="paint20_linear_84_2796" x1="37.6998" y1="75.0945" x2="37.6998" y2="107.956" gradientUnits="userSpaceOnUse">
<stop stop-color="#FFD29C" style="stop-color:#FFD29C;stop-color:color(display-p3 1.0000 0.8235 0.6118);stop-opacity:1;"/>
<stop offset="0.5" stop-color="#F9DDBD" style="stop-color:#F9DDBD;stop-color:color(display-p3 0.9765 0.8667 0.7412);stop-opacity:1;"/>
</linearGradient>
<linearGradient id="paint21_linear_84_2796" x1="34.8901" y1="52.3636" x2="34.8901" y2="98.9676" gradientUnits="userSpaceOnUse">
<stop stop-color="#515151" style="stop-color:#515151;stop-color:color(display-p3 0.3176 0.3176 0.3176);stop-opacity:1;"/>
<stop offset="0.9439" stop-color="#313131" style="stop-color:#313131;stop-color:color(display-p3 0.1922 0.1922 0.1922);stop-opacity:1;"/>
</linearGradient>
<linearGradient id="paint22_linear_84_2796" x1="44.8347" y1="66.5742" x2="54.5091" y2="77.923" gradientUnits="userSpaceOnUse">
<stop offset="0.1719" stop-color="#FFB300" style="stop-color:#FFB300;stop-color:color(display-p3 1.0000 0.7020 0.0000);stop-opacity:1;"/>
<stop offset="0.518" stop-color="#FFCA28" style="stop-color:#FFCA28;stop-color:color(display-p3 1.0000 0.7922 0.1569);stop-opacity:1;"/>
</linearGradient>
<linearGradient id="paint23_linear_84_2796" x1="52.2143" y1="59.7431" x2="52.2143" y2="82.9241" gradientUnits="userSpaceOnUse">
<stop stop-color="#FFD29C" style="stop-color:#FFD29C;stop-color:color(display-p3 1.0000 0.8235 0.6118);stop-opacity:1;"/>
<stop offset="0.5" stop-color="#F9DDBD" style="stop-color:#F9DDBD;stop-color:color(display-p3 0.9765 0.8667 0.7412);stop-opacity:1;"/>
</linearGradient>
<linearGradient id="paint24_linear_84_2796" x1="10.5779" y1="66.5801" x2="20.2619" y2="77.9304" gradientUnits="userSpaceOnUse">
<stop offset="0.1719" stop-color="#FFB300" style="stop-color:#FFB300;stop-color:color(display-p3 1.0000 0.7020 0.0000);stop-opacity:1;"/>
<stop offset="0.518" stop-color="#FFCA28" style="stop-color:#FFCA28;stop-color:color(display-p3 1.0000 0.7922 0.1569);stop-opacity:1;"/>
</linearGradient>
<linearGradient id="paint25_linear_84_2796" x1="17.9575" y1="59.7431" x2="17.9575" y2="82.9441" gradientUnits="userSpaceOnUse">
<stop stop-color="#FFD29C" style="stop-color:#FFD29C;stop-color:color(display-p3 1.0000 0.8235 0.6118);stop-opacity:1;"/>
<stop offset="0.5" stop-color="#F9DDBD" style="stop-color:#F9DDBD;stop-color:color(display-p3 0.9765 0.8667 0.7412);stop-opacity:1;"/>
</linearGradient>
<linearGradient id="paint26_linear_84_2796" x1="34.9199" y1="51.3084" x2="34.9199" y2="97.9124" gradientUnits="userSpaceOnUse">
<stop stop-color="#515151" style="stop-color:#515151;stop-color:color(display-p3 0.3176 0.3176 0.3176);stop-opacity:1;"/>
<stop offset="0.9439" stop-color="#313131" style="stop-color:#313131;stop-color:color(display-p3 0.1922 0.1922 0.1922);stop-opacity:1;"/>
</linearGradient>
<linearGradient id="paint27_linear_84_2796" x1="34.9102" y1="53.3568" x2="34.9102" y2="60.1939" gradientUnits="userSpaceOnUse">
<stop stop-color="#F6D0A1" style="stop-color:#F6D0A1;stop-color:color(display-p3 0.9667 0.8140 0.6324);stop-opacity:1;"/>
<stop offset="0.6846" stop-color="#F9D6AC" style="stop-color:#F9D6AC;stop-color:color(display-p3 0.9750 0.8378 0.6744);stop-opacity:1;"/>
</linearGradient>
<radialGradient id="paint28_radial_84_2796" cx="0" cy="0" r="1" gradientUnits="userSpaceOnUse" gradientTransform="translate(35.023 40.5752) scale(19.8371 24.0723)">
<stop offset="0.7945" stop-color="#686868" stop-opacity="0" style="stop-color:none;stop-opacity:0;"/>
<stop offset="1" stop-color="#444444" style="stop-color:#444444;stop-color:color(display-p3 0.2667 0.2667 0.2667);stop-opacity:1;"/>
</radialGradient>
<linearGradient id="paint29_linear_84_2796" x1="34.9083" y1="8.58597" x2="34.9083" y2="33.9635" gradientUnits="userSpaceOnUse">
<stop stop-color="#504F4F" style="stop-color:#504F4F;stop-color:color(display-p3 0.3137 0.3098 0.3098);stop-opacity:1;"/>
<stop offset="1" stop-color="#212121" style="stop-color:#212121;stop-color:color(display-p3 0.1294 0.1294 0.1294);stop-opacity:1;"/>
</linearGradient>
</defs>
</svg>
