<svg width="128" height="129" viewBox="0 0 128 129" fill="none" xmlns="http://www.w3.org/2000/svg">
<path d="M23.9902 19.4657C23.9902 19.4657 24.9602 12.8757 26.2202 10.2357C27.4802 7.59569 29.4602 4.81569 33.2602 4.07569C37.7902 3.19569 90.3102 3.65569 93.9502 3.88569C97.6202 4.12569 100.03 5.27569 101.41 7.53569C102.46 9.26569 102.83 11.3757 103.32 14.5057C103.58 16.1557 104.12 20.6757 104.12 20.6757L23.9902 19.4657Z" fill="#FFA828" style="fill:#FFA828;fill:color(display-p3 1.0000 0.6588 0.1569);fill-opacity:1;"/>
<path d="M50.6302 37.3156L22.4702 32.6356C22.4702 32.6356 23.0602 20.9856 24.2802 17.9356C25.5002 14.8856 27.0102 13.0656 31.4402 12.3056C35.8702 11.5456 46.9702 11.8556 63.6202 11.7056C80.2702 11.5556 94.9302 12.5656 97.5302 12.7156C100.13 12.8656 102.57 14.1456 103.33 16.5856C104.09 19.0256 104.46 22.3256 105.01 28.1956C105.21 30.3256 105.03 34.3556 105.03 34.3556L72.7602 36.5556L50.6302 37.3156Z" fill="#F1EDEC" style="fill:#F1EDEC;fill:color(display-p3 0.9451 0.9294 0.9255);fill-opacity:1;"/>
<path d="M22.2302 35.6857C22.4202 32.6357 22.4802 29.3357 24.8002 27.3657C26.7902 25.6857 30.1502 25.9957 34.1202 25.8357C37.7902 25.6957 47.1002 25.7757 64.6702 25.7757C82.2402 25.7757 97.0302 26.0357 99.7802 26.0357C102.53 26.0357 104.87 28.1857 105.17 30.1757C105.48 32.1657 104.1 116.326 103.95 118.156C103.8 119.986 103.19 123.656 99.2102 123.956C95.2402 124.266 32.7702 124.266 30.1702 123.956C27.5702 123.646 25.2802 121.356 24.8202 117.086C24.3602 112.816 22.0702 38.1257 22.2302 35.6857Z" fill="#D8CDC9" style="fill:#D8CDC9;fill:color(display-p3 0.8471 0.8039 0.7882);fill-opacity:1;"/>
<path d="M29.61 50.0259C31.91 50.3259 33.82 40.4159 36.82 38.1059C39.82 35.8059 45.43 34.5959 45.43 32.2959C45.43 31.1459 41.79 31.1559 38.42 31.1959C35.05 31.2359 32.15 30.9559 30.51 32.6959C28.71 34.5959 28.53 37.6459 28.41 40.7059C28.2 45.6159 28.19 49.8359 29.61 50.0259Z" fill="#F1EDEC" style="fill:#F1EDEC;fill:color(display-p3 0.9451 0.9294 0.9255);fill-opacity:1;"/>
<path d="M79.3398 117.656C79.3398 119.336 80.5698 119.886 87.2198 119.656C92.8398 119.466 95.6198 118.756 97.2898 116.746C98.9598 114.746 99.4198 110.546 99.4898 105.506C99.5298 102.016 99.4398 98.6562 97.6798 98.6562C95.1598 98.6562 95.1699 104.406 93.1599 107.636C89.2199 113.976 79.3398 115.416 79.3398 117.656Z" fill="#F1EDEC" style="fill:#F1EDEC;fill:color(display-p3 0.9451 0.9294 0.9255);fill-opacity:1;"/>
<path d="M97.9256 92.4139C98.4842 92.6955 98.65 93.415 98.271 93.9127L96.7081 95.9648C96.4116 96.3541 95.8769 96.4716 95.4444 96.2425L86.8055 91.6659C86.1232 91.3044 85.3061 91.8197 85.3382 92.5911L85.65 100.092C85.6787 100.782 85.015 101.293 84.3548 101.088L82.954 100.654C82.5659 100.534 82.2891 100.191 82.2538 99.7862L81.3257 89.1547C81.2963 88.8171 81.0979 88.5174 80.7986 88.3585L67.3889 81.2358C66.7229 80.882 65.9198 81.3648 65.9198 82.119V96.0669C65.9198 96.4217 66.1079 96.75 66.4139 96.9295L76.7874 103.013C77.2383 103.278 77.4095 103.845 77.1802 104.314L76.5858 105.533C76.3294 106.058 75.679 106.252 75.1764 105.954L67.4529 101.366C66.7815 100.967 65.9325 101.458 65.9423 102.238L66.0547 111.153C66.0618 111.711 65.612 112.166 65.0548 112.166H62.7975C62.2403 112.166 61.7905 111.711 61.7976 111.153L61.91 102.238C61.9198 101.458 61.0708 100.967 60.3994 101.366L52.6759 105.954C52.1733 106.252 51.5229 106.058 51.2666 105.533L50.6721 104.314C50.4429 103.845 50.6141 103.278 51.0649 103.013L61.4384 96.9295C61.7445 96.75 61.9325 96.4217 61.9325 96.0669V82.119C61.9325 81.3648 61.1294 80.882 60.4634 81.2358L47.0537 88.3585C46.7545 88.5174 46.5561 88.8171 46.5266 89.1547L45.5985 99.7862C45.5632 100.191 45.2864 100.534 44.8983 100.654L43.4975 101.088C42.8373 101.293 42.1736 100.782 42.2023 100.092L42.5141 92.5911C42.5462 91.8197 41.7291 91.3044 41.0469 91.6659L32.4278 96.232C31.9867 96.4657 31.4408 96.3383 31.1487 95.9335L29.6858 93.906C29.3259 93.4072 29.4973 92.7048 30.0466 92.4279L38.3036 88.2655C39.063 87.8827 39.0283 86.787 38.2463 86.4529L30.6543 83.2098C30.0457 82.9498 29.853 82.181 30.2669 81.6647L31.1801 80.5255C31.4624 80.1735 31.9454 80.0541 32.3592 80.234L43.636 85.1381C43.9069 85.2559 44.216 85.2479 44.4804 85.1163L58.6421 78.0686C59.3841 77.6993 59.3806 76.6396 58.6363 76.2752L44.4733 69.3405C44.2129 69.213 43.9099 69.2048 43.643 69.318L32.3554 74.1071C31.943 74.282 31.4647 74.1615 31.1846 73.812L30.2758 72.6785C29.8592 72.1588 30.0576 71.3847 30.6728 71.1294L38.2349 67.9913C39.0208 67.6652 39.0662 66.569 38.31 66.1789L30.0502 61.9183C29.5006 61.6348 29.3375 60.9255 29.7079 60.4304L31.1456 58.5091C31.4407 58.1146 31.9791 57.9939 32.4144 58.2245L41.0478 62.7982C41.7298 63.1595 42.5467 62.6447 42.5151 61.8735L42.1994 54.1872C42.1717 53.5119 42.808 53.0041 43.4603 53.181L44.8649 53.5619C45.2704 53.6718 45.5639 54.0234 45.5996 54.4419L46.5275 65.3076C46.5564 65.6459 46.755 65.9464 47.0548 66.1057L60.4634 73.2278C61.1294 73.5816 61.9325 73.0988 61.9325 72.3446V58.3857C61.9325 58.0368 61.7506 57.7132 61.4526 57.5317L51.0579 51.201C50.6111 50.9289 50.4496 50.3585 50.6873 49.8925L51.2626 48.7647C51.5234 48.2537 52.1598 48.0663 52.6558 48.3546L60.4077 52.8589C61.0792 53.2492 61.9199 52.7582 61.91 51.9816L61.7977 43.1788C61.7906 42.6215 62.2404 42.166 62.7976 42.166H65.0547C65.6119 42.166 66.0617 42.6215 66.0546 43.1788L65.9423 51.9816C65.9324 52.7582 66.7731 53.2492 67.4446 52.8589L75.1965 48.3546C75.6926 48.0663 76.3289 48.2537 76.5897 48.7647L77.165 49.8925C77.4028 50.3585 77.2412 50.9289 76.7944 51.201L66.3997 57.5317C66.1017 57.7132 65.9198 58.0368 65.9198 58.3857V72.3446C65.9198 73.0988 66.7229 73.5816 67.3889 73.2278L80.7975 66.1057C81.0974 65.9464 81.2959 65.6459 81.3248 65.3076L82.2527 54.4419C82.2885 54.0234 82.582 53.6718 82.9874 53.5619L84.392 53.181C85.0443 53.0041 85.6806 53.5119 85.6529 54.1872L85.3373 61.8735C85.3056 62.6447 86.1225 63.1595 86.8046 62.7982L95.4577 58.214C95.8843 57.988 96.4114 58.099 96.7106 58.4779L98.2479 60.4243C98.6377 60.9179 98.4805 61.6445 97.9216 61.9328L89.6777 66.1852C88.9236 66.5742 88.9662 67.6666 89.7483 67.9957L97.1883 71.126C97.8004 71.3835 97.9961 72.1551 97.5807 72.6732L96.6657 73.8146C96.3865 74.1628 95.9104 74.2839 95.4988 74.1113L84.062 69.3161C83.7948 69.204 83.4921 69.2134 83.2324 69.3418L69.1964 76.2768C68.4564 76.6424 68.453 77.6965 69.1906 78.0669L83.2254 85.115C83.4891 85.2475 83.7979 85.2566 84.069 85.1401L95.495 80.2296C95.908 80.0521 96.3888 80.1721 96.67 80.5229L97.5897 81.67C98.0023 82.1847 97.8122 82.9509 97.2069 83.2131L89.7366 86.4486C88.9584 86.7856 88.9266 87.8774 89.6839 88.2592L97.9256 92.4139Z" fill="#426FE4" style="fill:#426FE4;fill:color(display-p3 0.2576 0.4363 0.8958);fill-opacity:1;"/>
</svg>
