<svg width="128" height="128" viewBox="0 0 128 128" fill="none" xmlns="http://www.w3.org/2000/svg">
<path d="M24.7376 72.3145C33.9815 72.3145 41.4752 64.8568 41.4752 55.6572C41.4752 46.4577 33.9815 39 24.7376 39C15.4937 39 8 46.4577 8 55.6572C8 64.8568 15.4937 72.3145 24.7376 72.3145Z" stroke="#0081C8" style="stroke:#0081C8;stroke:color(display-p3 0.0000 0.5059 0.7843);stroke-opacity:1;" stroke-width="6.5"/>
<path d="M64.4998 72.3145C73.7437 72.3145 81.2374 64.8568 81.2374 55.6572C81.2374 46.4577 73.7437 39 64.4998 39C55.2559 39 47.7622 46.4577 47.7622 55.6572C47.7622 64.8568 55.2559 72.3145 64.4998 72.3145Z" stroke="#424242" style="stroke:#424242;stroke:color(display-p3 0.2588 0.2588 0.2588);stroke-opacity:1;" stroke-width="6.5"/>
<path d="M104.262 72.3145C113.506 72.3145 121 64.8568 121 55.6572C121 46.4577 113.506 39 104.262 39C95.0186 39 87.5249 46.4577 87.5249 55.6572C87.5249 64.8568 95.0186 72.3145 104.262 72.3145Z" stroke="#EE334E" style="stroke:#EE334E;stroke:color(display-p3 0.9333 0.2000 0.3059);stroke-opacity:1;" stroke-width="6.5"/>
<path d="M44.6189 89.2254C53.8629 89.2254 61.3565 81.7677 61.3565 72.5681C61.3565 63.3686 53.8629 55.9109 44.6189 55.9109C35.375 55.9109 27.8813 63.3686 27.8813 72.5681C27.8813 81.7677 35.375 89.2254 44.6189 89.2254Z" stroke="#FCB131" style="stroke:#FCB131;stroke:color(display-p3 0.9882 0.6941 0.1922);stroke-opacity:1;" stroke-width="6.5"/>
<path d="M84.3811 89.2254C93.6251 89.2254 101 81.6995 101 72.5C101 63.3005 93.6251 55.9109 84.3811 55.9109C75.1372 55.9109 67.6436 63.3686 67.6436 72.5681C67.6436 81.7677 75.1372 89.2254 84.3811 89.2254Z" stroke="#00A651" style="stroke:#00A651;stroke:color(display-p3 0.0000 0.6510 0.3176);stroke-opacity:1;" stroke-width="6.5"/>
<path d="M38.1274 45.6629C40.3004 48.5462 41.475 52.0531 41.475 55.6572C41.475 59.2614 40.3004 62.7683 38.1274 65.6516" stroke="#0081C8" style="stroke:#0081C8;stroke:color(display-p3 0.0000 0.5059 0.7843);stroke-opacity:1;" stroke-width="6.5"/>
<path d="M77.8901 45.6629C80.0631 48.5462 81.2377 52.0531 81.2377 55.6572C81.2377 59.2614 80.0631 62.7683 77.8901 65.6516M64.5001 72.3145C60.8786 72.3145 57.3547 71.1455 54.4575 68.983" stroke="#424242" style="stroke:#424242;stroke:color(display-p3 0.2588 0.2588 0.2588);stroke-opacity:1;" stroke-width="6.5"/>
<path d="M104.262 72.3145C100.641 72.3145 97.1169 71.1455 94.2197 68.983" stroke="#EE334E" style="stroke:#EE334E;stroke:color(display-p3 0.9333 0.2000 0.3059);stroke-opacity:1;" stroke-width="6.5"/>
</svg>
