<svg width="128" height="128" viewBox="0 0 128 128" fill="none" xmlns="http://www.w3.org/2000/svg">
<path d="M116 4H12C7.58 4 4 7.58 4 12V116C4 120.42 7.58 124 12 124H116C120.42 124 124 120.42 124 116V12C124 7.58 120.42 4 116 4Z" fill="#689F38" style="fill:#689F38;fill:color(display-p3 0.4078 0.6235 0.2196);fill-opacity:1;"/>
<path d="M109.7 4H11.5C7.37002 4.03 4.03002 7.37 4.00002 11.5V109.4C3.99002 113.54 7.34002 116.89 11.48 116.9C11.49 116.9 11.49 116.9 11.5 116.9H109.6C113.74 116.91 117.09 113.56 117.1 109.42C117.1 109.41 117.1 109.41 117.1 109.4V11.5C117.19 7.45 113.97 4.09 109.92 4C109.85 4 109.77 4 109.7 4Z" fill="#7CB342" style="fill:#7CB342;fill:color(display-p3 0.4863 0.7020 0.2588);fill-opacity:1;"/>
<path opacity="0.75" d="M39.6996 12.8999C39.6996 10.5999 38.0996 9.89988 28.8996 10.1999C21.1996 10.4999 17.3996 11.3999 15.0996 14.1999C12.7996 16.9999 12.1996 22.6999 12.0996 29.4999C12.0996 34.2999 12.0996 38.7999 14.5996 38.7999C17.9996 38.7999 17.9996 30.8999 20.7996 26.4999C26.1996 17.7999 39.6996 15.8999 39.6996 12.8999Z" fill="#ABC884" style="fill:#ABC884;fill:color(display-p3 0.6706 0.7843 0.5176);fill-opacity:1;"/>
<path d="M101.705 58.1858C99.3595 58.1858 85.1607 59.2838 71.6856 60.8226C71.6107 60.8226 71.5359 60.7478 71.6107 60.6729C82.2244 52.2551 93.0628 42.9556 94.6765 41.3419C99.8752 36.1432 98.0452 32.7744 96.5064 31.2356C93.9445 28.6736 90.2097 29.2559 86.4001 33.0655C84.7864 34.6792 75.4869 45.5092 67.0691 56.1313C66.9942 56.2061 66.9194 56.1313 66.9194 56.0564C68.4582 42.5813 69.5562 28.3825 69.5562 26.0368C69.5562 18.6422 65.8963 17.5442 63.7003 17.5442C61.5044 17.5442 57.8445 18.6505 57.8445 26.0452C57.8445 28.3908 58.9424 42.5896 60.4813 56.0647C60.4813 56.1396 60.4064 56.2145 60.3315 56.1396C52.13 45.6673 42.8388 34.8289 41.2252 33.1487C37.3407 29.2642 33.6807 28.7568 31.1188 31.3188C29.58 32.8576 29.1391 34.9038 29.946 37.0998C30.4617 38.4889 31.4848 39.9528 32.9488 41.4168C34.5625 43.0305 45.3925 52.33 56.0145 60.7478C56.0894 60.8226 56.0145 60.8975 55.9397 60.8975C42.4645 59.3587 28.2657 58.2607 25.9201 58.2607C18.6003 58.1858 17.5771 61.8457 17.5771 64.0417C17.5771 66.2376 18.6751 69.8975 26.0698 69.8975C28.4155 69.8975 42.6143 68.7996 56.0894 67.2607C56.1642 67.2607 56.2391 67.3356 56.1642 67.4105C45.4008 75.7617 34.6373 85.0612 32.9488 86.6666C31.4848 88.2054 30.3868 89.5945 29.946 90.9836C29.1391 93.1047 29.58 95.2341 31.1188 96.7646C32.1419 97.7877 33.3896 98.3783 34.7787 98.3783C36.7584 98.3783 38.9543 97.2054 41.2252 94.9346C42.8388 93.3209 52.1383 82.4909 60.5561 71.8689C60.631 71.794 60.7059 71.8689 60.7059 71.9437C59.167 85.4189 58.0691 99.6177 58.0691 101.963C58.0691 109.358 61.729 110.456 63.9249 110.456C66.1209 110.456 69.7808 109.358 69.7808 101.963C69.7808 99.6177 68.6828 85.4189 67.144 71.9437C67.144 71.8689 67.2188 71.794 67.2937 71.8689C75.7115 82.4826 85.011 93.3209 86.6247 94.9346C88.8955 97.2054 91.0914 98.3783 93.0711 98.3783C94.4602 98.3783 95.7079 97.796 96.731 96.7646C98.2698 95.2258 100.1 91.857 94.901 86.6582C93.2874 85.0446 82.4574 75.7451 71.8353 67.3273C71.7604 67.2524 71.8353 67.1776 71.9102 67.1776C85.3853 68.7164 99.5841 69.8143 101.93 69.8143C109.324 69.8143 110.422 66.1544 110.422 63.9585C110.422 61.7625 109.1 58.1858 101.705 58.1858Z" fill="white" style="fill:white;fill-opacity:1;"/>
</svg>
