<svg width="128" height="128" viewBox="0 0 128 128" fill="none" xmlns="http://www.w3.org/2000/svg">
<path d="M63.6001 118.8C35.7001 118.8 5.6001 101.3 5.6001 62.9C5.6001 24.5 35.7001 7 63.6001 7C79.1001 7 93.4001 12.1 104 21.4C115.5 31.6 121.6 46 121.6 62.9C121.6 79.8 115.5 94.1 104 104.3C93.4001 113.6 79.0001 118.8 63.6001 118.8Z" fill="url(#paint0_radial_169_8858)" style=""/>
<path d="M63.6001 118.8C35.7001 118.8 5.6001 101.3 5.6001 62.9C5.6001 24.5 35.7001 7 63.6001 7C79.1001 7 93.4001 12.1 104 21.4C115.5 31.6 121.6 46 121.6 62.9C121.6 79.8 115.5 94.1 104 104.3C93.4001 113.6 79.0001 118.8 63.6001 118.8Z" fill="url(#paint1_radial_169_8858)" style=""/>
<path d="M63.6001 118.8C35.7001 118.8 5.6001 101.3 5.6001 62.9C5.6001 24.5 35.7001 7 63.6001 7C79.1001 7 93.4001 12.1 104 21.4C115.5 31.6 121.6 46 121.6 62.9C121.6 79.8 115.5 94.1 104 104.3C93.4001 113.6 79.0001 118.8 63.6001 118.8Z" fill="url(#paint2_radial_169_8858)" style=""/>
<path opacity="0.5" d="M27.25 91.66C36.915 91.66 44.75 83.825 44.75 74.16C44.75 64.495 36.915 56.66 27.25 56.66C17.585 56.66 9.75 64.495 9.75 74.16C9.75 83.825 17.585 91.66 27.25 91.66Z" fill="url(#paint3_radial_169_8858)" style=""/>
<path d="M50.1499 59.1L49.9999 58.88L49.7899 58.61C49.7099 58.5 49.6299 58.41 49.5299 58.32L48.9099 57.7C48.6599 57.45 48.3599 57.18 48.0499 56.91C47.3899 56.34 46.6499 55.88 45.8499 55.52C45.0699 55.17 44.2199 55 43.3699 55H42.9999C42.8999 54.98 42.8099 54.98 42.7099 55C42.5299 55.02 42.3499 55.05 42.1699 55.09C41.7499 55.19 41.3499 55.32 40.9499 55.48C40.1499 55.84 39.4099 56.3 38.7499 56.87C38.2099 57.33 37.7099 57.82 37.2399 58.34L36.6699 58.98L36.3699 59.32C35.1799 60.72 33.0799 60.9 31.6799 59.71C30.6099 58.8 30.2199 57.32 30.7099 56L30.8199 55.68C30.9199 55.37 31.0399 55.07 31.1699 54.77C31.6499 53.68 32.2599 52.66 32.9999 51.73C34.7499 49.42 37.2099 47.74 39.9999 46.94C40.5699 46.79 41.1499 46.68 41.7399 46.6C42.0399 46.6 42.4799 46.51 42.6099 46.51H43.3699C44.5099 46.53 45.6399 46.69 46.7399 46.98C47.7899 47.27 48.7999 47.69 49.7399 48.23C51.2899 49.13 52.6499 50.34 53.7399 51.77C54.1599 52.31 54.5399 52.87 54.8699 53.47C55.1399 53.94 55.3799 54.42 55.5899 54.91C55.6699 55.07 55.7399 55.24 55.7899 55.41C55.7899 55.54 55.8699 55.65 55.8999 55.74L55.9999 56C56.5699 57.77 55.5999 59.67 53.8299 60.24C52.4899 60.66 51.0199 60.2 50.1499 59.1Z" fill="#422B0D" style="fill:#422B0D;fill:color(display-p3 0.2588 0.1686 0.0510);fill-opacity:1;"/>
<path d="M50.1499 59.1L49.9999 58.88L49.7899 58.61C49.7099 58.5 49.6299 58.41 49.5299 58.32L48.9099 57.7C48.6599 57.45 48.3599 57.18 48.0499 56.91C47.3899 56.34 46.6499 55.88 45.8499 55.52C45.0699 55.17 44.2199 55 43.3699 55H42.9999C42.8999 54.98 42.8099 54.98 42.7099 55C42.5299 55.02 42.3499 55.05 42.1699 55.09C41.7499 55.19 41.3499 55.32 40.9499 55.48C40.1499 55.84 39.4099 56.3 38.7499 56.87C38.2099 57.33 37.7099 57.82 37.2399 58.34L36.6699 58.98L36.3699 59.32C35.1799 60.72 33.0799 60.9 31.6799 59.71C30.6099 58.8 30.2199 57.32 30.7099 56L30.8199 55.68C30.9199 55.37 31.0399 55.07 31.1699 54.77C31.6499 53.68 32.2599 52.66 32.9999 51.73C34.7499 49.42 37.2099 47.74 39.9999 46.94C40.5699 46.79 41.1499 46.68 41.7399 46.6C42.0399 46.6 42.4799 46.51 42.6099 46.51H43.3699C44.5099 46.53 45.6399 46.69 46.7399 46.98C47.7899 47.27 48.7999 47.69 49.7399 48.23C51.2899 49.13 52.6499 50.34 53.7399 51.77C54.1599 52.31 54.5399 52.87 54.8699 53.47C55.1399 53.94 55.3799 54.42 55.5899 54.91C55.6699 55.07 55.7399 55.24 55.7899 55.41C55.7899 55.54 55.8699 55.65 55.8999 55.74L55.9999 56C56.5699 57.77 55.5999 59.67 53.8299 60.24C52.4899 60.66 51.0199 60.2 50.1499 59.1Z" fill="#1A1717" style="fill:#1A1717;fill:color(display-p3 0.1020 0.0902 0.0902);fill-opacity:1;"/>
<path d="M93.4799 59.1L93.2999 58.88L93.0899 58.61C93.0099 58.5 92.9299 58.41 92.8299 58.32L92.2099 57.7C91.9599 57.45 91.6599 57.18 91.3499 56.91C90.6899 56.34 89.9499 55.88 89.1499 55.52C88.3799 55.18 87.5399 55 86.6999 55H86.2899C86.1899 54.98 86.0999 54.98 85.9999 55C85.8199 55.02 85.6399 55.05 85.4599 55.09C85.0399 55.19 84.6399 55.32 84.2399 55.48C83.4299 55.85 82.6699 56.33 81.9999 56.91C81.4599 57.37 80.9599 57.86 80.4799 58.38L79.9999 59L79.6999 59.34C78.5799 60.8 76.4899 61.07 75.0299 59.94C73.8299 59.02 73.3999 57.4 73.9999 56L74.1099 55.68C74.2099 55.37 74.3299 55.07 74.4599 54.77C74.9299 53.67 75.5499 52.64 76.2799 51.69C78.0299 49.38 80.4899 47.7 83.2799 46.9C83.8499 46.75 84.4299 46.64 85.0199 46.56C85.3199 46.56 85.7499 46.47 85.8899 46.47H86.6499C87.7899 46.49 88.9199 46.65 90.0199 46.94C91.0699 47.23 92.0799 47.65 93.0199 48.19C94.5699 49.09 95.9299 50.3 97.0199 51.73C97.4399 52.27 97.8199 52.83 98.1499 53.43C98.4199 53.9 98.6599 54.38 98.8699 54.87C98.9499 55.03 99.0199 55.2 99.0699 55.37L99.1799 55.7L99.2699 55.97C99.8399 57.74 98.8699 59.63 97.0999 60.2C95.7699 60.63 94.3199 60.19 93.4499 59.1H93.4799Z" fill="#422B0D" style="fill:#422B0D;fill:color(display-p3 0.2588 0.1686 0.0510);fill-opacity:1;"/>
<path d="M93.4799 59.1L93.2999 58.88L93.0899 58.61C93.0099 58.5 92.9299 58.41 92.8299 58.32L92.2099 57.7C91.9599 57.45 91.6599 57.18 91.3499 56.91C90.6899 56.34 89.9499 55.88 89.1499 55.52C88.3799 55.18 87.5399 55 86.6999 55H86.2899C86.1899 54.98 86.0999 54.98 85.9999 55C85.8199 55.02 85.6399 55.05 85.4599 55.09C85.0399 55.19 84.6399 55.32 84.2399 55.48C83.4299 55.85 82.6699 56.33 81.9999 56.91C81.4599 57.37 80.9599 57.86 80.4799 58.38L79.9999 59L79.6999 59.34C78.5799 60.8 76.4899 61.07 75.0299 59.94C73.8299 59.02 73.3999 57.4 73.9999 56L74.1099 55.68C74.2099 55.37 74.3299 55.07 74.4599 54.77C74.9299 53.67 75.5499 52.64 76.2799 51.69C78.0299 49.38 80.4899 47.7 83.2799 46.9C83.8499 46.75 84.4299 46.64 85.0199 46.56C85.3199 46.56 85.7499 46.47 85.8899 46.47H86.6499C87.7899 46.49 88.9199 46.65 90.0199 46.94C91.0699 47.23 92.0799 47.65 93.0199 48.19C94.5699 49.09 95.9299 50.3 97.0199 51.73C97.4399 52.27 97.8199 52.83 98.1499 53.43C98.4199 53.9 98.6599 54.38 98.8699 54.87C98.9499 55.03 99.0199 55.2 99.0699 55.37L99.1799 55.7L99.2699 55.97C99.8399 57.74 98.8699 59.63 97.0999 60.2C95.7699 60.63 94.3199 60.19 93.4499 59.1H93.4799Z" fill="#1A1717" style="fill:#1A1717;fill:color(display-p3 0.1020 0.0902 0.0902);fill-opacity:1;"/>
<path d="M72.8601 84.93C74.5701 83.42 75.6401 81.33 75.8601 79.06C76.0501 75.46 75.1301 74.22 73.9501 72.65C71.2401 69 63.5501 69.87 63.5501 69.87C61.5501 69.95 59.1101 70.93 59.4001 73.31C59.7901 74.66 60.8901 75.69 62.2701 76C65.2701 76.73 69.6401 76 69.7601 79.09C69.9001 82.55 64.5801 81.09 64.1601 84.79C63.7401 88.49 69.7601 87.98 69.7601 90.5C69.7601 92.43 67.7601 92.76 65.6901 93.2C63.9001 93.57 60.4601 94.13 60.1801 96.2C59.9001 98.27 61.0901 100.77 65.9301 100.04C73.5401 98.89 76.1001 94.72 76.1001 92.16C76.1501 89.39 74.9601 86.74 72.8601 84.93Z" fill="#422B0D" style="fill:#422B0D;fill:color(display-p3 0.2588 0.1686 0.0510);fill-opacity:1;"/>
<path d="M72.8601 84.93C74.5701 83.42 75.6401 81.33 75.8601 79.06C76.0501 75.46 75.1301 74.22 73.9501 72.65C71.2401 69 63.5501 69.87 63.5501 69.87C61.5501 69.95 59.1101 70.93 59.4001 73.31C59.7901 74.66 60.8901 75.69 62.2701 76C65.2701 76.73 69.6401 76 69.7601 79.09C69.9001 82.55 64.5801 81.09 64.1601 84.79C63.7401 88.49 69.7601 87.98 69.7601 90.5C69.7601 92.43 67.7601 92.76 65.6901 93.2C63.9001 93.57 60.4601 94.13 60.1801 96.2C59.9001 98.27 61.0901 100.77 65.9301 100.04C73.5401 98.89 76.1001 94.72 76.1001 92.16C76.1501 89.39 74.9601 86.74 72.8601 84.93Z" fill="#1A1717" style="fill:#1A1717;fill:color(display-p3 0.1020 0.0902 0.0902);fill-opacity:1;"/>
<path d="M47.1799 32.61C49.4899 32.61 50.1799 29.48 47.7099 28.96C45.7899 28.6 43.8199 28.54 41.8799 28.79C36.6299 29.38 31.7999 31.96 28.3799 36C26.8099 37.92 29.3799 39.94 31.0699 38.51C35.6299 34.8 41.2999 32.72 47.1799 32.61Z" fill="#422B0D" style="fill:#422B0D;fill:color(display-p3 0.2588 0.1686 0.0510);fill-opacity:1;"/>
<path d="M47.1799 32.61C49.4899 32.61 50.1799 29.48 47.7099 28.96C45.7899 28.6 43.8199 28.54 41.8799 28.79C36.6299 29.38 31.7999 31.96 28.3799 36C26.8099 37.92 29.3799 39.94 31.0699 38.51C35.6299 34.8 41.2999 32.72 47.1799 32.61Z" fill="#1A1717" style="fill:#1A1717;fill:color(display-p3 0.1020 0.0902 0.0902);fill-opacity:1;"/>
<path d="M80.0001 33.29C77.7101 33.55 76.7301 30.47 79.1101 29.71C81.0001 29.17 82.9701 28.93 84.9401 29C90.2301 29.07 95.2901 31.17 99.0801 34.86C100.83 36.62 98.4801 38.86 96.6501 37.62C91.7401 34.35 85.8801 32.82 80.0001 33.29Z" fill="#422B0D" style="fill:#422B0D;fill:color(display-p3 0.2588 0.1686 0.0510);fill-opacity:1;"/>
<path d="M80.0001 33.29C77.7101 33.55 76.7301 30.47 79.1101 29.71C81.0001 29.17 82.9701 28.93 84.9401 29C90.2301 29.07 95.2901 31.17 99.0801 34.86C100.83 36.62 98.4801 38.86 96.6501 37.62C91.7401 34.35 85.8801 32.82 80.0001 33.29Z" fill="#1A1717" style="fill:#1A1717;fill:color(display-p3 0.1020 0.0902 0.0902);fill-opacity:1;"/>
<path d="M111.49 29.67C116.82 38.27 119.6 48.51 119.6 59.9C119.6 76.8 113.5 91.1 102 101.3C91.3999 110.6 76.9999 115.8 61.5999 115.8C43.5399 115.8 24.5999 108.45 13.4199 92.86C24.1799 110.52 44.4199 118.8 63.5999 118.8C78.9999 118.8 93.3999 113.6 104 104.3C115.5 94.1 121.6 79.8 121.6 62.9C121.6 50.16 118.13 38.84 111.49 29.67Z" fill="#EB8F00" style="fill:#EB8F00;fill:color(display-p3 0.9216 0.5608 0.0000);fill-opacity:1;"/>
<path d="M111.49 29.67C116.82 38.27 119.6 48.51 119.6 59.9C119.6 76.8 113.5 91.1 102 101.3C91.3999 110.6 76.9999 115.8 61.5999 115.8C43.5399 115.8 24.5999 108.45 13.4199 92.86C24.1799 110.52 44.4199 118.8 63.5999 118.8C78.9999 118.8 93.3999 113.6 104 104.3C115.5 94.1 121.6 79.8 121.6 62.9C121.6 50.16 118.13 38.84 111.49 29.67Z" fill="#4A2F27" style="fill:#4A2F27;fill:color(display-p3 0.2902 0.1843 0.1529);fill-opacity:1;"/>
<path opacity="0.5" d="M100.63 91.66C110.295 91.66 118.13 83.825 118.13 74.16C118.13 64.495 110.295 56.66 100.63 56.66C90.9649 56.66 83.1299 64.495 83.1299 74.16C83.1299 83.825 90.9649 91.66 100.63 91.66Z" fill="url(#paint4_radial_169_8858)" style=""/>
<defs>
<radialGradient id="paint0_radial_169_8858" cx="0" cy="0" r="1" gradientUnits="userSpaceOnUse" gradientTransform="translate(63.6001 62.9) scale(56.9597 56.9597)">
<stop offset="0.5" stop-color="#FDE030" style="stop-color:#FDE030;stop-color:color(display-p3 0.9922 0.8784 0.1882);stop-opacity:1;"/>
<stop offset="0.92" stop-color="#F7C02B" style="stop-color:#F7C02B;stop-color:color(display-p3 0.9686 0.7529 0.1686);stop-opacity:1;"/>
<stop offset="1" stop-color="#F4A223" style="stop-color:#F4A223;stop-color:color(display-p3 0.9569 0.6353 0.1373);stop-opacity:1;"/>
</radialGradient>
<radialGradient id="paint1_radial_169_8858" cx="0" cy="0" r="1" gradientUnits="userSpaceOnUse" gradientTransform="translate(38.5991 34.5377) rotate(-43.2082) scale(102.024 101.825)">
<stop offset="0.3533" stop-color="#F9DDBD" style="stop-color:#F9DDBD;stop-color:color(display-p3 0.9765 0.8667 0.7412);stop-opacity:1;"/>
<stop offset="0.8723" stop-color="#FFD29C" style="stop-color:#FFD29C;stop-color:color(display-p3 1.0000 0.8235 0.6118);stop-opacity:1;"/>
</radialGradient>
<radialGradient id="paint2_radial_169_8858" cx="0" cy="0" r="1" gradientUnits="userSpaceOnUse" gradientTransform="translate(38.5991 34.5377) rotate(-43.2082) scale(102.024 101.825)">
<stop offset="0.3533" stop-color="#70534A" style="stop-color:#70534A;stop-color:color(display-p3 0.4392 0.3255 0.2902);stop-opacity:1;"/>
<stop offset="0.8723" stop-color="#5C4037" style="stop-color:#5C4037;stop-color:color(display-p3 0.3608 0.2510 0.2157);stop-opacity:1;"/>
</radialGradient>
<radialGradient id="paint3_radial_169_8858" cx="0" cy="0" r="1" gradientUnits="userSpaceOnUse" gradientTransform="translate(27.25 74.1222) scale(19.0628 18.0902)">
<stop stop-color="#ED7770" style="stop-color:#ED7770;stop-color:color(display-p3 0.9294 0.4667 0.4392);stop-opacity:1;"/>
<stop offset="0.08" stop-color="#ED7770" stop-opacity="0.96" style="stop-color:#ED7770;stop-color:color(display-p3 0.9294 0.4667 0.4392);stop-opacity:0.96;"/>
<stop offset="0.22" stop-color="#ED7770" stop-opacity="0.85" style="stop-color:#ED7770;stop-color:color(display-p3 0.9294 0.4667 0.4392);stop-opacity:0.85;"/>
<stop offset="0.39" stop-color="#ED7770" stop-opacity="0.68" style="stop-color:#ED7770;stop-color:color(display-p3 0.9294 0.4667 0.4392);stop-opacity:0.68;"/>
<stop offset="0.59" stop-color="#ED7770" stop-opacity="0.43" style="stop-color:#ED7770;stop-color:color(display-p3 0.9294 0.4667 0.4392);stop-opacity:0.43;"/>
<stop offset="0.81" stop-color="#ED7770" stop-opacity="0.13" style="stop-color:#ED7770;stop-color:color(display-p3 0.9294 0.4667 0.4392);stop-opacity:0.13;"/>
<stop offset="0.9" stop-color="#ED7770" stop-opacity="0" style="stop-color:none;stop-opacity:0;"/>
</radialGradient>
<radialGradient id="paint4_radial_169_8858" cx="0" cy="0" r="1" gradientUnits="userSpaceOnUse" gradientTransform="translate(100.635 74.1222) scale(19.0628 18.0902)">
<stop stop-color="#ED7770" style="stop-color:#ED7770;stop-color:color(display-p3 0.9294 0.4667 0.4392);stop-opacity:1;"/>
<stop offset="0.08" stop-color="#ED7770" stop-opacity="0.96" style="stop-color:#ED7770;stop-color:color(display-p3 0.9294 0.4667 0.4392);stop-opacity:0.96;"/>
<stop offset="0.22" stop-color="#ED7770" stop-opacity="0.85" style="stop-color:#ED7770;stop-color:color(display-p3 0.9294 0.4667 0.4392);stop-opacity:0.85;"/>
<stop offset="0.39" stop-color="#ED7770" stop-opacity="0.68" style="stop-color:#ED7770;stop-color:color(display-p3 0.9294 0.4667 0.4392);stop-opacity:0.68;"/>
<stop offset="0.59" stop-color="#ED7770" stop-opacity="0.43" style="stop-color:#ED7770;stop-color:color(display-p3 0.9294 0.4667 0.4392);stop-opacity:0.43;"/>
<stop offset="0.81" stop-color="#ED7770" stop-opacity="0.13" style="stop-color:#ED7770;stop-color:color(display-p3 0.9294 0.4667 0.4392);stop-opacity:0.13;"/>
<stop offset="0.9" stop-color="#ED7770" stop-opacity="0" style="stop-color:none;stop-opacity:0;"/>
</radialGradient>
</defs>
</svg>
