<svg width="128" height="128" viewBox="0 0 128 128" fill="none" xmlns="http://www.w3.org/2000/svg">
<path d="M63.6001 118.8C35.7001 118.8 5.6001 101.3 5.6001 62.9C5.6001 24.5 35.7001 7 63.6001 7C79.1001 7 93.4001 12.1 104 21.4C115.5 31.6 121.6 46 121.6 62.9C121.6 79.8 115.5 94.1 104 104.3C93.4001 113.6 79.0001 118.8 63.6001 118.8Z" fill="url(#paint0_radial_169_8248)" style=""/>
<path d="M63.6001 118.8C35.7001 118.8 5.6001 101.3 5.6001 62.9C5.6001 24.5 35.7001 7 63.6001 7C79.1001 7 93.4001 12.1 104 21.4C115.5 31.6 121.6 46 121.6 62.9C121.6 79.8 115.5 94.1 104 104.3C93.4001 113.6 79.0001 118.8 63.6001 118.8Z" fill="url(#paint1_radial_169_8248)" style=""/>
<path d="M63.6001 118.8C35.7001 118.8 5.6001 101.3 5.6001 62.9C5.6001 24.5 35.7001 7 63.6001 7C79.1001 7 93.4001 12.1 104 21.4C115.5 31.6 121.6 46 121.6 62.9C121.6 79.8 115.5 94.1 104 104.3C93.4001 113.6 79.0001 118.8 63.6001 118.8Z" fill="url(#paint2_radial_169_8248)" style=""/>
<path d="M111.49 29.67C116.82 38.27 119.6 48.51 119.6 59.9C119.6 76.8 113.5 91.1 102 101.3C91.4002 110.6 77.0002 115.8 61.6002 115.8C43.5402 115.8 24.6002 108.45 13.4202 92.86C24.1802 110.52 44.4202 118.8 63.6002 118.8C79.0002 118.8 93.4002 113.6 104 104.3C115.5 94.1 121.6 79.8 121.6 62.9C121.6 50.16 118.13 38.84 111.49 29.67Z" fill="#EB8F00" style="fill:#EB8F00;fill:color(display-p3 0.9216 0.5608 0.0000);fill-opacity:1;"/>
<path d="M111.49 29.67C116.82 38.27 119.6 48.51 119.6 59.9C119.6 76.8 113.5 91.1 102 101.3C91.4002 110.6 77.0002 115.8 61.6002 115.8C43.5402 115.8 24.6002 108.45 13.4202 92.86C24.1802 110.52 44.4202 118.8 63.6002 118.8C79.0002 118.8 93.4002 113.6 104 104.3C115.5 94.1 121.6 79.8 121.6 62.9C121.6 50.16 118.13 38.84 111.49 29.67Z" fill="#4A2F27" style="fill:#4A2F27;fill:color(display-p3 0.2902 0.1843 0.1529);fill-opacity:1;"/>
<g opacity="0.9">
<path opacity="0.5" d="M101.65 87.75C111.282 87.75 119.09 80.5866 119.09 71.75C119.09 62.9134 111.282 55.75 101.65 55.75C92.0184 55.75 84.2102 62.9134 84.2102 71.75C84.2102 80.5866 92.0184 87.75 101.65 87.75Z" fill="url(#paint3_radial_169_8248)" style=""/>
</g>
<path d="M122.24 44C120.34 42.1 117.27 42.1 115.37 44L80.7601 78.56L75.8301 83.5C79.5801 84.05 83.2601 84.96 86.8301 86.23L90.3001 82.75L111 62.31L112.24 61.21L122.24 50.83C124.1 48.93 124.1 45.9 122.24 44Z" fill="#E6E6E6" style="fill:#E6E6E6;fill:color(display-p3 0.9020 0.9020 0.9020);fill-opacity:1;"/>
<path d="M109.05 58C107.79 56.74 105.75 56.74 104.49 58L78.1001 83.89C80.4701 84.32 82.8001 84.9 85.1001 85.62L109.1 62.62C110.36 61.35 110.36 59.3 109.09 58.04C109.08 58.03 109.06 58.01 109.05 58Z" fill="#FF0000" style="fill:#FF0000;fill:color(display-p3 1.0000 0.0000 0.0000);fill-opacity:1;"/>
<path d="M64.1099 75.93C56.0299 75.86 48.0699 77.89 40.9999 81.8C38.3699 83.19 40.1399 86.72 42.3499 85.94C49.3199 83.58 56.6399 82.45 63.9999 82.61C67.9599 82.6 71.9199 82.9 75.8299 83.5L80.7599 78.56C75.3799 76.82 69.7599 75.93 64.1099 75.93Z" fill="#422B0D" style="fill:#422B0D;fill:color(display-p3 0.2588 0.1686 0.0510);fill-opacity:1;"/>
<path d="M64.1099 75.93C56.0299 75.86 48.0699 77.89 40.9999 81.8C38.3699 83.19 40.1399 86.72 42.3499 85.94C49.3199 83.58 56.6399 82.45 63.9999 82.61C67.9599 82.6 71.9199 82.9 75.8299 83.5L80.7599 78.56C75.3799 76.82 69.7599 75.93 64.1099 75.93Z" fill="#1A1717" style="fill:#1A1717;fill:color(display-p3 0.1020 0.0902 0.0902);fill-opacity:1;"/>
<path d="M90.8999 86.33C91.7699 85.44 91.7499 84.02 90.8699 83.15C90.7399 83.02 90.5899 82.91 90.4199 82.81L90.3199 82.75L86.8499 86.23C87.4599 86.45 87.9799 86.66 88.3999 86.84C89.2599 87.2 90.2499 87 90.8999 86.33Z" fill="#422B0D" style="fill:#422B0D;fill:color(display-p3 0.2588 0.1686 0.0510);fill-opacity:1;"/>
<path d="M86.8398 86.23L90.3198 82.75L86.8398 86.23Z" fill="#E6E6E6" style="fill:#E6E6E6;fill:color(display-p3 0.9020 0.9020 0.9020);fill-opacity:1;"/>
<path d="M118.69 54.52L115.94 51.78C115.6 51.44 115.6 50.89 115.94 50.55C116.28 50.21 116.83 50.21 117.17 50.55L119.89 53.27L118.69 54.52Z" fill="#404040" style="fill:#404040;fill:color(display-p3 0.2510 0.2510 0.2510);fill-opacity:1;"/>
<path d="M113.62 59.79L112.1 58.26C111.77 57.92 111.77 57.37 112.1 57.03C112.44 56.69 112.99 56.69 113.33 57.03L114.82 58.53L113.62 59.79Z" fill="#404040" style="fill:#404040;fill:color(display-p3 0.2510 0.2510 0.2510);fill-opacity:1;"/>
<path d="M103.86 69.45L102.37 68C102.03 67.66 102.03 67.11 102.37 66.77C102.71 66.43 103.26 66.43 103.6 66.77L105.1 68.23L103.86 69.45Z" fill="#404040" style="fill:#404040;fill:color(display-p3 0.2510 0.2510 0.2510);fill-opacity:1;"/>
<path d="M94 79.13L92.62 77.74C92.28 77.4 92.28 76.85 92.62 76.51C92.96 76.17 93.51 76.17 93.85 76.51L95.24 77.91L94 79.13Z" fill="#404040" style="fill:#404040;fill:color(display-p3 0.2510 0.2510 0.2510);fill-opacity:1;"/>
<path d="M109 64.42L106.29 61.66C105.95 61.32 105.95 60.77 106.29 60.43C106.63 60.09 107.18 60.09 107.52 60.43L110.24 63.2L109 64.42Z" fill="#404040" style="fill:#404040;fill:color(display-p3 0.2510 0.2510 0.2510);fill-opacity:1;"/>
<path d="M99.2298 74L96.4598 71.26C96.1198 70.92 96.1198 70.37 96.4598 70.03C96.7998 69.69 97.3498 69.69 97.6898 70.03L100.47 72.78L99.2298 74Z" fill="#404040" style="fill:#404040;fill:color(display-p3 0.2510 0.2510 0.2510);fill-opacity:1;"/>
<path d="M89.3898 83.68L86.7198 81C86.3798 80.66 86.3798 80.11 86.7198 79.77C87.0598 79.43 87.6098 79.43 87.9498 79.77L90.6298 82.45L89.3898 83.68Z" fill="#404040" style="fill:#404040;fill:color(display-p3 0.2510 0.2510 0.2510);fill-opacity:1;"/>
<path d="M46.0001 38.59C47.0101 38.63 47.8601 37.84 47.9001 36.83C47.9401 35.82 47.1501 34.97 46.1401 34.93C44.2001 34.68 42.2301 34.76 40.3201 35.17C35.1201 36.14 30.4801 39.03 27.3201 43.27C25.9001 45.33 28.5701 47.1 30.2201 45.58C34.5101 41.48 40.1001 39.01 46.0201 38.58" fill="#422B0D" style="fill:#422B0D;fill:color(display-p3 0.2588 0.1686 0.0510);fill-opacity:1;"/>
<path d="M46.0001 38.59C47.0101 38.63 47.8601 37.84 47.9001 36.83C47.9401 35.82 47.1501 34.97 46.1401 34.93C44.2001 34.68 42.2301 34.76 40.3201 35.17C35.1201 36.14 30.4801 39.03 27.3201 43.27C25.9001 45.33 28.5701 47.1 30.2201 45.58C34.5101 41.48 40.1001 39.01 46.0201 38.58" fill="#1A1717" style="fill:#1A1717;fill:color(display-p3 0.1020 0.0902 0.0902);fill-opacity:1;"/>
<path d="M81.92 38.79C80.91 38.83 80.06 38.04 80.03 37.02C79.99 36.01 80.78 35.16 81.79 35.13C83.73 34.89 85.7 34.97 87.61 35.38C92.81 36.35 97.45 39.25 100.61 43.49C102.03 45.55 99.36 47.31 97.71 45.8C93.42 41.7 87.84 39.23 81.92 38.8" fill="#422B0D" style="fill:#422B0D;fill:color(display-p3 0.2588 0.1686 0.0510);fill-opacity:1;"/>
<path d="M81.92 38.79C80.91 38.83 80.06 38.04 80.03 37.02C79.99 36.01 80.78 35.16 81.79 35.13C83.73 34.89 85.7 34.97 87.61 35.38C92.81 36.35 97.45 39.25 100.61 43.49C102.03 45.55 99.36 47.31 97.71 45.8C93.42 41.7 87.84 39.23 81.92 38.8" fill="#1A1717" style="fill:#1A1717;fill:color(display-p3 0.1020 0.0902 0.0902);fill-opacity:1;"/>
<path d="M44 45.94C39.81 45.94 36 49.48 36 55.36C36 61.24 39.81 64.77 44 64.77C48.2 64.77 52 61.23 52 55.36C52 49.49 48.24 45.94 44 45.94Z" fill="#422B0D" style="fill:#422B0D;fill:color(display-p3 0.2588 0.1686 0.0510);fill-opacity:1;"/>
<path d="M44 45.94C39.81 45.94 36 49.48 36 55.36C36 61.24 39.81 64.77 44 64.77C48.2 64.77 52 61.23 52 55.36C52 49.49 48.24 45.94 44 45.94Z" fill="#1A1717" style="fill:#1A1717;fill:color(display-p3 0.1020 0.0902 0.0902);fill-opacity:1;"/>
<path d="M43.65 49.87C42.23 49.19 40.52 49.79 39.83 51.21C39.3 52.32 39.54 53.65 40.43 54.51C41.85 55.19 43.56 54.59 44.25 53.17C44.78 52.06 44.54 50.73 43.65 49.87Z" fill="#555050" style="fill:#555050;fill:color(display-p3 0.3333 0.3125 0.3125);fill-opacity:1;"/>
<path d="M82.3999 45.94C78.2099 45.94 74.3999 49.48 74.3999 55.36C74.3999 61.24 78.2099 64.77 82.3999 64.77C86.5899 64.77 90.3999 61.23 90.3999 55.36C90.3999 49.49 86.5899 45.94 82.3999 45.94Z" fill="#422B0D" style="fill:#422B0D;fill:color(display-p3 0.2588 0.1686 0.0510);fill-opacity:1;"/>
<path d="M82.3999 45.94C78.2099 45.94 74.3999 49.48 74.3999 55.36C74.3999 61.24 78.2099 64.77 82.3999 64.77C86.5899 64.77 90.3999 61.23 90.3999 55.36C90.3999 49.49 86.5899 45.94 82.3999 45.94Z" fill="#1A1717" style="fill:#1A1717;fill:color(display-p3 0.1020 0.0902 0.0902);fill-opacity:1;"/>
<path d="M82.3999 45.94C78.2099 45.94 74.3999 49.48 74.3999 55.36C74.3999 61.24 78.2099 64.77 82.3999 64.77C86.5899 64.77 90.3999 61.23 90.3999 55.36C90.3999 49.49 86.5899 45.94 82.3999 45.94Z" fill="#1A1717" style="fill:#1A1717;fill:color(display-p3 0.1020 0.0902 0.0902);fill-opacity:1;"/>
<path d="M82.0001 49.87C80.5801 49.19 78.8701 49.79 78.1801 51.21C77.6501 52.32 77.8901 53.65 78.7801 54.51C80.2001 55.19 81.9101 54.59 82.6001 53.17C83.1301 52.06 82.8901 50.73 82.0001 49.87Z" fill="#555050" style="fill:#555050;fill:color(display-p3 0.3333 0.3125 0.3125);fill-opacity:1;"/>
<g opacity="0.9">
<path opacity="0.5" d="M27.45 90.44C37.0819 90.44 44.89 83.2766 44.89 74.44C44.89 65.6034 37.0819 58.44 27.45 58.44C17.8182 58.44 10.01 65.6034 10.01 74.44C10.01 83.2766 17.8182 90.44 27.45 90.44Z" fill="url(#paint4_radial_169_8248)" style=""/>
</g>
<defs>
<radialGradient id="paint0_radial_169_8248" cx="0" cy="0" r="1" gradientUnits="userSpaceOnUse" gradientTransform="translate(63.6001 62.8999) scale(56.9597 56.9597)">
<stop offset="0.5" stop-color="#FDE030" style="stop-color:#FDE030;stop-color:color(display-p3 0.9922 0.8784 0.1882);stop-opacity:1;"/>
<stop offset="0.92" stop-color="#F7C02B" style="stop-color:#F7C02B;stop-color:color(display-p3 0.9686 0.7529 0.1686);stop-opacity:1;"/>
<stop offset="1" stop-color="#F4A223" style="stop-color:#F4A223;stop-color:color(display-p3 0.9569 0.6353 0.1373);stop-opacity:1;"/>
</radialGradient>
<radialGradient id="paint1_radial_169_8248" cx="0" cy="0" r="1" gradientUnits="userSpaceOnUse" gradientTransform="translate(38.5991 34.5377) rotate(-43.2082) scale(102.024 101.825)">
<stop offset="0.3533" stop-color="#F9DDBD" style="stop-color:#F9DDBD;stop-color:color(display-p3 0.9765 0.8667 0.7412);stop-opacity:1;"/>
<stop offset="0.8723" stop-color="#FFD29C" style="stop-color:#FFD29C;stop-color:color(display-p3 1.0000 0.8235 0.6118);stop-opacity:1;"/>
</radialGradient>
<radialGradient id="paint2_radial_169_8248" cx="0" cy="0" r="1" gradientUnits="userSpaceOnUse" gradientTransform="translate(38.5991 34.5377) rotate(-43.2082) scale(102.024 101.825)">
<stop offset="0.3533" stop-color="#70534A" style="stop-color:#70534A;stop-color:color(display-p3 0.4392 0.3255 0.2902);stop-opacity:1;"/>
<stop offset="0.8723" stop-color="#5C4037" style="stop-color:#5C4037;stop-color:color(display-p3 0.3608 0.2510 0.2157);stop-opacity:1;"/>
</radialGradient>
<radialGradient id="paint3_radial_169_8248" cx="0" cy="0" r="1" gradientUnits="userSpaceOnUse" gradientTransform="translate(101.601 71.8978) scale(18.9659 16.6218)">
<stop stop-color="#ED7770" style="stop-color:#ED7770;stop-color:color(display-p3 0.9294 0.4667 0.4392);stop-opacity:1;"/>
<stop offset="0.08" stop-color="#ED7770" stop-opacity="0.97" style="stop-color:#ED7770;stop-color:color(display-p3 0.9294 0.4667 0.4392);stop-opacity:0.97;"/>
<stop offset="0.21" stop-color="#ED7770" stop-opacity="0.88" style="stop-color:#ED7770;stop-color:color(display-p3 0.9294 0.4667 0.4392);stop-opacity:0.88;"/>
<stop offset="0.35" stop-color="#ED7770" stop-opacity="0.74" style="stop-color:#ED7770;stop-color:color(display-p3 0.9294 0.4667 0.4392);stop-opacity:0.74;"/>
<stop offset="0.52" stop-color="#ED7770" stop-opacity="0.55" style="stop-color:#ED7770;stop-color:color(display-p3 0.9294 0.4667 0.4392);stop-opacity:0.55;"/>
<stop offset="0.71" stop-color="#ED7770" stop-opacity="0.29" style="stop-color:#ED7770;stop-color:color(display-p3 0.9294 0.4667 0.4392);stop-opacity:0.29;"/>
<stop offset="0.9" stop-color="#ED7770" stop-opacity="0" style="stop-color:none;stop-opacity:0;"/>
</radialGradient>
<radialGradient id="paint4_radial_169_8248" cx="0" cy="0" r="1" gradientUnits="userSpaceOnUse" gradientTransform="translate(27.4501 74.5842) scale(18.9545 16.6118)">
<stop stop-color="#ED7770" style="stop-color:#ED7770;stop-color:color(display-p3 0.9294 0.4667 0.4392);stop-opacity:1;"/>
<stop offset="0.08" stop-color="#ED7770" stop-opacity="0.97" style="stop-color:#ED7770;stop-color:color(display-p3 0.9294 0.4667 0.4392);stop-opacity:0.97;"/>
<stop offset="0.21" stop-color="#ED7770" stop-opacity="0.88" style="stop-color:#ED7770;stop-color:color(display-p3 0.9294 0.4667 0.4392);stop-opacity:0.88;"/>
<stop offset="0.35" stop-color="#ED7770" stop-opacity="0.74" style="stop-color:#ED7770;stop-color:color(display-p3 0.9294 0.4667 0.4392);stop-opacity:0.74;"/>
<stop offset="0.52" stop-color="#ED7770" stop-opacity="0.55" style="stop-color:#ED7770;stop-color:color(display-p3 0.9294 0.4667 0.4392);stop-opacity:0.55;"/>
<stop offset="0.71" stop-color="#ED7770" stop-opacity="0.29" style="stop-color:#ED7770;stop-color:color(display-p3 0.9294 0.4667 0.4392);stop-opacity:0.29;"/>
<stop offset="0.9" stop-color="#ED7770" stop-opacity="0" style="stop-color:none;stop-opacity:0;"/>
</radialGradient>
</defs>
</svg>
