<svg width="129" height="128" viewBox="0 0 129 128" fill="none" xmlns="http://www.w3.org/2000/svg">
<path fill-rule="evenodd" clip-rule="evenodd" d="M64.5 23.375C96.8215 26.4532 115.498 47.7246 114.557 111.084C114.531 112.793 113.364 114.303 111.712 114.743C90.6214 120.366 68.4447 120.514 47.2803 115.175L45.6768 114.77C43.8824 114.317 42.5956 112.683 42.7661 110.84C45.0274 86.4078 73.6289 91.9036 67.625 48.375" fill="white" style="fill:white;fill-opacity:1;"/>
<path fill-rule="evenodd" clip-rule="evenodd" d="M64.5 23.375C96.8215 26.4532 115.498 47.7246 114.557 111.084C114.531 112.793 113.364 114.303 111.712 114.743C90.6214 120.366 68.4447 120.514 47.2803 115.175L45.6768 114.77C43.8824 114.317 42.5956 112.683 42.7661 110.84C45.0274 86.4078 73.6289 91.9036 67.625 48.375" fill="#5E6367" style="fill:#5E6367;fill:color(display-p3 0.3686 0.3882 0.4039);fill-opacity:1;"/>
<path fill-rule="evenodd" clip-rule="evenodd" d="M70.75 48.375C71.9375 57.4688 53.4063 71.4062 45.75 76.5C36.375 82.75 36.9375 90.0625 30.125 89C26.8688 86.0625 34.5313 79.5 30.125 79.625C27 79.625 30.7188 83.4688 27 85.875C23.875 85.875 14.4906 89 14.5 73.375C14.5 67.125 33.25 35.875 33.25 35.875C33.25 35.875 39.1563 29.9375 39.5 24.9375C37.2188 21.8313 37.9375 18.6875 37.9375 15.5625C41.0625 12.4375 47.3125 23.375 47.3125 23.375H53.5625C53.5625 23.375 56 17.15 61.375 14C64.5 14 64.5 23.375 64.5 23.375" fill="white" style="fill:white;fill-opacity:1;"/>
<path fill-rule="evenodd" clip-rule="evenodd" d="M70.75 48.375C71.9375 57.4688 53.4063 71.4062 45.75 76.5C36.375 82.75 36.9375 90.0625 30.125 89C26.8688 86.0625 34.5313 79.5 30.125 79.625C27 79.625 30.7188 83.4688 27 85.875C23.875 85.875 14.4906 89 14.5 73.375C14.5 67.125 33.25 35.875 33.25 35.875C33.25 35.875 39.1563 29.9375 39.5 24.9375C37.2188 21.8313 37.9375 18.6875 37.9375 15.5625C41.0625 12.4375 47.3125 23.375 47.3125 23.375H53.5625C53.5625 23.375 56 17.15 61.375 14C64.5 14 64.5 23.375 64.5 23.375" fill="#5E6367" style="fill:#5E6367;fill:color(display-p3 0.3686 0.3882 0.4039);fill-opacity:1;"/>
<path fill-rule="evenodd" clip-rule="evenodd" d="M25.4375 71.8125C25.4375 72.2269 25.2729 72.6243 24.9799 72.9174C24.6868 73.2104 24.2894 73.375 23.875 73.375C23.4606 73.375 23.0632 73.2104 22.7701 72.9174C22.4771 72.6243 22.3125 72.2269 22.3125 71.8125C22.3125 71.3981 22.4771 71.0007 22.7701 70.7076C23.0632 70.4146 23.4606 70.25 23.875 70.25C24.2894 70.25 24.6868 70.4146 24.9799 70.7076C25.2729 71.0007 25.4375 71.3981 25.4375 71.8125Z" fill="#323B43" style="fill:#323B43;fill:color(display-p3 0.1958 0.2328 0.2625);fill-opacity:1;"/>
<path fill-rule="evenodd" clip-rule="evenodd" d="M38.76 43.4762C38.1384 45.0487 37.3997 46.4366 36.7064 47.3345C36.0131 48.2325 35.422 48.5669 35.0631 48.2643C34.7042 47.9616 34.607 47.0467 34.7928 45.7208C34.9785 44.3948 35.4321 42.7665 36.0537 41.194C36.6753 39.6214 37.414 38.2336 38.1073 37.3356C38.8006 36.4377 39.3917 36.1032 39.7506 36.4059C40.1095 36.7085 40.2067 37.6234 40.0209 38.9494C39.8351 40.2753 39.3816 41.9037 38.76 43.4762Z" fill="#EBEBEB" style="fill:#EBEBEB;fill:color(display-p3 0.9208 0.9208 0.9208);fill-opacity:1;"/>
<path d="M72.758 91.576C73.3092 89.3667 62.1419 90.7737 56.2869 94.0046C53.293 95.6513 50.1309 97.8379 48.181 102.528C46.3997 106.816 48.6165 111.106 53.7225 108.699C60.3444 105.578 57.9481 102.08 63.3709 98.3462C67.6388 95.4027 72.16 93.8931 72.758 91.576Z" fill="#B0B0AF" style="fill:#B0B0AF;fill:color(display-p3 0.6902 0.6902 0.6863);fill-opacity:1;"/>
</svg>
