<svg width="128" height="128" viewBox="0 0 128 128" fill="none" xmlns="http://www.w3.org/2000/svg">
<path d="M82.31 70.6902C82.53 70.8402 82.69 70.9902 82.95 70.9102C82.93 71.3902 82.92 71.9502 83.3 72.3402C83.68 72.7202 84.32 72.8302 84.8 72.5902C84.61 73.2402 84.95 74.0102 85.56 74.3102C86.17 74.6102 86.98 74.4102 87.38 73.8602C87.09 75.4702 89.76 75.6602 90.68 75.0802C91.41 74.6202 91.85 73.7502 91.78 72.8902C91.78 72.8502 91.77 72.8102 91.79 72.7702C91.81 72.7402 91.85 72.7202 91.88 72.7002C92.56 72.4102 93.35 72.2402 93.92 71.7502C95.92 70.0402 94.45 65.9702 94.45 65.9702C92.65 66.0102 90.85 66.0602 89.05 66.1002C87.83 66.1302 86.62 66.1602 85.4 66.1902C83.96 66.2302 83.21 66.4302 82.4 67.7802C82.05 68.3602 81.69 68.9802 81.73 69.6602C81.75 70.0602 81.99 70.4702 82.31 70.6902Z" fill="url(#paint0_linear_910_220)" style=""/>
<path d="M82.6301 69.63C82.1101 70.82 82.9201 71.39 82.9201 71.39C82.9601 70.82 83.2001 70.11 83.5701 69.69C84.0201 69.05 84.5401 69.01 85.1001 68.88C85.1001 68.88 83.3301 68.05 82.6301 69.63Z" fill="#91674D" style="fill:#91674D;fill:color(display-p3 0.5686 0.4039 0.3020);fill-opacity:1;"/>
<path d="M84.79 70.7702C84.37 71.0402 84.07 71.5502 84 72.0502C83.94 73.6502 85.3899 74.2102 85.3899 74.2102C85.0599 73.6102 84.88 72.8602 84.99 72.1902C85.02 71.8502 85.1699 71.5402 85.3899 71.2802C85.5999 71.0102 85.9 70.8302 86.2 70.6502C86.2 70.6602 85.46 70.3502 84.79 70.7702Z" fill="#91674D" style="fill:#91674D;fill:color(display-p3 0.5686 0.4039 0.3020);fill-opacity:1;"/>
<path d="M87.1101 72.2404C86.8301 72.6504 86.7901 73.1104 86.8201 73.5104C87.0701 74.9604 88.3201 75.2204 88.3201 75.2204C88.0501 74.6604 87.8701 74.0204 87.8201 73.4004C87.7101 72.8004 87.8701 72.1304 88.4001 71.7804C88.3801 71.7804 87.7201 71.4204 87.1101 72.2404Z" fill="#91674D" style="fill:#91674D;fill:color(display-p3 0.5686 0.4039 0.3020);fill-opacity:1;"/>
<path d="M90.4501 71.8901C90.1601 71.9001 89.8601 72.0101 89.6801 72.2301C89.5001 72.4601 89.4701 72.8101 89.6501 73.0301C89.7801 73.1901 90.0101 73.2701 90.2101 73.2101C90.5101 73.1401 90.6101 72.7701 90.6101 72.7701C90.7101 72.7801 90.9601 72.9101 91.5701 72.8801C92.3101 72.8501 93.1401 72.2101 93.1401 72.2101C93.1001 72.1901 92.2301 72.4101 91.4501 72.0801C91.1701 71.9801 90.7501 71.8901 90.4501 71.8901Z" fill="#91674D" style="fill:#91674D;fill:color(display-p3 0.5686 0.4039 0.3020);fill-opacity:1;"/>
<path d="M40.5701 123.61C37.3901 123.61 36.0101 123.6 36.0101 123.6C35.5601 123.6 35.1801 123.24 35.1701 122.79L35.1301 121.6C35.1301 118.32 37.5101 118.67 38.8301 118.43C40.4501 118.13 41.4801 116.96 42.0201 116.13C42.3001 115.71 51.8001 112.65 51.8001 112.65C53.9301 117.05 54.1801 119.42 54.1401 121.06L54.0801 122.81C54.0701 123.26 53.6901 123.62 53.2401 123.62L49.8601 123.61C49.3901 123.61 49.0201 123.23 49.0201 122.77C49.0201 122.52 48.9401 122.29 48.7801 122.11C48.5501 121.86 47.9001 121.71 47.3401 121.85C43.9101 122.72 44.5901 123.61 40.5701 123.61Z" fill="#455A64" style="fill:#455A64;fill:color(display-p3 0.2706 0.3529 0.3922);fill-opacity:1;"/>
<path d="M85.45 123.61C82.27 123.61 80.89 123.6 80.89 123.6C80.44 123.6 80.06 123.24 80.05 122.79L80.01 121.6C80.01 118.32 82.39 118.67 83.71 118.43C85.33 118.13 86.36 116.96 86.9 116.13C87.18 115.71 96.68 112.65 96.68 112.65C98.81 117.05 99.06 119.42 99.02 121.06L98.96 122.81C98.95 123.26 98.57 123.62 98.12 123.62L94.74 123.61C94.27 123.61 93.9 123.23 93.9 122.77C93.9 122.52 93.82 122.29 93.66 122.11C93.43 121.86 92.78 121.71 92.22 121.85C88.78 122.72 89.46 123.61 85.45 123.61Z" fill="#455A64" style="fill:#455A64;fill:color(display-p3 0.2706 0.3529 0.3922);fill-opacity:1;"/>
<path d="M40.59 16.23C42.47 15.17 44.09 16.03 45.15 17.89L49.74 30.75L63.9 35.19C65.23 36.88 64.05 40.33 62.85 42.2C61.44 44.4 60.29 45.46 58.15 44.93C58.15 44.93 50.24 41.98 46.21 40.09C42.81 38.5 41.58 37.95 40.67 34.38C39.77 30.81 37.88 21.54 37.88 21.54C36.82 19.69 38.71 17.29 40.59 16.23Z" fill="#AEEAF5" style="fill:#AEEAF5;fill:color(display-p3 0.6824 0.9176 0.9608);fill-opacity:1;"/>
<path d="M35.7799 22.7202L37.0799 14.8602L44.2199 13.4702L46.6299 21.6702C43.4299 24.0702 35.7799 22.7202 35.7799 22.7202Z" fill="#00BFA5" style="fill:#00BFA5;fill:color(display-p3 0.0000 0.7490 0.6471);fill-opacity:1;"/>
<path d="M57.8401 37.1102C43.18 45.2902 41.6201 64.2202 41.6201 64.2202C41.6201 64.2202 49.7501 69.6302 56.7501 69.6302C63.7501 69.6302 61.7801 49.4802 61.7801 49.4802C61.7801 49.4802 75.7901 27.1002 57.8401 37.1102Z" fill="#AEEAF5" style="fill:#AEEAF5;fill:color(display-p3 0.6824 0.9176 0.9608);fill-opacity:1;"/>
<path d="M59.6501 38.2803C45.2601 46.2103 43.1701 65.1803 43.1701 65.1803C43.1701 65.1803 49.7401 69.6303 56.7401 69.6303C63.7401 69.6303 61.7701 49.4803 61.7701 49.4803C61.7701 49.4803 77.6501 28.3503 59.6501 38.2803Z" fill="#74CCF2" style="fill:#74CCF2;fill:color(display-p3 0.4549 0.8000 0.9490);fill-opacity:1;"/>
<path d="M77.49 69.6303C79.49 76.6303 81.86 86.5803 84.18 90.4003C88.62 97.7403 101.21 111.03 101.21 111.03C95.81 118.75 83.68 118.42 83.68 118.42C83.68 118.42 79.07 102.44 66.75 87.9703C63.08 83.6603 61.41 83.2203 60.28 84.0603C57.75 85.9503 49.72 94.8203 49.72 94.8203C51.25 99.4103 58.61 114.94 58.61 114.94C50.7 120.8 39.6 118.28 39.6 118.28C39.6 118.28 38.91 110.47 37.83 97.9103C37.37 92.5803 37.27 89.3703 40.09 85.8003C41.8 83.6303 47.72 76.7603 50.16 72.5103C51.6 70.0003 52.09 65.8903 52.09 63.1203C52.09 63.1203 54.23 63.4103 54.91 63.4103H74.6C75.72 63.4403 74.75 60.0503 77.49 69.6303Z" fill="#C2EDF5" style="fill:#C2EDF5;fill:color(display-p3 0.7608 0.9294 0.9608);fill-opacity:1;"/>
<path d="M65.36 76.1704C65.36 76.1704 63.36 70.1704 62.65 62.8604C61.82 54.2704 64.41 45.4604 69.2 38.2804C70.39 36.5004 71.36 35.4004 73.36 36.2304C74.43 36.6704 76.02 38.1904 77.16 38.2804C79.16 38.4304 82.37 42.6704 82.08 44.9004C82.08 44.9004 76.6 56.2004 76.45 59.4504C76.25 63.8904 79.77 69.6104 81.35 71.9504C81.75 72.5404 81.53 73.3404 80.89 73.6404C78.53 74.7804 72.86 76.9204 65.36 76.1704Z" fill="#C2EDF5" style="fill:#C2EDF5;fill:color(display-p3 0.7608 0.9294 0.9608);fill-opacity:1;"/>
<path d="M66.7199 76.41L65.7399 76.62C65.1499 72.41 64.0599 59.78 70.3399 53.35L66.9799 49.69C70.7299 47.84 75.6899 47.78 75.6899 47.78L76.6499 47.5L76.6299 48.65L75.6999 48.78C75.6599 48.78 71.9399 48.84 68.6699 50.05L71.7199 53.37C71.7199 53.37 64.0999 61.24 66.7199 76.41Z" fill="#74CCF2" style="fill:#74CCF2;fill:color(display-p3 0.4549 0.8000 0.9490);fill-opacity:1;"/>
<path d="M70.3499 36.1703C77.0099 35.8703 79.6699 35.6303 84.4199 38.6903C87.6899 40.8003 90.7499 42.6303 93.7499 44.6303C96.7499 46.6303 98.7499 48.6303 97.7499 53.6303C97.1599 56.5703 93.7499 67.6303 93.7499 67.6303C93.7499 67.6303 87.8299 66.3103 87.9899 64.1803L88.7599 51.5603L75.9099 47.0003C74.1899 45.7103 74.3699 40.1603 75.7999 38.2903L70.3499 36.1703Z" fill="#C2EDF5" style="fill:#C2EDF5;fill:color(display-p3 0.7608 0.9294 0.9608);fill-opacity:1;"/>
<path d="M62.7499 65.18C61.7099 44.04 68.9499 41.47 72.1499 44.04C73.4499 45.09 76.7999 49.22 76.7999 49.22C76.7999 49.22 77.2499 37.92 76.0499 35.96C74.8499 33.99 71.3099 33.69 69.1899 33.35C67.1599 33.02 65.5299 33.7 63.4899 34.15C53.8099 36.3 53.1599 39.56 53.1599 39.56C53.1599 39.56 57.8999 38.07 58.0199 39.98C58.0899 41.07 55.9399 42.86 54.3499 47.17C52.7599 51.48 52.0799 54.67 52.0799 64.33L62.7499 65.18Z" fill="url(#paint1_linear_910_220)" style=""/>
<path d="M99.03 62.8504L94.88 68.5904L87.86 66.1404L88.02 59.3504C95.17 57.9804 99.03 62.8504 99.03 62.8504Z" fill="#00BFA5" style="fill:#00BFA5;fill:color(display-p3 0.0000 0.7490 0.6471);fill-opacity:1;"/>
<path d="M63.6598 50.8804C64.4198 49.3704 65.2398 47.9204 66.1398 46.6104C67.0498 45.3404 68.1898 44.1604 69.3798 44.0404C69.6798 44.0304 69.9698 44.0204 70.2798 44.1004C70.5598 44.1604 70.8598 44.3104 71.1698 44.5004C71.8098 44.8604 72.4198 45.3904 73.0498 45.8904C73.6798 46.4004 74.2898 46.9604 74.8798 47.5404C75.5198 48.0804 76.0998 48.6804 76.7598 49.2304L76.8398 49.1704C75.8498 47.8204 74.7898 46.5104 73.6098 45.3204C73.0198 44.7304 72.3898 44.1604 71.6898 43.6904C70.9998 43.2104 70.1198 42.9304 69.2598 43.0404C68.3998 43.1504 67.6298 43.6204 67.0198 44.2004C66.3998 44.7804 65.9098 45.4804 65.4798 46.2004C64.6298 47.6504 64.0198 49.2304 63.5598 50.8404L63.6598 50.8804Z" fill="#009688" style="fill:#009688;fill:color(display-p3 0.0000 0.5882 0.5333);fill-opacity:1;"/>
<path d="M70.3699 33.3398L64.4899 34.2198L61.7099 44.0298C61.7099 44.0298 71.2899 39.1098 73.4599 34.9298L74.1499 33.9698L70.3699 33.3398Z" fill="#99674F" style="fill:#99674F;fill:color(display-p3 0.6000 0.4039 0.3098);fill-opacity:1;"/>
<path d="M59.4999 21.6197L62.0699 21.4897L75.9999 20.8197L78.5699 20.6897C80.6299 20.5897 82.3899 22.2897 82.4899 24.4597C82.5899 26.6297 80.9899 28.4897 78.9399 28.5897L76.3699 28.7197L62.4499 29.3997L59.8799 29.5297C57.8199 29.6297 56.0599 27.9297 55.9599 25.7597C55.8499 23.5797 57.4499 21.7197 59.4999 21.6197Z" fill="#99674F" style="fill:#99674F;fill:color(display-p3 0.6000 0.4039 0.3098);fill-opacity:1;"/>
<path d="M68.24 7.05979C74.31 6.75979 80.23 12.9298 80.66 22.1998C81.09 31.4198 75.51 36.2598 69.6 36.5498C63.7 36.8398 57.7 32.5598 57.27 23.3398C56.85 14.0698 62.17 7.35979 68.24 7.05979Z" fill="#BA8D68" style="fill:#BA8D68;fill:color(display-p3 0.7294 0.5529 0.4078);fill-opacity:1;"/>
<path d="M77.0501 20.85C77.0501 20.85 76.2501 19.75 74.4901 19.75C72.5401 19.75 71.7801 21.13 71.7801 21.13C71.6101 21.38 71.6901 21.72 71.9401 21.88C72.0901 21.98 72.2801 21.99 72.4401 21.93L72.5401 21.89C72.5401 21.89 73.4401 21.15 74.7701 21.27C75.8001 21.36 76.1701 21.63 76.2001 21.64C76.3301 21.7 76.4001 21.72 76.4001 21.72C76.6901 21.82 77.0201 21.67 77.1201 21.38C77.1901 21.19 77.1601 21 77.0501 20.85Z" fill="#613E31" style="fill:#613E31;fill:color(display-p3 0.3804 0.2431 0.1922);fill-opacity:1;"/>
<path d="M61.14 22.3698C61.14 22.3698 61.67 21.9198 63 21.8198C64.1 21.7398 64.89 22.2498 64.89 22.2498L64.9901 22.2798C65.2801 22.3698 65.59 22.1998 65.67 21.9098C65.72 21.7298 65.72 21.5998 65.57 21.4198C65.33 21.1098 64.4501 20.2998 63.0501 20.2998C61.3601 20.2998 60.66 21.1298 60.29 21.6598C60.11 21.9198 60.2 22.3098 60.47 22.4298C60.66 22.5198 60.94 22.5298 61.14 22.3698Z" fill="#613E31" style="fill:#613E31;fill:color(display-p3 0.3804 0.2431 0.1922);fill-opacity:1;"/>
<path d="M72.8293 24.1231C72.8246 23.1455 73.5908 22.3494 74.5407 22.3448C75.4907 22.3402 76.2646 23.1289 76.2693 24.1065C76.274 25.084 75.5078 25.8802 74.5578 25.8848C73.6079 25.8894 72.834 25.1006 72.8293 24.1231Z" fill="#49362E" style="fill:#49362E;fill:color(display-p3 0.2863 0.2118 0.1804);fill-opacity:1;"/>
<path d="M61.3598 24.6875C61.3551 23.71 62.1213 22.9138 63.0713 22.9092C64.0212 22.9046 64.7951 23.6934 64.7998 24.6709C64.8045 25.6485 64.0383 26.4446 63.0883 26.4492C62.1384 26.4538 61.3645 25.6651 61.3598 24.6875Z" fill="#49362E" style="fill:#49362E;fill:color(display-p3 0.2863 0.2118 0.1804);fill-opacity:1;"/>
<path d="M66.2499 30.8398C67.3899 31.4398 71.0299 31.2597 72.1199 30.5497C72.7399 30.1397 73.4199 30.6898 73.1799 31.2798C72.9499 31.8598 71.0199 33.2697 69.2999 33.3497C67.5799 33.4297 65.5599 32.2198 65.2699 31.6598C64.9799 31.1098 65.5999 30.4998 66.2499 30.8398Z" fill="#5D4037" style="fill:#5D4037;fill:color(display-p3 0.3647 0.2510 0.2157);fill-opacity:1;"/>
<path d="M67.8499 27.5797C67.8899 27.5597 67.9199 27.5497 67.9599 27.5497L70.4299 27.4297C70.4699 27.4297 70.5099 27.4397 70.5399 27.4497C70.7699 27.5297 70.8999 27.7497 70.8099 27.9997C70.7199 28.2497 70.2599 28.9597 69.2699 29.0097C68.2799 29.0597 67.7599 28.3897 67.6399 28.1597C67.5199 27.9097 67.6299 27.6797 67.8499 27.5797Z" fill="#99674F" style="fill:#99674F;fill:color(display-p3 0.6000 0.4039 0.3098);fill-opacity:1;"/>
<path d="M57.1201 4.23004C57.2001 4.21004 57.2901 4.17004 57.3801 4.15004C57.6801 4.10004 58.0901 4.10004 58.2401 4.39004C59.1001 6.15004 62.0001 6.73004 65.0101 6.34004C66.0201 6.21004 69.7401 8.11004 70.6001 8.80004C71.6201 9.62004 63.3301 13.98 63.3301 13.98C60.2701 14.41 58.2401 18.63 56.6601 16.71C52.0601 11.14 55.2901 5.25004 57.1201 4.23004Z" fill="url(#paint2_radial_910_220)" style=""/>
<path d="M68.3501 5.87021C68.3601 5.87021 68.3501 5.87021 68.3501 5.87021C68.3601 5.87021 68.3601 5.87021 68.3601 5.87021C83.5501 5.40021 81.4401 22.7702 81.4401 22.7702C81.4401 22.7702 80.8201 24.5802 80.5401 25.3802C80.5001 25.5002 80.3301 25.4902 80.3001 25.3702C79.9201 23.9302 78.1901 18.9202 77.5401 17.3802C77.1601 16.4702 76.1901 15.9702 75.2201 16.1802C73.7401 16.5002 71.3801 16.9202 68.7701 17.0202C68.7601 17.0202 68.7501 17.0202 68.7401 17.0202C68.7301 17.0202 68.7201 17.0202 68.7101 17.0202C66.1001 17.1102 63.7101 16.8702 62.2201 16.6502C61.2501 16.5102 60.3101 17.0802 60.0001 18.0102C59.4701 19.5902 58.0801 24.8402 57.8001 26.3302C57.7801 26.4502 57.6101 26.4702 57.5601 26.3602L56.8901 23.7302C56.9101 23.7302 53.1701 6.50021 68.3501 5.87021Z" fill="#543930" style="fill:#543930;fill:color(display-p3 0.3294 0.2235 0.1882);fill-opacity:1;"/>
<path d="M68.3501 5.87021C68.3601 5.87021 68.3501 5.87021 68.3501 5.87021C68.3601 5.87021 68.3601 5.87021 68.3601 5.87021C83.5501 5.40021 81.4401 22.7702 81.4401 22.7702C81.4401 22.7702 80.8201 24.5802 80.5401 25.3802C80.5001 25.5002 80.3301 25.4902 80.3001 25.3702C79.9201 23.9302 78.1901 18.9202 77.5401 17.3802C77.1601 16.4702 76.1901 15.9702 75.2201 16.1802C73.7401 16.5002 71.3801 16.9202 68.7701 17.0202C68.7601 17.0202 68.7501 17.0202 68.7401 17.0202C68.7301 17.0202 68.7201 17.0202 68.7101 17.0202C66.1001 17.1102 63.7101 16.8702 62.2201 16.6502C61.2501 16.5102 60.3101 17.0802 60.0001 18.0102C59.4701 19.5902 58.0801 24.8402 57.8001 26.3302C57.7801 26.4502 57.6101 26.4702 57.5601 26.3602L56.8901 23.7302C56.9101 23.7302 53.1701 6.50021 68.3501 5.87021Z" fill="url(#paint3_radial_910_220)" style=""/>
<path d="M42.31 7.94001C42.31 7.94001 42.4 6.29001 40.87 6.37001C39.17 6.46001 39.66 8.08001 39.66 8.08001L42.31 7.94001Z" fill="url(#paint4_linear_910_220)" style=""/>
<path d="M44.73 12.1601L44.93 11.7901C45.21 9.14012 44.99 5.19012 44.65 2.06012C44.49 0.580117 43.82 0.370117 43.43 0.370117C42.91 0.370117 42.27 0.680117 42.22 2.11012C42.18 3.15012 42.19 4.16012 42.21 5.14012C42.23 6.32012 42.25 7.44012 42.14 8.32012L42.33 8.35012L44.57 11.9001C44.56 11.9801 44.55 12.0601 44.55 12.1401L44.73 12.1601Z" fill="url(#paint5_linear_910_220)" style=""/>
<path d="M44.3199 9.98007C44.1499 9.72007 43.7499 9.02007 43.6099 8.83007C42.0999 7.96007 40.1799 8.69007 39.8699 8.57007L39.6499 7.29007C39.5399 6.70007 38.8399 6.41007 38.2099 6.59007C36.9999 6.94007 37.1499 7.89007 37.1499 7.89007C37.1099 7.90007 36.6799 7.31007 35.7699 7.49007C33.9599 7.85007 34.2999 16.3501 40.1599 16.0301C40.1599 16.0301 40.5699 16.0401 40.8399 15.9901C43.9299 15.5201 44.3899 14.0001 44.6399 13.3001C44.8099 12.8201 44.8999 12.3001 44.9399 11.7901C44.9699 11.2601 44.6499 10.4701 44.3199 9.98007Z" fill="url(#paint6_linear_910_220)" style=""/>
<path d="M39.2998 11.2399C38.7698 11.3999 38.6298 11.1299 38.3398 10.9499C38.0698 11.7799 37.0798 11.7899 37.0798 11.8199C37.1198 12.2299 37.6198 13.2999 37.8998 13.5899C38.8798 14.6099 39.5898 14.2399 39.5898 14.2399C39.5898 14.2399 40.6298 12.7799 40.8998 12.4099C41.1698 12.0399 42.0798 11.3499 42.0898 11.2999C42.1198 10.9199 42.0098 10.4599 41.8098 10.2999C41.6698 10.1799 40.1398 10.1499 40.1398 10.1499C40.1398 10.1499 39.9898 11.0399 39.2998 11.2399Z" fill="url(#paint7_linear_910_220)" style=""/>
<path d="M36.14 10.6703C36.23 10.8303 36.34 11.0303 36.48 11.2003C36.63 11.3803 36.79 11.4903 37.02 11.5403C37.24 11.5903 37.41 11.4503 37.51 11.2503C37.59 11.0903 37.6 10.9003 37.6 10.7203C37.6 10.5603 37.59 10.3903 37.56 10.2303C37.44 9.47031 37.04 8.78031 36.93 8.02031C36.92 7.93031 36.91 7.83031 36.98 7.76031C37.03 7.71031 37.1 7.70031 37.16 7.73031C37.28 7.79031 37.35 8.03031 37.41 8.14031C37.49 8.31031 37.57 8.49031 37.65 8.66031C37.83 9.05031 38 9.45031 38.17 9.85031C38.24 10.0203 38.31 10.1903 38.38 10.3603L38.43 10.4803C38.44 10.5003 38.43 10.5003 38.48 10.5903C38.5 10.6403 38.53 10.6903 38.58 10.7403C38.74 10.9303 39 11.0103 39.23 10.9303C39.46 10.8703 39.64 10.6503 39.69 10.4003C39.7 10.3403 39.7 10.2703 39.7 10.2203L39.67 9.96031C39.65 9.83031 39.64 9.69031 39.63 9.56031L39.62 9.41031C39.58 8.92031 39.57 8.41031 39.5 7.93031C39.47 7.75031 39.46 7.57031 39.46 7.39031C39.46 7.32031 39.47 7.26031 39.49 7.20031C39.52 7.12031 39.63 7.02031 39.72 7.08031C39.79 7.12031 39.77 7.22031 39.78 7.29031C39.82 7.54031 39.89 7.78031 39.94 8.03031C40.03 8.46031 40.11 8.90031 40.18 9.33031L40.2 9.45031C40.22 9.59031 40.25 9.73031 40.27 9.87031L40.31 10.1603C40.33 10.2903 40.32 10.4103 40.31 10.5103C40.24 11.0003 39.89 11.4303 39.41 11.5703C39.17 11.6403 38.91 11.6403 38.67 11.5703C38.48 11.5103 38.31 11.3903 38.17 11.2503C38.16 11.2803 38.17 11.3203 38.16 11.3503C38.12 11.5103 38.05 11.6603 37.94 11.7803C37.84 11.8903 37.72 11.9903 37.56 12.0603C37.42 12.1303 37.27 12.1703 37.12 12.1903C36.96 12.2103 36.79 12.1903 36.64 12.1303C36.38 12.0403 36.16 11.8603 35.95 11.5903C35.76 11.3303 35.93 11.5803 35.59 10.9103C35.38 10.3703 35.29 9.78031 35.15 9.22031C35.12 9.08031 35.09 8.93031 35.15 8.80031C35.17 8.75031 35.22 8.70031 35.28 8.70031C35.35 8.70031 35.39 8.77031 35.42 8.83031C35.49 8.99031 35.55 9.16031 35.57 9.33031C35.59 9.49031 35.65 9.61031 35.71 9.76031C35.85 10.0603 35.98 10.3703 36.14 10.6703Z" fill="#91674D" style="fill:#91674D;fill:color(display-p3 0.5686 0.4039 0.3020);fill-opacity:1;"/>
<path d="M44.9299 11.7901C45.0199 13.2901 43.8499 14.7601 43.2599 15.1701C41.9599 16.0601 39.7799 16.1501 39.6699 16.0401C39.6399 16.0101 39.6999 14.8201 39.6799 14.5701C39.5899 13.6001 40.3599 12.4901 41.1999 11.9601C41.5499 11.7401 42.5399 10.7101 40.8999 10.5501C39.8299 10.4401 39.1499 10.0101 38.9899 9.53007C38.8299 9.05007 39.4299 8.28007 39.7199 8.24007C39.7199 8.24007 43.3399 7.00007 44.4099 9.88007C44.6299 10.4401 44.8999 11.2601 44.9299 11.7901Z" fill="url(#paint8_linear_910_220)" style=""/>
<path d="M40.06 7.82996C40.41 7.74996 40.78 7.69996 41.17 7.68996C41.56 7.67996 41.94 7.69996 42.29 7.75996C42.75 7.83996 43.09 7.94996 43.39 8.11996C44.03 8.47996 44.31 9.09996 44.55 9.76996C44.68 10.12 44.78 10.49 44.85 10.86C44.88 11.04 44.91 11.22 44.93 11.4C44.94 11.5 44.91 11.83 44.96 11.9C44.34 11.1 44.15 10.04 43.54 9.23996C43.41 9.06996 43.26 8.91996 43.09 8.78996C42.28 8.19996 41.14 8.20996 40.2 8.41996C39.81 8.50996 39.54 8.61996 39.35 8.76996C39.26 8.83996 39.2 8.92996 39.2 8.99996C39.2 9.01996 39.2 9.03996 39.21 9.08996C39.21 9.12996 39.22 9.16996 39.22 9.19996C39.23 9.27996 39.25 9.34996 39.27 9.41996C39.34 9.64996 39.52 10.02 39.75 10.14C39.99 10.27 40.32 10.2 40.56 10.15C40.77 10.11 40.99 10.06 41.2 10.02C41.36 9.98996 41.54 9.95996 41.66 10.06C41.71 10.1 41.75 10.16 41.78 10.22C41.91 10.48 42.01 10.76 42.06 11.04C42.11 11.29 42.03 11.43 41.88 11.64C41.68 11.92 41.4 12.13 41.13 12.36C40.67 12.75 40.22 13.21 40.05 13.79C39.98 14.01 39.96 14.24 39.89 14.45C39.86 14.53 39.82 14.61 39.74 14.64C39.63 14.67 39.53 14.56 39.5 14.45C39.35 13.83 39.65 13.19 40 12.69C40.42 12.1 40.91 11.61 41.55 11.26C41.4 11.06 41.3 10.83 41.25 10.59C41.27 10.68 40.43 10.69 40.35 10.69C39.81 10.71 39.32 10.61 38.93 10.19C38.81 10.06 38.71 9.90996 38.65 9.74996C38.55 9.47996 38.57 9.17996 38.59 8.88996C38.61 8.61996 38.79 8.46996 38.98 8.29996C39.33 8.02996 39.72 7.90996 40.06 7.82996Z" fill="#91674D" style="fill:#91674D;fill:color(display-p3 0.5686 0.4039 0.3020);fill-opacity:1;"/>
<defs>
<linearGradient id="paint0_linear_910_220" x1="91.7315" y1="65.7801" x2="83.8416" y2="74.4997" gradientUnits="userSpaceOnUse">
<stop offset="0.5" stop-color="#BA8D68" style="stop-color:#BA8D68;stop-color:color(display-p3 0.7294 0.5529 0.4078);stop-opacity:1;"/>
<stop offset="1" stop-color="#A47B62" style="stop-color:#A47B62;stop-color:color(display-p3 0.6431 0.4824 0.3843);stop-opacity:1;"/>
</linearGradient>
<linearGradient id="paint1_linear_910_220" x1="64.4815" y1="68.2129" x2="64.4815" y2="43.6405" gradientUnits="userSpaceOnUse">
<stop offset="0.1156" stop-color="#00AB94" style="stop-color:#00AB94;stop-color:color(display-p3 0.0000 0.6706 0.5804);stop-opacity:1;"/>
<stop offset="0.3768" stop-color="#00B29A" style="stop-color:#00B29A;stop-color:color(display-p3 0.0000 0.6980 0.6039);stop-opacity:1;"/>
<stop offset="1" stop-color="#00BFA5" style="stop-color:#00BFA5;stop-color:color(display-p3 0.0000 0.7490 0.6471);stop-opacity:1;"/>
</linearGradient>
<radialGradient id="paint2_radial_910_220" cx="0" cy="0" r="1" gradientUnits="userSpaceOnUse" gradientTransform="translate(67.6499 13.9332) rotate(170.27) scale(7.46668 7.46668)">
<stop stop-color="#6D4C41" stop-opacity="0" style="stop-color:none;stop-opacity:0;"/>
<stop offset="1" stop-color="#6D4C41" style="stop-color:#6D4C41;stop-color:color(display-p3 0.4275 0.2980 0.2549);stop-opacity:1;"/>
</radialGradient>
<radialGradient id="paint3_radial_910_220" cx="0" cy="0" r="1" gradientUnits="userSpaceOnUse" gradientTransform="translate(69.1505 19.4062) rotate(180) scale(13.3996 13.5952)">
<stop offset="0.6458" stop-color="#6D4C41" stop-opacity="0" style="stop-color:none;stop-opacity:0;"/>
<stop offset="1" stop-color="#6D4C41" style="stop-color:#6D4C41;stop-color:color(display-p3 0.4275 0.2980 0.2549);stop-opacity:1;"/>
</radialGradient>
<linearGradient id="paint4_linear_910_220" x1="42.3097" y1="7.21851" x2="39.5915" y2="7.21851" gradientUnits="userSpaceOnUse">
<stop offset="0.5" stop-color="#BA8D68" style="stop-color:#BA8D68;stop-color:color(display-p3 0.7294 0.5529 0.4078);stop-opacity:1;"/>
<stop offset="1" stop-color="#A47B62" style="stop-color:#A47B62;stop-color:color(display-p3 0.6431 0.4824 0.3843);stop-opacity:1;"/>
</linearGradient>
<linearGradient id="paint5_linear_910_220" x1="45.0566" y1="6.26762" x2="42.131" y2="6.26762" gradientUnits="userSpaceOnUse">
<stop offset="0.5" stop-color="#BA8D68" style="stop-color:#BA8D68;stop-color:color(display-p3 0.7294 0.5529 0.4078);stop-opacity:1;"/>
<stop offset="1" stop-color="#A47B62" style="stop-color:#A47B62;stop-color:color(display-p3 0.6431 0.4824 0.3843);stop-opacity:1;"/>
</linearGradient>
<linearGradient id="paint6_linear_910_220" x1="44.9329" y1="11.2876" x2="34.7922" y2="11.2876" gradientUnits="userSpaceOnUse">
<stop offset="0.5" stop-color="#BA8D68" style="stop-color:#BA8D68;stop-color:color(display-p3 0.7294 0.5529 0.4078);stop-opacity:1;"/>
<stop offset="1" stop-color="#A47B62" style="stop-color:#A47B62;stop-color:color(display-p3 0.6431 0.4824 0.3843);stop-opacity:1;"/>
</linearGradient>
<linearGradient id="paint7_linear_910_220" x1="40.492" y1="10.6705" x2="37.9021" y2="13.5466" gradientUnits="userSpaceOnUse">
<stop stop-color="#A47B62" style="stop-color:#A47B62;stop-color:color(display-p3 0.6431 0.4824 0.3843);stop-opacity:1;"/>
<stop offset="0.4695" stop-color="#AB8164" stop-opacity="0.5305" style="stop-color:#AB8164;stop-color:color(display-p3 0.6706 0.5059 0.3922);stop-opacity:0.5305;"/>
<stop offset="1" stop-color="#BA8D68" stop-opacity="0" style="stop-color:none;stop-opacity:0;"/>
</linearGradient>
<linearGradient id="paint8_linear_910_220" x1="44.0164" y1="14.4388" x2="38.5019" y2="9.47271" gradientUnits="userSpaceOnUse">
<stop offset="0.5" stop-color="#BA8D68" style="stop-color:#BA8D68;stop-color:color(display-p3 0.7294 0.5529 0.4078);stop-opacity:1;"/>
<stop offset="1" stop-color="#A47B62" style="stop-color:#A47B62;stop-color:color(display-p3 0.6431 0.4824 0.3843);stop-opacity:1;"/>
</linearGradient>
</defs>
</svg>
