<svg width="128" height="128" viewBox="0 0 128 128" fill="none" xmlns="http://www.w3.org/2000/svg">
<path d="M63.6001 7C91.5001 7 121.6 24.5 121.6 62.9C121.6 101.3 91.5001 118.8 63.6001 118.8C48.1001 118.8 33.8001 113.7 23.2001 104.4C11.7001 94.2 5.6001 79.8 5.6001 62.9C5.6001 46 11.7001 31.7 23.2001 21.5C33.8001 12.2 48.2001 7 63.6001 7Z" fill="url(#paint0_radial_169_13617)" style=""/>
<path d="M63.6001 7C91.5001 7 121.6 24.5 121.6 62.9C121.6 101.3 91.5001 118.8 63.6001 118.8C48.1001 118.8 33.8001 113.7 23.2001 104.4C11.7001 94.2 5.6001 79.8 5.6001 62.9C5.6001 46 11.7001 31.7 23.2001 21.5C33.8001 12.2 48.2001 7 63.6001 7Z" fill="url(#paint1_radial_169_13617)" style=""/>
<path d="M63.6001 7C91.5001 7 121.6 24.5 121.6 62.9C121.6 101.3 91.5001 118.8 63.6001 118.8C48.1001 118.8 33.8001 113.7 23.2001 104.4C11.7001 94.2 5.6001 79.8 5.6001 62.9C5.6001 46 11.7001 31.7 23.2001 21.5C33.8001 12.2 48.2001 7 63.6001 7Z" fill="url(#paint2_radial_169_13617)" style=""/>
<path d="M63.6001 7C91.5001 7 121.6 24.5 121.6 62.9C121.6 101.3 91.5001 118.8 63.6001 118.8C48.1001 118.8 33.8001 113.7 23.2001 104.4C11.7001 94.2 5.6001 79.8 5.6001 62.9C5.6001 46 11.7001 31.7 23.2001 21.5C33.8001 12.2 48.2001 7 63.6001 7Z" fill="url(#paint3_radial_169_13617)" style=""/>
<path d="M83.1597 84.86C87.3497 84.86 91.1597 81.32 91.1597 75.44C91.1597 69.57 87.3497 66.02 83.1597 66.02C78.9697 66.02 75.1597 69.56 75.1597 75.44C75.1597 81.32 78.9597 84.86 83.1597 84.86Z" fill="#49362E" style="fill:#49362E;fill:color(display-p3 0.2863 0.2118 0.1804);fill-opacity:1;"/>
<path d="M83.1597 84.86C87.3497 84.86 91.1597 81.32 91.1597 75.44C91.1597 69.57 87.3497 66.02 83.1597 66.02C78.9697 66.02 75.1597 69.56 75.1597 75.44C75.1597 81.32 78.9597 84.86 83.1597 84.86Z" fill="#1A1717" style="fill:#1A1717;fill:color(display-p3 0.1020 0.0902 0.0902);fill-opacity:1;"/>
<path d="M83.1597 84.86C87.3497 84.86 91.1597 81.32 91.1597 75.44C91.1597 69.57 87.3497 66.02 83.1597 66.02C78.9697 66.02 75.1597 69.56 75.1597 75.44C75.1597 81.32 78.9597 84.86 83.1597 84.86Z" fill="#49362E" style="fill:#49362E;fill:color(display-p3 0.2863 0.2118 0.1804);fill-opacity:1;"/>
<path d="M83.5499 80.93C84.5799 81.65 86.1299 81.42 87.1299 79.98C88.1299 78.53 87.7999 77.01 86.7699 76.29C85.7399 75.57 84.1899 75.8 83.1899 77.24C82.1899 78.68 82.5099 80.21 83.5499 80.93Z" fill="#896024" style="fill:#896024;fill:color(display-p3 0.5373 0.3765 0.1412);fill-opacity:1;"/>
<path d="M83.5499 80.93C84.5799 81.65 86.1299 81.42 87.1299 79.98C88.1299 78.53 87.7999 77.01 86.7699 76.29C85.7399 75.57 84.1899 75.8 83.1899 77.24C82.1899 78.68 82.5099 80.21 83.5499 80.93Z" fill="#555050" style="fill:#555050;fill:color(display-p3 0.3333 0.3125 0.3125);fill-opacity:1;"/>
<path d="M83.5499 80.93C84.5799 81.65 86.1299 81.42 87.1299 79.98C88.1299 78.53 87.7999 77.01 86.7699 76.29C85.7399 75.57 84.1899 75.8 83.1899 77.24C82.1899 78.68 82.5099 80.21 83.5499 80.93Z" fill="#6A564E" style="fill:#6A564E;fill:color(display-p3 0.4167 0.3385 0.3056);fill-opacity:1;"/>
<path d="M44.7998 84.86C48.9898 84.86 52.7998 81.32 52.7998 75.44C52.7998 69.57 48.9898 66.02 44.7998 66.02C40.6098 66.02 36.7998 69.56 36.7998 75.44C36.7998 81.32 40.6098 84.86 44.7998 84.86Z" fill="#49362E" style="fill:#49362E;fill:color(display-p3 0.2863 0.2118 0.1804);fill-opacity:1;"/>
<path d="M44.7998 84.86C48.9898 84.86 52.7998 81.32 52.7998 75.44C52.7998 69.57 48.9898 66.02 44.7998 66.02C40.6098 66.02 36.7998 69.56 36.7998 75.44C36.7998 81.32 40.6098 84.86 44.7998 84.86Z" fill="#1A1717" style="fill:#1A1717;fill:color(display-p3 0.1020 0.0902 0.0902);fill-opacity:1;"/>
<path d="M44.7998 84.86C48.9898 84.86 52.7998 81.32 52.7998 75.44C52.7998 69.57 48.9898 66.02 44.7998 66.02C40.6098 66.02 36.7998 69.56 36.7998 75.44C36.7998 81.32 40.6098 84.86 44.7998 84.86Z" fill="#49362E" style="fill:#49362E;fill:color(display-p3 0.2863 0.2118 0.1804);fill-opacity:1;"/>
<path d="M45.1899 80.93C46.2199 81.65 47.7699 81.42 48.7699 79.98C49.7699 78.54 49.4399 77.01 48.4099 76.29C47.3799 75.57 45.8299 75.8 44.8299 77.24C43.8299 78.68 44.1599 80.21 45.1899 80.93Z" fill="#896024" style="fill:#896024;fill:color(display-p3 0.5373 0.3765 0.1412);fill-opacity:1;"/>
<path d="M45.1899 80.93C46.2199 81.65 47.7699 81.42 48.7699 79.98C49.7699 78.54 49.4399 77.01 48.4099 76.29C47.3799 75.57 45.8299 75.8 44.8299 77.24C43.8299 78.68 44.1599 80.21 45.1899 80.93Z" fill="#555050" style="fill:#555050;fill:color(display-p3 0.3333 0.3125 0.3125);fill-opacity:1;"/>
<path d="M45.1899 80.93C46.2199 81.65 47.7699 81.42 48.7699 79.98C49.7699 78.54 49.4399 77.01 48.4099 76.29C47.3799 75.57 45.8299 75.8 44.8299 77.24C43.8299 78.68 44.1599 80.21 45.1899 80.93Z" fill="#6A564E" style="fill:#6A564E;fill:color(display-p3 0.4167 0.3385 0.3056);fill-opacity:1;"/>
<path d="M64.18 34.1899C74.87 34.1899 83.33 39.2599 88 44.6699C88.47 45.2099 88.58 45.9499 88.28 46.5899C87.98 47.2399 87.34 47.6699 86.63 47.6699C86.31 47.6699 86 47.5799 85.71 47.4199C80.9 44.6499 72.83 41.2099 64.2 41.2099H64.06C55.43 41.2099 47.36 44.6399 42.55 47.4199C42.26 47.5799 41.95 47.6699 41.63 47.6699C40.93 47.6699 40.28 47.2399 39.98 46.5899C39.69 45.9499 39.8 45.2099 40.26 44.6699C44.93 39.2499 53.39 34.1899 64.08 34.1899" fill="#49362E" style="fill:#49362E;fill:color(display-p3 0.2863 0.2118 0.1804);fill-opacity:1;"/>
<path d="M64.18 34.1899C74.87 34.1899 83.33 39.2599 88 44.6699C88.47 45.2099 88.58 45.9499 88.28 46.5899C87.98 47.2399 87.34 47.6699 86.63 47.6699C86.31 47.6699 86 47.5799 85.71 47.4199C80.9 44.6499 72.83 41.2099 64.2 41.2099H64.06C55.43 41.2099 47.36 44.6399 42.55 47.4199C42.26 47.5799 41.95 47.6699 41.63 47.6699C40.93 47.6699 40.28 47.2399 39.98 46.5899C39.69 45.9499 39.8 45.2099 40.26 44.6699C44.93 39.2499 53.39 34.1899 64.08 34.1899" fill="#1A1717" style="fill:#1A1717;fill:color(display-p3 0.1020 0.0902 0.0902);fill-opacity:1;"/>
<path d="M64.18 34.1899C74.87 34.1899 83.33 39.2599 88 44.6699C88.47 45.2099 88.58 45.9499 88.28 46.5899C87.98 47.2399 87.34 47.6699 86.63 47.6699C86.31 47.6699 86 47.5799 85.71 47.4199C80.9 44.6499 72.83 41.2099 64.2 41.2099H64.06C55.43 41.2099 47.36 44.6399 42.55 47.4199C42.26 47.5799 41.95 47.6699 41.63 47.6699C40.93 47.6699 40.28 47.2399 39.98 46.5899C39.69 45.9499 39.8 45.2099 40.26 44.6699C44.93 39.2499 53.39 34.1899 64.08 34.1899" fill="#5D4037" style="fill:#5D4037;fill:color(display-p3 0.3647 0.2510 0.2157);fill-opacity:1;"/>
<path d="M111.49 29.67C116.82 38.27 119.6 48.51 119.6 59.9C119.6 76.8 113.5 91.1 102 101.3C91.3999 110.6 76.9999 115.8 61.5999 115.8C43.5399 115.8 24.5599 108.45 13.4199 92.86C24.1799 110.52 44.4099 118.8 63.5999 118.8C78.9999 118.8 93.3999 113.6 104 104.3C115.5 94.1001 121.6 79.8 121.6 62.9C121.6 50.16 118.13 38.84 111.49 29.67Z" fill="#EB8F00" style="fill:#EB8F00;fill:color(display-p3 0.9216 0.5608 0.0000);fill-opacity:1;"/>
<path d="M111.49 29.67C116.82 38.27 119.6 48.51 119.6 59.9C119.6 76.8 113.5 91.1 102 101.3C91.3999 110.6 76.9999 115.8 61.5999 115.8C43.5399 115.8 24.5599 108.45 13.4199 92.86C24.1799 110.52 44.4099 118.8 63.5999 118.8C78.9999 118.8 93.3999 113.6 104 104.3C115.5 94.1001 121.6 79.8 121.6 62.9C121.6 50.16 118.13 38.84 111.49 29.67Z" fill="#F3B872" style="fill:#F3B872;fill:color(display-p3 0.9542 0.7229 0.4453);fill-opacity:1;"/>
<path d="M111.49 29.67C116.82 38.27 119.6 48.51 119.6 59.9C119.6 76.8 113.5 91.1 102 101.3C91.3999 110.6 76.9999 115.8 61.5999 115.8C43.5399 115.8 24.5599 108.45 13.4199 92.86C24.1799 110.52 44.4099 118.8 63.5999 118.8C78.9999 118.8 93.3999 113.6 104 104.3C115.5 94.1001 121.6 79.8 121.6 62.9C121.6 50.16 118.13 38.84 111.49 29.67Z" fill="#91674D" style="fill:#91674D;fill:color(display-p3 0.5686 0.4039 0.3020);fill-opacity:1;"/>
<defs>
<radialGradient id="paint0_radial_169_13617" cx="0" cy="0" r="1" gradientUnits="userSpaceOnUse" gradientTransform="translate(63.6001 62.9) rotate(180) scale(56.9597 56.9597)">
<stop offset="0.5" stop-color="#FDE030" style="stop-color:#FDE030;stop-color:color(display-p3 0.9922 0.8784 0.1882);stop-opacity:1;"/>
<stop offset="0.9188" stop-color="#F7C02B" style="stop-color:#F7C02B;stop-color:color(display-p3 0.9686 0.7529 0.1686);stop-opacity:1;"/>
<stop offset="1" stop-color="#F4A223" style="stop-color:#F4A223;stop-color:color(display-p3 0.9569 0.6353 0.1373);stop-opacity:1;"/>
</radialGradient>
<radialGradient id="paint1_radial_169_13617" cx="0" cy="0" r="1" gradientUnits="userSpaceOnUse" gradientTransform="translate(38.5991 34.5377) rotate(-43.2082) scale(102.024 101.825)">
<stop offset="0.3533" stop-color="#F9DDBD" style="stop-color:#F9DDBD;stop-color:color(display-p3 0.9765 0.8667 0.7412);stop-opacity:1;"/>
<stop offset="0.8723" stop-color="#FFD29C" style="stop-color:#FFD29C;stop-color:color(display-p3 1.0000 0.8235 0.6118);stop-opacity:1;"/>
</radialGradient>
<radialGradient id="paint2_radial_169_13617" cx="0" cy="0" r="1" gradientUnits="userSpaceOnUse" gradientTransform="translate(38.5991 34.5377) rotate(-43.2082) scale(102.024 101.825)">
<stop offset="0.3533" stop-color="#70534A" style="stop-color:#70534A;stop-color:color(display-p3 0.4392 0.3255 0.2902);stop-opacity:1;"/>
<stop offset="0.8723" stop-color="#5C4037" style="stop-color:#5C4037;stop-color:color(display-p3 0.3608 0.2510 0.2157);stop-opacity:1;"/>
</radialGradient>
<radialGradient id="paint3_radial_169_13617" cx="0" cy="0" r="1" gradientUnits="userSpaceOnUse" gradientTransform="translate(38.5991 34.5377) rotate(-43.2082) scale(102.024 101.825)">
<stop offset="0.3533" stop-color="#AD8264" style="stop-color:#AD8264;stop-color:color(display-p3 0.6784 0.5098 0.3922);stop-opacity:1;"/>
<stop offset="0.8723" stop-color="#A47B62" style="stop-color:#A47B62;stop-color:color(display-p3 0.6431 0.4824 0.3843);stop-opacity:1;"/>
</radialGradient>
</defs>
</svg>
