<svg width="128" height="128" viewBox="0 0 128 128" fill="none" xmlns="http://www.w3.org/2000/svg">
<path d="M63.6001 118.8C35.7001 118.8 5.6001 101.3 5.6001 62.9C5.6001 24.5 35.7001 7 63.6001 7C79.1001 7 93.4001 12.1 104 21.4C115.5 31.6 121.6 46 121.6 62.9C121.6 79.8 115.5 94.1 104 104.3C93.4001 113.6 79.0001 118.8 63.6001 118.8Z" fill="url(#paint0_radial_169_4831)" style=""/>
<path d="M63.6001 118.8C35.7001 118.8 5.6001 101.3 5.6001 62.9C5.6001 24.5 35.7001 7 63.6001 7C79.1001 7 93.4001 12.1 104 21.4C115.5 31.6 121.6 46 121.6 62.9C121.6 79.8 115.5 94.1 104 104.3C93.4001 113.6 79.0001 118.8 63.6001 118.8Z" fill="url(#paint1_radial_169_4831)" style=""/>
<path d="M111.49 29.67C116.82 38.27 119.6 48.51 119.6 59.9C119.6 76.8 113.5 91.1 102 101.3C91.4002 110.6 77.0002 115.8 61.6002 115.8C43.5402 115.8 24.6002 108.45 13.4202 92.86C24.1802 110.52 44.4202 118.8 63.6002 118.8C79.0002 118.8 93.4002 113.6 104 104.3C115.5 94.1001 121.6 79.8 121.6 62.9C121.6 50.16 118.13 38.84 111.49 29.67Z" fill="#EB8F00" style="fill:#EB8F00;fill:color(display-p3 0.9216 0.5608 0.0000);fill-opacity:1;"/>
<path d="M111.49 29.67C116.82 38.27 119.6 48.51 119.6 59.9C119.6 76.8 113.5 91.1 102 101.3C91.4002 110.6 77.0002 115.8 61.6002 115.8C43.5402 115.8 24.6002 108.45 13.4202 92.86C24.1802 110.52 44.4202 118.8 63.6002 118.8C79.0002 118.8 93.4002 113.6 104 104.3C115.5 94.1001 121.6 79.8 121.6 62.9C121.6 50.16 118.13 38.84 111.49 29.67Z" fill="#F3B872" style="fill:#F3B872;fill:color(display-p3 0.9542 0.7229 0.4453);fill-opacity:1;"/>
<path d="M63.9998 97.31C50.7498 97.31 41.2898 89.5 38.4498 85.17C37.3798 83.78 37.1498 81.91 37.8698 80.31C38.4198 79.29 39.4898 78.66 40.6498 78.69C41.0698 78.69 41.4998 78.76 41.8998 78.89C48.5798 81 54.4198 84 63.9998 84C73.5798 84 79.4398 81 86.0998 78.87C86.4998 78.74 86.9298 78.67 87.3498 78.67C88.5098 78.64 89.5798 79.27 90.1298 80.29C90.8498 81.89 90.6198 83.76 89.5498 85.15C86.7098 89.5 77.2498 97.31 63.9998 97.31Z" fill="#312D2D" style="fill:#312D2D;fill:color(display-p3 0.1922 0.1765 0.1765);fill-opacity:1;"/>
<path d="M63.9998 97.31C50.7498 97.31 41.2898 89.5 38.4498 85.17C37.3798 83.78 37.1498 81.91 37.8698 80.31C38.4198 79.29 39.4898 78.66 40.6498 78.69C41.0698 78.69 41.4998 78.76 41.8998 78.89C48.5798 81 54.4198 84 63.9998 84C73.5798 84 79.4398 81 86.0998 78.87C86.4998 78.74 86.9298 78.67 87.3498 78.67C88.5098 78.64 89.5798 79.27 90.1298 80.29C90.8498 81.89 90.6198 83.76 89.5498 85.15C86.7098 89.5 77.2498 97.31 63.9998 97.31Z" fill="#312D2D" style="fill:#312D2D;fill:color(display-p3 0.1922 0.1765 0.1765);fill-opacity:1;"/>
<path d="M82.3397 110.1C81.3397 105.46 79.7597 101.04 80.1397 98.1C80.8797 92.4 84.3097 90.43 84.3097 90.43C82.5397 90 80.6797 90.21 79.0497 91.03C75.7697 92.53 77.1897 93.29 72.1397 94.33C67.8897 95.21 65.4397 93.02 60.5897 93.86C56.2597 94.62 55.1797 96.08 55.1797 96.08C57.5597 96.83 60.0197 97.34 62.4997 97.61C70.4997 98.56 69.4997 105.61 68.9297 108.61C67.7897 114.42 66.2497 124.54 75.7997 124.17C82.7297 123.93 83.7097 116.72 82.3397 110.1Z" fill="url(#paint2_linear_169_4831)" style=""/>
<path d="M29.9099 58.48C28.5499 57.19 28.4899 55.04 29.7799 53.67C29.9699 53.47 30.1799 53.29 30.4099 53.15C33.3399 51 36.6099 49.37 40.0899 48.34C43.6099 47.46 47.2499 47.19 50.8599 47.55C52.7399 47.63 54.2099 49.21 54.1299 51.09C54.1199 51.36 54.0799 51.63 53.9999 51.9C53.4299 53.63 51.7399 54.74 49.9299 54.57C47.2499 54.28 44.5499 54.46 41.9299 55.09C39.3599 55.88 36.9299 57.11 34.7699 58.71C33.2999 59.78 31.2799 59.69 29.9099 58.48Z" fill="#312D2D" style="fill:#312D2D;fill:color(display-p3 0.1922 0.1765 0.1765);fill-opacity:1;"/>
<path d="M29.9099 58.48C28.5499 57.19 28.4899 55.04 29.7799 53.67C29.9699 53.47 30.1799 53.29 30.4099 53.15C33.3399 51 36.6099 49.37 40.0899 48.34C43.6099 47.46 47.2499 47.19 50.8599 47.55C52.7399 47.63 54.2099 49.21 54.1299 51.09C54.1199 51.36 54.0799 51.63 53.9999 51.9C53.4299 53.63 51.7399 54.74 49.9299 54.57C47.2499 54.28 44.5499 54.46 41.9299 55.09C39.3599 55.88 36.9299 57.11 34.7699 58.71C33.2999 59.78 31.2799 59.69 29.9099 58.48Z" fill="#312D2D" style="fill:#312D2D;fill:color(display-p3 0.1922 0.1765 0.1765);fill-opacity:1;"/>
<path d="M98.0898 58.48C99.4498 57.19 99.5098 55.04 98.2198 53.67C98.0298 53.47 97.8198 53.29 97.5898 53.15C94.6598 51 91.3898 49.37 87.9098 48.34C84.3898 47.46 80.7498 47.19 77.1398 47.55C75.2598 47.63 73.7898 49.21 73.8698 51.09C73.8798 51.36 73.9198 51.63 73.9998 51.9C74.5698 53.63 76.2598 54.74 78.0698 54.57C80.7498 54.28 83.4498 54.46 86.0698 55.09C88.6398 55.88 91.0698 57.11 93.2298 58.71C94.6998 59.78 96.7198 59.69 98.0898 58.48Z" fill="#312D2D" style="fill:#312D2D;fill:color(display-p3 0.1922 0.1765 0.1765);fill-opacity:1;"/>
<path d="M98.0898 58.48C99.4498 57.19 99.5098 55.04 98.2198 53.67C98.0298 53.47 97.8198 53.29 97.5898 53.15C94.6598 51 91.3898 49.37 87.9098 48.34C84.3898 47.46 80.7498 47.19 77.1398 47.55C75.2598 47.63 73.7898 49.21 73.8698 51.09C73.8798 51.36 73.9198 51.63 73.9998 51.9C74.5698 53.63 76.2598 54.74 78.0698 54.57C80.7498 54.28 83.4498 54.46 86.0698 55.09C88.6398 55.88 91.0698 57.11 93.2298 58.71C94.6998 59.78 96.7198 59.69 98.0898 58.48Z" fill="#312D2D" style="fill:#312D2D;fill:color(display-p3 0.1922 0.1765 0.1765);fill-opacity:1;"/>
<path d="M79.8799 118.61C78.8099 120.27 76.3899 119.95 76.3899 117.21C76.3899 115.45 76.7499 106.44 78.2499 107.7C80.7099 109.75 81.4099 116.28 79.8799 118.61Z" fill="#81D4FA" style="fill:#81D4FA;fill:color(display-p3 0.5059 0.8314 0.9804);fill-opacity:1;"/>
<path d="M30.3199 40.57C28.9799 42.36 26.0699 41.03 27.0499 38.84C29.3299 34.06 33.3699 30.34 38.3199 28.46C40.1299 27.7 42.0499 27.26 43.9999 27.14C44.9999 26.99 45.9299 27.68 46.0799 28.67C46.2299 29.66 45.5399 30.6 44.5499 30.75H44.4199C38.7399 32.34 33.7699 35.8 30.3199 40.57Z" fill="#312D2D" style="fill:#312D2D;fill:color(display-p3 0.1922 0.1765 0.1765);fill-opacity:1;"/>
<path d="M97.1499 33.44C98.5899 35.15 101.42 33.66 100.32 31.53C97.7699 26.89 93.5299 23.4 88.4799 21.8C86.6399 21.15 84.6999 20.81 82.7399 20.8C81.7199 20.79 80.8999 21.61 80.8899 22.63C80.8899 23.52 81.5199 24.29 82.3999 24.45H82.5299C88.2799 25.71 93.4299 28.87 97.1499 33.44Z" fill="#312D2D" style="fill:#312D2D;fill:color(display-p3 0.1922 0.1765 0.1765);fill-opacity:1;"/>
<defs>
<radialGradient id="paint0_radial_169_4831" cx="0" cy="0" r="1" gradientUnits="userSpaceOnUse" gradientTransform="translate(63.6001 62.8999) scale(56.9597 56.9597)">
<stop offset="0.5" stop-color="#FDE030" style="stop-color:#FDE030;stop-color:color(display-p3 0.9922 0.8784 0.1882);stop-opacity:1;"/>
<stop offset="0.92" stop-color="#F7C02B" style="stop-color:#F7C02B;stop-color:color(display-p3 0.9686 0.7529 0.1686);stop-opacity:1;"/>
<stop offset="1" stop-color="#F4A223" style="stop-color:#F4A223;stop-color:color(display-p3 0.9569 0.6353 0.1373);stop-opacity:1;"/>
</radialGradient>
<radialGradient id="paint1_radial_169_4831" cx="0" cy="0" r="1" gradientUnits="userSpaceOnUse" gradientTransform="translate(38.5991 34.5377) rotate(-43.2082) scale(102.024 101.825)">
<stop offset="0.3533" stop-color="#F9DDBD" style="stop-color:#F9DDBD;stop-color:color(display-p3 0.9765 0.8667 0.7412);stop-opacity:1;"/>
<stop offset="0.8723" stop-color="#FFD29C" style="stop-color:#FFD29C;stop-color:color(display-p3 1.0000 0.8235 0.6118);stop-opacity:1;"/>
</radialGradient>
<linearGradient id="paint2_linear_169_4831" x1="69.7447" y1="124.18" x2="69.7447" y2="90.2141" gradientUnits="userSpaceOnUse">
<stop offset="0.46" stop-color="#29B6F6" style="stop-color:#29B6F6;stop-color:color(display-p3 0.1608 0.7137 0.9647);stop-opacity:1;"/>
<stop offset="1" stop-color="#1E88E5" style="stop-color:#1E88E5;stop-color:color(display-p3 0.1176 0.5333 0.8980);stop-opacity:1;"/>
</linearGradient>
</defs>
</svg>
