<svg width="128" height="128" viewBox="0 0 128 128" fill="none" xmlns="http://www.w3.org/2000/svg">
<g opacity="0.2">
<path d="M99.73 7.09009C102.49 7.09009 104.73 9.33009 104.73 12.0901V116.09C104.73 118.85 102.49 121.09 99.73 121.09H27.73C24.97 121.09 22.73 118.85 22.73 116.09V12.0901C22.73 9.33009 24.97 7.09009 27.73 7.09009H99.73ZM99.73 4.09009H27.73C23.31 4.09009 19.73 7.67009 19.73 12.0901V116.09C19.73 120.51 23.31 124.09 27.73 124.09H99.73C104.15 124.09 107.73 120.51 107.73 116.09V12.0901C107.73 7.67009 104.15 4.09009 99.73 4.09009Z" fill="#212121" style="fill:#212121;fill:color(display-p3 0.1294 0.1294 0.1294);fill-opacity:1;"/>
<path d="M99.73 7.09009C102.49 7.09009 104.73 9.33009 104.73 12.0901V116.09C104.73 118.85 102.49 121.09 99.73 121.09H27.73C24.97 121.09 22.73 118.85 22.73 116.09V12.0901C22.73 9.33009 24.97 7.09009 27.73 7.09009H99.73ZM99.73 4.09009H27.73C23.31 4.09009 19.73 7.67009 19.73 12.0901V116.09C19.73 120.51 23.31 124.09 27.73 124.09H99.73C104.15 124.09 107.73 120.51 107.73 116.09V12.0901C107.73 7.67009 104.15 4.09009 99.73 4.09009Z" fill="#212121" style="fill:#212121;fill:color(display-p3 0.1294 0.1294 0.1294);fill-opacity:1;"/>
<path d="M99.73 7.09009C102.49 7.09009 104.73 9.33009 104.73 12.0901V116.09C104.73 118.85 102.49 121.09 99.73 121.09H27.73C24.97 121.09 22.73 118.85 22.73 116.09V12.0901C22.73 9.33009 24.97 7.09009 27.73 7.09009H99.73ZM99.73 4.09009H27.73C23.31 4.09009 19.73 7.67009 19.73 12.0901V116.09C19.73 120.51 23.31 124.09 27.73 124.09H99.73C104.15 124.09 107.73 120.51 107.73 116.09V12.0901C107.73 7.67009 104.15 4.09009 99.73 4.09009Z" fill="#212121" style="fill:#212121;fill:color(display-p3 0.1294 0.1294 0.1294);fill-opacity:1;"/>
</g>
<path d="M102.439 125.43L26.4194 125.06C22.9694 125.06 20.1694 122.26 20.1694 118.81L32.3694 26.6801L102.559 4.5001C108.689 4.1701 109.039 7.0301 109.039 10.4801L108.669 119.17C108.689 122.64 105.889 125.43 102.439 125.43Z" fill="#D9CDC9" style="fill:#D9CDC9;fill:color(display-p3 0.8510 0.8039 0.7882);fill-opacity:1;"/>
<path d="M101.98 122.06C101.98 122.06 44.2195 123.04 25.5095 121.98C21.9295 121.78 20.1795 120.36 20.1695 118.82L19.9995 10.3301C19.9995 6.88008 22.7995 4.08008 26.2495 4.08008L101.89 4.40008C105.34 4.40008 106.65 7.26008 106.65 10.7101L106.08 116.11C106.06 119.56 105.43 122.06 101.98 122.06Z" fill="#F1EDEC" style="fill:#F1EDEC;fill:color(display-p3 0.9451 0.9294 0.9255);fill-opacity:1;"/>
<path d="M42.2668 97.4444C43.0334 96.3333 44.9501 94.6667 46.8668 94.6667C50.3168 94.6667 51.8501 96.8889 51.8501 99.6667C51.8501 102.444 50.3168 104.944 46.8668 104.944C44.9501 104.944 43.8001 103.556 42.6501 102.722C42.2668 102.444 41.8834 102.722 42.2668 103C43.4168 103.833 45.3334 106.056 45.3334 108C45.3334 110.222 43.4168 113 40.3501 113C37.2834 113 35.3668 110.222 35.3668 108C35.3668 106.056 37.2834 103.833 38.4334 103C38.8168 102.722 38.4334 102.444 38.0501 102.722C36.9001 103.556 35.7501 104.944 33.8334 104.944C30.3834 104.944 28.8501 102.444 28.8501 99.6667C28.8501 96.8889 30.3834 94.6667 33.8334 94.6667C35.7501 94.6667 37.6668 96.3333 38.4334 97.4444C38.8168 97.7222 38.8168 97.4444 38.8168 97.1667C38.4334 94.9444 38.4334 94.3889 38.0501 92.7222C37.6668 91.0556 36.5168 88 36.5168 88C38.4334 88.5556 42.2668 88.5556 44.1834 88C44.1834 88 43.0334 91.0556 42.6501 92.7222C42.2668 94.3889 42.2668 94.9444 41.8834 97.1667C41.8834 97.4444 41.8834 97.7222 42.2668 97.4444Z" fill="#212121" style="fill:#212121;fill:color(display-p3 0.1294 0.1294 0.1294);fill-opacity:1;"/>
<path d="M42.2668 97.4444C43.0334 96.3333 44.9501 94.6667 46.8668 94.6667C50.3168 94.6667 51.8501 96.8889 51.8501 99.6667C51.8501 102.444 50.3168 104.944 46.8668 104.944C44.9501 104.944 43.8001 103.556 42.6501 102.722C42.2668 102.444 41.8834 102.722 42.2668 103C43.4168 103.833 45.3334 106.056 45.3334 108C45.3334 110.222 43.4168 113 40.3501 113C37.2834 113 35.3668 110.222 35.3668 108C35.3668 106.056 37.2834 103.833 38.4334 103C38.8168 102.722 38.4334 102.444 38.0501 102.722C36.9001 103.556 35.7501 104.944 33.8334 104.944C30.3834 104.944 28.8501 102.444 28.8501 99.6667C28.8501 96.8889 30.3834 94.6667 33.8334 94.6667C35.7501 94.6667 37.6668 96.3333 38.4334 97.4444C38.8168 97.7222 38.8168 97.4444 38.8168 97.1667C38.4334 94.9444 38.4334 94.3889 38.0501 92.7222C37.6668 91.0556 36.5168 88 36.5168 88C38.4334 88.5556 42.2668 88.5556 44.1834 88C44.1834 88 43.0334 91.0556 42.6501 92.7222C42.2668 94.3889 42.2668 94.9444 41.8834 97.1667C41.8834 97.4444 41.8834 97.7222 42.2668 97.4444Z" fill="#212121" style="fill:#212121;fill:color(display-p3 0.1294 0.1294 0.1294);fill-opacity:1;"/>
<path d="M42.2668 97.4444C43.0334 96.3333 44.9501 94.6667 46.8668 94.6667C50.3168 94.6667 51.8501 96.8889 51.8501 99.6667C51.8501 102.444 50.3168 104.944 46.8668 104.944C44.9501 104.944 43.8001 103.556 42.6501 102.722C42.2668 102.444 41.8834 102.722 42.2668 103C43.4168 103.833 45.3334 106.056 45.3334 108C45.3334 110.222 43.4168 113 40.3501 113C37.2834 113 35.3668 110.222 35.3668 108C35.3668 106.056 37.2834 103.833 38.4334 103C38.8168 102.722 38.4334 102.444 38.0501 102.722C36.9001 103.556 35.7501 104.944 33.8334 104.944C30.3834 104.944 28.8501 102.444 28.8501 99.6667C28.8501 96.8889 30.3834 94.6667 33.8334 94.6667C35.7501 94.6667 37.6668 96.3333 38.4334 97.4444C38.8168 97.7222 38.8168 97.4444 38.8168 97.1667C38.4334 94.9444 38.4334 94.3889 38.0501 92.7222C37.6668 91.0556 36.5168 88 36.5168 88C38.4334 88.5556 42.2668 88.5556 44.1834 88C44.1834 88 43.0334 91.0556 42.6501 92.7222C42.2668 94.3889 42.2668 94.9444 41.8834 97.1667C41.8834 97.4444 41.8834 97.7222 42.2668 97.4444Z" fill="#212121" style="fill:#212121;fill:color(display-p3 0.1294 0.1294 0.1294);fill-opacity:1;"/>
<path d="M85.4167 97.4444C86.1833 96.3333 88.1 94.6667 90.0167 94.6667C93.4667 94.6667 95 96.8889 95 99.6667C95 102.444 93.4667 104.944 90.0167 104.944C88.1 104.944 86.95 103.556 85.8 102.722C85.4167 102.444 85.0333 102.722 85.4167 103C86.5667 103.833 88.4833 106.056 88.4833 108C88.4833 110.222 86.5667 113 83.5 113C80.4333 113 78.5167 110.222 78.5167 108C78.5167 106.056 80.4333 103.833 81.5833 103C81.9667 102.722 81.5833 102.444 81.2 102.722C80.05 103.556 78.9 104.944 76.9833 104.944C73.5333 104.944 72 102.444 72 99.6667C72 96.8889 73.5333 94.6667 76.9833 94.6667C78.9 94.6667 80.8167 96.3333 81.5833 97.4444C81.9667 97.7222 81.9667 97.4444 81.9667 97.1667C81.5833 94.9444 81.5833 94.3889 81.2 92.7222C80.8167 91.0556 79.6667 88 79.6667 88C81.5833 88.5556 85.4167 88.5556 87.3333 88C87.3333 88 86.1833 91.0556 85.8 92.7222C85.4167 94.3889 85.4167 94.9444 85.0333 97.1667C85.0333 97.4444 85.0333 97.7222 85.4167 97.4444Z" fill="#212121" style="fill:#212121;fill:color(display-p3 0.1294 0.1294 0.1294);fill-opacity:1;"/>
<path d="M85.4167 97.4444C86.1833 96.3333 88.1 94.6667 90.0167 94.6667C93.4667 94.6667 95 96.8889 95 99.6667C95 102.444 93.4667 104.944 90.0167 104.944C88.1 104.944 86.95 103.556 85.8 102.722C85.4167 102.444 85.0333 102.722 85.4167 103C86.5667 103.833 88.4833 106.056 88.4833 108C88.4833 110.222 86.5667 113 83.5 113C80.4333 113 78.5167 110.222 78.5167 108C78.5167 106.056 80.4333 103.833 81.5833 103C81.9667 102.722 81.5833 102.444 81.2 102.722C80.05 103.556 78.9 104.944 76.9833 104.944C73.5333 104.944 72 102.444 72 99.6667C72 96.8889 73.5333 94.6667 76.9833 94.6667C78.9 94.6667 80.8167 96.3333 81.5833 97.4444C81.9667 97.7222 81.9667 97.4444 81.9667 97.1667C81.5833 94.9444 81.5833 94.3889 81.2 92.7222C80.8167 91.0556 79.6667 88 79.6667 88C81.5833 88.5556 85.4167 88.5556 87.3333 88C87.3333 88 86.1833 91.0556 85.8 92.7222C85.4167 94.3889 85.4167 94.9444 85.0333 97.1667C85.0333 97.4444 85.0333 97.7222 85.4167 97.4444Z" fill="#212121" style="fill:#212121;fill:color(display-p3 0.1294 0.1294 0.1294);fill-opacity:1;"/>
<path d="M85.4167 97.4444C86.1833 96.3333 88.1 94.6667 90.0167 94.6667C93.4667 94.6667 95 96.8889 95 99.6667C95 102.444 93.4667 104.944 90.0167 104.944C88.1 104.944 86.95 103.556 85.8 102.722C85.4167 102.444 85.0333 102.722 85.4167 103C86.5667 103.833 88.4833 106.056 88.4833 108C88.4833 110.222 86.5667 113 83.5 113C80.4333 113 78.5167 110.222 78.5167 108C78.5167 106.056 80.4333 103.833 81.5833 103C81.9667 102.722 81.5833 102.444 81.2 102.722C80.05 103.556 78.9 104.944 76.9833 104.944C73.5333 104.944 72 102.444 72 99.6667C72 96.8889 73.5333 94.6667 76.9833 94.6667C78.9 94.6667 80.8167 96.3333 81.5833 97.4444C81.9667 97.7222 81.9667 97.4444 81.9667 97.1667C81.5833 94.9444 81.5833 94.3889 81.2 92.7222C80.8167 91.0556 79.6667 88 79.6667 88C81.5833 88.5556 85.4167 88.5556 87.3333 88C87.3333 88 86.1833 91.0556 85.8 92.7222C85.4167 94.3889 85.4167 94.9444 85.0333 97.1667C85.0333 97.4444 85.0333 97.7222 85.4167 97.4444Z" fill="#212121" style="fill:#212121;fill:color(display-p3 0.1294 0.1294 0.1294);fill-opacity:1;"/>
<path d="M42.4167 33.5556C43.1833 34.6667 45.1 36.3333 47.0167 36.3333C50.4667 36.3333 52 34.1111 52 31.3333C52 28.5556 50.4667 26.0556 47.0167 26.0556C45.1 26.0556 43.95 27.4444 42.8 28.2778C42.4167 28.5556 42.0333 28.2778 42.4167 28C43.5667 27.1667 45.4833 24.9444 45.4833 23C45.4833 20.7778 43.5667 18 40.5 18C37.4333 18 35.5167 20.7778 35.5167 23C35.5167 24.9444 37.4333 27.1667 38.5833 28C38.9667 28.2778 38.5833 28.5556 38.2 28.2778C37.05 27.4444 35.9 26.0556 33.9833 26.0556C30.5333 26.0556 29 28.5556 29 31.3333C29 34.1111 30.5333 36.3333 33.9833 36.3333C35.9 36.3333 37.8167 34.6667 38.5833 33.5556C38.9667 33.2778 38.9667 33.5556 38.9667 33.8333C38.5833 36.0556 38.5833 36.6111 38.2 38.2778C37.8167 39.9444 36.6667 43 36.6667 43C38.5833 42.4444 42.4167 42.4444 44.3333 43C44.3333 43 43.1833 39.9444 42.8 38.2778C42.4167 36.6111 42.4167 36.0556 42.0333 33.8333C42.0333 33.5556 42.0333 33.2778 42.4167 33.5556Z" fill="#212121" style="fill:#212121;fill:color(display-p3 0.1294 0.1294 0.1294);fill-opacity:1;"/>
<path d="M42.4167 33.5556C43.1833 34.6667 45.1 36.3333 47.0167 36.3333C50.4667 36.3333 52 34.1111 52 31.3333C52 28.5556 50.4667 26.0556 47.0167 26.0556C45.1 26.0556 43.95 27.4444 42.8 28.2778C42.4167 28.5556 42.0333 28.2778 42.4167 28C43.5667 27.1667 45.4833 24.9444 45.4833 23C45.4833 20.7778 43.5667 18 40.5 18C37.4333 18 35.5167 20.7778 35.5167 23C35.5167 24.9444 37.4333 27.1667 38.5833 28C38.9667 28.2778 38.5833 28.5556 38.2 28.2778C37.05 27.4444 35.9 26.0556 33.9833 26.0556C30.5333 26.0556 29 28.5556 29 31.3333C29 34.1111 30.5333 36.3333 33.9833 36.3333C35.9 36.3333 37.8167 34.6667 38.5833 33.5556C38.9667 33.2778 38.9667 33.5556 38.9667 33.8333C38.5833 36.0556 38.5833 36.6111 38.2 38.2778C37.8167 39.9444 36.6667 43 36.6667 43C38.5833 42.4444 42.4167 42.4444 44.3333 43C44.3333 43 43.1833 39.9444 42.8 38.2778C42.4167 36.6111 42.4167 36.0556 42.0333 33.8333C42.0333 33.5556 42.0333 33.2778 42.4167 33.5556Z" fill="#212121" style="fill:#212121;fill:color(display-p3 0.1294 0.1294 0.1294);fill-opacity:1;"/>
<path d="M42.4167 33.5556C43.1833 34.6667 45.1 36.3333 47.0167 36.3333C50.4667 36.3333 52 34.1111 52 31.3333C52 28.5556 50.4667 26.0556 47.0167 26.0556C45.1 26.0556 43.95 27.4444 42.8 28.2778C42.4167 28.5556 42.0333 28.2778 42.4167 28C43.5667 27.1667 45.4833 24.9444 45.4833 23C45.4833 20.7778 43.5667 18 40.5 18C37.4333 18 35.5167 20.7778 35.5167 23C35.5167 24.9444 37.4333 27.1667 38.5833 28C38.9667 28.2778 38.5833 28.5556 38.2 28.2778C37.05 27.4444 35.9 26.0556 33.9833 26.0556C30.5333 26.0556 29 28.5556 29 31.3333C29 34.1111 30.5333 36.3333 33.9833 36.3333C35.9 36.3333 37.8167 34.6667 38.5833 33.5556C38.9667 33.2778 38.9667 33.5556 38.9667 33.8333C38.5833 36.0556 38.5833 36.6111 38.2 38.2778C37.8167 39.9444 36.6667 43 36.6667 43C38.5833 42.4444 42.4167 42.4444 44.3333 43C44.3333 43 43.1833 39.9444 42.8 38.2778C42.4167 36.6111 42.4167 36.0556 42.0333 33.8333C42.0333 33.5556 42.0333 33.2778 42.4167 33.5556Z" fill="#212121" style="fill:#212121;fill:color(display-p3 0.1294 0.1294 0.1294);fill-opacity:1;"/>
<path d="M85.4167 33.5556C86.1833 34.6667 88.1 36.3333 90.0167 36.3333C93.4667 36.3333 95 34.1111 95 31.3333C95 28.5556 93.4667 26.0556 90.0167 26.0556C88.1 26.0556 86.95 27.4444 85.8 28.2778C85.4167 28.5556 85.0333 28.2778 85.4167 28C86.5667 27.1667 88.4833 24.9444 88.4833 23C88.4833 20.7778 86.5667 18 83.5 18C80.4333 18 78.5167 20.7778 78.5167 23C78.5167 24.9444 80.4333 27.1667 81.5833 28C81.9667 28.2778 81.5833 28.5556 81.2 28.2778C80.05 27.4444 78.9 26.0556 76.9833 26.0556C73.5333 26.0556 72 28.5556 72 31.3333C72 34.1111 73.5333 36.3333 76.9833 36.3333C78.9 36.3333 80.8167 34.6667 81.5833 33.5556C81.9667 33.2778 81.9667 33.5556 81.9667 33.8333C81.5833 36.0556 81.5833 36.6111 81.2 38.2778C80.8167 39.9444 79.6667 43 79.6667 43C81.5833 42.4444 85.4167 42.4444 87.3333 43C87.3333 43 86.1833 39.9444 85.8 38.2778C85.4167 36.6111 85.4167 36.0556 85.0333 33.8333C85.0333 33.5556 85.0333 33.2778 85.4167 33.5556Z" fill="#212121" style="fill:#212121;fill:color(display-p3 0.1294 0.1294 0.1294);fill-opacity:1;"/>
<path d="M85.4167 33.5556C86.1833 34.6667 88.1 36.3333 90.0167 36.3333C93.4667 36.3333 95 34.1111 95 31.3333C95 28.5556 93.4667 26.0556 90.0167 26.0556C88.1 26.0556 86.95 27.4444 85.8 28.2778C85.4167 28.5556 85.0333 28.2778 85.4167 28C86.5667 27.1667 88.4833 24.9444 88.4833 23C88.4833 20.7778 86.5667 18 83.5 18C80.4333 18 78.5167 20.7778 78.5167 23C78.5167 24.9444 80.4333 27.1667 81.5833 28C81.9667 28.2778 81.5833 28.5556 81.2 28.2778C80.05 27.4444 78.9 26.0556 76.9833 26.0556C73.5333 26.0556 72 28.5556 72 31.3333C72 34.1111 73.5333 36.3333 76.9833 36.3333C78.9 36.3333 80.8167 34.6667 81.5833 33.5556C81.9667 33.2778 81.9667 33.5556 81.9667 33.8333C81.5833 36.0556 81.5833 36.6111 81.2 38.2778C80.8167 39.9444 79.6667 43 79.6667 43C81.5833 42.4444 85.4167 42.4444 87.3333 43C87.3333 43 86.1833 39.9444 85.8 38.2778C85.4167 36.6111 85.4167 36.0556 85.0333 33.8333C85.0333 33.5556 85.0333 33.2778 85.4167 33.5556Z" fill="#212121" style="fill:#212121;fill:color(display-p3 0.1294 0.1294 0.1294);fill-opacity:1;"/>
<path d="M85.4167 33.5556C86.1833 34.6667 88.1 36.3333 90.0167 36.3333C93.4667 36.3333 95 34.1111 95 31.3333C95 28.5556 93.4667 26.0556 90.0167 26.0556C88.1 26.0556 86.95 27.4444 85.8 28.2778C85.4167 28.5556 85.0333 28.2778 85.4167 28C86.5667 27.1667 88.4833 24.9444 88.4833 23C88.4833 20.7778 86.5667 18 83.5 18C80.4333 18 78.5167 20.7778 78.5167 23C78.5167 24.9444 80.4333 27.1667 81.5833 28C81.9667 28.2778 81.5833 28.5556 81.2 28.2778C80.05 27.4444 78.9 26.0556 76.9833 26.0556C73.5333 26.0556 72 28.5556 72 31.3333C72 34.1111 73.5333 36.3333 76.9833 36.3333C78.9 36.3333 80.8167 34.6667 81.5833 33.5556C81.9667 33.2778 81.9667 33.5556 81.9667 33.8333C81.5833 36.0556 81.5833 36.6111 81.2 38.2778C80.8167 39.9444 79.6667 43 79.6667 43C81.5833 42.4444 85.4167 42.4444 87.3333 43C87.3333 43 86.1833 39.9444 85.8 38.2778C85.4167 36.6111 85.4167 36.0556 85.0333 33.8333C85.0333 33.5556 85.0333 33.2778 85.4167 33.5556Z" fill="#212121" style="fill:#212121;fill:color(display-p3 0.1294 0.1294 0.1294);fill-opacity:1;"/>
<path d="M42.4167 67.5556C43.1833 68.6667 45.1 70.3333 47.0167 70.3333C50.4667 70.3333 52 68.1111 52 65.3333C52 62.5556 50.4667 60.0556 47.0167 60.0556C45.1 60.0556 43.95 61.4444 42.8 62.2778C42.4167 62.5556 42.0333 62.2778 42.4167 62C43.5667 61.1667 45.4833 58.9444 45.4833 57C45.4833 54.7778 43.5667 52 40.5 52C37.4333 52 35.5167 54.7778 35.5167 57C35.5167 58.9444 37.4333 61.1667 38.5833 62C38.9667 62.2778 38.5833 62.5556 38.2 62.2778C37.05 61.4444 35.9 60.0556 33.9833 60.0556C30.5333 60.0556 29 62.5556 29 65.3333C29 68.1111 30.5333 70.3333 33.9833 70.3333C35.9 70.3333 37.8167 68.6667 38.5833 67.5556C38.9667 67.2778 38.9667 67.5556 38.9667 67.8333C38.5833 70.0556 38.5833 70.6111 38.2 72.2778C37.8167 73.9444 36.6667 77 36.6667 77C38.5833 76.4444 42.4167 76.4444 44.3333 77C44.3333 77 43.1833 73.9444 42.8 72.2778C42.4167 70.6111 42.4167 70.0556 42.0333 67.8333C42.0333 67.5556 42.0333 67.2778 42.4167 67.5556Z" fill="#212121" style="fill:#212121;fill:color(display-p3 0.1294 0.1294 0.1294);fill-opacity:1;"/>
<path d="M42.4167 67.5556C43.1833 68.6667 45.1 70.3333 47.0167 70.3333C50.4667 70.3333 52 68.1111 52 65.3333C52 62.5556 50.4667 60.0556 47.0167 60.0556C45.1 60.0556 43.95 61.4444 42.8 62.2778C42.4167 62.5556 42.0333 62.2778 42.4167 62C43.5667 61.1667 45.4833 58.9444 45.4833 57C45.4833 54.7778 43.5667 52 40.5 52C37.4333 52 35.5167 54.7778 35.5167 57C35.5167 58.9444 37.4333 61.1667 38.5833 62C38.9667 62.2778 38.5833 62.5556 38.2 62.2778C37.05 61.4444 35.9 60.0556 33.9833 60.0556C30.5333 60.0556 29 62.5556 29 65.3333C29 68.1111 30.5333 70.3333 33.9833 70.3333C35.9 70.3333 37.8167 68.6667 38.5833 67.5556C38.9667 67.2778 38.9667 67.5556 38.9667 67.8333C38.5833 70.0556 38.5833 70.6111 38.2 72.2778C37.8167 73.9444 36.6667 77 36.6667 77C38.5833 76.4444 42.4167 76.4444 44.3333 77C44.3333 77 43.1833 73.9444 42.8 72.2778C42.4167 70.6111 42.4167 70.0556 42.0333 67.8333C42.0333 67.5556 42.0333 67.2778 42.4167 67.5556Z" fill="#212121" style="fill:#212121;fill:color(display-p3 0.1294 0.1294 0.1294);fill-opacity:1;"/>
<path d="M42.4167 67.5556C43.1833 68.6667 45.1 70.3333 47.0167 70.3333C50.4667 70.3333 52 68.1111 52 65.3333C52 62.5556 50.4667 60.0556 47.0167 60.0556C45.1 60.0556 43.95 61.4444 42.8 62.2778C42.4167 62.5556 42.0333 62.2778 42.4167 62C43.5667 61.1667 45.4833 58.9444 45.4833 57C45.4833 54.7778 43.5667 52 40.5 52C37.4333 52 35.5167 54.7778 35.5167 57C35.5167 58.9444 37.4333 61.1667 38.5833 62C38.9667 62.2778 38.5833 62.5556 38.2 62.2778C37.05 61.4444 35.9 60.0556 33.9833 60.0556C30.5333 60.0556 29 62.5556 29 65.3333C29 68.1111 30.5333 70.3333 33.9833 70.3333C35.9 70.3333 37.8167 68.6667 38.5833 67.5556C38.9667 67.2778 38.9667 67.5556 38.9667 67.8333C38.5833 70.0556 38.5833 70.6111 38.2 72.2778C37.8167 73.9444 36.6667 77 36.6667 77C38.5833 76.4444 42.4167 76.4444 44.3333 77C44.3333 77 43.1833 73.9444 42.8 72.2778C42.4167 70.6111 42.4167 70.0556 42.0333 67.8333C42.0333 67.5556 42.0333 67.2778 42.4167 67.5556Z" fill="#212121" style="fill:#212121;fill:color(display-p3 0.1294 0.1294 0.1294);fill-opacity:1;"/>
<path d="M85.4167 67.5556C86.1833 68.6667 88.1 70.3333 90.0167 70.3333C93.4667 70.3333 95 68.1111 95 65.3333C95 62.5556 93.4667 60.0556 90.0167 60.0556C88.1 60.0556 86.95 61.4444 85.8 62.2778C85.4167 62.5556 85.0333 62.2778 85.4167 62C86.5667 61.1667 88.4833 58.9444 88.4833 57C88.4833 54.7778 86.5667 52 83.5 52C80.4333 52 78.5167 54.7778 78.5167 57C78.5167 58.9444 80.4333 61.1667 81.5833 62C81.9667 62.2778 81.5833 62.5556 81.2 62.2778C80.05 61.4444 78.9 60.0556 76.9833 60.0556C73.5333 60.0556 72 62.5556 72 65.3333C72 68.1111 73.5333 70.3333 76.9833 70.3333C78.9 70.3333 80.8167 68.6667 81.5833 67.5556C81.9667 67.2778 81.9667 67.5556 81.9667 67.8333C81.5833 70.0556 81.5833 70.6111 81.2 72.2778C80.8167 73.9444 79.6667 77 79.6667 77C81.5833 76.4444 85.4167 76.4444 87.3333 77C87.3333 77 86.1833 73.9444 85.8 72.2778C85.4167 70.6111 85.4167 70.0556 85.0333 67.8333C85.0333 67.5556 85.0333 67.2778 85.4167 67.5556Z" fill="#212121" style="fill:#212121;fill:color(display-p3 0.1294 0.1294 0.1294);fill-opacity:1;"/>
<path d="M85.4167 67.5556C86.1833 68.6667 88.1 70.3333 90.0167 70.3333C93.4667 70.3333 95 68.1111 95 65.3333C95 62.5556 93.4667 60.0556 90.0167 60.0556C88.1 60.0556 86.95 61.4444 85.8 62.2778C85.4167 62.5556 85.0333 62.2778 85.4167 62C86.5667 61.1667 88.4833 58.9444 88.4833 57C88.4833 54.7778 86.5667 52 83.5 52C80.4333 52 78.5167 54.7778 78.5167 57C78.5167 58.9444 80.4333 61.1667 81.5833 62C81.9667 62.2778 81.5833 62.5556 81.2 62.2778C80.05 61.4444 78.9 60.0556 76.9833 60.0556C73.5333 60.0556 72 62.5556 72 65.3333C72 68.1111 73.5333 70.3333 76.9833 70.3333C78.9 70.3333 80.8167 68.6667 81.5833 67.5556C81.9667 67.2778 81.9667 67.5556 81.9667 67.8333C81.5833 70.0556 81.5833 70.6111 81.2 72.2778C80.8167 73.9444 79.6667 77 79.6667 77C81.5833 76.4444 85.4167 76.4444 87.3333 77C87.3333 77 86.1833 73.9444 85.8 72.2778C85.4167 70.6111 85.4167 70.0556 85.0333 67.8333C85.0333 67.5556 85.0333 67.2778 85.4167 67.5556Z" fill="#212121" style="fill:#212121;fill:color(display-p3 0.1294 0.1294 0.1294);fill-opacity:1;"/>
<path d="M85.4167 67.5556C86.1833 68.6667 88.1 70.3333 90.0167 70.3333C93.4667 70.3333 95 68.1111 95 65.3333C95 62.5556 93.4667 60.0556 90.0167 60.0556C88.1 60.0556 86.95 61.4444 85.8 62.2778C85.4167 62.5556 85.0333 62.2778 85.4167 62C86.5667 61.1667 88.4833 58.9444 88.4833 57C88.4833 54.7778 86.5667 52 83.5 52C80.4333 52 78.5167 54.7778 78.5167 57C78.5167 58.9444 80.4333 61.1667 81.5833 62C81.9667 62.2778 81.5833 62.5556 81.2 62.2778C80.05 61.4444 78.9 60.0556 76.9833 60.0556C73.5333 60.0556 72 62.5556 72 65.3333C72 68.1111 73.5333 70.3333 76.9833 70.3333C78.9 70.3333 80.8167 68.6667 81.5833 67.5556C81.9667 67.2778 81.9667 67.5556 81.9667 67.8333C81.5833 70.0556 81.5833 70.6111 81.2 72.2778C80.8167 73.9444 79.6667 77 79.6667 77C81.5833 76.4444 85.4167 76.4444 87.3333 77C87.3333 77 86.1833 73.9444 85.8 72.2778C85.4167 70.6111 85.4167 70.0556 85.0333 67.8333C85.0333 67.5556 85.0333 67.2778 85.4167 67.5556Z" fill="#212121" style="fill:#212121;fill:color(display-p3 0.1294 0.1294 0.1294);fill-opacity:1;"/>
</svg>
