<svg width="128" height="128" viewBox="0 0 128 128" fill="none" xmlns="http://www.w3.org/2000/svg">
<path d="M63.6 118.8C35.7 118.8 5.59998 101.3 5.59998 62.9C5.59998 24.5 35.7 7 63.6 7C79.1 7 93.4 12.1 104 21.4C115.5 31.6 121.6 46 121.6 62.9C121.6 79.8 115.5 94.1 104 104.3C93.4 113.6 79 118.8 63.6 118.8Z" fill="url(#paint0_radial_169_7325)" style=""/>
<path d="M63.6 118.8C35.7 118.8 5.59998 101.3 5.59998 62.9C5.59998 24.5 35.7 7 63.6 7C79.1 7 93.4 12.1 104 21.4C115.5 31.6 121.6 46 121.6 62.9C121.6 79.8 115.5 94.1 104 104.3C93.4 113.6 79 118.8 63.6 118.8Z" fill="url(#paint1_linear_169_7325)" style=""/>
<path d="M63.6 118.8C35.7 118.8 5.59998 101.3 5.59998 62.9C5.59998 24.5 35.7 7 63.6 7C79.1 7 93.4 12.1 104 21.4C115.5 31.6 121.6 46 121.6 62.9C121.6 79.8 115.5 94.1 104 104.3C93.4 113.6 79 118.8 63.6 118.8Z" fill="url(#paint2_radial_169_7325)" style=""/>
<path d="M63.6 118.8C35.7 118.8 5.59998 101.3 5.59998 62.9C5.59998 24.5 35.7 7 63.6 7C79.1 7 93.4 12.1 104 21.4C115.5 31.6 121.6 46 121.6 62.9C121.6 79.8 115.5 94.1 104 104.3C93.4 113.6 79 118.8 63.6 118.8Z" fill="url(#paint3_radial_169_7325)" style=""/>
<path d="M63.6 118.8C35.7 118.8 5.59998 101.3 5.59998 62.9C5.59998 24.5 35.7 7 63.6 7C79.1 7 93.4 12.1 104 21.4C115.5 31.6 121.6 46 121.6 62.9C121.6 79.8 115.5 94.1 104 104.3C93.4 113.6 79 118.8 63.6 118.8Z" fill="url(#paint4_radial_169_7325)" style=""/>
<path d="M111.49 29.67C116.82 38.27 119.6 48.51 119.6 59.9C119.6 76.8 113.5 91.1 102 101.3C91.3999 110.6 76.9999 115.8 61.5999 115.8C43.5399 115.8 24.5999 108.45 13.4199 92.86C24.1799 110.52 44.4199 118.8 63.5999 118.8C78.9999 118.8 93.3999 113.6 104 104.3C115.5 94.1001 121.6 79.8 121.6 62.9C121.6 50.16 118.13 38.84 111.49 29.67Z" fill="#EB8F00" style="fill:#EB8F00;fill:color(display-p3 0.9216 0.5608 0.0000);fill-opacity:1;"/>
<path d="M111.49 29.67C116.82 38.27 119.6 48.51 119.6 59.9C119.6 76.8 113.5 91.1 102 101.3C91.3999 110.6 76.9999 115.8 61.5999 115.8C43.5399 115.8 24.5999 108.45 13.4199 92.86C24.1799 110.52 44.4199 118.8 63.5999 118.8C78.9999 118.8 93.3999 113.6 104 104.3C115.5 94.1001 121.6 79.8 121.6 62.9C121.6 50.16 118.13 38.84 111.49 29.67Z" fill="#F3B872" style="fill:#F3B872;fill:color(display-p3 0.9542 0.7229 0.4453);fill-opacity:1;"/>
<path d="M111.49 29.67C116.82 38.27 119.6 48.51 119.6 59.9C119.6 76.8 113.5 91.1 102 101.3C91.3999 110.6 76.9999 115.8 61.5999 115.8C43.5399 115.8 24.5999 108.45 13.4199 92.86C24.1799 110.52 44.4199 118.8 63.5999 118.8C78.9999 118.8 93.3999 113.6 104 104.3C115.5 94.1001 121.6 79.8 121.6 62.9C121.6 50.16 118.13 38.84 111.49 29.67Z" fill="#BA8F63" style="fill:#BA8F63;fill:color(display-p3 0.7294 0.5608 0.3882);fill-opacity:1;"/>
<path opacity="0.8" d="M27.25 85.6599C36.915 85.6599 44.75 77.8249 44.75 68.1599C44.75 58.4949 36.915 50.6599 27.25 50.6599C17.585 50.6599 9.75 58.4949 9.75 68.1599C9.75 77.8249 17.585 85.6599 27.25 85.6599Z" fill="url(#paint5_radial_169_7325)" style=""/>
<path opacity="0.8" d="M100.36 85.6599C110.025 85.6599 117.86 77.8249 117.86 68.1599C117.86 58.4949 110.025 50.6599 100.36 50.6599C90.695 50.6599 82.86 58.4949 82.86 68.1599C82.86 77.8249 90.695 85.6599 100.36 85.6599Z" fill="url(#paint6_radial_169_7325)" style=""/>
<path d="M49.56 49.12L49.41 48.92L49 48.38L48.47 47.8C48.25 47.56 47.99 47.31 47.74 47.05C47.49 46.79 47.18 46.55 46.9 46.33C46.64 46.13 46.36 45.94 46.06 45.79C45.86 45.68 45.64 45.59 45.41 45.54C45.34 45.53 45.27 45.53 45.2 45.54H45.3H44.75C44.6 45.54 44.75 45.54 44.75 45.54H44.83C44.83 45.54 44.91 45.54 44.83 45.54C44.79 45.53 44.76 45.53 44.72 45.54C44.49 45.59 44.27 45.67 44.06 45.79C43.77 45.95 43.48 46.13 43.22 46.33C42.94 46.55 42.65 46.8 42.39 47.05C41.86 47.56 41.39 48.05 41.09 48.44L40.57 49.04L40.34 49.31C38.9 50.92 36.47 51.18 34.72 49.92C33.6 49.14 33.03 47.79 33.25 46.45C33.25 46.45 33.32 46.04 33.51 45.33C33.82 44.32 34.24 43.34 34.76 42.42C35.62 40.92 36.77 39.62 38.14 38.58C39.06 37.87 40.09 37.31 41.19 36.92C41.49 36.8 41.8 36.71 42.11 36.63C42.44 36.54 42.77 36.46 43.11 36.4L43.72 36.31L44.23 36.26H44.78H45.31H45.57H46.08C46.42 36.26 46.75 36.35 47.08 36.4C48.87 36.73 50.56 37.47 52 38.58C53.38 39.62 54.53 40.92 55.38 42.42C55.69 42.94 55.96 43.49 56.18 44.06C56.37 44.5 56.53 44.94 56.66 45.4C56.73 45.64 56.79 45.88 56.82 46.12V46.37C57.12 48.42 55.7 50.32 53.65 50.62C53.6 50.63 53.56 50.63 53.51 50.64C52.02 50.88 50.51 50.3 49.56 49.12Z" fill="#5D4037" style="fill:#5D4037;fill:color(display-p3 0.3647 0.2510 0.2157);fill-opacity:1;"/>
<path d="M87.06 49.12L86.9 48.92L86.47 48.38L85.94 47.8C85.72 47.56 85.46 47.31 85.21 47.05C84.96 46.79 84.65 46.55 84.37 46.33C84.11 46.13 83.83 45.94 83.53 45.79C83.33 45.68 83.11 45.59 82.88 45.54C82.81 45.53 82.74 45.53 82.67 45.54H82.77H82.22C82.07 45.54 82.22 45.54 82.22 45.54H82.3C82.3 45.54 82.38 45.54 82.3 45.54C82.26 45.53 82.23 45.53 82.19 45.54C81.96 45.59 81.74 45.67 81.53 45.79C81.24 45.94 80.96 46.13 80.7 46.33C80.41 46.55 80.13 46.79 79.86 47.05C79.33 47.56 78.86 48.05 78.56 48.44L78 49L77.78 49.27C76.33 50.88 73.91 51.14 72.15 49.88C71.03 49.1 70.46 47.75 70.68 46.41C70.68 46.41 70.75 46 70.95 45.29C71.25 44.27 71.67 43.3 72.2 42.38C73.05 40.88 74.2 39.58 75.57 38.54C76.48 37.84 77.49 37.28 78.57 36.88C78.87 36.76 79.18 36.67 79.49 36.59C79.82 36.5 80.15 36.42 80.49 36.36L81.11 36.27L81.61 36.22H82.16H82.69H82.95H83.46C83.8 36.22 84.13 36.31 84.46 36.36C85.1 36.47 85.74 36.64 86.35 36.87C87.43 37.26 88.44 37.82 89.35 38.53C90.73 39.57 91.88 40.87 92.73 42.37C93.04 42.89 93.31 43.44 93.53 44.01C93.72 44.45 93.88 44.89 94.01 45.35C94.08 45.59 94.14 45.83 94.17 46.07V46.32C94.51 48.36 93.12 50.29 91.08 50.63C91.05 50.63 91.03 50.64 91 50.64C89.51 50.88 88 50.3 87.06 49.12Z" fill="#5D4037" style="fill:#5D4037;fill:color(display-p3 0.3647 0.2510 0.2157);fill-opacity:1;"/>
<path opacity="0.66" d="M79.17 74.9999C79.62 72.9999 79.96 73.9099 80.25 71.9199C80.47 70.4199 82.93 67.0999 82.96 65.5899C82.96 64.4799 83.5 62.7199 82.87 61.8099C80.67 58.6699 76.99 60.1799 75.87 60.5599C72.01 61.8399 68.7001 64.2599 65.12 66.1199C60.57 68.4499 55.74 70.1999 50.75 71.3299C52.89 67.1699 55.59 55.5099 48.69 57.1199C45.54 57.8499 43.49 62.7699 42.77 64.1999C38.86 71.9999 33.43 75.7099 29.21 83.0899C24.99 90.4699 24.83 98.4299 29.5 105.83C31.2 108.67 33.54 111.07 36.34 112.83C39.28 114.55 42.45 113.27 45.21 111.83C52.03 108.34 58.42 104.07 64.26 99.1099C70 94.0599 74.84 87.8599 77.5 80.6999C78.18 78.8399 78.74 76.9299 79.17 74.9999Z" fill="url(#paint7_linear_169_7325)" style=""/>
<path d="M94.8 78.8499C92.58 75.6699 86.8 78.9199 86.8 78.9199C86.8 78.9199 89.8 76.3099 92.3 73.9199C93.9 72.3899 95.3 69.1299 93.99 66.9199C92.68 64.7099 88.87 64.8499 87 65.9999L79.67 70.4999C79.67 70.4999 82.42 69.2999 83.25 64.5799C83.77 62.6699 82.65 60.6999 80.74 60.1799C80.38 60.0799 80.01 60.0399 79.64 60.0599C77.91 60.2099 76.26 60.8499 74.87 61.8999C69.57 65.6599 55.42 75.2499 52.25 74.9999C51.02 74.8999 50.91 74.7099 53.5 69.1699C55.24 65.8499 55.4 61.9199 53.94 58.4699C53.09 56.4699 49.17 55.9199 47.94 57.8499C47.01 59.2699 46.34 62.7499 44.72 66.2499C42 71.9999 35.73 79.7199 35.22 80.4799C31.49 85.9999 24.54 96.2899 31.82 107.83C38.26 118.05 52.96 118.53 60.49 115.83C74.88 110.73 88.13 100.93 88.38 100.73C91 98.6499 93.38 95.5999 92.3 92.8199C90.97 89.3799 86.56 91.4199 86.56 91.4199C89.11 89.8699 91.4 87.9199 93.33 85.6399C95.16 83.2799 96.29 80.9999 94.8 78.8499Z" fill="url(#paint8_radial_169_7325)" style=""/>
<path d="M94.8 78.8499C92.58 75.6699 86.8 78.9199 86.8 78.9199C86.8 78.9199 89.8 76.3099 92.3 73.9199C93.9 72.3899 95.3 69.1299 93.99 66.9199C92.68 64.7099 88.87 64.8499 87 65.9999L79.67 70.4999C79.67 70.4999 82.42 69.2999 83.25 64.5799C83.77 62.6699 82.65 60.6999 80.74 60.1799C80.38 60.0799 80.01 60.0399 79.64 60.0599C77.91 60.2099 76.26 60.8499 74.87 61.8999C69.57 65.6599 55.42 75.2499 52.25 74.9999C51.02 74.8999 50.91 74.7099 53.5 69.1699C55.24 65.8499 55.4 61.9199 53.94 58.4699C53.09 56.4699 49.17 55.9199 47.94 57.8499C47.01 59.2699 46.34 62.7499 44.72 66.2499C42 71.9999 35.73 79.7199 35.22 80.4799C31.49 85.9999 24.54 96.2899 31.82 107.83C38.26 118.05 52.96 118.53 60.49 115.83C74.88 110.73 88.13 100.93 88.38 100.73C91 98.6499 93.38 95.5999 92.3 92.8199C90.97 89.3799 86.56 91.4199 86.56 91.4199C89.11 89.8699 91.4 87.9199 93.33 85.6399C95.16 83.2799 96.29 80.9999 94.8 78.8499Z" fill="url(#paint9_radial_169_7325)" style=""/>
<path d="M94.8 78.8499C92.58 75.6699 86.8 78.9199 86.8 78.9199C86.8 78.9199 89.8 76.3099 92.3 73.9199C93.9 72.3899 95.3 69.1299 93.99 66.9199C92.68 64.7099 88.87 64.8499 87 65.9999L79.67 70.4999C79.67 70.4999 82.42 69.2999 83.25 64.5799C83.77 62.6699 82.65 60.6999 80.74 60.1799C80.38 60.0799 80.01 60.0399 79.64 60.0599C77.91 60.2099 76.26 60.8499 74.87 61.8999C69.57 65.6599 55.42 75.2499 52.25 74.9999C51.02 74.8999 50.91 74.7099 53.5 69.1699C55.24 65.8499 55.4 61.9199 53.94 58.4699C53.09 56.4699 49.17 55.9199 47.94 57.8499C47.01 59.2699 46.34 62.7499 44.72 66.2499C42 71.9999 35.73 79.7199 35.22 80.4799C31.49 85.9999 24.54 96.2899 31.82 107.83C38.26 118.05 52.96 118.53 60.49 115.83C74.88 110.73 88.13 100.93 88.38 100.73C91 98.6499 93.38 95.5999 92.3 92.8199C90.97 89.3799 86.56 91.4199 86.56 91.4199C89.11 89.8699 91.4 87.9199 93.33 85.6399C95.16 83.2799 96.29 80.9999 94.8 78.8499Z" fill="url(#paint10_radial_169_7325)" style=""/>
<path d="M94.8 78.8499C92.58 75.6699 86.8 78.9199 86.8 78.9199C86.8 78.9199 89.8 76.3099 92.3 73.9199C93.9 72.3899 95.3 69.1299 93.99 66.9199C92.68 64.7099 88.87 64.8499 87 65.9999L79.67 70.4999C79.67 70.4999 82.42 69.2999 83.25 64.5799C83.77 62.6699 82.65 60.6999 80.74 60.1799C80.38 60.0799 80.01 60.0399 79.64 60.0599C77.91 60.2099 76.26 60.8499 74.87 61.8999C69.57 65.6599 55.42 75.2499 52.25 74.9999C51.02 74.8999 50.91 74.7099 53.5 69.1699C55.24 65.8499 55.4 61.9199 53.94 58.4699C53.09 56.4699 49.17 55.9199 47.94 57.8499C47.01 59.2699 46.34 62.7499 44.72 66.2499C42 71.9999 35.73 79.7199 35.22 80.4799C31.49 85.9999 24.54 96.2899 31.82 107.83C38.26 118.05 52.96 118.53 60.49 115.83C74.88 110.73 88.13 100.93 88.38 100.73C91 98.6499 93.38 95.5999 92.3 92.8199C90.97 89.3799 86.56 91.4199 86.56 91.4199C89.11 89.8699 91.4 87.9199 93.33 85.6399C95.16 83.2799 96.29 80.9999 94.8 78.8499Z" fill="url(#paint11_radial_169_7325)" style=""/>
<path d="M62.0601 82.2499C61.0601 81.1699 66.0601 79.2499 68.0601 77.7899L74.3201 73.7899C76.3801 72.4599 78.2901 70.9199 80.0301 69.1999C81.8301 67.5499 82.9601 65.2999 83.2001 62.8699C83.4701 64.1499 83.4001 65.4799 83.0001 66.7199C82.5801 67.9699 81.9501 69.1399 81.1201 70.1599C79.4601 72.1199 77.5301 73.8299 75.3801 75.2399C73.3401 76.7199 71.2101 78.0499 68.9901 79.2399C66.7701 80.4099 62.6301 83.3499 62.0601 82.2499Z" fill="#ED6C30" style="fill:#ED6C30;fill:color(display-p3 0.9294 0.4235 0.1882);fill-opacity:1;"/>
<path d="M62.0601 82.2499C61.0601 81.1699 66.0601 79.2499 68.0601 77.7899L74.3201 73.7899C76.3801 72.4599 78.2901 70.9199 80.0301 69.1999C81.8301 67.5499 82.9601 65.2999 83.2001 62.8699C83.4701 64.1499 83.4001 65.4799 83.0001 66.7199C82.5801 67.9699 81.9501 69.1399 81.1201 70.1599C79.4601 72.1199 77.5301 73.8299 75.3801 75.2399C73.3401 76.7199 71.2101 78.0499 68.9901 79.2399C66.7701 80.4099 62.6301 83.3499 62.0601 82.2499Z" fill="#BA8F63" style="fill:#BA8F63;fill:color(display-p3 0.7294 0.5608 0.3882);fill-opacity:1;"/>
<path d="M74.38 97.7499C73.93 97.1299 78.29 95.5999 80.19 94.4799C82.08 93.3799 83.91 92.1899 85.67 90.9099C87.44 89.5999 89.21 88.3299 90.85 86.9099C92.55 85.5099 94.1 83.9399 95.49 82.2399C94.8 84.4399 93.6 86.4499 92 88.1099C90.44 89.7699 88.69 91.2399 86.8 92.5099C85 93.8199 75.4 99.2999 74.38 97.7499Z" fill="#ED6C30" style="fill:#ED6C30;fill:color(display-p3 0.9294 0.4235 0.1882);fill-opacity:1;"/>
<path d="M74.38 97.7499C73.93 97.1299 78.29 95.5999 80.19 94.4799C82.08 93.3799 83.91 92.1899 85.67 90.9099C87.44 89.5999 89.21 88.3299 90.85 86.9099C92.55 85.5099 94.1 83.9399 95.49 82.2399C94.8 84.4399 93.6 86.4499 92 88.1099C90.44 89.7699 88.69 91.2399 86.8 92.5099C85 93.8199 75.4 99.2999 74.38 97.7499Z" fill="#BA8F63" style="fill:#BA8F63;fill:color(display-p3 0.7294 0.5608 0.3882);fill-opacity:1;"/>
<path d="M69.0001 89.9999C68.1501 88.9999 74.0001 86.8299 76.3701 85.2599C78.7401 83.6899 81.1101 82.1999 83.5201 80.5299C85.9001 78.9499 88.1601 77.2099 90.2801 75.3099C91.3101 74.3599 92.2201 73.2899 93.0001 72.1299C93.8101 70.9399 94.3001 69.5599 94.4201 68.1299C94.6701 69.6199 94.4501 71.1599 93.7901 72.5199C93.1601 73.8999 92.3201 75.1699 91.3101 76.2899C90.3401 77.4199 89.2701 78.4599 88.1201 79.4099C86.9901 80.4099 85.8101 81.2599 84.6201 82.1099C82.2701 83.8699 79.7801 85.4299 77.1801 86.7999C74.5401 88.1499 69.8801 91.1499 69.0001 89.9999Z" fill="#ED6C30" style="fill:#ED6C30;fill:color(display-p3 0.9294 0.4235 0.1882);fill-opacity:1;"/>
<path d="M69.0001 89.9999C68.1501 88.9999 74.0001 86.8299 76.3701 85.2599C78.7401 83.6899 81.1101 82.1999 83.5201 80.5299C85.9001 78.9499 88.1601 77.2099 90.2801 75.3099C91.3101 74.3599 92.2201 73.2899 93.0001 72.1299C93.8101 70.9399 94.3001 69.5599 94.4201 68.1299C94.6701 69.6199 94.4501 71.1599 93.7901 72.5199C93.1601 73.8999 92.3201 75.1699 91.3101 76.2899C90.3401 77.4199 89.2701 78.4599 88.1201 79.4099C86.9901 80.4099 85.8101 81.2599 84.6201 82.1099C82.2701 83.8699 79.7801 85.4299 77.1801 86.7999C74.5401 88.1499 69.8801 91.1499 69.0001 89.9999Z" fill="#BA8F63" style="fill:#BA8F63;fill:color(display-p3 0.7294 0.5608 0.3882);fill-opacity:1;"/>
<path d="M38.5801 114C41.1001 114.96 43.7401 115.58 46.4301 115.84C49.0901 116.14 51.7701 116.14 54.4301 115.84C57.0601 115.54 59.6501 114.96 62.1601 114.11C64.6801 113.24 67.1301 112.18 69.4901 110.93C74.3401 108.56 79.1501 106.11 83.7501 103.33C86.0501 101.99 88.2001 100.39 90.1501 98.57C91.1101 97.67 91.8301 96.55 92.2601 95.3C92.6901 94.02 92.4001 92.6 91.5101 91.59C92.5601 92.55 93.0101 94.01 92.6701 95.39C92.3201 96.76 91.6701 98.03 90.7601 99.11C89.8901 100.21 88.9101 101.21 87.8401 102.11C86.7901 103 85.7001 103.84 84.5701 104.62C80.0401 107.68 75.3001 110.41 70.3701 112.77C67.9201 114.05 65.3701 115.12 62.7501 115.98C60.0901 116.8 57.3401 117.3 54.5601 117.46C49.0101 117.84 43.4701 116.64 38.5801 114Z" fill="#ED6C30" style="fill:#ED6C30;fill:color(display-p3 0.9294 0.4235 0.1882);fill-opacity:1;"/>
<path d="M38.5801 114C41.1001 114.96 43.7401 115.58 46.4301 115.84C49.0901 116.14 51.7701 116.14 54.4301 115.84C57.0601 115.54 59.6501 114.96 62.1601 114.11C64.6801 113.24 67.1301 112.18 69.4901 110.93C74.3401 108.56 79.1501 106.11 83.7501 103.33C86.0501 101.99 88.2001 100.39 90.1501 98.57C91.1101 97.67 91.8301 96.55 92.2601 95.3C92.6901 94.02 92.4001 92.6 91.5101 91.59C92.5601 92.55 93.0101 94.01 92.6701 95.39C92.3201 96.76 91.6701 98.03 90.7601 99.11C89.8901 100.21 88.9101 101.21 87.8401 102.11C86.7901 103 85.7001 103.84 84.5701 104.62C80.0401 107.68 75.3001 110.41 70.3701 112.77C67.9201 114.05 65.3701 115.12 62.7501 115.98C60.0901 116.8 57.3401 117.3 54.5601 117.46C49.0101 117.84 43.4701 116.64 38.5801 114Z" fill="#BA8F63" style="fill:#BA8F63;fill:color(display-p3 0.7294 0.5608 0.3882);fill-opacity:1;"/>
<defs>
<radialGradient id="paint0_radial_169_7325" cx="0" cy="0" r="1" gradientUnits="userSpaceOnUse" gradientTransform="translate(63.6 62.9) scale(56.9597 56.9597)">
<stop offset="0.5" stop-color="#FDE030" style="stop-color:#FDE030;stop-color:color(display-p3 0.9922 0.8784 0.1882);stop-opacity:1;"/>
<stop offset="0.92" stop-color="#F7C02B" style="stop-color:#F7C02B;stop-color:color(display-p3 0.9686 0.7529 0.1686);stop-opacity:1;"/>
<stop offset="1" stop-color="#F4A223" style="stop-color:#F4A223;stop-color:color(display-p3 0.9569 0.6353 0.1373);stop-opacity:1;"/>
</radialGradient>
<linearGradient id="paint1_linear_169_7325" x1="63.6" y1="118.8" x2="63.6" y2="7" gradientUnits="userSpaceOnUse">
<stop offset="0.16" stop-color="#F4A223" style="stop-color:#F4A223;stop-color:color(display-p3 0.9569 0.6353 0.1373);stop-opacity:1;"/>
<stop offset="0.33" stop-color="#F7C02B" style="stop-color:#F7C02B;stop-color:color(display-p3 0.9686 0.7529 0.1686);stop-opacity:1;"/>
<stop offset="0.81" stop-color="#FDE030" stop-opacity="0" style="stop-color:none;stop-opacity:0;"/>
</linearGradient>
<radialGradient id="paint2_radial_169_7325" cx="0" cy="0" r="1" gradientUnits="userSpaceOnUse" gradientTransform="translate(52.9999 33.5) rotate(79.6952) scale(61.4919 100.858)">
<stop offset="0.3533" stop-color="#F9DDBD" style="stop-color:#F9DDBD;stop-color:color(display-p3 0.9765 0.8667 0.7412);stop-opacity:1;"/>
<stop offset="0.8723" stop-color="#FECD92" style="stop-color:#FECD92;stop-color:color(display-p3 0.9958 0.8035 0.5726);stop-opacity:1;"/>
</radialGradient>
<radialGradient id="paint3_radial_169_7325" cx="0" cy="0" r="1" gradientUnits="userSpaceOnUse" gradientTransform="translate(38.599 34.5377) rotate(-43.2082) scale(102.024 101.825)">
<stop offset="0.3533" stop-color="#E0BB95" style="stop-color:#E0BB95;stop-color:color(display-p3 0.8784 0.7333 0.5843);stop-opacity:1;"/>
<stop offset="0.8723" stop-color="#CCA47A" style="stop-color:#CCA47A;stop-color:color(display-p3 0.8000 0.6431 0.4784);stop-opacity:1;"/>
</radialGradient>
<radialGradient id="paint4_radial_169_7325" cx="0" cy="0" r="1" gradientUnits="userSpaceOnUse" gradientTransform="translate(38.599 34.5377) rotate(63.6667) scale(73.0419 72.8991)">
<stop offset="0.3533" stop-color="#E0BB95" style="stop-color:#E0BB95;stop-color:color(display-p3 0.8784 0.7333 0.5843);stop-opacity:1;"/>
<stop offset="0.8723" stop-color="#C5996A" style="stop-color:#C5996A;stop-color:color(display-p3 0.7708 0.5985 0.4175);stop-opacity:1;"/>
</radialGradient>
<radialGradient id="paint5_radial_169_7325" cx="0" cy="0" r="1" gradientUnits="userSpaceOnUse" gradientTransform="translate(27.25 68.1599) scale(19.0831 18.1094)">
<stop stop-color="#ED7770" style="stop-color:#ED7770;stop-color:color(display-p3 0.9294 0.4667 0.4392);stop-opacity:1;"/>
<stop offset="0.08" stop-color="#ED7770" stop-opacity="0.96" style="stop-color:#ED7770;stop-color:color(display-p3 0.9294 0.4667 0.4392);stop-opacity:0.96;"/>
<stop offset="0.22" stop-color="#ED7770" stop-opacity="0.85" style="stop-color:#ED7770;stop-color:color(display-p3 0.9294 0.4667 0.4392);stop-opacity:0.85;"/>
<stop offset="0.39" stop-color="#ED7770" stop-opacity="0.68" style="stop-color:#ED7770;stop-color:color(display-p3 0.9294 0.4667 0.4392);stop-opacity:0.68;"/>
<stop offset="0.59" stop-color="#ED7770" stop-opacity="0.43" style="stop-color:#ED7770;stop-color:color(display-p3 0.9294 0.4667 0.4392);stop-opacity:0.43;"/>
<stop offset="0.81" stop-color="#ED7770" stop-opacity="0.13" style="stop-color:#ED7770;stop-color:color(display-p3 0.9294 0.4667 0.4392);stop-opacity:0.13;"/>
<stop offset="0.9" stop-color="#ED7770" stop-opacity="0" style="stop-color:none;stop-opacity:0;"/>
</radialGradient>
<radialGradient id="paint6_radial_169_7325" cx="0" cy="0" r="1" gradientUnits="userSpaceOnUse" gradientTransform="translate(100.357 68.1599) scale(19.0831 18.1094)">
<stop stop-color="#ED7770" style="stop-color:#ED7770;stop-color:color(display-p3 0.9294 0.4667 0.4392);stop-opacity:1;"/>
<stop offset="0.08" stop-color="#ED7770" stop-opacity="0.96" style="stop-color:#ED7770;stop-color:color(display-p3 0.9294 0.4667 0.4392);stop-opacity:0.96;"/>
<stop offset="0.22" stop-color="#ED7770" stop-opacity="0.85" style="stop-color:#ED7770;stop-color:color(display-p3 0.9294 0.4667 0.4392);stop-opacity:0.85;"/>
<stop offset="0.39" stop-color="#ED7770" stop-opacity="0.68" style="stop-color:#ED7770;stop-color:color(display-p3 0.9294 0.4667 0.4392);stop-opacity:0.68;"/>
<stop offset="0.59" stop-color="#ED7770" stop-opacity="0.43" style="stop-color:#ED7770;stop-color:color(display-p3 0.9294 0.4667 0.4392);stop-opacity:0.43;"/>
<stop offset="0.81" stop-color="#ED7770" stop-opacity="0.13" style="stop-color:#ED7770;stop-color:color(display-p3 0.9294 0.4667 0.4392);stop-opacity:0.13;"/>
<stop offset="0.9" stop-color="#ED7770" stop-opacity="0" style="stop-color:none;stop-opacity:0;"/>
</radialGradient>
<linearGradient id="paint7_linear_169_7325" x1="54.5983" y1="127.387" x2="54.5983" y2="65.0623" gradientUnits="userSpaceOnUse">
<stop stop-color="#BD795A" style="stop-color:#BD795A;stop-color:color(display-p3 0.7417 0.4759 0.3523);stop-opacity:1;"/>
<stop offset="1" stop-color="#9E7664" stop-opacity="0.2" style="stop-color:#9E7664;stop-color:color(display-p3 0.6208 0.4637 0.3906);stop-opacity:0.2;"/>
</linearGradient>
<radialGradient id="paint8_radial_169_7325" cx="0" cy="0" r="1" gradientUnits="userSpaceOnUse" gradientTransform="translate(63.06 73.9399) scale(65.06 65.06)">
<stop offset="0.27" stop-color="#FFF176" style="stop-color:#FFF176;stop-color:color(display-p3 1.0000 0.9451 0.4627);stop-opacity:1;"/>
<stop offset="1" stop-color="#FFC400" style="stop-color:#FFC400;stop-color:color(display-p3 1.0000 0.7686 0.0000);stop-opacity:1;"/>
</radialGradient>
<radialGradient id="paint9_radial_169_7325" cx="0" cy="0" r="1" gradientUnits="userSpaceOnUse" gradientTransform="translate(47.6501 71.5746) rotate(-41.4461) scale(57.1781 56.7387)">
<stop offset="0.3533" stop-color="#F9DDBD" style="stop-color:#F9DDBD;stop-color:color(display-p3 0.9765 0.8667 0.7412);stop-opacity:1;"/>
<stop offset="0.8723" stop-color="#FFD29C" style="stop-color:#FFD29C;stop-color:color(display-p3 1.0000 0.8235 0.6118);stop-opacity:1;"/>
</radialGradient>
<radialGradient id="paint10_radial_169_7325" cx="0" cy="0" r="1" gradientUnits="userSpaceOnUse" gradientTransform="translate(47.6501 71.5746) rotate(-28.871) scale(47.7896 47.4224)">
<stop offset="0.3533" stop-color="#E0BB95" style="stop-color:#E0BB95;stop-color:color(display-p3 0.8784 0.7333 0.5843);stop-opacity:1;"/>
<stop offset="0.8723" stop-color="#DEB58A" style="stop-color:#DEB58A;stop-color:color(display-p3 0.8708 0.7098 0.5406);stop-opacity:1;"/>
</radialGradient>
<radialGradient id="paint11_radial_169_7325" cx="0" cy="0" r="1" gradientUnits="userSpaceOnUse" gradientTransform="translate(47.6501 71.5746) rotate(18.6563) scale(71.93 71.3772)">
<stop offset="0.3533" stop-color="#F0D3B4" style="stop-color:#F0D3B4;stop-color:color(display-p3 0.9417 0.8255 0.7063);stop-opacity:1;"/>
<stop offset="0.8723" stop-color="#CCA47A" style="stop-color:#CCA47A;stop-color:color(display-p3 0.8000 0.6431 0.4784);stop-opacity:1;"/>
</radialGradient>
</defs>
</svg>
