<svg width="128" height="128" viewBox="0 0 128 128" fill="none" xmlns="http://www.w3.org/2000/svg">
<g clip-path="url(#clip0_62_79)">
<path d="M124 35.2C122.15 36.32 120.34 37.26 118.57 38.05C116.79 38.85 115.05 39.5 113.33 40.03C111.61 40.56 109.93 40.98 108.27 41.29C106.61 41.61 104.98 41.83 103.38 41.97C101.78 42.11 100.19 42.17 98.63 42.17C97.07 42.17 95.53 42.11 94.01 41.99C92.49 41.87 90.99 41.71 89.51 41.51C88.03 41.3 86.56 41.06 85.11 40.78C83.66 40.5 82.22 40.2 80.79 39.87C79.36 39.54 77.94 39.19 76.54 38.82C75.13 38.45 73.73 38.06 72.33 37.67C70.93 37.28 69.54 36.86 68.16 36.45C66.77 36.04 65.39 35.62 64 35.2C62.62 34.78 61.23 34.36 59.84 33.95C58.45 33.54 57.06 33.13 55.67 32.73C54.27 32.33 52.87 31.95 51.46 31.58C50.05 31.21 48.63 30.86 47.21 30.53C45.79 30.2 44.34 29.89 42.89 29.62C41.44 29.34 39.97 29.1 38.49 28.89C37.01 28.68 35.51 28.52 33.99 28.41C32.47 28.3 30.93 28.23 29.37 28.23C27.81 28.23 26.23 28.29 24.62 28.43C23.01 28.57 21.38 28.79 19.73 29.11C18.07 29.43 16.39 29.84 14.67 30.37C12.95 30.9 11.21 31.55 9.43 32.35C7.66 33.15 5.85 34.09 4 35.2V30.19C4 30.19 4 27.31 4 25.82V20.81C5.85 19.69 7.66 18.75 9.43 17.96C11.2 17.17 12.95 16.51 14.67 15.98C16.39 15.45 18.07 15.03 19.73 14.72C21.39 14.4 23.02 14.18 24.62 14.04C26.23 13.9 27.81 13.84 29.37 13.84C30.93 13.84 32.47 13.9 33.99 14.02C35.51 14.13 37.01 14.3 38.49 14.5C39.97 14.7 41.44 14.95 42.89 15.23C44.34 15.51 45.78 15.81 47.21 16.14C48.64 16.47 50.06 16.82 51.46 17.19C52.87 17.56 54.27 17.95 55.67 18.34C57.07 18.73 58.46 19.15 59.84 19.56C61.22 19.97 62.61 20.39 64 20.81C65.38 21.23 66.77 21.65 68.16 22.06C69.55 22.47 70.94 22.88 72.33 23.28C73.72 23.68 75.13 24.06 76.54 24.43C77.95 24.8 79.37 25.15 80.79 25.48C82.22 25.81 83.66 26.12 85.11 26.39C86.56 26.67 88.03 26.91 89.51 27.12C90.99 27.33 92.49 27.49 94.01 27.6C95.53 27.71 97.07 27.78 98.63 27.78C100.19 27.78 101.77 27.72 103.38 27.58C104.99 27.44 106.62 27.22 108.27 26.9C109.93 26.58 111.61 26.17 113.33 25.64C115.05 25.11 116.79 24.46 118.57 23.66C120.35 22.86 122.16 21.92 124 20.81V25.82V30.19C124 30.19 124 33.28 124 35.2Z" fill="#F8F240" style="fill:#F8F240;fill:color(display-p3 0.9725 0.9490 0.2510);fill-opacity:1;"/>
<path d="M124 42.87C122.15 43.99 120.34 44.93 118.57 45.72C116.79 46.52 115.05 47.17 113.33 47.7C111.61 48.23 109.93 48.65 108.27 48.96C106.61 49.28 104.98 49.5 103.38 49.64C101.78 49.78 100.19 49.84 98.63 49.84C97.07 49.84 95.53 49.78 94.01 49.66C92.49 49.54 90.99 49.38 89.51 49.18C88.03 48.97 86.56 48.73 85.11 48.45C83.66 48.17 82.22 47.87 80.79 47.54C79.36 47.21 77.94 46.86 76.54 46.49C75.13 46.12 73.73 45.73 72.33 45.34C70.93 44.95 69.54 44.53 68.16 44.12C66.77 43.71 65.39 43.29 64 42.87C62.61 42.45 61.23 42.03 59.84 41.62C58.45 41.21 57.06 40.8 55.67 40.4C54.27 40 52.87 39.62 51.46 39.25C50.05 38.88 48.63 38.53 47.21 38.2C45.78 37.87 44.34 37.56 42.89 37.29C41.44 37.01 39.97 36.77 38.49 36.56C37.01 36.35 35.51 36.19 33.99 36.08C32.47 35.97 30.93 35.9 29.37 35.9C27.81 35.9 26.23 35.96 24.62 36.1C23.01 36.24 21.38 36.46 19.73 36.78C18.07 37.1 16.39 37.51 14.67 38.04C12.95 38.57 11.21 39.22 9.43 40.02C7.65 40.82 5.85 41.75 4 42.87V37.86C4 37.86 4 34.98 4 33.49C4 32 4 30.4 4 28.48C5.85 27.36 7.66 26.42 9.43 25.63C11.21 24.83 12.95 24.18 14.67 23.65C16.39 23.12 18.07 22.7 19.73 22.39C21.39 22.07 23.02 21.85 24.62 21.71C26.23 21.57 27.81 21.51 29.37 21.51C30.93 21.51 32.47 21.57 33.99 21.69C35.51 21.8 37.01 21.97 38.49 22.17C39.97 22.37 41.44 22.62 42.89 22.9C44.34 23.18 45.78 23.48 47.21 23.81C48.64 24.14 50.06 24.49 51.46 24.86C52.87 25.23 54.27 25.62 55.67 26.01C57.07 26.41 58.46 26.82 59.84 27.23C61.23 27.64 62.61 28.06 64 28.48C65.38 28.9 66.77 29.32 68.16 29.73C69.55 30.14 70.94 30.55 72.33 30.95C73.72 31.35 75.13 31.73 76.54 32.1C77.95 32.47 79.37 32.82 80.79 33.15C82.22 33.48 83.66 33.79 85.11 34.06C86.56 34.34 88.03 34.58 89.51 34.79C90.99 35 92.49 35.16 94.01 35.27C95.53 35.38 97.07 35.45 98.63 35.45C100.19 35.45 101.77 35.39 103.38 35.25C104.99 35.11 106.62 34.89 108.27 34.57C109.93 34.25 111.61 33.84 113.33 33.31C115.05 32.78 116.79 32.13 118.57 31.33C120.35 30.53 122.16 29.59 124 28.48V33.49C124 33.49 124 36.37 124 37.86C124 39.35 124 40.95 124 42.87Z" fill="#F8F240" style="fill:#F8F240;fill:color(display-p3 0.9725 0.9490 0.2510);fill-opacity:1;"/>
<path d="M124 57.035C122.15 58.1551 120.34 59.095 118.57 59.885C116.79 60.685 115.05 61.3351 113.33 61.8651C111.61 62.3951 109.93 62.815 108.27 63.125C106.61 63.445 104.98 63.665 103.38 63.805C101.78 63.945 100.19 64.0051 98.63 64.0051C97.07 64.0051 95.53 63.9451 94.01 63.8251C92.49 63.705 90.99 63.545 89.51 63.345C88.03 63.135 86.56 62.8951 85.11 62.6151C83.66 62.3351 82.22 62.035 80.79 61.705C79.36 61.375 77.94 61.0251 76.54 60.6551C75.13 60.2851 73.73 59.8951 72.33 59.5051C70.93 59.1151 69.54 58.695 68.16 58.285C66.77 57.875 65.38 57.455 64 57.035C62.62 56.615 61.23 56.195 59.84 55.785C58.45 55.375 57.06 54.965 55.67 54.565C54.27 54.165 52.87 53.7851 51.46 53.4151C50.05 53.045 48.63 52.6951 47.21 52.3651C45.79 52.0351 44.34 51.725 42.89 51.455C41.44 51.175 39.97 50.935 38.49 50.725C37.01 50.515 35.51 50.355 33.99 50.245C32.47 50.135 30.93 50.065 29.37 50.065C27.81 50.065 26.23 50.125 24.62 50.265C23.01 50.405 21.38 50.625 19.73 50.945C18.07 51.265 16.39 51.675 14.67 52.205C12.95 52.735 11.21 53.3851 9.43 54.1851C7.66 54.9751 5.85 55.915 4 57.035V52.0251C4 52.0251 4 49.145 4 47.655V42.6451C5.85 41.5251 7.66 40.585 9.43 39.795C11.2 39.005 12.95 38.345 14.67 37.815C16.39 37.285 18.07 36.865 19.73 36.555C21.39 36.235 23.02 36.015 24.62 35.875C26.23 35.735 27.81 35.675 29.37 35.675C30.93 35.675 32.47 35.735 33.99 35.855C35.51 35.965 37.01 36.135 38.49 36.335C39.97 36.545 41.44 36.785 42.89 37.065C44.34 37.345 45.78 37.645 47.21 37.975C48.64 38.305 50.06 38.6551 51.46 39.0251C52.87 39.3951 54.27 39.785 55.67 40.175C57.07 40.575 58.46 40.9851 59.84 41.3951C61.23 41.805 62.61 42.225 64 42.6451C65.39 43.0651 66.77 43.4851 68.16 43.8951C69.55 44.305 70.94 44.7151 72.33 45.1151C73.72 45.5151 75.13 45.895 76.54 46.265C77.95 46.635 79.37 46.985 80.79 47.315C82.22 47.645 83.66 47.955 85.11 48.225C86.56 48.505 88.03 48.745 89.51 48.955C90.99 49.165 92.49 49.3251 94.01 49.4351C95.53 49.5451 97.07 49.6151 98.63 49.6151C100.19 49.6151 101.77 49.5551 103.38 49.4151C104.99 49.2751 106.62 49.055 108.27 48.7351C109.93 48.4151 111.61 48.005 113.33 47.475C115.05 46.945 116.79 46.295 118.57 45.495C120.35 44.695 122.16 43.755 124 42.6451V47.655V52.0251C124 52.0251 124 55.115 124 57.035Z" fill="white" style="fill:white;fill-opacity:1;"/>
<path d="M124 64.235C122.15 65.355 120.34 66.295 118.57 67.085C116.79 67.885 115.05 68.535 113.33 69.065C111.61 69.595 109.93 70.015 108.27 70.325C106.61 70.635 104.98 70.865 103.38 71.005C101.77 71.145 100.19 71.205 98.63 71.205C97.07 71.205 95.53 71.145 94.01 71.025C92.49 70.915 90.99 70.745 89.51 70.545C88.03 70.335 86.56 70.095 85.11 69.815C83.66 69.535 82.22 69.235 80.79 68.905C79.36 68.575 77.94 68.225 76.54 67.855C75.13 67.485 73.73 67.095 72.33 66.705C70.93 66.315 69.54 65.895 68.16 65.485C66.77 65.075 65.39 64.655 64 64.235C62.62 63.815 61.23 63.395 59.84 62.985C58.45 62.575 57.06 62.165 55.67 61.765C54.27 61.365 52.87 60.985 51.46 60.615C50.05 60.245 48.63 59.895 47.21 59.565C45.79 59.235 44.34 58.925 42.89 58.655C41.44 58.375 39.97 58.135 38.49 57.925C37.01 57.715 35.51 57.555 33.99 57.445C32.47 57.335 30.93 57.265 29.37 57.265C27.81 57.265 26.23 57.325 24.62 57.465C23.01 57.605 21.38 57.825 19.73 58.145C18.07 58.465 16.39 58.875 14.67 59.405C12.95 59.935 11.21 60.585 9.43 61.385C7.66 62.185 5.85 63.125 4 64.235V59.225C4 59.225 4 56.345 4 54.855V49.845C5.85 48.725 7.66 47.785 9.43 46.995C11.21 46.195 12.95 45.545 14.67 45.015C16.39 44.485 18.07 44.065 19.73 43.755C21.39 43.435 23.02 43.215 24.62 43.075C26.23 42.935 27.81 42.875 29.37 42.875C30.93 42.875 32.47 42.935 33.99 43.055C35.51 43.165 37.01 43.335 38.49 43.535C39.97 43.745 41.44 43.985 42.89 44.265C44.34 44.545 45.78 44.845 47.21 45.175C48.64 45.505 50.06 45.855 51.46 46.225C52.87 46.595 54.27 46.985 55.67 47.375C57.07 47.775 58.46 48.185 59.84 48.595C61.23 49.005 62.61 49.425 64 49.845C65.38 50.265 66.77 50.685 68.16 51.095C69.55 51.505 70.94 51.915 72.33 52.315C73.72 52.715 75.13 53.095 76.54 53.465C77.95 53.835 79.37 54.185 80.79 54.515C82.22 54.845 83.66 55.155 85.11 55.425C86.56 55.705 88.03 55.945 89.51 56.155C90.99 56.365 92.49 56.525 94.01 56.635C95.53 56.745 97.07 56.815 98.63 56.815C100.19 56.815 101.77 56.755 103.38 56.615C104.99 56.475 106.62 56.255 108.27 55.935C109.93 55.615 111.61 55.205 113.33 54.675C115.05 54.145 116.79 53.495 118.57 52.695C120.35 51.895 122.16 50.955 124 49.845V54.855V59.225C124 59.225 124 62.315 124 64.235Z" fill="white" style="fill:white;fill-opacity:1;"/>
<path d="M124 78.1651C122.15 79.2851 120.34 80.2251 118.57 81.0151C116.79 81.8151 115.05 82.4651 113.33 82.9951C111.61 83.5251 109.93 83.9451 108.27 84.2551C106.61 84.5751 104.98 84.7951 103.38 84.9351C101.78 85.0751 100.19 85.1351 98.63 85.1351C97.07 85.1351 95.53 85.0751 94.01 84.9551C92.49 84.8351 90.99 84.6751 89.51 84.4751C88.03 84.2651 86.56 84.0251 85.11 83.7451C83.66 83.4651 82.22 83.1651 80.79 82.8351C79.36 82.5051 77.94 82.1551 76.54 81.7851C75.13 81.4151 73.73 81.0251 72.33 80.6351C70.93 80.2451 69.54 79.8251 68.16 79.4151C66.77 79.0051 65.38 78.5851 64 78.1651C62.62 77.7451 61.23 77.3251 59.84 76.9151C58.45 76.5051 57.06 76.0951 55.67 75.6951C54.27 75.2951 52.87 74.9151 51.46 74.5451C50.05 74.1751 48.63 73.8251 47.21 73.4951C45.79 73.1651 44.34 72.8551 42.89 72.5851C41.44 72.3051 39.97 72.0651 38.49 71.8551C37.01 71.6451 35.51 71.4851 33.99 71.3751C32.47 71.2651 30.93 71.1951 29.37 71.1951C27.81 71.1951 26.23 71.2551 24.62 71.3951C23.01 71.5351 21.38 71.7551 19.73 72.0751C18.07 72.3951 16.39 72.8051 14.67 73.3351C12.95 73.8651 11.21 74.5151 9.43 75.3151C7.66 76.1051 5.85 77.0451 4 78.1651V73.1551C4 73.1551 4 70.2751 4 68.7851V63.7751C5.85 62.6551 7.66 61.7151 9.43 60.9251C11.2 60.1351 12.95 59.4751 14.67 58.9451C16.39 58.4151 18.07 57.9951 19.73 57.6851C21.39 57.3651 23.02 57.1451 24.62 57.0051C26.23 56.8651 27.81 56.8051 29.37 56.8051C30.93 56.8051 32.47 56.8651 33.99 56.9851C35.51 57.0951 37.01 57.2651 38.49 57.4651C39.97 57.6751 41.44 57.9151 42.89 58.1951C44.34 58.4751 45.78 58.7751 47.21 59.1051C48.64 59.4351 50.06 59.7851 51.46 60.1551C52.87 60.5251 54.27 60.9151 55.67 61.3051C57.07 61.7051 58.46 62.1151 59.84 62.5251C61.23 62.9351 62.61 63.3551 64 63.7751C65.39 64.1951 66.77 64.6151 68.16 65.0251C69.55 65.4351 70.94 65.8451 72.33 66.2451C73.72 66.6451 75.13 67.0251 76.54 67.3951C77.95 67.7651 79.37 68.1151 80.79 68.4451C82.22 68.7751 83.66 69.0851 85.11 69.3551C86.56 69.6351 88.03 69.8751 89.51 70.0851C90.99 70.2951 92.49 70.4551 94.01 70.5651C95.53 70.6751 97.07 70.7451 98.63 70.7451C100.19 70.7451 101.77 70.6851 103.38 70.5451C104.99 70.4051 106.62 70.1851 108.27 69.8651C109.93 69.5451 111.61 69.1351 113.33 68.6051C115.05 68.0751 116.79 67.4251 118.57 66.6251C120.35 65.8251 122.16 64.8851 124 63.7751V68.7851V73.1551C124 73.1551 124 76.2451 124 78.1651Z" fill="#AE60E5" style="fill:#AE60E5;fill:color(display-p3 0.6824 0.3765 0.8980);fill-opacity:1;"/>
<path d="M124 85.365C122.15 86.485 120.34 87.425 118.57 88.215C116.79 89.015 115.05 89.665 113.33 90.195C111.61 90.725 109.93 91.145 108.27 91.455C106.61 91.765 104.98 91.995 103.38 92.135C101.77 92.275 100.19 92.335 98.63 92.335C97.07 92.335 95.53 92.275 94.01 92.155C92.49 92.045 90.99 91.875 89.51 91.675C88.03 91.465 86.56 91.225 85.11 90.945C83.66 90.665 82.22 90.365 80.79 90.035C79.36 89.705 77.94 89.355 76.54 88.985C75.13 88.615 73.73 88.225 72.33 87.835C70.93 87.445 69.54 87.025 68.16 86.615C66.77 86.205 65.39 85.785 64 85.365C62.62 84.945 61.23 84.525 59.84 84.115C58.45 83.705 57.06 83.295 55.67 82.895C54.27 82.495 52.87 82.115 51.46 81.745C50.05 81.375 48.63 81.025 47.21 80.695C45.79 80.365 44.34 80.055 42.89 79.785C41.44 79.505 39.97 79.265 38.49 79.055C37.01 78.845 35.51 78.685 33.99 78.575C32.47 78.465 30.93 78.395 29.37 78.395C27.81 78.395 26.23 78.455 24.62 78.595C23.01 78.735 21.38 78.955 19.73 79.275C18.07 79.595 16.39 80.005 14.67 80.535C12.95 81.065 11.21 81.715 9.43 82.515C7.66 83.315 5.85 84.255 4 85.365V80.355C4 80.355 4 77.475 4 75.985V70.975C5.85 69.855 7.66 68.915 9.43 68.125C11.21 67.325 12.95 66.675 14.67 66.145C16.39 65.615 18.07 65.195 19.73 64.885C21.39 64.565 23.02 64.345 24.62 64.205C26.23 64.065 27.81 64.005 29.37 64.005C30.93 64.005 32.47 64.065 33.99 64.185C35.51 64.295 37.01 64.465 38.49 64.665C39.97 64.875 41.44 65.115 42.89 65.395C44.34 65.675 45.78 65.975 47.21 66.305C48.64 66.635 50.06 66.985 51.46 67.355C52.87 67.725 54.27 68.115 55.67 68.505C57.07 68.905 58.46 69.315 59.84 69.725C61.23 70.135 62.61 70.555 64 70.975C65.38 71.395 66.77 71.815 68.16 72.225C69.55 72.635 70.94 73.045 72.33 73.445C73.72 73.845 75.13 74.225 76.54 74.595C77.95 74.965 79.37 75.315 80.79 75.645C82.22 75.975 83.66 76.285 85.11 76.555C86.56 76.835 88.03 77.075 89.51 77.285C90.99 77.495 92.49 77.655 94.01 77.765C95.53 77.875 97.07 77.945 98.63 77.945C100.19 77.945 101.77 77.885 103.38 77.745C104.99 77.605 106.62 77.385 108.27 77.065C109.93 76.745 111.61 76.335 113.33 75.805C115.05 75.275 116.79 74.625 118.57 73.825C120.35 73.025 122.16 72.085 124 70.975V75.985V80.355C124 80.355 124 83.445 124 85.365Z" fill="#AE60E5" style="fill:#AE60E5;fill:color(display-p3 0.6824 0.3765 0.8980);fill-opacity:1;"/>
<path d="M124 99.53C122.15 100.65 120.34 101.59 118.57 102.38C116.79 103.18 115.05 103.83 113.33 104.36C111.61 104.89 109.93 105.31 108.27 105.62C106.61 105.93 104.98 106.16 103.38 106.3C101.77 106.44 100.19 106.5 98.63 106.5C97.07 106.5 95.53 106.44 94.01 106.32C92.49 106.21 90.99 106.04 89.51 105.84C88.03 105.63 86.56 105.39 85.11 105.11C83.66 104.83 82.22 104.53 80.79 104.2C79.36 103.87 77.94 103.52 76.54 103.15C75.13 102.78 73.73 102.39 72.33 102C70.93 101.6 69.54 101.19 68.16 100.78C66.77 100.37 65.39 99.95 64 99.53C62.62 99.11 61.23 98.69 59.84 98.28C58.45 97.87 57.06 97.46 55.67 97.06C54.27 96.66 52.87 96.28 51.46 95.91C50.05 95.54 48.63 95.19 47.21 94.86C45.79 94.53 44.34 94.22 42.89 93.95C41.44 93.67 39.97 93.43 38.49 93.22C37.01 93.01 35.51 92.85 33.99 92.74C32.47 92.63 30.93 92.56 29.37 92.56C27.81 92.56 26.23 92.62 24.62 92.76C23.01 92.9 21.38 93.12 19.73 93.44C18.08 93.76 16.39 94.17 14.67 94.7C12.95 95.23 11.21 95.88 9.43 96.68C7.65 97.48 5.85 98.41 4 99.53V94.52C4 94.52 4 91.64 4 90.15V85.14C5.85 84.02 7.66 83.08 9.43 82.29C11.21 81.49 12.95 80.84 14.67 80.31C16.39 79.78 18.07 79.36 19.73 79.05C21.39 78.73 23.02 78.51 24.62 78.37C26.23 78.23 27.81 78.17 29.37 78.17C30.93 78.17 32.47 78.23 33.99 78.35C35.51 78.46 37.01 78.63 38.49 78.83C39.97 79.04 41.44 79.28 42.89 79.56C44.34 79.84 45.78 80.14 47.21 80.47C48.64 80.8 50.06 81.15 51.46 81.52C52.87 81.89 54.27 82.28 55.67 82.67C57.07 83.07 58.46 83.48 59.84 83.89C61.23 84.3 62.61 84.72 64 85.14C65.38 85.56 66.77 85.98 68.16 86.39C69.55 86.8 70.94 87.21 72.33 87.61C73.72 88.01 75.13 88.39 76.54 88.76C77.95 89.13 79.37 89.48 80.79 89.81C82.22 90.14 83.66 90.45 85.11 90.72C86.56 91 88.03 91.24 89.51 91.45C90.99 91.66 92.49 91.82 94.01 91.93C95.53 92.04 97.07 92.11 98.63 92.11C100.19 92.11 101.77 92.05 103.38 91.91C104.99 91.77 106.62 91.55 108.27 91.23C109.93 90.91 111.61 90.5 113.33 89.97C115.05 89.44 116.79 88.79 118.57 87.99C120.35 87.19 122.16 86.25 124 85.14V90.15V94.52C124 94.52 124 97.61 124 99.53Z" fill="#343434" style="fill:#343434;fill:color(display-p3 0.2039 0.2039 0.2039);fill-opacity:1;"/>
<path d="M124 107.2C122.15 108.32 120.34 109.26 118.57 110.05C116.79 110.85 115.05 111.5 113.33 112.03C111.61 112.56 109.93 112.98 108.27 113.29C106.61 113.61 104.98 113.83 103.38 113.97C101.77 114.11 100.19 114.17 98.63 114.17C97.07 114.17 95.53 114.11 94.01 113.99C92.49 113.88 90.99 113.71 89.51 113.51C88.03 113.3 86.56 113.06 85.11 112.78C83.66 112.5 82.22 112.2 80.79 111.87C79.36 111.54 77.94 111.19 76.54 110.82C75.14 110.45 73.73 110.06 72.33 109.67C70.93 109.27 69.54 108.86 68.16 108.45C66.77 108.04 65.39 107.62 64 107.2C62.62 106.78 61.23 106.36 59.84 105.95C58.45 105.54 57.06 105.13 55.67 104.73C54.27 104.33 52.87 103.95 51.46 103.58C50.05 103.21 48.63 102.86 47.21 102.53C45.79 102.2 44.34 101.89 42.89 101.62C41.44 101.34 39.97 101.1 38.49 100.89C37.01 100.68 35.51 100.52 33.99 100.41C32.47 100.3 30.93 100.23 29.37 100.23C27.81 100.23 26.23 100.29 24.62 100.43C23.01 100.57 21.38 100.79 19.73 101.11C18.07 101.43 16.39 101.84 14.67 102.37C12.95 102.9 11.21 103.55 9.43 104.35C7.65 105.15 5.84 106.09 4 107.2V102.19C4 102.19 4 99.31 4 97.82V92.81C5.85 91.69 7.66 90.75 9.43 89.96C11.2 89.17 12.95 88.51 14.67 87.98C16.39 87.45 18.07 87.03 19.73 86.72C21.39 86.41 23.02 86.18 24.62 86.04C26.23 85.9 27.81 85.84 29.37 85.84C30.93 85.84 32.47 85.9 33.99 86.02C35.51 86.13 37.01 86.3 38.49 86.5C39.97 86.7 41.44 86.95 42.89 87.23C44.34 87.51 45.78 87.81 47.21 88.14C48.64 88.47 50.06 88.82 51.46 89.19C52.87 89.56 54.27 89.95 55.67 90.34C57.07 90.74 58.46 91.15 59.84 91.56C61.23 91.97 62.61 92.39 64 92.81C65.38 93.23 66.77 93.65 68.16 94.06C69.55 94.47 70.94 94.88 72.33 95.28C73.73 95.68 75.13 96.06 76.54 96.43C77.95 96.8 79.37 97.15 80.79 97.48C82.22 97.81 83.66 98.12 85.11 98.39C86.56 98.67 88.03 98.91 89.51 99.12C90.99 99.33 92.49 99.49 94.01 99.6C95.53 99.71 97.07 99.78 98.63 99.78C100.19 99.78 101.77 99.72 103.38 99.58C104.99 99.44 106.62 99.22 108.27 98.9C109.92 98.58 111.61 98.17 113.33 97.64C115.05 97.11 116.79 96.46 118.57 95.66C120.35 94.86 122.16 93.92 124 92.81V97.82V102.19C124 102.19 124 105.28 124 107.2Z" fill="#343434" style="fill:#343434;fill:color(display-p3 0.2039 0.2039 0.2039);fill-opacity:1;"/>
<path opacity="0.3" d="M124 107.2C122.15 108.32 120.34 109.26 118.57 110.05C116.79 110.85 115.05 111.5 113.33 112.03C111.61 112.56 109.93 112.98 108.27 113.29C106.61 113.61 104.98 113.83 103.38 113.97C101.77 114.11 100.19 114.17 98.63 114.17C97.07 114.17 95.53 114.11 94.01 113.99C92.49 113.88 90.99 113.71 89.51 113.51C88.03 113.3 86.56 113.06 85.11 112.78C83.66 112.5 82.22 112.2 80.79 111.87C79.36 111.54 77.94 111.19 76.54 110.82C75.14 110.45 73.73 110.06 72.33 109.67C70.93 109.27 69.54 108.86 68.16 108.45C66.77 108.04 65.39 107.62 64 107.2C62.62 106.78 61.23 106.36 59.84 105.95C58.45 105.54 57.06 105.13 55.67 104.73C54.27 104.33 52.87 103.95 51.46 103.58C50.05 103.21 48.63 102.86 47.21 102.53C45.79 102.2 44.34 101.89 42.89 101.62C41.44 101.34 39.97 101.1 38.49 100.89C37.01 100.68 35.51 100.52 33.99 100.41C32.47 100.3 30.93 100.23 29.37 100.23C27.81 100.23 26.23 100.29 24.62 100.43C23.01 100.57 21.38 100.79 19.73 101.11C18.07 101.43 16.39 101.84 14.67 102.37C12.95 102.9 11.21 103.55 9.43 104.35C7.65 105.15 5.84 106.09 4 107.2V101.59V96.27V91.2V86.34V81.66C4 81.66 4 78.61 4 77.12V72.69C4 72.69 4 69.77 4 68.33C4 66.89 4 65.44 4 64V59.67V55.31V50.88C4 50.88 4 47.88 4 46.34C4 44.8 4 43.25 4 41.66V36.8C4 36.8 4 33.46 4 31.73V26.41V20.8C5.85 19.68 7.66 18.74 9.43 17.95C11.2 17.16 12.95 16.5 14.67 15.97C16.39 15.44 18.07 15.02 19.73 14.71C21.39 14.39 23.02 14.17 24.62 14.03C26.23 13.89 27.81 13.83 29.37 13.83C30.93 13.83 32.47 13.89 33.99 14.01C35.51 14.12 37.01 14.29 38.49 14.49C39.97 14.69 41.44 14.94 42.89 15.22C44.34 15.5 45.78 15.8 47.21 16.13C48.64 16.46 50.06 16.81 51.46 17.18C52.87 17.55 54.27 17.94 55.67 18.33C57.07 18.72 58.46 19.14 59.84 19.55C61.22 19.96 62.61 20.38 64 20.8C65.38 21.22 66.77 21.64 68.16 22.05C69.55 22.46 70.94 22.87 72.33 23.27C73.72 23.67 75.13 24.05 76.54 24.42C77.95 24.79 79.37 25.14 80.79 25.47C82.22 25.8 83.66 26.11 85.11 26.38C86.56 26.66 88.03 26.9 89.51 27.11C90.99 27.32 92.49 27.48 94.01 27.59C95.53 27.7 97.07 27.77 98.63 27.77C100.19 27.77 101.77 27.71 103.38 27.57C104.99 27.43 106.62 27.21 108.27 26.89C109.93 26.57 111.61 26.16 113.33 25.63C115.05 25.1 116.79 24.45 118.57 23.65C120.35 22.85 122.16 21.91 124 20.8V26.41V31.73V36.8C124 36.8 124 40.07 124 41.66V46.34C124 46.34 124 49.39 124 50.88C124 52.37 124 53.85 124 55.31V59.67V64V68.33C124 68.33 124 71.23 124 72.69C124 74.15 124 75.63 124 77.12V81.66C124 81.66 124 84.75 124 86.34V91.2V96.27V101.59V107.2Z" fill="url(#paint0_linear_62_79)" style=""/>
</g>
<defs>
<linearGradient id="paint0_linear_62_79" x1="5.3703" y1="22.659" x2="122.37" y2="105.16" gradientUnits="userSpaceOnUse">
<stop stop-color="white" stop-opacity="0" style="stop-color:none;stop-opacity:0;"/>
<stop offset="0.1646" stop-color="#C8C8C8" stop-opacity="0.1646" style="stop-color:#C8C8C8;stop-color:color(display-p3 0.7843 0.7843 0.7843);stop-opacity:0.1646;"/>
<stop offset="0.3934" stop-color="#828282" stop-opacity="0.3934" style="stop-color:#828282;stop-color:color(display-p3 0.5098 0.5098 0.5098);stop-opacity:0.3934;"/>
<stop offset="0.5997" stop-color="#4A4A4A" stop-opacity="0.5997" style="stop-color:#4A4A4A;stop-color:color(display-p3 0.2902 0.2902 0.2902);stop-opacity:0.5997;"/>
<stop offset="0.7759" stop-color="#222222" stop-opacity="0.7759" style="stop-color:#222222;stop-color:color(display-p3 0.1333 0.1333 0.1333);stop-opacity:0.7759;"/>
<stop offset="0.9151" stop-color="#090909" stop-opacity="0.9151" style="stop-color:#090909;stop-color:color(display-p3 0.0353 0.0353 0.0353);stop-opacity:0.9151;"/>
<stop offset="1" style="stop-color:black;stop-opacity:1;"/>
</linearGradient>
<clipPath id="clip0_62_79">
<rect width="128" height="128" fill="white" style="fill:white;fill-opacity:1;"/>
</clipPath>
</defs>
</svg>
