<svg width="128" height="128" viewBox="0 0 128 128" fill="none" xmlns="http://www.w3.org/2000/svg">
<path d="M116 121C116 104.3 89.7 96 64.1 96H64C38.5 96 12 103.3 12 121.1V124.1H13.5H15H114.5V124H116V121Z" fill="url(#paint0_linear_2351_568)" style=""/>
<path d="M73.1 90.1001H54.9V100.1C54.9 104.6 58.6 108.3 63.2 108.3H64.9C69.5 108.3 73.2 104.6 73.2 100.1L73.1 90.1001Z" fill="#6D8D77" style="fill:#6D8D77;fill:color(display-p3 0.4272 0.5542 0.4676);fill-opacity:1;"/>
<path d="M91.3 50.3999H36.7C30.8 50.3999 26 55.4999 26 61.7999C26 68.0999 30.8 73.1999 36.7 73.1999H91.4C97.3 73.1999 102.1 68.0999 102.1 61.7999C102 55.5999 97.2 50.3999 91.3 50.3999Z" fill="#6D8D77" style="fill:#6D8D77;fill:color(display-p3 0.4272 0.5542 0.4676);fill-opacity:1;"/>
<path d="M64 11.1001C46.6 11.1001 30.5 29.7001 30.5 56.5001C30.5 83.1001 47.1 96.3001 64 96.3001C80.9 96.3001 97.5 83.1001 97.5 56.5001C97.5 29.7001 81.4 11.1001 64 11.1001Z" fill="#93A99A" style="fill:#93A99A;fill:color(display-p3 0.5765 0.6627 0.6039);fill-opacity:1;"/>
<path d="M102.4 36.8999C101.8 36.3999 101.1 35.7999 100.3 35.3999C100.1 34.2999 100 33.2999 99.7 32.1999C101.9 29.9999 104 27.6999 105.9 25.1999C104.8 26.5999 102.8 27.3999 100.6 27.3999C99.8999 27.3999 99.1 27.2999 98.3 27.0999C98.3 27.0999 98.2999 27.0999 98.2 27.0999C96.5 21.8999 93.8 16.7999 89.5 12.7999C90.7 12.3999 91.8999 11.9999 93.0999 11.4999C92.7999 11.5999 85.7 9.6999 85.5 9.5999C86.8999 7.9999 87.8999 5.9999 88.2 3.8999C87.2999 5.9999 85 7.0999 82.9 7.8999C82.8 7.8999 82.6999 7.9999 82.6999 7.9999C77.8999 5.5999 71.7 4.0999 64 3.9999C51.2999 4.0999 42.9 8.1999 37.4 13.9999C37.2 13.8999 32.5 11.5999 30.6 10.0999C31.2 12.4999 31.68 14.8299 34.4 16.2999C28.6 17.7999 26.9 20.0999 25.9 21.7999C27.9999 20.9999 30.2 20.7999 32.4 20.7999C29.9 25.3999 28.4999 30.3999 27.7999 35.0999C25.1999 36.5999 23.3 39.2999 22.7 42.1999C24 41.0999 25.6 40.1999 27.2 39.6999C26.5 48.7999 27.7999 55.9999 27.7999 55.9999C27.7999 55.9999 31.01 64.7999 31.11 64.7999C30.91 57.5999 35.6 44.6999 37.7 39.2999C38.6 36.8999 40.9 35.3999 43.4 35.3999C43.8 35.3999 44.1 35.3999 44.5 35.4999C48.9 36.2999 56 37.2999 63.9 37.2999H64H64.0999C71.8999 37.2999 79 36.2999 83.5 35.4999C83.9 35.3999 84.1999 35.3999 84.5999 35.3999C87.0999 35.3999 89.4 36.8999 90.3 39.2999C92.4 44.7999 97.1199 57.5999 96.92 64.7999C97.02 64.7999 100.2 55.9999 100.2 55.9999C100.2 55.9999 101.4 49.4999 100.9 41.0999C102.1 41.3999 103.6 41.8999 105.3 42.9999C105.2 41.2999 104.8 38.9999 102.4 36.8999Z" fill="url(#paint1_radial_2351_568)" style=""/>
<path d="M78.6 79.7001C78.2 79.3001 77.8 78.7001 77.8 78.1001C77.9 77.1001 78.8 76.5001 79.7 76.1001C81.4 75.3001 83.1 74.4001 85 74.2001C85.7 74.1001 86.5 74.1001 87.1 74.5001C87.8 75.0001 88.2 75.9001 88.1 76.8001C88 77.7001 87.6 78.5001 87 79.1001C84.6 82.0001 81.3 82.3001 78.6 79.7001Z" fill="#6D8D77" style="fill:#6D8D77;fill:color(display-p3 0.4272 0.5542 0.4676);fill-opacity:1;"/>
<path d="M81.4 83.9999C81.7 84.2999 81.8 84.8 81.7 85.3C81.6 85.9 81.1 86.3 80.6 86.8C80.2 87.1 79.9 87.3999 79.4 87.5999C78.9 87.7999 78.4 87.5999 78.1 87.1999C78 86.8999 78 86.6 78 86.4C77.9 85 78.3 82.9999 80.1 83.1999C80.6 83.2999 81.1 83.5999 81.4 83.9999Z" fill="#6D8D77" style="fill:#6D8D77;fill:color(display-p3 0.4272 0.5542 0.4676);fill-opacity:1;"/>
<path d="M42.5 77.8C42.1 77.9 41.6 77.8 41.2 77.4C40.7 77 40.6 76.4 40.4 75.8C40.3 75.3 40.2 74.8 40.3 74.4C40.4 74 40.8 73.5 41.3 73.5C41.5 73.5 41.8 73.6 42 73.7C43.2 74.3 44.9 75.6 43.8 77C43.4 77.4 43 77.7 42.5 77.8Z" fill="#6D8D77" style="fill:#6D8D77;fill:color(display-p3 0.4272 0.5542 0.4676);fill-opacity:1;"/>
<path d="M47.2 40.4001C48 40.3001 49 40.4001 49.6 40.9001C50.4 41.6001 50.4 43.0001 49.7 43.9001C49.1 44.8001 48 45.3001 47 45.6001C46.4 45.8001 45.7 46.0001 45.1 45.8001C44.2 45.6001 43.5 44.9001 43.1 44.1001C41.6 41.0001 44.5 40.6001 47.2 40.4001Z" fill="#6D8D77" style="fill:#6D8D77;fill:color(display-p3 0.4272 0.5542 0.4676);fill-opacity:1;"/>
<path d="M60.1 71.1999C60.2 71.1999 60.3 71.2999 60.4 71.2999H67.5C67.6 71.2999 67.7 71.2999 67.8 71.1999C68.4 70.8999 68.8 70.2999 68.5 69.5999C68.2 68.8999 66.8 66.8999 64 66.8999C61.2 66.8999 59.8 68.8999 59.5 69.5999C59.2 70.1999 59.5 70.8999 60.1 71.1999Z" fill="#467455" style="fill:#467455;fill:color(display-p3 0.2745 0.4549 0.3333);fill-opacity:1;"/>
<path d="M74.5 83.0002C74.5 86.2002 69.8 86.8002 64 86.8002C58.2 86.8002 53.5 86.2002 53.5 83.0002C53.5 79.8002 58.2 75.2002 64 75.2002C69.8 75.2002 74.5 79.8002 74.5 83.0002Z" fill="#333333" style="fill:#333333;fill:color(display-p3 0.2000 0.2000 0.2000);fill-opacity:1;"/>
<path d="M64 86.8C67.5 86.8 70.7 86.6 72.6 85.7C72.4 82.8 68.6 80.5 64 80.5C59.4 80.5 55.6 82.8 55.4 85.7C57.3 86.6 60.5 86.8 64 86.8Z" fill="#BB5A5A" style="fill:#BB5A5A;fill:color(display-p3 0.7333 0.3544 0.3544);fill-opacity:1;"/>
<path d="M46.9 69.0999C42 69.0999 38.1 64.5999 38.1 58.9999C38.1 53.3999 42.1 48.8999 46.9 48.8999C51.8 48.8999 55.7 53.3999 55.7 58.9999C55.7 64.5999 51.8 69.0999 46.9 69.0999Z" fill="#4A7759" style="fill:#4A7759;fill:color(display-p3 0.2902 0.4667 0.3490);fill-opacity:1;"/>
<path d="M46.9 50.3001C51.1 50.3001 55.22 54.3901 55.22 59.2901C55.22 64.1901 52.1899 68.5001 47.0299 68.5001C41.8699 68.5001 38.66 63.8701 38.66 58.9701C38.66 54.0701 42.8 50.3001 46.9 50.3001ZM46.9 47.6001C41.3 47.6001 36.7 52.7001 36.7 59.0001C36.7 65.3001 41.2 70.4001 46.9 70.4001C52.5 70.4001 57.0999 65.3001 57.0999 59.0001C57.0999 52.7001 52.5 47.6001 46.9 47.6001Z" fill="#6D8D77" style="fill:#6D8D77;fill:color(display-p3 0.4272 0.5542 0.4676);fill-opacity:1;"/>
<path d="M47.0999 65.0001C51.463 65.0001 55 61.3288 55 56.8001C55 52.2714 51.463 48.6001 47.0999 48.6001C42.7369 48.6001 39.2 52.2714 39.2 56.8001C39.2 61.3288 42.7369 65.0001 47.0999 65.0001Z" fill="white" style="fill:white;fill-opacity:1;"/>
<path d="M47.1 49.7C50.8 49.7 53.9 52.9 53.9 56.8C53.9 60.7 50.9 63.9 47.1 63.9C43.3 63.9 40.3 60.7 40.3 56.8C40.3 52.9 43.4 49.7 47.1 49.7ZM47.1 47.5C42.1 47.5 38.1 51.7 38.1 56.8C38.1 61.9 42.1 66.1 47.1 66.1C52.1 66.1 56.1 61.9 56.1 56.8C56.1 51.7 52.1 47.5 47.1 47.5Z" fill="#6D8D77" style="fill:#6D8D77;fill:color(display-p3 0.4272 0.5542 0.4676);fill-opacity:1;"/>
<path d="M80.7 69.0999C75.8 69.0999 71.9 64.5999 71.9 58.9999C71.9 53.3999 75.9 48.8999 80.7 48.8999C85.6 48.8999 89.5 53.3999 89.5 58.9999C89.5 64.5999 85.6 69.0999 80.7 69.0999Z" fill="#4A7759" style="fill:#4A7759;fill:color(display-p3 0.2902 0.4667 0.3490);fill-opacity:1;"/>
<path d="M80.7 50.3001C84.9 50.3001 89.02 54.3901 89.02 59.2901C89.02 64.1901 85.99 68.5001 80.83 68.5001C75.68 68.5001 72.46 63.8701 72.46 58.9701C72.46 54.0701 76.6 50.3001 80.7 50.3001ZM80.7 47.6001C75.1 47.6001 70.5 52.7001 70.5 59.0001C70.5 65.3001 75 70.4001 80.7 70.4001C86.3 70.4001 90.9 65.3001 90.9 59.0001C90.9 52.7001 86.3 47.6001 80.7 47.6001Z" fill="#6D8D77" style="fill:#6D8D77;fill:color(display-p3 0.4272 0.5542 0.4676);fill-opacity:1;"/>
<path d="M80.9 65.0001C85.2631 65.0001 88.8 61.3288 88.8 56.8001C88.8 52.2714 85.2631 48.6001 80.9 48.6001C76.537 48.6001 73 52.2714 73 56.8001C73 61.3288 76.537 65.0001 80.9 65.0001Z" fill="white" style="fill:white;fill-opacity:1;"/>
<path d="M80.9 49.7C84.6 49.7 87.7 52.9 87.7 56.8C87.7 60.7 84.7 63.9 80.9 63.9C77.1 63.9 74.1 60.7 74.1 56.8C74.1 52.9 77.2 49.7 80.9 49.7ZM80.9 47.5C75.9 47.5 71.9 51.7 71.9 56.8C71.9 61.9 75.9 66.1 80.9 66.1C85.9 66.1 89.9 61.9 89.9 56.8C89.9 51.7 85.9 47.5 80.9 47.5Z" fill="#6D8D77" style="fill:#6D8D77;fill:color(display-p3 0.4272 0.5542 0.4676);fill-opacity:1;"/>
<path d="M40.6199 104.26C40.0199 103.56 39.3099 103.35 38.6199 103.26C37.5699 103.12 36.6699 103.37 36.1599 104.13C35.2699 105.46 34.9599 108.02 32.4499 108.3C30.8099 108.48 30.5199 102.82 30.4999 100.63C30.4299 92.8701 30.8999 89.3601 31.0899 88.6901C31.2899 88.0101 31.4399 86.8001 31.8699 86.1001C33.4499 86.0701 34.59 84.7801 34.7199 83.2001C34.8499 81.4901 31.7899 78.7001 28.3999 81.1101C26.6999 82.3201 24.6999 85.8101 24.4999 95.8101C24.4999 95.8101 24.1199 97.3201 23.3799 95.4601C22.6399 93.6001 21.3899 90.1601 22.9699 86.1601C23.9999 86.1801 25.0999 85.2401 25.1499 83.6301C25.2199 81.6101 23.3899 80.7201 22.0699 80.8601C20.7499 81.0001 18.1299 81.6201 17.1899 85.3601C16.6499 87.5001 16.7199 89.7001 16.7199 89.7001C16.7199 89.7001 14.2599 90.2701 13.9999 90.4901C13.3199 91.0801 11.5799 92.1701 11.7899 96.2001C11.8799 97.9901 12.5099 100.22 12.5099 100.22C12.5099 100.22 11.1199 100.94 10.5799 101.6C9.76995 102.58 9.10995 103.68 8.78995 104.9C8.22995 107.09 8.43995 109.32 9.09995 111.46C9.50995 112.8 10.0799 114.1 10.7299 115.35C11.1599 116.18 11.7899 116.95 12.0499 117.87C12.1699 118.3 12.1499 118.68 12.0699 119.07C11.9899 119.49 11.2299 122.95 10.9799 124.21H25.0599C25.1599 123.78 25.3299 123.26 25.4399 122.83C25.6699 121.96 27.5099 121.47 28.2399 121.07C32.8399 118.58 37.6699 114.73 40.3699 109.78C41.2799 108.12 41.8199 105.66 40.6199 104.26ZM17.6699 99.6401L16.8899 95.4201L17.9499 95.0301C17.9499 95.0301 18.4799 96.4101 18.7999 98.3201C19.1199 100.23 17.6699 99.6401 17.6699 99.6401Z" fill="#93A99A" style="fill:#93A99A;fill:color(display-p3 0.5765 0.6627 0.6039);fill-opacity:1;"/>
<path d="M22.0299 117.39C21.8899 117.42 22.9099 114.48 20.5399 111.72C18.4999 109.35 15.5499 110.32 15.5499 110.32C15.5499 110.32 17.9399 110.74 19.6999 112.7C21.4599 114.67 22.0299 117.39 22.0299 117.39Z" fill="#6D8D77" style="fill:#6D8D77;fill:color(display-p3 0.4272 0.5542 0.4676);fill-opacity:1;"/>
<path d="M15.5 101.12C16.23 101.71 16.81 102.61 16.69 103.54C16.55 104.64 15.45 105.42 14.34 105.54C13.23 105.66 12.15 105.28 11.12 104.85C11.88 106.33 13.37 106.34 13.37 106.34C13.37 106.34 14.23 109.97 14.68 110.14L14.77 106.56C14.77 106.56 16.87 106.89 17.73 104.08C18.27 102.3 17.35 100.93 16.06 100.34C14.77 99.7503 12.94 100.29 12.94 100.29C12.94 100.29 14.76 100.52 15.5 101.12Z" fill="#6D8D77" style="fill:#6D8D77;fill:color(display-p3 0.4272 0.5542 0.4676);fill-opacity:1;"/>
<path d="M17.27 90.4903C18.07 90.7803 18.8 91.2603 18.88 92.2003C18.98 93.3003 18.07 94.3003 17.02 94.6603C15.97 95.0203 14.82 94.8803 13.73 94.6803C14.66 95.7303 15.9 95.6203 16.02 95.8703C16.18 96.2103 16.09 98.0603 16.78 99.1103C17.13 99.6403 18.03 99.7303 18.03 99.7303C18.03 99.7303 17.01 98.1403 17.2 95.8103C17.2 95.8103 18.04 95.5803 18.64 95.2003C19.56 94.6203 19.94 93.5303 20.02 92.5003C20.16 90.6403 18.41 89.8603 17.14 89.7303C15.24 89.5303 14 90.5003 14 90.5003C14 90.5003 16.37 90.1603 17.27 90.4903Z" fill="#6D8D77" style="fill:#6D8D77;fill:color(display-p3 0.4272 0.5542 0.4676);fill-opacity:1;"/>
<path d="M12.0699 119.1C13.5199 120.05 15.7499 120.43 17.2899 120.27C15.3599 119.8 12.7199 117.99 11.4199 116.49C11.6799 116.93 11.9299 117.37 12.0599 117.86C12.1799 118.29 12.1599 118.67 12.0799 119.06C12.0799 119.07 12.0699 119.09 12.0699 119.1Z" fill="#6D8D77" style="fill:#6D8D77;fill:color(display-p3 0.4272 0.5542 0.4676);fill-opacity:1;"/>
<path d="M20.5399 121.85C21.4899 122.69 23.6599 123.18 25.3799 123.03C25.3999 122.96 25.4199 122.89 25.4399 122.82C25.5899 122.25 26.4199 121.85 27.1899 121.52C25.4999 122.1 22.3099 122.11 20.5399 121.85Z" fill="#6D8D77" style="fill:#6D8D77;fill:color(display-p3 0.4272 0.5542 0.4676);fill-opacity:1;"/>
<path d="M19.99 85.39C19.97 85.42 19.97 85.46 19.98 85.49C20.07 86.2 20.47 86.87 21.05 87.29C21.47 87.59 21.97 87.75 22.48 87.77C22.59 87.24 22.74 86.71 22.96 86.15C21.99 86.18 21.02 85.92 20.21 85.39C20.15 85.36 20.04 85.32 19.99 85.39Z" fill="#6D8D77" style="fill:#6D8D77;fill:color(display-p3 0.4272 0.5542 0.4676);fill-opacity:1;"/>
<path d="M28.8699 84.7002C28.8599 85.6402 29.3699 86.5202 30.0599 87.1602C30.4099 87.4902 30.8299 87.7702 31.2899 87.9402C31.4299 87.3202 31.5899 86.6102 31.8799 86.1102C31.4299 86.1002 30.9799 85.9902 30.5699 85.8102C29.9399 85.5402 29.3999 85.1202 28.8699 84.7002Z" fill="#6D8D77" style="fill:#6D8D77;fill:color(display-p3 0.4272 0.5542 0.4676);fill-opacity:1;"/>
<path d="M35.64 105.11C35.04 106.44 34.43 108.07 32.45 108.29C32.23 108.31 32.04 108.23 31.86 108.07C31.98 109.67 32.19 111.6 31.89 113.08C33.97 110.96 35.56 108.47 35.64 105.11Z" fill="#6D8D77" style="fill:#6D8D77;fill:color(display-p3 0.4272 0.5542 0.4676);fill-opacity:1;"/>
<path d="M87.96 109.77C90.66 114.72 95.49 118.57 100.09 121.06C100.82 121.46 102.67 121.95 102.89 122.82C103 123.25 103.17 123.77 103.27 124.2H117.35C117.09 122.94 116.34 119.48 116.26 119.06C116.19 118.68 116.17 118.29 116.28 117.86C116.53 116.94 117.16 116.18 117.6 115.34C118.25 114.09 118.82 112.8 119.23 111.45C119.89 109.31 120.1 107.07 119.54 104.89C119.22 103.66 118.56 102.56 117.75 101.59C117.21 100.94 115.82 100.21 115.82 100.21C115.82 100.21 116.45 97.9799 116.54 96.1899C116.75 92.1599 115.01 91.0699 114.33 90.4799C114.07 90.2499 111.61 89.6899 111.61 89.6899C111.61 89.6899 111.68 87.4899 111.14 85.3499C110.2 81.6099 107.58 80.9899 106.26 80.8499C104.94 80.7099 103.11 81.5999 103.18 83.6199C103.24 85.2199 104.33 86.1699 105.36 86.1499C106.94 90.1499 105.7 93.5999 104.95 95.4499C104.21 97.2999 103.83 95.7999 103.83 95.7999C103.63 85.7999 101.63 82.3099 99.93 81.0999C96.54 78.6899 93.48 81.4799 93.61 83.1899C93.73 84.7699 94.88 86.0599 96.46 86.0899C96.9 86.7899 97.05 87.9999 97.24 88.6799C97.43 89.3399 97.9 92.8599 97.83 100.62C97.81 102.81 97.52 108.48 95.88 108.29C93.37 108.01 93.07 105.45 92.17 104.12C91.66 103.36 90.76 103.12 89.71 103.25C89.02 103.34 88.31 103.55 87.71 104.25C86.52 105.66 87.05 108.12 87.96 109.77ZM109.54 98.3199C109.86 96.4099 110.39 95.0299 110.39 95.0299L111.45 95.4199L110.67 99.6399C110.67 99.6399 109.21 100.22 109.54 98.3199Z" fill="#93A99A" style="fill:#93A99A;fill:color(display-p3 0.5765 0.6627 0.6039);fill-opacity:1;"/>
<path d="M106.3 117.39C106.44 117.42 105.42 114.48 107.79 111.72C109.83 109.35 112.78 110.32 112.78 110.32C112.78 110.32 110.39 110.74 108.63 112.7C106.88 114.67 106.3 117.39 106.3 117.39Z" fill="#6D8D77" style="fill:#6D8D77;fill:color(display-p3 0.4272 0.5542 0.4676);fill-opacity:1;"/>
<path d="M112.83 101.12C112.1 101.71 111.52 102.61 111.64 103.54C111.78 104.64 112.88 105.42 113.99 105.54C115.09 105.67 116.18 105.28 117.21 104.85C116.45 106.33 114.96 106.34 114.96 106.34C114.96 106.34 114.1 109.97 113.65 110.14L113.56 106.56C113.56 106.56 111.46 106.89 110.6 104.08C110.06 102.3 110.98 100.93 112.27 100.34C113.56 99.7498 115.39 100.29 115.39 100.29C115.39 100.29 113.58 100.52 112.83 101.12Z" fill="#6D8D77" style="fill:#6D8D77;fill:color(display-p3 0.4272 0.5542 0.4676);fill-opacity:1;"/>
<path d="M111.06 90.4898C110.26 90.7798 109.53 91.2598 109.45 92.1998C109.35 93.2998 110.26 94.2998 111.31 94.6598C112.36 95.0198 113.51 94.8798 114.6 94.6798C113.67 95.7298 112.43 95.6198 112.31 95.8698C112.15 96.2098 112.24 98.0598 111.55 99.1098C111.2 99.6398 110.3 99.7298 110.3 99.7298C110.3 99.7298 111.32 98.1398 111.13 95.8098C111.13 95.8098 110.29 95.5798 109.69 95.1998C108.77 94.6198 108.39 93.5298 108.31 92.4998C108.17 90.6398 109.92 89.8598 111.19 89.7298C113.09 89.5298 114.33 90.4998 114.33 90.4998C114.33 90.4998 111.96 90.1598 111.06 90.4898Z" fill="#6D8D77" style="fill:#6D8D77;fill:color(display-p3 0.4272 0.5542 0.4676);fill-opacity:1;"/>
<path d="M116.27 119.1C114.82 120.05 112.59 120.43 111.05 120.27C112.98 119.8 115.62 117.99 116.92 116.49C116.66 116.93 116.41 117.37 116.28 117.86C116.16 118.29 116.18 118.67 116.26 119.06C116.26 119.07 116.26 119.09 116.27 119.1Z" fill="#6D8D77" style="fill:#6D8D77;fill:color(display-p3 0.4272 0.5542 0.4676);fill-opacity:1;"/>
<path d="M107.79 121.85C106.84 122.69 104.67 123.18 102.95 123.03C102.93 122.96 102.91 122.89 102.89 122.82C102.74 122.25 101.91 121.85 101.14 121.52C102.83 122.1 106.02 122.11 107.79 121.85Z" fill="#6D8D77" style="fill:#6D8D77;fill:color(display-p3 0.4272 0.5542 0.4676);fill-opacity:1;"/>
<path d="M108.34 85.39C108.36 85.42 108.36 85.46 108.35 85.49C108.26 86.2 107.86 86.87 107.28 87.29C106.86 87.59 106.36 87.75 105.85 87.77C105.74 87.24 105.59 86.71 105.37 86.15C106.34 86.18 107.31 85.92 108.12 85.39C108.19 85.36 108.3 85.32 108.34 85.39Z" fill="#6D8D77" style="fill:#6D8D77;fill:color(display-p3 0.4272 0.5542 0.4676);fill-opacity:1;"/>
<path d="M99.4701 84.6997C99.4801 85.6397 98.9701 86.5197 98.2801 87.1597C97.9301 87.4897 97.5101 87.7697 97.0501 87.9397C96.9101 87.3197 96.7501 86.6097 96.4601 86.1097C96.9101 86.0997 97.3601 85.9897 97.7701 85.8097C98.3901 85.5397 98.9401 85.1197 99.4701 84.6997Z" fill="#6D8D77" style="fill:#6D8D77;fill:color(display-p3 0.4272 0.5542 0.4676);fill-opacity:1;"/>
<path d="M92.6901 105.11C93.2901 106.44 93.9001 108.07 95.8801 108.29C96.1001 108.31 96.2901 108.23 96.4701 108.07C96.3501 109.67 96.1401 111.6 96.4401 113.08C94.3701 110.96 92.7701 108.47 92.6901 105.11Z" fill="#6D8D77" style="fill:#6D8D77;fill:color(display-p3 0.4272 0.5542 0.4676);fill-opacity:1;"/>
<defs>
<linearGradient id="paint0_linear_2351_568" x1="64" y1="96" x2="64" y2="130.861" gradientUnits="userSpaceOnUse">
<stop offset="0.00438214" stop-color="#00BFA5" style="stop-color:#00BFA5;stop-color:color(display-p3 0.0000 0.7490 0.6471);stop-opacity:1;"/>
<stop offset="1" stop-color="#009E89" style="stop-color:#009E89;stop-color:color(display-p3 0.0000 0.6196 0.5373);stop-opacity:1;"/>
</linearGradient>
<radialGradient id="paint1_radial_2351_568" cx="0" cy="0" r="1" gradientUnits="userSpaceOnUse" gradientTransform="translate(64.9587 44.5159) scale(40.0654 40.0654)">
<stop offset="0.5938" stop-color="#3C3C3C" style="stop-color:#3C3C3C;stop-color:color(display-p3 0.2333 0.2333 0.2333);stop-opacity:1;"/>
<stop offset="1" stop-color="#545454" style="stop-color:#545454;stop-color:color(display-p3 0.3292 0.3292 0.3292);stop-opacity:1;"/>
</radialGradient>
</defs>
</svg>
