<svg width="128" height="129" viewBox="0 0 128 129" fill="none" xmlns="http://www.w3.org/2000/svg">
<path d="M4 21.25C5.8 20.15 7.7 19.15 9.4 18.45C11.2 17.65 12.9 17.05 14.6 16.45C15.875 16 17.15 15.7188 18.425 15.4375C18.85 15.3438 19.275 15.25 19.7 15.15C21.4 14.85 23 14.65 24.6 14.45C26.2 14.35 27.8 14.25 29.4 14.25C31 14.25 32.5 14.35 34 14.45C35.5 14.55 37 14.75 38.5 14.95C40 15.15 41.5 15.35 42.9 15.65C43.5999 15.8 44.3248 15.95 45.0497 16.0999C45.7747 16.2499 46.5 16.4 47.2 16.55C48.5999 16.85 49.9998 17.2499 51.3997 17.6499L76.6 24.85C77.3 25.05 78 25.225 78.7 25.4C79.4 25.575 80.1 25.75 80.8 25.95C81.5 26.1 82.225 26.25 82.95 26.4C83.675 26.55 84.4 26.7 85.1 26.85C86.5 27.15 87.9999 27.35 89.4999 27.55C90.9999 27.75 92.5 27.95 94 28.05C95.5 28.15 97.1 28.25 98.6 28.25C100.011 28.25 101.511 28.1615 103.1 28.0677L103.4 28.05C104.876 27.9632 106.201 27.7257 107.637 27.4683C107.855 27.4292 108.076 27.3896 108.3 27.35C110 27.05 111.6 26.65 113.4 26.05C115.2 25.45 116.9 24.85 118.6 24.05C120.3 23.25 122.2 22.35 124 21.25L124 108.18C122.2 109.28 120.3 110.28 118.6 110.98C116.8 111.78 115.1 112.38 113.4 112.98C112.125 113.43 110.85 113.711 109.575 113.992C109.15 114.086 108.725 114.18 108.3 114.28C107.037 114.577 105.829 114.708 104.635 114.838C104.222 114.883 103.811 114.928 103.4 114.98C101.8 115.08 100.2 115.18 98.6 115.18C97 115.18 95.5 115.08 94 114.98C92.5 114.88 91 114.68 89.5 114.48C88 114.28 86.6 114.08 85.1 113.78C83.6001 113.48 82.2002 113.18 80.8003 112.88C79.4004 112.58 78.0002 112.18 76.6003 111.78L51.4 104.58C50.7 104.38 50 104.205 49.3 104.03C48.6 103.855 47.9 103.68 47.2 103.48C46.2922 103.22 45.3424 103.045 44.4051 102.872C43.8968 102.778 43.3922 102.685 42.9 102.58C41.4 102.28 40 102.08 38.5 101.88C37.0001 101.68 35.4999 101.48 34 101.38C32.5 101.28 30.9 101.18 29.4 101.18C27.9886 101.18 26.4888 101.268 24.9003 101.362C24.8006 101.368 24.7005 101.374 24.6 101.38C23.1244 101.466 21.7994 101.704 20.3635 101.961C20.1452 102 19.9244 102.04 19.7 102.08C18 102.38 16.4 102.78 14.6 103.38C12.8 103.98 11.1 104.58 9.4 105.38C7.7 106.18 5.8 107.08 4 108.18V21.25Z" fill="#41A54B" style="fill:#41A54B;fill:color(display-p3 0.2556 0.6458 0.2947);fill-opacity:1;"/>
<path d="M4 21.25C5.8 20.15 7.7 19.15 9.4 18.45C11.2 17.65 12.9 17.05 14.6 16.45C15.875 16 17.15 15.7188 18.425 15.4375C18.85 15.3438 19.275 15.25 19.7 15.15C21.4 14.85 23 14.65 24.6 14.45C26.2 14.35 27.8 14.25 29.4 14.25C31 14.25 32.5 14.35 34 14.45C35.5 14.55 37 14.75 38.5 14.95C40 15.15 41.5 15.35 42.9 15.65C43.5999 15.8 44.3248 15.95 45.0497 16.0999C45.7747 16.2499 46.5 16.4 47.2 16.55C48.5999 16.85 49.9998 17.2499 51.3997 17.6499L76.6 24.85C77.3 25.05 78 25.225 78.7 25.4C79.4 25.575 80.1 25.75 80.8 25.95C81.5 26.1 82.225 26.25 82.95 26.4C83.675 26.55 84.4 26.7 85.1 26.85C86.5 27.15 87.9999 27.35 89.4999 27.55C90.9999 27.75 92.5 27.95 94 28.05C95.5 28.15 97.1 28.25 98.6 28.25C100.011 28.25 101.511 28.1615 103.1 28.0677L103.4 28.05C104.876 27.9632 106.201 27.7257 107.637 27.4683C107.855 27.4292 108.076 27.3896 108.3 27.35C110 27.05 111.6 26.65 113.4 26.05C115.2 25.45 116.9 24.85 118.6 24.05C120.3 23.25 122.2 22.35 124 21.25L124 108.18C122.2 109.28 120.3 110.28 118.6 110.98C116.8 111.78 115.1 112.38 113.4 112.98C112.125 113.43 110.85 113.711 109.575 113.992C109.15 114.086 108.725 114.18 108.3 114.28C107.037 114.577 105.829 114.708 104.635 114.838C104.222 114.883 103.811 114.928 103.4 114.98C101.8 115.08 100.2 115.18 98.6 115.18C97 115.18 95.5 115.08 94 114.98C92.5 114.88 91 114.68 89.5 114.48C88 114.28 86.6 114.08 85.1 113.78C83.6001 113.48 82.2002 113.18 80.8003 112.88C79.4004 112.58 78.0002 112.18 76.6003 111.78L51.4 104.58C50.7 104.38 50 104.205 49.3 104.03C48.6 103.855 47.9 103.68 47.2 103.48C46.2922 103.22 45.3424 103.045 44.4051 102.872C43.8968 102.778 43.3922 102.685 42.9 102.58C41.4 102.28 40 102.08 38.5 101.88C37.0001 101.68 35.4999 101.48 34 101.38C32.5 101.28 30.9 101.18 29.4 101.18C27.9886 101.18 26.4888 101.268 24.9003 101.362C24.8006 101.368 24.7005 101.374 24.6 101.38C23.1244 101.466 21.7994 101.704 20.3635 101.961C20.1452 102 19.9244 102.04 19.7 102.08C18 102.38 16.4 102.78 14.6 103.38C12.8 103.98 11.1 104.58 9.4 105.38C7.7 106.18 5.8 107.08 4 108.18V21.25Z" fill="#F44336" style="fill:#F44336;fill:color(display-p3 0.9569 0.2627 0.2118);fill-opacity:1;"/>
<path d="M118.6 110.98C120.3 110.28 122.2 109.28 124 108.18L124 21.25L115.709 27.6499C102.259 38.0324 87.9783 47.2915 73.0109 55.3337L62 61.25C40.4498 72.8184 21.2059 88.2441 5.22497 106.76L4 108.18C5.8 107.08 7.7 106.18 9.4 105.38C11.1 104.58 12.8 103.98 14.6 103.38C16.4 102.78 18 102.38 19.7 102.08C19.9223 102.04 20.1412 102.001 20.3575 101.962L20.3635 101.961C21.7994 101.704 23.1244 101.466 24.6 101.38L24.9003 101.362C26.4888 101.268 27.9886 101.18 29.4 101.18C30.9 101.18 32.5 101.28 34 101.38C35.4999 101.48 37.0001 101.68 38.5 101.88C40 102.08 41.4 102.28 42.9 102.58C43.3922 102.685 43.8967 102.778 44.4049 102.872L44.4051 102.872L44.4053 102.872C45.3426 103.045 46.2923 103.22 47.2 103.48C47.9 103.68 48.6 103.855 49.3 104.03C50 104.205 50.7 104.38 51.4 104.58L76.6003 111.78C78.0002 112.18 79.4004 112.58 80.8003 112.88C82.2002 113.18 83.6001 113.48 85.1 113.78C86.6 114.08 88 114.28 89.5 114.48C91 114.68 92.5 114.88 94 114.98C95.5 115.08 97 115.18 98.6 115.18C100.2 115.18 101.8 115.08 103.4 114.98C103.811 114.928 104.222 114.883 104.635 114.838C105.829 114.708 107.037 114.577 108.3 114.28C108.725 114.18 109.15 114.086 109.575 113.992C110.85 113.711 112.125 113.43 113.4 112.98L113.4 112.98C115.1 112.38 116.8 111.78 118.6 110.98Z" fill="#101010" style="fill:#101010;fill:color(display-p3 0.0625 0.0625 0.0625);fill-opacity:1;"/>
<path opacity="0.3" d="M124 107.62C122.15 108.74 120.34 109.68 118.57 110.47C116.79 111.27 115.05 111.92 113.33 112.45C111.61 112.98 109.93 113.4 108.27 113.71C106.61 114.03 104.98 114.25 103.38 114.39C101.77 114.53 100.19 114.59 98.63 114.59C97.07 114.59 95.53 114.53 94.01 114.41C92.49 114.3 90.99 114.13 89.51 113.93C88.03 113.72 86.56 113.48 85.11 113.2C83.66 112.92 82.22 112.62 80.79 112.29C79.36 111.96 77.94 111.61 76.54 111.24C75.14 110.87 73.73 110.48 72.33 110.09C70.93 109.69 69.54 109.28 68.16 108.87C66.77 108.46 65.39 108.04 64 107.62C62.62 107.2 61.23 106.78 59.84 106.37C58.45 105.96 57.06 105.55 55.67 105.15C54.27 104.75 52.87 104.37 51.46 104C50.05 103.63 48.63 103.28 47.21 102.95C45.79 102.62 44.34 102.31 42.89 102.04C41.44 101.76 39.97 101.52 38.49 101.31C37.01 101.1 35.51 100.94 33.99 100.83C32.47 100.72 30.93 100.65 29.37 100.65C27.81 100.65 26.23 100.71 24.62 100.85C23.01 100.99 21.38 101.21 19.73 101.53C18.07 101.85 16.39 102.26 14.67 102.79C12.95 103.32 11.21 103.97 9.43 104.77C7.65 105.57 5.84 106.51 4 107.62V102.01V96.69V91.62V86.76V82.08C4 82.08 4 79.03 4 77.54V73.11C4 73.11 4 70.19 4 68.75C4 67.31 4 65.86 4 64.42V60.09V55.73V51.3C4 51.3 4 48.3 4 46.76C4 45.22 4 43.67 4 42.08V37.22C4 37.22 4 33.88 4 32.15V26.83V21.22C5.85 20.1 7.66 19.16 9.43 18.37C11.2 17.58 12.95 16.92 14.67 16.39C16.39 15.86 18.07 15.44 19.73 15.13C21.39 14.81 23.02 14.59 24.62 14.45C26.23 14.31 27.81 14.25 29.37 14.25C30.93 14.25 32.47 14.31 33.99 14.43C35.51 14.54 37.01 14.71 38.49 14.91C39.97 15.11 41.44 15.36 42.89 15.64C44.34 15.92 45.78 16.22 47.21 16.55C48.64 16.88 50.06 17.23 51.46 17.6C52.87 17.97 54.27 18.36 55.67 18.75C57.07 19.14 58.46 19.56 59.84 19.97C61.22 20.38 62.61 20.8 64 21.22C65.38 21.64 66.77 22.06 68.16 22.47C69.55 22.88 70.94 23.29 72.33 23.69C73.72 24.09 75.13 24.47 76.54 24.84C77.95 25.21 79.37 25.56 80.79 25.89C82.22 26.22 83.66 26.53 85.11 26.8C86.56 27.08 88.03 27.32 89.51 27.53C90.99 27.74 92.49 27.9 94.01 28.01C95.53 28.12 97.07 28.19 98.63 28.19C100.19 28.19 101.77 28.13 103.38 27.99C104.99 27.85 106.62 27.63 108.27 27.31C109.93 26.99 111.61 26.58 113.33 26.05C115.05 25.52 116.79 24.87 118.57 24.07C120.35 23.27 122.16 22.33 124 21.22V26.83V32.15V37.22C124 37.22 124 40.49 124 42.08V46.76C124 46.76 124 49.81 124 51.3C124 52.79 124 54.27 124 55.73V60.09V64.42V68.75C124 68.75 124 71.65 124 73.11C124 74.57 124 76.05 124 77.54V82.08C124 82.08 124 85.17 124 86.76V91.62V96.69V102.01V107.62Z" fill="url(#paint0_linear_1028_161)" style=""/>
<defs>
<linearGradient id="paint0_linear_1028_161" x1="5.3703" y1="23.079" x2="122.37" y2="105.58" gradientUnits="userSpaceOnUse">
<stop stop-color="white" stop-opacity="0" style="stop-color:none;stop-opacity:0;"/>
<stop offset="0.1646" stop-color="#C8C8C8" stop-opacity="0.1646" style="stop-color:#C8C8C8;stop-color:color(display-p3 0.7843 0.7843 0.7843);stop-opacity:0.1646;"/>
<stop offset="0.3934" stop-color="#828282" stop-opacity="0.3934" style="stop-color:#828282;stop-color:color(display-p3 0.5098 0.5098 0.5098);stop-opacity:0.3934;"/>
<stop offset="0.5997" stop-color="#4A4A4A" stop-opacity="0.5997" style="stop-color:#4A4A4A;stop-color:color(display-p3 0.2902 0.2902 0.2902);stop-opacity:0.5997;"/>
<stop offset="0.7759" stop-color="#222222" stop-opacity="0.7759" style="stop-color:#222222;stop-color:color(display-p3 0.1333 0.1333 0.1333);stop-opacity:0.7759;"/>
<stop offset="0.9151" stop-color="#090909" stop-opacity="0.9151" style="stop-color:#090909;stop-color:color(display-p3 0.0353 0.0353 0.0353);stop-opacity:0.9151;"/>
<stop offset="1" style="stop-color:black;stop-opacity:1;"/>
</linearGradient>
</defs>
</svg>
