<svg width="128" height="128" viewBox="0 0 128 128" fill="none" xmlns="http://www.w3.org/2000/svg">
<path d="M63.6001 118.8C35.7001 118.8 5.6001 101.3 5.6001 62.9C5.6001 24.5 35.7001 7 63.6001 7C79.1001 7 93.4001 12.1 104 21.4C115.5 31.6 121.6 46 121.6 62.9C121.6 79.8 115.5 94.1 104 104.3C93.4001 113.6 79.0001 118.8 63.6001 118.8Z" fill="url(#paint0_radial_169_13562)" style=""/>
<path d="M63.6001 118.8C35.7001 118.8 5.6001 101.3 5.6001 62.9C5.6001 24.5 35.7001 7 63.6001 7C79.1001 7 93.4001 12.1 104 21.4C115.5 31.6 121.6 46 121.6 62.9C121.6 79.8 115.5 94.1 104 104.3C93.4001 113.6 79.0001 118.8 63.6001 118.8Z" fill="url(#paint1_radial_169_13562)" style=""/>
<path d="M63.6001 118.8C35.7001 118.8 5.6001 101.3 5.6001 62.9C5.6001 24.5 35.7001 7 63.6001 7C79.1001 7 93.4001 12.1 104 21.4C115.5 31.6 121.6 46 121.6 62.9C121.6 79.8 115.5 94.1 104 104.3C93.4001 113.6 79.0001 118.8 63.6001 118.8Z" fill="url(#paint2_radial_169_13562)" style=""/>
<path d="M63.6001 118.8C35.7001 118.8 5.6001 101.3 5.6001 62.9C5.6001 24.5 35.7001 7 63.6001 7C79.1001 7 93.4001 12.1 104 21.4C115.5 31.6 121.6 46 121.6 62.9C121.6 79.8 115.5 94.1 104 104.3C93.4001 113.6 79.0001 118.8 63.6001 118.8Z" fill="url(#paint3_radial_169_13562)" style=""/>
<path d="M63.6001 118.8C35.7001 118.8 5.6001 101.3 5.6001 62.9C5.6001 24.5 35.7001 7 63.6001 7C79.1001 7 93.4001 12.1 104 21.4C115.5 31.6 121.6 46 121.6 62.9C121.6 79.8 115.5 94.1 104 104.3C93.4001 113.6 79.0001 118.8 63.6001 118.8Z" fill="url(#paint4_radial_169_13562)" style=""/>
<path d="M111.49 29.67C116.82 38.27 119.6 48.51 119.6 59.9C119.6 76.8 113.5 91.1 102 101.3C91.3999 110.6 76.9999 115.8 61.5999 115.8C43.5399 115.8 24.5599 108.45 13.4199 92.86C24.1799 110.52 44.4099 118.8 63.5999 118.8C78.9999 118.8 93.3999 113.6 104 104.3C115.5 94.1 121.6 79.8 121.6 62.9C121.6 50.16 118.13 38.84 111.49 29.67Z" fill="#EB8F00" style="fill:#EB8F00;fill:color(display-p3 0.9216 0.5608 0.0000);fill-opacity:1;"/>
<path d="M111.49 29.67C116.82 38.27 119.6 48.51 119.6 59.9C119.6 76.8 113.5 91.1 102 101.3C91.3999 110.6 76.9999 115.8 61.5999 115.8C43.5399 115.8 24.5599 108.45 13.4199 92.86C24.1799 110.52 44.4099 118.8 63.5999 118.8C78.9999 118.8 93.3999 113.6 104 104.3C115.5 94.1 121.6 79.8 121.6 62.9C121.6 50.16 118.13 38.84 111.49 29.67Z" fill="#F3B872" style="fill:#F3B872;fill:color(display-p3 0.9542 0.7229 0.4453);fill-opacity:1;"/>
<path d="M111.49 29.67C116.82 38.27 119.6 48.51 119.6 59.9C119.6 76.8 113.5 91.1 102 101.3C91.3999 110.6 76.9999 115.8 61.5999 115.8C43.5399 115.8 24.5599 108.45 13.4199 92.86C24.1799 110.52 44.4099 118.8 63.5999 118.8C78.9999 118.8 93.3999 113.6 104 104.3C115.5 94.1 121.6 79.8 121.6 62.9C121.6 50.16 118.13 38.84 111.49 29.67Z" fill="#91674D" style="fill:#91674D;fill:color(display-p3 0.5686 0.4039 0.3020);fill-opacity:1;"/>
<path opacity="0.5" d="M27.25 89.33C36.915 89.33 44.75 81.495 44.75 71.83C44.75 62.165 36.915 54.33 27.25 54.33C17.585 54.33 9.75 62.165 9.75 71.83C9.75 81.495 17.585 89.33 27.25 89.33Z" fill="url(#paint5_radial_169_13562)" style=""/>
<path opacity="0.5" d="M100.75 89.33C110.415 89.33 118.25 81.495 118.25 71.83C118.25 62.165 110.415 54.33 100.75 54.33C91.085 54.33 83.25 62.165 83.25 71.83C83.25 81.495 91.085 89.33 100.75 89.33Z" fill="url(#paint6_radial_169_13562)" style=""/>
<path d="M48.96 56.89C48.96 56.89 48.91 56.82 48.8 56.69C48.7 56.56 48.56 56.38 48.38 56.15C48.23 55.99 48.05 55.8 47.84 55.58C47.63 55.34 47.37 55.09 47.11 54.83C46.84 54.58 46.56 54.32 46.27 54.11C45.99 53.88 45.68 53.71 45.43 53.57C45.17 53.41 44.93 53.37 44.78 53.32C44.7 53.29 44.63 53.29 44.57 53.28C44.54 53.29 44.51 53.27 44.48 53.28L44.44 53.29H44.42H44.41C44.53 53.29 44.14 53.3 44.68 53.28L44.13 53.3C43.99 53.3 44.08 53.31 44.09 53.31C44.12 53.31 44.14 53.31 44.16 53.3C44.24 53.27 44.16 53.3 44.14 53.3C44.11 53.3 44.07 53.31 44.03 53.33C43.87 53.38 43.63 53.42 43.38 53.58C43.13 53.72 42.82 53.89 42.54 54.12C42.26 54.34 41.97 54.59 41.7 54.84C41.18 55.35 40.72 55.86 40.4 56.23C40.07 56.61 39.89 56.83 39.89 56.83L39.66 57.1C38.29 58.7 35.77 58.97 34.04 57.71C32.86 56.85 32.35 55.51 32.57 54.23C32.57 54.23 32.64 53.82 32.84 53.11C33.05 52.4 33.4 51.39 34.09 50.2C34.78 49.02 35.78 47.63 37.47 46.36C38.3 45.74 39.31 45.12 40.51 44.7C40.8 44.59 41.11 44.49 41.43 44.41C41.76 44.33 42.02 44.24 42.47 44.18L43.09 44.09C43.28 44.07 43.56 44.04 43.6 44.04L44.15 44L44.46 43.99H44.49H44.55L44.68 44H44.92L45.43 44.03C45.77 44.06 46.1 44.12 46.43 44.17C47.08 44.29 47.73 44.46 48.32 44.68C49.52 45.1 50.53 45.71 51.36 46.34C53.05 47.61 54.05 49 54.74 50.18C55.09 50.77 55.35 51.33 55.54 51.82C55.75 52.29 55.9 52.79 56.02 53.16C56.13 53.52 56.13 53.71 56.18 53.88C56.21 54.04 56.22 54.13 56.22 54.13C56.59 56.15 55.1 58.06 52.91 58.39C51.34 58.64 49.83 58.01 48.96 56.89Z" fill="#49362E" style="fill:#49362E;fill:color(display-p3 0.2863 0.2118 0.1804);fill-opacity:1;"/>
<path d="M48.96 56.89C48.96 56.89 48.91 56.82 48.8 56.69C48.7 56.56 48.56 56.38 48.38 56.15C48.23 55.99 48.05 55.8 47.84 55.58C47.63 55.34 47.37 55.09 47.11 54.83C46.84 54.58 46.56 54.32 46.27 54.11C45.99 53.88 45.68 53.71 45.43 53.57C45.17 53.41 44.93 53.37 44.78 53.32C44.7 53.29 44.63 53.29 44.57 53.28C44.54 53.29 44.51 53.27 44.48 53.28L44.44 53.29H44.42H44.41C44.53 53.29 44.14 53.3 44.68 53.28L44.13 53.3C43.99 53.3 44.08 53.31 44.09 53.31C44.12 53.31 44.14 53.31 44.16 53.3C44.24 53.27 44.16 53.3 44.14 53.3C44.11 53.3 44.07 53.31 44.03 53.33C43.87 53.38 43.63 53.42 43.38 53.58C43.13 53.72 42.82 53.89 42.54 54.12C42.26 54.34 41.97 54.59 41.7 54.84C41.18 55.35 40.72 55.86 40.4 56.23C40.07 56.61 39.89 56.83 39.89 56.83L39.66 57.1C38.29 58.7 35.77 58.97 34.04 57.71C32.86 56.85 32.35 55.51 32.57 54.23C32.57 54.23 32.64 53.82 32.84 53.11C33.05 52.4 33.4 51.39 34.09 50.2C34.78 49.02 35.78 47.63 37.47 46.36C38.3 45.74 39.31 45.12 40.51 44.7C40.8 44.59 41.11 44.49 41.43 44.41C41.76 44.33 42.02 44.24 42.47 44.18L43.09 44.09C43.28 44.07 43.56 44.04 43.6 44.04L44.15 44L44.46 43.99H44.49H44.55L44.68 44H44.92L45.43 44.03C45.77 44.06 46.1 44.12 46.43 44.17C47.08 44.29 47.73 44.46 48.32 44.68C49.52 45.1 50.53 45.71 51.36 46.34C53.05 47.61 54.05 49 54.74 50.18C55.09 50.77 55.35 51.33 55.54 51.82C55.75 52.29 55.9 52.79 56.02 53.16C56.13 53.52 56.13 53.71 56.18 53.88C56.21 54.04 56.22 54.13 56.22 54.13C56.59 56.15 55.1 58.06 52.91 58.39C51.34 58.64 49.83 58.01 48.96 56.89Z" fill="#1A1717" style="fill:#1A1717;fill:color(display-p3 0.1020 0.0902 0.0902);fill-opacity:1;"/>
<path d="M48.96 56.89C48.96 56.89 48.91 56.82 48.8 56.69C48.7 56.56 48.56 56.38 48.38 56.15C48.23 55.99 48.05 55.8 47.84 55.58C47.63 55.34 47.37 55.09 47.11 54.83C46.84 54.58 46.56 54.32 46.27 54.11C45.99 53.88 45.68 53.71 45.43 53.57C45.17 53.41 44.93 53.37 44.78 53.32C44.7 53.29 44.63 53.29 44.57 53.28C44.54 53.29 44.51 53.27 44.48 53.28L44.44 53.29H44.42H44.41C44.53 53.29 44.14 53.3 44.68 53.28L44.13 53.3C43.99 53.3 44.08 53.31 44.09 53.31C44.12 53.31 44.14 53.31 44.16 53.3C44.24 53.27 44.16 53.3 44.14 53.3C44.11 53.3 44.07 53.31 44.03 53.33C43.87 53.38 43.63 53.42 43.38 53.58C43.13 53.72 42.82 53.89 42.54 54.12C42.26 54.34 41.97 54.59 41.7 54.84C41.18 55.35 40.72 55.86 40.4 56.23C40.07 56.61 39.89 56.83 39.89 56.83L39.66 57.1C38.29 58.7 35.77 58.97 34.04 57.71C32.86 56.85 32.35 55.51 32.57 54.23C32.57 54.23 32.64 53.82 32.84 53.11C33.05 52.4 33.4 51.39 34.09 50.2C34.78 49.02 35.78 47.63 37.47 46.36C38.3 45.74 39.31 45.12 40.51 44.7C40.8 44.59 41.11 44.49 41.43 44.41C41.76 44.33 42.02 44.24 42.47 44.18L43.09 44.09C43.28 44.07 43.56 44.04 43.6 44.04L44.15 44L44.46 43.99H44.49H44.55L44.68 44H44.92L45.43 44.03C45.77 44.06 46.1 44.12 46.43 44.17C47.08 44.29 47.73 44.46 48.32 44.68C49.52 45.1 50.53 45.71 51.36 46.34C53.05 47.61 54.05 49 54.74 50.18C55.09 50.77 55.35 51.33 55.54 51.82C55.75 52.29 55.9 52.79 56.02 53.16C56.13 53.52 56.13 53.71 56.18 53.88C56.21 54.04 56.22 54.13 56.22 54.13C56.59 56.15 55.1 58.06 52.91 58.39C51.34 58.64 49.83 58.01 48.96 56.89Z" fill="#49362E" style="fill:#49362E;fill:color(display-p3 0.2863 0.2118 0.1804);fill-opacity:1;"/>
<path d="M88.4599 56.89C88.4599 56.89 88.4099 56.82 88.2999 56.69C88.1999 56.56 88.0599 56.38 87.8799 56.15C87.7299 55.99 87.5499 55.8 87.3399 55.58C87.1299 55.34 86.8699 55.09 86.6099 54.83C86.3399 54.58 86.0599 54.32 85.7699 54.11C85.4899 53.88 85.1799 53.71 84.9299 53.57C84.6699 53.41 84.4299 53.37 84.2799 53.32C84.1999 53.29 84.1299 53.29 84.0699 53.28C84.0399 53.29 84.0099 53.27 83.9799 53.28L83.9399 53.29H83.9199H83.9099H83.8999C84.0199 53.29 83.6299 53.3 84.1699 53.28L83.6199 53.3C83.4799 53.3 83.5699 53.31 83.5799 53.31C83.6099 53.31 83.6299 53.31 83.6499 53.3C83.7299 53.27 83.6499 53.3 83.6299 53.3C83.5999 53.3 83.5599 53.31 83.5199 53.33C83.3599 53.38 83.1199 53.42 82.8699 53.58C82.6199 53.72 82.3099 53.89 82.0299 54.12C81.7499 54.34 81.4599 54.59 81.1899 54.84C80.6699 55.35 80.2099 55.86 79.8899 56.23C79.5599 56.61 79.3799 56.83 79.3799 56.83L79.1499 57.1C77.7799 58.7 75.2599 58.97 73.5299 57.71C72.3499 56.85 71.8399 55.51 72.0599 54.23C72.0599 54.23 72.1299 53.82 72.3299 53.11C72.5399 52.4 72.8899 51.39 73.5799 50.2C74.2699 49.02 75.2699 47.63 76.9599 46.36C77.7899 45.74 78.7999 45.12 79.9999 44.7C80.2899 44.59 80.5999 44.49 80.9199 44.41C81.2499 44.33 81.5099 44.24 81.9599 44.18L82.5799 44.09C82.7699 44.07 83.0499 44.04 83.0899 44.04L83.6399 44L83.9499 43.99H83.9799H84.0399L84.1699 44H84.4099L84.9199 44.03C85.2599 44.06 85.5899 44.12 85.9199 44.17C86.5699 44.29 87.2199 44.46 87.8099 44.68C89.0099 45.1 90.0199 45.71 90.8499 46.34C92.5399 47.61 93.5399 49 94.2299 50.18C94.5799 50.77 94.8399 51.33 95.0299 51.82C95.2399 52.29 95.3899 52.79 95.5099 53.16C95.6199 53.52 95.6199 53.71 95.6699 53.88C95.6999 54.04 95.7099 54.13 95.7099 54.13C96.0799 56.15 94.5899 58.06 92.3999 58.39C90.8299 58.64 89.3199 58.01 88.4599 56.89Z" fill="#49362E" style="fill:#49362E;fill:color(display-p3 0.2863 0.2118 0.1804);fill-opacity:1;"/>
<path d="M88.4599 56.89C88.4599 56.89 88.4099 56.82 88.2999 56.69C88.1999 56.56 88.0599 56.38 87.8799 56.15C87.7299 55.99 87.5499 55.8 87.3399 55.58C87.1299 55.34 86.8699 55.09 86.6099 54.83C86.3399 54.58 86.0599 54.32 85.7699 54.11C85.4899 53.88 85.1799 53.71 84.9299 53.57C84.6699 53.41 84.4299 53.37 84.2799 53.32C84.1999 53.29 84.1299 53.29 84.0699 53.28C84.0399 53.29 84.0099 53.27 83.9799 53.28L83.9399 53.29H83.9199H83.9099H83.8999C84.0199 53.29 83.6299 53.3 84.1699 53.28L83.6199 53.3C83.4799 53.3 83.5699 53.31 83.5799 53.31C83.6099 53.31 83.6299 53.31 83.6499 53.3C83.7299 53.27 83.6499 53.3 83.6299 53.3C83.5999 53.3 83.5599 53.31 83.5199 53.33C83.3599 53.38 83.1199 53.42 82.8699 53.58C82.6199 53.72 82.3099 53.89 82.0299 54.12C81.7499 54.34 81.4599 54.59 81.1899 54.84C80.6699 55.35 80.2099 55.86 79.8899 56.23C79.5599 56.61 79.3799 56.83 79.3799 56.83L79.1499 57.1C77.7799 58.7 75.2599 58.97 73.5299 57.71C72.3499 56.85 71.8399 55.51 72.0599 54.23C72.0599 54.23 72.1299 53.82 72.3299 53.11C72.5399 52.4 72.8899 51.39 73.5799 50.2C74.2699 49.02 75.2699 47.63 76.9599 46.36C77.7899 45.74 78.7999 45.12 79.9999 44.7C80.2899 44.59 80.5999 44.49 80.9199 44.41C81.2499 44.33 81.5099 44.24 81.9599 44.18L82.5799 44.09C82.7699 44.07 83.0499 44.04 83.0899 44.04L83.6399 44L83.9499 43.99H83.9799H84.0399L84.1699 44H84.4099L84.9199 44.03C85.2599 44.06 85.5899 44.12 85.9199 44.17C86.5699 44.29 87.2199 44.46 87.8099 44.68C89.0099 45.1 90.0199 45.71 90.8499 46.34C92.5399 47.61 93.5399 49 94.2299 50.18C94.5799 50.77 94.8399 51.33 95.0299 51.82C95.2399 52.29 95.3899 52.79 95.5099 53.16C95.6199 53.52 95.6199 53.71 95.6699 53.88C95.6999 54.04 95.7099 54.13 95.7099 54.13C96.0799 56.15 94.5899 58.06 92.3999 58.39C90.8299 58.64 89.3199 58.01 88.4599 56.89Z" fill="#1A1717" style="fill:#1A1717;fill:color(display-p3 0.1020 0.0902 0.0902);fill-opacity:1;"/>
<path d="M88.4599 56.89C88.4599 56.89 88.4099 56.82 88.2999 56.69C88.1999 56.56 88.0599 56.38 87.8799 56.15C87.7299 55.99 87.5499 55.8 87.3399 55.58C87.1299 55.34 86.8699 55.09 86.6099 54.83C86.3399 54.58 86.0599 54.32 85.7699 54.11C85.4899 53.88 85.1799 53.71 84.9299 53.57C84.6699 53.41 84.4299 53.37 84.2799 53.32C84.1999 53.29 84.1299 53.29 84.0699 53.28C84.0399 53.29 84.0099 53.27 83.9799 53.28L83.9399 53.29H83.9199H83.9099H83.8999C84.0199 53.29 83.6299 53.3 84.1699 53.28L83.6199 53.3C83.4799 53.3 83.5699 53.31 83.5799 53.31C83.6099 53.31 83.6299 53.31 83.6499 53.3C83.7299 53.27 83.6499 53.3 83.6299 53.3C83.5999 53.3 83.5599 53.31 83.5199 53.33C83.3599 53.38 83.1199 53.42 82.8699 53.58C82.6199 53.72 82.3099 53.89 82.0299 54.12C81.7499 54.34 81.4599 54.59 81.1899 54.84C80.6699 55.35 80.2099 55.86 79.8899 56.23C79.5599 56.61 79.3799 56.83 79.3799 56.83L79.1499 57.1C77.7799 58.7 75.2599 58.97 73.5299 57.71C72.3499 56.85 71.8399 55.51 72.0599 54.23C72.0599 54.23 72.1299 53.82 72.3299 53.11C72.5399 52.4 72.8899 51.39 73.5799 50.2C74.2699 49.02 75.2699 47.63 76.9599 46.36C77.7899 45.74 78.7999 45.12 79.9999 44.7C80.2899 44.59 80.5999 44.49 80.9199 44.41C81.2499 44.33 81.5099 44.24 81.9599 44.18L82.5799 44.09C82.7699 44.07 83.0499 44.04 83.0899 44.04L83.6399 44L83.9499 43.99H83.9799H84.0399L84.1699 44H84.4099L84.9199 44.03C85.2599 44.06 85.5899 44.12 85.9199 44.17C86.5699 44.29 87.2199 44.46 87.8099 44.68C89.0099 45.1 90.0199 45.71 90.8499 46.34C92.5399 47.61 93.5399 49 94.2299 50.18C94.5799 50.77 94.8399 51.33 95.0299 51.82C95.2399 52.29 95.3899 52.79 95.5099 53.16C95.6199 53.52 95.6199 53.71 95.6699 53.88C95.6999 54.04 95.7099 54.13 95.7099 54.13C96.0799 56.15 94.5899 58.06 92.3999 58.39C90.8299 58.64 89.3199 58.01 88.4599 56.89Z" fill="#49362E" style="fill:#49362E;fill:color(display-p3 0.2863 0.2118 0.1804);fill-opacity:1;"/>
<path d="M64.02 93.99C51.45 93.99 41.51 88.04 36.03 81.67C35.48 81.03 35.35 80.17 35.7 79.42C36.05 78.65 36.81 78.15 37.63 78.15C38 78.15 38.38 78.25 38.71 78.44C44.36 81.7 53.85 85.73 63.99 85.73H64.15C74.3 85.73 83.78 81.69 89.43 78.44C89.77 78.25 90.14 78.14 90.51 78.15C91.33 78.15 92.09 78.65 92.44 79.42C92.78 80.17 92.66 81.04 92.11 81.67C86.63 88.03 76.68 93.99 64.12 93.99" fill="#1A1717" style="fill:#1A1717;fill:color(display-p3 0.1020 0.0902 0.0902);fill-opacity:1;"/>
<path d="M64.02 93.99C51.45 93.99 41.51 88.04 36.03 81.67C35.48 81.03 35.35 80.17 35.7 79.42C36.05 78.65 36.81 78.15 37.63 78.15C38 78.15 38.38 78.25 38.71 78.44C44.36 81.7 53.85 85.73 63.99 85.73H64.15C74.3 85.73 83.78 81.69 89.43 78.44C89.77 78.25 90.14 78.14 90.51 78.15C91.33 78.15 92.09 78.65 92.44 79.42C92.78 80.17 92.66 81.04 92.11 81.67C86.63 88.03 76.68 93.99 64.12 93.99" fill="#5D4037" style="fill:#5D4037;fill:color(display-p3 0.3647 0.2510 0.2157);fill-opacity:1;"/>
<defs>
<radialGradient id="paint0_radial_169_13562" cx="0" cy="0" r="1" gradientUnits="userSpaceOnUse" gradientTransform="translate(63.6001 62.8999) scale(56.9597 56.9597)">
<stop offset="0.5" stop-color="#FDE030" style="stop-color:#FDE030;stop-color:color(display-p3 0.9922 0.8784 0.1882);stop-opacity:1;"/>
<stop offset="0.9188" stop-color="#F7C02B" style="stop-color:#F7C02B;stop-color:color(display-p3 0.9686 0.7529 0.1686);stop-opacity:1;"/>
<stop offset="1" stop-color="#F4A223" style="stop-color:#F4A223;stop-color:color(display-p3 0.9569 0.6353 0.1373);stop-opacity:1;"/>
</radialGradient>
<radialGradient id="paint1_radial_169_13562" cx="0" cy="0" r="1" gradientUnits="userSpaceOnUse" gradientTransform="translate(38.5991 34.5377) rotate(-43.2082) scale(102.024 101.825)">
<stop offset="0.3533" stop-color="#F9DDBD" style="stop-color:#F9DDBD;stop-color:color(display-p3 0.9765 0.8667 0.7412);stop-opacity:1;"/>
<stop offset="0.8723" stop-color="#FFD29C" style="stop-color:#FFD29C;stop-color:color(display-p3 1.0000 0.8235 0.6118);stop-opacity:1;"/>
</radialGradient>
<radialGradient id="paint2_radial_169_13562" cx="0" cy="0" r="1" gradientUnits="userSpaceOnUse" gradientTransform="translate(38.5991 34.5377) rotate(-43.2082) scale(102.024 101.825)">
<stop offset="0.3533" stop-color="#70534A" style="stop-color:#70534A;stop-color:color(display-p3 0.4392 0.3255 0.2902);stop-opacity:1;"/>
<stop offset="0.8723" stop-color="#5C4037" style="stop-color:#5C4037;stop-color:color(display-p3 0.3608 0.2510 0.2157);stop-opacity:1;"/>
</radialGradient>
<radialGradient id="paint3_radial_169_13562" cx="0" cy="0" r="1" gradientUnits="userSpaceOnUse" gradientTransform="translate(38.5991 34.5377) rotate(-43.2082) scale(102.024 101.825)">
<stop offset="0.3533" stop-color="#A37A58" style="stop-color:#A37A58;stop-color:color(display-p3 0.6375 0.4772 0.3453);stop-opacity:1;"/>
<stop offset="0.8723" stop-color="#8D5738" style="stop-color:#8D5738;stop-color:color(display-p3 0.5529 0.3412 0.2196);stop-opacity:1;"/>
</radialGradient>
<radialGradient id="paint4_radial_169_13562" cx="0" cy="0" r="1" gradientUnits="userSpaceOnUse" gradientTransform="translate(38.5991 34.5377) rotate(-43.2082) scale(102.024 101.825)">
<stop offset="0.3533" stop-color="#AD8264" style="stop-color:#AD8264;stop-color:color(display-p3 0.6784 0.5098 0.3922);stop-opacity:1;"/>
<stop offset="0.8723" stop-color="#A47B62" style="stop-color:#A47B62;stop-color:color(display-p3 0.6431 0.4824 0.3843);stop-opacity:1;"/>
</radialGradient>
<radialGradient id="paint5_radial_169_13562" cx="0" cy="0" r="1" gradientUnits="userSpaceOnUse" gradientTransform="translate(27.2506 71.8287) scale(19.038 18.0852)">
<stop stop-color="#ED7770" style="stop-color:#ED7770;stop-color:color(display-p3 0.9294 0.4667 0.4392);stop-opacity:1;"/>
<stop offset="0.9" stop-color="#ED7770" stop-opacity="0" style="stop-color:none;stop-opacity:0;"/>
</radialGradient>
<radialGradient id="paint6_radial_169_13562" cx="0" cy="0" r="1" gradientUnits="userSpaceOnUse" gradientTransform="translate(100.752 71.8287) scale(19.038 18.0852)">
<stop stop-color="#ED7770" style="stop-color:#ED7770;stop-color:color(display-p3 0.9294 0.4667 0.4392);stop-opacity:1;"/>
<stop offset="0.9" stop-color="#ED7770" stop-opacity="0" style="stop-color:none;stop-opacity:0;"/>
</radialGradient>
</defs>
</svg>
