<svg width="128" height="128" viewBox="0 0 128 128" fill="none" xmlns="http://www.w3.org/2000/svg">
<path d="M63.6 118.8C35.7 118.8 5.60001 101.3 5.60001 62.9C5.60001 24.5 35.7 7 63.6 7C79.1 7 93.4 12.1 104 21.4C115.5 31.6 121.6 46 121.6 62.9C121.6 79.8 115.5 94.1 104 104.3C93.4 113.6 79 118.8 63.6 118.8Z" fill="url(#paint0_radial_169_8161)" style=""/>
<path d="M63.6 118.8C35.7 118.8 5.60001 101.3 5.60001 62.9C5.60001 24.5 35.7 7 63.6 7C79.1 7 93.4 12.1 104 21.4C115.5 31.6 121.6 46 121.6 62.9C121.6 79.8 115.5 94.1 104 104.3C93.4 113.6 79 118.8 63.6 118.8Z" fill="url(#paint1_radial_169_8161)" style=""/>
<path d="M63.6 118.8C35.7 118.8 5.60001 101.3 5.60001 62.9C5.60001 24.5 35.7 7 63.6 7C79.1 7 93.4 12.1 104 21.4C115.5 31.6 121.6 46 121.6 62.9C121.6 79.8 115.5 94.1 104 104.3C93.4 113.6 79 118.8 63.6 118.8Z" fill="url(#paint2_radial_169_8161)" style=""/>
<path d="M112.07 30C117.4 38.6 120.18 48.84 120.18 60.23C120.18 77.13 114.08 91.43 102.58 101.63C91.9799 110.93 77.5799 116.13 62.1799 116.13C44.1199 116.13 25.1799 108.78 13.9999 93.19C24.7599 110.85 44.9999 119.13 64.1799 119.13C79.5799 119.13 93.9799 113.93 104.58 104.63C116.08 94.43 122.18 80.13 122.18 63.23C122.18 50.49 118.71 39.17 112.07 30Z" fill="#EB8F00" style="fill:#EB8F00;fill:color(display-p3 0.9216 0.5608 0.0000);fill-opacity:1;"/>
<path d="M112.07 30C117.4 38.6 120.18 48.84 120.18 60.23C120.18 77.13 114.08 91.43 102.58 101.63C91.9799 110.93 77.5799 116.13 62.1799 116.13C44.1199 116.13 25.1799 108.78 13.9999 93.19C24.7599 110.85 44.9999 119.13 64.1799 119.13C79.5799 119.13 93.9799 113.93 104.58 104.63C116.08 94.43 122.18 80.13 122.18 63.23C122.18 50.49 118.71 39.17 112.07 30Z" fill="#F3B872" style="fill:#F3B872;fill:color(display-p3 0.9542 0.7229 0.4453);fill-opacity:1;"/>
<path d="M112.07 30C117.4 38.6 120.18 48.84 120.18 60.23C120.18 77.13 114.08 91.43 102.58 101.63C91.9799 110.93 77.5799 116.13 62.1799 116.13C44.1199 116.13 25.1799 108.78 13.9999 93.19C24.7599 110.85 44.9999 119.13 64.1799 119.13C79.5799 119.13 93.9799 113.93 104.58 104.63C116.08 94.43 122.18 80.13 122.18 63.23C122.18 50.49 118.71 39.17 112.07 30Z" fill="#BA8F63" style="fill:#BA8F63;fill:color(display-p3 0.7294 0.5608 0.3882);fill-opacity:1;"/>
<path d="M83.7896 92.4359C83.4567 92.4681 83.1236 92.4256 82.817 92.2899C77.3331 90.0077 71.351 89.2172 65.4664 89.981C59.5504 90.6363 53.9237 92.8439 49.1413 96.3788C48.8796 96.5829 48.5754 96.7139 48.2454 96.756C47.5205 96.8377 46.8096 96.4876 46.4249 95.8612C46.0431 95.2447 46.0643 94.4686 46.4684 93.8703C54.4104 82.1593 70.336 79.1066 82.047 87.0487C83.006 87.7012 83.9201 88.4202 84.7835 89.1859C85.327 89.6593 85.5442 90.4091 85.338 91.0997C85.1276 91.813 84.5186 92.3316 83.7896 92.4359Z" fill="#5D4037" style="fill:#5D4037;fill:color(display-p3 0.3647 0.2510 0.2157);fill-opacity:1;"/>
<path d="M80.3503 52.7759C84.5303 53.0641 88.0878 56.8578 87.6833 62.7239C87.2788 68.59 83.235 71.8495 79.055 71.5613C74.8749 71.2731 71.3174 67.4794 71.7212 61.6233C72.125 55.7672 76.1702 52.4877 80.3503 52.7759Z" fill="#5D4037" style="fill:#5D4037;fill:color(display-p3 0.3647 0.2510 0.2157);fill-opacity:1;"/>
<path d="M44.5497 52.0365C40.3696 51.7483 36.3252 55.0178 35.9214 60.8739C35.5176 66.73 39.0743 70.5337 43.2544 70.8219C47.4445 71.1108 51.479 67.8406 51.8835 61.9745C52.2879 56.1085 48.7398 52.3254 44.5497 52.0365Z" fill="#5D4037" style="fill:#5D4037;fill:color(display-p3 0.3647 0.2510 0.2157);fill-opacity:1;"/>
<path d="M44.8591 54.4714C46.2791 53.7914 47.9891 54.3914 48.6791 55.8114C49.2091 56.9214 48.9691 58.2514 48.0791 59.1114C46.6591 59.7914 44.9491 59.1914 44.2591 57.7714C43.7291 56.6614 43.9691 55.3314 44.8591 54.4714Z" fill="#836258" style="fill:#836258;fill:color(display-p3 0.5125 0.3838 0.3438);fill-opacity:1;"/>
<path d="M81.679 55.9903C83.109 55.3203 84.809 55.9303 85.489 57.3603C86.009 58.4703 85.769 59.7803 84.889 60.6303C83.459 61.3003 81.759 60.6903 81.079 59.2603C80.559 58.1603 80.799 56.8403 81.679 55.9903Z" fill="#836258" style="fill:#836258;fill:color(display-p3 0.5125 0.3838 0.3438);fill-opacity:1;"/>
<path d="M32.7991 39.3214C32.1882 38.7075 31.9142 37.8272 32.0693 36.9772C32.2535 36.1201 32.8561 35.4194 33.6761 35.1085C38.775 33.0048 44.4825 32.9556 49.6149 34.9584C51.5297 35.69 53.3161 36.6994 54.928 37.9669C55.0293 38.0454 55.1231 38.1359 55.2193 38.2361C56.1288 39.1072 56.2333 40.5221 55.4658 41.5198C54.649 42.6117 53.1448 42.9435 51.9473 42.2859L52.1962 41.5264L51.8411 42.2292C46.7252 39.6978 40.908 38.9504 35.327 40.1212C34.4034 40.3439 33.4307 40.064 32.7719 39.3794L32.7991 39.3214Z" fill="#5D4037" style="fill:#5D4037;fill:color(display-p3 0.3647 0.2510 0.2157);fill-opacity:1;"/>
<path d="M89.2728 47.6315C89.896 47.0595 90.2063 46.2132 90.1066 45.3732C89.9611 44.5133 89.4045 43.7835 88.6095 43.4299C83.5915 41.091 77.8579 40.7761 72.6233 42.573C70.68 43.2165 68.8482 44.1519 67.1816 45.3458L66.8715 45.5954C65.9307 46.4291 65.7661 47.8369 66.4875 48.8665C67.2615 49.9863 68.7232 50.3745 69.9482 49.7808L69.7607 49.0031L70.0796 49.7286C75.2799 47.405 81.1125 46.8936 86.6406 48.2764C87.5576 48.5388 88.5395 48.3021 89.2362 47.6506L89.2728 47.6315Z" fill="#5D4037" style="fill:#5D4037;fill:color(display-p3 0.3647 0.2510 0.2157);fill-opacity:1;"/>
<defs>
<radialGradient id="paint0_radial_169_8161" cx="0" cy="0" r="1" gradientUnits="userSpaceOnUse" gradientTransform="translate(63.6 62.9) scale(56.9597 56.9597)">
<stop offset="0.5" stop-color="#FDE030" style="stop-color:#FDE030;stop-color:color(display-p3 0.9922 0.8784 0.1882);stop-opacity:1;"/>
<stop offset="0.92" stop-color="#F7C02B" style="stop-color:#F7C02B;stop-color:color(display-p3 0.9686 0.7529 0.1686);stop-opacity:1;"/>
<stop offset="1" stop-color="#F4A223" style="stop-color:#F4A223;stop-color:color(display-p3 0.9569 0.6353 0.1373);stop-opacity:1;"/>
</radialGradient>
<radialGradient id="paint1_radial_169_8161" cx="0" cy="0" r="1" gradientUnits="userSpaceOnUse" gradientTransform="translate(38.599 34.5377) rotate(-43.2082) scale(102.024 101.825)">
<stop offset="0.3533" stop-color="#F9DDBD" style="stop-color:#F9DDBD;stop-color:color(display-p3 0.9765 0.8667 0.7412);stop-opacity:1;"/>
<stop offset="0.8723" stop-color="#FFD29C" style="stop-color:#FFD29C;stop-color:color(display-p3 1.0000 0.8235 0.6118);stop-opacity:1;"/>
</radialGradient>
<radialGradient id="paint2_radial_169_8161" cx="0" cy="0" r="1" gradientUnits="userSpaceOnUse" gradientTransform="translate(38.599 34.5377) rotate(-43.2082) scale(102.024 101.825)">
<stop offset="0.3533" stop-color="#E0BB95" style="stop-color:#E0BB95;stop-color:color(display-p3 0.8784 0.7333 0.5843);stop-opacity:1;"/>
<stop offset="0.8723" stop-color="#CCA47A" style="stop-color:#CCA47A;stop-color:color(display-p3 0.8000 0.6431 0.4784);stop-opacity:1;"/>
</radialGradient>
</defs>
</svg>
