<svg width="128" height="128" viewBox="0 0 128 128" fill="none" xmlns="http://www.w3.org/2000/svg">
<path d="M63.6001 118.8C35.7001 118.8 5.6001 101.3 5.6001 62.9C5.6001 24.5 35.7001 7 63.6001 7C79.1001 7 93.4001 12.1 104 21.4C115.5 31.6 121.6 46 121.6 62.9C121.6 79.8 115.5 94.1 104 104.3C93.4001 113.6 79.0001 118.8 63.6001 118.8Z" fill="url(#paint0_radial_169_12280)" style=""/>
<path d="M63.6001 118.8C35.7001 118.8 5.6001 101.3 5.6001 62.9C5.6001 24.5 35.7001 7 63.6001 7C79.1001 7 93.4001 12.1 104 21.4C115.5 31.6 121.6 46 121.6 62.9C121.6 79.8 115.5 94.1 104 104.3C93.4001 113.6 79.0001 118.8 63.6001 118.8Z" fill="url(#paint1_radial_169_12280)" style=""/>
<path d="M63.6001 118.8C35.7001 118.8 5.6001 101.3 5.6001 62.9C5.6001 24.5 35.7001 7 63.6001 7C79.1001 7 93.4001 12.1 104 21.4C115.5 31.6 121.6 46 121.6 62.9C121.6 79.8 115.5 94.1 104 104.3C93.4001 113.6 79.0001 118.8 63.6001 118.8Z" fill="url(#paint2_radial_169_12280)" style=""/>
<path d="M63.6001 118.8C35.7001 118.8 5.6001 101.3 5.6001 62.9C5.6001 24.5 35.7001 7 63.6001 7C79.1001 7 93.4001 12.1 104 21.4C115.5 31.6 121.6 46 121.6 62.9C121.6 79.8 115.5 94.1 104 104.3C93.4001 113.6 79.0001 118.8 63.6001 118.8Z" fill="url(#paint3_radial_169_12280)" style=""/>
<path d="M63.6001 118.8C35.7001 118.8 5.6001 101.3 5.6001 62.9C5.6001 24.5 35.7001 7 63.6001 7C79.1001 7 93.4001 12.1 104 21.4C115.5 31.6 121.6 46 121.6 62.9C121.6 79.8 115.5 94.1 104 104.3C93.4001 113.6 79.0001 118.8 63.6001 118.8Z" fill="url(#paint4_radial_169_12280)" style=""/>
<path d="M111.49 29.67C116.82 38.27 119.6 48.51 119.6 59.9C119.6 76.8 113.5 91.1 102 101.3C91.3999 110.6 76.9999 115.8 61.5999 115.8C43.5399 115.8 24.5599 108.45 13.4199 92.86C24.1799 110.52 44.4099 118.8 63.5999 118.8C78.9999 118.8 93.3999 113.6 104 104.3C115.5 94.1 121.6 79.8 121.6 62.9C121.6 50.16 118.13 38.84 111.49 29.67Z" fill="#EB8F00" style="fill:#EB8F00;fill:color(display-p3 0.9216 0.5608 0.0000);fill-opacity:1;"/>
<path d="M111.49 29.67C116.82 38.27 119.6 48.51 119.6 59.9C119.6 76.8 113.5 91.1 102 101.3C91.3999 110.6 76.9999 115.8 61.5999 115.8C43.5399 115.8 24.5599 108.45 13.4199 92.86C24.1799 110.52 44.4099 118.8 63.5999 118.8C78.9999 118.8 93.3999 113.6 104 104.3C115.5 94.1 121.6 79.8 121.6 62.9C121.6 50.16 118.13 38.84 111.49 29.67Z" fill="#F3B872" style="fill:#F3B872;fill:color(display-p3 0.9542 0.7229 0.4453);fill-opacity:1;"/>
<path d="M111.49 29.67C116.82 38.27 119.6 48.51 119.6 59.9C119.6 76.8 113.5 91.1 102 101.3C91.3999 110.6 76.9999 115.8 61.5999 115.8C43.5399 115.8 24.5599 108.45 13.4199 92.86C24.1799 110.52 44.4099 118.8 63.5999 118.8C78.9999 118.8 93.3999 113.6 104 104.3C115.5 94.1 121.6 79.8 121.6 62.9C121.6 50.16 118.13 38.84 111.49 29.67Z" fill="#91674D" style="fill:#91674D;fill:color(display-p3 0.5686 0.4039 0.3020);fill-opacity:1;"/>
<path opacity="0.5" d="M27.25 80.33C36.915 80.33 44.75 72.495 44.75 62.83C44.75 53.165 36.915 45.33 27.25 45.33C17.585 45.33 9.75 53.165 9.75 62.83C9.75 72.495 17.585 80.33 27.25 80.33Z" fill="url(#paint5_radial_169_12280)" style=""/>
<path opacity="0.5" d="M100.75 80.33C110.415 80.33 118.25 72.495 118.25 62.83C118.25 53.165 110.415 45.33 100.75 45.33C91.085 45.33 83.25 53.165 83.25 62.83C83.25 72.495 91.085 80.33 100.75 80.33Z" fill="url(#paint6_radial_169_12280)" style=""/>
<path d="M100.69 65.04C90.4199 71 77.7399 74.53 63.9999 74.53C50.2599 74.53 37.5799 71 27.3099 65.04C25.4199 63.95 23.4399 66.31 24.8499 67.96C34.1499 78.83 48.2299 85.76 63.9999 85.76C79.7699 85.76 93.8499 78.83 103.15 67.96C104.57 66.3 102.58 63.94 100.69 65.04Z" fill="#49362E" style="fill:#49362E;fill:color(display-p3 0.2863 0.2118 0.1804);fill-opacity:1;"/>
<path d="M100.69 65.04C90.4199 71 77.7399 74.53 63.9999 74.53C50.2599 74.53 37.5799 71 27.3099 65.04C25.4199 63.95 23.4399 66.31 24.8499 67.96C34.1499 78.83 48.2299 85.76 63.9999 85.76C79.7699 85.76 93.8499 78.83 103.15 67.96C104.57 66.3 102.58 63.94 100.69 65.04Z" fill="#1A1717" style="fill:#1A1717;fill:color(display-p3 0.1020 0.0902 0.0902);fill-opacity:1;"/>
<path d="M100.69 65.04C90.4199 71 77.7399 74.53 63.9999 74.53C50.2599 74.53 37.5799 71 27.3099 65.04C25.4199 63.95 23.4399 66.31 24.8499 67.96C34.1499 78.83 48.2299 85.76 63.9999 85.76C79.7699 85.76 93.8499 78.83 103.15 67.96C104.57 66.3 102.58 63.94 100.69 65.04Z" fill="#5D4037" style="fill:#5D4037;fill:color(display-p3 0.3647 0.2510 0.2157);fill-opacity:1;"/>
<path d="M49.5601 44.12C49.5601 44.12 49.5101 44.05 49.4001 43.92C49.3001 43.79 49.1601 43.61 48.9801 43.38C48.8301 43.22 48.6501 43.03 48.4401 42.81C48.2301 42.57 47.9701 42.32 47.7101 42.06C47.4401 41.81 47.1601 41.55 46.8701 41.34C46.5901 41.11 46.2801 40.94 46.0301 40.8C45.7701 40.64 45.5301 40.6 45.3801 40.55C45.3001 40.52 45.2301 40.52 45.1701 40.51C45.1401 40.52 45.1101 40.5 45.0801 40.51L45.0401 40.52H45.0201H45.0101C45.1301 40.52 44.7401 40.53 45.2801 40.51L44.7301 40.53C44.5901 40.53 44.6801 40.54 44.6901 40.54C44.7201 40.54 44.7401 40.54 44.7601 40.53C44.8401 40.5 44.7601 40.53 44.7401 40.53C44.7101 40.53 44.6701 40.54 44.6301 40.56C44.4701 40.61 44.2301 40.65 43.9801 40.81C43.7301 40.95 43.4201 41.12 43.1401 41.35C42.8601 41.57 42.5701 41.82 42.3001 42.07C41.7801 42.58 41.3201 43.09 41.0001 43.46C40.6701 43.84 40.4901 44.06 40.4901 44.06L40.2601 44.33C38.8901 45.93 36.3701 46.2 34.6401 44.94C33.4601 44.08 32.9501 42.74 33.1701 41.46C33.1701 41.46 33.2401 41.05 33.4401 40.34C33.6501 39.63 34.0001 38.62 34.6901 37.43C35.3801 36.25 36.3801 34.86 38.0701 33.59C38.9001 32.97 39.9101 32.35 41.1101 31.93C41.4001 31.82 41.7101 31.72 42.0301 31.64C42.3601 31.56 42.6201 31.47 43.0701 31.41L43.6901 31.32C43.8801 31.3 44.1601 31.27 44.2001 31.27L44.7501 31.23L45.0601 31.22H45.0901H45.1501L45.2801 31.23L45.5401 31.24L46.0501 31.27C46.3901 31.3 46.7201 31.36 47.0501 31.41C47.7001 31.53 48.3501 31.7 48.9401 31.92C50.1401 32.34 51.1501 32.95 51.9801 33.58C53.6701 34.85 54.6701 36.24 55.3601 37.42C55.7101 38.01 55.9701 38.57 56.1601 39.06C56.3701 39.53 56.5201 40.03 56.6401 40.4C56.7501 40.76 56.7501 40.95 56.8001 41.12C56.8301 41.28 56.8401 41.37 56.8401 41.37C57.2101 43.39 55.7201 45.3 53.5301 45.63C51.9401 45.88 50.4301 45.24 49.5601 44.12Z" fill="#49362E" style="fill:#49362E;fill:color(display-p3 0.2863 0.2118 0.1804);fill-opacity:1;"/>
<path d="M49.5601 44.12C49.5601 44.12 49.5101 44.05 49.4001 43.92C49.3001 43.79 49.1601 43.61 48.9801 43.38C48.8301 43.22 48.6501 43.03 48.4401 42.81C48.2301 42.57 47.9701 42.32 47.7101 42.06C47.4401 41.81 47.1601 41.55 46.8701 41.34C46.5901 41.11 46.2801 40.94 46.0301 40.8C45.7701 40.64 45.5301 40.6 45.3801 40.55C45.3001 40.52 45.2301 40.52 45.1701 40.51C45.1401 40.52 45.1101 40.5 45.0801 40.51L45.0401 40.52H45.0201H45.0101C45.1301 40.52 44.7401 40.53 45.2801 40.51L44.7301 40.53C44.5901 40.53 44.6801 40.54 44.6901 40.54C44.7201 40.54 44.7401 40.54 44.7601 40.53C44.8401 40.5 44.7601 40.53 44.7401 40.53C44.7101 40.53 44.6701 40.54 44.6301 40.56C44.4701 40.61 44.2301 40.65 43.9801 40.81C43.7301 40.95 43.4201 41.12 43.1401 41.35C42.8601 41.57 42.5701 41.82 42.3001 42.07C41.7801 42.58 41.3201 43.09 41.0001 43.46C40.6701 43.84 40.4901 44.06 40.4901 44.06L40.2601 44.33C38.8901 45.93 36.3701 46.2 34.6401 44.94C33.4601 44.08 32.9501 42.74 33.1701 41.46C33.1701 41.46 33.2401 41.05 33.4401 40.34C33.6501 39.63 34.0001 38.62 34.6901 37.43C35.3801 36.25 36.3801 34.86 38.0701 33.59C38.9001 32.97 39.9101 32.35 41.1101 31.93C41.4001 31.82 41.7101 31.72 42.0301 31.64C42.3601 31.56 42.6201 31.47 43.0701 31.41L43.6901 31.32C43.8801 31.3 44.1601 31.27 44.2001 31.27L44.7501 31.23L45.0601 31.22H45.0901H45.1501L45.2801 31.23L45.5401 31.24L46.0501 31.27C46.3901 31.3 46.7201 31.36 47.0501 31.41C47.7001 31.53 48.3501 31.7 48.9401 31.92C50.1401 32.34 51.1501 32.95 51.9801 33.58C53.6701 34.85 54.6701 36.24 55.3601 37.42C55.7101 38.01 55.9701 38.57 56.1601 39.06C56.3701 39.53 56.5201 40.03 56.6401 40.4C56.7501 40.76 56.7501 40.95 56.8001 41.12C56.8301 41.28 56.8401 41.37 56.8401 41.37C57.2101 43.39 55.7201 45.3 53.5301 45.63C51.9401 45.88 50.4301 45.24 49.5601 44.12Z" fill="#1A1717" style="fill:#1A1717;fill:color(display-p3 0.1020 0.0902 0.0902);fill-opacity:1;"/>
<path d="M49.5601 44.12C49.5601 44.12 49.5101 44.05 49.4001 43.92C49.3001 43.79 49.1601 43.61 48.9801 43.38C48.8301 43.22 48.6501 43.03 48.4401 42.81C48.2301 42.57 47.9701 42.32 47.7101 42.06C47.4401 41.81 47.1601 41.55 46.8701 41.34C46.5901 41.11 46.2801 40.94 46.0301 40.8C45.7701 40.64 45.5301 40.6 45.3801 40.55C45.3001 40.52 45.2301 40.52 45.1701 40.51C45.1401 40.52 45.1101 40.5 45.0801 40.51L45.0401 40.52H45.0201H45.0101C45.1301 40.52 44.7401 40.53 45.2801 40.51L44.7301 40.53C44.5901 40.53 44.6801 40.54 44.6901 40.54C44.7201 40.54 44.7401 40.54 44.7601 40.53C44.8401 40.5 44.7601 40.53 44.7401 40.53C44.7101 40.53 44.6701 40.54 44.6301 40.56C44.4701 40.61 44.2301 40.65 43.9801 40.81C43.7301 40.95 43.4201 41.12 43.1401 41.35C42.8601 41.57 42.5701 41.82 42.3001 42.07C41.7801 42.58 41.3201 43.09 41.0001 43.46C40.6701 43.84 40.4901 44.06 40.4901 44.06L40.2601 44.33C38.8901 45.93 36.3701 46.2 34.6401 44.94C33.4601 44.08 32.9501 42.74 33.1701 41.46C33.1701 41.46 33.2401 41.05 33.4401 40.34C33.6501 39.63 34.0001 38.62 34.6901 37.43C35.3801 36.25 36.3801 34.86 38.0701 33.59C38.9001 32.97 39.9101 32.35 41.1101 31.93C41.4001 31.82 41.7101 31.72 42.0301 31.64C42.3601 31.56 42.6201 31.47 43.0701 31.41L43.6901 31.32C43.8801 31.3 44.1601 31.27 44.2001 31.27L44.7501 31.23L45.0601 31.22H45.0901H45.1501L45.2801 31.23L45.5401 31.24L46.0501 31.27C46.3901 31.3 46.7201 31.36 47.0501 31.41C47.7001 31.53 48.3501 31.7 48.9401 31.92C50.1401 32.34 51.1501 32.95 51.9801 33.58C53.6701 34.85 54.6701 36.24 55.3601 37.42C55.7101 38.01 55.9701 38.57 56.1601 39.06C56.3701 39.53 56.5201 40.03 56.6401 40.4C56.7501 40.76 56.7501 40.95 56.8001 41.12C56.8301 41.28 56.8401 41.37 56.8401 41.37C57.2101 43.39 55.7201 45.3 53.5301 45.63C51.9401 45.88 50.4301 45.24 49.5601 44.12Z" fill="#49362E" style="fill:#49362E;fill:color(display-p3 0.2863 0.2118 0.1804);fill-opacity:1;"/>
<path d="M87.06 44.12C87.06 44.12 87.01 44.05 86.9 43.92C86.8 43.79 86.66 43.61 86.48 43.38C86.33 43.22 86.15 43.03 85.94 42.81C85.73 42.57 85.47 42.32 85.21 42.06C84.94 41.81 84.66 41.55 84.37 41.34C84.09 41.11 83.78 40.94 83.53 40.8C83.27 40.64 83.03 40.6 82.88 40.55C82.8 40.52 82.73 40.52 82.67 40.51C82.64 40.52 82.61 40.5 82.58 40.51L82.54 40.52H82.52H82.51H82.5C82.62 40.52 82.23 40.53 82.77 40.51L82.22 40.53C82.08 40.53 82.17 40.54 82.18 40.54C82.21 40.54 82.23 40.54 82.25 40.53C82.33 40.5 82.25 40.53 82.23 40.53C82.2 40.53 82.16 40.54 82.12 40.56C81.96 40.61 81.72 40.65 81.47 40.81C81.22 40.95 80.91 41.12 80.63 41.35C80.35 41.57 80.06 41.82 79.79 42.07C79.27 42.58 78.81 43.09 78.49 43.46C78.16 43.84 77.98 44.06 77.98 44.06L77.75 44.33C76.38 45.93 73.86 46.2 72.13 44.94C70.95 44.08 70.44 42.74 70.66 41.46C70.66 41.46 70.73 41.05 70.93 40.34C71.14 39.63 71.49 38.62 72.18 37.43C72.87 36.25 73.87 34.86 75.56 33.59C76.39 32.97 77.4 32.35 78.6 31.93C78.89 31.82 79.2 31.72 79.52 31.64C79.85 31.56 80.11 31.47 80.56 31.41L81.18 31.32C81.37 31.3 81.65 31.27 81.69 31.27L82.24 31.23L82.55 31.22H82.58H82.64L82.77 31.23L83.03 31.24L83.54 31.27C83.88 31.3 84.21 31.36 84.54 31.41C85.19 31.53 85.84 31.7 86.43 31.92C87.63 32.34 88.64 32.95 89.47 33.58C91.16 34.85 92.16 36.24 92.85 37.42C93.2 38.01 93.46 38.57 93.65 39.06C93.86 39.53 94.01 40.03 94.13 40.4C94.24 40.76 94.24 40.95 94.29 41.12C94.32 41.28 94.33 41.37 94.33 41.37C94.7 43.39 93.21 45.3 91.02 45.63C89.43 45.88 87.92 45.24 87.06 44.12Z" fill="#49362E" style="fill:#49362E;fill:color(display-p3 0.2863 0.2118 0.1804);fill-opacity:1;"/>
<path d="M87.06 44.12C87.06 44.12 87.01 44.05 86.9 43.92C86.8 43.79 86.66 43.61 86.48 43.38C86.33 43.22 86.15 43.03 85.94 42.81C85.73 42.57 85.47 42.32 85.21 42.06C84.94 41.81 84.66 41.55 84.37 41.34C84.09 41.11 83.78 40.94 83.53 40.8C83.27 40.64 83.03 40.6 82.88 40.55C82.8 40.52 82.73 40.52 82.67 40.51C82.64 40.52 82.61 40.5 82.58 40.51L82.54 40.52H82.52H82.51H82.5C82.62 40.52 82.23 40.53 82.77 40.51L82.22 40.53C82.08 40.53 82.17 40.54 82.18 40.54C82.21 40.54 82.23 40.54 82.25 40.53C82.33 40.5 82.25 40.53 82.23 40.53C82.2 40.53 82.16 40.54 82.12 40.56C81.96 40.61 81.72 40.65 81.47 40.81C81.22 40.95 80.91 41.12 80.63 41.35C80.35 41.57 80.06 41.82 79.79 42.07C79.27 42.58 78.81 43.09 78.49 43.46C78.16 43.84 77.98 44.06 77.98 44.06L77.75 44.33C76.38 45.93 73.86 46.2 72.13 44.94C70.95 44.08 70.44 42.74 70.66 41.46C70.66 41.46 70.73 41.05 70.93 40.34C71.14 39.63 71.49 38.62 72.18 37.43C72.87 36.25 73.87 34.86 75.56 33.59C76.39 32.97 77.4 32.35 78.6 31.93C78.89 31.82 79.2 31.72 79.52 31.64C79.85 31.56 80.11 31.47 80.56 31.41L81.18 31.32C81.37 31.3 81.65 31.27 81.69 31.27L82.24 31.23L82.55 31.22H82.58H82.64L82.77 31.23L83.03 31.24L83.54 31.27C83.88 31.3 84.21 31.36 84.54 31.41C85.19 31.53 85.84 31.7 86.43 31.92C87.63 32.34 88.64 32.95 89.47 33.58C91.16 34.85 92.16 36.24 92.85 37.42C93.2 38.01 93.46 38.57 93.65 39.06C93.86 39.53 94.01 40.03 94.13 40.4C94.24 40.76 94.24 40.95 94.29 41.12C94.32 41.28 94.33 41.37 94.33 41.37C94.7 43.39 93.21 45.3 91.02 45.63C89.43 45.88 87.92 45.24 87.06 44.12Z" fill="#1A1717" style="fill:#1A1717;fill:color(display-p3 0.1020 0.0902 0.0902);fill-opacity:1;"/>
<path d="M87.06 44.12C87.06 44.12 87.01 44.05 86.9 43.92C86.8 43.79 86.66 43.61 86.48 43.38C86.33 43.22 86.15 43.03 85.94 42.81C85.73 42.57 85.47 42.32 85.21 42.06C84.94 41.81 84.66 41.55 84.37 41.34C84.09 41.11 83.78 40.94 83.53 40.8C83.27 40.64 83.03 40.6 82.88 40.55C82.8 40.52 82.73 40.52 82.67 40.51C82.64 40.52 82.61 40.5 82.58 40.51L82.54 40.52H82.52H82.51H82.5C82.62 40.52 82.23 40.53 82.77 40.51L82.22 40.53C82.08 40.53 82.17 40.54 82.18 40.54C82.21 40.54 82.23 40.54 82.25 40.53C82.33 40.5 82.25 40.53 82.23 40.53C82.2 40.53 82.16 40.54 82.12 40.56C81.96 40.61 81.72 40.65 81.47 40.81C81.22 40.95 80.91 41.12 80.63 41.35C80.35 41.57 80.06 41.82 79.79 42.07C79.27 42.58 78.81 43.09 78.49 43.46C78.16 43.84 77.98 44.06 77.98 44.06L77.75 44.33C76.38 45.93 73.86 46.2 72.13 44.94C70.95 44.08 70.44 42.74 70.66 41.46C70.66 41.46 70.73 41.05 70.93 40.34C71.14 39.63 71.49 38.62 72.18 37.43C72.87 36.25 73.87 34.86 75.56 33.59C76.39 32.97 77.4 32.35 78.6 31.93C78.89 31.82 79.2 31.72 79.52 31.64C79.85 31.56 80.11 31.47 80.56 31.41L81.18 31.32C81.37 31.3 81.65 31.27 81.69 31.27L82.24 31.23L82.55 31.22H82.58H82.64L82.77 31.23L83.03 31.24L83.54 31.27C83.88 31.3 84.21 31.36 84.54 31.41C85.19 31.53 85.84 31.7 86.43 31.92C87.63 32.34 88.64 32.95 89.47 33.58C91.16 34.85 92.16 36.24 92.85 37.42C93.2 38.01 93.46 38.57 93.65 39.06C93.86 39.53 94.01 40.03 94.13 40.4C94.24 40.76 94.24 40.95 94.29 41.12C94.32 41.28 94.33 41.37 94.33 41.37C94.7 43.39 93.21 45.3 91.02 45.63C89.43 45.88 87.92 45.24 87.06 44.12Z" fill="#49362E" style="fill:#49362E;fill:color(display-p3 0.2863 0.2118 0.1804);fill-opacity:1;"/>
<path d="M110.78 1.22C103.72 4.05 103.1 12.08 103.1 12.08C103.1 12.08 98.4699 7.07 92.1999 9.18C84.6699 11.72 80.8799 19.8 86.9799 28.52C93.9599 38.49 116.36 41.33 116.36 41.33C116.36 41.33 128.89 24.96 127.15 11.98C125.74 1.43 116.12 -0.919996 110.78 1.22Z" fill="#F44336" style="fill:#F44336;fill:color(display-p3 0.9569 0.2627 0.2118);fill-opacity:1;"/>
<path d="M110.78 1.22C110.78 1.22 109.05 1.93 108.37 2.6C108.37 2.6 113.13 2.11 117.44 4.57C120.28 6.19 122.92 9.09 123.88 14.26C125.95 25.46 117.11 40.16 116.43 41.24C117.34 40.03 128.83 24.45 127.16 11.98C125.74 1.43 116.12 -0.919996 110.78 1.22Z" fill="#C62828" style="fill:#C62828;fill:color(display-p3 0.7765 0.1569 0.1569);fill-opacity:1;"/>
<path d="M103.77 12.96C103.08 12.13 102.26 11.41 101.76 11.01C99.2398 9.00001 97.1398 8.48001 94.4198 8.73001C91.6998 8.97001 89.2698 10.49 89.2698 10.49C89.2698 10.49 91.9098 9.49001 95.6598 11.28C97.6298 12.22 99.3598 13.62 100.81 15.26C101.33 15.85 101.85 16.49 102.55 16.84C103.25 17.19 104.23 17.14 104.71 16.51C105.46 15.49 104.74 14.12 103.77 12.96Z" fill="#C62828" style="fill:#C62828;fill:color(display-p3 0.7765 0.1569 0.1569);fill-opacity:1;"/>
<path d="M87.4198 20.13C87.4798 17.48 88.4498 14.24 91.6398 14.09C93.3398 14.01 95.0298 16.19 94.4398 18.21C93.4398 21.63 94.1798 22.81 94.6298 23.92C95.1598 25.26 95.9698 26.72 95.3998 28.04C94.8298 29.36 93.4998 29.45 91.7898 28.31C91.4098 28.07 87.2998 25.55 87.4198 20.13Z" fill="#FF847A" style="fill:#FF847A;fill:color(display-p3 1.0000 0.5176 0.4784);fill-opacity:1;"/>
<path d="M116.31 96.26C109.93 92.12 103.01 96.24 103.01 96.24C103.01 96.24 104.44 89.57 99.0999 85.66C92.6899 80.96 83.8999 82.53 80.2899 92.54C76.1599 103.99 86.7499 123.93 86.7499 123.93C86.7499 123.93 107.35 124.74 116.95 115.84C124.76 108.61 121.13 99.39 116.31 96.26Z" fill="#F44336" style="fill:#F44336;fill:color(display-p3 0.9569 0.2627 0.2118);fill-opacity:1;"/>
<path d="M116.31 96.26C116.31 96.26 114.73 95.26 113.79 95.08C113.79 95.08 116.93 98.69 117.41 103.63C117.72 106.89 116.87 110.72 113.2 114.48C105.24 122.63 88.1299 123.88 86.8599 123.94C88.3699 123.99 107.73 124.4 116.96 115.85C124.76 108.61 121.13 99.39 116.31 96.26Z" fill="#C62828" style="fill:#C62828;fill:color(display-p3 0.7765 0.1569 0.1569);fill-opacity:1;"/>
<path d="M102.67 97.3C102.95 96.26 103.07 95.18 103.11 94.54C103.3 91.32 102.51 89.3 100.75 87.22C98.9798 85.14 96.3398 84.02 96.3398 84.02C96.3398 84.02 98.6699 85.6 99.3699 89.7C99.7399 91.85 99.5898 94.07 99.0798 96.2C98.8998 96.97 98.6699 97.75 98.7999 98.53C98.9299 99.31 99.5198 100.08 100.31 100.1C101.58 100.14 102.28 98.76 102.67 97.3Z" fill="#C62828" style="fill:#C62828;fill:color(display-p3 0.7765 0.1569 0.1569);fill-opacity:1;"/>
<path d="M87.3898 88.07C89.5898 86.59 92.7898 85.51 94.7598 88.03C95.7998 89.37 94.9998 92 93.0098 92.69C89.6398 93.84 89.0998 95.13 88.4498 96.13C87.6698 97.34 86.9298 98.84 85.5198 99.13C84.1098 99.42 83.2798 98.39 83.2198 96.33C83.2098 95.91 82.8898 91.1 87.3898 88.07Z" fill="#FF847A" style="fill:#FF847A;fill:color(display-p3 1.0000 0.5176 0.4784);fill-opacity:1;"/>
<path d="M27.9899 59.77C20.8699 62.44 20.0699 70.45 20.0699 70.45C20.0699 70.45 15.5499 65.34 9.23994 67.31C1.64994 69.68 -2.31006 77.68 3.59994 86.53C10.3599 96.65 32.6899 99.98 32.6899 99.98C32.6899 99.98 45.5799 83.89 44.1299 70.88C42.9499 60.3 33.3799 57.75 27.9899 59.77Z" fill="#F44336" style="fill:#F44336;fill:color(display-p3 0.9569 0.2627 0.2118);fill-opacity:1;"/>
<path d="M27.99 59.77C27.99 59.77 26.25 60.45 25.55 61.1C25.55 61.1 30.3201 60.72 34.5801 63.27C37.3801 64.95 39.96 67.91 40.8 73.1C42.62 84.35 33.46 98.85 32.76 99.91C33.69 98.72 45.5301 83.39 44.1301 70.89C42.9501 60.3 33.38 57.75 27.99 59.77Z" fill="#C62828" style="fill:#C62828;fill:color(display-p3 0.7765 0.1569 0.1569);fill-opacity:1;"/>
<path d="M20.73 71.36C20.06 70.52 19.26 69.78 18.76 69.37C16.28 67.3 14.19 66.74 11.47 66.92C8.74003 67.1 6.28003 68.57 6.28003 68.57C6.28003 68.57 8.94003 67.63 12.65 69.5C14.6 70.48 16.3 71.92 17.71 73.59C18.22 74.19 18.72 74.84 19.42 75.2C20.12 75.56 21.1 75.54 21.58 74.92C22.36 73.92 21.67 72.53 20.73 71.36Z" fill="#C62828" style="fill:#C62828;fill:color(display-p3 0.7765 0.1569 0.1569);fill-opacity:1;"/>
<path d="M4.21988 78.16C4.33988 75.51 5.36988 72.29 8.56988 72.21C10.2699 72.17 11.9099 74.38 11.2699 76.39C10.1999 79.79 10.9099 80.98 11.3299 82.1C11.8399 83.45 12.6099 84.93 12.0099 86.24C11.4099 87.55 10.0799 87.61 8.38988 86.43C8.03988 86.18 3.98988 83.58 4.21988 78.16Z" fill="#FF847A" style="fill:#FF847A;fill:color(display-p3 1.0000 0.5176 0.4784);fill-opacity:1;"/>
<defs>
<radialGradient id="paint0_radial_169_12280" cx="0" cy="0" r="1" gradientUnits="userSpaceOnUse" gradientTransform="translate(63.6001 62.8999) scale(56.9597 56.9597)">
<stop offset="0.5" stop-color="#FDE030" style="stop-color:#FDE030;stop-color:color(display-p3 0.9922 0.8784 0.1882);stop-opacity:1;"/>
<stop offset="0.9188" stop-color="#F7C02B" style="stop-color:#F7C02B;stop-color:color(display-p3 0.9686 0.7529 0.1686);stop-opacity:1;"/>
<stop offset="1" stop-color="#F4A223" style="stop-color:#F4A223;stop-color:color(display-p3 0.9569 0.6353 0.1373);stop-opacity:1;"/>
</radialGradient>
<radialGradient id="paint1_radial_169_12280" cx="0" cy="0" r="1" gradientUnits="userSpaceOnUse" gradientTransform="translate(38.5991 34.5377) rotate(-43.2082) scale(102.024 101.825)">
<stop offset="0.3533" stop-color="#F9DDBD" style="stop-color:#F9DDBD;stop-color:color(display-p3 0.9765 0.8667 0.7412);stop-opacity:1;"/>
<stop offset="0.8723" stop-color="#FFD29C" style="stop-color:#FFD29C;stop-color:color(display-p3 1.0000 0.8235 0.6118);stop-opacity:1;"/>
</radialGradient>
<radialGradient id="paint2_radial_169_12280" cx="0" cy="0" r="1" gradientUnits="userSpaceOnUse" gradientTransform="translate(38.5991 34.5377) rotate(-43.2082) scale(102.024 101.825)">
<stop offset="0.3533" stop-color="#70534A" style="stop-color:#70534A;stop-color:color(display-p3 0.4392 0.3255 0.2902);stop-opacity:1;"/>
<stop offset="0.8723" stop-color="#5C4037" style="stop-color:#5C4037;stop-color:color(display-p3 0.3608 0.2510 0.2157);stop-opacity:1;"/>
</radialGradient>
<radialGradient id="paint3_radial_169_12280" cx="0" cy="0" r="1" gradientUnits="userSpaceOnUse" gradientTransform="translate(38.5991 34.5377) rotate(-43.2082) scale(102.024 101.825)">
<stop offset="0.3533" stop-color="#A37A58" style="stop-color:#A37A58;stop-color:color(display-p3 0.6375 0.4772 0.3453);stop-opacity:1;"/>
<stop offset="0.8723" stop-color="#8D5738" style="stop-color:#8D5738;stop-color:color(display-p3 0.5529 0.3412 0.2196);stop-opacity:1;"/>
</radialGradient>
<radialGradient id="paint4_radial_169_12280" cx="0" cy="0" r="1" gradientUnits="userSpaceOnUse" gradientTransform="translate(38.5991 34.5377) rotate(-43.2082) scale(102.024 101.825)">
<stop offset="0.3533" stop-color="#AD8264" style="stop-color:#AD8264;stop-color:color(display-p3 0.6784 0.5098 0.3922);stop-opacity:1;"/>
<stop offset="0.8723" stop-color="#A47B62" style="stop-color:#A47B62;stop-color:color(display-p3 0.6431 0.4824 0.3843);stop-opacity:1;"/>
</radialGradient>
<radialGradient id="paint5_radial_169_12280" cx="0" cy="0" r="1" gradientUnits="userSpaceOnUse" gradientTransform="translate(27.2506 62.8288) scale(19.038 18.0852)">
<stop stop-color="#ED7770" style="stop-color:#ED7770;stop-color:color(display-p3 0.9294 0.4667 0.4392);stop-opacity:1;"/>
<stop offset="0.9" stop-color="#ED7770" stop-opacity="0" style="stop-color:none;stop-opacity:0;"/>
</radialGradient>
<radialGradient id="paint6_radial_169_12280" cx="0" cy="0" r="1" gradientUnits="userSpaceOnUse" gradientTransform="translate(100.752 62.8288) scale(19.038 18.0852)">
<stop stop-color="#ED7770" style="stop-color:#ED7770;stop-color:color(display-p3 0.9294 0.4667 0.4392);stop-opacity:1;"/>
<stop offset="0.9" stop-color="#ED7770" stop-opacity="0" style="stop-color:none;stop-opacity:0;"/>
</radialGradient>
</defs>
</svg>
