<svg width="128" height="128" viewBox="0 0 128 128" fill="none" xmlns="http://www.w3.org/2000/svg">
<path d="M63.6001 118.8C35.7001 118.8 5.6001 101.3 5.6001 62.9C5.6001 24.5 35.7001 7 63.6001 7C79.1001 7 93.4001 12.1 104 21.4C115.5 31.6 121.6 46 121.6 62.9C121.6 79.8 115.5 94.1 104 104.3C93.4001 113.6 79.0001 118.8 63.6001 118.8Z" fill="url(#paint0_radial_169_12006)" style=""/>
<path d="M63.6001 118.8C35.7001 118.8 5.6001 101.3 5.6001 62.9C5.6001 24.5 35.7001 7 63.6001 7C79.1001 7 93.4001 12.1 104 21.4C115.5 31.6 121.6 46 121.6 62.9C121.6 79.8 115.5 94.1 104 104.3C93.4001 113.6 79.0001 118.8 63.6001 118.8Z" fill="url(#paint1_radial_169_12006)" style=""/>
<path d="M63.6001 118.8C35.7001 118.8 5.6001 101.3 5.6001 62.9C5.6001 24.5 35.7001 7 63.6001 7C79.1001 7 93.4001 12.1 104 21.4C115.5 31.6 121.6 46 121.6 62.9C121.6 79.8 115.5 94.1 104 104.3C93.4001 113.6 79.0001 118.8 63.6001 118.8Z" fill="url(#paint2_radial_169_12006)" style=""/>
<path d="M63.6001 118.8C35.7001 118.8 5.6001 101.3 5.6001 62.9C5.6001 24.5 35.7001 7 63.6001 7C79.1001 7 93.4001 12.1 104 21.4C115.5 31.6 121.6 46 121.6 62.9C121.6 79.8 115.5 94.1 104 104.3C93.4001 113.6 79.0001 118.8 63.6001 118.8Z" fill="url(#paint3_radial_169_12006)" style=""/>
<path d="M63.6001 118.8C35.7001 118.8 5.6001 101.3 5.6001 62.9C5.6001 24.5 35.7001 7 63.6001 7C79.1001 7 93.4001 12.1 104 21.4C115.5 31.6 121.6 46 121.6 62.9C121.6 79.8 115.5 94.1 104 104.3C93.4001 113.6 79.0001 118.8 63.6001 118.8Z" fill="url(#paint4_radial_169_12006)" style=""/>
<path d="M111.49 29.67C116.82 38.27 119.6 48.51 119.6 59.9C119.6 76.8 113.5 91.1 102 101.3C91.3999 110.6 76.9999 115.8 61.5999 115.8C43.5399 115.8 24.5999 108.45 13.4199 92.86C24.1799 110.52 44.4199 118.8 63.5999 118.8C78.9999 118.8 93.3999 113.6 104 104.3C115.5 94.1 121.6 79.8 121.6 62.9C121.6 50.16 118.13 38.84 111.49 29.67Z" fill="#F3B872" style="fill:#F3B872;fill:color(display-p3 0.9542 0.7229 0.4453);fill-opacity:1;"/>
<path d="M111.49 29.67C116.82 38.27 119.6 48.51 119.6 59.9C119.6 76.8 113.5 91.1 102 101.3C91.3999 110.6 76.9999 115.8 61.5999 115.8C43.5399 115.8 24.5999 108.45 13.4199 92.86C24.1799 110.52 44.4199 118.8 63.5999 118.8C78.9999 118.8 93.3999 113.6 104 104.3C115.5 94.1 121.6 79.8 121.6 62.9C121.6 50.16 118.13 38.84 111.49 29.67Z" fill="#91674D" style="fill:#91674D;fill:color(display-p3 0.5686 0.4039 0.3020);fill-opacity:1;"/>
<g opacity="0.9">
<path opacity="0.5" d="M101.65 87.75C111.282 87.75 119.09 80.5866 119.09 71.75C119.09 62.9134 111.282 55.75 101.65 55.75C92.0181 55.75 84.21 62.9134 84.21 71.75C84.21 80.5866 92.0181 87.75 101.65 87.75Z" fill="url(#paint5_radial_169_12006)" style=""/>
</g>
<path d="M122.24 44C120.34 42.1 117.27 42.1 115.37 44L80.7601 78.56L75.8301 83.5C79.5801 84.05 83.2601 84.96 86.8301 86.23L90.3001 82.75L111 62.31L112.24 61.21L122.24 50.83C124.1 48.93 124.1 45.9 122.24 44Z" fill="#E6E6E6" style="fill:#E6E6E6;fill:color(display-p3 0.9020 0.9020 0.9020);fill-opacity:1;"/>
<path d="M109.05 58C107.79 56.74 105.75 56.74 104.49 58L78.1001 83.89C80.4701 84.32 82.8001 84.9 85.1001 85.62L109.1 62.62C110.36 61.35 110.36 59.3 109.09 58.04C109.08 58.03 109.06 58.01 109.05 58Z" fill="#FF0000" style="fill:#FF0000;fill:color(display-p3 1.0000 0.0000 0.0000);fill-opacity:1;"/>
<path d="M64.1097 75.93C56.0297 75.86 48.0697 77.89 40.9997 81.8C38.3697 83.19 40.1396 86.72 42.3496 85.94C49.3196 83.58 56.6397 82.45 63.9997 82.61C67.9597 82.6 71.9197 82.9 75.8297 83.5L80.7597 78.56C75.3797 76.82 69.7597 75.93 64.1097 75.93Z" fill="#49362E" style="fill:#49362E;fill:color(display-p3 0.2863 0.2118 0.1804);fill-opacity:1;"/>
<path d="M64.1097 75.93C56.0297 75.86 48.0697 77.89 40.9997 81.8C38.3697 83.19 40.1396 86.72 42.3496 85.94C49.3196 83.58 56.6397 82.45 63.9997 82.61C67.9597 82.6 71.9197 82.9 75.8297 83.5L80.7597 78.56C75.3797 76.82 69.7597 75.93 64.1097 75.93Z" fill="#1A1717" style="fill:#1A1717;fill:color(display-p3 0.1020 0.0902 0.0902);fill-opacity:1;"/>
<path d="M64.1097 75.93C56.0297 75.86 48.0697 77.89 40.9997 81.8C38.3697 83.19 40.1396 86.72 42.3496 85.94C49.3196 83.58 56.6397 82.45 63.9997 82.61C67.9597 82.6 71.9197 82.9 75.8297 83.5L80.7597 78.56C75.3797 76.82 69.7597 75.93 64.1097 75.93Z" fill="#5D4037" style="fill:#5D4037;fill:color(display-p3 0.3647 0.2510 0.2157);fill-opacity:1;"/>
<path d="M90.8996 86.33C91.7696 85.44 91.7496 84.02 90.8696 83.15C90.7396 83.02 90.5896 82.91 90.4196 82.81L90.3196 82.75L86.8496 86.23C87.4596 86.45 87.9796 86.66 88.3996 86.84C89.2596 87.2 90.2496 87 90.8996 86.33Z" fill="#49362E" style="fill:#49362E;fill:color(display-p3 0.2863 0.2118 0.1804);fill-opacity:1;"/>
<path d="M86.8398 86.23L90.3198 82.75L86.8398 86.23Z" fill="#E6E6E6" style="fill:#E6E6E6;fill:color(display-p3 0.9020 0.9020 0.9020);fill-opacity:1;"/>
<path d="M118.69 54.52L115.94 51.78C115.6 51.44 115.6 50.89 115.94 50.55C116.28 50.21 116.83 50.21 117.17 50.55L119.89 53.27L118.69 54.52Z" fill="#404040" style="fill:#404040;fill:color(display-p3 0.2510 0.2510 0.2510);fill-opacity:1;"/>
<path d="M113.62 59.79L112.1 58.26C111.77 57.92 111.77 57.37 112.1 57.03C112.44 56.69 112.99 56.69 113.33 57.03L114.82 58.53L113.62 59.79Z" fill="#404040" style="fill:#404040;fill:color(display-p3 0.2510 0.2510 0.2510);fill-opacity:1;"/>
<path d="M103.86 69.45L102.37 68C102.03 67.66 102.03 67.11 102.37 66.77C102.71 66.43 103.26 66.43 103.6 66.77L105.1 68.23L103.86 69.45Z" fill="#404040" style="fill:#404040;fill:color(display-p3 0.2510 0.2510 0.2510);fill-opacity:1;"/>
<path d="M93.9997 79.13L92.6197 77.74C92.2797 77.4 92.2797 76.85 92.6197 76.51C92.9597 76.17 93.5097 76.17 93.8497 76.51L95.2397 77.91L93.9997 79.13Z" fill="#404040" style="fill:#404040;fill:color(display-p3 0.2510 0.2510 0.2510);fill-opacity:1;"/>
<path d="M109 64.42L106.29 61.66C105.95 61.32 105.95 60.77 106.29 60.43C106.63 60.09 107.18 60.09 107.52 60.43L110.24 63.2L109 64.42Z" fill="#404040" style="fill:#404040;fill:color(display-p3 0.2510 0.2510 0.2510);fill-opacity:1;"/>
<path d="M99.2296 74L96.4596 71.26C96.1196 70.92 96.1196 70.37 96.4596 70.03C96.7996 69.69 97.3496 69.69 97.6896 70.03L100.47 72.78L99.2296 74Z" fill="#404040" style="fill:#404040;fill:color(display-p3 0.2510 0.2510 0.2510);fill-opacity:1;"/>
<path d="M89.3898 83.68L86.7198 81C86.3798 80.66 86.3798 80.11 86.7198 79.77C87.0598 79.43 87.6098 79.43 87.9498 79.77L90.6298 82.45L89.3898 83.68Z" fill="#404040" style="fill:#404040;fill:color(display-p3 0.2510 0.2510 0.2510);fill-opacity:1;"/>
<path d="M45.9996 38.59C47.0096 38.63 47.8596 37.84 47.8996 36.83C47.9396 35.82 47.1496 34.97 46.1396 34.93C44.1996 34.68 42.2296 34.76 40.3196 35.17C35.1196 36.14 30.4796 39.03 27.3196 43.27C25.8996 45.33 28.5696 47.1 30.2196 45.58C34.5096 41.48 40.0996 39.01 46.0196 38.58" fill="#49362E" style="fill:#49362E;fill:color(display-p3 0.2863 0.2118 0.1804);fill-opacity:1;"/>
<path d="M45.9996 38.59C47.0096 38.63 47.8596 37.84 47.8996 36.83C47.9396 35.82 47.1496 34.97 46.1396 34.93C44.1996 34.68 42.2296 34.76 40.3196 35.17C35.1196 36.14 30.4796 39.03 27.3196 43.27C25.8996 45.33 28.5696 47.1 30.2196 45.58C34.5096 41.48 40.0996 39.01 46.0196 38.58" fill="#1A1717" style="fill:#1A1717;fill:color(display-p3 0.1020 0.0902 0.0902);fill-opacity:1;"/>
<path d="M45.9996 38.59C47.0096 38.63 47.8596 37.84 47.8996 36.83C47.9396 35.82 47.1496 34.97 46.1396 34.93C44.1996 34.68 42.2296 34.76 40.3196 35.17C35.1196 36.14 30.4796 39.03 27.3196 43.27C25.8996 45.33 28.5696 47.1 30.2196 45.58C34.5096 41.48 40.0996 39.01 46.0196 38.58" fill="#613E31" style="fill:#613E31;fill:color(display-p3 0.3804 0.2431 0.1922);fill-opacity:1;"/>
<path d="M81.9198 38.79C80.9098 38.83 80.0598 38.04 80.0298 37.02C79.9898 36.01 80.7798 35.16 81.7898 35.13C83.7298 34.89 85.6998 34.97 87.6098 35.38C92.8098 36.35 97.4498 39.25 100.61 43.49C102.03 45.55 99.3598 47.31 97.7098 45.8C93.4198 41.7 87.8398 39.23 81.9198 38.8" fill="#49362E" style="fill:#49362E;fill:color(display-p3 0.2863 0.2118 0.1804);fill-opacity:1;"/>
<path d="M81.9198 38.79C80.9098 38.83 80.0598 38.04 80.0298 37.02C79.9898 36.01 80.7798 35.16 81.7898 35.13C83.7298 34.89 85.6998 34.97 87.6098 35.38C92.8098 36.35 97.4498 39.25 100.61 43.49C102.03 45.55 99.3598 47.31 97.7098 45.8C93.4198 41.7 87.8398 39.23 81.9198 38.8" fill="#1A1717" style="fill:#1A1717;fill:color(display-p3 0.1020 0.0902 0.0902);fill-opacity:1;"/>
<path d="M81.9198 38.79C80.9098 38.83 80.0598 38.04 80.0298 37.02C79.9898 36.01 80.7798 35.16 81.7898 35.13C83.7298 34.89 85.6998 34.97 87.6098 35.38C92.8098 36.35 97.4498 39.25 100.61 43.49C102.03 45.55 99.3598 47.31 97.7098 45.8C93.4198 41.7 87.8398 39.23 81.9198 38.8" fill="#613E31" style="fill:#613E31;fill:color(display-p3 0.3804 0.2431 0.1922);fill-opacity:1;"/>
<path d="M44 45.94C39.81 45.94 36 49.48 36 55.36C36 61.24 39.81 64.77 44 64.77C48.2 64.77 52 61.23 52 55.36C52 49.49 48.24 45.94 44 45.94Z" fill="#49362E" style="fill:#49362E;fill:color(display-p3 0.2863 0.2118 0.1804);fill-opacity:1;"/>
<path d="M44 45.94C39.81 45.94 36 49.48 36 55.36C36 61.24 39.81 64.77 44 64.77C48.2 64.77 52 61.23 52 55.36C52 49.49 48.24 45.94 44 45.94Z" fill="#1A1717" style="fill:#1A1717;fill:color(display-p3 0.1020 0.0902 0.0902);fill-opacity:1;"/>
<path d="M44 45.94C39.81 45.94 36 49.48 36 55.36C36 61.24 39.81 64.77 44 64.77C48.2 64.77 52 61.23 52 55.36C52 49.49 48.24 45.94 44 45.94Z" fill="#49362E" style="fill:#49362E;fill:color(display-p3 0.2863 0.2118 0.1804);fill-opacity:1;"/>
<path d="M43.65 49.87C42.23 49.19 40.52 49.79 39.83 51.21C39.3 52.32 39.54 53.65 40.43 54.51C41.85 55.19 43.56 54.59 44.25 53.17C44.78 52.06 44.54 50.73 43.65 49.87Z" fill="#555050" style="fill:#555050;fill:color(display-p3 0.3333 0.3125 0.3125);fill-opacity:1;"/>
<path d="M43.65 49.87C42.23 49.19 40.52 49.79 39.83 51.21C39.3 52.32 39.54 53.65 40.43 54.51C41.85 55.19 43.56 54.59 44.25 53.17C44.78 52.06 44.54 50.73 43.65 49.87Z" fill="#6A564E" style="fill:#6A564E;fill:color(display-p3 0.4167 0.3385 0.3056);fill-opacity:1;"/>
<path d="M82.3999 45.94C78.2099 45.94 74.3999 49.48 74.3999 55.36C74.3999 61.24 78.2099 64.77 82.3999 64.77C86.5899 64.77 90.3999 61.23 90.3999 55.36C90.3999 49.49 86.5899 45.94 82.3999 45.94Z" fill="#49362E" style="fill:#49362E;fill:color(display-p3 0.2863 0.2118 0.1804);fill-opacity:1;"/>
<path d="M82.3999 45.94C78.2099 45.94 74.3999 49.48 74.3999 55.36C74.3999 61.24 78.2099 64.77 82.3999 64.77C86.5899 64.77 90.3999 61.23 90.3999 55.36C90.3999 49.49 86.5899 45.94 82.3999 45.94Z" fill="#1A1717" style="fill:#1A1717;fill:color(display-p3 0.1020 0.0902 0.0902);fill-opacity:1;"/>
<path d="M82.3999 45.94C78.2099 45.94 74.3999 49.48 74.3999 55.36C74.3999 61.24 78.2099 64.77 82.3999 64.77C86.5899 64.77 90.3999 61.23 90.3999 55.36C90.3999 49.49 86.5899 45.94 82.3999 45.94Z" fill="#1A1717" style="fill:#1A1717;fill:color(display-p3 0.1020 0.0902 0.0902);fill-opacity:1;"/>
<path d="M82.3999 45.94C78.2099 45.94 74.3999 49.48 74.3999 55.36C74.3999 61.24 78.2099 64.77 82.3999 64.77C86.5899 64.77 90.3999 61.23 90.3999 55.36C90.3999 49.49 86.5899 45.94 82.3999 45.94Z" fill="#49362E" style="fill:#49362E;fill:color(display-p3 0.2863 0.2118 0.1804);fill-opacity:1;"/>
<path d="M81.9996 49.87C80.5796 49.19 78.8696 49.79 78.1796 51.21C77.6496 52.32 77.8896 53.65 78.7796 54.51C80.1996 55.19 81.9096 54.59 82.5996 53.17C83.1296 52.06 82.8896 50.73 81.9996 49.87Z" fill="#555050" style="fill:#555050;fill:color(display-p3 0.3333 0.3125 0.3125);fill-opacity:1;"/>
<path d="M81.9996 49.87C80.5796 49.19 78.8696 49.79 78.1796 51.21C77.6496 52.32 77.8896 53.65 78.7796 54.51C80.1996 55.19 81.9096 54.59 82.5996 53.17C83.1296 52.06 82.8896 50.73 81.9996 49.87Z" fill="#6A564E" style="fill:#6A564E;fill:color(display-p3 0.4167 0.3385 0.3056);fill-opacity:1;"/>
<g opacity="0.9">
<path opacity="0.5" d="M27.4498 90.44C37.0816 90.44 44.8898 83.2766 44.8898 74.44C44.8898 65.6034 37.0816 58.44 27.4498 58.44C17.8179 58.44 10.0098 65.6034 10.0098 74.44C10.0098 83.2766 17.8179 90.44 27.4498 90.44Z" fill="url(#paint6_radial_169_12006)" style=""/>
</g>
<defs>
<radialGradient id="paint0_radial_169_12006" cx="0" cy="0" r="1" gradientUnits="userSpaceOnUse" gradientTransform="translate(63.6001 62.8999) scale(56.9597 56.9597)">
<stop offset="0.5" stop-color="#FDE030" style="stop-color:#FDE030;stop-color:color(display-p3 0.9922 0.8784 0.1882);stop-opacity:1;"/>
<stop offset="0.92" stop-color="#F7C02B" style="stop-color:#F7C02B;stop-color:color(display-p3 0.9686 0.7529 0.1686);stop-opacity:1;"/>
<stop offset="1" stop-color="#F4A223" style="stop-color:#F4A223;stop-color:color(display-p3 0.9569 0.6353 0.1373);stop-opacity:1;"/>
</radialGradient>
<radialGradient id="paint1_radial_169_12006" cx="0" cy="0" r="1" gradientUnits="userSpaceOnUse" gradientTransform="translate(38.5991 34.5377) rotate(-43.2082) scale(102.024 101.825)">
<stop offset="0.3533" stop-color="#F9DDBD" style="stop-color:#F9DDBD;stop-color:color(display-p3 0.9765 0.8667 0.7412);stop-opacity:1;"/>
<stop offset="0.8723" stop-color="#FFD29C" style="stop-color:#FFD29C;stop-color:color(display-p3 1.0000 0.8235 0.6118);stop-opacity:1;"/>
</radialGradient>
<radialGradient id="paint2_radial_169_12006" cx="0" cy="0" r="1" gradientUnits="userSpaceOnUse" gradientTransform="translate(38.5991 34.5377) rotate(-43.2082) scale(102.024 101.825)">
<stop offset="0.3533" stop-color="#70534A" style="stop-color:#70534A;stop-color:color(display-p3 0.4392 0.3255 0.2902);stop-opacity:1;"/>
<stop offset="0.8723" stop-color="#5C4037" style="stop-color:#5C4037;stop-color:color(display-p3 0.3608 0.2510 0.2157);stop-opacity:1;"/>
</radialGradient>
<radialGradient id="paint3_radial_169_12006" cx="0" cy="0" r="1" gradientUnits="userSpaceOnUse" gradientTransform="translate(38.5991 34.5377) rotate(-43.2082) scale(102.024 101.825)">
<stop offset="0.3533" stop-color="#A37A58" style="stop-color:#A37A58;stop-color:color(display-p3 0.6375 0.4772 0.3453);stop-opacity:1;"/>
<stop offset="0.8723" stop-color="#8D5738" style="stop-color:#8D5738;stop-color:color(display-p3 0.5529 0.3412 0.2196);stop-opacity:1;"/>
</radialGradient>
<radialGradient id="paint4_radial_169_12006" cx="0" cy="0" r="1" gradientUnits="userSpaceOnUse" gradientTransform="translate(38.5991 34.5377) rotate(-43.2082) scale(102.024 101.825)">
<stop offset="0.3533" stop-color="#AD8264" style="stop-color:#AD8264;stop-color:color(display-p3 0.6784 0.5098 0.3922);stop-opacity:1;"/>
<stop offset="0.8723" stop-color="#A47B62" style="stop-color:#A47B62;stop-color:color(display-p3 0.6431 0.4824 0.3843);stop-opacity:1;"/>
</radialGradient>
<radialGradient id="paint5_radial_169_12006" cx="0" cy="0" r="1" gradientUnits="userSpaceOnUse" gradientTransform="translate(101.6 71.8978) scale(18.9659 16.6218)">
<stop stop-color="#ED7770" style="stop-color:#ED7770;stop-color:color(display-p3 0.9294 0.4667 0.4392);stop-opacity:1;"/>
<stop offset="0.08" stop-color="#ED7770" stop-opacity="0.97" style="stop-color:#ED7770;stop-color:color(display-p3 0.9294 0.4667 0.4392);stop-opacity:0.97;"/>
<stop offset="0.21" stop-color="#ED7770" stop-opacity="0.88" style="stop-color:#ED7770;stop-color:color(display-p3 0.9294 0.4667 0.4392);stop-opacity:0.88;"/>
<stop offset="0.35" stop-color="#ED7770" stop-opacity="0.74" style="stop-color:#ED7770;stop-color:color(display-p3 0.9294 0.4667 0.4392);stop-opacity:0.74;"/>
<stop offset="0.52" stop-color="#ED7770" stop-opacity="0.55" style="stop-color:#ED7770;stop-color:color(display-p3 0.9294 0.4667 0.4392);stop-opacity:0.55;"/>
<stop offset="0.71" stop-color="#ED7770" stop-opacity="0.29" style="stop-color:#ED7770;stop-color:color(display-p3 0.9294 0.4667 0.4392);stop-opacity:0.29;"/>
<stop offset="0.9" stop-color="#ED7770" stop-opacity="0" style="stop-color:none;stop-opacity:0;"/>
</radialGradient>
<radialGradient id="paint6_radial_169_12006" cx="0" cy="0" r="1" gradientUnits="userSpaceOnUse" gradientTransform="translate(27.4498 74.5842) scale(18.9545 16.6118)">
<stop stop-color="#ED7770" style="stop-color:#ED7770;stop-color:color(display-p3 0.9294 0.4667 0.4392);stop-opacity:1;"/>
<stop offset="0.08" stop-color="#ED7770" stop-opacity="0.97" style="stop-color:#ED7770;stop-color:color(display-p3 0.9294 0.4667 0.4392);stop-opacity:0.97;"/>
<stop offset="0.21" stop-color="#ED7770" stop-opacity="0.88" style="stop-color:#ED7770;stop-color:color(display-p3 0.9294 0.4667 0.4392);stop-opacity:0.88;"/>
<stop offset="0.35" stop-color="#ED7770" stop-opacity="0.74" style="stop-color:#ED7770;stop-color:color(display-p3 0.9294 0.4667 0.4392);stop-opacity:0.74;"/>
<stop offset="0.52" stop-color="#ED7770" stop-opacity="0.55" style="stop-color:#ED7770;stop-color:color(display-p3 0.9294 0.4667 0.4392);stop-opacity:0.55;"/>
<stop offset="0.71" stop-color="#ED7770" stop-opacity="0.29" style="stop-color:#ED7770;stop-color:color(display-p3 0.9294 0.4667 0.4392);stop-opacity:0.29;"/>
<stop offset="0.9" stop-color="#ED7770" stop-opacity="0" style="stop-color:none;stop-opacity:0;"/>
</radialGradient>
</defs>
</svg>
