<svg width="128" height="128" viewBox="0 0 128 128" fill="none" xmlns="http://www.w3.org/2000/svg">
<path d="M63.6001 118.8C35.7001 118.8 5.6001 101.3 5.6001 62.9C5.6001 24.5 35.7001 7 63.6001 7C79.1001 7 93.4001 12.1 104 21.4C115.5 31.6 121.6 46 121.6 62.9C121.6 79.8 115.5 94.1 104 104.3C93.4001 113.6 79.0001 118.8 63.6001 118.8Z" fill="url(#paint0_radial_169_5704)" style=""/>
<path d="M63.6001 118.8C35.7001 118.8 5.6001 101.3 5.6001 62.9C5.6001 24.5 35.7001 7 63.6001 7C79.1001 7 93.4001 12.1 104 21.4C115.5 31.6 121.6 46 121.6 62.9C121.6 79.8 115.5 94.1 104 104.3C93.4001 113.6 79.0001 118.8 63.6001 118.8Z" fill="url(#paint1_radial_169_5704)" style=""/>
<path d="M111.49 29.67C116.82 38.27 119.6 48.51 119.6 59.9C119.6 76.8 113.5 91.1 102 101.3C91.4002 110.6 77.0002 115.8 61.6002 115.8C43.5402 115.8 24.6002 108.45 13.4202 92.86C24.1802 110.52 44.4202 118.8 63.6002 118.8C79.0002 118.8 93.4002 113.6 104 104.3C115.5 94.1001 121.6 79.8 121.6 62.9C121.6 50.16 118.13 38.84 111.49 29.67Z" fill="#EB8F00" style="fill:#EB8F00;fill:color(display-p3 0.9216 0.5608 0.0000);fill-opacity:1;"/>
<path d="M111.49 29.67C116.82 38.27 119.6 48.51 119.6 59.9C119.6 76.8 113.5 91.1 102 101.3C91.4002 110.6 77.0002 115.8 61.6002 115.8C43.5402 115.8 24.6002 108.45 13.4202 92.86C24.1802 110.52 44.4202 118.8 63.6002 118.8C79.0002 118.8 93.4002 113.6 104 104.3C115.5 94.1001 121.6 79.8 121.6 62.9C121.6 50.16 118.13 38.84 111.49 29.67Z" fill="#F3B872" style="fill:#F3B872;fill:color(display-p3 0.9542 0.7229 0.4453);fill-opacity:1;"/>
<path d="M31.1899 56.05L43.3699 53.69L30.8199 48.48L30.3999 48.25C28.3499 47.17 27.5699 44.64 28.6499 42.59C28.9099 42.1 29.2599 41.67 29.6799 41.32C31.6799 39.79 34.4199 39.67 36.5499 41.02L57.83 54.02C58.37 54.13 58.7199 54.66 58.6099 55.2C58.5099 55.67 58.0899 56.01 57.6099 56L34.6999 64.59C34.5399 64.65 34.3799 64.71 34.2199 64.75C31.2199 65.59 27.8899 63.86 27.4199 60.97C27.0699 58.77 28.7699 56.72 31.1899 56.05Z" fill="#312D2D" style="fill:#312D2D;fill:color(display-p3 0.1922 0.1765 0.1765);fill-opacity:1;"/>
<path d="M94.8099 55.8L82.6299 53.44L95.1799 48.23L95.5999 48C97.6499 46.92 98.4299 44.39 97.3499 42.34C97.0899 41.85 96.7399 41.42 96.3199 41.07C94.3199 39.54 91.5799 39.42 89.4499 40.77L68.1699 53.77C67.6499 53.96 67.3899 54.54 67.5799 55.05C67.7099 55.4 68.0199 55.65 68.3899 55.7L91.2999 64.3C91.4599 64.36 91.6199 64.42 91.7799 64.46C94.7799 65.3 98.1099 63.57 98.5799 60.68C98.9299 58.52 97.2299 56.47 94.8099 55.8Z" fill="#312D2D" style="fill:#312D2D;fill:color(display-p3 0.1922 0.1765 0.1765);fill-opacity:1;"/>
<path d="M102.07 71.62C100.67 69.09 97.6299 67.98 94.9299 69C84.6699 71.99 74.0299 73.48 63.3399 73.43C52.6499 73.48 42.0099 71.99 31.7499 69C29.0599 67.98 26.0199 69.08 24.6199 71.6C23.2599 74.11 24.2399 77.02 25.3899 79.53C31.8099 93.63 45.9599 102.07 63.2599 102.12H63.4199C80.7199 102.12 94.8699 93.63 101.3 79.53C102.44 77 103.43 74.13 102.07 71.62Z" fill="#312D2D" style="fill:#312D2D;fill:color(display-p3 0.1922 0.1765 0.1765);fill-opacity:1;"/>
<path d="M79.3498 98.1399C78.9798 97.7999 78.5998 97.4899 78.2198 97.1399C74.1398 93.5499 68.8598 91.6199 63.4198 91.7299C57.8198 91.6399 52.3698 93.4999 47.9998 96.9999C47.6198 97.3099 47.2198 97.6099 46.8498 97.9999C46.4798 98.3899 46.2798 98.6699 46.0398 98.9999C51.5398 101.15 57.3998 102.25 63.3098 102.22H63.4698C69.1298 102.22 74.7398 101.21 80.0398 99.2199C79.8398 98.8399 79.6098 98.4799 79.3498 98.1399Z" fill="#ED7770" style="fill:#ED7770;fill:color(display-p3 0.9294 0.4667 0.4392);fill-opacity:1;"/>
<path d="M94.9299 69C84.6699 71.99 74.0299 73.48 63.3399 73.43C52.6499 73.48 42.0099 71.99 31.7499 69C29.0599 67.98 26.0199 69.08 24.6199 71.6C24.4199 71.98 24.2599 72.38 24.1599 72.79C24.4899 72.96 24.8699 73.13 25.3199 73.31C37.3599 79.34 50.6699 82.4 64.1299 82.24C77.0399 82.39 89.7999 79.58 101.46 74.04C101.93 73.84 102.32 73.65 102.67 73.47C102.59 72.82 102.38 72.18 102.07 71.6C100.67 69.08 97.6299 67.97 94.9299 69Z" fill="white" style="fill:white;fill-opacity:1;"/>
<path d="M102.11 71.63C100.69 69.1 97.6399 67.98 94.9199 69C84.6599 71.99 74.0199 73.48 63.3399 73.43C52.6499 73.48 42.0099 71.99 31.7499 69C29.0599 67.98 26.0199 69.08 24.6199 71.6C23.2599 74.11 24.2399 77.02 25.3899 79.53C25.8999 80.66 26.4699 81.77 27.0999 82.84C27.0999 82.84 24.9999 75.06 26.8199 72.8C27.4399 71.84 28.4799 71.24 29.6199 71.18C30.0899 71.18 30.5499 71.26 30.9999 71.4C41.4399 74.47 52.2699 76.02 63.1599 76H63.5099C74.3999 76.02 85.2299 74.47 95.6699 71.4C96.1199 71.26 96.5799 71.18 97.0499 71.18C98.1899 71.24 99.2399 71.84 99.8599 72.8C101.71 75.06 99.5799 82.87 99.5799 82.87C100.2 81.8 100.82 80.7 101.34 79.56C102.48 77.05 103.47 74.15 102.11 71.63Z" fill="#EB8F00" style="fill:#EB8F00;fill:color(display-p3 0.9216 0.5608 0.0000);fill-opacity:1;"/>
<path d="M102.11 71.63C100.69 69.1 97.6399 67.98 94.9199 69C84.6599 71.99 74.0199 73.48 63.3399 73.43C52.6499 73.48 42.0099 71.99 31.7499 69C29.0599 67.98 26.0199 69.08 24.6199 71.6C23.2599 74.11 24.2399 77.02 25.3899 79.53C25.8999 80.66 26.4699 81.77 27.0999 82.84C27.0999 82.84 24.9999 75.06 26.8199 72.8C27.4399 71.84 28.4799 71.24 29.6199 71.18C30.0899 71.18 30.5499 71.26 30.9999 71.4C41.4399 74.47 52.2699 76.02 63.1599 76H63.5099C74.3999 76.02 85.2299 74.47 95.6699 71.4C96.1199 71.26 96.5799 71.18 97.0499 71.18C98.1899 71.24 99.2399 71.84 99.8599 72.8C101.71 75.06 99.5799 82.87 99.5799 82.87C100.2 81.8 100.82 80.7 101.34 79.56C102.48 77.05 103.47 74.15 102.11 71.63Z" fill="#F3B871" style="fill:#F3B871;fill:color(display-p3 0.9529 0.7216 0.4431);fill-opacity:1;"/>
<defs>
<radialGradient id="paint0_radial_169_5704" cx="0" cy="0" r="1" gradientUnits="userSpaceOnUse" gradientTransform="translate(63.6001 62.9) scale(56.9597 56.9597)">
<stop offset="0.5" stop-color="#FDE030" style="stop-color:#FDE030;stop-color:color(display-p3 0.9922 0.8784 0.1882);stop-opacity:1;"/>
<stop offset="0.92" stop-color="#F7C02B" style="stop-color:#F7C02B;stop-color:color(display-p3 0.9686 0.7529 0.1686);stop-opacity:1;"/>
<stop offset="1" stop-color="#F4A223" style="stop-color:#F4A223;stop-color:color(display-p3 0.9569 0.6353 0.1373);stop-opacity:1;"/>
</radialGradient>
<radialGradient id="paint1_radial_169_5704" cx="0" cy="0" r="1" gradientUnits="userSpaceOnUse" gradientTransform="translate(38.5991 34.5377) rotate(-43.2082) scale(102.024 101.825)">
<stop offset="0.3533" stop-color="#F9DDBD" style="stop-color:#F9DDBD;stop-color:color(display-p3 0.9765 0.8667 0.7412);stop-opacity:1;"/>
<stop offset="0.8723" stop-color="#FFD29C" style="stop-color:#FFD29C;stop-color:color(display-p3 1.0000 0.8235 0.6118);stop-opacity:1;"/>
</radialGradient>
</defs>
</svg>
