<svg width="129" height="129" viewBox="0 0 129 129" fill="none" xmlns="http://www.w3.org/2000/svg">
<path d="M76.3399 75.9L78.6699 73.52C78.8399 73.4 79.7699 73.38 79.9599 73.44C80.0199 73.44 80.4099 74.13 80.4699 74.14L81.3699 74.3C81.7499 74.39 81.9999 74.78 81.9099 75.17L81.8699 75.38C81.7899 75.77 81.4099 76.02 81.0299 75.93L79.6599 75.61L77.2799 77.29C76.9599 77.52 76.5199 77.43 76.2899 77.1L76.1699 76.92C75.9399 76.57 76.0199 76.12 76.3399 75.9Z" fill="#EDA600" style="fill:#EDA600;fill:color(display-p3 0.9294 0.6510 0.0000);fill-opacity:1;"/>
<path d="M76.3399 75.9L78.6699 73.52C78.8399 73.4 79.7699 73.38 79.9599 73.44C80.0199 73.44 80.4099 74.13 80.4699 74.14L81.3699 74.3C81.7499 74.39 81.9999 74.78 81.9099 75.17L81.8699 75.38C81.7899 75.77 81.4099 76.02 81.0299 75.93L79.6599 75.61L77.2799 77.29C76.9599 77.52 76.5199 77.43 76.2899 77.1L76.1699 76.92C75.9399 76.57 76.0199 76.12 76.3399 75.9Z" fill="#99674F" style="fill:#99674F;fill:color(display-p3 0.6000 0.4039 0.3098);fill-opacity:1;"/>
<path d="M121.22 113.67C120.66 111.24 117.98 108.55 115.35 105.95C113.65 104.27 110.59 104.62 108.92 106.33C107.25 108.04 106.95 111.11 108.65 112.79C111.28 115.39 114.01 118.03 116.44 118.55C118.35 118.96 119.94 118.35 120.51 117.77C121.08 117.18 121.66 115.58 121.22 113.67Z" fill="#504F4F" style="fill:#504F4F;fill:color(display-p3 0.3137 0.3098 0.3098);fill-opacity:1;"/>
<path d="M91.6798 124.32H85.6199L82.3398 105.04C82.9898 106.74 84.6398 107.95 86.5798 107.95C89.0798 107.95 91.1098 105.93 91.1199 103.44L91.6798 124.32Z" fill="url(#paint0_linear_84_3305)" style=""/>
<path d="M91.6798 124.32H85.6199L82.3398 105.04C82.9898 106.74 84.6398 107.95 86.5798 107.95C89.0798 107.95 91.1098 105.93 91.1199 103.44L91.6798 124.32Z" fill="url(#paint1_linear_84_3305)" style=""/>
<path d="M115.94 113.97C114.94 114.53 113.7 114.46 112.77 113.78L100.62 103.14C100.51 103.04 100.4 102.94 100.3 102.83C101.14 103.66 102.29 104.18 103.57 104.18C106.14 104.18 108.22 102.1 108.22 99.5301C108.22 99.0301 108.14 98.5401 107.99 98.0901C108 98.1001 108.01 98.1201 108.02 98.1301L116.57 109.29C117.96 110.67 117.65 113.01 115.94 113.97Z" fill="url(#paint2_linear_84_3305)" style=""/>
<path d="M115.94 113.97C114.94 114.53 113.7 114.46 112.77 113.78L100.62 103.14C100.51 103.04 100.4 102.94 100.3 102.83C101.14 103.66 102.29 104.18 103.57 104.18C106.14 104.18 108.22 102.1 108.22 99.5301C108.22 99.0301 108.14 98.5401 107.99 98.0901C108 98.1001 108.01 98.1201 108.02 98.1301L116.57 109.29C117.96 110.67 117.65 113.01 115.94 113.97Z" fill="url(#paint3_linear_84_3305)" style=""/>
<path d="M108.22 99.5301C108.22 102.1 106.14 104.18 103.57 104.18C102.29 104.18 101.14 103.66 100.3 102.83C100.17 102.7 100.05 102.57 99.9401 102.43C99.7301 102.18 99.5401 101.9 99.3801 101.62L92.5501 88.9701C92.5101 88.7501 91.3401 88.6001 91.1401 88.6001C90.9401 88.6001 90.7701 88.7601 90.7301 88.9701L91.1201 103.31V103.42C91.1201 103.43 91.1201 103.43 91.1201 103.44C91.1101 105.93 89.0801 107.95 86.5801 107.95C84.6401 107.95 82.9901 106.74 82.3401 105.04L82.0501 103.28L78.6201 83.1201L89.9601 75.0901L102.66 83.1101L107.33 96.8101L107.43 97.1001C107.57 97.4501 107.75 97.7901 107.99 98.0901C108.14 98.5401 108.22 99.0301 108.22 99.5301Z" fill="url(#paint4_linear_84_3305)" style=""/>
<path d="M108.22 99.5301C108.22 102.1 106.14 104.18 103.57 104.18C102.29 104.18 101.14 103.66 100.3 102.83C100.17 102.7 100.05 102.57 99.9401 102.43C99.7301 102.18 99.5401 101.9 99.3801 101.62L92.5501 88.9701C92.5101 88.7501 91.3401 88.6001 91.1401 88.6001C90.9401 88.6001 90.7701 88.7601 90.7301 88.9701L91.1201 103.31V103.42C91.1201 103.43 91.1201 103.43 91.1201 103.44C91.1101 105.93 89.0801 107.95 86.5801 107.95C84.6401 107.95 82.9901 106.74 82.3401 105.04L82.0501 103.28L78.6201 83.1201L89.9601 75.0901L102.66 83.1101L107.33 96.8101L107.43 97.1001C107.57 97.4501 107.75 97.7901 107.99 98.0901C108.14 98.5401 108.22 99.0301 108.22 99.5301Z" fill="url(#paint5_linear_84_3305)" style=""/>
<path d="M105.27 75.6401L102.63 73.4201C102.46 73.3001 101.91 73.6601 101.72 73.7101C101.66 73.7101 101.2 73.8601 101.14 73.8701L100.24 74.0301C99.86 74.1201 99.61 74.5101 99.7 74.9001L99.74 75.1101C99.82 75.5001 100.2 75.7501 100.58 75.6601L101.95 75.3401L104.33 77.0201C104.65 77.2501 105.09 77.1601 105.32 76.8301L105.44 76.6501C105.67 76.3201 105.59 75.8701 105.27 75.6401Z" fill="#EDA600" style="fill:#EDA600;fill:color(display-p3 0.9294 0.6510 0.0000);fill-opacity:1;"/>
<path d="M105.27 75.6401L102.63 73.4201C102.46 73.3001 101.91 73.6601 101.72 73.7101C101.66 73.7101 101.2 73.8601 101.14 73.8701L100.24 74.0301C99.86 74.1201 99.61 74.5101 99.7 74.9001L99.74 75.1101C99.82 75.5001 100.2 75.7501 100.58 75.6601L101.95 75.3401L104.33 77.0201C104.65 77.2501 105.09 77.1601 105.32 76.8301L105.44 76.6501C105.67 76.3201 105.59 75.8701 105.27 75.6401Z" fill="#99674F" style="fill:#99674F;fill:color(display-p3 0.6000 0.4039 0.3098);fill-opacity:1;"/>
<path d="M109.15 60.8399C109.15 60.8399 107.08 53.4299 90.1099 53.4299C73.1399 53.4299 72.1499 60.8399 72.1499 60.8399L78.4999 65.6699H101.75L109.15 60.8399Z" fill="#444444" style="fill:#444444;fill:color(display-p3 0.2667 0.2667 0.2667);fill-opacity:1;"/>
<path d="M110.12 60.8399C110.12 60.8399 107.05 53.4299 90.0801 53.4299C73.1101 53.4299 71.1201 60.8399 71.1201 60.8399L78.5401 67.7299V83.1499L88.2801 89.5799C89.0501 89.9699 89.9001 90.1699 90.7601 90.1699C91.6501 90.1699 92.5301 89.9499 93.3201 89.5399L102.63 83.1499V67.7299L110.12 60.8399Z" fill="url(#paint6_linear_84_3305)" style=""/>
<path d="M116.09 69.51L108.7 59.74L102.52 64.1L109.94 71.05L104.75 75.36C104.21 75.34 103.28 75.2 102.09 75.2H101.7L101.68 75.19C101.68 75.19 100.01 75.31 99.5701 75.65C99.1701 75.96 99.2101 76.5 99.3901 76.7C99.6001 76.94 99.5501 77.36 99.3401 77.59C99.1301 77.83 99.0001 78.12 99.0201 78.42C99.0401 78.71 99.1701 78.88 99.4601 79.1C99.6001 79.2 99.6701 79.48 99.6001 79.63C99.4801 79.87 99.2901 80.28 99.3301 80.5C99.4201 80.93 99.8601 81.02 99.9601 81.35C100 81.48 99.5901 81.92 100.01 82.29C100.4 82.64 101.07 82.92 102.09 82.92C103 82.92 104.19 82.7 105.7 82.1C105.74 82.08 116.09 73.66 116.09 73.66C117.14 72.55 117.09 70.67 116.09 69.51Z" fill="url(#paint7_linear_84_3305)" style=""/>
<path d="M116.09 69.51L108.7 59.74L102.52 64.1L109.94 71.05L104.75 75.36C104.21 75.34 103.28 75.2 102.09 75.2H101.7L101.68 75.19C101.68 75.19 100.01 75.31 99.5701 75.65C99.1701 75.96 99.2101 76.5 99.3901 76.7C99.6001 76.94 99.5501 77.36 99.3401 77.59C99.1301 77.83 99.0001 78.12 99.0201 78.42C99.0401 78.71 99.1701 78.88 99.4601 79.1C99.6001 79.2 99.6701 79.48 99.6001 79.63C99.4801 79.87 99.2901 80.28 99.3301 80.5C99.4201 80.93 99.8601 81.02 99.9601 81.35C100 81.48 99.5901 81.92 100.01 82.29C100.4 82.64 101.07 82.92 102.09 82.92C103 82.92 104.19 82.7 105.7 82.1C105.74 82.08 116.09 73.66 116.09 73.66C117.14 72.55 117.09 70.67 116.09 69.51Z" fill="url(#paint8_linear_84_3305)" style=""/>
<path d="M82.6001 78.44C82.6201 78.14 82.4901 77.85 82.2801 77.61C82.0701 77.37 82.0201 76.95 82.2301 76.72C82.4101 76.52 82.4401 75.97 82.0501 75.67C81.6101 75.33 79.9401 75.21 79.9401 75.21L79.9201 75.22H79.5301C78.3401 75.22 77.4101 75.35 76.8701 75.38L71.6801 71.07L79.1001 64.12L72.9101 59.74L65.5301 69.53C64.5301 70.68 64.4801 72.57 65.5301 73.68C65.5301 73.68 75.8801 82.1 75.9201 82.12C77.4301 82.71 78.6201 82.94 79.5301 82.94C80.5401 82.94 81.2201 82.66 81.6101 82.31C82.0301 81.93 81.6201 81.5 81.6601 81.37C81.7601 81.04 82.1901 80.95 82.2901 80.52C82.3401 80.31 82.1401 79.89 82.0201 79.65C81.9401 79.5 82.0201 79.22 82.1601 79.12C82.4501 78.9 82.5801 78.73 82.6001 78.44Z" fill="url(#paint9_linear_84_3305)" style=""/>
<path d="M82.6001 78.44C82.6201 78.14 82.4901 77.85 82.2801 77.61C82.0701 77.37 82.0201 76.95 82.2301 76.72C82.4101 76.52 82.4401 75.97 82.0501 75.67C81.6101 75.33 79.9401 75.21 79.9401 75.21L79.9201 75.22H79.5301C78.3401 75.22 77.4101 75.35 76.8701 75.38L71.6801 71.07L79.1001 64.12L72.9101 59.74L65.5301 69.53C64.5301 70.68 64.4801 72.57 65.5301 73.68C65.5301 73.68 75.8801 82.1 75.9201 82.12C77.4301 82.71 78.6201 82.94 79.5301 82.94C80.5401 82.94 81.2201 82.66 81.6101 82.31C82.0301 81.93 81.6201 81.5 81.6601 81.37C81.7601 81.04 82.1901 80.95 82.2901 80.52C82.3401 80.31 82.1401 79.89 82.0201 79.65C81.9401 79.5 82.0201 79.22 82.1601 79.12C82.4501 78.9 82.5801 78.73 82.6001 78.44Z" fill="url(#paint10_linear_84_3305)" style=""/>
<path d="M110.15 60.8399C110.15 60.8399 107.08 53.4299 90.1099 53.4299C73.1399 53.4299 71.1499 60.8399 71.1499 60.8399L78.4999 67.6699H102.75L110.15 60.8399Z" fill="url(#paint11_linear_84_3305)" style=""/>
<path d="M101.14 54.8499C101.05 57.8499 97.3201 62.0699 90.6401 62.0699C83.8801 62.0699 80.1401 57.7399 80.1401 54.7399C80.1401 54.6899 80.1401 54.6399 80.1501 54.5899C82.6301 53.8899 85.8701 53.4299 90.1101 53.4299C94.8601 53.4299 98.4501 54.0099 101.14 54.8499Z" fill="url(#paint12_linear_84_3305)" style=""/>
<path d="M101.14 54.8499C101.05 57.8499 97.3201 62.0699 90.6401 62.0699C83.8801 62.0699 80.1401 57.7399 80.1401 54.7399C80.1401 54.6899 80.1401 54.6399 80.1501 54.5899C82.6301 53.8899 85.8701 53.4299 90.1101 53.4299C94.8601 53.4299 98.4501 54.0099 101.14 54.8499Z" fill="#BA8D68" style="fill:#BA8D68;fill:color(display-p3 0.7294 0.5529 0.4078);fill-opacity:1;"/>
<path d="M88.3699 124.5H83.9899C83.1799 124.48 82.5999 123.55 82.8399 122.75C83.5699 120.29 85.7899 118.48 88.3699 118.48C91.0099 118.48 93.2599 120.36 93.9399 122.89C94.1599 123.7 93.5599 124.5 92.7499 124.5H88.3699Z" fill="#504F4F" style="fill:#504F4F;fill:color(display-p3 0.3137 0.3098 0.3098);fill-opacity:1;"/>
<path d="M20.4898 75.9L22.8198 73.52C22.9898 73.4 23.9198 73.38 24.1098 73.44C24.1698 73.44 24.5598 74.13 24.6198 74.14L25.5198 74.3C25.8998 74.39 26.1498 74.78 26.0598 75.17L26.0198 75.38C25.9398 75.77 25.5598 76.02 25.1798 75.93L23.8098 75.61L21.4298 77.29C21.1098 77.52 20.6698 77.43 20.4398 77.1L20.3198 76.92C20.0898 76.57 20.1698 76.12 20.4898 75.9Z" fill="#EDA600" style="fill:#EDA600;fill:color(display-p3 0.9294 0.6510 0.0000);fill-opacity:1;"/>
<path d="M20.4898 75.9L22.8198 73.52C22.9898 73.4 23.9198 73.38 24.1098 73.44C24.1698 73.44 24.5598 74.13 24.6198 74.14L25.5198 74.3C25.8998 74.39 26.1498 74.78 26.0598 75.17L26.0198 75.38C25.9398 75.77 25.5598 76.02 25.1798 75.93L23.8098 75.61L21.4298 77.29C21.1098 77.52 20.6698 77.43 20.4398 77.1L20.3198 76.92C20.0898 76.57 20.1698 76.12 20.4898 75.9Z" fill="#99674F" style="fill:#99674F;fill:color(display-p3 0.6000 0.4039 0.3098);fill-opacity:1;"/>
<path d="M65.3699 113.67C64.8099 111.24 62.1299 108.55 59.4999 105.95C57.7999 104.27 54.7399 104.62 53.0699 106.33C51.3999 108.04 51.0999 111.11 52.7999 112.79C55.4299 115.39 58.1599 118.03 60.5899 118.55C62.4999 118.96 64.0899 118.35 64.6599 117.77C65.2299 117.18 65.8099 115.58 65.3699 113.67Z" fill="#504F4F" style="fill:#504F4F;fill:color(display-p3 0.3137 0.3098 0.3098);fill-opacity:1;"/>
<path d="M35.8302 124.32H29.7702L26.4902 105.04C27.1402 106.74 28.7902 107.95 30.7302 107.95C33.2302 107.95 35.2602 105.93 35.2702 103.44L35.8302 124.32Z" fill="url(#paint13_linear_84_3305)" style=""/>
<path d="M35.8302 124.32H29.7702L26.4902 105.04C27.1402 106.74 28.7902 107.95 30.7302 107.95C33.2302 107.95 35.2602 105.93 35.2702 103.44L35.8302 124.32Z" fill="url(#paint14_linear_84_3305)" style=""/>
<path d="M60.0902 113.97C59.0902 114.53 57.8502 114.46 56.9202 113.78L44.7702 103.14C44.6602 103.04 44.5502 102.94 44.4502 102.83C45.2902 103.66 46.4402 104.18 47.7202 104.18C50.2902 104.18 52.3702 102.1 52.3702 99.5301C52.3702 99.0301 52.2902 98.5401 52.1402 98.0901C52.1502 98.1001 52.1602 98.1201 52.1702 98.1301L60.7202 109.29C62.1102 110.67 61.8002 113.01 60.0902 113.97Z" fill="url(#paint15_linear_84_3305)" style=""/>
<path d="M60.0902 113.97C59.0902 114.53 57.8502 114.46 56.9202 113.78L44.7702 103.14C44.6602 103.04 44.5502 102.94 44.4502 102.83C45.2902 103.66 46.4402 104.18 47.7202 104.18C50.2902 104.18 52.3702 102.1 52.3702 99.5301C52.3702 99.0301 52.2902 98.5401 52.1402 98.0901C52.1502 98.1001 52.1602 98.1201 52.1702 98.1301L60.7202 109.29C62.1102 110.67 61.8002 113.01 60.0902 113.97Z" fill="url(#paint16_linear_84_3305)" style=""/>
<path d="M52.37 99.5301C52.37 102.1 50.29 104.18 47.72 104.18C46.44 104.18 45.29 103.66 44.45 102.83C44.32 102.7 44.2 102.57 44.09 102.43C43.88 102.18 43.69 101.9 43.53 101.62L36.7 88.9701C36.66 88.7501 35.49 88.6001 35.29 88.6001C35.09 88.6001 34.92 88.7601 34.88 88.9701L35.27 103.31V103.42C35.27 103.43 35.27 103.43 35.27 103.44C35.26 105.93 33.23 107.95 30.73 107.95C28.79 107.95 27.14 106.74 26.49 105.04L26.2 103.28L22.77 83.1201L34.11 75.0901L46.81 83.1101L51.48 96.8101L51.58 97.1001C51.72 97.4501 51.9 97.7901 52.14 98.0901C52.29 98.5401 52.37 99.0301 52.37 99.5301Z" fill="url(#paint17_linear_84_3305)" style=""/>
<path d="M52.37 99.5301C52.37 102.1 50.29 104.18 47.72 104.18C46.44 104.18 45.29 103.66 44.45 102.83C44.32 102.7 44.2 102.57 44.09 102.43C43.88 102.18 43.69 101.9 43.53 101.62L36.7 88.9701C36.66 88.7501 35.49 88.6001 35.29 88.6001C35.09 88.6001 34.92 88.7601 34.88 88.9701L35.27 103.31V103.42C35.27 103.43 35.27 103.43 35.27 103.44C35.26 105.93 33.23 107.95 30.73 107.95C28.79 107.95 27.14 106.74 26.49 105.04L26.2 103.28L22.77 83.1201L34.11 75.0901L46.81 83.1101L51.48 96.8101L51.58 97.1001C51.72 97.4501 51.9 97.7901 52.14 98.0901C52.29 98.5401 52.37 99.0301 52.37 99.5301Z" fill="url(#paint18_linear_84_3305)" style=""/>
<path d="M49.4199 75.6401L46.7799 73.4201C46.6099 73.3001 46.0599 73.6601 45.8699 73.7101C45.8099 73.7101 45.3499 73.8601 45.2899 73.8701L44.3899 74.0301C44.0099 74.1201 43.7599 74.5101 43.8499 74.9001L43.8899 75.1101C43.9699 75.5001 44.3499 75.7501 44.7299 75.6601L46.0999 75.3401L48.4799 77.0201C48.7999 77.2501 49.2399 77.1601 49.4699 76.8301L49.5899 76.6501C49.8199 76.3201 49.7399 75.8701 49.4199 75.6401Z" fill="#EDA600" style="fill:#EDA600;fill:color(display-p3 0.9294 0.6510 0.0000);fill-opacity:1;"/>
<path d="M49.4199 75.6401L46.7799 73.4201C46.6099 73.3001 46.0599 73.6601 45.8699 73.7101C45.8099 73.7101 45.3499 73.8601 45.2899 73.8701L44.3899 74.0301C44.0099 74.1201 43.7599 74.5101 43.8499 74.9001L43.8899 75.1101C43.9699 75.5001 44.3499 75.7501 44.7299 75.6601L46.0999 75.3401L48.4799 77.0201C48.7999 77.2501 49.2399 77.1601 49.4699 76.8301L49.5899 76.6501C49.8199 76.3201 49.7399 75.8701 49.4199 75.6401Z" fill="#99674F" style="fill:#99674F;fill:color(display-p3 0.6000 0.4039 0.3098);fill-opacity:1;"/>
<path d="M53.2998 60.8399C53.2998 60.8399 51.2298 53.4299 34.2598 53.4299C17.2898 53.4299 16.2998 60.8399 16.2998 60.8399L22.6498 65.6699H45.8998L53.2998 60.8399Z" fill="#444444" style="fill:#444444;fill:color(display-p3 0.2667 0.2667 0.2667);fill-opacity:1;"/>
<path d="M54.27 60.8399C54.27 60.8399 51.2 53.4299 34.23 53.4299C17.26 53.4299 15.27 60.8399 15.27 60.8399L22.69 67.7299V83.1499L32.43 89.5799C33.2 89.9699 34.05 90.1699 34.91 90.1699C35.8 90.1699 36.68 89.9499 37.47 89.5399L46.78 83.1499V67.7299L54.27 60.8399Z" fill="url(#paint19_linear_84_3305)" style=""/>
<path d="M60.24 69.51L52.85 59.74L46.67 64.1L54.09 71.05L48.9 75.36C48.36 75.34 47.43 75.2 46.24 75.2H45.85L45.83 75.19C45.83 75.19 44.16 75.31 43.72 75.65C43.32 75.96 43.36 76.5 43.54 76.7C43.75 76.94 43.7 77.36 43.49 77.59C43.28 77.83 43.15 78.12 43.17 78.42C43.19 78.71 43.32 78.88 43.61 79.1C43.75 79.2 43.82 79.48 43.75 79.63C43.63 79.87 43.44 80.28 43.48 80.5C43.57 80.93 44.01 81.02 44.11 81.35C44.15 81.48 43.74 81.92 44.16 82.29C44.55 82.64 45.22 82.92 46.24 82.92C47.15 82.92 48.34 82.7 49.85 82.1C49.89 82.08 60.24 73.66 60.24 73.66C61.29 72.55 61.24 70.67 60.24 69.51Z" fill="url(#paint20_linear_84_3305)" style=""/>
<path d="M60.24 69.51L52.85 59.74L46.67 64.1L54.09 71.05L48.9 75.36C48.36 75.34 47.43 75.2 46.24 75.2H45.85L45.83 75.19C45.83 75.19 44.16 75.31 43.72 75.65C43.32 75.96 43.36 76.5 43.54 76.7C43.75 76.94 43.7 77.36 43.49 77.59C43.28 77.83 43.15 78.12 43.17 78.42C43.19 78.71 43.32 78.88 43.61 79.1C43.75 79.2 43.82 79.48 43.75 79.63C43.63 79.87 43.44 80.28 43.48 80.5C43.57 80.93 44.01 81.02 44.11 81.35C44.15 81.48 43.74 81.92 44.16 82.29C44.55 82.64 45.22 82.92 46.24 82.92C47.15 82.92 48.34 82.7 49.85 82.1C49.89 82.08 60.24 73.66 60.24 73.66C61.29 72.55 61.24 70.67 60.24 69.51Z" fill="url(#paint21_linear_84_3305)" style=""/>
<path d="M26.75 78.44C26.77 78.14 26.64 77.85 26.43 77.61C26.22 77.37 26.17 76.95 26.38 76.72C26.56 76.52 26.59 75.97 26.2 75.67C25.76 75.33 24.09 75.21 24.09 75.21L24.07 75.22H23.68C22.49 75.22 21.56 75.35 21.02 75.38L15.83 71.07L23.25 64.12L17.06 59.74L9.68 69.53C8.68 70.68 8.63 72.57 9.68 73.68C9.68 73.68 20.03 82.1 20.07 82.12C21.58 82.71 22.77 82.94 23.68 82.94C24.69 82.94 25.37 82.66 25.76 82.31C26.18 81.93 25.77 81.5 25.81 81.37C25.91 81.04 26.34 80.95 26.44 80.52C26.49 80.31 26.29 79.89 26.17 79.65C26.09 79.5 26.17 79.22 26.31 79.12C26.6 78.9 26.73 78.73 26.75 78.44Z" fill="url(#paint22_linear_84_3305)" style=""/>
<path d="M26.75 78.44C26.77 78.14 26.64 77.85 26.43 77.61C26.22 77.37 26.17 76.95 26.38 76.72C26.56 76.52 26.59 75.97 26.2 75.67C25.76 75.33 24.09 75.21 24.09 75.21L24.07 75.22H23.68C22.49 75.22 21.56 75.35 21.02 75.38L15.83 71.07L23.25 64.12L17.06 59.74L9.68 69.53C8.68 70.68 8.63 72.57 9.68 73.68C9.68 73.68 20.03 82.1 20.07 82.12C21.58 82.71 22.77 82.94 23.68 82.94C24.69 82.94 25.37 82.66 25.76 82.31C26.18 81.93 25.77 81.5 25.81 81.37C25.91 81.04 26.34 80.95 26.44 80.52C26.49 80.31 26.29 79.89 26.17 79.65C26.09 79.5 26.17 79.22 26.31 79.12C26.6 78.9 26.73 78.73 26.75 78.44Z" fill="url(#paint23_linear_84_3305)" style=""/>
<path d="M54.2998 60.8399C54.2998 60.8399 51.2298 53.4299 34.2598 53.4299C17.2898 53.4299 15.2998 60.8399 15.2998 60.8399L22.6498 67.6699H46.8998L54.2998 60.8399Z" fill="url(#paint24_linear_84_3305)" style=""/>
<path d="M45.29 54.8499C45.2 57.8499 41.47 62.0699 34.79 62.0699C28.03 62.0699 24.29 57.7399 24.29 54.7399C24.29 54.6899 24.29 54.6399 24.3 54.5899C26.78 53.8899 30.02 53.4299 34.26 53.4299C39.01 53.4299 42.6 54.0099 45.29 54.8499Z" fill="url(#paint25_linear_84_3305)" style=""/>
<path d="M45.29 54.8499C45.2 57.8499 41.47 62.0699 34.79 62.0699C28.03 62.0699 24.29 57.7399 24.29 54.7399C24.29 54.6899 24.29 54.6399 24.3 54.5899C26.78 53.8899 30.02 53.4299 34.26 53.4299C39.01 53.4299 42.6 54.0099 45.29 54.8499Z" fill="#BA8D68" style="fill:#BA8D68;fill:color(display-p3 0.7294 0.5529 0.4078);fill-opacity:1;"/>
<path d="M32.5202 124.5H28.1402C27.3302 124.48 26.7502 123.55 26.9902 122.75C27.7202 120.29 29.9402 118.48 32.5202 118.48C35.1602 118.48 37.4102 120.36 38.0902 122.89C38.3102 123.7 37.7102 124.5 36.9002 124.5H32.5202Z" fill="#504F4F" style="fill:#504F4F;fill:color(display-p3 0.3137 0.3098 0.3098);fill-opacity:1;"/>
<path d="M34.3498 57.7999C32.3798 57.7999 30.7798 56.2799 30.7798 54.3999V50.1399H38.7398V54.3999C38.7398 56.2699 37.1398 57.7999 35.1698 57.7999H34.3498Z" fill="#E59600" style="fill:#E59600;fill:color(display-p3 0.8980 0.5882 0.0000);fill-opacity:1;"/>
<path d="M34.3498 57.7999C32.3798 57.7999 30.7798 56.2799 30.7798 54.3999V50.1399H38.7398V54.3999C38.7398 56.2699 37.1398 57.7999 35.1698 57.7999H34.3498Z" fill="#99674F" style="fill:#99674F;fill:color(display-p3 0.6000 0.4039 0.3098);fill-opacity:1;"/>
<path d="M45.4798 34.8701H24.0298C21.7198 34.8701 19.8198 36.8901 19.8198 39.3501C19.8198 41.8101 21.7098 43.8301 24.0298 43.8301H45.4798C47.7898 43.8301 49.6898 41.8101 49.6898 39.3501C49.6898 36.8901 47.7898 34.8701 45.4798 34.8701Z" fill="#E59600" style="fill:#E59600;fill:color(display-p3 0.8980 0.5882 0.0000);fill-opacity:1;"/>
<path d="M45.4798 34.8701H24.0298C21.7198 34.8701 19.8198 36.8901 19.8198 39.3501C19.8198 41.8101 21.7098 43.8301 24.0298 43.8301H45.4798C47.7898 43.8301 49.6898 41.8101 49.6898 39.3501C49.6898 36.8901 47.7898 34.8701 45.4798 34.8701Z" fill="#99674F" style="fill:#99674F;fill:color(display-p3 0.6000 0.4039 0.3098);fill-opacity:1;"/>
<path d="M34.7098 19.03C27.8798 19.03 21.5498 26.34 21.5498 36.85C21.5498 47.31 28.0698 52.48 34.7098 52.48C41.3498 52.48 47.8698 47.31 47.8698 36.85C47.8698 26.33 41.5398 19.03 34.7098 19.03Z" fill="#FFCA28" style="fill:#FFCA28;fill:color(display-p3 1.0000 0.7922 0.1569);fill-opacity:1;"/>
<path d="M34.7098 19.03C27.8798 19.03 21.5498 26.34 21.5498 36.85C21.5498 47.31 28.0698 52.48 34.7098 52.48C41.3498 52.48 47.8698 47.31 47.8698 36.85C47.8698 26.33 41.5398 19.03 34.7098 19.03Z" fill="#BA8D68" style="fill:#BA8D68;fill:color(display-p3 0.7294 0.5529 0.4078);fill-opacity:1;"/>
<path d="M25.33 34.9901C25.33 34.9901 25.38 34.9101 25.48 34.7901C25.51 34.7601 25.53 34.7301 25.56 34.6901C25.6 34.6501 25.65 34.6101 25.7 34.5601C25.75 34.5101 25.81 34.4601 25.87 34.4101C25.93 34.3601 25.99 34.3201 26.06 34.2701C26.13 34.2201 26.2 34.1801 26.27 34.1301C26.35 34.0901 26.43 34.0501 26.51 34.0001C26.59 33.9501 26.68 33.9201 26.77 33.8801C26.86 33.8401 26.95 33.8101 27.05 33.7801C27.24 33.7301 27.44 33.6701 27.65 33.6401C27.86 33.6001 28.07 33.6001 28.29 33.5901C28.5 33.6001 28.72 33.6001 28.93 33.6401C29.14 33.6701 29.34 33.7301 29.53 33.7801C29.63 33.8101 29.72 33.8501 29.81 33.8801C29.9 33.9101 29.99 33.9501 30.07 34.0001C30.15 34.0401 30.23 34.0901 30.31 34.1301C30.38 34.1701 30.45 34.2201 30.52 34.2701C30.59 34.3201 30.65 34.3601 30.71 34.4001C30.76 34.4501 30.82 34.4901 30.87 34.5401C30.92 34.5801 30.96 34.6201 31 34.6601C31.04 34.7001 31.07 34.7401 31.1 34.7801C31.22 34.9201 31.28 35.0101 31.28 35.0101C31.48 35.2901 31.42 35.6701 31.14 35.8701C30.97 35.9901 30.76 36.0201 30.58 35.9501L30.47 35.9101C30.47 35.9101 30.39 35.8801 30.28 35.8301C30.25 35.8201 30.22 35.8001 30.18 35.7901C30.14 35.7801 30.1 35.7601 30.06 35.7501C29.98 35.7201 29.89 35.6801 29.78 35.6501C29.73 35.6301 29.68 35.6101 29.62 35.6001C29.56 35.5901 29.51 35.5701 29.45 35.5601C29.42 35.5501 29.39 35.5401 29.36 35.5401C29.33 35.5301 29.3 35.5301 29.27 35.5201C29.21 35.5101 29.15 35.4901 29.08 35.4801C28.95 35.4701 28.82 35.4401 28.69 35.4301C28.56 35.4101 28.42 35.4201 28.28 35.4101C28.14 35.4201 28.01 35.4101 27.87 35.4301C27.73 35.4401 27.61 35.4601 27.48 35.4801C27.42 35.4901 27.36 35.5101 27.29 35.5201C27.26 35.5301 27.23 35.5301 27.2 35.5401C27.17 35.5501 27.14 35.5601 27.11 35.5601C27.05 35.5701 27 35.5901 26.94 35.6001C26.89 35.6101 26.84 35.6401 26.78 35.6501C26.73 35.6701 26.68 35.6801 26.64 35.6901C26.6 35.7001 26.56 35.7201 26.53 35.7301C26.49 35.7401 26.46 35.7601 26.42 35.7601C26.38 35.7801 26.34 35.8001 26.31 35.8201L26.09 35.9301C25.77 36.0601 25.39 35.9101 25.26 35.5901C25.18 35.3901 25.21 35.1601 25.33 34.9901Z" fill="#6D4C41" style="fill:#6D4C41;fill:color(display-p3 0.4275 0.2980 0.2549);fill-opacity:1;"/>
<path d="M43.41 35.9301L43.19 35.8201C43.16 35.8001 43.11 35.7801 43.08 35.7601C43.05 35.7501 43.01 35.7401 42.97 35.7301C42.93 35.7201 42.9 35.7001 42.86 35.6901C42.81 35.6801 42.77 35.6601 42.72 35.6501C42.67 35.6301 42.62 35.6101 42.56 35.6001C42.51 35.5901 42.45 35.5701 42.39 35.5601C42.36 35.5501 42.33 35.5401 42.3 35.5401C42.27 35.5301 42.24 35.5301 42.21 35.5201C42.15 35.5101 42.09 35.4901 42.02 35.4801C41.89 35.4701 41.76 35.4401 41.63 35.4301C41.5 35.4101 41.36 35.4201 41.22 35.4101C41.08 35.4201 40.95 35.4101 40.81 35.4301C40.67 35.4401 40.55 35.4601 40.42 35.4801C40.36 35.4901 40.3 35.5101 40.23 35.5201C40.2 35.5301 40.17 35.5301 40.14 35.5401C40.11 35.5501 40.08 35.5601 40.05 35.5601C39.99 35.5701 39.94 35.5901 39.88 35.6001C39.83 35.6101 39.78 35.6401 39.72 35.6501C39.62 35.6801 39.53 35.7101 39.44 35.7501C39.4 35.7701 39.36 35.7801 39.32 35.7901C39.28 35.8001 39.25 35.8201 39.22 35.8301C39.1 35.8801 39.03 35.9101 39.03 35.9101L38.92 35.9501C38.6 36.0601 38.25 35.8901 38.13 35.5701C38.06 35.3701 38.1 35.1601 38.21 35.0101C38.21 35.0101 38.27 34.9301 38.39 34.7801C38.42 34.7501 38.45 34.7001 38.49 34.6601C38.53 34.6201 38.57 34.5801 38.62 34.5401C38.67 34.5001 38.72 34.4501 38.78 34.4001C38.84 34.3501 38.9 34.3101 38.97 34.2701C39.04 34.2201 39.11 34.1801 39.18 34.1301C39.26 34.0901 39.34 34.0501 39.42 34.0001C39.5 33.9501 39.59 33.9201 39.68 33.8801C39.77 33.8401 39.86 33.8101 39.96 33.7801C40.15 33.7301 40.35 33.6701 40.56 33.6401C40.77 33.6001 40.98 33.6001 41.2 33.5901C41.41 33.6001 41.63 33.6001 41.84 33.6401C42.05 33.6701 42.25 33.7301 42.44 33.7801C42.54 33.8101 42.63 33.8501 42.72 33.8801C42.81 33.9101 42.9 33.9501 42.98 34.0001C43.06 34.0401 43.14 34.0901 43.22 34.1301C43.29 34.1701 43.36 34.2201 43.43 34.2701C43.5 34.3201 43.56 34.3601 43.62 34.4101C43.68 34.4601 43.74 34.5101 43.79 34.5601C43.84 34.6101 43.89 34.6501 43.93 34.6901C43.97 34.7301 43.99 34.7601 44.01 34.7901C44.11 34.9101 44.16 34.9901 44.16 34.9901C44.36 35.2801 44.28 35.6701 43.99 35.8701C43.83 36.0001 43.6 36.0101 43.41 35.9301Z" fill="#6D4C41" style="fill:#6D4C41;fill:color(display-p3 0.4275 0.2980 0.2549);fill-opacity:1;"/>
<path d="M28.2996 40.55C29.3655 40.55 30.2296 39.6546 30.2296 38.55C30.2296 37.4455 29.3655 36.55 28.2996 36.55C27.2337 36.55 26.3696 37.4455 26.3696 38.55C26.3696 39.6546 27.2337 40.55 28.2996 40.55Z" fill="#404040" style="fill:#404040;fill:color(display-p3 0.2510 0.2510 0.2510);fill-opacity:1;"/>
<path d="M41.2098 40.55C42.2757 40.55 43.1398 39.6546 43.1398 38.55C43.1398 37.4455 42.2757 36.55 41.2098 36.55C40.1439 36.55 39.2798 37.4455 39.2798 38.55C39.2798 39.6546 40.1439 40.55 41.2098 40.55Z" fill="#404040" style="fill:#404040;fill:color(display-p3 0.2510 0.2510 0.2510);fill-opacity:1;"/>
<path d="M37.97 45.7099C36.72 46.4499 32.62 46.4499 31.37 45.7099C30.65 45.2799 29.92 45.94 30.22 46.59C30.51 47.23 32.75 48.72 34.68 48.72C36.61 48.72 38.82 47.23 39.11 46.59C39.41 45.93 38.69 45.2799 37.97 45.7099Z" fill="#795548" style="fill:#795548;fill:color(display-p3 0.4745 0.3333 0.2824);fill-opacity:1;"/>
<path d="M35.9998 42.1001C35.9598 42.0801 35.9198 42.0701 35.8698 42.0701H33.0998C33.0598 42.0801 33.0198 42.0901 32.9698 42.1001C32.7198 42.2001 32.5798 42.4601 32.6998 42.7401C32.8198 43.0201 33.3698 43.8001 34.4898 43.8001C35.5998 43.8001 36.1598 43.0201 36.2798 42.7401C36.3898 42.4601 36.2498 42.2001 35.9998 42.1001Z" fill="#E59600" style="fill:#E59600;fill:color(display-p3 0.8980 0.5882 0.0000);fill-opacity:1;"/>
<path d="M35.9998 42.1001C35.9598 42.0801 35.9198 42.0701 35.8698 42.0701H33.0998C33.0598 42.0801 33.0198 42.0901 32.9698 42.1001C32.7198 42.2001 32.5798 42.4601 32.6998 42.7401C32.8198 43.0201 33.3698 43.8001 34.4898 43.8001C35.5998 43.8001 36.1598 43.0201 36.2798 42.7401C36.3898 42.4601 36.2498 42.2001 35.9998 42.1001Z" fill="#99674F" style="fill:#99674F;fill:color(display-p3 0.6000 0.4039 0.3098);fill-opacity:1;"/>
<path d="M34.7599 16.6599C34.7499 16.6599 34.7499 16.6599 34.7499 16.6599C16.9699 16.7499 20.6099 37.0699 20.6099 37.0699C20.6099 37.0699 21.4099 39.1699 21.7699 40.0899C21.8199 40.2199 22.0199 40.2099 22.0499 40.0699C22.4299 38.3699 23.7999 32.3499 24.4799 30.5199C24.8899 29.4399 25.9999 28.8099 27.1399 29.0199C28.8799 29.3399 31.6599 29.7299 34.7199 29.7299C34.7299 29.7299 34.7399 29.7299 34.7499 29.7299C34.7599 29.7299 34.7699 29.7299 34.7799 29.7299C37.8399 29.7299 40.6199 29.3399 42.3599 29.0199C43.4899 28.8099 44.6099 29.4399 45.0199 30.5199C45.7099 32.3399 47.0599 38.3299 47.4499 40.0499C47.4799 40.1899 47.6799 40.1999 47.7299 40.0699L48.8999 37.0699C48.8999 37.0699 52.5399 16.7499 34.7599 16.6599Z" fill="#543930" style="fill:#543930;fill:color(display-p3 0.3294 0.2235 0.1882);fill-opacity:1;"/>
<path d="M48.9 37.0699C48.9 37.0699 52.5399 16.7599 34.7599 16.6599C34.7599 16.6599 34.7599 16.6599 34.7499 16.6599C34.7499 16.6599 34.75 16.6599 34.74 16.6599C34.46 16.6599 34.1899 16.6699 33.9299 16.6799C33.4 16.6999 32.8899 16.7399 32.3999 16.7999H32.3899C32.3599 16.7999 32.32 16.8099 32.29 16.8099C17.32 18.6999 20.61 37.0699 20.61 37.0699L21.78 40.0699C21.83 40.1999 22.0199 40.1899 22.0499 40.0499C22.4299 38.3299 23.7999 32.3399 24.4799 30.5099C24.8899 29.4299 25.9999 28.7999 27.1399 29.0099C28.8799 29.3299 31.66 29.7199 34.72 29.7199C34.73 29.7199 34.7399 29.7199 34.7499 29.7199C34.7599 29.7199 34.7699 29.7199 34.7799 29.7199C37.8399 29.7199 40.62 29.3299 42.36 29.0099C43.49 28.7999 44.61 29.4299 45.02 30.5099C45.71 32.3399 47.08 38.3699 47.45 40.0699C47.48 40.2099 47.67 40.2199 47.72 40.0899C48.1 39.1699 48.9 37.0699 48.9 37.0699Z" fill="url(#paint26_radial_84_3305)" style=""/>
<path d="M50.3401 5.84007C50.1701 4.84007 49.1401 4.25007 48.2001 4.60007C45.9801 5.42007 42.2201 7.23007 40.3201 10.5301C38.8901 13.0101 38.2901 16.6901 38.0501 19.7101C37.9601 20.8101 37.0101 21.6301 35.9101 21.5501C35.5401 21.5201 33.9701 21.5201 33.6001 21.5501C32.5001 21.6301 31.5401 20.8201 31.4601 19.7101C31.2201 16.6901 30.6201 13.0101 29.1901 10.5301C27.2901 7.22007 23.5101 5.42007 21.3001 4.60007C20.3601 4.25007 19.3501 4.84007 19.1801 5.83007C18.7801 8.16007 18.4501 12.3501 20.3601 15.6501C21.7901 18.1401 24.6601 20.4901 27.1501 22.2101C27.7101 22.6001 27.7101 23.4101 27.1701 23.8301C26.1601 24.6001 25.4001 25.5001 24.8101 26.4001C24.2301 27.3001 25.2601 28.3901 26.1601 27.8101C27.9401 26.6601 30.6501 25.7201 34.7501 25.7201C38.8501 25.7201 41.5601 26.6601 43.3401 27.8101C44.2401 28.3901 45.2801 27.3001 44.6901 26.4001C44.1001 25.4901 43.3401 24.6001 42.3401 23.8201C41.8001 23.4001 41.8001 22.5901 42.3601 22.2001C44.8401 20.4801 47.7101 18.1301 49.1501 15.6401C51.0601 12.3501 50.7401 8.18007 50.3401 5.84007Z" fill="url(#paint27_linear_84_3305)" style=""/>
<path d="M42.6601 12.2701C41.6201 14.0701 41.4101 17.1301 41.3601 18.4501C41.3501 18.7401 41.6501 18.9201 41.9001 18.7601C43.0201 18.0601 45.5501 16.3501 46.5901 14.5401C47.5001 12.9601 47.4201 11.0001 47.2701 9.91011C47.2101 9.44011 46.7501 9.18011 46.3201 9.36011C45.3001 9.78011 43.5701 10.6901 42.6601 12.2701Z" fill="#FF4081" style="fill:#FF4081;fill:color(display-p3 1.0000 0.2510 0.5059);fill-opacity:1;"/>
<path d="M26.8499 12.2701C27.8899 14.0701 28.1099 17.1301 28.1499 18.4601C28.1599 18.7501 27.8599 18.9301 27.6199 18.7701C26.4999 18.0701 23.9699 16.3601 22.9299 14.5501C22.0199 12.9701 22.0999 11.0101 22.2399 9.92012C22.2999 9.45012 22.7599 9.19012 23.1899 9.37012C24.1999 9.78012 25.9399 10.6901 26.8499 12.2701Z" fill="#FF4081" style="fill:#FF4081;fill:color(display-p3 1.0000 0.2510 0.5059);fill-opacity:1;"/>
<path d="M90.3801 57.7999C88.4101 57.7999 86.8101 56.2799 86.8101 54.3999V50.1399H94.7701V54.3999C94.7701 56.2699 93.1701 57.7999 91.2001 57.7999H90.3801Z" fill="#E59600" style="fill:#E59600;fill:color(display-p3 0.8980 0.5882 0.0000);fill-opacity:1;"/>
<path d="M90.3801 57.7999C88.4101 57.7999 86.8101 56.2799 86.8101 54.3999V50.1399H94.7701V54.3999C94.7701 56.2699 93.1701 57.7999 91.2001 57.7999H90.3801Z" fill="#99674F" style="fill:#99674F;fill:color(display-p3 0.6000 0.4039 0.3098);fill-opacity:1;"/>
<path d="M101.52 34.8701H80.0699C77.7599 34.8701 75.8599 36.8901 75.8599 39.3501C75.8599 41.8101 77.7499 43.8301 80.0699 43.8301H101.52C103.83 43.8301 105.73 41.8101 105.73 39.3501C105.73 36.8901 103.83 34.8701 101.52 34.8701Z" fill="#E59600" style="fill:#E59600;fill:color(display-p3 0.8980 0.5882 0.0000);fill-opacity:1;"/>
<path d="M101.52 34.8701H80.0699C77.7599 34.8701 75.8599 36.8901 75.8599 39.3501C75.8599 41.8101 77.7499 43.8301 80.0699 43.8301H101.52C103.83 43.8301 105.73 41.8101 105.73 39.3501C105.73 36.8901 103.83 34.8701 101.52 34.8701Z" fill="#99674F" style="fill:#99674F;fill:color(display-p3 0.6000 0.4039 0.3098);fill-opacity:1;"/>
<path d="M90.7498 19.03C83.9198 19.03 77.5898 26.34 77.5898 36.85C77.5898 47.31 84.1098 52.48 90.7498 52.48C97.3898 52.48 103.91 47.31 103.91 36.85C103.91 26.33 97.5798 19.03 90.7498 19.03Z" fill="#FFCA28" style="fill:#FFCA28;fill:color(display-p3 1.0000 0.7922 0.1569);fill-opacity:1;"/>
<path d="M90.7498 19.03C83.9198 19.03 77.5898 26.34 77.5898 36.85C77.5898 47.31 84.1098 52.48 90.7498 52.48C97.3898 52.48 103.91 47.31 103.91 36.85C103.91 26.33 97.5798 19.03 90.7498 19.03Z" fill="#BA8D68" style="fill:#BA8D68;fill:color(display-p3 0.7294 0.5529 0.4078);fill-opacity:1;"/>
<path d="M81.37 34.9901C81.37 34.9901 81.42 34.9101 81.52 34.7901C81.55 34.7601 81.57 34.7301 81.6 34.6901C81.64 34.6501 81.69 34.6101 81.74 34.5601C81.79 34.5101 81.85 34.4601 81.91 34.4101C81.97 34.3601 82.03 34.3201 82.1 34.2701C82.17 34.2201 82.24 34.1801 82.31 34.1301C82.39 34.0901 82.47 34.0501 82.55 34.0001C82.63 33.9501 82.72 33.9201 82.81 33.8801C82.9 33.8401 82.99 33.8101 83.09 33.7801C83.28 33.7301 83.48 33.6701 83.69 33.6401C83.9 33.6001 84.11 33.6001 84.33 33.5901C84.54 33.6001 84.76 33.6001 84.97 33.6401C85.18 33.6701 85.38 33.7301 85.57 33.7801C85.67 33.8101 85.76 33.8501 85.85 33.8801C85.94 33.9101 86.03 33.9501 86.11 34.0001C86.19 34.0401 86.27 34.0901 86.35 34.1301C86.42 34.1701 86.49 34.2201 86.56 34.2701C86.63 34.3201 86.69 34.3601 86.75 34.4001C86.8 34.4501 86.86 34.4901 86.91 34.5401C86.96 34.5801 87 34.6201 87.04 34.6601C87.08 34.7001 87.11 34.7401 87.14 34.7801C87.26 34.9201 87.32 35.0101 87.32 35.0101C87.52 35.2901 87.46 35.6701 87.18 35.8701C87.01 35.9901 86.8 36.0201 86.62 35.9501L86.51 35.9101C86.51 35.9101 86.43 35.8801 86.32 35.8301C86.29 35.8201 86.26 35.8001 86.22 35.7901C86.18 35.7801 86.14 35.7601 86.1 35.7501C86.02 35.7201 85.93 35.6801 85.82 35.6501C85.77 35.6301 85.72 35.6101 85.66 35.6001C85.6 35.5901 85.55 35.5701 85.49 35.5601C85.46 35.5501 85.43 35.5401 85.4 35.5401C85.37 35.5301 85.34 35.5301 85.31 35.5201C85.25 35.5101 85.19 35.4901 85.12 35.4801C84.99 35.4701 84.86 35.4401 84.73 35.4301C84.6 35.4101 84.46 35.4201 84.32 35.4101C84.18 35.4201 84.05 35.4101 83.91 35.4301C83.77 35.4401 83.65 35.4601 83.52 35.4801C83.46 35.4901 83.4 35.5101 83.33 35.5201C83.3 35.5301 83.27 35.5301 83.24 35.5401C83.21 35.5501 83.18 35.5601 83.15 35.5601C83.09 35.5701 83.04 35.5901 82.98 35.6001C82.93 35.6101 82.88 35.6401 82.82 35.6501C82.77 35.6701 82.72 35.6801 82.68 35.6901C82.64 35.7001 82.6 35.7201 82.57 35.7301C82.53 35.7401 82.5 35.7601 82.46 35.7601C82.42 35.7801 82.38 35.8001 82.35 35.8201L82.13 35.9301C81.81 36.0601 81.43 35.9101 81.3 35.5901C81.22 35.3901 81.25 35.1601 81.37 34.9901Z" fill="#6D4C41" style="fill:#6D4C41;fill:color(display-p3 0.4275 0.2980 0.2549);fill-opacity:1;"/>
<path d="M99.4501 35.9301L99.2301 35.8201C99.2001 35.8001 99.1501 35.7801 99.1201 35.7601C99.0901 35.7501 99.0501 35.7401 99.0101 35.7301C98.9701 35.7201 98.9401 35.7001 98.9001 35.6901C98.8501 35.6801 98.8101 35.6601 98.7601 35.6501C98.7101 35.6301 98.6601 35.6101 98.6001 35.6001C98.5501 35.5901 98.4901 35.5701 98.4301 35.5601C98.4001 35.5501 98.3701 35.5401 98.3401 35.5401C98.3101 35.5301 98.2801 35.5301 98.2501 35.5201C98.1901 35.5101 98.1301 35.4901 98.0601 35.4801C97.9301 35.4701 97.8001 35.4401 97.6701 35.4301C97.5401 35.4101 97.4001 35.4201 97.2601 35.4101C97.1201 35.4201 96.9901 35.4101 96.8501 35.4301C96.7101 35.4401 96.5901 35.4601 96.4601 35.4801C96.4001 35.4901 96.3401 35.5101 96.2701 35.5201C96.2401 35.5301 96.2101 35.5301 96.1801 35.5401C96.1501 35.5501 96.1201 35.5601 96.0901 35.5601C96.0301 35.5701 95.9801 35.5901 95.9201 35.6001C95.8701 35.6101 95.8201 35.6401 95.7601 35.6501C95.6601 35.6801 95.5701 35.7101 95.4801 35.7501C95.4401 35.7701 95.4001 35.7801 95.3601 35.7901C95.3201 35.8001 95.2901 35.8201 95.2601 35.8301C95.1401 35.8801 95.0701 35.9101 95.0701 35.9101L94.9601 35.9501C94.6401 36.0601 94.2901 35.8901 94.1701 35.5701C94.1001 35.3701 94.1401 35.1601 94.2501 35.0101C94.2501 35.0101 94.3101 34.9301 94.4301 34.7801C94.4601 34.7501 94.4901 34.7001 94.5301 34.6601C94.5701 34.6201 94.6101 34.5801 94.6601 34.5401C94.7101 34.5001 94.7601 34.4501 94.8201 34.4001C94.8801 34.3501 94.9401 34.3101 95.0101 34.2701C95.0801 34.2201 95.1501 34.1801 95.2201 34.1301C95.3001 34.0901 95.3801 34.0501 95.4601 34.0001C95.5401 33.9501 95.6301 33.9201 95.7201 33.8801C95.8101 33.8401 95.9001 33.8101 96.0001 33.7801C96.1901 33.7301 96.3901 33.6701 96.6001 33.6401C96.8101 33.6001 97.0201 33.6001 97.2401 33.5901C97.4501 33.6001 97.6701 33.6001 97.8801 33.6401C98.0901 33.6701 98.2901 33.7301 98.4801 33.7801C98.5801 33.8101 98.6701 33.8501 98.7601 33.8801C98.8501 33.9101 98.9401 33.9501 99.0201 34.0001C99.1001 34.0401 99.1801 34.0901 99.2601 34.1301C99.3301 34.1701 99.4001 34.2201 99.4701 34.2701C99.5401 34.3201 99.6001 34.3601 99.6601 34.4101C99.7201 34.4601 99.7801 34.5101 99.8301 34.5601C99.8801 34.6101 99.9301 34.6501 99.9701 34.6901C100.01 34.7301 100.03 34.7601 100.05 34.7901C100.15 34.9101 100.2 34.9901 100.2 34.9901C100.4 35.2801 100.32 35.6701 100.03 35.8701C99.8701 36.0001 99.6401 36.0101 99.4501 35.9301Z" fill="#6D4C41" style="fill:#6D4C41;fill:color(display-p3 0.4275 0.2980 0.2549);fill-opacity:1;"/>
<path d="M84.3397 40.55C85.4056 40.55 86.2697 39.6546 86.2697 38.55C86.2697 37.4455 85.4056 36.55 84.3397 36.55C83.2738 36.55 82.4097 37.4455 82.4097 38.55C82.4097 39.6546 83.2738 40.55 84.3397 40.55Z" fill="#404040" style="fill:#404040;fill:color(display-p3 0.2510 0.2510 0.2510);fill-opacity:1;"/>
<path d="M97.2498 40.55C98.3157 40.55 99.1798 39.6546 99.1798 38.55C99.1798 37.4455 98.3157 36.55 97.2498 36.55C96.1839 36.55 95.3198 37.4455 95.3198 38.55C95.3198 39.6546 96.1839 40.55 97.2498 40.55Z" fill="#404040" style="fill:#404040;fill:color(display-p3 0.2510 0.2510 0.2510);fill-opacity:1;"/>
<path d="M94.0101 45.7099C92.7601 46.4499 88.6601 46.4499 87.4101 45.7099C86.6901 45.2799 85.9601 45.94 86.2601 46.59C86.5501 47.23 88.7901 48.72 90.7201 48.72C92.6501 48.72 94.8601 47.23 95.1501 46.59C95.4501 45.93 94.7301 45.2799 94.0101 45.7099Z" fill="#795548" style="fill:#795548;fill:color(display-p3 0.4745 0.3333 0.2824);fill-opacity:1;"/>
<path d="M92.0399 42.1001C91.9999 42.0801 91.9599 42.0701 91.9099 42.0701H89.1399C89.0999 42.0801 89.0599 42.0901 89.0099 42.1001C88.7599 42.2001 88.6199 42.4601 88.7399 42.7401C88.8599 43.0201 89.4099 43.8001 90.5299 43.8001C91.6399 43.8001 92.1999 43.0201 92.3199 42.7401C92.4299 42.4601 92.2899 42.2001 92.0399 42.1001Z" fill="#E59600" style="fill:#E59600;fill:color(display-p3 0.8980 0.5882 0.0000);fill-opacity:1;"/>
<path d="M92.0399 42.1001C91.9999 42.0801 91.9599 42.0701 91.9099 42.0701H89.1399C89.0999 42.0801 89.0599 42.0901 89.0099 42.1001C88.7599 42.2001 88.6199 42.4601 88.7399 42.7401C88.8599 43.0201 89.4099 43.8001 90.5299 43.8001C91.6399 43.8001 92.1999 43.0201 92.3199 42.7401C92.4299 42.4601 92.2899 42.2001 92.0399 42.1001Z" fill="#99674F" style="fill:#99674F;fill:color(display-p3 0.6000 0.4039 0.3098);fill-opacity:1;"/>
<path d="M90.7998 16.6599C90.7898 16.6599 90.7898 16.6599 90.7898 16.6599C72.9998 16.7499 76.6498 37.0699 76.6498 37.0699C76.6498 37.0699 77.4498 39.1699 77.8098 40.0899C77.8598 40.2199 78.0598 40.2099 78.0898 40.0699C78.4698 38.3699 79.8398 32.3499 80.5198 30.5199C80.9298 29.4399 82.0498 28.8099 83.1798 29.0199C84.9198 29.3399 87.6998 29.7299 90.7598 29.7299C90.7698 29.7299 90.7798 29.7299 90.7898 29.7299C90.7998 29.7299 90.8098 29.7299 90.8198 29.7299C93.8798 29.7299 96.6598 29.3399 98.3998 29.0199C99.5298 28.8099 100.65 29.4399 101.06 30.5199C101.75 32.3399 103.1 38.3299 103.49 40.0499C103.52 40.1899 103.72 40.1999 103.77 40.0699L104.94 37.0699C104.94 37.0699 108.58 16.7499 90.7998 16.6599Z" fill="#543930" style="fill:#543930;fill:color(display-p3 0.3294 0.2235 0.1882);fill-opacity:1;"/>
<path d="M104.94 37.0699C104.94 37.0699 108.58 16.7599 90.8 16.6599C90.8 16.6599 90.8 16.6599 90.79 16.6599C90.79 16.6599 90.79 16.6599 90.78 16.6599C90.5 16.6599 90.23 16.6699 89.97 16.6799C89.44 16.6999 88.93 16.7399 88.44 16.7999H88.43C88.39 16.7999 88.36 16.8099 88.33 16.8099C73.36 18.6999 76.65 37.0699 76.65 37.0699L77.82 40.0699C77.87 40.1999 78.06 40.1899 78.1 40.0499C78.48 38.3299 79.85 32.3399 80.53 30.5099C80.94 29.4299 82.06 28.7999 83.19 29.0099C84.93 29.3299 87.71 29.7199 90.77 29.7199C90.78 29.7199 90.79 29.7199 90.8 29.7199C90.81 29.7199 90.82 29.7199 90.83 29.7199C93.89 29.7199 96.67 29.3299 98.41 29.0099C99.54 28.7999 100.66 29.4299 101.07 30.5099C101.76 32.3399 103.13 38.3699 103.5 40.0699C103.53 40.2099 103.72 40.2199 103.77 40.0899C104.14 39.1699 104.94 37.0699 104.94 37.0699Z" fill="url(#paint28_radial_84_3305)" style=""/>
<path d="M106.38 5.84007C106.21 4.84007 105.18 4.25007 104.24 4.60007C102.02 5.42007 98.2601 7.23007 96.3601 10.5301C94.9301 13.0101 94.3301 16.6901 94.0901 19.7101C94.0001 20.8101 93.0501 21.6301 91.9501 21.5501C91.5801 21.5201 90.0101 21.5201 89.6401 21.5501C88.5401 21.6301 87.5801 20.8201 87.5001 19.7101C87.2601 16.6901 86.6601 13.0101 85.2301 10.5301C83.3301 7.22007 79.5501 5.42007 77.3401 4.60007C76.4001 4.25007 75.3901 4.84007 75.2201 5.83007C74.8201 8.16007 74.4901 12.3501 76.4001 15.6501C77.8301 18.1401 80.7001 20.4901 83.1901 22.2101C83.7501 22.6001 83.7501 23.4101 83.2101 23.8301C82.2001 24.6001 81.4401 25.5001 80.8501 26.4001C80.2701 27.3001 81.3001 28.3901 82.2001 27.8101C83.9801 26.6601 86.6901 25.7201 90.7901 25.7201C94.8901 25.7201 97.6001 26.6601 99.3801 27.8101C100.28 28.3901 101.32 27.3001 100.73 26.4001C100.14 25.4901 99.3801 24.6001 98.3801 23.8201C97.8401 23.4001 97.8401 22.5901 98.4001 22.2001C100.88 20.4801 103.75 18.1301 105.19 15.6401C107.1 12.3501 106.78 8.18007 106.38 5.84007Z" fill="url(#paint29_linear_84_3305)" style=""/>
<path d="M98.7001 12.2701C97.6601 14.0701 97.4501 17.1301 97.4001 18.4501C97.3901 18.7401 97.6901 18.9201 97.9401 18.7601C99.0601 18.0601 101.59 16.3501 102.63 14.5401C103.54 12.9601 103.46 11.0001 103.31 9.91011C103.25 9.44011 102.79 9.18011 102.36 9.36011C101.34 9.78011 99.6101 10.6901 98.7001 12.2701Z" fill="#FF4081" style="fill:#FF4081;fill:color(display-p3 1.0000 0.2510 0.5059);fill-opacity:1;"/>
<path d="M82.8899 12.2701C83.9299 14.0701 84.1499 17.1301 84.1899 18.4601C84.1999 18.7501 83.8999 18.9301 83.6599 18.7701C82.5399 18.0701 80.0099 16.3601 78.9699 14.5501C78.0599 12.9701 78.1399 11.0101 78.2799 9.92012C78.3399 9.45012 78.7999 9.19012 79.2299 9.37012C80.2399 9.78012 81.9799 10.6901 82.8899 12.2701Z" fill="#FF4081" style="fill:#FF4081;fill:color(display-p3 1.0000 0.2510 0.5059);fill-opacity:1;"/>
<defs>
<linearGradient id="paint0_linear_84_3305" x1="86.7952" y1="105.209" x2="87.5394" y2="116.278" gradientUnits="userSpaceOnUse">
<stop stop-color="#FFB300" style="stop-color:#FFB300;stop-color:color(display-p3 1.0000 0.7020 0.0000);stop-opacity:1;"/>
<stop offset="0.4007" stop-color="#FFCA28" style="stop-color:#FFCA28;stop-color:color(display-p3 1.0000 0.7922 0.1569);stop-opacity:1;"/>
</linearGradient>
<linearGradient id="paint1_linear_84_3305" x1="87.0082" y1="103.443" x2="87.0082" y2="124.324" gradientUnits="userSpaceOnUse">
<stop stop-color="#A47B62" style="stop-color:#A47B62;stop-color:color(display-p3 0.6431 0.4824 0.3843);stop-opacity:1;"/>
<stop offset="0.5" stop-color="#BA8D68" style="stop-color:#BA8D68;stop-color:color(display-p3 0.7294 0.5529 0.4078);stop-opacity:1;"/>
</linearGradient>
<linearGradient id="paint2_linear_84_3305" x1="108.478" y1="99.4669" x2="108.725" y2="108.117" gradientUnits="userSpaceOnUse">
<stop stop-color="#FFB300" style="stop-color:#FFB300;stop-color:color(display-p3 1.0000 0.7020 0.0000);stop-opacity:1;"/>
<stop offset="0.4007" stop-color="#FFCA28" style="stop-color:#FFCA28;stop-color:color(display-p3 1.0000 0.7922 0.1569);stop-opacity:1;"/>
</linearGradient>
<linearGradient id="paint3_linear_84_3305" x1="108.869" y1="98.0923" x2="108.869" y2="114.348" gradientUnits="userSpaceOnUse">
<stop stop-color="#A47B62" style="stop-color:#A47B62;stop-color:color(display-p3 0.6431 0.4824 0.3843);stop-opacity:1;"/>
<stop offset="0.5" stop-color="#BA8D68" style="stop-color:#BA8D68;stop-color:color(display-p3 0.7294 0.5529 0.4078);stop-opacity:1;"/>
</linearGradient>
<linearGradient id="paint4_linear_84_3305" x1="92.74" y1="77.8734" x2="93.3236" y2="95.3537" gradientUnits="userSpaceOnUse">
<stop stop-color="#FFB300" style="stop-color:#FFB300;stop-color:color(display-p3 1.0000 0.7020 0.0000);stop-opacity:1;"/>
<stop offset="0.4007" stop-color="#FFCA28" style="stop-color:#FFCA28;stop-color:color(display-p3 1.0000 0.7922 0.1569);stop-opacity:1;"/>
</linearGradient>
<linearGradient id="paint5_linear_84_3305" x1="93.415" y1="75.0945" x2="93.415" y2="107.956" gradientUnits="userSpaceOnUse">
<stop stop-color="#A47B62" style="stop-color:#A47B62;stop-color:color(display-p3 0.6431 0.4824 0.3843);stop-opacity:1;"/>
<stop offset="0.5" stop-color="#BA8D68" style="stop-color:#BA8D68;stop-color:color(display-p3 0.7294 0.5529 0.4078);stop-opacity:1;"/>
</linearGradient>
<linearGradient id="paint6_linear_84_3305" x1="90.6241" y1="52.3636" x2="90.6241" y2="98.9676" gradientUnits="userSpaceOnUse">
<stop stop-color="#515151" style="stop-color:#515151;stop-color:color(display-p3 0.3176 0.3176 0.3176);stop-opacity:1;"/>
<stop offset="0.9439" stop-color="#313131" style="stop-color:#313131;stop-color:color(display-p3 0.1922 0.1922 0.1922);stop-opacity:1;"/>
</linearGradient>
<linearGradient id="paint7_linear_84_3305" x1="100.565" y1="66.5742" x2="110.239" y2="77.923" gradientUnits="userSpaceOnUse">
<stop offset="0.1719" stop-color="#FFB300" style="stop-color:#FFB300;stop-color:color(display-p3 1.0000 0.7020 0.0000);stop-opacity:1;"/>
<stop offset="0.518" stop-color="#FFCA28" style="stop-color:#FFCA28;stop-color:color(display-p3 1.0000 0.7922 0.1569);stop-opacity:1;"/>
</linearGradient>
<linearGradient id="paint8_linear_84_3305" x1="107.935" y1="59.7431" x2="107.935" y2="82.9241" gradientUnits="userSpaceOnUse">
<stop stop-color="#A47B62" style="stop-color:#A47B62;stop-color:color(display-p3 0.6431 0.4824 0.3843);stop-opacity:1;"/>
<stop offset="0.5" stop-color="#BA8D68" style="stop-color:#BA8D68;stop-color:color(display-p3 0.7294 0.5529 0.4078);stop-opacity:1;"/>
</linearGradient>
<linearGradient id="paint9_linear_84_3305" x1="66.3079" y1="66.5801" x2="75.9919" y2="77.9304" gradientUnits="userSpaceOnUse">
<stop offset="0.1719" stop-color="#FFB300" style="stop-color:#FFB300;stop-color:color(display-p3 1.0000 0.7020 0.0000);stop-opacity:1;"/>
<stop offset="0.518" stop-color="#FFCA28" style="stop-color:#FFCA28;stop-color:color(display-p3 1.0000 0.7922 0.1569);stop-opacity:1;"/>
</linearGradient>
<linearGradient id="paint10_linear_84_3305" x1="73.6786" y1="59.7431" x2="73.6786" y2="82.9441" gradientUnits="userSpaceOnUse">
<stop stop-color="#A47B62" style="stop-color:#A47B62;stop-color:color(display-p3 0.6431 0.4824 0.3843);stop-opacity:1;"/>
<stop offset="0.5" stop-color="#BA8D68" style="stop-color:#BA8D68;stop-color:color(display-p3 0.7294 0.5529 0.4078);stop-opacity:1;"/>
</linearGradient>
<linearGradient id="paint11_linear_84_3305" x1="90.6539" y1="51.3084" x2="90.6539" y2="97.9124" gradientUnits="userSpaceOnUse">
<stop stop-color="#515151" style="stop-color:#515151;stop-color:color(display-p3 0.3176 0.3176 0.3176);stop-opacity:1;"/>
<stop offset="0.9439" stop-color="#313131" style="stop-color:#313131;stop-color:color(display-p3 0.1922 0.1922 0.1922);stop-opacity:1;"/>
</linearGradient>
<linearGradient id="paint12_linear_84_3305" x1="90.6401" y1="53.3567" x2="90.6401" y2="60.1939" gradientUnits="userSpaceOnUse">
<stop stop-color="#FFB300" style="stop-color:#FFB300;stop-color:color(display-p3 1.0000 0.7020 0.0000);stop-opacity:1;"/>
<stop offset="0.6846" stop-color="#FFCA28" style="stop-color:#FFCA28;stop-color:color(display-p3 1.0000 0.7922 0.1569);stop-opacity:1;"/>
</linearGradient>
<linearGradient id="paint13_linear_84_3305" x1="30.9456" y1="105.209" x2="31.6898" y2="116.278" gradientUnits="userSpaceOnUse">
<stop stop-color="#FFB300" style="stop-color:#FFB300;stop-color:color(display-p3 1.0000 0.7020 0.0000);stop-opacity:1;"/>
<stop offset="0.4007" stop-color="#FFCA28" style="stop-color:#FFCA28;stop-color:color(display-p3 1.0000 0.7922 0.1569);stop-opacity:1;"/>
</linearGradient>
<linearGradient id="paint14_linear_84_3305" x1="31.1586" y1="103.443" x2="31.1586" y2="124.324" gradientUnits="userSpaceOnUse">
<stop stop-color="#A47B62" style="stop-color:#A47B62;stop-color:color(display-p3 0.6431 0.4824 0.3843);stop-opacity:1;"/>
<stop offset="0.5" stop-color="#BA8D68" style="stop-color:#BA8D68;stop-color:color(display-p3 0.7294 0.5529 0.4078);stop-opacity:1;"/>
</linearGradient>
<linearGradient id="paint15_linear_84_3305" x1="52.6283" y1="99.4669" x2="52.875" y2="108.117" gradientUnits="userSpaceOnUse">
<stop stop-color="#FFB300" style="stop-color:#FFB300;stop-color:color(display-p3 1.0000 0.7020 0.0000);stop-opacity:1;"/>
<stop offset="0.4007" stop-color="#FFCA28" style="stop-color:#FFCA28;stop-color:color(display-p3 1.0000 0.7922 0.1569);stop-opacity:1;"/>
</linearGradient>
<linearGradient id="paint16_linear_84_3305" x1="53.0193" y1="98.0923" x2="53.0193" y2="114.348" gradientUnits="userSpaceOnUse">
<stop stop-color="#A47B62" style="stop-color:#A47B62;stop-color:color(display-p3 0.6431 0.4824 0.3843);stop-opacity:1;"/>
<stop offset="0.5" stop-color="#BA8D68" style="stop-color:#BA8D68;stop-color:color(display-p3 0.7294 0.5529 0.4078);stop-opacity:1;"/>
</linearGradient>
<linearGradient id="paint17_linear_84_3305" x1="36.8899" y1="77.8734" x2="37.4735" y2="95.3537" gradientUnits="userSpaceOnUse">
<stop stop-color="#FFB300" style="stop-color:#FFB300;stop-color:color(display-p3 1.0000 0.7020 0.0000);stop-opacity:1;"/>
<stop offset="0.4007" stop-color="#FFCA28" style="stop-color:#FFCA28;stop-color:color(display-p3 1.0000 0.7922 0.1569);stop-opacity:1;"/>
</linearGradient>
<linearGradient id="paint18_linear_84_3305" x1="37.5649" y1="75.0945" x2="37.5649" y2="107.956" gradientUnits="userSpaceOnUse">
<stop stop-color="#A47B62" style="stop-color:#A47B62;stop-color:color(display-p3 0.6431 0.4824 0.3843);stop-opacity:1;"/>
<stop offset="0.5" stop-color="#BA8D68" style="stop-color:#BA8D68;stop-color:color(display-p3 0.7294 0.5529 0.4078);stop-opacity:1;"/>
</linearGradient>
<linearGradient id="paint19_linear_84_3305" x1="34.774" y1="52.3636" x2="34.774" y2="98.9676" gradientUnits="userSpaceOnUse">
<stop stop-color="#515151" style="stop-color:#515151;stop-color:color(display-p3 0.3176 0.3176 0.3176);stop-opacity:1;"/>
<stop offset="0.9439" stop-color="#313131" style="stop-color:#313131;stop-color:color(display-p3 0.1922 0.1922 0.1922);stop-opacity:1;"/>
</linearGradient>
<linearGradient id="paint20_linear_84_3305" x1="44.7146" y1="66.5742" x2="54.389" y2="77.923" gradientUnits="userSpaceOnUse">
<stop offset="0.1719" stop-color="#FFB300" style="stop-color:#FFB300;stop-color:color(display-p3 1.0000 0.7020 0.0000);stop-opacity:1;"/>
<stop offset="0.518" stop-color="#FFCA28" style="stop-color:#FFCA28;stop-color:color(display-p3 1.0000 0.7922 0.1569);stop-opacity:1;"/>
</linearGradient>
<linearGradient id="paint21_linear_84_3305" x1="52.0853" y1="59.7431" x2="52.0853" y2="82.9241" gradientUnits="userSpaceOnUse">
<stop stop-color="#A47B62" style="stop-color:#A47B62;stop-color:color(display-p3 0.6431 0.4824 0.3843);stop-opacity:1;"/>
<stop offset="0.5" stop-color="#BA8D68" style="stop-color:#BA8D68;stop-color:color(display-p3 0.7294 0.5529 0.4078);stop-opacity:1;"/>
</linearGradient>
<linearGradient id="paint22_linear_84_3305" x1="10.4578" y1="66.5801" x2="20.1418" y2="77.9304" gradientUnits="userSpaceOnUse">
<stop offset="0.1719" stop-color="#FFB300" style="stop-color:#FFB300;stop-color:color(display-p3 1.0000 0.7020 0.0000);stop-opacity:1;"/>
<stop offset="0.518" stop-color="#FFCA28" style="stop-color:#FFCA28;stop-color:color(display-p3 1.0000 0.7922 0.1569);stop-opacity:1;"/>
</linearGradient>
<linearGradient id="paint23_linear_84_3305" x1="17.8285" y1="59.7431" x2="17.8285" y2="82.9441" gradientUnits="userSpaceOnUse">
<stop stop-color="#A47B62" style="stop-color:#A47B62;stop-color:color(display-p3 0.6431 0.4824 0.3843);stop-opacity:1;"/>
<stop offset="0.5" stop-color="#BA8D68" style="stop-color:#BA8D68;stop-color:color(display-p3 0.7294 0.5529 0.4078);stop-opacity:1;"/>
</linearGradient>
<linearGradient id="paint24_linear_84_3305" x1="34.8038" y1="51.3084" x2="34.8038" y2="97.9124" gradientUnits="userSpaceOnUse">
<stop stop-color="#515151" style="stop-color:#515151;stop-color:color(display-p3 0.3176 0.3176 0.3176);stop-opacity:1;"/>
<stop offset="0.9439" stop-color="#313131" style="stop-color:#313131;stop-color:color(display-p3 0.1922 0.1922 0.1922);stop-opacity:1;"/>
</linearGradient>
<linearGradient id="paint25_linear_84_3305" x1="34.79" y1="53.3567" x2="34.79" y2="60.1939" gradientUnits="userSpaceOnUse">
<stop stop-color="#FFB300" style="stop-color:#FFB300;stop-color:color(display-p3 1.0000 0.7020 0.0000);stop-opacity:1;"/>
<stop offset="0.6846" stop-color="#FFCA28" style="stop-color:#FFCA28;stop-color:color(display-p3 1.0000 0.7922 0.1569);stop-opacity:1;"/>
</linearGradient>
<radialGradient id="paint26_radial_84_3305" cx="0" cy="0" r="1" gradientUnits="userSpaceOnUse" gradientTransform="translate(34.7553 33.5149) scale(14.908 16.8192)">
<stop offset="0.7945" stop-color="#6D4C41" stop-opacity="0" style="stop-color:none;stop-opacity:0;"/>
<stop offset="1" stop-color="#6D4C41" style="stop-color:#6D4C41;stop-color:color(display-p3 0.4275 0.2980 0.2549);stop-opacity:1;"/>
</radialGradient>
<linearGradient id="paint27_linear_84_3305" x1="34.7554" y1="11.2399" x2="34.7554" y2="36.6174" gradientUnits="userSpaceOnUse">
<stop stop-color="#504F4F" style="stop-color:#504F4F;stop-color:color(display-p3 0.3137 0.3098 0.3098);stop-opacity:1;"/>
<stop offset="1" stop-color="#212121" style="stop-color:#212121;stop-color:color(display-p3 0.1294 0.1294 0.1294);stop-opacity:1;"/>
</linearGradient>
<radialGradient id="paint28_radial_84_3305" cx="0" cy="0" r="1" gradientUnits="userSpaceOnUse" gradientTransform="translate(90.7943 33.5149) scale(14.9079 16.8191)">
<stop offset="0.7945" stop-color="#6D4C41" stop-opacity="0" style="stop-color:none;stop-opacity:0;"/>
<stop offset="1" stop-color="#6D4C41" style="stop-color:#6D4C41;stop-color:color(display-p3 0.4275 0.2980 0.2549);stop-opacity:1;"/>
</radialGradient>
<linearGradient id="paint29_linear_84_3305" x1="90.7944" y1="12.0432" x2="90.7944" y2="37.4207" gradientUnits="userSpaceOnUse">
<stop stop-color="#504F4F" style="stop-color:#504F4F;stop-color:color(display-p3 0.3137 0.3098 0.3098);stop-opacity:1;"/>
<stop offset="1" stop-color="#212121" style="stop-color:#212121;stop-color:color(display-p3 0.1294 0.1294 0.1294);stop-opacity:1;"/>
</linearGradient>
</defs>
</svg>
