<svg width="128" height="128" viewBox="0 0 128 128" fill="none" xmlns="http://www.w3.org/2000/svg">
<path d="M119.43 86.9609C122.446 79.6814 123.997 71.8793 123.997 64C123.997 56.1207 122.446 48.3185 119.43 41.039C116.415 33.7594 111.996 27.1451 106.425 21.5736C100.853 16.0021 94.2392 11.5825 86.96 8.56722C79.6808 5.55194 71.8789 4 63.9999 4C56.121 4 48.3191 5.55194 41.0399 8.56722C33.7607 11.5825 27.1466 16.0021 21.5753 21.5736C16.004 27.1451 11.5846 33.7594 8.56947 41.039C5.55431 48.3185 4.00244 56.1207 4.00244 64C4.00244 71.8793 5.55431 79.6814 8.56947 86.9609C11.5846 94.2405 16.004 100.855 21.5753 106.426C27.1466 111.998 33.7607 116.417 41.0399 119.433C48.3191 122.448 56.121 124 63.9999 124C71.8789 124 79.6808 122.448 86.96 119.433C94.2392 116.417 100.853 111.998 106.425 106.426C111.996 100.855 116.415 94.2405 119.43 86.9609Z" fill="url(#paint0_linear_87_248)" style=""/>
<path d="M63.9302 124C97.0673 124 123.93 97.1371 123.93 64C123.93 30.8629 97.0673 4 63.9302 4C30.7931 4 3.93018 30.8629 3.93018 64C3.93018 97.1371 30.7931 124 63.9302 124Z" fill="#BDBDBD" style="fill:#BDBDBD;fill:color(display-p3 0.7412 0.7412 0.7412);fill-opacity:1;"/>
<path d="M60.0302 119.2C91.0134 119.2 116.13 94.0832 116.13 63.1C116.13 32.1168 91.0134 7 60.0302 7C29.047 7 3.93018 32.1168 3.93018 63.1C3.93018 94.0832 29.047 119.2 60.0302 119.2Z" fill="#E0E0E0" style="fill:#E0E0E0;fill:color(display-p3 0.8784 0.8784 0.8784);fill-opacity:1;"/>
<path d="M49.1364 118.143C49.1364 119.636 48.1372 121.33 45.5115 121.08L45.7408 121.157C57.6311 125.137 70.4963 125.122 82.3777 121.116C79.946 121.279 79.0132 119.586 79.0132 118.143C79.0132 117.461 79.0216 116.282 79.0328 114.712C79.055 111.586 79.0883 106.912 79.0883 101.536C79.0883 95.8742 77.2116 92.2508 75.0346 90.3637C88.3967 88.8539 102.434 83.7208 102.434 60.5464C102.434 53.9036 100.107 48.544 96.2787 44.3167C96.8793 42.807 98.9812 36.6171 95.6782 28.3135C95.6782 28.3135 90.6487 26.6528 79.1634 34.5034C74.359 33.1447 69.2545 32.4653 64.1499 32.4653C59.0453 32.4653 53.9407 33.1447 49.1364 34.5034C37.6511 26.7283 32.6216 28.3135 32.6216 28.3135C29.3186 36.6171 31.4205 42.807 32.021 44.3167C28.1926 48.544 25.8655 53.979 25.8655 60.5464C25.8655 83.6453 39.828 88.8539 53.19 90.3637C51.4635 91.8734 49.8871 94.5154 49.3616 98.4408C45.9085 100.026 37.2757 102.593 31.8709 93.4586C30.7449 91.6469 27.3668 87.1932 22.6376 87.2687C17.6081 87.3442 20.6108 90.1372 22.7127 91.2695C25.265 92.7038 28.1926 98.0633 28.8682 99.7995C30.0693 103.196 33.9728 109.688 49.0613 106.895C49.0613 110.195 49.0933 113.367 49.1155 115.571C49.1273 116.745 49.1364 117.644 49.1364 118.143Z" fill="#33393D" style="fill:#33393D;fill:color(display-p3 0.2009 0.2229 0.2375);fill-opacity:1;"/>
<path opacity="0.7" d="M23.93 29.6998C28.43 22.5998 38.03 16.6998 48.03 14.8998C50.53 14.4998 53.03 14.2998 55.13 15.0998C56.73 15.6998 58.03 17.1998 57.13 18.8998C56.43 20.2998 54.53 20.8998 53.03 21.3998C43.65 24.4998 35.56 30.6098 30.03 38.7998C28.03 41.7998 25.03 50.0998 21.33 47.9998C17.43 45.6998 18.23 38.4998 23.93 29.6998Z" fill="white" style="fill:white;fill-opacity:1;"/>
<defs>
<linearGradient id="paint0_linear_87_248" x1="63.9999" y1="26.8367" x2="66.4968" y2="127.462" gradientUnits="userSpaceOnUse">
<stop stop-color="white" style="stop-color:white;stop-opacity:1;"/>
<stop offset="0.807292" stop-color="#EBEBEB" style="stop-color:#EBEBEB;stop-color:color(display-p3 0.9208 0.9208 0.9208);stop-opacity:1;"/>
<stop offset="1" stop-color="#E4E4E4" style="stop-color:#E4E4E4;stop-color:color(display-p3 0.8958 0.8958 0.8958);stop-opacity:1;"/>
</linearGradient>
</defs>
</svg>
