<svg width="128" height="129" viewBox="0 0 128 129" fill="none" xmlns="http://www.w3.org/2000/svg">
<path d="M23.9902 19.4657C23.9902 19.4657 24.9602 12.8757 26.2202 10.2357C27.4802 7.59569 29.4602 4.81569 33.2602 4.07569C37.7902 3.19569 90.3102 3.65569 93.9502 3.88569C97.6202 4.12569 100.03 5.27569 101.41 7.53569C102.46 9.26569 102.83 11.3757 103.32 14.5057C103.58 16.1557 104.12 20.6757 104.12 20.6757L23.9902 19.4657Z" fill="#FFA828" style="fill:#FFA828;fill:color(display-p3 1.0000 0.6588 0.1569);fill-opacity:1;"/>
<path d="M50.6302 37.3156L22.4702 32.6356C22.4702 32.6356 23.0602 20.9856 24.2802 17.9356C25.5002 14.8856 27.0102 13.0656 31.4402 12.3056C35.8702 11.5456 46.9702 11.8556 63.6202 11.7056C80.2702 11.5556 94.9302 12.5656 97.5302 12.7156C100.13 12.8656 102.57 14.1456 103.33 16.5856C104.09 19.0256 104.46 22.3256 105.01 28.1956C105.21 30.3256 105.03 34.3556 105.03 34.3556L72.7602 36.5556L50.6302 37.3156Z" fill="#F1EDEC" style="fill:#F1EDEC;fill:color(display-p3 0.9451 0.9294 0.9255);fill-opacity:1;"/>
<path d="M22.2302 35.6857C22.4202 32.6357 22.4802 29.3357 24.8002 27.3657C26.7902 25.6857 30.1502 25.9957 34.1202 25.8357C37.7902 25.6957 47.1002 25.7757 64.6702 25.7757C82.2402 25.7757 97.0302 26.0357 99.7802 26.0357C102.53 26.0357 104.87 28.1857 105.17 30.1757C105.48 32.1657 104.1 116.326 103.95 118.156C103.8 119.986 103.19 123.656 99.2102 123.956C95.2402 124.266 32.7702 124.266 30.1702 123.956C27.5702 123.646 25.2802 121.356 24.8202 117.086C24.3602 112.816 22.0702 38.1257 22.2302 35.6857Z" fill="#D8CDC9" style="fill:#D8CDC9;fill:color(display-p3 0.8471 0.8039 0.7882);fill-opacity:1;"/>
<path d="M29.61 50.0259C31.91 50.3259 33.82 40.4159 36.82 38.1059C39.82 35.8059 45.43 34.5959 45.43 32.2959C45.43 31.1459 41.79 31.1559 38.42 31.1959C35.05 31.2359 32.15 30.9559 30.51 32.6959C28.71 34.5959 28.53 37.6459 28.41 40.7059C28.2 45.6159 28.19 49.8359 29.61 50.0259Z" fill="#F1EDEC" style="fill:#F1EDEC;fill:color(display-p3 0.9451 0.9294 0.9255);fill-opacity:1;"/>
<path d="M79.3398 117.656C79.3398 119.336 80.5698 119.886 87.2198 119.656C92.8398 119.466 95.6198 118.756 97.2898 116.746C98.9598 114.746 99.4198 110.546 99.4898 105.506C99.5298 102.016 99.4398 98.6562 97.6798 98.6562C95.1598 98.6562 95.1699 104.406 93.1599 107.636C89.2199 113.976 79.3398 115.416 79.3398 117.656Z" fill="#F1EDEC" style="fill:#F1EDEC;fill:color(display-p3 0.9451 0.9294 0.9255);fill-opacity:1;"/>
<path d="M96.6854 100.601L96.676 100.593C94.7917 98.8751 92.4294 97.9973 89.516 97.9973L96.6854 100.601ZM96.6854 100.601L96.695 100.61M96.6854 100.601L96.695 100.61M96.695 100.61C98.6402 102.294 99.5656 104.264 99.5656 106.566L96.695 100.61ZM99.5656 106.566C99.5656 109.019 98.6069 111.053 96.6223 112.729C94.6733 114.374 92.3232 115.207 89.5159 115.207C86.5982 115.207 84.201 114.35 82.2591 112.67C80.3138 110.94 79.3838 108.921 79.3838 106.566V106.566C79.3838 104.213 80.3123 102.222 82.2497 100.542C84.254 98.8518 86.658 97.9973 89.5159 97.9973L99.5656 106.566Z" stroke="#426FE4" style="stroke:#426FE4;stroke:color(display-p3 0.2588 0.4353 0.8941);stroke-opacity:1;" stroke-width="2"/>
<ellipse cx="89.4743" cy="106.555" rx="2.3405" ry="2.0269" fill="#426FE4" style="fill:#426FE4;fill:color(display-p3 0.2588 0.4353 0.8941);fill-opacity:1;"/>
<path d="M47.6546 100.584L47.6452 100.575C45.7609 98.8573 43.3986 97.9795 40.4852 97.9795L47.6546 100.584ZM47.6546 100.584L47.6643 100.592M47.6546 100.584L47.6643 100.592M47.6643 100.592C49.6095 102.277 50.5348 104.247 50.5349 106.549L47.6643 100.592ZM50.5349 106.549C50.5348 109.001 49.5762 111.035 47.5916 112.711C45.6425 114.356 43.2924 115.189 40.4852 115.189C37.5674 115.189 35.1702 114.332 33.2284 112.652C31.283 110.923 30.353 108.904 30.353 106.549V106.549C30.353 104.195 31.2816 102.204 33.2189 100.525C35.2233 98.834 37.6273 97.9795 40.4852 97.9795L50.5349 106.549Z" stroke="#426FE4" style="stroke:#426FE4;stroke:color(display-p3 0.2588 0.4353 0.8941);stroke-opacity:1;" stroke-width="2"/>
<ellipse cx="40.4437" cy="106.602" rx="2.26642" ry="1.96274" fill="#426FE4" style="fill:#426FE4;fill:color(display-p3 0.2588 0.4353 0.8941);fill-opacity:1;"/>
<path d="M96.6854 78.546L96.676 78.5374C94.7917 76.8197 92.4294 75.9419 89.516 75.9419L96.6854 78.546ZM96.6854 78.546L96.695 78.5543M96.6854 78.546L96.695 78.5543M96.695 78.5543C98.6402 80.2389 99.5656 82.209 99.5656 84.511L96.695 78.5543ZM99.5656 84.5111C99.5656 86.9637 98.6069 88.9979 96.6223 90.6737C94.6733 92.3183 92.3232 93.1516 89.5159 93.1516C86.5982 93.1516 84.201 92.2945 82.2591 90.6147C80.3138 88.885 79.3838 86.866 79.3838 84.5111V84.511C79.3838 82.1575 80.3123 80.1667 82.2497 78.487C84.254 76.7964 86.658 75.9419 89.5159 75.9419L99.5656 84.5111Z" stroke="#426FE4" style="stroke:#426FE4;stroke:color(display-p3 0.2588 0.4353 0.8941);stroke-opacity:1;" stroke-width="2"/>
<path d="M89.5828 86.4857C90.6053 86.4857 91.6875 85.7399 91.6875 84.529C91.6875 83.3181 90.6053 82.5723 89.5828 82.5723C88.5602 82.5723 87.478 83.3181 87.478 84.529C87.478 85.7399 88.5602 86.4857 89.5828 86.4857Z" fill="#426FE4" stroke="#426FE4" style="fill:#426FE4;fill:color(display-p3 0.2588 0.4353 0.8941);fill-opacity:1;stroke:#426FE4;stroke:color(display-p3 0.2588 0.4353 0.8941);stroke-opacity:1;" stroke-width="2"/>
<path d="M96.9183 54.3948L96.9089 54.3863C95.0246 52.6686 92.6623 51.7908 89.7489 51.7908L96.9183 54.3948ZM96.9183 54.3948L96.9279 54.4032M96.9183 54.3948L96.9279 54.4032M96.9279 54.4032C98.8731 56.0878 99.7985 58.0579 99.7985 60.3599L96.9279 54.4032ZM99.7985 60.36C99.7985 62.8126 98.8398 64.8468 96.8552 66.5226C94.9062 68.1672 92.5561 69.0005 89.7489 69.0005C86.8311 69.0005 84.4339 68.1433 82.492 66.4636C80.5467 64.7339 79.6167 62.7148 79.6167 60.3599V60.3599C79.6167 58.0064 80.5452 56.0155 82.4826 54.3359C84.487 52.6453 86.8909 51.7908 89.7488 51.7908L99.7985 60.36Z" stroke="#40A940" style="stroke:#40A940;stroke:color(display-p3 0.2512 0.6625 0.2512);stroke-opacity:1;" stroke-width="2"/>
<path d="M89.8157 62.3346C90.8382 62.3346 91.9205 61.5888 91.9205 60.3779C91.9205 59.167 90.8382 58.4211 89.8157 58.4211C88.7932 58.4211 87.7109 59.167 87.7109 60.3779C87.7109 61.5888 88.7932 62.3346 89.8157 62.3346Z" fill="#40A940" stroke="#40A940" style="fill:#40A940;fill:color(display-p3 0.2512 0.6625 0.2512);fill-opacity:1;stroke:#40A940;stroke:color(display-p3 0.2512 0.6625 0.2512);stroke-opacity:1;" stroke-width="2"/>
<path d="M71.9359 43.5772L71.9265 43.5686C70.0422 41.851 67.6799 40.9732 64.7664 40.9731L71.9359 43.5772ZM71.9359 43.5772L71.9455 43.5855M71.9359 43.5772L71.9455 43.5855M71.9455 43.5855C73.8907 45.2702 74.8161 47.2402 74.8161 49.5423L71.9455 43.5855ZM74.8161 49.5423C74.8161 51.995 73.8574 54.0291 71.8728 55.705C69.9238 57.3496 67.5737 58.1829 64.7664 58.1829C61.8487 58.1829 59.4515 57.3257 57.5096 55.646C55.5643 53.9162 54.6343 51.8972 54.6343 49.5423V49.5423C54.6343 47.1887 55.5628 45.1979 57.5002 43.5182C59.5045 41.8277 61.9085 40.9732 64.7664 40.9731L74.8161 49.5423Z" stroke="#40A940" style="stroke:#40A940;stroke:color(display-p3 0.2512 0.6625 0.2512);stroke-opacity:1;" stroke-width="2"/>
<path d="M64.8333 51.5167C65.8558 51.5167 66.938 50.7709 66.938 49.56C66.938 48.3491 65.8558 47.6033 64.8333 47.6033C63.8107 47.6033 62.7285 48.3491 62.7285 49.56C62.7285 50.7709 63.8107 51.5167 64.8333 51.5167Z" fill="#40A940" stroke="#40A940" style="fill:#40A940;fill:color(display-p3 0.2512 0.6625 0.2512);fill-opacity:1;stroke:#40A940;stroke:color(display-p3 0.2512 0.6625 0.2512);stroke-opacity:1;" stroke-width="2"/>
<path d="M48.0887 32.7598L48.0793 32.7513C46.195 31.0336 43.8327 30.1558 40.9193 30.1558L48.0887 32.7598ZM48.0887 32.7598L48.0983 32.7682M48.0887 32.7598L48.0983 32.7682M48.0983 32.7682C50.0435 34.4528 50.9689 36.4229 50.969 38.7249L48.0983 32.7682ZM50.969 38.7249C50.9689 41.1776 50.0102 43.2117 48.0256 44.8876C46.0766 46.5322 43.7265 47.3655 40.9193 47.3655C38.0015 47.3655 35.6043 46.5083 33.6624 44.8286C31.7171 43.0988 30.7871 41.0798 30.7871 38.7249V38.7249C30.7871 36.3714 31.7156 34.3805 33.653 32.7008C35.6574 31.0103 38.0614 30.1558 40.9193 30.1558L50.969 38.7249Z" stroke="#40A940" style="stroke:#40A940;stroke:color(display-p3 0.2512 0.6625 0.2512);stroke-opacity:1;" stroke-width="2"/>
<path d="M40.9861 40.7001C42.0086 40.7001 43.0909 39.9542 43.0909 38.7434C43.0909 37.5325 42.0086 36.7866 40.9861 36.7866C39.9636 36.7866 38.8813 37.5325 38.8813 38.7434C38.8813 39.9542 39.9636 40.7001 40.9861 40.7001Z" fill="#40A940" stroke="#40A940" style="fill:#40A940;fill:color(display-p3 0.2512 0.6625 0.2512);fill-opacity:1;stroke:#40A940;stroke:color(display-p3 0.2512 0.6625 0.2512);stroke-opacity:1;" stroke-width="2"/>
<path d="M47.6546 78.5289L47.6452 78.5203C45.7609 76.8026 43.3986 75.9248 40.4852 75.9248L47.6546 78.5289ZM47.6546 78.5289L47.6643 78.5372M47.6546 78.5289L47.6643 78.5372M47.6643 78.5372C49.6095 80.2218 50.5348 82.1919 50.5349 84.494L47.6643 78.5372ZM50.5349 84.494C50.5348 86.9466 49.5762 88.9808 47.5916 90.6566C45.6425 92.3012 43.2924 93.1346 40.4852 93.1345C37.5674 93.1346 35.1702 92.2774 33.2284 90.5977C31.283 88.8679 30.353 86.8489 30.353 84.494V84.494C30.353 82.1404 31.2816 80.1496 33.2189 78.4699C35.2233 76.7793 37.6273 75.9248 40.4852 75.9248L50.5349 84.494Z" stroke="#426FE4" style="stroke:#426FE4;stroke:color(display-p3 0.2588 0.4353 0.8941);stroke-opacity:1;" stroke-width="2"/>
<ellipse cx="40.4441" cy="84.5481" rx="2.17358" ry="1.88235" fill="#426FE4" style="fill:#426FE4;fill:color(display-p3 0.2588 0.4353 0.8941);fill-opacity:1;"/>
</svg>
