<svg width="128" height="128" viewBox="0 0 128 128" fill="none" xmlns="http://www.w3.org/2000/svg">
<path d="M64.21 55.04C64.14 54.99 56.65 50.07 52.47 32.85C49.98 22.62 49.67 11.53 49.83 4.04004H48.23C48.06 11.64 48.39 22.86 50.91 33.23C55.27 51.17 63.03 56.2 63.35 56.4C63.48 56.48 63.63 56.52 63.77 56.52C64.04 56.52 64.3 56.39 64.45 56.15C64.7 55.77 64.59 55.28 64.21 55.04Z" fill="#1C75BC" style="fill:#1C75BC;fill:color(display-p3 0.1098 0.4588 0.7373);fill-opacity:1;"/>
<path d="M74.1701 39.2102C74.1401 39.0802 74.0601 38.9702 73.9501 38.9002L64.1401 32.5302L56.0901 19.7302C55.9701 19.5302 55.7201 19.4502 55.5001 19.5302L52.9101 20.4402C52.4301 20.6102 52.0401 20.9702 51.8401 21.4402C51.6401 21.9102 51.6401 22.4402 51.8501 22.9002L57.8801 36.4202C57.8901 36.4402 57.9001 36.4602 57.9101 36.4802C58.1901 37.1102 58.6401 37.6402 59.2101 38.0202L69.9401 45.0802C70.0201 45.1302 70.1201 45.1602 70.2201 45.1602C70.2501 45.1602 70.2901 45.1602 70.3201 45.1502C70.4501 45.1202 70.5601 45.0502 70.6401 44.9302L74.1001 39.6002C74.1701 39.4802 74.1901 39.3402 74.1701 39.2102Z" fill="#91674D" style="fill:#91674D;fill:color(display-p3 0.5686 0.4039 0.3020);fill-opacity:1;"/>
<path d="M64.14 32.5298L60.11 39.5098L67.5 43.4598C69.66 44.8098 72.56 43.9598 73.7 42.1198C74.84 40.2798 73.88 37.0098 72.99 36.4498L64.14 32.5298Z" fill="#DB5200" style="fill:#DB5200;fill:color(display-p3 0.8588 0.3216 0.0000);fill-opacity:1;"/>
<path d="M84.8901 20.8502C84.4501 16.6202 81.1101 11.8802 77.0401 10.6502C72.4801 9.27023 68.7301 11.1902 66.2701 14.7302C65.3801 16.0102 64.7401 17.4202 64.5001 18.5302C64.4701 18.6602 64.2901 19.6302 64.1701 19.9102C63.8201 21.0202 61.3101 21.0702 60.5201 22.0902C59.9201 22.8602 61.4601 24.2902 61.5301 24.5202C61.8601 25.6402 59.7401 28.4202 62.8601 30.7602C63.6601 31.3602 66.3701 31.7902 66.3701 31.7902C67.9101 32.8302 66.3001 36.7002 66.3001 36.7002L75.0101 38.1202C75.0101 38.1202 73.5701 34.4702 77.7901 31.5602C81.0201 29.3302 85.1801 23.5702 84.8901 20.8502Z" fill="#BA8D68" style="fill:#BA8D68;fill:color(display-p3 0.7294 0.5529 0.4078);fill-opacity:1;"/>
<path d="M61.14 26.9903C61.81 27.3703 62.65 27.5403 63.44 27.4003C64.3 27.2403 64.12 26.5103 63.25 26.4603C62.72 26.4303 61.91 26.1403 61.4 25.7603L61.14 26.9903Z" fill="#5D4037" style="fill:#5D4037;fill:color(display-p3 0.3647 0.2510 0.2157);fill-opacity:1;"/>
<path d="M67.8806 22.3999C68.2252 21.6223 68.0912 20.8088 67.5813 20.5828C67.0713 20.3567 66.3786 20.8038 66.0339 21.5814C65.6893 22.3589 65.8233 23.1725 66.3333 23.3985C66.8432 23.6245 67.536 23.1774 67.8806 22.3999Z" fill="#49362E" style="fill:#49362E;fill:color(display-p3 0.2863 0.2118 0.1804);fill-opacity:1;"/>
<path d="M67.2501 19.8402C66.2201 19.8202 66.2001 19.1302 66.6701 18.7302C67.0201 18.4402 67.6801 18.3102 68.7101 18.8702C69.6801 19.4002 69.9201 20.1202 70.0901 20.5702C70.2601 21.0202 70.1101 21.3702 69.8601 21.3202C69.5101 21.2802 68.5101 19.8802 67.2501 19.8402Z" fill="#613E31" style="fill:#613E31;fill:color(display-p3 0.3804 0.2431 0.1922);fill-opacity:1;"/>
<path d="M81.5599 30.6898C81.6999 30.6298 81.8499 30.5698 82.0199 30.4798C84.1099 29.5198 84.5699 26.6998 84.7899 24.6698C84.8199 24.4098 84.8299 24.1398 84.8499 23.8698C84.8699 23.5598 84.9099 23.2598 84.9199 22.9498C84.9299 22.2898 84.8999 21.6398 84.7799 20.9998C84.6999 20.5498 84.5699 20.0998 84.4199 19.6598C84.2599 19.2298 84.0699 18.7998 83.8599 18.3898C83.6899 18.0498 83.4899 17.7298 83.2899 17.4098C83.2299 17.3198 83.1699 17.2298 83.1099 17.1398C82.9399 16.8898 82.7599 16.6498 82.5799 16.4198C82.5199 16.3498 82.4699 16.2798 82.4099 16.2098C82.1699 15.9198 81.9099 15.6398 81.6399 15.3798C81.5799 15.3198 81.5199 15.2698 81.4599 15.2198C81.2399 15.0098 80.9999 14.8098 80.7699 14.6198C80.7199 14.5798 80.6799 14.5398 80.6299 14.4998C80.5899 14.4698 80.5399 14.4398 80.4899 14.3998C80.2999 14.2598 80.1099 14.1198 79.9099 13.9898C79.8199 13.9298 79.7299 13.8698 79.6399 13.8098C79.3499 13.6298 79.0499 13.4598 78.7399 13.3098C76.5399 12.2298 73.9599 11.9198 71.5899 12.5398C71.1299 12.6598 70.6699 12.8198 70.2399 13.0298C70.0199 13.1298 69.8099 13.2498 69.5999 13.3698C68.9899 13.7398 68.4399 14.2198 68.0399 14.7798C67.9099 14.9698 67.7899 15.1698 67.6899 15.3698C67.5899 15.5698 67.5099 15.7998 67.4399 16.0298C68.3099 16.3698 69.3099 16.1698 70.2199 16.6098C71.0999 17.0398 71.9399 17.6098 72.8599 17.9098C73.1699 18.0098 73.4799 18.0798 73.7999 18.0998C74.1299 18.1198 74.4699 18.0998 74.7999 18.0898C74.9699 18.0798 75.1399 18.0698 75.2999 18.0698C75.3899 18.1098 75.4499 18.1398 75.4499 18.1398C75.5199 18.2298 75.5599 18.3298 75.5999 18.4198C75.8399 19.1498 75.2199 20.0898 74.5999 21.1498C74.5199 21.2798 74.4499 21.4198 74.3699 21.5598C74.2599 21.7598 74.1599 21.9598 74.0599 22.1598C73.9599 22.3598 73.8699 22.5698 73.7999 22.7798C73.7399 22.9398 73.6999 23.0998 73.6599 23.2598C73.5499 23.7498 73.5199 24.2498 73.6399 24.7598C73.6699 24.8798 73.6999 24.9898 73.7299 25.0998C73.8499 25.5098 73.9899 25.8398 73.9899 25.8398C73.9899 25.8398 74.2699 25.3598 74.7099 24.9198C74.7799 24.8398 74.8599 24.7698 74.9499 24.6998C75.0799 24.5898 75.2099 24.4898 75.3499 24.4098C75.4899 24.3298 75.6299 24.2698 75.7799 24.2298C75.8899 24.1998 75.9899 24.1798 76.0999 24.1798C76.3599 24.1698 76.6399 24.2498 76.9199 24.4598C76.9799 24.4998 77.0199 24.5398 77.0699 24.5898C77.1099 24.6198 77.1499 24.6598 77.1899 24.6998C77.2299 24.7398 77.2599 24.7798 77.2899 24.8198C77.3199 24.8598 77.3599 24.8898 77.3799 24.9298C77.4099 24.9698 77.4299 25.0098 77.4499 25.0498C77.4699 25.0898 77.4999 25.1298 77.5199 25.1598C77.5399 25.1998 77.5499 25.2498 77.5699 25.2898C77.5799 25.3298 77.5999 25.3698 77.6099 25.3998C77.6199 25.4398 77.6299 25.4898 77.6299 25.5298C77.6399 25.5698 77.6499 25.6098 77.6499 25.6498C77.6499 25.6998 77.6499 25.7398 77.6499 25.7798C77.6499 25.8198 77.6499 25.8598 77.6499 25.8998C77.6499 25.9498 77.6399 25.9898 77.6299 26.0398C77.6199 26.0798 77.6199 26.1198 77.6099 26.1598C77.5999 26.2098 77.5799 26.2598 77.5699 26.2998C77.5599 26.3398 77.5499 26.3698 77.5299 26.4098C77.5099 26.4598 77.4899 26.5098 77.4599 26.5598C77.4399 26.5998 77.4299 26.6298 77.4099 26.6698C77.3899 26.7198 77.3599 26.7598 77.3299 26.8098C77.3099 26.8498 77.2899 26.8798 77.2599 26.9198C77.2299 26.9698 77.1899 27.0098 77.1599 27.0598C77.1299 27.0898 77.1099 27.1298 77.0899 27.1598C77.0499 27.2098 77.0099 27.2598 76.9699 27.3098C76.9399 27.3398 76.9199 27.3698 76.8899 27.3998C76.8499 27.4498 76.7999 27.4898 76.7599 27.5398C76.7299 27.5698 76.6999 27.5998 76.6699 27.6298C76.6199 27.6698 76.5699 27.7198 76.5299 27.7598C76.4999 27.7898 76.4699 27.8198 76.4299 27.8498C76.3699 27.8998 76.3099 27.9498 76.2399 27.9998C76.2199 28.0198 76.1999 28.0298 76.1699 28.0498C76.0799 28.1198 75.9899 28.1798 75.8999 28.2398C74.3999 29.2598 73.9999 28.1898 73.9199 28.8398C73.8199 28.9998 73.6799 29.3998 73.5499 29.7898L73.5399 29.8098C73.3699 30.2998 73.2299 30.7798 73.2299 30.7798H73.2399L73.0599 31.3598C72.9099 32.1298 73.0499 33.0398 73.8699 33.8698C74.2699 34.2798 75.0199 34.4798 75.4699 34.5698C75.6199 34.9998 75.9799 35.7398 76.7199 36.1298C77.0399 36.2998 77.3899 36.3898 77.7699 36.3898C78.1599 36.3898 78.5699 36.2998 79.0099 36.1198L79.8299 35.7898C79.8299 35.7898 78.6999 35.3398 78.7499 34.0698C80.3599 35.2698 82.0699 33.8898 82.1099 33.8498L82.7299 33.2898L81.9699 32.9998C81.6799 32.8998 81.1599 32.5598 81.0699 32.2698C80.7199 31.2398 81.4899 30.7498 81.5599 30.6898Z" fill="#543930" style="fill:#543930;fill:color(display-p3 0.3294 0.2235 0.1882);fill-opacity:1;"/>
<path d="M81.5599 30.6898C81.6999 30.6298 81.8499 30.5698 82.0199 30.4798C84.1099 29.5198 84.5699 26.6998 84.7899 24.6698C84.8199 24.4098 84.8299 24.1398 84.8499 23.8698C84.8699 23.5598 84.9099 23.2598 84.9199 22.9498C84.9299 22.2898 84.8999 21.6398 84.7799 20.9998C84.6999 20.5498 84.5699 20.0998 84.4199 19.6598C84.2599 19.2298 84.0699 18.7998 83.8599 18.3898C83.6899 18.0498 83.4899 17.7298 83.2899 17.4098C83.2299 17.3198 83.1699 17.2298 83.1099 17.1398C82.9399 16.8898 82.7599 16.6498 82.5799 16.4198C82.5199 16.3498 82.4699 16.2798 82.4099 16.2098C82.1699 15.9198 81.9099 15.6398 81.6399 15.3798C81.5799 15.3198 81.5199 15.2698 81.4599 15.2198C81.2399 15.0098 80.9999 14.8098 80.7699 14.6198C80.7199 14.5798 80.6799 14.5398 80.6299 14.4998C80.5899 14.4698 80.5399 14.4398 80.4899 14.3998C80.2999 14.2598 80.1099 14.1198 79.9099 13.9898C79.8199 13.9298 79.7299 13.8698 79.6399 13.8098C79.3499 13.6298 79.0499 13.4598 78.7399 13.3098C76.5399 12.2298 73.9599 11.9198 71.5899 12.5398C71.1299 12.6598 70.6699 12.8198 70.2399 13.0298C70.0199 13.1298 69.8099 13.2498 69.5999 13.3698C68.9899 13.7398 68.4399 14.2198 68.0399 14.7798C67.9099 14.9698 67.7899 15.1698 67.6899 15.3698C67.5899 15.5698 67.5099 15.7998 67.4399 16.0298C68.3099 16.3698 69.3099 16.1698 70.2199 16.6098C71.0999 17.0398 71.9399 17.6098 72.8599 17.9098C73.1699 18.0098 73.4799 18.0798 73.7999 18.0998C74.1299 18.1198 74.4699 18.0998 74.7999 18.0898C74.9699 18.0798 75.1399 18.0698 75.2999 18.0698C75.3899 18.1098 75.4499 18.1398 75.4499 18.1398C75.5199 18.2298 75.5599 18.3298 75.5999 18.4198C75.8399 19.1498 75.2199 20.0898 74.5999 21.1498C74.5199 21.2798 74.4499 21.4198 74.3699 21.5598C74.2599 21.7598 74.1599 21.9598 74.0599 22.1598C73.9599 22.3598 73.8699 22.5698 73.7999 22.7798C73.7399 22.9398 73.6999 23.0998 73.6599 23.2598C73.5499 23.7498 73.5199 24.2498 73.6399 24.7598C73.6699 24.8798 73.6999 24.9898 73.7299 25.0998C73.8499 25.5098 73.9899 25.8398 73.9899 25.8398C73.9899 25.8398 74.2699 25.3598 74.7099 24.9198C74.7799 24.8398 74.8599 24.7698 74.9499 24.6998C75.0799 24.5898 75.2099 24.4898 75.3499 24.4098C75.4899 24.3298 75.6299 24.2698 75.7799 24.2298C75.8899 24.1998 75.9899 24.1798 76.0999 24.1798C76.3599 24.1698 76.6399 24.2498 76.9199 24.4598C76.9799 24.4998 77.0199 24.5398 77.0699 24.5898C77.1099 24.6198 77.1499 24.6598 77.1899 24.6998C77.2299 24.7398 77.2599 24.7798 77.2899 24.8198C77.3199 24.8598 77.3599 24.8898 77.3799 24.9298C77.4099 24.9698 77.4299 25.0098 77.4499 25.0498C77.4699 25.0898 77.4999 25.1298 77.5199 25.1598C77.5399 25.1998 77.5499 25.2498 77.5699 25.2898C77.5799 25.3298 77.5999 25.3698 77.6099 25.3998C77.6199 25.4398 77.6299 25.4898 77.6299 25.5298C77.6399 25.5698 77.6499 25.6098 77.6499 25.6498C77.6499 25.6998 77.6499 25.7398 77.6499 25.7798C77.6499 25.8198 77.6499 25.8598 77.6499 25.8998C77.6499 25.9498 77.6399 25.9898 77.6299 26.0398C77.6199 26.0798 77.6199 26.1198 77.6099 26.1598C77.5999 26.2098 77.5799 26.2598 77.5699 26.2998C77.5599 26.3398 77.5499 26.3698 77.5299 26.4098C77.5099 26.4598 77.4899 26.5098 77.4599 26.5598C77.4399 26.5998 77.4299 26.6298 77.4099 26.6698C77.3899 26.7198 77.3599 26.7598 77.3299 26.8098C77.3099 26.8498 77.2899 26.8798 77.2599 26.9198C77.2299 26.9698 77.1899 27.0098 77.1599 27.0598C77.1299 27.0898 77.1099 27.1298 77.0899 27.1598C77.0499 27.2098 77.0099 27.2598 76.9699 27.3098C76.9399 27.3398 76.9199 27.3698 76.8899 27.3998C76.8499 27.4498 76.7999 27.4898 76.7599 27.5398C76.7299 27.5698 76.6999 27.5998 76.6699 27.6298C76.6199 27.6698 76.5699 27.7198 76.5299 27.7598C76.4999 27.7898 76.4699 27.8198 76.4299 27.8498C76.3699 27.8998 76.3099 27.9498 76.2399 27.9998C76.2199 28.0198 76.1999 28.0298 76.1699 28.0498C76.0799 28.1198 75.9899 28.1798 75.8999 28.2398C74.3999 29.2598 73.9999 28.1898 73.9199 28.8398C73.8199 28.9998 73.6799 29.3998 73.5499 29.7898L73.5399 29.8098C73.3699 30.2998 73.2299 30.7798 73.2299 30.7798H73.2399L73.0599 31.3598C72.9099 32.1298 73.0499 33.0398 73.8699 33.8698C74.2699 34.2798 75.0199 34.4798 75.4699 34.5698C75.6199 34.9998 75.9799 35.7398 76.7199 36.1298C77.0399 36.2998 77.3899 36.3898 77.7699 36.3898C78.1599 36.3898 78.5699 36.2998 79.0099 36.1198L79.8299 35.7898C79.8299 35.7898 78.6999 35.3398 78.7499 34.0698C80.3599 35.2698 82.0699 33.8898 82.1099 33.8498L82.7299 33.2898L81.9699 32.9998C81.6799 32.8998 81.1599 32.5598 81.0699 32.2698C80.7199 31.2398 81.4899 30.7498 81.5599 30.6898Z" fill="url(#paint0_radial_2471_732)" style=""/>
<path d="M71.1701 29.74C70.3201 30.99 66.5501 31.67 66.3701 31.79C66.0501 31.97 67.4501 32.9 67.9101 32.83C68.3701 32.76 71.5701 33.13 75.2701 31.44C76.9301 30.68 81.0801 28.46 81.0801 28.46L79.7701 25.8C79.7701 25.8 74.5701 31.23 73.0901 30.05C71.6101 28.87 76.0901 23.18 76.0901 23.18L71.6501 21.96C71.6501 21.96 71.7001 28.97 71.1701 29.74Z" fill="url(#paint1_linear_2471_732)" style=""/>
<path d="M79.03 9.88002C77.73 9.42002 73.23 8.49002 69.69 10.18C68.2 10.89 66.76 11.81 65.64 13.01C65.03 13.67 64.04 14.91 64.13 15.97C64.19 16.7 64.71 17.05 65.18 17.27C66.06 17.69 68.59 18.36 69.2 18.75C70.6 19.65 70.84 21.36 70.95 21.74C71.35 23.08 71.92 24.14 74.25 24.14C75.64 24.14 76.24 23.78 77.12 24.25C77.73 24.57 78.49 25.3 78.28 27.65C78.04 30.26 79.34 31.5 80.69 31.36C82.55 31.17 89.02 27.16 87.85 19.97C87.07 15.3 83.49 11.45 79.03 9.88002Z" fill="url(#paint2_radial_2471_732)" style=""/>
<path d="M45.02 60.9198C45.77 58.5598 48.38 57.0498 50.81 57.3698L74.21 60.4498L72.29 71.7698L52.48 67.4098L45.45 84.0698L38.49 81.6098C38.48 81.6198 44.76 61.7598 45.02 60.9198Z" fill="url(#paint3_linear_2471_732)" style=""/>
<path d="M46.45 81.6198L39.12 79.0498L37.36 86.0898L43.75 88.3398L46.45 81.6198Z" fill="#E0E0E0" style="fill:#E0E0E0;fill:color(display-p3 0.8784 0.8784 0.8784);fill-opacity:1;"/>
<path d="M80.1001 67.2802C80.7301 63.5602 78.2301 60.0302 74.5101 59.4002V59.3902L58.8601 57.1602L56.6801 70.0002L72.2201 72.8702C75.9301 73.5102 79.4601 71.0002 80.1001 67.2802Z" fill="#646464" style="fill:#646464;fill:color(display-p3 0.3922 0.3922 0.3922);fill-opacity:1;"/>
<path d="M38.8301 93.1001C39.1801 93.5201 39.8101 93.5801 40.2201 93.2301L42.0601 91.6801C43.3101 90.6301 43.6601 88.1501 43.6601 88.1501L39.2901 82.9401L34.9101 80.4901C33.6701 79.8101 32.1501 79.9501 31.0701 80.8401L30.2401 81.5301C29.8801 81.8301 29.8301 82.3801 30.1401 82.7501L38.8301 93.1001Z" fill="#4568AD" style="fill:#4568AD;fill:color(display-p3 0.2706 0.4078 0.6784);fill-opacity:1;"/>
<path d="M56.5 84.0102C57.63 82.0802 68.42 63.6802 68.42 63.6802L78.04 69.9502L65.64 87.1102L69.08 106.93L61.9 108.63L56.05 88.5302C56.04 88.5302 55.37 85.9402 56.5 84.0102Z" fill="url(#paint4_linear_2471_732)" style=""/>
<path d="M68.6 104.32L61.04 106.12L64 114.59L69.97 111.43L68.6 104.32Z" fill="#E0E0E0" style="fill:#E0E0E0;fill:color(display-p3 0.8784 0.8784 0.8784);fill-opacity:1;"/>
<path d="M78.07 59.7899C74.91 57.7299 70.68 58.6199 68.62 61.7799L60.34 75.2499L71.25 82.3599L80.07 69.2399C82.12 66.0899 81.23 61.8499 78.07 59.7899Z" fill="#7C7C7C" style="fill:#7C7C7C;fill:color(display-p3 0.4863 0.4863 0.4863);fill-opacity:1;"/>
<path d="M72.87 116.51C73.41 116.24 73.64 115.59 73.38 115.05L72.21 112.67C71.42 111.05 68.86 110.02 68.86 110.02L61 114.5L58.31 117.36C57.25 118.51 56.99 120.18 57.66 121.57L58.18 122.65C58.41 123.12 58.98 123.32 59.46 123.08L72.87 116.51Z" fill="#4568AD" style="fill:#4568AD;fill:color(display-p3 0.2706 0.4078 0.6784);fill-opacity:1;"/>
<path d="M69.8199 34.69C65.2499 34.37 63.3199 38.47 63.3199 42.19C63.3199 50.1 64.4599 54.58 63.6999 62.1C63.6499 62.61 65.9599 65.54 70.5199 67.12C76.8699 69.32 81.1699 66.82 81.1699 66.38C81.1699 61.96 80.1899 50.3 76.9699 41.16C75.1599 35.99 74.2199 35.01 69.8199 34.69Z" fill="url(#paint5_radial_2471_732)" style=""/>
<path d="M51.56 15.2802C51.13 14.5602 50.44 14.2002 49.72 14.6302C49 15.0602 49.06 15.8702 49.49 16.5902L52.46 22.0602C52.48 22.1002 52.51 22.1302 52.54 22.1702C53.42 21.7402 54.29 21.1002 55.06 20.4802L51.56 15.2802Z" fill="#99674F" style="fill:#99674F;fill:color(display-p3 0.6000 0.4039 0.3098);fill-opacity:1;"/>
<path d="M55.9299 21.1599L56.4399 20.4499L55.0799 14.7199C54.9399 14.1399 54.6999 13.6099 54.3499 13.1199L52.6499 10.7599C52.4199 10.4299 52.1299 10.1399 51.8099 9.87993C51.2099 9.38993 50.0999 8.51993 49.4799 8.14993C49.1399 7.94993 48.7399 7.78993 48.1699 7.96993C47.7299 8.10993 47.4099 8.41993 47.2399 8.83993C47.0599 9.28993 47.1099 9.81993 47.3699 10.2999C47.6799 10.8699 48.4599 11.3399 49.0599 11.6299C49.1699 11.6799 49.2499 11.7699 49.2999 11.8699L50.5899 14.5399C50.6799 14.7199 50.7299 14.8999 50.7499 15.0899C50.7799 15.3699 50.8399 15.6599 50.9099 15.9899C51.0699 16.7699 51.2799 17.7299 51.1799 19.3999C51.0499 21.5299 51.8499 22.8399 51.8899 22.8999L52.2299 23.1799L52.6199 22.9699C52.6399 22.9599 52.8199 22.6099 52.7699 22.4499C52.7699 22.4499 52.7499 22.3999 52.7299 22.3299C53.3499 21.9799 54.6399 21.2199 55.5499 20.5399C55.7199 20.8299 55.9299 21.1599 55.9299 21.1599Z" fill="#91674D" style="fill:#91674D;fill:color(display-p3 0.5686 0.4039 0.3020);fill-opacity:1;"/>
<path d="M71.17 45.7402L68.95 39.8302C68.9 39.7102 68.81 39.6102 68.69 39.5502C68.57 39.4902 68.43 39.4902 68.31 39.5402L57.72 43.5102L46.36 40.9602C45.36 40.6802 44.29 41.3002 43.78 42.4902C43.31 43.5902 43.41 45.1102 44.71 45.8702L56.44 50.7402C56.5 50.7602 56.56 50.7802 56.62 50.7802C56.95 50.8702 57.29 50.9202 57.63 50.9202C57.98 50.9202 58.33 50.8702 58.67 50.7702C58.73 50.7702 58.79 50.7702 58.85 50.7402L70.87 46.3902C71 46.3502 71.1 46.2502 71.15 46.1302C71.21 46.0002 71.21 45.8602 71.17 45.7402Z" fill="url(#paint6_linear_2471_732)" style=""/>
<path d="M59.91 42.17L63.55 51.37L72.09 48C74.44 47.07 75.58 44.42 74.66 42.07L74.38 41.36C73.45 39.01 70.8 37.87 68.45 38.79L59.91 42.17Z" fill="#ED6D23" style="fill:#ED6D23;fill:color(display-p3 0.9294 0.4275 0.1373);fill-opacity:1;"/>
<path d="M44.24 37.1701C43.95 36.7501 43.59 36.4201 43.15 36.1901L41.1599 35.1701C40.8599 35.0201 40.5399 34.9201 40.1899 34.8701C39.4299 34.7701 38.41 34.6601 37.83 34.6901C37.36 34.7101 37.0499 34.8701 36.7299 35.2201C36.3899 35.6001 36.22 36.0801 36.27 36.5501C36.31 36.9501 36.51 37.3001 36.83 37.5301C37.2 37.8001 37.8199 37.8801 38.6699 37.7601C38.7199 37.7501 38.7599 37.7601 38.7799 37.7801L40.54 39.2701C40.64 39.3501 40.7099 39.4501 40.7699 39.5701C40.8699 39.7901 41 40.0001 41.15 40.2401C41.48 40.7701 41.9 41.4401 42.2699 42.8201C42.7599 44.6701 43.55 45.1501 44.38 45.6701L44.7799 45.8701L44.5699 45.1101C44.5799 45.0901 44.67 44.9901 44.81 44.7701C44.67 44.6701 44.5499 44.5201 44.4399 44.4101C44.4299 44.4001 44.4199 44.3801 44.4099 44.3701C44.8699 43.6801 45.54 42.6501 46.0199 41.8001V41.8101C46.0199 41.8101 46.1799 41.8501 46.2699 41.8401C46.37 41.8301 46.47 41.8401 46.56 41.8601C46.65 41.6901 46.7299 41.5301 46.7999 41.3801L46.9199 41.1201L44.24 37.1701Z" fill="url(#paint7_linear_2471_732)" style=""/>
<path d="M43.55 40.1201L39.51 38.8701C39.12 38.7101 38.76 38.7201 38.44 38.8401C38.12 38.9601 37.88 39.2101 37.74 39.5501C37.46 40.2201 37.82 40.8801 38.62 41.1801L42.46 42.8201C42.46 42.8201 42.47 42.8201 42.48 42.8301C42.51 42.8401 42.57 42.8601 42.59 42.8601C42.76 42.9001 42.97 42.8301 43.04 42.6901C43.16 42.4401 43.18 42.3701 43.18 42.3701L43.16 42.3601L43.68 40.8801H43.69C43.77 40.6101 43.75 40.7501 43.8 40.5401C43.85 40.3601 43.74 40.1801 43.55 40.1201Z" fill="url(#paint8_linear_2471_732)" style=""/>
<path d="M43.2201 25.4898L37.0901 35.5598L38.5901 37.2698L33.8701 46.5198L37.3301 57.4898L37.3401 57.5298L32.1001 66.8198L31.7501 82.4498L33.8401 85.9498L33.8501 85.9598L36.3401 90.1398L37.6401 98.3698L40.2101 114.62L43.0101 124.03H4.06006V4.02979H45.2801L50.0701 12.5698L51.0401 14.3098L43.2201 25.4898Z" fill="url(#paint9_linear_2471_732)" style=""/>
<path d="M36.26 124.03L29.4 92.3096L30.95 124.03H36.26Z" fill="#494240" style="fill:#494240;fill:color(display-p3 0.2875 0.2583 0.2516);fill-opacity:1;"/>
<path d="M20.0501 124.03H21.7201L18.1901 84.0796L9.84009 34.1196L15.2301 103.08L20.0501 124.03Z" fill="#494240" style="fill:#494240;fill:color(display-p3 0.2875 0.2583 0.2516);fill-opacity:1;"/>
<path d="M4.14006 124.03L4.79006 114L4.15006 63.3599L4.06006 64.5899V124.03H4.14006Z" fill="#494240" style="fill:#494240;fill:color(display-p3 0.2875 0.2583 0.2516);fill-opacity:1;"/>
<path d="M30.94 4.02979L21.46 30.2898L18.71 4.02979H14.13L15.23 18.1198L22.75 50.8398L31.92 4.02979H30.94Z" fill="#494240" style="fill:#494240;fill:color(display-p3 0.2875 0.2583 0.2516);fill-opacity:1;"/>
<path d="M37.3401 57.5298L32.1001 66.8198L33.8301 55.7598L37.3301 57.4898L37.3401 57.5298Z" fill="#494240" style="fill:#494240;fill:color(display-p3 0.2875 0.2583 0.2516);fill-opacity:1;"/>
<path d="M51.0401 14.3098L43.2201 25.4898L48.0801 14.4398L48.2701 11.2798L50.0701 12.5698L51.0401 14.3098Z" fill="#494240" style="fill:#494240;fill:color(display-p3 0.2875 0.2583 0.2516);fill-opacity:1;"/>
<path d="M35.37 101.09L40.18 95.3296L31.89 83.0796L35.37 101.09Z" fill="#494240" style="fill:#494240;fill:color(display-p3 0.2875 0.2583 0.2516);fill-opacity:1;"/>
<path d="M80.7799 63.52C78.5499 65.82 74.19 64.5 71.41 63.49C68.43 62.41 63.28 58.6 63.33 57.81C63.37 57.07 63.33 55.89 63.79 55.72C64.37 55.51 65.0099 55.41 66.2399 56.25C70.8999 59.42 72.9099 61.84 78.9899 60.9C80.1099 60.73 80.4199 59.81 80.6399 59.28C80.9099 58.62 81.8299 62.44 80.7799 63.52Z" fill="#1B75BC" style="fill:#1B75BC;fill:color(display-p3 0.1059 0.4588 0.7373);fill-opacity:1;"/>
<defs>
<radialGradient id="paint0_radial_2471_732" cx="0" cy="0" r="1" gradientUnits="userSpaceOnUse" gradientTransform="translate(74.4444 23.9836) rotate(88.5789) scale(14.2226 12.7231)">
<stop offset="0.6732" stop-color="#6D4C41" stop-opacity="0" style="stop-color:none;stop-opacity:0;"/>
<stop offset="1" stop-color="#6D4C41" style="stop-color:#6D4C41;stop-color:color(display-p3 0.4275 0.2980 0.2549);stop-opacity:1;"/>
</radialGradient>
<linearGradient id="paint1_linear_2471_732" x1="74.8228" y1="26.8736" x2="70.3208" y2="31.7278" gradientUnits="userSpaceOnUse">
<stop stop-color="#646464" style="stop-color:#646464;stop-color:color(display-p3 0.3922 0.3922 0.3922);stop-opacity:1;"/>
<stop offset="0.9947" stop-color="#262626" style="stop-color:#262626;stop-color:color(display-p3 0.1490 0.1490 0.1490);stop-opacity:1;"/>
</linearGradient>
<radialGradient id="paint2_radial_2471_732" cx="0" cy="0" r="1" gradientUnits="userSpaceOnUse" gradientTransform="translate(71.6905 12.2134) rotate(37.8589) scale(18.4179)">
<stop stop-color="#81D4FA" style="stop-color:#81D4FA;stop-color:color(display-p3 0.5059 0.8314 0.9804);stop-opacity:1;"/>
<stop offset="0.3601" stop-color="#5EB3E7" style="stop-color:#5EB3E7;stop-color:color(display-p3 0.3686 0.7020 0.9059);stop-opacity:1;"/>
<stop offset="0.7751" stop-color="#3C92D3" style="stop-color:#3C92D3;stop-color:color(display-p3 0.2353 0.5725 0.8275);stop-opacity:1;"/>
<stop offset="1" stop-color="#2F85CC" style="stop-color:#2F85CC;stop-color:color(display-p3 0.1843 0.5216 0.8000);stop-opacity:1;"/>
</radialGradient>
<linearGradient id="paint3_linear_2471_732" x1="63.6216" y1="71.1602" x2="44.2262" y2="70.602" gradientUnits="userSpaceOnUse">
<stop stop-color="#A47B62" style="stop-color:#A47B62;stop-color:color(display-p3 0.6431 0.4824 0.3843);stop-opacity:1;"/>
<stop offset="0.5" stop-color="#BA8D68" style="stop-color:#BA8D68;stop-color:color(display-p3 0.7294 0.5529 0.4078);stop-opacity:1;"/>
</linearGradient>
<linearGradient id="paint4_linear_2471_732" x1="72.0983" y1="64.7977" x2="61.9123" y2="98.1465" gradientUnits="userSpaceOnUse">
<stop stop-color="#A47B62" style="stop-color:#A47B62;stop-color:color(display-p3 0.6431 0.4824 0.3843);stop-opacity:1;"/>
<stop offset="0.5" stop-color="#BA8D68" style="stop-color:#BA8D68;stop-color:color(display-p3 0.7294 0.5529 0.4078);stop-opacity:1;"/>
</linearGradient>
<radialGradient id="paint5_radial_2471_732" cx="0" cy="0" r="1" gradientUnits="userSpaceOnUse" gradientTransform="translate(72.7165 51.4206) rotate(11.356) scale(13.003 14.3995)">
<stop offset="0.3702" stop-color="#F78C1F" style="stop-color:#F78C1F;stop-color:color(display-p3 0.9686 0.5490 0.1216);stop-opacity:1;"/>
<stop offset="0.6806" stop-color="#F37F21" style="stop-color:#F37F21;stop-color:color(display-p3 0.9529 0.4980 0.1294);stop-opacity:1;"/>
<stop offset="0.9978" stop-color="#ED6D23" style="stop-color:#ED6D23;stop-color:color(display-p3 0.9294 0.4275 0.1373);stop-opacity:1;"/>
</radialGradient>
<linearGradient id="paint6_linear_2471_732" x1="61.7975" y1="45.2098" x2="45.5267" y2="45.2098" gradientUnits="userSpaceOnUse">
<stop stop-color="#A47B62" style="stop-color:#A47B62;stop-color:color(display-p3 0.6431 0.4824 0.3843);stop-opacity:1;"/>
<stop offset="0.5" stop-color="#BA8D68" style="stop-color:#BA8D68;stop-color:color(display-p3 0.7294 0.5529 0.4078);stop-opacity:1;"/>
</linearGradient>
<linearGradient id="paint7_linear_2471_732" x1="61.7974" y1="40.2846" x2="45.5266" y2="40.2846" gradientUnits="userSpaceOnUse">
<stop stop-color="#A47B62" style="stop-color:#A47B62;stop-color:color(display-p3 0.6431 0.4824 0.3843);stop-opacity:1;"/>
<stop offset="0.5" stop-color="#BA8D68" style="stop-color:#BA8D68;stop-color:color(display-p3 0.7294 0.5529 0.4078);stop-opacity:1;"/>
</linearGradient>
<linearGradient id="paint8_linear_2471_732" x1="61.7975" y1="40.8079" x2="45.5267" y2="40.8079" gradientUnits="userSpaceOnUse">
<stop stop-color="#A47B62" style="stop-color:#A47B62;stop-color:color(display-p3 0.6431 0.4824 0.3843);stop-opacity:1;"/>
<stop offset="0.5" stop-color="#BA8D68" style="stop-color:#BA8D68;stop-color:color(display-p3 0.7294 0.5529 0.4078);stop-opacity:1;"/>
</linearGradient>
<linearGradient id="paint9_linear_2471_732" x1="15.9217" y1="-2.43522" x2="31.7505" y2="95.0305" gradientUnits="userSpaceOnUse">
<stop offset="0.3637" stop-color="#867D7A" style="stop-color:#867D7A;stop-color:color(display-p3 0.5250 0.4913 0.4791);stop-opacity:1;"/>
<stop offset="0.705" stop-color="#726966" style="stop-color:#726966;stop-color:color(display-p3 0.4458 0.4110 0.3994);stop-opacity:1;"/>
<stop offset="1" stop-color="#635B58" style="stop-color:#635B58;stop-color:color(display-p3 0.3875 0.3555 0.3455);stop-opacity:1;"/>
</linearGradient>
</defs>
</svg>
