<svg width="128" height="128" viewBox="0 0 128 128" fill="none" xmlns="http://www.w3.org/2000/svg">
<path d="M63.6001 118.8C35.7001 118.8 5.6001 101.3 5.6001 62.9C5.6001 24.5 35.7001 7 63.6001 7C79.1001 7 93.4001 12.1 104 21.4C115.5 31.6 121.6 46 121.6 62.9C121.6 79.8 115.5 94.1 104 104.3C93.4001 113.6 79.0001 118.8 63.6001 118.8Z" fill="url(#paint0_radial_169_9456)" style=""/>
<path d="M63.6001 118.8C35.7001 118.8 5.6001 101.3 5.6001 62.9C5.6001 24.5 35.7001 7 63.6001 7C79.1001 7 93.4001 12.1 104 21.4C115.5 31.6 121.6 46 121.6 62.9C121.6 79.8 115.5 94.1 104 104.3C93.4001 113.6 79.0001 118.8 63.6001 118.8Z" fill="url(#paint1_radial_169_9456)" style=""/>
<path d="M63.6001 118.8C35.7001 118.8 5.6001 101.3 5.6001 62.9C5.6001 24.5 35.7001 7 63.6001 7C79.1001 7 93.4001 12.1 104 21.4C115.5 31.6 121.6 46 121.6 62.9C121.6 79.8 115.5 94.1 104 104.3C93.4001 113.6 79.0001 118.8 63.6001 118.8Z" fill="url(#paint2_radial_169_9456)" style=""/>
<path d="M72.8598 84.93C74.5698 83.42 75.6398 81.33 75.8598 79.06C76.0498 75.46 75.1298 74.22 73.9498 72.65C71.2398 69 63.5498 69.87 63.5498 69.87C61.5498 69.95 59.1098 70.93 59.3998 73.31C59.7898 74.66 60.8898 75.69 62.2698 76C65.2698 76.73 69.6398 76 69.7598 79.09C69.8998 82.55 64.5798 81.09 64.1598 84.79C63.7398 88.49 69.7598 87.98 69.7598 90.5C69.7598 92.43 67.7598 92.76 65.6898 93.2C63.8998 93.57 60.4598 94.13 60.1798 96.2C59.8998 98.27 61.0898 100.77 65.9298 100.04C73.5398 98.89 76.0998 94.72 76.0998 92.16C76.1498 89.39 74.9598 86.74 72.8598 84.93Z" fill="#422B0D" style="fill:#422B0D;fill:color(display-p3 0.2588 0.1686 0.0510);fill-opacity:1;"/>
<path d="M72.8598 84.93C74.5698 83.42 75.6398 81.33 75.8598 79.06C76.0498 75.46 75.1298 74.22 73.9498 72.65C71.2398 69 63.5498 69.87 63.5498 69.87C61.5498 69.95 59.1098 70.93 59.3998 73.31C59.7898 74.66 60.8898 75.69 62.2698 76C65.2698 76.73 69.6398 76 69.7598 79.09C69.8998 82.55 64.5798 81.09 64.1598 84.79C63.7398 88.49 69.7598 87.98 69.7598 90.5C69.7598 92.43 67.7598 92.76 65.6898 93.2C63.8998 93.57 60.4598 94.13 60.1798 96.2C59.8998 98.27 61.0898 100.77 65.9298 100.04C73.5398 98.89 76.0998 94.72 76.0998 92.16C76.1498 89.39 74.9598 86.74 72.8598 84.93Z" fill="#1A1717" style="fill:#1A1717;fill:color(display-p3 0.1020 0.0902 0.0902);fill-opacity:1;"/>
<path d="M44 40.94C39.81 40.94 36 44.48 36 50.36C36 56.24 39.81 59.77 44 59.77C48.2 59.77 52 56.23 52 50.36C52 44.49 48.24 40.94 44 40.94Z" fill="#422B0D" style="fill:#422B0D;fill:color(display-p3 0.2588 0.1686 0.0510);fill-opacity:1;"/>
<path d="M44 40.94C39.81 40.94 36 44.48 36 50.36C36 56.24 39.81 59.77 44 59.77C48.2 59.77 52 56.23 52 50.36C52 44.49 48.24 40.94 44 40.94Z" fill="#1A1717" style="fill:#1A1717;fill:color(display-p3 0.1020 0.0902 0.0902);fill-opacity:1;"/>
<path d="M43.65 44.87C42.23 44.19 40.52 44.79 39.83 46.21C39.3 47.32 39.54 48.65 40.43 49.51C41.85 50.19 43.56 49.59 44.25 48.17C44.78 47.06 44.54 45.73 43.65 44.87Z" fill="#555050" style="fill:#555050;fill:color(display-p3 0.3333 0.3125 0.3125);fill-opacity:1;"/>
<path d="M82.3999 40.94C78.2099 40.94 74.3999 44.48 74.3999 50.36C74.3999 56.24 78.2099 59.77 82.3999 59.77C86.5899 59.77 90.3999 56.23 90.3999 50.36C90.3999 44.49 86.5899 40.94 82.3999 40.94Z" fill="#422B0D" style="fill:#422B0D;fill:color(display-p3 0.2588 0.1686 0.0510);fill-opacity:1;"/>
<path d="M82.3999 40.94C78.2099 40.94 74.3999 44.48 74.3999 50.36C74.3999 56.24 78.2099 59.77 82.3999 59.77C86.5899 59.77 90.3999 56.23 90.3999 50.36C90.3999 44.49 86.5899 40.94 82.3999 40.94Z" fill="#1A1717" style="fill:#1A1717;fill:color(display-p3 0.1020 0.0902 0.0902);fill-opacity:1;"/>
<path d="M81.9998 44.87C80.5798 44.19 78.8698 44.79 78.1798 46.21C77.6498 47.32 77.8898 48.65 78.7798 49.51C80.1998 50.19 81.9098 49.59 82.5998 48.17C83.1298 47.06 82.8898 45.73 81.9998 44.87Z" fill="#555050" style="fill:#555050;fill:color(display-p3 0.3333 0.3125 0.3125);fill-opacity:1;"/>
<path d="M111.49 29.67C116.82 38.27 119.6 48.51 119.6 59.9C119.6 76.8 113.5 91.1 102 101.3C91.3999 110.6 76.9999 115.8 61.5999 115.8C43.5399 115.8 24.5999 108.45 13.4199 92.86C24.1799 110.52 44.4199 118.8 63.5999 118.8C78.9999 118.8 93.3999 113.6 104 104.3C115.5 94.1 121.6 79.8 121.6 62.9C121.6 50.16 118.13 38.84 111.49 29.67Z" fill="#EB8F00" style="fill:#EB8F00;fill:color(display-p3 0.9216 0.5608 0.0000);fill-opacity:1;"/>
<path d="M111.49 29.67C116.82 38.27 119.6 48.51 119.6 59.9C119.6 76.8 113.5 91.1 102 101.3C91.3999 110.6 76.9999 115.8 61.5999 115.8C43.5399 115.8 24.5999 108.45 13.4199 92.86C24.1799 110.52 44.4199 118.8 63.5999 118.8C78.9999 118.8 93.3999 113.6 104 104.3C115.5 94.1 121.6 79.8 121.6 62.9C121.6 50.16 118.13 38.84 111.49 29.67Z" fill="#4A2F27" style="fill:#4A2F27;fill:color(display-p3 0.2902 0.1843 0.1529);fill-opacity:1;"/>
<defs>
<radialGradient id="paint0_radial_169_9456" cx="0" cy="0" r="1" gradientUnits="userSpaceOnUse" gradientTransform="translate(63.6001 62.9) scale(56.9597 56.9597)">
<stop offset="0.5" stop-color="#FDE030" style="stop-color:#FDE030;stop-color:color(display-p3 0.9922 0.8784 0.1882);stop-opacity:1;"/>
<stop offset="0.92" stop-color="#F7C02B" style="stop-color:#F7C02B;stop-color:color(display-p3 0.9686 0.7529 0.1686);stop-opacity:1;"/>
<stop offset="1" stop-color="#F4A223" style="stop-color:#F4A223;stop-color:color(display-p3 0.9569 0.6353 0.1373);stop-opacity:1;"/>
</radialGradient>
<radialGradient id="paint1_radial_169_9456" cx="0" cy="0" r="1" gradientUnits="userSpaceOnUse" gradientTransform="translate(38.5991 34.5377) rotate(-43.2082) scale(102.024 101.825)">
<stop offset="0.3533" stop-color="#F9DDBD" style="stop-color:#F9DDBD;stop-color:color(display-p3 0.9765 0.8667 0.7412);stop-opacity:1;"/>
<stop offset="0.8723" stop-color="#FFD29C" style="stop-color:#FFD29C;stop-color:color(display-p3 1.0000 0.8235 0.6118);stop-opacity:1;"/>
</radialGradient>
<radialGradient id="paint2_radial_169_9456" cx="0" cy="0" r="1" gradientUnits="userSpaceOnUse" gradientTransform="translate(38.5991 34.5377) rotate(-43.2082) scale(102.024 101.825)">
<stop offset="0.3533" stop-color="#70534A" style="stop-color:#70534A;stop-color:color(display-p3 0.4392 0.3255 0.2902);stop-opacity:1;"/>
<stop offset="0.8723" stop-color="#5C4037" style="stop-color:#5C4037;stop-color:color(display-p3 0.3608 0.2510 0.2157);stop-opacity:1;"/>
</radialGradient>
</defs>
</svg>
