<svg width="128" height="129" viewBox="0 0 128 129" fill="none" xmlns="http://www.w3.org/2000/svg">
<g opacity="0.2">
<path opacity="0.2" d="M104.57 7.5C104.78 7.5 105 7.68 105 7.95V95.91L104.98 96.4C104.85 100.39 102.84 104.61 99.47 107.98C96.01 111.44 91.54 113.5 87.5 113.5C85.74 113.5 83.23 113.1 81.31 111.18C79.43 109.3 78.65 106.46 79.12 103.19C79.63 99.6 81.55 95.99 84.51 93.03C87.88 89.66 92.1 87.65 96.09 87.52L98.99 87.43V36.63C98.99 33.87 96.75 31.63 93.99 31.63C93.74 31.63 93.49 31.65 93.24 31.69L41.24 39.49C38.79 39.85 37 41.93 37 44.42V103.91L36.98 104.4C36.85 108.39 34.84 112.61 31.47 115.98C28.01 119.44 23.54 121.5 19.5 121.5C17.74 121.5 15.23 121.1 13.31 119.18C11.43 117.3 10.65 114.46 11.12 111.19C11.63 107.6 13.55 103.99 16.51 101.03C19.88 97.66 24.1 95.65 28.09 95.52L30.99 95.43V18.91C30.99 18.69 31.15 18.51 31.36 18.47L104.48 7.5H104.57ZM104.57 4.5C104.4 4.5 104.23 4.51 104.05 4.54L30.93 15.51C29.25 15.76 28 17.21 28 18.91V92.52C23.46 92.67 18.45 94.86 14.4 98.9C7.32997 105.97 5.89997 116 11.2 121.3C13.36 123.46 16.3 124.5 19.51 124.5C24.18 124.5 29.41 122.29 33.6 118.1C37.64 114.06 39.83 109.04 39.98 104.5H40V44.42C40 43.43 40.72 42.59 41.7 42.44L93.7 34.64C93.8 34.62 93.9 34.62 94 34.62C95.08 34.62 96 35.5 96 36.62V84.52C91.46 84.67 86.45 86.86 82.4 90.9C75.33 97.97 73.9 108 79.2 113.3C81.36 115.46 84.3 116.5 87.51 116.5C92.18 116.5 97.41 114.29 101.6 110.1C105.64 106.06 107.83 101.04 107.98 96.5H108V7.94C108 6.01 106.43 4.5 104.57 4.5Z" fill="#424242" style="fill:#424242;fill:color(display-p3 0.2588 0.2588 0.2588);fill-opacity:1;"/>
</g>
<path fill-rule="evenodd" clip-rule="evenodd" d="M27.9998 18.9098C27.9998 17.2098 29.2498 15.7598 30.9298 15.5098L104.05 4.53979C106.13 4.22979 108 5.83979 108 7.93979V96.4998H107.98C107.83 101.04 105.64 106.06 101.6 110.1C94.5298 117.17 84.4998 118.6 79.1998 113.3C73.8998 108 75.3298 97.9698 82.3998 90.8998C86.4499 86.8598 91.4598 84.6698 95.9998 84.5198V36.6198C95.9998 35.3998 94.9098 34.4598 93.6998 34.6398L41.6998 42.4398C40.7198 42.5898 39.9998 43.4298 39.9998 44.4198V104.5H39.9798C39.8298 109.04 37.6398 114.06 33.5998 118.1C26.5298 125.17 16.4998 126.6 11.1998 121.3C5.89985 116 7.32985 105.97 14.3998 98.8998C18.4498 94.8598 23.4598 92.6698 27.9998 92.5198V18.9098ZM39.8489 23.088C39.3607 23.1627 39.0001 23.5826 39.0001 24.0765L39 32.0526C39 32.6651 39.5456 33.1337 40.1511 33.0411L95.1512 24.6298C95.6394 24.5551 96 24.1352 96 23.6413V15.6646C96 15.052 95.4543 14.5835 94.8488 14.6761L39.8489 23.088Z" fill="url(#paint0_radial_183_614)" style=""/>
<path fill-rule="evenodd" clip-rule="evenodd" d="M27.9998 18.9098C27.9998 17.2098 29.2498 15.7598 30.9298 15.5098L104.05 4.53979C106.13 4.22979 108 5.83979 108 7.93979V96.4998H107.98C107.83 101.04 105.64 106.06 101.6 110.1C94.5298 117.17 84.4998 118.6 79.1998 113.3C73.8998 108 75.3298 97.9698 82.3998 90.8998C86.4499 86.8598 91.4598 84.6698 95.9998 84.5198V36.6198C95.9998 35.3998 94.9098 34.4598 93.6998 34.6398L41.6998 42.4398C40.7198 42.5898 39.9998 43.4298 39.9998 44.4198V104.5H39.9798C39.8298 109.04 37.6398 114.06 33.5998 118.1C26.5298 125.17 16.4998 126.6 11.1998 121.3C5.89985 116 7.32985 105.97 14.3998 98.8998C18.4498 94.8598 23.4598 92.6698 27.9998 92.5198V18.9098ZM39.8489 23.088C39.3607 23.1627 39.0001 23.5826 39.0001 24.0765L39 32.0526C39 32.6651 39.5456 33.1337 40.1511 33.0411L95.1512 24.6298C95.6394 24.5551 96 24.1352 96 23.6413V15.6646C96 15.052 95.4543 14.5835 94.8488 14.6761L39.8489 23.088Z" fill="url(#paint1_radial_183_614)" style=""/>
<path fill-rule="evenodd" clip-rule="evenodd" d="M27.9998 18.9098C27.9998 17.2098 29.2498 15.7598 30.9298 15.5098L104.05 4.53979C106.13 4.22979 108 5.83979 108 7.93979V96.4998H107.98C107.83 101.04 105.64 106.06 101.6 110.1C94.5298 117.17 84.4998 118.6 79.1998 113.3C73.8998 108 75.3298 97.9698 82.3998 90.8998C86.4499 86.8598 91.4598 84.6698 95.9998 84.5198V36.6198C95.9998 35.3998 94.9098 34.4598 93.6998 34.6398L41.6998 42.4398C40.7198 42.5898 39.9998 43.4298 39.9998 44.4198V104.5H39.9798C39.8298 109.04 37.6398 114.06 33.5998 118.1C26.5298 125.17 16.4998 126.6 11.1998 121.3C5.89985 116 7.32985 105.97 14.3998 98.8998C18.4498 94.8598 23.4598 92.6698 27.9998 92.5198V18.9098ZM39.8489 23.088C39.3607 23.1627 39.0001 23.5826 39.0001 24.0765L39 32.0526C39 32.6651 39.5456 33.1337 40.1511 33.0411L95.1512 24.6298C95.6394 24.5551 96 24.1352 96 23.6413V15.6646C96 15.052 95.4543 14.5835 94.8488 14.6761L39.8489 23.088Z" fill="url(#paint2_linear_183_614)" style=""/>
<path fill-rule="evenodd" clip-rule="evenodd" d="M27.9998 18.9098C27.9998 17.2098 29.2498 15.7598 30.9298 15.5098L104.05 4.53979C106.13 4.22979 108 5.83979 108 7.93979V96.4998H107.98C107.83 101.04 105.64 106.06 101.6 110.1C94.5298 117.17 84.4998 118.6 79.1998 113.3C73.8998 108 75.3298 97.9698 82.3998 90.8998C86.4499 86.8598 91.4598 84.6698 95.9998 84.5198V36.6198C95.9998 35.3998 94.9098 34.4598 93.6998 34.6398L41.6998 42.4398C40.7198 42.5898 39.9998 43.4298 39.9998 44.4198V104.5H39.9798C39.8298 109.04 37.6398 114.06 33.5998 118.1C26.5298 125.17 16.4998 126.6 11.1998 121.3C5.89985 116 7.32985 105.97 14.3998 98.8998C18.4498 94.8598 23.4598 92.6698 27.9998 92.5198V18.9098ZM39.8489 23.088C39.3607 23.1627 39.0001 23.5826 39.0001 24.0765L39 32.0526C39 32.6651 39.5456 33.1337 40.1511 33.0411L95.1512 24.6298C95.6394 24.5551 96 24.1352 96 23.6413V15.6646C96 15.052 95.4543 14.5835 94.8488 14.6761L39.8489 23.088Z" fill="#546E7A" style="fill:#546E7A;fill:color(display-p3 0.3294 0.4314 0.4784);fill-opacity:1;"/>
<defs>
<radialGradient id="paint0_radial_183_614" cx="0" cy="0" r="1" gradientUnits="userSpaceOnUse" gradientTransform="translate(67.2498 9.74979) scale(98.804 98.804)">
<stop stop-color="#40C4FF" style="stop-color:#40C4FF;stop-color:color(display-p3 0.2510 0.7686 1.0000);stop-opacity:1;"/>
<stop offset="1" stop-color="#0091EA" style="stop-color:#0091EA;stop-color:color(display-p3 0.0000 0.5686 0.9176);stop-opacity:1;"/>
</radialGradient>
<radialGradient id="paint1_radial_183_614" cx="0" cy="0" r="1" gradientUnits="userSpaceOnUse" gradientTransform="translate(57.9997 4.50146) rotate(90) scale(127.999 106.667)">
<stop stop-color="#616161" style="stop-color:#616161;stop-color:color(display-p3 0.3804 0.3804 0.3804);stop-opacity:1;"/>
<stop offset="0.827" stop-color="#212121" style="stop-color:#212121;stop-color:color(display-p3 0.1294 0.1294 0.1294);stop-opacity:1;"/>
</radialGradient>
<linearGradient id="paint2_linear_183_614" x1="57.9997" y1="5.29093" x2="57.9997" y2="124.311" gradientUnits="userSpaceOnUse">
<stop stop-color="#757575" style="stop-color:#757575;stop-color:color(display-p3 0.4588 0.4588 0.4588);stop-opacity:1;"/>
<stop offset="0.5148" stop-color="#504F4F" style="stop-color:#504F4F;stop-color:color(display-p3 0.3137 0.3098 0.3098);stop-opacity:1;"/>
</linearGradient>
</defs>
</svg>
