<svg width="128" height="128" viewBox="0 0 128 128" fill="none" xmlns="http://www.w3.org/2000/svg">
<path d="M66.1296 68.34L122.17 39.11C122.17 39.11 122.19 38.37 122.17 37.85L59.8596 10.83C59.6096 10.72 59.3196 10.73 59.0696 10.86L4.88957 39.52C4.67957 39.63 4.55957 39.84 4.55957 40.07V93.02C4.55957 93.64 4.90957 94.21 5.44957 94.49C6.00957 94.78 6.56957 95.07 7.12957 95.36C8.64957 96.14 63.0796 124.63 64.8796 123.98C65.4096 123.79 65.8096 123.43 66.1296 123V68.34Z" fill="#1976D2" style="fill:#1976D2;fill:color(display-p3 0.0980 0.4627 0.8235);fill-opacity:1;"/>
<path d="M64.6997 67.32C71.3497 64.11 122.25 39.54 122.17 37.85L59.8197 10.81C59.5897 10.71 59.3297 10.72 59.0997 10.84L4.86972 39.53C4.73972 39.6 4.73972 39.79 4.87972 39.85L63.2597 67.32C63.7197 67.53 64.2397 67.53 64.6997 67.32Z" fill="#039BE5" style="fill:#039BE5;fill:color(display-p3 0.0118 0.6078 0.8980);fill-opacity:1;"/>
<path d="M122.72 94.41L65.96 123.67C65.06 124.13 64 123.48 64 122.47V68.93C64 67.66 64.85 67.2 65.3 66.97L121.48 38C122.38 37.54 123.44 37.85 123.44 39.2V93.22C123.45 93.72 123.17 94.18 122.72 94.41Z" fill="#0D47A1" style="fill:#0D47A1;fill:color(display-p3 0.0510 0.2784 0.6314);fill-opacity:1;"/>
<path d="M74.8896 46.1L42.6396 29.99L48.6896 26.98L80.9397 43.09L74.8896 46.1Z" fill="#212121" style="fill:#212121;fill:color(display-p3 0.1294 0.1294 0.1294);fill-opacity:1;"/>
<path d="M78.2299 41.74L54.4199 29.84C54.4199 29.84 59.7599 24.89 71.8199 18.51C72.2699 18.27 74.4899 16.98 74.9699 17.23L103.24 29.53C91.7399 30.99 78.2299 41.74 78.2299 41.74Z" fill="#0D47A1" style="fill:#0D47A1;fill:color(display-p3 0.0510 0.2784 0.6314);fill-opacity:1;"/>
<path d="M48.6896 28.78L79.1296 43.98L80.9397 43.09L48.6896 26.98L42.6396 29.99L44.4396 30.89L48.6896 28.78Z" fill="#0D47A1" style="fill:#0D47A1;fill:color(display-p3 0.0510 0.2784 0.6314);fill-opacity:1;"/>
<path d="M98.9599 17.94C87.3099 25.05 72.4299 44.87 72.4299 44.87L47.6299 32.48C47.6299 32.48 60.7799 10.94 76.1499 4.15002C76.6099 3.95002 77.1599 3.93002 77.6399 4.19002L98.8199 15.39C99.8999 15.96 99.9399 17.34 98.9599 17.94Z" fill="#DFECF5" style="fill:#DFECF5;fill:color(display-p3 0.8745 0.9255 0.9608);fill-opacity:1;"/>
<path opacity="0.7" d="M63.9798 74.86L4.5498 46.9V49.09L63.9798 77.05L64.4098 76.85L63.9798 74.86Z" fill="#0D47A1" style="fill:#0D47A1;fill:color(display-p3 0.0510 0.2784 0.6314);fill-opacity:1;"/>
<path d="M64 74.85V77.04L123.45 46.54V44.31L64 74.85Z" fill="#0A3160" style="fill:#0A3160;fill:color(display-p3 0.0392 0.1922 0.3765);fill-opacity:1;"/>
<path d="M39.2402 48.13C39.2402 44.65 41.3102 43.99 43.8702 43.99C46.4302 43.99 48.5002 44.8 48.5002 48.13C48.5002 49.67 46.4302 50.91 43.8702 50.91C41.3102 50.91 39.2402 49.67 39.2402 48.13Z" fill="#616161" style="fill:#616161;fill:color(display-p3 0.3804 0.3804 0.3804);fill-opacity:1;"/>
<path d="M43.8702 49.43C46.3113 49.43 48.2902 48.1853 48.2902 46.65C48.2902 45.1146 46.3113 43.87 43.8702 43.87C41.4291 43.87 39.4502 45.1146 39.4502 46.65C39.4502 48.1853 41.4291 49.43 43.8702 49.43Z" fill="#E0E0E0" style="fill:#E0E0E0;fill:color(display-p3 0.8784 0.8784 0.8784);fill-opacity:1;"/>
<path d="M67.8257 32.3772L70.091 15.8094C70.2611 14.5633 71.3842 13.274 72.5951 12.9345C73.8059 12.595 74.6523 13.3322 74.4822 14.5782L72.2208 31.1416C72.0507 32.3876 70.9277 33.6769 69.7168 34.0164C68.5019 34.3605 67.6556 33.6232 67.8257 32.3772Z" fill="#323232" style="fill:#323232;fill:color(display-p3 0.1958 0.1958 0.1958);fill-opacity:1;"/>
<path d="M63.4136 23.4756L79.5124 18.9599C80.7235 18.6202 81.5699 19.3574 81.3995 20.6037C81.2292 21.8499 80.1059 23.1396 78.8948 23.4793L62.796 27.995C61.5849 28.3347 60.7385 27.5975 60.9088 26.3512C61.0831 25.1004 62.2025 23.8153 63.4136 23.4756Z" fill="#323232" style="fill:#323232;fill:color(display-p3 0.1958 0.1958 0.1958);fill-opacity:1;"/>
</svg>
