<svg width="128" height="129" viewBox="0 0 128 129" fill="none" xmlns="http://www.w3.org/2000/svg">
<path d="M68.0501 7.48L81.5101 38.18C82.5401 40.53 84.7701 42.14 87.3301 42.37L120.12 45.31C123.83 45.85 125.31 50.4 122.62 53.02L97.9201 73.77C95.9201 75.45 95.0101 78.09 95.5601 80.64L102.74 114.25C103.37 117.94 99.5001 120.76 96.1801 119.01L67.5601 102.25C65.3601 100.96 62.6401 100.96 60.4401 102.25L31.8201 119C28.5101 120.74 24.6301 117.93 25.2601 114.24L32.4401 80.63C32.9801 78.08 32.0801 75.44 30.0801 73.76L5.37009 53.03C2.69009 50.42 4.17009 45.86 7.87009 45.32L40.6601 42.38C43.2201 42.15 45.4501 40.54 46.4801 38.19L59.9401 7.49C61.6101 4.13 66.3901 4.13 68.0501 7.48Z" fill="#424242" style="fill:#424242;fill:color(display-p3 0.2588 0.2588 0.2588);fill-opacity:1;"/>
<path d="M67.0701 40.02L64.7901 17.4C64.7001 16.14 64.4401 13.98 66.4601 13.98C68.0601 13.98 68.9301 17.31 68.9301 17.31L75.7701 35.47C78.3501 42.38 77.2901 44.75 74.8001 46.15C71.9401 47.75 67.7201 46.5 67.0701 40.02Z" fill="#787878" style="fill:#787878;fill:color(display-p3 0.4706 0.4706 0.4706);fill-opacity:1;"/>
<path d="M95.28 71.76L114.9 56.45C115.87 55.64 117.62 54.35 116.22 52.88C115.11 51.72 112.11 53.39 112.11 53.39L94.94 60.1C89.82 61.87 86.42 64.49 86.12 67.79C85.73 72.19 89.68 75.58 95.28 71.76Z" fill="#353535" style="fill:#353535;fill:color(display-p3 0.2078 0.2078 0.2078);fill-opacity:1;"/>
</svg>
