<svg width="128" height="128" viewBox="0 0 128 128" fill="none" xmlns="http://www.w3.org/2000/svg">
<g opacity="0.2">
<path d="M99.73 7.09009C102.49 7.09009 104.73 9.33009 104.73 12.0901V116.09C104.73 118.85 102.49 121.09 99.73 121.09H27.73C24.97 121.09 22.73 118.85 22.73 116.09V12.0901C22.73 9.33009 24.97 7.09009 27.73 7.09009H99.73ZM99.73 4.09009H27.73C23.31 4.09009 19.73 7.67009 19.73 12.0901V116.09C19.73 120.51 23.31 124.09 27.73 124.09H99.73C104.15 124.09 107.73 120.51 107.73 116.09V12.0901C107.73 7.67009 104.15 4.09009 99.73 4.09009Z" fill="#212121" style="fill:#212121;fill:color(display-p3 0.1294 0.1294 0.1294);fill-opacity:1;"/>
<path d="M99.73 7.09009C102.49 7.09009 104.73 9.33009 104.73 12.0901V116.09C104.73 118.85 102.49 121.09 99.73 121.09H27.73C24.97 121.09 22.73 118.85 22.73 116.09V12.0901C22.73 9.33009 24.97 7.09009 27.73 7.09009H99.73ZM99.73 4.09009H27.73C23.31 4.09009 19.73 7.67009 19.73 12.0901V116.09C19.73 120.51 23.31 124.09 27.73 124.09H99.73C104.15 124.09 107.73 120.51 107.73 116.09V12.0901C107.73 7.67009 104.15 4.09009 99.73 4.09009Z" fill="#212121" style="fill:#212121;fill:color(display-p3 0.1294 0.1294 0.1294);fill-opacity:1;"/>
<path d="M99.73 7.09009C102.49 7.09009 104.73 9.33009 104.73 12.0901V116.09C104.73 118.85 102.49 121.09 99.73 121.09H27.73C24.97 121.09 22.73 118.85 22.73 116.09V12.0901C22.73 9.33009 24.97 7.09009 27.73 7.09009H99.73ZM99.73 4.09009H27.73C23.31 4.09009 19.73 7.67009 19.73 12.0901V116.09C19.73 120.51 23.31 124.09 27.73 124.09H99.73C104.15 124.09 107.73 120.51 107.73 116.09V12.0901C107.73 7.67009 104.15 4.09009 99.73 4.09009Z" fill="#212121" style="fill:#212121;fill:color(display-p3 0.1294 0.1294 0.1294);fill-opacity:1;"/>
</g>
<path d="M102.29 125.43L26.2695 125.06C22.8195 125.06 20.0195 122.26 20.0195 118.81L32.2195 26.6801L102.41 4.5001C108.54 4.1701 108.89 7.0301 108.89 10.4801L108.52 119.17C108.54 122.64 105.74 125.43 102.29 125.43Z" fill="#D9CDC9" style="fill:#D9CDC9;fill:color(display-p3 0.8510 0.8039 0.7882);fill-opacity:1;"/>
<path d="M101.83 122.06C101.83 122.06 44.0696 123.04 25.3596 121.98C21.7796 121.78 20.0296 120.36 20.0196 118.82L19.8496 10.3301C19.8496 6.88008 22.6496 4.08008 26.0996 4.08008L101.74 4.40008C105.19 4.40008 106.5 7.26008 106.5 10.7101L105.93 116.11C105.91 119.56 105.28 122.06 101.83 122.06Z" fill="#F1EDEC" style="fill:#F1EDEC;fill:color(display-p3 0.9451 0.9294 0.9255);fill-opacity:1;"/>
<path d="M42.1167 108C42.1167 111.068 39.9256 113 36.75 113C33.5744 113 31 110.513 31 107.444C31.0134 107.179 31.007 106.919 31 106.663C31 104.636 32.0261 102.67 32.9167 100.83C33.8325 98.9379 35.1529 97.2797 36.3906 95.5868C38.3078 92.9647 42.5 88 42.5 88C42.5 88 46.6922 92.9647 48.6094 95.5868C49.8471 97.2797 51.1675 98.9379 52.0833 100.83C52.9739 102.67 54 104.636 54 106.663C53.9891 106.934 53.9929 107.195 54 107.444C54 110.513 51.4256 113 48.25 113C45.0744 113 42.8833 111.068 42.8833 108C42.8833 107.444 42.1167 107.444 42.1167 108Z" fill="#F44336" style="fill:#F44336;fill:color(display-p3 0.9569 0.2627 0.2118);fill-opacity:1;"/>
<path d="M84.9668 108C84.9668 111.068 82.7757 113 79.6001 113C76.4245 113 73.8501 110.513 73.8501 107.444C73.8635 107.179 73.8571 106.919 73.8501 106.663C73.8501 104.636 74.8762 102.67 75.7668 100.83C76.6826 98.9379 78.003 97.2797 79.2407 95.5868C81.1579 92.9647 85.3501 88 85.3501 88C85.3501 88 89.5423 92.9647 91.4595 95.5868C92.6972 97.2797 94.0176 98.9379 94.9334 100.83C95.824 102.67 96.8501 104.636 96.8501 106.663C96.8392 106.934 96.843 107.195 96.8501 107.444C96.8501 110.513 94.2757 113 91.1001 113C87.9245 113 85.7334 111.068 85.7334 108C85.7334 107.444 84.9668 107.444 84.9668 108Z" fill="#F44336" style="fill:#F44336;fill:color(display-p3 0.9569 0.2627 0.2118);fill-opacity:1;"/>
<path d="M41.9668 23C41.9668 19.9318 39.7757 18 36.6001 18C33.4245 18 30.8501 20.4873 30.8501 23.5556C30.8635 23.821 30.8571 24.0809 30.8501 24.3368C30.8501 26.3642 31.8762 28.3304 32.7668 30.1701C33.6826 32.0621 35.003 33.7203 36.2407 35.4132C38.1579 38.0353 42.3501 43 42.3501 43C42.3501 43 46.5423 38.0353 48.4595 35.4132C49.6972 33.7203 51.0176 32.0621 51.9334 30.1701C52.824 28.3304 53.8501 26.3642 53.8501 24.3368C53.8392 24.0661 53.843 23.805 53.8501 23.5556C53.8501 20.4873 51.2757 18 48.1001 18C44.9245 18 42.7334 19.9318 42.7334 23C42.7334 23.5556 41.9668 23.5556 41.9668 23Z" fill="#F44336" style="fill:#F44336;fill:color(display-p3 0.9569 0.2627 0.2118);fill-opacity:1;"/>
<path d="M84.9668 23C84.9668 19.9318 82.7757 18 79.6001 18C76.4245 18 73.8501 20.4873 73.8501 23.5556C73.8635 23.821 73.8571 24.0809 73.8501 24.3368C73.8501 26.3642 74.8762 28.3304 75.7668 30.1701C76.6826 32.0621 78.003 33.7203 79.2407 35.4132C81.1579 38.0353 85.3501 43 85.3501 43C85.3501 43 89.5423 38.0353 91.4595 35.4132C92.6972 33.7203 94.0176 32.0621 94.9334 30.1701C95.824 28.3304 96.8501 26.3642 96.8501 24.3368C96.8392 24.0661 96.843 23.805 96.8501 23.5556C96.8501 20.4873 94.2757 18 91.1001 18C87.9245 18 85.7334 19.9318 85.7334 23C85.7334 23.5556 84.9668 23.5556 84.9668 23Z" fill="#F44336" style="fill:#F44336;fill:color(display-p3 0.9569 0.2627 0.2118);fill-opacity:1;"/>
</svg>
