<svg width="128" height="128" viewBox="0 0 128 128" fill="none" xmlns="http://www.w3.org/2000/svg">
<path d="M23.9902 19.4657C23.9902 19.4657 24.9602 12.8757 26.2202 10.2357C27.4802 7.59569 29.4602 4.81569 33.2602 4.07569C37.7902 3.19569 90.3102 3.65569 93.9502 3.88569C97.6202 4.12569 100.03 5.27569 101.41 7.53569C102.46 9.26569 102.83 11.3757 103.32 14.5057C103.58 16.1557 104.12 20.6757 104.12 20.6757L23.9902 19.4657Z" fill="#FFA828" style="fill:#FFA828;fill:color(display-p3 1.0000 0.6588 0.1569);fill-opacity:1;"/>
<path d="M50.6302 37.3156L22.4702 32.6356C22.4702 32.6356 23.0602 20.9856 24.2802 17.9356C25.5002 14.8856 27.0102 13.0656 31.4402 12.3056C35.8702 11.5456 46.9702 11.8556 63.6202 11.7056C80.2702 11.5556 94.9302 12.5656 97.5302 12.7156C100.13 12.8656 102.57 14.1456 103.33 16.5856C104.09 19.0256 104.46 22.3256 105.01 28.1956C105.21 30.3256 105.03 34.3556 105.03 34.3556L72.7602 36.5556L50.6302 37.3156Z" fill="#F1EDEC" style="fill:#F1EDEC;fill:color(display-p3 0.9451 0.9294 0.9255);fill-opacity:1;"/>
<path d="M22.2302 35.6857C22.4202 32.6357 22.4802 29.3357 24.8002 27.3657C26.7902 25.6857 30.1502 25.9957 34.1202 25.8357C37.7902 25.6957 47.1002 25.7757 64.6702 25.7757C82.2402 25.7757 97.0302 26.0357 99.7802 26.0357C102.53 26.0357 104.87 28.1857 105.17 30.1757C105.48 32.1657 104.1 116.326 103.95 118.156C103.8 119.986 103.19 123.656 99.2102 123.956C95.2402 124.266 32.7702 124.266 30.1702 123.956C27.5702 123.646 25.2802 121.356 24.8202 117.086C24.3602 112.816 22.0702 38.1257 22.2302 35.6857Z" fill="#D8CDC9" style="fill:#D8CDC9;fill:color(display-p3 0.8471 0.8039 0.7882);fill-opacity:1;"/>
<path d="M29.61 50.0259C31.91 50.3259 33.82 40.4159 36.82 38.1059C39.82 35.8059 45.43 34.5959 45.43 32.2959C45.43 31.1459 41.79 31.1559 38.42 31.1959C35.05 31.2359 32.15 30.9559 30.51 32.6959C28.71 34.5959 28.53 37.6459 28.41 40.7059C28.2 45.6159 28.19 49.8359 29.61 50.0259Z" fill="#F1EDEC" style="fill:#F1EDEC;fill:color(display-p3 0.9451 0.9294 0.9255);fill-opacity:1;"/>
<path d="M79.3398 117.656C79.3398 119.336 80.5698 119.886 87.2198 119.656C92.8398 119.466 95.6198 118.756 97.2898 116.746C98.9598 114.746 99.4198 110.546 99.4898 105.506C99.5298 102.016 99.4398 98.6562 97.6798 98.6562C95.1598 98.6562 95.1699 104.406 93.1599 107.636C89.2199 113.976 79.3398 115.416 79.3398 117.656Z" fill="#F1EDEC" style="fill:#F1EDEC;fill:color(display-p3 0.9451 0.9294 0.9255);fill-opacity:1;"/>
<path d="M94.8899 57.7676L94.8803 57.7595C92.8266 56.0482 90.2386 55.166 87.0446 55.166L94.8899 57.7676ZM94.8899 57.7676L94.8997 57.7753M94.8899 57.7676L94.8997 57.7753M94.8997 57.7753C97.0184 59.4526 98 61.3925 98 63.6307L94.8997 57.7753ZM98 63.6307C98 66.0179 96.9823 68.0215 94.8202 69.6904C92.6959 71.3289 90.122 72.166 87.0446 72.166C83.8475 72.166 81.222 71.3052 79.1051 69.6311C76.9874 67.9099 76 65.9222 76 63.6307V63.6307C76 61.3411 76.9854 59.3808 79.0955 57.7085C81.2796 56.0244 83.9119 55.166 87.0446 55.166L98 63.6307Z" stroke="#426FE4" style="stroke:#426FE4;stroke:color(display-p3 0.2588 0.4353 0.8941);stroke-opacity:1;" stroke-width="2"/>
<circle cx="87.5" cy="63.666" r="2.5" fill="#426FE4" style="fill:#426FE4;fill:color(display-p3 0.2588 0.4353 0.8941);fill-opacity:1;"/>
<path d="M48.8899 57.7676L48.8803 57.7595C46.8266 56.0482 44.2386 55.166 41.0446 55.166L48.8899 57.7676ZM48.8899 57.7676L48.8997 57.7753M48.8899 57.7676L48.8997 57.7753M48.8997 57.7753C51.0184 59.4526 52 61.3925 52 63.6307L48.8997 57.7753ZM52 63.6307C52 66.0179 50.9823 68.0215 48.8202 69.6904C46.6959 71.3289 44.122 72.166 41.0446 72.166C37.8475 72.166 35.222 71.3052 33.1051 69.6311C30.9874 67.9099 30 65.9222 30 63.6307V63.6307C30 61.3411 30.9854 59.3808 33.0955 57.7085C35.2796 56.0244 37.9119 55.166 41.0446 55.166L52 63.6307Z" stroke="#426FE4" style="stroke:#426FE4;stroke:color(display-p3 0.2588 0.4353 0.8941);stroke-opacity:1;" stroke-width="2"/>
<circle cx="41.5" cy="63.666" r="2.5" fill="#426FE4" style="fill:#426FE4;fill:color(display-p3 0.2588 0.4353 0.8941);fill-opacity:1;"/>
<path d="M94.8705 34.9001L94.861 34.8918C92.8066 33.0897 90.2254 32.166 87.0446 32.166L94.8705 34.9001ZM94.8705 34.9001L94.8802 34.9082M94.8705 34.9001L94.8802 34.9082M94.8802 34.9082C96.9997 36.6744 98 38.7338 98 41.1288L94.8802 34.9082ZM98 41.1289C98 43.6803 96.9639 45.8068 94.8009 47.5644C92.6766 49.2893 90.1096 50.166 87.0446 50.166C83.86 50.166 81.2415 49.2644 79.1245 47.5022C77.0054 45.6891 76 43.5791 76 41.1288V41.1288C76 38.6802 77.0037 36.5991 79.115 34.8378C81.2991 33.0651 83.9244 32.166 87.0446 32.166L98 41.1289Z" stroke="#426FE4" style="stroke:#426FE4;stroke:color(display-p3 0.2588 0.4353 0.8941);stroke-opacity:1;" stroke-width="2"/>
<path d="M87.5 43.166C88.0841 43.166 88.6581 43.01 89.1154 42.7052C89.5656 42.405 90 41.8805 90 41.166C90 40.4515 89.5656 39.927 89.1154 39.6269C88.6581 39.322 88.0841 39.166 87.5 39.166C86.9159 39.166 86.3419 39.322 85.8846 39.6269C85.4344 39.927 85 40.4515 85 41.166C85 41.8805 85.4344 42.405 85.8846 42.7052C86.3419 43.01 86.9159 43.166 87.5 43.166Z" fill="#426FE4" stroke="#426FE4" style="fill:#426FE4;fill:color(display-p3 0.2588 0.4353 0.8941);fill-opacity:1;stroke:#426FE4;stroke:color(display-p3 0.2588 0.4353 0.8941);stroke-opacity:1;" stroke-width="2"/>
<path d="M48.8705 34.9001L48.861 34.8918C46.8066 33.0897 44.2254 32.166 41.0446 32.166L48.8705 34.9001ZM48.8705 34.9001L48.8802 34.9082M48.8705 34.9001L48.8802 34.9082M48.8802 34.9082C50.9997 36.6744 52 38.7338 52 41.1288L48.8802 34.9082ZM52 41.1289C52 43.6803 50.9639 45.8068 48.8009 47.5644C46.6766 49.2893 44.1096 50.166 41.0446 50.166C37.86 50.166 35.2415 49.2644 33.1245 47.5022C31.0054 45.6891 30 43.5791 30 41.1288V41.1288C30 38.6802 31.0037 36.5991 33.115 34.8378C35.2991 33.0651 37.9244 32.166 41.0446 32.166L52 41.1289Z" stroke="#426FE4" style="stroke:#426FE4;stroke:color(display-p3 0.2588 0.4353 0.8941);stroke-opacity:1;" stroke-width="2"/>
<circle cx="41" cy="41.166" r="2" fill="#426FE4" style="fill:#426FE4;fill:color(display-p3 0.2588 0.4353 0.8941);fill-opacity:1;"/>
<path d="M94.8705 102.9L94.861 102.892C92.8066 101.09 90.2254 100.166 87.0446 100.166L94.8705 102.9ZM94.8705 102.9L94.8802 102.908M94.8705 102.9L94.8802 102.908M94.8802 102.908C96.9997 104.674 98 106.734 98 109.129L94.8802 102.908ZM98 109.129C98 111.68 96.9639 113.807 94.8009 115.564C92.6766 117.289 90.1096 118.166 87.0446 118.166C83.86 118.166 81.2415 117.264 79.1245 115.502C77.0054 113.689 76 111.579 76 109.129V109.129C76 106.68 77.0037 104.599 79.115 102.838C81.2991 101.065 83.9244 100.166 87.0446 100.166L98 109.129Z" stroke="#426FE4" style="stroke:#426FE4;stroke:color(display-p3 0.2588 0.4353 0.8941);stroke-opacity:1;" stroke-width="2"/>
<ellipse cx="87.5" cy="109.166" rx="2.5" ry="2" fill="#426FE4" style="fill:#426FE4;fill:color(display-p3 0.2588 0.4353 0.8941);fill-opacity:1;"/>
<path d="M48.8705 102.9L48.861 102.892C46.8066 101.09 44.2254 100.166 41.0446 100.166L48.8705 102.9ZM48.8705 102.9L48.8802 102.908M48.8705 102.9L48.8802 102.908M48.8802 102.908C50.9997 104.674 52 106.734 52 109.129L48.8802 102.908ZM52 109.129C52 111.68 50.9639 113.807 48.8009 115.564C46.6766 117.289 44.1096 118.166 41.0446 118.166C37.86 118.166 35.2415 117.264 33.1245 115.502C31.0054 113.689 30 111.579 30 109.129V109.129C30 106.68 31.0037 104.599 33.115 102.838C35.2991 101.065 37.9244 100.166 41.0446 100.166L52 109.129Z" stroke="#426FE4" style="stroke:#426FE4;stroke:color(display-p3 0.2588 0.4353 0.8941);stroke-opacity:1;" stroke-width="2"/>
<ellipse cx="41.5" cy="109.166" rx="2.5" ry="2" fill="#426FE4" style="fill:#426FE4;fill:color(display-p3 0.2588 0.4353 0.8941);fill-opacity:1;"/>
<path d="M94.8705 79.9001L94.861 79.8918C92.8066 78.0897 90.2254 77.166 87.0446 77.166L94.8705 79.9001ZM94.8705 79.9001L94.8802 79.9082M94.8705 79.9001L94.8802 79.9082M94.8802 79.9082C96.9997 81.6744 98 83.7338 98 86.1288L94.8802 79.9082ZM98 86.1289C98 88.6803 96.9639 90.8068 94.8009 92.5644C92.6766 94.2893 90.1096 95.166 87.0446 95.166C83.86 95.166 81.2415 94.2644 79.1245 92.5022C77.0054 90.6891 76 88.5791 76 86.1288V86.1288C76 83.6802 77.0037 81.5991 79.115 79.8378C81.2991 78.0651 83.9244 77.166 87.0446 77.166L98 86.1289Z" stroke="#426FE4" style="stroke:#426FE4;stroke:color(display-p3 0.2588 0.4353 0.8941);stroke-opacity:1;" stroke-width="2"/>
<path d="M87.5 88.166C88.0841 88.166 88.6581 88.01 89.1154 87.7052C89.5656 87.405 90 86.8805 90 86.166C90 85.4515 89.5656 84.927 89.1154 84.6269C88.6581 84.322 88.0841 84.166 87.5 84.166C86.9159 84.166 86.3419 84.322 85.8846 84.6269C85.4344 84.927 85 85.4515 85 86.166C85 86.8805 85.4344 87.405 85.8846 87.7052C86.3419 88.01 86.9159 88.166 87.5 88.166Z" fill="#426FE4" stroke="#426FE4" style="fill:#426FE4;fill:color(display-p3 0.2588 0.4353 0.8941);fill-opacity:1;stroke:#426FE4;stroke:color(display-p3 0.2588 0.4353 0.8941);stroke-opacity:1;" stroke-width="2"/>
<path d="M48.8705 79.9001L48.861 79.8918C46.8066 78.0897 44.2254 77.166 41.0446 77.166L48.8705 79.9001ZM48.8705 79.9001L48.8802 79.9082M48.8705 79.9001L48.8802 79.9082M48.8802 79.9082C50.9997 81.6744 52 83.7338 52 86.1288L48.8802 79.9082ZM52 86.1289C52 88.6803 50.9639 90.8068 48.8009 92.5644C46.6766 94.2893 44.1096 95.166 41.0446 95.166C37.86 95.166 35.2415 94.2644 33.1245 92.5022C31.0054 90.6891 30 88.5791 30 86.1288V86.1288C30 83.6802 31.0037 81.5991 33.115 79.8378C35.2991 78.0651 37.9244 77.166 41.0446 77.166L52 86.1289Z" stroke="#426FE4" style="stroke:#426FE4;stroke:color(display-p3 0.2588 0.4353 0.8941);stroke-opacity:1;" stroke-width="2"/>
<circle cx="41" cy="86.166" r="2" fill="#426FE4" style="fill:#426FE4;fill:color(display-p3 0.2588 0.4353 0.8941);fill-opacity:1;"/>
</svg>
