<svg width="128" height="129" viewBox="0 0 128 129" fill="none" xmlns="http://www.w3.org/2000/svg">
<path d="M23.9902 20.4657C23.9902 20.4657 24.9602 13.8757 26.2202 11.2357C27.4802 8.59569 29.4602 5.81569 33.2602 5.07569C37.7902 4.19569 90.3102 4.65569 93.9502 4.88569C97.6202 5.12569 100.03 6.27569 101.41 8.53569C102.46 10.2657 102.83 12.3757 103.32 15.5057C103.58 17.1557 104.12 21.6757 104.12 21.6757L23.9902 20.4657Z" fill="#FFA828" style="fill:#FFA828;fill:color(display-p3 1.0000 0.6588 0.1569);fill-opacity:1;"/>
<path d="M50.6302 38.3156L22.4702 33.6356C22.4702 33.6356 23.0602 21.9856 24.2802 18.9356C25.5002 15.8856 27.0102 14.0656 31.4402 13.3056C35.8702 12.5456 46.9702 12.8556 63.6202 12.7056C80.2702 12.5556 94.9302 13.5656 97.5302 13.7156C100.13 13.8656 102.57 15.1456 103.33 17.5856C104.09 20.0256 104.46 23.3256 105.01 29.1956C105.21 31.3256 105.03 35.3556 105.03 35.3556L72.7602 37.5556L50.6302 38.3156Z" fill="#F1EDEC" style="fill:#F1EDEC;fill:color(display-p3 0.9451 0.9294 0.9255);fill-opacity:1;"/>
<path d="M22.2302 36.6857C22.4202 33.6357 22.4802 30.3357 24.8002 28.3657C26.7902 26.6857 30.1502 26.9957 34.1202 26.8357C37.7902 26.6957 47.1002 26.7757 64.6702 26.7757C82.2402 26.7757 97.0302 27.0357 99.7802 27.0357C102.53 27.0357 104.87 29.1857 105.17 31.1757C105.48 33.1657 104.1 117.326 103.95 119.156C103.8 120.986 103.19 124.656 99.2102 124.956C95.2402 125.266 32.7702 125.266 30.1702 124.956C27.5702 124.646 25.2802 122.356 24.8202 118.086C24.3602 113.816 22.0702 39.1257 22.2302 36.6857Z" fill="#D8CDC9" style="fill:#D8CDC9;fill:color(display-p3 0.8471 0.8039 0.7882);fill-opacity:1;"/>
<path d="M29.61 51.0259C31.91 51.3259 33.82 41.4159 36.82 39.1059C39.82 36.8059 45.43 35.5959 45.43 33.2959C45.43 32.1459 41.79 32.1559 38.42 32.1959C35.05 32.2359 32.15 31.9559 30.51 33.6959C28.71 35.5959 28.53 38.6459 28.41 41.7059C28.2 46.6159 28.19 50.8359 29.61 51.0259Z" fill="#F1EDEC" style="fill:#F1EDEC;fill:color(display-p3 0.9451 0.9294 0.9255);fill-opacity:1;"/>
<path d="M79.3398 118.656C79.3398 120.336 80.5698 120.886 87.2198 120.656C92.8398 120.466 95.6198 119.756 97.2898 117.746C98.9598 115.746 99.4198 111.546 99.4898 106.506C99.5298 103.016 99.4398 99.6562 97.6798 99.6562C95.1598 99.6562 95.1699 105.406 93.1599 108.636C89.2199 114.976 79.3398 116.416 79.3398 118.656Z" fill="#F1EDEC" style="fill:#F1EDEC;fill:color(display-p3 0.9451 0.9294 0.9255);fill-opacity:1;"/>
<path d="M74.5173 68.6346C73.7827 69.3258 73.089 69.9479 72.4362 70.5008C71.7833 70.9847 70.9672 71.4685 69.9879 71.9523C69.0902 72.4362 68.3149 72.8164 67.6621 73.0928C67.0908 73.3693 66.1115 73.7495 64.7241 74.2333C63.3367 74.7172 62.235 75.0628 61.419 75.2701C60.6844 75.4775 59.2563 75.8922 57.1345 76.5143C55.0942 77.1364 53.462 77.6202 52.2379 77.9658M82.8414 59.1996C82.8413 57.5049 81.9328 55.8102 80.1157 54.1154C79.8195 53.8391 79.3082 53.9914 79.059 54.3107V54.3107C78.8016 54.6405 78.3724 54.4934 78.178 54.1229L77.4538 52.7429C77.2288 52.3142 76.6069 52.0871 76.1319 51.9939V51.9939C75.9211 51.9526 75.9461 51.8369 75.8638 51.6385C75.8414 51.5845 75.82 51.5339 75.7996 51.4868C75.6907 51.2352 75.5035 51.03 75.2798 50.8714C74.1223 50.0509 73.1586 49.3944 72.3888 48.9021C72.1965 48.7791 71.9466 48.9183 71.9466 49.1466V49.1466C71.9466 49.4089 71.6264 49.5383 71.4406 49.3532C71.0222 48.9364 70.7828 48.7279 70.7224 48.7279C70.5591 48.7279 70.4367 48.7625 70.3552 48.8316C70.2735 48.9007 70.1511 48.9353 69.9879 48.9353C69.8247 48.9353 69.4574 48.7625 68.8862 48.4169L68.1172 48.0098C67.9791 47.9367 67.8566 47.8902 67.7079 47.9384V47.9384C67.616 47.9681 67.5061 48.0423 67.4171 48.08C67.3763 48.0972 67.3356 48.1058 67.2948 48.1058C67.0499 48.1059 66.5195 47.9331 65.7034 47.5874C64.8873 47.1727 64.3569 46.9654 64.1121 46.9653H63.608C62.519 46.9653 61.6883 47.9324 61.8247 49.0128C61.8455 49.1778 61.8648 49.3355 61.8825 49.4858C61.9911 50.4097 61.1501 51.0868 60.2509 50.8487V50.8487C60.1324 50.8174 60.01 50.7988 59.8884 50.8139C59.8135 50.8233 59.7324 50.8379 59.645 50.8579C59.5217 50.886 59.338 50.9052 59.2115 50.9052V50.9052C59.0144 50.9052 58.8779 50.8629 58.6986 50.7811L58.3496 50.622C57.8053 50.3737 57.1751 50.7756 56.6922 51.1288V51.1288C56.5305 51.2471 56.4202 51.1893 56.2261 51.1399C55.339 50.9143 54.7849 50.8015 54.5638 50.8015C54.4005 50.8015 54.1557 50.8707 53.8293 51.0089C53.5844 51.078 53.3804 51.1126 53.2172 51.1126C52.7956 51.1126 52.0852 51.0373 51.0858 50.8867C50.5243 50.8021 50.1031 51.5556 50.2504 52.1041V52.1041C50.3969 52.649 49.9134 52.9788 49.3492 52.9788H46.96C46.8394 52.9788 46.7921 53.1593 46.8312 53.2734V53.2734C46.8561 53.3462 46.7852 53.3864 46.7086 53.3792C46.261 53.3371 45.7255 53.3099 45.1022 53.2975C44.6488 53.2886 44.2917 53.6359 44.0419 54.0144V54.0144C43.9175 54.2029 43.6633 54.3261 43.4374 54.3285C41.7966 54.3457 40.4049 54.4833 39.2621 54.7414C38.0379 55.0179 37.3034 55.1561 37.0586 55.1561V55.1561C36.2712 55.1561 36.0549 56.4674 36.7859 56.7601C37.4171 57.0128 38.0687 57.2851 38.7406 57.5772C38.8117 57.6081 38.8258 57.7029 38.7666 57.753V57.753C38.7105 57.8006 38.7203 57.89 38.7849 57.9253C40.3058 58.7547 41.3777 59.3624 42.0007 59.7481C42.2873 59.9256 42.1687 60.373 41.873 60.5349V60.5349C41.5418 60.7162 41.5913 61.1441 41.889 61.3763C42.872 62.1428 43.7409 62.8432 44.4956 63.4774C45.7648 64.544 45.4921 66.5619 44.1959 67.5956C43.4414 68.1973 42.6156 68.9142 41.7186 69.7463C41.5836 69.8716 41.6524 70.0848 41.7052 70.2612V70.2612C41.7163 70.2983 41.7041 70.3124 41.6843 70.3456C41.5608 70.5516 41.1615 70.8453 40.4862 71.2266C40.2899 71.3374 40.1198 71.4458 39.9759 71.5517C39.4459 71.942 39.0742 72.5959 38.5975 73.0497C38.144 73.4814 37.731 73.9475 37.3586 74.448C36.8958 75.0698 37.7445 75.897 38.489 76.1125V76.1125C39.1539 76.3048 38.8102 77.0262 38.3774 77.5662C38.0296 78 37.7369 78.4383 37.659 78.5568C37.645 78.5782 37.6322 78.599 37.6192 78.621C37.6039 78.6469 37.5886 78.6727 37.5733 78.6984C36.6041 80.3298 35.4806 82.0856 34.0611 83.3449C32.8699 84.4018 31.9105 85.3045 31.1827 86.0529V86.0529C30.4797 86.7857 31.208 88.1994 32.2005 87.9839C32.3993 87.9407 32.5089 87.9191 32.5293 87.9191C32.6925 87.9191 32.8965 87.9537 33.1414 88.0228C33.3862 88.0919 33.5902 88.1265 33.7534 88.1265C33.7989 88.1265 33.8507 88.1184 33.9088 88.1024C34.3247 87.9872 34.6685 87.6081 35.1 87.6081V87.6081C35.4264 87.6081 36.0793 87.539 37.0586 87.4007C38.1195 87.2625 38.6908 87.1934 38.7724 87.1934V87.1934C39.348 87.1934 39.5513 88.1126 40.1108 87.9776C40.6004 87.8595 40.9823 87.7585 41.2564 87.6746C41.561 87.5814 41.8766 87.5256 42.1847 87.6068C42.2942 87.6357 42.4217 87.6707 42.5672 87.7118C43.0569 87.85 43.3425 87.9191 43.4241 87.9191C44.1532 87.9191 44.8554 87.8051 45.5306 87.5772C45.8192 87.4797 46.1488 87.5181 46.3563 87.7411C46.3834 87.7702 46.4089 87.7989 46.4331 87.8271C46.6812 88.1178 46.7507 88.3193 46.5678 88.6549V88.6549C46.3047 89.1376 46.5899 90.0666 47.13 89.9644C48.7498 89.6581 49.8464 89.4382 50.4199 89.3048C50.6868 89.2427 51.1219 89.1687 51.3387 89.3364V89.3364C51.3634 89.3555 51.3947 89.3785 51.4221 89.3934C51.6487 89.5165 51.8391 89.578 51.9931 89.578C52.1563 89.578 52.5235 89.4052 53.0948 89.0596C53.6661 88.7831 54.0333 88.6449 54.1966 88.6449C54.3597 88.6449 54.5229 88.714 54.6862 88.8522C54.8494 88.9905 55.0126 89.0596 55.1759 89.0596C55.3858 89.0596 55.896 88.8562 56.7063 88.4494C56.9289 88.3377 57.1757 88.3408 57.1904 88.5894V88.5894C57.2106 88.9292 57.5784 89.2798 57.861 89.09L59.4069 88.0516C60.0631 87.6108 60.9532 87.8929 61.2873 88.6093C61.5539 89.1809 61.8083 89.6488 62.0504 90.0131C62.381 90.5102 63.0383 90.5901 63.5298 90.929C63.7547 91.0841 63.8672 91.325 63.8672 91.6516V91.6516C63.867 92.358 63.1005 92.8786 63.0133 93.5796C63.0113 93.5952 63.0103 93.6092 63.0103 93.6215C63.0103 93.674 63.0573 93.7464 63.1515 93.8388C63.2179 93.9039 63.3568 93.9897 63.4338 94.0418V94.0418C63.6263 94.172 63.5617 94.3496 63.4852 94.569C63.39 94.8421 63.3243 95.1569 63.2882 95.5134C63.246 95.9304 63.8669 96.1055 63.8672 96.5246V96.5246V96.5246C63.8671 98.3555 65.4356 100.019 67.0022 99.0715L70.0817 97.2085C70.2413 97.1119 70.4466 97.1398 70.5747 97.2754V97.2754C70.7242 97.4337 70.9734 97.4416 71.1327 97.2932L72.8459 95.6971C73.1373 95.4256 73.5036 95.2474 73.8975 95.1886C73.9837 95.1757 74.0635 95.1639 74.137 95.1532C74.5346 95.0952 75.0126 94.8021 75.2768 94.4994V94.4994C75.7535 93.9534 76.4558 93.9035 77.1252 94.1815C77.1419 94.1885 77.1584 94.1952 77.1745 94.2017C77.5027 94.3341 77.8494 94.2225 78.0903 93.9632C78.4186 93.6098 78.8598 93.0812 79.4138 92.3774C80.1192 91.4811 80.7942 90.6881 81.4387 89.9985C81.6066 89.8189 81.8855 89.8053 82.0731 89.9641V89.9641C82.3764 90.221 82.8738 90.0048 82.9632 89.6176C83.0973 89.036 83.3424 88.4007 83.6983 87.7118C83.7664 87.5964 83.831 87.4836 83.892 87.3734C84.4384 86.387 85.8449 85.6503 86.8552 86.1512C87.5317 86.4865 88.1163 86.7941 88.609 87.0739C88.9252 87.2534 89.3815 87.0317 89.4517 86.675V86.675C89.5333 86.2602 89.6149 85.9146 89.6965 85.6382C89.7781 85.3617 89.9413 85.0506 90.1862 84.705V84.705C90.5758 84.1549 90.9747 83.5198 90.9326 82.8471C90.9246 82.7204 90.9207 82.614 90.9207 82.5277C90.9206 82.3159 90.936 82.1041 90.9666 81.8923C91.0009 81.6553 91.2123 81.4909 91.4518 81.4909V81.4909C91.8308 81.4909 92.1105 81.0809 92.0642 80.7047C92.0363 80.478 92.0224 80.2216 92.0224 79.9357C92.0223 79.7975 92.0223 79.5901 92.0224 79.3136C92.0223 78.9681 92.0223 78.7261 92.0224 78.5879C92.0224 77.3965 91.8102 76.3849 91.386 75.5528C91.2701 75.3256 91.2037 75.1003 91.4505 75.036V75.036C91.7834 74.9491 92.1636 74.6255 92.0587 74.2978C91.733 73.2816 91.4353 72.4306 91.1655 71.745C90.9206 70.8464 90.6758 70.1552 90.431 69.6714C90.1861 69.1875 89.9005 68.8074 89.5741 68.5309C89.4661 68.4394 89.3669 68.3592 89.2768 68.2904C89.0031 68.0816 88.682 68.0249 88.3387 68.0501C88.2833 68.0541 88.222 68.0533 88.1536 68.0441C88.0525 68.0305 87.9576 67.9891 87.8667 67.9426V67.9426C86.7423 67.3671 86.7417 65.7541 87.8608 65.1683C88.5009 64.8332 89.1944 64.468 89.9414 64.0726C91.8999 62.9667 93.5729 62.0681 94.9603 61.3769C96.1125 60.8029 97.2365 60.3004 98.3324 59.8694C98.7322 59.7121 99 59.3292 99 58.8997V58.8997C99 58.1342 98.1892 57.6394 97.5053 57.9832C87.9149 62.8031 82.5373 65.2131 81.3724 65.2131V65.2131C81.0667 65.2132 81.0702 64.7263 81.1753 64.4392C82.286 61.4071 82.8413 59.6605 82.8414 59.1996Z" stroke="#22A622" style="stroke:#22A622;stroke:color(display-p3 0.1327 0.6500 0.1327);stroke-opacity:1;" stroke-width="3" stroke-linecap="round" stroke-linejoin="round"/>
</svg>
