<svg width="128" height="128" viewBox="0 0 128 128" fill="none" xmlns="http://www.w3.org/2000/svg">
<path d="M116.46 4.13989H12.46C8.03996 4.13989 4.45996 7.71989 4.45996 12.1399V116.14C4.45996 120.56 8.03996 124.14 12.46 124.14H116.46C120.88 124.14 124.46 120.56 124.46 116.14V12.1399C124.46 7.71989 120.88 4.13989 116.46 4.13989Z" fill="#427687" style="fill:#427687;fill:color(display-p3 0.2588 0.4627 0.5294);fill-opacity:1;"/>
<path d="M110.16 4.13989H11.96C7.82998 4.16989 4.48998 7.50989 4.45998 11.6399V109.54C4.44998 113.68 7.79998 117.03 11.94 117.04C11.95 117.04 11.95 117.04 11.96 117.04H110.06C114.2 117.05 117.55 113.7 117.56 109.56C117.56 109.55 117.56 109.55 117.56 109.54V11.6399C117.65 7.58989 114.43 4.22989 110.38 4.13989C110.31 4.13989 110.23 4.13989 110.16 4.13989Z" fill="#8CAFBF" style="fill:#8CAFBF;fill:color(display-p3 0.5490 0.6863 0.7490);fill-opacity:1;"/>
<path opacity="0.75" d="M40.1596 13.04C40.1596 10.74 38.5596 10.04 29.3596 10.34C21.6596 10.64 17.8596 11.54 15.5596 14.34C13.2596 17.14 12.6596 22.84 12.5596 29.64C12.5596 34.44 12.5596 38.94 15.0596 38.94C18.4596 38.94 18.4596 31.04 21.2596 26.64C26.6596 17.94 40.1596 16.04 40.1596 13.04Z" fill="#A0C8D6" style="fill:#A0C8D6;fill:color(display-p3 0.6275 0.7843 0.8392);fill-opacity:1;"/>
<path d="M107.46 62.1401L67.56 36.4401C66.58 35.8601 65.32 36.1801 64.74 37.1601C64.51 37.5501 64.41 38.0001 64.46 38.4401V60.7401L27.46 36.4401C26.06 35.5401 24.46 36.6401 24.46 38.4401V89.8401C24.46 91.6401 26.16 92.7401 27.46 91.8401L64.46 67.4401V89.7401C64.33 90.8701 65.15 91.8901 66.28 92.0201C66.73 92.0701 67.18 91.9701 67.56 91.7401L107.46 66.1401C108.56 65.3801 108.84 63.8601 108.08 62.7601C107.91 62.5101 107.7 62.3001 107.46 62.1401Z" fill="#FAFAFA" style="fill:#FAFAFA;fill:color(display-p3 0.9804 0.9804 0.9804);fill-opacity:1;"/>
<path opacity="0.2" d="M107.36 66.1401L67.5604 91.8401C67.2104 92.0801 66.7804 92.1801 66.3604 92.1401C66.2204 92.1501 66.0804 92.1201 65.9604 92.0401C65.8604 92.0401 65.7604 91.9401 65.5604 91.8401C65.3204 91.7301 65.1104 91.5601 64.9604 91.3401C64.8404 91.2401 64.7604 91.1001 64.7604 90.9401C64.5604 90.6101 64.4504 90.2301 64.4604 89.8401V67.4401L61.4604 69.4401L27.4604 91.8401C27.1104 92.0801 26.6804 92.1801 26.2604 92.1401C26.1204 92.1501 25.9804 92.1201 25.8604 92.0401C25.7604 92.0401 25.6604 91.9401 25.4604 91.8401C24.7604 91.3801 24.3404 90.5801 24.3604 89.7401V38.4401C24.2804 37.4401 24.9004 36.5301 25.8604 36.2401C25.9604 36.2401 26.0604 36.1401 26.2604 36.1401C26.6804 36.1001 27.1104 36.2001 27.4604 36.4401L61.4604 58.8401L64.4604 60.8401V38.4401C64.4604 38.0201 64.5704 37.6101 64.7604 37.2401C64.8604 37.1401 64.8604 37.0401 64.9604 36.8401C65.1304 36.6401 65.3404 36.4801 65.5604 36.3401C65.6604 36.2401 65.7604 36.2401 65.9604 36.1401C66.1604 36.0401 66.2604 36.0401 66.3604 36.0401C66.7804 36.0001 67.2104 36.1001 67.5604 36.3401L107.36 62.1401C108.46 62.9001 108.74 64.4201 107.98 65.5201C107.81 65.7601 107.6 65.9701 107.36 66.1401Z" fill="white" style="fill:white;fill-opacity:1;"/>
</svg>
