<svg width="128" height="128" viewBox="0 0 128 128" fill="none" xmlns="http://www.w3.org/2000/svg">
<path d="M103.13 102.43C83.3999 122.16 49.7399 131.07 22.5899 103.91C-4.56006 76.75 4.33994 43.1 24.0699 23.37C34.9999 12.41 48.7499 5.90999 62.8199 4.99999C78.1699 4.07999 92.6599 9.94999 104.61 21.9C116.56 33.85 122.36 48.27 121.44 63.62C120.52 77.68 114 91.54 103.13 102.43Z" fill="url(#paint0_radial_169_12190)" style=""/>
<path d="M103.13 102.43C83.3999 122.16 49.7399 131.07 22.5899 103.91C-4.56006 76.75 4.33994 43.1 24.0699 23.37C34.9999 12.41 48.7499 5.90999 62.8199 4.99999C78.1699 4.07999 92.6599 9.94999 104.61 21.9C116.56 33.85 122.36 48.27 121.44 63.62C120.52 77.68 114 91.54 103.13 102.43Z" fill="url(#paint1_radial_169_12190)" style=""/>
<path d="M103.13 102.43C83.3999 122.16 49.7399 131.07 22.5899 103.91C-4.56006 76.75 4.33994 43.1 24.0699 23.37C34.9999 12.41 48.7499 5.90999 62.8199 4.99999C78.1699 4.07999 92.6599 9.94999 104.61 21.9C116.56 33.85 122.36 48.27 121.44 63.62C120.52 77.68 114 91.54 103.13 102.43Z" fill="url(#paint2_radial_169_12190)" style=""/>
<path d="M103.13 102.43C83.3999 122.16 49.7399 131.07 22.5899 103.91C-4.56006 76.75 4.33994 43.1 24.0699 23.37C34.9999 12.41 48.7499 5.90999 62.8199 4.99999C78.1699 4.07999 92.6599 9.94999 104.61 21.9C116.56 33.85 122.36 48.27 121.44 63.62C120.52 77.68 114 91.54 103.13 102.43Z" fill="url(#paint3_radial_169_12190)" style=""/>
<path d="M103.13 102.43C83.3999 122.16 49.7399 131.07 22.5899 103.91C-4.56006 76.75 4.33994 43.1 24.0699 23.37C34.9999 12.41 48.7499 5.90999 62.8199 4.99999C78.1699 4.07999 92.6599 9.94999 104.61 21.9C116.56 33.85 122.36 48.27 121.44 63.62C120.52 77.68 114 91.54 103.13 102.43Z" fill="url(#paint4_radial_169_12190)" style=""/>
<path d="M73.9998 5.53999C83.8398 7.84999 92.9998 13.13 101.11 21.18C113.11 33.18 118.86 47.56 117.94 62.9C117 77 110.48 90.83 99.5898 101.72C86.8198 114.49 68.2098 122.72 49.2998 119.57C69.3998 124.45 89.5598 116 103.13 102.43C114 91.54 120.52 77.68 121.44 63.61C122.36 48.26 116.56 33.84 104.61 21.89C95.5998 12.88 85.1398 7.32999 73.9998 5.53999Z" fill="#EB8F00" style="fill:#EB8F00;fill:color(display-p3 0.9216 0.5608 0.0000);fill-opacity:1;"/>
<path d="M73.9998 5.53999C83.8398 7.84999 92.9998 13.13 101.11 21.18C113.11 33.18 118.86 47.56 117.94 62.9C117 77 110.48 90.83 99.5898 101.72C86.8198 114.49 68.2098 122.72 49.2998 119.57C69.3998 124.45 89.5598 116 103.13 102.43C114 91.54 120.52 77.68 121.44 63.61C122.36 48.26 116.56 33.84 104.61 21.89C95.5998 12.88 85.1398 7.32999 73.9998 5.53999Z" fill="#F3B872" style="fill:#F3B872;fill:color(display-p3 0.9542 0.7229 0.4453);fill-opacity:1;"/>
<path d="M73.9998 5.53999C83.8398 7.84999 92.9998 13.13 101.11 21.18C113.11 33.18 118.86 47.56 117.94 62.9C117 77 110.48 90.83 99.5898 101.72C86.8198 114.49 68.2098 122.72 49.2998 119.57C69.3998 124.45 89.5598 116 103.13 102.43C114 91.54 120.52 77.68 121.44 63.61C122.36 48.26 116.56 33.84 104.61 21.89C95.5998 12.88 85.1398 7.32999 73.9998 5.53999Z" fill="#91674D" style="fill:#91674D;fill:color(display-p3 0.5686 0.4039 0.3020);fill-opacity:1;"/>
<path d="M96.71 39.56C93.94 38.76 91 40.13 89.83 42.77C84.68 52.14 78.21 60.71 70.62 68.24C63.1 75.83 54.52 82.3 45.15 87.44C42.52 88.62 41.16 91.55 41.94 94.32C42.76 97.07 45.51 98.42 48.1 99.39C62.61 104.82 78.58 100.78 90.85 88.58L90.97 88.47C103.16 76.2 107.2 60.23 101.77 45.71C100.81 43.13 99.45 40.37 96.71 39.56Z" fill="#49362E" style="fill:#49362E;fill:color(display-p3 0.2863 0.2118 0.1804);fill-opacity:1;"/>
<path d="M96.71 39.56C93.94 38.76 91 40.13 89.83 42.77C84.68 52.14 78.21 60.71 70.62 68.24C63.1 75.83 54.52 82.3 45.15 87.44C42.52 88.62 41.16 91.55 41.94 94.32C42.76 97.07 45.51 98.42 48.1 99.39C62.61 104.82 78.58 100.78 90.85 88.58L90.97 88.47C103.16 76.2 107.2 60.23 101.77 45.71C100.81 43.13 99.45 40.37 96.71 39.56Z" fill="#1A1717" style="fill:#1A1717;fill:color(display-p3 0.1020 0.0902 0.0902);fill-opacity:1;"/>
<path d="M96.71 39.56C93.94 38.76 91 40.13 89.83 42.77C84.68 52.14 78.21 60.71 70.62 68.24C63.1 75.83 54.52 82.3 45.15 87.44C42.52 88.62 41.16 91.55 41.94 94.32C42.76 97.07 45.51 98.42 48.1 99.39C62.61 104.82 78.58 100.78 90.85 88.58L90.97 88.47C103.16 76.2 107.2 60.23 101.77 45.71C100.81 43.13 99.45 40.37 96.71 39.56Z" fill="#5D4037" style="fill:#5D4037;fill:color(display-p3 0.3647 0.2510 0.2157);fill-opacity:1;"/>
<path d="M90.08 87.58L90.02 87.64V87.7L90.08 87.58Z" fill="#49362E" style="fill:#49362E;fill:color(display-p3 0.2863 0.2118 0.1804);fill-opacity:1;"/>
<path d="M71.6099 69L71.4999 69.1L71.3999 69.21L71.6099 69Z" fill="#49362E" style="fill:#49362E;fill:color(display-p3 0.2863 0.2118 0.1804);fill-opacity:1;"/>
<path d="M71.6099 69L71.4999 69.1L71.3999 69.21L71.6099 69Z" fill="#49362E" style="fill:#49362E;fill:color(display-p3 0.2863 0.2118 0.1804);fill-opacity:1;"/>
<path d="M90.08 87.58L90.02 87.64V87.7L90.08 87.58Z" fill="#49362E" style="fill:#49362E;fill:color(display-p3 0.2863 0.2118 0.1804);fill-opacity:1;"/>
<path d="M99.3997 74.38C98.8897 74.38 98.3997 74.45 97.9197 74.49C92.4897 74.84 87.3897 77.21 83.6197 81.13C79.5797 85.01 77.0197 90.19 76.3797 95.76C76.3197 96.25 76.2597 96.76 76.2297 97.24C76.1997 97.72 76.3097 98.12 76.3697 98.52C81.7797 96.14 86.6897 92.77 90.8497 88.58L90.9697 88.47C94.9797 84.48 98.2397 79.8 100.59 74.66C100.2 74.54 99.7997 74.45 99.3997 74.38Z" fill="#ED7770" style="fill:#ED7770;fill:color(display-p3 0.9294 0.4667 0.4392);fill-opacity:1;"/>
<path d="M89.83 42.77C84.68 52.14 78.21 60.71 70.62 68.24C63.1 75.83 54.52 82.3 45.15 87.44C42.52 88.62 41.16 91.55 41.94 94.32C42.07 94.73 42.24 95.12 42.46 95.49C42.87 95.35 43.26 95.19 43.65 95C56.42 90.76 68 83.54 77.41 73.92C86.64 64.89 93.68 53.88 98 41.71C98.17 41.3 98.32 40.88 98.45 40.45C97.93 40.05 97.34 39.74 96.71 39.56C93.94 38.76 91 40.13 89.83 42.77Z" fill="white" style="fill:white;fill-opacity:1;"/>
<path d="M71.3998 69.74C77.2698 64.06 81.1098 58.48 85.7298 51.68C86.8798 49.98 87.9698 48.24 89.0198 46.45L89.7798 45.1C89.9798 44.75 90.1998 44.41 90.4598 44.1C90.9198 43.53 91.5098 43.09 92.1898 42.81C93.7698 42.23 95.4998 42.2 97.0998 42.73C100.35 44.29 103.18 49.85 102.82 48.81C102.82 48.81 102.23 46.48 102.21 46.45C101.41 44.45 100.59 42.19 98.5198 40.45C96.2998 38.76 93.3398 38.42 90.7998 39.57C89.6098 40.11 88.5798 40.94 87.7998 41.98C87.4198 42.46 87.0798 42.98 86.7998 43.53L86.1298 44.85C85.1998 46.6 84.2098 48.33 83.1298 50.02C79.2898 56.43 74.7598 62.4 69.6198 67.82L69.4598 67.98C64.1498 73.06 58.2998 77.53 51.9998 81.31C50.2998 82.31 48.5798 83.31 46.8298 84.31L45.4698 85C44.9198 85.28 44.3998 85.61 43.9198 86C42.8698 86.78 42.0398 87.81 41.4998 89C40.4298 91.52 40.8098 94.43 42.4998 96.59C45.1898 100.1 51.3298 100.59 51.3598 100.59C52.3598 100.95 46.2998 98.37 44.7398 95.12C44.1898 93.58 44.1898 91.89 44.7398 90.35C44.9998 89.65 45.4298 89.03 45.9998 88.55C46.3098 88.29 46.6498 88.07 46.9998 87.88L48.3498 87.12C50.1298 86.12 51.8698 84.97 53.5798 83.82C60.3698 79.2 65.5798 75.82 71.2298 69.9" fill="#EB8F00" style="fill:#EB8F00;fill:color(display-p3 0.9216 0.5608 0.0000);fill-opacity:1;"/>
<path d="M71.3998 69.74C77.2698 64.06 81.1098 58.48 85.7298 51.68C86.8798 49.98 87.9698 48.24 89.0198 46.45L89.7798 45.1C89.9798 44.75 90.1998 44.41 90.4598 44.1C90.9198 43.53 91.5098 43.09 92.1898 42.81C93.7698 42.23 95.4998 42.2 97.0998 42.73C100.35 44.29 103.18 49.85 102.82 48.81C102.82 48.81 102.23 46.48 102.21 46.45C101.41 44.45 100.59 42.19 98.5198 40.45C96.2998 38.76 93.3398 38.42 90.7998 39.57C89.6098 40.11 88.5798 40.94 87.7998 41.98C87.4198 42.46 87.0798 42.98 86.7998 43.53L86.1298 44.85C85.1998 46.6 84.2098 48.33 83.1298 50.02C79.2898 56.43 74.7598 62.4 69.6198 67.82L69.4598 67.98C64.1498 73.06 58.2998 77.53 51.9998 81.31C50.2998 82.31 48.5798 83.31 46.8298 84.31L45.4698 85C44.9198 85.28 44.3998 85.61 43.9198 86C42.8698 86.78 42.0398 87.81 41.4998 89C40.4298 91.52 40.8098 94.43 42.4998 96.59C45.1898 100.1 51.3298 100.59 51.3598 100.59C52.3598 100.95 46.2998 98.37 44.7398 95.12C44.1898 93.58 44.1898 91.89 44.7398 90.35C44.9998 89.65 45.4298 89.03 45.9998 88.55C46.3098 88.29 46.6498 88.07 46.9998 87.88L48.3498 87.12C50.1298 86.12 51.8698 84.97 53.5798 83.82C60.3698 79.2 65.5798 75.82 71.2298 69.9" fill="#F3B872" style="fill:#F3B872;fill:color(display-p3 0.9542 0.7229 0.4453);fill-opacity:1;"/>
<path d="M71.3998 69.74C77.2698 64.06 81.1098 58.48 85.7298 51.68C86.8798 49.98 87.9698 48.24 89.0198 46.45L89.7798 45.1C89.9798 44.75 90.1998 44.41 90.4598 44.1C90.9198 43.53 91.5098 43.09 92.1898 42.81C93.7698 42.23 95.4998 42.2 97.0998 42.73C100.35 44.29 103.18 49.85 102.82 48.81C102.82 48.81 102.23 46.48 102.21 46.45C101.41 44.45 100.59 42.19 98.5198 40.45C96.2998 38.76 93.3398 38.42 90.7998 39.57C89.6098 40.11 88.5798 40.94 87.7998 41.98C87.4198 42.46 87.0798 42.98 86.7998 43.53L86.1298 44.85C85.1998 46.6 84.2098 48.33 83.1298 50.02C79.2898 56.43 74.7598 62.4 69.6198 67.82L69.4598 67.98C64.1498 73.06 58.2998 77.53 51.9998 81.31C50.2998 82.31 48.5798 83.31 46.8298 84.31L45.4698 85C44.9198 85.28 44.3998 85.61 43.9198 86C42.8698 86.78 42.0398 87.81 41.4998 89C40.4298 91.52 40.8098 94.43 42.4998 96.59C45.1898 100.1 51.3298 100.59 51.3598 100.59C52.3598 100.95 46.2998 98.37 44.7398 95.12C44.1898 93.58 44.1898 91.89 44.7398 90.35C44.9998 89.65 45.4298 89.03 45.9998 88.55C46.3098 88.29 46.6498 88.07 46.9998 87.88L48.3498 87.12C50.1298 86.12 51.8698 84.97 53.5798 83.82C60.3698 79.2 65.5798 75.82 71.2298 69.9" fill="#91674D" style="fill:#91674D;fill:color(display-p3 0.5686 0.4039 0.3020);fill-opacity:1;"/>
<path d="M115.13 31.34C116.33 38.98 109.31 46.22 102.94 47.08C98.4598 47.68 93.4598 46.65 85.9398 44.78C84.8298 44.57 83.6998 44.24 82.4598 43.93C77.8798 42.66 73.3798 41.13 68.9698 39.35C68.0998 39.03 67.6197 38.11 67.8397 37.22C67.9697 36.84 68.2297 36.51 68.5597 36.29C71.9297 32.83 75.7298 29.81 79.8498 27.29C90.2598 20.85 94.2197 19.98 98.6997 19.38C104.88 18.37 113.83 23 115.13 31.34Z" fill="url(#paint5_radial_169_12190)" style=""/>
<path d="M105.52 24.19C108.43 25.57 108.45 29.56 104.01 30.19C101.16 30.57 86.4897 31.95 88.1997 29.24C90.9997 24.79 101.41 22.24 105.52 24.19Z" fill="#81D4FA" style="fill:#81D4FA;fill:color(display-p3 0.5059 0.8314 0.9804);fill-opacity:1;"/>
<path d="M72.6501 31.1L63.4201 39.38L66.8401 26.23C66.8701 26.07 66.9001 25.92 66.9101 25.76C67.2901 23.48 65.7401 21.32 63.4601 20.95C62.9201 20.86 62.3601 20.88 61.8201 21C59.3901 21.67 57.6301 23.79 57.4301 26.3C56.8601 32.11 55.5201 45.8 55.0001 51.13C54.8401 51.66 55.1401 52.22 55.6701 52.38C56.0201 52.49 56.4001 52.39 56.6601 52.13L77.3501 39.05L77.7601 38.76C80.2601 36.84 80.8701 33.18 78.8501 31.06C77.3101 29.44 74.6501 29.57 72.6501 31.1Z" fill="#49362E" style="fill:#49362E;fill:color(display-p3 0.2863 0.2118 0.1804);fill-opacity:1;"/>
<path d="M72.6501 31.1L63.4201 39.38L66.8401 26.23C66.8701 26.07 66.9001 25.92 66.9101 25.76C67.2901 23.48 65.7401 21.32 63.4601 20.95C62.9201 20.86 62.3601 20.88 61.8201 21C59.3901 21.67 57.6301 23.79 57.4301 26.3C56.8601 32.11 55.5201 45.8 55.0001 51.13C54.8401 51.66 55.1401 52.22 55.6701 52.38C56.0201 52.49 56.4001 52.39 56.6601 52.13L77.3501 39.05L77.7601 38.76C80.2601 36.84 80.8701 33.18 78.8501 31.06C77.3101 29.44 74.6501 29.57 72.6501 31.1Z" fill="#1A1717" style="fill:#1A1717;fill:color(display-p3 0.1020 0.0902 0.0902);fill-opacity:1;"/>
<path d="M72.6501 31.1L63.4201 39.38L66.8401 26.23C66.8701 26.07 66.9001 25.92 66.9101 25.76C67.2901 23.48 65.7401 21.32 63.4601 20.95C62.9201 20.86 62.3601 20.88 61.8201 21C59.3901 21.67 57.6301 23.79 57.4301 26.3C56.8601 32.11 55.5201 45.8 55.0001 51.13C54.8401 51.66 55.1401 52.22 55.6701 52.38C56.0201 52.49 56.4001 52.39 56.6601 52.13L77.3501 39.05L77.7601 38.76C80.2601 36.84 80.8701 33.18 78.8501 31.06C77.3101 29.44 74.6501 29.57 72.6501 31.1Z" fill="#49362E" style="fill:#49362E;fill:color(display-p3 0.2863 0.2118 0.1804);fill-opacity:1;"/>
<path d="M25.8997 104C25.5397 99.69 25.5297 95.81 29.4197 84.74C30.9397 80.36 32.9997 76.19 35.5497 72.32C35.6897 71.96 35.9497 71.66 36.2797 71.46C37.0697 71.06 38.0297 71.33 38.5097 72.07C41.0797 75.83 43.4297 79.73 45.5697 83.75C46.1097 84.85 46.6497 85.83 47.0797 86.83C50.3797 93.52 52.3697 97.99 52.7297 102.3C53.2397 108.43 47.9097 116.49 40.5197 116.95C32.4697 117.41 26.2797 110 25.8997 104Z" fill="url(#paint6_radial_169_12190)" style=""/>
<path d="M32.9999 92.17C35.1699 90 36.8999 104 37.1299 106.75C37.4799 111.03 33.7399 111.83 31.8599 109.4C29.1799 106 29.4299 95.69 32.9999 92.17Z" fill="#81D4FA" style="fill:#81D4FA;fill:color(display-p3 0.5059 0.8314 0.9804);fill-opacity:1;"/>
<path d="M30.1699 78.76L36.8299 68.29L24.4199 73.83L23.9999 74C21.8099 74.74 19.4299 73.57 18.6799 71.38C18.4999 70.86 18.4299 70.31 18.4699 69.76C18.7299 67.25 20.5299 65.17 22.9799 64.56L46.9999 58.05C47.4999 57.81 48.0999 58.02 48.3399 58.52C48.4999 58.85 48.4699 59.24 48.2499 59.53L38.7799 82.08C38.7199 82.24 38.6499 82.39 38.5699 82.54C37.0899 85.32 33.5699 86.54 31.1499 84.88C29.2999 83.62 28.9999 81 30.1699 78.76Z" fill="#49362E" style="fill:#49362E;fill:color(display-p3 0.2863 0.2118 0.1804);fill-opacity:1;"/>
<path d="M30.1699 78.76L36.8299 68.29L24.4199 73.83L23.9999 74C21.8099 74.74 19.4299 73.57 18.6799 71.38C18.4999 70.86 18.4299 70.31 18.4699 69.76C18.7299 67.25 20.5299 65.17 22.9799 64.56L46.9999 58.05C47.4999 57.81 48.0999 58.02 48.3399 58.52C48.4999 58.85 48.4699 59.24 48.2499 59.53L38.7799 82.08C38.7199 82.24 38.6499 82.39 38.5699 82.54C37.0899 85.32 33.5699 86.54 31.1499 84.88C29.2999 83.62 28.9999 81 30.1699 78.76Z" fill="#1A1717" style="fill:#1A1717;fill:color(display-p3 0.1020 0.0902 0.0902);fill-opacity:1;"/>
<path d="M30.1699 78.76L36.8299 68.29L24.4199 73.83L23.9999 74C21.8099 74.74 19.4299 73.57 18.6799 71.38C18.4999 70.86 18.4299 70.31 18.4699 69.76C18.7299 67.25 20.5299 65.17 22.9799 64.56L46.9999 58.05C47.4999 57.81 48.0999 58.02 48.3399 58.52C48.4999 58.85 48.4699 59.24 48.2499 59.53L38.7799 82.08C38.7199 82.24 38.6499 82.39 38.5699 82.54C37.0899 85.32 33.5699 86.54 31.1499 84.88C29.2999 83.62 28.9999 81 30.1699 78.76Z" fill="#49362E" style="fill:#49362E;fill:color(display-p3 0.2863 0.2118 0.1804);fill-opacity:1;"/>
<defs>
<radialGradient id="paint0_radial_169_12190" cx="0" cy="0" r="1" gradientUnits="userSpaceOnUse" gradientTransform="translate(62.1249 61.053) rotate(-45) scale(57.1931)">
<stop offset="0.5" stop-color="#FDE030" style="stop-color:#FDE030;stop-color:color(display-p3 0.9922 0.8784 0.1882);stop-opacity:1;"/>
<stop offset="0.92" stop-color="#F7C02B" style="stop-color:#F7C02B;stop-color:color(display-p3 0.9686 0.7529 0.1686);stop-opacity:1;"/>
<stop offset="1" stop-color="#F4A223" style="stop-color:#F4A223;stop-color:color(display-p3 0.9569 0.6353 0.1373);stop-opacity:1;"/>
</radialGradient>
<radialGradient id="paint1_radial_169_12190" cx="0" cy="0" r="1" gradientUnits="userSpaceOnUse" gradientTransform="translate(38.5365 33.4931) rotate(-44.2792) scale(103.862 103.829)">
<stop offset="0.3533" stop-color="#F9DDBD" style="stop-color:#F9DDBD;stop-color:color(display-p3 0.9765 0.8667 0.7412);stop-opacity:1;"/>
<stop offset="0.8723" stop-color="#FFD29C" style="stop-color:#FFD29C;stop-color:color(display-p3 1.0000 0.8235 0.6118);stop-opacity:1;"/>
</radialGradient>
<radialGradient id="paint2_radial_169_12190" cx="0" cy="0" r="1" gradientUnits="userSpaceOnUse" gradientTransform="translate(38.5365 33.4931) rotate(-44.2792) scale(103.862 103.829)">
<stop offset="0.3533" stop-color="#70534A" style="stop-color:#70534A;stop-color:color(display-p3 0.4392 0.3255 0.2902);stop-opacity:1;"/>
<stop offset="0.8723" stop-color="#5C4037" style="stop-color:#5C4037;stop-color:color(display-p3 0.3608 0.2510 0.2157);stop-opacity:1;"/>
</radialGradient>
<radialGradient id="paint3_radial_169_12190" cx="0" cy="0" r="1" gradientUnits="userSpaceOnUse" gradientTransform="translate(38.5365 33.4931) rotate(-44.2792) scale(103.862 103.829)">
<stop offset="0.3533" stop-color="#A37A58" style="stop-color:#A37A58;stop-color:color(display-p3 0.6375 0.4772 0.3453);stop-opacity:1;"/>
<stop offset="0.8723" stop-color="#8D5738" style="stop-color:#8D5738;stop-color:color(display-p3 0.5529 0.3412 0.2196);stop-opacity:1;"/>
</radialGradient>
<radialGradient id="paint4_radial_169_12190" cx="0" cy="0" r="1" gradientUnits="userSpaceOnUse" gradientTransform="translate(38.5365 33.4931) rotate(-44.2792) scale(103.862 103.829)">
<stop offset="0.3533" stop-color="#AD8264" style="stop-color:#AD8264;stop-color:color(display-p3 0.6784 0.5098 0.3922);stop-opacity:1;"/>
<stop offset="0.8723" stop-color="#A47B62" style="stop-color:#A47B62;stop-color:color(display-p3 0.6431 0.4824 0.3843);stop-opacity:1;"/>
</radialGradient>
<radialGradient id="paint5_radial_169_12190" cx="0" cy="0" r="1" gradientUnits="userSpaceOnUse" gradientTransform="translate(77.4845 30.5037) rotate(-97.4809) scale(31.5526 48.8005)">
<stop offset="0.46" stop-color="#29B6F6" style="stop-color:#29B6F6;stop-color:color(display-p3 0.1608 0.7137 0.9647);stop-opacity:1;"/>
<stop offset="1" stop-color="#1E88E5" style="stop-color:#1E88E5;stop-color:color(display-p3 0.1176 0.5333 0.8980);stop-opacity:1;"/>
</radialGradient>
<radialGradient id="paint6_radial_169_12190" cx="0" cy="0" r="1" gradientUnits="userSpaceOnUse" gradientTransform="translate(39.4416 73.6934) rotate(175.426) scale(30.3567 46.4641)">
<stop offset="0.46" stop-color="#29B6F6" style="stop-color:#29B6F6;stop-color:color(display-p3 0.1608 0.7137 0.9647);stop-opacity:1;"/>
<stop offset="1" stop-color="#1E88E5" style="stop-color:#1E88E5;stop-color:color(display-p3 0.1176 0.5333 0.8980);stop-opacity:1;"/>
</radialGradient>
</defs>
</svg>
