<svg width="128" height="128" viewBox="0 0 128 128" fill="none" xmlns="http://www.w3.org/2000/svg">
<path d="M116.46 3.95996H12.46C8.03996 3.95996 4.45996 7.53996 4.45996 11.96V115.96C4.45996 120.38 8.03996 123.96 12.46 123.96H116.46C120.88 123.96 124.46 120.38 124.46 115.96V11.96C124.46 7.53996 120.88 3.95996 116.46 3.95996Z" fill="#427687" style="fill:#427687;fill:color(display-p3 0.2588 0.4627 0.5294);fill-opacity:1;"/>
<path d="M110.16 3.95996H11.96C7.82998 3.98996 4.48998 7.32996 4.45998 11.46V109.36C4.44998 113.5 7.79998 116.85 11.94 116.86C11.95 116.86 11.95 116.86 11.96 116.86H110.06C114.2 116.87 117.55 113.52 117.56 109.38C117.56 109.37 117.56 109.37 117.56 109.36V11.46C117.65 7.40996 114.43 4.04996 110.38 3.95996C110.31 3.95996 110.23 3.95996 110.16 3.95996Z" fill="#8CAFBF" style="fill:#8CAFBF;fill:color(display-p3 0.5490 0.6863 0.7490);fill-opacity:1;"/>
<path opacity="0.75" d="M40.1596 12.8598C40.1596 10.5598 38.5596 9.85984 29.3596 10.1598C21.6596 10.4598 17.8596 11.3598 15.5596 14.1598C13.2596 16.9598 12.6596 22.6598 12.5596 29.4598C12.5596 34.2598 12.5596 38.7598 15.0596 38.7598C18.4596 38.7598 18.4596 30.8598 21.2596 26.4598C26.6596 17.7598 40.1596 15.8598 40.1596 12.8598Z" fill="#A0C8D6" style="fill:#A0C8D6;fill:color(display-p3 0.6275 0.7843 0.8392);fill-opacity:1;"/>
<path d="M83.7195 62.2101V36.5101C83.7495 35.2601 82.7595 34.2301 81.5095 34.2001C81.0895 34.1901 80.6795 34.3001 80.3195 34.5101L36.8195 60.2101C35.6895 60.9301 35.3495 62.4301 36.0695 63.5601C36.2595 63.8601 36.5195 64.1101 36.8195 64.3101L80.3195 89.9101C81.3995 90.5401 82.7795 90.1801 83.4095 89.1001C83.6195 88.7401 83.7295 88.3301 83.7195 87.9101V62.2101Z" fill="#FAFAFA" style="fill:#FAFAFA;fill:color(display-p3 0.9804 0.9804 0.9804);fill-opacity:1;"/>
</svg>
