<svg width="128" height="129" viewBox="0 0 128 129" fill="none" xmlns="http://www.w3.org/2000/svg">
<path d="M114.11 71.26C112.31 45.28 94.4401 26.8 64.0001 26.8C33.5601 26.8 15.6901 45.28 13.8901 71.26C12.8401 86.4 18.9401 99.27 30.9801 107.47C30.9801 107.47 43.1901 117.35 64.0001 117.61C84.8101 117.35 97.0201 107.47 97.0201 107.47C109.05 99.27 115.16 86.4 114.11 71.26Z" fill="#FFC022" style="fill:#FFC022;fill:color(display-p3 1.0000 0.7529 0.1333);fill-opacity:1;"/>
<path d="M110.47 59.52C119.98 34.69 114.12 15.69 110.76 10.24C109.43 8.08001 106.87 7.48001 104.51 8.22001C98.2901 10.18 81.5001 23.9 74.0801 43.1" fill="#FFC022" style="fill:#FFC022;fill:color(display-p3 1.0000 0.7529 0.1333);fill-opacity:1;"/>
<path d="M92.1603 36.73C90.6203 35.44 90.6603 33.36 91.5603 31.57C93.7203 27.26 98.8903 22.79 100.72 21.34C103.72 18.96 106.04 18.16 106.93 21.99C108.58 29.07 108.45 38.68 106.68 43.98C106.06 45.85 104.14 46.84 102.66 45.55L92.1603 36.73Z" fill="#FFD1D1" style="fill:#FFD1D1;fill:color(display-p3 1.0000 0.8196 0.8196);fill-opacity:1;"/>
<path d="M17.5301 59.52C8.02013 34.69 13.8801 15.69 17.2401 10.24C18.5701 8.08001 21.1301 7.48001 23.4901 8.22001C29.7101 10.18 46.5001 23.9 53.9201 43.1" fill="#FFC022" style="fill:#FFC022;fill:color(display-p3 1.0000 0.7529 0.1333);fill-opacity:1;"/>
<path d="M35.8401 36.73C37.3801 35.44 37.3401 33.36 36.4401 31.57C34.2801 27.26 29.1101 22.79 27.2801 21.34C24.2801 18.96 21.9601 18.16 21.0701 21.99C19.4201 29.07 19.5501 38.68 21.3201 43.98C21.9401 45.85 23.8601 46.84 25.3401 45.55L35.8401 36.73Z" fill="#FFD1D1" style="fill:#FFD1D1;fill:color(display-p3 1.0000 0.8196 0.8196);fill-opacity:1;"/>
<path opacity="0.47" d="M54.1204 45.52C55.2504 46.48 57.5404 46.34 58.8704 44.8C60.4804 42.93 62.1604 36.63 61.1104 26.89C56.4404 27.06 52.0204 27.73 47.9004 28.86C51.2304 34.32 52.0304 43.74 54.1204 45.52Z" fill="#FF7043" style="fill:#FF7043;fill:color(display-p3 1.0000 0.4392 0.2627);fill-opacity:1;"/>
<path opacity="0.47" d="M73.8805 45.52C72.7505 46.48 70.4605 46.34 69.1305 44.8C67.5205 42.93 65.8405 36.63 66.8905 26.89C71.5605 27.06 75.9805 27.73 80.1005 28.86C76.7705 34.32 75.9705 43.74 73.8805 45.52Z" fill="#FF7043" style="fill:#FF7043;fill:color(display-p3 1.0000 0.4392 0.2627);fill-opacity:1;"/>
<path d="M6.09033 67.6L23.0103 75.94" stroke="#9E9E9E" style="stroke:#9E9E9E;stroke:color(display-p3 0.6196 0.6196 0.6196);stroke-opacity:1;" stroke-width="3" stroke-miterlimit="10" stroke-linecap="round"/>
<path d="M3.99023 79.8L22.1402 82.96" stroke="#9E9E9E" style="stroke:#9E9E9E;stroke:color(display-p3 0.6196 0.6196 0.6196);stroke-opacity:1;" stroke-width="3" stroke-miterlimit="10" stroke-linecap="round"/>
<path d="M6.09033 95.94L23.0103 90.17" stroke="#9E9E9E" style="stroke:#9E9E9E;stroke:color(display-p3 0.6196 0.6196 0.6196);stroke-opacity:1;" stroke-width="3" stroke-miterlimit="10" stroke-linecap="round"/>
<path d="M121.91 67.6L104.99 75.94" stroke="#9E9E9E" style="stroke:#9E9E9E;stroke:color(display-p3 0.6196 0.6196 0.6196);stroke-opacity:1;" stroke-width="3" stroke-miterlimit="10" stroke-linecap="round"/>
<path d="M124.01 79.8L105.86 82.96" stroke="#9E9E9E" style="stroke:#9E9E9E;stroke:color(display-p3 0.6196 0.6196 0.6196);stroke-opacity:1;" stroke-width="3" stroke-miterlimit="10" stroke-linecap="round"/>
<path d="M121.91 95.94L104.99 90.17" stroke="#9E9E9E" style="stroke:#9E9E9E;stroke:color(display-p3 0.6196 0.6196 0.6196);stroke-opacity:1;" stroke-width="3" stroke-miterlimit="10" stroke-linecap="round"/>
<path d="M55.9604 77.69C55.9104 74.83 60.0204 73.45 63.9104 73.39C67.8004 73.32 71.9804 74.59 72.0304 77.45C72.0804 80.31 67.1704 84.09 64.0804 84.09C60.9904 84.09 56.0104 80.55 55.9604 77.69Z" fill="black" style="fill:black;fill-opacity:1;"/>
<path d="M71.89 88.85C71.99 88.87 72.09 88.89 72.2 88.91C73.5 89.15 74.7 89.35 75.9 90.01C76.06 90.1 76.24 90.21 76.3 90.4C76.37 90.59 76.3 90.81 76.23 91C75.8 92.03 75 92.8 74.2 93.5C71.04 96.22 67.2 98.28 63.22 98.04C59.78 97.84 56.46 95.83 54.42 92.73C54.32 92.58 54.23 92.42 54.22 92.24C54.21 92.05 54.3 91.87 54.4 91.72C54.99 90.83 55.98 90.43 56.87 89.96C58.42 89.16 59.84 88.05 61.05 86.7C61.61 86.08 62.14 85.4 62.87 85.06C64.16 84.46 64.68 85.53 65.57 86.23C66.57 87.01 67.84 87.65 69.02 87.99C69.98 88.26 70.94 88.64 71.89 88.85Z" fill="#EF7F9D" style="fill:#EF7F9D;fill:color(display-p3 0.9373 0.4980 0.6157);fill-opacity:1;"/>
<path d="M77.1701 89.36C77.1701 89.36 72.7501 98.79 64.2701 98.79C56.1401 98.79 51.3701 89.36 51.3701 89.36" stroke="black" style="stroke:black;stroke-opacity:1;" stroke-width="3.7747" stroke-miterlimit="10"/>
<path d="M40.77 85.37C40.77 85.37 44.81 90.29 52.7 90.29C62.2 90.29 64.63 79.81 64.63 79.81" stroke="black" style="stroke:black;stroke-opacity:1;" stroke-width="4" stroke-miterlimit="10" stroke-linecap="round"/>
<path d="M87.2301 85.37C87.2301 85.37 83.1901 90.29 75.3001 90.29C65.8001 90.29 63.3701 79.81 63.3701 79.81" stroke="black" style="stroke:black;stroke-opacity:1;" stroke-width="4" stroke-miterlimit="10" stroke-linecap="round"/>
<path d="M103.96 43.52C96.5802 41.45 91.1502 47.49 91.1502 47.49C91.1502 47.49 90.5202 40.64 84.2102 38.47C76.6302 35.87 68.6302 40.01 68.1602 50.73C67.6202 62.99 83.7902 79.03 83.7902 79.03C83.7902 79.03 103.87 73.64 110.45 62.19C115.81 52.88 109.55 45.09 103.96 43.52Z" fill="#F44336" style="fill:#F44336;fill:color(display-p3 0.9569 0.2627 0.2118);fill-opacity:1;"/>
<path d="M103.96 43.52C103.96 43.52 102.14 43.03 101.18 43.14C101.18 43.14 105.29 45.68 107.22 50.29C108.5 53.33 108.83 57.28 106.42 62C101.19 72.23 85.0901 78.56 83.8901 79C85.3601 78.59 104.13 73.19 110.45 62.18C115.81 52.88 109.55 45.09 103.96 43.52Z" fill="#C62828" style="fill:#C62828;fill:color(display-p3 0.7765 0.1569 0.1569);fill-opacity:1;"/>
<path d="M91.1401 48.61C91.0901 47.53 90.8901 46.45 90.7301 45.82C89.9501 42.66 88.5901 40.95 86.2601 39.48C83.9301 38 81.0601 37.72 81.0601 37.72C81.0601 37.72 83.7801 38.54 85.6801 42.28C86.6801 44.24 87.2001 46.43 87.3501 48.63C87.4001 49.42 87.4201 50.25 87.7801 50.96C88.1401 51.67 88.9401 52.24 89.7101 52.02C90.9401 51.67 91.2101 50.13 91.1401 48.61Z" fill="#C62828" style="fill:#C62828;fill:color(display-p3 0.7765 0.1569 0.1569);fill-opacity:1;"/>
<path d="M73.6602 44.3C75.3402 42.21 78.1002 40.22 80.7402 42.06C82.1502 43.04 82.1602 45.82 80.4502 47.07C77.5502 49.19 77.4202 50.59 77.0902 51.75C76.7002 53.15 76.4402 54.81 75.1702 55.52C73.9002 56.23 72.7902 55.48 72.1202 53.51C71.9802 53.1 70.2402 48.56 73.6602 44.3Z" fill="#FF847A" style="fill:#FF847A;fill:color(display-p3 1.0000 0.5176 0.4784);fill-opacity:1;"/>
<path d="M43.8 38.31C36.51 40.68 35.34 48.71 35.34 48.71C35.34 48.71 31.02 43.35 24.57 45.05C16.82 47.09 12.46 54.97 18.01 64.16C24.36 74.67 46.71 79.05 46.71 79.05C46.71 79.05 60.43 63.43 59.56 50.25C58.85 39.53 49.32 36.52 43.8 38.31Z" fill="#F44336" style="fill:#F44336;fill:color(display-p3 0.9569 0.2627 0.2118);fill-opacity:1;"/>
<path d="M43.7998 38.31C43.7998 38.31 42.0098 38.91 41.2798 39.54C41.2798 39.54 46.0998 39.37 50.2698 42.14C53.0198 43.96 55.4798 47.06 56.0898 52.33C57.4098 63.74 47.5198 77.94 46.7598 78.97C47.7498 77.82 60.3798 62.92 59.5498 50.25C58.8498 39.53 49.3198 36.52 43.7998 38.31Z" fill="#C62828" style="fill:#C62828;fill:color(display-p3 0.7765 0.1569 0.1569);fill-opacity:1;"/>
<path d="M35.9598 49.65C35.3198 48.77 34.5498 47.99 34.0698 47.55C31.6698 45.35 29.5898 44.69 26.8398 44.75C24.0798 44.81 21.5298 46.17 21.5298 46.17C21.5298 46.17 24.2498 45.35 27.8998 47.4C29.8198 48.48 31.4598 50.01 32.8098 51.76C33.2998 52.39 33.7698 53.07 34.4598 53.46C35.1498 53.86 36.1298 53.88 36.6498 53.28C37.4798 52.31 36.8498 50.88 35.9598 49.65Z" fill="#C62828" style="fill:#C62828;fill:color(display-p3 0.7765 0.1569 0.1569);fill-opacity:1;"/>
<path d="M19.05 55.76C19.08 55.03 19.21 54.29 19.45 53.54C19.9 52.14 20.84 50.64 22.32 50.18C23.7 49.75 25.61 50.05 26.34 51.43C27 52.65 26.52 54.14 26.16 55.48C25.73 57.1 25.75 58.59 25.62 60.19C25.52 61.46 24.64 62.6 23.3 62.56C22.07 62.52 21.12 61.5 20.44 60.47C19.46 58.98 18.99 57.4 19.05 55.76Z" fill="#FF847A" style="fill:#FF847A;fill:color(display-p3 1.0000 0.5176 0.4784);fill-opacity:1;"/>
</svg>
