<svg width="128" height="128" viewBox="0 0 128 128" fill="none" xmlns="http://www.w3.org/2000/svg">
<path d="M35.865 3.86523L92.135 3.86523C96.555 3.86523 100.135 7.44524 100.135 11.8652L100.135 115.865C100.135 120.285 96.555 123.865 92.135 123.865L35.865 123.865C31.445 123.865 27.865 120.285 27.865 115.865L27.865 11.8652C27.865 7.44524 31.445 3.86523 35.865 3.86523Z" fill="white" style="fill:white;fill-opacity:1;"/>
<rect x="41" y="66" width="3" height="45" transform="rotate(-90 41 66)" fill="#C4C4C4" style="fill:#C4C4C4;fill:color(display-p3 0.7686 0.7686 0.7686);fill-opacity:1;"/>
<circle cx="43.5" cy="47.5" r="7.5" transform="rotate(-90 43.5 47.5)" fill="#616161" style="fill:#616161;fill:color(display-p3 0.3804 0.3804 0.3804);fill-opacity:1;"/>
<circle cx="85.5" cy="18.5" r="7.5" transform="rotate(-90 85.5 18.5)" fill="#616161" style="fill:#616161;fill:color(display-p3 0.3804 0.3804 0.3804);fill-opacity:1;"/>
<circle cx="7.5" cy="7.5" r="7.5" transform="matrix(0 -1 -1 0 93 55)" fill="#616161" style="fill:#616161;fill:color(display-p3 0.3804 0.3804 0.3804);fill-opacity:1;"/>
<circle cx="7.5" cy="7.5" r="7.5" transform="matrix(0 -1 -1 0 51 26)" fill="#616161" style="fill:#616161;fill:color(display-p3 0.3804 0.3804 0.3804);fill-opacity:1;"/>
<circle cx="43.5" cy="112.5" r="7.5" transform="rotate(-90 43.5 112.5)" fill="#616161" style="fill:#616161;fill:color(display-p3 0.3804 0.3804 0.3804);fill-opacity:1;"/>
<circle cx="85.5" cy="83.5" r="7.5" transform="rotate(-90 85.5 83.5)" fill="#616161" style="fill:#616161;fill:color(display-p3 0.3804 0.3804 0.3804);fill-opacity:1;"/>
<circle cx="7.5" cy="7.5" r="7.5" transform="matrix(0 -1 -1 0 93 120)" fill="#616161" style="fill:#616161;fill:color(display-p3 0.3804 0.3804 0.3804);fill-opacity:1;"/>
<circle cx="7.5" cy="7.5" r="7.5" transform="matrix(0 -1 -1 0 51 91)" fill="#616161" style="fill:#616161;fill:color(display-p3 0.3804 0.3804 0.3804);fill-opacity:1;"/>
</svg>
