<svg width="128" height="129" viewBox="0 0 128 129" fill="none" xmlns="http://www.w3.org/2000/svg">
<path d="M30.93 15.51C29.25 15.76 28 17.21 28 18.91V92.52C23.46 92.67 18.45 94.86 14.4 98.9C7.32997 105.97 5.89997 116 11.2 121.3C16.5 126.6 26.53 125.17 33.6 118.1C37.64 114.06 39.83 109.04 39.98 104.5H40V44.42C40 43.43 40.72 42.59 41.7 42.44L93.7 34.64C94.91 34.46 96 35.4 96 36.62V84.52C91.46 84.67 86.45 86.86 82.4 90.9C75.33 97.97 73.9 108 79.2 113.3C84.5 118.6 94.53 117.17 101.6 110.1C105.64 106.06 107.83 101.04 107.98 96.5H108V7.94001C108 5.84001 106.13 4.23001 104.05 4.54001L30.93 15.51Z" fill="url(#paint0_radial_183_586)" style=""/>
<path d="M30.93 15.51C29.25 15.76 28 17.21 28 18.91V92.52C23.46 92.67 18.45 94.86 14.4 98.9C7.32997 105.97 5.89997 116 11.2 121.3C16.5 126.6 26.53 125.17 33.6 118.1C37.64 114.06 39.83 109.04 39.98 104.5H40V44.42C40 43.43 40.72 42.59 41.7 42.44L93.7 34.64C94.91 34.46 96 35.4 96 36.62V84.52C91.46 84.67 86.45 86.86 82.4 90.9C75.33 97.97 73.9 108 79.2 113.3C84.5 118.6 94.53 117.17 101.6 110.1C105.64 106.06 107.83 101.04 107.98 96.5H108V7.94001C108 5.84001 106.13 4.23001 104.05 4.54001L30.93 15.51Z" fill="url(#paint1_radial_183_586)" style=""/>
<path d="M30.93 15.51C29.25 15.76 28 17.21 28 18.91V92.52C23.46 92.67 18.45 94.86 14.4 98.9C7.32997 105.97 5.89997 116 11.2 121.3C16.5 126.6 26.53 125.17 33.6 118.1C37.64 114.06 39.83 109.04 39.98 104.5H40V44.42C40 43.43 40.72 42.59 41.7 42.44L93.7 34.64C94.91 34.46 96 35.4 96 36.62V84.52C91.46 84.67 86.45 86.86 82.4 90.9C75.33 97.97 73.9 108 79.2 113.3C84.5 118.6 94.53 117.17 101.6 110.1C105.64 106.06 107.83 101.04 107.98 96.5H108V7.94001C108 5.84001 106.13 4.23001 104.05 4.54001L30.93 15.51Z" fill="url(#paint2_linear_183_586)" style=""/>
<path d="M30.93 15.51C29.25 15.76 28 17.21 28 18.91V92.52C23.46 92.67 18.45 94.86 14.4 98.9C7.32997 105.97 5.89997 116 11.2 121.3C16.5 126.6 26.53 125.17 33.6 118.1C37.64 114.06 39.83 109.04 39.98 104.5H40V44.42C40 43.43 40.72 42.59 41.7 42.44L93.7 34.64C94.91 34.46 96 35.4 96 36.62V84.52C91.46 84.67 86.45 86.86 82.4 90.9C75.33 97.97 73.9 108 79.2 113.3C84.5 118.6 94.53 117.17 101.6 110.1C105.64 106.06 107.83 101.04 107.98 96.5H108V7.94001C108 5.84001 106.13 4.23001 104.05 4.54001L30.93 15.51Z" fill="url(#paint3_linear_183_586)" style=""/>
<path d="M30.93 15.51C29.25 15.76 28 17.21 28 18.91V92.52C23.46 92.67 18.45 94.86 14.4 98.9C7.32997 105.97 5.89997 116 11.2 121.3C16.5 126.6 26.53 125.17 33.6 118.1C37.64 114.06 39.83 109.04 39.98 104.5H40V44.42C40 43.43 40.72 42.59 41.7 42.44L93.7 34.64C94.91 34.46 96 35.4 96 36.62V84.52C91.46 84.67 86.45 86.86 82.4 90.9C75.33 97.97 73.9 108 79.2 113.3C84.5 118.6 94.53 117.17 101.6 110.1C105.64 106.06 107.83 101.04 107.98 96.5H108V7.94001C108 5.84001 106.13 4.23001 104.05 4.54001L30.93 15.51Z" fill="#546E7A" style="fill:#546E7A;fill:color(display-p3 0.3294 0.4314 0.4784);fill-opacity:1;"/>
<defs>
<radialGradient id="paint0_radial_183_586" cx="0" cy="0" r="1" gradientUnits="userSpaceOnUse" gradientTransform="translate(67.25 9.75001) scale(98.804 98.804)">
<stop stop-color="#40C4FF" style="stop-color:#40C4FF;stop-color:color(display-p3 0.2510 0.7686 1.0000);stop-opacity:1;"/>
<stop offset="1" stop-color="#0091EA" style="stop-color:#0091EA;stop-color:color(display-p3 0.0000 0.5686 0.9176);stop-opacity:1;"/>
</radialGradient>
<radialGradient id="paint1_radial_183_586" cx="0" cy="0" r="1" gradientUnits="userSpaceOnUse" gradientTransform="translate(57.9998 4.50168) rotate(90) scale(127.999 106.667)">
<stop stop-color="#616161" style="stop-color:#616161;stop-color:color(display-p3 0.3804 0.3804 0.3804);stop-opacity:1;"/>
<stop offset="0.827" stop-color="#212121" style="stop-color:#212121;stop-color:color(display-p3 0.1294 0.1294 0.1294);stop-opacity:1;"/>
</radialGradient>
<linearGradient id="paint2_linear_183_586" x1="57.9998" y1="5.29114" x2="57.9998" y2="124.311" gradientUnits="userSpaceOnUse">
<stop stop-color="#757575" style="stop-color:#757575;stop-color:color(display-p3 0.4588 0.4588 0.4588);stop-opacity:1;"/>
<stop offset="0.5148" stop-color="#504F4F" style="stop-color:#504F4F;stop-color:color(display-p3 0.3137 0.3098 0.3098);stop-opacity:1;"/>
</linearGradient>
<linearGradient id="paint3_linear_183_586" x1="57.9998" y1="8.4176" x2="57.9998" y2="118.644" gradientUnits="userSpaceOnUse">
<stop stop-color="#757575" style="stop-color:#757575;stop-color:color(display-p3 0.4588 0.4588 0.4588);stop-opacity:1;"/>
<stop offset="0.5148" stop-color="#504F4F" style="stop-color:#504F4F;stop-color:color(display-p3 0.3137 0.3098 0.3098);stop-opacity:1;"/>
</linearGradient>
</defs>
</svg>
