<svg width="129" height="128" viewBox="0 0 129 128" fill="none" xmlns="http://www.w3.org/2000/svg">
<path opacity="0.5" d="M73.0294 72.0901C73.3994 72.4601 94.8394 54.2301 94.8394 54.2301L97.0594 23.7001L78.5494 31.6701L47.3094 30.4401L31.6294 23.3301L34.0794 53.2901C34.0694 53.2901 72.6694 71.7301 73.0294 72.0901Z" fill="white" style="fill:white;fill-opacity:1;"/>
<path opacity="0.7" d="M62.8193 5.92993L46.9493 7.45993L34.9793 11.7799L28.2993 18.7399L35.5393 102.82L35.3993 113.4C35.3993 113.4 43.8893 124.4 63.9393 124.4C83.9893 124.4 93.7293 114.38 93.7293 114.38L93.5893 103.52L100.129 19.5699L95.3993 12.7499L77.4393 7.03993L62.8193 5.92993Z" fill="#E0E0E0" style="fill:#E0E0E0;fill:color(display-p3 0.8784 0.8784 0.8784);fill-opacity:1;"/>
<path d="M34.0093 53.25C34.0093 55.98 37.4893 103.64 39.0193 106.15C40.5493 108.66 48.5593 116.5 64.1493 116.22C79.7393 115.94 89.2693 109.07 90.0993 106.7C90.9393 104.33 94.8293 54.22 94.8293 54.22C94.8293 54.22 94.4093 48.79 83.1393 45.03C71.8693 41.27 57.7993 42.06 50.7093 43.5C41.7993 45.32 34.0093 50.19 34.0093 53.25Z" fill="#C0C0C0" style="fill:#C0C0C0;fill:color(display-p3 0.7529 0.7529 0.7529);fill-opacity:1;"/>
<path d="M39.0794 62.63L36.0394 56.65C36.0394 56.65 35.9794 54.88 36.2194 53.82C36.4594 52.76 38.2694 47.78 50.0894 45.42C59.4694 43.54 71.3794 43.71 80.0294 46.07C85.8894 47.67 91.6294 50.78 92.4194 53.87C93.3194 57.38 91.7694 58.88 91.7694 58.88L85.8994 68.26L42.9894 67.69L39.0794 62.63Z" fill="#FBFBFB" style="fill:#FBFBFB;fill:color(display-p3 0.9833 0.9833 0.9833);fill-opacity:1;"/>
<path d="M40.8793 104.8C41.2593 106.09 47.3193 113.61 63.7993 113.61C80.2793 113.61 87.6193 107.49 87.7793 106.1C87.9393 104.71 92.5893 57.0701 92.5893 57.0701C92.5893 57.0701 85.8193 65.8801 64.2793 65.4701C42.7393 65.0601 36.0493 56.6101 36.0493 56.6101C36.0493 56.6101 40.4693 103.42 40.8793 104.8Z" fill="#F0E7BA" style="fill:#F0E7BA;fill:color(display-p3 0.9412 0.9059 0.7294);fill-opacity:1;"/>
<path d="M40.8793 104.8C41.2593 106.09 47.3193 113.61 63.7993 113.61C80.2793 113.61 87.6193 107.49 87.7793 106.1C87.9393 104.71 92.5893 57.0701 92.5893 57.0701C92.5893 57.0701 85.8193 65.8801 64.2793 65.4701C42.7393 65.0601 36.0493 56.6101 36.0493 56.6101C36.0493 56.6101 40.4693 103.42 40.8793 104.8Z" fill="#F5F3E7" style="fill:#F5F3E7;fill:color(display-p3 0.9608 0.9529 0.9059);fill-opacity:1;"/>
<path d="M42.2594 38.1501C39.8994 38.3001 38.6694 40.1101 39.1594 43.8601C39.4894 46.3801 40.1394 49.0801 43.4794 48.7501C46.8594 48.4201 46.9594 44.8901 46.5794 42.8801C46.0194 39.8701 44.8794 37.9901 42.2594 38.1501Z" fill="white" style="fill:white;fill-opacity:1;"/>
<path d="M43.4095 50.2301C41.1295 50.4101 40.3895 51.7801 40.7195 55.8601C41.1495 61.2501 43.8995 95.1001 44.1495 98.0401C44.3895 100.98 45.6995 102.04 47.4895 102.04C49.2795 102.04 50.7495 100.25 50.6695 98.2101C50.5895 96.1701 47.4895 57.6601 47.2395 55.4601C46.9995 53.2501 46.5895 49.9801 43.4095 50.2301Z" fill="white" style="fill:white;fill-opacity:1;"/>
<path d="M38.5895 109C37.9095 110.77 40.2695 114.39 44.9595 116.8C50.1895 119.49 56.0395 119.08 56.1395 116.88C56.2395 114.56 52.6295 115.18 47.1695 112.56C42.6495 110.39 39.6495 106.22 38.5895 109Z" fill="white" style="fill:white;fill-opacity:1;"/>
<path d="M66.3093 119.49C66.0993 121.23 75.0593 120.63 81.9193 118.27C89.7193 115.58 92.0093 111.77 91.1093 110.46C90.2093 109.15 88.3993 112.54 80.6893 115.05C70.0093 118.5 66.6193 116.85 66.3093 119.49Z" fill="#D5D5D5" style="fill:#D5D5D5;fill:color(display-p3 0.8353 0.8353 0.8353);fill-opacity:1;"/>
<path d="M65.2594 34.2599C65.0194 34.2599 64.7794 34.2599 64.5494 34.2599C42.0694 34.1199 33.6494 28.2299 30.6294 24.5799C28.6694 22.1999 28.0294 19.6099 28.4994 17.0899V17.0099C30.7594 10.2599 43.4994 4.25993 64.1994 4.17993C87.5294 4.08993 99.4894 12.3199 100.069 17.9299C100.249 19.7299 99.9194 22.8799 97.2394 25.6999C92.3594 30.8099 80.8094 34.2599 65.2594 34.2599ZM33.2594 17.9099C32.9494 19.5599 32.8694 20.9099 34.2794 22.6099C36.4394 25.2199 42.4794 30.5899 64.5294 30.7299C64.7794 30.7299 65.0194 30.7299 65.2694 30.7299C85.0294 30.7299 91.3394 26.3799 93.9794 23.4699C95.4594 21.8399 96.0394 20.3999 95.8694 18.6799C95.4794 14.9899 85.7294 7.92993 64.4494 8.04993C41.7894 8.16993 34.0994 13.9099 33.3694 17.7899L33.2594 17.9099Z" fill="#C8C8C8" style="fill:#C8C8C8;fill:color(display-p3 0.7833 0.7833 0.7833);fill-opacity:1;"/>
<path d="M35.9895 13.8701C35.5395 13.3901 33.9195 13.7001 32.5995 15.2301C31.4295 16.5901 29.8695 19.3901 32.1695 22.5601C34.4895 25.7501 41.7195 31.6801 65.3795 31.9901C86.7595 32.2701 96.9895 24.9701 97.2895 20.0401C97.5895 15.1101 94.5195 15.2301 94.5195 15.9101C94.5195 16.5901 95.1595 17.9601 94.9495 19.6101C94.6995 21.5101 89.9595 29.6401 65.1295 29.7001C41.3495 29.7601 33.5695 22.0601 33.6495 19.6001C33.7695 15.7801 36.9795 14.9201 35.9895 13.8701Z" fill="white" style="fill:white;fill-opacity:1;"/>
</svg>
