<svg width="128" height="128" viewBox="0 0 128 128" fill="none" xmlns="http://www.w3.org/2000/svg">
<path opacity="0.2" d="M99.73 7.09009C102.49 7.09009 104.73 9.33009 104.73 12.0901V116.09C104.73 118.85 102.49 121.09 99.73 121.09H27.73C24.97 121.09 22.73 118.85 22.73 116.09V12.0901C22.73 9.33009 24.97 7.09009 27.73 7.09009H99.73ZM99.73 4.09009H27.73C23.31 4.09009 19.73 7.67009 19.73 12.0901V116.09C19.73 120.51 23.31 124.09 27.73 124.09H99.73C104.15 124.09 107.73 120.51 107.73 116.09V12.0901C107.73 7.67009 104.15 4.09009 99.73 4.09009Z" fill="#212121" style="fill:#212121;fill:color(display-p3 0.1294 0.1294 0.1294);fill-opacity:1;"/>
<path d="M102.439 125.43L26.4194 125.06C22.9694 125.06 20.1694 122.26 20.1694 118.81L32.3694 26.6801L102.559 4.5001C108.689 4.1701 109.039 7.0301 109.039 10.4801L108.669 119.17C108.689 122.64 105.889 125.43 102.439 125.43Z" fill="#D9CDC9" style="fill:#D9CDC9;fill:color(display-p3 0.8510 0.8039 0.7882);fill-opacity:1;"/>
<path d="M101.98 122.06C101.98 122.06 44.2195 123.04 25.5095 121.98C21.9295 121.78 20.1795 120.36 20.1695 118.82L19.9995 10.3301C19.9995 6.88008 22.7995 4.08008 26.2495 4.08008L101.89 4.40008C105.34 4.40008 106.65 7.26008 106.65 10.7101L106.08 116.11C106.06 119.56 105.43 122.06 101.98 122.06Z" fill="#F1EDEC" style="fill:#F1EDEC;fill:color(display-p3 0.9451 0.9294 0.9255);fill-opacity:1;"/>
<path d="M39.9668 111C39.9668 114.068 37.7757 116 34.6001 116C31.4245 116 28.8501 113.513 28.8501 110.444C28.8635 110.179 28.8571 109.919 28.8501 109.663C28.8501 107.636 29.8762 105.67 30.7668 103.83C31.6826 101.938 33.003 100.28 34.2407 98.5868C36.1579 95.9647 40.3501 91 40.3501 91C40.3501 91 44.5423 95.9647 46.4595 98.5868C47.6972 100.28 49.0176 101.938 49.9334 103.83C50.824 105.67 51.8501 107.636 51.8501 109.663C51.8392 109.934 51.843 110.195 51.8501 110.444C51.8501 113.513 49.2757 116 46.1001 116C42.9245 116 40.7334 114.068 40.7334 111C40.7334 110.444 39.9668 110.444 39.9668 111Z" fill="#F44336" style="fill:#F44336;fill:color(display-p3 0.9569 0.2627 0.2118);fill-opacity:1;"/>
<path d="M85.2666 111C85.2666 114.068 83.0755 116 79.8999 116C76.7243 116 74.1499 113.513 74.1499 110.444C74.1633 110.179 74.1569 109.919 74.1499 109.663C74.1499 107.636 75.176 105.67 76.0666 103.83C76.9824 101.938 78.3028 100.28 79.5405 98.5868C81.4577 95.9647 85.6499 91 85.6499 91C85.6499 91 89.8421 95.9647 91.7593 98.5868C92.997 100.28 94.3174 101.938 95.2332 103.83C96.1238 105.67 97.1499 107.636 97.1499 109.663C97.139 109.934 97.1428 110.195 97.1499 110.444C97.1499 113.513 94.5755 116 91.3999 116C88.2243 116 86.0332 114.068 86.0332 111C86.0332 110.444 85.2666 110.444 85.2666 111Z" fill="#F44336" style="fill:#F44336;fill:color(display-p3 0.9569 0.2627 0.2118);fill-opacity:1;"/>
<path d="M42.2666 85C42.2666 88.0682 40.0755 90 36.8999 90C33.7243 90 31.1499 87.5127 31.1499 84.4444C31.1633 84.179 31.1569 83.9191 31.1499 83.6632C31.1499 81.6358 32.176 79.6696 33.0666 77.8299C33.9824 75.9379 35.3028 74.2797 36.5405 72.5868C38.4577 69.9647 42.6499 65 42.6499 65C42.6499 65 46.8421 69.9647 48.7593 72.5868C49.997 74.2797 51.3174 75.9379 52.2332 77.8299C53.1238 79.6696 54.1499 81.6358 54.1499 83.6632C54.139 83.9339 54.1428 84.195 54.1499 84.4444C54.1499 87.5127 51.5755 90 48.3999 90C45.2243 90 43.0332 88.0682 43.0332 85C43.0332 84.4444 42.2666 84.4444 42.2666 85Z" fill="#F44336" style="fill:#F44336;fill:color(display-p3 0.9569 0.2627 0.2118);fill-opacity:1;"/>
<path d="M85.2666 85C85.2666 88.0682 83.0755 90 79.8999 90C76.7243 90 74.1499 87.5127 74.1499 84.4444C74.1633 84.179 74.1569 83.9191 74.1499 83.6632C74.1499 81.6358 75.176 79.6696 76.0666 77.8299C76.9824 75.9379 78.3028 74.2797 79.5405 72.5868C81.4577 69.9647 85.6499 65 85.6499 65C85.6499 65 89.8421 69.9647 91.7593 72.5868C92.997 74.2797 94.3174 75.9379 95.2332 77.8299C96.1238 79.6696 97.1499 81.6358 97.1499 83.6632C97.139 83.9339 97.1428 84.195 97.1499 84.4444C97.1499 87.5127 94.5755 90 91.3999 90C88.2243 90 86.0332 88.0682 86.0332 85C86.0332 84.4444 85.2666 84.4444 85.2666 85Z" fill="#F44336" style="fill:#F44336;fill:color(display-p3 0.9569 0.2627 0.2118);fill-opacity:1;"/>
<path d="M42.2666 16C42.2666 12.9318 40.0755 11 36.8999 11C33.7243 11 31.1499 13.4873 31.1499 16.5556C31.1633 16.821 31.1569 17.0809 31.1499 17.3368C31.1499 19.3642 32.176 21.3304 33.0666 23.1701C33.9824 25.0621 35.3028 26.7203 36.5405 28.4132C38.4577 31.0353 42.6499 36 42.6499 36C42.6499 36 46.8421 31.0353 48.7593 28.4132C49.997 26.7203 51.3174 25.0621 52.2332 23.1701C53.1238 21.3304 54.1499 19.3642 54.1499 17.3368C54.139 17.0661 54.1428 16.805 54.1499 16.5556C54.1499 13.4873 51.5755 11 48.3999 11C45.2243 11 43.0332 12.9318 43.0332 16C43.0332 16.5556 42.2666 16.5556 42.2666 16Z" fill="#F44336" style="fill:#F44336;fill:color(display-p3 0.9569 0.2627 0.2118);fill-opacity:1;"/>
<path d="M85.2666 16C85.2666 12.9318 83.0755 11 79.8999 11C76.7243 11 74.1499 13.4873 74.1499 16.5556C74.1633 16.821 74.1569 17.0809 74.1499 17.3368C74.1499 19.3642 75.176 21.3304 76.0666 23.1701C76.9824 25.0621 78.3028 26.7203 79.5405 28.4132C81.4577 31.0353 85.6499 36 85.6499 36C85.6499 36 89.8421 31.0353 91.7593 28.4132C92.997 26.7203 94.3174 25.0621 95.2332 23.1701C96.1238 21.3304 97.1499 19.3642 97.1499 17.3368C97.139 17.0661 97.1428 16.805 97.1499 16.5556C97.1499 13.4873 94.5755 11 91.3999 11C88.2243 11 86.0332 12.9318 86.0332 16C86.0332 16.5556 85.2666 16.5556 85.2666 16Z" fill="#F44336" style="fill:#F44336;fill:color(display-p3 0.9569 0.2627 0.2118);fill-opacity:1;"/>
<path d="M64.4165 56C64.4165 52.9318 62.2254 51 59.0498 51C55.8742 51 53.2998 53.4873 53.2998 56.5556C53.3132 56.821 53.3068 57.0809 53.2998 57.3368C53.2998 59.3642 54.3259 61.3304 55.2165 63.1701C56.1323 65.0621 57.4527 66.7203 58.6904 68.4132C60.6076 71.0353 64.7998 76 64.7998 76C64.7998 76 68.992 71.0353 70.9092 68.4132C72.1469 66.7203 73.4673 65.0621 74.3831 63.1701C75.2737 61.3304 76.2998 59.3642 76.2998 57.3368C76.2889 57.0661 76.2927 56.805 76.2998 56.5556C76.2998 53.4873 73.7254 51 70.5498 51C67.3742 51 65.1831 52.9318 65.1831 56C65.1831 56.5556 64.4165 56.5556 64.4165 56Z" fill="#F44336" style="fill:#F44336;fill:color(display-p3 0.9569 0.2627 0.2118);fill-opacity:1;"/>
<path d="M42.2666 42C42.2666 38.9318 40.0755 37 36.8999 37C33.7243 37 31.1499 39.4873 31.1499 42.5556C31.1633 42.821 31.1569 43.0809 31.1499 43.3368C31.1499 45.3642 32.176 47.3304 33.0666 49.1701C33.9824 51.0621 35.3028 52.7203 36.5405 54.4132C38.4577 57.0353 42.6499 62 42.6499 62C42.6499 62 46.8421 57.0353 48.7593 54.4132C49.997 52.7203 51.3174 51.0621 52.2332 49.1701C53.1238 47.3304 54.1499 45.3642 54.1499 43.3368C54.139 43.0661 54.1428 42.805 54.1499 42.5556C54.1499 39.4873 51.5755 37 48.3999 37C45.2243 37 43.0332 38.9318 43.0332 42C43.0332 42.5556 42.2666 42.5556 42.2666 42Z" fill="#F44336" style="fill:#F44336;fill:color(display-p3 0.9569 0.2627 0.2118);fill-opacity:1;"/>
<path d="M85.2666 42C85.2666 38.9318 83.0755 37 79.8999 37C76.7243 37 74.1499 39.4873 74.1499 42.5556C74.1633 42.821 74.1569 43.0809 74.1499 43.3368C74.1499 45.3642 75.176 47.3304 76.0666 49.1701C76.9824 51.0621 78.3028 52.7203 79.5405 54.4132C81.4577 57.0353 85.6499 62 85.6499 62C85.6499 62 89.8421 57.0353 91.7593 54.4132C92.997 52.7203 94.3174 51.0621 95.2332 49.1701C96.1238 47.3304 97.1499 45.3642 97.1499 43.3368C97.139 43.0661 97.1428 42.805 97.1499 42.5556C97.1499 39.4873 94.5755 37 91.3999 37C88.2243 37 86.0332 38.9318 86.0332 42C86.0332 42.5556 85.2666 42.5556 85.2666 42Z" fill="#F44336" style="fill:#F44336;fill:color(display-p3 0.9569 0.2627 0.2118);fill-opacity:1;"/>
</svg>
