<svg width="128" height="128" viewBox="0 0 128 128" fill="none" xmlns="http://www.w3.org/2000/svg">
<path d="M116 4H12C7.58 4 4 7.58 4 12V116C4 120.42 7.58 124 12 124H116C120.42 124 124 120.42 124 116V12C124 7.58 120.42 4 116 4Z" fill="#689F38" style="fill:#689F38;fill:color(display-p3 0.4078 0.6235 0.2196);fill-opacity:1;"/>
<path d="M109.7 4H11.5C7.37002 4.03 4.03002 7.37 4.00002 11.5V109.4C3.99002 113.54 7.34002 116.89 11.48 116.9C11.49 116.9 11.49 116.9 11.5 116.9H109.6C113.74 116.91 117.09 113.56 117.1 109.42C117.1 109.41 117.1 109.41 117.1 109.4V11.5C117.19 7.45 113.97 4.09 109.92 4C109.85 4 109.77 4 109.7 4Z" fill="#7CB342" style="fill:#7CB342;fill:color(display-p3 0.4863 0.7020 0.2588);fill-opacity:1;"/>
<path opacity="0.75" d="M39.6996 12.8999C39.6996 10.5999 38.0996 9.89988 28.8996 10.1999C21.1996 10.4999 17.3996 11.3999 15.0996 14.1999C12.7996 16.9999 12.1996 22.6999 12.0996 29.4999C12.0996 34.2999 12.0996 38.7999 14.5996 38.7999C17.9996 38.7999 17.9996 30.8999 20.7996 26.4999C26.1996 17.7999 39.6996 15.8999 39.6996 12.8999Z" fill="#ABC884" style="fill:#ABC884;fill:color(display-p3 0.6706 0.7843 0.5176);fill-opacity:1;"/>
<path d="M63.4523 58.1481C60.3561 58.4577 57.5694 61.0895 57.8016 64.3406C58.0339 67.3595 60.2787 69.8365 63.2201 70.2235C66.3938 70.688 69.4127 68.7528 70.1093 65.4243C70.8834 61.2444 67.5549 57.7611 63.4523 58.1481Z" fill="white" style="fill:white;fill-opacity:1;"/>
<path d="M71.1138 86.8349C70.7267 84.8224 70.1849 82.8872 69.7204 80.952C69.256 78.862 68.5593 76.6946 67.7079 74.8369C66.4694 72.1277 63.5279 71.1988 61.7475 73.521C60.2768 75.4561 59.1931 78.5524 58.5739 80.952C56.7161 87.8412 51.2202 108.741 63.2183 110.444C66.3145 110.831 69.4108 108.818 70.8041 105.954C72.5071 102.239 72.4297 98.0589 72.0426 94.0338C71.8878 92.0212 71.5008 88.7701 71.1138 86.8349Z" fill="white" style="fill:white;fill-opacity:1;"/>
<path d="M110.358 63.4145C108.733 51.339 87.8329 56.8349 80.9437 58.7701C78.5441 59.3893 75.4478 60.473 73.5127 61.9437C71.113 63.7241 72.1193 66.743 74.8286 67.9041C76.7637 68.7555 78.9311 69.3748 80.9437 69.9166C82.8789 70.3811 84.8914 70.8455 86.8266 71.3099C88.7618 71.697 92.0129 72.084 94.0254 72.2388C98.0506 72.6259 102.231 72.7807 105.946 71.0003C108.733 69.6844 110.823 66.5107 110.358 63.4145Z" fill="white" style="fill:white;fill-opacity:1;"/>
<path d="M54.4704 61.9436C52.5353 60.4729 49.439 59.4666 47.0394 58.7699C40.1502 56.9122 19.2504 51.4163 17.6248 63.4143C17.2378 66.5106 19.2504 69.6069 22.1144 71.0002C25.7525 72.7031 30.0099 72.6257 34.035 72.2387C36.0476 72.0839 39.2987 71.6968 41.2339 71.3098C43.2464 70.9228 45.1816 70.3809 47.1168 69.9165C49.2068 69.452 51.3742 68.7554 53.2319 67.9039C55.9412 66.7428 56.87 63.8014 54.4704 61.9436Z" fill="white" style="fill:white;fill-opacity:1;"/>
<path d="M77.4604 53.3178C77.6926 53.3178 78.0023 53.2404 78.2345 53.0855C80.2471 51.6148 98.2054 38.5331 99.5213 37.2172C100.141 36.5979 101.224 35.3594 101.844 33.8113C102.54 31.8761 102.153 30.0957 100.76 28.7024C99.831 27.7735 98.5925 27.2317 97.3539 27.2317C95.264 27.2317 93.2514 28.5476 92.0129 29.7087C90.7744 31.0246 77.8474 49.1378 76.3767 51.2278C75.9897 51.7696 76.0671 52.4663 76.5315 52.9307C76.7637 53.163 77.1508 53.3178 77.4604 53.3178Z" fill="white" style="fill:white;fill-opacity:1;"/>
<path d="M28.4617 37.1395C29.7777 38.4554 47.736 51.5372 49.7486 53.0079C49.9808 53.1627 50.2904 53.2401 50.5227 53.2401C50.8323 53.2401 51.2193 53.0853 51.4516 52.8531C51.916 52.3886 51.9934 51.692 51.6064 51.1501C50.1356 49.0602 37.2861 30.947 35.8928 29.6311C34.6543 28.3926 32.6417 27.1541 30.5517 27.1541C29.2358 27.1541 28.0747 27.6185 27.1458 28.6248C25.7525 30.0181 25.3655 31.7985 26.0621 33.7336C26.6814 35.2818 27.8425 36.5203 28.4617 37.1395Z" fill="white" style="fill:white;fill-opacity:1;"/>
<path d="M99.5213 90.8601C98.2054 89.5442 80.2471 76.4624 78.2345 74.9917C77.6926 74.6047 76.996 74.6821 76.5315 75.1465C76.0671 75.611 75.9897 76.3076 76.3767 76.8495C77.8474 78.9394 90.697 97.0526 92.0903 98.3685C93.3288 99.6071 95.3414 100.846 97.4313 100.846C98.7473 100.846 99.9084 100.381 100.837 99.3748C102.231 97.9815 102.618 96.2012 101.921 94.266C101.302 92.7178 100.141 91.4793 99.5213 90.8601Z" fill="white" style="fill:white;fill-opacity:1;"/>
<path d="M49.7493 74.9916C47.7367 76.4623 29.7784 89.4667 28.4625 90.86C27.8432 91.4793 26.7595 92.7178 26.1403 94.2659C25.4436 96.2011 25.8306 97.9814 27.224 99.3747C28.1528 100.304 29.3913 100.845 30.6299 100.845C32.7198 100.845 34.7324 99.5296 35.9709 98.3685C37.2868 97.0525 50.2138 78.862 51.6845 76.8494C52.0715 76.3075 51.9941 75.6109 51.5297 75.1464C50.9878 74.6046 50.2912 74.6046 49.7493 74.9916Z" fill="white" style="fill:white;fill-opacity:1;"/>
<path d="M61.747 54.479C63.5273 56.8786 66.5462 55.8723 67.7073 53.1631C68.5588 51.2279 69.178 49.0605 69.7199 47.0479C70.1843 45.1128 70.6487 43.1002 71.1132 41.165C71.5002 39.2299 71.8872 35.9788 72.0421 33.9662C72.4291 29.941 72.5839 25.7611 70.8035 22.0456C69.4876 19.1815 66.314 17.1689 63.2177 17.556C51.1422 19.1815 56.6381 40.0813 58.5733 47.0479C59.2699 49.525 60.2762 52.6212 61.747 54.479Z" fill="white" style="fill:white;fill-opacity:1;"/>
</svg>
