<svg width="128" height="128" viewBox="0 0 128 128" fill="none" xmlns="http://www.w3.org/2000/svg">
<path d="M110.727 61.3445C110.172 60.0029 108.645 58.43 106.684 57.6435C103.186 56.2372 97.7368 55.1176 91.2787 60.336L90.5477 30.5804C90.5477 27.3884 89.4467 24.5664 87.2632 22.864C82.748 19.3573 79.3011 20.6219 77.1718 22.5401C75.3623 24.1701 73.149 28.5153 73.149 28.5153C73.149 28.5153 73.149 24.5756 73.149 22.5401C73.149 20.5045 73.149 8.48584 63.9843 8.48584C55.2769 8.48584 55.2029 20.0142 55.2029 22.2347L55.2029 28.5153C55.2029 28.5153 52.4777 24.1038 50.6694 22.864C48.3201 21.2532 44.9059 19.6072 40.7054 22.864C38.5218 24.5664 37.4208 27.3884 37.4208 30.5804L36.6991 60.336C30.241 55.1176 24.7914 56.2464 21.294 57.6435C19.3325 58.43 17.6578 60.2804 17.2507 61.3445C16.8066 62.4917 16.7141 63.7038 17.9169 64.2497C20.9516 65.6283 26.5585 69.7826 29.3528 80.395C31.5918 88.9627 33.7199 119.514 63.9843 119.514C94.2487 119.514 96.3767 88.9627 98.625 80.395C101.419 69.7918 107.063 65.7116 110.061 64.2497C111.171 63.7131 111.282 62.686 110.727 61.3445Z" fill="#1C2868" style="fill:#1C2868;fill:color(display-p3 0.1089 0.1572 0.4083);fill-opacity:1;"/>
<path d="M110.762 64.7357C110.75 64.7079 110.739 64.6799 110.727 64.6518C110.172 63.3353 108.645 61.7918 106.684 61.02C103.186 59.6399 97.7367 58.5413 91.2786 63.6622L90.5476 34.4624C90.5476 31.33 89.4466 28.5607 87.263 26.8901C82.7479 23.449 79.3009 24.6899 77.1717 26.5722C75.3622 28.1719 73.1489 32.4358 73.1489 32.4358L73.1489 26.5722C73.1489 24.5747 73.1489 12.7805 63.9842 12.7805C55.2975 12.7805 55.2032 24.0399 55.2028 26.2569C55.2028 26.2622 55.2028 26.2674 55.2028 26.2726L55.2028 32.4358C55.2028 32.4358 52.4776 28.1068 50.6693 26.8901C48.32 25.3094 44.9058 23.6941 40.7053 26.8901C38.5217 28.5607 37.4207 31.33 37.4207 34.4624L36.699 63.6622C30.2409 58.5413 24.7912 59.649 21.2939 61.02C19.3324 61.7918 17.6577 63.6077 17.2506 64.6518C17.2396 64.6796 17.2289 64.7074 17.2184 64.7353C17.3727 64.9541 17.5997 65.1407 17.9168 65.2819C20.9515 66.6348 26.5584 70.7115 29.3526 81.1257C29.6132 82.1039 29.8722 83.3743 30.1742 84.8554C32.4678 96.1042 37.2411 119.514 63.9842 119.514C90.7139 119.514 95.4957 96.1274 97.7971 84.8722C98.1014 83.3839 98.3623 82.1076 98.6249 81.1257C101.419 70.7206 107.063 66.7165 110.061 65.2819C110.369 65.1357 110.6 64.9524 110.762 64.7357Z" fill="#2D3C8A" style="fill:#2D3C8A;fill:color(display-p3 0.1760 0.2341 0.5417);fill-opacity:1;"/>
<path fill-rule="evenodd" clip-rule="evenodd" d="M87.2632 22.864C89.4467 24.5664 90.5478 27.3884 90.5478 30.5804L91.2787 60.336C92.2884 59.5201 93.2735 58.8591 94.2303 58.33C99.3932 55.4747 103.733 56.457 106.684 57.6435C108.645 58.43 110.172 60.0029 110.727 61.3445C111.282 62.686 111.171 63.7131 110.061 64.2497C107.063 65.7116 101.419 69.7918 98.6251 80.395C98.3625 81.3957 98.1015 82.6962 97.7972 84.2128C95.4959 95.6823 90.7141 119.514 63.9843 119.514C37.2413 119.514 32.468 95.6586 30.1743 84.1958C29.8723 82.6864 29.6133 81.3919 29.3528 80.395C26.5586 69.7826 20.9517 65.6283 17.9169 64.2497C16.7141 63.7038 16.8066 62.4917 17.2507 61.3445C17.6578 60.2804 19.3325 58.43 21.294 57.6435C24.2445 56.4649 28.5843 55.4772 33.7469 58.3302C34.7039 58.8591 35.6892 59.5199 36.6991 60.336L37.4208 30.5804C37.4208 27.3884 38.5219 24.5664 40.7054 22.864C44.906 19.6072 48.3201 21.2532 50.6694 22.864C51.1399 23.1866 51.6725 23.7238 52.2029 24.3422C53.7113 26.1007 55.2029 28.5153 55.2029 28.5153L55.2029 22.2347C55.2029 20.0142 55.2769 8.48584 63.9843 8.48584C73.149 8.48584 73.149 20.5045 73.149 22.5401L73.149 28.5153C73.149 28.5153 74.6232 25.6211 76.149 23.6707C76.4927 23.2313 76.8391 22.8398 77.1718 22.5401C79.3011 20.6219 82.748 19.3573 87.2632 22.864ZM76.0303 19.6029C77.3496 18.6283 79.0535 17.8182 81.1149 17.6749C83.7015 17.4952 86.4017 18.3965 89.1033 20.4946L89.1078 20.4981C92.2073 22.9147 93.5388 26.721 93.5477 30.5415L94.1489 55.014C96.1223 54.115 98.0376 53.6519 99.8659 53.514C103.095 53.2704 105.813 54.0597 107.803 54.8601C110.423 55.9115 112.6 58.025 113.499 60.1974C113.876 61.1077 114.224 62.3511 113.962 63.6806C113.658 65.2155 112.655 66.3259 111.373 66.9478C109.102 68.0559 104.082 71.4628 101.527 81.1565M76.0303 19.6029C75.8843 17.9362 75.5589 15.818 74.8337 13.7548C74.1601 11.8384 73.0757 9.77135 71.2882 8.16453C69.4372 6.50049 67.0003 5.48584 63.9843 5.48584C61.0744 5.48584 58.7162 6.47558 56.9247 8.09844C55.198 9.66262 54.1497 11.6727 53.4971 13.5357C52.6346 15.9975 52.3469 18.5517 52.251 20.3114C50.9541 19.433 49.0729 18.3471 46.748 18.0611C44.2167 17.7496 41.5329 18.4263 38.8672 20.4931L38.8608 20.4981C35.7611 22.9148 34.4297 26.7215 34.4209 30.5423L33.8273 55.0143C31.8538 54.1163 29.9386 53.6544 28.1106 53.5173C24.8825 53.2753 22.1667 54.0644 20.1811 54.8576L20.1776 54.859C18.7478 55.4323 17.5189 56.345 16.5997 57.2375C15.7294 58.0824 14.874 59.1655 14.4512 60.2663C14.1582 61.0243 13.8199 62.18 13.9949 63.4366C14.2044 64.9401 15.1127 66.2715 16.6771 66.9815C18.8809 67.983 23.8836 71.4084 26.4509 81.156C26.6603 81.9579 26.8847 83.0847 27.1566 84.4505C28.1386 89.3826 29.7413 97.4326 33.5057 104.567C35.9714 109.24 39.447 113.758 44.4544 117.101C49.4854 120.46 55.8849 122.514 63.9843 122.514C72.0837 122.514 78.4832 120.46 83.5143 117.101C88.5218 113.758 91.9977 109.241 94.4639 104.568C98.2249 97.4413 99.8308 89.3979 100.816 84.4657C101.089 83.0942 101.315 81.9633 101.526 81.1595" fill="#BADBFA" style="fill:#BADBFA;fill:color(display-p3 0.7303 0.8576 0.9792);fill-opacity:1;"/>
<path fill-rule="evenodd" clip-rule="evenodd" d="M77.0859 90.8472C77.0859 98.085 71.2184 103.952 63.9806 103.952C56.7428 103.952 50.8754 98.085 50.8754 90.8472C50.8754 83.6094 55.3743 75.9732 62.6121 75.9732C69.8499 75.9732 77.0859 83.6094 77.0859 90.8472ZM59.7853 83.0194C59.8846 82.3017 59.5424 81.4737 58.8578 81.2418C56.1529 80.3144 54.6734 84.4436 55.3248 86.3868C55.4794 86.8063 55.7554 87.259 56.2081 87.3142C56.6387 87.3694 57.003 87.0382 57.2901 86.729C57.8311 86.166 58.3389 85.5587 58.8137 84.9405C59.2553 84.3663 59.6859 83.737 59.7853 83.0194ZM63.9806 96.9528C67.3525 96.9528 70.0861 94.2193 70.0861 90.8473C70.0861 87.4753 67.3525 84.7418 63.9806 84.7418C60.6086 84.7418 57.8751 87.4753 57.8751 90.8473C57.8751 94.2193 60.6086 96.9528 63.9806 96.9528Z" fill="#1C2868" style="fill:#1C2868;fill:color(display-p3 0.1089 0.1572 0.4083);fill-opacity:1;"/>
<path fill-rule="evenodd" clip-rule="evenodd" d="M37.5161 87.6439C37.5161 87.6439 46.183 73.094 63.9806 73.094C81.7781 73.094 90.4339 87.75 90.4339 87.75V90.9467L89.628 92.4593C89.2747 93.1107 80.7734 108.601 63.9695 108.601C47.1656 108.601 38.6754 93.1217 38.3221 92.4593L37.5161 90.9467V87.6439ZM86.6249 90.8363C86.6249 90.8363 79.8349 76.4945 63.9806 76.4945C48.1262 76.4945 41.3251 90.8474 41.3251 90.8474C41.3251 90.8474 49.0205 105.178 63.9806 105.178C78.9406 105.178 86.6249 90.8363 86.6249 90.8363Z" fill="#1C2868" style="fill:#1C2868;fill:color(display-p3 0.1089 0.1572 0.4083);fill-opacity:1;"/>
<path fill-rule="evenodd" clip-rule="evenodd" d="M77.0859 87.6172C77.0859 94.855 71.2184 100.722 63.9806 100.722C56.7428 100.722 50.8754 94.855 50.8754 87.6172C50.8754 80.3794 56.7428 74.512 63.9806 74.512C71.2184 74.512 77.0859 80.3794 77.0859 87.6172ZM59.7853 79.7894C59.8846 79.0718 59.5424 78.2437 58.8578 78.0119C56.1529 77.0844 54.6734 81.2136 55.3248 83.1568C55.4794 83.5763 55.7554 84.029 56.2081 84.0842C56.6387 84.1394 57.003 83.8082 57.2901 83.4991C57.8311 82.936 58.3389 82.3288 58.8137 81.7105C59.2553 81.1364 59.6859 80.507 59.7853 79.7894ZM63.9806 93.7228C67.3525 93.7228 70.0861 90.9893 70.0861 87.6173C70.0861 84.2453 67.3525 81.5118 63.9806 81.5118C60.6086 81.5118 57.8751 84.2453 57.8751 87.6173C57.8751 90.9893 60.6086 93.7228 63.9806 93.7228Z" fill="#BADBFA" style="fill:#BADBFA;fill:color(display-p3 0.7294 0.8588 0.9804);fill-opacity:1;"/>
<path fill-rule="evenodd" clip-rule="evenodd" d="M38.2558 86.16C38.576 85.4865 46.183 69.864 63.9806 69.864C81.7781 69.864 89.3851 85.4976 89.6942 86.16L90.4339 87.7167L89.628 89.2293C89.2747 89.8807 80.7734 105.371 63.9695 105.371C47.1656 105.371 38.6754 89.8918 38.3221 89.2293L37.5161 87.7167L38.2558 86.16ZM86.6249 87.6063C86.6249 87.6063 79.8349 73.2645 63.9806 73.2645C48.1262 73.2645 41.3251 87.6174 41.3251 87.6174C41.3251 87.6174 49.0205 101.948 63.9806 101.948C78.9406 101.948 86.6249 87.6063 86.6249 87.6063Z" fill="#BADBFA" style="fill:#BADBFA;fill:color(display-p3 0.7294 0.8588 0.9804);fill-opacity:1;"/>
<rect x="52.1836" y="25.2727" width="3.09827" height="36.813" fill="#1C2868" style="fill:#1C2868;fill:color(display-p3 0.1089 0.1572 0.4083);fill-opacity:1;"/>
<rect x="73.1558" y="25.2727" width="3.09827" height="36.813" fill="#1C2868" style="fill:#1C2868;fill:color(display-p3 0.1089 0.1572 0.4083);fill-opacity:1;"/>
<rect x="52.1836" y="21.3298" width="3.09827" height="36.813" fill="#BADBFA" style="fill:#BADBFA;fill:color(display-p3 0.7294 0.8588 0.9804);fill-opacity:1;"/>
<rect x="73.1558" y="21.3298" width="3.09827" height="36.813" fill="#BADBFA" style="fill:#BADBFA;fill:color(display-p3 0.7294 0.8588 0.9804);fill-opacity:1;"/>
</svg>
