<svg width="128" height="129" viewBox="0 0 128 129" fill="none" xmlns="http://www.w3.org/2000/svg">
<path d="M75.96 75.9L78.29 73.52C78.46 73.4 79.39 73.38 79.58 73.44C79.64 73.44 80.03 74.13 80.09 74.14L80.99 74.3C81.37 74.39 81.62 74.78 81.53 75.17L81.49 75.38C81.41 75.77 81.03 76.02 80.65 75.93L79.28 75.61L76.9 77.29C76.58 77.52 76.14 77.43 75.91 77.1L75.79 76.92C75.56 76.57 75.64 76.12 75.96 75.9Z" fill="#7A4C32" style="fill:#7A4C32;fill:color(display-p3 0.4784 0.2980 0.1961);fill-opacity:1;"/>
<path d="M120.84 113.67C120.28 111.24 117.6 108.55 114.97 105.95C113.27 104.27 110.21 104.62 108.54 106.33C106.87 108.04 106.57 111.11 108.27 112.79C110.9 115.39 113.63 118.03 116.06 118.55C117.97 118.96 119.56 118.35 120.13 117.77C120.7 117.18 121.28 115.58 120.84 113.67Z" fill="#504F4F" style="fill:#504F4F;fill:color(display-p3 0.3137 0.3098 0.3098);fill-opacity:1;"/>
<path d="M91.3 124.32H85.24L81.96 105.04C82.61 106.74 84.26 107.95 86.2 107.95C88.7 107.95 90.73 105.93 90.74 103.44L91.3 124.32Z" fill="url(#paint0_linear_201_3151)" style=""/>
<path d="M91.3 124.32H85.24L81.96 105.04C82.61 106.74 84.26 107.95 86.2 107.95C88.7 107.95 90.73 105.93 90.74 103.44L91.3 124.32Z" fill="url(#paint1_linear_201_3151)" style=""/>
<path d="M115.56 113.97C114.56 114.53 113.32 114.46 112.39 113.78L100.24 103.14C100.13 103.04 100.02 102.94 99.9199 102.83C100.76 103.66 101.91 104.18 103.19 104.18C105.76 104.18 107.84 102.1 107.84 99.53C107.84 99.03 107.76 98.54 107.61 98.09C107.62 98.1 107.63 98.12 107.64 98.13L116.19 109.29C117.58 110.67 117.27 113.01 115.56 113.97Z" fill="url(#paint2_linear_201_3151)" style=""/>
<path d="M115.56 113.97C114.56 114.53 113.32 114.46 112.39 113.78L100.24 103.14C100.13 103.04 100.02 102.94 99.9199 102.83C100.76 103.66 101.91 104.18 103.19 104.18C105.76 104.18 107.84 102.1 107.84 99.53C107.84 99.03 107.76 98.54 107.61 98.09C107.62 98.1 107.63 98.12 107.64 98.13L116.19 109.29C117.58 110.67 117.27 113.01 115.56 113.97Z" fill="url(#paint3_linear_201_3151)" style=""/>
<path d="M107.84 99.53C107.84 102.1 105.76 104.18 103.19 104.18C101.91 104.18 100.76 103.66 99.9202 102.83C99.7902 102.7 99.6702 102.57 99.5602 102.43C99.3502 102.18 99.1602 101.9 99.0002 101.62L92.1702 88.97C92.1302 88.75 90.9602 88.6 90.7602 88.6C90.5602 88.6 90.3902 88.76 90.3502 88.97L90.7402 103.31V103.42C90.7402 103.43 90.7402 103.43 90.7402 103.44C90.7302 105.93 88.7002 107.95 86.2002 107.95C84.2602 107.95 82.6102 106.74 81.9602 105.04L81.6702 103.28L78.2402 83.12L89.5802 75.09L102.28 83.11L106.95 96.81L107.05 97.1C107.19 97.45 107.37 97.79 107.61 98.09C107.76 98.54 107.84 99.03 107.84 99.53Z" fill="url(#paint4_linear_201_3151)" style=""/>
<path d="M107.84 99.53C107.84 102.1 105.76 104.18 103.19 104.18C101.91 104.18 100.76 103.66 99.9202 102.83C99.7902 102.7 99.6702 102.57 99.5602 102.43C99.3502 102.18 99.1602 101.9 99.0002 101.62L92.1702 88.97C92.1302 88.75 90.9602 88.6 90.7602 88.6C90.5602 88.6 90.3902 88.76 90.3502 88.97L90.7402 103.31V103.42C90.7402 103.43 90.7402 103.43 90.7402 103.44C90.7302 105.93 88.7002 107.95 86.2002 107.95C84.2602 107.95 82.6102 106.74 81.9602 105.04L81.6702 103.28L78.2402 83.12L89.5802 75.09L102.28 83.11L106.95 96.81L107.05 97.1C107.19 97.45 107.37 97.79 107.61 98.09C107.76 98.54 107.84 99.03 107.84 99.53Z" fill="url(#paint5_linear_201_3151)" style=""/>
<path d="M104.89 75.64L102.25 73.42C102.08 73.3 101.53 73.66 101.34 73.71C101.28 73.71 100.82 73.86 100.76 73.87L99.8601 74.03C99.4801 74.12 99.2301 74.51 99.3201 74.9L99.3601 75.11C99.4401 75.5 99.8201 75.75 100.2 75.66L101.57 75.34L103.95 77.02C104.27 77.25 104.71 77.16 104.94 76.83L105.06 76.65C105.29 76.32 105.21 75.87 104.89 75.64Z" fill="#7A4C32" style="fill:#7A4C32;fill:color(display-p3 0.4784 0.2980 0.1961);fill-opacity:1;"/>
<path d="M108.77 60.8401C108.77 60.8401 106.7 53.4301 89.73 53.4301C72.76 53.4301 71.77 60.8401 71.77 60.8401L78.12 65.6701H101.37L108.77 60.8401Z" fill="#444444" style="fill:#444444;fill:color(display-p3 0.2667 0.2667 0.2667);fill-opacity:1;"/>
<path d="M109.74 60.8401C109.74 60.8401 106.67 53.4301 89.7002 53.4301C72.7302 53.4301 70.7402 60.8401 70.7402 60.8401L78.1602 67.7301V83.1501L87.9002 89.5801C88.6702 89.9701 89.5202 90.1701 90.3802 90.1701C91.2702 90.1701 92.1502 89.9501 92.9402 89.5401L102.25 83.1501V67.7301L109.74 60.8401Z" fill="url(#paint6_linear_201_3151)" style=""/>
<path d="M115.71 69.51L108.32 59.74L102.14 64.1L109.56 71.05L104.37 75.36C103.83 75.34 102.9 75.2 101.71 75.2H101.32L101.3 75.19C101.3 75.19 99.6302 75.31 99.1902 75.65C98.7902 75.96 98.8302 76.5 99.0102 76.7C99.2202 76.94 99.1702 77.36 98.9602 77.59C98.7502 77.83 98.6202 78.12 98.6402 78.42C98.6602 78.71 98.7902 78.88 99.0802 79.1C99.2202 79.2 99.2902 79.48 99.2202 79.63C99.1002 79.87 98.9102 80.28 98.9502 80.5C99.0402 80.93 99.4802 81.02 99.5802 81.35C99.6202 81.48 99.2102 81.92 99.6302 82.29C100.02 82.64 100.69 82.92 101.71 82.92C102.62 82.92 103.81 82.7 105.32 82.1C105.36 82.08 115.71 73.66 115.71 73.66C116.76 72.55 116.71 70.67 115.71 69.51Z" fill="url(#paint7_linear_201_3151)" style=""/>
<path d="M115.71 69.51L108.32 59.74L102.14 64.1L109.56 71.05L104.37 75.36C103.83 75.34 102.9 75.2 101.71 75.2H101.32L101.3 75.19C101.3 75.19 99.6302 75.31 99.1902 75.65C98.7902 75.96 98.8302 76.5 99.0102 76.7C99.2202 76.94 99.1702 77.36 98.9602 77.59C98.7502 77.83 98.6202 78.12 98.6402 78.42C98.6602 78.71 98.7902 78.88 99.0802 79.1C99.2202 79.2 99.2902 79.48 99.2202 79.63C99.1002 79.87 98.9102 80.28 98.9502 80.5C99.0402 80.93 99.4802 81.02 99.5802 81.35C99.6202 81.48 99.2102 81.92 99.6302 82.29C100.02 82.64 100.69 82.92 101.71 82.92C102.62 82.92 103.81 82.7 105.32 82.1C105.36 82.08 115.71 73.66 115.71 73.66C116.76 72.55 116.71 70.67 115.71 69.51Z" fill="url(#paint8_linear_201_3151)" style=""/>
<path d="M82.2202 78.44C82.2402 78.14 82.1102 77.85 81.9002 77.61C81.6902 77.37 81.6402 76.95 81.8502 76.72C82.0302 76.52 82.0602 75.97 81.6702 75.67C81.2302 75.33 79.5602 75.21 79.5602 75.21L79.5402 75.22H79.1502C77.9602 75.22 77.0302 75.35 76.4902 75.38L71.3002 71.07L78.7202 64.12L72.5302 59.74L65.1502 69.53C64.1502 70.68 64.1002 72.57 65.1502 73.68C65.1502 73.68 75.5002 82.1 75.5402 82.12C77.0502 82.71 78.2402 82.94 79.1502 82.94C80.1602 82.94 80.8402 82.66 81.2302 82.31C81.6502 81.93 81.2402 81.5 81.2802 81.37C81.3802 81.04 81.8102 80.95 81.9102 80.52C81.9602 80.31 81.7602 79.89 81.6402 79.65C81.5602 79.5 81.6402 79.22 81.7802 79.12C82.0702 78.9 82.2002 78.73 82.2202 78.44Z" fill="url(#paint9_linear_201_3151)" style=""/>
<path d="M82.2202 78.44C82.2402 78.14 82.1102 77.85 81.9002 77.61C81.6902 77.37 81.6402 76.95 81.8502 76.72C82.0302 76.52 82.0602 75.97 81.6702 75.67C81.2302 75.33 79.5602 75.21 79.5602 75.21L79.5402 75.22H79.1502C77.9602 75.22 77.0302 75.35 76.4902 75.38L71.3002 71.07L78.7202 64.12L72.5302 59.74L65.1502 69.53C64.1502 70.68 64.1002 72.57 65.1502 73.68C65.1502 73.68 75.5002 82.1 75.5402 82.12C77.0502 82.71 78.2402 82.94 79.1502 82.94C80.1602 82.94 80.8402 82.66 81.2302 82.31C81.6502 81.93 81.2402 81.5 81.2802 81.37C81.3802 81.04 81.8102 80.95 81.9102 80.52C81.9602 80.31 81.7602 79.89 81.6402 79.65C81.5602 79.5 81.6402 79.22 81.7802 79.12C82.0702 78.9 82.2002 78.73 82.2202 78.44Z" fill="url(#paint10_linear_201_3151)" style=""/>
<path d="M109.77 60.8401C109.77 60.8401 106.7 53.4301 89.73 53.4301C72.76 53.4301 70.77 60.8401 70.77 60.8401L78.12 67.6701H102.37L109.77 60.8401Z" fill="url(#paint11_linear_201_3151)" style=""/>
<path d="M100.76 54.8501C100.67 57.8501 96.9398 62.0701 90.2598 62.0701C83.4998 62.0701 79.7598 57.7401 79.7598 54.7401C79.7598 54.6901 79.7598 54.6401 79.7698 54.5901C82.2498 53.8901 85.4898 53.4301 89.7298 53.4301C94.4798 53.4301 98.0698 54.0101 100.76 54.8501Z" fill="url(#paint12_linear_201_3151)" style=""/>
<path d="M100.76 54.8501C100.67 57.8501 96.9398 62.0701 90.2598 62.0701C83.4998 62.0701 79.7598 57.7401 79.7598 54.7401C79.7598 54.6901 79.7598 54.6401 79.7698 54.5901C82.2498 53.8901 85.4898 53.4301 89.7298 53.4301C94.4798 53.4301 98.0698 54.0101 100.76 54.8501Z" fill="#A56C43" style="fill:#A56C43;fill:color(display-p3 0.6471 0.4235 0.2627);fill-opacity:1;"/>
<path d="M87.99 124.5H83.61C82.8 124.48 82.22 123.55 82.46 122.75C83.19 120.29 85.41 118.48 87.99 118.48C90.63 118.48 92.88 120.36 93.56 122.89C93.78 123.7 93.18 124.5 92.37 124.5H87.99Z" fill="#504F4F" style="fill:#504F4F;fill:color(display-p3 0.3137 0.3098 0.3098);fill-opacity:1;"/>
<path d="M20.1099 75.9L22.4399 73.52C22.6099 73.4 23.5399 73.38 23.7299 73.44C23.7899 73.44 24.1799 74.13 24.2399 74.14L25.1399 74.3C25.5199 74.39 25.7699 74.78 25.6799 75.17L25.6399 75.38C25.5599 75.77 25.1799 76.02 24.7999 75.93L23.4299 75.61L21.0499 77.29C20.7299 77.52 20.2899 77.43 20.0599 77.1L19.9399 76.92C19.7099 76.57 19.7899 76.12 20.1099 75.9Z" fill="#7A4C32" style="fill:#7A4C32;fill:color(display-p3 0.4784 0.2980 0.1961);fill-opacity:1;"/>
<path d="M64.99 113.67C64.43 111.24 61.75 108.55 59.12 105.95C57.42 104.27 54.36 104.62 52.69 106.33C51.02 108.04 50.72 111.11 52.42 112.79C55.05 115.39 57.78 118.03 60.21 118.55C62.12 118.96 63.71 118.35 64.28 117.77C64.85 117.18 65.43 115.58 64.99 113.67Z" fill="#504F4F" style="fill:#504F4F;fill:color(display-p3 0.3137 0.3098 0.3098);fill-opacity:1;"/>
<path d="M35.4499 124.32H29.3899L26.1099 105.04C26.7599 106.74 28.4099 107.95 30.3499 107.95C32.8499 107.95 34.8799 105.93 34.8899 103.44L35.4499 124.32Z" fill="url(#paint13_linear_201_3151)" style=""/>
<path d="M35.4499 124.32H29.3899L26.1099 105.04C26.7599 106.74 28.4099 107.95 30.3499 107.95C32.8499 107.95 34.8799 105.93 34.8899 103.44L35.4499 124.32Z" fill="url(#paint14_linear_201_3151)" style=""/>
<path d="M59.7098 113.97C58.7098 114.53 57.4698 114.46 56.5398 113.78L44.3898 103.14C44.2798 103.04 44.1698 102.94 44.0698 102.83C44.9098 103.66 46.0598 104.18 47.3398 104.18C49.9098 104.18 51.9898 102.1 51.9898 99.53C51.9898 99.03 51.9098 98.54 51.7598 98.09C51.7698 98.1 51.7798 98.12 51.7898 98.13L60.3398 109.29C61.7298 110.67 61.4198 113.01 59.7098 113.97Z" fill="url(#paint15_linear_201_3151)" style=""/>
<path d="M59.7098 113.97C58.7098 114.53 57.4698 114.46 56.5398 113.78L44.3898 103.14C44.2798 103.04 44.1698 102.94 44.0698 102.83C44.9098 103.66 46.0598 104.18 47.3398 104.18C49.9098 104.18 51.9898 102.1 51.9898 99.53C51.9898 99.03 51.9098 98.54 51.7598 98.09C51.7698 98.1 51.7798 98.12 51.7898 98.13L60.3398 109.29C61.7298 110.67 61.4198 113.01 59.7098 113.97Z" fill="url(#paint16_linear_201_3151)" style=""/>
<path d="M51.9901 99.53C51.9901 102.1 49.9101 104.18 47.3401 104.18C46.0601 104.18 44.9101 103.66 44.0701 102.83C43.9401 102.7 43.8201 102.57 43.7101 102.43C43.5001 102.18 43.3101 101.9 43.1501 101.62L36.3201 88.97C36.2801 88.75 35.1101 88.6 34.9101 88.6C34.7101 88.6 34.5401 88.76 34.5001 88.97L34.8901 103.31V103.42C34.8901 103.43 34.8901 103.43 34.8901 103.44C34.8801 105.93 32.8501 107.95 30.3501 107.95C28.4101 107.95 26.7601 106.74 26.1101 105.04L25.8201 103.28L22.3901 83.12L33.7301 75.09L46.4301 83.11L51.1001 96.81L51.2001 97.1C51.3401 97.45 51.5201 97.79 51.7601 98.09C51.9101 98.54 51.9901 99.03 51.9901 99.53Z" fill="url(#paint17_linear_201_3151)" style=""/>
<path d="M51.9901 99.53C51.9901 102.1 49.9101 104.18 47.3401 104.18C46.0601 104.18 44.9101 103.66 44.0701 102.83C43.9401 102.7 43.8201 102.57 43.7101 102.43C43.5001 102.18 43.3101 101.9 43.1501 101.62L36.3201 88.97C36.2801 88.75 35.1101 88.6 34.9101 88.6C34.7101 88.6 34.5401 88.76 34.5001 88.97L34.8901 103.31V103.42C34.8901 103.43 34.8901 103.43 34.8901 103.44C34.8801 105.93 32.8501 107.95 30.3501 107.95C28.4101 107.95 26.7601 106.74 26.1101 105.04L25.8201 103.28L22.3901 83.12L33.7301 75.09L46.4301 83.11L51.1001 96.81L51.2001 97.1C51.3401 97.45 51.5201 97.79 51.7601 98.09C51.9101 98.54 51.9901 99.03 51.9901 99.53Z" fill="url(#paint18_linear_201_3151)" style=""/>
<path d="M49.04 75.64L46.4 73.42C46.23 73.3 45.68 73.66 45.49 73.71C45.43 73.71 44.97 73.86 44.91 73.87L44.01 74.03C43.63 74.12 43.38 74.51 43.47 74.9L43.51 75.11C43.59 75.5 43.97 75.75 44.35 75.66L45.72 75.34L48.1 77.02C48.42 77.25 48.86 77.16 49.09 76.83L49.21 76.65C49.44 76.32 49.36 75.87 49.04 75.64Z" fill="#7A4C32" style="fill:#7A4C32;fill:color(display-p3 0.4784 0.2980 0.1961);fill-opacity:1;"/>
<path d="M52.9199 60.8401C52.9199 60.8401 50.8499 53.4301 33.8799 53.4301C16.9099 53.4301 15.9199 60.8401 15.9199 60.8401L22.2699 65.6701H45.5199L52.9199 60.8401Z" fill="#444444" style="fill:#444444;fill:color(display-p3 0.2667 0.2667 0.2667);fill-opacity:1;"/>
<path d="M53.8901 60.8401C53.8901 60.8401 50.8201 53.4301 33.8501 53.4301C16.8801 53.4301 14.8901 60.8401 14.8901 60.8401L22.3101 67.7301V83.1501L32.0501 89.5801C32.8201 89.9701 33.6701 90.1701 34.5301 90.1701C35.4201 90.1701 36.3001 89.9501 37.0901 89.5401L46.4001 83.1501V67.7301L53.8901 60.8401Z" fill="url(#paint19_linear_201_3151)" style=""/>
<path d="M48.1599 46.08C47.6599 45.17 48.2999 44.24 49.3899 43.09C51.1199 41.27 52.9999 37.05 51.2499 32.76C51.2599 32.74 50.9099 32.01 50.9199 31.99L50.1999 31.95C49.9699 31.92 42.0699 31.9 34.1699 31.9C26.2699 31.9 18.3699 31.92 18.1399 31.95C18.1399 31.95 17.0799 32.73 17.0899 32.76C15.3399 37.05 17.2199 41.27 18.9499 43.09C20.0399 44.24 20.6799 45.16 20.1799 46.08C19.6899 46.96 18.2499 47.09 18.2499 47.09C18.2499 47.09 18.5799 48 19.3899 48.48C20.1299 48.93 21.0499 49.04 21.6799 49.05C21.6799 49.05 24.1499 52.47 30.5899 52.47H34.1799H37.7699C44.2199 52.47 46.6899 49.05 46.6899 49.05C47.3199 49.04 48.2299 48.93 48.9799 48.48C49.7799 47.99 50.1199 47.09 50.1199 47.09C50.1199 47.09 48.6499 46.97 48.1599 46.08Z" fill="#543930" style="fill:#543930;fill:color(display-p3 0.3294 0.2235 0.1882);fill-opacity:1;"/>
<path d="M34.1602 52.48V48.69L45.6202 47.78L46.6602 49.06C46.6602 49.06 44.1902 52.48 37.7402 52.48H34.1602Z" fill="url(#paint20_radial_201_3151)" style=""/>
<path d="M46.6398 47.4101C44.9198 44.8001 48.7298 43.8301 48.7298 43.8301C48.0698 44.6501 47.7698 45.3701 48.1498 46.0801C48.6398 46.9601 50.0798 47.0901 50.0798 47.0901C50.0798 47.0901 48.1198 48.8501 46.6398 47.4101Z" fill="url(#paint21_radial_201_3151)" style=""/>
<path d="M51.2601 32.7601C52.9601 36.9101 51.1701 41.1901 49.4901 42.9901C49.2601 43.2401 48.2801 44.2001 48.0601 44.9601C48.0601 44.9601 44.2301 39.6201 43.0901 36.4901C42.8601 35.8601 42.6501 35.2101 42.6201 34.5301C42.6001 34.0301 42.6801 33.4201 42.9701 33.0001C43.3301 32.4701 51.0601 32.3201 51.0601 32.3201C51.0601 32.3301 51.2601 32.7601 51.2601 32.7601Z" fill="url(#paint22_radial_201_3151)" style=""/>
<path d="M17.08 32.7601C15.38 36.9101 17.17 41.1901 18.85 42.9901C19.08 43.2401 20.06 44.2001 20.28 44.9601C20.28 44.9601 24.11 39.6201 25.25 36.4901C25.48 35.8601 25.69 35.2101 25.72 34.5301C25.74 34.0301 25.66 33.4201 25.37 33.0001C25.01 32.4701 24.6 32.6101 23.99 32.6101C22.83 32.6101 17.78 32.3101 17.39 32.3101C17.39 32.3301 17.08 32.7601 17.08 32.7601Z" fill="url(#paint23_radial_201_3151)" style=""/>
<path d="M34.1802 52.48V48.69L22.7202 47.78L21.6802 49.06C21.6802 49.06 24.1502 52.48 30.5902 52.48H34.1802Z" fill="url(#paint24_radial_201_3151)" style=""/>
<path d="M21.6998 47.4101C23.4198 44.8001 19.6098 43.8301 19.6098 43.8301C20.2698 44.6501 20.5698 45.3701 20.1898 46.0801C19.6998 46.9601 18.2598 47.0901 18.2598 47.0901C18.2598 47.0901 20.2198 48.8501 21.6998 47.4101Z" fill="url(#paint25_radial_201_3151)" style=""/>
<path d="M59.8601 69.51L52.4701 59.74L46.2901 64.1L53.7101 71.05L48.5201 75.36C47.9801 75.34 47.0501 75.2 45.8601 75.2H45.4701L45.4501 75.19C45.4501 75.19 43.7801 75.31 43.3401 75.65C42.9401 75.96 42.9801 76.5 43.1601 76.7C43.3701 76.94 43.3201 77.36 43.1101 77.59C42.9001 77.83 42.7701 78.12 42.7901 78.42C42.8101 78.71 42.9401 78.88 43.2301 79.1C43.3701 79.2 43.4401 79.48 43.3701 79.63C43.2501 79.87 43.0601 80.28 43.1001 80.5C43.1901 80.93 43.6301 81.02 43.7301 81.35C43.7701 81.48 43.3601 81.92 43.7801 82.29C44.1701 82.64 44.8401 82.92 45.8601 82.92C46.7701 82.92 47.9601 82.7 49.4701 82.1C49.5101 82.08 59.8601 73.66 59.8601 73.66C60.9101 72.55 60.8601 70.67 59.8601 69.51Z" fill="url(#paint26_linear_201_3151)" style=""/>
<path d="M59.8601 69.51L52.4701 59.74L46.2901 64.1L53.7101 71.05L48.5201 75.36C47.9801 75.34 47.0501 75.2 45.8601 75.2H45.4701L45.4501 75.19C45.4501 75.19 43.7801 75.31 43.3401 75.65C42.9401 75.96 42.9801 76.5 43.1601 76.7C43.3701 76.94 43.3201 77.36 43.1101 77.59C42.9001 77.83 42.7701 78.12 42.7901 78.42C42.8101 78.71 42.9401 78.88 43.2301 79.1C43.3701 79.2 43.4401 79.48 43.3701 79.63C43.2501 79.87 43.0601 80.28 43.1001 80.5C43.1901 80.93 43.6301 81.02 43.7301 81.35C43.7701 81.48 43.3601 81.92 43.7801 82.29C44.1701 82.64 44.8401 82.92 45.8601 82.92C46.7701 82.92 47.9601 82.7 49.4701 82.1C49.5101 82.08 59.8601 73.66 59.8601 73.66C60.9101 72.55 60.8601 70.67 59.8601 69.51Z" fill="url(#paint27_linear_201_3151)" style=""/>
<path d="M26.3701 78.44C26.3901 78.14 26.2601 77.85 26.0501 77.61C25.8401 77.37 25.7901 76.95 26.0001 76.72C26.1801 76.52 26.2101 75.97 25.8201 75.67C25.3801 75.33 23.7101 75.21 23.7101 75.21L23.6901 75.22H23.3001C22.1101 75.22 21.1801 75.35 20.6401 75.38L15.4501 71.07L22.8701 64.12L16.6801 59.74L9.30011 69.53C8.30011 70.68 8.25011 72.57 9.30011 73.68C9.30011 73.68 19.6501 82.1 19.6901 82.12C21.2001 82.71 22.3901 82.94 23.3001 82.94C24.3101 82.94 24.9901 82.66 25.3801 82.31C25.8001 81.93 25.3901 81.5 25.4301 81.37C25.5301 81.04 25.9601 80.95 26.0601 80.52C26.1101 80.31 25.9101 79.89 25.7901 79.65C25.7101 79.5 25.7901 79.22 25.9301 79.12C26.2201 78.9 26.3501 78.73 26.3701 78.44Z" fill="url(#paint28_linear_201_3151)" style=""/>
<path d="M26.3701 78.44C26.3901 78.14 26.2601 77.85 26.0501 77.61C25.8401 77.37 25.7901 76.95 26.0001 76.72C26.1801 76.52 26.2101 75.97 25.8201 75.67C25.3801 75.33 23.7101 75.21 23.7101 75.21L23.6901 75.22H23.3001C22.1101 75.22 21.1801 75.35 20.6401 75.38L15.4501 71.07L22.8701 64.12L16.6801 59.74L9.30011 69.53C8.30011 70.68 8.25011 72.57 9.30011 73.68C9.30011 73.68 19.6501 82.1 19.6901 82.12C21.2001 82.71 22.3901 82.94 23.3001 82.94C24.3101 82.94 24.9901 82.66 25.3801 82.31C25.8001 81.93 25.3901 81.5 25.4301 81.37C25.5301 81.04 25.9601 80.95 26.0601 80.52C26.1101 80.31 25.9101 79.89 25.7901 79.65C25.7101 79.5 25.7901 79.22 25.9301 79.12C26.2201 78.9 26.3501 78.73 26.3701 78.44Z" fill="url(#paint29_linear_201_3151)" style=""/>
<path d="M53.9199 60.8401C53.9199 60.8401 50.8499 53.4301 33.8799 53.4301C16.9099 53.4301 14.9199 60.8401 14.9199 60.8401L22.2699 67.6701H46.5199L53.9199 60.8401Z" fill="url(#paint30_linear_201_3151)" style=""/>
<path d="M44.9102 54.8501C44.8202 57.8501 41.0902 62.0701 34.4102 62.0701C27.6502 62.0701 23.9102 57.7401 23.9102 54.7401C23.9102 54.6901 23.9102 54.6401 23.9202 54.5901C26.4002 53.8901 29.6402 53.4301 33.8802 53.4301C38.6302 53.4301 42.2202 54.0101 44.9102 54.8501Z" fill="url(#paint31_linear_201_3151)" style=""/>
<path d="M44.9102 54.8501C44.8202 57.8501 41.0902 62.0701 34.4102 62.0701C27.6502 62.0701 23.9102 57.7401 23.9102 54.7401C23.9102 54.6901 23.9102 54.6401 23.9202 54.5901C26.4002 53.8901 29.6402 53.4301 33.8802 53.4301C38.6302 53.4301 42.2202 54.0101 44.9102 54.8501Z" fill="#A56C43" style="fill:#A56C43;fill:color(display-p3 0.6471 0.4235 0.2627);fill-opacity:1;"/>
<path d="M32.1399 124.5H27.7599C26.9499 124.48 26.3699 123.55 26.6099 122.75C27.3399 120.29 29.5599 118.48 32.1399 118.48C34.7799 118.48 37.0299 120.36 37.7099 122.89C37.9299 123.7 37.3299 124.5 36.5199 124.5H32.1399Z" fill="#504F4F" style="fill:#504F4F;fill:color(display-p3 0.3137 0.3098 0.3098);fill-opacity:1;"/>
<path d="M33.9601 57.8C31.9901 57.8 30.3901 56.28 30.3901 54.4V50.14H38.3501V54.4C38.3501 56.27 36.7501 57.8 34.7801 57.8H33.9601Z" fill="#E59600" style="fill:#E59600;fill:color(display-p3 0.8980 0.5882 0.0000);fill-opacity:1;"/>
<path d="M33.9601 57.8C31.9901 57.8 30.3901 56.28 30.3901 54.4V50.14H38.3501V54.4C38.3501 56.27 36.7501 57.8 34.7801 57.8H33.9601Z" fill="#7A4C32" style="fill:#7A4C32;fill:color(display-p3 0.4784 0.2980 0.1961);fill-opacity:1;"/>
<path d="M45.0999 34.87H23.6499C21.3399 34.87 19.4399 36.89 19.4399 39.35C19.4399 41.81 21.3299 43.83 23.6499 43.83H45.0999C47.4099 43.83 49.3099 41.81 49.3099 39.35C49.3099 36.89 47.4099 34.87 45.0999 34.87Z" fill="#E59600" style="fill:#E59600;fill:color(display-p3 0.8980 0.5882 0.0000);fill-opacity:1;"/>
<path d="M45.0999 34.87H23.6499C21.3399 34.87 19.4399 36.89 19.4399 39.35C19.4399 41.81 21.3299 43.83 23.6499 43.83H45.0999C47.4099 43.83 49.3099 41.81 49.3099 39.35C49.3099 36.89 47.4099 34.87 45.0999 34.87Z" fill="#7A4C32" style="fill:#7A4C32;fill:color(display-p3 0.4784 0.2980 0.1961);fill-opacity:1;"/>
<path d="M34.3299 19.03C27.4999 19.03 21.1699 26.34 21.1699 36.85C21.1699 47.31 27.6899 52.48 34.3299 52.48C40.9699 52.48 47.4899 47.31 47.4899 36.85C47.4899 26.33 41.1599 19.03 34.3299 19.03Z" fill="#FFCA28" style="fill:#FFCA28;fill:color(display-p3 1.0000 0.7922 0.1569);fill-opacity:1;"/>
<path d="M34.3299 19.03C27.4999 19.03 21.1699 26.34 21.1699 36.85C21.1699 47.31 27.6899 52.48 34.3299 52.48C40.9699 52.48 47.4899 47.31 47.4899 36.85C47.4899 26.33 41.1599 19.03 34.3299 19.03Z" fill="#A56C43" style="fill:#A56C43;fill:color(display-p3 0.6471 0.4235 0.2627);fill-opacity:1;"/>
<path d="M27.9197 40.55C28.9857 40.55 29.8497 39.6546 29.8497 38.55C29.8497 37.4455 28.9857 36.55 27.9197 36.55C26.8538 36.55 25.9897 37.4455 25.9897 38.55C25.9897 39.6546 26.8538 40.55 27.9197 40.55Z" fill="#6D4C41" style="fill:#6D4C41;fill:color(display-p3 0.4275 0.2980 0.2549);fill-opacity:1;"/>
<path d="M27.9197 40.55C28.9857 40.55 29.8497 39.6546 29.8497 38.55C29.8497 37.4455 28.9857 36.55 27.9197 36.55C26.8538 36.55 25.9897 37.4455 25.9897 38.55C25.9897 39.6546 26.8538 40.55 27.9197 40.55Z" fill="#473530" style="fill:#473530;fill:color(display-p3 0.2784 0.2078 0.1882);fill-opacity:1;"/>
<path d="M40.8299 40.55C41.8958 40.55 42.7599 39.6546 42.7599 38.55C42.7599 37.4455 41.8958 36.55 40.8299 36.55C39.764 36.55 38.8999 37.4455 38.8999 38.55C38.8999 39.6546 39.764 40.55 40.8299 40.55Z" fill="#6D4C41" style="fill:#6D4C41;fill:color(display-p3 0.4275 0.2980 0.2549);fill-opacity:1;"/>
<path d="M40.8299 40.55C41.8958 40.55 42.7599 39.6546 42.7599 38.55C42.7599 37.4455 41.8958 36.55 40.8299 36.55C39.764 36.55 38.8999 37.4455 38.8999 38.55C38.8999 39.6546 39.764 40.55 40.8299 40.55Z" fill="#473530" style="fill:#473530;fill:color(display-p3 0.2784 0.2078 0.1882);fill-opacity:1;"/>
<path d="M37.5902 45.7101C36.3402 46.4501 32.2402 46.4501 30.9902 45.7101C30.2702 45.2801 29.5402 45.9401 29.8402 46.5901C30.1302 47.2301 32.3702 48.7201 34.3002 48.7201C36.2302 48.7201 38.4402 47.2301 38.7302 46.5901C39.0302 45.9301 38.3102 45.2801 37.5902 45.7101Z" fill="#6D4C41" style="fill:#6D4C41;fill:color(display-p3 0.4275 0.2980 0.2549);fill-opacity:1;"/>
<path d="M37.5902 45.7101C36.3402 46.4501 32.2402 46.4501 30.9902 45.7101C30.2702 45.2801 29.5402 45.9401 29.8402 46.5901C30.1302 47.2301 32.3702 48.7201 34.3002 48.7201C36.2302 48.7201 38.4402 47.2301 38.7302 46.5901C39.0302 45.9301 38.3102 45.2801 37.5902 45.7101Z" fill="#473530" style="fill:#473530;fill:color(display-p3 0.2784 0.2078 0.1882);fill-opacity:1;"/>
<path d="M35.62 42.1001C35.58 42.0801 35.54 42.0701 35.49 42.0701H32.72C32.68 42.0801 32.64 42.0901 32.59 42.1001C32.34 42.2001 32.2 42.4601 32.32 42.7401C32.44 43.0201 32.99 43.8001 34.11 43.8001C35.22 43.8001 35.78 43.0201 35.9 42.7401C36.01 42.4601 35.87 42.2001 35.62 42.1001Z" fill="#6D4C41" style="fill:#6D4C41;fill:color(display-p3 0.4275 0.2980 0.2549);fill-opacity:1;"/>
<path d="M35.62 42.1001C35.58 42.0801 35.54 42.0701 35.49 42.0701H32.72C32.68 42.0801 32.64 42.0901 32.59 42.1001C32.34 42.2001 32.2 42.4601 32.32 42.7401C32.44 43.0201 32.99 43.8001 34.11 43.8001C35.22 43.8001 35.78 43.0201 35.9 42.7401C36.01 42.4601 35.87 42.2001 35.62 42.1001Z" fill="#473530" style="fill:#473530;fill:color(display-p3 0.2784 0.2078 0.1882);fill-opacity:1;"/>
<path d="M35.62 42.1001C35.58 42.0801 35.54 42.0701 35.49 42.0701H32.72C32.68 42.0801 32.64 42.0901 32.59 42.1001C32.34 42.2001 32.2 42.4601 32.32 42.7401C32.44 43.0201 32.99 43.8001 34.11 43.8001C35.22 43.8001 35.78 43.0201 35.9 42.7401C36.01 42.4601 35.87 42.2001 35.62 42.1001Z" fill="#875334" style="fill:#875334;fill:color(display-p3 0.5294 0.3255 0.2039);fill-opacity:1;"/>
<path d="M50.2399 24.13C49.2599 22.65 47.0699 20.66 45.0999 20.53C44.7799 18.64 42.7599 17.03 40.7999 16.41C35.4899 14.73 32.0399 16.61 30.1799 17.63C29.7899 17.84 27.2999 19.22 25.5599 18.23C24.4699 17.61 24.4899 15.93 24.4899 15.93C24.4899 15.93 21.0699 17.23 22.2399 20.86C21.0699 20.91 19.5199 21.4 18.7099 23.05C17.7399 25.01 18.0799 26.66 18.3699 27.44C17.3599 28.3 16.0899 30.12 16.9599 32.5C17.6199 34.28 20.2399 35.11 20.2399 35.11C20.0599 38.32 20.6599 40.3 20.9699 41.1C21.0299 41.24 21.2199 41.23 21.2599 41.08C21.6599 39.49 23.0099 33.94 22.8799 32.98C22.8799 32.98 27.4299 32.08 31.7699 28.88C32.6499 28.23 33.6099 27.68 34.6299 27.27C40.0799 25.1 41.2199 28.8 41.2199 28.8C41.2199 28.8 44.9999 28.07 46.1399 33.32C46.5699 35.29 46.8599 38.43 47.0999 40.64C47.1199 40.8 47.3299 40.83 47.3899 40.68C47.7699 39.81 48.5299 38.07 48.7199 36.3C48.7799 35.68 50.4599 34.86 51.1799 32.18C52.1299 28.62 50.9499 25.2 50.2399 24.13Z" fill="#543930" style="fill:#543930;fill:color(display-p3 0.3294 0.2235 0.1882);fill-opacity:1;"/>
<path d="M48.69 36.32C48.75 35.7 50.43 34.8801 51.15 32.2001C51.23 31.9201 51.29 31.63 51.35 31.34C51.93 28.09 50.88 25.11 50.23 24.13C49.33 22.76 47.38 20.96 45.54 20.6C45.38 20.58 45.22 20.56 45.07 20.55C45.07 20.55 45.2 21.41 44.85 22.1C44.4 22.99 43.48 23.2001 43.48 23.2001C48.3 28.0001 47.96 32.02 48.69 36.32Z" fill="url(#paint32_radial_201_3151)" style=""/>
<path d="M31.3399 17.0199C30.8999 17.2299 30.5099 17.4399 30.1799 17.6299C29.7899 17.8399 27.2999 19.2199 25.5599 18.2299C24.4899 17.6199 24.4899 15.9899 24.4899 15.9299C23.9999 16.5599 22.4999 21.0599 26.8699 21.3599C28.7499 21.4899 29.9099 19.8499 30.5999 18.4599C30.8399 17.9499 31.2299 17.2199 31.3399 17.0199Z" fill="url(#paint33_radial_201_3151)" style=""/>
<path d="M40.2398 16.25C43.1798 17.04 44.6098 18.54 45.0898 20.53C45.2298 21.11 45.3998 26.58 34.9698 20.37C31.0898 18.06 32.1498 16.61 32.5998 16.45C34.3798 15.81 36.9598 15.36 40.2398 16.25Z" fill="url(#paint34_radial_201_3151)" style=""/>
<path d="M24.4798 15.9299C24.4698 15.9299 24.4698 15.9399 24.4598 15.9399C24.0898 16.0999 21.1498 17.4599 22.2498 20.8599L25.3698 21.3599C22.6098 18.5599 24.4998 15.9299 24.4998 15.9299H24.4798Z" fill="url(#paint35_radial_201_3151)" style=""/>
<path d="M24.1698 21.17L22.2398 20.86C22.1598 20.86 21.9098 20.88 21.7698 20.9C20.6798 21.05 19.3998 21.61 18.7098 23.05C17.9598 24.6 17.9798 25.93 18.1898 26.81C18.2498 27.11 18.3698 27.44 18.3698 27.44C18.3698 27.44 19.3298 26.53 21.5998 26.47L24.1698 21.17Z" fill="url(#paint36_radial_201_3151)" style=""/>
<path d="M18.27 27.52C17.32 28.36 16.04 30.25 16.98 32.58C17.69 34.34 20.23 35.1 20.23 35.1C20.23 35.11 20.74 35.26 21 35.26L21.59 26.48C20.37 26.48 19.21 26.84 18.45 27.37C18.46 27.38 18.27 27.51 18.27 27.52Z" fill="url(#paint37_radial_201_3151)" style=""/>
<path d="M104.41 46.08C103.91 45.17 104.55 44.24 105.64 43.09C107.37 41.27 109.25 37.05 107.5 32.76C107.51 32.74 107.16 32.01 107.17 31.99L106.45 31.95C106.22 31.92 98.3204 31.9 90.4204 31.9C82.5204 31.9 74.6204 31.92 74.3904 31.95C74.3904 31.95 73.3304 32.73 73.3404 32.76C71.5904 37.05 73.4704 41.27 75.2004 43.09C76.2904 44.24 76.9304 45.16 76.4304 46.08C75.9404 46.96 74.5004 47.09 74.5004 47.09C74.5004 47.09 74.8304 48 75.6404 48.48C76.3804 48.93 77.3004 49.04 77.9304 49.05C77.9304 49.05 80.4004 52.47 86.8504 52.47H90.4404H94.0304C100.48 52.47 102.95 49.05 102.95 49.05C103.58 49.04 104.49 48.93 105.24 48.48C106.04 47.99 106.38 47.09 106.38 47.09C106.38 47.09 104.89 46.97 104.41 46.08Z" fill="#543930" style="fill:#543930;fill:color(display-p3 0.3294 0.2235 0.1882);fill-opacity:1;"/>
<path d="M90.4102 52.48V48.69L101.87 47.78L102.91 49.06C102.91 49.06 100.44 52.48 93.9902 52.48H90.4102Z" fill="url(#paint38_radial_201_3151)" style=""/>
<path d="M102.88 47.4101C101.16 44.8001 104.97 43.8301 104.97 43.8301C104.31 44.6501 104.01 45.3701 104.4 46.0801C104.89 46.9601 106.33 47.0901 106.33 47.0901C106.33 47.0901 104.37 48.8501 102.88 47.4101Z" fill="url(#paint39_radial_201_3151)" style=""/>
<path d="M107.5 32.7601C109.2 36.9101 107.41 41.1901 105.73 42.9901C105.5 43.2401 104.52 44.2001 104.3 44.9601C104.3 44.9601 100.47 39.6201 99.3303 36.4901C99.1003 35.8601 98.8903 35.2101 98.8603 34.5301C98.8403 34.0301 98.9203 33.4201 99.2103 33.0001C99.5703 32.4701 107.3 32.3201 107.3 32.3201C107.3 32.3301 107.5 32.7601 107.5 32.7601Z" fill="url(#paint40_radial_201_3151)" style=""/>
<path d="M73.3202 32.7601C71.6202 36.9101 73.4102 41.1901 75.0902 42.9901C75.3202 43.2401 76.3002 44.2001 76.5202 44.9601C76.5202 44.9601 80.3502 39.6201 81.4902 36.4901C81.7202 35.8601 81.9302 35.2101 81.9602 34.5301C81.9802 34.0301 81.9002 33.4201 81.6102 33.0001C81.2502 32.4701 80.8402 32.6101 80.2302 32.6101C79.0702 32.6101 74.0202 32.3101 73.6202 32.3101C73.6302 32.3301 73.3202 32.7601 73.3202 32.7601Z" fill="url(#paint41_radial_201_3151)" style=""/>
<path d="M90.4204 52.48V48.69L78.9604 47.78L77.9204 49.06C77.9204 49.06 80.3904 52.48 86.8404 52.48H90.4204Z" fill="url(#paint42_radial_201_3151)" style=""/>
<path d="M77.95 47.4101C79.67 44.8001 75.86 43.8301 75.86 43.8301C76.52 44.6501 76.82 45.3701 76.43 46.0801C75.94 46.9601 74.5 47.0901 74.5 47.0901C74.5 47.0901 76.46 48.8501 77.95 47.4101Z" fill="url(#paint43_radial_201_3151)" style=""/>
<path d="M49.95 5.83995C49.78 4.83995 48.75 4.24995 47.81 4.59995C45.59 5.41995 41.83 7.22995 39.93 10.53C38.5 13.01 37.9 16.6899 37.66 19.7099C37.57 20.8099 36.62 21.6299 35.52 21.5499C35.15 21.5199 33.5799 21.5199 33.2099 21.5499C32.1099 21.6299 31.1499 20.82 31.0699 19.7099C30.8299 16.6899 30.2299 13.01 28.7999 10.53C26.8999 7.21995 23.1199 5.41995 20.9099 4.59995C19.9699 4.24995 18.96 4.83995 18.79 5.82995C18.39 8.15995 18.0599 12.3499 19.9699 15.65C21.3999 18.1399 24.2699 20.4899 26.7599 22.2099C27.32 22.5999 27.32 23.41 26.78 23.83C25.7699 24.6 25.01 25.5 24.42 26.4C23.84 27.2999 24.87 28.3899 25.77 27.8099C27.55 26.66 30.26 25.7199 34.36 25.7199C38.4599 25.7199 41.17 26.66 42.95 27.8099C43.85 28.3899 44.8899 27.2999 44.2999 26.4C43.7099 25.49 42.95 24.6 41.95 23.82C41.41 23.4 41.41 22.59 41.97 22.2C44.45 20.48 47.3199 18.13 48.7599 15.64C50.6699 12.35 50.35 8.17995 49.95 5.83995Z" fill="url(#paint44_linear_201_3151)" style=""/>
<path d="M42.27 12.27C41.23 14.07 41.02 17.13 40.97 18.45C40.96 18.74 41.26 18.92 41.51 18.76C42.63 18.06 45.16 16.35 46.2 14.54C47.11 12.96 47.03 11 46.88 9.90999C46.82 9.43999 46.36 9.17999 45.93 9.35999C44.91 9.77999 43.18 10.69 42.27 12.27Z" fill="#FF4081" style="fill:#FF4081;fill:color(display-p3 1.0000 0.2510 0.5059);fill-opacity:1;"/>
<path d="M26.4597 12.27C27.4997 14.07 27.7197 17.13 27.7597 18.46C27.7697 18.75 27.4697 18.93 27.2297 18.77C26.1097 18.07 23.5797 16.36 22.5397 14.55C21.6297 12.97 21.7097 11.01 21.8497 9.92C21.9097 9.45 22.3697 9.18999 22.7997 9.36999C23.8097 9.77999 25.5497 10.69 26.4597 12.27Z" fill="#FF4081" style="fill:#FF4081;fill:color(display-p3 1.0000 0.2510 0.5059);fill-opacity:1;"/>
<path d="M90.0002 57.8C88.0302 57.8 86.4302 56.28 86.4302 54.4V50.14H94.3902V54.4C94.3902 56.27 92.7902 57.8 90.8202 57.8H90.0002Z" fill="#E59600" style="fill:#E59600;fill:color(display-p3 0.8980 0.5882 0.0000);fill-opacity:1;"/>
<path d="M90.0002 57.8C88.0302 57.8 86.4302 56.28 86.4302 54.4V50.14H94.3902V54.4C94.3902 56.27 92.7902 57.8 90.8202 57.8H90.0002Z" fill="#7A4C32" style="fill:#7A4C32;fill:color(display-p3 0.4784 0.2980 0.1961);fill-opacity:1;"/>
<path d="M101.14 34.87H79.6802C77.3702 34.87 75.4702 36.89 75.4702 39.35C75.4702 41.81 77.3602 43.83 79.6802 43.83H101.13C103.44 43.83 105.34 41.81 105.34 39.35C105.35 36.89 103.44 34.87 101.14 34.87Z" fill="#E59600" style="fill:#E59600;fill:color(display-p3 0.8980 0.5882 0.0000);fill-opacity:1;"/>
<path d="M101.14 34.87H79.6802C77.3702 34.87 75.4702 36.89 75.4702 39.35C75.4702 41.81 77.3602 43.83 79.6802 43.83H101.13C103.44 43.83 105.34 41.81 105.34 39.35C105.35 36.89 103.44 34.87 101.14 34.87Z" fill="#7A4C32" style="fill:#7A4C32;fill:color(display-p3 0.4784 0.2980 0.1961);fill-opacity:1;"/>
<path d="M90.3602 19.03C83.5302 19.03 77.2002 26.34 77.2002 36.85C77.2002 47.31 83.7202 52.48 90.3602 52.48C97.0002 52.48 103.52 47.31 103.52 36.85C103.53 26.33 97.1902 19.03 90.3602 19.03Z" fill="#FFCA28" style="fill:#FFCA28;fill:color(display-p3 1.0000 0.7922 0.1569);fill-opacity:1;"/>
<path d="M90.3602 19.03C83.5302 19.03 77.2002 26.34 77.2002 36.85C77.2002 47.31 83.7202 52.48 90.3602 52.48C97.0002 52.48 103.52 47.31 103.52 36.85C103.53 26.33 97.1902 19.03 90.3602 19.03Z" fill="#A56C43" style="fill:#A56C43;fill:color(display-p3 0.6471 0.4235 0.2627);fill-opacity:1;"/>
<path d="M83.9603 40.55C85.0262 40.55 85.8903 39.6546 85.8903 38.55C85.8903 37.4455 85.0262 36.55 83.9603 36.55C82.8944 36.55 82.0303 37.4455 82.0303 38.55C82.0303 39.6546 82.8944 40.55 83.9603 40.55Z" fill="#6D4C41" style="fill:#6D4C41;fill:color(display-p3 0.4275 0.2980 0.2549);fill-opacity:1;"/>
<path d="M83.9603 40.55C85.0262 40.55 85.8903 39.6546 85.8903 38.55C85.8903 37.4455 85.0262 36.55 83.9603 36.55C82.8944 36.55 82.0303 37.4455 82.0303 38.55C82.0303 39.6546 82.8944 40.55 83.9603 40.55Z" fill="#473530" style="fill:#473530;fill:color(display-p3 0.2784 0.2078 0.1882);fill-opacity:1;"/>
<path d="M96.8602 40.55C97.9261 40.55 98.7902 39.6546 98.7902 38.55C98.7902 37.4455 97.9261 36.55 96.8602 36.55C95.7943 36.55 94.9302 37.4455 94.9302 38.55C94.9302 39.6546 95.7943 40.55 96.8602 40.55Z" fill="#6D4C41" style="fill:#6D4C41;fill:color(display-p3 0.4275 0.2980 0.2549);fill-opacity:1;"/>
<path d="M96.8602 40.55C97.9261 40.55 98.7902 39.6546 98.7902 38.55C98.7902 37.4455 97.9261 36.55 96.8602 36.55C95.7943 36.55 94.9302 37.4455 94.9302 38.55C94.9302 39.6546 95.7943 40.55 96.8602 40.55Z" fill="#473530" style="fill:#473530;fill:color(display-p3 0.2784 0.2078 0.1882);fill-opacity:1;"/>
<path d="M93.6204 45.7101C92.3704 46.4501 88.2704 46.4501 87.0204 45.7101C86.3004 45.2801 85.5704 45.9401 85.8704 46.5901C86.1604 47.2301 88.4004 48.7201 90.3304 48.7201C92.2604 48.7201 94.4704 47.2301 94.7604 46.5901C95.0704 45.9301 94.3504 45.2801 93.6204 45.7101Z" fill="#6D4C41" style="fill:#6D4C41;fill:color(display-p3 0.4275 0.2980 0.2549);fill-opacity:1;"/>
<path d="M93.6204 45.7101C92.3704 46.4501 88.2704 46.4501 87.0204 45.7101C86.3004 45.2801 85.5704 45.9401 85.8704 46.5901C86.1604 47.2301 88.4004 48.7201 90.3304 48.7201C92.2604 48.7201 94.4704 47.2301 94.7604 46.5901C95.0704 45.9301 94.3504 45.2801 93.6204 45.7101Z" fill="#473530" style="fill:#473530;fill:color(display-p3 0.2784 0.2078 0.1882);fill-opacity:1;"/>
<path d="M91.6502 42.1001C91.6102 42.0801 91.5702 42.0701 91.5202 42.0701H88.7502C88.7102 42.0801 88.6702 42.0901 88.6202 42.1001C88.3702 42.2001 88.2302 42.4601 88.3502 42.7401C88.4702 43.0201 89.0202 43.8001 90.1402 43.8001C91.2502 43.8001 91.8102 43.0201 91.9302 42.7401C92.0402 42.4601 91.9002 42.2001 91.6502 42.1001Z" fill="#6D4C41" style="fill:#6D4C41;fill:color(display-p3 0.4275 0.2980 0.2549);fill-opacity:1;"/>
<path d="M91.6502 42.1001C91.6102 42.0801 91.5702 42.0701 91.5202 42.0701H88.7502C88.7102 42.0801 88.6702 42.0901 88.6202 42.1001C88.3702 42.2001 88.2302 42.4601 88.3502 42.7401C88.4702 43.0201 89.0202 43.8001 90.1402 43.8001C91.2502 43.8001 91.8102 43.0201 91.9302 42.7401C92.0402 42.4601 91.9002 42.2001 91.6502 42.1001Z" fill="#473530" style="fill:#473530;fill:color(display-p3 0.2784 0.2078 0.1882);fill-opacity:1;"/>
<path d="M91.6502 42.1001C91.6102 42.0801 91.5702 42.0701 91.5202 42.0701H88.7502C88.7102 42.0801 88.6702 42.0901 88.6202 42.1001C88.3702 42.2001 88.2302 42.4601 88.3502 42.7401C88.4702 43.0201 89.0202 43.8001 90.1402 43.8001C91.2502 43.8001 91.8102 43.0201 91.9302 42.7401C92.0402 42.4601 91.9002 42.2001 91.6502 42.1001Z" fill="#875334" style="fill:#875334;fill:color(display-p3 0.5294 0.3255 0.2039);fill-opacity:1;"/>
<path d="M106.48 24.13C105.5 22.65 103.31 20.66 101.34 20.53C101.02 18.64 99.0005 17.03 97.0405 16.41C91.7305 14.73 88.2805 16.61 86.4205 17.63C86.0305 17.84 83.5405 19.22 81.8005 18.23C80.7105 17.61 80.7305 15.93 80.7305 15.93C80.7305 15.93 77.3105 17.23 78.4805 20.86C77.3105 20.91 75.7705 21.4 74.9505 23.05C73.9805 25.01 74.3205 26.66 74.6005 27.44C73.6005 28.3 72.3205 30.13 73.2005 32.5C73.8605 34.28 76.4805 35.11 76.4805 35.11C76.3005 38.32 76.9005 40.3 77.2105 41.1C77.2705 41.24 77.4605 41.23 77.5005 41.08C77.9005 39.49 79.2505 33.94 79.1205 32.98C79.1205 32.98 83.6705 32.08 88.0105 28.88C88.8905 28.23 89.8505 27.68 90.8705 27.27C96.3205 25.1 97.4605 28.8 97.4605 28.8C97.4605 28.8 101.24 28.07 102.38 33.32C102.81 35.29 103.1 38.43 103.34 40.64C103.36 40.8 103.57 40.83 103.63 40.68C104.01 39.81 104.77 38.07 104.95 36.3C105.01 35.68 106.69 34.86 107.41 32.18C108.38 28.62 107.19 25.2 106.48 24.13Z" fill="#543930" style="fill:#543930;fill:color(display-p3 0.3294 0.2235 0.1882);fill-opacity:1;"/>
<path d="M104.94 36.32C105 35.7 106.68 34.8801 107.4 32.2001C107.48 31.9201 107.54 31.63 107.6 31.34C108.18 28.09 107.13 25.11 106.48 24.13C105.58 22.76 103.63 20.96 101.79 20.6C101.63 20.58 101.47 20.56 101.32 20.55C101.32 20.55 101.45 21.41 101.1 22.1C100.65 22.99 99.7305 23.2001 99.7305 23.2001C104.55 28.0001 104.2 32.02 104.94 36.32Z" fill="url(#paint45_radial_201_3151)" style=""/>
<path d="M87.5802 17.0199C87.1402 17.2299 86.7502 17.4399 86.4202 17.6299C86.0302 17.8399 83.5402 19.2199 81.8002 18.2299C80.7302 17.6199 80.7302 15.9899 80.7302 15.9299C80.2402 16.5599 78.7402 21.0599 83.1102 21.3599C84.9902 21.4899 86.1502 19.8499 86.8402 18.4599C87.0902 17.9499 87.4802 17.2199 87.5802 17.0199Z" fill="url(#paint46_radial_201_3151)" style=""/>
<path d="M96.4903 16.25C99.4303 17.04 100.86 18.54 101.34 20.53C101.48 21.11 101.65 26.58 91.2203 20.37C87.3403 18.06 88.4003 16.61 88.8503 16.45C90.6203 15.81 93.2003 15.36 96.4903 16.25Z" fill="url(#paint47_radial_201_3151)" style=""/>
<path d="M80.7201 15.9299C80.7101 15.9299 80.7101 15.9399 80.7001 15.9399C80.3301 16.0999 77.3901 17.4599 78.4901 20.8599L81.6101 21.3599C78.8501 18.5599 80.7401 15.9299 80.7401 15.9299H80.7201Z" fill="url(#paint48_radial_201_3151)" style=""/>
<path d="M80.41 21.17L78.48 20.86C78.41 20.86 78.15 20.88 78.01 20.9C76.92 21.05 75.64 21.61 74.95 23.05C74.2 24.6 74.23 25.93 74.43 26.81C74.49 27.11 74.61 27.44 74.61 27.44C74.61 27.44 75.57 26.53 77.84 26.47L80.41 21.17Z" fill="url(#paint49_radial_201_3151)" style=""/>
<path d="M74.5102 27.52C73.5602 28.36 72.2802 30.25 73.2202 32.58C73.9302 34.34 76.4702 35.1 76.4702 35.1C76.4702 35.11 76.9802 35.26 77.2402 35.26L77.8302 26.48C76.6202 26.48 75.4502 26.84 74.6902 27.37C74.7102 27.38 74.5102 27.51 74.5102 27.52Z" fill="url(#paint50_radial_201_3151)" style=""/>
<path d="M105.99 5.83995C105.82 4.83995 104.79 4.24995 103.85 4.59995C101.63 5.41995 97.87 7.22995 95.97 10.53C94.54 13.01 93.94 16.6899 93.7 19.7099C93.61 20.8099 92.66 21.6299 91.56 21.5499C91.19 21.5199 89.62 21.5199 89.25 21.5499C88.15 21.6299 87.19 20.82 87.11 19.7099C86.87 16.6899 86.27 13.01 84.84 10.53C82.94 7.21995 79.16 5.41995 76.95 4.59995C76.01 4.24995 75 4.83995 74.83 5.82995C74.43 8.15995 74.1 12.3499 76.01 15.65C77.44 18.1399 80.31 20.4899 82.8 22.2099C83.36 22.5999 83.36 23.41 82.82 23.83C81.81 24.6 81.05 25.5 80.46 26.4C79.88 27.2999 80.91 28.3899 81.81 27.8099C83.59 26.66 86.3 25.7199 90.4 25.7199C94.5 25.7199 97.21 26.66 98.99 27.8099C99.89 28.3899 100.93 27.2999 100.34 26.4C99.75 25.49 98.99 24.6 97.99 23.82C97.45 23.4 97.45 22.59 98.01 22.2C100.49 20.48 103.36 18.13 104.8 15.64C106.71 12.35 106.39 8.17995 105.99 5.83995Z" fill="url(#paint51_linear_201_3151)" style=""/>
<path d="M98.31 12.27C97.27 14.07 97.06 17.13 97.01 18.45C97 18.74 97.3 18.92 97.55 18.76C98.67 18.06 101.2 16.35 102.24 14.54C103.15 12.96 103.07 11 102.92 9.90999C102.86 9.43999 102.4 9.17999 101.97 9.35999C100.95 9.77999 99.22 10.69 98.31 12.27Z" fill="#FF4081" style="fill:#FF4081;fill:color(display-p3 1.0000 0.2510 0.5059);fill-opacity:1;"/>
<path d="M82.4998 12.27C83.5398 14.07 83.7598 17.13 83.7998 18.46C83.8098 18.75 83.5098 18.93 83.2698 18.77C82.1498 18.07 79.6198 16.36 78.5798 14.55C77.6698 12.97 77.7498 11.01 77.8898 9.92C77.9498 9.45 78.4098 9.18999 78.8398 9.36999C79.8498 9.77999 81.5898 10.69 82.4998 12.27Z" fill="#FF4081" style="fill:#FF4081;fill:color(display-p3 1.0000 0.2510 0.5059);fill-opacity:1;"/>
<path d="M30.89 35.06C30.52 34.57 29.67 33.86 28.02 33.86C26.37 33.86 25.51 34.57 25.15 35.06C24.99 35.28 25.03 35.53 25.14 35.68C25.24 35.82 25.55 35.95 25.9 35.83C26.24 35.71 26.91 35.37 28.03 35.36C29.15 35.37 29.82 35.71 30.16 35.83C30.5 35.95 30.81 35.82 30.92 35.68C31.01 35.52 31.05 35.27 30.89 35.06Z" fill="#6D4C41" style="fill:#6D4C41;fill:color(display-p3 0.4275 0.2980 0.2549);fill-opacity:1;"/>
<path d="M30.89 35.06C30.52 34.57 29.67 33.86 28.02 33.86C26.37 33.86 25.51 34.57 25.15 35.06C24.99 35.28 25.03 35.53 25.14 35.68C25.24 35.82 25.55 35.95 25.9 35.83C26.24 35.71 26.91 35.37 28.03 35.36C29.15 35.37 29.82 35.71 30.16 35.83C30.5 35.95 30.81 35.82 30.92 35.68C31.01 35.52 31.05 35.27 30.89 35.06Z" fill="#473530" style="fill:#473530;fill:color(display-p3 0.2784 0.2078 0.1882);fill-opacity:1;"/>
<path d="M43.66 35.06C43.29 34.57 42.44 33.86 40.79 33.86C39.14 33.86 38.28 34.57 37.92 35.06C37.76 35.28 37.8 35.53 37.91 35.68C38.01 35.82 38.32 35.95 38.67 35.83C39.01 35.71 39.68 35.37 40.8 35.36C41.92 35.37 42.59 35.71 42.93 35.83C43.27 35.95 43.58 35.82 43.69 35.68C43.78 35.52 43.82 35.27 43.66 35.06Z" fill="#6D4C41" style="fill:#6D4C41;fill:color(display-p3 0.4275 0.2980 0.2549);fill-opacity:1;"/>
<path d="M43.66 35.06C43.29 34.57 42.44 33.86 40.79 33.86C39.14 33.86 38.28 34.57 37.92 35.06C37.76 35.28 37.8 35.53 37.91 35.68C38.01 35.82 38.32 35.95 38.67 35.83C39.01 35.71 39.68 35.37 40.8 35.36C41.92 35.37 42.59 35.71 42.93 35.83C43.27 35.95 43.58 35.82 43.69 35.68C43.78 35.52 43.82 35.27 43.66 35.06Z" fill="#473530" style="fill:#473530;fill:color(display-p3 0.2784 0.2078 0.1882);fill-opacity:1;"/>
<path d="M86.8002 35.06C86.4302 34.57 85.5802 33.86 83.9302 33.86C82.2802 33.86 81.4202 34.57 81.0602 35.06C80.9002 35.28 80.9402 35.53 81.0502 35.68C81.1502 35.82 81.4602 35.95 81.8102 35.83C82.1502 35.71 82.8202 35.37 83.9402 35.36C85.0602 35.37 85.7302 35.71 86.0702 35.83C86.4102 35.95 86.7202 35.82 86.8302 35.68C86.9202 35.52 86.9602 35.27 86.8002 35.06Z" fill="#6D4C41" style="fill:#6D4C41;fill:color(display-p3 0.4275 0.2980 0.2549);fill-opacity:1;"/>
<path d="M86.8002 35.06C86.4302 34.57 85.5802 33.86 83.9302 33.86C82.2802 33.86 81.4202 34.57 81.0602 35.06C80.9002 35.28 80.9402 35.53 81.0502 35.68C81.1502 35.82 81.4602 35.95 81.8102 35.83C82.1502 35.71 82.8202 35.37 83.9402 35.36C85.0602 35.37 85.7302 35.71 86.0702 35.83C86.4102 35.95 86.7202 35.82 86.8302 35.68C86.9202 35.52 86.9602 35.27 86.8002 35.06Z" fill="#473530" style="fill:#473530;fill:color(display-p3 0.2784 0.2078 0.1882);fill-opacity:1;"/>
<path d="M99.5702 35.06C99.2002 34.57 98.3502 33.86 96.7002 33.86C95.0502 33.86 94.1902 34.57 93.8302 35.06C93.6702 35.28 93.7102 35.53 93.8202 35.68C93.9202 35.82 94.2302 35.95 94.5802 35.83C94.9202 35.71 95.5902 35.37 96.7102 35.36C97.8302 35.37 98.5002 35.71 98.8402 35.83C99.1802 35.95 99.4902 35.82 99.6002 35.68C99.6902 35.52 99.7302 35.27 99.5702 35.06Z" fill="#6D4C41" style="fill:#6D4C41;fill:color(display-p3 0.4275 0.2980 0.2549);fill-opacity:1;"/>
<path d="M99.5702 35.06C99.2002 34.57 98.3502 33.86 96.7002 33.86C95.0502 33.86 94.1902 34.57 93.8302 35.06C93.6702 35.28 93.7102 35.53 93.8202 35.68C93.9202 35.82 94.2302 35.95 94.5802 35.83C94.9202 35.71 95.5902 35.37 96.7102 35.36C97.8302 35.37 98.5002 35.71 98.8402 35.83C99.1802 35.95 99.4902 35.82 99.6002 35.68C99.6902 35.52 99.7302 35.27 99.5702 35.06Z" fill="#473530" style="fill:#473530;fill:color(display-p3 0.2784 0.2078 0.1882);fill-opacity:1;"/>
<path d="M75.96 75.9L78.29 73.52C78.46 73.4 79.39 73.38 79.58 73.44C79.64 73.44 80.03 74.13 80.09 74.14L80.99 74.3C81.37 74.39 81.62 74.78 81.53 75.17L81.49 75.38C81.41 75.77 81.03 76.02 80.65 75.93L79.28 75.61L76.9 77.29C76.58 77.52 76.14 77.43 75.91 77.1L75.79 76.92C75.56 76.57 75.64 76.12 75.96 75.9Z" fill="#EDA600" style="fill:#EDA600;fill:color(display-p3 0.9294 0.6510 0.0000);fill-opacity:1;"/>
<path d="M75.96 75.9L78.29 73.52C78.46 73.4 79.39 73.38 79.58 73.44C79.64 73.44 80.03 74.13 80.09 74.14L80.99 74.3C81.37 74.39 81.62 74.78 81.53 75.17L81.49 75.38C81.41 75.77 81.03 76.02 80.65 75.93L79.28 75.61L76.9 77.29C76.58 77.52 76.14 77.43 75.91 77.1L75.79 76.92C75.56 76.57 75.64 76.12 75.96 75.9Z" fill="#99674F" style="fill:#99674F;fill:color(display-p3 0.6000 0.4039 0.3098);fill-opacity:1;"/>
<path d="M120.84 113.67C120.28 111.24 117.6 108.55 114.97 105.95C113.27 104.27 110.21 104.62 108.54 106.33C106.87 108.04 106.57 111.11 108.27 112.79C110.9 115.39 113.63 118.03 116.06 118.55C117.97 118.96 119.56 118.35 120.13 117.77C120.7 117.18 121.28 115.58 120.84 113.67Z" fill="#504F4F" style="fill:#504F4F;fill:color(display-p3 0.3137 0.3098 0.3098);fill-opacity:1;"/>
<path d="M91.3 124.32H85.24L81.96 105.04C82.61 106.74 84.26 107.95 86.2 107.95C88.7 107.95 90.73 105.93 90.74 103.44L91.3 124.32Z" fill="url(#paint52_linear_201_3151)" style=""/>
<path d="M91.3 124.32H85.24L81.96 105.04C82.61 106.74 84.26 107.95 86.2 107.95C88.7 107.95 90.73 105.93 90.74 103.44L91.3 124.32Z" fill="url(#paint53_linear_201_3151)" style=""/>
<path d="M115.56 113.97C114.56 114.53 113.32 114.46 112.39 113.78L100.24 103.14C100.13 103.04 100.02 102.94 99.9199 102.83C100.76 103.66 101.91 104.18 103.19 104.18C105.76 104.18 107.84 102.1 107.84 99.5298C107.84 99.0298 107.76 98.5398 107.61 98.0898C107.62 98.0998 107.63 98.1198 107.64 98.1298L116.19 109.29C117.58 110.67 117.27 113.01 115.56 113.97Z" fill="url(#paint54_linear_201_3151)" style=""/>
<path d="M115.56 113.97C114.56 114.53 113.32 114.46 112.39 113.78L100.24 103.14C100.13 103.04 100.02 102.94 99.9199 102.83C100.76 103.66 101.91 104.18 103.19 104.18C105.76 104.18 107.84 102.1 107.84 99.5298C107.84 99.0298 107.76 98.5398 107.61 98.0898C107.62 98.0998 107.63 98.1198 107.64 98.1298L116.19 109.29C117.58 110.67 117.27 113.01 115.56 113.97Z" fill="url(#paint55_linear_201_3151)" style=""/>
<path d="M107.84 99.5298C107.84 102.1 105.76 104.18 103.19 104.18C101.91 104.18 100.76 103.66 99.9202 102.83C99.7902 102.7 99.6702 102.57 99.5602 102.43C99.3502 102.18 99.1602 101.9 99.0002 101.62L92.1702 88.9698C92.1302 88.7498 90.9602 88.5998 90.7602 88.5998C90.5602 88.5998 90.3902 88.7598 90.3502 88.9698L90.7402 103.31V103.42C90.7402 103.43 90.7402 103.43 90.7402 103.44C90.7302 105.93 88.7002 107.95 86.2002 107.95C84.2602 107.95 82.6102 106.74 81.9602 105.04L81.6702 103.28L78.2402 83.1199L89.5802 75.0898L102.28 83.1098L106.95 96.8098L107.05 97.0998C107.19 97.4498 107.37 97.7898 107.61 98.0898C107.76 98.5398 107.84 99.0298 107.84 99.5298Z" fill="url(#paint56_linear_201_3151)" style=""/>
<path d="M107.84 99.5298C107.84 102.1 105.76 104.18 103.19 104.18C101.91 104.18 100.76 103.66 99.9202 102.83C99.7902 102.7 99.6702 102.57 99.5602 102.43C99.3502 102.18 99.1602 101.9 99.0002 101.62L92.1702 88.9698C92.1302 88.7498 90.9602 88.5998 90.7602 88.5998C90.5602 88.5998 90.3902 88.7598 90.3502 88.9698L90.7402 103.31V103.42C90.7402 103.43 90.7402 103.43 90.7402 103.44C90.7302 105.93 88.7002 107.95 86.2002 107.95C84.2602 107.95 82.6102 106.74 81.9602 105.04L81.6702 103.28L78.2402 83.1199L89.5802 75.0898L102.28 83.1098L106.95 96.8098L107.05 97.0998C107.19 97.4498 107.37 97.7898 107.61 98.0898C107.76 98.5398 107.84 99.0298 107.84 99.5298Z" fill="url(#paint57_linear_201_3151)" style=""/>
<path d="M104.89 75.6399L102.25 73.4199C102.08 73.2999 101.53 73.6599 101.34 73.7099C101.28 73.7099 100.82 73.8599 100.76 73.8699L99.8601 74.0299C99.4801 74.1199 99.2301 74.5099 99.3201 74.8999L99.3601 75.1099C99.4401 75.4999 99.8201 75.7499 100.2 75.6599L101.57 75.3399L103.95 77.0199C104.27 77.2499 104.71 77.1599 104.94 76.8299L105.06 76.6499C105.29 76.3199 105.21 75.8699 104.89 75.6399Z" fill="#EDA600" style="fill:#EDA600;fill:color(display-p3 0.9294 0.6510 0.0000);fill-opacity:1;"/>
<path d="M104.89 75.6399L102.25 73.4199C102.08 73.2999 101.53 73.6599 101.34 73.7099C101.28 73.7099 100.82 73.8599 100.76 73.8699L99.8601 74.0299C99.4801 74.1199 99.2301 74.5099 99.3201 74.8999L99.3601 75.1099C99.4401 75.4999 99.8201 75.7499 100.2 75.6599L101.57 75.3399L103.95 77.0199C104.27 77.2499 104.71 77.1599 104.94 76.8299L105.06 76.6499C105.29 76.3199 105.21 75.8699 104.89 75.6399Z" fill="#99674F" style="fill:#99674F;fill:color(display-p3 0.6000 0.4039 0.3098);fill-opacity:1;"/>
<path d="M108.77 60.8397C108.77 60.8397 106.7 53.4297 89.73 53.4297C72.76 53.4297 71.77 60.8397 71.77 60.8397L78.12 65.6697H101.37L108.77 60.8397Z" fill="#444444" style="fill:#444444;fill:color(display-p3 0.2667 0.2667 0.2667);fill-opacity:1;"/>
<path d="M109.74 60.8397C109.74 60.8397 106.67 53.4297 89.7002 53.4297C72.7302 53.4297 70.7402 60.8397 70.7402 60.8397L78.1602 67.7297V83.1497L87.9002 89.5797C88.6702 89.9697 89.5202 90.1697 90.3802 90.1697C91.2702 90.1697 92.1502 89.9497 92.9402 89.5397L102.25 83.1497V67.7297L109.74 60.8397Z" fill="url(#paint58_linear_201_3151)" style=""/>
<path d="M115.71 69.5102L108.32 59.7402L102.14 64.1002L109.56 71.0502L104.37 75.3602C103.83 75.3402 102.9 75.2002 101.71 75.2002H101.32L101.3 75.1902C101.3 75.1902 99.6297 75.3102 99.1897 75.6502C98.7897 75.9602 98.8297 76.5002 99.0097 76.7002C99.2197 76.9402 99.1697 77.3602 98.9597 77.5902C98.7497 77.8302 98.6197 78.1202 98.6397 78.4202C98.6597 78.7102 98.7897 78.8802 99.0797 79.1002C99.2197 79.2002 99.2897 79.4802 99.2197 79.6302C99.0997 79.8702 98.9097 80.2802 98.9497 80.5002C99.0397 80.9302 99.4797 81.0202 99.5797 81.3502C99.6197 81.4802 99.2097 81.9202 99.6297 82.2902C100.02 82.6402 100.69 82.9202 101.71 82.9202C102.62 82.9202 103.81 82.7002 105.32 82.1002C105.36 82.0802 115.71 73.6602 115.71 73.6602C116.76 72.5502 116.71 70.6702 115.71 69.5102Z" fill="url(#paint59_linear_201_3151)" style=""/>
<path d="M115.71 69.5102L108.32 59.7402L102.14 64.1002L109.56 71.0502L104.37 75.3602C103.83 75.3402 102.9 75.2002 101.71 75.2002H101.32L101.3 75.1902C101.3 75.1902 99.6297 75.3102 99.1897 75.6502C98.7897 75.9602 98.8297 76.5002 99.0097 76.7002C99.2197 76.9402 99.1697 77.3602 98.9597 77.5902C98.7497 77.8302 98.6197 78.1202 98.6397 78.4202C98.6597 78.7102 98.7897 78.8802 99.0797 79.1002C99.2197 79.2002 99.2897 79.4802 99.2197 79.6302C99.0997 79.8702 98.9097 80.2802 98.9497 80.5002C99.0397 80.9302 99.4797 81.0202 99.5797 81.3502C99.6197 81.4802 99.2097 81.9202 99.6297 82.2902C100.02 82.6402 100.69 82.9202 101.71 82.9202C102.62 82.9202 103.81 82.7002 105.32 82.1002C105.36 82.0802 115.71 73.6602 115.71 73.6602C116.76 72.5502 116.71 70.6702 115.71 69.5102Z" fill="url(#paint60_linear_201_3151)" style=""/>
<path d="M82.2197 78.4402C82.2397 78.1402 82.1097 77.8502 81.8997 77.6102C81.6897 77.3702 81.6397 76.9502 81.8497 76.7202C82.0297 76.5202 82.0597 75.9702 81.6697 75.6702C81.2297 75.3302 79.5597 75.2102 79.5597 75.2102L79.5397 75.2202H79.1497C77.9597 75.2202 77.0297 75.3502 76.4897 75.3802L71.2997 71.0702L78.7197 64.1202L72.5297 59.7402L65.1497 69.5302C64.1497 70.6802 64.0997 72.5702 65.1497 73.6802C65.1497 73.6802 75.4997 82.1002 75.5397 82.1202C77.0497 82.7102 78.2397 82.9402 79.1497 82.9402C80.1597 82.9402 80.8397 82.6602 81.2297 82.3102C81.6497 81.9302 81.2397 81.5002 81.2797 81.3702C81.3797 81.0402 81.8097 80.9502 81.9097 80.5202C81.9597 80.3102 81.7597 79.8902 81.6397 79.6502C81.5597 79.5002 81.6397 79.2202 81.7797 79.1202C82.0697 78.9002 82.1997 78.7302 82.2197 78.4402Z" fill="url(#paint61_linear_201_3151)" style=""/>
<path d="M82.2197 78.4402C82.2397 78.1402 82.1097 77.8502 81.8997 77.6102C81.6897 77.3702 81.6397 76.9502 81.8497 76.7202C82.0297 76.5202 82.0597 75.9702 81.6697 75.6702C81.2297 75.3302 79.5597 75.2102 79.5597 75.2102L79.5397 75.2202H79.1497C77.9597 75.2202 77.0297 75.3502 76.4897 75.3802L71.2997 71.0702L78.7197 64.1202L72.5297 59.7402L65.1497 69.5302C64.1497 70.6802 64.0997 72.5702 65.1497 73.6802C65.1497 73.6802 75.4997 82.1002 75.5397 82.1202C77.0497 82.7102 78.2397 82.9402 79.1497 82.9402C80.1597 82.9402 80.8397 82.6602 81.2297 82.3102C81.6497 81.9302 81.2397 81.5002 81.2797 81.3702C81.3797 81.0402 81.8097 80.9502 81.9097 80.5202C81.9597 80.3102 81.7597 79.8902 81.6397 79.6502C81.5597 79.5002 81.6397 79.2202 81.7797 79.1202C82.0697 78.9002 82.1997 78.7302 82.2197 78.4402Z" fill="url(#paint62_linear_201_3151)" style=""/>
<path d="M109.77 60.8397C109.77 60.8397 106.7 53.4297 89.73 53.4297C72.76 53.4297 70.77 60.8397 70.77 60.8397L78.12 67.6697H102.37L109.77 60.8397Z" fill="url(#paint63_linear_201_3151)" style=""/>
<path d="M100.76 54.8497C100.67 57.8497 96.9398 62.0697 90.2598 62.0697C83.4998 62.0697 79.7598 57.7397 79.7598 54.7397C79.7598 54.6897 79.7598 54.6397 79.7698 54.5897C82.2498 53.8897 85.4898 53.4297 89.7298 53.4297C94.4798 53.4297 98.0698 54.0097 100.76 54.8497Z" fill="url(#paint64_linear_201_3151)" style=""/>
<path d="M100.76 54.8497C100.67 57.8497 96.9398 62.0697 90.2598 62.0697C83.4998 62.0697 79.7598 57.7397 79.7598 54.7397C79.7598 54.6897 79.7598 54.6397 79.7698 54.5897C82.2498 53.8897 85.4898 53.4297 89.7298 53.4297C94.4798 53.4297 98.0698 54.0097 100.76 54.8497Z" fill="#BA8D68" style="fill:#BA8D68;fill:color(display-p3 0.7294 0.5529 0.4078);fill-opacity:1;"/>
<path d="M87.99 124.5H83.61C82.8 124.48 82.22 123.55 82.46 122.75C83.19 120.29 85.41 118.48 87.99 118.48C90.63 118.48 92.88 120.36 93.56 122.89C93.78 123.7 93.18 124.5 92.37 124.5H87.99Z" fill="#504F4F" style="fill:#504F4F;fill:color(display-p3 0.3137 0.3098 0.3098);fill-opacity:1;"/>
<path d="M104.41 46.0804C103.91 45.1704 104.55 44.2404 105.64 43.0904C107.37 41.2704 109.25 37.0504 107.5 32.7604C107.51 32.7404 107.16 32.0104 107.17 31.9904L106.45 31.9504C106.22 31.9204 98.3204 31.9004 90.4204 31.9004C82.5204 31.9004 74.6204 31.9204 74.3904 31.9504C74.3904 31.9504 73.3304 32.7304 73.3404 32.7604C71.5904 37.0504 73.4704 41.2704 75.2004 43.0904C76.2904 44.2404 76.9304 45.1604 76.4304 46.0804C75.9404 46.9604 74.5004 47.0904 74.5004 47.0904C74.5004 47.0904 74.8304 48.0004 75.6404 48.4804C76.3804 48.9304 77.3004 49.0404 77.9304 49.0504C77.9304 49.0504 80.4004 52.4704 86.8504 52.4704H90.4404H94.0304C100.48 52.4704 102.95 49.0504 102.95 49.0504C103.58 49.0404 104.49 48.9304 105.24 48.4804C106.04 47.9904 106.38 47.0904 106.38 47.0904C106.38 47.0904 104.89 46.9704 104.41 46.0804Z" fill="#543930" style="fill:#543930;fill:color(display-p3 0.3294 0.2235 0.1882);fill-opacity:1;"/>
<path d="M90.4102 52.4804V48.6904L101.87 47.7804L102.91 49.0604C102.91 49.0604 100.44 52.4804 93.9902 52.4804H90.4102Z" fill="url(#paint65_radial_201_3151)" style=""/>
<path d="M102.88 47.4104C101.16 44.8004 104.97 43.8304 104.97 43.8304C104.31 44.6504 104.01 45.3704 104.4 46.0804C104.89 46.9604 106.33 47.0904 106.33 47.0904C106.33 47.0904 104.37 48.8504 102.88 47.4104Z" fill="url(#paint66_radial_201_3151)" style=""/>
<path d="M107.5 32.7604C109.2 36.9104 107.41 41.1904 105.73 42.9904C105.5 43.2404 104.52 44.2004 104.3 44.9604C104.3 44.9604 100.47 39.6204 99.3303 36.4904C99.1003 35.8604 98.8903 35.2104 98.8603 34.5304C98.8403 34.0304 98.9203 33.4204 99.2103 33.0004C99.5703 32.4704 107.3 32.3204 107.3 32.3204C107.3 32.3304 107.5 32.7604 107.5 32.7604Z" fill="url(#paint67_radial_201_3151)" style=""/>
<path d="M73.3202 32.7604C71.6202 36.9104 73.4102 41.1904 75.0902 42.9904C75.3202 43.2404 76.3002 44.2004 76.5202 44.9604C76.5202 44.9604 80.3502 39.6204 81.4902 36.4904C81.7202 35.8604 81.9302 35.2104 81.9602 34.5304C81.9802 34.0304 81.9002 33.4204 81.6102 33.0004C81.2502 32.4704 80.8402 32.6104 80.2302 32.6104C79.0702 32.6104 74.0202 32.3104 73.6202 32.3104C73.6302 32.3304 73.3202 32.7604 73.3202 32.7604Z" fill="url(#paint68_radial_201_3151)" style=""/>
<path d="M90.4204 52.4804V48.6904L78.9604 47.7804L77.9204 49.0604C77.9204 49.0604 80.3904 52.4804 86.8404 52.4804H90.4204Z" fill="url(#paint69_radial_201_3151)" style=""/>
<path d="M77.95 47.4104C79.67 44.8004 75.86 43.8304 75.86 43.8304C76.52 44.6504 76.82 45.3704 76.43 46.0804C75.94 46.9604 74.5 47.0904 74.5 47.0904C74.5 47.0904 76.46 48.8504 77.95 47.4104Z" fill="url(#paint70_radial_201_3151)" style=""/>
<path d="M90.0002 57.7996C88.0302 57.7996 86.4302 56.2797 86.4302 54.3997V50.1396H94.3902V54.3997C94.3902 56.2697 92.7902 57.7996 90.8202 57.7996H90.0002Z" fill="#E59600" style="fill:#E59600;fill:color(display-p3 0.8980 0.5882 0.0000);fill-opacity:1;"/>
<path d="M90.0002 57.7996C88.0302 57.7996 86.4302 56.2797 86.4302 54.3997V50.1396H94.3902V54.3997C94.3902 56.2697 92.7902 57.7996 90.8202 57.7996H90.0002Z" fill="#99674F" style="fill:#99674F;fill:color(display-p3 0.6000 0.4039 0.3098);fill-opacity:1;"/>
<path d="M101.14 34.8702H79.6797C77.3697 34.8702 75.4697 36.8902 75.4697 39.3502C75.4697 41.8102 77.3597 43.8302 79.6797 43.8302H101.13C103.44 43.8302 105.34 41.8102 105.34 39.3502C105.35 36.8902 103.44 34.8702 101.14 34.8702Z" fill="#E59600" style="fill:#E59600;fill:color(display-p3 0.8980 0.5882 0.0000);fill-opacity:1;"/>
<path d="M101.14 34.8702H79.6797C77.3697 34.8702 75.4697 36.8902 75.4697 39.3502C75.4697 41.8102 77.3597 43.8302 79.6797 43.8302H101.13C103.44 43.8302 105.34 41.8102 105.34 39.3502C105.35 36.8902 103.44 34.8702 101.14 34.8702Z" fill="#99674F" style="fill:#99674F;fill:color(display-p3 0.6000 0.4039 0.3098);fill-opacity:1;"/>
<path d="M90.3597 19.0303C83.5297 19.0303 77.1997 26.3403 77.1997 36.8503C77.1997 47.3103 83.7197 52.4803 90.3597 52.4803C96.9997 52.4803 103.52 47.3103 103.52 36.8503C103.53 26.3303 97.1897 19.0303 90.3597 19.0303Z" fill="#FFCA28" style="fill:#FFCA28;fill:color(display-p3 1.0000 0.7922 0.1569);fill-opacity:1;"/>
<path d="M90.3597 19.0303C83.5297 19.0303 77.1997 26.3403 77.1997 36.8503C77.1997 47.3103 83.7197 52.4803 90.3597 52.4803C96.9997 52.4803 103.52 47.3103 103.52 36.8503C103.53 26.3303 97.1897 19.0303 90.3597 19.0303Z" fill="#BA8D68" style="fill:#BA8D68;fill:color(display-p3 0.7294 0.5529 0.4078);fill-opacity:1;"/>
<path d="M83.9598 40.5503C85.0257 40.5503 85.8898 39.6549 85.8898 38.5503C85.8898 37.4457 85.0257 36.5503 83.9598 36.5503C82.8939 36.5503 82.0298 37.4457 82.0298 38.5503C82.0298 39.6549 82.8939 40.5503 83.9598 40.5503Z" fill="#404040" style="fill:#404040;fill:color(display-p3 0.2510 0.2510 0.2510);fill-opacity:1;"/>
<path d="M96.8597 40.5503C97.9256 40.5503 98.7897 39.6549 98.7897 38.5503C98.7897 37.4457 97.9256 36.5503 96.8597 36.5503C95.7938 36.5503 94.9297 37.4457 94.9297 38.5503C94.9297 39.6549 95.7938 40.5503 96.8597 40.5503Z" fill="#404040" style="fill:#404040;fill:color(display-p3 0.2510 0.2510 0.2510);fill-opacity:1;"/>
<path d="M93.6199 45.7103C92.3699 46.4503 88.2699 46.4503 87.0199 45.7103C86.2999 45.2803 85.5699 45.9403 85.8699 46.5903C86.1599 47.2303 88.3999 48.7203 90.3299 48.7203C92.2599 48.7203 94.4699 47.2303 94.7599 46.5903C95.0699 45.9303 94.3499 45.2803 93.6199 45.7103Z" fill="#795548" style="fill:#795548;fill:color(display-p3 0.4745 0.3333 0.2824);fill-opacity:1;"/>
<path d="M91.6497 42.1003C91.6097 42.0803 91.5697 42.0703 91.5197 42.0703H88.7497C88.7097 42.0803 88.6698 42.0903 88.6198 42.1003C88.3698 42.2003 88.2297 42.4603 88.3497 42.7403C88.4697 43.0203 89.0197 43.8003 90.1397 43.8003C91.2497 43.8003 91.8097 43.0203 91.9297 42.7403C92.0397 42.4603 91.8997 42.2003 91.6497 42.1003Z" fill="#E59600" style="fill:#E59600;fill:color(display-p3 0.8980 0.5882 0.0000);fill-opacity:1;"/>
<path d="M91.6497 42.1003C91.6097 42.0803 91.5697 42.0703 91.5197 42.0703H88.7497C88.7097 42.0803 88.6698 42.0903 88.6198 42.1003C88.3698 42.2003 88.2297 42.4603 88.3497 42.7403C88.4697 43.0203 89.0197 43.8003 90.1397 43.8003C91.2497 43.8003 91.8097 43.0203 91.9297 42.7403C92.0397 42.4603 91.8997 42.2003 91.6497 42.1003Z" fill="#99674F" style="fill:#99674F;fill:color(display-p3 0.6000 0.4039 0.3098);fill-opacity:1;"/>
<path d="M106.48 24.1295C105.5 22.6495 103.31 20.6595 101.34 20.5295C101.02 18.6395 99.0005 17.0295 97.0405 16.4095C91.7305 14.7295 88.2805 16.6095 86.4205 17.6295C86.0305 17.8395 83.5405 19.2195 81.8005 18.2295C80.7105 17.6095 80.7305 15.9295 80.7305 15.9295C80.7305 15.9295 77.3105 17.2295 78.4805 20.8595C77.3105 20.9095 75.7705 21.3995 74.9505 23.0495C73.9805 25.0095 74.3205 26.6595 74.6005 27.4395C73.6005 28.2995 72.3205 30.1295 73.2005 32.4995C73.8605 34.2796 76.4805 35.1096 76.4805 35.1096C76.3005 38.3195 76.9005 40.2995 77.2105 41.0995C77.2705 41.2395 77.4605 41.2296 77.5005 41.0796C77.9005 39.4896 79.2505 33.9395 79.1205 32.9795C79.1205 32.9795 83.6705 32.0795 88.0105 28.8795C88.8905 28.2295 89.8505 27.6795 90.8705 27.2695C96.3205 25.0995 97.4605 28.7995 97.4605 28.7995C97.4605 28.7995 101.24 28.0695 102.38 33.3195C102.81 35.2895 103.1 38.4296 103.34 40.6395C103.36 40.7995 103.57 40.8295 103.63 40.6796C104.01 39.8095 104.77 38.0695 104.95 36.2995C105.01 35.6795 106.69 34.8596 107.41 32.1796C108.38 28.6196 107.19 25.1995 106.48 24.1295Z" fill="#543930" style="fill:#543930;fill:color(display-p3 0.3294 0.2235 0.1882);fill-opacity:1;"/>
<path d="M104.94 36.3196C105 35.6996 106.68 34.8796 107.4 32.1996C107.48 31.9196 107.54 31.6296 107.6 31.3396C108.18 28.0896 107.13 25.1096 106.48 24.1296C105.58 22.7596 103.63 20.9596 101.79 20.5996C101.63 20.5796 101.47 20.5596 101.32 20.5496C101.32 20.5496 101.45 21.4096 101.1 22.0996C100.65 22.9896 99.7305 23.1996 99.7305 23.1996C104.55 27.9996 104.2 32.0196 104.94 36.3196Z" fill="url(#paint71_radial_201_3151)" style=""/>
<path d="M87.5802 17.0194C87.1402 17.2294 86.7502 17.4394 86.4202 17.6294C86.0302 17.8394 83.5402 19.2194 81.8002 18.2294C80.7302 17.6194 80.7302 15.9894 80.7302 15.9294C80.2402 16.5594 78.7402 21.0594 83.1102 21.3594C84.9902 21.4894 86.1502 19.8494 86.8402 18.4594C87.0902 17.9494 87.4802 17.2194 87.5802 17.0194Z" fill="url(#paint72_radial_201_3151)" style=""/>
<path d="M96.4903 16.2495C99.4303 17.0395 100.86 18.5395 101.34 20.5295C101.48 21.1095 101.65 26.5795 91.2203 20.3695C87.3403 18.0595 88.4003 16.6095 88.8503 16.4495C90.6203 15.8095 93.2003 15.3595 96.4903 16.2495Z" fill="url(#paint73_radial_201_3151)" style=""/>
<path d="M80.7201 15.9294C80.7101 15.9294 80.7101 15.9394 80.7001 15.9394C80.3301 16.0994 77.3901 17.4594 78.4901 20.8594L81.6101 21.3594C78.8501 18.5594 80.7401 15.9294 80.7401 15.9294H80.7201Z" fill="url(#paint74_radial_201_3151)" style=""/>
<path d="M80.41 21.1695L78.48 20.8595C78.41 20.8595 78.15 20.8795 78.01 20.8995C76.92 21.0495 75.64 21.6095 74.95 23.0495C74.2 24.5995 74.23 25.9295 74.43 26.8095C74.49 27.1095 74.61 27.4395 74.61 27.4395C74.61 27.4395 75.57 26.5295 77.84 26.4695L80.41 21.1695Z" fill="url(#paint75_radial_201_3151)" style=""/>
<path d="M74.5102 27.5195C73.5602 28.3595 72.2802 30.2495 73.2202 32.5795C73.9302 34.3395 76.4702 35.0995 76.4702 35.0995C76.4702 35.1095 76.9802 35.2595 77.2402 35.2595L77.8302 26.4795C76.6202 26.4795 75.4502 26.8395 74.6902 27.3695C74.7102 27.3795 74.5102 27.5095 74.5102 27.5195Z" fill="url(#paint76_radial_201_3151)" style=""/>
<path d="M105.99 5.83958C105.82 4.83958 104.79 4.24958 103.85 4.59958C101.63 5.41958 97.87 7.22958 95.97 10.5296C94.54 13.0096 93.94 16.6896 93.7 19.7096C93.61 20.8096 92.66 21.6296 91.56 21.5496C91.19 21.5196 89.62 21.5196 89.25 21.5496C88.15 21.6296 87.19 20.8196 87.11 19.7096C86.87 16.6896 86.27 13.0096 84.84 10.5296C82.94 7.21958 79.16 5.41958 76.95 4.59958C76.01 4.24958 75 4.83958 74.83 5.82958C74.43 8.15958 74.1 12.3496 76.01 15.6496C77.44 18.1396 80.31 20.4896 82.8 22.2096C83.36 22.5996 83.36 23.4096 82.82 23.8296C81.81 24.5996 81.05 25.4996 80.46 26.3996C79.88 27.2996 80.91 28.3896 81.81 27.8096C83.59 26.6596 86.3 25.7196 90.4 25.7196C94.5 25.7196 97.21 26.6596 98.99 27.8096C99.89 28.3896 100.93 27.2996 100.34 26.3996C99.75 25.4896 98.99 24.5996 97.99 23.8196C97.45 23.3996 97.45 22.5896 98.01 22.1996C100.49 20.4796 103.36 18.1296 104.8 15.6396C106.71 12.3496 106.39 8.17958 105.99 5.83958Z" fill="url(#paint77_linear_201_3151)" style=""/>
<path d="M98.31 12.2696C97.27 14.0696 97.06 17.1296 97.01 18.4496C97 18.7396 97.3 18.9196 97.55 18.7596C98.67 18.0596 101.2 16.3496 102.24 14.5396C103.15 12.9596 103.07 10.9996 102.92 9.90962C102.86 9.43962 102.4 9.17962 101.97 9.35962C100.95 9.77962 99.22 10.6896 98.31 12.2696Z" fill="#FF4081" style="fill:#FF4081;fill:color(display-p3 1.0000 0.2510 0.5059);fill-opacity:1;"/>
<path d="M82.4998 12.2696C83.5398 14.0696 83.7598 17.1296 83.7998 18.4596C83.8098 18.7496 83.5098 18.9296 83.2698 18.7696C82.1498 18.0696 79.6198 16.3596 78.5798 14.5496C77.6698 12.9696 77.7498 11.0096 77.8898 9.91963C77.9498 9.44963 78.4098 9.18963 78.8398 9.36963C79.8498 9.77963 81.5898 10.6896 82.4998 12.2696Z" fill="#FF4081" style="fill:#FF4081;fill:color(display-p3 1.0000 0.2510 0.5059);fill-opacity:1;"/>
<path d="M86.8002 35.0604C86.4302 34.5704 85.5802 33.8604 83.9302 33.8604C82.2802 33.8604 81.4202 34.5704 81.0602 35.0604C80.9002 35.2804 80.9402 35.5304 81.0502 35.6804C81.1502 35.8204 81.4602 35.9504 81.8102 35.8304C82.1502 35.7104 82.8202 35.3704 83.9402 35.3604C85.0602 35.3704 85.7302 35.7104 86.0702 35.8304C86.4102 35.9504 86.7202 35.8204 86.8302 35.6804C86.9202 35.5204 86.9602 35.2704 86.8002 35.0604Z" fill="#6D4C41" style="fill:#6D4C41;fill:color(display-p3 0.4275 0.2980 0.2549);fill-opacity:1;"/>
<path d="M99.5702 35.0604C99.2002 34.5704 98.3502 33.8604 96.7002 33.8604C95.0502 33.8604 94.1902 34.5704 93.8302 35.0604C93.6702 35.2804 93.7102 35.5304 93.8202 35.6804C93.9202 35.8204 94.2302 35.9504 94.5802 35.8304C94.9202 35.7104 95.5902 35.3704 96.7102 35.3604C97.8302 35.3704 98.5002 35.7104 98.8402 35.8304C99.1802 35.9504 99.4902 35.8204 99.6002 35.6804C99.6902 35.5204 99.7302 35.2704 99.5702 35.0604Z" fill="#6D4C41" style="fill:#6D4C41;fill:color(display-p3 0.4275 0.2980 0.2549);fill-opacity:1;"/>
<defs>
<linearGradient id="paint0_linear_201_3151" x1="85.8984" y1="113.497" x2="90.5729" y2="118.73" gradientUnits="userSpaceOnUse">
<stop stop-color="#FFB300" style="stop-color:#FFB300;stop-color:color(display-p3 1.0000 0.7020 0.0000);stop-opacity:1;"/>
<stop offset="0.4007" stop-color="#FFCA28" style="stop-color:#FFCA28;stop-color:color(display-p3 1.0000 0.7922 0.1569);stop-opacity:1;"/>
</linearGradient>
<linearGradient id="paint1_linear_201_3151" x1="86.6284" y1="103.443" x2="86.6284" y2="124.324" gradientUnits="userSpaceOnUse">
<stop stop-color="#8D5738" style="stop-color:#8D5738;stop-color:color(display-p3 0.5529 0.3412 0.2196);stop-opacity:1;"/>
<stop offset="0.5" stop-color="#A56C43" style="stop-color:#A56C43;stop-color:color(display-p3 0.6471 0.4235 0.2627);stop-opacity:1;"/>
</linearGradient>
<linearGradient id="paint2_linear_201_3151" x1="107.149" y1="105.919" x2="109.576" y2="112.324" gradientUnits="userSpaceOnUse">
<stop stop-color="#FFB300" style="stop-color:#FFB300;stop-color:color(display-p3 1.0000 0.7020 0.0000);stop-opacity:1;"/>
<stop offset="0.4007" stop-color="#FFCA28" style="stop-color:#FFCA28;stop-color:color(display-p3 1.0000 0.7922 0.1569);stop-opacity:1;"/>
</linearGradient>
<linearGradient id="paint3_linear_201_3151" x1="108.489" y1="98.0921" x2="108.489" y2="114.348" gradientUnits="userSpaceOnUse">
<stop stop-color="#8D5738" style="stop-color:#8D5738;stop-color:color(display-p3 0.5529 0.3412 0.2196);stop-opacity:1;"/>
<stop offset="0.5" stop-color="#A56C43" style="stop-color:#A56C43;stop-color:color(display-p3 0.6471 0.4235 0.2627);stop-opacity:1;"/>
</linearGradient>
<linearGradient id="paint4_linear_201_3151" x1="90.7218" y1="90.9172" x2="96.2102" y2="103.289" gradientUnits="userSpaceOnUse">
<stop stop-color="#FFB300" style="stop-color:#FFB300;stop-color:color(display-p3 1.0000 0.7020 0.0000);stop-opacity:1;"/>
<stop offset="0.4007" stop-color="#FFCA28" style="stop-color:#FFCA28;stop-color:color(display-p3 1.0000 0.7922 0.1569);stop-opacity:1;"/>
</linearGradient>
<linearGradient id="paint5_linear_201_3151" x1="93.0351" y1="75.0944" x2="93.0351" y2="107.956" gradientUnits="userSpaceOnUse">
<stop stop-color="#8D5738" style="stop-color:#8D5738;stop-color:color(display-p3 0.5529 0.3412 0.2196);stop-opacity:1;"/>
<stop offset="0.5" stop-color="#A56C43" style="stop-color:#A56C43;stop-color:color(display-p3 0.6471 0.4235 0.2627);stop-opacity:1;"/>
</linearGradient>
<linearGradient id="paint6_linear_201_3151" x1="90.2402" y1="52.3638" x2="90.2402" y2="98.9678" gradientUnits="userSpaceOnUse">
<stop stop-color="#515151" style="stop-color:#515151;stop-color:color(display-p3 0.3176 0.3176 0.3176);stop-opacity:1;"/>
<stop offset="0.9439" stop-color="#313131" style="stop-color:#313131;stop-color:color(display-p3 0.1922 0.1922 0.1922);stop-opacity:1;"/>
</linearGradient>
<linearGradient id="paint7_linear_201_3151" x1="106.161" y1="70.9048" x2="110.433" y2="79.132" gradientUnits="userSpaceOnUse">
<stop stop-color="#FFB300" style="stop-color:#FFB300;stop-color:color(display-p3 1.0000 0.7020 0.0000);stop-opacity:1;"/>
<stop offset="0.4007" stop-color="#FFCA28" style="stop-color:#FFCA28;stop-color:color(display-p3 1.0000 0.7922 0.1569);stop-opacity:1;"/>
</linearGradient>
<linearGradient id="paint8_linear_201_3151" x1="107.556" y1="59.7431" x2="107.556" y2="82.9241" gradientUnits="userSpaceOnUse">
<stop stop-color="#8D5738" style="stop-color:#8D5738;stop-color:color(display-p3 0.5529 0.3412 0.2196);stop-opacity:1;"/>
<stop offset="0.5" stop-color="#A56C43" style="stop-color:#A56C43;stop-color:color(display-p3 0.6471 0.4235 0.2627);stop-opacity:1;"/>
</linearGradient>
<linearGradient id="paint9_linear_201_3151" x1="71.9044" y1="70.9144" x2="76.1817" y2="79.1458" gradientUnits="userSpaceOnUse">
<stop stop-color="#FFB300" style="stop-color:#FFB300;stop-color:color(display-p3 1.0000 0.7020 0.0000);stop-opacity:1;"/>
<stop offset="0.4007" stop-color="#FFCA28" style="stop-color:#FFCA28;stop-color:color(display-p3 1.0000 0.7922 0.1569);stop-opacity:1;"/>
</linearGradient>
<linearGradient id="paint10_linear_201_3151" x1="73.2987" y1="59.7431" x2="73.2987" y2="82.9441" gradientUnits="userSpaceOnUse">
<stop stop-color="#8D5738" style="stop-color:#8D5738;stop-color:color(display-p3 0.5529 0.3412 0.2196);stop-opacity:1;"/>
<stop offset="0.5" stop-color="#A56C43" style="stop-color:#A56C43;stop-color:color(display-p3 0.6471 0.4235 0.2627);stop-opacity:1;"/>
</linearGradient>
<linearGradient id="paint11_linear_201_3151" x1="90.27" y1="51.3086" x2="90.27" y2="97.9125" gradientUnits="userSpaceOnUse">
<stop stop-color="#515151" style="stop-color:#515151;stop-color:color(display-p3 0.3176 0.3176 0.3176);stop-opacity:1;"/>
<stop offset="0.9439" stop-color="#313131" style="stop-color:#313131;stop-color:color(display-p3 0.1922 0.1922 0.1922);stop-opacity:1;"/>
</linearGradient>
<linearGradient id="paint12_linear_201_3151" x1="90.2598" y1="53.3569" x2="90.2598" y2="60.1941" gradientUnits="userSpaceOnUse">
<stop stop-color="#FFB300" style="stop-color:#FFB300;stop-color:color(display-p3 1.0000 0.7020 0.0000);stop-opacity:1;"/>
<stop offset="0.6846" stop-color="#FFCA28" style="stop-color:#FFCA28;stop-color:color(display-p3 1.0000 0.7922 0.1569);stop-opacity:1;"/>
</linearGradient>
<linearGradient id="paint13_linear_201_3151" x1="30.0483" y1="113.497" x2="34.7228" y2="118.73" gradientUnits="userSpaceOnUse">
<stop stop-color="#FFB300" style="stop-color:#FFB300;stop-color:color(display-p3 1.0000 0.7020 0.0000);stop-opacity:1;"/>
<stop offset="0.4007" stop-color="#FFCA28" style="stop-color:#FFCA28;stop-color:color(display-p3 1.0000 0.7922 0.1569);stop-opacity:1;"/>
</linearGradient>
<linearGradient id="paint14_linear_201_3151" x1="30.7783" y1="103.443" x2="30.7783" y2="124.324" gradientUnits="userSpaceOnUse">
<stop stop-color="#8D5738" style="stop-color:#8D5738;stop-color:color(display-p3 0.5529 0.3412 0.2196);stop-opacity:1;"/>
<stop offset="0.5" stop-color="#A56C43" style="stop-color:#A56C43;stop-color:color(display-p3 0.6471 0.4235 0.2627);stop-opacity:1;"/>
</linearGradient>
<linearGradient id="paint15_linear_201_3151" x1="51.2991" y1="105.919" x2="53.7259" y2="112.324" gradientUnits="userSpaceOnUse">
<stop stop-color="#FFB300" style="stop-color:#FFB300;stop-color:color(display-p3 1.0000 0.7020 0.0000);stop-opacity:1;"/>
<stop offset="0.4007" stop-color="#FFCA28" style="stop-color:#FFCA28;stop-color:color(display-p3 1.0000 0.7922 0.1569);stop-opacity:1;"/>
</linearGradient>
<linearGradient id="paint16_linear_201_3151" x1="52.6389" y1="98.0921" x2="52.6389" y2="114.348" gradientUnits="userSpaceOnUse">
<stop stop-color="#8D5738" style="stop-color:#8D5738;stop-color:color(display-p3 0.5529 0.3412 0.2196);stop-opacity:1;"/>
<stop offset="0.5" stop-color="#A56C43" style="stop-color:#A56C43;stop-color:color(display-p3 0.6471 0.4235 0.2627);stop-opacity:1;"/>
</linearGradient>
<linearGradient id="paint17_linear_201_3151" x1="34.8717" y1="90.9172" x2="40.3601" y2="103.289" gradientUnits="userSpaceOnUse">
<stop stop-color="#FFB300" style="stop-color:#FFB300;stop-color:color(display-p3 1.0000 0.7020 0.0000);stop-opacity:1;"/>
<stop offset="0.4007" stop-color="#FFCA28" style="stop-color:#FFCA28;stop-color:color(display-p3 1.0000 0.7922 0.1569);stop-opacity:1;"/>
</linearGradient>
<linearGradient id="paint18_linear_201_3151" x1="37.185" y1="75.0944" x2="37.185" y2="107.956" gradientUnits="userSpaceOnUse">
<stop stop-color="#8D5738" style="stop-color:#8D5738;stop-color:color(display-p3 0.5529 0.3412 0.2196);stop-opacity:1;"/>
<stop offset="0.5" stop-color="#A56C43" style="stop-color:#A56C43;stop-color:color(display-p3 0.6471 0.4235 0.2627);stop-opacity:1;"/>
</linearGradient>
<linearGradient id="paint19_linear_201_3151" x1="34.3901" y1="52.3638" x2="34.3901" y2="98.9678" gradientUnits="userSpaceOnUse">
<stop stop-color="#515151" style="stop-color:#515151;stop-color:color(display-p3 0.3176 0.3176 0.3176);stop-opacity:1;"/>
<stop offset="0.9439" stop-color="#313131" style="stop-color:#313131;stop-color:color(display-p3 0.1922 0.1922 0.1922);stop-opacity:1;"/>
</linearGradient>
<radialGradient id="paint20_radial_201_3151" cx="0" cy="0" r="1" gradientUnits="userSpaceOnUse" gradientTransform="translate(40.015 47.0068) scale(9.3938 4.61424)">
<stop offset="0.7275" stop-color="#6D4C41" stop-opacity="0" style="stop-color:none;stop-opacity:0;"/>
<stop offset="1" stop-color="#6D4C41" style="stop-color:#6D4C41;stop-color:color(display-p3 0.4275 0.2980 0.2549);stop-opacity:1;"/>
</radialGradient>
<radialGradient id="paint21_radial_201_3151" cx="0" cy="0" r="1" gradientUnits="userSpaceOnUse" gradientTransform="translate(49.2724 45.6071) rotate(154.924) scale(2.77596 2.05937)">
<stop offset="0.6628" stop-color="#6D4C41" style="stop-color:#6D4C41;stop-color:color(display-p3 0.4275 0.2980 0.2549);stop-opacity:1;"/>
<stop offset="1" stop-color="#6D4C41" stop-opacity="0" style="stop-color:none;stop-opacity:0;"/>
</radialGradient>
<radialGradient id="paint22_radial_201_3151" cx="0" cy="0" r="1" gradientUnits="userSpaceOnUse" gradientTransform="translate(42.0758 37.7589) rotate(-94.2783) scale(12.1935 10.1625)">
<stop offset="0.7247" stop-color="#6D4C41" stop-opacity="0" style="stop-color:none;stop-opacity:0;"/>
<stop offset="1" stop-color="#6D4C41" style="stop-color:#6D4C41;stop-color:color(display-p3 0.4275 0.2980 0.2549);stop-opacity:1;"/>
</radialGradient>
<radialGradient id="paint23_radial_201_3151" cx="0" cy="0" r="1" gradientUnits="userSpaceOnUse" gradientTransform="translate(26.2662 37.7576) rotate(-85.7217) scale(12.1935 10.1625)">
<stop offset="0.7247" stop-color="#6D4C41" stop-opacity="0" style="stop-color:none;stop-opacity:0;"/>
<stop offset="1" stop-color="#6D4C41" style="stop-color:#6D4C41;stop-color:color(display-p3 0.4275 0.2980 0.2549);stop-opacity:1;"/>
</radialGradient>
<radialGradient id="paint24_radial_201_3151" cx="0" cy="0" r="1" gradientUnits="userSpaceOnUse" gradientTransform="translate(28.3249 47.0068) rotate(180) scale(9.3938 4.61424)">
<stop offset="0.7275" stop-color="#6D4C41" stop-opacity="0" style="stop-color:none;stop-opacity:0;"/>
<stop offset="1" stop-color="#6D4C41" style="stop-color:#6D4C41;stop-color:color(display-p3 0.4275 0.2980 0.2549);stop-opacity:1;"/>
</radialGradient>
<radialGradient id="paint25_radial_201_3151" cx="0" cy="0" r="1" gradientUnits="userSpaceOnUse" gradientTransform="translate(19.0719 45.609) rotate(25.0761) scale(2.77596 2.05937)">
<stop offset="0.6628" stop-color="#6D4C41" style="stop-color:#6D4C41;stop-color:color(display-p3 0.4275 0.2980 0.2549);stop-opacity:1;"/>
<stop offset="1" stop-color="#6D4C41" stop-opacity="0" style="stop-color:none;stop-opacity:0;"/>
</radialGradient>
<linearGradient id="paint26_linear_201_3151" x1="50.3112" y1="70.9048" x2="54.5826" y2="79.132" gradientUnits="userSpaceOnUse">
<stop stop-color="#FFB300" style="stop-color:#FFB300;stop-color:color(display-p3 1.0000 0.7020 0.0000);stop-opacity:1;"/>
<stop offset="0.4007" stop-color="#FFCA28" style="stop-color:#FFCA28;stop-color:color(display-p3 1.0000 0.7922 0.1569);stop-opacity:1;"/>
</linearGradient>
<linearGradient id="paint27_linear_201_3151" x1="51.7055" y1="59.7431" x2="51.7055" y2="82.9241" gradientUnits="userSpaceOnUse">
<stop stop-color="#8D5738" style="stop-color:#8D5738;stop-color:color(display-p3 0.5529 0.3412 0.2196);stop-opacity:1;"/>
<stop offset="0.5" stop-color="#A56C43" style="stop-color:#A56C43;stop-color:color(display-p3 0.6471 0.4235 0.2627);stop-opacity:1;"/>
</linearGradient>
<linearGradient id="paint28_linear_201_3151" x1="16.0543" y1="70.9144" x2="20.3316" y2="79.1458" gradientUnits="userSpaceOnUse">
<stop stop-color="#FFB300" style="stop-color:#FFB300;stop-color:color(display-p3 1.0000 0.7020 0.0000);stop-opacity:1;"/>
<stop offset="0.4007" stop-color="#FFCA28" style="stop-color:#FFCA28;stop-color:color(display-p3 1.0000 0.7922 0.1569);stop-opacity:1;"/>
</linearGradient>
<linearGradient id="paint29_linear_201_3151" x1="17.4486" y1="59.7431" x2="17.4486" y2="82.9441" gradientUnits="userSpaceOnUse">
<stop stop-color="#8D5738" style="stop-color:#8D5738;stop-color:color(display-p3 0.5529 0.3412 0.2196);stop-opacity:1;"/>
<stop offset="0.5" stop-color="#A56C43" style="stop-color:#A56C43;stop-color:color(display-p3 0.6471 0.4235 0.2627);stop-opacity:1;"/>
</linearGradient>
<linearGradient id="paint30_linear_201_3151" x1="34.4199" y1="51.3086" x2="34.4199" y2="97.9125" gradientUnits="userSpaceOnUse">
<stop stop-color="#515151" style="stop-color:#515151;stop-color:color(display-p3 0.3176 0.3176 0.3176);stop-opacity:1;"/>
<stop offset="0.9439" stop-color="#313131" style="stop-color:#313131;stop-color:color(display-p3 0.1922 0.1922 0.1922);stop-opacity:1;"/>
</linearGradient>
<linearGradient id="paint31_linear_201_3151" x1="34.4102" y1="53.3569" x2="34.4102" y2="60.1941" gradientUnits="userSpaceOnUse">
<stop stop-color="#FFB300" style="stop-color:#FFB300;stop-color:color(display-p3 1.0000 0.7020 0.0000);stop-opacity:1;"/>
<stop offset="0.6846" stop-color="#FFCA28" style="stop-color:#FFCA28;stop-color:color(display-p3 1.0000 0.7922 0.1569);stop-opacity:1;"/>
</linearGradient>
<radialGradient id="paint32_radial_201_3151" cx="0" cy="0" r="1" gradientUnits="userSpaceOnUse" gradientTransform="translate(41.392 31.3235) rotate(72.0851) scale(14.2928 10.6049)">
<stop offset="0.6985" stop-color="#6D4C41" stop-opacity="0" style="stop-color:none;stop-opacity:0;"/>
<stop offset="1" stop-color="#6D4C41" style="stop-color:#6D4C41;stop-color:color(display-p3 0.4275 0.2980 0.2549);stop-opacity:1;"/>
</radialGradient>
<radialGradient id="paint33_radial_201_3151" cx="0" cy="0" r="1" gradientUnits="userSpaceOnUse" gradientTransform="translate(27.4595 15.7411) rotate(28.2026) scale(3.74758 4.44353)">
<stop offset="0.58" stop-color="#6D4C41" style="stop-color:#6D4C41;stop-color:color(display-p3 0.4275 0.2980 0.2549);stop-opacity:1;"/>
<stop offset="1" stop-color="#6D4C41" stop-opacity="0" style="stop-color:none;stop-opacity:0;"/>
</radialGradient>
<radialGradient id="paint34_radial_201_3151" cx="0" cy="0" r="1" gradientUnits="userSpaceOnUse" gradientTransform="translate(35.837 22.5421) rotate(-157.19) scale(11.7206 6.58702)">
<stop offset="0.6985" stop-color="#6D4C41" stop-opacity="0" style="stop-color:none;stop-opacity:0;"/>
<stop offset="1" stop-color="#6D4C41" style="stop-color:#6D4C41;stop-color:color(display-p3 0.4275 0.2980 0.2549);stop-opacity:1;"/>
</radialGradient>
<radialGradient id="paint35_radial_201_3151" cx="0" cy="0" r="1" gradientUnits="userSpaceOnUse" gradientTransform="translate(25.9538 19.1594) scale(3.4398 4.20791)">
<stop offset="0.7016" stop-color="#6D4C41" stop-opacity="0" style="stop-color:none;stop-opacity:0;"/>
<stop offset="1" stop-color="#6D4C41" style="stop-color:#6D4C41;stop-color:color(display-p3 0.4275 0.2980 0.2549);stop-opacity:1;"/>
</radialGradient>
<radialGradient id="paint36_radial_201_3151" cx="0" cy="0" r="1" gradientUnits="userSpaceOnUse" gradientTransform="translate(25.4804 25.2308) rotate(-164.942) scale(6.45163 6.03756)">
<stop offset="0.6605" stop-color="#6D4C41" stop-opacity="0" style="stop-color:none;stop-opacity:0;"/>
<stop offset="1" stop-color="#6D4C41" style="stop-color:#6D4C41;stop-color:color(display-p3 0.4275 0.2980 0.2549);stop-opacity:1;"/>
</radialGradient>
<radialGradient id="paint37_radial_201_3151" cx="0" cy="0" r="1" gradientUnits="userSpaceOnUse" gradientTransform="translate(23.9521 31.4596) rotate(7.83354) scale(6.77332 9.51763)">
<stop offset="0.5981" stop-color="#6D4C41" stop-opacity="0" style="stop-color:none;stop-opacity:0;"/>
<stop offset="1" stop-color="#6D4C41" style="stop-color:#6D4C41;stop-color:color(display-p3 0.4275 0.2980 0.2549);stop-opacity:1;"/>
</radialGradient>
<radialGradient id="paint38_radial_201_3151" cx="0" cy="0" r="1" gradientUnits="userSpaceOnUse" gradientTransform="translate(96.2599 47.0068) scale(9.3938 4.61424)">
<stop offset="0.7275" stop-color="#6D4C41" stop-opacity="0" style="stop-color:none;stop-opacity:0;"/>
<stop offset="1" stop-color="#6D4C41" style="stop-color:#6D4C41;stop-color:color(display-p3 0.4275 0.2980 0.2549);stop-opacity:1;"/>
</radialGradient>
<radialGradient id="paint39_radial_201_3151" cx="0" cy="0" r="1" gradientUnits="userSpaceOnUse" gradientTransform="translate(105.515 45.6081) rotate(154.924) scale(2.77596 2.05937)">
<stop offset="0.6628" stop-color="#6D4C41" style="stop-color:#6D4C41;stop-color:color(display-p3 0.4275 0.2980 0.2549);stop-opacity:1;"/>
<stop offset="1" stop-color="#6D4C41" stop-opacity="0" style="stop-color:none;stop-opacity:0;"/>
</radialGradient>
<radialGradient id="paint40_radial_201_3151" cx="0" cy="0" r="1" gradientUnits="userSpaceOnUse" gradientTransform="translate(98.3196 37.7582) rotate(-94.2783) scale(12.1935 10.1625)">
<stop offset="0.7247" stop-color="#6D4C41" stop-opacity="0" style="stop-color:none;stop-opacity:0;"/>
<stop offset="1" stop-color="#6D4C41" style="stop-color:#6D4C41;stop-color:color(display-p3 0.4275 0.2980 0.2549);stop-opacity:1;"/>
</radialGradient>
<radialGradient id="paint41_radial_201_3151" cx="0" cy="0" r="1" gradientUnits="userSpaceOnUse" gradientTransform="translate(82.51 37.7582) rotate(-85.7217) scale(12.1935 10.1625)">
<stop offset="0.7247" stop-color="#6D4C41" stop-opacity="0" style="stop-color:none;stop-opacity:0;"/>
<stop offset="1" stop-color="#6D4C41" style="stop-color:#6D4C41;stop-color:color(display-p3 0.4275 0.2980 0.2549);stop-opacity:1;"/>
</radialGradient>
<radialGradient id="paint42_radial_201_3151" cx="0" cy="0" r="1" gradientUnits="userSpaceOnUse" gradientTransform="translate(84.5699 47.0068) rotate(180) scale(9.3938 4.61424)">
<stop offset="0.7275" stop-color="#6D4C41" stop-opacity="0" style="stop-color:none;stop-opacity:0;"/>
<stop offset="1" stop-color="#6D4C41" style="stop-color:#6D4C41;stop-color:color(display-p3 0.4275 0.2980 0.2549);stop-opacity:1;"/>
</radialGradient>
<radialGradient id="paint43_radial_201_3151" cx="0" cy="0" r="1" gradientUnits="userSpaceOnUse" gradientTransform="translate(75.3144 45.608) rotate(25.0761) scale(2.77596 2.05937)">
<stop offset="0.6628" stop-color="#6D4C41" style="stop-color:#6D4C41;stop-color:color(display-p3 0.4275 0.2980 0.2549);stop-opacity:1;"/>
<stop offset="1" stop-color="#6D4C41" stop-opacity="0" style="stop-color:none;stop-opacity:0;"/>
</radialGradient>
<linearGradient id="paint44_linear_201_3151" x1="34.3712" y1="10.8499" x2="34.3712" y2="36.2274" gradientUnits="userSpaceOnUse">
<stop stop-color="#504F4F" style="stop-color:#504F4F;stop-color:color(display-p3 0.3137 0.3098 0.3098);stop-opacity:1;"/>
<stop offset="1" stop-color="#212121" style="stop-color:#212121;stop-color:color(display-p3 0.1294 0.1294 0.1294);stop-opacity:1;"/>
</linearGradient>
<radialGradient id="paint45_radial_201_3151" cx="0" cy="0" r="1" gradientUnits="userSpaceOnUse" gradientTransform="translate(97.6372 31.3225) rotate(72.0851) scale(14.2928 10.6049)">
<stop offset="0.6985" stop-color="#6D4C41" stop-opacity="0" style="stop-color:none;stop-opacity:0;"/>
<stop offset="1" stop-color="#6D4C41" style="stop-color:#6D4C41;stop-color:color(display-p3 0.4275 0.2980 0.2549);stop-opacity:1;"/>
</radialGradient>
<radialGradient id="paint46_radial_201_3151" cx="0" cy="0" r="1" gradientUnits="userSpaceOnUse" gradientTransform="translate(83.7053 15.7422) rotate(28.2026) scale(3.74758 4.44353)">
<stop offset="0.58" stop-color="#6D4C41" style="stop-color:#6D4C41;stop-color:color(display-p3 0.4275 0.2980 0.2549);stop-opacity:1;"/>
<stop offset="1" stop-color="#6D4C41" stop-opacity="0" style="stop-color:none;stop-opacity:0;"/>
</radialGradient>
<radialGradient id="paint47_radial_201_3151" cx="0" cy="0" r="1" gradientUnits="userSpaceOnUse" gradientTransform="translate(92.0817 22.5448) rotate(-157.19) scale(11.7206 6.58702)">
<stop offset="0.6985" stop-color="#6D4C41" stop-opacity="0" style="stop-color:none;stop-opacity:0;"/>
<stop offset="1" stop-color="#6D4C41" style="stop-color:#6D4C41;stop-color:color(display-p3 0.4275 0.2980 0.2549);stop-opacity:1;"/>
</radialGradient>
<radialGradient id="paint48_radial_201_3151" cx="0" cy="0" r="1" gradientUnits="userSpaceOnUse" gradientTransform="translate(82.1989 19.1594) scale(3.4398 4.20791)">
<stop offset="0.7016" stop-color="#6D4C41" stop-opacity="0" style="stop-color:none;stop-opacity:0;"/>
<stop offset="1" stop-color="#6D4C41" style="stop-color:#6D4C41;stop-color:color(display-p3 0.4275 0.2980 0.2549);stop-opacity:1;"/>
</radialGradient>
<radialGradient id="paint49_radial_201_3151" cx="0" cy="0" r="1" gradientUnits="userSpaceOnUse" gradientTransform="translate(81.7227 25.2329) rotate(-164.942) scale(6.45164 6.03756)">
<stop offset="0.6605" stop-color="#6D4C41" stop-opacity="0" style="stop-color:none;stop-opacity:0;"/>
<stop offset="1" stop-color="#6D4C41" style="stop-color:#6D4C41;stop-color:color(display-p3 0.4275 0.2980 0.2549);stop-opacity:1;"/>
</radialGradient>
<radialGradient id="paint50_radial_201_3151" cx="0" cy="0" r="1" gradientUnits="userSpaceOnUse" gradientTransform="translate(80.1991 31.4594) rotate(7.83354) scale(6.77332 9.51763)">
<stop offset="0.5981" stop-color="#6D4C41" stop-opacity="0" style="stop-color:none;stop-opacity:0;"/>
<stop offset="1" stop-color="#6D4C41" style="stop-color:#6D4C41;stop-color:color(display-p3 0.4275 0.2980 0.2549);stop-opacity:1;"/>
</radialGradient>
<linearGradient id="paint51_linear_201_3151" x1="90.4103" y1="11.161" x2="90.4103" y2="36.5385" gradientUnits="userSpaceOnUse">
<stop stop-color="#504F4F" style="stop-color:#504F4F;stop-color:color(display-p3 0.3137 0.3098 0.3098);stop-opacity:1;"/>
<stop offset="1" stop-color="#212121" style="stop-color:#212121;stop-color:color(display-p3 0.1294 0.1294 0.1294);stop-opacity:1;"/>
</linearGradient>
<linearGradient id="paint52_linear_201_3151" x1="86.4154" y1="105.209" x2="87.1596" y2="116.279" gradientUnits="userSpaceOnUse">
<stop stop-color="#FFB300" style="stop-color:#FFB300;stop-color:color(display-p3 1.0000 0.7020 0.0000);stop-opacity:1;"/>
<stop offset="0.4007" stop-color="#FFCA28" style="stop-color:#FFCA28;stop-color:color(display-p3 1.0000 0.7922 0.1569);stop-opacity:1;"/>
</linearGradient>
<linearGradient id="paint53_linear_201_3151" x1="86.6284" y1="103.443" x2="86.6284" y2="124.324" gradientUnits="userSpaceOnUse">
<stop stop-color="#A47B62" style="stop-color:#A47B62;stop-color:color(display-p3 0.6431 0.4824 0.3843);stop-opacity:1;"/>
<stop offset="0.5" stop-color="#BA8D68" style="stop-color:#BA8D68;stop-color:color(display-p3 0.7294 0.5529 0.4078);stop-opacity:1;"/>
</linearGradient>
<linearGradient id="paint54_linear_201_3151" x1="108.098" y1="99.4667" x2="108.345" y2="108.116" gradientUnits="userSpaceOnUse">
<stop stop-color="#FFB300" style="stop-color:#FFB300;stop-color:color(display-p3 1.0000 0.7020 0.0000);stop-opacity:1;"/>
<stop offset="0.4007" stop-color="#FFCA28" style="stop-color:#FFCA28;stop-color:color(display-p3 1.0000 0.7922 0.1569);stop-opacity:1;"/>
</linearGradient>
<linearGradient id="paint55_linear_201_3151" x1="108.489" y1="98.092" x2="108.489" y2="114.348" gradientUnits="userSpaceOnUse">
<stop stop-color="#A47B62" style="stop-color:#A47B62;stop-color:color(display-p3 0.6431 0.4824 0.3843);stop-opacity:1;"/>
<stop offset="0.5" stop-color="#BA8D68" style="stop-color:#BA8D68;stop-color:color(display-p3 0.7294 0.5529 0.4078);stop-opacity:1;"/>
</linearGradient>
<linearGradient id="paint56_linear_201_3151" x1="92.3601" y1="77.8732" x2="92.9437" y2="95.3534" gradientUnits="userSpaceOnUse">
<stop stop-color="#FFB300" style="stop-color:#FFB300;stop-color:color(display-p3 1.0000 0.7020 0.0000);stop-opacity:1;"/>
<stop offset="0.4007" stop-color="#FFCA28" style="stop-color:#FFCA28;stop-color:color(display-p3 1.0000 0.7922 0.1569);stop-opacity:1;"/>
</linearGradient>
<linearGradient id="paint57_linear_201_3151" x1="93.0351" y1="75.0942" x2="93.0351" y2="107.956" gradientUnits="userSpaceOnUse">
<stop stop-color="#A47B62" style="stop-color:#A47B62;stop-color:color(display-p3 0.6431 0.4824 0.3843);stop-opacity:1;"/>
<stop offset="0.5" stop-color="#BA8D68" style="stop-color:#BA8D68;stop-color:color(display-p3 0.7294 0.5529 0.4078);stop-opacity:1;"/>
</linearGradient>
<linearGradient id="paint58_linear_201_3151" x1="90.2402" y1="52.3634" x2="90.2402" y2="98.9674" gradientUnits="userSpaceOnUse">
<stop stop-color="#515151" style="stop-color:#515151;stop-color:color(display-p3 0.3176 0.3176 0.3176);stop-opacity:1;"/>
<stop offset="0.9439" stop-color="#313131" style="stop-color:#313131;stop-color:color(display-p3 0.1922 0.1922 0.1922);stop-opacity:1;"/>
</linearGradient>
<linearGradient id="paint59_linear_201_3151" x1="100.184" y1="66.5744" x2="109.859" y2="77.9232" gradientUnits="userSpaceOnUse">
<stop offset="0.1719" stop-color="#FFB300" style="stop-color:#FFB300;stop-color:color(display-p3 1.0000 0.7020 0.0000);stop-opacity:1;"/>
<stop offset="0.518" stop-color="#FFCA28" style="stop-color:#FFCA28;stop-color:color(display-p3 1.0000 0.7922 0.1569);stop-opacity:1;"/>
</linearGradient>
<linearGradient id="paint60_linear_201_3151" x1="107.555" y1="59.7433" x2="107.555" y2="82.9244" gradientUnits="userSpaceOnUse">
<stop stop-color="#A47B62" style="stop-color:#A47B62;stop-color:color(display-p3 0.6431 0.4824 0.3843);stop-opacity:1;"/>
<stop offset="0.5" stop-color="#BA8D68" style="stop-color:#BA8D68;stop-color:color(display-p3 0.7294 0.5529 0.4078);stop-opacity:1;"/>
</linearGradient>
<linearGradient id="paint61_linear_201_3151" x1="65.9275" y1="66.5803" x2="75.6115" y2="77.9307" gradientUnits="userSpaceOnUse">
<stop offset="0.1719" stop-color="#FFB300" style="stop-color:#FFB300;stop-color:color(display-p3 1.0000 0.7020 0.0000);stop-opacity:1;"/>
<stop offset="0.518" stop-color="#FFCA28" style="stop-color:#FFCA28;stop-color:color(display-p3 1.0000 0.7922 0.1569);stop-opacity:1;"/>
</linearGradient>
<linearGradient id="paint62_linear_201_3151" x1="73.2982" y1="59.7433" x2="73.2982" y2="82.9444" gradientUnits="userSpaceOnUse">
<stop stop-color="#A47B62" style="stop-color:#A47B62;stop-color:color(display-p3 0.6431 0.4824 0.3843);stop-opacity:1;"/>
<stop offset="0.5" stop-color="#BA8D68" style="stop-color:#BA8D68;stop-color:color(display-p3 0.7294 0.5529 0.4078);stop-opacity:1;"/>
</linearGradient>
<linearGradient id="paint63_linear_201_3151" x1="90.27" y1="51.3082" x2="90.27" y2="97.9122" gradientUnits="userSpaceOnUse">
<stop stop-color="#515151" style="stop-color:#515151;stop-color:color(display-p3 0.3176 0.3176 0.3176);stop-opacity:1;"/>
<stop offset="0.9439" stop-color="#313131" style="stop-color:#313131;stop-color:color(display-p3 0.1922 0.1922 0.1922);stop-opacity:1;"/>
</linearGradient>
<linearGradient id="paint64_linear_201_3151" x1="90.2598" y1="53.3565" x2="90.2598" y2="60.1937" gradientUnits="userSpaceOnUse">
<stop stop-color="#FFB300" style="stop-color:#FFB300;stop-color:color(display-p3 1.0000 0.7020 0.0000);stop-opacity:1;"/>
<stop offset="0.6846" stop-color="#FFCA28" style="stop-color:#FFCA28;stop-color:color(display-p3 1.0000 0.7922 0.1569);stop-opacity:1;"/>
</linearGradient>
<radialGradient id="paint65_radial_201_3151" cx="0" cy="0" r="1" gradientUnits="userSpaceOnUse" gradientTransform="translate(96.2599 47.0072) scale(9.3938 4.61424)">
<stop offset="0.7275" stop-color="#6D4C41" stop-opacity="0" style="stop-color:none;stop-opacity:0;"/>
<stop offset="1" stop-color="#6D4C41" style="stop-color:#6D4C41;stop-color:color(display-p3 0.4275 0.2980 0.2549);stop-opacity:1;"/>
</radialGradient>
<radialGradient id="paint66_radial_201_3151" cx="0" cy="0" r="1" gradientUnits="userSpaceOnUse" gradientTransform="translate(105.515 45.6085) rotate(154.924) scale(2.77596 2.05937)">
<stop offset="0.6628" stop-color="#6D4C41" style="stop-color:#6D4C41;stop-color:color(display-p3 0.4275 0.2980 0.2549);stop-opacity:1;"/>
<stop offset="1" stop-color="#6D4C41" stop-opacity="0" style="stop-color:none;stop-opacity:0;"/>
</radialGradient>
<radialGradient id="paint67_radial_201_3151" cx="0" cy="0" r="1" gradientUnits="userSpaceOnUse" gradientTransform="translate(98.3196 37.7585) rotate(-94.2783) scale(12.1935 10.1625)">
<stop offset="0.7247" stop-color="#6D4C41" stop-opacity="0" style="stop-color:none;stop-opacity:0;"/>
<stop offset="1" stop-color="#6D4C41" style="stop-color:#6D4C41;stop-color:color(display-p3 0.4275 0.2980 0.2549);stop-opacity:1;"/>
</radialGradient>
<radialGradient id="paint68_radial_201_3151" cx="0" cy="0" r="1" gradientUnits="userSpaceOnUse" gradientTransform="translate(82.51 37.7585) rotate(-85.7217) scale(12.1935 10.1625)">
<stop offset="0.7247" stop-color="#6D4C41" stop-opacity="0" style="stop-color:none;stop-opacity:0;"/>
<stop offset="1" stop-color="#6D4C41" style="stop-color:#6D4C41;stop-color:color(display-p3 0.4275 0.2980 0.2549);stop-opacity:1;"/>
</radialGradient>
<radialGradient id="paint69_radial_201_3151" cx="0" cy="0" r="1" gradientUnits="userSpaceOnUse" gradientTransform="translate(84.5699 47.0072) rotate(180) scale(9.3938 4.61424)">
<stop offset="0.7275" stop-color="#6D4C41" stop-opacity="0" style="stop-color:none;stop-opacity:0;"/>
<stop offset="1" stop-color="#6D4C41" style="stop-color:#6D4C41;stop-color:color(display-p3 0.4275 0.2980 0.2549);stop-opacity:1;"/>
</radialGradient>
<radialGradient id="paint70_radial_201_3151" cx="0" cy="0" r="1" gradientUnits="userSpaceOnUse" gradientTransform="translate(75.3144 45.6084) rotate(25.0761) scale(2.77596 2.05937)">
<stop offset="0.6628" stop-color="#6D4C41" style="stop-color:#6D4C41;stop-color:color(display-p3 0.4275 0.2980 0.2549);stop-opacity:1;"/>
<stop offset="1" stop-color="#6D4C41" stop-opacity="0" style="stop-color:none;stop-opacity:0;"/>
</radialGradient>
<radialGradient id="paint71_radial_201_3151" cx="0" cy="0" r="1" gradientUnits="userSpaceOnUse" gradientTransform="translate(97.6372 31.322) rotate(72.0851) scale(14.2928 10.6049)">
<stop offset="0.6985" stop-color="#6D4C41" stop-opacity="0" style="stop-color:none;stop-opacity:0;"/>
<stop offset="1" stop-color="#6D4C41" style="stop-color:#6D4C41;stop-color:color(display-p3 0.4275 0.2980 0.2549);stop-opacity:1;"/>
</radialGradient>
<radialGradient id="paint72_radial_201_3151" cx="0" cy="0" r="1" gradientUnits="userSpaceOnUse" gradientTransform="translate(83.7053 15.7417) rotate(28.2026) scale(3.74758 4.44353)">
<stop offset="0.58" stop-color="#6D4C41" style="stop-color:#6D4C41;stop-color:color(display-p3 0.4275 0.2980 0.2549);stop-opacity:1;"/>
<stop offset="1" stop-color="#6D4C41" stop-opacity="0" style="stop-color:none;stop-opacity:0;"/>
</radialGradient>
<radialGradient id="paint73_radial_201_3151" cx="0" cy="0" r="1" gradientUnits="userSpaceOnUse" gradientTransform="translate(92.0817 22.5443) rotate(-157.19) scale(11.7206 6.58702)">
<stop offset="0.6985" stop-color="#6D4C41" stop-opacity="0" style="stop-color:none;stop-opacity:0;"/>
<stop offset="1" stop-color="#6D4C41" style="stop-color:#6D4C41;stop-color:color(display-p3 0.4275 0.2980 0.2549);stop-opacity:1;"/>
</radialGradient>
<radialGradient id="paint74_radial_201_3151" cx="0" cy="0" r="1" gradientUnits="userSpaceOnUse" gradientTransform="translate(82.1989 19.1589) scale(3.4398 4.20791)">
<stop offset="0.7016" stop-color="#6D4C41" stop-opacity="0" style="stop-color:none;stop-opacity:0;"/>
<stop offset="1" stop-color="#6D4C41" style="stop-color:#6D4C41;stop-color:color(display-p3 0.4275 0.2980 0.2549);stop-opacity:1;"/>
</radialGradient>
<radialGradient id="paint75_radial_201_3151" cx="0" cy="0" r="1" gradientUnits="userSpaceOnUse" gradientTransform="translate(81.7227 25.2324) rotate(-164.942) scale(6.45164 6.03756)">
<stop offset="0.6605" stop-color="#6D4C41" stop-opacity="0" style="stop-color:none;stop-opacity:0;"/>
<stop offset="1" stop-color="#6D4C41" style="stop-color:#6D4C41;stop-color:color(display-p3 0.4275 0.2980 0.2549);stop-opacity:1;"/>
</radialGradient>
<radialGradient id="paint76_radial_201_3151" cx="0" cy="0" r="1" gradientUnits="userSpaceOnUse" gradientTransform="translate(80.1991 31.459) rotate(7.83354) scale(6.77332 9.51763)">
<stop offset="0.5981" stop-color="#6D4C41" stop-opacity="0" style="stop-color:none;stop-opacity:0;"/>
<stop offset="1" stop-color="#6D4C41" style="stop-color:#6D4C41;stop-color:color(display-p3 0.4275 0.2980 0.2549);stop-opacity:1;"/>
</radialGradient>
<linearGradient id="paint77_linear_201_3151" x1="90.4103" y1="11.1607" x2="90.4103" y2="36.5382" gradientUnits="userSpaceOnUse">
<stop stop-color="#504F4F" style="stop-color:#504F4F;stop-color:color(display-p3 0.3137 0.3098 0.3098);stop-opacity:1;"/>
<stop offset="1" stop-color="#212121" style="stop-color:#212121;stop-color:color(display-p3 0.1294 0.1294 0.1294);stop-opacity:1;"/>
</linearGradient>
</defs>
</svg>
