<svg width="128" height="128" viewBox="0 0 128 128" fill="none" xmlns="http://www.w3.org/2000/svg">
<path d="M63.6001 118.8C35.7001 118.8 5.6001 101.3 5.6001 62.9C5.6001 24.5 35.7001 7 63.6001 7C79.1001 7 93.4001 12.1 104 21.4C115.5 31.6 121.6 46 121.6 62.9C121.6 79.8 115.5 94.1 104 104.3C93.4001 113.6 79.0001 118.8 63.6001 118.8Z" fill="url(#paint0_radial_169_5785)" style=""/>
<path d="M63.6001 118.8C35.7001 118.8 5.6001 101.3 5.6001 62.9C5.6001 24.5 35.7001 7 63.6001 7C79.1001 7 93.4001 12.1 104 21.4C115.5 31.6 121.6 46 121.6 62.9C121.6 79.8 115.5 94.1 104 104.3C93.4001 113.6 79.0001 118.8 63.6001 118.8Z" fill="url(#paint1_radial_169_5785)" style=""/>
<path d="M111.49 29.67C116.82 38.27 119.6 48.51 119.6 59.9C119.6 76.8 113.5 91.1 102 101.3C91.4002 110.6 77.0002 115.8 61.6002 115.8C43.5402 115.8 24.6002 108.45 13.4202 92.86C24.1802 110.52 44.4202 118.8 63.6002 118.8C79.0002 118.8 93.4002 113.6 104 104.3C115.5 94.1001 121.6 79.8 121.6 62.9C121.6 50.16 118.13 38.84 111.49 29.67Z" fill="#EB8F00" style="fill:#EB8F00;fill:color(display-p3 0.9216 0.5608 0.0000);fill-opacity:1;"/>
<path d="M111.49 29.67C116.82 38.27 119.6 48.51 119.6 59.9C119.6 76.8 113.5 91.1 102 101.3C91.4002 110.6 77.0002 115.8 61.6002 115.8C43.5402 115.8 24.6002 108.45 13.4202 92.86C24.1802 110.52 44.4202 118.8 63.6002 118.8C79.0002 118.8 93.4002 113.6 104 104.3C115.5 94.1001 121.6 79.8 121.6 62.9C121.6 50.16 118.13 38.84 111.49 29.67Z" fill="#F3B872" style="fill:#F3B872;fill:color(display-p3 0.9542 0.7229 0.4453);fill-opacity:1;"/>
<path d="M73.71 74C72.72 72.45 73.17 70.38 74.72 69.39C74.98 69.22 75.27 69.09 75.57 69C78.95 67.67 82.55 66.95 86.18 66.88C89.81 66.94 93.41 67.62 96.82 68.88C98.63 69.4 99.68 71.29 99.15 73.1C99.07 73.37 98.96 73.64 98.82 73.88C97.8 75.4 95.88 76.03 94.16 75.42C91.65 74.46 89 73.92 86.31 73.82C83.61 73.91 80.94 74.45 78.42 75.42C76.71 76.12 74.75 75.53 73.71 74Z" fill="#312D2D" style="fill:#312D2D;fill:color(display-p3 0.1922 0.1765 0.1765);fill-opacity:1;"/>
<path d="M29.11 74C28.12 72.43 28.59 70.37 30.16 69.38C30.42 69.22 30.7 69.09 31 69C34.38 67.66 37.98 66.95 41.62 66.88C45.25 66.94 48.85 67.62 52.25 68.88C54.06 69.41 55.1 71.31 54.58 73.12C54.5 73.39 54.39 73.64 54.25 73.88C53.23 75.4 51.31 76.04 49.58 75.42C47.07 74.46 44.42 73.92 41.73 73.82C39.03 73.91 36.36 74.45 33.84 75.42C32.13 76.13 30.15 75.54 29.11 74Z" fill="#312D2D" style="fill:#312D2D;fill:color(display-p3 0.1922 0.1765 0.1765);fill-opacity:1;"/>
<path d="M63.9999 87.2C74.7999 87.2 81.7999 95.1 83.6999 98.8C84.3999 100.2 84.3999 101.4 83.7999 101.9C83.1599 102.3 82.3399 102.3 81.6999 101.9C81.3799 101.77 81.0799 101.6 80.7999 101.4C75.8999 97.88 70.0299 95.96 63.9999 95.9C57.9899 95.98 52.1299 97.86 47.1999 101.3C46.9199 101.5 46.6199 101.67 46.2999 101.8C45.6599 102.2 44.8399 102.2 44.1999 101.8C43.5999 101.2 43.5999 100.1 44.2999 98.7C46.1999 95.1 53.1999 87.2 63.9999 87.2Z" fill="#312D2D" style="fill:#312D2D;fill:color(display-p3 0.1922 0.1765 0.1765);fill-opacity:1;"/>
<path d="M29.6599 56.52C21.1899 56.52 14.6599 48.32 14.6599 41.29C14.6599 36.34 16.8699 30.61 19.9899 22.67C20.3799 21.5 20.8999 20.33 21.4199 19.02C22.9099 15.3 24.2299 11.27 26.2299 7.77996C27.1799 6.07996 29.3299 5.47996 31.0199 6.42996C31.5799 6.74996 32.0499 7.20996 32.3699 7.77996C34.2299 11.21 35.4999 14.92 37.4399 19.25C42.9099 31.49 44.4399 36.44 44.4399 41.39C44.6299 48.32 37.9999 56.52 29.6599 56.52Z" fill="#44B3E6" style="fill:#44B3E6;fill:color(display-p3 0.2667 0.7020 0.9020);fill-opacity:1;"/>
<path d="M38.8098 47.1299C36.8998 50.1299 32.5598 49.5299 32.5598 44.6199C32.5598 41.4799 33.1998 25.3699 35.8898 27.6199C40.2798 31.2899 41.5298 42.9999 38.8098 47.1299Z" fill="#81D4FA" style="fill:#81D4FA;fill:color(display-p3 0.5059 0.8314 0.9804);fill-opacity:1;"/>
<defs>
<radialGradient id="paint0_radial_169_5785" cx="0" cy="0" r="1" gradientUnits="userSpaceOnUse" gradientTransform="translate(63.6001 62.9) scale(56.9597 56.9597)">
<stop offset="0.5" stop-color="#FDE030" style="stop-color:#FDE030;stop-color:color(display-p3 0.9922 0.8784 0.1882);stop-opacity:1;"/>
<stop offset="0.92" stop-color="#F7C02B" style="stop-color:#F7C02B;stop-color:color(display-p3 0.9686 0.7529 0.1686);stop-opacity:1;"/>
<stop offset="1" stop-color="#F4A223" style="stop-color:#F4A223;stop-color:color(display-p3 0.9569 0.6353 0.1373);stop-opacity:1;"/>
</radialGradient>
<radialGradient id="paint1_radial_169_5785" cx="0" cy="0" r="1" gradientUnits="userSpaceOnUse" gradientTransform="translate(38.5991 34.5377) rotate(-43.2082) scale(102.024 101.825)">
<stop offset="0.3533" stop-color="#F9DDBD" style="stop-color:#F9DDBD;stop-color:color(display-p3 0.9765 0.8667 0.7412);stop-opacity:1;"/>
<stop offset="0.8723" stop-color="#FFD29C" style="stop-color:#FFD29C;stop-color:color(display-p3 1.0000 0.8235 0.6118);stop-opacity:1;"/>
</radialGradient>
</defs>
</svg>
