<svg width="128" height="128" viewBox="0 0 128 128" fill="none" xmlns="http://www.w3.org/2000/svg">
<path d="M124 38.4C122.2 39.5 120.3 40.5 118.6 41.2C116.8 42 115.1 42.6 113.4 43.2C111.7 43.8 110 44.1 108.3 44.5C106.6 44.9 105 45 103.4 45.2C101.8 45.3 100.2 45.4 98.6 45.4C97 45.4 95.5 45.3 94 45.2C92.5 45.1 91 44.9 89.5 44.7C88 44.5 86.6 44.3 85.1 44C83.6 43.7 82.2 43.4 80.8 43.1C79.4 42.8 78 42.4 76.6 42C75.2 41.6 73.8 41.2 72.4 40.8C71 40.4 69.6 40 68.2 39.6C66.8 39.2 65.4 38.8 64 38.4C62.6 38 61.2 37.6 59.8 37.2C58.4 36.8 57 36.4 55.6 36C54.2 35.6 52.8 35.2 51.4 34.8C50 34.4 48.6 34.1 47.2 33.7C45.8 33.3 44.3 33.1 42.9 32.8C41.4 32.5 40 32.3 38.5 32.1C37 31.9 35.5 31.7 34 31.6C32.5 31.5 30.9 31.4 29.4 31.4C27.9 31.4 26.3 31.5 24.6 31.6C22.9 31.7 21.4 32 19.7 32.3C18 32.6 16.4 33 14.6 33.6C12.8 34.2 11.1 34.8 9.4 35.6C7.7 36.4 5.8 37.3 4 38.4V33.4C4 33.4 4 27.5 4 26V21C5.8 19.9 7.7 18.9 9.4 18.2C11.2 17.4 12.9 16.8 14.6 16.2C16.3 15.6 18 15.3 19.7 14.9C21.4 14.6 23 14.4 24.6 14.2C26.2 14.1 27.8 14 29.4 14C31 14 32.5 14.1 34 14.2C35.5 14.3 37 14.5 38.5 14.7C40 14.9 41.5 15.1 42.9 15.4C44.3 15.7 45.8 16 47.2 16.3C48.6 16.6 50 17 51.4 17.4C52.8 17.8 54.2 18.2 55.6 18.6C57 19 58.4 19.4 59.8 19.8C61.2 20.2 62.6 20.6 64 21C65.4 21.4 66.8 21.8 68.2 22.2C69.6 22.6 71 23 72.4 23.4C73.8 23.8 75.2 24.2 76.6 24.6C78 25 79.4 25.3 80.8 25.7C82.2 26 83.7 26.3 85.1 26.6C86.5 26.9 88 27.1 89.5 27.3C91 27.5 92.5 27.7 94 27.8C95.5 27.9 97.1 28 98.6 28C100.1 28 101.7 27.9 103.4 27.8C105.1 27.7 106.6 27.4 108.3 27.1C110 26.8 111.6 26.4 113.4 25.8C115.2 25.2 116.9 24.6 118.6 23.8C120.3 23 122.2 22.1 124 21V26V33.4C124 33.4 124 36.5 124 38.4Z" fill="#757575" style="fill:#757575;fill:color(display-p3 0.4588 0.4588 0.4588);fill-opacity:1;"/>
<path d="M124 49.9883C122.2 51.0883 120.3 52.0883 118.6 52.7883C116.8 53.5883 115.1 54.1883 113.4 54.7883C111.7 55.3883 110 55.6883 108.3 56.0883C106.6 56.4883 105 56.5883 103.4 56.7883C101.8 56.8883 100.2 56.9883 98.6 56.9883C97 56.9883 95.5 56.8883 94 56.7883C92.5 56.6883 91 56.4883 89.5 56.2883C88 56.0883 86.6 55.8883 85.1 55.5883C83.6 55.2883 82.2 54.9883 80.8 54.6883C79.4 54.3883 78 53.9883 76.6 53.5883C75.2 53.1883 73.8 52.7883 72.4 52.3883C71 51.9883 69.6 51.5883 68.2 51.1883C66.8 50.7883 65.4 50.3883 64 49.9883C62.6 49.5883 61.2 49.1883 59.8 48.7883C58.4 48.3883 57 47.9883 55.6 47.5883C54.2 47.1883 52.8 46.7883 51.4 46.3883C50 45.9883 48.6 45.6883 47.2 45.2883C45.8 44.8883 44.3 44.6883 42.9 44.3883C41.4 44.0883 40 43.8883 38.5 43.6883C37 43.4883 35.5 43.2883 34 43.1883C32.5 43.0883 30.9 42.9883 29.4 42.9883C27.9 42.9883 26.3 43.0883 24.6 43.1883C22.9 43.2883 21.4 43.5883 19.7 43.8883C18 44.1883 16.4 44.5883 14.6 45.1883C12.8 45.7883 11.1 46.3883 9.4 47.1883C7.7 47.9883 5.8 48.8883 4 49.9883V44.9883C4 44.9883 4 39.0883 4 37.5883V32.5883C5.8 31.4883 7.7 30.4883 9.4 29.7883C11.2 28.9883 12.9 28.3883 14.6 27.7883C16.3 27.1883 18 26.8883 19.7 26.4883C21.4 26.1883 23 25.9883 24.6 25.7883C26.2 25.6883 27.8 25.5883 29.4 25.5883C31 25.5883 32.5 25.6883 34 25.7883C35.5 25.8883 37 26.0883 38.5 26.2883C40 26.4883 41.5 26.6883 42.9 26.9883C44.3 27.2883 45.8 27.5883 47.2 27.8883C48.6 28.1883 50 28.5883 51.4 28.9883C52.8 29.3883 54.2 29.7883 55.6 30.1883C57 30.5883 58.4 30.9883 59.8 31.3883C61.2 31.7883 62.6 32.1883 64 32.5883C65.4 32.9883 66.8 33.3883 68.2 33.7883C69.6 34.1883 71 34.5883 72.4 34.9883C73.8 35.3883 75.2 35.7883 76.6 36.1883C78 36.5883 79.4 36.8883 80.8 37.2883C82.2 37.5883 83.7 37.8883 85.1 38.1883C86.5 38.4883 88 38.6883 89.5 38.8883C91 39.0883 92.5 39.2883 94 39.3883C95.5 39.4883 97.1 39.5883 98.6 39.5883C100.1 39.5883 101.7 39.4883 103.4 39.3883C105.1 39.2883 106.6 38.9883 108.3 38.6883C110 38.3883 111.6 37.9883 113.4 37.3883C115.2 36.7883 116.9 36.1883 118.6 35.3883C120.3 34.5883 122.2 33.6883 124 32.5883V37.5883V44.9883C124 44.9883 124 48.0883 124 49.9883Z" fill="#A8A8A8" style="fill:#A8A8A8;fill:color(display-p3 0.6588 0.6588 0.6588);fill-opacity:1;"/>
<path d="M124 61.5765C122.2 62.6765 120.3 63.6765 118.6 64.3765C116.8 65.1765 115.1 65.7765 113.4 66.3765C111.7 66.9765 110 67.2765 108.3 67.6765C106.6 68.0765 105 68.1765 103.4 68.3765C101.8 68.4765 100.2 68.5765 98.6 68.5765C97 68.5765 95.5 68.4765 94 68.3765C92.5 68.2765 91 68.0765 89.5 67.8765C88 67.6765 86.6 67.4765 85.1 67.1765C83.6 66.8765 82.2 66.5765 80.8 66.2765C79.4 65.9765 78 65.5765 76.6 65.1765C75.2 64.7765 73.8 64.3765 72.4 63.9765C71 63.5765 69.6 63.1765 68.2 62.7765C66.8 62.3765 65.4 61.9765 64 61.5765C62.6 61.1765 61.2 60.7765 59.8 60.3765C58.4 59.9765 57 59.5765 55.6 59.1765C54.2 58.7765 52.8 58.3765 51.4 57.9765C50 57.5765 48.6 57.2765 47.2 56.8765C45.8 56.4765 44.3 56.2765 42.9 55.9765C41.4 55.6765 40 55.4765 38.5 55.2765C37 55.0765 35.5 54.8765 34 54.7765C32.5 54.6765 30.9 54.5765 29.4 54.5765C27.9 54.5765 26.3 54.6765 24.6 54.7765C22.9 54.8765 21.4 55.1765 19.7 55.4765C18 55.7765 16.4 56.1765 14.6 56.7765C12.8 57.3765 11.1 57.9765 9.4 58.7765C7.7 59.5765 5.8 60.4765 4 61.5765V56.5765C4 56.5765 4 50.6765 4 49.1765V44.1765C5.8 43.0765 7.7 42.0765 9.4 41.3765C11.2 40.5765 12.9 39.9765 14.6 39.3765C16.3 38.7765 18 38.4765 19.7 38.0765C21.4 37.7765 23 37.5765 24.6 37.3765C26.2 37.2765 27.8 37.1765 29.4 37.1765C31 37.1765 32.5 37.2765 34 37.3765C35.5 37.4765 37 37.6765 38.5 37.8765C40 38.0765 41.5 38.2765 42.9 38.5765C44.3 38.8765 45.8 39.1765 47.2 39.4765C48.6 39.7765 50 40.1765 51.4 40.5765C52.8 40.9765 54.2 41.3765 55.6 41.7765C57 42.1765 58.4 42.5765 59.8 42.9765C61.2 43.3765 62.6 43.7765 64 44.1765C65.4 44.5765 66.8 44.9765 68.2 45.3765C69.6 45.7765 71 46.1765 72.4 46.5765C73.8 46.9765 75.2 47.3765 76.6 47.7765C78 48.1765 79.4 48.4765 80.8 48.8765C82.2 49.1765 83.7 49.4765 85.1 49.7765C86.5 50.0765 88 50.2765 89.5 50.4765C91 50.6765 92.5 50.8765 94 50.9765C95.5 51.0765 97.1 51.1765 98.6 51.1765C100.1 51.1765 101.7 51.0765 103.4 50.9765C105.1 50.8765 106.6 50.5765 108.3 50.2765C110 49.9765 111.6 49.5765 113.4 48.9765C115.2 48.3765 116.9 47.7765 118.6 46.9765C120.3 46.1765 122.2 45.2765 124 44.1765V49.1765V56.5765C124 56.5765 124 59.6765 124 61.5765Z" fill="#EFE756" style="fill:#EFE756;fill:color(display-p3 0.9373 0.9059 0.3373);fill-opacity:1;"/>
<path d="M124 73.1649C122.2 74.2649 120.3 75.2649 118.6 75.9649C116.8 76.7649 115.1 77.3649 113.4 77.9649C111.7 78.5649 110 78.8649 108.3 79.2649C106.6 79.6649 105 79.7649 103.4 79.9649C101.8 80.0649 100.2 80.1649 98.6 80.1649C97 80.1649 95.5 80.0649 94 79.9649C92.5 79.8649 91 79.6649 89.5 79.4649C88 79.2649 86.6 79.0649 85.1 78.7649C83.6 78.4649 82.2 78.1649 80.8 77.8649C79.4 77.5649 78 77.1649 76.6 76.7649C75.2 76.3649 73.8 75.9649 72.4 75.5649C71 75.1649 69.6 74.7649 68.2 74.3649C66.8 73.9649 65.4 73.5649 64 73.1649C62.6 72.7649 61.2 72.3649 59.8 71.9649C58.4 71.5649 57 71.1649 55.6 70.7649C54.2 70.3649 52.8 69.9649 51.4 69.5649C50 69.1649 48.6 68.8649 47.2 68.4649C45.8 68.0649 44.3 67.8649 42.9 67.5649C41.4 67.2649 40 67.0649 38.5 66.8649C37 66.6649 35.5 66.4649 34 66.3649C32.5 66.2649 30.9 66.1649 29.4 66.1649C27.9 66.1649 26.3 66.2649 24.6 66.3649C22.9 66.4649 21.4 66.7649 19.7 67.0649C18 67.3649 16.4 67.7649 14.6 68.3649C12.8 68.9649 11.1 69.5649 9.4 70.3649C7.7 71.1649 5.8 72.0649 4 73.1649V68.1649C4 68.1649 4 62.2649 4 60.7649V55.7649C5.8 54.6649 7.7 53.6649 9.4 52.9649C11.2 52.1649 12.9 51.5649 14.6 50.9649C16.3 50.3649 18 50.0649 19.7 49.6649C21.4 49.3649 23 49.1649 24.6 48.9649C26.2 48.8649 27.8 48.7649 29.4 48.7649C31 48.7649 32.5 48.8649 34 48.9649C35.5 49.0649 37 49.2649 38.5 49.4649C40 49.6649 41.5 49.8649 42.9 50.1649C44.3 50.4649 45.8 50.7649 47.2 51.0649C48.6 51.3649 50 51.7649 51.4 52.1649C52.8 52.5649 54.2 52.9649 55.6 53.3649C57 53.7649 58.4 54.1649 59.8 54.5649C61.2 54.9649 62.6 55.3649 64 55.7649C65.4 56.1649 66.8 56.5649 68.2 56.9649C69.6 57.3649 71 57.7649 72.4 58.1649C73.8 58.5649 75.2 58.9649 76.6 59.3649C78 59.7649 79.4 60.0649 80.8 60.4649C82.2 60.7649 83.7 61.0649 85.1 61.3649C86.5 61.6649 88 61.8649 89.5 62.0649C91 62.2649 92.5 62.4649 94 62.5649C95.5 62.6649 97.1 62.7649 98.6 62.7649C100.1 62.7649 101.7 62.6649 103.4 62.5649C105.1 62.4649 106.6 62.1649 108.3 61.8649C110 61.5649 111.6 61.1649 113.4 60.5649C115.2 59.9649 116.9 59.3649 118.6 58.5649C120.3 57.7649 122.2 56.8649 124 55.7649V60.7649V68.1649C124 68.1649 124 71.2649 124 73.1649Z" fill="white" style="fill:white;fill-opacity:1;"/>
<path d="M124 84.7532C122.2 85.8532 120.3 86.8531 118.6 87.5531C116.8 88.3531 115.1 88.9531 113.4 89.5531C111.7 90.1531 110 90.4531 108.3 90.8531C106.6 91.2531 105 91.3531 103.4 91.5531C101.8 91.6531 100.2 91.7532 98.6 91.7532C97 91.7532 95.5 91.6531 94 91.5531C92.5 91.4531 91 91.2531 89.5 91.0531C88 90.8531 86.6 90.6531 85.1 90.3531C83.6 90.0532 82.2 89.7531 80.8 89.4531C79.4 89.1531 78 88.7531 76.6 88.3531C75.2 87.9531 73.8 87.5531 72.4 87.1531C71 86.7531 69.6 86.3531 68.2 85.9531C66.8 85.5531 65.4 85.1532 64 84.7532C62.6 84.3532 61.2 83.9531 59.8 83.5531C58.4 83.1531 57 82.7531 55.6 82.3531C54.2 81.9531 52.8 81.5531 51.4 81.1531C50 80.7531 48.6 80.4531 47.2 80.0531C45.8 79.6531 44.3 79.4531 42.9 79.1531C41.4 78.8531 40 78.6531 38.5 78.4531C37 78.2531 35.5 78.0531 34 77.9531C32.5 77.8531 30.9 77.7532 29.4 77.7532C27.9 77.7532 26.3 77.8531 24.6 77.9531C22.9 78.0531 21.4 78.3531 19.7 78.6531C18 78.9531 16.4 79.3531 14.6 79.9531C12.8 80.5531 11.1 81.1531 9.4 81.9531C7.7 82.7531 5.8 83.6532 4 84.7532V79.7532C4 79.7532 4 73.8531 4 72.3531V67.3531C5.8 66.2531 7.7 65.2531 9.4 64.5531C11.2 63.7531 12.9 63.1531 14.6 62.5531C16.3 61.9531 18 61.6532 19.7 61.2532C21.4 60.9532 23 60.7531 24.6 60.5531C26.2 60.4531 27.8 60.3531 29.4 60.3531C31 60.3531 32.5 60.4531 34 60.5531C35.5 60.6531 37 60.8531 38.5 61.0531C40 61.2531 41.5 61.4532 42.9 61.7532C44.3 62.0532 45.8 62.3531 47.2 62.6531C48.6 62.9531 50 63.3532 51.4 63.7532C52.8 64.1532 54.2 64.5531 55.6 64.9531C57 65.3531 58.4 65.7531 59.8 66.1531C61.2 66.5531 62.6 66.9531 64 67.3531C65.4 67.7531 66.8 68.1531 68.2 68.5531C69.6 68.9531 71 69.3532 72.4 69.7532C73.8 70.1532 75.2 70.5531 76.6 70.9531C78 71.3531 79.4 71.6531 80.8 72.0531C82.2 72.3531 83.7 72.6531 85.1 72.9531C86.5 73.2531 88 73.4531 89.5 73.6531C91 73.8531 92.5 74.0531 94 74.1531C95.5 74.2531 97.1 74.3531 98.6 74.3531C100.1 74.3531 101.7 74.2531 103.4 74.1531C105.1 74.0531 106.6 73.7531 108.3 73.4531C110 73.1531 111.6 72.7531 113.4 72.1531C115.2 71.5531 116.9 70.9531 118.6 70.1531C120.3 69.3531 122.2 68.4531 124 67.3531V72.3531V79.7532C124 79.7532 124 82.8532 124 84.7532Z" fill="#EFE756" style="fill:#EFE756;fill:color(display-p3 0.9373 0.9059 0.3373);fill-opacity:1;"/>
<path d="M124 96.3414C122.2 97.4414 120.3 98.4414 118.6 99.1414C116.8 99.9414 115.1 100.541 113.4 101.141C111.7 101.741 110 102.041 108.3 102.441C106.6 102.841 105 102.941 103.4 103.141C101.8 103.241 100.2 103.341 98.6 103.341C97 103.341 95.5 103.241 94 103.141C92.5 103.041 91 102.841 89.5 102.641C88 102.441 86.6 102.241 85.1 101.941C83.6 101.641 82.2 101.341 80.8 101.041C79.4 100.741 78 100.341 76.6 99.9414C75.2 99.5414 73.8 99.1414 72.4 98.7414C71 98.3414 69.6 97.9414 68.2 97.5414C66.8 97.1414 65.4 96.7414 64 96.3414C62.6 95.9414 61.2 95.5414 59.8 95.1414C58.4 94.7414 57 94.3414 55.6 93.9414C54.2 93.5414 52.8 93.1414 51.4 92.7414C50 92.3414 48.6 92.0414 47.2 91.6414C45.8 91.2414 44.3 91.0414 42.9 90.7414C41.4 90.4414 40 90.2414 38.5 90.0414C37 89.8414 35.5 89.6414 34 89.5414C32.5 89.4414 30.9 89.3414 29.4 89.3414C27.9 89.3414 26.3 89.4414 24.6 89.5414C22.9 89.6414 21.4 89.9414 19.7 90.2414C18 90.5414 16.4 90.9414 14.6 91.5414C12.8 92.1414 11.1 92.7414 9.4 93.5414C7.7 94.3414 5.8 95.2414 4 96.3414V91.3414C4 91.3414 4 86.7018 4 85.2018V80.2018C5.8 79.1018 7.7 78.1018 9.4 77.4018C11.2 76.6018 12.9 76.0018 14.6 75.4018C16.3 74.8018 18 74.5018 19.7 74.1018C21.4 73.8018 23 73.6018 24.6 73.4018C26.2 73.3018 27.8 73.2018 29.4 73.2018C31 73.2018 32.5 73.3018 34 73.4018C35.5 73.5018 37 73.7018 38.5 73.9018C40 74.1018 41.5 74.3018 42.9 74.6018C44.3 74.9018 45.8 75.2018 47.2 75.5018C48.6 75.8018 50 76.2018 51.4 76.6018C52.8 77.0018 54.2 77.4018 55.6 77.8018C57 78.2018 58.4 78.6018 59.8 79.0018C61.2 79.4018 62.6 79.8018 64 80.2018C65.4 80.6018 66.8 81.0018 68.2 81.4018C69.6 81.8018 71 82.2018 72.4 82.6018C73.8 83.0018 75.2 83.4018 76.6 83.8018C78 84.2018 79.4 84.5018 80.8 84.9018C82.2 85.2018 83.7 85.5018 85.1 85.8018C86.5 86.1018 88 86.3018 89.5 86.5018C91 86.7018 92.5 86.9018 94 87.0018C95.5 87.1018 97.1 87.2018 98.6 87.2018C100.1 87.2018 101.7 87.1018 103.4 87.0018C105.1 86.9018 106.6 86.6018 108.3 86.3018C110 86.0018 111.6 85.6018 113.4 85.0018C115.2 84.4018 116.9 83.8018 118.6 83.0018C120.3 82.2018 122.2 81.3018 124 80.2018V85.2018V91.3414C124 91.3414 124 94.4414 124 96.3414Z" fill="#A8A8A8" style="fill:#A8A8A8;fill:color(display-p3 0.6588 0.6588 0.6588);fill-opacity:1;"/>
<path d="M124 107.93C122.2 109.03 120.3 110.03 118.6 110.73C116.8 111.53 115.1 112.13 113.4 112.73C111.7 113.33 110 113.63 108.3 114.03C106.6 114.43 105 114.53 103.4 114.73C101.8 114.83 100.2 114.93 98.6 114.93C97 114.93 95.5 114.83 94 114.73C92.5 114.63 91 114.43 89.5 114.23C88 114.03 86.6 113.83 85.1 113.53C83.6 113.23 82.2 112.93 80.8 112.63C79.4 112.33 78 111.93 76.6 111.53C75.2 111.13 73.8 110.73 72.4 110.33C71 109.93 69.6 109.53 68.2 109.13C66.8 108.73 65.4 108.33 64 107.93C62.6 107.53 61.2 107.13 59.8 106.73C58.4 106.33 57 105.93 55.6 105.53C54.2 105.13 52.8 104.73 51.4 104.33C50 103.93 48.6 103.63 47.2 103.23C45.8 102.83 44.3 102.63 42.9 102.33C41.4 102.03 40 101.83 38.5 101.63C37 101.43 35.5 101.23 34 101.13C32.5 101.03 30.9 100.93 29.4 100.93C27.9 100.93 26.3 101.03 24.6 101.13C22.9 101.23 21.4 101.53 19.7 101.83C18 102.13 16.4 102.53 14.6 103.13C12.8 103.73 11.1 104.33 9.4 105.13C7.7 105.93 5.8 106.83 4 107.93V102.93C4 102.93 4 99.8318 4 98.3318V93.3318C5.8 92.2318 7.7 91.2318 9.4 90.5318C11.2 89.7318 12.9 89.1318 14.6 88.5318C16.3 87.9318 18 87.6318 19.7 87.2318C21.4 86.9318 23 86.7318 24.6 86.5318C26.2 86.4318 27.8 86.3318 29.4 86.3318C31 86.3318 32.5 86.4318 34 86.5318C35.5 86.6318 37 86.8318 38.5 87.0318C40 87.2318 41.5 87.4318 42.9 87.7318C44.3 88.0318 45.8 88.3318 47.2 88.6318C48.6 88.9318 50 89.3318 51.4 89.7318C52.8 90.1318 54.2 90.5318 55.6 90.9318C57 91.3318 58.4 91.7318 59.8 92.1318C61.2 92.5318 62.6 92.9318 64 93.3318C65.4 93.7318 66.8 94.1318 68.2 94.5318C69.6 94.9318 71 95.3318 72.4 95.7318C73.8 96.1318 75.2 96.5318 76.6 96.9318C78 97.3318 79.4 97.6318 80.8 98.0318C82.2 98.3318 83.7 98.6318 85.1 98.9318C86.5 99.2318 88 99.4318 89.5 99.6318C91 99.8318 92.5 100.032 94 100.132C95.5 100.232 97.1 100.332 98.6 100.332C100.1 100.332 101.7 100.232 103.4 100.132C105.1 100.032 106.6 99.7318 108.3 99.4318C110 99.1318 111.6 98.7318 113.4 98.1318C115.2 97.5318 116.9 96.9318 118.6 96.1318C120.3 95.3318 122.2 94.4318 124 93.3318V98.3318L124 102.93C124 102.93 124 106.03 124 107.93Z" fill="#757575" style="fill:#757575;fill:color(display-p3 0.4588 0.4588 0.4588);fill-opacity:1;"/>
<path opacity="0.3" d="M124 107.2C122.15 108.32 120.34 109.26 118.57 110.05C116.79 110.85 115.05 111.5 113.33 112.03C111.61 112.56 109.93 112.98 108.27 113.29C106.61 113.61 104.98 113.83 103.38 113.97C101.77 114.11 100.19 114.17 98.63 114.17C97.07 114.17 95.53 114.11 94.01 113.99C92.49 113.88 90.99 113.71 89.51 113.51C88.03 113.3 86.56 113.06 85.11 112.78C83.66 112.5 82.22 112.2 80.79 111.87C79.36 111.54 77.94 111.19 76.54 110.82C75.14 110.45 73.73 110.06 72.33 109.67C70.93 109.27 69.54 108.86 68.16 108.45C66.77 108.04 65.39 107.62 64 107.2C62.62 106.78 61.23 106.36 59.84 105.95C58.45 105.54 57.06 105.13 55.67 104.73C54.27 104.33 52.87 103.95 51.46 103.58C50.05 103.21 48.63 102.86 47.21 102.53C45.79 102.2 44.34 101.89 42.89 101.62C41.44 101.34 39.97 101.1 38.49 100.89C37.01 100.68 35.51 100.52 33.99 100.41C32.47 100.3 30.93 100.23 29.37 100.23C27.81 100.23 26.23 100.29 24.62 100.43C23.01 100.57 21.38 100.79 19.73 101.11C18.07 101.43 16.39 101.84 14.67 102.37C12.95 102.9 11.21 103.55 9.43 104.35C7.65 105.15 5.84 106.09 4 107.2V101.59V96.27V91.2V86.34V81.66C4 81.66 4 78.61 4 77.12V72.69C4 72.69 4 69.77 4 68.33C4 66.89 4 65.44 4 64V59.67V55.31V50.88C4 50.88 4 47.88 4 46.34C4 44.8 4 43.25 4 41.66V36.8C4 36.8 4 33.46 4 31.73V26.41V20.8C5.85 19.68 7.66 18.74 9.43 17.95C11.2 17.16 12.95 16.5 14.67 15.97C16.39 15.44 18.07 15.02 19.73 14.71C21.39 14.39 23.02 14.17 24.62 14.03C26.23 13.89 27.81 13.83 29.37 13.83C30.93 13.83 32.47 13.89 33.99 14.01C35.51 14.12 37.01 14.29 38.49 14.49C39.97 14.69 41.44 14.94 42.89 15.22C44.34 15.5 45.78 15.8 47.21 16.13C48.64 16.46 50.06 16.81 51.46 17.18C52.87 17.55 54.27 17.94 55.67 18.33C57.07 18.72 58.46 19.14 59.84 19.55C61.22 19.96 62.61 20.38 64 20.8C65.38 21.22 66.77 21.64 68.16 22.05C69.55 22.46 70.94 22.87 72.33 23.27C73.72 23.67 75.13 24.05 76.54 24.42C77.95 24.79 79.37 25.14 80.79 25.47C82.22 25.8 83.66 26.11 85.11 26.38C86.56 26.66 88.03 26.9 89.51 27.11C90.99 27.32 92.49 27.48 94.01 27.59C95.53 27.7 97.07 27.77 98.63 27.77C100.19 27.77 101.77 27.71 103.38 27.57C104.99 27.43 106.62 27.21 108.27 26.89C109.93 26.57 111.61 26.16 113.33 25.63C115.05 25.1 116.79 24.45 118.57 23.65C120.35 22.85 122.16 21.91 124 20.8V26.41V31.73V36.8C124 36.8 124 40.07 124 41.66V46.34C124 46.34 124 49.39 124 50.88C124 52.37 124 53.85 124 55.31V59.67V64V68.33C124 68.33 124 71.23 124 72.69C124 74.15 124 75.63 124 77.12V81.66C124 81.66 124 84.75 124 86.34V91.2V96.27V101.59V107.2Z" fill="url(#paint0_linear_47_43)" style=""/>
<defs>
<linearGradient id="paint0_linear_47_43" x1="5.3703" y1="22.659" x2="122.37" y2="105.16" gradientUnits="userSpaceOnUse">
<stop stop-color="white" stop-opacity="0" style="stop-color:none;stop-opacity:0;"/>
<stop offset="0.1646" stop-color="#C8C8C8" stop-opacity="0.1646" style="stop-color:#C8C8C8;stop-color:color(display-p3 0.7843 0.7843 0.7843);stop-opacity:0.1646;"/>
<stop offset="0.3934" stop-color="#828282" stop-opacity="0.3934" style="stop-color:#828282;stop-color:color(display-p3 0.5098 0.5098 0.5098);stop-opacity:0.3934;"/>
<stop offset="0.5997" stop-color="#4A4A4A" stop-opacity="0.5997" style="stop-color:#4A4A4A;stop-color:color(display-p3 0.2902 0.2902 0.2902);stop-opacity:0.5997;"/>
<stop offset="0.7759" stop-color="#222222" stop-opacity="0.7759" style="stop-color:#222222;stop-color:color(display-p3 0.1333 0.1333 0.1333);stop-opacity:0.7759;"/>
<stop offset="0.9151" stop-color="#090909" stop-opacity="0.9151" style="stop-color:#090909;stop-color:color(display-p3 0.0353 0.0353 0.0353);stop-opacity:0.9151;"/>
<stop offset="1" style="stop-color:black;stop-opacity:1;"/>
</linearGradient>
</defs>
</svg>
