<svg width="128" height="128" viewBox="0 0 128 128" fill="none" xmlns="http://www.w3.org/2000/svg">
<g opacity="0.2">
<path d="M99.73 7.09009C102.49 7.09009 104.73 9.33009 104.73 12.0901V116.09C104.73 118.85 102.49 121.09 99.73 121.09H27.73C24.97 121.09 22.73 118.85 22.73 116.09V12.0901C22.73 9.33009 24.97 7.09009 27.73 7.09009H99.73ZM99.73 4.09009H27.73C23.31 4.09009 19.73 7.67009 19.73 12.0901V116.09C19.73 120.51 23.31 124.09 27.73 124.09H99.73C104.15 124.09 107.73 120.51 107.73 116.09V12.0901C107.73 7.67009 104.15 4.09009 99.73 4.09009Z" fill="#212121" style="fill:#212121;fill:color(display-p3 0.1294 0.1294 0.1294);fill-opacity:1;"/>
<path d="M99.73 7.09009C102.49 7.09009 104.73 9.33009 104.73 12.0901V116.09C104.73 118.85 102.49 121.09 99.73 121.09H27.73C24.97 121.09 22.73 118.85 22.73 116.09V12.0901C22.73 9.33009 24.97 7.09009 27.73 7.09009H99.73ZM99.73 4.09009H27.73C23.31 4.09009 19.73 7.67009 19.73 12.0901V116.09C19.73 120.51 23.31 124.09 27.73 124.09H99.73C104.15 124.09 107.73 120.51 107.73 116.09V12.0901C107.73 7.67009 104.15 4.09009 99.73 4.09009Z" fill="#212121" style="fill:#212121;fill:color(display-p3 0.1294 0.1294 0.1294);fill-opacity:1;"/>
<path d="M99.73 7.09009C102.49 7.09009 104.73 9.33009 104.73 12.0901V116.09C104.73 118.85 102.49 121.09 99.73 121.09H27.73C24.97 121.09 22.73 118.85 22.73 116.09V12.0901C22.73 9.33009 24.97 7.09009 27.73 7.09009H99.73ZM99.73 4.09009H27.73C23.31 4.09009 19.73 7.67009 19.73 12.0901V116.09C19.73 120.51 23.31 124.09 27.73 124.09H99.73C104.15 124.09 107.73 120.51 107.73 116.09V12.0901C107.73 7.67009 104.15 4.09009 99.73 4.09009Z" fill="#212121" style="fill:#212121;fill:color(display-p3 0.1294 0.1294 0.1294);fill-opacity:1;"/>
</g>
<path d="M102.439 125.43L26.4194 125.06C22.9694 125.06 20.1694 122.26 20.1694 118.81L32.3694 26.6801L102.559 4.5001C108.689 4.1701 109.039 7.0301 109.039 10.4801L108.669 119.17C108.689 122.64 105.889 125.43 102.439 125.43Z" fill="#D9CDC9" style="fill:#D9CDC9;fill:color(display-p3 0.8510 0.8039 0.7882);fill-opacity:1;"/>
<path d="M101.98 122.06C101.98 122.06 44.2195 123.04 25.5095 121.98C21.9295 121.78 20.1795 120.36 20.1695 118.82L19.9995 10.3301C19.9995 6.88008 22.7995 4.08008 26.2495 4.08008L101.89 4.40008C105.34 4.40008 106.65 7.26008 106.65 10.7101L106.08 116.11C106.06 119.56 105.43 122.06 101.98 122.06Z" fill="#F1EDEC" style="fill:#F1EDEC;fill:color(display-p3 0.9451 0.9294 0.9255);fill-opacity:1;"/>
<path d="M42.2668 97.4444C43.0334 96.3333 44.9501 94.6667 46.8668 94.6667C50.3168 94.6667 51.8501 96.8889 51.8501 99.6667C51.8501 102.444 50.3168 104.944 46.8668 104.944C44.9501 104.944 43.8001 103.556 42.6501 102.722C42.2668 102.444 41.8834 102.722 42.2668 103C43.4168 103.833 45.3334 106.056 45.3334 108C45.3334 110.222 43.4168 113 40.3501 113C37.2834 113 35.3668 110.222 35.3668 108C35.3668 106.056 37.2834 103.833 38.4334 103C38.8168 102.722 38.4334 102.444 38.0501 102.722C36.9001 103.556 35.7501 104.944 33.8334 104.944C30.3834 104.944 28.8501 102.444 28.8501 99.6667C28.8501 96.8889 30.3834 94.6667 33.8334 94.6667C35.7501 94.6667 37.6668 96.3333 38.4334 97.4444C38.8168 97.7222 38.8168 97.4444 38.8168 97.1667C38.4334 94.9444 38.4334 94.3889 38.0501 92.7222C37.6668 91.0556 36.5168 88 36.5168 88C38.4334 88.5556 42.2668 88.5556 44.1834 88C44.1834 88 43.0334 91.0556 42.6501 92.7222C42.2668 94.3889 42.2668 94.9444 41.8834 97.1667C41.8834 97.4444 41.8834 97.7222 42.2668 97.4444Z" fill="#212121" style="fill:#212121;fill:color(display-p3 0.1294 0.1294 0.1294);fill-opacity:1;"/>
<path d="M42.2668 97.4444C43.0334 96.3333 44.9501 94.6667 46.8668 94.6667C50.3168 94.6667 51.8501 96.8889 51.8501 99.6667C51.8501 102.444 50.3168 104.944 46.8668 104.944C44.9501 104.944 43.8001 103.556 42.6501 102.722C42.2668 102.444 41.8834 102.722 42.2668 103C43.4168 103.833 45.3334 106.056 45.3334 108C45.3334 110.222 43.4168 113 40.3501 113C37.2834 113 35.3668 110.222 35.3668 108C35.3668 106.056 37.2834 103.833 38.4334 103C38.8168 102.722 38.4334 102.444 38.0501 102.722C36.9001 103.556 35.7501 104.944 33.8334 104.944C30.3834 104.944 28.8501 102.444 28.8501 99.6667C28.8501 96.8889 30.3834 94.6667 33.8334 94.6667C35.7501 94.6667 37.6668 96.3333 38.4334 97.4444C38.8168 97.7222 38.8168 97.4444 38.8168 97.1667C38.4334 94.9444 38.4334 94.3889 38.0501 92.7222C37.6668 91.0556 36.5168 88 36.5168 88C38.4334 88.5556 42.2668 88.5556 44.1834 88C44.1834 88 43.0334 91.0556 42.6501 92.7222C42.2668 94.3889 42.2668 94.9444 41.8834 97.1667C41.8834 97.4444 41.8834 97.7222 42.2668 97.4444Z" fill="#212121" style="fill:#212121;fill:color(display-p3 0.1294 0.1294 0.1294);fill-opacity:1;"/>
<path d="M42.2668 97.4444C43.0334 96.3333 44.9501 94.6667 46.8668 94.6667C50.3168 94.6667 51.8501 96.8889 51.8501 99.6667C51.8501 102.444 50.3168 104.944 46.8668 104.944C44.9501 104.944 43.8001 103.556 42.6501 102.722C42.2668 102.444 41.8834 102.722 42.2668 103C43.4168 103.833 45.3334 106.056 45.3334 108C45.3334 110.222 43.4168 113 40.3501 113C37.2834 113 35.3668 110.222 35.3668 108C35.3668 106.056 37.2834 103.833 38.4334 103C38.8168 102.722 38.4334 102.444 38.0501 102.722C36.9001 103.556 35.7501 104.944 33.8334 104.944C30.3834 104.944 28.8501 102.444 28.8501 99.6667C28.8501 96.8889 30.3834 94.6667 33.8334 94.6667C35.7501 94.6667 37.6668 96.3333 38.4334 97.4444C38.8168 97.7222 38.8168 97.4444 38.8168 97.1667C38.4334 94.9444 38.4334 94.3889 38.0501 92.7222C37.6668 91.0556 36.5168 88 36.5168 88C38.4334 88.5556 42.2668 88.5556 44.1834 88C44.1834 88 43.0334 91.0556 42.6501 92.7222C42.2668 94.3889 42.2668 94.9444 41.8834 97.1667C41.8834 97.4444 41.8834 97.7222 42.2668 97.4444Z" fill="#212121" style="fill:#212121;fill:color(display-p3 0.1294 0.1294 0.1294);fill-opacity:1;"/>
<path d="M87.4167 97.4444C88.1833 96.3333 90.1 94.6667 92.0167 94.6667C95.4667 94.6667 97 96.8889 97 99.6667C97 102.444 95.4667 104.944 92.0167 104.944C90.1 104.944 88.95 103.556 87.8 102.722C87.4167 102.444 87.0333 102.722 87.4167 103C88.5667 103.833 90.4833 106.056 90.4833 108C90.4833 110.222 88.5667 113 85.5 113C82.4333 113 80.5167 110.222 80.5167 108C80.5167 106.056 82.4333 103.833 83.5833 103C83.9667 102.722 83.5833 102.444 83.2 102.722C82.05 103.556 80.9 104.944 78.9833 104.944C75.5333 104.944 74 102.444 74 99.6667C74 96.8889 75.5333 94.6667 78.9833 94.6667C80.9 94.6667 82.8167 96.3333 83.5833 97.4444C83.9667 97.7222 83.9667 97.4444 83.9667 97.1667C83.5833 94.9444 83.5833 94.3889 83.2 92.7222C82.8167 91.0556 81.6667 88 81.6667 88C83.5833 88.5556 87.4167 88.5556 89.3333 88C89.3333 88 88.1833 91.0556 87.8 92.7222C87.4167 94.3889 87.4167 94.9444 87.0333 97.1667C87.0333 97.4444 87.0333 97.7222 87.4167 97.4444Z" fill="#212121" style="fill:#212121;fill:color(display-p3 0.1294 0.1294 0.1294);fill-opacity:1;"/>
<path d="M87.4167 97.4444C88.1833 96.3333 90.1 94.6667 92.0167 94.6667C95.4667 94.6667 97 96.8889 97 99.6667C97 102.444 95.4667 104.944 92.0167 104.944C90.1 104.944 88.95 103.556 87.8 102.722C87.4167 102.444 87.0333 102.722 87.4167 103C88.5667 103.833 90.4833 106.056 90.4833 108C90.4833 110.222 88.5667 113 85.5 113C82.4333 113 80.5167 110.222 80.5167 108C80.5167 106.056 82.4333 103.833 83.5833 103C83.9667 102.722 83.5833 102.444 83.2 102.722C82.05 103.556 80.9 104.944 78.9833 104.944C75.5333 104.944 74 102.444 74 99.6667C74 96.8889 75.5333 94.6667 78.9833 94.6667C80.9 94.6667 82.8167 96.3333 83.5833 97.4444C83.9667 97.7222 83.9667 97.4444 83.9667 97.1667C83.5833 94.9444 83.5833 94.3889 83.2 92.7222C82.8167 91.0556 81.6667 88 81.6667 88C83.5833 88.5556 87.4167 88.5556 89.3333 88C89.3333 88 88.1833 91.0556 87.8 92.7222C87.4167 94.3889 87.4167 94.9444 87.0333 97.1667C87.0333 97.4444 87.0333 97.7222 87.4167 97.4444Z" fill="#212121" style="fill:#212121;fill:color(display-p3 0.1294 0.1294 0.1294);fill-opacity:1;"/>
<path d="M87.4167 97.4444C88.1833 96.3333 90.1 94.6667 92.0167 94.6667C95.4667 94.6667 97 96.8889 97 99.6667C97 102.444 95.4667 104.944 92.0167 104.944C90.1 104.944 88.95 103.556 87.8 102.722C87.4167 102.444 87.0333 102.722 87.4167 103C88.5667 103.833 90.4833 106.056 90.4833 108C90.4833 110.222 88.5667 113 85.5 113C82.4333 113 80.5167 110.222 80.5167 108C80.5167 106.056 82.4333 103.833 83.5833 103C83.9667 102.722 83.5833 102.444 83.2 102.722C82.05 103.556 80.9 104.944 78.9833 104.944C75.5333 104.944 74 102.444 74 99.6667C74 96.8889 75.5333 94.6667 78.9833 94.6667C80.9 94.6667 82.8167 96.3333 83.5833 97.4444C83.9667 97.7222 83.9667 97.4444 83.9667 97.1667C83.5833 94.9444 83.5833 94.3889 83.2 92.7222C82.8167 91.0556 81.6667 88 81.6667 88C83.5833 88.5556 87.4167 88.5556 89.3333 88C89.3333 88 88.1833 91.0556 87.8 92.7222C87.4167 94.3889 87.4167 94.9444 87.0333 97.1667C87.0333 97.4444 87.0333 97.7222 87.4167 97.4444Z" fill="#212121" style="fill:#212121;fill:color(display-p3 0.1294 0.1294 0.1294);fill-opacity:1;"/>
<path d="M44.4167 33.5556C45.1833 34.6667 47.1 36.3333 49.0167 36.3333C52.4667 36.3333 54 34.1111 54 31.3333C54 28.5556 52.4667 26.0556 49.0167 26.0556C47.1 26.0556 45.95 27.4444 44.8 28.2778C44.4167 28.5556 44.0333 28.2778 44.4167 28C45.5667 27.1667 47.4833 24.9444 47.4833 23C47.4833 20.7778 45.5667 18 42.5 18C39.4333 18 37.5167 20.7778 37.5167 23C37.5167 24.9444 39.4333 27.1667 40.5833 28C40.9667 28.2778 40.5833 28.5556 40.2 28.2778C39.05 27.4444 37.9 26.0556 35.9833 26.0556C32.5333 26.0556 31 28.5556 31 31.3333C31 34.1111 32.5333 36.3333 35.9833 36.3333C37.9 36.3333 39.8167 34.6667 40.5833 33.5556C40.9667 33.2778 40.9667 33.5556 40.9667 33.8333C40.5833 36.0556 40.5833 36.6111 40.2 38.2778C39.8167 39.9444 38.6667 43 38.6667 43C40.5833 42.4444 44.4167 42.4444 46.3333 43C46.3333 43 45.1833 39.9444 44.8 38.2778C44.4167 36.6111 44.4167 36.0556 44.0333 33.8333C44.0333 33.5556 44.0333 33.2778 44.4167 33.5556Z" fill="#212121" style="fill:#212121;fill:color(display-p3 0.1294 0.1294 0.1294);fill-opacity:1;"/>
<path d="M44.4167 33.5556C45.1833 34.6667 47.1 36.3333 49.0167 36.3333C52.4667 36.3333 54 34.1111 54 31.3333C54 28.5556 52.4667 26.0556 49.0167 26.0556C47.1 26.0556 45.95 27.4444 44.8 28.2778C44.4167 28.5556 44.0333 28.2778 44.4167 28C45.5667 27.1667 47.4833 24.9444 47.4833 23C47.4833 20.7778 45.5667 18 42.5 18C39.4333 18 37.5167 20.7778 37.5167 23C37.5167 24.9444 39.4333 27.1667 40.5833 28C40.9667 28.2778 40.5833 28.5556 40.2 28.2778C39.05 27.4444 37.9 26.0556 35.9833 26.0556C32.5333 26.0556 31 28.5556 31 31.3333C31 34.1111 32.5333 36.3333 35.9833 36.3333C37.9 36.3333 39.8167 34.6667 40.5833 33.5556C40.9667 33.2778 40.9667 33.5556 40.9667 33.8333C40.5833 36.0556 40.5833 36.6111 40.2 38.2778C39.8167 39.9444 38.6667 43 38.6667 43C40.5833 42.4444 44.4167 42.4444 46.3333 43C46.3333 43 45.1833 39.9444 44.8 38.2778C44.4167 36.6111 44.4167 36.0556 44.0333 33.8333C44.0333 33.5556 44.0333 33.2778 44.4167 33.5556Z" fill="#212121" style="fill:#212121;fill:color(display-p3 0.1294 0.1294 0.1294);fill-opacity:1;"/>
<path d="M44.4167 33.5556C45.1833 34.6667 47.1 36.3333 49.0167 36.3333C52.4667 36.3333 54 34.1111 54 31.3333C54 28.5556 52.4667 26.0556 49.0167 26.0556C47.1 26.0556 45.95 27.4444 44.8 28.2778C44.4167 28.5556 44.0333 28.2778 44.4167 28C45.5667 27.1667 47.4833 24.9444 47.4833 23C47.4833 20.7778 45.5667 18 42.5 18C39.4333 18 37.5167 20.7778 37.5167 23C37.5167 24.9444 39.4333 27.1667 40.5833 28C40.9667 28.2778 40.5833 28.5556 40.2 28.2778C39.05 27.4444 37.9 26.0556 35.9833 26.0556C32.5333 26.0556 31 28.5556 31 31.3333C31 34.1111 32.5333 36.3333 35.9833 36.3333C37.9 36.3333 39.8167 34.6667 40.5833 33.5556C40.9667 33.2778 40.9667 33.5556 40.9667 33.8333C40.5833 36.0556 40.5833 36.6111 40.2 38.2778C39.8167 39.9444 38.6667 43 38.6667 43C40.5833 42.4444 44.4167 42.4444 46.3333 43C46.3333 43 45.1833 39.9444 44.8 38.2778C44.4167 36.6111 44.4167 36.0556 44.0333 33.8333C44.0333 33.5556 44.0333 33.2778 44.4167 33.5556Z" fill="#212121" style="fill:#212121;fill:color(display-p3 0.1294 0.1294 0.1294);fill-opacity:1;"/>
<path d="M65.5666 45.5556C66.3332 46.6667 68.2499 48.3333 70.1666 48.3333C73.6166 48.3333 75.1499 46.1111 75.1499 43.3333C75.1499 40.5556 73.6166 38.0556 70.1666 38.0556C68.2499 38.0556 67.0999 39.4444 65.9499 40.2778C65.5666 40.5556 65.1832 40.2778 65.5666 40C66.7166 39.1667 68.6332 36.9444 68.6332 35C68.6332 32.7778 66.7166 30 63.6499 30C60.5832 30 58.6666 32.7778 58.6666 35C58.6666 36.9444 60.5832 39.1667 61.7332 40C62.1166 40.2778 61.7332 40.5556 61.3499 40.2778C60.1999 39.4444 59.0499 38.0556 57.1332 38.0556C53.6832 38.0556 52.1499 40.5556 52.1499 43.3333C52.1499 46.1111 53.6832 48.3333 57.1332 48.3333C59.0499 48.3333 60.9666 46.6667 61.7332 45.5556C62.1166 45.2778 62.1166 45.5556 62.1166 45.8333C61.7332 48.0556 61.7332 48.6111 61.3499 50.2778C60.9666 51.9444 59.8166 55 59.8166 55C61.7332 54.4444 65.5666 54.4444 67.4832 55C67.4832 55 66.3332 51.9444 65.9499 50.2778C65.5666 48.6111 65.5666 48.0556 65.1832 45.8333C65.1832 45.5556 65.1832 45.2778 65.5666 45.5556Z" fill="#212121" style="fill:#212121;fill:color(display-p3 0.1294 0.1294 0.1294);fill-opacity:1;"/>
<path d="M65.5666 45.5556C66.3332 46.6667 68.2499 48.3333 70.1666 48.3333C73.6166 48.3333 75.1499 46.1111 75.1499 43.3333C75.1499 40.5556 73.6166 38.0556 70.1666 38.0556C68.2499 38.0556 67.0999 39.4444 65.9499 40.2778C65.5666 40.5556 65.1832 40.2778 65.5666 40C66.7166 39.1667 68.6332 36.9444 68.6332 35C68.6332 32.7778 66.7166 30 63.6499 30C60.5832 30 58.6666 32.7778 58.6666 35C58.6666 36.9444 60.5832 39.1667 61.7332 40C62.1166 40.2778 61.7332 40.5556 61.3499 40.2778C60.1999 39.4444 59.0499 38.0556 57.1332 38.0556C53.6832 38.0556 52.1499 40.5556 52.1499 43.3333C52.1499 46.1111 53.6832 48.3333 57.1332 48.3333C59.0499 48.3333 60.9666 46.6667 61.7332 45.5556C62.1166 45.2778 62.1166 45.5556 62.1166 45.8333C61.7332 48.0556 61.7332 48.6111 61.3499 50.2778C60.9666 51.9444 59.8166 55 59.8166 55C61.7332 54.4444 65.5666 54.4444 67.4832 55C67.4832 55 66.3332 51.9444 65.9499 50.2778C65.5666 48.6111 65.5666 48.0556 65.1832 45.8333C65.1832 45.5556 65.1832 45.2778 65.5666 45.5556Z" fill="#212121" style="fill:#212121;fill:color(display-p3 0.1294 0.1294 0.1294);fill-opacity:1;"/>
<path d="M65.5666 45.5556C66.3332 46.6667 68.2499 48.3333 70.1666 48.3333C73.6166 48.3333 75.1499 46.1111 75.1499 43.3333C75.1499 40.5556 73.6166 38.0556 70.1666 38.0556C68.2499 38.0556 67.0999 39.4444 65.9499 40.2778C65.5666 40.5556 65.1832 40.2778 65.5666 40C66.7166 39.1667 68.6332 36.9444 68.6332 35C68.6332 32.7778 66.7166 30 63.6499 30C60.5832 30 58.6666 32.7778 58.6666 35C58.6666 36.9444 60.5832 39.1667 61.7332 40C62.1166 40.2778 61.7332 40.5556 61.3499 40.2778C60.1999 39.4444 59.0499 38.0556 57.1332 38.0556C53.6832 38.0556 52.1499 40.5556 52.1499 43.3333C52.1499 46.1111 53.6832 48.3333 57.1332 48.3333C59.0499 48.3333 60.9666 46.6667 61.7332 45.5556C62.1166 45.2778 62.1166 45.5556 62.1166 45.8333C61.7332 48.0556 61.7332 48.6111 61.3499 50.2778C60.9666 51.9444 59.8166 55 59.8166 55C61.7332 54.4444 65.5666 54.4444 67.4832 55C67.4832 55 66.3332 51.9444 65.9499 50.2778C65.5666 48.6111 65.5666 48.0556 65.1832 45.8333C65.1832 45.5556 65.1832 45.2778 65.5666 45.5556Z" fill="#212121" style="fill:#212121;fill:color(display-p3 0.1294 0.1294 0.1294);fill-opacity:1;"/>
<path d="M87.4167 33.5556C88.1833 34.6667 90.1 36.3333 92.0167 36.3333C95.4667 36.3333 97 34.1111 97 31.3333C97 28.5556 95.4667 26.0556 92.0167 26.0556C90.1 26.0556 88.95 27.4444 87.8 28.2778C87.4167 28.5556 87.0333 28.2778 87.4167 28C88.5667 27.1667 90.4833 24.9444 90.4833 23C90.4833 20.7778 88.5667 18 85.5 18C82.4333 18 80.5167 20.7778 80.5167 23C80.5167 24.9444 82.4333 27.1667 83.5833 28C83.9667 28.2778 83.5833 28.5556 83.2 28.2778C82.05 27.4444 80.9 26.0556 78.9833 26.0556C75.5333 26.0556 74 28.5556 74 31.3333C74 34.1111 75.5333 36.3333 78.9833 36.3333C80.9 36.3333 82.8167 34.6667 83.5833 33.5556C83.9667 33.2778 83.9667 33.5556 83.9667 33.8333C83.5833 36.0556 83.5833 36.6111 83.2 38.2778C82.8167 39.9444 81.6667 43 81.6667 43C83.5833 42.4444 87.4167 42.4444 89.3333 43C89.3333 43 88.1833 39.9444 87.8 38.2778C87.4167 36.6111 87.4167 36.0556 87.0333 33.8333C87.0333 33.5556 87.0333 33.2778 87.4167 33.5556Z" fill="#212121" style="fill:#212121;fill:color(display-p3 0.1294 0.1294 0.1294);fill-opacity:1;"/>
<path d="M87.4167 33.5556C88.1833 34.6667 90.1 36.3333 92.0167 36.3333C95.4667 36.3333 97 34.1111 97 31.3333C97 28.5556 95.4667 26.0556 92.0167 26.0556C90.1 26.0556 88.95 27.4444 87.8 28.2778C87.4167 28.5556 87.0333 28.2778 87.4167 28C88.5667 27.1667 90.4833 24.9444 90.4833 23C90.4833 20.7778 88.5667 18 85.5 18C82.4333 18 80.5167 20.7778 80.5167 23C80.5167 24.9444 82.4333 27.1667 83.5833 28C83.9667 28.2778 83.5833 28.5556 83.2 28.2778C82.05 27.4444 80.9 26.0556 78.9833 26.0556C75.5333 26.0556 74 28.5556 74 31.3333C74 34.1111 75.5333 36.3333 78.9833 36.3333C80.9 36.3333 82.8167 34.6667 83.5833 33.5556C83.9667 33.2778 83.9667 33.5556 83.9667 33.8333C83.5833 36.0556 83.5833 36.6111 83.2 38.2778C82.8167 39.9444 81.6667 43 81.6667 43C83.5833 42.4444 87.4167 42.4444 89.3333 43C89.3333 43 88.1833 39.9444 87.8 38.2778C87.4167 36.6111 87.4167 36.0556 87.0333 33.8333C87.0333 33.5556 87.0333 33.2778 87.4167 33.5556Z" fill="#212121" style="fill:#212121;fill:color(display-p3 0.1294 0.1294 0.1294);fill-opacity:1;"/>
<path d="M87.4167 33.5556C88.1833 34.6667 90.1 36.3333 92.0167 36.3333C95.4667 36.3333 97 34.1111 97 31.3333C97 28.5556 95.4667 26.0556 92.0167 26.0556C90.1 26.0556 88.95 27.4444 87.8 28.2778C87.4167 28.5556 87.0333 28.2778 87.4167 28C88.5667 27.1667 90.4833 24.9444 90.4833 23C90.4833 20.7778 88.5667 18 85.5 18C82.4333 18 80.5167 20.7778 80.5167 23C80.5167 24.9444 82.4333 27.1667 83.5833 28C83.9667 28.2778 83.5833 28.5556 83.2 28.2778C82.05 27.4444 80.9 26.0556 78.9833 26.0556C75.5333 26.0556 74 28.5556 74 31.3333C74 34.1111 75.5333 36.3333 78.9833 36.3333C80.9 36.3333 82.8167 34.6667 83.5833 33.5556C83.9667 33.2778 83.9667 33.5556 83.9667 33.8333C83.5833 36.0556 83.5833 36.6111 83.2 38.2778C82.8167 39.9444 81.6667 43 81.6667 43C83.5833 42.4444 87.4167 42.4444 89.3333 43C89.3333 43 88.1833 39.9444 87.8 38.2778C87.4167 36.6111 87.4167 36.0556 87.0333 33.8333C87.0333 33.5556 87.0333 33.2778 87.4167 33.5556Z" fill="#212121" style="fill:#212121;fill:color(display-p3 0.1294 0.1294 0.1294);fill-opacity:1;"/>
<path d="M44.4167 67.5556C45.1833 68.6667 47.1 70.3333 49.0167 70.3333C52.4667 70.3333 54 68.1111 54 65.3333C54 62.5556 52.4667 60.0556 49.0167 60.0556C47.1 60.0556 45.95 61.4444 44.8 62.2778C44.4167 62.5556 44.0333 62.2778 44.4167 62C45.5667 61.1667 47.4833 58.9444 47.4833 57C47.4833 54.7778 45.5667 52 42.5 52C39.4333 52 37.5167 54.7778 37.5167 57C37.5167 58.9444 39.4333 61.1667 40.5833 62C40.9667 62.2778 40.5833 62.5556 40.2 62.2778C39.05 61.4444 37.9 60.0556 35.9833 60.0556C32.5333 60.0556 31 62.5556 31 65.3333C31 68.1111 32.5333 70.3333 35.9833 70.3333C37.9 70.3333 39.8167 68.6667 40.5833 67.5556C40.9667 67.2778 40.9667 67.5556 40.9667 67.8333C40.5833 70.0556 40.5833 70.6111 40.2 72.2778C39.8167 73.9444 38.6667 77 38.6667 77C40.5833 76.4444 44.4167 76.4444 46.3333 77C46.3333 77 45.1833 73.9444 44.8 72.2778C44.4167 70.6111 44.4167 70.0556 44.0333 67.8333C44.0333 67.5556 44.0333 67.2778 44.4167 67.5556Z" fill="#212121" style="fill:#212121;fill:color(display-p3 0.1294 0.1294 0.1294);fill-opacity:1;"/>
<path d="M44.4167 67.5556C45.1833 68.6667 47.1 70.3333 49.0167 70.3333C52.4667 70.3333 54 68.1111 54 65.3333C54 62.5556 52.4667 60.0556 49.0167 60.0556C47.1 60.0556 45.95 61.4444 44.8 62.2778C44.4167 62.5556 44.0333 62.2778 44.4167 62C45.5667 61.1667 47.4833 58.9444 47.4833 57C47.4833 54.7778 45.5667 52 42.5 52C39.4333 52 37.5167 54.7778 37.5167 57C37.5167 58.9444 39.4333 61.1667 40.5833 62C40.9667 62.2778 40.5833 62.5556 40.2 62.2778C39.05 61.4444 37.9 60.0556 35.9833 60.0556C32.5333 60.0556 31 62.5556 31 65.3333C31 68.1111 32.5333 70.3333 35.9833 70.3333C37.9 70.3333 39.8167 68.6667 40.5833 67.5556C40.9667 67.2778 40.9667 67.5556 40.9667 67.8333C40.5833 70.0556 40.5833 70.6111 40.2 72.2778C39.8167 73.9444 38.6667 77 38.6667 77C40.5833 76.4444 44.4167 76.4444 46.3333 77C46.3333 77 45.1833 73.9444 44.8 72.2778C44.4167 70.6111 44.4167 70.0556 44.0333 67.8333C44.0333 67.5556 44.0333 67.2778 44.4167 67.5556Z" fill="#212121" style="fill:#212121;fill:color(display-p3 0.1294 0.1294 0.1294);fill-opacity:1;"/>
<path d="M44.4167 67.5556C45.1833 68.6667 47.1 70.3333 49.0167 70.3333C52.4667 70.3333 54 68.1111 54 65.3333C54 62.5556 52.4667 60.0556 49.0167 60.0556C47.1 60.0556 45.95 61.4444 44.8 62.2778C44.4167 62.5556 44.0333 62.2778 44.4167 62C45.5667 61.1667 47.4833 58.9444 47.4833 57C47.4833 54.7778 45.5667 52 42.5 52C39.4333 52 37.5167 54.7778 37.5167 57C37.5167 58.9444 39.4333 61.1667 40.5833 62C40.9667 62.2778 40.5833 62.5556 40.2 62.2778C39.05 61.4444 37.9 60.0556 35.9833 60.0556C32.5333 60.0556 31 62.5556 31 65.3333C31 68.1111 32.5333 70.3333 35.9833 70.3333C37.9 70.3333 39.8167 68.6667 40.5833 67.5556C40.9667 67.2778 40.9667 67.5556 40.9667 67.8333C40.5833 70.0556 40.5833 70.6111 40.2 72.2778C39.8167 73.9444 38.6667 77 38.6667 77C40.5833 76.4444 44.4167 76.4444 46.3333 77C46.3333 77 45.1833 73.9444 44.8 72.2778C44.4167 70.6111 44.4167 70.0556 44.0333 67.8333C44.0333 67.5556 44.0333 67.2778 44.4167 67.5556Z" fill="#212121" style="fill:#212121;fill:color(display-p3 0.1294 0.1294 0.1294);fill-opacity:1;"/>
<path d="M87.4167 67.5556C88.1833 68.6667 90.1 70.3333 92.0167 70.3333C95.4667 70.3333 97 68.1111 97 65.3333C97 62.5556 95.4667 60.0556 92.0167 60.0556C90.1 60.0556 88.95 61.4444 87.8 62.2778C87.4167 62.5556 87.0333 62.2778 87.4167 62C88.5667 61.1667 90.4833 58.9444 90.4833 57C90.4833 54.7778 88.5667 52 85.5 52C82.4333 52 80.5167 54.7778 80.5167 57C80.5167 58.9444 82.4333 61.1667 83.5833 62C83.9667 62.2778 83.5833 62.5556 83.2 62.2778C82.05 61.4444 80.9 60.0556 78.9833 60.0556C75.5333 60.0556 74 62.5556 74 65.3333C74 68.1111 75.5333 70.3333 78.9833 70.3333C80.9 70.3333 82.8167 68.6667 83.5833 67.5556C83.9667 67.2778 83.9667 67.5556 83.9667 67.8333C83.5833 70.0556 83.5833 70.6111 83.2 72.2778C82.8167 73.9444 81.6667 77 81.6667 77C83.5833 76.4444 87.4167 76.4444 89.3333 77C89.3333 77 88.1833 73.9444 87.8 72.2778C87.4167 70.6111 87.4167 70.0556 87.0333 67.8333C87.0333 67.5556 87.0333 67.2778 87.4167 67.5556Z" fill="#212121" style="fill:#212121;fill:color(display-p3 0.1294 0.1294 0.1294);fill-opacity:1;"/>
<path d="M87.4167 67.5556C88.1833 68.6667 90.1 70.3333 92.0167 70.3333C95.4667 70.3333 97 68.1111 97 65.3333C97 62.5556 95.4667 60.0556 92.0167 60.0556C90.1 60.0556 88.95 61.4444 87.8 62.2778C87.4167 62.5556 87.0333 62.2778 87.4167 62C88.5667 61.1667 90.4833 58.9444 90.4833 57C90.4833 54.7778 88.5667 52 85.5 52C82.4333 52 80.5167 54.7778 80.5167 57C80.5167 58.9444 82.4333 61.1667 83.5833 62C83.9667 62.2778 83.5833 62.5556 83.2 62.2778C82.05 61.4444 80.9 60.0556 78.9833 60.0556C75.5333 60.0556 74 62.5556 74 65.3333C74 68.1111 75.5333 70.3333 78.9833 70.3333C80.9 70.3333 82.8167 68.6667 83.5833 67.5556C83.9667 67.2778 83.9667 67.5556 83.9667 67.8333C83.5833 70.0556 83.5833 70.6111 83.2 72.2778C82.8167 73.9444 81.6667 77 81.6667 77C83.5833 76.4444 87.4167 76.4444 89.3333 77C89.3333 77 88.1833 73.9444 87.8 72.2778C87.4167 70.6111 87.4167 70.0556 87.0333 67.8333C87.0333 67.5556 87.0333 67.2778 87.4167 67.5556Z" fill="#212121" style="fill:#212121;fill:color(display-p3 0.1294 0.1294 0.1294);fill-opacity:1;"/>
<path d="M87.4167 67.5556C88.1833 68.6667 90.1 70.3333 92.0167 70.3333C95.4667 70.3333 97 68.1111 97 65.3333C97 62.5556 95.4667 60.0556 92.0167 60.0556C90.1 60.0556 88.95 61.4444 87.8 62.2778C87.4167 62.5556 87.0333 62.2778 87.4167 62C88.5667 61.1667 90.4833 58.9444 90.4833 57C90.4833 54.7778 88.5667 52 85.5 52C82.4333 52 80.5167 54.7778 80.5167 57C80.5167 58.9444 82.4333 61.1667 83.5833 62C83.9667 62.2778 83.5833 62.5556 83.2 62.2778C82.05 61.4444 80.9 60.0556 78.9833 60.0556C75.5333 60.0556 74 62.5556 74 65.3333C74 68.1111 75.5333 70.3333 78.9833 70.3333C80.9 70.3333 82.8167 68.6667 83.5833 67.5556C83.9667 67.2778 83.9667 67.5556 83.9667 67.8333C83.5833 70.0556 83.5833 70.6111 83.2 72.2778C82.8167 73.9444 81.6667 77 81.6667 77C83.5833 76.4444 87.4167 76.4444 89.3333 77C89.3333 77 88.1833 73.9444 87.8 72.2778C87.4167 70.6111 87.4167 70.0556 87.0333 67.8333C87.0333 67.5556 87.0333 67.2778 87.4167 67.5556Z" fill="#212121" style="fill:#212121;fill:color(display-p3 0.1294 0.1294 0.1294);fill-opacity:1;"/>
</svg>
