<svg width="128" height="128" viewBox="0 0 128 128" fill="none" xmlns="http://www.w3.org/2000/svg">
<path d="M63.6 118.8C35.7 118.8 5.59998 101.3 5.59998 62.9C5.59998 24.5 35.7 7 63.6 7C79.1 7 93.4 12.1 104 21.4C115.5 31.6 121.6 46 121.6 62.9C121.6 79.8 115.5 94.1 104 104.3C93.4 113.6 79 118.8 63.6 118.8Z" fill="url(#paint0_radial_169_5885)" style=""/>
<path d="M111.49 29.67C116.82 38.27 119.6 48.51 119.6 59.9C119.6 76.8 113.5 91.1 102 101.3C91.3999 110.6 76.9999 115.8 61.5999 115.8C43.5399 115.8 24.5999 108.45 13.4199 92.86C24.1799 110.52 44.4199 118.8 63.5999 118.8C78.9999 118.8 93.3999 113.6 104 104.3C115.5 94.1001 121.6 79.8 121.6 62.9C121.6 50.16 118.13 38.84 111.49 29.67Z" fill="#D84213" style="fill:#D84213;fill:color(display-p3 0.8471 0.2588 0.0745);fill-opacity:1;"/>
<path d="M83.94 103.14C83.6 103.01 83.29 102.8 83.05 102.52C73.32 92.41 57.23 92.1 47.12 101.83C46.89 102.06 46.65 102.29 46.43 102.52C46.19 102.8 45.88 103.01 45.54 103.14C44.79 103.42 43.94 103.26 43.34 102.73C42.75 102.21 42.55 101.38 42.85 100.65C45.83 93 54.69 87 64.74 87C74.79 87 83.65 93 86.63 100.64C86.93 101.37 86.73 102.2 86.14 102.72C85.54 103.25 84.69 103.41 83.94 103.14Z" fill="#312D2D" style="fill:#312D2D;fill:color(display-p3 0.1922 0.1765 0.1765);fill-opacity:1;"/>
<path d="M58.14 68.82C55.9 66 46.67 60.58 43.34 59C42.1 58.43 40.81 57.97 39.49 57.63C39.25 57.56 38.99 57.53 38.74 57.53C37.41 57.56 36.27 58.51 36 59.82C35.69 61.18 36.39 62.58 37.67 63.14C39.24 63.91 41.98 65.37 44.82 66.98C42.45 68.39 41 70.95 41 73.71V75.17C41 79.31 44.36 82.67 48.5 82.67C52.64 82.67 56 79.31 56 75.17V73.71C56 73.65 56 73.6 56 73.54C57.07 73.47 58.03 72.83 58.5 71.87C58.99 70.87 58.85 69.68 58.14 68.82Z" fill="#312D2D" style="fill:#312D2D;fill:color(display-p3 0.1922 0.1765 0.1765);fill-opacity:1;"/>
<path d="M93.52 59.82C93.24 58.5 92.08 57.56 90.73 57.55C90.48 57.55 90.22 57.5801 89.98 57.6501C88.66 57.9801 87.37 58.44 86.13 59C82.8 60.56 73.57 66.0001 71.33 68.8001C70.62 69.6701 70.5 70.8701 71 71.8701C71.48 72.8401 72.43 73.4701 73.51 73.5401C73.51 73.6 73.51 73.65 73.51 73.71V75.17C73.51 79.31 76.87 82.67 81.01 82.67C85.15 82.67 88.51 79.31 88.51 75.17V73.71C88.51 70.96 87.06 68.41 84.7 67C87.54 65.39 90.28 63.93 91.85 63.16C93.14 62.6 93.85 61.19 93.52 59.82Z" fill="#312D2D" style="fill:#312D2D;fill:color(display-p3 0.1922 0.1765 0.1765);fill-opacity:1;"/>
<path d="M48.1199 68.45C46.6999 67.77 44.9899 68.37 44.2999 69.79C43.7699 70.9 44.0099 72.23 44.8999 73.09C46.3199 73.77 48.0299 73.17 48.7199 71.75C49.2499 70.64 49.0099 69.31 48.1199 68.45Z" fill="#767070" style="fill:#767070;fill:color(display-p3 0.4625 0.4374 0.4374);fill-opacity:1;"/>
<path d="M80.63 68.45C79.21 67.77 77.5 68.37 76.81 69.79C76.28 70.9 76.52 72.23 77.41 73.09C78.83 73.77 80.54 73.17 81.23 71.75C81.76 70.64 81.52 69.31 80.63 68.45Z" fill="#767070" style="fill:#767070;fill:color(display-p3 0.4625 0.4374 0.4374);fill-opacity:1;"/>
<defs>
<radialGradient id="paint0_radial_169_5885" cx="0" cy="0" r="1" gradientUnits="userSpaceOnUse" gradientTransform="translate(63.6 62.8999) scale(56.9597 56.9597)">
<stop offset="0.12" stop-color="#F9DCBC" style="stop-color:#F9DCBC;stop-color:color(display-p3 0.9765 0.8627 0.7373);stop-opacity:1;"/>
<stop offset="0.32" stop-color="#FDD5A6" style="stop-color:#FDD5A6;stop-color:color(display-p3 0.9922 0.8353 0.6510);stop-opacity:1;"/>
<stop offset="0.48" stop-color="#FBC660" style="stop-color:#FBC660;stop-color:color(display-p3 0.9833 0.7780 0.3769);stop-opacity:1;"/>
<stop offset="0.62" stop-color="#FCB54E" style="stop-color:#FCB54E;stop-color:color(display-p3 0.9875 0.7102 0.3045);stop-opacity:1;"/>
<stop offset="0.76" stop-color="#FE9A33" style="stop-color:#FE9A33;stop-color:color(display-p3 0.9958 0.6049 0.1992);stop-opacity:1;"/>
<stop offset="0.88" stop-color="#FE7413" style="stop-color:#FE7413;stop-color:color(display-p3 0.9961 0.4549 0.0745);stop-opacity:1;"/>
<stop offset="1" stop-color="#FF5100" style="stop-color:#FF5100;stop-color:color(display-p3 1.0000 0.3176 0.0000);stop-opacity:1;"/>
</radialGradient>
</defs>
</svg>
