<svg width="128" height="128" viewBox="0 0 128 128" fill="none" xmlns="http://www.w3.org/2000/svg">
<path d="M57.4 26.7898C59.42 25.6598 64.9 23.0198 76.16 31.7198C87.42 40.4198 84.9 47.4798 83.63 49.3198C82.14 51.4898 72.75 59.0598 72.75 59.0598L20.81 123.21C20.81 123.21 16.93 122.74 11.73 119.14C6.12001 115.26 1.61001 106.37 5.01001 99.9298C6.92001 96.3198 46.95 40.4998 54.59 29.8998C55.28 28.9498 55.95 27.5998 57.4 26.7898Z" fill="#FE180A" style="fill:#FE180A;fill:color(display-p3 0.9961 0.0941 0.0392);fill-opacity:1;"/>
<path d="M59.3101 29.4299C56.7701 31.8299 58.1501 37.7399 66.3201 43.2499C74.7301 48.9299 80.2701 48.1199 81.8801 45.9199C83.5701 43.5999 79.6801 37.3799 74.2701 33.3699C68.5901 29.1599 62.0701 26.8199 59.3101 29.4299Z" fill="#A42615" style="fill:#A42615;fill:color(display-p3 0.6431 0.1490 0.0824);fill-opacity:1;"/>
<path d="M64.2501 58.0698L19.6101 122.95C19.6101 122.95 23.2601 124.16 26.2001 124.04C30.3001 123.88 32.4801 122.1 32.4801 122.1L75.2101 60.3998L64.2501 58.0698Z" fill="#CA1837" style="fill:#CA1837;fill:color(display-p3 0.7922 0.0941 0.2157);fill-opacity:1;"/>
<path d="M46.8999 40.59C46.8999 40.59 45.9499 44.65 52.5599 51.26C55.8699 54.57 58.2099 56.26 60.1299 57.39C62.0799 58.53 63.5099 59.13 63.5099 59.13L69.3199 57.13L69.6499 50.12C69.6499 50.12 63.1599 46.79 58.8299 41.91C53.2199 35.58 54.2199 32.03 54.4899 30.02C53.5199 31.2 46.8999 40.59 46.8999 40.59Z" fill="#FE180A" style="fill:#FE180A;fill:color(display-p3 0.9961 0.0941 0.0392);fill-opacity:1;"/>
<path d="M81.88 51.1899L74.62 61.2899C74.62 61.2899 73.39 62.1099 69.03 61.0799C66.43 60.4599 63.52 59.1299 63.52 59.1299L69.66 50.1299C69.66 50.1299 73.3 51.7999 76.23 52.0499C79.05 52.2799 81.88 51.1899 81.88 51.1899Z" fill="#CA1837" style="fill:#CA1837;fill:color(display-p3 0.7922 0.0941 0.2157);fill-opacity:1;"/>
<path d="M8.61989 94.4702L6.13989 98.1702C6.13989 98.1702 5.67989 102.92 11.6099 108.91C13.8199 111.14 16.1199 112.77 18.1099 113.97C21.4199 115.97 23.8899 116.73 23.8899 116.73L25.6499 114.27C25.6499 114.27 23.3599 113.48 20.8999 111.97C18.2699 110.35 15.3999 107.94 13.5099 105.82C7.89989 99.5102 8.61989 94.4702 8.61989 94.4702Z" fill="#FE180A" style="fill:#FE180A;fill:color(display-p3 0.9961 0.0941 0.0392);fill-opacity:1;"/>
<path d="M37.3301 115.09L35.3001 118.03C35.3001 118.03 32.7601 118.35 29.0901 118C26.8401 117.79 23.8601 116.72 23.8601 116.72L25.5701 114.23C25.5701 114.23 27.5901 115.04 30.7501 115.36C33.9101 115.68 37.3301 115.09 37.3301 115.09Z" fill="#CA1837" style="fill:#CA1837;fill:color(display-p3 0.7922 0.0941 0.2157);fill-opacity:1;"/>
<path d="M67.62 36.7998C67.41 37.9198 68.26 39.2098 69.71 40.1098C71.15 41.0198 72.97 40.2698 73.08 39.4698C73.19 38.6698 73.63 30.1098 77.09 29.6898C80.57 29.2598 82.17 36.3198 88.91 38.1398C93.75 39.4398 95.27 38.1898 95.27 38.1898L94.63 34.3398C94.63 34.3398 92.61 35.6198 88.59 33.3798C84.37 31.0298 82.44 24.4998 76.35 25.0898C70.04 25.6998 69.13 32.7398 68.7 33.9698C68.26 35.1898 67.69 36.4198 67.62 36.7998Z" fill="#D8A26D" style="fill:#D8A26D;fill:color(display-p3 0.8471 0.6353 0.4275);fill-opacity:1;"/>
<path d="M81.3799 14.9101C81.8599 15.8801 93.2799 33.9701 93.2799 33.9701C93.2799 33.9701 93.3599 57.1301 93.3599 57.9401C93.3599 59.3901 94.3299 59.9501 95.4499 58.5801C96.0699 57.8201 105.1 42.8201 105.1 42.8201C105.1 42.8201 120.38 49.0901 121.51 49.6601C122.64 50.2201 123.28 49.5001 122.64 48.1301C122 46.7601 111.94 28.7501 111.94 28.7501C111.94 28.7501 121.75 14.7601 122.31 13.6301C122.87 12.5001 122.07 11.7801 121.02 12.2601C119.97 12.7401 107.83 18.7701 107.83 18.7701C107.83 18.7701 103.4 5.95006 103.08 5.18006C102.52 3.81006 101.63 3.57006 101.23 5.26006C100.83 6.95006 96.8099 20.9401 96.8099 20.9401C96.8099 20.9401 83.9399 14.1801 82.8199 13.7001C81.6999 13.2201 80.8999 13.9501 81.3799 14.9101Z" fill="#FD8E02" style="fill:#FD8E02;fill:color(display-p3 0.9922 0.5569 0.0078);fill-opacity:1;"/>
<path d="M90.3899 21.9902L97.3099 32.0402L97.1499 48.4502L103.42 37.2702L115.08 43.3002L107.04 29.8702L112.19 21.5102C112.19 21.5102 105.6 25.2102 105.43 24.8102C105.26 24.4102 102.53 16.2002 102.53 16.2002L99.7999 25.7702L90.3899 21.9902Z" fill="#FFE268" style="fill:#FFE268;fill:color(display-p3 1.0000 0.8863 0.4078);fill-opacity:1;"/>
<path d="M93.29 38.7102L93.27 34.6802C93.27 34.6802 95.68 34.3302 97.93 31.9802C99.89 29.9202 101.36 27.1602 103.06 29.5702C104.34 31.3902 101.51 34.5802 99.21 36.2502C95.69 38.8302 93.29 38.7102 93.29 38.7102Z" fill="#FCBA03" style="fill:#FCBA03;fill:color(display-p3 0.9882 0.7294 0.0118);fill-opacity:1;"/>
</svg>
