<svg width="129" height="128" viewBox="0 0 129 128" fill="none" xmlns="http://www.w3.org/2000/svg">
<path d="M34.5 109V19H69.055C75.5782 19 80.9994 20.0254 85.3188 22.0762C89.6676 24.0977 92.9145 26.8662 95.0595 30.3818C97.2338 33.8975 98.321 37.8818 98.321 42.335C98.321 45.9971 97.6158 49.1318 96.2054 51.7393C94.795 54.3174 92.8998 56.4121 90.5197 58.0234C88.1396 59.6348 85.4804 60.792 82.5421 61.4951V62.374C85.7449 62.5498 88.8155 63.5312 91.7538 65.3184C94.7216 67.0762 97.1457 69.5664 99.0262 72.7891C100.907 76.0117 101.847 79.9082 101.847 84.4785C101.847 89.1367 100.716 93.3262 98.4533 97.0469C96.1907 100.738 92.7822 103.653 88.2278 105.792C83.6733 107.931 77.9436 109 71.0384 109H34.5ZM50.8519 95.3769H68.438C74.3735 95.3769 78.6488 94.249 81.2639 91.9932C83.9084 89.708 85.2307 86.7783 85.2307 83.2041C85.2307 80.5381 84.5696 78.1357 83.2473 75.9971C81.925 73.8291 80.0445 72.1299 77.6057 70.8994C75.1668 69.6396 72.2579 69.0098 68.8787 69.0098H50.8519V95.3769ZM50.8519 57.2764H67.0276C69.8484 57.2764 72.3901 56.7637 74.6526 55.7383C76.9151 54.6836 78.6928 53.2041 79.9857 51.2998C81.308 49.3662 81.9691 47.0811 81.9691 44.4443C81.9691 40.958 80.735 38.0869 78.2668 35.831C75.8279 33.5752 72.1991 32.4473 67.3802 32.4473H50.8519V57.2764Z" fill="#DFE6EB" style="fill:#DFE6EB;fill:color(display-p3 0.8745 0.9020 0.9216);fill-opacity:1;"/>
<path d="M34.5 109V19H69.055C75.5782 19 80.9994 20.0254 85.3188 22.0762C89.6676 24.0977 92.9145 26.8662 95.0595 30.3818C97.2338 33.8975 98.321 37.8818 98.321 42.335C98.321 45.9971 97.6158 49.1318 96.2054 51.7393C94.795 54.3174 92.8998 56.4121 90.5197 58.0234C88.1396 59.6348 85.4804 60.792 82.5421 61.4951V62.374C85.7449 62.5498 88.8155 63.5312 91.7538 65.3184C94.7216 67.0762 97.1457 69.5664 99.0262 72.7891C100.907 76.0117 101.847 79.9082 101.847 84.4785C101.847 89.1367 100.716 93.3262 98.4533 97.0469C96.1907 100.738 92.7822 103.653 88.2278 105.792C83.6733 107.931 77.9436 109 71.0384 109H34.5ZM50.8519 95.3769H68.438C74.3735 95.3769 78.6488 94.249 81.2639 91.9932C83.9084 89.708 85.2307 86.7783 85.2307 83.2041C85.2307 80.5381 84.5696 78.1357 83.2473 75.9971C81.925 73.8291 80.0445 72.1299 77.6057 70.8994C75.1668 69.6396 72.2579 69.0098 68.8787 69.0098H50.8519V95.3769ZM50.8519 57.2764H67.0276C69.8484 57.2764 72.3901 56.7637 74.6526 55.7383C76.9151 54.6836 78.6928 53.2041 79.9857 51.2998C81.308 49.3662 81.9691 47.0811 81.9691 44.4443C81.9691 40.958 80.735 38.0869 78.2668 35.831C75.8279 33.5752 72.1991 32.4473 67.3802 32.4473H50.8519V57.2764Z" fill="#8CAFBF" style="fill:#8CAFBF;fill:color(display-p3 0.5490 0.6863 0.7490);fill-opacity:1;"/>
<path fill-rule="evenodd" clip-rule="evenodd" d="M31.5 112V16H69.055C75.8648 16 81.7564 17.0665 86.5944 19.3608C91.3812 21.5881 95.1159 24.7184 97.6155 28.8113C100.103 32.8359 101.321 37.3722 101.321 42.335C101.321 46.3798 100.541 50.0292 98.8441 53.1666L98.8408 53.1728L98.8373 53.1791C97.2032 56.1662 94.986 58.6226 92.2016 60.5077C91.7369 60.8222 91.2633 61.1212 90.7808 61.4045C91.6328 61.7971 92.4719 62.2446 93.2977 62.7461C96.7333 64.7846 99.5042 67.6558 101.617 71.2771C103.82 75.0515 104.847 79.4958 104.847 84.4785C104.847 89.6466 103.585 94.3822 101.017 98.6056L101.011 98.6146C98.3951 102.883 94.4998 106.161 89.5029 108.507C84.4299 110.89 78.2297 112 71.0384 112H31.5ZM87.1041 63.1968C85.6828 62.7547 84.2333 62.4848 82.7555 62.3869C82.6844 62.3822 82.6133 62.3779 82.5421 62.374V61.4951C82.5584 61.4912 82.5747 61.4873 82.591 61.4834C84.1051 61.1181 85.545 60.6319 86.9106 60.0249C88.1776 59.4618 89.3806 58.7946 90.5197 58.0234C92.8998 56.4121 94.795 54.3174 96.2054 51.7393C97.6158 49.1318 98.321 45.9971 98.321 42.335C98.321 37.8818 97.2338 33.8975 95.0595 30.3818C92.9145 26.8662 89.6676 24.0977 85.3188 22.0762C80.9994 20.0254 75.5782 19 69.055 19H34.5V109H71.0384C77.9436 109 83.6733 107.931 88.2278 105.792C92.7822 103.653 96.1907 100.738 98.4533 97.0469C100.716 93.3262 101.847 89.1367 101.847 84.4785C101.847 79.9082 100.907 76.0117 99.0262 72.7891C97.1457 69.5664 94.7216 67.0762 91.7538 65.3184C90.2391 64.3971 88.6892 63.6899 87.1041 63.1968ZM80.6908 77.5669L80.6861 77.5592C79.6773 75.9051 78.233 74.5761 76.2543 73.5778L76.2416 73.5714L76.2289 73.5648C74.3029 72.57 71.8877 72.0098 68.8787 72.0098H53.8519V92.3769H68.438C74.1264 92.3769 77.5083 91.2709 79.3044 89.7215C81.2711 88.0212 82.2307 85.9285 82.2307 83.2041C82.2307 81.0603 81.7069 79.2103 80.6956 77.5747L80.6908 77.5669ZM81.2639 91.9932C78.6488 94.249 74.3735 95.3769 68.438 95.3769H50.8519V69.0098H68.8787C72.2579 69.0098 75.1668 69.6396 77.6057 70.8994C80.0445 72.1299 81.925 73.8291 83.2473 75.9971C84.5696 78.1357 85.2307 80.5381 85.2307 83.2041C85.2307 86.7783 83.9084 89.708 81.2639 91.9932ZM77.5037 49.6147L77.5093 49.6064C78.4486 48.2329 78.9691 46.5555 78.9691 44.4443C78.9691 41.7598 78.0598 39.7062 76.2429 38.0455L76.2363 38.0395L76.2297 38.0334C74.5509 36.4806 71.7806 35.4473 67.3802 35.4473H53.8519V54.2764H67.0276C69.4726 54.2764 71.579 53.8348 73.3996 53.0124C75.207 52.1672 76.543 51.0297 77.5037 49.6147ZM74.6526 55.7383C72.3901 56.7637 69.8484 57.2764 67.0276 57.2764H50.8519V32.4473H67.3802C72.1991 32.4473 75.8279 33.5752 78.2668 35.831C80.735 38.0869 81.9691 40.958 81.9691 44.4443C81.9691 47.0811 81.308 49.3662 79.9857 51.2998C78.6928 53.2041 76.9151 54.6836 74.6526 55.7383Z" fill="#427687" style="fill:#427687;fill:color(display-p3 0.2588 0.4627 0.5294);fill-opacity:1;"/>
</svg>
