<svg width="128" height="128" viewBox="0 0 128 128" fill="none" xmlns="http://www.w3.org/2000/svg">
<path d="M45.42 5.71991C56.01 5.00991 73.27 15.5899 69.05 40.6199C66.44 56.0899 56.43 63.7399 49.37 64.2199C42.31 64.6999 31.36 58.4599 26.69 43.4799C19.15 19.2499 34.83 6.42991 45.42 5.71991Z" fill="url(#paint0_radial_179_767)" style=""/>
<path d="M10.06 83.2698C14.21 66.6598 26.9 57.3098 40.64 55.6098C46.12 54.9298 51.68 54.6898 57.12 55.6198C58.39 55.8398 59.82 56.4398 61.09 56.4798C62.07 56.5098 93.35 44.4698 94.66 44.0198C98.32 42.7298 105.83 42.9998 108.83 50.9998C112.76 61.4698 96.83 68.9998 73.83 86.9998L74.77 124H7.97999C7.97999 124 6.89998 95.9098 10.06 83.2698Z" fill="url(#paint1_linear_179_767)" style=""/>
<path d="M38.83 70C41.83 65 48.58 68.89 50.83 71C66.83 86 70.53 88.19 73.79 86.43C74.78 85.9 76.7299 84.52 82.0099 80.44C87.2899 76.36 105.83 62 105.83 62C123.83 77 119.79 124 119.79 124H74.77L73.9599 109.08C68.2799 109.99 63.9699 108.04 59.8399 105C52.2299 99.38 46.82 94.3 41.84 86C38.8299 81 35.83 75 38.83 70Z" fill="url(#paint2_linear_179_767)" style=""/>
<path d="M88.5499 7.90988C98.3499 11.9899 109.08 29.1699 94.1299 49.6899C84.8999 62.3699 72.5199 64.7499 65.9899 62.0299C59.4599 59.3099 52.4399 48.8399 54.9399 33.3599C58.9999 8.29988 78.7499 3.82988 88.5499 7.90988Z" fill="url(#paint3_radial_179_767)" style=""/>
<path d="M24.25 60.1802C24.25 60.1802 34.82 67.0002 38.82 60.0002C42.4 53.7402 31.72 47.2502 31.72 47.2502C28.61 45.4602 24.49 45.6902 22.16 49.7802C19.37 54.6702 21.14 58.3902 24.25 60.1802Z" fill="#1976D2" style="fill:#1976D2;fill:color(display-p3 0.0980 0.4627 0.8235);fill-opacity:1;"/>
<defs>
<radialGradient id="paint0_radial_179_767" cx="0" cy="0" r="1" gradientUnits="userSpaceOnUse" gradientTransform="translate(54.0817 42.7568) rotate(-175.944) scale(52.4593 52.4593)">
<stop offset="0.4702" stop-color="#42A5F5" style="stop-color:#42A5F5;stop-color:color(display-p3 0.2588 0.6471 0.9608);stop-opacity:1;"/>
<stop offset="1" stop-color="#7EC9D9" style="stop-color:#7EC9D9;stop-color:color(display-p3 0.4941 0.7882 0.8510);stop-opacity:1;"/>
</radialGradient>
<linearGradient id="paint1_linear_179_767" x1="52.3988" y1="30.5274" x2="61.4275" y2="114.104" gradientUnits="userSpaceOnUse">
<stop offset="0.1283" stop-color="#7EC9D9" style="stop-color:#7EC9D9;stop-color:color(display-p3 0.4941 0.7882 0.8510);stop-opacity:1;"/>
<stop offset="0.6399" stop-color="#42A5F5" style="stop-color:#42A5F5;stop-color:color(display-p3 0.2588 0.6471 0.9608);stop-opacity:1;"/>
</linearGradient>
<linearGradient id="paint2_linear_179_767" x1="88.5" y1="116" x2="64.1704" y2="46.5515" gradientUnits="userSpaceOnUse">
<stop stop-color="#0D47A1" style="stop-color:#0D47A1;stop-color:color(display-p3 0.0510 0.2784 0.6314);stop-opacity:1;"/>
<stop offset="0.6795" stop-color="#1976D2" style="stop-color:#1976D2;stop-color:color(display-p3 0.0980 0.4627 0.8235);stop-opacity:1;"/>
</linearGradient>
<radialGradient id="paint3_radial_179_767" cx="0" cy="0" r="1" gradientUnits="userSpaceOnUse" gradientTransform="translate(81.0801 48.2947) rotate(-157.374) scale(46.5836)">
<stop offset="0.5269" stop-color="#1565C0" style="stop-color:#1565C0;stop-color:color(display-p3 0.0824 0.3961 0.7529);stop-opacity:1;"/>
<stop offset="1" stop-color="#1E88E5" style="stop-color:#1E88E5;stop-color:color(display-p3 0.1176 0.5333 0.8980);stop-opacity:1;"/>
</radialGradient>
</defs>
</svg>
