<svg width="128" height="128" viewBox="0 0 128 128" fill="none" xmlns="http://www.w3.org/2000/svg">
<path d="M91.8864 109.549C91.8864 109.549 87.8564 107.949 85.8464 106.409C83.9664 104.969 82.2664 103.009 81.0964 101.969C80.3364 101.279 79.6664 100.969 79.0764 100.969C78.4764 100.969 77.9464 101.279 77.4964 101.829L74.9164 105.069C73.8364 106.849 74.7564 109.179 74.7564 109.179C74.7564 109.179 72.0564 112.039 76.5564 113.019C81.1664 114.029 86.6864 114.579 86.6864 114.579C86.9764 114.629 87.3264 114.659 87.7064 114.659C89.6064 114.659 92.3064 113.969 93.1664 111.999C93.1664 111.999 94.4564 110.569 91.8864 109.549Z" fill="#4568AC" style="fill:#4568AC;fill:color(display-p3 0.2706 0.4078 0.6745);fill-opacity:1;"/>
<path d="M74.5184 104.947L58.6465 103.506C58.6365 103.506 83.9674 104.439 81.1382 89.9844C81.1382 89.9844 65.0865 90.8912 58.6465 90.8912C58.6465 90.8912 34.9825 95.5415 34.5173 106.46C34.1101 116.019 50.2437 114.965 51.5516 114.965C52.6286 114.965 53.6176 114.965 54.8176 114.965C60.1376 114.965 67.6665 114.066 73.7865 113.346C76.1365 113.066 76.1984 106.037 74.5184 104.947Z" fill="#616161" style="fill:#616161;fill:color(display-p3 0.3804 0.3804 0.3804);fill-opacity:1;"/>
<path d="M72.585 40.4687C73.675 36.7487 74.275 32.1387 73.775 29.3687C73.665 28.7487 73.505 28.2087 73.285 27.7987C72.655 26.6887 71.815 25.6187 70.825 24.6587C70.805 24.6387 70.785 24.6187 70.765 24.6087C70.545 24.3887 70.315 24.1787 70.075 23.9787C70.035 23.9487 69.995 23.9087 69.955 23.8787C69.735 23.6887 69.515 23.5087 69.285 23.3387C69.235 23.2987 69.175 23.2587 69.125 23.2187C68.905 23.0487 68.675 22.8887 68.445 22.7387C68.385 22.6987 68.325 22.6587 68.265 22.6187C68.035 22.4687 67.795 22.3187 67.555 22.1787C67.495 22.1387 67.435 22.1087 67.375 22.0687C67.125 21.9287 66.875 21.7987 66.625 21.6687C66.575 21.6387 66.515 21.6087 66.465 21.5887C66.195 21.4587 65.915 21.3287 65.635 21.2087C65.605 21.1987 65.565 21.1787 65.535 21.1687C63.985 20.5287 62.365 20.1587 60.795 20.1587C60.755 20.1587 60.715 20.1687 60.685 20.1687C60.335 20.1687 59.995 20.1887 59.655 20.2287C53.915 20.9087 50.665 24.8787 49.615 30.0387C49.235 31.9087 49.205 33.7987 49.465 35.1387C49.495 35.2987 49.755 36.4787 49.765 36.8387C49.915 38.2487 47.135 39.5187 46.745 41.0587C46.455 42.2087 48.855 43.0687 49.035 43.2787C49.945 44.3687 48.205 49.2787 54.855 50.0787C57.415 50.3887 57.655 50.3187 58.455 50.4287C60.045 50.6587 59.575 57.1087 59.575 57.1087H59.585L71.105 54.7987C71.105 54.7987 69.575 47.3487 71.225 44.0987C71.715 43.1087 72.185 41.8487 72.585 40.4687Z" fill="#FFCA28" style="fill:#FFCA28;fill:color(display-p3 1.0000 0.7922 0.1569);fill-opacity:1;"/>
<path d="M72.585 40.4687C73.675 36.7487 74.275 32.1387 73.775 29.3687C73.665 28.7487 73.505 28.2087 73.285 27.7987C72.655 26.6887 71.815 25.6187 70.825 24.6587C70.805 24.6387 70.785 24.6187 70.765 24.6087C70.545 24.3887 70.315 24.1787 70.075 23.9787C70.035 23.9487 69.995 23.9087 69.955 23.8787C69.735 23.6887 69.515 23.5087 69.285 23.3387C69.235 23.2987 69.175 23.2587 69.125 23.2187C68.905 23.0487 68.675 22.8887 68.445 22.7387C68.385 22.6987 68.325 22.6587 68.265 22.6187C68.035 22.4687 67.795 22.3187 67.555 22.1787C67.495 22.1387 67.435 22.1087 67.375 22.0687C67.125 21.9287 66.875 21.7987 66.625 21.6687C66.575 21.6387 66.515 21.6087 66.465 21.5887C66.195 21.4587 65.915 21.3287 65.635 21.2087C65.605 21.1987 65.565 21.1787 65.535 21.1687C63.985 20.5287 62.365 20.1587 60.795 20.1587C60.755 20.1587 60.715 20.1687 60.685 20.1687C60.335 20.1687 59.995 20.1887 59.655 20.2287C53.915 20.9087 50.665 24.8787 49.615 30.0387C49.235 31.9087 49.205 33.7987 49.465 35.1387C49.495 35.2987 49.755 36.4787 49.765 36.8387C49.915 38.2487 47.135 39.5187 46.745 41.0587C46.455 42.2087 48.855 43.0687 49.035 43.2787C49.945 44.3687 48.205 49.2787 54.855 50.0787C57.415 50.3887 57.655 50.3187 58.455 50.4287C60.045 50.6587 59.575 57.1087 59.575 57.1087H59.585L71.105 54.7987C71.105 54.7987 69.575 47.3487 71.225 44.0987C71.715 43.1087 72.185 41.8487 72.585 40.4687Z" fill="#BA8D68" style="fill:#BA8D68;fill:color(display-p3 0.7294 0.5529 0.4078);fill-opacity:1;"/>
<path d="M49.585 46.1285C50.505 46.2185 51.435 46.0485 52.245 45.5085C53.125 44.9085 52.575 44.1785 51.575 44.5485C50.975 44.7785 50.135 44.8585 49.375 44.6785L49.585 46.1285Z" fill="#795548" style="fill:#795548;fill:color(display-p3 0.4745 0.3333 0.2824);fill-opacity:1;"/>
<path d="M55.0848 37.8458C55.0992 36.8076 54.5646 35.9584 53.8909 35.9491C53.2172 35.9398 52.6594 36.7739 52.6451 37.8121C52.6308 38.8503 53.1653 39.6994 53.839 39.7087C54.5127 39.718 55.0705 38.8839 55.0848 37.8458Z" fill="#404040" style="fill:#404040;fill:color(display-p3 0.2510 0.2510 0.2510);fill-opacity:1;"/>
<path d="M53.0357 35.0085C51.8157 35.2385 51.6157 34.4285 52.0757 33.8385C52.4157 33.3985 53.1757 33.0885 54.5357 33.4985C55.8157 33.8885 56.2857 34.6885 56.5857 35.1885C56.8857 35.6885 56.8057 36.1385 56.4957 36.1385C56.0757 36.1485 54.5457 34.7285 53.0357 35.0085Z" fill="#6D4C41" style="fill:#6D4C41;fill:color(display-p3 0.4275 0.2980 0.2549);fill-opacity:1;"/>
<path d="M74.9253 60.2485C73.0653 53.8785 69.8953 52.2485 67.1253 52.2485C64.2453 52.2485 61.8053 54.0285 61.8053 54.0285C56.9053 57.3985 56.8953 62.5385 56.4453 69.4485C55.9853 76.3585 55.6553 90.4385 55.6553 90.4385C55.6553 90.4385 61.0953 92.6885 69.3653 92.6885H70.0153C78.6553 92.5685 81.8553 89.5785 81.8553 89.5785C81.8553 89.5785 77.2553 68.2085 74.9253 60.2485Z" fill="url(#paint0_radial_179_684)" style=""/>
<path d="M74.9253 60.2485C73.0653 53.8785 69.8953 52.2485 67.1253 52.2485C64.2453 52.2485 61.8053 54.0285 61.8053 54.0285C56.9053 57.3985 56.8953 62.5385 56.4453 69.4485C55.9853 76.3585 55.6553 90.4385 55.6553 90.4385C55.6553 90.4385 61.0953 92.6885 69.3653 92.6885H70.0153C78.6553 92.5685 81.8553 89.5785 81.8553 89.5785C81.8553 89.5785 77.2553 68.2085 74.9253 60.2485Z" fill="url(#paint1_radial_179_684)" style=""/>
<path d="M77.2501 76.3252C76.4702 73.3685 73.0616 62.2639 73.0307 62.1564C72.9559 61.9127 72.7101 61.7665 72.4534 61.8125L62.3529 63.8135C62.2146 63.8374 62.0933 63.93 62.0158 64.0584C61.9482 64.1859 61.9323 64.3282 61.9762 64.4644L67.0407 79.2417C65.4046 80.4616 57.3284 86.3998 54.9228 87.1644C53.2962 87.6798 50.4906 88.3641 47.2513 89.1321C44.6605 89.7546 42.3801 93.4614 41.25 95.6154C40.9131 96.2623 41.032 97.0444 41.5258 97.5575C41.8972 97.9523 42.4167 98.1212 42.9142 98.0711C43.2425 98.0381 43.5609 97.9056 43.8194 97.6785L47.1593 95.2119C47.6738 95.2305 49.1842 95.2594 51.205 94.9657C53.7013 94.604 56.0309 93.2842 56.1065 93.2364C56.9769 92.7971 61.228 91.5956 65.3418 90.428C68.41 89.5565 71.5767 88.6651 73.7096 87.9882C79.8071 86.0582 77.9501 78.9885 77.2501 76.3252Z" fill="url(#paint2_linear_179_684)" style=""/>
<path d="M77.2501 76.3252C76.4702 73.3685 73.0616 62.2639 73.0307 62.1564C72.9559 61.9127 72.7101 61.7665 72.4534 61.8125L62.3529 63.8135C62.2146 63.8374 62.0933 63.93 62.0158 64.0584C61.9482 64.1859 61.9323 64.3282 61.9762 64.4644L67.0407 79.2417C65.4046 80.4616 57.3284 86.3998 54.9228 87.1644C53.2962 87.6798 50.4906 88.3641 47.2513 89.1321C44.6605 89.7546 42.3801 93.4614 41.25 95.6154C40.9131 96.2623 41.032 97.0444 41.5258 97.5575C41.8972 97.9523 42.4167 98.1212 42.9142 98.0711C43.2425 98.0381 43.5609 97.9056 43.8194 97.6785L47.1593 95.2119C47.6738 95.2305 49.1842 95.2594 51.205 94.9657C53.7013 94.604 56.0309 93.2842 56.1065 93.2364C56.9769 92.7971 61.228 91.5956 65.3418 90.428C68.41 89.5565 71.5767 88.6651 73.7096 87.9882C79.8071 86.0582 77.9501 78.9885 77.2501 76.3252Z" fill="url(#paint3_linear_179_684)" style=""/>
<path d="M74.1086 62.5803C73.3198 59.735 70.5875 56.3515 66.707 56.7418C66.3687 56.7759 66.0136 56.8418 65.6514 56.9385C61.2182 58.1282 60.3684 63.0681 61.2319 66.1571L64.1061 75.5466L76.9828 71.9698L74.1086 62.5803Z" fill="#04A287" style="fill:#04A287;fill:color(display-p3 0.0157 0.6353 0.5294);fill-opacity:1;"/>
<path d="M74.1086 62.5803C73.3198 59.735 70.5875 56.3515 66.707 56.7418C66.3687 56.7759 66.0136 56.8418 65.6514 56.9385C61.2182 58.1282 60.3684 63.0681 61.2319 66.1571L64.1061 75.5466L76.9828 71.9698L74.1086 62.5803Z" fill="#3615AF" style="fill:#3615AF;fill:color(display-p3 0.2118 0.0824 0.6863);fill-opacity:1;"/>
<path d="M85.8545 42.7304C86.1445 34.4804 90.9445 29.5004 85.6645 23.1204C82.1845 18.9104 75.2345 20.6704 74.0145 22.2904C71.6545 25.4104 75.6845 28.2304 76.6145 29.7904C77.9845 32.0904 75.4545 41.4604 79.5945 48.1504C85.1945 57.2104 90.9445 55.7904 90.9445 55.7904C90.9445 55.7904 85.5745 50.6704 85.8545 42.7304Z" fill="#543930" style="fill:#543930;fill:color(display-p3 0.3294 0.2235 0.1882);fill-opacity:1;"/>
<path d="M86.3043 38.8804C87.4543 32.7904 90.0743 28.4404 85.6743 23.1104C82.1943 18.9004 75.2443 20.6604 74.0243 22.2804C71.6643 25.4004 75.6943 28.2204 76.6243 29.7804C77.9943 32.0704 86.3043 38.8804 86.3043 38.8804Z" fill="url(#paint4_radial_179_684)" style=""/>
<path d="M85.8547 42.7305C85.9247 40.6705 86.3047 38.6505 86.7947 36.6505C87.2247 34.8805 87.6847 33.3605 86.5347 31.7305C84.7247 29.1605 81.1047 28.0405 78.1547 29.1305C77.2647 29.4605 76.7147 29.9105 76.8347 30.8305C76.9247 31.4905 77.0547 32.0905 77.0747 32.7705C77.0947 34.3105 77.0347 35.8505 77.0647 37.3905C77.1347 41.0905 77.6047 44.9305 79.5947 48.1405C85.1947 57.2005 90.9447 55.7805 90.9447 55.7805C90.9447 55.7805 85.5747 50.6705 85.8547 42.7305Z" fill="url(#paint5_radial_179_684)" style=""/>
<path d="M76.8545 27.6104C77.7445 29.7804 77.0245 34.0403 77.0645 35.6304C77.1045 37.3703 77.0345 39.9404 77.6245 42.9904C79.1045 50.6203 85.6245 54.5204 85.6245 54.5204L76.8545 27.6104Z" fill="url(#paint6_radial_179_684)" style=""/>
<path d="M74.7846 23.8905C72.1846 20.7205 67.9346 18.7005 63.4346 18.4805C59.5246 18.2905 54.1546 19.2505 50.8546 22.5105C48.8646 24.4705 47.6946 27.0505 48.0246 29.9105C48.2246 31.6305 49.6346 32.5105 49.6346 32.5105C49.6346 32.5105 51.2646 28.5905 55.2546 29.5805C59.4546 30.6205 61.2846 29.7705 61.2846 29.7705C59.8746 33.1105 61.1146 34.9305 62.2146 35.9805C62.8446 36.5805 63.4246 37.2805 63.7446 37.7005C63.9146 37.9205 64.0546 37.9005 64.1246 37.6705C64.2846 37.1305 64.5946 36.1604 64.8246 35.7005C65.6046 34.1705 66.8446 34.7105 66.8546 34.7105C68.5446 35.3105 69.1546 38.7905 66.3746 40.8305C66.3046 40.8805 66.1146 41.0105 66.2246 41.3505C67.3246 44.8805 71.5046 45.0105 71.7546 44.8805L71.7646 44.8705C71.7846 44.8605 71.8046 44.8505 71.8246 44.8405C72.3846 44.5805 72.7146 44.1205 72.8046 43.4705C73.1546 41.1205 74.1746 40.4405 74.9146 39.4205C75.7646 38.2405 76.7346 36.9105 77.2846 33.2205C77.8246 29.7705 76.9546 26.5305 74.7846 23.8905Z" fill="#543930" style="fill:#543930;fill:color(display-p3 0.3294 0.2235 0.1882);fill-opacity:1;"/>
<path d="M74.7846 23.8905C72.1846 20.7205 67.9346 18.7005 63.4346 18.4805C59.5246 18.2905 54.1546 19.2505 50.8546 22.5105C48.8646 24.4705 47.6946 27.0505 48.0246 29.9105C48.2246 31.6305 49.6346 32.5105 49.6346 32.5105C49.6346 32.5105 51.2646 28.5905 55.2546 29.5805C59.4546 30.6205 61.2846 29.7705 61.2846 29.7705C59.8746 33.1105 61.1146 34.9305 62.2146 35.9805C62.8446 36.5805 63.4246 37.2805 63.7446 37.7005C63.9146 37.9205 64.0546 37.9005 64.1246 37.6705C64.2846 37.1305 64.5946 36.1604 64.8246 35.7005C65.6046 34.1705 66.8446 34.7105 66.8546 34.7105C68.5446 35.3105 69.1546 38.7905 66.3746 40.8305C66.3046 40.8805 66.1146 41.0105 66.2246 41.3505C67.3246 44.8805 71.5046 45.0105 71.7546 44.8805L71.7646 44.8705C71.7846 44.8605 71.8046 44.8505 71.8246 44.8405C72.3846 44.5805 72.7146 44.1205 72.8046 43.4705C73.1546 41.1205 74.1746 40.4405 74.9146 39.4205C75.7646 38.2405 76.7346 36.9105 77.2846 33.2205C77.8246 29.7705 76.9546 26.5305 74.7846 23.8905Z" fill="url(#paint7_radial_179_684)" style=""/>
<defs>
<radialGradient id="paint0_radial_179_684" cx="0" cy="0" r="1" gradientUnits="userSpaceOnUse" gradientTransform="translate(65.672 67.2601) scale(17.0361 17.0361)">
<stop offset="0.3637" stop-color="#00BFA5" style="stop-color:#00BFA5;stop-color:color(display-p3 0.0000 0.7490 0.6471);stop-opacity:1;"/>
<stop offset="0.8121" stop-color="#00B29A" style="stop-color:#00B29A;stop-color:color(display-p3 0.0000 0.6980 0.6039);stop-opacity:1;"/>
<stop offset="1" stop-color="#00AB94" style="stop-color:#00AB94;stop-color:color(display-p3 0.0000 0.6706 0.5804);stop-opacity:1;"/>
</radialGradient>
<radialGradient id="paint1_radial_179_684" cx="0" cy="0" r="1" gradientUnits="userSpaceOnUse" gradientTransform="translate(65.672 67.2601) scale(17.0361 17.0361)">
<stop offset="0.3637" stop-color="#651FFF" style="stop-color:#651FFF;stop-color:color(display-p3 0.3961 0.1216 1.0000);stop-opacity:1;"/>
<stop offset="0.8121" stop-color="#5914F2" style="stop-color:#5914F2;stop-color:color(display-p3 0.3490 0.0784 0.9490);stop-opacity:1;"/>
<stop offset="1" stop-color="#530EEB" style="stop-color:#530EEB;stop-color:color(display-p3 0.3255 0.0549 0.9216);stop-opacity:1;"/>
</radialGradient>
<linearGradient id="paint2_linear_179_684" x1="60.3704" y1="91.279" x2="56.8173" y2="77.1889" gradientUnits="userSpaceOnUse">
<stop offset="0.5" stop-color="#FFCA28" style="stop-color:#FFCA28;stop-color:color(display-p3 1.0000 0.7922 0.1569);stop-opacity:1;"/>
<stop offset="1" stop-color="#FFB300" style="stop-color:#FFB300;stop-color:color(display-p3 1.0000 0.7020 0.0000);stop-opacity:1;"/>
</linearGradient>
<linearGradient id="paint3_linear_179_684" x1="60.3704" y1="91.279" x2="56.8173" y2="77.1889" gradientUnits="userSpaceOnUse">
<stop offset="0.5" stop-color="#BA8D68" style="stop-color:#BA8D68;stop-color:color(display-p3 0.7294 0.5529 0.4078);stop-opacity:1;"/>
<stop offset="1" stop-color="#A47B62" style="stop-color:#A47B62;stop-color:color(display-p3 0.6431 0.4824 0.3843);stop-opacity:1;"/>
</linearGradient>
<radialGradient id="paint4_radial_179_684" cx="0" cy="0" r="1" gradientUnits="userSpaceOnUse" gradientTransform="translate(77.797 36.5653) rotate(-6.41928) scale(15.133 18.2977)">
<stop offset="0.5264" stop-color="#6D4C41" stop-opacity="0" style="stop-color:none;stop-opacity:0;"/>
<stop offset="1" stop-color="#6D4C41" style="stop-color:#6D4C41;stop-color:color(display-p3 0.4275 0.2980 0.2549);stop-opacity:1;"/>
</radialGradient>
<radialGradient id="paint5_radial_179_684" cx="0" cy="0" r="1" gradientUnits="userSpaceOnUse" gradientTransform="translate(91.6553 48.3875) rotate(170.23) scale(16.184 19.9658)">
<stop stop-color="#6D4C41" style="stop-color:#6D4C41;stop-color:color(display-p3 0.4275 0.2980 0.2549);stop-opacity:1;"/>
<stop offset="0.5264" stop-color="#6D4C41" stop-opacity="0" style="stop-color:none;stop-opacity:0;"/>
</radialGradient>
<radialGradient id="paint6_radial_179_684" cx="0" cy="0" r="1" gradientUnits="userSpaceOnUse" gradientTransform="translate(84.9941 42.6222) rotate(160.233) scale(8.84711 28.2179)">
<stop offset="0.5264" stop-color="#6D4C41" stop-opacity="0" style="stop-color:none;stop-opacity:0;"/>
<stop offset="1" stop-color="#6D4C41" style="stop-color:#6D4C41;stop-color:color(display-p3 0.4275 0.2980 0.2549);stop-opacity:1;"/>
</radialGradient>
<radialGradient id="paint7_radial_179_684" cx="0" cy="0" r="1" gradientUnits="userSpaceOnUse" gradientTransform="translate(62.7107 31.6962) scale(14.0105 14.0105)">
<stop offset="0.5264" stop-color="#6D4C41" stop-opacity="0" style="stop-color:none;stop-opacity:0;"/>
<stop offset="1" stop-color="#6D4C41" style="stop-color:#6D4C41;stop-color:color(display-p3 0.4275 0.2980 0.2549);stop-opacity:1;"/>
</radialGradient>
</defs>
</svg>
