<svg width="128" height="129" viewBox="0 0 128 129" fill="none" xmlns="http://www.w3.org/2000/svg">
<path d="M63.6001 119.3C35.7001 119.3 5.6001 101.8 5.6001 63.4C5.6001 25 35.7001 7.5 63.6001 7.5C79.1001 7.5 93.4001 12.6 104 21.9C115.5 32.1 121.6 46.5 121.6 63.4C121.6 80.3 115.5 94.6 104 104.8C93.4001 114.1 79.0001 119.3 63.6001 119.3Z" fill="url(#paint0_radial_87_193)" style=""/>
<path d="M111.49 30.17C116.82 38.77 119.6 49.01 119.6 60.4C119.6 77.3 113.5 91.6 102 101.8C91.3999 111.1 76.9999 116.3 61.5999 116.3C43.5399 116.3 24.5999 108.95 13.4199 93.36C24.1799 111.02 44.4199 119.3 63.5999 119.3C78.9999 119.3 93.3999 114.1 104 104.8C115.5 94.6 121.6 80.3 121.6 63.4C121.6 50.66 118.13 39.34 111.49 30.17Z" fill="#EB8F00" style="fill:#EB8F00;fill:color(display-p3 0.9216 0.5608 0.0000);fill-opacity:1;"/>
<path d="M83.7006 102.106H43.4995C41.2895 102.106 39.4995 100.316 39.4995 98.1059C39.4995 95.8959 41.2895 94.1059 43.4995 94.1059H83.7006C85.9106 94.1059 87.7006 95.8959 87.7006 98.1059C87.7006 100.316 85.9106 102.106 83.7006 102.106Z" fill="#422B0D" style="fill:#422B0D;fill:color(display-p3 0.2588 0.1686 0.0510);fill-opacity:1;"/>
<path d="M44.6699 64C40.4799 64 36.6699 67.54 36.6699 73.42C36.6699 79.3 40.4799 82.83 44.6699 82.83C48.8599 82.83 52.6699 79.29 52.6699 73.42C52.6699 67.55 48.8599 64 44.6699 64Z" fill="#422B0D" style="fill:#422B0D;fill:color(display-p3 0.2588 0.1686 0.0510);fill-opacity:1;"/>
<path d="M44.2799 67.93C42.8599 67.25 41.1499 67.85 40.4599 69.27C39.9299 70.38 40.1699 71.71 41.0599 72.57C42.4799 73.25 44.1899 72.65 44.8799 71.23C45.4099 70.12 45.1699 68.79 44.2799 67.93Z" fill="#896024" style="fill:#896024;fill:color(display-p3 0.5373 0.3765 0.1412);fill-opacity:1;"/>
<path d="M83 64C78.81 64 75 67.54 75 73.42C75 79.3 78.81 82.83 83 82.83C87.19 82.83 91 79.29 91 73.42C91 67.55 87.21 64 83 64Z" fill="#422B0D" style="fill:#422B0D;fill:color(display-p3 0.2588 0.1686 0.0510);fill-opacity:1;"/>
<path d="M82.63 67.93C81.21 67.25 79.5 67.85 78.81 69.27C78.28 70.38 78.52 71.71 79.41 72.57C80.83 73.25 82.54 72.65 83.23 71.23C83.76 70.12 83.52 68.79 82.63 67.93Z" fill="#896024" style="fill:#896024;fill:color(display-p3 0.5373 0.3765 0.1412);fill-opacity:1;"/>
<defs>
<radialGradient id="paint0_radial_87_193" cx="0" cy="0" r="1" gradientUnits="userSpaceOnUse" gradientTransform="translate(63.6001 63.3999) scale(56.9597 56.9597)">
<stop offset="0.5" stop-color="#FDE030" style="stop-color:#FDE030;stop-color:color(display-p3 0.9922 0.8784 0.1882);stop-opacity:1;"/>
<stop offset="0.92" stop-color="#F7C02B" style="stop-color:#F7C02B;stop-color:color(display-p3 0.9686 0.7529 0.1686);stop-opacity:1;"/>
<stop offset="1" stop-color="#F4A223" style="stop-color:#F4A223;stop-color:color(display-p3 0.9569 0.6353 0.1373);stop-opacity:1;"/>
</radialGradient>
</defs>
</svg>
