<svg width="128" height="128" viewBox="0 0 128 128" fill="none" xmlns="http://www.w3.org/2000/svg">
<path d="M102.29 125.43L26.27 125.06C22.82 125.06 20.02 122.26 20.02 118.81L32.22 26.6801L102.41 4.5001C108.54 4.1701 108.89 7.0301 108.89 10.4801L108.52 119.17C108.54 122.64 105.74 125.43 102.29 125.43Z" fill="#D9CDC9" style="fill:#D9CDC9;fill:color(display-p3 0.8510 0.8039 0.7882);fill-opacity:1;"/>
<path d="M101.83 122.06C101.83 122.06 44.0701 123.04 25.3601 121.98C21.7801 121.78 20.0301 120.36 20.0201 118.82L19.8501 10.3301C19.8501 6.88008 22.6501 4.08008 26.1001 4.08008L101.74 4.40008C105.19 4.40008 106.5 7.26008 106.5 10.7101L105.93 116.11C105.91 119.56 105.28 122.06 101.83 122.06Z" fill="#F1EDEC" style="fill:#F1EDEC;fill:color(display-p3 0.9451 0.9294 0.9255);fill-opacity:1;"/>
<path d="M29.8202 12.5601C29.8202 12.5601 31.3402 9.04008 32.0502 9.00008C32.6802 8.96008 34.3402 12.6201 34.3402 12.6201C34.3402 12.6201 37.7802 12.6801 38.0802 13.1601C38.3802 13.6401 35.6102 16.9001 35.6102 16.9001C35.6102 16.9001 36.7602 20.8801 36.2702 21.1901C35.7902 21.4901 32.1102 19.3801 32.1102 19.3801C32.1102 19.3801 28.2502 21.4901 27.6402 21.0701C27.0402 20.6501 28.3002 16.4801 28.3002 16.4801C28.3002 16.4801 25.7402 13.8301 26.0102 13.1601C26.2602 12.5501 29.8202 12.5601 29.8202 12.5601Z" fill="#333333" style="fill:#333333;fill:color(display-p3 0.2000 0.2000 0.2000);fill-opacity:1;"/>
<path d="M29.8202 12.5601C29.8202 12.5601 31.3402 9.04008 32.0502 9.00008C32.6802 8.96008 34.3402 12.6201 34.3402 12.6201C34.3402 12.6201 37.7802 12.6801 38.0802 13.1601C38.3802 13.6401 35.6102 16.9001 35.6102 16.9001C35.6102 16.9001 36.7602 20.8801 36.2702 21.1901C35.7902 21.4901 32.1102 19.3801 32.1102 19.3801C32.1102 19.3801 28.2502 21.4901 27.6402 21.0701C27.0402 20.6501 28.3002 16.4801 28.3002 16.4801C28.3002 16.4801 25.7402 13.8301 26.0102 13.1601C26.2602 12.5501 29.8202 12.5601 29.8202 12.5601Z" fill="#212121" style="fill:#212121;fill:color(display-p3 0.1294 0.1294 0.1294);fill-opacity:1;"/>
<path d="M98.2699 113.61C98.2699 113.61 96.7699 117.14 96.0599 117.19C95.4299 117.23 93.7399 113.58 93.7399 113.58C93.7399 113.58 90.1699 113.6 89.8699 113.12C89.5699 112.64 92.2199 109.32 92.2199 109.32C92.2199 109.32 91.3199 105.39 91.7599 105.03C92.3699 104.54 95.9399 106.81 95.9399 106.81C95.9399 106.81 99.7899 104.67 100.4 105.09C101.01 105.51 99.7699 109.68 99.7699 109.68C99.7699 109.68 102.34 112.31 102.08 112.98C101.83 113.6 98.2699 113.61 98.2699 113.61Z" fill="#333333" style="fill:#333333;fill:color(display-p3 0.2000 0.2000 0.2000);fill-opacity:1;"/>
<path d="M98.2699 113.61C98.2699 113.61 96.7699 117.14 96.0599 117.19C95.4299 117.23 93.7399 113.58 93.7399 113.58C93.7399 113.58 90.1699 113.6 89.8699 113.12C89.5699 112.64 92.2199 109.32 92.2199 109.32C92.2199 109.32 91.3199 105.39 91.7599 105.03C92.3699 104.54 95.9399 106.81 95.9399 106.81C95.9399 106.81 99.7899 104.67 100.4 105.09C101.01 105.51 99.7699 109.68 99.7699 109.68C99.7699 109.68 102.34 112.31 102.08 112.98C101.83 113.6 98.2699 113.61 98.2699 113.61Z" fill="#212121" style="fill:#212121;fill:color(display-p3 0.1294 0.1294 0.1294);fill-opacity:1;"/>
<path d="M67.1401 27.16C65.5501 26.97 61.6001 34.48 59.6301 39.19C56.9201 45.66 57.0301 48.59 57.0301 48.59L56.8901 57.08L73.2501 56.95C73.2501 56.95 73.8201 52.37 73.8201 49.76C73.8201 47.15 73.2701 42.83 72.0401 38.3C70.9001 34.1 68.7301 27.35 67.1401 27.16Z" fill="#FFB803" style="fill:#FFB803;fill:color(display-p3 1.0000 0.7216 0.0118);fill-opacity:1;"/>
<path d="M67.1401 27.16C65.5501 26.97 61.6001 34.48 59.6301 39.19C56.9201 45.66 57.0301 48.59 57.0301 48.59L56.8901 57.08L73.2501 56.95C73.2501 56.95 73.8201 52.37 73.8201 49.76C73.8201 47.15 73.2701 42.83 72.0401 38.3C70.9001 34.1 68.7301 27.35 67.1401 27.16Z" fill="#525252" style="fill:#525252;fill:color(display-p3 0.3208 0.3208 0.3208);fill-opacity:1;"/>
<path d="M67.7802 20.44C65.6402 20.37 63.2802 21.21 62.8602 24.65C62.4802 27.73 65.1502 29.54 67.2502 29.61C70.7402 29.72 72.3202 27.24 72.3202 24.61C72.3202 22.31 70.0302 20.51 67.7802 20.44Z" fill="#DA0E21" style="fill:#DA0E21;fill:color(display-p3 0.8549 0.0549 0.1294);fill-opacity:1;"/>
<path d="M72.52 57.5601L80.14 60.7901C80.14 60.7901 81.24 52.7401 84.96 49.7601C89.23 46.3301 91.97 47.5001 91.97 47.5001L94.65 44.6301C94.65 44.6301 91.42 38.4701 83.62 39.6301C76.43 40.7001 73.53 45.7001 73.53 45.7001C73.53 45.7001 73.73 47.9901 73.32 51.8701C72.96 55.1101 72.52 57.5601 72.52 57.5601Z" fill="#FF605E" style="fill:#FF605E;fill:color(display-p3 1.0000 0.3765 0.3686);fill-opacity:1;"/>
<path d="M72.52 57.5601L80.14 60.7901C80.14 60.7901 81.24 52.7401 84.96 49.7601C89.23 46.3301 91.97 47.5001 91.97 47.5001L94.65 44.6301C94.65 44.6301 91.42 38.4701 83.62 39.6301C76.43 40.7001 73.53 45.7001 73.53 45.7001C73.53 45.7001 73.73 47.9901 73.32 51.8701C72.96 55.1101 72.52 57.5601 72.52 57.5601Z" fill="#404040" style="fill:#404040;fill:color(display-p3 0.2500 0.2500 0.2500);fill-opacity:1;"/>
<path d="M91.72 45.0599C89.77 46.8999 89.84 50.5499 92.27 52.3099C94.53 53.9599 97.94 53.8999 99.52 51.2699C100.99 48.8399 100.39 45.6199 98.36 44.4999C95.93 43.1699 93.86 43.0499 91.72 45.0599Z" fill="#DA0E21" style="fill:#DA0E21;fill:color(display-p3 0.8549 0.0549 0.1294);fill-opacity:1;"/>
<path d="M35.75 45.67L38.43 48.11C38.43 48.11 42.93 45.48 46.36 49.51C49.84 53.59 50.69 59.87 50.69 59.87L58.65 55.92C58.65 55.92 58.49 48.0201 57.63 45.5801C57.01 43.8001 54.29 39.15 46.05 39.21C39.11 39.26 35.75 45.67 35.75 45.67Z" fill="#FF605E" style="fill:#FF605E;fill:color(display-p3 1.0000 0.3765 0.3686);fill-opacity:1;"/>
<path d="M35.75 45.67L38.43 48.11C38.43 48.11 42.93 45.48 46.36 49.51C49.84 53.59 50.69 59.87 50.69 59.87L58.65 55.92C58.65 55.92 58.49 48.0201 57.63 45.5801C57.01 43.8001 54.29 39.15 46.05 39.21C39.11 39.26 35.75 45.67 35.75 45.67Z" fill="#404040" style="fill:#404040;fill:color(display-p3 0.2500 0.2500 0.2500);fill-opacity:1;"/>
<path d="M32.6898 52.02C34.4898 54.05 37.9898 53.86 39.4098 51.83C40.7298 49.94 40.4998 47.34 38.8898 45.87C37.2798 44.4 34.8198 43.93 32.7398 45.96C30.8698 47.8 31.6198 50.81 32.6898 52.02Z" fill="#DA0E21" style="fill:#DA0E21;fill:color(display-p3 0.8549 0.0549 0.1294);fill-opacity:1;"/>
<path d="M50.46 59.4101C50.46 59.4101 54.64 54.7901 65.45 55.0101C76.57 55.2301 80.37 59.4901 80.37 59.4901C80.37 59.4901 82.22 65.8801 80.37 71.8501C78.52 77.8201 77.27 78.1701 77.42 79.7401C77.56 81.3001 78.81 83.6501 82.01 85.7101C85.21 87.7701 88.12 87.7001 88.26 88.6201C88.4 89.5401 86.63 91.1101 82.44 90.7501C78.25 90.3901 75.41 88.7601 75.19 89.1201C74.97 89.4801 75.83 92.6001 77.75 94.9401C79.67 97.2801 82.3 98.7001 81.94 99.5601C81.58 100.42 74.98 100.77 70.86 96.9301C66.74 93.0901 65.86 90.1901 65.08 90.2601C64.3 90.3301 62.68 93.6801 58.64 96.7901C54.02 100.35 49.97 100.98 49.19 99.6301C48.27 98.0401 52.1 96.5001 53.52 93.1701C54.94 89.8301 55.58 87.7001 55.3 87.4201C55.02 87.1401 53.88 89.9801 49.83 90.6901C45.78 91.4001 42.94 90.6901 42.87 89.6201C42.8 88.5501 45.5 88.4101 48.77 85.2901C51.97 82.2301 53.02 80.6901 52.97 79.1601C52.91 77.2801 50.85 76.4701 49.86 69.9501C49.08 64.8301 50.46 59.4101 50.46 59.4101Z" fill="#7958C2" style="fill:#7958C2;fill:color(display-p3 0.4745 0.3451 0.7608);fill-opacity:1;"/>
<path d="M50.46 59.4101C50.46 59.4101 54.64 54.7901 65.45 55.0101C76.57 55.2301 80.37 59.4901 80.37 59.4901C80.37 59.4901 82.22 65.8801 80.37 71.8501C78.52 77.8201 77.27 78.1701 77.42 79.7401C77.56 81.3001 78.81 83.6501 82.01 85.7101C85.21 87.7701 88.12 87.7001 88.26 88.6201C88.4 89.5401 86.63 91.1101 82.44 90.7501C78.25 90.3901 75.41 88.7601 75.19 89.1201C74.97 89.4801 75.83 92.6001 77.75 94.9401C79.67 97.2801 82.3 98.7001 81.94 99.5601C81.58 100.42 74.98 100.77 70.86 96.9301C66.74 93.0901 65.86 90.1901 65.08 90.2601C64.3 90.3301 62.68 93.6801 58.64 96.7901C54.02 100.35 49.97 100.98 49.19 99.6301C48.27 98.0401 52.1 96.5001 53.52 93.1701C54.94 89.8301 55.58 87.7001 55.3 87.4201C55.02 87.1401 53.88 89.9801 49.83 90.6901C45.78 91.4001 42.94 90.6901 42.87 89.6201C42.8 88.5501 45.5 88.4101 48.77 85.2901C51.97 82.2301 53.02 80.6901 52.97 79.1601C52.91 77.2801 50.85 76.4701 49.86 69.9501C49.08 64.8301 50.46 59.4101 50.46 59.4101Z" fill="#333333" style="fill:#333333;fill:color(display-p3 0.2000 0.2000 0.2000);fill-opacity:1;"/>
<path d="M53.0799 61.26C53.0799 61.26 55.2399 57.44 64.9199 57.51C75.0499 57.58 78.1399 61.66 78.1399 61.66C78.1399 61.66 80.1199 81.43 65.5199 81.13C50.0299 80.79 53.0799 61.26 53.0799 61.26Z" fill="#F1EDEC" style="fill:#F1EDEC;fill:color(display-p3 0.9451 0.9294 0.9255);fill-opacity:1;"/>
<path d="M71.6101 60.6799C70.7901 60.6799 70.4401 62.0399 70.3101 64.7499C70.1901 67.3799 70.6101 68.9799 71.5201 68.9799C72.4301 68.9799 72.9001 67.5499 72.9701 65.2499C73.0801 62.1899 72.5501 60.6799 71.6101 60.6799Z" fill="#4F322C" style="fill:#4F322C;fill:color(display-p3 0.3098 0.1961 0.1725);fill-opacity:1;"/>
<path d="M68.1899 64.7601C68.1899 65.3901 69.4499 66.0901 71.6999 66.1301C73.9499 66.1701 75.0199 65.7701 75.1099 64.9701C75.1799 64.3401 74.2699 63.7801 71.5999 63.7101C68.9299 63.6401 68.1899 64.0201 68.1899 64.7601Z" fill="#4F322C" style="fill:#4F322C;fill:color(display-p3 0.3098 0.1961 0.1725);fill-opacity:1;"/>
<path d="M58.7799 60.8C59.5999 60.8 59.9499 62.1601 60.0799 64.8701C60.1999 67.5001 59.7799 69.1 58.8699 69.1C57.9599 69.1 57.4899 67.6701 57.4199 65.3701C57.3099 62.3101 57.8499 60.8 58.7799 60.8Z" fill="#4F322C" style="fill:#4F322C;fill:color(display-p3 0.3098 0.1961 0.1725);fill-opacity:1;"/>
<path d="M62.2001 64.8899C62.2001 65.5199 60.9401 66.2199 58.6901 66.2599C56.4401 66.2999 55.3701 65.8999 55.2801 65.0999C55.2101 64.4699 56.1201 63.9099 58.7901 63.8399C61.4701 63.7599 62.2001 64.1499 62.2001 64.8899Z" fill="#4F322C" style="fill:#4F322C;fill:color(display-p3 0.3098 0.1961 0.1725);fill-opacity:1;"/>
<path d="M60.3598 72.13C59.9598 72.92 60.9598 76 65.4198 76.06C69.8798 76.12 70.8998 73.15 70.6198 72.33C70.2898 71.36 68.4198 71.9 65.3598 71.86C62.4198 71.83 60.7598 71.33 60.3598 72.13Z" fill="#4F322C" style="fill:#4F322C;fill:color(display-p3 0.3098 0.1961 0.1725);fill-opacity:1;"/>
</svg>
