<svg width="128" height="128" viewBox="0 0 128 128" fill="none" xmlns="http://www.w3.org/2000/svg">
<path d="M63.6 118.8C35.7 118.8 5.59998 101.3 5.59998 62.9C5.59998 24.5 35.7 7 63.6 7C79.1 7 93.4 12.1 104 21.4C115.5 31.6 121.6 46 121.6 62.9C121.6 79.8 115.5 94.1 104 104.3C93.4 113.6 79 118.8 63.6 118.8Z" fill="url(#paint0_radial_169_10743)" style=""/>
<path d="M63.6 118.8C35.7 118.8 5.59998 101.3 5.59998 62.9C5.59998 24.5 35.7 7 63.6 7C79.1 7 93.4 12.1 104 21.4C115.5 31.6 121.6 46 121.6 62.9C121.6 79.8 115.5 94.1 104 104.3C93.4 113.6 79 118.8 63.6 118.8Z" fill="url(#paint1_radial_169_10743)" style=""/>
<path d="M63.6 118.8C35.7 118.8 5.59998 101.3 5.59998 62.9C5.59998 24.5 35.7 7 63.6 7C79.1 7 93.4 12.1 104 21.4C115.5 31.6 121.6 46 121.6 62.9C121.6 79.8 115.5 94.1 104 104.3C93.4 113.6 79 118.8 63.6 118.8Z" fill="url(#paint2_radial_169_10743)" style=""/>
<path d="M63.6 118.8C35.7 118.8 5.59998 101.3 5.59998 62.9C5.59998 24.5 35.7 7 63.6 7C79.1 7 93.4 12.1 104 21.4C115.5 31.6 121.6 46 121.6 62.9C121.6 79.8 115.5 94.1 104 104.3C93.4 113.6 79 118.8 63.6 118.8Z" fill="url(#paint3_radial_169_10743)" style=""/>
<path d="M111.49 29.67C116.82 38.27 119.6 48.51 119.6 59.9C119.6 76.8 113.5 91.1 102 101.3C91.4 110.6 77 115.8 61.6 115.8C43.54 115.8 24.6 108.45 13.42 92.86C24.18 110.52 44.42 118.8 63.6 118.8C79 118.8 93.4 113.6 104 104.3C115.5 94.1 121.6 79.8 121.6 62.9C121.6 50.16 118.13 38.84 111.49 29.67Z" fill="#EB8F00" style="fill:#EB8F00;fill:color(display-p3 0.9216 0.5608 0.0000);fill-opacity:1;"/>
<path d="M111.49 29.67C116.82 38.27 119.6 48.51 119.6 59.9C119.6 76.8 113.5 91.1 102 101.3C91.4 110.6 77 115.8 61.6 115.8C43.54 115.8 24.6 108.45 13.42 92.86C24.18 110.52 44.42 118.8 63.6 118.8C79 118.8 93.4 113.6 104 104.3C115.5 94.1 121.6 79.8 121.6 62.9C121.6 50.16 118.13 38.84 111.49 29.67Z" fill="#F3B872" style="fill:#F3B872;fill:color(display-p3 0.9542 0.7229 0.4453);fill-opacity:1;"/>
<path d="M111.49 29.67C116.82 38.27 119.6 48.51 119.6 59.9C119.6 76.8 113.5 91.1 102 101.3C91.4 110.6 77 115.8 61.6 115.8C43.54 115.8 24.6 108.45 13.42 92.86C24.18 110.52 44.42 118.8 63.6 118.8C79 118.8 93.4 113.6 104 104.3C115.5 94.1 121.6 79.8 121.6 62.9C121.6 50.16 118.13 38.84 111.49 29.67Z" fill="#4A2F27" style="fill:#4A2F27;fill:color(display-p3 0.2902 0.1843 0.1529);fill-opacity:1;"/>
<path d="M64 87.2C74.8 87.2 81.8 95.1 83.7 98.8C84.4 100.2 84.4 101.4 83.8 101.9C83.16 102.3 82.34 102.3 81.7 101.9C81.38 101.77 81.08 101.6 80.8 101.4C75.9 97.88 70.03 95.96 64 95.9C57.99 95.98 52.13 97.86 47.2 101.3C46.92 101.5 46.62 101.67 46.3 101.8C45.66 102.2 44.84 102.2 44.2 101.8C43.6 101.2 43.6 100.1 44.3 98.7C46.2 95.1 53.2 87.2 64 87.2Z" fill="#42312C" style="fill:#42312C;fill:color(display-p3 0.2588 0.1922 0.1725);fill-opacity:1;"/>
<path d="M64 87.2C74.8 87.2 81.8 95.1 83.7 98.8C84.4 100.2 84.4 101.4 83.8 101.9C83.16 102.3 82.34 102.3 81.7 101.9C81.38 101.77 81.08 101.6 80.8 101.4C75.9 97.88 70.03 95.96 64 95.9C57.99 95.98 52.13 97.86 47.2 101.3C46.92 101.5 46.62 101.67 46.3 101.8C45.66 102.2 44.84 102.2 44.2 101.8C43.6 101.2 43.6 100.1 44.3 98.7C46.2 95.1 53.2 87.2 64 87.2Z" fill="#42312C" style="fill:#42312C;fill:color(display-p3 0.2588 0.1922 0.1725);fill-opacity:1;"/>
<path d="M74.4 67.7C73.04 68.96 72.96 71.08 74.22 72.43C74.42 72.65 74.65 72.84 74.9 73C77.82 75.17 81.1 76.8 84.6 77.8C88.13 78.68 91.78 78.95 95.4 78.6C97.28 78.55 98.77 76.98 98.72 75.1C98.71 74.83 98.67 74.56 98.6 74.3C98.01 72.57 96.32 71.46 94.5 71.6C91.82 71.86 89.12 71.7 86.5 71.1C83.92 70.31 81.48 69.09 79.3 67.5C77.82 66.41 75.78 66.49 74.4 67.7Z" fill="#42312C" style="fill:#42312C;fill:color(display-p3 0.2588 0.1922 0.1725);fill-opacity:1;"/>
<path d="M74.4 67.7C73.04 68.96 72.96 71.08 74.22 72.43C74.42 72.65 74.65 72.84 74.9 73C77.82 75.17 81.1 76.8 84.6 77.8C88.13 78.68 91.78 78.95 95.4 78.6C97.28 78.55 98.77 76.98 98.72 75.1C98.71 74.83 98.67 74.56 98.6 74.3C98.01 72.57 96.32 71.46 94.5 71.6C91.82 71.86 89.12 71.7 86.5 71.1C83.92 70.31 81.48 69.09 79.3 67.5C77.82 66.41 75.78 66.49 74.4 67.7Z" fill="#42312C" style="fill:#42312C;fill:color(display-p3 0.2588 0.1922 0.1725);fill-opacity:1;"/>
<path d="M53.6 67.7C54.96 68.96 55.04 71.08 53.78 72.43C53.58 72.65 53.35 72.84 53.1 73C50.18 75.17 46.9 76.8 43.4 77.8C39.87 78.68 36.22 78.95 32.6 78.6C30.77 78.57 29.32 77.06 29.35 75.23C29.36 74.91 29.41 74.6 29.5 74.3C30.09 72.57 31.78 71.46 33.6 71.6C36.28 71.86 38.98 71.7 41.6 71.1C44.18 70.31 46.62 69.09 48.8 67.5C50.24 66.41 52.26 66.49 53.6 67.7Z" fill="#42312C" style="fill:#42312C;fill:color(display-p3 0.2588 0.1922 0.1725);fill-opacity:1;"/>
<path d="M53.6 67.7C54.96 68.96 55.04 71.08 53.78 72.43C53.58 72.65 53.35 72.84 53.1 73C50.18 75.17 46.9 76.8 43.4 77.8C39.87 78.68 36.22 78.95 32.6 78.6C30.77 78.57 29.32 77.06 29.35 75.23C29.36 74.91 29.41 74.6 29.5 74.3C30.09 72.57 31.78 71.46 33.6 71.6C36.28 71.86 38.98 71.7 41.6 71.1C44.18 70.31 46.62 69.09 48.8 67.5C50.24 66.41 52.26 66.49 53.6 67.7Z" fill="#42312C" style="fill:#42312C;fill:color(display-p3 0.2588 0.1922 0.1725);fill-opacity:1;"/>
<defs>
<radialGradient id="paint0_radial_169_10743" cx="0" cy="0" r="1" gradientUnits="userSpaceOnUse" gradientTransform="translate(63.6 62.9) scale(56.9597 56.9597)">
<stop offset="0.5" stop-color="#FDE030" style="stop-color:#FDE030;stop-color:color(display-p3 0.9922 0.8784 0.1882);stop-opacity:1;"/>
<stop offset="0.92" stop-color="#F7C02B" style="stop-color:#F7C02B;stop-color:color(display-p3 0.9686 0.7529 0.1686);stop-opacity:1;"/>
<stop offset="1" stop-color="#F4A223" style="stop-color:#F4A223;stop-color:color(display-p3 0.9569 0.6353 0.1373);stop-opacity:1;"/>
</radialGradient>
<radialGradient id="paint1_radial_169_10743" cx="0" cy="0" r="1" gradientUnits="userSpaceOnUse" gradientTransform="translate(38.599 34.5377) rotate(-43.2082) scale(102.024 101.825)">
<stop offset="0.3533" stop-color="#F9DDBD" style="stop-color:#F9DDBD;stop-color:color(display-p3 0.9765 0.8667 0.7412);stop-opacity:1;"/>
<stop offset="0.8723" stop-color="#FFD29C" style="stop-color:#FFD29C;stop-color:color(display-p3 1.0000 0.8235 0.6118);stop-opacity:1;"/>
</radialGradient>
<radialGradient id="paint2_radial_169_10743" cx="0" cy="0" r="1" gradientUnits="userSpaceOnUse" gradientTransform="translate(38.599 34.5377) rotate(-43.2082) scale(102.024 101.825)">
<stop offset="0.3533" stop-color="#70534A" style="stop-color:#70534A;stop-color:color(display-p3 0.4392 0.3255 0.2902);stop-opacity:1;"/>
<stop offset="0.8723" stop-color="#5C4037" style="stop-color:#5C4037;stop-color:color(display-p3 0.3608 0.2510 0.2157);stop-opacity:1;"/>
</radialGradient>
<radialGradient id="paint3_radial_169_10743" cx="0" cy="0" r="1" gradientUnits="userSpaceOnUse" gradientTransform="translate(38.599 34.5377) rotate(-43.2082) scale(102.024 101.825)">
<stop offset="0.3533" stop-color="#A56C43" style="stop-color:#A56C43;stop-color:color(display-p3 0.6471 0.4235 0.2627);stop-opacity:1;"/>
<stop offset="0.8723" stop-color="#8D5738" style="stop-color:#8D5738;stop-color:color(display-p3 0.5529 0.3412 0.2196);stop-opacity:1;"/>
</radialGradient>
</defs>
</svg>
