<svg width="128" height="129" viewBox="0 0 128 129" fill="none" xmlns="http://www.w3.org/2000/svg">
<path d="M98.9998 57.0486C98.8686 38.1412 95.704 32.8053 75.623 17.7983C67.2668 11.549 68.9147 7.18465 66.6543 6.57567C65.3126 6.21318 64.0002 7.19915 64.0002 8.54761V74.97C64.0002 75.8545 63.1981 76.5505 62.3231 76.391C54.7544 75.086 45.5087 78.2614 38.3337 85.3807C28.0234 95.6319 25.938 110.175 33.6671 117.86C41.3962 125.544 56.0231 123.471 66.3335 113.22C72.9251 106.666 76.1334 98.3868 75.5938 91.2385L75.623 33.5593C75.623 32.5009 76.6875 31.9209 77.7084 32.2399C81.5437 33.4433 94.3478 38.4602 95.2665 58.0635C95.354 60.0355 99.029 60.4125 98.9998 57.0486Z" fill="url(#paint0_radial_183_590)" style=""/>
<path d="M98.9998 57.0486C98.8686 38.1412 95.704 32.8053 75.623 17.7983C67.2668 11.549 68.9147 7.18465 66.6543 6.57567C65.3126 6.21318 64.0002 7.19915 64.0002 8.54761V74.97C64.0002 75.8545 63.1981 76.5505 62.3231 76.391C54.7544 75.086 45.5087 78.2614 38.3337 85.3807C28.0234 95.6319 25.938 110.175 33.6671 117.86C41.3962 125.544 56.0231 123.471 66.3335 113.22C72.9251 106.666 76.1334 98.3868 75.5938 91.2385L75.623 33.5593C75.623 32.5009 76.6875 31.9209 77.7084 32.2399C81.5437 33.4433 94.3478 38.4602 95.2665 58.0635C95.354 60.0355 99.029 60.4125 98.9998 57.0486Z" fill="url(#paint1_radial_183_590)" style=""/>
<path d="M98.9998 57.0486C98.8686 38.1412 95.704 32.8053 75.623 17.7983C67.2668 11.549 68.9147 7.18465 66.6543 6.57567C65.3126 6.21318 64.0002 7.19915 64.0002 8.54761V74.97C64.0002 75.8545 63.1981 76.5505 62.3231 76.391C54.7544 75.086 45.5087 78.2614 38.3337 85.3807C28.0234 95.6319 25.938 110.175 33.6671 117.86C41.3962 125.544 56.0231 123.471 66.3335 113.22C72.9251 106.666 76.1334 98.3868 75.5938 91.2385L75.623 33.5593C75.623 32.5009 76.6875 31.9209 77.7084 32.2399C81.5437 33.4433 94.3478 38.4602 95.2665 58.0635C95.354 60.0355 99.029 60.4125 98.9998 57.0486Z" fill="url(#paint2_linear_183_590)" style=""/>
<path d="M98.9998 57.0486C98.8686 38.1412 95.704 32.8053 75.623 17.7983C67.2668 11.549 68.9147 7.18465 66.6543 6.57567C65.3126 6.21318 64.0002 7.19915 64.0002 8.54761V74.97C64.0002 75.8545 63.1981 76.5505 62.3231 76.391C54.7544 75.086 45.5087 78.2614 38.3337 85.3807C28.0234 95.6319 25.938 110.175 33.6671 117.86C41.3962 125.544 56.0231 123.471 66.3335 113.22C72.9251 106.666 76.1334 98.3868 75.5938 91.2385L75.623 33.5593C75.623 32.5009 76.6875 31.9209 77.7084 32.2399C81.5437 33.4433 94.3478 38.4602 95.2665 58.0635C95.354 60.0355 99.029 60.4125 98.9998 57.0486Z" fill="url(#paint3_linear_183_590)" style=""/>
<path d="M98.9998 57.0486C98.8686 38.1412 95.704 32.8053 75.623 17.7983C67.2668 11.549 68.9147 7.18465 66.6543 6.57567C65.3126 6.21318 64.0002 7.19915 64.0002 8.54761V74.97C64.0002 75.8545 63.1981 76.5505 62.3231 76.391C54.7544 75.086 45.5087 78.2614 38.3337 85.3807C28.0234 95.6319 25.938 110.175 33.6671 117.86C41.3962 125.544 56.0231 123.471 66.3335 113.22C72.9251 106.666 76.1334 98.3868 75.5938 91.2385L75.623 33.5593C75.623 32.5009 76.6875 31.9209 77.7084 32.2399C81.5437 33.4433 94.3478 38.4602 95.2665 58.0635C95.354 60.0355 99.029 60.4125 98.9998 57.0486Z" fill="#546E7A" style="fill:#546E7A;fill:color(display-p3 0.3294 0.4314 0.4784);fill-opacity:1;"/>
<defs>
<radialGradient id="paint0_radial_183_590" cx="0" cy="0" r="1" gradientUnits="userSpaceOnUse" gradientTransform="translate(61.2658 17.1966) scale(113.326 112.676)">
<stop stop-color="#40C4FF" style="stop-color:#40C4FF;stop-color:color(display-p3 0.2510 0.7686 1.0000);stop-opacity:1;"/>
<stop offset="0.3807" stop-color="#3EC2FE" style="stop-color:#3EC2FE;stop-color:color(display-p3 0.2431 0.7608 0.9961);stop-opacity:1;"/>
<stop offset="0.5459" stop-color="#37BDFC" style="stop-color:#37BDFC;stop-color:color(display-p3 0.2157 0.7412 0.9882);stop-opacity:1;"/>
<stop offset="0.6693" stop-color="#2AB3F8" style="stop-color:#2AB3F8;stop-color:color(display-p3 0.1647 0.7020 0.9725);stop-opacity:1;"/>
<stop offset="0.7713" stop-color="#18A5F2" style="stop-color:#18A5F2;stop-color:color(display-p3 0.0941 0.6471 0.9490);stop-opacity:1;"/>
<stop offset="0.849" stop-color="#0595EC" style="stop-color:#0595EC;stop-color:color(display-p3 0.0196 0.5843 0.9255);stop-opacity:1;"/>
<stop offset="1" stop-color="#0091EA" style="stop-color:#0091EA;stop-color:color(display-p3 0.0000 0.5686 0.9176);stop-opacity:1;"/>
</radialGradient>
<radialGradient id="paint1_radial_183_590" cx="0" cy="0" r="1" gradientUnits="userSpaceOnUse" gradientTransform="translate(64 6.5) rotate(90) scale(123.733 74.6667)">
<stop stop-color="#616161" style="stop-color:#616161;stop-color:color(display-p3 0.3804 0.3804 0.3804);stop-opacity:1;"/>
<stop offset="0.827" stop-color="#212121" style="stop-color:#212121;stop-color:color(display-p3 0.1294 0.1294 0.1294);stop-opacity:1;"/>
</radialGradient>
<linearGradient id="paint2_linear_183_590" x1="64" y1="7.26316" x2="64" y2="122.317" gradientUnits="userSpaceOnUse">
<stop stop-color="#757575" style="stop-color:#757575;stop-color:color(display-p3 0.4588 0.4588 0.4588);stop-opacity:1;"/>
<stop offset="0.5148" stop-color="#504F4F" style="stop-color:#504F4F;stop-color:color(display-p3 0.3137 0.3098 0.3098);stop-opacity:1;"/>
</linearGradient>
<linearGradient id="paint3_linear_183_590" x1="64" y1="10.2854" x2="64" y2="116.839" gradientUnits="userSpaceOnUse">
<stop stop-color="#757575" style="stop-color:#757575;stop-color:color(display-p3 0.4588 0.4588 0.4588);stop-opacity:1;"/>
<stop offset="0.5148" stop-color="#504F4F" style="stop-color:#504F4F;stop-color:color(display-p3 0.3137 0.3098 0.3098);stop-opacity:1;"/>
</linearGradient>
</defs>
</svg>
