<svg width="128" height="128" viewBox="0 0 128 128" fill="none" xmlns="http://www.w3.org/2000/svg">
<path d="M63.6 118.8C35.7 118.8 5.59998 101.3 5.59998 62.9C5.59998 24.5 35.7 7 63.6 7C79.1 7 93.4 12.1 104 21.4C115.5 31.6 121.6 46 121.6 62.9C121.6 79.8 115.5 94.1 104 104.3C93.4 113.6 79 118.8 63.6 118.8Z" fill="url(#paint0_radial_169_10283)" style=""/>
<path d="M63.6 118.8C35.7 118.8 5.59998 101.3 5.59998 62.9C5.59998 24.5 35.7 7 63.6 7C79.1 7 93.4 12.1 104 21.4C115.5 31.6 121.6 46 121.6 62.9C121.6 79.8 115.5 94.1 104 104.3C93.4 113.6 79 118.8 63.6 118.8Z" fill="url(#paint1_radial_169_10283)" style=""/>
<path d="M63.6 118.8C35.7 118.8 5.59998 101.3 5.59998 62.9C5.59998 24.5 35.7 7 63.6 7C79.1 7 93.4 12.1 104 21.4C115.5 31.6 121.6 46 121.6 62.9C121.6 79.8 115.5 94.1 104 104.3C93.4 113.6 79 118.8 63.6 118.8Z" fill="url(#paint2_radial_169_10283)" style=""/>
<path d="M63.6 118.8C35.7 118.8 5.59998 101.3 5.59998 62.9C5.59998 24.5 35.7 7 63.6 7C79.1 7 93.4 12.1 104 21.4C115.5 31.6 121.6 46 121.6 62.9C121.6 79.8 115.5 94.1 104 104.3C93.4 113.6 79 118.8 63.6 118.8Z" fill="url(#paint3_radial_169_10283)" style=""/>
<path d="M111.49 29.67C116.82 38.27 119.6 48.51 119.6 59.9C119.6 76.8 113.5 91.1 102 101.3C91.3999 110.6 76.9999 115.8 61.5999 115.8C43.5399 115.8 24.5999 108.45 13.4199 92.86C24.1799 110.52 44.4199 118.8 63.5999 118.8C78.9999 118.8 93.3999 113.6 104 104.3C115.5 94.1 121.6 79.8 121.6 62.9C121.6 50.16 118.13 38.84 111.49 29.67Z" fill="#EB8F00" style="fill:#EB8F00;fill:color(display-p3 0.9216 0.5608 0.0000);fill-opacity:1;"/>
<path d="M111.49 29.67C116.82 38.27 119.6 48.51 119.6 59.9C119.6 76.8 113.5 91.1 102 101.3C91.3999 110.6 76.9999 115.8 61.5999 115.8C43.5399 115.8 24.5999 108.45 13.4199 92.86C24.1799 110.52 44.4199 118.8 63.5999 118.8C78.9999 118.8 93.3999 113.6 104 104.3C115.5 94.1 121.6 79.8 121.6 62.9C121.6 50.16 118.13 38.84 111.49 29.67Z" fill="#F3B872" style="fill:#F3B872;fill:color(display-p3 0.9542 0.7229 0.4453);fill-opacity:1;"/>
<path d="M111.49 29.67C116.82 38.27 119.6 48.51 119.6 59.9C119.6 76.8 113.5 91.1 102 101.3C91.3999 110.6 76.9999 115.8 61.5999 115.8C43.5399 115.8 24.5999 108.45 13.4199 92.86C24.1799 110.52 44.4199 118.8 63.5999 118.8C78.9999 118.8 93.3999 113.6 104 104.3C115.5 94.1 121.6 79.8 121.6 62.9C121.6 50.16 118.13 38.84 111.49 29.67Z" fill="#4A2F27" style="fill:#4A2F27;fill:color(display-p3 0.2902 0.1843 0.1529);fill-opacity:1;"/>
<path d="M95.92 17.1299L87.86 27.8299C87.46 28.3499 86.84 28.6499 86.18 28.6199L72.8 28.0499C71.7 27.9999 70.76 28.8599 70.71 29.9599C70.69 30.3999 70.82 30.8299 71.07 31.1899L78.76 42.1899C79.13 42.7199 79.22 43.3899 79 43.9999L74.32 56.5599C73.94 57.5999 74.47 58.7499 75.5 59.1299C75.91 59.2799 76.35 59.2899 76.77 59.1699L89.58 55.2499C90.21 55.0599 90.89 55.1899 91.41 55.5999L101.9 63.9299C102.77 64.6099 104.02 64.4699 104.71 63.5999C104.98 63.2499 105.13 62.8299 105.14 62.3899L105.37 48.9999C105.38 48.3399 105.72 47.7299 106.27 47.3699L117.43 39.9999C118.35 39.3899 118.61 38.1499 118 37.2299C117.76 36.8599 117.4 36.5799 116.98 36.4399L104.31 32.0799C103.67 31.8699 103.18 31.3499 103 30.6999L99.44 17.7899C99.14 16.7299 98.03 16.1099 96.97 16.4099C96.55 16.5299 96.18 16.7799 95.92 17.1299Z" fill="url(#paint4_radial_169_10283)" style=""/>
<path d="M99.81 16.89L102.81 30.81C103.04 31.88 103.83 32.74 104.88 33.05L118.26 37.05C119.26 37.41 119.78 38.51 119.42 39.51C119.28 39.91 119.01 40.24 118.65 40.47L106.65 46.99C105.64 47.5 105 48.54 105 49.67L105.12 64.26C105.09 65.31 104.21 66.14 103.15 66.11C102.73 66.1 102.32 65.95 102 65.68L91.52 56.27C90.71 55.53 89.56 55.3 88.52 55.66L75.22 60.19C74.2 60.48 73.14 59.89 72.84 58.87C72.72 58.47 72.74 58.04 72.9 57.65L78.76 44.28C79.2 43.26 79.05 42.09 78.36 41.22L69.85 30.49C69.26 29.6 69.5 28.41 70.38 27.81C70.72 27.58 71.13 27.47 71.55 27.49L85.44 29.07C86.53 29.19 87.59 28.71 88.22 27.82L96.44 16.2C97.09 15.36 98.3 15.21 99.13 15.87C99.47 16.13 99.7 16.48 99.81 16.89Z" fill="#F44336" style="fill:#F44336;fill:color(display-p3 0.9569 0.2627 0.2118);fill-opacity:1;"/>
<path d="M96.63 30.34L97.63 20.74C97.7 20.21 97.78 19.29 98.63 19.46C99.3 19.6 99.37 21.05 99.37 21.05L100.67 29.19C101.15 32.28 100.51 33.19 99.35 33.55C98 34 96.35 33.09 96.63 30.34Z" fill="#FF847A" style="fill:#FF847A;fill:color(display-p3 1.0000 0.5176 0.4784);fill-opacity:1;"/>
<path d="M105.65 46L115.12 41.31C115.59 41.05 116.43 40.66 115.98 39.93C115.61 39.36 114.22 39.79 114.22 39.79L106.51 41.12C104.23 41.42 102.59 42.22 102.18 43.57C101.65 45.31 103 47.06 105.65 46Z" fill="#C62828" style="fill:#C62828;fill:color(display-p3 0.7765 0.1569 0.1569);fill-opacity:1;"/>
<path d="M32.5 14.5L40.5 26.24C41.12 27.14 42.17 27.63 43.26 27.53L57.18 26.16C58.24 26.13 59.13 26.96 59.16 28.02C59.17 28.43 59.06 28.83 58.83 29.16L50.2 39.79C49.5 40.65 49.33 41.82 49.76 42.84L55.41 56.29C55.78 57.28 55.28 58.39 54.29 58.76C53.89 58.91 53.46 58.92 53.05 58.8L39.78 54.07C38.75 53.7 37.6 53.91 36.78 54.63L26.2 63.88C25.38 64.54 24.18 64.41 23.51 63.59C23.24 63.26 23.09 62.84 23.09 62.42L23.42 47.83C23.45 46.72 22.86 45.7 21.9 45.15L10 38.45C9.10002 37.91 8.80002 36.73 9.35002 35.83C9.58002 35.44 9.95002 35.14 10.38 35L23.83 31.18C24.87 30.89 25.67 30.05 25.93 29L29.12 15.13C29.41 14.11 30.47 13.52 31.49 13.81C31.89 13.92 32.25 14.17 32.5 14.5Z" fill="#F44336" style="fill:#F44336;fill:color(display-p3 0.9569 0.2627 0.2118);fill-opacity:1;"/>
<path d="M34.66 28.15L31.92 18.89C31.79 18.37 31.51 17.49 32.35 17.33C33.02 17.2 33.65 18.52 33.65 18.52L37.93 25.52C39.56 28.2 39.3 29.27 38.37 30.05C37.44 30.83 35.44 30.8 34.66 28.15Z" fill="#FF847A" style="fill:#FF847A;fill:color(display-p3 1.0000 0.5176 0.4784);fill-opacity:1;"/>
<path d="M48.9401 39.16L55.9401 31.22C56.2801 30.81 56.9401 30.13 56.2001 29.63C55.6501 29.23 54.5301 30.16 54.5301 30.16L47.9001 34.32C45.9001 35.46 44.6901 36.82 44.8301 38.23C45.0001 40.09 46.9001 41.19 48.9401 39.16Z" fill="#C62828" style="fill:#C62828;fill:color(display-p3 0.7765 0.1569 0.1569);fill-opacity:1;"/>
<path d="M102.07 71.62C100.67 69.09 97.63 67.98 94.93 69C84.67 71.99 74.03 73.48 63.34 73.43C52.65 73.48 42.01 71.99 31.75 69C29.06 67.98 26.02 69.08 24.62 71.6C23.26 74.11 24.24 77.02 25.39 79.53C31.81 93.63 45.96 102.07 63.26 102.12H63.42C80.72 102.12 94.87 93.63 101.3 79.53C102.44 77 103.43 74.13 102.07 71.62Z" fill="#42312C" style="fill:#42312C;fill:color(display-p3 0.2588 0.1922 0.1725);fill-opacity:1;"/>
<path d="M102.07 71.62C100.67 69.09 97.63 67.98 94.93 69C84.67 71.99 74.03 73.48 63.34 73.43C52.65 73.48 42.01 71.99 31.75 69C29.06 67.98 26.02 69.08 24.62 71.6C23.26 74.11 24.24 77.02 25.39 79.53C31.81 93.63 45.96 102.07 63.26 102.12H63.42C80.72 102.12 94.87 93.63 101.3 79.53C102.44 77 103.43 74.13 102.07 71.62Z" fill="#42312C" style="fill:#42312C;fill:color(display-p3 0.2588 0.1922 0.1725);fill-opacity:1;"/>
<path d="M79.35 98.14C78.98 97.8 78.6 97.49 78.22 97.14C74.14 93.55 68.86 91.62 63.42 91.73C57.82 91.64 52.37 93.5 48 97C47.62 97.31 47.22 97.61 46.85 98C46.48 98.39 46.28 98.67 46.04 99C51.54 101.15 57.4 102.25 63.31 102.22H63.47C69.13 102.22 74.74 101.21 80.04 99.22C79.84 98.84 79.61 98.48 79.35 98.14Z" fill="#ED7770" style="fill:#ED7770;fill:color(display-p3 0.9294 0.4667 0.4392);fill-opacity:1;"/>
<path d="M94.93 69C84.67 71.99 74.03 73.48 63.34 73.43C52.65 73.48 42.01 71.99 31.75 69C29.06 67.98 26.02 69.08 24.62 71.6C24.42 71.98 24.26 72.38 24.16 72.79C24.49 72.96 24.87 73.13 25.32 73.31C37.36 79.34 50.67 82.4 64.13 82.24C77.04 82.39 89.8 79.58 101.46 74.04C101.93 73.84 102.32 73.65 102.67 73.47C102.59 72.82 102.38 72.18 102.07 71.6C100.67 69.08 97.63 67.97 94.93 69Z" fill="white" style="fill:white;fill-opacity:1;"/>
<path d="M102.11 71.63C100.69 69.1 97.64 67.98 94.92 69C84.66 71.99 74.02 73.48 63.34 73.43C52.65 73.48 42.01 71.99 31.75 69C29.06 67.98 26.02 69.08 24.62 71.6C23.26 74.11 24.24 77.02 25.39 79.53C25.9 80.66 26.47 81.77 27.1 82.84C27.1 82.84 25 75.06 26.82 72.8C27.44 71.84 28.48 71.24 29.62 71.18C30.09 71.18 30.55 71.26 31 71.4C41.44 74.47 52.27 76.02 63.16 76H63.51C74.4 76.02 85.23 74.47 95.67 71.4C96.12 71.26 96.58 71.18 97.05 71.18C98.19 71.24 99.24 71.84 99.86 72.8C101.71 75.06 99.58 82.87 99.58 82.87C100.2 81.8 100.82 80.7 101.34 79.56C102.48 77.05 103.47 74.15 102.11 71.63Z" fill="#EB8F00" style="fill:#EB8F00;fill:color(display-p3 0.9216 0.5608 0.0000);fill-opacity:1;"/>
<path d="M102.11 71.63C100.69 69.1 97.64 67.98 94.92 69C84.66 71.99 74.02 73.48 63.34 73.43C52.65 73.48 42.01 71.99 31.75 69C29.06 67.98 26.02 69.08 24.62 71.6C23.26 74.11 24.24 77.02 25.39 79.53C25.9 80.66 26.47 81.77 27.1 82.84C27.1 82.84 25 75.06 26.82 72.8C27.44 71.84 28.48 71.24 29.62 71.18C30.09 71.18 30.55 71.26 31 71.4C41.44 74.47 52.27 76.02 63.16 76H63.51C74.4 76.02 85.23 74.47 95.67 71.4C96.12 71.26 96.58 71.18 97.05 71.18C98.19 71.24 99.24 71.84 99.86 72.8C101.71 75.06 99.58 82.87 99.58 82.87C100.2 81.8 100.82 80.7 101.34 79.56C102.48 77.05 103.47 74.15 102.11 71.63Z" fill="#4A2F27" style="fill:#4A2F27;fill:color(display-p3 0.2902 0.1843 0.1529);fill-opacity:1;"/>
<defs>
<radialGradient id="paint0_radial_169_10283" cx="0" cy="0" r="1" gradientUnits="userSpaceOnUse" gradientTransform="translate(63.6 62.9) scale(56.9597 56.9597)">
<stop offset="0.5" stop-color="#FDE030" style="stop-color:#FDE030;stop-color:color(display-p3 0.9922 0.8784 0.1882);stop-opacity:1;"/>
<stop offset="0.92" stop-color="#F7C02B" style="stop-color:#F7C02B;stop-color:color(display-p3 0.9686 0.7529 0.1686);stop-opacity:1;"/>
<stop offset="1" stop-color="#F4A223" style="stop-color:#F4A223;stop-color:color(display-p3 0.9569 0.6353 0.1373);stop-opacity:1;"/>
</radialGradient>
<radialGradient id="paint1_radial_169_10283" cx="0" cy="0" r="1" gradientUnits="userSpaceOnUse" gradientTransform="translate(38.599 34.5377) rotate(-43.2082) scale(102.024 101.825)">
<stop offset="0.3533" stop-color="#F9DDBD" style="stop-color:#F9DDBD;stop-color:color(display-p3 0.9765 0.8667 0.7412);stop-opacity:1;"/>
<stop offset="0.8723" stop-color="#FFD29C" style="stop-color:#FFD29C;stop-color:color(display-p3 1.0000 0.8235 0.6118);stop-opacity:1;"/>
</radialGradient>
<radialGradient id="paint2_radial_169_10283" cx="0" cy="0" r="1" gradientUnits="userSpaceOnUse" gradientTransform="translate(38.599 34.5377) rotate(-43.2082) scale(102.024 101.825)">
<stop offset="0.3533" stop-color="#70534A" style="stop-color:#70534A;stop-color:color(display-p3 0.4392 0.3255 0.2902);stop-opacity:1;"/>
<stop offset="0.8723" stop-color="#5C4037" style="stop-color:#5C4037;stop-color:color(display-p3 0.3608 0.2510 0.2157);stop-opacity:1;"/>
</radialGradient>
<radialGradient id="paint3_radial_169_10283" cx="0" cy="0" r="1" gradientUnits="userSpaceOnUse" gradientTransform="translate(38.599 34.5377) rotate(-43.2082) scale(102.024 101.825)">
<stop offset="0.3533" stop-color="#A56C43" style="stop-color:#A56C43;stop-color:color(display-p3 0.6471 0.4235 0.2627);stop-opacity:1;"/>
<stop offset="0.8723" stop-color="#8D5738" style="stop-color:#8D5738;stop-color:color(display-p3 0.5529 0.3412 0.2196);stop-opacity:1;"/>
</radialGradient>
<radialGradient id="paint4_radial_169_10283" cx="0" cy="0" r="1" gradientUnits="userSpaceOnUse" gradientTransform="translate(94.5202 40.3479) scale(23.9109 23.9109)">
<stop offset="0.2" stop-color="#FF4081" style="stop-color:#FF4081;stop-color:color(display-p3 1.0000 0.2510 0.5059);stop-opacity:1;"/>
<stop offset="0.88" stop-color="#CC1775" style="stop-color:#CC1775;stop-color:color(display-p3 0.8000 0.0902 0.4588);stop-opacity:1;"/>
</radialGradient>
</defs>
</svg>
