<svg width="128" height="129" viewBox="0 0 128 129" fill="none" xmlns="http://www.w3.org/2000/svg">
<path d="M23.9902 20.4657C23.9902 20.4657 24.9602 13.8757 26.2202 11.2357C27.4802 8.59569 29.4602 5.81569 33.2602 5.07569C37.7902 4.19569 90.3102 4.65569 93.9502 4.88569C97.6202 5.12569 100.03 6.27569 101.41 8.53569C102.46 10.2657 102.83 12.3757 103.32 15.5057C103.58 17.1557 104.12 21.6757 104.12 21.6757L23.9902 20.4657Z" fill="#FFA828" style="fill:#FFA828;fill:color(display-p3 1.0000 0.6588 0.1569);fill-opacity:1;"/>
<path d="M50.6302 38.3156L22.4702 33.6356C22.4702 33.6356 23.0602 21.9856 24.2802 18.9356C25.5002 15.8856 27.0102 14.0656 31.4402 13.3056C35.8702 12.5456 46.9702 12.8556 63.6202 12.7056C80.2702 12.5556 94.9302 13.5656 97.5302 13.7156C100.13 13.8656 102.57 15.1456 103.33 17.5856C104.09 20.0256 104.46 23.3256 105.01 29.1956C105.21 31.3256 105.03 35.3556 105.03 35.3556L72.7602 37.5556L50.6302 38.3156Z" fill="#F1EDEC" style="fill:#F1EDEC;fill:color(display-p3 0.9451 0.9294 0.9255);fill-opacity:1;"/>
<path d="M22.2302 36.6857C22.4202 33.6357 22.4802 30.3357 24.8002 28.3657C26.7902 26.6857 30.1502 26.9957 34.1202 26.8357C37.7902 26.6957 47.1002 26.7757 64.6702 26.7757C82.2402 26.7757 97.0302 27.0357 99.7802 27.0357C102.53 27.0357 104.87 29.1857 105.17 31.1757C105.48 33.1657 104.1 117.326 103.95 119.156C103.8 120.986 103.19 124.656 99.2102 124.956C95.2402 125.266 32.7702 125.266 30.1702 124.956C27.5702 124.646 25.2802 122.356 24.8202 118.086C24.3602 113.816 22.0702 39.1257 22.2302 36.6857Z" fill="#D8CDC9" style="fill:#D8CDC9;fill:color(display-p3 0.8471 0.8039 0.7882);fill-opacity:1;"/>
<path d="M29.61 51.0259C31.91 51.3259 33.82 41.4159 36.82 39.1059C39.82 36.8059 45.43 35.5959 45.43 33.2959C45.43 32.1459 41.79 32.1559 38.42 32.1959C35.05 32.2359 32.15 31.9559 30.51 33.6959C28.71 35.5959 28.53 38.6459 28.41 41.7059C28.2 46.6159 28.19 50.8359 29.61 51.0259Z" fill="#F1EDEC" style="fill:#F1EDEC;fill:color(display-p3 0.9451 0.9294 0.9255);fill-opacity:1;"/>
<path d="M79.3398 118.656C79.3398 120.336 80.5698 120.886 87.2198 120.656C92.8398 120.466 95.6198 119.756 97.2898 117.746C98.9598 115.746 99.4198 111.546 99.4898 106.506C99.5298 103.016 99.4398 99.6562 97.6798 99.6562C95.1598 99.6562 95.1699 105.406 93.1599 108.636C89.2199 114.976 79.3398 116.416 79.3398 118.656Z" fill="#F1EDEC" style="fill:#F1EDEC;fill:color(display-p3 0.9451 0.9294 0.9255);fill-opacity:1;"/>
<path d="M47.3946 72.8682L40.9821 71.2196C38.8084 70.6607 37.1302 69.6351 35.8335 68.1682L35.8335 68.1682C34.589 66.7603 34 65.2014 34 63.3644C34 61.1193 34.8629 59.2669 36.8452 57.6375L36.8633 57.6227L36.8812 57.6075C38.925 55.8734 41.383 54.9768 44.4216 54.9768L47.3946 72.8682ZM47.3946 72.8682C47.7091 69.7536 49.2028 67.0822 51.6952 64.9598C53.0389 63.7817 54.5298 62.897 56.1456 62.2933M47.3946 72.8682L56.1456 62.2933M74.6464 80.5957L80.2838 82.0905C81.3254 82.3667 82.4609 82.5126 83.7015 82.5126C86.6564 82.5126 89.0852 81.6507 91.1366 79.9713C93.1363 78.2678 93.9999 76.3687 94 74.1252L74.6464 80.5957ZM74.6464 80.5957C75.9195 78.6999 76.6044 76.5318 76.6045 74.1252V74.125C76.6044 71.7452 75.934 69.6075 74.6813 67.7496L80.2838 66.2642C81.3254 65.988 82.4608 65.842 83.7015 65.842L74.6464 80.5957ZM73.2885 66.0386L77.233 61.4168C78.5379 59.8879 79.1007 58.3362 79.1008 56.6781L73.2885 66.0386ZM73.2885 66.0386C72.92 65.6578 72.5228 65.2921 72.0979 64.942C69.2784 62.4792 65.8131 61.3046 61.9067 61.3046H61.9067C60.6417 61.3046 59.423 61.4278 58.2575 61.678L58.2575 56.6781C58.2574 54.433 59.1203 52.5806 61.1027 50.9513L61.1208 50.9364L61.1386 50.9212C63.1825 49.1872 65.6404 48.2906 68.6791 48.2905L73.2885 66.0386ZM56.1456 62.2933L52.9878 58.6399C50.904 56.229 48.1535 54.9768 44.4217 54.9768L56.1456 62.2933ZM91.1185 68.4729L91.0832 68.442C89.1373 66.7378 86.7405 65.842 83.7015 65.842L91.1185 68.4729ZM91.1185 68.4729L91.1547 68.5027M91.1185 68.4729L91.1547 68.5027M91.1547 68.5027C93.1553 70.1471 93.9999 71.9717 94 74.125L91.1547 68.5027ZM76.2016 50.906L76.1839 50.8905C74.2507 49.1974 71.8187 48.2906 68.6791 48.2905L76.2016 50.906ZM76.2016 50.906L76.2195 50.9212M76.2016 50.906L76.2195 50.9212M76.2195 50.9212C78.2497 52.6438 79.1007 54.519 79.1008 56.678L76.2195 50.9212ZM77.233 86.9378C78.5379 88.4667 79.1007 90.0185 79.1008 91.6765V91.6766C79.1007 93.9217 78.2377 95.7741 76.2555 97.4034L76.2374 97.4183L76.2196 97.4334C74.1756 99.1675 71.7176 100.064 68.6791 100.064C65.5498 100.064 63.0615 99.1622 61.0335 97.4487C59.0935 95.7427 58.2574 93.865 58.2575 91.6766L58.2575 86.6764C59.4269 86.9263 60.6452 87.05 61.9067 87.05C65.8224 87.05 69.295 85.8699 72.1181 83.3949C72.5302 83.0441 72.9163 82.6792 73.2754 82.3007L77.233 86.9378ZM56.1415 86.0661L52.9878 89.7148C50.904 92.1256 48.1534 93.3778 44.4216 93.3778C41.2923 93.3778 38.804 92.4759 36.776 90.7623C34.836 89.0564 34 87.1787 34 84.9903C34 83.1532 34.589 81.5943 35.8335 80.1864C37.1453 78.7025 38.8489 77.6348 41.0515 77.0119L47.3777 75.2227C47.6503 78.4585 49.1376 81.249 51.675 83.4816L51.7154 83.5171L51.757 83.5511C53.102 84.6515 54.5688 85.4876 56.1415 86.0661Z" stroke="#ED4337" style="stroke:#ED4337;stroke:color(display-p3 0.9294 0.2627 0.2157);stroke-opacity:1;" stroke-width="6"/>
<path d="M90.5246 67.7595L90.5069 67.744C88.3986 65.8975 85.8084 64.9524 82.6408 64.9524C81.3612 64.9524 80.1709 65.1031 79.0641 65.3966L74.4191 66.6281L77.5387 62.9729C78.9603 61.3073 79.6262 59.537 79.6263 57.6204L90.5246 67.7595ZM90.5246 67.7595L90.5427 67.7743M90.5246 67.7595L90.5427 67.7743M90.5427 67.7743C92.715 69.5599 93.7233 71.653 93.7233 74.128L90.5427 67.7743ZM60.3193 97.2096C58.2137 95.362 57.2282 93.2269 57.2283 90.7345L57.2283 86.7052L54.5934 89.7536C52.3429 92.3574 49.3561 93.6827 45.4759 93.6827C42.2263 93.6827 39.5539 92.7345 37.3679 90.8834C35.2623 89.0357 34.2768 86.9006 34.2769 84.4082C34.2768 82.34 34.9559 80.5506 36.3473 78.9766L35.2235 77.9831L36.3473 78.9765C37.7723 77.3645 39.613 76.2247 41.9229 75.5714L47.2704 74.059L41.8882 72.6753C39.5927 72.0851 37.7648 70.9819 36.3473 69.3783L36.3473 69.3783C34.9559 67.8043 34.2768 66.015 34.2769 63.9467C34.2768 61.3947 35.2943 59.2722 37.4575 57.4942L37.4665 57.4867L37.4754 57.4792C39.6694 55.6177 42.3084 54.6723 45.4758 54.6722L60.3193 97.2096ZM60.3193 97.2096C62.5053 99.0607 65.1776 100.009 68.4273 100.009C71.5946 100.009 74.2337 99.0635 76.4277 97.202L76.4366 97.1944L76.4456 97.187C78.6087 95.409 79.6262 93.2865 79.6263 90.7345L60.3193 97.2096ZM57.2283 61.6497L54.5934 58.6013C52.3429 55.9975 49.3561 54.6723 45.4759 54.6722L57.2283 61.6497ZM57.2283 61.6497L57.2283 57.6204M57.2283 61.6497L57.2283 57.6204M57.2283 57.6204C57.2282 55.0684 58.2457 52.9459 60.4089 51.1679L60.4179 51.1604M57.2283 57.6204L60.4179 51.1604M60.4179 51.1604L60.4269 51.1529M60.4179 51.1604L60.4269 51.1529M60.4269 51.1529C62.6208 49.2915 65.2598 48.346 68.4273 48.3459C71.6818 48.346 74.3078 49.2966 76.4099 51.1375L76.4187 51.1453M60.4269 51.1529L76.4187 51.1453M76.4187 51.1453L76.4277 51.1529M76.4187 51.1453L76.4277 51.1529M76.4277 51.1529C78.6147 53.0085 79.6262 55.1425 79.6263 57.6204L76.4277 51.1529ZM53.2639 82.0106L53.243 81.9936L53.2229 81.9758C50.824 79.8652 49.5681 77.2234 49.5681 74.128L53.2639 82.0106ZM53.2639 82.0106C55.7282 84.0269 58.6731 85.0186 62.0195 85.0186C65.4422 85.0186 68.4054 83.9936 70.8059 81.886M53.2639 82.0106L70.8059 81.886M70.8059 81.886C73.2685 79.7925 74.5874 77.1861 74.5875 74.1281V74.128C74.5874 71.0709 73.2685 68.4914 70.7959 66.4601C68.3972 64.3585 65.4374 63.3363 62.0195 63.3363C58.5967 63.3363 55.6334 64.3614 53.233 66.469C50.8334 68.5092 49.5681 71.0878 49.5681 74.128L70.8059 81.886ZM77.5387 85.382C78.9603 87.0476 79.6262 88.8179 79.6263 90.7345L93.7233 74.1281C93.7233 76.6791 92.7056 78.8405 90.5335 80.6869C88.3358 82.4898 85.7298 83.4025 82.6408 83.4025C81.3612 83.4025 80.1709 83.2518 79.0641 82.9583L74.4191 81.7267L77.5387 85.382Z" stroke="#DF0B26" style="stroke:#DF0B26;stroke:color(display-p3 0.8745 0.0431 0.1490);stroke-opacity:1;" stroke-width="3"/>
</svg>
