<svg width="128" height="128" viewBox="0 0 128 128" fill="none" xmlns="http://www.w3.org/2000/svg">
<path d="M70.24 100.79L118.79 105.41C123.36 105.85 124.53 103.3 124.53 101.14L124.48 98.5201L64.77 90.1001C64.77 93.0901 67.2 100.79 70.24 100.79Z" fill="#00639A" style="fill:#00639A;fill:color(display-p3 0.0000 0.3897 0.6042);fill-opacity:1;"/>
<path d="M72.01 98.5102L79.65 99.1802L120.56 103.13C122.76 103.13 124.53 101.38 124.53 99.2202L122.36 32.9602C122.36 30.8002 120.58 29.0502 118.39 29.0502L72.01 24.6702C68.97 24.6702 66.5 27.1002 66.5 30.0902V93.0902C66.5 96.0802 68.96 98.5102 72.01 98.5102Z" fill="#0081C8" style="fill:#0081C8;fill:color(display-p3 0.0000 0.5059 0.7843);fill-opacity:1;"/>
<path d="M57.76 100.79L9.20997 105.41C4.63997 105.85 3.46997 103.3 3.46997 101.14L3.51997 98.5201L63.23 90.0901C63.23 93.0901 60.8 100.79 57.76 100.79Z" fill="#00639A" style="fill:#00639A;fill:color(display-p3 0.0000 0.3897 0.6042);fill-opacity:1;"/>
<path d="M55.99 98.5102L48.41 99.1802L7.43997 103.14C5.23997 103.14 3.46997 101.39 3.46997 99.2302L5.63997 32.9702C5.63997 30.8102 7.41997 29.0602 9.60997 29.0602L55.99 24.6802C59.03 24.6802 61.5 27.1102 61.5 30.1002V93.1002C61.5 96.0802 59.04 98.5102 55.99 98.5102Z" fill="#0081C8" style="fill:#0081C8;fill:color(display-p3 0.0000 0.5059 0.7843);fill-opacity:1;"/>
<path d="M78.7499 83.6802H49.2699L48.3699 99.2102L57.5699 100.07C57.5699 100.07 59.5399 104.99 63.9999 104.99C68.4599 104.99 70.4299 100.07 70.4299 100.07L79.6299 99.2102L78.7499 83.6802Z" fill="#424242" style="fill:#424242;fill:color(display-p3 0.2588 0.2588 0.2588);fill-opacity:1;"/>
<path d="M79.54 100.43L70.97 99.6899" stroke="#616161" style="stroke:#616161;stroke:color(display-p3 0.3804 0.3804 0.3804);stroke-opacity:1;" stroke-width="2.5" stroke-miterlimit="10"/>
<path d="M48.46 100.43L57.03 99.6899" stroke="#616161" style="stroke:#616161;stroke:color(display-p3 0.3804 0.3804 0.3804);stroke-opacity:1;" stroke-width="2.5" stroke-miterlimit="10"/>
<path d="M119.65 32.8201L115.65 27.3201L64 86.0201L12.35 27.3201L8.35004 32.8201L7.79004 98.1701C7.79004 98.1701 18.41 99.5001 32.6 98.0601C44.96 96.8101 50.78 93.6101 54.91 94.4401C59.87 95.4401 60.77 98.4901 60.93 99.0101C61.38 100.45 62.27 101.57 64 101.57C65.73 101.57 66.5 100.97 67.03 99.1901C67.19 98.6701 68.13 95.4501 73.09 94.4501C77.22 93.6201 83.04 96.8201 95.4 98.0701C109.59 99.5101 120.21 98.1801 120.21 98.1801L119.65 32.8201Z" fill="#94C6D6" style="fill:#94C6D6;fill:color(display-p3 0.5804 0.7765 0.8392);fill-opacity:1;"/>
<path d="M114.3 91.87L114.46 65.48H119.93L120.21 98.17C120.21 98.17 115.86 96.48 114.3 91.87Z" fill="url(#paint0_linear_2017_21)" style=""/>
<path d="M114.55 76.49L114.3 91.88C114.3 91.88 102.34 91.26 83.2899 87.96C70.8299 85.8 63.9999 92.72 63.9999 92.72L63.8899 76.49H114.55Z" fill="url(#paint1_linear_2017_21)" style=""/>
<path d="M13.45 76.49L13.7 91.88C13.7 91.88 25.66 91.26 44.7099 87.96C57.1699 85.8 64 92.72 64 92.72L63.8899 76.49H13.45Z" fill="url(#paint2_linear_2017_21)" style=""/>
<path d="M13.7 91.87L13.54 65.48H8.06004L7.79004 98.17C7.79004 98.17 12.13 96.48 13.7 91.87Z" fill="url(#paint3_linear_2017_21)" style=""/>
<path d="M115.65 27.3201C115.65 27.3201 89.1099 22.3301 77.4599 21.6801C66.4999 21.0701 64.2499 26.6501 64.0299 27.3201H63.9899C63.7599 26.6501 61.5099 21.0801 50.5499 21.6801C38.8999 22.3301 12.3599 27.3201 12.3599 27.3201L11.1799 91.7201C11.1799 91.7201 42.7799 85.1001 50.4299 85.9601C58.0799 86.8201 63.9999 92.7201 63.9999 92.7201V92.7101V92.7201C63.9999 92.7201 69.9299 86.8201 77.5799 85.9601C85.2299 85.1001 116.83 91.7201 116.83 91.7201L115.65 27.3201Z" fill="#F5F5F5" style="fill:#F5F5F5;fill:color(display-p3 0.9608 0.9608 0.9608);fill-opacity:1;"/>
<path opacity="0.26" d="M53.62 21.6899L48.22 85.8899C49.07 85.8699 49.82 85.8899 50.42 85.9599C58.06 86.8099 64 92.7199 64 92.7199L63.83 27.3199C63.83 27.3199 62.53 22.1999 53.62 21.6899Z" fill="#94C6D6" style="fill:#94C6D6;fill:color(display-p3 0.5804 0.7765 0.8392);fill-opacity:1;"/>
<g opacity="0.5">
<path d="M25.3099 30.1799C22.6099 30.6499 20.3999 31.0499 19.1399 31.2699C19.1399 31.8899 19.1399 32.5699 19.1299 33.2999C20.2399 33.0999 22.4999 32.6899 25.3099 32.1999V30.1799Z" fill="#757575" style="fill:#757575;fill:color(display-p3 0.4588 0.4588 0.4588);fill-opacity:1;"/>
<path d="M49.6499 26.96V28.95C54.9799 28.94 57.9299 30.28 58.8999 30.82C58.8999 29.99 58.9099 29.25 58.9099 28.6C57.2599 27.86 54.2399 26.95 49.6499 26.96Z" fill="#757575" style="fill:#757575;fill:color(display-p3 0.4588 0.4588 0.4588);fill-opacity:1;"/>
<path d="M45.3099 27.21C40.9799 27.65 34.9499 28.57 29.6499 29.45V31.48C34.9099 30.61 40.9499 29.68 45.3099 29.22V27.21Z" fill="#757575" style="fill:#757575;fill:color(display-p3 0.4588 0.4588 0.4588);fill-opacity:1;"/>
<path d="M34.6599 35.8401C28.1999 36.8401 21.7199 38.0001 19.1199 38.4701C19.1199 39.1301 19.1199 39.8101 19.1199 40.5001C21.3799 40.0901 28.0099 38.8901 34.6599 37.8601V35.8401Z" fill="#757575" style="fill:#757575;fill:color(display-p3 0.4588 0.4588 0.4588);fill-opacity:1;"/>
<path d="M46.6898 34.28C44.5798 34.45 41.8898 34.79 38.9998 35.19V37.21C41.9498 36.79 44.7098 36.45 46.8498 36.27C54.0298 35.68 57.8198 37.44 58.8798 38.04C58.8798 37.27 58.8798 36.53 58.8798 35.81C56.9198 34.94 52.9898 33.76 46.6898 34.28Z" fill="#757575" style="fill:#757575;fill:color(display-p3 0.4588 0.4588 0.4588);fill-opacity:1;"/>
<path d="M26.3799 44.3899C23.2199 44.9299 20.5799 45.3999 19.1199 45.6699C19.1199 46.3399 19.1199 47.0199 19.1199 47.6999C20.4299 47.4599 23.1099 46.9799 26.3799 46.4199V44.3899Z" fill="#757575" style="fill:#757575;fill:color(display-p3 0.4588 0.4588 0.4588);fill-opacity:1;"/>
<path d="M58.88 43.04C56.93 42.16 52.99 40.96 46.63 41.49C42.56 41.82 36.33 42.75 30.72 43.67V45.7C36.38 44.77 42.7 43.83 46.8 43.49C54.1 42.89 57.9 44.72 58.88 45.29C58.88 44.52 58.88 43.78 58.88 43.04Z" fill="#757575" style="fill:#757575;fill:color(display-p3 0.4588 0.4588 0.4588);fill-opacity:1;"/>
<path d="M58.89 50.2701C56.96 49.3901 53 48.1601 46.59 48.6901C45.94 48.7401 45.24 48.8101 44.5 48.8901V50.9001C45.31 50.8101 46.06 50.7401 46.76 50.6801C54.2 50.0701 58 51.9801 58.9 52.5201C58.89 51.7701 58.89 51.0201 58.89 50.2701Z" fill="#757575" style="fill:#757575;fill:color(display-p3 0.4588 0.4588 0.4588);fill-opacity:1;"/>
<path d="M40.1499 49.4302C32.3299 50.5002 22.5899 52.2302 19.1299 52.8602C19.1299 53.5402 19.1299 54.2102 19.1299 54.8902C22.1799 54.3302 32.1499 52.5402 40.1499 51.4402V49.4302Z" fill="#757575" style="fill:#757575;fill:color(display-p3 0.4588 0.4588 0.4588);fill-opacity:1;"/>
<path d="M28.2499 58.47C24.3199 59.13 20.9199 59.74 19.1299 60.06C19.1299 60.74 19.1299 61.42 19.1299 62.09C20.7499 61.79 24.1999 61.17 28.2499 60.49V58.47Z" fill="#757575" style="fill:#757575;fill:color(display-p3 0.4588 0.4588 0.4588);fill-opacity:1;"/>
<path d="M58.8999 57.5101C56.9899 56.6301 53.0099 55.3701 46.5399 55.9001C42.9399 56.2001 37.6599 56.9501 32.5999 57.7601V59.7801C37.7099 58.9601 43.0799 58.1901 46.6999 57.8901C54.3299 57.2601 58.1399 59.3001 58.8999 59.7601C58.8999 59.0101 58.8999 58.2601 58.8999 57.5101Z" fill="#757575" style="fill:#757575;fill:color(display-p3 0.4588 0.4588 0.4588);fill-opacity:1;"/>
<path d="M58.9199 71.9802C57.0999 71.1102 53.1599 69.8002 46.6599 70.2902V72.3002C54.9499 71.6302 58.7099 74.1102 58.9199 74.2602C58.9199 73.5202 58.9199 72.7602 58.9199 71.9802Z" fill="#757575" style="fill:#757575;fill:color(display-p3 0.4588 0.4588 0.4588);fill-opacity:1;"/>
<path d="M26.3799 73.1799C23.2999 73.7099 20.6799 74.1699 19.1499 74.4499C19.1499 75.1499 19.1499 75.8199 19.1499 76.4799C20.5599 76.2199 23.1999 75.7499 26.3799 75.1999V73.1799Z" fill="#757575" style="fill:#757575;fill:color(display-p3 0.4588 0.4588 0.4588);fill-opacity:1;"/>
<path d="M30.72 72.46V74.49C34.6 73.86 38.77 73.22 42.32 72.77V70.75C38.79 71.19 34.62 71.82 30.72 72.46Z" fill="#757575" style="fill:#757575;fill:color(display-p3 0.4588 0.4588 0.4588);fill-opacity:1;"/>
<path d="M37.6699 78.5801C30.5099 79.6201 22.4599 81.0501 19.1599 81.6501C19.1599 82.3901 19.1599 83.0701 19.1599 83.6801C22.1499 83.1301 30.3499 81.6701 37.6699 80.6001V78.5801Z" fill="#757575" style="fill:#757575;fill:color(display-p3 0.4588 0.4588 0.4588);fill-opacity:1;"/>
<path d="M58.93 79.22C57.12 78.34 53.09 76.97 46.37 77.52C45.1 77.62 43.62 77.79 42.01 77.99V80C43.68 79.79 45.22 79.62 46.53 79.51C55.09 78.8 58.85 81.46 58.89 81.48L58.94 81.42C58.94 80.73 58.94 80 58.93 79.22Z" fill="#757575" style="fill:#757575;fill:color(display-p3 0.4588 0.4588 0.4588);fill-opacity:1;"/>
<path d="M36.1799 64.4001C29.3599 65.4201 22.1299 66.7101 19.1399 67.2601C19.1399 67.9501 19.1399 68.6201 19.1399 69.2901C21.8199 68.8001 29.1899 67.4801 36.1799 66.4201V64.4001Z" fill="#757575" style="fill:#757575;fill:color(display-p3 0.4588 0.4588 0.4588);fill-opacity:1;"/>
<path d="M58.9098 64.7401C57.0298 63.8601 53.0398 62.5601 46.4798 63.1001C44.7998 63.2401 42.7498 63.4801 40.5298 63.7801V65.8001C42.8198 65.4901 44.9298 65.2401 46.6498 65.1001C54.5298 64.4501 58.3398 66.6401 58.9198 67.0101C58.9098 66.2701 58.9098 65.5101 58.9098 64.7401Z" fill="#757575" style="fill:#757575;fill:color(display-p3 0.4588 0.4588 0.4588);fill-opacity:1;"/>
</g>
<g opacity="0.5">
<path d="M88.4099 29.7102C96.6899 30.8102 107.51 32.7702 110.45 33.3002C110.45 32.5602 110.45 31.8902 110.44 31.2702C107 30.6402 96.4699 28.7602 88.3999 27.6902V29.7102H88.4099Z" fill="#757575" style="fill:#757575;fill:color(display-p3 0.4588 0.4588 0.4588);fill-opacity:1;"/>
<path d="M84.0599 27.1901C83.6299 27.1501 83.2199 27.1101 82.8299 27.0801C76.5599 26.5601 72.6399 27.7301 70.6699 28.6001C70.6699 29.2501 70.6799 30.0001 70.6799 30.8201C71.7999 30.2001 75.5899 28.4901 82.6699 29.0701C83.1099 29.1101 83.5799 29.1501 84.0599 29.2001V27.1901Z" fill="#757575" style="fill:#757575;fill:color(display-p3 0.4588 0.4588 0.4588);fill-opacity:1;"/>
<path d="M102.36 39.0801C106.03 39.7101 109.07 40.2501 110.46 40.5101C110.46 39.8101 110.46 39.1401 110.46 38.4801C108.89 38.1901 105.91 37.6601 102.36 37.0601V39.0801Z" fill="#757575" style="fill:#757575;fill:color(display-p3 0.4588 0.4588 0.4588);fill-opacity:1;"/>
<path d="M98.0199 36.33C92.6099 35.46 86.7699 34.6 82.8899 34.28C76.5899 33.76 72.6599 34.94 70.6899 35.81C70.6899 36.53 70.6899 37.27 70.6899 38.04C71.7499 37.44 75.5399 35.68 82.7199 36.27C86.6299 36.59 92.5599 37.47 98.0099 38.35V36.33H98.0199Z" fill="#757575" style="fill:#757575;fill:color(display-p3 0.4588 0.4588 0.4588);fill-opacity:1;"/>
<path d="M97.1799 43.3901V45.4101C102.99 46.3401 108.4 47.3201 110.46 47.7001C110.46 47.0101 110.46 46.3401 110.46 45.6701C108.13 45.2501 102.82 44.3001 97.1799 43.3901Z" fill="#757575" style="fill:#757575;fill:color(display-p3 0.4588 0.4588 0.4588);fill-opacity:1;"/>
<path d="M88.3999 49.3001C86.3899 49.0401 84.5299 48.8201 82.9899 48.7001C76.5799 48.1701 72.6199 49.4001 70.6899 50.2801C70.6899 51.0301 70.6899 51.7801 70.6899 52.5301C71.5899 52.0001 75.3999 50.0801 82.8299 50.6901C84.4099 50.8201 86.3299 51.0401 88.3999 51.3201V49.3001Z" fill="#757575" style="fill:#757575;fill:color(display-p3 0.4588 0.4588 0.4588);fill-opacity:1;"/>
<path d="M92.75 49.9102V51.9302C100 53.0102 107.81 54.4202 110.45 54.9002C110.45 54.2202 110.45 53.5402 110.45 52.8702C107.47 52.3202 99.82 50.9602 92.75 49.9102Z" fill="#757575" style="fill:#757575;fill:color(display-p3 0.4588 0.4588 0.4588);fill-opacity:1;"/>
<path d="M93.6299 57.2401C89.6799 56.6401 85.8499 56.1301 83.0499 55.9001C76.5699 55.3701 72.5899 56.6301 70.6899 57.5101C70.6899 58.2601 70.6899 59.0201 70.6899 59.7701C71.4499 59.3001 75.2599 57.2701 82.8899 57.9001C85.7199 58.1301 89.6299 58.6601 93.6399 59.2701V57.2401H93.6299Z" fill="#757575" style="fill:#757575;fill:color(display-p3 0.4588 0.4588 0.4588);fill-opacity:1;"/>
<path d="M97.97 57.9202V59.9502C103.41 60.8302 108.39 61.7302 110.44 62.1002C110.44 61.4302 110.44 60.7502 110.44 60.0702C108.16 59.6502 103.26 58.7702 97.97 57.9202Z" fill="#757575" style="fill:#757575;fill:color(display-p3 0.4588 0.4588 0.4588);fill-opacity:1;"/>
<path d="M105.04 66.3V68.33C107.4 68.74 109.33 69.09 110.43 69.29C110.43 68.62 110.43 67.94 110.43 67.26C109.23 67.04 107.33 66.7 105.04 66.3Z" fill="#757575" style="fill:#757575;fill:color(display-p3 0.4588 0.4588 0.4588);fill-opacity:1;"/>
<path d="M89.2899 71.0101C86.9999 70.7001 84.8799 70.4501 83.1599 70.3101C76.5199 69.7601 72.5099 71.1001 70.6699 71.9801C70.6699 72.7601 70.6699 73.5201 70.6699 74.2601C70.8799 74.1101 74.6599 71.6101 83.0099 72.3001C84.7699 72.4401 86.9499 72.7001 89.3099 73.0201V71.0101H89.2899Z" fill="#757575" style="fill:#757575;fill:color(display-p3 0.4588 0.4588 0.4588);fill-opacity:1;"/>
<path d="M93.6299 71.6301V73.6501C100.51 74.6901 107.73 75.9901 110.43 76.4801C110.43 75.8201 110.43 75.1401 110.43 74.4501C107.43 73.9101 100.35 72.6501 93.6299 71.6301Z" fill="#757575" style="fill:#757575;fill:color(display-p3 0.4588 0.4588 0.4588);fill-opacity:1;"/>
<path d="M97.1799 79.3801C92.1099 78.5701 86.8099 77.8101 83.2099 77.5101C76.4799 76.9601 72.4599 78.3401 70.6499 79.2101C70.6499 79.9901 70.6499 80.7201 70.6499 81.4101L70.6999 81.4701C70.7299 81.4501 74.4899 78.7901 83.0599 79.5001C86.6899 79.8001 92.0799 80.5801 97.1999 81.4001V79.3801H97.1799Z" fill="#757575" style="fill:#757575;fill:color(display-p3 0.4588 0.4588 0.4588);fill-opacity:1;"/>
<path d="M101.53 80.1001V82.1301C105.42 82.7801 108.74 83.3801 110.42 83.6901C110.42 83.0801 110.42 82.4001 110.42 81.6601C108.59 81.3201 105.31 80.7301 101.53 80.1001Z" fill="#757575" style="fill:#757575;fill:color(display-p3 0.4588 0.4588 0.4588);fill-opacity:1;"/>
<path d="M82.9299 63.0901C76.4699 62.5801 72.5299 63.8701 70.6699 64.7401C70.6699 65.5001 70.6699 66.2601 70.6699 67.0101C71.2499 66.6401 75.0499 64.4501 82.9299 65.1001V63.0901Z" fill="#757575" style="fill:#757575;fill:color(display-p3 0.4588 0.4588 0.4588);fill-opacity:1;"/>
<path d="M87.28 63.55V65.56C91.4 66.08 96.35 66.8601 100.7 67.5801V65.5501C96.32 64.8301 91.37 64.06 87.28 63.55Z" fill="#757575" style="fill:#757575;fill:color(display-p3 0.4588 0.4588 0.4588);fill-opacity:1;"/>
<path d="M79.72 41.3701C75.24 41.4001 72.29 42.3201 70.7 43.0401C70.7 43.7801 70.7 44.5201 70.7 45.2801C71.54 44.8001 74.41 43.4101 79.72 43.3601V41.3701Z" fill="#757575" style="fill:#757575;fill:color(display-p3 0.4588 0.4588 0.4588);fill-opacity:1;"/>
<path d="M84.0601 41.5901V43.6001C86.5501 43.8501 89.6401 44.2701 92.8301 44.7401V42.7201C89.6301 42.2401 86.5501 41.8301 84.0601 41.5901Z" fill="#757575" style="fill:#757575;fill:color(display-p3 0.4588 0.4588 0.4588);fill-opacity:1;"/>
</g>
<path d="M71.1599 98.45C70.0399 98.35 69.0099 99.04 68.6499 100.11C68.1099 101.74 66.8499 103.87 63.9999 103.87C61.1199 103.87 59.8499 101.73 59.2999 100.1C58.9399 99.05 57.9299 98.37 56.8199 98.46L56.4299 98.49L56.4399 98.81C56.4399 102.98 59.8199 106.36 63.9899 106.36C68.1599 106.36 71.5399 102.98 71.5399 98.81C71.5399 98.71 71.5299 98.48 71.5299 98.48L71.1599 98.45Z" fill="#616161" style="fill:#616161;fill:color(display-p3 0.3804 0.3804 0.3804);fill-opacity:1;"/>
<defs>
<linearGradient id="paint0_linear_2017_21" x1="117.244" y1="88.2008" x2="117.491" y2="70.8982" gradientUnits="userSpaceOnUse">
<stop offset="0.2665" stop-color="#82AEC0" style="stop-color:#82AEC0;stop-color:color(display-p3 0.5098 0.6824 0.7529);stop-opacity:1;"/>
<stop offset="1" stop-color="#82AEC0" stop-opacity="0" style="stop-color:none;stop-opacity:0;"/>
</linearGradient>
<linearGradient id="paint1_linear_2017_21" x1="69.9169" y1="84.601" x2="112.729" y2="84.601" gradientUnits="userSpaceOnUse">
<stop stop-color="#2F7889" style="stop-color:#2F7889;stop-color:color(display-p3 0.1843 0.4706 0.5373);stop-opacity:1;"/>
<stop offset="1" stop-color="#82AEC0" style="stop-color:#82AEC0;stop-color:color(display-p3 0.5098 0.6824 0.7529);stop-opacity:1;"/>
</linearGradient>
<linearGradient id="paint2_linear_2017_21" x1="57.9793" y1="84.601" x2="15.2634" y2="84.601" gradientUnits="userSpaceOnUse">
<stop stop-color="#2F7889" style="stop-color:#2F7889;stop-color:color(display-p3 0.1843 0.4706 0.5373);stop-opacity:1;"/>
<stop offset="1" stop-color="#82AEC0" style="stop-color:#82AEC0;stop-color:color(display-p3 0.5098 0.6824 0.7529);stop-opacity:1;"/>
</linearGradient>
<linearGradient id="paint3_linear_2017_21" x1="10.7527" y1="88.2008" x2="10.5055" y2="70.8981" gradientUnits="userSpaceOnUse">
<stop offset="0.2665" stop-color="#82AEC0" style="stop-color:#82AEC0;stop-color:color(display-p3 0.5098 0.6824 0.7529);stop-opacity:1;"/>
<stop offset="1" stop-color="#82AEC0" stop-opacity="0" style="stop-color:none;stop-opacity:0;"/>
</linearGradient>
</defs>
</svg>
