<svg width="128" height="128" viewBox="0 0 128 128" fill="none" xmlns="http://www.w3.org/2000/svg">
<path d="M63.6001 118.8C35.7001 118.8 5.6001 101.3 5.6001 62.9C5.6001 24.5 35.7001 7 63.6001 7C79.1001 7 93.4001 12.1 104 21.4C115.5 31.6 121.6 46 121.6 62.9C121.6 79.8 115.5 94.1 104 104.3C93.4001 113.6 79.0001 118.8 63.6001 118.8Z" fill="url(#paint0_radial_169_12715)" style=""/>
<path d="M63.6001 118.8C35.7001 118.8 5.6001 101.3 5.6001 62.9C5.6001 24.5 35.7001 7 63.6001 7C79.1001 7 93.4001 12.1 104 21.4C115.5 31.6 121.6 46 121.6 62.9C121.6 79.8 115.5 94.1 104 104.3C93.4001 113.6 79.0001 118.8 63.6001 118.8Z" fill="url(#paint1_radial_169_12715)" style=""/>
<path d="M63.6001 118.8C35.7001 118.8 5.6001 101.3 5.6001 62.9C5.6001 24.5 35.7001 7 63.6001 7C79.1001 7 93.4001 12.1 104 21.4C115.5 31.6 121.6 46 121.6 62.9C121.6 79.8 115.5 94.1 104 104.3C93.4001 113.6 79.0001 118.8 63.6001 118.8Z" fill="url(#paint2_radial_169_12715)" style=""/>
<path d="M63.6001 118.8C35.7001 118.8 5.6001 101.3 5.6001 62.9C5.6001 24.5 35.7001 7 63.6001 7C79.1001 7 93.4001 12.1 104 21.4C115.5 31.6 121.6 46 121.6 62.9C121.6 79.8 115.5 94.1 104 104.3C93.4001 113.6 79.0001 118.8 63.6001 118.8Z" fill="url(#paint3_radial_169_12715)" style=""/>
<path d="M63.6001 118.8C35.7001 118.8 5.6001 101.3 5.6001 62.9C5.6001 24.5 35.7001 7 63.6001 7C79.1001 7 93.4001 12.1 104 21.4C115.5 31.6 121.6 46 121.6 62.9C121.6 79.8 115.5 94.1 104 104.3C93.4001 113.6 79.0001 118.8 63.6001 118.8Z" fill="url(#paint4_radial_169_12715)" style=""/>
<path d="M111.49 29.67C116.82 38.27 119.6 48.51 119.6 59.9C119.6 76.8 113.5 91.1 102 101.3C91.4002 110.6 77.0002 115.8 61.6002 115.8C43.5402 115.8 24.6002 108.45 13.4202 92.86C24.1802 110.52 44.4202 118.8 63.6002 118.8C79.0002 118.8 93.4002 113.6 104 104.3C115.5 94.1 121.6 79.8 121.6 62.9C121.6 50.16 118.13 38.84 111.49 29.67Z" fill="#EB8F00" style="fill:#EB8F00;fill:color(display-p3 0.9216 0.5608 0.0000);fill-opacity:1;"/>
<path d="M111.49 29.67C116.82 38.27 119.6 48.51 119.6 59.9C119.6 76.8 113.5 91.1 102 101.3C91.4002 110.6 77.0002 115.8 61.6002 115.8C43.5402 115.8 24.6002 108.45 13.4202 92.86C24.1802 110.52 44.4202 118.8 63.6002 118.8C79.0002 118.8 93.4002 113.6 104 104.3C115.5 94.1 121.6 79.8 121.6 62.9C121.6 50.16 118.13 38.84 111.49 29.67Z" fill="#F3B872" style="fill:#F3B872;fill:color(display-p3 0.9542 0.7229 0.4453);fill-opacity:1;"/>
<path d="M111.49 29.67C116.82 38.27 119.6 48.51 119.6 59.9C119.6 76.8 113.5 91.1 102 101.3C91.4002 110.6 77.0002 115.8 61.6002 115.8C43.5402 115.8 24.6002 108.45 13.4202 92.86C24.1802 110.52 44.4202 118.8 63.6002 118.8C79.0002 118.8 93.4002 113.6 104 104.3C115.5 94.1 121.6 79.8 121.6 62.9C121.6 50.16 118.13 38.84 111.49 29.67Z" fill="#91674D" style="fill:#91674D;fill:color(display-p3 0.5686 0.4039 0.3020);fill-opacity:1;"/>
<path d="M49.6101 54.7L49.4101 54.9C49.2601 55.08 49.0801 55.25 48.9001 55.4L48.2101 55.97C47.9201 56.19 47.5901 56.43 47.2101 56.67C46.8201 56.92 46.4201 57.15 46.0101 57.36C45.1001 57.82 44.1301 58.13 43.1301 58.3C42.6101 58.39 42.0901 58.43 41.5601 58.43H41.0901C40.9601 58.44 40.8201 58.44 40.6901 58.43C40.5301 58.43 40.2401 58.37 39.9801 58.34C39.4801 58.25 38.9801 58.12 38.4901 57.97C38.0201 57.81 37.5601 57.62 37.1101 57.4C36.7001 57.19 36.3001 56.96 35.9101 56.71C35.3101 56.32 34.7401 55.88 34.2101 55.39L33.5801 54.81L33.3301 54.57C32.0501 53.4 30.1201 53.33 28.7601 54.4C27.7901 55.16 27.4801 56.49 28.0001 57.61L28.1401 57.91C28.2701 58.2 28.4201 58.48 28.5901 58.75C29.1801 59.77 29.9101 60.69 30.7501 61.51C31.3401 62.09 31.9801 62.61 32.6701 63.07C33.4601 63.62 34.3001 64.09 35.1901 64.47C36.1501 64.9 37.1601 65.24 38.1901 65.47C38.7401 65.57 39.2501 65.67 39.9201 65.73C40.2301 65.73 40.6001 65.79 40.7601 65.79H41.5301C42.6501 65.77 43.7701 65.66 44.8701 65.44C45.9001 65.21 46.9101 64.87 47.8701 64.44C48.7501 64.06 49.6001 63.59 50.3901 63.04C51.0701 62.58 51.7101 62.06 52.3001 61.48C52.8201 61.02 53.3001 60.53 53.7401 60L54.2101 59.34L54.6101 58.7C54.7601 58.46 54.8901 58.2 55.0001 57.94C55.0701 57.77 55.1101 57.69 55.1101 57.69C55.7101 56.26 55.0301 54.61 53.6001 54.01C53.5001 53.97 53.4001 53.93 53.3001 53.91C52.0201 53.44 50.5901 53.75 49.6101 54.7Z" fill="#49362E" style="fill:#49362E;fill:color(display-p3 0.2863 0.2118 0.1804);fill-opacity:1;"/>
<path d="M49.6101 54.7L49.4101 54.9C49.2601 55.08 49.0801 55.25 48.9001 55.4L48.2101 55.97C47.9201 56.19 47.5901 56.43 47.2101 56.67C46.8201 56.92 46.4201 57.15 46.0101 57.36C45.1001 57.82 44.1301 58.13 43.1301 58.3C42.6101 58.39 42.0901 58.43 41.5601 58.43H41.0901C40.9601 58.44 40.8201 58.44 40.6901 58.43C40.5301 58.43 40.2401 58.37 39.9801 58.34C39.4801 58.25 38.9801 58.12 38.4901 57.97C38.0201 57.81 37.5601 57.62 37.1101 57.4C36.7001 57.19 36.3001 56.96 35.9101 56.71C35.3101 56.32 34.7401 55.88 34.2101 55.39L33.5801 54.81L33.3301 54.57C32.0501 53.4 30.1201 53.33 28.7601 54.4C27.7901 55.16 27.4801 56.49 28.0001 57.61L28.1401 57.91C28.2701 58.2 28.4201 58.48 28.5901 58.75C29.1801 59.77 29.9101 60.69 30.7501 61.51C31.3401 62.09 31.9801 62.61 32.6701 63.07C33.4601 63.62 34.3001 64.09 35.1901 64.47C36.1501 64.9 37.1601 65.24 38.1901 65.47C38.7401 65.57 39.2501 65.67 39.9201 65.73C40.2301 65.73 40.6001 65.79 40.7601 65.79H41.5301C42.6501 65.77 43.7701 65.66 44.8701 65.44C45.9001 65.21 46.9101 64.87 47.8701 64.44C48.7501 64.06 49.6001 63.59 50.3901 63.04C51.0701 62.58 51.7101 62.06 52.3001 61.48C52.8201 61.02 53.3001 60.53 53.7401 60L54.2101 59.34L54.6101 58.7C54.7601 58.46 54.8901 58.2 55.0001 57.94C55.0701 57.77 55.1101 57.69 55.1101 57.69C55.7101 56.26 55.0301 54.61 53.6001 54.01C53.5001 53.97 53.4001 53.93 53.3001 53.91C52.0201 53.44 50.5901 53.75 49.6101 54.7Z" fill="#1A1717" style="fill:#1A1717;fill:color(display-p3 0.1020 0.0902 0.0902);fill-opacity:1;"/>
<path d="M49.6101 54.7L49.4101 54.9C49.2601 55.08 49.0801 55.25 48.9001 55.4L48.2101 55.97C47.9201 56.19 47.5901 56.43 47.2101 56.67C46.8201 56.92 46.4201 57.15 46.0101 57.36C45.1001 57.82 44.1301 58.13 43.1301 58.3C42.6101 58.39 42.0901 58.43 41.5601 58.43H41.0901C40.9601 58.44 40.8201 58.44 40.6901 58.43C40.5301 58.43 40.2401 58.37 39.9801 58.34C39.4801 58.25 38.9801 58.12 38.4901 57.97C38.0201 57.81 37.5601 57.62 37.1101 57.4C36.7001 57.19 36.3001 56.96 35.9101 56.71C35.3101 56.32 34.7401 55.88 34.2101 55.39L33.5801 54.81L33.3301 54.57C32.0501 53.4 30.1201 53.33 28.7601 54.4C27.7901 55.16 27.4801 56.49 28.0001 57.61L28.1401 57.91C28.2701 58.2 28.4201 58.48 28.5901 58.75C29.1801 59.77 29.9101 60.69 30.7501 61.51C31.3401 62.09 31.9801 62.61 32.6701 63.07C33.4601 63.62 34.3001 64.09 35.1901 64.47C36.1501 64.9 37.1601 65.24 38.1901 65.47C38.7401 65.57 39.2501 65.67 39.9201 65.73C40.2301 65.73 40.6001 65.79 40.7601 65.79H41.5301C42.6501 65.77 43.7701 65.66 44.8701 65.44C45.9001 65.21 46.9101 64.87 47.8701 64.44C48.7501 64.06 49.6001 63.59 50.3901 63.04C51.0701 62.58 51.7101 62.06 52.3001 61.48C52.8201 61.02 53.3001 60.53 53.7401 60L54.2101 59.34L54.6101 58.7C54.7601 58.46 54.8901 58.2 55.0001 57.94C55.0701 57.77 55.1101 57.69 55.1101 57.69C55.7101 56.26 55.0301 54.61 53.6001 54.01C53.5001 53.97 53.4001 53.93 53.3001 53.91C52.0201 53.44 50.5901 53.75 49.6101 54.7Z" fill="#49362E" style="fill:#49362E;fill:color(display-p3 0.2863 0.2118 0.1804);fill-opacity:1;"/>
<path d="M94.5101 54.7L94.3101 54.9C94.1601 55.08 93.9801 55.25 93.8001 55.4L93.1101 55.97C92.8201 56.19 92.4901 56.43 92.1101 56.67C91.7201 56.92 91.3201 57.15 90.9101 57.36C90.4701 57.58 90.0101 57.77 89.5401 57.93C89.0501 58.08 88.5501 58.21 88.0401 58.3C87.5201 58.39 87.0001 58.43 86.4701 58.43H86.0001C85.8601 58.44 85.7301 58.44 85.5901 58.43C85.4401 58.43 85.1501 58.37 84.8901 58.34C84.3801 58.25 83.8801 58.12 83.3901 57.97C82.9101 57.8 82.4501 57.59 82.0001 57.36C81.5901 57.15 81.1901 56.92 80.8001 56.67C80.2001 56.28 79.6301 55.84 79.1001 55.35L78.4701 54.77L78.2201 54.53C76.9401 53.36 75.0101 53.29 73.6501 54.36C72.6601 55.12 72.3301 56.48 72.8701 57.61C72.8701 57.61 72.8701 57.72 73.0201 57.91C73.1501 58.2 73.3001 58.48 73.4601 58.75C74.4901 60.48 75.8801 61.95 77.5501 63.07C78.3401 63.62 79.1801 64.09 80.0601 64.47C81.0401 64.91 82.0601 65.24 83.1101 65.47C83.6601 65.57 84.1701 65.67 84.8401 65.73C85.1501 65.73 85.5101 65.79 85.6701 65.79H86.4501C87.5701 65.77 88.6801 65.66 89.7801 65.44C90.8301 65.21 91.8501 64.88 92.8301 64.44C93.7101 64.06 94.5501 63.59 95.3401 63.04C96.0301 62.58 96.6701 62.06 97.2601 61.48C97.7501 61.02 98.2101 60.53 98.6301 60L99.1101 59.34L99.5101 58.7C99.6601 58.46 99.7901 58.2 99.9001 57.94C99.9701 57.77 100.01 57.69 100.01 57.69C100.61 56.26 99.9301 54.61 98.5001 54.01C98.4001 53.97 98.3001 53.93 98.2001 53.91C96.9201 53.44 95.4901 53.75 94.5101 54.7Z" fill="#49362E" style="fill:#49362E;fill:color(display-p3 0.2863 0.2118 0.1804);fill-opacity:1;"/>
<path d="M94.5101 54.7L94.3101 54.9C94.1601 55.08 93.9801 55.25 93.8001 55.4L93.1101 55.97C92.8201 56.19 92.4901 56.43 92.1101 56.67C91.7201 56.92 91.3201 57.15 90.9101 57.36C90.4701 57.58 90.0101 57.77 89.5401 57.93C89.0501 58.08 88.5501 58.21 88.0401 58.3C87.5201 58.39 87.0001 58.43 86.4701 58.43H86.0001C85.8601 58.44 85.7301 58.44 85.5901 58.43C85.4401 58.43 85.1501 58.37 84.8901 58.34C84.3801 58.25 83.8801 58.12 83.3901 57.97C82.9101 57.8 82.4501 57.59 82.0001 57.36C81.5901 57.15 81.1901 56.92 80.8001 56.67C80.2001 56.28 79.6301 55.84 79.1001 55.35L78.4701 54.77L78.2201 54.53C76.9401 53.36 75.0101 53.29 73.6501 54.36C72.6601 55.12 72.3301 56.48 72.8701 57.61C72.8701 57.61 72.8701 57.72 73.0201 57.91C73.1501 58.2 73.3001 58.48 73.4601 58.75C74.4901 60.48 75.8801 61.95 77.5501 63.07C78.3401 63.62 79.1801 64.09 80.0601 64.47C81.0401 64.91 82.0601 65.24 83.1101 65.47C83.6601 65.57 84.1701 65.67 84.8401 65.73C85.1501 65.73 85.5101 65.79 85.6701 65.79H86.4501C87.5701 65.77 88.6801 65.66 89.7801 65.44C90.8301 65.21 91.8501 64.88 92.8301 64.44C93.7101 64.06 94.5501 63.59 95.3401 63.04C96.0301 62.58 96.6701 62.06 97.2601 61.48C97.7501 61.02 98.2101 60.53 98.6301 60L99.1101 59.34L99.5101 58.7C99.6601 58.46 99.7901 58.2 99.9001 57.94C99.9701 57.77 100.01 57.69 100.01 57.69C100.61 56.26 99.9301 54.61 98.5001 54.01C98.4001 53.97 98.3001 53.93 98.2001 53.91C96.9201 53.44 95.4901 53.75 94.5101 54.7Z" fill="#1A1717" style="fill:#1A1717;fill:color(display-p3 0.1020 0.0902 0.0902);fill-opacity:1;"/>
<path d="M94.5101 54.7L94.3101 54.9C94.1601 55.08 93.9801 55.25 93.8001 55.4L93.1101 55.97C92.8201 56.19 92.4901 56.43 92.1101 56.67C91.7201 56.92 91.3201 57.15 90.9101 57.36C90.4701 57.58 90.0101 57.77 89.5401 57.93C89.0501 58.08 88.5501 58.21 88.0401 58.3C87.5201 58.39 87.0001 58.43 86.4701 58.43H86.0001C85.8601 58.44 85.7301 58.44 85.5901 58.43C85.4401 58.43 85.1501 58.37 84.8901 58.34C84.3801 58.25 83.8801 58.12 83.3901 57.97C82.9101 57.8 82.4501 57.59 82.0001 57.36C81.5901 57.15 81.1901 56.92 80.8001 56.67C80.2001 56.28 79.6301 55.84 79.1001 55.35L78.4701 54.77L78.2201 54.53C76.9401 53.36 75.0101 53.29 73.6501 54.36C72.6601 55.12 72.3301 56.48 72.8701 57.61C72.8701 57.61 72.8701 57.72 73.0201 57.91C73.1501 58.2 73.3001 58.48 73.4601 58.75C74.4901 60.48 75.8801 61.95 77.5501 63.07C78.3401 63.62 79.1801 64.09 80.0601 64.47C81.0401 64.91 82.0601 65.24 83.1101 65.47C83.6601 65.57 84.1701 65.67 84.8401 65.73C85.1501 65.73 85.5101 65.79 85.6701 65.79H86.4501C87.5701 65.77 88.6801 65.66 89.7801 65.44C90.8301 65.21 91.8501 64.88 92.8301 64.44C93.7101 64.06 94.5501 63.59 95.3401 63.04C96.0301 62.58 96.6701 62.06 97.2601 61.48C97.7501 61.02 98.2101 60.53 98.6301 60L99.1101 59.34L99.5101 58.7C99.6601 58.46 99.7901 58.2 99.9001 57.94C99.9701 57.77 100.01 57.69 100.01 57.69C100.61 56.26 99.9301 54.61 98.5001 54.01C98.4001 53.97 98.3001 53.93 98.2001 53.91C96.9201 53.44 95.4901 53.75 94.5101 54.7Z" fill="#49362E" style="fill:#49362E;fill:color(display-p3 0.2863 0.2118 0.1804);fill-opacity:1;"/>
<path d="M111.38 103.88C132.67 99.17 126.19 62.78 89.6701 67.58C83.3301 68.42 76.6701 72.58 71.9201 76.77C70.7601 77.77 71.2701 79.77 72.8201 79.66C88.0501 78.62 87.6001 109.13 111.38 103.88Z" fill="#4FC3F7" style="fill:#4FC3F7;fill:color(display-p3 0.3098 0.7647 0.9686);fill-opacity:1;"/>
<path d="M112.65 74.51C113.26 75.03 113.72 75.69 114 76.43C114.28 77.18 114.16 78.01 113.69 78.66C112.98 79.55 111.69 79.66 110.52 79.5C107.39 79.19 104.38 78.18 101.69 76.56C100.16 75.64 98.3599 74.06 98.7799 72.03C99.0699 70.68 100.39 70.36 101.61 70.34C105.67 70.34 109.6 71.82 112.65 74.51Z" fill="#B3E5FC" style="fill:#B3E5FC;fill:color(display-p3 0.7020 0.8980 0.9882);fill-opacity:1;"/>
<path d="M35.64 38.27H35.77C37.91 37.77 37.83 34.55 35.39 34.63C33.42 34.73 31.48 35.13 29.63 35.81C24.65 37.61 20.54 41.26 18.17 46C17.74 46.92 18.14 48.02 19.06 48.44C19.88 48.82 20.85 48.55 21.36 47.81C24.9 43.1 29.94 39.74 35.64 38.27Z" fill="#49362E" style="fill:#49362E;fill:color(display-p3 0.2863 0.2118 0.1804);fill-opacity:1;"/>
<path d="M35.64 38.27H35.77C37.91 37.77 37.83 34.55 35.39 34.63C33.42 34.73 31.48 35.13 29.63 35.81C24.65 37.61 20.54 41.26 18.17 46C17.74 46.92 18.14 48.02 19.06 48.44C19.88 48.82 20.85 48.55 21.36 47.81C24.9 43.1 29.94 39.74 35.64 38.27Z" fill="#1A1717" style="fill:#1A1717;fill:color(display-p3 0.1020 0.0902 0.0902);fill-opacity:1;"/>
<path d="M35.64 38.27H35.77C37.91 37.77 37.83 34.55 35.39 34.63C33.42 34.73 31.48 35.13 29.63 35.81C24.65 37.61 20.54 41.26 18.17 46C17.74 46.92 18.14 48.02 19.06 48.44C19.88 48.82 20.85 48.55 21.36 47.81C24.9 43.1 29.94 39.74 35.64 38.27Z" fill="#613E31" style="fill:#613E31;fill:color(display-p3 0.3804 0.2431 0.1922);fill-opacity:1;"/>
<path d="M91.4899 38.27H91.3599C90.3599 38.15 89.6399 37.25 89.7499 36.24C89.8599 35.25 90.7499 34.54 91.7399 34.63C93.7099 34.73 95.6399 35.13 97.4899 35.81C102.49 37.61 106.61 41.25 109 46C109.43 46.92 109.03 48.02 108.11 48.44C107.29 48.82 106.32 48.55 105.81 47.81C102.26 43.1 97.2099 39.73 91.4899 38.27Z" fill="#49362E" style="fill:#49362E;fill:color(display-p3 0.2863 0.2118 0.1804);fill-opacity:1;"/>
<path d="M91.4899 38.27H91.3599C90.3599 38.15 89.6399 37.25 89.7499 36.24C89.8599 35.25 90.7499 34.54 91.7399 34.63C93.7099 34.73 95.6399 35.13 97.4899 35.81C102.49 37.61 106.61 41.25 109 46C109.43 46.92 109.03 48.02 108.11 48.44C107.29 48.82 106.32 48.55 105.81 47.81C102.26 43.1 97.2099 39.73 91.4899 38.27Z" fill="#1A1717" style="fill:#1A1717;fill:color(display-p3 0.1020 0.0902 0.0902);fill-opacity:1;"/>
<path d="M91.4899 38.27H91.3599C90.3599 38.15 89.6399 37.25 89.7499 36.24C89.8599 35.25 90.7499 34.54 91.7399 34.63C93.7099 34.73 95.6399 35.13 97.4899 35.81C102.49 37.61 106.61 41.25 109 46C109.43 46.92 109.03 48.02 108.11 48.44C107.29 48.82 106.32 48.55 105.81 47.81C102.26 43.1 97.2099 39.73 91.4899 38.27Z" fill="#613E31" style="fill:#613E31;fill:color(display-p3 0.3804 0.2431 0.1922);fill-opacity:1;"/>
<path d="M55.6999 99.3C51.8699 99.23 48.8199 96.06 48.8899 92.23C48.9099 90.94 49.2999 89.68 49.9999 88.6C53.0999 83.8 57.9999 81.3 63.9999 81.3C69.9999 81.3 74.8999 83.8 77.9999 88.6C79.3899 90.7 79.4999 93.39 78.2999 95.6C77.1099 97.82 74.8199 99.24 72.2999 99.3C71.5099 99.32 70.7299 99.19 69.9999 98.9C68.0699 98.23 66.0399 97.89 63.9999 97.9C61.9599 97.88 59.9299 98.22 57.9999 98.9C57.2599 99.17 56.4799 99.31 55.6999 99.3Z" fill="#49362E" style="fill:#49362E;fill:color(display-p3 0.2863 0.2118 0.1804);fill-opacity:1;"/>
<path d="M55.6999 99.3C51.8699 99.23 48.8199 96.06 48.8899 92.23C48.9099 90.94 49.2999 89.68 49.9999 88.6C53.0999 83.8 57.9999 81.3 63.9999 81.3C69.9999 81.3 74.8999 83.8 77.9999 88.6C79.3899 90.7 79.4999 93.39 78.2999 95.6C77.1099 97.82 74.8199 99.24 72.2999 99.3C71.5099 99.32 70.7299 99.19 69.9999 98.9C68.0699 98.23 66.0399 97.89 63.9999 97.9C61.9599 97.88 59.9299 98.22 57.9999 98.9C57.2599 99.17 56.4799 99.31 55.6999 99.3Z" fill="#1A1717" style="fill:#1A1717;fill:color(display-p3 0.1020 0.0902 0.0902);fill-opacity:1;"/>
<path d="M55.6999 99.3C51.8699 99.23 48.8199 96.06 48.8899 92.23C48.9099 90.94 49.2999 89.68 49.9999 88.6C53.0999 83.8 57.9999 81.3 63.9999 81.3C69.9999 81.3 74.8999 83.8 77.9999 88.6C79.3899 90.7 79.4999 93.39 78.2999 95.6C77.1099 97.82 74.8199 99.24 72.2999 99.3C71.5099 99.32 70.7299 99.19 69.9999 98.9C68.0699 98.23 66.0399 97.89 63.9999 97.9C61.9599 97.88 59.9299 98.22 57.9999 98.9C57.2599 99.17 56.4799 99.31 55.6999 99.3Z" fill="#5D4037" style="fill:#5D4037;fill:color(display-p3 0.3647 0.2510 0.2157);fill-opacity:1;"/>
<defs>
<radialGradient id="paint0_radial_169_12715" cx="0" cy="0" r="1" gradientUnits="userSpaceOnUse" gradientTransform="translate(63.6001 62.8999) scale(56.9597 56.9597)">
<stop offset="0.5" stop-color="#FDE030" style="stop-color:#FDE030;stop-color:color(display-p3 0.9922 0.8784 0.1882);stop-opacity:1;"/>
<stop offset="0.92" stop-color="#F7C02B" style="stop-color:#F7C02B;stop-color:color(display-p3 0.9686 0.7529 0.1686);stop-opacity:1;"/>
<stop offset="1" stop-color="#F4A223" style="stop-color:#F4A223;stop-color:color(display-p3 0.9569 0.6353 0.1373);stop-opacity:1;"/>
</radialGradient>
<radialGradient id="paint1_radial_169_12715" cx="0" cy="0" r="1" gradientUnits="userSpaceOnUse" gradientTransform="translate(38.5991 34.5377) rotate(-43.2082) scale(102.024 101.825)">
<stop offset="0.3533" stop-color="#F9DDBD" style="stop-color:#F9DDBD;stop-color:color(display-p3 0.9765 0.8667 0.7412);stop-opacity:1;"/>
<stop offset="0.8723" stop-color="#FFD29C" style="stop-color:#FFD29C;stop-color:color(display-p3 1.0000 0.8235 0.6118);stop-opacity:1;"/>
</radialGradient>
<radialGradient id="paint2_radial_169_12715" cx="0" cy="0" r="1" gradientUnits="userSpaceOnUse" gradientTransform="translate(38.5991 34.5377) rotate(-43.2082) scale(102.024 101.825)">
<stop offset="0.3533" stop-color="#70534A" style="stop-color:#70534A;stop-color:color(display-p3 0.4392 0.3255 0.2902);stop-opacity:1;"/>
<stop offset="0.8723" stop-color="#5C4037" style="stop-color:#5C4037;stop-color:color(display-p3 0.3608 0.2510 0.2157);stop-opacity:1;"/>
</radialGradient>
<radialGradient id="paint3_radial_169_12715" cx="0" cy="0" r="1" gradientUnits="userSpaceOnUse" gradientTransform="translate(38.5991 34.5377) rotate(-43.2082) scale(102.024 101.825)">
<stop offset="0.3533" stop-color="#A37A58" style="stop-color:#A37A58;stop-color:color(display-p3 0.6375 0.4772 0.3453);stop-opacity:1;"/>
<stop offset="0.8723" stop-color="#8D5738" style="stop-color:#8D5738;stop-color:color(display-p3 0.5529 0.3412 0.2196);stop-opacity:1;"/>
</radialGradient>
<radialGradient id="paint4_radial_169_12715" cx="0" cy="0" r="1" gradientUnits="userSpaceOnUse" gradientTransform="translate(38.5991 34.5377) rotate(-43.2082) scale(102.024 101.825)">
<stop offset="0.3533" stop-color="#AD8264" style="stop-color:#AD8264;stop-color:color(display-p3 0.6784 0.5098 0.3922);stop-opacity:1;"/>
<stop offset="0.8723" stop-color="#A47B62" style="stop-color:#A47B62;stop-color:color(display-p3 0.6431 0.4824 0.3843);stop-opacity:1;"/>
</radialGradient>
</defs>
</svg>
