<svg width="128" height="129" viewBox="0 0 128 129" fill="none" xmlns="http://www.w3.org/2000/svg">
<path d="M23.9902 20.4657C23.9902 20.4657 24.9602 13.8757 26.2202 11.2357C27.4802 8.59569 29.4602 5.81569 33.2602 5.07569C37.7902 4.19569 90.3102 4.65569 93.9502 4.88569C97.6202 5.12569 100.03 6.27569 101.41 8.53569C102.46 10.2657 102.83 12.3757 103.32 15.5057C103.58 17.1557 104.12 21.6757 104.12 21.6757L23.9902 20.4657Z" fill="#FFA828" style="fill:#FFA828;fill:color(display-p3 1.0000 0.6588 0.1569);fill-opacity:1;"/>
<path d="M50.6302 38.3156L22.4702 33.6356C22.4702 33.6356 23.0602 21.9856 24.2802 18.9356C25.5002 15.8856 27.0102 14.0656 31.4402 13.3056C35.8702 12.5456 46.9702 12.8556 63.6202 12.7056C80.2702 12.5556 94.9302 13.5656 97.5302 13.7156C100.13 13.8656 102.57 15.1456 103.33 17.5856C104.09 20.0256 104.46 23.3256 105.01 29.1956C105.21 31.3256 105.03 35.3556 105.03 35.3556L72.7602 37.5556L50.6302 38.3156Z" fill="#F1EDEC" style="fill:#F1EDEC;fill:color(display-p3 0.9451 0.9294 0.9255);fill-opacity:1;"/>
<path d="M22.2302 36.6857C22.4202 33.6357 22.4802 30.3357 24.8002 28.3657C26.7902 26.6857 30.1502 26.9957 34.1202 26.8357C37.7902 26.6957 47.1002 26.7757 64.6702 26.7757C82.2402 26.7757 97.0302 27.0357 99.7802 27.0357C102.53 27.0357 104.87 29.1857 105.17 31.1757C105.48 33.1657 104.1 117.326 103.95 119.156C103.8 120.986 103.19 124.656 99.2102 124.956C95.2402 125.266 32.7702 125.266 30.1702 124.956C27.5702 124.646 25.2802 122.356 24.8202 118.086C24.3602 113.816 22.0702 39.1257 22.2302 36.6857Z" fill="#D8CDC9" style="fill:#D8CDC9;fill:color(display-p3 0.8471 0.8039 0.7882);fill-opacity:1;"/>
<path d="M29.61 51.0259C31.91 51.3259 33.82 41.4159 36.82 39.1059C39.82 36.8059 45.43 35.5959 45.43 33.2959C45.43 32.1459 41.79 32.1559 38.42 32.1959C35.05 32.2359 32.15 31.9559 30.51 33.6959C28.71 35.5959 28.53 38.6459 28.41 41.7059C28.2 46.6159 28.19 50.8359 29.61 51.0259Z" fill="#F1EDEC" style="fill:#F1EDEC;fill:color(display-p3 0.9451 0.9294 0.9255);fill-opacity:1;"/>
<path d="M79.3398 118.656C79.3398 120.336 80.5698 120.886 87.2198 120.656C92.8398 120.466 95.6198 119.756 97.2898 117.746C98.9598 115.746 99.4198 111.546 99.4898 106.506C99.5298 103.016 99.4398 99.6562 97.6798 99.6562C95.1598 99.6562 95.1699 105.406 93.1599 108.636C89.2199 114.976 79.3398 116.416 79.3398 118.656Z" fill="#F1EDEC" style="fill:#F1EDEC;fill:color(display-p3 0.9451 0.9294 0.9255);fill-opacity:1;"/>
<path d="M55.1703 36.9177C52.4953 42.6701 51.1578 46.1299 51.1579 47.297C51.1578 48.881 52.842 53.1327 56.2105 60.0522C56.6067 61.136 56.9535 62.8867 57.2508 65.3043C58.1423 63.4703 60.0247 60.5107 62.8978 56.4257C65.8699 52.3407 67.356 49.2978 67.356 47.297C67.356 45.713 67.0587 43.5455 66.4644 40.7943C69.2383 43.0453 71.3683 45.6713 72.8545 48.6725C75.8265 47.0052 79.5417 45.9214 84 45.4212C83.5046 45.7547 82.7615 46.2966 81.7709 47.0469C80.7801 47.7972 79.9875 48.4225 79.3932 48.9226C78.7987 49.3395 78.1547 49.8814 77.4613 50.5483C76.7677 51.1319 76.2724 51.7155 75.9752 52.299C75.6779 52.8826 75.4798 53.4662 75.3808 54.0497C75.2817 55.0502 75.133 56.4257 74.935 58.1764C74.8358 59.9271 74.7368 61.2193 74.6378 62.053C74.6377 62.8867 74.5386 64.0122 74.3406 65.4294C74.1423 66.7633 73.9442 67.7637 73.7461 68.4306C73.5479 69.0976 73.2507 69.8895 72.8545 70.8066C72.5572 71.7236 72.1609 72.4322 71.6656 72.9324C71.2693 73.3493 70.7244 73.8078 70.031 74.308C69.3374 74.7248 68.5448 75.0166 67.6532 75.1833C66.7615 75.3501 65.7708 75.4335 64.6811 75.4335C59.7275 75.4335 57.0526 72.9324 56.6563 67.9304C54.9721 71.2651 52.1981 72.9324 48.3344 72.9324C42.7863 72.9324 37.9326 69.4478 39.418 62.8033L42.2415 50.1731C42.0433 46.3383 39.9628 42.3367 36 38.1682C36.5944 38.4184 37.5356 38.8352 38.8235 39.4187C40.2105 39.919 41.2012 40.3358 41.7957 40.6693C42.4891 40.9194 43.2817 41.3779 44.1734 42.0448C45.065 42.6284 45.808 43.2954 46.4025 44.0456C48.3838 41.0445 51.3064 38.6685 55.1703 36.9177ZM69.4365 46.5467C69.4365 46.8802 69.4365 47.172 69.4365 47.422C69.4365 49.5896 68.5448 51.9656 66.7616 54.5499C65.0773 57.1343 63.3436 59.677 61.5604 62.178C59.777 64.5957 58.8854 66.6799 58.8855 68.4306C58.8854 71.8487 60.8668 73.5577 64.8297 73.5577C69.8823 73.5577 72.4087 70.0146 72.4087 62.9283V56.1756C72.4086 55.5087 72.8544 54.3415 73.7461 52.6742C74.6377 51.0069 75.5789 49.798 76.5697 49.0477C74.8854 49.798 73.0525 50.7568 71.0712 51.9239C71.0711 49.8397 70.5262 48.0473 69.4365 46.5467ZM41.4985 62.6782C41.4984 65.0125 42.0928 67.0134 43.2817 68.6807C44.5696 70.3481 46.2043 71.1817 48.1858 71.1817C52.743 71.1817 55.0216 68.9308 55.0217 64.429C55.0216 62.5949 54.0309 59.552 52.0495 55.3002C50.068 51.0485 49.0773 48.3391 49.0774 47.1719C49.0773 45.9214 49.4241 44.3791 50.1176 42.545C48.5324 44.3791 47.5417 46.38 47.1455 48.5475C46.2538 47.2136 44.7182 45.4629 42.5387 43.2953C43.7275 46.1299 44.3219 48.3808 44.322 50.0481C44.3219 50.3816 43.8266 52.5075 42.8359 56.4257C41.9442 60.2606 41.4984 62.3448 41.4985 62.6782Z" fill="#DF0B26" style="fill:#DF0B26;fill:color(display-p3 0.8745 0.0431 0.1490);fill-opacity:1;"/>
<path d="M41.4985 62.6782C41.4984 65.0125 42.0928 67.0134 43.2817 68.6807C44.5696 70.3481 46.2043 71.1817 48.1858 71.1817C52.743 71.1817 55.0216 68.9308 55.0217 64.429C55.0216 62.5949 54.0309 59.552 52.0495 55.3002C50.068 51.0485 49.0773 48.3391 49.0774 47.1719C49.0773 45.9214 49.4241 44.3791 50.1176 42.545C48.5324 44.3791 47.5417 46.38 47.1455 48.5475C46.2538 47.2136 44.7182 45.4629 42.5387 43.2953C43.7275 46.1299 44.3219 48.3808 44.322 50.0481C44.3219 50.3816 43.8266 52.5075 42.8359 56.4257C41.9442 60.2606 41.4984 62.3448 41.4985 62.6782M55.1703 36.9177C52.4953 42.6701 51.1578 46.1299 51.1579 47.297C51.1578 48.881 52.842 53.1327 56.2105 60.0522C56.6067 61.136 56.9535 62.8867 57.2508 65.3043C58.1423 63.4703 60.0247 60.5107 62.8978 56.4257C65.8699 52.3407 67.356 49.2978 67.356 47.297C67.356 45.713 67.0587 43.5455 66.4644 40.7943C69.2383 43.0453 71.3683 45.6713 72.8545 48.6725C75.8265 47.0052 79.5417 45.9214 84 45.4212C83.5046 45.7547 82.7615 46.2966 81.7709 47.0469C80.7801 47.7972 79.9875 48.4225 79.3932 48.9226C78.7987 49.3395 78.1547 49.8814 77.4613 50.5483C76.7677 51.1319 76.2724 51.7155 75.9752 52.299C75.6779 52.8826 75.4798 53.4662 75.3808 54.0497C75.2817 55.0502 75.133 56.4257 74.935 58.1764C74.8358 59.9271 74.7368 61.2193 74.6378 62.053C74.6377 62.8867 74.5386 64.0122 74.3406 65.4294C74.1423 66.7633 73.9442 67.7637 73.7461 68.4306C73.5479 69.0976 73.2507 69.8895 72.8545 70.8066C72.5572 71.7236 72.1609 72.4322 71.6656 72.9324C71.2693 73.3493 70.7244 73.8078 70.031 74.308C69.3374 74.7248 68.5448 75.0166 67.6533 75.1833C66.7615 75.3501 65.7708 75.4335 64.6811 75.4335C59.7275 75.4335 57.0526 72.9324 56.6563 67.9304C54.9721 71.2651 52.1981 72.9324 48.3344 72.9324C42.7863 72.9324 37.9326 69.4477 39.418 62.8033L42.2415 50.1731C42.0433 46.3383 39.9628 42.3367 36 38.1682C36.5944 38.4184 37.5356 38.8352 38.8235 39.4187C40.2105 39.919 41.2012 40.3358 41.7957 40.6693C42.4891 40.9194 43.2817 41.3779 44.1734 42.0448C45.065 42.6284 45.808 43.2954 46.4025 44.0456C48.3838 41.0445 51.3064 38.6685 55.1703 36.9177V36.9177ZM69.4365 46.5467C69.4364 46.8802 69.4364 47.172 69.4365 47.422C69.4364 49.5896 68.5448 51.9656 66.7616 54.5499C65.0773 57.1343 63.3436 59.677 61.5604 62.178C59.777 64.5957 58.8854 66.6799 58.8854 68.4306C58.8854 71.8487 60.8668 73.5577 64.8297 73.5577C69.8823 73.5577 72.4087 70.0146 72.4087 62.9283V56.1756C72.4086 55.5087 72.8544 54.3415 73.7461 52.6742C74.6377 51.0069 75.5789 49.798 76.5697 49.0477C74.8854 49.798 73.0525 50.7567 71.0712 51.9239C71.0711 49.8397 70.5262 48.0473 69.4365 46.5467V46.5467Z" stroke="#ED4337" style="stroke:#ED4337;stroke:color(display-p3 0.9294 0.2627 0.2157);stroke-opacity:1;" stroke-width="2"/>
<path d="M55.1703 36.9177C52.4953 42.6701 51.1578 46.1299 51.1579 47.297C51.1578 48.881 52.842 53.1327 56.2105 60.0522C56.6067 61.136 56.9535 62.8867 57.2508 65.3043C58.1423 63.4703 60.0247 60.5107 62.8978 56.4257C65.8699 52.3407 67.356 49.2978 67.356 47.297C67.356 45.713 67.0587 43.5455 66.4644 40.7943C69.2383 43.0453 71.3683 45.6713 72.8545 48.6725C75.8265 47.0052 79.5417 45.9214 84 45.4212C83.5046 45.7547 82.7615 46.2966 81.7709 47.0469C80.7801 47.7972 79.9875 48.4225 79.3932 48.9226C78.7987 49.3395 78.1547 49.8814 77.4613 50.5483C76.7677 51.1319 76.2724 51.7155 75.9752 52.299C75.6779 52.8826 75.4798 53.4662 75.3808 54.0497C75.2817 55.0502 75.133 56.4257 74.935 58.1764C74.8358 59.9271 74.7368 61.2193 74.6378 62.053C74.6377 62.8867 74.5386 64.0122 74.3406 65.4294C74.1423 66.7633 73.9442 67.7637 73.7461 68.4306C73.5479 69.0976 73.2507 69.8895 72.8545 70.8066C72.5572 71.7236 72.1609 72.4322 71.6656 72.9324C71.2693 73.3493 70.7244 73.8078 70.031 74.308C69.3374 74.7248 68.5448 75.0166 67.6532 75.1833C66.7615 75.3501 65.7708 75.4335 64.6811 75.4335C59.7275 75.4335 57.0526 72.9324 56.6563 67.9304C54.9721 71.2651 52.1981 72.9324 48.3344 72.9324C42.7863 72.9324 37.9326 69.4478 39.418 62.8033L42.2415 50.1731C42.0433 46.3383 39.9628 42.3367 36 38.1682C36.5944 38.4184 37.5356 38.8352 38.8235 39.4187C40.2105 39.919 41.2012 40.3358 41.7957 40.6693C42.4891 40.9194 43.2817 41.3779 44.1734 42.0448C45.065 42.6284 45.808 43.2954 46.4025 44.0456C48.3838 41.0445 51.3064 38.6685 55.1703 36.9177ZM69.4365 46.5467C69.4365 46.8802 69.4365 47.172 69.4365 47.422C69.4365 49.5896 68.5448 51.9656 66.7616 54.5499C65.0773 57.1343 63.3436 59.677 61.5604 62.178C59.777 64.5957 58.8854 66.6799 58.8855 68.4306C58.8854 71.8487 60.8668 73.5577 64.8297 73.5577C69.8823 73.5577 72.4087 70.0146 72.4087 62.9283V56.1756C72.4086 55.5087 72.8544 54.3415 73.7461 52.6742C74.6377 51.0069 75.5789 49.798 76.5697 49.0477C74.8854 49.798 73.0525 50.7568 71.0712 51.9239C71.0711 49.8397 70.5262 48.0473 69.4365 46.5467ZM41.4985 62.6782C41.4984 65.0125 42.0928 67.0134 43.2817 68.6807C44.5696 70.3481 46.2043 71.1817 48.1858 71.1817C52.743 71.1817 55.0216 68.9308 55.0217 64.429C55.0216 62.5949 54.0309 59.552 52.0495 55.3002C50.068 51.0485 49.0773 48.3391 49.0774 47.1719C49.0773 45.9214 49.4241 44.3791 50.1176 42.545C48.5324 44.3791 47.5417 46.38 47.1455 48.5475C46.2538 47.2136 44.7182 45.4629 42.5387 43.2953C43.7275 46.1299 44.3219 48.3808 44.322 50.0481C44.3219 50.3816 43.8266 52.5075 42.8359 56.4257C41.9442 60.2606 41.4984 62.3448 41.4985 62.6782Z" fill="#DF0B26" style="fill:#DF0B26;fill:color(display-p3 0.8745 0.0431 0.1490);fill-opacity:1;"/>
<path d="M88.144 77.6452C88.9622 77.5131 89.3137 78.5824 88.5871 78.9812C88.0434 79.2863 87.6242 79.5564 87.3296 79.7916C87.2772 79.8334 87.2308 79.8819 87.1888 79.9341C87.0134 80.1518 86.803 80.399 86.5575 80.6758C86.5257 80.7116 86.491 80.7447 86.4559 80.7771C86.1712 81.0401 85.8429 81.5238 85.471 82.2282C85.0752 82.8943 84.63 83.6436 84.1355 84.4761C83.7397 85.3087 82.9978 86.6408 81.9097 88.4725C80.9204 90.3041 79.8322 92.219 78.6452 94.2172C78.1505 95.0498 77.1118 95.9656 75.5291 96.9647C73.9462 97.9637 71.6215 99.2958 68.5549 100.961C66.5034 102.17 64.6174 103.318 62.8968 104.408C62.1203 104.899 61.1303 104.182 61.3672 103.294L62.3226 99.7121C63.3118 95.2163 64.8946 91.4697 67.071 88.4725C69.2473 85.392 71.9183 83.144 75.0839 81.7287C78.3483 80.23 81.1182 79.1893 83.3936 78.6065C84.7622 78.2559 86.3457 77.9355 88.144 77.6452ZM62.6889 79.1202C63.2183 79.3181 63.48 79.9141 63.2747 80.4408C62.4056 82.6697 61.8409 84.5144 61.5807 85.9748C61.2838 87.6399 61.1355 89.9295 61.1355 92.8434C61.1355 93.2597 61.1355 94.009 61.1355 95.0914C61.1355 95.6975 61.1355 96.2383 61.1355 96.7139C61.1355 97.2662 60.6877 97.714 60.1354 97.714H56.2C55.6477 97.714 55.2 97.2664 55.2 96.7141C55.2 95.9018 55.2 95.0278 55.2 94.0923C55.2 92.8434 55.2 92.0525 55.2 91.7195C55.2 91.1367 55.2 90.6788 55.2 90.3457C55.2 89.9568 55.2 89.5315 55.2 89.0699C55.2 89.0048 55.2065 88.9398 55.2186 88.8759C55.2921 88.4873 55.3344 88.1514 55.3455 87.8681C55.3492 87.772 55.3624 87.6764 55.3891 87.584C55.4863 87.2472 55.6212 86.7524 55.7936 86.0996C56.0903 85.2671 56.2881 84.601 56.3871 84.1015C56.486 83.5187 56.7333 82.5196 57.1291 81.1042C57.3971 80.1453 57.6425 79.2628 57.8652 78.4567C58.0261 77.8745 58.6617 77.5649 59.2226 77.7889C60.1427 78.1565 61.2981 78.6003 62.6889 79.1202ZM50.725 77.2933C51.2425 77.2656 51.6983 77.6255 51.7431 78.1418C51.8072 78.8803 51.8714 79.951 51.9355 81.354C52.1333 83.4354 52.2817 84.8092 52.3807 85.4752C52.4795 86.1413 52.6279 87.3901 52.8259 89.2218C53.0236 91.0534 53.2215 92.3439 53.4194 93.0932C53.6172 93.9258 53.8645 95.133 54.1613 96.7149C54.557 98.2968 54.9527 99.5456 55.3484 100.461C55.843 101.461 56.3871 102.626 56.9807 103.958C57.6731 105.29 58.415 106.498 59.2065 107.58C59.7931 108.444 60.434 109.308 61.1294 110.172C61.5154 110.652 61.3998 111.366 60.8729 111.684L57.8182 113.532C57.4159 113.776 56.8971 113.707 56.5832 113.357C49.6975 105.68 46.628 94.0868 46.5039 78.3607C46.4996 77.8084 46.9473 77.3605 47.4996 77.3619C48.3619 77.3642 49.5255 77.3574 50.725 77.2933Z" fill="#40A940" style="fill:#40A940;fill:color(display-p3 0.2512 0.6625 0.2512);fill-opacity:1;"/>
<path d="M78.0517 81.8535C79.9311 80.9377 81.3656 80.3966 82.3549 80.23C82.5105 80.1907 82.6601 80.1545 82.8035 80.1214C83.568 79.9449 84.0492 80.7212 83.6654 81.4055C82.9064 82.7589 82.1728 84.2404 81.4646 85.8499C80.5742 88.0146 79.7828 89.6797 79.0904 90.8453C78.3978 91.9276 76.8645 93.3014 74.4904 94.9665C72.4393 96.4769 69.613 98.0805 66.0117 99.7773C65.2771 100.123 64.4777 99.4846 64.6792 98.6979C65.3779 95.9697 66.373 93.5187 67.6646 91.3448M60.542 79.9803C59.4537 86.4743 58.9096 90.762 58.9097 92.8434C58.9097 93.4758 58.9295 94.1081 58.9691 94.7404C59.0061 95.3305 58.5454 95.8407 57.9541 95.8407H57.2775C56.3871 95.8407 57.2774 94.1756 57.2775 93.0932C57.2774 92.0109 57.2774 91.3032 57.2775 90.9702M52.2323 97.0895C53.3677 101.549 55.4082 105.894 58.3537 110.125C58.5866 110.46 58.5515 110.914 58.2647 111.204V111.204C58.1077 111.362 57.8864 111.459 57.6871 111.358C57.0688 111.047 56.1408 109.954 54.9033 108.079C53.5183 105.831 52.0839 102.043 50.6 96.7149M88.5871 78.9812V78.9812C89.3137 78.5824 88.9622 77.5131 88.144 77.6452C86.3457 77.9355 84.7622 78.2559 83.3936 78.6065C81.1182 79.1893 78.3483 80.23 75.0839 81.7287C71.9183 83.144 69.2473 85.392 67.071 88.4725C64.8946 91.4697 63.3118 95.2163 62.3226 99.7121L61.3672 103.294C61.1303 104.182 62.1203 104.899 62.8968 104.408C64.6174 103.318 66.5034 102.17 68.5549 100.961C71.6215 99.2958 73.9462 97.9637 75.5291 96.9647C77.1118 95.9656 78.1505 95.0498 78.6452 94.2172C79.8322 92.219 80.9204 90.3041 81.9097 88.4725C82.9978 86.6408 83.7397 85.3087 84.1355 84.4761C84.63 83.6436 85.0752 82.8943 85.471 82.2282C85.8429 81.5238 86.1712 81.0401 86.4559 80.7771C86.491 80.7447 86.5257 80.7116 86.5575 80.6758C86.803 80.399 87.0134 80.1518 87.1888 79.9341C87.2308 79.8819 87.2772 79.8334 87.3296 79.7916C87.6242 79.5564 88.0434 79.2863 88.5871 78.9812ZM61.5807 85.9748C61.8409 84.5144 62.4056 82.6697 63.2747 80.4408C63.48 79.9141 63.2183 79.3181 62.6889 79.1202C61.2981 78.6003 60.1427 78.1565 59.2226 77.7889C58.6617 77.5649 58.0261 77.8745 57.8652 78.4567C57.6425 79.2628 57.3971 80.1453 57.1291 81.1042C56.7333 82.5196 56.486 83.5187 56.3871 84.1015C56.2881 84.601 56.0903 85.2671 55.7936 86.0996C55.6212 86.7524 55.4863 87.2472 55.3891 87.584C55.3624 87.6764 55.3492 87.772 55.3455 87.8681C55.3344 88.1514 55.2921 88.4873 55.2186 88.8759C55.2065 88.9398 55.2 89.0048 55.2 89.0699C55.2 89.5315 55.2 89.9568 55.2 90.3457C55.2 90.6788 55.2 91.1367 55.2 91.7195C55.2 92.0525 55.2 92.8434 55.2 94.0923C55.2 95.0278 55.2 95.9018 55.2 96.7141C55.2 97.2664 55.6477 97.714 56.2 97.714H60.1354C60.6877 97.714 61.1355 97.2662 61.1355 96.7139C61.1355 96.2383 61.1355 95.6975 61.1355 95.0914C61.1355 94.009 61.1355 93.2597 61.1355 92.8434C61.1355 89.9295 61.2838 87.6399 61.5807 85.9748ZM51.9355 81.354C51.8714 79.951 51.8072 78.8803 51.7431 78.1418C51.6983 77.6255 51.2425 77.2656 50.725 77.2933C49.5255 77.3574 48.3619 77.3642 47.4996 77.3619C46.9473 77.3605 46.4996 77.8084 46.5039 78.3607C46.628 94.0868 49.6975 105.68 56.5832 113.357C56.8971 113.707 57.4159 113.776 57.8182 113.532L60.8729 111.684C61.3998 111.366 61.5154 110.652 61.1294 110.172C60.434 109.308 59.7931 108.444 59.2065 107.58C58.415 106.498 57.6731 105.29 56.9807 103.958C56.3871 102.626 55.843 101.461 55.3484 100.461C54.9527 99.5456 54.557 98.2968 54.1613 96.7149C53.8645 95.133 53.6172 93.9258 53.4194 93.0932C53.2215 92.3439 53.0236 91.0534 52.8259 89.2218C52.6279 87.3901 52.4795 86.1413 52.3807 85.4752C52.2817 84.8092 52.1333 83.4354 51.9355 81.354Z" stroke="#40A940" style="stroke:#40A940;stroke:color(display-p3 0.2512 0.6625 0.2512);stroke-opacity:1;"/>
</svg>
