<svg width="128" height="129" viewBox="0 0 128 129" fill="none" xmlns="http://www.w3.org/2000/svg">
<path d="M111.715 55.4797C111.756 55.4237 111.796 55.3663 111.833 55.3076L118.433 44.9076C118.902 44.1691 119.025 43.2629 118.77 42.4262C118.515 41.5895 117.908 40.9057 117.107 40.5537L108.007 36.5537C107.901 36.5072 107.793 36.4668 107.682 36.4328C107.044 36.2363 106.624 35.9033 106.341 35.3778C106.124 34.9742 106.049 34.3832 106.325 33.6091L111.524 19.1128C111.943 17.9448 111.599 16.6394 110.66 15.8288C109.72 15.0181 108.379 14.8695 107.285 15.4549L91.6861 23.8006C91.2886 23.9604 90.7076 23.9616 90.1537 23.7309C89.7775 23.5741 89.4796 23.2524 89.3459 22.8514C89.2978 22.707 89.2388 22.5666 89.1693 22.4311L85.1693 14.6311C84.7392 13.7923 83.9398 13.2045 83.0109 13.0439C82.0819 12.8834 81.1316 13.1688 80.4448 13.8145L73.8178 20.0459C73.1192 20.5983 72.1441 20.6336 71.2762 19.959L56.4005 7.77892C55.7246 7.2255 54.841 6.99417 53.9806 7.14538C53.1202 7.29659 52.3685 7.81531 51.9218 8.56602L44.7218 20.666C44.6932 20.714 44.666 20.7629 44.6401 20.8124C44.2343 21.5903 43.1158 22.0521 42.065 21.5798L23.788 12.8907C22.7246 12.3852 21.4638 12.5484 20.5643 13.3081C19.6647 14.0677 19.2927 15.2834 19.6131 16.4164L23.7131 30.9164C23.7193 30.9384 23.7258 30.9604 23.7326 30.9824C23.8679 31.4222 23.803 31.9871 23.5038 32.436C23.4705 32.4859 23.4388 32.5367 23.4086 32.5885C23.1799 32.9805 22.7875 33.2571 22.2756 33.3302C22.2432 33.3349 22.2108 33.34 22.1785 33.3457L15.3785 34.5457C14.4241 34.7142 13.6098 35.3333 13.1924 36.208C12.775 37.0827 12.8058 38.1051 13.2752 38.953L16.3752 44.553C16.4572 44.7011 16.5516 44.842 16.6573 44.9742C16.8773 45.2492 17.0213 45.6813 16.9348 46.2439L16.9301 46.2758C16.8441 46.8778 16.5062 47.3233 16.1883 47.5088C16.1495 47.5314 16.1112 47.5549 16.0735 47.5792L6.77352 53.5792C5.86521 54.1652 5.34238 55.1946 5.40493 56.2737C5.46748 57.3528 6.10572 58.3149 7.07566 58.792L19.4757 64.892C19.4941 64.9011 19.5126 64.91 19.5312 64.9186C20.1822 65.2224 20.5487 65.7411 20.6582 66.2884C20.7728 66.8616 20.6392 67.4468 20.1952 67.9795C20.1381 68.0481 20.0841 68.1191 20.0333 68.1925L14.6333 75.9925C14.0486 76.8371 13.9367 77.9223 14.3368 78.8685C14.7369 79.8147 15.5934 80.4904 16.6067 80.6593L24.4067 81.9593C24.4469 81.966 24.4873 81.9719 24.5278 81.9769C25.1028 82.0488 25.7001 82.4239 26.073 83.0505C26.3821 83.6562 26.3754 84.2836 26.0528 84.8883C25.8982 85.1783 25.7923 85.4917 25.7392 85.816L23.6392 98.6589C23.4745 99.6663 23.8334 100.688 24.5917 101.372C25.3501 102.055 26.4039 102.306 27.3888 102.037L43.6888 97.5945C44.054 97.495 44.3971 97.3272 44.6999 97.1001C45.0497 96.8377 45.6515 96.7063 46.2757 96.8847C46.7198 97.0116 47.2196 97.4059 47.5015 97.9918L47.5381 98.1015L49.424 104.454C49.69 105.35 50.3585 106.071 51.232 106.404C52.1055 106.736 53.0842 106.643 53.879 106.151L68.579 97.0509C68.6198 97.0256 68.6599 96.9994 68.6995 96.9722C69.2811 96.5724 70.1875 96.5551 70.8099 96.9441L70.8435 96.9648L82.5435 104.065C83.3631 104.562 84.371 104.638 85.2556 104.269C86.1403 103.899 86.7952 103.129 87.0179 102.197L88.6179 95.4969C88.6393 95.4069 88.6567 95.316 88.6697 95.2244C88.7367 94.7554 89.082 94.242 89.5115 93.9914C89.5319 93.9796 89.5521 93.9674 89.5722 93.9551C89.9176 93.7425 90.3726 93.6482 90.848 93.7156L111.212 111.518C112.234 112.41 113.727 112.507 114.854 111.753C115.982 111 116.463 109.583 116.029 108.298L106.642 80.5391C106.608 80.4383 106.568 80.3395 106.524 80.2429C106.355 79.8779 106.324 79.3079 106.624 78.6573C106.849 78.1695 107.299 77.8255 107.728 77.7335C107.805 77.7171 107.881 77.6977 107.956 77.6754L121.056 73.7754C122.064 73.4752 122.842 72.6687 123.105 71.65C123.368 70.6313 123.078 69.5493 122.341 68.7985L111.641 57.8985L111.621 57.8788C111.262 57.5199 111.023 56.4184 111.715 55.4797Z" fill="white" stroke="black" style="fill:white;fill-opacity:1;stroke:black;stroke-opacity:1;" stroke-width="6" stroke-linejoin="round"/>
</svg>
