<svg width="128" height="128" viewBox="0 0 128 128" fill="none" xmlns="http://www.w3.org/2000/svg">
<path d="M64 4C30.86 4 4 30.86 4 64C4 97.14 30.86 124 64 124C97.14 124 124 97.14 124 64C124 30.86 97.14 4 64 4ZM114 64C114.04 75.53 110.04 86.71 102.7 95.6L32.4 25.3C41.29 17.96 52.47 13.96 64 14C91.61 14 114 36.39 114 64ZM14 64C13.96 52.47 17.96 41.29 25.3 32.4L95.6 102.7C86.71 110.04 75.53 114.04 64 114C36.39 114 14 91.61 14 64Z" fill="#CC3333" style="fill:#CC3333;fill:color(display-p3 0.8000 0.2000 0.2000);fill-opacity:1;"/>
<path d="M60.1 119.2C91.0832 119.2 116.2 94.0832 116.2 63.1C116.2 32.1168 91.0832 7 60.1 7C29.1168 7 4 32.1168 4 63.1C4 94.0832 29.1168 119.2 60.1 119.2Z" fill="#F44336" style="fill:#F44336;fill:color(display-p3 0.9569 0.2627 0.2118);fill-opacity:1;"/>
<path d="M95.5998 102.7C86.7098 110.04 75.5298 114.04 63.9998 114C36.3898 114 13.9998 91.61 13.9998 64C13.9598 52.47 17.9598 41.29 25.2998 32.4L32.3998 25.3C41.2898 17.96 52.4698 13.96 63.9998 14C91.6098 14 114 36.39 114 64C114.04 75.53 110.04 86.71 102.7 95.6" fill="white" style="fill:white;fill-opacity:1;"/>
<path d="M95.5998 102.7C86.7098 110.04 75.5298 114.04 63.9998 114C36.3898 114 13.9998 91.61 13.9998 64C13.9598 52.47 17.9598 41.29 25.2998 32.4L32.3998 25.3C41.2898 17.96 52.4698 13.96 63.9998 14C91.6098 14 114 36.39 114 64C114.04 75.53 110.04 86.71 102.7 95.6" fill="#231F20" style="fill:#231F20;fill:color(display-p3 0.1373 0.1216 0.1255);fill-opacity:1;"/>
<path d="M96.3999 103.2C75.9099 119.94 45.7399 116.9 28.9999 96.41C14.5899 78.78 14.5899 53.44 28.9999 35.8L35.7999 29C44.3299 21.97 55.0499 18.15 66.0999 18.2C92.5499 18.2 114 39.64 114 66.1C114 77.14 110.18 87.85 103.2 96.4" fill="#414042" style="fill:#414042;fill:color(display-p3 0.2549 0.2510 0.2588);fill-opacity:1;"/>
<path fill-rule="evenodd" clip-rule="evenodd" d="M93.9181 66.1227C94.2753 63.9712 95.7634 54.4047 94.4113 46.8875C94.1438 45.4111 93.7356 44.0373 93.2009 42.7505L56.8159 60.2239L52.9175 56.0301L90.4148 38.0225C89.6465 37.041 88.7897 36.1138 87.8551 35.2291C81.4179 29.132 72.6507 26.2748 64.2746 26.0282C64.2321 26.0197 64.1811 26.0197 64.1386 26.0197C64.1173 26.0197 64.0939 26.0176 64.0705 26.0155C64.0472 26.0134 64.0238 26.0112 64.0025 26.0112C63.9631 26.0112 63.9237 26.0135 63.8855 26.0157L63.8855 26.0157C63.8494 26.0177 63.8144 26.0197 63.7814 26.0197C63.742 26.0197 63.7026 26.0175 63.6644 26.0153C63.6284 26.0132 63.5933 26.0112 63.5603 26.0112C63.5391 26.0112 63.5157 26.0134 63.4923 26.0155C63.4689 26.0176 63.4455 26.0197 63.4243 26.0197C63.4139 26.0197 63.403 26.0192 63.3919 26.0187C63.3573 26.0171 63.3203 26.0154 63.2882 26.0282C54.9122 26.2748 46.145 29.132 39.7078 35.2291C36.3744 38.3925 34.0189 42.1 33.1515 46.8875C32.0831 52.7906 32.7766 59.9573 33.2966 63.8047L41.0581 62.0926C41.0601 62.085 41.0621 62.0775 41.0641 62.0699C42.2954 57.4747 46.6803 54.657 50.8582 55.7764C55.0361 56.8958 57.4249 61.5285 56.1936 66.1237C54.9624 70.7189 50.5774 73.5366 46.3995 72.4172C44.0254 71.7811 42.2291 70.0105 41.3464 67.757L33.5991 69.466C33.4804 70.2953 33.3082 71.1303 33.1374 71.9586C32.9087 73.0678 32.6824 74.1651 32.5903 75.2215C32.3181 78.4018 33.8148 80.8679 36.5019 82.6111C37.9782 83.5674 39.609 84.2294 41.2419 84.8923L41.242 84.8924L41.2421 84.8924C42.0921 85.2375 42.9428 85.5828 43.7725 85.97C45.5008 86.7755 45.2515 88.8403 45.0037 90.8926C44.8382 92.2635 44.6734 93.6289 45.099 94.6097C45.6348 95.8512 46.8083 96.693 48.0158 97.2968C49.5549 98.0621 51.3322 98.5468 52.9989 98.1217C52.7438 98.1897 53.4751 99.6523 54.4445 100.248C55.3203 100.792 56.4173 101.345 57.4292 101.566C59.4531 102.008 61.4514 101.268 62.693 100.622C63.3732 100.273 64.1726 100.273 64.8444 100.622C66.0944 101.268 68.0927 102.016 70.1081 101.566C71.6302 101.234 72.9823 100.333 73.9517 99.1506C74.4024 98.5978 75.1082 98.2917 75.8225 98.3427C77.9399 98.4788 81.1798 97.6199 82.5914 94.4226C83.0168 93.456 82.977 92.3963 82.9369 91.3311C82.9033 90.4378 82.8696 89.5406 83.1101 88.6912C83.7999 86.2304 85.84 85.2131 87.8906 84.1905L87.8907 84.1905C88.469 83.902 89.0483 83.6132 89.5983 83.2914C92.9062 81.3441 94.862 79.1757 94.9556 76.1059C95.0164 74.5495 94.6888 72.7805 94.3745 71.0827C94.0293 69.2185 93.7001 67.44 93.9181 66.1227ZM81.1706 72.4194C85.3485 71.3 87.7372 66.6674 86.506 62.0722C85.2748 57.477 80.8898 54.6593 76.7119 55.7787C72.534 56.8981 70.1453 61.5307 71.3765 66.1259C72.6077 70.7212 76.9927 73.5389 81.1706 72.4194Z" fill="white" style="fill:white;fill-opacity:1;"/>
<path d="M58.7559 78.2317C58.7559 75.4511 61.0093 68.5717 63.79 68.5717C66.5707 68.5717 68.8241 75.4511 68.8241 78.2317C68.8241 83.8781 63.79 80.0345 63.79 80.0345C63.79 80.0345 58.7559 84.2098 58.7559 78.2317Z" fill="#424242" style="fill:#424242;fill:color(display-p3 0.2588 0.2588 0.2588);fill-opacity:1;"/>
<path d="M51.5704 98.2833C51.5024 97.7135 51.647 91.9141 51.647 90.8851C51.647 90.1538 52.2337 89.5671 52.965 89.5671C53.6963 89.5671 54.2831 90.1623 54.2831 90.8851C54.2831 91.795 53.9259 98.3088 53.9259 98.3088C53.9259 98.3088 52.7354 98.6149 51.5704 98.2833Z" fill="#B4B4B4" style="fill:#B4B4B4;fill:color(display-p3 0.7042 0.7042 0.7042);fill-opacity:1;"/>
<path d="M62.4805 100.809C62.4805 100.809 62.489 99.9159 62.489 99.4567C62.489 96.5995 62.489 93.7423 62.489 90.8851C62.489 90.1538 63.0757 89.5671 63.807 89.5671C64.5383 89.5671 65.1251 90.1623 65.1251 90.8851C65.1251 90.9276 65.1251 90.9787 65.1251 91.0212C65.1251 92.5263 65.1251 94.023 65.1251 95.5281C65.1251 96.472 65.0741 100.809 65.0741 100.809C63.0332 100.043 62.4805 100.809 62.4805 100.809Z" fill="#B4B4B4" style="fill:#B4B4B4;fill:color(display-p3 0.7042 0.7042 0.7042);fill-opacity:1;"/>
<path d="M73.5011 99.0316C73.5011 99.0316 73.3735 91.9906 73.3735 90.8851C73.3735 90.1538 73.9688 89.5671 74.6916 89.5671C75.4229 89.5671 76.0096 90.1623 76.0096 90.8851C76.0096 92.0671 76.0011 98.3513 76.0011 98.3513C76.0011 98.3513 75.3038 98.3173 74.7681 98.4108C74.5385 98.4363 73.5011 99.0316 73.5011 99.0316Z" fill="#B4B4B4" style="fill:#B4B4B4;fill:color(display-p3 0.7042 0.7042 0.7042);fill-opacity:1;"/>
<path d="M63.7816 97.4923C63.1353 97.5433 62.489 97.6198 62.4805 97.6964C62.2849 99.9328 59.0366 100.077 57.3784 99.7202C56.4175 99.5076 55.3375 99.1845 54.7508 98.3597C54.198 97.5943 53.9514 96.6249 53.9599 95.6895C53.9599 95.6385 51.5619 95.3834 51.5619 95.3834C51.5619 95.3834 51.4003 96.7015 49.7762 96.5739C47.106 96.3613 46.5788 95.5024 46.0091 94.5585C45.2948 93.368 45.0397 90.7319 45.0397 90.7319C43.9172 95.4769 46.2982 97.2287 47.4802 97.8749C49.6911 99.0825 52.4803 98.4447 52.4803 98.4447C52.4803 98.4447 53.5943 100.222 54.5552 100.817C55.431 101.361 56.3579 101.634 57.3699 101.855C59.3937 102.297 61.3921 101.557 62.6336 100.911C62.9907 100.724 63.3819 100.647 63.7646 100.656V97.4923H63.7816Z" fill="#B4B4B4" style="fill:#B4B4B4;fill:color(display-p3 0.7042 0.7042 0.7042);fill-opacity:1;"/>
<path d="M63.7812 97.4923C64.4275 97.5433 65.0738 97.6198 65.0823 97.6964C65.2779 99.9328 68.5263 100.077 70.1845 99.7202C71.1454 99.5076 72.2253 99.1845 72.8121 98.3597C73.3648 97.5943 73.6114 96.6249 73.6029 95.6895C73.6029 95.6385 76.0009 95.3834 76.0009 95.3834C76.0009 95.3834 76.1625 96.7015 77.7867 96.5739C80.4568 96.3613 80.984 95.5024 81.5537 94.5585C82.2681 93.368 82.9483 90.7319 82.9483 90.7319C83.7477 95.5705 81.2646 97.2287 80.0826 97.8749C77.8717 99.0825 75.0825 98.4447 75.0825 98.4447C75.0825 98.4447 73.9686 100.222 73.0076 100.817C72.1318 101.361 71.2049 101.634 70.193 101.855C68.1691 102.297 66.1708 101.557 64.9292 100.911C64.5721 100.724 64.1809 100.647 63.7983 100.656V97.4923H63.7812Z" fill="#B4B4B4" style="fill:#B4B4B4;fill:color(display-p3 0.7042 0.7042 0.7042);fill-opacity:1;"/>
<path opacity="0.8" d="M23.3999 35.6L94.9999 102.1L96.9999 100.2L30.5999 33.4" fill="#231F20" style="fill:#231F20;fill:color(display-p3 0.1373 0.1216 0.1255);fill-opacity:1;"/>
<path d="M103.9 96.8L25.3002 18.9L18.2002 26L96.8002 103.9" fill="#F44336" style="fill:#F44336;fill:color(display-p3 0.9569 0.2627 0.2118);fill-opacity:1;"/>
<path d="M44.9999 10.9C46.6999 10.5 49.1999 9.30003 50.8999 9.80003C51.9899 10.1 52.6499 11.2 52.3999 12.3C52.0299 13.11 51.2799 13.67 50.3999 13.8C46.4999 14.77 42.7199 16.15 39.0999 17.9C31.9199 21.68 25.7199 27.09 20.9999 33.7C19.0999 36.4 17.5999 39.2 15.1999 41.5C14.9899 41.73 14.7099 41.87 14.3999 41.9C14.2299 41.93 14.0499 41.89 13.8999 41.8C12.6999 41.3 12.4999 40.7 12.6999 39.5C12.8799 38.49 13.2199 37.51 13.6999 36.6C14.7099 34.84 15.8099 33.14 16.9999 31.5C18.8899 28.59 21.1099 25.91 23.5999 23.5C30.3999 17.2 39.1999 12.4 44.9999 10.9Z" fill="#FF8A80" style="fill:#FF8A80;fill:color(display-p3 1.0000 0.5412 0.5020);fill-opacity:1;"/>
<path d="M32.3999 25.3L30.3999 27.3L101.5 98.4L103.3 96.2L32.3999 25.3Z" fill="#CC3333" style="fill:#CC3333;fill:color(display-p3 0.8000 0.2000 0.2000);fill-opacity:1;"/>
</svg>
