<svg width="128" height="128" viewBox="0 0 128 128" fill="none" xmlns="http://www.w3.org/2000/svg">
<path d="M63.6 118.8C35.7 118.8 5.59998 101.3 5.59998 62.9C5.59998 24.5 35.7 7 63.6 7C79.1 7 93.4 12.1 104 21.4C115.5 31.6 121.6 46 121.6 62.9C121.6 79.8 115.5 94.1 104 104.3C93.4 113.6 79 118.8 63.6 118.8Z" fill="url(#paint0_radial_169_8075)" style=""/>
<path d="M63.6 118.8C35.7 118.8 5.59998 101.3 5.59998 62.9C5.59998 24.5 35.7 7 63.6 7C79.1 7 93.4 12.1 104 21.4C115.5 31.6 121.6 46 121.6 62.9C121.6 79.8 115.5 94.1 104 104.3C93.4 113.6 79 118.8 63.6 118.8Z" fill="url(#paint1_linear_169_8075)" style=""/>
<path d="M63.6 118.8C35.7 118.8 5.59998 101.3 5.59998 62.9C5.59998 24.5 35.7 7 63.6 7C79.1 7 93.4 12.1 104 21.4C115.5 31.6 121.6 46 121.6 62.9C121.6 79.8 115.5 94.1 104 104.3C93.4 113.6 79 118.8 63.6 118.8Z" fill="url(#paint2_radial_169_8075)" style=""/>
<path d="M63.6 118.8C35.7 118.8 5.59998 101.3 5.59998 62.9C5.59998 24.5 35.7 7 63.6 7C79.1 7 93.4 12.1 104 21.4C115.5 31.6 121.6 46 121.6 62.9C121.6 79.8 115.5 94.1 104 104.3C93.4 113.6 79 118.8 63.6 118.8Z" fill="url(#paint3_radial_169_8075)" style=""/>
<path d="M111.49 29.6699C116.82 38.2699 119.6 48.5099 119.6 59.8999C119.6 76.7999 113.5 91.0999 102 101.3C91.4 110.6 77 115.8 61.6 115.8C43.54 115.8 24.56 108.45 13.42 92.8599C24.18 110.52 44.41 118.8 63.6 118.8C79 118.8 93.4 113.6 104 104.3C115.5 94.0999 121.6 79.7999 121.6 62.8999C121.6 50.1599 118.13 38.8399 111.49 29.6699Z" fill="#EB8F00" style="fill:#EB8F00;fill:color(display-p3 0.9216 0.5608 0.0000);fill-opacity:1;"/>
<path d="M111.49 29.6699C116.82 38.2699 119.6 48.5099 119.6 59.8999C119.6 76.7999 113.5 91.0999 102 101.3C91.4 110.6 77 115.8 61.6 115.8C43.54 115.8 24.56 108.45 13.42 92.8599C24.18 110.52 44.41 118.8 63.6 118.8C79 118.8 93.4 113.6 104 104.3C115.5 94.0999 121.6 79.7999 121.6 62.8999C121.6 50.1599 118.13 38.8399 111.49 29.6699Z" fill="#F3B872" style="fill:#F3B872;fill:color(display-p3 0.9542 0.7229 0.4453);fill-opacity:1;"/>
<path d="M111.49 29.6699C116.82 38.2699 119.6 48.5099 119.6 59.8999C119.6 76.7999 113.5 91.0999 102 101.3C91.4 110.6 77 115.8 61.6 115.8C43.54 115.8 24.56 108.45 13.42 92.8599C24.18 110.52 44.41 118.8 63.6 118.8C79 118.8 93.4 113.6 104 104.3C115.5 94.0999 121.6 79.7999 121.6 62.8999C121.6 50.1599 118.13 38.8399 111.49 29.6699Z" fill="#BA8F63" style="fill:#BA8F63;fill:color(display-p3 0.7294 0.5608 0.3882);fill-opacity:1;"/>
<path opacity="0.8" d="M29.7 80.4001C38.7023 80.4001 46 73.1023 46 64.1C46 55.0978 38.7023 47.8 29.7 47.8C20.6978 47.8 13.4 55.0978 13.4 64.1C13.4 73.1023 20.6978 80.4001 29.7 80.4001Z" fill="url(#paint4_radial_169_8075)" style=""/>
<path opacity="0.8" d="M96.9 67.8C105.902 67.8 113.2 60.5022 113.2 51.5C113.2 42.4977 105.902 35.2 96.9 35.2C87.8977 35.2 80.6 42.4977 80.6 51.5C80.6 60.5022 87.8977 67.8 96.9 67.8Z" fill="url(#paint5_radial_169_8075)" style=""/>
<path d="M96.9 49.4C89.2 56.5 79 62.1 67.2 64.8C55.4 67.5 43.8 67 33.8 63.9C32 63.3 30.7 65.7 32.3 66.9C42.4 74.4 55.9 77.6 69.4 74.4C82.9 71.3 93.7 62.6 99.5 51.4C100.5 49.7 98.3 48.1 96.9 49.4Z" fill="#5D4037" style="fill:#5D4037;fill:color(display-p3 0.3647 0.2510 0.2157);fill-opacity:1;"/>
<path d="M96.9 49.4C89.2 56.5 79 62.1 67.2 64.8C55.4 67.5 43.8 67 33.8 63.9C32 63.3 30.7 65.7 32.3 66.9C42.4 74.4 55.9 77.6 69.4 74.4C82.9 71.3 93.7 62.6 99.5 51.4C100.5 49.7 98.3 48.1 96.9 49.4Z" fill="#5D4037" style="fill:#5D4037;fill:color(display-p3 0.3647 0.2510 0.2157);fill-opacity:1;"/>
<path d="M48.5 47.2001C48.5 47.2001 48.4 47.1001 48.3 47.0001C48.2 46.9001 48 46.8001 47.8 46.6001C47.6 46.5001 47.4 46.3001 47.2 46.2001C47 46.0001 46.7 45.8001 46.4 45.6001C46.1 45.4001 45.8 45.2001 45.5 45.1001C45.2 44.9001 44.9 44.8001 44.6 44.8001C44.3 44.7001 44.1 44.7001 44 44.7001C43.9 44.7001 43.9 44.7001 43.8 44.7001C43.8 44.7001 43.8 44.7001 43.7 44.7001C43.8 44.7001 43.5 44.7001 43.9 44.7001L43.4 44.8001C43.3 44.8001 43.4 44.8001 43.4 44.8001C43.4 44.8001 43.4 44.8001 43.5 44.8001C43.5 44.8001 43.6 44.8001 43.5 44.8001H43.4C43.3 44.9001 43.1 45.0001 42.9 45.1001C42.7 45.3001 42.4 45.5001 42.2 45.7001C42 45.9001 41.8 46.2001 41.6 46.5001C41.2 47.1001 40.9 47.6001 40.7 48.0001C40.5 48.4001 40.3 48.6001 40.3 48.6001L40.1 49.0001C39.1 50.7001 36.9 51.4001 35.1 50.5001C33.9 49.9001 33.2 48.8001 33.1 47.6001C33.1 47.6001 33.1 47.2001 33.1 46.5001C33.2 45.8001 33.3 44.8001 33.7 43.6001C34.1 42.4001 34.8 40.9001 36.1 39.5001C36.8 38.8001 37.6 38.0001 38.6 37.5001C38.8 37.3001 39.1 37.2001 39.4 37.1001C39.7 37.0001 39.9 36.8001 40.3 36.7001L40.8 36.5001C41 36.4001 41.2 36.4001 41.3 36.4001L41.8 36.3001L42.1 36.2001H42.3H42.5L43 36.1001C43.3 36.1001 43.6 36.1001 43.9 36.1001C44.5 36.1001 45.1 36.1001 45.7 36.2001C46.9 36.4001 47.9 36.8001 48.8 37.2001C50.6 38.1001 51.7 39.2001 52.6 40.1001C53 40.6001 53.4 41.0001 53.6 41.4001C53.9 41.8001 54.1 42.2001 54.3 42.5001C54.5 42.8001 54.5 43.0001 54.6 43.1001C54.6 43.2001 54.7 43.3001 54.7 43.3001C55.4 45.1001 54.4 47.1001 52.4 47.8001C51 48.3001 49.5 48.0001 48.5 47.2001Z" fill="#5D4037" style="fill:#5D4037;fill:color(display-p3 0.3647 0.2510 0.2157);fill-opacity:1;"/>
<path d="M48.5 47.2001C48.5 47.2001 48.4 47.1001 48.3 47.0001C48.2 46.9001 48 46.8001 47.8 46.6001C47.6 46.5001 47.4 46.3001 47.2 46.2001C47 46.0001 46.7 45.8001 46.4 45.6001C46.1 45.4001 45.8 45.2001 45.5 45.1001C45.2 44.9001 44.9 44.8001 44.6 44.8001C44.3 44.7001 44.1 44.7001 44 44.7001C43.9 44.7001 43.9 44.7001 43.8 44.7001C43.8 44.7001 43.8 44.7001 43.7 44.7001C43.8 44.7001 43.5 44.7001 43.9 44.7001L43.4 44.8001C43.3 44.8001 43.4 44.8001 43.4 44.8001C43.4 44.8001 43.4 44.8001 43.5 44.8001C43.5 44.8001 43.6 44.8001 43.5 44.8001H43.4C43.3 44.9001 43.1 45.0001 42.9 45.1001C42.7 45.3001 42.4 45.5001 42.2 45.7001C42 45.9001 41.8 46.2001 41.6 46.5001C41.2 47.1001 40.9 47.6001 40.7 48.0001C40.5 48.4001 40.3 48.6001 40.3 48.6001L40.1 49.0001C39.1 50.7001 36.9 51.4001 35.1 50.5001C33.9 49.9001 33.2 48.8001 33.1 47.6001C33.1 47.6001 33.1 47.2001 33.1 46.5001C33.2 45.8001 33.3 44.8001 33.7 43.6001C34.1 42.4001 34.8 40.9001 36.1 39.5001C36.8 38.8001 37.6 38.0001 38.6 37.5001C38.8 37.3001 39.1 37.2001 39.4 37.1001C39.7 37.0001 39.9 36.8001 40.3 36.7001L40.8 36.5001C41 36.4001 41.2 36.4001 41.3 36.4001L41.8 36.3001L42.1 36.2001H42.3H42.5L43 36.1001C43.3 36.1001 43.6 36.1001 43.9 36.1001C44.5 36.1001 45.1 36.1001 45.7 36.2001C46.9 36.4001 47.9 36.8001 48.8 37.2001C50.6 38.1001 51.7 39.2001 52.6 40.1001C53 40.6001 53.4 41.0001 53.6 41.4001C53.9 41.8001 54.1 42.2001 54.3 42.5001C54.5 42.8001 54.5 43.0001 54.6 43.1001C54.6 43.2001 54.7 43.3001 54.7 43.3001C55.4 45.1001 54.4 47.1001 52.4 47.8001C51 48.3001 49.5 48.0001 48.5 47.2001Z" fill="#5D4037" style="fill:#5D4037;fill:color(display-p3 0.3647 0.2510 0.2157);fill-opacity:1;"/>
<path d="M82.8 40.5C82.8 40.5 82.7 40.4 82.6 40.3C82.5 40.2 82.3 40.1001 82.1 39.9001C81.9 39.8001 81.7 39.6 81.5 39.5C81.3 39.3 81 39.1001 80.7 38.9001C80.4 38.7001 80.1 38.5001 79.8 38.4001C79.5 38.2001 79.2 38.1 78.9 38.1C78.7 38 78.5 38 78.4 38C78.3 38 78.3 38 78.2 38H78.1C78.2 38 77.9 38 78.3 38L77.8 38.1C77.7 38.1 77.8 38.1 77.8 38.1H77.9C77.9 38.1 78 38.1 77.9 38.1H77.8C77.7 38.2 77.5 38.3001 77.2 38.4001C77 38.6001 76.8 38.8 76.5 39C76.3 39.2 76.1 39.5 75.9 39.8C75.5 40.4 75.2 40.9 75 41.3C74.8 41.7 74.6 41.9001 74.6 41.9001L74.4 42.2001C73.4 43.9001 71.2 44.6 69.4 43.7001C68.2 43.1 67.5 42 67.4 40.8C67.4 40.8 67.4 40.4001 67.5 39.7001C67.6 39.0001 67.7 38 68.1 36.8C68.5 35.6 69.2 34.1001 70.5 32.7001C71.2 32.0001 72 31.2001 73 30.7001C73.2 30.6001 73.5 30.4 73.8 30.3C74.1 30.2 74.3 30 74.7 29.9L75.3 29.7001C75.5 29.6001 75.7 29.6 75.8 29.6L76.3 29.5L76.6 29.4H76.8H77L77.5 29.3C77.8 29.3 78.1 29.3 78.4 29.3C79 29.3 79.6 29.3 80.2 29.4C81.4 29.6 82.4 30 83.3 30.4C85.1 31.3 86.2 32.4 87.1 33.3C87.5 33.8 87.9 34.2 88.1 34.6C88.4 35 88.6 35.4001 88.8 35.7001C89 36.0001 89 36.2 89.1 36.3C89.2 36.4 89.2 36.5 89.2 36.5C89.9 38.3 88.9 40.3 86.9 41C85.3 41.7 83.8 41.4 82.8 40.5Z" fill="#5D4037" style="fill:#5D4037;fill:color(display-p3 0.3647 0.2510 0.2157);fill-opacity:1;"/>
<path d="M82.8 40.5C82.8 40.5 82.7 40.4 82.6 40.3C82.5 40.2 82.3 40.1001 82.1 39.9001C81.9 39.8001 81.7 39.6 81.5 39.5C81.3 39.3 81 39.1001 80.7 38.9001C80.4 38.7001 80.1 38.5001 79.8 38.4001C79.5 38.2001 79.2 38.1 78.9 38.1C78.7 38 78.5 38 78.4 38C78.3 38 78.3 38 78.2 38H78.1C78.2 38 77.9 38 78.3 38L77.8 38.1C77.7 38.1 77.8 38.1 77.8 38.1H77.9C77.9 38.1 78 38.1 77.9 38.1H77.8C77.7 38.2 77.5 38.3001 77.2 38.4001C77 38.6001 76.8 38.8 76.5 39C76.3 39.2 76.1 39.5 75.9 39.8C75.5 40.4 75.2 40.9 75 41.3C74.8 41.7 74.6 41.9001 74.6 41.9001L74.4 42.2001C73.4 43.9001 71.2 44.6 69.4 43.7001C68.2 43.1 67.5 42 67.4 40.8C67.4 40.8 67.4 40.4001 67.5 39.7001C67.6 39.0001 67.7 38 68.1 36.8C68.5 35.6 69.2 34.1001 70.5 32.7001C71.2 32.0001 72 31.2001 73 30.7001C73.2 30.6001 73.5 30.4 73.8 30.3C74.1 30.2 74.3 30 74.7 29.9L75.3 29.7001C75.5 29.6001 75.7 29.6 75.8 29.6L76.3 29.5L76.6 29.4H76.8H77L77.5 29.3C77.8 29.3 78.1 29.3 78.4 29.3C79 29.3 79.6 29.3 80.2 29.4C81.4 29.6 82.4 30 83.3 30.4C85.1 31.3 86.2 32.4 87.1 33.3C87.5 33.8 87.9 34.2 88.1 34.6C88.4 35 88.6 35.4001 88.8 35.7001C89 36.0001 89 36.2 89.1 36.3C89.2 36.4 89.2 36.5 89.2 36.5C89.9 38.3 88.9 40.3 86.9 41C85.3 41.7 83.8 41.4 82.8 40.5Z" fill="#5D4037" style="fill:#5D4037;fill:color(display-p3 0.3647 0.2510 0.2157);fill-opacity:1;"/>
<path opacity="0.66" d="M38.8701 84.46C37.7801 81.38 37.0001 113.28 37.0001 113.28C39.9201 114.51 42.8701 115.59 45.9301 116.41C47.1401 113.68 48.7201 108.65 47.8901 102.95C46.5501 93.84 41.1101 90.81 38.8701 84.46Z" fill="url(#paint6_linear_169_8075)" style=""/>
<path d="M39.5001 81.2299C39.0101 79.8999 38.3901 78.9099 36.8201 78.9099C36.1001 78.9099 34.8801 79.0899 34.2301 80.0799C32.9501 81.9999 33.4501 85.5999 34.4301 88.7299C34.9801 90.4999 34.8301 91.1499 34.8301 91.1499C32.1101 90.9799 28.9501 87.2699 25.8001 83.5699C23.8701 81.2999 22.7501 79.2099 20.8701 76.8899C19.7301 75.4799 18.0601 74.0599 16.1001 74.7799C10.7301 76.7699 17.3701 84.4999 19.0301 86.6199C20.9201 89.0299 22.7901 91.3399 22.7901 91.3399C21.0301 90.9299 19.9201 90.4599 16.8201 87.2799C14.1701 84.5599 12.2001 81.0499 10.7601 79.7399C7.49007 76.7699 5.49007 77.7399 4.62007 79.7199C3.81007 81.5599 5.15007 84.8099 6.06007 86.3299C10.5701 93.8099 16.3301 96.7399 16.3301 96.7399C11.5901 96.5299 7.85007 91.4499 6.34007 89.9099C1.96007 85.4599 -0.0399317 90.9699 2.35007 94.9599C3.45007 96.7899 4.55007 98.0799 6.56007 100.15C9.81007 103.48 12.8701 104.99 12.8701 104.99C12.8701 104.99 11.5601 105.19 10.2401 104.5C8.46007 103.57 6.47007 102.17 5.44007 101.37C2.49007 99.0999 -0.319931 101.05 0.810069 104.07C2.12007 107.56 6.90007 110.52 9.79007 112.67C15.4101 116.83 22.4201 120.16 29.5201 119.93C37.4201 119.68 42.8601 114.25 45.0001 106.62C46.2401 102.18 43.2801 95.1199 42.5301 93.3399C40.0601 87.5799 39.9901 82.5599 39.5001 81.2299Z" fill="url(#paint7_radial_169_8075)" style=""/>
<path d="M39.5001 81.2299C39.0101 79.8999 38.3901 78.9099 36.8201 78.9099C36.1001 78.9099 34.8801 79.0899 34.2301 80.0799C32.9501 81.9999 33.4501 85.5999 34.4301 88.7299C34.9801 90.4999 34.8301 91.1499 34.8301 91.1499C32.1101 90.9799 28.9501 87.2699 25.8001 83.5699C23.8701 81.2999 22.7501 79.2099 20.8701 76.8899C19.7301 75.4799 18.0601 74.0599 16.1001 74.7799C10.7301 76.7699 17.3701 84.4999 19.0301 86.6199C20.9201 89.0299 22.7901 91.3399 22.7901 91.3399C21.0301 90.9299 19.9201 90.4599 16.8201 87.2799C14.1701 84.5599 12.2001 81.0499 10.7601 79.7399C7.49007 76.7699 5.49007 77.7399 4.62007 79.7199C3.81007 81.5599 5.15007 84.8099 6.06007 86.3299C10.5701 93.8099 16.3301 96.7399 16.3301 96.7399C11.5901 96.5299 7.85007 91.4499 6.34007 89.9099C1.96007 85.4599 -0.0399317 90.9699 2.35007 94.9599C3.45007 96.7899 4.55007 98.0799 6.56007 100.15C9.81007 103.48 12.8701 104.99 12.8701 104.99C12.8701 104.99 11.5601 105.19 10.2401 104.5C8.46007 103.57 6.47007 102.17 5.44007 101.37C2.49007 99.0999 -0.319931 101.05 0.810069 104.07C2.12007 107.56 6.90007 110.52 9.79007 112.67C15.4101 116.83 22.4201 120.16 29.5201 119.93C37.4201 119.68 42.8601 114.25 45.0001 106.62C46.2401 102.18 43.2801 95.1199 42.5301 93.3399C40.0601 87.5799 39.9901 82.5599 39.5001 81.2299Z" fill="url(#paint8_radial_169_8075)" style=""/>
<path d="M39.5001 81.2299C39.0101 79.8999 38.3901 78.9099 36.8201 78.9099C36.1001 78.9099 34.8801 79.0899 34.2301 80.0799C32.9501 81.9999 33.4501 85.5999 34.4301 88.7299C34.9801 90.4999 34.8301 91.1499 34.8301 91.1499C32.1101 90.9799 28.9501 87.2699 25.8001 83.5699C23.8701 81.2999 22.7501 79.2099 20.8701 76.8899C19.7301 75.4799 18.0601 74.0599 16.1001 74.7799C10.7301 76.7699 17.3701 84.4999 19.0301 86.6199C20.9201 89.0299 22.7901 91.3399 22.7901 91.3399C21.0301 90.9299 19.9201 90.4599 16.8201 87.2799C14.1701 84.5599 12.2001 81.0499 10.7601 79.7399C7.49007 76.7699 5.49007 77.7399 4.62007 79.7199C3.81007 81.5599 5.15007 84.8099 6.06007 86.3299C10.5701 93.8099 16.3301 96.7399 16.3301 96.7399C11.5901 96.5299 7.85007 91.4499 6.34007 89.9099C1.96007 85.4599 -0.0399317 90.9699 2.35007 94.9599C3.45007 96.7899 4.55007 98.0799 6.56007 100.15C9.81007 103.48 12.8701 104.99 12.8701 104.99C12.8701 104.99 11.5601 105.19 10.2401 104.5C8.46007 103.57 6.47007 102.17 5.44007 101.37C2.49007 99.0999 -0.319931 101.05 0.810069 104.07C2.12007 107.56 6.90007 110.52 9.79007 112.67C15.4101 116.83 22.4201 120.16 29.5201 119.93C37.4201 119.68 42.8601 114.25 45.0001 106.62C46.2401 102.18 43.2801 95.1199 42.5301 93.3399C40.0601 87.5799 39.9901 82.5599 39.5001 81.2299Z" fill="url(#paint9_radial_169_8075)" style=""/>
<path d="M23.6201 99.08C23.7601 107.46 29.0201 110.96 33.1001 111.73C31.4601 109.34 30.6101 106.42 30.7101 103.53C30.8101 100.63 31.9301 97.02 33.5901 95.06C35.2501 93.1 34.8301 91.17 34.8301 91.17C34.8301 91.17 33.7101 91.08 33.2901 90.83C31.9501 90.01 30.4101 89.35 29.2501 88.28C28.4001 87.49 23.4801 90.7 23.6201 99.08Z" fill="url(#paint10_radial_169_8075)" style=""/>
<path d="M6.40005 78.54C5.58005 79.07 5.13005 79.98 5.12005 80.89C5.10005 81.8 5.37005 82.71 5.70005 83.57C6.40005 85.3 7.50005 86.85 8.63005 88.34C9.79005 89.82 11.04 91.25 12.34 92.63C13.64 94.02 14.97 95.39 16.32 96.76C14.65 95.78 13.1 94.6 11.67 93.3C10.25 91.99 8.90005 90.57 7.76005 88.99C6.59005 87.42 5.66005 85.67 5.05005 83.79C4.77005 82.85 4.57005 81.84 4.74005 80.84C4.86005 79.85 5.50005 78.9 6.40005 78.54Z" fill="url(#paint11_linear_169_8075)" style=""/>
<path d="M0.550049 102.67C0.580049 102.39 0.620049 102.15 0.670049 101.94C0.600049 102.17 0.560049 102.41 0.550049 102.67Z" fill="url(#paint12_radial_169_8075)" style=""/>
<path d="M4.31 106.78C3.59 106.09 3.1 105.51 2.73 104.9C2.31 104.2 2.07 103.46 2.05 102.77C2.03 102 2.1 101.43 2.83 100.87C3.19 100.59 4.2 100.69 4.18 100.68C4.17 100.67 4.15 100.67 4.14 100.66C3.53 100.42 2.96 100.36 2.45 100.44C2.45 100.44 2.45 100.44 2.46 100.43L2.45 100.44C1.59 100.58 0.93 101.13 0.67 101.94C0.62 102.15 0.58 102.39 0.55 102.67C0.54 103.1 0.61 103.58 0.8 104.09C1.09 104.86 1.56 105.61 2.13 106.33C2.47 106.85 2.87 107.34 3.24 107.81C3.83 108.51 4.43 109.2 5.1 109.82C6.41 111.1 7.86 112.22 9.4 113.2C10.15 113.66 17.57 118.21 24.07 119.46C24.09 119.44 11.68 114.32 4.31 106.78Z" fill="#BA8F63" style="fill:#BA8F63;fill:color(display-p3 0.7294 0.5608 0.3882);fill-opacity:1;"/>
<path d="M13.25 105.53C13.18 105.53 13.1 105.52 13.04 105.49C11.46 104.83 9.88995 103.89 8.22995 102.61C6.70995 101.4 5.35995 100.08 4.21995 98.6998C3.57996 97.9598 3.00995 97.1498 2.54996 96.4598L2.40996 96.2398C1.93996 95.5098 1.45996 94.7598 1.15996 93.8798C0.769955 92.8398 0.669955 91.7698 0.889955 90.7798C1.13996 89.5898 1.81996 88.7798 2.76996 88.3698C4.12996 87.7798 5.64996 89.2798 5.55996 89.2398C4.50996 88.7698 3.58996 89.0298 3.34996 89.1898C2.79996 89.5698 2.44996 90.2298 2.37996 90.9998C2.32996 91.6898 2.48996 92.4498 2.83996 93.1898C3.13996 93.8398 3.55996 94.4698 4.20996 95.2298C4.76996 95.9498 5.34996 96.6098 5.91996 97.2598C7.11996 98.6098 8.35996 99.8698 9.59996 101.03C10.67 102.02 12.09 103.31 13.62 104.53C13.84 104.7 13.9 105.01 13.75 105.25C13.63 105.43 13.45 105.53 13.25 105.53Z" fill="#BA8F63" style="fill:#BA8F63;fill:color(display-p3 0.7294 0.5608 0.3882);fill-opacity:1;"/>
<path d="M16.7799 96.91C16.9699 96.7 16.9299 96.57 16.7299 96.37C15.2399 94.86 13.9399 93.51 12.7599 92.25C11.3899 90.8 10.1899 89.41 9.08995 88.01C7.99995 86.58 6.89995 85.04 6.21995 83.37C5.95995 82.69 5.65995 81.79 5.67995 80.9C5.67995 80.5 5.78995 80.13 5.96995 79.8C6.13995 79.49 6.38995 79.22 6.69995 79.02C6.70995 79.02 6.70995 79.01 6.70995 79.01C7.21995 78.7 8.04995 78.47 9.37995 78.7C7.04995 77.13 5.29995 78.02 4.55995 79.71C3.74995 81.55 5.12995 84.84 6.04995 86.36C10.5599 93.84 16.0699 96.83 16.0699 96.83C16.3399 97 16.6399 97.05 16.7799 96.91Z" fill="#BA8F63" style="fill:#BA8F63;fill:color(display-p3 0.7294 0.5608 0.3882);fill-opacity:1;"/>
<path d="M23.54 91.61C21.85 89.37 15.07 82.26 15.24 77.61C15.29 76.12 17.67 74.59 20.05 75.98C20.08 76 18.31 73.98 16.09 74.77C14.16 75.45 13.88 77.23 13.86 77.55C13.76 78.56 14.04 79.53 14.31 80.27C14.87 81.67 15.58 83.03 16.6 84.66C17.36 85.9 18.25 87.16 19.39 88.65C20.02 89.46 20.66 90.2 21.31 90.9C21.75 91.38 22.2 91.84 22.66 92.29C22.77 92.39 22.91 92.45 23.05 92.45C23.17 92.45 23.29 92.41 23.39 92.34C23.6 92.16 23.7 91.83 23.54 91.61Z" fill="#BA8F63" style="fill:#BA8F63;fill:color(display-p3 0.7294 0.5608 0.3882);fill-opacity:1;"/>
<path d="M36.82 78.9199C36.1 78.9199 34.88 79.0999 34.23 80.0899C32.95 82.0099 33.45 85.6099 34.43 88.7399C34.59 89.2499 34.69 89.6599 34.75 89.9999C34.87 90.6199 34.27 91.1199 33.69 90.8999C31.24 89.9799 28.52 86.7699 25.8 83.5799C25.66 83.4099 25.53 83.2499 25.39 83.0799C25.42 83.5399 26.98 86.0399 29.11 88.7299C29.68 89.4599 33.47 93.5899 35.49 92.4099C36.74 91.6899 34.7 86.0899 34.68 84.6399C34.67 83.8499 34.56 82.8299 34.81 81.8899C34.86 81.6499 35.01 81.3999 35.2 81.1499C36.29 79.6899 38.55 79.6299 39.48 81.1999L39.51 81.2399C39.01 79.8999 38.39 78.9199 36.82 78.9199Z" fill="#BA8F63" style="fill:#BA8F63;fill:color(display-p3 0.7294 0.5608 0.3882);fill-opacity:1;"/>
<path opacity="0.66" d="M88.31 84.46C89.4 81.38 90.18 113.28 90.18 113.28C87.26 114.51 84.31 115.59 81.25 116.41C80.04 113.68 78.46 108.65 79.29 102.95C80.63 93.84 86.06 90.81 88.31 84.46Z" fill="url(#paint13_linear_169_8075)" style=""/>
<path d="M87.68 81.2299C88.17 79.8999 88.79 78.9099 90.36 78.9099C91.08 78.9099 92.3 79.0899 92.95 80.0799C94.23 81.9999 93.73 85.5999 92.75 88.7299C92.2 90.4999 92.35 91.1499 92.35 91.1499C95.07 90.9799 98.23 87.2699 101.38 83.5699C103.31 81.2999 104.43 79.2099 106.31 76.8899C107.45 75.4799 109.12 74.0599 111.08 74.7799C116.45 76.7699 109.81 84.4999 108.15 86.6199C106.26 89.0299 104.39 91.3399 104.39 91.3399C106.15 90.9299 107.26 90.4599 110.36 87.2799C113.01 84.5599 114.98 81.0499 116.42 79.7399C119.69 76.7699 121.69 77.7399 122.56 79.7199C123.37 81.5599 122.03 84.8099 121.12 86.3299C116.61 93.8099 110.85 96.7399 110.85 96.7399C115.59 96.5299 119.33 91.4499 120.84 89.9099C125.22 85.4599 127.22 90.9699 124.83 94.9599C123.73 96.7899 122.63 98.0799 120.62 100.15C117.37 103.48 114.31 104.99 114.31 104.99C114.31 104.99 115.62 105.19 116.94 104.5C118.72 103.57 120.71 102.17 121.74 101.37C124.69 99.0999 127.5 101.05 126.37 104.07C125.06 107.56 120.28 110.52 117.39 112.67C111.77 116.83 104.76 120.16 97.66 119.93C89.76 119.68 84.32 114.25 82.18 106.62C80.94 102.18 83.9 95.1199 84.65 93.3399C87.11 87.5799 87.19 82.5599 87.68 81.2299Z" fill="url(#paint14_radial_169_8075)" style=""/>
<path d="M87.68 81.2299C88.17 79.8999 88.79 78.9099 90.36 78.9099C91.08 78.9099 92.3 79.0899 92.95 80.0799C94.23 81.9999 93.73 85.5999 92.75 88.7299C92.2 90.4999 92.35 91.1499 92.35 91.1499C95.07 90.9799 98.23 87.2699 101.38 83.5699C103.31 81.2999 104.43 79.2099 106.31 76.8899C107.45 75.4799 109.12 74.0599 111.08 74.7799C116.45 76.7699 109.81 84.4999 108.15 86.6199C106.26 89.0299 104.39 91.3399 104.39 91.3399C106.15 90.9299 107.26 90.4599 110.36 87.2799C113.01 84.5599 114.98 81.0499 116.42 79.7399C119.69 76.7699 121.69 77.7399 122.56 79.7199C123.37 81.5599 122.03 84.8099 121.12 86.3299C116.61 93.8099 110.85 96.7399 110.85 96.7399C115.59 96.5299 119.33 91.4499 120.84 89.9099C125.22 85.4599 127.22 90.9699 124.83 94.9599C123.73 96.7899 122.63 98.0799 120.62 100.15C117.37 103.48 114.31 104.99 114.31 104.99C114.31 104.99 115.62 105.19 116.94 104.5C118.72 103.57 120.71 102.17 121.74 101.37C124.69 99.0999 127.5 101.05 126.37 104.07C125.06 107.56 120.28 110.52 117.39 112.67C111.77 116.83 104.76 120.16 97.66 119.93C89.76 119.68 84.32 114.25 82.18 106.62C80.94 102.18 83.9 95.1199 84.65 93.3399C87.11 87.5799 87.19 82.5599 87.68 81.2299Z" fill="url(#paint15_radial_169_8075)" style=""/>
<path d="M87.68 81.2299C88.17 79.8999 88.79 78.9099 90.36 78.9099C91.08 78.9099 92.3 79.0899 92.95 80.0799C94.23 81.9999 93.73 85.5999 92.75 88.7299C92.2 90.4999 92.35 91.1499 92.35 91.1499C95.07 90.9799 98.23 87.2699 101.38 83.5699C103.31 81.2999 104.43 79.2099 106.31 76.8899C107.45 75.4799 109.12 74.0599 111.08 74.7799C116.45 76.7699 109.81 84.4999 108.15 86.6199C106.26 89.0299 104.39 91.3399 104.39 91.3399C106.15 90.9299 107.26 90.4599 110.36 87.2799C113.01 84.5599 114.98 81.0499 116.42 79.7399C119.69 76.7699 121.69 77.7399 122.56 79.7199C123.37 81.5599 122.03 84.8099 121.12 86.3299C116.61 93.8099 110.85 96.7399 110.85 96.7399C115.59 96.5299 119.33 91.4499 120.84 89.9099C125.22 85.4599 127.22 90.9699 124.83 94.9599C123.73 96.7899 122.63 98.0799 120.62 100.15C117.37 103.48 114.31 104.99 114.31 104.99C114.31 104.99 115.62 105.19 116.94 104.5C118.72 103.57 120.71 102.17 121.74 101.37C124.69 99.0999 127.5 101.05 126.37 104.07C125.06 107.56 120.28 110.52 117.39 112.67C111.77 116.83 104.76 120.16 97.66 119.93C89.76 119.68 84.32 114.25 82.18 106.62C80.94 102.18 83.9 95.1199 84.65 93.3399C87.11 87.5799 87.19 82.5599 87.68 81.2299Z" fill="url(#paint16_radial_169_8075)" style=""/>
<path d="M103.56 99.08C103.42 107.46 98.1599 110.96 94.0799 111.73C95.7199 109.34 96.5699 106.42 96.4699 103.53C96.3699 100.63 95.2499 97.02 93.5899 95.06C91.9299 93.1 92.3499 91.17 92.3499 91.17C92.3499 91.17 93.4699 91.08 93.8899 90.83C95.2299 90.01 96.7699 89.35 97.9299 88.28C98.7699 87.49 103.7 90.7 103.56 99.08Z" fill="url(#paint17_radial_169_8075)" style=""/>
<path d="M120.77 78.54C121.59 79.07 122.04 79.98 122.05 80.89C122.08 81.81 121.81 82.71 121.48 83.57C120.78 85.3 119.68 86.85 118.55 88.34C117.39 89.82 116.14 91.25 114.84 92.63C113.54 94.02 112.21 95.39 110.86 96.76C112.53 95.78 114.08 94.6 115.51 93.3C116.93 91.99 118.28 90.57 119.42 88.99C120.59 87.42 121.52 85.67 122.13 83.79C122.41 82.85 122.61 81.84 122.44 80.84C122.31 79.85 121.68 78.9 120.77 78.54Z" fill="url(#paint18_linear_169_8075)" style=""/>
<path d="M126.63 102.67C126.6 102.39 126.56 102.15 126.51 101.94C126.57 102.17 126.62 102.41 126.63 102.67Z" fill="url(#paint19_radial_169_8075)" style=""/>
<path d="M122.86 106.78C123.58 106.09 124.07 105.51 124.44 104.9C124.86 104.2 125.1 103.46 125.12 102.77C125.14 102 125.07 101.43 124.34 100.87C123.98 100.59 122.97 100.69 122.99 100.68C123 100.67 123.02 100.67 123.03 100.66C123.64 100.42 124.21 100.36 124.72 100.44C124.72 100.44 124.72 100.44 124.71 100.43L124.72 100.44C125.58 100.58 126.24 101.13 126.5 101.94C126.55 102.15 126.59 102.39 126.62 102.67C126.63 103.1 126.56 103.58 126.37 104.09C126.08 104.86 125.61 105.61 125.04 106.33C124.7 106.85 124.3 107.34 123.93 107.81C123.34 108.51 122.74 109.2 122.07 109.82C120.76 111.1 119.31 112.22 117.77 113.2C117.02 113.66 109.6 118.21 103.1 119.46C103.09 119.44 115.5 114.32 122.86 106.78Z" fill="#BA8F63" style="fill:#BA8F63;fill:color(display-p3 0.7294 0.5608 0.3882);fill-opacity:1;"/>
<path d="M113.92 105.53C113.99 105.53 114.07 105.52 114.13 105.49C115.71 104.83 117.28 103.89 118.94 102.61C120.46 101.4 121.81 100.08 122.95 98.6998C123.59 97.9598 124.16 97.1498 124.62 96.4598L124.76 96.2398C125.23 95.5098 125.71 94.7598 126.01 93.8798C126.4 92.8398 126.5 91.7698 126.28 90.7798C126.03 89.5898 125.35 88.7798 124.4 88.3698C123.04 87.7798 121.52 89.2798 121.61 89.2398C122.66 88.7698 123.58 89.0298 123.82 89.1898C124.37 89.5698 124.73 90.2298 124.8 90.9998C124.85 91.6898 124.69 92.4498 124.34 93.1898C124.04 93.8398 123.62 94.4698 122.97 95.2298C122.41 95.9498 121.83 96.6098 121.26 97.2598C120.06 98.6098 118.82 99.8698 117.58 101.03C116.51 102.02 115.09 103.31 113.56 104.53C113.34 104.7 113.28 105.01 113.43 105.25C113.54 105.43 113.73 105.53 113.92 105.53Z" fill="#BA8F63" style="fill:#BA8F63;fill:color(display-p3 0.7294 0.5608 0.3882);fill-opacity:1;"/>
<path d="M110.4 96.91C110.21 96.7 110.25 96.57 110.45 96.37C111.94 94.86 113.24 93.51 114.42 92.25C115.79 90.8 116.99 89.41 118.09 88.01C119.17 86.59 120.27 85.05 120.95 83.38C121.21 82.7 121.51 81.8 121.49 80.91C121.49 80.51 121.38 80.14 121.2 79.81C121.03 79.5 120.78 79.23 120.47 79.03C120.46 79.03 120.46 79.02 120.46 79.02C119.95 78.71 119.12 78.48 117.79 78.71C120.12 77.14 121.87 78.03 122.61 79.72C123.42 81.56 122.04 84.85 121.12 86.37C116.61 93.85 111.1 96.84 111.1 96.84C110.84 97 110.53 97.05 110.4 96.91Z" fill="#BA8F63" style="fill:#BA8F63;fill:color(display-p3 0.7294 0.5608 0.3882);fill-opacity:1;"/>
<path d="M103.64 91.61C105.33 89.37 112.11 82.26 111.94 77.61C111.89 76.12 109.51 74.59 107.13 75.98C107.1 76 108.87 73.98 111.09 74.77C113.02 75.45 113.3 77.23 113.32 77.55C113.42 78.56 113.14 79.53 112.87 80.27C112.31 81.67 111.6 83.03 110.58 84.66C109.82 85.9 108.93 87.16 107.79 88.65C107.16 89.46 106.52 90.2 105.87 90.9C105.43 91.38 104.98 91.84 104.52 92.29C104.41 92.39 104.27 92.45 104.13 92.45C104.01 92.45 103.89 92.41 103.79 92.34C103.57 92.16 103.47 91.83 103.64 91.61Z" fill="#BA8F63" style="fill:#BA8F63;fill:color(display-p3 0.7294 0.5608 0.3882);fill-opacity:1;"/>
<path d="M90.36 78.9199C91.08 78.9199 92.3 79.0999 92.95 80.0899C94.23 82.0099 93.73 85.6099 92.75 88.7399C92.59 89.2499 92.49 89.6599 92.43 89.9999C92.31 90.6199 92.91 91.1199 93.49 90.8999C95.94 89.9799 98.66 86.7699 101.38 83.5799C101.52 83.4099 101.65 83.2499 101.79 83.0799C101.76 83.5399 100.2 86.0399 98.07 88.7299C97.5 89.4599 93.71 93.5899 91.69 92.4099C90.44 91.6899 92.48 86.0899 92.5 84.6399C92.51 83.8499 92.62 82.8299 92.37 81.8899C92.32 81.6499 92.17 81.3999 91.98 81.1499C90.89 79.6899 88.63 79.6299 87.7 81.1999L87.67 81.2399C88.17 79.8999 88.78 78.9199 90.36 78.9199Z" fill="#BA8F63" style="fill:#BA8F63;fill:color(display-p3 0.7294 0.5608 0.3882);fill-opacity:1;"/>
<defs>
<radialGradient id="paint0_radial_169_8075" cx="0" cy="0" r="1" gradientUnits="userSpaceOnUse" gradientTransform="translate(63.6 62.8999) scale(56.9597 56.9597)">
<stop offset="0.5" stop-color="#FDE030" style="stop-color:#FDE030;stop-color:color(display-p3 0.9922 0.8784 0.1882);stop-opacity:1;"/>
<stop offset="0.9188" stop-color="#F7C02B" style="stop-color:#F7C02B;stop-color:color(display-p3 0.9686 0.7529 0.1686);stop-opacity:1;"/>
<stop offset="1" stop-color="#F4A223" style="stop-color:#F4A223;stop-color:color(display-p3 0.9569 0.6353 0.1373);stop-opacity:1;"/>
</radialGradient>
<linearGradient id="paint1_linear_169_8075" x1="63.6" y1="118.8" x2="63.6" y2="7" gradientUnits="userSpaceOnUse">
<stop offset="0.1579" stop-color="#F4A223" style="stop-color:#F4A223;stop-color:color(display-p3 0.9569 0.6353 0.1373);stop-opacity:1;"/>
<stop offset="0.333" stop-color="#F7C02B" style="stop-color:#F7C02B;stop-color:color(display-p3 0.9686 0.7529 0.1686);stop-opacity:1;"/>
<stop offset="0.8071" stop-color="#FDE030" stop-opacity="0" style="stop-color:none;stop-opacity:0;"/>
</linearGradient>
<radialGradient id="paint2_radial_169_8075" cx="0" cy="0" r="1" gradientUnits="userSpaceOnUse" gradientTransform="translate(52.9999 33.5) rotate(79.6952) scale(61.4919 100.858)">
<stop offset="0.3533" stop-color="#F9DDBD" style="stop-color:#F9DDBD;stop-color:color(display-p3 0.9765 0.8667 0.7412);stop-opacity:1;"/>
<stop offset="0.8723" stop-color="#FECD92" style="stop-color:#FECD92;stop-color:color(display-p3 0.9958 0.8035 0.5726);stop-opacity:1;"/>
</radialGradient>
<radialGradient id="paint3_radial_169_8075" cx="0" cy="0" r="1" gradientUnits="userSpaceOnUse" gradientTransform="translate(38.599 34.5377) rotate(63.6667) scale(73.0419 72.8991)">
<stop offset="0.3533" stop-color="#E0BB95" style="stop-color:#E0BB95;stop-color:color(display-p3 0.8784 0.7333 0.5843);stop-opacity:1;"/>
<stop offset="0.8723" stop-color="#C5996A" style="stop-color:#C5996A;stop-color:color(display-p3 0.7708 0.5985 0.4175);stop-opacity:1;"/>
</radialGradient>
<radialGradient id="paint4_radial_169_8075" cx="0" cy="0" r="1" gradientUnits="userSpaceOnUse" gradientTransform="translate(29.6656 64.1065) rotate(-10.6121) scale(17.7371 16.8505)">
<stop stop-color="#ED7770" style="stop-color:#ED7770;stop-color:color(display-p3 0.9294 0.4667 0.4392);stop-opacity:1;"/>
<stop offset="0.9" stop-color="#ED7770" stop-opacity="0" style="stop-color:none;stop-opacity:0;"/>
</radialGradient>
<radialGradient id="paint5_radial_169_8075" cx="0" cy="0" r="1" gradientUnits="userSpaceOnUse" gradientTransform="translate(96.9064 51.5343) rotate(-10.6121) scale(17.7352 16.8488)">
<stop stop-color="#ED7770" style="stop-color:#ED7770;stop-color:color(display-p3 0.9294 0.4667 0.4392);stop-opacity:1;"/>
<stop offset="0.9" stop-color="#ED7770" stop-opacity="0" style="stop-color:none;stop-opacity:0;"/>
</radialGradient>
<linearGradient id="paint6_linear_169_8075" x1="42.5607" y1="124.2" x2="42.5607" y2="88.8423" gradientUnits="userSpaceOnUse">
<stop stop-color="#BD795A" style="stop-color:#BD795A;stop-color:color(display-p3 0.7417 0.4759 0.3523);stop-opacity:1;"/>
<stop offset="1" stop-color="#9E7664" stop-opacity="0.2" style="stop-color:#9E7664;stop-color:color(display-p3 0.6208 0.4637 0.3906);stop-opacity:0.2;"/>
</linearGradient>
<radialGradient id="paint7_radial_169_8075" cx="0" cy="0" r="1" gradientUnits="userSpaceOnUse" gradientTransform="translate(29.1856 93.8658) scale(38.9038 38.9038)">
<stop offset="0.3302" stop-color="#FFF176" style="stop-color:#FFF176;stop-color:color(display-p3 1.0000 0.9451 0.4627);stop-opacity:1;"/>
<stop offset="1" stop-color="#FFC400" style="stop-color:#FFC400;stop-color:color(display-p3 1.0000 0.7686 0.0000);stop-opacity:1;"/>
</radialGradient>
<radialGradient id="paint8_radial_169_8075" cx="0" cy="0" r="1" gradientUnits="userSpaceOnUse" gradientTransform="translate(18.8383 85.3369) rotate(80.1916) scale(24.9076 38.9644)">
<stop offset="0.3533" stop-color="#F9DDBD" style="stop-color:#F9DDBD;stop-color:color(display-p3 0.9765 0.8667 0.7412);stop-opacity:1;"/>
<stop offset="0.8723" stop-color="#FECD92" style="stop-color:#FECD92;stop-color:color(display-p3 0.9958 0.8035 0.5726);stop-opacity:1;"/>
</radialGradient>
<radialGradient id="paint9_radial_169_8075" cx="0" cy="0" r="1" gradientUnits="userSpaceOnUse" gradientTransform="translate(13.2834 85.7579) rotate(-44.6511) scale(40.3208 40.3178)">
<stop offset="0.3533" stop-color="#E0BB95" style="stop-color:#E0BB95;stop-color:color(display-p3 0.8784 0.7333 0.5843);stop-opacity:1;"/>
<stop offset="0.8723" stop-color="#CCA47A" style="stop-color:#CCA47A;stop-color:color(display-p3 0.8000 0.6431 0.4784);stop-opacity:1;"/>
</radialGradient>
<radialGradient id="paint10_radial_169_8075" cx="0" cy="0" r="1" gradientUnits="userSpaceOnUse" gradientTransform="translate(36.7949 102.449) rotate(-42.2887) scale(11.728 11.7438)">
<stop stop-color="#BA8F63" style="stop-color:#BA8F63;stop-color:color(display-p3 0.7294 0.5608 0.3882);stop-opacity:1;"/>
<stop offset="1" stop-color="#BA8F63" stop-opacity="0" style="stop-color:none;stop-opacity:0;"/>
</radialGradient>
<linearGradient id="paint11_linear_169_8075" x1="18.517" y1="95.2554" x2="5.82655" y2="82.7753" gradientUnits="userSpaceOnUse">
<stop offset="0.1273" stop-color="#B7537A" style="stop-color:#B7537A;stop-color:color(display-p3 0.7176 0.3255 0.4784);stop-opacity:1;"/>
<stop offset="1" stop-color="#FFC400" style="stop-color:#FFC400;stop-color:color(display-p3 1.0000 0.7686 0.0000);stop-opacity:1;"/>
</linearGradient>
<radialGradient id="paint12_radial_169_8075" cx="0" cy="0" r="1" gradientUnits="userSpaceOnUse" gradientTransform="translate(29.1856 93.8659) scale(38.9038 38.9036)">
<stop offset="0.3302" stop-color="#FFF176" style="stop-color:#FFF176;stop-color:color(display-p3 1.0000 0.9451 0.4627);stop-opacity:1;"/>
<stop offset="1" stop-color="#FFC400" style="stop-color:#FFC400;stop-color:color(display-p3 1.0000 0.7686 0.0000);stop-opacity:1;"/>
</radialGradient>
<linearGradient id="paint13_linear_169_8075" x1="84.6193" y1="124.2" x2="84.6193" y2="88.8423" gradientUnits="userSpaceOnUse">
<stop stop-color="#BD795A" style="stop-color:#BD795A;stop-color:color(display-p3 0.7417 0.4759 0.3523);stop-opacity:1;"/>
<stop offset="1" stop-color="#9E7664" stop-opacity="0.2" style="stop-color:#9E7664;stop-color:color(display-p3 0.6208 0.4637 0.3906);stop-opacity:0.2;"/>
</linearGradient>
<radialGradient id="paint14_radial_169_8075" cx="0" cy="0" r="1" gradientUnits="userSpaceOnUse" gradientTransform="translate(97.9916 93.8658) rotate(180) scale(38.9038 38.9038)">
<stop offset="0.3302" stop-color="#FFF176" style="stop-color:#FFF176;stop-color:color(display-p3 1.0000 0.9451 0.4627);stop-opacity:1;"/>
<stop offset="1" stop-color="#FFC400" style="stop-color:#FFC400;stop-color:color(display-p3 1.0000 0.7686 0.0000);stop-opacity:1;"/>
</radialGradient>
<radialGradient id="paint15_radial_169_8075" cx="0" cy="0" r="1" gradientUnits="userSpaceOnUse" gradientTransform="translate(100.164 85.3369) rotate(80.1916) scale(24.9076 38.9644)">
<stop offset="0.3533" stop-color="#F9DDBD" style="stop-color:#F9DDBD;stop-color:color(display-p3 0.9765 0.8667 0.7412);stop-opacity:1;"/>
<stop offset="0.8723" stop-color="#FECD92" style="stop-color:#FECD92;stop-color:color(display-p3 0.9958 0.8035 0.5726);stop-opacity:1;"/>
</radialGradient>
<radialGradient id="paint16_radial_169_8075" cx="0" cy="0" r="1" gradientUnits="userSpaceOnUse" gradientTransform="translate(94.6092 85.7579) rotate(-44.6511) scale(40.3208 40.3178)">
<stop offset="0.3533" stop-color="#E0BB95" style="stop-color:#E0BB95;stop-color:color(display-p3 0.8784 0.7333 0.5843);stop-opacity:1;"/>
<stop offset="0.8723" stop-color="#CCA47A" style="stop-color:#CCA47A;stop-color:color(display-p3 0.8000 0.6431 0.4784);stop-opacity:1;"/>
</radialGradient>
<radialGradient id="paint17_radial_169_8075" cx="0" cy="0" r="1" gradientUnits="userSpaceOnUse" gradientTransform="translate(90.4181 102.502) rotate(-137.711) scale(11.728 11.7438)">
<stop stop-color="#91755C" style="stop-color:#91755C;stop-color:color(display-p3 0.5667 0.4586 0.3589);stop-opacity:1;"/>
<stop offset="1" stop-color="#90755C" stop-opacity="0" style="stop-color:none;stop-opacity:0;"/>
</radialGradient>
<linearGradient id="paint18_linear_169_8075" x1="108.66" y1="95.2554" x2="121.351" y2="82.7753" gradientUnits="userSpaceOnUse">
<stop offset="0.1273" stop-color="#B7537A" style="stop-color:#B7537A;stop-color:color(display-p3 0.7176 0.3255 0.4784);stop-opacity:1;"/>
<stop offset="1" stop-color="#FFC400" style="stop-color:#FFC400;stop-color:color(display-p3 1.0000 0.7686 0.0000);stop-opacity:1;"/>
</linearGradient>
<radialGradient id="paint19_radial_169_8075" cx="0" cy="0" r="1" gradientUnits="userSpaceOnUse" gradientTransform="translate(97.9928 93.8659) rotate(180) scale(38.9022 38.9036)">
<stop offset="0.3302" stop-color="#FFF176" style="stop-color:#FFF176;stop-color:color(display-p3 1.0000 0.9451 0.4627);stop-opacity:1;"/>
<stop offset="1" stop-color="#FFC400" style="stop-color:#FFC400;stop-color:color(display-p3 1.0000 0.7686 0.0000);stop-opacity:1;"/>
</radialGradient>
</defs>
</svg>
