<svg width="128" height="129" viewBox="0 0 128 129" fill="none" xmlns="http://www.w3.org/2000/svg">
<path d="M36.1136 110.299C36.1136 110.299 40.1436 108.699 42.1536 107.159C44.0336 105.719 45.7336 103.759 46.9036 102.719C47.6636 102.029 48.3336 101.719 48.9236 101.719C49.5236 101.719 50.0536 102.029 50.5036 102.579L53.0836 105.819C54.1636 107.599 53.2436 109.929 53.2436 109.929C53.2436 109.929 55.9436 112.789 51.4436 113.769C46.8336 114.779 41.3136 115.329 41.3136 115.329C41.0236 115.379 40.6736 115.409 40.2936 115.409C38.3936 115.409 35.6936 114.719 34.8336 112.749C34.8336 112.749 33.5436 111.319 36.1136 110.299Z" fill="#4568AC" style="fill:#4568AC;fill:color(display-p3 0.2706 0.4078 0.6745);fill-opacity:1;"/>
<path d="M53.4816 105.697L69.3535 104.256C69.3635 104.256 44.0326 105.189 46.8618 90.7344C46.8618 90.7344 62.9135 91.6412 69.3535 91.6412C69.3535 91.6412 93.0175 96.2915 93.4827 107.21C93.8899 116.769 77.7563 115.715 76.4484 115.715C75.3714 115.715 74.3824 115.715 73.1824 115.715C67.8624 115.715 60.3335 114.816 54.2135 114.096C51.8635 113.816 51.8016 106.787 53.4816 105.697Z" fill="#616161" style="fill:#616161;fill:color(display-p3 0.3804 0.3804 0.3804);fill-opacity:1;"/>
<path d="M55.415 41.2187C54.325 37.4987 53.725 32.8887 54.225 30.1187C54.335 29.4987 54.495 28.9587 54.715 28.5487C55.345 27.4387 56.185 26.3687 57.175 25.4087C57.195 25.3887 57.215 25.3687 57.235 25.3587C57.455 25.1387 57.685 24.9287 57.925 24.7287C57.965 24.6987 58.005 24.6587 58.045 24.6287C58.265 24.4387 58.485 24.2587 58.715 24.0887C58.765 24.0487 58.825 24.0087 58.875 23.9687C59.095 23.7987 59.325 23.6387 59.555 23.4887C59.615 23.4487 59.675 23.4087 59.735 23.3687C59.965 23.2187 60.205 23.0687 60.445 22.9287C60.505 22.8887 60.565 22.8587 60.625 22.8187C60.875 22.6787 61.125 22.5487 61.375 22.4187C61.425 22.3887 61.485 22.3587 61.535 22.3387C61.805 22.2087 62.085 22.0787 62.365 21.9587C62.395 21.9487 62.435 21.9287 62.465 21.9187C64.015 21.2787 65.635 20.9087 67.205 20.9087C67.245 20.9087 67.285 20.9187 67.315 20.9187C67.665 20.9187 68.005 20.9387 68.345 20.9787C74.085 21.6587 77.335 25.6287 78.385 30.7887C78.765 32.6587 78.795 34.5487 78.535 35.8887C78.505 36.0487 78.245 37.2287 78.235 37.5887C78.085 38.9987 80.865 40.2687 81.255 41.8087C81.545 42.9587 79.145 43.8187 78.965 44.0287C78.055 45.1187 79.795 50.0287 73.145 50.8287C70.585 51.1387 70.345 51.0687 69.545 51.1787C67.955 51.4087 68.425 57.8587 68.425 57.8587H68.415L56.895 55.5487C56.895 55.5487 58.425 48.0987 56.775 44.8487C56.285 43.8587 55.815 42.5987 55.415 41.2187Z" fill="#FFCA28" style="fill:#FFCA28;fill:color(display-p3 1.0000 0.7922 0.1569);fill-opacity:1;"/>
<path d="M55.415 41.2187C54.325 37.4987 53.725 32.8887 54.225 30.1187C54.335 29.4987 54.495 28.9587 54.715 28.5487C55.345 27.4387 56.185 26.3687 57.175 25.4087C57.195 25.3887 57.215 25.3687 57.235 25.3587C57.455 25.1387 57.685 24.9287 57.925 24.7287C57.965 24.6987 58.005 24.6587 58.045 24.6287C58.265 24.4387 58.485 24.2587 58.715 24.0887C58.765 24.0487 58.825 24.0087 58.875 23.9687C59.095 23.7987 59.325 23.6387 59.555 23.4887C59.615 23.4487 59.675 23.4087 59.735 23.3687C59.965 23.2187 60.205 23.0687 60.445 22.9287C60.505 22.8887 60.565 22.8587 60.625 22.8187C60.875 22.6787 61.125 22.5487 61.375 22.4187C61.425 22.3887 61.485 22.3587 61.535 22.3387C61.805 22.2087 62.085 22.0787 62.365 21.9587C62.395 21.9487 62.435 21.9287 62.465 21.9187C64.015 21.2787 65.635 20.9087 67.205 20.9087C67.245 20.9087 67.285 20.9187 67.315 20.9187C67.665 20.9187 68.005 20.9387 68.345 20.9787C74.085 21.6587 77.335 25.6287 78.385 30.7887C78.765 32.6587 78.795 34.5487 78.535 35.8887C78.505 36.0487 78.245 37.2287 78.235 37.5887C78.085 38.9987 80.865 40.2687 81.255 41.8087C81.545 42.9587 79.145 43.8187 78.965 44.0287C78.055 45.1187 79.795 50.0287 73.145 50.8287C70.585 51.1387 70.345 51.0687 69.545 51.1787C67.955 51.4087 68.425 57.8587 68.425 57.8587H68.415L56.895 55.5487C56.895 55.5487 58.425 48.0987 56.775 44.8487C56.285 43.8587 55.815 42.5987 55.415 41.2187Z" fill="#BA8D68" style="fill:#BA8D68;fill:color(display-p3 0.7294 0.5529 0.4078);fill-opacity:1;"/>
<path d="M78.415 46.8785C77.495 46.9685 76.565 46.7985 75.755 46.2585C74.875 45.6585 75.425 44.9285 76.425 45.2985C77.025 45.5285 77.865 45.6085 78.625 45.4285L78.415 46.8785Z" fill="#795548" style="fill:#795548;fill:color(display-p3 0.4745 0.3333 0.2824);fill-opacity:1;"/>
<path d="M72.9152 38.5958C72.9008 37.5576 73.4354 36.7084 74.1091 36.6991C74.7828 36.6898 75.3406 37.5239 75.3549 38.5621C75.3692 39.6003 74.8347 40.4494 74.161 40.4587C73.4873 40.468 72.9295 39.6339 72.9152 38.5958Z" fill="#404040" style="fill:#404040;fill:color(display-p3 0.2510 0.2510 0.2510);fill-opacity:1;"/>
<path d="M74.9643 35.7585C76.1843 35.9885 76.3843 35.1785 75.9243 34.5885C75.5843 34.1485 74.8243 33.8385 73.4643 34.2485C72.1843 34.6385 71.7143 35.4385 71.4143 35.9385C71.1143 36.4385 71.1943 36.8885 71.5043 36.8885C71.9243 36.8985 73.4543 35.4785 74.9643 35.7585Z" fill="#6D4C41" style="fill:#6D4C41;fill:color(display-p3 0.4275 0.2980 0.2549);fill-opacity:1;"/>
<path d="M53.0747 60.9985C54.9347 54.6285 58.1047 52.9985 60.8747 52.9985C63.7547 52.9985 66.1947 54.7785 66.1947 54.7785C71.0947 58.1485 71.1047 63.2885 71.5547 70.1985C72.0147 77.1085 72.3447 91.1885 72.3447 91.1885C72.3447 91.1885 66.9047 93.4385 58.6347 93.4385H57.9847C49.3447 93.3185 46.1447 90.3285 46.1447 90.3285C46.1447 90.3285 50.7447 68.9585 53.0747 60.9985Z" fill="url(#paint0_radial_2637_290)" style=""/>
<path d="M53.0747 60.9985C54.9347 54.6285 58.1047 52.9985 60.8747 52.9985C63.7547 52.9985 66.1947 54.7785 66.1947 54.7785C71.0947 58.1485 71.1047 63.2885 71.5547 70.1985C72.0147 77.1085 72.3447 91.1885 72.3447 91.1885C72.3447 91.1885 66.9047 93.4385 58.6347 93.4385H57.9847C49.3447 93.3185 46.1447 90.3285 46.1447 90.3285C46.1447 90.3285 50.7447 68.9585 53.0747 60.9985Z" fill="url(#paint1_radial_2637_290)" style=""/>
<path d="M50.7499 77.0752C51.5298 74.1185 54.9384 63.0139 54.9693 62.9064C55.0441 62.6627 55.2899 62.5165 55.5466 62.5625L65.6471 64.5635C65.7854 64.5874 65.9067 64.68 65.9842 64.8084C66.0518 64.9359 66.0677 65.0782 66.0238 65.2144L60.9593 79.9917C62.5954 81.2116 70.6716 87.1498 73.0772 87.9144C74.7038 88.4298 77.5094 89.1141 80.7487 89.8821C83.3395 90.5046 85.6199 94.2114 86.75 96.3654C87.0869 97.0123 86.968 97.7944 86.4742 98.3075C86.1028 98.7023 85.5833 98.8712 85.0858 98.8211C84.7575 98.7881 84.4391 98.6556 84.1806 98.4285L80.8407 95.9619C80.3262 95.9805 78.8158 96.0094 76.795 95.7157C74.2987 95.354 71.9691 94.0342 71.8935 93.9864C71.0231 93.5471 66.772 92.3456 62.6582 91.178C59.59 90.3065 56.4233 89.4151 54.2904 88.7382C48.1929 86.8082 50.0499 79.7385 50.7499 77.0752Z" fill="url(#paint2_linear_2637_290)" style=""/>
<path d="M50.7499 77.0752C51.5298 74.1185 54.9384 63.0139 54.9693 62.9064C55.0441 62.6627 55.2899 62.5165 55.5466 62.5625L65.6471 64.5635C65.7854 64.5874 65.9067 64.68 65.9842 64.8084C66.0518 64.9359 66.0677 65.0782 66.0238 65.2144L60.9593 79.9917C62.5954 81.2116 70.6716 87.1498 73.0772 87.9144C74.7038 88.4298 77.5094 89.1141 80.7487 89.8821C83.3395 90.5046 85.6199 94.2114 86.75 96.3654C87.0869 97.0123 86.968 97.7944 86.4742 98.3075C86.1028 98.7023 85.5833 98.8712 85.0858 98.8211C84.7575 98.7881 84.4391 98.6556 84.1806 98.4285L80.8407 95.9619C80.3262 95.9805 78.8158 96.0094 76.795 95.7157C74.2987 95.354 71.9691 94.0342 71.8935 93.9864C71.0231 93.5471 66.772 92.3456 62.6582 91.178C59.59 90.3065 56.4233 89.4151 54.2904 88.7382C48.1929 86.8082 50.0499 79.7385 50.7499 77.0752Z" fill="url(#paint3_linear_2637_290)" style=""/>
<path d="M53.8914 63.3303C54.6802 60.485 57.4125 57.1015 61.293 57.4918C61.6313 57.5259 61.9864 57.5918 62.3486 57.6885C66.7818 58.8782 67.6316 63.8181 66.7681 66.9071L63.8939 76.2966L51.0172 72.7198L53.8914 63.3303Z" fill="#04A287" style="fill:#04A287;fill:color(display-p3 0.0157 0.6353 0.5294);fill-opacity:1;"/>
<path d="M53.8914 63.3303C54.6802 60.485 57.4125 57.1015 61.293 57.4918C61.6313 57.5259 61.9864 57.5918 62.3486 57.6885C66.7818 58.8782 67.6316 63.8181 66.7681 66.9071L63.8939 76.2966L51.0172 72.7198L53.8914 63.3303Z" fill="#3615AF" style="fill:#3615AF;fill:color(display-p3 0.2118 0.0824 0.6863);fill-opacity:1;"/>
<path d="M42.1455 43.4804C41.8555 35.2304 37.0555 30.2504 42.3355 23.8704C45.8155 19.6604 52.7655 21.4204 53.9855 23.0404C56.3455 26.1604 52.3155 28.9804 51.3855 30.5404C50.0155 32.8404 52.5455 42.2104 48.4055 48.9004C42.8055 57.9604 37.0555 56.5404 37.0555 56.5404C37.0555 56.5404 42.4255 51.4204 42.1455 43.4804Z" fill="#543930" style="fill:#543930;fill:color(display-p3 0.3294 0.2235 0.1882);fill-opacity:1;"/>
<path d="M41.6957 39.6304C40.5457 33.5404 37.9257 29.1904 42.3257 23.8604C45.8057 19.6504 52.7557 21.4104 53.9757 23.0304C56.3357 26.1504 52.3057 28.9704 51.3757 30.5304C50.0057 32.8204 41.6957 39.6304 41.6957 39.6304Z" fill="url(#paint4_radial_2637_290)" style=""/>
<path d="M42.1453 43.4805C42.0753 41.4205 41.6953 39.4005 41.2053 37.4005C40.7753 35.6305 40.3153 34.1105 41.4653 32.4805C43.2753 29.9105 46.8953 28.7905 49.8453 29.8805C50.7353 30.2105 51.2853 30.6605 51.1653 31.5805C51.0753 32.2405 50.9453 32.8405 50.9253 33.5205C50.9053 35.0605 50.9653 36.6005 50.9353 38.1405C50.8653 41.8405 50.3953 45.6805 48.4053 48.8905C42.8053 57.9505 37.0553 56.5305 37.0553 56.5305C37.0553 56.5305 42.4253 51.4205 42.1453 43.4805Z" fill="url(#paint5_radial_2637_290)" style=""/>
<path d="M51.1455 28.3604C50.2555 30.5304 50.9755 34.7903 50.9355 36.3804C50.8955 38.1203 50.9655 40.6904 50.3755 43.7404C48.8955 51.3703 42.3755 55.2704 42.3755 55.2704L51.1455 28.3604Z" fill="url(#paint6_radial_2637_290)" style=""/>
<path d="M53.2154 24.6405C55.8154 21.4705 60.0654 19.4505 64.5654 19.2305C68.4754 19.0405 73.8454 20.0005 77.1454 23.2605C79.1354 25.2205 80.3054 27.8005 79.9754 30.6605C79.7754 32.3805 78.3654 33.2605 78.3654 33.2605C78.3654 33.2605 76.7354 29.3405 72.7454 30.3305C68.5454 31.3705 66.7154 30.5205 66.7154 30.5205C68.1254 33.8605 66.8854 35.6805 65.7854 36.7305C65.1554 37.3305 64.5754 38.0305 64.2554 38.4505C64.0854 38.6705 63.9454 38.6505 63.8754 38.4205C63.7154 37.8805 63.4054 36.9104 63.1754 36.4505C62.3954 34.9205 61.1554 35.4605 61.1454 35.4605C59.4554 36.0605 58.8454 39.5405 61.6254 41.5805C61.6954 41.6305 61.8854 41.7605 61.7754 42.1005C60.6754 45.6305 56.4954 45.7605 56.2454 45.6305L56.2354 45.6205C56.2154 45.6105 56.1954 45.6005 56.1754 45.5905C55.6154 45.3305 55.2854 44.8705 55.1954 44.2205C54.8454 41.8705 53.8254 41.1905 53.0854 40.1705C52.2354 38.9905 51.2654 37.6605 50.7154 33.9705C50.1754 30.5205 51.0454 27.2805 53.2154 24.6405Z" fill="#543930" style="fill:#543930;fill:color(display-p3 0.3294 0.2235 0.1882);fill-opacity:1;"/>
<path d="M53.2154 24.6405C55.8154 21.4705 60.0654 19.4505 64.5654 19.2305C68.4754 19.0405 73.8454 20.0005 77.1454 23.2605C79.1354 25.2205 80.3054 27.8005 79.9754 30.6605C79.7754 32.3805 78.3654 33.2605 78.3654 33.2605C78.3654 33.2605 76.7354 29.3405 72.7454 30.3305C68.5454 31.3705 66.7154 30.5205 66.7154 30.5205C68.1254 33.8605 66.8854 35.6805 65.7854 36.7305C65.1554 37.3305 64.5754 38.0305 64.2554 38.4505C64.0854 38.6705 63.9454 38.6505 63.8754 38.4205C63.7154 37.8805 63.4054 36.9104 63.1754 36.4505C62.3954 34.9205 61.1554 35.4605 61.1454 35.4605C59.4554 36.0605 58.8454 39.5405 61.6254 41.5805C61.6954 41.6305 61.8854 41.7605 61.7754 42.1005C60.6754 45.6305 56.4954 45.7605 56.2454 45.6305L56.2354 45.6205C56.2154 45.6105 56.1954 45.6005 56.1754 45.5905C55.6154 45.3305 55.2854 44.8705 55.1954 44.2205C54.8454 41.8705 53.8254 41.1905 53.0854 40.1705C52.2354 38.9905 51.2654 37.6605 50.7154 33.9705C50.1754 30.5205 51.0454 27.2805 53.2154 24.6405Z" fill="url(#paint7_radial_2637_290)" style=""/>
<defs>
<radialGradient id="paint0_radial_2637_290" cx="0" cy="0" r="1" gradientUnits="userSpaceOnUse" gradientTransform="translate(62.328 68.0101) rotate(180) scale(17.0361 17.0361)">
<stop offset="0.3637" stop-color="#00BFA5" style="stop-color:#00BFA5;stop-color:color(display-p3 0.0000 0.7490 0.6471);stop-opacity:1;"/>
<stop offset="0.8121" stop-color="#00B29A" style="stop-color:#00B29A;stop-color:color(display-p3 0.0000 0.6980 0.6039);stop-opacity:1;"/>
<stop offset="1" stop-color="#00AB94" style="stop-color:#00AB94;stop-color:color(display-p3 0.0000 0.6706 0.5804);stop-opacity:1;"/>
</radialGradient>
<radialGradient id="paint1_radial_2637_290" cx="0" cy="0" r="1" gradientUnits="userSpaceOnUse" gradientTransform="translate(62.328 68.0101) rotate(180) scale(17.0361 17.0361)">
<stop offset="0.3637" stop-color="#651FFF" style="stop-color:#651FFF;stop-color:color(display-p3 0.3961 0.1216 1.0000);stop-opacity:1;"/>
<stop offset="0.8121" stop-color="#5914F2" style="stop-color:#5914F2;stop-color:color(display-p3 0.3490 0.0784 0.9490);stop-opacity:1;"/>
<stop offset="1" stop-color="#530EEB" style="stop-color:#530EEB;stop-color:color(display-p3 0.3255 0.0549 0.9216);stop-opacity:1;"/>
</radialGradient>
<linearGradient id="paint2_linear_2637_290" x1="67.6296" y1="92.029" x2="71.1827" y2="77.9389" gradientUnits="userSpaceOnUse">
<stop offset="0.5" stop-color="#FFCA28" style="stop-color:#FFCA28;stop-color:color(display-p3 1.0000 0.7922 0.1569);stop-opacity:1;"/>
<stop offset="1" stop-color="#FFB300" style="stop-color:#FFB300;stop-color:color(display-p3 1.0000 0.7020 0.0000);stop-opacity:1;"/>
</linearGradient>
<linearGradient id="paint3_linear_2637_290" x1="67.6296" y1="92.029" x2="71.1827" y2="77.9389" gradientUnits="userSpaceOnUse">
<stop offset="0.5" stop-color="#BA8D68" style="stop-color:#BA8D68;stop-color:color(display-p3 0.7294 0.5529 0.4078);stop-opacity:1;"/>
<stop offset="1" stop-color="#A47B62" style="stop-color:#A47B62;stop-color:color(display-p3 0.6431 0.4824 0.3843);stop-opacity:1;"/>
</linearGradient>
<radialGradient id="paint4_radial_2637_290" cx="0" cy="0" r="1" gradientUnits="userSpaceOnUse" gradientTransform="translate(50.203 37.3153) rotate(-173.581) scale(15.133 18.2977)">
<stop offset="0.5264" stop-color="#6D4C41" stop-opacity="0" style="stop-color:none;stop-opacity:0;"/>
<stop offset="1" stop-color="#6D4C41" style="stop-color:#6D4C41;stop-color:color(display-p3 0.4275 0.2980 0.2549);stop-opacity:1;"/>
</radialGradient>
<radialGradient id="paint5_radial_2637_290" cx="0" cy="0" r="1" gradientUnits="userSpaceOnUse" gradientTransform="translate(36.3447 49.1375) rotate(9.77034) scale(16.184 19.9658)">
<stop stop-color="#6D4C41" style="stop-color:#6D4C41;stop-color:color(display-p3 0.4275 0.2980 0.2549);stop-opacity:1;"/>
<stop offset="0.5264" stop-color="#6D4C41" stop-opacity="0" style="stop-color:none;stop-opacity:0;"/>
</radialGradient>
<radialGradient id="paint6_radial_2637_290" cx="0" cy="0" r="1" gradientUnits="userSpaceOnUse" gradientTransform="translate(43.0059 43.3722) rotate(19.7668) scale(8.84711 28.2179)">
<stop offset="0.5264" stop-color="#6D4C41" stop-opacity="0" style="stop-color:none;stop-opacity:0;"/>
<stop offset="1" stop-color="#6D4C41" style="stop-color:#6D4C41;stop-color:color(display-p3 0.4275 0.2980 0.2549);stop-opacity:1;"/>
</radialGradient>
<radialGradient id="paint7_radial_2637_290" cx="0" cy="0" r="1" gradientUnits="userSpaceOnUse" gradientTransform="translate(65.2893 32.4462) rotate(180) scale(14.0105 14.0105)">
<stop offset="0.5264" stop-color="#6D4C41" stop-opacity="0" style="stop-color:none;stop-opacity:0;"/>
<stop offset="1" stop-color="#6D4C41" style="stop-color:#6D4C41;stop-color:color(display-p3 0.4275 0.2980 0.2549);stop-opacity:1;"/>
</radialGradient>
</defs>
</svg>
