<svg width="128" height="128" viewBox="0 0 128 128" fill="none" xmlns="http://www.w3.org/2000/svg">
<path d="M63.6001 118.8C35.7001 118.8 5.6001 101.3 5.6001 62.9C5.6001 24.5 35.7001 7 63.6001 7C79.1001 7 93.4001 12.1 104 21.4C115.5 31.6 121.6 46 121.6 62.9C121.6 79.8 115.5 94.1 104 104.3C93.4001 113.6 79.0001 118.8 63.6001 118.8Z" fill="url(#paint0_radial_169_13149)" style=""/>
<path d="M63.6001 118.8C35.7001 118.8 5.6001 101.3 5.6001 62.9C5.6001 24.5 35.7001 7 63.6001 7C79.1001 7 93.4001 12.1 104 21.4C115.5 31.6 121.6 46 121.6 62.9C121.6 79.8 115.5 94.1 104 104.3C93.4001 113.6 79.0001 118.8 63.6001 118.8Z" fill="url(#paint1_radial_169_13149)" style=""/>
<path d="M63.6001 118.8C35.7001 118.8 5.6001 101.3 5.6001 62.9C5.6001 24.5 35.7001 7 63.6001 7C79.1001 7 93.4001 12.1 104 21.4C115.5 31.6 121.6 46 121.6 62.9C121.6 79.8 115.5 94.1 104 104.3C93.4001 113.6 79.0001 118.8 63.6001 118.8Z" fill="url(#paint2_radial_169_13149)" style=""/>
<path d="M63.6001 118.8C35.7001 118.8 5.6001 101.3 5.6001 62.9C5.6001 24.5 35.7001 7 63.6001 7C79.1001 7 93.4001 12.1 104 21.4C115.5 31.6 121.6 46 121.6 62.9C121.6 79.8 115.5 94.1 104 104.3C93.4001 113.6 79.0001 118.8 63.6001 118.8Z" fill="url(#paint3_radial_169_13149)" style=""/>
<path d="M63.6001 118.8C35.7001 118.8 5.6001 101.3 5.6001 62.9C5.6001 24.5 35.7001 7 63.6001 7C79.1001 7 93.4001 12.1 104 21.4C115.5 31.6 121.6 46 121.6 62.9C121.6 79.8 115.5 94.1 104 104.3C93.4001 113.6 79.0001 118.8 63.6001 118.8Z" fill="url(#paint4_radial_169_13149)" style=""/>
<path d="M111.49 29.67C116.82 38.27 119.6 48.51 119.6 59.9C119.6 76.8 113.5 91.1 102 101.3C91.4002 110.6 77.0002 115.8 61.6002 115.8C43.5402 115.8 24.6002 108.45 13.4202 92.86C24.1802 110.52 44.4202 118.8 63.6002 118.8C79.0002 118.8 93.4002 113.6 104 104.3C115.5 94.1 121.6 79.8 121.6 62.9C121.6 50.16 118.13 38.84 111.49 29.67Z" fill="#EB8F00" style="fill:#EB8F00;fill:color(display-p3 0.9216 0.5608 0.0000);fill-opacity:1;"/>
<path d="M111.49 29.67C116.82 38.27 119.6 48.51 119.6 59.9C119.6 76.8 113.5 91.1 102 101.3C91.4002 110.6 77.0002 115.8 61.6002 115.8C43.5402 115.8 24.6002 108.45 13.4202 92.86C24.1802 110.52 44.4202 118.8 63.6002 118.8C79.0002 118.8 93.4002 113.6 104 104.3C115.5 94.1 121.6 79.8 121.6 62.9C121.6 50.16 118.13 38.84 111.49 29.67Z" fill="#F3B872" style="fill:#F3B872;fill:color(display-p3 0.9542 0.7229 0.4453);fill-opacity:1;"/>
<path d="M111.49 29.67C116.82 38.27 119.6 48.51 119.6 59.9C119.6 76.8 113.5 91.1 102 101.3C91.4002 110.6 77.0002 115.8 61.6002 115.8C43.5402 115.8 24.6002 108.45 13.4202 92.86C24.1802 110.52 44.4202 118.8 63.6002 118.8C79.0002 118.8 93.4002 113.6 104 104.3C115.5 94.1 121.6 79.8 121.6 62.9C121.6 50.16 118.13 38.84 111.49 29.67Z" fill="#91674D" style="fill:#91674D;fill:color(display-p3 0.5686 0.4039 0.3020);fill-opacity:1;"/>
<path d="M63.8898 82C53.3998 82 45.8898 88.29 43.6598 91.78C42.8098 92.91 42.6398 94.4 43.1998 95.69C43.6298 96.51 44.4798 97.02 45.3998 97C45.7398 96.99 46.0798 96.94 46.3998 96.84C51.6798 95.15 56.2998 92.7 63.8898 92.7C71.4798 92.7 76.0998 95.15 81.3798 96.84C81.6998 96.95 82.0398 97 82.3798 97C83.2998 97.02 84.1498 96.51 84.5798 95.69C85.1398 94.4 84.9698 92.91 84.1198 91.78C81.8598 88.29 74.3698 82 63.8898 82Z" fill="#49362E" style="fill:#49362E;fill:color(display-p3 0.2863 0.2118 0.1804);fill-opacity:1;"/>
<path d="M63.8898 82C53.3998 82 45.8898 88.29 43.6598 91.78C42.8098 92.91 42.6398 94.4 43.1998 95.69C43.6298 96.51 44.4798 97.02 45.3998 97C45.7398 96.99 46.0798 96.94 46.3998 96.84C51.6798 95.15 56.2998 92.7 63.8898 92.7C71.4798 92.7 76.0998 95.15 81.3798 96.84C81.6998 96.95 82.0398 97 82.3798 97C83.2998 97.02 84.1498 96.51 84.5798 95.69C85.1398 94.4 84.9698 92.91 84.1198 91.78C81.8598 88.29 74.3698 82 63.8898 82Z" fill="#1A1717" style="fill:#1A1717;fill:color(display-p3 0.1020 0.0902 0.0902);fill-opacity:1;"/>
<path d="M63.8898 82C53.3998 82 45.8898 88.29 43.6598 91.78C42.8098 92.91 42.6398 94.4 43.1998 95.69C43.6298 96.51 44.4798 97.02 45.3998 97C45.7398 96.99 46.0798 96.94 46.3998 96.84C51.6798 95.15 56.2998 92.7 63.8898 92.7C71.4798 92.7 76.0998 95.15 81.3798 96.84C81.6998 96.95 82.0398 97 82.3798 97C83.2998 97.02 84.1498 96.51 84.5798 95.69C85.1398 94.4 84.9698 92.91 84.1198 91.78C81.8598 88.29 74.3698 82 63.8898 82Z" fill="#5D4037" style="fill:#5D4037;fill:color(display-p3 0.3647 0.2510 0.2157);fill-opacity:1;"/>
<path d="M48.1599 55.81C42.1099 54.23 35.7199 54.47 29.7999 56.5C28.7399 56.91 28.2099 58.09 28.6199 59.15C28.9999 60.14 30.0599 60.67 31.0799 60.39C33.4499 59.93 35.8699 59.8 38.2799 59.99C38.2799 60.05 38.2799 60.38 38.2799 60.38C38.2799 65.27 41.4499 68.23 44.9499 68.23C46.7399 68.21 48.4499 67.47 49.6899 66.17C51.7699 63.96 52.1999 60.66 50.7399 58C50.1899 56.97 49.2699 56.18 48.1599 55.81Z" fill="#49362E" style="fill:#49362E;fill:color(display-p3 0.2863 0.2118 0.1804);fill-opacity:1;"/>
<path d="M48.1599 55.81C42.1099 54.23 35.7199 54.47 29.7999 56.5C28.7399 56.91 28.2099 58.09 28.6199 59.15C28.9999 60.14 30.0599 60.67 31.0799 60.39C33.4499 59.93 35.8699 59.8 38.2799 59.99C38.2799 60.05 38.2799 60.38 38.2799 60.38C38.2799 65.27 41.4499 68.23 44.9499 68.23C46.7399 68.21 48.4499 67.47 49.6899 66.17C51.7699 63.96 52.1999 60.66 50.7399 58C50.1899 56.97 49.2699 56.18 48.1599 55.81Z" fill="#1A1717" style="fill:#1A1717;fill:color(display-p3 0.1020 0.0902 0.0902);fill-opacity:1;"/>
<path d="M48.1599 55.81C42.1099 54.23 35.7199 54.47 29.7999 56.5C28.7399 56.91 28.2099 58.09 28.6199 59.15C28.9999 60.14 30.0599 60.67 31.0799 60.39C33.4499 59.93 35.8699 59.8 38.2799 59.99C38.2799 60.05 38.2799 60.38 38.2799 60.38C38.2799 65.27 41.4499 68.23 44.9499 68.23C46.7399 68.21 48.4499 67.47 49.6899 66.17C51.7699 63.96 52.1999 60.66 50.7399 58C50.1899 56.97 49.2699 56.18 48.1599 55.81Z" fill="#49362E" style="fill:#49362E;fill:color(display-p3 0.2863 0.2118 0.1804);fill-opacity:1;"/>
<path d="M95.9998 55.81C89.9498 54.23 83.5598 54.47 77.6398 56.5C76.5698 56.88 75.9998 58.05 76.3798 59.12C76.7598 60.19 77.9298 60.76 78.9998 60.38C81.3698 59.92 83.7899 59.79 86.1899 59.98C86.1899 60.04 86.1899 60.37 86.1899 60.37C86.1899 65.26 89.3699 68.22 92.8598 68.22C94.6598 68.2 96.3699 67.46 97.6098 66.16C99.6598 63.95 100.06 60.67 98.6098 58.03C98.0599 56.99 97.1199 56.19 95.9998 55.81Z" fill="#49362E" style="fill:#49362E;fill:color(display-p3 0.2863 0.2118 0.1804);fill-opacity:1;"/>
<path d="M95.9998 55.81C89.9498 54.23 83.5598 54.47 77.6398 56.5C76.5698 56.88 75.9998 58.05 76.3798 59.12C76.7598 60.19 77.9298 60.76 78.9998 60.38C81.3698 59.92 83.7899 59.79 86.1899 59.98C86.1899 60.04 86.1899 60.37 86.1899 60.37C86.1899 65.26 89.3699 68.22 92.8598 68.22C94.6598 68.2 96.3699 67.46 97.6098 66.16C99.6598 63.95 100.06 60.67 98.6098 58.03C98.0599 56.99 97.1199 56.19 95.9998 55.81Z" fill="#1A1717" style="fill:#1A1717;fill:color(display-p3 0.1020 0.0902 0.0902);fill-opacity:1;"/>
<path d="M95.9998 55.81C89.9498 54.23 83.5598 54.47 77.6398 56.5C76.5698 56.88 75.9998 58.05 76.3798 59.12C76.7598 60.19 77.9298 60.76 78.9998 60.38C81.3698 59.92 83.7899 59.79 86.1899 59.98C86.1899 60.04 86.1899 60.37 86.1899 60.37C86.1899 65.26 89.3699 68.22 92.8598 68.22C94.6598 68.2 96.3699 67.46 97.6098 66.16C99.6598 63.95 100.06 60.67 98.6098 58.03C98.0599 56.99 97.1199 56.19 95.9998 55.81Z" fill="#49362E" style="fill:#49362E;fill:color(display-p3 0.2863 0.2118 0.1804);fill-opacity:1;"/>
<path d="M87.6799 44C86.6699 44.02 85.8399 43.21 85.8199 42.2C85.7999 41.19 86.6099 40.36 87.6199 40.34C89.5599 40.13 91.5299 40.25 93.4299 40.69C98.6099 41.74 103.21 44.71 106.29 49C107.67 51.08 104.97 52.8 103.35 51.25C99.1199 47.09 93.5899 44.53 87.6799 44Z" fill="#49362E" style="fill:#49362E;fill:color(display-p3 0.2863 0.2118 0.1804);fill-opacity:1;"/>
<path d="M87.6799 44C86.6699 44.02 85.8399 43.21 85.8199 42.2C85.7999 41.19 86.6099 40.36 87.6199 40.34C89.5599 40.13 91.5299 40.25 93.4299 40.69C98.6099 41.74 103.21 44.71 106.29 49C107.67 51.08 104.97 52.8 103.35 51.25C99.1199 47.09 93.5899 44.53 87.6799 44Z" fill="#1A1717" style="fill:#1A1717;fill:color(display-p3 0.1020 0.0902 0.0902);fill-opacity:1;"/>
<path d="M87.6799 44C86.6699 44.02 85.8399 43.21 85.8199 42.2C85.7999 41.19 86.6099 40.36 87.6199 40.34C89.5599 40.13 91.5299 40.25 93.4299 40.69C98.6099 41.74 103.21 44.71 106.29 49C107.67 51.08 104.97 52.8 103.35 51.25C99.1199 47.09 93.5899 44.53 87.6799 44Z" fill="#1A1717" style="fill:#1A1717;fill:color(display-p3 0.1020 0.0902 0.0902);fill-opacity:1;"/>
<path d="M87.6799 44C86.6699 44.02 85.8399 43.21 85.8199 42.2C85.7999 41.19 86.6099 40.36 87.6199 40.34C89.5599 40.13 91.5299 40.25 93.4299 40.69C98.6099 41.74 103.21 44.71 106.29 49C107.67 51.08 104.97 52.8 103.35 51.25C99.1199 47.09 93.5899 44.53 87.6799 44Z" fill="#613E31" style="fill:#613E31;fill:color(display-p3 0.3804 0.2431 0.1922);fill-opacity:1;"/>
<path d="M37.8799 44C38.8899 44.02 39.7199 43.21 39.7399 42.2C39.7599 41.19 38.9499 40.36 37.9399 40.34C35.9999 40.13 34.0299 40.25 32.1299 40.69C26.9499 41.74 22.3499 44.71 19.2699 49C17.8799 51.08 20.5899 52.8 22.2099 51.25C26.4399 47.09 31.9699 44.53 37.8799 44Z" fill="#49362E" style="fill:#49362E;fill:color(display-p3 0.2863 0.2118 0.1804);fill-opacity:1;"/>
<path d="M37.8799 44C38.8899 44.02 39.7199 43.21 39.7399 42.2C39.7599 41.19 38.9499 40.36 37.9399 40.34C35.9999 40.13 34.0299 40.25 32.1299 40.69C26.9499 41.74 22.3499 44.71 19.2699 49C17.8799 51.08 20.5899 52.8 22.2099 51.25C26.4399 47.09 31.9699 44.53 37.8799 44Z" fill="#1A1717" style="fill:#1A1717;fill:color(display-p3 0.1020 0.0902 0.0902);fill-opacity:1;"/>
<path d="M37.8799 44C38.8899 44.02 39.7199 43.21 39.7399 42.2C39.7599 41.19 38.9499 40.36 37.9399 40.34C35.9999 40.13 34.0299 40.25 32.1299 40.69C26.9499 41.74 22.3499 44.71 19.2699 49C17.8799 51.08 20.5899 52.8 22.2099 51.25C26.4399 47.09 31.9699 44.53 37.8799 44Z" fill="#1A1717" style="fill:#1A1717;fill:color(display-p3 0.1020 0.0902 0.0902);fill-opacity:1;"/>
<path d="M37.8799 44C38.8899 44.02 39.7199 43.21 39.7399 42.2C39.7599 41.19 38.9499 40.36 37.9399 40.34C35.9999 40.13 34.0299 40.25 32.1299 40.69C26.9499 41.74 22.3499 44.71 19.2699 49C17.8799 51.08 20.5899 52.8 22.2099 51.25C26.4399 47.09 31.9699 44.53 37.8799 44Z" fill="#613E31" style="fill:#613E31;fill:color(display-p3 0.3804 0.2431 0.1922);fill-opacity:1;"/>
<path d="M45.0599 59.18C46.4799 58.5 48.1899 59.1 48.8799 60.52C49.4099 61.63 49.1699 62.96 48.2799 63.82C46.8599 64.5 45.1499 63.9 44.4599 62.48C43.9299 61.37 44.1699 60.04 45.0599 59.18Z" fill="#555050" style="fill:#555050;fill:color(display-p3 0.3333 0.3125 0.3125);fill-opacity:1;"/>
<path d="M45.0599 59.18C46.4799 58.5 48.1899 59.1 48.8799 60.52C49.4099 61.63 49.1699 62.96 48.2799 63.82C46.8599 64.5 45.1499 63.9 44.4599 62.48C43.9299 61.37 44.1699 60.04 45.0599 59.18Z" fill="#6A564E" style="fill:#6A564E;fill:color(display-p3 0.4167 0.3385 0.3056);fill-opacity:1;"/>
<path d="M93.0598 59.18C94.4898 58.51 96.1898 59.12 96.8698 60.55C97.3898 61.66 97.1498 62.97 96.2698 63.82C94.8398 64.49 93.1398 63.88 92.4598 62.45C91.9398 61.35 92.1798 60.03 93.0598 59.18Z" fill="#555050" style="fill:#555050;fill:color(display-p3 0.3333 0.3125 0.3125);fill-opacity:1;"/>
<path d="M93.0598 59.18C94.4898 58.51 96.1898 59.12 96.8698 60.55C97.3898 61.66 97.1498 62.97 96.2698 63.82C94.8398 64.49 93.1398 63.88 92.4598 62.45C91.9398 61.35 92.1798 60.03 93.0598 59.18Z" fill="#6A564E" style="fill:#6A564E;fill:color(display-p3 0.4167 0.3385 0.3056);fill-opacity:1;"/>
<defs>
<radialGradient id="paint0_radial_169_13149" cx="0" cy="0" r="1" gradientUnits="userSpaceOnUse" gradientTransform="translate(63.6001 62.9) scale(56.9597 56.9597)">
<stop offset="0.5" stop-color="#FDE030" style="stop-color:#FDE030;stop-color:color(display-p3 0.9922 0.8784 0.1882);stop-opacity:1;"/>
<stop offset="0.92" stop-color="#F7C02B" style="stop-color:#F7C02B;stop-color:color(display-p3 0.9686 0.7529 0.1686);stop-opacity:1;"/>
<stop offset="1" stop-color="#F4A223" style="stop-color:#F4A223;stop-color:color(display-p3 0.9569 0.6353 0.1373);stop-opacity:1;"/>
</radialGradient>
<radialGradient id="paint1_radial_169_13149" cx="0" cy="0" r="1" gradientUnits="userSpaceOnUse" gradientTransform="translate(38.5991 34.5377) rotate(-43.2082) scale(102.024 101.825)">
<stop offset="0.3533" stop-color="#F9DDBD" style="stop-color:#F9DDBD;stop-color:color(display-p3 0.9765 0.8667 0.7412);stop-opacity:1;"/>
<stop offset="0.8723" stop-color="#FFD29C" style="stop-color:#FFD29C;stop-color:color(display-p3 1.0000 0.8235 0.6118);stop-opacity:1;"/>
</radialGradient>
<radialGradient id="paint2_radial_169_13149" cx="0" cy="0" r="1" gradientUnits="userSpaceOnUse" gradientTransform="translate(38.5991 34.5377) rotate(-43.2082) scale(102.024 101.825)">
<stop offset="0.3533" stop-color="#70534A" style="stop-color:#70534A;stop-color:color(display-p3 0.4392 0.3255 0.2902);stop-opacity:1;"/>
<stop offset="0.8723" stop-color="#5C4037" style="stop-color:#5C4037;stop-color:color(display-p3 0.3608 0.2510 0.2157);stop-opacity:1;"/>
</radialGradient>
<radialGradient id="paint3_radial_169_13149" cx="0" cy="0" r="1" gradientUnits="userSpaceOnUse" gradientTransform="translate(38.5991 34.5377) rotate(-43.2082) scale(102.024 101.825)">
<stop offset="0.3533" stop-color="#A37A58" style="stop-color:#A37A58;stop-color:color(display-p3 0.6375 0.4772 0.3453);stop-opacity:1;"/>
<stop offset="0.8723" stop-color="#8D5738" style="stop-color:#8D5738;stop-color:color(display-p3 0.5529 0.3412 0.2196);stop-opacity:1;"/>
</radialGradient>
<radialGradient id="paint4_radial_169_13149" cx="0" cy="0" r="1" gradientUnits="userSpaceOnUse" gradientTransform="translate(38.5991 34.5377) rotate(-43.2082) scale(102.024 101.825)">
<stop offset="0.3533" stop-color="#AD8264" style="stop-color:#AD8264;stop-color:color(display-p3 0.6784 0.5098 0.3922);stop-opacity:1;"/>
<stop offset="0.8723" stop-color="#A47B62" style="stop-color:#A47B62;stop-color:color(display-p3 0.6431 0.4824 0.3843);stop-opacity:1;"/>
</radialGradient>
</defs>
</svg>
