<svg width="128" height="128" viewBox="0 0 128 128" fill="none" xmlns="http://www.w3.org/2000/svg">
<path d="M63.6478 4.95567C106.308 5.17567 123.578 27.4157 123.908 55.1157C124.088 70.5857 114.118 83.9457 98.8378 92.0957C91.3878 97.3657 100.258 114.636 107.358 119.046C107.358 119.046 82.2578 117.336 75.3378 99.6457C71.5178 100.206 67.5878 100.496 63.5578 100.496C30.2778 100.496 3.38776 82.8157 3.38776 55.1157C3.38776 27.4157 20.5778 4.74567 63.6478 4.95567Z" fill="white" stroke="black" style="fill:white;fill-opacity:1;stroke:black;stroke-opacity:1;" stroke-width="6" stroke-miterlimit="10" stroke-linejoin="round"/>
<path d="M94.6978 61.8856C90.2795 61.8856 86.6978 58.3039 86.6978 53.8856C86.6978 49.4673 90.2795 45.8856 94.6978 45.8856C99.116 45.8856 102.698 49.4673 102.698 53.8856C102.698 58.3039 99.116 61.8856 94.6978 61.8856Z" fill="#54646D" style="fill:#54646D;fill:color(display-p3 0.3294 0.3922 0.4275);fill-opacity:1;"/>
<path d="M62.6978 61.8856C58.2795 61.8856 54.6978 58.3039 54.6978 53.8856C54.6978 49.4673 58.2795 45.8856 62.6978 45.8856C67.116 45.8856 70.6978 49.4673 70.6978 53.8856C70.6978 58.3039 67.116 61.8856 62.6978 61.8856Z" fill="#54646D" style="fill:#54646D;fill:color(display-p3 0.3294 0.3922 0.4275);fill-opacity:1;"/>
<path d="M31.8979 61.8856C27.4797 61.8856 23.8979 58.3039 23.8979 53.8856C23.8979 49.4673 27.4797 45.8856 31.8979 45.8856C36.3162 45.8856 39.8979 49.4673 39.8979 53.8856C39.8979 58.3039 36.3162 61.8856 31.8979 61.8856Z" fill="#54646D" style="fill:#54646D;fill:color(display-p3 0.3294 0.3922 0.4275);fill-opacity:1;"/>
</svg>
