<svg width="128" height="129" viewBox="0 0 128 129" fill="none" xmlns="http://www.w3.org/2000/svg">
<path d="M75.5938 8.54781C75.5938 8.54781 75.4917 14.6519 75.623 33.5593L75.5938 91.2385C76.1334 98.3868 72.9251 106.666 66.3335 113.22C56.0231 123.471 41.3962 125.544 33.6671 117.86C25.938 110.175 28.0234 95.6318 38.3337 85.3807C45.5087 78.2614 54.7544 75.086 62.3231 76.3909C63.1981 76.5504 64.0002 75.8545 64.0002 74.97V8.54764L75.5938 8.54781Z" fill="#C4C4C4" style="fill:#C4C4C4;fill:color(display-p3 0.7686 0.7686 0.7686);fill-opacity:1;"/>
<path d="M75.5938 8.54781C75.5938 8.54781 75.4917 14.6519 75.623 33.5593L75.5938 91.2385C76.1334 98.3868 72.9251 106.666 66.3335 113.22C56.0231 123.471 41.3962 125.544 33.6671 117.86C25.938 110.175 28.0234 95.6318 38.3337 85.3807C45.5087 78.2614 54.7544 75.086 62.3231 76.3909C63.1981 76.5504 64.0002 75.8545 64.0002 74.97V8.54764L75.5938 8.54781Z" fill="url(#paint0_radial_183_610)" style=""/>
<path d="M75.5938 8.54781C75.5938 8.54781 75.4917 14.6519 75.623 33.5593L75.5938 91.2385C76.1334 98.3868 72.9251 106.666 66.3335 113.22C56.0231 123.471 41.3962 125.544 33.6671 117.86C25.938 110.175 28.0234 95.6318 38.3337 85.3807C45.5087 78.2614 54.7544 75.086 62.3231 76.3909C63.1981 76.5504 64.0002 75.8545 64.0002 74.97V8.54764L75.5938 8.54781Z" fill="url(#paint1_linear_183_610)" style=""/>
<path d="M75.5938 8.54781C75.5938 8.54781 75.4917 14.6519 75.623 33.5593L75.5938 91.2385C76.1334 98.3868 72.9251 106.666 66.3335 113.22C56.0231 123.471 41.3962 125.544 33.6671 117.86C25.938 110.175 28.0234 95.6318 38.3337 85.3807C45.5087 78.2614 54.7544 75.086 62.3231 76.3909C63.1981 76.5504 64.0002 75.8545 64.0002 74.97V8.54764L75.5938 8.54781Z" fill="url(#paint2_linear_183_610)" style=""/>
<path d="M75.5938 8.54781C75.5938 8.54781 75.4917 14.6519 75.623 33.5593L75.5938 91.2385C76.1334 98.3868 72.9251 106.666 66.3335 113.22C56.0231 123.471 41.3962 125.544 33.6671 117.86C25.938 110.175 28.0234 95.6318 38.3337 85.3807C45.5087 78.2614 54.7544 75.086 62.3231 76.3909C63.1981 76.5504 64.0002 75.8545 64.0002 74.97V8.54764L75.5938 8.54781Z" fill="#546E7A" style="fill:#546E7A;fill:color(display-p3 0.3294 0.4314 0.4784);fill-opacity:1;"/>
<defs>
<radialGradient id="paint0_radial_183_610" cx="0" cy="0" r="1" gradientUnits="userSpaceOnUse" gradientTransform="translate(52.3261 8.54764) rotate(90) scale(121.549 49.7623)">
<stop stop-color="#616161" style="stop-color:#616161;stop-color:color(display-p3 0.3804 0.3804 0.3804);stop-opacity:1;"/>
<stop offset="0.827" stop-color="#212121" style="stop-color:#212121;stop-color:color(display-p3 0.1294 0.1294 0.1294);stop-opacity:1;"/>
</radialGradient>
<linearGradient id="paint1_linear_183_610" x1="52.3261" y1="9.29732" x2="52.3261" y2="122.32" gradientUnits="userSpaceOnUse">
<stop stop-color="#757575" style="stop-color:#757575;stop-color:color(display-p3 0.4588 0.4588 0.4588);stop-opacity:1;"/>
<stop offset="0.5148" stop-color="#504F4F" style="stop-color:#504F4F;stop-color:color(display-p3 0.3137 0.3098 0.3098);stop-opacity:1;"/>
</linearGradient>
<linearGradient id="paint2_linear_183_610" x1="52.3261" y1="12.2662" x2="52.3261" y2="116.939" gradientUnits="userSpaceOnUse">
<stop stop-color="#757575" style="stop-color:#757575;stop-color:color(display-p3 0.4588 0.4588 0.4588);stop-opacity:1;"/>
<stop offset="0.5148" stop-color="#504F4F" style="stop-color:#504F4F;stop-color:color(display-p3 0.3137 0.3098 0.3098);stop-opacity:1;"/>
</linearGradient>
</defs>
</svg>
