<svg width="128" height="128" viewBox="0 0 128 128" fill="none" xmlns="http://www.w3.org/2000/svg">
<g opacity="0.2">
<path d="M99.73 7.09009C102.49 7.09009 104.73 9.33009 104.73 12.0901V116.09C104.73 118.85 102.49 121.09 99.73 121.09H27.73C24.97 121.09 22.73 118.85 22.73 116.09V12.0901C22.73 9.33009 24.97 7.09009 27.73 7.09009H99.73ZM99.73 4.09009H27.73C23.31 4.09009 19.73 7.67009 19.73 12.0901V116.09C19.73 120.51 23.31 124.09 27.73 124.09H99.73C104.15 124.09 107.73 120.51 107.73 116.09V12.0901C107.73 7.67009 104.15 4.09009 99.73 4.09009Z" fill="#212121" style="fill:#212121;fill:color(display-p3 0.1294 0.1294 0.1294);fill-opacity:1;"/>
<path d="M99.73 7.09009C102.49 7.09009 104.73 9.33009 104.73 12.0901V116.09C104.73 118.85 102.49 121.09 99.73 121.09H27.73C24.97 121.09 22.73 118.85 22.73 116.09V12.0901C22.73 9.33009 24.97 7.09009 27.73 7.09009H99.73ZM99.73 4.09009H27.73C23.31 4.09009 19.73 7.67009 19.73 12.0901V116.09C19.73 120.51 23.31 124.09 27.73 124.09H99.73C104.15 124.09 107.73 120.51 107.73 116.09V12.0901C107.73 7.67009 104.15 4.09009 99.73 4.09009Z" fill="#212121" style="fill:#212121;fill:color(display-p3 0.1294 0.1294 0.1294);fill-opacity:1;"/>
<path d="M99.73 7.09009C102.49 7.09009 104.73 9.33009 104.73 12.0901V116.09C104.73 118.85 102.49 121.09 99.73 121.09H27.73C24.97 121.09 22.73 118.85 22.73 116.09V12.0901C22.73 9.33009 24.97 7.09009 27.73 7.09009H99.73ZM99.73 4.09009H27.73C23.31 4.09009 19.73 7.67009 19.73 12.0901V116.09C19.73 120.51 23.31 124.09 27.73 124.09H99.73C104.15 124.09 107.73 120.51 107.73 116.09V12.0901C107.73 7.67009 104.15 4.09009 99.73 4.09009Z" fill="#212121" style="fill:#212121;fill:color(display-p3 0.1294 0.1294 0.1294);fill-opacity:1;"/>
</g>
<path d="M102.29 125.43L26.2695 125.06C22.8195 125.06 20.0195 122.26 20.0195 118.81L32.2195 26.6801L102.41 4.5001C108.54 4.1701 108.89 7.0301 108.89 10.4801L108.52 119.17C108.54 122.64 105.74 125.43 102.29 125.43Z" fill="#D9CDC9" style="fill:#D9CDC9;fill:color(display-p3 0.8510 0.8039 0.7882);fill-opacity:1;"/>
<path d="M101.83 122.06C101.83 122.06 44.0696 123.04 25.3596 121.98C21.7796 121.78 20.0296 120.36 20.0196 118.82L19.8496 10.3301C19.8496 6.88008 22.6496 4.08008 26.0996 4.08008L101.74 4.40008C105.19 4.40008 106.5 7.26008 106.5 10.7101L105.93 116.11C105.91 119.56 105.28 122.06 101.83 122.06Z" fill="#F1EDEC" style="fill:#F1EDEC;fill:color(display-p3 0.9451 0.9294 0.9255);fill-opacity:1;"/>
<path d="M62.9668 108C62.9668 111.068 60.7757 113 57.6001 113C54.4245 113 51.8501 110.513 51.8501 107.444C51.8635 107.179 51.8571 106.919 51.8501 106.663C51.8501 104.636 52.8762 102.67 53.7668 100.83C54.6826 98.9379 56.003 97.2797 57.2407 95.5868C59.1579 92.9647 63.3501 88 63.3501 88C63.3501 88 67.5423 92.9647 69.4595 95.5868C70.6972 97.2797 72.0176 98.9379 72.9334 100.83C73.824 102.67 74.8501 104.636 74.8501 106.663C74.8392 106.934 74.843 107.195 74.8501 107.444C74.8501 110.513 72.2757 113 69.1001 113C65.9245 113 63.7334 111.068 63.7334 108C63.7334 107.444 62.9668 107.444 62.9668 108Z" fill="#F44336" style="fill:#F44336;fill:color(display-p3 0.9569 0.2627 0.2118);fill-opacity:1;"/>
<path d="M62.9668 24C62.9668 20.9318 60.7757 19 57.6001 19C54.4245 19 51.8501 21.4873 51.8501 24.5556C51.8635 24.821 51.8571 25.0809 51.8501 25.3368C51.8501 27.3642 52.8762 29.3304 53.7668 31.1701C54.6826 33.0621 56.003 34.7203 57.2407 36.4132C59.1579 39.0353 63.3501 44 63.3501 44C63.3501 44 67.5423 39.0353 69.4595 36.4132C70.6972 34.7203 72.0176 33.0621 72.9334 31.1701C73.824 29.3304 74.8501 27.3642 74.8501 25.3368C74.8392 25.0661 74.843 24.805 74.8501 24.5556C74.8501 21.4873 72.2757 19 69.1001 19C65.9245 19 63.7334 20.9318 63.7334 24C63.7334 24.5556 62.9668 24.5556 62.9668 24Z" fill="#F44336" style="fill:#F44336;fill:color(display-p3 0.9569 0.2627 0.2118);fill-opacity:1;"/>
<path d="M62.9668 57C62.9668 53.9318 60.7757 52 57.6001 52C54.4245 52 51.8501 54.4873 51.8501 57.5556C51.8635 57.821 51.8571 58.0809 51.8501 58.3368C51.8501 60.3642 52.8762 62.3304 53.7668 64.1701C54.6826 66.0621 56.003 67.7203 57.2407 69.4132C59.1579 72.0353 63.3501 77 63.3501 77C63.3501 77 67.5423 72.0353 69.4595 69.4132C70.6972 67.7203 72.0176 66.0621 72.9334 64.1701C73.824 62.3304 74.8501 60.3642 74.8501 58.3368C74.8392 58.0661 74.843 57.805 74.8501 57.5556C74.8501 54.4873 72.2757 52 69.1001 52C65.9245 52 63.7334 53.9318 63.7334 57C63.7334 57.5556 62.9668 57.5556 62.9668 57Z" fill="#F44336" style="fill:#F44336;fill:color(display-p3 0.9569 0.2627 0.2118);fill-opacity:1;"/>
</svg>
