<svg width="128" height="128" viewBox="0 0 128 128" fill="none" xmlns="http://www.w3.org/2000/svg">
<path d="M63.6001 118.8C35.7001 118.8 5.6001 101.3 5.6001 62.9C5.6001 24.5 35.7001 7 63.6001 7C79.1001 7 93.4001 12.1 104 21.4C115.5 31.6 121.6 46 121.6 62.9C121.6 79.8 115.5 94.1 104 104.3C93.4001 113.6 79.0001 118.8 63.6001 118.8Z" fill="url(#paint0_radial_169_5235)" style=""/>
<path d="M63.6001 118.8C35.7001 118.8 5.6001 101.3 5.6001 62.9C5.6001 24.5 35.7001 7 63.6001 7C79.1001 7 93.4001 12.1 104 21.4C115.5 31.6 121.6 46 121.6 62.9C121.6 79.8 115.5 94.1 104 104.3C93.4001 113.6 79.0001 118.8 63.6001 118.8Z" fill="url(#paint1_radial_169_5235)" style=""/>
<path opacity="0.8" d="M27.25 91.66C36.915 91.66 44.75 83.825 44.75 74.16C44.75 64.4951 36.915 56.66 27.25 56.66C17.585 56.66 9.75 64.4951 9.75 74.16C9.75 83.825 17.585 91.66 27.25 91.66Z" fill="url(#paint2_radial_169_5235)" style=""/>
<path d="M50.1499 59.1001L49.9999 58.8801L49.7899 58.6101C49.7099 58.5001 49.6299 58.4101 49.5299 58.3201L48.9099 57.7001C48.6599 57.4501 48.3599 57.1801 48.0499 56.9101C47.3899 56.3401 46.6499 55.8801 45.8499 55.5201C45.0699 55.1701 44.2199 55.0001 43.3699 55.0001H42.9999C42.8999 54.9801 42.8099 54.9801 42.7099 55.0001C42.5299 55.0201 42.3499 55.0501 42.1699 55.0901C41.7499 55.1901 41.3499 55.3201 40.9499 55.4801C40.1499 55.8401 39.4099 56.3001 38.7499 56.8701C38.2099 57.3301 37.7099 57.8201 37.2399 58.3401L36.6699 58.9801L36.3699 59.3201C35.1799 60.7201 33.0799 60.9001 31.6799 59.7101C30.6099 58.8001 30.2199 57.3201 30.7099 56.0001L30.8199 55.6801C30.9199 55.3701 31.0399 55.0701 31.1699 54.7701C31.6499 53.6801 32.2599 52.6601 32.9999 51.7301C34.7499 49.4201 37.2099 47.7401 39.9999 46.9401C40.5699 46.7901 41.1499 46.6801 41.7399 46.6001C42.0399 46.6001 42.4799 46.5101 42.6099 46.5101H43.3699C44.5099 46.5301 45.6399 46.6901 46.7399 46.9801C47.7899 47.2701 48.7999 47.6901 49.7399 48.2301C51.2899 49.1301 52.6499 50.3401 53.7399 51.7701C54.1599 52.3101 54.5399 52.8701 54.8699 53.4701C55.1399 53.9401 55.3799 54.4201 55.5899 54.9101C55.6699 55.0701 55.7399 55.2401 55.7899 55.4101C55.7899 55.5401 55.8699 55.6501 55.8999 55.7401L55.9999 56.0001C56.5699 57.7701 55.5999 59.6701 53.8299 60.2401C52.4899 60.6601 51.0199 60.2001 50.1499 59.1001Z" fill="#312D2D" style="fill:#312D2D;fill:color(display-p3 0.1922 0.1765 0.1765);fill-opacity:1;"/>
<path d="M93.4799 59.1001L93.2999 58.8801L93.0899 58.6101C93.0099 58.5001 92.9299 58.4101 92.8299 58.3201L92.2099 57.7001C91.9599 57.4501 91.6599 57.1801 91.3499 56.9101C90.6899 56.3401 89.9499 55.8801 89.1499 55.5201C88.3799 55.1801 87.5399 55.0001 86.6999 55.0001H86.2899C86.1899 54.9801 86.0999 54.9801 85.9999 55.0001C85.8199 55.0201 85.6399 55.0501 85.4599 55.0901C85.0399 55.1901 84.6399 55.3201 84.2399 55.4801C83.4299 55.8501 82.6699 56.3301 81.9999 56.9101C81.4599 57.3701 80.9599 57.8601 80.4799 58.3801L79.9999 59.0001L79.6999 59.3401C78.5799 60.8001 76.4899 61.0701 75.0299 59.9401C73.8299 59.0201 73.3999 57.4001 73.9999 56.0001L74.1099 55.6801C74.2099 55.3701 74.3299 55.0701 74.4599 54.7701C74.9299 53.6701 75.5499 52.6401 76.2799 51.6901C78.0299 49.3801 80.4899 47.7001 83.2799 46.9001C83.8499 46.7501 84.4299 46.6401 85.0199 46.5601C85.3199 46.5601 85.7499 46.4701 85.8899 46.4701H86.6499C87.7899 46.4901 88.9199 46.6501 90.0199 46.9401C91.0699 47.2301 92.0799 47.6501 93.0199 48.1901C94.5699 49.0901 95.9299 50.3001 97.0199 51.7301C97.4399 52.2701 97.8199 52.8301 98.1499 53.4301C98.4199 53.9001 98.6599 54.3801 98.8699 54.8701C98.9499 55.0301 99.0199 55.2001 99.0699 55.3701L99.1799 55.7001L99.2699 55.9701C99.8399 57.7401 98.8699 59.6301 97.0999 60.2001C95.7699 60.6301 94.3199 60.1901 93.4499 59.1001H93.4799Z" fill="#312D2D" style="fill:#312D2D;fill:color(display-p3 0.1922 0.1765 0.1765);fill-opacity:1;"/>
<path d="M72.8601 84.9301C74.5701 83.4201 75.6401 81.3301 75.8601 79.0601C76.0501 75.4601 75.1301 74.2201 73.9501 72.6501C71.2401 69.0001 63.5501 69.8701 63.5501 69.8701C61.5501 69.9501 59.1101 70.9301 59.4001 73.3101C59.7901 74.6601 60.8901 75.6901 62.2701 76.0001C65.2701 76.7301 69.6401 76.0001 69.7601 79.0901C69.9001 82.5501 64.5801 81.0901 64.1601 84.7901C63.7401 88.4901 69.7601 87.9801 69.7601 90.5001C69.7601 92.4301 67.7601 92.7601 65.6901 93.2001C63.9001 93.5701 60.4601 94.1301 60.1801 96.2001C59.9001 98.2701 61.0901 100.77 65.9301 100.04C73.5401 98.8901 76.1001 94.7201 76.1001 92.1601C76.1501 89.3901 74.9601 86.7401 72.8601 84.9301Z" fill="#312D2D" style="fill:#312D2D;fill:color(display-p3 0.1922 0.1765 0.1765);fill-opacity:1;"/>
<path d="M47.1799 32.6101C49.4899 32.6101 50.1799 29.4801 47.7099 28.9601C45.7899 28.6001 43.8199 28.5401 41.8799 28.7901C36.6299 29.3801 31.7999 31.9601 28.3799 36.0001C26.8099 37.9201 29.3799 39.9401 31.0699 38.5101C35.6299 34.8001 41.2999 32.7201 47.1799 32.6101Z" fill="#312D2D" style="fill:#312D2D;fill:color(display-p3 0.1922 0.1765 0.1765);fill-opacity:1;"/>
<path d="M80.0001 33.29C77.7101 33.55 76.7301 30.47 79.1101 29.71C81.0001 29.17 82.9701 28.93 84.9401 29C90.2301 29.07 95.2901 31.17 99.0801 34.86C100.83 36.62 98.4801 38.86 96.6501 37.62C91.7401 34.35 85.8801 32.82 80.0001 33.29Z" fill="#312D2D" style="fill:#312D2D;fill:color(display-p3 0.1922 0.1765 0.1765);fill-opacity:1;"/>
<path d="M111.49 29.67C116.82 38.27 119.6 48.51 119.6 59.9C119.6 76.8 113.5 91.1 102 101.3C91.3999 110.6 76.9999 115.8 61.5999 115.8C43.5399 115.8 24.5999 108.45 13.4199 92.86C24.1799 110.52 44.4199 118.8 63.5999 118.8C78.9999 118.8 93.3999 113.6 104 104.3C115.5 94.1001 121.6 79.8 121.6 62.9C121.6 50.16 118.13 38.84 111.49 29.67Z" fill="#EB8F00" style="fill:#EB8F00;fill:color(display-p3 0.9216 0.5608 0.0000);fill-opacity:1;"/>
<path d="M111.49 29.67C116.82 38.27 119.6 48.51 119.6 59.9C119.6 76.8 113.5 91.1 102 101.3C91.3999 110.6 76.9999 115.8 61.5999 115.8C43.5399 115.8 24.5999 108.45 13.4199 92.86C24.1799 110.52 44.4199 118.8 63.5999 118.8C78.9999 118.8 93.3999 113.6 104 104.3C115.5 94.1001 121.6 79.8 121.6 62.9C121.6 50.16 118.13 38.84 111.49 29.67Z" fill="#F3B872" style="fill:#F3B872;fill:color(display-p3 0.9542 0.7229 0.4453);fill-opacity:1;"/>
<path opacity="0.8" d="M100.63 91.66C110.295 91.66 118.13 83.825 118.13 74.16C118.13 64.4951 110.295 56.66 100.63 56.66C90.9649 56.66 83.1299 64.4951 83.1299 74.16C83.1299 83.825 90.9649 91.66 100.63 91.66Z" fill="url(#paint3_radial_169_5235)" style=""/>
<defs>
<radialGradient id="paint0_radial_169_5235" cx="0" cy="0" r="1" gradientUnits="userSpaceOnUse" gradientTransform="translate(63.6001 62.9) scale(56.9597 56.9597)">
<stop offset="0.5" stop-color="#FDE030" style="stop-color:#FDE030;stop-color:color(display-p3 0.9922 0.8784 0.1882);stop-opacity:1;"/>
<stop offset="0.92" stop-color="#F7C02B" style="stop-color:#F7C02B;stop-color:color(display-p3 0.9686 0.7529 0.1686);stop-opacity:1;"/>
<stop offset="1" stop-color="#F4A223" style="stop-color:#F4A223;stop-color:color(display-p3 0.9569 0.6353 0.1373);stop-opacity:1;"/>
</radialGradient>
<radialGradient id="paint1_radial_169_5235" cx="0" cy="0" r="1" gradientUnits="userSpaceOnUse" gradientTransform="translate(38.5991 34.5377) rotate(-43.2082) scale(102.024 101.825)">
<stop offset="0.3533" stop-color="#F9DDBD" style="stop-color:#F9DDBD;stop-color:color(display-p3 0.9765 0.8667 0.7412);stop-opacity:1;"/>
<stop offset="0.8723" stop-color="#FFD29C" style="stop-color:#FFD29C;stop-color:color(display-p3 1.0000 0.8235 0.6118);stop-opacity:1;"/>
</radialGradient>
<radialGradient id="paint2_radial_169_5235" cx="0" cy="0" r="1" gradientUnits="userSpaceOnUse" gradientTransform="translate(27.25 74.1223) scale(19.0628 18.0902)">
<stop stop-color="#ED7770" style="stop-color:#ED7770;stop-color:color(display-p3 0.9294 0.4667 0.4392);stop-opacity:1;"/>
<stop offset="0.08" stop-color="#ED7770" stop-opacity="0.96" style="stop-color:#ED7770;stop-color:color(display-p3 0.9294 0.4667 0.4392);stop-opacity:0.96;"/>
<stop offset="0.22" stop-color="#ED7770" stop-opacity="0.85" style="stop-color:#ED7770;stop-color:color(display-p3 0.9294 0.4667 0.4392);stop-opacity:0.85;"/>
<stop offset="0.39" stop-color="#ED7770" stop-opacity="0.68" style="stop-color:#ED7770;stop-color:color(display-p3 0.9294 0.4667 0.4392);stop-opacity:0.68;"/>
<stop offset="0.59" stop-color="#ED7770" stop-opacity="0.43" style="stop-color:#ED7770;stop-color:color(display-p3 0.9294 0.4667 0.4392);stop-opacity:0.43;"/>
<stop offset="0.81" stop-color="#ED7770" stop-opacity="0.13" style="stop-color:#ED7770;stop-color:color(display-p3 0.9294 0.4667 0.4392);stop-opacity:0.13;"/>
<stop offset="0.9" stop-color="#ED7770" stop-opacity="0" style="stop-color:none;stop-opacity:0;"/>
</radialGradient>
<radialGradient id="paint3_radial_169_5235" cx="0" cy="0" r="1" gradientUnits="userSpaceOnUse" gradientTransform="translate(100.635 74.1223) scale(19.0628 18.0902)">
<stop stop-color="#ED7770" style="stop-color:#ED7770;stop-color:color(display-p3 0.9294 0.4667 0.4392);stop-opacity:1;"/>
<stop offset="0.08" stop-color="#ED7770" stop-opacity="0.96" style="stop-color:#ED7770;stop-color:color(display-p3 0.9294 0.4667 0.4392);stop-opacity:0.96;"/>
<stop offset="0.22" stop-color="#ED7770" stop-opacity="0.85" style="stop-color:#ED7770;stop-color:color(display-p3 0.9294 0.4667 0.4392);stop-opacity:0.85;"/>
<stop offset="0.39" stop-color="#ED7770" stop-opacity="0.68" style="stop-color:#ED7770;stop-color:color(display-p3 0.9294 0.4667 0.4392);stop-opacity:0.68;"/>
<stop offset="0.59" stop-color="#ED7770" stop-opacity="0.43" style="stop-color:#ED7770;stop-color:color(display-p3 0.9294 0.4667 0.4392);stop-opacity:0.43;"/>
<stop offset="0.81" stop-color="#ED7770" stop-opacity="0.13" style="stop-color:#ED7770;stop-color:color(display-p3 0.9294 0.4667 0.4392);stop-opacity:0.13;"/>
<stop offset="0.9" stop-color="#ED7770" stop-opacity="0" style="stop-color:none;stop-opacity:0;"/>
</radialGradient>
</defs>
</svg>
