<svg width="128" height="128" viewBox="0 0 128 128" fill="none" xmlns="http://www.w3.org/2000/svg">
<path d="M103.13 102.43C83.3999 122.16 49.7399 131.07 22.5899 103.91C-4.56006 76.75 4.33994 43.1 24.0699 23.37C34.9999 12.41 48.7499 5.91002 62.8199 5.00002C78.1699 4.08002 92.6599 9.95002 104.61 21.9C116.56 33.85 122.36 48.27 121.44 63.62C120.52 77.68 114 91.54 103.13 102.43Z" fill="url(#paint0_radial_169_8433)" style=""/>
<path d="M103.13 102.43C83.3999 122.16 49.7399 131.07 22.5899 103.91C-4.56006 76.75 4.33994 43.1 24.0699 23.37C34.9999 12.41 48.7499 5.91002 62.8199 5.00002C78.1699 4.08002 92.6599 9.95002 104.61 21.9C116.56 33.85 122.36 48.27 121.44 63.62C120.52 77.68 114 91.54 103.13 102.43Z" fill="url(#paint1_radial_169_8433)" style=""/>
<path d="M103.13 102.43C83.3999 122.16 49.7399 131.07 22.5899 103.91C-4.56006 76.75 4.33994 43.1 24.0699 23.37C34.9999 12.41 48.7499 5.91002 62.8199 5.00002C78.1699 4.08002 92.6599 9.95002 104.61 21.9C116.56 33.85 122.36 48.27 121.44 63.62C120.52 77.68 114 91.54 103.13 102.43Z" fill="url(#paint2_radial_169_8433)" style=""/>
<path d="M74 5.54004C83.84 7.85004 93 13.13 101.11 21.18C113.11 33.18 118.86 47.56 117.94 62.9C117 77 110.48 90.83 99.59 101.72C86.82 114.49 68.21 122.72 49.3 119.57C69.4 124.45 89.56 116 103.13 102.43C114 91.54 120.52 77.68 121.44 63.61C122.36 48.26 116.56 33.84 104.61 21.89C95.6001 12.88 85.14 7.33004 74 5.54004Z" fill="#EB8F00" style="fill:#EB8F00;fill:color(display-p3 0.9216 0.5608 0.0000);fill-opacity:1;"/>
<path d="M74 5.54004C83.84 7.85004 93 13.13 101.11 21.18C113.11 33.18 118.86 47.56 117.94 62.9C117 77 110.48 90.83 99.59 101.72C86.82 114.49 68.21 122.72 49.3 119.57C69.4 124.45 89.56 116 103.13 102.43C114 91.54 120.52 77.68 121.44 63.61C122.36 48.26 116.56 33.84 104.61 21.89C95.6001 12.88 85.14 7.33004 74 5.54004Z" fill="#4A2F27" style="fill:#4A2F27;fill:color(display-p3 0.2902 0.1843 0.1529);fill-opacity:1;"/>
<path d="M96.71 39.56C93.94 38.76 91 40.13 89.83 42.77C84.68 52.14 78.21 60.71 70.62 68.24C63.1 75.83 54.52 82.3 45.15 87.44C42.52 88.62 41.16 91.55 41.94 94.32C42.76 97.07 45.51 98.42 48.1 99.39C62.61 104.82 78.58 100.78 90.85 88.58L90.97 88.47C103.16 76.2 107.2 60.23 101.77 45.71C100.81 43.13 99.45 40.37 96.71 39.56Z" fill="#422B0D" style="fill:#422B0D;fill:color(display-p3 0.2588 0.1686 0.0510);fill-opacity:1;"/>
<path d="M96.71 39.56C93.94 38.76 91 40.13 89.83 42.77C84.68 52.14 78.21 60.71 70.62 68.24C63.1 75.83 54.52 82.3 45.15 87.44C42.52 88.62 41.16 91.55 41.94 94.32C42.76 97.07 45.51 98.42 48.1 99.39C62.61 104.82 78.58 100.78 90.85 88.58L90.97 88.47C103.16 76.2 107.2 60.23 101.77 45.71C100.81 43.13 99.45 40.37 96.71 39.56Z" fill="#1A1717" style="fill:#1A1717;fill:color(display-p3 0.1020 0.0902 0.0902);fill-opacity:1;"/>
<path d="M90.08 87.58L90.02 87.64V87.7L90.08 87.58Z" fill="#422B0D" style="fill:#422B0D;fill:color(display-p3 0.2588 0.1686 0.0510);fill-opacity:1;"/>
<path d="M71.6099 69L71.4999 69.1L71.3999 69.21L71.6099 69Z" fill="#422B0D" style="fill:#422B0D;fill:color(display-p3 0.2588 0.1686 0.0510);fill-opacity:1;"/>
<path d="M71.6099 69L71.4999 69.1L71.3999 69.21L71.6099 69Z" fill="#422B0D" style="fill:#422B0D;fill:color(display-p3 0.2588 0.1686 0.0510);fill-opacity:1;"/>
<path d="M90.08 87.58L90.02 87.64V87.7L90.08 87.58Z" fill="#422B0D" style="fill:#422B0D;fill:color(display-p3 0.2588 0.1686 0.0510);fill-opacity:1;"/>
<path d="M99.3999 74.38C98.8899 74.38 98.3999 74.45 97.9199 74.49C92.4899 74.84 87.3899 77.21 83.6199 81.13C79.5799 85.01 77.0199 90.19 76.3799 95.76C76.3199 96.25 76.2599 96.76 76.2299 97.24C76.1999 97.72 76.3099 98.12 76.3699 98.52C81.7799 96.14 86.6899 92.77 90.8499 88.58L90.9699 88.47C94.9799 84.48 98.2399 79.8 100.59 74.66C100.2 74.54 99.7999 74.45 99.3999 74.38Z" fill="#ED7770" style="fill:#ED7770;fill:color(display-p3 0.9294 0.4667 0.4392);fill-opacity:1;"/>
<path d="M89.83 42.77C84.68 52.14 78.21 60.71 70.62 68.24C63.1 75.83 54.52 82.3 45.15 87.44C42.52 88.62 41.16 91.55 41.94 94.32C42.07 94.73 42.24 95.12 42.46 95.49C42.87 95.35 43.26 95.19 43.65 95C56.42 90.76 68 83.54 77.41 73.92C86.64 64.89 93.68 53.88 98 41.71C98.17 41.3 98.32 40.88 98.45 40.45C97.93 40.05 97.34 39.74 96.71 39.56C93.94 38.76 91 40.13 89.83 42.77Z" fill="white" style="fill:white;fill-opacity:1;"/>
<path d="M71.4001 69.74C77.2701 64.06 81.1101 58.48 85.7301 51.68C86.8801 49.98 87.97 48.24 89.02 46.45L89.78 45.1C89.98 44.75 90.2001 44.41 90.46 44.1C90.92 43.53 91.5101 43.09 92.1901 42.81C93.7701 42.23 95.5 42.2 97.1 42.73C100.35 44.29 103.18 49.85 102.82 48.81C102.82 48.81 102.23 46.48 102.21 46.45C101.41 44.45 100.59 42.19 98.52 40.45C96.3 38.76 93.3401 38.42 90.8001 39.57C89.6101 40.11 88.5801 40.94 87.8001 41.98C87.4201 42.46 87.0801 42.98 86.8001 43.53L86.13 44.85C85.2 46.6 84.21 48.33 83.13 50.02C79.29 56.43 74.7601 62.4 69.6201 67.82L69.4601 67.98C64.1501 73.06 58.3001 77.53 52.0001 81.31C50.3001 82.31 48.5801 83.31 46.8301 84.31L45.4701 85C44.9201 85.28 44.4 85.61 43.92 86C42.87 86.78 42.0401 87.81 41.5001 89C40.4301 91.52 40.8101 94.43 42.5001 96.59C45.1901 100.1 51.3301 100.59 51.3601 100.59C52.3601 100.95 46.3001 98.37 44.7401 95.12C44.1901 93.58 44.1901 91.89 44.7401 90.35C45.0001 89.65 45.4301 89.03 46.0001 88.55C46.3101 88.29 46.6501 88.07 47.0001 87.88L48.35 87.12C50.13 86.12 51.8701 84.97 53.5801 83.82C60.3701 79.2 65.5801 75.82 71.2301 69.9" fill="#EB8F00" style="fill:#EB8F00;fill:color(display-p3 0.9216 0.5608 0.0000);fill-opacity:1;"/>
<path d="M71.4001 69.74C77.2701 64.06 81.1101 58.48 85.7301 51.68C86.8801 49.98 87.97 48.24 89.02 46.45L89.78 45.1C89.98 44.75 90.2001 44.41 90.46 44.1C90.92 43.53 91.5101 43.09 92.1901 42.81C93.7701 42.23 95.5 42.2 97.1 42.73C100.35 44.29 103.18 49.85 102.82 48.81C102.82 48.81 102.23 46.48 102.21 46.45C101.41 44.45 100.59 42.19 98.52 40.45C96.3 38.76 93.3401 38.42 90.8001 39.57C89.6101 40.11 88.5801 40.94 87.8001 41.98C87.4201 42.46 87.0801 42.98 86.8001 43.53L86.13 44.85C85.2 46.6 84.21 48.33 83.13 50.02C79.29 56.43 74.7601 62.4 69.6201 67.82L69.4601 67.98C64.1501 73.06 58.3001 77.53 52.0001 81.31C50.3001 82.31 48.5801 83.31 46.8301 84.31L45.4701 85C44.9201 85.28 44.4 85.61 43.92 86C42.87 86.78 42.0401 87.81 41.5001 89C40.4301 91.52 40.8101 94.43 42.5001 96.59C45.1901 100.1 51.3301 100.59 51.3601 100.59C52.3601 100.95 46.3001 98.37 44.7401 95.12C44.1901 93.58 44.1901 91.89 44.7401 90.35C45.0001 89.65 45.4301 89.03 46.0001 88.55C46.3101 88.29 46.6501 88.07 47.0001 87.88L48.35 87.12C50.13 86.12 51.8701 84.97 53.5801 83.82C60.3701 79.2 65.5801 75.82 71.2301 69.9" fill="#4A2F27" style="fill:#4A2F27;fill:color(display-p3 0.2902 0.1843 0.1529);fill-opacity:1;"/>
<path d="M115.13 31.34C116.33 38.98 109.31 46.22 102.94 47.08C98.46 47.68 93.46 46.65 85.94 44.78C84.83 44.57 83.7 44.24 82.46 43.93C77.88 42.66 73.38 41.13 68.97 39.35C68.1 39.03 67.62 38.11 67.84 37.22C67.97 36.84 68.23 36.51 68.56 36.29C71.93 32.83 75.73 29.81 79.85 27.29C90.26 20.85 94.22 19.98 98.7 19.38C104.88 18.37 113.83 23 115.13 31.34Z" fill="url(#paint3_radial_169_8433)" style=""/>
<path d="M105.52 24.19C108.43 25.57 108.45 29.56 104.01 30.19C101.16 30.57 86.49 31.95 88.2 29.24C91 24.79 101.41 22.24 105.52 24.19Z" fill="#81D4FA" style="fill:#81D4FA;fill:color(display-p3 0.5059 0.8314 0.9804);fill-opacity:1;"/>
<path d="M72.6498 31.1L63.4198 39.38L66.8398 26.23C66.8698 26.07 66.8998 25.92 66.9098 25.76C67.2898 23.48 65.7398 21.32 63.4598 20.95C62.9198 20.86 62.3598 20.88 61.8198 21C59.3898 21.67 57.6298 23.79 57.4298 26.3C56.8598 32.11 55.5198 45.8 54.9998 51.13C54.8398 51.66 55.1398 52.22 55.6698 52.38C56.0198 52.49 56.3998 52.39 56.6598 52.13L77.3498 39.05L77.7598 38.76C80.2598 36.84 80.8698 33.18 78.8498 31.06C77.3098 29.44 74.6498 29.57 72.6498 31.1Z" fill="#422B0D" style="fill:#422B0D;fill:color(display-p3 0.2588 0.1686 0.0510);fill-opacity:1;"/>
<path d="M72.6498 31.1L63.4198 39.38L66.8398 26.23C66.8698 26.07 66.8998 25.92 66.9098 25.76C67.2898 23.48 65.7398 21.32 63.4598 20.95C62.9198 20.86 62.3598 20.88 61.8198 21C59.3898 21.67 57.6298 23.79 57.4298 26.3C56.8598 32.11 55.5198 45.8 54.9998 51.13C54.8398 51.66 55.1398 52.22 55.6698 52.38C56.0198 52.49 56.3998 52.39 56.6598 52.13L77.3498 39.05L77.7598 38.76C80.2598 36.84 80.8698 33.18 78.8498 31.06C77.3098 29.44 74.6498 29.57 72.6498 31.1Z" fill="#1A1717" style="fill:#1A1717;fill:color(display-p3 0.1020 0.0902 0.0902);fill-opacity:1;"/>
<path d="M25.9 104C25.54 99.69 25.53 95.81 29.42 84.74C30.94 80.36 33 76.19 35.55 72.32C35.69 71.96 35.95 71.66 36.28 71.46C37.07 71.06 38.03 71.33 38.51 72.07C41.08 75.83 43.43 79.73 45.57 83.75C46.11 84.85 46.65 85.83 47.08 86.83C50.38 93.52 52.37 97.99 52.73 102.3C53.24 108.43 47.91 116.49 40.52 116.95C32.47 117.41 26.28 110 25.9 104Z" fill="url(#paint4_radial_169_8433)" style=""/>
<path d="M32.9999 92.17C35.1699 90 36.8999 104 37.1299 106.75C37.4799 111.03 33.7399 111.83 31.8599 109.4C29.1799 106 29.4299 95.69 32.9999 92.17Z" fill="#81D4FA" style="fill:#81D4FA;fill:color(display-p3 0.5059 0.8314 0.9804);fill-opacity:1;"/>
<path d="M30.1699 78.76L36.8299 68.29L24.4199 73.83L23.9999 74C21.8099 74.74 19.4299 73.57 18.6799 71.38C18.4999 70.86 18.4299 70.31 18.4699 69.76C18.7299 67.25 20.5299 65.17 22.9799 64.56L46.9999 58.05C47.4999 57.81 48.0999 58.02 48.3399 58.52C48.4999 58.85 48.4699 59.24 48.2499 59.53L38.7799 82.08C38.7199 82.24 38.6499 82.39 38.5699 82.54C37.0899 85.32 33.5699 86.54 31.1499 84.88C29.2999 83.62 28.9999 81 30.1699 78.76Z" fill="#422B0D" style="fill:#422B0D;fill:color(display-p3 0.2588 0.1686 0.0510);fill-opacity:1;"/>
<path d="M30.1699 78.76L36.8299 68.29L24.4199 73.83L23.9999 74C21.8099 74.74 19.4299 73.57 18.6799 71.38C18.4999 70.86 18.4299 70.31 18.4699 69.76C18.7299 67.25 20.5299 65.17 22.9799 64.56L46.9999 58.05C47.4999 57.81 48.0999 58.02 48.3399 58.52C48.4999 58.85 48.4699 59.24 48.2499 59.53L38.7799 82.08C38.7199 82.24 38.6499 82.39 38.5699 82.54C37.0899 85.32 33.5699 86.54 31.1499 84.88C29.2999 83.62 28.9999 81 30.1699 78.76Z" fill="#1A1717" style="fill:#1A1717;fill:color(display-p3 0.1020 0.0902 0.0902);fill-opacity:1;"/>
<defs>
<radialGradient id="paint0_radial_169_8433" cx="0" cy="0" r="1" gradientUnits="userSpaceOnUse" gradientTransform="translate(62.1249 61.053) rotate(-45) scale(57.1931)">
<stop offset="0.5" stop-color="#FDE030" style="stop-color:#FDE030;stop-color:color(display-p3 0.9922 0.8784 0.1882);stop-opacity:1;"/>
<stop offset="0.92" stop-color="#F7C02B" style="stop-color:#F7C02B;stop-color:color(display-p3 0.9686 0.7529 0.1686);stop-opacity:1;"/>
<stop offset="1" stop-color="#F4A223" style="stop-color:#F4A223;stop-color:color(display-p3 0.9569 0.6353 0.1373);stop-opacity:1;"/>
</radialGradient>
<radialGradient id="paint1_radial_169_8433" cx="0" cy="0" r="1" gradientUnits="userSpaceOnUse" gradientTransform="translate(38.5365 33.4931) rotate(-44.2792) scale(103.862 103.829)">
<stop offset="0.3533" stop-color="#F9DDBD" style="stop-color:#F9DDBD;stop-color:color(display-p3 0.9765 0.8667 0.7412);stop-opacity:1;"/>
<stop offset="0.8723" stop-color="#FFD29C" style="stop-color:#FFD29C;stop-color:color(display-p3 1.0000 0.8235 0.6118);stop-opacity:1;"/>
</radialGradient>
<radialGradient id="paint2_radial_169_8433" cx="0" cy="0" r="1" gradientUnits="userSpaceOnUse" gradientTransform="translate(38.5365 33.4931) rotate(-44.2792) scale(103.862 103.829)">
<stop offset="0.3533" stop-color="#70534A" style="stop-color:#70534A;stop-color:color(display-p3 0.4392 0.3255 0.2902);stop-opacity:1;"/>
<stop offset="0.8723" stop-color="#5C4037" style="stop-color:#5C4037;stop-color:color(display-p3 0.3608 0.2510 0.2157);stop-opacity:1;"/>
</radialGradient>
<radialGradient id="paint3_radial_169_8433" cx="0" cy="0" r="1" gradientUnits="userSpaceOnUse" gradientTransform="translate(77.4847 30.5037) rotate(-97.4809) scale(31.5526 48.8005)">
<stop offset="0.46" stop-color="#29B6F6" style="stop-color:#29B6F6;stop-color:color(display-p3 0.1608 0.7137 0.9647);stop-opacity:1;"/>
<stop offset="1" stop-color="#1E88E5" style="stop-color:#1E88E5;stop-color:color(display-p3 0.1176 0.5333 0.8980);stop-opacity:1;"/>
</radialGradient>
<radialGradient id="paint4_radial_169_8433" cx="0" cy="0" r="1" gradientUnits="userSpaceOnUse" gradientTransform="translate(39.4418 73.6934) rotate(175.426) scale(30.3567 46.4641)">
<stop offset="0.46" stop-color="#29B6F6" style="stop-color:#29B6F6;stop-color:color(display-p3 0.1608 0.7137 0.9647);stop-opacity:1;"/>
<stop offset="1" stop-color="#1E88E5" style="stop-color:#1E88E5;stop-color:color(display-p3 0.1176 0.5333 0.8980);stop-opacity:1;"/>
</radialGradient>
</defs>
</svg>
