<svg width="128" height="128" viewBox="0 0 128 128" fill="none" xmlns="http://www.w3.org/2000/svg">
<path d="M63.6 118.8C35.7 118.8 5.59998 101.3 5.59998 62.9C5.59998 24.5 35.7 7 63.6 7C79.1 7 93.4 12.1 104 21.4C115.5 31.6 121.6 46 121.6 62.9C121.6 79.8 115.5 94.1 104 104.3C93.4 113.6 79 118.8 63.6 118.8Z" fill="url(#paint0_radial_169_10090)" style=""/>
<path d="M63.6 118.8C35.7 118.8 5.59998 101.3 5.59998 62.9C5.59998 24.5 35.7 7 63.6 7C79.1 7 93.4 12.1 104 21.4C115.5 31.6 121.6 46 121.6 62.9C121.6 79.8 115.5 94.1 104 104.3C93.4 113.6 79 118.8 63.6 118.8Z" fill="url(#paint1_radial_169_10090)" style=""/>
<path d="M63.6 118.8C35.7 118.8 5.59998 101.3 5.59998 62.9C5.59998 24.5 35.7 7 63.6 7C79.1 7 93.4 12.1 104 21.4C115.5 31.6 121.6 46 121.6 62.9C121.6 79.8 115.5 94.1 104 104.3C93.4 113.6 79 118.8 63.6 118.8Z" fill="url(#paint2_radial_169_10090)" style=""/>
<path d="M63.6 118.8C35.7 118.8 5.59998 101.3 5.59998 62.9C5.59998 24.5 35.7 7 63.6 7C79.1 7 93.4 12.1 104 21.4C115.5 31.6 121.6 46 121.6 62.9C121.6 79.8 115.5 94.1 104 104.3C93.4 113.6 79 118.8 63.6 118.8Z" fill="url(#paint3_radial_169_10090)" style=""/>
<path d="M112.07 30C117.4 38.6 120.18 48.84 120.18 60.23C120.18 77.13 114.08 91.43 102.58 101.63C91.98 110.93 77.58 116.13 62.18 116.13C44.12 116.13 25.18 108.78 14 93.19C24.76 110.85 45 119.13 64.18 119.13C79.58 119.13 93.98 113.93 104.58 104.63C116.08 94.43 122.18 80.13 122.18 63.23C122.18 50.49 118.71 39.17 112.07 30Z" fill="#F3B872" style="fill:#F3B872;fill:color(display-p3 0.9542 0.7229 0.4453);fill-opacity:1;"/>
<path d="M112.07 30C117.4 38.6 120.18 48.84 120.18 60.23C120.18 77.13 114.08 91.43 102.58 101.63C91.98 110.93 77.58 116.13 62.18 116.13C44.12 116.13 25.18 108.78 14 93.19C24.76 110.85 45 119.13 64.18 119.13C79.58 119.13 93.98 113.93 104.58 104.63C116.08 94.43 122.18 80.13 122.18 63.23C122.18 50.49 118.71 39.17 112.07 30Z" fill="#4A2F27" style="fill:#4A2F27;fill:color(display-p3 0.2902 0.1843 0.1529);fill-opacity:1;"/>
<path d="M102.07 71.62C100.74 69.16 97.93 68.09 94.93 69.02C85.97 71.82 74.46 73.44 63.34 73.45C52.22 73.44 40.71 71.82 31.75 69.02C28.76 68.09 25.94 69.16 24.61 71.62C23.25 74.14 24.24 77.04 25.38 79.56C31.8 93.66 45.95 102.1 63.25 102.15C63.3 102.15 63.36 102.15 63.41 102.15C80.71 102.1 94.86 93.66 101.28 79.56C102.44 77.04 103.43 74.13 102.07 71.62Z" fill="#35220B" style="fill:#35220B;fill:color(display-p3 0.2078 0.1333 0.0431);fill-opacity:1;"/>
<path d="M102.07 71.62C100.74 69.16 97.93 68.09 94.93 69.02C85.97 71.82 74.46 73.44 63.34 73.45C52.22 73.44 40.71 71.82 31.75 69.02C28.76 68.09 25.94 69.16 24.61 71.62C23.25 74.14 24.24 77.04 25.38 79.56C31.8 93.66 45.95 102.1 63.25 102.15C63.3 102.15 63.36 102.15 63.41 102.15C80.71 102.1 94.86 93.66 101.28 79.56C102.44 77.04 103.43 74.13 102.07 71.62Z" fill="#42312C" style="fill:#42312C;fill:color(display-p3 0.2588 0.1922 0.1725);fill-opacity:1;"/>
<path d="M79.35 98.14C78.98 97.8 78.6 97.49 78.22 97.17C74.07 93.7 69.53 91.76 63.42 91.76C57.33 91.76 52.26 93.56 47.96 96.98C47.57 97.29 47.18 97.59 46.8 97.92C46.49 98.27 46.23 98.6 46 98.92C51.21 100.99 57.03 102.12 63.27 102.14C63.32 102.14 63.38 102.14 63.43 102.14C69.39 102.12 74.97 101.09 80 99.19C79.82 98.85 79.61 98.51 79.35 98.14Z" fill="#ED7770" style="fill:#ED7770;fill:color(display-p3 0.9294 0.4667 0.4392);fill-opacity:1;"/>
<path d="M94.93 69.02C85.97 71.82 74.46 73.44 63.34 73.45C52.22 73.44 40.71 71.82 31.75 69.02C28.76 68.09 25.94 69.16 24.61 71.62C24.4 72.01 24.26 72.41 24.16 72.82C24.49 72.99 24.87 73.16 25.32 73.34C37.42 79.51 50.48 82.27 64.12 82.27C77.21 82.27 89.76 79.72 101.45 74.06C101.92 73.86 102.31 73.67 102.66 73.49C102.57 72.85 102.39 72.23 102.06 71.62C100.74 69.16 97.93 68.08 94.93 69.02Z" fill="white" style="fill:white;fill-opacity:1;"/>
<path d="M62.84 75.06C71.01 75.2 77.66 73.96 85.74 72.42C87.76 72.03 89.77 71.58 91.76 71.05L93.25 70.64C93.7 70.52 94.04 70.44 94.44 70.41C95.2 70.34 95.94 70.45 96.58 70.72C97.85 71.25 99.66 72.85 100.11 74.13C101.3 77.53 99.37 83.47 99.85 82.48C99.87 82.45 101.08 80.41 101.09 80.38C101.9 78.43 102.96 76.22 102.7 73.55C102.43 70.86 100.4 68.39 97.87 67.46C96.62 66.99 95.29 66.88 94.05 67.05C93.44 67.12 92.79 67.3 92.28 67.47L90.87 67.93C88.98 68.51 87.06 69.03 85.12 69.49C77.36 71.3 70.96 72.25 62.94 72.45H62.7C54.68 72.26 48.67 71.3 40.91 69.49C38.97 69.03 37.05 68.51 35.16 67.93L33.75 67.47C33.23 67.3 32.59 67.12 31.98 67.05C30.74 66.88 29.4 66.99 28.16 67.46C25.63 68.39 23.85 70.85 23.49 73.53C22.91 77.91 26.88 82.62 26.9 82.65C27.38 83.64 24.89 77.51 26.08 74.11C26.53 72.83 28.18 71.25 29.44 70.72C30.08 70.45 30.81 70.33 31.58 70.41C31.98 70.44 32.31 70.52 32.77 70.64L34.26 71.05C36.26 71.58 38.27 72.03 40.28 72.42C48.35 73.95 54.44 75.19 62.61 75.06" fill="#F3B872" style="fill:#F3B872;fill:color(display-p3 0.9542 0.7229 0.4453);fill-opacity:1;"/>
<path d="M62.84 75.06C71.01 75.2 77.66 73.96 85.74 72.42C87.76 72.03 89.77 71.58 91.76 71.05L93.25 70.64C93.7 70.52 94.04 70.44 94.44 70.41C95.2 70.34 95.94 70.45 96.58 70.72C97.85 71.25 99.66 72.85 100.11 74.13C101.3 77.53 99.37 83.47 99.85 82.48C99.87 82.45 101.08 80.41 101.09 80.38C101.9 78.43 102.96 76.22 102.7 73.55C102.43 70.86 100.4 68.39 97.87 67.46C96.62 66.99 95.29 66.88 94.05 67.05C93.44 67.12 92.79 67.3 92.28 67.47L90.87 67.93C88.98 68.51 87.06 69.03 85.12 69.49C77.36 71.3 70.96 72.25 62.94 72.45H62.7C54.68 72.26 48.67 71.3 40.91 69.49C38.97 69.03 37.05 68.51 35.16 67.93L33.75 67.47C33.23 67.3 32.59 67.12 31.98 67.05C30.74 66.88 29.4 66.99 28.16 67.46C25.63 68.39 23.85 70.85 23.49 73.53C22.91 77.91 26.88 82.62 26.9 82.65C27.38 83.64 24.89 77.51 26.08 74.11C26.53 72.83 28.18 71.25 29.44 70.72C30.08 70.45 30.81 70.33 31.58 70.41C31.98 70.44 32.31 70.52 32.77 70.64L34.26 71.05C36.26 71.58 38.27 72.03 40.28 72.42C48.35 73.95 54.44 75.19 62.61 75.06" fill="#4A2F27" style="fill:#4A2F27;fill:color(display-p3 0.2902 0.1843 0.1529);fill-opacity:1;"/>
<path d="M125.75 33.33C125.75 33.33 124.72 31.55 105.59 29.77C80.12 27.4 70.98 34.48 69.26 36.08L69.08 36.07C67.17 35.95 65.36 35.83 63.36 35.83C63.33 35.83 63.3 35.83 63.27 35.83C62.29 35.84 60.34 35.94 58.68 36.04C56.84 34.35 47.64 27.42 22.4 29.77C3.28 31.55 2.25 33.33 2.25 33.33L2.13 40.55C2.13 40.55 4.98 41.36 6.83 43.65C8.67 45.91 9.53001 58.57 12.52 64.52C17.15 73.76 40.17 71.42 40.17 71.42C40.17 71.42 49.56 72.16 54.14 64.25C58.29 57.1 59.83 47.08 60.08 45.25C61.03 44.7 62.27 44.27 63.85 44.25C65.62 44.27 66.97 44.81 67.96 45.45C68.29 47.71 69.86 57.33 73.87 64.24C78.45 72.14 87.84 71.41 87.84 71.41C87.84 71.41 110.86 73.75 115.49 64.51C118.48 58.55 119.34 45.9 121.18 43.64C123.02 41.35 125.88 40.54 125.88 40.54L125.75 33.33ZM52.35 53.25C50.53 61.69 48.24 67.44 32.63 66.55C22.58 65.98 15.59 66 13.98 51.34C12.99 42.23 14.09 38.79 14.84 37.69C15.58 36.6 18.27 33.44 33.82 33.99C49.37 34.54 51.6 38.03 52.51 39.61C52.55 39.67 52.58 39.74 52.62 39.81L53.28 41.99C53.65 44.16 53.57 47.64 52.35 53.25ZM114.02 51.34C112.42 66 105.43 65.98 95.38 66.55C79.77 67.44 77.48 61.69 75.66 53.25C73.83 44.83 74.57 41.18 75.49 39.61C76.4 38.03 78.63 34.53 94.18 33.99C109.74 33.44 112.42 36.6 113.16 37.69C113.9 38.79 115.01 42.23 114.02 51.34Z" fill="#212121" style="fill:#212121;fill:color(display-p3 0.1294 0.1294 0.1294);fill-opacity:1;"/>
<path d="M90.02 41.94C85.83 41.94 82.02 45.48 82.02 51.36C82.02 57.24 85.83 60.78 90.02 60.78C94.21 60.78 98.02 57.24 98.02 51.36C98.02 45.48 94.21 41.94 90.02 41.94Z" fill="#35220B" style="fill:#35220B;fill:color(display-p3 0.2078 0.1333 0.0431);fill-opacity:1;"/>
<path d="M89.63 45.87C88.6 45.15 87.05 45.38 86.05 46.82C85.05 48.27 85.38 49.79 86.41 50.51C87.44 51.23 88.99 51 89.99 49.56C91 48.11 90.67 46.59 89.63 45.87Z" fill="#654F48" style="fill:#654F48;fill:color(display-p3 0.3958 0.3092 0.2837);fill-opacity:1;"/>
<path d="M90.02 41.94C85.83 41.94 82.02 45.48 82.02 51.36C82.02 57.24 85.83 60.78 90.02 60.78C94.21 60.78 98.02 57.24 98.02 51.36C98.02 45.48 94.21 41.94 90.02 41.94Z" fill="#35220B" style="fill:#35220B;fill:color(display-p3 0.2078 0.1333 0.0431);fill-opacity:1;"/>
<path d="M90.02 41.94C85.83 41.94 82.02 45.48 82.02 51.36C82.02 57.24 85.83 60.78 90.02 60.78C94.21 60.78 98.02 57.24 98.02 51.36C98.02 45.48 94.21 41.94 90.02 41.94Z" fill="#42312C" style="fill:#42312C;fill:color(display-p3 0.2588 0.1922 0.1725);fill-opacity:1;"/>
<path d="M89.63 45.87C88.6 45.15 87.05 45.38 86.05 46.82C85.05 48.27 85.38 49.79 86.41 50.51C87.44 51.23 88.99 51 89.99 49.56C91 48.11 90.67 46.59 89.63 45.87Z" fill="#555050" style="fill:#555050;fill:color(display-p3 0.3333 0.3125 0.3125);fill-opacity:1;"/>
<path d="M37.67 41.94C33.48 41.94 29.67 45.48 29.67 51.36C29.67 57.24 33.48 60.78 37.67 60.78C41.86 60.78 45.67 57.24 45.67 51.36C45.67 45.48 41.86 41.94 37.67 41.94Z" fill="#35220B" style="fill:#35220B;fill:color(display-p3 0.2078 0.1333 0.0431);fill-opacity:1;"/>
<path d="M37.67 41.94C33.48 41.94 29.67 45.48 29.67 51.36C29.67 57.24 33.48 60.78 37.67 60.78C41.86 60.78 45.67 57.24 45.67 51.36C45.67 45.48 41.86 41.94 37.67 41.94Z" fill="#42312C" style="fill:#42312C;fill:color(display-p3 0.2588 0.1922 0.1725);fill-opacity:1;"/>
<path d="M37.28 45.87C36.25 45.15 34.7 45.38 33.7 46.82C32.7 48.27 33.03 49.79 34.06 50.51C35.09 51.23 36.64 51 37.64 49.56C38.64 48.11 38.31 46.59 37.28 45.87Z" fill="#555050" style="fill:#555050;fill:color(display-p3 0.3333 0.3125 0.3125);fill-opacity:1;"/>
<defs>
<radialGradient id="paint0_radial_169_10090" cx="0" cy="0" r="1" gradientUnits="userSpaceOnUse" gradientTransform="translate(63.6 62.8999) scale(56.9597 56.9597)">
<stop offset="0.5" stop-color="#FDE030" style="stop-color:#FDE030;stop-color:color(display-p3 0.9922 0.8784 0.1882);stop-opacity:1;"/>
<stop offset="0.9188" stop-color="#F7C02B" style="stop-color:#F7C02B;stop-color:color(display-p3 0.9686 0.7529 0.1686);stop-opacity:1;"/>
<stop offset="1" stop-color="#F4A223" style="stop-color:#F4A223;stop-color:color(display-p3 0.9569 0.6353 0.1373);stop-opacity:1;"/>
</radialGradient>
<radialGradient id="paint1_radial_169_10090" cx="0" cy="0" r="1" gradientUnits="userSpaceOnUse" gradientTransform="translate(38.599 34.5377) rotate(-43.2082) scale(102.024 101.825)">
<stop offset="0.3533" stop-color="#F9DDBD" style="stop-color:#F9DDBD;stop-color:color(display-p3 0.9765 0.8667 0.7412);stop-opacity:1;"/>
<stop offset="0.8723" stop-color="#FFD29C" style="stop-color:#FFD29C;stop-color:color(display-p3 1.0000 0.8235 0.6118);stop-opacity:1;"/>
</radialGradient>
<radialGradient id="paint2_radial_169_10090" cx="0" cy="0" r="1" gradientUnits="userSpaceOnUse" gradientTransform="translate(38.599 34.5377) rotate(-43.2082) scale(102.024 101.825)">
<stop offset="0.3533" stop-color="#70534A" style="stop-color:#70534A;stop-color:color(display-p3 0.4392 0.3255 0.2902);stop-opacity:1;"/>
<stop offset="0.8723" stop-color="#5C4037" style="stop-color:#5C4037;stop-color:color(display-p3 0.3608 0.2510 0.2157);stop-opacity:1;"/>
</radialGradient>
<radialGradient id="paint3_radial_169_10090" cx="0" cy="0" r="1" gradientUnits="userSpaceOnUse" gradientTransform="translate(38.599 34.5377) rotate(-43.2082) scale(102.024 101.825)">
<stop offset="0.3533" stop-color="#A56C43" style="stop-color:#A56C43;stop-color:color(display-p3 0.6471 0.4235 0.2627);stop-opacity:1;"/>
<stop offset="0.8723" stop-color="#8D5738" style="stop-color:#8D5738;stop-color:color(display-p3 0.5529 0.3412 0.2196);stop-opacity:1;"/>
</radialGradient>
</defs>
</svg>
