<svg width="128" height="128" viewBox="0 0 128 128" fill="none" xmlns="http://www.w3.org/2000/svg">
<g opacity="0.2">
<path d="M99.73 7.09009C102.49 7.09009 104.73 9.33009 104.73 12.0901V116.09C104.73 118.85 102.49 121.09 99.73 121.09H27.73C24.97 121.09 22.73 118.85 22.73 116.09V12.0901C22.73 9.33009 24.97 7.09009 27.73 7.09009H99.73ZM99.73 4.09009H27.73C23.31 4.09009 19.73 7.67009 19.73 12.0901V116.09C19.73 120.51 23.31 124.09 27.73 124.09H99.73C104.15 124.09 107.73 120.51 107.73 116.09V12.0901C107.73 7.67009 104.15 4.09009 99.73 4.09009Z" fill="#212121" style="fill:#212121;fill:color(display-p3 0.1294 0.1294 0.1294);fill-opacity:1;"/>
<path d="M99.73 7.09009C102.49 7.09009 104.73 9.33009 104.73 12.0901V116.09C104.73 118.85 102.49 121.09 99.73 121.09H27.73C24.97 121.09 22.73 118.85 22.73 116.09V12.0901C22.73 9.33009 24.97 7.09009 27.73 7.09009H99.73ZM99.73 4.09009H27.73C23.31 4.09009 19.73 7.67009 19.73 12.0901V116.09C19.73 120.51 23.31 124.09 27.73 124.09H99.73C104.15 124.09 107.73 120.51 107.73 116.09V12.0901C107.73 7.67009 104.15 4.09009 99.73 4.09009Z" fill="#212121" style="fill:#212121;fill:color(display-p3 0.1294 0.1294 0.1294);fill-opacity:1;"/>
<path d="M99.73 7.09009C102.49 7.09009 104.73 9.33009 104.73 12.0901V116.09C104.73 118.85 102.49 121.09 99.73 121.09H27.73C24.97 121.09 22.73 118.85 22.73 116.09V12.0901C22.73 9.33009 24.97 7.09009 27.73 7.09009H99.73ZM99.73 4.09009H27.73C23.31 4.09009 19.73 7.67009 19.73 12.0901V116.09C19.73 120.51 23.31 124.09 27.73 124.09H99.73C104.15 124.09 107.73 120.51 107.73 116.09V12.0901C107.73 7.67009 104.15 4.09009 99.73 4.09009Z" fill="#212121" style="fill:#212121;fill:color(display-p3 0.1294 0.1294 0.1294);fill-opacity:1;"/>
</g>
<path d="M102.29 125.43L26.2695 125.06C22.8195 125.06 20.0195 122.26 20.0195 118.81L32.2195 26.6801L102.41 4.5001C108.54 4.1701 108.89 7.0301 108.89 10.4801L108.52 119.17C108.54 122.64 105.74 125.43 102.29 125.43Z" fill="#D9CDC9" style="fill:#D9CDC9;fill:color(display-p3 0.8510 0.8039 0.7882);fill-opacity:1;"/>
<path d="M101.83 122.06C101.83 122.06 44.0696 123.04 25.3596 121.98C21.7796 121.78 20.0296 120.36 20.0196 118.82L19.8496 10.3301C19.8496 6.88008 22.6496 4.08008 26.0996 4.08008L101.74 4.40008C105.19 4.40008 106.5 7.26008 106.5 10.7101L105.93 116.11C105.91 119.56 105.28 122.06 101.83 122.06Z" fill="#F1EDEC" style="fill:#F1EDEC;fill:color(display-p3 0.9451 0.9294 0.9255);fill-opacity:1;"/>
<path d="M39.9668 108C39.9668 111.068 37.7757 113 34.6001 113C31.4245 113 28.8501 110.513 28.8501 107.444C28.8635 107.179 28.8571 106.919 28.8501 106.663C28.8501 104.636 29.8762 102.67 30.7668 100.83C31.6826 98.9379 33.003 97.2797 34.2407 95.5868C36.1579 92.9647 40.3501 88 40.3501 88C40.3501 88 44.5423 92.9647 46.4595 95.5868C47.6972 97.2797 49.0176 98.9379 49.9334 100.83C50.824 102.67 51.8501 104.636 51.8501 106.663C51.8392 106.934 51.843 107.195 51.8501 107.444C51.8501 110.513 49.2757 113 46.1001 113C42.9245 113 40.7334 111.068 40.7334 108C40.7334 107.444 39.9668 107.444 39.9668 108Z" fill="#F44336" style="fill:#F44336;fill:color(display-p3 0.9569 0.2627 0.2118);fill-opacity:1;"/>
<path d="M85.2666 108C85.2666 111.068 83.0755 113 79.8999 113C76.7243 113 74.1499 110.513 74.1499 107.444C74.1633 107.179 74.1569 106.919 74.1499 106.663C74.1499 104.636 75.176 102.67 76.0666 100.83C76.9824 98.9379 78.3028 97.2797 79.5405 95.5868C81.4577 92.9647 85.6499 88 85.6499 88C85.6499 88 89.8421 92.9647 91.7593 95.5868C92.997 97.2797 94.3174 98.9379 95.2332 100.83C96.1238 102.67 97.1499 104.636 97.1499 106.663C97.139 106.934 97.1428 107.195 97.1499 107.444C97.1499 110.513 94.5755 113 91.3999 113C88.2243 113 86.0332 111.068 86.0332 108C86.0332 107.444 85.2666 107.444 85.2666 108Z" fill="#F44336" style="fill:#F44336;fill:color(display-p3 0.9569 0.2627 0.2118);fill-opacity:1;"/>
<path d="M42.2666 23C42.2666 19.9318 40.0755 18 36.8999 18C33.7243 18 31.1499 20.4873 31.1499 23.5556C31.1633 23.821 31.1569 24.0809 31.1499 24.3368C31.1499 26.3642 32.176 28.3304 33.0666 30.1701C33.9824 32.0621 35.3028 33.7203 36.5405 35.4132C38.4577 38.0353 42.6499 43 42.6499 43C42.6499 43 46.8421 38.0353 48.7593 35.4132C49.997 33.7203 51.3174 32.0621 52.2332 30.1701C53.1238 28.3304 54.1499 26.3642 54.1499 24.3368C54.139 24.0661 54.1428 23.805 54.1499 23.5556C54.1499 20.4873 51.5755 18 48.3999 18C45.2243 18 43.0332 19.9318 43.0332 23C43.0332 23.5556 42.2666 23.5556 42.2666 23Z" fill="#F44336" style="fill:#F44336;fill:color(display-p3 0.9569 0.2627 0.2118);fill-opacity:1;"/>
<path d="M64.4165 35C64.4165 31.9318 62.2254 30 59.0498 30C55.8742 30 53.2998 32.4873 53.2998 35.5556C53.3132 35.821 53.3068 36.0809 53.2998 36.3368C53.2998 38.3642 54.3259 40.3304 55.2165 42.1701C56.1323 44.0621 57.4527 45.7203 58.6904 47.4132C60.6076 50.0353 64.7998 55 64.7998 55C64.7998 55 68.992 50.0353 70.9092 47.4132C72.1469 45.7203 73.4673 44.0621 74.3831 42.1701C75.2737 40.3304 76.2998 38.3642 76.2998 36.3368C76.2889 36.0661 76.2927 35.805 76.2998 35.5556C76.2998 32.4873 73.7254 30 70.5498 30C67.3742 30 65.1831 31.9318 65.1831 35C65.1831 35.5556 64.4165 35.5556 64.4165 35Z" fill="#F44336" style="fill:#F44336;fill:color(display-p3 0.9569 0.2627 0.2118);fill-opacity:1;"/>
<path d="M85.2666 23C85.2666 19.9318 83.0755 18 79.8999 18C76.7243 18 74.1499 20.4873 74.1499 23.5556C74.1633 23.821 74.1569 24.0809 74.1499 24.3368C74.1499 26.3642 75.176 28.3304 76.0666 30.1701C76.9824 32.0621 78.3028 33.7203 79.5405 35.4132C81.4577 38.0353 85.6499 43 85.6499 43C85.6499 43 89.8421 38.0353 91.7593 35.4132C92.997 33.7203 94.3174 32.0621 95.2332 30.1701C96.1238 28.3304 97.1499 26.3642 97.1499 24.3368C97.139 24.0661 97.1428 23.805 97.1499 23.5556C97.1499 20.4873 94.5755 18 91.3999 18C88.2243 18 86.0332 19.9318 86.0332 23C86.0332 23.5556 85.2666 23.5556 85.2666 23Z" fill="#F44336" style="fill:#F44336;fill:color(display-p3 0.9569 0.2627 0.2118);fill-opacity:1;"/>
<path d="M42.2666 57C42.2666 53.9318 40.0755 52 36.8999 52C33.7243 52 31.1499 54.4873 31.1499 57.5556C31.1633 57.821 31.1569 58.0809 31.1499 58.3368C31.1499 60.3642 32.176 62.3304 33.0666 64.1701C33.9824 66.0621 35.3028 67.7203 36.5405 69.4132C38.4577 72.0353 42.6499 77 42.6499 77C42.6499 77 46.8421 72.0353 48.7593 69.4132C49.997 67.7203 51.3174 66.0621 52.2332 64.1701C53.1238 62.3304 54.1499 60.3642 54.1499 58.3368C54.139 58.0661 54.1428 57.805 54.1499 57.5556C54.1499 54.4873 51.5755 52 48.3999 52C45.2243 52 43.0332 53.9318 43.0332 57C43.0332 57.5556 42.2666 57.5556 42.2666 57Z" fill="#F44336" style="fill:#F44336;fill:color(display-p3 0.9569 0.2627 0.2118);fill-opacity:1;"/>
<path d="M85.2666 57C85.2666 53.9318 83.0755 52 79.8999 52C76.7243 52 74.1499 54.4873 74.1499 57.5556C74.1633 57.821 74.1569 58.0809 74.1499 58.3368C74.1499 60.3642 75.176 62.3304 76.0666 64.1701C76.9824 66.0621 78.3028 67.7203 79.5405 69.4132C81.4577 72.0353 85.6499 77 85.6499 77C85.6499 77 89.8421 72.0353 91.7593 69.4132C92.997 67.7203 94.3174 66.0621 95.2332 64.1701C96.1238 62.3304 97.1499 60.3642 97.1499 58.3368C97.139 58.0661 97.1428 57.805 97.1499 57.5556C97.1499 54.4873 94.5755 52 91.3999 52C88.2243 52 86.0332 53.9318 86.0332 57C86.0332 57.5556 85.2666 57.5556 85.2666 57Z" fill="#F44336" style="fill:#F44336;fill:color(display-p3 0.9569 0.2627 0.2118);fill-opacity:1;"/>
</svg>
