<svg width="128" height="128" viewBox="0 0 128 128" fill="none" xmlns="http://www.w3.org/2000/svg">
<path d="M63.6001 118.8C35.7001 118.8 5.6001 101.3 5.6001 62.9C5.6001 24.5 35.7001 7 63.6001 7C79.1001 7 93.4001 12.1 104 21.4C115.5 31.6 121.6 46 121.6 62.9C121.6 79.8 115.5 94.1 104 104.3C93.4001 113.6 79.0001 118.8 63.6001 118.8Z" fill="url(#paint0_radial_169_8930)" style=""/>
<path d="M63.6001 118.8C35.7001 118.8 5.6001 101.3 5.6001 62.9C5.6001 24.5 35.7001 7 63.6001 7C79.1001 7 93.4001 12.1 104 21.4C115.5 31.6 121.6 46 121.6 62.9C121.6 79.8 115.5 94.1 104 104.3C93.4001 113.6 79.0001 118.8 63.6001 118.8Z" fill="url(#paint1_radial_169_8930)" style=""/>
<path d="M63.6001 118.8C35.7001 118.8 5.6001 101.3 5.6001 62.9C5.6001 24.5 35.7001 7 63.6001 7C79.1001 7 93.4001 12.1 104 21.4C115.5 31.6 121.6 46 121.6 62.9C121.6 79.8 115.5 94.1 104 104.3C93.4001 113.6 79.0001 118.8 63.6001 118.8Z" fill="url(#paint2_radial_169_8930)" style=""/>
<path d="M111.49 29.67C116.82 38.27 119.6 48.51 119.6 59.9C119.6 76.8 113.5 91.1 102 101.3C91.4002 110.6 77.0002 115.8 61.6002 115.8C43.5402 115.8 24.6002 108.45 13.4202 92.86C24.1802 110.52 44.4202 118.8 63.6002 118.8C79.0002 118.8 93.4002 113.6 104 104.3C115.5 94.1 121.6 79.8 121.6 62.9C121.6 50.16 118.13 38.84 111.49 29.67Z" fill="#EB8F00" style="fill:#EB8F00;fill:color(display-p3 0.9216 0.5608 0.0000);fill-opacity:1;"/>
<path d="M111.49 29.67C116.82 38.27 119.6 48.51 119.6 59.9C119.6 76.8 113.5 91.1 102 101.3C91.4002 110.6 77.0002 115.8 61.6002 115.8C43.5402 115.8 24.6002 108.45 13.4202 92.86C24.1802 110.52 44.4202 118.8 63.6002 118.8C79.0002 118.8 93.4002 113.6 104 104.3C115.5 94.1 121.6 79.8 121.6 62.9C121.6 50.16 118.13 38.84 111.49 29.67Z" fill="#4A2F27" style="fill:#4A2F27;fill:color(display-p3 0.2902 0.1843 0.1529);fill-opacity:1;"/>
<path d="M64.0002 87.2C74.8002 87.2 81.8002 95.1 83.7002 98.8C84.4002 100.2 84.4002 101.4 83.8002 101.9C83.1602 102.3 82.3402 102.3 81.7002 101.9C81.3802 101.77 81.0802 101.6 80.8002 101.4C75.9002 97.88 70.0302 95.96 64.0002 95.9C57.9902 95.98 52.1302 97.86 47.2002 101.3C46.9202 101.5 46.6202 101.67 46.3002 101.8C45.6602 102.2 44.8402 102.2 44.2002 101.8C43.6002 101.2 43.6002 100.1 44.3002 98.7C46.2002 95.1 53.2002 87.2 64.0002 87.2Z" fill="#422B0D" style="fill:#422B0D;fill:color(display-p3 0.2588 0.1686 0.0510);fill-opacity:1;"/>
<path d="M64.0002 87.2C74.8002 87.2 81.8002 95.1 83.7002 98.8C84.4002 100.2 84.4002 101.4 83.8002 101.9C83.1602 102.3 82.3402 102.3 81.7002 101.9C81.3802 101.77 81.0802 101.6 80.8002 101.4C75.9002 97.88 70.0302 95.96 64.0002 95.9C57.9902 95.98 52.1302 97.86 47.2002 101.3C46.9202 101.5 46.6202 101.67 46.3002 101.8C45.6602 102.2 44.8402 102.2 44.2002 101.8C43.6002 101.2 43.6002 100.1 44.3002 98.7C46.2002 95.1 53.2002 87.2 64.0002 87.2Z" fill="#1A1717" style="fill:#1A1717;fill:color(display-p3 0.1020 0.0902 0.0902);fill-opacity:1;"/>
<path d="M74.4001 67.7C73.0401 68.96 72.9601 71.08 74.2201 72.43C74.4201 72.65 74.6501 72.84 74.9001 73C77.8201 75.17 81.1001 76.8 84.6001 77.8C88.1301 78.68 91.7801 78.95 95.4001 78.6C97.2801 78.55 98.7701 76.98 98.7201 75.1C98.7101 74.83 98.6701 74.56 98.6001 74.3C98.0101 72.57 96.3201 71.46 94.5001 71.6C91.8201 71.86 89.1201 71.7 86.5001 71.1C83.9201 70.31 81.4801 69.09 79.3001 67.5C77.8201 66.41 75.7801 66.49 74.4001 67.7Z" fill="#422B0D" style="fill:#422B0D;fill:color(display-p3 0.2588 0.1686 0.0510);fill-opacity:1;"/>
<path d="M74.4001 67.7C73.0401 68.96 72.9601 71.08 74.2201 72.43C74.4201 72.65 74.6501 72.84 74.9001 73C77.8201 75.17 81.1001 76.8 84.6001 77.8C88.1301 78.68 91.7801 78.95 95.4001 78.6C97.2801 78.55 98.7701 76.98 98.7201 75.1C98.7101 74.83 98.6701 74.56 98.6001 74.3C98.0101 72.57 96.3201 71.46 94.5001 71.6C91.8201 71.86 89.1201 71.7 86.5001 71.1C83.9201 70.31 81.4801 69.09 79.3001 67.5C77.8201 66.41 75.7801 66.49 74.4001 67.7Z" fill="#1A1717" style="fill:#1A1717;fill:color(display-p3 0.1020 0.0902 0.0902);fill-opacity:1;"/>
<path d="M53.6001 67.7C54.9601 68.96 55.0401 71.08 53.7801 72.43C53.5801 72.65 53.3501 72.84 53.1001 73C50.1801 75.17 46.9001 76.8 43.4001 77.8C39.8701 78.68 36.2201 78.95 32.6001 78.6C30.7701 78.57 29.3201 77.06 29.3501 75.23C29.3601 74.91 29.4101 74.6 29.5001 74.3C30.0901 72.57 31.7801 71.46 33.6001 71.6C36.2801 71.86 38.9801 71.7 41.6001 71.1C44.1801 70.31 46.6201 69.09 48.8001 67.5C50.2401 66.41 52.2601 66.49 53.6001 67.7Z" fill="#422B0D" style="fill:#422B0D;fill:color(display-p3 0.2588 0.1686 0.0510);fill-opacity:1;"/>
<path d="M53.6001 67.7C54.9601 68.96 55.0401 71.08 53.7801 72.43C53.5801 72.65 53.3501 72.84 53.1001 73C50.1801 75.17 46.9001 76.8 43.4001 77.8C39.8701 78.68 36.2201 78.95 32.6001 78.6C30.7701 78.57 29.3201 77.06 29.3501 75.23C29.3601 74.91 29.4101 74.6 29.5001 74.3C30.0901 72.57 31.7801 71.46 33.6001 71.6C36.2801 71.86 38.9801 71.7 41.6001 71.1C44.1801 70.31 46.6201 69.09 48.8001 67.5C50.2401 66.41 52.2601 66.49 53.6001 67.7Z" fill="#1A1717" style="fill:#1A1717;fill:color(display-p3 0.1020 0.0902 0.0902);fill-opacity:1;"/>
<defs>
<radialGradient id="paint0_radial_169_8930" cx="0" cy="0" r="1" gradientUnits="userSpaceOnUse" gradientTransform="translate(63.6001 62.9) scale(56.9597 56.9597)">
<stop offset="0.5" stop-color="#FDE030" style="stop-color:#FDE030;stop-color:color(display-p3 0.9922 0.8784 0.1882);stop-opacity:1;"/>
<stop offset="0.92" stop-color="#F7C02B" style="stop-color:#F7C02B;stop-color:color(display-p3 0.9686 0.7529 0.1686);stop-opacity:1;"/>
<stop offset="1" stop-color="#F4A223" style="stop-color:#F4A223;stop-color:color(display-p3 0.9569 0.6353 0.1373);stop-opacity:1;"/>
</radialGradient>
<radialGradient id="paint1_radial_169_8930" cx="0" cy="0" r="1" gradientUnits="userSpaceOnUse" gradientTransform="translate(38.5991 34.5377) rotate(-43.2082) scale(102.024 101.825)">
<stop offset="0.3533" stop-color="#F9DDBD" style="stop-color:#F9DDBD;stop-color:color(display-p3 0.9765 0.8667 0.7412);stop-opacity:1;"/>
<stop offset="0.8723" stop-color="#FFD29C" style="stop-color:#FFD29C;stop-color:color(display-p3 1.0000 0.8235 0.6118);stop-opacity:1;"/>
</radialGradient>
<radialGradient id="paint2_radial_169_8930" cx="0" cy="0" r="1" gradientUnits="userSpaceOnUse" gradientTransform="translate(38.5991 34.5377) rotate(-43.2082) scale(102.024 101.825)">
<stop offset="0.3533" stop-color="#70534A" style="stop-color:#70534A;stop-color:color(display-p3 0.4392 0.3255 0.2902);stop-opacity:1;"/>
<stop offset="0.8723" stop-color="#5C4037" style="stop-color:#5C4037;stop-color:color(display-p3 0.3608 0.2510 0.2157);stop-opacity:1;"/>
</radialGradient>
</defs>
</svg>
