<svg width="128" height="129" viewBox="0 0 128 129" fill="none" xmlns="http://www.w3.org/2000/svg">
<path d="M36.1136 109.299C36.1136 109.299 40.1436 107.699 42.1536 106.159C44.0336 104.719 45.7336 102.759 46.9036 101.719C47.6636 101.029 48.3336 100.719 48.9236 100.719C49.5236 100.719 50.0536 101.029 50.5036 101.579L53.0836 104.819C54.1636 106.599 53.2436 108.929 53.2436 108.929C53.2436 108.929 55.9436 111.789 51.4436 112.769C46.8336 113.779 41.3136 114.329 41.3136 114.329C41.0236 114.379 40.6736 114.409 40.2936 114.409C38.3936 114.409 35.6936 113.719 34.8336 111.749C34.8336 111.749 33.5436 110.319 36.1136 109.299Z" fill="#4568AC" style="fill:#4568AC;fill:color(display-p3 0.2706 0.4078 0.6745);fill-opacity:1;"/>
<path d="M53.4816 104.697L69.3535 103.256C69.3635 103.256 44.0326 104.189 46.8618 89.7344C46.8618 89.7344 62.9135 90.6412 69.3535 90.6412C69.3535 90.6412 93.0175 95.2915 93.4827 106.21C93.8899 115.769 77.7563 114.715 76.4484 114.715C75.3714 114.715 74.3824 114.715 73.1824 114.715C67.8624 114.715 60.3335 113.816 54.2135 113.096C51.8635 112.816 51.8016 105.787 53.4816 104.697Z" fill="#616161" style="fill:#616161;fill:color(display-p3 0.3804 0.3804 0.3804);fill-opacity:1;"/>
<path d="M55.415 40.2187C54.325 36.4987 53.725 31.8887 54.225 29.1187C54.335 28.4987 54.495 27.9587 54.715 27.5487C55.345 26.4387 56.185 25.3687 57.175 24.4087C57.195 24.3887 57.215 24.3687 57.235 24.3587C57.455 24.1387 57.685 23.9287 57.925 23.7287C57.965 23.6987 58.005 23.6587 58.045 23.6287C58.265 23.4387 58.485 23.2587 58.715 23.0887C58.765 23.0487 58.825 23.0087 58.875 22.9687C59.095 22.7987 59.325 22.6387 59.555 22.4887C59.615 22.4487 59.675 22.4087 59.735 22.3687C59.965 22.2187 60.205 22.0687 60.445 21.9287C60.505 21.8887 60.565 21.8587 60.625 21.8187C60.875 21.6787 61.125 21.5487 61.375 21.4187C61.425 21.3887 61.485 21.3587 61.535 21.3387C61.805 21.2087 62.085 21.0787 62.365 20.9587C62.395 20.9487 62.435 20.9287 62.465 20.9187C64.015 20.2787 65.635 19.9087 67.205 19.9087C67.245 19.9087 67.285 19.9187 67.315 19.9187C67.665 19.9187 68.005 19.9387 68.345 19.9787C74.085 20.6587 77.335 24.6287 78.385 29.7887C78.765 31.6587 78.795 33.5487 78.535 34.8887C78.505 35.0487 78.245 36.2287 78.235 36.5887C78.085 37.9987 80.865 39.2687 81.255 40.8087C81.545 41.9587 79.145 42.8187 78.965 43.0287C78.055 44.1187 79.795 49.0287 73.145 49.8287C70.585 50.1387 70.345 50.0687 69.545 50.1787C67.955 50.4087 68.425 56.8587 68.425 56.8587H68.415L56.895 54.5487C56.895 54.5487 58.425 47.0987 56.775 43.8487C56.285 42.8587 55.815 41.5987 55.415 40.2187Z" fill="#FFCA28" style="fill:#FFCA28;fill:color(display-p3 1.0000 0.7922 0.1569);fill-opacity:1;"/>
<path d="M55.415 40.2187C54.325 36.4987 53.725 31.8887 54.225 29.1187C54.335 28.4987 54.495 27.9587 54.715 27.5487C55.345 26.4387 56.185 25.3687 57.175 24.4087C57.195 24.3887 57.215 24.3687 57.235 24.3587C57.455 24.1387 57.685 23.9287 57.925 23.7287C57.965 23.6987 58.005 23.6587 58.045 23.6287C58.265 23.4387 58.485 23.2587 58.715 23.0887C58.765 23.0487 58.825 23.0087 58.875 22.9687C59.095 22.7987 59.325 22.6387 59.555 22.4887C59.615 22.4487 59.675 22.4087 59.735 22.3687C59.965 22.2187 60.205 22.0687 60.445 21.9287C60.505 21.8887 60.565 21.8587 60.625 21.8187C60.875 21.6787 61.125 21.5487 61.375 21.4187C61.425 21.3887 61.485 21.3587 61.535 21.3387C61.805 21.2087 62.085 21.0787 62.365 20.9587C62.395 20.9487 62.435 20.9287 62.465 20.9187C64.015 20.2787 65.635 19.9087 67.205 19.9087C67.245 19.9087 67.285 19.9187 67.315 19.9187C67.665 19.9187 68.005 19.9387 68.345 19.9787C74.085 20.6587 77.335 24.6287 78.385 29.7887C78.765 31.6587 78.795 33.5487 78.535 34.8887C78.505 35.0487 78.245 36.2287 78.235 36.5887C78.085 37.9987 80.865 39.2687 81.255 40.8087C81.545 41.9587 79.145 42.8187 78.965 43.0287C78.055 44.1187 79.795 49.0287 73.145 49.8287C70.585 50.1387 70.345 50.0687 69.545 50.1787C67.955 50.4087 68.425 56.8587 68.425 56.8587H68.415L56.895 54.5487C56.895 54.5487 58.425 47.0987 56.775 43.8487C56.285 42.8587 55.815 41.5987 55.415 40.2187Z" fill="#BA8D68" style="fill:#BA8D68;fill:color(display-p3 0.7294 0.5529 0.4078);fill-opacity:1;"/>
<path d="M78.415 45.8785C77.495 45.9685 76.565 45.7985 75.755 45.2585C74.875 44.6585 75.425 43.9285 76.425 44.2985C77.025 44.5285 77.865 44.6085 78.625 44.4285L78.415 45.8785Z" fill="#795548" style="fill:#795548;fill:color(display-p3 0.4745 0.3333 0.2824);fill-opacity:1;"/>
<path d="M72.9152 37.5958C72.9008 36.5576 73.4354 35.7084 74.1091 35.6991C74.7828 35.6898 75.3406 36.5239 75.3549 37.5621C75.3692 38.6003 74.8347 39.4494 74.161 39.4587C73.4873 39.468 72.9295 38.6339 72.9152 37.5958Z" fill="#404040" style="fill:#404040;fill:color(display-p3 0.2510 0.2510 0.2510);fill-opacity:1;"/>
<path d="M74.9643 34.7585C76.1843 34.9885 76.3843 34.1785 75.9243 33.5885C75.5843 33.1485 74.8243 32.8385 73.4643 33.2485C72.1843 33.6385 71.7143 34.4385 71.4143 34.9385C71.1143 35.4385 71.1943 35.8885 71.5043 35.8885C71.9243 35.8985 73.4543 34.4785 74.9643 34.7585Z" fill="#6D4C41" style="fill:#6D4C41;fill:color(display-p3 0.4275 0.2980 0.2549);fill-opacity:1;"/>
<path d="M53.0747 59.9985C54.9347 53.6285 58.1047 51.9985 60.8747 51.9985C63.7547 51.9985 66.1947 53.7785 66.1947 53.7785C71.0947 57.1485 71.1047 62.2885 71.5547 69.1985C72.0147 76.1085 72.3447 90.1885 72.3447 90.1885C72.3447 90.1885 66.9047 92.4385 58.6347 92.4385H57.9847C49.3447 92.3185 46.1447 89.3285 46.1447 89.3285C46.1447 89.3285 50.7447 67.9585 53.0747 59.9985Z" fill="url(#paint0_radial_2637_252)" style=""/>
<path d="M53.0747 59.9985C54.9347 53.6285 58.1047 51.9985 60.8747 51.9985C63.7547 51.9985 66.1947 53.7785 66.1947 53.7785C71.0947 57.1485 71.1047 62.2885 71.5547 69.1985C72.0147 76.1085 72.3447 90.1885 72.3447 90.1885C72.3447 90.1885 66.9047 92.4385 58.6347 92.4385H57.9847C49.3447 92.3185 46.1447 89.3285 46.1447 89.3285C46.1447 89.3285 50.7447 67.9585 53.0747 59.9985Z" fill="url(#paint1_radial_2637_252)" style=""/>
<path d="M50.7499 76.0752C51.5298 73.1185 54.9384 62.0139 54.9693 61.9064C55.0441 61.6627 55.2899 61.5165 55.5466 61.5625L65.6471 63.5635C65.7854 63.5874 65.9067 63.68 65.9842 63.8084C66.0518 63.9359 66.0677 64.0782 66.0238 64.2144L60.9593 78.9917C62.5954 80.2116 70.6716 86.1498 73.0772 86.9144C74.7038 87.4298 77.5094 88.1141 80.7487 88.8821C83.3395 89.5046 85.6199 93.2114 86.75 95.3654C87.0869 96.0123 86.968 96.7944 86.4742 97.3075C86.1028 97.7023 85.5833 97.8712 85.0858 97.8211C84.7575 97.7881 84.4391 97.6556 84.1806 97.4285L80.8407 94.9619C80.3262 94.9805 78.8158 95.0094 76.795 94.7157C74.2987 94.354 71.9691 93.0342 71.8935 92.9864C71.0231 92.5471 66.772 91.3456 62.6582 90.178C59.59 89.3065 56.4233 88.4151 54.2904 87.7382C48.1929 85.8082 50.0499 78.7385 50.7499 76.0752Z" fill="url(#paint2_linear_2637_252)" style=""/>
<path d="M50.7499 76.0752C51.5298 73.1185 54.9384 62.0139 54.9693 61.9064C55.0441 61.6627 55.2899 61.5165 55.5466 61.5625L65.6471 63.5635C65.7854 63.5874 65.9067 63.68 65.9842 63.8084C66.0518 63.9359 66.0677 64.0782 66.0238 64.2144L60.9593 78.9917C62.5954 80.2116 70.6716 86.1498 73.0772 86.9144C74.7038 87.4298 77.5094 88.1141 80.7487 88.8821C83.3395 89.5046 85.6199 93.2114 86.75 95.3654C87.0869 96.0123 86.968 96.7944 86.4742 97.3075C86.1028 97.7023 85.5833 97.8712 85.0858 97.8211C84.7575 97.7881 84.4391 97.6556 84.1806 97.4285L80.8407 94.9619C80.3262 94.9805 78.8158 95.0094 76.795 94.7157C74.2987 94.354 71.9691 93.0342 71.8935 92.9864C71.0231 92.5471 66.772 91.3456 62.6582 90.178C59.59 89.3065 56.4233 88.4151 54.2904 87.7382C48.1929 85.8082 50.0499 78.7385 50.7499 76.0752Z" fill="url(#paint3_linear_2637_252)" style=""/>
<path d="M53.8914 62.3303C54.6802 59.485 57.4125 56.1015 61.293 56.4918C61.6313 56.5259 61.9864 56.5918 62.3486 56.6885C66.7818 57.8782 67.6316 62.8181 66.7681 65.9071L63.8939 75.2966L51.0172 71.7198L53.8914 62.3303Z" fill="#04A287" style="fill:#04A287;fill:color(display-p3 0.0157 0.6353 0.5294);fill-opacity:1;"/>
<path d="M53.8914 62.3303C54.6802 59.485 57.4125 56.1015 61.293 56.4918C61.6313 56.5259 61.9864 56.5918 62.3486 56.6885C66.7818 57.8782 67.6316 62.8181 66.7681 65.9071L63.8939 75.2966L51.0172 71.7198L53.8914 62.3303Z" fill="#EC6E24" style="fill:#EC6E24;fill:color(display-p3 0.9255 0.4314 0.1412);fill-opacity:1;"/>
<path d="M50.7308 27.3459C52.0308 23.6959 54.9008 22.5059 55.8408 22.2059C56.2408 20.8859 58.3008 15.8659 66.5108 16.9059C68.5108 17.1559 70.0008 18.0559 71.3108 18.8359C71.8708 19.1759 72.4108 19.4959 72.9108 19.7059C73.3108 19.8759 74.0208 20.0259 74.5908 19.8059C75.8908 19.3259 75.4008 17.3459 75.4008 17.3459C75.4008 17.3459 80.2508 18.1159 78.3508 22.8559C79.9908 23.5059 80.8108 25.1959 81.1608 26.7959C81.6408 28.9859 80.6408 31.1159 78.5608 32.1459C78.5608 32.1459 78.8508 28.5959 73.7508 28.9859C72.1708 29.1059 70.5208 29.4159 69.0308 28.8859C68.4608 28.6759 67.9208 28.3459 67.3708 28.0959C67.2508 28.0959 67.1708 28.0959 67.1708 28.0959C65.2708 29.2059 67.9908 33.6759 65.9308 36.4259C65.5208 36.9659 65.1608 36.7859 65.1608 36.7859L64.2508 35.5459C63.5608 34.7059 62.9408 33.9659 62.1308 34.1759C59.7408 34.7959 60.3408 39.0759 63.2308 39.9159C63.5208 39.9959 63.0408 44.8159 57.1208 45.0359C54.0608 45.1559 52.8908 42.6459 52.8908 42.6459C52.8908 42.6459 54.2108 42.9259 54.4508 41.8059C54.5808 41.2259 54.0208 40.4659 53.0308 39.6559C50.1808 37.3059 51.0708 34.4459 51.4508 33.5559C50.9708 32.7759 49.7108 30.1959 50.7308 27.3459Z" fill="#543930" style="fill:#543930;fill:color(display-p3 0.3294 0.2235 0.1882);fill-opacity:1;"/>
<path d="M51.421 33.5759C51.371 33.4859 52.351 35.7259 56.251 35.2059C57.861 35.1459 60.241 38.9359 57.991 41.5859C55.991 43.9259 52.871 42.6759 52.871 42.6759C52.871 42.6759 53.301 42.7859 53.911 42.5459C54.301 42.3859 54.431 41.8559 54.431 41.8359C54.561 41.2559 54.001 40.4959 53.011 39.6859C50.161 37.3259 51.051 34.4659 51.421 33.5759Z" fill="url(#paint4_radial_2637_252)" style=""/>
<path d="M50.7306 27.3458C51.4106 25.4258 52.7306 23.7758 54.5206 22.7858C54.7806 22.6358 55.4106 22.3058 55.8606 22.2058C55.6806 23.0558 55.7406 23.9458 56.1306 24.8658C56.1406 24.8958 56.6006 26.2558 57.8306 27.3158C57.0106 28.5358 56.6306 30.0058 56.2806 31.4358C55.9706 32.6858 55.6806 34.0658 56.2706 35.2058C55.5206 35.1858 54.3406 35.4458 53.0006 34.9058C51.7206 34.3858 51.0106 32.9658 50.6506 31.6658C50.2406 30.2458 50.2306 28.7358 50.7306 27.3458Z" fill="url(#paint5_radial_2637_252)" style=""/>
<path d="M56.1208 24.8658C55.0908 22.4758 56.3308 20.1958 58.2908 18.6258C60.5908 16.7958 63.6908 16.5358 66.5108 16.8958C68.5108 17.1458 70.0008 18.0458 71.3108 18.8258C71.8708 19.1658 72.4108 19.4858 72.9108 19.6958C73.3108 19.8658 74.0208 20.0158 74.5908 19.7958C75.8908 19.3158 75.4008 17.3358 75.4008 17.3358C75.4008 17.3358 80.2508 18.1058 78.3508 22.8458C79.9908 23.4958 80.8108 25.1858 81.1608 26.7858C81.6408 28.9758 80.6408 31.1058 78.5608 32.1358C78.5608 32.1358 78.8508 28.5858 73.7508 28.9758C72.1708 29.0958 70.5208 29.4058 69.0308 28.8758C67.7108 28.3958 67.2408 27.7158 65.7908 27.8458C64.2208 27.9958 62.1508 28.6658 60.5208 28.4858C57.2108 28.1158 56.1408 24.9058 56.1208 24.8658Z" fill="url(#paint6_radial_2637_252)" style=""/>
<path d="M57.9908 41.5759C59.0008 40.4159 59.2108 38.5659 60.8308 37.5159C61.1708 38.5759 61.9908 39.5659 63.2208 39.9259C63.5108 40.0059 63.0308 44.8259 57.1108 45.0459C54.0508 45.1659 52.8808 42.6559 52.8808 42.6559C52.8808 42.6559 55.9508 43.9059 57.9908 41.5759Z" fill="url(#paint7_radial_2637_252)" style=""/>
<defs>
<radialGradient id="paint0_radial_2637_252" cx="0" cy="0" r="1" gradientUnits="userSpaceOnUse" gradientTransform="translate(62.328 67.0101) rotate(180) scale(17.0361 17.0361)">
<stop offset="0.3637" stop-color="#00BFA5" style="stop-color:#00BFA5;stop-color:color(display-p3 0.0000 0.7490 0.6471);stop-opacity:1;"/>
<stop offset="0.8121" stop-color="#00B29A" style="stop-color:#00B29A;stop-color:color(display-p3 0.0000 0.6980 0.6039);stop-opacity:1;"/>
<stop offset="1" stop-color="#00AB94" style="stop-color:#00AB94;stop-color:color(display-p3 0.0000 0.6706 0.5804);stop-opacity:1;"/>
</radialGradient>
<radialGradient id="paint1_radial_2637_252" cx="0" cy="0" r="1" gradientUnits="userSpaceOnUse" gradientTransform="translate(62.3253 67.0139) rotate(180) scale(17.0361 17.0361)">
<stop offset="0.3666" stop-color="#F58B21" style="stop-color:#F58B21;stop-color:color(display-p3 0.9608 0.5451 0.1294);stop-opacity:1;"/>
<stop offset="0.6967" stop-color="#F17E22" style="stop-color:#F17E22;stop-color:color(display-p3 0.9451 0.4941 0.1333);stop-opacity:1;"/>
<stop offset="1" stop-color="#EC6E24" style="stop-color:#EC6E24;stop-color:color(display-p3 0.9255 0.4314 0.1412);stop-opacity:1;"/>
</radialGradient>
<linearGradient id="paint2_linear_2637_252" x1="67.6296" y1="91.029" x2="71.1827" y2="76.9389" gradientUnits="userSpaceOnUse">
<stop offset="0.5" stop-color="#FFCA28" style="stop-color:#FFCA28;stop-color:color(display-p3 1.0000 0.7922 0.1569);stop-opacity:1;"/>
<stop offset="1" stop-color="#FFB300" style="stop-color:#FFB300;stop-color:color(display-p3 1.0000 0.7020 0.0000);stop-opacity:1;"/>
</linearGradient>
<linearGradient id="paint3_linear_2637_252" x1="67.6296" y1="91.029" x2="71.1827" y2="76.9389" gradientUnits="userSpaceOnUse">
<stop offset="0.5" stop-color="#BA8D68" style="stop-color:#BA8D68;stop-color:color(display-p3 0.7294 0.5529 0.4078);stop-opacity:1;"/>
<stop offset="1" stop-color="#A47B62" style="stop-color:#A47B62;stop-color:color(display-p3 0.6431 0.4824 0.3843);stop-opacity:1;"/>
</linearGradient>
<radialGradient id="paint4_radial_2637_252" cx="0" cy="0" r="1" gradientUnits="userSpaceOnUse" gradientTransform="translate(59.0149 38.95) rotate(157.587) scale(7.73725 11.1419)">
<stop offset="0.45" stop-color="#6D4C41" stop-opacity="0" style="stop-color:none;stop-opacity:0;"/>
<stop offset="1" stop-color="#6D4C41" style="stop-color:#6D4C41;stop-color:color(display-p3 0.4275 0.2980 0.2549);stop-opacity:1;"/>
</radialGradient>
<radialGradient id="paint5_radial_2637_252" cx="0" cy="0" r="1" gradientUnits="userSpaceOnUse" gradientTransform="translate(57.8081 31.1896) rotate(-174.428) scale(7.8426 9.89609)">
<stop offset="0.45" stop-color="#6D4C41" stop-opacity="0" style="stop-color:none;stop-opacity:0;"/>
<stop offset="1" stop-color="#6D4C41" style="stop-color:#6D4C41;stop-color:color(display-p3 0.4275 0.2980 0.2549);stop-opacity:1;"/>
</radialGradient>
<radialGradient id="paint6_radial_2637_252" cx="0" cy="0" r="1" gradientUnits="userSpaceOnUse" gradientTransform="translate(66.4524 28.1564) rotate(-173.327) scale(16.1408 12.1333)">
<stop offset="0.45" stop-color="#6D4C41" stop-opacity="0" style="stop-color:none;stop-opacity:0;"/>
<stop offset="1" stop-color="#6D4C41" style="stop-color:#6D4C41;stop-color:color(display-p3 0.4275 0.2980 0.2549);stop-opacity:1;"/>
</radialGradient>
<radialGradient id="paint7_radial_2637_252" cx="0" cy="0" r="1" gradientUnits="userSpaceOnUse" gradientTransform="translate(57.2703 39.962) rotate(163.591) scale(8.68967 5.58626)">
<stop offset="0.45" stop-color="#6D4C41" stop-opacity="0" style="stop-color:none;stop-opacity:0;"/>
<stop offset="1" stop-color="#6D4C41" style="stop-color:#6D4C41;stop-color:color(display-p3 0.4275 0.2980 0.2549);stop-opacity:1;"/>
</radialGradient>
</defs>
</svg>
