<svg width="128" height="128" viewBox="0 0 128 128" fill="none" xmlns="http://www.w3.org/2000/svg">
<path d="M63.6 118.8C35.7 118.8 5.60001 101.3 5.60001 62.9C5.60001 24.5 35.7 7 63.6 7C79.1 7 93.4 12.1 104 21.4C115.5 31.6 121.6 46 121.6 62.9C121.6 79.8 115.5 94.1 104 104.3C93.4 113.6 79 118.8 63.6 118.8Z" fill="url(#paint0_radial_169_7578)" style=""/>
<path d="M63.6 118.8C35.7 118.8 5.60001 101.3 5.60001 62.9C5.60001 24.5 35.7 7 63.6 7C79.1 7 93.4 12.1 104 21.4C115.5 31.6 121.6 46 121.6 62.9C121.6 79.8 115.5 94.1 104 104.3C93.4 113.6 79 118.8 63.6 118.8Z" fill="url(#paint1_radial_169_7578)" style=""/>
<path d="M63.6 118.8C35.7 118.8 5.60001 101.3 5.60001 62.9C5.60001 24.5 35.7 7 63.6 7C79.1 7 93.4 12.1 104 21.4C115.5 31.6 121.6 46 121.6 62.9C121.6 79.8 115.5 94.1 104 104.3C93.4 113.6 79 118.8 63.6 118.8Z" fill="url(#paint2_radial_169_7578)" style=""/>
<path d="M111.49 29.67C116.82 38.27 119.6 48.51 119.6 59.9C119.6 76.8 113.5 91.1 102 101.3C91.4 110.6 77 115.8 61.6 115.8C43.54 115.8 24.6 108.45 13.42 92.86C24.18 110.52 44.42 118.8 63.6 118.8C79 118.8 93.4 113.6 104 104.3C115.5 94.1001 121.6 79.8 121.6 62.9C121.6 50.16 118.13 38.84 111.49 29.67Z" fill="#EB8F00" style="fill:#EB8F00;fill:color(display-p3 0.9216 0.5608 0.0000);fill-opacity:1;"/>
<path d="M111.49 29.67C116.82 38.27 119.6 48.51 119.6 59.9C119.6 76.8 113.5 91.1 102 101.3C91.4 110.6 77 115.8 61.6 115.8C43.54 115.8 24.6 108.45 13.42 92.86C24.18 110.52 44.42 118.8 63.6 118.8C79 118.8 93.4 113.6 104 104.3C115.5 94.1001 121.6 79.8 121.6 62.9C121.6 50.16 118.13 38.84 111.49 29.67Z" fill="#F3B872" style="fill:#F3B872;fill:color(display-p3 0.9542 0.7229 0.4453);fill-opacity:1;"/>
<path d="M111.49 29.67C116.82 38.27 119.6 48.51 119.6 59.9C119.6 76.8 113.5 91.1 102 101.3C91.4 110.6 77 115.8 61.6 115.8C43.54 115.8 24.6 108.45 13.42 92.86C24.18 110.52 44.42 118.8 63.6 118.8C79 118.8 93.4 113.6 104 104.3C115.5 94.1001 121.6 79.8 121.6 62.9C121.6 50.16 118.13 38.84 111.49 29.67Z" fill="#BA8F63" style="fill:#BA8F63;fill:color(display-p3 0.7294 0.5608 0.3882);fill-opacity:1;"/>
<path d="M63.89 82C53.4 82 45.89 88.29 43.66 91.78C42.81 92.91 42.64 94.4 43.2 95.69C43.63 96.51 44.48 97.02 45.4 97C45.74 96.99 46.08 96.94 46.4 96.84C51.68 95.15 56.3 92.7 63.89 92.7C71.48 92.7 76.1 95.15 81.38 96.84C81.7 96.95 82.04 97 82.38 97C83.3 97.02 84.15 96.51 84.58 95.69C85.14 94.4 84.97 92.91 84.12 91.78C81.86 88.29 74.37 82 63.89 82Z" fill="#5D4037" style="fill:#5D4037;fill:color(display-p3 0.3647 0.2510 0.2157);fill-opacity:1;"/>
<path d="M48.16 55.81C42.11 54.23 35.72 54.47 29.8 56.5C28.74 56.91 28.21 58.09 28.62 59.15C29 60.14 30.06 60.67 31.08 60.39C33.45 59.93 35.87 59.8 38.28 59.99C38.28 60.05 38.28 60.38 38.28 60.38C38.28 65.27 41.45 68.23 44.95 68.23C46.74 68.21 48.45 67.47 49.69 66.17C51.77 63.96 52.2 60.66 50.74 58C50.19 56.97 49.27 56.18 48.16 55.81Z" fill="#5D4037" style="fill:#5D4037;fill:color(display-p3 0.3647 0.2510 0.2157);fill-opacity:1;"/>
<path d="M96 55.81C89.95 54.23 83.56 54.47 77.64 56.5C76.57 56.88 76 58.05 76.38 59.12C76.76 60.19 77.93 60.76 79 60.38C81.37 59.92 83.79 59.79 86.19 59.98C86.19 60.04 86.19 60.37 86.19 60.37C86.19 65.26 89.37 68.22 92.86 68.22C94.66 68.2 96.37 67.46 97.61 66.16C99.66 63.95 100.06 60.67 98.61 58.03C98.06 56.99 97.12 56.19 96 55.81Z" fill="#5D4037" style="fill:#5D4037;fill:color(display-p3 0.3647 0.2510 0.2157);fill-opacity:1;"/>
<path d="M87.68 44.0001C86.67 44.0201 85.84 43.2101 85.82 42.2001C85.8 41.1901 86.61 40.3601 87.62 40.3401C89.56 40.1301 91.53 40.2501 93.43 40.6901C98.61 41.7401 103.21 44.7101 106.29 49.0001C107.67 51.0801 104.97 52.8001 103.35 51.2501C99.12 47.0901 93.59 44.5301 87.68 44.0001Z" fill="#5D4037" style="fill:#5D4037;fill:color(display-p3 0.3647 0.2510 0.2157);fill-opacity:1;"/>
<path d="M37.88 44.0001C38.89 44.0201 39.72 43.2101 39.74 42.2001C39.76 41.1901 38.95 40.3601 37.94 40.3401C36 40.1301 34.03 40.2501 32.13 40.6901C26.95 41.7401 22.35 44.7101 19.27 49.0001C17.88 51.0801 20.59 52.8001 22.21 51.2501C26.44 47.0901 31.97 44.5301 37.88 44.0001Z" fill="#5D4037" style="fill:#5D4037;fill:color(display-p3 0.3647 0.2510 0.2157);fill-opacity:1;"/>
<path d="M45.06 59.18C46.48 58.5 48.19 59.1 48.88 60.52C49.41 61.63 49.17 62.96 48.28 63.82C46.86 64.5 45.15 63.9 44.46 62.48C43.93 61.37 44.17 60.04 45.06 59.18Z" fill="#836258" style="fill:#836258;fill:color(display-p3 0.5125 0.3838 0.3438);fill-opacity:1;"/>
<path d="M93.06 59.18C94.49 58.51 96.19 59.12 96.87 60.55C97.39 61.66 97.15 62.97 96.27 63.82C94.84 64.49 93.14 63.88 92.46 62.45C91.94 61.35 92.18 60.03 93.06 59.18Z" fill="#836258" style="fill:#836258;fill:color(display-p3 0.5125 0.3838 0.3438);fill-opacity:1;"/>
<defs>
<radialGradient id="paint0_radial_169_7578" cx="0" cy="0" r="1" gradientUnits="userSpaceOnUse" gradientTransform="translate(63.6 62.9) scale(56.9597 56.9597)">
<stop offset="0.5" stop-color="#FDE030" style="stop-color:#FDE030;stop-color:color(display-p3 0.9922 0.8784 0.1882);stop-opacity:1;"/>
<stop offset="0.92" stop-color="#F7C02B" style="stop-color:#F7C02B;stop-color:color(display-p3 0.9686 0.7529 0.1686);stop-opacity:1;"/>
<stop offset="1" stop-color="#F4A223" style="stop-color:#F4A223;stop-color:color(display-p3 0.9569 0.6353 0.1373);stop-opacity:1;"/>
</radialGradient>
<radialGradient id="paint1_radial_169_7578" cx="0" cy="0" r="1" gradientUnits="userSpaceOnUse" gradientTransform="translate(38.599 34.5377) rotate(-43.2082) scale(102.024 101.825)">
<stop offset="0.3533" stop-color="#F9DDBD" style="stop-color:#F9DDBD;stop-color:color(display-p3 0.9765 0.8667 0.7412);stop-opacity:1;"/>
<stop offset="0.8723" stop-color="#FFD29C" style="stop-color:#FFD29C;stop-color:color(display-p3 1.0000 0.8235 0.6118);stop-opacity:1;"/>
</radialGradient>
<radialGradient id="paint2_radial_169_7578" cx="0" cy="0" r="1" gradientUnits="userSpaceOnUse" gradientTransform="translate(38.599 34.5377) rotate(-43.2082) scale(102.024 101.825)">
<stop offset="0.3533" stop-color="#E0BB95" style="stop-color:#E0BB95;stop-color:color(display-p3 0.8784 0.7333 0.5843);stop-opacity:1;"/>
<stop offset="0.8723" stop-color="#CCA47A" style="stop-color:#CCA47A;stop-color:color(display-p3 0.8000 0.6431 0.4784);stop-opacity:1;"/>
</radialGradient>
</defs>
</svg>
