<svg width="128" height="128" viewBox="0 0 128 128" fill="none" xmlns="http://www.w3.org/2000/svg">
<path d="M72.3796 80.7891H65.4407H58.5017C58.5017 102.795 53.9514 111.614 53.9514 111.614H76.9299C76.9299 111.604 72.3796 102.784 72.3796 80.7891Z" fill="#B7D5E5" style="fill:#B7D5E5;fill:color(display-p3 0.7176 0.8353 0.8980);fill-opacity:1;"/>
<path d="M37.5986 112.771C37.5229 111.539 37.7067 109.918 37.7067 109.918C37.7067 109.918 86.6035 107.886 90.4837 109.821C90.4837 109.821 91.0025 111.615 90.6459 112.782C89.792 115.517 78.7675 117.97 64.1114 117.97C49.4553 117.97 37.7715 115.636 37.5986 112.771Z" fill="#2F7889" style="fill:#2F7889;fill:color(display-p3 0.1843 0.4706 0.5373);fill-opacity:1;"/>
<path d="M64.1763 115.57C78.8308 115.57 90.7107 113.248 90.7107 110.382C90.7107 107.517 78.8308 105.194 64.1763 105.194C49.5217 105.194 37.6418 107.517 37.6418 110.382C37.6418 113.248 49.5217 115.57 64.1763 115.57Z" fill="#B7D5E5" style="fill:#B7D5E5;fill:color(display-p3 0.7176 0.8353 0.8980);fill-opacity:1;"/>
<path d="M72.3797 80.7891H65.4408H58.5018C58.5018 87.9658 58.0154 93.7374 57.3669 98.2553L73.9145 100.741C73.0714 95.9099 72.3797 89.3493 72.3797 80.7891Z" fill="#69A1BA" style="fill:#69A1BA;fill:color(display-p3 0.4118 0.6314 0.7294);fill-opacity:1;"/>
<path d="M54.9785 105.519C54.9785 105.519 50.9578 107.162 51.8657 108.362C53.2708 110.242 57.1942 111.42 66.6839 112.058C73.3526 112.501 70.737 114.36 64.4682 114.739C60.0692 114.998 38.9822 115.171 37.7284 110.772C36.7124 107.194 51.9738 105.519 54.9785 105.519Z" fill="#EEEEEE" style="fill:#EEEEEE;fill:color(display-p3 0.9333 0.9333 0.9333);fill-opacity:1;"/>
<path d="M117.634 92.765H10.7181C8.66448 92.765 7 91.1005 7 89.0469V16.6312C7 14.5776 8.66448 12.9131 10.7181 12.9131H117.623C119.677 12.9131 121.341 14.5776 121.341 16.6312V89.0469C121.352 91.1005 119.688 92.765 117.634 92.765Z" fill="#69A1BA" style="fill:#69A1BA;fill:color(display-p3 0.4118 0.6314 0.7294);fill-opacity:1;"/>
<path d="M117.634 90.8519H10.7181C8.66448 90.8519 7 89.1874 7 87.1338V14.7181C7 12.6645 8.66448 11 10.7181 11H117.623C119.677 11 121.341 12.6645 121.341 14.7181V87.1338C121.352 89.1766 119.688 90.8519 117.634 90.8519Z" fill="#B7D5E5" style="fill:#B7D5E5;fill:color(display-p3 0.7176 0.8353 0.8980);fill-opacity:1;"/>
<path d="M116.867 16.8042H11.4854V85.0263H116.867V16.8042Z" fill="url(#paint0_radial_2658_88)" style=""/>
<path d="M12.7178 14.2207H24.8123" stroke="#EEEEEE" style="stroke:#EEEEEE;stroke:color(display-p3 0.9333 0.9333 0.9333);stroke-opacity:1;" stroke-width="3.0142" stroke-miterlimit="10" stroke-linecap="round"/>
<defs>
<radialGradient id="paint0_radial_2658_88" cx="0" cy="0" r="1" gradientUnits="userSpaceOnUse" gradientTransform="translate(45.224 1.07128) scale(65.9017 65.9017)">
<stop stop-color="#2F7889" style="stop-color:#2F7889;stop-color:color(display-p3 0.1843 0.4706 0.5373);stop-opacity:1;"/>
<stop offset="1" stop-color="#424242" style="stop-color:#424242;stop-color:color(display-p3 0.2588 0.2588 0.2588);stop-opacity:1;"/>
</radialGradient>
</defs>
</svg>
