<svg width="128" height="128" viewBox="0 0 128 128" fill="none" xmlns="http://www.w3.org/2000/svg">
<path d="M63.6001 118.8C35.7001 118.8 5.6001 101.3 5.6001 62.9C5.6001 24.5 35.7001 7 63.6001 7C79.1001 7 93.4001 12.1 104 21.4C115.5 31.6 121.6 46 121.6 62.9C121.6 79.8 115.5 94.1 104 104.3C93.4001 113.6 79.0001 118.8 63.6001 118.8Z" fill="url(#paint0_radial_169_5949)" style=""/>
<path d="M63.6001 118.8C35.7001 118.8 5.6001 101.3 5.6001 62.9C5.6001 24.5 35.7001 7 63.6001 7C79.1001 7 93.4001 12.1 104 21.4C115.5 31.6 121.6 46 121.6 62.9C121.6 79.8 115.5 94.1 104 104.3C93.4001 113.6 79.0001 118.8 63.6001 118.8Z" fill="url(#paint1_radial_169_5949)" style=""/>
<path d="M111.49 29.6699C116.82 38.2699 119.6 48.5099 119.6 59.8999C119.6 76.7999 113.5 91.0999 102 101.3C91.4002 110.6 77.0002 115.8 61.6002 115.8C43.5402 115.8 24.6002 108.45 13.4202 92.8599C24.1802 110.52 44.4202 118.8 63.6002 118.8C79.0002 118.8 93.4002 113.6 104 104.3C115.5 94.0999 121.6 79.7999 121.6 62.8999C121.6 50.1599 118.13 38.8399 111.49 29.6699Z" fill="#EB8F00" style="fill:#EB8F00;fill:color(display-p3 0.9216 0.5608 0.0000);fill-opacity:1;"/>
<path d="M111.49 29.6699C116.82 38.2699 119.6 48.5099 119.6 59.8999C119.6 76.7999 113.5 91.0999 102 101.3C91.4002 110.6 77.0002 115.8 61.6002 115.8C43.5402 115.8 24.6002 108.45 13.4202 92.8599C24.1802 110.52 44.4202 118.8 63.6002 118.8C79.0002 118.8 93.4002 113.6 104 104.3C115.5 94.0999 121.6 79.7999 121.6 62.8999C121.6 50.1599 118.13 38.8399 111.49 29.6699Z" fill="#F3B872" style="fill:#F3B872;fill:color(display-p3 0.9542 0.7229 0.4453);fill-opacity:1;"/>
<path d="M63.9999 87.1501C74.8199 87.1501 81.8299 95.0701 83.6499 98.7201C84.3499 100.13 84.3899 101.3 83.7899 101.85C83.1599 102.26 82.3399 102.26 81.7099 101.85C81.3999 101.7 81.0899 101.53 80.8099 101.33C70.7599 94.1301 57.2499 94.1301 47.1999 101.33C46.9199 101.53 46.6199 101.7 46.2999 101.85C45.6699 102.27 44.8499 102.27 44.2199 101.85C43.6199 101.3 43.6599 100.13 44.3599 98.7201C46.1699 95.0801 53.1799 87.1501 63.9999 87.1501Z" fill="#312D2D" style="fill:#312D2D;fill:color(display-p3 0.1922 0.1765 0.1765);fill-opacity:1;"/>
<path d="M27.39 39.7701C25.19 40.1601 25.08 43.3601 27.48 43.4701C32.78 43.5501 37.9 41.5901 41.8 38.0001C43.28 36.7201 44.54 35.2101 45.51 33.5101C46.09 32.6801 45.89 31.5401 45.07 30.9501C44.25 30.3601 43.1 30.5701 42.51 31.3901L42.41 31.4901C38.48 35.8801 33.19 38.7901 27.39 39.7701Z" fill="#312D2D" style="fill:#312D2D;fill:color(display-p3 0.1922 0.1765 0.1765);fill-opacity:1;"/>
<path d="M86.12 31.52L86.02 31.42C85.44 30.59 84.29 30.39 83.46 30.97C82.63 31.55 82.43 32.7 83.02 33.53C84 35.22 85.26 36.73 86.75 38C90.65 41.59 95.77 43.54 101.07 43.45C103.47 43.34 103.36 40.14 101.15 39.75C95.35 38.78 90.06 35.88 86.12 31.52Z" fill="#312D2D" style="fill:#312D2D;fill:color(display-p3 0.1922 0.1765 0.1765);fill-opacity:1;"/>
<path d="M19.52 107C11.06 107 4.52002 98.7901 4.52002 91.7601C4.52002 86.8201 6.73002 81.0901 9.86002 73.1501C10.25 71.9801 10.77 70.8001 11.29 69.5001C12.78 65.7801 14.09 61.7501 16.09 58.2601C17.04 56.5601 19.19 55.9601 20.88 56.9101C21.44 57.2301 21.91 57.6901 22.23 58.2601C24.09 61.6901 25.37 65.4001 27.3 69.7301C32.77 81.9701 34.3 86.9201 34.3 91.8601C34.49 98.8301 27.85 107 19.52 107Z" fill="url(#paint2_radial_169_5949)" style=""/>
<path d="M28.6699 97.6502C26.7599 100.65 22.4199 100.05 22.4199 95.1402C22.4199 92.0002 23.0599 75.8802 25.7599 78.1402C30.1399 81.8102 31.3899 93.4702 28.6699 97.6502Z" fill="#81D4FA" style="fill:#81D4FA;fill:color(display-p3 0.5059 0.8314 0.9804);fill-opacity:1;"/>
<path d="M44.6699 54.9402C40.4799 54.9402 36.6699 58.4802 36.6699 64.3602C36.6699 70.2402 40.4799 73.7702 44.6699 73.7702C48.8599 73.7702 52.6699 70.2302 52.6699 64.3602C52.6699 58.4902 48.8599 54.9402 44.6699 54.9402Z" fill="#312D2D" style="fill:#312D2D;fill:color(display-p3 0.1922 0.1765 0.1765);fill-opacity:1;"/>
<path d="M44.2801 58.8701C42.8601 58.1901 41.1501 58.7901 40.4601 60.2101C39.9301 61.3201 40.1701 62.6501 41.0601 63.5101C42.4801 64.1901 44.1901 63.5901 44.8801 62.1701C45.4101 61.0601 45.1701 59.7301 44.2801 58.8701Z" fill="#767070" style="fill:#767070;fill:color(display-p3 0.4625 0.4374 0.4374);fill-opacity:1;"/>
<path d="M83 54.9402C78.81 54.9402 75 58.4802 75 64.3602C75 70.2402 78.81 73.7702 83 73.7702C87.19 73.7702 91 70.2302 91 64.3602C91 58.4902 87.21 54.9402 83 54.9402Z" fill="#312D2D" style="fill:#312D2D;fill:color(display-p3 0.1922 0.1765 0.1765);fill-opacity:1;"/>
<path d="M82.63 58.8701C81.21 58.1901 79.5 58.7901 78.81 60.2101C78.28 61.3201 78.52 62.6501 79.41 63.5101C80.83 64.1901 82.54 63.5901 83.23 62.1701C83.76 61.0601 83.52 59.7301 82.63 58.8701Z" fill="#767070" style="fill:#767070;fill:color(display-p3 0.4625 0.4374 0.4374);fill-opacity:1;"/>
<defs>
<radialGradient id="paint0_radial_169_5949" cx="0" cy="0" r="1" gradientUnits="userSpaceOnUse" gradientTransform="translate(63.6001 62.9) scale(56.9597 56.9597)">
<stop offset="0.5" stop-color="#FDE030" style="stop-color:#FDE030;stop-color:color(display-p3 0.9922 0.8784 0.1882);stop-opacity:1;"/>
<stop offset="0.92" stop-color="#F7C02B" style="stop-color:#F7C02B;stop-color:color(display-p3 0.9686 0.7529 0.1686);stop-opacity:1;"/>
<stop offset="1" stop-color="#F4A223" style="stop-color:#F4A223;stop-color:color(display-p3 0.9569 0.6353 0.1373);stop-opacity:1;"/>
</radialGradient>
<radialGradient id="paint1_radial_169_5949" cx="0" cy="0" r="1" gradientUnits="userSpaceOnUse" gradientTransform="translate(38.5991 34.5377) rotate(-43.2082) scale(102.024 101.825)">
<stop offset="0.3533" stop-color="#F9DDBD" style="stop-color:#F9DDBD;stop-color:color(display-p3 0.9765 0.8667 0.7412);stop-opacity:1;"/>
<stop offset="0.8723" stop-color="#FFD29C" style="stop-color:#FFD29C;stop-color:color(display-p3 1.0000 0.8235 0.6118);stop-opacity:1;"/>
</radialGradient>
<radialGradient id="paint2_radial_169_5949" cx="0" cy="0" r="1" gradientUnits="userSpaceOnUse" gradientTransform="translate(20.59 62.9405) scale(33.4 51.436)">
<stop offset="0.46" stop-color="#29B6F6" style="stop-color:#29B6F6;stop-color:color(display-p3 0.1608 0.7137 0.9647);stop-opacity:1;"/>
<stop offset="1" stop-color="#1E88E5" style="stop-color:#1E88E5;stop-color:color(display-p3 0.1176 0.5333 0.8980);stop-opacity:1;"/>
</radialGradient>
</defs>
</svg>
