<svg width="128" height="128" viewBox="0 0 128 128" fill="none" xmlns="http://www.w3.org/2000/svg">
<path d="M63.6 124.8C38.79 124.8 12 109.24 12 75.09C12 40.94 38.79 25.38 63.6 25.38C77.38 25.38 90.1 29.91 99.53 38.18C109.75 47.26 115.18 60.06 115.18 75.09C115.18 90.12 109.75 102.84 99.53 111.91C90.1 120.18 77.29 124.8 63.6 124.8Z" fill="url(#paint0_radial_169_4759)" style=""/>
<path d="M63.6 124.8C38.79 124.8 12 109.24 12 75.09C12 40.94 38.79 25.38 63.6 25.38C77.38 25.38 90.1 29.91 99.53 38.18C109.75 47.26 115.18 60.06 115.18 75.09C115.18 90.12 109.75 102.84 99.53 111.91C90.1 120.18 77.29 124.8 63.6 124.8Z" fill="url(#paint1_radial_169_4759)" style=""/>
<path d="M106.19 45.54C111.07 53.64 113.57 62.96 113.4 72.42C113.4 87.42 107.97 100.17 97.75 109.24C88.32 117.51 75.52 122.13 61.82 122.13C45.76 122.13 28.89 115.6 18.98 101.73C28.55 117.44 46.54 124.8 63.6 124.8C77.29 124.8 90.1 120.18 99.53 111.91C109.75 102.83 115.18 90.12 115.18 75.09C115.18 63.76 112.09 53.69 106.19 45.54Z" fill="#F3B872" style="fill:#F3B872;fill:color(display-p3 0.9542 0.7229 0.4453);fill-opacity:1;"/>
<path d="M34.25 33.4701C13.9 25.4001 0 13.5501 0 22.8001C0 41.2201 4.83 56 12.6 67.31C14.71 51.37 23.19 40.2201 34.25 33.4701Z" fill="#4A251A" style="fill:#4A251A;fill:color(display-p3 0.2902 0.1451 0.1020);fill-opacity:1;"/>
<path d="M114.71 68.3C122.88 56.92 128 41.76 128 22.8C128 13.1 113.83 25.43 93.1599 33.61C95.3899 35 97.4999 36.56 99.4799 38.29C108.1 45.94 113.29 56.25 114.71 68.3Z" fill="#4A251A" style="fill:#4A251A;fill:color(display-p3 0.2902 0.1451 0.1020);fill-opacity:1;"/>
<path d="M94.1999 19.2C89.6999 9.50001 81.8999 0.10001 74.6999 0.20001C66.8999 0.30001 68.2999 3.60001 64 3.60001C59.5 3.60001 61.2 0.20001 53.9 0.20001C46.6 0.20001 38.5 9.30001 33.7 19.2C43.62 21.6 53.7999 22.74 64 22.6C77.7 22.6 87.5999 21 94.1999 19.2Z" fill="#826156" style="fill:#826156;fill:color(display-p3 0.5098 0.3804 0.3373);fill-opacity:1;"/>
<path d="M96.4599 25C95.8199 23.02 95.0699 21.09 94.1999 19.2C87.5999 21 77.6999 22.6 63.9999 22.6C53.7999 22.74 43.6199 21.6 33.6999 19.2C32.8099 21.1 32.0399 23.0599 31.3799 25.0499C42.1699 26.8399 53.0699 27.82 63.9999 28C74.8799 27.82 85.7299 26.82 96.4599 25Z" fill="#A1887F" style="fill:#A1887F;fill:color(display-p3 0.6314 0.5333 0.4980);fill-opacity:1;"/>
<path d="M96.46 25C85.73 26.82 74.88 27.82 64 28C53.07 27.82 42.17 26.84 31.38 25.05C15.58 22.6 3 19.5 3 19.5C3 19.5 20.3 53.8 64 53.8C107.7 53.8 124.1 19.5 124.1 19.5C124.1 19.5 111.93 22.58 96.46 25Z" fill="#7A5549" style="fill:#7A5549;fill:color(display-p3 0.4784 0.3333 0.2863);fill-opacity:1;"/>
<path d="M82.3001 57.4C85.8001 57.4 89.0001 61.5 89.0001 68.3C89.0001 75.1 85.8001 79.2 82.3001 79.2C78.8001 79.2 75.6001 75.1 75.6001 68.3C75.6001 61.5 78.8001 57.4 82.3001 57.4Z" fill="#312D2D" style="fill:#312D2D;fill:color(display-p3 0.1922 0.1765 0.1765);fill-opacity:1;"/>
<path d="M45.7 57.4C42.2 57.4 39 61.5 39 68.3C39 75.1 42.2 79.2 45.7 79.2C49.2 79.2 52.4 75.1 52.4 68.3C52.4 61.5 49.2 57.4 45.7 57.4Z" fill="#312D2D" style="fill:#312D2D;fill:color(display-p3 0.1922 0.1765 0.1765);fill-opacity:1;"/>
<path d="M45.11 61.3101C43.83 60.7201 42.32 61.2801 41.73 62.5601C41.28 63.5401 41.49 64.6901 42.25 65.4401C43.53 66.0301 45.04 65.4701 45.63 64.1901C46.08 63.2201 45.87 62.0601 45.11 61.3101Z" fill="#767070" style="fill:#767070;fill:color(display-p3 0.4625 0.4374 0.4374);fill-opacity:1;"/>
<path d="M81.9999 61.3101C80.7199 60.7201 79.2099 61.2801 78.6199 62.5601C78.1699 63.5401 78.3799 64.6901 79.1399 65.4401C80.4199 66.0301 81.9299 65.4701 82.5199 64.1901C82.9699 63.2201 82.7599 62.0601 81.9999 61.3101Z" fill="#767070" style="fill:#767070;fill:color(display-p3 0.4625 0.4374 0.4374);fill-opacity:1;"/>
<path d="M95.57 88.7801C94.4 86.6901 91.87 85.7701 89.63 86.6201C81.09 89.1101 72.24 90.3501 63.35 90.3101C54.45 90.3501 45.6 89.1101 37.06 86.6201C34.82 85.7801 32.3 86.6901 31.13 88.7801C30 90.8801 30.82 93.3001 31.77 95.3901C37.12 107.12 48.89 114.13 63.28 114.18H63.41C77.81 114.13 89.58 107.12 94.92 95.3901C95.87 93.3001 96.7 90.8801 95.57 88.7801Z" fill="#312D2D" style="fill:#312D2D;fill:color(display-p3 0.1922 0.1765 0.1765);fill-opacity:1;"/>
<path d="M76.6601 110.85C76.3501 110.57 76.0401 110.31 75.7201 110.04C72.3201 107.06 67.9301 105.45 63.4101 105.54C58.7401 105.44 54.1901 106.98 50.5401 109.89C50.2201 110.14 49.8901 110.39 49.5401 110.67C49.1901 110.95 49.0701 111.23 48.8701 111.5C53.4501 113.29 58.3201 114.2 63.2401 114.18H63.3701C68.0801 114.19 72.7501 113.36 77.1601 111.72C77.0101 111.42 76.8401 111.13 76.6601 110.85Z" fill="#ED7770" style="fill:#ED7770;fill:color(display-p3 0.9294 0.4667 0.4392);fill-opacity:1;"/>
<path d="M89.63 86.6201C81.09 89.1101 72.24 90.3501 63.35 90.3101C54.45 90.3501 45.6 89.1101 37.06 86.6201C34.82 85.7801 32.3 86.6901 31.13 88.7801C30.96 89.1001 30.84 89.4301 30.75 89.7801C31.03 89.9201 31.34 90.0601 31.75 90.2101C41.75 95.2201 52.81 97.7701 64 97.6401C74.74 97.7601 85.36 95.4201 95.06 90.8101C95.45 90.6501 95.77 90.4901 96.06 90.3401C95.99 89.7901 95.83 89.2701 95.57 88.7801C94.4 86.6901 91.87 85.7701 89.63 86.6201Z" fill="white" style="fill:white;fill-opacity:1;"/>
<path d="M95.6 88.79C94.41 86.69 91.86 85.77 89.6 86.62C81.06 89.11 72.21 90.35 63.32 90.31C54.43 90.35 45.58 89.11 37.04 86.62C34.8 85.78 32.28 86.69 31.11 88.78C29.98 90.88 30.8 93.3 31.75 95.39C32.18 96.33 32.66 97.25 33.17 98.14C33.17 98.14 31.4 91.65 32.94 89.77C33.46 88.98 34.32 88.48 35.27 88.42C35.66 88.42 36.05 88.49 36.42 88.61C45.12 91.14 54.14 92.42 63.2 92.39H63.49C72.54 92.42 81.55 91.14 90.24 88.61C90.61 88.49 91 88.42 91.39 88.42C92.34 88.47 93.21 88.97 93.73 89.77C95.26 91.65 93.5 98.15 93.5 98.15C94.01 97.26 94.5 96.34 94.96 95.4C95.91 93.31 96.73 90.89 95.6 88.79Z" fill="#F3B872" style="fill:#F3B872;fill:color(display-p3 0.9542 0.7229 0.4453);fill-opacity:1;"/>
<defs>
<radialGradient id="paint0_radial_169_4759" cx="0" cy="0" r="1" gradientUnits="userSpaceOnUse" gradientTransform="translate(63.59 75.0901) scale(50.6587 50.6587)">
<stop offset="0.5" stop-color="#FDE030" style="stop-color:#FDE030;stop-color:color(display-p3 0.9922 0.8784 0.1882);stop-opacity:1;"/>
<stop offset="0.92" stop-color="#F7C02B" style="stop-color:#F7C02B;stop-color:color(display-p3 0.9686 0.7529 0.1686);stop-opacity:1;"/>
<stop offset="1" stop-color="#F4A223" style="stop-color:#F4A223;stop-color:color(display-p3 0.9569 0.6353 0.1373);stop-opacity:1;"/>
</radialGradient>
<radialGradient id="paint1_radial_169_4759" cx="0" cy="0" r="1" gradientUnits="userSpaceOnUse" gradientTransform="translate(41.3521 49.8684) rotate(-43.2013) scale(90.7383 90.5595)">
<stop offset="0.3533" stop-color="#F9DDBD" style="stop-color:#F9DDBD;stop-color:color(display-p3 0.9765 0.8667 0.7412);stop-opacity:1;"/>
<stop offset="0.8723" stop-color="#FFD29C" style="stop-color:#FFD29C;stop-color:color(display-p3 1.0000 0.8235 0.6118);stop-opacity:1;"/>
</radialGradient>
</defs>
</svg>
