<svg width="128" height="128" viewBox="0 0 128 128" fill="none" xmlns="http://www.w3.org/2000/svg">
<path d="M73.1299 16.43C72.5499 15.85 55.4099 16.06 55.4099 16.06L16.1399 59.68C16.1399 59.68 14.7699 72.52 16.0299 77.9C16.7399 80.93 18.1899 86.38 22.5899 92.85C25.5999 97.28 27.9599 99.2 27.9599 99.2L51.3999 109.33L90.5899 113.36L113.54 98.47C113.54 98.47 115.25 91.63 114.64 86.63C114.03 81.62 113.05 77.84 113.17 74.54C113.29 71.24 115.25 57.99 112.15 48.5C109.41 40.12 101.33 28.51 91.1999 22.53C81.0699 16.55 73.1299 16.43 73.1299 16.43Z" fill="#FF2A23" style="fill:#FF2A23;fill:color(display-p3 1.0000 0.1647 0.1373);fill-opacity:1;"/>
<path d="M67.1498 116.99C72.6998 118.34 83.4698 123.27 88.1098 123.98C92.9098 124.71 99.7398 124.78 106.98 119.29C113.44 114.39 116.42 109.41 116.78 105.19C117.29 99.2801 116.26 94.0501 115.94 91.5501C115.63 89.0501 114.22 83.6101 114.22 83.6101C114.22 83.6101 110.21 92.4901 105.2 96.6601C100.19 100.83 88.0998 106.36 76.1098 106.77C64.1198 107.19 56.0898 107.5 47.6398 105.41C39.1898 103.32 24.8398 95.9001 24.8398 95.9001C24.8398 95.9001 29.8798 103.4 39.7198 108.95C47.1498 113.14 51.6198 114.21 54.6298 114.89C59.3098 115.96 62.8698 115.94 67.1498 116.99Z" fill="#DC0D27" style="fill:#DC0D27;fill:color(display-p3 0.8627 0.0510 0.1529);fill-opacity:1;"/>
<path d="M35.87 33.05C35.87 33.05 15.34 63.72 15.15 68.83C14.94 74.67 16.15 78.15 16.15 78.15C16.15 78.15 20.32 78 24.39 75.38C26.28 74.17 27.7 72.96 27.7 72.96C27.7 72.96 33.49 81.07 35.36 81.17C37.23 81.27 42.21 77.67 44.4 75.07C46.59 72.46 48.05 67.66 48.05 67.66C48.05 67.66 51.43 69.19 58.52 68.98C65.61 68.77 67.79 68.14 68.31 67.62C68.83 67.1 69.53 63.81 70.15 61.2C70.78 58.59 70.84 54.87 70.84 53.3C70.84 51.74 70.4 49.36 70.4 49.36C70.4 49.36 75.99 46.71 78.6 44.2C81.21 41.7 82.46 40.45 82.88 39.61C83.3 38.78 81.73 34.71 79.96 32C78.19 29.29 75.79 27.41 75.79 27.41C75.79 27.41 79.34 24.59 80.8 23.03C82.26 21.47 84.16 19.04 84.16 19.04C84.16 19.04 81.12 17.71 77.47 16.88C73.82 16.05 66.52 15.11 66.52 15.11L35.87 33.05Z" fill="#DC0D27" style="fill:#DC0D27;fill:color(display-p3 0.8627 0.0510 0.1529);fill-opacity:1;"/>
<path d="M19.32 52.84C19.03 53.04 10.24 66.81 10.14 68.07C10.04 69.34 9.83003 71.38 11.21 72.07C12.19 72.56 12.97 71.68 13.65 71.09C14.33 70.5 15.7 69.63 17.26 68.84C18.82 68.05 21.5 67.52 23.41 66.4C26.24 64.74 28.78 60.74 28.78 60.74L35.71 70.7L33.24 76.84C33.24 76.84 34.98 78.93 35.33 79.19C35.96 79.66 39.72 76.85 41.67 71.87C43.62 66.89 44.11 60.54 44.11 60.54C44.11 60.54 48.02 63.27 51.83 64.06C55.64 64.84 63.44 64.45 63.94 63.86C64.38 63.34 64.64 55.9 64.25 52.58C63.86 49.26 62.03 44.87 62.03 44.87C62.03 44.87 65.99 45.5 70.68 44.23C75.37 42.96 78.88 40.23 79.08 39.15C79.28 38.07 76.4 35.33 76.4 35.33L64.82 31.24L63.42 27.75C63.42 27.75 69.34 26.01 72.43 22.35C74.66 19.7 78.66 16.34 78.66 14.77C78.66 13.2 76.14 13.56 76.14 13.56L54.66 22.15L19.32 52.84Z" fill="#759937" style="fill:#759937;fill:color(display-p3 0.4588 0.6000 0.2157);fill-opacity:1;"/>
<path d="M29.7701 26.4199C36.0801 20.6199 42.4501 15.8599 52.7201 13.1899C62.9501 10.5299 70.0901 11.8399 71.7501 12.1399C73.4101 12.4299 78.4101 13.3399 78.0201 13.8699C77.8501 14.0999 74.2001 15.8299 70.5801 18.1699C66.9601 20.5099 65.4401 21.2699 64.5301 21.7799C63.1701 22.5399 61.2101 23.5899 61.2901 24.8099C61.4101 26.4699 63.6501 26.5699 66.0901 27.8399C68.5301 29.1099 71.5601 31.0599 73.8101 33.0199C76.0601 34.9799 77.1901 35.7599 77.5001 36.5299C77.8401 37.3699 70.4901 41.32 65.5101 41.2199C60.5301 41.1199 58.1901 38.8799 57.0101 40.6299C55.8401 42.3899 59.5501 46.7799 60.5301 51.6699C61.5101 56.5599 61.5101 61.4399 61.5101 61.4399C61.5101 61.4399 54.0301 61.9999 50.5701 60.7499C45.3601 58.8699 44.7101 54.8599 41.8801 55.3799C38.0501 56.0799 41.4701 62.6699 38.7801 70.5399C36.3801 77.5799 34.3401 78.1199 34.3401 78.1199C34.3401 78.1199 31.0301 74.7099 29.8501 72.8499C28.6701 70.9899 27.3201 70.0299 27.0301 66.0299C26.7401 62.0299 27.2301 56.9499 25.2701 56.7499C23.3101 56.5499 22.8301 60.6599 20.5801 62.7099C18.3301 64.7599 14.9201 65.8399 13.3501 67.0999C11.7901 68.3699 10.1701 70.6299 10.1701 70.6299C10.1701 70.6299 9.05012 63.8799 12.0801 54.7999C15.1101 45.7199 20.1001 35.3099 29.7701 26.4199Z" fill="#98B715" style="fill:#98B715;fill:color(display-p3 0.5961 0.7176 0.0824);fill-opacity:1;"/>
<path d="M17.9499 7.09005C18.1999 6.16005 22.4699 3.57005 24.5199 3.67005C26.5699 3.77005 26.1599 4.35005 26.4499 5.13005C26.7399 5.91005 25.2799 13.3301 27.6199 17.6301C29.7299 21.5001 31.6199 23.3901 35.8199 23.2901C40.0199 23.1901 30.5499 35.6901 30.5499 35.6901C30.5499 35.6901 22.4399 31.2001 19.2199 22.9001C15.9999 14.6001 17.5599 8.55005 17.9499 7.09005Z" fill="#6F8E3D" style="fill:#6F8E3D;fill:color(display-p3 0.4363 0.5583 0.2373);fill-opacity:1;"/>
<path d="M101.21 85.1799C99.3599 85.2699 97.6599 87.7899 98.6299 91.2099C99.4299 94.0399 101.46 95.0899 102.94 94.8999C104.42 94.7199 105.77 92.4399 105.22 89.2399C104.79 86.8099 103.67 85.0599 101.21 85.1799Z" fill="#FFEBCA" style="fill:#FFEBCA;fill:color(display-p3 1.0000 0.9216 0.7922);fill-opacity:1;"/>
<path d="M98.7499 57.0701C96.2199 57.7201 96.4698 61.0401 97.0298 62.85C97.5798 64.66 99.1198 65.8701 100.78 65.5401C102.44 65.2101 103.43 62.5801 102.99 60.5701C102.57 58.5501 101.09 56.4701 98.7499 57.0701Z" fill="#FFEBCA" style="fill:#FFEBCA;fill:color(display-p3 1.0000 0.9216 0.7922);fill-opacity:1;"/>
<path d="M85.3998 33.6199C83.5598 35.2199 84.3498 37.7999 85.9498 39.5299C87.5498 41.2499 89.6398 41.6799 90.9998 40.6399C92.3598 39.5999 91.9198 35.9599 90.3198 34.4299C88.7198 32.8899 86.8098 32.3899 85.3998 33.6199Z" fill="#FFEBCA" style="fill:#FFEBCA;fill:color(display-p3 1.0000 0.9216 0.7922);fill-opacity:1;"/>
<path d="M76.4602 54.55C75.0002 55.86 75.2802 58.71 76.9202 60.69C78.5602 62.67 81.0502 63.79 82.3002 62.14C83.5502 60.49 82.6302 57.26 81.3202 55.54C80.0002 53.82 77.7002 53.43 76.4602 54.55Z" fill="#FFEBCA" style="fill:#FFEBCA;fill:color(display-p3 1.0000 0.9216 0.7922);fill-opacity:1;"/>
<path d="M76.4799 58.39C78.1299 59.38 80.3299 55.9 78.6599 54.73C76.8599 53.46 74.4099 57.15 76.4799 58.39Z" fill="#FFFEFF" style="fill:#FFFEFF;fill:color(display-p3 1.0000 0.9961 1.0000);fill-opacity:1;"/>
<path d="M76.8798 79.24C75.5298 80.92 76.5898 83.37 77.8298 84.85C79.2598 86.55 82.5298 87.62 84.0198 86.17C85.7498 84.49 84.9698 81.5701 82.7298 79.5501C81.0398 78.0301 78.2398 77.53 76.8798 79.24Z" fill="#FFEBCA" style="fill:#FFEBCA;fill:color(display-p3 1.0000 0.9216 0.7922);fill-opacity:1;"/>
<path d="M78.9401 104.01C78.3601 106.1 79.2401 108.05 83.1201 108.69C86.5001 109.24 88.2301 107.64 88.1701 105.92C88.1301 104.75 86.8201 102.78 83.6201 102.23C81.0501 101.78 79.4301 102.23 78.9401 104.01Z" fill="#FFEBCA" style="fill:#FFEBCA;fill:color(display-p3 1.0000 0.9216 0.7922);fill-opacity:1;"/>
<path d="M52.8501 95.8301C51.5401 97.7901 53.1501 100.5 54.7601 101.74C56.6001 103.16 59.6801 102.85 60.4801 101.12C61.2801 99.4001 60.3001 97.0601 58.3901 95.7101C56.4801 94.3501 53.9601 94.1701 52.8501 95.8301Z" fill="#FFEBCA" style="fill:#FFEBCA;fill:color(display-p3 1.0000 0.9216 0.7922);fill-opacity:1;"/>
<path d="M31.87 83.83C29.45 85.85 31.2 88.89 32.73 90.04C34.45 91.33 36.61 92.25 38.51 90.59C40.41 88.93 38.57 85.48 37.4 84.44C36.24 83.4 33.72 82.29 31.87 83.83Z" fill="#FFEBCA" style="fill:#FFEBCA;fill:color(display-p3 1.0000 0.9216 0.7922);fill-opacity:1;"/>
<path d="M33.5999 83.8799C31.9699 83.5699 30.0899 86.7699 32.1199 87.9399C34.0099 89.0299 35.8699 84.3099 33.5999 83.8799Z" fill="#FFFFFE" style="fill:#FFFFFE;fill:color(display-p3 1.0000 1.0000 0.9961);fill-opacity:1;"/>
<path d="M55.6801 74.23C54.4001 76.16 55.6201 79.15 57.2201 80.2C58.8201 81.25 61.2801 81.98 62.7601 80.08C64.2401 78.17 63.3801 75.71 61.6501 74.3C59.9301 72.88 57.0401 72.2 55.6801 74.23Z" fill="#FFEBCA" style="fill:#FFEBCA;fill:color(display-p3 1.0000 0.9216 0.7922);fill-opacity:1;"/>
<path d="M57.9001 73.74C56.7901 73.62 56.1201 74.79 55.9301 75.89C55.7501 77 56.0501 78.1 57.2201 78.35C58.3901 78.6 59.0701 76.87 59.1301 76.2C59.1901 75.52 59.0701 73.86 57.9001 73.74Z" fill="white" style="fill:white;fill-opacity:1;"/>
</svg>
