<svg width="129" height="128" viewBox="0 0 129 128" fill="none" xmlns="http://www.w3.org/2000/svg">
<path d="M116.5 4H12.5C8.08 4 4.5 7.58 4.5 12V116C4.5 120.42 8.08 124 12.5 124H116.5C120.92 124 124.5 120.42 124.5 116V12C124.5 7.58 120.92 4 116.5 4Z" fill="#194FA5" style="fill:#194FA5;fill:color(display-p3 0.0980 0.3098 0.6471);fill-opacity:1;"/>
<path d="M110.2 4H12C7.87002 4.03 4.53002 7.37 4.50002 11.5V109.4C4.49002 113.54 7.84002 116.89 11.98 116.9C11.99 116.9 11.99 116.9 12 116.9H110.1C114.24 116.91 117.59 113.56 117.6 109.42C117.6 109.41 117.6 109.41 117.6 109.4V11.5C117.69 7.45 114.47 4.09 110.42 4C110.35 4 110.27 4 110.2 4Z" fill="#2262DD" style="fill:#2262DD;fill:color(display-p3 0.1333 0.3843 0.8667);fill-opacity:1;"/>
<path opacity="0.3" d="M40.2002 12.9C40.2002 10.6 38.6002 9.9 29.4002 10.2C21.7002 10.5 17.9002 11.4 15.6002 14.2C13.7002 16.5 13.3002 19.8 13.0002 22.6C12.8002 24.8 10.8002 37.5 16.5002 33.8C17.1802 33.35 17.7302 32.73 18.1002 32C19.3002 29.9 20.0002 28.5 21.4002 26.4C26.7002 17.8 40.2002 15.9 40.2002 12.9Z" fill="#68ABE6" style="fill:#68ABE6;fill:color(display-p3 0.4078 0.6706 0.9020);fill-opacity:1;"/>
<path opacity="0.65" d="M40.2002 12.9C40.2002 10.6 38.6002 9.9 29.4002 10.2C21.7002 10.5 17.9002 11.4 15.6002 14.2C13.7002 16.5 13.3002 19.8 13.0002 22.6C12.8002 24.8 10.8002 37.5 16.5002 33.8C17.1802 33.35 17.7302 32.73 18.1002 32C19.3002 29.9 20.0002 28.5 21.4002 26.4C26.7002 17.8 40.2002 15.9 40.2002 12.9Z" fill="#68ABE6" style="fill:#68ABE6;fill:color(display-p3 0.4078 0.6706 0.9020);fill-opacity:1;"/>
<path d="M64.6201 45C70.143 45 74.6201 40.5228 74.6201 35C74.6201 29.4772 70.143 25 64.6201 25C59.0973 25 54.6201 29.4772 54.6201 35C54.6201 40.5228 59.0973 45 64.6201 45Z" fill="white" style="fill:white;fill-opacity:1;"/>
<path d="M86.0954 81.4705C87.9684 80.9172 88.95 79.1719 88.299 77.5799L78.6432 54.5849C77.3711 51.4093 71.5015 49 64.4399 49C57.3984 49 51.5388 51.3923 50.2467 54.5508L40.701 77.5799C40.05 79.1719 41.0316 80.9086 42.9046 81.4705C44.7777 82.0239 46.8211 81.1896 47.4821 79.5976L53.2215 64.5968C53.3217 64.3414 53.7724 64.4009 53.7724 64.6734V108.186C53.7724 110.289 55.7857 112 58.2598 112C60.7338 112 62.7471 110.289 62.7471 108.186V80.9512C62.7471 80.1084 63.5484 79.4273 64.5401 79.4273C65.5317 79.4273 66.333 80.1084 66.333 80.9512V108.186C66.333 110.289 68.3463 112 70.8203 112C73.2944 112 75.3077 110.289 75.3077 108.186V64.6904C75.3077 64.418 75.7584 64.3584 75.8586 64.6138L81.5078 79.5891C82.1689 81.1896 84.2223 82.0239 86.0954 81.4705Z" fill="white" style="fill:white;fill-opacity:1;"/>
</svg>
