<svg width="128" height="128" viewBox="0 0 128 128" fill="none" xmlns="http://www.w3.org/2000/svg">
<path d="M63.6 118.8C35.7 118.8 5.59998 101.3 5.59998 62.9C5.59998 24.5 35.7 7 63.6 7C79.1 7 93.4 12.1 104 21.4C115.5 31.6 121.6 46 121.6 62.9C121.6 79.8 115.5 94.1 104 104.3C93.4 113.6 79 118.8 63.6 118.8Z" fill="url(#paint0_radial_169_7810)" style=""/>
<path d="M111.49 29.6699C116.82 38.2699 119.6 48.5099 119.6 59.8999C119.6 76.7999 113.5 91.0999 102 101.3C91.4 110.6 77 115.8 61.6 115.8C43.54 115.8 24.6 108.45 13.42 92.8599C24.18 110.52 44.42 118.8 63.6 118.8C79 118.8 93.4 113.6 104 104.3C115.5 94.0999 121.6 79.7999 121.6 62.8999C121.6 50.1599 118.13 38.8399 111.49 29.6699Z" fill="#EB8F00" style="fill:#EB8F00;fill:color(display-p3 0.9216 0.5608 0.0000);fill-opacity:1;"/>
<path d="M63.6 118.8C35.7 118.8 5.59998 101.3 5.59998 62.9C5.59998 24.5 35.7 7 63.6 7C79.1 7 93.4 12.1 104 21.4C115.5 31.6 121.6 46 121.6 62.9C121.6 79.8 115.5 94.1 104 104.3C93.4 113.6 79 118.8 63.6 118.8Z" fill="url(#paint1_linear_169_7810)" style=""/>
<path d="M63.6 118.8C35.7 118.8 5.59998 101.3 5.59998 62.9C5.59998 24.5 35.7 7 63.6 7C79.1 7 93.4 12.1 104 21.4C115.5 31.6 121.6 46 121.6 62.9C121.6 79.8 115.5 94.1 104 104.3C93.4 113.6 79 118.8 63.6 118.8Z" fill="url(#paint2_radial_169_7810)" style=""/>
<path d="M63.6 118.8C35.7 118.8 5.59998 101.3 5.59998 62.9C5.59998 24.5 35.7 7 63.6 7C79.1 7 93.4 12.1 104 21.4C115.5 31.6 121.6 46 121.6 62.9C121.6 79.8 115.5 94.1 104 104.3C93.4 113.6 79 118.8 63.6 118.8Z" fill="url(#paint3_radial_169_7810)" style=""/>
<path d="M63.6 118.8C35.7 118.8 5.59998 101.3 5.59998 62.9C5.59998 24.5 35.7 7 63.6 7C79.1 7 93.4 12.1 104 21.4C115.5 31.6 121.6 46 121.6 62.9C121.6 79.8 115.5 94.1 104 104.3C93.4 113.6 79 118.8 63.6 118.8Z" fill="url(#paint4_linear_169_7810)" style=""/>
<path d="M111.07 30C116.4 38.6 119.18 48.84 119.18 60.23C119.18 77.13 113.08 91.43 101.58 101.63C90.9799 110.93 76.5799 116.13 61.1799 116.13C43.1199 116.13 24.1799 108.78 12.9999 93.19C23.7599 110.85 43.9999 119.13 63.1799 119.13C78.5799 119.13 92.9799 113.93 103.58 104.63C115.08 94.43 121.18 80.13 121.18 63.23C121.18 50.49 117.71 39.17 111.07 30Z" fill="#EB8F00" style="fill:#EB8F00;fill:color(display-p3 0.9216 0.5608 0.0000);fill-opacity:1;"/>
<path d="M111.07 30C116.4 38.6 119.18 48.84 119.18 60.23C119.18 77.13 113.08 91.43 101.58 101.63C90.9799 110.93 76.5799 116.13 61.1799 116.13C43.1199 116.13 24.1799 108.78 12.9999 93.19C23.7599 110.85 43.9999 119.13 63.1799 119.13C78.5799 119.13 92.9799 113.93 103.58 104.63C115.08 94.43 121.18 80.13 121.18 63.23C121.18 50.49 117.71 39.17 111.07 30Z" fill="#F3B872" style="fill:#F3B872;fill:color(display-p3 0.9542 0.7229 0.4453);fill-opacity:1;"/>
<path d="M111.07 30C116.4 38.6 119.18 48.84 119.18 60.23C119.18 77.13 113.08 91.43 101.58 101.63C90.9799 110.93 76.5799 116.13 61.1799 116.13C43.1199 116.13 24.1799 108.78 12.9999 93.19C23.7599 110.85 43.9999 119.13 63.1799 119.13C78.5799 119.13 92.9799 113.93 103.58 104.63C115.08 94.43 121.18 80.13 121.18 63.23C121.18 50.49 117.71 39.17 111.07 30Z" fill="#BA8F63" style="fill:#BA8F63;fill:color(display-p3 0.7294 0.5608 0.3882);fill-opacity:1;"/>
<path d="M44 49.9399C39.81 49.9399 36 53.4799 36 59.3599C36 65.2399 39.81 68.7699 44 68.7699C48.2 68.7699 52 65.2299 52 59.3599C52 53.4899 48.24 49.9399 44 49.9399Z" fill="#5D4037" style="fill:#5D4037;fill:color(display-p3 0.3647 0.2510 0.2157);fill-opacity:1;"/>
<path d="M43.65 53.8701C42.23 53.1901 40.52 53.7901 39.83 55.2101C39.3 56.3201 39.54 57.6501 40.43 58.5101C41.85 59.1901 43.56 58.5901 44.25 57.1701C44.78 56.0601 44.54 54.7301 43.65 53.8701Z" fill="#836258" style="fill:#836258;fill:color(display-p3 0.5125 0.3838 0.3438);fill-opacity:1;"/>
<path d="M82.4 49.9399C78.21 49.9399 74.4 53.4799 74.4 59.3599C74.4 65.2399 78.21 68.7699 82.4 68.7699C86.59 68.7699 90.4 65.2299 90.4 59.3599C90.4 53.4899 86.59 49.9399 82.4 49.9399Z" fill="#5D4037" style="fill:#5D4037;fill:color(display-p3 0.3647 0.2510 0.2157);fill-opacity:1;"/>
<path d="M82 53.8701C80.58 53.1901 78.87 53.7901 78.18 55.2101C77.65 56.3201 77.89 57.6501 78.78 58.5101C80.2 59.1901 81.91 58.5901 82.6 57.1701C83.13 56.0601 82.89 54.7301 82 53.8701Z" fill="#836258" style="fill:#836258;fill:color(display-p3 0.5125 0.3838 0.3438);fill-opacity:1;"/>
<path d="M52.7 103C49.35 103 46.25 101.26 44.5 98.4C42.82 95.63 42.97 92.11 44.9 89.5C49.2 83.5 55.8 80.3 64 80.3C72.2 80.3 78.8 83.5 83.1 89.5C85.03 92.11 85.18 95.63 83.5 98.4C81.75 101.26 78.65 103 75.3 103C74.25 102.99 73.2 102.82 72.2 102.5C66.87 100.77 61.13 100.77 55.8 102.5C54.8 102.81 53.75 102.98 52.7 103Z" fill="#5D4037" style="fill:#5D4037;fill:color(display-p3 0.3647 0.2510 0.2157);fill-opacity:1;"/>
<path d="M83.4 31.31H83.3C82.29 31.39 81.4 30.64 81.31 29.63C81.23 28.62 81.98 27.73 82.99 27.64C84.92 27.35 86.89 27.3701 88.82 27.6901C94.05 28.4901 98.78 31.25 102.04 35.42C103.53 37.42 100.9 39.32 99.25 37.82C94.85 33.93 89.27 31.64 83.4 31.31Z" fill="#5D4037" style="fill:#5D4037;fill:color(display-p3 0.3647 0.2510 0.2157);fill-opacity:1;"/>
<path d="M44.85 31.3101H45C46.02 31.3301 46.85 30.5201 46.87 29.5001C46.89 28.5801 46.21 27.7801 45.3 27.6501C43.37 27.3601 41.4 27.3801 39.47 27.7001C34.23 28.4901 29.5 31.2601 26.24 35.4301C24.76 37.4301 27.39 39.3301 29.03 37.8301C33.43 33.9501 39 31.6501 44.85 31.3101Z" fill="#5D4037" style="fill:#5D4037;fill:color(display-p3 0.3647 0.2510 0.2157);fill-opacity:1;"/>
<defs>
<radialGradient id="paint0_radial_169_7810" cx="0" cy="0" r="1" gradientUnits="userSpaceOnUse" gradientTransform="translate(63.6 62.9) scale(56.9597 56.9597)">
<stop offset="0.5" stop-color="#FDE030" style="stop-color:#FDE030;stop-color:color(display-p3 0.9922 0.8784 0.1882);stop-opacity:1;"/>
<stop offset="0.92" stop-color="#F7C02B" style="stop-color:#F7C02B;stop-color:color(display-p3 0.9686 0.7529 0.1686);stop-opacity:1;"/>
<stop offset="1" stop-color="#F4A223" style="stop-color:#F4A223;stop-color:color(display-p3 0.9569 0.6353 0.1373);stop-opacity:1;"/>
</radialGradient>
<linearGradient id="paint1_linear_169_7810" x1="63.6" y1="118.8" x2="63.6" y2="7" gradientUnits="userSpaceOnUse">
<stop offset="0.39" stop-color="#40C0E7" stop-opacity="0" style="stop-color:none;stop-opacity:0;"/>
<stop offset="1" stop-color="#5F7AFF" style="stop-color:#5F7AFF;stop-color:color(display-p3 0.3725 0.4784 1.0000);stop-opacity:1;"/>
</linearGradient>
<radialGradient id="paint2_radial_169_7810" cx="0" cy="0" r="1" gradientUnits="userSpaceOnUse" gradientTransform="translate(38.599 34.5377) rotate(-43.2082) scale(102.024 101.825)">
<stop offset="0.3533" stop-color="#F9DDBD" style="stop-color:#F9DDBD;stop-color:color(display-p3 0.9765 0.8667 0.7412);stop-opacity:1;"/>
<stop offset="0.8723" stop-color="#FFD29C" style="stop-color:#FFD29C;stop-color:color(display-p3 1.0000 0.8235 0.6118);stop-opacity:1;"/>
</radialGradient>
<radialGradient id="paint3_radial_169_7810" cx="0" cy="0" r="1" gradientUnits="userSpaceOnUse" gradientTransform="translate(38.599 34.5377) rotate(-43.2082) scale(102.024 101.825)">
<stop offset="0.3533" stop-color="#E0BB95" style="stop-color:#E0BB95;stop-color:color(display-p3 0.8784 0.7333 0.5843);stop-opacity:1;"/>
<stop offset="0.8723" stop-color="#CCA47A" style="stop-color:#CCA47A;stop-color:color(display-p3 0.8000 0.6431 0.4784);stop-opacity:1;"/>
</radialGradient>
<linearGradient id="paint4_linear_169_7810" x1="63.6" y1="118.8" x2="63.6" y2="7" gradientUnits="userSpaceOnUse">
<stop offset="0.39" stop-color="#40C0E7" stop-opacity="0" style="stop-color:none;stop-opacity:0;"/>
<stop offset="1" stop-color="#5F7AFF" style="stop-color:#5F7AFF;stop-color:color(display-p3 0.3725 0.4784 1.0000);stop-opacity:1;"/>
</linearGradient>
</defs>
</svg>
