<svg width="128" height="128" viewBox="0 0 128 128" fill="none" xmlns="http://www.w3.org/2000/svg">
<path d="M63.6001 118.8C35.7001 118.8 5.6001 101.3 5.6001 62.9C5.6001 24.5 35.7001 7 63.6001 7C79.1001 7 93.4001 12.1 104 21.4C115.5 31.6 121.6 46 121.6 62.9C121.6 79.8 115.5 94.1 104 104.3C93.4001 113.6 79.0001 118.8 63.6001 118.8Z" fill="url(#paint0_radial_169_5514)" style=""/>
<path d="M63.6001 118.8C35.7001 118.8 5.6001 101.3 5.6001 62.9C5.6001 24.5 35.7001 7 63.6001 7C79.1001 7 93.4001 12.1 104 21.4C115.5 31.6 121.6 46 121.6 62.9C121.6 79.8 115.5 94.1 104 104.3C93.4001 113.6 79.0001 118.8 63.6001 118.8Z" fill="url(#paint1_linear_169_5514)" style=""/>
<path d="M63.6001 118.8C35.7001 118.8 5.6001 101.3 5.6001 62.9C5.6001 24.5 35.7001 7 63.6001 7C79.1001 7 93.4001 12.1 104 21.4C115.5 31.6 121.6 46 121.6 62.9C121.6 79.8 115.5 94.1 104 104.3C93.4001 113.6 79.0001 118.8 63.6001 118.8Z" fill="url(#paint2_radial_169_5514)" style=""/>
<path d="M111.49 29.67C116.82 38.27 119.6 48.51 119.6 59.9C119.6 76.8 113.5 91.1 102 101.3C91.4002 110.6 77.0002 115.8 61.6002 115.8C43.5402 115.8 24.6002 108.45 13.4202 92.86C24.1802 110.52 44.4202 118.8 63.6002 118.8C79.0002 118.8 93.4002 113.6 104 104.3C115.5 94.1001 121.6 79.8 121.6 62.9C121.6 50.16 118.13 38.84 111.49 29.67Z" fill="#EB8F00" style="fill:#EB8F00;fill:color(display-p3 0.9216 0.5608 0.0000);fill-opacity:1;"/>
<path d="M111.49 29.67C116.82 38.27 119.6 48.51 119.6 59.9C119.6 76.8 113.5 91.1 102 101.3C91.4002 110.6 77.0002 115.8 61.6002 115.8C43.5402 115.8 24.6002 108.45 13.4202 92.86C24.1802 110.52 44.4202 118.8 63.6002 118.8C79.0002 118.8 93.4002 113.6 104 104.3C115.5 94.1001 121.6 79.8 121.6 62.9C121.6 50.16 118.13 38.84 111.49 29.67Z" fill="#F3B872" style="fill:#F3B872;fill:color(display-p3 0.9542 0.7229 0.4453);fill-opacity:1;"/>
<path opacity="0.8" d="M27.25 85.6599C36.915 85.6599 44.75 77.8249 44.75 68.1599C44.75 58.4949 36.915 50.6599 27.25 50.6599C17.585 50.6599 9.75 58.4949 9.75 68.1599C9.75 77.8249 17.585 85.6599 27.25 85.6599Z" fill="url(#paint3_radial_169_5514)" style=""/>
<path opacity="0.8" d="M100.36 85.6599C110.025 85.6599 117.86 77.8249 117.86 68.1599C117.86 58.4949 110.025 50.6599 100.36 50.6599C90.6951 50.6599 82.8601 58.4949 82.8601 68.1599C82.8601 77.8249 90.6951 85.6599 100.36 85.6599Z" fill="url(#paint4_radial_169_5514)" style=""/>
<path d="M49.56 49.12L49.41 48.92L49 48.38L48.47 47.8C48.25 47.56 47.99 47.31 47.74 47.05C47.49 46.79 47.18 46.55 46.9 46.33C46.64 46.13 46.36 45.94 46.06 45.79C45.86 45.68 45.64 45.59 45.41 45.54C45.34 45.53 45.27 45.53 45.2 45.54H45.3H44.75C44.6 45.54 44.75 45.54 44.75 45.54H44.83C44.83 45.54 44.91 45.54 44.83 45.54C44.79 45.53 44.76 45.53 44.72 45.54C44.49 45.59 44.27 45.67 44.06 45.79C43.77 45.95 43.48 46.13 43.22 46.33C42.94 46.55 42.65 46.8 42.39 47.05C41.86 47.56 41.39 48.05 41.09 48.44L40.57 49.04L40.34 49.31C38.9 50.92 36.47 51.18 34.72 49.92C33.6 49.14 33.03 47.79 33.25 46.45C33.25 46.45 33.32 46.04 33.51 45.33C33.82 44.32 34.24 43.34 34.76 42.42C35.62 40.92 36.77 39.62 38.14 38.58C39.06 37.87 40.09 37.31 41.19 36.92C41.49 36.8 41.8 36.71 42.11 36.63C42.44 36.54 42.77 36.46 43.11 36.4L43.72 36.31L44.23 36.26H44.78H45.31H45.57H46.08C46.42 36.26 46.75 36.35 47.08 36.4C48.87 36.73 50.56 37.47 52 38.58C53.38 39.62 54.53 40.92 55.38 42.42C55.69 42.94 55.96 43.49 56.18 44.06C56.37 44.5 56.53 44.94 56.66 45.4C56.73 45.64 56.79 45.88 56.82 46.12V46.37C57.12 48.42 55.7 50.32 53.65 50.62C53.6 50.63 53.56 50.63 53.51 50.64C52.02 50.88 50.51 50.3 49.56 49.12Z" fill="#312D2D" style="fill:#312D2D;fill:color(display-p3 0.1922 0.1765 0.1765);fill-opacity:1;"/>
<path d="M87.0599 49.12L86.8999 48.92L86.4699 48.38L85.9399 47.8C85.7199 47.56 85.4599 47.31 85.2099 47.05C84.9599 46.79 84.6499 46.55 84.3699 46.33C84.1099 46.13 83.8299 45.94 83.5299 45.79C83.3299 45.68 83.1099 45.59 82.8799 45.54C82.8099 45.53 82.7399 45.53 82.6699 45.54H82.7699H82.2199C82.0699 45.54 82.2199 45.54 82.2199 45.54H82.2999C82.2999 45.54 82.3799 45.54 82.2999 45.54C82.2599 45.53 82.2299 45.53 82.1899 45.54C81.9599 45.59 81.7399 45.67 81.5299 45.79C81.2399 45.94 80.9599 46.13 80.6999 46.33C80.4099 46.55 80.1299 46.79 79.8599 47.05C79.3299 47.56 78.8599 48.05 78.5599 48.44L77.9999 49L77.7799 49.27C76.3299 50.88 73.9099 51.14 72.1499 49.88C71.0299 49.1 70.4599 47.75 70.6799 46.41C70.6799 46.41 70.7499 46 70.9499 45.29C71.2499 44.27 71.6699 43.3 72.1999 42.38C73.0499 40.88 74.1999 39.58 75.5699 38.54C76.4799 37.84 77.4899 37.28 78.5699 36.88C78.8699 36.76 79.1799 36.67 79.4899 36.59C79.8199 36.5 80.1499 36.42 80.4899 36.36L81.1099 36.27L81.6099 36.22H82.1599H82.6899H82.9499H83.4599C83.7999 36.22 84.1299 36.31 84.4599 36.36C85.0999 36.47 85.7399 36.64 86.3499 36.87C87.4299 37.26 88.4399 37.82 89.3499 38.53C90.7299 39.57 91.8799 40.87 92.7299 42.37C93.0399 42.89 93.3099 43.44 93.5299 44.01C93.7199 44.45 93.8799 44.89 94.0099 45.35C94.0799 45.59 94.1399 45.83 94.1699 46.07V46.32C94.5099 48.36 93.1199 50.29 91.0799 50.63C91.0499 50.63 91.0299 50.64 90.9999 50.64C89.5099 50.88 87.9999 50.3 87.0599 49.12Z" fill="#312D2D" style="fill:#312D2D;fill:color(display-p3 0.1922 0.1765 0.1765);fill-opacity:1;"/>
<path opacity="0.66" d="M79.1699 74.9999C79.6199 72.9999 79.9599 73.9099 80.2499 71.9199C80.4699 70.4199 82.9299 67.0999 82.9599 65.5899C82.9599 64.4799 83.4999 62.7199 82.8699 61.8099C80.6699 58.6699 76.9899 60.1799 75.8699 60.5599C72.0099 61.8399 68.6999 64.2599 65.1199 66.1199C60.5699 68.4499 55.7399 70.1999 50.7499 71.3299C52.8899 67.1699 55.5899 55.5099 48.6899 57.1199C45.5399 57.8499 43.4899 62.7699 42.7699 64.1999C38.8599 71.9999 33.4299 75.7099 29.2099 83.0899C24.9899 90.4699 24.8299 98.4299 29.4999 105.83C31.1999 108.67 33.5399 111.07 36.3399 112.83C39.2799 114.55 42.4499 113.27 45.2099 111.83C52.0299 108.34 58.4199 104.07 64.2599 99.1099C69.9999 94.0599 74.8399 87.8599 77.4999 80.6999C78.1799 78.8399 78.7399 76.9299 79.1699 74.9999Z" fill="url(#paint5_linear_169_5514)" style=""/>
<path d="M94.7999 78.8499C92.5799 75.6699 86.7999 78.9199 86.7999 78.9199C86.7999 78.9199 89.7999 76.3099 92.2999 73.9199C93.8999 72.3899 95.2999 69.1299 93.9899 66.9199C92.6799 64.7099 88.8699 64.8499 86.9999 65.9999L79.6699 70.4999C79.6699 70.4999 82.4199 69.2999 83.2499 64.5799C83.7699 62.6699 82.6499 60.6999 80.7399 60.1799C80.3799 60.0799 80.0099 60.0399 79.6399 60.0599C77.9099 60.2099 76.2599 60.8499 74.8699 61.8999C69.5699 65.6599 55.4199 75.2499 52.2499 74.9999C51.0199 74.8999 50.9099 74.7099 53.4999 69.1699C55.2399 65.8499 55.3999 61.9199 53.9399 58.4699C53.0899 56.4699 49.1699 55.9199 47.9399 57.8499C47.0099 59.2699 46.3399 62.7499 44.7199 66.2499C41.9999 71.9999 35.7299 79.7199 35.2199 80.4799C31.4899 85.9999 24.5399 96.2899 31.8199 107.83C38.2599 118.05 52.9599 118.53 60.4899 115.83C74.8799 110.73 88.1299 100.93 88.3799 100.73C90.9999 98.6499 93.3799 95.5999 92.2999 92.8199C90.9699 89.3799 86.5599 91.4199 86.5599 91.4199C89.1099 89.8699 91.3999 87.9199 93.3299 85.6399C95.1599 83.2799 96.2899 80.9999 94.7999 78.8499Z" fill="url(#paint6_radial_169_5514)" style=""/>
<path d="M94.7999 78.8499C92.5799 75.6699 86.7999 78.9199 86.7999 78.9199C86.7999 78.9199 89.7999 76.3099 92.2999 73.9199C93.8999 72.3899 95.2999 69.1299 93.9899 66.9199C92.6799 64.7099 88.8699 64.8499 86.9999 65.9999L79.6699 70.4999C79.6699 70.4999 82.4199 69.2999 83.2499 64.5799C83.7699 62.6699 82.6499 60.6999 80.7399 60.1799C80.3799 60.0799 80.0099 60.0399 79.6399 60.0599C77.9099 60.2099 76.2599 60.8499 74.8699 61.8999C69.5699 65.6599 55.4199 75.2499 52.2499 74.9999C51.0199 74.8999 50.9099 74.7099 53.4999 69.1699C55.2399 65.8499 55.3999 61.9199 53.9399 58.4699C53.0899 56.4699 49.1699 55.9199 47.9399 57.8499C47.0099 59.2699 46.3399 62.7499 44.7199 66.2499C41.9999 71.9999 35.7299 79.7199 35.2199 80.4799C31.4899 85.9999 24.5399 96.2899 31.8199 107.83C38.2599 118.05 52.9599 118.53 60.4899 115.83C74.8799 110.73 88.1299 100.93 88.3799 100.73C90.9999 98.6499 93.3799 95.5999 92.2999 92.8199C90.9699 89.3799 86.5599 91.4199 86.5599 91.4199C89.1099 89.8699 91.3999 87.9199 93.3299 85.6399C95.1599 83.2799 96.2899 80.9999 94.7999 78.8499Z" fill="url(#paint7_radial_169_5514)" style=""/>
<path d="M62.06 82.2499C61.06 81.1699 66.06 79.2499 68.06 77.7899L74.32 73.7899C76.38 72.4599 78.29 70.9199 80.03 69.1999C81.83 67.5499 82.96 65.2999 83.2 62.8699C83.47 64.1499 83.4 65.4799 83 66.7199C82.58 67.9699 81.95 69.1399 81.12 70.1599C79.46 72.1199 77.53 73.8299 75.38 75.2399C73.34 76.7199 71.21 78.0499 68.99 79.2399C66.77 80.4099 62.63 83.3499 62.06 82.2499Z" fill="#ED6C30" style="fill:#ED6C30;fill:color(display-p3 0.9294 0.4235 0.1882);fill-opacity:1;"/>
<path d="M62.06 82.2499C61.06 81.1699 66.06 79.2499 68.06 77.7899L74.32 73.7899C76.38 72.4599 78.29 70.9199 80.03 69.1999C81.83 67.5499 82.96 65.2999 83.2 62.8699C83.47 64.1499 83.4 65.4799 83 66.7199C82.58 67.9699 81.95 69.1399 81.12 70.1599C79.46 72.1199 77.53 73.8299 75.38 75.2399C73.34 76.7199 71.21 78.0499 68.99 79.2399C66.77 80.4099 62.63 83.3499 62.06 82.2499Z" fill="#F3B871" style="fill:#F3B871;fill:color(display-p3 0.9529 0.7216 0.4431);fill-opacity:1;"/>
<path d="M74.38 97.7499C73.93 97.1299 78.29 95.5999 80.19 94.4799C82.08 93.3799 83.91 92.1899 85.67 90.9099C87.44 89.5999 89.21 88.3299 90.85 86.9099C92.55 85.5099 94.1 83.9399 95.49 82.2399C94.8 84.4399 93.6 86.4499 92 88.1099C90.44 89.7699 88.69 91.2399 86.8 92.5099C85 93.8199 75.4 99.2999 74.38 97.7499Z" fill="#ED6C30" style="fill:#ED6C30;fill:color(display-p3 0.9294 0.4235 0.1882);fill-opacity:1;"/>
<path d="M74.38 97.7499C73.93 97.1299 78.29 95.5999 80.19 94.4799C82.08 93.3799 83.91 92.1899 85.67 90.9099C87.44 89.5999 89.21 88.3299 90.85 86.9099C92.55 85.5099 94.1 83.9399 95.49 82.2399C94.8 84.4399 93.6 86.4499 92 88.1099C90.44 89.7699 88.69 91.2399 86.8 92.5099C85 93.8199 75.4 99.2999 74.38 97.7499Z" fill="#F3B871" style="fill:#F3B871;fill:color(display-p3 0.9529 0.7216 0.4431);fill-opacity:1;"/>
<path d="M68.9999 89.9999C68.1499 88.9999 73.9999 86.8299 76.3699 85.2599C78.7399 83.6899 81.1099 82.1999 83.5199 80.5299C85.8999 78.9499 88.1599 77.2099 90.2799 75.3099C91.3099 74.3599 92.2199 73.2899 92.9999 72.1299C93.8099 70.9399 94.2999 69.5599 94.4199 68.1299C94.6699 69.6199 94.4499 71.1599 93.7899 72.5199C93.1599 73.8999 92.3199 75.1699 91.3099 76.2899C90.3399 77.4199 89.2699 78.4599 88.1199 79.4099C86.9899 80.4099 85.8099 81.2599 84.6199 82.1099C82.2699 83.8699 79.7799 85.4299 77.1799 86.7999C74.5399 88.1499 69.8799 91.1499 68.9999 89.9999Z" fill="#ED6C30" style="fill:#ED6C30;fill:color(display-p3 0.9294 0.4235 0.1882);fill-opacity:1;"/>
<path d="M68.9999 89.9999C68.1499 88.9999 73.9999 86.8299 76.3699 85.2599C78.7399 83.6899 81.1099 82.1999 83.5199 80.5299C85.8999 78.9499 88.1599 77.2099 90.2799 75.3099C91.3099 74.3599 92.2199 73.2899 92.9999 72.1299C93.8099 70.9399 94.2999 69.5599 94.4199 68.1299C94.6699 69.6199 94.4499 71.1599 93.7899 72.5199C93.1599 73.8999 92.3199 75.1699 91.3099 76.2899C90.3399 77.4199 89.2699 78.4599 88.1199 79.4099C86.9899 80.4099 85.8099 81.2599 84.6199 82.1099C82.2699 83.8699 79.7799 85.4299 77.1799 86.7999C74.5399 88.1499 69.8799 91.1499 68.9999 89.9999Z" fill="#F3B871" style="fill:#F3B871;fill:color(display-p3 0.9529 0.7216 0.4431);fill-opacity:1;"/>
<path d="M38.5798 114C41.0998 114.96 43.7398 115.58 46.4298 115.84C49.0898 116.14 51.7698 116.14 54.4298 115.84C57.0598 115.54 59.6498 114.96 62.1598 114.11C64.6798 113.24 67.1298 112.18 69.4898 110.93C74.3398 108.56 79.1498 106.11 83.7498 103.33C86.0498 101.99 88.1998 100.39 90.1498 98.57C91.1098 97.67 91.8298 96.55 92.2598 95.3C92.6898 94.02 92.3998 92.6 91.5098 91.59C92.5598 92.55 93.0098 94.01 92.6698 95.39C92.3198 96.76 91.6698 98.03 90.7598 99.11C89.8898 100.21 88.9098 101.21 87.8398 102.11C86.7898 103 85.6998 103.84 84.5698 104.62C80.0398 107.68 75.2998 110.41 70.3698 112.77C67.9198 114.05 65.3698 115.12 62.7498 115.98C60.0898 116.8 57.3398 117.3 54.5598 117.46C49.0098 117.84 43.4698 116.64 38.5798 114Z" fill="#ED6C30" style="fill:#ED6C30;fill:color(display-p3 0.9294 0.4235 0.1882);fill-opacity:1;"/>
<path d="M38.5798 114C41.0998 114.96 43.7398 115.58 46.4298 115.84C49.0898 116.14 51.7698 116.14 54.4298 115.84C57.0598 115.54 59.6498 114.96 62.1598 114.11C64.6798 113.24 67.1298 112.18 69.4898 110.93C74.3398 108.56 79.1498 106.11 83.7498 103.33C86.0498 101.99 88.1998 100.39 90.1498 98.57C91.1098 97.67 91.8298 96.55 92.2598 95.3C92.6898 94.02 92.3998 92.6 91.5098 91.59C92.5598 92.55 93.0098 94.01 92.6698 95.39C92.3198 96.76 91.6698 98.03 90.7598 99.11C89.8898 100.21 88.9098 101.21 87.8398 102.11C86.7898 103 85.6998 103.84 84.5698 104.62C80.0398 107.68 75.2998 110.41 70.3698 112.77C67.9198 114.05 65.3698 115.12 62.7498 115.98C60.0898 116.8 57.3398 117.3 54.5598 117.46C49.0098 117.84 43.4698 116.64 38.5798 114Z" fill="#F3B871" style="fill:#F3B871;fill:color(display-p3 0.9529 0.7216 0.4431);fill-opacity:1;"/>
<defs>
<radialGradient id="paint0_radial_169_5514" cx="0" cy="0" r="1" gradientUnits="userSpaceOnUse" gradientTransform="translate(63.6001 62.9) scale(56.9597 56.9597)">
<stop offset="0.5" stop-color="#FDE030" style="stop-color:#FDE030;stop-color:color(display-p3 0.9922 0.8784 0.1882);stop-opacity:1;"/>
<stop offset="0.92" stop-color="#F7C02B" style="stop-color:#F7C02B;stop-color:color(display-p3 0.9686 0.7529 0.1686);stop-opacity:1;"/>
<stop offset="1" stop-color="#F4A223" style="stop-color:#F4A223;stop-color:color(display-p3 0.9569 0.6353 0.1373);stop-opacity:1;"/>
</radialGradient>
<linearGradient id="paint1_linear_169_5514" x1="63.6001" y1="118.8" x2="63.6001" y2="7" gradientUnits="userSpaceOnUse">
<stop offset="0.16" stop-color="#F4A223" style="stop-color:#F4A223;stop-color:color(display-p3 0.9569 0.6353 0.1373);stop-opacity:1;"/>
<stop offset="0.33" stop-color="#F7C02B" style="stop-color:#F7C02B;stop-color:color(display-p3 0.9686 0.7529 0.1686);stop-opacity:1;"/>
<stop offset="0.81" stop-color="#FDE030" stop-opacity="0" style="stop-color:none;stop-opacity:0;"/>
</linearGradient>
<radialGradient id="paint2_radial_169_5514" cx="0" cy="0" r="1" gradientUnits="userSpaceOnUse" gradientTransform="translate(53 33.5) rotate(79.6952) scale(61.4919 100.858)">
<stop offset="0.3533" stop-color="#F9DDBD" style="stop-color:#F9DDBD;stop-color:color(display-p3 0.9765 0.8667 0.7412);stop-opacity:1;"/>
<stop offset="0.8723" stop-color="#FECD92" style="stop-color:#FECD92;stop-color:color(display-p3 0.9958 0.8035 0.5726);stop-opacity:1;"/>
</radialGradient>
<radialGradient id="paint3_radial_169_5514" cx="0" cy="0" r="1" gradientUnits="userSpaceOnUse" gradientTransform="translate(27.25 68.1599) scale(19.0831 18.1094)">
<stop stop-color="#ED7770" style="stop-color:#ED7770;stop-color:color(display-p3 0.9294 0.4667 0.4392);stop-opacity:1;"/>
<stop offset="0.08" stop-color="#ED7770" stop-opacity="0.96" style="stop-color:#ED7770;stop-color:color(display-p3 0.9294 0.4667 0.4392);stop-opacity:0.96;"/>
<stop offset="0.22" stop-color="#ED7770" stop-opacity="0.85" style="stop-color:#ED7770;stop-color:color(display-p3 0.9294 0.4667 0.4392);stop-opacity:0.85;"/>
<stop offset="0.39" stop-color="#ED7770" stop-opacity="0.68" style="stop-color:#ED7770;stop-color:color(display-p3 0.9294 0.4667 0.4392);stop-opacity:0.68;"/>
<stop offset="0.59" stop-color="#ED7770" stop-opacity="0.43" style="stop-color:#ED7770;stop-color:color(display-p3 0.9294 0.4667 0.4392);stop-opacity:0.43;"/>
<stop offset="0.81" stop-color="#ED7770" stop-opacity="0.13" style="stop-color:#ED7770;stop-color:color(display-p3 0.9294 0.4667 0.4392);stop-opacity:0.13;"/>
<stop offset="0.9" stop-color="#ED7770" stop-opacity="0" style="stop-color:none;stop-opacity:0;"/>
</radialGradient>
<radialGradient id="paint4_radial_169_5514" cx="0" cy="0" r="1" gradientUnits="userSpaceOnUse" gradientTransform="translate(100.357 68.1599) scale(19.0831 18.1094)">
<stop stop-color="#ED7770" style="stop-color:#ED7770;stop-color:color(display-p3 0.9294 0.4667 0.4392);stop-opacity:1;"/>
<stop offset="0.08" stop-color="#ED7770" stop-opacity="0.96" style="stop-color:#ED7770;stop-color:color(display-p3 0.9294 0.4667 0.4392);stop-opacity:0.96;"/>
<stop offset="0.22" stop-color="#ED7770" stop-opacity="0.85" style="stop-color:#ED7770;stop-color:color(display-p3 0.9294 0.4667 0.4392);stop-opacity:0.85;"/>
<stop offset="0.39" stop-color="#ED7770" stop-opacity="0.68" style="stop-color:#ED7770;stop-color:color(display-p3 0.9294 0.4667 0.4392);stop-opacity:0.68;"/>
<stop offset="0.59" stop-color="#ED7770" stop-opacity="0.43" style="stop-color:#ED7770;stop-color:color(display-p3 0.9294 0.4667 0.4392);stop-opacity:0.43;"/>
<stop offset="0.81" stop-color="#ED7770" stop-opacity="0.13" style="stop-color:#ED7770;stop-color:color(display-p3 0.9294 0.4667 0.4392);stop-opacity:0.13;"/>
<stop offset="0.9" stop-color="#ED7770" stop-opacity="0" style="stop-color:none;stop-opacity:0;"/>
</radialGradient>
<linearGradient id="paint5_linear_169_5514" x1="54.817" y1="126.695" x2="53.7413" y2="57.0939" gradientUnits="userSpaceOnUse">
<stop stop-color="#BF620C" style="stop-color:#BF620C;stop-color:color(display-p3 0.7490 0.3840 0.0471);stop-opacity:1;"/>
<stop offset="1" stop-color="#BF820C" stop-opacity="0.2" style="stop-color:#BF820C;stop-color:color(display-p3 0.7490 0.5104 0.0471);stop-opacity:0.2;"/>
</linearGradient>
<radialGradient id="paint6_radial_169_5514" cx="0" cy="0" r="1" gradientUnits="userSpaceOnUse" gradientTransform="translate(63.0599 73.9399) scale(65.06 65.06)">
<stop offset="0.27" stop-color="#FFF176" style="stop-color:#FFF176;stop-color:color(display-p3 1.0000 0.9451 0.4627);stop-opacity:1;"/>
<stop offset="1" stop-color="#FFC400" style="stop-color:#FFC400;stop-color:color(display-p3 1.0000 0.7686 0.0000);stop-opacity:1;"/>
</radialGradient>
<radialGradient id="paint7_radial_169_5514" cx="0" cy="0" r="1" gradientUnits="userSpaceOnUse" gradientTransform="translate(47.6499 71.5746) rotate(-41.4461) scale(57.1781 56.7387)">
<stop offset="0.3533" stop-color="#F9DDBD" style="stop-color:#F9DDBD;stop-color:color(display-p3 0.9765 0.8667 0.7412);stop-opacity:1;"/>
<stop offset="0.8723" stop-color="#FFD29C" style="stop-color:#FFD29C;stop-color:color(display-p3 1.0000 0.8235 0.6118);stop-opacity:1;"/>
</radialGradient>
</defs>
</svg>
