<svg width="129" height="129" viewBox="0 0 129 129" fill="none" xmlns="http://www.w3.org/2000/svg">
<path d="M79.4563 120.5C79.4563 122.71 72.6063 124.5 64.1563 124.5C55.7063 124.5 48.8563 122.71 48.8563 120.5C48.8563 118.29 55.7063 116.49 64.1563 116.49C72.6063 116.49 79.4563 118.28 79.4563 120.5Z" fill="url(#paint0_radial_2634_1263)" style=""/>
<path d="M64.1563 36.35H60.1163V40.63C60.1163 42.57 61.7663 44.14 63.7863 44.14H64.5163C66.5463 44.14 68.1963 42.57 68.1963 40.63V36.35H64.1563Z" fill="#E59600" style="fill:#E59600;fill:color(display-p3 0.8980 0.5882 0.0000);fill-opacity:1;"/>
<path d="M48.8563 70.62C49.0863 71.83 49.5963 72.96 50.3363 73.94C51.5963 75.61 53.9263 75.48 54.7863 75.5C56.3763 75.54 55.6863 71.43 55.6663 71.3C55.6663 71.3 55.3263 64.85 51.0863 64.85C49.3563 64.89 48.0763 66.47 48.3963 68.17L48.8563 70.62Z" fill="url(#paint1_linear_2634_1263)" style=""/>
<path d="M79.4563 70.62C79.2263 71.83 78.7163 72.96 77.9763 73.94C76.7163 75.61 74.3863 75.48 73.5263 75.5C71.9363 75.54 72.6263 71.43 72.6463 71.3C72.6463 71.3 72.9863 64.85 77.2263 64.85C78.9563 64.89 80.2363 66.47 79.9163 68.17L79.4563 70.62Z" fill="url(#paint2_linear_2634_1263)" style=""/>
<path d="M64.0863 108.98C64.0763 110.52 64.0163 112.62 61.7463 112.62C59.0863 112.62 57.7363 106.76 57.5563 105.31C57.3763 103.87 57.3763 101.17 57.3763 101.17L64.1463 101.16L64.0863 108.98Z" fill="url(#paint3_linear_2634_1263)" style=""/>
<path d="M63.1963 105.75C63.1863 106.84 62.4063 108.32 61.5463 108.32C59.6763 108.32 58.7163 104.19 58.5963 103.18C58.4763 102.17 58.4663 100.98 58.4663 100.98L63.2363 100.97L63.1963 105.75Z" fill="url(#paint4_linear_2634_1263)" style=""/>
<path d="M64.0763 108.98C64.0863 110.52 64.2663 112.62 66.4163 112.62C69.0763 112.62 70.4263 106.76 70.6063 105.31C70.7863 103.86 70.7863 101.17 70.7863 101.17L64.0163 101.16L64.0763 108.98Z" fill="url(#paint5_linear_2634_1263)" style=""/>
<path d="M64.9663 105.75C64.9763 106.84 65.7563 108.32 66.6163 108.32C68.4863 108.32 69.4363 104.19 69.5663 103.18C69.6963 102.17 69.6963 100.98 69.6963 100.98L64.9263 100.97L64.9663 105.75Z" fill="url(#paint6_linear_2634_1263)" style=""/>
<path d="M69.8163 102.46H58.4463C57.4063 102.46 56.5363 101.67 56.4363 100.63L53.3763 68.22H74.8963L71.8263 100.63C71.7363 101.67 70.8663 102.46 69.8163 102.46Z" fill="url(#paint7_linear_2634_1263)" style=""/>
<path opacity="0.5" d="M63.3163 72.57C62.8663 72.84 62.5963 73.34 62.6063 73.86L63.5563 101.44H64.7463L65.5263 73.85C65.5363 73.32 65.2663 72.83 64.8163 72.56H64.8063C64.3563 72.3 63.7763 72.3 63.3163 72.57Z" fill="url(#paint8_linear_2634_1263)" style=""/>
<path d="M73.5663 69.36H79.1263C80.1763 69.36 81.0463 68.56 81.1363 67.52L81.3963 64.64H73.5663V69.36Z" fill="#E5E5E5" style="fill:#E5E5E5;fill:color(display-p3 0.8980 0.8980 0.8980);fill-opacity:1;"/>
<path d="M55.0363 69.36H49.4763C48.4263 69.36 47.5563 68.56 47.4663 67.52L47.2063 64.64H55.0363V69.36Z" fill="#E5E5E5" style="fill:#E5E5E5;fill:color(display-p3 0.8980 0.8980 0.8980);fill-opacity:1;"/>
<path d="M79.6563 38.3C79.6563 38.3 73.7063 36.56 67.9063 35.97L64.2163 40.91L60.4463 36.02C54.6563 36.65 48.6463 38.31 48.6463 38.31C45.9163 39.05 44.8263 41.68 45.1563 45.73L47.0263 66H53.1463L53.8463 73.29H74.4763L75.1763 66H81.2963L83.1563 45.72C83.4763 41.67 82.3963 39.04 79.6563 38.3Z" fill="url(#paint9_linear_2634_1263)" style=""/>
<path d="M68.7763 50.98L64.1863 57.05L60.0763 50.98V41.98H68.7763V50.98Z" fill="#E5E5E5" style="fill:#E5E5E5;fill:color(display-p3 0.8980 0.8980 0.8980);fill-opacity:1;"/>
<path d="M64.2563 57.5999L61.9163 53.7099L63.1663 44.2999H65.3563L66.6063 53.6999L64.2563 57.5999Z" fill="#D32F2F" style="fill:#D32F2F;fill:color(display-p3 0.8275 0.1843 0.1843);fill-opacity:1;"/>
<path d="M65.3563 44.38H63.1663L62.1963 42.17L62.6063 40.89H65.9063L66.3163 42.17L65.3563 44.38Z" fill="#D32F2F" style="fill:#D32F2F;fill:color(display-p3 0.8275 0.1843 0.1843);fill-opacity:1;"/>
<path d="M60.4563 36.01L64.2263 40.9L60.4963 44.15L58.0063 36.33L60.4563 36.01Z" fill="white" style="fill:white;fill-opacity:1;"/>
<path d="M67.8763 35.96L64.2263 40.9L67.8963 44.12L70.4563 36.29C69.5363 36.13 67.8763 35.96 67.8763 35.96Z" fill="white" style="fill:white;fill-opacity:1;"/>
<path d="M74.5463 51.42H69.3963V50.79L71.9763 48.77L74.5463 50.79V51.42Z" fill="#D32F2F" style="fill:#D32F2F;fill:color(display-p3 0.8275 0.1843 0.1843);fill-opacity:1;"/>
<path d="M52.8963 37.35L54.9063 41L51.5063 41.44L64.1563 59.59L64.1463 55.59L57.9363 36.13L52.8963 37.35Z" fill="url(#paint10_linear_2634_1263)" style=""/>
<path d="M75.5163 37.35L73.5163 41L76.9163 41.44L64.1463 59.62V55.62L70.4763 36.13L75.5163 37.35Z" fill="url(#paint11_linear_2634_1263)" style=""/>
<path opacity="0.5" d="M51.8263 48.0799L52.8363 65.0199H54.0363L53.7263 47.8799C53.7063 47.5499 53.3663 47.0499 52.6663 47.1199C51.9663 47.1799 51.7763 47.7499 51.8263 48.0799Z" fill="url(#paint12_linear_2634_1263)" style=""/>
<path opacity="0.5" d="M76.5363 48.0799L75.4963 64.9699L74.3963 65.0099L74.6363 47.8799C74.6563 47.5499 74.9963 47.0499 75.6963 47.1199C76.3963 47.1799 76.5863 47.7499 76.5363 48.0799Z" fill="url(#paint13_linear_2634_1263)" style=""/>
<path d="M64.3863 65.76C65.5019 65.76 66.4063 64.8556 66.4063 63.74C66.4063 62.6244 65.5019 61.72 64.3863 61.72C63.2707 61.72 62.3663 62.6244 62.3663 63.74C62.3663 64.8556 63.2707 65.76 64.3863 65.76Z" fill="#212121" style="fill:#212121;fill:color(display-p3 0.1294 0.1294 0.1294);fill-opacity:1;"/>
<path d="M73.8363 21.8H71.2263H57.0863H54.4763C52.3863 21.8 50.6863 23.62 50.6863 25.84C50.6863 28.0601 52.3963 29.88 54.4763 29.88H57.0863H71.2263H73.8363C75.9263 29.88 77.6263 28.0601 77.6263 25.84C77.6263 23.62 75.9263 21.8 73.8363 21.8Z" fill="#E59600" style="fill:#E59600;fill:color(display-p3 0.8980 0.5882 0.0000);fill-opacity:1;"/>
<path d="M64.1563 7.5C57.9863 7.5 52.2763 14.09 52.2763 23.58C52.2763 33.02 58.1563 37.68 64.1563 37.68C70.1563 37.68 76.0363 33.01 76.0363 23.58C76.0363 14.09 70.3263 7.5 64.1563 7.5Z" fill="#FFCA28" style="fill:#FFCA28;fill:color(display-p3 1.0000 0.7922 0.1569);fill-opacity:1;"/>
<path d="M55.6863 21.9C56.3863 20.84 57.8863 20.48 59.0663 20.72C59.6963 20.84 60.3363 21.14 60.7863 21.62C61.1663 22.03 61.3563 22.78 60.5363 22.79C60.2363 22.8 59.8963 22.57 59.6163 22.48C58.9763 22.29 58.2863 22.24 57.6263 22.35C57.3063 22.4 56.9863 22.51 56.6763 22.61C56.4463 22.69 56.2963 22.84 56.0363 22.78C55.6763 22.69 55.4563 22.25 55.6863 21.9Z" fill="#6D4C41" style="fill:#6D4C41;fill:color(display-p3 0.4275 0.2980 0.2549);fill-opacity:1;"/>
<path d="M72.0063 22.7501C71.1363 22.2901 70.0563 22.1701 69.1063 22.3801C68.6463 22.4801 66.6463 23.3101 67.3663 21.8901C67.9463 20.7501 69.8163 20.4801 70.8863 20.7401C71.4563 20.8801 72.0963 21.1701 72.4863 21.6301C72.8663 22.0501 72.8463 23.0901 72.0063 22.7501Z" fill="#6D4C41" style="fill:#6D4C41;fill:color(display-p3 0.4275 0.2980 0.2549);fill-opacity:1;"/>
<path d="M67.1363 31.65C66.0063 32.32 62.3063 32.32 61.1763 31.65C60.5263 31.26 59.8663 31.85 60.1363 32.44C60.3963 33.02 62.4163 34.36 64.1663 34.36C65.9163 34.36 67.9063 33.02 68.1663 32.44C68.4363 31.86 67.7863 31.27 67.1363 31.65Z" fill="#795548" style="fill:#795548;fill:color(display-p3 0.4745 0.3333 0.2824);fill-opacity:1;"/>
<path d="M65.5263 28.31C65.4863 28.3 65.4463 28.29 65.4163 28.28H62.9063C62.8663 28.28 62.8263 28.29 62.7963 28.31C62.5663 28.4 62.4463 28.64 62.5563 28.89C62.6663 29.14 63.1663 29.84 64.1663 29.84C65.1763 29.84 65.6663 29.14 65.7763 28.89C65.8763 28.64 65.7463 28.41 65.5263 28.31Z" fill="#E59600" style="fill:#E59600;fill:color(display-p3 0.8980 0.5882 0.0000);fill-opacity:1;"/>
<path d="M75.5163 27.66C75.4963 27.49 76.7663 25.37 76.9863 23.22C77.0663 22.47 77.5963 19.96 77.0563 18.38C75.4363 11.9 71.0963 8 64.1063 8C56.7663 8 52.2563 11.9 51.0163 18.88C51.0163 20.17 51.5663 22.15 51.5663 22.15C51.3463 26 52.5563 27.86 52.5563 27.86C52.5563 27.86 54.0663 21.25 53.9263 20.24C53.9263 20.24 56.7063 19.69 59.8563 17.88C61.9863 16.66 63.4463 15.23 65.8363 14.69C69.4763 13.87 70.2963 16.51 70.2963 16.51C70.2963 16.51 73.6663 15.86 74.6863 20.55C75.1063 22.48 75.2863 25.7 75.5163 27.66Z" fill="#543930" style="fill:#543930;fill:color(display-p3 0.3294 0.2235 0.1882);fill-opacity:1;"/>
<path d="M77.2463 15.38C77.2463 15.38 76.0063 8.04 74.5663 6.39C73.1363 4.76 67.5263 4.51 64.1563 4.5C60.7863 4.51 55.1763 4.76 53.7463 6.39C52.2963 8.04 51.0663 15.38 51.0663 15.38C51.0663 15.38 45.5663 17.01 47.9563 18.41C49.1263 19.09 54.2363 19.52 64.1563 19.53C74.0763 19.52 79.1863 19.1 80.3563 18.41C82.7563 17.01 77.2463 15.38 77.2463 15.38Z" fill="url(#paint14_linear_2634_1263)" style=""/>
<path d="M75.8063 22.62L75.5463 22.56C73.8863 22.17 72.1963 21.98 70.5063 21.98C69.8763 21.98 68.8363 22.13 67.7863 22.31C65.4063 22.73 62.9663 22.73 60.5963 22.31C59.5263 22.12 58.4763 21.97 57.8363 21.97C56.1363 21.97 54.4463 22.17 52.7863 22.55L52.5263 22.61C52.3163 22.66 52.1463 22.84 52.1463 23.04V24.12C52.1463 24.39 52.4163 24.6 52.7063 24.56L53.1463 27.33C53.4363 29.22 55.0863 30.91 57.8963 30.91C60.8063 30.91 62.2563 28.24 62.9463 26.01C63.1163 25.48 63.6063 25.11 64.1663 25.11C64.1763 25.11 64.1763 25.11 64.1863 25.11C64.7463 25.11 65.2363 25.48 65.4063 26.01C66.1063 28.24 67.5463 30.91 70.4563 30.91C73.2663 30.91 74.9163 29.22 75.2063 27.33L75.6263 24.56C75.9063 24.59 76.1663 24.39 76.1663 24.12V23.04C76.1763 22.85 76.0263 22.67 75.8063 22.62Z" fill="url(#paint15_linear_2634_1263)" style=""/>
<defs>
<radialGradient id="paint0_radial_2634_1263" cx="0" cy="0" r="1" gradientUnits="userSpaceOnUse" gradientTransform="translate(64.1558 120.494) scale(15.2017 4.63652)">
<stop offset="0.1396" stop-color="#504F4F" stop-opacity="0.8" style="stop-color:#504F4F;stop-color:color(display-p3 0.3137 0.3098 0.3098);stop-opacity:0.8;"/>
<stop offset="0.8722" stop-color="#616161" stop-opacity="0" style="stop-color:none;stop-opacity:0;"/>
</radialGradient>
<linearGradient id="paint1_linear_2634_1263" x1="52.0902" y1="69.8961" x2="52.0902" y2="80.5433" gradientUnits="userSpaceOnUse">
<stop stop-color="#FFB300" style="stop-color:#FFB300;stop-color:color(display-p3 1.0000 0.7020 0.0000);stop-opacity:1;"/>
<stop offset="0.5" stop-color="#FFCA28" style="stop-color:#FFCA28;stop-color:color(display-p3 1.0000 0.7922 0.1569);stop-opacity:1;"/>
</linearGradient>
<linearGradient id="paint2_linear_2634_1263" x1="76.2224" y1="69.5527" x2="76.2224" y2="80.1999" gradientUnits="userSpaceOnUse">
<stop stop-color="#FFB300" style="stop-color:#FFB300;stop-color:color(display-p3 1.0000 0.7020 0.0000);stop-opacity:1;"/>
<stop offset="0.5" stop-color="#FFCA28" style="stop-color:#FFCA28;stop-color:color(display-p3 1.0000 0.7922 0.1569);stop-opacity:1;"/>
</linearGradient>
<linearGradient id="paint3_linear_2634_1263" x1="60.7543" y1="100.928" x2="60.7543" y2="112.294" gradientUnits="userSpaceOnUse">
<stop stop-color="#212121" style="stop-color:#212121;stop-color:color(display-p3 0.1294 0.1294 0.1294);stop-opacity:1;"/>
<stop offset="0.7876" stop-color="#616161" style="stop-color:#616161;stop-color:color(display-p3 0.3804 0.3804 0.3804);stop-opacity:1;"/>
</linearGradient>
<linearGradient id="paint4_linear_2634_1263" x1="60.8483" y1="101.172" x2="60.8483" y2="108.024" gradientUnits="userSpaceOnUse">
<stop offset="0.1222" stop-color="#BDBDBD" style="stop-color:#BDBDBD;stop-color:color(display-p3 0.7412 0.7412 0.7412);stop-opacity:1;"/>
<stop offset="0.7213" stop-color="#EEEEEE" style="stop-color:#EEEEEE;stop-color:color(display-p3 0.9333 0.9333 0.9333);stop-opacity:1;"/>
</linearGradient>
<linearGradient id="paint5_linear_2634_1263" x1="67.4023" y1="100.928" x2="67.4023" y2="112.294" gradientUnits="userSpaceOnUse">
<stop stop-color="#212121" style="stop-color:#212121;stop-color:color(display-p3 0.1294 0.1294 0.1294);stop-opacity:1;"/>
<stop offset="0.7876" stop-color="#616161" style="stop-color:#616161;stop-color:color(display-p3 0.3804 0.3804 0.3804);stop-opacity:1;"/>
</linearGradient>
<linearGradient id="paint6_linear_2634_1263" x1="67.3093" y1="101.172" x2="67.3093" y2="108.024" gradientUnits="userSpaceOnUse">
<stop offset="0.1222" stop-color="#BDBDBD" style="stop-color:#BDBDBD;stop-color:color(display-p3 0.7412 0.7412 0.7412);stop-opacity:1;"/>
<stop offset="0.7213" stop-color="#EEEEEE" style="stop-color:#EEEEEE;stop-color:color(display-p3 0.9333 0.9333 0.9333);stop-opacity:1;"/>
</linearGradient>
<linearGradient id="paint7_linear_2634_1263" x1="64.1398" y1="65.1353" x2="64.1398" y2="99.1392" gradientUnits="userSpaceOnUse">
<stop stop-color="#212121" style="stop-color:#212121;stop-color:color(display-p3 0.1294 0.1294 0.1294);stop-opacity:1;"/>
<stop offset="0.8778" stop-color="#616161" style="stop-color:#616161;stop-color:color(display-p3 0.3804 0.3804 0.3804);stop-opacity:1;"/>
</linearGradient>
<linearGradient id="paint8_linear_2634_1263" x1="64.0692" y1="101.454" x2="64.0692" y2="72.365" gradientUnits="userSpaceOnUse">
<stop stop-color="#616161" stop-opacity="0.2" style="stop-color:#616161;stop-color:color(display-p3 0.3804 0.3804 0.3804);stop-opacity:0.2;"/>
<stop offset="0.7537" stop-color="#212121" style="stop-color:#212121;stop-color:color(display-p3 0.1294 0.1294 0.1294);stop-opacity:1;"/>
</linearGradient>
<linearGradient id="paint9_linear_2634_1263" x1="64.1561" y1="39.9267" x2="64.1561" y2="77.8369" gradientUnits="userSpaceOnUse">
<stop offset="0.3285" stop-color="#5F5F5F" style="stop-color:#5F5F5F;stop-color:color(display-p3 0.3725 0.3725 0.3725);stop-opacity:1;"/>
<stop offset="1" stop-color="#212121" style="stop-color:#212121;stop-color:color(display-p3 0.1294 0.1294 0.1294);stop-opacity:1;"/>
</linearGradient>
<linearGradient id="paint10_linear_2634_1263" x1="57.8313" y1="29.6041" x2="57.8313" y2="55.9703" gradientUnits="userSpaceOnUse">
<stop offset="0.1709" stop-color="#616161" style="stop-color:#616161;stop-color:color(display-p3 0.3804 0.3804 0.3804);stop-opacity:1;"/>
<stop offset="0.8364" stop-color="#212121" style="stop-color:#212121;stop-color:color(display-p3 0.1294 0.1294 0.1294);stop-opacity:1;"/>
</linearGradient>
<linearGradient id="paint11_linear_2634_1263" x1="70.5278" y1="29.5969" x2="70.5278" y2="55.9923" gradientUnits="userSpaceOnUse">
<stop offset="0.1709" stop-color="#616161" style="stop-color:#616161;stop-color:color(display-p3 0.3804 0.3804 0.3804);stop-opacity:1;"/>
<stop offset="0.8364" stop-color="#212121" style="stop-color:#212121;stop-color:color(display-p3 0.1294 0.1294 0.1294);stop-opacity:1;"/>
</linearGradient>
<linearGradient id="paint12_linear_2634_1263" x1="52.9273" y1="65.0189" x2="52.9273" y2="47.1053" gradientUnits="userSpaceOnUse">
<stop stop-color="#616161" stop-opacity="0.2" style="stop-color:#616161;stop-color:color(display-p3 0.3804 0.3804 0.3804);stop-opacity:0.2;"/>
<stop offset="0.7537" stop-color="#212121" style="stop-color:#212121;stop-color:color(display-p3 0.1294 0.1294 0.1294);stop-opacity:1;"/>
</linearGradient>
<linearGradient id="paint13_linear_2634_1263" x1="75.4712" y1="65.0069" x2="75.4712" y2="47.1063" gradientUnits="userSpaceOnUse">
<stop stop-color="#616161" stop-opacity="0.2" style="stop-color:#616161;stop-color:color(display-p3 0.3804 0.3804 0.3804);stop-opacity:0.2;"/>
<stop offset="0.7537" stop-color="#212121" style="stop-color:#212121;stop-color:color(display-p3 0.1294 0.1294 0.1294);stop-opacity:1;"/>
</linearGradient>
<linearGradient id="paint14_linear_2634_1263" x1="64.1566" y1="3.1618" x2="64.1566" y2="22.4204" gradientUnits="userSpaceOnUse">
<stop offset="0.4429" stop-color="#5F5F5F" style="stop-color:#5F5F5F;stop-color:color(display-p3 0.3725 0.3725 0.3725);stop-opacity:1;"/>
<stop offset="1" stop-color="#212121" style="stop-color:#212121;stop-color:color(display-p3 0.1294 0.1294 0.1294);stop-opacity:1;"/>
</linearGradient>
<linearGradient id="paint15_linear_2634_1263" x1="64.1583" y1="21.7643" x2="64.1583" y2="30.7857" gradientUnits="userSpaceOnUse">
<stop offset="0.005" stop-color="#616161" style="stop-color:#616161;stop-color:color(display-p3 0.3804 0.3804 0.3804);stop-opacity:1;"/>
<stop offset="0.4" stop-color="#212121" style="stop-color:#212121;stop-color:color(display-p3 0.1294 0.1294 0.1294);stop-opacity:1;"/>
</linearGradient>
</defs>
</svg>
