<svg width="128" height="128" viewBox="0 0 128 128" fill="none" xmlns="http://www.w3.org/2000/svg">
<path d="M33.28 123.87L94.71 124C95.93 124 96.91 123.11 96.91 122.01V6.12C96.91 5.02 95.93 4.13 94.72 4.13L33.29 4C32.07 4 31.09 4.89 31.09 5.99V121.87C31.09 122.97 32.07 123.87 33.28 123.87Z" fill="#B06542" style="fill:#B06542;fill:color(display-p3 0.6902 0.3961 0.2588);fill-opacity:1;"/>
<path d="M78.72 20.72V51.04H49.28V20.72H78.72ZM83.63 15.72H44.37V56.04H83.63V15.72Z" fill="#874D36" style="fill:#874D36;fill:color(display-p3 0.5294 0.3020 0.2118);fill-opacity:1;"/>
<path d="M83.63 15.8999L78.53 20.7199H78.72V51.0399H49.65L44.37 56.0399H83.63V15.8999Z" fill="#C87D5E" style="fill:#C87D5E;fill:color(display-p3 0.7843 0.4902 0.3686);fill-opacity:1;"/>
<path d="M78.72 78.96V107.28H49.28V78.96H78.72ZM83.63 73.96H44.37V112.28H83.63V73.96Z" fill="#874D36" style="fill:#874D36;fill:color(display-p3 0.5294 0.3020 0.2118);fill-opacity:1;"/>
<path d="M83.63 74.1399L78.53 78.9599H78.72V107.28H49.65L44.37 112.28H83.63V74.1399Z" fill="#C87D5E" style="fill:#C87D5E;fill:color(display-p3 0.7843 0.4902 0.3686);fill-opacity:1;"/>
<path d="M88.1873 71.25C91.0868 71.25 93.4373 68.8995 93.4373 66C93.4373 63.1005 91.0868 60.75 88.1873 60.75C85.2878 60.75 82.9373 63.1005 82.9373 66C82.9373 68.8995 85.2878 71.25 88.1873 71.25Z" fill="#874D36" style="fill:#874D36;fill:color(display-p3 0.5294 0.3020 0.2118);fill-opacity:1;"/>
<path d="M86.1472 69.6999C89.0467 69.6999 91.3972 67.3494 91.3972 64.4499C91.3972 61.5505 89.0467 59.2 86.1472 59.2C83.2477 59.2 80.8972 61.5505 80.8972 64.4499C80.8972 67.3494 83.2477 69.6999 86.1472 69.6999Z" fill="#BDBDBD" style="fill:#BDBDBD;fill:color(display-p3 0.7412 0.7412 0.7412);fill-opacity:1;"/>
<path d="M87.3872 61.11C87.5172 61.76 87.1372 62.08 86.5972 62.47C86.0572 62.86 85.3872 63.17 84.8972 64C84.5472 64.59 84.4372 65.37 83.8672 65.76C83.3072 66.14 82.6672 66.07 82.3672 65.4C81.9372 64.45 81.9272 62.8 83.1372 61.45C84.2972 60.16 87.0672 59.47 87.3872 61.11Z" fill="#EEEEEE" style="fill:#EEEEEE;fill:color(display-p3 0.9333 0.9333 0.9333);fill-opacity:1;"/>
</svg>
