<svg width="129" height="128" viewBox="0 0 129 128" fill="none" xmlns="http://www.w3.org/2000/svg">
<g filter="url(#filter0_i_911_467)">
<path d="M88.6996 69.84C88.6996 80.47 86.7096 88.49 82.7296 93.88C78.7496 99.28 72.6996 101.98 64.5796 101.98C56.5896 101.98 50.5696 99.35 46.5296 94.08C42.4796 88.82 40.4096 81.02 40.3096 70.7V57.9C40.3096 47.27 42.2996 39.3 46.2796 33.98C50.2596 28.67 56.3296 26.01 64.4896 26.01C72.5796 26.01 78.6096 28.6 82.5896 33.78C86.5696 38.96 88.6096 46.71 88.7096 57.04V69.84H88.6996ZM76.3596 56.03C76.3596 49.09 75.4096 44 73.5196 40.77C71.6196 37.54 68.6096 35.92 64.4796 35.92C60.4496 35.92 57.4896 37.45 55.5896 40.52C53.6896 43.58 52.6996 48.37 52.5896 54.87V71.63C52.5896 78.54 53.5496 83.68 55.4796 87.07C57.4096 90.46 60.4396 92.15 64.5696 92.15C68.5296 92.15 71.4596 90.58 73.3596 87.45C75.2496 84.32 76.2496 79.42 76.3596 72.75V56.03Z" fill="#606265" style="fill:#606265;fill:color(display-p3 0.3765 0.3843 0.3961);fill-opacity:1;"/>
<path fill-rule="evenodd" clip-rule="evenodd" d="M38.3096 70.7097V57.9C38.3096 47.0777 40.3255 38.6 44.6781 32.7819L44.6792 32.7805C49.1236 26.8509 55.86 24.01 64.4896 24.01C73.0373 24.01 79.7273 26.7721 84.1755 32.5615C88.5341 38.2342 90.6075 46.4913 90.7095 57.0207L90.7096 57.0303V71.84H90.6759C90.4387 81.717 88.412 89.5506 84.3395 95.0666M88.6996 69.84C88.6996 80.47 86.7096 88.49 82.7296 93.88C78.7496 99.28 72.6996 101.98 64.5796 101.98C56.5896 101.98 50.5696 99.35 46.5296 94.08C42.4796 88.82 40.4096 81.02 40.3096 70.7V57.9C40.3096 47.27 42.2996 39.3 46.2796 33.98C50.2596 28.67 56.3296 26.01 64.4896 26.01C72.5796 26.01 78.6096 28.6 82.5896 33.78C86.5696 38.96 88.6096 46.71 88.7096 57.04V69.84H88.6996ZM38.3096 70.7097L38.3097 70.7194L38.3096 70.7097ZM57.2902 41.5725L57.2887 41.575C55.6812 44.1639 54.6992 48.5017 54.5896 54.8871V71.63C54.5896 78.4249 55.5459 83.1442 57.2176 86.0805C58.7661 88.8003 61.1045 90.15 64.5696 90.15C67.8965 90.15 70.1447 88.8906 71.6488 86.4141C73.2584 83.7469 74.25 79.2878 74.3596 72.7333V56.03C74.3596 49.1912 73.4089 44.5425 71.7945 41.7821C70.2946 39.2335 67.9841 37.92 64.4796 37.92C61.0453 37.92 58.7774 39.1696 57.2902 41.5725ZM73.5196 40.77C75.4096 44 76.3596 49.09 76.3596 56.03V72.75C76.2496 79.42 75.2496 84.32 73.3596 87.45C71.4596 90.58 68.5296 92.15 64.5696 92.15C60.4396 92.15 57.4096 90.46 55.4796 87.07C53.5496 83.68 52.5896 78.54 52.5896 71.63V54.87C52.6996 48.37 53.6896 43.58 55.5896 40.52C57.4896 37.45 60.4496 35.92 64.4796 35.92C68.6096 35.92 71.6196 37.54 73.5196 40.77ZM84.3395 95.0666C79.9014 101.088 73.1842 103.98 64.5796 103.98C56.1113 103.98 49.4413 101.164 44.9436 95.2984C40.5177 89.5491 38.4117 81.2454 38.3097 70.7194" fill="#606265" style="fill:#606265;fill:color(display-p3 0.3765 0.3843 0.3961);fill-opacity:1;"/>
</g>
<defs>
<filter id="filter0_i_911_467" x="38.3096" y="24.01" width="52.4004" height="79.97" filterUnits="userSpaceOnUse" color-interpolation-filters="sRGB">
<feFlood flood-opacity="0" result="BackgroundImageFix"/>
<feBlend mode="normal" in="SourceGraphic" in2="BackgroundImageFix" result="shape"/>
<feColorMatrix in="SourceAlpha" type="matrix" values="0 0 0 0 0 0 0 0 0 0 0 0 0 0 0 0 0 0 127 0" result="hardAlpha"/>
<feOffset dx="-3" dy="-5"/>
<feComposite in2="hardAlpha" operator="arithmetic" k2="-1" k3="1"/>
<feColorMatrix type="matrix" values="0 0 0 0 0 0 0 0 0 0 0 0 0 0 0 0 0 0 0.25 0"/>
<feBlend mode="normal" in2="shape" result="effect1_innerShadow_911_467"/>
</filter>
</defs>
</svg>
