<svg width="128" height="128" viewBox="0 0 128 128" fill="none" xmlns="http://www.w3.org/2000/svg">
<path d="M63.6 118.8C35.7 118.8 5.60001 101.3 5.60001 62.9C5.60001 24.5 35.7 7 63.6 7C79.1 7 93.4 12.1 104 21.4C115.5 31.6 121.6 46 121.6 62.9C121.6 79.8 115.5 94.1 104 104.3C93.4 113.6 79 118.8 63.6 118.8Z" fill="url(#paint0_radial_169_7162)" style=""/>
<path d="M63.6 118.8C35.7 118.8 5.60001 101.3 5.60001 62.9C5.60001 24.5 35.7 7 63.6 7C79.1 7 93.4 12.1 104 21.4C115.5 31.6 121.6 46 121.6 62.9C121.6 79.8 115.5 94.1 104 104.3C93.4 113.6 79 118.8 63.6 118.8Z" fill="url(#paint1_radial_169_7162)" style=""/>
<path d="M63.6 118.8C35.7 118.8 5.60001 101.3 5.60001 62.9C5.60001 24.5 35.7 7 63.6 7C79.1 7 93.4 12.1 104 21.4C115.5 31.6 121.6 46 121.6 62.9C121.6 79.8 115.5 94.1 104 104.3C93.4 113.6 79 118.8 63.6 118.8Z" fill="url(#paint2_radial_169_7162)" style=""/>
<path d="M111.49 29.67C116.82 38.27 119.6 48.51 119.6 59.9C119.6 76.8 113.5 91.1 102 101.3C91.4 110.6 77 115.8 61.6 115.8C43.54 115.8 24.6 108.45 13.42 92.86C24.18 110.52 44.42 118.8 63.6 118.8C79 118.8 93.4 113.6 104 104.3C115.5 94.1001 121.6 79.8 121.6 62.9C121.6 50.16 118.13 38.84 111.49 29.67Z" fill="#EB8F00" style="fill:#EB8F00;fill:color(display-p3 0.9216 0.5608 0.0000);fill-opacity:1;"/>
<path d="M111.49 29.67C116.82 38.27 119.6 48.51 119.6 59.9C119.6 76.8 113.5 91.1 102 101.3C91.4 110.6 77 115.8 61.6 115.8C43.54 115.8 24.6 108.45 13.42 92.86C24.18 110.52 44.42 118.8 63.6 118.8C79 118.8 93.4 113.6 104 104.3C115.5 94.1001 121.6 79.8 121.6 62.9C121.6 50.16 118.13 38.84 111.49 29.67Z" fill="#F3B872" style="fill:#F3B872;fill:color(display-p3 0.9542 0.7229 0.4453);fill-opacity:1;"/>
<path d="M111.49 29.67C116.82 38.27 119.6 48.51 119.6 59.9C119.6 76.8 113.5 91.1 102 101.3C91.4 110.6 77 115.8 61.6 115.8C43.54 115.8 24.6 108.45 13.42 92.86C24.18 110.52 44.42 118.8 63.6 118.8C79 118.8 93.4 113.6 104 104.3C115.5 94.1001 121.6 79.8 121.6 62.9C121.6 50.16 118.13 38.84 111.49 29.67Z" fill="#BA8F63" style="fill:#BA8F63;fill:color(display-p3 0.7294 0.5608 0.3882);fill-opacity:1;"/>
<path d="M89.74 79.0999C81.39 76.5999 72.71 75.3899 64 75.4999C55.17 75.4199 46.38 76.6799 37.93 79.2499C35 84.0199 33.44 89.4999 33.4 95.0999C33.35 98.6199 36.16 101.51 39.68 101.56C40.69 101.57 41.7 101.35 42.6 100.9C49.31 97.7599 56.6 96.0599 64 95.8999C71.41 96.0399 78.7 97.7499 85.4 100.9C88.55 102.46 92.37 101.18 93.94 98.0199C94.39 97.1099 94.62 96.1099 94.6 95.0999C94.54 89.4099 92.85 83.8599 89.74 79.0999Z" fill="#5D4037" style="fill:#5D4037;fill:color(display-p3 0.3647 0.2510 0.2157);fill-opacity:1;"/>
<path d="M89.74 79.1C83.7 69.6 73.09 67.2 64 67.2C54.12 67.2 43.7 69.67 37.93 79.2C46.38 76.65 55.17 75.4 64 75.5C72.71 75.39 81.39 76.6 89.74 79.1Z" fill="white" style="fill:white;fill-opacity:1;"/>
<path d="M33.73 30.91C31.53 31.31 31.43 34.51 33.83 34.61C39.13 34.68 44.25 32.71 48.13 29.11C49.61 27.83 50.86 26.31 51.83 24.61C52.41 23.78 52.21 22.64 51.38 22.06C50.55 21.48 49.41 21.68 48.83 22.51L48.73 22.61C44.81 26.99 39.52 29.92 33.73 30.91Z" fill="#5D4037" style="fill:#5D4037;fill:color(display-p3 0.3647 0.2510 0.2157);fill-opacity:1;"/>
<path d="M78.44 22.51C77.86 21.68 76.72 21.48 75.89 22.06C75.06 22.64 74.86 23.78 75.44 24.61C76.41 26.31 77.66 27.83 79.14 29.11C83.04 32.68 88.15 34.65 93.44 34.61C95.94 34.51 95.74 31.31 93.54 30.91C87.68 29.95 82.35 26.98 78.44 22.51Z" fill="#5D4037" style="fill:#5D4037;fill:color(display-p3 0.3647 0.2510 0.2157);fill-opacity:1;"/>
<path d="M34.47 41.22C34.47 41.22 47.52 42.58 56.54 52.08C57.53 53.09 57.51 54.71 56.49 55.7C56.08 56.1 55.56 56.35 55 56.41C51.51 56.73 46.29 58.52 39 64.05C39 64.05 35.06 67.8 31.94 64.05C29.48 61.05 33.94 57.65 33.94 57.65C33.94 57.65 39.19 52.89 45.43 52.56L33.85 49.94C32.67 49.78 31.56 49.25 30.7 48.42C29.56 47.46 29.16 45.89 29.7 44.5C30.43 42.5 32.34 41.19 34.47 41.22Z" fill="#5D4037" style="fill:#5D4037;fill:color(display-p3 0.3647 0.2510 0.2157);fill-opacity:1;"/>
<path d="M94 41.22C94 41.22 81 42.58 71.94 52.08C70.95 53.09 70.98 54.71 71.99 55.7C72.4 56.1 72.94 56.35 73.51 56.41C77 56.73 82.21 58.52 89.51 64.05C89.51 64.05 93.44 67.8 96.57 64.05C99.03 61.05 94.57 57.65 94.57 57.65C94.57 57.65 89.32 52.89 83.08 52.56L94.54 49.94C95.73 49.78 96.83 49.25 97.7 48.42C98.83 47.46 99.24 45.89 98.7 44.5C97.98 42.53 96.1 41.22 94 41.22Z" fill="#5D4037" style="fill:#5D4037;fill:color(display-p3 0.3647 0.2510 0.2157);fill-opacity:1;"/>
<path d="M63.94 65.7C67.46 65.73 70.97 66.17 74.4 67C77.88 67.83 81.17 69.3 84.11 71.34C87.01 73.45 89.4 76.19 91.11 79.34C92.82 82.41 94.03 85.74 94.67 89.19C94.99 90.91 95.16 92.65 95.16 94.4C95.2 95.32 95.1 96.23 94.86 97.12C94.59 98.02 94.14 98.85 93.55 99.57C92.35 100.99 90.62 101.87 88.76 102C87.85 102.05 86.93 101.93 86.06 101.65C85.19 101.33 84.47 100.94 83.68 100.65C77.48 97.79 70.77 96.17 63.94 95.9C70.8 95.91 77.6 97.27 83.94 99.9C84.74 100.21 85.54 100.6 86.28 100.84C87.05 101.05 87.85 101.12 88.64 101.05C90.22 100.89 91.66 100.1 92.64 98.85C93.11 98.24 93.45 97.53 93.64 96.78C93.82 96.01 93.88 95.21 93.81 94.42C93.74 92.74 93.52 91.06 93.16 89.42C92.43 86.17 91.18 83.06 89.44 80.22C87.77 77.4 85.49 74.99 82.77 73.16C80.02 71.4 76.97 70.16 73.77 69.52C70.52 68.87 67.21 68.58 63.9 68.67L63.94 65.7Z" fill="#EB8F00" style="fill:#EB8F00;fill:color(display-p3 0.9216 0.5608 0.0000);fill-opacity:1;"/>
<path d="M63.94 65.7C67.46 65.73 70.97 66.17 74.4 67C77.88 67.83 81.17 69.3 84.11 71.34C87.01 73.45 89.4 76.19 91.11 79.34C92.82 82.41 94.03 85.74 94.67 89.19C94.99 90.91 95.16 92.65 95.16 94.4C95.2 95.32 95.1 96.23 94.86 97.12C94.59 98.02 94.14 98.85 93.55 99.57C92.35 100.99 90.62 101.87 88.76 102C87.85 102.05 86.93 101.93 86.06 101.65C85.19 101.33 84.47 100.94 83.68 100.65C77.48 97.79 70.77 96.17 63.94 95.9C70.8 95.91 77.6 97.27 83.94 99.9C84.74 100.21 85.54 100.6 86.28 100.84C87.05 101.05 87.85 101.12 88.64 101.05C90.22 100.89 91.66 100.1 92.64 98.85C93.11 98.24 93.45 97.53 93.64 96.78C93.82 96.01 93.88 95.21 93.81 94.42C93.74 92.74 93.52 91.06 93.16 89.42C92.43 86.17 91.18 83.06 89.44 80.22C87.77 77.4 85.49 74.99 82.77 73.16C80.02 71.4 76.97 70.16 73.77 69.52C70.52 68.87 67.21 68.58 63.9 68.67L63.94 65.7Z" fill="#F3B872" style="fill:#F3B872;fill:color(display-p3 0.9542 0.7229 0.4453);fill-opacity:1;"/>
<path d="M63.94 65.7C67.46 65.73 70.97 66.17 74.4 67C77.88 67.83 81.17 69.3 84.11 71.34C87.01 73.45 89.4 76.19 91.11 79.34C92.82 82.41 94.03 85.74 94.67 89.19C94.99 90.91 95.16 92.65 95.16 94.4C95.2 95.32 95.1 96.23 94.86 97.12C94.59 98.02 94.14 98.85 93.55 99.57C92.35 100.99 90.62 101.87 88.76 102C87.85 102.05 86.93 101.93 86.06 101.65C85.19 101.33 84.47 100.94 83.68 100.65C77.48 97.79 70.77 96.17 63.94 95.9C70.8 95.91 77.6 97.27 83.94 99.9C84.74 100.21 85.54 100.6 86.28 100.84C87.05 101.05 87.85 101.12 88.64 101.05C90.22 100.89 91.66 100.1 92.64 98.85C93.11 98.24 93.45 97.53 93.64 96.78C93.82 96.01 93.88 95.21 93.81 94.42C93.74 92.74 93.52 91.06 93.16 89.42C92.43 86.17 91.18 83.06 89.44 80.22C87.77 77.4 85.49 74.99 82.77 73.16C80.02 71.4 76.97 70.16 73.77 69.52C70.52 68.87 67.21 68.58 63.9 68.67L63.94 65.7Z" fill="#BA8F63" style="fill:#BA8F63;fill:color(display-p3 0.7294 0.5608 0.3882);fill-opacity:1;"/>
<path d="M64.19 68.7C60.88 68.61 57.57 68.9 54.33 69.55C51.13 70.19 48.08 71.43 45.33 73.19C42.61 75.02 40.33 77.43 38.66 80.25C36.93 83.09 35.67 86.2 34.94 89.45C34.58 91.09 34.36 92.77 34.29 94.45C34.22 95.24 34.28 96.04 34.46 96.81C34.66 97.56 35 98.26 35.46 98.88C36.44 100.13 37.88 100.92 39.46 101.08C40.25 101.15 41.05 101.08 41.82 100.87C42.57 100.63 43.37 100.24 44.16 99.93C50.5 97.3 57.3 95.94 64.16 95.93C57.34 96.18 50.63 97.77 44.42 100.61C43.64 100.95 42.91 101.34 42.04 101.61C41.17 101.89 40.25 102.01 39.34 101.96C37.47 101.83 35.74 100.95 34.54 99.52C33.94 98.7999 33.49 97.97 33.22 97.07C32.98 96.18 32.88 95.27 32.92 94.35C32.93 92.6 33.1 90.86 33.41 89.14C34.07 85.69 35.28 82.37 37 79.31C38.71 76.16 41.1 73.42 44 71.31C46.95 69.28 50.25 67.82 53.73 67C57.16 66.17 60.67 65.73 64.19 65.7V68.7Z" fill="#EB8F00" style="fill:#EB8F00;fill:color(display-p3 0.9216 0.5608 0.0000);fill-opacity:1;"/>
<path d="M64.19 68.7C60.88 68.61 57.57 68.9 54.33 69.55C51.13 70.19 48.08 71.43 45.33 73.19C42.61 75.02 40.33 77.43 38.66 80.25C36.93 83.09 35.67 86.2 34.94 89.45C34.58 91.09 34.36 92.77 34.29 94.45C34.22 95.24 34.28 96.04 34.46 96.81C34.66 97.56 35 98.26 35.46 98.88C36.44 100.13 37.88 100.92 39.46 101.08C40.25 101.15 41.05 101.08 41.82 100.87C42.57 100.63 43.37 100.24 44.16 99.93C50.5 97.3 57.3 95.94 64.16 95.93C57.34 96.18 50.63 97.77 44.42 100.61C43.64 100.95 42.91 101.34 42.04 101.61C41.17 101.89 40.25 102.01 39.34 101.96C37.47 101.83 35.74 100.95 34.54 99.52C33.94 98.7999 33.49 97.97 33.22 97.07C32.98 96.18 32.88 95.27 32.92 94.35C32.93 92.6 33.1 90.86 33.41 89.14C34.07 85.69 35.28 82.37 37 79.31C38.71 76.16 41.1 73.42 44 71.31C46.95 69.28 50.25 67.82 53.73 67C57.16 66.17 60.67 65.73 64.19 65.7V68.7Z" fill="#F3B872" style="fill:#F3B872;fill:color(display-p3 0.9542 0.7229 0.4453);fill-opacity:1;"/>
<path d="M64.19 68.7C60.88 68.61 57.57 68.9 54.33 69.55C51.13 70.19 48.08 71.43 45.33 73.19C42.61 75.02 40.33 77.43 38.66 80.25C36.93 83.09 35.67 86.2 34.94 89.45C34.58 91.09 34.36 92.77 34.29 94.45C34.22 95.24 34.28 96.04 34.46 96.81C34.66 97.56 35 98.26 35.46 98.88C36.44 100.13 37.88 100.92 39.46 101.08C40.25 101.15 41.05 101.08 41.82 100.87C42.57 100.63 43.37 100.24 44.16 99.93C50.5 97.3 57.3 95.94 64.16 95.93C57.34 96.18 50.63 97.77 44.42 100.61C43.64 100.95 42.91 101.34 42.04 101.61C41.17 101.89 40.25 102.01 39.34 101.96C37.47 101.83 35.74 100.95 34.54 99.52C33.94 98.7999 33.49 97.97 33.22 97.07C32.98 96.18 32.88 95.27 32.92 94.35C32.93 92.6 33.1 90.86 33.41 89.14C34.07 85.69 35.28 82.37 37 79.31C38.71 76.16 41.1 73.42 44 71.31C46.95 69.28 50.25 67.82 53.73 67C57.16 66.17 60.67 65.73 64.19 65.7V68.7Z" fill="#BA8F63" style="fill:#BA8F63;fill:color(display-p3 0.7294 0.5608 0.3882);fill-opacity:1;"/>
<defs>
<radialGradient id="paint0_radial_169_7162" cx="0" cy="0" r="1" gradientUnits="userSpaceOnUse" gradientTransform="translate(63.6 62.9) scale(56.9597 56.9597)">
<stop offset="0.5" stop-color="#FDE030" style="stop-color:#FDE030;stop-color:color(display-p3 0.9922 0.8784 0.1882);stop-opacity:1;"/>
<stop offset="0.92" stop-color="#F7C02B" style="stop-color:#F7C02B;stop-color:color(display-p3 0.9686 0.7529 0.1686);stop-opacity:1;"/>
<stop offset="1" stop-color="#F4A223" style="stop-color:#F4A223;stop-color:color(display-p3 0.9569 0.6353 0.1373);stop-opacity:1;"/>
</radialGradient>
<radialGradient id="paint1_radial_169_7162" cx="0" cy="0" r="1" gradientUnits="userSpaceOnUse" gradientTransform="translate(38.599 34.5377) rotate(-43.2082) scale(102.024 101.825)">
<stop offset="0.3533" stop-color="#F9DDBD" style="stop-color:#F9DDBD;stop-color:color(display-p3 0.9765 0.8667 0.7412);stop-opacity:1;"/>
<stop offset="0.8723" stop-color="#FFD29C" style="stop-color:#FFD29C;stop-color:color(display-p3 1.0000 0.8235 0.6118);stop-opacity:1;"/>
</radialGradient>
<radialGradient id="paint2_radial_169_7162" cx="0" cy="0" r="1" gradientUnits="userSpaceOnUse" gradientTransform="translate(38.599 34.5377) rotate(-43.2082) scale(102.024 101.825)">
<stop offset="0.3533" stop-color="#E0BB95" style="stop-color:#E0BB95;stop-color:color(display-p3 0.8784 0.7333 0.5843);stop-opacity:1;"/>
<stop offset="0.8723" stop-color="#CCA47A" style="stop-color:#CCA47A;stop-color:color(display-p3 0.8000 0.6431 0.4784);stop-opacity:1;"/>
</radialGradient>
</defs>
</svg>
