<svg width="128" height="128" viewBox="0 0 128 128" fill="none" xmlns="http://www.w3.org/2000/svg">
<path opacity="0.8" d="M15.7543 105.48C15.7543 105.48 10.9643 97.7402 10.4043 94.3602C9.84426 90.9802 9.13426 85.3502 9.84426 85.3502C10.5443 85.3502 13.2243 90.8402 13.6443 90.5602C14.0643 90.2802 11.3943 81.6902 11.6743 78.5902C11.9543 75.4902 13.9243 70.1402 14.3443 70.4202C14.7643 70.7002 17.4443 79.1502 18.5643 81.1202C19.6843 83.0902 22.9243 88.1602 22.9243 88.1602C22.9243 88.1602 31.5143 88.8602 36.4343 91.2602C41.3643 93.6502 50.5143 99.2802 50.3743 100.55C50.2343 101.82 36.2943 102.24 32.0743 101.96C27.8543 101.68 24.1943 100.55 24.1943 100.55C24.1943 100.55 30.8143 104.49 30.5343 105.34C30.2543 106.19 25.4643 106.61 22.2243 106.61C18.9943 106.6 15.7543 105.48 15.7543 105.48Z" fill="url(#paint0_radial_910_15)" style=""/>
<path d="M23.9944 57.7498C29.4744 50.4298 40.8044 36.0298 68.1644 18.4998C93.6444 2.16977 118.734 1.55977 122.054 4.70977C123.674 6.23977 124.464 8.96977 123.854 14.6498C123.384 18.9898 121.234 25.2298 117.024 29.1898C115.954 30.1898 113.604 31.4798 110.894 32.5198C106.874 34.0598 103.804 34.1198 103.804 35.2398C103.804 36.3598 106.764 37.2098 109.574 36.7898C112.394 36.3698 115.344 35.2398 115.344 35.2398L108.304 43.4098C108.304 43.4098 104.144 43.1198 101.684 42.5698C99.3644 42.0498 96.0544 40.2898 95.4944 41.5498C94.9344 42.8198 97.3944 44.0598 99.6444 45.0498C101.894 46.0398 105.064 46.6498 105.064 46.6498C105.064 46.6498 88.1744 60.3098 83.6644 65.6598C79.1544 71.0098 64.0944 87.6198 60.0144 90.1598C55.9344 92.6898 52.8344 95.3698 45.5144 95.2298C38.1944 95.0898 17.8144 95.3098 17.8144 95.3098C17.8144 95.3098 18.1844 80.9998 18.1844 75.3698C18.1844 69.7198 21.2044 61.4898 23.9944 57.7498Z" fill="url(#paint1_linear_910_15)" style=""/>
<path d="M39.2844 60.3202C39.2844 60.3202 41.2844 54.5602 40.4344 51.6002C39.5944 48.6402 35.9344 45.1802 35.9344 45.1802C35.9344 45.1802 30.2944 51.7802 29.1044 55.9602C27.3744 62.0602 28.0744 65.0402 30.1744 69.0702C32.6544 73.8102 43.8144 75.0102 49.7244 73.8402C53.0844 73.1702 59.4344 70.7402 59.4344 70.7402C59.4344 70.7402 53.8045 62.5702 48.7345 60.8902C43.6645 59.2102 39.2844 60.3202 39.2844 60.3202Z" fill="#6F4838" style="fill:#6F4838;fill:color(display-p3 0.4353 0.2824 0.2196);fill-opacity:1;"/>
<path d="M57.0543 27.1802C57.0543 27.1802 59.4643 29.0202 60.0143 33.9402C60.3643 37.1102 59.1743 41.3302 59.1743 41.3302C59.1743 41.3302 64.0643 41.1602 68.6043 43.0202C75.5043 45.8402 78.7443 51.6102 78.7443 51.6102C78.7443 51.6102 73.6743 54.0002 68.1343 54.8502C64.3643 55.4202 58.0443 55.2702 52.2743 51.6102C48.9243 49.4902 48.1943 49.2202 48.1943 49.2202C48.1943 49.2202 47.2643 39.5902 49.8843 34.6502C52.7743 29.1502 57.0543 27.1802 57.0543 27.1802Z" fill="#6F4838" style="fill:#6F4838;fill:color(display-p3 0.4353 0.2824 0.2196);fill-opacity:1;"/>
<path d="M70.6342 31.0798C70.6342 31.0798 69.5042 27.1098 71.1642 23.1998C72.8142 19.2998 77.9942 14.0898 77.9942 14.0898C77.9942 14.0898 80.6942 18.8398 81.2642 21.0598C82.1042 24.2998 79.5742 28.3798 79.5742 28.3798C79.5742 28.3798 84.2242 29.1198 87.0342 31.0498C93.3742 35.4098 94.2142 41.4698 94.2142 41.4698C94.2142 41.4698 85.6142 40.5098 80.9842 39.2198C74.4142 37.3898 70.4242 34.0098 70.4242 34.0098L70.6342 31.0798Z" fill="#734B42" style="fill:#734B42;fill:color(display-p3 0.4510 0.2941 0.2588);fill-opacity:1;"/>
<path d="M90.7444 20.87C90.7444 20.87 93.2244 24.07 98.8344 24.95C103.144 25.62 110.404 25.7 110.404 25.7C110.404 25.7 107.584 21.76 105.334 19.22C103.084 16.68 98.1244 16.71 98.1244 16.71C98.1244 16.71 101.244 12.18 101.104 10.92C100.964 9.65998 99.9744 6.97998 99.9744 6.97998C99.9744 6.97998 95.7544 8.52998 93.3544 12.89C90.9544 17.25 90.7444 20.87 90.7444 20.87Z" fill="#734B42" style="fill:#734B42;fill:color(display-p3 0.4510 0.2941 0.2588);fill-opacity:1;"/>
<path d="M5.43443 121.57C4.42442 121.2 4.44443 119.61 4.44443 118.41C4.44443 117.21 19.7944 81.4001 33.0944 64.7701C45.5744 49.1601 63.7744 36.4601 72.6744 29.7801C87.3144 18.8001 118.194 6.38014 120.174 5.82014C122.154 5.26014 123.284 6.13014 121.244 7.40014C119.204 8.67014 98.8144 15.8401 74.2244 32.3201C54.1944 45.7401 44.7544 56.1601 37.5244 66.5801C30.2944 77.0001 21.5844 92.2301 18.5844 99.3701C15.5844 106.51 11.1644 116.88 10.6044 118.23C9.93443 119.88 6.86443 122.1 5.43443 121.57Z" fill="url(#paint2_linear_910_15)" style=""/>
<defs>
<radialGradient id="paint0_radial_910_15" cx="0" cy="0" r="1" gradientUnits="userSpaceOnUse" gradientTransform="translate(24.5637 92.426) rotate(180) scale(21.6269 21.6269)">
<stop stop-color="white" style="stop-color:white;stop-opacity:1;"/>
<stop offset="0.096" stop-color="#FEF8EF" style="stop-color:#FEF8EF;stop-color:color(display-p3 0.9961 0.9725 0.9373);stop-opacity:1;"/>
<stop offset="0.2723" stop-color="#FDEED9" style="stop-color:#FDEED9;stop-color:color(display-p3 0.9922 0.9333 0.8510);stop-opacity:1;"/>
<stop offset="0.4633" stop-color="#FDE7C9" style="stop-color:#FDE7C9;stop-color:color(display-p3 0.9922 0.9059 0.7882);stop-opacity:1;"/>
<stop offset="0.678" stop-color="#FCE3BF" style="stop-color:#FCE3BF;stop-color:color(display-p3 0.9882 0.8902 0.7490);stop-opacity:1;"/>
<stop offset="0.9652" stop-color="#FCE2BC" style="stop-color:#FCE2BC;stop-color:color(display-p3 0.9882 0.8863 0.7373);stop-opacity:1;"/>
</radialGradient>
<linearGradient id="paint1_linear_910_15" x1="75.09" y1="39.5633" x2="27.5147" y2="100.06" gradientUnits="userSpaceOnUse">
<stop stop-color="#AE7237" style="stop-color:#AE7237;stop-color:color(display-p3 0.6824 0.4471 0.2157);stop-opacity:1;"/>
<stop offset="0.2085" stop-color="#B0753A" style="stop-color:#B0753A;stop-color:color(display-p3 0.6902 0.4588 0.2275);stop-opacity:1;"/>
<stop offset="0.3733" stop-color="#B67D44" style="stop-color:#B67D44;stop-color:color(display-p3 0.7137 0.4902 0.2667);stop-opacity:1;"/>
<stop offset="0.5231" stop-color="#BF8B55" style="stop-color:#BF8B55;stop-color:color(display-p3 0.7490 0.5451 0.3333);stop-opacity:1;"/>
<stop offset="0.664" stop-color="#CD9F6C" style="stop-color:#CD9F6C;stop-color:color(display-p3 0.8039 0.6235 0.4235);stop-opacity:1;"/>
<stop offset="0.7988" stop-color="#DFB98B" style="stop-color:#DFB98B;stop-color:color(display-p3 0.8745 0.7255 0.5451);stop-opacity:1;"/>
<stop offset="0.9272" stop-color="#F5D8B0" style="stop-color:#F5D8B0;stop-color:color(display-p3 0.9608 0.8471 0.6902);stop-opacity:1;"/>
<stop offset="0.9652" stop-color="#FCE2BC" style="stop-color:#FCE2BC;stop-color:color(display-p3 0.9882 0.8863 0.7373);stop-opacity:1;"/>
</linearGradient>
<linearGradient id="paint2_linear_910_15" x1="18.7383" y1="118.466" x2="80.5315" y2="31.5051" gradientUnits="userSpaceOnUse">
<stop offset="0.0737" stop-color="#CECECE" style="stop-color:#CECECE;stop-color:color(display-p3 0.8078 0.8078 0.8078);stop-opacity:1;"/>
<stop offset="0.2846" stop-color="#A69C99" style="stop-color:#A69C99;stop-color:color(display-p3 0.6510 0.6118 0.6000);stop-opacity:1;"/>
<stop offset="0.4968" stop-color="#84706B" style="stop-color:#84706B;stop-color:color(display-p3 0.5176 0.4392 0.4196);stop-opacity:1;"/>
<stop offset="0.6856" stop-color="#6B504A" style="stop-color:#6B504A;stop-color:color(display-p3 0.4196 0.3137 0.2902);stop-opacity:1;"/>
<stop offset="0.8419" stop-color="#5C3D35" style="stop-color:#5C3D35;stop-color:color(display-p3 0.3608 0.2392 0.2078);stop-opacity:1;"/>
<stop offset="0.9464" stop-color="#56362E" style="stop-color:#56362E;stop-color:color(display-p3 0.3373 0.2118 0.1804);stop-opacity:1;"/>
</linearGradient>
</defs>
</svg>
