<svg width="128" height="128" viewBox="0 0 128 128" fill="none" xmlns="http://www.w3.org/2000/svg">
<path d="M63.6001 118.8C35.7001 118.8 5.6001 101.3 5.6001 62.9C5.6001 24.5 35.7001 7 63.6001 7C79.1001 7 93.4001 12.1 104 21.4C115.5 31.6 121.6 46 121.6 62.9C121.6 79.8 115.5 94.1 104 104.3C93.4001 113.6 79.0001 118.8 63.6001 118.8Z" fill="url(#paint0_radial_169_4735)" style=""/>
<path d="M63.6001 118.8C35.7001 118.8 5.6001 101.3 5.6001 62.9C5.6001 24.5 35.7001 7 63.6001 7C79.1001 7 93.4001 12.1 104 21.4C115.5 31.6 121.6 46 121.6 62.9C121.6 79.8 115.5 94.1 104 104.3C93.4001 113.6 79.0001 118.8 63.6001 118.8Z" fill="url(#paint1_radial_169_4735)" style=""/>
<path d="M111.49 29.67C116.82 38.27 119.6 48.51 119.6 59.9C119.6 76.8 113.5 91.1 102 101.3C91.4002 110.6 77.0002 115.8 61.6002 115.8C43.5402 115.8 24.6002 108.45 13.4202 92.86C24.1802 110.52 44.4202 118.8 63.6002 118.8C79.0002 118.8 93.4002 113.6 104 104.3C115.5 94.1001 121.6 79.8 121.6 62.9C121.6 50.16 118.13 38.84 111.49 29.67Z" fill="#F3B872" style="fill:#F3B872;fill:color(display-p3 0.9542 0.7229 0.4453);fill-opacity:1;"/>
<path d="M126.22 60.82C125.91 60.37 125.55 59.95 125.16 59.57C124.97 59.38 124.76 59.2 124.55 59.03C123.01 57.78 121.08 57.1 119.1 57.1H70C68.9 57.1 68 58 68 59.1V72.6C68 72.87 68.05 73.13 68.16 73.38C68.21 73.5 68.27 73.61 68.34 73.72C68.49 73.93 68.67 74.11 68.88 74.26C69.21 74.48 69.6 74.6 70 74.6H118.8C119.69 74.6 120.58 74.47 121.44 74.21C121.99 74.04 122.53 73.82 123.04 73.55C125.89 72.06 127.68 69.12 127.7 65.9V65.5C127.7 63.83 127.18 62.19 126.22 60.82Z" fill="url(#paint2_linear_169_4735)" style=""/>
<path d="M126.22 60.82C125.91 60.37 125.55 59.95 125.16 59.57C124.97 59.38 124.76 59.2 124.55 59.03C123.01 57.78 121.08 57.1 119.1 57.1H70C68.9 57.1 68 58 68 59.1V72.6C68 72.87 68.05 73.13 68.16 73.38C68.21 73.5 68.27 73.61 68.34 73.72C68.49 73.93 68.67 74.11 68.88 74.26C69.21 74.48 69.6 74.6 70 74.6H118.8C119.69 74.6 120.58 74.47 121.44 74.21C121.99 74.04 122.53 73.82 123.04 73.55C125.89 72.06 127.68 69.12 127.7 65.9V65.5C127.7 63.83 127.18 62.19 126.22 60.82Z" fill="url(#paint3_radial_169_4735)" style=""/>
<path d="M101.1 57.1H63.6001V74.6H101.1V57.1Z" fill="url(#paint4_linear_169_4735)" style=""/>
<path d="M110.22 57.1H119.1C121.08 57.09 123 57.76 124.55 59C124.76 59.17 124.97 59.35 125.16 59.54C125.55 59.92 125.91 60.34 126.22 60.79C127.18 62.16 127.7 63.8 127.7 65.47V65.87C127.69 69.11 125.87 72.06 123 73.55C122.49 73.82 121.95 74.04 121.4 74.21C120.54 74.47 119.65 74.6 118.76 74.6H111" fill="url(#paint5_linear_169_4735)" style=""/>
<path d="M59.2999 90.5C66.3999 88.2 72.6999 90.2 74.9999 92.1C75.8199 92.66 76.2799 93.61 76.1999 94.6C76.0699 95.24 75.6199 95.77 74.9999 96C74.7799 96.08 74.5399 96.12 74.2999 96.1C65.8199 96.28 57.5699 98.96 50.5999 103.8C50.3999 103.9 50.1999 104.1 49.9999 104.1C49.3699 104.32 48.6699 104.17 48.1999 103.7C47.5599 102.95 47.3699 101.92 47.6999 101C48.2999 98.2 52.1999 92.9 59.2999 90.5Z" fill="#312D2D" style="fill:#312D2D;fill:color(display-p3 0.1922 0.1765 0.1765);fill-opacity:1;"/>
<path d="M90.8 54.4C90.8 48.5 87 45 82.8 45C78.6 45 74.8 48.5 74.8 54.4C74.8 55.31 74.9 56.21 75.1 57.1H90.5C90.7 56.21 90.8 55.31 90.8 54.4Z" fill="#312D2D" style="fill:#312D2D;fill:color(display-p3 0.1922 0.1765 0.1765);fill-opacity:1;"/>
<path d="M45.2 45C41 45 37.2 48.5 37.2 54.4C37.2 60.3 41 63.8 45.2 63.8C49.4 63.8 53.2 60.3 53.2 54.4C53.2 48.5 49.4 45 45.2 45Z" fill="#312D2D" style="fill:#312D2D;fill:color(display-p3 0.1922 0.1765 0.1765);fill-opacity:1;"/>
<path d="M72.6299 74.05C82.4199 73.53 92.2199 73.25 102.02 73.05C106.92 72.93 111.82 72.91 116.72 72.84H118.53C119.05 72.82 119.57 72.75 120.08 72.63C121.1 72.37 122.05 71.9 122.87 71.24C124.52 69.92 125.47 67.91 125.44 65.8C125.48 64.76 125.27 63.74 124.82 62.8C124.61 62.33 124.33 61.89 123.98 61.51L123.48 60.92C123.29 60.74 123.1 60.56 122.9 60.4C122.09 59.72 121.14 59.24 120.11 59C119.59 58.89 119.07 58.83 118.54 58.83H116.7C111.81 58.7 106.91 58.62 102.01 58.45C92.2099 58.14 82.4199 57.75 72.6299 57.11C82.4299 56.7 92.2299 56.54 102.03 56.48C106.92 56.42 111.82 56.48 116.72 56.48H118.56C120.69 56.46 122.76 57.17 124.43 58.48C124.7 58.7 124.97 58.93 125.22 59.17L125.91 59.98C126.38 60.51 126.78 61.11 127.08 61.75C127.69 63.03 127.99 64.43 127.96 65.85C127.97 68.72 126.66 71.43 124.41 73.21C123.31 74.08 122.03 74.69 120.66 75C119.98 75.17 119.28 75.26 118.58 75.27H116.72C111.82 75.2 106.92 75.18 102.02 75.06C92.2199 74.85 82.4199 74.57 72.6299 74.05Z" fill="#EB8F00" style="fill:#EB8F00;fill:color(display-p3 0.9216 0.5608 0.0000);fill-opacity:1;"/>
<path d="M72.6299 74.05C82.4199 73.53 92.2199 73.25 102.02 73.05C106.92 72.93 111.82 72.91 116.72 72.84H118.53C119.05 72.82 119.57 72.75 120.08 72.63C121.1 72.37 122.05 71.9 122.87 71.24C124.52 69.92 125.47 67.91 125.44 65.8C125.48 64.76 125.27 63.74 124.82 62.8C124.61 62.33 124.33 61.89 123.98 61.51L123.48 60.92C123.29 60.74 123.1 60.56 122.9 60.4C122.09 59.72 121.14 59.24 120.11 59C119.59 58.89 119.07 58.83 118.54 58.83H116.7C111.81 58.7 106.91 58.62 102.01 58.45C92.2099 58.14 82.4199 57.75 72.6299 57.11C82.4299 56.7 92.2299 56.54 102.03 56.48C106.92 56.42 111.82 56.48 116.72 56.48H118.56C120.69 56.46 122.76 57.17 124.43 58.48C124.7 58.7 124.97 58.93 125.22 59.17L125.91 59.98C126.38 60.51 126.78 61.11 127.08 61.75C127.69 63.03 127.99 64.43 127.96 65.85C127.97 68.72 126.66 71.43 124.41 73.21C123.31 74.08 122.03 74.69 120.66 75C119.98 75.17 119.28 75.26 118.58 75.27H116.72C111.82 75.2 106.92 75.18 102.02 75.06C92.2199 74.85 82.4199 74.57 72.6299 74.05Z" fill="#F3B872" style="fill:#F3B872;fill:color(display-p3 0.9542 0.7229 0.4453);fill-opacity:1;"/>
<path d="M31.0599 40.49C29.4099 42 26.7999 40.14 28.1799 38.17C31.3299 33.94 35.9799 31.07 41.1799 30.17C43.0899 29.75 45.0599 29.66 46.9999 29.9C48.0099 29.94 48.7999 30.79 48.7599 31.8C48.7199 32.81 47.8699 33.6 46.8599 33.56H46.7199C40.8699 34.04 35.3499 36.48 31.0599 40.49Z" fill="#312D2D" style="fill:#312D2D;fill:color(display-p3 0.1922 0.1765 0.1765);fill-opacity:1;"/>
<path d="M94.75 34.35C96.29 35.97 99.02 34.3 97.75 32.24C94.92 27.75 90.47 24.53 85.32 23.24C83.44 22.7 81.48 22.49 79.53 22.61C78.52 22.58 77.67 23.37 77.64 24.38C77.61 25.39 78.4 26.24 79.41 26.27H79.55C85.39 27.15 90.75 30.01 94.75 34.35Z" fill="#312D2D" style="fill:#312D2D;fill:color(display-p3 0.1922 0.1765 0.1765);fill-opacity:1;"/>
<defs>
<radialGradient id="paint0_radial_169_4735" cx="0" cy="0" r="1" gradientUnits="userSpaceOnUse" gradientTransform="translate(63.6001 62.9) scale(56.9597 56.9597)">
<stop offset="0.5" stop-color="#FDE030" style="stop-color:#FDE030;stop-color:color(display-p3 0.9922 0.8784 0.1882);stop-opacity:1;"/>
<stop offset="0.92" stop-color="#F7C02B" style="stop-color:#F7C02B;stop-color:color(display-p3 0.9686 0.7529 0.1686);stop-opacity:1;"/>
<stop offset="1" stop-color="#F4A223" style="stop-color:#F4A223;stop-color:color(display-p3 0.9569 0.6353 0.1373);stop-opacity:1;"/>
</radialGradient>
<radialGradient id="paint1_radial_169_4735" cx="0" cy="0" r="1" gradientUnits="userSpaceOnUse" gradientTransform="translate(38.5991 34.5377) rotate(-43.2082) scale(102.024 101.825)">
<stop offset="0.3533" stop-color="#F9DDBD" style="stop-color:#F9DDBD;stop-color:color(display-p3 0.9765 0.8667 0.7412);stop-opacity:1;"/>
<stop offset="0.8723" stop-color="#FFD29C" style="stop-color:#FFD29C;stop-color:color(display-p3 1.0000 0.8235 0.6118);stop-opacity:1;"/>
</radialGradient>
<linearGradient id="paint2_linear_169_4735" x1="97.85" y1="74.6" x2="97.85" y2="57.1" gradientUnits="userSpaceOnUse">
<stop offset="0.02" stop-color="#FCC21B" style="stop-color:#FCC21B;stop-color:color(display-p3 0.9882 0.7608 0.1059);stop-opacity:1;"/>
<stop offset="0.7" stop-color="#FDE030" style="stop-color:#FDE030;stop-color:color(display-p3 0.9922 0.8784 0.1882);stop-opacity:1;"/>
<stop offset="1" stop-color="#F4A223" style="stop-color:#F4A223;stop-color:color(display-p3 0.9569 0.6353 0.1373);stop-opacity:1;"/>
</linearGradient>
<radialGradient id="paint3_radial_169_4735" cx="0" cy="0" r="1" gradientUnits="userSpaceOnUse" gradientTransform="translate(84.9831 61.4104) rotate(-15.9443) scale(39.8022 21.0262)">
<stop offset="0.3533" stop-color="#F9DDBD" style="stop-color:#F9DDBD;stop-color:color(display-p3 0.9765 0.8667 0.7412);stop-opacity:1;"/>
<stop offset="0.8723" stop-color="#FFD29C" style="stop-color:#FFD29C;stop-color:color(display-p3 1.0000 0.8235 0.6118);stop-opacity:1;"/>
</radialGradient>
<linearGradient id="paint4_linear_169_4735" x1="63.6001" y1="65.85" x2="101.1" y2="65.85" gradientUnits="userSpaceOnUse">
<stop offset="0.4" stop-color="#F9DCBB" style="stop-color:#F9DCBB;stop-color:color(display-p3 0.9765 0.8627 0.7333);stop-opacity:1;"/>
<stop offset="1" stop-color="#FED4A2" stop-opacity="0" style="stop-color:none;stop-opacity:0;"/>
</linearGradient>
<linearGradient id="paint5_linear_169_4735" x1="110.22" y1="65.85" x2="127.7" y2="65.85" gradientUnits="userSpaceOnUse">
<stop stop-color="#FADBB6" style="stop-color:#FADBB6;stop-color:color(display-p3 0.9804 0.8588 0.7137);stop-opacity:1;"/>
<stop offset="0.6" stop-color="#FED4A2" style="stop-color:#FED4A2;stop-color:color(display-p3 0.9961 0.8314 0.6353);stop-opacity:1;"/>
</linearGradient>
</defs>
</svg>
