<svg width="128" height="128" viewBox="0 0 128 128" fill="none" xmlns="http://www.w3.org/2000/svg">
<path d="M60.23 50.47C60.23 50.47 49.67 53.45 40.85 59.27C33.59 64.05 27.02 71.31 27.02 71.31L28.9 89.07L34.1 93L55.91 73.37C55.91 73.37 59.01 65.27 60.12 59.72C60.7 56.86 61 54.06 61 54.06L60.23 50.47Z" fill="#A83665" style="fill:#A83665;fill:color(display-p3 0.6583 0.2112 0.3972);fill-opacity:1;"/>
<path d="M69.1899 52.6901C69.1899 52.6901 71.3999 61.0401 72.2099 64.3501C73.1299 68.0901 74.8999 74.1701 74.8999 74.1701L96.5899 89.5901L104.79 73.5401C104.79 73.5401 100.18 67.8201 97.6999 64.8301C95.2199 61.8401 81.1299 52.1101 81.1299 52.1101L69.1899 52.6901Z" fill="#A83665" style="fill:#A83665;fill:color(display-p3 0.6583 0.2112 0.3972);fill-opacity:1;"/>
<path d="M13.3198 98.51C13.3198 98.51 14.0698 91.64 19.7098 81.82C25.3498 72 28.1198 70.29 28.1198 70.29C28.1198 70.29 31.3798 69.53 34.2698 69.18C37.3898 68.8 39.9898 69.09 39.9898 69.09C39.9898 69.09 36.0598 73.87 33.8398 78.48C31.6198 83.09 30.2498 87.45 31.8798 88.3C33.4998 89.15 35.3098 83.3 38.7998 77.97C42.4698 72.35 45.2698 69.59 45.2698 69.59C45.2698 69.59 48.0698 69.68 50.9898 70.55C54.2198 71.51 56.0098 73.15 56.0098 73.15C56.0098 73.15 50.2498 88.64 47.0898 97.61C43.9298 106.58 39.3698 118.48 38.2598 118.91C37.1498 119.34 35.2198 115.89 34.0198 113.16C32.8198 110.43 28.7298 95.91 28.4698 96.17C28.2098 96.43 13.3198 98.51 13.3198 98.51Z" fill="#EF7EAD" style="fill:#EF7EAD;fill:color(display-p3 0.9373 0.4941 0.6784);fill-opacity:1;"/>
<path d="M74.8901 74.1C74.8901 74.1 77.4001 72.41 79.4501 71.72C81.5001 71.04 85.1301 70.46 85.1301 70.46C85.1301 70.46 87.3101 74.72 89.0101 77.63C90.7201 80.53 93.5001 86.51 95.2901 85.65C97.0801 84.8 94.7801 78.76 93.4501 76.09C92.2401 73.66 90.1201 70.37 90.1201 70.37C90.1201 70.37 92.7701 70.03 97.6301 70.97C102.5 71.91 104.8 73.53 104.8 73.53C104.8 73.53 109.3 80.21 111.72 84.29C114.94 89.73 118.98 98.97 118.98 98.97L101.13 100.43L92.1601 120.07C92.1601 120.07 90.9201 120.15 90.2301 119.73C89.5501 119.3 86.3201 110.43 84.5701 105.23C81.8201 97.02 74.8901 74.1 74.8901 74.1Z" fill="#EF7EAD" style="fill:#EF7EAD;fill:color(display-p3 0.9373 0.4941 0.6784);fill-opacity:1;"/>
<path d="M100.1 98.7301C99.4101 99.3701 92.7401 115.94 92.5401 116.43C91.5101 118.97 90.1001 119.55 90.1001 119.55C90.1001 119.55 91.3101 121.29 93.3601 120.69C94.9401 120.23 102.46 102.42 102.46 102.42C102.46 102.42 116.05 102.55 118.03 101.69C120.25 100.73 118.95 98.9201 118.95 98.9201C118.95 98.9201 101.02 97.8701 100.1 98.7301Z" fill="#B94173" style="fill:#B94173;fill:color(display-p3 0.7250 0.2538 0.4498);fill-opacity:1;"/>
<path d="M13.3499 98.13C13.3499 98.13 17.3699 97.4 21.0699 96.42C24.7699 95.44 29.5099 94.05 29.5099 94.05C29.5099 94.05 33.2499 104.27 34.3699 107.7C35.4899 111.13 38.4099 118.8 38.4099 118.8C38.4099 118.8 37.1399 120.17 35.3099 119.04C33.5999 117.98 30.3299 108.94 29.4699 106.54C28.3699 103.5 26.9399 98.99 26.9399 98.99C26.9399 98.99 23.0599 100.28 19.8299 100.87C16.5999 101.46 14.4099 101.89 13.5499 101.03C12.6899 100.18 13.3499 98.13 13.3499 98.13Z" fill="#B94173" style="fill:#B94173;fill:color(display-p3 0.7250 0.2538 0.4498);fill-opacity:1;"/>
<path d="M46.3598 28.97L27.8098 24.21L14.6998 34.87L9.25977 60.87L12.2298 65.87C12.2298 65.87 15.4498 68.33 24.5098 66.31C33.5698 64.28 54.0298 56.4 54.0298 56.4C54.0298 56.4 56.6398 57.48 58.9798 57.8C61.3198 58.12 65.3098 57.28 65.3098 57.28C65.3098 57.28 70.3298 58.1 73.3198 57.89C76.2998 57.68 77.5798 57.36 77.5798 57.36C77.5798 57.36 87.3898 62.58 97.1898 65.35C106.99 68.12 114.56 68.75 116.27 68.55C118.93 68.23 120.21 63.75 120.21 63.75L119.14 53.94L104.86 23.24L75.1198 31.77L73.3098 33.8L65.5198 31.68L54.9498 33.76L53.6198 32.2L46.3598 28.97Z" fill="#CA5083" style="fill:#CA5083;fill:color(display-p3 0.7917 0.3134 0.5123);fill-opacity:1;"/>
<path d="M54.59 33.37C54.59 33.37 55.77 29.71 64.66 29.71C72.95 29.71 74.07 32.99 74.07 32.99C74.07 32.99 75.15 40.19 74.17 46.43C73.3 52.01 70.21 57.84 70.21 57.84C70.21 57.84 68.16 58.35 64.99 58.44C62 58.52 58.82 57.77 58.82 57.77C58.82 57.77 56 52.8 54.81 46.56C53.67 40.52 54.59 33.37 54.59 33.37Z" fill="#EF7EAD" style="fill:#EF7EAD;fill:color(display-p3 0.9373 0.4941 0.6784);fill-opacity:1;"/>
<path d="M59.9002 45.0699C61.6002 45.4099 62.5702 40.8399 63.6402 39.5899C65.3202 37.6399 69.3002 38.0199 69.2302 35.4099C69.1802 33.3499 61.6002 32.3999 58.8702 36.2199C56.9702 38.8899 57.1902 44.5299 59.9002 45.0699Z" fill="#FFBDD9" style="fill:#FFBDD9;fill:color(display-p3 1.0000 0.7417 0.8491);fill-opacity:1;"/>
<path d="M75.1099 31.77C75.1099 31.77 76.2399 33.15 77.2399 35.63C77.9799 37.45 78.7799 40.11 78.7799 40.11C78.7799 40.11 82.4599 36.9 85.6099 35.16C88.7499 33.42 103.76 28.09 104.15 35.36C104.46 41.27 93.3999 41.15 88.2099 43.26C84.5599 44.74 79.5899 47.54 79.5899 47.54V53.56C79.5899 53.56 81.9899 56.12 87.6099 56.59C93.2299 57.06 107.64 56.89 110.48 57.01C116.39 57.26 118.46 59.91 118.46 63.06C118.46 66.2 117.35 67.49 117.72 67.9C118.2 68.44 120.67 66.47 122.01 61.38C123.35 56.29 124.38 46.78 123.98 38.63C123.51 29 121.61 16.11 117.31 13.71C113.01 11.31 100.47 14.51 93.1099 17.66C80.7299 22.96 75.1099 31.77 75.1099 31.77Z" fill="#EF7EAD" style="fill:#EF7EAD;fill:color(display-p3 0.9373 0.4941 0.6784);fill-opacity:1;"/>
<path d="M50.3699 39.74C50.3699 39.74 50.8299 37.37 51.6999 35.49C52.3799 34.02 53.6299 32.21 53.6299 32.21C53.6299 32.21 51.2699 26.06 42.5799 21.07C33.8899 16.08 15.7099 12.18 9.91991 14.38C7.03991 15.47 4.24991 22.86 3.39991 34.08C2.66991 43.82 3.6299 55.48 6.6999 61.23C9.0099 65.56 14.8699 68.78 16.6499 67C17.5199 66.13 10.8799 63.11 17.2099 59.13C20.8799 56.83 27.8999 57.03 33.9899 56.63C40.0799 56.23 42.6799 56.53 45.8799 55.73C49.0799 54.93 51.0699 53.73 51.0699 53.73C51.0699 53.73 50.3199 51.23 50.1699 50.03C49.9599 48.39 49.8299 47.05 49.8299 47.05C49.8299 47.05 47.7199 45.86 42.1799 44.94C36.7499 44.03 27.8299 44.23 27.6999 38.25C27.5299 30.66 36.2899 32.56 40.3799 34.25C44.4699 35.94 49.8699 39.24 50.3699 39.74Z" fill="#EF7EAD" style="fill:#EF7EAD;fill:color(display-p3 0.9373 0.4941 0.6784);fill-opacity:1;"/>
</svg>
