<svg width="128" height="128" viewBox="0 0 128 128" fill="none" xmlns="http://www.w3.org/2000/svg">
<path d="M63.6001 118.8C35.7001 118.8 5.6001 101.3 5.6001 62.9C5.6001 24.5 35.7001 7 63.6001 7C79.1001 7 93.4001 12.1 104 21.4C115.5 31.6 121.6 46 121.6 62.9C121.6 79.8 115.5 94.1 104 104.3C93.4001 113.6 79.0001 118.8 63.6001 118.8Z" fill="url(#paint0_radial_169_13205)" style=""/>
<path d="M63.6001 118.8C35.7001 118.8 5.6001 101.3 5.6001 62.9C5.6001 24.5 35.7001 7 63.6001 7C79.1001 7 93.4001 12.1 104 21.4C115.5 31.6 121.6 46 121.6 62.9C121.6 79.8 115.5 94.1 104 104.3C93.4001 113.6 79.0001 118.8 63.6001 118.8Z" fill="url(#paint1_radial_169_13205)" style=""/>
<path d="M63.6001 118.8C35.7001 118.8 5.6001 101.3 5.6001 62.9C5.6001 24.5 35.7001 7 63.6001 7C79.1001 7 93.4001 12.1 104 21.4C115.5 31.6 121.6 46 121.6 62.9C121.6 79.8 115.5 94.1 104 104.3C93.4001 113.6 79.0001 118.8 63.6001 118.8Z" fill="url(#paint2_radial_169_13205)" style=""/>
<path d="M63.6001 118.8C35.7001 118.8 5.6001 101.3 5.6001 62.9C5.6001 24.5 35.7001 7 63.6001 7C79.1001 7 93.4001 12.1 104 21.4C115.5 31.6 121.6 46 121.6 62.9C121.6 79.8 115.5 94.1 104 104.3C93.4001 113.6 79.0001 118.8 63.6001 118.8Z" fill="url(#paint3_radial_169_13205)" style=""/>
<path d="M63.6001 118.8C35.7001 118.8 5.6001 101.3 5.6001 62.9C5.6001 24.5 35.7001 7 63.6001 7C79.1001 7 93.4001 12.1 104 21.4C115.5 31.6 121.6 46 121.6 62.9C121.6 79.8 115.5 94.1 104 104.3C93.4001 113.6 79.0001 118.8 63.6001 118.8Z" fill="url(#paint4_radial_169_13205)" style=""/>
<path d="M111.49 29.67C116.82 38.27 119.6 48.51 119.6 59.9C119.6 76.8 113.5 91.1 102 101.3C91.3999 110.6 76.9999 115.8 61.5999 115.8C43.5399 115.8 24.5999 108.45 13.4199 92.86C24.1799 110.52 44.4199 118.8 63.5999 118.8C78.9999 118.8 93.3999 113.6 104 104.3C115.5 94.1001 121.6 79.8 121.6 62.9C121.6 50.16 118.13 38.84 111.49 29.67Z" fill="#EB8F00" style="fill:#EB8F00;fill:color(display-p3 0.9216 0.5608 0.0000);fill-opacity:1;"/>
<path d="M111.49 29.67C116.82 38.27 119.6 48.51 119.6 59.9C119.6 76.8 113.5 91.1 102 101.3C91.3999 110.6 76.9999 115.8 61.5999 115.8C43.5399 115.8 24.5999 108.45 13.4199 92.86C24.1799 110.52 44.4199 118.8 63.5999 118.8C78.9999 118.8 93.3999 113.6 104 104.3C115.5 94.1001 121.6 79.8 121.6 62.9C121.6 50.16 118.13 38.84 111.49 29.67Z" fill="#F3B872" style="fill:#F3B872;fill:color(display-p3 0.9542 0.7229 0.4453);fill-opacity:1;"/>
<path d="M111.49 29.67C116.82 38.27 119.6 48.51 119.6 59.9C119.6 76.8 113.5 91.1 102 101.3C91.3999 110.6 76.9999 115.8 61.5999 115.8C43.5399 115.8 24.5999 108.45 13.4199 92.86C24.1799 110.52 44.4199 118.8 63.5999 118.8C78.9999 118.8 93.3999 113.6 104 104.3C115.5 94.1001 121.6 79.8 121.6 62.9C121.6 50.16 118.13 38.84 111.49 29.67Z" fill="#91674D" style="fill:#91674D;fill:color(display-p3 0.5686 0.4039 0.3020);fill-opacity:1;"/>
<path d="M38.7695 91.57L44.8995 97.3L54.3995 88.1L63.9995 97.3L73.4995 88.1L83.0995 97.3L89.3295 91.47" fill="#1A1717" style="fill:#1A1717;fill:color(display-p3 0.1020 0.0902 0.0902);fill-opacity:1;"/>
<path d="M38.7695 91.57L44.8995 97.3L54.3995 88.1L63.9995 97.3L73.4995 88.1L83.0995 97.3L89.3295 91.47" fill="#5D4037" style="fill:#5D4037;fill:color(display-p3 0.3647 0.2510 0.2157);fill-opacity:1;"/>
<path d="M38.7695 91.57L44.8995 97.3L54.3995 88.1L63.9995 97.3L73.4995 88.1L83.0995 97.3L89.3295 91.47" stroke="#1A1717" style="stroke:#1A1717;stroke:color(display-p3 0.1020 0.0902 0.0902);stroke-opacity:1;" stroke-width="8" stroke-linecap="round" stroke-linejoin="round"/>
<path d="M38.7695 91.57L44.8995 97.3L54.3995 88.1L63.9995 97.3L73.4995 88.1L83.0995 97.3L89.3295 91.47" stroke="#5D4037" style="stroke:#5D4037;stroke:color(display-p3 0.3647 0.2510 0.2157);stroke-opacity:1;" stroke-width="8" stroke-linecap="round" stroke-linejoin="round"/>
<path d="M32.1998 69.1001L44.3998 66.7001L31.8998 61.5001C31.7898 61.3901 31.6498 61.3301 31.4998 61.3001C28.8998 59.7001 28.3998 56.4001 30.7998 54.4001C32.8098 52.8501 35.5698 52.7301 37.6998 54.1001C42.6998 57.1001 54.3998 64.3001 58.9998 67.1001C59.5098 67.3201 59.7398 67.9101 59.5198 68.4101C59.3898 68.7101 59.1198 68.9301 58.7998 69.0001L35.8998 77.6001C35.6998 77.7001 35.5998 77.7001 35.3998 77.8001C32.3998 78.6001 29.0998 76.9001 28.5998 74.0001C28.0998 71.8001 29.7998 69.7001 32.1998 69.1001Z" fill="#49362E" style="fill:#49362E;fill:color(display-p3 0.2863 0.2118 0.1804);fill-opacity:1;"/>
<path d="M32.1998 69.1001L44.3998 66.7001L31.8998 61.5001C31.7898 61.3901 31.6498 61.3301 31.4998 61.3001C28.8998 59.7001 28.3998 56.4001 30.7998 54.4001C32.8098 52.8501 35.5698 52.7301 37.6998 54.1001C42.6998 57.1001 54.3998 64.3001 58.9998 67.1001C59.5098 67.3201 59.7398 67.9101 59.5198 68.4101C59.3898 68.7101 59.1198 68.9301 58.7998 69.0001L35.8998 77.6001C35.6998 77.7001 35.5998 77.7001 35.3998 77.8001C32.3998 78.6001 29.0998 76.9001 28.5998 74.0001C28.0998 71.8001 29.7998 69.7001 32.1998 69.1001Z" fill="#1A1717" style="fill:#1A1717;fill:color(display-p3 0.1020 0.0902 0.0902);fill-opacity:1;"/>
<path d="M32.1998 69.1001L44.3998 66.7001L31.8998 61.5001C31.7898 61.3901 31.6498 61.3301 31.4998 61.3001C28.8998 59.7001 28.3998 56.4001 30.7998 54.4001C32.8098 52.8501 35.5698 52.7301 37.6998 54.1001C42.6998 57.1001 54.3998 64.3001 58.9998 67.1001C59.5098 67.3201 59.7398 67.9101 59.5198 68.4101C59.3898 68.7101 59.1198 68.9301 58.7998 69.0001L35.8998 77.6001C35.6998 77.7001 35.5998 77.7001 35.3998 77.8001C32.3998 78.6001 29.0998 76.9001 28.5998 74.0001C28.0998 71.8001 29.7998 69.7001 32.1998 69.1001Z" fill="#49362E" style="fill:#49362E;fill:color(display-p3 0.2863 0.2118 0.1804);fill-opacity:1;"/>
<path d="M95.7999 68.8L83.5999 66.4L96.1999 61.2C96.3099 61.09 96.4499 61.03 96.5999 61C99.1999 59.4 99.6999 56.1 97.2999 54.1C95.2899 52.55 92.5299 52.43 90.3999 53.8C85.3999 56.8 73.6999 64 69.0999 66.8C68.5899 67.02 68.3599 67.61 68.5799 68.11C68.7099 68.41 68.9799 68.63 69.2999 68.7L92.1999 77.3C92.3999 77.4 92.4999 77.4 92.6999 77.5C95.6999 78.3 98.9999 76.6 99.4999 73.7C99.8999 71.5 98.1999 69.5 95.7999 68.8Z" fill="#49362E" style="fill:#49362E;fill:color(display-p3 0.2863 0.2118 0.1804);fill-opacity:1;"/>
<path d="M95.7999 68.8L83.5999 66.4L96.1999 61.2C96.3099 61.09 96.4499 61.03 96.5999 61C99.1999 59.4 99.6999 56.1 97.2999 54.1C95.2899 52.55 92.5299 52.43 90.3999 53.8C85.3999 56.8 73.6999 64 69.0999 66.8C68.5899 67.02 68.3599 67.61 68.5799 68.11C68.7099 68.41 68.9799 68.63 69.2999 68.7L92.1999 77.3C92.3999 77.4 92.4999 77.4 92.6999 77.5C95.6999 78.3 98.9999 76.6 99.4999 73.7C99.8999 71.5 98.1999 69.5 95.7999 68.8Z" fill="#1A1717" style="fill:#1A1717;fill:color(display-p3 0.1020 0.0902 0.0902);fill-opacity:1;"/>
<path d="M95.7999 68.8L83.5999 66.4L96.1999 61.2C96.3099 61.09 96.4499 61.03 96.5999 61C99.1999 59.4 99.6999 56.1 97.2999 54.1C95.2899 52.55 92.5299 52.43 90.3999 53.8C85.3999 56.8 73.6999 64 69.0999 66.8C68.5899 67.02 68.3599 67.61 68.5799 68.11C68.7099 68.41 68.9799 68.63 69.2999 68.7L92.1999 77.3C92.3999 77.4 92.4999 77.4 92.6999 77.5C95.6999 78.3 98.9999 76.6 99.4999 73.7C99.8999 71.5 98.1999 69.5 95.7999 68.8Z" fill="#49362E" style="fill:#49362E;fill:color(display-p3 0.2863 0.2118 0.1804);fill-opacity:1;"/>
<defs>
<radialGradient id="paint0_radial_169_13205" cx="0" cy="0" r="1" gradientUnits="userSpaceOnUse" gradientTransform="translate(63.6001 62.9) scale(56.9597 56.9597)">
<stop offset="0.5" stop-color="#FDE030" style="stop-color:#FDE030;stop-color:color(display-p3 0.9922 0.8784 0.1882);stop-opacity:1;"/>
<stop offset="0.92" stop-color="#F7C02B" style="stop-color:#F7C02B;stop-color:color(display-p3 0.9686 0.7529 0.1686);stop-opacity:1;"/>
<stop offset="1" stop-color="#F4A223" style="stop-color:#F4A223;stop-color:color(display-p3 0.9569 0.6353 0.1373);stop-opacity:1;"/>
</radialGradient>
<radialGradient id="paint1_radial_169_13205" cx="0" cy="0" r="1" gradientUnits="userSpaceOnUse" gradientTransform="translate(38.5991 34.5377) rotate(-43.2082) scale(102.024 101.825)">
<stop offset="0.3533" stop-color="#F9DDBD" style="stop-color:#F9DDBD;stop-color:color(display-p3 0.9765 0.8667 0.7412);stop-opacity:1;"/>
<stop offset="0.8723" stop-color="#FFD29C" style="stop-color:#FFD29C;stop-color:color(display-p3 1.0000 0.8235 0.6118);stop-opacity:1;"/>
</radialGradient>
<radialGradient id="paint2_radial_169_13205" cx="0" cy="0" r="1" gradientUnits="userSpaceOnUse" gradientTransform="translate(38.5991 34.5377) rotate(-43.2082) scale(102.024 101.825)">
<stop offset="0.3533" stop-color="#70534A" style="stop-color:#70534A;stop-color:color(display-p3 0.4392 0.3255 0.2902);stop-opacity:1;"/>
<stop offset="0.8723" stop-color="#5C4037" style="stop-color:#5C4037;stop-color:color(display-p3 0.3608 0.2510 0.2157);stop-opacity:1;"/>
</radialGradient>
<radialGradient id="paint3_radial_169_13205" cx="0" cy="0" r="1" gradientUnits="userSpaceOnUse" gradientTransform="translate(38.5991 34.5377) rotate(-43.2082) scale(102.024 101.825)">
<stop offset="0.3533" stop-color="#A37A58" style="stop-color:#A37A58;stop-color:color(display-p3 0.6375 0.4772 0.3453);stop-opacity:1;"/>
<stop offset="0.8723" stop-color="#8D5738" style="stop-color:#8D5738;stop-color:color(display-p3 0.5529 0.3412 0.2196);stop-opacity:1;"/>
</radialGradient>
<radialGradient id="paint4_radial_169_13205" cx="0" cy="0" r="1" gradientUnits="userSpaceOnUse" gradientTransform="translate(38.5991 34.5377) rotate(-43.2082) scale(102.024 101.825)">
<stop offset="0.3533" stop-color="#AD8264" style="stop-color:#AD8264;stop-color:color(display-p3 0.6784 0.5098 0.3922);stop-opacity:1;"/>
<stop offset="0.8723" stop-color="#A47B62" style="stop-color:#A47B62;stop-color:color(display-p3 0.6431 0.4824 0.3843);stop-opacity:1;"/>
</radialGradient>
</defs>
</svg>
