<svg width="128" height="128" viewBox="0 0 128 128" fill="none" xmlns="http://www.w3.org/2000/svg">
<path d="M63.6001 118.8C35.7001 118.8 5.6001 101.3 5.6001 62.9C5.6001 24.5 35.7001 7 63.6001 7C79.1001 7 93.4001 12.1 104 21.4C115.5 31.6 121.6 46 121.6 62.9C121.6 79.8 115.5 94.1 104 104.3C93.4001 113.6 79.0001 118.8 63.6001 118.8Z" fill="url(#paint0_radial_169_12164)" style=""/>
<path d="M111.49 29.67C116.82 38.27 119.6 48.51 119.6 59.9C119.6 76.8 113.5 91.1 102 101.3C91.4002 110.6 77.0002 115.8 61.6002 115.8C43.5402 115.8 24.6002 108.45 13.4202 92.86C24.1802 110.52 44.4202 118.8 63.6002 118.8C79.0002 118.8 93.4002 113.6 104 104.3C115.5 94.1 121.6 79.8 121.6 62.9C121.6 50.16 118.13 38.84 111.49 29.67Z" fill="#789E46" style="fill:#789E46;fill:color(display-p3 0.4706 0.6196 0.2745);fill-opacity:1;"/>
<g opacity="0.65">
<path opacity="0.65" d="M92.1299 107.99C99.293 107.99 105.1 102.667 105.1 96.1C105.1 89.5333 99.293 84.21 92.1299 84.21C84.9668 84.21 79.1599 89.5333 79.1599 96.1C79.1599 102.667 84.9668 107.99 92.1299 107.99Z" fill="url(#paint1_radial_169_12164)" style=""/>
</g>
<g opacity="0.65">
<path opacity="0.65" d="M36.98 109.99C44.1431 109.99 49.95 104.667 49.95 98.1C49.95 91.5333 44.1431 86.21 36.98 86.21C29.8169 86.21 24.01 91.5333 24.01 98.1C24.01 104.667 29.8169 109.99 36.98 109.99Z" fill="url(#paint2_radial_169_12164)" style=""/>
</g>
<path d="M42.73 87.14C45.38 88.41 48.42 92 49.53 94.72C50.39 96.88 50.62 99.25 50.17 101.54" stroke="#1A1717" style="stroke:#1A1717;stroke:color(display-p3 0.1020 0.0902 0.0902);stroke-opacity:1;" stroke-width="5.26" stroke-linecap="round" stroke-linejoin="round"/>
<path d="M42.73 87.14C45.38 88.41 48.42 92 49.53 94.72C50.39 96.88 50.62 99.25 50.17 101.54" stroke="#5D4037" style="stroke:#5D4037;stroke:color(display-p3 0.3647 0.2510 0.2157);stroke-opacity:1;" stroke-width="5.26" stroke-linecap="round" stroke-linejoin="round"/>
<path d="M84.5 86.41C81.85 87.67 78.79 91.24 77.68 93.96C77.12 95.32 76.82 96.78 76.79 98.25" stroke="#1A1717" style="stroke:#1A1717;stroke:color(display-p3 0.1020 0.0902 0.0902);stroke-opacity:1;" stroke-width="5.26" stroke-linecap="round" stroke-linejoin="round"/>
<path d="M84.5 86.41C81.85 87.67 78.79 91.24 77.68 93.96C77.12 95.32 76.82 96.78 76.79 98.25" stroke="#5D4037" style="stroke:#5D4037;stroke:color(display-p3 0.3647 0.2510 0.2157);stroke-opacity:1;" stroke-width="5.26" stroke-linecap="round" stroke-linejoin="round"/>
<path d="M49.45 94.18C49.45 94.18 51.1699 89.37 63.6399 89.18C74.95 89 77.6399 92.63 77.6399 92.63" stroke="#5D4037" style="stroke:#5D4037;stroke:color(display-p3 0.3647 0.2510 0.2157);stroke-opacity:1;" stroke-width="5.26" stroke-linecap="round" stroke-linejoin="round"/>
<path d="M27.4001 51.8C25.2001 52.2 25.1001 55.4 27.5001 55.5C32.8001 55.57 37.9201 53.6 41.8001 50C43.2801 48.72 44.5301 47.2 45.5001 45.5C46.0801 44.67 45.8801 43.53 45.0501 42.95C44.2201 42.37 43.0801 42.57 42.5001 43.4L42.4001 43.5C38.4801 47.88 33.1901 50.81 27.4001 51.8Z" fill="#49362E" style="fill:#49362E;fill:color(display-p3 0.2863 0.2118 0.1804);fill-opacity:1;"/>
<path d="M27.4001 51.8C25.2001 52.2 25.1001 55.4 27.5001 55.5C32.8001 55.57 37.9201 53.6 41.8001 50C43.2801 48.72 44.5301 47.2 45.5001 45.5C46.0801 44.67 45.8801 43.53 45.0501 42.95C44.2201 42.37 43.0801 42.57 42.5001 43.4L42.4001 43.5C38.4801 47.88 33.1901 50.81 27.4001 51.8Z" fill="#613E31" style="fill:#613E31;fill:color(display-p3 0.3804 0.2431 0.1922);fill-opacity:1;"/>
<path d="M84.5001 36.4C83.9201 35.57 82.7801 35.37 81.9501 35.95C81.1201 36.53 80.9201 37.67 81.5001 38.5C82.4701 40.2 83.7201 41.72 85.2001 43C89.1001 46.57 94.2101 48.54 99.5001 48.5C102 48.4 101.8 45.2 99.6001 44.8C93.7401 43.84 88.4101 40.87 84.5001 36.4Z" fill="#49362E" style="fill:#49362E;fill:color(display-p3 0.2863 0.2118 0.1804);fill-opacity:1;"/>
<path d="M84.5001 36.4C83.9201 35.57 82.7801 35.37 81.9501 35.95C81.1201 36.53 80.9201 37.67 81.5001 38.5C82.4701 40.2 83.7201 41.72 85.2001 43C89.1001 46.57 94.2101 48.54 99.5001 48.5C102 48.4 101.8 45.2 99.6001 44.8C93.7401 43.84 88.4101 40.87 84.5001 36.4Z" fill="#613E31" style="fill:#613E31;fill:color(display-p3 0.3804 0.2431 0.1922);fill-opacity:1;"/>
<path d="M37.75 62.65C36.26 63.37 35.46 65.03 35.84 66.65C36.84 70.96 40.2 73.46 43.79 73.46C48.13 73.46 52.07 69.79 52.07 63.71C52.08 62.62 51.94 61.54 51.66 60.49C51.12 58.64 49.19 57.58 47.35 58.12C47.15 58.18 46.97 58.25 46.78 58.34L37.75 62.65Z" fill="#49362E" style="fill:#49362E;fill:color(display-p3 0.2863 0.2118 0.1804);fill-opacity:1;"/>
<path d="M37.75 62.65C36.26 63.37 35.46 65.03 35.84 66.65C36.84 70.96 40.2 73.46 43.79 73.46C48.13 73.46 52.07 69.79 52.07 63.71C52.08 62.62 51.94 61.54 51.66 60.49C51.12 58.64 49.19 57.58 47.35 58.12C47.15 58.18 46.97 58.25 46.78 58.34L37.75 62.65Z" fill="#1A1717" style="fill:#1A1717;fill:color(display-p3 0.1020 0.0902 0.0902);fill-opacity:1;"/>
<path d="M37.75 62.65C36.26 63.37 35.46 65.03 35.84 66.65C36.84 70.96 40.2 73.46 43.79 73.46C48.13 73.46 52.07 69.79 52.07 63.71C52.08 62.62 51.94 61.54 51.66 60.49C51.12 58.64 49.19 57.58 47.35 58.12C47.15 58.18 46.97 58.25 46.78 58.34L37.75 62.65Z" fill="#49362E" style="fill:#49362E;fill:color(display-p3 0.2863 0.2118 0.1804);fill-opacity:1;"/>
<path d="M47.3801 61.78C46.8301 60.95 45.4401 60.78 43.9701 61.78C42.5001 62.78 42.1201 64.1 42.6701 64.93C43.2301 65.77 44.6101 65.93 46.0801 64.93C47.5501 63.93 47.9301 62.62 47.3801 61.78Z" fill="#555050" style="fill:#555050;fill:color(display-p3 0.3333 0.3125 0.3125);fill-opacity:1;"/>
<path d="M47.3801 61.78C46.8301 60.95 45.4401 60.78 43.9701 61.78C42.5001 62.78 42.1201 64.1 42.6701 64.93C43.2301 65.77 44.6101 65.93 46.0801 64.93C47.5501 63.93 47.9301 62.62 47.3801 61.78Z" fill="#6A564E" style="fill:#6A564E;fill:color(display-p3 0.4167 0.3385 0.3056);fill-opacity:1;"/>
<path d="M89.8402 62.65C91.3402 63.37 92.1402 65.03 91.7602 66.65C90.7102 70.96 87.3902 73.46 83.7602 73.46C79.4202 73.46 75.4702 69.79 75.4702 63.71C75.4702 62.62 75.6002 61.54 75.8802 60.49C76.4202 58.64 78.3602 57.58 80.2102 58.12C80.4002 58.18 80.5902 58.25 80.7702 58.34L89.8402 62.65Z" fill="#49362E" style="fill:#49362E;fill:color(display-p3 0.2863 0.2118 0.1804);fill-opacity:1;"/>
<path d="M89.8402 62.65C91.3402 63.37 92.1402 65.03 91.7602 66.65C90.7102 70.96 87.3902 73.46 83.7602 73.46C79.4202 73.46 75.4702 69.79 75.4702 63.71C75.4702 62.62 75.6002 61.54 75.8802 60.49C76.4202 58.64 78.3602 57.58 80.2102 58.12C80.4002 58.18 80.5902 58.25 80.7702 58.34L89.8402 62.65Z" fill="#1A1717" style="fill:#1A1717;fill:color(display-p3 0.1020 0.0902 0.0902);fill-opacity:1;"/>
<path d="M89.8402 62.65C91.3402 63.37 92.1402 65.03 91.7602 66.65C90.7102 70.96 87.3902 73.46 83.7602 73.46C79.4202 73.46 75.4702 69.79 75.4702 63.71C75.4702 62.62 75.6002 61.54 75.8802 60.49C76.4202 58.64 78.3602 57.58 80.2102 58.12C80.4002 58.18 80.5902 58.25 80.7702 58.34L89.8402 62.65Z" fill="#49362E" style="fill:#49362E;fill:color(display-p3 0.2863 0.2118 0.1804);fill-opacity:1;"/>
<path d="M80.2102 61.78C80.7702 60.95 82.2102 60.78 83.6302 61.78C85.0502 62.78 85.4802 64.1 84.9202 64.93C84.3702 65.77 82.9802 65.93 81.5102 64.93C80.0402 63.93 79.6602 62.62 80.2102 61.78Z" fill="#555050" style="fill:#555050;fill:color(display-p3 0.3333 0.3125 0.3125);fill-opacity:1;"/>
<path d="M80.2102 61.78C80.7702 60.95 82.2102 60.78 83.6302 61.78C85.0502 62.78 85.4802 64.1 84.9202 64.93C84.3702 65.77 82.9802 65.93 81.5102 64.93C80.0402 63.93 79.6602 62.62 80.2102 61.78Z" fill="#6A564E" style="fill:#6A564E;fill:color(display-p3 0.4167 0.3385 0.3056);fill-opacity:1;"/>
<defs>
<radialGradient id="paint0_radial_169_12164" cx="0" cy="0" r="1" gradientUnits="userSpaceOnUse" gradientTransform="translate(63.6001 62.8999) scale(56.9597 56.9597)">
<stop stop-color="#705249" style="stop-color:#705249;stop-color:color(display-p3 0.4392 0.3216 0.2863);stop-opacity:1;"/>
<stop offset="0.53" stop-color="#B38F5A" style="stop-color:#B38F5A;stop-color:color(display-p3 0.7000 0.5612 0.3529);stop-opacity:1;"/>
<stop offset="0.927083" stop-color="#CCC265" style="stop-color:#CCC265;stop-color:color(display-p3 0.8000 0.7596 0.3961);stop-opacity:1;"/>
</radialGradient>
<radialGradient id="paint1_radial_169_12164" cx="0" cy="0" r="1" gradientUnits="userSpaceOnUse" gradientTransform="translate(92.1027 96.2768) scale(14.0976 12.3552)">
<stop stop-color="#ED7770" style="stop-color:#ED7770;stop-color:color(display-p3 0.9294 0.4667 0.4392);stop-opacity:1;"/>
<stop offset="0.08" stop-color="#ED7770" stop-opacity="0.97" style="stop-color:#ED7770;stop-color:color(display-p3 0.9294 0.4667 0.4392);stop-opacity:0.97;"/>
<stop offset="0.21" stop-color="#ED7770" stop-opacity="0.88" style="stop-color:#ED7770;stop-color:color(display-p3 0.9294 0.4667 0.4392);stop-opacity:0.88;"/>
<stop offset="0.35" stop-color="#ED7770" stop-opacity="0.74" style="stop-color:#ED7770;stop-color:color(display-p3 0.9294 0.4667 0.4392);stop-opacity:0.74;"/>
<stop offset="0.52" stop-color="#ED7770" stop-opacity="0.55" style="stop-color:#ED7770;stop-color:color(display-p3 0.9294 0.4667 0.4392);stop-opacity:0.55;"/>
<stop offset="0.71" stop-color="#ED7770" stop-opacity="0.29" style="stop-color:#ED7770;stop-color:color(display-p3 0.9294 0.4667 0.4392);stop-opacity:0.29;"/>
<stop offset="0.9" stop-color="#ED7770" stop-opacity="0" style="stop-color:none;stop-opacity:0;"/>
</radialGradient>
<radialGradient id="paint2_radial_169_12164" cx="0" cy="0" r="1" gradientUnits="userSpaceOnUse" gradientTransform="translate(36.98 98.2774) scale(14.0911 12.3495)">
<stop stop-color="#ED7770" style="stop-color:#ED7770;stop-color:color(display-p3 0.9294 0.4667 0.4392);stop-opacity:1;"/>
<stop offset="0.08" stop-color="#ED7770" stop-opacity="0.97" style="stop-color:#ED7770;stop-color:color(display-p3 0.9294 0.4667 0.4392);stop-opacity:0.97;"/>
<stop offset="0.21" stop-color="#ED7770" stop-opacity="0.88" style="stop-color:#ED7770;stop-color:color(display-p3 0.9294 0.4667 0.4392);stop-opacity:0.88;"/>
<stop offset="0.35" stop-color="#ED7770" stop-opacity="0.74" style="stop-color:#ED7770;stop-color:color(display-p3 0.9294 0.4667 0.4392);stop-opacity:0.74;"/>
<stop offset="0.52" stop-color="#ED7770" stop-opacity="0.55" style="stop-color:#ED7770;stop-color:color(display-p3 0.9294 0.4667 0.4392);stop-opacity:0.55;"/>
<stop offset="0.71" stop-color="#ED7770" stop-opacity="0.29" style="stop-color:#ED7770;stop-color:color(display-p3 0.9294 0.4667 0.4392);stop-opacity:0.29;"/>
<stop offset="0.9" stop-color="#ED7770" stop-opacity="0" style="stop-color:none;stop-opacity:0;"/>
</radialGradient>
</defs>
</svg>
