<svg width="128" height="128" viewBox="0 0 128 128" fill="none" xmlns="http://www.w3.org/2000/svg">
<path d="M64 124C97.1371 124 124 97.1371 124 64C124 30.8629 97.1371 4 64 4C30.8629 4 4 30.8629 4 64C4 97.1371 30.8629 124 64 124Z" fill="#98C0D0" style="fill:#98C0D0;fill:color(display-p3 0.5961 0.7529 0.8157);fill-opacity:1;"/>
<path d="M64.0001 112.14C90.5871 112.14 112.14 90.5869 112.14 63.9999C112.14 37.4129 90.5871 15.8599 64.0001 15.8599C37.4131 15.8599 15.8601 37.4129 15.8601 63.9999C15.8601 90.5869 37.4131 112.14 64.0001 112.14Z" fill="#6596A3" style="fill:#6596A3;fill:color(display-p3 0.3961 0.5882 0.6392);fill-opacity:1;"/>
<path d="M50.2999 15.06C43.8799 16.92 34.8899 19.77 25.2699 31.26C15.7699 42.63 13.8099 55.84 13.1999 64.95C13.1999 64.95 7.70993 71.82 7.44993 70.54C5.37993 60.59 9.55993 38.35 20.4899 26.59C33.2099 12.91 49.7499 8.05998 55.7299 7.14998C56.7599 6.98998 52.2499 14.5 50.2999 15.06Z" fill="#C2E3F0" style="fill:#C2E3F0;fill:color(display-p3 0.7608 0.8902 0.9412);fill-opacity:1;"/>
<path d="M63.9999 109.59C89.1786 109.59 109.59 89.1788 109.59 64.0002C109.59 38.8215 89.1786 18.4102 63.9999 18.4102C38.8213 18.4102 18.4099 38.8215 18.4099 64.0002C18.4099 89.1788 38.8213 109.59 63.9999 109.59Z" fill="white" style="fill:white;fill-opacity:1;"/>
<path d="M64 35V64" stroke="#474C50" style="stroke:#474C50;stroke:color(display-p3 0.2784 0.2980 0.3137);stroke-opacity:1;" stroke-width="4" stroke-miterlimit="10" stroke-linecap="round"/>
<path d="M63.9999 69.0599C66.7945 69.0599 69.0599 66.7945 69.0599 63.9999C69.0599 61.2054 66.7945 58.9399 63.9999 58.9399C61.2054 58.9399 58.9399 61.2054 58.9399 63.9999C58.9399 66.7945 61.2054 69.0599 63.9999 69.0599Z" fill="#474C50" style="fill:#474C50;fill:color(display-p3 0.2784 0.2980 0.3137);fill-opacity:1;"/>
<path d="M74.78 45.54L64.29 64" stroke="#474C50" style="stroke:#474C50;stroke:color(display-p3 0.2784 0.2980 0.3137);stroke-opacity:1;" stroke-width="6" stroke-miterlimit="10" stroke-linecap="round"/>
<path d="M64 100V105" stroke="#6596A3" style="stroke:#6596A3;stroke:color(display-p3 0.3961 0.5882 0.6392);stroke-opacity:1;" stroke-width="5" stroke-miterlimit="10"/>
<path d="M64 23V28" stroke="#6596A3" style="stroke:#6596A3;stroke:color(display-p3 0.3961 0.5882 0.6392);stroke-opacity:1;" stroke-width="5" stroke-miterlimit="10"/>
<path d="M64 100V105" stroke="#6596A3" style="stroke:#6596A3;stroke:color(display-p3 0.3961 0.5882 0.6392);stroke-opacity:1;" stroke-width="5" stroke-miterlimit="10"/>
<path d="M64 23V28" stroke="#6596A3" style="stroke:#6596A3;stroke:color(display-p3 0.3961 0.5882 0.6392);stroke-opacity:1;" stroke-width="5" stroke-miterlimit="10"/>
<path d="M28 64H23" stroke="#6596A3" style="stroke:#6596A3;stroke:color(display-p3 0.3961 0.5882 0.6392);stroke-opacity:1;" stroke-width="5" stroke-miterlimit="10"/>
<path d="M105 64H100" stroke="#6596A3" style="stroke:#6596A3;stroke:color(display-p3 0.3961 0.5882 0.6392);stroke-opacity:1;" stroke-width="5" stroke-miterlimit="10"/>
<path d="M28 64H23" stroke="#6596A3" style="stroke:#6596A3;stroke:color(display-p3 0.3961 0.5882 0.6392);stroke-opacity:1;" stroke-width="5" stroke-miterlimit="10"/>
<path d="M105 64H100" stroke="#6596A3" style="stroke:#6596A3;stroke:color(display-p3 0.3961 0.5882 0.6392);stroke-opacity:1;" stroke-width="5" stroke-miterlimit="10"/>
<path d="M46 95.1802L43.5 99.5102" stroke="#B0BEC5" style="stroke:#B0BEC5;stroke:color(display-p3 0.6902 0.7451 0.7725);stroke-opacity:1;" stroke-width="3" stroke-miterlimit="10"/>
<path d="M84.5 28.4902L82 32.8202" stroke="#B0BEC5" style="stroke:#B0BEC5;stroke:color(display-p3 0.6902 0.7451 0.7725);stroke-opacity:1;" stroke-width="3" stroke-miterlimit="10"/>
<path d="M46 95.1802L43.5 99.5102" stroke="#B0BEC5" style="stroke:#B0BEC5;stroke:color(display-p3 0.6902 0.7451 0.7725);stroke-opacity:1;" stroke-width="3" stroke-miterlimit="10"/>
<path d="M84.5 28.4902L82 32.8202" stroke="#B0BEC5" style="stroke:#B0BEC5;stroke:color(display-p3 0.6902 0.7451 0.7725);stroke-opacity:1;" stroke-width="3" stroke-miterlimit="10"/>
<path d="M82 95.1802L84.5 99.5102" stroke="#B0BEC5" style="stroke:#B0BEC5;stroke:color(display-p3 0.6902 0.7451 0.7725);stroke-opacity:1;" stroke-width="3" stroke-miterlimit="10"/>
<path d="M43.5 28.4902L46 32.8202" stroke="#B0BEC5" style="stroke:#B0BEC5;stroke:color(display-p3 0.6902 0.7451 0.7725);stroke-opacity:1;" stroke-width="3" stroke-miterlimit="10"/>
<path d="M82 95.1802L84.5 99.5102" stroke="#B0BEC5" style="stroke:#B0BEC5;stroke:color(display-p3 0.6902 0.7451 0.7725);stroke-opacity:1;" stroke-width="3" stroke-miterlimit="10"/>
<path d="M43.5 28.4902L46 32.8202" stroke="#B0BEC5" style="stroke:#B0BEC5;stroke:color(display-p3 0.6902 0.7451 0.7725);stroke-opacity:1;" stroke-width="3" stroke-miterlimit="10"/>
<path d="M95.1799 82L99.5099 84.5" stroke="#B0BEC5" style="stroke:#B0BEC5;stroke:color(display-p3 0.6902 0.7451 0.7725);stroke-opacity:1;" stroke-width="3" stroke-miterlimit="10"/>
<path d="M28.49 43.5L32.82 46" stroke="#B0BEC5" style="stroke:#B0BEC5;stroke:color(display-p3 0.6902 0.7451 0.7725);stroke-opacity:1;" stroke-width="3" stroke-miterlimit="10"/>
<path d="M95.1799 82L99.5099 84.5" stroke="#B0BEC5" style="stroke:#B0BEC5;stroke:color(display-p3 0.6902 0.7451 0.7725);stroke-opacity:1;" stroke-width="3" stroke-miterlimit="10"/>
<path d="M28.49 43.5L32.82 46" stroke="#B0BEC5" style="stroke:#B0BEC5;stroke:color(display-p3 0.6902 0.7451 0.7725);stroke-opacity:1;" stroke-width="3" stroke-miterlimit="10"/>
<path d="M32.82 82L28.49 84.5" stroke="#B0BEC5" style="stroke:#B0BEC5;stroke:color(display-p3 0.6902 0.7451 0.7725);stroke-opacity:1;" stroke-width="3" stroke-miterlimit="10"/>
<path d="M99.5099 43.5L95.1799 46" stroke="#B0BEC5" style="stroke:#B0BEC5;stroke:color(display-p3 0.6902 0.7451 0.7725);stroke-opacity:1;" stroke-width="3" stroke-miterlimit="10"/>
<path d="M32.82 82L28.49 84.5" stroke="#B0BEC5" style="stroke:#B0BEC5;stroke:color(display-p3 0.6902 0.7451 0.7725);stroke-opacity:1;" stroke-width="3" stroke-miterlimit="10"/>
<path d="M99.5099 43.5L95.1799 46" stroke="#B0BEC5" style="stroke:#B0BEC5;stroke:color(display-p3 0.6902 0.7451 0.7725);stroke-opacity:1;" stroke-width="3" stroke-miterlimit="10"/>
</svg>
