<svg width="129" height="128" viewBox="0 0 129 128" fill="none" xmlns="http://www.w3.org/2000/svg">
<g clip-path="url(#clip0_2199_2399)">
<path d="M29.8123 109L4.5 19H21.9733L38.1329 85.1377H38.9649L56.2193 19H72.1161L89.4143 85.1816H90.2026L106.362 19H123.835L98.5232 109H82.495L64.54 45.8506H63.8393L45.8404 109H29.8123Z" fill="#DFE6EB" style="fill:#DFE6EB;fill:color(display-p3 0.8745 0.9020 0.9216);fill-opacity:1;"/>
<path d="M29.8123 109L4.5 19H21.9733L38.1329 85.1377H38.9649L56.2193 19H72.1161L89.4143 85.1816H90.2026L106.362 19H123.835L98.5232 109H82.495L64.54 45.8506H63.8393L45.8404 109H29.8123Z" fill="#8CAFBF" style="fill:#8CAFBF;fill:color(display-p3 0.5490 0.6863 0.7490);fill-opacity:1;"/>
<path fill-rule="evenodd" clip-rule="evenodd" d="M27.5398 112L0.540039 16H24.3288L38.6308 74.5352L53.9017 16H74.4329L89.723 74.4988L104.007 16H127.796L100.796 112H80.2293L64.1867 55.577L48.105 112H27.5398ZM63.8394 45.8506H64.5401L82.4952 109H98.5233L123.836 19H106.362L90.2027 85.1816H89.4144L72.1163 19H56.2195L38.9651 85.1377H38.133L21.9735 19H4.50017L29.8124 109H45.8406L63.8394 45.8506Z" fill="#427687" style="fill:#427687;fill:color(display-p3 0.2588 0.4627 0.5294);fill-opacity:1;"/>
</g>
<defs>
<clipPath id="clip0_2199_2399">
<rect x="0.5" width="128" height="128" fill="white" style="fill:white;fill-opacity:1;"/>
</clipPath>
</defs>
</svg>
