<svg width="128" height="128" viewBox="0 0 128 128" fill="none" xmlns="http://www.w3.org/2000/svg">
<path d="M64 4C30.86 4 4 30.86 4 64C4 97.14 30.86 124 64 124C97.14 124 124 97.14 124 64C124 30.86 97.14 4 64 4ZM114 64C114.04 75.53 110.04 86.71 102.7 95.6L32.4 25.3C41.29 17.96 52.47 13.96 64 14C91.61 14 114 36.39 114 64ZM14 64C13.96 52.47 17.96 41.29 25.3 32.4L95.6 102.7C86.71 110.04 75.53 114.04 64 114C36.39 114 14 91.61 14 64Z" fill="#CC3333" style="fill:#CC3333;fill:color(display-p3 0.8000 0.2000 0.2000);fill-opacity:1;"/>
<path d="M60.1 119.2C91.0832 119.2 116.2 94.0832 116.2 63.1C116.2 32.1168 91.0832 7 60.1 7C29.1168 7 4 32.1168 4 63.1C4 94.0832 29.1168 119.2 60.1 119.2Z" fill="#F44336" style="fill:#F44336;fill:color(display-p3 0.9569 0.2627 0.2118);fill-opacity:1;"/>
<path d="M95.5998 102.7C86.7098 110.04 75.5298 114.04 63.9998 114C36.3898 114 13.9998 91.6098 13.9998 63.9998C13.9598 52.4698 17.9598 41.2898 25.2998 32.3998L32.3998 25.2998C41.2898 17.9598 52.4698 13.9598 63.9998 13.9998C91.6098 13.9998 114 36.3898 114 63.9998C114.04 75.5298 110.04 86.7098 102.7 95.5998" fill="white" style="fill:white;fill-opacity:1;"/>
<path d="M95.5998 102.7C86.7098 110.04 75.5298 114.04 63.9998 114C36.3898 114 13.9998 91.6098 13.9998 63.9998C13.9598 52.4698 17.9598 41.2898 25.2998 32.3998L32.3998 25.2998C41.2898 17.9598 52.4698 13.9598 63.9998 13.9998C91.6098 13.9998 114 36.3898 114 63.9998C114.04 75.5298 110.04 86.7098 102.7 95.5998" fill="#231F20" style="fill:#231F20;fill:color(display-p3 0.1373 0.1216 0.1255);fill-opacity:1;"/>
<path d="M96.3999 103.2C75.9099 119.94 45.7399 116.9 28.9999 96.4102C14.5899 78.7802 14.5899 53.4402 28.9999 35.8002L35.7999 29.0002C44.3299 21.9702 55.0499 18.1502 66.0999 18.2002C92.5499 18.2002 114 39.6402 114 66.1002C114 77.1402 110.18 87.8502 103.2 96.4002" fill="#414042" style="fill:#414042;fill:color(display-p3 0.2549 0.2510 0.2588);fill-opacity:1;"/>
<path fill-rule="evenodd" clip-rule="evenodd" d="M49.0933 102.223H78.907C81.9011 102.223 84.3856 99.8019 84.3856 96.8078V82.0136H80.3084V95.3197C80.3084 95.9011 79.4918 98.1456 77.2812 98.1456H49.9607C48.7066 98.1456 47.6917 97.0577 47.6917 95.7136V32.3088C47.6917 30.9708 48.7066 29.883 49.9548 29.883H78.0395C79.2935 29.883 80.3084 30.9708 80.3084 32.315V82.0136H84.3856V31.2559C84.3856 28.1981 81.9011 25.7773 78.907 25.7773H49.0933C46.0992 25.7773 43.6147 28.2618 43.6147 31.2559V96.7441C43.6147 99.8019 46.0992 102.223 49.0933 102.223ZM57.9163 32.7848H70.1475C70.5298 32.7848 70.8483 32.4026 70.8483 32.0204C70.8483 31.6382 70.5298 31.2559 70.0838 31.2559H57.9163C57.5341 31.2559 57.1518 31.6382 57.1518 32.0204C57.1518 32.4026 57.4704 32.7848 57.9163 32.7848Z" fill="#FAFAFA" style="fill:#FAFAFA;fill:color(display-p3 0.9804 0.9804 0.9804);fill-opacity:1;"/>
<path opacity="0.8" d="M23.3999 35.5999L94.9999 102.1L96.9999 100.2L30.5999 33.3999" fill="#231F20" style="fill:#231F20;fill:color(display-p3 0.1373 0.1216 0.1255);fill-opacity:1;"/>
<path d="M103.9 96.7999L25.3002 18.8999L18.2002 25.9999L96.8002 103.9" fill="#F44336" style="fill:#F44336;fill:color(display-p3 0.9569 0.2627 0.2118);fill-opacity:1;"/>
<path d="M44.9999 10.9001C46.6999 10.5001 49.1999 9.30009 50.8999 9.80009C51.9899 10.1001 52.6499 11.2001 52.3999 12.3001C52.0299 13.1101 51.2799 13.6701 50.3999 13.8001C46.4999 14.7701 42.7199 16.1501 39.0999 17.9001C31.9199 21.6801 25.7199 27.0901 20.9999 33.7001C19.0999 36.4001 17.5999 39.2001 15.1999 41.5001C14.9899 41.7301 14.7099 41.8701 14.3999 41.9001C14.2299 41.9301 14.0499 41.8901 13.8999 41.8001C12.6999 41.3001 12.4999 40.7001 12.6999 39.5001C12.8799 38.4901 13.2199 37.5101 13.6999 36.6001C14.7099 34.8401 15.8099 33.1401 16.9999 31.5001C18.8899 28.5901 21.1099 25.9101 23.5999 23.5001C30.3999 17.2001 39.1999 12.4001 44.9999 10.9001Z" fill="#FF8A80" style="fill:#FF8A80;fill:color(display-p3 1.0000 0.5412 0.5020);fill-opacity:1;"/>
<path d="M32.3999 25.2998L30.3999 27.2998L101.5 98.3998L103.3 96.1998L32.3999 25.2998Z" fill="#CC3333" style="fill:#CC3333;fill:color(display-p3 0.8000 0.2000 0.2000);fill-opacity:1;"/>
</svg>
