<svg width="129" height="129" viewBox="0 0 129 129" fill="none" xmlns="http://www.w3.org/2000/svg">
<path d="M79.3938 120.5C79.3938 122.71 72.5438 124.5 64.0938 124.5C55.6438 124.5 48.7938 122.71 48.7938 120.5C48.7938 118.29 55.6438 116.49 64.0938 116.49C72.5438 116.49 79.3938 118.28 79.3938 120.5Z" fill="url(#paint0_radial_2634_1315)" style=""/>
<path d="M64.0938 36.35H60.0538V40.63C60.0538 42.57 61.7038 44.14 63.7238 44.14H64.4538C66.4838 44.14 68.1338 42.57 68.1338 40.63V36.35H64.0938Z" fill="#EDC391" style="fill:#EDC391;fill:color(display-p3 0.9294 0.7647 0.5686);fill-opacity:1;"/>
<path d="M48.7938 70.62C49.0238 71.83 49.5338 72.96 50.2738 73.94C51.5338 75.61 53.8638 75.48 54.7238 75.5C56.3138 75.54 55.6238 71.43 55.6038 71.3C55.6038 71.3 55.2638 64.85 51.0238 64.85C49.2938 64.89 48.0138 66.47 48.3338 68.17L48.7938 70.62Z" fill="url(#paint1_linear_2634_1315)" style=""/>
<path d="M79.3938 70.62C79.1638 71.83 78.6538 72.96 77.9138 73.94C76.6538 75.61 74.3238 75.48 73.4638 75.5C71.8738 75.54 72.5638 71.43 72.5838 71.3C72.5838 71.3 72.9238 64.85 77.1638 64.85C78.8938 64.89 80.1738 66.47 79.8538 68.17L79.3938 70.62Z" fill="url(#paint2_linear_2634_1315)" style=""/>
<path d="M64.0238 108.98C64.0138 110.52 63.9538 112.62 61.6838 112.62C59.0238 112.62 57.6738 106.76 57.4938 105.31C57.3138 103.87 57.3138 101.17 57.3138 101.17L64.0838 101.16L64.0238 108.98Z" fill="url(#paint3_linear_2634_1315)" style=""/>
<path d="M63.1338 105.75C63.1238 106.84 62.3438 108.32 61.4838 108.32C59.6138 108.32 58.6538 104.19 58.5338 103.18C58.4138 102.17 58.4038 100.98 58.4038 100.98L63.1738 100.97L63.1338 105.75Z" fill="url(#paint4_linear_2634_1315)" style=""/>
<path d="M64.0138 108.98C64.0238 110.52 64.2038 112.62 66.3538 112.62C69.0138 112.62 70.3638 106.76 70.5438 105.31C70.7238 103.86 70.7238 101.17 70.7238 101.17L63.9538 101.16L64.0138 108.98Z" fill="url(#paint5_linear_2634_1315)" style=""/>
<path d="M64.9038 105.75C64.9138 106.84 65.6938 108.32 66.5538 108.32C68.4238 108.32 69.3738 104.19 69.5038 103.18C69.6338 102.17 69.6338 100.98 69.6338 100.98L64.8638 100.97L64.9038 105.75Z" fill="url(#paint6_linear_2634_1315)" style=""/>
<path d="M69.7538 102.46H58.3838C57.3438 102.46 56.4738 101.67 56.3738 100.63L53.3138 68.22H74.8338L71.7638 100.63C71.6738 101.67 70.8038 102.46 69.7538 102.46Z" fill="url(#paint7_linear_2634_1315)" style=""/>
<path opacity="0.5" d="M63.2538 72.57C62.8038 72.84 62.5338 73.34 62.5438 73.86L63.4938 101.44H64.6838L65.4638 73.85C65.4738 73.32 65.2038 72.83 64.7538 72.56H64.7438C64.2938 72.3 63.7138 72.3 63.2538 72.57Z" fill="url(#paint8_linear_2634_1315)" style=""/>
<path d="M73.5038 69.36H79.0638C80.1138 69.36 80.9838 68.56 81.0738 67.52L81.3338 64.64H73.5038V69.36Z" fill="#E5E5E5" style="fill:#E5E5E5;fill:color(display-p3 0.8980 0.8980 0.8980);fill-opacity:1;"/>
<path d="M54.9738 69.36H49.4138C48.3638 69.36 47.4938 68.56 47.4038 67.52L47.1438 64.64H54.9738V69.36Z" fill="#E5E5E5" style="fill:#E5E5E5;fill:color(display-p3 0.8980 0.8980 0.8980);fill-opacity:1;"/>
<path d="M79.5938 38.3C79.5938 38.3 73.6438 36.56 67.8438 35.97L64.1538 40.91L60.3838 36.02C54.5938 36.65 48.5838 38.31 48.5838 38.31C45.8538 39.05 44.7638 41.68 45.0938 45.73L46.9638 66H53.0838L53.7838 73.29H74.4138L75.1138 66H81.2338L83.0938 45.72C83.4138 41.67 82.3338 39.04 79.5938 38.3Z" fill="url(#paint9_linear_2634_1315)" style=""/>
<path d="M68.7138 50.98L64.1238 57.05L60.0138 50.98V41.98H68.7138V50.98Z" fill="#E5E5E5" style="fill:#E5E5E5;fill:color(display-p3 0.8980 0.8980 0.8980);fill-opacity:1;"/>
<path d="M64.1938 57.5999L61.8538 53.7099L63.1038 44.2999H65.2938L66.5438 53.6999L64.1938 57.5999Z" fill="#D32F2F" style="fill:#D32F2F;fill:color(display-p3 0.8275 0.1843 0.1843);fill-opacity:1;"/>
<path d="M65.2938 44.38H63.1038L62.1338 42.17L62.5438 40.89H65.8438L66.2538 42.17L65.2938 44.38Z" fill="#D32F2F" style="fill:#D32F2F;fill:color(display-p3 0.8275 0.1843 0.1843);fill-opacity:1;"/>
<path d="M60.3938 36.01L64.1638 40.9L60.4338 44.15L57.9438 36.33L60.3938 36.01Z" fill="white" style="fill:white;fill-opacity:1;"/>
<path d="M67.8138 35.96L64.1638 40.9L67.8338 44.12L70.3938 36.29C69.4738 36.13 67.8138 35.96 67.8138 35.96Z" fill="white" style="fill:white;fill-opacity:1;"/>
<path d="M74.4838 51.42H69.3338V50.79L71.9138 48.77L74.4838 50.79V51.42Z" fill="#D32F2F" style="fill:#D32F2F;fill:color(display-p3 0.8275 0.1843 0.1843);fill-opacity:1;"/>
<path d="M52.8338 37.35L54.8438 41L51.4438 41.44L64.0938 59.59L64.0838 55.59L57.8738 36.13L52.8338 37.35Z" fill="url(#paint10_linear_2634_1315)" style=""/>
<path d="M75.4538 37.35L73.4538 41L76.8538 41.44L64.0838 59.62V55.62L70.4138 36.13L75.4538 37.35Z" fill="url(#paint11_linear_2634_1315)" style=""/>
<path opacity="0.5" d="M51.7638 48.0799L52.7738 65.0199H53.9738L53.6638 47.8799C53.6438 47.5499 53.3038 47.0499 52.6038 47.1199C51.9038 47.1799 51.7138 47.7499 51.7638 48.0799Z" fill="url(#paint12_linear_2634_1315)" style=""/>
<path opacity="0.5" d="M76.4738 48.0799L75.4338 64.9699L74.3338 65.0099L74.5738 47.8799C74.5938 47.5499 74.9338 47.0499 75.6338 47.1199C76.3338 47.1799 76.5238 47.7499 76.4738 48.0799Z" fill="url(#paint13_linear_2634_1315)" style=""/>
<path d="M64.3238 65.76C65.4394 65.76 66.3438 64.8556 66.3438 63.74C66.3438 62.6244 65.4394 61.72 64.3238 61.72C63.2082 61.72 62.3038 62.6244 62.3038 63.74C62.3038 64.8556 63.2082 65.76 64.3238 65.76Z" fill="#212121" style="fill:#212121;fill:color(display-p3 0.1294 0.1294 0.1294);fill-opacity:1;"/>
<path d="M73.7738 21.8H71.1638H57.0238H54.4138C52.3238 21.8 50.6238 23.62 50.6238 25.84C50.6238 28.0601 52.3338 29.88 54.4138 29.88H57.0238H71.1638H73.7738C75.8638 29.88 77.5638 28.0601 77.5638 25.84C77.5638 23.62 75.8638 21.8 73.7738 21.8Z" fill="#EDC391" style="fill:#EDC391;fill:color(display-p3 0.9294 0.7647 0.5686);fill-opacity:1;"/>
<path d="M64.0938 7.5C57.9238 7.5 52.2138 14.09 52.2138 23.58C52.2138 33.02 58.0938 37.68 64.0938 37.68C70.0938 37.68 75.9738 33.01 75.9738 23.58C75.9738 14.09 70.2638 7.5 64.0938 7.5Z" fill="#F9DDBD" style="fill:#F9DDBD;fill:color(display-p3 0.9765 0.8667 0.7412);fill-opacity:1;"/>
<path d="M55.6238 21.9C56.3238 20.84 57.8238 20.48 59.0038 20.72C59.6338 20.84 60.2738 21.14 60.7238 21.62C61.1038 22.03 61.2938 22.78 60.4738 22.79C60.1738 22.8 59.8338 22.57 59.5538 22.48C58.9138 22.29 58.2238 22.24 57.5638 22.35C57.2438 22.4 56.9238 22.51 56.6138 22.61C56.3838 22.69 56.2338 22.84 55.9738 22.78C55.6138 22.69 55.3938 22.25 55.6238 21.9Z" fill="#454140" style="fill:#454140;fill:color(display-p3 0.2706 0.2549 0.2510);fill-opacity:1;"/>
<path d="M71.9438 22.7501C71.0738 22.2901 69.9938 22.1701 69.0438 22.3801C68.5838 22.4801 66.5838 23.3101 67.3038 21.8901C67.8838 20.7501 69.7538 20.4801 70.8238 20.7401C71.3938 20.8801 72.0338 21.1701 72.4238 21.6301C72.8038 22.0501 72.7838 23.0901 71.9438 22.7501Z" fill="#454140" style="fill:#454140;fill:color(display-p3 0.2706 0.2549 0.2510);fill-opacity:1;"/>
<path d="M67.0738 31.65C65.9438 32.32 62.2438 32.32 61.1138 31.65C60.4638 31.26 59.8038 31.85 60.0738 32.44C60.3338 33.02 62.3538 34.36 64.1038 34.36C65.8538 34.36 67.8438 33.02 68.1038 32.44C68.3738 31.86 67.7238 31.27 67.0738 31.65Z" fill="#444444" style="fill:#444444;fill:color(display-p3 0.2667 0.2667 0.2667);fill-opacity:1;"/>
<path d="M65.4638 28.31C65.4238 28.3 65.3838 28.29 65.3538 28.28H62.8438C62.8038 28.28 62.7638 28.29 62.7338 28.31C62.5038 28.4 62.3838 28.64 62.4938 28.89C62.6038 29.14 63.1038 29.84 64.1038 29.84C65.1138 29.84 65.6038 29.14 65.7138 28.89C65.8138 28.64 65.6838 28.41 65.4638 28.31Z" fill="#DBA689" style="fill:#DBA689;fill:color(display-p3 0.8588 0.6510 0.5373);fill-opacity:1;"/>
<path d="M75.4538 27.66C75.4338 27.49 76.7038 25.37 76.9238 23.22C77.0038 22.47 77.5338 19.96 76.9938 18.38C75.3738 11.9 71.0338 8 64.0438 8C56.7038 8 52.1938 11.9 50.9538 18.88C50.9538 20.17 51.5038 22.15 51.5038 22.15C51.2838 26 52.4938 27.86 52.4938 27.86C52.4938 27.86 54.0038 21.25 53.8638 20.24C53.8638 20.24 56.6438 19.69 59.7938 17.88C61.9238 16.66 63.3838 15.23 65.7738 14.69C69.4138 13.87 70.2338 16.51 70.2338 16.51C70.2338 16.51 73.6038 15.86 74.6238 20.55C75.0438 22.48 75.2238 25.7 75.4538 27.66Z" fill="#312D2D" style="fill:#312D2D;fill:color(display-p3 0.1922 0.1765 0.1765);fill-opacity:1;"/>
<path d="M77.1838 15.38C77.1838 15.38 75.9438 8.04 74.5038 6.39C73.0738 4.76 67.4638 4.51 64.0938 4.5C60.7238 4.51 55.1138 4.76 53.6838 6.39C52.2338 8.04 51.0038 15.38 51.0038 15.38C51.0038 15.38 45.5038 17.01 47.8938 18.41C49.0638 19.09 54.1738 19.52 64.0938 19.53C74.0138 19.52 79.1238 19.1 80.2938 18.41C82.6938 17.01 77.1838 15.38 77.1838 15.38Z" fill="url(#paint14_linear_2634_1315)" style=""/>
<path d="M75.7438 22.62L75.4838 22.56C73.8238 22.17 72.1338 21.98 70.4438 21.98C69.8138 21.98 68.7738 22.13 67.7238 22.31C65.3438 22.73 62.9038 22.73 60.5338 22.31C59.4638 22.12 58.4138 21.97 57.7738 21.97C56.0738 21.97 54.3838 22.17 52.7238 22.55L52.4638 22.61C52.2538 22.66 52.0838 22.84 52.0838 23.04V24.12C52.0838 24.39 52.3538 24.6 52.6438 24.56L53.0838 27.33C53.3738 29.22 55.0238 30.91 57.8338 30.91C60.7438 30.91 62.1938 28.24 62.8838 26.01C63.0538 25.48 63.5438 25.11 64.1038 25.11C64.1138 25.11 64.1138 25.11 64.1238 25.11C64.6838 25.11 65.1738 25.48 65.3438 26.01C66.0438 28.24 67.4838 30.91 70.3938 30.91C73.2038 30.91 74.8538 29.22 75.1438 27.33L75.5638 24.56C75.8438 24.59 76.1038 24.39 76.1038 24.12V23.04C76.1138 22.85 75.9638 22.67 75.7438 22.62Z" fill="url(#paint15_linear_2634_1315)" style=""/>
<defs>
<radialGradient id="paint0_radial_2634_1315" cx="0" cy="0" r="1" gradientUnits="userSpaceOnUse" gradientTransform="translate(64.0933 120.494) scale(15.2017 4.63652)">
<stop offset="0.1396" stop-color="#504F4F" stop-opacity="0.8" style="stop-color:#504F4F;stop-color:color(display-p3 0.3137 0.3098 0.3098);stop-opacity:0.8;"/>
<stop offset="0.8722" stop-color="#616161" stop-opacity="0" style="stop-color:none;stop-opacity:0;"/>
</radialGradient>
<linearGradient id="paint1_linear_2634_1315" x1="52.0277" y1="69.8961" x2="52.0277" y2="80.5433" gradientUnits="userSpaceOnUse">
<stop stop-color="#FFD29C" style="stop-color:#FFD29C;stop-color:color(display-p3 1.0000 0.8235 0.6118);stop-opacity:1;"/>
<stop offset="0.5" stop-color="#F9DDBD" style="stop-color:#F9DDBD;stop-color:color(display-p3 0.9765 0.8667 0.7412);stop-opacity:1;"/>
</linearGradient>
<linearGradient id="paint2_linear_2634_1315" x1="76.1599" y1="69.5527" x2="76.1599" y2="80.1999" gradientUnits="userSpaceOnUse">
<stop stop-color="#FFD29C" style="stop-color:#FFD29C;stop-color:color(display-p3 1.0000 0.8235 0.6118);stop-opacity:1;"/>
<stop offset="0.5" stop-color="#F9DDBD" style="stop-color:#F9DDBD;stop-color:color(display-p3 0.9765 0.8667 0.7412);stop-opacity:1;"/>
</linearGradient>
<linearGradient id="paint3_linear_2634_1315" x1="60.6918" y1="100.928" x2="60.6918" y2="112.294" gradientUnits="userSpaceOnUse">
<stop stop-color="#212121" style="stop-color:#212121;stop-color:color(display-p3 0.1294 0.1294 0.1294);stop-opacity:1;"/>
<stop offset="0.7876" stop-color="#616161" style="stop-color:#616161;stop-color:color(display-p3 0.3804 0.3804 0.3804);stop-opacity:1;"/>
</linearGradient>
<linearGradient id="paint4_linear_2634_1315" x1="60.7858" y1="101.172" x2="60.7858" y2="108.024" gradientUnits="userSpaceOnUse">
<stop offset="0.1222" stop-color="#BDBDBD" style="stop-color:#BDBDBD;stop-color:color(display-p3 0.7412 0.7412 0.7412);stop-opacity:1;"/>
<stop offset="0.7213" stop-color="#EEEEEE" style="stop-color:#EEEEEE;stop-color:color(display-p3 0.9333 0.9333 0.9333);stop-opacity:1;"/>
</linearGradient>
<linearGradient id="paint5_linear_2634_1315" x1="67.3398" y1="100.928" x2="67.3398" y2="112.294" gradientUnits="userSpaceOnUse">
<stop stop-color="#212121" style="stop-color:#212121;stop-color:color(display-p3 0.1294 0.1294 0.1294);stop-opacity:1;"/>
<stop offset="0.7876" stop-color="#616161" style="stop-color:#616161;stop-color:color(display-p3 0.3804 0.3804 0.3804);stop-opacity:1;"/>
</linearGradient>
<linearGradient id="paint6_linear_2634_1315" x1="67.2468" y1="101.172" x2="67.2468" y2="108.024" gradientUnits="userSpaceOnUse">
<stop offset="0.1222" stop-color="#BDBDBD" style="stop-color:#BDBDBD;stop-color:color(display-p3 0.7412 0.7412 0.7412);stop-opacity:1;"/>
<stop offset="0.7213" stop-color="#EEEEEE" style="stop-color:#EEEEEE;stop-color:color(display-p3 0.9333 0.9333 0.9333);stop-opacity:1;"/>
</linearGradient>
<linearGradient id="paint7_linear_2634_1315" x1="64.0773" y1="65.1353" x2="64.0773" y2="99.1392" gradientUnits="userSpaceOnUse">
<stop stop-color="#212121" style="stop-color:#212121;stop-color:color(display-p3 0.1294 0.1294 0.1294);stop-opacity:1;"/>
<stop offset="0.8778" stop-color="#616161" style="stop-color:#616161;stop-color:color(display-p3 0.3804 0.3804 0.3804);stop-opacity:1;"/>
</linearGradient>
<linearGradient id="paint8_linear_2634_1315" x1="64.0067" y1="101.454" x2="64.0067" y2="72.365" gradientUnits="userSpaceOnUse">
<stop stop-color="#616161" stop-opacity="0.2" style="stop-color:#616161;stop-color:color(display-p3 0.3804 0.3804 0.3804);stop-opacity:0.2;"/>
<stop offset="0.7537" stop-color="#212121" style="stop-color:#212121;stop-color:color(display-p3 0.1294 0.1294 0.1294);stop-opacity:1;"/>
</linearGradient>
<linearGradient id="paint9_linear_2634_1315" x1="64.0936" y1="39.9267" x2="64.0936" y2="77.8369" gradientUnits="userSpaceOnUse">
<stop offset="0.3285" stop-color="#5F5F5F" style="stop-color:#5F5F5F;stop-color:color(display-p3 0.3725 0.3725 0.3725);stop-opacity:1;"/>
<stop offset="1" stop-color="#212121" style="stop-color:#212121;stop-color:color(display-p3 0.1294 0.1294 0.1294);stop-opacity:1;"/>
</linearGradient>
<linearGradient id="paint10_linear_2634_1315" x1="57.7688" y1="29.6041" x2="57.7688" y2="55.9703" gradientUnits="userSpaceOnUse">
<stop offset="0.1709" stop-color="#616161" style="stop-color:#616161;stop-color:color(display-p3 0.3804 0.3804 0.3804);stop-opacity:1;"/>
<stop offset="0.8364" stop-color="#212121" style="stop-color:#212121;stop-color:color(display-p3 0.1294 0.1294 0.1294);stop-opacity:1;"/>
</linearGradient>
<linearGradient id="paint11_linear_2634_1315" x1="70.4653" y1="29.5969" x2="70.4653" y2="55.9923" gradientUnits="userSpaceOnUse">
<stop offset="0.1709" stop-color="#616161" style="stop-color:#616161;stop-color:color(display-p3 0.3804 0.3804 0.3804);stop-opacity:1;"/>
<stop offset="0.8364" stop-color="#212121" style="stop-color:#212121;stop-color:color(display-p3 0.1294 0.1294 0.1294);stop-opacity:1;"/>
</linearGradient>
<linearGradient id="paint12_linear_2634_1315" x1="52.8648" y1="65.0189" x2="52.8648" y2="47.1053" gradientUnits="userSpaceOnUse">
<stop stop-color="#616161" stop-opacity="0.2" style="stop-color:#616161;stop-color:color(display-p3 0.3804 0.3804 0.3804);stop-opacity:0.2;"/>
<stop offset="0.7537" stop-color="#212121" style="stop-color:#212121;stop-color:color(display-p3 0.1294 0.1294 0.1294);stop-opacity:1;"/>
</linearGradient>
<linearGradient id="paint13_linear_2634_1315" x1="75.4087" y1="65.0069" x2="75.4087" y2="47.1063" gradientUnits="userSpaceOnUse">
<stop stop-color="#616161" stop-opacity="0.2" style="stop-color:#616161;stop-color:color(display-p3 0.3804 0.3804 0.3804);stop-opacity:0.2;"/>
<stop offset="0.7537" stop-color="#212121" style="stop-color:#212121;stop-color:color(display-p3 0.1294 0.1294 0.1294);stop-opacity:1;"/>
</linearGradient>
<linearGradient id="paint14_linear_2634_1315" x1="64.0941" y1="3.1618" x2="64.0941" y2="22.4204" gradientUnits="userSpaceOnUse">
<stop offset="0.4429" stop-color="#5F5F5F" style="stop-color:#5F5F5F;stop-color:color(display-p3 0.3725 0.3725 0.3725);stop-opacity:1;"/>
<stop offset="1" stop-color="#212121" style="stop-color:#212121;stop-color:color(display-p3 0.1294 0.1294 0.1294);stop-opacity:1;"/>
</linearGradient>
<linearGradient id="paint15_linear_2634_1315" x1="64.0958" y1="21.7643" x2="64.0958" y2="30.7857" gradientUnits="userSpaceOnUse">
<stop offset="0.005" stop-color="#616161" style="stop-color:#616161;stop-color:color(display-p3 0.3804 0.3804 0.3804);stop-opacity:1;"/>
<stop offset="0.4" stop-color="#212121" style="stop-color:#212121;stop-color:color(display-p3 0.1294 0.1294 0.1294);stop-opacity:1;"/>
</linearGradient>
</defs>
</svg>
