<svg width="128" height="128" viewBox="0 0 128 128" fill="none" xmlns="http://www.w3.org/2000/svg">
<path d="M21.2399 54.8402C20.2099 54.0902 18.7099 52.5902 19.5499 51.5602C20.3899 50.5302 22.6499 51.9402 23.7699 52.7802C24.8999 53.6202 26.8699 55.2202 26.8699 55.2202L35.4099 54.1902C35.4099 54.1902 28.3699 48.0902 27.0599 46.9602C25.7499 45.8302 22.9299 43.5802 24.1499 42.2702C25.3699 40.9602 27.6199 43.1102 28.8399 44.2402C30.0599 45.3702 38.2299 51.5602 38.2299 51.5602C38.2299 51.5602 36.4499 45.6502 35.8799 43.8602C35.3199 42.0802 33.7199 38.5102 35.4099 37.8502C37.0999 37.1902 38.1299 40.7602 38.9799 42.7302C39.8199 44.7002 44.7999 56.1502 44.7999 56.1502C44.7999 56.1502 46.6799 58.2602 48.4599 57.2502C50.2399 56.2402 59.6799 46.0102 59.6799 46.0102L59.5499 11.2802C59.5499 11.2802 61.2199 10.6202 63.5699 10.5302C65.9199 10.4402 67.9799 11.2802 67.9799 11.2802L68.3599 46.1902C68.3599 46.1902 77.3699 56.8902 79.3399 57.2602C81.3099 57.6302 82.9099 58.0102 83.8399 57.2602C84.7799 56.5102 91.0699 46.1902 91.6299 44.4002C92.1899 42.6202 90.3199 37.3602 91.6299 36.6102C92.9399 35.8602 93.7899 38.0202 94.2599 39.6102C94.7299 41.2102 95.2899 42.8902 95.2899 42.8902C95.2899 42.8902 97.3499 42.4202 98.5699 42.0502C99.7899 41.6702 101.39 41.6702 101.57 42.6102C101.76 43.5502 98.6599 45.1402 97.2499 46.0802C95.8399 47.0202 93.5899 47.7702 93.9699 49.2702C94.3499 50.7702 97.3499 50.3002 99.4099 50.4002C101.47 50.4902 102.79 50.7802 102.79 51.9002C102.79 53.0302 99.5999 53.5602 97.0599 53.6702C94.5299 53.7802 91.1499 53.6702 91.1499 53.6702C91.1499 53.6702 89.2699 56.8002 89.2699 57.6802C89.2699 58.5602 94.5299 59.2202 97.6199 59.7802C100.72 60.3402 107.76 60.7802 107.66 62.3902C107.57 64.0002 105.16 63.8202 103.53 63.9602C101.9 64.1002 97.8399 63.0702 97.8999 63.9602C97.9599 64.8502 101.65 68.3202 100.15 69.2602C98.6499 70.2002 96.4899 67.0102 95.0799 65.6002C93.6699 64.1902 92.7299 63.3502 92.7299 63.3502C92.7299 63.3502 80.5599 63.4902 80.4599 64.0002C80.3699 64.5102 88.1599 74.6502 89.5599 75.1202C90.9699 75.5902 97.8199 76.8102 100.26 77.1802C102.7 77.5602 105.14 78.3102 104.95 79.4802C104.76 80.6502 101.85 80.5602 99.8799 80.5602C97.9099 80.5602 94.5299 80.5602 94.5299 80.5602C94.5299 80.5602 101.01 86.3002 102.41 87.9302C103.81 89.5602 109.45 94.1602 107.67 95.4802C105.89 96.7902 98.4299 89.3002 96.6699 87.9302C94.9099 86.5602 90.6799 83.3702 90.3099 83.7402C89.9399 84.1102 92.9399 89.0902 93.5899 90.3102C94.2399 91.5302 96.9999 95.4702 94.9699 96.3602C93.3899 97.0502 88.9999 89.0002 88.4299 89.0002C87.8699 89.0002 87.5899 97.2602 86.1799 96.8802C84.7699 96.5002 84.6799 93.6002 84.4899 88.5302C84.2999 83.4602 85.3299 80.6502 84.2099 79.4702C83.0799 78.3002 78.4799 70.3202 76.6999 68.9102C74.9199 67.5002 63.9999 57.2802 63.9999 57.2802C63.9999 57.2802 52.6799 67.4202 50.3399 69.3002C47.9899 71.1802 43.4899 74.8402 43.0199 75.7802C42.5499 76.7202 41.8899 79.8202 41.9899 80.9402C42.0799 82.0702 45.0899 89.1102 45.6499 90.2302C46.2099 91.3602 48.0899 95.4902 46.5899 95.9602C45.0899 96.4302 43.2099 92.3902 42.4599 91.1702C41.7099 89.9502 39.8299 86.7602 39.8299 86.7602C39.8299 86.7602 38.1399 94.2602 37.3899 96.3802C36.6399 98.4902 34.9499 105.06 33.0699 103.84C31.1899 102.62 32.1299 99.6102 33.0699 96.3802C34.0099 93.1502 34.7599 90.5202 34.6699 90.1402C34.5799 89.7602 28.1899 93.3302 26.9699 94.1802C25.7499 95.0202 22.2799 97.1802 21.4299 95.6802C20.5899 94.1802 24.4299 91.7402 25.8399 90.8002C27.2499 89.8602 36.1599 84.2302 36.1599 84.2302C36.1599 84.2302 36.2499 83.2002 36.8199 80.5702C37.3899 77.9402 37.5699 76.3502 37.5699 76.3502L31.7399 76.6302C31.7399 76.6302 28.2799 79.9102 27.3399 80.9502C26.3999 81.9802 24.2399 84.7002 23.3999 83.3002C22.5599 81.8902 26.3999 77.6702 26.3999 77.6702C26.3999 77.6702 23.5799 77.4802 22.1799 77.5802C20.7699 77.6702 19.0799 77.7702 18.9899 76.4502C18.8999 75.1402 24.0599 74.0702 26.5899 73.5202C29.1199 72.9702 37.8499 71.1002 37.8499 71.1002L45.4499 64.0202C45.4499 64.0202 40.1899 58.5202 39.3499 58.4302C38.5099 58.3402 28.3699 58.9902 28.3699 58.9902C28.3699 58.9902 26.3099 60.8702 25.3699 61.8102C24.4299 62.7502 22.8399 65.1102 21.6199 64.0202C20.3999 62.9302 21.8099 61.4302 22.5599 60.4002L24.1599 57.6902" fill="#FEE5C3" style="fill:#FEE5C3;fill:color(display-p3 0.9961 0.8980 0.7647);fill-opacity:1;"/>
<path d="M48.46 57.2599C50.24 56.25 59.68 46.02 59.68 46.02L59.55 8.28995C59.55 8.28995 61.22 7.62995 63.57 7.53995C65.92 7.44995 67.98 8.28995 67.98 8.28995L68.36 46.2C68.36 46.2 77.37 56.9 79.34 57.27C81.31 57.6399 80.56 63.48 80.47 63.99C80.38 64.5 78.5 70.32 76.72 68.91C74.94 67.5 64 57.2799 64 57.2799C64 57.2799 52.68 67.42 50.34 69.3C47.99 71.18 45.46 64 45.46 64C45.46 64 46.68 58.2699 48.46 57.2599Z" fill="url(#paint0_linear_2471_1832)" style=""/>
<path d="M42.17 20.59C33.54 20.62 13.64 33.83 6.70003 64C-0.23997 94.17 7.03003 112.53 29.22 114.25C50.99 115.94 57.46 100.69 58.44 95.44C61.32 80.09 58.69 54.56 55.69 40.67C52.69 26.78 50.76 20.56 42.17 20.59Z" fill="#FEA8A7" style="fill:#FEA8A7;fill:color(display-p3 0.9961 0.6588 0.6549);fill-opacity:1;"/>
<path d="M73.29 92.9902C74.48 98.1602 74.29 102.46 76.81 106.93C79.91 112.42 84.7 113.26 84.7 113.26L80.47 89.6102L70.76 79.4702L69.22 82.0202C69.21 82.0302 72.21 88.3102 73.29 92.9902Z" fill="#FE9895" style="fill:#FE9895;fill:color(display-p3 0.9961 0.5961 0.5843);fill-opacity:1;"/>
<path d="M86.49 21.4601C95.02 21.4201 114.68 34.6001 121.54 64.5101C128.4 94.4301 121.22 112.64 99.29 114.34C92.29 114.88 86.9 114.64 82.77 112.55C78.88 109.17 80.29 101.49 78.48 93.2501C77.61 89.2701 73.32 84.4501 69.22 81.9401C68.98 67.9101 70.96 51.5101 73.15 41.3601C76.11 27.6001 78.21 21.5001 86.49 21.4601Z" fill="#FEA8A7" style="fill:#FEA8A7;fill:color(display-p3 0.9961 0.6588 0.6549);fill-opacity:1;"/>
<path d="M8.04004 58.8902C8.04004 58.8902 13.74 67.2302 29.97 71.1802C46.2 75.1302 59.55 72.8702 59.55 72.8702C59.55 72.8702 58.65 56.8002 57.17 48.7402C55.69 40.6802 40.86 34.0102 37.95 33.9102C35.04 33.8102 20.85 34.2702 20.85 34.2702C20.85 34.2702 16.5 39.4502 13.76 44.7602C10.83 50.4602 8.04004 58.8902 8.04004 58.8902Z" fill="url(#paint1_linear_2471_1832)" style=""/>
<path d="M4.56006 76.5298C4.56006 76.5298 13.1701 85.9098 17.5901 92.5798C22.0101 99.2498 30.8001 114.31 30.8001 114.31C30.8001 114.31 40.8601 115.31 48.5401 110.06C53.4201 106.71 56.8801 104.63 58.6301 94.3998C60.3801 84.1698 39.8301 78.9598 36.5401 78.8698C33.2601 78.7798 17.6301 70.1198 15.5601 67.8298C13.4901 65.5398 7.48006 61.0898 7.48006 61.0898C7.48006 61.0898 6.17006 66.2298 5.85006 67.9298C5.54006 69.6198 4.56006 76.5298 4.56006 76.5298Z" fill="url(#paint2_linear_2471_1832)" style=""/>
<path d="M80.4499 108.47C80.4499 108.47 86.9399 108.24 100.93 97.7301C114.92 87.2201 122.7 70.1701 122.7 70.1701C122.7 70.1701 121.55 64.4401 121.14 62.8701C120.74 61.3001 100.36 63.8401 95.1099 65.6301C89.8499 67.4101 69.4299 72.1101 69.4299 72.1101C69.4299 72.1101 69.1899 81.6001 69.2099 82.0301C69.4699 82.0501 76.1299 87.4401 77.4199 90.6601C79.1999 95.1001 79.3099 100 79.4499 102.19C79.6399 105.07 80.4499 108.47 80.4499 108.47Z" fill="url(#paint3_linear_2471_1832)" style=""/>
<path d="M58.1499 34.9202C58.1599 37.1702 60.1999 36.9602 63.9999 36.9602C67.7999 36.9602 69.6899 37.1802 69.6999 34.9202C69.7099 32.3202 67.4499 32.8102 63.9299 32.8102C60.3999 32.8102 58.1399 32.4602 58.1499 34.9202Z" fill="#F2A159" style="fill:#F2A159;fill:color(display-p3 0.9490 0.6314 0.3490);fill-opacity:1;"/>
<path d="M58.23 28.24C58.24 30.49 60.28 30.28 64.08 30.28C67.88 30.28 69.77 30.5 69.78 28.24C69.79 25.64 67.53 26.13 64.01 26.13C60.48 26.12 58.22 25.77 58.23 28.24Z" fill="#F2A159" style="fill:#F2A159;fill:color(display-p3 0.9490 0.6314 0.3490);fill-opacity:1;"/>
<path d="M58.23 21.55C58.24 23.8 60.28 23.59 64.08 23.59C67.88 23.59 69.77 23.81 69.78 21.55C69.79 18.95 67.53 19.44 64.01 19.44C60.48 19.44 58.22 19.08 58.23 21.55Z" fill="#F2A159" style="fill:#F2A159;fill:color(display-p3 0.9490 0.6314 0.3490);fill-opacity:1;"/>
<path d="M58.23 15.0701C58.24 17.3201 60.28 17.1101 64.08 17.1101C67.88 17.1101 69.77 17.3301 69.78 15.0701C69.79 12.4701 67.53 12.9601 64.01 12.9601C60.48 12.9601 58.22 12.6101 58.23 15.0701Z" fill="#F2A159" style="fill:#F2A159;fill:color(display-p3 0.9490 0.6314 0.3490);fill-opacity:1;"/>
<defs>
<linearGradient id="paint0_linear_2471_1832" x1="63.0701" y1="7.53685" x2="63.0701" y2="69.6095" gradientUnits="userSpaceOnUse">
<stop offset="0.3101" stop-color="#FED3B3" style="stop-color:#FED3B3;stop-color:color(display-p3 0.9961 0.8275 0.7020);stop-opacity:1;"/>
<stop offset="0.6473" stop-color="#FED5B5" style="stop-color:#FED5B5;stop-color:color(display-p3 0.9961 0.8353 0.7098);stop-opacity:1;"/>
<stop offset="0.7686" stop-color="#FEDCBB" style="stop-color:#FEDCBB;stop-color:color(display-p3 0.9961 0.8627 0.7333);stop-opacity:1;"/>
<stop offset="0.8413" stop-color="#FEE5C3" style="stop-color:#FEE5C3;stop-color:color(display-p3 0.9961 0.8980 0.7647);stop-opacity:1;"/>
</linearGradient>
<linearGradient id="paint1_linear_2471_1832" x1="38.2845" y1="33.9456" x2="32.9385" y2="71.984" gradientUnits="userSpaceOnUse">
<stop offset="0.2937" stop-color="#FEA8A7" style="stop-color:#FEA8A7;stop-color:color(display-p3 0.9961 0.6588 0.6549);stop-opacity:1;"/>
<stop offset="0.5476" stop-color="#FEA4A2" style="stop-color:#FEA4A2;stop-color:color(display-p3 0.9961 0.6431 0.6353);stop-opacity:1;"/>
<stop offset="0.8265" stop-color="#FE9895" style="stop-color:#FE9895;stop-color:color(display-p3 0.9961 0.5961 0.5843);stop-opacity:1;"/>
</linearGradient>
<linearGradient id="paint2_linear_2471_1832" x1="43.735" y1="72.5913" x2="15.6009" y2="96.1986" gradientUnits="userSpaceOnUse">
<stop offset="0.4043" stop-color="#FEA8A7" style="stop-color:#FEA8A7;stop-color:color(display-p3 0.9961 0.6588 0.6549);stop-opacity:1;"/>
<stop offset="0.6094" stop-color="#FEA3A1" style="stop-color:#FEA3A1;stop-color:color(display-p3 0.9961 0.6392 0.6314);stop-opacity:1;"/>
<stop offset="0.8236" stop-color="#FE9895" style="stop-color:#FE9895;stop-color:color(display-p3 0.9961 0.5961 0.5843);stop-opacity:1;"/>
</linearGradient>
<linearGradient id="paint3_linear_2471_1832" x1="85.299" y1="61.8075" x2="106.486" y2="94.4322" gradientUnits="userSpaceOnUse">
<stop offset="0.3525" stop-color="#FEA8A7" style="stop-color:#FEA8A7;stop-color:color(display-p3 0.9961 0.6588 0.6549);stop-opacity:1;"/>
<stop offset="0.7936" stop-color="#FE9B99" style="stop-color:#FE9B99;stop-color:color(display-p3 0.9961 0.6078 0.6000);stop-opacity:1;"/>
<stop offset="0.8931" stop-color="#FE9895" style="stop-color:#FE9895;stop-color:color(display-p3 0.9961 0.5961 0.5843);stop-opacity:1;"/>
</linearGradient>
</defs>
</svg>
