<svg width="128" height="128" viewBox="0 0 128 128" fill="none" xmlns="http://www.w3.org/2000/svg">
<path d="M18.0537 108.065C19.736 110.075 24.3246 108.763 26.672 107.316C32.6699 103.617 35.3101 96.9908 35.3101 96.9908L65.3059 74.2691L74.2324 66.2745C74.2324 66.2745 75.3743 62.3771 70.7267 60.7952C66.079 59.2133 63.2278 59.7258 63.2278 59.7258L53.5078 70.014C53.5078 70.014 44.565 66.0807 36.7501 67.1123C29.2868 68.1069 21.7455 76.2783 22.1761 88.0089C22.5223 97.5229 20.2696 101.473 19.6442 102.879C19.0213 104.294 16.6097 106.346 18.0537 108.065Z" fill="#FF8E00" style="fill:#FF8E00;fill:color(display-p3 1.0000 0.5569 0.0000);fill-opacity:1;"/>
<g filter="url(#filter0_i_911_391)">
<path fill-rule="evenodd" clip-rule="evenodd" d="M75.5855 86.9816C75.5855 86.9816 76.5327 66.7668 75.8127 64.4423C75.0222 61.9056 74.3524 57.6626 74.182 56.535C74.1852 56.5038 74.1859 56.4815 74.1841 56.4684C73.105 49.2018 72.3893 42.9263 71.726 33.7089C71.6039 32.0119 71.5124 30.3174 71.4219 28.6404C71.0208 21.208 70.6382 14.1192 67.6869 8.68709C65.4888 4.63137 60.8575 3.97353 60.8575 3.97353C59.6781 3.56646 58.0549 3.45084 56.2554 3.842C54.4931 4.1575 51.3878 5.47788 48.9697 8.32145C44.348 13.7561 40.9619 28.3877 40.454 38.973C40.4276 39.5447 40.3981 40.1232 40.3681 40.7114C39.9918 48.0899 39.5375 56.9966 44.0551 73.098C47.2817 84.6291 59.7068 88.3032 59.7068 88.3032L59.7077 88.3032C59.7168 88.3144 59.7214 88.3201 59.7214 88.3201L59.7433 88.3002L75.5855 86.9816Z" fill="#FFE4B4" style="fill:#FFE4B4;fill:color(display-p3 1.0000 0.8941 0.7059);fill-opacity:1;"/>
</g>
<path d="M75.5854 86.9814C75.5854 86.9814 76.5327 66.7666 75.8126 64.4421C75.1472 62.3069 74.5674 58.9629 74.2989 57.2853C70.0851 58.6204 65.5049 59.6891 60.6789 60.4126C53.8256 61.4399 47.2422 61.6563 41.3249 61.1765C41.921 64.6721 42.7944 68.6048 44.055 73.0977C47.2816 84.6288 59.7067 88.303 59.7067 88.303L75.5854 86.9814Z" fill="#FFE265" style="fill:#FFE265;fill:color(display-p3 1.0000 0.8863 0.3961);fill-opacity:1;"/>
<path d="M48.1364 88.7555L51.0235 74.4765L49.5498 70.0216C49.5498 70.0216 47.2898 66.5384 56.9581 70.6497C61.4391 72.5521 65.033 77.2357 65.033 77.2357C65.033 77.2357 65.4634 74.1158 68.5342 69.3609C71.2666 65.1451 75.6606 62.3254 75.6606 62.3254C75.6606 62.3254 85.1399 57.8732 86.4385 58.443C94.8522 62.159 101.676 67.5444 101.676 67.5444L111.77 85.7802L121.688 88.8797C121.688 88.8797 120.207 92.9038 116.49 92.4795C113.591 92.148 109.559 89.978 106.843 86.6509C103.111 82.0744 95.5464 73.5447 92.1752 71.0945C85.666 66.3827 80.2095 65.4379 76.9914 68.0951C73.3278 71.1122 81.6062 89.9191 81.6062 89.9191L114.023 105.683L115.251 108.632C115.251 108.632 112.304 113.346 101.501 115.698C90.6986 118.05 75.3672 117.697 63.1841 107.619C52.4368 98.7371 48.1364 88.7555 48.1364 88.7555Z" fill="#FFA726" style="fill:#FFA726;fill:color(display-p3 1.0000 0.6549 0.1490);fill-opacity:1;"/>
<path d="M69.5222 84.612C70.6462 90.0523 76.057 97.3613 85.5279 102.203C94.9891 107.047 103.74 107.234 108.919 106.341C112.675 105.693 113.24 103.313 113.24 103.313C113.24 103.313 104.089 98.349 97.1904 94.2613C90.6415 90.3742 82.1825 80.8738 79.6727 76.1541C77.1628 71.4345 77.4345 67.7668 77.4345 67.7668C77.4345 67.7668 75.1984 69.0421 72.5538 73.4833C69.989 77.7909 68.8954 81.5936 69.5222 84.612Z" fill="#FFB803" style="fill:#FFB803;fill:color(display-p3 1.0000 0.7216 0.0118);fill-opacity:1;"/>
<path d="M110.874 109.024C112.151 110.693 114.934 110.074 115.875 108.733C116.762 107.468 117.377 105.24 115.682 103.347C114.564 102.102 111.982 102.33 110.866 103.797C109.751 105.265 109.719 107.511 110.874 109.024Z" fill="#875B54" style="fill:#875B54;fill:color(display-p3 0.5294 0.3569 0.3294);fill-opacity:1;"/>
<path d="M111.283 87.3674C115.575 90.9775 118.934 90.8424 120.29 90.6554C121.478 90.5002 122.367 88.7086 121.879 87.3877C121.391 86.0668 118.68 84.7188 117.357 80.6177C116.034 76.5166 112.509 61.1419 101.81 54.4957C94.2675 49.8175 87.4746 53.7988 83.1558 56.6304C78.2871 59.8173 75.6533 62.3376 75.6533 62.3376C75.6533 62.3376 79.941 60.9369 88.9616 64.9744C94.205 67.3239 97.9699 71.4178 101.765 76.2464C104.503 79.7433 108.261 84.8291 111.283 87.3674Z" fill="#FEE4B4" style="fill:#FEE4B4;fill:color(display-p3 0.9961 0.8941 0.7059);fill-opacity:1;"/>
<path d="M29.5592 120.077C30.9011 121.636 33.3615 122.191 35.2691 121.618C39.3074 120.414 42.5004 117.371 45.2819 111.018C49.2127 102.025 49.7324 82.6912 52.321 76.9234C54.0717 73.0273 56.8658 70.611 56.8658 70.611C56.8658 70.611 54.7246 69.5626 52.7276 69.0863C50.7306 68.61 46.574 70.1219 46.574 70.1219L35.7412 103.977L29.5592 120.077Z" fill="#FEB804" style="fill:#FEB804;fill:color(display-p3 0.9961 0.7216 0.0157);fill-opacity:1;"/>
<path d="M29.7958 77.6106C27.2406 84.329 27.9807 89.4742 28.6702 94.7456C29.2932 99.5077 30.6299 109.515 29.7518 113.108C28.8639 116.704 27.7459 119.183 30.0456 120.655C32.3453 122.128 37.5049 120.095 40.2839 114.96C42.5192 110.818 43.3018 106.722 44.2626 100.756C45.2234 94.7905 45.4344 81.2275 48.4186 74.37C50.326 69.9908 53.1208 69.1728 53.1208 69.1728C53.1208 69.1728 48.62 67.0692 41.4735 68.7883C35.0663 70.3314 31.9239 72.0208 29.7958 77.6106Z" fill="#FFE4B4" style="fill:#FFE4B4;fill:color(display-p3 1.0000 0.8941 0.7059);fill-opacity:1;"/>
<defs>
<filter id="filter0_i_911_391" x="40.1443" y="3.60156" width="35.9385" height="84.7188" filterUnits="userSpaceOnUse" color-interpolation-filters="sRGB">
<feFlood flood-opacity="0" result="BackgroundImageFix"/>
<feBlend mode="normal" in="SourceGraphic" in2="BackgroundImageFix" result="shape"/>
<feColorMatrix in="SourceAlpha" type="matrix" values="0 0 0 0 0 0 0 0 0 0 0 0 0 0 0 0 0 0 127 0" result="hardAlpha"/>
<feOffset dx="-5" dy="-11"/>
<feComposite in2="hardAlpha" operator="arithmetic" k2="-1" k3="1"/>
<feColorMatrix type="matrix" values="0 0 0 0 1 0 0 0 0 0.886275 0 0 0 0 0.396078 0 0 0 1 0"/>
<feBlend mode="normal" in2="shape" result="effect1_innerShadow_911_391"/>
</filter>
</defs>
</svg>
