<svg width="128" height="128" viewBox="0 0 128 128" fill="none" xmlns="http://www.w3.org/2000/svg">
<path d="M63.6001 118.8C35.7001 118.8 5.6001 101.3 5.6001 62.9C5.6001 24.5 35.7001 7 63.6001 7C79.1001 7 93.4001 12.1 104 21.4C115.5 31.6 121.6 46 121.6 62.9C121.6 79.8 115.5 94.1 104 104.3C93.4001 113.6 79.0001 118.8 63.6001 118.8Z" fill="url(#paint0_radial_169_5729)" style=""/>
<path d="M63.6001 118.8C35.7001 118.8 5.6001 101.3 5.6001 62.9C5.6001 24.5 35.7001 7 63.6001 7C79.1001 7 93.4001 12.1 104 21.4C115.5 31.6 121.6 46 121.6 62.9C121.6 79.8 115.5 94.1 104 104.3C93.4001 113.6 79.0001 118.8 63.6001 118.8Z" fill="url(#paint1_radial_169_5729)" style=""/>
<path d="M111.49 29.67C116.82 38.27 119.6 48.51 119.6 59.9C119.6 76.8 113.5 91.1 102 101.3C91.4002 110.6 77.0002 115.8 61.6002 115.8C43.5402 115.8 24.6002 108.45 13.4202 92.86C24.1802 110.52 44.4202 118.8 63.6002 118.8C79.0002 118.8 93.4002 113.6 104 104.3C115.5 94.1001 121.6 79.8 121.6 62.9C121.6 50.16 118.13 38.84 111.49 29.67Z" fill="#EB8F00" style="fill:#EB8F00;fill:color(display-p3 0.9216 0.5608 0.0000);fill-opacity:1;"/>
<path d="M111.49 29.67C116.82 38.27 119.6 48.51 119.6 59.9C119.6 76.8 113.5 91.1 102 101.3C91.4002 110.6 77.0002 115.8 61.6002 115.8C43.5402 115.8 24.6002 108.45 13.4202 92.86C24.1802 110.52 44.4202 118.8 63.6002 118.8C79.0002 118.8 93.4002 113.6 104 104.3C115.5 94.1001 121.6 79.8 121.6 62.9C121.6 50.16 118.13 38.84 111.49 29.67Z" fill="#F3B872" style="fill:#F3B872;fill:color(display-p3 0.9542 0.7229 0.4453);fill-opacity:1;"/>
<path d="M64.25 95.4401C51.51 95.4401 42.43 88.8301 39.7 84.6701C38.67 83.3401 38.45 81.5401 39.14 80.0001C39.67 79.0301 40.7 78.4301 41.81 78.4401C42.22 78.4401 42.63 78.5101 43.02 78.6401C49.92 80.7201 57.09 81.7501 64.3 81.7101C71.47 81.7501 78.61 80.7101 85.48 78.6401C85.87 78.5101 86.28 78.4501 86.69 78.4401C87.8 78.4301 88.83 79.0301 89.36 80.0001C90.05 81.5401 89.83 83.3401 88.8 84.6701C86.07 88.8301 77 95.4401 64.25 95.4401Z" fill="#312D2D" style="fill:#312D2D;fill:color(display-p3 0.1922 0.1765 0.1765);fill-opacity:1;"/>
<path d="M97.5099 62.0001L97.3099 61.7201C97.1299 61.4601 96.9399 61.2101 96.7299 60.9701C96.0099 60.1601 95.1999 59.4301 94.3099 58.8101C93.1099 57.9701 91.8099 57.2801 90.4399 56.7601C89.6899 56.4701 88.9199 56.2201 88.1399 56.0201C87.7499 55.9201 87.3199 55.8301 86.8799 55.7401L86.2799 55.6301L86.8699 55.3201L88.6199 54.4001C89.7499 53.8201 90.8199 53.3201 91.7199 52.9101C92.6199 52.5001 93.3599 52.2101 93.8599 52.0201L94.6199 51.7501L94.8399 51.6601C96.2499 51.0801 96.9099 49.4601 96.3299 48.0501C95.9299 47.0901 95.0299 46.4401 93.9999 46.3601C93.5899 46.3401 93.1699 46.3401 92.7599 46.3601C91.7499 46.4501 90.7399 46.6301 89.7599 46.8801C88.4199 47.2201 87.1099 47.6501 85.8299 48.1701C85.1499 48.4701 84.4299 48.7501 83.7399 49.1101C83.0499 49.4701 82.2999 49.8501 81.6799 50.1801C81.0599 50.5101 80.3099 51.0001 79.6799 51.4301C79.0499 51.8601 78.4099 52.3101 77.8099 52.7501C76.6999 53.5701 75.6499 54.4701 74.6799 55.4501C73.9499 56.1701 73.2899 56.9501 72.6799 57.7801C72.4999 58.0201 72.3299 58.2801 72.1799 58.5401C72.0999 58.7001 72.0499 58.7801 72.0499 58.7801C71.6799 59.6801 71.6499 60.6801 71.9699 61.6001C72.5299 63.0101 74.1299 63.7001 75.5399 63.1401C75.5499 63.1401 75.5599 63.1301 75.5699 63.1301L75.8099 63.0401L75.9999 63.0001L76.2399 62.9401C76.4099 62.9401 76.7199 62.8201 77.0399 62.7501C77.3599 62.6801 77.7499 62.6101 78.1699 62.5401C79.1599 62.4001 80.1699 62.3201 81.1699 62.3201C82.3499 62.3201 83.5399 62.4001 84.7099 62.5701C84.9199 62.5701 85.4499 62.6701 85.7099 62.7201C85.9699 62.7701 86.2499 62.8101 86.5499 62.8801C87.1299 63.0201 87.6999 63.1401 88.2399 63.3001C89.1999 63.5701 90.1399 63.9001 91.0599 64.3001C91.6599 64.5801 92.2499 64.8901 92.8199 65.2401C93.2199 65.4801 93.4199 65.6301 93.4199 65.6301L93.6999 65.8401C94.8999 66.7501 96.6199 66.5101 97.5199 65.3001C98.2599 64.3201 98.2499 62.9701 97.5099 62.0001Z" fill="#312D2D" style="fill:#312D2D;fill:color(display-p3 0.1922 0.1765 0.1765);fill-opacity:1;"/>
<path d="M44.6699 46.9401C40.4799 46.9401 36.6699 50.4801 36.6699 56.3601C36.6699 62.2401 40.4799 65.7701 44.6699 65.7701C48.8599 65.7701 52.6699 62.2301 52.6699 56.3601C52.6699 50.4901 48.8599 46.9401 44.6699 46.9401Z" fill="#312D2D" style="fill:#312D2D;fill:color(display-p3 0.1922 0.1765 0.1765);fill-opacity:1;"/>
<path d="M29.84 44.8001C28.97 44.8101 28.16 44.3901 27.65 43.6901C27.17 42.9701 27.08 42.0501 27.42 41.2501C29.46 36.1301 33.4 31.9901 38.42 29.7101C40.27 28.8501 42.24 28.2701 44.27 28.0001C44.4 27.9901 44.53 27.9901 44.66 28.0001C45.92 27.9501 47.01 28.8601 47.19 30.1101C47.37 31.4401 46.58 32.7001 45.3 33.1101L44.93 32.4101L45.18 33.1501C39.81 35.0301 35.23 38.6701 32.18 43.4701C31.7 44.2901 30.82 44.7901 29.87 44.7901L29.84 44.8001Z" fill="#312D2D" style="fill:#312D2D;fill:color(display-p3 0.1922 0.1765 0.1765);fill-opacity:1;"/>
<path d="M44.2801 50.8701C42.8601 50.1901 41.1501 50.7901 40.4601 52.2101C39.9301 53.3201 40.1701 54.6501 41.0601 55.5101C42.4801 56.1901 44.1901 55.5901 44.8801 54.1701C45.4101 53.0601 45.1701 51.7301 44.2801 50.8701Z" fill="#767070" style="fill:#767070;fill:color(display-p3 0.4625 0.4374 0.4374);fill-opacity:1;"/>
<defs>
<radialGradient id="paint0_radial_169_5729" cx="0" cy="0" r="1" gradientUnits="userSpaceOnUse" gradientTransform="translate(63.6001 62.9) scale(56.9597 56.9597)">
<stop offset="0.5" stop-color="#FDE030" style="stop-color:#FDE030;stop-color:color(display-p3 0.9922 0.8784 0.1882);stop-opacity:1;"/>
<stop offset="0.92" stop-color="#F7C02B" style="stop-color:#F7C02B;stop-color:color(display-p3 0.9686 0.7529 0.1686);stop-opacity:1;"/>
<stop offset="1" stop-color="#F4A223" style="stop-color:#F4A223;stop-color:color(display-p3 0.9569 0.6353 0.1373);stop-opacity:1;"/>
</radialGradient>
<radialGradient id="paint1_radial_169_5729" cx="0" cy="0" r="1" gradientUnits="userSpaceOnUse" gradientTransform="translate(38.5991 34.5377) rotate(-43.2082) scale(102.024 101.825)">
<stop offset="0.3533" stop-color="#F9DDBD" style="stop-color:#F9DDBD;stop-color:color(display-p3 0.9765 0.8667 0.7412);stop-opacity:1;"/>
<stop offset="0.8723" stop-color="#FFD29C" style="stop-color:#FFD29C;stop-color:color(display-p3 1.0000 0.8235 0.6118);stop-opacity:1;"/>
</radialGradient>
</defs>
</svg>
