<svg width="128" height="129" viewBox="0 0 128 129" fill="none" xmlns="http://www.w3.org/2000/svg">
<g clip-path="url(#clip0_1015_120)">
<path d="M37.41 42.4936C27.7 54.9736 27.87 77.1436 40.28 88.1336C54.37 100.604 74.2 100.474 86.67 89.0036C101.62 75.2436 100.76 52.3436 87.54 39.3736C74.25 26.3336 50.5 25.6536 37.41 42.4936Z" fill="#FCC11A" style="fill:#FCC11A;fill:color(display-p3 0.9882 0.7569 0.1020);fill-opacity:1;"/>
<path d="M52.9999 38.2136C49.1599 36.5136 44.9599 41.1436 43.1299 44.3036C41.2999 47.4736 39.5999 53.6836 43.4999 55.2736C47.3999 56.8536 50.1999 54.1736 53.0099 49.5436C55.7999 44.9136 57.3899 40.1636 52.9999 38.2136Z" fill="#FEE269" style="fill:#FEE269;fill:color(display-p3 0.9961 0.8863 0.4118);fill-opacity:1;"/>
<path d="M55.1478 21.7065C54.5515 23.5872 55.1013 24.848 57.0005 24.9424C58.8998 25.0368 70.5577 24.7712 71.5223 24.6529C72.925 24.4836 73.2425 23.3464 72.8505 22.1682C72.4487 20.9918 66.5363 4.56584 65.9919 3.06C65.4474 1.55415 63.5168 0.306052 62.3393 2.67115C61.1618 5.03626 55.5965 20.2906 55.1478 21.7065Z" fill="#FFA722" style="fill:#FFA722;fill:color(display-p3 1.0000 0.6549 0.1333);fill-opacity:1;"/>
<path d="M86.6321 28.0175C84.955 28.8989 85.2071 29.9811 86.4185 31.19C87.6299 32.3989 96.0601 41.1961 96.7896 41.7826C97.5271 42.3575 98.5923 42.3425 99.2637 41.1395C99.9369 39.9463 107.917 22.7986 108.528 21.7086C109.537 19.9139 108.455 18.4165 106.564 19.297C105.125 19.9816 87.6889 27.465 86.6321 28.0175Z" fill="#FFA722" style="fill:#FFA722;fill:color(display-p3 1.0000 0.6549 0.1333);fill-opacity:1;"/>
<path d="M105.616 54.6255C104.203 54.1356 102.579 54.651 102.452 56.3733C102.325 58.0956 102.645 70.374 102.662 71.449C102.678 72.5241 103.657 73.4101 104.897 72.9151C106.138 72.42 123.48 66.4593 124.615 65.9431C126.593 65.0363 126.895 62.8339 124.453 61.6809C122.869 60.9278 106.953 55.0888 105.616 54.6255Z" fill="#FFA722" style="fill:#FFA722;fill:color(display-p3 1.0000 0.6549 0.1333);fill-opacity:1;"/>
<path d="M96.6042 85.5339C97.8435 84.5406 99.1668 84.8743 99.8015 86.3735C100.434 87.8629 107.197 103.063 108.353 105.889C108.932 107.307 107.466 108.831 105.929 108.222C104.382 107.614 87.4122 99.9369 86.2897 99.2607C84.6786 98.3092 85.4081 96.8716 85.9676 96.1064C87.1009 94.5429 95.4362 86.4732 96.6042 85.5339Z" fill="#FFA722" style="fill:#FFA722;fill:color(display-p3 1.0000 0.6549 0.1333);fill-opacity:1;"/>
<path d="M56.3943 102.042C54.623 102.199 54.4006 103.847 54.922 105.174C55.4354 106.513 61.2903 123.56 61.7104 124.835C62.3188 126.684 64.4608 127.1 65.3941 124.953C66.3274 122.806 72.5717 106.937 73.0408 105.467C73.8889 102.807 72.8384 102.463 71.4291 102.105C70.0297 101.745 58.246 101.881 56.3943 102.042Z" fill="#FFA722" style="fill:#FFA722;fill:color(display-p3 1.0000 0.6549 0.1333);fill-opacity:1;"/>
<path d="M27.7671 86.5343C28.6071 84.3235 30.2574 84.5557 31.7408 86.243C32.7489 87.3981 40.861 94.922 41.6461 95.7525C42.4329 96.5928 43.0249 98.3543 41.2079 99.1397C39.373 99.9385 24.663 106.874 22.3249 107.757C19.9868 108.639 18.2477 106.999 19.4154 104.636C20.0932 103.249 27.2891 87.7929 27.7671 86.5343Z" fill="#FFA722" style="fill:#FFA722;fill:color(display-p3 1.0000 0.6549 0.1333);fill-opacity:1;"/>
<path d="M21.6866 72.1025C24.0815 72.6744 25.0578 72.1267 25.2256 70.4579C25.4494 68.2701 25.4907 58.4267 25.177 56.2473C24.9746 54.8304 24.1423 53.5815 22.0433 54.3278C19.9444 55.0741 4.79494 60.1388 2.93694 61.1962C0.776438 62.432 1.4152 64.9374 3.09882 65.4585C5.09496 66.0739 19.9954 71.705 21.6866 72.1025Z" fill="#FFA722" style="fill:#FFA722;fill:color(display-p3 1.0000 0.6549 0.1333);fill-opacity:1;"/>
<path d="M41.8167 30.8069C42.8806 29.5818 42.2321 28.2275 40.9669 27.6592C39.7017 27.0909 23.9532 19.6341 21.9375 18.5849C20.1593 17.6645 18.3324 18.4517 19.3671 21.1175C20.11 23.034 27.7661 39.5935 28.2939 40.7362C28.8957 42.0585 30.0658 42.5529 31.1143 41.4629C32.1448 40.3864 40.7127 32.0904 41.8167 30.8069Z" fill="#FFA722" style="fill:#FFA722;fill:color(display-p3 1.0000 0.6549 0.1333);fill-opacity:1;"/>
</g>
<defs>
<clipPath id="clip0_1015_120">
<rect width="128" height="128" fill="white" style="fill:white;fill-opacity:1;" transform="translate(0 0.543579)"/>
</clipPath>
</defs>
</svg>
