<svg width="128" height="128" viewBox="0 0 128 128" fill="none" xmlns="http://www.w3.org/2000/svg">
<g opacity="0.2">
<path d="M99.73 7.09009C102.49 7.09009 104.73 9.33009 104.73 12.0901V116.09C104.73 118.85 102.49 121.09 99.73 121.09H27.73C24.97 121.09 22.73 118.85 22.73 116.09V12.0901C22.73 9.33009 24.97 7.09009 27.73 7.09009H99.73ZM99.73 4.09009H27.73C23.31 4.09009 19.73 7.67009 19.73 12.0901V116.09C19.73 120.51 23.31 124.09 27.73 124.09H99.73C104.15 124.09 107.73 120.51 107.73 116.09V12.0901C107.73 7.67009 104.15 4.09009 99.73 4.09009Z" fill="#212121" style="fill:#212121;fill:color(display-p3 0.1294 0.1294 0.1294);fill-opacity:1;"/>
<path d="M99.73 7.09009C102.49 7.09009 104.73 9.33009 104.73 12.0901V116.09C104.73 118.85 102.49 121.09 99.73 121.09H27.73C24.97 121.09 22.73 118.85 22.73 116.09V12.0901C22.73 9.33009 24.97 7.09009 27.73 7.09009H99.73ZM99.73 4.09009H27.73C23.31 4.09009 19.73 7.67009 19.73 12.0901V116.09C19.73 120.51 23.31 124.09 27.73 124.09H99.73C104.15 124.09 107.73 120.51 107.73 116.09V12.0901C107.73 7.67009 104.15 4.09009 99.73 4.09009Z" fill="#212121" style="fill:#212121;fill:color(display-p3 0.1294 0.1294 0.1294);fill-opacity:1;"/>
<path d="M99.73 7.09009C102.49 7.09009 104.73 9.33009 104.73 12.0901V116.09C104.73 118.85 102.49 121.09 99.73 121.09H27.73C24.97 121.09 22.73 118.85 22.73 116.09V12.0901C22.73 9.33009 24.97 7.09009 27.73 7.09009H99.73ZM99.73 4.09009H27.73C23.31 4.09009 19.73 7.67009 19.73 12.0901V116.09C19.73 120.51 23.31 124.09 27.73 124.09H99.73C104.15 124.09 107.73 120.51 107.73 116.09V12.0901C107.73 7.67009 104.15 4.09009 99.73 4.09009Z" fill="#212121" style="fill:#212121;fill:color(display-p3 0.1294 0.1294 0.1294);fill-opacity:1;"/>
</g>
<path d="M102.29 125.43L26.2695 125.06C22.8195 125.06 20.0195 122.26 20.0195 118.81L32.2195 26.6801L102.41 4.5001C108.54 4.1701 108.89 7.0301 108.89 10.4801L108.52 119.17C108.54 122.64 105.74 125.43 102.29 125.43Z" fill="#D9CDC9" style="fill:#D9CDC9;fill:color(display-p3 0.8510 0.8039 0.7882);fill-opacity:1;"/>
<path d="M101.83 122.06C101.83 122.06 44.0696 123.04 25.3596 121.98C21.7796 121.78 20.0296 120.36 20.0196 118.82L19.8496 10.3301C19.8496 6.88008 22.6496 4.08008 26.0996 4.08008L101.74 4.40008C105.19 4.40008 106.5 7.26008 106.5 10.7101L105.93 116.11C105.91 119.56 105.28 122.06 101.83 122.06Z" fill="#F1EDEC" style="fill:#F1EDEC;fill:color(display-p3 0.9451 0.9294 0.9255);fill-opacity:1;"/>
<path d="M42.2668 97.4444C43.0334 96.3333 44.9501 94.6667 46.8668 94.6667C50.3168 94.6667 51.8501 96.8889 51.8501 99.6667C51.8501 102.444 50.3168 104.944 46.8668 104.944C44.9501 104.944 43.8001 103.556 42.6501 102.722C42.2668 102.444 41.8834 102.722 42.2668 103C43.4168 103.833 45.3334 106.056 45.3334 108C45.3334 110.222 43.4168 113 40.3501 113C37.2834 113 35.3668 110.222 35.3668 108C35.3668 106.056 37.2834 103.833 38.4334 103C38.8168 102.722 38.4334 102.444 38.0501 102.722C36.9001 103.556 35.7501 104.944 33.8334 104.944C30.3834 104.944 28.8501 102.444 28.8501 99.6667C28.8501 96.8889 30.3834 94.6667 33.8334 94.6667C35.7501 94.6667 37.6668 96.3333 38.4334 97.4444C38.8168 97.7222 38.8168 97.4444 38.8168 97.1667C38.4334 94.9444 38.4334 94.3889 38.0501 92.7222C37.6668 91.0556 36.5168 88 36.5168 88C38.4334 88.5556 42.2668 88.5556 44.1834 88C44.1834 88 43.0334 91.0556 42.6501 92.7222C42.2668 94.3889 42.2668 94.9444 41.8834 97.1667C41.8834 97.4444 41.8834 97.7222 42.2668 97.4444Z" fill="#212121" style="fill:#212121;fill:color(display-p3 0.1294 0.1294 0.1294);fill-opacity:1;"/>
<path d="M42.2668 97.4444C43.0334 96.3333 44.9501 94.6667 46.8668 94.6667C50.3168 94.6667 51.8501 96.8889 51.8501 99.6667C51.8501 102.444 50.3168 104.944 46.8668 104.944C44.9501 104.944 43.8001 103.556 42.6501 102.722C42.2668 102.444 41.8834 102.722 42.2668 103C43.4168 103.833 45.3334 106.056 45.3334 108C45.3334 110.222 43.4168 113 40.3501 113C37.2834 113 35.3668 110.222 35.3668 108C35.3668 106.056 37.2834 103.833 38.4334 103C38.8168 102.722 38.4334 102.444 38.0501 102.722C36.9001 103.556 35.7501 104.944 33.8334 104.944C30.3834 104.944 28.8501 102.444 28.8501 99.6667C28.8501 96.8889 30.3834 94.6667 33.8334 94.6667C35.7501 94.6667 37.6668 96.3333 38.4334 97.4444C38.8168 97.7222 38.8168 97.4444 38.8168 97.1667C38.4334 94.9444 38.4334 94.3889 38.0501 92.7222C37.6668 91.0556 36.5168 88 36.5168 88C38.4334 88.5556 42.2668 88.5556 44.1834 88C44.1834 88 43.0334 91.0556 42.6501 92.7222C42.2668 94.3889 42.2668 94.9444 41.8834 97.1667C41.8834 97.4444 41.8834 97.7222 42.2668 97.4444Z" fill="#212121" style="fill:#212121;fill:color(display-p3 0.1294 0.1294 0.1294);fill-opacity:1;"/>
<path d="M42.2668 97.4444C43.0334 96.3333 44.9501 94.6667 46.8668 94.6667C50.3168 94.6667 51.8501 96.8889 51.8501 99.6667C51.8501 102.444 50.3168 104.944 46.8668 104.944C44.9501 104.944 43.8001 103.556 42.6501 102.722C42.2668 102.444 41.8834 102.722 42.2668 103C43.4168 103.833 45.3334 106.056 45.3334 108C45.3334 110.222 43.4168 113 40.3501 113C37.2834 113 35.3668 110.222 35.3668 108C35.3668 106.056 37.2834 103.833 38.4334 103C38.8168 102.722 38.4334 102.444 38.0501 102.722C36.9001 103.556 35.7501 104.944 33.8334 104.944C30.3834 104.944 28.8501 102.444 28.8501 99.6667C28.8501 96.8889 30.3834 94.6667 33.8334 94.6667C35.7501 94.6667 37.6668 96.3333 38.4334 97.4444C38.8168 97.7222 38.8168 97.4444 38.8168 97.1667C38.4334 94.9444 38.4334 94.3889 38.0501 92.7222C37.6668 91.0556 36.5168 88 36.5168 88C38.4334 88.5556 42.2668 88.5556 44.1834 88C44.1834 88 43.0334 91.0556 42.6501 92.7222C42.2668 94.3889 42.2668 94.9444 41.8834 97.1667C41.8834 97.4444 41.8834 97.7222 42.2668 97.4444Z" fill="#212121" style="fill:#212121;fill:color(display-p3 0.1294 0.1294 0.1294);fill-opacity:1;"/>
<path d="M85.2668 97.4444C86.0334 96.3333 87.9501 94.6667 89.8668 94.6667C93.3168 94.6667 94.8501 96.8889 94.8501 99.6667C94.8501 102.444 93.3168 104.944 89.8668 104.944C87.9501 104.944 86.8001 103.556 85.6501 102.722C85.2668 102.444 84.8834 102.722 85.2668 103C86.4168 103.833 88.3334 106.056 88.3334 108C88.3334 110.222 86.4168 113 83.3501 113C80.2834 113 78.3668 110.222 78.3668 108C78.3668 106.056 80.2834 103.833 81.4334 103C81.8168 102.722 81.4334 102.444 81.0501 102.722C79.9001 103.556 78.7501 104.944 76.8334 104.944C73.3834 104.944 71.8501 102.444 71.8501 99.6667C71.8501 96.8889 73.3834 94.6667 76.8334 94.6667C78.7501 94.6667 80.6668 96.3333 81.4334 97.4444C81.8168 97.7222 81.8168 97.4444 81.8168 97.1667C81.4334 94.9444 81.4334 94.3889 81.0501 92.7222C80.6668 91.0556 79.5168 88 79.5168 88C81.4334 88.5556 85.2668 88.5556 87.1834 88C87.1834 88 86.0334 91.0556 85.6501 92.7222C85.2668 94.3889 85.2668 94.9444 84.8834 97.1667C84.8834 97.4444 84.8834 97.7222 85.2668 97.4444Z" fill="#212121" style="fill:#212121;fill:color(display-p3 0.1294 0.1294 0.1294);fill-opacity:1;"/>
<path d="M85.2668 97.4444C86.0334 96.3333 87.9501 94.6667 89.8668 94.6667C93.3168 94.6667 94.8501 96.8889 94.8501 99.6667C94.8501 102.444 93.3168 104.944 89.8668 104.944C87.9501 104.944 86.8001 103.556 85.6501 102.722C85.2668 102.444 84.8834 102.722 85.2668 103C86.4168 103.833 88.3334 106.056 88.3334 108C88.3334 110.222 86.4168 113 83.3501 113C80.2834 113 78.3668 110.222 78.3668 108C78.3668 106.056 80.2834 103.833 81.4334 103C81.8168 102.722 81.4334 102.444 81.0501 102.722C79.9001 103.556 78.7501 104.944 76.8334 104.944C73.3834 104.944 71.8501 102.444 71.8501 99.6667C71.8501 96.8889 73.3834 94.6667 76.8334 94.6667C78.7501 94.6667 80.6668 96.3333 81.4334 97.4444C81.8168 97.7222 81.8168 97.4444 81.8168 97.1667C81.4334 94.9444 81.4334 94.3889 81.0501 92.7222C80.6668 91.0556 79.5168 88 79.5168 88C81.4334 88.5556 85.2668 88.5556 87.1834 88C87.1834 88 86.0334 91.0556 85.6501 92.7222C85.2668 94.3889 85.2668 94.9444 84.8834 97.1667C84.8834 97.4444 84.8834 97.7222 85.2668 97.4444Z" fill="#212121" style="fill:#212121;fill:color(display-p3 0.1294 0.1294 0.1294);fill-opacity:1;"/>
<path d="M85.2668 97.4444C86.0334 96.3333 87.9501 94.6667 89.8668 94.6667C93.3168 94.6667 94.8501 96.8889 94.8501 99.6667C94.8501 102.444 93.3168 104.944 89.8668 104.944C87.9501 104.944 86.8001 103.556 85.6501 102.722C85.2668 102.444 84.8834 102.722 85.2668 103C86.4168 103.833 88.3334 106.056 88.3334 108C88.3334 110.222 86.4168 113 83.3501 113C80.2834 113 78.3668 110.222 78.3668 108C78.3668 106.056 80.2834 103.833 81.4334 103C81.8168 102.722 81.4334 102.444 81.0501 102.722C79.9001 103.556 78.7501 104.944 76.8334 104.944C73.3834 104.944 71.8501 102.444 71.8501 99.6667C71.8501 96.8889 73.3834 94.6667 76.8334 94.6667C78.7501 94.6667 80.6668 96.3333 81.4334 97.4444C81.8168 97.7222 81.8168 97.4444 81.8168 97.1667C81.4334 94.9444 81.4334 94.3889 81.0501 92.7222C80.6668 91.0556 79.5168 88 79.5168 88C81.4334 88.5556 85.2668 88.5556 87.1834 88C87.1834 88 86.0334 91.0556 85.6501 92.7222C85.2668 94.3889 85.2668 94.9444 84.8834 97.1667C84.8834 97.4444 84.8834 97.7222 85.2668 97.4444Z" fill="#212121" style="fill:#212121;fill:color(display-p3 0.1294 0.1294 0.1294);fill-opacity:1;"/>
<path d="M42.2668 33.5556C43.0334 34.6667 44.9501 36.3333 46.8668 36.3333C50.3168 36.3333 51.8501 34.1111 51.8501 31.3333C51.8501 28.5556 50.3168 26.0556 46.8668 26.0556C44.9501 26.0556 43.8001 27.4444 42.6501 28.2778C42.2668 28.5556 41.8834 28.2778 42.2668 28C43.4168 27.1667 45.3334 24.9444 45.3334 23C45.3334 20.7778 43.4168 18 40.3501 18C37.2834 18 35.3668 20.7778 35.3668 23C35.3668 24.9444 37.2834 27.1667 38.4334 28C38.8168 28.2778 38.4334 28.5556 38.0501 28.2778C36.9001 27.4444 35.7501 26.0556 33.8334 26.0556C30.3834 26.0556 28.8501 28.5556 28.8501 31.3333C28.8501 34.1111 30.3834 36.3333 33.8334 36.3333C35.7501 36.3333 37.6668 34.6667 38.4334 33.5556C38.8168 33.2778 38.8168 33.5556 38.8168 33.8333C38.4334 36.0556 38.4334 36.6111 38.0501 38.2778C37.6668 39.9444 36.5168 43 36.5168 43C38.4334 42.4444 42.2668 42.4444 44.1834 43C44.1834 43 43.0334 39.9444 42.6501 38.2778C42.2668 36.6111 42.2668 36.0556 41.8834 33.8333C41.8834 33.5556 41.8834 33.2778 42.2668 33.5556Z" fill="#212121" style="fill:#212121;fill:color(display-p3 0.1294 0.1294 0.1294);fill-opacity:1;"/>
<path d="M42.2668 33.5556C43.0334 34.6667 44.9501 36.3333 46.8668 36.3333C50.3168 36.3333 51.8501 34.1111 51.8501 31.3333C51.8501 28.5556 50.3168 26.0556 46.8668 26.0556C44.9501 26.0556 43.8001 27.4444 42.6501 28.2778C42.2668 28.5556 41.8834 28.2778 42.2668 28C43.4168 27.1667 45.3334 24.9444 45.3334 23C45.3334 20.7778 43.4168 18 40.3501 18C37.2834 18 35.3668 20.7778 35.3668 23C35.3668 24.9444 37.2834 27.1667 38.4334 28C38.8168 28.2778 38.4334 28.5556 38.0501 28.2778C36.9001 27.4444 35.7501 26.0556 33.8334 26.0556C30.3834 26.0556 28.8501 28.5556 28.8501 31.3333C28.8501 34.1111 30.3834 36.3333 33.8334 36.3333C35.7501 36.3333 37.6668 34.6667 38.4334 33.5556C38.8168 33.2778 38.8168 33.5556 38.8168 33.8333C38.4334 36.0556 38.4334 36.6111 38.0501 38.2778C37.6668 39.9444 36.5168 43 36.5168 43C38.4334 42.4444 42.2668 42.4444 44.1834 43C44.1834 43 43.0334 39.9444 42.6501 38.2778C42.2668 36.6111 42.2668 36.0556 41.8834 33.8333C41.8834 33.5556 41.8834 33.2778 42.2668 33.5556Z" fill="#212121" style="fill:#212121;fill:color(display-p3 0.1294 0.1294 0.1294);fill-opacity:1;"/>
<path d="M42.2668 33.5556C43.0334 34.6667 44.9501 36.3333 46.8668 36.3333C50.3168 36.3333 51.8501 34.1111 51.8501 31.3333C51.8501 28.5556 50.3168 26.0556 46.8668 26.0556C44.9501 26.0556 43.8001 27.4444 42.6501 28.2778C42.2668 28.5556 41.8834 28.2778 42.2668 28C43.4168 27.1667 45.3334 24.9444 45.3334 23C45.3334 20.7778 43.4168 18 40.3501 18C37.2834 18 35.3668 20.7778 35.3668 23C35.3668 24.9444 37.2834 27.1667 38.4334 28C38.8168 28.2778 38.4334 28.5556 38.0501 28.2778C36.9001 27.4444 35.7501 26.0556 33.8334 26.0556C30.3834 26.0556 28.8501 28.5556 28.8501 31.3333C28.8501 34.1111 30.3834 36.3333 33.8334 36.3333C35.7501 36.3333 37.6668 34.6667 38.4334 33.5556C38.8168 33.2778 38.8168 33.5556 38.8168 33.8333C38.4334 36.0556 38.4334 36.6111 38.0501 38.2778C37.6668 39.9444 36.5168 43 36.5168 43C38.4334 42.4444 42.2668 42.4444 44.1834 43C44.1834 43 43.0334 39.9444 42.6501 38.2778C42.2668 36.6111 42.2668 36.0556 41.8834 33.8333C41.8834 33.5556 41.8834 33.2778 42.2668 33.5556Z" fill="#212121" style="fill:#212121;fill:color(display-p3 0.1294 0.1294 0.1294);fill-opacity:1;"/>
<path d="M85.2668 33.5556C86.0334 34.6667 87.9501 36.3333 89.8668 36.3333C93.3168 36.3333 94.8501 34.1111 94.8501 31.3333C94.8501 28.5556 93.3168 26.0556 89.8668 26.0556C87.9501 26.0556 86.8001 27.4444 85.6501 28.2778C85.2668 28.5556 84.8834 28.2778 85.2668 28C86.4168 27.1667 88.3334 24.9444 88.3334 23C88.3334 20.7778 86.4168 18 83.3501 18C80.2834 18 78.3668 20.7778 78.3668 23C78.3668 24.9444 80.2834 27.1667 81.4334 28C81.8168 28.2778 81.4334 28.5556 81.0501 28.2778C79.9001 27.4444 78.7501 26.0556 76.8334 26.0556C73.3834 26.0556 71.8501 28.5556 71.8501 31.3333C71.8501 34.1111 73.3834 36.3333 76.8334 36.3333C78.7501 36.3333 80.6668 34.6667 81.4334 33.5556C81.8168 33.2778 81.8168 33.5556 81.8168 33.8333C81.4334 36.0556 81.4334 36.6111 81.0501 38.2778C80.6668 39.9444 79.5168 43 79.5168 43C81.4334 42.4444 85.2668 42.4444 87.1834 43C87.1834 43 86.0334 39.9444 85.6501 38.2778C85.2668 36.6111 85.2668 36.0556 84.8834 33.8333C84.8834 33.5556 84.8834 33.2778 85.2668 33.5556Z" fill="#212121" style="fill:#212121;fill:color(display-p3 0.1294 0.1294 0.1294);fill-opacity:1;"/>
<path d="M85.2668 33.5556C86.0334 34.6667 87.9501 36.3333 89.8668 36.3333C93.3168 36.3333 94.8501 34.1111 94.8501 31.3333C94.8501 28.5556 93.3168 26.0556 89.8668 26.0556C87.9501 26.0556 86.8001 27.4444 85.6501 28.2778C85.2668 28.5556 84.8834 28.2778 85.2668 28C86.4168 27.1667 88.3334 24.9444 88.3334 23C88.3334 20.7778 86.4168 18 83.3501 18C80.2834 18 78.3668 20.7778 78.3668 23C78.3668 24.9444 80.2834 27.1667 81.4334 28C81.8168 28.2778 81.4334 28.5556 81.0501 28.2778C79.9001 27.4444 78.7501 26.0556 76.8334 26.0556C73.3834 26.0556 71.8501 28.5556 71.8501 31.3333C71.8501 34.1111 73.3834 36.3333 76.8334 36.3333C78.7501 36.3333 80.6668 34.6667 81.4334 33.5556C81.8168 33.2778 81.8168 33.5556 81.8168 33.8333C81.4334 36.0556 81.4334 36.6111 81.0501 38.2778C80.6668 39.9444 79.5168 43 79.5168 43C81.4334 42.4444 85.2668 42.4444 87.1834 43C87.1834 43 86.0334 39.9444 85.6501 38.2778C85.2668 36.6111 85.2668 36.0556 84.8834 33.8333C84.8834 33.5556 84.8834 33.2778 85.2668 33.5556Z" fill="#212121" style="fill:#212121;fill:color(display-p3 0.1294 0.1294 0.1294);fill-opacity:1;"/>
<path d="M85.2668 33.5556C86.0334 34.6667 87.9501 36.3333 89.8668 36.3333C93.3168 36.3333 94.8501 34.1111 94.8501 31.3333C94.8501 28.5556 93.3168 26.0556 89.8668 26.0556C87.9501 26.0556 86.8001 27.4444 85.6501 28.2778C85.2668 28.5556 84.8834 28.2778 85.2668 28C86.4168 27.1667 88.3334 24.9444 88.3334 23C88.3334 20.7778 86.4168 18 83.3501 18C80.2834 18 78.3668 20.7778 78.3668 23C78.3668 24.9444 80.2834 27.1667 81.4334 28C81.8168 28.2778 81.4334 28.5556 81.0501 28.2778C79.9001 27.4444 78.7501 26.0556 76.8334 26.0556C73.3834 26.0556 71.8501 28.5556 71.8501 31.3333C71.8501 34.1111 73.3834 36.3333 76.8334 36.3333C78.7501 36.3333 80.6668 34.6667 81.4334 33.5556C81.8168 33.2778 81.8168 33.5556 81.8168 33.8333C81.4334 36.0556 81.4334 36.6111 81.0501 38.2778C80.6668 39.9444 79.5168 43 79.5168 43C81.4334 42.4444 85.2668 42.4444 87.1834 43C87.1834 43 86.0334 39.9444 85.6501 38.2778C85.2668 36.6111 85.2668 36.0556 84.8834 33.8333C84.8834 33.5556 84.8834 33.2778 85.2668 33.5556Z" fill="#212121" style="fill:#212121;fill:color(display-p3 0.1294 0.1294 0.1294);fill-opacity:1;"/>
</svg>
