<svg width="128" height="128" viewBox="0 0 128 128" fill="none" xmlns="http://www.w3.org/2000/svg">
<g clip-path="url(#clip0_2452_88)">
<path d="M32.9404 21.2536C30.4803 23.0451 29.2227 29.8732 29.2227 29.8732C29.2227 29.8732 28.0288 33.3577 26.0941 36.9502C24.4862 39.9393 11.6712 58.4171 11.9905 77.818C12.2378 92.3636 19.8296 108.395 39.1941 113.647C58.5585 118.899 74.1782 107.73 74.1782 107.73C74.1782 107.73 93.9266 96.0773 100.629 89.6354C106.282 84.204 112.643 77.9864 112.643 77.9864C112.643 77.9864 124.593 58.9865 112.07 37.3185C100.865 17.9318 80.6399 17.4689 70.5704 18.0151C64.927 18.3262 51.3407 19.5784 45.4113 19.1655C36.1912 18.532 35.7323 19.2221 32.9404 21.2536Z" fill="url(#paint0_radial_2452_88)" style=""/>
<path d="M40.6747 30.2657C40.6747 30.2657 41.2979 25.877 41.8193 23.7229C42.3407 21.5689 43.3113 18.9979 43.3113 18.9979C43.3113 18.9979 37.5464 18.3103 35.8464 17.7356C34.1465 17.1608 30.9904 15.4847 30.0655 16.0914C29.1405 16.6981 30.1424 20.6322 30.0407 22.8667C29.9389 25.1013 29.1498 29.9657 29.1498 29.9657C29.1498 29.9657 32.905 29.4368 34.9203 29.5601C36.9302 29.7092 40.6747 30.2657 40.6747 30.2657Z" fill="#F5B03E" style="fill:#F5B03E;fill:color(display-p3 0.9608 0.6902 0.2431);fill-opacity:1;"/>
<path d="M70.3436 98.4953C63.6444 103.112 58.4698 114.188 58.4698 114.188C58.4698 114.188 69.5413 114.441 90.0325 100.344C110.524 86.2469 113.634 76.0913 113.634 76.0913C113.634 76.0913 103.755 75.2674 95.884 80.0969C89.4191 84.0707 89.5167 86.8971 83.4316 91.1109C77.3387 95.3298 77.0505 93.8736 70.3436 98.4953Z" fill="#CF701E" style="fill:#CF701E;fill:color(display-p3 0.8118 0.4392 0.1176);fill-opacity:1;"/>
<path d="M31.2518 48.5082C29.0608 49.1338 28.3525 62.1717 31.3045 72.1972C33.96 81.1944 39.0268 88.0207 44.8874 93.159C49.0959 96.8463 60.5547 103.248 62.504 101.848C64.4532 100.447 51.1601 95.2477 42.8095 82.7713C33.2198 68.4396 33.7474 63.7357 32.9996 57.8673C32.7247 55.6686 32.9287 48.0309 31.2518 48.5082Z" fill="#543121" style="fill:#543121;fill:color(display-p3 0.3294 0.1922 0.1294);fill-opacity:1;"/>
<path d="M48.1087 45.6667C46.8729 46.4774 48.156 54.8739 58.1478 69.9201C66.5282 82.5437 72.0158 89.6387 75.6847 89.6222C78.178 89.6099 65.1725 71.4267 62.3934 67.2576C56.0674 57.7999 49.7721 44.5756 48.1087 45.6667Z" fill="#543121" style="fill:#543121;fill:color(display-p3 0.3294 0.1922 0.1294);fill-opacity:1;"/>
<path d="M57.7744 32.2338C56.7487 33.9072 62.2813 37.393 68.9788 44.7393C73.1983 49.3755 81.7411 60.9587 84.5634 66.6003C87.3857 72.2419 89.2674 80.2458 92.0284 78.557C94.7893 76.8683 91.9687 66.8566 81.4241 52.3064C70.8822 37.7433 58.7347 30.6812 57.7744 32.2338Z" fill="#543121" style="fill:#543121;fill:color(display-p3 0.3294 0.1922 0.1294);fill-opacity:1;"/>
<path d="M78.7577 27.4638C77.8759 29.543 86.4999 33.369 94.3522 44.2045C102.199 55.0323 106.195 71.0213 107.773 69.9863C109.343 68.9564 107.348 56.7801 101.548 46.5993C94.3537 33.9871 79.6762 25.305 78.7577 27.4638Z" fill="#543121" style="fill:#543121;fill:color(display-p3 0.3294 0.1922 0.1294);fill-opacity:1;"/>
<path d="M30.1831 40.1235C28.3833 38.9398 21.815 41.7683 18.1229 55.5638C15.0237 67.13 18.6251 73.9141 22.3739 73.8455C27.9019 73.7437 25.5826 65.8711 27.5518 56.3767C29.3428 47.7417 32.0839 41.3734 30.1831 40.1235Z" fill="#D06150" style="fill:#D06150;fill:color(display-p3 0.8157 0.3804 0.3137);fill-opacity:1;"/>
<path d="M37.799 47.1182C35.3767 47.0894 35.3155 52.7688 35.4471 55.8432C35.5539 58.4062 36.2934 62.3256 39.5521 61.8377C43.1781 61.3048 41.1822 56.5035 40.2649 53.1637C39.5525 50.5494 40.0067 47.1506 37.799 47.1182Z" fill="#D06150" style="fill:#D06150;fill:color(display-p3 0.8157 0.3804 0.3137);fill-opacity:1;"/>
</g>
<defs>
<radialGradient id="paint0_radial_2452_88" cx="0" cy="0" r="1" gradientUnits="userSpaceOnUse" gradientTransform="translate(35.6757 24.0412) rotate(56.5556) scale(73.827 187.284)">
<stop offset="0.3481" stop-color="#A82209" style="stop-color:#A82209;stop-color:color(display-p3 0.6588 0.1333 0.0353);stop-opacity:1;"/>
<stop offset="1" stop-color="#543121" style="stop-color:#543121;stop-color:color(display-p3 0.3294 0.1922 0.1294);stop-opacity:1;"/>
</radialGradient>
<clipPath id="clip0_2452_88">
<rect width="128" height="128" fill="white" style="fill:white;fill-opacity:1;"/>
</clipPath>
</defs>
</svg>
