<svg width="128" height="128" viewBox="0 0 128 128" fill="none" xmlns="http://www.w3.org/2000/svg">
<path d="M59.77 3.68023C58.19 3.69023 57.38 3.85023 57.38 7.44023C57.38 11.0302 57.72 121.31 57.72 122.51C57.72 123.71 58.92 124.22 60.97 124.22C63.02 124.22 67.98 124.22 69.35 124.22C70.72 124.22 71.23 123.37 71.06 121.14C70.89 118.92 70.87 7.61023 70.87 6.25023C70.87 4.89023 70.25 3.82023 68.06 3.74023C66.28 3.69023 61.65 3.67023 59.77 3.68023Z" fill="#424242" style="fill:#424242;fill:color(display-p3 0.2588 0.2588 0.2588);fill-opacity:1;"/>
<path d="M45.39 43.9499C45.39 43.9499 45.14 37.6899 49.56 33.6399C53.63 29.9099 57.43 30.1899 57.43 30.1899L57.47 36.3999C57.47 36.3999 59.79 35.5999 63.71 35.7599C67.63 35.9199 70.86 37.2899 70.86 37.2899V30.7699C70.86 30.7699 73.03 30.6699 76.31 34.5299C77.95 36.4599 79.3 40.4799 79.75 42.5799C80.32 45.2799 81.31 46.5299 83.92 46.7199C86.53 46.9099 88.51 46.8899 90.12 46.8299C92.41 46.7499 85.23 34.2799 85.23 34.2799C85.23 34.2799 77.21 22.1899 74.6 22.1099C71.98 22.0299 55.78 22.4399 54.23 23.2599C52.68 24.0799 42.53 31.1999 42.53 31.1999L41.14 42.2399C41.14 42.2399 44.99 46.7399 44.99 46.4099C44.98 46.0799 45.39 43.9499 45.39 43.9499Z" fill="#353535" style="fill:#353535;fill:color(display-p3 0.2078 0.2078 0.2078);fill-opacity:1;"/>
<path d="M37.5999 43.9502L29.9599 37.9502C29.9599 37.9502 28.3299 50.3302 34.4999 57.7902C39.0199 63.2402 44.3199 65.4802 48.9799 67.5302C53.3399 69.4402 57.5499 70.7602 57.5499 70.7602L57.5699 78.0802L70.9199 85.1802L70.8999 75.5702C70.8999 75.5702 75.9699 78.3202 78.5099 81.0202C81.0499 83.7202 81.2899 87.0702 81.3699 89.2002C81.4499 91.3302 80.3899 94.6802 80.3899 94.6802L78.9199 101.22L95.9399 84.0402L55.7799 57.3702L37.5999 43.9502Z" fill="#353535" style="fill:#353535;fill:color(display-p3 0.2078 0.2078 0.2078);fill-opacity:1;"/>
<path d="M30.89 82.3701C30.89 82.3701 28.85 84.1201 29.44 88.8701C29.98 93.2801 32.47 100.16 39.91 106.21C47.35 112.26 57.71 113.42 57.71 113.42V118.47L71.01 118.45L70.99 113.44C70.99 113.44 78.93 113.11 85.64 108.85C92.66 104.4 97.79 95.3201 97.5 86.7901C97.4 83.8001 95.5 84.2701 95.5 84.2701C95.5 84.2701 71.08 105.39 69.44 105.55C67.8 105.71 51.93 102.93 51.93 102.93L37.13 86.8201L30.89 82.3701Z" fill="#353535" style="fill:#353535;fill:color(display-p3 0.2078 0.2078 0.2078);fill-opacity:1;"/>
<path d="M37.13 80.5998C32.15 81.0898 30.42 82.0698 30.34 83.5498C30.26 85.0198 34.59 110.73 64.86 110.3C93.9 109.89 97.34 92.2198 97.58 85.3498C97.88 77.0898 93 70.2198 82.04 63.7498C73.87 58.9398 54.14 51.7198 50.87 49.6798C47.86 47.7998 43.67 43.6298 44.24 37.4098C44.81 31.1898 51.6 25.0598 64.12 25.1398C76.64 25.2198 81.57 33.9398 82.53 36.5098C84.07 40.6598 83.77 46.0698 86.05 46.7798C87.11 47.1098 90.22 46.9898 92.02 46.7398C93.82 46.4898 96.38 45.1098 96.52 41.4998C96.68 37.3298 92.35 14.0098 63.39 14.2598C35.74 14.4898 28.93 31.4498 30 41.1798C31 50.4098 38.52 59.0898 50.63 63.9998C62.74 68.9098 84.17 74.8798 83.93 85.9198C83.71 95.8298 72.22 99.3298 62.74 98.8498C53.17 98.3598 47.93 92.7998 45.97 86.2498C44.08 79.9798 40.48 80.2798 37.13 80.5998Z" fill="#424242" style="fill:#424242;fill:color(display-p3 0.2588 0.2588 0.2588);fill-opacity:1;"/>
<path d="M41.72 83.73C40.7 81.83 33.88 82.12 33.01 85.34C32.13 88.55 35.25 93.56 37.34 93.13C40.21 92.53 37.78 89.09 38.9 87.78C40.01 86.45 42.98 86.08 41.72 83.73Z" fill="#787878" style="fill:#787878;fill:color(display-p3 0.4706 0.4706 0.4706);fill-opacity:1;"/>
<path d="M63.62 5.39006C61.63 5.34006 59.4 5.32006 59.28 8.00006C59.17 10.5901 59.35 12.5801 60.35 12.6801C61.49 12.8001 63.1 10.3401 63.8 9.27006C64.7 7.93006 65.77 5.45006 63.62 5.39006Z" fill="#787878" style="fill:#787878;fill:color(display-p3 0.4706 0.4706 0.4706);fill-opacity:1;"/>
<path d="M48.33 21.1698C47.56 20.0598 43.2999 19.1698 37.3899 26.4698C31.4799 33.7698 33.6599 37.6198 35.0099 37.7898C36.8499 38.0198 37.8699 36.5098 38.9999 34.0298C40.6099 30.4998 42.5299 28.3498 45.5299 26.0798C48.0899 24.1398 49.65 23.0798 48.33 21.1698Z" fill="#787878" style="fill:#787878;fill:color(display-p3 0.4706 0.4706 0.4706);fill-opacity:1;"/>
</svg>
