<svg width="128" height="128" viewBox="0 0 128 128" fill="none" xmlns="http://www.w3.org/2000/svg">
<path d="M63.6001 118.8C35.7001 118.8 5.6001 101.3 5.6001 62.9C5.6001 24.5 35.7001 7 63.6001 7C79.1001 7 93.4001 12.1 104 21.4C115.5 31.6 121.6 46 121.6 62.9C121.6 79.8 115.5 94.1 104 104.3C93.4001 113.6 79.0001 118.8 63.6001 118.8Z" fill="url(#paint0_radial_169_4610)" style=""/>
<path d="M63.6001 118.8C35.7001 118.8 5.6001 101.3 5.6001 62.9C5.6001 24.5 35.7001 7 63.6001 7C79.1001 7 93.4001 12.1 104 21.4C115.5 31.6 121.6 46 121.6 62.9C121.6 79.8 115.5 94.1 104 104.3C93.4001 113.6 79.0001 118.8 63.6001 118.8Z" fill="url(#paint1_radial_169_4610)" style=""/>
<path d="M111.49 29.67C116.82 38.27 119.6 48.51 119.6 59.9C119.6 76.8 113.5 91.1 102 101.3C91.3999 110.6 76.9999 115.8 61.5999 115.8C43.5399 115.8 24.5599 108.45 13.4199 92.86C24.1799 110.52 44.4099 118.8 63.5999 118.8C78.9999 118.8 93.3999 113.6 104 104.3C115.5 94.1001 121.6 79.8 121.6 62.9C121.6 50.16 118.13 38.84 111.49 29.67Z" fill="#F3B872" style="fill:#F3B872;fill:color(display-p3 0.9542 0.7229 0.4453);fill-opacity:1;"/>
<path d="M62.67 80.4199C49.95 80.4199 38.13 79.3499 28.26 77.5299C25.81 77.0799 23.65 79.2299 24.15 81.6699C27.43 97.7099 43.22 110.88 62.66 110.88C83.93 110.88 98.25 97.2799 101.22 81.6099C101.68 79.1899 99.52 77.0799 97.1 77.5299C87.22 79.3499 75.39 80.4199 62.67 80.4199Z" fill="#312D2D" style="fill:#312D2D;fill:color(display-p3 0.1922 0.1765 0.1765);fill-opacity:1;"/>
<path d="M89.58 57.3101C89.28 56.5701 88.83 55.9101 88.26 55.3501C87.68 54.7801 86.98 54.2901 86.15 53.8701C85.49 53.5401 84.75 53.2301 83.95 52.9501V44.5401C84.1 44.5901 84.26 44.6301 84.4 44.7001C84.91 44.9501 85.34 45.3101 85.69 45.7601C86.04 46.2101 86.31 46.7501 86.49 47.3701C86.56 47.6201 86.62 47.8701 86.66 48.1301C86.78 48.8601 87.38 49.4201 88.12 49.4201H88.16C89.12 49.4201 89.83 48.5701 89.69 47.6301C89.48 46.1901 89 45.0001 88.26 44.0601C87.24 42.7601 85.8 41.9801 83.95 41.7201V39.5101C83.95 38.7101 83.3 38.0601 82.5 38.0601C81.7 38.0601 81.05 38.7101 81.05 39.5101V41.7901C80.31 41.9101 79.62 42.1001 79 42.3901C78.26 42.7301 77.64 43.1801 77.12 43.7401C76.61 44.3001 76.21 44.9601 75.92 45.7101C75.64 46.4601 75.5 47.3001 75.5 48.2401C75.5 49.2301 75.66 50.1001 75.98 50.8501C76.3 51.6001 76.76 52.2701 77.35 52.8501C77.94 53.4301 78.65 53.9301 79.49 54.3501C79.97 54.5901 80.5 54.8201 81.05 55.0301V63.7001C81.05 63.7001 81.05 63.7001 81.04 63.7101C80.31 63.5801 79.68 63.2901 79.13 62.8301C78.69 62.4601 78.34 61.9701 78.06 61.3601C77.92 61.0501 77.82 60.7101 77.75 60.3201C77.62 59.6001 77.04 59.0401 76.3 59.0401H76.15C75.24 59.0401 74.55 59.8601 74.7 60.7501C74.79 61.3001 74.93 61.8001 75.12 62.2601C75.49 63.1601 75.97 63.9001 76.58 64.4901C77.19 65.0801 77.89 65.5301 78.68 65.8401C79.43 66.1401 80.22 66.3201 81.04 66.4201V68.1601C81.04 68.9601 81.69 69.6101 82.49 69.6101C83.29 69.6101 83.94 68.9601 83.94 68.1601V66.3701C84.78 66.2601 85.56 66.0701 86.26 65.7801C87.05 65.4501 87.72 65.0101 88.28 64.4601C88.83 63.9101 89.26 63.2601 89.57 62.4901C89.87 61.7301 90.03 60.8601 90.03 59.9001C90.04 58.9201 89.89 58.0501 89.58 57.3101ZM79.68 50.8501C79.3 50.5001 79.02 50.1001 78.84 49.6701C78.66 49.2401 78.57 48.7501 78.57 48.1901C78.58 47.0001 78.93 46.0601 79.62 45.3601C79.99 44.9801 80.48 44.7101 81.05 44.5401V51.7701C80.5 51.4901 80.04 51.1801 79.68 50.8501ZM86.63 61.5701C86.41 62.0501 86.11 62.4601 85.71 62.8001C85.31 63.1401 84.82 63.4001 84.25 63.5701C84.16 63.6001 84.06 63.6101 83.96 63.6301V56.1201C84.75 56.4901 85.39 56.8901 85.85 57.3301C86.6 58.0501 86.97 58.9101 86.95 59.9201C86.95 60.5501 86.84 61.0901 86.63 61.5701Z" fill="#312D2D" stroke="#312D2D" style="fill:#312D2D;fill:color(display-p3 0.1922 0.1765 0.1765);fill-opacity:1;stroke:#312D2D;stroke:color(display-p3 0.1922 0.1765 0.1765);stroke-opacity:1;" stroke-width="0.5" stroke-miterlimit="10"/>
<path d="M44.54 87.78V108.93C44.54 118.44 52.25 126.14 61.75 126.14H65.03C74.54 126.14 82.24 118.43 82.24 108.93V87.63C63.23 91.35 49.07 88.83 44.54 87.78Z" fill="#05E005" style="fill:#05E005;fill:color(display-p3 0.0196 0.8784 0.0196);fill-opacity:1;"/>
<path d="M62.66 85.03C56.47 85.03 50.38 84.78 44.54 84.29V87.78C49.08 88.83 63.23 91.35 82.25 87.63V84.15C75.96 84.72 69.37 85.03 62.66 85.03Z" fill="#05E005" style="fill:#05E005;fill:color(display-p3 0.0196 0.8784 0.0196);fill-opacity:1;"/>
<path opacity="0.3" d="M62.66 85.03C56.47 85.03 50.38 84.78 44.54 84.29V87.78C49.08 88.83 63.23 91.35 82.25 87.63V84.15C75.96 84.72 69.37 85.03 62.66 85.03Z" fill="#AB3F2E" style="fill:#AB3F2E;fill:color(display-p3 0.6706 0.2471 0.1804);fill-opacity:1;"/>
<path d="M70.9701 108.27C70.6701 107.53 70.2201 106.87 69.6501 106.31C69.0701 105.74 68.3701 105.25 67.5401 104.83C66.8801 104.5 66.1401 104.19 65.3401 103.91V95.5C65.4901 95.55 65.6501 95.59 65.7901 95.66C66.3001 95.91 66.7301 96.27 67.0801 96.72C67.4301 97.17 67.7001 97.71 67.8801 98.33C67.9501 98.58 68.0101 98.83 68.0501 99.09C68.1701 99.82 68.7701 100.38 69.5101 100.38H69.5501C70.5101 100.38 71.2201 99.53 71.0801 98.59C70.8701 97.16 70.3901 95.97 69.6501 95.02C68.6301 93.72 67.1901 92.94 65.3401 92.68V90.47C65.3401 89.67 64.6901 89.02 63.8901 89.02C63.0901 89.02 62.4401 89.67 62.4401 90.47V92.75C61.7001 92.87 61.0101 93.06 60.3901 93.35C59.6501 93.69 59.0301 94.14 58.5101 94.7C58.0001 95.26 57.6001 95.92 57.3101 96.67C57.0301 97.42 56.8901 98.26 56.8901 99.2C56.8901 100.19 57.0501 101.06 57.3701 101.81C57.6901 102.56 58.1501 103.23 58.7401 103.81C59.3301 104.39 60.0401 104.89 60.8801 105.31C61.3601 105.55 61.8901 105.78 62.4401 105.99V114.66C62.4401 114.66 62.4401 114.66 62.4301 114.67C61.7001 114.54 61.0701 114.25 60.5201 113.79C60.0801 113.42 59.7301 112.93 59.4501 112.32C59.3101 112.01 59.2101 111.67 59.1401 111.28C59.0001 110.56 58.4201 110 57.6801 110H57.5301C56.6201 110 55.9301 110.82 56.0801 111.71C56.1701 112.26 56.3101 112.76 56.5001 113.22C56.8701 114.12 57.3501 114.86 57.9601 115.45C58.5701 116.04 59.2701 116.49 60.0601 116.8C60.8101 117.1 61.6001 117.28 62.4201 117.38V119.12C62.4201 119.92 63.0701 120.57 63.8701 120.57C64.6701 120.57 65.3201 119.92 65.3201 119.12V117.33C66.1601 117.22 66.9401 117.03 67.6401 116.74C68.4301 116.41 69.1001 115.97 69.6601 115.42C70.2101 114.87 70.6401 114.22 70.9501 113.45C71.2501 112.69 71.4101 111.82 71.4101 110.86C71.4201 109.88 71.2701 109.02 70.9701 108.27ZM61.0601 101.81C60.6801 101.46 60.4001 101.06 60.2201 100.63C60.0401 100.2 59.9501 99.71 59.9501 99.15C59.9601 97.96 60.3101 97.02 61.0001 96.32C61.3701 95.94 61.8601 95.67 62.4301 95.5V102.73C61.8801 102.45 61.4201 102.14 61.0601 101.81ZM68.0101 112.54C67.7901 113.02 67.4901 113.43 67.0901 113.77C66.6901 114.11 66.2001 114.37 65.6301 114.54C65.5401 114.57 65.4401 114.58 65.3401 114.6V107.09C66.1301 107.46 66.7701 107.86 67.2301 108.3C67.9801 109.02 68.3501 109.88 68.3301 110.89C68.3301 111.51 68.2201 112.05 68.0101 112.54Z" fill="#404040" style="fill:#404040;fill:color(display-p3 0.2510 0.2510 0.2510);fill-opacity:1;"/>
<path d="M29.75 32.7901C28.08 34.2201 25.6 32.1601 27.16 30.2001C28.32 28.7801 29.88 27.43 31.58 26.4101C36.16 23.4601 41.8 22.51 46.61 23.46C49.06 23.99 48.31 27.1101 46.07 27.1201C40.4 27.0401 34.49 28.9501 29.75 32.7901Z" fill="#312D2D" style="fill:#312D2D;fill:color(display-p3 0.1922 0.1765 0.1765);fill-opacity:1;"/>
<path d="M97.5199 32.7901C99.1899 34.2201 101.67 32.1601 100.11 30.2001C98.9499 28.7801 97.3899 27.43 95.6899 26.4101C91.1099 23.4601 85.4699 22.51 80.6599 23.46C78.2099 23.99 78.9599 27.1101 81.1999 27.1201C86.8699 27.0401 92.7899 28.9501 97.5199 32.7901Z" fill="#312D2D" style="fill:#312D2D;fill:color(display-p3 0.1922 0.1765 0.1765);fill-opacity:1;"/>
<path d="M50.6901 57.3101C50.3901 56.5701 49.9401 55.9101 49.3701 55.3501C48.7901 54.7801 48.0901 54.2901 47.2601 53.8701C46.6001 53.5401 45.8601 53.2301 45.0601 52.9501V44.5401C45.2101 44.5901 45.3701 44.6301 45.5101 44.7001C46.0201 44.9501 46.4501 45.3101 46.8001 45.7601C47.1501 46.2101 47.4201 46.7501 47.6001 47.3701C47.6701 47.6201 47.7301 47.8701 47.7701 48.1301C47.8901 48.8601 48.4901 49.4201 49.2301 49.4201H49.2701C50.2301 49.4201 50.9401 48.5701 50.8001 47.6301C50.5901 46.2001 50.1101 45.0101 49.3701 44.0601C48.3501 42.7601 46.9101 41.9801 45.0601 41.7201V39.5101C45.0601 38.7101 44.4101 38.0601 43.6101 38.0601C42.8101 38.0601 42.1601 38.7101 42.1601 39.5101V41.7901C41.4201 41.9101 40.7301 42.1001 40.1101 42.3901C39.3701 42.7301 38.7501 43.1801 38.2301 43.7401C37.7201 44.3001 37.3201 44.9601 37.0301 45.7101C36.7501 46.4601 36.6101 47.3001 36.6101 48.2401C36.6101 49.2301 36.7701 50.1001 37.0901 50.8501C37.4101 51.6001 37.8701 52.2701 38.4601 52.8501C39.0501 53.4301 39.7601 53.9301 40.6001 54.3501C41.0801 54.5901 41.6101 54.8201 42.1601 55.0301V63.7001C42.1601 63.7001 42.1601 63.7001 42.1501 63.7101C41.4201 63.5801 40.7901 63.2901 40.2401 62.8301C39.8001 62.4601 39.4501 61.9701 39.1701 61.3601C39.0301 61.0501 38.9301 60.7101 38.8601 60.3201C38.7301 59.6001 38.1501 59.0401 37.4101 59.0401H37.2601C36.3501 59.0401 35.6601 59.8601 35.8101 60.7501C35.9001 61.3001 36.0401 61.8001 36.2301 62.2601C36.6001 63.1601 37.0801 63.9001 37.6901 64.4901C38.3001 65.0801 39.0001 65.5301 39.7901 65.8401C40.5401 66.1401 41.3301 66.3201 42.1501 66.4201V68.1601C42.1501 68.9601 42.8001 69.6101 43.6001 69.6101C44.4001 69.6101 45.0501 68.9601 45.0501 68.1601V66.3701C45.8901 66.2601 46.6701 66.0701 47.3701 65.7801C48.1601 65.4501 48.8301 65.0101 49.3901 64.4601C49.9401 63.9101 50.3701 63.2601 50.6801 62.4901C50.9801 61.7301 51.1401 60.8601 51.1401 59.9001C51.1501 58.9201 51.0001 58.0501 50.6901 57.3101ZM40.7901 50.8501C40.4101 50.5001 40.1301 50.1001 39.9501 49.6701C39.7701 49.2401 39.6801 48.7501 39.6801 48.1901C39.6901 47.0001 40.0401 46.0601 40.7301 45.3601C41.1001 44.9801 41.5901 44.7101 42.1601 44.5401V51.7701C41.6101 51.4901 41.1501 51.1801 40.7901 50.8501ZM47.7401 61.5701C47.5201 62.0501 47.2201 62.4601 46.8201 62.8001C46.4201 63.1401 45.9301 63.4001 45.3601 63.5701C45.2701 63.6001 45.1701 63.6101 45.0701 63.6301V56.1201C45.8601 56.4901 46.5001 56.8901 46.9601 57.3301C47.7101 58.0501 48.0801 58.9101 48.0601 59.9201C48.0601 60.5501 47.9501 61.0901 47.7401 61.5701Z" fill="#312D2D" stroke="#312D2D" style="fill:#312D2D;fill:color(display-p3 0.1922 0.1765 0.1765);fill-opacity:1;stroke:#312D2D;stroke:color(display-p3 0.1922 0.1765 0.1765);stroke-opacity:1;" stroke-width="0.5" stroke-miterlimit="10"/>
<defs>
<radialGradient id="paint0_radial_169_4610" cx="0" cy="0" r="1" gradientUnits="userSpaceOnUse" gradientTransform="translate(63.6001 62.8999) scale(56.9597 56.9597)">
<stop offset="0.5" stop-color="#FDE030" style="stop-color:#FDE030;stop-color:color(display-p3 0.9922 0.8784 0.1882);stop-opacity:1;"/>
<stop offset="0.9188" stop-color="#F7C02B" style="stop-color:#F7C02B;stop-color:color(display-p3 0.9686 0.7529 0.1686);stop-opacity:1;"/>
<stop offset="1" stop-color="#F4A223" style="stop-color:#F4A223;stop-color:color(display-p3 0.9569 0.6353 0.1373);stop-opacity:1;"/>
</radialGradient>
<radialGradient id="paint1_radial_169_4610" cx="0" cy="0" r="1" gradientUnits="userSpaceOnUse" gradientTransform="translate(38.5991 34.5377) rotate(-43.2082) scale(102.024 101.825)">
<stop offset="0.3533" stop-color="#F9DDBD" style="stop-color:#F9DDBD;stop-color:color(display-p3 0.9765 0.8667 0.7412);stop-opacity:1;"/>
<stop offset="0.8723" stop-color="#FFD29C" style="stop-color:#FFD29C;stop-color:color(display-p3 1.0000 0.8235 0.6118);stop-opacity:1;"/>
</radialGradient>
</defs>
</svg>
