<svg width="128" height="128" viewBox="0 0 128 128" fill="none" xmlns="http://www.w3.org/2000/svg">
<path d="M63.6 118.8C35.7 118.8 5.59998 101.3 5.59998 62.9C5.59998 24.5 35.7 7 63.6 7C79.1 7 93.4 12.1 104 21.4C115.5 31.6 121.6 46 121.6 62.9C121.6 79.8 115.5 94.1 104 104.3C93.4 113.6 79 118.8 63.6 118.8Z" fill="url(#paint0_radial_169_11684)" style=""/>
<path d="M63.6 118.8C35.7 118.8 5.59998 101.3 5.59998 62.9C5.59998 24.5 35.7 7 63.6 7C79.1 7 93.4 12.1 104 21.4C115.5 31.6 121.6 46 121.6 62.9C121.6 79.8 115.5 94.1 104 104.3C93.4 113.6 79 118.8 63.6 118.8Z" fill="url(#paint1_radial_169_11684)" style=""/>
<path d="M63.6 118.8C35.7 118.8 5.59998 101.3 5.59998 62.9C5.59998 24.5 35.7 7 63.6 7C79.1 7 93.4 12.1 104 21.4C115.5 31.6 121.6 46 121.6 62.9C121.6 79.8 115.5 94.1 104 104.3C93.4 113.6 79 118.8 63.6 118.8Z" fill="url(#paint2_radial_169_11684)" style=""/>
<path d="M63.6 118.8C35.7 118.8 5.59998 101.3 5.59998 62.9C5.59998 24.5 35.7 7 63.6 7C79.1 7 93.4 12.1 104 21.4C115.5 31.6 121.6 46 121.6 62.9C121.6 79.8 115.5 94.1 104 104.3C93.4 113.6 79 118.8 63.6 118.8Z" fill="url(#paint3_radial_169_11684)" style=""/>
<path d="M49.52 41C49.18 40.81 48.85 40.62 48.52 40.46C40.17 36.31 30.04 39.71 25.89 48.06C21.74 56.41 25.14 66.54 33.49 70.69C41.84 74.84 51.97 71.44 56.12 63.09C60.07 55.14 57.19 45.48 49.52 41Z" fill="white" style="fill:white;fill-opacity:1;"/>
<path d="M94.1599 41C93.8199 40.81 93.4799 40.62 93.1599 40.46C84.8399 36.32 74.7499 39.72 70.6099 48.03C66.4699 56.35 69.8699 66.44 78.1799 70.58C86.4999 74.72 96.5899 71.32 100.73 63.01C104.67 55.09 101.8 45.47 94.1599 41Z" fill="white" style="fill:white;fill-opacity:1;"/>
<path d="M69.2346 56.0816C69.857 60.2933 71.9284 64.1584 75.0917 67.0138C76.5917 68.3293 78.3264 69.3695 80.1937 70.0732C82.0509 70.7768 84.0203 71.1236 85.9999 71.093C90.0305 71.093 93.9284 69.6143 96.9387 66.9424C100.102 64.087 102.173 60.222 102.796 56.0102H103C103 65.3923 95.3876 73 85.9999 73C76.6121 73 68.9999 65.3923 68.9999 56.0102C68.9999 56.0102 68.9999 56.0102 68.9999 56L69.2346 56.0816Z" fill="#F4A223" style="fill:#F4A223;fill:color(display-p3 0.9569 0.6353 0.1373);fill-opacity:1;"/>
<path d="M69.2346 56.0816C69.857 60.2933 71.9284 64.1584 75.0917 67.0138C76.5917 68.3293 78.3264 69.3695 80.1937 70.0732C82.0509 70.7768 84.0203 71.1236 85.9999 71.093C90.0305 71.093 93.9284 69.6143 96.9387 66.9424C100.102 64.087 102.173 60.222 102.796 56.0102H103C103 65.3923 95.3876 73 85.9999 73C76.6121 73 68.9999 65.3923 68.9999 56.0102C68.9999 56.0102 68.9999 56.0102 68.9999 56L69.2346 56.0816Z" fill="#F3B872" style="fill:#F3B872;fill:color(display-p3 0.9542 0.7229 0.4453);fill-opacity:1;"/>
<path d="M69.2346 56.0816C69.857 60.2933 71.9284 64.1584 75.0917 67.0138C76.5917 68.3293 78.3264 69.3695 80.1937 70.0732C82.0509 70.7768 84.0203 71.1236 85.9999 71.093C90.0305 71.093 93.9284 69.6143 96.9387 66.9424C100.102 64.087 102.173 60.222 102.796 56.0102H103C103 65.3923 95.3876 73 85.9999 73C76.6121 73 68.9999 65.3923 68.9999 56.0102C68.9999 56.0102 68.9999 56.0102 68.9999 56L69.2346 56.0816Z" fill="#4A2F27" style="fill:#4A2F27;fill:color(display-p3 0.2902 0.1843 0.1529);fill-opacity:1;"/>
<path d="M24.2346 56.0714C24.857 60.2857 26.9285 64.1531 30.0917 67.0102C31.5917 68.3265 33.3264 69.3673 35.1938 70.0714C37.0509 70.7755 39.0203 71.1224 40.9999 71.0918C45.0305 71.0918 48.9182 69.6122 51.9387 66.9388C55.1019 64.0816 57.1734 60.2143 57.7958 56H57.9999C57.9999 65.3878 50.3876 73 40.9999 73C31.6121 73 23.9999 65.398 23.9999 56.0102C23.9999 56.0102 23.9999 56.0102 23.9999 56L24.2346 56.0714Z" fill="#F4A223" style="fill:#F4A223;fill:color(display-p3 0.9569 0.6353 0.1373);fill-opacity:1;"/>
<path d="M24.2346 56.0714C24.857 60.2857 26.9285 64.1531 30.0917 67.0102C31.5917 68.3265 33.3264 69.3673 35.1938 70.0714C37.0509 70.7755 39.0203 71.1224 40.9999 71.0918C45.0305 71.0918 48.9182 69.6122 51.9387 66.9388C55.1019 64.0816 57.1734 60.2143 57.7958 56H57.9999C57.9999 65.3878 50.3876 73 40.9999 73C31.6121 73 23.9999 65.398 23.9999 56.0102C23.9999 56.0102 23.9999 56.0102 23.9999 56L24.2346 56.0714Z" fill="#F3B872" style="fill:#F3B872;fill:color(display-p3 0.9542 0.7229 0.4453);fill-opacity:1;"/>
<path d="M24.2346 56.0714C24.857 60.2857 26.9285 64.1531 30.0917 67.0102C31.5917 68.3265 33.3264 69.3673 35.1938 70.0714C37.0509 70.7755 39.0203 71.1224 40.9999 71.0918C45.0305 71.0918 48.9182 69.6122 51.9387 66.9388C55.1019 64.0816 57.1734 60.2143 57.7958 56H57.9999C57.9999 65.3878 50.3876 73 40.9999 73C31.6121 73 23.9999 65.398 23.9999 56.0102C23.9999 56.0102 23.9999 56.0102 23.9999 56L24.2346 56.0714Z" fill="#4A2F27" style="fill:#4A2F27;fill:color(display-p3 0.2902 0.1843 0.1529);fill-opacity:1;"/>
<path d="M111.49 29.67C116.82 38.27 119.6 48.51 119.6 59.9C119.6 76.8 113.5 91.1 102 101.3C91.3999 110.6 76.9999 115.8 61.5999 115.8C43.5399 115.8 24.5999 108.45 13.4199 92.86C24.1799 110.52 44.4199 118.8 63.5999 118.8C78.9999 118.8 93.3999 113.6 104 104.3C115.5 94.1 121.6 79.8 121.6 62.9C121.6 50.16 118.13 38.84 111.49 29.67Z" fill="#EB8F00" style="fill:#EB8F00;fill:color(display-p3 0.9216 0.5608 0.0000);fill-opacity:1;"/>
<path d="M111.49 29.67C116.82 38.27 119.6 48.51 119.6 59.9C119.6 76.8 113.5 91.1 102 101.3C91.3999 110.6 76.9999 115.8 61.5999 115.8C43.5399 115.8 24.5999 108.45 13.4199 92.86C24.1799 110.52 44.4199 118.8 63.5999 118.8C78.9999 118.8 93.3999 113.6 104 104.3C115.5 94.1 121.6 79.8 121.6 62.9C121.6 50.16 118.13 38.84 111.49 29.67Z" fill="#F3B872" style="fill:#F3B872;fill:color(display-p3 0.9542 0.7229 0.4453);fill-opacity:1;"/>
<path d="M111.49 29.67C116.82 38.27 119.6 48.51 119.6 59.9C119.6 76.8 113.5 91.1 102 101.3C91.3999 110.6 76.9999 115.8 61.5999 115.8C43.5399 115.8 24.5999 108.45 13.4199 92.86C24.1799 110.52 44.4199 118.8 63.5999 118.8C78.9999 118.8 93.3999 113.6 104 104.3C115.5 94.1 121.6 79.8 121.6 62.9C121.6 50.16 118.13 38.84 111.49 29.67Z" fill="#4A2F27" style="fill:#4A2F27;fill:color(display-p3 0.2902 0.1843 0.1529);fill-opacity:1;"/>
<path d="M75 98H53C50.79 98 49 96.21 49 94C49 91.79 50.79 90 53 90H75C77.21 90 79 91.79 79 94C79 96.21 77.21 98 75 98Z" fill="#42312C" style="fill:#42312C;fill:color(display-p3 0.2588 0.1922 0.1725);fill-opacity:1;"/>
<path d="M75 98H53C50.79 98 49 96.21 49 94C49 91.79 50.79 90 53 90H75C77.21 90 79 91.79 79 94C79 96.21 77.21 98 75 98Z" fill="#42312C" style="fill:#42312C;fill:color(display-p3 0.2588 0.1922 0.1725);fill-opacity:1;"/>
<path fill-rule="evenodd" clip-rule="evenodd" d="M49.0599 43.52C49.0599 47.5572 45.7871 50.83 41.7499 50.83C37.7127 50.83 34.4399 47.5572 34.4399 43.52C34.4399 42.2128 34.783 40.9858 35.3841 39.924C39.5099 38.5029 44.1815 38.6729 48.399 40.7691C48.4513 40.7944 48.5036 40.8205 48.5559 40.8473C48.8813 41.6751 49.0599 42.5767 49.0599 43.52ZM93.6899 43.52C93.6899 47.5572 90.4171 50.83 86.3799 50.83C82.3427 50.83 79.0699 47.5572 79.0699 43.52C79.0699 42.2249 79.4067 41.0086 79.9974 39.9536C84.1263 38.5086 88.8112 38.6654 93.039 40.7691C93.087 40.7931 93.1354 40.8178 93.1843 40.843C93.5107 41.672 93.6899 42.5751 93.6899 43.52Z" fill="#42312C" style="fill:#42312C;fill:color(display-p3 0.2588 0.1922 0.1725);fill-opacity:1;"/>
<path fill-rule="evenodd" clip-rule="evenodd" d="M49.0599 43.52C49.0599 47.5572 45.7871 50.83 41.7499 50.83C37.7127 50.83 34.4399 47.5572 34.4399 43.52C34.4399 42.2128 34.783 40.9858 35.3841 39.924C39.5099 38.5029 44.1815 38.6729 48.399 40.7691C48.4513 40.7944 48.5036 40.8205 48.5559 40.8473C48.8813 41.6751 49.0599 42.5767 49.0599 43.52ZM93.6899 43.52C93.6899 47.5572 90.4171 50.83 86.3799 50.83C82.3427 50.83 79.0699 47.5572 79.0699 43.52C79.0699 42.2249 79.4067 41.0086 79.9974 39.9536C84.1263 38.5086 88.8112 38.6654 93.039 40.7691C93.087 40.7931 93.1354 40.8178 93.1843 40.843C93.5107 41.672 93.6899 42.5751 93.6899 43.52Z" fill="#42312C" style="fill:#42312C;fill:color(display-p3 0.2588 0.1922 0.1725);fill-opacity:1;"/>
<defs>
<radialGradient id="paint0_radial_169_11684" cx="0" cy="0" r="1" gradientUnits="userSpaceOnUse" gradientTransform="translate(63.6 62.9) scale(56.9597 56.9597)">
<stop offset="0.5" stop-color="#FDE030" style="stop-color:#FDE030;stop-color:color(display-p3 0.9922 0.8784 0.1882);stop-opacity:1;"/>
<stop offset="0.92" stop-color="#F7C02B" style="stop-color:#F7C02B;stop-color:color(display-p3 0.9686 0.7529 0.1686);stop-opacity:1;"/>
<stop offset="1" stop-color="#F4A223" style="stop-color:#F4A223;stop-color:color(display-p3 0.9569 0.6353 0.1373);stop-opacity:1;"/>
</radialGradient>
<radialGradient id="paint1_radial_169_11684" cx="0" cy="0" r="1" gradientUnits="userSpaceOnUse" gradientTransform="translate(38.599 34.5377) rotate(-43.2082) scale(102.024 101.825)">
<stop offset="0.3533" stop-color="#F9DDBD" style="stop-color:#F9DDBD;stop-color:color(display-p3 0.9765 0.8667 0.7412);stop-opacity:1;"/>
<stop offset="0.8723" stop-color="#FFD29C" style="stop-color:#FFD29C;stop-color:color(display-p3 1.0000 0.8235 0.6118);stop-opacity:1;"/>
</radialGradient>
<radialGradient id="paint2_radial_169_11684" cx="0" cy="0" r="1" gradientUnits="userSpaceOnUse" gradientTransform="translate(38.599 34.5377) rotate(-43.2082) scale(102.024 101.825)">
<stop offset="0.3533" stop-color="#70534A" style="stop-color:#70534A;stop-color:color(display-p3 0.4392 0.3255 0.2902);stop-opacity:1;"/>
<stop offset="0.8723" stop-color="#5C4037" style="stop-color:#5C4037;stop-color:color(display-p3 0.3608 0.2510 0.2157);stop-opacity:1;"/>
</radialGradient>
<radialGradient id="paint3_radial_169_11684" cx="0" cy="0" r="1" gradientUnits="userSpaceOnUse" gradientTransform="translate(38.599 34.5377) rotate(-43.2082) scale(102.024 101.825)">
<stop offset="0.3533" stop-color="#A56C43" style="stop-color:#A56C43;stop-color:color(display-p3 0.6471 0.4235 0.2627);stop-opacity:1;"/>
<stop offset="0.8723" stop-color="#8D5738" style="stop-color:#8D5738;stop-color:color(display-p3 0.5529 0.3412 0.2196);stop-opacity:1;"/>
</radialGradient>
</defs>
</svg>
