<svg width="128" height="129" viewBox="0 0 128 129" fill="none" xmlns="http://www.w3.org/2000/svg">
<path d="M63.6001 119.3C35.7001 119.3 5.6001 101.8 5.6001 63.4C5.6001 25 35.7001 7.5 63.6001 7.5C79.1001 7.5 93.4001 12.6 104 21.9C115.5 32.1 121.6 46.5 121.6 63.4C121.6 80.3 115.5 94.6 104 104.8C93.4001 114.1 79.0001 119.3 63.6001 119.3Z" fill="url(#paint0_radial_96_60)" style=""/>
<path d="M83.7899 92.936C83.4571 92.9682 83.124 92.9257 82.8173 92.79C77.3334 90.5078 71.3514 89.7173 65.4668 90.4811C59.5507 91.1364 53.924 93.344 49.1416 96.8789C48.88 97.083 48.5757 97.214 48.2457 97.2561C47.5209 97.3378 46.8099 96.9877 46.4253 96.3613C46.0435 95.7448 46.0646 94.9687 46.4687 94.3704C54.4108 82.6594 70.3363 79.6067 82.0474 87.5488C83.0063 88.2013 83.9204 88.9203 84.7838 89.686C85.3273 90.1594 85.5446 90.9092 85.3383 91.5998C85.1279 92.3131 84.5189 92.8317 83.7899 92.936Z" fill="#422B0D" style="fill:#422B0D;fill:color(display-p3 0.2588 0.1686 0.0510);fill-opacity:1;"/>
<path d="M80.3507 53.2759C84.5308 53.5642 88.0882 57.3578 87.6837 63.2239C87.2793 69.09 83.2355 72.3495 79.0554 72.0613C74.8753 71.7731 71.3178 67.9794 71.7216 62.1233C72.1254 56.2672 76.1706 52.9877 80.3507 53.2759Z" fill="#422B0D" style="fill:#422B0D;fill:color(display-p3 0.2588 0.1686 0.0510);fill-opacity:1;"/>
<path d="M44.5499 52.5365C40.3698 52.2483 36.3253 55.5179 35.9215 61.3739C35.5178 67.23 39.0745 71.0337 43.2546 71.3219C47.4447 71.6109 51.4792 68.3406 51.8836 62.4746C52.2881 56.6085 48.7399 52.8255 44.5499 52.5365Z" fill="#422B0D" style="fill:#422B0D;fill:color(display-p3 0.2588 0.1686 0.0510);fill-opacity:1;"/>
<path d="M44.8592 54.9715C46.2792 54.2915 47.9892 54.8915 48.6792 56.3115C49.2092 57.4215 48.9692 58.7515 48.0792 59.6115C46.6592 60.2915 44.9492 59.6915 44.2592 58.2715C43.7292 57.1615 43.9692 55.8315 44.8592 54.9715Z" fill="#896024" style="fill:#896024;fill:color(display-p3 0.5373 0.3765 0.1412);fill-opacity:1;"/>
<path d="M81.6795 56.4904C83.1095 55.8204 84.8095 56.4304 85.4895 57.8604C86.0095 58.9704 85.7695 60.2804 84.8895 61.1304C83.4595 61.8004 81.7595 61.1904 81.0795 59.7604C80.5595 58.6604 80.7995 57.3404 81.6795 56.4904Z" fill="#896024" style="fill:#896024;fill:color(display-p3 0.5373 0.3765 0.1412);fill-opacity:1;"/>
<path d="M32.7992 39.8215C32.1883 39.2076 31.9143 38.3273 32.0694 37.4772C32.2537 36.6202 32.8562 35.9194 33.6762 35.6086C38.7751 33.5048 44.4826 33.4557 49.615 35.4585C51.5298 36.1901 53.3162 37.1995 54.9282 38.467C55.0294 38.5454 55.1232 38.636 55.2194 38.7362C56.1289 39.6073 56.2334 41.0222 55.4659 42.0199C54.6491 43.1118 53.145 43.4436 51.9475 42.7859L52.1964 42.0264L51.8412 42.7292C46.7254 40.1978 40.9081 39.4505 35.3271 40.6212C34.4035 40.8439 33.4309 40.5641 32.772 39.8795L32.7992 39.8215Z" fill="#422B0D" style="fill:#422B0D;fill:color(display-p3 0.2588 0.1686 0.0510);fill-opacity:1;"/>
<path d="M89.2732 48.1316C89.8965 47.5595 90.2067 46.7132 90.1071 45.8732C89.9615 45.0134 89.4049 44.2835 88.6099 43.93C83.5919 41.591 77.8584 41.2761 72.6237 43.0731C70.6804 43.7165 68.8486 44.6519 67.182 45.8458L66.8719 46.0954C65.9311 46.9292 65.7665 48.337 66.4879 49.3666C67.2619 50.4863 68.7237 50.8745 69.9486 50.2809L69.7611 49.5032L70.08 50.2286C75.2803 47.905 81.1129 47.3937 86.641 48.7765C87.5581 49.0388 88.5399 48.8021 89.2366 48.1507L89.2732 48.1316Z" fill="#422B0D" style="fill:#422B0D;fill:color(display-p3 0.2588 0.1686 0.0510);fill-opacity:1;"/>
<defs>
<radialGradient id="paint0_radial_96_60" cx="0" cy="0" r="1" gradientUnits="userSpaceOnUse" gradientTransform="translate(63.6001 63.4) scale(56.9597 56.9597)">
<stop offset="0.5" stop-color="#FDE030" style="stop-color:#FDE030;stop-color:color(display-p3 0.9922 0.8784 0.1882);stop-opacity:1;"/>
<stop offset="0.92" stop-color="#F7C02B" style="stop-color:#F7C02B;stop-color:color(display-p3 0.9686 0.7529 0.1686);stop-opacity:1;"/>
<stop offset="1" stop-color="#F4A223" style="stop-color:#F4A223;stop-color:color(display-p3 0.9569 0.6353 0.1373);stop-opacity:1;"/>
</radialGradient>
</defs>
</svg>
