<svg width="128" height="128" viewBox="0 0 128 128" fill="none" xmlns="http://www.w3.org/2000/svg">
<path d="M63.6 118.8C35.7 118.8 5.59998 101.3 5.59998 62.9C5.59998 24.5 35.7 7 63.6 7C79.1 7 93.4 12.1 104 21.4C115.5 31.6 121.6 46 121.6 62.9C121.6 79.8 115.5 94.1 104 104.3C93.4 113.6 79 118.8 63.6 118.8Z" fill="url(#paint0_radial_169_10301)" style=""/>
<path d="M63.6 118.8C35.7 118.8 5.59998 101.3 5.59998 62.9C5.59998 24.5 35.7 7 63.6 7C79.1 7 93.4 12.1 104 21.4C115.5 31.6 121.6 46 121.6 62.9C121.6 79.8 115.5 94.1 104 104.3C93.4 113.6 79 118.8 63.6 118.8Z" fill="url(#paint1_radial_169_10301)" style=""/>
<path d="M63.6 118.8C35.7 118.8 5.59998 101.3 5.59998 62.9C5.59998 24.5 35.7 7 63.6 7C79.1 7 93.4 12.1 104 21.4C115.5 31.6 121.6 46 121.6 62.9C121.6 79.8 115.5 94.1 104 104.3C93.4 113.6 79 118.8 63.6 118.8Z" fill="url(#paint2_radial_169_10301)" style=""/>
<path d="M63.6 118.8C35.7 118.8 5.59998 101.3 5.59998 62.9C5.59998 24.5 35.7 7 63.6 7C79.1 7 93.4 12.1 104 21.4C115.5 31.6 121.6 46 121.6 62.9C121.6 79.8 115.5 94.1 104 104.3C93.4 113.6 79 118.8 63.6 118.8Z" fill="url(#paint3_radial_169_10301)" style=""/>
<path d="M111.49 29.67C116.82 38.27 119.6 48.51 119.6 59.9C119.6 76.8 113.5 91.1 102 101.3C91.3999 110.6 76.9999 115.8 61.5999 115.8C43.5399 115.8 24.5999 108.45 13.4199 92.86C24.1799 110.52 44.4199 118.8 63.5999 118.8C78.9999 118.8 93.3999 113.6 104 104.3C115.5 94.1 121.6 79.8 121.6 62.9C121.6 50.16 118.13 38.84 111.49 29.67Z" fill="#EB8F00" style="fill:#EB8F00;fill:color(display-p3 0.9216 0.5608 0.0000);fill-opacity:1;"/>
<path d="M111.49 29.67C116.82 38.27 119.6 48.51 119.6 59.9C119.6 76.8 113.5 91.1 102 101.3C91.3999 110.6 76.9999 115.8 61.5999 115.8C43.5399 115.8 24.5999 108.45 13.4199 92.86C24.1799 110.52 44.4199 118.8 63.5999 118.8C78.9999 118.8 93.3999 113.6 104 104.3C115.5 94.1 121.6 79.8 121.6 62.9C121.6 50.16 118.13 38.84 111.49 29.67Z" fill="#F3B872" style="fill:#F3B872;fill:color(display-p3 0.9542 0.7229 0.4453);fill-opacity:1;"/>
<path d="M111.49 29.67C116.82 38.27 119.6 48.51 119.6 59.9C119.6 76.8 113.5 91.1 102 101.3C91.3999 110.6 76.9999 115.8 61.5999 115.8C43.5399 115.8 24.5999 108.45 13.4199 92.86C24.1799 110.52 44.4199 118.8 63.5999 118.8C78.9999 118.8 93.3999 113.6 104 104.3C115.5 94.1 121.6 79.8 121.6 62.9C121.6 50.16 118.13 38.84 111.49 29.67Z" fill="#4A2F27" style="fill:#4A2F27;fill:color(display-p3 0.2902 0.1843 0.1529);fill-opacity:1;"/>
<path d="M104.75 79.63L93.1501 76.63C91.0101 76.07 88.8301 77.35 88.2701 79.49C88.2101 79.73 88.1701 79.97 88.1501 80.21L87.5901 87.66L81.0001 83.9C79.0801 82.81 76.6401 83.47 75.5401 85.39C75.4501 85.55 75.3701 85.72 75.3001 85.9L72.6401 92.74L67.4201 86.61C66.6401 85.69 65.4901 85.18 64.2901 85.2H64.0101H63.7401C62.5401 85.18 61.3901 85.69 60.6101 86.61L55.3901 92.74L52.7001 85.92C51.8901 83.87 49.5601 82.86 47.5101 83.68C47.3401 83.75 47.1701 83.83 47.0001 83.92L40.3701 87.68L39.8101 80.23C39.6501 78.03 37.7301 76.37 35.5301 76.53C35.2901 76.55 35.0501 76.59 34.8101 76.65L23.2101 79.65C21.0501 80.12 19.6801 82.25 20.1501 84.41C20.6201 86.5701 22.7501 87.94 24.9101 87.47C25.0101 87.45 25.1101 87.42 25.2001 87.39L32.2001 85.59L32.8701 94.59C33.0201 96.79 34.9301 98.46 37.1401 98.3C37.7501 98.26 38.3401 98.08 38.8701 97.77L46.9701 93.18L50.3801 101.94C50.8901 103.25 52.0501 104.2 53.4401 104.43C53.6601 104.47 53.8901 104.49 54.1101 104.49C55.2701 104.48 56.3601 103.96 57.1101 103.08L64.1901 94.8L64.4901 95.59L70.8601 103C71.6101 103.88 72.7001 104.4 73.8601 104.41C74.0801 104.41 74.3101 104.39 74.5301 104.35C75.9201 104.12 77.0801 103.17 77.5901 101.86L81.0001 93.1L89.1001 97.69C91.0101 98.8 93.4601 98.15 94.5701 96.24C94.8801 95.71 95.0601 95.12 95.1001 94.51L95.7701 85.51L102.77 87.31C104.89 87.94 107.12 86.74 107.75 84.63C108.38 82.51 107.18 80.28 105.07 79.65C104.97 79.62 104.87 79.6 104.78 79.57L104.75 79.63Z" fill="#42312C" style="fill:#42312C;fill:color(display-p3 0.2588 0.1922 0.1725);fill-opacity:1;"/>
<path d="M104.75 79.63L93.1501 76.63C91.0101 76.07 88.8301 77.35 88.2701 79.49C88.2101 79.73 88.1701 79.97 88.1501 80.21L87.5901 87.66L81.0001 83.9C79.0801 82.81 76.6401 83.47 75.5401 85.39C75.4501 85.55 75.3701 85.72 75.3001 85.9L72.6401 92.74L67.4201 86.61C66.6401 85.69 65.4901 85.18 64.2901 85.2H64.0101H63.7401C62.5401 85.18 61.3901 85.69 60.6101 86.61L55.3901 92.74L52.7001 85.92C51.8901 83.87 49.5601 82.86 47.5101 83.68C47.3401 83.75 47.1701 83.83 47.0001 83.92L40.3701 87.68L39.8101 80.23C39.6501 78.03 37.7301 76.37 35.5301 76.53C35.2901 76.55 35.0501 76.59 34.8101 76.65L23.2101 79.65C21.0501 80.12 19.6801 82.25 20.1501 84.41C20.6201 86.5701 22.7501 87.94 24.9101 87.47C25.0101 87.45 25.1101 87.42 25.2001 87.39L32.2001 85.59L32.8701 94.59C33.0201 96.79 34.9301 98.46 37.1401 98.3C37.7501 98.26 38.3401 98.08 38.8701 97.77L46.9701 93.18L50.3801 101.94C50.8901 103.25 52.0501 104.2 53.4401 104.43C53.6601 104.47 53.8901 104.49 54.1101 104.49C55.2701 104.48 56.3601 103.96 57.1101 103.08L64.1901 94.8L64.4901 95.59L70.8601 103C71.6101 103.88 72.7001 104.4 73.8601 104.41C74.0801 104.41 74.3101 104.39 74.5301 104.35C75.9201 104.12 77.0801 103.17 77.5901 101.86L81.0001 93.1L89.1001 97.69C91.0101 98.8 93.4601 98.15 94.5701 96.24C94.8801 95.71 95.0601 95.12 95.1001 94.51L95.7701 85.51L102.77 87.31C104.89 87.94 107.12 86.74 107.75 84.63C108.38 82.51 107.18 80.28 105.07 79.65C104.97 79.62 104.87 79.6 104.78 79.57L104.75 79.63Z" fill="#42312C" style="fill:#42312C;fill:color(display-p3 0.2588 0.1922 0.1725);fill-opacity:1;"/>
<path d="M34.0001 57.4L46.2101 55L33.6601 49.83L33.2401 49.6C31.1901 48.52 30.4101 45.99 31.4901 43.94C31.7501 43.45 32.1001 43.02 32.5201 42.67C34.5201 41.13 37.2701 41.01 39.4001 42.37L60.6701 55.37C61.1901 55.56 61.4501 56.14 61.2601 56.65C61.1301 57 60.8201 57.25 60.4501 57.3L37.5401 65.9C37.3901 65.96 37.2201 66.01 37.0601 66.06C34.0601 66.9 30.7301 65.17 30.2701 62.28C29.9101 60.11 31.6101 58.07 34.0001 57.4Z" fill="#42312C" style="fill:#42312C;fill:color(display-p3 0.2588 0.1922 0.1725);fill-opacity:1;"/>
<path d="M34.0001 57.4L46.2101 55L33.6601 49.83L33.2401 49.6C31.1901 48.52 30.4101 45.99 31.4901 43.94C31.7501 43.45 32.1001 43.02 32.5201 42.67C34.5201 41.13 37.2701 41.01 39.4001 42.37L60.6701 55.37C61.1901 55.56 61.4501 56.14 61.2601 56.65C61.1301 57 60.8201 57.25 60.4501 57.3L37.5401 65.9C37.3901 65.96 37.2201 66.01 37.0601 66.06C34.0601 66.9 30.7301 65.17 30.2701 62.28C29.9101 60.11 31.6101 58.07 34.0001 57.4Z" fill="#42312C" style="fill:#42312C;fill:color(display-p3 0.2588 0.1922 0.1725);fill-opacity:1;"/>
<path d="M96.6501 57.15L84.4801 54.79L97.0001 49.58L97.4101 49.35C99.4601 48.27 100.25 45.74 99.1701 43.69C98.9101 43.2 98.5601 42.77 98.1401 42.42C96.1401 40.88 93.3901 40.76 91.2601 42.12L70.0001 55.16C69.4801 55.35 69.2101 55.92 69.4001 56.44C69.5301 56.79 69.8401 57.04 70.2101 57.09L93.1201 65.69L93.6101 65.85C96.6101 66.69 99.9301 64.96 100.4 62.07C100.78 59.86 99.0701 57.82 96.6501 57.15Z" fill="#42312C" style="fill:#42312C;fill:color(display-p3 0.2588 0.1922 0.1725);fill-opacity:1;"/>
<path d="M96.6501 57.15L84.4801 54.79L97.0001 49.58L97.4101 49.35C99.4601 48.27 100.25 45.74 99.1701 43.69C98.9101 43.2 98.5601 42.77 98.1401 42.42C96.1401 40.88 93.3901 40.76 91.2601 42.12L70.0001 55.16C69.4801 55.35 69.2101 55.92 69.4001 56.44C69.5301 56.79 69.8401 57.04 70.2101 57.09L93.1201 65.69L93.6101 65.85C96.6101 66.69 99.9301 64.96 100.4 62.07C100.78 59.86 99.0701 57.82 96.6501 57.15Z" fill="#42312C" style="fill:#42312C;fill:color(display-p3 0.2588 0.1922 0.1725);fill-opacity:1;"/>
<path d="M57.6701 64.62C41.0001 75.25 20.4301 77.64 6.1701 80.55C4.2901 80.93 3.1701 83.67 4.6101 87.81C7.3401 95.71 12.5401 95.58 11.1401 99.25C7.0001 110.12 15.4401 114.8 22.7301 114.93C32.5901 115.12 31.6401 118.41 35.7301 121.62C39.6401 124.68 44.3901 122.56 44.3901 122.56C62.7201 111.45 69.7901 86.12 69.7801 73.86C69.7701 64.45 62.7301 61.39 57.6701 64.62Z" fill="#F5F5F5" style="fill:#F5F5F5;fill:color(display-p3 0.9608 0.9608 0.9608);fill-opacity:1;"/>
<path d="M6.17005 80.55C5.47005 80.78 4.91005 81.31 4.65005 82C4.39005 82.63 4.27005 83.32 4.30005 84C4.35005 85.4 4.69005 86.78 5.30005 88.05C5.85005 89.34 6.57005 90.56 7.43005 91.67C8.34005 92.76 9.34005 93.76 10.43 94.67C11.1 95.21 11.67 95.85 12.12 96.58C12.24 96.82 12.34 97.07 12.42 97.32C12.49 97.59 12.53 97.86 12.54 98.14C12.54 98.4 12.52 98.67 12.48 98.93L12.3 99.64L11.76 101.64C11.64 102.3 11.56 102.97 11.51 103.64C11.41 104.89 11.58 106.15 12 107.34C12.45 108.46 13.17 109.46 14.08 110.25C15.03 111.08 16.13 111.72 17.31 112.15C18.52 112.63 19.8 112.93 21.1 113.04C21.43 113.09 21.77 113.11 22.1 113.11H23.1C23.87 113.11 24.63 113.11 25.42 113.21C27.08 113.3 28.71 113.66 30.26 114.27C31.11 114.63 31.9 115.1 32.62 115.68C33.26 116.23 33.85 116.83 34.39 117.48C35.18 118.51 36.1 119.43 37.14 120.22C38.0201 120.84 39.06 121.21 40.14 121.29C40.7201 121.33 41.3 121.3 41.8801 121.21C42.1701 121.21 42.4701 121.1 42.75 121.03C43.03 120.96 43.36 120.84 43.51 120.79L43.2901 120.9C47.1501 118.5 50.6301 115.52 53.59 112.07C53.9701 111.63 54.3601 111.22 54.7201 110.77L55.7201 109.39L56.7201 108.02C57.0601 107.55 57.3501 107.02 57.7201 106.58C58.3601 105.58 59.03 104.68 59.59 103.66C60.1501 102.64 60.8 101.66 61.3 100.66C63.48 96.52 65.2901 92.2 66.71 87.74C68.19 83.25 69.2 78.61 69.71 73.91C69.96 78.71 69.55 83.51 68.49 88.2C68.25 89.38 67.94 90.54 67.65 91.71C67.36 92.88 66.9501 94.02 66.6501 95.18C66.3501 96.34 65.8401 97.45 65.4401 98.59C65.0401 99.73 64.44 100.82 64.02 101.94C63.6 103.06 62.95 104.12 62.42 105.22C61.89 106.32 61.25 107.35 60.6301 108.41C60.32 108.93 60.0101 109.41 59.68 109.97L58.62 111.48L57.62 112.98C57.25 113.47 56.84 113.98 56.46 114.42C53.3801 118.31 49.66 121.64 45.46 124.29L45.35 124.35H45.2401C44.8101 124.53 44.37 124.68 43.92 124.81C43.5 124.92 43.0801 125.02 42.6501 125.09C41.7801 125.24 40.9001 125.29 40.0201 125.24C39.1101 125.18 38.21 125.01 37.35 124.72C36.48 124.41 35.66 123.98 34.91 123.44C33.6 122.45 32.42 121.3 31.42 120C31.04 119.52 30.61 119.07 30.16 118.66C29.74 118.32 29.27 118.03 28.77 117.82C27.59 117.37 26.34 117.08 25.08 116.98C24.42 116.89 23.72 116.86 23.02 116.82L21.87 116.74C21.47 116.74 21.07 116.68 20.67 116.61C19.06 116.39 17.49 115.96 16 115.32C14.45 114.69 13.03 113.77 11.83 112.6C10.6 111.39 9.67005 109.91 9.13005 108.27C8.65005 106.65 8.52005 104.95 8.74005 103.27C8.85005 102.5 9.01005 101.75 9.22005 101C9.47005 100.27 9.76005 99.51 10.01 98.82C10.21 98.46 10.25 98.02 10.1 97.63C9.81005 97.08 9.44005 96.58 9.00005 96.15C7.92005 95.08 6.96005 93.9 6.13005 92.62C5.31005 91.33 4.67005 89.93 4.23005 88.47C3.73005 87.03 3.53005 85.51 3.64005 84C3.71005 83.23 3.96005 82.49 4.36005 81.83C4.74005 81.15 5.41005 80.69 6.17005 80.55Z" fill="#BDBDBD" style="fill:#BDBDBD;fill:color(display-p3 0.7412 0.7412 0.7412);fill-opacity:1;"/>
<path d="M30.5001 90.7801C27.6501 91.4901 24.7501 92.0001 21.8301 92.2901C20.3601 92.3401 19.1201 91.1801 19.0701 89.7101C19.0301 88.3801 19.9701 87.2201 21.2901 86.9901C34.0501 85.6901 40.2901 83.0801 50.6701 76.2301C53.5501 74.3701 56.2301 72.2301 58.6701 69.8201C56.1801 74.9701 52.4901 79.4501 47.9101 82.8901C42.8801 86.7001 37.4801 89.0001 30.5001 90.7801Z" fill="#B3B3B3" style="fill:#B3B3B3;fill:color(display-p3 0.7020 0.7020 0.7020);fill-opacity:1;"/>
<path d="M42.21 103.87C41.1 104.21 39.9 103.76 39.29 102.77C38.5 101.55 38.82 99.92 40 99.08C45.8 95.39 50.81 90.58 54.72 84.92C56.64 82.07 59.49 76.92 59.49 76.92C59.15 79.84 58.56 82.72 57.71 85.53C54.22 96.5 44.67 103.09 42.21 103.87Z" fill="#B3B3B3" style="fill:#B3B3B3;fill:color(display-p3 0.7020 0.7020 0.7020);fill-opacity:1;"/>
<defs>
<radialGradient id="paint0_radial_169_10301" cx="0" cy="0" r="1" gradientUnits="userSpaceOnUse" gradientTransform="translate(63.6 62.8999) scale(56.9597 56.9597)">
<stop offset="0.5" stop-color="#FDE030" style="stop-color:#FDE030;stop-color:color(display-p3 0.9922 0.8784 0.1882);stop-opacity:1;"/>
<stop offset="0.92" stop-color="#F7C02B" style="stop-color:#F7C02B;stop-color:color(display-p3 0.9686 0.7529 0.1686);stop-opacity:1;"/>
<stop offset="1" stop-color="#F4A223" style="stop-color:#F4A223;stop-color:color(display-p3 0.9569 0.6353 0.1373);stop-opacity:1;"/>
</radialGradient>
<radialGradient id="paint1_radial_169_10301" cx="0" cy="0" r="1" gradientUnits="userSpaceOnUse" gradientTransform="translate(38.599 34.5377) rotate(-43.2082) scale(102.024 101.825)">
<stop offset="0.3533" stop-color="#F9DDBD" style="stop-color:#F9DDBD;stop-color:color(display-p3 0.9765 0.8667 0.7412);stop-opacity:1;"/>
<stop offset="0.8723" stop-color="#FFD29C" style="stop-color:#FFD29C;stop-color:color(display-p3 1.0000 0.8235 0.6118);stop-opacity:1;"/>
</radialGradient>
<radialGradient id="paint2_radial_169_10301" cx="0" cy="0" r="1" gradientUnits="userSpaceOnUse" gradientTransform="translate(38.599 34.5377) rotate(-43.2082) scale(102.024 101.825)">
<stop offset="0.3533" stop-color="#70534A" style="stop-color:#70534A;stop-color:color(display-p3 0.4392 0.3255 0.2902);stop-opacity:1;"/>
<stop offset="0.8723" stop-color="#5C4037" style="stop-color:#5C4037;stop-color:color(display-p3 0.3608 0.2510 0.2157);stop-opacity:1;"/>
</radialGradient>
<radialGradient id="paint3_radial_169_10301" cx="0" cy="0" r="1" gradientUnits="userSpaceOnUse" gradientTransform="translate(38.599 34.5377) rotate(-43.2082) scale(102.024 101.825)">
<stop offset="0.3533" stop-color="#A56C43" style="stop-color:#A56C43;stop-color:color(display-p3 0.6471 0.4235 0.2627);stop-opacity:1;"/>
<stop offset="0.8723" stop-color="#8D5738" style="stop-color:#8D5738;stop-color:color(display-p3 0.5529 0.3412 0.2196);stop-opacity:1;"/>
</radialGradient>
</defs>
</svg>
