<svg width="128" height="129" viewBox="0 0 128 129" fill="none" xmlns="http://www.w3.org/2000/svg">
<path d="M124 39.025C122.2 40.125 120.3 41.125 118.6 41.825C116.8 42.625 115.1 43.225 113.4 43.825C111.7 44.425 110 44.725 108.3 45.125C106.6 45.525 105 45.625 103.4 45.825C101.8 45.925 100.2 46.025 98.6 46.025C97 46.025 95.5 45.925 94 45.825C92.5 45.725 91 45.525 89.5 45.325C88 45.125 86.6 44.925 85.1 44.625C83.6 44.325 82.2 44.025 80.8 43.725C79.4 43.425 78 43.025 76.6 42.625C75.2 42.225 73.8 41.825 72.4 41.425C71 41.025 69.6 40.625 68.2 40.225C66.8 39.825 65.4 39.425 64 39.025C62.6 38.625 61.2 38.225 59.8 37.825C58.4 37.425 57 37.025 55.6 36.625C54.2 36.225 52.8 35.825 51.4 35.425C50 35.025 48.6 34.725 47.2 34.325C45.8 33.925 44.3 33.725 42.9 33.425C41.4 33.125 40 32.925 38.5 32.725C37 32.525 35.5 32.325 34 32.225C32.5 32.125 30.9 32.025 29.4 32.025C27.9 32.025 26.3 32.125 24.6 32.225C22.9 32.325 21.4 32.625 19.7 32.925C18 33.225 16.4 33.625 14.6 34.225C12.8 34.825 11.1 35.425 9.4 36.225C7.7 37.025 5.8 37.925 4 39.025V34.025C4 34.025 4 28.125 4 26.625V21.625C5.8 20.525 7.7 19.525 9.4 18.825C11.2 18.025 12.9 17.425 14.6 16.825C16.3 16.225 18 15.925 19.7 15.525C21.4 15.225 23 15.025 24.6 14.825C26.2 14.725 27.8 14.625 29.4 14.625C31 14.625 32.5 14.725 34 14.825C35.5 14.925 37 15.125 38.5 15.325C40 15.525 41.5 15.725 42.9 16.025C44.3 16.325 45.8 16.625 47.2 16.925C48.6 17.225 50 17.625 51.4 18.025C52.8 18.425 54.2 18.825 55.6 19.225C57 19.625 58.4 20.025 59.8 20.425C61.2 20.825 62.6 21.225 64 21.625C65.4 22.025 66.8 22.425 68.2 22.825C69.6 23.225 71 23.625 72.4 24.025C73.8 24.425 75.2 24.825 76.6 25.225C78 25.625 79.4 25.925 80.8 26.325C82.2 26.625 83.7 26.925 85.1 27.225C86.5 27.525 88 27.725 89.5 27.925C91 28.125 92.5 28.325 94 28.425C95.5 28.525 97.1 28.625 98.6 28.625C100.1 28.625 101.7 28.525 103.4 28.425C105.1 28.325 106.6 28.025 108.3 27.725C110 27.425 111.6 27.025 113.4 26.425C115.2 25.825 116.9 25.225 118.6 24.425C120.3 23.625 122.2 22.725 124 21.625V26.625V34.025C124 34.025 124 37.125 124 39.025Z" fill="#6F431D" style="fill:#6F431D;fill:color(display-p3 0.4353 0.2627 0.1137);fill-opacity:1;"/>
<path d="M124 50.6133C122.2 51.7133 120.3 52.7133 118.6 53.4133C116.8 54.2133 115.1 54.8133 113.4 55.4133C111.7 56.0133 110 56.3133 108.3 56.7133C106.6 57.1133 105 57.2133 103.4 57.4133C101.8 57.5133 100.2 57.6133 98.6 57.6133C97 57.6133 95.5 57.5133 94 57.4133C92.5 57.3133 91 57.1133 89.5 56.9133C88 56.7133 86.6 56.5133 85.1 56.2133C83.6 55.9133 82.2 55.6133 80.8 55.3133C79.4 55.0133 78 54.6133 76.6 54.2133C75.2 53.8133 73.8 53.4133 72.4 53.0133C71 52.6133 69.6 52.2133 68.2 51.8133C66.8 51.4133 65.4 51.0133 64 50.6133C62.6 50.2133 61.2 49.8133 59.8 49.4133C58.4 49.0133 57 48.6133 55.6 48.2133C54.2 47.8133 52.8 47.4133 51.4 47.0133C50 46.6133 48.6 46.3133 47.2 45.9133C45.8 45.5133 44.3 45.3133 42.9 45.0133C41.4 44.7133 40 44.5133 38.5 44.3133C37 44.1133 35.5 43.9133 34 43.8133C32.5 43.7133 30.9 43.6133 29.4 43.6133C27.9 43.6133 26.3 43.7133 24.6 43.8133C22.9 43.9133 21.4 44.2133 19.7 44.5133C18 44.8133 16.4 45.2133 14.6 45.8133C12.8 46.4133 11.1 47.0133 9.4 47.8133C7.7 48.6133 5.8 49.5133 4 50.6133V45.6133C4 45.6133 4 39.7133 4 38.2133V33.2133C5.8 32.1133 7.7 31.1133 9.4 30.4133C11.2 29.6133 12.9 29.0133 14.6 28.4133C16.3 27.8133 18 27.5133 19.7 27.1133C21.4 26.8133 23 26.6133 24.6 26.4133C26.2 26.3133 27.8 26.2133 29.4 26.2133C31 26.2133 32.5 26.3133 34 26.4133C35.5 26.5133 37 26.7133 38.5 26.9133C40 27.1133 41.5 27.3133 42.9 27.6133C44.3 27.9133 45.8 28.2133 47.2 28.5133C48.6 28.8133 50 29.2133 51.4 29.6133C52.8 30.0133 54.2 30.4133 55.6 30.8133C57 31.2133 58.4 31.6133 59.8 32.0133C61.2 32.4133 62.6 32.8133 64 33.2133C65.4 33.6133 66.8 34.0133 68.2 34.4133C69.6 34.8133 71 35.2133 72.4 35.6133C73.8 36.0133 75.2 36.4133 76.6 36.8133C78 37.2133 79.4 37.5133 80.8 37.9133C82.2 38.2133 83.7 38.5133 85.1 38.8133C86.5 39.1133 88 39.3133 89.5 39.5133C91 39.7133 92.5 39.9133 94 40.0133C95.5 40.1133 97.1 40.2133 98.6 40.2133C100.1 40.2133 101.7 40.1133 103.4 40.0133C105.1 39.9133 106.6 39.6133 108.3 39.3133C110 39.0133 111.6 38.6133 113.4 38.0133C115.2 37.4133 116.9 36.8133 118.6 36.0133C120.3 35.2133 122.2 34.3133 124 33.2133V38.2133V45.6133C124 45.6133 124 48.7133 124 50.6133Z" fill="#DF6800" style="fill:#DF6800;fill:color(display-p3 0.8745 0.4078 0.0000);fill-opacity:1;"/>
<path d="M124 62.2015C122.2 63.3015 120.3 64.3015 118.6 65.0015C116.8 65.8015 115.1 66.4015 113.4 67.0015C111.7 67.6015 110 67.9015 108.3 68.3015C106.6 68.7015 105 68.8015 103.4 69.0015C101.8 69.1015 100.2 69.2015 98.6 69.2015C97 69.2015 95.5 69.1015 94 69.0015C92.5 68.9015 91 68.7015 89.5 68.5015C88 68.3015 86.6 68.1015 85.1 67.8015C83.6 67.5015 82.2 67.2015 80.8 66.9015C79.4 66.6015 78 66.2015 76.6 65.8015C75.2 65.4015 73.8 65.0015 72.4 64.6015C71 64.2015 69.6 63.8015 68.2 63.4015C66.8 63.0015 65.4 62.6015 64 62.2015C62.6 61.8015 61.2 61.4015 59.8 61.0015C58.4 60.6015 57 60.2015 55.6 59.8015C54.2 59.4015 52.8 59.0015 51.4 58.6015C50 58.2015 48.6 57.9015 47.2 57.5015C45.8 57.1015 44.3 56.9015 42.9 56.6015C41.4 56.3015 40 56.1015 38.5 55.9015C37 55.7015 35.5 55.5015 34 55.4015C32.5 55.3015 30.9 55.2015 29.4 55.2015C27.9 55.2015 26.3 55.3015 24.6 55.4015C22.9 55.5015 21.4 55.8015 19.7 56.1015C18 56.4015 16.4 56.8015 14.6 57.4015C12.8 58.0015 11.1 58.6015 9.4 59.4015C7.7 60.2015 5.8 61.1015 4 62.2015V57.2015C4 57.2015 4 51.3015 4 49.8015V44.8015C5.8 43.7015 7.7 42.7015 9.4 42.0015C11.2 41.2015 12.9 40.6015 14.6 40.0015C16.3 39.4015 18 39.1015 19.7 38.7015C21.4 38.4015 23 38.2015 24.6 38.0015C26.2 37.9015 27.8 37.8015 29.4 37.8015C31 37.8015 32.5 37.9015 34 38.0015C35.5 38.1015 37 38.3015 38.5 38.5015C40 38.7015 41.5 38.9015 42.9 39.2015C44.3 39.5015 45.8 39.8015 47.2 40.1015C48.6 40.4015 50 40.8015 51.4 41.2015C52.8 41.6015 54.2 42.0015 55.6 42.4015C57 42.8015 58.4 43.2015 59.8 43.6015C61.2 44.0015 62.6 44.4015 64 44.8015C65.4 45.2015 66.8 45.6015 68.2 46.0015C69.6 46.4015 71 46.8015 72.4 47.2015C73.8 47.6015 75.2 48.0015 76.6 48.4015C78 48.8015 79.4 49.1015 80.8 49.5015C82.2 49.8015 83.7 50.1015 85.1 50.4015C86.5 50.7015 88 50.9015 89.5 51.1015C91 51.3015 92.5 51.5015 94 51.6015C95.5 51.7015 97.1 51.8015 98.6 51.8015C100.1 51.8015 101.7 51.7015 103.4 51.6015C105.1 51.5015 106.6 51.2015 108.3 50.9015C110 50.6015 111.6 50.2015 113.4 49.6015C115.2 49.0015 116.9 48.4015 118.6 47.6015C120.3 46.8015 122.2 45.9015 124 44.8015V49.8015V57.2015C124 57.2015 124 60.3015 124 62.2015Z" fill="#FDCB00" style="fill:#FDCB00;fill:color(display-p3 0.9922 0.7961 0.0000);fill-opacity:1;"/>
<path d="M124 73.7899C122.2 74.8899 120.3 75.8899 118.6 76.5899C116.8 77.3899 115.1 77.9899 113.4 78.5899C111.7 79.1899 110 79.4899 108.3 79.8899C106.6 80.2899 105 80.3899 103.4 80.5899C101.8 80.6899 100.2 80.7899 98.6 80.7899C97 80.7899 95.5 80.6899 94 80.5899C92.5 80.4899 91 80.2899 89.5 80.0899C88 79.8899 86.6 79.6899 85.1 79.3899C83.6 79.0899 82.2 78.7899 80.8 78.4899C79.4 78.1899 78 77.7899 76.6 77.3899C75.2 76.9899 73.8 76.5899 72.4 76.1899C71 75.7899 69.6 75.3899 68.2 74.9899C66.8 74.5899 65.4 74.1899 64 73.7899C62.6 73.3899 61.2 72.9899 59.8 72.5899C58.4 72.1899 57 71.7899 55.6 71.3899C54.2 70.9899 52.8 70.5899 51.4 70.1899C50 69.7899 48.6 69.4899 47.2 69.0899C45.8 68.6899 44.3 68.4899 42.9 68.1899C41.4 67.8899 40 67.6899 38.5 67.4899C37 67.2899 35.5 67.0899 34 66.9899C32.5 66.8899 30.9 66.7899 29.4 66.7899C27.9 66.7899 26.3 66.8899 24.6 66.9899C22.9 67.0899 21.4 67.3899 19.7 67.6899C18 67.9899 16.4 68.3899 14.6 68.9899C12.8 69.5899 11.1 70.1899 9.4 70.9899C7.7 71.7899 5.8 72.6899 4 73.7899V68.7899C4 68.7899 4 62.8899 4 61.3899V56.3899C5.8 55.2899 7.7 54.2899 9.4 53.5899C11.2 52.7899 12.9 52.1899 14.6 51.5899C16.3 50.9899 18 50.6899 19.7 50.2899C21.4 49.9899 23 49.7899 24.6 49.5899C26.2 49.4899 27.8 49.3899 29.4 49.3899C31 49.3899 32.5 49.4899 34 49.5899C35.5 49.6899 37 49.8899 38.5 50.0899C40 50.2899 41.5 50.4899 42.9 50.7899C44.3 51.0899 45.8 51.3899 47.2 51.6899C48.6 51.9899 50 52.3899 51.4 52.7899C52.8 53.1899 54.2 53.5899 55.6 53.9899C57 54.3899 58.4 54.7899 59.8 55.1899C61.2 55.5899 62.6 55.9899 64 56.3899C65.4 56.7899 66.8 57.1899 68.2 57.5899C69.6 57.9899 71 58.3899 72.4 58.7899C73.8 59.1899 75.2 59.5899 76.6 59.9899C78 60.3899 79.4 60.6899 80.8 61.0899C82.2 61.3899 83.7 61.6899 85.1 61.9899C86.5 62.2899 88 62.4899 89.5 62.6899C91 62.8899 92.5 63.0899 94 63.1899C95.5 63.2899 97.1 63.3899 98.6 63.3899C100.1 63.3899 101.7 63.2899 103.4 63.1899C105.1 63.0899 106.6 62.7899 108.3 62.4899C110 62.1899 111.6 61.7899 113.4 61.1899C115.2 60.5899 116.9 59.9899 118.6 59.1899C120.3 58.3899 122.2 57.4899 124 56.3899V61.3899V68.7899C124 68.7899 124 71.8899 124 73.7899Z" fill="#F1D2A6" style="fill:#F1D2A6;fill:color(display-p3 0.9451 0.8235 0.6510);fill-opacity:1;"/>
<path d="M124 85.3782C122.2 86.4782 120.3 87.4781 118.6 88.1781C116.8 88.9781 115.1 89.5781 113.4 90.1781C111.7 90.7781 110 91.0781 108.3 91.4781C106.6 91.8781 105 91.9781 103.4 92.1781C101.8 92.2781 100.2 92.3782 98.6 92.3782C97 92.3782 95.5 92.2781 94 92.1781C92.5 92.0781 91 91.8781 89.5 91.6781C88 91.4781 86.6 91.2781 85.1 90.9781C83.6 90.6782 82.2 90.3781 80.8 90.0781C79.4 89.7781 78 89.3781 76.6 88.9781C75.2 88.5781 73.8 88.1781 72.4 87.7781C71 87.3781 69.6 86.9781 68.2 86.5781C66.8 86.1781 65.4 85.7782 64 85.3782C62.6 84.9782 61.2 84.5781 59.8 84.1781C58.4 83.7781 57 83.3781 55.6 82.9781C54.2 82.5781 52.8 82.1781 51.4 81.7781C50 81.3781 48.6 81.0781 47.2 80.6781C45.8 80.2781 44.3 80.0781 42.9 79.7781C41.4 79.4781 40 79.2781 38.5 79.0781C37 78.8781 35.5 78.6781 34 78.5781C32.5 78.4781 30.9 78.3782 29.4 78.3782C27.9 78.3782 26.3 78.4781 24.6 78.5781C22.9 78.6781 21.4 78.9781 19.7 79.2781C18 79.5781 16.4 79.9781 14.6 80.5781C12.8 81.1781 11.1 81.7781 9.4 82.5781C7.7 83.3781 5.8 84.2782 4 85.3782V80.3782C4 80.3782 4 74.4781 4 72.9781V67.9781C5.8 66.8781 7.7 65.8781 9.4 65.1781C11.2 64.3781 12.9 63.7781 14.6 63.1781C16.3 62.5781 18 62.2782 19.7 61.8782C21.4 61.5782 23 61.3781 24.6 61.1781C26.2 61.0781 27.8 60.9781 29.4 60.9781C31 60.9781 32.5 61.0781 34 61.1781C35.5 61.2781 37 61.4781 38.5 61.6781C40 61.8781 41.5 62.0782 42.9 62.3782C44.3 62.6782 45.8 62.9781 47.2 63.2781C48.6 63.5781 50 63.9782 51.4 64.3782C52.8 64.7782 54.2 65.1781 55.6 65.5781C57 65.9781 58.4 66.3781 59.8 66.7781C61.2 67.1781 62.6 67.5781 64 67.9781C65.4 68.3781 66.8 68.7781 68.2 69.1781C69.6 69.5781 71 69.9782 72.4 70.3782C73.8 70.7782 75.2 71.1781 76.6 71.5781C78 71.9781 79.4 72.2781 80.8 72.6781C82.2 72.9781 83.7 73.2781 85.1 73.5781C86.5 73.8781 88 74.0781 89.5 74.2781C91 74.4781 92.5 74.6781 94 74.7781C95.5 74.8781 97.1 74.9781 98.6 74.9781C100.1 74.9781 101.7 74.8781 103.4 74.7781C105.1 74.6781 106.6 74.3781 108.3 74.0781C110 73.7781 111.6 73.3781 113.4 72.7781C115.2 72.1781 116.9 71.5781 118.6 70.7781C120.3 69.9781 122.2 69.0781 124 67.9781V72.9781V80.3782C124 80.3782 124 83.4782 124 85.3782Z" fill="white" style="fill:white;fill-opacity:1;"/>
<path d="M124 96.9664C122.2 98.0664 120.3 99.0664 118.6 99.7664C116.8 100.566 115.1 101.166 113.4 101.766C111.7 102.366 110 102.666 108.3 103.066C106.6 103.466 105 103.566 103.4 103.766C101.8 103.866 100.2 103.966 98.6 103.966C97 103.966 95.5 103.866 94 103.766C92.5 103.666 91 103.466 89.5 103.266C88 103.066 86.6 102.866 85.1 102.566C83.6 102.266 82.2 101.966 80.8 101.666C79.4 101.366 78 100.966 76.6 100.566C75.2 100.166 73.8 99.7664 72.4 99.3664C71 98.9664 69.6 98.5664 68.2 98.1664C66.8 97.7664 65.4 97.3664 64 96.9664C62.6 96.5664 61.2 96.1664 59.8 95.7664C58.4 95.3664 57 94.9664 55.6 94.5664C54.2 94.1664 52.8 93.7664 51.4 93.3664C50 92.9664 48.6 92.6664 47.2 92.2664C45.8 91.8664 44.3 91.6664 42.9 91.3664C41.4 91.0664 40 90.8664 38.5 90.6664C37 90.4664 35.5 90.2664 34 90.1664C32.5 90.0664 30.9 89.9664 29.4 89.9664C27.9 89.9664 26.3 90.0664 24.6 90.1664C22.9 90.2664 21.4 90.5664 19.7 90.8664C18 91.1664 16.4 91.5664 14.6 92.1664C12.8 92.7664 11.1 93.3664 9.4 94.1664C7.7 94.9664 5.8 95.8664 4 96.9664V91.9664C4 91.9664 4 87.3268 4 85.8268V80.8268C5.8 79.7268 7.7 78.7268 9.4 78.0268C11.2 77.2268 12.9 76.6268 14.6 76.0268C16.3 75.4268 18 75.1268 19.7 74.7268C21.4 74.4268 23 74.2268 24.6 74.0268C26.2 73.9268 27.8 73.8268 29.4 73.8268C31 73.8268 32.5 73.9268 34 74.0268C35.5 74.1268 37 74.3268 38.5 74.5268C40 74.7268 41.5 74.9268 42.9 75.2268C44.3 75.5268 45.8 75.8268 47.2 76.1268C48.6 76.4268 50 76.8268 51.4 77.2268C52.8 77.6268 54.2 78.0268 55.6 78.4268C57 78.8268 58.4 79.2268 59.8 79.6268C61.2 80.0268 62.6 80.4268 64 80.8268C65.4 81.2268 66.8 81.6268 68.2 82.0268C69.6 82.4268 71 82.8268 72.4 83.2268C73.8 83.6268 75.2 84.0268 76.6 84.4268C78 84.8268 79.4 85.1268 80.8 85.5268C82.2 85.8268 83.7 86.1268 85.1 86.4268C86.5 86.7268 88 86.9268 89.5 87.1268C91 87.3268 92.5 87.5268 94 87.6268C95.5 87.7268 97.1 87.8268 98.6 87.8268C100.1 87.8268 101.7 87.7268 103.4 87.6268C105.1 87.5268 106.6 87.2268 108.3 86.9268C110 86.6268 111.6 86.2268 113.4 85.6268C115.2 85.0268 116.9 84.4268 118.6 83.6268C120.3 82.8268 122.2 81.9268 124 80.8268V85.8268V91.9664C124 91.9664 124 95.0664 124 96.9664Z" fill="#A0A0A0" style="fill:#A0A0A0;fill:color(display-p3 0.6275 0.6275 0.6275);fill-opacity:1;"/>
<path d="M124 108.555C122.2 109.655 120.3 110.655 118.6 111.355C116.8 112.155 115.1 112.755 113.4 113.355C111.7 113.955 110 114.255 108.3 114.655C106.6 115.055 105 115.155 103.4 115.355C101.8 115.455 100.2 115.555 98.6 115.555C97 115.555 95.5 115.455 94 115.355C92.5 115.255 91 115.055 89.5 114.855C88 114.655 86.6 114.455 85.1 114.155C83.6 113.855 82.2 113.555 80.8 113.255C79.4 112.955 78 112.555 76.6 112.155C75.2 111.755 73.8 111.355 72.4 110.955C71 110.555 69.6 110.155 68.2 109.755C66.8 109.355 65.4 108.955 64 108.555C62.6 108.155 61.2 107.755 59.8 107.355C58.4 106.955 57 106.555 55.6 106.155C54.2 105.755 52.8 105.355 51.4 104.955C50 104.555 48.6 104.255 47.2 103.855C45.8 103.455 44.3 103.255 42.9 102.955C41.4 102.655 40 102.455 38.5 102.255C37 102.055 35.5 101.855 34 101.755C32.5 101.655 30.9 101.555 29.4 101.555C27.9 101.555 26.3 101.655 24.6 101.755C22.9 101.855 21.4 102.155 19.7 102.455C18 102.755 16.4 103.155 14.6 103.755C12.8 104.355 11.1 104.955 9.4 105.755C7.7 106.555 5.8 107.455 4 108.555V103.555C4 103.555 4 100.457 4 98.9568V93.9568C5.8 92.8568 7.7 91.8568 9.4 91.1568C11.2 90.3568 12.9 89.7568 14.6 89.1568C16.3 88.5568 18 88.2568 19.7 87.8568C21.4 87.5568 23 87.3568 24.6 87.1568C26.2 87.0568 27.8 86.9568 29.4 86.9568C31 86.9568 32.5 87.0568 34 87.1568C35.5 87.2568 37 87.4568 38.5 87.6568C40 87.8568 41.5 88.0568 42.9 88.3568C44.3 88.6568 45.8 88.9568 47.2 89.2568C48.6 89.5568 50 89.9568 51.4 90.3568C52.8 90.7568 54.2 91.1568 55.6 91.5568C57 91.9568 58.4 92.3568 59.8 92.7568C61.2 93.1568 62.6 93.5568 64 93.9568C65.4 94.3568 66.8 94.7568 68.2 95.1568C69.6 95.5568 71 95.9568 72.4 96.3568C73.8 96.7568 75.2 97.1568 76.6 97.5568C78 97.9568 79.4 98.2568 80.8 98.6568C82.2 98.9568 83.7 99.2568 85.1 99.5568C86.5 99.8568 88 100.057 89.5 100.257C91 100.457 92.5 100.657 94 100.757C95.5 100.857 97.1 100.957 98.6 100.957C100.1 100.957 101.7 100.857 103.4 100.757C105.1 100.657 106.6 100.357 108.3 100.057C110 99.7568 111.6 99.3568 113.4 98.7568C115.2 98.1568 116.9 97.5568 118.6 96.7568C120.3 95.9568 122.2 95.0568 124 93.9568V98.9568L124 103.555C124 103.555 124 106.655 124 108.555Z" fill="#333333" style="fill:#333333;fill:color(display-p3 0.2000 0.2000 0.2000);fill-opacity:1;"/>
<path opacity="0.3" d="M124 107.825C122.15 108.945 120.34 109.885 118.57 110.675C116.79 111.475 115.05 112.125 113.33 112.655C111.61 113.185 109.93 113.605 108.27 113.915C106.61 114.235 104.98 114.455 103.38 114.595C101.77 114.735 100.19 114.795 98.63 114.795C97.07 114.795 95.53 114.735 94.01 114.615C92.49 114.505 90.99 114.335 89.51 114.135C88.03 113.925 86.56 113.685 85.11 113.405C83.66 113.125 82.22 112.825 80.79 112.495C79.36 112.165 77.94 111.815 76.54 111.445C75.14 111.075 73.73 110.685 72.33 110.295C70.93 109.895 69.54 109.485 68.16 109.075C66.77 108.665 65.39 108.245 64 107.825C62.62 107.405 61.23 106.985 59.84 106.575C58.45 106.165 57.06 105.755 55.67 105.355C54.27 104.955 52.87 104.575 51.46 104.205C50.05 103.835 48.63 103.485 47.21 103.155C45.79 102.825 44.34 102.515 42.89 102.245C41.44 101.965 39.97 101.725 38.49 101.515C37.01 101.305 35.51 101.145 33.99 101.035C32.47 100.925 30.93 100.855 29.37 100.855C27.81 100.855 26.23 100.915 24.62 101.055C23.01 101.195 21.38 101.415 19.73 101.735C18.07 102.055 16.39 102.465 14.67 102.995C12.95 103.525 11.21 104.175 9.43 104.975C7.65 105.775 5.84 106.715 4 107.825V102.215V96.8951V91.8251V86.9651V82.2851C4 82.2851 4 79.2351 4 77.7451V73.3151C4 73.3151 4 70.3951 4 68.9551C4 67.5151 4 66.0651 4 64.6251V60.2951V55.9351V51.5051C4 51.5051 4 48.5051 4 46.9651C4 45.4251 4 43.8751 4 42.2851V37.4251C4 37.4251 4 34.0851 4 32.3551V27.0351V21.4251C5.85 20.3051 7.66 19.3651 9.43 18.5751C11.2 17.7851 12.95 17.1251 14.67 16.5951C16.39 16.0651 18.07 15.6451 19.73 15.3351C21.39 15.0151 23.02 14.7951 24.62 14.6551C26.23 14.5151 27.81 14.4551 29.37 14.4551C30.93 14.4551 32.47 14.5151 33.99 14.6351C35.51 14.7451 37.01 14.9151 38.49 15.1151C39.97 15.3151 41.44 15.5651 42.89 15.8451C44.34 16.1251 45.78 16.4251 47.21 16.7551C48.64 17.0851 50.06 17.4351 51.46 17.8051C52.87 18.1751 54.27 18.5651 55.67 18.9551C57.07 19.3451 58.46 19.7651 59.84 20.1751C61.22 20.5851 62.61 21.0051 64 21.4251C65.38 21.8451 66.77 22.2651 68.16 22.6751C69.55 23.0851 70.94 23.4951 72.33 23.8951C73.72 24.2951 75.13 24.6751 76.54 25.0451C77.95 25.4151 79.37 25.7651 80.79 26.0951C82.22 26.4251 83.66 26.7351 85.11 27.0051C86.56 27.2851 88.03 27.5251 89.51 27.7351C90.99 27.9451 92.49 28.1051 94.01 28.2151C95.53 28.3251 97.07 28.3951 98.63 28.3951C100.19 28.3951 101.77 28.3351 103.38 28.1951C104.99 28.0551 106.62 27.8351 108.27 27.5151C109.93 27.1951 111.61 26.7851 113.33 26.2551C115.05 25.7251 116.79 25.0751 118.57 24.2751C120.35 23.4751 122.16 22.5351 124 21.4251V27.0351V32.3551V37.4251C124 37.4251 124 40.6951 124 42.2851V46.9651C124 46.9651 124 50.0151 124 51.5051C124 52.9951 124 54.4751 124 55.9351V60.2951V64.6251V68.9551C124 68.9551 124 71.8551 124 73.3151C124 74.7751 124 76.2551 124 77.7451V82.2851C124 82.2851 124 85.3751 124 86.9651V91.8251V96.8951V102.215V107.825Z" fill="url(#paint0_linear_43_34)" style=""/>
<defs>
<linearGradient id="paint0_linear_43_34" x1="5.3703" y1="23.2841" x2="122.37" y2="105.785" gradientUnits="userSpaceOnUse">
<stop stop-color="white" stop-opacity="0" style="stop-color:none;stop-opacity:0;"/>
<stop offset="0.1646" stop-color="#C8C8C8" stop-opacity="0.1646" style="stop-color:#C8C8C8;stop-color:color(display-p3 0.7843 0.7843 0.7843);stop-opacity:0.1646;"/>
<stop offset="0.3934" stop-color="#828282" stop-opacity="0.3934" style="stop-color:#828282;stop-color:color(display-p3 0.5098 0.5098 0.5098);stop-opacity:0.3934;"/>
<stop offset="0.5997" stop-color="#4A4A4A" stop-opacity="0.5997" style="stop-color:#4A4A4A;stop-color:color(display-p3 0.2902 0.2902 0.2902);stop-opacity:0.5997;"/>
<stop offset="0.7759" stop-color="#222222" stop-opacity="0.7759" style="stop-color:#222222;stop-color:color(display-p3 0.1333 0.1333 0.1333);stop-opacity:0.7759;"/>
<stop offset="0.9151" stop-color="#090909" stop-opacity="0.9151" style="stop-color:#090909;stop-color:color(display-p3 0.0353 0.0353 0.0353);stop-opacity:0.9151;"/>
<stop offset="1" style="stop-color:black;stop-opacity:1;"/>
</linearGradient>
</defs>
</svg>
