<svg width="128" height="128" viewBox="0 0 128 128" fill="none" xmlns="http://www.w3.org/2000/svg">
<path d="M63.6001 118.8C35.7001 118.8 5.6001 101.3 5.6001 62.9C5.6001 24.5 35.7001 7 63.6001 7C79.1001 7 93.4001 12.1 104 21.4C115.5 31.6 121.6 46 121.6 62.9C121.6 79.8 115.5 94.1 104 104.3C93.4001 113.6 79.0001 118.8 63.6001 118.8Z" fill="url(#paint0_radial_169_13490)" style=""/>
<path d="M63.6001 118.8C35.7001 118.8 5.6001 101.3 5.6001 62.9C5.6001 24.5 35.7001 7 63.6001 7C79.1001 7 93.4001 12.1 104 21.4C115.5 31.6 121.6 46 121.6 62.9C121.6 79.8 115.5 94.1 104 104.3C93.4001 113.6 79.0001 118.8 63.6001 118.8Z" fill="url(#paint1_radial_169_13490)" style=""/>
<path d="M63.6001 118.8C35.7001 118.8 5.6001 101.3 5.6001 62.9C5.6001 24.5 35.7001 7 63.6001 7C79.1001 7 93.4001 12.1 104 21.4C115.5 31.6 121.6 46 121.6 62.9C121.6 79.8 115.5 94.1 104 104.3C93.4001 113.6 79.0001 118.8 63.6001 118.8Z" fill="url(#paint2_radial_169_13490)" style=""/>
<path d="M63.6001 118.8C35.7001 118.8 5.6001 101.3 5.6001 62.9C5.6001 24.5 35.7001 7 63.6001 7C79.1001 7 93.4001 12.1 104 21.4C115.5 31.6 121.6 46 121.6 62.9C121.6 79.8 115.5 94.1 104 104.3C93.4001 113.6 79.0001 118.8 63.6001 118.8Z" fill="url(#paint3_radial_169_13490)" style=""/>
<path d="M63.6001 118.8C35.7001 118.8 5.6001 101.3 5.6001 62.9C5.6001 24.5 35.7001 7 63.6001 7C79.1001 7 93.4001 12.1 104 21.4C115.5 31.6 121.6 46 121.6 62.9C121.6 79.8 115.5 94.1 104 104.3C93.4001 113.6 79.0001 118.8 63.6001 118.8Z" fill="url(#paint4_radial_169_13490)" style=""/>
<path d="M111.49 29.67C116.82 38.27 119.6 48.51 119.6 59.9C119.6 76.8 113.5 91.1 102 101.3C91.3999 110.6 76.9999 115.8 61.5999 115.8C43.5399 115.8 24.5999 108.45 13.4199 92.86C24.1799 110.52 44.4199 118.8 63.5999 118.8C78.9999 118.8 93.3999 113.6 104 104.3C115.5 94.1001 121.6 79.8 121.6 62.9C121.6 50.16 118.13 38.84 111.49 29.67Z" fill="#EB8F00" style="fill:#EB8F00;fill:color(display-p3 0.9216 0.5608 0.0000);fill-opacity:1;"/>
<path d="M111.49 29.67C116.82 38.27 119.6 48.51 119.6 59.9C119.6 76.8 113.5 91.1 102 101.3C91.3999 110.6 76.9999 115.8 61.5999 115.8C43.5399 115.8 24.5999 108.45 13.4199 92.86C24.1799 110.52 44.4199 118.8 63.5999 118.8C78.9999 118.8 93.3999 113.6 104 104.3C115.5 94.1001 121.6 79.8 121.6 62.9C121.6 50.16 118.13 38.84 111.49 29.67Z" fill="#F3B872" style="fill:#F3B872;fill:color(display-p3 0.9542 0.7229 0.4453);fill-opacity:1;"/>
<path d="M111.49 29.67C116.82 38.27 119.6 48.51 119.6 59.9C119.6 76.8 113.5 91.1 102 101.3C91.3999 110.6 76.9999 115.8 61.5999 115.8C43.5399 115.8 24.5999 108.45 13.4199 92.86C24.1799 110.52 44.4199 118.8 63.5999 118.8C78.9999 118.8 93.3999 113.6 104 104.3C115.5 94.1001 121.6 79.8 121.6 62.9C121.6 50.16 118.13 38.84 111.49 29.67Z" fill="#91674D" style="fill:#91674D;fill:color(display-p3 0.5686 0.4039 0.3020);fill-opacity:1;"/>
<path opacity="0.5" d="M27.2002 99.7C36.8652 99.7 44.7002 91.8649 44.7002 82.2C44.7002 72.535 36.8652 64.7 27.2002 64.7C17.5352 64.7 9.7002 72.535 9.7002 82.2C9.7002 91.8649 17.5352 99.7 27.2002 99.7Z" fill="url(#paint5_radial_169_13490)" style=""/>
<path opacity="0.8" d="M94.8804 99.7C104.545 99.7 112.38 91.8649 112.38 82.2C112.38 72.535 104.545 64.7 94.8804 64.7C85.2154 64.7 77.3804 72.535 77.3804 82.2C77.3804 91.8649 85.2154 99.7 94.8804 99.7Z" fill="url(#paint6_radial_169_13490)" style=""/>
<path opacity="0.5" d="M99.8003 99.7C109.465 99.7 117.3 91.8649 117.3 82.2C117.3 72.535 109.465 64.7 99.8003 64.7C90.1353 64.7 82.3003 72.535 82.3003 82.2C82.3003 91.8649 90.1353 99.7 99.8003 99.7Z" fill="url(#paint7_radial_169_13490)" style=""/>
<path d="M56 96H71" stroke="#35220B" style="stroke:#35220B;stroke:color(display-p3 0.2078 0.1333 0.0431);stroke-opacity:1;" stroke-width="8" stroke-linecap="round" stroke-linejoin="round"/>
<path d="M89.2003 41.7999C98.8103 41.7999 106.6 49.5899 106.6 59.1999C106.6 68.8099 98.8103 76.5999 89.2003 76.5999C79.5903 76.5999 71.8003 68.8099 71.8003 59.1999C71.8103 49.5899 79.5903 41.8099 89.2003 41.7999Z" fill="white" style="fill:white;fill-opacity:1;"/>
<path d="M89.2002 66.8C93.3423 66.8 96.7002 63.3973 96.7002 59.2C96.7002 55.0026 93.3423 51.6 89.2002 51.6C85.0581 51.6 81.7002 55.0026 81.7002 59.2C81.7002 63.3973 85.0581 66.8 89.2002 66.8Z" fill="#49362E" style="fill:#49362E;fill:color(display-p3 0.2863 0.2118 0.1804);fill-opacity:1;"/>
<path d="M89.2002 66.8C93.3423 66.8 96.7002 63.3973 96.7002 59.2C96.7002 55.0026 93.3423 51.6 89.2002 51.6C85.0581 51.6 81.7002 55.0026 81.7002 59.2C81.7002 63.3973 85.0581 66.8 89.2002 66.8Z" fill="#1A1717" style="fill:#1A1717;fill:color(display-p3 0.1020 0.0902 0.0902);fill-opacity:1;"/>
<path d="M89.2002 66.8C93.3423 66.8 96.7002 63.3973 96.7002 59.2C96.7002 55.0026 93.3423 51.6 89.2002 51.6C85.0581 51.6 81.7002 55.0026 81.7002 59.2C81.7002 63.3973 85.0581 66.8 89.2002 66.8Z" fill="#49362E" style="fill:#49362E;fill:color(display-p3 0.2863 0.2118 0.1804);fill-opacity:1;"/>
<path d="M38.7003 41.7C48.3103 41.7 56.1003 49.4899 56.1003 59.0999C56.1003 68.7099 48.3103 76.5 38.7003 76.5C29.0903 76.5 21.3003 68.7099 21.3003 59.0999C21.3103 49.4899 29.0903 41.71 38.7003 41.7Z" fill="white" style="fill:white;fill-opacity:1;"/>
<path d="M38.7002 66.7C42.8423 66.7 46.2002 63.2974 46.2002 59.1C46.2002 54.9026 42.8423 51.5 38.7002 51.5C34.5581 51.5 31.2002 54.9026 31.2002 59.1C31.2002 63.2974 34.5581 66.7 38.7002 66.7Z" fill="#49362E" style="fill:#49362E;fill:color(display-p3 0.2863 0.2118 0.1804);fill-opacity:1;"/>
<path d="M38.7002 66.7C42.8423 66.7 46.2002 63.2974 46.2002 59.1C46.2002 54.9026 42.8423 51.5 38.7002 51.5C34.5581 51.5 31.2002 54.9026 31.2002 59.1C31.2002 63.2974 34.5581 66.7 38.7002 66.7Z" fill="#1A1717" style="fill:#1A1717;fill:color(display-p3 0.1020 0.0902 0.0902);fill-opacity:1;"/>
<path d="M38.7002 66.7C42.8423 66.7 46.2002 63.2974 46.2002 59.1C46.2002 54.9026 42.8423 51.5 38.7002 51.5C34.5581 51.5 31.2002 54.9026 31.2002 59.1C31.2002 63.2974 34.5581 66.7 38.7002 66.7Z" fill="#49362E" style="fill:#49362E;fill:color(display-p3 0.2863 0.2118 0.1804);fill-opacity:1;"/>
<path d="M46.5602 27.27H46.6602C47.6102 27.62 48.6602 27.13 49.0102 26.18C49.3602 25.23 48.8702 24.18 47.9202 23.83C46.1302 23.03 44.2302 22.52 42.2802 22.33C37.0302 21.7 31.7302 23.1 27.4802 26.25C25.4802 27.76 27.5502 30.31 29.5302 29.31C34.8202 26.74 40.8202 26.02 46.5602 27.27Z" fill="#49362E" style="fill:#49362E;fill:color(display-p3 0.2863 0.2118 0.1804);fill-opacity:1;"/>
<path d="M46.5602 27.27H46.6602C47.6102 27.62 48.6602 27.13 49.0102 26.18C49.3602 25.23 48.8702 24.18 47.9202 23.83C46.1302 23.03 44.2302 22.52 42.2802 22.33C37.0302 21.7 31.7302 23.1 27.4802 26.25C25.4802 27.76 27.5502 30.31 29.5302 29.31C34.8202 26.74 40.8202 26.02 46.5602 27.27Z" fill="#613E31" style="fill:#613E31;fill:color(display-p3 0.3804 0.2431 0.1922);fill-opacity:1;"/>
<path d="M80.86 27.27H80.76C79.81 27.62 78.76 27.13 78.41 26.18C78.06 25.23 78.55 24.18 79.5 23.83C81.29 23.03 83.19 22.52 85.14 22.33C90.39 21.7 95.69 23.1 99.94 26.25C101.94 27.76 99.87 30.31 97.94 29.31C92.64 26.73 86.62 26.01 80.86 27.27Z" fill="#49362E" style="fill:#49362E;fill:color(display-p3 0.2863 0.2118 0.1804);fill-opacity:1;"/>
<path d="M80.86 27.27H80.76C79.81 27.62 78.76 27.13 78.41 26.18C78.06 25.23 78.55 24.18 79.5 23.83C81.29 23.03 83.19 22.52 85.14 22.33C90.39 21.7 95.69 23.1 99.94 26.25C101.94 27.76 99.87 30.31 97.94 29.31C92.64 26.73 86.62 26.01 80.86 27.27Z" fill="#613E31" style="fill:#613E31;fill:color(display-p3 0.3804 0.2431 0.1922);fill-opacity:1;"/>
<defs>
<radialGradient id="paint0_radial_169_13490" cx="0" cy="0" r="1" gradientUnits="userSpaceOnUse" gradientTransform="translate(63.6001 62.9) scale(56.9597 56.9597)">
<stop offset="0.5" stop-color="#FDE030" style="stop-color:#FDE030;stop-color:color(display-p3 0.9922 0.8784 0.1882);stop-opacity:1;"/>
<stop offset="0.92" stop-color="#F7C02B" style="stop-color:#F7C02B;stop-color:color(display-p3 0.9686 0.7529 0.1686);stop-opacity:1;"/>
<stop offset="1" stop-color="#F4A223" style="stop-color:#F4A223;stop-color:color(display-p3 0.9569 0.6353 0.1373);stop-opacity:1;"/>
</radialGradient>
<radialGradient id="paint1_radial_169_13490" cx="0" cy="0" r="1" gradientUnits="userSpaceOnUse" gradientTransform="translate(38.5991 34.5377) rotate(-43.2082) scale(102.024 101.825)">
<stop offset="0.3533" stop-color="#F9DDBD" style="stop-color:#F9DDBD;stop-color:color(display-p3 0.9765 0.8667 0.7412);stop-opacity:1;"/>
<stop offset="0.8723" stop-color="#FFD29C" style="stop-color:#FFD29C;stop-color:color(display-p3 1.0000 0.8235 0.6118);stop-opacity:1;"/>
</radialGradient>
<radialGradient id="paint2_radial_169_13490" cx="0" cy="0" r="1" gradientUnits="userSpaceOnUse" gradientTransform="translate(38.5991 34.5377) rotate(-43.2082) scale(102.024 101.825)">
<stop offset="0.3533" stop-color="#70534A" style="stop-color:#70534A;stop-color:color(display-p3 0.4392 0.3255 0.2902);stop-opacity:1;"/>
<stop offset="0.8723" stop-color="#5C4037" style="stop-color:#5C4037;stop-color:color(display-p3 0.3608 0.2510 0.2157);stop-opacity:1;"/>
</radialGradient>
<radialGradient id="paint3_radial_169_13490" cx="0" cy="0" r="1" gradientUnits="userSpaceOnUse" gradientTransform="translate(38.5991 34.5377) rotate(-43.2082) scale(102.024 101.825)">
<stop offset="0.3533" stop-color="#A37A58" style="stop-color:#A37A58;stop-color:color(display-p3 0.6375 0.4772 0.3453);stop-opacity:1;"/>
<stop offset="0.8723" stop-color="#8D5738" style="stop-color:#8D5738;stop-color:color(display-p3 0.5529 0.3412 0.2196);stop-opacity:1;"/>
</radialGradient>
<radialGradient id="paint4_radial_169_13490" cx="0" cy="0" r="1" gradientUnits="userSpaceOnUse" gradientTransform="translate(38.5991 34.5377) rotate(-43.2082) scale(102.024 101.825)">
<stop offset="0.3533" stop-color="#AD8264" style="stop-color:#AD8264;stop-color:color(display-p3 0.6784 0.5098 0.3922);stop-opacity:1;"/>
<stop offset="0.8723" stop-color="#A47B62" style="stop-color:#A47B62;stop-color:color(display-p3 0.6431 0.4824 0.3843);stop-opacity:1;"/>
</radialGradient>
<radialGradient id="paint5_radial_169_13490" cx="0" cy="0" r="1" gradientUnits="userSpaceOnUse" gradientTransform="translate(27.3224 82.047) scale(19.0512 18.0792)">
<stop stop-color="#ED7770" style="stop-color:#ED7770;stop-color:color(display-p3 0.9294 0.4667 0.4392);stop-opacity:1;"/>
<stop offset="0.9" stop-color="#ED7770" stop-opacity="0" style="stop-color:none;stop-opacity:0;"/>
</radialGradient>
<radialGradient id="paint6_radial_169_13490" cx="0" cy="0" r="1" gradientUnits="userSpaceOnUse" gradientTransform="translate(95.001 82.047) scale(19.0512 18.0792)">
<stop stop-color="#ED7770" style="stop-color:#ED7770;stop-color:color(display-p3 0.9294 0.4667 0.4392);stop-opacity:1;"/>
<stop offset="0.9" stop-color="#ED7770" stop-opacity="0" style="stop-color:none;stop-opacity:0;"/>
</radialGradient>
<radialGradient id="paint7_radial_169_13490" cx="0" cy="0" r="1" gradientUnits="userSpaceOnUse" gradientTransform="translate(147.43 1053.9) scale(19.44)">
<stop stop-color="#ED7770" style="stop-color:#ED7770;stop-color:color(display-p3 0.9294 0.4667 0.4392);stop-opacity:1;"/>
<stop offset="0.9" stop-color="#ED7770" stop-opacity="0" style="stop-color:none;stop-opacity:0;"/>
</radialGradient>
</defs>
</svg>
