<svg width="129" height="128" viewBox="0 0 129 128" fill="none" xmlns="http://www.w3.org/2000/svg">
<path d="M116.5 124H12.5C8.08 124 4.5 120.42 4.5 116V12C4.5 7.58 8.08 4 12.5 4H116.5C120.92 4 124.5 7.58 124.5 12V116C124.5 120.42 120.92 124 116.5 124Z" fill="url(#paint0_linear_124_10817)" style=""/>
<path opacity="0.2" d="M116.5 7C119.26 7 121.5 9.24 121.5 12V116C121.5 118.76 119.26 121 116.5 121H12.5C9.74 121 7.5 118.76 7.5 116V12C7.5 9.24 9.74 7 12.5 7H116.5ZM116.5 4H12.5C8.08 4 4.5 7.58 4.5 12V116C4.5 120.42 8.08 124 12.5 124H116.5C120.92 124 124.5 120.42 124.5 116V12C124.5 7.58 120.92 4 116.5 4Z" fill="#424242" style="fill:#424242;fill:color(display-p3 0.2588 0.2588 0.2588);fill-opacity:1;"/>
<path opacity="0.2" d="M87.04 36C91.99 36 96.38 37.1 100.21 39.31C104.04 41.52 107.01 44.64 109.11 48.69C111.21 52.74 112.26 57.38 112.26 62.61V65.42C112.26 70.73 111.2 75.39 109.09 79.42C106.97 83.45 103.96 86.55 100.05 88.73C96.15 90.91 91.67 92 86.62 92H72.5C71.4 92 70.5 91.1 70.5 90V38C70.5 36.9 71.4 36 72.5 36H87.04ZM82.23 84.15H86.58C91.68 84.15 95.6 82.56 98.33 79.37C101.06 76.18 102.45 71.61 102.5 65.65V62.54C102.5 56.48 101.18 51.84 98.54 48.64C95.9 45.44 92.07 43.84 87.04 43.84H82.23C81.13 43.84 80.23 44.74 80.23 45.84V82.15C80.23 83.26 81.13 84.15 82.23 84.15ZM87.04 33H72.5C69.74 33 67.5 35.24 67.5 38V90C67.5 92.76 69.74 95 72.5 95H86.61C92.16 95 97.17 93.77 101.51 91.35C105.92 88.89 109.36 85.35 111.74 80.82C114.07 76.38 115.26 71.2 115.26 65.42V62.61C115.26 56.92 114.09 51.77 111.77 47.3C109.41 42.75 106.02 39.18 101.7 36.7C97.43 34.25 92.5 33 87.04 33ZM83.23 46.85H87.04C91.16 46.85 94.17 48.06 96.23 50.56C98.4 53.19 99.51 57.23 99.51 62.55V65.66C99.47 70.84 98.3 74.81 96.06 77.43C93.91 79.94 90.81 81.16 86.59 81.16H83.24V46.85H83.23Z" fill="#424242" style="fill:#424242;fill:color(display-p3 0.2588 0.2588 0.2588);fill-opacity:1;"/>
<path d="M116.5 4H12.5C8.08 4 4.5 7.58 4.5 12V116C4.5 120.42 8.08 124 12.5 124H116.5C120.92 124 124.5 120.42 124.5 116V12C124.5 7.58 120.92 4 116.5 4Z" fill="#8E24AA" style="fill:#8E24AA;fill:color(display-p3 0.5569 0.1412 0.6667);fill-opacity:1;"/>
<path d="M110.2 4H12C7.87002 4.03 4.53002 7.37 4.50002 11.5V109.4C4.49002 113.54 7.84002 116.89 11.98 116.9C11.99 116.9 11.99 116.9 12 116.9H110.1C114.24 116.91 117.59 113.56 117.6 109.42C117.6 109.41 117.6 109.41 117.6 109.4V11.5C117.69 7.45 114.47 4.09 110.42 4C110.35 4 110.27 4 110.2 4Z" fill="#AB47BC" style="fill:#AB47BC;fill:color(display-p3 0.6706 0.2784 0.7373);fill-opacity:1;"/>
<path opacity="0.3" d="M40.2001 12.9C40.2001 10.6 38.6001 9.9 29.4001 10.2C21.7001 10.5 17.9001 11.4 15.6001 14.2C13.3001 17 12.7001 22.7 12.6001 29.5C12.6001 34.3 12.6001 38.8 15.1001 38.8C18.5001 38.8 18.5001 30.9 21.3001 26.5C26.7001 17.8 40.2001 15.9 40.2001 12.9Z" fill="#FAFAFA" style="fill:#FAFAFA;fill:color(display-p3 0.9804 0.9804 0.9804);fill-opacity:1;"/>
<path d="M70.5 90V38C70.5 36.9 71.4 36 72.5 36H87.04C91.99 36 96.38 37.1 100.21 39.31C104.04 41.52 107.01 44.64 109.11 48.69C111.21 52.74 112.26 57.38 112.26 62.61V65.42C112.26 70.73 111.2 75.39 109.09 79.42C106.97 83.45 103.96 86.55 100.05 88.73C96.15 90.91 91.67 92 86.62 92H72.5C71.4 92 70.5 91.1 70.5 90ZM80.23 45.85V82.16C80.23 83.26 81.13 84.16 82.23 84.16H86.58C91.68 84.16 95.6 82.57 98.33 79.38C101.06 76.19 102.45 71.62 102.5 65.66V62.55C102.5 56.49 101.18 51.85 98.54 48.65C95.9 45.45 92.07 43.85 87.04 43.85H82.23C81.13 43.85 80.23 44.74 80.23 45.85Z" fill="#FAFAFA" style="fill:#FAFAFA;fill:color(display-p3 0.9804 0.9804 0.9804);fill-opacity:1;"/>
<path d="M34.0901 60.8449C34.0901 60.2926 34.5378 59.8449 35.0901 59.8449H39.6056C42.3882 59.82 44.587 59.0963 46.2019 57.6738C47.8416 56.2513 48.6615 54.1925 48.6615 51.4973C48.6615 48.902 47.9783 46.893 46.6118 45.4706C45.2702 44.0232 43.2081 43.2995 40.4255 43.2995C37.9907 43.2995 35.9907 44.0107 34.4255 45.4332C33.0964 46.6198 32.3317 48.1213 32.1311 49.9376C32.0705 50.4865 31.6299 50.9358 31.0776 50.9358H24.0217C23.4695 50.9358 23.0181 50.4876 23.0537 49.9364C23.209 47.5311 23.9313 45.3187 25.2205 43.2995C26.7112 41.0036 28.7733 39.2193 31.4068 37.9465C34.0652 36.6488 37.0342 36 40.3137 36C45.7298 36 49.9783 37.3725 53.059 40.1176C56.1646 42.8378 57.7174 46.631 57.7174 51.4973C57.7174 53.943 56.9348 56.2513 55.3696 58.4225C54.3231 59.8804 53.0646 61.0966 51.5939 62.0708C50.837 62.5722 50.898 63.8635 51.7021 64.2849C53.5593 65.2582 55.0426 66.5358 56.1522 68.1176C57.7174 70.3137 58.5 72.934 58.5 75.9786C58.5 80.8699 56.823 84.7629 53.4689 87.6578C50.1398 90.5526 45.7547 92 40.3137 92C35.0963 92 30.823 90.6025 27.4938 87.8075C24.4072 85.2162 22.7515 81.8312 22.5265 77.6525C22.4968 77.101 22.9477 76.6524 23.5 76.6524H30.5559C31.1082 76.6524 31.5495 77.1016 31.6045 77.6511C31.7991 79.5948 32.578 81.2084 33.941 82.492C35.5559 83.9893 37.7174 84.738 40.4255 84.738C43.2329 84.738 45.4441 83.9893 47.059 82.492C48.6739 80.9947 49.4814 78.8235 49.4814 75.9786C49.4814 73.1087 48.6366 70.9002 46.9472 69.3529C45.2578 67.8057 42.7484 67.0321 39.4193 67.0321H35.0901C34.5378 67.0321 34.0901 66.5844 34.0901 66.0321V60.8449Z" fill="#FAFAFA" style="fill:#FAFAFA;fill:color(display-p3 0.9804 0.9804 0.9804);fill-opacity:1;"/>
<defs>
<linearGradient id="paint0_linear_124_10817" x1="64.5" y1="-0.3333" x2="64.5" y2="128.1" gradientUnits="userSpaceOnUse">
<stop stop-color="#B39DDB" style="stop-color:#B39DDB;stop-color:color(display-p3 0.7020 0.6157 0.8588);stop-opacity:1;"/>
<stop offset="0.371" stop-color="#A286D3" style="stop-color:#A286D3;stop-color:color(display-p3 0.6353 0.5255 0.8275);stop-opacity:1;"/>
<stop offset="0.9954" stop-color="#7E57C2" style="stop-color:#7E57C2;stop-color:color(display-p3 0.4941 0.3412 0.7608);stop-opacity:1;"/>
</linearGradient>
</defs>
</svg>
