<svg width="128" height="128" viewBox="0 0 128 128" fill="none" xmlns="http://www.w3.org/2000/svg">
<path d="M63.6001 118.8C35.7001 118.8 5.6001 101.3 5.6001 62.9C5.6001 24.5 35.7001 7 63.6001 7C79.1001 7 93.4001 12.1 104 21.4C115.5 31.6 121.6 46 121.6 62.9C121.6 79.8 115.5 94.1 104 104.3C93.4001 113.6 79.0001 118.8 63.6001 118.8Z" fill="url(#paint0_radial_169_4935)" style=""/>
<path d="M63.6001 118.8C35.7001 118.8 5.6001 101.3 5.6001 62.9C5.6001 24.5 35.7001 7 63.6001 7C79.1001 7 93.4001 12.1 104 21.4C115.5 31.6 121.6 46 121.6 62.9C121.6 79.8 115.5 94.1 104 104.3C93.4001 113.6 79.0001 118.8 63.6001 118.8Z" fill="url(#paint1_linear_169_4935)" style=""/>
<path d="M63.6001 118.8C35.7001 118.8 5.6001 101.3 5.6001 62.9C5.6001 24.5 35.7001 7 63.6001 7C79.1001 7 93.4001 12.1 104 21.4C115.5 31.6 121.6 46 121.6 62.9C121.6 79.8 115.5 94.1 104 104.3C93.4001 113.6 79.0001 118.8 63.6001 118.8Z" fill="url(#paint2_radial_169_4935)" style=""/>
<path d="M111.49 29.67C116.82 38.27 119.6 48.51 119.6 59.9C119.6 76.8 113.5 91.1 102 101.3C91.4002 110.6 77.0002 115.8 61.6002 115.8C43.5402 115.8 24.6002 108.45 13.4202 92.86C24.1802 110.52 44.4202 118.8 63.6002 118.8C79.0002 118.8 93.4002 113.6 104 104.3C115.5 94.1001 121.6 79.8 121.6 62.9C121.6 50.16 118.13 38.84 111.49 29.67Z" fill="#EB8F00" style="fill:#EB8F00;fill:color(display-p3 0.9216 0.5608 0.0000);fill-opacity:1;"/>
<path d="M111.49 29.67C116.82 38.27 119.6 48.51 119.6 59.9C119.6 76.8 113.5 91.1 102 101.3C91.4002 110.6 77.0002 115.8 61.6002 115.8C43.5402 115.8 24.6002 108.45 13.4202 92.86C24.1802 110.52 44.4202 118.8 63.6002 118.8C79.0002 118.8 93.4002 113.6 104 104.3C115.5 94.1001 121.6 79.8 121.6 62.9C121.6 50.16 118.13 38.84 111.49 29.67Z" fill="#F3B872" style="fill:#F3B872;fill:color(display-p3 0.9542 0.7229 0.4453);fill-opacity:1;"/>
<path d="M62.8999 111.04C78.4964 111.04 91.1399 99.968 91.1399 86.31C91.1399 72.6519 78.4964 61.58 62.8999 61.58C47.3034 61.58 34.6599 72.6519 34.6599 86.31C34.6599 99.968 47.3034 111.04 62.8999 111.04Z" fill="#312D2D" style="fill:#312D2D;fill:color(display-p3 0.1922 0.1765 0.1765);fill-opacity:1;"/>
<path d="M95.81 49.07C95.81 49.07 89.6 38 76.76 40.36" stroke="#35220B" style="stroke:#35220B;stroke:color(display-p3 0.2078 0.1333 0.0431);stroke-opacity:1;" stroke-width="6" stroke-miterlimit="10" stroke-linecap="round"/>
<path d="M31.76 49.07C31.76 49.07 38 38 50.81 40.36" stroke="#35220B" style="stroke:#35220B;stroke:color(display-p3 0.2078 0.1333 0.0431);stroke-opacity:1;" stroke-width="6" stroke-miterlimit="10" stroke-linecap="round"/>
<path opacity="0.66" d="M71.1699 82.9999C71.6199 80.9999 71.9599 81.9099 72.2499 79.9199C72.4699 78.4199 74.9299 75.0999 74.9599 73.5899C74.9599 72.4799 75.4999 70.7199 74.8699 69.8099C72.6699 66.6699 70.3099 70.7399 69.1899 71.1199C65.3299 72.3999 62.9799 76.2899 59.3999 78.1499C54.8499 80.4799 45.5199 85.2999 40.5299 86.4299C42.6699 82.2699 47.5899 63.5199 40.6899 65.1299C37.5399 65.8599 35.4899 70.7799 34.7699 72.2099C30.8599 80.0099 25.4299 83.7199 21.2099 91.0999C16.9899 98.4799 16.8299 106.44 21.4999 113.84C23.1999 116.68 25.5399 119.08 28.3399 120.84C31.2799 122.56 34.4499 121.28 37.2099 119.84C44.0099 116.37 50.3799 112.13 56.2099 107.2C61.9299 102.2 66.7899 95.9499 69.4499 88.7899C70.1499 86.8899 70.7299 84.9599 71.1699 82.9999Z" fill="url(#paint3_linear_169_4935)" style=""/>
<path d="M86.7999 86.8499C84.5799 83.6699 78.7999 86.9199 78.7999 86.9199C78.7999 86.9199 81.7999 84.3099 84.2999 81.9199C85.8999 80.3899 87.2999 77.1299 85.9899 74.9199C84.6799 72.7099 80.8699 72.8499 78.9999 73.9999L71.6699 78.4999C71.6699 78.4999 74.4199 77.2999 75.2499 72.5799C75.7699 70.6699 74.6499 68.6999 72.7399 68.1799C72.3799 68.0799 72.0099 68.0399 71.6399 68.0599C69.9099 68.2099 68.2599 68.8499 66.8699 69.8999C61.5699 73.6599 47.4199 83.2499 44.2499 82.9999C43.0199 82.8999 42.9099 82.7099 45.4999 77.1699C47.2399 73.8499 47.3999 69.9199 45.9399 66.4699C45.0899 64.4699 41.1699 63.9199 39.9399 65.8499C39.0099 67.2699 38.3399 70.7499 36.7199 74.2499C33.9999 79.9999 27.7299 87.7199 27.2199 88.4799C23.4899 93.9999 16.5399 104.29 23.8199 115.83C30.2599 126.05 44.9599 126.53 52.4899 123.83C66.8799 118.73 80.1299 108.93 80.3799 108.73C82.9999 106.65 85.3799 103.6 84.2999 100.82C82.9699 97.3799 78.5599 99.4199 78.5599 99.4199C81.1099 97.8699 83.3999 95.9199 85.3299 93.6399C87.1599 91.2799 88.2899 88.9999 86.7999 86.8499Z" fill="url(#paint4_radial_169_4935)" style=""/>
<path d="M86.7999 86.8499C84.5799 83.6699 78.7999 86.9199 78.7999 86.9199C78.7999 86.9199 81.7999 84.3099 84.2999 81.9199C85.8999 80.3899 87.2999 77.1299 85.9899 74.9199C84.6799 72.7099 80.8699 72.8499 78.9999 73.9999L71.6699 78.4999C71.6699 78.4999 74.4199 77.2999 75.2499 72.5799C75.7699 70.6699 74.6499 68.6999 72.7399 68.1799C72.3799 68.0799 72.0099 68.0399 71.6399 68.0599C69.9099 68.2099 68.2599 68.8499 66.8699 69.8999C61.5699 73.6599 47.4199 83.2499 44.2499 82.9999C43.0199 82.8999 42.9099 82.7099 45.4999 77.1699C47.2399 73.8499 47.3999 69.9199 45.9399 66.4699C45.0899 64.4699 41.1699 63.9199 39.9399 65.8499C39.0099 67.2699 38.3399 70.7499 36.7199 74.2499C33.9999 79.9999 27.7299 87.7199 27.2199 88.4799C23.4899 93.9999 16.5399 104.29 23.8199 115.83C30.2599 126.05 44.9599 126.53 52.4899 123.83C66.8799 118.73 80.1299 108.93 80.3799 108.73C82.9999 106.65 85.3799 103.6 84.2999 100.82C82.9699 97.3799 78.5599 99.4199 78.5599 99.4199C81.1099 97.8699 83.3999 95.9199 85.3299 93.6399C87.1599 91.2799 88.2899 88.9999 86.7999 86.8499Z" fill="url(#paint5_radial_169_4935)" style=""/>
<path d="M54.06 90.2499C53.06 89.1699 58.06 87.2499 60.06 85.7899L66.32 81.7899C68.38 80.4599 70.29 78.9199 72.03 77.1999C73.83 75.5499 74.96 73.2999 75.2 70.8699C75.47 72.1499 75.4 73.4799 75 74.7199C74.58 75.9699 73.95 77.1399 73.12 78.1599C71.46 80.1199 69.53 81.8299 67.38 83.2399C65.34 84.7199 63.21 86.0499 60.99 87.2399C58.77 88.4099 54.63 91.3499 54.06 90.2499Z" fill="#ED6C30" style="fill:#ED6C30;fill:color(display-p3 0.9294 0.4235 0.1882);fill-opacity:1;"/>
<path d="M54.06 90.2499C53.06 89.1699 58.06 87.2499 60.06 85.7899L66.32 81.7899C68.38 80.4599 70.29 78.9199 72.03 77.1999C73.83 75.5499 74.96 73.2999 75.2 70.8699C75.47 72.1499 75.4 73.4799 75 74.7199C74.58 75.9699 73.95 77.1399 73.12 78.1599C71.46 80.1199 69.53 81.8299 67.38 83.2399C65.34 84.7199 63.21 86.0499 60.99 87.2399C58.77 88.4099 54.63 91.3499 54.06 90.2499Z" fill="#F3B872" style="fill:#F3B872;fill:color(display-p3 0.9542 0.7229 0.4453);fill-opacity:1;"/>
<path d="M66.3799 105.75C65.8199 104.94 70.29 103.6 72.19 102.48C74.08 101.38 75.9099 100.19 77.6699 98.9099C79.4399 97.5999 81.2099 96.3299 82.8499 94.9099C84.5499 93.5099 86.0999 91.9399 87.4899 90.2399C86.7999 92.4399 85.6 94.4499 84 96.1099C82.44 97.7699 80.69 99.2399 78.8 100.51C77 101.82 67.4099 107.54 66.3799 105.75Z" fill="#ED6C30" style="fill:#ED6C30;fill:color(display-p3 0.9294 0.4235 0.1882);fill-opacity:1;"/>
<path d="M66.3799 105.75C65.8199 104.94 70.29 103.6 72.19 102.48C74.08 101.38 75.9099 100.19 77.6699 98.9099C79.4399 97.5999 81.2099 96.3299 82.8499 94.9099C84.5499 93.5099 86.0999 91.9399 87.4899 90.2399C86.7999 92.4399 85.6 94.4499 84 96.1099C82.44 97.7699 80.69 99.2399 78.8 100.51C77 101.82 67.4099 107.54 66.3799 105.75Z" fill="#F3B872" style="fill:#F3B872;fill:color(display-p3 0.9542 0.7229 0.4453);fill-opacity:1;"/>
<path d="M60.9999 97.9999C60.1499 96.9999 65.9999 94.8299 68.3699 93.2599C70.7399 91.6899 73.1099 90.1999 75.5199 88.5299C77.8999 86.9499 80.1599 85.2099 82.2799 83.3099C83.3099 82.3599 84.2199 81.2899 84.9999 80.1299C85.8099 78.9399 86.2999 77.5599 86.4199 76.1299C86.6699 77.6199 86.4499 79.1599 85.7899 80.5199C85.1599 81.8999 84.3199 83.1699 83.3099 84.2899C82.3399 85.4199 81.2699 86.4599 80.1199 87.4099C78.9899 88.4099 77.8099 89.2599 76.6199 90.1099C74.2699 91.8699 71.7799 93.4299 69.1799 94.7999C66.5399 96.1499 61.8799 99.1499 60.9999 97.9999Z" fill="#ED6C30" style="fill:#ED6C30;fill:color(display-p3 0.9294 0.4235 0.1882);fill-opacity:1;"/>
<path d="M60.9999 97.9999C60.1499 96.9999 65.9999 94.8299 68.3699 93.2599C70.7399 91.6899 73.1099 90.1999 75.5199 88.5299C77.8999 86.9499 80.1599 85.2099 82.2799 83.3099C83.3099 82.3599 84.2199 81.2899 84.9999 80.1299C85.8099 78.9399 86.2999 77.5599 86.4199 76.1299C86.6699 77.6199 86.4499 79.1599 85.7899 80.5199C85.1599 81.8999 84.3199 83.1699 83.3099 84.2899C82.3399 85.4199 81.2699 86.4599 80.1199 87.4099C78.9899 88.4099 77.8099 89.2599 76.6199 90.1099C74.2699 91.8699 71.7799 93.4299 69.1799 94.7999C66.5399 96.1499 61.8799 99.1499 60.9999 97.9999Z" fill="#F3B872" style="fill:#F3B872;fill:color(display-p3 0.9542 0.7229 0.4453);fill-opacity:1;"/>
<path d="M30.5798 122C33.0998 122.96 35.7398 123.58 38.4298 123.84C41.0898 124.14 43.7698 124.14 46.4298 123.84C49.0598 123.54 51.6498 122.96 54.1598 122.11C56.6798 121.24 59.1298 120.18 61.4898 118.93C66.3398 116.56 71.1498 114.11 75.7498 111.33C78.0498 109.99 80.1998 108.39 82.1498 106.57C83.1098 105.67 83.8298 104.55 84.2598 103.3C84.6898 102.02 84.3998 100.6 83.5098 99.59C84.5598 100.55 85.0098 102.01 84.6698 103.39C84.3198 104.76 83.6698 106.03 82.7598 107.11C81.8898 108.21 80.9098 109.21 79.8398 110.11C78.7898 111 77.6998 111.84 76.5698 112.62C72.0398 115.68 67.2998 118.41 62.3698 120.77C59.9198 122.05 57.3698 123.12 54.7498 123.98C52.0898 124.8 49.3398 125.3 46.5598 125.46C41.0098 125.84 35.4698 124.64 30.5798 122Z" fill="#ED6C30" style="fill:#ED6C30;fill:color(display-p3 0.9294 0.4235 0.1882);fill-opacity:1;"/>
<path d="M30.5798 122C33.0998 122.96 35.7398 123.58 38.4298 123.84C41.0898 124.14 43.7698 124.14 46.4298 123.84C49.0598 123.54 51.6498 122.96 54.1598 122.11C56.6798 121.24 59.1298 120.18 61.4898 118.93C66.3398 116.56 71.1498 114.11 75.7498 111.33C78.0498 109.99 80.1998 108.39 82.1498 106.57C83.1098 105.67 83.8298 104.55 84.2598 103.3C84.6898 102.02 84.3998 100.6 83.5098 99.59C84.5598 100.55 85.0098 102.01 84.6698 103.39C84.3198 104.76 83.6698 106.03 82.7598 107.11C81.8898 108.21 80.9098 109.21 79.8398 110.11C78.7898 111 77.6998 111.84 76.5698 112.62C72.0398 115.68 67.2998 118.41 62.3698 120.77C59.9198 122.05 57.3698 123.12 54.7498 123.98C52.0898 124.8 49.3398 125.3 46.5598 125.46C41.0098 125.84 35.4698 124.64 30.5798 122Z" fill="#F3B872" style="fill:#F3B872;fill:color(display-p3 0.9542 0.7229 0.4453);fill-opacity:1;"/>
<defs>
<radialGradient id="paint0_radial_169_4935" cx="0" cy="0" r="1" gradientUnits="userSpaceOnUse" gradientTransform="translate(63.6001 62.8999) scale(56.9597 56.9597)">
<stop offset="0.5" stop-color="#FDE030" style="stop-color:#FDE030;stop-color:color(display-p3 0.9922 0.8784 0.1882);stop-opacity:1;"/>
<stop offset="0.92" stop-color="#F7C02B" style="stop-color:#F7C02B;stop-color:color(display-p3 0.9686 0.7529 0.1686);stop-opacity:1;"/>
<stop offset="1" stop-color="#F4A223" style="stop-color:#F4A223;stop-color:color(display-p3 0.9569 0.6353 0.1373);stop-opacity:1;"/>
</radialGradient>
<linearGradient id="paint1_linear_169_4935" x1="63.6001" y1="118.8" x2="63.6001" y2="7" gradientUnits="userSpaceOnUse">
<stop offset="0.16" stop-color="#F4A223" style="stop-color:#F4A223;stop-color:color(display-p3 0.9569 0.6353 0.1373);stop-opacity:1;"/>
<stop offset="0.33" stop-color="#F7C02B" style="stop-color:#F7C02B;stop-color:color(display-p3 0.9686 0.7529 0.1686);stop-opacity:1;"/>
<stop offset="0.81" stop-color="#FDE030" stop-opacity="0" style="stop-color:none;stop-opacity:0;"/>
</linearGradient>
<radialGradient id="paint2_radial_169_4935" cx="0" cy="0" r="1" gradientUnits="userSpaceOnUse" gradientTransform="translate(38.5991 34.5377) rotate(-43.2082) scale(102.024 101.825)">
<stop offset="0.3533" stop-color="#F9DDBD" style="stop-color:#F9DDBD;stop-color:color(display-p3 0.9765 0.8667 0.7412);stop-opacity:1;"/>
<stop offset="0.8723" stop-color="#FFD29C" style="stop-color:#FFD29C;stop-color:color(display-p3 1.0000 0.8235 0.6118);stop-opacity:1;"/>
</radialGradient>
<linearGradient id="paint3_linear_169_4935" x1="46.817" y1="134.693" x2="45.7433" y2="65.1575" gradientUnits="userSpaceOnUse">
<stop stop-color="#BF620C" style="stop-color:#BF620C;stop-color:color(display-p3 0.7490 0.3840 0.0471);stop-opacity:1;"/>
<stop offset="1" stop-color="#BF820C" stop-opacity="0.2" style="stop-color:#BF820C;stop-color:color(display-p3 0.7490 0.5104 0.0471);stop-opacity:0.2;"/>
</linearGradient>
<radialGradient id="paint4_radial_169_4935" cx="0" cy="0" r="1" gradientUnits="userSpaceOnUse" gradientTransform="translate(55.0599 81.9399) scale(65.06 65.06)">
<stop offset="0.27" stop-color="#FFF176" style="stop-color:#FFF176;stop-color:color(display-p3 1.0000 0.9451 0.4627);stop-opacity:1;"/>
<stop offset="1" stop-color="#FFC400" style="stop-color:#FFC400;stop-color:color(display-p3 1.0000 0.7686 0.0000);stop-opacity:1;"/>
</radialGradient>
<radialGradient id="paint5_radial_169_4935" cx="0" cy="0" r="1" gradientUnits="userSpaceOnUse" gradientTransform="translate(39.6499 79.5746) rotate(-41.4461) scale(57.1781 56.7387)">
<stop offset="0.3533" stop-color="#F9DDBD" style="stop-color:#F9DDBD;stop-color:color(display-p3 0.9765 0.8667 0.7412);stop-opacity:1;"/>
<stop offset="0.8723" stop-color="#FFD29C" style="stop-color:#FFD29C;stop-color:color(display-p3 1.0000 0.8235 0.6118);stop-opacity:1;"/>
</radialGradient>
</defs>
</svg>
