<svg width="128" height="128" viewBox="0 0 128 128" fill="none" xmlns="http://www.w3.org/2000/svg">
<path d="M63.6 118.8C35.7 118.8 5.59998 101.3 5.59998 62.9C5.59998 24.5 35.7 7 63.6 7C79.1 7 93.4 12.1 104 21.4C115.5 31.6 121.6 46 121.6 62.9C121.6 79.8 115.5 94.1 104 104.3C93.4 113.6 79 118.8 63.6 118.8Z" fill="url(#paint0_radial_169_10909)" style=""/>
<path d="M63.6 118.8C35.7 118.8 5.59998 101.3 5.59998 62.9C5.59998 24.5 35.7 7 63.6 7C79.1 7 93.4 12.1 104 21.4C115.5 31.6 121.6 46 121.6 62.9C121.6 79.8 115.5 94.1 104 104.3C93.4 113.6 79 118.8 63.6 118.8Z" fill="url(#paint1_linear_169_10909)" style=""/>
<path d="M63.6 118.8C35.7 118.8 5.59998 101.3 5.59998 62.9C5.59998 24.5 35.7 7 63.6 7C79.1 7 93.4 12.1 104 21.4C115.5 31.6 121.6 46 121.6 62.9C121.6 79.8 115.5 94.1 104 104.3C93.4 113.6 79 118.8 63.6 118.8Z" fill="url(#paint2_radial_169_10909)" style=""/>
<path d="M63.6 118.8C35.7 118.8 5.59998 101.3 5.59998 62.9C5.59998 24.5 35.7 7 63.6 7C79.1 7 93.4 12.1 104 21.4C115.5 31.6 121.6 46 121.6 62.9C121.6 79.8 115.5 94.1 104 104.3C93.4 113.6 79 118.8 63.6 118.8Z" fill="url(#paint3_radial_169_10909)" style=""/>
<path d="M63.6 118.8C35.7 118.8 5.59998 101.3 5.59998 62.9C5.59998 24.5 35.7 7 63.6 7C79.1 7 93.4 12.1 104 21.4C115.5 31.6 121.6 46 121.6 62.9C121.6 79.8 115.5 94.1 104 104.3C93.4 113.6 79 118.8 63.6 118.8Z" fill="url(#paint4_radial_169_10909)" style=""/>
<path d="M63.6 118.8C35.7 118.8 5.59998 101.3 5.59998 62.9C5.59998 24.5 35.7 7 63.6 7C79.1 7 93.4 12.1 104 21.4C115.5 31.6 121.6 46 121.6 62.9C121.6 79.8 115.5 94.1 104 104.3C93.4 113.6 79 118.8 63.6 118.8Z" fill="url(#paint5_radial_169_10909)" style=""/>
<path d="M111.49 29.67C116.82 38.27 119.6 48.51 119.6 59.9C119.6 76.8 113.5 91.1 102 101.3C91.3999 110.6 76.9999 115.8 61.5999 115.8C43.5399 115.8 24.5999 108.45 13.4199 92.86C24.1799 110.52 44.4199 118.8 63.5999 118.8C78.9999 118.8 93.3999 113.6 104 104.3C115.5 94.1 121.6 79.8 121.6 62.9C121.6 50.16 118.13 38.84 111.49 29.67Z" fill="#EB8F00" style="fill:#EB8F00;fill:color(display-p3 0.9216 0.5608 0.0000);fill-opacity:1;"/>
<path d="M111.49 29.67C116.82 38.27 119.6 48.51 119.6 59.9C119.6 76.8 113.5 91.1 102 101.3C91.3999 110.6 76.9999 115.8 61.5999 115.8C43.5399 115.8 24.5999 108.45 13.4199 92.86C24.1799 110.52 44.4199 118.8 63.5999 118.8C78.9999 118.8 93.3999 113.6 104 104.3C115.5 94.1 121.6 79.8 121.6 62.9C121.6 50.16 118.13 38.84 111.49 29.67Z" fill="#F3B872" style="fill:#F3B872;fill:color(display-p3 0.9542 0.7229 0.4453);fill-opacity:1;"/>
<path d="M111.49 29.67C116.82 38.27 119.6 48.51 119.6 59.9C119.6 76.8 113.5 91.1 102 101.3C91.3999 110.6 76.9999 115.8 61.5999 115.8C43.5399 115.8 24.5999 108.45 13.4199 92.86C24.1799 110.52 44.4199 118.8 63.5999 118.8C78.9999 118.8 93.3999 113.6 104 104.3C115.5 94.1 121.6 79.8 121.6 62.9C121.6 50.16 118.13 38.84 111.49 29.67Z" fill="#4A2F27" style="fill:#4A2F27;fill:color(display-p3 0.2902 0.1843 0.1529);fill-opacity:1;"/>
<path d="M79.7 68.3C70.7 70.3 67.9 70.1 64.2 70.1H63.8C60.1 70.1 57.3 70.3 48.3 68.3C46.7 68 45.4 70 47.8 71.8C52.6 75.3 58.3 76.4 64 76.4C69.7 76.4 75.4 75.3 80.2 71.8C82.6 70 81.2999 68 79.7 68.3Z" fill="#42312C" style="fill:#42312C;fill:color(display-p3 0.2588 0.1922 0.1725);fill-opacity:1;"/>
<path d="M43.7 55.1C45.55 55.08 47.4 55.28 49.2 55.7C50.16 55.95 51.16 55.49 51.6 54.6C52.35 53.04 52.73 51.33 52.7 49.6C52.7 43.7 48.9 40.2 44.7 40.2C40.5 40.2 36.7 43.7 36.7 49.6C36.67 51.15 36.98 52.68 37.6 54.1C37.96 54.97 38.88 55.47 39.8 55.3C41 55.2 42.3 55.1 43.7 55.1Z" fill="#42312C" style="fill:#42312C;fill:color(display-p3 0.2588 0.1922 0.1725);fill-opacity:1;"/>
<path d="M43.7 55.1C45.55 55.08 47.4 55.28 49.2 55.7C50.16 55.95 51.16 55.49 51.6 54.6C52.35 53.04 52.73 51.33 52.7 49.6C52.7 43.7 48.9 40.2 44.7 40.2C40.5 40.2 36.7 43.7 36.7 49.6C36.67 51.15 36.98 52.68 37.6 54.1C37.96 54.97 38.88 55.47 39.8 55.3C41 55.2 42.3 55.1 43.7 55.1Z" fill="#42312C" style="fill:#42312C;fill:color(display-p3 0.2588 0.1922 0.1725);fill-opacity:1;"/>
<path d="M84.3 55.1C82.45 55.08 80.6 55.28 78.8 55.7C77.84 55.93 76.85 55.47 76.4 54.6C75.65 53.04 75.27 51.33 75.3 49.6C75.3 43.7 79.1 40.2 83.3 40.2C87.5 40.2 91.3 43.7 91.3 49.6C91.33 51.15 91.02 52.68 90.4 54.1C90.04 54.97 89.12 55.47 88.2 55.3C87 55.2 85.7 55.1 84.3 55.1Z" fill="#42312C" style="fill:#42312C;fill:color(display-p3 0.2588 0.1922 0.1725);fill-opacity:1;"/>
<path d="M84.3 55.1C82.45 55.08 80.6 55.28 78.8 55.7C77.84 55.93 76.85 55.47 76.4 54.6C75.65 53.04 75.27 51.33 75.3 49.6C75.3 43.7 79.1 40.2 83.3 40.2C87.5 40.2 91.3 43.7 91.3 49.6C91.33 51.15 91.02 52.68 90.4 54.1C90.04 54.97 89.12 55.47 88.2 55.3C87 55.2 85.7 55.1 84.3 55.1Z" fill="#42312C" style="fill:#42312C;fill:color(display-p3 0.2588 0.1922 0.1725);fill-opacity:1;"/>
<path opacity="0.66" d="M64.4299 61.66C64.4299 55.66 63.7399 52.14 58.4299 52.74C54.5299 53.14 54.2399 59.12 54.2399 65.12C54.2399 65.12 53.9899 75.75 49.9899 84.64C49.6699 85.05 49.3499 85.46 49.0599 85.9C44.9099 92.1 42.4699 99.55 43.6999 107.03C44.0699 110.25 45.7099 113.19 48.2599 115.19C50.9899 117.43 54.7799 118.26 58.2599 118.59C64.4299 119.17 64.4299 66.87 64.4299 61.66Z" fill="url(#paint6_linear_169_10909)" style=""/>
<path d="M79.6999 68.3C76.0899 69.18 72.4099 69.76 68.6999 70.04C68.4799 72.06 68.4399 74.09 68.5899 76.12C72.7699 75.71 76.7699 74.22 80.1999 71.8C82.5999 70 81.2999 68 79.6999 68.3Z" fill="#42312C" style="fill:#42312C;fill:color(display-p3 0.2588 0.1922 0.1725);fill-opacity:1;"/>
<path d="M79.6999 68.3C76.0899 69.18 72.4099 69.76 68.6999 70.04C68.4799 72.06 68.4399 74.09 68.5899 76.12C72.7699 75.71 76.7699 74.22 80.1999 71.8C82.5999 70 81.2999 68 79.6999 68.3Z" fill="#42312C" style="fill:#42312C;fill:color(display-p3 0.2588 0.1922 0.1725);fill-opacity:1;"/>
<path d="M68.71 70C68.02 70 67.39 70 66.78 70.06C66.48 72.12 66.36 74.2 66.42 76.28C67.15 76.28 67.88 76.17 68.6 76.08C68.45 74.05 68.49 72.02 68.71 70Z" fill="#42312C" style="fill:#42312C;fill:color(display-p3 0.2588 0.1922 0.1725);fill-opacity:1;"/>
<path d="M48.3 68.3C46.7 68 45.4 70 47.8 71.8C50.23 73.54 52.98 74.8 55.89 75.48C56.14 73.48 56.29 71.48 56.39 69.77C54.35 69.52 51.79 69.08 48.3 68.3Z" fill="#42312C" style="fill:#42312C;fill:color(display-p3 0.2588 0.1922 0.1725);fill-opacity:1;"/>
<path d="M48.3 68.3C46.7 68 45.4 70 47.8 71.8C50.23 73.54 52.98 74.8 55.89 75.48C56.14 73.48 56.29 71.48 56.39 69.77C54.35 69.52 51.79 69.08 48.3 68.3Z" fill="#42312C" style="fill:#42312C;fill:color(display-p3 0.2588 0.1922 0.1725);fill-opacity:1;"/>
<path d="M92.3699 93.87C92.1599 93.15 91.7599 92.5 91.1999 92C89.3299 89.73 86.2999 88.77 83.4599 89.55C83.4599 89.46 83.3999 89.36 83.3599 89.28C83.9899 86.53 83.7199 83.65 82.5799 81.07C81.2199 78.5 78.5899 76.86 75.6899 76.77C73.3699 76.64 71.0499 76.92 68.8299 77.6C68.7599 77.33 68.7099 77.06 68.6699 76.78C68.6699 76.59 68.6099 76.38 68.5899 76.14C67.8699 76.23 67.1399 76.3 66.4099 76.34C66.3199 73.07 66.6499 69.8 67.4099 66.62C69.5699 57.21 65.6399 53.83 64.7799 53.22C63.3899 52.38 61.7499 52.05 60.1399 52.28C56.2399 52.68 56.4399 55.68 56.4399 61.68C56.4399 61.68 57.1099 74.54 54.0199 84.68C53.6899 85.09 53.3699 85.5 53.0799 85.94C44.3799 98.94 46.8799 110.84 52.3799 117.34C55.7199 121.14 60.4299 123.44 65.4799 123.74C69.6299 124 74.7799 123.14 78.4799 119.99C81.3999 118.05 83.3999 114.99 83.9999 111.54C84.1599 110.1 84.1299 108.65 83.8899 107.22V106.79C84.2199 105.94 84.4299 105.05 84.5099 104.15C85.7299 104.19 86.9499 104.02 88.1099 103.63C89.6099 103.08 90.8699 102.02 91.6699 100.63C92.4599 99.27 92.8399 97.7 92.7599 96.13C92.7499 95.36 92.6199 94.6 92.3699 93.87ZM66.5599 78.32C66.5599 77.8 66.4499 77.13 66.4299 76.32C66.4399 77.13 66.4999 77.8 66.5599 78.32Z" fill="url(#paint7_radial_169_10909)" style=""/>
<path d="M92.3699 93.87C92.1599 93.15 91.7599 92.5 91.1999 92C89.3299 89.73 86.2999 88.77 83.4599 89.55C83.4599 89.46 83.3999 89.36 83.3599 89.28C83.9899 86.53 83.7199 83.65 82.5799 81.07C81.2199 78.5 78.5899 76.86 75.6899 76.77C73.3699 76.64 71.0499 76.92 68.8299 77.6C68.7599 77.33 68.7099 77.06 68.6699 76.78C68.6699 76.59 68.6099 76.38 68.5899 76.14C67.8699 76.23 67.1399 76.3 66.4099 76.34C66.3199 73.07 66.6499 69.8 67.4099 66.62C69.5699 57.21 65.6399 53.83 64.7799 53.22C63.3899 52.38 61.7499 52.05 60.1399 52.28C56.2399 52.68 56.4399 55.68 56.4399 61.68C56.4399 61.68 57.1099 74.54 54.0199 84.68C53.6899 85.09 53.3699 85.5 53.0799 85.94C44.3799 98.94 46.8799 110.84 52.3799 117.34C55.7199 121.14 60.4299 123.44 65.4799 123.74C69.6299 124 74.7799 123.14 78.4799 119.99C81.3999 118.05 83.3999 114.99 83.9999 111.54C84.1599 110.1 84.1299 108.65 83.8899 107.22V106.79C84.2199 105.94 84.4299 105.05 84.5099 104.15C85.7299 104.19 86.9499 104.02 88.1099 103.63C89.6099 103.08 90.8699 102.02 91.6699 100.63C92.4599 99.27 92.8399 97.7 92.7599 96.13C92.7499 95.36 92.6199 94.6 92.3699 93.87ZM66.5599 78.32C66.5599 77.8 66.4499 77.13 66.4299 76.32C66.4399 77.13 66.4999 77.8 66.5599 78.32Z" fill="url(#paint8_radial_169_10909)" style=""/>
<path d="M92.3699 93.87C92.1599 93.15 91.7599 92.5 91.1999 92C89.3299 89.73 86.2999 88.77 83.4599 89.55C83.4599 89.46 83.3999 89.36 83.3599 89.28C83.9899 86.53 83.7199 83.65 82.5799 81.07C81.2199 78.5 78.5899 76.86 75.6899 76.77C73.3699 76.64 71.0499 76.92 68.8299 77.6C68.7599 77.33 68.7099 77.06 68.6699 76.78C68.6699 76.59 68.6099 76.38 68.5899 76.14C67.8699 76.23 67.1399 76.3 66.4099 76.34C66.3199 73.07 66.6499 69.8 67.4099 66.62C69.5699 57.21 65.6399 53.83 64.7799 53.22C63.3899 52.38 61.7499 52.05 60.1399 52.28C56.2399 52.68 56.4399 55.68 56.4399 61.68C56.4399 61.68 57.1099 74.54 54.0199 84.68C53.6899 85.09 53.3699 85.5 53.0799 85.94C44.3799 98.94 46.8799 110.84 52.3799 117.34C55.7199 121.14 60.4299 123.44 65.4799 123.74C69.6299 124 74.7799 123.14 78.4799 119.99C81.3999 118.05 83.3999 114.99 83.9999 111.54C84.1599 110.1 84.1299 108.65 83.8899 107.22V106.79C84.2199 105.94 84.4299 105.05 84.5099 104.15C85.7299 104.19 86.9499 104.02 88.1099 103.63C89.6099 103.08 90.8699 102.02 91.6699 100.63C92.4599 99.27 92.8399 97.7 92.7599 96.13C92.7499 95.36 92.6199 94.6 92.3699 93.87ZM66.5599 78.32C66.5599 77.8 66.4499 77.13 66.4299 76.32C66.4399 77.13 66.4999 77.8 66.5599 78.32Z" fill="url(#paint9_radial_169_10909)" style=""/>
<path d="M92.3699 93.87C92.1599 93.15 91.7599 92.5 91.1999 92C89.3299 89.73 86.2999 88.77 83.4599 89.55C83.4599 89.46 83.3999 89.36 83.3599 89.28C83.9899 86.53 83.7199 83.65 82.5799 81.07C81.2199 78.5 78.5899 76.86 75.6899 76.77C73.3699 76.64 71.0499 76.92 68.8299 77.6C68.7599 77.33 68.7099 77.06 68.6699 76.78C68.6699 76.59 68.6099 76.38 68.5899 76.14C67.8699 76.23 67.1399 76.3 66.4099 76.34C66.3199 73.07 66.6499 69.8 67.4099 66.62C69.5699 57.21 65.6399 53.83 64.7799 53.22C63.3899 52.38 61.7499 52.05 60.1399 52.28C56.2399 52.68 56.4399 55.68 56.4399 61.68C56.4399 61.68 57.1099 74.54 54.0199 84.68C53.6899 85.09 53.3699 85.5 53.0799 85.94C44.3799 98.94 46.8799 110.84 52.3799 117.34C55.7199 121.14 60.4299 123.44 65.4799 123.74C69.6299 124 74.7799 123.14 78.4799 119.99C81.3999 118.05 83.3999 114.99 83.9999 111.54C84.1599 110.1 84.1299 108.65 83.8899 107.22V106.79C84.2199 105.94 84.4299 105.05 84.5099 104.15C85.7299 104.19 86.9499 104.02 88.1099 103.63C89.6099 103.08 90.8699 102.02 91.6699 100.63C92.4599 99.27 92.8399 97.7 92.7599 96.13C92.7499 95.36 92.6199 94.6 92.3699 93.87ZM66.5599 78.32C66.5599 77.8 66.4499 77.13 66.4299 76.32C66.4399 77.13 66.4999 77.8 66.5599 78.32Z" fill="url(#paint10_radial_169_10909)" style=""/>
<path opacity="0.66" d="M68.94 67.81C70.42 55.44 64.86 53.19 64.62 53.08L64.8 53.2C65.66 53.81 69.59 57.2 67.43 66.6C67.14 67.84 66.94 69.01 66.78 70.1C67.39 70.1 68.02 70.1 68.71 70.04C68.77 69.35 68.84 68.62 68.94 67.81Z" fill="url(#paint11_linear_169_10909)" style=""/>
<path d="M92.37 93.87C92.16 93.15 91.76 92.5 91.2 92C91.2 92 92.77 96.73 90.01 99.87C88.89 101.15 87.01 102 85.49 101.33C84.09 100.72 83.37 99.22 82.83 97.75C83.71 95.74 84.07 93.55 83.9 91.37C83.86 90.65 83.68 89.95 83.37 89.3C84 86.55 83.73 83.67 82.59 81.09C81.23 78.52 78.6 76.88 75.7 76.79C73.38 76.66 71.06 76.94 68.84 77.62C68.77 77.35 68.72 77.08 68.68 76.8C68.68 76.61 68.62 76.4 68.6 76.16C67.88 76.25 67.15 76.32 66.42 76.36C66.42 77.17 66.5 77.83 66.56 78.36C63.73 79.34 61.05 80.73 58.62 82.48C61.56 81.66 64.47 80.74 67.43 79.98C70.15 79.29 73.1 78.47 75.94 78.65C77.88 78.65 79.72 79.56 80.88 81.12C82.21 83.06 81.09 85.59 80.49 86.67C79.78 86.37 79.03 86.18 78.27 86.11C75.27 85.8 71.98 86.64 69.04 87.38C66.1 88.12 62.8 89 60.26 90.79C64.63 89.71 68.72 88.74 73.17 88.02C75.81 87.58 79.95 87.32 81.29 90.42C82.29 92.71 80.76 95.54 79.82 96.96C77.78 96.47 75.64 96.56 73.65 97.22C70.13 98.23 66.76 99.68 63.6 101.52C67.49 100.59 71.35 99.41 75.3 98.72C78.37 98.18 82.04 99.05 82.52 102.72C82.75 106.24 80.97 109.59 77.92 111.37C76.54 112.28 74.74 112.24 73.4 111.28C72.65 110.7 71.94 109.18 73.04 108.56C73.4 108.36 73.87 108.36 74.19 108.1C74.55 107.77 74.62 107.22 74.35 106.81C74.06 106.41 73.55 106.24 73.08 106.38C72.6 106.55 72.2 106.91 71.99 107.38C70.34 110.87 73.92 114.01 77.27 113.2C78 113.02 81.17 111.84 81.48 113.85C81.91 116.6 78.48 120 78.48 120C81.4 118.06 83.4 115 84 111.54C84.18 110 84.12 108.45 83.84 106.93C84.19 106.04 84.42 105.1 84.51 104.15C85.73 104.19 86.95 104.02 88.11 103.63C89.61 103.08 90.87 102.02 91.67 100.63C92.46 99.27 92.84 97.7 92.76 96.13C92.75 95.36 92.62 94.6 92.37 93.87Z" fill="url(#paint12_linear_169_10909)" style=""/>
<path d="M92.37 93.87C92.16 93.15 91.76 92.5 91.2 92C91.2 92 92.77 96.73 90.01 99.87C88.89 101.15 87.01 102 85.49 101.33C84.09 100.72 83.37 99.22 82.83 97.75C83.71 95.74 84.07 93.55 83.9 91.37C83.86 90.65 83.68 89.95 83.37 89.3C84 86.55 83.73 83.67 82.59 81.09C81.23 78.52 78.6 76.88 75.7 76.79C73.38 76.66 71.06 76.94 68.84 77.62C68.77 77.35 68.72 77.08 68.68 76.8C68.68 76.61 68.62 76.4 68.6 76.16C67.88 76.25 67.15 76.32 66.42 76.36C66.42 77.17 66.5 77.83 66.56 78.36C63.73 79.34 61.05 80.73 58.62 82.48C61.56 81.66 64.47 80.74 67.43 79.98C70.15 79.29 73.1 78.47 75.94 78.65C77.88 78.65 79.72 79.56 80.88 81.12C82.21 83.06 81.09 85.59 80.49 86.67C79.78 86.37 79.03 86.18 78.27 86.11C75.27 85.8 71.98 86.64 69.04 87.38C66.1 88.12 62.8 89 60.26 90.79C64.63 89.71 68.72 88.74 73.17 88.02C75.81 87.58 79.95 87.32 81.29 90.42C82.29 92.71 80.76 95.54 79.82 96.96C77.78 96.47 75.64 96.56 73.65 97.22C70.13 98.23 66.76 99.68 63.6 101.52C67.49 100.59 71.35 99.41 75.3 98.72C78.37 98.18 82.04 99.05 82.52 102.72C82.75 106.24 80.97 109.59 77.92 111.37C76.54 112.28 74.74 112.24 73.4 111.28C72.65 110.7 71.94 109.18 73.04 108.56C73.4 108.36 73.87 108.36 74.19 108.1C74.55 107.77 74.62 107.22 74.35 106.81C74.06 106.41 73.55 106.24 73.08 106.38C72.6 106.55 72.2 106.91 71.99 107.38C70.34 110.87 73.92 114.01 77.27 113.2C78 113.02 81.17 111.84 81.48 113.85C81.91 116.6 78.48 120 78.48 120C81.4 118.06 83.4 115 84 111.54C84.18 110 84.12 108.45 83.84 106.93C84.19 106.04 84.42 105.1 84.51 104.15C85.73 104.19 86.95 104.02 88.11 103.63C89.61 103.08 90.87 102.02 91.67 100.63C92.46 99.27 92.84 97.7 92.76 96.13C92.75 95.36 92.62 94.6 92.37 93.87Z" fill="#4A2F27" style="fill:#4A2F27;fill:color(display-p3 0.2902 0.1843 0.1529);fill-opacity:1;"/>
<defs>
<radialGradient id="paint0_radial_169_10909" cx="0" cy="0" r="1" gradientUnits="userSpaceOnUse" gradientTransform="translate(63.6 62.9) scale(56.9597 56.9597)">
<stop offset="0.5" stop-color="#FDE030" style="stop-color:#FDE030;stop-color:color(display-p3 0.9922 0.8784 0.1882);stop-opacity:1;"/>
<stop offset="0.92" stop-color="#F7C02B" style="stop-color:#F7C02B;stop-color:color(display-p3 0.9686 0.7529 0.1686);stop-opacity:1;"/>
<stop offset="1" stop-color="#F4A223" style="stop-color:#F4A223;stop-color:color(display-p3 0.9569 0.6353 0.1373);stop-opacity:1;"/>
</radialGradient>
<linearGradient id="paint1_linear_169_10909" x1="63.6" y1="118.8" x2="63.6" y2="7" gradientUnits="userSpaceOnUse">
<stop offset="0.16" stop-color="#F4A223" style="stop-color:#F4A223;stop-color:color(display-p3 0.9569 0.6353 0.1373);stop-opacity:1;"/>
<stop offset="0.33" stop-color="#F7C02B" style="stop-color:#F7C02B;stop-color:color(display-p3 0.9686 0.7529 0.1686);stop-opacity:1;"/>
<stop offset="0.81" stop-color="#FDE030" stop-opacity="0" style="stop-color:none;stop-opacity:0;"/>
</linearGradient>
<radialGradient id="paint2_radial_169_10909" cx="0" cy="0" r="1" gradientUnits="userSpaceOnUse" gradientTransform="translate(63.6 62.9) scale(56.9597 56.9597)">
<stop offset="0.5" stop-color="#FDE030" style="stop-color:#FDE030;stop-color:color(display-p3 0.9922 0.8784 0.1882);stop-opacity:1;"/>
<stop offset="0.92" stop-color="#F7C02B" style="stop-color:#F7C02B;stop-color:color(display-p3 0.9686 0.7529 0.1686);stop-opacity:1;"/>
<stop offset="1" stop-color="#F4A223" style="stop-color:#F4A223;stop-color:color(display-p3 0.9569 0.6353 0.1373);stop-opacity:1;"/>
</radialGradient>
<radialGradient id="paint3_radial_169_10909" cx="0" cy="0" r="1" gradientUnits="userSpaceOnUse" gradientTransform="translate(52.9999 33.5) rotate(79.6952) scale(61.4919 100.858)">
<stop offset="0.3533" stop-color="#F9DDBD" style="stop-color:#F9DDBD;stop-color:color(display-p3 0.9765 0.8667 0.7412);stop-opacity:1;"/>
<stop offset="0.8723" stop-color="#FECD92" style="stop-color:#FECD92;stop-color:color(display-p3 0.9958 0.8035 0.5726);stop-opacity:1;"/>
</radialGradient>
<radialGradient id="paint4_radial_169_10909" cx="0" cy="0" r="1" gradientUnits="userSpaceOnUse" gradientTransform="translate(63.9999 24) rotate(94.514) scale(76.2365 76.0874)">
<stop offset="0.3533" stop-color="#70534A" style="stop-color:#70534A;stop-color:color(display-p3 0.4392 0.3255 0.2902);stop-opacity:1;"/>
<stop offset="0.8723" stop-color="#52372F" style="stop-color:#52372F;stop-color:color(display-p3 0.3208 0.2166 0.1831);stop-opacity:1;"/>
</radialGradient>
<radialGradient id="paint5_radial_169_10909" cx="0" cy="0" r="1" gradientUnits="userSpaceOnUse" gradientTransform="translate(38.599 34.5377) rotate(-43.2082) scale(102.024 101.825)">
<stop offset="0.3533" stop-color="#A56C43" style="stop-color:#A56C43;stop-color:color(display-p3 0.6471 0.4235 0.2627);stop-opacity:1;"/>
<stop offset="0.8723" stop-color="#8D5738" style="stop-color:#8D5738;stop-color:color(display-p3 0.5529 0.3412 0.2196);stop-opacity:1;"/>
</radialGradient>
<linearGradient id="paint6_linear_169_10909" x1="53.986" y1="133.759" x2="50.0445" y2="52.9928" gradientUnits="userSpaceOnUse">
<stop stop-color="#140905" style="stop-color:#140905;stop-color:color(display-p3 0.0792 0.0350 0.0214);stop-opacity:1;"/>
<stop offset="1" stop-color="#2C1109" stop-opacity="0.2" style="stop-color:#2C1109;stop-color:color(display-p3 0.1708 0.0679 0.0363);stop-opacity:0.2;"/>
</linearGradient>
<radialGradient id="paint7_radial_169_10909" cx="0" cy="0" r="1" gradientUnits="userSpaceOnUse" gradientTransform="translate(70.0767 87.9966) scale(29.9639)">
<stop offset="0.41" stop-color="#FFF176" style="stop-color:#FFF176;stop-color:color(display-p3 1.0000 0.9451 0.4627);stop-opacity:1;"/>
<stop offset="1" stop-color="#FFC400" style="stop-color:#FFC400;stop-color:color(display-p3 1.0000 0.7686 0.0000);stop-opacity:1;"/>
</radialGradient>
<radialGradient id="paint8_radial_169_10909" cx="0" cy="0" r="1" gradientUnits="userSpaceOnUse" gradientTransform="translate(60.2951 69.8385) rotate(-56.9509) scale(53.3509 48.7755)">
<stop offset="0.3533" stop-color="#F9DDBD" style="stop-color:#F9DDBD;stop-color:color(display-p3 0.9765 0.8667 0.7412);stop-opacity:1;"/>
<stop offset="0.8723" stop-color="#FFD29C" style="stop-color:#FFD29C;stop-color:color(display-p3 1.0000 0.8235 0.6118);stop-opacity:1;"/>
</radialGradient>
<radialGradient id="paint9_radial_169_10909" cx="0" cy="0" r="1" gradientUnits="userSpaceOnUse" gradientTransform="translate(60.2951 69.8385) rotate(-56.9509) scale(53.3509 48.7755)">
<stop offset="0.3533" stop-color="#70534A" style="stop-color:#70534A;stop-color:color(display-p3 0.4392 0.3255 0.2902);stop-opacity:1;"/>
<stop offset="0.8723" stop-color="#5C4037" style="stop-color:#5C4037;stop-color:color(display-p3 0.3608 0.2510 0.2157);stop-opacity:1;"/>
</radialGradient>
<radialGradient id="paint10_radial_169_10909" cx="0" cy="0" r="1" gradientUnits="userSpaceOnUse" gradientTransform="translate(60.2951 69.8385) rotate(-56.9509) scale(53.3509 48.7755)">
<stop offset="0.3533" stop-color="#BE8256" style="stop-color:#BE8256;stop-color:color(display-p3 0.7458 0.5091 0.3387);stop-opacity:1;"/>
<stop offset="0.8723" stop-color="#8D5738" style="stop-color:#8D5738;stop-color:color(display-p3 0.5529 0.3412 0.2196);stop-opacity:1;"/>
</radialGradient>
<linearGradient id="paint11_linear_169_10909" x1="66.9226" y1="74.0151" x2="65.7136" y2="53.1829" gradientUnits="userSpaceOnUse">
<stop stop-color="#140905" style="stop-color:#140905;stop-color:color(display-p3 0.0792 0.0350 0.0214);stop-opacity:1;"/>
<stop offset="1" stop-color="#2C1109" stop-opacity="0.2" style="stop-color:#2C1109;stop-color:color(display-p3 0.1708 0.0679 0.0363);stop-opacity:0.2;"/>
</linearGradient>
<linearGradient id="paint12_linear_169_10909" x1="87.46" y1="98.08" x2="-156.64" y2="98.08" gradientUnits="userSpaceOnUse">
<stop stop-color="#DA6727" style="stop-color:#DA6727;stop-color:color(display-p3 0.8549 0.4039 0.1529);stop-opacity:1;"/>
<stop offset="0.02" stop-color="#E27C1E" style="stop-color:#E27C1E;stop-color:color(display-p3 0.8863 0.4863 0.1176);stop-opacity:1;"/>
<stop offset="0.06" stop-color="#ED9613" style="stop-color:#ED9613;stop-color:color(display-p3 0.9294 0.5882 0.0745);stop-opacity:1;"/>
<stop offset="0.1" stop-color="#F5AB0B" style="stop-color:#F5AB0B;stop-color:color(display-p3 0.9608 0.6706 0.0431);stop-opacity:1;"/>
<stop offset="0.15" stop-color="#FBB905" style="stop-color:#FBB905;stop-color:color(display-p3 0.9843 0.7255 0.0196);stop-opacity:1;"/>
<stop offset="0.21" stop-color="#FEC101" style="stop-color:#FEC101;stop-color:color(display-p3 0.9961 0.7569 0.0039);stop-opacity:1;"/>
<stop offset="0.3" stop-color="#FFC400" style="stop-color:#FFC400;stop-color:color(display-p3 1.0000 0.7686 0.0000);stop-opacity:1;"/>
</linearGradient>
</defs>
</svg>
