<svg width="128" height="128" viewBox="0 0 128 128" fill="none" xmlns="http://www.w3.org/2000/svg">
<path d="M121.65 32.7557L69.6601 87.6557C65.3901 108.486 52.21 120.806 52.21 120.806L7.30005 75.8957C7.30005 75.8957 18.01 61.6057 40.4501 58.4257L95.65 6.47567C101.04 1.89567 110.64 3.81567 117.41 10.9457C123.94 17.8057 125.88 27.4757 121.65 32.7557Z" fill="#2F7889" style="fill:#2F7889;fill:color(display-p3 0.1843 0.4706 0.5373);fill-opacity:1;"/>
<path d="M49.64 117.996C55.37 112.266 51.17 98.7757 40.25 87.8557C29.33 76.9357 15.84 72.7357 10.11 78.4657C4.38003 84.1957 8.59003 97.6857 19.5 108.606C30.41 119.526 43.91 123.716 49.64 117.996Z" fill="#9E740B" style="fill:#9E740B;fill:color(display-p3 0.6196 0.4549 0.0431);fill-opacity:1;"/>
<path d="M50.92 113.746C55.54 109.126 50.34 97.9556 40.25 87.8556C30.16 77.7556 18.98 72.5656 14.36 77.1856C9.73998 81.8056 14.18 93.7256 24.28 103.826C34.38 113.926 46.31 118.356 50.92 113.746Z" fill="#FFEE58" style="fill:#FFEE58;fill:color(display-p3 1.0000 0.9333 0.3451);fill-opacity:1;"/>
<path d="M53.4599 105.156C53.4599 105.156 49.8499 95.1056 41.4199 86.6756C32.9899 78.2456 22.9399 74.6456 22.9399 74.6456C18.0099 79.5756 20.8399 90.4056 29.2699 98.8356C37.6999 107.266 48.5299 110.096 53.4599 105.156Z" fill="white" style="fill:white;fill-opacity:1;"/>
<path d="M47.71 118.276C52.7 113.286 48.26 100.766 37.8 90.3057C27.34 79.8457 14.81 75.4057 9.82996 80.3957C4.84996 85.3857 9.27995 97.9057 19.74 108.366C30.2 118.826 42.73 123.266 47.71 118.276ZM52.08 120.946C48.64 124.386 42.98 124.936 36.13 122.516C30.05 120.356 23.55 116.026 17.82 110.296C12.09 104.566 7.74996 98.0657 5.59996 91.9857C3.16996 85.1357 3.72996 79.4657 7.16996 76.0357C10.61 72.6057 16.27 72.0457 23.12 74.4657C29.2 76.6257 35.7 80.9557 41.43 86.6857C47.16 92.4157 51.49 98.9057 53.65 104.996C56.07 111.836 55.51 117.506 52.08 120.946Z" fill="#80DEEA" style="fill:#80DEEA;fill:color(display-p3 0.5020 0.8706 0.9176);fill-opacity:1;"/>
<path d="M18.31 87.2757C16.75 87.0657 15.28 86.9757 15.67 88.2957C18.7 98.7757 28.96 107.996 36.35 111.066C38.01 111.756 37.37 109.406 37.14 107.986C36.9 106.566 36.51 105.736 35.76 105.336C31.65 103.166 23.76 97.0257 20.98 88.8957C20.66 87.9757 19.87 87.4857 18.31 87.2757Z" fill="#FFFF8D" style="fill:#FFFF8D;fill:color(display-p3 1.0000 1.0000 0.5529);fill-opacity:1;"/>
<path d="M11.25 86.9757C9.99003 86.6157 8.59003 85.6757 8.84003 86.9557C11.66 101.706 24.39 114.226 36.77 118.376C37.48 118.616 37.46 117.926 37.15 115.936C36.85 114.016 36.43 113.806 35.99 113.576C28.48 109.696 17.95 102.026 13.11 89.0557C12.87 88.4157 12.57 87.4657 11.25 86.9757Z" fill="#E2A610" style="fill:#E2A610;fill:color(display-p3 0.8863 0.6510 0.0627);fill-opacity:1;"/>
<path d="M65.6848 40.5852L55.681 50.3953C54.2713 51.9232 54.3674 54.3113 55.8953 55.721L57.3792 57.2826C58.9071 58.6923 61.2952 58.5962 62.7049 57.0683L72.2949 46.6745C73.7046 45.1466 73.6085 42.7585 72.0806 41.3488L71.0101 40.361C69.4826 38.9613 67.0945 39.0573 65.6848 40.5852Z" fill="#212121" style="fill:#212121;fill:color(display-p3 0.1294 0.1294 0.1294);fill-opacity:1;"/>
<path d="M60.2041 49.3928C62.0141 49.32 63.5405 50.7283 63.6133 52.5383C63.6861 54.3483 62.2778 55.8747 60.4678 55.9475C58.6577 56.0203 57.1314 54.612 57.0586 52.802C56.9858 50.992 58.3941 49.4656 60.2041 49.3928Z" fill="#49A4BA" style="fill:#49A4BA;fill:color(display-p3 0.2863 0.6431 0.7294);fill-opacity:1;"/>
<path d="M31.9355 73.7076C35.7308 73.5142 34.5952 70.4275 41.1579 67.14C43.5811 65.9312 42.8647 64.549 41.8677 63.8987C37.2734 60.9117 36.2672 61.5228 32.0335 62.7547C28.7201 63.7292 20.5577 67.5517 20.3401 69.1018C20.1225 70.6518 21.9842 70.6567 23.641 71.0401C28.1766 72.0779 29.9379 73.8083 31.9355 73.7076Z" fill="#49A4BA" style="fill:#49A4BA;fill:color(display-p3 0.2863 0.6431 0.7294);fill-opacity:1;"/>
<path d="M36.51 59.1556C36.51 59.1556 47.06 60.9856 57.96 71.8956C68.86 82.8056 68.75 91.1656 68.75 91.4856L69.59 87.8156C69.59 87.8156 71.04 79.1756 60.79 68.9256C50.54 58.6756 40.2 58.4856 40.2 58.4856L36.51 59.1556Z" fill="#212121" style="fill:#212121;fill:color(display-p3 0.1294 0.1294 0.1294);fill-opacity:1;"/>
</svg>
