<svg width="128" height="129" viewBox="0 0 128 129" fill="none" xmlns="http://www.w3.org/2000/svg">
<g clip-path="url(#clip0_177_734)">
<path d="M63.6 119.3C37.4468 119.3 9.23145 102.896 9.23145 66.9C9.23145 30.9043 37.4468 14.5 63.6 14.5C78.1295 14.5 91.5341 19.2807 101.47 27.9984C112.25 37.5597 117.968 51.0581 117.968 66.9C117.968 82.7419 112.25 96.1465 101.47 105.708C91.5341 114.426 78.0357 119.3 63.6 119.3Z" fill="url(#paint0_radial_177_734)" style=""/>
<path d="M108.492 35.7506C113.488 43.8122 116.094 53.411 116.094 64.0879C116.094 79.9297 110.376 93.3344 99.5959 102.896C89.6595 111.613 76.1612 116.488 61.7254 116.488C44.7961 116.488 27.042 109.598 16.562 94.9842C26.6483 111.538 45.621 119.3 63.6002 119.3C78.0359 119.3 91.5343 114.426 101.471 105.708C112.251 96.1466 117.969 82.7419 117.969 66.9001C117.969 54.9577 114.716 44.3465 108.492 35.7506Z" fill="#EB8F00" style="fill:#EB8F00;fill:color(display-p3 0.9216 0.5608 0.0000);fill-opacity:1;"/>
<path d="M81.8789 89.7659L72.9737 98.3899L63.9748 89.7659L55.0696 98.3899L46.0707 89.7659" stroke="#35220B" style="stroke:#35220B;stroke:color(display-p3 0.2078 0.1333 0.0431);stroke-opacity:1;" stroke-width="8" stroke-linecap="round" stroke-linejoin="round"/>
<path d="M66.2631 30.6128C60.8214 31.0606 55.6512 31.3612 52.5794 32.4996C49.5075 33.6381 44.7732 37.1086 41.7709 39.4412C38.7687 41.7739 34.6908 41.2524 34.6469 37.5971C34.6486 36.6261 36.7021 34.1637 37.4501 33.1936C35.5586 34.1351 33.8404 35.4004 32.3745 36.921C28.9103 40.5007 23.7596 39.0948 26.5232 33.0776C26.5232 33.0776 23.4066 30.9158 31.139 21.8975C34.3071 18.485 37.9652 15.5504 41.9968 13.221C51.9997 7.54479 58.0889 5.83774 64.7032 5.61484C75.0435 5.27442 81.1216 10.7914 81.473 14.9507C82.0509 22.0874 75.7452 29.8328 66.2631 30.6128Z" fill="url(#paint1_radial_177_734)" style=""/>
<path d="M34.6807 37.6186C35.7278 35.9736 40.9601 31.2553 42.4934 30.1687C48.0239 26.0434 53.4057 25.9131 52.899 24.3814C52.3922 22.8496 49.2108 23.3967 41.9023 28.4529C39.5099 30.2373 37.4134 32.376 35.695 34.8147C35.1611 35.6721 34.815 36.6254 34.6807 37.6186Z" fill="#ED6C30" style="fill:#ED6C30;fill:color(display-p3 0.9294 0.4235 0.1882);fill-opacity:1;"/>
<path d="M26.4774 38.2523C25.7014 37.1063 26.051 33.0376 33.8836 26.0035C39.4734 20.4815 47.5835 18.5792 46.7623 17.2622C45.9665 15.4397 39.4299 18.6876 32.5271 24.5591C30.5296 26.3934 28.7192 28.4179 27.1428 30.615C26.3787 31.7407 24.0441 36.2647 26.4774 38.2523Z" fill="#ED6C30" style="fill:#ED6C30;fill:color(display-p3 0.9294 0.4235 0.1882);fill-opacity:1;"/>
<path d="M30.4245 75.5485C29.0645 74.2885 28.9845 72.1685 30.2445 70.8185C30.4445 70.5985 30.6745 70.4085 30.9245 70.2485C33.8445 68.0785 37.1245 66.4485 40.6245 65.4485C44.1545 64.5685 47.8045 64.2985 51.4245 64.6485C53.3045 64.6985 54.7945 66.2685 54.7445 68.1485C54.7345 68.4185 54.6945 68.6885 54.6245 68.9485C54.0345 70.6785 52.3445 71.7885 50.5245 71.6485C47.8445 71.3885 45.1445 71.5485 42.5245 72.1485C39.9445 72.9385 37.5045 74.1585 35.3245 75.7485C33.8445 76.8385 31.8045 76.7585 30.4245 75.5485Z" fill="#422B0D" style="fill:#422B0D;fill:color(display-p3 0.2588 0.1686 0.0510);fill-opacity:1;"/>
<path d="M97.9961 75.5485C99.3561 74.2885 99.4361 72.1685 98.1761 70.8185C97.9761 70.5985 97.7461 70.4085 97.4961 70.2485C94.5761 68.0785 91.2961 66.4485 87.7961 65.4485C84.2661 64.5685 80.6161 64.2985 76.9961 64.6485C75.1661 64.6785 73.7161 66.1885 73.7461 68.0185C73.7561 68.3385 73.8061 68.6485 73.8961 68.9485C74.4861 70.6785 76.1761 71.7885 77.9961 71.6485C80.6761 71.3885 83.3761 71.5485 85.9961 72.1485C88.5761 72.9385 91.0161 74.1585 93.1961 75.7485C94.6361 76.8385 96.6561 76.7585 97.9961 75.5485Z" fill="#422B0D" style="fill:#422B0D;fill:color(display-p3 0.2588 0.1686 0.0510);fill-opacity:1;"/>
</g>
<defs>
<radialGradient id="paint0_radial_177_734" cx="0" cy="0" r="1" gradientUnits="userSpaceOnUse" gradientTransform="translate(63.6 66.9) scale(53.3933 53.3934)">
<stop offset="0.5" stop-color="#FDE030" style="stop-color:#FDE030;stop-color:color(display-p3 0.9922 0.8784 0.1882);stop-opacity:1;"/>
<stop offset="0.92" stop-color="#F7C02B" style="stop-color:#F7C02B;stop-color:color(display-p3 0.9686 0.7529 0.1686);stop-opacity:1;"/>
<stop offset="1" stop-color="#F4A223" style="stop-color:#F4A223;stop-color:color(display-p3 0.9569 0.6353 0.1373);stop-opacity:1;"/>
</radialGradient>
<radialGradient id="paint1_radial_177_734" cx="0" cy="0" r="1" gradientUnits="userSpaceOnUse" gradientTransform="translate(60.2779 33.0117) rotate(-5.99985) scale(44.6982 41.1955)">
<stop offset="0.27" stop-color="#FFF176" style="stop-color:#FFF176;stop-color:color(display-p3 1.0000 0.9451 0.4627);stop-opacity:1;"/>
<stop offset="1" stop-color="#FFC400" style="stop-color:#FFC400;stop-color:color(display-p3 1.0000 0.7686 0.0000);stop-opacity:1;"/>
</radialGradient>
<clipPath id="clip0_177_734">
<rect width="128" height="128" fill="white" style="fill:white;fill-opacity:1;" transform="translate(0 0.5)"/>
</clipPath>
</defs>
</svg>
