<svg width="128" height="128" viewBox="0 0 128 128" fill="none" xmlns="http://www.w3.org/2000/svg">
<path d="M63.6 118.8C35.7 118.8 5.59998 101.3 5.59998 62.9C5.59998 24.5 35.7 7 63.6 7C79.1 7 93.4 12.1 104 21.4C115.5 31.6 121.6 46 121.6 62.9C121.6 79.8 115.5 94.1 104 104.3C93.4 113.6 79 118.8 63.6 118.8Z" fill="url(#paint0_radial_169_6746)" style=""/>
<path d="M63.6 118.8C35.7 118.8 5.59998 101.3 5.59998 62.9C5.59998 24.5 35.7 7 63.6 7C79.1 7 93.4 12.1 104 21.4C115.5 31.6 121.6 46 121.6 62.9C121.6 79.8 115.5 94.1 104 104.3C93.4 113.6 79 118.8 63.6 118.8Z" fill="url(#paint1_linear_169_6746)" style=""/>
<path d="M63.6 118.8C35.7 118.8 5.59998 101.3 5.59998 62.9C5.59998 24.5 35.7 7 63.6 7C79.1 7 93.4 12.1 104 21.4C115.5 31.6 121.6 46 121.6 62.9C121.6 79.8 115.5 94.1 104 104.3C93.4 113.6 79 118.8 63.6 118.8Z" fill="url(#paint2_radial_169_6746)" style=""/>
<path d="M63.6 118.8C35.7 118.8 5.59998 101.3 5.59998 62.9C5.59998 24.5 35.7 7 63.6 7C79.1 7 93.4 12.1 104 21.4C115.5 31.6 121.6 46 121.6 62.9C121.6 79.8 115.5 94.1 104 104.3C93.4 113.6 79 118.8 63.6 118.8Z" fill="url(#paint3_radial_169_6746)" style=""/>
<path d="M111.49 29.67C116.82 38.27 119.6 48.51 119.6 59.9C119.6 76.8 113.5 91.1 102 101.3C91.4 110.6 77 115.8 61.6 115.8C43.54 115.8 24.6 108.45 13.42 92.86C24.18 110.52 44.42 118.8 63.6 118.8C79 118.8 93.4 113.6 104 104.3C115.5 94.1001 121.6 79.8 121.6 62.9C121.6 50.16 118.13 38.84 111.49 29.67Z" fill="#EB8F00" style="fill:#EB8F00;fill:color(display-p3 0.9216 0.5608 0.0000);fill-opacity:1;"/>
<path d="M111.49 29.67C116.82 38.27 119.6 48.51 119.6 59.9C119.6 76.8 113.5 91.1 102 101.3C91.4 110.6 77 115.8 61.6 115.8C43.54 115.8 24.6 108.45 13.42 92.86C24.18 110.52 44.42 118.8 63.6 118.8C79 118.8 93.4 113.6 104 104.3C115.5 94.1001 121.6 79.8 121.6 62.9C121.6 50.16 118.13 38.84 111.49 29.67Z" fill="#F3B872" style="fill:#F3B872;fill:color(display-p3 0.9542 0.7229 0.4453);fill-opacity:1;"/>
<path d="M111.49 29.67C116.82 38.27 119.6 48.51 119.6 59.9C119.6 76.8 113.5 91.1 102 101.3C91.4 110.6 77 115.8 61.6 115.8C43.54 115.8 24.6 108.45 13.42 92.86C24.18 110.52 44.42 118.8 63.6 118.8C79 118.8 93.4 113.6 104 104.3C115.5 94.1001 121.6 79.8 121.6 62.9C121.6 50.16 118.13 38.84 111.49 29.67Z" fill="#BA8F63" style="fill:#BA8F63;fill:color(display-p3 0.7294 0.5608 0.3882);fill-opacity:1;"/>
<path d="M62.9 111.04C78.4966 111.04 91.14 99.968 91.14 86.31C91.14 72.6519 78.4966 61.58 62.9 61.58C47.3035 61.58 34.66 72.6519 34.66 86.31C34.66 99.968 47.3035 111.04 62.9 111.04Z" fill="#5D4037" style="fill:#5D4037;fill:color(display-p3 0.3647 0.2510 0.2157);fill-opacity:1;"/>
<path d="M95.81 49.07C95.81 49.07 89.6 38 76.76 40.36" stroke="#5D4037" style="stroke:#5D4037;stroke:color(display-p3 0.3647 0.2510 0.2157);stroke-opacity:1;" stroke-width="6" stroke-miterlimit="10" stroke-linecap="round"/>
<path d="M31.76 49.07C31.76 49.07 38 38 50.81 40.36" stroke="#5D4037" style="stroke:#5D4037;stroke:color(display-p3 0.3647 0.2510 0.2157);stroke-opacity:1;" stroke-width="6" stroke-miterlimit="10" stroke-linecap="round"/>
<path opacity="0.66" d="M71.17 82.9999C71.62 80.9999 71.96 81.9099 72.25 79.9199C72.47 78.4199 74.93 75.0999 74.96 73.5899C74.96 72.4799 75.5 70.7199 74.87 69.8099C72.67 66.6699 70.31 70.7399 69.19 71.1199C65.33 72.3999 62.98 76.2899 59.4 78.1499C54.85 80.4799 45.52 85.2999 40.53 86.4299C42.67 82.2699 47.59 63.5199 40.69 65.1299C37.54 65.8599 35.49 70.7799 34.77 72.2099C30.86 80.0099 25.43 83.7199 21.21 91.0999C16.99 98.4799 16.83 106.44 21.5 113.84C23.2 116.68 25.54 119.08 28.34 120.84C31.28 122.56 34.45 121.28 37.21 119.84C44.01 116.37 50.38 112.13 56.21 107.2C61.93 102.2 66.79 95.9499 69.45 88.7899C70.15 86.8899 70.73 84.9599 71.17 82.9999Z" fill="url(#paint4_linear_169_6746)" style=""/>
<path d="M86.8 86.8499C84.58 83.6699 78.8 86.9199 78.8 86.9199C78.8 86.9199 81.8 84.3099 84.3 81.9199C85.9 80.3899 87.3 77.1299 85.99 74.9199C84.68 72.7099 80.87 72.8499 79 73.9999L71.67 78.4999C71.67 78.4999 74.42 77.2999 75.25 72.5799C75.77 70.6699 74.65 68.6999 72.74 68.1799C72.38 68.0799 72.01 68.0399 71.64 68.0599C69.91 68.2099 68.26 68.8499 66.87 69.8999C61.57 73.6599 47.42 83.2499 44.25 82.9999C43.02 82.8999 42.91 82.7099 45.5 77.1699C47.24 73.8499 47.4 69.9199 45.94 66.4699C45.09 64.4699 41.17 63.9199 39.94 65.8499C39.01 67.2699 38.34 70.7499 36.72 74.2499C34 79.9999 27.73 87.7199 27.22 88.4799C23.49 93.9999 16.54 104.29 23.82 115.83C30.26 126.05 44.96 126.53 52.49 123.83C66.88 118.73 80.13 108.93 80.38 108.73C83 106.65 85.38 103.6 84.3 100.82C82.97 97.3799 78.56 99.4199 78.56 99.4199C81.11 97.8699 83.4 95.9199 85.33 93.6399C87.16 91.2799 88.29 88.9999 86.8 86.8499Z" fill="url(#paint5_radial_169_6746)" style=""/>
<path d="M86.8 86.8499C84.58 83.6699 78.8 86.9199 78.8 86.9199C78.8 86.9199 81.8 84.3099 84.3 81.9199C85.9 80.3899 87.3 77.1299 85.99 74.9199C84.68 72.7099 80.87 72.8499 79 73.9999L71.67 78.4999C71.67 78.4999 74.42 77.2999 75.25 72.5799C75.77 70.6699 74.65 68.6999 72.74 68.1799C72.38 68.0799 72.01 68.0399 71.64 68.0599C69.91 68.2099 68.26 68.8499 66.87 69.8999C61.57 73.6599 47.42 83.2499 44.25 82.9999C43.02 82.8999 42.91 82.7099 45.5 77.1699C47.24 73.8499 47.4 69.9199 45.94 66.4699C45.09 64.4699 41.17 63.9199 39.94 65.8499C39.01 67.2699 38.34 70.7499 36.72 74.2499C34 79.9999 27.73 87.7199 27.22 88.4799C23.49 93.9999 16.54 104.29 23.82 115.83C30.26 126.05 44.96 126.53 52.49 123.83C66.88 118.73 80.13 108.93 80.38 108.73C83 106.65 85.38 103.6 84.3 100.82C82.97 97.3799 78.56 99.4199 78.56 99.4199C81.11 97.8699 83.4 95.9199 85.33 93.6399C87.16 91.2799 88.29 88.9999 86.8 86.8499Z" fill="url(#paint6_radial_169_6746)" style=""/>
<path d="M86.8 86.8499C84.58 83.6699 78.8 86.9199 78.8 86.9199C78.8 86.9199 81.8 84.3099 84.3 81.9199C85.9 80.3899 87.3 77.1299 85.99 74.9199C84.68 72.7099 80.87 72.8499 79 73.9999L71.67 78.4999C71.67 78.4999 74.42 77.2999 75.25 72.5799C75.77 70.6699 74.65 68.6999 72.74 68.1799C72.38 68.0799 72.01 68.0399 71.64 68.0599C69.91 68.2099 68.26 68.8499 66.87 69.8999C61.57 73.6599 47.42 83.2499 44.25 82.9999C43.02 82.8999 42.91 82.7099 45.5 77.1699C47.24 73.8499 47.4 69.9199 45.94 66.4699C45.09 64.4699 41.17 63.9199 39.94 65.8499C39.01 67.2699 38.34 70.7499 36.72 74.2499C34 79.9999 27.73 87.7199 27.22 88.4799C23.49 93.9999 16.54 104.29 23.82 115.83C30.26 126.05 44.96 126.53 52.49 123.83C66.88 118.73 80.13 108.93 80.38 108.73C83 106.65 85.38 103.6 84.3 100.82C82.97 97.3799 78.56 99.4199 78.56 99.4199C81.11 97.8699 83.4 95.9199 85.33 93.6399C87.16 91.2799 88.29 88.9999 86.8 86.8499Z" fill="url(#paint7_radial_169_6746)" style=""/>
<path d="M54.06 90.2499C53.06 89.1699 58.06 87.2499 60.06 85.7899L66.32 81.7899C68.38 80.4599 70.29 78.9199 72.03 77.1999C73.83 75.5499 74.96 73.2999 75.2 70.8699C75.47 72.1499 75.4 73.4799 75 74.7199C74.58 75.9699 73.95 77.1399 73.12 78.1599C71.46 80.1199 69.53 81.8299 67.38 83.2399C65.34 84.7199 63.21 86.0499 60.99 87.2399C58.77 88.4099 54.63 91.3499 54.06 90.2499Z" fill="#ED6C30" style="fill:#ED6C30;fill:color(display-p3 0.9294 0.4235 0.1882);fill-opacity:1;"/>
<path d="M54.06 90.2499C53.06 89.1699 58.06 87.2499 60.06 85.7899L66.32 81.7899C68.38 80.4599 70.29 78.9199 72.03 77.1999C73.83 75.5499 74.96 73.2999 75.2 70.8699C75.47 72.1499 75.4 73.4799 75 74.7199C74.58 75.9699 73.95 77.1399 73.12 78.1599C71.46 80.1199 69.53 81.8299 67.38 83.2399C65.34 84.7199 63.21 86.0499 60.99 87.2399C58.77 88.4099 54.63 91.3499 54.06 90.2499Z" fill="#F3B872" style="fill:#F3B872;fill:color(display-p3 0.9542 0.7229 0.4453);fill-opacity:1;"/>
<path d="M54.06 90.2499C53.06 89.1699 58.06 87.2499 60.06 85.7899L66.32 81.7899C68.38 80.4599 70.29 78.9199 72.03 77.1999C73.83 75.5499 74.96 73.2999 75.2 70.8699C75.47 72.1499 75.4 73.4799 75 74.7199C74.58 75.9699 73.95 77.1399 73.12 78.1599C71.46 80.1199 69.53 81.8299 67.38 83.2399C65.34 84.7199 63.21 86.0499 60.99 87.2399C58.77 88.4099 54.63 91.3499 54.06 90.2499Z" fill="#BA8F63" style="fill:#BA8F63;fill:color(display-p3 0.7294 0.5608 0.3882);fill-opacity:1;"/>
<path d="M66.3799 105.75C65.8199 104.94 70.29 103.6 72.19 102.48C74.08 101.38 75.9099 100.19 77.6699 98.9099C79.4399 97.5999 81.2099 96.3299 82.8499 94.9099C84.5499 93.5099 86.0999 91.9399 87.4899 90.2399C86.7999 92.4399 85.6 94.4499 84 96.1099C82.44 97.7699 80.69 99.2399 78.8 100.51C77 101.82 67.4099 107.54 66.3799 105.75Z" fill="#ED6C30" style="fill:#ED6C30;fill:color(display-p3 0.9294 0.4235 0.1882);fill-opacity:1;"/>
<path d="M66.3799 105.75C65.8199 104.94 70.29 103.6 72.19 102.48C74.08 101.38 75.9099 100.19 77.6699 98.9099C79.4399 97.5999 81.2099 96.3299 82.8499 94.9099C84.5499 93.5099 86.0999 91.9399 87.4899 90.2399C86.7999 92.4399 85.6 94.4499 84 96.1099C82.44 97.7699 80.69 99.2399 78.8 100.51C77 101.82 67.4099 107.54 66.3799 105.75Z" fill="#F3B872" style="fill:#F3B872;fill:color(display-p3 0.9542 0.7229 0.4453);fill-opacity:1;"/>
<path d="M66.3799 105.75C65.8199 104.94 70.29 103.6 72.19 102.48C74.08 101.38 75.9099 100.19 77.6699 98.9099C79.4399 97.5999 81.2099 96.3299 82.8499 94.9099C84.5499 93.5099 86.0999 91.9399 87.4899 90.2399C86.7999 92.4399 85.6 94.4499 84 96.1099C82.44 97.7699 80.69 99.2399 78.8 100.51C77 101.82 67.4099 107.54 66.3799 105.75Z" fill="#BA8F63" style="fill:#BA8F63;fill:color(display-p3 0.7294 0.5608 0.3882);fill-opacity:1;"/>
<path d="M61 97.9999C60.15 96.9999 66 94.8299 68.37 93.2599C70.74 91.6899 73.11 90.1999 75.52 88.5299C77.9 86.9499 80.16 85.2099 82.28 83.3099C83.31 82.3599 84.22 81.2899 85 80.1299C85.81 78.9399 86.3 77.5599 86.42 76.1299C86.67 77.6199 86.45 79.1599 85.79 80.5199C85.16 81.8999 84.32 83.1699 83.31 84.2899C82.34 85.4199 81.27 86.4599 80.12 87.4099C78.99 88.4099 77.81 89.2599 76.62 90.1099C74.27 91.8699 71.78 93.4299 69.18 94.7999C66.54 96.1499 61.88 99.1499 61 97.9999Z" fill="#ED6C30" style="fill:#ED6C30;fill:color(display-p3 0.9294 0.4235 0.1882);fill-opacity:1;"/>
<path d="M61 97.9999C60.15 96.9999 66 94.8299 68.37 93.2599C70.74 91.6899 73.11 90.1999 75.52 88.5299C77.9 86.9499 80.16 85.2099 82.28 83.3099C83.31 82.3599 84.22 81.2899 85 80.1299C85.81 78.9399 86.3 77.5599 86.42 76.1299C86.67 77.6199 86.45 79.1599 85.79 80.5199C85.16 81.8999 84.32 83.1699 83.31 84.2899C82.34 85.4199 81.27 86.4599 80.12 87.4099C78.99 88.4099 77.81 89.2599 76.62 90.1099C74.27 91.8699 71.78 93.4299 69.18 94.7999C66.54 96.1499 61.88 99.1499 61 97.9999Z" fill="#F3B872" style="fill:#F3B872;fill:color(display-p3 0.9542 0.7229 0.4453);fill-opacity:1;"/>
<path d="M61 97.9999C60.15 96.9999 66 94.8299 68.37 93.2599C70.74 91.6899 73.11 90.1999 75.52 88.5299C77.9 86.9499 80.16 85.2099 82.28 83.3099C83.31 82.3599 84.22 81.2899 85 80.1299C85.81 78.9399 86.3 77.5599 86.42 76.1299C86.67 77.6199 86.45 79.1599 85.79 80.5199C85.16 81.8999 84.32 83.1699 83.31 84.2899C82.34 85.4199 81.27 86.4599 80.12 87.4099C78.99 88.4099 77.81 89.2599 76.62 90.1099C74.27 91.8699 71.78 93.4299 69.18 94.7999C66.54 96.1499 61.88 99.1499 61 97.9999Z" fill="#BA8F63" style="fill:#BA8F63;fill:color(display-p3 0.7294 0.5608 0.3882);fill-opacity:1;"/>
<path d="M30.58 122C33.1 122.96 35.74 123.58 38.43 123.84C41.09 124.14 43.77 124.14 46.43 123.84C49.06 123.54 51.65 122.96 54.16 122.11C56.68 121.24 59.13 120.18 61.49 118.93C66.34 116.56 71.15 114.11 75.75 111.33C78.05 109.99 80.2 108.39 82.15 106.57C83.11 105.67 83.83 104.55 84.26 103.3C84.69 102.02 84.4 100.6 83.51 99.59C84.56 100.55 85.01 102.01 84.67 103.39C84.32 104.76 83.67 106.03 82.76 107.11C81.89 108.21 80.91 109.21 79.84 110.11C78.79 111 77.7 111.84 76.57 112.62C72.04 115.68 67.3 118.41 62.37 120.77C59.92 122.05 57.37 123.12 54.75 123.98C52.09 124.8 49.34 125.3 46.56 125.46C41.01 125.84 35.47 124.64 30.58 122Z" fill="#ED6C30" style="fill:#ED6C30;fill:color(display-p3 0.9294 0.4235 0.1882);fill-opacity:1;"/>
<path d="M30.58 122C33.1 122.96 35.74 123.58 38.43 123.84C41.09 124.14 43.77 124.14 46.43 123.84C49.06 123.54 51.65 122.96 54.16 122.11C56.68 121.24 59.13 120.18 61.49 118.93C66.34 116.56 71.15 114.11 75.75 111.33C78.05 109.99 80.2 108.39 82.15 106.57C83.11 105.67 83.83 104.55 84.26 103.3C84.69 102.02 84.4 100.6 83.51 99.59C84.56 100.55 85.01 102.01 84.67 103.39C84.32 104.76 83.67 106.03 82.76 107.11C81.89 108.21 80.91 109.21 79.84 110.11C78.79 111 77.7 111.84 76.57 112.62C72.04 115.68 67.3 118.41 62.37 120.77C59.92 122.05 57.37 123.12 54.75 123.98C52.09 124.8 49.34 125.3 46.56 125.46C41.01 125.84 35.47 124.64 30.58 122Z" fill="#F3B872" style="fill:#F3B872;fill:color(display-p3 0.9542 0.7229 0.4453);fill-opacity:1;"/>
<path d="M30.58 122C33.1 122.96 35.74 123.58 38.43 123.84C41.09 124.14 43.77 124.14 46.43 123.84C49.06 123.54 51.65 122.96 54.16 122.11C56.68 121.24 59.13 120.18 61.49 118.93C66.34 116.56 71.15 114.11 75.75 111.33C78.05 109.99 80.2 108.39 82.15 106.57C83.11 105.67 83.83 104.55 84.26 103.3C84.69 102.02 84.4 100.6 83.51 99.59C84.56 100.55 85.01 102.01 84.67 103.39C84.32 104.76 83.67 106.03 82.76 107.11C81.89 108.21 80.91 109.21 79.84 110.11C78.79 111 77.7 111.84 76.57 112.62C72.04 115.68 67.3 118.41 62.37 120.77C59.92 122.05 57.37 123.12 54.75 123.98C52.09 124.8 49.34 125.3 46.56 125.46C41.01 125.84 35.47 124.64 30.58 122Z" fill="#BA8F63" style="fill:#BA8F63;fill:color(display-p3 0.7294 0.5608 0.3882);fill-opacity:1;"/>
<defs>
<radialGradient id="paint0_radial_169_6746" cx="0" cy="0" r="1" gradientUnits="userSpaceOnUse" gradientTransform="translate(63.6 62.8999) scale(56.9597 56.9597)">
<stop offset="0.5" stop-color="#FDE030" style="stop-color:#FDE030;stop-color:color(display-p3 0.9922 0.8784 0.1882);stop-opacity:1;"/>
<stop offset="0.92" stop-color="#F7C02B" style="stop-color:#F7C02B;stop-color:color(display-p3 0.9686 0.7529 0.1686);stop-opacity:1;"/>
<stop offset="1" stop-color="#F4A223" style="stop-color:#F4A223;stop-color:color(display-p3 0.9569 0.6353 0.1373);stop-opacity:1;"/>
</radialGradient>
<linearGradient id="paint1_linear_169_6746" x1="63.6" y1="118.8" x2="63.6" y2="7" gradientUnits="userSpaceOnUse">
<stop offset="0.16" stop-color="#F4A223" style="stop-color:#F4A223;stop-color:color(display-p3 0.9569 0.6353 0.1373);stop-opacity:1;"/>
<stop offset="0.33" stop-color="#F7C02B" style="stop-color:#F7C02B;stop-color:color(display-p3 0.9686 0.7529 0.1686);stop-opacity:1;"/>
<stop offset="0.81" stop-color="#FDE030" stop-opacity="0" style="stop-color:none;stop-opacity:0;"/>
</linearGradient>
<radialGradient id="paint2_radial_169_6746" cx="0" cy="0" r="1" gradientUnits="userSpaceOnUse" gradientTransform="translate(38.599 34.5377) rotate(-43.2082) scale(102.024 101.825)">
<stop offset="0.3533" stop-color="#F9DDBD" style="stop-color:#F9DDBD;stop-color:color(display-p3 0.9765 0.8667 0.7412);stop-opacity:1;"/>
<stop offset="0.8723" stop-color="#FFD29C" style="stop-color:#FFD29C;stop-color:color(display-p3 1.0000 0.8235 0.6118);stop-opacity:1;"/>
</radialGradient>
<radialGradient id="paint3_radial_169_6746" cx="0" cy="0" r="1" gradientUnits="userSpaceOnUse" gradientTransform="translate(38.599 34.5377) rotate(-43.2082) scale(102.024 101.825)">
<stop offset="0.3533" stop-color="#E0BB95" style="stop-color:#E0BB95;stop-color:color(display-p3 0.8784 0.7333 0.5843);stop-opacity:1;"/>
<stop offset="0.8723" stop-color="#CCA47A" style="stop-color:#CCA47A;stop-color:color(display-p3 0.8000 0.6431 0.4784);stop-opacity:1;"/>
</radialGradient>
<linearGradient id="paint4_linear_169_6746" x1="46.5982" y1="135.384" x2="46.5982" y2="73.1183" gradientUnits="userSpaceOnUse">
<stop stop-color="#BD795A" style="stop-color:#BD795A;stop-color:color(display-p3 0.7417 0.4759 0.3523);stop-opacity:1;"/>
<stop offset="1" stop-color="#9E7664" stop-opacity="0.2" style="stop-color:#9E7664;stop-color:color(display-p3 0.6208 0.4637 0.3906);stop-opacity:0.2;"/>
</linearGradient>
<radialGradient id="paint5_radial_169_6746" cx="0" cy="0" r="1" gradientUnits="userSpaceOnUse" gradientTransform="translate(55.06 81.9399) scale(65.06 65.06)">
<stop offset="0.27" stop-color="#FFF176" style="stop-color:#FFF176;stop-color:color(display-p3 1.0000 0.9451 0.4627);stop-opacity:1;"/>
<stop offset="1" stop-color="#FFC400" style="stop-color:#FFC400;stop-color:color(display-p3 1.0000 0.7686 0.0000);stop-opacity:1;"/>
</radialGradient>
<radialGradient id="paint6_radial_169_6746" cx="0" cy="0" r="1" gradientUnits="userSpaceOnUse" gradientTransform="translate(39.65 79.5746) rotate(-41.4461) scale(57.1781 56.7387)">
<stop offset="0.3533" stop-color="#F9DDBD" style="stop-color:#F9DDBD;stop-color:color(display-p3 0.9765 0.8667 0.7412);stop-opacity:1;"/>
<stop offset="0.8723" stop-color="#FFD29C" style="stop-color:#FFD29C;stop-color:color(display-p3 1.0000 0.8235 0.6118);stop-opacity:1;"/>
</radialGradient>
<radialGradient id="paint7_radial_169_6746" cx="0" cy="0" r="1" gradientUnits="userSpaceOnUse" gradientTransform="translate(39.65 79.5746) rotate(18.6563) scale(71.93 71.3772)">
<stop offset="0.3533" stop-color="#F0D3B4" style="stop-color:#F0D3B4;stop-color:color(display-p3 0.9417 0.8255 0.7063);stop-opacity:1;"/>
<stop offset="0.8723" stop-color="#CCA47A" style="stop-color:#CCA47A;stop-color:color(display-p3 0.8000 0.6431 0.4784);stop-opacity:1;"/>
</radialGradient>
</defs>
</svg>
