<svg width="128" height="129" viewBox="0 0 128 129" fill="none" xmlns="http://www.w3.org/2000/svg">
<path d="M104.02 24.4999L23.97 24.3799C8.91 24.3799 4 30.4899 4 43.2399V85.6399C4 96.0699 7.24 104.5 23.98 104.5L104.03 104.62C119.06 104.62 124.01 98.1799 124.01 85.7599V43.3599C124 29.3499 118.68 24.4999 104.02 24.4999Z" fill="#504F4F" style="fill:#504F4F;fill:color(display-p3 0.3137 0.3098 0.3098);fill-opacity:1;"/>
<path d="M109.54 67.1101C109.54 69.2301 107.87 70.9101 105.74 70.9101H22.2102C20.0902 70.9101 18.4102 69.2401 18.4102 67.1101V42.4201C18.4102 40.3001 20.0802 38.6201 22.2102 38.6201H105.74C107.86 38.6201 109.54 40.2901 109.54 42.4201V67.1101Z" fill="#8DCC47" style="fill:#8DCC47;fill:color(display-p3 0.5529 0.8000 0.2784);fill-opacity:1;"/>
<path opacity="0.5" d="M41.63 52.0602L40 53.6902C39.75 53.9402 39.34 53.9402 39.09 53.6902L37.46 52.0602C37.33 51.9302 37.27 51.7702 37.27 51.6002V47.0602C37.27 46.8902 37.34 46.7302 37.46 46.6002L39.09 44.9702C39.34 44.7202 39.75 44.7202 40 44.9702L41.63 46.6002C41.76 46.7302 41.82 46.8902 41.82 47.0602V51.6002C41.82 51.7802 41.75 51.9402 41.63 52.0602Z" fill="black" style="fill:black;fill-opacity:1;"/>
<path opacity="0.5" d="M41.63 62.9201L40 64.5501C39.75 64.8001 39.34 64.8001 39.09 64.5501L37.46 62.9201C37.33 62.7901 37.27 62.6301 37.27 62.4601V57.9201C37.27 57.7501 37.34 57.5901 37.46 57.4601L39.09 55.8301C39.34 55.5801 39.75 55.5801 40 55.8301L41.63 57.4601C41.76 57.5901 41.82 57.7501 41.82 57.9201V62.4601C41.82 62.6401 41.75 62.8001 41.63 62.9201Z" fill="black" style="fill:black;fill-opacity:1;"/>
<path opacity="0.5" d="M49.9904 52.0602L48.3604 53.6902C48.1104 53.9402 47.7004 53.9402 47.4504 53.6902L45.8204 52.0602C45.6904 51.9302 45.6304 51.7702 45.6304 51.6002V47.0602C45.6304 46.8902 45.7004 46.7302 45.8204 46.6002L47.4504 44.9702C47.7004 44.7202 48.1104 44.7202 48.3604 44.9702L49.9904 46.6002C50.1204 46.7302 50.1804 46.8902 50.1804 47.0602V51.6002C50.1804 51.7802 50.1104 51.9402 49.9904 52.0602Z" fill="black" style="fill:black;fill-opacity:1;"/>
<path opacity="0.5" d="M49.8253 62.9201L48.1953 64.5501C47.9453 64.8001 47.5353 64.8001 47.2853 64.5501L45.6553 62.9201C45.5253 62.7901 45.4653 62.6301 45.4653 62.4601V57.9201C45.4653 57.7501 45.5353 57.5901 45.6553 57.4601L47.2853 55.8301C47.5353 55.5801 47.9453 55.5801 48.1953 55.8301L49.8253 57.4601C49.9553 57.5901 50.0153 57.7501 50.0153 57.9201V62.4601C50.0153 62.6401 49.9453 62.8001 49.8253 62.9201Z" fill="black" style="fill:black;fill-opacity:1;"/>
<path opacity="0.5" d="M61.8903 52.0602L60.2603 53.6902C60.0103 53.9402 59.6003 53.9402 59.3503 53.6902L57.7203 52.0602C57.5903 51.9302 57.5303 51.7702 57.5303 51.6002V47.0602C57.5303 46.8902 57.6003 46.7302 57.7203 46.6002L59.3503 44.9702C59.6003 44.7202 60.0103 44.7202 60.2603 44.9702L61.8903 46.6002C62.0203 46.7302 62.0803 46.8902 62.0803 47.0602V51.6002C62.0803 51.7802 62.0103 51.9402 61.8903 52.0602Z" fill="black" style="fill:black;fill-opacity:1;"/>
<path opacity="0.5" d="M61.8903 62.9201L60.2603 64.5501C60.0103 64.8001 59.6003 64.8001 59.3503 64.5501L57.7203 62.9201C57.5903 62.7901 57.5303 62.6301 57.5303 62.4601V57.9201C57.5303 57.7501 57.6003 57.5901 57.7203 57.4601L59.3503 55.8301C59.6003 55.5801 60.0103 55.5801 60.2603 55.8301L61.8903 57.4601C62.0203 57.5901 62.0803 57.7501 62.0803 57.9201V62.4601C62.0803 62.6401 62.0103 62.8001 61.8903 62.9201Z" fill="black" style="fill:black;fill-opacity:1;"/>
<path opacity="0.5" d="M51.13 45.9899L49.5 44.3599C49.25 44.1099 49.25 43.6999 49.5 43.4499L51.13 41.8199C51.26 41.6899 51.42 41.6299 51.59 41.6299H56.14C56.31 41.6299 56.47 41.6999 56.6 41.8199L58.23 43.4499C58.48 43.6999 58.48 44.1099 58.23 44.3599L56.6 45.9899C56.47 46.1199 56.31 46.1799 56.14 46.1799H51.59C51.41 46.1799 51.25 46.1099 51.13 45.9899Z" fill="black" style="fill:black;fill-opacity:1;"/>
<path opacity="0.5" d="M51.13 56.8502L49.5 55.2202C49.25 54.9702 49.25 54.5602 49.5 54.3102L51.13 52.6802C51.26 52.5502 51.42 52.4902 51.59 52.4902H56.14C56.31 52.4902 56.47 52.5602 56.6 52.6802L58.23 54.3102C58.48 54.5602 58.48 54.9702 58.23 55.2202L56.6 56.8502C56.47 56.9802 56.31 57.0402 56.14 57.0402H51.59C51.41 57.0402 51.25 56.9702 51.13 56.8502Z" fill="black" style="fill:black;fill-opacity:1;"/>
<path opacity="0.5" d="M51.13 67.7101L49.5 66.0801C49.25 65.8301 49.25 65.4201 49.5 65.1701L51.13 63.5401C51.26 63.4101 51.42 63.3501 51.59 63.3501H56.14C56.31 63.3501 56.47 63.4201 56.6 63.5401L58.23 65.1701C58.48 65.4201 58.48 65.8301 58.23 66.0801L56.6 67.7101C56.47 67.8401 56.31 67.9001 56.14 67.9001H51.59C51.41 67.9001 51.25 67.8301 51.13 67.7101Z" fill="black" style="fill:black;fill-opacity:1;"/>
<path opacity="0.5" d="M29.6984 52.0602L28.0684 53.6902C27.8184 53.9402 27.4084 53.9402 27.1584 53.6902L25.5284 52.0602C25.3984 51.9302 25.3384 51.7702 25.3384 51.6002V47.0602C25.3384 46.8902 25.4084 46.7302 25.5284 46.6002L27.1584 44.9702C27.4084 44.7202 27.8184 44.7202 28.0684 44.9702L29.6984 46.6002C29.8284 46.7302 29.8884 46.8902 29.8884 47.0602V51.6002C29.8884 51.7802 29.8184 51.9402 29.6984 52.0602Z" fill="black" style="fill:black;fill-opacity:1;"/>
<path opacity="0.5" d="M29.5333 62.9201L27.9033 64.5501C27.6533 64.8001 27.2433 64.8001 26.9933 64.5501L25.3633 62.9201C25.2333 62.7901 25.1733 62.6301 25.1733 62.4601V57.9201C25.1733 57.7501 25.2433 57.5901 25.3633 57.4601L26.9933 55.8301C27.2433 55.5801 27.6533 55.5801 27.9033 55.8301L29.5333 57.4601C29.6633 57.5901 29.7233 57.7501 29.7233 57.9201V62.4601C29.7233 62.6401 29.6533 62.8001 29.5333 62.9201Z" fill="black" style="fill:black;fill-opacity:1;"/>
<path opacity="0.5" d="M30.838 45.9899L29.208 44.3599C28.958 44.1099 28.958 43.6999 29.208 43.4499L30.838 41.8199C30.968 41.6899 31.128 41.6299 31.298 41.6299H35.848C36.018 41.6299 36.178 41.6999 36.308 41.8199L37.938 43.4499C38.188 43.6999 38.188 44.1099 37.938 44.3599L36.308 45.9899C36.178 46.1199 36.018 46.1799 35.848 46.1799H31.298C31.118 46.1799 30.958 46.1099 30.838 45.9899Z" fill="black" style="fill:black;fill-opacity:1;"/>
<path opacity="0.5" d="M30.838 56.8502L29.208 55.2202C28.958 54.9702 28.958 54.5602 29.208 54.3102L30.838 52.6802C30.968 52.5502 31.128 52.4902 31.298 52.4902H35.848C36.018 52.4902 36.178 52.5602 36.308 52.6802L37.938 54.3102C38.188 54.5602 38.188 54.9702 37.938 55.2202L36.308 56.8502C36.178 56.9802 36.018 57.0402 35.848 57.0402H31.298C31.118 57.0402 30.958 56.9702 30.838 56.8502Z" fill="black" style="fill:black;fill-opacity:1;"/>
<path opacity="0.5" d="M30.838 67.7101L29.208 66.0801C28.958 65.8301 28.958 65.4201 29.208 65.1701L30.838 63.5401C30.968 63.4101 31.128 63.3501 31.298 63.3501H35.848C36.018 63.3501 36.178 63.4201 36.308 63.5401L37.938 65.1701C38.188 65.4201 38.188 65.8301 37.938 66.0801L36.308 67.7101C36.178 67.8401 36.018 67.9001 35.848 67.9001H31.298C31.118 67.9001 30.958 67.8301 30.838 67.7101Z" fill="black" style="fill:black;fill-opacity:1;"/>
<path opacity="0.5" d="M70.2501 52.0602L68.6201 53.6902C68.3701 53.9402 67.9601 53.9402 67.7101 53.6902L66.0801 52.0602C65.9501 51.9302 65.8901 51.7702 65.8901 51.6002V47.0602C65.8901 46.8902 65.9601 46.7302 66.0801 46.6002L67.7101 44.9702C67.9601 44.7202 68.3701 44.7202 68.6201 44.9702L70.2501 46.6002C70.3801 46.7302 70.4401 46.8902 70.4401 47.0602V51.6002C70.4401 51.7802 70.3701 51.9402 70.2501 52.0602Z" fill="black" style="fill:black;fill-opacity:1;"/>
<path opacity="0.5" d="M82.1603 52.0602L80.5303 53.6902C80.2803 53.9402 79.8703 53.9402 79.6203 53.6902L77.9903 52.0602C77.8603 51.9302 77.8003 51.7702 77.8003 51.6002V47.0602C77.8003 46.8902 77.8703 46.7302 77.9903 46.6002L79.6203 44.9702C79.8703 44.7202 80.2803 44.7202 80.5303 44.9702L82.1603 46.6002C82.2903 46.7302 82.3503 46.8902 82.3503 47.0602V51.6002C82.3403 51.7802 82.2703 51.9402 82.1603 52.0602Z" fill="black" style="fill:black;fill-opacity:1;"/>
<path opacity="0.5" d="M82.1603 62.9201L80.5303 64.5501C80.2803 64.8001 79.8703 64.8001 79.6203 64.5501L77.9903 62.9201C77.8603 62.7901 77.8003 62.6301 77.8003 62.4601V57.9201C77.8003 57.7501 77.8703 57.5901 77.9903 57.4601L79.6203 55.8301C79.8703 55.5801 80.2803 55.5801 80.5303 55.8301L82.1603 57.4601C82.2903 57.5901 82.3503 57.7501 82.3503 57.9201V62.4601C82.3403 62.6401 82.2703 62.8001 82.1603 62.9201Z" fill="black" style="fill:black;fill-opacity:1;"/>
<path opacity="0.5" d="M71.3903 45.9899L69.7603 44.3599C69.5103 44.1099 69.5103 43.6999 69.7603 43.4499L71.3903 41.8199C71.5203 41.6899 71.6803 41.6299 71.8503 41.6299H76.4003C76.5703 41.6299 76.7303 41.6999 76.8603 41.8199L78.4902 43.4499C78.7402 43.6999 78.7402 44.1099 78.4902 44.3599L76.8603 45.9899C76.7303 46.1199 76.5703 46.1799 76.4003 46.1799H71.8503C71.6703 46.1799 71.5103 46.1099 71.3903 45.9899Z" fill="black" style="fill:black;fill-opacity:1;"/>
<path opacity="0.5" d="M71.3903 56.8502L69.7603 55.2202C69.5103 54.9702 69.5103 54.5602 69.7603 54.3102L71.3903 52.6802C71.5203 52.5502 71.6803 52.4902 71.8503 52.4902H76.4003C76.5703 52.4902 76.7303 52.5602 76.8603 52.6802L78.4902 54.3102C78.7402 54.5602 78.7402 54.9702 78.4902 55.2202L76.8603 56.8502C76.7303 56.9802 76.5703 57.0402 76.4003 57.0402H71.8503C71.6703 57.0402 71.5103 56.9702 71.3903 56.8502Z" fill="black" style="fill:black;fill-opacity:1;"/>
<path opacity="0.5" d="M71.3903 67.7101L69.7603 66.0801C69.5103 65.8301 69.5103 65.4201 69.7603 65.1701L71.3903 63.5401C71.5203 63.4101 71.6803 63.3501 71.8503 63.3501H76.4003C76.5703 63.3501 76.7303 63.4201 76.8603 63.5401L78.4902 65.1701C78.7402 65.4201 78.7402 65.8301 78.4902 66.0801L76.8603 67.7101C76.7303 67.8401 76.5703 67.9001 76.4003 67.9001H71.8503C71.6703 67.9001 71.5103 67.8301 71.3903 67.7101Z" fill="black" style="fill:black;fill-opacity:1;"/>
<path opacity="0.5" d="M90.5201 52.0602L88.8902 53.6902C88.6402 53.9402 88.2302 53.9402 87.9802 53.6902L86.3502 52.0602C86.2202 51.9302 86.1602 51.7702 86.1602 51.6002V47.0602C86.1602 46.8902 86.2302 46.7302 86.3502 46.6002L87.9802 44.9702C88.2302 44.7202 88.6402 44.7202 88.8902 44.9702L90.5201 46.6002C90.6501 46.7302 90.7102 46.8902 90.7102 47.0602V51.6002C90.7002 51.7802 90.6301 51.9402 90.5201 52.0602Z" fill="black" style="fill:black;fill-opacity:1;"/>
<path opacity="0.5" d="M102.41 52.0602L100.78 53.6902C100.53 53.9402 100.12 53.9402 99.8703 53.6902L98.2403 52.0602C98.1103 51.9302 98.0503 51.7702 98.0503 51.6002V47.0602C98.0503 46.8902 98.1203 46.7302 98.2403 46.6002L99.8703 44.9702C100.12 44.7202 100.53 44.7202 100.78 44.9702L102.41 46.6002C102.54 46.7302 102.6 46.8902 102.6 47.0602V51.6002C102.61 51.7802 102.54 51.9402 102.41 52.0602Z" fill="black" style="fill:black;fill-opacity:1;"/>
<path opacity="0.5" d="M90.5201 62.9201L88.8902 64.5501C88.6402 64.8001 88.2302 64.8001 87.9802 64.5501L86.3502 62.9201C86.2202 62.7901 86.1602 62.6301 86.1602 62.4601V57.9201C86.1602 57.7501 86.2302 57.5901 86.3502 57.4601L87.9802 55.8301C88.2302 55.5801 88.6402 55.5801 88.8902 55.8301L90.5201 57.4601C90.6501 57.5901 90.7102 57.7501 90.7102 57.9201V62.4601C90.7002 62.6401 90.6301 62.8001 90.5201 62.9201Z" fill="black" style="fill:black;fill-opacity:1;"/>
<path opacity="0.5" d="M70.2501 62.9201L68.6201 64.5501C68.3701 64.8001 67.9601 64.8001 67.7101 64.5501L66.0801 62.9201C65.9501 62.7901 65.8901 62.6301 65.8901 62.4601V57.9201C65.8901 57.7501 65.9601 57.5901 66.0801 57.4601L67.7101 55.8301C67.9601 55.5801 68.3701 55.5801 68.6201 55.8301L70.2501 57.4601C70.3801 57.5901 70.4401 57.7501 70.4401 57.9201V62.4601C70.4301 62.6401 70.3601 62.8001 70.2501 62.9201Z" fill="black" style="fill:black;fill-opacity:1;"/>
<path opacity="0.5" d="M102.41 62.9201L100.78 64.5501C100.53 64.8001 100.12 64.8001 99.8703 64.5501L98.2403 62.9201C98.1103 62.7901 98.0503 62.6301 98.0503 62.4601V57.9201C98.0503 57.7501 98.1203 57.5901 98.2403 57.4601L99.8703 55.8301C100.12 55.5801 100.53 55.5801 100.78 55.8301L102.41 57.4601C102.54 57.5901 102.6 57.7501 102.6 57.9201V62.4601C102.61 62.6401 102.54 62.8001 102.41 62.9201Z" fill="black" style="fill:black;fill-opacity:1;"/>
<path opacity="0.5" d="M91.6603 45.9899L90.0303 44.3599C89.7803 44.1099 89.7803 43.6999 90.0303 43.4499L91.6603 41.8199C91.7903 41.6899 91.9503 41.6299 92.1203 41.6299H96.6703C96.8403 41.6299 97.0003 41.6999 97.1303 41.8199L98.7603 43.4499C99.0103 43.6999 99.0103 44.1099 98.7603 44.3599L97.1303 45.9899C97.0003 46.1199 96.8403 46.1799 96.6703 46.1799H92.1203C91.9403 46.1799 91.7703 46.1099 91.6603 45.9899Z" fill="black" style="fill:black;fill-opacity:1;"/>
<path opacity="0.5" d="M91.6603 56.8502L90.0303 55.2202C89.7803 54.9702 89.7803 54.5602 90.0303 54.3102L91.6603 52.6802C91.7903 52.5502 91.9503 52.4902 92.1203 52.4902H96.6703C96.8403 52.4902 97.0003 52.5602 97.1303 52.6802L98.7603 54.3102C99.0103 54.5602 99.0103 54.9702 98.7603 55.2202L97.1303 56.8502C97.0003 56.9802 96.8403 57.0402 96.6703 57.0402H92.1203C91.9403 57.0402 91.7703 56.9702 91.6603 56.8502Z" fill="black" style="fill:black;fill-opacity:1;"/>
<path opacity="0.5" d="M91.6603 67.7101L90.0303 66.0801C89.7803 65.8301 89.7803 65.4201 90.0303 65.1701L91.6603 63.5401C91.7903 63.4101 91.9503 63.3501 92.1203 63.3501H96.6703C96.8403 63.3501 97.0003 63.4201 97.1303 63.5401L98.7603 65.1701C99.0103 65.4201 99.0103 65.8301 98.7603 66.0801L97.1303 67.7101C97.0003 67.8401 96.8403 67.9001 96.6703 67.9001H92.1203C91.9403 67.9001 91.7703 67.8301 91.6603 67.7101Z" fill="black" style="fill:black;fill-opacity:1;"/>
<path d="M106.07 95.0798H97.39C93.52 95.0798 91.54 92.0398 91.54 88.1798C91.54 84.3098 93.52 81.2798 97.39 81.2798H106.07C109.94 81.2798 111.92 84.3198 111.92 88.1798C111.9 91.7698 109.92 95.0798 106.07 95.0798Z" fill="black" style="fill:black;fill-opacity:1;"/>
<path d="M105.59 90.4999H97.7899C95.7499 90.4999 95.7999 89.4799 95.7999 88.1799C95.7999 86.8799 95.7499 85.8599 97.7899 85.8599H105.59C107.63 85.8599 107.67 86.8799 107.67 88.1799C107.66 89.3799 107.62 90.4999 105.59 90.4999Z" fill="#8BC34A" style="fill:#8BC34A;fill:color(display-p3 0.5451 0.7647 0.2902);fill-opacity:1;"/>
<path d="M30.6101 95.0798H21.9301C18.0601 95.0798 16.0801 92.0398 16.0801 88.1798C16.0801 84.3098 18.0601 81.2798 21.9301 81.2798H30.6101C34.4801 81.2798 36.4601 84.3198 36.4601 88.1798C36.4601 91.7698 34.4701 95.0798 30.6101 95.0798Z" fill="black" style="fill:black;fill-opacity:1;"/>
<path d="M26.2699 92.34C28.5674 92.34 30.4299 90.4775 30.4299 88.18C30.4299 85.8825 28.5674 84.02 26.2699 84.02C23.9724 84.02 22.1099 85.8825 22.1099 88.18C22.1099 90.4775 23.9724 92.34 26.2699 92.34Z" fill="#F44336" style="fill:#F44336;fill:color(display-p3 0.9569 0.2627 0.2118);fill-opacity:1;"/>
<path d="M80.9099 95.0798H72.2299C68.3599 95.0798 66.3799 92.0398 66.3799 88.1798C66.3799 84.3098 68.3599 81.2798 72.2299 81.2798H80.9099C84.7799 81.2798 86.7599 84.3198 86.7599 88.1798C86.7699 91.7698 84.7799 95.0798 80.9099 95.0798Z" fill="black" style="fill:black;fill-opacity:1;"/>
<path d="M74.54 84.02L81.43 88.18L74.54 92.34V84.02Z" fill="#EEEEEE" style="fill:#EEEEEE;fill:color(display-p3 0.9333 0.9333 0.9333);fill-opacity:1;"/>
<path d="M47.0903 95.0798H55.7703C59.6403 95.0798 61.6203 92.0398 61.6203 88.1798C61.6203 84.3098 59.6403 81.2798 55.7703 81.2798H47.0903C43.2203 81.2798 41.2403 84.3198 41.2403 88.1798C41.2303 91.7698 43.2203 95.0798 47.0903 95.0798Z" fill="black" style="fill:black;fill-opacity:1;"/>
<path d="M53.4603 84.02L46.5703 88.18L53.4603 92.34V84.02Z" fill="#EEEEEE" style="fill:#EEEEEE;fill:color(display-p3 0.9333 0.9333 0.9333);fill-opacity:1;"/>
<path d="M105.75 38.6199C107.87 38.6199 109.55 40.2899 109.55 42.4199V67.0999C109.55 69.2199 107.88 70.8999 105.75 70.8999H22.2102C20.0902 70.8999 18.4102 69.2299 18.4102 67.0999V42.4199C18.4102 40.2999 20.0802 38.6199 22.2102 38.6199H105.75ZM105.75 33.4399H22.2102C17.2502 33.4399 13.2202 37.4699 13.2202 42.4299V67.1099C13.2202 72.0699 17.2502 76.0999 22.2102 76.0999H105.74C110.7 76.0999 114.73 72.0699 114.73 67.1099V42.4199C114.73 37.4699 110.7 33.4399 105.75 33.4399Z" fill="black" style="fill:black;fill-opacity:1;"/>
</svg>
