<svg width="128" height="128" viewBox="0 0 128 128" fill="none" xmlns="http://www.w3.org/2000/svg">
<path d="M63.6001 118.8C35.7001 118.8 5.6001 101.3 5.6001 62.9C5.6001 24.5 35.7001 7 63.6001 7C79.1001 7 93.4001 12.1 104 21.4C115.5 31.6 121.6 46 121.6 62.9C121.6 79.8 115.5 94.1 104 104.3C93.4001 113.6 79.0001 118.8 63.6001 118.8Z" fill="url(#paint0_radial_169_8654)" style=""/>
<path d="M63.6001 118.8C35.7001 118.8 5.6001 101.3 5.6001 62.9C5.6001 24.5 35.7001 7 63.6001 7C79.1001 7 93.4001 12.1 104 21.4C115.5 31.6 121.6 46 121.6 62.9C121.6 79.8 115.5 94.1 104 104.3C93.4001 113.6 79.0001 118.8 63.6001 118.8Z" fill="url(#paint1_radial_169_8654)" style=""/>
<path d="M111.49 29.67C116.82 38.27 119.6 48.51 119.6 59.9C119.6 76.8 113.5 91.1 102 101.3C91.3999 110.6 76.9999 115.8 61.5999 115.8C43.5399 115.8 24.5599 108.45 13.4199 92.86C24.1799 110.52 44.4099 118.8 63.5999 118.8C78.9999 118.8 93.3999 113.6 104 104.3C115.5 94.1 121.6 79.8 121.6 62.9C121.6 50.16 118.13 38.84 111.49 29.67Z" fill="#D84213" style="fill:#D84213;fill:color(display-p3 0.8471 0.2588 0.0745);fill-opacity:1;"/>
<path d="M27.25 82.66C36.915 82.66 44.75 74.825 44.75 65.16C44.75 55.495 36.915 47.66 27.25 47.66C17.585 47.66 9.75 55.495 9.75 65.16C9.75 74.825 17.585 82.66 27.25 82.66Z" fill="url(#paint2_radial_169_8654)" style=""/>
<path d="M100.75 82.66C110.415 82.66 118.25 74.825 118.25 65.16C118.25 55.495 110.415 47.66 100.75 47.66C91.085 47.66 83.25 55.495 83.25 65.16C83.25 74.825 91.085 82.66 100.75 82.66Z" fill="url(#paint3_radial_169_8654)" style=""/>
<path d="M64 103C79.7236 103 92.47 97.6946 92.47 91.15C92.47 84.6054 79.7236 79.3 64 79.3C48.2765 79.3 35.53 84.6054 35.53 91.15C35.53 97.6946 48.2765 103 64 103Z" fill="#422B0D" style="fill:#422B0D;fill:color(display-p3 0.2588 0.1686 0.0510);fill-opacity:1;"/>
<path d="M65.1001 98.32C66.2001 98.32 67.1001 97.42 67.1001 96.32V82.6C65.7701 82.57 64.4301 82.56 63.1001 82.58V96.32C63.1001 97.42 64.0001 98.32 65.1001 98.32Z" fill="#FF0044" style="fill:#FF0044;fill:color(display-p3 1.0000 0.0000 0.2667);fill-opacity:1;"/>
<path opacity="0.3" d="M65.1001 98.32C66.2001 98.32 67.1001 97.42 67.1001 96.32V82.6C65.7701 82.57 64.4301 82.56 63.1001 82.58V96.32C63.1001 97.42 64.0001 98.32 65.1001 98.32Z" fill="#1F0B08" style="fill:#1F0B08;fill:color(display-p3 0.1216 0.0431 0.0314);fill-opacity:1;"/>
<path d="M19.52 107.04C11.06 107.04 4.55005 98.84 4.55005 91.81C4.55005 86.86 6.76005 81.13 9.89005 73.19C10.28 72.02 10.8 70.85 11.32 69.54C12.81 65.82 14.13 61.79 16.13 58.3C17.49 55.92 20.9601 55.92 22.2701 58.33C24.1301 61.76 25.41 65.47 27.34 69.8C32.81 82.04 34.37 86.98 34.37 91.93C34.49 98.83 27.85 107.04 19.52 107.04Z" fill="url(#paint4_radial_169_8654)" style=""/>
<path d="M28.6699 97.65C26.7599 100.61 22.4199 100.05 22.4199 95.14C22.4199 92 23.0599 75.89 25.7499 78.14C30.1399 81.81 31.3899 93.47 28.6699 97.65Z" fill="#81D4FA" style="fill:#81D4FA;fill:color(display-p3 0.5059 0.8314 0.9804);fill-opacity:1;"/>
<path d="M27.39 39.77C25.19 40.16 25.08 43.36 27.48 43.47C32.38 43.59 37.69 41.81 41.8 38.02C43.3 36.73 44.61 35.13 45.52 33.53C46.73 31.33 43.93 29.82 42.53 31.42L42.43 31.52C38.4 36.01 32.89 38.89 27.39 39.77Z" fill="#422B0D" style="fill:#422B0D;fill:color(display-p3 0.2588 0.1686 0.0510);fill-opacity:1;"/>
<path d="M86.1199 31.52L86.0199 31.42C84.6099 29.83 81.8199 31.34 83.0299 33.53C83.9399 35.13 85.2399 36.72 86.7499 38.02C90.8599 41.8 96.1699 43.59 101.07 43.47C103.47 43.36 103.36 40.16 101.16 39.77C95.6499 38.89 90.1399 36.01 86.1199 31.52Z" fill="#422B0D" style="fill:#422B0D;fill:color(display-p3 0.2588 0.1686 0.0510);fill-opacity:1;"/>
<path d="M67.1 85.86V96.32C67.1 97.42 66.2 98.32 65.1 98.32C64 98.32 63.1 97.42 63.1 96.32V85.87C55.65 86.09 49.69 87.39 46.25 88.35V100.94C46.25 110.45 53.96 118.15 63.46 118.15H66.74C76.25 118.15 83.95 110.44 83.95 100.94V88.35C77.97 86.69 72.26 85.99 67.1 85.86Z" fill="#FF4081" style="fill:#FF4081;fill:color(display-p3 1.0000 0.2510 0.5059);fill-opacity:1;"/>
<path d="M67.1001 82.6V85.86C72.2601 85.99 77.9701 86.68 83.9501 88.34V86.6C80.5501 84.5 72.9501 82.75 67.1001 82.6Z" fill="#FF4081" style="fill:#FF4081;fill:color(display-p3 1.0000 0.2510 0.5059);fill-opacity:1;"/>
<path opacity="0.3" d="M67.1001 82.6V85.86C72.2601 85.99 77.9701 86.68 83.9501 88.34V86.6C80.5501 84.5 72.9501 82.75 67.1001 82.6Z" fill="#AB3F2E" style="fill:#AB3F2E;fill:color(display-p3 0.6706 0.2471 0.1804);fill-opacity:1;"/>
<path d="M63.1 82.58C57.22 82.68 50.93 83.57 46.25 86.55V88.35C49.7 87.39 55.66 86.09 63.1 85.87V82.58Z" fill="#FF4081" style="fill:#FF4081;fill:color(display-p3 1.0000 0.2510 0.5059);fill-opacity:1;"/>
<path opacity="0.3" d="M63.1 82.58C57.22 82.68 50.93 83.57 46.25 86.55V88.35C49.7 87.39 55.66 86.09 63.1 85.87V82.58Z" fill="#AB3F2E" style="fill:#AB3F2E;fill:color(display-p3 0.6706 0.2471 0.1804);fill-opacity:1;"/>
<path d="M112.62 59.56C105.14 59.56 99.3799 52.31 99.3799 46.09C99.3799 41.72 101.34 36.65 104.1 29.63C104.45 28.59 104.91 27.56 105.37 26.41C106.69 23.12 107.85 19.55 109.62 16.47C110.83 14.36 113.89 14.37 115.05 16.5C116.7 19.53 117.82 22.81 119.53 26.64C124.36 37.46 125.75 41.83 125.75 46.21C125.86 52.31 119.99 59.56 112.62 59.56Z" fill="url(#paint5_radial_169_8654)" style=""/>
<path d="M120.72 51.26C119.03 53.87 115.19 53.38 115.19 49.04C115.19 46.27 115.75 32.02 118.14 34.01C122.02 37.25 123.12 47.57 120.72 51.26Z" fill="#81D4FA" style="fill:#81D4FA;fill:color(display-p3 0.5059 0.8314 0.9804);fill-opacity:1;"/>
<path d="M44.04 45.94C39.85 45.94 36.04 49.48 36.04 55.36C36.04 61.24 39.85 64.78 44.04 64.78C48.23 64.78 52.04 61.24 52.04 55.36C52.04 49.48 48.24 45.94 44.04 45.94Z" fill="#422B0D" style="fill:#422B0D;fill:color(display-p3 0.2588 0.1686 0.0510);fill-opacity:1;"/>
<path d="M43.6502 49.87C42.6202 49.15 41.0702 49.38 40.0702 50.82C39.0702 52.27 39.4002 53.79 40.4302 54.51C41.4602 55.23 43.0101 55 44.0101 53.56C45.0101 52.12 44.6902 50.59 43.6502 49.87Z" fill="#896024" style="fill:#896024;fill:color(display-p3 0.5373 0.3765 0.1412);fill-opacity:1;"/>
<path d="M82.4001 45.94C78.2101 45.94 74.4001 49.48 74.4001 55.36C74.4001 61.24 78.2101 64.78 82.4001 64.78C86.5901 64.78 90.4001 61.24 90.4001 55.36C90.4001 49.48 86.5901 45.94 82.4001 45.94Z" fill="#422B0D" style="fill:#422B0D;fill:color(display-p3 0.2588 0.1686 0.0510);fill-opacity:1;"/>
<path d="M82.01 49.87C80.98 49.15 79.43 49.38 78.43 50.82C77.43 52.27 77.76 53.79 78.79 54.51C79.82 55.23 81.37 55 82.37 53.56C83.38 52.11 83.04 50.59 82.01 49.87Z" fill="#896024" style="fill:#896024;fill:color(display-p3 0.5373 0.3765 0.1412);fill-opacity:1;"/>
<defs>
<radialGradient id="paint0_radial_169_8654" cx="0" cy="0" r="1" gradientUnits="userSpaceOnUse" gradientTransform="translate(63.6001 62.8999) scale(56.9597 56.9597)">
<stop offset="0.5" stop-color="#FDE030" style="stop-color:#FDE030;stop-color:color(display-p3 0.9922 0.8784 0.1882);stop-opacity:1;"/>
<stop offset="0.9188" stop-color="#F7C02B" style="stop-color:#F7C02B;stop-color:color(display-p3 0.9686 0.7529 0.1686);stop-opacity:1;"/>
<stop offset="1" stop-color="#F4A223" style="stop-color:#F4A223;stop-color:color(display-p3 0.9569 0.6353 0.1373);stop-opacity:1;"/>
</radialGradient>
<radialGradient id="paint1_radial_169_8654" cx="0" cy="0" r="1" gradientUnits="userSpaceOnUse" gradientTransform="translate(63.6001 62.8999) scale(56.9597 56.9597)">
<stop offset="0.3556" stop-color="#925A49" style="stop-color:#925A49;stop-color:color(display-p3 0.5708 0.3548 0.2878);stop-opacity:1;"/>
<stop offset="0.7052" stop-color="#BB6514" style="stop-color:#BB6514;stop-color:color(display-p3 0.7333 0.3977 0.0794);stop-opacity:1;"/>
<stop offset="0.8605" stop-color="#C86420" style="stop-color:#C86420;stop-color:color(display-p3 0.7833 0.3936 0.1273);stop-opacity:1;"/>
<stop offset="1" stop-color="#FF5100" style="stop-color:#FF5100;stop-color:color(display-p3 1.0000 0.3176 0.0000);stop-opacity:1;"/>
</radialGradient>
<radialGradient id="paint2_radial_169_8654" cx="0" cy="0" r="1" gradientUnits="userSpaceOnUse" gradientTransform="translate(27.2506 65.1621) scale(19.038 18.0852)">
<stop offset="0.00510817" stop-color="#ED0E00" style="stop-color:#ED0E00;stop-color:color(display-p3 0.9294 0.0549 0.0000);stop-opacity:1;"/>
<stop offset="0.1455" stop-color="#ED1709" stop-opacity="0.8431" style="stop-color:#ED1709;stop-color:color(display-p3 0.9294 0.0902 0.0353);stop-opacity:0.8431;"/>
<stop offset="0.3791" stop-color="#ED2F23" stop-opacity="0.582" style="stop-color:#ED2F23;stop-color:color(display-p3 0.9294 0.1843 0.1373);stop-opacity:0.582;"/>
<stop offset="0.6751" stop-color="#ED554C" stop-opacity="0.2513" style="stop-color:#ED554C;stop-color:color(display-p3 0.9294 0.3333 0.2980);stop-opacity:0.2513;"/>
<stop offset="0.9" stop-color="#ED7770" stop-opacity="0" style="stop-color:none;stop-opacity:0;"/>
</radialGradient>
<radialGradient id="paint3_radial_169_8654" cx="0" cy="0" r="1" gradientUnits="userSpaceOnUse" gradientTransform="translate(100.752 65.1621) scale(19.038 18.0852)">
<stop offset="0.00510817" stop-color="#ED0E00" style="stop-color:#ED0E00;stop-color:color(display-p3 0.9294 0.0549 0.0000);stop-opacity:1;"/>
<stop offset="0.1455" stop-color="#ED1709" stop-opacity="0.8431" style="stop-color:#ED1709;stop-color:color(display-p3 0.9294 0.0902 0.0353);stop-opacity:0.8431;"/>
<stop offset="0.3791" stop-color="#ED2F23" stop-opacity="0.582" style="stop-color:#ED2F23;stop-color:color(display-p3 0.9294 0.1843 0.1373);stop-opacity:0.582;"/>
<stop offset="0.6751" stop-color="#ED554C" stop-opacity="0.2513" style="stop-color:#ED554C;stop-color:color(display-p3 0.9294 0.3333 0.2980);stop-opacity:0.2513;"/>
<stop offset="0.9" stop-color="#ED7770" stop-opacity="0" style="stop-color:none;stop-opacity:0;"/>
</radialGradient>
<radialGradient id="paint4_radial_169_8654" cx="0" cy="0" r="1" gradientUnits="userSpaceOnUse" gradientTransform="translate(20.5903 62.9409) scale(33.4014 51.4382)">
<stop offset="0.46" stop-color="#4FC3F7" style="stop-color:#4FC3F7;stop-color:color(display-p3 0.3098 0.7647 0.9686);stop-opacity:1;"/>
<stop offset="1" stop-color="#1E88E5" style="stop-color:#1E88E5;stop-color:color(display-p3 0.1176 0.5333 0.8980);stop-opacity:1;"/>
</radialGradient>
<radialGradient id="paint5_radial_169_8654" cx="0" cy="0" r="1" gradientUnits="userSpaceOnUse" gradientTransform="translate(113.569 20.5712) scale(29.5319 45.4791)">
<stop offset="0.46" stop-color="#4FC3F7" style="stop-color:#4FC3F7;stop-color:color(display-p3 0.3098 0.7647 0.9686);stop-opacity:1;"/>
<stop offset="1" stop-color="#1E88E5" style="stop-color:#1E88E5;stop-color:color(display-p3 0.1176 0.5333 0.8980);stop-opacity:1;"/>
</radialGradient>
</defs>
</svg>
