<svg width="128" height="128" viewBox="0 0 128 128" fill="none" xmlns="http://www.w3.org/2000/svg">
<path d="M63.6001 118.8C35.7001 118.8 5.6001 101.3 5.6001 62.9C5.6001 24.5 35.7001 7 63.6001 7C79.1001 7 93.4001 12.1 104 21.4C115.5 31.6 121.6 46 121.6 62.9C121.6 79.8 115.5 94.1 104 104.3C93.4001 113.6 79.0001 118.8 63.6001 118.8Z" fill="url(#paint0_radial_169_9642)" style=""/>
<path d="M63.6001 118.8C35.7001 118.8 5.6001 101.3 5.6001 62.9C5.6001 24.5 35.7001 7 63.6001 7C79.1001 7 93.4001 12.1 104 21.4C115.5 31.6 121.6 46 121.6 62.9C121.6 79.8 115.5 94.1 104 104.3C93.4001 113.6 79.0001 118.8 63.6001 118.8Z" fill="url(#paint1_radial_169_9642)" style=""/>
<path d="M63.6001 118.8C35.7001 118.8 5.6001 101.3 5.6001 62.9C5.6001 24.5 35.7001 7 63.6001 7C79.1001 7 93.4001 12.1 104 21.4C115.5 31.6 121.6 46 121.6 62.9C121.6 79.8 115.5 94.1 104 104.3C93.4001 113.6 79.0001 118.8 63.6001 118.8Z" fill="url(#paint2_radial_169_9642)" style=""/>
<path d="M111.49 29.67C116.82 38.27 119.6 48.51 119.6 59.9C119.6 76.8 113.5 91.1 102 101.3C91.4002 110.6 77.0002 115.8 61.6002 115.8C43.5402 115.8 24.6002 108.45 13.4202 92.86C24.1802 110.52 44.4202 118.8 63.6002 118.8C79.0002 118.8 93.4002 113.6 104 104.3C115.5 94.1 121.6 79.8 121.6 62.9C121.6 50.16 118.13 38.84 111.49 29.67Z" fill="#EB8F00" style="fill:#EB8F00;fill:color(display-p3 0.9216 0.5608 0.0000);fill-opacity:1;"/>
<path d="M111.49 29.67C116.82 38.27 119.6 48.51 119.6 59.9C119.6 76.8 113.5 91.1 102 101.3C91.4002 110.6 77.0002 115.8 61.6002 115.8C43.5402 115.8 24.6002 108.45 13.4202 92.86C24.1802 110.52 44.4202 118.8 63.6002 118.8C79.0002 118.8 93.4002 113.6 104 104.3C115.5 94.1 121.6 79.8 121.6 62.9C121.6 50.16 118.13 38.84 111.49 29.67Z" fill="#4A2F27" style="fill:#4A2F27;fill:color(display-p3 0.2902 0.1843 0.1529);fill-opacity:1;"/>
<path d="M35.9001 51.7C36.2401 51.71 36.5701 51.74 36.9001 51.8C37.0701 51.78 37.2501 51.82 37.4001 51.9H38.8C39.2 51.92 39.6101 51.88 40.0001 51.8C40.4001 51.8 40.8 51.6 41.3 51.6C41.72 51.53 42.1201 51.39 42.5001 51.2C43.3101 50.96 44.0601 50.55 44.7001 50C45.0201 49.76 45.33 49.49 45.6 49.2C45.8 48.9 46.1 48.6 46.3 48.3L46.9001 47.4C47.0701 47.12 47.21 46.82 47.3 46.5C47.4001 46.2 47.5 46 47.6 45.7C47.69 45.44 47.8301 45.21 48.0001 45L48.4001 44.2C49.2601 42.33 51.4601 41.51 53.3301 42.37C53.3501 42.38 53.3801 42.39 53.4001 42.4C54.5801 42.98 55.4 44.1 55.6 45.4C55.6101 45.83 55.6401 46.27 55.7001 46.7V48.2C55.6401 48.87 55.5401 49.54 55.4001 50.2C55.2101 50.99 54.9401 51.76 54.6 52.5C54.0401 53.87 53.2201 55.13 52.2001 56.2L51.7001 56.8L51.0001 57.2C50.1801 57.89 49.3101 58.52 48.4001 59.1C47.4701 59.58 46.5001 59.99 45.5001 60.3L44.8 60.5L44.1 60.6C43.64 60.71 43.1701 60.78 42.7001 60.8C41.8001 60.9 40.9001 60.9 40.0001 60.8C39.2301 60.76 38.4601 60.66 37.7001 60.5C37.0201 60.36 36.3501 60.16 35.7001 59.9C35.4301 59.82 35.1601 59.72 34.9001 59.6C34.7001 59.5 34.6001 59.4 34.4001 59.3C34.0901 59.15 33.7901 58.98 33.5001 58.8C31.7101 57.66 31.18 55.3 32.3 53.5C33.09 52.3 34.4601 51.61 35.9001 51.7Z" fill="#422B0D" style="fill:#422B0D;fill:color(display-p3 0.2588 0.1686 0.0510);fill-opacity:1;"/>
<path d="M35.9001 51.7C36.2401 51.71 36.5701 51.74 36.9001 51.8C37.0701 51.78 37.2501 51.82 37.4001 51.9H38.8C39.2 51.92 39.6101 51.88 40.0001 51.8C40.4001 51.8 40.8 51.6 41.3 51.6C41.72 51.53 42.1201 51.39 42.5001 51.2C43.3101 50.96 44.0601 50.55 44.7001 50C45.0201 49.76 45.33 49.49 45.6 49.2C45.8 48.9 46.1 48.6 46.3 48.3L46.9001 47.4C47.0701 47.12 47.21 46.82 47.3 46.5C47.4001 46.2 47.5 46 47.6 45.7C47.69 45.44 47.8301 45.21 48.0001 45L48.4001 44.2C49.2601 42.33 51.4601 41.51 53.3301 42.37C53.3501 42.38 53.3801 42.39 53.4001 42.4C54.5801 42.98 55.4 44.1 55.6 45.4C55.6101 45.83 55.6401 46.27 55.7001 46.7V48.2C55.6401 48.87 55.5401 49.54 55.4001 50.2C55.2101 50.99 54.9401 51.76 54.6 52.5C54.0401 53.87 53.2201 55.13 52.2001 56.2L51.7001 56.8L51.0001 57.2C50.1801 57.89 49.3101 58.52 48.4001 59.1C47.4701 59.58 46.5001 59.99 45.5001 60.3L44.8 60.5L44.1 60.6C43.64 60.71 43.1701 60.78 42.7001 60.8C41.8001 60.9 40.9001 60.9 40.0001 60.8C39.2301 60.76 38.4601 60.66 37.7001 60.5C37.0201 60.36 36.3501 60.16 35.7001 59.9C35.4301 59.82 35.1601 59.72 34.9001 59.6C34.7001 59.5 34.6001 59.4 34.4001 59.3C34.0901 59.15 33.7901 58.98 33.5001 58.8C31.7101 57.66 31.18 55.3 32.3 53.5C33.09 52.3 34.4601 51.61 35.9001 51.7Z" fill="#1A1717" style="fill:#1A1717;fill:color(display-p3 0.1020 0.0902 0.0902);fill-opacity:1;"/>
<path d="M89.7401 79.1C81.3901 76.6 72.7101 75.39 64.0001 75.5C55.1701 75.42 46.3801 76.68 37.9301 79.25C35.0001 84.02 33.4401 89.5 33.4001 95.1C33.3501 98.62 36.1601 101.51 39.6801 101.56C40.6901 101.57 41.7001 101.35 42.6001 100.9C49.3101 97.76 56.6001 96.06 64.0001 95.9C71.4101 96.04 78.7001 97.75 85.4001 100.9C88.5501 102.46 92.3701 101.18 93.9401 98.02C94.3901 97.11 94.6201 96.11 94.6001 95.1C94.5401 89.41 92.8501 83.86 89.7401 79.1Z" fill="#422B0D" style="fill:#422B0D;fill:color(display-p3 0.2588 0.1686 0.0510);fill-opacity:1;"/>
<path d="M89.7401 79.1C81.3901 76.6 72.7101 75.39 64.0001 75.5C55.1701 75.42 46.3801 76.68 37.9301 79.25C35.0001 84.02 33.4401 89.5 33.4001 95.1C33.3501 98.62 36.1601 101.51 39.6801 101.56C40.6901 101.57 41.7001 101.35 42.6001 100.9C49.3101 97.76 56.6001 96.06 64.0001 95.9C71.4101 96.04 78.7001 97.75 85.4001 100.9C88.5501 102.46 92.3701 101.18 93.9401 98.02C94.3901 97.11 94.6201 96.11 94.6001 95.1C94.5401 89.41 92.8501 83.86 89.7401 79.1Z" fill="#1A1717" style="fill:#1A1717;fill:color(display-p3 0.1020 0.0902 0.0902);fill-opacity:1;"/>
<path d="M89.7402 79.1C83.7002 69.6 73.0902 67.2 64.0002 67.2C54.1202 67.2 43.7002 69.67 37.9302 79.2C46.3802 76.65 55.1702 75.4 64.0002 75.5C72.7102 75.39 81.3902 76.6 89.7402 79.1Z" fill="white" style="fill:white;fill-opacity:1;"/>
<path d="M63.9401 65.7C67.4601 65.73 70.9701 66.17 74.4001 67C77.8801 67.83 81.1701 69.3 84.1101 71.34C87.0101 73.45 89.4001 76.19 91.1101 79.34C92.8201 82.41 94.0301 85.74 94.6701 89.19C94.9901 90.91 95.1601 92.65 95.1601 94.4C95.2001 95.32 95.1001 96.23 94.8601 97.12C94.5901 98.02 94.1401 98.85 93.5501 99.57C92.3501 100.99 90.6201 101.87 88.7601 102C87.8501 102.05 86.9301 101.93 86.0601 101.65C85.1901 101.33 84.4701 100.94 83.6801 100.65C77.4801 97.79 70.7701 96.17 63.9401 95.9C70.8001 95.91 77.6001 97.27 83.9401 99.9C84.7401 100.21 85.5401 100.6 86.2801 100.84C87.0501 101.05 87.8501 101.12 88.6401 101.05C90.2201 100.89 91.6601 100.1 92.6401 98.85C93.1101 98.24 93.4501 97.53 93.6401 96.78C93.8201 96.01 93.8801 95.21 93.8101 94.42C93.7401 92.74 93.5201 91.06 93.1601 89.42C92.4301 86.17 91.1801 83.06 89.4401 80.22C87.7701 77.4 85.4901 74.99 82.7701 73.16C80.0201 71.4 76.9701 70.16 73.7701 69.52C70.5201 68.87 67.2101 68.58 63.9001 68.67L63.9401 65.7Z" fill="#EB8F00" style="fill:#EB8F00;fill:color(display-p3 0.9216 0.5608 0.0000);fill-opacity:1;"/>
<path d="M63.9401 65.7C67.4601 65.73 70.9701 66.17 74.4001 67C77.8801 67.83 81.1701 69.3 84.1101 71.34C87.0101 73.45 89.4001 76.19 91.1101 79.34C92.8201 82.41 94.0301 85.74 94.6701 89.19C94.9901 90.91 95.1601 92.65 95.1601 94.4C95.2001 95.32 95.1001 96.23 94.8601 97.12C94.5901 98.02 94.1401 98.85 93.5501 99.57C92.3501 100.99 90.6201 101.87 88.7601 102C87.8501 102.05 86.9301 101.93 86.0601 101.65C85.1901 101.33 84.4701 100.94 83.6801 100.65C77.4801 97.79 70.7701 96.17 63.9401 95.9C70.8001 95.91 77.6001 97.27 83.9401 99.9C84.7401 100.21 85.5401 100.6 86.2801 100.84C87.0501 101.05 87.8501 101.12 88.6401 101.05C90.2201 100.89 91.6601 100.1 92.6401 98.85C93.1101 98.24 93.4501 97.53 93.6401 96.78C93.8201 96.01 93.8801 95.21 93.8101 94.42C93.7401 92.74 93.5201 91.06 93.1601 89.42C92.4301 86.17 91.1801 83.06 89.4401 80.22C87.7701 77.4 85.4901 74.99 82.7701 73.16C80.0201 71.4 76.9701 70.16 73.7701 69.52C70.5201 68.87 67.2101 68.58 63.9001 68.67L63.9401 65.7Z" fill="#4A2F27" style="fill:#4A2F27;fill:color(display-p3 0.2902 0.1843 0.1529);fill-opacity:1;"/>
<path d="M64.19 68.7C60.88 68.61 57.57 68.9 54.33 69.55C51.13 70.19 48.08 71.43 45.33 73.19C42.61 75.02 40.3299 77.43 38.6599 80.25C36.9299 83.09 35.6699 86.2 34.9399 89.45C34.5799 91.09 34.36 92.77 34.29 94.45C34.22 95.24 34.2799 96.04 34.4599 96.81C34.6599 97.56 34.9999 98.26 35.4599 98.88C36.4399 100.13 37.8799 100.92 39.4599 101.08C40.2499 101.15 41.0499 101.08 41.82 100.87C42.57 100.63 43.37 100.24 44.16 99.93C50.5 97.3 57.3 95.94 64.16 95.93C57.34 96.18 50.6299 97.77 44.4199 100.61C43.6399 100.95 42.91 101.34 42.04 101.61C41.17 101.89 40.2499 102.01 39.34 101.96C37.47 101.83 35.74 100.95 34.54 99.52C33.94 98.8 33.49 97.97 33.22 97.07C32.98 96.18 32.8799 95.27 32.9199 94.35C32.9299 92.6 33.0999 90.86 33.4099 89.14C34.0699 85.69 35.2799 82.37 36.9999 79.31C38.7099 76.16 41.1 73.42 44 71.31C46.95 69.28 50.25 67.82 53.7299 67C57.16 66.17 60.67 65.73 64.19 65.7V68.7Z" fill="#EB8F00" style="fill:#EB8F00;fill:color(display-p3 0.9216 0.5608 0.0000);fill-opacity:1;"/>
<path d="M64.19 68.7C60.88 68.61 57.57 68.9 54.33 69.55C51.13 70.19 48.08 71.43 45.33 73.19C42.61 75.02 40.3299 77.43 38.6599 80.25C36.9299 83.09 35.6699 86.2 34.9399 89.45C34.5799 91.09 34.36 92.77 34.29 94.45C34.22 95.24 34.2799 96.04 34.4599 96.81C34.6599 97.56 34.9999 98.26 35.4599 98.88C36.4399 100.13 37.8799 100.92 39.4599 101.08C40.2499 101.15 41.0499 101.08 41.82 100.87C42.57 100.63 43.37 100.24 44.16 99.93C50.5 97.3 57.3 95.94 64.16 95.93C57.34 96.18 50.6299 97.77 44.4199 100.61C43.6399 100.95 42.91 101.34 42.04 101.61C41.17 101.89 40.2499 102.01 39.34 101.96C37.47 101.83 35.74 100.95 34.54 99.52C33.94 98.8 33.49 97.97 33.22 97.07C32.98 96.18 32.8799 95.27 32.9199 94.35C32.9299 92.6 33.0999 90.86 33.4099 89.14C34.0699 85.69 35.2799 82.37 36.9999 79.31C38.7099 76.16 41.1 73.42 44 71.31C46.95 69.28 50.25 67.82 53.7299 67C57.16 66.17 60.67 65.73 64.19 65.7V68.7Z" fill="#4A2F27" style="fill:#4A2F27;fill:color(display-p3 0.2902 0.1843 0.1529);fill-opacity:1;"/>
<path d="M36.7201 34.48C34.6501 35.34 35.2401 38.48 37.6101 38.07C42.8001 37 47.3801 33.99 50.4001 29.64C51.5701 28.07 52.4701 26.32 53.0601 24.46C53.4501 23.53 53.0101 22.45 52.0701 22.06C51.1301 21.67 50.0601 22.11 49.6701 23.05L49.5901 23.17C46.7101 28.29 42.1701 32.27 36.7201 34.48Z" fill="#422B0D" style="fill:#422B0D;fill:color(display-p3 0.2588 0.1686 0.0510);fill-opacity:1;"/>
<path d="M36.7201 34.48C34.6501 35.34 35.2401 38.48 37.6101 38.07C42.8001 37 47.3801 33.99 50.4001 29.64C51.5701 28.07 52.4701 26.32 53.0601 24.46C53.4501 23.53 53.0101 22.45 52.0701 22.06C51.1301 21.67 50.0601 22.11 49.6701 23.05L49.5901 23.17C46.7101 28.29 42.1701 32.27 36.7201 34.48Z" fill="#1A1717" style="fill:#1A1717;fill:color(display-p3 0.1020 0.0902 0.0902);fill-opacity:1;"/>
<path d="M92.06 51.7C91.72 51.71 91.39 51.74 91.06 51.8C90.89 51.78 90.71 51.82 90.56 51.9H89.16C88.76 51.92 88.35 51.88 87.96 51.8C87.56 51.8 87.16 51.6 86.66 51.6C86.24 51.53 85.84 51.39 85.46 51.2C84.65 50.96 83.9 50.55 83.26 50C82.94 49.76 82.63 49.49 82.36 49.2C82.16 48.9 81.86 48.6 81.66 48.3L81.06 47.4C80.89 47.12 80.75 46.82 80.66 46.5C80.56 46.2 80.46 46 80.36 45.7C80.28 45.45 80.16 45.21 80 45L79.6 44.2C78.74 42.33 76.54 41.51 74.67 42.37C74.65 42.38 74.62 42.39 74.6 42.4C73.42 42.98 72.6 44.1 72.4 45.4C72.39 45.83 72.36 46.27 72.3 46.7V48.2C72.36 48.87 72.46 49.54 72.6 50.2C72.79 50.99 73.06 51.76 73.4 52.5C73.96 53.87 74.78 55.13 75.8 56.2L76.3 56.8L77 57.2C77.82 57.89 78.69 58.52 79.6 59.1C80.53 59.58 81.5 59.99 82.5 60.3L83.2 60.5L83.9 60.6C84.36 60.71 84.83 60.78 85.3 60.8C86.2 60.9 87.1 60.9 88 60.8C88.77 60.76 89.54 60.66 90.3 60.5C90.98 60.36 91.65 60.16 92.3 59.9C92.57 59.82 92.84 59.72 93.1 59.6C93.3 59.5 93.4 59.4 93.6 59.3C93.91 59.15 94.21 58.98 94.5 58.8C96.29 57.66 96.82 55.3 95.7 53.5C94.9 52.28 93.51 51.59 92.06 51.7Z" fill="#422B0D" style="fill:#422B0D;fill:color(display-p3 0.2588 0.1686 0.0510);fill-opacity:1;"/>
<path d="M92.06 51.7C91.72 51.71 91.39 51.74 91.06 51.8C90.89 51.78 90.71 51.82 90.56 51.9H89.16C88.76 51.92 88.35 51.88 87.96 51.8C87.56 51.8 87.16 51.6 86.66 51.6C86.24 51.53 85.84 51.39 85.46 51.2C84.65 50.96 83.9 50.55 83.26 50C82.94 49.76 82.63 49.49 82.36 49.2C82.16 48.9 81.86 48.6 81.66 48.3L81.06 47.4C80.89 47.12 80.75 46.82 80.66 46.5C80.56 46.2 80.46 46 80.36 45.7C80.28 45.45 80.16 45.21 80 45L79.6 44.2C78.74 42.33 76.54 41.51 74.67 42.37C74.65 42.38 74.62 42.39 74.6 42.4C73.42 42.98 72.6 44.1 72.4 45.4C72.39 45.83 72.36 46.27 72.3 46.7V48.2C72.36 48.87 72.46 49.54 72.6 50.2C72.79 50.99 73.06 51.76 73.4 52.5C73.96 53.87 74.78 55.13 75.8 56.2L76.3 56.8L77 57.2C77.82 57.89 78.69 58.52 79.6 59.1C80.53 59.58 81.5 59.99 82.5 60.3L83.2 60.5L83.9 60.6C84.36 60.71 84.83 60.78 85.3 60.8C86.2 60.9 87.1 60.9 88 60.8C88.77 60.76 89.54 60.66 90.3 60.5C90.98 60.36 91.65 60.16 92.3 59.9C92.57 59.82 92.84 59.72 93.1 59.6C93.3 59.5 93.4 59.4 93.6 59.3C93.91 59.15 94.21 58.98 94.5 58.8C96.29 57.66 96.82 55.3 95.7 53.5C94.9 52.28 93.51 51.59 92.06 51.7Z" fill="#1A1717" style="fill:#1A1717;fill:color(display-p3 0.1020 0.0902 0.0902);fill-opacity:1;"/>
<path d="M91.2401 34.48C93.3101 35.34 92.7201 38.48 90.3501 38.07C85.1601 37 80.5801 33.99 77.5601 29.64C76.3901 28.08 75.4901 26.32 74.9101 24.46C74.5801 23.51 75.0801 22.46 76.0401 22.13C76.9101 21.83 77.8701 22.22 78.2801 23.05L78.3601 23.17C81.2501 28.29 85.7901 32.27 91.2401 34.48Z" fill="#422B0D" style="fill:#422B0D;fill:color(display-p3 0.2588 0.1686 0.0510);fill-opacity:1;"/>
<path d="M91.2401 34.48C93.3101 35.34 92.7201 38.48 90.3501 38.07C85.1601 37 80.5801 33.99 77.5601 29.64C76.3901 28.08 75.4901 26.32 74.9101 24.46C74.5801 23.51 75.0801 22.46 76.0401 22.13C76.9101 21.83 77.8701 22.22 78.2801 23.05L78.3601 23.17C81.2501 28.29 85.7901 32.27 91.2401 34.48Z" fill="#1A1717" style="fill:#1A1717;fill:color(display-p3 0.1020 0.0902 0.0902);fill-opacity:1;"/>
<defs>
<radialGradient id="paint0_radial_169_9642" cx="0" cy="0" r="1" gradientUnits="userSpaceOnUse" gradientTransform="translate(63.6001 62.9) scale(56.9597 56.9597)">
<stop offset="0.5" stop-color="#FDE030" style="stop-color:#FDE030;stop-color:color(display-p3 0.9922 0.8784 0.1882);stop-opacity:1;"/>
<stop offset="0.92" stop-color="#F7C02B" style="stop-color:#F7C02B;stop-color:color(display-p3 0.9686 0.7529 0.1686);stop-opacity:1;"/>
<stop offset="1" stop-color="#F4A223" style="stop-color:#F4A223;stop-color:color(display-p3 0.9569 0.6353 0.1373);stop-opacity:1;"/>
</radialGradient>
<radialGradient id="paint1_radial_169_9642" cx="0" cy="0" r="1" gradientUnits="userSpaceOnUse" gradientTransform="translate(38.5991 34.5377) rotate(-43.2082) scale(102.024 101.825)">
<stop offset="0.3533" stop-color="#F9DDBD" style="stop-color:#F9DDBD;stop-color:color(display-p3 0.9765 0.8667 0.7412);stop-opacity:1;"/>
<stop offset="0.8723" stop-color="#FFD29C" style="stop-color:#FFD29C;stop-color:color(display-p3 1.0000 0.8235 0.6118);stop-opacity:1;"/>
</radialGradient>
<radialGradient id="paint2_radial_169_9642" cx="0" cy="0" r="1" gradientUnits="userSpaceOnUse" gradientTransform="translate(38.5991 34.5377) rotate(-43.2082) scale(102.024 101.825)">
<stop offset="0.3533" stop-color="#70534A" style="stop-color:#70534A;stop-color:color(display-p3 0.4392 0.3255 0.2902);stop-opacity:1;"/>
<stop offset="0.8723" stop-color="#5C4037" style="stop-color:#5C4037;stop-color:color(display-p3 0.3608 0.2510 0.2157);stop-opacity:1;"/>
</radialGradient>
</defs>
</svg>
