<svg width="128" height="128" viewBox="0 0 128 128" fill="none" xmlns="http://www.w3.org/2000/svg">
<g opacity="0.2">
<path d="M99.73 7.09009C102.49 7.09009 104.73 9.33009 104.73 12.0901V116.09C104.73 118.85 102.49 121.09 99.73 121.09H27.73C24.97 121.09 22.73 118.85 22.73 116.09V12.0901C22.73 9.33009 24.97 7.09009 27.73 7.09009H99.73ZM99.73 4.09009H27.73C23.31 4.09009 19.73 7.67009 19.73 12.0901V116.09C19.73 120.51 23.31 124.09 27.73 124.09H99.73C104.15 124.09 107.73 120.51 107.73 116.09V12.0901C107.73 7.67009 104.15 4.09009 99.73 4.09009Z" fill="#212121" style="fill:#212121;fill:color(display-p3 0.1294 0.1294 0.1294);fill-opacity:1;"/>
<path d="M99.73 7.09009C102.49 7.09009 104.73 9.33009 104.73 12.0901V116.09C104.73 118.85 102.49 121.09 99.73 121.09H27.73C24.97 121.09 22.73 118.85 22.73 116.09V12.0901C22.73 9.33009 24.97 7.09009 27.73 7.09009H99.73ZM99.73 4.09009H27.73C23.31 4.09009 19.73 7.67009 19.73 12.0901V116.09C19.73 120.51 23.31 124.09 27.73 124.09H99.73C104.15 124.09 107.73 120.51 107.73 116.09V12.0901C107.73 7.67009 104.15 4.09009 99.73 4.09009Z" fill="#212121" style="fill:#212121;fill:color(display-p3 0.1294 0.1294 0.1294);fill-opacity:1;"/>
<path d="M99.73 7.09009C102.49 7.09009 104.73 9.33009 104.73 12.0901V116.09C104.73 118.85 102.49 121.09 99.73 121.09H27.73C24.97 121.09 22.73 118.85 22.73 116.09V12.0901C22.73 9.33009 24.97 7.09009 27.73 7.09009H99.73ZM99.73 4.09009H27.73C23.31 4.09009 19.73 7.67009 19.73 12.0901V116.09C19.73 120.51 23.31 124.09 27.73 124.09H99.73C104.15 124.09 107.73 120.51 107.73 116.09V12.0901C107.73 7.67009 104.15 4.09009 99.73 4.09009Z" fill="#212121" style="fill:#212121;fill:color(display-p3 0.1294 0.1294 0.1294);fill-opacity:1;"/>
</g>
<path d="M102.439 125.43L26.4194 125.06C22.9694 125.06 20.1694 122.26 20.1694 118.81L32.3694 26.6801L102.559 4.5001C108.689 4.1701 109.039 7.0301 109.039 10.4801L108.669 119.17C108.689 122.64 105.889 125.43 102.439 125.43Z" fill="#D9CDC9" style="fill:#D9CDC9;fill:color(display-p3 0.8510 0.8039 0.7882);fill-opacity:1;"/>
<path d="M101.98 122.06C101.98 122.06 44.2195 123.04 25.5095 121.98C21.9295 121.78 20.1795 120.36 20.1695 118.82L19.9995 10.3301C19.9995 6.88008 22.7995 4.08008 26.2495 4.08008L101.89 4.40008C105.34 4.40008 106.65 7.26008 106.65 10.7101L106.08 116.11C106.06 119.56 105.43 122.06 101.98 122.06Z" fill="#F1EDEC" style="fill:#F1EDEC;fill:color(display-p3 0.9451 0.9294 0.9255);fill-opacity:1;"/>
<path d="M44.4167 95.2C44.8 94 46.3333 91 49.0167 91C52.4667 91 54 93.4 54 96.4C54 98.5 53.0114 99.8837 52.0833 101.5C51.0951 103.221 49.6379 104.757 48.25 106.3C46.4693 108.279 42.5 112 42.5 112C42.5 112 38.5307 108.279 36.75 106.3C35.3621 104.757 33.9049 103.221 32.9167 101.5C31.9886 99.8837 31 98.5 31 96.4C31 93.4 32.5333 91 35.9833 91C38.6667 91 40.2 94 40.5833 95.2C40.9667 95.5 40.9667 95.2 40.9667 94.9C40.5833 92.5 40.5833 91.9 40.2 90.1C39.8167 88.3 38.6667 85 38.6667 85C40.5833 85.6 44.4167 85.6 46.3333 85C46.3333 85 45.1833 88.3 44.8 90.1C44.4167 91.9 44.4167 92.5 44.0333 94.9C44.0333 95.2 44.0333 95.5 44.4167 95.2Z" fill="#212121" style="fill:#212121;fill:color(display-p3 0.1294 0.1294 0.1294);fill-opacity:1;"/>
<path d="M44.4167 95.2C44.8 94 46.3333 91 49.0167 91C52.4667 91 54 93.4 54 96.4C54 98.5 53.0114 99.8837 52.0833 101.5C51.0951 103.221 49.6379 104.757 48.25 106.3C46.4693 108.279 42.5 112 42.5 112C42.5 112 38.5307 108.279 36.75 106.3C35.3621 104.757 33.9049 103.221 32.9167 101.5C31.9886 99.8837 31 98.5 31 96.4C31 93.4 32.5333 91 35.9833 91C38.6667 91 40.2 94 40.5833 95.2C40.9667 95.5 40.9667 95.2 40.9667 94.9C40.5833 92.5 40.5833 91.9 40.2 90.1C39.8167 88.3 38.6667 85 38.6667 85C40.5833 85.6 44.4167 85.6 46.3333 85C46.3333 85 45.1833 88.3 44.8 90.1C44.4167 91.9 44.4167 92.5 44.0333 94.9C44.0333 95.2 44.0333 95.5 44.4167 95.2Z" fill="#212121" style="fill:#212121;fill:color(display-p3 0.1294 0.1294 0.1294);fill-opacity:1;"/>
<path d="M44.4167 95.2C44.8 94 46.3333 91 49.0167 91C52.4667 91 54 93.4 54 96.4C54 98.5 53.0114 99.8837 52.0833 101.5C51.0951 103.221 49.6379 104.757 48.25 106.3C46.4693 108.279 42.5 112 42.5 112C42.5 112 38.5307 108.279 36.75 106.3C35.3621 104.757 33.9049 103.221 32.9167 101.5C31.9886 99.8837 31 98.5 31 96.4C31 93.4 32.5333 91 35.9833 91C38.6667 91 40.2 94 40.5833 95.2C40.9667 95.5 40.9667 95.2 40.9667 94.9C40.5833 92.5 40.5833 91.9 40.2 90.1C39.8167 88.3 38.6667 85 38.6667 85C40.5833 85.6 44.4167 85.6 46.3333 85C46.3333 85 45.1833 88.3 44.8 90.1C44.4167 91.9 44.4167 92.5 44.0333 94.9C44.0333 95.2 44.0333 95.5 44.4167 95.2Z" fill="#212121" style="fill:#212121;fill:color(display-p3 0.1294 0.1294 0.1294);fill-opacity:1;"/>
<path d="M87.4167 95.2C87.8 94 89.3333 91 92.0167 91C95.4667 91 97 93.4 97 96.4C97 98.5 96.0114 99.8837 95.0833 101.5C94.0951 103.221 92.6379 104.757 91.25 106.3C89.4693 108.279 85.5 112 85.5 112C85.5 112 81.5307 108.279 79.75 106.3C78.3621 104.757 76.9049 103.221 75.9167 101.5C74.9886 99.8837 74 98.5 74 96.4C74 93.4 75.5333 91 78.9833 91C81.6667 91 83.2 94 83.5833 95.2C83.9667 95.5 83.9667 95.2 83.9667 94.9C83.5833 92.5 83.5833 91.9 83.2 90.1C82.8167 88.3 81.6667 85 81.6667 85C83.5833 85.6 87.4167 85.6 89.3333 85C89.3333 85 88.1833 88.3 87.8 90.1C87.4167 91.9 87.4167 92.5 87.0333 94.9C87.0333 95.2 87.0333 95.5 87.4167 95.2Z" fill="#212121" style="fill:#212121;fill:color(display-p3 0.1294 0.1294 0.1294);fill-opacity:1;"/>
<path d="M87.4167 95.2C87.8 94 89.3333 91 92.0167 91C95.4667 91 97 93.4 97 96.4C97 98.5 96.0114 99.8837 95.0833 101.5C94.0951 103.221 92.6379 104.757 91.25 106.3C89.4693 108.279 85.5 112 85.5 112C85.5 112 81.5307 108.279 79.75 106.3C78.3621 104.757 76.9049 103.221 75.9167 101.5C74.9886 99.8837 74 98.5 74 96.4C74 93.4 75.5333 91 78.9833 91C81.6667 91 83.2 94 83.5833 95.2C83.9667 95.5 83.9667 95.2 83.9667 94.9C83.5833 92.5 83.5833 91.9 83.2 90.1C82.8167 88.3 81.6667 85 81.6667 85C83.5833 85.6 87.4167 85.6 89.3333 85C89.3333 85 88.1833 88.3 87.8 90.1C87.4167 91.9 87.4167 92.5 87.0333 94.9C87.0333 95.2 87.0333 95.5 87.4167 95.2Z" fill="#212121" style="fill:#212121;fill:color(display-p3 0.1294 0.1294 0.1294);fill-opacity:1;"/>
<path d="M87.4167 95.2C87.8 94 89.3333 91 92.0167 91C95.4667 91 97 93.4 97 96.4C97 98.5 96.0114 99.8837 95.0833 101.5C94.0951 103.221 92.6379 104.757 91.25 106.3C89.4693 108.279 85.5 112 85.5 112C85.5 112 81.5307 108.279 79.75 106.3C78.3621 104.757 76.9049 103.221 75.9167 101.5C74.9886 99.8837 74 98.5 74 96.4C74 93.4 75.5333 91 78.9833 91C81.6667 91 83.2 94 83.5833 95.2C83.9667 95.5 83.9667 95.2 83.9667 94.9C83.5833 92.5 83.5833 91.9 83.2 90.1C82.8167 88.3 81.6667 85 81.6667 85C83.5833 85.6 87.4167 85.6 89.3333 85C89.3333 85 88.1833 88.3 87.8 90.1C87.4167 91.9 87.4167 92.5 87.0333 94.9C87.0333 95.2 87.0333 95.5 87.4167 95.2Z" fill="#212121" style="fill:#212121;fill:color(display-p3 0.1294 0.1294 0.1294);fill-opacity:1;"/>
<path d="M67.5666 60.2C67.9499 59 69.4832 56 72.1666 56C75.6166 56 77.1499 58.4 77.1499 61.4C77.1499 63.5 76.1613 64.8837 75.2332 66.5C74.245 68.221 72.7878 69.7572 71.3999 71.3C69.6192 73.2794 65.6499 77 65.6499 77C65.6499 77 61.6806 73.2794 59.8999 71.3C58.512 69.7572 57.0548 68.221 56.0666 66.5C55.1385 64.8837 54.1499 63.5 54.1499 61.4C54.1499 58.4 55.6832 56 59.1332 56C61.8166 56 63.3499 59 63.7332 60.2C64.1166 60.5 64.1166 60.2 64.1166 59.9C63.7332 57.5 63.7332 56.9 63.3499 55.1C62.9666 53.3 61.8166 50 61.8166 50C63.7332 50.6 67.5666 50.6 69.4832 50C69.4832 50 68.3332 53.3 67.9499 55.1C67.5666 56.9 67.5666 57.5 67.1832 59.9C67.1832 60.2 67.1832 60.5 67.5666 60.2Z" fill="#212121" style="fill:#212121;fill:color(display-p3 0.1294 0.1294 0.1294);fill-opacity:1;"/>
<path d="M67.5666 60.2C67.9499 59 69.4832 56 72.1666 56C75.6166 56 77.1499 58.4 77.1499 61.4C77.1499 63.5 76.1613 64.8837 75.2332 66.5C74.245 68.221 72.7878 69.7572 71.3999 71.3C69.6192 73.2794 65.6499 77 65.6499 77C65.6499 77 61.6806 73.2794 59.8999 71.3C58.512 69.7572 57.0548 68.221 56.0666 66.5C55.1385 64.8837 54.1499 63.5 54.1499 61.4C54.1499 58.4 55.6832 56 59.1332 56C61.8166 56 63.3499 59 63.7332 60.2C64.1166 60.5 64.1166 60.2 64.1166 59.9C63.7332 57.5 63.7332 56.9 63.3499 55.1C62.9666 53.3 61.8166 50 61.8166 50C63.7332 50.6 67.5666 50.6 69.4832 50C69.4832 50 68.3332 53.3 67.9499 55.1C67.5666 56.9 67.5666 57.5 67.1832 59.9C67.1832 60.2 67.1832 60.5 67.5666 60.2Z" fill="#212121" style="fill:#212121;fill:color(display-p3 0.1294 0.1294 0.1294);fill-opacity:1;"/>
<path d="M67.5666 60.2C67.9499 59 69.4832 56 72.1666 56C75.6166 56 77.1499 58.4 77.1499 61.4C77.1499 63.5 76.1613 64.8837 75.2332 66.5C74.245 68.221 72.7878 69.7572 71.3999 71.3C69.6192 73.2794 65.6499 77 65.6499 77C65.6499 77 61.6806 73.2794 59.8999 71.3C58.512 69.7572 57.0548 68.221 56.0666 66.5C55.1385 64.8837 54.1499 63.5 54.1499 61.4C54.1499 58.4 55.6832 56 59.1332 56C61.8166 56 63.3499 59 63.7332 60.2C64.1166 60.5 64.1166 60.2 64.1166 59.9C63.7332 57.5 63.7332 56.9 63.3499 55.1C62.9666 53.3 61.8166 50 61.8166 50C63.7332 50.6 67.5666 50.6 69.4832 50C69.4832 50 68.3332 53.3 67.9499 55.1C67.5666 56.9 67.5666 57.5 67.1832 59.9C67.1832 60.2 67.1832 60.5 67.5666 60.2Z" fill="#212121" style="fill:#212121;fill:color(display-p3 0.1294 0.1294 0.1294);fill-opacity:1;"/>
<path d="M44.4167 31.8C44.8 33 46.3333 36 49.0167 36C52.4667 36 54 33.6 54 30.6C54 28.5 53.0114 27.1163 52.0833 25.5C51.0951 23.779 49.6379 22.2428 48.25 20.7C46.4693 18.7206 42.5 15 42.5 15C42.5 15 38.5307 18.7206 36.75 20.7C35.3621 22.2428 33.9049 23.779 32.9167 25.5C31.9886 27.1163 31 28.5 31 30.6C31 33.6 32.5333 36 35.9833 36C38.6667 36 40.2 33 40.5833 31.8C40.9667 31.5 40.9667 31.8 40.9667 32.1C40.5833 34.5 40.5833 35.1 40.2 36.9C39.8167 38.7 38.6667 42 38.6667 42C40.5833 41.4 44.4167 41.4 46.3333 42C46.3333 42 45.1833 38.7 44.8 36.9C44.4167 35.1 44.4167 34.5 44.0333 32.1C44.0333 31.8 44.0333 31.5 44.4167 31.8Z" fill="#212121" style="fill:#212121;fill:color(display-p3 0.1294 0.1294 0.1294);fill-opacity:1;"/>
<path d="M44.4167 31.8C44.8 33 46.3333 36 49.0167 36C52.4667 36 54 33.6 54 30.6C54 28.5 53.0114 27.1163 52.0833 25.5C51.0951 23.779 49.6379 22.2428 48.25 20.7C46.4693 18.7206 42.5 15 42.5 15C42.5 15 38.5307 18.7206 36.75 20.7C35.3621 22.2428 33.9049 23.779 32.9167 25.5C31.9886 27.1163 31 28.5 31 30.6C31 33.6 32.5333 36 35.9833 36C38.6667 36 40.2 33 40.5833 31.8C40.9667 31.5 40.9667 31.8 40.9667 32.1C40.5833 34.5 40.5833 35.1 40.2 36.9C39.8167 38.7 38.6667 42 38.6667 42C40.5833 41.4 44.4167 41.4 46.3333 42C46.3333 42 45.1833 38.7 44.8 36.9C44.4167 35.1 44.4167 34.5 44.0333 32.1C44.0333 31.8 44.0333 31.5 44.4167 31.8Z" fill="#212121" style="fill:#212121;fill:color(display-p3 0.1294 0.1294 0.1294);fill-opacity:1;"/>
<path d="M44.4167 31.8C44.8 33 46.3333 36 49.0167 36C52.4667 36 54 33.6 54 30.6C54 28.5 53.0114 27.1163 52.0833 25.5C51.0951 23.779 49.6379 22.2428 48.25 20.7C46.4693 18.7206 42.5 15 42.5 15C42.5 15 38.5307 18.7206 36.75 20.7C35.3621 22.2428 33.9049 23.779 32.9167 25.5C31.9886 27.1163 31 28.5 31 30.6C31 33.6 32.5333 36 35.9833 36C38.6667 36 40.2 33 40.5833 31.8C40.9667 31.5 40.9667 31.8 40.9667 32.1C40.5833 34.5 40.5833 35.1 40.2 36.9C39.8167 38.7 38.6667 42 38.6667 42C40.5833 41.4 44.4167 41.4 46.3333 42C46.3333 42 45.1833 38.7 44.8 36.9C44.4167 35.1 44.4167 34.5 44.0333 32.1C44.0333 31.8 44.0333 31.5 44.4167 31.8Z" fill="#212121" style="fill:#212121;fill:color(display-p3 0.1294 0.1294 0.1294);fill-opacity:1;"/>
<path d="M87.4167 31.8C87.8 33 89.3333 36 92.0167 36C95.4667 36 97 33.6 97 30.6C97 28.5 96.0114 27.1163 95.0833 25.5C94.0951 23.779 92.6379 22.2428 91.25 20.7C89.4693 18.7206 85.5 15 85.5 15C85.5 15 81.5307 18.7206 79.75 20.7C78.3621 22.2428 76.9049 23.779 75.9167 25.5C74.9886 27.1163 74 28.5 74 30.6C74 33.6 75.5333 36 78.9833 36C81.6667 36 83.2 33 83.5833 31.8C83.9667 31.5 83.9667 31.8 83.9667 32.1C83.5833 34.5 83.5833 35.1 83.2 36.9C82.8167 38.7 81.6667 42 81.6667 42C83.5833 41.4 87.4167 41.4 89.3333 42C89.3333 42 88.1833 38.7 87.8 36.9C87.4167 35.1 87.4167 34.5 87.0333 32.1C87.0333 31.8 87.0333 31.5 87.4167 31.8Z" fill="#212121" style="fill:#212121;fill:color(display-p3 0.1294 0.1294 0.1294);fill-opacity:1;"/>
<path d="M87.4167 31.8C87.8 33 89.3333 36 92.0167 36C95.4667 36 97 33.6 97 30.6C97 28.5 96.0114 27.1163 95.0833 25.5C94.0951 23.779 92.6379 22.2428 91.25 20.7C89.4693 18.7206 85.5 15 85.5 15C85.5 15 81.5307 18.7206 79.75 20.7C78.3621 22.2428 76.9049 23.779 75.9167 25.5C74.9886 27.1163 74 28.5 74 30.6C74 33.6 75.5333 36 78.9833 36C81.6667 36 83.2 33 83.5833 31.8C83.9667 31.5 83.9667 31.8 83.9667 32.1C83.5833 34.5 83.5833 35.1 83.2 36.9C82.8167 38.7 81.6667 42 81.6667 42C83.5833 41.4 87.4167 41.4 89.3333 42C89.3333 42 88.1833 38.7 87.8 36.9C87.4167 35.1 87.4167 34.5 87.0333 32.1C87.0333 31.8 87.0333 31.5 87.4167 31.8Z" fill="#212121" style="fill:#212121;fill:color(display-p3 0.1294 0.1294 0.1294);fill-opacity:1;"/>
<path d="M87.4167 31.8C87.8 33 89.3333 36 92.0167 36C95.4667 36 97 33.6 97 30.6C97 28.5 96.0114 27.1163 95.0833 25.5C94.0951 23.779 92.6379 22.2428 91.25 20.7C89.4693 18.7206 85.5 15 85.5 15C85.5 15 81.5307 18.7206 79.75 20.7C78.3621 22.2428 76.9049 23.779 75.9167 25.5C74.9886 27.1163 74 28.5 74 30.6C74 33.6 75.5333 36 78.9833 36C81.6667 36 83.2 33 83.5833 31.8C83.9667 31.5 83.9667 31.8 83.9667 32.1C83.5833 34.5 83.5833 35.1 83.2 36.9C82.8167 38.7 81.6667 42 81.6667 42C83.5833 41.4 87.4167 41.4 89.3333 42C89.3333 42 88.1833 38.7 87.8 36.9C87.4167 35.1 87.4167 34.5 87.0333 32.1C87.0333 31.8 87.0333 31.5 87.4167 31.8Z" fill="#212121" style="fill:#212121;fill:color(display-p3 0.1294 0.1294 0.1294);fill-opacity:1;"/>
</svg>
