<svg width="128" height="128" viewBox="0 0 128 128" fill="none" xmlns="http://www.w3.org/2000/svg">
<path d="M63.6001 118.8C35.7001 118.8 5.6001 101.3 5.6001 62.9C5.6001 24.5 35.7001 7 63.6001 7C79.1001 7 93.4001 12.1 104 21.4C115.5 31.6 121.6 46 121.6 62.9C121.6 79.8 115.5 94.1 104 104.3C93.4001 113.6 79.0001 118.8 63.6001 118.8Z" fill="url(#paint0_radial_169_9731)" style=""/>
<path d="M63.6001 118.8C35.7001 118.8 5.6001 101.3 5.6001 62.9C5.6001 24.5 35.7001 7 63.6001 7C79.1001 7 93.4001 12.1 104 21.4C115.5 31.6 121.6 46 121.6 62.9C121.6 79.8 115.5 94.1 104 104.3C93.4001 113.6 79.0001 118.8 63.6001 118.8Z" fill="url(#paint1_radial_169_9731)" style=""/>
<path d="M63.6001 118.8C35.7001 118.8 5.6001 101.3 5.6001 62.9C5.6001 24.5 35.7001 7 63.6001 7C79.1001 7 93.4001 12.1 104 21.4C115.5 31.6 121.6 46 121.6 62.9C121.6 79.8 115.5 94.1 104 104.3C93.4001 113.6 79.0001 118.8 63.6001 118.8Z" fill="url(#paint2_radial_169_9731)" style=""/>
<path d="M111.49 29.67C116.82 38.27 119.6 48.51 119.6 59.9C119.6 76.8 113.5 91.1 102 101.3C91.4002 110.6 77.0002 115.8 61.6002 115.8C43.5402 115.8 24.6002 108.45 13.4202 92.86C24.1802 110.52 44.4202 118.8 63.6002 118.8C79.0002 118.8 93.4002 113.6 104 104.3C115.5 94.1 121.6 79.8 121.6 62.9C121.6 50.16 118.13 38.84 111.49 29.67Z" fill="#EB8F00" style="fill:#EB8F00;fill:color(display-p3 0.9216 0.5608 0.0000);fill-opacity:1;"/>
<path d="M111.49 29.67C116.82 38.27 119.6 48.51 119.6 59.9C119.6 76.8 113.5 91.1 102 101.3C91.4002 110.6 77.0002 115.8 61.6002 115.8C43.5402 115.8 24.6002 108.45 13.4202 92.86C24.1802 110.52 44.4202 118.8 63.6002 118.8C79.0002 118.8 93.4002 113.6 104 104.3C115.5 94.1 121.6 79.8 121.6 62.9C121.6 50.16 118.13 38.84 111.49 29.67Z" fill="#4A2F27" style="fill:#4A2F27;fill:color(display-p3 0.2902 0.1843 0.1529);fill-opacity:1;"/>
<path opacity="0.5" d="M27.2 99.7C36.8649 99.7 44.7 91.865 44.7 82.2C44.7 72.535 36.8649 64.7 27.2 64.7C17.535 64.7 9.69995 72.535 9.69995 82.2C9.69995 91.865 17.535 99.7 27.2 99.7Z" fill="url(#paint3_radial_169_9731)" style=""/>
<path opacity="0.8" d="M94.8799 99.7C104.545 99.7 112.38 91.865 112.38 82.2C112.38 72.535 104.545 64.7 94.8799 64.7C85.2149 64.7 77.3799 72.535 77.3799 82.2C77.3799 91.865 85.2149 99.7 94.8799 99.7Z" fill="url(#paint4_radial_169_9731)" style=""/>
<path opacity="0.5" d="M99.8 99.7C109.465 99.7 117.3 91.865 117.3 82.2C117.3 72.535 109.465 64.7 99.8 64.7C90.1351 64.7 82.3 72.535 82.3 82.2C82.3 91.865 90.1351 99.7 99.8 99.7Z" fill="url(#paint5_radial_169_9731)" style=""/>
<path d="M56 96H71" stroke="#35220B" style="stroke:#35220B;stroke:color(display-p3 0.2078 0.1333 0.0431);stroke-opacity:1;" stroke-width="8" stroke-linecap="round" stroke-linejoin="round"/>
<path d="M89.2 41.8C98.81 41.8 106.6 49.59 106.6 59.2C106.6 68.81 98.81 76.6 89.2 76.6C79.59 76.6 71.8 68.81 71.8 59.2C71.81 49.59 79.59 41.81 89.2 41.8Z" fill="white" style="fill:white;fill-opacity:1;"/>
<path d="M89.2 66.8C93.3421 66.8 96.7 63.3974 96.7 59.2C96.7 55.0026 93.3421 51.6 89.2 51.6C85.0578 51.6 81.7 55.0026 81.7 59.2C81.7 63.3974 85.0578 66.8 89.2 66.8Z" fill="#422B0D" style="fill:#422B0D;fill:color(display-p3 0.2588 0.1686 0.0510);fill-opacity:1;"/>
<path d="M89.2 66.8C93.3421 66.8 96.7 63.3974 96.7 59.2C96.7 55.0026 93.3421 51.6 89.2 51.6C85.0578 51.6 81.7 55.0026 81.7 59.2C81.7 63.3974 85.0578 66.8 89.2 66.8Z" fill="#1A1717" style="fill:#1A1717;fill:color(display-p3 0.1020 0.0902 0.0902);fill-opacity:1;"/>
<path d="M38.7001 41.7C48.3101 41.7 56.1 49.49 56.1 59.1C56.1 68.71 48.3101 76.5 38.7001 76.5C29.0901 76.5 21.3 68.71 21.3 59.1C21.31 49.49 29.0901 41.71 38.7001 41.7Z" fill="white" style="fill:white;fill-opacity:1;"/>
<path d="M38.7 66.7C42.8421 66.7 46.2 63.2974 46.2 59.1C46.2 54.9026 42.8421 51.5 38.7 51.5C34.5578 51.5 31.2 54.9026 31.2 59.1C31.2 63.2974 34.5578 66.7 38.7 66.7Z" fill="#422B0D" style="fill:#422B0D;fill:color(display-p3 0.2588 0.1686 0.0510);fill-opacity:1;"/>
<path d="M38.7 66.7C42.8421 66.7 46.2 63.2974 46.2 59.1C46.2 54.9026 42.8421 51.5 38.7 51.5C34.5578 51.5 31.2 54.9026 31.2 59.1C31.2 63.2974 34.5578 66.7 38.7 66.7Z" fill="#1A1717" style="fill:#1A1717;fill:color(display-p3 0.1020 0.0902 0.0902);fill-opacity:1;"/>
<path d="M46.5602 27.27H46.6602C47.6102 27.62 48.6602 27.13 49.0102 26.18C49.3602 25.23 48.8702 24.18 47.9202 23.83C46.1302 23.03 44.2302 22.52 42.2802 22.33C37.0302 21.7 31.7302 23.1 27.4802 26.25C25.4802 27.76 27.5502 30.31 29.5302 29.31C34.8202 26.74 40.8202 26.02 46.5602 27.27Z" fill="#422B0D" style="fill:#422B0D;fill:color(display-p3 0.2588 0.1686 0.0510);fill-opacity:1;"/>
<path d="M46.5602 27.27H46.6602C47.6102 27.62 48.6602 27.13 49.0102 26.18C49.3602 25.23 48.8702 24.18 47.9202 23.83C46.1302 23.03 44.2302 22.52 42.2802 22.33C37.0302 21.7 31.7302 23.1 27.4802 26.25C25.4802 27.76 27.5502 30.31 29.5302 29.31C34.8202 26.74 40.8202 26.02 46.5602 27.27Z" fill="#1A1717" style="fill:#1A1717;fill:color(display-p3 0.1020 0.0902 0.0902);fill-opacity:1;"/>
<path d="M80.8602 27.27H80.7602C79.8102 27.62 78.7602 27.13 78.4102 26.18C78.0602 25.23 78.5502 24.18 79.5002 23.83C81.2902 23.03 83.1902 22.52 85.1402 22.33C90.3902 21.7 95.6902 23.1 99.9402 26.25C101.94 27.76 99.8702 30.31 97.9402 29.31C92.6402 26.73 86.6202 26.01 80.8602 27.27Z" fill="#422B0D" style="fill:#422B0D;fill:color(display-p3 0.2588 0.1686 0.0510);fill-opacity:1;"/>
<path d="M80.8602 27.27H80.7602C79.8102 27.62 78.7602 27.13 78.4102 26.18C78.0602 25.23 78.5502 24.18 79.5002 23.83C81.2902 23.03 83.1902 22.52 85.1402 22.33C90.3902 21.7 95.6902 23.1 99.9402 26.25C101.94 27.76 99.8702 30.31 97.9402 29.31C92.6402 26.73 86.6202 26.01 80.8602 27.27Z" fill="#1A1717" style="fill:#1A1717;fill:color(display-p3 0.1020 0.0902 0.0902);fill-opacity:1;"/>
<defs>
<radialGradient id="paint0_radial_169_9731" cx="0" cy="0" r="1" gradientUnits="userSpaceOnUse" gradientTransform="translate(63.6001 62.9) scale(56.9597 56.9597)">
<stop offset="0.5" stop-color="#FDE030" style="stop-color:#FDE030;stop-color:color(display-p3 0.9922 0.8784 0.1882);stop-opacity:1;"/>
<stop offset="0.92" stop-color="#F7C02B" style="stop-color:#F7C02B;stop-color:color(display-p3 0.9686 0.7529 0.1686);stop-opacity:1;"/>
<stop offset="1" stop-color="#F4A223" style="stop-color:#F4A223;stop-color:color(display-p3 0.9569 0.6353 0.1373);stop-opacity:1;"/>
</radialGradient>
<radialGradient id="paint1_radial_169_9731" cx="0" cy="0" r="1" gradientUnits="userSpaceOnUse" gradientTransform="translate(38.5991 34.5377) rotate(-43.2082) scale(102.024 101.825)">
<stop offset="0.3533" stop-color="#F9DDBD" style="stop-color:#F9DDBD;stop-color:color(display-p3 0.9765 0.8667 0.7412);stop-opacity:1;"/>
<stop offset="0.8723" stop-color="#FFD29C" style="stop-color:#FFD29C;stop-color:color(display-p3 1.0000 0.8235 0.6118);stop-opacity:1;"/>
</radialGradient>
<radialGradient id="paint2_radial_169_9731" cx="0" cy="0" r="1" gradientUnits="userSpaceOnUse" gradientTransform="translate(38.5991 34.5377) rotate(-43.2082) scale(102.024 101.825)">
<stop offset="0.3533" stop-color="#70534A" style="stop-color:#70534A;stop-color:color(display-p3 0.4392 0.3255 0.2902);stop-opacity:1;"/>
<stop offset="0.8723" stop-color="#5C4037" style="stop-color:#5C4037;stop-color:color(display-p3 0.3608 0.2510 0.2157);stop-opacity:1;"/>
</radialGradient>
<radialGradient id="paint3_radial_169_9731" cx="0" cy="0" r="1" gradientUnits="userSpaceOnUse" gradientTransform="translate(27.3222 82.047) scale(19.0512 18.0792)">
<stop stop-color="#ED7770" style="stop-color:#ED7770;stop-color:color(display-p3 0.9294 0.4667 0.4392);stop-opacity:1;"/>
<stop offset="0.9" stop-color="#ED7770" stop-opacity="0" style="stop-color:none;stop-opacity:0;"/>
</radialGradient>
<radialGradient id="paint4_radial_169_9731" cx="0" cy="0" r="1" gradientUnits="userSpaceOnUse" gradientTransform="translate(95.0005 82.047) scale(19.0512 18.0792)">
<stop stop-color="#ED7770" style="stop-color:#ED7770;stop-color:color(display-p3 0.9294 0.4667 0.4392);stop-opacity:1;"/>
<stop offset="0.9" stop-color="#ED7770" stop-opacity="0" style="stop-color:none;stop-opacity:0;"/>
</radialGradient>
<radialGradient id="paint5_radial_169_9731" cx="0" cy="0" r="1" gradientUnits="userSpaceOnUse" gradientTransform="translate(147.43 1053.9) scale(19.44)">
<stop stop-color="#ED7770" style="stop-color:#ED7770;stop-color:color(display-p3 0.9294 0.4667 0.4392);stop-opacity:1;"/>
<stop offset="0.9" stop-color="#ED7770" stop-opacity="0" style="stop-color:none;stop-opacity:0;"/>
</radialGradient>
</defs>
</svg>
