<svg width="128" height="128" viewBox="0 0 128 128" fill="none" xmlns="http://www.w3.org/2000/svg">
<path d="M63.6001 118.8C35.7001 118.8 5.6001 101.3 5.6001 62.9C5.6001 24.5 35.7001 7 63.6001 7C79.1001 7 93.4001 12.1 104 21.4C115.5 31.6 121.6 46 121.6 62.9C121.6 79.8 115.5 94.1 104 104.3C93.4001 113.6 79.0001 118.8 63.6001 118.8Z" fill="url(#paint0_radial_169_8628)" style=""/>
<path d="M63.6001 118.8C35.7001 118.8 5.6001 101.3 5.6001 62.9C5.6001 24.5 35.7001 7 63.6001 7C79.1001 7 93.4001 12.1 104 21.4C115.5 31.6 121.6 46 121.6 62.9C121.6 79.8 115.5 94.1 104 104.3C93.4001 113.6 79.0001 118.8 63.6001 118.8Z" fill="url(#paint1_radial_169_8628)" style=""/>
<path d="M63.6001 118.8C35.7001 118.8 5.6001 101.3 5.6001 62.9C5.6001 24.5 35.7001 7 63.6001 7C79.1001 7 93.4001 12.1 104 21.4C115.5 31.6 121.6 46 121.6 62.9C121.6 79.8 115.5 94.1 104 104.3C93.4001 113.6 79.0001 118.8 63.6001 118.8Z" fill="url(#paint2_radial_169_8628)" style=""/>
<path d="M79.3999 45.94C75.2099 45.94 71.3999 49.48 71.3999 55.36C71.3999 61.24 75.2099 64.78 79.3999 64.78C83.5899 64.78 87.3999 61.24 87.3999 55.36C87.3999 49.48 83.5899 45.94 79.3999 45.94Z" fill="#422B0D" style="fill:#422B0D;fill:color(display-p3 0.2588 0.1686 0.0510);fill-opacity:1;"/>
<path d="M79.3999 45.94C75.2099 45.94 71.3999 49.48 71.3999 55.36C71.3999 61.24 75.2099 64.78 79.3999 64.78C83.5899 64.78 87.3999 61.24 87.3999 55.36C87.3999 49.48 83.5899 45.94 79.3999 45.94Z" fill="#1A1717" style="fill:#1A1717;fill:color(display-p3 0.1020 0.0902 0.0902);fill-opacity:1;"/>
<path d="M79.01 49.87C77.98 49.15 76.43 49.38 75.43 50.82C74.43 52.27 74.76 53.79 75.79 54.51C76.82 55.23 78.37 55 79.37 53.56C80.38 52.11 80.04 50.59 79.01 49.87Z" fill="#555050" style="fill:#555050;fill:color(display-p3 0.3333 0.3125 0.3125);fill-opacity:1;"/>
<path d="M111.49 29.67C116.82 38.27 119.6 48.51 119.6 59.9C119.6 76.8 113.5 91.1 102 101.3C91.3999 110.6 76.9999 115.8 61.5999 115.8C43.5399 115.8 24.5599 108.45 13.4199 92.86C24.1799 110.52 44.4099 118.8 63.5999 118.8C78.9999 118.8 93.3999 113.6 104 104.3C115.5 94.1 121.6 79.8 121.6 62.9C121.6 50.16 118.13 38.84 111.49 29.67Z" fill="#EB8F00" style="fill:#EB8F00;fill:color(display-p3 0.9216 0.5608 0.0000);fill-opacity:1;"/>
<path d="M111.49 29.67C116.82 38.27 119.6 48.51 119.6 59.9C119.6 76.8 113.5 91.1 102 101.3C91.3999 110.6 76.9999 115.8 61.5999 115.8C43.5399 115.8 24.5599 108.45 13.4199 92.86C24.1799 110.52 44.4099 118.8 63.5999 118.8C78.9999 118.8 93.3999 113.6 104 104.3C115.5 94.1 121.6 79.8 121.6 62.9C121.6 50.16 118.13 38.84 111.49 29.67Z" fill="#4A2F27" style="fill:#4A2F27;fill:color(display-p3 0.2902 0.1843 0.1529);fill-opacity:1;"/>
<g opacity="0.9">
<path opacity="0.5" d="M101.65 87.75C111.282 87.75 119.09 80.5866 119.09 71.75C119.09 62.9134 111.282 55.75 101.65 55.75C92.0181 55.75 84.21 62.9134 84.21 71.75C84.21 80.5866 92.0181 87.75 101.65 87.75Z" fill="url(#paint3_radial_169_8628)" style=""/>
</g>
<g opacity="0.9">
<path opacity="0.5" d="M27.45 90.44C37.0819 90.44 44.89 83.2766 44.89 74.44C44.89 65.6034 37.0819 58.44 27.45 58.44C17.8182 58.44 10.01 65.6034 10.01 74.44C10.01 83.2766 17.8182 90.44 27.45 90.44Z" fill="url(#paint4_radial_169_8628)" style=""/>
</g>
<path d="M45.38 37.4C46.73 35.66 49.58 37.19 48.44 39.42C47.58 41.04 46.33 42.68 44.86 44.02C40.96 47.83 35.61 49.87 30.71 49.9C28.21 49.87 28.32 46.66 30.51 46.2C36.08 45.15 41.5 42.1 45.38 37.4Z" fill="#422B0D" style="fill:#422B0D;fill:color(display-p3 0.2588 0.1686 0.0510);fill-opacity:1;"/>
<path d="M45.38 37.4C46.73 35.66 49.58 37.19 48.44 39.42C47.58 41.04 46.33 42.68 44.86 44.02C40.96 47.83 35.61 49.87 30.71 49.9C28.21 49.87 28.32 46.66 30.51 46.2C36.08 45.15 41.5 42.1 45.38 37.4Z" fill="#1A1717" style="fill:#1A1717;fill:color(display-p3 0.1020 0.0902 0.0902);fill-opacity:1;"/>
<path d="M80.8601 38.75C78.7501 38.13 79.1201 34.93 81.6101 35.17C83.4301 35.37 85.4201 35.94 87.2001 36.81C92.1701 39.04 96.0401 43.26 97.8701 47.8C98.7601 50.14 95.7401 51.21 94.5101 49.34C91.4901 44.54 86.6601 40.62 80.8601 38.75Z" fill="#422B0D" style="fill:#422B0D;fill:color(display-p3 0.2588 0.1686 0.0510);fill-opacity:1;"/>
<path d="M80.8601 38.75C78.7501 38.13 79.1201 34.93 81.6101 35.17C83.4301 35.37 85.4201 35.94 87.2001 36.81C92.1701 39.04 96.0401 43.26 97.8701 47.8C98.7601 50.14 95.7401 51.21 94.5101 49.34C91.4901 44.54 86.6601 40.62 80.8601 38.75Z" fill="#1A1717" style="fill:#1A1717;fill:color(display-p3 0.1020 0.0902 0.0902);fill-opacity:1;"/>
<path d="M37.6701 53.64C36.1601 54.36 35.3601 56.04 35.7601 57.66C36.8001 61.96 40.1201 64.46 43.7101 64.46C48.0501 64.46 52.0001 60.79 52.0001 54.71C52.0001 53.55 51.8501 52.47 51.5901 51.5C51.0301 49.42 48.6501 48.42 46.7001 49.34L37.6701 53.64Z" fill="#422B0D" style="fill:#422B0D;fill:color(display-p3 0.2588 0.1686 0.0510);fill-opacity:1;"/>
<path d="M37.6701 53.64C36.1601 54.36 35.3601 56.04 35.7601 57.66C36.8001 61.96 40.1201 64.46 43.7101 64.46C48.0501 64.46 52.0001 60.79 52.0001 54.71C52.0001 53.55 51.8501 52.47 51.5901 51.5C51.0301 49.42 48.6501 48.42 46.7001 49.34L37.6701 53.64Z" fill="#1A1717" style="fill:#1A1717;fill:color(display-p3 0.1020 0.0902 0.0902);fill-opacity:1;"/>
<path d="M47.3001 52.77C46.7501 51.93 45.3601 51.76 43.8901 52.74C42.4201 53.72 42.0401 55.06 42.5901 55.9C43.1401 56.74 44.5301 56.91 46.0001 55.93C47.4701 54.95 47.8601 53.6 47.3001 52.77Z" fill="#555050" style="fill:#555050;fill:color(display-p3 0.3333 0.3125 0.3125);fill-opacity:1;"/>
<path d="M36.1 80.62C32.87 79.9 29.37 80.46 26.52 82.14" stroke="#35220B" style="stroke:#35220B;stroke:color(display-p3 0.2078 0.1333 0.0431);stroke-opacity:1;" stroke-width="4.4377" stroke-miterlimit="10" stroke-linecap="round" stroke-linejoin="round"/>
<path d="M31.66 82.73C31.16 86.04 32.73 89.58 35.52 91.44C38.31 93.3 42.18 93.38 45.04 91.65C46.24 90.93 47.25 89.93 48.44 89.2C52.62 86.63 58.09 87.79 62.55 89.83C67.01 91.87 71.21 94.74 76.06 95.52C84.32 96.85 93.09 90.83 94.8 82.64" stroke="#1A1717" style="stroke:#1A1717;stroke:color(display-p3 0.1020 0.0902 0.0902);stroke-opacity:1;" stroke-width="4.4377" stroke-miterlimit="10" stroke-linecap="round" stroke-linejoin="round"/>
<path d="M99.1499 86.51C97.9999 84.06 94.1099 81.64 91.3999 81.78" stroke="#35220B" style="stroke:#35220B;stroke:color(display-p3 0.2078 0.1333 0.0431);stroke-opacity:1;" stroke-width="4.4377" stroke-miterlimit="10" stroke-linecap="round" stroke-linejoin="round"/>
<defs>
<radialGradient id="paint0_radial_169_8628" cx="0" cy="0" r="1" gradientUnits="userSpaceOnUse" gradientTransform="translate(63.6001 62.8999) scale(56.9597 56.9597)">
<stop offset="0.5" stop-color="#FDE030" style="stop-color:#FDE030;stop-color:color(display-p3 0.9922 0.8784 0.1882);stop-opacity:1;"/>
<stop offset="0.9188" stop-color="#F7C02B" style="stop-color:#F7C02B;stop-color:color(display-p3 0.9686 0.7529 0.1686);stop-opacity:1;"/>
<stop offset="1" stop-color="#F4A223" style="stop-color:#F4A223;stop-color:color(display-p3 0.9569 0.6353 0.1373);stop-opacity:1;"/>
</radialGradient>
<radialGradient id="paint1_radial_169_8628" cx="0" cy="0" r="1" gradientUnits="userSpaceOnUse" gradientTransform="translate(38.5991 34.5377) rotate(-43.2082) scale(102.024 101.825)">
<stop offset="0.3533" stop-color="#F9DDBD" style="stop-color:#F9DDBD;stop-color:color(display-p3 0.9765 0.8667 0.7412);stop-opacity:1;"/>
<stop offset="0.8723" stop-color="#FFD29C" style="stop-color:#FFD29C;stop-color:color(display-p3 1.0000 0.8235 0.6118);stop-opacity:1;"/>
</radialGradient>
<radialGradient id="paint2_radial_169_8628" cx="0" cy="0" r="1" gradientUnits="userSpaceOnUse" gradientTransform="translate(38.5991 34.5377) rotate(-43.2082) scale(102.024 101.825)">
<stop offset="0.3533" stop-color="#70534A" style="stop-color:#70534A;stop-color:color(display-p3 0.4392 0.3255 0.2902);stop-opacity:1;"/>
<stop offset="0.8723" stop-color="#5C4037" style="stop-color:#5C4037;stop-color:color(display-p3 0.3608 0.2510 0.2157);stop-opacity:1;"/>
</radialGradient>
<radialGradient id="paint3_radial_169_8628" cx="0" cy="0" r="1" gradientUnits="userSpaceOnUse" gradientTransform="translate(101.642 71.752) scale(18.9738 16.5909)">
<stop stop-color="#ED7770" style="stop-color:#ED7770;stop-color:color(display-p3 0.9294 0.4667 0.4392);stop-opacity:1;"/>
<stop offset="0.9" stop-color="#ED7770" stop-opacity="0" style="stop-color:none;stop-opacity:0;"/>
</radialGradient>
<radialGradient id="paint4_radial_169_8628" cx="0" cy="0" r="1" gradientUnits="userSpaceOnUse" gradientTransform="translate(27.4494 74.4426) scale(18.9738 16.5909)">
<stop stop-color="#ED7770" style="stop-color:#ED7770;stop-color:color(display-p3 0.9294 0.4667 0.4392);stop-opacity:1;"/>
<stop offset="0.9" stop-color="#ED7770" stop-opacity="0" style="stop-color:none;stop-opacity:0;"/>
</radialGradient>
</defs>
</svg>
