<svg width="129" height="128" viewBox="0 0 129 128" fill="none" xmlns="http://www.w3.org/2000/svg">
<g clip-path="url(#clip0_2017_94)">
<path d="M41.2651 11.43C41.2651 11.43 32.8146 9.41583 33.2048 11.8887C33.5951 14.3615 36.3241 18.5241 35.6021 22.2522C34.8802 25.9803 32.8229 28.4236 31.0149 29.9585C29.2068 31.4934 9.9972 49.1283 12.3036 74.4981C14.61 99.8678 32.8213 114.987 52.48 117.832C68.5909 120.163 76.756 115.567 76.756 115.567C76.756 115.567 75.6418 117.836 75.0167 118.292C74.3917 118.748 72.0777 119.775 71.0165 120.406C69.9554 121.037 66.5063 124.04 67.2802 124.946C68.0542 125.853 70.9371 122.97 72.3173 122.114C73.6975 121.258 76.1505 120.067 76.5657 119.598C76.9809 119.13 78.8037 116.371 78.8037 116.371C78.8037 116.371 78.8995 119.372 78.4114 120.678C77.9232 121.984 80.1006 122.629 81.8125 121.337C83.5244 120.046 83.0965 114.958 83.0965 114.958C83.0965 114.958 84.2651 117.625 84.6156 118.497C84.9662 119.369 85.2657 120.866 85.7507 121.08C86.245 121.291 89.0238 120.67 89.641 119.926C90.2582 119.183 89.3771 117.5 89.3771 117.5C89.3771 117.5 92.3213 118.041 94.1191 118.224C95.9169 118.407 97.7092 118.602 97.9492 117.698C98.1891 116.793 97.1937 115.576 96.5324 115.433C95.8711 115.289 93.6963 115.16 93.1312 114.773C92.5698 114.395 91.2437 113.107 91.2437 113.107C91.2437 113.107 92.6886 110.91 93.6317 110.735C94.5747 110.561 97.8194 112.092 99.2438 112.123C100.668 112.154 103.776 112.834 104.54 112.215C105.308 111.604 105.603 110.569 105.075 110.275C104.547 109.981 101.121 109.741 100.145 109.325C99.1699 108.909 95.5935 107.813 95.5935 107.813C95.5935 107.813 108.258 100.094 113.878 87.8771C120.333 73.8485 122.263 48.134 103.771 31.4029C86.1226 15.4319 64.8461 16.8477 57.5525 17.203C53.7776 17.3837 52.4809 15.9002 51.1385 13.713C49.8054 11.5221 46.8683 4.96434 44.88 5.29994C42.8918 5.63554 41.2651 11.43 41.2651 11.43Z" fill="url(#paint0_radial_2017_94)" style=""/>
<path d="M40.0353 16.9247C41.4793 16.4953 39.8249 14.2826 41.7988 13.1337C43.4759 12.1579 44.6387 14.676 45.5955 13.7849C46.5523 12.8939 44.8258 9.75102 44.2917 7.88564C43.767 6.07038 44.8594 5.2757 44.8594 5.2757C44.8594 5.2757 43.6124 4.66677 41.9933 5.92097C40.3742 7.17517 40.6254 9.81164 40.6254 9.81164C40.6254 9.81164 37.658 7.46923 35.3313 8.706C33.1736 9.85336 33.2487 11.5691 33.2487 11.5691C33.2487 11.5691 35.0267 10.9515 36.0721 12.051C37.1175 13.1505 38.0994 17.4979 40.0353 16.9247Z" fill="#D17759" style="fill:#D17759;fill:color(display-p3 0.8196 0.4667 0.3490);fill-opacity:1;"/>
<path d="M54.4301 34.1068C56.2623 37.1641 67.2512 51.7699 72.0287 63.0414C77.9937 77.1335 80.1977 87.3915 81.4271 94.3661C82.8102 102.206 83.4889 108.561 83.4889 108.561L85.4873 101.841C85.4873 101.841 84.1253 88.6367 80.6917 77.0623C77.6689 66.8855 72.0551 55.1957 64.9054 44.565C57.7464 33.938 52.4902 26.3831 50.4618 22.5964C48.9941 19.856 46.7254 15.5515 46.7254 15.5515C46.7254 15.5515 51.8137 20.2748 54.8475 22.2996C57.5709 24.115 63.9854 27.9282 71.5298 34.6066C79.9613 42.071 88.3435 53.5427 92.0226 64.1995C95.7017 74.8562 96.9132 83.4222 96.455 88.316C95.9931 93.2006 92.5521 101.265 92.5521 101.265L90.749 104.717C90.749 104.717 97.0396 99.6128 98.1044 94.3243C99.1692 89.0359 101.343 78.3549 94.2595 61.4791C87.1759 44.6034 78.7031 36.8754 72.6704 31.4108C67.8613 27.0603 54.9614 19.2577 54.9614 19.2577C54.9614 19.2577 71.9965 23.4586 76.3871 25.0782C87.4258 29.1345 97.1404 35.4474 104.588 51.2177C110.146 62.9836 110.003 72.2557 108.447 78.9488C106.89 85.6419 102.969 96.023 102.969 96.023L110.234 82.8864C110.234 82.8864 116.17 68.7212 107.542 49.8796C98.9141 31.038 86.1818 25.7977 78.4837 22.8669C71.9079 20.3687 60.7704 18.3459 56.3163 17.6678C52.5179 17.0927 51.1507 15.6484 50.183 14.3668C49.2153 13.0852 48.4453 13.4485 48.4453 13.4485L38.465 18.5694L37.2839 18.5267C37.2839 18.5267 35.4536 28.1858 31.8472 33.8275C29.1559 38.0453 22.3792 48.0002 19.9433 59.7995C17.4761 71.7623 20.7331 82.039 25.5916 91.7152C30.6625 101.813 40.1726 111.398 51.7595 113.412C63.3465 115.427 75.4638 112.379 75.4638 112.379C75.4638 112.379 67.2323 112.626 63.0002 112.581C58.328 112.54 52.3705 112.305 45.2617 108.587C39.2327 105.438 27.671 96.085 23.3899 79.4517C20.3253 67.535 22.1531 57.5212 26.2709 48.8611C30.5737 39.8034 33.1731 36.1076 34.3099 34.0018C36.9129 29.1621 38.3099 22.5547 38.3099 22.5547C38.3099 22.5547 39.3017 20.4101 39.1215 23.8235C38.9684 26.741 37.1769 33.9489 36.8468 35.3533C35.6611 40.5287 33.064 45.6247 33.3617 60.9812C33.6751 76.8595 40.1078 88.4681 44.375 94.1788C48.6459 99.8988 53.0151 104.361 57.8885 107.156C63.7601 110.53 74.7167 112.022 74.7167 112.022C74.7167 112.022 64.717 108.593 59.9657 105.513C54.0804 101.702 49.8181 96.7011 45.4088 90.4224C41.638 85.0619 37.1602 75.4482 36.2615 61.6265C35.5644 50.8275 36.7091 46.7032 38.007 40.8685C39.3049 35.0337 40.285 31.385 41.1864 26.0652C41.7106 22.9447 41.5211 18.2896 41.5211 18.2896L42.0348 17.8784C42.0348 17.8784 43.5368 23.4933 43.9818 26.5046C44.4267 29.5158 45.4703 34.0971 45.6106 39.3539C45.7509 44.6107 44.8223 59.4902 51.0807 73.6152C58.64 90.6555 67.1963 99.5031 70.5238 102.875C73.8513 106.248 79.3726 112.317 79.3726 112.317L78.7765 106.543C78.7765 106.543 66.683 95.5709 60.2872 84.939C54.5077 75.3311 51.5924 68.4521 49.722 60.1508C48.5474 54.9216 48.6813 41.2022 48.2351 37.437C47.789 33.6718 46.7879 27.8018 46.4175 26.1292L45.4714 19.806L54.4301 34.1068Z" fill="url(#paint1_radial_2017_94)" style=""/>
<path d="M28.7478 51.0018C26.3585 51.3584 25.2361 54.3314 24.5956 59.0398C23.9974 63.451 24.5876 67.8696 27.6955 67.5044C30.8852 67.1278 31.3942 60.3491 31.2395 57.6847C31.0755 55.0239 30.5468 50.7315 28.7478 51.0018Z" fill="#FEEAC4" style="fill:#FEEAC4;fill:color(display-p3 0.9961 0.9176 0.7686);fill-opacity:1;"/>
<path d="M37.6573 55.3101C37.7999 61.9671 39.2614 66.596 41.549 66.4957C43.8328 66.3862 44.5702 58.4057 44.2991 54.9689C44.0317 51.5414 43.2171 44.9821 40.7662 45.1587C38.306 45.3391 37.5646 50.7886 37.6573 55.3101Z" fill="#FEEAC4" style="fill:#FEEAC4;fill:color(display-p3 0.9961 0.9176 0.7686);fill-opacity:1;"/>
<path d="M52.724 56.0344C53.4883 60.1352 54.5961 61.9532 56.4822 61.6048C58.3683 61.2563 57.416 56.8755 56.9413 54.9431C56.4665 53.0108 55.7987 48.8282 53.6192 49.1975C51.4397 49.5668 52.1003 52.7393 52.724 56.0344Z" fill="#FEEAC4" style="fill:#FEEAC4;fill:color(display-p3 0.9961 0.9176 0.7686);fill-opacity:1;"/>
<path d="M95.8492 107.652L87.2612 111.756L76.9526 115.462L75.7037 116.057C76.4048 115.765 76.7563 115.567 76.7563 115.567C76.7563 115.567 75.6421 117.836 75.0171 118.292C74.6784 118.539 73.8438 118.953 72.9814 119.382C72.2522 119.744 71.503 120.117 71.0169 120.406C69.9557 121.037 66.5066 124.04 67.2806 124.947C67.8355 125.597 69.4748 124.298 70.8669 123.196C71.4163 122.761 71.9271 122.356 72.3176 122.114C72.8575 121.779 73.5616 121.393 74.2436 121.019C75.3051 120.437 76.3132 119.884 76.566 119.598C76.9812 119.13 78.804 116.371 78.804 116.371C78.804 116.371 78.8998 119.372 78.4117 120.678C77.9236 121.984 80.101 122.629 81.8129 121.337C83.5247 120.046 83.0969 114.958 83.0969 114.958C83.0969 114.958 84.2655 117.625 84.616 118.497C84.7198 118.755 84.819 119.068 84.92 119.386C85.1601 120.143 85.4096 120.929 85.751 121.08C86.2453 121.291 89.0242 120.67 89.6414 119.926C90.2585 119.183 89.3775 117.5 89.3775 117.5C89.3775 117.5 92.3216 118.041 94.1194 118.224L94.196 118.232C95.9679 118.412 97.713 118.59 97.9495 117.698C98.1895 116.793 97.194 115.576 96.5327 115.433C96.3299 115.389 95.9849 115.346 95.5875 115.297C94.6891 115.186 93.5234 115.042 93.1316 114.773C92.5702 114.395 91.2441 113.107 91.2441 113.107C91.2441 113.107 92.689 110.91 93.632 110.735C94.1155 110.646 95.2039 111.005 96.3418 111.38C97.4235 111.736 98.55 112.108 99.2441 112.123C99.6793 112.132 100.272 112.202 100.906 112.278C102.349 112.448 104.01 112.645 104.54 112.215C105.308 111.604 105.604 110.569 105.076 110.275C104.827 110.137 103.937 110.01 102.962 109.872C101.866 109.716 100.662 109.545 100.146 109.325C99.1702 108.909 95.5938 107.813 95.5938 107.813C95.5938 107.813 95.6828 107.759 95.8492 107.652Z" fill="#342C2A" style="fill:#342C2A;fill:color(display-p3 0.2042 0.1733 0.1642);fill-opacity:1;"/>
</g>
<defs>
<radialGradient id="paint0_radial_2017_94" cx="0" cy="0" r="1" gradientUnits="userSpaceOnUse" gradientTransform="translate(38.8524 6.29416) rotate(-21.8938) scale(110.269 110.269)">
<stop offset="0.1866" stop-color="#F2A05B" style="stop-color:#F2A05B;stop-color:color(display-p3 0.9490 0.6275 0.3569);stop-opacity:1;"/>
<stop offset="0.2246" stop-color="#F5AD68" style="stop-color:#F5AD68;stop-color:color(display-p3 0.9608 0.6784 0.4078);stop-opacity:1;"/>
<stop offset="0.2914" stop-color="#FECC88" style="stop-color:#FECC88;stop-color:color(display-p3 0.9961 0.8000 0.5333);stop-opacity:1;"/>
<stop offset="0.6387" stop-color="#FECC88" style="stop-color:#FECC88;stop-color:color(display-p3 0.9961 0.8000 0.5333);stop-opacity:1;"/>
<stop offset="0.6577" stop-color="#FECC88" style="stop-color:#FECC88;stop-color:color(display-p3 0.9961 0.8000 0.5333);stop-opacity:1;"/>
<stop offset="0.7028" stop-color="#FCC581" style="stop-color:#FCC581;stop-color:color(display-p3 0.9882 0.7725 0.5059);stop-opacity:1;"/>
<stop offset="0.7688" stop-color="#F7B16D" style="stop-color:#F7B16D;stop-color:color(display-p3 0.9686 0.6941 0.4275);stop-opacity:1;"/>
<stop offset="0.8138" stop-color="#F3A05C" style="stop-color:#F3A05C;stop-color:color(display-p3 0.9529 0.6275 0.3608);stop-opacity:1;"/>
<stop offset="0.8485" stop-color="#E6915B" style="stop-color:#E6915B;stop-color:color(display-p3 0.9020 0.5686 0.3569);stop-opacity:1;"/>
<stop offset="0.9054" stop-color="#D77F59" style="stop-color:#D77F59;stop-color:color(display-p3 0.8431 0.4980 0.3490);stop-opacity:1;"/>
<stop offset="0.9456" stop-color="#D17858" style="stop-color:#D17858;stop-color:color(display-p3 0.8196 0.4706 0.3451);stop-opacity:1;"/>
</radialGradient>
<radialGradient id="paint1_radial_2017_94" cx="0" cy="0" r="1" gradientUnits="userSpaceOnUse" gradientTransform="translate(41.6564 15.1641) rotate(-21.8938) scale(96.4928 96.4928)">
<stop offset="0.4857" stop-color="#F2A05B" style="stop-color:#F2A05B;stop-color:color(display-p3 0.9490 0.6275 0.3569);stop-opacity:1;"/>
<stop offset="0.6159" stop-color="#EE9B5B" style="stop-color:#EE9B5B;stop-color:color(display-p3 0.9333 0.6078 0.3569);stop-opacity:1;"/>
<stop offset="0.7685" stop-color="#E38D5A" style="stop-color:#E38D5A;stop-color:color(display-p3 0.8902 0.5529 0.3529);stop-opacity:1;"/>
<stop offset="0.9224" stop-color="#D17759" style="stop-color:#D17759;stop-color:color(display-p3 0.8196 0.4667 0.3490);stop-opacity:1;"/>
</radialGradient>
<clipPath id="clip0_2017_94">
<rect width="128" height="128" fill="white" style="fill:white;fill-opacity:1;" transform="translate(0.5)"/>
</clipPath>
</defs>
</svg>
