<svg width="128" height="128" viewBox="0 0 128 128" fill="none" xmlns="http://www.w3.org/2000/svg">
<path d="M63.6001 118.8C35.7001 118.8 5.6001 101.3 5.6001 62.9C5.6001 24.5 35.7001 7 63.6001 7C79.1001 7 93.4001 12.1 104 21.4C115.5 31.6 121.6 46 121.6 62.9C121.6 79.8 115.5 94.1 104 104.3C93.4001 113.6 79.0001 118.8 63.6001 118.8Z" fill="url(#paint0_radial_201_9736)" style=""/>
<path d="M111.49 29.6699C116.82 38.2699 119.6 48.5099 119.6 59.8999C119.6 76.7999 113.5 91.0999 102 101.3C91.4002 110.6 77.0002 115.8 61.6002 115.8C43.5402 115.8 24.6002 108.45 13.4202 92.8599C24.1802 110.52 44.4202 118.8 63.6002 118.8C79.0002 118.8 93.4002 113.6 104 104.3C115.5 94.0999 121.6 79.7999 121.6 62.8999C121.6 50.1599 118.13 38.8399 111.49 29.6699Z" fill="#EB8F00" style="fill:#EB8F00;fill:color(display-p3 0.9216 0.5608 0.0000);fill-opacity:1;"/>
<path d="M63.9999 93.8101C52.4899 93.8101 44.2699 87.8101 41.7999 84.0701C40.8699 82.8601 40.6799 81.2401 41.2999 79.8501C41.7699 78.9601 42.6999 78.4101 43.7099 78.4401C44.0799 78.4401 44.4499 78.5001 44.7999 78.6101C51.0299 80.4901 57.4999 81.4301 63.9999 81.3901C70.4999 81.4301 76.9799 80.4901 83.1999 78.6101C83.5499 78.5001 83.9199 78.4401 84.2899 78.4401C85.2999 78.4101 86.2299 78.9601 86.6999 79.8501C87.3199 81.2401 87.1299 82.8601 86.1999 84.0701C83.7299 87.8301 75.5099 93.8101 63.9999 93.8101Z" fill="#422B0D" style="fill:#422B0D;fill:color(display-p3 0.2588 0.1686 0.0510);fill-opacity:1;"/>
<path d="M124 45.4201C124 45.4201 119.74 45.5101 119.74 48.9201C119.74 57.3401 119.84 75.4101 97.74 75.4101C80.08 75.4101 71.65 66.2901 70.23 56.2201C69.65 52.0301 68.23 47.4701 63.96 47.4701C59.69 47.4701 58.31 52.0001 57.73 56.2201C56.31 66.2901 47.88 75.4101 30.22 75.4101C8.15996 75.4101 8.21996 57.3401 8.21996 48.9201C8.21996 45.5101 3.95996 45.4201 3.95996 45.4201V37.0801C10.81 36.1801 17.71 35.7601 24.61 35.8201C37.09 35.8201 42.06 35.8201 51.99 36.8201C57.86 37.4001 63.99 37.4701 63.99 37.4701C63.99 37.4701 70.09 37.4001 75.99 36.8201C85.92 35.8201 90.89 35.8201 103.37 35.8201C110.27 35.7601 117.16 36.1901 124 37.0801V45.4201Z" fill="#212121" style="fill:#212121;fill:color(display-p3 0.1294 0.1294 0.1294);fill-opacity:1;"/>
<path d="M21.1199 52.0003C21.0199 53.6003 20.3799 55.0803 18.8099 55.3803C18.6299 55.4103 18.4599 55.4303 18.2799 55.4303C16.8699 55.4203 15.6599 54.4003 15.4399 53.0003C14.8299 50.2403 15.4999 47.3503 17.2599 45.1403C18.8799 43.1803 21.2999 42.0503 23.8399 42.0603C25.3499 41.9203 26.6899 43.0303 26.8299 44.5403C26.8299 44.5703 26.8399 44.6003 26.8399 44.6403C26.8399 46.5203 25.3399 47.3203 23.8399 47.8403C22.1999 48.5803 21.1399 50.2003 21.1199 52.0003Z" fill="#ACACAC" style="fill:#ACACAC;fill:color(display-p3 0.6750 0.6750 0.6750);fill-opacity:1;"/>
<path d="M21.1199 52.0003C21.0199 53.6003 20.3799 55.0803 18.8099 55.3803C18.6299 55.4103 18.4599 55.4303 18.2799 55.4303C16.8699 55.4203 15.6599 54.4003 15.4399 53.0003C14.8299 50.2403 15.4999 47.3503 17.2599 45.1403C18.8799 43.1803 21.2999 42.0503 23.8399 42.0603C25.3499 41.9203 26.6899 43.0303 26.8299 44.5403C26.8299 44.5703 26.8399 44.6003 26.8399 44.6403C26.8399 46.5203 25.3399 47.3203 23.8399 47.8403C22.1999 48.5803 21.1399 50.2003 21.1199 52.0003Z" fill="#787878" style="fill:#787878;fill:color(display-p3 0.4706 0.4706 0.4706);fill-opacity:1;"/>
<path d="M84.7 52.0003C84.61 53.6003 83.96 55.0803 82.4 55.3803C82.22 55.4103 82.04 55.4303 81.86 55.4303C80.44 55.4303 79.23 54.4003 79 53.0003C78.39 50.2403 79.06 47.3503 80.82 45.1403C82.45 43.1803 84.86 42.0503 87.41 42.0603C88.92 41.9203 90.26 43.0303 90.4 44.5403C90.4 44.5703 90.41 44.6003 90.41 44.6403C90.41 46.5203 88.91 47.3203 87.41 47.8403C85.78 48.5803 84.72 50.2003 84.7 52.0003Z" fill="#ACACAC" style="fill:#ACACAC;fill:color(display-p3 0.6750 0.6750 0.6750);fill-opacity:1;"/>
<path d="M84.7 52.0003C84.61 53.6003 83.96 55.0803 82.4 55.3803C82.22 55.4103 82.04 55.4303 81.86 55.4303C80.44 55.4303 79.23 54.4003 79 53.0003C78.39 50.2403 79.06 47.3503 80.82 45.1403C82.45 43.1803 84.86 42.0503 87.41 42.0603C88.92 41.9203 90.26 43.0303 90.4 44.5403C90.4 44.5703 90.41 44.6003 90.41 44.6403C90.41 46.5203 88.91 47.3203 87.41 47.8403C85.78 48.5803 84.72 50.2003 84.7 52.0003Z" fill="#787878" style="fill:#787878;fill:color(display-p3 0.4706 0.4706 0.4706);fill-opacity:1;"/>
<defs>
<radialGradient id="paint0_radial_201_9736" cx="0" cy="0" r="1" gradientUnits="userSpaceOnUse" gradientTransform="translate(63.6001 62.8999) scale(56.9597 56.9597)">
<stop offset="0.5" stop-color="#FDE030" style="stop-color:#FDE030;stop-color:color(display-p3 0.9922 0.8784 0.1882);stop-opacity:1;"/>
<stop offset="0.92" stop-color="#F7C02B" style="stop-color:#F7C02B;stop-color:color(display-p3 0.9686 0.7529 0.1686);stop-opacity:1;"/>
<stop offset="1" stop-color="#F4A223" style="stop-color:#F4A223;stop-color:color(display-p3 0.9569 0.6353 0.1373);stop-opacity:1;"/>
</radialGradient>
</defs>
</svg>
