<svg width="128" height="128" viewBox="0 0 128 128" fill="none" xmlns="http://www.w3.org/2000/svg">
<path d="M63.6001 118.8C35.7001 118.8 5.6001 101.3 5.6001 62.9C5.6001 24.5 35.7001 7 63.6001 7C79.1001 7 93.4001 12.1 104 21.4C115.5 31.6 121.6 46 121.6 62.9C121.6 79.8 115.5 94.1 104 104.3C93.4001 113.6 79.0001 118.8 63.6001 118.8Z" fill="url(#paint0_radial_169_4849)" style=""/>
<path d="M63.6001 118.8C35.7001 118.8 5.6001 101.3 5.6001 62.9C5.6001 24.5 35.7001 7 63.6001 7C79.1001 7 93.4001 12.1 104 21.4C115.5 31.6 121.6 46 121.6 62.9C121.6 79.8 115.5 94.1 104 104.3C93.4001 113.6 79.0001 118.8 63.6001 118.8Z" fill="url(#paint1_radial_169_4849)" style=""/>
<path d="M111.49 29.67C116.82 38.27 119.6 48.51 119.6 59.9C119.6 76.8 113.5 91.1 102 101.3C91.4002 110.6 77.0002 115.8 61.6002 115.8C43.5402 115.8 24.6002 108.45 13.4202 92.86C24.1802 110.52 44.4202 118.8 63.6002 118.8C79.0002 118.8 93.4002 113.6 104 104.3C115.5 94.1001 121.6 79.8 121.6 62.9C121.6 50.16 118.13 38.84 111.49 29.67Z" fill="#EB8F00" style="fill:#EB8F00;fill:color(display-p3 0.9216 0.5608 0.0000);fill-opacity:1;"/>
<path d="M111.49 29.67C116.82 38.27 119.6 48.51 119.6 59.9C119.6 76.8 113.5 91.1 102 101.3C91.4002 110.6 77.0002 115.8 61.6002 115.8C43.5402 115.8 24.6002 108.45 13.4202 92.86C24.1802 110.52 44.4202 118.8 63.6002 118.8C79.0002 118.8 93.4002 113.6 104 104.3C115.5 94.1001 121.6 79.8 121.6 62.9C121.6 50.16 118.13 38.84 111.49 29.67Z" fill="#F3B872" style="fill:#F3B872;fill:color(display-p3 0.9542 0.7229 0.4453);fill-opacity:1;"/>
<path d="M95.92 17.1301L87.86 27.8301C87.46 28.3501 86.84 28.6501 86.18 28.6201L72.8 28.0501C71.7 28.0001 70.76 28.8601 70.71 29.9601C70.69 30.4001 70.82 30.8301 71.07 31.1901L78.76 42.1901C79.13 42.7201 79.22 43.3901 79 44.0001L74.32 56.5601C73.94 57.6001 74.47 58.7501 75.5 59.1301C75.91 59.2801 76.35 59.2901 76.77 59.1701L89.58 55.2501C90.21 55.0601 90.89 55.1901 91.41 55.6001L101.9 63.9301C102.77 64.6101 104.02 64.4701 104.71 63.6001C104.98 63.2501 105.13 62.8301 105.14 62.3901L105.37 49.0001C105.38 48.3401 105.72 47.7301 106.27 47.3701L117.43 40.0001C118.35 39.3901 118.61 38.1501 118 37.2301C117.76 36.8601 117.4 36.5801 116.98 36.4401L104.31 32.0801C103.67 31.8701 103.18 31.3501 103 30.7001L99.44 17.7901C99.14 16.7301 98.03 16.1101 96.97 16.4101C96.55 16.5301 96.18 16.7801 95.92 17.1301Z" fill="url(#paint2_radial_169_4849)" style=""/>
<path d="M99.81 16.8901L102.81 30.8101C103.04 31.8801 103.83 32.7401 104.88 33.0501L118.26 37.0501C119.26 37.4101 119.78 38.5101 119.42 39.5101C119.28 39.9101 119.01 40.2401 118.65 40.4701L106.65 46.9901C105.64 47.5001 105 48.5401 105 49.6701L105.12 64.2601C105.09 65.3101 104.21 66.1401 103.15 66.1101C102.73 66.1001 102.32 65.9501 102 65.6801L91.52 56.2701C90.71 55.5301 89.56 55.3001 88.52 55.6601L75.22 60.1901C74.2 60.4801 73.14 59.8901 72.84 58.8701C72.72 58.4701 72.74 58.0401 72.9 57.6501L78.76 44.2801C79.2 43.2601 79.05 42.0901 78.36 41.2201L69.85 30.4901C69.26 29.6001 69.5 28.4101 70.38 27.8101C70.72 27.5801 71.13 27.4701 71.55 27.4901L85.44 29.0701C86.53 29.1901 87.59 28.7101 88.22 27.8201L96.44 16.2001C97.09 15.3601 98.3 15.2101 99.13 15.8701C99.47 16.1301 99.7 16.4801 99.81 16.8901Z" fill="#F44336" style="fill:#F44336;fill:color(display-p3 0.9569 0.2627 0.2118);fill-opacity:1;"/>
<path d="M96.63 30.34L97.63 20.74C97.7 20.21 97.78 19.29 98.63 19.46C99.3 19.6 99.37 21.05 99.37 21.05L100.67 29.19C101.15 32.28 100.51 33.19 99.35 33.55C98 34 96.35 33.09 96.63 30.34Z" fill="#FF847A" style="fill:#FF847A;fill:color(display-p3 1.0000 0.5176 0.4784);fill-opacity:1;"/>
<path d="M105.65 46L115.12 41.31C115.59 41.05 116.43 40.66 115.98 39.93C115.61 39.36 114.22 39.79 114.22 39.79L106.51 41.12C104.23 41.42 102.59 42.22 102.18 43.57C101.65 45.31 103 47.06 105.65 46Z" fill="#C62828" style="fill:#C62828;fill:color(display-p3 0.7765 0.1569 0.1569);fill-opacity:1;"/>
<path d="M32.5 14.5L40.5 26.24C41.12 27.14 42.17 27.63 43.26 27.53L57.18 26.16C58.24 26.13 59.13 26.96 59.16 28.02C59.17 28.43 59.06 28.83 58.83 29.16L50.2 39.79C49.5 40.65 49.33 41.82 49.76 42.84L55.41 56.29C55.78 57.28 55.28 58.39 54.29 58.76C53.89 58.91 53.46 58.92 53.05 58.8L39.78 54.07C38.75 53.7 37.6 53.91 36.78 54.63L26.2 63.88C25.38 64.54 24.18 64.41 23.51 63.59C23.24 63.26 23.09 62.84 23.09 62.42L23.42 47.83C23.45 46.72 22.86 45.7 21.9 45.15L10 38.45C9.10002 37.91 8.80002 36.73 9.35002 35.83C9.58002 35.44 9.95002 35.14 10.38 35L23.83 31.18C24.87 30.89 25.67 30.05 25.93 29L29.12 15.13C29.41 14.11 30.47 13.52 31.49 13.81C31.89 13.92 32.25 14.17 32.5 14.5Z" fill="#F44336" style="fill:#F44336;fill:color(display-p3 0.9569 0.2627 0.2118);fill-opacity:1;"/>
<path d="M34.66 28.1501L31.92 18.8901C31.79 18.3701 31.51 17.4901 32.35 17.3301C33.02 17.2001 33.65 18.5201 33.65 18.5201L37.93 25.5201C39.56 28.2001 39.3 29.2701 38.37 30.0501C37.44 30.8301 35.44 30.8001 34.66 28.1501Z" fill="#FF847A" style="fill:#FF847A;fill:color(display-p3 1.0000 0.5176 0.4784);fill-opacity:1;"/>
<path d="M48.9401 39.1601L55.9401 31.2201C56.2801 30.8101 56.9401 30.1301 56.2001 29.6301C55.6501 29.2301 54.5301 30.1601 54.5301 30.1601L47.9001 34.3201C45.9001 35.4601 44.6901 36.8201 44.8301 38.2301C45.0001 40.0901 46.9001 41.1901 48.9401 39.1601Z" fill="#C62828" style="fill:#C62828;fill:color(display-p3 0.7765 0.1569 0.1569);fill-opacity:1;"/>
<path d="M102.07 71.62C100.67 69.09 97.6301 67.98 94.9301 69C84.6701 71.99 74.0301 73.48 63.3401 73.43C52.6501 73.48 42.0101 71.99 31.7501 69C29.0601 67.98 26.0201 69.08 24.6201 71.6C23.2601 74.11 24.2401 77.02 25.3901 79.53C31.8101 93.63 45.9601 102.07 63.2601 102.12H63.4201C80.7201 102.12 94.8701 93.63 101.3 79.53C102.44 77 103.43 74.13 102.07 71.62Z" fill="#312D2D" style="fill:#312D2D;fill:color(display-p3 0.1922 0.1765 0.1765);fill-opacity:1;"/>
<path d="M79.35 98.14C78.98 97.8 78.6 97.49 78.22 97.14C74.14 93.55 68.86 91.62 63.42 91.73C57.82 91.64 52.37 93.5 48 97C47.62 97.31 47.22 97.61 46.85 98C46.48 98.39 46.28 98.67 46.04 99C51.54 101.15 57.4 102.25 63.31 102.22H63.47C69.13 102.22 74.74 101.21 80.04 99.22C79.84 98.84 79.61 98.48 79.35 98.14Z" fill="#ED7770" style="fill:#ED7770;fill:color(display-p3 0.9294 0.4667 0.4392);fill-opacity:1;"/>
<path d="M94.9299 69C84.6699 71.99 74.0299 73.48 63.3399 73.43C52.6499 73.48 42.0099 71.99 31.7499 69C29.0599 67.98 26.0199 69.08 24.6199 71.6C24.4199 71.98 24.2599 72.38 24.1599 72.79C24.4899 72.96 24.8699 73.13 25.3199 73.31C37.3599 79.34 50.6699 82.4 64.1299 82.24C77.0399 82.39 89.7999 79.58 101.46 74.04C101.93 73.84 102.32 73.65 102.67 73.47C102.59 72.82 102.38 72.18 102.07 71.6C100.67 69.08 97.6299 67.97 94.9299 69Z" fill="white" style="fill:white;fill-opacity:1;"/>
<path d="M102.11 71.63C100.69 69.1 97.6401 67.98 94.9201 69C84.6601 71.99 74.0201 73.48 63.3401 73.43C52.6501 73.48 42.0101 71.99 31.7501 69C29.0601 67.98 26.0201 69.08 24.6201 71.6C23.2601 74.11 24.2401 77.02 25.3901 79.53C25.9001 80.66 26.4701 81.77 27.1001 82.84C27.1001 82.84 25.0001 75.06 26.8201 72.8C27.4401 71.84 28.4801 71.24 29.6201 71.18C30.0901 71.18 30.5501 71.26 31.0001 71.4C41.4401 74.47 52.2701 76.02 63.1601 76H63.5101C74.4001 76.02 85.2301 74.47 95.6701 71.4C96.1201 71.26 96.5801 71.18 97.0501 71.18C98.1901 71.24 99.2401 71.84 99.8601 72.8C101.71 75.06 99.5801 82.87 99.5801 82.87C100.2 81.8 100.82 80.7 101.34 79.56C102.48 77.05 103.47 74.15 102.11 71.63Z" fill="#EB8F00" style="fill:#EB8F00;fill:color(display-p3 0.9216 0.5608 0.0000);fill-opacity:1;"/>
<path d="M102.11 71.63C100.69 69.1 97.6401 67.98 94.9201 69C84.6601 71.99 74.0201 73.48 63.3401 73.43C52.6501 73.48 42.0101 71.99 31.7501 69C29.0601 67.98 26.0201 69.08 24.6201 71.6C23.2601 74.11 24.2401 77.02 25.3901 79.53C25.9001 80.66 26.4701 81.77 27.1001 82.84C27.1001 82.84 25.0001 75.06 26.8201 72.8C27.4401 71.84 28.4801 71.24 29.6201 71.18C30.0901 71.18 30.5501 71.26 31.0001 71.4C41.4401 74.47 52.2701 76.02 63.1601 76H63.5101C74.4001 76.02 85.2301 74.47 95.6701 71.4C96.1201 71.26 96.5801 71.18 97.0501 71.18C98.1901 71.24 99.2401 71.84 99.8601 72.8C101.71 75.06 99.5801 82.87 99.5801 82.87C100.2 81.8 100.82 80.7 101.34 79.56C102.48 77.05 103.47 74.15 102.11 71.63Z" fill="#F3B871" style="fill:#F3B871;fill:color(display-p3 0.9529 0.7216 0.4431);fill-opacity:1;"/>
<defs>
<radialGradient id="paint0_radial_169_4849" cx="0" cy="0" r="1" gradientUnits="userSpaceOnUse" gradientTransform="translate(63.6001 62.9) scale(56.9597 56.9597)">
<stop offset="0.5" stop-color="#FDE030" style="stop-color:#FDE030;stop-color:color(display-p3 0.9922 0.8784 0.1882);stop-opacity:1;"/>
<stop offset="0.92" stop-color="#F7C02B" style="stop-color:#F7C02B;stop-color:color(display-p3 0.9686 0.7529 0.1686);stop-opacity:1;"/>
<stop offset="1" stop-color="#F4A223" style="stop-color:#F4A223;stop-color:color(display-p3 0.9569 0.6353 0.1373);stop-opacity:1;"/>
</radialGradient>
<radialGradient id="paint1_radial_169_4849" cx="0" cy="0" r="1" gradientUnits="userSpaceOnUse" gradientTransform="translate(38.5991 34.5377) rotate(-43.2082) scale(102.024 101.825)">
<stop offset="0.3533" stop-color="#F9DDBD" style="stop-color:#F9DDBD;stop-color:color(display-p3 0.9765 0.8667 0.7412);stop-opacity:1;"/>
<stop offset="0.8723" stop-color="#FFD29C" style="stop-color:#FFD29C;stop-color:color(display-p3 1.0000 0.8235 0.6118);stop-opacity:1;"/>
</radialGradient>
<radialGradient id="paint2_radial_169_4849" cx="0" cy="0" r="1" gradientUnits="userSpaceOnUse" gradientTransform="translate(94.5202 40.3481) scale(23.9109 23.9109)">
<stop offset="0.2" stop-color="#FF4081" style="stop-color:#FF4081;stop-color:color(display-p3 1.0000 0.2510 0.5059);stop-opacity:1;"/>
<stop offset="0.88" stop-color="#CC1775" style="stop-color:#CC1775;stop-color:color(display-p3 0.8000 0.0902 0.4588);stop-opacity:1;"/>
</radialGradient>
</defs>
</svg>
