<svg width="128" height="128" viewBox="0 0 128 128" fill="none" xmlns="http://www.w3.org/2000/svg">
<path d="M23.9902 19.4657C23.9902 19.4657 24.9602 12.8757 26.2202 10.2357C27.4802 7.59569 29.4602 4.81569 33.2602 4.07569C37.7902 3.19569 90.3102 3.65569 93.9502 3.88569C97.6202 4.12569 100.03 5.27569 101.41 7.53569C102.46 9.26569 102.83 11.3757 103.32 14.5057C103.58 16.1557 104.12 20.6757 104.12 20.6757L23.9902 19.4657Z" fill="#FFA828" style="fill:#FFA828;fill:color(display-p3 1.0000 0.6588 0.1569);fill-opacity:1;"/>
<path d="M50.6302 37.3156L22.4702 32.6356C22.4702 32.6356 23.0602 20.9856 24.2802 17.9356C25.5002 14.8856 27.0102 13.0656 31.4402 12.3056C35.8702 11.5456 46.9702 11.8556 63.6202 11.7056C80.2702 11.5556 94.9302 12.5656 97.5302 12.7156C100.13 12.8656 102.57 14.1456 103.33 16.5856C104.09 19.0256 104.46 22.3256 105.01 28.1956C105.21 30.3256 105.03 34.3556 105.03 34.3556L72.7602 36.5556L50.6302 37.3156Z" fill="#F1EDEC" style="fill:#F1EDEC;fill:color(display-p3 0.9451 0.9294 0.9255);fill-opacity:1;"/>
<path d="M22.2302 35.6857C22.4202 32.6357 22.4802 29.3357 24.8002 27.3657C26.7902 25.6857 30.1502 25.9957 34.1202 25.8357C37.7902 25.6957 47.1002 25.7757 64.6702 25.7757C82.2402 25.7757 97.0302 26.0357 99.7802 26.0357C102.53 26.0357 104.87 28.1857 105.17 30.1757C105.48 32.1657 104.1 116.326 103.95 118.156C103.8 119.986 103.19 123.656 99.2102 123.956C95.2402 124.266 32.7702 124.266 30.1702 123.956C27.5702 123.646 25.2802 121.356 24.8202 117.086C24.3602 112.816 22.0702 38.1257 22.2302 35.6857Z" fill="#D8CDC9" style="fill:#D8CDC9;fill:color(display-p3 0.8471 0.8039 0.7882);fill-opacity:1;"/>
<path d="M29.61 50.0259C31.91 50.3259 33.82 40.4159 36.82 38.1059C39.82 35.8059 45.43 34.5959 45.43 32.2959C45.43 31.1459 41.79 31.1559 38.42 31.1959C35.05 31.2359 32.15 30.9559 30.51 32.6959C28.71 34.5959 28.53 37.6459 28.41 40.7059C28.2 45.6159 28.19 49.8359 29.61 50.0259Z" fill="#F1EDEC" style="fill:#F1EDEC;fill:color(display-p3 0.9451 0.9294 0.9255);fill-opacity:1;"/>
<path d="M79.3398 117.656C79.3398 119.336 80.5698 119.886 87.2198 119.656C92.8398 119.466 95.6198 118.756 97.2898 116.746C98.9598 114.746 99.4198 110.546 99.4898 105.506C99.5298 102.016 99.4398 98.6562 97.6798 98.6562C95.1598 98.6562 95.1699 104.406 93.1599 107.636C89.2199 113.976 79.3398 115.416 79.3398 117.656Z" fill="#F1EDEC" style="fill:#F1EDEC;fill:color(display-p3 0.9451 0.9294 0.9255);fill-opacity:1;"/>
<path d="M94.0067 96.6203L94.021 96.6327L94.0356 96.6447C96.96 99.0475 98.3259 101.834 98.3259 105.067C98.3259 108.515 96.9094 111.393 93.926 113.783C90.994 116.13 87.4471 117.327 83.203 117.327C78.7924 117.327 75.1746 116.096 72.2535 113.699C69.3299 111.232 67.956 108.376 67.9561 105.067V105.067C67.956 101.76 69.3272 98.944 72.2392 96.5486C75.2545 94.1358 78.8825 92.9087 83.203 92.9087C87.6082 92.9087 91.1732 94.1697 94.0067 96.6203Z" stroke="#426FE4" style="stroke:#426FE4;stroke:color(display-p3 0.2588 0.4353 0.8941);stroke-opacity:1;" stroke-width="3"/>
<path d="M94.0067 96.6203L94.021 96.6327L94.0356 96.6447C96.96 99.0475 98.3259 101.834 98.3259 105.067C98.3259 108.515 96.9094 111.393 93.926 113.783C90.994 116.13 87.4471 117.327 83.203 117.327C78.7924 117.327 75.1746 116.096 72.2535 113.699C69.3299 111.232 67.956 108.376 67.9561 105.067V105.067C67.956 101.76 69.3272 98.944 72.2392 96.5486C75.2545 94.1358 78.8825 92.9087 83.203 92.9087C87.6082 92.9087 91.1732 94.1697 94.0067 96.6203Z" stroke="#DF0B26" style="stroke:#DF0B26;stroke:color(display-p3 0.8745 0.0431 0.1490);stroke-opacity:1;" stroke-width="3"/>
<path d="M85.6616 105.026C85.6616 105.896 84.7256 106.919 83.1406 106.919C81.5556 106.919 80.6196 105.896 80.6196 105.026C80.6196 104.155 81.5556 103.133 83.1406 103.133C84.7256 103.133 85.6616 104.155 85.6616 105.026Z" fill="#DF0B26" stroke="#DF0B26" style="fill:#DF0B26;fill:color(display-p3 0.8745 0.0431 0.1490);fill-opacity:1;stroke:#DF0B26;stroke:color(display-p3 0.8745 0.0431 0.1490);stroke-opacity:1;" stroke-width="2"/>
<path d="M55.5506 96.5939L55.565 96.6063L55.5796 96.6183C58.504 99.0212 59.8698 101.808 59.8699 105.04C59.8698 108.488 58.4534 111.366 55.47 113.756C52.5379 116.104 48.9911 117.3 44.747 117.3C40.3363 117.3 36.7186 116.069 33.7975 113.672C30.8739 111.206 29.5 108.349 29.5 105.04V105.04C29.5 101.734 30.8712 98.9176 33.7831 96.5223C36.7984 94.1094 40.4264 92.8824 44.7469 92.8823C49.1522 92.8824 52.7172 94.1434 55.5506 96.5939Z" stroke="#40A940" style="stroke:#40A940;stroke:color(display-p3 0.2512 0.6625 0.2512);stroke-opacity:1;" stroke-width="3"/>
<path d="M55.5506 96.5939L55.565 96.6063L55.5796 96.6183C58.504 99.0212 59.8698 101.808 59.8699 105.04C59.8698 108.488 58.4534 111.366 55.47 113.756C52.5379 116.104 48.9911 117.3 44.747 117.3C40.3363 117.3 36.7186 116.069 33.7975 113.672C30.8739 111.206 29.5 108.349 29.5 105.04V105.04C29.5 101.734 30.8712 98.9176 33.7831 96.5223C36.7984 94.1094 40.4264 92.8824 44.7469 92.8823C49.1522 92.8824 52.7172 94.1434 55.5506 96.5939Z" stroke="#DF0B26" style="stroke:#DF0B26;stroke:color(display-p3 0.8745 0.0431 0.1490);stroke-opacity:1;" stroke-width="3"/>
<path d="M47.0945 105.118C47.0945 105.938 46.2084 106.919 44.6849 106.919C43.1615 106.919 42.2754 105.938 42.2754 105.118C42.2754 104.298 43.1615 103.316 44.6849 103.316C46.2084 103.316 47.0945 104.298 47.0945 105.118Z" fill="#40A940" style="fill:#40A940;fill:color(display-p3 0.2512 0.6625 0.2512);fill-opacity:1;"/>
<path d="M47.0945 105.118C47.0945 105.938 46.2084 106.919 44.6849 106.919C43.1615 106.919 42.2754 105.938 42.2754 105.118C42.2754 104.298 43.1615 103.316 44.6849 103.316C46.2084 103.316 47.0945 104.298 47.0945 105.118Z" fill="#DF0B26" style="fill:#DF0B26;fill:color(display-p3 0.8745 0.0431 0.1490);fill-opacity:1;"/>
<path d="M47.0945 105.118C47.0945 105.938 46.2084 106.919 44.6849 106.919C43.1615 106.919 42.2754 105.938 42.2754 105.118C42.2754 104.298 43.1615 103.316 44.6849 103.316C46.2084 103.316 47.0945 104.298 47.0945 105.118Z" stroke="#DF0B26" style="stroke:#DF0B26;stroke:color(display-p3 0.8745 0.0431 0.1490);stroke-opacity:1;" stroke-width="2"/>
<path d="M94.1086 66.3318L94.1231 66.3438L94.1378 66.3555C97.1225 68.7258 98.4999 71.4611 98.5 74.6158C98.4999 77.9827 97.071 80.808 94.0263 83.1656C91.0331 85.4815 87.4058 86.666 83.0632 86.666C78.5511 86.666 74.8514 85.4479 71.8694 83.0826C68.8862 80.6501 67.5 77.8467 67.5 74.6158V74.6158C67.5 71.3877 68.8832 68.6235 71.855 66.2609C74.9329 63.8804 78.6428 62.6661 83.0632 62.666C87.5705 62.6661 91.2165 63.9143 94.1086 66.3318Z" stroke="#40A940" style="stroke:#40A940;stroke:color(display-p3 0.2512 0.6625 0.2512);stroke-opacity:1;" stroke-width="3"/>
<path d="M94.1086 66.3318L94.1231 66.3438L94.1378 66.3555C97.1225 68.7258 98.4999 71.4611 98.5 74.6158C98.4999 77.9827 97.071 80.808 94.0263 83.1656C91.0331 85.4815 87.4058 86.666 83.0632 86.666C78.5511 86.666 74.8514 85.4479 71.8694 83.0826C68.8862 80.6501 67.5 77.8467 67.5 74.6158V74.6158C67.5 71.3877 68.8832 68.6235 71.855 66.2609C74.9329 63.8804 78.6428 62.6661 83.0632 62.666C87.5705 62.6661 91.2165 63.9143 94.1086 66.3318Z" stroke="#DF0B26" style="stroke:#DF0B26;stroke:color(display-p3 0.8745 0.0431 0.1490);stroke-opacity:1;" stroke-width="3"/>
<circle cx="83.5" cy="74.666" r="2.5" fill="#40A940" style="fill:#40A940;fill:color(display-p3 0.2512 0.6625 0.2512);fill-opacity:1;"/>
<circle cx="83.5" cy="74.666" r="2.5" fill="#DF0B26" style="fill:#DF0B26;fill:color(display-p3 0.8745 0.0431 0.1490);fill-opacity:1;"/>
<circle cx="83.5" cy="74.666" r="2.5" stroke="#40A940" style="stroke:#40A940;stroke:color(display-p3 0.2512 0.6625 0.2512);stroke-opacity:1;" stroke-width="2"/>
<circle cx="83.5" cy="74.666" r="2.5" stroke="#DF0B26" style="stroke:#DF0B26;stroke:color(display-p3 0.8745 0.0431 0.1490);stroke-opacity:1;" stroke-width="2"/>
<circle cx="83.5" cy="74.666" r="2.5" stroke="#DF0B26" style="stroke:#DF0B26;stroke:color(display-p3 0.8745 0.0431 0.1490);stroke-opacity:1;" stroke-width="2"/>
<path d="M55.2368 66.3175L55.2511 66.3298L55.2657 66.3418C58.1542 68.7052 59.4999 71.443 59.5 74.6158C59.4999 78.001 58.1041 80.8287 55.1575 83.1793C52.2612 85.4881 48.7566 86.666 44.5613 86.666C40.2014 86.666 36.6267 85.4544 33.7414 83.0965C30.8538 80.6705 29.5 77.8643 29.5 74.6158V74.6158C29.5 71.3699 30.8511 68.6032 33.7271 66.2473C36.7057 63.8739 40.2906 62.6661 44.5613 62.666C48.9159 62.6661 52.4382 63.9074 55.2368 66.3175Z" stroke="#426FE4" style="stroke:#426FE4;stroke:color(display-p3 0.2588 0.4353 0.8941);stroke-opacity:1;" stroke-width="3"/>
<path d="M55.2368 66.3175L55.2511 66.3298L55.2657 66.3418C58.1542 68.7052 59.4999 71.443 59.5 74.6158C59.4999 78.001 58.1041 80.8287 55.1575 83.1793C52.2612 85.4881 48.7566 86.666 44.5613 86.666C40.2014 86.666 36.6267 85.4544 33.7414 83.0965C30.8538 80.6705 29.5 77.8643 29.5 74.6158V74.6158C29.5 71.3699 30.8511 68.6032 33.7271 66.2473C36.7057 63.8739 40.2906 62.6661 44.5613 62.666C48.9159 62.6661 52.4382 63.9074 55.2368 66.3175Z" stroke="#DF0B26" style="stroke:#DF0B26;stroke:color(display-p3 0.8745 0.0431 0.1490);stroke-opacity:1;" stroke-width="3"/>
<path d="M47 74.666C47 74.9496 46.8408 75.3007 46.3936 75.62C45.9484 75.9381 45.2821 76.166 44.5 76.166C43.7179 76.166 43.0516 75.9381 42.6064 75.62C42.1592 75.3007 42 74.9496 42 74.666C42 74.3824 42.1592 74.0314 42.6064 73.712C43.0516 73.394 43.7179 73.166 44.5 73.166C45.2821 73.166 45.9484 73.394 46.3936 73.712C46.8408 74.0314 47 74.3824 47 74.666Z" fill="#426FE4" style="fill:#426FE4;fill:color(display-p3 0.2588 0.4353 0.8941);fill-opacity:1;"/>
<path d="M47 74.666C47 74.9496 46.8408 75.3007 46.3936 75.62C45.9484 75.9381 45.2821 76.166 44.5 76.166C43.7179 76.166 43.0516 75.9381 42.6064 75.62C42.1592 75.3007 42 74.9496 42 74.666C42 74.3824 42.1592 74.0314 42.6064 73.712C43.0516 73.394 43.7179 73.166 44.5 73.166C45.2821 73.166 45.9484 73.394 46.3936 73.712C46.8408 74.0314 47 74.3824 47 74.666Z" fill="#DF0B26" style="fill:#DF0B26;fill:color(display-p3 0.8745 0.0431 0.1490);fill-opacity:1;"/>
<path d="M47 74.666C47 74.9496 46.8408 75.3007 46.3936 75.62C45.9484 75.9381 45.2821 76.166 44.5 76.166C43.7179 76.166 43.0516 75.9381 42.6064 75.62C42.1592 75.3007 42 74.9496 42 74.666C42 74.3824 42.1592 74.0314 42.6064 73.712C43.0516 73.394 43.7179 73.166 44.5 73.166C45.2821 73.166 45.9484 73.394 46.3936 73.712C46.8408 74.0314 47 74.3824 47 74.666Z" stroke="#DF0B26" style="stroke:#DF0B26;stroke:color(display-p3 0.8745 0.0431 0.1490);stroke-opacity:1;" stroke-width="2"/>
<path d="M94.1086 36.3318L94.1231 36.3438L94.1378 36.3555C97.1225 38.7258 98.4999 41.4611 98.5 44.6158C98.4999 47.9827 97.071 50.808 94.0263 53.1656C91.0331 55.4815 87.4058 56.666 83.0632 56.666C78.5511 56.666 74.8514 55.4479 71.8694 53.0826C68.8862 50.6501 67.5 47.8467 67.5 44.6158V44.6158C67.5 41.3877 68.8832 38.6235 71.855 36.2609C74.9329 33.8804 78.6428 32.6661 83.0632 32.666C87.5705 32.6661 91.2165 33.9143 94.1086 36.3318Z" stroke="#40A940" style="stroke:#40A940;stroke:color(display-p3 0.2512 0.6625 0.2512);stroke-opacity:1;" stroke-width="3"/>
<circle cx="83.5" cy="44.666" r="2.5" fill="#40A940" stroke="#40A940" style="fill:#40A940;fill:color(display-p3 0.2512 0.6625 0.2512);fill-opacity:1;stroke:#40A940;stroke:color(display-p3 0.2512 0.6625 0.2512);stroke-opacity:1;" stroke-width="2"/>
<path d="M55.2368 36.3175L55.2511 36.3298L55.2657 36.3418C58.1542 38.7052 59.4999 41.443 59.5 44.6158C59.4999 48.001 58.1041 50.8287 55.1575 53.1793C52.2612 55.4881 48.7566 56.666 44.5613 56.666C40.2014 56.666 36.6267 55.4544 33.7414 53.0965C30.8538 50.6705 29.5 47.8643 29.5 44.6158V44.6158C29.5 41.3699 30.8511 38.6032 33.7271 36.2473C36.7057 33.8739 40.2906 32.6661 44.5613 32.666C48.9159 32.6661 52.4382 33.9074 55.2368 36.3175Z" stroke="#426FE4" style="stroke:#426FE4;stroke:color(display-p3 0.2588 0.4353 0.8941);stroke-opacity:1;" stroke-width="3"/>
<path d="M55.2368 36.3175L55.2511 36.3298L55.2657 36.3418C58.1542 38.7052 59.4999 41.443 59.5 44.6158C59.4999 48.001 58.1041 50.8287 55.1575 53.1793C52.2612 55.4881 48.7566 56.666 44.5613 56.666C40.2014 56.666 36.6267 55.4544 33.7414 53.0965C30.8538 50.6705 29.5 47.8643 29.5 44.6158V44.6158C29.5 41.3699 30.8511 38.6032 33.7271 36.2473C36.7057 33.8739 40.2906 32.6661 44.5613 32.666C48.9159 32.6661 52.4382 33.9074 55.2368 36.3175Z" stroke="#40A940" style="stroke:#40A940;stroke:color(display-p3 0.2512 0.6625 0.2512);stroke-opacity:1;" stroke-width="3"/>
<path d="M47 44.666C47 44.9496 46.8408 45.3007 46.3936 45.62C45.9484 45.9381 45.2821 46.166 44.5 46.166C43.7179 46.166 43.0516 45.9381 42.6064 45.62C42.1592 45.3007 42 44.9496 42 44.666C42 44.3824 42.1592 44.0314 42.6064 43.712C43.0516 43.394 43.7179 43.166 44.5 43.166C45.2821 43.166 45.9484 43.394 46.3936 43.712C46.8408 44.0314 47 44.3824 47 44.666Z" fill="#40A940" stroke="#40A940" style="fill:#40A940;fill:color(display-p3 0.2512 0.6625 0.2512);fill-opacity:1;stroke:#40A940;stroke:color(display-p3 0.2512 0.6625 0.2512);stroke-opacity:1;" stroke-width="2"/>
</svg>
