<svg width="128" height="128" viewBox="0 0 128 128" fill="none" xmlns="http://www.w3.org/2000/svg">
<path d="M123.997 64C123.997 71.8793 122.446 79.6815 119.43 86.961C116.415 94.2405 111.996 100.855 106.425 106.426C100.853 111.998 94.2392 116.417 86.96 119.433C79.6807 122.448 71.8789 124 63.9999 124C56.121 124 48.3191 122.448 41.0399 119.433C33.7607 116.417 27.1466 111.998 21.5753 106.426C16.004 100.855 11.5846 94.2405 8.56947 86.961C5.55431 79.6815 4.00244 71.8793 4.00244 64C4.00244 56.1207 5.55431 48.3186 8.56947 41.039C11.5846 33.7595 16.004 27.1452 21.5753 21.5736C27.1466 16.0021 33.7607 11.5826 41.0399 8.56729C48.3191 5.55201 56.121 4.00006 63.9999 4.00006C71.8789 4.00006 79.6807 5.55201 86.96 8.56729C94.2392 11.5826 100.853 16.0021 106.425 21.5736C111.996 27.1452 116.415 33.7595 119.43 41.039C122.446 48.3186 123.997 56.1207 123.997 64Z" fill="url(#paint0_linear_21_55)" style=""/>
<path d="M64 124C97.1371 124 124 97.1371 124 64C124 30.8629 97.1371 4 64 4C30.8629 4 4 30.8629 4 64C4 97.1371 30.8629 124 64 124Z" fill="#C62828" style="fill:#C62828;fill:color(display-p3 0.7765 0.1569 0.1569);fill-opacity:1;"/>
<path d="M60.1 119.2C91.0832 119.2 116.2 94.0832 116.2 63.1C116.2 32.1168 91.0832 7 60.1 7C29.1168 7 4 32.1168 4 63.1C4 94.0832 29.1168 119.2 60.1 119.2Z" fill="#EF5350" style="fill:#EF5350;fill:color(display-p3 0.9373 0.3255 0.3137);fill-opacity:1;"/>
<path d="M47.5272 38.7415V6.30958L33.8408 12.1408V62.4359L33.8831 62.4026C33.8561 62.9318 33.8408 63.464 33.8408 63.9998C33.8408 80.6568 47.3445 94.1602 64.0015 94.1602C80.6573 94.1602 94.161 80.6568 94.161 63.9998C94.161 47.3428 80.6573 33.8395 64.0015 33.8395C57.92 33.8395 52.2641 35.6458 47.5272 38.7415Z" fill="white" style="fill:white;fill-opacity:1;"/>
<path d="M82.2893 63.9997C82.2893 53.8988 74.1022 45.7109 64.0017 45.7109C53.9008 45.7109 45.7129 53.8988 45.7129 63.9997C45.7129 74.1003 53.9008 82.2885 64.0017 82.2885C74.1022 82.2885 82.2893 74.1003 82.2893 63.9997Z" fill="#F5464D" style="fill:#F5464D;fill:color(display-p3 0.9608 0.2745 0.3020);fill-opacity:1;"/>
<path opacity="0.3" d="M24.0003 29.7C28.5003 22.6 38.1003 16.7 48.1003 14.9C50.6003 14.5 53.1003 14.3 55.2003 15.1C56.8003 15.7 58.1003 17.2 57.2003 18.9C56.5003 20.3 54.6003 20.9 53.1003 21.4C43.8003 24.4 35.2003 27.8001 30.0003 35.7001C28.0003 38.7001 25.1003 50.1 21.4003 48C17.5003 45.7001 18.3003 38.5 24.0003 29.7Z" fill="white" style="fill:white;fill-opacity:1;"/>
<defs>
<linearGradient id="paint0_linear_21_55" x1="63.9999" y1="4.00006" x2="63.9999" y2="124" gradientUnits="userSpaceOnUse">
<stop stop-color="#F7DEDE" style="stop-color:#F7DEDE;stop-color:color(display-p3 0.9667 0.8700 0.8700);stop-opacity:1;"/>
<stop offset="1" stop-color="#FFFDFD" style="stop-color:#FFFDFD;stop-color:color(display-p3 1.0000 0.9917 0.9917);stop-opacity:1;"/>
</linearGradient>
</defs>
</svg>
