<svg width="128" height="128" viewBox="0 0 128 128" fill="none" xmlns="http://www.w3.org/2000/svg">
<circle cx="64" cy="64" r="60" fill="#4E433D" style="fill:#4E433D;fill:color(display-p3 0.3059 0.2627 0.2392);fill-opacity:1;"/>
<path d="M97 63.5C97 82.0015 82.0015 97 63.5 97C44.9985 97 30 82.0015 30 63.5C30 44.9985 44.9985 30 63.5 30C82.0015 30 97 44.9985 97 63.5Z" fill="#3D3631" style="fill:#3D3631;fill:color(display-p3 0.2375 0.2102 0.1920);fill-opacity:1;"/>
<path fill-rule="evenodd" clip-rule="evenodd" d="M63.5 93C79.7924 93 93 79.7924 93 63.5C93 47.2076 79.7924 34 63.5 34C47.2076 34 34 47.2076 34 63.5C34 79.7924 47.2076 93 63.5 93ZM63.5 97C82.0015 97 97 82.0015 97 63.5C97 44.9985 82.0015 30 63.5 30C44.9985 30 30 44.9985 30 63.5C30 82.0015 44.9985 97 63.5 97Z" fill="#B4B4B4" style="fill:#B4B4B4;fill:color(display-p3 0.7042 0.7042 0.7042);fill-opacity:1;"/>
<path fill-rule="evenodd" clip-rule="evenodd" d="M64 108C88.3005 108 108 88.3005 108 64C108 39.6995 88.3005 20 64 20C39.6995 20 20 39.6995 20 64C20 88.3005 39.6995 108 64 108ZM63.5 97C68.3903 97 73.0359 95.9521 77.2245 94.0687L64.5427 75.9571C64.1989 75.9855 63.8511 76 63.5 76C63.4758 76 63.4516 75.9999 63.4275 75.9998L50.5422 94.4019C54.5282 96.0753 58.9061 97 63.5 97ZM74.5564 69.3369L87.1103 87.2656C93.2183 81.1973 97 72.7903 97 63.5C97 61.989 96.9 60.5015 96.7062 59.0435L75.9519 64.6046C75.8032 66.302 75.3154 67.9022 74.5564 69.3369ZM71.0089 53.5057L93.0007 47.6131C88.3281 38.9547 79.955 32.5876 70 30.6302V52.8208C70.3478 53.033 70.6845 53.2616 71.0089 53.5057ZM58 52.2719V30.4493C47.6069 32.1659 38.8276 38.6663 33.9993 47.6131L55.9911 53.5057C56.6176 53.0343 57.2899 52.6204 58 52.2719ZM51.0481 64.6046L30.2938 59.0435C30.1 60.5015 30 61.989 30 63.5C30 73.0887 34.0285 81.7364 40.4854 87.8431L52.8951 70.1202C51.878 68.4944 51.2244 66.6179 51.0481 64.6046ZM68 63.5C68 65.9853 65.9853 68 63.5 68C61.0147 68 59 65.9853 59 63.5C59 61.0147 61.0147 59 63.5 59C65.9853 59 68 61.0147 68 63.5Z" fill="#D9D9D9" style="fill:#D9D9D9;fill:color(display-p3 0.8510 0.8510 0.8510);fill-opacity:1;"/>
<path d="M71 56.5C71 57.8807 69.8807 59 68.5 59C67.1193 59 66 57.8807 66 56.5C66 55.1193 67.1193 54 68.5 54C69.8807 54 71 55.1193 71 56.5Z" fill="#595959" style="fill:#595959;fill:color(display-p3 0.3500 0.3500 0.3500);fill-opacity:1;"/>
<path d="M58 65.5C58 66.8807 56.8807 68 55.5 68C54.1193 68 53 66.8807 53 65.5C53 64.1193 54.1193 63 55.5 63C56.8807 63 58 64.1193 58 65.5Z" fill="#595959" style="fill:#595959;fill:color(display-p3 0.3500 0.3500 0.3500);fill-opacity:1;"/>
<path d="M66 71.5C66 72.8807 64.8807 74 63.5 74C62.1193 74 61 72.8807 61 71.5C61 70.1193 62.1193 69 63.5 69C64.8807 69 66 70.1193 66 71.5Z" fill="#595959" style="fill:#595959;fill:color(display-p3 0.3500 0.3500 0.3500);fill-opacity:1;"/>
<path d="M71.5 68C72.8807 68 74 66.8807 74 65.5C74 64.1193 72.8807 63 71.5 63C70.1193 63 69 64.1193 69 65.5C69 66.8807 70.1193 68 71.5 68Z" fill="#595959" style="fill:#595959;fill:color(display-p3 0.3500 0.3500 0.3500);fill-opacity:1;"/>
<path d="M58.5 59C59.8807 59 61 57.8807 61 56.5C61 55.1193 59.8807 54 58.5 54C57.1193 54 56 55.1193 56 56.5C56 57.8807 57.1193 59 58.5 59Z" fill="#595959" style="fill:#595959;fill:color(display-p3 0.3500 0.3500 0.3500);fill-opacity:1;"/>
</svg>
