<svg width="128" height="128" viewBox="0 0 128 128" fill="none" xmlns="http://www.w3.org/2000/svg">
<path d="M119.47 119.01C120.45 119.1 121.09 120.06 120.82 121C120.49 122.19 119.82 123.4 118.06 123.82C116.22 124.26 115.26 123.78 114.18 123.63C113.11 123.48 108.94 123.97 105.98 123.8C103.02 123.63 99.1102 122.2 95.4902 122.39C91.8702 122.58 86.0302 123.69 82.8902 123.69C79.7402 123.69 76.5002 123.93 74.7902 122.32C73.4302 121.04 72.0202 118.35 72.9802 114.82C73.9402 111.29 74.8102 105.84 74.9002 104.31C75.3802 95.8101 73.5902 86.8301 73.0002 81.9801C72.4102 77.1301 69.1102 72.1701 68.6602 59.1401C68.2902 48.5501 72.5202 42.0601 72.5202 42.0601C72.5202 42.0601 72.1202 40.6301 67.7402 41.3401C63.3602 42.0501 30.8702 43.2901 15.7102 39.1701C4.42023 36.1001 3.12024 11.8301 18.8502 5.5001C33.2702 -0.299899 73.8502 12.5501 81.4802 14.6401C89.1102 16.7301 95.0802 18.1001 97.8402 27.9401C99.6102 34.2501 96.7502 42.9601 96.7502 42.9601L90.4802 94.2501C90.4802 94.2501 89.1202 102.67 93.1802 105.37C99.1002 109.31 106.22 114.42 111.12 116.97C111.91 117.38 113.51 118.36 115.91 118.64C117.15 118.79 118.47 118.92 119.47 119.01Z" fill="#FFCA28" style="fill:#FFCA28;fill:color(display-p3 1.0000 0.7922 0.1569);fill-opacity:1;"/>
<path d="M67.7302 41.3302C63.3502 42.0502 30.8602 43.2802 15.7002 39.1602C6.41016 35.2802 4.57017 20.8502 11.4702 20.6202C17.4802 20.4202 22.0102 26.3702 31.0202 28.8402C40.0302 31.3102 55.1002 32.1002 67.9202 35.4202C78.1602 38.0702 77.3602 40.1402 74.2402 47.1502C72.5002 51.0602 71.6002 62.7402 74.3002 69.5802C77.1702 77.0702 79.8502 85.5002 80.4102 93.6002C80.4102 103.61 78.6602 107.04 80.4102 113.52C81.0802 116 80.5102 116.02 81.3802 118.04C83.5502 121.46 88.9002 120.47 92.4202 121.2C89.9302 122.52 79.5402 123.87 77.2602 123.41C74.7602 122.87 73.2502 120.95 72.7802 118.74C72.5102 117.47 72.7102 116.12 72.9702 114.82C73.6902 111.16 74.5402 108.22 74.8002 105.01C76.5402 83.3502 61.9302 61.6402 72.5002 42.0502C72.5002 42.0502 72.7302 41.4902 72.1102 41.2202C71.4802 40.9402 69.9502 40.9702 67.7302 41.3302Z" fill="#FFB300" style="fill:#FFB300;fill:color(display-p3 1.0000 0.7020 0.0000);fill-opacity:1;"/>
<path d="M87.1402 37.2603C87.9102 37.7403 89.4502 38.2303 89.7902 37.6403C90.1302 37.0503 88.7402 36.2903 88.1402 35.5903C86.3702 33.5303 84.8002 31.8903 83.9702 29.2703C83.8702 28.9503 83.4002 27.6203 83.0402 27.4503C81.5002 26.7303 80.5602 28.4103 80.7702 29.9003C80.8602 30.7203 81.6002 31.8903 82.0702 32.5603C83.4902 34.6003 85.0402 35.9303 87.1402 37.2603Z" fill="#EDA600" style="fill:#EDA600;fill:color(display-p3 0.9294 0.6510 0.0000);fill-opacity:1;"/>
<path d="M83.4102 61.0999C84.3202 57.9399 84.7202 54.4999 84.1902 51.2199C84.0002 50.0599 83.4802 48.5099 82.3202 48.5899C81.6702 48.6399 81.2802 49.4899 81.1002 50.2599C80.7302 51.7999 80.6902 53.4299 80.6002 55.0399C80.3402 59.4899 79.8702 63.9599 78.5102 68.1299C77.9802 69.7699 78.6002 70.0899 78.9102 70.1299C80.2402 70.2899 82.6702 63.6499 83.4102 61.0999Z" fill="#EDA600" style="fill:#EDA600;fill:color(display-p3 0.9294 0.6510 0.0000);fill-opacity:1;"/>
<path d="M82.0701 115.11C82.6501 115.11 83.0401 114.65 82.5101 114.17C81.7201 113.45 80.8301 112.76 80.6801 109.88C80.6501 109.32 80.5301 108.41 79.8101 108.31C79.0901 108.21 78.8101 108.91 78.6801 109.58C78.4801 110.62 78.3001 111.71 79.4101 113.39C80.3301 114.76 81.4901 115.1 82.0701 115.11Z" fill="#EDA600" style="fill:#EDA600;fill:color(display-p3 0.9294 0.6510 0.0000);fill-opacity:1;"/>
<path d="M72.7905 118.72C72.7205 118.48 72.6405 117.88 72.8205 117.92C73.1305 117.99 74.5505 119.92 75.7005 120.48C80.6005 122.87 88.2105 121.01 93.0705 120.42C95.3305 120.11 97.7205 120.06 99.9005 120.74C103.54 122.02 107.54 122.99 111.42 122.33C112.11 122.2 112.79 122.01 113.49 122.03C114.82 122.08 116.08 122.85 117.33 123.07C118.09 123.2 119.36 122.72 119.61 122.6C119.86 122.48 119.84 122.87 119.68 123C118.82 123.75 117.61 124 116.61 124C115.34 124 114.69 123.58 113.57 123.59C111.99 123.59 108.35 123.94 105.98 123.79C103.03 123.62 99.0705 122.18 95.4905 122.38C90.8105 122.69 85.7905 123.69 81.5105 123.69C79.7005 123.69 77.4105 123.67 76.0305 123.12C74.1305 122.37 73.2305 120.87 72.7905 118.72Z" fill="#EDA600" style="fill:#EDA600;fill:color(display-p3 0.9294 0.6510 0.0000);fill-opacity:1;"/>
<path d="M8.39056 31.3203C26.6706 38.6903 50.2306 40.1303 65.6206 39.2203C67.6106 39.1003 72.5606 38.4303 73.6706 40.0403C75.0306 42.0203 71.1506 46.2103 70.1906 47.7903C70.4306 45.8503 71.3206 44.0103 72.2406 42.2903C72.7606 41.1703 70.5906 41.1603 69.9206 41.1303C58.0206 42.5703 28.1506 42.7003 15.7106 39.1603C11.9906 38.1703 9.42056 34.8303 8.39056 31.3203Z" fill="#EDA600" style="fill:#EDA600;fill:color(display-p3 0.9294 0.6510 0.0000);fill-opacity:1;"/>
</svg>
