<svg width="129" height="128" viewBox="0 0 129 128" fill="none" xmlns="http://www.w3.org/2000/svg">
<g filter="url(#filter0_i_911_479)">
<path fill-rule="evenodd" clip-rule="evenodd" d="M80.1904 34.7398V34.7103L80.1895 34.6801L80.1894 34.6789L80.1893 34.6732L80.1892 34.6716L80.1892 34.6698L80.1891 34.6679L80.189 34.6659L80.1889 34.6614L80.1888 34.6589L80.1887 34.6535L80.1886 34.6506L79.9904 27.931L79.9903 27.9281L79.9901 27.9227L79.9901 27.9203L79.9899 27.9157L79.9899 27.9137L79.9898 27.9118L79.9898 27.9101L79.9897 27.9085L79.9896 27.9038C79.928 25.6533 78.0424 23.9417 75.8468 24.0005L75.8433 24.0006C62.7739 24.3734 54.3986 28.2401 47.9037 35.7961L47.9028 35.797C41.13 43.6863 37.8604 54.4541 37.8604 67.8598V72.1098C37.8604 81.3849 40.2795 89.0874 45.2803 95.0278C50.3059 100.998 56.9149 103.99 64.9304 103.99C72.6575 103.99 79.0569 101.463 83.9411 96.3165C88.8133 91.1821 91.1804 84.5185 91.1804 76.5098C91.1804 68.8124 89.1705 62.3332 85.0074 57.2522C80.7768 52.0889 74.9824 49.5498 67.8503 49.5498C63.2502 49.5498 59.132 50.6151 55.5578 52.8152C56.722 48.9398 58.6442 45.8625 61.2829 43.5012C65.0108 40.1762 70.0744 38.3665 76.6777 38.2697C78.6059 38.2604 80.1904 36.697 80.1904 34.7398ZM61.4479 64.0113L61.4514 64.0105C63.9268 63.4508 65.9648 63.4913 67.6373 63.9987C69.287 64.4991 70.7153 65.4935 71.9351 67.0792L71.9366 67.0811C73.793 69.4885 74.8004 72.6946 74.8004 76.8798C74.8004 81.0708 73.8003 84.2406 71.992 86.5714C70.2335 88.8258 67.9106 89.9498 64.8004 89.9498C61.8215 89.9498 59.3933 88.6773 57.4098 85.8901L57.4075 85.8868C55.3977 83.0749 54.2904 79.13 54.2904 73.8498C54.2904 70.3058 56.0372 66.9865 58.966 65.2107C59.7057 64.7636 60.5307 64.3659 61.4396 64.0137L61.4415 64.0131L61.4479 64.0113Z" fill="#606265" style="fill:#606265;fill:color(display-p3 0.3765 0.3843 0.3961);fill-opacity:1;"/>
</g>
<defs>
<filter id="filter0_i_911_479" x="37.8604" y="23.999" width="53.3203" height="79.9908" filterUnits="userSpaceOnUse" color-interpolation-filters="sRGB">
<feFlood flood-opacity="0" result="BackgroundImageFix"/>
<feBlend mode="normal" in="SourceGraphic" in2="BackgroundImageFix" result="shape"/>
<feColorMatrix in="SourceAlpha" type="matrix" values="0 0 0 0 0 0 0 0 0 0 0 0 0 0 0 0 0 0 127 0" result="hardAlpha"/>
<feOffset dx="-3" dy="-5"/>
<feComposite in2="hardAlpha" operator="arithmetic" k2="-1" k3="1"/>
<feColorMatrix type="matrix" values="0 0 0 0 0 0 0 0 0 0 0 0 0 0 0 0 0 0 0.25 0"/>
<feBlend mode="normal" in2="shape" result="effect1_innerShadow_911_479"/>
</filter>
</defs>
</svg>
