<svg width="128" height="128" viewBox="0 0 128 128" fill="none" xmlns="http://www.w3.org/2000/svg">
<path d="M91.8864 109.549C91.8864 109.549 87.8564 107.949 85.8464 106.409C83.9664 104.969 82.2664 103.009 81.0964 101.969C80.3364 101.279 79.6664 100.969 79.0764 100.969C78.4764 100.969 77.9464 101.279 77.4964 101.829L74.9164 105.069C73.8364 106.849 74.7564 109.179 74.7564 109.179C74.7564 109.179 72.0564 112.039 76.5564 113.019C81.1664 114.029 86.6864 114.579 86.6864 114.579C86.9764 114.629 87.3264 114.659 87.7064 114.659C89.6064 114.659 92.3064 113.969 93.1664 111.999C93.1664 111.999 94.4564 110.569 91.8864 109.549Z" fill="#4568AC" style="fill:#4568AC;fill:color(display-p3 0.2706 0.4078 0.6745);fill-opacity:1;"/>
<path d="M74.5184 104.947L58.6465 103.506C58.6365 103.506 83.9674 104.439 81.1382 89.9844C81.1382 89.9844 65.0865 90.8912 58.6465 90.8912C58.6465 90.8912 34.9825 95.5415 34.5173 106.46C34.1101 116.019 50.2437 114.965 51.5516 114.965C52.6286 114.965 53.6176 114.965 54.8176 114.965C60.1376 114.965 67.6665 114.066 73.7865 113.346C76.1365 113.066 76.1984 106.037 74.5184 104.947Z" fill="#616161" style="fill:#616161;fill:color(display-p3 0.3804 0.3804 0.3804);fill-opacity:1;"/>
<path d="M72.585 40.4687C73.675 36.7487 74.275 32.1387 73.775 29.3687C73.665 28.7487 73.505 28.2087 73.285 27.7987C72.655 26.6887 71.815 25.6187 70.825 24.6587C70.805 24.6387 70.785 24.6187 70.765 24.6087C70.545 24.3887 70.315 24.1787 70.075 23.9787C70.035 23.9487 69.995 23.9087 69.955 23.8787C69.735 23.6887 69.515 23.5087 69.285 23.3387C69.235 23.2987 69.175 23.2587 69.125 23.2187C68.905 23.0487 68.675 22.8887 68.445 22.7387C68.385 22.6987 68.325 22.6587 68.265 22.6187C68.035 22.4687 67.795 22.3187 67.555 22.1787C67.495 22.1387 67.435 22.1087 67.375 22.0687C67.125 21.9287 66.875 21.7987 66.625 21.6687C66.575 21.6387 66.515 21.6087 66.465 21.5887C66.195 21.4587 65.915 21.3287 65.635 21.2087C65.605 21.1987 65.565 21.1787 65.535 21.1687C63.985 20.5287 62.365 20.1587 60.795 20.1587C60.755 20.1587 60.715 20.1687 60.685 20.1687C60.335 20.1687 59.995 20.1887 59.655 20.2287C53.915 20.9087 50.665 24.8787 49.615 30.0387C49.235 31.9087 49.205 33.7987 49.465 35.1387C49.495 35.2987 49.755 36.4787 49.765 36.8387C49.915 38.2487 47.135 39.5187 46.745 41.0587C46.455 42.2087 48.855 43.0687 49.035 43.2787C49.945 44.3687 48.205 49.2787 54.855 50.0787C57.415 50.3887 57.655 50.3187 58.455 50.4287C60.045 50.6587 59.575 57.1087 59.575 57.1087H59.585L71.105 54.7987C71.105 54.7987 69.575 47.3487 71.225 44.0987C71.715 43.1087 72.185 41.8487 72.585 40.4687Z" fill="#FFCA28" style="fill:#FFCA28;fill:color(display-p3 1.0000 0.7922 0.1569);fill-opacity:1;"/>
<path d="M49.585 46.1285C50.505 46.2185 51.435 46.0485 52.245 45.5085C53.125 44.9085 52.575 44.1785 51.575 44.5485C50.975 44.7785 50.135 44.8585 49.375 44.6785L49.585 46.1285Z" fill="#795548" style="fill:#795548;fill:color(display-p3 0.4745 0.3333 0.2824);fill-opacity:1;"/>
<path d="M55.0848 37.8458C55.0992 36.8076 54.5646 35.9584 53.8909 35.9491C53.2172 35.9398 52.6594 36.7739 52.6451 37.8121C52.6308 38.8503 53.1653 39.6994 53.839 39.7087C54.5127 39.718 55.0705 38.8839 55.0848 37.8458Z" fill="#404040" style="fill:#404040;fill:color(display-p3 0.2510 0.2510 0.2510);fill-opacity:1;"/>
<path d="M53.0357 35.0085C51.8157 35.2385 51.6157 34.4285 52.0757 33.8385C52.4157 33.3985 53.1757 33.0885 54.5357 33.4985C55.8157 33.8885 56.2857 34.6885 56.5857 35.1885C56.8857 35.6885 56.8057 36.1385 56.4957 36.1385C56.0757 36.1485 54.5457 34.7285 53.0357 35.0085Z" fill="#6D4C41" style="fill:#6D4C41;fill:color(display-p3 0.4275 0.2980 0.2549);fill-opacity:1;"/>
<path d="M72.585 40.4687C73.675 36.7487 74.275 32.1387 73.775 29.3687C73.665 28.7487 73.505 28.2087 73.285 27.7987C72.655 26.6887 71.815 25.6187 70.825 24.6587C70.805 24.6387 70.785 24.6187 70.765 24.6087C70.545 24.3887 70.315 24.1787 70.075 23.9787C70.035 23.9487 69.995 23.9087 69.955 23.8787C69.735 23.6887 69.515 23.5087 69.285 23.3387C69.235 23.2987 69.175 23.2587 69.125 23.2187C68.905 23.0487 68.675 22.8887 68.445 22.7387C68.385 22.6987 68.325 22.6587 68.265 22.6187C68.035 22.4687 67.795 22.3187 67.555 22.1787C67.495 22.1387 67.435 22.1087 67.375 22.0687C67.125 21.9287 66.875 21.7987 66.625 21.6687C66.575 21.6387 66.515 21.6087 66.465 21.5887C66.195 21.4587 65.915 21.3287 65.635 21.2087C65.605 21.1987 65.565 21.1787 65.535 21.1687C63.985 20.5287 62.365 20.1587 60.795 20.1587C60.755 20.1587 60.715 20.1687 60.685 20.1687C60.335 20.1687 59.995 20.1887 59.655 20.2287C53.915 20.9087 50.665 24.8787 49.615 30.0387C49.235 31.9087 49.205 33.7987 49.465 35.1387C49.495 35.2987 49.755 36.4787 49.765 36.8387C49.915 38.2487 47.135 39.5187 46.745 41.0587C46.455 42.2087 48.855 43.0687 49.035 43.2787C49.945 44.3687 48.205 49.2787 54.855 50.0787C57.415 50.3887 57.655 50.3187 58.455 50.4287C60.045 50.6587 59.575 57.1087 59.575 57.1087H59.585L71.105 54.7987C71.105 54.7987 69.575 47.3487 71.225 44.0987C71.715 43.1087 72.185 41.8487 72.585 40.4687Z" fill="#70534A" style="fill:#70534A;fill:color(display-p3 0.4392 0.3255 0.2902);fill-opacity:1;"/>
<path d="M72.585 40.4687C73.675 36.7487 74.275 32.1387 73.775 29.3687C73.665 28.7487 73.505 28.2087 73.285 27.7987C72.655 26.6887 71.815 25.6187 70.825 24.6587C70.805 24.6387 70.785 24.6187 70.765 24.6087C70.545 24.3887 70.315 24.1787 70.075 23.9787C70.035 23.9487 69.995 23.9087 69.955 23.8787C69.735 23.6887 69.515 23.5087 69.285 23.3387C69.235 23.2987 69.175 23.2587 69.125 23.2187C68.905 23.0487 68.675 22.8887 68.445 22.7387C68.385 22.6987 68.325 22.6587 68.265 22.6187C68.035 22.4687 67.795 22.3187 67.555 22.1787C67.495 22.1387 67.435 22.1087 67.375 22.0687C67.125 21.9287 66.875 21.7987 66.625 21.6687C66.575 21.6387 66.515 21.6087 66.465 21.5887C66.195 21.4587 65.915 21.3287 65.635 21.2087C65.605 21.1987 65.565 21.1787 65.535 21.1687C63.985 20.5287 62.365 20.1587 60.795 20.1587C60.755 20.1587 60.715 20.1687 60.685 20.1687C60.335 20.1687 59.995 20.1887 59.655 20.2287C53.915 20.9087 50.665 24.8787 49.615 30.0387C49.235 31.9087 49.205 33.7987 49.465 35.1387C49.495 35.2987 49.755 36.4787 49.765 36.8387C49.915 38.2487 47.135 39.5187 46.745 41.0587C46.455 42.2087 48.855 43.0687 49.035 43.2787C49.945 44.3687 48.205 49.2787 54.855 50.0787C57.415 50.3887 57.655 50.3187 58.455 50.4287C60.045 50.6587 59.575 57.1087 59.575 57.1087H59.585L71.105 54.7987C71.105 54.7987 69.575 47.3487 71.225 44.0987C71.715 43.1087 72.185 41.8487 72.585 40.4687Z" fill="#F9DDBD" style="fill:#F9DDBD;fill:color(display-p3 0.9765 0.8667 0.7412);fill-opacity:1;"/>
<path d="M85.1192 43.9677C85.4092 35.7177 90.2092 30.7377 84.9292 24.3577C81.4492 20.1477 74.4992 21.9077 73.2792 23.5277C70.9192 26.6477 74.9492 29.4677 75.8792 31.0277C77.2492 33.3277 74.7192 42.6977 78.8592 49.3877C84.4592 58.4477 90.2092 57.0277 90.2092 57.0277C90.2092 57.0277 84.8392 51.9077 85.1192 43.9677Z" fill="#312D2D" style="fill:#312D2D;fill:color(display-p3 0.1922 0.1765 0.1765);fill-opacity:1;"/>
<path d="M85.5689 40.1177C86.7189 34.0277 89.3389 29.6777 84.9389 24.3477C81.4589 20.1377 74.5089 21.8977 73.2889 23.5177C70.9289 26.6377 74.9589 29.4577 75.8889 31.0177C77.2589 33.3077 85.5689 40.1177 85.5689 40.1177Z" fill="url(#paint0_radial_179_699)" style=""/>
<path d="M85.1194 43.9678C85.1894 41.9078 85.5694 39.8878 86.0594 37.8878C86.4894 36.1178 86.9494 34.5978 85.7994 32.9678C83.9894 30.3978 80.3694 29.2778 77.4194 30.3678C76.5294 30.6978 75.9794 31.1478 76.0994 32.0678C76.1894 32.7278 76.3194 33.3278 76.3394 34.0078C76.3594 35.5478 76.2994 37.0878 76.3294 38.6278C76.3994 42.3278 76.8694 46.1678 78.8594 49.3778C84.4594 58.4378 90.2094 57.0178 90.2094 57.0178C90.2094 57.0178 84.8394 51.9078 85.1194 43.9678Z" fill="url(#paint1_radial_179_699)" style=""/>
<path d="M76.1191 28.8477C77.0091 31.0177 76.2891 35.2777 76.3291 36.8677C76.3691 38.6077 76.2991 41.1777 76.8891 44.2277C78.3691 51.8577 84.8891 55.7577 84.8891 55.7577L76.1191 28.8477Z" fill="url(#paint2_radial_179_699)" style=""/>
<path d="M74.0493 25.1278C71.4493 21.9578 67.1993 19.9378 62.6993 19.7178C58.7893 19.5278 53.4193 20.4878 50.1193 23.7478C48.1293 25.7078 46.9593 28.2878 47.2893 31.1478C47.4893 32.8678 48.8993 33.7478 48.8993 33.7478C48.8993 33.7478 50.5293 29.8278 54.5193 30.8178C58.7193 31.8578 60.5493 31.0078 60.5493 31.0078C59.1393 34.3478 60.3793 36.1678 61.4793 37.2178C62.1093 37.8178 62.6893 38.5178 63.0093 38.9378C63.1793 39.1578 63.3193 39.1378 63.3893 38.9078C63.5493 38.3678 63.8593 37.3978 64.0893 36.9378C64.8693 35.4078 66.1093 35.9478 66.1193 35.9478C67.8093 36.5478 68.4193 40.0278 65.6393 42.0678C65.5693 42.1178 65.3793 42.2478 65.4893 42.5878C66.5893 46.1178 70.7693 46.2478 71.0193 46.1178L71.0293 46.1078C71.0493 46.0978 71.0693 46.0878 71.0893 46.0778C71.6493 45.8178 71.9793 45.3578 72.0693 44.7078C72.4193 42.3578 73.4393 41.6778 74.1793 40.6578C75.0293 39.4778 75.9993 38.1478 76.5493 34.4578C77.0893 31.0078 76.2193 27.7678 74.0493 25.1278Z" fill="#312D2D" style="fill:#312D2D;fill:color(display-p3 0.1922 0.1765 0.1765);fill-opacity:1;"/>
<path d="M74.0493 25.1278C71.4493 21.9578 67.1993 19.9378 62.6993 19.7178C58.7893 19.5278 53.4193 20.4878 50.1193 23.7478C48.1293 25.7078 46.9593 28.2878 47.2893 31.1478C47.4893 32.8678 48.8993 33.7478 48.8993 33.7478C48.8993 33.7478 50.5293 29.8278 54.5193 30.8178C58.7193 31.8578 60.5493 31.0078 60.5493 31.0078C59.1393 34.3478 60.3793 36.1678 61.4793 37.2178C62.1093 37.8178 62.6893 38.5178 63.0093 38.9378C63.1793 39.1578 63.3193 39.1378 63.3893 38.9078C63.5493 38.3678 63.8593 37.3978 64.0893 36.9378C64.8693 35.4078 66.1093 35.9478 66.1193 35.9478C67.8093 36.5478 68.4193 40.0278 65.6393 42.0678C65.5693 42.1178 65.3793 42.2478 65.4893 42.5878C66.5893 46.1178 70.7693 46.2478 71.0193 46.1178L71.0293 46.1078C71.0493 46.0978 71.0693 46.0878 71.0893 46.0778C71.6493 45.8178 71.9793 45.3578 72.0693 44.7078C72.4193 42.3578 73.4393 41.6778 74.1793 40.6578C75.0293 39.4778 75.9993 38.1478 76.5493 34.4578C77.0893 31.0078 76.2193 27.7678 74.0493 25.1278Z" fill="url(#paint3_radial_179_699)" style=""/>
<path d="M49.585 46.1285C50.505 46.2185 51.435 46.0485 52.245 45.5085C53.125 44.9085 52.575 44.1785 51.575 44.5485C50.975 44.7785 50.135 44.8585 49.375 44.6785L49.585 46.1285Z" fill="#1A1717" style="fill:#1A1717;fill:color(display-p3 0.1020 0.0902 0.0902);fill-opacity:1;"/>
<path d="M55.0848 37.8458C55.0992 36.8076 54.5646 35.9584 53.8909 35.9491C53.2172 35.9398 52.6594 36.7739 52.6451 37.8121C52.6308 38.8503 53.1653 39.6994 53.839 39.7087C54.5127 39.718 55.0705 38.8839 55.0848 37.8458Z" fill="#1A1717" style="fill:#1A1717;fill:color(display-p3 0.1020 0.0902 0.0902);fill-opacity:1;"/>
<path d="M53.0357 35.0085C51.8157 35.2385 51.6157 34.4285 52.0757 33.8385C52.4157 33.3985 53.1757 33.0885 54.5357 33.4985C55.8157 33.8885 56.2857 34.6885 56.5857 35.1885C56.8857 35.6885 56.8057 36.1385 56.4957 36.1385C56.0757 36.1485 54.5457 34.7285 53.0357 35.0085Z" fill="#1A1717" style="fill:#1A1717;fill:color(display-p3 0.1020 0.0902 0.0902);fill-opacity:1;"/>
<path d="M74.9253 60.2485C73.0653 53.8785 69.8953 52.2485 67.1253 52.2485C64.2453 52.2485 61.8053 54.0285 61.8053 54.0285C56.9053 57.3985 56.8953 62.5385 56.4453 69.4485C55.9853 76.3585 55.6553 90.4385 55.6553 90.4385C55.6553 90.4385 61.0953 92.6885 69.3653 92.6885H70.0153C78.6553 92.5685 81.8553 89.5785 81.8553 89.5785C81.8553 89.5785 77.2553 68.2085 74.9253 60.2485Z" fill="url(#paint4_radial_179_699)" style=""/>
<path d="M74.9253 60.2485C73.0653 53.8785 69.8953 52.2485 67.1253 52.2485C64.2453 52.2485 61.8053 54.0285 61.8053 54.0285C56.9053 57.3985 56.8953 62.5385 56.4453 69.4485C55.9853 76.3585 55.6553 90.4385 55.6553 90.4385C55.6553 90.4385 61.0953 92.6885 69.3653 92.6885H70.0153C78.6553 92.5685 81.8553 89.5785 81.8553 89.5785C81.8553 89.5785 77.2553 68.2085 74.9253 60.2485Z" fill="url(#paint5_radial_179_699)" style=""/>
<path d="M77.2501 76.3252C76.4702 73.3685 73.0616 62.2639 73.0307 62.1564C72.9559 61.9127 72.7101 61.7665 72.4534 61.8125L62.3529 63.8135C62.2146 63.8374 62.0933 63.93 62.0158 64.0584C61.9482 64.1859 61.9323 64.3282 61.9762 64.4644L67.0407 79.2417C65.4046 80.4616 57.3284 86.3998 54.9228 87.1644C53.2962 87.6798 50.4906 88.3641 47.2513 89.1321C44.6605 89.7546 42.3801 93.4614 41.25 95.6154C40.9131 96.2623 41.032 97.0444 41.5258 97.5575C41.8972 97.9523 42.4167 98.1212 42.9142 98.0711C43.2425 98.0381 43.5609 97.9056 43.8194 97.6785L47.1593 95.2119C47.6738 95.2305 49.1842 95.2594 51.205 94.9657C53.7013 94.604 56.0309 93.2842 56.1065 93.2364C56.9769 92.7971 61.228 91.5956 65.3418 90.428C68.41 89.5565 71.5767 88.6651 73.7096 87.9882C79.8071 86.0582 77.9501 78.9885 77.2501 76.3252Z" fill="url(#paint6_linear_179_699)" style=""/>
<path d="M77.2501 76.3252C76.4702 73.3685 73.0616 62.2639 73.0307 62.1564C72.9559 61.9127 72.7101 61.7665 72.4534 61.8125L62.3529 63.8135C62.2146 63.8374 62.0933 63.93 62.0158 64.0584C61.9482 64.1859 61.9323 64.3282 61.9762 64.4644L67.0407 79.2417C65.4046 80.4616 57.3284 86.3998 54.9228 87.1644C53.2962 87.6798 50.4906 88.3641 47.2513 89.1321C44.6605 89.7546 42.3801 93.4614 41.25 95.6154C40.9131 96.2623 41.032 97.0444 41.5258 97.5575C41.8972 97.9523 42.4167 98.1212 42.9142 98.0711C43.2425 98.0381 43.5609 97.9056 43.8194 97.6785L47.1593 95.2119C47.6738 95.2305 49.1842 95.2594 51.205 94.9657C53.7013 94.604 56.0309 93.2842 56.1065 93.2364C56.9769 92.7971 61.228 91.5956 65.3418 90.428C68.41 89.5565 71.5767 88.6651 73.7096 87.9882C79.8071 86.0582 77.9501 78.9885 77.2501 76.3252Z" fill="url(#paint7_linear_179_699)" style=""/>
<path d="M77.2501 76.3252C76.4702 73.3685 73.0616 62.2639 73.0307 62.1564C72.9559 61.9127 72.7101 61.7665 72.4534 61.8125L62.3529 63.8135C62.2146 63.8374 62.0933 63.93 62.0158 64.0584C61.9482 64.1859 61.9323 64.3282 61.9762 64.4644L67.0407 79.2417C65.4046 80.4616 57.3284 86.3998 54.9228 87.1644C53.2962 87.6798 50.4906 88.3641 47.2513 89.1321C44.6605 89.7546 42.3801 93.4614 41.25 95.6154C40.9131 96.2623 41.032 97.0444 41.5258 97.5575C41.8972 97.9523 42.4167 98.1212 42.9142 98.0711C43.2425 98.0381 43.5609 97.9056 43.8194 97.6785L47.1593 95.2119C47.6738 95.2305 49.1842 95.2594 51.205 94.9657C53.7013 94.604 56.0309 93.2842 56.1065 93.2364C56.9769 92.7971 61.228 91.5956 65.3418 90.428C68.41 89.5565 71.5767 88.6651 73.7096 87.9882C79.8071 86.0582 77.9501 78.9885 77.2501 76.3252Z" fill="url(#paint8_linear_179_699)" style=""/>
<path d="M74.1086 62.5803C73.3198 59.735 70.5875 56.3515 66.707 56.7418C66.3687 56.7759 66.0136 56.8418 65.6514 56.9385C61.2182 58.1282 60.3684 63.0681 61.2319 66.1571L64.1061 75.5466L76.9828 71.9698L74.1086 62.5803Z" fill="#04A287" style="fill:#04A287;fill:color(display-p3 0.0157 0.6353 0.5294);fill-opacity:1;"/>
<path d="M74.1086 62.5803C73.3198 59.735 70.5875 56.3515 66.707 56.7418C66.3687 56.7759 66.0136 56.8418 65.6514 56.9385C61.2182 58.1282 60.3684 63.0681 61.2319 66.1571L64.1061 75.5466L76.9828 71.9698L74.1086 62.5803Z" fill="#3615AF" style="fill:#3615AF;fill:color(display-p3 0.2118 0.0824 0.6863);fill-opacity:1;"/>
<defs>
<radialGradient id="paint0_radial_179_699" cx="0" cy="0" r="1" gradientUnits="userSpaceOnUse" gradientTransform="translate(77.0616 37.8027) rotate(-6.41928) scale(15.133 18.2977)">
<stop offset="0.5264" stop-color="#454140" stop-opacity="0" style="stop-color:none;stop-opacity:0;"/>
<stop offset="1" stop-color="#454140" style="stop-color:#454140;stop-color:color(display-p3 0.2706 0.2549 0.2510);stop-opacity:1;"/>
</radialGradient>
<radialGradient id="paint1_radial_179_699" cx="0" cy="0" r="1" gradientUnits="userSpaceOnUse" gradientTransform="translate(90.9199 49.6248) rotate(170.23) scale(16.184 19.9658)">
<stop stop-color="#454140" style="stop-color:#454140;stop-color:color(display-p3 0.2706 0.2549 0.2510);stop-opacity:1;"/>
<stop offset="0.5264" stop-color="#454140" stop-opacity="0" style="stop-color:none;stop-opacity:0;"/>
</radialGradient>
<radialGradient id="paint2_radial_179_699" cx="0" cy="0" r="1" gradientUnits="userSpaceOnUse" gradientTransform="translate(84.2588 43.8596) rotate(160.233) scale(8.84711 28.2179)">
<stop offset="0.5264" stop-color="#454140" stop-opacity="0" style="stop-color:none;stop-opacity:0;"/>
<stop offset="1" stop-color="#454140" style="stop-color:#454140;stop-color:color(display-p3 0.2706 0.2549 0.2510);stop-opacity:1;"/>
</radialGradient>
<radialGradient id="paint3_radial_179_699" cx="0" cy="0" r="1" gradientUnits="userSpaceOnUse" gradientTransform="translate(61.9754 32.9335) scale(14.0105 14.0105)">
<stop offset="0.5264" stop-color="#454140" stop-opacity="0" style="stop-color:none;stop-opacity:0;"/>
<stop offset="1" stop-color="#454140" style="stop-color:#454140;stop-color:color(display-p3 0.2706 0.2549 0.2510);stop-opacity:1;"/>
</radialGradient>
<radialGradient id="paint4_radial_179_699" cx="0" cy="0" r="1" gradientUnits="userSpaceOnUse" gradientTransform="translate(65.672 67.2601) scale(17.0361 17.0361)">
<stop offset="0.3637" stop-color="#00BFA5" style="stop-color:#00BFA5;stop-color:color(display-p3 0.0000 0.7490 0.6471);stop-opacity:1;"/>
<stop offset="0.8121" stop-color="#00B29A" style="stop-color:#00B29A;stop-color:color(display-p3 0.0000 0.6980 0.6039);stop-opacity:1;"/>
<stop offset="1" stop-color="#00AB94" style="stop-color:#00AB94;stop-color:color(display-p3 0.0000 0.6706 0.5804);stop-opacity:1;"/>
</radialGradient>
<radialGradient id="paint5_radial_179_699" cx="0" cy="0" r="1" gradientUnits="userSpaceOnUse" gradientTransform="translate(65.672 67.2601) scale(17.0361 17.0361)">
<stop offset="0.3637" stop-color="#651FFF" style="stop-color:#651FFF;stop-color:color(display-p3 0.3961 0.1216 1.0000);stop-opacity:1;"/>
<stop offset="0.8121" stop-color="#5914F2" style="stop-color:#5914F2;stop-color:color(display-p3 0.3490 0.0784 0.9490);stop-opacity:1;"/>
<stop offset="1" stop-color="#530EEB" style="stop-color:#530EEB;stop-color:color(display-p3 0.3255 0.0549 0.9216);stop-opacity:1;"/>
</radialGradient>
<linearGradient id="paint6_linear_179_699" x1="60.3704" y1="91.279" x2="56.8173" y2="77.1889" gradientUnits="userSpaceOnUse">
<stop offset="0.5" stop-color="#FFCA28" style="stop-color:#FFCA28;stop-color:color(display-p3 1.0000 0.7922 0.1569);stop-opacity:1;"/>
<stop offset="1" stop-color="#FFB300" style="stop-color:#FFB300;stop-color:color(display-p3 1.0000 0.7020 0.0000);stop-opacity:1;"/>
</linearGradient>
<linearGradient id="paint7_linear_179_699" x1="60.3704" y1="91.279" x2="56.8173" y2="77.1889" gradientUnits="userSpaceOnUse">
<stop offset="0.5" stop-color="#70534A" style="stop-color:#70534A;stop-color:color(display-p3 0.4392 0.3255 0.2902);stop-opacity:1;"/>
<stop offset="1" stop-color="#5C4037" style="stop-color:#5C4037;stop-color:color(display-p3 0.3608 0.2510 0.2157);stop-opacity:1;"/>
</linearGradient>
<linearGradient id="paint8_linear_179_699" x1="60.3704" y1="91.279" x2="56.8173" y2="77.1889" gradientUnits="userSpaceOnUse">
<stop offset="0.5" stop-color="#F9DDBD" style="stop-color:#F9DDBD;stop-color:color(display-p3 0.9765 0.8667 0.7412);stop-opacity:1;"/>
<stop offset="1" stop-color="#FFD29C" style="stop-color:#FFD29C;stop-color:color(display-p3 1.0000 0.8235 0.6118);stop-opacity:1;"/>
</linearGradient>
</defs>
</svg>
