<svg width="128" height="128" viewBox="0 0 128 128" fill="none" xmlns="http://www.w3.org/2000/svg">
<path d="M41.7509 46.7588L4.95093 41.6321V42.4667L41.4509 49.1433L41.7509 46.7588Z" fill="#CFD8DC" style="fill:#CFD8DC;fill:color(display-p3 0.8118 0.8471 0.8627);fill-opacity:1;"/>
<path d="M35.7001 48C35.3001 51.2 35.8001 53.9 36.9001 54.1C38.0001 54.3 39.3001 51.8 39.7001 48.6C40.1001 45.4 39.6001 42.7 38.5001 42.5C37.4001 42.3 36.2001 44.8 35.7001 48Z" fill="#CFD8DC" style="fill:#CFD8DC;fill:color(display-p3 0.8118 0.8471 0.8627);fill-opacity:1;"/>
<path d="M37.0999 54.5999C36.9999 54.5999 36.9999 54.5999 36.8999 54.5999C36.3999 54.4999 35.5999 54.0999 35.2999 52.2999C35.0999 51.0999 34.9999 49.4999 35.2999 47.9999C35.6999 44.8999 36.9999 41.7999 38.6999 41.9999C40.3999 42.1999 40.7999 45.4999 40.3999 48.5999C40.1999 50.1999 39.7999 51.6999 39.1999 52.7999C38.3999 54.1999 37.5999 54.5999 37.0999 54.5999ZM36.1999 48.0999C35.9999 49.5999 35.9999 50.9999 36.1999 52.0999C36.3999 53.0999 36.6999 53.5999 36.9999 53.5999C37.1999 53.5999 37.6999 53.2999 38.0999 52.3999C38.5999 51.3999 38.9999 49.9999 39.1999 48.4999C39.6999 44.9999 38.9999 42.9999 38.4999 42.9999C37.8999 42.9999 36.6999 44.6999 36.1999 48.0999Z" fill="#879298" style="fill:#879298;fill:color(display-p3 0.5288 0.5735 0.5958);fill-opacity:1;"/>
<path d="M96.7 119.6H102.8L101.9 95.8L91.5 97.2L96.7 119.6Z" fill="url(#paint0_linear_1019_2356)" style=""/>
<path d="M67.1999 121.3H60.9L55.7 95L66.8 94.8L67.1999 121.3Z" fill="url(#paint1_linear_1019_2356)" style=""/>
<path d="M59.3 57.5L65.2 61.7L77.1 44.5L69.8001 39.5L59.3 57.5Z" fill="url(#paint2_linear_1019_2356)" style=""/>
<path d="M64.3 57.1C63.9 56.7 63.5 56.5 63 56.3L47.0999 47.3L43.7 52.6L59.5 62.6C59.7999 62.8 60.1 63.0001 60.4 63.2001H60.5C60.9 63.4001 61.3 63.5 61.7 63.5C63.7 63.6 65.4999 62 65.5999 60C65.5999 58.8 65.1 57.8 64.3 57.1Z" fill="url(#paint3_linear_1019_2356)" style=""/>
<path d="M61.8999 64.4999C61.7999 64.4999 61.6999 64.4999 61.6999 64.4999C61.1999 64.4999 60.7999 64.3999 60.2999 64.1999C60.1999 64.1999 60.0999 64.0999 59.9999 64.0999C59.6999 63.9999 59.2999 63.6999 58.9999 63.4999L43.2999 53.4999C43.0999 53.3999 42.8999 53.0999 42.8999 52.8999C42.8999 52.6999 42.8999 52.3999 42.9999 52.0999L46.3999 46.7999C46.6999 46.3999 47.2999 46.1999 47.6999 46.4999L60.3999 53.6999L68.8999 38.9999C68.9999 38.7999 69.2999 38.5999 69.4999 38.4999C69.6999 38.3999 70.0999 38.4999 70.2999 38.6999L77.6999 43.6999C77.8999 43.8999 78.0999 44.0999 78.0999 44.3999C78.1999 44.6999 78.0999 44.8999 77.8999 45.1999L65.9999 62.1999C65.8999 62.2999 65.7999 62.4999 65.5999 62.4999C64.6999 63.7999 63.3999 64.4999 61.8999 64.4999ZM60.7999 62.1999C60.7999 62.1999 60.7999 62.2999 60.7999 62.1999C61.1999 62.3999 61.4999 62.3999 61.7999 62.3999C62.7999 62.4999 63.7999 61.8999 64.2999 60.9999C64.3999 60.7999 64.5999 60.6999 64.7999 60.5999L75.8999 44.6999L70.1999 40.8999L61.6999 55.4999C61.3999 55.9999 60.7999 56.0999 60.2999 55.8999L47.4999 48.6999L45.1999 52.3999L59.9999 61.7999C59.9999 61.7999 60.0999 61.7999 60.0999 61.8999C60.2999 61.9999 60.4999 62.0999 60.7999 62.1999Z" fill="#90A4AE" style="fill:#90A4AE;fill:color(display-p3 0.5647 0.6431 0.6824);fill-opacity:1;"/>
<path d="M110.4 55.9L114.1 49.2L98.5999 37.2L94.8999 45.9L110.4 55.9Z" fill="url(#paint4_linear_1019_2356)" style=""/>
<path d="M115.5 52.5001L119.8 33.3001L113.6 32.6001L108.5 50.7001C108.4 50.9001 108.3 51.2001 108.2 51.4001C108.1 51.7001 108 52.1001 108 52.4001C108 54.0001 108.9 55.5001 110.5 56.0001C112.3 56.6001 114.1 55.7001 114.9 54.1001V54.0001C115 53.9001 115 53.8001 115.1 53.6001C115.5 53.2001 115.5 52.8001 115.5 52.5001Z" fill="url(#paint5_linear_1019_2356)" style=""/>
<path d="M111.8 57.1C111.3 57.1 110.9 57 110.4 56.9C110.2 56.9 110.1 56.9 109.9 56.8L109.5 56.6C109.4 56.6 109.3 56.5 109.2 56.4L94.3 46.8C93.9 46.5 93.7 46 93.9 45.6L97.6 36.9C97.7 36.6 98 36.4 98.3 36.3C98.6 36.2 98.9 36.3 99.2 36.5L109.4 44.5L113 31.6C113.1 31.1 113.6 30.8 114.1 30.9L120.2 31.6C120.5 31.6 120.7 31.8 120.9 32C121.1 32.2 121.1 32.5 121.1 32.8L116.6 52.7C116.6 53.2 116.5 53.6 116.4 54C116.3 54.1 116.3 54.3 116.2 54.4C116.2 54.6 116.1 54.7 116 54.8C115.1 56.2 113.5 57.1 111.8 57.1ZM110.7 54.8C110.8 54.8 110.8 54.8 110.9 54.8C111 54.8 111 54.8 111.1 54.9C112.3 55.3 113.7 54.7 114.3 53.5L114.4 53.3C114.4 53.3 114.5 53.2 114.5 53.1C114.6 52.9 114.6 52.6 114.6 52.3C114.6 52.2 114.6 52.2 114.6 52.1L118.9 33.2L114.7 32.7L111 46.2C110.9 46.5 110.7 46.8 110.3 46.9C110 47 109.6 46.9 109.4 46.7L99 38.7L96.1 45.5L110.3 54.6C110.4 54.7 110.5 54.7 110.6 54.8H110.7Z" fill="#90A4AE" style="fill:#90A4AE;fill:color(display-p3 0.5647 0.6431 0.6824);fill-opacity:1;"/>
<path d="M86.7 74.8L75.2 63.5L57.2 90.4C55.3 92.4 55 95.5 56.8 97.8C58.7 100.2 62.2 100.7 64.7 98.7C65.9 97.7 66.6 96.4 66.8 94.9L86.7 74.8Z" fill="url(#paint6_linear_1019_2356)" style=""/>
<path d="M91.5 97.2L101.9 95.8L95.7 63L82.3 68.5L91.5 97.2Z" fill="url(#paint7_linear_1019_2356)" style=""/>
<path d="M71.6 38.2L76.1 36.9L91.7 35.5L97.2 36.5C99.2 36.9 100.5 38.7 100.3 40.7L96.7 68.4L86.4 78C85.3 79 83.6 78.9 82.6 77.9L72.5 67.4L68.7 42.7C68.4 40.8 69.6 38.8 71.6 38.2Z" fill="url(#paint8_linear_1019_2356)" style=""/>
<path d="M38 49.0001V49.3001C37.8 51.8001 39.7 53.9001 42.2 54.1001L43.3 54.2001C45.8 54.4001 47.9 52.5001 48.1 50.0001V49.7001C48.3 47.2001 46.4 45.1001 43.9 44.9001L42.8 44.8001C40.3 44.6001 38.2 46.5001 38 49.0001Z" fill="#CFD8DC" style="fill:#CFD8DC;fill:color(display-p3 0.8118 0.8471 0.8627);fill-opacity:1;"/>
<path d="M47.9999 50.1036V49.4813C48.1999 46.9921 46.3999 44.814 43.9999 44.7103L42.5999 44.6066C41.7999 44.5029 41.0999 44.7103 40.3999 45.0214C40.4999 45.0214 41.5999 44.7103 42.3999 45.4363C43.0999 46.0586 42.3999 46.266 43.0999 47.0958C43.5999 47.6144 44.0999 46.7846 45.1999 47.4069C45.6999 47.7181 45.5999 48.2367 45.6999 48.9627C45.6999 49.4813 46.5999 49.2738 46.3999 50.4147C46.2999 51.2444 45.5999 52.489 45.5999 52.489C45.5999 52.489 45.9999 53.0076 46.6999 52.6965C47.4999 51.8667 47.8999 51.2444 47.9999 50.1036Z" fill="#B0BEC5" style="fill:#B0BEC5;fill:color(display-p3 0.6902 0.7451 0.7725);fill-opacity:1;"/>
<path d="M67.2001 122.3H60.9001C60.4001 122.3 60.0001 122 59.9001 121.5L55.0001 96.3C54.2001 94 54.8001 91.5 56.5001 89.7L71.5001 67.3L67.8001 42.9C67.4001 40.4 68.9001 38 71.3001 37.2L75.8001 35.9C75.9001 35.9 75.9001 35.9 76.0001 35.9L91.6001 34.5C91.7001 34.5 91.8001 34.5 91.9001 34.5L97.4001 35.5C99.9001 36 101.6 38.3 101.3 40.8L97.8001 68.2L103 95.5C103 95.6 103 95.6 103 95.7L103.9 119.5C103.9 119.8 103.8 120 103.6 120.2C103.4 120.4 103.2 120.5 102.9 120.5H96.7001C96.2001 120.5 95.8001 120.2 95.7001 119.7L90.5001 97.3L84.8001 79.5C84.3001 79.5 83.9001 79.5 83.4001 79.3L67.8001 95.3L68.1001 121.3C68.1001 121.6 68.0001 121.8 67.8001 122C67.6001 122.2 67.4001 122.3 67.2001 122.3ZM61.7001 120.3H66.1001L65.8001 94.9C65.8001 94.6 65.9001 94.4 66.1001 94.2L82.5001 77.6C82.8001 77.3 83.3001 77.2 83.7001 77.4C84.1001 77.6 84.7001 77.7 85.1001 77.5C85.3001 77.4 85.6001 77.4 85.9001 77.5C86.2001 77.6 86.3001 77.8 86.4001 78.1L92.4001 96.8L97.4001 118.5H101.7L100.9 95.8L95.7001 68.4C95.7001 68.3 95.7001 68.2 95.7001 68.1L99.2001 40.6C99.4001 39.2 98.4001 37.8 97.0001 37.5L91.6001 36.5L76.2001 37.9L71.8001 39.1C70.3001 39.6 69.4001 41 69.7001 42.6L73.4001 67.1C73.5001 67.4 73.5001 67.8 73.3001 68L58.1001 90.9C58.0001 91 58.0001 91 58.0001 91.1C56.8001 92.3 56.4001 94.1 56.9001 95.8V95.9L61.7001 120.3Z" fill="#90A4AE" style="fill:#90A4AE;fill:color(display-p3 0.5647 0.6431 0.6824);fill-opacity:1;"/>
<path d="M59.9 116.6L52.6 118.5C51.7 118.8 50.9 119.5 50.6 120.4C50.2 121.6 51.1 122.9 52.4 122.9H67.1V116.5C67.2 116.6 59.9 116.6 59.9 116.6Z" fill="url(#paint9_linear_1019_2356)" style=""/>
<path d="M102.7 114.8L106.7 119.3C107 119.6 107.1 120 107.1 120.4V120.7C107.1 121.4 106.6 122.9 105.9 122.9H96.9C95.1 122.9 94.3 120 94.5 118.9V118.7C94.7 117.4 95.7 114.7 95.7 114.7L102.7 114.8Z" fill="url(#paint10_linear_1019_2356)" style=""/>
<path opacity="0.87" d="M82.6999 5.6001C82.6999 5.6001 75.6999 5.9001 73.2999 12.9001C71.1999 19.3001 69.8999 30.6001 78.4999 32.3001C78.4999 32.3001 84.0999 31.3001 86.5999 20.4001C89.4999 7.7001 82.6999 5.6001 82.6999 5.6001Z" fill="#37474F" style="fill:#37474F;fill:color(display-p3 0.2157 0.2784 0.3098);fill-opacity:1;"/>
<path d="M85.9 25C85.9 25 83.6 31.4 79.5 32.3C78.2 32.6 76.3 31.7 76.3 31.7L76.6 36.7L74.7 37.4L77 38C78.9 38.5 80.8 39.4 82.2 40.8C83.2 41.7 84.5 42.2 85.9 42.1C87.6 41.9 89.9 41.1 91.4 38.1C94 32.8 93.2 25.1 93.2 25.1L85.9 25Z" fill="#CFD8DC" style="fill:#CFD8DC;fill:color(display-p3 0.8118 0.8471 0.8627);fill-opacity:1;"/>
<path d="M87.2999 20.6001H96.4999C96.4999 20.6001 96.0999 24.7001 94.3999 27.9001C93.5999 29.5001 91.8999 30.3001 90.3999 30.3001H84.3999L87.2999 20.6001Z" fill="#B0BEC5" style="fill:#B0BEC5;fill:color(display-p3 0.6902 0.7451 0.7725);fill-opacity:1;"/>
<path d="M76.4 35.0001C76.4 35.0001 79.4 35.8001 82.2 35.5001C85.1 35.2001 87.8 31.9001 89.1 25.1001H85C85 25.1001 82.8 31.6001 79.6 32.0001C77 32.2001 76.2 32.0001 76.2 32.0001L76.4 35.0001Z" fill="#B0BEC5" style="fill:#B0BEC5;fill:color(display-p3 0.6902 0.7451 0.7725);fill-opacity:1;"/>
<path d="M85.8 12.8C85.9 15.8 85.7 18.3 85.3 20.6H96.5C98.1 9.69998 94.4 6.99998 89.6 5.99998C86 5.19998 82.5 5.69998 82.5 5.69998C82.5 5.69998 85.6 7.39998 85.8 12.8Z" fill="#78909C" style="fill:#78909C;fill:color(display-p3 0.4706 0.5647 0.6118);fill-opacity:1;"/>
<path d="M122 27.7998C119 26.2998 114.2 26.4998 114.2 26.4998C114.2 26.4998 114 27.9998 113.4 29.0998C113.3 29.1998 113.3 29.2998 113.2 29.3998C113 29.1998 112.9 28.7998 112.9 28.1998C112.8 27.5998 112.3 27.0998 111.8 26.7998C111.2 26.3998 109.9 26.4998 110.1 27.4998C110.2 27.9998 110.4 30.8998 110.4 30.8998C110.4 30.8998 112.3 33.8998 113 34.4998C113.7 35.0998 116.8 36.2998 118.5 35.8998C120.6 35.3998 120.8 33.7998 121.3 32.6998C121.7 31.4998 122.6 27.4998 122 27.7998Z" fill="url(#paint11_radial_1019_2356)" stroke="#95A9B3" style="stroke:#95A9B3;stroke:color(display-p3 0.5843 0.6627 0.7020);stroke-opacity:1;" stroke-width="2" stroke-miterlimit="10" stroke-linecap="round" stroke-linejoin="round"/>
<path d="M112.4 23.5999C112.8 23.4999 113.6 23.4999 113.8 24.0999C114.1 23.3999 114.6 22.9999 115.3 23.0999C116.1 23.1999 116.5 23.9999 116.5 23.9999C117.1 23.2999 117.6 23.0999 118.3 23.2999C119.5 23.6999 119.9 24.5999 119.9 24.5999C120.5 23.9999 121.3 24.1999 121.8 24.6999C122.5 25.2999 122.5 25.9999 122.2 26.6999L120.9 28.7999C120.3 29.2999 119.6 29.5999 119 29.1999C118.7 28.9999 118.6 28.6999 118.5 28.3999C118.1 28.6999 117.7 28.7999 117.2 28.6999C116.4 28.4999 115.8 28.0999 116 27.2999C116 27.2999 115.5 27.6999 114.9 27.4999C114.3 27.2999 114.1 26.9999 114 26.3999C113.8 26.7999 113.2 26.9999 112.8 26.8999C112.1 26.7999 111.7 26.2999 111.6 25.5999L111.5 25.1999C111.2 24.3999 111.7 23.8999 112.4 23.5999Z" fill="url(#paint12_linear_1019_2356)" stroke="#95A9B3" style="stroke:#95A9B3;stroke:color(display-p3 0.5843 0.6627 0.7020);stroke-opacity:1;" stroke-miterlimit="10" stroke-linecap="round" stroke-linejoin="round"/>
<path d="M113.2 29.5C113.9 29.6 114.4 29.8 114.8 30.1C115.2 30.4 115.5 31.4 115.5 32" stroke="#95A9B3" style="stroke:#95A9B3;stroke:color(display-p3 0.5843 0.6627 0.7020);stroke-opacity:1;" stroke-miterlimit="10" stroke-linecap="round" stroke-linejoin="round"/>
<path d="M67.1999 124H52.3999C51.3999 124 50.5999 123.6 49.9999 122.8C49.4999 122 49.2999 121.1 49.5999 120.2C49.9999 119 50.9999 118 52.2999 117.6L59.6999 115.7C59.7999 115.7 59.8999 115.7 59.8999 115.7H67.0999C67.6999 115.7 68.0999 116.1 68.0999 116.7V123.1C68.1999 123.6 67.6999 124 67.1999 124ZM60.0999 117.6L52.8999 119.5C52.2999 119.7 51.7999 120.2 51.5999 120.8C51.4999 121.1 51.5999 121.4 51.6999 121.6C51.8999 121.8 52.1999 122 52.4999 122H66.1999V117.6H60.0999Z" fill="#8698A1" style="fill:#8698A1;fill:color(display-p3 0.5255 0.5961 0.6314);fill-opacity:1;"/>
<path d="M105.8 124H96.7999C95.9999 124 95.2999 123.6 94.6999 122.9C93.6999 121.8 93.2999 119.9 93.3999 118.8V118.6C93.5999 117.2 94.5999 114.5 94.5999 114.4C94.6999 114 95.0999 113.7 95.4999 113.7H102.6C102.9 113.7 103.2 113.8 103.4 114L107.4 118.5C107.8 119 108.1 119.7 108.1 120.3V120.6C108.1 121.7 107.4 124 105.8 124ZM96.2999 115.8C95.9999 116.7 95.4999 118.2 95.3999 119V119.2C95.2999 119.6 95.5999 121 96.1999 121.7C96.4999 122.1 96.7999 122.1 96.7999 122.1H105.6C105.8 121.9 106 121.2 106 120.9V120.6C106 120.4 105.9 120.3 105.8 120.1L102.1 115.9C102.2 115.8 96.2999 115.8 96.2999 115.8Z" fill="#8698A1" style="fill:#8698A1;fill:color(display-p3 0.5255 0.5961 0.6314);fill-opacity:1;"/>
<path d="M85.1 6.5C86.7 6.5 88.1 6.7 89.4 6.9C93.1 7.7 96.8 9.5 95.6 19.6H86C86.3 17.1 86.6 13.4 85.9 10.7C85.4 8.7 84.8 7.4 84.3 6.5C84.6 6.5 84.9 6.5 85.1 6.5ZM85.1 5.5C83.6 5.5 82.5 5.6 82.5 5.6C82.5 5.6 84 6.8 85 11C85.7 13.6 85.4 17.4 84.9 20.6H96.5C98.1 9.7 94.4 7 89.7 6C88 5.6 86.4 5.5 85.1 5.5Z" fill="#607C8A" style="fill:#607C8A;fill:color(display-p3 0.3765 0.4863 0.5412);fill-opacity:1;"/>
<path d="M82.4001 5.7C82.4001 5.7 83.5001 5.5 84.3001 5.5C84.3001 5.5 86.0001 6 87.0001 8.5C88.0001 11.1 88.5001 14.5 87.3001 20.6C86.1001 26.8 84.4001 29.6 82.2001 31.6C80.0001 33.6 76.3001 33 76.3001 33L75.6001 31.2C75.6001 31.2 77.8001 31.5 79.3001 30.7C80.9001 29.9 84.1001 25.4 84.9001 20.4C85.5001 17.2 85.6001 13.3 84.9001 10.2C84.2001 7.1 82.4001 5.7 82.4001 5.7Z" fill="#CFD8DC" style="fill:#CFD8DC;fill:color(display-p3 0.8118 0.8471 0.8627);fill-opacity:1;"/>
<path d="M85.4999 43.0001C84.0999 43.0001 82.6999 42.5001 81.5999 41.5001C80.1999 40.3001 78.5999 39.4001 76.7999 39.0001L74.4999 38.4001C74.0999 38.3001 73.7999 37.9001 73.7999 37.5001C73.7999 37.1001 74.0999 36.7001 74.4999 36.5001L75.6999 36.1001V35.4001C75.6999 35.3001 75.6999 35.2001 75.5999 35.1001L75.4999 33.2001L74.9999 31.9001C69.6999 28.2001 70.2999 19.3001 72.4999 12.7001C74.9999 5.1001 82.6999 4.7001 82.7999 4.7001H82.8999C83.3999 4.6001 83.9999 4.6001 84.4999 4.6001C84.5999 4.6001 84.6999 4.6001 84.6999 4.6001C85.9999 4.6001 87.9999 4.6001 89.9999 5.1001C94.6999 6.2001 99.2999 8.8001 97.6999 20.7001V20.8001C97.6999 21.0001 97.2999 25.1001 95.4999 28.5001C95.1999 29.0001 94.7999 29.5001 94.3999 30.0001L94.2999 30.1001C94.0999 33.5001 93.4999 36.4001 92.3999 38.6001C90.6999 42.0001 88.0999 42.9001 86.0999 43.1001C85.7999 43.0001 85.5999 43.0001 85.4999 43.0001ZM77.4999 37.1001C79.4999 37.6001 81.2999 38.6001 82.7999 40.0001C83.5999 40.8001 84.6999 41.1001 85.6999 41.0001C87.7999 40.8001 89.3999 39.7001 90.3999 37.6001C91.3999 35.6001 91.9999 32.8001 92.1999 29.6001C92.1999 29.4001 92.2999 29.2001 92.3999 29.1001L92.4999 28.9001C92.5999 28.8001 92.5999 28.8001 92.6999 28.7001C92.7999 28.6001 92.7999 28.6001 92.8999 28.5001C93.1999 28.2001 93.4999 27.9001 93.6999 27.5001C95.0999 24.8001 95.4999 21.4001 95.5999 20.7001C95.5999 20.6001 95.5999 20.6001 95.5999 20.5001C97.1999 9.7001 93.2999 7.9001 89.4999 7.0001C87.5999 6.6001 85.7999 6.5001 84.5999 6.6001C84.4999 6.6001 84.3999 6.6001 84.3999 6.6001C83.8999 6.6001 83.2999 6.7001 82.9999 6.7001C82.8999 6.7001 82.7999 6.7001 82.7999 6.7001C81.8999 6.8001 76.3999 7.4001 74.4999 13.3001C72.8999 18.2001 71.4999 27.2001 76.3999 30.4001C76.5999 30.5001 76.6999 30.7001 76.7999 31.0001L77.4999 32.6001C77.4999 32.7001 77.5999 32.8001 77.5999 32.9001L77.6999 34.7001C77.6999 34.8001 77.6999 34.9001 77.7999 34.9001L77.8999 36.6001C77.5999 36.8001 77.5999 36.9001 77.4999 37.1001Z" fill="#90A4AE" style="fill:#90A4AE;fill:color(display-p3 0.5647 0.6431 0.6824);fill-opacity:1;"/>
<path d="M43.6999 54.3001C43.5999 54.3001 43.3999 54.3001 43.2999 54.3001L42.0999 54.2001C39.0999 54.0001 36.7999 51.3001 36.9999 48.3001V47.9001C37.0999 46.4001 37.7999 45.1001 38.8999 44.1001C39.9999 43.1001 41.3999 42.7001 42.8999 42.8001L44.0999 42.9001C47.0999 43.1001 49.3999 45.8001 49.1999 48.8001V49.2001C49.0999 50.7001 48.3999 52.0001 47.2999 53.0001C46.2999 53.8001 44.9999 54.3001 43.6999 54.3001ZM39.0999 48.0001V48.4001C38.9999 50.3001 40.3999 52.0001 42.2999 52.1001L43.4999 52.2001C45.3999 52.3001 47.0999 50.9001 47.1999 49.0001V48.6001C47.2999 46.7001 45.8999 45.0001 43.9999 44.9001L42.7999 44.8001C41.8999 44.7001 40.9999 45.0001 40.2999 45.6001C39.5999 46.3001 39.0999 47.1001 39.0999 48.0001Z" fill="#95A9B3" style="fill:#95A9B3;fill:color(display-p3 0.5843 0.6627 0.7020);fill-opacity:1;"/>
<path d="M46.2594 49.1635C46.4594 48.2635 47.0594 48.0635 47.6594 48.2635L51.1594 48.6635C51.8594 48.8635 52.3594 49.6635 52.1594 50.5635C51.9594 51.4635 51.2594 51.9635 50.5594 51.7635L47.1594 50.7635C46.6594 50.6635 46.0594 50.0635 46.2594 49.1635Z" fill="#E04B41" style="fill:#E04B41;fill:color(display-p3 0.8792 0.2938 0.2564);fill-opacity:1;"/>
<defs>
<linearGradient id="paint0_linear_1019_2356" x1="93.8171" y1="68.0944" x2="98.6631" y2="115.842" gradientUnits="userSpaceOnUse">
<stop stop-color="#ECEFF1" style="stop-color:#ECEFF1;stop-color:color(display-p3 0.9255 0.9373 0.9451);stop-opacity:1;"/>
<stop offset="1" stop-color="#B0BEC5" style="stop-color:#B0BEC5;stop-color:color(display-p3 0.6902 0.7451 0.7725);stop-opacity:1;"/>
</linearGradient>
<linearGradient id="paint1_linear_1019_2356" x1="75.1961" y1="76.4775" x2="57.6491" y2="116.907" gradientUnits="userSpaceOnUse">
<stop stop-color="#ECEFF1" style="stop-color:#ECEFF1;stop-color:color(display-p3 0.9255 0.9373 0.9451);stop-opacity:1;"/>
<stop offset="1" stop-color="#B0BEC5" style="stop-color:#B0BEC5;stop-color:color(display-p3 0.6902 0.7451 0.7725);stop-opacity:1;"/>
</linearGradient>
<linearGradient id="paint2_linear_1019_2356" x1="72.7622" y1="42.985" x2="63.6282" y2="59.032" gradientUnits="userSpaceOnUse">
<stop stop-color="#ECEFF1" style="stop-color:#ECEFF1;stop-color:color(display-p3 0.9255 0.9373 0.9451);stop-opacity:1;"/>
<stop offset="1" stop-color="#B0BEC5" style="stop-color:#B0BEC5;stop-color:color(display-p3 0.6902 0.7451 0.7725);stop-opacity:1;"/>
</linearGradient>
<linearGradient id="paint3_linear_1019_2356" x1="50.6093" y1="52.3016" x2="66.0703" y2="63.8276" gradientUnits="userSpaceOnUse">
<stop stop-color="#ECEFF1" style="stop-color:#ECEFF1;stop-color:color(display-p3 0.9255 0.9373 0.9451);stop-opacity:1;"/>
<stop offset="1" stop-color="#B0BEC5" style="stop-color:#B0BEC5;stop-color:color(display-p3 0.6902 0.7451 0.7725);stop-opacity:1;"/>
</linearGradient>
<linearGradient id="paint4_linear_1019_2356" x1="96.3704" y1="41.293" x2="110.968" y2="51.1773" gradientUnits="userSpaceOnUse">
<stop stop-color="#ECEFF1" style="stop-color:#ECEFF1;stop-color:color(display-p3 0.9255 0.9373 0.9451);stop-opacity:1;"/>
<stop offset="1" stop-color="#B0BEC5" style="stop-color:#B0BEC5;stop-color:color(display-p3 0.6902 0.7451 0.7725);stop-opacity:1;"/>
</linearGradient>
<linearGradient id="paint5_linear_1019_2356" x1="116.864" y1="32.2822" x2="111.544" y2="53.2902" gradientUnits="userSpaceOnUse">
<stop stop-color="#B0BEC5" style="stop-color:#B0BEC5;stop-color:color(display-p3 0.6902 0.7451 0.7725);stop-opacity:1;"/>
<stop offset="0.5212" stop-color="#CFD8DC" style="stop-color:#CFD8DC;stop-color:color(display-p3 0.8118 0.8471 0.8627);stop-opacity:1;"/>
<stop offset="1" stop-color="#B0BEC5" style="stop-color:#B0BEC5;stop-color:color(display-p3 0.6902 0.7451 0.7725);stop-opacity:1;"/>
</linearGradient>
<linearGradient id="paint6_linear_1019_2356" x1="71.1501" y1="67.024" x2="71.1501" y2="116.09" gradientUnits="userSpaceOnUse">
<stop stop-color="#ECEFF1" style="stop-color:#ECEFF1;stop-color:color(display-p3 0.9255 0.9373 0.9451);stop-opacity:1;"/>
<stop offset="1" stop-color="#B0BEC5" style="stop-color:#B0BEC5;stop-color:color(display-p3 0.6902 0.7451 0.7725);stop-opacity:1;"/>
</linearGradient>
<linearGradient id="paint7_linear_1019_2356" x1="91.1089" y1="72.3857" x2="95.2569" y2="113.252" gradientUnits="userSpaceOnUse">
<stop stop-color="#ECEFF1" style="stop-color:#ECEFF1;stop-color:color(display-p3 0.9255 0.9373 0.9451);stop-opacity:1;"/>
<stop offset="1" stop-color="#B0BEC5" style="stop-color:#B0BEC5;stop-color:color(display-p3 0.6902 0.7451 0.7725);stop-opacity:1;"/>
</linearGradient>
<linearGradient id="paint8_linear_1019_2356" x1="84.1436" y1="27.3766" x2="85.1316" y2="67.1246" gradientUnits="userSpaceOnUse">
<stop stop-color="#ECEFF1" style="stop-color:#ECEFF1;stop-color:color(display-p3 0.9255 0.9373 0.9451);stop-opacity:1;"/>
<stop offset="1" stop-color="#B0BEC5" style="stop-color:#B0BEC5;stop-color:color(display-p3 0.6902 0.7451 0.7725);stop-opacity:1;"/>
</linearGradient>
<linearGradient id="paint9_linear_1019_2356" x1="58.8026" y1="114.85" x2="58.8026" y2="122.26" gradientUnits="userSpaceOnUse">
<stop stop-color="#CFD8DC" style="stop-color:#CFD8DC;stop-color:color(display-p3 0.8118 0.8471 0.8627);stop-opacity:1;"/>
<stop offset="1" stop-color="#90A4AE" style="stop-color:#90A4AE;stop-color:color(display-p3 0.5647 0.6431 0.6824);stop-opacity:1;"/>
</linearGradient>
<linearGradient id="paint10_linear_1019_2356" x1="100.785" y1="113.62" x2="100.785" y2="122.03" gradientUnits="userSpaceOnUse">
<stop stop-color="#CFD8DC" style="stop-color:#CFD8DC;stop-color:color(display-p3 0.8118 0.8471 0.8627);stop-opacity:1;"/>
<stop offset="1" stop-color="#90A4AE" style="stop-color:#90A4AE;stop-color:color(display-p3 0.5647 0.6431 0.6824);stop-opacity:1;"/>
</linearGradient>
<radialGradient id="paint11_radial_1019_2356" cx="0" cy="0" r="1" gradientUnits="userSpaceOnUse" gradientTransform="translate(116.571 27.8468) rotate(10.8009) scale(10.9702 9.31505)">
<stop offset="0.0029297" stop-color="#90A4AE" style="stop-color:#90A4AE;stop-color:color(display-p3 0.5647 0.6431 0.6824);stop-opacity:1;"/>
<stop offset="0.4219" stop-color="#B0BEC5" style="stop-color:#B0BEC5;stop-color:color(display-p3 0.6902 0.7451 0.7725);stop-opacity:1;"/>
<stop offset="0.8419" stop-color="#ECEFF1" style="stop-color:#ECEFF1;stop-color:color(display-p3 0.9255 0.9373 0.9451);stop-opacity:1;"/>
</radialGradient>
<linearGradient id="paint12_linear_1019_2356" x1="117.403" y1="23.0607" x2="116.336" y2="27.9198" gradientUnits="userSpaceOnUse">
<stop stop-color="#ECEFF1" style="stop-color:#ECEFF1;stop-color:color(display-p3 0.9255 0.9373 0.9451);stop-opacity:1;"/>
<stop offset="0.9354" stop-color="#B0BEC5" style="stop-color:#B0BEC5;stop-color:color(display-p3 0.6902 0.7451 0.7725);stop-opacity:1;"/>
</linearGradient>
</defs>
</svg>
