<svg width="128" height="129" viewBox="0 0 128 129" fill="none" xmlns="http://www.w3.org/2000/svg">
<path d="M102.254 108.013L100.16 104.659L94.4707 98.4761L92.2848 95.141C92.3525 95.0277 92.4029 94.9112 92.4207 94.7708C92.6372 93.6251 93.0724 91.3161 93.0724 91.3161C93.0724 91.3161 89.4778 89.6814 88.3669 89.1734L88.3495 89.1702L77.5314 72.6681L70.5262 77.9891L83.8671 96.4332C83.8047 96.5744 83.771 102.458 83.771 102.458L88.0348 102.186L88.1259 102.31L90.552 105.788C90.3284 105.936 90.1095 111.876 90.1095 111.876C90.1095 111.876 93.3235 112.229 94.9358 112.083L95.3715 112.719L101.512 119.559L106.978 115.556L104.986 112.382C105.208 111.121 105.498 107.501 105.498 107.501C105.498 107.501 102.691 107.869 102.254 108.013Z" fill="#7CB342" style="fill:#7CB342;fill:color(display-p3 0.4863 0.7020 0.2588);fill-opacity:1;"/>
<path d="M102.254 108.013L100.16 104.659L94.4707 98.4761L92.2848 95.141C92.3525 95.0277 92.4029 94.9112 92.4207 94.7708C92.6372 93.6251 93.0724 91.3161 93.0724 91.3161C93.0724 91.3161 89.4778 89.6814 88.3669 89.1734L88.3495 89.1702L77.5314 72.6681L70.5262 77.9891L83.8671 96.4332C83.8047 96.5744 83.771 102.458 83.771 102.458L88.0348 102.186L88.1259 102.31L90.552 105.788C90.3284 105.936 90.1095 111.876 90.1095 111.876C90.1095 111.876 93.3235 112.229 94.9358 112.083L95.3715 112.719L101.512 119.559L106.978 115.556L104.986 112.382C105.208 111.121 105.498 107.501 105.498 107.501C105.498 107.501 102.691 107.869 102.254 108.013Z" fill="#8BC02B" style="fill:#8BC02B;fill:color(display-p3 0.5451 0.7529 0.1686);fill-opacity:1;"/>
<path d="M73.4638 75.6068C73.4638 75.6068 79.4753 81.0678 86.5839 78.1804C91.7026 76.0996 95.2143 66.3795 95.2143 66.3795C95.2143 66.3795 83.3166 60.2974 78.0454 64.8796C73.2871 69.0047 73.4599 73.3624 73.4638 75.6068Z" fill="#7CB342" style="fill:#7CB342;fill:color(display-p3 0.4863 0.7020 0.2588);fill-opacity:1;"/>
<path d="M73.4638 75.6068C73.4638 75.6068 79.4753 81.0678 86.5839 78.1804C91.7026 76.0996 95.2143 66.3795 95.2143 66.3795C95.2143 66.3795 83.3166 60.2974 78.0454 64.8796C73.2871 69.0047 73.4599 73.3624 73.4638 75.6068Z" fill="#8BC02B" style="fill:#8BC02B;fill:color(display-p3 0.5451 0.7529 0.1686);fill-opacity:1;"/>
<path d="M71.0391 75.6801C71.0391 75.6801 75.6583 81.851 71.2323 88.9365C68.0477 94.0281 57.3951 95.9771 57.3951 95.9771C57.3951 95.9771 53.6467 82.0889 59.4199 77.2903C64.6222 72.9667 68.7519 75.2521 71.0391 75.6801Z" fill="#7CB342" style="fill:#7CB342;fill:color(display-p3 0.4863 0.7020 0.2588);fill-opacity:1;"/>
<path d="M71.0391 75.6801C71.0391 75.6801 75.6583 81.851 71.2323 88.9365C68.0477 94.0281 57.3951 95.9771 57.3951 95.9771C57.3951 95.9771 53.6467 82.0889 59.4199 77.2903C64.6222 72.9667 68.7519 75.2521 71.0391 75.6801Z" fill="#8BC02B" style="fill:#8BC02B;fill:color(display-p3 0.5451 0.7529 0.1686);fill-opacity:1;"/>
<path d="M72.2721 76.519C79.1787 71.4612 81.471 62.8459 77.3922 57.2762C73.3134 51.7064 64.408 51.2913 57.5015 56.349C50.5949 61.4067 48.3026 70.022 52.3814 75.5918C56.4603 81.1616 65.3656 81.5767 72.2721 76.519Z" fill="#558B2F" style="fill:#558B2F;fill:color(display-p3 0.3333 0.5451 0.1843);fill-opacity:1;"/>
<path d="M72.2721 76.519C79.1787 71.4612 81.471 62.8459 77.3922 57.2762C73.3134 51.7064 64.408 51.2913 57.5015 56.349C50.5949 61.4067 48.3026 70.022 52.3814 75.5918C56.4603 81.1616 65.3656 81.5767 72.2721 76.519Z" fill="#65A21B" style="fill:#65A21B;fill:color(display-p3 0.3961 0.6353 0.1059);fill-opacity:1;"/>
<g opacity="0.2">
<path opacity="0.2" d="M59.2166 58.2669C65.1603 53.9143 72.6935 54.053 76.0071 58.578C79.3208 63.1029 77.1792 70.3266 71.2355 74.6792C65.2918 79.0318 57.7586 78.8931 54.445 74.3682C51.1313 69.8433 53.273 62.6196 59.2166 58.2669ZM57.8436 56.392C50.8562 61.5089 48.492 70.1726 52.57 75.7413C56.648 81.3099 65.6149 81.6757 72.6086 76.5542C79.596 71.4372 81.9601 62.7736 77.8821 57.2049C73.8041 51.6362 64.8309 51.275 57.8436 56.392Z" fill="#424242" style="fill:#424242;fill:color(display-p3 0.2588 0.2588 0.2588);fill-opacity:1;"/>
</g>
<path d="M39.7942 29.4995C39.0724 26.2156 39.7252 22.6315 41.5574 19.7706C43.0866 17.3832 45.4304 15.3958 46.0873 12.6505C48.7055 13.3361 51.3504 14.0312 53.7138 15.3097C56.0773 16.5883 58.1926 18.5226 59.1281 21.0501C59.9033 23.1434 59.8112 25.5041 59.1438 27.6572C58.4718 29.8039 57.2494 31.7635 55.8132 33.5119C55.0303 34.4723 54.1518 35.3963 53.0527 35.9786C52.0332 36.522 50.8703 36.7349 49.7358 36.9465C48.5968 37.1517 46.9169 37.8012 45.7727 37.6231C44.904 37.4852 43.9751 36.4721 43.3755 35.8952C42.4691 35.0204 41.6916 34.0125 41.0772 32.9046C40.7797 32.3774 40.5206 31.8221 40.3092 31.2512C40.1386 30.7762 40.0802 29.89 39.7942 29.4995Z" fill="#C40E00" style="fill:#C40E00;fill:color(display-p3 0.7686 0.0549 0.0000);fill-opacity:1;"/>
<path d="M34.8512 56.0742C35.9525 59.4327 35.9515 63.627 37.5332 66.7864C39.6468 71.0274 44.1136 74.7201 48.6395 76.1916C51.7744 77.2106 55.384 77.1941 58.5215 76.1384C65.3104 73.8606 74.5945 67.3483 76.8219 58.868C79.0493 50.3877 75.9024 40.7898 69.0901 35.328C67.3204 33.9111 65.3238 32.7367 63.8785 30.9867C61.7638 28.4277 60.3116 25.8134 59.7515 22.5363C57.3117 24.7815 56.671 27.037 54.6822 29.6876C51.5871 33.8264 46.883 37.491 41.7338 37.8516C28.2752 38.7949 26.5703 46.2526 27.8929 47.5194C32.5171 51.9661 34.1405 53.92 34.8512 56.0742Z" fill="#C90000" style="fill:#C90000;fill:color(display-p3 0.7882 0.0000 0.0000);fill-opacity:1;"/>
<path d="M31.6506 42.1222C31.6506 42.1222 21.3234 38.937 24.9086 26.9208C24.9086 26.9208 26.8517 27.1065 28.6098 25.9799C30.3678 24.8533 31.551 21.9761 35.5779 22.3249C39.6048 22.6738 42.9243 20.4741 43.8897 19.4454C44.8551 18.4167 50.2898 18.7701 48.0208 26.0521C45.5358 34.005 44.1165 35.165 44.1165 35.165C44.1165 35.165 35.3007 40.897 33.7857 41.6043C32.2578 42.321 31.6506 42.1222 31.6506 42.1222Z" fill="url(#paint0_linear_183_270)" style=""/>
<path d="M34.656 34.4607C34.656 34.4607 38.1896 27.7569 42.9064 27.1222C47.6233 26.4875 40.1217 33.2776 38.6134 34.2238C37.1051 35.1701 34.656 34.4607 34.656 34.4607Z" fill="#A62121" style="fill:#A62121;fill:color(display-p3 0.6510 0.1294 0.1294);fill-opacity:1;"/>
<path d="M24.6828 64.8415C26.0566 63.7787 27.9937 63.7607 29.6455 64.2451C31.2972 64.7295 32.7744 65.6446 34.3499 66.3268C39.1989 68.4351 44.8593 68.293 49.9572 66.7269C55.0615 65.1562 59.6691 62.2646 63.912 59.006C65.159 58.0456 66.3896 57.0497 67.7802 56.3247C69.1708 55.5998 70.7734 55.1643 72.3138 55.418C71.058 53.7162 68.8462 52.9132 66.707 52.852C64.5678 52.7908 62.4584 53.3608 60.3876 53.9309C56.57 54.9758 52.757 56.0269 48.9331 57.0763C46.9088 57.6313 44.8738 58.1847 42.7855 58.2849C40.7035 58.3806 39.1496 57.5312 37.4792 56.3129C35.6307 54.9694 33.9786 53.2644 32.6923 51.3768C31.6642 49.8679 30.2922 48.4404 28.5162 47.8388C26.8596 47.2823 26.0895 48.2248 25.3584 49.6403C23.8018 52.6445 23.1195 56.0684 23.3701 59.4149C23.4011 59.9032 24.606 64.9072 24.6828 64.8415Z" fill="#E50500" style="fill:#E50500;fill:color(display-p3 0.8980 0.0196 0.0000);fill-opacity:1;"/>
<path d="M34.0599 35.3982C34.8984 33.9719 40.192 33.0582 41.6563 32.2905C44.5001 30.7986 45.2479 30.5464 46.8368 27.5368C48.0329 25.2764 48.4179 24.3206 48.2097 21.0118C48.9721 24.4039 53.042 25.7617 53.548 28.8893C54.6728 35.8005 42.5883 39.8689 40.699 40.191C39.2028 40.4375 35.2783 41.7516 34.0599 35.3982Z" fill="#EF5350" style="fill:#EF5350;fill:color(display-p3 0.9373 0.3255 0.3137);fill-opacity:1;"/>
<path d="M18.7239 38.1465C14.1314 53.3546 37.7206 49.3556 42.3763 47.7677C46.7441 46.2762 50.836 42.9269 53.1183 38.9094C53.7499 37.7888 54.3344 36.6168 54.5773 35.3517C54.8202 34.0866 55.2113 30.5386 54.5274 29.4372C50.5922 35.1896 39.2114 42.0552 30.5517 38.7549C26.654 37.2698 26.3009 32.9888 25.2226 32.9201C22.5654 32.7297 19.4129 35.868 18.7239 38.1465Z" fill="url(#paint1_linear_183_270)" style=""/>
<path d="M53.0685 34.5097C58.3845 29.6047 55.4483 22.9417 58.3475 21.0287C60.6537 20.5524 63.1743 21.3802 64.7412 23.1258C66.3082 24.8715 66.8129 27.4523 66.1305 29.6994C62.8306 40.5758 56.7235 36.9129 56.9325 40.6269C57.269 46.6824 55.1022 51.1719 51.3226 53.3669C45.2876 56.8697 36.5375 52.908 38.2423 52.2802C48.3825 48.5114 45.0223 41.9394 53.0685 34.5097Z" fill="#F41E0F" style="fill:#F41E0F;fill:color(display-p3 0.9569 0.1176 0.0588);fill-opacity:1;"/>
<defs>
<linearGradient id="paint0_linear_183_270" x1="39.1525" y1="42.1775" x2="34.7924" y2="16.9603" gradientUnits="userSpaceOnUse">
<stop offset="0.1454" stop-color="#B71C1C" style="stop-color:#B71C1C;stop-color:color(display-p3 0.7176 0.1098 0.1098);stop-opacity:1;"/>
<stop offset="0.2941" stop-color="#C82723" style="stop-color:#C82723;stop-color:color(display-p3 0.7843 0.1529 0.1373);stop-opacity:1;"/>
<stop offset="0.5563" stop-color="#E0362E" style="stop-color:#E0362E;stop-color:color(display-p3 0.8784 0.2118 0.1804);stop-opacity:1;"/>
<stop offset="0.7985" stop-color="#EF4034" style="stop-color:#EF4034;stop-color:color(display-p3 0.9373 0.2510 0.2039);stop-opacity:1;"/>
<stop offset="1" stop-color="#F44336" style="stop-color:#F44336;stop-color:color(display-p3 0.9569 0.2627 0.2118);stop-opacity:1;"/>
</linearGradient>
<linearGradient id="paint1_linear_183_270" x1="21.7812" y1="49.0382" x2="52.4466" y2="26.5816" gradientUnits="userSpaceOnUse">
<stop offset="0.0003417" stop-color="#E53935" style="stop-color:#E53935;stop-color:color(display-p3 0.8980 0.2235 0.2078);stop-opacity:1;"/>
<stop offset="0.2376" stop-color="#E03632" style="stop-color:#E03632;stop-color:color(display-p3 0.8784 0.2118 0.1961);stop-opacity:1;"/>
<stop offset="0.5228" stop-color="#D12D2A" style="stop-color:#D12D2A;stop-color:color(display-p3 0.8196 0.1765 0.1647);stop-opacity:1;"/>
<stop offset="0.8317" stop-color="#B91D1D" style="stop-color:#B91D1D;stop-color:color(display-p3 0.7255 0.1137 0.1137);stop-opacity:1;"/>
<stop offset="0.8546" stop-color="#B71C1C" style="stop-color:#B71C1C;stop-color:color(display-p3 0.7176 0.1098 0.1098);stop-opacity:1;"/>
</linearGradient>
</defs>
</svg>
