<svg width="128" height="129" viewBox="0 0 128 129" fill="none" xmlns="http://www.w3.org/2000/svg">
<path d="M4 21.875C5.8 20.775 7.7 19.775 9.4 19.075C11.2 18.275 12.9 17.675 14.6 17.075C15.875 16.625 17.15 16.3438 18.425 16.0625C18.85 15.9688 19.275 15.875 19.7 15.775C21.4 15.475 23 15.275 24.6 15.075C26.2 14.975 27.8 14.875 29.4 14.875C31 14.875 32.5 14.975 34 15.075C35.5 15.175 37 15.375 38.5 15.575C40 15.775 41.5 15.975 42.9 16.275C43.5999 16.425 44.3248 16.575 45.0497 16.7249C45.7747 16.8749 46.5 17.025 47.2 17.175C48.5999 17.475 49.9998 17.8749 51.3997 18.2749L76.6 25.475C77.3 25.675 78 25.85 78.7 26.025C79.4 26.2 80.1 26.375 80.8 26.575C81.5 26.725 82.225 26.875 82.95 27.025C83.675 27.175 84.4 27.325 85.1 27.475C86.5 27.775 87.9999 27.975 89.4999 28.175C90.9999 28.375 92.5 28.575 94 28.675C95.5 28.775 97.1 28.875 98.6 28.875C100.011 28.875 101.511 28.7865 103.1 28.6927L103.4 28.675C104.876 28.5882 106.201 28.3507 107.637 28.0933C107.855 28.0542 108.076 28.0146 108.3 27.975C110 27.675 111.6 27.275 113.4 26.675C115.2 26.075 116.9 25.475 118.6 24.675C120.3 23.875 122.2 22.975 124 21.875L124 108.805C122.2 109.905 120.3 110.905 118.6 111.605C116.8 112.405 115.1 113.005 113.4 113.605C112.125 114.055 110.85 114.336 109.575 114.617C109.15 114.711 108.725 114.805 108.3 114.905C107.037 115.202 105.829 115.333 104.635 115.463C104.222 115.508 103.811 115.553 103.4 115.605C101.8 115.705 100.2 115.805 98.6 115.805C97 115.805 95.5 115.705 94 115.605C92.5 115.505 91 115.305 89.5 115.105C88 114.905 86.6 114.705 85.1 114.405C83.6001 114.105 82.2002 113.805 80.8003 113.505C79.4004 113.205 78.0002 112.805 76.6003 112.405L51.4 105.205C50.7 105.005 50 104.83 49.3 104.655C48.6 104.48 47.9 104.305 47.2 104.105C46.2922 103.845 45.3424 103.67 44.4051 103.497C43.8968 103.403 43.3922 103.31 42.9 103.205C41.4 102.905 40 102.705 38.5 102.505C37.0001 102.305 35.4999 102.105 34 102.005C32.5 101.905 30.9 101.805 29.4 101.805C27.9886 101.805 26.4888 101.893 24.9003 101.987C24.8006 101.993 24.7005 101.999 24.6 102.005C23.1244 102.091 21.7994 102.329 20.3635 102.586C20.1452 102.625 19.9244 102.665 19.7 102.705C18 103.005 16.4 103.405 14.6 104.005C12.8 104.605 11.1 105.205 9.4 106.005C7.7 106.805 5.8 107.705 4 108.805V21.875Z" fill="#5A2EA7" style="fill:#5A2EA7;fill:color(display-p3 0.3528 0.1799 0.6542);fill-opacity:1;"/>
<path opacity="0.3" d="M124 108.245C122.15 109.365 120.34 110.305 118.57 111.095C116.79 111.895 115.05 112.545 113.33 113.075C111.61 113.605 109.93 114.025 108.27 114.335C106.61 114.655 104.98 114.875 103.38 115.015C101.77 115.155 100.19 115.215 98.63 115.215C97.07 115.215 95.53 115.155 94.01 115.035C92.49 114.925 90.99 114.755 89.51 114.555C88.03 114.345 86.56 114.105 85.11 113.825C83.66 113.545 82.22 113.245 80.79 112.915C79.36 112.585 77.94 112.235 76.54 111.865C75.14 111.495 73.73 111.105 72.33 110.715C70.93 110.315 69.54 109.905 68.16 109.495C66.77 109.085 65.39 108.665 64 108.245C62.62 107.825 61.23 107.405 59.84 106.995C58.45 106.585 57.06 106.175 55.67 105.775C54.27 105.375 52.87 104.995 51.46 104.625C50.05 104.255 48.63 103.905 47.21 103.575C45.79 103.245 44.34 102.935 42.89 102.665C41.44 102.385 39.97 102.145 38.49 101.935C37.01 101.725 35.51 101.565 33.99 101.455C32.47 101.345 30.93 101.275 29.37 101.275C27.81 101.275 26.23 101.335 24.62 101.475C23.01 101.615 21.38 101.835 19.73 102.155C18.07 102.475 16.39 102.885 14.67 103.415C12.95 103.945 11.21 104.595 9.43 105.395C7.65 106.195 5.84 107.135 4 108.245V102.635V97.315V92.245V87.385V82.705C4 82.705 4 79.655 4 78.165V73.735C4 73.735 4 70.815 4 69.375C4 67.935 4 66.485 4 65.045V60.715V56.355V51.925C4 51.925 4 48.925 4 47.385C4 45.845 4 44.295 4 42.705V37.845C4 37.845 4 34.505 4 32.775V27.455V21.845C5.85 20.725 7.66 19.785 9.43 18.995C11.2 18.205 12.95 17.545 14.67 17.015C16.39 16.485 18.07 16.065 19.73 15.755C21.39 15.435 23.02 15.215 24.62 15.075C26.23 14.935 27.81 14.875 29.37 14.875C30.93 14.875 32.47 14.935 33.99 15.055C35.51 15.165 37.01 15.335 38.49 15.535C39.97 15.735 41.44 15.985 42.89 16.265C44.34 16.545 45.78 16.845 47.21 17.175C48.64 17.505 50.06 17.855 51.46 18.225C52.87 18.595 54.27 18.985 55.67 19.375C57.07 19.765 58.46 20.185 59.84 20.595C61.22 21.005 62.61 21.425 64 21.845C65.38 22.265 66.77 22.685 68.16 23.095C69.55 23.505 70.94 23.915 72.33 24.315C73.72 24.715 75.13 25.095 76.54 25.465C77.95 25.835 79.37 26.185 80.79 26.515C82.22 26.845 83.66 27.155 85.11 27.425C86.56 27.705 88.03 27.945 89.51 28.155C90.99 28.365 92.49 28.525 94.01 28.635C95.53 28.745 97.07 28.815 98.63 28.815C100.19 28.815 101.77 28.755 103.38 28.615C104.99 28.475 106.62 28.255 108.27 27.935C109.93 27.615 111.61 27.205 113.33 26.675C115.05 26.145 116.79 25.495 118.57 24.695C120.35 23.895 122.16 22.955 124 21.845V27.455V32.775V37.845C124 37.845 124 41.115 124 42.705V47.385C124 47.385 124 50.435 124 51.925C124 53.415 124 54.895 124 56.355V60.715V65.045V69.375C124 69.375 124 72.275 124 73.735C124 75.195 124 76.675 124 78.165V82.705C124 82.705 124 85.795 124 87.385V92.245V97.315V102.635V108.245Z" fill="url(#paint0_linear_177_587)" style=""/>
<defs>
<linearGradient id="paint0_linear_177_587" x1="5.3703" y1="23.704" x2="122.37" y2="106.205" gradientUnits="userSpaceOnUse">
<stop stop-color="white" stop-opacity="0" style="stop-color:none;stop-opacity:0;"/>
<stop offset="0.1646" stop-color="#C8C8C8" stop-opacity="0.1646" style="stop-color:#C8C8C8;stop-color:color(display-p3 0.7843 0.7843 0.7843);stop-opacity:0.1646;"/>
<stop offset="0.3934" stop-color="#828282" stop-opacity="0.3934" style="stop-color:#828282;stop-color:color(display-p3 0.5098 0.5098 0.5098);stop-opacity:0.3934;"/>
<stop offset="0.5997" stop-color="#4A4A4A" stop-opacity="0.5997" style="stop-color:#4A4A4A;stop-color:color(display-p3 0.2902 0.2902 0.2902);stop-opacity:0.5997;"/>
<stop offset="0.7759" stop-color="#222222" stop-opacity="0.7759" style="stop-color:#222222;stop-color:color(display-p3 0.1333 0.1333 0.1333);stop-opacity:0.7759;"/>
<stop offset="0.9151" stop-color="#090909" stop-opacity="0.9151" style="stop-color:#090909;stop-color:color(display-p3 0.0353 0.0353 0.0353);stop-opacity:0.9151;"/>
<stop offset="1" style="stop-color:black;stop-opacity:1;"/>
</linearGradient>
</defs>
</svg>
