<svg width="128" height="129" viewBox="0 0 128 129" fill="none" xmlns="http://www.w3.org/2000/svg">
<path d="M92.5853 51.3137L102.305 34.4763C102.854 33.5324 102.522 32.3334 101.591 31.7849C100.66 31.2364 99.4478 31.5553 98.912 32.4992L89.0647 49.5534C81.5517 46.1222 73.0947 44.2088 64 44.2088C54.9053 44.2088 46.4483 46.1222 38.9353 49.5534L29.0879 32.4992C28.5395 31.5553 27.3404 31.2364 26.3965 31.7849C25.4526 32.3334 25.1337 33.5324 25.6822 34.4763L35.402 51.3137C20.8215 59.2142 10.3338 73.0801 6.61755 89.6282C5.7135 93.6538 8.97968 97.221 13.1056 97.221H114.894C119.02 97.221 122.286 93.6538 121.382 89.6282C117.666 73.0801 107.177 59.2142 92.5853 51.3137ZM37.0984 80.7663C34.3815 80.7663 32.1876 78.5596 32.1876 75.8554C32.1876 73.1385 34.3943 70.9446 37.0984 70.9446C39.8154 70.9446 42.0094 73.1513 42.0094 75.8554C42.0222 78.5596 39.8154 80.7663 37.0984 80.7663ZM90.8888 80.7663C88.1718 80.7663 85.9779 78.5596 85.9779 75.8554C85.9779 73.1385 88.1846 70.9446 90.8888 70.9446C93.6057 70.9446 95.7997 73.1513 95.7997 75.8554C95.8124 78.5596 93.6057 80.7663 90.8888 80.7663Z" fill="url(#paint0_linear_33_1271)" style=""/>
<defs>
<linearGradient id="paint0_linear_33_1271" x1="64" y1="31.5165" x2="64" y2="97.221" gradientUnits="userSpaceOnUse">
<stop stop-color="#43CC84" style="stop-color:#43CC84;stop-color:color(display-p3 0.2627 0.8000 0.5176);stop-opacity:1;"/>
<stop offset="1" stop-color="#43CC84" style="stop-color:#43CC84;stop-color:color(display-p3 0.2633 0.8000 0.5192);stop-opacity:1;"/>
</linearGradient>
</defs>
</svg>
