<svg width="128" height="128" viewBox="0 0 128 128" fill="none" xmlns="http://www.w3.org/2000/svg">
<path d="M74.0598 115.46C85.4398 126.84 104.07 126.84 115.46 115.46C126.84 104.08 126.84 85.4498 115.46 74.0598L84.6998 43.2998L43.2998 84.6998L74.0598 115.46Z" fill="#F44336" style="fill:#F44336;fill:color(display-p3 0.9569 0.2627 0.2118);fill-opacity:1;"/>
<path d="M74.0598 115.46C85.4398 126.84 104.07 126.84 115.46 115.46C126.84 104.08 126.84 85.4498 115.46 74.0598L84.6998 43.2998L43.2998 84.6998L74.0598 115.46Z" fill="#FDD835" style="fill:#FDD835;fill:color(display-p3 0.9922 0.8471 0.2078);fill-opacity:1;"/>
<path d="M84.6999 43.2999L53.9399 12.5399C42.5599 1.15988 23.9299 1.15988 12.5399 12.5399C1.15988 23.9199 1.15988 42.5499 12.5399 53.9399L43.2999 84.6999L84.6999 43.2999Z" fill="#FDD835" style="fill:#FDD835;fill:color(display-p3 0.9922 0.8471 0.2078);fill-opacity:1;"/>
<path d="M84.6999 43.2999L53.9399 12.5399C42.5599 1.15988 23.9299 1.15988 12.5399 12.5399C1.15988 23.9199 1.15988 42.5499 12.5399 53.9399L43.2999 84.6999L84.6999 43.2999Z" fill="#F44336" style="fill:#F44336;fill:color(display-p3 0.9569 0.2627 0.2118);fill-opacity:1;"/>
<path d="M45.4191 86.825L86.8198 45.4243L84.6985 43.303L43.2978 84.7037L45.4191 86.825Z" fill="#C62828" style="fill:#C62828;fill:color(display-p3 0.7765 0.1569 0.1569);fill-opacity:1;"/>
<g opacity="0.65">
<path opacity="0.65" d="M66.9785 33.6391C79.1385 46.8891 101.199 71.8891 101.199 71.8891C104.059 74.4991 107.989 81.2291 105.419 83.5491C102.679 86.0291 96.2985 80.7991 93.4385 78.1891L46.7685 34.2791C43.9185 31.6691 34.3785 23.2191 36.2385 17.2691C39.7485 6.03914 53.4385 18.8791 66.9785 33.6391Z" fill="white" style="fill:white;fill-opacity:1;"/>
</g>
</svg>
