<svg width="128" height="128" viewBox="0 0 128 128" fill="none" xmlns="http://www.w3.org/2000/svg">
<g opacity="0.2">
<path d="M99.73 7.09009C102.49 7.09009 104.73 9.33009 104.73 12.0901V116.09C104.73 118.85 102.49 121.09 99.73 121.09H27.73C24.97 121.09 22.73 118.85 22.73 116.09V12.0901C22.73 9.33009 24.97 7.09009 27.73 7.09009H99.73ZM99.73 4.09009H27.73C23.31 4.09009 19.73 7.67009 19.73 12.0901V116.09C19.73 120.51 23.31 124.09 27.73 124.09H99.73C104.15 124.09 107.73 120.51 107.73 116.09V12.0901C107.73 7.67009 104.15 4.09009 99.73 4.09009Z" fill="#212121" style="fill:#212121;fill:color(display-p3 0.1294 0.1294 0.1294);fill-opacity:1;"/>
<path d="M99.73 7.09009C102.49 7.09009 104.73 9.33009 104.73 12.0901V116.09C104.73 118.85 102.49 121.09 99.73 121.09H27.73C24.97 121.09 22.73 118.85 22.73 116.09V12.0901C22.73 9.33009 24.97 7.09009 27.73 7.09009H99.73ZM99.73 4.09009H27.73C23.31 4.09009 19.73 7.67009 19.73 12.0901V116.09C19.73 120.51 23.31 124.09 27.73 124.09H99.73C104.15 124.09 107.73 120.51 107.73 116.09V12.0901C107.73 7.67009 104.15 4.09009 99.73 4.09009Z" fill="#212121" style="fill:#212121;fill:color(display-p3 0.1294 0.1294 0.1294);fill-opacity:1;"/>
<path d="M99.73 7.09009C102.49 7.09009 104.73 9.33009 104.73 12.0901V116.09C104.73 118.85 102.49 121.09 99.73 121.09H27.73C24.97 121.09 22.73 118.85 22.73 116.09V12.0901C22.73 9.33009 24.97 7.09009 27.73 7.09009H99.73ZM99.73 4.09009H27.73C23.31 4.09009 19.73 7.67009 19.73 12.0901V116.09C19.73 120.51 23.31 124.09 27.73 124.09H99.73C104.15 124.09 107.73 120.51 107.73 116.09V12.0901C107.73 7.67009 104.15 4.09009 99.73 4.09009Z" fill="#212121" style="fill:#212121;fill:color(display-p3 0.1294 0.1294 0.1294);fill-opacity:1;"/>
</g>
<path d="M102.29 125.43L26.2695 125.06C22.8195 125.06 20.0195 122.26 20.0195 118.81L32.2195 26.6801L102.41 4.5001C108.54 4.1701 108.89 7.0301 108.89 10.4801L108.52 119.17C108.54 122.64 105.74 125.43 102.29 125.43Z" fill="#D9CDC9" style="fill:#D9CDC9;fill:color(display-p3 0.8510 0.8039 0.7882);fill-opacity:1;"/>
<path d="M101.83 122.06C101.83 122.06 44.0696 123.04 25.3596 121.98C21.7796 121.78 20.0296 120.36 20.0196 118.82L19.8496 10.3301C19.8496 6.88008 22.6496 4.08008 26.0996 4.08008L101.74 4.40008C105.19 4.40008 106.5 7.26008 106.5 10.7101L105.93 116.11C105.91 119.56 105.28 122.06 101.83 122.06Z" fill="#F1EDEC" style="fill:#F1EDEC;fill:color(display-p3 0.9451 0.9294 0.9255);fill-opacity:1;"/>
<path d="M65.2668 66.5556C66.0334 67.6667 67.9501 69.3333 69.8668 69.3333C73.3168 69.3333 74.8501 67.1111 74.8501 64.3333C74.8501 61.5556 73.3168 59.0556 69.8668 59.0556C67.9501 59.0556 66.8001 60.4444 65.6501 61.2778C65.2668 61.5556 64.8834 61.2778 65.2668 61C66.4168 60.1667 68.3334 57.9444 68.3334 56C68.3334 53.7778 66.4168 51 63.3501 51C60.2834 51 58.3668 53.7778 58.3668 56C58.3668 57.9444 60.2834 60.1667 61.4334 61C61.8168 61.2778 61.4334 61.5556 61.0501 61.2778C59.9001 60.4444 58.7501 59.0556 56.8334 59.0556C53.3834 59.0556 51.8501 61.5556 51.8501 64.3333C51.8501 67.1111 53.3834 69.3333 56.8334 69.3333C58.7501 69.3333 60.6668 67.6667 61.4334 66.5556C61.8168 66.2778 61.8168 66.5556 61.8168 66.8333C61.4334 69.0556 61.4334 69.6111 61.0501 71.2778C60.6668 72.9444 59.5168 76 59.5168 76C61.4334 75.4444 65.2668 75.4444 67.1834 76C67.1834 76 66.0334 72.9444 65.6501 71.2778C65.2668 69.6111 65.2668 69.0556 64.8834 66.8333C64.8834 66.5556 64.8834 66.2778 65.2668 66.5556Z" fill="#212121" style="fill:#212121;fill:color(display-p3 0.1294 0.1294 0.1294);fill-opacity:1;"/>
<path d="M65.2668 66.5556C66.0334 67.6667 67.9501 69.3333 69.8668 69.3333C73.3168 69.3333 74.8501 67.1111 74.8501 64.3333C74.8501 61.5556 73.3168 59.0556 69.8668 59.0556C67.9501 59.0556 66.8001 60.4444 65.6501 61.2778C65.2668 61.5556 64.8834 61.2778 65.2668 61C66.4168 60.1667 68.3334 57.9444 68.3334 56C68.3334 53.7778 66.4168 51 63.3501 51C60.2834 51 58.3668 53.7778 58.3668 56C58.3668 57.9444 60.2834 60.1667 61.4334 61C61.8168 61.2778 61.4334 61.5556 61.0501 61.2778C59.9001 60.4444 58.7501 59.0556 56.8334 59.0556C53.3834 59.0556 51.8501 61.5556 51.8501 64.3333C51.8501 67.1111 53.3834 69.3333 56.8334 69.3333C58.7501 69.3333 60.6668 67.6667 61.4334 66.5556C61.8168 66.2778 61.8168 66.5556 61.8168 66.8333C61.4334 69.0556 61.4334 69.6111 61.0501 71.2778C60.6668 72.9444 59.5168 76 59.5168 76C61.4334 75.4444 65.2668 75.4444 67.1834 76C67.1834 76 66.0334 72.9444 65.6501 71.2778C65.2668 69.6111 65.2668 69.0556 64.8834 66.8333C64.8834 66.5556 64.8834 66.2778 65.2668 66.5556Z" fill="#212121" style="fill:#212121;fill:color(display-p3 0.1294 0.1294 0.1294);fill-opacity:1;"/>
<path d="M65.2668 66.5556C66.0334 67.6667 67.9501 69.3333 69.8668 69.3333C73.3168 69.3333 74.8501 67.1111 74.8501 64.3333C74.8501 61.5556 73.3168 59.0556 69.8668 59.0556C67.9501 59.0556 66.8001 60.4444 65.6501 61.2778C65.2668 61.5556 64.8834 61.2778 65.2668 61C66.4168 60.1667 68.3334 57.9444 68.3334 56C68.3334 53.7778 66.4168 51 63.3501 51C60.2834 51 58.3668 53.7778 58.3668 56C58.3668 57.9444 60.2834 60.1667 61.4334 61C61.8168 61.2778 61.4334 61.5556 61.0501 61.2778C59.9001 60.4444 58.7501 59.0556 56.8334 59.0556C53.3834 59.0556 51.8501 61.5556 51.8501 64.3333C51.8501 67.1111 53.3834 69.3333 56.8334 69.3333C58.7501 69.3333 60.6668 67.6667 61.4334 66.5556C61.8168 66.2778 61.8168 66.5556 61.8168 66.8333C61.4334 69.0556 61.4334 69.6111 61.0501 71.2778C60.6668 72.9444 59.5168 76 59.5168 76C61.4334 75.4444 65.2668 75.4444 67.1834 76C67.1834 76 66.0334 72.9444 65.6501 71.2778C65.2668 69.6111 65.2668 69.0556 64.8834 66.8333C64.8834 66.5556 64.8834 66.2778 65.2668 66.5556Z" fill="#212121" style="fill:#212121;fill:color(display-p3 0.1294 0.1294 0.1294);fill-opacity:1;"/>
</svg>
