<svg width="129" height="128" viewBox="0 0 129 128" fill="none" xmlns="http://www.w3.org/2000/svg">
<path d="M67.4105 81.57C68.0005 82.16 67.8905 88.68 73.3105 93.01C79.2105 97.73 91.4805 100.91 99.1505 105.51C106.47 109.9 108.23 115.3 108.23 115.3C108.23 115.3 100.68 115.65 96.5505 116.95C92.4205 118.25 86.4005 120.73 86.4005 120.73C86.4005 120.73 82.6205 114.01 75.3105 109.99C68.0005 105.98 59.8605 104.56 54.5505 97.25C49.2405 89.94 49.8305 80.73 49.8305 80.73L67.4105 81.57Z" fill="#DBEFF5" style="fill:#DBEFF5;fill:color(display-p3 0.8588 0.9373 0.9608);fill-opacity:1;"/>
<path d="M59.7646 87.5899C61.3046 87.8999 62.3646 86.9999 62.4746 84.7599C62.5946 82.5199 62.5946 72.1399 62.5946 72.1399L58.9346 72.3799C58.9346 72.3799 58.8146 81.9399 58.5846 83.8199C58.3446 85.6999 57.9946 87.2399 59.7646 87.5899Z" fill="#6BA4AE" style="fill:#6BA4AE;fill:color(display-p3 0.4196 0.6431 0.6824);fill-opacity:1;"/>
<path d="M64.7304 96.4899C63.4104 96.9099 62.1504 96.3099 61.7904 95.0499C61.4304 93.7899 62.1504 92.7699 63.2904 92.5299C64.4304 92.2899 65.5704 92.9499 65.8704 94.2099C66.1704 95.4699 65.4304 96.2699 64.7304 96.4899Z" fill="#A7D0D7" style="fill:#A7D0D7;fill:color(display-p3 0.6549 0.8157 0.8431);fill-opacity:1;"/>
<path d="M71.8603 98.7699C72.7003 98.2399 74.1403 98.1099 75.1503 98.8899C76.1703 99.6699 76.1703 100.83 75.3303 101.41C74.5503 101.95 73.0503 101.83 72.2703 101.29C71.5003 100.74 70.7203 99.4899 71.8603 98.7699Z" fill="#A7D0D7" style="fill:#A7D0D7;fill:color(display-p3 0.6549 0.8157 0.8431);fill-opacity:1;"/>
<path d="M83.9606 103.62C85.5806 103.62 86.6006 104.52 86.6606 105.54C86.7206 106.56 85.4006 107.46 84.1406 107.34C82.9406 107.22 81.6206 106.8 81.6206 105.36C81.6206 104.4 82.7606 103.62 83.9606 103.62Z" fill="#A7D0D7" style="fill:#A7D0D7;fill:color(display-p3 0.6549 0.8157 0.8431);fill-opacity:1;"/>
<path d="M31.1345 71.8201C35.5845 75.7501 43.9545 77.9501 61.1745 76.8401C79.7145 75.6401 88.6845 66.0801 89.8045 64.7301C90.6345 63.7301 97.8445 50.1701 92.7545 34.3501C87.9045 19.2401 73.5145 8.58008 54.1145 10.0201C35.2145 11.4101 24.0145 26.1801 21.6745 36.7301C17.0645 57.5601 29.4445 70.3301 31.1345 71.8201Z" fill="url(#paint0_radial_1019_2599)" style=""/>
<path d="M53.5143 14.4399L49.6543 15.0899C49.6543 15.0899 53.0343 23.2599 55.9743 42.5399C58.8743 61.6299 58.8543 76.9599 58.8543 76.9599C58.8543 76.9599 59.6243 76.9199 60.6643 76.8799C61.7343 76.8399 62.5843 76.7299 62.5843 76.7299C62.5843 76.7299 62.0243 56.1699 59.6643 40.8299C57.0543 23.7999 53.5143 14.4399 53.5143 14.4399Z" fill="#00BFED" style="fill:#00BFED;fill:color(display-p3 0.0000 0.7490 0.9294);fill-opacity:1;"/>
<path d="M47.9043 11.0301C47.9043 11.0301 45.8143 13.0101 46.1443 14.2201C46.4743 15.4301 49.2243 19.6101 50.5443 19.8301C51.8643 20.0501 56.5943 15.9801 56.8143 14.1101C57.0343 12.2401 52.5243 10.3701 52.5243 10.3701C52.5243 10.3701 50.5443 5.09005 50.1043 4.21005C49.6643 3.33005 48.5643 2.67005 47.4643 2.89005C46.2043 3.14005 45.9243 4.79005 46.1443 5.31005C46.8043 6.85005 47.9043 11.0301 47.9043 11.0301Z" fill="#69A6AE" style="fill:#69A6AE;fill:color(display-p3 0.4118 0.6510 0.6824);fill-opacity:1;"/>
<path d="M43.5846 18.27C42.3646 17.15 37.2146 16.85 30.3546 28.18C23.4946 39.51 24.6846 47.92 27.6646 47.85C30.9246 47.78 29.9246 40.32 32.4746 35.11C36.0146 27.89 42.0246 23.01 43.3046 21.52C44.5846 20.04 44.4346 19.05 43.5846 18.27Z" fill="#FBFFFF" style="fill:#FBFFFF;fill:color(display-p3 0.9843 1.0000 1.0000);fill-opacity:1;"/>
<path d="M84.0445 35.1799C84.1845 33.1599 81.9445 30.7599 78.5945 31.8699C78.6445 31.7899 78.7045 31.7199 78.7545 31.6499C80.0445 29.4399 79.9545 25.4899 76.9145 24.2399C75.1445 23.5099 71.3445 24.8499 71.2845 29.0699C71.0645 28.7099 70.8345 28.3899 70.6245 28.1199C68.8545 25.9299 65.1745 24.6499 62.9145 27.2699C61.5045 28.8999 61.8145 33.5399 66.2645 34.9899C66.1345 35.0299 66.0045 35.0699 65.8945 35.1199C63.4745 36.1399 61.6545 39.1899 63.2545 41.9999C64.3045 43.8299 68.7945 44.6799 71.2645 41.0699C71.2945 41.0199 71.3145 40.9699 71.3445 40.9199C71.3445 41.0399 71.3345 41.1699 71.3345 41.2799C71.3245 43.7799 73.2245 46.5299 76.2845 46.1599C78.5645 45.8799 81.1845 42.9299 78.5745 39.1199C78.6345 39.1299 78.7045 39.1499 78.7645 39.1499C81.1245 39.4299 83.8445 38.0999 84.0445 35.1799ZM73.6645 36.5999C72.8945 36.8599 72.3345 37.3199 71.9845 38.0299C71.9145 37.2799 71.6745 36.5499 71.2645 35.9599C70.9845 35.5599 70.6145 35.2699 70.1945 35.0599C70.8845 34.8299 71.4745 34.4799 71.8245 33.9799C72.1045 33.5799 72.2545 33.1399 72.3045 32.6899C72.6545 33.1499 73.0845 33.5099 73.5945 33.6999C74.1045 33.8999 74.6045 33.9599 75.0945 33.9299C74.7645 34.3099 74.6645 34.7199 74.6345 35.3399C74.6145 35.7799 74.9045 36.4499 75.3245 36.8899C74.8645 36.6799 74.1945 36.4199 73.6645 36.5999Z" fill="#FFDCE8" style="fill:#FFDCE8;fill:color(display-p3 1.0000 0.8627 0.9098);fill-opacity:1;"/>
<path d="M52.2544 55.0999C51.1944 54.2699 50.1444 53.9099 49.1444 53.9499C49.5744 53.6199 49.9144 53.2299 50.1244 52.8299C51.0744 51.0099 50.3744 48.8999 49.0444 47.9899C47.7244 47.0799 44.9944 46.9099 43.7544 49.1499C43.5544 49.5199 43.3944 49.9699 43.3044 50.4599C42.8944 49.8499 42.2344 49.3299 41.2344 49.0299C38.5244 48.2199 37.0944 49.8199 36.3544 51.1399C35.3344 52.9499 35.9844 55.7699 38.4644 56.6799C38.9344 56.8499 39.3844 56.9299 39.8144 56.9499C37.7944 58.7999 38.3344 60.8799 38.9444 62.1499C39.7844 63.8999 42.1944 64.6299 44.3544 63.1399C45.9044 62.0699 46.4144 60.5499 46.4144 59.2399C46.7044 59.6499 47.1444 60.3499 47.6944 60.6399C49.9244 61.7799 52.1844 60.6799 52.9444 59.4999C53.5744 58.4899 53.6744 56.2199 52.2544 55.0999ZM46.2944 55.2699C46.0044 55.6399 45.7644 56.1099 45.7144 56.8199C45.2344 56.2399 44.2144 55.6399 42.9644 55.6199C43.3044 55.2499 43.5444 54.8499 43.6644 54.4799C43.8244 53.9999 43.9744 53.6899 43.9144 52.9899C44.1944 53.3599 44.5544 53.8299 45.3544 54.2299C45.9344 54.5199 46.6144 54.5899 47.2044 54.4799C46.8644 54.5899 46.5844 54.9099 46.2944 55.2699Z" fill="#FFDCE8" style="fill:#FFDCE8;fill:color(display-p3 1.0000 0.8627 0.9098);fill-opacity:1;"/>
<defs>
<radialGradient id="paint0_radial_1019_2599" cx="0" cy="0" r="1" gradientUnits="userSpaceOnUse" gradientTransform="translate(57.0157 0.39108) scale(68.2813 68.2813)">
<stop offset="0.6873" stop-color="#82D8FF" style="stop-color:#82D8FF;stop-color:color(display-p3 0.5098 0.8471 1.0000);stop-opacity:1;"/>
<stop offset="0.7349" stop-color="#7BD7FE" style="stop-color:#7BD7FE;stop-color:color(display-p3 0.4824 0.8431 0.9961);stop-opacity:1;"/>
<stop offset="0.8047" stop-color="#67D3FC" style="stop-color:#67D3FC;stop-color:color(display-p3 0.4039 0.8275 0.9882);stop-opacity:1;"/>
<stop offset="0.8879" stop-color="#47CCF7" style="stop-color:#47CCF7;stop-color:color(display-p3 0.2784 0.8000 0.9686);stop-opacity:1;"/>
<stop offset="0.9466" stop-color="#2CC7F4" style="stop-color:#2CC7F4;stop-color:color(display-p3 0.1725 0.7804 0.9569);stop-opacity:1;"/>
</radialGradient>
</defs>
</svg>
