<svg width="129" height="129" viewBox="0 0 129 129" fill="none" xmlns="http://www.w3.org/2000/svg">
<mask id="mask0_177_799" style="mask-type:alpha" maskUnits="userSpaceOnUse" x="3" y="3" width="123" height="123">
<path d="M27.6202 90.7902C38.4402 87.6802 66.5602 78.7402 103.55 80.8102C104.72 80.8802 104.85 82.5602 103.71 82.7902C86.5402 86.3202 43.2502 95.4602 31.1402 100.22C29.2102 100.98 27.0302 100.15 26.1002 98.2902C25.8002 97.6802 25.4802 97.0402 25.1602 96.4102C24.0302 94.1802 25.2102 91.4802 27.6202 90.7902Z" fill="#F44336" style="fill:#F44336;fill:color(display-p3 0.9569 0.2627 0.2118);fill-opacity:1;"/>
<path d="M7.46017 113.8C24.4702 109.56 95.8602 91.6702 123.5 91.9602C124.7 91.9702 124.88 93.6802 123.71 93.9402C102.21 98.5902 28.0902 115.79 11.1002 124.11C8.93017 125.17 6.33017 124.04 5.57017 121.75L4.77017 119.36C3.90017 116.73 5.20017 114.36 7.46017 113.8Z" fill="#F44336" style="fill:#F44336;fill:color(display-p3 0.9569 0.2627 0.2118);fill-opacity:1;"/>
<path d="M7.00017 27.8302C3.50017 29.3102 4.01017 22.3802 6.43017 20.5002C13.4402 15.0502 30.5802 8.6402 40.5002 4.6802C42.5402 3.8702 44.5402 5.9602 43.6502 7.9702C38.2502 20.1802 22.3802 55.7502 12.5002 87.2202C11.9902 88.8402 8.67017 88.9302 8.50017 87.2302C7.60017 78.0302 14.0002 52.6602 27.6102 23.0002C28.1002 21.9402 27.0302 20.8002 25.8902 21.0602C21.9002 22.0002 15.7802 24.1302 7.00017 27.8302Z" fill="#F44336" style="fill:#F44336;fill:color(display-p3 0.9569 0.2627 0.2118);fill-opacity:1;"/>
<path d="M112.3 9.2002C112.11 9.1502 110.91 8.8302 110.46 8.8102C80.4802 7.7702 66.4902 17.2902 65.9902 17.6902C64.2702 19.0802 64.0002 21.6002 65.3902 23.3102C66.5002 24.6802 67.6302 24.8502 68.2302 24.8402C68.4802 24.8302 68.7002 24.9902 68.7702 25.2402C70.0002 30.1502 70.2102 37.1802 68.0202 45.4202C64.2302 59.6402 55.9602 67.5002 51.6902 67.5002C51.4502 67.5002 51.2202 67.4702 51.0102 67.4102C49.2702 66.9502 47.4902 64.2002 46.4802 60.4102C44.9702 54.7002 45.2202 47.2202 47.1702 39.8802C49.8202 29.9002 54.6902 23.0602 58.8302 19.8702C60.7302 18.4102 62.2502 16.5102 63.3602 14.3802C63.3702 14.3702 63.3702 14.3502 63.3802 14.3402C63.8802 13.3802 66.2102 8.8602 63.4902 8.8002C53.6602 8.8002 42.9302 20.8102 38.4802 37.5602C33.5702 56.0402 38.1502 73.2902 48.7102 76.1002C49.6902 76.3602 50.6902 76.4902 51.7102 76.4902C61.5402 76.4902 72.2702 64.4802 76.7202 47.7302C79.2002 38.4102 79.2502 29.4102 77.3402 22.4202C77.1102 21.5902 77.5702 20.7302 78.3902 20.4502C81.3802 19.4202 87.1502 18.3702 92.1902 17.6502C92.9802 17.5402 93.5202 18.4402 93.0302 19.0702C89.3302 23.9502 86.2302 30.3102 84.3002 37.5702C79.3902 56.0502 83.9702 73.3002 94.5302 76.1102C95.5102 76.3702 96.5102 76.5002 97.5302 76.5002C107.36 76.5002 118.09 64.4902 122.54 47.7402C127.44 29.2602 122.86 12.0002 112.3 9.2002ZM113.83 45.4202C110.05 59.6402 101.79 67.5002 97.5202 67.5002C97.2802 67.5002 97.0502 67.4702 96.8402 67.4102C95.1002 66.9502 93.3202 64.2002 92.3102 60.4102C90.8002 54.7002 91.0502 47.2202 93.0002 39.8802C96.7802 25.6702 105.04 17.8002 109.32 17.8002C109.56 17.8002 109.78 17.8302 110 17.8902C113.66 18.8702 117.91 30.0702 113.83 45.4202Z" fill="#F44336" style="fill:#F44336;fill:color(display-p3 0.9569 0.2627 0.2118);fill-opacity:1;"/>
<path d="M27.6202 90.7902C38.4402 87.6802 66.5602 78.7402 103.55 80.8102C104.72 80.8802 104.85 82.5602 103.71 82.7902C86.5402 86.3202 43.2502 95.4602 31.1402 100.22C29.2102 100.98 27.0302 100.15 26.1002 98.2902C25.8002 97.6802 25.4802 97.0402 25.1602 96.4102C24.0302 94.1802 25.2102 91.4802 27.6202 90.7902Z" stroke="#F44336" style="stroke:#F44336;stroke:color(display-p3 0.9569 0.2627 0.2118);stroke-opacity:1;" stroke-miterlimit="10"/>
<path d="M7.46017 113.8C24.4702 109.56 95.8602 91.6702 123.5 91.9602C124.7 91.9702 124.88 93.6802 123.71 93.9402C102.21 98.5902 28.0902 115.79 11.1002 124.11C8.93017 125.17 6.33017 124.04 5.57017 121.75L4.77017 119.36C3.90017 116.73 5.20017 114.36 7.46017 113.8Z" stroke="#F44336" style="stroke:#F44336;stroke:color(display-p3 0.9569 0.2627 0.2118);stroke-opacity:1;" stroke-miterlimit="10"/>
<path d="M7.00017 27.8302C3.50017 29.3102 4.01017 22.3802 6.43017 20.5002C13.4402 15.0502 30.5802 8.6402 40.5002 4.6802C42.5402 3.8702 44.5402 5.9602 43.6502 7.9702C38.2502 20.1802 22.3802 55.7502 12.5002 87.2202C11.9902 88.8402 8.67017 88.9302 8.50017 87.2302C7.60017 78.0302 14.0002 52.6602 27.6102 23.0002C28.1002 21.9402 27.0302 20.8002 25.8902 21.0602C21.9002 22.0002 15.7802 24.1302 7.00017 27.8302Z" stroke="#F44336" style="stroke:#F44336;stroke:color(display-p3 0.9569 0.2627 0.2118);stroke-opacity:1;" stroke-miterlimit="10"/>
<path d="M112.3 9.2002C112.11 9.1502 110.91 8.8302 110.46 8.8102C80.4802 7.7702 66.4902 17.2902 65.9902 17.6902C64.2702 19.0802 64.0002 21.6002 65.3902 23.3102C66.5002 24.6802 67.6302 24.8502 68.2302 24.8402C68.4802 24.8302 68.7002 24.9902 68.7702 25.2402C70.0002 30.1502 70.2102 37.1802 68.0202 45.4202C64.2302 59.6402 55.9602 67.5002 51.6902 67.5002C51.4502 67.5002 51.2202 67.4702 51.0102 67.4102C49.2702 66.9502 47.4902 64.2002 46.4802 60.4102C44.9702 54.7002 45.2202 47.2202 47.1702 39.8802C49.8202 29.9002 54.6902 23.0602 58.8302 19.8702C60.7302 18.4102 62.2502 16.5102 63.3602 14.3802C63.3702 14.3702 63.3702 14.3502 63.3802 14.3402C63.8802 13.3802 66.2102 8.8602 63.4902 8.8002C53.6602 8.8002 42.9302 20.8102 38.4802 37.5602C33.5702 56.0402 38.1502 73.2902 48.7102 76.1002C49.6902 76.3602 50.6902 76.4902 51.7102 76.4902C61.5402 76.4902 72.2702 64.4802 76.7202 47.7302C79.2002 38.4102 79.2502 29.4102 77.3402 22.4202C77.1102 21.5902 77.5702 20.7302 78.3902 20.4502C81.3802 19.4202 87.1502 18.3702 92.1902 17.6502C92.9802 17.5402 93.5202 18.4402 93.0302 19.0702C89.3302 23.9502 86.2302 30.3102 84.3002 37.5702C79.3902 56.0502 83.9702 73.3002 94.5302 76.1102C95.5102 76.3702 96.5102 76.5002 97.5302 76.5002C107.36 76.5002 118.09 64.4902 122.54 47.7402C127.44 29.2602 122.86 12.0002 112.3 9.2002ZM113.83 45.4202C110.05 59.6402 101.79 67.5002 97.5202 67.5002C97.2802 67.5002 97.0502 67.4702 96.8402 67.4102C95.1002 66.9502 93.3202 64.2002 92.3102 60.4102C90.8002 54.7002 91.0502 47.2202 93.0002 39.8802C96.7802 25.6702 105.04 17.8002 109.32 17.8002C109.56 17.8002 109.78 17.8302 110 17.8902C113.66 18.8702 117.91 30.0702 113.83 45.4202Z" stroke="#F44336" style="stroke:#F44336;stroke:color(display-p3 0.9569 0.2627 0.2118);stroke-opacity:1;" stroke-miterlimit="10"/>
</mask>
<g mask="url(#mask0_177_799)">
<rect x="-19.5" y="11.8212" width="234.539" height="21.508" transform="rotate(-9.15614 -19.5 11.8212)" fill="#8BC34A" style="fill:#8BC34A;fill:color(display-p3 0.5451 0.7647 0.2902);fill-opacity:1;"/>
<rect x="-16.0771" y="33.0556" width="234.539" height="20.4838" transform="rotate(-9.15614 -16.0771 33.0556)" fill="#FFEB3B" style="fill:#FFEB3B;fill:color(display-p3 1.0000 0.9216 0.2314);fill-opacity:1;"/>
<rect x="-12.8179" y="53.2782" width="234.539" height="20.4838" transform="rotate(-9.15614 -12.8179 53.2782)" fill="#FF9800" style="fill:#FF9800;fill:color(display-p3 1.0000 0.5961 0.0000);fill-opacity:1;"/>
<rect x="-9.55859" y="73.5009" width="234.539" height="22.0309" transform="rotate(-9.15614 -9.55859 73.5009)" fill="#F44336" style="fill:#F44336;fill:color(display-p3 0.9569 0.2627 0.2118);fill-opacity:1;"/>
<path d="M30.5001 82L122 76.4998L139.106 91.0353L-3.03953 113.946L30.5001 82Z" fill="#673AB7" style="fill:#673AB7;fill:color(display-p3 0.4039 0.2275 0.7176);fill-opacity:1;"/>
<rect x="-3.99609" y="108.01" width="234.539" height="27.5216" transform="rotate(-9.15614 -3.99609 108.01)" fill="#2196F3" style="fill:#2196F3;fill:color(display-p3 0.1294 0.5882 0.9529);fill-opacity:1;"/>
</g>
</svg>
