<svg width="128" height="128" viewBox="0 0 128 128" fill="none" xmlns="http://www.w3.org/2000/svg">
<path d="M63.6 118.8C35.7 118.8 5.59998 101.3 5.59998 62.9C5.59998 24.5 35.7 7 63.6 7C79.1 7 93.4 12.1 104 21.4C115.5 31.6 121.6 46 121.6 62.9C121.6 79.8 115.5 94.1 104 104.3C93.4 113.6 79 118.8 63.6 118.8Z" fill="url(#paint0_radial_169_6953)" style=""/>
<path d="M63.6 118.8C35.7 118.8 5.59998 101.3 5.59998 62.9C5.59998 24.5 35.7 7 63.6 7C79.1 7 93.4 12.1 104 21.4C115.5 31.6 121.6 46 121.6 62.9C121.6 79.8 115.5 94.1 104 104.3C93.4 113.6 79 118.8 63.6 118.8Z" fill="url(#paint1_radial_169_6953)" style=""/>
<path d="M63.6 118.8C35.7 118.8 5.59998 101.3 5.59998 62.9C5.59998 24.5 35.7 7 63.6 7C79.1 7 93.4 12.1 104 21.4C115.5 31.6 121.6 46 121.6 62.9C121.6 79.8 115.5 94.1 104 104.3C93.4 113.6 79 118.8 63.6 118.8Z" fill="url(#paint2_radial_169_6953)" style=""/>
<path d="M25.15 70.57C26.84 74.34 29.07 77.86 31.76 81C34.42 84.1 37.51 86.79 40.94 89C44.35 91.22 48.05 92.95 51.94 94.13C59.78 96.42 68.1 96.42 75.94 94.13C79.83 92.95 83.53 91.22 86.94 89C90.41 86.8 93.55 84.1 96.24 81C98.93 77.87 101.15 74.38 102.85 70.62C103.45 69.53 104.81 69.13 105.9 69.73C106.8 70.23 107.26 71.27 107 72.27C105.39 76.59 103.12 80.64 100.28 84.27C91.52 95.39 78.15 101.88 64 101.88C49.84 101.87 36.47 95.38 27.72 84.25C24.88 80.62 22.61 76.57 21 72.25C20.53 71.11 21.07 69.79 22.21 69.32C23.35 68.85 24.67 69.39 25.14 70.53L25.15 70.57Z" fill="#5D4037" style="fill:#5D4037;fill:color(display-p3 0.3647 0.2510 0.2157);fill-opacity:1;"/>
<path d="M111.49 29.67C116.82 38.27 119.6 48.51 119.6 59.9C119.6 76.8 113.5 91.1 102 101.3C91.4 110.6 77 115.8 61.6 115.8C43.54 115.8 24.6 108.45 13.42 92.86C24.18 110.52 44.42 118.8 63.6 118.8C79 118.8 93.4 113.6 104 104.3C115.5 94.1001 121.6 79.8 121.6 62.9C121.6 50.16 118.13 38.84 111.49 29.67Z" fill="#EB8F00" style="fill:#EB8F00;fill:color(display-p3 0.9216 0.5608 0.0000);fill-opacity:1;"/>
<path d="M111.49 29.67C116.82 38.27 119.6 48.51 119.6 59.9C119.6 76.8 113.5 91.1 102 101.3C91.4 110.6 77 115.8 61.6 115.8C43.54 115.8 24.6 108.45 13.42 92.86C24.18 110.52 44.42 118.8 63.6 118.8C79 118.8 93.4 113.6 104 104.3C115.5 94.1001 121.6 79.8 121.6 62.9C121.6 50.16 118.13 38.84 111.49 29.67Z" fill="#F3B872" style="fill:#F3B872;fill:color(display-p3 0.9542 0.7229 0.4453);fill-opacity:1;"/>
<path d="M111.49 29.67C116.82 38.27 119.6 48.51 119.6 59.9C119.6 76.8 113.5 91.1 102 101.3C91.4 110.6 77 115.8 61.6 115.8C43.54 115.8 24.6 108.45 13.42 92.86C24.18 110.52 44.42 118.8 63.6 118.8C79 118.8 93.4 113.6 104 104.3C115.5 94.1001 121.6 79.8 121.6 62.9C121.6 50.16 118.13 38.84 111.49 29.67Z" fill="#BA8F63" style="fill:#BA8F63;fill:color(display-p3 0.7294 0.5608 0.3882);fill-opacity:1;"/>
<path d="M50.15 56.1001L50 55.8801L49.79 55.6101C49.71 55.5001 49.63 55.4101 49.53 55.3201L48.91 54.7001C48.66 54.4501 48.36 54.1801 48.05 53.9101C47.39 53.3401 46.65 52.8801 45.85 52.5201C45.07 52.1701 44.22 52.0001 43.37 52.0001H43C42.9 51.9801 42.81 51.9801 42.71 52.0001C42.53 52.0201 42.35 52.0501 42.17 52.0901C41.75 52.1901 41.35 52.3201 40.95 52.4801C40.15 52.8401 39.41 53.3001 38.75 53.8701C38.21 54.3301 37.71 54.8201 37.24 55.3401L36.67 55.9801L36.37 56.3201C35.18 57.7201 33.08 57.9001 31.68 56.7101C30.61 55.8001 30.22 54.3201 30.71 53.0001L30.82 52.6801C30.92 52.3701 31.04 52.0701 31.17 51.7701C31.65 50.6801 32.26 49.6601 33 48.7301C34.75 46.4201 37.21 44.7401 40 43.9401C40.57 43.7901 41.15 43.6801 41.74 43.6001C42.04 43.6001 42.48 43.5101 42.61 43.5101H43.37C44.51 43.5301 45.64 43.6901 46.74 43.9801C47.79 44.2701 48.8 44.6901 49.74 45.2301C51.29 46.1301 52.65 47.3401 53.74 48.7701C54.16 49.3101 54.54 49.8701 54.87 50.4701C55.14 50.9401 55.38 51.4201 55.59 51.9101C55.67 52.0701 55.74 52.2401 55.79 52.4101C55.79 52.5401 55.87 52.6501 55.9 52.7401L56 53.0001C56.57 54.7701 55.6 56.6701 53.83 57.2401C52.49 57.6601 51.02 57.2001 50.15 56.1001Z" fill="#5D4037" style="fill:#5D4037;fill:color(display-p3 0.3647 0.2510 0.2157);fill-opacity:1;"/>
<path d="M93.48 56.1001L93.3 55.8801L93.09 55.6101C93.01 55.5001 92.93 55.4101 92.83 55.3201L92.21 54.7001C91.96 54.4501 91.66 54.1801 91.35 53.9101C90.69 53.3401 89.95 52.8801 89.15 52.5201C88.38 52.1801 87.54 52.0001 86.7 52.0001H86.29C86.19 51.9801 86.1 51.9801 86 52.0001C85.82 52.0201 85.64 52.0501 85.46 52.0901C85.04 52.1901 84.64 52.3201 84.24 52.4801C83.43 52.8501 82.67 53.3301 82 53.9101C81.46 54.3701 80.96 54.8601 80.48 55.3801L80 56.0001L79.7 56.3401C78.58 57.8001 76.49 58.0701 75.03 56.9401C73.83 56.0201 73.4 54.4001 74 53.0001L74.11 52.6801C74.21 52.3701 74.33 52.0701 74.46 51.7701C74.93 50.6701 75.55 49.6401 76.28 48.6901C78.03 46.3801 80.49 44.7001 83.28 43.9001C83.85 43.7501 84.43 43.6401 85.02 43.5601C85.32 43.5601 85.75 43.4701 85.89 43.4701H86.65C87.79 43.4901 88.92 43.6501 90.02 43.9401C91.07 44.2301 92.08 44.6501 93.02 45.1901C94.57 46.0901 95.93 47.3001 97.02 48.7301C97.44 49.2701 97.82 49.8301 98.15 50.4301C98.42 50.9001 98.66 51.3801 98.87 51.8701C98.95 52.0301 99.02 52.2001 99.07 52.3701L99.18 52.7001L99.27 52.9701C99.84 54.7401 98.87 56.6301 97.1 57.2001C95.77 57.6301 94.32 57.1901 93.45 56.1001H93.48Z" fill="#5D4037" style="fill:#5D4037;fill:color(display-p3 0.3647 0.2510 0.2157);fill-opacity:1;"/>
<path d="M81.53 92.07C82.41 91.66 83.28 91.22 84.13 90.76C83.28 91.22 82.41 91.66 81.53 92.07Z" fill="#FF4081" style="fill:#FF4081;fill:color(display-p3 1.0000 0.2510 0.5059);fill-opacity:1;"/>
<path d="M86.67 89.27C85.84 89.79 85 90.27 84.14 90.75C85.14 90.21 86.14 89.64 87.06 89.03L86.67 89.27Z" fill="#FF4081" style="fill:#FF4081;fill:color(display-p3 1.0000 0.2510 0.5059);fill-opacity:1;"/>
<path d="M74 94.68C74.67 94.52 75.34 94.35 76 94.15C75.36 94.36 74.69 94.51 74 94.68Z" fill="#FF4081" style="fill:#FF4081;fill:color(display-p3 1.0000 0.2510 0.5059);fill-opacity:1;"/>
<path d="M94.16 83.2101C94.87 82.4801 95.57 81.7301 96.24 80.9501C95.57 81.7301 94.87 82.4801 94.16 83.2101Z" fill="#FF4081" style="fill:#FF4081;fill:color(display-p3 1.0000 0.2510 0.5059);fill-opacity:1;"/>
<path d="M78.83 93.2101C79.72 92.8701 80.6 92.5001 81.47 92.1001C80.6 92.5001 79.72 92.8701 78.83 93.2101Z" fill="#FF4081" style="fill:#FF4081;fill:color(display-p3 1.0000 0.2510 0.5059);fill-opacity:1;"/>
<path d="M76 94.16C76.93 93.89 77.83 93.58 78.73 93.24C77.85 93.58 77 93.89 76 94.16Z" fill="#FF4081" style="fill:#FF4081;fill:color(display-p3 1.0000 0.2510 0.5059);fill-opacity:1;"/>
<path d="M92.21 85.1001C91.6 85.6401 90.97 86.1601 90.32 86.6501C90 86.9101 89.67 87.1501 89.32 87.4001C88.57 87.9701 87.81 88.5201 87.03 89.0301C88.03 88.4001 88.93 87.7201 89.85 87.0301C90.77 86.3401 91.46 85.7701 92.21 85.1001Z" fill="#FF4081" style="fill:#FF4081;fill:color(display-p3 1.0000 0.2510 0.5059);fill-opacity:1;"/>
<path opacity="0.3" d="M94.16 83.2101C94.09 83.2801 94.03 83.3501 93.96 83.4101C93.4 84.0001 92.81 84.5601 92.21 85.1001C92.84 84.5401 93.45 83.9601 94.03 83.3501L94.16 83.2101Z" fill="#AB3F2E" style="fill:#AB3F2E;fill:color(display-p3 0.6706 0.2471 0.1804);fill-opacity:1;"/>
<path d="M68.35 95.64L72.06 99.58L72.42 99.95L68.35 95.64Z" fill="#FF4081" style="fill:#FF4081;fill:color(display-p3 1.0000 0.2510 0.5059);fill-opacity:1;"/>
<path opacity="0.3" d="M72.42 99.9501L73.31 100.91L73.32 100.9V100.89L72.42 99.9501Z" fill="#AB3F2E" style="fill:#AB3F2E;fill:color(display-p3 0.6706 0.2471 0.1804);fill-opacity:1;"/>
<path d="M109.62 89.11L102.62 81.79L102.34 81.5L99.66 78.7L98.87 77.87L98.77 77.77C97.98 78.89 97.14 79.97 96.24 81C93.58 84.1 90.49 86.79 87.06 89C83.65 91.22 79.95 92.95 76.06 94.13C73.56 94.87 70.99 95.36 68.39 95.61L72.42 100L73.32 100.94L74.04 101.69L74.45 102.12L84.79 112.92C90.78 119.18 100.71 119.4 106.97 113.41L109.13 111.34C115.4 105.35 115.64 95.42 109.65 89.14C109.64 89.13 109.63 89.12 109.62 89.11Z" fill="#FF4081" style="fill:#FF4081;fill:color(display-p3 1.0000 0.2510 0.5059);fill-opacity:1;"/>
<path d="M95.67 96.6301L87.86 88.4601C87.59 88.6501 87.33 88.8501 87.06 89.0301C86.23 89.5601 85.39 90.0301 84.54 90.5401L92.9 99.2801C93.25 99.6501 93.73 99.8601 94.24 99.8701C94.75 99.8901 95.24 99.7001 95.61 99.3401C96.37 98.6201 96.41 97.4201 95.69 96.6501C95.69 96.6501 95.68 96.6401 95.67 96.6301Z" fill="#E62B6B" style="fill:#E62B6B;fill:color(display-p3 0.9020 0.1686 0.4196);fill-opacity:1;"/>
<path opacity="0.3" d="M99.61 78.6601L98.82 77.8301L98.72 77.7301C97.95 78.8601 97.12 79.9501 96.24 81.0001C93.58 84.1001 90.49 86.7901 87.06 89.0001C83.65 91.2201 79.95 92.9501 76.06 94.1301C73.56 94.8701 70.99 95.3601 68.39 95.6101L72.42 100L73.32 100.94C91.93 94.1901 98.38 81.7101 99.61 78.6601Z" fill="#AB3F2E" style="fill:#AB3F2E;fill:color(display-p3 0.6706 0.2471 0.1804);fill-opacity:1;"/>
<defs>
<radialGradient id="paint0_radial_169_6953" cx="0" cy="0" r="1" gradientUnits="userSpaceOnUse" gradientTransform="translate(63.6 62.9) scale(56.9597 56.9597)">
<stop offset="0.5" stop-color="#FDE030" style="stop-color:#FDE030;stop-color:color(display-p3 0.9922 0.8784 0.1882);stop-opacity:1;"/>
<stop offset="0.92" stop-color="#F7C02B" style="stop-color:#F7C02B;stop-color:color(display-p3 0.9686 0.7529 0.1686);stop-opacity:1;"/>
<stop offset="1" stop-color="#F4A223" style="stop-color:#F4A223;stop-color:color(display-p3 0.9569 0.6353 0.1373);stop-opacity:1;"/>
</radialGradient>
<radialGradient id="paint1_radial_169_6953" cx="0" cy="0" r="1" gradientUnits="userSpaceOnUse" gradientTransform="translate(38.599 34.5377) rotate(-43.2082) scale(102.024 101.825)">
<stop offset="0.3533" stop-color="#F9DDBD" style="stop-color:#F9DDBD;stop-color:color(display-p3 0.9765 0.8667 0.7412);stop-opacity:1;"/>
<stop offset="0.8723" stop-color="#FFD29C" style="stop-color:#FFD29C;stop-color:color(display-p3 1.0000 0.8235 0.6118);stop-opacity:1;"/>
</radialGradient>
<radialGradient id="paint2_radial_169_6953" cx="0" cy="0" r="1" gradientUnits="userSpaceOnUse" gradientTransform="translate(38.599 34.5377) rotate(-43.2082) scale(102.024 101.825)">
<stop offset="0.3533" stop-color="#E0BB95" style="stop-color:#E0BB95;stop-color:color(display-p3 0.8784 0.7333 0.5843);stop-opacity:1;"/>
<stop offset="0.8723" stop-color="#CCA47A" style="stop-color:#CCA47A;stop-color:color(display-p3 0.8000 0.6431 0.4784);stop-opacity:1;"/>
</radialGradient>
</defs>
</svg>
