<svg width="128" height="128" viewBox="0 0 128 128" fill="none" xmlns="http://www.w3.org/2000/svg">
<path d="M63.6001 118.8C35.7001 118.8 5.6001 101.3 5.6001 62.9C5.6001 24.5 35.7001 7 63.6001 7C79.1001 7 93.4001 12.1 104 21.4C115.5 31.6 121.6 46 121.6 62.9C121.6 79.8 115.5 94.1 104 104.3C93.4001 113.6 79.0001 118.8 63.6001 118.8Z" fill="url(#paint0_radial_169_12617)" style=""/>
<path d="M63.6001 118.8C35.7001 118.8 5.6001 101.3 5.6001 62.9C5.6001 24.5 35.7001 7 63.6001 7C79.1001 7 93.4001 12.1 104 21.4C115.5 31.6 121.6 46 121.6 62.9C121.6 79.8 115.5 94.1 104 104.3C93.4001 113.6 79.0001 118.8 63.6001 118.8Z" fill="url(#paint1_radial_169_12617)" style=""/>
<path d="M63.6001 118.8C35.7001 118.8 5.6001 101.3 5.6001 62.9C5.6001 24.5 35.7001 7 63.6001 7C79.1001 7 93.4001 12.1 104 21.4C115.5 31.6 121.6 46 121.6 62.9C121.6 79.8 115.5 94.1 104 104.3C93.4001 113.6 79.0001 118.8 63.6001 118.8Z" fill="url(#paint2_radial_169_12617)" style=""/>
<path d="M63.6001 118.8C35.7001 118.8 5.6001 101.3 5.6001 62.9C5.6001 24.5 35.7001 7 63.6001 7C79.1001 7 93.4001 12.1 104 21.4C115.5 31.6 121.6 46 121.6 62.9C121.6 79.8 115.5 94.1 104 104.3C93.4001 113.6 79.0001 118.8 63.6001 118.8Z" fill="url(#paint3_radial_169_12617)" style=""/>
<path d="M63.6001 118.8C35.7001 118.8 5.6001 101.3 5.6001 62.9C5.6001 24.5 35.7001 7 63.6001 7C79.1001 7 93.4001 12.1 104 21.4C115.5 31.6 121.6 46 121.6 62.9C121.6 79.8 115.5 94.1 104 104.3C93.4001 113.6 79.0001 118.8 63.6001 118.8Z" fill="url(#paint4_radial_169_12617)" style=""/>
<path opacity="0.5" d="M27.25 91.66C36.915 91.66 44.75 83.825 44.75 74.16C44.75 64.495 36.915 56.66 27.25 56.66C17.585 56.66 9.75 64.495 9.75 74.16C9.75 83.825 17.585 91.66 27.25 91.66Z" fill="url(#paint5_radial_169_12617)" style=""/>
<path d="M50.1501 59.0999L50.0001 58.88L49.7901 58.61C49.7101 58.5 49.6301 58.41 49.5301 58.32L48.9101 57.7C48.6601 57.45 48.3601 57.18 48.0501 56.91C47.3901 56.34 46.6501 55.88 45.8501 55.52C45.0701 55.17 44.2201 55 43.3701 55H43.0001C42.9001 54.9799 42.8101 54.9799 42.7101 55C42.5301 55.02 42.3501 55.05 42.1701 55.09C41.7501 55.19 41.3501 55.32 40.9501 55.4799C40.1501 55.8399 39.4101 56.2999 38.7501 56.8699C38.2101 57.3299 37.7101 57.82 37.2401 58.34L36.6701 58.9799L36.3701 59.32C35.1801 60.7199 33.0801 60.9 31.6801 59.7099C30.6101 58.7999 30.2201 57.32 30.7101 56L30.8201 55.68C30.9201 55.37 31.0401 55.07 31.1701 54.77C31.6501 53.68 32.2601 52.6599 33.0001 51.7299C34.7501 49.42 37.2101 47.7399 40.0001 46.9399C40.5701 46.7899 41.1501 46.6799 41.7401 46.5999C42.0401 46.5999 42.4801 46.5099 42.6101 46.5099H43.3701C44.5101 46.5299 45.6401 46.6899 46.7401 46.9799C47.7901 47.2699 48.8001 47.6899 49.7401 48.2299C51.2901 49.13 52.6501 50.34 53.7401 51.77C54.1601 52.31 54.5401 52.87 54.8701 53.47C55.1401 53.94 55.3801 54.42 55.5901 54.91C55.6701 55.07 55.7401 55.24 55.7901 55.41C55.7901 55.54 55.8701 55.65 55.9001 55.74L56.0001 56C56.5701 57.77 55.6001 59.67 53.8301 60.24C52.4901 60.66 51.0201 60.1999 50.1501 59.0999Z" fill="#49362E" style="fill:#49362E;fill:color(display-p3 0.2863 0.2118 0.1804);fill-opacity:1;"/>
<path d="M50.1501 59.0999L50.0001 58.88L49.7901 58.61C49.7101 58.5 49.6301 58.41 49.5301 58.32L48.9101 57.7C48.6601 57.45 48.3601 57.18 48.0501 56.91C47.3901 56.34 46.6501 55.88 45.8501 55.52C45.0701 55.17 44.2201 55 43.3701 55H43.0001C42.9001 54.9799 42.8101 54.9799 42.7101 55C42.5301 55.02 42.3501 55.05 42.1701 55.09C41.7501 55.19 41.3501 55.32 40.9501 55.4799C40.1501 55.8399 39.4101 56.2999 38.7501 56.8699C38.2101 57.3299 37.7101 57.82 37.2401 58.34L36.6701 58.9799L36.3701 59.32C35.1801 60.7199 33.0801 60.9 31.6801 59.7099C30.6101 58.7999 30.2201 57.32 30.7101 56L30.8201 55.68C30.9201 55.37 31.0401 55.07 31.1701 54.77C31.6501 53.68 32.2601 52.6599 33.0001 51.7299C34.7501 49.42 37.2101 47.7399 40.0001 46.9399C40.5701 46.7899 41.1501 46.6799 41.7401 46.5999C42.0401 46.5999 42.4801 46.5099 42.6101 46.5099H43.3701C44.5101 46.5299 45.6401 46.6899 46.7401 46.9799C47.7901 47.2699 48.8001 47.6899 49.7401 48.2299C51.2901 49.13 52.6501 50.34 53.7401 51.77C54.1601 52.31 54.5401 52.87 54.8701 53.47C55.1401 53.94 55.3801 54.42 55.5901 54.91C55.6701 55.07 55.7401 55.24 55.7901 55.41C55.7901 55.54 55.8701 55.65 55.9001 55.74L56.0001 56C56.5701 57.77 55.6001 59.67 53.8301 60.24C52.4901 60.66 51.0201 60.1999 50.1501 59.0999Z" fill="#1A1717" style="fill:#1A1717;fill:color(display-p3 0.1020 0.0902 0.0902);fill-opacity:1;"/>
<path d="M50.1501 59.0999L50.0001 58.88L49.7901 58.61C49.7101 58.5 49.6301 58.41 49.5301 58.32L48.9101 57.7C48.6601 57.45 48.3601 57.18 48.0501 56.91C47.3901 56.34 46.6501 55.88 45.8501 55.52C45.0701 55.17 44.2201 55 43.3701 55H43.0001C42.9001 54.9799 42.8101 54.9799 42.7101 55C42.5301 55.02 42.3501 55.05 42.1701 55.09C41.7501 55.19 41.3501 55.32 40.9501 55.4799C40.1501 55.8399 39.4101 56.2999 38.7501 56.8699C38.2101 57.3299 37.7101 57.82 37.2401 58.34L36.6701 58.9799L36.3701 59.32C35.1801 60.7199 33.0801 60.9 31.6801 59.7099C30.6101 58.7999 30.2201 57.32 30.7101 56L30.8201 55.68C30.9201 55.37 31.0401 55.07 31.1701 54.77C31.6501 53.68 32.2601 52.6599 33.0001 51.7299C34.7501 49.42 37.2101 47.7399 40.0001 46.9399C40.5701 46.7899 41.1501 46.6799 41.7401 46.5999C42.0401 46.5999 42.4801 46.5099 42.6101 46.5099H43.3701C44.5101 46.5299 45.6401 46.6899 46.7401 46.9799C47.7901 47.2699 48.8001 47.6899 49.7401 48.2299C51.2901 49.13 52.6501 50.34 53.7401 51.77C54.1601 52.31 54.5401 52.87 54.8701 53.47C55.1401 53.94 55.3801 54.42 55.5901 54.91C55.6701 55.07 55.7401 55.24 55.7901 55.41C55.7901 55.54 55.8701 55.65 55.9001 55.74L56.0001 56C56.5701 57.77 55.6001 59.67 53.8301 60.24C52.4901 60.66 51.0201 60.1999 50.1501 59.0999Z" fill="#49362E" style="fill:#49362E;fill:color(display-p3 0.2863 0.2118 0.1804);fill-opacity:1;"/>
<path d="M93.4804 59.1L93.3004 58.88L93.0904 58.61C93.0104 58.5 92.9304 58.41 92.8304 58.32L92.2104 57.7C91.9604 57.45 91.6604 57.18 91.3504 56.91C90.6904 56.34 89.9504 55.88 89.1504 55.52C88.3804 55.18 87.5404 55 86.7004 55H86.2904C86.1904 54.98 86.1004 54.98 86.0004 55C85.8204 55.02 85.6404 55.05 85.4604 55.09C85.0404 55.19 84.6404 55.32 84.2404 55.48C83.4304 55.85 82.6704 56.33 82.0004 56.91C81.4604 57.37 80.9604 57.86 80.4804 58.38L80.0004 59L79.7004 59.34C78.5804 60.8 76.4904 61.07 75.0304 59.94C73.8304 59.02 73.4004 57.4 74.0004 56L74.1104 55.68C74.2104 55.37 74.3304 55.07 74.4604 54.77C74.9304 53.67 75.5504 52.64 76.2804 51.69C78.0304 49.38 80.4904 47.7 83.2804 46.9C83.8504 46.75 84.4304 46.64 85.0204 46.56C85.3204 46.56 85.7504 46.47 85.8904 46.47H86.6504C87.7904 46.49 88.9204 46.65 90.0204 46.94C91.0704 47.23 92.0804 47.65 93.0204 48.19C94.5704 49.09 95.9304 50.3 97.0204 51.73C97.4404 52.27 97.8204 52.83 98.1504 53.43C98.4204 53.9 98.6604 54.38 98.8704 54.87C98.9504 55.03 99.0204 55.2 99.0704 55.37L99.1804 55.7L99.2704 55.97C99.8404 57.74 98.8704 59.63 97.1004 60.2C95.7704 60.63 94.3204 60.19 93.4504 59.1H93.4804Z" fill="#49362E" style="fill:#49362E;fill:color(display-p3 0.2863 0.2118 0.1804);fill-opacity:1;"/>
<path d="M93.4804 59.1L93.3004 58.88L93.0904 58.61C93.0104 58.5 92.9304 58.41 92.8304 58.32L92.2104 57.7C91.9604 57.45 91.6604 57.18 91.3504 56.91C90.6904 56.34 89.9504 55.88 89.1504 55.52C88.3804 55.18 87.5404 55 86.7004 55H86.2904C86.1904 54.98 86.1004 54.98 86.0004 55C85.8204 55.02 85.6404 55.05 85.4604 55.09C85.0404 55.19 84.6404 55.32 84.2404 55.48C83.4304 55.85 82.6704 56.33 82.0004 56.91C81.4604 57.37 80.9604 57.86 80.4804 58.38L80.0004 59L79.7004 59.34C78.5804 60.8 76.4904 61.07 75.0304 59.94C73.8304 59.02 73.4004 57.4 74.0004 56L74.1104 55.68C74.2104 55.37 74.3304 55.07 74.4604 54.77C74.9304 53.67 75.5504 52.64 76.2804 51.69C78.0304 49.38 80.4904 47.7 83.2804 46.9C83.8504 46.75 84.4304 46.64 85.0204 46.56C85.3204 46.56 85.7504 46.47 85.8904 46.47H86.6504C87.7904 46.49 88.9204 46.65 90.0204 46.94C91.0704 47.23 92.0804 47.65 93.0204 48.19C94.5704 49.09 95.9304 50.3 97.0204 51.73C97.4404 52.27 97.8204 52.83 98.1504 53.43C98.4204 53.9 98.6604 54.38 98.8704 54.87C98.9504 55.03 99.0204 55.2 99.0704 55.37L99.1804 55.7L99.2704 55.97C99.8404 57.74 98.8704 59.63 97.1004 60.2C95.7704 60.63 94.3204 60.19 93.4504 59.1H93.4804Z" fill="#1A1717" style="fill:#1A1717;fill:color(display-p3 0.1020 0.0902 0.0902);fill-opacity:1;"/>
<path d="M93.4804 59.1L93.3004 58.88L93.0904 58.61C93.0104 58.5 92.9304 58.41 92.8304 58.32L92.2104 57.7C91.9604 57.45 91.6604 57.18 91.3504 56.91C90.6904 56.34 89.9504 55.88 89.1504 55.52C88.3804 55.18 87.5404 55 86.7004 55H86.2904C86.1904 54.98 86.1004 54.98 86.0004 55C85.8204 55.02 85.6404 55.05 85.4604 55.09C85.0404 55.19 84.6404 55.32 84.2404 55.48C83.4304 55.85 82.6704 56.33 82.0004 56.91C81.4604 57.37 80.9604 57.86 80.4804 58.38L80.0004 59L79.7004 59.34C78.5804 60.8 76.4904 61.07 75.0304 59.94C73.8304 59.02 73.4004 57.4 74.0004 56L74.1104 55.68C74.2104 55.37 74.3304 55.07 74.4604 54.77C74.9304 53.67 75.5504 52.64 76.2804 51.69C78.0304 49.38 80.4904 47.7 83.2804 46.9C83.8504 46.75 84.4304 46.64 85.0204 46.56C85.3204 46.56 85.7504 46.47 85.8904 46.47H86.6504C87.7904 46.49 88.9204 46.65 90.0204 46.94C91.0704 47.23 92.0804 47.65 93.0204 48.19C94.5704 49.09 95.9304 50.3 97.0204 51.73C97.4404 52.27 97.8204 52.83 98.1504 53.43C98.4204 53.9 98.6604 54.38 98.8704 54.87C98.9504 55.03 99.0204 55.2 99.0704 55.37L99.1804 55.7L99.2704 55.97C99.8404 57.74 98.8704 59.63 97.1004 60.2C95.7704 60.63 94.3204 60.19 93.4504 59.1H93.4804Z" fill="#49362E" style="fill:#49362E;fill:color(display-p3 0.2863 0.2118 0.1804);fill-opacity:1;"/>
<path d="M72.8601 84.93C74.5701 83.42 75.6401 81.33 75.8601 79.06C76.0501 75.46 75.1301 74.22 73.9501 72.65C71.2401 69 63.5501 69.87 63.5501 69.87C61.5501 69.95 59.1101 70.93 59.4001 73.31C59.7901 74.66 60.8901 75.69 62.2701 76C65.2701 76.73 69.6401 76 69.7601 79.09C69.9001 82.55 64.5801 81.09 64.1601 84.79C63.7401 88.49 69.7601 87.98 69.7601 90.5C69.7601 92.43 67.7601 92.76 65.6901 93.2C63.9001 93.57 60.4601 94.13 60.1801 96.2C59.9001 98.27 61.0901 100.77 65.9301 100.04C73.5401 98.89 76.1001 94.72 76.1001 92.16C76.1501 89.39 74.9601 86.74 72.8601 84.93Z" fill="#49362E" style="fill:#49362E;fill:color(display-p3 0.2863 0.2118 0.1804);fill-opacity:1;"/>
<path d="M72.8601 84.93C74.5701 83.42 75.6401 81.33 75.8601 79.06C76.0501 75.46 75.1301 74.22 73.9501 72.65C71.2401 69 63.5501 69.87 63.5501 69.87C61.5501 69.95 59.1101 70.93 59.4001 73.31C59.7901 74.66 60.8901 75.69 62.2701 76C65.2701 76.73 69.6401 76 69.7601 79.09C69.9001 82.55 64.5801 81.09 64.1601 84.79C63.7401 88.49 69.7601 87.98 69.7601 90.5C69.7601 92.43 67.7601 92.76 65.6901 93.2C63.9001 93.57 60.4601 94.13 60.1801 96.2C59.9001 98.27 61.0901 100.77 65.9301 100.04C73.5401 98.89 76.1001 94.72 76.1001 92.16C76.1501 89.39 74.9601 86.74 72.8601 84.93Z" fill="#1A1717" style="fill:#1A1717;fill:color(display-p3 0.1020 0.0902 0.0902);fill-opacity:1;"/>
<path d="M72.8601 84.93C74.5701 83.42 75.6401 81.33 75.8601 79.06C76.0501 75.46 75.1301 74.22 73.9501 72.65C71.2401 69 63.5501 69.87 63.5501 69.87C61.5501 69.95 59.1101 70.93 59.4001 73.31C59.7901 74.66 60.8901 75.69 62.2701 76C65.2701 76.73 69.6401 76 69.7601 79.09C69.9001 82.55 64.5801 81.09 64.1601 84.79C63.7401 88.49 69.7601 87.98 69.7601 90.5C69.7601 92.43 67.7601 92.76 65.6901 93.2C63.9001 93.57 60.4601 94.13 60.1801 96.2C59.9001 98.27 61.0901 100.77 65.9301 100.04C73.5401 98.89 76.1001 94.72 76.1001 92.16C76.1501 89.39 74.9601 86.74 72.8601 84.93Z" fill="#5D4037" style="fill:#5D4037;fill:color(display-p3 0.3647 0.2510 0.2157);fill-opacity:1;"/>
<path d="M47.1801 32.61C49.4901 32.61 50.1801 29.48 47.7101 28.96C45.7901 28.6 43.8201 28.54 41.8801 28.79C36.6301 29.38 31.8001 31.96 28.3801 36C26.8101 37.92 29.3801 39.94 31.0701 38.51C35.6301 34.8 41.3001 32.72 47.1801 32.61Z" fill="#49362E" style="fill:#49362E;fill:color(display-p3 0.2863 0.2118 0.1804);fill-opacity:1;"/>
<path d="M47.1801 32.61C49.4901 32.61 50.1801 29.48 47.7101 28.96C45.7901 28.6 43.8201 28.54 41.8801 28.79C36.6301 29.38 31.8001 31.96 28.3801 36C26.8101 37.92 29.3801 39.94 31.0701 38.51C35.6301 34.8 41.3001 32.72 47.1801 32.61Z" fill="#1A1717" style="fill:#1A1717;fill:color(display-p3 0.1020 0.0902 0.0902);fill-opacity:1;"/>
<path d="M47.1801 32.61C49.4901 32.61 50.1801 29.48 47.7101 28.96C45.7901 28.6 43.8201 28.54 41.8801 28.79C36.6301 29.38 31.8001 31.96 28.3801 36C26.8101 37.92 29.3801 39.94 31.0701 38.51C35.6301 34.8 41.3001 32.72 47.1801 32.61Z" fill="#613E31" style="fill:#613E31;fill:color(display-p3 0.3804 0.2431 0.1922);fill-opacity:1;"/>
<path d="M79.9999 33.29C77.7099 33.55 76.7299 30.47 79.1099 29.71C80.9999 29.17 82.9699 28.93 84.9399 29C90.2299 29.07 95.2899 31.17 99.0799 34.86C100.83 36.62 98.4799 38.86 96.6499 37.62C91.7399 34.35 85.8799 32.82 79.9999 33.29Z" fill="#49362E" style="fill:#49362E;fill:color(display-p3 0.2863 0.2118 0.1804);fill-opacity:1;"/>
<path d="M79.9999 33.29C77.7099 33.55 76.7299 30.47 79.1099 29.71C80.9999 29.17 82.9699 28.93 84.9399 29C90.2299 29.07 95.2899 31.17 99.0799 34.86C100.83 36.62 98.4799 38.86 96.6499 37.62C91.7399 34.35 85.8799 32.82 79.9999 33.29Z" fill="#1A1717" style="fill:#1A1717;fill:color(display-p3 0.1020 0.0902 0.0902);fill-opacity:1;"/>
<path d="M79.9999 33.29C77.7099 33.55 76.7299 30.47 79.1099 29.71C80.9999 29.17 82.9699 28.93 84.9399 29C90.2299 29.07 95.2899 31.17 99.0799 34.86C100.83 36.62 98.4799 38.86 96.6499 37.62C91.7399 34.35 85.8799 32.82 79.9999 33.29Z" fill="#613E31" style="fill:#613E31;fill:color(display-p3 0.3804 0.2431 0.1922);fill-opacity:1;"/>
<path d="M111.49 29.67C116.82 38.27 119.6 48.51 119.6 59.9C119.6 76.8 113.5 91.1 102 101.3C91.3999 110.6 76.9999 115.8 61.5999 115.8C43.5399 115.8 24.5999 108.45 13.4199 92.86C24.1799 110.52 44.4199 118.8 63.5999 118.8C78.9999 118.8 93.3999 113.6 104 104.3C115.5 94.1 121.6 79.8 121.6 62.9C121.6 50.16 118.13 38.84 111.49 29.67Z" fill="#EB8F00" style="fill:#EB8F00;fill:color(display-p3 0.9216 0.5608 0.0000);fill-opacity:1;"/>
<path d="M111.49 29.67C116.82 38.27 119.6 48.51 119.6 59.9C119.6 76.8 113.5 91.1 102 101.3C91.3999 110.6 76.9999 115.8 61.5999 115.8C43.5399 115.8 24.5999 108.45 13.4199 92.86C24.1799 110.52 44.4199 118.8 63.5999 118.8C78.9999 118.8 93.3999 113.6 104 104.3C115.5 94.1 121.6 79.8 121.6 62.9C121.6 50.16 118.13 38.84 111.49 29.67Z" fill="#F3B872" style="fill:#F3B872;fill:color(display-p3 0.9542 0.7229 0.4453);fill-opacity:1;"/>
<path d="M111.49 29.67C116.82 38.27 119.6 48.51 119.6 59.9C119.6 76.8 113.5 91.1 102 101.3C91.3999 110.6 76.9999 115.8 61.5999 115.8C43.5399 115.8 24.5999 108.45 13.4199 92.86C24.1799 110.52 44.4199 118.8 63.5999 118.8C78.9999 118.8 93.3999 113.6 104 104.3C115.5 94.1 121.6 79.8 121.6 62.9C121.6 50.16 118.13 38.84 111.49 29.67Z" fill="#91674D" style="fill:#91674D;fill:color(display-p3 0.5686 0.4039 0.3020);fill-opacity:1;"/>
<path opacity="0.5" d="M100.63 91.66C110.295 91.66 118.13 83.825 118.13 74.16C118.13 64.495 110.295 56.66 100.63 56.66C90.9649 56.66 83.1299 64.495 83.1299 74.16C83.1299 83.825 90.9649 91.66 100.63 91.66Z" fill="url(#paint6_radial_169_12617)" style=""/>
<defs>
<radialGradient id="paint0_radial_169_12617" cx="0" cy="0" r="1" gradientUnits="userSpaceOnUse" gradientTransform="translate(63.6001 62.9) scale(56.9597 56.9597)">
<stop offset="0.5" stop-color="#FDE030" style="stop-color:#FDE030;stop-color:color(display-p3 0.9922 0.8784 0.1882);stop-opacity:1;"/>
<stop offset="0.92" stop-color="#F7C02B" style="stop-color:#F7C02B;stop-color:color(display-p3 0.9686 0.7529 0.1686);stop-opacity:1;"/>
<stop offset="1" stop-color="#F4A223" style="stop-color:#F4A223;stop-color:color(display-p3 0.9569 0.6353 0.1373);stop-opacity:1;"/>
</radialGradient>
<radialGradient id="paint1_radial_169_12617" cx="0" cy="0" r="1" gradientUnits="userSpaceOnUse" gradientTransform="translate(38.5991 34.5377) rotate(-43.2082) scale(102.024 101.825)">
<stop offset="0.3533" stop-color="#F9DDBD" style="stop-color:#F9DDBD;stop-color:color(display-p3 0.9765 0.8667 0.7412);stop-opacity:1;"/>
<stop offset="0.8723" stop-color="#FFD29C" style="stop-color:#FFD29C;stop-color:color(display-p3 1.0000 0.8235 0.6118);stop-opacity:1;"/>
</radialGradient>
<radialGradient id="paint2_radial_169_12617" cx="0" cy="0" r="1" gradientUnits="userSpaceOnUse" gradientTransform="translate(38.5991 34.5377) rotate(-43.2082) scale(102.024 101.825)">
<stop offset="0.3533" stop-color="#70534A" style="stop-color:#70534A;stop-color:color(display-p3 0.4392 0.3255 0.2902);stop-opacity:1;"/>
<stop offset="0.8723" stop-color="#5C4037" style="stop-color:#5C4037;stop-color:color(display-p3 0.3608 0.2510 0.2157);stop-opacity:1;"/>
</radialGradient>
<radialGradient id="paint3_radial_169_12617" cx="0" cy="0" r="1" gradientUnits="userSpaceOnUse" gradientTransform="translate(38.5991 34.5377) rotate(-43.2082) scale(102.024 101.825)">
<stop offset="0.3533" stop-color="#A37A58" style="stop-color:#A37A58;stop-color:color(display-p3 0.6375 0.4772 0.3453);stop-opacity:1;"/>
<stop offset="0.8723" stop-color="#8D5738" style="stop-color:#8D5738;stop-color:color(display-p3 0.5529 0.3412 0.2196);stop-opacity:1;"/>
</radialGradient>
<radialGradient id="paint4_radial_169_12617" cx="0" cy="0" r="1" gradientUnits="userSpaceOnUse" gradientTransform="translate(38.5991 34.5377) rotate(-43.2082) scale(102.024 101.825)">
<stop offset="0.3533" stop-color="#AD8264" style="stop-color:#AD8264;stop-color:color(display-p3 0.6784 0.5098 0.3922);stop-opacity:1;"/>
<stop offset="0.8723" stop-color="#A47B62" style="stop-color:#A47B62;stop-color:color(display-p3 0.6431 0.4824 0.3843);stop-opacity:1;"/>
</radialGradient>
<radialGradient id="paint5_radial_169_12617" cx="0" cy="0" r="1" gradientUnits="userSpaceOnUse" gradientTransform="translate(27.25 74.1222) scale(19.0628 18.0902)">
<stop stop-color="#ED7770" style="stop-color:#ED7770;stop-color:color(display-p3 0.9294 0.4667 0.4392);stop-opacity:1;"/>
<stop offset="0.08" stop-color="#ED7770" stop-opacity="0.96" style="stop-color:#ED7770;stop-color:color(display-p3 0.9294 0.4667 0.4392);stop-opacity:0.96;"/>
<stop offset="0.22" stop-color="#ED7770" stop-opacity="0.85" style="stop-color:#ED7770;stop-color:color(display-p3 0.9294 0.4667 0.4392);stop-opacity:0.85;"/>
<stop offset="0.39" stop-color="#ED7770" stop-opacity="0.68" style="stop-color:#ED7770;stop-color:color(display-p3 0.9294 0.4667 0.4392);stop-opacity:0.68;"/>
<stop offset="0.59" stop-color="#ED7770" stop-opacity="0.43" style="stop-color:#ED7770;stop-color:color(display-p3 0.9294 0.4667 0.4392);stop-opacity:0.43;"/>
<stop offset="0.81" stop-color="#ED7770" stop-opacity="0.13" style="stop-color:#ED7770;stop-color:color(display-p3 0.9294 0.4667 0.4392);stop-opacity:0.13;"/>
<stop offset="0.9" stop-color="#ED7770" stop-opacity="0" style="stop-color:none;stop-opacity:0;"/>
</radialGradient>
<radialGradient id="paint6_radial_169_12617" cx="0" cy="0" r="1" gradientUnits="userSpaceOnUse" gradientTransform="translate(100.635 74.1222) scale(19.0628 18.0902)">
<stop stop-color="#ED7770" style="stop-color:#ED7770;stop-color:color(display-p3 0.9294 0.4667 0.4392);stop-opacity:1;"/>
<stop offset="0.08" stop-color="#ED7770" stop-opacity="0.96" style="stop-color:#ED7770;stop-color:color(display-p3 0.9294 0.4667 0.4392);stop-opacity:0.96;"/>
<stop offset="0.22" stop-color="#ED7770" stop-opacity="0.85" style="stop-color:#ED7770;stop-color:color(display-p3 0.9294 0.4667 0.4392);stop-opacity:0.85;"/>
<stop offset="0.39" stop-color="#ED7770" stop-opacity="0.68" style="stop-color:#ED7770;stop-color:color(display-p3 0.9294 0.4667 0.4392);stop-opacity:0.68;"/>
<stop offset="0.59" stop-color="#ED7770" stop-opacity="0.43" style="stop-color:#ED7770;stop-color:color(display-p3 0.9294 0.4667 0.4392);stop-opacity:0.43;"/>
<stop offset="0.81" stop-color="#ED7770" stop-opacity="0.13" style="stop-color:#ED7770;stop-color:color(display-p3 0.9294 0.4667 0.4392);stop-opacity:0.13;"/>
<stop offset="0.9" stop-color="#ED7770" stop-opacity="0" style="stop-color:none;stop-opacity:0;"/>
</radialGradient>
</defs>
</svg>
