<svg width="128" height="128" viewBox="0 0 128 128" fill="none" xmlns="http://www.w3.org/2000/svg">
<g clip-path="url(#clip0_62_55)">
<path d="M124 35.2C122.15 36.32 120.34 37.26 118.57 38.05C116.79 38.85 115.05 39.5 113.33 40.03C111.61 40.56 109.93 40.98 108.27 41.29C106.61 41.61 104.98 41.83 103.38 41.97C101.78 42.11 100.19 42.17 98.63 42.17C97.07 42.17 95.53 42.11 94.01 41.99C92.49 41.87 90.99 41.71 89.51 41.51C88.03 41.3 86.56 41.06 85.11 40.78C83.66 40.5 82.22 40.2 80.79 39.87C79.36 39.54 77.94 39.19 76.54 38.82C75.13 38.45 73.73 38.06 72.33 37.67C70.93 37.28 69.54 36.86 68.16 36.45C66.77 36.04 65.39 35.62 64 35.2C62.62 34.78 61.23 34.36 59.84 33.95C58.45 33.54 57.06 33.13 55.67 32.73C54.27 32.33 52.87 31.95 51.46 31.58C50.05 31.21 48.63 30.86 47.21 30.53C45.79 30.2 44.34 29.89 42.89 29.62C41.44 29.34 39.97 29.1 38.49 28.89C37.01 28.68 35.51 28.52 33.99 28.41C32.47 28.3 30.93 28.23 29.37 28.23C27.81 28.23 26.23 28.29 24.62 28.43C23.01 28.57 21.38 28.79 19.73 29.11C18.07 29.43 16.39 29.84 14.67 30.37C12.95 30.9 11.21 31.55 9.43 32.35C7.66 33.15 5.85 34.09 4 35.2V30.19C4 30.19 4 27.31 4 25.82V20.81C5.85 19.69 7.66 18.75 9.43 17.96C11.2 17.17 12.95 16.51 14.67 15.98C16.39 15.45 18.07 15.03 19.73 14.72C21.39 14.4 23.02 14.18 24.62 14.04C26.23 13.9 27.81 13.84 29.37 13.84C30.93 13.84 32.47 13.9 33.99 14.02C35.51 14.13 37.01 14.3 38.49 14.5C39.97 14.7 41.44 14.95 42.89 15.23C44.34 15.51 45.78 15.81 47.21 16.14C48.64 16.47 50.06 16.82 51.46 17.19C52.87 17.56 54.27 17.95 55.67 18.34C57.07 18.73 58.46 19.15 59.84 19.56C61.22 19.97 62.61 20.39 64 20.81C65.38 21.23 66.77 21.65 68.16 22.06C69.55 22.47 70.94 22.88 72.33 23.28C73.72 23.68 75.13 24.06 76.54 24.43C77.95 24.8 79.37 25.15 80.79 25.48C82.22 25.81 83.66 26.12 85.11 26.39C86.56 26.67 88.03 26.91 89.51 27.12C90.99 27.33 92.49 27.49 94.01 27.6C95.53 27.71 97.07 27.78 98.63 27.78C100.19 27.78 101.77 27.72 103.38 27.58C104.99 27.44 106.62 27.22 108.27 26.9C109.93 26.58 111.61 26.17 113.33 25.64C115.05 25.11 116.79 24.46 118.57 23.66C120.35 22.86 122.16 21.92 124 20.81V25.82V30.19C124 30.19 124 33.28 124 35.2Z" fill="#2F2CE2" style="fill:#2F2CE2;fill:color(display-p3 0.1858 0.1738 0.8875);fill-opacity:1;"/>
<path d="M124 49.6C122.15 50.72 120.34 51.66 118.57 52.45C116.79 53.25 115.05 53.9 113.33 54.43C111.61 54.96 109.93 55.38 108.27 55.69C106.61 56.01 104.98 56.23 103.38 56.37C101.78 56.51 100.19 56.57 98.63 56.57C97.07 56.57 95.53 56.51 94.01 56.39C92.49 56.27 90.99 56.11 89.51 55.91C88.03 55.7 86.56 55.46 85.11 55.18C83.66 54.9 82.22 54.6 80.79 54.27C79.36 53.94 77.94 53.59 76.54 53.22C75.13 52.85 73.73 52.46 72.33 52.07C70.93 51.68 69.54 51.26 68.16 50.85C66.77 50.44 65.39 50.02 64 49.6C62.61 49.18 61.23 48.76 59.84 48.35C58.45 47.94 57.06 47.53 55.67 47.13C54.27 46.73 52.87 46.35 51.46 45.98C50.05 45.61 48.63 45.26 47.21 44.93C45.78 44.6 44.34 44.29 42.89 44.02C41.44 43.74 39.97 43.5 38.49 43.29C37.01 43.08 35.51 42.92 33.99 42.81C32.47 42.7 30.93 42.63 29.37 42.63C27.81 42.63 26.23 42.69 24.62 42.83C23.01 42.97 21.38 43.19 19.73 43.51C18.07 43.83 16.39 44.24 14.67 44.77C12.95 45.3 11.21 45.95 9.43 46.75C7.65 47.55 5.85 48.48 4 49.6V44.59C4 44.59 4 41.71 4 40.22C4 38.73 4 37.13 4 35.21C5.85 34.09 7.66 33.15 9.43 32.36C11.21 31.56 12.95 30.91 14.67 30.38C16.39 29.85 18.07 29.43 19.73 29.12C21.39 28.8 23.02 28.58 24.62 28.44C26.23 28.3 27.81 28.24 29.37 28.24C30.93 28.24 32.47 28.3 33.99 28.42C35.51 28.53 37.01 28.7 38.49 28.9C39.97 29.1 41.44 29.35 42.89 29.63C44.34 29.91 45.78 30.21 47.21 30.54C48.64 30.87 50.06 31.22 51.46 31.59C52.87 31.96 54.27 32.35 55.67 32.74C57.07 33.14 58.46 33.55 59.84 33.96C61.23 34.37 62.61 34.79 64 35.21C65.38 35.63 66.77 36.05 68.16 36.46C69.55 36.87 70.94 37.28 72.33 37.68C73.72 38.08 75.13 38.46 76.54 38.83C77.95 39.2 79.37 39.55 80.79 39.88C82.22 40.21 83.66 40.52 85.11 40.79C86.56 41.07 88.03 41.31 89.51 41.52C90.99 41.73 92.49 41.89 94.01 42C95.53 42.11 97.07 42.18 98.63 42.18C100.19 42.18 101.77 42.12 103.38 41.98C104.99 41.84 106.62 41.62 108.27 41.3C109.93 40.98 111.61 40.57 113.33 40.04C115.05 39.51 116.79 38.86 118.57 38.06C120.35 37.26 122.16 36.32 124 35.21V40.22C124 40.22 124 43.1 124 44.59C124 46.08 124 47.68 124 49.6Z" fill="#2F2CE2" style="fill:#2F2CE2;fill:color(display-p3 0.1858 0.1738 0.8875);fill-opacity:1;"/>
<path d="M124 64C122.15 65.12 120.34 66.06 118.57 66.85C116.79 67.65 115.05 68.3 113.33 68.83C111.61 69.36 109.93 69.78 108.27 70.09C106.61 70.41 104.98 70.63 103.38 70.77C101.78 70.91 100.19 70.97 98.63 70.97C97.07 70.97 95.53 70.91 94.01 70.79C92.49 70.67 90.99 70.51 89.51 70.31C88.03 70.1 86.56 69.86 85.11 69.58C83.66 69.3 82.22 69 80.79 68.67C79.36 68.34 77.94 67.99 76.54 67.62C75.13 67.25 73.73 66.86 72.33 66.47C70.93 66.08 69.54 65.66 68.16 65.25C66.77 64.84 65.38 64.42 64 64C62.62 63.58 61.23 63.16 59.84 62.75C58.45 62.34 57.06 61.93 55.67 61.53C54.27 61.13 52.87 60.75 51.46 60.38C50.05 60.01 48.63 59.66 47.21 59.33C45.79 59 44.34 58.69 42.89 58.42C41.44 58.14 39.97 57.9 38.49 57.69C37.01 57.48 35.51 57.32 33.99 57.21C32.47 57.1 30.93 57.03 29.37 57.03C27.81 57.03 26.23 57.09 24.62 57.23C23.01 57.37 21.38 57.59 19.73 57.91C18.07 58.23 16.39 58.64 14.67 59.17C12.95 59.7 11.21 60.35 9.43 61.15C7.66 61.94 5.85 62.88 4 64V58.99C4 58.99 4 56.11 4 54.62V49.61C5.85 48.49 7.66 47.55 9.43 46.76C11.2 45.97 12.95 45.31 14.67 44.78C16.39 44.25 18.07 43.83 19.73 43.52C21.39 43.2 23.02 42.98 24.62 42.84C26.23 42.7 27.81 42.64 29.37 42.64C30.93 42.64 32.47 42.7 33.99 42.82C35.51 42.93 37.01 43.1 38.49 43.3C39.97 43.51 41.44 43.75 42.89 44.03C44.34 44.31 45.78 44.61 47.21 44.94C48.64 45.27 50.06 45.62 51.46 45.99C52.87 46.36 54.27 46.75 55.67 47.14C57.07 47.54 58.46 47.95 59.84 48.36C61.23 48.77 62.61 49.19 64 49.61C65.39 50.03 66.77 50.45 68.16 50.86C69.55 51.27 70.94 51.68 72.33 52.08C73.72 52.48 75.13 52.86 76.54 53.23C77.95 53.6 79.37 53.95 80.79 54.28C82.22 54.61 83.66 54.92 85.11 55.19C86.56 55.47 88.03 55.71 89.51 55.92C90.99 56.13 92.49 56.29 94.01 56.4C95.53 56.51 97.07 56.58 98.63 56.58C100.19 56.58 101.77 56.52 103.38 56.38C104.99 56.24 106.62 56.02 108.27 55.7C109.93 55.38 111.61 54.97 113.33 54.44C115.05 53.91 116.79 53.26 118.57 52.46C120.35 51.66 122.16 50.72 124 49.61V54.62V58.99C124 58.99 124 62.08 124 64Z" fill="#FE292B" style="fill:#FE292B;fill:color(display-p3 0.9958 0.1618 0.1687);fill-opacity:1;"/>
<path d="M124 78.4C122.15 79.52 120.34 80.46 118.57 81.25C116.79 82.05 115.05 82.7 113.33 83.23C111.61 83.76 109.93 84.18 108.27 84.49C106.61 84.8 104.98 85.03 103.38 85.17C101.77 85.31 100.19 85.37 98.63 85.37C97.07 85.37 95.53 85.31 94.01 85.19C92.49 85.08 90.99 84.91 89.51 84.71C88.03 84.5 86.56 84.26 85.11 83.98C83.66 83.7 82.22 83.4 80.79 83.07C79.36 82.74 77.94 82.39 76.54 82.02C75.13 81.65 73.73 81.26 72.33 80.87C70.93 80.48 69.54 80.06 68.16 79.65C66.77 79.24 65.39 78.82 64 78.4C62.62 77.98 61.23 77.56 59.84 77.15C58.45 76.74 57.06 76.33 55.67 75.93C54.27 75.53 52.87 75.15 51.46 74.78C50.05 74.41 48.63 74.06 47.21 73.73C45.79 73.4 44.34 73.09 42.89 72.82C41.44 72.54 39.97 72.3 38.49 72.09C37.01 71.88 35.51 71.72 33.99 71.61C32.47 71.5 30.93 71.43 29.37 71.43C27.81 71.43 26.23 71.49 24.62 71.63C23.01 71.77 21.38 71.99 19.73 72.31C18.07 72.63 16.39 73.04 14.67 73.57C12.95 74.1 11.21 74.75 9.43 75.55C7.66 76.35 5.85 77.29 4 78.4V73.39C4 73.39 4 70.51 4 69.02V64.01C5.85 62.89 7.66 61.95 9.43 61.16C11.21 60.36 12.95 59.71 14.67 59.18C16.39 58.65 18.07 58.23 19.73 57.92C21.39 57.6 23.02 57.38 24.62 57.24C26.23 57.1 27.81 57.04 29.37 57.04C30.93 57.04 32.47 57.1 33.99 57.22C35.51 57.33 37.01 57.5 38.49 57.7C39.97 57.91 41.44 58.15 42.89 58.43C44.34 58.71 45.78 59.01 47.21 59.34C48.64 59.67 50.06 60.02 51.46 60.39C52.87 60.76 54.27 61.15 55.67 61.54C57.07 61.94 58.46 62.35 59.84 62.76C61.23 63.17 62.61 63.59 64 64.01C65.38 64.43 66.77 64.85 68.16 65.26C69.55 65.67 70.94 66.08 72.33 66.48C73.72 66.88 75.13 67.26 76.54 67.63C77.95 68 79.37 68.35 80.79 68.68C82.22 69.01 83.66 69.32 85.11 69.59C86.56 69.87 88.03 70.11 89.51 70.32C90.99 70.53 92.49 70.69 94.01 70.8C95.53 70.91 97.07 70.98 98.63 70.98C100.19 70.98 101.77 70.92 103.38 70.78C104.99 70.64 106.62 70.42 108.27 70.1C109.93 69.78 111.61 69.37 113.33 68.84C115.05 68.31 116.79 67.66 118.57 66.86C120.35 66.06 122.16 65.12 124 64.01V69.02V73.39C124 73.39 124 76.48 124 78.4Z" fill="#FE292B" style="fill:#FE292B;fill:color(display-p3 0.9958 0.1618 0.1687);fill-opacity:1;"/>
<path d="M124 92.7999C122.15 93.9199 120.34 94.8599 118.57 95.6499C116.79 96.4499 115.05 97.0999 113.33 97.6299C111.61 98.1599 109.93 98.5799 108.27 98.8899C106.61 99.1999 104.98 99.4299 103.38 99.5699C101.77 99.7099 100.19 99.7699 98.63 99.7699C97.07 99.7699 95.53 99.7099 94.01 99.5899C92.49 99.4799 90.99 99.3099 89.51 99.1099C88.03 98.8999 86.56 98.6599 85.11 98.3799C83.66 98.0999 82.22 97.7999 80.79 97.4699C79.36 97.1399 77.94 96.7899 76.54 96.4199C75.13 96.0499 73.73 95.6599 72.33 95.2699C70.93 94.8699 69.54 94.4599 68.16 94.0499C66.77 93.6399 65.39 93.2199 64 92.7999C62.62 92.3799 61.23 91.9599 59.84 91.5499C58.45 91.1399 57.06 90.7299 55.67 90.3299C54.27 89.9299 52.87 89.5499 51.46 89.1799C50.05 88.8099 48.63 88.4599 47.21 88.1299C45.79 87.7999 44.34 87.4899 42.89 87.2199C41.44 86.9399 39.97 86.6999 38.49 86.4899C37.01 86.2799 35.51 86.1199 33.99 86.0099C32.47 85.8999 30.93 85.8299 29.37 85.8299C27.81 85.8299 26.23 85.8899 24.62 86.0299C23.01 86.1699 21.38 86.3899 19.73 86.7099C18.08 87.0299 16.39 87.4399 14.67 87.9699C12.95 88.4999 11.21 89.1499 9.43 89.9499C7.65 90.7499 5.85 91.6799 4 92.7999V87.7899C4 87.7899 4 84.9099 4 83.4199V78.4099C5.85 77.2899 7.66 76.3499 9.43 75.5599C11.21 74.7599 12.95 74.1099 14.67 73.5799C16.39 73.0499 18.07 72.6299 19.73 72.3199C21.39 71.9999 23.02 71.7799 24.62 71.6399C26.23 71.4999 27.81 71.4399 29.37 71.4399C30.93 71.4399 32.47 71.4999 33.99 71.6199C35.51 71.7299 37.01 71.8999 38.49 72.0999C39.97 72.3099 41.44 72.5499 42.89 72.8299C44.34 73.1099 45.78 73.4099 47.21 73.7399C48.64 74.0699 50.06 74.4199 51.46 74.7899C52.87 75.1599 54.27 75.5499 55.67 75.9399C57.07 76.3399 58.46 76.7499 59.84 77.1599C61.23 77.5699 62.61 77.9899 64 78.4099C65.38 78.8299 66.77 79.2499 68.16 79.6599C69.55 80.0699 70.94 80.4799 72.33 80.8799C73.72 81.2799 75.13 81.6599 76.54 82.0299C77.95 82.3999 79.37 82.7499 80.79 83.0799C82.22 83.4099 83.66 83.7199 85.11 83.9899C86.56 84.2699 88.03 84.5099 89.51 84.7199C90.99 84.9299 92.49 85.0899 94.01 85.1999C95.53 85.3099 97.07 85.3799 98.63 85.3799C100.19 85.3799 101.77 85.3199 103.38 85.1799C104.99 85.0399 106.62 84.8199 108.27 84.4999C109.93 84.1799 111.61 83.7699 113.33 83.2399C115.05 82.7099 116.79 82.0599 118.57 81.2599C120.35 80.4599 122.16 79.5199 124 78.4099V83.4199V87.7899C124 87.7899 124 90.8799 124 92.7999Z" fill="#333333" style="fill:#333333;fill:color(display-p3 0.2000 0.2000 0.2000);fill-opacity:1;"/>
<path d="M124 107.2C122.15 108.32 120.34 109.26 118.57 110.05C116.79 110.85 115.05 111.5 113.33 112.03C111.61 112.56 109.93 112.98 108.27 113.29C106.61 113.61 104.98 113.83 103.38 113.97C101.77 114.11 100.19 114.17 98.63 114.17C97.07 114.17 95.53 114.11 94.01 113.99C92.49 113.88 90.99 113.71 89.51 113.51C88.03 113.3 86.56 113.06 85.11 112.78C83.66 112.5 82.22 112.2 80.79 111.87C79.36 111.54 77.94 111.19 76.54 110.82C75.14 110.45 73.73 110.06 72.33 109.67C70.93 109.27 69.54 108.86 68.16 108.45C66.77 108.04 65.39 107.62 64 107.2C62.62 106.78 61.23 106.36 59.84 105.95C58.45 105.54 57.06 105.13 55.67 104.73C54.27 104.33 52.87 103.95 51.46 103.58C50.05 103.21 48.63 102.86 47.21 102.53C45.79 102.2 44.34 101.89 42.89 101.62C41.44 101.34 39.97 101.1 38.49 100.89C37.01 100.68 35.51 100.52 33.99 100.41C32.47 100.3 30.93 100.23 29.37 100.23C27.81 100.23 26.23 100.29 24.62 100.43C23.01 100.57 21.38 100.79 19.73 101.11C18.07 101.43 16.39 101.84 14.67 102.37C12.95 102.9 11.21 103.55 9.43 104.35C7.65 105.15 5.84 106.09 4 107.2V102.19C4 102.19 4 99.31 4 97.82V92.81C5.85 91.69 7.66 90.75 9.43 89.96C11.2 89.17 12.95 88.51 14.67 87.98C16.39 87.45 18.07 87.03 19.73 86.72C21.39 86.41 23.02 86.18 24.62 86.04C26.23 85.9 27.81 85.84 29.37 85.84C30.93 85.84 32.47 85.9 33.99 86.02C35.51 86.13 37.01 86.3 38.49 86.5C39.97 86.7 41.44 86.95 42.89 87.23C44.34 87.51 45.78 87.81 47.21 88.14C48.64 88.47 50.06 88.82 51.46 89.19C52.87 89.56 54.27 89.95 55.67 90.34C57.07 90.74 58.46 91.15 59.84 91.56C61.23 91.97 62.61 92.39 64 92.81C65.38 93.23 66.77 93.65 68.16 94.06C69.55 94.47 70.94 94.88 72.33 95.28C73.73 95.68 75.13 96.06 76.54 96.43C77.95 96.8 79.37 97.15 80.79 97.48C82.22 97.81 83.66 98.12 85.11 98.39C86.56 98.67 88.03 98.91 89.51 99.12C90.99 99.33 92.49 99.49 94.01 99.6C95.53 99.71 97.07 99.78 98.63 99.78C100.19 99.78 101.77 99.72 103.38 99.58C104.99 99.44 106.62 99.22 108.27 98.9C109.92 98.58 111.61 98.17 113.33 97.64C115.05 97.11 116.79 96.46 118.57 95.66C120.35 94.86 122.16 93.92 124 92.81V97.82V102.19C124 102.19 124 105.28 124 107.2Z" fill="#333333" style="fill:#333333;fill:color(display-p3 0.2000 0.2000 0.2000);fill-opacity:1;"/>
<path opacity="0.3" d="M124 107.2C122.15 108.32 120.34 109.26 118.57 110.05C116.79 110.85 115.05 111.5 113.33 112.03C111.61 112.56 109.93 112.98 108.27 113.29C106.61 113.61 104.98 113.83 103.38 113.97C101.77 114.11 100.19 114.17 98.63 114.17C97.07 114.17 95.53 114.11 94.01 113.99C92.49 113.88 90.99 113.71 89.51 113.51C88.03 113.3 86.56 113.06 85.11 112.78C83.66 112.5 82.22 112.2 80.79 111.87C79.36 111.54 77.94 111.19 76.54 110.82C75.14 110.45 73.73 110.06 72.33 109.67C70.93 109.27 69.54 108.86 68.16 108.45C66.77 108.04 65.39 107.62 64 107.2C62.62 106.78 61.23 106.36 59.84 105.95C58.45 105.54 57.06 105.13 55.67 104.73C54.27 104.33 52.87 103.95 51.46 103.58C50.05 103.21 48.63 102.86 47.21 102.53C45.79 102.2 44.34 101.89 42.89 101.62C41.44 101.34 39.97 101.1 38.49 100.89C37.01 100.68 35.51 100.52 33.99 100.41C32.47 100.3 30.93 100.23 29.37 100.23C27.81 100.23 26.23 100.29 24.62 100.43C23.01 100.57 21.38 100.79 19.73 101.11C18.07 101.43 16.39 101.84 14.67 102.37C12.95 102.9 11.21 103.55 9.43 104.35C7.65 105.15 5.84 106.09 4 107.2V101.59V96.27V91.2V86.34V81.66C4 81.66 4 78.61 4 77.12V72.69C4 72.69 4 69.77 4 68.33C4 66.89 4 65.44 4 64V59.67V55.31V50.88C4 50.88 4 47.88 4 46.34C4 44.8 4 43.25 4 41.66V36.8C4 36.8 4 33.46 4 31.73V26.41V20.8C5.85 19.68 7.66 18.74 9.43 17.95C11.2 17.16 12.95 16.5 14.67 15.97C16.39 15.44 18.07 15.02 19.73 14.71C21.39 14.39 23.02 14.17 24.62 14.03C26.23 13.89 27.81 13.83 29.37 13.83C30.93 13.83 32.47 13.89 33.99 14.01C35.51 14.12 37.01 14.29 38.49 14.49C39.97 14.69 41.44 14.94 42.89 15.22C44.34 15.5 45.78 15.8 47.21 16.13C48.64 16.46 50.06 16.81 51.46 17.18C52.87 17.55 54.27 17.94 55.67 18.33C57.07 18.72 58.46 19.14 59.84 19.55C61.22 19.96 62.61 20.38 64 20.8C65.38 21.22 66.77 21.64 68.16 22.05C69.55 22.46 70.94 22.87 72.33 23.27C73.72 23.67 75.13 24.05 76.54 24.42C77.95 24.79 79.37 25.14 80.79 25.47C82.22 25.8 83.66 26.11 85.11 26.38C86.56 26.66 88.03 26.9 89.51 27.11C90.99 27.32 92.49 27.48 94.01 27.59C95.53 27.7 97.07 27.77 98.63 27.77C100.19 27.77 101.77 27.71 103.38 27.57C104.99 27.43 106.62 27.21 108.27 26.89C109.93 26.57 111.61 26.16 113.33 25.63C115.05 25.1 116.79 24.45 118.57 23.65C120.35 22.85 122.16 21.91 124 20.8V26.41V31.73V36.8C124 36.8 124 40.07 124 41.66V46.34C124 46.34 124 49.39 124 50.88C124 52.37 124 53.85 124 55.31V59.67V64V68.33C124 68.33 124 71.23 124 72.69C124 74.15 124 75.63 124 77.12V81.66C124 81.66 124 84.75 124 86.34V91.2V96.27V101.59V107.2Z" fill="url(#paint0_linear_62_55)" style=""/>
<path fill-rule="evenodd" clip-rule="evenodd" d="M63.6949 58.0193L67.6407 58.5294L74.2584 59.6537L73.665 63.1459L70.3562 62.5837L69.4697 67.8011C69.4401 68.0152 69.4283 68.2252 69.4634 68.4395C69.5475 68.9461 69.8489 69.3961 70.2726 69.6477C70.418 69.7335 70.5754 69.789 70.7385 69.8311L72.5103 70.1824L71.8348 73.6571L69.977 73.2911C69.4056 73.1473 68.8666 72.9336 68.3682 72.601C67.1356 71.7808 66.2965 70.3878 66.1144 68.855C66.0542 68.3274 66.078 67.8069 66.1538 67.2808L67.0473 62.0215L63.1015 61.5115L62.2079 66.7707C62.1057 67.2923 61.9562 67.7915 61.7252 68.2696C61.047 69.6562 59.7949 70.6939 58.3606 71.061C57.7803 71.2103 57.201 71.234 56.6142 71.181L54.7397 70.9129L55.2497 67.4101C55.8748 67.4983 56.4945 67.618 57.1254 67.6713C57.7617 67.6932 58.3756 67.3663 58.7013 66.7714C58.8052 66.5806 58.8634 66.3785 58.9062 66.1666L59.7927 60.9493L56.4838 60.3871L57.0772 56.8949L60.386 57.4571L63.6949 58.0193Z" fill="#FFEB0C" style="fill:#FFEB0C;fill:color(display-p3 1.0000 0.9216 0.0471);fill-opacity:1;"/>
</g>
<defs>
<linearGradient id="paint0_linear_62_55" x1="5.3703" y1="22.659" x2="122.37" y2="105.16" gradientUnits="userSpaceOnUse">
<stop stop-color="white" stop-opacity="0" style="stop-color:none;stop-opacity:0;"/>
<stop offset="0.1646" stop-color="#C8C8C8" stop-opacity="0.1646" style="stop-color:#C8C8C8;stop-color:color(display-p3 0.7843 0.7843 0.7843);stop-opacity:0.1646;"/>
<stop offset="0.3934" stop-color="#828282" stop-opacity="0.3934" style="stop-color:#828282;stop-color:color(display-p3 0.5098 0.5098 0.5098);stop-opacity:0.3934;"/>
<stop offset="0.5997" stop-color="#4A4A4A" stop-opacity="0.5997" style="stop-color:#4A4A4A;stop-color:color(display-p3 0.2902 0.2902 0.2902);stop-opacity:0.5997;"/>
<stop offset="0.7759" stop-color="#222222" stop-opacity="0.7759" style="stop-color:#222222;stop-color:color(display-p3 0.1333 0.1333 0.1333);stop-opacity:0.7759;"/>
<stop offset="0.9151" stop-color="#090909" stop-opacity="0.9151" style="stop-color:#090909;stop-color:color(display-p3 0.0353 0.0353 0.0353);stop-opacity:0.9151;"/>
<stop offset="1" style="stop-color:black;stop-opacity:1;"/>
</linearGradient>
<clipPath id="clip0_62_55">
<rect width="128" height="128" fill="white" style="fill:white;fill-opacity:1;"/>
</clipPath>
</defs>
</svg>
