<svg width="128" height="129" viewBox="0 0 128 129" fill="none" xmlns="http://www.w3.org/2000/svg">
<path d="M23.99 19.7169C23.99 19.7169 24.96 13.1269 26.22 10.4869C27.48 7.84691 29.46 5.06691 33.26 4.32691C37.79 3.44691 90.31 3.90691 93.95 4.13691C97.62 4.37691 100.03 5.52691 101.41 7.78691C102.46 9.51691 102.83 11.6269 103.32 14.7569C103.58 16.4069 104.12 20.9269 104.12 20.9269L23.99 19.7169Z" fill="#FFA828" style="fill:#FFA828;fill:color(display-p3 1.0000 0.6588 0.1569);fill-opacity:1;"/>
<path d="M50.63 37.567L22.47 32.887C22.47 32.887 23.06 21.237 24.28 18.187C25.5 15.137 27.01 13.317 31.44 12.557C35.87 11.797 46.97 12.107 63.62 11.957C80.27 11.807 94.93 12.817 97.53 12.967C100.13 13.117 102.57 14.397 103.33 16.837C104.09 19.277 104.46 22.577 105.01 28.447C105.21 30.577 105.03 34.607 105.03 34.607L72.76 36.807L50.63 37.567Z" fill="#F1EDEC" style="fill:#F1EDEC;fill:color(display-p3 0.9451 0.9294 0.9255);fill-opacity:1;"/>
<path d="M22.2299 35.9369C22.4199 32.8869 22.4799 29.5869 24.7999 27.6169C26.7899 25.9369 30.1499 26.2469 34.1199 26.0869C37.7899 25.9469 47.0999 26.0269 64.6699 26.0269C82.2399 26.0269 97.0299 26.2869 99.7799 26.2869C102.53 26.2869 104.87 28.4369 105.17 30.4269C105.48 32.4169 104.1 116.577 103.95 118.407C103.8 120.237 103.19 123.907 99.2099 124.207C95.2399 124.517 32.7699 124.517 30.1699 124.207C27.5699 123.897 25.2799 121.607 24.8199 117.337C24.3599 113.067 22.0699 38.3769 22.2299 35.9369Z" fill="#D8CDC9" style="fill:#D8CDC9;fill:color(display-p3 0.8471 0.8039 0.7882);fill-opacity:1;"/>
<path d="M29.61 50.2771C31.91 50.5771 33.82 40.6671 36.82 38.3571C39.82 36.0571 45.43 34.8471 45.43 32.5471C45.43 31.3971 41.79 31.4071 38.42 31.4471C35.05 31.4871 32.15 31.2071 30.51 32.9471C28.71 34.8471 28.53 37.8971 28.41 40.9571C28.2 45.8671 28.19 50.0871 29.61 50.2771Z" fill="#F1EDEC" style="fill:#F1EDEC;fill:color(display-p3 0.9451 0.9294 0.9255);fill-opacity:1;"/>
<path d="M79.3401 117.907C79.3401 119.587 80.5701 120.137 87.2201 119.907C92.8401 119.717 95.6201 119.007 97.2901 116.997C98.9601 114.997 99.4201 110.797 99.4901 105.757C99.5301 102.267 99.4401 98.907 97.6801 98.907C95.1601 98.907 95.1701 104.657 93.1601 107.887C89.2201 114.227 79.3401 115.667 79.3401 117.907Z" fill="#F1EDEC" style="fill:#F1EDEC;fill:color(display-p3 0.9451 0.9294 0.9255);fill-opacity:1;"/>
<path d="M60.0001 50.237C60.0001 50.237 59.2601 48.027 58.2501 46.747C57.2401 45.467 56.4101 44.997 56.5001 44.267C56.5901 43.537 58.7101 41.137 60.3601 41.047C62.0101 40.957 66.7001 43.067 68.3601 44.447C70.0201 45.827 70.2001 47.757 70.1101 48.857C70.0201 49.957 69.2801 51.067 69.2801 51.067C69.2801 51.067 68.7301 101.897 68.7301 104.197C68.7301 106.497 68.1801 110.727 65.2401 110.727C62.2901 110.727 61.9101 107.037 61.6601 105.117C61.1901 101.617 60.0001 50.237 60.0001 50.237Z" fill="#DF0B26" style="fill:#DF0B26;fill:color(display-p3 0.8745 0.0431 0.1490);fill-opacity:1;"/>
<path d="M38.4899 58.147C38.3499 60.037 44.4599 84.897 44.9199 85.627C45.3799 86.357 47.3999 88.937 49.0599 88.297C50.7099 87.657 49.0799 68.797 48.7799 65.597C48.4099 61.647 46.8499 58.147 43.6299 56.777C40.4199 55.387 38.5799 56.857 38.4899 58.147Z" fill="#DF0B26" style="fill:#DF0B26;fill:color(display-p3 0.8745 0.0431 0.1490);fill-opacity:1;"/>
<path d="M45.51 60.0871C45.51 60.0871 60.18 59.4271 66.25 58.9671C70.95 58.6071 77.65 58.0471 79.67 57.6771C81.69 57.3071 84.45 56.0271 85.19 56.1171C85.93 56.2071 91.76 59.1071 91.76 59.4771C91.76 59.8471 91.94 61.4971 91.67 61.8671C91.4 62.2371 89.4 64.2571 88.67 66.1871C87.93 68.1171 84.74 81.0271 84.18 81.8571C83.7 82.5871 78.66 80.6671 78.66 80.6671C78.66 80.6671 80.77 68.2571 80.96 67.4271C81.15 66.5971 80.13 65.4071 80.13 65.4071L46.99 66.0671L45.51 60.0871Z" fill="#DF0B26" style="fill:#DF0B26;fill:color(display-p3 0.8745 0.0431 0.1490);fill-opacity:1;"/>
<path d="M48.1399 79.1969C48.1399 79.1969 74.0599 78.6469 76.0799 78.6469C78.0999 78.6469 82.1499 77.9069 83.4299 78.2769C84.7099 78.6469 87.2899 80.3869 87.6599 81.9569C88.0299 83.5269 87.8399 84.8969 86.3699 85.0869C84.8999 85.2769 48.4099 85.1769 48.4099 85.1769L48.1399 79.1969Z" fill="#DF0B26" style="fill:#DF0B26;fill:color(display-p3 0.8745 0.0431 0.1490);fill-opacity:1;"/>
</svg>
