<svg width="129" height="128" viewBox="0 0 129 128" fill="none" xmlns="http://www.w3.org/2000/svg">
<path d="M79.5502 13.39L50.1302 32.88C50.1302 32.88 51.1302 34.3 51.8102 34.95C53.2302 36.31 54.1502 36.76 54.1502 36.76L53.5702 38.76L46.2402 43.01C46.2402 43.01 45.9802 46.37 49.7202 48.31C52.8202 49.92 55.9102 49.93 55.9102 49.93V54.76C55.9102 54.76 58.9902 60.76 65.2502 60.76C71.5102 60.76 74.5002 53.93 74.5002 53.93L74.5802 49.76C74.5802 49.76 77.4002 49.48 80.0902 47.91C82.1302 46.71 82.8502 44.75 82.8702 43.08C82.8902 41.66 82.7602 41.38 82.7602 41.38L74.2402 36.93C74.2402 36.93 78.0302 34.63 80.0702 29.43C83.9102 19.68 79.5502 13.39 79.5502 13.39Z" fill="#BFCDD8" style="fill:#BFCDD8;fill:color(display-p3 0.7472 0.8047 0.8458);fill-opacity:1;"/>
<path d="M63.8201 76.52L42.6101 81.57C42.6101 81.57 42.0501 82.35 42.0601 83.19C42.0801 84.6 42.6801 84.93 42.6801 84.93L34.2101 95.2C34.2101 95.2 33.2201 97.23 33.2701 99.8C33.3201 102.26 34.3401 103.77 34.4801 103.7L31.7301 107.37L29.9801 108.12C29.9801 108.12 29.0301 109.66 29.1501 111.54C29.3001 113.86 30.8001 116.33 36.6501 119.04C42.7001 121.85 49.2401 124.37 64.4101 124.37C79.5801 124.37 91.0801 121.37 95.8301 118.04C100.58 114.71 100.96 111.81 101.04 110.56C101.11 109.47 100.83 108.53 100.49 107.87C100.45 107.8 100.36 107.66 100.36 107.66L96.6101 103.61C96.6101 103.61 97.5101 101.38 97.4001 99.01C97.2601 96.02 95.7501 93.86 95.7501 93.86L86.9101 86.19L86.9901 84.19C86.9901 84.19 87.1401 83.55 86.8501 82.48C86.6001 81.56 86.4001 81.05 86.1901 80.73C85.5701 79.78 84.8101 79.88 84.8101 79.88L63.8201 76.52Z" fill="#DFE6EB" style="fill:#DFE6EB;fill:color(display-p3 0.8745 0.9020 0.9216);fill-opacity:1;"/>
<path d="M63.8201 76.52L42.6101 81.57C42.6101 81.57 42.0501 82.35 42.0601 83.19C42.0801 84.6 42.6801 84.93 42.6801 84.93L34.2101 95.2C34.2101 95.2 33.2201 97.23 33.2701 99.8C33.3201 102.26 34.3401 103.77 34.4801 103.7L31.7301 107.37L29.9801 108.12C29.9801 108.12 29.0301 109.66 29.1501 111.54C29.3001 113.86 30.8001 116.33 36.6501 119.04C42.7001 121.85 49.2401 124.37 64.4101 124.37C79.5801 124.37 91.0801 121.37 95.8301 118.04C100.58 114.71 100.96 111.81 101.04 110.56C101.11 109.47 100.83 108.53 100.49 107.87C100.45 107.8 100.36 107.66 100.36 107.66L96.6101 103.61C96.6101 103.61 97.5101 101.38 97.4001 99.01C97.2601 96.02 95.7501 93.86 95.7501 93.86L86.9101 86.19L86.9901 84.19C86.9901 84.19 87.1401 83.55 86.8501 82.48C86.6001 81.56 86.4001 81.05 86.1901 80.73C85.5701 79.78 84.8101 79.88 84.8101 79.88L63.8201 76.52Z" fill="#BFCDD8" style="fill:#BFCDD8;fill:color(display-p3 0.7472 0.8047 0.8458);fill-opacity:1;"/>
<path d="M50.1004 32.88C50.1004 32.88 45.4104 27.09 47.4104 17.92C49.4104 8.74997 57.6504 2.83997 66.9904 4.16997C76.3304 5.49997 80.0804 14.34 80.0804 14.34C80.0804 14.34 79.8104 25.36 69.7204 30.7C59.6304 36.04 50.1004 32.88 50.1004 32.88Z" fill="#DFE6EB" style="fill:#DFE6EB;fill:color(display-p3 0.8748 0.9004 0.9208);fill-opacity:1;"/>
<path d="M63.1598 7.09003C65.3698 8.35003 64.1698 9.76003 60.8298 11.92C57.7298 13.93 53.9998 19.84 52.9898 21.34C51.9798 22.84 51.3198 23.01 50.8198 22.67C50.3198 22.33 48.7398 21.5 50.1498 16.75C51.5598 12 55.3198 9.00003 57.1498 7.91003C58.9898 6.84003 61.4098 6.09003 63.1598 7.09003Z" fill="#FFFFFE" style="fill:#FFFFFE;fill:color(display-p3 1.0000 1.0000 0.9961);fill-opacity:1;"/>
<path d="M54.1501 36.76C54.1501 36.76 58.8601 39.9 63.9401 39.96C71.1101 40.03 74.2401 36.93 74.2401 36.93C74.2401 36.93 77.6302 36.58 80.0502 37.84C82.1702 38.94 82.7602 41.4 82.7602 41.4C82.7602 41.4 80.5201 47.23 64.2001 46.79C47.8701 46.35 46.2401 43.02 46.2401 43.02C46.2401 43.02 45.8101 39.59 48.7201 37.91C51.1601 36.49 54.1501 36.76 54.1501 36.76Z" fill="#DFE6EB" style="fill:#DFE6EB;fill:color(display-p3 0.8745 0.9020 0.9216);fill-opacity:1;"/>
<path d="M51.1304 38.49C49.5704 38.34 47.1804 39.3 47.4704 41.42C47.7604 43.54 52.6004 44.5 54.9404 44.64C57.2804 44.78 61.0204 45.08 60.9404 42.88C60.8704 40.68 55.2304 41.78 53.0304 40.61C50.8304 39.44 53.4004 38.71 51.1304 38.49Z" fill="#FFFFFE" style="fill:#FFFFFE;fill:color(display-p3 1.0000 1.0000 0.9961);fill-opacity:1;"/>
<path d="M55.9004 54.77C55.9004 54.77 58.8904 56.07 65.1104 56.07C71.3304 56.07 74.4903 53.94 74.4903 53.94C74.4903 53.94 74.4804 60.98 77.4104 68.08C80.3404 75.18 82.4604 78.62 82.4604 78.62C82.4604 78.62 84.3703 78.49 85.1003 79.08C85.8303 79.67 86.5404 81.46 86.5404 81.46C86.3004 81.79 81.0904 86.62 65.4404 86.28C48.7504 85.92 42.6104 81.56 42.6104 81.56C42.6104 81.56 43.5904 79.93 44.7104 79.56C46.0603 79.11 46.9304 79.23 46.9304 79.23C46.9304 79.23 51.9404 73.2 53.9904 67.27C56.0304 61.34 55.9004 54.77 55.9004 54.77Z" fill="#DFE6EB" style="fill:#DFE6EB;fill:color(display-p3 0.8745 0.9020 0.9216);fill-opacity:1;"/>
<path d="M64.7497 81.69C70.8997 81.69 76.2497 80.45 78.5197 79.79C80.7897 79.13 82.5097 78.02 84.2697 78.61C85.2597 78.94 85.6397 79.69 85.6397 79.69C85.6397 79.69 79.0997 85.19 64.6797 84.63C49.3097 84.04 43.4297 80.52 43.4297 80.52C43.4297 80.52 44.4297 79.09 46.6797 79.23C47.2797 79.27 47.8397 79.44 51.2797 80.24C54.7197 81.04 58.7397 81.69 64.7497 81.69Z" fill="white" style="fill:white;fill-opacity:1;"/>
<path d="M42.68 84.92C42.68 84.92 52.81 88.93 64.75 89.09C80.72 89.3 87 84.19 87 84.19C87 84.19 90.75 87.63 92.28 89.24C93.81 90.85 95.75 93.86 95.75 93.86C95.75 93.86 89.06 104.91 64.61 104.69C40.15 104.47 34.21 95.2 34.21 95.2C34.21 95.2 35.5 91.82 38.17 89.02C39.81 87.29 42.68 84.92 42.68 84.92Z" fill="#DFE6EB" style="fill:#DFE6EB;fill:color(display-p3 0.8745 0.9020 0.9216);fill-opacity:1;"/>
<path d="M42.4896 89.45C40.6696 88.96 37.0696 92.6 37.5096 94.87C37.7296 96.03 38.3796 97.32 41.8996 98.6C45.1196 99.77 50.0996 99.71 50.0996 97.79C50.0996 95.3 45.7796 95.53 44.6796 93.32C43.8096 91.58 44.3896 89.97 42.4896 89.45Z" fill="white" style="fill:white;fill-opacity:1;"/>
<path d="M34.4805 103.69C34.4805 103.69 33.0405 104.67 31.9205 105.77C30.5105 107.16 29.9805 108.11 29.9805 108.11C29.9805 108.11 33.2105 119.73 64.2505 119.98C94.6405 120.23 100.36 107.65 100.36 107.65C100.36 107.65 99.3705 106.22 98.3305 105.18C97.2905 104.14 96.6005 103.61 96.6005 103.61C96.6005 103.61 87.7905 113.56 64.0405 113.3C41.4005 113.07 34.4805 103.69 34.4805 103.69Z" fill="#DFE6EB" style="fill:#DFE6EB;fill:color(display-p3 0.8745 0.9020 0.9216);fill-opacity:1;"/>
<path d="M32.92 106.89C32.09 107.82 32.12 109.75 34.57 111.36C37.19 113.08 41.41 115.53 47.46 116.66C53.62 117.81 60.04 117.46 59.64 115.4C59.37 113.99 54.03 115.57 44.56 111.82C39 109.62 37.28 108.41 36.15 107.61C35.42 107.08 34.12 105.55 32.92 106.89Z" fill="white" style="fill:white;fill-opacity:1;"/>
</svg>
