<svg width="128" height="128" viewBox="0 0 128 128" fill="none" xmlns="http://www.w3.org/2000/svg">
<path d="M60.7256 43.3582L65.8363 36.651C65.8363 36.651 66.8585 35.0739 67.8223 35.181C68.7763 35.2881 70.3338 38.3253 74.1693 38.0236C78.219 37.7023 82.0351 36.651 82.0351 36.651L85.2281 41.129L84.6829 44.0689C84.6829 44.0689 83.4758 47.6902 84.1573 50.0947C84.7511 52.2072 86.8246 53.5311 86.8538 54.4949C86.9025 55.7701 25.4758 116.428 24.8333 116.856C24.1908 117.284 17.8048 116.428 17.1623 116.107C16.5198 115.785 6.08405 103.86 6.08405 103.86C6.08405 103.86 5.64598 98.6033 6.1814 97.6493C6.24954 97.5325 6.63894 97.1431 6.95045 96.8997C11.3895 93.4439 28.1529 86.7268 41.0223 74.0424C46.5614 68.5714 60.7256 43.3582 60.7256 43.3582Z" fill="#D06F1D" style="fill:#D06F1D;fill:color(display-p3 0.8157 0.4353 0.1137);fill-opacity:1;"/>
<path d="M104.639 15.1175V10.5811C104.639 10.5811 106.654 6.35616 107.141 5.73313C107.628 5.11011 111.59 4.34105 114.374 7.32964C117.158 10.3182 116.652 13.2289 116.389 13.6573C116.087 14.144 111.064 17.2299 111.064 17.2299L104.639 15.1175Z" fill="#AF570C" style="fill:#AF570C;fill:color(display-p3 0.6863 0.3412 0.0471);fill-opacity:1;"/>
<path d="M65.846 36.6412C66.2451 36.4466 68.6594 40.1263 71.5701 40.2723C74.4808 40.4184 79.3385 40.1263 79.3385 40.1263L81.8014 43.9326L81.6554 46.5416C81.6554 46.5416 81.0615 49.3744 81.6554 51.1656C82.2492 52.9568 83.3005 53.8524 83.4466 54.5241C83.5926 55.1958 25.4368 113.79 24.9209 113.945C24.3952 114.091 18.2817 114.023 17.8339 113.653C17.3861 113.283 8.90708 103.753 8.53716 103.081C8.16724 102.41 6.78489 97.7564 6.94065 96.929C7.0672 96.121 65.3398 36.8944 65.846 36.6412Z" fill="#EB8B34" style="fill:#EB8B34;fill:color(display-p3 0.9216 0.5451 0.2039);fill-opacity:1;"/>
<path d="M77.7809 37.4298C77.7809 37.2059 104.191 11.0874 104.191 11.0874L110.616 17.8044L84.3714 44.5265C84.3714 44.5265 76.1942 45.8796 76.272 45.5097C76.3499 45.1301 77.7809 37.4298 77.7809 37.4298Z" fill="#474C4F" style="fill:#474C4F;fill:color(display-p3 0.2784 0.2980 0.3098);fill-opacity:1;"/>
<path d="M92.1201 23.0514L95.1671 20.0142L101.884 26.702L98.7593 29.8853L92.1201 23.0514Z" fill="#E0E0E0" style="fill:#E0E0E0;fill:color(display-p3 0.8784 0.8784 0.8784);fill-opacity:1;"/>
<path d="M98.0293 17.191L104.659 23.8594L111.454 17.0158C111.454 17.0158 104.912 10.1917 104.727 10.3864C104.571 10.5422 98.0293 17.191 98.0293 17.191Z" fill="#E0E0E0" style="fill:#E0E0E0;fill:color(display-p3 0.8784 0.8784 0.8784);fill-opacity:1;"/>
<path d="M50.7375 70.7519C51.3119 71.3749 52.9571 70.0023 54.1058 69.1067C54.5828 68.7368 62.8379 62.1561 70.2753 55.8576C77.7127 49.5592 84.6049 44.7307 84.6536 44.1564C84.7023 43.582 78.4136 37.4686 77.7808 37.4296C77.1383 37.3907 71.6674 43.6015 65.8654 50.6884C59.4112 58.5736 52.7332 66.819 52.5093 67.1013C51.3605 68.62 50.2897 70.2652 50.7375 70.7519Z" fill="#AF570C" style="fill:#AF570C;fill:color(display-p3 0.6863 0.3412 0.0471);fill-opacity:1;"/>
<path d="M92.9943 60.6331C85.8238 67.0166 83.9999 79.6336 92.2447 88.0908C99.2278 95.2613 110.646 96.1108 118.953 88.1908C126.536 80.9453 124.612 68.0035 120.09 62.7193C113.456 54.9742 100.727 53.7374 92.9943 60.6331Z" fill="#BF210E" style="fill:#BF210E;fill:color(display-p3 0.7500 0.1285 0.0562);fill-opacity:1;"/>
<path d="M102.938 58.8093C100.727 58.547 94.7431 59.8836 91.9823 66.4545C89.4714 72.4382 91.0954 76.7855 92.3196 77.1228C94.3308 77.6849 95.9423 69.5276 100.39 66.5919C104.837 63.6563 107.573 65.5676 108.185 63.9186C108.622 62.7693 107.523 59.359 102.938 58.8093Z" fill="#D26051" style="fill:#D26051;fill:color(display-p3 0.8235 0.3765 0.3176);fill-opacity:1;"/>
<path d="M90.1084 85.4799C90.5831 85.3175 101.239 80.7954 107.198 76.2108C116.267 69.2277 118.99 61.595 118.99 61.595C118.99 61.595 120.689 62.9191 121.926 65.4051C122.813 67.2039 123.562 70.0646 123.512 70.3645C123.412 71.0016 116.929 78.0346 110.371 83.0939C103.812 88.1533 95.8298 91.0639 95.8298 91.0639C95.8298 91.0639 93.3813 89.2776 92.2196 88.0908C90.9828 86.8041 90.1084 85.4799 90.1084 85.4799Z" fill="#8B200B" style="fill:#8B200B;fill:color(display-p3 0.5451 0.1255 0.0431);fill-opacity:1;"/>
<path d="M90.1084 85.4799C90.5831 85.3175 101.239 80.7954 107.198 76.2108C116.267 69.2277 118.99 61.595 118.99 61.595C118.99 61.595 120.689 62.9191 121.926 65.4051C122.813 67.2039 123.562 70.0646 123.512 70.3645C123.412 71.0016 116.929 78.0346 110.371 83.0939C103.812 88.1533 95.8298 91.0639 95.8298 91.0639C95.8298 91.0639 93.3813 89.2776 92.2196 88.0908C90.9828 86.8041 90.1084 85.4799 90.1084 85.4799Z" fill="#BF210E" style="fill:#BF210E;fill:color(display-p3 0.7500 0.1285 0.0562);fill-opacity:1;"/>
<path d="M88.8467 83.4064C88.8467 83.4064 97.8785 81.3202 106.161 74.5994C114.218 68.0535 118.016 60.6707 118.016 60.6707C118.016 60.6707 118.903 61.3202 119.527 61.9449C120.152 62.5695 120.602 63.2815 120.602 63.2815C120.602 63.2815 118.441 70.1147 107.872 78.2471C98.5406 85.4426 90.708 86.367 90.708 86.367C90.708 86.367 90.0459 85.6424 89.5462 84.7555C89.1965 84.0934 88.8467 83.4064 88.8467 83.4064Z" fill="#FDE7C4" style="fill:#FDE7C4;fill:color(display-p3 0.9922 0.9059 0.7686);fill-opacity:1;"/>
<path d="M93.6938 89.4401C93.6938 89.4401 102.201 87.5163 110.383 80.7831C120.652 72.3384 122.726 67.2791 122.726 67.2791C122.726 67.2791 123.238 68.6532 123.425 69.4777C123.662 70.502 123.812 71.7263 123.812 71.7263C123.812 71.7263 120.914 77.66 112.782 83.9061C104.712 90.1147 97.9412 92.1259 97.9412 92.1259C97.9412 92.1259 96.5545 91.5013 95.6301 90.9392C94.8681 90.4895 93.6938 89.4401 93.6938 89.4401Z" fill="#FDE7C4" style="fill:#FDE7C4;fill:color(display-p3 0.9922 0.9059 0.7686);fill-opacity:1;"/>
</svg>
