<svg width="128" height="128" viewBox="0 0 128 128" fill="none" xmlns="http://www.w3.org/2000/svg">
<path d="M53.3198 18.7999C53.3198 11.7099 59.0898 5.93994 66.1798 5.93994C73.2698 5.93994 79.0398 11.7099 79.0398 18.7999C79.0398 25.8899 73.2698 31.6599 66.1798 31.6599C59.0898 31.6599 53.3198 25.8999 53.3198 18.7999ZM60.7998 18.7999C60.7998 21.7699 63.2098 24.1799 66.1798 24.1799C69.1498 24.1799 71.5598 21.7699 71.5598 18.7999C71.5598 15.8299 69.1498 13.4199 66.1798 13.4199C63.2098 13.4199 60.7998 15.8399 60.7998 18.7999Z" fill="#E2A610" style="fill:#E2A610;fill:color(display-p3 0.8863 0.6510 0.0627);fill-opacity:1;"/>
<path d="M77.2398 12.2798C77.2398 12.2798 77.8098 14.5498 75.1798 15.7898C72.5498 17.0198 70.8098 16.1098 70.8098 16.1098C71.2798 16.9098 71.5598 17.8198 71.5598 18.8098C71.5598 21.7798 69.1498 24.1898 66.1798 24.1898C63.2098 24.1898 60.7998 21.7798 60.7998 18.8098C60.7998 18.5098 60.8698 17.3798 61.3498 16.4398C56.8898 18.5598 53.4998 16.7498 53.4998 16.7498C53.3898 17.4198 53.3198 18.1098 53.3198 18.8098C53.3198 25.8998 59.0898 31.6698 66.1798 31.6698C73.2698 31.6698 79.0398 25.8998 79.0398 18.7998C79.0398 16.4198 78.3798 14.1898 77.2398 12.2798Z" fill="#9E740B" style="fill:#9E740B;fill:color(display-p3 0.6196 0.4549 0.0431);fill-opacity:1;"/>
<path d="M10.46 97.7998C17.23 91.1498 21.4501 88.9098 23.17 79.2698C24.89 69.6298 23.51 49.3198 31.09 36.0198C38.01 23.8398 50.71 18.7998 63.1 18.7998C63.4 18.7998 63.7001 18.8198 64 18.8198C64.3 18.8098 64.6001 18.7998 64.9001 18.7998C77.2901 18.7998 89.9901 23.8398 96.9101 36.0098C104.48 49.3198 103.11 69.6298 104.83 79.2598C106.55 88.8998 110.77 91.1398 117.54 97.7898C120.46 100.66 123.99 105.23 124 108.17C124.01 111.11 122.51 112.18 118.94 113.68C108.84 117.93 95.34 122.05 64 122.05C32.66 122.05 19.1601 117.93 9.06005 113.68C5.49005 112.18 3.99005 111.12 4.00005 108.17C4.01005 105.24 7.54005 100.67 10.46 97.7998Z" fill="#FFCA28" style="fill:#FFCA28;fill:color(display-p3 1.0000 0.7922 0.1569);fill-opacity:1;"/>
<path d="M113.7 108.38C113.7 103.95 91.4503 100.36 64.0003 100.36C36.5503 100.36 14.3003 103.95 14.3003 108.38C14.3003 112.81 36.5503 118.1 64.0003 118.1C91.4503 118.1 113.7 112.81 113.7 108.38Z" fill="#4E342E" style="fill:#4E342E;fill:color(display-p3 0.3059 0.2039 0.1804);fill-opacity:1;"/>
<path d="M93.8401 44.7899C94.2101 46.1999 94.5201 47.61 94.7701 48.99C96.0401 56.0499 95.8101 63.29 96.3801 70.44C97.1501 80.01 98.8501 85.0499 102.72 89.5499C103.23 90.1399 102.71 91.0499 101.94 90.9299C96.7701 90.1399 92.6201 89.35 87.8901 86.23C80.8301 81.58 79.0901 72.83 79.0401 64.97C78.9601 53.27 79.1801 41.9399 78.2501 37.6399C76.9601 31.6499 75.7601 28.4599 73.8001 25.5499C70.8101 21.1099 82.4201 27.2699 84.2401 28.6399C89.3101 32.4699 92.2201 38.6299 93.8401 44.7899Z" fill="#E2A610" style="fill:#E2A610;fill:color(display-p3 0.8863 0.6510 0.0627);fill-opacity:1;"/>
<path d="M30.8899 60.3197C30.7699 52.7397 30.8299 44.8997 33.8499 37.9397C35.6599 33.7797 38.7299 30.0297 42.6499 27.6997C45.7299 25.8697 51.9899 23.8497 54.2399 27.9997C54.6899 28.8297 54.8699 29.7997 54.8999 30.7497C54.9799 34.0597 53.2599 37.1197 51.5899 39.9797C46.6499 48.4597 44.6799 57.7297 42.0699 67.1297C40.9999 71.0097 39.6399 74.8797 37.3099 78.1597C35.7099 80.4097 26.7999 88.4097 28.8399 81.1797C30.7999 74.1897 30.9999 67.5997 30.8899 60.3197Z" fill="#FFF59D" style="fill:#FFF59D;fill:color(display-p3 1.0000 0.9608 0.6157);fill-opacity:1;"/>
<path d="M51.6402 106.399C51.5174 104.684 50.5245 103.757 48.3405 103.159C43.8097 101.923 38.2801 102.568 35.1612 104.516C31.8879 106.556 34.9049 116.469 43.157 115.926C51.4092 115.384 51.7362 107.706 51.6402 106.399Z" fill="#E2A610" style="fill:#E2A610;fill:color(display-p3 0.8863 0.6510 0.0627);fill-opacity:1;"/>
<path d="M33.2501 91.7899C24.4701 93.3299 18.1101 96.6599 15.3601 99.3599C13.1801 101.49 13.1801 103.17 17.0201 101.42C19.9101 100.1 29.1701 97.4199 37.2801 96.6099C51.2101 95.2099 59.8101 95.1799 61.2401 95.2099C64.5901 95.2799 64.8701 92.6999 58.1001 91.7899C51.3301 90.8899 42.0301 90.2599 33.2501 91.7899Z" fill="#FFF59D" style="fill:#FFF59D;fill:color(display-p3 1.0000 0.9608 0.6157);fill-opacity:1;"/>
<path d="M39.4967 114.212C40.7067 114.935 42.2689 115.223 43.5307 114.599C44.7925 113.974 45.5224 112.273 44.8018 111.068C44.5202 110.595 44.0668 110.254 43.6154 109.943C42.367 109.093 41 108.421 39.5662 107.954C39.003 107.771 38.4111 107.609 37.815 107.689C37.2283 107.757 36.6299 108.107 36.4365 108.671C35.5963 110.981 37.7242 113.166 39.4967 114.212Z" fill="#FFF59D" style="fill:#FFF59D;fill:color(display-p3 1.0000 0.9608 0.6157);fill-opacity:1;"/>
</svg>
