<svg width="129" height="128" viewBox="0 0 129 128" fill="none" xmlns="http://www.w3.org/2000/svg">
<path d="M116.5 124H12.5C8.08 124 4.5 120.42 4.5 116V12C4.5 7.58 8.08 4 12.5 4H116.5C120.92 4 124.5 7.58 124.5 12V116C124.5 120.42 120.92 124 116.5 124Z" fill="url(#paint0_linear_124_10973)" style=""/>
<path d="M116.5 4H12.5C8.08 4 4.5 7.58 4.5 12V116C4.5 120.42 8.08 124 12.5 124H116.5C120.92 124 124.5 120.42 124.5 116V12C124.5 7.58 120.92 4 116.5 4Z" fill="#8E24AA" style="fill:#8E24AA;fill:color(display-p3 0.5569 0.1412 0.6667);fill-opacity:1;"/>
<path d="M110.2 4H12C7.87002 4.03 4.53002 7.37 4.50002 11.5V109.4C4.49002 113.54 7.84002 116.89 11.98 116.9C11.99 116.9 11.99 116.9 12 116.9H110.1C114.24 116.91 117.59 113.56 117.6 109.42C117.6 109.41 117.6 109.41 117.6 109.4V11.5C117.69 7.45 114.47 4.09 110.42 4C110.35 4 110.27 4 110.2 4Z" fill="#AB47BC" style="fill:#AB47BC;fill:color(display-p3 0.6706 0.2784 0.7373);fill-opacity:1;"/>
<path opacity="0.3" d="M40.2001 12.9C40.2001 10.6 38.6001 9.9 29.4001 10.2C21.7001 10.5 17.9001 11.4 15.6001 14.2C13.3001 17 12.7001 22.7 12.6001 29.5C12.6001 34.3 12.6001 38.8 15.1001 38.8C18.5001 38.8 18.5001 30.9 21.3001 26.5C26.7001 17.8 40.2001 15.9 40.2001 12.9Z" fill="#FAFAFA" style="fill:#FAFAFA;fill:color(display-p3 0.9804 0.9804 0.9804);fill-opacity:1;"/>
<path opacity="0.2" d="M116.5 7C119.26 7 121.5 9.24 121.5 12V116C121.5 118.76 119.26 121 116.5 121H12.5C9.74 121 7.5 118.76 7.5 116V12C7.5 9.24 9.74 7 12.5 7H116.5ZM116.5 4H12.5C8.08 4 4.5 7.58 4.5 12V116C4.5 120.42 8.08 124 12.5 124H116.5C120.92 124 124.5 120.42 124.5 116V12C124.5 7.58 120.92 4 116.5 4Z" fill="#424242" style="fill:#424242;fill:color(display-p3 0.2588 0.2588 0.2588);fill-opacity:1;"/>
<path d="M23.5 90V38C23.5 36.9 24.4 36 25.5 36H40.04C44.99 36 49.38 37.1 53.21 39.31C57.04 41.52 60.01 44.64 62.11 48.69C64.21 52.74 65.26 57.38 65.26 62.61V65.42C65.26 70.73 64.2 75.39 62.09 79.42C59.97 83.45 56.96 86.55 53.05 88.73C49.15 90.91 44.67 92 39.62 92H25.5C24.4 92 23.5 91.1 23.5 90ZM33.23 45.85V82.16C33.23 83.26 34.13 84.16 35.23 84.16H39.58C44.68 84.16 48.6 82.57 51.33 79.38C54.06 76.19 55.45 71.62 55.5 65.66V62.55C55.5 56.49 54.18 51.85 51.54 48.65C48.9 45.45 45.07 43.85 40.04 43.85H35.23C34.13 43.85 33.23 44.74 33.23 45.85Z" fill="#FAFAFA" style="fill:#FAFAFA;fill:color(display-p3 0.9804 0.9804 0.9804);fill-opacity:1;"/>
<path d="M96.4905 37C96.4905 36.4477 96.9383 36 97.4905 36H104.5C105.052 36 105.5 36.4477 105.5 37V74.7371C105.5 80.0235 103.939 84.2222 100.817 87.3333C97.718 90.4444 93.6185 92 88.5179 92C83.0836 92 78.8887 90.5456 75.9332 87.6369C73.1705 84.9178 71.699 81.2042 71.5189 76.496C71.4977 75.9441 71.9477 75.4959 72.5 75.4959H79.5095C80.0617 75.4959 80.5057 75.9444 80.5373 76.4958C80.6776 78.9378 81.3476 80.8177 82.5473 82.1355C83.9297 83.6025 85.9199 84.336 88.5179 84.336C90.949 84.336 92.8796 83.4887 94.3097 81.794C95.7636 80.0741 96.4905 77.7091 96.4905 74.6992V37Z" fill="white" style="fill:white;fill-opacity:1;"/>
<defs>
<linearGradient id="paint0_linear_124_10973" x1="64.5" y1="-0.3333" x2="64.5" y2="128.1" gradientUnits="userSpaceOnUse">
<stop stop-color="#B39DDB" style="stop-color:#B39DDB;stop-color:color(display-p3 0.7020 0.6157 0.8588);stop-opacity:1;"/>
<stop offset="0.371" stop-color="#A286D3" style="stop-color:#A286D3;stop-color:color(display-p3 0.6353 0.5255 0.8275);stop-opacity:1;"/>
<stop offset="0.9954" stop-color="#7E57C2" style="stop-color:#7E57C2;stop-color:color(display-p3 0.4941 0.3412 0.7608);stop-opacity:1;"/>
</linearGradient>
</defs>
</svg>
