<svg width="128" height="128" viewBox="0 0 128 128" fill="none" xmlns="http://www.w3.org/2000/svg">
<path d="M63.6001 118.8C35.7001 118.8 5.6001 101.3 5.6001 62.9C5.6001 24.5 35.7001 7 63.6001 7C79.1001 7 93.4001 12.1 104 21.4C115.5 31.6 121.6 46 121.6 62.9C121.6 79.8 115.5 94.1 104 104.3C93.4001 113.6 79.0001 118.8 63.6001 118.8Z" fill="url(#paint0_radial_169_12552)" style=""/>
<path d="M63.6001 118.8C35.7001 118.8 5.6001 101.3 5.6001 62.9C5.6001 24.5 35.7001 7 63.6001 7C79.1001 7 93.4001 12.1 104 21.4C115.5 31.6 121.6 46 121.6 62.9C121.6 79.8 115.5 94.1 104 104.3C93.4001 113.6 79.0001 118.8 63.6001 118.8Z" fill="url(#paint1_radial_169_12552)" style=""/>
<path d="M63.6001 118.8C35.7001 118.8 5.6001 101.3 5.6001 62.9C5.6001 24.5 35.7001 7 63.6001 7C79.1001 7 93.4001 12.1 104 21.4C115.5 31.6 121.6 46 121.6 62.9C121.6 79.8 115.5 94.1 104 104.3C93.4001 113.6 79.0001 118.8 63.6001 118.8Z" fill="url(#paint2_radial_169_12552)" style=""/>
<path d="M63.6001 118.8C35.7001 118.8 5.6001 101.3 5.6001 62.9C5.6001 24.5 35.7001 7 63.6001 7C79.1001 7 93.4001 12.1 104 21.4C115.5 31.6 121.6 46 121.6 62.9C121.6 79.8 115.5 94.1 104 104.3C93.4001 113.6 79.0001 118.8 63.6001 118.8Z" fill="url(#paint3_radial_169_12552)" style=""/>
<path d="M63.6001 118.8C35.7001 118.8 5.6001 101.3 5.6001 62.9C5.6001 24.5 35.7001 7 63.6001 7C79.1001 7 93.4001 12.1 104 21.4C115.5 31.6 121.6 46 121.6 62.9C121.6 79.8 115.5 94.1 104 104.3C93.4001 113.6 79.0001 118.8 63.6001 118.8Z" fill="url(#paint4_radial_169_12552)" style=""/>
<path d="M111.49 29.67C116.82 38.27 119.6 48.51 119.6 59.9C119.6 76.8 113.5 91.1 102 101.3C91.4002 110.6 77.0002 115.8 61.6002 115.8C43.5402 115.8 24.6002 108.45 13.4202 92.86C24.1802 110.52 44.4202 118.8 63.6002 118.8C79.0002 118.8 93.4002 113.6 104 104.3C115.5 94.1 121.6 79.8 121.6 62.9C121.6 50.16 118.13 38.84 111.49 29.67Z" fill="#EB8F00" style="fill:#EB8F00;fill:color(display-p3 0.9216 0.5608 0.0000);fill-opacity:1;"/>
<path d="M111.49 29.67C116.82 38.27 119.6 48.51 119.6 59.9C119.6 76.8 113.5 91.1 102 101.3C91.4002 110.6 77.0002 115.8 61.6002 115.8C43.5402 115.8 24.6002 108.45 13.4202 92.86C24.1802 110.52 44.4202 118.8 63.6002 118.8C79.0002 118.8 93.4002 113.6 104 104.3C115.5 94.1 121.6 79.8 121.6 62.9C121.6 50.16 118.13 38.84 111.49 29.67Z" fill="#F3B872" style="fill:#F3B872;fill:color(display-p3 0.9542 0.7229 0.4453);fill-opacity:1;"/>
<path d="M111.49 29.67C116.82 38.27 119.6 48.51 119.6 59.9C119.6 76.8 113.5 91.1 102 101.3C91.4002 110.6 77.0002 115.8 61.6002 115.8C43.5402 115.8 24.6002 108.45 13.4202 92.86C24.1802 110.52 44.4202 118.8 63.6002 118.8C79.0002 118.8 93.4002 113.6 104 104.3C115.5 94.1 121.6 79.8 121.6 62.9C121.6 50.16 118.13 38.84 111.49 29.67Z" fill="#91674D" style="fill:#91674D;fill:color(display-p3 0.5686 0.4039 0.3020);fill-opacity:1;"/>
<path d="M63.9998 101C55.4598 101 49.3698 94.71 47.5298 91.22C46.8298 90.04 46.6998 88.6 47.1598 87.31C47.4398 86.54 48.1798 86.02 48.9998 86C49.2798 86.01 49.5498 86.06 49.8098 86.16C54.1098 87.85 57.8798 90.3 64.0498 90.3C70.2198 90.3 74.0498 87.85 78.2898 86.16C78.5498 86.06 78.8198 86 79.0998 86C79.9098 86.04 80.6098 86.55 80.8898 87.31C81.3498 88.6 81.2198 90.04 80.5198 91.22C78.6298 94.71 72.5398 101 63.9998 101Z" fill="#1A1717" style="fill:#1A1717;fill:color(display-p3 0.1020 0.0902 0.0902);fill-opacity:1;"/>
<path d="M63.9998 101C55.4598 101 49.3698 94.71 47.5298 91.22C46.8298 90.04 46.6998 88.6 47.1598 87.31C47.4398 86.54 48.1798 86.02 48.9998 86C49.2798 86.01 49.5498 86.06 49.8098 86.16C54.1098 87.85 57.8798 90.3 64.0498 90.3C70.2198 90.3 74.0498 87.85 78.2898 86.16C78.5498 86.06 78.8198 86 79.0998 86C79.9098 86.04 80.6098 86.55 80.8898 87.31C81.3498 88.6 81.2198 90.04 80.5198 91.22C78.6298 94.71 72.5398 101 63.9998 101Z" fill="#5D4037" style="fill:#5D4037;fill:color(display-p3 0.3647 0.2510 0.2157);fill-opacity:1;"/>
<path d="M49.5099 54.37L49.3099 54.57C49.1499 54.75 48.9799 54.92 48.7999 55.07L48.1099 55.64C47.8199 55.86 47.4899 56.1 47.1099 56.34C46.7299 56.58 46.3399 56.81 45.9099 57.03C45.4699 57.25 45.0099 57.44 44.5399 57.6C44.0499 57.75 43.5499 57.87 43.0399 57.97C42.5199 58.05 41.9999 58.09 41.4699 58.09H40.9999C40.7399 58.09 40.6899 58.09 40.5899 58.09L39.8899 58C39.3799 57.9 38.8799 57.78 38.3899 57.63C37.9099 57.45 37.4499 57.24 36.9999 57C36.5699 56.78 36.1699 56.54 35.7999 56.31C35.2099 55.92 34.6599 55.48 34.1399 55L33.5099 54.42L33.2599 54.17C31.9799 53 30.0499 52.93 28.6899 54C27.6999 54.76 27.3699 56.12 27.9099 57.25L28.0599 57.55C28.1899 57.84 28.3399 58.12 28.4999 58.39C29.5299 60.11 30.9299 61.58 32.5899 62.71C33.3799 63.26 34.2199 63.73 35.0999 64.11C36.0699 64.54 37.0699 64.87 38.0999 65.11C38.6499 65.21 39.1599 65.31 39.8299 65.37C40.1399 65.37 40.4999 65.43 40.6599 65.43H41.4399C42.5599 65.41 43.6699 65.3 44.7699 65.08C45.7999 64.84 46.7999 64.51 47.7699 64.08C48.6499 63.7 49.4899 63.23 50.2799 62.68C51.5199 61.84 52.6199 60.8 53.5299 59.61L54.0099 58.94L54.4099 58.31C54.5599 58.07 54.6899 57.81 54.7999 57.54L54.9099 57.29C55.5099 55.86 54.8299 54.21 53.3999 53.61C53.2999 53.57 53.1999 53.53 53.0999 53.51C51.8399 53.11 50.4499 53.44 49.5099 54.37Z" fill="#49362E" style="fill:#49362E;fill:color(display-p3 0.2863 0.2118 0.1804);fill-opacity:1;"/>
<path d="M49.5099 54.37L49.3099 54.57C49.1499 54.75 48.9799 54.92 48.7999 55.07L48.1099 55.64C47.8199 55.86 47.4899 56.1 47.1099 56.34C46.7299 56.58 46.3399 56.81 45.9099 57.03C45.4699 57.25 45.0099 57.44 44.5399 57.6C44.0499 57.75 43.5499 57.87 43.0399 57.97C42.5199 58.05 41.9999 58.09 41.4699 58.09H40.9999C40.7399 58.09 40.6899 58.09 40.5899 58.09L39.8899 58C39.3799 57.9 38.8799 57.78 38.3899 57.63C37.9099 57.45 37.4499 57.24 36.9999 57C36.5699 56.78 36.1699 56.54 35.7999 56.31C35.2099 55.92 34.6599 55.48 34.1399 55L33.5099 54.42L33.2599 54.17C31.9799 53 30.0499 52.93 28.6899 54C27.6999 54.76 27.3699 56.12 27.9099 57.25L28.0599 57.55C28.1899 57.84 28.3399 58.12 28.4999 58.39C29.5299 60.11 30.9299 61.58 32.5899 62.71C33.3799 63.26 34.2199 63.73 35.0999 64.11C36.0699 64.54 37.0699 64.87 38.0999 65.11C38.6499 65.21 39.1599 65.31 39.8299 65.37C40.1399 65.37 40.4999 65.43 40.6599 65.43H41.4399C42.5599 65.41 43.6699 65.3 44.7699 65.08C45.7999 64.84 46.7999 64.51 47.7699 64.08C48.6499 63.7 49.4899 63.23 50.2799 62.68C51.5199 61.84 52.6199 60.8 53.5299 59.61L54.0099 58.94L54.4099 58.31C54.5599 58.07 54.6899 57.81 54.7999 57.54L54.9099 57.29C55.5099 55.86 54.8299 54.21 53.3999 53.61C53.2999 53.57 53.1999 53.53 53.0999 53.51C51.8399 53.11 50.4499 53.44 49.5099 54.37Z" fill="#1A1717" style="fill:#1A1717;fill:color(display-p3 0.1020 0.0902 0.0902);fill-opacity:1;"/>
<path d="M49.5099 54.37L49.3099 54.57C49.1499 54.75 48.9799 54.92 48.7999 55.07L48.1099 55.64C47.8199 55.86 47.4899 56.1 47.1099 56.34C46.7299 56.58 46.3399 56.81 45.9099 57.03C45.4699 57.25 45.0099 57.44 44.5399 57.6C44.0499 57.75 43.5499 57.87 43.0399 57.97C42.5199 58.05 41.9999 58.09 41.4699 58.09H40.9999C40.7399 58.09 40.6899 58.09 40.5899 58.09L39.8899 58C39.3799 57.9 38.8799 57.78 38.3899 57.63C37.9099 57.45 37.4499 57.24 36.9999 57C36.5699 56.78 36.1699 56.54 35.7999 56.31C35.2099 55.92 34.6599 55.48 34.1399 55L33.5099 54.42L33.2599 54.17C31.9799 53 30.0499 52.93 28.6899 54C27.6999 54.76 27.3699 56.12 27.9099 57.25L28.0599 57.55C28.1899 57.84 28.3399 58.12 28.4999 58.39C29.5299 60.11 30.9299 61.58 32.5899 62.71C33.3799 63.26 34.2199 63.73 35.0999 64.11C36.0699 64.54 37.0699 64.87 38.0999 65.11C38.6499 65.21 39.1599 65.31 39.8299 65.37C40.1399 65.37 40.4999 65.43 40.6599 65.43H41.4399C42.5599 65.41 43.6699 65.3 44.7699 65.08C45.7999 64.84 46.7999 64.51 47.7699 64.08C48.6499 63.7 49.4899 63.23 50.2799 62.68C51.5199 61.84 52.6199 60.8 53.5299 59.61L54.0099 58.94L54.4099 58.31C54.5599 58.07 54.6899 57.81 54.7999 57.54L54.9099 57.29C55.5099 55.86 54.8299 54.21 53.3999 53.61C53.2999 53.57 53.1999 53.53 53.0999 53.51C51.8399 53.11 50.4499 53.44 49.5099 54.37Z" fill="#49362E" style="fill:#49362E;fill:color(display-p3 0.2863 0.2118 0.1804);fill-opacity:1;"/>
<path d="M94.5099 54.37L94.3099 54.57C94.1499 54.75 93.9799 54.92 93.7999 55.07L93.1099 55.64C92.8199 55.86 92.4899 56.1 92.1099 56.34C91.7299 56.58 91.3399 56.81 90.9099 57.03C90.4699 57.25 90.0099 57.44 89.5399 57.6C89.0499 57.75 88.5499 57.87 88.0399 57.97C87.5199 58.05 86.9999 58.09 86.4699 58.09H85.9999C85.7399 58.09 85.6899 58.09 85.5899 58.09L84.8899 58C84.3799 57.9 83.8799 57.78 83.3899 57.63C82.9099 57.45 82.4499 57.24 81.9999 57C81.5699 56.78 81.1699 56.54 80.7999 56.31C80.2099 55.92 79.6599 55.48 79.1399 55L78.5099 54.42L78.2599 54.17C76.9799 53 75.0499 52.93 73.6899 54C72.6999 54.76 72.3699 56.12 72.9099 57.25L73.0599 57.55C73.1899 57.84 73.3399 58.12 73.4999 58.39C74.5299 60.11 75.9299 61.58 77.5899 62.71C78.3799 63.26 79.2199 63.73 80.0999 64.11C81.0799 64.54 82.0999 64.88 83.1499 65.11C83.6999 65.21 84.2099 65.31 84.8799 65.37C85.1899 65.37 85.5499 65.43 85.7099 65.43H86.4899C87.6099 65.41 88.7199 65.3 89.8199 65.08C90.8699 64.85 91.8899 64.51 92.8699 64.08C93.7499 63.7 94.5899 63.23 95.3799 62.68C96.6199 61.84 97.7199 60.8 98.6299 59.61L99.1099 58.94L99.5099 58.31C99.6599 58.07 99.7899 57.81 99.8999 57.54L100.01 57.29C100.61 55.86 99.9299 54.21 98.4999 53.61C98.3999 53.57 98.2999 53.53 98.1999 53.51C96.9099 53.06 95.4699 53.4 94.5099 54.37Z" fill="#49362E" style="fill:#49362E;fill:color(display-p3 0.2863 0.2118 0.1804);fill-opacity:1;"/>
<path d="M94.5099 54.37L94.3099 54.57C94.1499 54.75 93.9799 54.92 93.7999 55.07L93.1099 55.64C92.8199 55.86 92.4899 56.1 92.1099 56.34C91.7299 56.58 91.3399 56.81 90.9099 57.03C90.4699 57.25 90.0099 57.44 89.5399 57.6C89.0499 57.75 88.5499 57.87 88.0399 57.97C87.5199 58.05 86.9999 58.09 86.4699 58.09H85.9999C85.7399 58.09 85.6899 58.09 85.5899 58.09L84.8899 58C84.3799 57.9 83.8799 57.78 83.3899 57.63C82.9099 57.45 82.4499 57.24 81.9999 57C81.5699 56.78 81.1699 56.54 80.7999 56.31C80.2099 55.92 79.6599 55.48 79.1399 55L78.5099 54.42L78.2599 54.17C76.9799 53 75.0499 52.93 73.6899 54C72.6999 54.76 72.3699 56.12 72.9099 57.25L73.0599 57.55C73.1899 57.84 73.3399 58.12 73.4999 58.39C74.5299 60.11 75.9299 61.58 77.5899 62.71C78.3799 63.26 79.2199 63.73 80.0999 64.11C81.0799 64.54 82.0999 64.88 83.1499 65.11C83.6999 65.21 84.2099 65.31 84.8799 65.37C85.1899 65.37 85.5499 65.43 85.7099 65.43H86.4899C87.6099 65.41 88.7199 65.3 89.8199 65.08C90.8699 64.85 91.8899 64.51 92.8699 64.08C93.7499 63.7 94.5899 63.23 95.3799 62.68C96.6199 61.84 97.7199 60.8 98.6299 59.61L99.1099 58.94L99.5099 58.31C99.6599 58.07 99.7899 57.81 99.8999 57.54L100.01 57.29C100.61 55.86 99.9299 54.21 98.4999 53.61C98.3999 53.57 98.2999 53.53 98.1999 53.51C96.9099 53.06 95.4699 53.4 94.5099 54.37Z" fill="#1A1717" style="fill:#1A1717;fill:color(display-p3 0.1020 0.0902 0.0902);fill-opacity:1;"/>
<path d="M94.5099 54.37L94.3099 54.57C94.1499 54.75 93.9799 54.92 93.7999 55.07L93.1099 55.64C92.8199 55.86 92.4899 56.1 92.1099 56.34C91.7299 56.58 91.3399 56.81 90.9099 57.03C90.4699 57.25 90.0099 57.44 89.5399 57.6C89.0499 57.75 88.5499 57.87 88.0399 57.97C87.5199 58.05 86.9999 58.09 86.4699 58.09H85.9999C85.7399 58.09 85.6899 58.09 85.5899 58.09L84.8899 58C84.3799 57.9 83.8799 57.78 83.3899 57.63C82.9099 57.45 82.4499 57.24 81.9999 57C81.5699 56.78 81.1699 56.54 80.7999 56.31C80.2099 55.92 79.6599 55.48 79.1399 55L78.5099 54.42L78.2599 54.17C76.9799 53 75.0499 52.93 73.6899 54C72.6999 54.76 72.3699 56.12 72.9099 57.25L73.0599 57.55C73.1899 57.84 73.3399 58.12 73.4999 58.39C74.5299 60.11 75.9299 61.58 77.5899 62.71C78.3799 63.26 79.2199 63.73 80.0999 64.11C81.0799 64.54 82.0999 64.88 83.1499 65.11C83.6999 65.21 84.2099 65.31 84.8799 65.37C85.1899 65.37 85.5499 65.43 85.7099 65.43H86.4899C87.6099 65.41 88.7199 65.3 89.8199 65.08C90.8699 64.85 91.8899 64.51 92.8699 64.08C93.7499 63.7 94.5899 63.23 95.3799 62.68C96.6199 61.84 97.7199 60.8 98.6299 59.61L99.1099 58.94L99.5099 58.31C99.6599 58.07 99.7899 57.81 99.8999 57.54L100.01 57.29C100.61 55.86 99.9299 54.21 98.4999 53.61C98.3999 53.57 98.2999 53.53 98.1999 53.51C96.9099 53.06 95.4699 53.4 94.5099 54.37Z" fill="#49362E" style="fill:#49362E;fill:color(display-p3 0.2863 0.2118 0.1804);fill-opacity:1;"/>
<path d="M28.4199 43.28C27.7199 44.01 26.5499 44.04 25.8199 43.33C25.1599 42.7 25.0699 41.67 25.5999 40.93C26.7199 39.33 28.0899 37.92 29.6699 36.76C33.8599 33.53 39.1099 32 44.3799 32.49C46.8599 32.8 46.3799 35.97 44.1699 36.18C38.2499 36.65 32.6899 39.16 28.4199 43.28Z" fill="#49362E" style="fill:#49362E;fill:color(display-p3 0.2863 0.2118 0.1804);fill-opacity:1;"/>
<path d="M28.4199 43.28C27.7199 44.01 26.5499 44.04 25.8199 43.33C25.1599 42.7 25.0699 41.67 25.5999 40.93C26.7199 39.33 28.0899 37.92 29.6699 36.76C33.8599 33.53 39.1099 32 44.3799 32.49C46.8599 32.8 46.3799 35.97 44.1699 36.18C38.2499 36.65 32.6899 39.16 28.4199 43.28Z" fill="#1A1717" style="fill:#1A1717;fill:color(display-p3 0.1020 0.0902 0.0902);fill-opacity:1;"/>
<path d="M28.4199 43.28C27.7199 44.01 26.5499 44.04 25.8199 43.33C25.1599 42.7 25.0699 41.67 25.5999 40.93C26.7199 39.33 28.0899 37.92 29.6699 36.76C33.8599 33.53 39.1099 32 44.3799 32.49C46.8599 32.8 46.3799 35.97 44.1699 36.18C38.2499 36.65 32.6899 39.16 28.4199 43.28Z" fill="#613E31" style="fill:#613E31;fill:color(display-p3 0.3804 0.2431 0.1922);fill-opacity:1;"/>
<path d="M98.4899 43.28C99.1899 44.01 100.36 44.04 101.09 43.33C101.75 42.7 101.84 41.67 101.31 40.93C100.19 39.33 98.8199 37.92 97.2399 36.76C93.0499 33.53 87.7999 32 82.5299 32.49C80.0499 32.8 80.5299 35.97 82.7399 36.18C88.6599 36.65 94.2199 39.16 98.4899 43.28Z" fill="#49362E" style="fill:#49362E;fill:color(display-p3 0.2863 0.2118 0.1804);fill-opacity:1;"/>
<path d="M98.4899 43.28C99.1899 44.01 100.36 44.04 101.09 43.33C101.75 42.7 101.84 41.67 101.31 40.93C100.19 39.33 98.8199 37.92 97.2399 36.76C93.0499 33.53 87.7999 32 82.5299 32.49C80.0499 32.8 80.5299 35.97 82.7399 36.18C88.6599 36.65 94.2199 39.16 98.4899 43.28Z" fill="#1A1717" style="fill:#1A1717;fill:color(display-p3 0.1020 0.0902 0.0902);fill-opacity:1;"/>
<path d="M98.4899 43.28C99.1899 44.01 100.36 44.04 101.09 43.33C101.75 42.7 101.84 41.67 101.31 40.93C100.19 39.33 98.8199 37.92 97.2399 36.76C93.0499 33.53 87.7999 32 82.5299 32.49C80.0499 32.8 80.5299 35.97 82.7399 36.18C88.6599 36.65 94.2199 39.16 98.4899 43.28Z" fill="#613E31" style="fill:#613E31;fill:color(display-p3 0.3804 0.2431 0.1922);fill-opacity:1;"/>
<defs>
<radialGradient id="paint0_radial_169_12552" cx="0" cy="0" r="1" gradientUnits="userSpaceOnUse" gradientTransform="translate(63.6001 62.9) scale(56.9597 56.9597)">
<stop offset="0.5" stop-color="#FDE030" style="stop-color:#FDE030;stop-color:color(display-p3 0.9922 0.8784 0.1882);stop-opacity:1;"/>
<stop offset="0.92" stop-color="#F7C02B" style="stop-color:#F7C02B;stop-color:color(display-p3 0.9686 0.7529 0.1686);stop-opacity:1;"/>
<stop offset="1" stop-color="#F4A223" style="stop-color:#F4A223;stop-color:color(display-p3 0.9569 0.6353 0.1373);stop-opacity:1;"/>
</radialGradient>
<radialGradient id="paint1_radial_169_12552" cx="0" cy="0" r="1" gradientUnits="userSpaceOnUse" gradientTransform="translate(38.5991 34.5377) rotate(-43.2082) scale(102.024 101.825)">
<stop offset="0.3533" stop-color="#F9DDBD" style="stop-color:#F9DDBD;stop-color:color(display-p3 0.9765 0.8667 0.7412);stop-opacity:1;"/>
<stop offset="0.8723" stop-color="#FFD29C" style="stop-color:#FFD29C;stop-color:color(display-p3 1.0000 0.8235 0.6118);stop-opacity:1;"/>
</radialGradient>
<radialGradient id="paint2_radial_169_12552" cx="0" cy="0" r="1" gradientUnits="userSpaceOnUse" gradientTransform="translate(38.5991 34.5377) rotate(-43.2082) scale(102.024 101.825)">
<stop offset="0.3533" stop-color="#70534A" style="stop-color:#70534A;stop-color:color(display-p3 0.4392 0.3255 0.2902);stop-opacity:1;"/>
<stop offset="0.8723" stop-color="#5C4037" style="stop-color:#5C4037;stop-color:color(display-p3 0.3608 0.2510 0.2157);stop-opacity:1;"/>
</radialGradient>
<radialGradient id="paint3_radial_169_12552" cx="0" cy="0" r="1" gradientUnits="userSpaceOnUse" gradientTransform="translate(38.5991 34.5377) rotate(-43.2082) scale(102.024 101.825)">
<stop offset="0.3533" stop-color="#A37A58" style="stop-color:#A37A58;stop-color:color(display-p3 0.6375 0.4772 0.3453);stop-opacity:1;"/>
<stop offset="0.8723" stop-color="#8D5738" style="stop-color:#8D5738;stop-color:color(display-p3 0.5529 0.3412 0.2196);stop-opacity:1;"/>
</radialGradient>
<radialGradient id="paint4_radial_169_12552" cx="0" cy="0" r="1" gradientUnits="userSpaceOnUse" gradientTransform="translate(38.5991 34.5377) rotate(-43.2082) scale(102.024 101.825)">
<stop offset="0.3533" stop-color="#AD8264" style="stop-color:#AD8264;stop-color:color(display-p3 0.6784 0.5098 0.3922);stop-opacity:1;"/>
<stop offset="0.8723" stop-color="#A47B62" style="stop-color:#A47B62;stop-color:color(display-p3 0.6431 0.4824 0.3843);stop-opacity:1;"/>
</radialGradient>
</defs>
</svg>
