<svg width="128" height="128" viewBox="0 0 128 128" fill="none" xmlns="http://www.w3.org/2000/svg">
<g clip-path="url(#clip0_2453_1499)">
<path d="M32.724 28.2065C31.6782 24.6809 28.8665 18.2082 31.5895 12.1086C38.1029 12.6501 50.8368 15.3511 49.6656 21.8228C48.2016 29.9123 50.6341 29.4674 51.8529 29.443C52.8279 29.4235 52.0146 17.3427 51.5037 12.1137L63.2365 9.46118C63.2004 14.4324 63.3751 24.5312 64.363 25.1563C65.3508 25.7814 65.1874 18.9602 64.9823 15.4715L76.7634 15.2361C76.3974 17.2585 75.589 21.5466 75.2833 22.52C74.9012 23.7367 75.396 28.1599 76.6148 28.1356C77.5897 28.1161 77.9863 22.1973 78.0627 19.2403L85.7089 15.4604C86.6997 17.59 88.4425 22.0959 87.4868 23.0822C86.2922 24.3151 86.0711 33.5889 86.8997 34.3784C87.5626 35.0099 88.2217 32.7399 88.4684 31.5259C90.3427 30.4137 94.5122 28.9065 96.1951 31.7745C97.878 34.6426 96.9983 38.0724 96.348 39.4288C96.0359 40.0798 94.4134 44.3036 94.4858 47.9293C74.0139 47.1293 30.0025 43.093 29.3203 41.4946C28.6381 39.8961 32.2709 32.6487 32.724 28.2065Z" fill="#875334" style="fill:#875334;fill:color(display-p3 0.5294 0.3255 0.2039);fill-opacity:1;"/>
<path d="M50.808 17.9285C50.9378 24.424 47.1441 27.8815 42.7435 27.9694C29.9312 29.4861 30.0903 22.7395 29.9605 16.244C29.8307 9.74852 34.1187 2.71428 41.6441 2.56392C47.8415 2.4401 50.6782 11.433 50.808 17.9285Z" fill="#A56C43" style="fill:#A56C43;fill:color(display-p3 0.6471 0.4235 0.2627);fill-opacity:1;"/>
<path d="M64.2003 11.8541C64.2815 15.9192 62.1049 18.4704 59.3581 18.5253C51.3609 19.474 51.2688 14.8643 51.1876 10.7992C51.1064 6.7341 53.7826 2.332 58.4798 2.23815C62.3481 2.16086 64.1191 7.78901 64.2003 11.8541Z" fill="#A56C43" style="fill:#A56C43;fill:color(display-p3 0.6471 0.4235 0.2627);fill-opacity:1;"/>
<path d="M76.9829 13.8698C77.0641 17.9349 75.039 20.4831 72.4792 20.5343C65.0274 21.4721 64.9353 16.8623 64.8541 12.7972C64.7729 8.73215 67.261 4.33381 71.6385 4.24634C75.2435 4.17432 76.9016 9.80471 76.9829 13.8698Z" fill="#A56C43" style="fill:#A56C43;fill:color(display-p3 0.6471 0.4235 0.2627);fill-opacity:1;"/>
<path d="M88.4564 20.2215C88.5189 23.3484 86.6123 25.3156 84.2129 25.3635C77.2255 26.11 77.1547 22.564 77.0922 19.4371C77.0297 16.3101 79.3765 12.9181 83.4797 12.8361C86.8588 12.7686 88.394 17.0945 88.4564 20.2215Z" fill="#A56C43" style="fill:#A56C43;fill:color(display-p3 0.6471 0.4235 0.2627);fill-opacity:1;"/>
<path d="M97.9287 30.0188C98.8359 33.0965 97.7999 35.4646 95.8318 36.0448C90.2664 38.3342 89.2377 34.8442 88.3305 31.7666C87.4232 28.6889 88.4329 24.8144 91.7985 23.8223C94.5702 23.0052 97.0215 26.9412 97.9287 30.0188Z" fill="#A56C43" style="fill:#A56C43;fill:color(display-p3 0.6471 0.4235 0.2627);fill-opacity:1;"/>
<path d="M65.3944 27.7062C75.9432 26.1251 86.4103 35.0738 92.2104 42.2156C94.0676 44.5025 94.9987 47.3883 95.0338 50.3341C95.234 67.1433 90.5056 75.7967 88.7442 79.9297C86.8321 84.4167 86.0354 104.654 84.1798 111.971C82.3242 119.287 76.0907 127.905 59.6665 127.424C43.2424 126.944 47.7826 93.6898 48.0697 88.0221C48.3568 82.3544 43.3203 70.7266 37.9804 63.958C32.6406 57.1895 29.9728 43.8966 33.4454 37.3564C36.9179 30.8162 49.8272 30.0393 65.3944 27.7062Z" fill="#995E32" style="fill:#995E32;fill:color(display-p3 0.6000 0.3686 0.1961);fill-opacity:1;"/>
<path d="M65.761 26.805C76.1756 25.2441 86.3424 34.0435 92.0367 41.098C93.887 43.3904 94.8391 46.2776 94.7905 49.2232C94.5156 65.8802 86.9258 74.7657 85.1846 78.8515C83.2928 83.2909 82.5045 103.314 80.6686 110.553C78.8327 117.792 72.6653 126.318 56.4153 125.842C40.1654 125.367 44.6574 92.4657 44.9415 86.8581C45.2256 81.2505 40.2424 69.746 34.9592 63.0492C29.676 56.3524 27.0366 43.2006 30.4723 36.7298C33.908 30.2589 50.3589 29.1134 65.761 26.805Z" fill="#A56C43" style="fill:#A56C43;fill:color(display-p3 0.6471 0.4235 0.2627);fill-opacity:1;"/>
<path fill-rule="evenodd" clip-rule="evenodd" d="M44.176 102.642C44.0889 97.2994 44.5087 92.2851 44.767 89.1988C44.8503 88.2046 44.9167 87.4104 44.9441 86.8699C45.2282 81.2623 40.245 69.7579 34.9618 63.0611C34.2788 62.1953 33.64 61.2216 33.0527 60.1685C33.6453 60.1703 35.1632 60.3795 37.2167 60.6626C43.0591 61.468 53.2369 62.8711 58.7719 61.795C66.8379 60.2268 77.3506 65.9951 76.6968 74.1542C75.5473 88.4994 70.0721 90.1803 62.3942 92.5373C57.1291 94.1537 50.8282 96.088 44.176 102.642Z" fill="#995E32" style="fill:#995E32;fill:color(display-p3 0.6000 0.3686 0.1961);fill-opacity:1;"/>
</g>
<defs>
<clipPath id="clip0_2453_1499">
<rect width="128" height="128" fill="white" style="fill:white;fill-opacity:1;"/>
</clipPath>
</defs>
</svg>
