<svg width="128" height="128" viewBox="0 0 128 128" fill="none" xmlns="http://www.w3.org/2000/svg">
<path d="M63.6001 118.8C35.7001 118.8 5.6001 101.3 5.6001 62.9C5.6001 24.5 35.7001 7 63.6001 7C79.1001 7 93.4001 12.1 104 21.4C115.5 31.6 121.6 46 121.6 62.9C121.6 79.8 115.5 94.1 104 104.3C93.4001 113.6 79.0001 118.8 63.6001 118.8Z" fill="url(#paint0_radial_169_5930)" style=""/>
<path d="M63.6001 118.8C35.7001 118.8 5.6001 101.3 5.6001 62.9C5.6001 24.5 35.7001 7 63.6001 7C79.1001 7 93.4001 12.1 104 21.4C115.5 31.6 121.6 46 121.6 62.9C121.6 79.8 115.5 94.1 104 104.3C93.4001 113.6 79.0001 118.8 63.6001 118.8Z" fill="url(#paint1_radial_169_5930)" style=""/>
<path d="M111.49 29.6699C116.82 38.2699 119.6 48.5099 119.6 59.8999C119.6 76.7999 113.5 91.0999 102 101.3C91.3999 110.6 76.9999 115.8 61.5999 115.8C43.5399 115.8 24.5999 108.45 13.4199 92.8599C24.1799 110.52 44.4199 118.8 63.5999 118.8C78.9999 118.8 93.3999 113.6 104 104.3C115.5 94.0999 121.6 79.7999 121.6 62.8999C121.6 50.1599 118.13 38.8399 111.49 29.6699Z" fill="#EB8F00" style="fill:#EB8F00;fill:color(display-p3 0.9216 0.5608 0.0000);fill-opacity:1;"/>
<path d="M111.49 29.6699C116.82 38.2699 119.6 48.5099 119.6 59.8999C119.6 76.7999 113.5 91.0999 102 101.3C91.3999 110.6 76.9999 115.8 61.5999 115.8C43.5399 115.8 24.5999 108.45 13.4199 92.8599C24.1799 110.52 44.4199 118.8 63.5999 118.8C78.9999 118.8 93.3999 113.6 104 104.3C115.5 94.0999 121.6 79.7999 121.6 62.8999C121.6 50.1599 118.13 38.8399 111.49 29.6699Z" fill="#F3B872" style="fill:#F3B872;fill:color(display-p3 0.9542 0.7229 0.4453);fill-opacity:1;"/>
<path d="M83.8999 90.6999C83.5099 90.6899 83.1399 90.5899 82.7999 90.3999C77.0699 87.1599 70.5799 85.4999 63.9999 85.5999C57.4199 85.5499 50.9499 87.1999 45.1999 90.3999C44.8999 90.5899 44.5499 90.6899 44.1999 90.6999C43.3999 90.6699 42.6699 90.2099 42.2999 89.4999C41.9899 88.7699 42.1099 87.9199 42.5999 87.2999C52.9599 75.4799 70.9399 74.2999 82.7599 84.6599C83.6999 85.4799 84.5799 86.3599 85.3999 87.2999C86.1399 88.1799 86.0199 89.4799 85.1499 90.2199C84.7999 90.5099 84.3599 90.6799 83.8999 90.6999Z" fill="#35220B" style="fill:#35220B;fill:color(display-p3 0.2078 0.1333 0.0431);fill-opacity:1;"/>
<path d="M73.9002 50.1C73.9802 50.11 74.0502 50.14 74.1002 50.2C74.2102 50.21 74.2902 50.29 74.3002 50.4C74.4002 50.4 74.4002 50.4 74.5002 50.5C74.7302 50.62 74.9602 50.72 75.2002 50.8L76.1002 51.1C76.9202 51.37 77.7502 51.57 78.6002 51.7C79.1002 51.8 79.6002 51.8 80.1002 51.9C80.6302 51.98 81.1602 52.02 81.7002 52H83.3002C83.8102 51.98 84.3102 51.92 84.8002 51.8C85.8002 51.6 86.6002 51.4 87.3002 51.2C88.0002 51 88.5002 50.7 88.9002 50.6C89.1202 50.55 89.3302 50.45 89.5002 50.3L90.0002 50.1C91.4402 49.35 93.2102 49.89 94.0002 51.3C94.5702 52.36 94.4502 53.66 93.7002 54.6C93.6202 54.69 93.5502 54.79 93.5002 54.9C93.3302 55.16 93.1302 55.4 92.9002 55.6C92.1402 56.36 91.3002 57.03 90.4002 57.6C89.1602 58.13 87.8902 58.6 86.6002 59C85.8402 59.21 85.0802 59.38 84.3002 59.5C83.9002 59.5 83.5002 59.6 83.0002 59.6H81.8002C81.0002 59.58 80.2002 59.52 79.4002 59.4C78.6202 59.29 77.8502 59.12 77.1002 58.9C75.7202 58.54 74.4102 57.96 73.2002 57.2C72.6002 56.9 72.2002 56.5 71.7002 56.2C71.3102 55.89 70.9402 55.56 70.6002 55.2L70.2002 54.8C70.1002 54.7 70.1002 54.6 70.0002 54.6L69.8002 54.4C68.8102 53.07 69.0702 51.19 70.4002 50.2C71.4602 49.52 72.8102 49.48 73.9002 50.1Z" fill="#35220B" style="fill:#35220B;fill:color(display-p3 0.2078 0.1333 0.0431);fill-opacity:1;"/>
<path d="M37.1001 50.1001C37.1801 50.1101 37.2501 50.1401 37.3001 50.2001C37.4101 50.2101 37.4901 50.2901 37.5001 50.4001C37.6001 50.4001 37.6001 50.4001 37.7001 50.5001C37.9301 50.6201 38.1601 50.7201 38.4001 50.8001L39.3001 51.1001C40.1201 51.3701 40.9501 51.5701 41.8001 51.7001C42.3001 51.8001 42.8001 51.8001 43.3001 51.9001C43.8301 51.9901 44.3601 52.0201 44.9001 52.0001H46.5001C47.0101 51.9801 47.5101 51.9201 48.0001 51.8001C49.0001 51.6001 49.8001 51.4001 50.5001 51.2001C51.2001 51.0001 51.7001 50.7001 52.1001 50.6001C52.3201 50.5501 52.5301 50.4501 52.7001 50.3001L53.2001 50.1001C54.6401 49.3501 56.4101 49.8901 57.2001 51.3001C57.7701 52.3601 57.6501 53.6601 56.9001 54.6001C56.8201 54.6901 56.7501 54.7901 56.7001 54.9001C56.5301 55.1601 56.3301 55.4001 56.1001 55.6001C55.3601 56.3801 54.5201 57.0501 53.6001 57.6001C52.3601 58.3601 51.0101 58.9401 49.6001 59.3001C48.8401 59.5101 48.0801 59.6801 47.3001 59.8001C46.9001 59.8001 46.5001 59.9001 46.0001 59.9001H44.8001C44.0001 59.8801 43.2001 59.8201 42.4001 59.7001C41.6201 59.5901 40.8501 59.4201 40.1001 59.2001C38.7001 58.8201 37.3501 58.2501 36.1001 57.5001C35.6001 57.2001 35.1001 56.8001 34.6001 56.5001C34.2101 56.1901 33.8401 55.8601 33.5001 55.5001L33.1001 55.1001C33.0001 55.0001 33.0001 54.9001 32.9001 54.9001L32.7001 54.7001C31.7101 53.3701 31.9701 51.4901 33.3001 50.5001C34.3601 49.6001 35.8701 49.4401 37.1001 50.1001Z" fill="#35220B" style="fill:#35220B;fill:color(display-p3 0.2078 0.1333 0.0431);fill-opacity:1;"/>
<path d="M75.5199 37.8901L75.4199 38.0101C73.9599 40.0101 70.6399 38.5301 71.7899 36.0101C72.7599 34.0001 74.0299 32.1501 75.5499 30.5201C79.6199 26.1001 85.2299 23.4101 91.2199 23.0001C92.3599 22.9001 93.3699 23.7601 93.4699 24.9001C93.5599 25.9901 92.7899 26.9701 91.6999 27.1301C85.2499 28.7901 79.5399 32.5801 75.5199 37.8901Z" fill="#312D2D" style="fill:#312D2D;fill:color(display-p3 0.1922 0.1765 0.1765);fill-opacity:1;"/>
<path d="M54.4199 38.8902L54.5099 39.0102C55.9799 41.0102 59.2999 39.5302 58.1499 37.0102C57.1799 35.0002 55.8999 33.1502 54.3799 31.5202C50.3099 27.1002 44.7099 24.4102 38.7199 24.0002C37.5799 23.8902 36.5599 24.7302 36.4499 25.8702C36.3399 26.9802 37.1299 27.9702 38.2299 28.1302C44.6899 29.7902 50.3899 33.5802 54.4199 38.8902Z" fill="#312D2D" style="fill:#312D2D;fill:color(display-p3 0.1922 0.1765 0.1765);fill-opacity:1;"/>
<path d="M5.76999 91.9999C6.56999 91.0399 6.68999 89.6899 6.06999 88.5999C4.70999 86.2799 4.31999 83.5099 4.99999 80.8999C6.06999 76.4499 9.92999 73.2399 14.5 72.9999H15.1C16.81 73.0099 18.49 73.4399 20 74.2499C21.6 75.1699 23.02 76.3999 24.16 77.8499C27.68 76.3899 42.66 70.8499 46.53 69.4199H46.59L36.33 91.1699C40.97 94.5999 41.95 101.15 38.52 105.79C36.69 108.27 33.85 109.81 30.77 110H30.16C27.72 110.02 25.35 109.17 23.47 107.6C22.91 107.14 22.2 106.89 21.47 106.9C20.87 106.91 20.28 107.08 19.77 107.4C18.02 108.56 15.96 109.19 13.86 109.2C13.05 109.2 12.25 109.1 11.47 108.9C6.95999 107.88 3.66999 104.01 3.35999 99.3999C3.15999 96.7099 4.02999 94.0499 5.76999 91.9999Z" fill="white" style="fill:white;fill-opacity:1;"/>
<path d="M46.5599 69.3999L31.1799 89.6899L36.3299 91.1699L46.5599 69.3999Z" fill="#92CBEB" style="fill:#92CBEB;fill:color(display-p3 0.5725 0.7961 0.9216);fill-opacity:1;"/>
<path d="M31.65 89.34C31.27 89.36 30.98 89.67 31 90.05C31.01 90.3 31.16 90.52 31.38 90.63C33.44 91.53 34.93 93.37 35.38 95.57C35.8 97.89 35.18 100.89 33.38 102.57C31.58 104.25 28.6 104.57 26.31 103.97C24.02 103.37 21.31 100.97 19.54 99.18C19.24 98.87 18.74 98.86 18.42 99.16C18.29 99.28 18.21 99.44 18.19 99.62C18.09 100.58 18.17 101.55 18.45 102.47C18.59 103.38 13.94 106.88 8.66999 104.06C1.17999 100 7.10999 91.5 6.25999 91.17C6.13999 91.47 5.97999 91.75 5.76999 92C4.02999 94.05 3.15999 96.71 3.35999 99.4C3.66999 104.01 6.95999 107.88 11.47 108.9C12.25 109.1 13.05 109.2 13.86 109.2C15.96 109.19 18.02 108.56 19.77 107.4C20.28 107.08 20.87 106.91 21.47 106.9C22.2 106.89 22.91 107.14 23.47 107.6C25.35 109.17 27.72 110.02 30.16 110H30.77C36.53 109.64 40.91 104.68 40.54 98.92C40.35 95.84 38.8 93.01 36.33 91.17L36.94 89.86C35.22 89.36 33.43 89.19 31.65 89.34Z" fill="#92CBEB" style="fill:#92CBEB;fill:color(display-p3 0.5725 0.7961 0.9216);fill-opacity:1;"/>
<path d="M4.99992 80.9001C4.32992 83.5101 4.72992 86.2801 6.09992 88.6001C6.51992 89.3901 6.58992 90.3201 6.28992 91.1601C7.54992 90.2201 8.39992 88.8301 8.67992 87.2801C8.77992 85.5901 8.58992 83.9001 8.09992 82.2801C7.64992 80.9101 7.72992 79.4301 8.32992 78.1201C9.41992 75.5101 12.6799 73.9901 12.9599 73.8801C13.6399 73.6001 13.7799 73.2901 13.7499 73.0801C9.48992 73.6101 5.99992 76.7301 4.99992 80.9001Z" fill="#92CBEB" style="fill:#92CBEB;fill:color(display-p3 0.5725 0.7961 0.9216);fill-opacity:1;"/>
<path d="M122.23 91.9999C121.43 91.0399 121.31 89.6899 121.93 88.5999C123.3 86.2799 123.7 83.5099 123.03 80.8999C121.96 76.4499 118.1 73.2399 113.53 72.9999H112.93C111.21 72.9999 109.51 73.4299 108 74.2499C106.4 75.1699 104.98 76.3999 103.84 77.8499C100.32 76.3899 85.3399 70.8499 81.4699 69.4199H81.4099L91.6699 91.1699C87.0299 94.5999 86.0499 101.15 89.4799 105.79C91.3099 108.27 94.1499 109.81 97.2299 110H97.8399C100.28 110.02 102.65 109.17 104.53 107.6C105.09 107.14 105.8 106.89 106.53 106.9C107.13 106.91 107.72 107.08 108.23 107.4C109.98 108.56 112.04 109.19 114.14 109.2C114.95 109.2 115.75 109.1 116.53 108.9C121.04 107.88 124.33 104.01 124.64 99.3999C124.84 96.7099 123.97 94.0499 122.23 91.9999Z" fill="white" style="fill:white;fill-opacity:1;"/>
<path d="M81.4399 69.3999L96.8099 89.6899L91.6699 91.1699L81.4399 69.3999Z" fill="#92CBEB" style="fill:#92CBEB;fill:color(display-p3 0.5725 0.7961 0.9216);fill-opacity:1;"/>
<path d="M96.3501 89.3399C96.7301 89.3599 97.0201 89.6699 97.0001 90.0499C96.9901 90.2999 96.8401 90.5199 96.6201 90.6299C94.5601 91.5299 93.0701 93.3699 92.6201 95.5699C92.2001 97.8899 92.8201 100.89 94.6201 102.57C96.4201 104.25 99.4001 104.57 101.69 103.97C103.98 103.37 106.69 100.97 108.46 99.1799C108.76 98.8699 109.26 98.8599 109.58 99.1599C109.71 99.2799 109.79 99.4399 109.81 99.6199C109.91 100.58 109.83 101.55 109.55 102.47C109.41 103.38 114.06 106.88 119.33 104.06C126.84 100.06 120.91 91.5499 121.76 91.2199C121.88 91.5199 122.04 91.7999 122.25 92.0499C123.99 94.0999 124.86 96.7599 124.66 99.4499C124.35 104.06 121.06 107.93 116.55 108.95C115.77 109.15 114.97 109.25 114.16 109.25C112.06 109.24 110 108.61 108.25 107.45C107.74 107.13 107.15 106.96 106.55 106.95C105.82 106.94 105.11 107.19 104.55 107.65C102.67 109.22 100.3 110.07 97.8601 110.05H97.2501C91.4901 109.69 87.1101 104.73 87.4801 98.9699C87.6701 95.8899 89.2201 93.0599 91.6901 91.2199L91.0801 89.9099C92.7901 89.3999 94.5701 89.2099 96.3501 89.3399Z" fill="#92CBEB" style="fill:#92CBEB;fill:color(display-p3 0.5725 0.7961 0.9216);fill-opacity:1;"/>
<path d="M123 80.9001C123.67 83.5101 123.27 86.2801 121.9 88.6001C121.48 89.3901 121.41 90.3201 121.71 91.1601C120.45 90.2201 119.6 88.8301 119.32 87.2801C119.22 85.5901 119.41 83.9001 119.9 82.2801C120.35 80.9101 120.27 79.4301 119.67 78.1201C118.58 75.5101 115.32 73.9901 115.04 73.8801C114.36 73.6001 114.22 73.2901 114.25 73.0801C118.51 73.6101 122 76.7301 123 80.9001Z" fill="#92CBEB" style="fill:#92CBEB;fill:color(display-p3 0.5725 0.7961 0.9216);fill-opacity:1;"/>
<defs>
<radialGradient id="paint0_radial_169_5930" cx="0" cy="0" r="1" gradientUnits="userSpaceOnUse" gradientTransform="translate(63.6001 62.8999) scale(56.9597 56.9597)">
<stop offset="0.5" stop-color="#FDE030" style="stop-color:#FDE030;stop-color:color(display-p3 0.9922 0.8784 0.1882);stop-opacity:1;"/>
<stop offset="0.92" stop-color="#F7C02B" style="stop-color:#F7C02B;stop-color:color(display-p3 0.9686 0.7529 0.1686);stop-opacity:1;"/>
<stop offset="1" stop-color="#F4A223" style="stop-color:#F4A223;stop-color:color(display-p3 0.9569 0.6353 0.1373);stop-opacity:1;"/>
</radialGradient>
<radialGradient id="paint1_radial_169_5930" cx="0" cy="0" r="1" gradientUnits="userSpaceOnUse" gradientTransform="translate(38.5991 34.5377) rotate(-43.2082) scale(102.024 101.825)">
<stop offset="0.3533" stop-color="#F9DDBD" style="stop-color:#F9DDBD;stop-color:color(display-p3 0.9765 0.8667 0.7412);stop-opacity:1;"/>
<stop offset="0.8723" stop-color="#FFD29C" style="stop-color:#FFD29C;stop-color:color(display-p3 1.0000 0.8235 0.6118);stop-opacity:1;"/>
</radialGradient>
</defs>
</svg>
