<svg width="128" height="129" viewBox="0 0 128 129" fill="none" xmlns="http://www.w3.org/2000/svg">
<path d="M124 38.45C122.2 39.55 120.3 40.55 118.6 41.25C116.8 42.05 115.1 42.75 113.4 43.25C111.7 43.75 110 44.25 108.3 44.55C106.6 44.85 105 45.05 103.4 45.25C101.8 45.45 100.2 45.45 98.6 45.45C97 45.45 95.5 45.35 94 45.25C92.5 45.15 91 44.95 89.5 44.75C88 44.55 86.6 44.25 85.1 44.05C83.6 43.85 82.2 43.45 80.8 43.15C79.4 42.85 78 42.45 76.6 42.15C75.2 41.75 73.8 41.35 72.4 40.95C71 40.55 69.6 40.15 68.2 39.75C66.8 39.35 65.4 38.95 64 38.55C62.6 38.15 61.2 37.75 59.8 37.35C58.4 36.95 57 36.55 55.6 36.15C54.2 35.75 52.8 35.35 51.4 34.95C50 34.55 48.6 34.25 47.2 33.95C45.8 33.65 44.3 33.35 42.9 33.05C41.4 32.75 40 32.55 38.5 32.35C37 32.15 35.5 31.95 34 31.85C32.5 31.75 30.9 31.65 29.4 31.65C27.9 31.65 26.3 31.75 24.6 31.85C22.9 31.95 21.4 32.25 19.7 32.55C18 32.85 16.4 33.25 14.6 33.85C12.8 34.45 11.1 35.05 9.4 35.85C7.6 36.65 5.8 37.55 4 38.65V33.65C4 33.65 4 27.75 4 26.25V21.25C5.8 20.15 7.7 19.15 9.4 18.35C11.1 17.55 12.9 16.85 14.6 16.35C16.3 15.85 18 15.45 19.7 15.05C21.4 14.75 23 14.55 24.6 14.35C26.2 14.25 27.8 14.15 29.4 14.15C31 14.15 32.5 14.25 34 14.35C35.5 14.45 37 14.65 38.5 14.85C40 15.05 41.5 15.25 42.9 15.55C44.3 15.85 45.8 16.15 47.2 16.45C48.6 16.75 50 17.15 51.4 17.45C52.8 17.85 54.2 18.25 55.6 18.55C57 18.85 58.4 19.35 59.8 19.75C61.2 20.15 62.6 20.55 64 20.95C65.4 21.35 66.8 21.75 68.2 22.15C69.6 22.55 71 22.95 72.4 23.35C73.8 23.75 75.2 24.15 76.6 24.45C78 24.75 79.4 25.15 80.8 25.45C82.2 25.75 83.7 26.05 85.1 26.35C86.5 26.65 88 26.85 89.5 27.05C91 27.25 92.5 27.45 94 27.55C95.5 27.65 97.1 27.75 98.6 27.75C100.1 27.75 101.7 27.65 103.4 27.55C105.1 27.45 106.6 27.15 108.3 26.85C110 26.55 111.6 26.15 113.4 25.55C115.2 24.95 116.9 24.35 118.6 23.55C120.3 22.75 122.2 21.85 124 20.65V25.65V30.05C124 30.45 124 36.55 124 38.45Z" fill="#40AC3E" style="fill:#40AC3E;fill:color(display-p3 0.2510 0.6745 0.2431);fill-opacity:1;"/>
<path d="M124 55.85C117.24 59.98 109.29 62.48 101.37 62.81C93.37 63.15 85.48 61.68 77.75 59.81C61.77 55.96 46.09 49.04 29.4 49.05C20.53 49.05 11.7 51.39 4 55.85C4 51.51 4 38.46 4 38.46C4 38.46 5.92 37.33 6.58 36.99C8.76 35.84 11.08 34.84 13.41 34.04C18.32 32.35 23.48 31.56 28.66 31.46C39.3 31.27 49.67 34.26 59.8 37.15C70.1 40.09 80.33 43.41 91 44.75C102.47 46.19 114.05 44.33 124 38.25C124 44.12 124 49.98 124 55.85Z" fill="#AEDE72" style="fill:#AEDE72;fill:color(display-p3 0.6824 0.8706 0.4471);fill-opacity:1;"/>
<path d="M124 73.25C117.24 77.38 109.29 79.88 101.37 80.21C93.48 80.54 85.33 79.3 77.75 77.17C69.47 74.85 61.2 72.44 52.93 70.08C49.05 68.97 45.06 68.06 41.07 67.41C37.25 66.79 33.28 66.25 29.41 66.24C20.34 66.21 11.83 68.71 4.01001 73.24C4.01001 69.01 4.01001 55.84 4.01001 55.84C4.01001 55.84 5.70001 54.85 6.26001 54.55C8.49001 53.35 10.86 52.32 13.24 51.48C18.19 49.75 23.43 48.94 28.66 48.85C39.17 48.67 49.41 51.58 59.42 54.43C69.85 57.42 80.2 60.79 91 62.15C102.47 63.59 114.05 61.73 124 55.65C124 61.52 124 67.38 124 73.25Z" fill="white" style="fill:white;fill-opacity:1;"/>
<path d="M124 90.65C117.3 94.74 109.57 97.12 101.74 97.55C93.85 97.98 85.73 96.78 78.13 94.68C69.84 92.39 61.58 89.96 53.31 87.59C45.64 85.4 37.76 83.72 29.75 83.65C20.7 83.57 11.74 85.92 4 90.65C4 86.42 4 73.25 4 73.25C4 73.25 6.99 71.56 7.7 71.22C12.71 68.79 17.98 67.3 23.49 66.59C34.46 65.18 45.49 67.99 55.98 70.86C61.6 72.39 67.18 74.06 72.78 75.66C78.17 77.2 83.56 78.65 89.12 79.4C95.1 80.2 101.17 80.51 107.15 79.46C113.08 78.41 118.85 76.3 124 73.15C124 78.98 124 84.82 124 90.65Z" fill="#8A8A8A" style="fill:#8A8A8A;fill:color(display-p3 0.5412 0.5412 0.5412);fill-opacity:1;"/>
<path d="M124 108.05C122.2 109.15 120.3 110.15 118.6 110.85C116.8 111.65 115.1 112.25 113.4 112.85C111.7 113.45 110 113.75 108.3 114.15C106.6 114.55 105 114.65 103.4 114.85C101.8 114.95 100.2 115.05 98.6 115.05C97 115.05 95.5 114.95 94 114.85C92.5 114.75 91 114.55 89.5 114.35C88 114.15 86.6 113.95 85.1 113.65C83.6 113.35 82.2 113.05 80.8 112.75C79.4 112.45 78 112.05 76.6 111.65C75.2 111.25 73.8 110.85 72.4 110.45C71 110.05 69.6 109.65 68.2 109.25C66.8 108.85 65.4 108.45 64 108.05C62.6 107.65 61.2 107.25 59.8 106.85C58.4 106.45 57 106.05 55.6 105.65C54.2 105.25 52.8 104.85 51.4 104.45C50 104.05 48.6 103.75 47.2 103.35C45.8 102.95 44.3 102.75 42.9 102.45C41.4 102.15 40 101.95 38.5 101.75C37 101.55 35.5 101.35 34 101.25C32.5 101.15 30.9 101.05 29.4 101.05C27.9 101.05 26.3 101.15 24.6 101.25C22.9 101.35 21.4 101.65 19.7 101.95C18 102.25 16.4 102.65 14.6 103.25C12.8 103.85 11.1 104.45 9.4 105.25C7.7 106.05 5.8 106.95 4 108.05V103.05C4 103.05 4 97.15 4 95.65V90.65C5.8 89.55 7.7 88.55 9.4 87.85C11.2 87.05 12.9 86.45 14.6 85.85C16.3 85.25 18 84.95 19.7 84.55C21.4 84.25 23 84.05 24.6 83.85C26.2 83.75 27.8 83.65 29.4 83.65C31 83.65 32.5 83.75 34 83.85C35.5 83.95 37 84.15 38.5 84.35C40 84.55 41.5 84.75 42.9 85.05C44.3 85.35 45.8 85.65 47.2 85.95C48.6 86.25 50 86.65 51.4 87.05C52.8 87.45 54.2 87.85 55.6 88.25C57 88.65 58.4 89.05 59.8 89.45C61.2 89.85 62.6 90.25 64 90.65C65.4 91.05 66.8 91.45 68.2 91.85C69.6 92.25 71 92.65 72.4 93.05C73.8 93.45 75.2 93.85 76.6 94.25C78 94.65 79.4 94.95 80.8 95.35C82.2 95.65 83.7 95.95 85.1 96.25C86.5 96.55 88 96.75 89.5 96.95C91 97.15 92.5 97.35 94 97.45C95.5 97.55 97.1 97.65 98.6 97.65C100.1 97.65 101.7 97.55 103.4 97.45C105.1 97.35 106.6 97.05 108.3 96.75C110 96.45 111.6 96.05 113.4 95.45C115.2 94.85 116.9 94.25 118.6 93.45C120.3 92.65 122.2 91.75 124 90.65V95.65V103.05C124 103.05 124 106.15 124 108.05Z" fill="#343434" style="fill:#343434;fill:color(display-p3 0.2039 0.2039 0.2039);fill-opacity:1;"/>
<path opacity="0.3" d="M124 107.45C122.15 108.57 120.34 109.51 118.57 110.3C116.79 111.1 115.05 111.75 113.33 112.28C111.61 112.81 109.93 113.23 108.27 113.54C106.61 113.86 104.98 114.08 103.38 114.22C101.77 114.36 100.19 114.42 98.63 114.42C97.07 114.42 95.53 114.36 94.01 114.24C92.49 114.13 90.99 113.96 89.51 113.76C88.03 113.55 86.56 113.31 85.11 113.03C83.66 112.75 82.22 112.45 80.79 112.12C79.36 111.79 77.94 111.44 76.54 111.07C75.14 110.7 73.73 110.31 72.33 109.92C70.93 109.52 69.54 109.11 68.16 108.7C66.77 108.29 65.39 107.87 64 107.45C62.62 107.03 61.23 106.61 59.84 106.2C58.45 105.79 57.06 105.38 55.67 104.98C54.27 104.58 52.87 104.2 51.46 103.83C50.05 103.46 48.63 103.11 47.21 102.78C45.79 102.45 44.34 102.14 42.89 101.87C41.44 101.59 39.97 101.35 38.49 101.14C37.01 100.93 35.51 100.77 33.99 100.66C32.47 100.55 30.93 100.48 29.37 100.48C27.81 100.48 26.23 100.54 24.62 100.68C23.01 100.82 21.38 101.04 19.73 101.36C18.07 101.68 16.39 102.09 14.67 102.62C12.95 103.15 11.21 103.8 9.43 104.6C7.65 105.4 5.84 106.34 4 107.45V101.84V96.52V91.45V86.59V81.91C4 81.91 4 78.86 4 77.37V72.94C4 72.94 4 70.02 4 68.58C4 67.14 4 65.69 4 64.25V59.92V55.56V51.13C4 51.13 4 48.13 4 46.59C4 45.05 4 43.5 4 41.91V37.05C4 37.05 4 33.71 4 31.98V26.66V21.05C5.85 19.93 7.66 18.99 9.43 18.2C11.2 17.41 12.95 16.75 14.67 16.22C16.39 15.69 18.07 15.27 19.73 14.96C21.39 14.64 23.02 14.42 24.62 14.28C26.23 14.14 27.81 14.08 29.37 14.08C30.93 14.08 32.47 14.14 33.99 14.26C35.51 14.37 37.01 14.54 38.49 14.74C39.97 14.94 41.44 15.19 42.89 15.47C44.34 15.75 45.78 16.05 47.21 16.38C48.64 16.71 50.06 17.06 51.46 17.43C52.87 17.8 54.27 18.19 55.67 18.58C57.07 18.97 58.46 19.39 59.84 19.8C61.22 20.21 62.61 20.63 64 21.05C65.38 21.47 66.77 21.89 68.16 22.3C69.55 22.71 70.94 23.12 72.33 23.52C73.72 23.92 75.13 24.3 76.54 24.67C77.95 25.04 79.37 25.39 80.79 25.72C82.22 26.05 83.66 26.36 85.11 26.63C86.56 26.91 88.03 27.15 89.51 27.36C90.99 27.57 92.49 27.73 94.01 27.84C95.53 27.95 97.07 28.02 98.63 28.02C100.19 28.02 101.77 27.96 103.38 27.82C104.99 27.68 106.62 27.46 108.27 27.14C109.93 26.82 111.61 26.41 113.33 25.88C115.05 25.35 116.79 24.7 118.57 23.9C120.35 23.1 122.16 22.16 124 21.05V26.66V31.98V37.05C124 37.05 124 40.32 124 41.91V46.59C124 46.59 124 49.64 124 51.13C124 52.62 124 54.1 124 55.56V59.92V64.25V68.58C124 68.58 124 71.48 124 72.94C124 74.4 124 75.88 124 77.37V81.91C124 81.91 124 85 124 86.59V91.45V96.52V101.84V107.45Z" fill="url(#paint0_linear_42_238)" style=""/>
<defs>
<linearGradient id="paint0_linear_42_238" x1="5.3703" y1="22.909" x2="122.37" y2="105.41" gradientUnits="userSpaceOnUse">
<stop stop-color="white" stop-opacity="0" style="stop-color:none;stop-opacity:0;"/>
<stop offset="0.1646" stop-color="#C8C8C8" stop-opacity="0.1646" style="stop-color:#C8C8C8;stop-color:color(display-p3 0.7843 0.7843 0.7843);stop-opacity:0.1646;"/>
<stop offset="0.3934" stop-color="#828282" stop-opacity="0.3934" style="stop-color:#828282;stop-color:color(display-p3 0.5098 0.5098 0.5098);stop-opacity:0.3934;"/>
<stop offset="0.5997" stop-color="#4A4A4A" stop-opacity="0.5997" style="stop-color:#4A4A4A;stop-color:color(display-p3 0.2902 0.2902 0.2902);stop-opacity:0.5997;"/>
<stop offset="0.7759" stop-color="#222222" stop-opacity="0.7759" style="stop-color:#222222;stop-color:color(display-p3 0.1333 0.1333 0.1333);stop-opacity:0.7759;"/>
<stop offset="0.9151" stop-color="#090909" stop-opacity="0.9151" style="stop-color:#090909;stop-color:color(display-p3 0.0353 0.0353 0.0353);stop-opacity:0.9151;"/>
<stop offset="1" style="stop-color:black;stop-opacity:1;"/>
</linearGradient>
</defs>
</svg>
