<svg width="128" height="129" viewBox="0 0 128 129" fill="none" xmlns="http://www.w3.org/2000/svg">
<path d="M23.9902 19.4657C23.9902 19.4657 24.9602 12.8757 26.2202 10.2357C27.4802 7.59569 29.4602 4.81569 33.2602 4.07569C37.7902 3.19569 90.3102 3.65569 93.9502 3.88569C97.6202 4.12569 100.03 5.27569 101.41 7.53569C102.46 9.26569 102.83 11.3757 103.32 14.5057C103.58 16.1557 104.12 20.6757 104.12 20.6757L23.9902 19.4657Z" fill="#FFA828" style="fill:#FFA828;fill:color(display-p3 1.0000 0.6588 0.1569);fill-opacity:1;"/>
<path d="M50.6302 37.3156L22.4702 32.6356C22.4702 32.6356 23.0602 20.9856 24.2802 17.9356C25.5002 14.8856 27.0102 13.0656 31.4402 12.3056C35.8702 11.5456 46.9702 11.8556 63.6202 11.7056C80.2702 11.5556 94.9302 12.5656 97.5302 12.7156C100.13 12.8656 102.57 14.1456 103.33 16.5856C104.09 19.0256 104.46 22.3256 105.01 28.1956C105.21 30.3256 105.03 34.3556 105.03 34.3556L72.7602 36.5556L50.6302 37.3156Z" fill="#F1EDEC" style="fill:#F1EDEC;fill:color(display-p3 0.9451 0.9294 0.9255);fill-opacity:1;"/>
<path d="M22.2302 35.6857C22.4202 32.6357 22.4802 29.3357 24.8002 27.3657C26.7902 25.6857 30.1502 25.9957 34.1202 25.8357C37.7902 25.6957 47.1002 25.7757 64.6702 25.7757C82.2402 25.7757 97.0302 26.0357 99.7802 26.0357C102.53 26.0357 104.87 28.1857 105.17 30.1757C105.48 32.1657 104.1 116.326 103.95 118.156C103.8 119.986 103.19 123.656 99.2102 123.956C95.2402 124.266 32.7702 124.266 30.1702 123.956C27.5702 123.646 25.2802 121.356 24.8202 117.086C24.3602 112.816 22.0702 38.1257 22.2302 35.6857Z" fill="#D8CDC9" style="fill:#D8CDC9;fill:color(display-p3 0.8471 0.8039 0.7882);fill-opacity:1;"/>
<path d="M29.61 50.0259C31.91 50.3259 33.82 40.4159 36.82 38.1059C39.82 35.8059 45.43 34.5959 45.43 32.2959C45.43 31.1459 41.79 31.1559 38.42 31.1959C35.05 31.2359 32.15 30.9559 30.51 32.6959C28.71 34.5959 28.53 37.6459 28.41 40.7059C28.2 45.6159 28.19 49.8359 29.61 50.0259Z" fill="#F1EDEC" style="fill:#F1EDEC;fill:color(display-p3 0.9451 0.9294 0.9255);fill-opacity:1;"/>
<path d="M79.3398 117.656C79.3398 119.336 80.5698 119.886 87.2198 119.656C92.8398 119.466 95.6198 118.756 97.2898 116.746C98.9598 114.746 99.4198 110.546 99.4898 105.506C99.5298 102.016 99.4398 98.6562 97.6798 98.6562C95.1598 98.6562 95.1699 104.406 93.1599 107.636C89.2199 113.976 79.3398 115.416 79.3398 117.656Z" fill="#F1EDEC" style="fill:#F1EDEC;fill:color(display-p3 0.9451 0.9294 0.9255);fill-opacity:1;"/>
<path d="M84.999 45.372C86.6194 45.3721 88.1049 46.0114 89.4554 47.2902C90.8957 48.569 91.616 50.0183 91.616 51.6381C91.616 53.0874 90.8957 54.2809 89.4554 55.2187L68.1187 68.518L67.1734 67.6229L81.2178 47.4181C82.208 46.0541 83.4684 45.3721 84.999 45.372ZM75.0059 39.3617C76.7163 39.3618 78.2468 39.9159 79.5973 41.0241C81.0377 42.0472 81.7579 43.2834 81.758 44.7326C81.7579 45.5852 81.4878 46.3951 80.9477 47.1623L66.6333 67.2392L65.4179 66.7277L70.1444 42.9423C70.7745 40.5553 72.395 39.3618 75.0059 39.3617ZM92.2912 54.7071C93.8216 54.7072 95.1271 55.3892 96.2075 56.7532C97.3777 58.032 97.9629 59.4813 97.963 61.1011C97.9629 63.5734 96.7025 65.1079 94.1818 65.7047L69.064 70.1804L68.5239 69.0295L89.7254 55.4744C90.5356 54.9629 91.3909 54.7072 92.2912 54.7071ZM69.8743 41.7914C69.8742 42.1325 69.8292 42.4735 69.7392 42.8144L64.6076 66.5998H63.3923L58.1256 42.8144V41.7914C58.1256 38.8076 60.0612 37.3157 63.9324 37.3157C67.8936 37.3157 69.8742 38.8076 69.8743 41.7914ZM100.124 71.5871C100.124 75.2529 98.5481 77.0859 95.3972 77.0859H94.3169L69.1991 72.0986V70.9477L94.3169 66.0883C94.6769 66.0031 95.037 65.9605 95.3972 65.9604C98.5481 65.9605 100.124 67.836 100.124 71.5871ZM46.2419 44.7326C46.2419 43.2834 46.9171 42.0472 48.2676 41.0241C49.708 39.9159 51.2835 39.3618 52.994 39.3617C55.6948 39.3618 57.3153 40.5553 57.8555 42.9423L62.582 66.7277L61.3666 67.2392L47.0522 47.1623C46.512 46.3951 46.2419 45.5852 46.2419 44.7326ZM97.963 81.9452C97.9629 83.565 97.3777 85.057 96.2075 86.421C95.1271 87.6998 93.8216 88.3392 92.2912 88.3392C91.3909 88.3392 90.5356 88.0834 89.7254 87.5719L68.5239 74.0168L69.064 72.8659L94.1818 77.3416C96.7025 77.8531 97.9629 79.3877 97.963 81.9452ZM36.3839 51.6381C36.3838 50.1036 37.059 48.6969 38.4095 47.4181C39.7599 46.0541 41.2904 45.3721 43.0009 45.372C44.5314 45.3721 45.7918 46.0541 46.7821 47.4181L60.8265 67.6229L59.8812 68.518L38.4095 55.2187C37.059 54.2809 36.3838 53.0874 36.3839 51.6381ZM91.616 91.4082C91.616 92.9428 90.9407 94.3494 89.5904 95.6282C88.2399 96.9923 86.7094 97.6743 84.999 97.6743C83.4684 97.6743 82.208 96.9923 81.2178 95.6282L67.1734 75.4234L68.1187 74.5283L89.4554 87.8276C90.8957 88.7654 91.616 89.959 91.616 91.4082ZM81.758 98.3137C81.7579 99.763 81.0377 100.999 79.5973 102.022C78.2468 103.13 76.7163 103.685 75.0059 103.685C72.305 103.685 70.6845 102.491 70.1444 100.104L65.4179 76.3186L66.6333 75.8071L80.9477 95.884C81.4878 96.6512 81.7579 97.4611 81.758 98.3137ZM30.0369 61.1011C30.0369 59.4813 30.577 58.032 31.6574 56.7532C32.8277 55.3892 34.1782 54.7072 35.7087 54.7071C36.6089 54.7072 37.4642 54.9629 38.2745 55.4744L59.4761 69.0295L58.9359 70.1804L33.8181 65.7047C31.2973 65.1932 30.0369 63.6586 30.0369 61.1011ZM58.8008 72.0986L33.683 77.0859H32.6027C29.4517 77.0859 27.8762 75.2529 27.8762 71.5871C27.8762 67.836 29.4517 65.9605 32.6027 65.9604C32.8728 65.9605 33.2329 66.0031 33.683 66.0883L58.8008 70.9477V72.0986ZM69.8743 101.255C69.8742 104.239 67.8936 105.731 63.9324 105.731C60.0612 105.731 58.1256 104.239 58.1256 101.255V100.232L63.3923 76.4465H64.6076L69.7392 100.232C69.8292 100.658 69.8742 100.999 69.8743 101.255ZM52.994 103.685C51.2835 103.685 49.708 103.13 48.2676 102.022C46.9171 100.999 46.2419 99.763 46.2419 98.3137C46.2419 97.4611 46.512 96.6512 47.0522 95.884L61.3666 75.8071L62.582 76.3186L57.8555 100.104C57.3153 102.491 55.6948 103.685 52.994 103.685ZM35.7087 88.3392C34.1782 88.3392 32.8277 87.6998 31.6574 86.421C30.577 85.057 30.0369 83.565 30.0369 81.9452C30.0369 79.3877 31.2973 77.8531 33.8181 77.3416L58.9359 72.8659L59.4761 74.0168L38.2745 87.5719C37.4642 88.0834 36.6089 88.3392 35.7087 88.3392ZM43.0009 97.6743C41.3804 97.6743 39.8499 97.0349 38.4095 95.7561C37.059 94.4773 36.3838 93.028 36.3839 91.4082C36.3838 89.959 37.059 88.7654 38.4095 87.8276L59.8812 74.5283L60.8265 75.4234L46.7821 95.6282C45.7918 96.9923 44.5314 97.6743 43.0009 97.6743ZM90.9408 51.6381C90.9408 50.2741 90.3106 48.9953 89.0502 47.8017C87.7898 46.6082 86.4394 46.0114 84.999 46.0114C83.7385 46.0114 82.7032 46.6082 81.893 47.8017L67.7136 68.0065L89.0502 54.5793C90.3106 53.812 90.9408 52.8316 90.9408 51.6381ZM97.2878 61.1011C97.2877 59.6518 96.7926 58.3304 95.8023 57.1368C94.812 55.9433 93.6416 55.3466 92.2912 55.3465C91.661 55.3466 90.9408 55.5597 90.1306 55.9859L68.929 69.541L94.0468 65.0653C96.2074 64.6391 97.2877 63.3176 97.2878 61.1011ZM81.0828 44.7326C81.0827 43.3686 80.4525 42.2604 79.1922 41.4078C77.9317 40.4701 76.5363 40.0012 75.0059 40.0011C72.6651 40.0012 71.2697 41.0242 70.8196 43.0702L66.0931 66.8556L80.4076 46.7787C80.8576 46.0114 81.0827 45.3294 81.0828 44.7326ZM69.3341 41.7914C69.3341 39.2339 67.5335 37.9551 63.9324 37.9551C60.4213 37.9551 58.6657 39.2339 58.6658 41.7914C58.6657 42.0472 58.7108 42.3456 58.8008 42.6866L63.9324 66.472L69.1991 42.6866C69.289 42.3456 69.3341 42.0472 69.3341 41.7914ZM99.4485 71.5871C99.4484 68.177 98.098 66.472 95.3972 66.472C95.127 66.472 94.812 66.5146 94.4519 66.5998L69.3341 71.5871L94.4519 76.4465C94.812 76.5317 95.127 76.5744 95.3972 76.5743C98.098 76.5744 99.4484 74.9119 99.4485 71.5871ZM52.994 40.0011C51.4635 40.0012 50.0681 40.4701 48.8077 41.4078C47.5473 42.3456 46.9171 43.4539 46.9171 44.7326C46.9171 45.3294 47.1422 46.0114 47.5924 46.7787L61.9068 66.8556L57.1803 43.0702C56.7301 41.0242 55.3347 40.0012 52.994 40.0011ZM92.2912 87.6998C93.7316 87.6998 94.902 87.103 95.8023 85.9095C96.7926 84.7159 97.2877 83.3945 97.2878 81.9452C97.2877 79.7287 96.2074 78.4073 94.0468 77.981L68.929 73.5053L90.1306 87.0604C90.9408 87.4866 91.661 87.6998 92.2912 87.6998ZM43.0009 46.0114C41.5604 46.0114 40.21 46.6082 38.9497 47.8017C37.6892 48.9953 37.059 50.2741 37.0591 51.6381C37.059 52.8316 37.6442 53.812 38.8146 54.5793L60.2863 68.0065L46.1069 47.8017C45.2966 46.6082 44.2613 46.0114 43.0009 46.0114ZM84.999 97.0349C86.4394 97.0349 87.7898 96.4381 89.0502 95.2446C90.3106 94.051 90.9408 92.7723 90.9408 91.4082C90.9408 90.2147 90.3106 89.2343 89.0502 88.467L67.7136 75.0398L81.893 95.3725C82.7032 96.4807 83.7385 97.0349 84.999 97.0349ZM75.0059 103.045C76.5363 103.045 77.9317 102.576 79.1922 101.639C80.4525 100.701 81.0827 99.5924 81.0828 98.3137C81.0827 97.7169 80.8576 97.0349 80.4076 96.2676L66.0931 76.1907L70.8196 99.9761C71.2697 102.022 72.6651 103.045 75.0059 103.045ZM35.7087 55.3465C34.2682 55.3466 33.0528 55.9433 32.0625 57.1368C31.1622 58.3304 30.7121 59.6518 30.7121 61.1011C30.7121 63.3176 31.7924 64.6391 33.9531 65.0653L59.0709 69.541L37.8693 55.9859C37.0591 55.5597 36.3388 55.3466 35.7087 55.3465ZM58.6658 71.5871L33.548 66.5998C33.0978 66.5146 32.7827 66.472 32.6027 66.472C29.9018 66.472 28.5514 68.177 28.5514 71.5871C28.5514 74.9119 29.9018 76.5744 32.6027 76.5743C32.7827 76.5744 33.0978 76.5317 33.548 76.4465L58.6658 71.5871ZM69.3341 101.255C69.3341 101.084 69.289 100.786 69.1991 100.36L63.9324 76.5743L58.8008 100.36C58.7108 100.786 58.6657 101.084 58.6658 101.255C58.6657 103.812 60.4213 105.091 63.9324 105.091C67.5335 105.091 69.3341 103.812 69.3341 101.255ZM46.9171 98.3137C46.9171 99.6777 47.5473 100.786 48.8077 101.639C50.0681 102.576 51.4635 103.045 52.994 103.045C55.3347 103.045 56.7301 102.022 57.1803 99.9761L61.9068 76.1907L47.5924 96.2676C47.1422 97.0349 46.9171 97.7169 46.9171 98.3137ZM30.7121 81.9452C30.7121 83.3945 31.2072 84.7159 32.1976 85.9095C33.1878 87.103 34.3582 87.6998 35.7087 87.6998C36.3388 87.6998 37.0591 87.4866 37.8693 87.0604L59.0709 73.5053L33.9531 77.981C31.7924 78.4073 30.7121 79.7287 30.7121 81.9452ZM37.0591 91.4082C37.059 92.7723 37.6892 94.051 38.9497 95.2446C40.21 96.4381 41.5604 97.0349 43.0009 97.0349C44.2613 97.0349 45.2966 96.4807 46.1069 95.3725L60.2863 75.0398L38.8146 88.467C37.6442 89.2343 37.059 90.2147 37.0591 91.4082Z" fill="#F44336" style="fill:#F44336;fill:color(display-p3 0.9569 0.2627 0.2118);fill-opacity:1;"/>
<path d="M84.999 45.372C86.6194 45.3721 88.1049 46.0114 89.4554 47.2902C90.8957 48.569 91.616 50.0183 91.616 51.6381C91.616 53.0874 90.8957 54.2809 89.4554 55.2187L68.1187 68.518L67.1734 67.6229L81.2178 47.4181C82.208 46.0541 83.4684 45.3721 84.999 45.372ZM75.0059 39.3617C76.7163 39.3618 78.2468 39.9159 79.5973 41.0241C81.0377 42.0472 81.7579 43.2834 81.758 44.7326C81.7579 45.5852 81.4878 46.3951 80.9477 47.1623L66.6333 67.2392L65.4179 66.7277L70.1444 42.9423C70.7745 40.5553 72.395 39.3618 75.0059 39.3617ZM92.2912 54.7071C93.8216 54.7072 95.1271 55.3892 96.2075 56.7532C97.3777 58.032 97.9629 59.4813 97.963 61.1011C97.9629 63.5734 96.7025 65.1079 94.1818 65.7047L69.064 70.1804L68.5239 69.0295L89.7254 55.4744C90.5356 54.9629 91.3909 54.7072 92.2912 54.7071ZM69.8743 41.7914C69.8742 42.1325 69.8292 42.4735 69.7392 42.8144L64.6076 66.5998H63.3923L58.1256 42.8144V41.7914C58.1256 38.8076 60.0612 37.3157 63.9324 37.3157C67.8936 37.3157 69.8742 38.8076 69.8743 41.7914ZM100.124 71.5871C100.124 75.2529 98.5481 77.0859 95.3972 77.0859H94.3169L69.1991 72.0986V70.9477L94.3169 66.0883C94.6769 66.0031 95.037 65.9605 95.3972 65.9604C98.5481 65.9605 100.124 67.836 100.124 71.5871ZM46.2419 44.7326C46.2419 43.2834 46.9171 42.0472 48.2676 41.0241C49.708 39.9159 51.2835 39.3618 52.994 39.3617C55.6948 39.3618 57.3153 40.5553 57.8555 42.9423L62.582 66.7277L61.3666 67.2392L47.0522 47.1623C46.512 46.3951 46.2419 45.5852 46.2419 44.7326ZM97.963 81.9452C97.9629 83.565 97.3777 85.057 96.2075 86.421C95.1271 87.6998 93.8216 88.3392 92.2912 88.3392C91.3909 88.3392 90.5356 88.0834 89.7254 87.5719L68.5239 74.0168L69.064 72.8659L94.1818 77.3416C96.7025 77.8531 97.9629 79.3877 97.963 81.9452ZM36.3839 51.6381C36.3838 50.1036 37.059 48.6969 38.4095 47.4181C39.7599 46.0541 41.2904 45.3721 43.0009 45.372C44.5314 45.3721 45.7918 46.0541 46.7821 47.4181L60.8265 67.6229L59.8812 68.518L38.4095 55.2187C37.059 54.2809 36.3838 53.0874 36.3839 51.6381ZM91.616 91.4082C91.616 92.9428 90.9407 94.3494 89.5904 95.6282C88.2399 96.9923 86.7094 97.6743 84.999 97.6743C83.4684 97.6743 82.208 96.9923 81.2178 95.6282L67.1734 75.4234L68.1187 74.5283L89.4554 87.8276C90.8957 88.7654 91.616 89.959 91.616 91.4082ZM81.758 98.3137C81.7579 99.763 81.0377 100.999 79.5973 102.022C78.2468 103.13 76.7163 103.685 75.0059 103.685C72.305 103.685 70.6845 102.491 70.1444 100.104L65.4179 76.3186L66.6333 75.8071L80.9477 95.884C81.4878 96.6512 81.7579 97.4611 81.758 98.3137ZM30.0369 61.1011C30.0369 59.4813 30.577 58.032 31.6574 56.7532C32.8277 55.3892 34.1782 54.7072 35.7087 54.7071C36.6089 54.7072 37.4642 54.9629 38.2745 55.4744L59.4761 69.0295L58.9359 70.1804L33.8181 65.7047C31.2973 65.1932 30.0369 63.6586 30.0369 61.1011ZM58.8008 72.0986L33.683 77.0859H32.6027C29.4517 77.0859 27.8762 75.2529 27.8762 71.5871C27.8762 67.836 29.4517 65.9605 32.6027 65.9604C32.8728 65.9605 33.2329 66.0031 33.683 66.0883L58.8008 70.9477V72.0986ZM69.8743 101.255C69.8742 104.239 67.8936 105.731 63.9324 105.731C60.0612 105.731 58.1256 104.239 58.1256 101.255V100.232L63.3923 76.4465H64.6076L69.7392 100.232C69.8292 100.658 69.8742 100.999 69.8743 101.255ZM52.994 103.685C51.2835 103.685 49.708 103.13 48.2676 102.022C46.9171 100.999 46.2419 99.763 46.2419 98.3137C46.2419 97.4611 46.512 96.6512 47.0522 95.884L61.3666 75.8071L62.582 76.3186L57.8555 100.104C57.3153 102.491 55.6948 103.685 52.994 103.685ZM35.7087 88.3392C34.1782 88.3392 32.8277 87.6998 31.6574 86.421C30.577 85.057 30.0369 83.565 30.0369 81.9452C30.0369 79.3877 31.2973 77.8531 33.8181 77.3416L58.9359 72.8659L59.4761 74.0168L38.2745 87.5719C37.4642 88.0834 36.6089 88.3392 35.7087 88.3392ZM43.0009 97.6743C41.3804 97.6743 39.8499 97.0349 38.4095 95.7561C37.059 94.4773 36.3838 93.028 36.3839 91.4082C36.3838 89.959 37.059 88.7654 38.4095 87.8276L59.8812 74.5283L60.8265 75.4234L46.7821 95.6282C45.7918 96.9923 44.5314 97.6743 43.0009 97.6743ZM90.9408 51.6381C90.9408 50.2741 90.3106 48.9953 89.0502 47.8017C87.7898 46.6082 86.4394 46.0114 84.999 46.0114C83.7385 46.0114 82.7032 46.6082 81.893 47.8017L67.7136 68.0065L89.0502 54.5793C90.3106 53.812 90.9408 52.8316 90.9408 51.6381ZM97.2878 61.1011C97.2877 59.6518 96.7926 58.3304 95.8023 57.1368C94.812 55.9433 93.6416 55.3466 92.2912 55.3465C91.661 55.3466 90.9408 55.5597 90.1306 55.9859L68.929 69.541L94.0468 65.0653C96.2074 64.6391 97.2877 63.3176 97.2878 61.1011ZM81.0828 44.7326C81.0827 43.3686 80.4525 42.2604 79.1922 41.4078C77.9317 40.4701 76.5363 40.0012 75.0059 40.0011C72.6651 40.0012 71.2697 41.0242 70.8196 43.0702L66.0931 66.8556L80.4076 46.7787C80.8576 46.0114 81.0827 45.3294 81.0828 44.7326ZM69.3341 41.7914C69.3341 39.2339 67.5335 37.9551 63.9324 37.9551C60.4213 37.9551 58.6657 39.2339 58.6658 41.7914C58.6657 42.0472 58.7108 42.3456 58.8008 42.6866L63.9324 66.472L69.1991 42.6866C69.289 42.3456 69.3341 42.0472 69.3341 41.7914ZM99.4485 71.5871C99.4484 68.177 98.098 66.472 95.3972 66.472C95.127 66.472 94.812 66.5146 94.4519 66.5998L69.3341 71.5871L94.4519 76.4465C94.812 76.5317 95.127 76.5744 95.3972 76.5743C98.098 76.5744 99.4484 74.9119 99.4485 71.5871ZM52.994 40.0011C51.4635 40.0012 50.0681 40.4701 48.8077 41.4078C47.5473 42.3456 46.9171 43.4539 46.9171 44.7326C46.9171 45.3294 47.1422 46.0114 47.5924 46.7787L61.9068 66.8556L57.1803 43.0702C56.7301 41.0242 55.3347 40.0012 52.994 40.0011ZM92.2912 87.6998C93.7316 87.6998 94.902 87.103 95.8023 85.9095C96.7926 84.7159 97.2877 83.3945 97.2878 81.9452C97.2877 79.7287 96.2074 78.4073 94.0468 77.981L68.929 73.5053L90.1306 87.0604C90.9408 87.4866 91.661 87.6998 92.2912 87.6998ZM43.0009 46.0114C41.5604 46.0114 40.21 46.6082 38.9497 47.8017C37.6892 48.9953 37.059 50.2741 37.0591 51.6381C37.059 52.8316 37.6442 53.812 38.8146 54.5793L60.2863 68.0065L46.1069 47.8017C45.2966 46.6082 44.2613 46.0114 43.0009 46.0114ZM84.999 97.0349C86.4394 97.0349 87.7898 96.4381 89.0502 95.2446C90.3106 94.051 90.9408 92.7723 90.9408 91.4082C90.9408 90.2147 90.3106 89.2343 89.0502 88.467L67.7136 75.0398L81.893 95.3725C82.7032 96.4807 83.7385 97.0349 84.999 97.0349ZM75.0059 103.045C76.5363 103.045 77.9317 102.576 79.1922 101.639C80.4525 100.701 81.0827 99.5924 81.0828 98.3137C81.0827 97.7169 80.8576 97.0349 80.4076 96.2676L66.0931 76.1907L70.8196 99.9761C71.2697 102.022 72.6651 103.045 75.0059 103.045ZM35.7087 55.3465C34.2682 55.3466 33.0528 55.9433 32.0625 57.1368C31.1622 58.3304 30.7121 59.6518 30.7121 61.1011C30.7121 63.3176 31.7924 64.6391 33.9531 65.0653L59.0709 69.541L37.8693 55.9859C37.0591 55.5597 36.3388 55.3466 35.7087 55.3465ZM58.6658 71.5871L33.548 66.5998C33.0978 66.5146 32.7827 66.472 32.6027 66.472C29.9018 66.472 28.5514 68.177 28.5514 71.5871C28.5514 74.9119 29.9018 76.5744 32.6027 76.5743C32.7827 76.5744 33.0978 76.5317 33.548 76.4465L58.6658 71.5871ZM69.3341 101.255C69.3341 101.084 69.289 100.786 69.1991 100.36L63.9324 76.5743L58.8008 100.36C58.7108 100.786 58.6657 101.084 58.6658 101.255C58.6657 103.812 60.4213 105.091 63.9324 105.091C67.5335 105.091 69.3341 103.812 69.3341 101.255ZM46.9171 98.3137C46.9171 99.6777 47.5473 100.786 48.8077 101.639C50.0681 102.576 51.4635 103.045 52.994 103.045C55.3347 103.045 56.7301 102.022 57.1803 99.9761L61.9068 76.1907L47.5924 96.2676C47.1422 97.0349 46.9171 97.7169 46.9171 98.3137ZM30.7121 81.9452C30.7121 83.3945 31.2072 84.7159 32.1976 85.9095C33.1878 87.103 34.3582 87.6998 35.7087 87.6998C36.3388 87.6998 37.0591 87.4866 37.8693 87.0604L59.0709 73.5053L33.9531 77.981C31.7924 78.4073 30.7121 79.7287 30.7121 81.9452ZM37.0591 91.4082C37.059 92.7723 37.6892 94.051 38.9497 95.2446C40.21 96.4381 41.5604 97.0349 43.0009 97.0349C44.2613 97.0349 45.2966 96.4807 46.1069 95.3725L60.2863 75.0398L38.8146 88.467C37.6442 89.2343 37.059 90.2147 37.0591 91.4082Z" stroke="black" style="stroke:black;stroke-opacity:1;" stroke-width="4"/>
<path d="M84.999 45.372C86.6194 45.3721 88.1049 46.0114 89.4554 47.2902C90.8957 48.569 91.616 50.0183 91.616 51.6381C91.616 53.0874 90.8957 54.2809 89.4554 55.2187L68.1187 68.518L67.1734 67.6229L81.2178 47.4181C82.208 46.0541 83.4684 45.3721 84.999 45.372ZM75.0059 39.3617C76.7163 39.3618 78.2468 39.9159 79.5973 41.0241C81.0377 42.0472 81.7579 43.2834 81.758 44.7326C81.7579 45.5852 81.4878 46.3951 80.9477 47.1623L66.6333 67.2392L65.4179 66.7277L70.1444 42.9423C70.7745 40.5553 72.395 39.3618 75.0059 39.3617ZM92.2912 54.7071C93.8216 54.7072 95.1271 55.3892 96.2075 56.7532C97.3777 58.032 97.9629 59.4813 97.963 61.1011C97.9629 63.5734 96.7025 65.1079 94.1818 65.7047L69.064 70.1804L68.5239 69.0295L89.7254 55.4744C90.5356 54.9629 91.3909 54.7072 92.2912 54.7071ZM69.8743 41.7914C69.8742 42.1325 69.8292 42.4735 69.7392 42.8144L64.6076 66.5998H63.3923L58.1256 42.8144V41.7914C58.1256 38.8076 60.0612 37.3157 63.9324 37.3157C67.8936 37.3157 69.8742 38.8076 69.8743 41.7914ZM100.124 71.5871C100.124 75.2529 98.5481 77.0859 95.3972 77.0859H94.3169L69.1991 72.0986V70.9477L94.3169 66.0883C94.6769 66.0031 95.037 65.9605 95.3972 65.9604C98.5481 65.9605 100.124 67.836 100.124 71.5871ZM46.2419 44.7326C46.2419 43.2834 46.9171 42.0472 48.2676 41.0241C49.708 39.9159 51.2835 39.3618 52.994 39.3617C55.6948 39.3618 57.3153 40.5553 57.8555 42.9423L62.582 66.7277L61.3666 67.2392L47.0522 47.1623C46.512 46.3951 46.2419 45.5852 46.2419 44.7326ZM97.963 81.9452C97.9629 83.565 97.3777 85.057 96.2075 86.421C95.1271 87.6998 93.8216 88.3392 92.2912 88.3392C91.3909 88.3392 90.5356 88.0834 89.7254 87.5719L68.5239 74.0168L69.064 72.8659L94.1818 77.3416C96.7025 77.8531 97.9629 79.3877 97.963 81.9452ZM36.3839 51.6381C36.3838 50.1036 37.059 48.6969 38.4095 47.4181C39.7599 46.0541 41.2904 45.3721 43.0009 45.372C44.5314 45.3721 45.7918 46.0541 46.7821 47.4181L60.8265 67.6229L59.8812 68.518L38.4095 55.2187C37.059 54.2809 36.3838 53.0874 36.3839 51.6381ZM91.616 91.4082C91.616 92.9428 90.9407 94.3494 89.5904 95.6282C88.2399 96.9923 86.7094 97.6743 84.999 97.6743C83.4684 97.6743 82.208 96.9923 81.2178 95.6282L67.1734 75.4234L68.1187 74.5283L89.4554 87.8276C90.8957 88.7654 91.616 89.959 91.616 91.4082ZM81.758 98.3137C81.7579 99.763 81.0377 100.999 79.5973 102.022C78.2468 103.13 76.7163 103.685 75.0059 103.685C72.305 103.685 70.6845 102.491 70.1444 100.104L65.4179 76.3186L66.6333 75.8071L80.9477 95.884C81.4878 96.6512 81.7579 97.4611 81.758 98.3137ZM30.0369 61.1011C30.0369 59.4813 30.577 58.032 31.6574 56.7532C32.8277 55.3892 34.1782 54.7072 35.7087 54.7071C36.6089 54.7072 37.4642 54.9629 38.2745 55.4744L59.4761 69.0295L58.9359 70.1804L33.8181 65.7047C31.2973 65.1932 30.0369 63.6586 30.0369 61.1011ZM58.8008 72.0986L33.683 77.0859H32.6027C29.4517 77.0859 27.8762 75.2529 27.8762 71.5871C27.8762 67.836 29.4517 65.9605 32.6027 65.9604C32.8728 65.9605 33.2329 66.0031 33.683 66.0883L58.8008 70.9477V72.0986ZM69.8743 101.255C69.8742 104.239 67.8936 105.731 63.9324 105.731C60.0612 105.731 58.1256 104.239 58.1256 101.255V100.232L63.3923 76.4465H64.6076L69.7392 100.232C69.8292 100.658 69.8742 100.999 69.8743 101.255ZM52.994 103.685C51.2835 103.685 49.708 103.13 48.2676 102.022C46.9171 100.999 46.2419 99.763 46.2419 98.3137C46.2419 97.4611 46.512 96.6512 47.0522 95.884L61.3666 75.8071L62.582 76.3186L57.8555 100.104C57.3153 102.491 55.6948 103.685 52.994 103.685ZM35.7087 88.3392C34.1782 88.3392 32.8277 87.6998 31.6574 86.421C30.577 85.057 30.0369 83.565 30.0369 81.9452C30.0369 79.3877 31.2973 77.8531 33.8181 77.3416L58.9359 72.8659L59.4761 74.0168L38.2745 87.5719C37.4642 88.0834 36.6089 88.3392 35.7087 88.3392ZM43.0009 97.6743C41.3804 97.6743 39.8499 97.0349 38.4095 95.7561C37.059 94.4773 36.3838 93.028 36.3839 91.4082C36.3838 89.959 37.059 88.7654 38.4095 87.8276L59.8812 74.5283L60.8265 75.4234L46.7821 95.6282C45.7918 96.9923 44.5314 97.6743 43.0009 97.6743ZM90.9408 51.6381C90.9408 50.2741 90.3106 48.9953 89.0502 47.8017C87.7898 46.6082 86.4394 46.0114 84.999 46.0114C83.7385 46.0114 82.7032 46.6082 81.893 47.8017L67.7136 68.0065L89.0502 54.5793C90.3106 53.812 90.9408 52.8316 90.9408 51.6381ZM97.2878 61.1011C97.2877 59.6518 96.7926 58.3304 95.8023 57.1368C94.812 55.9433 93.6416 55.3466 92.2912 55.3465C91.661 55.3466 90.9408 55.5597 90.1306 55.9859L68.929 69.541L94.0468 65.0653C96.2074 64.6391 97.2877 63.3176 97.2878 61.1011ZM81.0828 44.7326C81.0827 43.3686 80.4525 42.2604 79.1922 41.4078C77.9317 40.4701 76.5363 40.0012 75.0059 40.0011C72.6651 40.0012 71.2697 41.0242 70.8196 43.0702L66.0931 66.8556L80.4076 46.7787C80.8576 46.0114 81.0827 45.3294 81.0828 44.7326ZM69.3341 41.7914C69.3341 39.2339 67.5335 37.9551 63.9324 37.9551C60.4213 37.9551 58.6657 39.2339 58.6658 41.7914C58.6657 42.0472 58.7108 42.3456 58.8008 42.6866L63.9324 66.472L69.1991 42.6866C69.289 42.3456 69.3341 42.0472 69.3341 41.7914ZM99.4485 71.5871C99.4484 68.177 98.098 66.472 95.3972 66.472C95.127 66.472 94.812 66.5146 94.4519 66.5998L69.3341 71.5871L94.4519 76.4465C94.812 76.5317 95.127 76.5744 95.3972 76.5743C98.098 76.5744 99.4484 74.9119 99.4485 71.5871ZM52.994 40.0011C51.4635 40.0012 50.0681 40.4701 48.8077 41.4078C47.5473 42.3456 46.9171 43.4539 46.9171 44.7326C46.9171 45.3294 47.1422 46.0114 47.5924 46.7787L61.9068 66.8556L57.1803 43.0702C56.7301 41.0242 55.3347 40.0012 52.994 40.0011ZM92.2912 87.6998C93.7316 87.6998 94.902 87.103 95.8023 85.9095C96.7926 84.7159 97.2877 83.3945 97.2878 81.9452C97.2877 79.7287 96.2074 78.4073 94.0468 77.981L68.929 73.5053L90.1306 87.0604C90.9408 87.4866 91.661 87.6998 92.2912 87.6998ZM43.0009 46.0114C41.5604 46.0114 40.21 46.6082 38.9497 47.8017C37.6892 48.9953 37.059 50.2741 37.0591 51.6381C37.059 52.8316 37.6442 53.812 38.8146 54.5793L60.2863 68.0065L46.1069 47.8017C45.2966 46.6082 44.2613 46.0114 43.0009 46.0114ZM84.999 97.0349C86.4394 97.0349 87.7898 96.4381 89.0502 95.2446C90.3106 94.051 90.9408 92.7723 90.9408 91.4082C90.9408 90.2147 90.3106 89.2343 89.0502 88.467L67.7136 75.0398L81.893 95.3725C82.7032 96.4807 83.7385 97.0349 84.999 97.0349ZM75.0059 103.045C76.5363 103.045 77.9317 102.576 79.1922 101.639C80.4525 100.701 81.0827 99.5924 81.0828 98.3137C81.0827 97.7169 80.8576 97.0349 80.4076 96.2676L66.0931 76.1907L70.8196 99.9761C71.2697 102.022 72.6651 103.045 75.0059 103.045ZM35.7087 55.3465C34.2682 55.3466 33.0528 55.9433 32.0625 57.1368C31.1622 58.3304 30.7121 59.6518 30.7121 61.1011C30.7121 63.3176 31.7924 64.6391 33.9531 65.0653L59.0709 69.541L37.8693 55.9859C37.0591 55.5597 36.3388 55.3466 35.7087 55.3465ZM58.6658 71.5871L33.548 66.5998C33.0978 66.5146 32.7827 66.472 32.6027 66.472C29.9018 66.472 28.5514 68.177 28.5514 71.5871C28.5514 74.9119 29.9018 76.5744 32.6027 76.5743C32.7827 76.5744 33.0978 76.5317 33.548 76.4465L58.6658 71.5871ZM69.3341 101.255C69.3341 101.084 69.289 100.786 69.1991 100.36L63.9324 76.5743L58.8008 100.36C58.7108 100.786 58.6657 101.084 58.6658 101.255C58.6657 103.812 60.4213 105.091 63.9324 105.091C67.5335 105.091 69.3341 103.812 69.3341 101.255ZM46.9171 98.3137C46.9171 99.6777 47.5473 100.786 48.8077 101.639C50.0681 102.576 51.4635 103.045 52.994 103.045C55.3347 103.045 56.7301 102.022 57.1803 99.9761L61.9068 76.1907L47.5924 96.2676C47.1422 97.0349 46.9171 97.7169 46.9171 98.3137ZM30.7121 81.9452C30.7121 83.3945 31.2072 84.7159 32.1976 85.9095C33.1878 87.103 34.3582 87.6998 35.7087 87.6998C36.3388 87.6998 37.0591 87.4866 37.8693 87.0604L59.0709 73.5053L33.9531 77.981C31.7924 78.4073 30.7121 79.7287 30.7121 81.9452ZM37.0591 91.4082C37.059 92.7723 37.6892 94.051 38.9497 95.2446C40.21 96.4381 41.5604 97.0349 43.0009 97.0349C44.2613 97.0349 45.2966 96.4807 46.1069 95.3725L60.2863 75.0398L38.8146 88.467C37.6442 89.2343 37.059 90.2147 37.0591 91.4082Z" stroke="#F44336" style="stroke:#F44336;stroke:color(display-p3 0.9569 0.2627 0.2118);stroke-opacity:1;" stroke-width="4"/>
<path d="M84.999 45.372C86.6194 45.3721 88.1049 46.0114 89.4554 47.2902C90.8957 48.569 91.616 50.0183 91.616 51.6381C91.616 53.0874 90.8957 54.2809 89.4554 55.2187L68.1187 68.518L67.1734 67.6229L81.2178 47.4181C82.208 46.0541 83.4684 45.3721 84.999 45.372ZM75.0059 39.3617C76.7163 39.3618 78.2468 39.9159 79.5973 41.0241C81.0377 42.0472 81.7579 43.2834 81.758 44.7326C81.7579 45.5852 81.4878 46.3951 80.9477 47.1623L66.6333 67.2392L65.4179 66.7277L70.1444 42.9423C70.7745 40.5553 72.395 39.3618 75.0059 39.3617ZM92.2912 54.7071C93.8216 54.7072 95.1271 55.3892 96.2075 56.7532C97.3777 58.032 97.9629 59.4813 97.963 61.1011C97.9629 63.5734 96.7025 65.1079 94.1818 65.7047L69.064 70.1804L68.5239 69.0295L89.7254 55.4744C90.5356 54.9629 91.3909 54.7072 92.2912 54.7071ZM69.8743 41.7914C69.8742 42.1325 69.8292 42.4735 69.7392 42.8144L64.6076 66.5998H63.3923L58.1256 42.8144V41.7914C58.1256 38.8076 60.0612 37.3157 63.9324 37.3157C67.8936 37.3157 69.8742 38.8076 69.8743 41.7914ZM100.124 71.5871C100.124 75.2529 98.5481 77.0859 95.3972 77.0859H94.3169L69.1991 72.0986V70.9477L94.3169 66.0883C94.6769 66.0031 95.037 65.9605 95.3972 65.9604C98.5481 65.9605 100.124 67.836 100.124 71.5871ZM46.2419 44.7326C46.2419 43.2834 46.9171 42.0472 48.2676 41.0241C49.708 39.9159 51.2835 39.3618 52.994 39.3617C55.6948 39.3618 57.3153 40.5553 57.8555 42.9423L62.582 66.7277L61.3666 67.2392L47.0522 47.1623C46.512 46.3951 46.2419 45.5852 46.2419 44.7326ZM97.963 81.9452C97.9629 83.565 97.3777 85.057 96.2075 86.421C95.1271 87.6998 93.8216 88.3392 92.2912 88.3392C91.3909 88.3392 90.5356 88.0834 89.7254 87.5719L68.5239 74.0168L69.064 72.8659L94.1818 77.3416C96.7025 77.8531 97.9629 79.3877 97.963 81.9452ZM36.3839 51.6381C36.3838 50.1036 37.059 48.6969 38.4095 47.4181C39.7599 46.0541 41.2904 45.3721 43.0009 45.372C44.5314 45.3721 45.7918 46.0541 46.7821 47.4181L60.8265 67.6229L59.8812 68.518L38.4095 55.2187C37.059 54.2809 36.3838 53.0874 36.3839 51.6381ZM91.616 91.4082C91.616 92.9428 90.9407 94.3494 89.5904 95.6282C88.2399 96.9923 86.7094 97.6743 84.999 97.6743C83.4684 97.6743 82.208 96.9923 81.2178 95.6282L67.1734 75.4234L68.1187 74.5283L89.4554 87.8276C90.8957 88.7654 91.616 89.959 91.616 91.4082ZM81.758 98.3137C81.7579 99.763 81.0377 100.999 79.5973 102.022C78.2468 103.13 76.7163 103.685 75.0059 103.685C72.305 103.685 70.6845 102.491 70.1444 100.104L65.4179 76.3186L66.6333 75.8071L80.9477 95.884C81.4878 96.6512 81.7579 97.4611 81.758 98.3137ZM30.0369 61.1011C30.0369 59.4813 30.577 58.032 31.6574 56.7532C32.8277 55.3892 34.1782 54.7072 35.7087 54.7071C36.6089 54.7072 37.4642 54.9629 38.2745 55.4744L59.4761 69.0295L58.9359 70.1804L33.8181 65.7047C31.2973 65.1932 30.0369 63.6586 30.0369 61.1011ZM58.8008 72.0986L33.683 77.0859H32.6027C29.4517 77.0859 27.8762 75.2529 27.8762 71.5871C27.8762 67.836 29.4517 65.9605 32.6027 65.9604C32.8728 65.9605 33.2329 66.0031 33.683 66.0883L58.8008 70.9477V72.0986ZM69.8743 101.255C69.8742 104.239 67.8936 105.731 63.9324 105.731C60.0612 105.731 58.1256 104.239 58.1256 101.255V100.232L63.3923 76.4465H64.6076L69.7392 100.232C69.8292 100.658 69.8742 100.999 69.8743 101.255ZM52.994 103.685C51.2835 103.685 49.708 103.13 48.2676 102.022C46.9171 100.999 46.2419 99.763 46.2419 98.3137C46.2419 97.4611 46.512 96.6512 47.0522 95.884L61.3666 75.8071L62.582 76.3186L57.8555 100.104C57.3153 102.491 55.6948 103.685 52.994 103.685ZM35.7087 88.3392C34.1782 88.3392 32.8277 87.6998 31.6574 86.421C30.577 85.057 30.0369 83.565 30.0369 81.9452C30.0369 79.3877 31.2973 77.8531 33.8181 77.3416L58.9359 72.8659L59.4761 74.0168L38.2745 87.5719C37.4642 88.0834 36.6089 88.3392 35.7087 88.3392ZM43.0009 97.6743C41.3804 97.6743 39.8499 97.0349 38.4095 95.7561C37.059 94.4773 36.3838 93.028 36.3839 91.4082C36.3838 89.959 37.059 88.7654 38.4095 87.8276L59.8812 74.5283L60.8265 75.4234L46.7821 95.6282C45.7918 96.9923 44.5314 97.6743 43.0009 97.6743ZM90.9408 51.6381C90.9408 50.2741 90.3106 48.9953 89.0502 47.8017C87.7898 46.6082 86.4394 46.0114 84.999 46.0114C83.7385 46.0114 82.7032 46.6082 81.893 47.8017L67.7136 68.0065L89.0502 54.5793C90.3106 53.812 90.9408 52.8316 90.9408 51.6381ZM97.2878 61.1011C97.2877 59.6518 96.7926 58.3304 95.8023 57.1368C94.812 55.9433 93.6416 55.3466 92.2912 55.3465C91.661 55.3466 90.9408 55.5597 90.1306 55.9859L68.929 69.541L94.0468 65.0653C96.2074 64.6391 97.2877 63.3176 97.2878 61.1011ZM81.0828 44.7326C81.0827 43.3686 80.4525 42.2604 79.1922 41.4078C77.9317 40.4701 76.5363 40.0012 75.0059 40.0011C72.6651 40.0012 71.2697 41.0242 70.8196 43.0702L66.0931 66.8556L80.4076 46.7787C80.8576 46.0114 81.0827 45.3294 81.0828 44.7326ZM69.3341 41.7914C69.3341 39.2339 67.5335 37.9551 63.9324 37.9551C60.4213 37.9551 58.6657 39.2339 58.6658 41.7914C58.6657 42.0472 58.7108 42.3456 58.8008 42.6866L63.9324 66.472L69.1991 42.6866C69.289 42.3456 69.3341 42.0472 69.3341 41.7914ZM99.4485 71.5871C99.4484 68.177 98.098 66.472 95.3972 66.472C95.127 66.472 94.812 66.5146 94.4519 66.5998L69.3341 71.5871L94.4519 76.4465C94.812 76.5317 95.127 76.5744 95.3972 76.5743C98.098 76.5744 99.4484 74.9119 99.4485 71.5871ZM52.994 40.0011C51.4635 40.0012 50.0681 40.4701 48.8077 41.4078C47.5473 42.3456 46.9171 43.4539 46.9171 44.7326C46.9171 45.3294 47.1422 46.0114 47.5924 46.7787L61.9068 66.8556L57.1803 43.0702C56.7301 41.0242 55.3347 40.0012 52.994 40.0011ZM92.2912 87.6998C93.7316 87.6998 94.902 87.103 95.8023 85.9095C96.7926 84.7159 97.2877 83.3945 97.2878 81.9452C97.2877 79.7287 96.2074 78.4073 94.0468 77.981L68.929 73.5053L90.1306 87.0604C90.9408 87.4866 91.661 87.6998 92.2912 87.6998ZM43.0009 46.0114C41.5604 46.0114 40.21 46.6082 38.9497 47.8017C37.6892 48.9953 37.059 50.2741 37.0591 51.6381C37.059 52.8316 37.6442 53.812 38.8146 54.5793L60.2863 68.0065L46.1069 47.8017C45.2966 46.6082 44.2613 46.0114 43.0009 46.0114ZM84.999 97.0349C86.4394 97.0349 87.7898 96.4381 89.0502 95.2446C90.3106 94.051 90.9408 92.7723 90.9408 91.4082C90.9408 90.2147 90.3106 89.2343 89.0502 88.467L67.7136 75.0398L81.893 95.3725C82.7032 96.4807 83.7385 97.0349 84.999 97.0349ZM75.0059 103.045C76.5363 103.045 77.9317 102.576 79.1922 101.639C80.4525 100.701 81.0827 99.5924 81.0828 98.3137C81.0827 97.7169 80.8576 97.0349 80.4076 96.2676L66.0931 76.1907L70.8196 99.9761C71.2697 102.022 72.6651 103.045 75.0059 103.045ZM35.7087 55.3465C34.2682 55.3466 33.0528 55.9433 32.0625 57.1368C31.1622 58.3304 30.7121 59.6518 30.7121 61.1011C30.7121 63.3176 31.7924 64.6391 33.9531 65.0653L59.0709 69.541L37.8693 55.9859C37.0591 55.5597 36.3388 55.3466 35.7087 55.3465ZM58.6658 71.5871L33.548 66.5998C33.0978 66.5146 32.7827 66.472 32.6027 66.472C29.9018 66.472 28.5514 68.177 28.5514 71.5871C28.5514 74.9119 29.9018 76.5744 32.6027 76.5743C32.7827 76.5744 33.0978 76.5317 33.548 76.4465L58.6658 71.5871ZM69.3341 101.255C69.3341 101.084 69.289 100.786 69.1991 100.36L63.9324 76.5743L58.8008 100.36C58.7108 100.786 58.6657 101.084 58.6658 101.255C58.6657 103.812 60.4213 105.091 63.9324 105.091C67.5335 105.091 69.3341 103.812 69.3341 101.255ZM46.9171 98.3137C46.9171 99.6777 47.5473 100.786 48.8077 101.639C50.0681 102.576 51.4635 103.045 52.994 103.045C55.3347 103.045 56.7301 102.022 57.1803 99.9761L61.9068 76.1907L47.5924 96.2676C47.1422 97.0349 46.9171 97.7169 46.9171 98.3137ZM30.7121 81.9452C30.7121 83.3945 31.2072 84.7159 32.1976 85.9095C33.1878 87.103 34.3582 87.6998 35.7087 87.6998C36.3388 87.6998 37.0591 87.4866 37.8693 87.0604L59.0709 73.5053L33.9531 77.981C31.7924 78.4073 30.7121 79.7287 30.7121 81.9452ZM37.0591 91.4082C37.059 92.7723 37.6892 94.051 38.9497 95.2446C40.21 96.4381 41.5604 97.0349 43.0009 97.0349C44.2613 97.0349 45.2966 96.4807 46.1069 95.3725L60.2863 75.0398L38.8146 88.467C37.6442 89.2343 37.059 90.2147 37.0591 91.4082Z" fill="#F44336" style="fill:#F44336;fill:color(display-p3 0.9569 0.2627 0.2118);fill-opacity:1;"/>
<path d="M84.999 45.372C86.6194 45.3721 88.1049 46.0114 89.4554 47.2902C90.8957 48.569 91.616 50.0183 91.616 51.6381C91.616 53.0874 90.8957 54.2809 89.4554 55.2187L68.1187 68.518L67.1734 67.6229L81.2178 47.4181C82.208 46.0541 83.4684 45.3721 84.999 45.372ZM75.0059 39.3617C76.7163 39.3618 78.2468 39.9159 79.5973 41.0241C81.0377 42.0472 81.7579 43.2834 81.758 44.7326C81.7579 45.5852 81.4878 46.3951 80.9477 47.1623L66.6333 67.2392L65.4179 66.7277L70.1444 42.9423C70.7745 40.5553 72.395 39.3618 75.0059 39.3617ZM92.2912 54.7071C93.8216 54.7072 95.1271 55.3892 96.2075 56.7532C97.3777 58.032 97.9629 59.4813 97.963 61.1011C97.9629 63.5734 96.7025 65.1079 94.1818 65.7047L69.064 70.1804L68.5239 69.0295L89.7254 55.4744C90.5356 54.9629 91.3909 54.7072 92.2912 54.7071ZM69.8743 41.7914C69.8742 42.1325 69.8292 42.4735 69.7392 42.8144L64.6076 66.5998H63.3923L58.1256 42.8144V41.7914C58.1256 38.8076 60.0612 37.3157 63.9324 37.3157C67.8936 37.3157 69.8742 38.8076 69.8743 41.7914ZM100.124 71.5871C100.124 75.2529 98.5481 77.0859 95.3972 77.0859H94.3169L69.1991 72.0986V70.9477L94.3169 66.0883C94.6769 66.0031 95.037 65.9605 95.3972 65.9604C98.5481 65.9605 100.124 67.836 100.124 71.5871ZM46.2419 44.7326C46.2419 43.2834 46.9171 42.0472 48.2676 41.0241C49.708 39.9159 51.2835 39.3618 52.994 39.3617C55.6948 39.3618 57.3153 40.5553 57.8555 42.9423L62.582 66.7277L61.3666 67.2392L47.0522 47.1623C46.512 46.3951 46.2419 45.5852 46.2419 44.7326ZM97.963 81.9452C97.9629 83.565 97.3777 85.057 96.2075 86.421C95.1271 87.6998 93.8216 88.3392 92.2912 88.3392C91.3909 88.3392 90.5356 88.0834 89.7254 87.5719L68.5239 74.0168L69.064 72.8659L94.1818 77.3416C96.7025 77.8531 97.9629 79.3877 97.963 81.9452ZM36.3839 51.6381C36.3838 50.1036 37.059 48.6969 38.4095 47.4181C39.7599 46.0541 41.2904 45.3721 43.0009 45.372C44.5314 45.3721 45.7918 46.0541 46.7821 47.4181L60.8265 67.6229L59.8812 68.518L38.4095 55.2187C37.059 54.2809 36.3838 53.0874 36.3839 51.6381ZM91.616 91.4082C91.616 92.9428 90.9407 94.3494 89.5904 95.6282C88.2399 96.9923 86.7094 97.6743 84.999 97.6743C83.4684 97.6743 82.208 96.9923 81.2178 95.6282L67.1734 75.4234L68.1187 74.5283L89.4554 87.8276C90.8957 88.7654 91.616 89.959 91.616 91.4082ZM81.758 98.3137C81.7579 99.763 81.0377 100.999 79.5973 102.022C78.2468 103.13 76.7163 103.685 75.0059 103.685C72.305 103.685 70.6845 102.491 70.1444 100.104L65.4179 76.3186L66.6333 75.8071L80.9477 95.884C81.4878 96.6512 81.7579 97.4611 81.758 98.3137ZM30.0369 61.1011C30.0369 59.4813 30.577 58.032 31.6574 56.7532C32.8277 55.3892 34.1782 54.7072 35.7087 54.7071C36.6089 54.7072 37.4642 54.9629 38.2745 55.4744L59.4761 69.0295L58.9359 70.1804L33.8181 65.7047C31.2973 65.1932 30.0369 63.6586 30.0369 61.1011ZM58.8008 72.0986L33.683 77.0859H32.6027C29.4517 77.0859 27.8762 75.2529 27.8762 71.5871C27.8762 67.836 29.4517 65.9605 32.6027 65.9604C32.8728 65.9605 33.2329 66.0031 33.683 66.0883L58.8008 70.9477V72.0986ZM69.8743 101.255C69.8742 104.239 67.8936 105.731 63.9324 105.731C60.0612 105.731 58.1256 104.239 58.1256 101.255V100.232L63.3923 76.4465H64.6076L69.7392 100.232C69.8292 100.658 69.8742 100.999 69.8743 101.255ZM52.994 103.685C51.2835 103.685 49.708 103.13 48.2676 102.022C46.9171 100.999 46.2419 99.763 46.2419 98.3137C46.2419 97.4611 46.512 96.6512 47.0522 95.884L61.3666 75.8071L62.582 76.3186L57.8555 100.104C57.3153 102.491 55.6948 103.685 52.994 103.685ZM35.7087 88.3392C34.1782 88.3392 32.8277 87.6998 31.6574 86.421C30.577 85.057 30.0369 83.565 30.0369 81.9452C30.0369 79.3877 31.2973 77.8531 33.8181 77.3416L58.9359 72.8659L59.4761 74.0168L38.2745 87.5719C37.4642 88.0834 36.6089 88.3392 35.7087 88.3392ZM43.0009 97.6743C41.3804 97.6743 39.8499 97.0349 38.4095 95.7561C37.059 94.4773 36.3838 93.028 36.3839 91.4082C36.3838 89.959 37.059 88.7654 38.4095 87.8276L59.8812 74.5283L60.8265 75.4234L46.7821 95.6282C45.7918 96.9923 44.5314 97.6743 43.0009 97.6743ZM90.9408 51.6381C90.9408 50.2741 90.3106 48.9953 89.0502 47.8017C87.7898 46.6082 86.4394 46.0114 84.999 46.0114C83.7385 46.0114 82.7032 46.6082 81.893 47.8017L67.7136 68.0065L89.0502 54.5793C90.3106 53.812 90.9408 52.8316 90.9408 51.6381ZM97.2878 61.1011C97.2877 59.6518 96.7926 58.3304 95.8023 57.1368C94.812 55.9433 93.6416 55.3466 92.2912 55.3465C91.661 55.3466 90.9408 55.5597 90.1306 55.9859L68.929 69.541L94.0468 65.0653C96.2074 64.6391 97.2877 63.3176 97.2878 61.1011ZM81.0828 44.7326C81.0827 43.3686 80.4525 42.2604 79.1922 41.4078C77.9317 40.4701 76.5363 40.0012 75.0059 40.0011C72.6651 40.0012 71.2697 41.0242 70.8196 43.0702L66.0931 66.8556L80.4076 46.7787C80.8576 46.0114 81.0827 45.3294 81.0828 44.7326ZM69.3341 41.7914C69.3341 39.2339 67.5335 37.9551 63.9324 37.9551C60.4213 37.9551 58.6657 39.2339 58.6658 41.7914C58.6657 42.0472 58.7108 42.3456 58.8008 42.6866L63.9324 66.472L69.1991 42.6866C69.289 42.3456 69.3341 42.0472 69.3341 41.7914ZM99.4485 71.5871C99.4484 68.177 98.098 66.472 95.3972 66.472C95.127 66.472 94.812 66.5146 94.4519 66.5998L69.3341 71.5871L94.4519 76.4465C94.812 76.5317 95.127 76.5744 95.3972 76.5743C98.098 76.5744 99.4484 74.9119 99.4485 71.5871ZM52.994 40.0011C51.4635 40.0012 50.0681 40.4701 48.8077 41.4078C47.5473 42.3456 46.9171 43.4539 46.9171 44.7326C46.9171 45.3294 47.1422 46.0114 47.5924 46.7787L61.9068 66.8556L57.1803 43.0702C56.7301 41.0242 55.3347 40.0012 52.994 40.0011ZM92.2912 87.6998C93.7316 87.6998 94.902 87.103 95.8023 85.9095C96.7926 84.7159 97.2877 83.3945 97.2878 81.9452C97.2877 79.7287 96.2074 78.4073 94.0468 77.981L68.929 73.5053L90.1306 87.0604C90.9408 87.4866 91.661 87.6998 92.2912 87.6998ZM43.0009 46.0114C41.5604 46.0114 40.21 46.6082 38.9497 47.8017C37.6892 48.9953 37.059 50.2741 37.0591 51.6381C37.059 52.8316 37.6442 53.812 38.8146 54.5793L60.2863 68.0065L46.1069 47.8017C45.2966 46.6082 44.2613 46.0114 43.0009 46.0114ZM84.999 97.0349C86.4394 97.0349 87.7898 96.4381 89.0502 95.2446C90.3106 94.051 90.9408 92.7723 90.9408 91.4082C90.9408 90.2147 90.3106 89.2343 89.0502 88.467L67.7136 75.0398L81.893 95.3725C82.7032 96.4807 83.7385 97.0349 84.999 97.0349ZM75.0059 103.045C76.5363 103.045 77.9317 102.576 79.1922 101.639C80.4525 100.701 81.0827 99.5924 81.0828 98.3137C81.0827 97.7169 80.8576 97.0349 80.4076 96.2676L66.0931 76.1907L70.8196 99.9761C71.2697 102.022 72.6651 103.045 75.0059 103.045ZM35.7087 55.3465C34.2682 55.3466 33.0528 55.9433 32.0625 57.1368C31.1622 58.3304 30.7121 59.6518 30.7121 61.1011C30.7121 63.3176 31.7924 64.6391 33.9531 65.0653L59.0709 69.541L37.8693 55.9859C37.0591 55.5597 36.3388 55.3466 35.7087 55.3465ZM58.6658 71.5871L33.548 66.5998C33.0978 66.5146 32.7827 66.472 32.6027 66.472C29.9018 66.472 28.5514 68.177 28.5514 71.5871C28.5514 74.9119 29.9018 76.5744 32.6027 76.5743C32.7827 76.5744 33.0978 76.5317 33.548 76.4465L58.6658 71.5871ZM69.3341 101.255C69.3341 101.084 69.289 100.786 69.1991 100.36L63.9324 76.5743L58.8008 100.36C58.7108 100.786 58.6657 101.084 58.6658 101.255C58.6657 103.812 60.4213 105.091 63.9324 105.091C67.5335 105.091 69.3341 103.812 69.3341 101.255ZM46.9171 98.3137C46.9171 99.6777 47.5473 100.786 48.8077 101.639C50.0681 102.576 51.4635 103.045 52.994 103.045C55.3347 103.045 56.7301 102.022 57.1803 99.9761L61.9068 76.1907L47.5924 96.2676C47.1422 97.0349 46.9171 97.7169 46.9171 98.3137ZM30.7121 81.9452C30.7121 83.3945 31.2072 84.7159 32.1976 85.9095C33.1878 87.103 34.3582 87.6998 35.7087 87.6998C36.3388 87.6998 37.0591 87.4866 37.8693 87.0604L59.0709 73.5053L33.9531 77.981C31.7924 78.4073 30.7121 79.7287 30.7121 81.9452ZM37.0591 91.4082C37.059 92.7723 37.6892 94.051 38.9497 95.2446C40.21 96.4381 41.5604 97.0349 43.0009 97.0349C44.2613 97.0349 45.2966 96.4807 46.1069 95.3725L60.2863 75.0398L38.8146 88.467C37.6442 89.2343 37.059 90.2147 37.0591 91.4082Z" stroke="black" style="stroke:black;stroke-opacity:1;" stroke-width="2"/>
<path d="M84.999 45.372C86.6194 45.3721 88.1049 46.0114 89.4554 47.2902C90.8957 48.569 91.616 50.0183 91.616 51.6381C91.616 53.0874 90.8957 54.2809 89.4554 55.2187L68.1187 68.518L67.1734 67.6229L81.2178 47.4181C82.208 46.0541 83.4684 45.3721 84.999 45.372ZM75.0059 39.3617C76.7163 39.3618 78.2468 39.9159 79.5973 41.0241C81.0377 42.0472 81.7579 43.2834 81.758 44.7326C81.7579 45.5852 81.4878 46.3951 80.9477 47.1623L66.6333 67.2392L65.4179 66.7277L70.1444 42.9423C70.7745 40.5553 72.395 39.3618 75.0059 39.3617ZM92.2912 54.7071C93.8216 54.7072 95.1271 55.3892 96.2075 56.7532C97.3777 58.032 97.9629 59.4813 97.963 61.1011C97.9629 63.5734 96.7025 65.1079 94.1818 65.7047L69.064 70.1804L68.5239 69.0295L89.7254 55.4744C90.5356 54.9629 91.3909 54.7072 92.2912 54.7071ZM69.8743 41.7914C69.8742 42.1325 69.8292 42.4735 69.7392 42.8144L64.6076 66.5998H63.3923L58.1256 42.8144V41.7914C58.1256 38.8076 60.0612 37.3157 63.9324 37.3157C67.8936 37.3157 69.8742 38.8076 69.8743 41.7914ZM100.124 71.5871C100.124 75.2529 98.5481 77.0859 95.3972 77.0859H94.3169L69.1991 72.0986V70.9477L94.3169 66.0883C94.6769 66.0031 95.037 65.9605 95.3972 65.9604C98.5481 65.9605 100.124 67.836 100.124 71.5871ZM46.2419 44.7326C46.2419 43.2834 46.9171 42.0472 48.2676 41.0241C49.708 39.9159 51.2835 39.3618 52.994 39.3617C55.6948 39.3618 57.3153 40.5553 57.8555 42.9423L62.582 66.7277L61.3666 67.2392L47.0522 47.1623C46.512 46.3951 46.2419 45.5852 46.2419 44.7326ZM97.963 81.9452C97.9629 83.565 97.3777 85.057 96.2075 86.421C95.1271 87.6998 93.8216 88.3392 92.2912 88.3392C91.3909 88.3392 90.5356 88.0834 89.7254 87.5719L68.5239 74.0168L69.064 72.8659L94.1818 77.3416C96.7025 77.8531 97.9629 79.3877 97.963 81.9452ZM36.3839 51.6381C36.3838 50.1036 37.059 48.6969 38.4095 47.4181C39.7599 46.0541 41.2904 45.3721 43.0009 45.372C44.5314 45.3721 45.7918 46.0541 46.7821 47.4181L60.8265 67.6229L59.8812 68.518L38.4095 55.2187C37.059 54.2809 36.3838 53.0874 36.3839 51.6381ZM91.616 91.4082C91.616 92.9428 90.9407 94.3494 89.5904 95.6282C88.2399 96.9923 86.7094 97.6743 84.999 97.6743C83.4684 97.6743 82.208 96.9923 81.2178 95.6282L67.1734 75.4234L68.1187 74.5283L89.4554 87.8276C90.8957 88.7654 91.616 89.959 91.616 91.4082ZM81.758 98.3137C81.7579 99.763 81.0377 100.999 79.5973 102.022C78.2468 103.13 76.7163 103.685 75.0059 103.685C72.305 103.685 70.6845 102.491 70.1444 100.104L65.4179 76.3186L66.6333 75.8071L80.9477 95.884C81.4878 96.6512 81.7579 97.4611 81.758 98.3137ZM30.0369 61.1011C30.0369 59.4813 30.577 58.032 31.6574 56.7532C32.8277 55.3892 34.1782 54.7072 35.7087 54.7071C36.6089 54.7072 37.4642 54.9629 38.2745 55.4744L59.4761 69.0295L58.9359 70.1804L33.8181 65.7047C31.2973 65.1932 30.0369 63.6586 30.0369 61.1011ZM58.8008 72.0986L33.683 77.0859H32.6027C29.4517 77.0859 27.8762 75.2529 27.8762 71.5871C27.8762 67.836 29.4517 65.9605 32.6027 65.9604C32.8728 65.9605 33.2329 66.0031 33.683 66.0883L58.8008 70.9477V72.0986ZM69.8743 101.255C69.8742 104.239 67.8936 105.731 63.9324 105.731C60.0612 105.731 58.1256 104.239 58.1256 101.255V100.232L63.3923 76.4465H64.6076L69.7392 100.232C69.8292 100.658 69.8742 100.999 69.8743 101.255ZM52.994 103.685C51.2835 103.685 49.708 103.13 48.2676 102.022C46.9171 100.999 46.2419 99.763 46.2419 98.3137C46.2419 97.4611 46.512 96.6512 47.0522 95.884L61.3666 75.8071L62.582 76.3186L57.8555 100.104C57.3153 102.491 55.6948 103.685 52.994 103.685ZM35.7087 88.3392C34.1782 88.3392 32.8277 87.6998 31.6574 86.421C30.577 85.057 30.0369 83.565 30.0369 81.9452C30.0369 79.3877 31.2973 77.8531 33.8181 77.3416L58.9359 72.8659L59.4761 74.0168L38.2745 87.5719C37.4642 88.0834 36.6089 88.3392 35.7087 88.3392ZM43.0009 97.6743C41.3804 97.6743 39.8499 97.0349 38.4095 95.7561C37.059 94.4773 36.3838 93.028 36.3839 91.4082C36.3838 89.959 37.059 88.7654 38.4095 87.8276L59.8812 74.5283L60.8265 75.4234L46.7821 95.6282C45.7918 96.9923 44.5314 97.6743 43.0009 97.6743ZM90.9408 51.6381C90.9408 50.2741 90.3106 48.9953 89.0502 47.8017C87.7898 46.6082 86.4394 46.0114 84.999 46.0114C83.7385 46.0114 82.7032 46.6082 81.893 47.8017L67.7136 68.0065L89.0502 54.5793C90.3106 53.812 90.9408 52.8316 90.9408 51.6381ZM97.2878 61.1011C97.2877 59.6518 96.7926 58.3304 95.8023 57.1368C94.812 55.9433 93.6416 55.3466 92.2912 55.3465C91.661 55.3466 90.9408 55.5597 90.1306 55.9859L68.929 69.541L94.0468 65.0653C96.2074 64.6391 97.2877 63.3176 97.2878 61.1011ZM81.0828 44.7326C81.0827 43.3686 80.4525 42.2604 79.1922 41.4078C77.9317 40.4701 76.5363 40.0012 75.0059 40.0011C72.6651 40.0012 71.2697 41.0242 70.8196 43.0702L66.0931 66.8556L80.4076 46.7787C80.8576 46.0114 81.0827 45.3294 81.0828 44.7326ZM69.3341 41.7914C69.3341 39.2339 67.5335 37.9551 63.9324 37.9551C60.4213 37.9551 58.6657 39.2339 58.6658 41.7914C58.6657 42.0472 58.7108 42.3456 58.8008 42.6866L63.9324 66.472L69.1991 42.6866C69.289 42.3456 69.3341 42.0472 69.3341 41.7914ZM99.4485 71.5871C99.4484 68.177 98.098 66.472 95.3972 66.472C95.127 66.472 94.812 66.5146 94.4519 66.5998L69.3341 71.5871L94.4519 76.4465C94.812 76.5317 95.127 76.5744 95.3972 76.5743C98.098 76.5744 99.4484 74.9119 99.4485 71.5871ZM52.994 40.0011C51.4635 40.0012 50.0681 40.4701 48.8077 41.4078C47.5473 42.3456 46.9171 43.4539 46.9171 44.7326C46.9171 45.3294 47.1422 46.0114 47.5924 46.7787L61.9068 66.8556L57.1803 43.0702C56.7301 41.0242 55.3347 40.0012 52.994 40.0011ZM92.2912 87.6998C93.7316 87.6998 94.902 87.103 95.8023 85.9095C96.7926 84.7159 97.2877 83.3945 97.2878 81.9452C97.2877 79.7287 96.2074 78.4073 94.0468 77.981L68.929 73.5053L90.1306 87.0604C90.9408 87.4866 91.661 87.6998 92.2912 87.6998ZM43.0009 46.0114C41.5604 46.0114 40.21 46.6082 38.9497 47.8017C37.6892 48.9953 37.059 50.2741 37.0591 51.6381C37.059 52.8316 37.6442 53.812 38.8146 54.5793L60.2863 68.0065L46.1069 47.8017C45.2966 46.6082 44.2613 46.0114 43.0009 46.0114ZM84.999 97.0349C86.4394 97.0349 87.7898 96.4381 89.0502 95.2446C90.3106 94.051 90.9408 92.7723 90.9408 91.4082C90.9408 90.2147 90.3106 89.2343 89.0502 88.467L67.7136 75.0398L81.893 95.3725C82.7032 96.4807 83.7385 97.0349 84.999 97.0349ZM75.0059 103.045C76.5363 103.045 77.9317 102.576 79.1922 101.639C80.4525 100.701 81.0827 99.5924 81.0828 98.3137C81.0827 97.7169 80.8576 97.0349 80.4076 96.2676L66.0931 76.1907L70.8196 99.9761C71.2697 102.022 72.6651 103.045 75.0059 103.045ZM35.7087 55.3465C34.2682 55.3466 33.0528 55.9433 32.0625 57.1368C31.1622 58.3304 30.7121 59.6518 30.7121 61.1011C30.7121 63.3176 31.7924 64.6391 33.9531 65.0653L59.0709 69.541L37.8693 55.9859C37.0591 55.5597 36.3388 55.3466 35.7087 55.3465ZM58.6658 71.5871L33.548 66.5998C33.0978 66.5146 32.7827 66.472 32.6027 66.472C29.9018 66.472 28.5514 68.177 28.5514 71.5871C28.5514 74.9119 29.9018 76.5744 32.6027 76.5743C32.7827 76.5744 33.0978 76.5317 33.548 76.4465L58.6658 71.5871ZM69.3341 101.255C69.3341 101.084 69.289 100.786 69.1991 100.36L63.9324 76.5743L58.8008 100.36C58.7108 100.786 58.6657 101.084 58.6658 101.255C58.6657 103.812 60.4213 105.091 63.9324 105.091C67.5335 105.091 69.3341 103.812 69.3341 101.255ZM46.9171 98.3137C46.9171 99.6777 47.5473 100.786 48.8077 101.639C50.0681 102.576 51.4635 103.045 52.994 103.045C55.3347 103.045 56.7301 102.022 57.1803 99.9761L61.9068 76.1907L47.5924 96.2676C47.1422 97.0349 46.9171 97.7169 46.9171 98.3137ZM30.7121 81.9452C30.7121 83.3945 31.2072 84.7159 32.1976 85.9095C33.1878 87.103 34.3582 87.6998 35.7087 87.6998C36.3388 87.6998 37.0591 87.4866 37.8693 87.0604L59.0709 73.5053L33.9531 77.981C31.7924 78.4073 30.7121 79.7287 30.7121 81.9452ZM37.0591 91.4082C37.059 92.7723 37.6892 94.051 38.9497 95.2446C40.21 96.4381 41.5604 97.0349 43.0009 97.0349C44.2613 97.0349 45.2966 96.4807 46.1069 95.3725L60.2863 75.0398L38.8146 88.467C37.6442 89.2343 37.059 90.2147 37.0591 91.4082Z" stroke="#F44336" style="stroke:#F44336;stroke:color(display-p3 0.9569 0.2627 0.2118);stroke-opacity:1;" stroke-width="2"/>
</svg>
