<svg width="128" height="129" viewBox="0 0 128 129" fill="none" xmlns="http://www.w3.org/2000/svg">
<path d="M36.1136 109.299C36.1136 109.299 40.1436 107.699 42.1536 106.159C44.0336 104.719 45.7336 102.759 46.9036 101.719C47.6636 101.029 48.3336 100.719 48.9236 100.719C49.5236 100.719 50.0536 101.029 50.5036 101.579L53.0836 104.819C54.1636 106.599 53.2436 108.929 53.2436 108.929C53.2436 108.929 55.9436 111.789 51.4436 112.769C46.8336 113.779 41.3136 114.329 41.3136 114.329C41.0236 114.379 40.6736 114.409 40.2936 114.409C38.3936 114.409 35.6936 113.719 34.8336 111.749C34.8336 111.749 33.5436 110.319 36.1136 109.299Z" fill="#4568AC" style="fill:#4568AC;fill:color(display-p3 0.2706 0.4078 0.6745);fill-opacity:1;"/>
<path d="M53.4816 104.697L69.3535 103.256C69.3635 103.256 44.0326 104.189 46.8618 89.7344C46.8618 89.7344 62.9135 90.6412 69.3535 90.6412C69.3535 90.6412 93.0175 95.2915 93.4827 106.21C93.8899 115.769 77.7563 114.715 76.4484 114.715C75.3714 114.715 74.3824 114.715 73.1824 114.715C67.8624 114.715 60.3335 113.816 54.2135 113.096C51.8635 112.816 51.8016 105.787 53.4816 104.697Z" fill="#616161" style="fill:#616161;fill:color(display-p3 0.3804 0.3804 0.3804);fill-opacity:1;"/>
<path d="M55.415 40.2187C54.325 36.4987 53.725 31.8887 54.225 29.1187C54.335 28.4987 54.495 27.9587 54.715 27.5487C55.345 26.4387 56.185 25.3687 57.175 24.4087C57.195 24.3887 57.215 24.3687 57.235 24.3587C57.455 24.1387 57.685 23.9287 57.925 23.7287C57.965 23.6987 58.005 23.6587 58.045 23.6287C58.265 23.4387 58.485 23.2587 58.715 23.0887C58.765 23.0487 58.825 23.0087 58.875 22.9687C59.095 22.7987 59.325 22.6387 59.555 22.4887C59.615 22.4487 59.675 22.4087 59.735 22.3687C59.965 22.2187 60.205 22.0687 60.445 21.9287C60.505 21.8887 60.565 21.8587 60.625 21.8187C60.875 21.6787 61.125 21.5487 61.375 21.4187C61.425 21.3887 61.485 21.3587 61.535 21.3387C61.805 21.2087 62.085 21.0787 62.365 20.9587C62.395 20.9487 62.435 20.9287 62.465 20.9187C64.015 20.2787 65.635 19.9087 67.205 19.9087C67.245 19.9087 67.285 19.9187 67.315 19.9187C67.665 19.9187 68.005 19.9387 68.345 19.9787C74.085 20.6587 77.335 24.6287 78.385 29.7887C78.765 31.6587 78.795 33.5487 78.535 34.8887C78.505 35.0487 78.245 36.2287 78.235 36.5887C78.085 37.9987 80.865 39.2687 81.255 40.8087C81.545 41.9587 79.145 42.8187 78.965 43.0287C78.055 44.1187 79.795 49.0287 73.145 49.8287C70.585 50.1387 70.345 50.0687 69.545 50.1787C67.955 50.4087 68.425 56.8587 68.425 56.8587H68.415L56.895 54.5487C56.895 54.5487 58.425 47.0987 56.775 43.8487C56.285 42.8587 55.815 41.5987 55.415 40.2187Z" fill="#FFCA28" style="fill:#FFCA28;fill:color(display-p3 1.0000 0.7922 0.1569);fill-opacity:1;"/>
<path d="M78.415 45.8785C77.495 45.9685 76.565 45.7985 75.755 45.2585C74.875 44.6585 75.425 43.9285 76.425 44.2985C77.025 44.5285 77.865 44.6085 78.625 44.4285L78.415 45.8785Z" fill="#795548" style="fill:#795548;fill:color(display-p3 0.4745 0.3333 0.2824);fill-opacity:1;"/>
<path d="M72.9152 37.5958C72.9008 36.5576 73.4354 35.7084 74.1091 35.6991C74.7828 35.6898 75.3406 36.5239 75.3549 37.5621C75.3692 38.6003 74.8347 39.4494 74.161 39.4587C73.4873 39.468 72.9295 38.6339 72.9152 37.5958Z" fill="#404040" style="fill:#404040;fill:color(display-p3 0.2510 0.2510 0.2510);fill-opacity:1;"/>
<path d="M74.9643 34.7585C76.1843 34.9885 76.3843 34.1785 75.9243 33.5885C75.5843 33.1485 74.8243 32.8385 73.4643 33.2485C72.1843 33.6385 71.7143 34.4385 71.4143 34.9385C71.1143 35.4385 71.1943 35.8885 71.5043 35.8885C71.9243 35.8985 73.4543 34.4785 74.9643 34.7585Z" fill="#6D4C41" style="fill:#6D4C41;fill:color(display-p3 0.4275 0.2980 0.2549);fill-opacity:1;"/>
<path d="M55.415 40.2187C54.325 36.4987 53.725 31.8887 54.225 29.1187C54.335 28.4987 54.495 27.9587 54.715 27.5487C55.345 26.4387 56.185 25.3687 57.175 24.4087C57.195 24.3887 57.215 24.3687 57.235 24.3587C57.455 24.1387 57.685 23.9287 57.925 23.7287C57.965 23.6987 58.005 23.6587 58.045 23.6287C58.265 23.4387 58.485 23.2587 58.715 23.0887C58.765 23.0487 58.825 23.0087 58.875 22.9687C59.095 22.7987 59.325 22.6387 59.555 22.4887C59.615 22.4487 59.675 22.4087 59.735 22.3687C59.965 22.2187 60.205 22.0687 60.445 21.9287C60.505 21.8887 60.565 21.8587 60.625 21.8187C60.875 21.6787 61.125 21.5487 61.375 21.4187C61.425 21.3887 61.485 21.3587 61.535 21.3387C61.805 21.2087 62.085 21.0787 62.365 20.9587C62.395 20.9487 62.435 20.9287 62.465 20.9187C64.015 20.2787 65.635 19.9087 67.205 19.9087C67.245 19.9087 67.285 19.9187 67.315 19.9187C67.665 19.9187 68.005 19.9387 68.345 19.9787C74.085 20.6587 77.335 24.6287 78.385 29.7887C78.765 31.6587 78.795 33.5487 78.535 34.8887C78.505 35.0487 78.245 36.2287 78.235 36.5887C78.085 37.9987 80.865 39.2687 81.255 40.8087C81.545 41.9587 79.145 42.8187 78.965 43.0287C78.055 44.1187 79.795 49.0287 73.145 49.8287C70.585 50.1387 70.345 50.0687 69.545 50.1787C67.955 50.4087 68.425 56.8587 68.425 56.8587H68.415L56.895 54.5487C56.895 54.5487 58.425 47.0987 56.775 43.8487C56.285 42.8587 55.815 41.5987 55.415 40.2187Z" fill="#70534A" style="fill:#70534A;fill:color(display-p3 0.4392 0.3255 0.2902);fill-opacity:1;"/>
<path d="M55.415 40.2187C54.325 36.4987 53.725 31.8887 54.225 29.1187C54.335 28.4987 54.495 27.9587 54.715 27.5487C55.345 26.4387 56.185 25.3687 57.175 24.4087C57.195 24.3887 57.215 24.3687 57.235 24.3587C57.455 24.1387 57.685 23.9287 57.925 23.7287C57.965 23.6987 58.005 23.6587 58.045 23.6287C58.265 23.4387 58.485 23.2587 58.715 23.0887C58.765 23.0487 58.825 23.0087 58.875 22.9687C59.095 22.7987 59.325 22.6387 59.555 22.4887C59.615 22.4487 59.675 22.4087 59.735 22.3687C59.965 22.2187 60.205 22.0687 60.445 21.9287C60.505 21.8887 60.565 21.8587 60.625 21.8187C60.875 21.6787 61.125 21.5487 61.375 21.4187C61.425 21.3887 61.485 21.3587 61.535 21.3387C61.805 21.2087 62.085 21.0787 62.365 20.9587C62.395 20.9487 62.435 20.9287 62.465 20.9187C64.015 20.2787 65.635 19.9087 67.205 19.9087C67.245 19.9087 67.285 19.9187 67.315 19.9187C67.665 19.9187 68.005 19.9387 68.345 19.9787C74.085 20.6587 77.335 24.6287 78.385 29.7887C78.765 31.6587 78.795 33.5487 78.535 34.8887C78.505 35.0487 78.245 36.2287 78.235 36.5887C78.085 37.9987 80.865 39.2687 81.255 40.8087C81.545 41.9587 79.145 42.8187 78.965 43.0287C78.055 44.1187 79.795 49.0287 73.145 49.8287C70.585 50.1387 70.345 50.0687 69.545 50.1787C67.955 50.4087 68.425 56.8587 68.425 56.8587H68.415L56.895 54.5487C56.895 54.5487 58.425 47.0987 56.775 43.8487C56.285 42.8587 55.815 41.5987 55.415 40.2187Z" fill="#F9DDBD" style="fill:#F9DDBD;fill:color(display-p3 0.9765 0.8667 0.7412);fill-opacity:1;"/>
<path d="M78.415 45.8785C77.495 45.9685 76.565 45.7985 75.755 45.2585C74.875 44.6585 75.425 43.9285 76.425 44.2985C77.025 44.5285 77.865 44.6085 78.625 44.4285L78.415 45.8785Z" fill="#1A1717" style="fill:#1A1717;fill:color(display-p3 0.1020 0.0902 0.0902);fill-opacity:1;"/>
<path d="M72.9152 37.5958C72.9008 36.5576 73.4354 35.7084 74.1091 35.6991C74.7828 35.6898 75.3406 36.5239 75.3549 37.5621C75.3692 38.6003 74.8347 39.4494 74.161 39.4587C73.4873 39.468 72.9295 38.6339 72.9152 37.5958Z" fill="#1A1717" style="fill:#1A1717;fill:color(display-p3 0.1020 0.0902 0.0902);fill-opacity:1;"/>
<path d="M74.9643 34.7585C76.1843 34.9885 76.3843 34.1785 75.9243 33.5885C75.5843 33.1485 74.8243 32.8385 73.4643 33.2485C72.1843 33.6385 71.7143 34.4385 71.4143 34.9385C71.1143 35.4385 71.1943 35.8885 71.5043 35.8885C71.9243 35.8985 73.4543 34.4785 74.9643 34.7585Z" fill="#1A1717" style="fill:#1A1717;fill:color(display-p3 0.1020 0.0902 0.0902);fill-opacity:1;"/>
<path d="M53.0747 59.9985C54.9347 53.6285 58.1047 51.9985 60.8747 51.9985C63.7547 51.9985 66.1947 53.7785 66.1947 53.7785C71.0947 57.1485 71.1047 62.2885 71.5547 69.1985C72.0147 76.1085 72.3447 90.1885 72.3447 90.1885C72.3447 90.1885 66.9047 92.4385 58.6347 92.4385H57.9847C49.3447 92.3185 46.1447 89.3285 46.1447 89.3285C46.1447 89.3285 50.7447 67.9585 53.0747 59.9985Z" fill="url(#paint0_radial_2637_21)" style=""/>
<path d="M53.0747 59.9985C54.9347 53.6285 58.1047 51.9985 60.8747 51.9985C63.7547 51.9985 66.1947 53.7785 66.1947 53.7785C71.0947 57.1485 71.1047 62.2885 71.5547 69.1985C72.0147 76.1085 72.3447 90.1885 72.3447 90.1885C72.3447 90.1885 66.9047 92.4385 58.6347 92.4385H57.9847C49.3447 92.3185 46.1447 89.3285 46.1447 89.3285C46.1447 89.3285 50.7447 67.9585 53.0747 59.9985Z" fill="url(#paint1_radial_2637_21)" style=""/>
<path d="M50.7499 76.0752C51.5298 73.1185 54.9384 62.0139 54.9693 61.9064C55.0441 61.6627 55.2899 61.5165 55.5466 61.5625L65.6471 63.5635C65.7854 63.5874 65.9067 63.68 65.9842 63.8084C66.0518 63.9359 66.0677 64.0782 66.0238 64.2144L60.9593 78.9917C62.5954 80.2116 70.6716 86.1498 73.0772 86.9144C74.7038 87.4298 77.5094 88.1141 80.7487 88.8821C83.3395 89.5046 85.6199 93.2114 86.75 95.3654C87.0869 96.0123 86.968 96.7944 86.4742 97.3075C86.1028 97.7023 85.5833 97.8712 85.0858 97.8211C84.7575 97.7881 84.4391 97.6556 84.1806 97.4285L80.8407 94.9619C80.3262 94.9805 78.8158 95.0094 76.795 94.7157C74.2987 94.354 71.9691 93.0342 71.8935 92.9864C71.0231 92.5471 66.772 91.3456 62.6582 90.178C59.59 89.3065 56.4233 88.4151 54.2904 87.7382C48.1929 85.8082 50.0499 78.7385 50.7499 76.0752Z" fill="url(#paint2_linear_2637_21)" style=""/>
<path d="M50.7499 76.0752C51.5298 73.1185 54.9384 62.0139 54.9693 61.9064C55.0441 61.6627 55.2899 61.5165 55.5466 61.5625L65.6471 63.5635C65.7854 63.5874 65.9067 63.68 65.9842 63.8084C66.0518 63.9359 66.0677 64.0782 66.0238 64.2144L60.9593 78.9917C62.5954 80.2116 70.6716 86.1498 73.0772 86.9144C74.7038 87.4298 77.5094 88.1141 80.7487 88.8821C83.3395 89.5046 85.6199 93.2114 86.75 95.3654C87.0869 96.0123 86.968 96.7944 86.4742 97.3075C86.1028 97.7023 85.5833 97.8712 85.0858 97.8211C84.7575 97.7881 84.4391 97.6556 84.1806 97.4285L80.8407 94.9619C80.3262 94.9805 78.8158 95.0094 76.795 94.7157C74.2987 94.354 71.9691 93.0342 71.8935 92.9864C71.0231 92.5471 66.772 91.3456 62.6582 90.178C59.59 89.3065 56.4233 88.4151 54.2904 87.7382C48.1929 85.8082 50.0499 78.7385 50.7499 76.0752Z" fill="url(#paint3_linear_2637_21)" style=""/>
<path d="M50.7499 76.0752C51.5298 73.1185 54.9384 62.0139 54.9693 61.9064C55.0441 61.6627 55.2899 61.5165 55.5466 61.5625L65.6471 63.5635C65.7854 63.5874 65.9067 63.68 65.9842 63.8084C66.0518 63.9359 66.0677 64.0782 66.0238 64.2144L60.9593 78.9917C62.5954 80.2116 70.6716 86.1498 73.0772 86.9144C74.7038 87.4298 77.5094 88.1141 80.7487 88.8821C83.3395 89.5046 85.6199 93.2114 86.75 95.3654C87.0869 96.0123 86.968 96.7944 86.4742 97.3075C86.1028 97.7023 85.5833 97.8712 85.0858 97.8211C84.7575 97.7881 84.4391 97.6556 84.1806 97.4285L80.8407 94.9619C80.3262 94.9805 78.8158 95.0094 76.795 94.7157C74.2987 94.354 71.9691 93.0342 71.8935 92.9864C71.0231 92.5471 66.772 91.3456 62.6582 90.178C59.59 89.3065 56.4233 88.4151 54.2904 87.7382C48.1929 85.8082 50.0499 78.7385 50.7499 76.0752Z" fill="url(#paint4_linear_2637_21)" style=""/>
<path d="M53.8914 62.3303C54.6802 59.485 57.4125 56.1015 61.293 56.4918C61.6313 56.5259 61.9864 56.5918 62.3486 56.6885C66.7818 57.8782 67.6316 62.8181 66.7681 65.9071L63.8939 75.2966L51.0172 71.7198L53.8914 62.3303Z" fill="#04A287" style="fill:#04A287;fill:color(display-p3 0.0157 0.6353 0.5294);fill-opacity:1;"/>
<path d="M53.8914 62.3303C54.6802 59.485 57.4125 56.1015 61.293 56.4918C61.6313 56.5259 61.9864 56.5918 62.3486 56.6885C66.7818 57.8782 67.6316 62.8181 66.7681 65.9071L63.8939 75.2966L51.0172 71.7198L53.8914 62.3303Z" fill="#EC6E24" style="fill:#EC6E24;fill:color(display-p3 0.9255 0.4314 0.1412);fill-opacity:1;"/>
<path d="M50.7308 28.0984C52.0308 24.4484 54.9008 23.2584 55.8408 22.9584C56.2408 21.6384 58.3008 16.6184 66.5108 17.6584C68.5108 17.9084 70.0008 18.8084 71.3108 19.5884C71.8708 19.9284 72.4108 20.2484 72.9108 20.4584C73.3108 20.6284 74.0208 20.7784 74.5908 20.5584C75.8908 20.0784 75.4008 18.0984 75.4008 18.0984C75.4008 18.0984 80.2508 18.8684 78.3508 23.6084C79.9908 24.2584 80.8108 25.9484 81.1608 27.5484C81.6408 29.7384 80.6408 31.8684 78.5608 32.8983C78.5608 32.8983 78.8508 29.3483 73.7508 29.7383C72.1708 29.8583 70.5208 30.1684 69.0308 29.6384C68.4608 29.4284 67.9208 29.0984 67.3708 28.8484C67.2508 28.8484 67.1708 28.8484 67.1708 28.8484C65.2708 29.9584 67.9908 34.4284 65.9308 37.1784C65.5208 37.7184 65.1608 37.5384 65.1608 37.5384L64.2508 36.2984C63.5608 35.4584 62.9408 34.7184 62.1308 34.9284C59.7408 35.5484 60.3408 39.8284 63.2308 40.6684C63.5208 40.7484 63.0408 45.5684 57.1208 45.7884C54.0608 45.9084 52.8908 43.3983 52.8908 43.3983C52.8908 43.3983 54.2108 43.6784 54.4508 42.5584C54.5808 41.9784 54.0208 41.2183 53.0308 40.4083C50.1808 38.0583 51.0708 35.1984 51.4508 34.3084C50.9708 33.5284 49.7108 30.9484 50.7308 28.0984Z" fill="#312D2D" style="fill:#312D2D;fill:color(display-p3 0.1922 0.1765 0.1765);fill-opacity:1;"/>
<path d="M51.421 34.3283C51.371 34.2383 52.351 36.4783 56.251 35.9583C57.861 35.8983 60.241 39.6883 57.991 42.3383C55.991 44.6783 52.871 43.4283 52.871 43.4283C52.871 43.4283 53.301 43.5383 53.911 43.2983C54.301 43.1383 54.431 42.6083 54.431 42.5883C54.561 42.0083 54.001 41.2483 53.011 40.4383C50.161 38.0783 51.051 35.2183 51.421 34.3283Z" fill="url(#paint5_radial_2637_21)" style=""/>
<path d="M50.7306 28.0983C51.4106 26.1783 52.7306 24.5283 54.5206 23.5383C54.7806 23.3883 55.4106 23.0583 55.8606 22.9583C55.6806 23.8083 55.7406 24.6983 56.1306 25.6183C56.1406 25.6483 56.6006 27.0083 57.8306 28.0683C57.0106 29.2883 56.6306 30.7583 56.2806 32.1883C55.9706 33.4383 55.6806 34.8183 56.2706 35.9583C55.5206 35.9383 54.3406 36.1983 53.0006 35.6583C51.7206 35.1383 51.0106 33.7183 50.6506 32.4183C50.2406 30.9983 50.2306 29.4883 50.7306 28.0983Z" fill="url(#paint6_radial_2637_21)" style=""/>
<path d="M56.1208 25.6183C55.0908 23.2283 56.3308 20.9483 58.2908 19.3783C60.5908 17.5483 63.6908 17.2883 66.5108 17.6483C68.5108 17.8983 70.0008 18.7983 71.3108 19.5783C71.8708 19.9183 72.4108 20.2383 72.9108 20.4483C73.3108 20.6183 74.0208 20.7683 74.5908 20.5483C75.8908 20.0683 75.4008 18.0883 75.4008 18.0883C75.4008 18.0883 80.2508 18.8583 78.3508 23.5983C79.9908 24.2483 80.8108 25.9383 81.1608 27.5383C81.6408 29.7283 80.6408 31.8583 78.5608 32.8883C78.5608 32.8883 78.8508 29.3383 73.7508 29.7283C72.1708 29.8483 70.5208 30.1583 69.0308 29.6283C67.7108 29.1483 67.2408 28.4683 65.7908 28.5983C64.2208 28.7483 62.1508 29.4183 60.5208 29.2383C57.2108 28.8683 56.1408 25.6583 56.1208 25.6183Z" fill="url(#paint7_radial_2637_21)" style=""/>
<path d="M57.9908 42.3283C59.0008 41.1683 59.2108 39.3183 60.8308 38.2683C61.1708 39.3283 61.9908 40.3183 63.2208 40.6783C63.5108 40.7583 63.0308 45.5783 57.1108 45.7983C54.0508 45.9183 52.8808 43.4083 52.8808 43.4083C52.8808 43.4083 55.9508 44.6583 57.9908 42.3283Z" fill="url(#paint8_radial_2637_21)" style=""/>
<defs>
<radialGradient id="paint0_radial_2637_21" cx="0" cy="0" r="1" gradientUnits="userSpaceOnUse" gradientTransform="translate(62.328 67.0101) rotate(180) scale(17.0361 17.0361)">
<stop offset="0.3637" stop-color="#00BFA5" style="stop-color:#00BFA5;stop-color:color(display-p3 0.0000 0.7490 0.6471);stop-opacity:1;"/>
<stop offset="0.8121" stop-color="#00B29A" style="stop-color:#00B29A;stop-color:color(display-p3 0.0000 0.6980 0.6039);stop-opacity:1;"/>
<stop offset="1" stop-color="#00AB94" style="stop-color:#00AB94;stop-color:color(display-p3 0.0000 0.6706 0.5804);stop-opacity:1;"/>
</radialGradient>
<radialGradient id="paint1_radial_2637_21" cx="0" cy="0" r="1" gradientUnits="userSpaceOnUse" gradientTransform="translate(62.3253 67.0139) rotate(180) scale(17.0361 17.0361)">
<stop offset="0.3666" stop-color="#F58B21" style="stop-color:#F58B21;stop-color:color(display-p3 0.9608 0.5451 0.1294);stop-opacity:1;"/>
<stop offset="0.6967" stop-color="#F17E22" style="stop-color:#F17E22;stop-color:color(display-p3 0.9451 0.4941 0.1333);stop-opacity:1;"/>
<stop offset="1" stop-color="#EC6E24" style="stop-color:#EC6E24;stop-color:color(display-p3 0.9255 0.4314 0.1412);stop-opacity:1;"/>
</radialGradient>
<linearGradient id="paint2_linear_2637_21" x1="67.6296" y1="91.029" x2="71.1827" y2="76.9389" gradientUnits="userSpaceOnUse">
<stop offset="0.5" stop-color="#FFCA28" style="stop-color:#FFCA28;stop-color:color(display-p3 1.0000 0.7922 0.1569);stop-opacity:1;"/>
<stop offset="1" stop-color="#FFB300" style="stop-color:#FFB300;stop-color:color(display-p3 1.0000 0.7020 0.0000);stop-opacity:1;"/>
</linearGradient>
<linearGradient id="paint3_linear_2637_21" x1="67.6296" y1="91.029" x2="71.1827" y2="76.9389" gradientUnits="userSpaceOnUse">
<stop offset="0.5" stop-color="#70534A" style="stop-color:#70534A;stop-color:color(display-p3 0.4392 0.3255 0.2902);stop-opacity:1;"/>
<stop offset="1" stop-color="#5C4037" style="stop-color:#5C4037;stop-color:color(display-p3 0.3608 0.2510 0.2157);stop-opacity:1;"/>
</linearGradient>
<linearGradient id="paint4_linear_2637_21" x1="67.6296" y1="91.029" x2="71.1827" y2="76.9389" gradientUnits="userSpaceOnUse">
<stop offset="0.5" stop-color="#F9DDBD" style="stop-color:#F9DDBD;stop-color:color(display-p3 0.9765 0.8667 0.7412);stop-opacity:1;"/>
<stop offset="1" stop-color="#FFD29C" style="stop-color:#FFD29C;stop-color:color(display-p3 1.0000 0.8235 0.6118);stop-opacity:1;"/>
</linearGradient>
<radialGradient id="paint5_radial_2637_21" cx="0" cy="0" r="1" gradientUnits="userSpaceOnUse" gradientTransform="translate(59.0149 39.7024) rotate(157.587) scale(7.73725 11.1419)">
<stop offset="0.45" stop-color="#454140" stop-opacity="0" style="stop-color:none;stop-opacity:0;"/>
<stop offset="1" stop-color="#454140" style="stop-color:#454140;stop-color:color(display-p3 0.2706 0.2549 0.2510);stop-opacity:1;"/>
</radialGradient>
<radialGradient id="paint6_radial_2637_21" cx="0" cy="0" r="1" gradientUnits="userSpaceOnUse" gradientTransform="translate(57.8081 31.942) rotate(-174.428) scale(7.8426 9.89609)">
<stop offset="0.45" stop-color="#454140" stop-opacity="0" style="stop-color:none;stop-opacity:0;"/>
<stop offset="1" stop-color="#454140" style="stop-color:#454140;stop-color:color(display-p3 0.2706 0.2549 0.2510);stop-opacity:1;"/>
</radialGradient>
<radialGradient id="paint7_radial_2637_21" cx="0" cy="0" r="1" gradientUnits="userSpaceOnUse" gradientTransform="translate(66.4524 28.9089) rotate(-173.327) scale(16.1408 12.1333)">
<stop offset="0.45" stop-color="#454140" stop-opacity="0" style="stop-color:none;stop-opacity:0;"/>
<stop offset="1" stop-color="#454140" style="stop-color:#454140;stop-color:color(display-p3 0.2706 0.2549 0.2510);stop-opacity:1;"/>
</radialGradient>
<radialGradient id="paint8_radial_2637_21" cx="0" cy="0" r="1" gradientUnits="userSpaceOnUse" gradientTransform="translate(57.2703 40.7144) rotate(163.591) scale(8.68967 5.58626)">
<stop offset="0.45" stop-color="#454140" stop-opacity="0" style="stop-color:none;stop-opacity:0;"/>
<stop offset="1" stop-color="#454140" style="stop-color:#454140;stop-color:color(display-p3 0.2706 0.2549 0.2510);stop-opacity:1;"/>
</radialGradient>
</defs>
</svg>
