<svg width="129" height="129" viewBox="0 0 129 129" fill="none" xmlns="http://www.w3.org/2000/svg">
<path d="M114.89 120.39V124.46H14.1104V120.39C14.1104 108 26.2303 100.58 42.0303 97.19C49.0404 95.67 56.7803 94.96 64.5004 94.95H64.6204C72.2804 94.95 79.9304 95.74 86.8604 97.32C102.75 100.92 114.89 108.64 114.89 120.39Z" fill="url(#paint0_linear_33_1024)" style=""/>
<path d="M73.3896 90.56H55.5996V100.54C55.5996 105.05 59.2196 108.71 63.6896 108.71H65.3096C69.7696 108.71 73.3996 105.05 73.3996 100.54L73.3896 90.56Z" fill="#5D6265" style="fill:#5D6265;fill:color(display-p3 0.3647 0.3843 0.3961);fill-opacity:1;"/>
<path d="M46.8603 67.5433C49.7819 67.5433 52.1503 65.0933 52.1503 62.0709C52.1503 59.0486 49.7819 56.5985 46.8603 56.5985C43.9387 56.5985 41.5703 59.0486 41.5703 62.0709C41.5703 65.0933 43.9387 67.5433 46.8603 67.5433Z" fill="#404040" style="fill:#404040;fill:color(display-p3 0.2510 0.2510 0.2510);fill-opacity:1;"/>
<path d="M82.1416 67.5433C85.0632 67.5433 87.4316 65.0933 87.4316 62.0709C87.4316 59.0486 85.0632 56.5985 82.1416 56.5985C79.22 56.5985 76.8516 59.0486 76.8516 62.0709C76.8516 65.0933 79.22 67.5433 82.1416 67.5433Z" fill="#404040" style="fill:#404040;fill:color(display-p3 0.2510 0.2510 0.2510);fill-opacity:1;"/>
<path d="M68.6428 71.9964C68.5248 71.9535 68.4175 71.9213 68.2994 71.9106H60.7132C60.5951 71.9213 60.4771 71.9535 60.3698 71.9964C59.683 72.2754 59.3075 72.9836 59.6294 73.7455C59.9513 74.5073 61.4643 76.6319 64.5117 76.6319C67.559 76.6319 69.072 74.4966 69.3939 73.7455C69.7051 72.9836 69.3295 72.2754 68.6428 71.9964Z" fill="#E59600" style="fill:#E59600;fill:color(display-p3 0.8980 0.5882 0.0000);fill-opacity:1;"/>
<path d="M48.2446 69.1959C50.935 69.1959 53.1161 66.938 53.1161 64.1527C53.1161 61.3674 50.935 59.1095 48.2446 59.1095C45.5541 59.1095 43.373 61.3674 43.373 64.1527C43.373 66.938 45.5541 69.1959 48.2446 69.1959Z" fill="#404040" style="fill:#404040;fill:color(display-p3 0.2510 0.2510 0.2510);fill-opacity:1;"/>
<path d="M80.7573 69.1959C83.4477 69.1959 85.6288 66.938 85.6288 64.1527C85.6288 61.3674 83.4477 59.1095 80.7573 59.1095C78.0668 59.1095 75.8857 61.3674 75.8857 64.1527C75.8857 66.938 78.0668 69.1959 80.7573 69.1959Z" fill="#404040" style="fill:#404040;fill:color(display-p3 0.2510 0.2510 0.2510);fill-opacity:1;"/>
<path d="M68.3209 73.2949C68.2136 73.252 68.1063 73.2305 67.999 73.209H61.0029C60.8956 73.2198 60.7883 73.252 60.681 73.2949C60.0479 73.5524 59.6938 74.207 59.9942 74.9044C60.2947 75.6019 61.6896 77.5655 64.4902 77.5655C67.3015 77.5655 68.6857 75.6019 68.9862 74.9044C69.2973 74.207 68.954 73.5524 68.3209 73.2949Z" fill="#E59600" style="fill:#E59600;fill:color(display-p3 0.8980 0.5882 0.0000);fill-opacity:1;"/>
<path d="M98.0944 58.3488C104.885 40.6178 100.701 27.05 98.3015 23.1581C97.3517 21.6157 95.5236 21.1872 93.8384 21.7157C89.3967 23.1153 77.407 32.9127 72.1084 46.6234" fill="#FFC022" style="fill:#FFC022;fill:color(display-p3 1.0000 0.7529 0.1333);fill-opacity:1;"/>
<path d="M98.0944 58.3488C104.885 40.6178 100.701 27.05 98.3015 23.1581C97.3517 21.6157 95.5236 21.1872 93.8384 21.7157C89.3967 23.1153 77.407 32.9127 72.1084 46.6234" fill="#5D6265" style="fill:#5D6265;fill:color(display-p3 0.3647 0.3843 0.3961);fill-opacity:1;"/>
<path d="M31.7263 58.3488C24.9353 40.6178 29.1199 27.05 31.5192 23.1581C32.469 21.6157 34.2971 21.1872 35.9823 21.7157C40.424 23.1153 52.4137 32.9127 57.7123 46.6234" fill="#FFC022" style="fill:#FFC022;fill:color(display-p3 1.0000 0.7529 0.1333);fill-opacity:1;"/>
<path d="M31.7263 58.3488C24.9353 40.6178 29.1199 27.05 31.5192 23.1581C32.469 21.6157 34.2971 21.1872 35.9823 21.7157C40.424 23.1153 52.4137 32.9127 57.7123 46.6234" fill="#5D6265" style="fill:#5D6265;fill:color(display-p3 0.3647 0.3843 0.3961);fill-opacity:1;"/>
<path d="M100.9 67.4953C99.6121 48.7694 86.8227 35.4493 65.0371 35.4493C43.2515 35.4493 30.4622 48.7694 29.1739 67.4953C28.4225 78.408 32.7882 87.6845 41.4051 93.5949C41.4051 93.5949 50.1436 100.716 65.0371 100.904C79.9306 100.716 88.6692 93.5949 88.6692 93.5949C97.279 87.6845 101.652 78.408 100.9 67.4953Z" fill="#FFC022" style="fill:#FFC022;fill:color(display-p3 1.0000 0.7529 0.1333);fill-opacity:1;"/>
<path d="M100.9 67.4953C99.6121 48.7694 86.8227 35.4493 65.0371 35.4493C43.2515 35.4493 30.4622 48.7694 29.1739 67.4953C28.4225 78.408 32.7882 87.6845 41.4051 93.5949C41.4051 93.5949 50.1436 100.716 65.0371 100.904C79.9306 100.716 88.6692 93.5949 88.6692 93.5949C97.279 87.6845 101.652 78.408 100.9 67.4953Z" fill="#5D6265" style="fill:#5D6265;fill:color(display-p3 0.3647 0.3843 0.3961);fill-opacity:1;"/>
<path d="M30.1641 59.0558L51.1352 58.5837C55.044 58.232 59.3321 58.2353 63.7417 58.2388L63.7461 58.2388C64.1792 58.2391 64.6134 58.2394 65.0486 58.2394C65.4838 58.2394 65.9181 58.2391 66.3512 58.2388L66.3555 58.2388C70.7677 58.2353 75.0583 58.232 78.9691 58.5844L98.8375 59.0316C97.7117 55.1503 96.0037 51.6227 93.7436 48.545L65.038 47.2526L35.2286 48.5947C32.9818 51.6671 31.2837 55.1858 30.1641 59.0558Z" fill="#C4C4C4" style="fill:#C4C4C4;fill:color(display-p3 0.7686 0.7686 0.7686);fill-opacity:1;"/>
<path d="M30.1641 59.0558L51.1352 58.5837C55.044 58.232 59.3321 58.2353 63.7417 58.2388L63.7461 58.2388C64.1792 58.2391 64.6134 58.2394 65.0486 58.2394C65.4838 58.2394 65.9181 58.2391 66.3512 58.2388L66.3555 58.2388C70.7677 58.2353 75.0583 58.232 78.9691 58.5844L98.8375 59.0316C97.7117 55.1503 96.0037 51.6227 93.7436 48.545L65.038 47.2526L35.2286 48.5947C32.9818 51.6671 31.2837 55.1858 30.1641 59.0558Z" fill="url(#paint1_linear_33_1024)" style=""/>
<path d="M43.795 64.9194C43.7379 61.7273 45.9801 59.1066 48.7937 59.0566C51.6072 59.0066 53.371 61.6202 53.4282 64.8122C53.4853 68.0042 51.243 70.625 48.4295 70.675C45.616 70.725 43.8521 68.1114 43.795 64.9194Z" fill="black" style="fill:black;fill-opacity:1;"/>
<path d="M86.0268 64.9192C86.0839 61.7272 83.8417 59.1065 81.0281 59.0565C78.2146 59.0065 76.4508 61.6201 76.3936 64.8121C76.3365 68.0041 78.5788 70.6249 81.3923 70.6748C84.2059 70.7248 85.9697 68.1112 86.0268 64.9192Z" fill="black" style="fill:black;fill-opacity:1;"/>
<path d="M23.7256 65.6764C23.7256 65.6764 30.2093 64.3772 37.6749 68.713" stroke="#9E9E9E" style="stroke:#9E9E9E;stroke:color(display-p3 0.6196 0.6196 0.6196);stroke-opacity:1;" stroke-width="3" stroke-miterlimit="10" stroke-linecap="round"/>
<path d="M23.7256 74.0782C23.7256 74.0782 29.2201 72.3654 36.6019 73.2678" stroke="#9E9E9E" style="stroke:#9E9E9E;stroke:color(display-p3 0.6196 0.6196 0.6196);stroke-opacity:1;" stroke-width="3" stroke-miterlimit="10" stroke-linecap="round"/>
<path d="M25.8721 82.6624C25.8721 82.6624 31.0722 78.9936 37.6753 78.3703" stroke="#9E9E9E" style="stroke:#9E9E9E;stroke:color(display-p3 0.6196 0.6196 0.6196);stroke-opacity:1;" stroke-width="3" stroke-miterlimit="10" stroke-linecap="round"/>
<path d="M105.275 64.5136C105.275 64.5136 98.7078 63.5798 91.3262 67.64" stroke="#9E9E9E" style="stroke:#9E9E9E;stroke:color(display-p3 0.6196 0.6196 0.6196);stroke-opacity:1;" stroke-width="3" stroke-miterlimit="10" stroke-linecap="round"/>
<path d="M105.276 73.0051C105.276 73.0051 99.7153 71.0822 92.3994 72.3846" stroke="#9E9E9E" style="stroke:#9E9E9E;stroke:color(display-p3 0.6196 0.6196 0.6196);stroke-opacity:1;" stroke-width="3" stroke-miterlimit="10" stroke-linecap="round"/>
<path d="M104.202 80.5162C104.202 80.5162 98.4677 77.6102 91.3262 77.2972" stroke="#9E9E9E" style="stroke:#9E9E9E;stroke:color(display-p3 0.6196 0.6196 0.6196);stroke-opacity:1;" stroke-width="3" stroke-miterlimit="10" stroke-linecap="round"/>
<path d="M59.1693 71.3238C59.1336 69.2815 62.0685 68.296 64.8463 68.2532C67.6242 68.2032 70.6091 69.1101 70.6448 71.1524C70.6805 73.1947 67.1743 75.894 64.9677 75.894C62.7612 75.894 59.205 73.3661 59.1693 71.3238Z" fill="black" style="fill:black;fill-opacity:1;"/>
<path d="M65.9108 78.593C67.7172 80.3475 70.4859 80.8879 74.6907 79.4517C77.2078 78.593 79.288 76.4165 80.6575 74.5954C81.1683 73.9217 82.2566 74.3807 82.1307 75.2172C81.9012 76.7126 81.5459 78.3709 80.9907 79.4517C79.5323 82.2871 76.5119 84.9151 69.6863 84.2192C67.8134 84.0268 65.9256 84.0342 64.0601 84.3007C57.353 85.2705 53.8884 84.9966 51.9859 84.3525C51.1271 84.0564 51.3048 82.8053 52.2079 82.7683C54.1105 82.6942 56.8126 82.4869 59.1001 81.8429C61.2025 81.2507 63.0681 80.4659 63.5789 79.3481C64.0897 78.2302 65.4889 78.1784 65.9108 78.593Z" fill="black" style="fill:black;fill-opacity:1;"/>
<path d="M65.0815 79.4518C64.5114 77.9194 64.2005 76.2833 64.1709 74.6473" stroke="black" style="stroke:black;stroke-opacity:1;" stroke-width="4" stroke-miterlimit="10" stroke-linecap="round"/>
<path d="M85.0199 42.0746C83.9202 41.1534 83.9487 39.6681 84.5914 38.3898C86.1339 35.3121 89.8258 32.1201 91.1326 31.0846C93.2748 29.3851 94.9315 28.8138 95.5671 31.5488C96.7454 36.6046 96.6525 43.4671 95.3886 47.2518C94.9458 48.5871 93.5748 49.2941 92.5179 48.3729L85.0199 42.0746Z" fill="#FFD1D1" style="fill:#FFD1D1;fill:color(display-p3 1.0000 0.8196 0.8196);fill-opacity:1;"/>
<path d="M44.8014 42.0746C45.9011 41.1534 45.8726 39.6681 45.2299 38.3898C43.6874 35.3121 39.9955 32.1201 38.6887 31.0846C36.5464 29.3851 34.8897 28.8138 34.2542 31.5488C33.0759 36.6046 33.1688 43.4671 34.4327 47.2518C34.8755 48.5871 36.2465 49.2941 37.3034 48.3729L44.8014 42.0746Z" fill="#FFD1D1" style="fill:#FFD1D1;fill:color(display-p3 1.0000 0.8196 0.8196);fill-opacity:1;"/>
<path fill-rule="evenodd" clip-rule="evenodd" d="M96.2304 100.107V124.46H84.8057V96.8788C85.4969 97.0183 86.1819 97.1654 86.86 97.32C90.1716 98.0702 93.3204 98.9995 96.2304 100.107ZM45.2675 96.5538V124.46H33.8428V99.4391C36.417 98.5529 39.1629 97.8051 42.03 97.19C43.0932 96.9594 44.1733 96.7475 45.2675 96.5538Z" fill="#593925" style="fill:#593925;fill:color(display-p3 0.3500 0.2252 0.1444);fill-opacity:1;"/>
<path d="M92.8402 104.482C91.1797 104.121 88.523 104.256 86.5778 105.024C86.6253 102.947 86.483 101.547 86.483 101.547H68.4551H50.5221C50.5221 101.547 47.9128 124.489 68.4551 124.489C75.4765 124.489 79.7937 121.869 82.4504 118.392C92.6029 116.676 95.5443 112.431 96.256 109.585C96.9676 106.56 94.8327 104.889 92.8402 104.482ZM93.0774 109.902C92.7927 110.398 90.3732 113.605 85.5341 113.966C85.5341 113.966 87.242 106.966 90.8476 106.876C94.4532 106.876 93.362 109.45 93.0774 109.902Z" fill="url(#paint2_radial_33_1024)" style=""/>
<path d="M86.5783 102.496C86.5783 107.097 78.4658 110.845 68.4556 110.845C58.4454 110.845 50.4277 107.097 50.4277 102.496C50.4277 97.8937 58.4454 94.1932 68.4556 94.1932C78.4658 94.1932 86.5783 97.8937 86.5783 102.496Z" fill="url(#paint3_linear_33_1024)" style=""/>
<g opacity="0.2">
<path opacity="0.2" d="M68.4546 95.7555C78.2276 95.7555 84.3001 98.7295 85.1067 101.566C85.1541 101.795 85.2015 102.07 85.2015 102.161C85.2015 102.298 85.1541 103.717 85.1541 104.586C85.1541 105.044 85.3439 105.501 85.7708 105.73C86.0081 105.913 86.2927 105.959 86.5774 105.959C86.7671 105.959 86.9094 105.913 87.0992 105.867C88.1429 105.455 89.5662 105.227 90.8946 105.227C91.5113 105.227 92.0806 105.272 92.555 105.364C93.409 105.547 94.168 106.05 94.595 106.645C94.9745 107.24 95.0694 107.972 94.8797 108.841C94.3578 111.083 92.0332 115.109 82.2602 116.802C81.8332 116.985 81.5011 117.168 81.3113 117.443C78.5123 121.194 74.1951 123.116 68.4546 123.116C63.5681 123.116 59.6779 121.744 56.9263 118.953C51.9923 114.057 51.7551 106.05 51.85 102.802V102.71C51.85 102.07 51.8974 101.612 51.8974 101.475C52.8463 98.2262 59.9151 95.7555 68.4546 95.7555ZM68.4546 94.3829C59.2035 94.3829 51.5653 97.0824 50.5216 101.246C50.5216 101.246 50.4267 101.795 50.4267 102.756C50.237 107.697 50.8537 124.489 68.4546 124.489C75.476 124.489 79.7932 121.789 82.4499 118.221C92.555 116.482 95.5438 112.135 96.208 109.207C96.9197 106.233 94.7848 104.494 92.7922 104.083C92.2229 103.945 91.5587 103.9 90.7997 103.9C89.3764 103.9 87.8108 104.128 86.4825 104.632C86.5299 103.762 86.5299 102.298 86.5299 102.161C86.5299 101.841 86.435 101.246 86.435 101.246C85.4388 97.1739 77.7057 94.3829 68.4546 94.3829Z" fill="#424242" style="fill:#424242;fill:color(display-p3 0.2588 0.2588 0.2588);fill-opacity:1;"/>
</g>
<path d="M83.9687 106.338C80.9324 108.71 75.0971 110.228 68.5027 110.228C61.9557 110.228 56.1204 108.758 52.9893 106.386C53.5111 102.638 60.2478 99.6964 68.5027 99.6964C76.6627 99.6964 83.3994 102.638 83.9687 106.338Z" fill="url(#paint4_linear_33_1024)" style=""/>
<path opacity="0.58" d="M63.901 99.0323C63.4266 100.645 64.9447 102.448 65.8936 103.302C65.9884 103.397 65.8936 103.587 65.7987 103.539C64.6601 103.255 62.5726 102.685 61.861 100.408C61.434 99.0323 62.0508 97.5616 63.3317 95.4268C64.0433 94.1458 64.4229 92.9598 64.5177 91.584C64.6126 90.1133 64.2805 89.0221 63.6638 88.3105C63.5689 88.2156 63.6638 88.0258 63.8061 88.0733C64.8973 88.6426 66.1308 89.7337 66.4154 91.4891C66.7001 94.5254 64.755 96.1384 63.901 99.0323Z" fill="#D7CCC8" style="fill:#D7CCC8;fill:color(display-p3 0.8431 0.8000 0.7843);fill-opacity:1;"/>
<path opacity="0.58" d="M70.1628 98.4156C69.0242 100.835 70.9693 104.014 72.2028 105.579C72.3451 105.769 72.1554 106.006 71.9656 105.911C70.2103 105.2 67.174 103.824 66.6047 100.076C66.2726 97.8463 67.6484 95.664 70.1154 92.6277C71.5861 90.8249 72.44 89.0221 72.9144 86.8873C73.4363 84.6575 73.1516 82.8547 72.3926 81.5738C72.2502 81.384 72.4875 81.1468 72.6772 81.2891C74.1954 82.4752 75.8558 84.4677 75.9033 87.2668V87.3142C75.666 92.0584 72.2502 94.051 70.1628 98.4156Z" fill="#D7CCC8" style="fill:#D7CCC8;fill:color(display-p3 0.8431 0.8000 0.7843);fill-opacity:1;"/>
<path d="M93.1101 123.984C93.1101 123.984 87.4301 122.774 88.1001 119.484C88.2601 118.704 89.6601 117.044 89.6601 117.044C89.6601 117.044 86.8101 114.694 87.2601 113.104C87.7101 111.534 90.4301 110.314 90.4301 110.314C90.4301 110.314 88.3201 109.054 89.1501 106.684C89.7201 105.064 92.6801 104.524 92.6801 104.524C92.6801 104.524 89.9201 100.474 95.5301 99.5542C97.3001 99.2642 101.27 99.8542 104.83 102.484C108.39 105.114 110.02 106.694 111.66 110.154C114.16 115.404 109.74 124.404 106.35 124.484C103.52 124.544 93.1101 123.984 93.1101 123.984Z" fill="url(#paint5_linear_33_1024)" style=""/>
<path d="M100.282 54.3232C100.282 54.3232 99.6914 53.3034 88.7313 52.2836C74.1388 50.9257 68.9022 54.9821 67.9168 55.8988L67.8137 55.893C66.7194 55.8243 65.6824 55.7555 64.5365 55.7555C64.5193 55.7555 64.5021 55.7555 64.4849 55.7555C63.9235 55.7613 62.8063 55.8185 61.8552 55.8758C60.801 54.9076 55.5301 50.9372 41.0693 52.2836C30.1149 53.3034 29.5248 54.3232 29.5248 54.3232L29.4561 58.4597C29.4561 58.4597 31.0889 58.9238 32.1488 60.2358C33.203 61.5306 33.6957 68.7839 35.4088 72.1929C38.0615 77.4867 51.2503 76.1461 51.2503 76.1461C51.2503 76.1461 56.6301 76.57 59.2541 72.0382C61.6318 67.9417 62.5141 62.201 62.6573 61.1525C63.2016 60.8374 63.912 60.591 64.8172 60.5796C65.8313 60.591 66.6048 60.9004 67.172 61.2671C67.361 62.5619 68.2605 68.0735 70.558 72.0324C73.182 76.5586 78.5618 76.1403 78.5618 76.1403C78.5618 76.1403 91.7506 77.481 94.4033 72.1871C96.1164 68.7725 96.6091 61.5249 97.6633 60.2301C98.7175 58.9181 100.356 58.454 100.356 58.454L100.282 54.3232ZM58.2286 65.7359C57.1858 70.5715 55.8738 73.8658 46.9304 73.3559C41.1725 73.0293 37.1677 73.0408 36.2453 64.6417C35.6781 59.4223 36.3083 57.4514 36.738 56.8212C37.162 56.1967 38.7031 54.3862 47.6122 54.7013C56.5212 55.0164 57.7989 57.016 58.3202 57.9212C58.3431 57.9556 58.3603 57.9957 58.3832 58.0358L58.7614 59.2848C58.9734 60.528 58.9275 62.5218 58.2286 65.7359ZM93.5611 64.6417C92.6444 73.0408 88.6396 73.0293 82.8817 73.3559C73.9383 73.8658 72.6263 70.5715 71.5835 65.7359C70.5351 60.9119 70.959 58.8207 71.4861 57.9212C72.0075 57.016 73.2851 55.0107 82.1942 54.7013C91.109 54.3862 92.6444 56.1967 93.0684 56.8212C93.4923 57.4514 94.1283 59.4223 93.5611 64.6417Z" fill="#272727" style="fill:#272727;fill:color(display-p3 0.1542 0.1542 0.1542);fill-opacity:1;"/>
<defs>
<linearGradient id="paint0_linear_33_1024" x1="64.5004" y1="94.7414" x2="64.5004" y2="122.5" gradientUnits="userSpaceOnUse">
<stop stop-color="#94775C" style="stop-color:#94775C;stop-color:color(display-p3 0.5792 0.4650 0.3596);stop-opacity:1;"/>
<stop offset="1" stop-color="#724D38" style="stop-color:#724D38;stop-color:color(display-p3 0.4458 0.3034 0.2211);stop-opacity:1;"/>
</linearGradient>
<linearGradient id="paint1_linear_33_1024" x1="63.4693" y1="78.4708" x2="63.4693" y2="47.2526" gradientUnits="userSpaceOnUse">
<stop stop-color="#E9333A" style="stop-color:#E9333A;stop-color:color(display-p3 0.9125 0.2015 0.2287);stop-opacity:1;"/>
<stop offset="1" stop-color="#FF575E" style="stop-color:#FF575E;stop-color:color(display-p3 1.0000 0.3417 0.3669);stop-opacity:1;"/>
</linearGradient>
<radialGradient id="paint2_radial_33_1024" cx="0" cy="0" r="1" gradientUnits="userSpaceOnUse" gradientTransform="translate(68.4779 108.97) scale(20.1077 18.7871)">
<stop offset="0.00509" stop-color="white" style="stop-color:white;stop-opacity:1;"/>
<stop offset="0.2759" stop-color="#FBFBFB" style="stop-color:#FBFBFB;stop-color:color(display-p3 0.9843 0.9843 0.9843);stop-opacity:1;"/>
<stop offset="0.5646" stop-color="#EEEEEE" style="stop-color:#EEEEEE;stop-color:color(display-p3 0.9333 0.9333 0.9333);stop-opacity:1;"/>
<stop offset="0.8606" stop-color="#D9D9D9" style="stop-color:#D9D9D9;stop-color:color(display-p3 0.8510 0.8510 0.8510);stop-opacity:1;"/>
<stop offset="0.9998" stop-color="#CCCCCC" style="stop-color:#CCCCCC;stop-color:color(display-p3 0.8000 0.8000 0.8000);stop-opacity:1;"/>
</radialGradient>
<linearGradient id="paint3_linear_33_1024" x1="68.503" y1="91.425" x2="68.503" y2="103.173" gradientUnits="userSpaceOnUse">
<stop offset="0.00509" stop-color="white" style="stop-color:white;stop-opacity:1;"/>
<stop offset="0.2759" stop-color="#FBFBFB" style="stop-color:#FBFBFB;stop-color:color(display-p3 0.9843 0.9843 0.9843);stop-opacity:1;"/>
<stop offset="0.5646" stop-color="#EEEEEE" style="stop-color:#EEEEEE;stop-color:color(display-p3 0.9333 0.9333 0.9333);stop-opacity:1;"/>
<stop offset="0.8606" stop-color="#D9D9D9" style="stop-color:#D9D9D9;stop-color:color(display-p3 0.8510 0.8510 0.8510);stop-opacity:1;"/>
<stop offset="0.9998" stop-color="#CCCCCC" style="stop-color:#CCCCCC;stop-color:color(display-p3 0.8000 0.8000 0.8000);stop-opacity:1;"/>
</linearGradient>
<linearGradient id="paint4_linear_33_1024" x1="68.479" y1="109.935" x2="68.479" y2="100.106" gradientUnits="userSpaceOnUse">
<stop offset="0.00510002" stop-color="#16110E" style="stop-color:#16110E;stop-color:color(display-p3 0.0863 0.0667 0.0549);stop-opacity:1;"/>
<stop offset="0.1824" stop-color="#211611" style="stop-color:#211611;stop-color:color(display-p3 0.1294 0.0863 0.0667);stop-opacity:1;"/>
<stop offset="0.4957" stop-color="#3F241A" style="stop-color:#3F241A;stop-color:color(display-p3 0.2471 0.1412 0.1020);stop-opacity:1;"/>
<stop offset="0.9058" stop-color="#6F3A28" style="stop-color:#6F3A28;stop-color:color(display-p3 0.4353 0.2275 0.1569);stop-opacity:1;"/>
<stop offset="0.9998" stop-color="#7B402B" style="stop-color:#7B402B;stop-color:color(display-p3 0.4824 0.2510 0.1686);stop-opacity:1;"/>
</linearGradient>
<linearGradient id="paint5_linear_33_1024" x1="87.2167" y1="111.98" x2="112.4" y2="111.98" gradientUnits="userSpaceOnUse">
<stop stop-color="#80858A" style="stop-color:#80858A;stop-color:color(display-p3 0.5033 0.5225 0.5417);stop-opacity:1;"/>
<stop offset="0.5" stop-color="#B0B1B2" style="stop-color:#B0B1B2;stop-color:color(display-p3 0.6902 0.6941 0.6980);stop-opacity:1;"/>
</linearGradient>
</defs>
</svg>
