<svg width="128" height="128" viewBox="0 0 128 128" fill="none" xmlns="http://www.w3.org/2000/svg">
<path d="M116.3 110.26C110.27 114.98 99.1501 109.93 99.1501 109.93L86.4101 105.52L19.9401 63.2199L10.9601 51.6199C10.9601 51.6199 3.21008 44.6499 3.28008 38.5499C3.35007 32.4899 6.55008 29.5699 11.6101 29.0799C16.6701 28.5899 25.4901 30.5499 25.4901 30.5499C25.4901 30.5499 28.0601 22.2499 32.9801 18.7699C33.1101 18.6799 33.1001 18.0499 33.2301 17.9699C34.4501 17.1899 35.6301 16.8199 37.2701 16.9499C38.9201 17.0799 40.4101 17.4099 41.6701 17.8399C42.7601 18.2099 43.7001 19.3599 44.5201 19.8499C47.5801 21.6599 48.8501 23.1999 48.8501 23.1999L62.9001 19.7699L68.7701 15.0999C68.7701 15.0999 71.1301 14.2399 74.1301 15.0199C76.8201 15.7199 78.2701 16.9099 78.9701 17.4799C79.2701 17.7299 82.4901 31.1999 82.4901 31.1999L105.03 34.2999C105.03 34.2999 106.99 35.1199 108.62 37.7299C110.25 40.3399 110.83 44.8299 110.83 44.8299L108.13 60.5899L120.14 67.2799C120.14 67.2799 121.73 68.8299 122.88 71.9299C124.02 75.0299 123.85 77.5299 123.78 78.8699C123.72 79.8999 114.67 88.3699 114.67 88.3699L120.22 102.42C120.22 102.43 120.06 107.33 116.3 110.26Z" fill="#FFE5B2" style="fill:#FFE5B2;fill:color(display-p3 1.0000 0.8980 0.6980);fill-opacity:1;"/>
<path d="M72.82 50.9402C89.89 61.2602 91.77 77.4002 91.11 88.0102C90.45 98.6202 87.68 106.14 87.68 106.14C87.68 106.14 67.43 102.87 47.17 88.8302C26.91 74.7902 19.89 63.1902 19.89 63.1902C19.89 63.1902 28.1 53.1502 39.98 47.3502C53.16 40.9102 65.8 46.6902 72.82 50.9402Z" fill="#FACE90" style="fill:#FACE90;fill:color(display-p3 0.9804 0.8078 0.5647);fill-opacity:1;"/>
<path d="M33.1899 17.9399C33.1899 17.9399 38.5999 34.6199 28.7499 38.9199C15.9099 44.5299 11.5799 29.0499 11.5799 29.0499C11.5799 29.0499 17.4499 28.3199 20.8999 26.6299C26.9799 23.6499 33.1899 17.9399 33.1899 17.9399Z" fill="#FACE90" style="fill:#FACE90;fill:color(display-p3 0.9804 0.8078 0.5647);fill-opacity:1;"/>
<path d="M68.96 15.0801C68.96 15.0801 68.71 30.6101 55.42 32.4701C42.13 34.3301 41.63 17.8101 41.63 17.8101C41.63 17.8101 45.72 19.8001 52.68 19.8001C58.52 19.8001 60.63 17.5601 63.36 16.4501C66.89 15.0101 68.96 15.0801 68.96 15.0801Z" fill="#FACE90" style="fill:#FACE90;fill:color(display-p3 0.9804 0.8078 0.5647);fill-opacity:1;"/>
<path d="M104.95 34.2098C104.95 34.2098 94.1099 48.0398 81.4599 39.3598C70.7799 32.0298 78.9399 17.5098 78.9399 17.5098C78.9399 17.5098 85.81 26.3698 89.4 28.3098C96.21 31.9798 104.95 34.2098 104.95 34.2098Z" fill="#FACE90" style="fill:#FACE90;fill:color(display-p3 0.9804 0.8078 0.5647);fill-opacity:1;"/>
<path d="M110.69 44.02C110.69 44.02 95.0299 54 100.74 64.07C106.45 74.13 120.13 67.25 120.13 67.25C120.13 67.25 112.68 62.16 111.19 58.56C109.7 54.96 111.93 48.49 110.69 44.02Z" fill="#FACE90" style="fill:#FACE90;fill:color(display-p3 0.9804 0.8078 0.5647);fill-opacity:1;"/>
<path d="M108.16 88.1298C107.75 94.4798 117.37 100.67 120.16 102.4C120.78 98.4098 118.77 94.0798 119.27 89.8598C119.78 85.5998 124.06 82.3598 123.73 78.8398C119.99 79.0198 108.7 79.8098 108.16 88.1298Z" fill="#FACE90" style="fill:#FACE90;fill:color(display-p3 0.9804 0.8078 0.5647);fill-opacity:1;"/>
<path d="M32.883 45.3294C33.3727 47.0711 30.9004 49.4809 27.3642 52.2628C23.9755 54.9317 22.0392 56.4504 20.9102 55.3885C19.4387 54.0046 22.5585 50.0305 25.0741 48.0273C27.6011 46.0119 32.2521 43.0663 32.883 45.3294Z" fill="white" style="fill:white;fill-opacity:1;"/>
</svg>
