<svg width="128" height="128" viewBox="0 0 128 128" fill="none" xmlns="http://www.w3.org/2000/svg">
<path d="M63.6 118.8C35.7 118.8 5.59998 101.3 5.59998 62.9C5.59998 24.5 35.7 7 63.6 7C79.1 7 93.4 12.1 104 21.4C115.5 31.6 121.6 46 121.6 62.9C121.6 79.8 115.5 94.1 104 104.3C93.4 113.6 79 118.8 63.6 118.8Z" fill="url(#paint0_radial_169_10621)" style=""/>
<path d="M63.6 118.8C35.7 118.8 5.59998 101.3 5.59998 62.9C5.59998 24.5 35.7 7 63.6 7C79.1 7 93.4 12.1 104 21.4C115.5 31.6 121.6 46 121.6 62.9C121.6 79.8 115.5 94.1 104 104.3C93.4 113.6 79 118.8 63.6 118.8Z" fill="url(#paint1_radial_169_10621)" style=""/>
<path d="M63.6 118.8C35.7 118.8 5.59998 101.3 5.59998 62.9C5.59998 24.5 35.7 7 63.6 7C79.1 7 93.4 12.1 104 21.4C115.5 31.6 121.6 46 121.6 62.9C121.6 79.8 115.5 94.1 104 104.3C93.4 113.6 79 118.8 63.6 118.8Z" fill="url(#paint2_radial_169_10621)" style=""/>
<path d="M63.6 118.8C35.7 118.8 5.59998 101.3 5.59998 62.9C5.59998 24.5 35.7 7 63.6 7C79.1 7 93.4 12.1 104 21.4C115.5 31.6 121.6 46 121.6 62.9C121.6 79.8 115.5 94.1 104 104.3C93.4 113.6 79 118.8 63.6 118.8Z" fill="url(#paint3_radial_169_10621)" style=""/>
<path d="M111.49 29.67C116.82 38.27 119.6 48.51 119.6 59.9C119.6 76.8 113.5 91.1 102 101.3C91.4 110.6 77 115.8 61.6 115.8C43.54 115.8 24.6 108.45 13.42 92.86C24.18 110.52 44.42 118.8 63.6 118.8C79 118.8 93.4 113.6 104 104.3C115.5 94.1 121.6 79.8 121.6 62.9C121.6 50.16 118.13 38.84 111.49 29.67Z" fill="#EB8F00" style="fill:#EB8F00;fill:color(display-p3 0.9216 0.5608 0.0000);fill-opacity:1;"/>
<path d="M111.49 29.67C116.82 38.27 119.6 48.51 119.6 59.9C119.6 76.8 113.5 91.1 102 101.3C91.4 110.6 77 115.8 61.6 115.8C43.54 115.8 24.6 108.45 13.42 92.86C24.18 110.52 44.42 118.8 63.6 118.8C79 118.8 93.4 113.6 104 104.3C115.5 94.1 121.6 79.8 121.6 62.9C121.6 50.16 118.13 38.84 111.49 29.67Z" fill="#F3B872" style="fill:#F3B872;fill:color(display-p3 0.9542 0.7229 0.4453);fill-opacity:1;"/>
<path d="M111.49 29.67C116.82 38.27 119.6 48.51 119.6 59.9C119.6 76.8 113.5 91.1 102 101.3C91.4 110.6 77 115.8 61.6 115.8C43.54 115.8 24.6 108.45 13.42 92.86C24.18 110.52 44.42 118.8 63.6 118.8C79 118.8 93.4 113.6 104 104.3C115.5 94.1 121.6 79.8 121.6 62.9C121.6 50.16 118.13 38.84 111.49 29.67Z" fill="#4A2F27" style="fill:#4A2F27;fill:color(display-p3 0.2902 0.1843 0.1529);fill-opacity:1;"/>
<path d="M64.4 83.3C60.82 83.3 57.27 82.7 53.9 81.5C49.75 80.07 45.24 82.28 43.81 86.42C43 88.76 43.33 91.34 44.7 93.4C49 100 55.8 103.6 64.4 103.6C73 103.6 79.8 100 84.1 93.4C86.53 89.75 85.53 84.82 81.88 82.39C79.82 81.02 77.24 80.69 74.9 81.5C71.53 82.7 67.98 83.3 64.4 83.3Z" fill="#42312C" style="fill:#42312C;fill:color(display-p3 0.2588 0.1922 0.1725);fill-opacity:1;"/>
<path d="M64.4 83.3C60.82 83.3 57.27 82.7 53.9 81.5C49.75 80.07 45.24 82.28 43.81 86.42C43 88.76 43.33 91.34 44.7 93.4C49 100 55.8 103.6 64.4 103.6C73 103.6 79.8 100 84.1 93.4C86.53 89.75 85.53 84.82 81.88 82.39C79.82 81.02 77.24 80.69 74.9 81.5C71.53 82.7 67.98 83.3 64.4 83.3Z" fill="#42312C" style="fill:#42312C;fill:color(display-p3 0.2588 0.1922 0.1725);fill-opacity:1;"/>
<path opacity="0.8" d="M34.2 89.2C43.8649 89.2 51.7 81.8127 51.7 72.7C51.7 63.5873 43.8649 56.2 34.2 56.2C24.535 56.2 16.7 63.5873 16.7 72.7C16.7 81.8127 24.535 89.2 34.2 89.2Z" fill="url(#paint4_radial_169_10621)" style=""/>
<path opacity="0.8" d="M94.4998 89C104.165 89 112 81.6127 112 72.5C112 63.3873 104.165 56 94.4998 56C84.8348 56 76.9998 63.3873 76.9998 72.5C76.9998 81.6127 84.8348 89 94.4998 89Z" fill="url(#paint5_radial_169_10621)" style=""/>
<path opacity="0.8" d="M94.5999 89.2C104.265 89.2 112.1 81.8127 112.1 72.7C112.1 63.5873 104.265 56.2 94.5999 56.2C84.935 56.2 77.0999 63.5873 77.0999 72.7C77.0999 81.8127 84.935 89.2 94.5999 89.2Z" fill="url(#paint6_radial_169_10621)" style=""/>
<path d="M107.59 34.37C99.38 32.06 93.35 38.77 93.35 38.77C93.35 38.77 92.65 31.16 85.63 28.77C77.21 25.88 68.32 30.48 67.79 42.41C67.19 56 85.17 73.84 85.17 73.84C85.17 73.84 107.49 67.84 114.8 55.12C120.75 44.77 113.8 36.11 107.59 34.37Z" fill="#F44336" style="fill:#F44336;fill:color(display-p3 0.9569 0.2627 0.2118);fill-opacity:1;"/>
<path d="M107.59 34.37C106.58 34.1 105.54 33.98 104.5 34C107.44 35.97 109.77 38.72 111.22 41.94C112.63 45.33 113 49.71 110.32 54.94C104.51 66.31 86.62 73.35 85.32 73.84C86.95 73.38 107.81 67.38 114.84 55.15C120.75 44.77 113.8 36.11 107.59 34.37Z" fill="#C62828" style="fill:#C62828;fill:color(display-p3 0.7765 0.1569 0.1569);fill-opacity:1;"/>
<path d="M93.34 40C93.28 38.96 93.12 37.92 92.88 36.9C92.3 33.96 90.48 31.41 87.88 29.9C86.1 28.86 84.13 28.2 82.09 27.95C82.09 27.95 85.09 28.86 87.23 33.01C88.32 35.19 88.97 37.57 89.13 40C89.12 40.89 89.28 41.76 89.6 42.59C89.96 43.42 90.84 43.91 91.74 43.77C93.11 43.42 93.41 41.71 93.34 40Z" fill="#C62828" style="fill:#C62828;fill:color(display-p3 0.7765 0.1569 0.1569);fill-opacity:1;"/>
<path d="M73.9 35.23C75.77 32.91 78.84 30.7 81.78 32.74C83.34 33.83 83.36 36.92 81.45 38.31C78.23 40.67 78.08 42.22 77.72 43.52C77.28 45.07 77 46.92 75.59 47.7C74.18 48.48 72.94 47.7 72.2 45.47C70.94 41.99 71.58 38.11 73.9 35.23Z" fill="#FF847A" style="fill:#FF847A;fill:color(display-p3 1.0000 0.5176 0.4784);fill-opacity:1;"/>
<path d="M40.72 28.57C32.61 31.2 31.31 40.13 31.31 40.13C31.31 40.13 26.51 34.13 19.31 36.07C10.72 38.33 5.86998 47.09 12 57.3C19.1 69 43.94 73.85 43.94 73.85C43.94 73.85 59.19 56.49 58.23 41.85C57.44 29.93 46.85 26.58 40.72 28.57Z" fill="#F44336" style="fill:#F44336;fill:color(display-p3 0.9569 0.2627 0.2118);fill-opacity:1;"/>
<path d="M40.72 28.57C39.73 28.89 38.78 29.35 37.91 29.93C41.45 29.94 44.91 30.94 47.91 32.82C50.97 34.82 53.7 38.3 54.38 44.15C55.85 56.84 44.85 72.61 44 73.76C45.11 72.48 59.14 55.92 58.22 41.84C57.44 29.93 46.85 26.58 40.72 28.57Z" fill="#C62828" style="fill:#C62828;fill:color(display-p3 0.7765 0.1569 0.1569);fill-opacity:1;"/>
<path d="M32 41.18C31.38 40.33 30.68 39.55 29.9 38.85C27.8 36.71 24.89 35.57 21.9 35.73C19.85 35.85 17.84 36.38 16 37.31C16 37.31 19 36.4 23.08 38.68C25.21 39.91 27.06 41.56 28.54 43.52C29.02 44.27 29.64 44.91 30.37 45.42C31.13 45.91 32.13 45.82 32.8 45.21C33.69 44.13 33 42.55 32 41.18Z" fill="#C62828" style="fill:#C62828;fill:color(display-p3 0.7765 0.1569 0.1569);fill-opacity:1;"/>
<path d="M13.2 48C13.24 47.16 13.39 46.33 13.64 45.53C14.05 43.85 15.24 42.46 16.83 41.79C18.36 41.31 20.48 41.65 21.3 43.18C22.03 44.54 21.5 46.18 21.1 47.68C20.74 49.4 20.54 51.16 20.5 52.92C20.51 54.36 19.36 55.53 17.92 55.55C16.56 55.55 15.5 54.37 14.74 53.24C13.68 51.7 13.14 49.87 13.2 48Z" fill="#FF847A" style="fill:#FF847A;fill:color(display-p3 1.0000 0.5176 0.4784);fill-opacity:1;"/>
<defs>
<radialGradient id="paint0_radial_169_10621" cx="0" cy="0" r="1" gradientUnits="userSpaceOnUse" gradientTransform="translate(63.6 62.9) scale(56.9597 56.9597)">
<stop offset="0.5" stop-color="#FDE030" style="stop-color:#FDE030;stop-color:color(display-p3 0.9922 0.8784 0.1882);stop-opacity:1;"/>
<stop offset="0.92" stop-color="#F7C02B" style="stop-color:#F7C02B;stop-color:color(display-p3 0.9686 0.7529 0.1686);stop-opacity:1;"/>
<stop offset="1" stop-color="#F4A223" style="stop-color:#F4A223;stop-color:color(display-p3 0.9569 0.6353 0.1373);stop-opacity:1;"/>
</radialGradient>
<radialGradient id="paint1_radial_169_10621" cx="0" cy="0" r="1" gradientUnits="userSpaceOnUse" gradientTransform="translate(38.599 34.5377) rotate(-43.2082) scale(102.024 101.825)">
<stop offset="0.3533" stop-color="#F9DDBD" style="stop-color:#F9DDBD;stop-color:color(display-p3 0.9765 0.8667 0.7412);stop-opacity:1;"/>
<stop offset="0.8723" stop-color="#FFD29C" style="stop-color:#FFD29C;stop-color:color(display-p3 1.0000 0.8235 0.6118);stop-opacity:1;"/>
</radialGradient>
<radialGradient id="paint2_radial_169_10621" cx="0" cy="0" r="1" gradientUnits="userSpaceOnUse" gradientTransform="translate(38.599 34.5377) rotate(-43.2082) scale(102.024 101.825)">
<stop offset="0.3533" stop-color="#70534A" style="stop-color:#70534A;stop-color:color(display-p3 0.4392 0.3255 0.2902);stop-opacity:1;"/>
<stop offset="0.8723" stop-color="#5C4037" style="stop-color:#5C4037;stop-color:color(display-p3 0.3608 0.2510 0.2157);stop-opacity:1;"/>
</radialGradient>
<radialGradient id="paint3_radial_169_10621" cx="0" cy="0" r="1" gradientUnits="userSpaceOnUse" gradientTransform="translate(38.599 34.5377) rotate(-43.2082) scale(102.024 101.825)">
<stop offset="0.3533" stop-color="#A56C43" style="stop-color:#A56C43;stop-color:color(display-p3 0.6471 0.4235 0.2627);stop-opacity:1;"/>
<stop offset="0.8723" stop-color="#8D5738" style="stop-color:#8D5738;stop-color:color(display-p3 0.5529 0.3412 0.2196);stop-opacity:1;"/>
</radialGradient>
<radialGradient id="paint4_radial_169_10621" cx="0" cy="0" r="1" gradientUnits="userSpaceOnUse" gradientTransform="translate(34.2 65.1106) scale(19.0719 17.1258)">
<stop stop-color="#ED7770" style="stop-color:#ED7770;stop-color:color(display-p3 0.9294 0.4667 0.4392);stop-opacity:1;"/>
<stop offset="0.9" stop-color="#ED7770" stop-opacity="0" style="stop-color:none;stop-opacity:0;"/>
</radialGradient>
<radialGradient id="paint5_radial_169_10621" cx="0" cy="0" r="1" gradientUnits="userSpaceOnUse" gradientTransform="translate(94.4998 64.9105) scale(19.0719 17.1258)">
<stop stop-color="#ED7770" style="stop-color:#ED7770;stop-color:color(display-p3 0.9294 0.4667 0.4392);stop-opacity:1;"/>
<stop offset="0.9" stop-color="#ED7770" stop-opacity="0" style="stop-color:none;stop-opacity:0;"/>
</radialGradient>
<radialGradient id="paint6_radial_169_10621" cx="0" cy="0" r="1" gradientUnits="userSpaceOnUse" gradientTransform="translate(123.12 2527.59) scale(19.46 19.46)">
<stop stop-color="#ED7770" style="stop-color:#ED7770;stop-color:color(display-p3 0.9294 0.4667 0.4392);stop-opacity:1;"/>
<stop offset="0.9" stop-color="#ED7770" stop-opacity="0" style="stop-color:none;stop-opacity:0;"/>
</radialGradient>
</defs>
</svg>
