<svg width="128" height="128" viewBox="0 0 128 128" fill="none" xmlns="http://www.w3.org/2000/svg">
<path d="M63.6001 118.8C35.7001 118.8 5.6001 101.3 5.6001 62.9C5.6001 24.5 35.7001 7 63.6001 7C79.1001 7 93.4001 12.1 104 21.4C115.5 31.6 121.6 46 121.6 62.9C121.6 79.8 115.5 94.1 104 104.3C93.4001 113.6 79.0001 118.8 63.6001 118.8Z" fill="url(#paint0_radial_169_13098)" style=""/>
<path d="M63.6001 118.8C35.7001 118.8 5.6001 101.3 5.6001 62.9C5.6001 24.5 35.7001 7 63.6001 7C79.1001 7 93.4001 12.1 104 21.4C115.5 31.6 121.6 46 121.6 62.9C121.6 79.8 115.5 94.1 104 104.3C93.4001 113.6 79.0001 118.8 63.6001 118.8Z" fill="url(#paint1_radial_169_13098)" style=""/>
<path d="M63.6001 118.8C35.7001 118.8 5.6001 101.3 5.6001 62.9C5.6001 24.5 35.7001 7 63.6001 7C79.1001 7 93.4001 12.1 104 21.4C115.5 31.6 121.6 46 121.6 62.9C121.6 79.8 115.5 94.1 104 104.3C93.4001 113.6 79.0001 118.8 63.6001 118.8Z" fill="url(#paint2_radial_169_13098)" style=""/>
<path d="M63.6001 118.8C35.7001 118.8 5.6001 101.3 5.6001 62.9C5.6001 24.5 35.7001 7 63.6001 7C79.1001 7 93.4001 12.1 104 21.4C115.5 31.6 121.6 46 121.6 62.9C121.6 79.8 115.5 94.1 104 104.3C93.4001 113.6 79.0001 118.8 63.6001 118.8Z" fill="url(#paint3_radial_169_13098)" style=""/>
<path d="M63.6001 118.8C35.7001 118.8 5.6001 101.3 5.6001 62.9C5.6001 24.5 35.7001 7 63.6001 7C79.1001 7 93.4001 12.1 104 21.4C115.5 31.6 121.6 46 121.6 62.9C121.6 79.8 115.5 94.1 104 104.3C93.4001 113.6 79.0001 118.8 63.6001 118.8Z" fill="url(#paint4_radial_169_13098)" style=""/>
<path d="M111.49 29.67C116.82 38.27 119.6 48.51 119.6 59.9C119.6 76.8 113.5 91.1 102 101.3C91.3999 110.6 76.9999 115.8 61.5999 115.8C43.5399 115.8 24.5999 108.45 13.4199 92.86C24.1799 110.52 44.4199 118.8 63.5999 118.8C78.9999 118.8 93.3999 113.6 104 104.3C115.5 94.1 121.6 79.8 121.6 62.9C121.6 50.16 118.13 38.84 111.49 29.67Z" fill="#EB8F00" style="fill:#EB8F00;fill:color(display-p3 0.9216 0.5608 0.0000);fill-opacity:1;"/>
<path d="M111.49 29.67C116.82 38.27 119.6 48.51 119.6 59.9C119.6 76.8 113.5 91.1 102 101.3C91.3999 110.6 76.9999 115.8 61.5999 115.8C43.5399 115.8 24.5999 108.45 13.4199 92.86C24.1799 110.52 44.4199 118.8 63.5999 118.8C78.9999 118.8 93.3999 113.6 104 104.3C115.5 94.1 121.6 79.8 121.6 62.9C121.6 50.16 118.13 38.84 111.49 29.67Z" fill="#F3B872" style="fill:#F3B872;fill:color(display-p3 0.9542 0.7229 0.4453);fill-opacity:1;"/>
<path d="M111.49 29.67C116.82 38.27 119.6 48.51 119.6 59.9C119.6 76.8 113.5 91.1 102 101.3C91.3999 110.6 76.9999 115.8 61.5999 115.8C43.5399 115.8 24.5999 108.45 13.4199 92.86C24.1799 110.52 44.4199 118.8 63.5999 118.8C78.9999 118.8 93.3999 113.6 104 104.3C115.5 94.1 121.6 79.8 121.6 62.9C121.6 50.16 118.13 38.84 111.49 29.67Z" fill="#91674D" style="fill:#91674D;fill:color(display-p3 0.5686 0.4039 0.3020);fill-opacity:1;"/>
<path d="M64.0002 0C31.0002 0 4.2002 6.77 4.2002 15.12C4.2002 23.47 19.3802 32.25 64.0002 32.25C106.16 32.25 123.75 23.48 123.75 15.12C123.75 6.76 97.0002 0 64.0002 0ZM64.0002 21.44C38.4802 21.44 17.7802 19.44 17.7802 14.52C17.7802 9.6 38.4802 4.52 64.0002 4.52C89.5202 4.52 110.22 9.64 110.22 14.57C110.22 19.5 89.4802 21.44 64.0002 21.44Z" fill="#4FC3F7" style="fill:#4FC3F7;fill:color(display-p3 0.3098 0.7647 0.9686);fill-opacity:1;"/>
<path d="M63.0004 91.61C53.9304 91.68 45.2704 87.87 39.2004 81.13C38.7404 80.6 38.6304 79.85 38.9204 79.21C39.2104 78.56 39.8504 78.14 40.5604 78.13C40.8804 78.13 41.2004 78.22 41.4804 78.38C46.3004 81.15 54.3604 84.59 63.0004 84.59H63.1404C71.7704 84.59 79.8404 81.15 84.6504 78.38C84.9304 78.22 85.2504 78.13 85.5704 78.13C86.2804 78.14 86.9204 78.56 87.2104 79.21C87.5104 79.85 87.4004 80.6 86.9304 81.13C80.8604 87.87 72.1804 91.69 63.1104 91.61" fill="#49362E" style="fill:#49362E;fill:color(display-p3 0.2863 0.2118 0.1804);fill-opacity:1;"/>
<path d="M63.0004 91.61C53.9304 91.68 45.2704 87.87 39.2004 81.13C38.7404 80.6 38.6304 79.85 38.9204 79.21C39.2104 78.56 39.8504 78.14 40.5604 78.13C40.8804 78.13 41.2004 78.22 41.4804 78.38C46.3004 81.15 54.3604 84.59 63.0004 84.59H63.1404C71.7704 84.59 79.8404 81.15 84.6504 78.38C84.9304 78.22 85.2504 78.13 85.5704 78.13C86.2804 78.14 86.9204 78.56 87.2104 79.21C87.5104 79.85 87.4004 80.6 86.9304 81.13C80.8604 87.87 72.1804 91.69 63.1104 91.61" fill="#1A1717" style="fill:#1A1717;fill:color(display-p3 0.1020 0.0902 0.0902);fill-opacity:1;"/>
<path d="M63.0004 91.61C53.9304 91.68 45.2704 87.87 39.2004 81.13C38.7404 80.6 38.6304 79.85 38.9204 79.21C39.2104 78.56 39.8504 78.14 40.5604 78.13C40.8804 78.13 41.2004 78.22 41.4804 78.38C46.3004 81.15 54.3604 84.59 63.0004 84.59H63.1404C71.7704 84.59 79.8404 81.15 84.6504 78.38C84.9304 78.22 85.2504 78.13 85.5704 78.13C86.2804 78.14 86.9204 78.56 87.2104 79.21C87.5104 79.85 87.4004 80.6 86.9304 81.13C80.8604 87.87 72.1804 91.69 63.1104 91.61" fill="#5D4037" style="fill:#5D4037;fill:color(display-p3 0.3647 0.2510 0.2157);fill-opacity:1;"/>
<path d="M49.0002 56.89L48.8502 56.69L48.4202 56.14L47.8902 55.57C47.6702 55.32 47.4102 55.08 47.1602 54.82C46.9102 54.56 46.6002 54.31 46.3202 54.1C46.0602 53.9 45.7802 53.71 45.4802 53.56C45.2802 53.45 45.0602 53.36 44.8302 53.31C44.7602 53.3 44.6902 53.3 44.6202 53.31C44.6202 53.31 44.5602 53.31 44.5302 53.31H44.4502C44.5702 53.31 44.1802 53.31 44.7202 53.31H44.1702C44.0202 53.31 44.1202 53.31 44.1702 53.31H44.2502C44.2502 53.31 44.3302 53.31 44.2502 53.31H44.1402C43.9102 53.36 43.6902 53.44 43.4802 53.56C43.1902 53.72 42.9002 53.9 42.6402 54.1C42.3502 54.32 42.0702 54.56 41.8102 54.82C41.2802 55.33 40.8102 55.82 40.5102 56.21L39.9902 56.81L39.7602 57.08C38.3202 58.69 35.8902 58.95 34.1402 57.69C33.0202 56.91 32.4502 55.56 32.6702 54.21C32.6702 54.21 32.7402 53.81 32.9302 53.1C33.2302 52.09 33.6502 51.11 34.1802 50.19C35.0302 48.69 36.1802 47.38 37.5602 46.34C38.4702 45.64 39.4802 45.08 40.5602 44.69C40.8602 44.57 41.1702 44.48 41.4802 44.4C41.8102 44.3 42.1402 44.23 42.4802 44.17L43.0902 44.08L43.6002 44.02H44.1502H44.9402H45.4502C45.7902 44.02 46.1202 44.11 46.4502 44.16C47.0902 44.27 47.7302 44.44 48.3402 44.67C49.4202 45.06 50.4302 45.62 51.3402 46.32C52.7202 47.36 53.8702 48.67 54.7202 50.17C55.0302 50.69 55.3002 51.24 55.5202 51.8C55.7102 52.25 55.8702 52.7 56.0002 53.17C56.0702 53.41 56.1302 53.65 56.1602 53.89V54.14C56.4602 56.18 55.0402 58.08 53.0002 58.38C52.9502 58.39 52.9002 58.39 52.8502 58.4C51.3902 58.61 49.9302 58.03 49.0002 56.89Z" fill="#49362E" style="fill:#49362E;fill:color(display-p3 0.2863 0.2118 0.1804);fill-opacity:1;"/>
<path d="M49.0002 56.89L48.8502 56.69L48.4202 56.14L47.8902 55.57C47.6702 55.32 47.4102 55.08 47.1602 54.82C46.9102 54.56 46.6002 54.31 46.3202 54.1C46.0602 53.9 45.7802 53.71 45.4802 53.56C45.2802 53.45 45.0602 53.36 44.8302 53.31C44.7602 53.3 44.6902 53.3 44.6202 53.31C44.6202 53.31 44.5602 53.31 44.5302 53.31H44.4502C44.5702 53.31 44.1802 53.31 44.7202 53.31H44.1702C44.0202 53.31 44.1202 53.31 44.1702 53.31H44.2502C44.2502 53.31 44.3302 53.31 44.2502 53.31H44.1402C43.9102 53.36 43.6902 53.44 43.4802 53.56C43.1902 53.72 42.9002 53.9 42.6402 54.1C42.3502 54.32 42.0702 54.56 41.8102 54.82C41.2802 55.33 40.8102 55.82 40.5102 56.21L39.9902 56.81L39.7602 57.08C38.3202 58.69 35.8902 58.95 34.1402 57.69C33.0202 56.91 32.4502 55.56 32.6702 54.21C32.6702 54.21 32.7402 53.81 32.9302 53.1C33.2302 52.09 33.6502 51.11 34.1802 50.19C35.0302 48.69 36.1802 47.38 37.5602 46.34C38.4702 45.64 39.4802 45.08 40.5602 44.69C40.8602 44.57 41.1702 44.48 41.4802 44.4C41.8102 44.3 42.1402 44.23 42.4802 44.17L43.0902 44.08L43.6002 44.02H44.1502H44.9402H45.4502C45.7902 44.02 46.1202 44.11 46.4502 44.16C47.0902 44.27 47.7302 44.44 48.3402 44.67C49.4202 45.06 50.4302 45.62 51.3402 46.32C52.7202 47.36 53.8702 48.67 54.7202 50.17C55.0302 50.69 55.3002 51.24 55.5202 51.8C55.7102 52.25 55.8702 52.7 56.0002 53.17C56.0702 53.41 56.1302 53.65 56.1602 53.89V54.14C56.4602 56.18 55.0402 58.08 53.0002 58.38C52.9502 58.39 52.9002 58.39 52.8502 58.4C51.3902 58.61 49.9302 58.03 49.0002 56.89Z" fill="#1A1717" style="fill:#1A1717;fill:color(display-p3 0.1020 0.0902 0.0902);fill-opacity:1;"/>
<path d="M49.0002 56.89L48.8502 56.69L48.4202 56.14L47.8902 55.57C47.6702 55.32 47.4102 55.08 47.1602 54.82C46.9102 54.56 46.6002 54.31 46.3202 54.1C46.0602 53.9 45.7802 53.71 45.4802 53.56C45.2802 53.45 45.0602 53.36 44.8302 53.31C44.7602 53.3 44.6902 53.3 44.6202 53.31C44.6202 53.31 44.5602 53.31 44.5302 53.31H44.4502C44.5702 53.31 44.1802 53.31 44.7202 53.31H44.1702C44.0202 53.31 44.1202 53.31 44.1702 53.31H44.2502C44.2502 53.31 44.3302 53.31 44.2502 53.31H44.1402C43.9102 53.36 43.6902 53.44 43.4802 53.56C43.1902 53.72 42.9002 53.9 42.6402 54.1C42.3502 54.32 42.0702 54.56 41.8102 54.82C41.2802 55.33 40.8102 55.82 40.5102 56.21L39.9902 56.81L39.7602 57.08C38.3202 58.69 35.8902 58.95 34.1402 57.69C33.0202 56.91 32.4502 55.56 32.6702 54.21C32.6702 54.21 32.7402 53.81 32.9302 53.1C33.2302 52.09 33.6502 51.11 34.1802 50.19C35.0302 48.69 36.1802 47.38 37.5602 46.34C38.4702 45.64 39.4802 45.08 40.5602 44.69C40.8602 44.57 41.1702 44.48 41.4802 44.4C41.8102 44.3 42.1402 44.23 42.4802 44.17L43.0902 44.08L43.6002 44.02H44.1502H44.9402H45.4502C45.7902 44.02 46.1202 44.11 46.4502 44.16C47.0902 44.27 47.7302 44.44 48.3402 44.67C49.4202 45.06 50.4302 45.62 51.3402 46.32C52.7202 47.36 53.8702 48.67 54.7202 50.17C55.0302 50.69 55.3002 51.24 55.5202 51.8C55.7102 52.25 55.8702 52.7 56.0002 53.17C56.0702 53.41 56.1302 53.65 56.1602 53.89V54.14C56.4602 56.18 55.0402 58.08 53.0002 58.38C52.9502 58.39 52.9002 58.39 52.8502 58.4C51.3902 58.61 49.9302 58.03 49.0002 56.89Z" fill="#49362E" style="fill:#49362E;fill:color(display-p3 0.2863 0.2118 0.1804);fill-opacity:1;"/>
<path d="M88.4603 56.89L88.3004 56.69L87.8703 56.14L87.3403 55.57C87.1203 55.32 86.8603 55.08 86.6103 54.82C86.3603 54.56 86.0503 54.31 85.7703 54.1C85.5103 53.9 85.2303 53.71 84.9303 53.56C84.7303 53.45 84.5103 53.36 84.2803 53.31C84.2103 53.3 84.1403 53.3 84.0703 53.31C84.0703 53.31 84.0104 53.31 83.9804 53.31H83.9003C84.0203 53.31 83.6303 53.31 84.1703 53.31H83.6203C83.4704 53.31 83.5703 53.31 83.6203 53.31H83.7003C83.7003 53.31 83.7803 53.31 83.7003 53.31H83.5903C83.3603 53.36 83.1403 53.44 82.9303 53.56C82.6403 53.71 82.3603 53.9 82.1003 54.1C81.8003 54.32 81.5203 54.56 81.2603 54.82C80.7303 55.33 80.2603 55.82 79.9603 56.21L79.4403 56.81L79.2203 57.08C77.7703 58.69 75.3503 58.95 73.5903 57.69C72.4703 56.91 71.9003 55.56 72.1203 54.21C72.1203 54.21 72.1903 53.81 72.3903 53.1C72.6903 52.08 73.1003 51.1 73.6403 50.19C74.4903 48.69 75.6303 47.38 77.0103 46.34C77.9203 45.64 78.9303 45.08 80.0103 44.69C80.3103 44.57 80.6203 44.48 80.9303 44.4C81.2603 44.3 81.5903 44.23 81.9303 44.17L82.5504 44.08L83.0504 44.02H83.6003H84.3903H84.9003C85.2403 44.02 85.5703 44.11 85.9003 44.16C86.5503 44.27 87.1803 44.44 87.7903 44.67C88.8703 45.06 89.8803 45.62 90.7903 46.32C92.1703 47.36 93.3203 48.67 94.1703 50.17C94.4803 50.69 94.7503 51.24 94.9703 51.8C95.1603 52.24 95.3203 52.69 95.4503 53.15C95.5203 53.39 95.5803 53.63 95.6103 53.87V54.12C95.9303 56.16 94.5303 58.07 92.4903 58.39C92.4603 58.39 92.4303 58.4 92.4003 58.4C90.9103 58.65 89.4003 58.07 88.4603 56.89Z" fill="#49362E" style="fill:#49362E;fill:color(display-p3 0.2863 0.2118 0.1804);fill-opacity:1;"/>
<path d="M88.4603 56.89L88.3004 56.69L87.8703 56.14L87.3403 55.57C87.1203 55.32 86.8603 55.08 86.6103 54.82C86.3603 54.56 86.0503 54.31 85.7703 54.1C85.5103 53.9 85.2303 53.71 84.9303 53.56C84.7303 53.45 84.5103 53.36 84.2803 53.31C84.2103 53.3 84.1403 53.3 84.0703 53.31C84.0703 53.31 84.0104 53.31 83.9804 53.31H83.9003C84.0203 53.31 83.6303 53.31 84.1703 53.31H83.6203C83.4704 53.31 83.5703 53.31 83.6203 53.31H83.7003C83.7003 53.31 83.7803 53.31 83.7003 53.31H83.5903C83.3603 53.36 83.1403 53.44 82.9303 53.56C82.6403 53.71 82.3603 53.9 82.1003 54.1C81.8003 54.32 81.5203 54.56 81.2603 54.82C80.7303 55.33 80.2603 55.82 79.9603 56.21L79.4403 56.81L79.2203 57.08C77.7703 58.69 75.3503 58.95 73.5903 57.69C72.4703 56.91 71.9003 55.56 72.1203 54.21C72.1203 54.21 72.1903 53.81 72.3903 53.1C72.6903 52.08 73.1003 51.1 73.6403 50.19C74.4903 48.69 75.6303 47.38 77.0103 46.34C77.9203 45.64 78.9303 45.08 80.0103 44.69C80.3103 44.57 80.6203 44.48 80.9303 44.4C81.2603 44.3 81.5903 44.23 81.9303 44.17L82.5504 44.08L83.0504 44.02H83.6003H84.3903H84.9003C85.2403 44.02 85.5703 44.11 85.9003 44.16C86.5503 44.27 87.1803 44.44 87.7903 44.67C88.8703 45.06 89.8803 45.62 90.7903 46.32C92.1703 47.36 93.3203 48.67 94.1703 50.17C94.4803 50.69 94.7503 51.24 94.9703 51.8C95.1603 52.24 95.3203 52.69 95.4503 53.15C95.5203 53.39 95.5803 53.63 95.6103 53.87V54.12C95.9303 56.16 94.5303 58.07 92.4903 58.39C92.4603 58.39 92.4303 58.4 92.4003 58.4C90.9103 58.65 89.4003 58.07 88.4603 56.89Z" fill="#1A1717" style="fill:#1A1717;fill:color(display-p3 0.1020 0.0902 0.0902);fill-opacity:1;"/>
<path d="M88.4603 56.89L88.3004 56.69L87.8703 56.14L87.3403 55.57C87.1203 55.32 86.8603 55.08 86.6103 54.82C86.3603 54.56 86.0503 54.31 85.7703 54.1C85.5103 53.9 85.2303 53.71 84.9303 53.56C84.7303 53.45 84.5103 53.36 84.2803 53.31C84.2103 53.3 84.1403 53.3 84.0703 53.31C84.0703 53.31 84.0104 53.31 83.9804 53.31H83.9003C84.0203 53.31 83.6303 53.31 84.1703 53.31H83.6203C83.4704 53.31 83.5703 53.31 83.6203 53.31H83.7003C83.7003 53.31 83.7803 53.31 83.7003 53.31H83.5903C83.3603 53.36 83.1403 53.44 82.9303 53.56C82.6403 53.71 82.3603 53.9 82.1003 54.1C81.8003 54.32 81.5203 54.56 81.2603 54.82C80.7303 55.33 80.2603 55.82 79.9603 56.21L79.4403 56.81L79.2203 57.08C77.7703 58.69 75.3503 58.95 73.5903 57.69C72.4703 56.91 71.9003 55.56 72.1203 54.21C72.1203 54.21 72.1903 53.81 72.3903 53.1C72.6903 52.08 73.1003 51.1 73.6403 50.19C74.4903 48.69 75.6303 47.38 77.0103 46.34C77.9203 45.64 78.9303 45.08 80.0103 44.69C80.3103 44.57 80.6203 44.48 80.9303 44.4C81.2603 44.3 81.5903 44.23 81.9303 44.17L82.5504 44.08L83.0504 44.02H83.6003H84.3903H84.9003C85.2403 44.02 85.5703 44.11 85.9003 44.16C86.5503 44.27 87.1803 44.44 87.7903 44.67C88.8703 45.06 89.8803 45.62 90.7903 46.32C92.1703 47.36 93.3203 48.67 94.1703 50.17C94.4803 50.69 94.7503 51.24 94.9703 51.8C95.1603 52.24 95.3203 52.69 95.4503 53.15C95.5203 53.39 95.5803 53.63 95.6103 53.87V54.12C95.9303 56.16 94.5303 58.07 92.4903 58.39C92.4603 58.39 92.4303 58.4 92.4003 58.4C90.9103 58.65 89.4003 58.07 88.4603 56.89Z" fill="#49362E" style="fill:#49362E;fill:color(display-p3 0.2863 0.2118 0.1804);fill-opacity:1;"/>
<defs>
<radialGradient id="paint0_radial_169_13098" cx="0" cy="0" r="1" gradientUnits="userSpaceOnUse" gradientTransform="translate(63.6001 62.8999) scale(56.9597 56.9597)">
<stop offset="0.5" stop-color="#FDE030" style="stop-color:#FDE030;stop-color:color(display-p3 0.9922 0.8784 0.1882);stop-opacity:1;"/>
<stop offset="0.92" stop-color="#F7C02B" style="stop-color:#F7C02B;stop-color:color(display-p3 0.9686 0.7529 0.1686);stop-opacity:1;"/>
<stop offset="1" stop-color="#F4A223" style="stop-color:#F4A223;stop-color:color(display-p3 0.9569 0.6353 0.1373);stop-opacity:1;"/>
</radialGradient>
<radialGradient id="paint1_radial_169_13098" cx="0" cy="0" r="1" gradientUnits="userSpaceOnUse" gradientTransform="translate(38.5991 34.5377) rotate(-43.2082) scale(102.024 101.825)">
<stop offset="0.3533" stop-color="#F9DDBD" style="stop-color:#F9DDBD;stop-color:color(display-p3 0.9765 0.8667 0.7412);stop-opacity:1;"/>
<stop offset="0.8723" stop-color="#FFD29C" style="stop-color:#FFD29C;stop-color:color(display-p3 1.0000 0.8235 0.6118);stop-opacity:1;"/>
</radialGradient>
<radialGradient id="paint2_radial_169_13098" cx="0" cy="0" r="1" gradientUnits="userSpaceOnUse" gradientTransform="translate(38.5991 34.5377) rotate(-43.2082) scale(102.024 101.825)">
<stop offset="0.3533" stop-color="#70534A" style="stop-color:#70534A;stop-color:color(display-p3 0.4392 0.3255 0.2902);stop-opacity:1;"/>
<stop offset="0.8723" stop-color="#5C4037" style="stop-color:#5C4037;stop-color:color(display-p3 0.3608 0.2510 0.2157);stop-opacity:1;"/>
</radialGradient>
<radialGradient id="paint3_radial_169_13098" cx="0" cy="0" r="1" gradientUnits="userSpaceOnUse" gradientTransform="translate(38.5991 34.5377) rotate(-43.2082) scale(102.024 101.825)">
<stop offset="0.3533" stop-color="#A37A58" style="stop-color:#A37A58;stop-color:color(display-p3 0.6375 0.4772 0.3453);stop-opacity:1;"/>
<stop offset="0.8723" stop-color="#8D5738" style="stop-color:#8D5738;stop-color:color(display-p3 0.5529 0.3412 0.2196);stop-opacity:1;"/>
</radialGradient>
<radialGradient id="paint4_radial_169_13098" cx="0" cy="0" r="1" gradientUnits="userSpaceOnUse" gradientTransform="translate(38.5991 34.5377) rotate(-43.2082) scale(102.024 101.825)">
<stop offset="0.3533" stop-color="#AD8264" style="stop-color:#AD8264;stop-color:color(display-p3 0.6784 0.5098 0.3922);stop-opacity:1;"/>
<stop offset="0.8723" stop-color="#A47B62" style="stop-color:#A47B62;stop-color:color(display-p3 0.6431 0.4824 0.3843);stop-opacity:1;"/>
</radialGradient>
</defs>
</svg>
