<svg width="128" height="128" viewBox="0 0 128 128" fill="none" xmlns="http://www.w3.org/2000/svg">
<path d="M103.13 102.43C83.3999 122.16 49.7399 131.07 22.5899 103.91C-4.56006 76.75 4.33994 43.1 24.0699 23.37C34.9999 12.41 48.7499 5.90996 62.8199 4.99996C78.1699 4.07996 92.6599 9.94996 104.61 21.9C116.56 33.85 122.36 48.27 121.44 63.62C120.52 77.68 114 91.54 103.13 102.43Z" fill="url(#paint0_radial_169_6621)" style=""/>
<path d="M103.13 102.43C83.3999 122.16 49.7399 131.07 22.5899 103.91C-4.56006 76.75 4.33994 43.1 24.0699 23.37C34.9999 12.41 48.7499 5.90996 62.8199 4.99996C78.1699 4.07996 92.6599 9.94996 104.61 21.9C116.56 33.85 122.36 48.27 121.44 63.62C120.52 77.68 114 91.54 103.13 102.43Z" fill="url(#paint1_radial_169_6621)" style=""/>
<path d="M103.13 102.43C83.3999 122.16 49.7399 131.07 22.5899 103.91C-4.56006 76.75 4.33994 43.1 24.0699 23.37C34.9999 12.41 48.7499 5.90996 62.8199 4.99996C78.1699 4.07996 92.6599 9.94996 104.61 21.9C116.56 33.85 122.36 48.27 121.44 63.62C120.52 77.68 114 91.54 103.13 102.43Z" fill="url(#paint2_radial_169_6621)" style=""/>
<path d="M73.9999 5.53992C83.8399 7.84992 92.9999 13.1299 101.11 21.1799C113.11 33.1799 118.86 47.5599 117.94 62.8999C117 76.9999 110.48 90.8299 99.5899 101.72C86.8199 114.49 68.2099 122.72 49.2999 119.57C69.3999 124.45 89.5599 116 103.13 102.43C114 91.5399 120.52 77.6799 121.44 63.6099C122.36 48.2599 116.56 33.8399 104.61 21.8899C95.5999 12.8799 85.1399 7.32992 73.9999 5.53992Z" fill="#EB8F00" style="fill:#EB8F00;fill:color(display-p3 0.9216 0.5608 0.0000);fill-opacity:1;"/>
<path d="M73.9999 5.53992C83.8399 7.84992 92.9999 13.1299 101.11 21.1799C113.11 33.1799 118.86 47.5599 117.94 62.8999C117 76.9999 110.48 90.8299 99.5899 101.72C86.8199 114.49 68.2099 122.72 49.2999 119.57C69.3999 124.45 89.5599 116 103.13 102.43C114 91.5399 120.52 77.6799 121.44 63.6099C122.36 48.2599 116.56 33.8399 104.61 21.8899C95.5999 12.8799 85.1399 7.32992 73.9999 5.53992Z" fill="#F3B872" style="fill:#F3B872;fill:color(display-p3 0.9542 0.7229 0.4453);fill-opacity:1;"/>
<path d="M73.9999 5.53992C83.8399 7.84992 92.9999 13.1299 101.11 21.1799C113.11 33.1799 118.86 47.5599 117.94 62.8999C117 76.9999 110.48 90.8299 99.5899 101.72C86.8199 114.49 68.2099 122.72 49.2999 119.57C69.3999 124.45 89.5599 116 103.13 102.43C114 91.5399 120.52 77.6799 121.44 63.6099C122.36 48.2599 116.56 33.8399 104.61 21.8899C95.5999 12.8799 85.1399 7.32992 73.9999 5.53992Z" fill="#BA8F63" style="fill:#BA8F63;fill:color(display-p3 0.7294 0.5608 0.3882);fill-opacity:1;"/>
<path d="M96.71 39.5599C93.94 38.7599 91 40.1299 89.83 42.7699C84.68 52.1399 78.21 60.7099 70.62 68.2399C63.1 75.8299 54.52 82.2999 45.15 87.4399C42.52 88.6199 41.16 91.5499 41.94 94.3199C42.76 97.0699 45.51 98.4199 48.1 99.3899C62.61 104.82 78.58 100.78 90.85 88.5799L90.97 88.4699C103.16 76.1999 107.2 60.2299 101.77 45.7099C100.81 43.1299 99.45 40.3699 96.71 39.5599Z" fill="#5D4037" style="fill:#5D4037;fill:color(display-p3 0.3647 0.2510 0.2157);fill-opacity:1;"/>
<path d="M90.0799 87.58L90.0199 87.64V87.7L90.0799 87.58Z" fill="#5D4037" style="fill:#5D4037;fill:color(display-p3 0.3647 0.2510 0.2157);fill-opacity:1;"/>
<path d="M71.6099 69L71.4999 69.1L71.3999 69.21L71.6099 69Z" fill="#5D4037" style="fill:#5D4037;fill:color(display-p3 0.3647 0.2510 0.2157);fill-opacity:1;"/>
<path d="M71.6099 69L71.4999 69.1L71.3999 69.21L71.6099 69Z" fill="#5D4037" style="fill:#5D4037;fill:color(display-p3 0.3647 0.2510 0.2157);fill-opacity:1;"/>
<path d="M90.0799 87.58L90.0199 87.64V87.7L90.0799 87.58Z" fill="#5D4037" style="fill:#5D4037;fill:color(display-p3 0.3647 0.2510 0.2157);fill-opacity:1;"/>
<path d="M99.3999 74.38C98.8899 74.38 98.3999 74.45 97.9199 74.49C92.4899 74.84 87.3899 77.21 83.6199 81.13C79.5799 85.01 77.0199 90.19 76.3799 95.76C76.3199 96.25 76.2599 96.76 76.2299 97.24C76.1999 97.72 76.3099 98.12 76.3699 98.52C81.7799 96.14 86.6899 92.77 90.8499 88.58L90.9699 88.47C94.9799 84.48 98.2399 79.8 100.59 74.66C100.2 74.54 99.7999 74.45 99.3999 74.38Z" fill="#ED7770" style="fill:#ED7770;fill:color(display-p3 0.9294 0.4667 0.4392);fill-opacity:1;"/>
<path d="M89.83 42.7699C84.68 52.1399 78.21 60.7099 70.62 68.2399C63.1 75.8299 54.52 82.2999 45.15 87.4399C42.52 88.6199 41.16 91.5499 41.94 94.3199C42.07 94.7299 42.24 95.1199 42.46 95.4899C42.87 95.3499 43.26 95.1899 43.65 94.9999C56.42 90.7599 68 83.5399 77.41 73.9199C86.64 64.8899 93.68 53.8799 98 41.7099C98.17 41.2999 98.32 40.8799 98.45 40.4499C97.93 40.0499 97.34 39.7399 96.71 39.5599C93.94 38.7599 91 40.1299 89.83 42.7699Z" fill="white" style="fill:white;fill-opacity:1;"/>
<path d="M71.3999 69.74C77.2699 64.06 81.1099 58.48 85.7299 51.68C86.8799 49.98 87.9699 48.24 89.0199 46.45L89.7799 45.1C89.9799 44.75 90.1999 44.41 90.4599 44.1C90.9199 43.53 91.5099 43.09 92.1899 42.81C93.7699 42.23 95.4999 42.2 97.0999 42.73C100.35 44.29 103.18 49.85 102.82 48.81C102.82 48.81 102.23 46.48 102.21 46.45C101.41 44.45 100.59 42.19 98.5199 40.45C96.2999 38.76 93.3399 38.42 90.7999 39.57C89.6099 40.11 88.5799 40.94 87.7999 41.98C87.4199 42.46 87.0799 42.98 86.7999 43.53L86.1299 44.85C85.1999 46.6 84.2099 48.33 83.1299 50.02C79.2899 56.43 74.7599 62.4 69.6199 67.82L69.4599 67.98C64.1499 73.06 58.2999 77.53 51.9999 81.31C50.2999 82.31 48.5799 83.31 46.8299 84.31L45.4699 85C44.9199 85.28 44.3999 85.61 43.9199 86C42.8699 86.78 42.0399 87.81 41.4999 89C40.4299 91.52 40.8099 94.43 42.4999 96.59C45.1899 100.1 51.3299 100.59 51.3599 100.59C52.3599 100.95 46.2999 98.37 44.7399 95.12C44.1899 93.58 44.1899 91.89 44.7399 90.35C44.9999 89.65 45.4299 89.03 45.9999 88.55C46.3099 88.29 46.6499 88.07 46.9999 87.88L48.3499 87.12C50.1299 86.12 51.8699 84.97 53.5799 83.82C60.3699 79.2 65.5799 75.82 71.2299 69.9" fill="#EB8F00" style="fill:#EB8F00;fill:color(display-p3 0.9216 0.5608 0.0000);fill-opacity:1;"/>
<path d="M71.3999 69.74C77.2699 64.06 81.1099 58.48 85.7299 51.68C86.8799 49.98 87.9699 48.24 89.0199 46.45L89.7799 45.1C89.9799 44.75 90.1999 44.41 90.4599 44.1C90.9199 43.53 91.5099 43.09 92.1899 42.81C93.7699 42.23 95.4999 42.2 97.0999 42.73C100.35 44.29 103.18 49.85 102.82 48.81C102.82 48.81 102.23 46.48 102.21 46.45C101.41 44.45 100.59 42.19 98.5199 40.45C96.2999 38.76 93.3399 38.42 90.7999 39.57C89.6099 40.11 88.5799 40.94 87.7999 41.98C87.4199 42.46 87.0799 42.98 86.7999 43.53L86.1299 44.85C85.1999 46.6 84.2099 48.33 83.1299 50.02C79.2899 56.43 74.7599 62.4 69.6199 67.82L69.4599 67.98C64.1499 73.06 58.2999 77.53 51.9999 81.31C50.2999 82.31 48.5799 83.31 46.8299 84.31L45.4699 85C44.9199 85.28 44.3999 85.61 43.9199 86C42.8699 86.78 42.0399 87.81 41.4999 89C40.4299 91.52 40.8099 94.43 42.4999 96.59C45.1899 100.1 51.3299 100.59 51.3599 100.59C52.3599 100.95 46.2999 98.37 44.7399 95.12C44.1899 93.58 44.1899 91.89 44.7399 90.35C44.9999 89.65 45.4299 89.03 45.9999 88.55C46.3099 88.29 46.6499 88.07 46.9999 87.88L48.3499 87.12C50.1299 86.12 51.8699 84.97 53.5799 83.82C60.3699 79.2 65.5799 75.82 71.2299 69.9" fill="#F3B872" style="fill:#F3B872;fill:color(display-p3 0.9542 0.7229 0.4453);fill-opacity:1;"/>
<path d="M71.3999 69.74C77.2699 64.06 81.1099 58.48 85.7299 51.68C86.8799 49.98 87.9699 48.24 89.0199 46.45L89.7799 45.1C89.9799 44.75 90.1999 44.41 90.4599 44.1C90.9199 43.53 91.5099 43.09 92.1899 42.81C93.7699 42.23 95.4999 42.2 97.0999 42.73C100.35 44.29 103.18 49.85 102.82 48.81C102.82 48.81 102.23 46.48 102.21 46.45C101.41 44.45 100.59 42.19 98.5199 40.45C96.2999 38.76 93.3399 38.42 90.7999 39.57C89.6099 40.11 88.5799 40.94 87.7999 41.98C87.4199 42.46 87.0799 42.98 86.7999 43.53L86.1299 44.85C85.1999 46.6 84.2099 48.33 83.1299 50.02C79.2899 56.43 74.7599 62.4 69.6199 67.82L69.4599 67.98C64.1499 73.06 58.2999 77.53 51.9999 81.31C50.2999 82.31 48.5799 83.31 46.8299 84.31L45.4699 85C44.9199 85.28 44.3999 85.61 43.9199 86C42.8699 86.78 42.0399 87.81 41.4999 89C40.4299 91.52 40.8099 94.43 42.4999 96.59C45.1899 100.1 51.3299 100.59 51.3599 100.59C52.3599 100.95 46.2999 98.37 44.7399 95.12C44.1899 93.58 44.1899 91.89 44.7399 90.35C44.9999 89.65 45.4299 89.03 45.9999 88.55C46.3099 88.29 46.6499 88.07 46.9999 87.88L48.3499 87.12C50.1299 86.12 51.8699 84.97 53.5799 83.82C60.3699 79.2 65.5799 75.82 71.2299 69.9" fill="#BA8F63" style="fill:#BA8F63;fill:color(display-p3 0.7294 0.5608 0.3882);fill-opacity:1;"/>
<path d="M115.13 31.34C116.33 38.98 109.31 46.22 102.94 47.08C98.46 47.68 93.46 46.65 85.94 44.78C84.83 44.57 83.7 44.24 82.46 43.93C77.88 42.66 73.38 41.13 68.97 39.35C68.1 39.03 67.62 38.11 67.84 37.22C67.97 36.84 68.23 36.51 68.56 36.29C71.93 32.83 75.73 29.81 79.85 27.29C90.26 20.85 94.22 19.98 98.7 19.38C104.88 18.37 113.83 23 115.13 31.34Z" fill="url(#paint3_radial_169_6621)" style=""/>
<path d="M105.52 24.19C108.43 25.57 108.45 29.56 104.01 30.19C101.16 30.57 86.49 31.95 88.2 29.24C91 24.79 101.41 22.24 105.52 24.19Z" fill="#81D4FA" style="fill:#81D4FA;fill:color(display-p3 0.5059 0.8314 0.9804);fill-opacity:1;"/>
<path d="M72.6501 31.1L63.4201 39.38L66.8401 26.23C66.8701 26.07 66.9001 25.92 66.9101 25.76C67.2901 23.48 65.7401 21.32 63.4601 20.95C62.9201 20.86 62.3601 20.88 61.8201 21C59.3901 21.67 57.6301 23.79 57.4301 26.3C56.8601 32.11 55.5201 45.8 55.0001 51.13C54.8401 51.66 55.1401 52.22 55.6701 52.38C56.0201 52.49 56.4001 52.39 56.6601 52.13L77.3501 39.05L77.7601 38.76C80.2601 36.84 80.8701 33.18 78.8501 31.06C77.3101 29.44 74.6501 29.57 72.6501 31.1Z" fill="#5D4037" style="fill:#5D4037;fill:color(display-p3 0.3647 0.2510 0.2157);fill-opacity:1;"/>
<path d="M25.9 104C25.54 99.69 25.53 95.81 29.42 84.74C30.94 80.36 33 76.19 35.55 72.32C35.69 71.96 35.95 71.66 36.28 71.46C37.07 71.06 38.03 71.33 38.51 72.07C41.08 75.83 43.43 79.73 45.57 83.75C46.11 84.85 46.65 85.83 47.08 86.83C50.38 93.52 52.37 97.99 52.73 102.3C53.24 108.43 47.91 116.49 40.52 116.95C32.47 117.41 26.28 110 25.9 104Z" fill="url(#paint4_radial_169_6621)" style=""/>
<path d="M33 92.17C35.17 90 36.9001 104 37.1301 106.75C37.4801 111.03 33.7401 111.83 31.8601 109.4C29.1801 106 29.43 95.69 33 92.17Z" fill="#81D4FA" style="fill:#81D4FA;fill:color(display-p3 0.5059 0.8314 0.9804);fill-opacity:1;"/>
<path d="M30.17 78.76L36.83 68.29L24.42 73.83L24 74C21.81 74.74 19.43 73.57 18.68 71.38C18.5 70.86 18.43 70.31 18.47 69.76C18.73 67.25 20.53 65.17 22.98 64.56L47 58.05C47.5 57.81 48.1 58.02 48.34 58.52C48.5 58.85 48.47 59.24 48.25 59.53L38.78 82.08C38.72 82.24 38.65 82.39 38.57 82.54C37.09 85.32 33.57 86.54 31.15 84.88C29.3 83.62 29 81 30.17 78.76Z" fill="#5D4037" style="fill:#5D4037;fill:color(display-p3 0.3647 0.2510 0.2157);fill-opacity:1;"/>
<defs>
<radialGradient id="paint0_radial_169_6621" cx="0" cy="0" r="1" gradientUnits="userSpaceOnUse" gradientTransform="translate(62.1249 61.053) rotate(-45) scale(57.1931)">
<stop offset="0.5" stop-color="#FDE030" style="stop-color:#FDE030;stop-color:color(display-p3 0.9922 0.8784 0.1882);stop-opacity:1;"/>
<stop offset="0.92" stop-color="#F7C02B" style="stop-color:#F7C02B;stop-color:color(display-p3 0.9686 0.7529 0.1686);stop-opacity:1;"/>
<stop offset="1" stop-color="#F4A223" style="stop-color:#F4A223;stop-color:color(display-p3 0.9569 0.6353 0.1373);stop-opacity:1;"/>
</radialGradient>
<radialGradient id="paint1_radial_169_6621" cx="0" cy="0" r="1" gradientUnits="userSpaceOnUse" gradientTransform="translate(38.5365 33.4931) rotate(-44.2792) scale(103.862 103.829)">
<stop offset="0.3533" stop-color="#F9DDBD" style="stop-color:#F9DDBD;stop-color:color(display-p3 0.9765 0.8667 0.7412);stop-opacity:1;"/>
<stop offset="0.8723" stop-color="#FFD29C" style="stop-color:#FFD29C;stop-color:color(display-p3 1.0000 0.8235 0.6118);stop-opacity:1;"/>
</radialGradient>
<radialGradient id="paint2_radial_169_6621" cx="0" cy="0" r="1" gradientUnits="userSpaceOnUse" gradientTransform="translate(38.5365 33.4931) rotate(-44.2792) scale(103.862 103.829)">
<stop offset="0.3533" stop-color="#E0BB95" style="stop-color:#E0BB95;stop-color:color(display-p3 0.8784 0.7333 0.5843);stop-opacity:1;"/>
<stop offset="0.8723" stop-color="#CCA47A" style="stop-color:#CCA47A;stop-color:color(display-p3 0.8000 0.6431 0.4784);stop-opacity:1;"/>
</radialGradient>
<radialGradient id="paint3_radial_169_6621" cx="0" cy="0" r="1" gradientUnits="userSpaceOnUse" gradientTransform="translate(77.4847 30.5037) rotate(-97.4809) scale(31.5526 48.8005)">
<stop offset="0.46" stop-color="#29B6F6" style="stop-color:#29B6F6;stop-color:color(display-p3 0.1608 0.7137 0.9647);stop-opacity:1;"/>
<stop offset="1" stop-color="#1E88E5" style="stop-color:#1E88E5;stop-color:color(display-p3 0.1176 0.5333 0.8980);stop-opacity:1;"/>
</radialGradient>
<radialGradient id="paint4_radial_169_6621" cx="0" cy="0" r="1" gradientUnits="userSpaceOnUse" gradientTransform="translate(39.4418 73.6934) rotate(175.426) scale(30.3567 46.4641)">
<stop offset="0.46" stop-color="#29B6F6" style="stop-color:#29B6F6;stop-color:color(display-p3 0.1608 0.7137 0.9647);stop-opacity:1;"/>
<stop offset="1" stop-color="#1E88E5" style="stop-color:#1E88E5;stop-color:color(display-p3 0.1176 0.5333 0.8980);stop-opacity:1;"/>
</radialGradient>
</defs>
</svg>
