<svg width="129" height="128" viewBox="0 0 129 128" fill="none" xmlns="http://www.w3.org/2000/svg">
<path d="M48.9154 27.5803C48.4002 29.2054 48.8753 30.2947 50.5164 30.3763C52.1575 30.4579 62.2308 30.2284 63.0643 30.1262C64.2763 29.9799 64.5506 28.9973 64.2119 27.9792C63.8647 26.9628 58.756 12.7695 58.2856 11.4683C57.8151 10.1671 56.1469 9.08868 55.1294 11.1323C54.112 13.1759 49.3032 26.3569 48.9154 27.5803Z" fill="#FFA722" style="fill:#FFA722;fill:color(display-p3 1.0000 0.6549 0.1333);fill-opacity:1;"/>
<path d="M76.1202 33.0333C74.6711 33.7949 74.8889 34.73 75.9356 35.7746C76.9824 36.8192 84.2667 44.4206 84.897 44.9274C85.5343 45.4241 86.4547 45.4112 87.0349 44.3717C87.6166 43.3407 94.5118 28.5238 95.0397 27.5819C95.9115 26.0312 94.9766 24.7373 93.3427 25.4981C92.0993 26.0896 77.0334 32.5559 76.1202 33.0333Z" fill="#FFA722" style="fill:#FFA722;fill:color(display-p3 1.0000 0.6549 0.1333);fill-opacity:1;"/>
<path d="M92.5238 56.0246C91.3025 55.6013 89.9 56.0467 89.79 57.5349C89.68 59.0231 89.9564 69.6325 89.971 70.5614C89.9855 71.4904 90.831 72.256 91.9028 71.8282C92.9745 71.4004 107.96 66.2499 108.94 65.8039C110.649 65.0204 110.911 63.1173 108.801 62.121C107.432 61.4703 93.6793 56.425 92.5238 56.0246Z" fill="#FFA722" style="fill:#FFA722;fill:color(display-p3 1.0000 0.6549 0.1333);fill-opacity:1;"/>
<path d="M84.7369 82.7318C85.8078 81.8735 86.9512 82.1619 87.4997 83.4574C88.0466 84.7443 93.89 97.8782 94.8889 100.32C95.3892 101.546 94.1223 102.862 92.794 102.336C91.4572 101.811 76.7944 95.1771 75.8244 94.5928C74.4323 93.7706 75.0627 92.5285 75.5462 91.8673C76.5254 90.5163 83.7277 83.5435 84.7369 82.7318Z" fill="#FFA722" style="fill:#FFA722;fill:color(display-p3 1.0000 0.6549 0.1333);fill-opacity:1;"/>
<path d="M49.9925 96.9962C48.462 97.1314 48.2698 98.5558 48.7204 99.7024C49.1639 100.859 54.223 115.589 54.586 116.69C55.1117 118.289 56.9626 118.648 57.769 116.793C58.5755 114.938 63.9711 101.226 64.3764 99.9554C65.1092 97.6571 64.2014 97.3601 62.9837 97.0504C61.7745 96.7391 51.5926 96.8569 49.9925 96.9962Z" fill="#FFA722" style="fill:#FFA722;fill:color(display-p3 1.0000 0.6549 0.1333);fill-opacity:1;"/>
<path d="M25.2564 83.5965C25.9823 81.6862 27.4082 81.8869 28.69 83.3448C29.5611 84.343 36.5706 90.8441 37.2489 91.5617C37.9288 92.2878 38.4403 93.8099 36.8703 94.4885C35.2848 95.1788 22.5743 101.172 20.554 101.934C18.5337 102.697 17.031 101.28 18.0399 99.2378C18.6256 98.039 24.8434 84.684 25.2564 83.5965Z" fill="#FFA722" style="fill:#FFA722;fill:color(display-p3 1.0000 0.6549 0.1333);fill-opacity:1;"/>
<path d="M20.0025 71.1264C22.0718 71.6205 22.9155 71.1472 23.0604 69.7053C23.2538 67.8149 23.2895 59.3094 23.0185 57.4263C22.8436 56.202 22.1244 55.1228 20.3107 55.7677C18.4971 56.4125 5.40682 60.7888 3.80137 61.7025C1.93453 62.7703 2.48647 64.9352 3.94124 65.3854C5.66606 65.9172 18.5412 70.7829 20.0025 71.1264Z" fill="#FFA722" style="fill:#FFA722;fill:color(display-p3 1.0000 0.6549 0.1333);fill-opacity:1;"/>
<path d="M37.3965 35.4437C38.3158 34.3851 37.7555 33.2149 36.6623 32.7238C35.569 32.2328 21.9611 25.7895 20.2194 24.883C18.6828 24.0876 17.1043 24.7679 17.9984 27.0713C18.6403 28.7273 25.2557 43.0359 25.7118 44.0234C26.2318 45.1659 27.2429 45.5931 28.1488 44.6513C29.0393 43.721 36.4425 36.5527 37.3965 35.4437Z" fill="#FFA722" style="fill:#FFA722;fill:color(display-p3 1.0000 0.6549 0.1333);fill-opacity:1;"/>
<path d="M33.7095 45.38C25.4395 56.01 25.5795 74.91 36.1495 84.27C48.1595 94.9 65.0495 94.79 75.6795 85.01C88.4295 73.29 87.6895 53.77 76.4295 42.72C65.1095 31.61 44.8695 31.03 33.7095 45.38Z" fill="#FCC11A" style="fill:#FCC11A;fill:color(display-p3 0.9882 0.7569 0.1020);fill-opacity:1;"/>
<path d="M46.9995 41.7301C43.7295 40.2801 40.1495 44.22 38.5895 46.92C37.0295 49.62 35.5795 54.9201 38.8995 56.2701C42.2195 57.6201 44.6095 55.3401 46.9995 51.3901C49.3895 47.4401 50.7395 43.3901 46.9995 41.7301Z" fill="#FEE269" style="fill:#FEE269;fill:color(display-p3 0.9961 0.8863 0.4118);fill-opacity:1;"/>
<path d="M112.989 68.59C112.999 67.94 115.199 45.51 95.4995 41.36C76.4595 37.34 71.4695 55.18 71.4695 55.18C71.4695 55.18 64.7195 54.35 59.7695 58.11C54.8195 61.88 54.5395 68.09 54.5395 68.09C54.5395 68.09 46.5795 67.79 42.8295 72.22C39.4395 76.22 40.5695 79.83 40.5695 79.83L62.5395 85.4L118.069 83.91L124.439 80.05C124.439 80.05 124.799 75 121.509 71.8C116.969 67.4 112.989 68.59 112.989 68.59Z" fill="#E2EBEE" style="fill:#E2EBEE;fill:color(display-p3 0.8863 0.9216 0.9333);fill-opacity:1;"/>
<path d="M61.4194 77.3C61.4194 77.3 55.3294 79.98 47.7894 79.32C43.3094 78.93 40.4494 77.6 40.4494 77.6C40.4494 77.6 39.6794 82.78 43.7494 85.33C46.7994 87.24 49.7094 87.53 55.1294 87.51C60.5494 87.49 109.869 87.39 113.419 87.35C116.979 87.31 120.359 86.68 122.089 85.07C124.269 83.04 124.429 80.05 124.429 80.05C124.429 80.05 121.009 81.07 116.249 80.45C111.509 79.83 108.749 77.71 108.749 77.71C108.749 77.71 105.339 80.62 87.7094 80.94C68.6894 81.29 61.4194 77.3 61.4194 77.3Z" fill="#BACDD2" style="fill:#BACDD2;fill:color(display-p3 0.7294 0.8039 0.8235);fill-opacity:1;"/>
</svg>
