<svg width="129" height="128" viewBox="0 0 129 128" fill="none" xmlns="http://www.w3.org/2000/svg">
<path d="M59.0101 78.1687H73.6498L82.3204 89.167L88.5074 96.3286L103.365 115H87.6796L77.5712 102.467L73.2577 96.4991L59.0101 78.1687ZM105.5 63.8455C105.5 73.2522 103.699 81.3091 100.097 88.016C96.5244 94.6945 91.6445 99.81 85.4575 103.362C79.2995 106.915 72.3137 108.691 64.5 108.691C56.6863 108.691 49.686 106.915 43.4989 103.362C37.341 99.7815 32.461 94.6519 28.8592 87.9734C25.2864 81.2664 23.5 73.2238 23.5 63.8455C23.5 54.4387 25.2864 46.3961 28.8592 39.7176C32.461 33.0107 37.341 27.881 43.4989 24.3286C49.686 20.7762 56.6863 19 64.5 19C72.3137 19 79.2995 20.7762 85.4575 24.3286C91.6445 27.881 96.5244 33.0107 100.097 39.7176C103.699 46.3961 105.5 54.4387 105.5 63.8455ZM89.2481 63.8455C89.2481 57.2238 88.1879 51.6394 86.0675 47.0924C83.9761 42.5169 81.0714 39.0639 77.3533 36.7336C73.6353 34.3748 69.3509 33.1954 64.5 33.1954C59.6491 33.1954 55.3647 34.3748 51.6467 36.7336C47.9286 39.0639 45.0094 42.5169 42.8889 47.0924C40.7976 51.6394 39.7519 57.2238 39.7519 63.8455C39.7519 70.4671 40.7976 76.0657 42.8889 80.6412C45.0094 85.1883 47.9286 88.6412 51.6467 91C55.3647 93.3304 59.6491 94.4956 64.5 94.4956C69.3509 94.4956 73.6353 93.3304 77.3533 91C81.0714 88.6412 83.9761 85.1883 86.0675 80.6412C88.1879 76.0657 89.2481 70.4671 89.2481 63.8455Z" fill="#DFE6EB" style="fill:#DFE6EB;fill:color(display-p3 0.8745 0.9020 0.9216);fill-opacity:1;"/>
<path d="M59.0101 78.1687H73.6498L82.3204 89.167L88.5074 96.3286L103.365 115H87.6796L77.5712 102.467L73.2577 96.4991L59.0101 78.1687ZM105.5 63.8455C105.5 73.2522 103.699 81.3091 100.097 88.016C96.5244 94.6945 91.6445 99.81 85.4575 103.362C79.2995 106.915 72.3137 108.691 64.5 108.691C56.6863 108.691 49.686 106.915 43.4989 103.362C37.341 99.7815 32.461 94.6519 28.8592 87.9734C25.2864 81.2664 23.5 73.2238 23.5 63.8455C23.5 54.4387 25.2864 46.3961 28.8592 39.7176C32.461 33.0107 37.341 27.881 43.4989 24.3286C49.686 20.7762 56.6863 19 64.5 19C72.3137 19 79.2995 20.7762 85.4575 24.3286C91.6445 27.881 96.5244 33.0107 100.097 39.7176C103.699 46.3961 105.5 54.4387 105.5 63.8455ZM89.2481 63.8455C89.2481 57.2238 88.1879 51.6394 86.0675 47.0924C83.9761 42.5169 81.0714 39.0639 77.3533 36.7336C73.6353 34.3748 69.3509 33.1954 64.5 33.1954C59.6491 33.1954 55.3647 34.3748 51.6467 36.7336C47.9286 39.0639 45.0094 42.5169 42.8889 47.0924C40.7976 51.6394 39.7519 57.2238 39.7519 63.8455C39.7519 70.4671 40.7976 76.0657 42.8889 80.6412C45.0094 85.1883 47.9286 88.6412 51.6467 91C55.3647 93.3304 59.6491 94.4956 64.5 94.4956C69.3509 94.4956 73.6353 93.3304 77.3533 91C81.0714 88.6412 83.9761 85.1883 86.0675 80.6412C88.1879 76.0657 89.2481 70.4671 89.2481 63.8455Z" fill="#8CAFBF" style="fill:#8CAFBF;fill:color(display-p3 0.5490 0.6863 0.7490);fill-opacity:1;"/>
<path fill-rule="evenodd" clip-rule="evenodd" d="M52.8786 75.1687H75.1049L81.2998 83.0267C82.0493 81.9281 82.7306 80.7169 83.3419 79.3876L83.3456 79.3798C85.2349 75.3029 86.2481 70.1619 86.2481 63.8455C86.2481 57.5281 85.2346 52.4047 83.3486 48.3603L83.3438 48.3499L83.339 48.3395C81.4547 44.217 78.9115 41.2507 75.7601 39.2755L75.7532 39.2712L75.7462 39.2668C72.557 37.2435 68.8417 36.1954 64.5 36.1954C60.1583 36.1954 56.443 37.2435 53.2538 39.2668L53.2468 39.2712L53.2399 39.2755C50.0855 41.2527 47.526 44.2228 45.6127 48.3499C43.7517 52.3978 42.7519 57.5253 42.7519 63.8455C42.7519 70.1613 43.7504 75.3043 45.6127 79.3837C47.5237 83.4775 50.0834 86.4535 53.2469 88.4624C56.4363 90.4596 60.1544 91.4956 64.5 91.4956C64.8551 91.4956 65.2061 91.4886 65.5529 91.4748L52.8786 75.1687ZM71.0777 93.6944C70.0058 93.9719 68.899 94.1773 67.757 94.3107C66.7013 94.4339 65.6156 94.4956 64.5 94.4956C59.6491 94.4956 55.3647 93.3304 51.6467 91C47.9286 88.6412 45.0094 85.1883 42.8889 80.6412C40.7976 76.0657 39.7519 70.4671 39.7519 63.8455C39.7519 57.2238 40.7976 51.6394 42.8889 47.0924C45.0094 42.5169 47.9286 39.0639 51.6467 36.7336C55.3647 34.3748 59.6491 33.1954 64.5 33.1954C69.3509 33.1954 73.6353 34.3748 77.3533 36.7336C81.0714 39.0639 83.9761 42.5169 86.0675 47.0924C88.1879 51.6394 89.2481 57.2238 89.2481 63.8455C89.2481 70.4671 88.1879 76.0657 86.0675 80.6412C85.2482 82.4226 84.304 84.036 83.2351 85.4815C82.6175 86.3166 81.9583 87.0956 81.2574 87.8186L73.6498 78.1687H59.0101L71.0777 93.6944ZM77.2851 106.891C73.303 108.091 69.0413 108.691 64.5 108.691C56.6863 108.691 49.686 106.915 43.4989 103.362C37.341 99.7815 32.461 94.6519 28.8592 87.9734C25.2864 81.2664 23.5 73.2238 23.5 63.8455C23.5 54.4387 25.2864 46.3961 28.8592 39.7176C32.461 33.0107 37.341 27.881 43.4989 24.3286C49.686 20.7762 56.6863 19 64.5 19C72.3137 19 79.2995 20.7762 85.4575 24.3286C91.6445 27.881 96.5244 33.0107 100.097 39.7176C103.699 46.3961 105.5 54.4387 105.5 63.8455C105.5 73.2522 103.699 81.3091 100.097 88.016C98.1788 91.602 95.8836 94.7374 93.2115 97.4221C92.502 98.1349 91.766 98.8159 91.0033 99.4652L103.365 115H87.6796L80.2978 105.848C79.312 106.235 78.3077 106.583 77.2851 106.891ZM79.3064 109.397C74.6957 110.932 69.7534 111.691 64.5 111.691C56.2135 111.691 48.6893 109.802 42.0052 105.964L41.998 105.96L41.9909 105.956C35.3234 102.079 30.0652 96.5296 26.2187 89.3974L26.2151 89.3906L26.2114 89.3838C22.3593 82.1525 20.5 73.6022 20.5 63.8455C20.5 54.0625 22.3585 45.5093 26.2139 38.3025L26.2162 38.2982C30.0627 31.1357 35.3238 25.5813 41.9999 21.73L42.0051 21.7269C48.6893 17.8891 56.2135 16 64.5 16C72.7854 16 80.2968 17.8887 86.9543 21.7287C93.6586 25.5788 98.9219 31.1334 102.741 38.2992C106.627 45.5069 108.5 54.0616 108.5 63.8455C108.5 73.6315 106.626 82.1992 102.741 89.4333C102.742 89.4325 102.742 89.4318 102.742 89.4311M79.3064 109.397L86.2451 118H109.586L95.091 99.7841C98.081 96.8321 100.631 93.3768 102.741 89.4333" fill="#427687" style="fill:#427687;fill:color(display-p3 0.2588 0.4627 0.5294);fill-opacity:1;"/>
</svg>
