<svg width="128" height="128" viewBox="0 0 128 128" fill="none" xmlns="http://www.w3.org/2000/svg">
<path d="M111.638 92.0722C114.715 83.8745 109.781 76.7701 101.587 73.6953C93.393 70.6204 85.0035 72.7252 81.9273 80.9229L75.1826 98.8962C72.1078 107.09 76.271 116.248 84.4649 119.323C92.6588 122.397 101.819 118.239 104.895 110.042L111.638 92.0722Z" fill="#E0E0E0" style="fill:#E0E0E0;fill:color(display-p3 0.8784 0.8784 0.8784);fill-opacity:1;"/>
<path opacity="0.51" d="M108.787 93.544C110.049 90.179 110.795 85.5571 108.607 81.4569C107.657 79.6776 106.35 77.9466 104.745 77.6824C102.179 77.2617 101.897 80.162 102.297 82.0558C102.584 83.4172 103.336 85.1134 101.663 90.0335C101.011 91.9447 100.353 93.7194 99.1243 95.3186C95.903 99.5102 92.2816 97.1622 91.5063 97.2747C90.1159 97.4774 89.356 98.9707 88.8585 100.285C87.6671 103.425 86.2532 106.777 85.4112 110.026C84.8303 112.268 85.0582 115.568 87.7179 116.444C89.8405 117.145 91.566 116.986 93.7089 116.454C98.0165 115.39 101.598 112.214 103.156 108.062C103.162 108.06 108.784 93.5516 108.787 93.544Z" fill="white" style="fill:white;fill-opacity:1;"/>
<path d="M102.573 74.0956C102.248 73.9563 101.94 73.7238 101.249 74.0064C100.556 74.2929 100.223 74.693 99.6669 75.933L94.928 88.3997L96.9242 89.1488L102.573 74.0956Z" fill="#B5B5B5" style="fill:#B5B5B5;fill:color(display-p3 0.7098 0.7098 0.7098);fill-opacity:1;"/>
<path d="M107.501 95.0048C106.059 93.2406 103.895 91.3222 100.662 89.5798C100.197 89.3273 99.9891 88.7721 100.175 88.2778L100.827 86.5402C101.849 83.4926 100.781 81.6215 98.7355 80.8539C96.6899 80.0862 94.5918 80.2445 92.9829 84.0001L92.4721 85.292C92.2395 85.877 91.6192 86.2125 91.0017 86.0892C87.8163 85.4577 85.2058 85.5018 83.1404 85.8502C81.114 86.1873 79.4296 87.5896 78.7091 89.5097L78.5378 89.966C79.0608 89.5203 82.6425 86.7956 90.0012 88.0735C90.6652 88.1882 91.0477 88.8913 90.8009 89.5144L90.6606 89.8651C89.4609 93.8134 90.9103 95.4764 92.9559 96.244C95.0015 97.0117 97.171 96.3857 98.1817 93.5767L98.7125 92.1623C98.9137 91.6262 99.5483 91.3915 100.047 91.6697C107.176 95.6507 108.133 100.36 108.241 101.112L108.412 100.656C109.134 98.7451 108.794 96.5875 107.501 95.0048Z" fill="#B5B5B5" style="fill:#B5B5B5;fill:color(display-p3 0.7098 0.7098 0.7098);fill-opacity:1;"/>
<path d="M93.498 95.2503C91.9543 94.671 91.2194 92.8726 91.8443 91.2072L94.581 83.9145C95.206 82.2491 96.9425 81.3782 98.4863 81.9575C100.03 82.5368 100.765 84.3351 100.14 86.0005L97.4033 93.2933C96.7783 94.9587 95.0417 95.8296 93.498 95.2503Z" fill="#504F4F" style="fill:#504F4F;fill:color(display-p3 0.3137 0.3098 0.3098);fill-opacity:1;"/>
<path d="M99.4777 85.1881C98.9609 87.8831 97.6198 90.8674 96.6796 92.8526C95.7395 94.8378 94.5982 94.8737 94.0217 94.7918C93.2393 94.6804 92.5079 94.1326 92.482 93.2424C92.482 93.2424 93.5806 92.6613 94.1655 91.484C95.1408 89.5207 96.0477 87.497 96.5487 85.3643C96.7704 84.4151 97.0596 83.5867 96.3216 83.0104C96.3216 83.0104 96.7072 82.4915 97.4682 82.4864C99.8248 82.4599 99.5943 84.5769 99.4777 85.1881Z" fill="#757575" style="fill:#757575;fill:color(display-p3 0.4588 0.4588 0.4588);fill-opacity:1;"/>
<path opacity="0.51" d="M96.0828 74.2368C98.2095 74.2107 98.1415 76.0678 98.0212 76.4347C97.8176 77.035 97.4221 79.4414 96.1895 79.6513C93.2952 80.1397 93.1782 82.1389 91.7023 82.188C89.8714 82.247 89.8001 80.1598 90.2742 78.9887C92.277 74.0449 95.049 74.2523 96.0828 74.2368Z" fill="white" style="fill:white;fill-opacity:1;"/>
<path d="M113.738 53.3286L23.7843 81.2468C22.3506 81.6917 20.7643 80.8568 20.3193 79.4232L10.2246 38.6258C9.75491 37.1125 10.6145 35.6057 12.0482 35.1608L97.3268 8.69362C98.7604 8.24867 100.347 9.08357 100.792 10.5172L115.57 49.8611C116.015 51.2948 115.18 52.8812 113.738 53.3286Z" fill="#C3D2D9" style="fill:#C3D2D9;fill:color(display-p3 0.7647 0.8235 0.8510);fill-opacity:1;"/>
<path d="M17.1281 45.0659C17.3704 45.8464 18.0905 46.2254 18.7914 46.0079L22.5109 44.8535C23.2118 44.636 23.5686 43.8442 23.3486 43.1353L22.8915 41.2688L16.7268 43.1821L17.1281 45.0659Z" fill="#2F7889" style="fill:#2F7889;fill:color(display-p3 0.1843 0.4706 0.5373);fill-opacity:1;"/>
<path d="M26.4948 42.1589C26.7371 42.9395 27.4572 43.3185 28.1581 43.1009L31.8219 41.9638C32.6104 41.7191 32.8993 41.0182 32.6595 40.2456L32.091 38.4137L25.9502 40.3196L26.4948 42.1589Z" fill="#2F7889" style="fill:#2F7889;fill:color(display-p3 0.1843 0.4706 0.5373);fill-opacity:1;"/>
<path d="M35.3112 39.4226C35.5535 40.2031 36.3453 40.5599 37.0542 40.3399L40.7179 39.2028C41.4188 38.9853 41.8874 38.2723 41.6352 37.4599L41.0667 35.628L34.7427 37.5907L35.3112 39.4226Z" fill="#2F7889" style="fill:#2F7889;fill:color(display-p3 0.1843 0.4706 0.5373);fill-opacity:1;"/>
<path d="M44.2795 36.6391C44.5217 37.4197 45.3135 37.7764 46.0224 37.5564L49.6862 36.4193C50.3871 36.2018 50.868 35.5286 50.6035 34.6764L50.0349 32.8445L43.7109 34.8073L44.2795 36.6391Z" fill="#2F7889" style="fill:#2F7889;fill:color(display-p3 0.1843 0.4706 0.5373);fill-opacity:1;"/>
<path d="M53.1765 33.8779C53.4187 34.6585 54.107 35.0473 54.9194 34.7952L58.5832 33.6581C59.2841 33.4406 59.7872 32.8391 59.5005 31.9152L58.9319 30.0833L52.6079 32.046L53.1765 33.8779Z" fill="#2F7889" style="fill:#2F7889;fill:color(display-p3 0.1843 0.4706 0.5373);fill-opacity:1;"/>
<path d="M62.1525 31.092C62.3948 31.8726 63.1866 32.2293 63.8955 32.0093L67.5592 30.8722C68.2601 30.6547 68.7633 30.0532 68.4765 29.1293L67.908 27.2974L61.584 29.2601L62.1525 31.092Z" fill="#2F7889" style="fill:#2F7889;fill:color(display-p3 0.1843 0.4706 0.5373);fill-opacity:1;"/>
<path d="M71.049 28.3308C71.2913 29.1113 72.0831 29.4681 72.7919 29.2481L76.4557 28.111C77.1566 27.8935 77.6422 27.376 77.373 26.3681L76.8045 24.5362L70.4805 26.4989L71.049 28.3308Z" fill="#2F7889" style="fill:#2F7889;fill:color(display-p3 0.1843 0.4706 0.5373);fill-opacity:1;"/>
<path d="M79.9382 25.572C80.1804 26.3526 80.9722 26.7093 81.6811 26.4893L85.5121 25.3003C86.3325 25.0457 86.8175 24.3014 86.4789 23.4634L85.829 21.7354L79.3696 23.7401L79.9382 25.572Z" fill="#2F7889" style="fill:#2F7889;fill:color(display-p3 0.1843 0.4706 0.5373);fill-opacity:1;"/>
<path d="M89.3044 22.665C89.5466 23.4455 90.3385 23.8023 91.0473 23.5823L98.1121 21.3896C98.813 21.1721 99.2716 20.4273 99.0294 19.6467L98.3334 17.8544L88.7438 20.8306L89.3124 22.6625L89.3044 22.665Z" fill="#2F7889" style="fill:#2F7889;fill:color(display-p3 0.1843 0.4706 0.5373);fill-opacity:1;"/>
<path d="M95.5065 31.0003C95.724 31.7012 96.5406 32.1376 97.2494 31.9176L101.582 30.5729C102.283 30.3554 102.742 29.6105 102.5 28.83L102.052 27.6679L95.1461 29.8111L95.5145 30.9979L95.5065 31.0003Z" fill="#2F7889" style="fill:#2F7889;fill:color(display-p3 0.1843 0.4706 0.5373);fill-opacity:1;"/>
<path d="M86.4347 33.8158C86.6523 34.5167 87.3971 34.9753 88.1777 34.7331L91.8414 33.596C92.5423 33.3784 93.001 32.6336 92.7587 31.853L92.3904 30.6663L86.0664 32.629L86.4347 33.8158Z" fill="#2F7889" style="fill:#2F7889;fill:color(display-p3 0.1843 0.4706 0.5373);fill-opacity:1;"/>
<path d="M77.4582 36.6017C77.7553 37.2778 78.4922 37.739 79.2011 37.519L82.8649 36.3819C83.5658 36.1643 84.0244 35.4195 83.7822 34.6389L83.4139 33.4522L77.0898 35.4149L77.4582 36.6017Z" fill="#2F7889" style="fill:#2F7889;fill:color(display-p3 0.1843 0.4706 0.5373);fill-opacity:1;"/>
<path d="M68.57 39.3605C68.7875 40.0614 69.604 40.4978 70.3129 40.2778L73.9767 39.1407C74.6776 38.9231 75.1362 38.1783 74.894 37.3977L74.5257 36.211L68.2017 38.1737L68.57 39.3605Z" fill="#2F7889" style="fill:#2F7889;fill:color(display-p3 0.1843 0.4706 0.5373);fill-opacity:1;"/>
<path d="M59.5934 42.1463C59.8906 42.8225 60.6275 43.2836 61.3363 43.0636L65.0001 41.9265C65.701 41.709 66.1597 40.9642 65.9174 40.1836L65.5491 38.9969L59.2251 40.9596L59.5934 42.1463Z" fill="#2F7889" style="fill:#2F7889;fill:color(display-p3 0.1843 0.4706 0.5373);fill-opacity:1;"/>
<path d="M50.6969 44.9073C50.9145 45.6082 51.731 46.0446 52.4399 45.8246L56.1036 44.6875C56.8045 44.47 57.2632 43.7251 57.0209 42.9446L56.6526 41.7579L50.3286 43.7206L50.6969 44.9073Z" fill="#2F7889" style="fill:#2F7889;fill:color(display-p3 0.1843 0.4706 0.5373);fill-opacity:1;"/>
<path d="M41.8004 47.6686C42.018 48.3695 42.8345 48.8059 43.5434 48.5859L47.2072 47.4488C47.9081 47.2312 48.3667 46.4864 48.1245 45.7058L47.7561 44.5191L41.4321 46.4818L41.8004 47.6686Z" fill="#2F7889" style="fill:#2F7889;fill:color(display-p3 0.1843 0.4706 0.5373);fill-opacity:1;"/>
<path d="M32.9035 50.4298C33.121 51.1307 33.8659 51.5893 34.5668 51.3718L38.2305 50.2347C38.9314 50.0172 39.3901 49.2723 39.1478 48.4918L38.7795 47.305L32.5352 49.243L32.9035 50.4298Z" fill="#2F7889" style="fill:#2F7889;fill:color(display-p3 0.1843 0.4706 0.5373);fill-opacity:1;"/>
<path d="M19.5149 54.585C19.7324 55.2859 20.4773 55.7446 21.1782 55.527L28.8721 53.1391C29.573 52.9216 29.952 52.2015 29.7098 51.4209L29.3415 50.2342L19.1471 53.3719L19.5149 54.585Z" fill="#2F7889" style="fill:#2F7889;fill:color(display-p3 0.1843 0.4706 0.5373);fill-opacity:1;"/>
<path d="M76.5452 47.416C76.7454 48.0611 77.4952 48.5357 78.1961 48.3182L81.8599 47.1811C82.5608 46.9636 82.9349 46.2275 82.7099 45.5027L82.3713 44.4115L76.2065 46.3248L76.5452 47.416Z" fill="#2F7889" style="fill:#2F7889;fill:color(display-p3 0.1843 0.4706 0.5373);fill-opacity:1;"/>
<path d="M67.178 50.323C67.3782 50.9681 68.128 51.4427 68.8289 51.2252L72.4927 50.0881C73.1936 49.8705 73.5677 49.1345 73.3427 48.4097L72.9961 47.321L66.8394 49.2318L67.178 50.323Z" fill="#2F7889" style="fill:#2F7889;fill:color(display-p3 0.1843 0.4706 0.5373);fill-opacity:1;"/>
<path d="M57.8118 53.23C58.012 53.8751 58.7618 54.3497 59.4627 54.1322L63.1265 52.9951C63.8274 52.7775 64.2015 52.0415 63.9765 51.3167L63.6379 50.2255L57.4731 52.1388L57.8118 53.23Z" fill="#2F7889" style="fill:#2F7889;fill:color(display-p3 0.1843 0.4706 0.5373);fill-opacity:1;"/>
<path d="M48.4534 56.1346C48.574 56.8045 49.4034 57.2543 50.1043 57.0368L53.7681 55.8997C54.469 55.6821 54.8431 54.9461 54.6181 54.2213L54.2795 53.1301L48.1147 55.0434L48.4534 56.1346Z" fill="#2F7889" style="fill:#2F7889;fill:color(display-p3 0.1843 0.4706 0.5373);fill-opacity:1;"/>
<path d="M39.0868 59.0416C39.2074 59.7115 40.0369 60.1613 40.7378 59.9438L44.4016 58.8067C45.1025 58.5892 45.4765 57.8531 45.2516 57.1283L44.9797 56.2522L38.8149 58.1655L39.0868 59.0416Z" fill="#2F7889" style="fill:#2F7889;fill:color(display-p3 0.1843 0.4706 0.5373);fill-opacity:1;"/>
<path d="M22.129 64.2173C22.3539 64.9421 23.1037 65.4167 23.8046 65.1992L34.5491 61.8645C35.25 61.647 35.6241 60.9109 35.3744 60.1065L35.1461 59.0334L21.8211 63.169L22.129 64.2173Z" fill="#2F7889" style="fill:#2F7889;fill:color(display-p3 0.1843 0.4706 0.5373);fill-opacity:1;"/>
<path d="M86.3176 44.3829C86.6469 45.1626 87.364 45.56 88.0729 45.34L105.062 40.0673C105.763 39.8498 106.216 39.089 105.967 38.2846L105.61 37.164L85.9655 43.3046L86.3176 44.3829Z" fill="#2F7889" style="fill:#2F7889;fill:color(display-p3 0.1843 0.4706 0.5373);fill-opacity:1;"/>
<path d="M103.53 50.8029L108.412 49.2876C109.113 49.0701 109.565 48.3013 109.312 47.4889L108.929 46.2544L101.387 48.5953L101.77 49.8299C102 50.5706 102.829 51.0205 103.53 50.8029Z" fill="#2F7889" style="fill:#2F7889;fill:color(display-p3 0.1843 0.4706 0.5373);fill-opacity:1;"/>
<path d="M93.2949 53.9792L97.4366 52.6938C98.1375 52.4763 98.5887 51.7075 98.3366 50.8951L97.9337 49.5968L91.1595 51.7691L91.5427 53.0037C91.7646 53.7469 92.5144 54.2214 93.2949 53.9792Z" fill="#2F7889" style="fill:#2F7889;fill:color(display-p3 0.1843 0.4706 0.5373);fill-opacity:1;"/>
<path d="M47.41 68.2202L87.2019 55.8703C87.9028 55.6528 88.354 54.884 88.1019 54.0716L87.7187 52.8371L45.2666 66.0126L45.6577 67.2446C45.9519 68.1924 46.7091 68.4377 47.41 68.2202Z" fill="#2F7889" style="fill:#2F7889;fill:color(display-p3 0.1843 0.4706 0.5373);fill-opacity:1;"/>
<path d="M37.3747 71.3348L41.4049 70.084C42.1058 69.8664 42.557 69.0977 42.3049 68.2853L41.9217 67.0508L35.4351 69.2211L35.7817 70.3098C35.9946 71.1082 36.6738 71.5523 37.3747 71.3348Z" fill="#2F7889" style="fill:#2F7889;fill:color(display-p3 0.1843 0.4706 0.5373);fill-opacity:1;"/>
<path d="M26.1125 74.8302L31.2179 73.2457C31.9188 73.0282 32.2904 72.2842 32.0383 71.4718L31.6551 70.2372L24.0567 72.5955L24.4399 73.83C24.6618 74.5732 25.4036 75.0502 26.1125 74.8302Z" fill="#2F7889" style="fill:#2F7889;fill:color(display-p3 0.1843 0.4706 0.5373);fill-opacity:1;"/>
<path d="M22.142 44.3056L18.4782 45.4427C17.7773 45.6602 17.067 45.3131 16.8347 44.5644L16.1079 40.9566C15.9003 40.2876 16.2644 39.5197 16.9653 39.3021L20.6291 38.1651C21.33 37.9475 22.0403 38.2947 22.2726 39.0433L22.9994 42.6511C23.207 43.3202 22.8429 44.0881 22.142 44.3056Z" fill="white" style="fill:white;fill-opacity:1;"/>
<path d="M31.3966 41.4327L27.7328 42.5698C27.0319 42.7874 26.3217 42.4402 26.0893 41.6915L25.1395 38.153C24.9319 37.4839 25.2961 36.716 25.997 36.4985L29.5253 35.4034C30.2262 35.1859 30.9365 35.533 31.1688 36.2817L32.254 39.7783C32.4963 40.5588 32.1771 41.1905 31.3966 41.4327Z" fill="white" style="fill:white;fill-opacity:1;"/>
<path d="M40.2934 38.6716L36.6296 39.8087C35.9287 40.0262 35.1388 39.7038 34.9064 38.9551L33.8213 35.4586C33.6136 34.7896 33.9778 34.0216 34.7583 33.7794L38.4221 32.6423C39.123 32.4248 39.9129 32.7472 40.1453 33.4959L41.2305 36.9924C41.4301 37.6639 40.9943 38.4541 40.2934 38.6716Z" fill="white" style="fill:white;fill-opacity:1;"/>
<path d="M49.2616 35.8882L45.5979 37.0253C44.897 37.2428 44.1071 36.9204 43.8747 36.1717L42.7895 32.6751C42.5819 32.0061 42.9461 31.2382 43.7266 30.9959L47.3904 29.8588C48.0913 29.6413 48.8812 29.9637 49.1135 30.7124L50.1987 34.2089C50.4336 34.9656 49.9625 35.6706 49.2616 35.8882Z" fill="white" style="fill:white;fill-opacity:1;"/>
<path d="M58.1584 33.1269L54.4946 34.264C53.7937 34.4816 53.0038 34.1591 52.7714 33.4104L51.6863 29.9139C51.4786 29.2449 51.8428 28.477 52.6233 28.2347L56.2871 27.0976C56.988 26.8801 57.7779 27.2025 58.0103 27.9512L59.0955 31.4477C59.3031 32.1168 58.8593 32.9094 58.1584 33.1269Z" fill="white" style="fill:white;fill-opacity:1;"/>
<path d="M67.1347 30.341L63.4709 31.4781C62.77 31.6957 61.9801 31.3732 61.7478 30.6246L60.6626 27.128C60.4549 26.459 60.8191 25.6911 61.5996 25.4488L65.2634 24.3117C65.9643 24.0942 66.7542 24.4166 66.9866 25.1653L68.0718 28.6618C68.3085 29.4528 67.8356 30.1235 67.1347 30.341Z" fill="white" style="fill:white;fill-opacity:1;"/>
<path d="M76.0312 27.58L72.3674 28.7171C71.6665 28.9346 70.8766 28.6122 70.6442 27.8635L69.5591 24.367C69.3514 23.6979 69.7156 22.93 70.4961 22.6878L74.1599 21.5507C74.8608 21.3331 75.6507 21.6556 75.8831 22.4043L76.9683 25.9008C77.21 26.7077 76.7321 27.3625 76.0312 27.58Z" fill="white" style="fill:white;fill-opacity:1;"/>
<path d="M85.0869 24.7693L81.2558 25.9583C80.5549 26.1758 79.765 25.8534 79.5327 25.1047L78.4475 21.6082C78.2398 20.9391 78.604 20.1712 79.3846 19.929L83.0483 18.7919C83.7492 18.5743 84.5391 18.8967 84.7715 19.6454L86.016 23.0925C86.2236 23.7616 85.7878 24.5517 85.0869 24.7693Z" fill="white" style="fill:white;fill-opacity:1;"/>
<path d="M97.5837 20.8908L90.6225 23.0513C89.9216 23.2688 89.1317 22.9464 88.8994 22.1977L87.8142 18.7011C87.6065 18.0321 87.9707 17.2642 88.7513 17.0219L95.5372 14.9158C96.2381 14.6983 97.028 15.0207 97.2604 15.7694L98.5208 19.2116C98.7205 19.8831 98.2846 20.6732 97.5837 20.8908Z" fill="white" style="fill:white;fill-opacity:1;"/>
<path d="M96.8489 31.4926L101.182 30.1479C101.883 29.9303 102.351 29.2173 102.119 28.4686L100.787 25.0488C100.579 24.3797 99.8441 23.9529 99.0636 24.1952L94.9856 25.4608C94.2847 25.6783 93.8162 26.3913 94.0486 27.14L95.1337 30.6365C95.3414 31.3056 96.148 31.7101 96.8489 31.4926Z" fill="white" style="fill:white;fill-opacity:1;"/>
<path d="M87.7851 34.3057L91.4489 33.1686C92.1498 32.9511 92.6183 32.2381 92.386 31.4894L91.3008 27.9929C91.0932 27.3238 90.3582 26.897 89.5776 27.1393L85.9139 28.2764C85.213 28.4939 84.7444 29.2069 84.9768 29.9556L86.062 33.4521C86.2696 34.1212 87.0046 34.548 87.7851 34.3057Z" fill="white" style="fill:white;fill-opacity:1;"/>
<path d="M78.8088 37.0916L82.4726 35.9545C83.1735 35.737 83.642 35.024 83.4097 34.2753L82.3245 30.7788C82.1168 30.1097 81.3819 29.6829 80.6013 29.9252L76.9375 31.0623C76.2366 31.2798 75.7681 31.9928 76.0005 32.7415L77.0856 36.238C77.3729 36.8823 78.1079 37.3091 78.8088 37.0916Z" fill="white" style="fill:white;fill-opacity:1;"/>
<path d="M69.9123 39.8526L73.5761 38.7156C74.277 38.498 74.7455 37.785 74.5132 37.0363L73.428 33.5398C73.2203 32.8708 72.4854 32.444 71.7048 32.6862L68.041 33.8233C67.3402 34.0409 66.8716 34.7539 67.104 35.5025L68.1892 38.9991C68.4048 39.6656 69.2114 40.0702 69.9123 39.8526Z" fill="white" style="fill:white;fill-opacity:1;"/>
<path d="M60.9441 42.6361L64.6078 41.499C65.3087 41.2815 65.7773 40.5685 65.5449 39.8198L64.4597 36.3233C64.2521 35.6542 63.5171 35.2274 62.7366 35.4697L59.0728 36.6068C58.3719 36.8243 57.9034 37.5373 58.1357 38.286L59.2209 41.7825C59.5082 42.4268 60.2352 42.8561 60.9441 42.6361Z" fill="white" style="fill:white;fill-opacity:1;"/>
<path d="M52.0473 45.3974L55.7111 44.2603C56.412 44.0427 56.8805 43.3297 56.6482 42.581L55.563 39.0845C55.3554 38.4155 54.6204 37.9887 53.8398 38.2309L50.1761 39.368C49.4752 39.5856 49.0066 40.2986 49.239 41.0472L50.3242 44.5438C50.5318 45.2128 51.3464 45.6149 52.0473 45.3974Z" fill="white" style="fill:white;fill-opacity:1;"/>
<path d="M43.1508 48.1584L46.8146 47.0213C47.5155 46.8038 47.9841 46.0908 47.7517 45.3421L46.6665 41.8456C46.4589 41.1765 45.7239 40.7497 44.9434 40.992L41.2796 42.1291C40.5787 42.3466 40.1101 43.0596 40.3425 43.8083L41.4277 47.3048C41.6353 47.9739 42.4499 48.3759 43.1508 48.1584Z" fill="white" style="fill:white;fill-opacity:1;"/>
<path d="M34.1745 50.9444L37.8383 49.8073C38.5392 49.5897 39.0077 48.8767 38.7753 48.128L37.6901 44.6315C37.4825 43.9625 36.7475 43.5357 35.967 43.7779L32.3032 44.915C31.6023 45.1326 31.2134 45.8208 31.4458 46.5695L32.531 50.0661C32.7386 50.7351 33.4736 51.1619 34.1745 50.9444Z" fill="white" style="fill:white;fill-opacity:1;"/>
<path d="M20.7858 55.1L28.4797 52.7121C29.1806 52.4946 29.5695 51.8063 29.3372 51.0576L28.252 47.5611C28.0443 46.892 27.3094 46.4652 26.6085 46.6828L19.1933 48.9842C18.4924 49.2017 18.1035 49.89 18.3359 50.6386L19.1423 54.2217C19.3499 54.8907 20.0849 55.3175 20.7858 55.1Z" fill="white" style="fill:white;fill-opacity:1;"/>
<path d="M77.773 47.8214L81.4368 46.6843C82.1377 46.4668 82.5266 45.7785 82.3189 45.1095L81.2337 41.613C81.0261 40.9439 80.3158 40.5968 79.6149 40.8143L75.9511 41.9514C75.2503 42.1689 74.8614 42.8572 75.069 43.5263L76.1542 47.0228C76.3451 47.6097 77.0721 48.039 77.773 47.8214Z" fill="white" style="fill:white;fill-opacity:1;"/>
<path d="M68.4141 50.726L72.0779 49.5889C72.7788 49.3714 73.1677 48.6831 72.96 48.0141L71.8748 44.5175C71.6672 43.8485 70.9569 43.5014 70.256 43.7189L66.5923 44.856C65.8914 45.0735 65.5025 45.7618 65.7101 46.4308L66.7953 49.9274C66.9782 50.5167 67.7132 50.9435 68.4141 50.726Z" fill="white" style="fill:white;fill-opacity:1;"/>
<path d="M59.0476 53.633L62.7114 52.4959C63.4123 52.2784 63.8012 51.5901 63.5936 50.9211L62.5084 47.4246C62.3007 46.7555 61.5905 46.4084 60.8896 46.6259L57.2258 47.763C56.5249 47.9806 56.136 48.6688 56.3437 49.3379L57.4288 52.8344C57.6118 53.4238 58.3467 53.8506 59.0476 53.633Z" fill="white" style="fill:white;fill-opacity:1;"/>
<path d="M49.6812 56.5401L53.345 55.403C54.0459 55.1854 54.4348 54.4972 54.2271 53.8281L53.1419 50.3316C52.9343 49.6626 52.224 49.3154 51.5231 49.5329L47.8594 50.67C47.1585 50.8876 46.7696 51.5758 46.9772 52.2449L48.0624 55.7414C48.2632 56.3602 48.9803 56.7576 49.6812 56.5401Z" fill="white" style="fill:white;fill-opacity:1;"/>
<path d="M40.3228 59.4446L43.9866 58.3075C44.6875 58.0899 45.0763 57.4017 44.8687 56.7326L43.7835 53.2361C43.5759 52.5671 42.8656 52.2199 42.1647 52.4374L38.5009 53.5745C37.8 53.7921 37.4112 54.4803 37.6188 55.1494L38.704 58.6459C38.8073 59.26 39.6219 59.6621 40.3228 59.4446Z" fill="white" style="fill:white;fill-opacity:1;"/>
<path d="M23.3896 64.7005L34.2375 61.3337C34.9384 61.1161 35.3273 60.4279 35.095 59.6792L34.2408 56.111C34.0331 55.4419 33.2982 55.0151 32.5973 55.2327L21.7015 58.6143C21.0006 58.8318 20.6117 59.5201 20.8441 60.2688L21.746 63.8222C21.9537 64.4912 22.6887 64.918 23.3896 64.7005Z" fill="white" style="fill:white;fill-opacity:1;"/>
<path d="M87.6077 44.8478L104.636 39.5628C105.337 39.3452 105.806 38.6322 105.573 37.8835L104.148 34.2481C103.941 33.579 103.206 33.1522 102.425 33.3945L85.4681 38.6573C84.7672 38.8748 84.2986 39.5878 84.531 40.3365L85.8845 43.9942C86.1965 44.7182 86.9068 45.0653 87.6077 44.8478Z" fill="white" style="fill:white;fill-opacity:1;"/>
<path d="M103.11 50.2876L107.992 48.7723C108.693 48.5548 109.162 47.8418 108.929 47.0931L107.613 43.6683C107.405 42.9993 106.671 42.5725 105.89 42.8147L101.239 44.2583C100.538 44.4759 100.069 45.1889 100.301 45.9375L101.387 49.4341C101.594 50.1031 102.409 50.5052 103.11 50.2876Z" fill="white" style="fill:white;fill-opacity:1;"/>
<path d="M92.8752 53.464L97.0169 52.1786C97.7178 51.9611 98.1863 51.2481 97.954 50.4994L96.8688 47.0029C96.6611 46.3338 95.9262 45.9071 95.1456 46.1493L91.0039 47.4347C90.303 47.6523 89.8345 48.3652 90.0669 49.1139L91.1521 52.6105C91.3597 53.2795 92.0947 53.7063 92.8752 53.464Z" fill="white" style="fill:white;fill-opacity:1;"/>
<path d="M46.9904 67.7049L86.7823 55.3551C87.4832 55.1375 87.9517 54.4245 87.7194 53.6759L86.6342 50.1793C86.4265 49.5103 85.6916 49.0835 84.911 49.3258L45.1191 61.6756C44.4182 61.8931 43.9497 62.6061 44.182 63.3548L45.2672 66.8513C45.4556 67.6835 46.2895 67.9225 46.9904 67.7049Z" fill="white" style="fill:white;fill-opacity:1;"/>
<path d="M36.9547 70.8198L40.9848 69.569C41.6857 69.3514 42.1543 68.6385 41.9219 67.8898L40.8367 64.3932C40.6291 63.7242 39.8941 63.2974 39.1932 63.5149L35.1441 64.7891C34.4432 65.0066 34.0543 65.6949 34.2867 66.4436L35.3908 69.9168C35.5869 70.633 36.2538 71.0373 36.9547 70.8198Z" fill="white" style="fill:white;fill-opacity:1;"/>
<path d="M25.6925 74.3154L30.7979 72.7308C31.4988 72.5133 31.8877 71.825 31.6554 71.0763L30.5702 67.5798C30.3625 66.9108 29.6276 66.484 28.9267 66.7015L24.1638 68.1797C23.4629 68.3973 23.074 69.0856 23.3063 69.8342L24.049 73.4371C24.2567 74.1061 24.9837 74.5354 25.6925 74.3154Z" fill="white" style="fill:white;fill-opacity:1;"/>
</svg>
