<svg width="128" height="128" viewBox="0 0 128 128" fill="none" xmlns="http://www.w3.org/2000/svg">
<path d="M33.2706 20.6001C18.4206 20.6001 6.39062 32.6401 6.39062 47.4801C6.39062 62.3301 18.4306 74.3601 33.2706 74.3601C48.1206 74.3601 60.1506 62.3201 60.1506 47.4801C60.1506 32.6401 48.1206 20.6001 33.2706 20.6001ZM40.6906 27.4301L34.1906 38.1601C33.5006 39.2901 31.9006 39.4001 31.0706 38.3801L23.1306 28.6501C22.6006 27.9901 22.8406 27.0201 23.6106 26.6701C28.8406 24.2401 34.6606 23.9401 39.9406 25.5401C40.7506 25.7801 41.1306 26.7101 40.6906 27.4301ZM44.5106 29.2901C44.8106 28.5001 45.7706 28.2201 46.4606 28.7001C48.7006 30.2601 50.7006 32.2401 52.3106 34.6301C53.9306 37.0301 55.0106 39.6201 55.6206 42.2801C55.8106 43.1001 55.1906 43.8801 54.3506 43.8701L41.8106 43.6101C40.4906 43.5801 39.5906 42.2501 40.0606 41.0201L44.5106 29.2901ZM25.6606 42.0301C26.3006 43.1901 25.5906 44.6301 24.2906 44.8401L11.9006 46.8501C11.0706 46.9901 10.3406 46.2901 10.4206 45.4501C10.9206 39.9501 13.3806 34.6601 17.5906 30.7301C18.2106 30.1501 19.2006 30.2901 19.6106 31.0301L25.6606 42.0301ZM12.2006 51.0901L24.7406 51.3501C26.0606 51.3801 26.9606 52.7101 26.4906 53.9401L22.0406 65.6701C21.7406 66.4601 20.7806 66.7401 20.0906 66.2601C17.8506 64.7001 15.8506 62.7201 14.2406 60.3301C12.6206 57.9301 11.5406 55.3401 10.9306 52.6801C10.7406 51.8601 11.3606 51.0701 12.2006 51.0901ZM25.8606 67.5401L32.3606 56.8101C33.0506 55.6801 34.6506 55.5701 35.4806 56.5901L43.4206 66.3201C43.9506 66.9801 43.7106 67.9501 42.9406 68.3001C37.7106 70.7301 31.8906 71.0301 26.6106 69.4301C25.8006 69.1901 25.4206 68.2601 25.8606 67.5401ZM40.8906 52.9401C40.2506 51.7801 40.9606 50.3401 42.2606 50.1301L54.6406 48.1201C55.4706 47.9801 56.2006 48.6801 56.1206 49.5201C55.6206 55.0201 53.1606 60.3101 48.9506 64.2401C48.3306 64.8201 47.3406 64.6801 46.9306 63.9401L40.8906 52.9401Z" fill="#424242" style="fill:#424242;fill:color(display-p3 0.2588 0.2588 0.2588);fill-opacity:1;"/>
<path d="M31.2701 63.2001C39.3611 63.2001 45.9201 56.6411 45.9201 48.5501C45.9201 40.4592 39.3611 33.9001 31.2701 33.9001C23.1791 33.9001 16.6201 40.4592 16.6201 48.5501C16.6201 56.6411 23.1791 63.2001 31.2701 63.2001Z" fill="#B2947C" style="fill:#B2947C;fill:color(display-p3 0.6980 0.5804 0.4863);fill-opacity:1;"/>
<path d="M31.8605 20.6001C17.0105 20.6001 4.98047 32.6401 4.98047 47.4801C4.98047 62.3301 17.0205 74.3601 31.8605 74.3601C46.7105 74.3601 58.7405 62.3201 58.7405 47.4801C58.7405 32.6401 46.7105 20.6001 31.8605 20.6001ZM39.2705 27.4301L32.7705 38.1601C32.0805 39.2901 30.4805 39.4001 29.6505 38.3801L21.7105 28.6501C21.1805 27.9901 21.4205 27.0201 22.1905 26.6701C27.4205 24.2401 33.2405 23.9401 38.5205 25.5401C39.3405 25.7801 39.7105 26.7101 39.2705 27.4301ZM43.0905 29.2901C43.3905 28.5001 44.3505 28.2201 45.0405 28.7001C47.2805 30.2601 49.2805 32.2401 50.8905 34.6301C52.5105 37.0301 53.5905 39.6201 54.2005 42.2801C54.3905 43.1001 53.7705 43.8801 52.9305 43.8701L40.3905 43.6101C39.0705 43.5801 38.1705 42.2501 38.6405 41.0201L43.0905 29.2901ZM24.2405 42.0301C24.8805 43.1901 24.1705 44.6301 22.8705 44.8401L10.4905 46.8501C9.66047 46.9901 8.93047 46.2901 9.01047 45.4501C9.51047 39.9501 11.9705 34.6601 16.1805 30.7301C16.8005 30.1501 17.7905 30.2901 18.2005 31.0301L24.2405 42.0301ZM10.7805 51.0901L23.3205 51.3501C24.6405 51.3801 25.5405 52.7101 25.0705 53.9401L20.6205 65.6701C20.3205 66.4601 19.3605 66.7401 18.6705 66.2601C16.4305 64.7001 14.4305 62.7201 12.8205 60.3301C11.2005 57.9301 10.1205 55.3401 9.51047 52.6801C9.32047 51.8601 9.94047 51.0701 10.7805 51.0901ZM24.4405 67.5401L30.9405 56.8101C31.6305 55.6801 33.2305 55.5701 34.0605 56.5901L42.0005 66.3201C42.5305 66.9801 42.2905 67.9501 41.5205 68.3001C36.2905 70.7301 30.4705 71.0301 25.1905 69.4301C24.3805 69.1901 24.0105 68.2601 24.4405 67.5401ZM39.4705 52.9401C38.8305 51.7801 39.5405 50.3401 40.8405 50.1301L53.2205 48.1201C54.0505 47.9801 54.7805 48.6801 54.7005 49.5201C54.2005 55.0201 51.7405 60.3101 47.5305 64.2401C46.9105 64.8201 45.9205 64.6801 45.5105 63.9401L39.4705 52.9401Z" fill="#424242" style="fill:#424242;fill:color(display-p3 0.2588 0.2588 0.2588);fill-opacity:1;"/>
<path d="M30.0304 20.6001C15.1804 20.6001 3.15039 32.6401 3.15039 47.4801C3.15039 62.3301 15.1904 74.3601 30.0304 74.3601C44.8804 74.3601 56.9104 62.3201 56.9104 47.4801C56.9104 32.6401 44.8704 20.6001 30.0304 20.6001ZM37.4404 27.4301L30.9404 38.1601C30.2504 39.2901 28.6504 39.4001 27.8204 38.3801L19.8804 28.6501C19.3504 27.9901 19.5904 27.0201 20.3604 26.6701C25.5904 24.2401 31.4104 23.9401 36.6904 25.5401C37.5104 25.7801 37.8804 26.7101 37.4404 27.4301ZM41.2604 29.2901C41.5604 28.5001 42.5204 28.2201 43.2104 28.7001C45.4504 30.2601 47.4504 32.2401 49.0604 34.6301C50.6804 37.0301 51.7604 39.6201 52.3704 42.2801C52.5604 43.1001 51.9404 43.8801 51.1004 43.8701L38.5604 43.6101C37.2404 43.5801 36.3404 42.2501 36.8104 41.0201L41.2604 29.2901ZM22.4104 42.0301C23.0504 43.1901 22.3404 44.6301 21.0404 44.8401L8.66039 46.8501C7.83039 46.9901 7.10039 46.2901 7.18039 45.4501C7.68039 39.9501 10.1404 34.6601 14.3504 30.7301C14.9704 30.1501 15.9604 30.2901 16.3704 31.0301L22.4104 42.0301ZM8.95039 51.0901L21.4904 51.3501C22.8104 51.3801 23.7104 52.7101 23.2404 53.9401L18.7904 65.6701C18.4904 66.4601 17.5304 66.7401 16.8404 66.2601C14.6004 64.7001 12.6004 62.7201 10.9904 60.3301C9.37039 57.9301 8.29039 55.3401 7.68039 52.6801C7.49039 51.8601 8.11039 51.0701 8.95039 51.0901ZM22.6104 67.5401L29.1104 56.8101C29.8004 55.6801 31.4004 55.5701 32.2304 56.5901L40.1704 66.3201C40.7004 66.9801 40.4604 67.9501 39.6904 68.3001C34.4604 70.7301 28.6404 71.0301 23.3604 69.4301C22.5504 69.1901 22.1804 68.2601 22.6104 67.5401ZM37.6404 52.9401C37.0004 51.7801 37.7104 50.3401 39.0104 50.1301L51.3904 48.1201C52.2204 47.9801 52.9504 48.6801 52.8704 49.5201C52.3704 55.0201 49.9104 60.3101 45.7004 64.2401C45.0804 64.8201 44.0904 64.6801 43.6804 63.9401L37.6404 52.9401Z" fill="#757575" style="fill:#757575;fill:color(display-p3 0.4588 0.4588 0.4588);fill-opacity:1;"/>
<path d="M97.6505 6.84009C82.8005 6.84009 70.7705 18.8801 70.7705 33.7201C70.7705 48.5701 82.8105 60.6001 97.6505 60.6001C112.501 60.6001 124.531 48.5601 124.531 33.7201C124.531 18.8801 112.501 6.84009 97.6505 6.84009ZM105.061 13.6701L98.5605 24.4001C97.8705 25.5301 96.2705 25.6401 95.4405 24.6201L87.5005 14.8901C86.9705 14.2301 87.2105 13.2601 87.9805 12.9101C93.2105 10.4801 99.0305 10.1801 104.311 11.7801C105.131 12.0201 105.501 12.9501 105.061 13.6701ZM108.881 15.5401C109.181 14.7501 110.141 14.4701 110.831 14.9501C113.071 16.5101 115.071 18.4901 116.681 20.8801C118.301 23.2801 119.381 25.8701 119.991 28.5301C120.181 29.3501 119.561 30.1301 118.721 30.1201L106.181 29.8601C104.861 29.8301 103.961 28.5001 104.431 27.2701L108.881 15.5401ZM90.0305 28.2701C90.6705 29.4301 89.9605 30.8701 88.6605 31.0801L76.2805 33.0901C75.4505 33.2301 74.7205 32.5301 74.8005 31.6901C75.3005 26.1901 77.7605 20.9001 81.9705 16.9701C82.5905 16.3901 83.5805 16.5301 83.9905 17.2701L90.0305 28.2701ZM76.5805 37.3301L89.1205 37.5901C90.4405 37.6201 91.3405 38.9501 90.8705 40.1801L86.4205 51.9101C86.1205 52.7001 85.1605 52.9801 84.4705 52.5001C82.2305 50.9401 80.2305 48.9601 78.6205 46.5701C77.0005 44.1701 75.9205 41.5801 75.3105 38.9201C75.1205 38.1001 75.7305 37.3101 76.5805 37.3301ZM90.2405 53.7801L96.7405 43.0501C97.4305 41.9201 99.0305 41.8101 99.8605 42.8301L107.801 52.5601C108.331 53.2201 108.091 54.1901 107.321 54.5401C102.091 56.9701 96.2705 57.2701 90.9905 55.6701C90.1705 55.4301 89.8005 54.5001 90.2405 53.7801ZM105.271 39.1801C104.631 38.0201 105.341 36.5801 106.641 36.3701L119.021 34.3601C119.851 34.2201 120.581 34.9201 120.501 35.7601C120.001 41.2601 117.541 46.5501 113.331 50.4801C112.711 51.0601 111.721 50.9201 111.311 50.1801L105.271 39.1801Z" fill="#424242" style="fill:#424242;fill:color(display-p3 0.2588 0.2588 0.2588);fill-opacity:1;"/>
<path d="M95.6408 52.3802C105.355 52.3802 113.231 44.5049 113.231 34.7902C113.231 25.0755 105.355 17.2002 95.6408 17.2002C85.9261 17.2002 78.0508 25.0755 78.0508 34.7902C78.0508 44.5049 85.9261 52.3802 95.6408 52.3802Z" fill="#B2947C" style="fill:#B2947C;fill:color(display-p3 0.6980 0.5804 0.4863);fill-opacity:1;"/>
<path d="M96.2306 6.84009C81.3806 6.84009 69.3506 18.8801 69.3506 33.7201C69.3506 48.5701 81.3906 60.6001 96.2306 60.6001C111.081 60.6001 123.111 48.5601 123.111 33.7201C123.121 18.8801 111.081 6.84009 96.2306 6.84009ZM103.651 13.6701L97.1506 24.4001C96.4606 25.5301 94.8606 25.6401 94.0306 24.6201L86.0906 14.8901C85.5606 14.2301 85.8006 13.2601 86.5706 12.9101C91.8006 10.4801 97.6206 10.1801 102.901 11.7801C103.711 12.0201 104.091 12.9501 103.651 13.6701ZM107.471 15.5401C107.771 14.7501 108.731 14.4701 109.421 14.9501C111.661 16.5101 113.661 18.4901 115.271 20.8801C116.891 23.2801 117.971 25.8701 118.581 28.5301C118.771 29.3501 118.151 30.1301 117.311 30.1201L104.771 29.8601C103.451 29.8301 102.551 28.5001 103.021 27.2701L107.471 15.5401ZM88.6206 28.2701C89.2606 29.4301 88.5506 30.8701 87.2506 31.0801L74.8706 33.0901C74.0406 33.2301 73.3106 32.5301 73.3906 31.6901C73.8906 26.1901 76.3506 20.9001 80.5606 16.9701C81.1806 16.3901 82.1706 16.5301 82.5806 17.2701L88.6206 28.2701ZM75.1606 37.3301L87.7006 37.5901C89.0206 37.6201 89.9206 38.9501 89.4506 40.1801L85.0006 51.9201C84.7006 52.7101 83.7406 52.9901 83.0506 52.5101C80.8106 50.9501 78.8106 48.9701 77.2006 46.5801C75.5806 44.1801 74.5006 41.5901 73.8906 38.9301C73.7006 38.1001 74.3206 37.3101 75.1606 37.3301ZM88.8206 53.7801L95.3206 43.0501C96.0106 41.9201 97.6106 41.8101 98.4406 42.8301L106.381 52.5601C106.911 53.2201 106.671 54.1901 105.901 54.5401C100.671 56.9701 94.8506 57.2701 89.5706 55.6701C88.7606 55.4301 88.3806 54.5001 88.8206 53.7801ZM103.851 39.1801C103.211 38.0201 103.921 36.5801 105.221 36.3701L117.601 34.3601C118.431 34.2201 119.161 34.9201 119.081 35.7601C118.581 41.2601 116.121 46.5501 111.911 50.4801C111.291 51.0601 110.301 50.9201 109.891 50.1801L103.851 39.1801Z" fill="#424242" style="fill:#424242;fill:color(display-p3 0.2588 0.2588 0.2588);fill-opacity:1;"/>
<path d="M94.4005 6.84009C79.5505 6.84009 67.5205 18.8801 67.5205 33.7201C67.5205 48.5701 79.5605 60.6001 94.4005 60.6001C109.251 60.6001 121.281 48.5601 121.281 33.7201C121.291 18.8801 109.251 6.84009 94.4005 6.84009ZM101.821 13.6701L95.3205 24.4001C94.6305 25.5301 93.0305 25.6401 92.2005 24.6201L84.2605 14.8901C83.7305 14.2301 83.9705 13.2601 84.7405 12.9101C89.9705 10.4801 95.7905 10.1801 101.071 11.7801C101.881 12.0201 102.261 12.9501 101.821 13.6701ZM105.641 15.5401C105.941 14.7501 106.901 14.4701 107.591 14.9501C109.831 16.5101 111.831 18.4901 113.441 20.8801C115.061 23.2801 116.141 25.8701 116.751 28.5301C116.941 29.3501 116.321 30.1301 115.481 30.1201L102.941 29.8601C101.621 29.8301 100.721 28.5001 101.191 27.2701L105.641 15.5401ZM86.7905 28.2701C87.4305 29.4301 86.7205 30.8701 85.4205 31.0801L73.0405 33.0901C72.2105 33.2301 71.4805 32.5301 71.5605 31.6901C72.0605 26.1901 74.5205 20.9001 78.7305 16.9701C79.3505 16.3901 80.3405 16.5301 80.7505 17.2701L86.7905 28.2701ZM73.3305 37.3301L85.8705 37.5901C87.1905 37.6201 88.0905 38.9501 87.6205 40.1801L83.1705 51.9101C82.8705 52.7001 81.9105 52.9801 81.2205 52.5001C78.9805 50.9401 76.9805 48.9601 75.3705 46.5701C73.7505 44.1701 72.6705 41.5801 72.0605 38.9201C71.8705 38.1001 72.4905 37.3101 73.3305 37.3301ZM86.9905 53.7801L93.4905 43.0501C94.1805 41.9201 95.7805 41.8101 96.6105 42.8301L104.551 52.5601C105.081 53.2201 104.841 54.1901 104.071 54.5401C98.8405 56.9701 93.0205 57.2701 87.7405 55.6701C86.9305 55.4301 86.5505 54.5001 86.9905 53.7801ZM102.021 39.1801C101.381 38.0201 102.091 36.5801 103.391 36.3701L115.771 34.3601C116.601 34.2201 117.331 34.9201 117.251 35.7601C116.751 41.2601 114.291 46.5501 110.081 50.4801C109.461 51.0601 108.471 50.9201 108.061 50.1801L102.021 39.1801Z" fill="#757575" style="fill:#757575;fill:color(display-p3 0.4588 0.4588 0.4588);fill-opacity:1;"/>
<path d="M87.7407 35.7601C88.8507 32.6501 90.2107 29.3601 93.6607 29.1701C97.1107 28.9901 100.201 30.8201 99.3307 37.0701C99.0907 38.7801 94.8607 53.7301 90.6807 68.2401L74.2207 67.5101C80.3707 53.1401 87.4207 36.6401 87.7407 35.7601Z" fill="#546E7A" style="fill:#546E7A;fill:color(display-p3 0.3294 0.4314 0.4784);fill-opacity:1;"/>
<path d="M96.8109 29.74C97.8209 30.97 98.3609 32.51 97.6509 35.41L91.1709 55.14L79.6009 54.95L77.3809 60.14L92.4109 62.24L99.3309 37.07C100.561 31.81 98.7109 30.67 96.8109 29.74Z" fill="#37474F" style="fill:#37474F;fill:color(display-p3 0.2157 0.2784 0.3098);fill-opacity:1;"/>
<path d="M93.7207 36.3901C94.9854 36.3901 96.0107 35.3648 96.0107 34.1001C96.0107 32.8353 94.9854 31.8101 93.7207 31.8101C92.4559 31.8101 91.4307 32.8353 91.4307 34.1001C91.4307 35.3648 92.4559 36.3901 93.7207 36.3901Z" fill="#B9E4EA" style="fill:#B9E4EA;fill:color(display-p3 0.7255 0.8941 0.9176);fill-opacity:1;"/>
<path d="M29.1706 55.6602C26.7806 53.3902 24.3106 50.8202 25.5406 47.5902C26.7706 44.3602 29.6906 42.2702 35.0506 45.5902C36.5606 46.5302 49.2106 57.0202 61.1206 66.9802L48.9306 76.7602C39.3606 66.4902 29.7706 56.2202 29.1706 55.6602Z" fill="#546E7A" style="fill:#546E7A;fill:color(display-p3 0.3294 0.4314 0.4784);fill-opacity:1;"/>
<path d="M27.3301 44.93C28.8601 44.5 30.9101 44.28 33.2801 46.1L45.2201 57.34C40.0801 58.2 36.8501 63.8 36.8501 63.8L47.2801 74.98L55.2801 62.09C45.3801 53.84 35.7301 45.82 35.7301 45.82C31.4401 42.52 28.9501 43.57 27.3301 44.93Z" fill="#37474F" style="fill:#37474F;fill:color(display-p3 0.2157 0.2784 0.3098);fill-opacity:1;"/>
<path d="M30.0703 51.55C31.335 51.55 32.3603 50.5247 32.3603 49.26C32.3603 47.9952 31.335 46.97 30.0703 46.97C28.8055 46.97 27.7803 47.9952 27.7803 49.26C27.7803 50.5247 28.8055 51.55 30.0703 51.55Z" fill="#B9E4EA" style="fill:#B9E4EA;fill:color(display-p3 0.7255 0.8941 0.9176);fill-opacity:1;"/>
<path d="M97.2808 120.68H39.2608C36.1108 120.68 33.5508 117.94 33.5508 114.56V80.5501C33.5508 61.9701 47.7908 57.3401 55.8508 57.3401H85.0108C93.0708 57.3401 102.981 63.7301 102.981 77.4501V114.56C102.991 117.94 100.431 120.68 97.2808 120.68Z" fill="#546E7A" style="fill:#546E7A;fill:color(display-p3 0.3294 0.4314 0.4784);fill-opacity:1;"/>
<path d="M102.98 90.3701H83.9102V101.25H102.98V90.3701Z" fill="#37474F" style="fill:#37474F;fill:color(display-p3 0.2157 0.2784 0.3098);fill-opacity:1;"/>
<path d="M50.4808 65.9202H82.6508C87.0108 65.9202 90.5408 69.4502 90.5408 73.8102V107.23C90.5408 111.59 87.0108 115.12 82.6508 115.12H50.4808C46.1208 115.12 42.5908 111.59 42.5908 107.23V73.8102C42.5908 69.4502 46.1208 65.9202 50.4808 65.9202Z" fill="#37474F" style="fill:#37474F;fill:color(display-p3 0.2157 0.2784 0.3098);fill-opacity:1;"/>
<path d="M81.77 80.05H105.17V97.44H81.77C81.77 97.44 80.46 96.37 80.46 88.75C80.46 81.13 81.77 80.05 81.77 80.05Z" fill="#9E9E9E" style="fill:#9E9E9E;fill:color(display-p3 0.6196 0.6196 0.6196);fill-opacity:1;"/>
<path d="M101.96 85.9302H81.96V81.9302H101.82C101.82 81.9302 101.9 83.6502 101.96 85.9302Z" fill="#E0E0E0" style="fill:#E0E0E0;fill:color(display-p3 0.8784 0.8784 0.8784);fill-opacity:1;"/>
<path d="M50.4808 65.75H79.2508C83.6108 65.75 87.1408 69.28 87.1408 73.64V104.37C87.1408 108.73 83.6108 112.26 79.2508 112.26H50.4808C46.1208 112.26 42.5908 108.73 42.5908 104.37V73.65C42.5908 69.29 46.1208 65.75 50.4808 65.75Z" fill="#78909C" style="fill:#78909C;fill:color(display-p3 0.4706 0.5647 0.6118);fill-opacity:1;"/>
<path d="M79.2502 65.76H50.4802C47.8902 65.76 45.6002 67.01 44.1602 68.94C45.6102 68.98 64.0502 69.28 70.5802 69.28C78.4702 69.28 79.2502 65.76 79.2502 65.76Z" fill="#B9E4EA" style="fill:#B9E4EA;fill:color(display-p3 0.7255 0.8941 0.9176);fill-opacity:1;"/>
<path d="M106.36 80.0601H99.3301C99.3301 80.0601 99.8201 83.5501 99.8201 88.8501C99.8201 94.1501 99.3301 97.4501 99.3301 97.4501H106.39C106.89 97.4501 107.31 97.1001 107.4 96.6101C107.59 95.5001 107.87 93.1901 107.87 89.0901C107.87 84.8201 107.57 82.1901 107.38 80.9401C107.3 80.4201 106.87 80.0601 106.36 80.0601Z" fill="#424242" style="fill:#424242;fill:color(display-p3 0.2588 0.2588 0.2588);fill-opacity:1;"/>
<path d="M99.7604 85.96C99.7904 86.84 99.7604 87.81 99.7604 88.84C99.7604 94.14 99.3604 97.44 99.3604 97.44H105.32C105.76 97.44 106.08 97.08 106.2 96.6C106.52 95.39 106.75 93.84 106.78 89.86C106.79 89.2 106.71 87.92 106.59 87.23C106.47 86.53 106 85.96 105.29 85.96H99.7604Z" fill="#212121" style="fill:#212121;fill:color(display-p3 0.1294 0.1294 0.1294);fill-opacity:1;"/>
</svg>
