<svg width="128" height="128" viewBox="0 0 128 128" fill="none" xmlns="http://www.w3.org/2000/svg">
<path d="M63.6001 118.8C35.7001 118.8 5.6001 101.3 5.6001 62.9C5.6001 24.5 35.7001 7 63.6001 7C79.1001 7 93.4001 12.1 104 21.4C115.5 31.6 121.6 46 121.6 62.9C121.6 79.8 115.5 94.1 104 104.3C93.4001 113.6 79.0001 118.8 63.6001 118.8Z" fill="url(#paint0_radial_169_12855)" style=""/>
<path d="M63.6001 118.8C35.7001 118.8 5.6001 101.3 5.6001 62.9C5.6001 24.5 35.7001 7 63.6001 7C79.1001 7 93.4001 12.1 104 21.4C115.5 31.6 121.6 46 121.6 62.9C121.6 79.8 115.5 94.1 104 104.3C93.4001 113.6 79.0001 118.8 63.6001 118.8Z" fill="url(#paint1_linear_169_12855)" style=""/>
<path d="M63.6001 118.8C35.7001 118.8 5.6001 101.3 5.6001 62.9C5.6001 24.5 35.7001 7 63.6001 7C79.1001 7 93.4001 12.1 104 21.4C115.5 31.6 121.6 46 121.6 62.9C121.6 79.8 115.5 94.1 104 104.3C93.4001 113.6 79.0001 118.8 63.6001 118.8Z" fill="url(#paint2_radial_169_12855)" style=""/>
<path d="M63.6001 118.8C35.7001 118.8 5.6001 101.3 5.6001 62.9C5.6001 24.5 35.7001 7 63.6001 7C79.1001 7 93.4001 12.1 104 21.4C115.5 31.6 121.6 46 121.6 62.9C121.6 79.8 115.5 94.1 104 104.3C93.4001 113.6 79.0001 118.8 63.6001 118.8Z" fill="url(#paint3_radial_169_12855)" style=""/>
<path d="M63.6001 118.8C35.7001 118.8 5.6001 101.3 5.6001 62.9C5.6001 24.5 35.7001 7 63.6001 7C79.1001 7 93.4001 12.1 104 21.4C115.5 31.6 121.6 46 121.6 62.9C121.6 79.8 115.5 94.1 104 104.3C93.4001 113.6 79.0001 118.8 63.6001 118.8Z" fill="url(#paint4_radial_169_12855)" style=""/>
<path d="M63.6001 118.8C35.7001 118.8 5.6001 101.3 5.6001 62.9C5.6001 24.5 35.7001 7 63.6001 7C79.1001 7 93.4001 12.1 104 21.4C115.5 31.6 121.6 46 121.6 62.9C121.6 79.8 115.5 94.1 104 104.3C93.4001 113.6 79.0001 118.8 63.6001 118.8Z" fill="url(#paint5_radial_169_12855)" style=""/>
<path d="M63.6001 118.8C35.7001 118.8 5.6001 101.3 5.6001 62.9C5.6001 24.5 35.7001 7 63.6001 7C79.1001 7 93.4001 12.1 104 21.4C115.5 31.6 121.6 46 121.6 62.9C121.6 79.8 115.5 94.1 104 104.3C93.4001 113.6 79.0001 118.8 63.6001 118.8Z" fill="url(#paint6_radial_169_12855)" style=""/>
<path d="M111.49 29.67C116.82 38.27 119.6 48.51 119.6 59.9C119.6 76.8 113.5 91.1 102 101.3C91.3999 110.6 76.9999 115.8 61.5999 115.8C43.5399 115.8 24.5999 108.45 13.4199 92.86C24.1799 110.52 44.4199 118.8 63.5999 118.8C78.9999 118.8 93.3999 113.6 104 104.3C115.5 94.1 121.6 79.8 121.6 62.9C121.6 50.16 118.13 38.84 111.49 29.67Z" fill="#EB8F00" style="fill:#EB8F00;fill:color(display-p3 0.9216 0.5608 0.0000);fill-opacity:1;"/>
<path d="M111.49 29.67C116.82 38.27 119.6 48.51 119.6 59.9C119.6 76.8 113.5 91.1 102 101.3C91.3999 110.6 76.9999 115.8 61.5999 115.8C43.5399 115.8 24.5999 108.45 13.4199 92.86C24.1799 110.52 44.4199 118.8 63.5999 118.8C78.9999 118.8 93.3999 113.6 104 104.3C115.5 94.1 121.6 79.8 121.6 62.9C121.6 50.16 118.13 38.84 111.49 29.67Z" fill="#F3B872" style="fill:#F3B872;fill:color(display-p3 0.9542 0.7229 0.4453);fill-opacity:1;"/>
<path d="M111.49 29.67C116.82 38.27 119.6 48.51 119.6 59.9C119.6 76.8 113.5 91.1 102 101.3C91.3999 110.6 76.9999 115.8 61.5999 115.8C43.5399 115.8 24.5999 108.45 13.4199 92.86C24.1799 110.52 44.4199 118.8 63.5999 118.8C78.9999 118.8 93.3999 113.6 104 104.3C115.5 94.1 121.6 79.8 121.6 62.9C121.6 50.16 118.13 38.84 111.49 29.67Z" fill="#91674D" style="fill:#91674D;fill:color(display-p3 0.5686 0.4039 0.3020);fill-opacity:1;"/>
<path d="M79.7002 68.3C70.7002 70.3 67.9002 70.1 64.2002 70.1H63.8002C60.1002 70.1 57.3002 70.3 48.3002 68.3C46.7002 68 45.4002 70 47.8002 71.8C52.6002 75.3 58.3002 76.4 64.0002 76.4C69.7002 76.4 75.4002 75.3 80.2002 71.8C82.6002 70 81.3002 68 79.7002 68.3Z" fill="#49362E" style="fill:#49362E;fill:color(display-p3 0.2863 0.2118 0.1804);fill-opacity:1;"/>
<path d="M43.7002 55.1C45.5502 55.08 47.4002 55.28 49.2002 55.7C50.1602 55.95 51.1602 55.49 51.6002 54.6C52.3502 53.04 52.7302 51.33 52.7002 49.6C52.7002 43.7 48.9002 40.2 44.7002 40.2C40.5002 40.2 36.7002 43.7 36.7002 49.6C36.6702 51.15 36.9802 52.68 37.6002 54.1C37.9602 54.97 38.8802 55.47 39.8002 55.3C41.0002 55.2 42.3002 55.1 43.7002 55.1Z" fill="#49362E" style="fill:#49362E;fill:color(display-p3 0.2863 0.2118 0.1804);fill-opacity:1;"/>
<path d="M43.7002 55.1C45.5502 55.08 47.4002 55.28 49.2002 55.7C50.1602 55.95 51.1602 55.49 51.6002 54.6C52.3502 53.04 52.7302 51.33 52.7002 49.6C52.7002 43.7 48.9002 40.2 44.7002 40.2C40.5002 40.2 36.7002 43.7 36.7002 49.6C36.6702 51.15 36.9802 52.68 37.6002 54.1C37.9602 54.97 38.8802 55.47 39.8002 55.3C41.0002 55.2 42.3002 55.1 43.7002 55.1Z" fill="#1A1717" style="fill:#1A1717;fill:color(display-p3 0.1020 0.0902 0.0902);fill-opacity:1;"/>
<path d="M43.7002 55.1C45.5502 55.08 47.4002 55.28 49.2002 55.7C50.1602 55.95 51.1602 55.49 51.6002 54.6C52.3502 53.04 52.7302 51.33 52.7002 49.6C52.7002 43.7 48.9002 40.2 44.7002 40.2C40.5002 40.2 36.7002 43.7 36.7002 49.6C36.6702 51.15 36.9802 52.68 37.6002 54.1C37.9602 54.97 38.8802 55.47 39.8002 55.3C41.0002 55.2 42.3002 55.1 43.7002 55.1Z" fill="#49362E" style="fill:#49362E;fill:color(display-p3 0.2863 0.2118 0.1804);fill-opacity:1;"/>
<path d="M84.3005 55.1C82.4505 55.08 80.6005 55.28 78.8005 55.7C77.8405 55.93 76.8505 55.47 76.4005 54.6C75.6505 53.04 75.2705 51.33 75.3005 49.6C75.3005 43.7 79.1005 40.2 83.3005 40.2C87.5005 40.2 91.3005 43.7 91.3005 49.6C91.3305 51.15 91.0205 52.68 90.4005 54.1C90.0405 54.97 89.1205 55.47 88.2005 55.3C87.0005 55.2 85.7005 55.1 84.3005 55.1Z" fill="#49362E" style="fill:#49362E;fill:color(display-p3 0.2863 0.2118 0.1804);fill-opacity:1;"/>
<path d="M84.3005 55.1C82.4505 55.08 80.6005 55.28 78.8005 55.7C77.8405 55.93 76.8505 55.47 76.4005 54.6C75.6505 53.04 75.2705 51.33 75.3005 49.6C75.3005 43.7 79.1005 40.2 83.3005 40.2C87.5005 40.2 91.3005 43.7 91.3005 49.6C91.3305 51.15 91.0205 52.68 90.4005 54.1C90.0405 54.97 89.1205 55.47 88.2005 55.3C87.0005 55.2 85.7005 55.1 84.3005 55.1Z" fill="#1A1717" style="fill:#1A1717;fill:color(display-p3 0.1020 0.0902 0.0902);fill-opacity:1;"/>
<path d="M84.3005 55.1C82.4505 55.08 80.6005 55.28 78.8005 55.7C77.8405 55.93 76.8505 55.47 76.4005 54.6C75.6505 53.04 75.2705 51.33 75.3005 49.6C75.3005 43.7 79.1005 40.2 83.3005 40.2C87.5005 40.2 91.3005 43.7 91.3005 49.6C91.3305 51.15 91.0205 52.68 90.4005 54.1C90.0405 54.97 89.1205 55.47 88.2005 55.3C87.0005 55.2 85.7005 55.1 84.3005 55.1Z" fill="#49362E" style="fill:#49362E;fill:color(display-p3 0.2863 0.2118 0.1804);fill-opacity:1;"/>
<path opacity="0.66" d="M64.4304 61.66C64.4304 55.66 63.7404 52.14 58.4304 52.74C54.5304 53.14 54.2404 59.12 54.2404 65.12C54.2404 65.12 53.9904 75.75 49.9904 84.64C49.6704 85.05 49.3504 85.46 49.0604 85.9C44.9104 92.1 42.4704 99.55 43.7004 107.03C44.0704 110.25 45.7104 113.19 48.2604 115.19C50.9904 117.43 54.7804 118.26 58.2604 118.59C64.4304 119.17 64.4304 66.87 64.4304 61.66Z" fill="url(#paint7_linear_169_12855)" style=""/>
<path d="M79.7004 68.3C76.0904 69.18 72.4104 69.76 68.7004 70.04C68.4804 72.06 68.4404 74.09 68.5904 76.12C72.7704 75.71 76.7704 74.22 80.2004 71.8C82.6004 70 81.3004 68 79.7004 68.3Z" fill="#49362E" style="fill:#49362E;fill:color(display-p3 0.2863 0.2118 0.1804);fill-opacity:1;"/>
<path d="M79.7004 68.3C76.0904 69.18 72.4104 69.76 68.7004 70.04C68.4804 72.06 68.4404 74.09 68.5904 76.12C72.7704 75.71 76.7704 74.22 80.2004 71.8C82.6004 70 81.3004 68 79.7004 68.3Z" fill="#1A1717" style="fill:#1A1717;fill:color(display-p3 0.1020 0.0902 0.0902);fill-opacity:1;"/>
<path d="M79.7004 68.3C76.0904 69.18 72.4104 69.76 68.7004 70.04C68.4804 72.06 68.4404 74.09 68.5904 76.12C72.7704 75.71 76.7704 74.22 80.2004 71.8C82.6004 70 81.3004 68 79.7004 68.3Z" fill="#5D4037" style="fill:#5D4037;fill:color(display-p3 0.3647 0.2510 0.2157);fill-opacity:1;"/>
<path d="M68.7103 70C68.0203 70 67.3903 70 66.7803 70.06C66.4803 72.12 66.3603 74.2 66.4203 76.28C67.1503 76.28 67.8803 76.17 68.6003 76.08C68.4503 74.05 68.4903 72.02 68.7103 70Z" fill="#49362E" style="fill:#49362E;fill:color(display-p3 0.2863 0.2118 0.1804);fill-opacity:1;"/>
<path d="M48.3002 68.3C46.7002 68 45.4002 70 47.8002 71.8C50.2302 73.54 52.9802 74.8 55.8902 75.48C56.1402 73.48 56.2902 71.48 56.3902 69.77C54.3502 69.52 51.7902 69.08 48.3002 68.3Z" fill="#49362E" style="fill:#49362E;fill:color(display-p3 0.2863 0.2118 0.1804);fill-opacity:1;"/>
<path d="M48.3002 68.3C46.7002 68 45.4002 70 47.8002 71.8C50.2302 73.54 52.9802 74.8 55.8902 75.48C56.1402 73.48 56.2902 71.48 56.3902 69.77C54.3502 69.52 51.7902 69.08 48.3002 68.3Z" fill="#1A1717" style="fill:#1A1717;fill:color(display-p3 0.1020 0.0902 0.0902);fill-opacity:1;"/>
<path d="M48.3002 68.3C46.7002 68 45.4002 70 47.8002 71.8C50.2302 73.54 52.9802 74.8 55.8902 75.48C56.1402 73.48 56.2902 71.48 56.3902 69.77C54.3502 69.52 51.7902 69.08 48.3002 68.3Z" fill="#5D4037" style="fill:#5D4037;fill:color(display-p3 0.3647 0.2510 0.2157);fill-opacity:1;"/>
<path d="M92.3704 93.87C92.1604 93.15 91.7604 92.5 91.2004 92C89.3304 89.73 86.3004 88.77 83.4604 89.55C83.4604 89.46 83.4004 89.36 83.3604 89.28C83.9904 86.53 83.7204 83.65 82.5804 81.07C81.2204 78.5 78.5904 76.86 75.6904 76.77C73.3704 76.64 71.0504 76.92 68.8304 77.6C68.7604 77.33 68.7104 77.06 68.6704 76.78C68.6704 76.59 68.6104 76.38 68.5904 76.14C67.8704 76.23 67.1404 76.3 66.4104 76.34C66.3204 73.07 66.6504 69.8 67.4104 66.62C69.5704 57.21 65.6404 53.83 64.7804 53.22C63.3904 52.38 61.7504 52.05 60.1404 52.28C56.2404 52.68 56.4404 55.68 56.4404 61.68C56.4404 61.68 57.1104 74.54 54.0204 84.68C53.6904 85.09 53.3704 85.5 53.0804 85.94C44.3804 98.94 46.8804 110.84 52.3804 117.34C55.7204 121.14 60.4304 123.44 65.4804 123.74C69.6304 124 74.7804 123.14 78.4804 119.99C81.4004 118.05 83.4004 114.99 84.0004 111.54C84.1604 110.1 84.1304 108.65 83.8904 107.22V106.79C84.2204 105.94 84.4304 105.05 84.5104 104.15C85.7304 104.19 86.9504 104.02 88.1104 103.63C89.6104 103.08 90.8704 102.02 91.6704 100.63C92.4604 99.27 92.8404 97.7 92.7604 96.13C92.7504 95.36 92.6204 94.6 92.3704 93.87ZM66.5604 78.32C66.5604 77.8 66.4504 77.13 66.4304 76.32C66.4404 77.13 66.5004 77.8 66.5604 78.32Z" fill="url(#paint8_radial_169_12855)" style=""/>
<path d="M92.3704 93.87C92.1604 93.15 91.7604 92.5 91.2004 92C89.3304 89.73 86.3004 88.77 83.4604 89.55C83.4604 89.46 83.4004 89.36 83.3604 89.28C83.9904 86.53 83.7204 83.65 82.5804 81.07C81.2204 78.5 78.5904 76.86 75.6904 76.77C73.3704 76.64 71.0504 76.92 68.8304 77.6C68.7604 77.33 68.7104 77.06 68.6704 76.78C68.6704 76.59 68.6104 76.38 68.5904 76.14C67.8704 76.23 67.1404 76.3 66.4104 76.34C66.3204 73.07 66.6504 69.8 67.4104 66.62C69.5704 57.21 65.6404 53.83 64.7804 53.22C63.3904 52.38 61.7504 52.05 60.1404 52.28C56.2404 52.68 56.4404 55.68 56.4404 61.68C56.4404 61.68 57.1104 74.54 54.0204 84.68C53.6904 85.09 53.3704 85.5 53.0804 85.94C44.3804 98.94 46.8804 110.84 52.3804 117.34C55.7204 121.14 60.4304 123.44 65.4804 123.74C69.6304 124 74.7804 123.14 78.4804 119.99C81.4004 118.05 83.4004 114.99 84.0004 111.54C84.1604 110.1 84.1304 108.65 83.8904 107.22V106.79C84.2204 105.94 84.4304 105.05 84.5104 104.15C85.7304 104.19 86.9504 104.02 88.1104 103.63C89.6104 103.08 90.8704 102.02 91.6704 100.63C92.4604 99.27 92.8404 97.7 92.7604 96.13C92.7504 95.36 92.6204 94.6 92.3704 93.87ZM66.5604 78.32C66.5604 77.8 66.4504 77.13 66.4304 76.32C66.4404 77.13 66.5004 77.8 66.5604 78.32Z" fill="url(#paint9_radial_169_12855)" style=""/>
<path d="M92.3704 93.87C92.1604 93.15 91.7604 92.5 91.2004 92C89.3304 89.73 86.3004 88.77 83.4604 89.55C83.4604 89.46 83.4004 89.36 83.3604 89.28C83.9904 86.53 83.7204 83.65 82.5804 81.07C81.2204 78.5 78.5904 76.86 75.6904 76.77C73.3704 76.64 71.0504 76.92 68.8304 77.6C68.7604 77.33 68.7104 77.06 68.6704 76.78C68.6704 76.59 68.6104 76.38 68.5904 76.14C67.8704 76.23 67.1404 76.3 66.4104 76.34C66.3204 73.07 66.6504 69.8 67.4104 66.62C69.5704 57.21 65.6404 53.83 64.7804 53.22C63.3904 52.38 61.7504 52.05 60.1404 52.28C56.2404 52.68 56.4404 55.68 56.4404 61.68C56.4404 61.68 57.1104 74.54 54.0204 84.68C53.6904 85.09 53.3704 85.5 53.0804 85.94C44.3804 98.94 46.8804 110.84 52.3804 117.34C55.7204 121.14 60.4304 123.44 65.4804 123.74C69.6304 124 74.7804 123.14 78.4804 119.99C81.4004 118.05 83.4004 114.99 84.0004 111.54C84.1604 110.1 84.1304 108.65 83.8904 107.22V106.79C84.2204 105.94 84.4304 105.05 84.5104 104.15C85.7304 104.19 86.9504 104.02 88.1104 103.63C89.6104 103.08 90.8704 102.02 91.6704 100.63C92.4604 99.27 92.8404 97.7 92.7604 96.13C92.7504 95.36 92.6204 94.6 92.3704 93.87ZM66.5604 78.32C66.5604 77.8 66.4504 77.13 66.4304 76.32C66.4404 77.13 66.5004 77.8 66.5604 78.32Z" fill="url(#paint10_radial_169_12855)" style=""/>
<path d="M92.3704 93.87C92.1604 93.15 91.7604 92.5 91.2004 92C89.3304 89.73 86.3004 88.77 83.4604 89.55C83.4604 89.46 83.4004 89.36 83.3604 89.28C83.9904 86.53 83.7204 83.65 82.5804 81.07C81.2204 78.5 78.5904 76.86 75.6904 76.77C73.3704 76.64 71.0504 76.92 68.8304 77.6C68.7604 77.33 68.7104 77.06 68.6704 76.78C68.6704 76.59 68.6104 76.38 68.5904 76.14C67.8704 76.23 67.1404 76.3 66.4104 76.34C66.3204 73.07 66.6504 69.8 67.4104 66.62C69.5704 57.21 65.6404 53.83 64.7804 53.22C63.3904 52.38 61.7504 52.05 60.1404 52.28C56.2404 52.68 56.4404 55.68 56.4404 61.68C56.4404 61.68 57.1104 74.54 54.0204 84.68C53.6904 85.09 53.3704 85.5 53.0804 85.94C44.3804 98.94 46.8804 110.84 52.3804 117.34C55.7204 121.14 60.4304 123.44 65.4804 123.74C69.6304 124 74.7804 123.14 78.4804 119.99C81.4004 118.05 83.4004 114.99 84.0004 111.54C84.1604 110.1 84.1304 108.65 83.8904 107.22V106.79C84.2204 105.94 84.4304 105.05 84.5104 104.15C85.7304 104.19 86.9504 104.02 88.1104 103.63C89.6104 103.08 90.8704 102.02 91.6704 100.63C92.4604 99.27 92.8404 97.7 92.7604 96.13C92.7504 95.36 92.6204 94.6 92.3704 93.87ZM66.5604 78.32C66.5604 77.8 66.4504 77.13 66.4304 76.32C66.4404 77.13 66.5004 77.8 66.5604 78.32Z" fill="url(#paint11_radial_169_12855)" style=""/>
<path d="M92.3704 93.87C92.1604 93.15 91.7604 92.5 91.2004 92C89.3304 89.73 86.3004 88.77 83.4604 89.55C83.4604 89.46 83.4004 89.36 83.3604 89.28C83.9904 86.53 83.7204 83.65 82.5804 81.07C81.2204 78.5 78.5904 76.86 75.6904 76.77C73.3704 76.64 71.0504 76.92 68.8304 77.6C68.7604 77.33 68.7104 77.06 68.6704 76.78C68.6704 76.59 68.6104 76.38 68.5904 76.14C67.8704 76.23 67.1404 76.3 66.4104 76.34C66.3204 73.07 66.6504 69.8 67.4104 66.62C69.5704 57.21 65.6404 53.83 64.7804 53.22C63.3904 52.38 61.7504 52.05 60.1404 52.28C56.2404 52.68 56.4404 55.68 56.4404 61.68C56.4404 61.68 57.1104 74.54 54.0204 84.68C53.6904 85.09 53.3704 85.5 53.0804 85.94C44.3804 98.94 46.8804 110.84 52.3804 117.34C55.7204 121.14 60.4304 123.44 65.4804 123.74C69.6304 124 74.7804 123.14 78.4804 119.99C81.4004 118.05 83.4004 114.99 84.0004 111.54C84.1604 110.1 84.1304 108.65 83.8904 107.22V106.79C84.2204 105.94 84.4304 105.05 84.5104 104.15C85.7304 104.19 86.9504 104.02 88.1104 103.63C89.6104 103.08 90.8704 102.02 91.6704 100.63C92.4604 99.27 92.8404 97.7 92.7604 96.13C92.7504 95.36 92.6204 94.6 92.3704 93.87ZM66.5604 78.32C66.5604 77.8 66.4504 77.13 66.4304 76.32C66.4404 77.13 66.5004 77.8 66.5604 78.32Z" fill="url(#paint12_radial_169_12855)" style=""/>
<path opacity="0.66" d="M68.9401 67.81C70.4201 55.44 64.8601 53.19 64.6201 53.08L64.8001 53.2C65.6601 53.81 69.5901 57.2 67.4301 66.6C67.1401 67.84 66.9401 69.01 66.7801 70.1C67.3901 70.1 68.0201 70.1 68.7101 70.04C68.7701 69.35 68.8401 68.62 68.9401 67.81Z" fill="url(#paint13_linear_169_12855)" style=""/>
<path d="M92.3701 93.87C92.1601 93.15 91.7601 92.5 91.2001 92C91.2001 92 92.7701 96.73 90.0101 99.87C88.8901 101.15 87.0101 102 85.4901 101.33C84.0901 100.72 83.3701 99.22 82.8301 97.75C83.7101 95.74 84.0701 93.55 83.9001 91.37C83.8601 90.65 83.6801 89.95 83.3701 89.3C84.0001 86.55 83.7301 83.67 82.5901 81.09C81.2301 78.52 78.6001 76.88 75.7001 76.79C73.3801 76.66 71.0601 76.94 68.8401 77.62C68.7701 77.35 68.7201 77.08 68.6801 76.8C68.6801 76.61 68.6201 76.4 68.6001 76.16C67.8801 76.25 67.1501 76.32 66.4201 76.36C66.4201 77.17 66.5001 77.83 66.5601 78.36C63.7301 79.34 61.0501 80.73 58.6201 82.48C61.5601 81.66 64.4701 80.74 67.4301 79.98C70.1501 79.29 73.1001 78.47 75.9401 78.65C77.8801 78.65 79.7201 79.56 80.8801 81.12C82.2101 83.06 81.0901 85.59 80.4901 86.67C79.7801 86.37 79.0301 86.18 78.2701 86.11C75.2701 85.8 71.9801 86.64 69.0401 87.38C66.1001 88.12 62.8001 89 60.2601 90.79C64.6301 89.71 68.7201 88.74 73.1701 88.02C75.8101 87.58 79.9501 87.32 81.2901 90.42C82.2901 92.71 80.7601 95.54 79.8201 96.96C77.7801 96.47 75.6401 96.56 73.6501 97.22C70.1301 98.23 66.7601 99.68 63.6001 101.52C67.4901 100.59 71.3501 99.41 75.3001 98.72C78.3701 98.18 82.0401 99.05 82.5201 102.72C82.7501 106.24 80.9701 109.59 77.9201 111.37C76.5401 112.28 74.7401 112.24 73.4001 111.28C72.6501 110.7 71.9401 109.18 73.0401 108.56C73.4001 108.36 73.8701 108.36 74.1901 108.1C74.5501 107.77 74.6201 107.22 74.3501 106.81C74.0601 106.41 73.5501 106.24 73.0801 106.38C72.6001 106.55 72.2001 106.91 71.9901 107.38C70.3401 110.87 73.9201 114.01 77.2701 113.2C78.0001 113.02 81.1701 111.84 81.4801 113.85C81.9101 116.6 78.4801 120 78.4801 120C81.4001 118.06 83.4001 115 84.0001 111.54C84.1801 110 84.1201 108.45 83.8401 106.93C84.1901 106.04 84.4201 105.1 84.5101 104.15C85.7301 104.19 86.9501 104.02 88.1101 103.63C89.6101 103.08 90.8701 102.02 91.6701 100.63C92.4601 99.27 92.8401 97.7 92.7601 96.13C92.7501 95.36 92.6201 94.6 92.3701 93.87Z" fill="url(#paint14_linear_169_12855)" style=""/>
<path d="M92.3701 93.87C92.1601 93.15 91.7601 92.5 91.2001 92C91.2001 92 92.7701 96.73 90.0101 99.87C88.8901 101.15 87.0101 102 85.4901 101.33C84.0901 100.72 83.3701 99.22 82.8301 97.75C83.7101 95.74 84.0701 93.55 83.9001 91.37C83.8601 90.65 83.6801 89.95 83.3701 89.3C84.0001 86.55 83.7301 83.67 82.5901 81.09C81.2301 78.52 78.6001 76.88 75.7001 76.79C73.3801 76.66 71.0601 76.94 68.8401 77.62C68.7701 77.35 68.7201 77.08 68.6801 76.8C68.6801 76.61 68.6201 76.4 68.6001 76.16C67.8801 76.25 67.1501 76.32 66.4201 76.36C66.4201 77.17 66.5001 77.83 66.5601 78.36C63.7301 79.34 61.0501 80.73 58.6201 82.48C61.5601 81.66 64.4701 80.74 67.4301 79.98C70.1501 79.29 73.1001 78.47 75.9401 78.65C77.8801 78.65 79.7201 79.56 80.8801 81.12C82.2101 83.06 81.0901 85.59 80.4901 86.67C79.7801 86.37 79.0301 86.18 78.2701 86.11C75.2701 85.8 71.9801 86.64 69.0401 87.38C66.1001 88.12 62.8001 89 60.2601 90.79C64.6301 89.71 68.7201 88.74 73.1701 88.02C75.8101 87.58 79.9501 87.32 81.2901 90.42C82.2901 92.71 80.7601 95.54 79.8201 96.96C77.7801 96.47 75.6401 96.56 73.6501 97.22C70.1301 98.23 66.7601 99.68 63.6001 101.52C67.4901 100.59 71.3501 99.41 75.3001 98.72C78.3701 98.18 82.0401 99.05 82.5201 102.72C82.7501 106.24 80.9701 109.59 77.9201 111.37C76.5401 112.28 74.7401 112.24 73.4001 111.28C72.6501 110.7 71.9401 109.18 73.0401 108.56C73.4001 108.36 73.8701 108.36 74.1901 108.1C74.5501 107.77 74.6201 107.22 74.3501 106.81C74.0601 106.41 73.5501 106.24 73.0801 106.38C72.6001 106.55 72.2001 106.91 71.9901 107.38C70.3401 110.87 73.9201 114.01 77.2701 113.2C78.0001 113.02 81.1701 111.84 81.4801 113.85C81.9101 116.6 78.4801 120 78.4801 120C81.4001 118.06 83.4001 115 84.0001 111.54C84.1801 110 84.1201 108.45 83.8401 106.93C84.1901 106.04 84.4201 105.1 84.5101 104.15C85.7301 104.19 86.9501 104.02 88.1101 103.63C89.6101 103.08 90.8701 102.02 91.6701 100.63C92.4601 99.27 92.8401 97.7 92.7601 96.13C92.7501 95.36 92.6201 94.6 92.3701 93.87Z" fill="#91674D" style="fill:#91674D;fill:color(display-p3 0.5686 0.4039 0.3020);fill-opacity:1;"/>
<defs>
<radialGradient id="paint0_radial_169_12855" cx="0" cy="0" r="1" gradientUnits="userSpaceOnUse" gradientTransform="translate(63.6001 62.9) scale(56.9597 56.9597)">
<stop offset="0.5" stop-color="#FDE030" style="stop-color:#FDE030;stop-color:color(display-p3 0.9922 0.8784 0.1882);stop-opacity:1;"/>
<stop offset="0.92" stop-color="#F7C02B" style="stop-color:#F7C02B;stop-color:color(display-p3 0.9686 0.7529 0.1686);stop-opacity:1;"/>
<stop offset="1" stop-color="#F4A223" style="stop-color:#F4A223;stop-color:color(display-p3 0.9569 0.6353 0.1373);stop-opacity:1;"/>
</radialGradient>
<linearGradient id="paint1_linear_169_12855" x1="63.6001" y1="118.8" x2="63.6001" y2="7" gradientUnits="userSpaceOnUse">
<stop offset="0.16" stop-color="#F4A223" style="stop-color:#F4A223;stop-color:color(display-p3 0.9569 0.6353 0.1373);stop-opacity:1;"/>
<stop offset="0.33" stop-color="#F7C02B" style="stop-color:#F7C02B;stop-color:color(display-p3 0.9686 0.7529 0.1686);stop-opacity:1;"/>
<stop offset="0.81" stop-color="#FDE030" stop-opacity="0" style="stop-color:none;stop-opacity:0;"/>
</linearGradient>
<radialGradient id="paint2_radial_169_12855" cx="0" cy="0" r="1" gradientUnits="userSpaceOnUse" gradientTransform="translate(63.6001 62.9) scale(56.9597 56.9597)">
<stop offset="0.5" stop-color="#FDE030" style="stop-color:#FDE030;stop-color:color(display-p3 0.9922 0.8784 0.1882);stop-opacity:1;"/>
<stop offset="0.92" stop-color="#F7C02B" style="stop-color:#F7C02B;stop-color:color(display-p3 0.9686 0.7529 0.1686);stop-opacity:1;"/>
<stop offset="1" stop-color="#F4A223" style="stop-color:#F4A223;stop-color:color(display-p3 0.9569 0.6353 0.1373);stop-opacity:1;"/>
</radialGradient>
<radialGradient id="paint3_radial_169_12855" cx="0" cy="0" r="1" gradientUnits="userSpaceOnUse" gradientTransform="translate(53 33.5) rotate(79.6952) scale(61.4919 100.858)">
<stop offset="0.3533" stop-color="#F9DDBD" style="stop-color:#F9DDBD;stop-color:color(display-p3 0.9765 0.8667 0.7412);stop-opacity:1;"/>
<stop offset="0.8723" stop-color="#FECD92" style="stop-color:#FECD92;stop-color:color(display-p3 0.9958 0.8035 0.5726);stop-opacity:1;"/>
</radialGradient>
<radialGradient id="paint4_radial_169_12855" cx="0" cy="0" r="1" gradientUnits="userSpaceOnUse" gradientTransform="translate(64 24) rotate(94.514) scale(76.2365 76.0874)">
<stop offset="0.3533" stop-color="#70534A" style="stop-color:#70534A;stop-color:color(display-p3 0.4392 0.3255 0.2902);stop-opacity:1;"/>
<stop offset="0.8723" stop-color="#52372F" style="stop-color:#52372F;stop-color:color(display-p3 0.3208 0.2166 0.1831);stop-opacity:1;"/>
</radialGradient>
<radialGradient id="paint5_radial_169_12855" cx="0" cy="0" r="1" gradientUnits="userSpaceOnUse" gradientTransform="translate(38.5991 34.5377) rotate(-43.2082) scale(102.024 101.825)">
<stop offset="0.3533" stop-color="#A37A58" style="stop-color:#A37A58;stop-color:color(display-p3 0.6375 0.4772 0.3453);stop-opacity:1;"/>
<stop offset="0.8723" stop-color="#8D5738" style="stop-color:#8D5738;stop-color:color(display-p3 0.5529 0.3412 0.2196);stop-opacity:1;"/>
</radialGradient>
<radialGradient id="paint6_radial_169_12855" cx="0" cy="0" r="1" gradientUnits="userSpaceOnUse" gradientTransform="translate(38.5991 34.5377) rotate(-43.2082) scale(102.024 101.825)">
<stop offset="0.3533" stop-color="#AD8264" style="stop-color:#AD8264;stop-color:color(display-p3 0.6784 0.5098 0.3922);stop-opacity:1;"/>
<stop offset="0.8723" stop-color="#A26F51" style="stop-color:#A26F51;stop-color:color(display-p3 0.6333 0.4366 0.3167);stop-opacity:1;"/>
</radialGradient>
<linearGradient id="paint7_linear_169_12855" x1="53.9865" y1="133.759" x2="50.045" y2="52.9928" gradientUnits="userSpaceOnUse">
<stop stop-color="#140905" style="stop-color:#140905;stop-color:color(display-p3 0.0792 0.0350 0.0214);stop-opacity:1;"/>
<stop offset="1" stop-color="#2C1109" stop-opacity="0.2" style="stop-color:#2C1109;stop-color:color(display-p3 0.1708 0.0679 0.0363);stop-opacity:0.2;"/>
</linearGradient>
<radialGradient id="paint8_radial_169_12855" cx="0" cy="0" r="1" gradientUnits="userSpaceOnUse" gradientTransform="translate(70.0772 87.9966) scale(29.9639)">
<stop offset="0.41" stop-color="#FFF176" style="stop-color:#FFF176;stop-color:color(display-p3 1.0000 0.9451 0.4627);stop-opacity:1;"/>
<stop offset="1" stop-color="#FFC400" style="stop-color:#FFC400;stop-color:color(display-p3 1.0000 0.7686 0.0000);stop-opacity:1;"/>
</radialGradient>
<radialGradient id="paint9_radial_169_12855" cx="0" cy="0" r="1" gradientUnits="userSpaceOnUse" gradientTransform="translate(60.2956 69.8385) rotate(-56.9509) scale(53.3509 48.7755)">
<stop offset="0.3533" stop-color="#F9DDBD" style="stop-color:#F9DDBD;stop-color:color(display-p3 0.9765 0.8667 0.7412);stop-opacity:1;"/>
<stop offset="0.8723" stop-color="#FFD29C" style="stop-color:#FFD29C;stop-color:color(display-p3 1.0000 0.8235 0.6118);stop-opacity:1;"/>
</radialGradient>
<radialGradient id="paint10_radial_169_12855" cx="0" cy="0" r="1" gradientUnits="userSpaceOnUse" gradientTransform="translate(60.2956 69.8385) rotate(-56.9509) scale(53.3509 48.7755)">
<stop offset="0.3533" stop-color="#70534A" style="stop-color:#70534A;stop-color:color(display-p3 0.4392 0.3255 0.2902);stop-opacity:1;"/>
<stop offset="0.8723" stop-color="#5C4037" style="stop-color:#5C4037;stop-color:color(display-p3 0.3608 0.2510 0.2157);stop-opacity:1;"/>
</radialGradient>
<radialGradient id="paint11_radial_169_12855" cx="0" cy="0" r="1" gradientUnits="userSpaceOnUse" gradientTransform="translate(60.2956 69.8385) rotate(-56.9509) scale(53.3509 48.7755)">
<stop offset="0.3533" stop-color="#A37A58" style="stop-color:#A37A58;stop-color:color(display-p3 0.6375 0.4772 0.3453);stop-opacity:1;"/>
<stop offset="0.8723" stop-color="#8D5738" style="stop-color:#8D5738;stop-color:color(display-p3 0.5529 0.3412 0.2196);stop-opacity:1;"/>
</radialGradient>
<radialGradient id="paint12_radial_169_12855" cx="0" cy="0" r="1" gradientUnits="userSpaceOnUse" gradientTransform="translate(60.2956 69.8385) rotate(-56.9509) scale(53.3509 48.7755)">
<stop offset="0.3533" stop-color="#BE977B" style="stop-color:#BE977B;stop-color:color(display-p3 0.7458 0.5902 0.4817);stop-opacity:1;"/>
<stop offset="0.8723" stop-color="#A47B62" style="stop-color:#A47B62;stop-color:color(display-p3 0.6431 0.4824 0.3843);stop-opacity:1;"/>
</radialGradient>
<linearGradient id="paint13_linear_169_12855" x1="66.9227" y1="74.0151" x2="65.7138" y2="53.1829" gradientUnits="userSpaceOnUse">
<stop stop-color="#140905" style="stop-color:#140905;stop-color:color(display-p3 0.0792 0.0350 0.0214);stop-opacity:1;"/>
<stop offset="1" stop-color="#2C1109" stop-opacity="0.2" style="stop-color:#2C1109;stop-color:color(display-p3 0.1708 0.0679 0.0363);stop-opacity:0.2;"/>
</linearGradient>
<linearGradient id="paint14_linear_169_12855" x1="87.4601" y1="98.08" x2="-156.64" y2="98.08" gradientUnits="userSpaceOnUse">
<stop stop-color="#DA6727" style="stop-color:#DA6727;stop-color:color(display-p3 0.8549 0.4039 0.1529);stop-opacity:1;"/>
<stop offset="0.02" stop-color="#E27C1E" style="stop-color:#E27C1E;stop-color:color(display-p3 0.8863 0.4863 0.1176);stop-opacity:1;"/>
<stop offset="0.06" stop-color="#ED9613" style="stop-color:#ED9613;stop-color:color(display-p3 0.9294 0.5882 0.0745);stop-opacity:1;"/>
<stop offset="0.1" stop-color="#F5AB0B" style="stop-color:#F5AB0B;stop-color:color(display-p3 0.9608 0.6706 0.0431);stop-opacity:1;"/>
<stop offset="0.15" stop-color="#FBB905" style="stop-color:#FBB905;stop-color:color(display-p3 0.9843 0.7255 0.0196);stop-opacity:1;"/>
<stop offset="0.21" stop-color="#FEC101" style="stop-color:#FEC101;stop-color:color(display-p3 0.9961 0.7569 0.0039);stop-opacity:1;"/>
<stop offset="0.3" stop-color="#FFC400" style="stop-color:#FFC400;stop-color:color(display-p3 1.0000 0.7686 0.0000);stop-opacity:1;"/>
</linearGradient>
</defs>
</svg>
