<svg width="128" height="128" viewBox="0 0 128 128" fill="none" xmlns="http://www.w3.org/2000/svg">
<path d="M101.233 97.2602C107.303 95.8202 120.913 88.2402 124.873 77.2102C127.973 68.5902 126.123 57.9402 120.573 52.4402C116.883 48.7902 112.093 47.7902 107.083 49.6502C96.6634 53.5002 92.1334 74.8102 92.0835 75.0202L92.0135 75.6002C91.7835 81.7602 92.0334 92.6202 96.2934 96.1202C97.3434 96.9802 98.5834 97.4302 99.8734 97.4302C100.323 97.4202 100.783 97.3702 101.233 97.2602ZM110.933 58.4102C113.823 56.6302 115.473 57.5802 115.473 57.5802C118.973 61.0502 119.773 67.1702 116.993 73.8602C114.453 79.9802 107.423 85.6602 100.823 87.1302C99.9134 84.9302 100.403 83.7302 100.583 78.1502C101.943 72.1202 106.803 60.9602 110.933 58.4102Z" fill="#EE5A46" style="fill:#EE5A46;fill:color(display-p3 0.9333 0.3529 0.2745);fill-opacity:1;"/>
<path d="M101.233 97.2602C107.303 95.8202 120.913 88.2402 124.873 77.2102C127.973 68.5902 126.123 57.9402 120.573 52.4402C116.883 48.7902 112.093 47.7902 107.083 49.6502C96.6634 53.5002 92.1334 74.8102 92.0835 75.0202L92.0135 75.6002C91.7835 81.7602 92.0334 92.6202 96.2934 96.1202C97.3434 96.9802 98.5834 97.4302 99.8734 97.4302C100.323 97.4202 100.783 97.3702 101.233 97.2602ZM110.933 58.4102C113.823 56.6302 115.473 57.5802 115.473 57.5802C118.973 61.0502 119.773 67.1702 116.993 73.8602C114.453 79.9802 107.423 85.6602 100.823 87.1302C99.9134 84.9302 100.403 83.7302 100.583 78.1502C101.943 72.1202 106.803 60.9602 110.933 58.4102Z" fill="#E1E7EA" style="fill:#E1E7EA;fill:color(display-p3 0.8824 0.9059 0.9176);fill-opacity:1;"/>
<path d="M46.83 109.7C47.22 109.17 47.73 108.7 48.4 108.39C49.57 107.85 57.18 106.89 65.64 105.96C74.09 106.89 81.71 107.85 82.88 108.39C83.55 108.7 84.06 109.17 84.45 109.7C85.78 111.53 86.57 114.33 84.65 115.29C81.73 116.75 75.9 118.72 65.64 118.72C55.38 118.72 49.55 116.75 46.63 115.29C44.71 114.33 45.5 111.54 46.83 109.7Z" fill="#CC3F27" style="fill:#CC3F27;fill:color(display-p3 0.8000 0.2471 0.1529);fill-opacity:1;"/>
<path d="M46.83 109.7C47.22 109.17 47.73 108.7 48.4 108.39C49.57 107.85 57.18 106.89 65.64 105.96C74.09 106.89 81.71 107.85 82.88 108.39C83.55 108.7 84.06 109.17 84.45 109.7C85.78 111.53 86.57 114.33 84.65 115.29C81.73 116.75 75.9 118.72 65.64 118.72C55.38 118.72 49.55 116.75 46.63 115.29C44.71 114.33 45.5 111.54 46.83 109.7Z" fill="#8ABFD1" style="fill:#8ABFD1;fill:color(display-p3 0.5412 0.7490 0.8196);fill-opacity:1;"/>
<path d="M83.0736 45.3101C83.0736 45.3101 70.2436 41.1201 64.9036 41.1201C59.5636 41.1201 46.7336 45.3101 46.7336 45.3101C36.4836 53.6801 25.0736 66.8101 25.0736 79.2401C25.0736 92.3301 32.8836 104.66 45.2936 110.5C50.9336 113.15 58.0236 113.72 64.9036 113.72C71.7836 113.72 78.8636 113.16 84.5136 110.5C96.9336 104.66 104.734 92.3301 104.734 79.2401C104.734 66.8101 93.3136 53.6801 83.0736 45.3101Z" fill="#EE5A46" style="fill:#EE5A46;fill:color(display-p3 0.9333 0.3529 0.2745);fill-opacity:1;"/>
<path d="M83.0736 45.3101C83.0736 45.3101 70.2436 41.1201 64.9036 41.1201C59.5636 41.1201 46.7336 45.3101 46.7336 45.3101C36.4836 53.6801 25.0736 66.8101 25.0736 79.2401C25.0736 92.3301 32.8836 104.66 45.2936 110.5C50.9336 113.15 58.0236 113.72 64.9036 113.72C71.7836 113.72 78.8636 113.16 84.5136 110.5C96.9336 104.66 104.734 92.3301 104.734 79.2401C104.734 66.8101 93.3136 53.6801 83.0736 45.3101Z" fill="#E1E7EA" style="fill:#E1E7EA;fill:color(display-p3 0.8824 0.9059 0.9176);fill-opacity:1;"/>
<path d="M7.1438 51.0401L7.2638 49.5901L16.7638 48.8701C16.7638 48.8701 20.1438 51.7301 22.2038 57.2201C24.1438 62.4001 25.6538 67.6801 28.1138 68.0901C30.5838 68.5001 30.5838 68.5001 30.5838 68.5001C30.5838 68.5001 36.2038 69.7001 36.4938 80.9601C36.7838 92.2201 30.5838 93.9901 30.5838 93.9901C30.5838 93.9901 23.1838 95.0201 17.4338 84.1201C11.6838 73.2201 13.7338 65.8301 11.8838 60.2801C10.0338 54.7301 7.1438 51.0401 7.1438 51.0401Z" fill="#EE5A46" style="fill:#EE5A46;fill:color(display-p3 0.9333 0.3529 0.2745);fill-opacity:1;"/>
<path d="M7.1438 51.0401L7.2638 49.5901L16.7638 48.8701C16.7638 48.8701 20.1438 51.7301 22.2038 57.2201C24.1438 62.4001 25.6538 67.6801 28.1138 68.0901C30.5838 68.5001 30.5838 68.5001 30.5838 68.5001C30.5838 68.5001 36.2038 69.7001 36.4938 80.9601C36.7838 92.2201 30.5838 93.9901 30.5838 93.9901C30.5838 93.9901 23.1838 95.0201 17.4338 84.1201C11.6838 73.2201 13.7338 65.8301 11.8838 60.2801C10.0338 54.7301 7.1438 51.0401 7.1438 51.0401Z" fill="#E1E7EA" style="fill:#E1E7EA;fill:color(display-p3 0.8824 0.9059 0.9176);fill-opacity:1;"/>
<path d="M12.003 52.82C9.08138 52.82 6.71297 51.5799 6.71297 50.05C6.71297 48.5202 9.08138 47.28 12.003 47.28C14.9246 47.28 17.293 48.5202 17.293 50.05C17.293 51.5799 14.9246 52.82 12.003 52.82Z" fill="#EE5A46" style="fill:#EE5A46;fill:color(display-p3 0.9333 0.3529 0.2745);fill-opacity:1;"/>
<path d="M12.003 52.82C9.08138 52.82 6.71297 51.5799 6.71297 50.05C6.71297 48.5202 9.08138 47.28 12.003 47.28C14.9246 47.28 17.293 48.5202 17.293 50.05C17.293 51.5799 14.9246 52.82 12.003 52.82Z" fill="#E1E7EA" style="fill:#E1E7EA;fill:color(display-p3 0.8824 0.9059 0.9176);fill-opacity:1;"/>
<path d="M12.0048 51.5801C9.97241 51.5801 8.32481 50.8056 8.32481 49.8501C8.32481 48.8947 9.97241 48.1201 12.0048 48.1201C14.0372 48.1201 15.6848 48.8947 15.6848 49.8501C15.6848 50.8056 14.0372 51.5801 12.0048 51.5801Z" fill="#AF2C1B" style="fill:#AF2C1B;fill:color(display-p3 0.6863 0.1725 0.1059);fill-opacity:1;"/>
<path d="M12.0048 51.5801C9.97241 51.5801 8.32481 50.8056 8.32481 49.8501C8.32481 48.8947 9.97241 48.1201 12.0048 48.1201C14.0372 48.1201 15.6848 48.8947 15.6848 49.8501C15.6848 50.8056 14.0372 51.5801 12.0048 51.5801Z" fill="#8ABFD1" style="fill:#8ABFD1;fill:color(display-p3 0.5412 0.7490 0.8196);fill-opacity:1;"/>
<path d="M44.17 46.84C49.31 45.12 56.78 44.03 65.1 44.03C73.09 44.03 80.29 45.03 85.4 46.64C87.2 48.18 89.01 49.85 90.77 51.63C91.47 52.33 89.44 61.23 65 61.23C40.56 61.23 38.7 52.41 39.36 51.7C40.91 50.02 42.52 48.39 44.17 46.84Z" fill="#CC3F27" style="fill:#CC3F27;fill:color(display-p3 0.8000 0.2471 0.1529);fill-opacity:1;"/>
<path d="M44.17 46.84C49.31 45.12 56.78 44.03 65.1 44.03C73.09 44.03 80.29 45.03 85.4 46.64C87.2 48.18 89.01 49.85 90.77 51.63C91.47 52.33 89.44 61.23 65 61.23C40.56 61.23 38.7 52.41 39.36 51.7C40.91 50.02 42.52 48.39 44.17 46.84Z" fill="#8ABFD1" style="fill:#8ABFD1;fill:color(display-p3 0.5412 0.7490 0.8196);fill-opacity:1;"/>
<path d="M65.1002 59.35C79.2883 59.35 90.7902 55.5757 90.7902 50.92C90.7902 46.2642 79.2883 42.49 65.1002 42.49C50.912 42.49 39.4102 46.2642 39.4102 50.92C39.4102 55.5757 50.912 59.35 65.1002 59.35Z" fill="#FFA726" style="fill:#FFA726;fill:color(display-p3 1.0000 0.6549 0.1490);fill-opacity:1;"/>
<path d="M86.5902 47.3601C86.5902 47.3601 78.5702 38.8201 65.0002 38.8201C51.4302 38.8201 43.4102 47.3601 43.4102 47.3601C43.4102 51.1701 53.0702 54.2601 65.0002 54.2601C76.9302 54.2601 86.5902 51.1701 86.5902 47.3601Z" fill="#EE5A46" style="fill:#EE5A46;fill:color(display-p3 0.9333 0.3529 0.2745);fill-opacity:1;"/>
<path d="M86.5902 47.3601C86.5902 47.3601 78.5702 38.8201 65.0002 38.8201C51.4302 38.8201 43.4102 47.3601 43.4102 47.3601C43.4102 51.1701 53.0702 54.2601 65.0002 54.2601C76.9302 54.2601 86.5902 51.1701 86.5902 47.3601Z" fill="#E1E7EA" style="fill:#E1E7EA;fill:color(display-p3 0.8824 0.9059 0.9176);fill-opacity:1;"/>
<path d="M65.0002 42.2301C69.0374 42.2301 72.3102 38.9573 72.3102 34.9201C72.3102 30.8829 69.0374 27.6101 65.0002 27.6101C60.963 27.6101 57.6902 30.8829 57.6902 34.9201C57.6902 38.9573 60.963 42.2301 65.0002 42.2301Z" fill="#EE5A46" style="fill:#EE5A46;fill:color(display-p3 0.9333 0.3529 0.2745);fill-opacity:1;"/>
<path d="M65.0002 42.2301C69.0374 42.2301 72.3102 38.9573 72.3102 34.9201C72.3102 30.8829 69.0374 27.6101 65.0002 27.6101C60.963 27.6101 57.6902 30.8829 57.6902 34.9201C57.6902 38.9573 60.963 42.2301 65.0002 42.2301Z" fill="#E1E7EA" style="fill:#E1E7EA;fill:color(display-p3 0.8824 0.9059 0.9176);fill-opacity:1;"/>
<path d="M59.1802 39.3501C60.1902 39.9801 61.1302 40.4601 62.1002 40.7701C63.0602 41.0801 64.0302 41.2301 65.0002 41.2301C65.9702 41.2301 66.9302 41.0801 67.8902 40.7701C68.8602 40.4601 69.8002 39.9901 70.8102 39.3601C70.4602 40.5101 69.6302 41.5001 68.5902 42.1801C67.5402 42.8701 66.2702 43.2401 65.0002 43.2301C63.7302 43.2301 62.4502 42.8601 61.4102 42.1701C60.3702 41.4801 59.5402 40.5001 59.1802 39.3501Z" fill="#CC3F27" style="fill:#CC3F27;fill:color(display-p3 0.8000 0.2471 0.1529);fill-opacity:1;"/>
<path d="M59.1802 39.3501C60.1902 39.9801 61.1302 40.4601 62.1002 40.7701C63.0602 41.0801 64.0302 41.2301 65.0002 41.2301C65.9702 41.2301 66.9302 41.0801 67.8902 40.7701C68.8602 40.4601 69.8002 39.9901 70.8102 39.3601C70.4602 40.5101 69.6302 41.5001 68.5902 42.1801C67.5402 42.8701 66.2702 43.2401 65.0002 43.2301C63.7302 43.2301 62.4502 42.8601 61.4102 42.1701C60.3702 41.4801 59.5402 40.5001 59.1802 39.3501Z" fill="#8ABFD1" style="fill:#8ABFD1;fill:color(display-p3 0.5412 0.7490 0.8196);fill-opacity:1;"/>
<path d="M108.685 59.7702C110.575 58.5202 112.615 57.5002 114.655 57.2402C116.695 56.9602 118.575 57.7102 119.955 59.1902C120.665 59.8802 121.175 60.7102 121.575 61.6702C122.005 62.6102 122.265 63.6602 122.515 64.7102C122.965 66.8402 123.205 69.0702 123.405 71.3502C124.055 69.1402 124.275 66.8202 124.085 64.4802C124.005 63.3102 123.745 62.1402 123.365 60.9702C122.935 59.8402 122.305 58.6602 121.375 57.7802C120.495 56.9102 119.405 56.1502 118.155 55.7702C116.905 55.4002 115.565 55.3902 114.365 55.7202C111.955 56.3902 110.045 57.9302 108.685 59.7702Z" fill="#CC3F27" style="fill:#CC3F27;fill:color(display-p3 0.8000 0.2471 0.1529);fill-opacity:1;"/>
<path d="M108.685 59.7702C110.575 58.5202 112.615 57.5002 114.655 57.2402C116.695 56.9602 118.575 57.7102 119.955 59.1902C120.665 59.8802 121.175 60.7102 121.575 61.6702C122.005 62.6102 122.265 63.6602 122.515 64.7102C122.965 66.8402 123.205 69.0702 123.405 71.3502C124.055 69.1402 124.275 66.8202 124.085 64.4802C124.005 63.3102 123.745 62.1402 123.365 60.9702C122.935 59.8402 122.305 58.6602 121.375 57.7802C120.495 56.9102 119.405 56.1502 118.155 55.7702C116.905 55.4002 115.565 55.3902 114.365 55.7202C111.955 56.3902 110.045 57.9302 108.685 59.7702Z" fill="#BAD6E0" style="fill:#BAD6E0;fill:color(display-p3 0.7290 0.8411 0.8792);fill-opacity:1;"/>
<path d="M33.5802 68.1402C36.1202 61.7302 41.9802 60.0602 44.2102 62.4102C47.8202 66.2102 42.1502 73.5602 39.5602 77.4202C37.6002 80.3402 37.1902 86.3002 36.9502 87.1402C35.9602 90.5402 33.4302 88.2702 32.6402 85.1502C31.3702 80.1502 31.0602 74.5002 33.5802 68.1402Z" fill="white" style="fill:white;fill-opacity:1;"/>
</svg>
