<svg width="128" height="128" viewBox="0 0 128 128" fill="none" xmlns="http://www.w3.org/2000/svg">
<path d="M67.47 48.2L66.36 66.68C66.36 66.68 70.12 77.3199 69.07 92.1299C68.06 106.4 64.27 113.62 63.23 116.12C62.19 118.62 59.27 121.75 63.23 123C67.19 124.25 73.87 123.63 76.79 122.58C79.71 121.54 81.16 115.74 81.59 113.4C82.64 107.61 83.22 96.66 81.09 85.86C79.46 77.56 76 63.33 76 63.33L67.47 48.2Z" fill="#99C23B" style="fill:#99C23B;fill:color(display-p3 0.6000 0.7608 0.2314);fill-opacity:1;"/>
<path d="M67.47 48.2L66.36 66.68C66.36 66.68 70.12 77.3199 69.07 92.1299C68.06 106.4 64.27 113.62 63.23 116.12C62.19 118.62 59.27 121.75 63.23 123C67.19 124.25 73.87 123.63 76.79 122.58C79.71 121.54 81.16 115.74 81.59 113.4C82.64 107.61 83.22 96.66 81.09 85.86C79.46 77.56 76 63.33 76 63.33L67.47 48.2Z" fill="#8BC12D" style="fill:#8BC12D;fill:color(display-p3 0.5451 0.7569 0.1765);fill-opacity:1;"/>
<path d="M66.7798 45.4C66.7798 45.4 71.0598 31.97 80.8998 21.78C90.3298 12.02 99.9598 8.82003 107.68 7.86003C116.19 6.80003 119.66 6.91003 121.12 7.96003C122.58 9.01003 122.06 10.66 122.09 12.12C122.28 22.56 122.67 36.09 110.39 48.47C97.2798 61.67 87.9398 64.04 77.7098 65.09C67.4898 66.13 68.6498 61.47 68.6498 61.47L66.7798 45.4Z" fill="#99C23B" style="fill:#99C23B;fill:color(display-p3 0.6000 0.7608 0.2314);fill-opacity:1;"/>
<path d="M66.7798 45.4C66.7798 45.4 71.0598 31.97 80.8998 21.78C90.3298 12.02 99.9598 8.82003 107.68 7.86003C116.19 6.80003 119.66 6.91003 121.12 7.96003C122.58 9.01003 122.06 10.66 122.09 12.12C122.28 22.56 122.67 36.09 110.39 48.47C97.2798 61.67 87.9398 64.04 77.7098 65.09C67.4898 66.13 68.6498 61.47 68.6498 61.47L66.7798 45.4Z" fill="#8BC12D" style="fill:#8BC12D;fill:color(display-p3 0.5451 0.7569 0.1765);fill-opacity:1;"/>
<path d="M2.97997 37.05C2.60997 38.88 12.27 60.36 30.93 67.12C51.02 74.41 69.96 67.12 69.96 67.12L71.52 47.78L66.77 45.4C66.77 45.4 56.7 34.29 45.51 30.19C33.91 25.94 20.8 25.61 11.87 30.38C6.26997 33.38 3.17997 36.08 2.97997 37.05Z" fill="#99C23B" style="fill:#99C23B;fill:color(display-p3 0.6000 0.7608 0.2314);fill-opacity:1;"/>
<path d="M2.97997 37.05C2.60997 38.88 12.27 60.36 30.93 67.12C51.02 74.41 69.96 67.12 69.96 67.12L71.52 47.78L66.77 45.4C66.77 45.4 56.7 34.29 45.51 30.19C33.91 25.94 20.8 25.61 11.87 30.38C6.26997 33.38 3.17997 36.08 2.97997 37.05Z" fill="#8BC12D" style="fill:#8BC12D;fill:color(display-p3 0.5451 0.7569 0.1765);fill-opacity:1;"/>
<path d="M86.6802 30.68C77.3802 41.7 72.6902 52.81 72.2002 55.71C71.7102 58.61 73.3202 58.49 74.2302 57.26C75.8702 55.04 81.5802 44.89 90.0802 35.22C97.4402 26.86 108.64 17.82 110.28 15.89C111.3 14.69 110.18 13.18 108.64 13.86C107.1 14.53 96.1902 19.41 86.6802 30.68Z" fill="#749627" style="fill:#749627;fill:color(display-p3 0.4559 0.5875 0.1542);fill-opacity:1;"/>
<path d="M86.6802 30.68C77.3802 41.7 72.6902 52.81 72.2002 55.71C71.7102 58.61 73.3202 58.49 74.2302 57.26C75.8702 55.04 81.5802 44.89 90.0802 35.22C97.4402 26.86 108.64 17.82 110.28 15.89C111.3 14.69 110.18 13.18 108.64 13.86C107.1 14.53 96.1902 19.41 86.6802 30.68Z" fill="#599724" style="fill:#599724;fill:color(display-p3 0.3490 0.5922 0.1412);fill-opacity:1;"/>
<path d="M41.4301 41C27.8301 36.32 17.8801 36.95 15.8501 37.63C13.8201 38.31 13.9201 40.53 16.3301 40.82C18.7401 41.11 28.5701 42.09 40.8901 46.52C54.0401 51.26 63.4101 58.41 65.0601 59.38C66.7001 60.35 67.7701 58.41 66.3201 56.67C65.2101 55.36 56.4301 46.16 41.4301 41Z" fill="#749627" style="fill:#749627;fill:color(display-p3 0.4559 0.5875 0.1542);fill-opacity:1;"/>
<path d="M41.4301 41C27.8301 36.32 17.8801 36.95 15.8501 37.63C13.8201 38.31 13.9201 40.53 16.3301 40.82C18.7401 41.11 28.5701 42.09 40.8901 46.52C54.0401 51.26 63.4101 58.41 65.0601 59.38C66.7001 60.35 67.7701 58.41 66.3201 56.67C65.2101 55.36 56.4301 46.16 41.4301 41Z" fill="#599724" style="fill:#599724;fill:color(display-p3 0.3490 0.5922 0.1412);fill-opacity:1;"/>
</svg>
