<svg width="128" height="128" viewBox="0 0 128 128" fill="none" xmlns="http://www.w3.org/2000/svg">
<path d="M80.2799 80.98L78.6499 78.64C77.5499 77.05 74.6699 76.36 74.6699 76.36L68.8199 80.42L64.7599 85.82C63.8299 87.21 63.8399 89.02 64.7899 90.39L65.5199 91.45C65.7199 91.74 66.0399 91.89 66.3599 91.89C66.5599 91.89 66.7599 91.83 66.9399 91.71L79.9899 82.61C80.5199 82.24 80.6499 81.51 80.2799 80.98Z" fill="#4568AD" style="fill:#4568AD;fill:color(display-p3 0.2706 0.4078 0.6784);fill-opacity:1;"/>
<path d="M51.68 10.35C48.44 6.98001 42.35 5.11001 37.98 6.79001C33.09 8.67001 31.13 12.86 31.38 17.6C31.47 19.32 31.87 20.97 32.41 22.09C32.47 22.22 32.97 23.19 33.06 23.51C33.51 24.71 31.36 26.44 31.36 27.87C31.36 28.94 33.67 29.15 33.87 29.3C34.91 30.05 34.5 34.69 40.53 33.92C42.56 33.66 42.66 33.45 43.39 33.41C45.29 33.29 50.65 35.04 50.65 35.04L52.77 30.6C52.77 30.6 51.03 29.8 52.73 24.43C54.04 20.31 53.76 12.51 51.68 10.35Z" fill="#F9DDBD" style="fill:#F9DDBD;fill:color(display-p3 0.9765 0.8667 0.7412);fill-opacity:1;"/>
<path d="M35.01 31.63C35.84 31.51 36.62 31.15 37.2 30.49C37.84 29.77 37.19 29.26 36.4 29.8C35.92 30.13 35.2 30.4 34.5 30.41L35.01 31.63Z" fill="#444444" style="fill:#444444;fill:color(display-p3 0.2667 0.2667 0.2667);fill-opacity:1;"/>
<path d="M37.2872 25.07C37.8821 24.9222 38.182 24.0681 37.957 23.1623C37.732 22.2564 37.0672 21.6419 36.4723 21.7898C35.8773 21.9376 35.5774 22.7917 35.8025 23.6975C36.0275 24.6033 36.6922 25.2178 37.2872 25.07Z" fill="#312D2D" style="fill:#312D2D;fill:color(display-p3 0.1922 0.1765 0.1765);fill-opacity:1;"/>
<path d="M35.65 21.34C34.72 21.98 34.26 21.39 34.42 20.73C34.54 20.25 35.05 19.71 36.33 19.54C37.53 19.39 38.22 19.88 38.65 20.17C39.09 20.46 39.18 20.87 38.93 20.99C38.59 21.16 36.8 20.55 35.65 21.34Z" fill="#454140" style="fill:#454140;fill:color(display-p3 0.2706 0.2549 0.2510);fill-opacity:1;"/>
<path d="M53.1301 12.16C52.7001 11.58 52.2301 11.04 51.6901 10.56C50.9301 9.87998 50.0501 9.34998 49.1301 8.91998C46.6901 7.78998 43.8901 7.41997 41.2501 7.95997C38.6101 8.49997 36.1701 9.97997 34.5201 12.11C33.2501 13.76 32.4701 16.02 33.2701 17.94C34.2601 17.65 34.9901 16.79 36.0701 16.57C37.4701 16.27 39.0001 16.25 40.1901 15.46C40.6501 15.16 41.0401 14.75 41.4701 14.41C41.5801 14.38 41.6501 14.37 41.6501 14.37C43.5601 14.92 42.1501 19.4 44.5601 21.35C45.0401 21.74 45.6001 22.06 45.6001 22.06C45.6001 22.06 45.1901 18.9 47.2101 18.87C49.3101 18.84 49.4801 20.99 48.8801 22.82C48.2601 24.72 47.1901 24.05 47.5701 24.68C48.1901 25.71 51.3801 26.01 52.3801 25.8C53.7201 25.53 54.5801 24.07 55.3801 22.96C56.3101 21.68 56.2301 20.16 56.0901 18.58C55.9301 16.84 55.1001 15.23 54.1801 13.74C53.8501 13.19 53.5001 12.66 53.1301 12.16Z" fill="#312D2D" style="fill:#312D2D;fill:color(display-p3 0.1922 0.1765 0.1765);fill-opacity:1;"/>
<path d="M48.5698 25.35L49.3298 24.57C49.2398 24.54 49.1398 24.52 49.0598 24.49C49.3298 24.19 49.5998 23.75 49.8098 23.1C50.0698 22.31 50.5598 20.33 49.5598 18.95C49.1998 18.46 48.5098 17.86 47.2598 17.86H47.1998C46.4798 17.87 45.8498 18.15 45.3998 18.68C45.0498 19.08 44.8498 19.58 44.7298 20.08C44.2898 19.45 44.0998 18.61 43.9698 17.74L43.0498 18.16C43.2498 19.34 43.5998 20.54 44.5598 21.32C45.0398 21.71 45.5998 22.03 45.5998 22.03C45.5998 22.03 45.1898 18.87 47.2098 18.84H47.2598C49.3098 18.84 49.4798 20.97 48.8898 22.79C48.2698 24.69 47.1998 24.02 47.5798 24.65C47.7298 24.95 48.1098 25.17 48.5698 25.35Z" fill="#312D2D" style="fill:#312D2D;fill:color(display-p3 0.1922 0.1765 0.1765);fill-opacity:1;"/>
<path d="M83.5598 49.6199L77.3498 37.95L53.2998 51.86V51.8699C50.5598 53.3199 49.5298 56.7199 50.9798 59.4599C51.1298 59.75 51.3098 60.0099 51.5098 60.2599L51.5498 60.31C51.5998 60.37 51.6498 60.43 51.6998 60.5L68.5598 80.7699L75.6398 75.5599L64.2598 59.0099L83.5598 49.6199Z" fill="#EDBD82" style="fill:#EDBD82;fill:color(display-p3 0.9294 0.7412 0.5098);fill-opacity:1;"/>
<path d="M87.5102 40.02C86.1102 37.38 83.3802 35.86 80.5702 35.86C79.3202 35.86 78.0602 36.16 76.8802 36.78V36.77L59.9102 46.63L66.9502 59.87L84.2602 50.66C88.1002 48.62 89.5502 43.86 87.5102 40.02Z" fill="#646464" style="fill:#646464;fill:color(display-p3 0.3922 0.3922 0.3922);fill-opacity:1;"/>
<path d="M71.3002 69.26L63.6602 74.88L68.5602 80.77L75.6402 75.56L71.3002 69.26Z" fill="#E0E0E0" style="fill:#E0E0E0;fill:color(display-p3 0.8784 0.8784 0.8784);fill-opacity:1;"/>
<path d="M97.5202 76.41C84.6502 76.41 74.1802 86.88 74.1802 99.74C74.1802 112.61 84.6502 123.07 97.5202 123.07C110.38 123.07 120.85 112.6 120.85 99.74C120.85 86.87 110.39 76.41 97.5202 76.41ZM97.5202 114.74C89.2602 114.74 82.5102 108.01 82.5102 99.74C82.5102 91.47 89.2502 84.74 97.5202 84.74C105.79 84.74 112.52 91.47 112.52 99.74C112.52 108.01 105.79 114.74 97.5202 114.74Z" fill="#C4C4C4" style="fill:#C4C4C4;fill:color(display-p3 0.7686 0.7686 0.7686);fill-opacity:1;"/>
<path d="M97.5202 76.41C84.6502 76.41 74.1802 86.88 74.1802 99.74C74.1802 112.61 84.6502 123.07 97.5202 123.07C110.38 123.07 120.85 112.6 120.85 99.74C120.85 86.87 110.39 76.41 97.5202 76.41ZM97.5202 114.74C89.2602 114.74 82.5102 108.01 82.5102 99.74C82.5102 91.47 89.2502 84.74 97.5202 84.74C105.79 84.74 112.52 91.47 112.52 99.74C112.52 108.01 105.79 114.74 97.5202 114.74Z" fill="#484D50" style="fill:#484D50;fill:color(display-p3 0.2824 0.3020 0.3137);fill-opacity:1;"/>
<path d="M30.4801 76.41C17.6101 76.41 7.14014 86.88 7.14014 99.74C7.14014 112.61 17.6101 123.07 30.4801 123.07C43.3401 123.07 53.8101 112.6 53.8101 99.74C53.8101 86.87 43.3501 76.41 30.4801 76.41ZM30.4801 114.74C22.2201 114.74 15.4701 108.01 15.4701 99.74C15.4701 91.47 22.2101 84.74 30.4801 84.74C38.7501 84.74 45.4801 91.47 45.4801 99.74C45.4801 108.01 38.7501 114.74 30.4801 114.74Z" fill="#C4C4C4" style="fill:#C4C4C4;fill:color(display-p3 0.7686 0.7686 0.7686);fill-opacity:1;"/>
<path d="M30.4801 76.41C17.6101 76.41 7.14014 86.88 7.14014 99.74C7.14014 112.61 17.6101 123.07 30.4801 123.07C43.3401 123.07 53.8101 112.6 53.8101 99.74C53.8101 86.87 43.3501 76.41 30.4801 76.41ZM30.4801 114.74C22.2201 114.74 15.4701 108.01 15.4701 99.74C15.4701 91.47 22.2101 84.74 30.4801 84.74C38.7501 84.74 45.4801 91.47 45.4801 99.74C45.4801 108.01 38.7501 114.74 30.4801 114.74Z" fill="#484D50" style="fill:#484D50;fill:color(display-p3 0.2824 0.3020 0.3137);fill-opacity:1;"/>
<path d="M99.9203 98.07C99.8303 97.83 99.7103 97.61 99.5503 97.4L90.3803 85.06L80.1903 71.32L83.9303 63.19C84.0103 63.02 84.0703 62.84 84.1103 62.66C84.1503 62.48 84.1803 62.3 84.1803 62.12C84.1903 61.94 84.1703 61.76 84.1403 61.59C84.0803 61.24 83.9603 60.91 83.7703 60.61C83.4903 60.16 83.0903 59.78 82.5703 59.55C82.3903 59.47 82.2103 59.41 82.0203 59.37C81.9503 59.36 81.8903 59.35 81.8203 59.34C81.7003 59.32 81.5803 59.3 81.4603 59.3C81.4503 59.3 81.4403 59.3 81.4203 59.3C81.3903 59.3 81.3603 59.31 81.3403 59.31C81.1403 59.32 80.9403 59.34 80.7503 59.39C80.7003 59.4 80.6503 59.41 80.6003 59.43C80.3803 59.5 80.1703 59.59 79.9703 59.71C79.9603 59.72 79.9403 59.73 79.9303 59.74C79.7503 59.86 79.5903 60 79.4403 60.15C79.4003 60.19 79.3603 60.24 79.3203 60.28C79.1703 60.46 79.0303 60.66 78.9303 60.88L78.9103 60.92L75.3003 68.77L43.3303 64.15L44.4003 60.1C44.7903 58.64 43.9103 57.14 42.4403 56.75C42.4303 56.75 42.4103 56.75 42.4003 56.74C42.1803 56.68 41.9603 56.65 41.7403 56.65C40.5303 56.65 39.4203 57.46 39.0903 58.69L36.8303 67.24L28.3303 99.41C27.9503 100.87 28.8203 102.37 30.2803 102.76C30.5203 102.82 30.7503 102.85 30.9903 102.85C30.9903 102.85 30.9903 102.85 31.0003 102.85C32.2103 102.85 33.3203 102.04 33.6503 100.81L41.2703 71.95L62.2103 100.64C62.2603 100.71 62.3303 100.77 62.3903 100.83C62.4503 100.89 62.5003 100.95 62.5603 101.01C62.6203 101.07 62.6803 101.12 62.7503 101.17L62.7703 101.19C62.7803 101.2 62.8003 101.21 62.8103 101.22C62.8703 101.27 62.9303 101.31 63.0003 101.35C63.0303 101.37 63.0503 101.39 63.0803 101.4C63.1103 101.41 63.1403 101.43 63.1703 101.45C63.1803 101.45 63.1903 101.46 63.2003 101.47C63.2203 101.48 63.2403 101.49 63.2603 101.5C63.2903 101.51 63.3103 101.52 63.3403 101.53C63.3703 101.54 63.4103 101.56 63.4403 101.57C63.5103 101.6 63.5903 101.63 63.6603 101.65C63.7103 101.67 63.7603 101.69 63.8203 101.7C64.0103 101.74 64.2203 101.77 64.4203 101.77H97.3403C98.3803 101.77 99.3303 101.19 99.7903 100.26C100.15 99.59 100.19 98.78 99.9203 98.07ZM46.7903 70.21L63.2603 72.59L72.9203 73.99L63.9003 93.64L46.7903 70.21ZM68.7203 96.29L77.5803 77.02L91.9003 96.29H68.7203Z" fill="url(#paint0_linear_1015_241)" style=""/>
<path d="M71.04 99.4801C70.57 98.4601 69.71 97.7401 68.79 97.5901C67.61 97.3901 62.73 98.9801 62.01 99.3101C60.26 100.09 58.13 102.31 59.1 104.62C59.71 106.04 60.58 106.47 61.51 106.47C62.29 106.47 63.1 106.17 63.84 105.9L64.4 105.7C64.77 105.57 65.2 105.44 65.65 105.31C67.61 104.73 70.05 104 71.05 102.32C71.5 101.54 71.51 100.48 71.04 99.4801Z" fill="#504F4F" style="fill:#504F4F;fill:color(display-p3 0.3137 0.3098 0.3098);fill-opacity:1;"/>
<path d="M43.1603 56.25L34.6203 54.2C34.4103 54.14 34.1903 54.12 33.9803 54.12C32.7403 54.12 31.6103 54.96 31.3103 56.22C30.9603 57.7 31.8603 59.18 33.3403 59.53L41.8803 61.58C42.0903 61.63 42.3003 61.66 42.5203 61.66C43.7603 61.66 44.8803 60.82 45.1903 59.56C45.5403 58.09 44.6303 56.61 43.1603 56.25Z" fill="#484D50" style="fill:#484D50;fill:color(display-p3 0.2824 0.3020 0.3137);fill-opacity:1;"/>
<path d="M88.4402 56.7699C88.3102 56.6699 88.1702 56.5699 88.0302 56.4899C86.8802 55.8399 85.5902 55.9899 84.2702 55.9299C82.6702 55.8499 81.0502 55.7799 79.4502 55.6799C78.5702 55.6199 77.6902 55.6099 76.8102 55.6099C75.7802 55.6099 74.7402 55.6299 73.7202 55.6299C72.9402 55.6299 72.1702 55.6199 71.4002 55.5799C71.3602 55.5699 71.3002 55.5699 71.2402 55.5699C69.7702 55.5699 68.3802 56.6799 67.8702 57.9999C67.1502 59.8699 68.4202 61.0499 70.0102 61.9099C71.9602 62.9699 74.1502 63.4699 76.2802 63.9899C78.6002 64.5499 80.9202 65.2899 83.3002 65.6099C83.6002 65.6499 83.9002 65.6699 84.2102 65.6699C86.2702 65.6699 88.4002 64.7599 89.5702 63.0499C90.9702 61.0099 90.3902 58.2899 88.4402 56.7699Z" fill="#504F4F" style="fill:#504F4F;fill:color(display-p3 0.3137 0.3098 0.3098);fill-opacity:1;"/>
<path d="M86.5401 46.67L75.3001 39.71L61.5301 63.85H61.5401C60.7801 65.08 60.5601 66.48 60.8001 67.8L63.5701 93.64L70.3601 93.55L71.8401 68.65L86.5401 46.67Z" fill="url(#paint1_linear_1015_241)" style=""/>
<path d="M62.5898 85.99L63.5698 93.63L70.3598 93.54L70.9498 85.9L62.5898 85.99Z" fill="#E0E0E0" style="fill:#E0E0E0;fill:color(display-p3 0.8784 0.8784 0.8784);fill-opacity:1;"/>
<path d="M85.1299 36.38C83.8399 35.59 82.4099 35.21 80.9999 35.21C78.3699 35.21 75.7899 36.53 74.2999 38.94L64.1699 56.35L76.9199 64.24C76.9199 64.24 86.4799 49.44 87.6799 47.21C89.6099 43.61 88.8299 38.67 85.1299 36.38Z" fill="#7C7C7C" style="fill:#7C7C7C;fill:color(display-p3 0.4863 0.4863 0.4863);fill-opacity:1;"/>
<path d="M74.1099 97.52L73.3399 94.77C72.8299 92.89 70.3399 91.28 70.3399 91.28L63.4799 93.18L57.8699 96.93C56.5399 97.93 55.9499 99.64 56.3799 101.26L56.7199 102.51C56.8399 102.96 57.2599 103.26 57.6999 103.26C57.7899 103.26 57.8799 103.25 57.9699 103.22L73.2999 98.96C73.9199 98.79 74.2899 98.14 74.1099 97.52Z" fill="#4568AD" style="fill:#4568AD;fill:color(display-p3 0.2706 0.4078 0.6784);fill-opacity:1;"/>
<path d="M61.0998 23.54C59.9198 23.29 58.7398 23.14 57.6298 23.14C55.1098 23.14 52.9998 23.92 52.0998 25.96C51.3698 27.58 50.6098 29.23 49.8198 30.88C48.4098 33.87 49.5598 38.46 53.0598 39.56C62.1498 42.45 61.8998 45.15 67.1798 47.6C68.7098 48.31 70.1598 48.62 71.5198 48.62C78.1798 48.62 82.8898 41.22 85.6698 36.5C79.5598 30.27 71.4198 25.81 61.0998 23.54Z" fill="url(#paint2_radial_1015_241)" style=""/>
<path d="M57.4602 31.31L49.6802 29.01L45.0502 46.23L36.7302 53.24C35.2902 52.75 33.3902 52.49 32.0402 52.49C32.0402 52.49 32.0402 52.49 32.0302 52.49C32.0202 52.49 32.0202 52.49 32.0102 52.49C31.8702 52.49 31.7402 52.49 31.6202 52.5C31.5602 52.5 31.5102 52.51 31.4602 52.51C31.3902 52.52 31.3202 52.52 31.2602 52.53C31.1902 52.54 31.1102 52.55 31.0502 52.56C31.0302 52.56 31.0102 52.57 30.9802 52.57C30.8002 52.6 30.6402 52.65 30.5402 52.71C30.1702 52.93 29.6002 53.43 29.0602 53.92C28.2302 54.69 27.8002 55.8 27.8902 56.93L27.9502 57.75C27.8802 58 28.2602 58.58 28.8302 58.92C28.8602 58.94 28.9002 58.96 28.9302 58.98C28.9602 59 29.0002 59.01 29.0402 59.03C29.4802 59.24 30.0102 59.29 30.5302 58.93C31.2102 58.48 30.4802 57.23 30.8002 56.7C31.1702 56.07 31.8102 55.43 31.8102 55.43C31.8102 55.43 33.7902 55.28 34.2202 55.59C34.9802 56.22 35.2002 56.78 34.7702 57.98C34.4602 58.84 33.7502 59.73 34.1102 60.02C34.2402 60.13 34.3702 60.22 34.4902 60.3C34.5002 60.31 34.5102 60.31 34.5202 60.32C34.6102 60.38 34.7002 60.44 34.7902 60.48C34.8402 60.51 34.9002 60.52 34.9502 60.55C34.9902 60.57 35.0302 60.58 35.0802 60.59C35.1602 60.61 35.2402 60.62 35.3202 60.62C35.3302 60.62 35.3402 60.62 35.3502 60.62H35.3602C35.8202 60.63 36.3202 60.34 37.0502 59.61C38.0802 58.57 39.0602 58.92 39.8502 58.13L49.7502 51.48L49.8702 51.4C50.0602 51.3 50.2502 51.18 50.4202 51.05L50.4602 51.03C51.0302 50.58 51.4502 49.96 51.6602 49.25H51.6702L57.4902 31.3L57.4602 31.31Z" fill="url(#paint3_linear_1015_241)" style=""/>
<path d="M32.9401 53.71C31.3701 53.71 30.1001 54.98 30.1001 56.55C30.1001 58.12 31.3701 59.39 32.9401 59.39C34.5101 59.39 35.7801 58.12 35.7801 56.55C35.7801 54.98 34.5001 53.71 32.9401 53.71Z" fill="url(#paint4_radial_1015_241)" style=""/>
<path d="M55.1099 26.23C54.5999 26.08 54.0899 26.01 53.5899 26.01C51.2899 26.01 49.1699 27.51 48.4899 29.82L45.9399 39.31L55.6699 42.19L58.6999 32.84C59.5299 30.02 57.9299 27.06 55.1099 26.23Z" fill="#ED6D23" style="fill:#ED6D23;fill:color(display-p3 0.9294 0.4275 0.1373);fill-opacity:1;"/>
<path d="M62.89 18.14C62.86 18 62.77 17.89 62.64 17.84C62.58 17.82 62.53 17.8 62.46 17.8C62.39 17.8 62.31 17.82 62.24 17.86C61.78 18.12 61.4 18.2 61.12 18.2C61 18.2 60.89 18.18 60.8 18.16C61.48 17.23 61.47 15.66 60.7 14.46C60.66 14.34 60.53 14.27 60.38 14.27C60.35 14.27 60.33 14.27 60.3 14.28C60.13 14.31 59.99 14.45 59.95 14.62C59.95 14.62 59.18 15.36 58.22 15.36C57.96 15.36 57.68 15.3 57.39 15.16C55.88 13.71 52.05 8.67003 50.57 8.62003C49.91 8.60003 51.03 18.18 51.12 18.99C51.31 20.79 51.22 22.94 51.33 24.82C51.22 24.79 51.13 24.77 51.09 24.76L50.67 25.78C50.82 25.83 51.61 26.18 52.74 26.18C53.42 26.18 54.22 26.05 55.08 25.66C55.93 25.28 56.31 24.58 56.5 24.12C56.85 24.24 57.35 24.36 57.88 24.36C58.26 24.36 58.65 24.3 59.01 24.12C60.03 23.62 60.35 22.76 60.44 22.29C61.66 21.89 63.43 20.63 62.89 18.14Z" fill="#312D2D" style="fill:#312D2D;fill:color(display-p3 0.1922 0.1765 0.1765);fill-opacity:1;"/>
<path d="M62.89 18.14C62.86 18 62.77 17.89 62.64 17.84C62.58 17.82 62.53 17.8 62.46 17.8C62.39 17.8 62.31 17.82 62.24 17.86C61.78 18.12 61.4 18.2 61.12 18.2C61 18.2 60.89 18.18 60.8 18.16C61.48 17.23 61.47 15.66 60.7 14.46C60.66 14.34 60.53 14.27 60.38 14.27C60.35 14.27 60.33 14.27 60.3 14.28C60.13 14.31 59.99 14.45 59.95 14.62C59.95 14.62 59.18 15.36 58.22 15.36C57.96 15.36 57.68 15.3 57.39 15.16C55.88 13.71 52.05 8.67003 50.57 8.62003C49.91 8.60003 51.03 18.18 51.12 18.99C51.31 20.79 51.22 22.94 51.33 24.82C51.22 24.79 51.13 24.77 51.09 24.76L50.67 25.78C50.82 25.83 51.61 26.18 52.74 26.18C53.42 26.18 54.22 26.05 55.08 25.66C55.93 25.28 56.31 24.58 56.5 24.12C56.85 24.24 57.35 24.36 57.88 24.36C58.26 24.36 58.65 24.3 59.01 24.12C60.03 23.62 60.35 22.76 60.44 22.29C61.66 21.89 63.43 20.63 62.89 18.14Z" fill="url(#paint5_radial_1015_241)" style=""/>
<path d="M45.9302 27.8C46.0402 29.46 43.1302 33.22 43.0502 33.45C42.8902 33.83 44.4802 33.89 44.8302 33.53C45.1802 33.17 48.4002 30 50.4702 26.04C51.4002 24.26 53.5002 19.53 53.5002 19.53L50.5702 18.1C50.5702 18.1 49.7102 26.32 47.6402 26.29C45.5602 26.26 45.6002 18.3 45.6002 18.3L40.9302 20.24C40.9302 20.24 45.8702 26.77 45.9302 27.8Z" fill="url(#paint6_linear_1015_241)" style=""/>
<path d="M53.6402 7.62999C51.0402 5.18999 47.5602 3.98999 44.0602 3.98999C42.4202 3.98999 40.7602 4.24999 39.1902 4.77999C37.7502 5.25999 33.2202 7.48999 31.2802 11.35C30.4702 12.97 29.8302 14.74 29.6702 16.54C29.5802 17.52 29.5702 19.27 30.3602 20.13C30.7102 20.51 31.1302 20.63 31.5302 20.63C31.7402 20.63 31.9502 20.6 32.1502 20.56C33.2002 20.33 35.8502 19.21 36.6402 19.13C36.7502 19.12 36.8502 19.12 36.9602 19.12C38.6202 19.12 39.8502 20.31 40.1802 20.55C40.8502 21.03 41.5202 21.41 42.3002 21.41C42.9702 21.41 43.7302 21.14 44.6602 20.42C45.8702 19.49 46.1402 18.77 47.2202 18.58C47.3402 18.56 47.4802 18.54 47.6202 18.54C48.3502 18.54 49.3502 18.92 50.5202 20.74C51.5102 22.28 52.6602 22.93 53.6402 22.93C54.2102 22.93 54.7202 22.72 55.1102 22.34C56.6002 20.92 59.5002 13.07 53.6402 7.62999Z" fill="url(#paint7_radial_1015_241)" style=""/>
<defs>
<linearGradient id="paint0_linear_1015_241" x1="34.6815" y1="79.7685" x2="99.0917" y2="79.7685" gradientUnits="userSpaceOnUse">
<stop stop-color="#D8EB21" style="stop-color:#D8EB21;stop-color:color(display-p3 0.8471 0.9216 0.1294);stop-opacity:1;"/>
<stop offset="0.4414" stop-color="#D6E921" style="stop-color:#D6E921;stop-color:color(display-p3 0.8392 0.9137 0.1294);stop-opacity:1;"/>
<stop offset="0.6058" stop-color="#B8C721" style="stop-color:#B8C721;stop-color:color(display-p3 0.7216 0.7804 0.1294);stop-opacity:1;"/>
<stop offset="0.8038" stop-color="#ADBA21" style="stop-color:#ADBA21;stop-color:color(display-p3 0.6784 0.7294 0.1294);stop-opacity:1;"/>
</linearGradient>
<linearGradient id="paint1_linear_1015_241" x1="102.028" y1="3.22026" x2="36.1996" y2="140.874" gradientUnits="userSpaceOnUse">
<stop offset="0.1952" stop-color="#FFD29C" style="stop-color:#FFD29C;stop-color:color(display-p3 1.0000 0.8235 0.6118);stop-opacity:1;"/>
<stop offset="0.6908" stop-color="#F9DDBD" style="stop-color:#F9DDBD;stop-color:color(display-p3 0.9765 0.8667 0.7412);stop-opacity:1;"/>
</linearGradient>
<radialGradient id="paint2_radial_1015_241" cx="0" cy="0" r="1" gradientUnits="userSpaceOnUse" gradientTransform="translate(67.4513 35.88) scale(15.7197)">
<stop offset="0.3666" stop-color="#F78C1F" style="stop-color:#F78C1F;stop-color:color(display-p3 0.9686 0.5490 0.1216);stop-opacity:1;"/>
<stop offset="0.6798" stop-color="#F37F21" style="stop-color:#F37F21;stop-color:color(display-p3 0.9529 0.4980 0.1294);stop-opacity:1;"/>
<stop offset="1" stop-color="#ED6D23" style="stop-color:#ED6D23;stop-color:color(display-p3 0.9294 0.4275 0.1373);stop-opacity:1;"/>
</radialGradient>
<linearGradient id="paint3_linear_1015_241" x1="27.891" y1="44.8245" x2="57.4832" y2="44.8245" gradientUnits="userSpaceOnUse">
<stop offset="0.5" stop-color="#F9DDBD" style="stop-color:#F9DDBD;stop-color:color(display-p3 0.9765 0.8667 0.7412);stop-opacity:1;"/>
<stop offset="1" stop-color="#FFD29C" style="stop-color:#FFD29C;stop-color:color(display-p3 1.0000 0.8235 0.6118);stop-opacity:1;"/>
</linearGradient>
<radialGradient id="paint4_radial_1015_241" cx="0" cy="0" r="1" gradientUnits="userSpaceOnUse" gradientTransform="translate(32.9401 56.55) scale(2.84)">
<stop stop-color="#78909C" style="stop-color:#78909C;stop-color:color(display-p3 0.4706 0.5647 0.6118);stop-opacity:1;"/>
<stop offset="0.5619" stop-color="#617A86" style="stop-color:#617A86;stop-color:color(display-p3 0.3804 0.4784 0.5255);stop-opacity:1;"/>
<stop offset="1" stop-color="#546E7A" style="stop-color:#546E7A;stop-color:color(display-p3 0.3294 0.4314 0.4784);stop-opacity:1;"/>
</radialGradient>
<radialGradient id="paint5_radial_1015_241" cx="0" cy="0" r="1" gradientUnits="userSpaceOnUse" gradientTransform="translate(43.5867 20.1315) scale(17.1874 17.1874)">
<stop offset="0.7836" stop-color="#454140" stop-opacity="0" style="stop-color:none;stop-opacity:0;"/>
<stop offset="1" stop-color="#454140" style="stop-color:#454140;stop-color:color(display-p3 0.2706 0.2549 0.2510);stop-opacity:1;"/>
</radialGradient>
<linearGradient id="paint6_linear_1015_241" x1="46.969" y1="22.7099" x2="46.2878" y2="30.5281" gradientUnits="userSpaceOnUse">
<stop stop-color="#646464" style="stop-color:#646464;stop-color:color(display-p3 0.3922 0.3922 0.3922);stop-opacity:1;"/>
<stop offset="0.9947" stop-color="#262626" style="stop-color:#262626;stop-color:color(display-p3 0.1490 0.1490 0.1490);stop-opacity:1;"/>
</linearGradient>
<radialGradient id="paint7_radial_1015_241" cx="0" cy="0" r="1" gradientUnits="userSpaceOnUse" gradientTransform="translate(38.9443 12.0868) scale(11.8136)">
<stop stop-color="#81D4FA" style="stop-color:#81D4FA;stop-color:color(display-p3 0.5059 0.8314 0.9804);stop-opacity:1;"/>
<stop offset="0.3601" stop-color="#5EB3E7" style="stop-color:#5EB3E7;stop-color:color(display-p3 0.3686 0.7020 0.9059);stop-opacity:1;"/>
<stop offset="0.7751" stop-color="#3C92D3" style="stop-color:#3C92D3;stop-color:color(display-p3 0.2353 0.5725 0.8275);stop-opacity:1;"/>
<stop offset="1" stop-color="#2F85CC" style="stop-color:#2F85CC;stop-color:color(display-p3 0.1843 0.5216 0.8000);stop-opacity:1;"/>
</radialGradient>
</defs>
</svg>
