<svg width="128" height="128" viewBox="0 0 128 128" fill="none" xmlns="http://www.w3.org/2000/svg">
<path d="M63.6001 118.8C35.7001 118.8 5.6001 101.3 5.6001 62.9C5.6001 24.5 35.7001 7 63.6001 7C79.1001 7 93.4001 12.1 104 21.4C115.5 31.6 121.6 46 121.6 62.9C121.6 79.8 115.5 94.1 104 104.3C93.4001 113.6 79.0001 118.8 63.6001 118.8Z" fill="url(#paint0_radial_169_9539)" style=""/>
<path d="M63.6001 118.8C35.7001 118.8 5.6001 101.3 5.6001 62.9C5.6001 24.5 35.7001 7 63.6001 7C79.1001 7 93.4001 12.1 104 21.4C115.5 31.6 121.6 46 121.6 62.9C121.6 79.8 115.5 94.1 104 104.3C93.4001 113.6 79.0001 118.8 63.6001 118.8Z" fill="url(#paint1_radial_169_9539)" style=""/>
<path d="M63.6001 118.8C35.7001 118.8 5.6001 101.3 5.6001 62.9C5.6001 24.5 35.7001 7 63.6001 7C79.1001 7 93.4001 12.1 104 21.4C115.5 31.6 121.6 46 121.6 62.9C121.6 79.8 115.5 94.1 104 104.3C93.4001 113.6 79.0001 118.8 63.6001 118.8Z" fill="url(#paint2_radial_169_9539)" style=""/>
<path d="M111.49 29.67C116.82 38.27 119.6 48.51 119.6 59.9C119.6 76.8 113.5 91.1 102 101.3C91.4002 110.6 77.0002 115.8 61.6002 115.8C43.5402 115.8 24.6002 108.45 13.4202 92.86C24.1802 110.52 44.4202 118.8 63.6002 118.8C79.0002 118.8 93.4002 113.6 104 104.3C115.5 94.1 121.6 79.8 121.6 62.9C121.6 50.16 118.13 38.84 111.49 29.67Z" fill="#EB8F00" style="fill:#EB8F00;fill:color(display-p3 0.9216 0.5608 0.0000);fill-opacity:1;"/>
<path d="M111.49 29.67C116.82 38.27 119.6 48.51 119.6 59.9C119.6 76.8 113.5 91.1 102 101.3C91.4002 110.6 77.0002 115.8 61.6002 115.8C43.5402 115.8 24.6002 108.45 13.4202 92.86C24.1802 110.52 44.4202 118.8 63.6002 118.8C79.0002 118.8 93.4002 113.6 104 104.3C115.5 94.1 121.6 79.8 121.6 62.9C121.6 50.16 118.13 38.84 111.49 29.67Z" fill="#4A2F27" style="fill:#4A2F27;fill:color(display-p3 0.2902 0.1843 0.1529);fill-opacity:1;"/>
<path d="M57.3801 66.41L57.1801 66.27L57.0801 66.19C53.4701 63.6 44.5801 56.44 40.8801 53.91C39.3001 52.75 37.1201 52.87 35.6801 54.21C34.1401 55.8 34.1901 58.33 35.7701 59.87C35.9001 59.99 36.0301 60.11 36.1801 60.21C36.2801 60.31 36.3801 60.31 36.4801 60.41L47.3701 65.22C46.5501 65.22 45.7401 65.22 44.9801 65.31L41.4801 65.61C40.2801 65.81 38.9801 66.01 37.6801 66.21C36.3801 66.41 34.8801 66.81 33.3801 67.21C32.1401 67.56 31.0001 68.21 30.0801 69.11C29.2101 69.89 28.6501 70.95 28.4801 72.11C28.3601 73.22 28.6101 74.35 29.1801 75.31C29.6601 76.17 30.4501 76.81 31.3801 77.11C32.3101 77.41 33.3001 77.51 34.2801 77.41C35.3501 77.27 36.3701 76.89 37.2801 76.31C38.5801 75.61 39.8801 74.91 41.0801 74.41C42.2201 73.87 43.4001 73.4 44.6001 73C45.7201 72.61 46.8501 72.27 48.0001 72C49.2201 71.7 50.4501 71.47 51.7001 71.3C53.0001 71.1 54.5001 71 56.1001 70.9C57.2501 70.67 58.0801 69.67 58.1001 68.5C58.1901 67.73 57.9301 66.96 57.3801 66.41Z" fill="#422B0D" style="fill:#422B0D;fill:color(display-p3 0.2588 0.1686 0.0510);fill-opacity:1;"/>
<path d="M57.3801 66.41L57.1801 66.27L57.0801 66.19C53.4701 63.6 44.5801 56.44 40.8801 53.91C39.3001 52.75 37.1201 52.87 35.6801 54.21C34.1401 55.8 34.1901 58.33 35.7701 59.87C35.9001 59.99 36.0301 60.11 36.1801 60.21C36.2801 60.31 36.3801 60.31 36.4801 60.41L47.3701 65.22C46.5501 65.22 45.7401 65.22 44.9801 65.31L41.4801 65.61C40.2801 65.81 38.9801 66.01 37.6801 66.21C36.3801 66.41 34.8801 66.81 33.3801 67.21C32.1401 67.56 31.0001 68.21 30.0801 69.11C29.2101 69.89 28.6501 70.95 28.4801 72.11C28.3601 73.22 28.6101 74.35 29.1801 75.31C29.6601 76.17 30.4501 76.81 31.3801 77.11C32.3101 77.41 33.3001 77.51 34.2801 77.41C35.3501 77.27 36.3701 76.89 37.2801 76.31C38.5801 75.61 39.8801 74.91 41.0801 74.41C42.2201 73.87 43.4001 73.4 44.6001 73C45.7201 72.61 46.8501 72.27 48.0001 72C49.2201 71.7 50.4501 71.47 51.7001 71.3C53.0001 71.1 54.5001 71 56.1001 70.9C57.2501 70.67 58.0801 69.67 58.1001 68.5C58.1901 67.73 57.9301 66.96 57.3801 66.41Z" fill="#1A1717" style="fill:#1A1717;fill:color(display-p3 0.1020 0.0902 0.0902);fill-opacity:1;"/>
<path d="M99.5 72.1C99.33 70.94 98.77 69.88 97.9 69.1C96.98 68.2 95.84 67.55 94.6 67.2C93.1 66.8 91.7 66.5 90.3 66.2C88.9 65.9 87.7 65.8 86.5 65.6L83 65.3C82.21 65.23 81.37 65.21 80.52 65.21L91.4 60.4C91.5 60.3 91.6 60.3 91.7 60.2C93.48 58.89 93.86 56.38 92.54 54.61C92.43 54.47 92.32 54.33 92.2 54.2C90.76 52.86 88.58 52.74 87 53.9C83.4 56.43 74.51 63.59 70.9 66.18L70.8 66.26L70.6 66.4C70.05 66.95 69.79 67.72 69.88 68.49C69.9 69.66 70.73 70.66 71.88 70.89C73.48 70.99 74.98 71.09 76.28 71.29C77.53 71.46 78.77 71.7 80 72C81.15 72.27 82.28 72.61 83.4 73C84.59 73.4 85.76 73.86 86.9 74.4C88.1 74.9 89.4 75.6 90.7 76.3C91.6 76.9 92.63 77.27 93.7 77.4C94.68 77.5 95.67 77.4 96.6 77.1C97.53 76.8 98.32 76.16 98.8 75.3C99.37 74.34 99.62 73.21 99.5 72.1Z" fill="#422B0D" style="fill:#422B0D;fill:color(display-p3 0.2588 0.1686 0.0510);fill-opacity:1;"/>
<path d="M99.5 72.1C99.33 70.94 98.77 69.88 97.9 69.1C96.98 68.2 95.84 67.55 94.6 67.2C93.1 66.8 91.7 66.5 90.3 66.2C88.9 65.9 87.7 65.8 86.5 65.6L83 65.3C82.21 65.23 81.37 65.21 80.52 65.21L91.4 60.4C91.5 60.3 91.6 60.3 91.7 60.2C93.48 58.89 93.86 56.38 92.54 54.61C92.43 54.47 92.32 54.33 92.2 54.2C90.76 52.86 88.58 52.74 87 53.9C83.4 56.43 74.51 63.59 70.9 66.18L70.8 66.26L70.6 66.4C70.05 66.95 69.79 67.72 69.88 68.49C69.9 69.66 70.73 70.66 71.88 70.89C73.48 70.99 74.98 71.09 76.28 71.29C77.53 71.46 78.77 71.7 80 72C81.15 72.27 82.28 72.61 83.4 73C84.59 73.4 85.76 73.86 86.9 74.4C88.1 74.9 89.4 75.6 90.7 76.3C91.6 76.9 92.63 77.27 93.7 77.4C94.68 77.5 95.67 77.4 96.6 77.1C97.53 76.8 98.32 76.16 98.8 75.3C99.37 74.34 99.62 73.21 99.5 72.1Z" fill="#1A1717" style="fill:#1A1717;fill:color(display-p3 0.1020 0.0902 0.0902);fill-opacity:1;"/>
<path d="M64.0002 83.2C74.8002 83.2 81.8002 91.1 83.7002 94.8C84.4002 96.2 84.4002 97.4 83.8002 97.9C83.1602 98.3 82.3402 98.3 81.7002 97.9C81.3802 97.77 81.0802 97.6 80.8002 97.4C75.9002 93.88 70.0302 91.96 64.0002 91.9C57.9902 91.98 52.1302 93.86 47.2002 97.3C46.9202 97.5 46.6202 97.67 46.3002 97.8C45.6602 98.2 44.8402 98.2 44.2002 97.8C43.6002 97.2 43.6002 96.1 44.3002 94.7C46.2002 91.1 53.2002 83.2 64.0002 83.2Z" fill="#422B0D" style="fill:#422B0D;fill:color(display-p3 0.2588 0.1686 0.0510);fill-opacity:1;"/>
<path d="M64.0002 83.2C74.8002 83.2 81.8002 91.1 83.7002 94.8C84.4002 96.2 84.4002 97.4 83.8002 97.9C83.1602 98.3 82.3402 98.3 81.7002 97.9C81.3802 97.77 81.0802 97.6 80.8002 97.4C75.9002 93.88 70.0302 91.96 64.0002 91.9C57.9902 91.98 52.1302 93.86 47.2002 97.3C46.9202 97.5 46.6202 97.67 46.3002 97.8C45.6602 98.2 44.8402 98.2 44.2002 97.8C43.6002 97.2 43.6002 96.1 44.3002 94.7C46.2002 91.1 53.2002 83.2 64.0002 83.2Z" fill="#1A1717" style="fill:#1A1717;fill:color(display-p3 0.1020 0.0902 0.0902);fill-opacity:1;"/>
<path d="M27.4001 42.8C25.2001 43.2 25.1001 46.4 27.5001 46.5C32.8001 46.57 37.9201 44.6 41.8001 41C43.2801 39.72 44.5301 38.2 45.5001 36.5C46.0801 35.67 45.8801 34.53 45.0501 33.95C44.2201 33.37 43.0801 33.57 42.5001 34.4L42.4001 34.5C38.4801 38.88 33.1901 41.81 27.4001 42.8Z" fill="#422B0D" style="fill:#422B0D;fill:color(display-p3 0.2588 0.1686 0.0510);fill-opacity:1;"/>
<path d="M27.4001 42.8C25.2001 43.2 25.1001 46.4 27.5001 46.5C32.8001 46.57 37.9201 44.6 41.8001 41C43.2801 39.72 44.5301 38.2 45.5001 36.5C46.0801 35.67 45.8801 34.53 45.0501 33.95C44.2201 33.37 43.0801 33.57 42.5001 34.4L42.4001 34.5C38.4801 38.88 33.1901 41.81 27.4001 42.8Z" fill="#1A1717" style="fill:#1A1717;fill:color(display-p3 0.1020 0.0902 0.0902);fill-opacity:1;"/>
<path d="M84.5001 34.4C83.9201 33.57 82.7801 33.37 81.9501 33.95C81.1201 34.53 80.9201 35.67 81.5001 36.5C82.4701 38.2 83.7201 39.72 85.2001 41C89.1001 44.57 94.2101 46.54 99.5001 46.5C102 46.4 101.8 43.2 99.6001 42.8C93.7401 41.84 88.4101 38.87 84.5001 34.4Z" fill="#422B0D" style="fill:#422B0D;fill:color(display-p3 0.2588 0.1686 0.0510);fill-opacity:1;"/>
<path d="M84.5001 34.4C83.9201 33.57 82.7801 33.37 81.9501 33.95C81.1201 34.53 80.9201 35.67 81.5001 36.5C82.4701 38.2 83.7201 39.72 85.2001 41C89.1001 44.57 94.2101 46.54 99.5001 46.5C102 46.4 101.8 43.2 99.6001 42.8C93.7401 41.84 88.4101 38.87 84.5001 34.4Z" fill="#1A1717" style="fill:#1A1717;fill:color(display-p3 0.1020 0.0902 0.0902);fill-opacity:1;"/>
<defs>
<radialGradient id="paint0_radial_169_9539" cx="0" cy="0" r="1" gradientUnits="userSpaceOnUse" gradientTransform="translate(63.6001 62.9) scale(56.9597 56.9597)">
<stop offset="0.5" stop-color="#FDE030" style="stop-color:#FDE030;stop-color:color(display-p3 0.9922 0.8784 0.1882);stop-opacity:1;"/>
<stop offset="0.92" stop-color="#F7C02B" style="stop-color:#F7C02B;stop-color:color(display-p3 0.9686 0.7529 0.1686);stop-opacity:1;"/>
<stop offset="1" stop-color="#F4A223" style="stop-color:#F4A223;stop-color:color(display-p3 0.9569 0.6353 0.1373);stop-opacity:1;"/>
</radialGradient>
<radialGradient id="paint1_radial_169_9539" cx="0" cy="0" r="1" gradientUnits="userSpaceOnUse" gradientTransform="translate(38.5991 34.5377) rotate(-43.2082) scale(102.024 101.825)">
<stop offset="0.3533" stop-color="#F9DDBD" style="stop-color:#F9DDBD;stop-color:color(display-p3 0.9765 0.8667 0.7412);stop-opacity:1;"/>
<stop offset="0.8723" stop-color="#FFD29C" style="stop-color:#FFD29C;stop-color:color(display-p3 1.0000 0.8235 0.6118);stop-opacity:1;"/>
</radialGradient>
<radialGradient id="paint2_radial_169_9539" cx="0" cy="0" r="1" gradientUnits="userSpaceOnUse" gradientTransform="translate(38.5991 34.5377) rotate(-43.2082) scale(102.024 101.825)">
<stop offset="0.3533" stop-color="#70534A" style="stop-color:#70534A;stop-color:color(display-p3 0.4392 0.3255 0.2902);stop-opacity:1;"/>
<stop offset="0.8723" stop-color="#5C4037" style="stop-color:#5C4037;stop-color:color(display-p3 0.3608 0.2510 0.2157);stop-opacity:1;"/>
</radialGradient>
</defs>
</svg>
