<svg width="128" height="128" viewBox="0 0 128 128" fill="none" xmlns="http://www.w3.org/2000/svg">
<path d="M53.1341 91.6677L34.2881 117.432L38.4233 120.875C38.4233 120.875 45.6555 122.311 52.5358 116.722C59.4249 111.133 61.5541 105.465 62.2316 103.941C62.909 102.417 65.9621 96.959 69.8861 94.7952C75.7986 91.5363 81.6759 92.2371 83.6291 91.8079C85.5823 91.3874 89.1544 90.196 91.706 86.2188C94.2575 82.2416 93.6944 78.2819 97.7768 75.2333C101.859 72.1847 106.294 73.052 111.388 69.9158C116.491 66.7795 120.767 59.8851 121.84 57.625C123.389 54.3661 124.541 51.2737 124.489 49.1187C124.445 47.5068 123.644 46.3767 121.884 45.4393C120.45 44.6772 119.614 44.353 119.614 44.353L53.1341 91.6677Z" fill="#FC873D" style="fill:#FC873D;fill:color(display-p3 0.9882 0.5294 0.2392);fill-opacity:1;"/>
<path d="M58.413 77.2747L46.676 86.0789C46.676 86.0789 31.8948 105.308 31.6837 105.886C31.4813 106.456 30.8918 107.042 29.5017 107.778C28.2435 108.444 26.0264 109.381 26.0264 109.381C26.0264 109.381 30.8566 114.357 32.2996 115.706C33.7425 117.064 36.47 119.228 36.47 119.228C36.47 119.228 43.0951 119.263 49.1308 114.27C55.1664 109.276 57.6387 102.837 59.1609 99.2808C60.6918 95.7241 63.6656 90.9847 67.4137 89.294C71.153 87.6032 79.9953 88.0237 85.8638 83.6172C91.7323 79.2108 90.2013 73.3764 95.0492 69.9861C99.8971 66.5959 103.689 67.6121 107.895 64.8613C112.32 61.9616 115.338 57.4763 117.089 54.2701C119.007 50.7659 120.811 44.8789 120.811 44.8789C120.811 44.8789 117.239 42.8027 112.989 41.112C109.716 39.8067 105.678 38.4839 105.678 38.4839C105.678 38.4839 99.1316 47.7173 97.3456 49.5745C95.5595 51.4317 83.9105 54.9096 83.9105 54.9096L72.4375 70.9235L58.413 77.2747Z" fill="#D9411C" style="fill:#D9411C;fill:color(display-p3 0.8510 0.2549 0.1098);fill-opacity:1;"/>
<path d="M26.0613 103.976L20.5359 102.776C20.5359 102.776 17.8348 99.7889 17.3509 98.8866C16.867 97.993 17.2278 96.9155 18.6091 96.7929C19.9904 96.6702 24.196 96.6702 26.8443 96.3724C29.4838 96.0745 34.4109 95.0583 37.4815 91.2914C40.5433 87.5244 41.9247 82.0054 42.7077 78.6677C43.8163 73.9634 46.667 71.3177 50.8726 70.3015C55.0782 69.2853 62.6447 69.4868 65.4074 67.3318C68.1701 65.1767 69.0323 58.0896 69.9825 55.1549C71.2407 51.2653 73.889 49.1102 76.7132 48.935C80.171 48.716 84.2182 50.5645 84.2182 50.5645L79.3615 56.2937L73.5986 71.5455C73.5986 71.5455 52.553 78.0895 52.2715 78.0895C51.9899 78.0895 44.3794 90.1613 43.9131 90.9059C43.4468 91.6505 36.7688 101.007 35.1763 101.287C33.5663 101.576 26.0613 103.976 26.0613 103.976Z" fill="#B42F17" style="fill:#B42F17;fill:color(display-p3 0.7059 0.1843 0.0902);fill-opacity:1;"/>
<path d="M98.1111 36.9331C95.9907 36.9244 95.41 39.6226 95.1637 41.1206C94.9261 42.6186 94.803 45.0715 93.4832 47.3404C92.1635 49.6094 90.2366 50.573 90.2366 50.573C90.2366 50.573 77.9894 48.9523 74.6636 55.7241C71.1003 62.9864 72.9919 67.2002 68.7247 70.5554C61.7653 76.0218 55.6856 71.1511 49.2628 76.8979C44.3886 81.2518 42.6553 94.9004 34.6664 99.3332C26.6775 103.766 20.3691 102.574 20.3691 102.574L23.4925 106.517C23.4925 106.517 27.0471 105.684 29.3434 105.36C30.3904 105.211 30.9447 105.334 31.1911 105.404C31.7454 105.579 31.6134 106.07 31.6134 106.07C31.6134 106.07 35.5726 104.721 39.5319 101.19C43.4999 97.6599 47.5824 89.7668 48.3654 88.0323C49.1485 86.2977 50.8289 83.363 51.7264 84.204C52.6238 85.045 49.6148 96.1794 44.6349 103.17C40.4293 109.066 35.9422 110.783 33.2147 111.878C30.5752 112.938 29.537 113.052 29.537 113.052C29.537 113.052 30.6368 114.173 31.5342 115.04C32.1853 115.671 33.4083 116.749 33.4083 116.749C33.4083 116.749 39.3383 115.671 46.6673 108.61C53.9963 101.55 56.7766 88.4528 61.7916 81.9964C66.1292 76.4073 71.9625 76.0306 74.8484 74.7779C77.7342 73.5251 79.8282 71.4665 80.9104 67.5155C81.9926 63.5646 82.7756 56.8629 88.6001 55.3124C94.4246 53.7618 101.094 55.6715 103.619 50.17C106.144 44.6685 106.17 38.6852 106.17 38.6852C106.17 38.6852 101.067 36.9419 98.1111 36.9331Z" fill="#FEB896" style="fill:#FEB896;fill:color(display-p3 0.9961 0.7216 0.5882);fill-opacity:1;"/>
<path d="M84.9131 58.7904C85.9777 58.3523 89.1715 60.2533 89.6378 61.9353C90.0953 63.6261 90.0953 64.581 90.9663 65.492C91.8374 66.4031 93.9929 67.0601 94.0369 68.0501C94.0985 69.259 90.368 72.3864 86.0657 70.9673C81.7545 69.5568 82.124 66.5783 82.08 66.0264C82.036 65.4745 83.5845 59.3423 84.9131 58.7904Z" fill="#FC6B4A" style="fill:#FC6B4A;fill:color(display-p3 0.9882 0.4196 0.2902);fill-opacity:1;"/>
<path d="M84.9131 58.7904C85.9777 58.3523 89.1715 60.2533 89.6378 61.9353C90.0953 63.6261 90.0953 64.581 90.9663 65.492C91.8374 66.4031 93.9929 67.0601 94.0369 68.0501C94.0985 69.259 90.368 72.3864 86.0657 70.9673C81.7545 69.5568 82.124 66.5783 82.08 66.0264C82.036 65.4745 83.5845 59.3423 84.9131 58.7904Z" fill="#FC6B4A" style="fill:#FC6B4A;fill:color(display-p3 0.9882 0.4196 0.2902);fill-opacity:1;"/>
<path d="M74.4167 54.0857C74.2935 53.5688 71.6276 52.5614 70.7918 54.6989C69.9295 56.9065 69.7712 58.4221 70.6862 59.4208C71.2317 60.0165 71.874 60.0515 72.2347 59.7449C72.5954 59.4383 72.4459 58.8163 73.4665 56.5036C73.88 55.5487 74.5487 54.6464 74.4167 54.0857Z" fill="#FC6B4A" style="fill:#FC6B4A;fill:color(display-p3 0.9882 0.4196 0.2902);fill-opacity:1;"/>
<path d="M72.6924 61.2076C72.6924 61.2076 73.0179 61.4705 74.0297 61.4967C75.4902 61.5405 76.1941 60.1827 77.3467 60.6382C78.5961 61.1288 78.8776 62.5217 79.036 63.424C79.2119 64.3877 79.7046 64.9308 80.3205 65.0534C80.8748 65.1586 81.5787 64.8257 81.5787 64.8257C81.5787 64.8257 82.001 63.0824 82.7665 61.0412C83.1712 59.9549 84.1566 58.4306 84.1566 58.4306C84.1566 58.4306 83.7255 57.5546 82.1682 57.2918C80.7956 57.064 80.0918 57.9488 78.6488 57.1691C77.4699 56.5296 77.857 55.7149 76.766 54.8214C75.9214 54.1205 75.6398 54.2169 75.6398 54.2169C75.6398 54.2169 74.804 55.128 73.9945 57.0903C73.2643 58.8949 72.6924 61.2076 72.6924 61.2076Z" fill="#FAFFFF" style="fill:#FAFFFF;fill:color(display-p3 0.9804 1.0000 1.0000);fill-opacity:1;"/>
<path d="M101.067 41.7689C99.8443 42.2069 98.375 45.2993 99.4572 47.2091C100.539 49.1188 104.085 49.1188 104.085 49.1188C104.085 49.1188 104.71 47.4543 105 46.333C105.29 45.2117 105.616 43.775 105.616 43.775C105.616 43.775 103.962 43.0041 103.372 42.5485C102.801 42.1018 102.237 41.3484 101.067 41.7689Z" fill="#FAFFFF" style="fill:#FAFFFF;fill:color(display-p3 0.9804 1.0000 1.0000);fill-opacity:1;"/>
<path d="M105.642 43.7837C105.642 43.7837 107.34 44.6072 110.604 44.3093C113.182 44.0728 114.484 44.064 115.197 44.9313C115.909 45.8073 115.839 47.2265 115.487 48.9698C115.03 51.265 113.886 51.8169 112.109 51.2475C110.305 50.6693 108.448 49.9948 107.648 49.767C106.152 49.3553 104.111 49.1275 104.111 49.1275C104.111 49.1275 104.692 47.4981 104.982 46.4556C105.272 45.4131 105.642 43.7837 105.642 43.7837Z" fill="#FC6B48" style="fill:#FC6B48;fill:color(display-p3 0.9882 0.4196 0.2824);fill-opacity:1;"/>
<path d="M47.4233 72.9386C46.5171 72.9999 44.3791 75.1725 44.6078 76.6004C44.7838 77.6954 46.0156 78.3875 46.3147 78.5101C47.089 78.8255 47.9424 77.1961 48.4263 76.7055C48.9102 76.2149 49.9924 75.5229 49.9308 74.9009C49.8428 74.0336 48.5583 72.8685 47.4233 72.9386Z" fill="#FA6C43" style="fill:#FA6C43;fill:color(display-p3 0.9804 0.4235 0.2627);fill-opacity:1;"/>
<path d="M47.1424 79.5872C46.8873 80.104 48.2598 81.3305 49.1397 81.786C50.0195 82.2416 51.6912 81.1115 53.1957 82.2328C54.7002 83.3541 54.1899 85.1938 54.7354 85.8508C55.2809 86.5166 56.2487 87.4978 57.4981 87.8657C58.3955 88.1285 58.6506 87.27 59.5305 85.5968C60.4191 83.9148 60.727 83.8272 60.6831 83.3278C60.6303 82.6796 58.7386 80.7085 57.1989 79.666C55.6592 78.6235 53.486 77.6336 52.8613 77.0029C52.2367 76.3809 51.7264 75.1457 51.2161 75.4348C50.8553 75.6362 49.8259 76.2407 48.9021 77.2219C48.1894 77.9753 47.4152 79.044 47.1424 79.5872Z" fill="#FEFEFF" style="fill:#FEFEFF;fill:color(display-p3 0.9961 0.9961 1.0000);fill-opacity:1;"/>
<path d="M60.8148 85.5183C59.8294 85.9038 58.6768 88.3742 58.6152 89.0312C58.5448 89.8459 60.3925 91.5717 61.4747 91.5717C62.5569 91.5717 64.0614 88.9962 63.815 88.1201C63.5599 87.2529 61.7034 85.1679 60.8148 85.5183Z" fill="#FA6C43" style="fill:#FA6C43;fill:color(display-p3 0.9804 0.4235 0.2627);fill-opacity:1;"/>
<path d="M34.9798 53.414L19.7393 74.2186L23.4319 77.234C23.4319 77.234 28.8807 78.405 34.4919 73.8469C40.1102 69.2888 41.8466 64.6664 42.3991 63.4233C42.9516 62.1801 45.4415 57.7292 48.6417 55.9645C53.4635 53.3068 58.2566 53.8784 59.8496 53.5283C61.4425 53.1854 64.3557 52.2137 66.4365 48.9702C68.5174 45.7266 68.0581 42.4974 71.3875 40.0111C74.7169 37.5249 78.3332 38.2322 82.4878 35.6745C86.6495 33.1168 90.1367 27.4941 91.0121 25.6509C92.2749 22.9932 93.2149 20.4712 93.1719 18.7137C93.136 17.3991 92.483 16.4775 91.048 15.7131C89.8784 15.0915 89.1967 14.8271 89.1967 14.8271L34.9798 53.414Z" fill="#FC873D" style="fill:#FC873D;fill:color(display-p3 0.9882 0.5294 0.2392);fill-opacity:1;"/>
<path d="M70.6016 12.581C70.8026 11.3594 71.2761 9.15889 73.0054 9.16603C75.4163 9.17318 79.5249 10.8742 79.5249 10.8742L79.525 10.8892C80.4913 11.2125 82.9758 12.0583 85.0745 12.8953C88.5402 14.2741 91.4533 15.9674 91.4533 15.9674C91.4533 15.9674 89.9824 20.7684 88.4182 23.6261C86.9903 26.241 84.5291 29.8989 80.9199 32.2637C79.3108 33.3162 77.776 33.6925 76.1916 34.0809C74.3988 34.5204 72.5427 34.9754 70.4439 36.4432C68.5475 37.7694 67.848 39.5541 67.1053 41.4491C66.2997 43.5047 65.4432 45.6899 62.9529 47.5598C59.8797 49.8674 55.8065 50.5518 52.4773 51.1112C50.6219 51.423 48.9975 51.6959 47.9062 52.1894C44.8495 53.5683 42.4242 57.4334 41.1757 60.334C41.1006 60.5095 41.0226 60.6936 40.9414 60.8855L40.9405 60.8876C39.6788 63.868 37.6192 68.733 32.9958 72.558C28.0735 76.6303 22.6705 76.6018 22.6705 76.6018C22.6705 76.6018 20.4461 74.8371 19.2693 73.7297C18.0926 72.6295 14.1533 68.5715 14.1533 68.5715L12.1513 65.9139L9.97767 63.1705C9.46664 62.6714 7.42274 60.6556 7.07796 60.0127C6.68332 59.284 6.97751 58.4053 8.10404 58.3052C8.53001 58.2674 9.2853 58.2439 10.1767 58.2161C11.6428 58.1705 13.4771 58.1134 14.8202 57.9623C16.9728 57.7194 20.991 56.8906 23.4952 53.8186C25.9922 50.7465 27.1187 46.2455 27.7573 43.5235C28.6614 39.687 30.9862 37.5294 34.416 36.7006C35.6328 36.4066 37.1945 36.2376 38.8038 36.0634C41.731 35.7466 44.8159 35.4127 46.2697 34.2787C47.9446 32.9722 48.763 29.4429 49.3911 26.7344L49.3911 26.7342C49.6079 25.7993 49.8021 24.9621 50.0009 24.348C51.027 21.1759 53.1868 19.4183 55.49 19.2754C57.5731 19.1435 59.9185 19.9316 61.002 20.3525C65.3238 21.5694 66.5834 20.2898 66.5834 20.2898C66.5834 20.2898 68.1549 19.504 69.2312 17.6536C70.1303 16.1077 70.3484 14.4572 70.5088 13.2435L70.5088 13.2432C70.5404 13.0042 70.5698 12.7821 70.6016 12.581Z" fill="url(#paint0_linear_905_626)" style=""/>
<path d="M75.9275 14.9206C76.1331 13.6447 76.995 10.7323 78.765 10.7398C81.426 11.3603 85.0614 13.1381 85.0614 13.1381C85.0614 13.1381 84.7702 12.999 85.0614 13.1537C88.6088 14.5937 88.6795 14.4919 88.6795 14.4919C88.6795 14.4919 88.3491 15.2947 86.748 18.2791C85.2864 21.0098 84.056 24.0585 80.3616 26.5281C78.7146 27.6272 75.985 29.8111 74.3632 30.2167C72.5282 30.6757 70.0919 29.9625 67.9436 31.4953C66.0025 32.8803 62.7941 35.6009 62.0339 37.5798C61.2092 39.7265 60.7358 40.8073 58.1867 42.7601C55.041 45.1699 53.4341 45.7239 50.0263 46.3081C48.1271 46.6337 45.7328 47.4781 44.6157 47.9934C41.4869 49.4334 39.7992 54.6042 38.5212 57.6333C38.4443 57.8166 38.3646 58.0089 38.2814 58.2093L38.2805 58.2115C36.989 61.324 33.2893 66.8942 27.7096 69.5809C21.2277 72.7021 19.1296 73.5981 19.1296 73.5981C19.1296 73.5981 18.497 72.9353 17.2925 71.7788C16.088 70.6298 16.098 70.617 16.098 70.617L13.5005 68C12.9774 67.4787 12.8531 67.1714 12.5001 66.5C12.0962 65.739 12.7198 65.6045 13.8729 65.5C14.3089 65.4605 15.082 65.4359 15.9945 65.407C17.4951 65.3593 19.3726 65.2996 20.7475 65.1419C22.9508 64.8882 26.9372 63.7082 29.5005 60.5C32.0564 57.2918 31.4186 50.0769 32.0723 47.2343C32.9977 43.2277 35.3774 40.9745 38.8881 40.109C40.1336 39.802 41.7321 39.6255 43.3794 39.4436C46.3757 39.1127 50.5119 40.1843 52 39C53.7144 37.6356 53.5735 32.5297 54.2164 29.7012L54.2165 29.701C54.4384 28.7246 54.6371 27.8503 54.8407 27.209C55.8909 23.8963 58.1017 22.0609 60.4593 21.9116C62.5915 21.7739 64.9923 22.5969 66.1013 23.0364C70.4441 23.7193 71.8145 22.971 71.8145 22.971C71.8145 22.971 73.4229 22.1503 74.5246 20.2179C75.445 18.6036 75.6682 16.8799 75.8324 15.6124C75.8648 15.3626 75.8948 15.1306 75.9275 14.9206Z" fill="#FEB896" style="fill:#FEB896;fill:color(display-p3 0.9961 0.7216 0.5882);fill-opacity:1;"/>
<path d="M32.273 46.2333C32.0784 46.6151 32.7233 48.5292 33.3946 48.8657C34.0658 49.2022 35.3411 48.3674 36.4889 49.1957C37.6367 50.024 37.2474 51.383 37.6636 51.8683C38.0798 52.3601 38.8181 53.0849 39.7713 53.3567C40.4559 53.5508 40.6506 52.9167 41.3218 51.6807C41.9998 50.4382 42.2347 50.3735 42.2011 50.0046C42.1609 49.5257 40.7177 48.0697 39.543 47.2996C38.3684 46.5296 36.7104 45.7983 36.2339 45.3324C35.7573 44.8729 34.8809 42.2485 34.4916 42.462C34.2164 42.6109 34.0994 43.0576 33.3946 43.7824C33.0286 44.3496 32.4811 45.8321 32.273 46.2333Z" fill="#FEFEFF" style="fill:#FEFEFF;fill:color(display-p3 0.9961 0.9961 1.0000);fill-opacity:1;"/>
<path d="M75.5278 16.8569C75.4334 17.2749 76.5308 18.9706 77.2643 19.1311C77.9978 19.2916 78.5997 19.0089 79.9164 19.5284C81.2331 20.0478 81.6192 20.6198 82.1422 20.9875C82.6669 21.3614 83.0635 21.7465 84.0543 21.7746C84.7657 21.7938 85.0129 21.6389 85.8333 20.0401C86.4703 18.7986 86.6462 18.4546 86.5227 18.1054C86.3655 17.6513 84.1645 16.5527 82.8362 16.0963C81.5078 15.6399 79.7207 15.3404 79.1439 15.0065C78.5687 14.6788 76.9142 12.353 76.5896 12.656C76.3596 12.8681 76.3169 13.2899 76.0099 14.205C75.7952 14.845 75.6305 16.4167 75.5278 16.8569Z" fill="#FEFEFF" style="fill:#FEFEFF;fill:color(display-p3 0.9961 0.9961 1.0000);fill-opacity:1;"/>
<path d="M31.0248 40.1722C30.1358 40.3584 28.3194 42.8062 28.7437 44.1887C29.0696 45.2488 30.3854 45.7636 30.6986 45.8436C31.5091 46.0487 32.1286 44.3168 32.5399 43.7639C32.9512 43.211 33.9271 42.3758 33.78 41.7683C33.5727 40.9216 32.1392 39.9456 31.0248 40.1722Z" fill="#FA6C43" style="fill:#FA6C43;fill:color(display-p3 0.9804 0.4235 0.2627);fill-opacity:1;"/>
<path d="M42.6185 51.4319C41.9765 51.683 41.2255 53.2926 41.1854 53.7207C41.1395 54.2516 42.3433 55.376 43.0485 55.376C43.7536 55.376 44.7339 53.6979 44.5733 53.1271C44.4071 52.562 43.1975 51.2035 42.6185 51.4319Z" fill="#FA6C43" style="fill:#FA6C43;fill:color(display-p3 0.9804 0.4235 0.2627);fill-opacity:1;"/>
<path d="M55.0304 23.2629C54.9073 22.7461 52.2414 21.7386 51.4055 23.8762C50.5433 26.0838 50.3849 27.5993 51.3 28.598C51.8455 29.1937 52.4877 29.2287 52.8485 28.9221C53.2092 28.6155 53.0596 27.9935 54.0802 25.6808C54.4937 24.7259 55.1624 23.8236 55.0304 23.2629Z" fill="#FC6B4A" style="fill:#FC6B4A;fill:color(display-p3 0.9882 0.4196 0.2902);fill-opacity:1;"/>
<path d="M75.749 12.3603C75.5137 12.0401 72.7514 12.1755 72.4466 13.9208C72.1329 15.7231 72.3293 16.8246 73.4268 17.2313C74.0812 17.474 74.6992 17.2972 74.9716 16.9714C75.2441 16.6457 74.9597 16.2608 75.3998 14.336C75.574 13.5437 76.0026 12.7081 75.749 12.3603Z" fill="#FC6B4A" style="fill:#FC6B4A;fill:color(display-p3 0.9882 0.4196 0.2902);fill-opacity:1;"/>
<path d="M53.7347 31.676C53.7347 31.676 53.6069 32.1052 54.6187 32.1315C56.0792 32.1753 57.4008 31.0002 58.5534 31.4558C59.8027 31.9463 60.0843 33.3392 60.2426 34.2415C60.4186 35.2052 60.9113 35.7483 61.5272 35.871C62.0815 35.9761 62.612 36.5016 62.612 36.5016C62.612 36.5016 63.5774 34.8547 65.7042 33.2467C67.0387 32.2377 68.3081 31.131 68.3081 31.131C68.3081 31.131 64.9321 28.3721 63.3748 28.1093C62.0023 27.8815 61.2984 28.7663 59.8555 27.9867C58.6765 27.3472 59.0637 26.5324 57.9727 25.6389C57.128 24.9381 55.8155 24.7622 55.8155 24.7622C55.8155 24.7622 55.4282 25.4252 54.6187 27.3875C53.8884 29.1921 53.7347 31.676 53.7347 31.676Z" fill="#FAFFFF" style="fill:#FAFFFF;fill:color(display-p3 0.9804 1.0000 1.0000);fill-opacity:1;"/>
<path d="M68.6385 32.2134C67.6531 32.7676 63.5056 36.1791 63.444 37.1238C63.3737 38.2952 65.0488 39.5477 66.1309 39.5477C67.2131 39.5477 70.2241 35.8267 69.9777 34.5671C69.7225 33.3201 69.5272 31.7096 68.6385 32.2134Z" fill="#FA6C43" style="fill:#FA6C43;fill:color(display-p3 0.9804 0.4235 0.2627);fill-opacity:1;"/>
<path d="M87.0868 18.9292C86.4318 19.598 84.8822 21.8846 85.0708 22.5202C85.3094 23.3065 86.9763 23.6016 87.8491 23.2642C88.2613 22.5202 89.2769 20.7926 88.7605 20.0475C88.2403 19.3134 87.6765 18.3234 87.0868 18.9292Z" fill="#FA6C43" style="fill:#FA6C43;fill:color(display-p3 0.9804 0.4235 0.2627);fill-opacity:1;"/>
<defs>
<linearGradient id="paint0_linear_905_626" x1="40.8985" y1="45.9204" x2="47.775" y2="53.7388" gradientUnits="userSpaceOnUse">
<stop stop-color="#B42F17" style="stop-color:#B42F17;stop-color:color(display-p3 0.7059 0.1843 0.0902);stop-opacity:1;"/>
<stop offset="1" stop-color="#D9411C" style="stop-color:#D9411C;stop-color:color(display-p3 0.8510 0.2549 0.1098);stop-opacity:1;"/>
</linearGradient>
</defs>
</svg>
