<svg width="128" height="128" viewBox="0 0 128 128" fill="none" xmlns="http://www.w3.org/2000/svg">
<g opacity="0.2">
<path d="M99.73 7.09009C102.49 7.09009 104.73 9.33009 104.73 12.0901V116.09C104.73 118.85 102.49 121.09 99.73 121.09H27.73C24.97 121.09 22.73 118.85 22.73 116.09V12.0901C22.73 9.33009 24.97 7.09009 27.73 7.09009H99.73ZM99.73 4.09009H27.73C23.31 4.09009 19.73 7.67009 19.73 12.0901V116.09C19.73 120.51 23.31 124.09 27.73 124.09H99.73C104.15 124.09 107.73 120.51 107.73 116.09V12.0901C107.73 7.67009 104.15 4.09009 99.73 4.09009Z" fill="#212121" style="fill:#212121;fill:color(display-p3 0.1294 0.1294 0.1294);fill-opacity:1;"/>
<path d="M99.73 7.09009C102.49 7.09009 104.73 9.33009 104.73 12.0901V116.09C104.73 118.85 102.49 121.09 99.73 121.09H27.73C24.97 121.09 22.73 118.85 22.73 116.09V12.0901C22.73 9.33009 24.97 7.09009 27.73 7.09009H99.73ZM99.73 4.09009H27.73C23.31 4.09009 19.73 7.67009 19.73 12.0901V116.09C19.73 120.51 23.31 124.09 27.73 124.09H99.73C104.15 124.09 107.73 120.51 107.73 116.09V12.0901C107.73 7.67009 104.15 4.09009 99.73 4.09009Z" fill="#212121" style="fill:#212121;fill:color(display-p3 0.1294 0.1294 0.1294);fill-opacity:1;"/>
<path d="M99.73 7.09009C102.49 7.09009 104.73 9.33009 104.73 12.0901V116.09C104.73 118.85 102.49 121.09 99.73 121.09H27.73C24.97 121.09 22.73 118.85 22.73 116.09V12.0901C22.73 9.33009 24.97 7.09009 27.73 7.09009H99.73ZM99.73 4.09009H27.73C23.31 4.09009 19.73 7.67009 19.73 12.0901V116.09C19.73 120.51 23.31 124.09 27.73 124.09H99.73C104.15 124.09 107.73 120.51 107.73 116.09V12.0901C107.73 7.67009 104.15 4.09009 99.73 4.09009Z" fill="#212121" style="fill:#212121;fill:color(display-p3 0.1294 0.1294 0.1294);fill-opacity:1;"/>
</g>
<path d="M102.29 125.43L26.2695 125.06C22.8195 125.06 20.0195 122.26 20.0195 118.81L32.2195 26.6801L102.41 4.5001C108.54 4.1701 108.89 7.0301 108.89 10.4801L108.52 119.17C108.54 122.64 105.74 125.43 102.29 125.43Z" fill="#D9CDC9" style="fill:#D9CDC9;fill:color(display-p3 0.8510 0.8039 0.7882);fill-opacity:1;"/>
<path d="M101.83 122.06C101.83 122.06 44.0696 123.04 25.3596 121.98C21.7796 121.78 20.0296 120.36 20.0196 118.82L19.8496 10.3301C19.8496 6.88008 22.6496 4.08008 26.0996 4.08008L101.74 4.40008C105.19 4.40008 106.5 7.26008 106.5 10.7101L105.93 116.11C105.91 119.56 105.28 122.06 101.83 122.06Z" fill="#F1EDEC" style="fill:#F1EDEC;fill:color(display-p3 0.9451 0.9294 0.9255);fill-opacity:1;"/>
<path d="M65.2668 97.2C65.6501 96 67.1834 93 69.8668 93C73.3168 93 74.8501 95.4 74.8501 98.4C74.8501 100.5 73.8615 101.884 72.9334 103.5C71.9452 105.221 70.488 106.757 69.1001 108.3C67.3194 110.279 63.3501 114 63.3501 114C63.3501 114 59.3808 110.279 57.6001 108.3C56.2122 106.757 54.755 105.221 53.7668 103.5C52.8387 101.884 51.8501 100.5 51.8501 98.4C51.8501 95.4 53.3834 93 56.8334 93C59.5168 93 61.0501 96 61.4334 97.2C61.8168 97.5 61.8168 97.2 61.8168 96.9C61.4334 94.5 61.4334 93.9 61.0501 92.1C60.6668 90.3 59.5168 87 59.5168 87C61.4334 87.6 65.2668 87.6 67.1834 87C67.1834 87 66.0334 90.3 65.6501 92.1C65.2668 93.9 65.2668 94.5 64.8834 96.9C64.8834 97.2 64.8834 97.5 65.2668 97.2Z" fill="#212121" style="fill:#212121;fill:color(display-p3 0.1294 0.1294 0.1294);fill-opacity:1;"/>
<path d="M65.2668 97.2C65.6501 96 67.1834 93 69.8668 93C73.3168 93 74.8501 95.4 74.8501 98.4C74.8501 100.5 73.8615 101.884 72.9334 103.5C71.9452 105.221 70.488 106.757 69.1001 108.3C67.3194 110.279 63.3501 114 63.3501 114C63.3501 114 59.3808 110.279 57.6001 108.3C56.2122 106.757 54.755 105.221 53.7668 103.5C52.8387 101.884 51.8501 100.5 51.8501 98.4C51.8501 95.4 53.3834 93 56.8334 93C59.5168 93 61.0501 96 61.4334 97.2C61.8168 97.5 61.8168 97.2 61.8168 96.9C61.4334 94.5 61.4334 93.9 61.0501 92.1C60.6668 90.3 59.5168 87 59.5168 87C61.4334 87.6 65.2668 87.6 67.1834 87C67.1834 87 66.0334 90.3 65.6501 92.1C65.2668 93.9 65.2668 94.5 64.8834 96.9C64.8834 97.2 64.8834 97.5 65.2668 97.2Z" fill="#212121" style="fill:#212121;fill:color(display-p3 0.1294 0.1294 0.1294);fill-opacity:1;"/>
<path d="M65.2668 97.2C65.6501 96 67.1834 93 69.8668 93C73.3168 93 74.8501 95.4 74.8501 98.4C74.8501 100.5 73.8615 101.884 72.9334 103.5C71.9452 105.221 70.488 106.757 69.1001 108.3C67.3194 110.279 63.3501 114 63.3501 114C63.3501 114 59.3808 110.279 57.6001 108.3C56.2122 106.757 54.755 105.221 53.7668 103.5C52.8387 101.884 51.8501 100.5 51.8501 98.4C51.8501 95.4 53.3834 93 56.8334 93C59.5168 93 61.0501 96 61.4334 97.2C61.8168 97.5 61.8168 97.2 61.8168 96.9C61.4334 94.5 61.4334 93.9 61.0501 92.1C60.6668 90.3 59.5168 87 59.5168 87C61.4334 87.6 65.2668 87.6 67.1834 87C67.1834 87 66.0334 90.3 65.6501 92.1C65.2668 93.9 65.2668 94.5 64.8834 96.9C64.8834 97.2 64.8834 97.5 65.2668 97.2Z" fill="#212121" style="fill:#212121;fill:color(display-p3 0.1294 0.1294 0.1294);fill-opacity:1;"/>
<path d="M65.2668 32.8C65.6501 34 67.1834 37 69.8668 37C73.3168 37 74.8501 34.6 74.8501 31.6C74.8501 29.5 73.8615 28.1163 72.9334 26.5C71.9452 24.779 70.488 23.2428 69.1001 21.7C67.3194 19.7206 63.3501 16 63.3501 16C63.3501 16 59.3808 19.7206 57.6001 21.7C56.2122 23.2428 54.755 24.779 53.7668 26.5C52.8387 28.1163 51.8501 29.5 51.8501 31.6C51.8501 34.6 53.3834 37 56.8334 37C59.5168 37 61.0501 34 61.4334 32.8C61.8168 32.5 61.8168 32.8 61.8168 33.1C61.4334 35.5 61.4334 36.1 61.0501 37.9C60.6668 39.7 59.5168 43 59.5168 43C61.4334 42.4 65.2668 42.4 67.1834 43C67.1834 43 66.0334 39.7 65.6501 37.9C65.2668 36.1 65.2668 35.5 64.8834 33.1C64.8834 32.8 64.8834 32.5 65.2668 32.8Z" fill="#212121" style="fill:#212121;fill:color(display-p3 0.1294 0.1294 0.1294);fill-opacity:1;"/>
<path d="M65.2668 32.8C65.6501 34 67.1834 37 69.8668 37C73.3168 37 74.8501 34.6 74.8501 31.6C74.8501 29.5 73.8615 28.1163 72.9334 26.5C71.9452 24.779 70.488 23.2428 69.1001 21.7C67.3194 19.7206 63.3501 16 63.3501 16C63.3501 16 59.3808 19.7206 57.6001 21.7C56.2122 23.2428 54.755 24.779 53.7668 26.5C52.8387 28.1163 51.8501 29.5 51.8501 31.6C51.8501 34.6 53.3834 37 56.8334 37C59.5168 37 61.0501 34 61.4334 32.8C61.8168 32.5 61.8168 32.8 61.8168 33.1C61.4334 35.5 61.4334 36.1 61.0501 37.9C60.6668 39.7 59.5168 43 59.5168 43C61.4334 42.4 65.2668 42.4 67.1834 43C67.1834 43 66.0334 39.7 65.6501 37.9C65.2668 36.1 65.2668 35.5 64.8834 33.1C64.8834 32.8 64.8834 32.5 65.2668 32.8Z" fill="#212121" style="fill:#212121;fill:color(display-p3 0.1294 0.1294 0.1294);fill-opacity:1;"/>
<path d="M65.2668 32.8C65.6501 34 67.1834 37 69.8668 37C73.3168 37 74.8501 34.6 74.8501 31.6C74.8501 29.5 73.8615 28.1163 72.9334 26.5C71.9452 24.779 70.488 23.2428 69.1001 21.7C67.3194 19.7206 63.3501 16 63.3501 16C63.3501 16 59.3808 19.7206 57.6001 21.7C56.2122 23.2428 54.755 24.779 53.7668 26.5C52.8387 28.1163 51.8501 29.5 51.8501 31.6C51.8501 34.6 53.3834 37 56.8334 37C59.5168 37 61.0501 34 61.4334 32.8C61.8168 32.5 61.8168 32.8 61.8168 33.1C61.4334 35.5 61.4334 36.1 61.0501 37.9C60.6668 39.7 59.5168 43 59.5168 43C61.4334 42.4 65.2668 42.4 67.1834 43C67.1834 43 66.0334 39.7 65.6501 37.9C65.2668 36.1 65.2668 35.5 64.8834 33.1C64.8834 32.8 64.8834 32.5 65.2668 32.8Z" fill="#212121" style="fill:#212121;fill:color(display-p3 0.1294 0.1294 0.1294);fill-opacity:1;"/>
<path d="M65.2668 65.8C65.6501 67 67.1834 70 69.8668 70C73.3168 70 74.8501 67.6 74.8501 64.6C74.8501 62.5 73.8615 61.1163 72.9334 59.5C71.9452 57.779 70.488 56.2428 69.1001 54.7C67.3194 52.7206 63.3501 49 63.3501 49C63.3501 49 59.3808 52.7206 57.6001 54.7C56.2122 56.2428 54.755 57.779 53.7668 59.5C52.8387 61.1163 51.8501 62.5 51.8501 64.6C51.8501 67.6 53.3834 70 56.8334 70C59.5168 70 61.0501 67 61.4334 65.8C61.8168 65.5 61.8168 65.8 61.8168 66.1C61.4334 68.5 61.4334 69.1 61.0501 70.9C60.6668 72.7 59.5168 76 59.5168 76C61.4334 75.4 65.2668 75.4 67.1834 76C67.1834 76 66.0334 72.7 65.6501 70.9C65.2668 69.1 65.2668 68.5 64.8834 66.1C64.8834 65.8 64.8834 65.5 65.2668 65.8Z" fill="#212121" style="fill:#212121;fill:color(display-p3 0.1294 0.1294 0.1294);fill-opacity:1;"/>
<path d="M65.2668 65.8C65.6501 67 67.1834 70 69.8668 70C73.3168 70 74.8501 67.6 74.8501 64.6C74.8501 62.5 73.8615 61.1163 72.9334 59.5C71.9452 57.779 70.488 56.2428 69.1001 54.7C67.3194 52.7206 63.3501 49 63.3501 49C63.3501 49 59.3808 52.7206 57.6001 54.7C56.2122 56.2428 54.755 57.779 53.7668 59.5C52.8387 61.1163 51.8501 62.5 51.8501 64.6C51.8501 67.6 53.3834 70 56.8334 70C59.5168 70 61.0501 67 61.4334 65.8C61.8168 65.5 61.8168 65.8 61.8168 66.1C61.4334 68.5 61.4334 69.1 61.0501 70.9C60.6668 72.7 59.5168 76 59.5168 76C61.4334 75.4 65.2668 75.4 67.1834 76C67.1834 76 66.0334 72.7 65.6501 70.9C65.2668 69.1 65.2668 68.5 64.8834 66.1C64.8834 65.8 64.8834 65.5 65.2668 65.8Z" fill="#212121" style="fill:#212121;fill:color(display-p3 0.1294 0.1294 0.1294);fill-opacity:1;"/>
<path d="M65.2668 65.8C65.6501 67 67.1834 70 69.8668 70C73.3168 70 74.8501 67.6 74.8501 64.6C74.8501 62.5 73.8615 61.1163 72.9334 59.5C71.9452 57.779 70.488 56.2428 69.1001 54.7C67.3194 52.7206 63.3501 49 63.3501 49C63.3501 49 59.3808 52.7206 57.6001 54.7C56.2122 56.2428 54.755 57.779 53.7668 59.5C52.8387 61.1163 51.8501 62.5 51.8501 64.6C51.8501 67.6 53.3834 70 56.8334 70C59.5168 70 61.0501 67 61.4334 65.8C61.8168 65.5 61.8168 65.8 61.8168 66.1C61.4334 68.5 61.4334 69.1 61.0501 70.9C60.6668 72.7 59.5168 76 59.5168 76C61.4334 75.4 65.2668 75.4 67.1834 76C67.1834 76 66.0334 72.7 65.6501 70.9C65.2668 69.1 65.2668 68.5 64.8834 66.1C64.8834 65.8 64.8834 65.5 65.2668 65.8Z" fill="#212121" style="fill:#212121;fill:color(display-p3 0.1294 0.1294 0.1294);fill-opacity:1;"/>
</svg>
