<svg width="128" height="128" viewBox="0 0 128 128" fill="none" xmlns="http://www.w3.org/2000/svg">
<path d="M63.6 124.8C38.79 124.8 12 109.24 12 75.09C12 40.94 38.79 25.38 63.6 25.38C77.38 25.38 90.1 29.91 99.53 38.18C109.75 47.26 115.18 60.06 115.18 75.09C115.18 90.12 109.75 102.84 99.53 111.91C90.1 120.18 77.29 124.8 63.6 124.8Z" fill="url(#paint0_radial_169_4967)" style=""/>
<path d="M63.6 124.8C38.79 124.8 12 109.24 12 75.09C12 40.94 38.79 25.38 63.6 25.38C77.38 25.38 90.1 29.91 99.53 38.18C109.75 47.26 115.18 60.06 115.18 75.09C115.18 90.12 109.75 102.84 99.53 111.91C90.1 120.18 77.29 124.8 63.6 124.8Z" fill="url(#paint1_radial_169_4967)" style=""/>
<path d="M106.19 45.54C111.07 53.64 113.57 62.96 113.4 72.42C113.4 87.42 107.97 100.17 97.75 109.24C88.32 117.51 75.52 122.13 61.82 122.13C45.76 122.13 28.89 115.6 18.98 101.73C28.55 117.44 46.54 124.8 63.6 124.8C77.29 124.8 90.1 120.18 99.53 111.91C109.75 102.83 115.18 90.12 115.18 75.09C115.18 63.76 112.09 53.69 106.19 45.54Z" fill="#EB8F00" style="fill:#EB8F00;fill:color(display-p3 0.9216 0.5608 0.0000);fill-opacity:1;"/>
<path d="M106.19 45.54C111.07 53.64 113.57 62.96 113.4 72.42C113.4 87.42 107.97 100.17 97.75 109.24C88.32 117.51 75.52 122.13 61.82 122.13C45.76 122.13 28.89 115.6 18.98 101.73C28.55 117.44 46.54 124.8 63.6 124.8C77.29 124.8 90.1 120.18 99.53 111.91C109.75 102.83 115.18 90.12 115.18 75.09C115.18 63.76 112.09 53.69 106.19 45.54Z" fill="#F3B872" style="fill:#F3B872;fill:color(display-p3 0.9542 0.7229 0.4453);fill-opacity:1;"/>
<path opacity="0.8" d="M33.8 88.1C43.465 88.1 51.3 80.7127 51.3 71.6C51.3 62.4873 43.465 55.1 33.8 55.1C24.1351 55.1 16.3 62.4873 16.3 71.6C16.3 80.7127 24.1351 88.1 33.8 88.1Z" fill="url(#paint2_radial_169_4967)" style=""/>
<path opacity="0.8" d="M94.2001 88.1C103.865 88.1 111.7 80.7127 111.7 71.6C111.7 62.4873 103.865 55.1 94.2001 55.1C84.5351 55.1 76.7001 62.4873 76.7001 71.6C76.7001 80.7127 84.5351 88.1 94.2001 88.1Z" fill="url(#paint3_radial_169_4967)" style=""/>
<path d="M24 19.9999C27.866 19.9999 31 17.7613 31 14.9999C31 12.2385 27.866 9.99988 24 9.99988C20.134 9.99988 17 12.2385 17 14.9999C17 17.7613 20.134 19.9999 24 19.9999Z" fill="#FF00A2" style="fill:#FF00A2;fill:color(display-p3 1.0000 0.0000 0.6353);fill-opacity:1;"/>
<path d="M53.4473 29.2702C55.0874 27.63 54.6759 24.5592 52.528 22.4113C50.3802 20.2635 47.3093 19.8519 45.6692 21.4921C44.029 23.1323 44.4405 26.2031 46.5884 28.351C48.7363 30.4988 51.8071 30.9104 53.4473 29.2702Z" fill="#FD3B3B" style="fill:#FD3B3B;fill:color(display-p3 0.9922 0.2314 0.2314);fill-opacity:1;"/>
<path d="M74.8973 21.2959C78.566 18.4562 80.4713 14.7734 79.1529 13.0701C77.8344 11.3668 73.7916 12.288 70.1229 15.1276C66.4543 17.9673 64.549 21.6501 65.8674 23.3534C67.1858 25.0567 71.2287 24.1355 74.8973 21.2959Z" fill="#00EEFF" style="fill:#00EEFF;fill:color(display-p3 0.0000 0.9333 1.0000);fill-opacity:1;"/>
<path d="M25.9581 87.3058C27.3451 86.505 27.0144 83.3356 25.2195 80.2268C23.4245 77.118 20.8451 75.247 19.4581 76.0478C18.071 76.8486 18.4017 80.018 20.1967 83.1268C21.9916 86.2356 24.571 88.1066 25.9581 87.3058Z" fill="#0048FF" style="fill:#0048FF;fill:color(display-p3 0.0000 0.2824 1.0000);fill-opacity:1;"/>
<path d="M96.5 116C98.433 116 100 113.537 100 110.5C100 107.462 98.433 105 96.5 105C94.567 105 93 107.462 93 110.5C93 113.537 94.567 116 96.5 116Z" fill="#F63BBE" style="fill:#F63BBE;fill:color(display-p3 0.9647 0.2314 0.7451);fill-opacity:1;"/>
<path d="M116.53 58.7297C119.465 56.6634 121.33 54.2561 120.694 53.3529C120.058 52.4497 117.163 53.3926 114.228 55.4589C111.292 57.5252 109.428 59.9325 110.064 60.8357C110.7 61.7389 113.595 60.796 116.53 58.7297Z" fill="#00CC00" style="fill:#00CC00;fill:color(display-p3 0.0000 0.8000 0.0000);fill-opacity:1;"/>
<path d="M22.4803 121.036C23.6347 120.279 23.0969 117.418 21.279 114.648C19.4611 111.877 17.0515 110.245 15.8971 111.003C14.7427 111.76 15.2806 114.62 17.0985 117.391C18.9164 120.161 21.3259 121.793 22.4803 121.036Z" fill="#0048FF" style="fill:#0048FF;fill:color(display-p3 0.0000 0.2824 1.0000);fill-opacity:1;"/>
<path d="M15.1771 101.495C18.4826 101.26 21.0829 99.9535 20.9851 98.5763C20.8874 97.199 18.1286 96.2727 14.8231 96.5073C11.5177 96.7419 8.91738 98.0486 9.01513 99.4259C9.11289 100.803 11.8717 101.729 15.1771 101.495Z" fill="#7ACDED" style="fill:#7ACDED;fill:color(display-p3 0.4784 0.8039 0.9294);fill-opacity:1;"/>
<path d="M24.1188 88.3981C28.0865 88.134 31.2524 87.1606 31.1901 86.2237C31.1277 85.2869 27.8607 84.7415 23.893 85.0056C19.9253 85.2696 16.7594 86.2431 16.8217 87.1799C16.8841 88.1167 20.1511 88.6621 24.1188 88.3981Z" fill="#FF82B2" style="fill:#FF82B2;fill:color(display-p3 1.0000 0.5098 0.6980);fill-opacity:1;"/>
<path d="M118.9 78.1999C118.05 75.2599 116.02 72.7999 113.3 71.3999C108.7 68.8999 102.94 70.6099 100.45 75.2099C100.43 75.2399 100.42 75.2699 100.4 75.2999C98.32 79.2199 99.79 84.0899 103.7 86.1999C105.25 87.0699 107.07 87.3199 108.8 86.8999C110.58 86.4999 112.08 85.3299 112.9 83.6999C113.79 81.8199 113.71 79.6199 112.7 77.7999C111.88 76.1999 110.29 75.1399 108.5 74.9999C107.47 74.9799 106.63 75.7999 106.61 76.8299C106.6 77.7599 107.28 78.5599 108.2 78.6999C108.71 78.7299 109.17 79.0399 109.4 79.4999C109.75 80.2099 109.82 81.0399 109.6 81.7999C109.26 82.4699 108.64 82.9499 107.9 83.0999C107.09 83.3099 106.23 83.1999 105.5 82.7999C104.5 82.2699 103.75 81.3699 103.4 80.2999C103.1 79.1999 103.21 78.0299 103.7 76.9999C104.4 75.6399 105.63 74.6199 107.1 74.1999C108.57 73.7799 110.13 73.9199 111.5 74.5999C113.29 75.5799 114.62 77.2399 115.2 79.1999C115.81 81.1699 115.59 83.2999 114.6 85.0999C112.7 88.6999 109 91.0999 103.6 91.0999C100.5 91.0999 82.05 90.5999 82.05 90.5999L82.27 95.1999L103.4 94.8999C109.7 94.8999 114.9 92.3999 117.9 86.7999C119.48 84.2199 119.84 81.0699 118.9 78.1999Z" fill="url(#paint4_linear_169_4967)" style=""/>
<path d="M70.0001 92.9999C70.6101 93.6499 71.0801 94.4099 71.4001 95.2399L82.8501 95.1699C82.8501 93.6699 82.6501 92.1699 82.6501 90.5699C79.6501 90.4699 73.4701 90.3699 71.5501 90.2999C71.2701 91.3299 70.7201 92.2699 69.9401 92.9999H70.0001Z" fill="#7F0099" style="fill:#7F0099;fill:color(display-p3 0.4980 0.0000 0.6000);fill-opacity:1;"/>
<path d="M104.8 54.8L108.3 55.3L109.2 51.8L109.7 49.8L89.6001 47C98.7001 53.9 104.2 54.8 104.8 54.8Z" fill="#FF4545" style="fill:#FF4545;fill:color(display-p3 1.0000 0.2706 0.2706);fill-opacity:1;"/>
<path d="M120.9 5.3999L112.8 9.9999L110.8 11.0999L119.2 12.2999C119.8 9.7999 120.9 5.3999 120.9 5.3999Z" fill="#FF4545" style="fill:#FF4545;fill:color(display-p3 1.0000 0.2706 0.2706);fill-opacity:1;"/>
<path d="M103 15.5L94.7001 20.2L116.4 23.3L117.8 17.6L103 15.5Z" fill="#FF4545" style="fill:#FF4545;fill:color(display-p3 1.0000 0.2706 0.2706);fill-opacity:1;"/>
<path d="M79.3001 28.9H79.2001L113.7 33.9L115 28.6L86.9001 24.6L79.3001 28.9Z" fill="#FF4545" style="fill:#FF4545;fill:color(display-p3 1.0000 0.2706 0.2706);fill-opacity:1;"/>
<path d="M82.2001 40.4L111 44.5L112.4 39.1L77.7001 34.1C78.1001 35.2 79.3001 37.4 82.2001 40.4Z" fill="#FF4545" style="fill:#FF4545;fill:color(display-p3 1.0000 0.2706 0.2706);fill-opacity:1;"/>
<path d="M86.9 24.6L115 28.6L116.4 23.2999L94.7 20.2L86.9 24.6Z" fill="#FF9C9C" style="fill:#FF9C9C;fill:color(display-p3 1.0000 0.6118 0.6118);fill-opacity:1;"/>
<path d="M118.6 14.5C118.6 14.5 118.9 13.1 119.1 12.4L110.7 11.2L102.9 15.6L117.7 17.7L118.6 14.5Z" fill="#FF9C9C" style="fill:#FF9C9C;fill:color(display-p3 1.0000 0.6118 0.6118);fill-opacity:1;"/>
<path d="M76.3 30.5L77.4 33.7C77.44 33.88 77.51 34.05 77.6 34.2L112.3 39.2L113.6 33.9L79.1 29L76.3 30.5Z" fill="#FF9C9C" style="fill:#FF9C9C;fill:color(display-p3 1.0000 0.6118 0.6118);fill-opacity:1;"/>
<path d="M89.2001 46.7C89.3001 46.8 89.5001 46.9 89.6001 47L109.7 49.9L111 44.6L82.2001 40.5C84.3901 42.72 86.7301 44.79 89.2001 46.7Z" fill="#FF9C9C" style="fill:#FF9C9C;fill:color(display-p3 1.0000 0.6118 0.6118);fill-opacity:1;"/>
<path d="M120.8 11.3C123.451 11.3 125.6 9.15092 125.6 6.49995C125.6 3.84898 123.451 1.69995 120.8 1.69995C118.149 1.69995 116 3.84898 116 6.49995C116 9.15092 118.149 11.3 120.8 11.3Z" fill="#C93737" style="fill:#C93737;fill:color(display-p3 0.7882 0.2157 0.2157);fill-opacity:1;"/>
<path d="M71.8401 91.83C73.3101 90.56 74.2301 88.77 74.4101 86.83C74.6901 84.88 74.1101 82.91 72.8101 81.43C70.4801 78.37 64.0001 79.13 64.0001 79.13C62.2601 79.2 60.2501 80.03 60.5001 82.03C60.8301 83.18 61.7601 84.06 62.9201 84.32C65.4801 84.93 69.1301 84.32 69.2301 86.92C69.3501 89.84 64.8701 88.64 64.5101 91.73C64.1501 94.82 69.2301 94.41 69.2301 96.54C69.2301 98.17 67.5601 98.45 65.8001 98.82C64.2901 99.13 61.3901 99.6 61.1601 101.33C60.9301 103.06 61.9201 105.19 66.0001 104.57C72.4201 103.57 74.5801 100.08 74.5801 97.92C74.6201 95.58 73.6201 93.35 71.8401 91.83Z" fill="#312D2D" style="fill:#312D2D;fill:color(display-p3 0.1922 0.1765 0.1765);fill-opacity:1;"/>
<path d="M49.8601 65.43L49.7101 65.24L49.3101 64.73L48.8001 64.18C48.6001 63.96 48.3601 63.72 48.1201 63.48C47.8701 63.24 47.6101 63.01 47.3301 62.8C47.0801 62.61 46.8201 62.44 46.5401 62.29C46.3501 62.18 46.1401 62.1 45.9201 62.06C45.8501 62.05 45.7901 62.05 45.7201 62.06C45.7201 62.06 45.7201 62.06 45.6401 62.06H45.8201H45.3001C45.1701 62.06 45.3001 62.06 45.3001 62.06H45.3701C45.3701 62.06 45.4501 62.06 45.3701 62.06C45.3301 62.05 45.3001 62.05 45.2601 62.06C45.0401 62.1 44.8301 62.18 44.6401 62.29C44.3601 62.44 44.1001 62.61 43.8501 62.8C43.5901 63 43.3201 63.24 43.0601 63.48C42.5701 63.96 42.1401 64.48 41.8401 64.79L41.3601 65.36L41.1401 65.61C39.7801 67.12 37.5001 67.36 35.8501 66.18C34.8001 65.45 34.2601 64.18 34.4601 62.91C34.4601 62.91 34.5301 62.53 34.7101 61.91C34.9901 60.95 35.3901 60.03 35.8901 59.17C36.6701 57.75 37.7301 56.5 39.0001 55.5C39.8701 54.84 40.8301 54.31 41.8601 53.94C42.1401 53.83 42.4401 53.74 42.7301 53.67C43.0601 53.57 43.3901 53.5 43.7301 53.45L44.3101 53.37H44.7901H45.3101H46.0501H46.5301C46.8401 53.37 47.1601 53.45 47.4701 53.5C48.0801 53.61 48.6701 53.77 49.2501 53.98C50.2801 54.35 51.2401 54.88 52.1101 55.54C53.4001 56.52 54.4901 57.75 55.2901 59.16C55.5801 59.65 55.8401 60.17 56.0501 60.7C56.2401 61.14 56.3801 61.61 56.5001 61.96C56.6201 62.31 56.6101 62.48 56.6501 62.65V62.88C56.9201 64.81 55.5701 66.6 53.6401 66.87C53.6001 66.88 53.5601 66.88 53.5301 66.88C52.1401 67.09 50.7301 66.54 49.8601 65.43Z" fill="#312D2D" style="fill:#312D2D;fill:color(display-p3 0.1922 0.1765 0.1765);fill-opacity:1;"/>
<path d="M87.0001 65.43L86.8501 65.24L86.4501 64.73L86.0001 64.18C85.8001 63.96 85.5601 63.72 85.3201 63.48C85.0701 63.24 84.8101 63.01 84.5301 62.8C84.2801 62.61 84.0201 62.44 83.7401 62.29C83.5501 62.18 83.3401 62.1 83.1301 62.06C83.0601 62.05 83.0001 62.05 82.9301 62.06C82.9301 62.06 82.8701 62.06 82.8501 62.06H83.0001H82.4801C82.3401 62.06 82.4801 62.06 82.4801 62.06H82.5501C82.5501 62.06 82.6301 62.06 82.5501 62.06H82.4401C82.2301 62.1 82.0201 62.18 81.8301 62.29C81.5501 62.44 81.2901 62.61 81.0401 62.8C80.7601 63.01 80.5001 63.24 80.2501 63.48C79.7501 63.96 79.3301 64.48 79.0201 64.79L78.5401 65.36L78.3201 65.61C76.9601 67.12 74.6801 67.36 73.0301 66.18C71.9801 65.45 71.4401 64.18 71.6401 62.91C71.6401 62.91 71.7101 62.53 71.9001 61.91C72.1501 60.94 72.5201 60 73.0001 59.12C73.8001 57.71 74.8901 56.48 76.1801 55.5C77.0501 54.84 78.0201 54.31 79.0501 53.94C79.3301 53.83 79.6201 53.74 79.9101 53.67C80.2401 53.57 80.5701 53.5 80.9101 53.45L81.4901 53.37H81.9701H82.4901H83.2301H83.7101C84.0301 53.37 84.3401 53.45 84.6501 53.5C86.3401 53.79 87.9301 54.48 89.3001 55.5C90.5901 56.48 91.6701 57.71 92.4801 59.12C92.7701 59.61 93.0201 60.13 93.2301 60.66C93.4101 61.07 93.5601 61.49 93.6801 61.92C93.7501 62.15 93.8001 62.38 93.8301 62.61V62.84C94.1101 64.76 92.7701 66.55 90.8501 66.82C90.8101 66.83 90.7701 66.83 90.7201 66.84C89.3201 67.06 87.9001 66.53 87.0001 65.43Z" fill="#312D2D" style="fill:#312D2D;fill:color(display-p3 0.1922 0.1765 0.1765);fill-opacity:1;"/>
<defs>
<radialGradient id="paint0_radial_169_4967" cx="0" cy="0" r="1" gradientUnits="userSpaceOnUse" gradientTransform="translate(63.59 75.0901) scale(50.6587 50.6587)">
<stop offset="0.5" stop-color="#FDE030" style="stop-color:#FDE030;stop-color:color(display-p3 0.9922 0.8784 0.1882);stop-opacity:1;"/>
<stop offset="0.92" stop-color="#F7C02B" style="stop-color:#F7C02B;stop-color:color(display-p3 0.9686 0.7529 0.1686);stop-opacity:1;"/>
<stop offset="1" stop-color="#F4A223" style="stop-color:#F4A223;stop-color:color(display-p3 0.9569 0.6353 0.1373);stop-opacity:1;"/>
</radialGradient>
<radialGradient id="paint1_radial_169_4967" cx="0" cy="0" r="1" gradientUnits="userSpaceOnUse" gradientTransform="translate(41.3521 49.8684) rotate(-43.2013) scale(90.7383 90.5595)">
<stop offset="0.3533" stop-color="#F9DDBD" style="stop-color:#F9DDBD;stop-color:color(display-p3 0.9765 0.8667 0.7412);stop-opacity:1;"/>
<stop offset="0.8723" stop-color="#FFD29C" style="stop-color:#FFD29C;stop-color:color(display-p3 1.0000 0.8235 0.6118);stop-opacity:1;"/>
</radialGradient>
<radialGradient id="paint2_radial_169_4967" cx="0" cy="0" r="1" gradientUnits="userSpaceOnUse" gradientTransform="translate(33.8 75.1191) scale(19.0478 17.1041)">
<stop stop-color="#ED7770" style="stop-color:#ED7770;stop-color:color(display-p3 0.9294 0.4667 0.4392);stop-opacity:1;"/>
<stop offset="0.9" stop-color="#ED7770" stop-opacity="0" style="stop-color:none;stop-opacity:0;"/>
</radialGradient>
<radialGradient id="paint3_radial_169_4967" cx="0" cy="0" r="1" gradientUnits="userSpaceOnUse" gradientTransform="translate(126.52 1172.59) scale(19.43)">
<stop stop-color="#ED7770" style="stop-color:#ED7770;stop-color:color(display-p3 0.9294 0.4667 0.4392);stop-opacity:1;"/>
<stop offset="0.9" stop-color="#ED7770" stop-opacity="0" style="stop-color:none;stop-opacity:0;"/>
</radialGradient>
<linearGradient id="paint4_linear_169_4967" x1="82.19" y1="82.7254" x2="119.38" y2="82.7254" gradientUnits="userSpaceOnUse">
<stop stop-color="#004054" style="stop-color:#004054;stop-color:color(display-p3 0.0000 0.2510 0.3294);stop-opacity:1;"/>
<stop offset="0.99" stop-color="#45A4FF" style="stop-color:#45A4FF;stop-color:color(display-p3 0.2706 0.6431 1.0000);stop-opacity:1;"/>
</linearGradient>
</defs>
</svg>
