<svg width="128" height="129" viewBox="0 0 128 129" fill="none" xmlns="http://www.w3.org/2000/svg">
<path d="M123.621 37.6398C121.821 38.7398 119.921 39.7398 118.221 40.4398C116.421 41.2398 114.721 41.8398 113.021 42.4398C111.321 43.0398 109.621 43.3398 107.921 43.7398C106.221 44.1398 104.621 44.2398 103.021 44.4398C101.421 44.5398 99.8211 44.6398 98.2211 44.6398C96.6211 44.6398 95.1211 44.5398 93.6211 44.4398C92.1211 44.3398 90.6211 44.1398 89.1211 43.9398C87.6211 43.7398 86.2211 43.5398 84.7211 43.2398C83.2211 42.9398 81.8211 42.6398 80.4211 42.3398C79.0211 42.0398 77.6211 41.6398 76.2211 41.2398C74.8211 40.8398 73.4211 40.4398 72.0211 40.0398C70.6211 39.6398 69.2211 39.2398 67.8211 38.8398C66.4211 38.4398 65.0211 38.0398 63.6211 37.6398C62.2211 37.2398 60.8211 36.8398 59.4211 36.4398C58.0211 36.0398 56.6211 35.6398 55.2211 35.2398C53.8211 34.8398 52.4211 34.4398 51.0211 34.0398C49.6211 33.6398 48.2211 33.3398 46.8211 32.9398C45.4211 32.5398 43.9211 32.3398 42.5211 32.0398C41.0211 31.7398 39.6211 31.5398 38.1211 31.3398C36.6211 31.1398 35.1211 30.9398 33.6211 30.8398C32.1211 30.7398 30.5211 30.6398 29.0211 30.6398C27.5211 30.6398 25.9211 30.7398 24.2211 30.8398C22.5211 30.9398 21.0211 31.2398 19.3211 31.5398C17.6211 31.8398 16.0211 32.2398 14.2211 32.8398C12.4211 33.4398 10.7211 34.0398 9.02109 34.8398C7.32109 35.6398 5.42109 36.5398 3.62109 37.6398V32.6398C3.62109 32.6398 3.62109 28.0001 3.62109 26.5001V21.5001C5.42109 20.4001 7.32109 19.4001 9.02109 18.7001C10.8211 17.9001 12.5211 17.3001 14.2211 16.7001C15.9211 16.1001 17.6211 15.8001 19.3211 15.4001C21.0211 15.1001 22.6211 14.9001 24.2211 14.7001C25.8211 14.6001 27.4211 14.5001 29.0211 14.5001C30.6211 14.5001 32.1211 14.6001 33.6211 14.7001C35.1211 14.8001 36.6211 15.0001 38.1211 15.2001C39.6211 15.4001 41.1211 15.6001 42.5211 15.9001C43.9211 16.2001 45.4211 16.5001 46.8211 16.8001C48.2211 17.1001 49.6211 17.5001 51.0211 17.9001C52.4211 18.3001 53.8211 18.7001 55.2211 19.1001C56.6211 19.5001 58.0211 19.9001 59.4211 20.3001C60.8211 20.7001 62.2211 21.1001 63.6211 21.5001C65.0211 21.9001 66.4211 22.3001 67.8211 22.7001C69.2211 23.1001 70.6211 23.5001 72.0211 23.9001C73.4211 24.3001 74.8211 24.7001 76.2211 25.1001C77.6211 25.5001 79.0211 25.8001 80.4211 26.2001C81.8211 26.5001 83.3211 26.8001 84.7211 27.1001C86.1211 27.4001 87.6211 27.6001 89.1211 27.8001C90.6211 28.0001 92.1211 28.2001 93.6211 28.3001C95.1211 28.4001 96.7211 28.5001 98.2211 28.5001C99.7211 28.5001 101.321 28.4001 103.021 28.3001C104.721 28.2001 106.221 27.9001 107.921 27.6001C109.621 27.3001 111.221 26.9001 113.021 26.3001C114.821 25.7001 116.521 25.1001 118.221 24.3001C119.921 23.5001 121.821 22.6001 123.621 21.5001V26.5001V32.6398C123.621 32.6398 123.621 35.7398 123.621 37.6398Z" fill="#F3473B" style="fill:#F3473B;fill:color(display-p3 0.9529 0.2784 0.2314);fill-opacity:1;"/>
<path d="M123.621 37.6398C121.821 38.7398 119.921 39.7398 118.221 40.4398C116.421 41.2398 114.721 41.8398 113.021 42.4398C111.321 43.0398 109.621 43.3398 107.921 43.7398C106.221 44.1398 104.621 44.2398 103.021 44.4398C101.421 44.5398 99.8211 44.6398 98.2211 44.6398C96.6211 44.6398 95.1211 44.5398 93.6211 44.4398C92.1211 44.3398 90.6211 44.1398 89.1211 43.9398C87.6211 43.7398 86.2211 43.5398 84.7211 43.2398C83.2211 42.9398 81.8211 42.6398 80.4211 42.3398C79.0211 42.0398 77.6211 41.6398 76.2211 41.2398C74.8211 40.8398 73.4211 40.4398 72.0211 40.0398C70.6211 39.6398 69.2211 39.2398 67.8211 38.8398C66.4211 38.4398 65.0211 38.0398 63.6211 37.6398C62.2211 37.2398 60.8211 36.8398 59.4211 36.4398C58.0211 36.0398 56.6211 35.6398 55.2211 35.2398C53.8211 34.8398 52.4211 34.4398 51.0211 34.0398C49.6211 33.6398 48.2211 33.3398 46.8211 32.9398C45.4211 32.5398 43.9211 32.3398 42.5211 32.0398C41.0211 31.7398 39.6211 31.5398 38.1211 31.3398C36.6211 31.1398 35.1211 30.9398 33.6211 30.8398C32.1211 30.7398 30.5211 30.6398 29.0211 30.6398C27.5211 30.6398 25.9211 30.7398 24.2211 30.8398C22.5211 30.9398 21.0211 31.2398 19.3211 31.5398C17.6211 31.8398 16.0211 32.2398 14.2211 32.8398C12.4211 33.4398 10.7211 34.0398 9.02109 34.8398C7.32109 35.6398 5.42109 36.5398 3.62109 37.6398V32.6398C3.62109 32.6398 3.62109 28.0001 3.62109 26.5001V21.5001C5.42109 20.4001 7.32109 19.4001 9.02109 18.7001C10.8211 17.9001 12.5211 17.3001 14.2211 16.7001C15.9211 16.1001 17.6211 15.8001 19.3211 15.4001C21.0211 15.1001 22.6211 14.9001 24.2211 14.7001C25.8211 14.6001 27.4211 14.5001 29.0211 14.5001C30.6211 14.5001 32.1211 14.6001 33.6211 14.7001C35.1211 14.8001 36.6211 15.0001 38.1211 15.2001C39.6211 15.4001 41.1211 15.6001 42.5211 15.9001C43.9211 16.2001 45.4211 16.5001 46.8211 16.8001C48.2211 17.1001 49.6211 17.5001 51.0211 17.9001C52.4211 18.3001 53.8211 18.7001 55.2211 19.1001C56.6211 19.5001 58.0211 19.9001 59.4211 20.3001C60.8211 20.7001 62.2211 21.1001 63.6211 21.5001C65.0211 21.9001 66.4211 22.3001 67.8211 22.7001C69.2211 23.1001 70.6211 23.5001 72.0211 23.9001C73.4211 24.3001 74.8211 24.7001 76.2211 25.1001C77.6211 25.5001 79.0211 25.8001 80.4211 26.2001C81.8211 26.5001 83.3211 26.8001 84.7211 27.1001C86.1211 27.4001 87.6211 27.6001 89.1211 27.8001C90.6211 28.0001 92.1211 28.2001 93.6211 28.3001C95.1211 28.4001 96.7211 28.5001 98.2211 28.5001C99.7211 28.5001 101.321 28.4001 103.021 28.3001C104.721 28.2001 106.221 27.9001 107.921 27.6001C109.621 27.3001 111.221 26.9001 113.021 26.3001C114.821 25.7001 116.521 25.1001 118.221 24.3001C119.921 23.5001 121.821 22.6001 123.621 21.5001V26.5001V32.6398C123.621 32.6398 123.621 35.7398 123.621 37.6398Z" fill="#FFB800" style="fill:#FFB800;fill:color(display-p3 1.0000 0.7200 0.0000);fill-opacity:1;"/>
<path d="M123.621 50.3807C121.821 51.4807 119.921 52.4807 118.221 53.1807C116.421 53.9807 114.721 54.5807 113.021 55.1807C111.321 55.7807 109.621 56.0807 107.921 56.4807C106.221 56.8807 104.621 56.9807 103.021 57.1807C101.421 57.2807 99.8211 57.3807 98.2211 57.3807C96.6211 57.3807 95.1211 57.2807 93.6211 57.1807C92.1211 57.0807 90.6211 56.8807 89.1211 56.6807C87.6211 56.4807 86.2211 56.2807 84.7211 55.9807C83.2211 55.6807 81.8211 55.3807 80.4211 55.0807C79.0211 54.7807 77.6211 54.3807 76.2211 53.9807C74.8211 53.5807 73.4211 53.1807 72.0211 52.7807C70.6211 52.3807 69.2211 51.9807 67.8211 51.5807C66.4211 51.1807 65.0211 50.7807 63.6211 50.3807C62.2211 49.9807 60.8211 49.5807 59.4211 49.1807C58.0211 48.7807 56.6211 48.3807 55.2211 47.9807C53.8211 47.5807 52.4211 47.1807 51.0211 46.7807C49.6211 46.3807 48.2211 46.0807 46.8211 45.6807C45.4211 45.2807 43.9211 45.0807 42.5211 44.7807C41.0211 44.4807 39.6211 44.2807 38.1211 44.0807C36.6211 43.8807 35.1211 43.6807 33.6211 43.5807C32.1211 43.4807 30.5211 43.3807 29.0211 43.3807C27.5211 43.3807 25.9211 43.4807 24.2211 43.5807C22.5211 43.6807 21.0211 43.9807 19.3211 44.2807C17.6211 44.5807 16.0211 44.9807 14.2211 45.5807C12.4211 46.1807 10.7211 46.7807 9.02109 47.5807C7.32109 48.3807 5.42109 49.2807 3.62109 50.3807V45.3807C3.62109 45.3807 3.62109 40.7411 3.62109 39.2411V34.2411C5.42109 33.1411 7.32109 32.1411 9.02109 31.4411C10.8211 30.6411 12.5211 30.0411 14.2211 29.4411C15.9211 28.8411 17.6211 28.5411 19.3211 28.1411C21.0211 27.8411 22.6211 27.6411 24.2211 27.4411C25.8211 27.3411 27.4211 27.2411 29.0211 27.2411C30.6211 27.2411 32.1211 27.3411 33.6211 27.4411C35.1211 27.5411 36.6211 27.7411 38.1211 27.9411C39.6211 28.1411 41.1211 28.3411 42.5211 28.6411C43.9211 28.9411 45.4211 29.2411 46.8211 29.5411C48.2211 29.8411 49.6211 30.2411 51.0211 30.6411C52.4211 31.0411 53.8211 31.4411 55.2211 31.8411C56.6211 32.2411 58.0211 32.6411 59.4211 33.0411C60.8211 33.4411 62.2211 33.8411 63.6211 34.2411C65.0211 34.6411 66.4211 35.0411 67.8211 35.4411C69.2211 35.8411 70.6211 36.2411 72.0211 36.6411C73.4211 37.0411 74.8211 37.4411 76.2211 37.8411C77.6211 38.2411 79.0211 38.5411 80.4211 38.9411C81.8211 39.2411 83.3211 39.5411 84.7211 39.8411C86.1211 40.1411 87.6211 40.3411 89.1211 40.5411C90.6211 40.7411 92.1211 40.9411 93.6211 41.0411C95.1211 41.1411 96.7211 41.2411 98.2211 41.2411C99.7211 41.2411 101.321 41.1411 103.021 41.0411C104.721 40.9411 106.221 40.6411 107.921 40.3411C109.621 40.0411 111.221 39.6411 113.021 39.0411C114.821 38.4411 116.521 37.8411 118.221 37.0411C119.921 36.2411 121.821 35.3411 123.621 34.2411V39.2411V45.3807C123.621 45.3807 123.621 48.4807 123.621 50.3807Z" fill="#F3473B" style="fill:#F3473B;fill:color(display-p3 0.9529 0.2784 0.2314);fill-opacity:1;"/>
<path d="M123.621 59.2411C121.821 60.3411 119.921 61.3411 118.221 62.0411C116.421 62.8411 114.721 63.4411 113.021 64.0411C111.321 64.6411 109.621 64.9411 107.921 65.3411C106.221 65.7411 104.621 65.8411 103.021 66.0411C101.421 66.1411 99.8211 66.2411 98.2211 66.2411C96.6211 66.2411 95.1211 66.1411 93.6211 66.0411C92.1211 65.9411 90.6211 65.7411 89.1211 65.5411C87.6211 65.3411 86.2211 65.1411 84.7211 64.8411C83.2211 64.5411 81.8211 64.2411 80.4211 63.9411C79.0211 63.6411 77.6211 63.2411 76.2211 62.8411C74.8211 62.4411 73.4211 62.0411 72.0211 61.6411C70.6211 61.2411 69.2211 60.8411 67.8211 60.4411C66.4211 60.0411 65.0211 59.6411 63.6211 59.2411C62.2211 58.8411 60.8211 58.4411 59.4211 58.0411C58.0211 57.6411 56.6211 57.2411 55.2211 56.8411C53.8211 56.4411 52.4211 56.0411 51.0211 55.6411C49.6211 55.2411 48.2211 54.9411 46.8211 54.5411C45.4211 54.1411 43.9211 53.9411 42.5211 53.6411C41.0211 53.3411 39.6211 53.1411 38.1211 52.9411C36.6211 52.7411 35.1211 52.5411 33.6211 52.4411C32.1211 52.3411 30.5211 52.2411 29.0211 52.2411C27.5211 52.2411 25.9211 52.3411 24.2211 52.4411C22.5211 52.5411 21.0211 52.8411 19.3211 53.1411C17.6211 53.4411 16.0211 53.8411 14.2211 54.4411C12.4211 55.0411 10.7211 55.6411 9.02109 56.4411C7.32109 57.2411 5.42109 58.1411 3.62109 59.2411V54.2411C3.62109 54.2411 3.62109 49.6014 3.62109 48.1014V43.1014C5.42109 42.0014 7.32109 41.0014 9.02109 40.3014C10.8211 39.5014 12.5211 38.9014 14.2211 38.3014C15.9211 37.7014 17.6211 37.4014 19.3211 37.0014C21.0211 36.7014 22.6211 36.5014 24.2211 36.3014C25.8211 36.2014 27.4211 36.1014 29.0211 36.1014C30.6211 36.1014 32.1211 36.2014 33.6211 36.3014C35.1211 36.4014 36.6211 36.6014 38.1211 36.8014C39.6211 37.0014 41.1211 37.2014 42.5211 37.5014C43.9211 37.8014 45.4211 38.1014 46.8211 38.4014C48.2211 38.7014 49.6211 39.1014 51.0211 39.5014C52.4211 39.9014 53.8211 40.3014 55.2211 40.7014C56.6211 41.1014 58.0211 41.5014 59.4211 41.9014C60.8211 42.3014 62.2211 42.7014 63.6211 43.1014C65.0211 43.5014 66.4211 43.9014 67.8211 44.3014C69.2211 44.7014 70.6211 45.1014 72.0211 45.5014C73.4211 45.9014 74.8211 46.3014 76.2211 46.7014C77.6211 47.1014 79.0211 47.4014 80.4211 47.8014C81.8211 48.1014 83.3211 48.4014 84.7211 48.7014C86.1211 49.0014 87.6211 49.2014 89.1211 49.4014C90.6211 49.6014 92.1211 49.8014 93.6211 49.9014C95.1211 50.0014 96.7211 50.1014 98.2211 50.1014C99.7211 50.1014 101.321 50.0014 103.021 49.9014C104.721 49.8014 106.221 49.5014 107.921 49.2014C109.621 48.9014 111.221 48.5014 113.021 47.9014C114.821 47.3014 116.521 46.7014 118.221 45.9014C119.921 45.1014 121.821 44.2014 123.621 43.1014V48.1014V54.2411C123.621 54.2411 123.621 57.3411 123.621 59.2411Z" fill="#F3473B" style="fill:#F3473B;fill:color(display-p3 0.9529 0.2784 0.2314);fill-opacity:1;"/>
<path d="M123.621 59.2411C121.821 60.3411 119.921 61.3411 118.221 62.0411C116.421 62.8411 114.721 63.4411 113.021 64.0411C111.321 64.6411 109.621 64.9411 107.921 65.3411C106.221 65.7411 104.621 65.8411 103.021 66.0411C101.421 66.1411 99.8211 66.2411 98.2211 66.2411C96.6211 66.2411 95.1211 66.1411 93.6211 66.0411C92.1211 65.9411 90.6211 65.7411 89.1211 65.5411C87.6211 65.3411 86.2211 65.1411 84.7211 64.8411C83.2211 64.5411 81.8211 64.2411 80.4211 63.9411C79.0211 63.6411 77.6211 63.2411 76.2211 62.8411C74.8211 62.4411 73.4211 62.0411 72.0211 61.6411C70.6211 61.2411 69.2211 60.8411 67.8211 60.4411C66.4211 60.0411 65.0211 59.6411 63.6211 59.2411C62.2211 58.8411 60.8211 58.4411 59.4211 58.0411C58.0211 57.6411 56.6211 57.2411 55.2211 56.8411C53.8211 56.4411 52.4211 56.0411 51.0211 55.6411C49.6211 55.2411 48.2211 54.9411 46.8211 54.5411C45.4211 54.1411 43.9211 53.9411 42.5211 53.6411C41.0211 53.3411 39.6211 53.1411 38.1211 52.9411C36.6211 52.7411 35.1211 52.5411 33.6211 52.4411C32.1211 52.3411 30.5211 52.2411 29.0211 52.2411C27.5211 52.2411 25.9211 52.3411 24.2211 52.4411C22.5211 52.5411 21.0211 52.8411 19.3211 53.1411C17.6211 53.4411 16.0211 53.8411 14.2211 54.4411C12.4211 55.0411 10.7211 55.6411 9.02109 56.4411C7.32109 57.2411 5.42109 58.1411 3.62109 59.2411V54.2411C3.62109 54.2411 3.62109 49.6014 3.62109 48.1014V43.1014C5.42109 42.0014 7.32109 41.0014 9.02109 40.3014C10.8211 39.5014 12.5211 38.9014 14.2211 38.3014C15.9211 37.7014 17.6211 37.4014 19.3211 37.0014C21.0211 36.7014 22.6211 36.5014 24.2211 36.3014C25.8211 36.2014 27.4211 36.1014 29.0211 36.1014C30.6211 36.1014 32.1211 36.2014 33.6211 36.3014C35.1211 36.4014 36.6211 36.6014 38.1211 36.8014C39.6211 37.0014 41.1211 37.2014 42.5211 37.5014C43.9211 37.8014 45.4211 38.1014 46.8211 38.4014C48.2211 38.7014 49.6211 39.1014 51.0211 39.5014C52.4211 39.9014 53.8211 40.3014 55.2211 40.7014C56.6211 41.1014 58.0211 41.5014 59.4211 41.9014C60.8211 42.3014 62.2211 42.7014 63.6211 43.1014C65.0211 43.5014 66.4211 43.9014 67.8211 44.3014C69.2211 44.7014 70.6211 45.1014 72.0211 45.5014C73.4211 45.9014 74.8211 46.3014 76.2211 46.7014C77.6211 47.1014 79.0211 47.4014 80.4211 47.8014C81.8211 48.1014 83.3211 48.4014 84.7211 48.7014C86.1211 49.0014 87.6211 49.2014 89.1211 49.4014C90.6211 49.6014 92.1211 49.8014 93.6211 49.9014C95.1211 50.0014 96.7211 50.1014 98.2211 50.1014C99.7211 50.1014 101.321 50.0014 103.021 49.9014C104.721 49.8014 106.221 49.5014 107.921 49.2014C109.621 48.9014 111.221 48.5014 113.021 47.9014C114.821 47.3014 116.521 46.7014 118.221 45.9014C119.921 45.1014 121.821 44.2014 123.621 43.1014V48.1014V54.2411C123.621 54.2411 123.621 57.3411 123.621 59.2411Z" fill="#FFB800" style="fill:#FFB800;fill:color(display-p3 1.0000 0.7200 0.0000);fill-opacity:1;"/>
<path d="M123.621 68.1014C121.821 69.2014 119.921 70.2014 118.221 70.9014C116.421 71.7014 114.721 72.3014 113.021 72.9014C111.321 73.5014 109.621 73.8014 107.921 74.2014C106.221 74.6014 104.621 74.7014 103.021 74.9014C101.421 75.0014 99.8211 75.1014 98.2211 75.1014C96.6211 75.1014 95.1211 75.0014 93.6211 74.9014C92.1211 74.8014 90.6211 74.6014 89.1211 74.4014C87.6211 74.2014 86.2211 74.0014 84.7211 73.7014C83.2211 73.4014 81.8211 73.1014 80.4211 72.8014C79.0211 72.5014 77.6211 72.1014 76.2211 71.7014C74.8211 71.3014 73.4211 70.9014 72.0211 70.5014C70.6211 70.1014 69.2211 69.7014 67.8211 69.3014C66.4211 68.9014 65.0211 68.5014 63.6211 68.1014C62.2211 67.7014 60.8211 67.3014 59.4211 66.9014C58.0211 66.5014 56.6211 66.1014 55.2211 65.7014C53.8211 65.3014 52.4211 64.9014 51.0211 64.5014C49.6211 64.1014 48.2211 63.8014 46.8211 63.4014C45.4211 63.0014 43.9211 62.8014 42.5211 62.5014C41.0211 62.2014 39.6211 62.0014 38.1211 61.8014C36.6211 61.6014 35.1211 61.4014 33.6211 61.3014C32.1211 61.2014 30.5211 61.1014 29.0211 61.1014C27.5211 61.1014 25.9211 61.2014 24.2211 61.3014C22.5211 61.4014 21.0211 61.7014 19.3211 62.0014C17.6211 62.3014 16.0211 62.7014 14.2211 63.3014C12.4211 63.9014 10.7211 64.5014 9.02109 65.3014C7.32109 66.1014 5.42109 67.0014 3.62109 68.1014V63.1014C3.62109 63.1014 3.62109 58.4618 3.62109 56.9618V51.9618C5.42109 50.8618 7.32109 49.8618 9.02109 49.1618C10.8211 48.3618 12.5211 47.7618 14.2211 47.1618C15.9211 46.5618 17.6211 46.2618 19.3211 45.8618C21.0211 45.5618 22.6211 45.3618 24.2211 45.1618C25.8211 45.0618 27.4211 44.9618 29.0211 44.9618C30.6211 44.9618 32.1211 45.0618 33.6211 45.1618C35.1211 45.2618 36.6211 45.4618 38.1211 45.6618C39.6211 45.8618 41.1211 46.0618 42.5211 46.3618C43.9211 46.6618 45.4211 46.9618 46.8211 47.2618C48.2211 47.5618 49.6211 47.9618 51.0211 48.3618C52.4211 48.7618 53.8211 49.1618 55.2211 49.5618C56.6211 49.9618 58.0211 50.3618 59.4211 50.7618C60.8211 51.1618 62.2211 51.5618 63.6211 51.9618C65.0211 52.3618 66.4211 52.7618 67.8211 53.1618C69.2211 53.5618 70.6211 53.9618 72.0211 54.3618C73.4211 54.7618 74.8211 55.1618 76.2211 55.5618C77.6211 55.9618 79.0211 56.2618 80.4211 56.6618C81.8211 56.9618 83.3211 57.2618 84.7211 57.5618C86.1211 57.8618 87.6211 58.0618 89.1211 58.2618C90.6211 58.4618 92.1211 58.6618 93.6211 58.7618C95.1211 58.8618 96.7211 58.9618 98.2211 58.9618C99.7211 58.9618 101.321 58.8618 103.021 58.7618C104.721 58.6618 106.221 58.3618 107.921 58.0618C109.621 57.7618 111.221 57.3618 113.021 56.7618C114.821 56.1618 116.521 55.5618 118.221 54.7618C119.921 53.9618 121.821 53.0618 123.621 51.9618V56.9618V63.1014C123.621 63.1014 123.621 66.2014 123.621 68.1014Z" fill="#F3473B" style="fill:#F3473B;fill:color(display-p3 0.9529 0.2784 0.2314);fill-opacity:1;"/>
<path d="M123.621 68.1014C121.821 69.2014 119.921 70.2014 118.221 70.9014C116.421 71.7014 114.721 72.3014 113.021 72.9014C111.321 73.5014 109.621 73.8014 107.921 74.2014C106.221 74.6014 104.621 74.7014 103.021 74.9014C101.421 75.0014 99.8211 75.1014 98.2211 75.1014C96.6211 75.1014 95.1211 75.0014 93.6211 74.9014C92.1211 74.8014 90.6211 74.6014 89.1211 74.4014C87.6211 74.2014 86.2211 74.0014 84.7211 73.7014C83.2211 73.4014 81.8211 73.1014 80.4211 72.8014C79.0211 72.5014 77.6211 72.1014 76.2211 71.7014C74.8211 71.3014 73.4211 70.9014 72.0211 70.5014C70.6211 70.1014 69.2211 69.7014 67.8211 69.3014C66.4211 68.9014 65.0211 68.5014 63.6211 68.1014C62.2211 67.7014 60.8211 67.3014 59.4211 66.9014C58.0211 66.5014 56.6211 66.1014 55.2211 65.7014C53.8211 65.3014 52.4211 64.9014 51.0211 64.5014C49.6211 64.1014 48.2211 63.8014 46.8211 63.4014C45.4211 63.0014 43.9211 62.8014 42.5211 62.5014C41.0211 62.2014 39.6211 62.0014 38.1211 61.8014C36.6211 61.6014 35.1211 61.4014 33.6211 61.3014C32.1211 61.2014 30.5211 61.1014 29.0211 61.1014C27.5211 61.1014 25.9211 61.2014 24.2211 61.3014C22.5211 61.4014 21.0211 61.7014 19.3211 62.0014C17.6211 62.3014 16.0211 62.7014 14.2211 63.3014C12.4211 63.9014 10.7211 64.5014 9.02109 65.3014C7.32109 66.1014 5.42109 67.0014 3.62109 68.1014V63.1014C3.62109 63.1014 3.62109 58.4618 3.62109 56.9618V51.9618C5.42109 50.8618 7.32109 49.8618 9.02109 49.1618C10.8211 48.3618 12.5211 47.7618 14.2211 47.1618C15.9211 46.5618 17.6211 46.2618 19.3211 45.8618C21.0211 45.5618 22.6211 45.3618 24.2211 45.1618C25.8211 45.0618 27.4211 44.9618 29.0211 44.9618C30.6211 44.9618 32.1211 45.0618 33.6211 45.1618C35.1211 45.2618 36.6211 45.4618 38.1211 45.6618C39.6211 45.8618 41.1211 46.0618 42.5211 46.3618C43.9211 46.6618 45.4211 46.9618 46.8211 47.2618C48.2211 47.5618 49.6211 47.9618 51.0211 48.3618C52.4211 48.7618 53.8211 49.1618 55.2211 49.5618C56.6211 49.9618 58.0211 50.3618 59.4211 50.7618C60.8211 51.1618 62.2211 51.5618 63.6211 51.9618C65.0211 52.3618 66.4211 52.7618 67.8211 53.1618C69.2211 53.5618 70.6211 53.9618 72.0211 54.3618C73.4211 54.7618 74.8211 55.1618 76.2211 55.5618C77.6211 55.9618 79.0211 56.2618 80.4211 56.6618C81.8211 56.9618 83.3211 57.2618 84.7211 57.5618C86.1211 57.8618 87.6211 58.0618 89.1211 58.2618C90.6211 58.4618 92.1211 58.6618 93.6211 58.7618C95.1211 58.8618 96.7211 58.9618 98.2211 58.9618C99.7211 58.9618 101.321 58.8618 103.021 58.7618C104.721 58.6618 106.221 58.3618 107.921 58.0618C109.621 57.7618 111.221 57.3618 113.021 56.7618C114.821 56.1618 116.521 55.5618 118.221 54.7618C119.921 53.9618 121.821 53.0618 123.621 51.9618V56.9618V63.1014C123.621 63.1014 123.621 66.2014 123.621 68.1014Z" fill="#FFB800" style="fill:#FFB800;fill:color(display-p3 1.0000 0.7200 0.0000);fill-opacity:1;"/>
<path d="M123.621 68.1014C121.821 69.2014 119.921 70.2014 118.221 70.9014C116.421 71.7014 114.721 72.3014 113.021 72.9014C111.321 73.5014 109.621 73.8014 107.921 74.2014C106.221 74.6014 104.621 74.7014 103.021 74.9014C101.421 75.0014 99.8211 75.1014 98.2211 75.1014C96.6211 75.1014 95.1211 75.0014 93.6211 74.9014C92.1211 74.8014 90.6211 74.6014 89.1211 74.4014C87.6211 74.2014 86.2211 74.0014 84.7211 73.7014C83.2211 73.4014 81.8211 73.1014 80.4211 72.8014C79.0211 72.5014 77.6211 72.1014 76.2211 71.7014C74.8211 71.3014 73.4211 70.9014 72.0211 70.5014C70.6211 70.1014 69.2211 69.7014 67.8211 69.3014C66.4211 68.9014 65.0211 68.5014 63.6211 68.1014C62.2211 67.7014 60.8211 67.3014 59.4211 66.9014C58.0211 66.5014 56.6211 66.1014 55.2211 65.7014C53.8211 65.3014 52.4211 64.9014 51.0211 64.5014C49.6211 64.1014 48.2211 63.8014 46.8211 63.4014C45.4211 63.0014 43.9211 62.8014 42.5211 62.5014C41.0211 62.2014 39.6211 62.0014 38.1211 61.8014C36.6211 61.6014 35.1211 61.4014 33.6211 61.3014C32.1211 61.2014 30.5211 61.1014 29.0211 61.1014C27.5211 61.1014 25.9211 61.2014 24.2211 61.3014C22.5211 61.4014 21.0211 61.7014 19.3211 62.0014C17.6211 62.3014 16.0211 62.7014 14.2211 63.3014C12.4211 63.9014 10.7211 64.5014 9.02109 65.3014C7.32109 66.1014 5.42109 67.0014 3.62109 68.1014V63.1014C3.62109 63.1014 3.62109 58.4618 3.62109 56.9618V51.9618C5.42109 50.8618 7.32109 49.8618 9.02109 49.1618C10.8211 48.3618 12.5211 47.7618 14.2211 47.1618C15.9211 46.5618 17.6211 46.2618 19.3211 45.8618C21.0211 45.5618 22.6211 45.3618 24.2211 45.1618C25.8211 45.0618 27.4211 44.9618 29.0211 44.9618C30.6211 44.9618 32.1211 45.0618 33.6211 45.1618C35.1211 45.2618 36.6211 45.4618 38.1211 45.6618C39.6211 45.8618 41.1211 46.0618 42.5211 46.3618C43.9211 46.6618 45.4211 46.9618 46.8211 47.2618C48.2211 47.5618 49.6211 47.9618 51.0211 48.3618C52.4211 48.7618 53.8211 49.1618 55.2211 49.5618C56.6211 49.9618 58.0211 50.3618 59.4211 50.7618C60.8211 51.1618 62.2211 51.5618 63.6211 51.9618C65.0211 52.3618 66.4211 52.7618 67.8211 53.1618C69.2211 53.5618 70.6211 53.9618 72.0211 54.3618C73.4211 54.7618 74.8211 55.1618 76.2211 55.5618C77.6211 55.9618 79.0211 56.2618 80.4211 56.6618C81.8211 56.9618 83.3211 57.2618 84.7211 57.5618C86.1211 57.8618 87.6211 58.0618 89.1211 58.2618C90.6211 58.4618 92.1211 58.6618 93.6211 58.7618C95.1211 58.8618 96.7211 58.9618 98.2211 58.9618C99.7211 58.9618 101.321 58.8618 103.021 58.7618C104.721 58.6618 106.221 58.3618 107.921 58.0618C109.621 57.7618 111.221 57.3618 113.021 56.7618C114.821 56.1618 116.521 55.5618 118.221 54.7618C119.921 53.9618 121.821 53.0618 123.621 51.9618V56.9618V63.1014C123.621 63.1014 123.621 66.2014 123.621 68.1014Z" fill="#F3473B" style="fill:#F3473B;fill:color(display-p3 0.9529 0.2784 0.2314);fill-opacity:1;"/>
<path d="M123.621 76.9618C121.821 78.0618 119.921 79.0618 118.221 79.7618C116.421 80.5618 114.721 81.1618 113.021 81.7618C111.321 82.3618 109.621 82.6618 107.921 83.0618C106.221 83.4618 104.621 83.5618 103.021 83.7618C101.421 83.8618 99.8211 83.9618 98.2211 83.9618C96.6211 83.9618 95.1211 83.8618 93.6211 83.7618C92.1211 83.6618 90.6211 83.4618 89.1211 83.2618C87.6211 83.0618 86.2211 82.8618 84.7211 82.5618C83.2211 82.2618 81.8211 81.9618 80.4211 81.6618C79.0211 81.3618 77.6211 80.9618 76.2211 80.5618C74.8211 80.1618 73.4211 79.7618 72.0211 79.3618C70.6211 78.9618 69.2211 78.5618 67.8211 78.1618C66.4211 77.7618 65.0211 77.3618 63.6211 76.9618C62.2211 76.5618 60.8211 76.1618 59.4211 75.7618C58.0211 75.3618 56.6211 74.9618 55.2211 74.5618C53.8211 74.1618 52.4211 73.7618 51.0211 73.3618C49.6211 72.9618 48.2211 72.6618 46.8211 72.2618C45.4211 71.8618 43.9211 71.6618 42.5211 71.3618C41.0211 71.0618 39.6211 70.8618 38.1211 70.6618C36.6211 70.4618 35.1211 70.2618 33.6211 70.1618C32.1211 70.0618 30.5211 69.9618 29.0211 69.9618C27.5211 69.9618 25.9211 70.0618 24.2211 70.1618C22.5211 70.2618 21.0211 70.5618 19.3211 70.8618C17.6211 71.1618 16.0211 71.5618 14.2211 72.1618C12.4211 72.7618 10.7211 73.3618 9.02109 74.1618C7.32109 74.9618 5.42109 75.8618 3.62109 76.9618V71.9618C3.62109 71.9618 3.62109 67.3221 3.62109 65.8221V60.8221C5.42109 59.7221 7.32109 58.7221 9.02109 58.0221C10.8211 57.2221 12.5211 56.6221 14.2211 56.0221C15.9211 55.4221 17.6211 55.1221 19.3211 54.7221C21.0211 54.4221 22.6211 54.2221 24.2211 54.0221C25.8211 53.9221 27.4211 53.8221 29.0211 53.8221C30.6211 53.8221 32.1211 53.9221 33.6211 54.0221C35.1211 54.1221 36.6211 54.3221 38.1211 54.5221C39.6211 54.7221 41.1211 54.9221 42.5211 55.2221C43.9211 55.5221 45.4211 55.8221 46.8211 56.1221C48.2211 56.4221 49.6211 56.8221 51.0211 57.2221C52.4211 57.6221 53.8211 58.0221 55.2211 58.4221C56.6211 58.8221 58.0211 59.2221 59.4211 59.6221C60.8211 60.0221 62.2211 60.4221 63.6211 60.8221C65.0211 61.2221 66.4211 61.6221 67.8211 62.0221C69.2211 62.4221 70.6211 62.8221 72.0211 63.2221C73.4211 63.6221 74.8211 64.0221 76.2211 64.4221C77.6211 64.8221 79.0211 65.1221 80.4211 65.5221C81.8211 65.8221 83.3211 66.1221 84.7211 66.4221C86.1211 66.7221 87.6211 66.9221 89.1211 67.1221C90.6211 67.3221 92.1211 67.5221 93.6211 67.6221C95.1211 67.7221 96.7211 67.8221 98.2211 67.8221C99.7211 67.8221 101.321 67.7221 103.021 67.6221C104.721 67.5221 106.221 67.2221 107.921 66.9221C109.621 66.6221 111.221 66.2221 113.021 65.6221C114.821 65.0221 116.521 64.4221 118.221 63.6221C119.921 62.8221 121.821 61.9221 123.621 60.8221V65.8221V71.9618C123.621 71.9618 123.621 75.0618 123.621 76.9618Z" fill="#F3473B" style="fill:#F3473B;fill:color(display-p3 0.9529 0.2784 0.2314);fill-opacity:1;"/>
<path d="M123.621 76.9618C121.821 78.0618 119.921 79.0618 118.221 79.7618C116.421 80.5618 114.721 81.1618 113.021 81.7618C111.321 82.3618 109.621 82.6618 107.921 83.0618C106.221 83.4618 104.621 83.5618 103.021 83.7618C101.421 83.8618 99.8211 83.9618 98.2211 83.9618C96.6211 83.9618 95.1211 83.8618 93.6211 83.7618C92.1211 83.6618 90.6211 83.4618 89.1211 83.2618C87.6211 83.0618 86.2211 82.8618 84.7211 82.5618C83.2211 82.2618 81.8211 81.9618 80.4211 81.6618C79.0211 81.3618 77.6211 80.9618 76.2211 80.5618C74.8211 80.1618 73.4211 79.7618 72.0211 79.3618C70.6211 78.9618 69.2211 78.5618 67.8211 78.1618C66.4211 77.7618 65.0211 77.3618 63.6211 76.9618C62.2211 76.5618 60.8211 76.1618 59.4211 75.7618C58.0211 75.3618 56.6211 74.9618 55.2211 74.5618C53.8211 74.1618 52.4211 73.7618 51.0211 73.3618C49.6211 72.9618 48.2211 72.6618 46.8211 72.2618C45.4211 71.8618 43.9211 71.6618 42.5211 71.3618C41.0211 71.0618 39.6211 70.8618 38.1211 70.6618C36.6211 70.4618 35.1211 70.2618 33.6211 70.1618C32.1211 70.0618 30.5211 69.9618 29.0211 69.9618C27.5211 69.9618 25.9211 70.0618 24.2211 70.1618C22.5211 70.2618 21.0211 70.5618 19.3211 70.8618C17.6211 71.1618 16.0211 71.5618 14.2211 72.1618C12.4211 72.7618 10.7211 73.3618 9.02109 74.1618C7.32109 74.9618 5.42109 75.8618 3.62109 76.9618V71.9618C3.62109 71.9618 3.62109 67.3221 3.62109 65.8221V60.8221C5.42109 59.7221 7.32109 58.7221 9.02109 58.0221C10.8211 57.2221 12.5211 56.6221 14.2211 56.0221C15.9211 55.4221 17.6211 55.1221 19.3211 54.7221C21.0211 54.4221 22.6211 54.2221 24.2211 54.0221C25.8211 53.9221 27.4211 53.8221 29.0211 53.8221C30.6211 53.8221 32.1211 53.9221 33.6211 54.0221C35.1211 54.1221 36.6211 54.3221 38.1211 54.5221C39.6211 54.7221 41.1211 54.9221 42.5211 55.2221C43.9211 55.5221 45.4211 55.8221 46.8211 56.1221C48.2211 56.4221 49.6211 56.8221 51.0211 57.2221C52.4211 57.6221 53.8211 58.0221 55.2211 58.4221C56.6211 58.8221 58.0211 59.2221 59.4211 59.6221C60.8211 60.0221 62.2211 60.4221 63.6211 60.8221C65.0211 61.2221 66.4211 61.6221 67.8211 62.0221C69.2211 62.4221 70.6211 62.8221 72.0211 63.2221C73.4211 63.6221 74.8211 64.0221 76.2211 64.4221C77.6211 64.8221 79.0211 65.1221 80.4211 65.5221C81.8211 65.8221 83.3211 66.1221 84.7211 66.4221C86.1211 66.7221 87.6211 66.9221 89.1211 67.1221C90.6211 67.3221 92.1211 67.5221 93.6211 67.6221C95.1211 67.7221 96.7211 67.8221 98.2211 67.8221C99.7211 67.8221 101.321 67.7221 103.021 67.6221C104.721 67.5221 106.221 67.2221 107.921 66.9221C109.621 66.6221 111.221 66.2221 113.021 65.6221C114.821 65.0221 116.521 64.4221 118.221 63.6221C119.921 62.8221 121.821 61.9221 123.621 60.8221V65.8221V71.9618C123.621 71.9618 123.621 75.0618 123.621 76.9618Z" fill="#FFB800" style="fill:#FFB800;fill:color(display-p3 1.0000 0.7200 0.0000);fill-opacity:1;"/>
<path d="M123.621 85.8221C121.821 86.9221 119.921 87.9221 118.221 88.6221C116.421 89.4221 114.721 90.0221 113.021 90.6221C111.321 91.2221 109.621 91.5221 107.921 91.9221C106.221 92.3221 104.621 92.4221 103.021 92.6221C101.421 92.7221 99.8211 92.8221 98.2211 92.8221C96.6211 92.8221 95.1211 92.7221 93.6211 92.6221C92.1211 92.5221 90.6211 92.3221 89.1211 92.1221C87.6211 91.9221 86.2211 91.7221 84.7211 91.4221C83.2211 91.1221 81.8211 90.8221 80.4211 90.5221C79.0211 90.2221 77.6211 89.8221 76.2211 89.4221C74.8211 89.0221 73.4211 88.6221 72.0211 88.2221C70.6211 87.8221 69.2211 87.4221 67.8211 87.0221C66.4211 86.6221 65.0211 86.2221 63.6211 85.8221C62.2211 85.4221 60.8211 85.0221 59.4211 84.6221C58.0211 84.2221 56.6211 83.8221 55.2211 83.4221C53.8211 83.0221 52.4211 82.6221 51.0211 82.2221C49.6211 81.8221 48.2211 81.5221 46.8211 81.1221C45.4211 80.7221 43.9211 80.5221 42.5211 80.2221C41.0211 79.9221 39.6211 79.7221 38.1211 79.5221C36.6211 79.3221 35.1211 79.1221 33.6211 79.0221C32.1211 78.9221 30.5211 78.8221 29.0211 78.8221C27.5211 78.8221 25.9211 78.9221 24.2211 79.0221C22.5211 79.1221 21.0211 79.4221 19.3211 79.7221C17.6211 80.0221 16.0211 80.4221 14.2211 81.0221C12.4211 81.6221 10.7211 82.2221 9.02109 83.0221C7.32109 83.8221 5.42109 84.7221 3.62109 85.8221V80.8221C3.62109 80.8221 3.62109 76.1825 3.62109 74.6825V69.6825C5.42109 68.5825 7.32109 67.5825 9.02109 66.8825C10.8211 66.0825 12.5211 65.4825 14.2211 64.8825C15.9211 64.2825 17.6211 63.9825 19.3211 63.5825C21.0211 63.2825 22.6211 63.0825 24.2211 62.8825C25.8211 62.7825 27.4211 62.6825 29.0211 62.6825C30.6211 62.6825 32.1211 62.7825 33.6211 62.8825C35.1211 62.9825 36.6211 63.1825 38.1211 63.3825C39.6211 63.5825 41.1211 63.7825 42.5211 64.0825C43.9211 64.3825 45.4211 64.6825 46.8211 64.9825C48.2211 65.2825 49.6211 65.6825 51.0211 66.0825C52.4211 66.4825 53.8211 66.8825 55.2211 67.2825C56.6211 67.6825 58.0211 68.0825 59.4211 68.4825C60.8211 68.8825 62.2211 69.2825 63.6211 69.6825C65.0211 70.0825 66.4211 70.4825 67.8211 70.8825C69.2211 71.2825 70.6211 71.6825 72.0211 72.0825C73.4211 72.4825 74.8211 72.8825 76.2211 73.2825C77.6211 73.6825 79.0211 73.9825 80.4211 74.3825C81.8211 74.6825 83.3211 74.9825 84.7211 75.2825C86.1211 75.5825 87.6211 75.7825 89.1211 75.9825C90.6211 76.1825 92.1211 76.3825 93.6211 76.4825C95.1211 76.5825 96.7211 76.6825 98.2211 76.6825C99.7211 76.6825 101.321 76.5825 103.021 76.4825C104.721 76.3825 106.221 76.0825 107.921 75.7825C109.621 75.4825 111.221 75.0825 113.021 74.4825C114.821 73.8825 116.521 73.2825 118.221 72.4825C119.921 71.6825 121.821 70.7825 123.621 69.6825V74.6825V80.8221C123.621 80.8221 123.621 83.9221 123.621 85.8221Z" fill="#F3473B" style="fill:#F3473B;fill:color(display-p3 0.9529 0.2784 0.2314);fill-opacity:1;"/>
<path d="M123.621 94.6825C121.821 95.7825 119.921 96.7825 118.221 97.4825C116.421 98.2825 114.721 98.8825 113.021 99.4825C111.321 100.082 109.621 100.382 107.921 100.782C106.221 101.182 104.621 101.282 103.021 101.482C101.421 101.582 99.8211 101.683 98.2211 101.683C96.6211 101.683 95.1211 101.582 93.6211 101.482C92.1211 101.382 90.6211 101.182 89.1211 100.982C87.6211 100.782 86.2211 100.582 84.7211 100.282C83.2211 99.9825 81.8211 99.6825 80.4211 99.3825C79.0211 99.0825 77.6211 98.6825 76.2211 98.2825C74.8211 97.8825 73.4211 97.4825 72.0211 97.0825C70.6211 96.6825 69.2211 96.2825 67.8211 95.8825C66.4211 95.4825 65.0211 95.0825 63.6211 94.6825C62.2211 94.2825 60.8211 93.8825 59.4211 93.4825C58.0211 93.0825 56.6211 92.6825 55.2211 92.2825C53.8211 91.8825 52.4211 91.4825 51.0211 91.0825C49.6211 90.6825 48.2211 90.3825 46.8211 89.9825C45.4211 89.5825 43.9211 89.3825 42.5211 89.0825C41.0211 88.7825 39.6211 88.5825 38.1211 88.3825C36.6211 88.1825 35.1211 87.9825 33.6211 87.8825C32.1211 87.7825 30.5211 87.6825 29.0211 87.6825C27.5211 87.6825 25.9211 87.7825 24.2211 87.8825C22.5211 87.9825 21.0211 88.2825 19.3211 88.5825C17.6211 88.8825 16.0211 89.2825 14.2211 89.8825C12.4211 90.4825 10.7211 91.0825 9.02109 91.8825C7.32109 92.6825 5.42109 93.5825 3.62109 94.6825V89.6825C3.62109 89.6825 3.62109 85.0428 3.62109 83.5428V78.5428C5.42109 77.4428 7.32109 76.4428 9.02109 75.7428C10.8211 74.9428 12.5211 74.3428 14.2211 73.7428C15.9211 73.1428 17.6211 72.8428 19.3211 72.4428C21.0211 72.1428 22.6211 71.9428 24.2211 71.7428C25.8211 71.6428 27.4211 71.5428 29.0211 71.5428C30.6211 71.5428 32.1211 71.6428 33.6211 71.7428C35.1211 71.8428 36.6211 72.0428 38.1211 72.2428C39.6211 72.4428 41.1211 72.6428 42.5211 72.9428C43.9211 73.2428 45.4211 73.5428 46.8211 73.8428C48.2211 74.1428 49.6211 74.5428 51.0211 74.9428C52.4211 75.3428 53.8211 75.7428 55.2211 76.1428C56.6211 76.5428 58.0211 76.9428 59.4211 77.3428C60.8211 77.7428 62.2211 78.1428 63.6211 78.5428C65.0211 78.9428 66.4211 79.3428 67.8211 79.7428C69.2211 80.1428 70.6211 80.5428 72.0211 80.9428C73.4211 81.3428 74.8211 81.7428 76.2211 82.1428C77.6211 82.5428 79.0211 82.8428 80.4211 83.2428C81.8211 83.5428 83.3211 83.8428 84.7211 84.1428C86.1211 84.4428 87.6211 84.6428 89.1211 84.8428C90.6211 85.0428 92.1211 85.2428 93.6211 85.3428C95.1211 85.4428 96.7211 85.5428 98.2211 85.5428C99.7211 85.5428 101.321 85.4428 103.021 85.3428C104.721 85.2428 106.221 84.9428 107.921 84.6428C109.621 84.3428 111.221 83.9428 113.021 83.3428C114.821 82.7428 116.521 82.1428 118.221 81.3428C119.921 80.5428 121.821 79.6428 123.621 78.5428V83.5428V89.6825C123.621 89.6825 123.621 92.7825 123.621 94.6825Z" fill="#F3473B" style="fill:#F3473B;fill:color(display-p3 0.9529 0.2784 0.2314);fill-opacity:1;"/>
<path d="M123.621 94.6825C121.821 95.7825 119.921 96.7825 118.221 97.4825C116.421 98.2825 114.721 98.8825 113.021 99.4825C111.321 100.082 109.621 100.382 107.921 100.782C106.221 101.182 104.621 101.282 103.021 101.482C101.421 101.582 99.8211 101.683 98.2211 101.683C96.6211 101.683 95.1211 101.582 93.6211 101.482C92.1211 101.382 90.6211 101.182 89.1211 100.982C87.6211 100.782 86.2211 100.582 84.7211 100.282C83.2211 99.9825 81.8211 99.6825 80.4211 99.3825C79.0211 99.0825 77.6211 98.6825 76.2211 98.2825C74.8211 97.8825 73.4211 97.4825 72.0211 97.0825C70.6211 96.6825 69.2211 96.2825 67.8211 95.8825C66.4211 95.4825 65.0211 95.0825 63.6211 94.6825C62.2211 94.2825 60.8211 93.8825 59.4211 93.4825C58.0211 93.0825 56.6211 92.6825 55.2211 92.2825C53.8211 91.8825 52.4211 91.4825 51.0211 91.0825C49.6211 90.6825 48.2211 90.3825 46.8211 89.9825C45.4211 89.5825 43.9211 89.3825 42.5211 89.0825C41.0211 88.7825 39.6211 88.5825 38.1211 88.3825C36.6211 88.1825 35.1211 87.9825 33.6211 87.8825C32.1211 87.7825 30.5211 87.6825 29.0211 87.6825C27.5211 87.6825 25.9211 87.7825 24.2211 87.8825C22.5211 87.9825 21.0211 88.2825 19.3211 88.5825C17.6211 88.8825 16.0211 89.2825 14.2211 89.8825C12.4211 90.4825 10.7211 91.0825 9.02109 91.8825C7.32109 92.6825 5.42109 93.5825 3.62109 94.6825V89.6825C3.62109 89.6825 3.62109 85.0428 3.62109 83.5428V78.5428C5.42109 77.4428 7.32109 76.4428 9.02109 75.7428C10.8211 74.9428 12.5211 74.3428 14.2211 73.7428C15.9211 73.1428 17.6211 72.8428 19.3211 72.4428C21.0211 72.1428 22.6211 71.9428 24.2211 71.7428C25.8211 71.6428 27.4211 71.5428 29.0211 71.5428C30.6211 71.5428 32.1211 71.6428 33.6211 71.7428C35.1211 71.8428 36.6211 72.0428 38.1211 72.2428C39.6211 72.4428 41.1211 72.6428 42.5211 72.9428C43.9211 73.2428 45.4211 73.5428 46.8211 73.8428C48.2211 74.1428 49.6211 74.5428 51.0211 74.9428C52.4211 75.3428 53.8211 75.7428 55.2211 76.1428C56.6211 76.5428 58.0211 76.9428 59.4211 77.3428C60.8211 77.7428 62.2211 78.1428 63.6211 78.5428C65.0211 78.9428 66.4211 79.3428 67.8211 79.7428C69.2211 80.1428 70.6211 80.5428 72.0211 80.9428C73.4211 81.3428 74.8211 81.7428 76.2211 82.1428C77.6211 82.5428 79.0211 82.8428 80.4211 83.2428C81.8211 83.5428 83.3211 83.8428 84.7211 84.1428C86.1211 84.4428 87.6211 84.6428 89.1211 84.8428C90.6211 85.0428 92.1211 85.2428 93.6211 85.3428C95.1211 85.4428 96.7211 85.5428 98.2211 85.5428C99.7211 85.5428 101.321 85.4428 103.021 85.3428C104.721 85.2428 106.221 84.9428 107.921 84.6428C109.621 84.3428 111.221 83.9428 113.021 83.3428C114.821 82.7428 116.521 82.1428 118.221 81.3428C119.921 80.5428 121.821 79.6428 123.621 78.5428V83.5428V89.6825C123.621 89.6825 123.621 92.7825 123.621 94.6825Z" fill="#FFB800" style="fill:#FFB800;fill:color(display-p3 1.0000 0.7200 0.0000);fill-opacity:1;"/>
<path d="M123.621 103.543C121.821 104.643 119.921 105.643 118.221 106.343C116.421 107.143 114.721 107.743 113.021 108.343C111.321 108.943 109.621 109.243 107.921 109.643C106.221 110.043 104.621 110.143 103.021 110.343C101.421 110.443 99.8211 110.543 98.2211 110.543C96.6211 110.543 95.1211 110.443 93.6211 110.343C92.1211 110.243 90.6211 110.043 89.1211 109.843C87.6211 109.643 86.2211 109.443 84.7211 109.143C83.2211 108.843 81.8211 108.543 80.4211 108.243C79.0211 107.943 77.6211 107.543 76.2211 107.143C74.8211 106.743 73.4211 106.343 72.0211 105.943C70.6211 105.543 69.2211 105.143 67.8211 104.743C66.4211 104.343 65.0211 103.943 63.6211 103.543C62.2211 103.143 60.8211 102.743 59.4211 102.343C58.0211 101.943 56.6211 101.543 55.2211 101.143C53.8211 100.743 52.4211 100.343 51.0211 99.9428C49.6211 99.5428 48.2211 99.2428 46.8211 98.8428C45.4211 98.4428 43.9211 98.2428 42.5211 97.9428C41.0211 97.6428 39.6211 97.4429 38.1211 97.2428C36.6211 97.0428 35.1211 96.8428 33.6211 96.7428C32.1211 96.6428 30.5211 96.5429 29.0211 96.5429C27.5211 96.5429 25.9211 96.6428 24.2211 96.7428C22.5211 96.8428 21.0211 97.1428 19.3211 97.4428C17.6211 97.7428 16.0211 98.1428 14.2211 98.7428C12.4211 99.3428 10.7211 99.9429 9.02109 100.743C7.32109 101.543 5.42109 102.443 3.62109 103.543V98.5429C3.62109 98.5429 3.62109 93.9032 3.62109 92.4032V87.4032C5.42109 86.3032 7.32109 85.3032 9.02109 84.6032C10.8211 83.8032 12.5211 83.2032 14.2211 82.6032C15.9211 82.0032 17.6211 81.7032 19.3211 81.3032C21.0211 81.0032 22.6211 80.8032 24.2211 80.6032C25.8211 80.5032 27.4211 80.4032 29.0211 80.4032C30.6211 80.4032 32.1211 80.5032 33.6211 80.6032C35.1211 80.7032 36.6211 80.9032 38.1211 81.1032C39.6211 81.3032 41.1211 81.5032 42.5211 81.8032C43.9211 82.1032 45.4211 82.4032 46.8211 82.7032C48.2211 83.0032 49.6211 83.4032 51.0211 83.8032C52.4211 84.2032 53.8211 84.6032 55.2211 85.0032C56.6211 85.4032 58.0211 85.8032 59.4211 86.2032C60.8211 86.6032 62.2211 87.0032 63.6211 87.4032C65.0211 87.8032 66.4211 88.2032 67.8211 88.6032C69.2211 89.0032 70.6211 89.4032 72.0211 89.8032C73.4211 90.2032 74.8211 90.6032 76.2211 91.0032C77.6211 91.4032 79.0211 91.7032 80.4211 92.1032C81.8211 92.4032 83.3211 92.7032 84.7211 93.0032C86.1211 93.3032 87.6211 93.5032 89.1211 93.7032C90.6211 93.9032 92.1211 94.1032 93.6211 94.2032C95.1211 94.3032 96.7211 94.4032 98.2211 94.4032C99.7211 94.4032 101.321 94.3032 103.021 94.2032C104.721 94.1032 106.221 93.8032 107.921 93.5032C109.621 93.2032 111.221 92.8032 113.021 92.2032C114.821 91.6032 116.521 91.0032 118.221 90.2032C119.921 89.4032 121.821 88.5032 123.621 87.4032V92.4032V98.5429C123.621 98.5429 123.621 101.643 123.621 103.543Z" fill="#F3473B" style="fill:#F3473B;fill:color(display-p3 0.9529 0.2784 0.2314);fill-opacity:1;"/>
<path d="M123.621 108.522C121.821 109.622 119.921 110.622 118.221 111.322C116.421 112.122 114.721 112.722 113.021 113.322C111.321 113.922 109.621 114.222 107.921 114.622C106.221 115.022 104.621 115.122 103.021 115.322C101.421 115.422 99.8211 115.522 98.2211 115.522C96.6211 115.522 95.1211 115.422 93.6211 115.322C92.1211 115.222 90.6211 115.022 89.1211 114.822C87.6211 114.622 86.2211 114.422 84.7211 114.122C83.2211 113.822 81.8211 113.522 80.4211 113.222C79.0211 112.922 77.6211 112.522 76.2211 112.122C74.8211 111.722 73.4211 111.322 72.0211 110.922C70.6211 110.522 69.2211 110.122 67.8211 109.722C66.4211 109.322 65.0211 108.922 63.6211 108.522C62.2211 108.122 60.8211 107.722 59.4211 107.322C58.0211 106.922 56.6211 106.522 55.2211 106.122C53.8211 105.722 52.4211 105.322 51.0211 104.922C49.6211 104.522 48.2211 104.222 46.8211 103.822C45.4211 103.422 43.9211 103.222 42.5211 102.922C41.0211 102.622 39.6211 102.422 38.1211 102.222C36.6211 102.022 35.1211 101.822 33.6211 101.722C32.1211 101.622 30.5211 101.522 29.0211 101.522C27.5211 101.522 25.9211 101.622 24.2211 101.722C22.5211 101.822 21.0211 102.122 19.3211 102.422C17.6211 102.722 16.0211 103.122 14.2211 103.722C12.4211 104.322 10.7211 104.922 9.02109 105.722C7.32109 106.522 5.42109 107.422 3.62109 108.522V103.522C3.62109 103.522 3.62109 103.023 3.62109 101.523V96.5226C5.42109 95.4226 7.32109 94.4226 9.02109 93.7226C10.8211 92.9226 12.5211 92.3226 14.2211 91.7226C15.9211 91.1226 17.6211 90.8226 19.3211 90.4226C21.0211 90.1226 22.6211 89.9226 24.2211 89.7226C25.8211 89.6226 27.4211 89.5226 29.0211 89.5226C30.6211 89.5226 32.1211 89.6226 33.6211 89.7226C35.1211 89.8226 36.6211 90.0226 38.1211 90.2226C39.6211 90.4226 41.1211 90.6226 42.5211 90.9226C43.9211 91.2226 45.4211 91.5226 46.8211 91.8226C48.2211 92.1226 49.6211 92.5226 51.0211 92.9226C52.4211 93.3226 53.8211 93.7226 55.2211 94.1226C56.6211 94.5226 58.0211 94.9226 59.4211 95.3226C60.8211 95.7226 62.2211 96.1226 63.6211 96.5226C65.0211 96.9226 66.4211 97.3226 67.8211 97.7226C69.2211 98.1226 70.6211 98.5226 72.0211 98.9226C73.4211 99.3226 74.8211 99.7226 76.2211 100.123C77.6211 100.523 79.0211 100.823 80.4211 101.223C81.8211 101.523 83.3211 101.823 84.7211 102.123C86.1211 102.423 87.6211 102.623 89.1211 102.823C90.6211 103.023 92.1211 103.223 93.6211 103.323C95.1211 103.423 96.7211 103.523 98.2211 103.523C99.7211 103.523 101.321 103.423 103.021 103.323C104.721 103.223 106.221 102.923 107.921 102.623C109.621 102.323 111.221 101.923 113.021 101.323C114.821 100.723 116.521 100.123 118.221 99.3226C119.921 98.5226 121.821 97.6226 123.621 96.5226V101.523V103.522C123.621 103.522 123.621 106.622 123.621 108.522Z" fill="#F3473B" style="fill:#F3473B;fill:color(display-p3 0.9529 0.2784 0.2314);fill-opacity:1;"/>
<path d="M123.621 108.522C121.821 109.622 119.921 110.622 118.221 111.322C116.421 112.122 114.721 112.722 113.021 113.322C111.321 113.922 109.621 114.222 107.921 114.622C106.221 115.022 104.621 115.122 103.021 115.322C101.421 115.422 99.8211 115.522 98.2211 115.522C96.6211 115.522 95.1211 115.422 93.6211 115.322C92.1211 115.222 90.6211 115.022 89.1211 114.822C87.6211 114.622 86.2211 114.422 84.7211 114.122C83.2211 113.822 81.8211 113.522 80.4211 113.222C79.0211 112.922 77.6211 112.522 76.2211 112.122C74.8211 111.722 73.4211 111.322 72.0211 110.922C70.6211 110.522 69.2211 110.122 67.8211 109.722C66.4211 109.322 65.0211 108.922 63.6211 108.522C62.2211 108.122 60.8211 107.722 59.4211 107.322C58.0211 106.922 56.6211 106.522 55.2211 106.122C53.8211 105.722 52.4211 105.322 51.0211 104.922C49.6211 104.522 48.2211 104.222 46.8211 103.822C45.4211 103.422 43.9211 103.222 42.5211 102.922C41.0211 102.622 39.6211 102.422 38.1211 102.222C36.6211 102.022 35.1211 101.822 33.6211 101.722C32.1211 101.622 30.5211 101.522 29.0211 101.522C27.5211 101.522 25.9211 101.622 24.2211 101.722C22.5211 101.822 21.0211 102.122 19.3211 102.422C17.6211 102.722 16.0211 103.122 14.2211 103.722C12.4211 104.322 10.7211 104.922 9.02109 105.722C7.32109 106.522 5.42109 107.422 3.62109 108.522V103.522C3.62109 103.522 3.62109 103.023 3.62109 101.523V96.5226C5.42109 95.4226 7.32109 94.4226 9.02109 93.7226C10.8211 92.9226 12.5211 92.3226 14.2211 91.7226C15.9211 91.1226 17.6211 90.8226 19.3211 90.4226C21.0211 90.1226 22.6211 89.9226 24.2211 89.7226C25.8211 89.6226 27.4211 89.5226 29.0211 89.5226C30.6211 89.5226 32.1211 89.6226 33.6211 89.7226C35.1211 89.8226 36.6211 90.0226 38.1211 90.2226C39.6211 90.4226 41.1211 90.6226 42.5211 90.9226C43.9211 91.2226 45.4211 91.5226 46.8211 91.8226C48.2211 92.1226 49.6211 92.5226 51.0211 92.9226C52.4211 93.3226 53.8211 93.7226 55.2211 94.1226C56.6211 94.5226 58.0211 94.9226 59.4211 95.3226C60.8211 95.7226 62.2211 96.1226 63.6211 96.5226C65.0211 96.9226 66.4211 97.3226 67.8211 97.7226C69.2211 98.1226 70.6211 98.5226 72.0211 98.9226C73.4211 99.3226 74.8211 99.7226 76.2211 100.123C77.6211 100.523 79.0211 100.823 80.4211 101.223C81.8211 101.523 83.3211 101.823 84.7211 102.123C86.1211 102.423 87.6211 102.623 89.1211 102.823C90.6211 103.023 92.1211 103.223 93.6211 103.323C95.1211 103.423 96.7211 103.523 98.2211 103.523C99.7211 103.523 101.321 103.423 103.021 103.323C104.721 103.223 106.221 102.923 107.921 102.623C109.621 102.323 111.221 101.923 113.021 101.323C114.821 100.723 116.521 100.123 118.221 99.3226C119.921 98.5226 121.821 97.6226 123.621 96.5226V101.523V103.522C123.621 103.522 123.621 106.622 123.621 108.522Z" fill="#FFB800" style="fill:#FFB800;fill:color(display-p3 1.0000 0.7200 0.0000);fill-opacity:1;"/>
<path opacity="0.3" d="M124 107.7C122.15 108.82 120.34 109.76 118.57 110.55C116.79 111.35 115.05 112 113.33 112.53C111.61 113.06 109.93 113.48 108.27 113.79C106.61 114.11 104.98 114.33 103.38 114.47C101.77 114.61 100.19 114.67 98.63 114.67C97.07 114.67 95.53 114.61 94.01 114.49C92.49 114.38 90.99 114.21 89.51 114.01C88.03 113.8 86.56 113.56 85.11 113.28C83.66 113 82.22 112.7 80.79 112.37C79.36 112.04 77.94 111.69 76.54 111.32C75.14 110.95 73.73 110.56 72.33 110.17C70.93 109.77 69.54 109.36 68.16 108.95C66.77 108.54 65.39 108.12 64 107.7C62.62 107.28 61.23 106.86 59.84 106.45C58.45 106.04 57.06 105.63 55.67 105.23C54.27 104.83 52.87 104.45 51.46 104.08C50.05 103.71 48.63 103.36 47.21 103.03C45.79 102.7 44.34 102.39 42.89 102.12C41.44 101.84 39.97 101.6 38.49 101.39C37.01 101.18 35.51 101.02 33.99 100.91C32.47 100.8 30.93 100.73 29.37 100.73C27.81 100.73 26.23 100.79 24.62 100.93C23.01 101.07 21.38 101.29 19.73 101.61C18.07 101.93 16.39 102.34 14.67 102.87C12.95 103.4 11.21 104.05 9.43 104.85C7.65 105.65 5.84 106.59 4 107.7V102.09V96.77V91.7V86.84V82.16C4 82.16 4 79.11 4 77.62V73.19C4 73.19 4 70.27 4 68.83C4 67.39 4 65.94 4 64.5V60.17V55.81V51.38C4 51.38 4 48.38 4 46.84C4 45.3 4 43.75 4 42.16V37.3C4 37.3 4 33.96 4 32.23V26.91V21.3C5.85 20.18 7.66 19.24 9.43 18.45C11.2 17.66 12.95 17 14.67 16.47C16.39 15.94 18.07 15.52 19.73 15.21C21.39 14.89 23.02 14.67 24.62 14.53C26.23 14.39 27.81 14.33 29.37 14.33C30.93 14.33 32.47 14.39 33.99 14.51C35.51 14.62 37.01 14.79 38.49 14.99C39.97 15.19 41.44 15.44 42.89 15.72C44.34 16 45.78 16.3 47.21 16.63C48.64 16.96 50.06 17.31 51.46 17.68C52.87 18.05 54.27 18.44 55.67 18.83C57.07 19.22 58.46 19.64 59.84 20.05C61.22 20.46 62.61 20.88 64 21.3C65.38 21.72 66.77 22.14 68.16 22.55C69.55 22.96 70.94 23.37 72.33 23.77C73.72 24.17 75.13 24.55 76.54 24.92C77.95 25.29 79.37 25.64 80.79 25.97C82.22 26.3 83.66 26.61 85.11 26.88C86.56 27.16 88.03 27.4 89.51 27.61C90.99 27.82 92.49 27.98 94.01 28.09C95.53 28.2 97.07 28.27 98.63 28.27C100.19 28.27 101.77 28.21 103.38 28.07C104.99 27.93 106.62 27.71 108.27 27.39C109.93 27.07 111.61 26.66 113.33 26.13C115.05 25.6 116.79 24.95 118.57 24.15C120.35 23.35 122.16 22.41 124 21.3V26.91V32.23V37.3C124 37.3 124 40.57 124 42.16V46.84C124 46.84 124 49.89 124 51.38C124 52.87 124 54.35 124 55.81V60.17V64.5V68.83C124 68.83 124 71.73 124 73.19C124 74.65 124 76.13 124 77.62V82.16C124 82.16 124 85.25 124 86.84V91.7V96.77V102.09V107.7Z" fill="url(#paint0_linear_193_58)" style=""/>
<defs>
<linearGradient id="paint0_linear_193_58" x1="5.3703" y1="23.159" x2="122.37" y2="105.66" gradientUnits="userSpaceOnUse">
<stop stop-color="white" stop-opacity="0" style="stop-color:none;stop-opacity:0;"/>
<stop offset="0.1646" stop-color="#C8C8C8" stop-opacity="0.1646" style="stop-color:#C8C8C8;stop-color:color(display-p3 0.7843 0.7843 0.7843);stop-opacity:0.1646;"/>
<stop offset="0.3934" stop-color="#828282" stop-opacity="0.3934" style="stop-color:#828282;stop-color:color(display-p3 0.5098 0.5098 0.5098);stop-opacity:0.3934;"/>
<stop offset="0.5997" stop-color="#4A4A4A" stop-opacity="0.5997" style="stop-color:#4A4A4A;stop-color:color(display-p3 0.2902 0.2902 0.2902);stop-opacity:0.5997;"/>
<stop offset="0.7759" stop-color="#222222" stop-opacity="0.7759" style="stop-color:#222222;stop-color:color(display-p3 0.1333 0.1333 0.1333);stop-opacity:0.7759;"/>
<stop offset="0.9151" stop-color="#090909" stop-opacity="0.9151" style="stop-color:#090909;stop-color:color(display-p3 0.0353 0.0353 0.0353);stop-opacity:0.9151;"/>
<stop offset="1" style="stop-color:black;stop-opacity:1;"/>
</linearGradient>
</defs>
</svg>
