<svg width="128" height="128" viewBox="0 0 128 128" fill="none" xmlns="http://www.w3.org/2000/svg">
<path d="M63.6001 118.8C35.7001 118.8 5.6001 101.3 5.6001 62.9C5.6001 24.5 35.7001 7 63.6001 7C79.1001 7 93.4001 12.1 104 21.4C115.5 31.6 121.6 46 121.6 62.9C121.6 79.8 115.5 94.1 104 104.3C93.4001 113.6 79.0001 118.8 63.6001 118.8Z" fill="url(#paint0_radial_169_12596)" style=""/>
<path d="M63.6001 118.8C35.7001 118.8 5.6001 101.3 5.6001 62.9C5.6001 24.5 35.7001 7 63.6001 7C79.1001 7 93.4001 12.1 104 21.4C115.5 31.6 121.6 46 121.6 62.9C121.6 79.8 115.5 94.1 104 104.3C93.4001 113.6 79.0001 118.8 63.6001 118.8Z" fill="url(#paint1_radial_169_12596)" style=""/>
<path d="M63.6001 118.8C35.7001 118.8 5.6001 101.3 5.6001 62.9C5.6001 24.5 35.7001 7 63.6001 7C79.1001 7 93.4001 12.1 104 21.4C115.5 31.6 121.6 46 121.6 62.9C121.6 79.8 115.5 94.1 104 104.3C93.4001 113.6 79.0001 118.8 63.6001 118.8Z" fill="url(#paint2_radial_169_12596)" style=""/>
<path d="M63.6001 118.8C35.7001 118.8 5.6001 101.3 5.6001 62.9C5.6001 24.5 35.7001 7 63.6001 7C79.1001 7 93.4001 12.1 104 21.4C115.5 31.6 121.6 46 121.6 62.9C121.6 79.8 115.5 94.1 104 104.3C93.4001 113.6 79.0001 118.8 63.6001 118.8Z" fill="url(#paint3_radial_169_12596)" style=""/>
<path d="M63.6001 118.8C35.7001 118.8 5.6001 101.3 5.6001 62.9C5.6001 24.5 35.7001 7 63.6001 7C79.1001 7 93.4001 12.1 104 21.4C115.5 31.6 121.6 46 121.6 62.9C121.6 79.8 115.5 94.1 104 104.3C93.4001 113.6 79.0001 118.8 63.6001 118.8Z" fill="url(#paint4_radial_169_12596)" style=""/>
<path d="M39.3697 42.45C40.3797 42.45 41.1997 41.63 41.1997 40.62C41.1997 39.61 40.3797 38.79 39.3697 38.79C37.4197 38.59 35.4597 38.73 33.5597 39.19C28.3897 40.3 23.8297 43.33 20.7897 47.66C19.4197 49.75 22.1397 51.44 23.7397 49.88C27.9197 45.67 33.4397 43.04 39.3397 42.45" fill="#49362E" style="fill:#49362E;fill:color(display-p3 0.2863 0.2118 0.1804);fill-opacity:1;"/>
<path d="M39.3697 42.45C40.3797 42.45 41.1997 41.63 41.1997 40.62C41.1997 39.61 40.3797 38.79 39.3697 38.79C37.4197 38.59 35.4597 38.73 33.5597 39.19C28.3897 40.3 23.8297 43.33 20.7897 47.66C19.4197 49.75 22.1397 51.44 23.7397 49.88C27.9197 45.67 33.4397 43.04 39.3397 42.45" fill="#1A1717" style="fill:#1A1717;fill:color(display-p3 0.1020 0.0902 0.0902);fill-opacity:1;"/>
<path d="M39.3697 42.45C40.3797 42.45 41.1997 41.63 41.1997 40.62C41.1997 39.61 40.3797 38.79 39.3697 38.79C37.4197 38.59 35.4597 38.73 33.5597 39.19C28.3897 40.3 23.8297 43.33 20.7897 47.66C19.4197 49.75 22.1397 51.44 23.7397 49.88C27.9197 45.67 33.4397 43.04 39.3397 42.45" fill="#613E31" style="fill:#613E31;fill:color(display-p3 0.3804 0.2431 0.1922);fill-opacity:1;"/>
<path d="M88.2197 42.45C87.2097 42.45 86.3896 41.63 86.3896 40.62C86.3896 39.61 87.2097 38.79 88.2197 38.79C90.1697 38.59 92.1296 38.73 94.0296 39.19C99.1996 40.3 103.77 43.32 106.8 47.66C108.17 49.75 105.45 51.44 103.8 49.88C99.6197 45.67 94.1096 43.04 88.1996 42.45" fill="#49362E" style="fill:#49362E;fill:color(display-p3 0.2863 0.2118 0.1804);fill-opacity:1;"/>
<path d="M88.2197 42.45C87.2097 42.45 86.3896 41.63 86.3896 40.62C86.3896 39.61 87.2097 38.79 88.2197 38.79C90.1697 38.59 92.1296 38.73 94.0296 39.19C99.1996 40.3 103.77 43.32 106.8 47.66C108.17 49.75 105.45 51.44 103.8 49.88C99.6197 45.67 94.1096 43.04 88.1996 42.45" fill="#1A1717" style="fill:#1A1717;fill:color(display-p3 0.1020 0.0902 0.0902);fill-opacity:1;"/>
<path d="M88.2197 42.45C87.2097 42.45 86.3896 41.63 86.3896 40.62C86.3896 39.61 87.2097 38.79 88.2197 38.79C90.1697 38.59 92.1296 38.73 94.0296 39.19C99.1996 40.3 103.77 43.32 106.8 47.66C108.17 49.75 105.45 51.44 103.8 49.88C99.6197 45.67 94.1096 43.04 88.1996 42.45" fill="#613E31" style="fill:#613E31;fill:color(display-p3 0.3804 0.2431 0.1922);fill-opacity:1;"/>
<path d="M46.6302 94.31C50.5502 93.8 54.3702 93.64 58.1002 93.43C61.8302 93.22 65.5002 93.01 68.9502 92.43C72.1502 92.09 75.2602 91.19 78.1402 89.77C80.5602 88.48 82.3202 86.23 83.0002 83.58V83.45C83.5102 81.65 85.3802 80.61 87.1802 81.12C88.6602 81.54 89.6702 82.91 89.6302 84.45C89.5802 86.9 88.9402 89.3 87.7602 91.45C86.5302 93.66 84.8102 95.56 82.7302 97C78.7302 99.75 74.3402 100.76 70.2502 101.42C66.2702 101.94 62.2602 102.12 58.2502 101.95C54.3302 101.83 50.4902 101.49 46.7502 101.06C44.9002 100.83 43.5802 99.15 43.8102 97.29C44.0002 95.75 45.2102 94.53 46.7502 94.35L46.6302 94.31Z" fill="#35220B" style="fill:#35220B;fill:color(display-p3 0.2078 0.1333 0.0431);fill-opacity:1;"/>
<path d="M46.6302 94.31C50.5502 93.8 54.3702 93.64 58.1002 93.43C61.8302 93.22 65.5002 93.01 68.9502 92.43C72.1502 92.09 75.2602 91.19 78.1402 89.77C80.5602 88.48 82.3202 86.23 83.0002 83.58V83.45C83.5102 81.65 85.3802 80.61 87.1802 81.12C88.6602 81.54 89.6702 82.91 89.6302 84.45C89.5802 86.9 88.9402 89.3 87.7602 91.45C86.5302 93.66 84.8102 95.56 82.7302 97C78.7302 99.75 74.3402 100.76 70.2502 101.42C66.2702 101.94 62.2602 102.12 58.2502 101.95C54.3302 101.83 50.4902 101.49 46.7502 101.06C44.9002 100.83 43.5802 99.15 43.8102 97.29C44.0002 95.75 45.2102 94.53 46.7502 94.35L46.6302 94.31Z" fill="#1A1717" style="fill:#1A1717;fill:color(display-p3 0.1020 0.0902 0.0902);fill-opacity:1;"/>
<path d="M46.6302 94.31C50.5502 93.8 54.3702 93.64 58.1002 93.43C61.8302 93.22 65.5002 93.01 68.9502 92.43C72.1502 92.09 75.2602 91.19 78.1402 89.77C80.5602 88.48 82.3202 86.23 83.0002 83.58V83.45C83.5102 81.65 85.3802 80.61 87.1802 81.12C88.6602 81.54 89.6702 82.91 89.6302 84.45C89.5802 86.9 88.9402 89.3 87.7602 91.45C86.5302 93.66 84.8102 95.56 82.7302 97C78.7302 99.75 74.3402 100.76 70.2502 101.42C66.2702 101.94 62.2602 102.12 58.2502 101.95C54.3302 101.83 50.4902 101.49 46.7502 101.06C44.9002 100.83 43.5802 99.15 43.8102 97.29C44.0002 95.75 45.2102 94.53 46.7502 94.35L46.6302 94.31Z" fill="#5D4037" style="fill:#5D4037;fill:color(display-p3 0.3647 0.2510 0.2157);fill-opacity:1;"/>
<path d="M48.1602 55.81C42.1102 54.23 35.7202 54.47 29.8002 56.5C28.7402 56.91 28.2102 58.09 28.6202 59.15C29.0002 60.14 30.0602 60.67 31.0802 60.39C33.4502 59.93 35.8702 59.8 38.2802 59.99C38.2802 60.05 38.2802 60.38 38.2802 60.38C38.2802 65.27 41.4502 68.23 44.9502 68.23C46.7402 68.21 48.4502 67.47 49.6902 66.17C51.7702 63.96 52.2002 60.66 50.7402 58C50.1902 56.97 49.2702 56.18 48.1602 55.81Z" fill="#49362E" style="fill:#49362E;fill:color(display-p3 0.2863 0.2118 0.1804);fill-opacity:1;"/>
<path d="M48.1602 55.81C42.1102 54.23 35.7202 54.47 29.8002 56.5C28.7402 56.91 28.2102 58.09 28.6202 59.15C29.0002 60.14 30.0602 60.67 31.0802 60.39C33.4502 59.93 35.8702 59.8 38.2802 59.99C38.2802 60.05 38.2802 60.38 38.2802 60.38C38.2802 65.27 41.4502 68.23 44.9502 68.23C46.7402 68.21 48.4502 67.47 49.6902 66.17C51.7702 63.96 52.2002 60.66 50.7402 58C50.1902 56.97 49.2702 56.18 48.1602 55.81Z" fill="#1A1717" style="fill:#1A1717;fill:color(display-p3 0.1020 0.0902 0.0902);fill-opacity:1;"/>
<path d="M48.1602 55.81C42.1102 54.23 35.7202 54.47 29.8002 56.5C28.7402 56.91 28.2102 58.09 28.6202 59.15C29.0002 60.14 30.0602 60.67 31.0802 60.39C33.4502 59.93 35.8702 59.8 38.2802 59.99C38.2802 60.05 38.2802 60.38 38.2802 60.38C38.2802 65.27 41.4502 68.23 44.9502 68.23C46.7402 68.21 48.4502 67.47 49.6902 66.17C51.7702 63.96 52.2002 60.66 50.7402 58C50.1902 56.97 49.2702 56.18 48.1602 55.81Z" fill="#49362E" style="fill:#49362E;fill:color(display-p3 0.2863 0.2118 0.1804);fill-opacity:1;"/>
<path d="M96.0001 55.81C89.9501 54.23 83.5601 54.47 77.6401 56.5C76.5701 56.88 76.0001 58.05 76.3801 59.12C76.7601 60.19 77.9301 60.76 79.0001 60.38C81.3701 59.92 83.7901 59.79 86.1901 59.98C86.1901 60.04 86.1901 60.37 86.1901 60.37C86.1901 65.26 89.3701 68.22 92.8601 68.22C94.6601 68.2 96.3701 67.46 97.6101 66.16C99.6601 63.95 100.06 60.67 98.6101 58.03C98.0601 56.99 97.1201 56.19 96.0001 55.81Z" fill="#49362E" style="fill:#49362E;fill:color(display-p3 0.2863 0.2118 0.1804);fill-opacity:1;"/>
<path d="M96.0001 55.81C89.9501 54.23 83.5601 54.47 77.6401 56.5C76.5701 56.88 76.0001 58.05 76.3801 59.12C76.7601 60.19 77.9301 60.76 79.0001 60.38C81.3701 59.92 83.7901 59.79 86.1901 59.98C86.1901 60.04 86.1901 60.37 86.1901 60.37C86.1901 65.26 89.3701 68.22 92.8601 68.22C94.6601 68.2 96.3701 67.46 97.6101 66.16C99.6601 63.95 100.06 60.67 98.6101 58.03C98.0601 56.99 97.1201 56.19 96.0001 55.81Z" fill="#1A1717" style="fill:#1A1717;fill:color(display-p3 0.1020 0.0902 0.0902);fill-opacity:1;"/>
<path d="M96.0001 55.81C89.9501 54.23 83.5601 54.47 77.6401 56.5C76.5701 56.88 76.0001 58.05 76.3801 59.12C76.7601 60.19 77.9301 60.76 79.0001 60.38C81.3701 59.92 83.7901 59.79 86.1901 59.98C86.1901 60.04 86.1901 60.37 86.1901 60.37C86.1901 65.26 89.3701 68.22 92.8601 68.22C94.6601 68.2 96.3701 67.46 97.6101 66.16C99.6601 63.95 100.06 60.67 98.6101 58.03C98.0601 56.99 97.1201 56.19 96.0001 55.81Z" fill="#49362E" style="fill:#49362E;fill:color(display-p3 0.2863 0.2118 0.1804);fill-opacity:1;"/>
<path d="M45.0599 59.18C46.4799 58.5 48.1899 59.1 48.8799 60.52C49.4099 61.63 49.1699 62.96 48.2799 63.82C46.8599 64.5 45.1499 63.9 44.4599 62.48C43.9299 61.37 44.1699 60.04 45.0599 59.18Z" fill="#555050" style="fill:#555050;fill:color(display-p3 0.3333 0.3125 0.3125);fill-opacity:1;"/>
<path d="M45.0599 59.18C46.4799 58.5 48.1899 59.1 48.8799 60.52C49.4099 61.63 49.1699 62.96 48.2799 63.82C46.8599 64.5 45.1499 63.9 44.4599 62.48C43.9299 61.37 44.1699 60.04 45.0599 59.18Z" fill="#6A564E" style="fill:#6A564E;fill:color(display-p3 0.4167 0.3385 0.3056);fill-opacity:1;"/>
<path d="M93.0598 59.18C94.4898 58.51 96.1898 59.12 96.8698 60.55C97.3898 61.66 97.1498 62.97 96.2698 63.82C94.8398 64.49 93.1398 63.88 92.4598 62.45C91.9398 61.35 92.1798 60.03 93.0598 59.18Z" fill="#555050" style="fill:#555050;fill:color(display-p3 0.3333 0.3125 0.3125);fill-opacity:1;"/>
<path d="M93.0598 59.18C94.4898 58.51 96.1898 59.12 96.8698 60.55C97.3898 61.66 97.1498 62.97 96.2698 63.82C94.8398 64.49 93.1398 63.88 92.4598 62.45C91.9398 61.35 92.1798 60.03 93.0598 59.18Z" fill="#6A564E" style="fill:#6A564E;fill:color(display-p3 0.4167 0.3385 0.3056);fill-opacity:1;"/>
<path d="M111.49 29.67C116.82 38.27 119.6 48.51 119.6 59.9C119.6 76.8 113.5 91.1 102 101.3C91.3999 110.6 76.9999 115.8 61.5999 115.8C43.5399 115.8 24.5999 108.45 13.4199 92.86C24.1799 110.52 44.4199 118.8 63.5999 118.8C78.9999 118.8 93.3999 113.6 104 104.3C115.5 94.1 121.6 79.8 121.6 62.9C121.6 50.16 118.13 38.84 111.49 29.67Z" fill="#EB8F00" style="fill:#EB8F00;fill:color(display-p3 0.9216 0.5608 0.0000);fill-opacity:1;"/>
<path d="M111.49 29.67C116.82 38.27 119.6 48.51 119.6 59.9C119.6 76.8 113.5 91.1 102 101.3C91.3999 110.6 76.9999 115.8 61.5999 115.8C43.5399 115.8 24.5999 108.45 13.4199 92.86C24.1799 110.52 44.4199 118.8 63.5999 118.8C78.9999 118.8 93.3999 113.6 104 104.3C115.5 94.1 121.6 79.8 121.6 62.9C121.6 50.16 118.13 38.84 111.49 29.67Z" fill="#F3B872" style="fill:#F3B872;fill:color(display-p3 0.9542 0.7229 0.4453);fill-opacity:1;"/>
<path d="M111.49 29.67C116.82 38.27 119.6 48.51 119.6 59.9C119.6 76.8 113.5 91.1 102 101.3C91.3999 110.6 76.9999 115.8 61.5999 115.8C43.5399 115.8 24.5999 108.45 13.4199 92.86C24.1799 110.52 44.4199 118.8 63.5999 118.8C78.9999 118.8 93.3999 113.6 104 104.3C115.5 94.1 121.6 79.8 121.6 62.9C121.6 50.16 118.13 38.84 111.49 29.67Z" fill="#91674D" style="fill:#91674D;fill:color(display-p3 0.5686 0.4039 0.3020);fill-opacity:1;"/>
<defs>
<radialGradient id="paint0_radial_169_12596" cx="0" cy="0" r="1" gradientUnits="userSpaceOnUse" gradientTransform="translate(63.6001 62.9) scale(56.9597 56.9597)">
<stop offset="0.5" stop-color="#FDE030" style="stop-color:#FDE030;stop-color:color(display-p3 0.9922 0.8784 0.1882);stop-opacity:1;"/>
<stop offset="0.92" stop-color="#F7C02B" style="stop-color:#F7C02B;stop-color:color(display-p3 0.9686 0.7529 0.1686);stop-opacity:1;"/>
<stop offset="1" stop-color="#F4A223" style="stop-color:#F4A223;stop-color:color(display-p3 0.9569 0.6353 0.1373);stop-opacity:1;"/>
</radialGradient>
<radialGradient id="paint1_radial_169_12596" cx="0" cy="0" r="1" gradientUnits="userSpaceOnUse" gradientTransform="translate(38.5991 34.5377) rotate(-43.2082) scale(102.024 101.825)">
<stop offset="0.3533" stop-color="#F9DDBD" style="stop-color:#F9DDBD;stop-color:color(display-p3 0.9765 0.8667 0.7412);stop-opacity:1;"/>
<stop offset="0.8723" stop-color="#FFD29C" style="stop-color:#FFD29C;stop-color:color(display-p3 1.0000 0.8235 0.6118);stop-opacity:1;"/>
</radialGradient>
<radialGradient id="paint2_radial_169_12596" cx="0" cy="0" r="1" gradientUnits="userSpaceOnUse" gradientTransform="translate(38.5991 34.5377) rotate(-43.2082) scale(102.024 101.825)">
<stop offset="0.3533" stop-color="#70534A" style="stop-color:#70534A;stop-color:color(display-p3 0.4392 0.3255 0.2902);stop-opacity:1;"/>
<stop offset="0.8723" stop-color="#5C4037" style="stop-color:#5C4037;stop-color:color(display-p3 0.3608 0.2510 0.2157);stop-opacity:1;"/>
</radialGradient>
<radialGradient id="paint3_radial_169_12596" cx="0" cy="0" r="1" gradientUnits="userSpaceOnUse" gradientTransform="translate(38.5991 34.5377) rotate(-43.2082) scale(102.024 101.825)">
<stop offset="0.3533" stop-color="#A37A58" style="stop-color:#A37A58;stop-color:color(display-p3 0.6375 0.4772 0.3453);stop-opacity:1;"/>
<stop offset="0.8723" stop-color="#8D5738" style="stop-color:#8D5738;stop-color:color(display-p3 0.5529 0.3412 0.2196);stop-opacity:1;"/>
</radialGradient>
<radialGradient id="paint4_radial_169_12596" cx="0" cy="0" r="1" gradientUnits="userSpaceOnUse" gradientTransform="translate(38.5991 34.5377) rotate(-43.2082) scale(102.024 101.825)">
<stop offset="0.3533" stop-color="#AD8264" style="stop-color:#AD8264;stop-color:color(display-p3 0.6784 0.5098 0.3922);stop-opacity:1;"/>
<stop offset="0.8723" stop-color="#A47B62" style="stop-color:#A47B62;stop-color:color(display-p3 0.6431 0.4824 0.3843);stop-opacity:1;"/>
</radialGradient>
</defs>
</svg>
