<svg width="129" height="129" viewBox="0 0 129 129" fill="none" xmlns="http://www.w3.org/2000/svg">
<path d="M120.49 88.51H8.49023C6.28023 88.51 4.49023 86.72 4.49023 84.51V12.51C4.49023 10.3 6.28023 8.51001 8.49023 8.51001H120.49C122.7 8.51001 124.49 10.3 124.49 12.51V84.51C124.49 86.72 122.7 88.51 120.49 88.51Z" fill="url(#paint0_linear_33_502)" style=""/>
<path opacity="0.3" d="M120.49 88.51H8.49023C6.28023 88.51 4.49023 86.72 4.49023 84.51V12.51C4.49023 10.3 6.28023 8.51001 8.49023 8.51001H120.49C122.7 8.51001 124.49 10.3 124.49 12.51V84.51C124.49 86.72 122.7 88.51 120.49 88.51Z" fill="url(#paint1_linear_33_502)" style=""/>
<path opacity="0.3" d="M120.51 88.51H8.50977C6.29977 88.51 4.50977 86.72 4.50977 84.51V12.51C4.50977 10.3 6.29977 8.51001 8.50977 8.51001H120.51C122.72 8.51001 124.51 10.3 124.51 12.51V84.51C124.51 86.72 122.71 88.51 120.51 88.51Z" fill="url(#paint2_linear_33_502)" style=""/>
<path d="M36.4902 16.51H12.4902V20.51H36.4902V16.51Z" fill="#76FF03" style="fill:#76FF03;fill:color(display-p3 0.4627 1.0000 0.0118);fill-opacity:1;"/>
<path d="M102.49 16.51H86.4902V20.51H102.49V16.51Z" fill="#76FF03" style="fill:#76FF03;fill:color(display-p3 0.4627 1.0000 0.0118);fill-opacity:1;"/>
<path d="M116.49 16.51H108.49V20.51H116.49V16.51Z" fill="#76FF03" style="fill:#76FF03;fill:color(display-p3 0.4627 1.0000 0.0118);fill-opacity:1;"/>
<path d="M28.4902 28.51H20.4902V32.51H28.4902V28.51Z" fill="#76FF03" style="fill:#76FF03;fill:color(display-p3 0.4627 1.0000 0.0118);fill-opacity:1;"/>
<path d="M28.4902 40.51H12.4902V44.51H28.4902V40.51Z" fill="#76FF03" style="fill:#76FF03;fill:color(display-p3 0.4627 1.0000 0.0118);fill-opacity:1;"/>
<path d="M20.4902 52.51H12.4902V56.51H20.4902V52.51Z" fill="#76FF03" style="fill:#76FF03;fill:color(display-p3 0.4627 1.0000 0.0118);fill-opacity:1;"/>
<path d="M110.49 52.51H98.4902V56.51H110.49V52.51Z" fill="#76FF03" style="fill:#76FF03;fill:color(display-p3 0.4627 1.0000 0.0118);fill-opacity:1;"/>
<path d="M116.49 40.51H104.49V44.51H116.49V40.51Z" fill="#76FF03" style="fill:#76FF03;fill:color(display-p3 0.4627 1.0000 0.0118);fill-opacity:1;"/>
<path d="M28.4902 64.51H12.4902V68.51H28.4902V64.51Z" fill="#76FF03" style="fill:#76FF03;fill:color(display-p3 0.4627 1.0000 0.0118);fill-opacity:1;"/>
<path d="M116.49 64.51H96.4902V68.51H116.49V64.51Z" fill="#76FF03" style="fill:#76FF03;fill:color(display-p3 0.4627 1.0000 0.0118);fill-opacity:1;"/>
<path d="M112.49 28.51H100.49V32.51H112.49V28.51Z" fill="#76FF03" style="fill:#76FF03;fill:color(display-p3 0.4627 1.0000 0.0118);fill-opacity:1;"/>
<path d="M8.12997 124.49H20.96C22.08 124.4 22.97 123.31 22.97 121.97V121.32C22.97 117.74 21.36 114.61 18.95 112.87C18.95 113.02 18.96 113.17 18.96 113.32C18.96 117.42 16.98 120.74 14.55 120.74C12.12 120.74 10.14 117.42 10.14 113.32C10.14 113.17 10.15 113.02 10.15 112.87C7.73997 114.62 6.12997 117.74 6.12997 121.32V121.97C6.11997 123.32 7.00997 124.4 8.12997 124.49Z" fill="#4B4B4B" style="fill:#4B4B4B;fill:color(display-p3 0.2958 0.2958 0.2958);fill-opacity:1;"/>
<path d="M14.5396 120.75C23.5396 120.75 18.9496 117.43 18.9496 113.33C18.9496 113.18 18.9396 113.03 18.9396 112.88C17.6596 111.95 16.1496 111.4 14.5396 111.4C12.9296 111.4 11.4196 111.95 10.1396 112.88C10.1296 113.03 10.1296 113.18 10.1296 113.33C10.1196 117.43 5.49963 120.75 14.5396 120.75Z" fill="#626262" style="fill:#626262;fill:color(display-p3 0.3833 0.3833 0.3833);fill-opacity:1;"/>
<path d="M28.4797 107.31C28.3697 104.47 26.2497 98.61 23.4797 98.12C23.3097 98.09 23.1597 98.01 23.0697 97.87C22.6297 97.2 21.2197 95.4 18.6397 96.82C17.6797 97.35 17.3397 97.82 17.4997 98.5C17.3797 98.64 19.4597 98.63 19.1397 98.5C18.0997 97.34 15.4896 97.8401 13.9996 99.0001C12.3096 100.32 11.3397 100.7 11.6397 101.63L11.6297 101.64C11.6297 101.64 12.4896 101.69 11.9996 101.64C11.4896 101.2 9.94968 101.8 8.97968 102.5C6.37968 104.38 7.05963 107.45 7.49963 108.5C7.43963 108.6 7.72969 107.38 7.56968 107.37C7.22969 107.19 6.79968 107.19 6.21968 107.52C4.83968 108.31 5.03968 110.91 5.42968 111.76C5.85968 112.69 8.22968 115.95 9.03968 116.87C9.22968 117.08 9.45968 117.23 9.70968 117.33C9.67968 117.32 9.64968 117.31 9.62968 117.3C10.3397 117.74 11.5797 118.27 12.7897 117.52C12.7897 117.52 13.5597 116.96 13.6297 116.37C14.9397 117.1 16.7497 115.74 16.7497 115.74C17.5997 115.09 17.8197 114.36 17.7897 113.73C18.2197 113.99 18.6897 114.09 19.1397 114.1C20.4997 114.14 21.7497 113.34 21.7497 113.34C23.6997 112.23 24.0897 111.07 24.0797 110.3C25.0897 110.93 26.3397 110.46 26.3397 110.46C28.5497 109.45 28.4797 107.31 28.4797 107.31Z" fill="url(#paint3_linear_33_502)" style=""/>
<path d="M103.64 124.49H116.48C116.48 124.49 117.04 114.7 101.32 114.23C85.5998 113.77 103.64 124.49 103.64 124.49Z" fill="#AEAEAE" style="fill:#AEAEAE;fill:color(display-p3 0.6833 0.6833 0.6833);fill-opacity:1;"/>
<path d="M95.1497 112.15C95.2597 109.31 97.3797 103.45 100.15 102.96C100.32 102.93 100.47 102.85 100.56 102.71C101 102.04 102.41 100.24 104.99 101.66C105.95 102.19 106.29 102.66 106.13 103.34C106.25 103.48 104.17 104.13 104.49 104C105.53 102.84 108.51 102.36 110 103.52C111.69 104.84 112.29 105.54 111.99 106.47L112 106.48C112 106.48 110.7 106.53 111.19 106.48C111.7 106.04 113.68 106.64 114.65 107.34C117.25 109.22 116.18 111 115.74 112.05C115.8 112.15 115.89 112.22 116.06 112.21C116.4 112.03 116.83 112.03 117.41 112.36C118.79 113.15 118.59 115.75 118.2 116.6C117.77 117.53 115.41 120.79 114.59 121.71C114.4 121.92 114.17 122.07 113.92 122.17C113.95 122.16 113.98 122.15 114 122.14C113.29 122.58 112.05 123.11 110.84 122.36C110.84 122.36 110.07 121.8 110 121.21C108.69 121.94 106.88 120.58 106.88 120.58C106.03 119.93 105.81 119.2 105.84 118.57C105.41 118.83 104.94 118.93 104.49 118.94C103.13 118.98 101.88 118.18 101.88 118.18C99.9297 117.07 99.5397 115.91 99.5497 115.14C98.5397 115.77 97.2897 115.3 97.2897 115.3C95.0797 114.3 95.1497 112.15 95.1497 112.15Z" fill="url(#paint4_linear_33_502)" style=""/>
<path d="M95.1497 112.15C95.2597 109.31 97.3797 103.45 100.15 102.96C100.32 102.93 100.47 102.85 100.56 102.71C101 102.04 102.41 100.24 104.99 101.66C105.95 102.19 106.29 102.66 106.13 103.34C106.25 103.48 104.17 104.13 104.49 104C105.53 102.84 108.51 102.36 110 103.52C111.69 104.84 112.29 105.54 111.99 106.47L112 106.48C112 106.48 110.7 106.53 111.19 106.48C111.7 106.04 113.68 106.64 114.65 107.34C117.25 109.22 116.18 111 115.74 112.05C115.8 112.15 115.89 112.22 116.06 112.21C116.4 112.03 116.83 112.03 117.41 112.36C118.79 113.15 118.59 115.75 118.2 116.6C117.77 117.53 115.41 120.79 114.59 121.71C114.4 121.92 114.17 122.07 113.92 122.17C113.95 122.16 113.98 122.15 114 122.14C113.29 122.58 112.05 123.11 110.84 122.36C110.84 122.36 110.07 121.8 110 121.21C108.69 121.94 106.88 120.58 106.88 120.58C106.03 119.93 105.81 119.2 105.84 118.57C105.41 118.83 104.94 118.93 104.49 118.94C103.13 118.98 101.88 118.18 101.88 118.18C99.9297 117.07 99.5397 115.91 99.5497 115.14C98.5397 115.77 97.2897 115.3 97.2897 115.3C95.0797 114.3 95.1497 112.15 95.1497 112.15Z" fill="url(#paint5_linear_33_502)" style=""/>
<path d="M112.396 122.085C112.08 122.104 111.767 121.999 111.518 121.804C111.492 121.784 111.466 121.762 111.44 121.74C111.393 121.693 111.346 121.647 111.308 121.593C111.082 121.278 111.068 120.781 111.74 119.86C112.024 119.484 112.258 119.169 112.45 118.905C112.717 118.54 113.89 116.325 113.61 115.97C113.595 115.951 113.605 115.958 113.588 115.94C113.442 115.781 113.204 116.202 113.092 116.428C113.049 116.515 113.005 116.606 112.957 116.691C111.084 120.045 110.957 119.365 110.403 119.878C110.381 119.899 110.357 119.92 110.331 119.935C110.298 119.955 110.264 119.971 110.231 119.991C110.134 120.05 110.031 120.107 109.92 120.15C109.87 120.17 109.81 120.19 109.76 120.21C109.65 120.25 109.53 120.27 109.41 120.29C109.35 120.3 109.29 120.31 109.22 120.31C109.09 120.31 108.96 120.3 108.82 120.27C108.76 120.26 108.7 120.26 108.64 120.24C108.44 120.18 108.23 120.11 108.02 119.98C107.92 119.92 107.83 119.86 107.74 119.79C107.7 119.75 107.65 119.71 107.61 119.67C107.57 119.63 107.52 119.59 107.48 119.55C107.43 119.49 107.38 119.42 107.33 119.36C107.31 119.33 107.28 119.3 107.26 119.26C107.21 119.18 107.17 119.1 107.13 119.01C107.12 118.98 107.1 118.95 107.09 118.92C107.05 118.83 107.03 118.73 107.01 118.63C107 118.6 106.99 118.57 106.98 118.54C106.96 118.44 106.96 118.33 106.95 118.23C106.95 118.19 106.94 118.16 106.94 118.13C106.94 118.02 106.96 117.91 106.98 117.8C106.99 117.76 106.99 117.72 107 117.67C107.02 117.56 107.07 117.45 107.11 117.33C107.147 117.238 107.19 117.147 107.247 117.066C108.236 115.664 108.76 114.805 109.038 114.285C109.293 113.809 109.491 113.261 109.657 112.747C109.661 112.736 109.664 112.725 109.668 112.715C109.829 112.208 109.506 111.672 109.224 112.123C109.206 112.153 109.211 112.147 109.194 112.179C109.033 112.477 108.882 112.755 108.739 113.014C107.788 114.738 104.274 118.107 102.567 117.125C102.543 117.111 102.478 117.073 102.455 117.057C102.244 116.918 101.159 116.182 100.96 115.65C100.781 115.187 100.663 114.384 101.217 113.251C101.283 113.116 101.347 112.98 101.412 112.844C101.617 112.419 102.241 111.242 104.007 108.466C104.174 108.204 104.448 107.693 104.137 107.68C104.071 107.678 103.975 107.707 103.84 107.79C103.469 108.016 104.009 106.901 104.148 106.556C104.179 106.478 104.135 106.503 104.086 106.571C103.754 107.031 102.328 109.06 100.371 112.651C100.364 112.663 100.357 112.676 100.35 112.688C100.292 112.796 99.9816 113.354 99.5866 113.794C99.3974 114.004 99.1501 114.164 98.8694 114.2C98.3794 114.263 97.8107 114.106 97.2001 113.65C95.4901 112.37 96.1301 110.58 97.0801 108.74C97.5722 107.794 98.6644 105.728 99.738 103.983C99.8552 103.793 100.03 103.63 100.25 103.59C100.61 103.53 100.9 103.34 101.08 103.06C101.732 102.068 101.539 101.145 100.906 101.435C100.151 101.78 99.5103 102.396 98.8132 102.846C96.2974 104.472 94.5956 109.481 94.5001 112.13C94.5001 112.24 94.4501 114.72 97.0101 115.86C98.0852 116.263 99.2907 116.899 100.126 117.687C100.489 118.029 100.953 118.374 101.54 118.71C101.57 118.73 102.96 119.58 104.48 119.56C104.942 119.543 105.399 119.811 105.655 120.196C105.849 120.488 106.116 120.781 106.48 121.06C106.539 121.104 107.392 121.744 108.433 121.965C109.137 122.114 109.858 122.427 110.44 122.85C110.9 123.14 111.39 123.29 111.89 123.33H112.34C112.977 123.29 113.644 123.072 114.301 122.666C114.307 122.662 114.315 122.66 114.32 122.655C114.325 122.65 114.333 122.648 114.34 122.643C115.121 122.103 116.073 120.714 116.825 119.411C117.653 117.976 117.445 117.884 116.406 119.175C115.302 120.548 113.81 121.999 112.396 122.085Z" fill="#979797" style="fill:#979797;fill:color(display-p3 0.5922 0.5922 0.5922);fill-opacity:1;"/>
<path d="M48.0599 64.41C50.7826 64.41 52.9899 62.1267 52.9899 59.31C52.9899 56.4934 50.7826 54.21 48.0599 54.21C45.3371 54.21 43.1299 56.4934 43.1299 59.31C43.1299 62.1267 45.3371 64.41 48.0599 64.41Z" fill="#404040" style="fill:#404040;fill:color(display-p3 0.2510 0.2510 0.2510);fill-opacity:1;"/>
<path d="M80.9398 64.41C83.6625 64.41 85.8698 62.1267 85.8698 59.31C85.8698 56.4934 83.6625 54.21 80.9398 54.21C78.217 54.21 76.0098 56.4934 76.0098 59.31C76.0098 62.1267 78.217 64.41 80.9398 64.41Z" fill="#404040" style="fill:#404040;fill:color(display-p3 0.2510 0.2510 0.2510);fill-opacity:1;"/>
<path d="M68.3603 68.56C68.2503 68.52 68.1503 68.49 68.0403 68.48H60.9703C60.8603 68.49 60.7503 68.52 60.6503 68.56C60.0103 68.82 59.6603 69.48 59.9603 70.19C60.2603 70.9 61.6703 72.88 64.5103 72.88C67.3503 72.88 68.7603 70.89 69.0603 70.19C69.3503 69.48 69.0003 68.82 68.3603 68.56Z" fill="#E59600" style="fill:#E59600;fill:color(display-p3 0.8980 0.5882 0.0000);fill-opacity:1;"/>
<path d="M49.3505 65.95C51.8579 65.95 53.8905 63.8457 53.8905 61.25C53.8905 58.6543 51.8579 56.55 49.3505 56.55C46.8432 56.55 44.8105 58.6543 44.8105 61.25C44.8105 63.8457 46.8432 65.95 49.3505 65.95Z" fill="#404040" style="fill:#404040;fill:color(display-p3 0.2510 0.2510 0.2510);fill-opacity:1;"/>
<path d="M79.6504 65.95C82.1577 65.95 84.1904 63.8457 84.1904 61.25C84.1904 58.6543 82.1577 56.55 79.6504 56.55C77.143 56.55 75.1104 58.6543 75.1104 61.25C75.1104 63.8457 77.143 65.95 79.6504 65.95Z" fill="#404040" style="fill:#404040;fill:color(display-p3 0.2510 0.2510 0.2510);fill-opacity:1;"/>
<path d="M68.0603 69.77C67.9603 69.73 67.8603 69.71 67.7603 69.69H61.2403C61.1403 69.7 61.0403 69.73 60.9403 69.77C60.3503 70.01 60.0203 70.62 60.3003 71.27C60.5803 71.92 61.8803 73.75 64.4903 73.75C67.1103 73.75 68.4003 71.92 68.6803 71.27C68.9703 70.62 68.6503 70.01 68.0603 69.77Z" fill="#E59600" style="fill:#E59600;fill:color(display-p3 0.8980 0.5882 0.0000);fill-opacity:1;"/>
<path d="M95.8084 55.8411C102.137 39.3168 98.2374 26.6723 96.0014 23.0453C95.1162 21.6078 93.4126 21.2085 91.842 21.701C87.7026 23.0054 76.5288 32.136 71.5908 44.9136" fill="#FFC022" style="fill:#FFC022;fill:color(display-p3 1.0000 0.7529 0.1333);fill-opacity:1;"/>
<path d="M95.8084 55.8411C102.137 39.3168 98.2374 26.6723 96.0014 23.0453C95.1162 21.6078 93.4126 21.2085 91.842 21.701C87.7026 23.0054 76.5288 32.136 71.5908 44.9136" fill="#5D6265" style="fill:#5D6265;fill:color(display-p3 0.3647 0.3843 0.3961);fill-opacity:1;"/>
<path d="M33.9561 55.8411C27.6272 39.3168 31.527 26.6723 33.7631 23.0453C34.6482 21.6078 36.3519 21.2085 37.9225 21.701C42.0619 23.0054 53.2356 32.136 58.1737 44.9136" fill="#FFC022" style="fill:#FFC022;fill:color(display-p3 1.0000 0.7529 0.1333);fill-opacity:1;"/>
<path d="M33.9561 55.8411C27.6272 39.3168 31.527 26.6723 33.7631 23.0453C34.6482 21.6078 36.3519 21.2085 37.9225 21.701C42.0619 23.0054 53.2356 32.136 58.1737 44.9136" fill="#5D6265" style="fill:#5D6265;fill:color(display-p3 0.3647 0.3843 0.3961);fill-opacity:1;"/>
<path d="M98.4226 64.3652C97.2221 46.9136 85.3031 34.5 65 34.5C44.697 34.5 32.778 46.9136 31.5775 64.3652C30.8771 74.5352 34.9457 83.1804 42.9762 88.6886C42.9762 88.6886 51.1201 95.3253 65 95.5C78.88 95.3253 87.0239 88.6886 87.0239 88.6886C95.0477 83.1804 99.123 74.5352 98.4226 64.3652Z" fill="#FFC022" style="fill:#FFC022;fill:color(display-p3 1.0000 0.7529 0.1333);fill-opacity:1;"/>
<path d="M98.4226 64.3652C97.2221 46.9136 85.3031 34.5 65 34.5C44.697 34.5 32.778 46.9136 31.5775 64.3652C30.8771 74.5352 34.9457 83.1804 42.9762 88.6886C42.9762 88.6886 51.1201 95.3253 65 95.5C78.88 95.3253 87.0239 88.6886 87.0239 88.6886C95.0477 83.1804 99.123 74.5352 98.4226 64.3652Z" fill="#5D6265" style="fill:#5D6265;fill:color(display-p3 0.3647 0.3843 0.3961);fill-opacity:1;"/>
<path d="M32.5 56.5L52.044 56.06C55.6868 55.7323 59.6831 55.7354 63.7925 55.7386L63.7966 55.7386C64.2003 55.7389 64.605 55.7392 65.0105 55.7392C65.4161 55.7392 65.8208 55.7389 66.2244 55.7386L66.2285 55.7386C70.3405 55.7354 74.3391 55.7322 77.9837 56.0606L96.5 56.4775C95.4508 52.8603 93.8591 49.5727 91.7528 46.7044L65.0007 45.5L37.2198 46.7508C35.126 49.6141 33.5435 52.8934 32.5 56.5Z" fill="#C4C4C4" style="fill:#C4C4C4;fill:color(display-p3 0.7686 0.7686 0.7686);fill-opacity:1;"/>
<path d="M32.5 56.5L52.044 56.06C55.6868 55.7323 59.6831 55.7354 63.7925 55.7386L63.7966 55.7386C64.2003 55.7389 64.605 55.7392 65.0105 55.7392C65.4161 55.7392 65.8208 55.7389 66.2244 55.7386L66.2285 55.7386C70.3405 55.7354 74.3391 55.7322 77.9837 56.0606L96.5 56.4775C95.4508 52.8603 93.8591 49.5727 91.7528 46.7044L65.0007 45.5L37.2198 46.7508C35.126 49.6141 33.5435 52.8934 32.5 56.5Z" fill="url(#paint6_linear_33_502)" style=""/>
<path d="M45.2031 61.9645C45.1499 58.9898 47.2396 56.5474 49.8616 56.5008C52.4837 56.4542 54.1275 58.8899 54.1807 61.8647C54.234 64.8395 52.1443 67.2819 49.5222 67.3285C46.9002 67.3751 45.2564 64.9393 45.2031 61.9645Z" fill="black" style="fill:black;fill-opacity:1;"/>
<path d="M84.5606 61.9644C84.6139 58.9896 82.5242 56.5472 79.9021 56.5007C77.2801 56.4541 75.6363 58.8898 75.583 61.8646C75.5298 64.8394 77.6195 67.2818 80.2415 67.3283C82.8636 67.3749 84.5074 64.9392 84.5606 61.9644Z" fill="black" style="fill:black;fill-opacity:1;"/>
<path d="M26.5 62.67C26.5 62.67 32.5424 61.4592 39.5 65.5" stroke="#9E9E9E" style="stroke:#9E9E9E;stroke:color(display-p3 0.6196 0.6196 0.6196);stroke-opacity:1;" stroke-width="3" stroke-miterlimit="10" stroke-linecap="round"/>
<path d="M26.5 70.5C26.5 70.5 31.6206 68.9037 38.5 69.7448" stroke="#9E9E9E" style="stroke:#9E9E9E;stroke:color(display-p3 0.6196 0.6196 0.6196);stroke-opacity:1;" stroke-width="3" stroke-miterlimit="10" stroke-linecap="round"/>
<path d="M28.5 78.5C28.5 78.5 33.3462 75.0809 39.5 74.5" stroke="#9E9E9E" style="stroke:#9E9E9E;stroke:color(display-p3 0.6196 0.6196 0.6196);stroke-opacity:1;" stroke-width="3" stroke-miterlimit="10" stroke-linecap="round"/>
<path d="M102.5 61.5864C102.5 61.5864 96.3793 60.7161 89.5 64.5" stroke="#9E9E9E" style="stroke:#9E9E9E;stroke:color(display-p3 0.6196 0.6196 0.6196);stroke-opacity:1;" stroke-width="3" stroke-miterlimit="10" stroke-linecap="round"/>
<path d="M102.5 69.5C102.5 69.5 97.318 67.708 90.5 68.9218" stroke="#9E9E9E" style="stroke:#9E9E9E;stroke:color(display-p3 0.6196 0.6196 0.6196);stroke-opacity:1;" stroke-width="3" stroke-miterlimit="10" stroke-linecap="round"/>
<path d="M101.5 76.5C101.5 76.5 96.1555 73.7917 89.5 73.5" stroke="#9E9E9E" style="stroke:#9E9E9E;stroke:color(display-p3 0.6196 0.6196 0.6196);stroke-opacity:1;" stroke-width="3" stroke-miterlimit="10" stroke-linecap="round"/>
<path d="M59.5316 67.9332C59.4983 66.0299 62.2335 65.1115 64.8223 65.0716C67.4111 65.025 70.1929 65.8702 70.2261 67.7735C70.2594 69.6768 66.9918 72.1924 64.9354 72.1924C62.879 72.1924 59.5648 69.8366 59.5316 67.9332Z" fill="black" style="fill:black;fill-opacity:1;"/>
<path d="M76.8586 80.8358C76.0465 80.2873 72.5741 78.4197 69.7987 77.0288C67.7204 75.984 66.4223 73.803 66.4223 71.4391V70.0352C66.4223 69.2777 65.8851 68.5855 65.1433 68.5072C64.2928 68.4223 63.5766 69.1014 63.5766 69.9503V71.4391C63.5766 73.803 62.2784 75.9905 60.2001 77.0288C57.4248 78.4197 53.9524 80.2873 53.1402 80.8358C52.4816 81.2798 52.3025 82.1809 52.7374 82.847C53.0123 83.2715 53.4664 83.5 53.9268 83.5C54.1954 83.5 54.4704 83.4216 54.707 83.2584C57.7573 81.208 60.6861 79.0008 65.0026 79.0008C69.3191 79.0008 72.184 81.1688 75.2407 83.2192C75.861 83.6371 76.7115 83.5588 77.1848 82.9711C77.7155 82.292 77.5557 81.3059 76.8586 80.8358Z" fill="black" style="fill:black;fill-opacity:1;"/>
<path d="M83.6233 40.6744C82.5985 39.8159 82.6251 38.4317 83.224 37.2404C84.6615 34.3721 88.1022 31.3973 89.32 30.4324C91.3165 28.8485 92.8605 28.3161 93.4528 30.8649C94.5508 35.5767 94.4643 41.9721 93.2864 45.4993C92.8738 46.7438 91.596 47.4026 90.6111 46.5441L83.6233 40.6744Z" fill="#FFD1D1" style="fill:#FFD1D1;fill:color(display-p3 1.0000 0.8196 0.8196);fill-opacity:1;"/>
<path d="M46.1414 40.6744C47.1663 39.8159 47.1397 38.4317 46.5407 37.2404C45.1033 34.3721 41.6626 31.3973 40.4448 30.4324C38.4483 28.8485 36.9043 28.3161 36.312 30.8649C35.2139 35.5767 35.3005 41.9721 36.4784 45.4993C36.891 46.7438 38.1688 47.4026 39.1537 46.5441L46.1414 40.6744Z" fill="#FFD1D1" style="fill:#FFD1D1;fill:color(display-p3 1.0000 0.8196 0.8196);fill-opacity:1;"/>
<path d="M28.9298 106.75C28.8257 104.104 27.1259 99.1019 24.6205 97.4709C23.9222 97.0163 23.2822 96.3908 22.5212 96.0514C21.8942 95.7718 21.7008 96.6921 22.3498 97.68C22.5298 97.96 22.8298 98.14 23.1798 98.21C23.4 98.25 23.5747 98.4125 23.6919 98.6031C24.7654 100.349 25.8577 102.423 26.3498 103.36C27.2998 105.19 27.9298 106.98 26.2298 108.27C25.6269 108.72 25.0705 108.879 24.583 108.823C24.2873 108.788 24.0271 108.619 23.8302 108.395C23.4166 107.926 23.0922 107.331 23.0709 107.292C23.0701 107.29 23.0693 107.289 23.0685 107.288C22.5676 106.368 22.2008 105.739 21.9333 105.315C21.7436 105.015 20.6263 104.017 20.3241 103.83C19.843 103.536 19.8672 103.908 19.8925 104.055C19.8989 104.092 19.9153 104.128 19.9355 104.159C20.2419 104.636 20.5063 105.05 20.7342 105.408C20.8871 105.648 22.5774 110.006 22.4698 110.27C22.2593 110.834 21.0513 111.628 20.947 111.695C20.9416 111.699 20.9279 111.707 20.9224 111.71C20.3098 112.074 15.3123 108.857 14.9757 108.229C14.9701 108.219 14.9411 108.165 14.9346 108.155C14.9281 108.145 14.9183 108.13 14.9057 108.113C14.6041 107.686 14.3345 108.242 14.4915 108.74C14.5679 108.982 14.669 109.257 14.799 109.529C14.809 109.55 14.8185 109.571 14.8276 109.592C14.9439 109.864 15.7821 111.797 16.1522 111.879C16.2085 111.891 16.294 111.898 16.3198 111.95C16.3598 112.06 16.3998 112.18 16.4298 112.29C16.4398 112.33 16.4398 112.37 16.4498 112.42C16.4698 112.53 16.4898 112.64 16.4898 112.75C16.4898 112.79 16.4798 112.82 16.4798 112.85C16.4798 112.96 16.4698 113.06 16.4498 113.16C16.4303 113.218 16.4246 113.281 16.409 113.34C16.3908 113.409 16.3677 113.477 16.3398 113.54C16.319 113.602 16.2853 113.66 16.2565 113.719C16.23 113.773 16.202 113.829 16.1698 113.88C16.1247 113.948 16.0767 114.014 16.0259 114.077C16.0005 114.109 15.9752 114.14 15.9498 114.17C15.9098 114.21 15.8598 114.25 15.8198 114.29C15.7798 114.33 15.7398 114.37 15.6898 114.41C15.5998 114.48 15.4998 114.55 15.4098 114.6C15.1898 114.72 14.9798 114.81 14.7898 114.86C14.7298 114.88 14.6698 114.88 14.5998 114.89C14.4598 114.91 14.3298 114.93 14.1998 114.93C14.1398 114.93 14.0698 114.92 14.0098 114.91C13.8898 114.89 13.7698 114.87 13.6598 114.83C13.6098 114.81 13.5498 114.79 13.4998 114.77C13.3798 114.72 13.2598 114.65 13.1398 114.58C13.0828 114.542 13.0267 114.501 12.9698 114.463C12.5238 114.162 12.992 115.943 11.1974 112.732C11.1498 112.647 11.1052 112.555 11.0619 112.468C10.9461 112.234 10.696 111.792 10.5515 111.999C10.5466 112.006 10.5495 112.003 10.544 112.01C10.409 112.177 11.0127 113.606 11.1439 113.776C11.2895 113.965 11.4664 114.197 11.6798 114.48C12.4098 115.48 12.3298 115.98 12.0498 116.29C12.0032 116.337 11.956 116.384 11.9046 116.425C11.8666 116.455 11.827 116.484 11.7863 116.512C11.6037 116.635 11.3893 116.708 11.169 116.709C10.6519 116.712 10.1221 116.524 9.60269 116.217C8.05352 115.3 7.36625 115.671 8.66524 116.917C8.80387 117.05 8.93946 117.164 9.07027 117.254C9.07671 117.258 9.08455 117.26 9.09008 117.265C9.09523 117.27 9.10311 117.272 9.1093 117.276C9.76613 117.682 10.4229 117.9 11.0698 117.94H11.5198C12.0298 117.9 12.5198 117.75 12.9698 117.46C13.5525 117.036 14.2708 116.724 14.9758 116.575C16.0209 116.355 16.8785 115.714 16.9298 115.67C17.2941 115.391 17.5608 115.099 17.7545 114.807C18.0105 114.421 18.4668 114.17 18.9298 114.17C20.4498 114.2 21.8398 113.34 21.8698 113.32C22.4593 112.986 22.9237 112.642 23.2875 112.298C24.1234 111.507 25.3227 110.874 26.3998 110.47C28.9798 109.34 28.9298 106.86 28.9298 106.75Z" fill="#979797" style="fill:#979797;fill:color(display-p3 0.5922 0.5922 0.5922);fill-opacity:1;"/>
<path d="M110.49 124.49V81.68C110.49 78.1 107.57 75.18 103.99 75.18H24.9902C21.4102 75.18 18.4902 78.1 18.4902 81.68V124.5L110.49 124.49Z" fill="url(#paint7_linear_33_502)" style=""/>
<path d="M53.5 89.5H63.5V99.5H53.5V89.5Z" fill="#EEEEEE" style="fill:#EEEEEE;fill:color(display-p3 0.9333 0.9333 0.9333);fill-opacity:1;"/>
<path d="M64.5 89.5H74.5V99.5H64.5V89.5Z" fill="#EEEEEE" style="fill:#EEEEEE;fill:color(display-p3 0.9333 0.9333 0.9333);fill-opacity:1;"/>
<path d="M53.5 100.5H63.5V110.5H53.5V100.5Z" fill="#EEEEEE" style="fill:#EEEEEE;fill:color(display-p3 0.9333 0.9333 0.9333);fill-opacity:1;"/>
<path d="M64.5 100.5H74.5V110.5H64.5V100.5Z" fill="#EEEEEE" style="fill:#EEEEEE;fill:color(display-p3 0.9333 0.9333 0.9333);fill-opacity:1;"/>
<defs>
<linearGradient id="paint0_linear_33_502" x1="64.4942" y1="9.01821" x2="64.4942" y2="88.5811" gradientUnits="userSpaceOnUse">
<stop offset="0.0032" stop-color="#424242" style="stop-color:#424242;stop-color:color(display-p3 0.2588 0.2588 0.2588);stop-opacity:1;"/>
<stop offset="0.2705" stop-color="#353535" style="stop-color:#353535;stop-color:color(display-p3 0.2078 0.2078 0.2078);stop-opacity:1;"/>
<stop offset="0.7639" stop-color="#131313" style="stop-color:#131313;stop-color:color(display-p3 0.0745 0.0745 0.0745);stop-opacity:1;"/>
<stop offset="1" style="stop-color:black;stop-opacity:1;"/>
</linearGradient>
<linearGradient id="paint1_linear_33_502" x1="64.4942" y1="9.01821" x2="64.4942" y2="88.5811" gradientUnits="userSpaceOnUse">
<stop offset="0.0012" stop-color="#BFBEBE" style="stop-color:#BFBEBE;stop-color:color(display-p3 0.7490 0.7451 0.7451);stop-opacity:1;"/>
<stop offset="0.15" stop-color="#212121" stop-opacity="0" style="stop-color:none;stop-opacity:0;"/>
<stop offset="0.7759" stop-color="#212121" stop-opacity="0" style="stop-color:none;stop-opacity:0;"/>
<stop offset="1" stop-color="#BFBEBE" style="stop-color:#BFBEBE;stop-color:color(display-p3 0.7490 0.7451 0.7451);stop-opacity:1;"/>
</linearGradient>
<linearGradient id="paint2_linear_33_502" x1="5.27037" y1="48.508" x2="124.615" y2="48.508" gradientUnits="userSpaceOnUse">
<stop offset="0.0012" stop-color="#BFBEBE" style="stop-color:#BFBEBE;stop-color:color(display-p3 0.7490 0.7451 0.7451);stop-opacity:1;"/>
<stop offset="0.1" stop-color="#212121" stop-opacity="0" style="stop-color:none;stop-opacity:0;"/>
<stop offset="0.9" stop-color="#212121" stop-opacity="0" style="stop-color:none;stop-opacity:0;"/>
<stop offset="1" stop-color="#BFBEBE" style="stop-color:#BFBEBE;stop-color:color(display-p3 0.7490 0.7451 0.7451);stop-opacity:1;"/>
</linearGradient>
<linearGradient id="paint3_linear_33_502" x1="20.9212" y1="113.426" x2="11.2404" y2="99.649" gradientUnits="userSpaceOnUse">
<stop stop-color="#B0B1B2" style="stop-color:#B0B1B2;stop-color:color(display-p3 0.6902 0.6941 0.6980);stop-opacity:1;"/>
<stop offset="0.5" stop-color="#B0B1B2" style="stop-color:#B0B1B2;stop-color:color(display-p3 0.6902 0.6941 0.6980);stop-opacity:1;"/>
</linearGradient>
<linearGradient id="paint4_linear_33_502" x1="102.701" y1="118.268" x2="112.382" y2="104.492" gradientUnits="userSpaceOnUse">
<stop stop-color="#FFB300" style="stop-color:#FFB300;stop-color:color(display-p3 1.0000 0.7020 0.0000);stop-opacity:1;"/>
<stop offset="0.5" stop-color="#FFCA28" style="stop-color:#FFCA28;stop-color:color(display-p3 1.0000 0.7922 0.1569);stop-opacity:1;"/>
</linearGradient>
<linearGradient id="paint5_linear_33_502" x1="110.929" y1="118.266" x2="101.248" y2="104.489" gradientUnits="userSpaceOnUse">
<stop stop-color="#B0B1B2" style="stop-color:#B0B1B2;stop-color:color(display-p3 0.6902 0.6941 0.6980);stop-opacity:1;"/>
<stop offset="0.5" stop-color="#B0B1B2" style="stop-color:#B0B1B2;stop-color:color(display-p3 0.6902 0.6941 0.6980);stop-opacity:1;"/>
</linearGradient>
<linearGradient id="paint6_linear_33_502" x1="63.5387" y1="74.5937" x2="63.5387" y2="45.5" gradientUnits="userSpaceOnUse">
<stop stop-color="#E9333A" style="stop-color:#E9333A;stop-color:color(display-p3 0.9125 0.2015 0.2287);stop-opacity:1;"/>
<stop offset="1" stop-color="#FF575E" style="stop-color:#FF575E;stop-color:color(display-p3 1.0000 0.3417 0.3669);stop-opacity:1;"/>
</linearGradient>
<linearGradient id="paint7_linear_33_502" x1="64.4942" y1="75.0339" x2="64.4942" y2="143.447" gradientUnits="userSpaceOnUse">
<stop stop-color="#DFDFDF" style="stop-color:#DFDFDF;stop-color:color(display-p3 0.8750 0.8750 0.8750);stop-opacity:1;"/>
<stop offset="1" stop-color="#B7B7B7" style="stop-color:#B7B7B7;stop-color:color(display-p3 0.7167 0.7167 0.7167);stop-opacity:1;"/>
</linearGradient>
</defs>
</svg>
