<svg width="128" height="128" viewBox="0 0 128 128" fill="none" xmlns="http://www.w3.org/2000/svg">
<path d="M63.6 118.8C35.7 118.8 5.59998 101.3 5.59998 62.9C5.59998 24.5 35.7 7 63.6 7C79.1 7 93.4 12.1 104 21.4C115.5 31.6 121.6 46 121.6 62.9C121.6 79.8 115.5 94.1 104 104.3C93.4 113.6 79 118.8 63.6 118.8Z" fill="url(#paint0_radial_169_9972)" style=""/>
<path d="M63.6 118.8C35.7 118.8 5.59998 101.3 5.59998 62.9C5.59998 24.5 35.7 7 63.6 7C79.1 7 93.4 12.1 104 21.4C115.5 31.6 121.6 46 121.6 62.9C121.6 79.8 115.5 94.1 104 104.3C93.4 113.6 79 118.8 63.6 118.8Z" fill="url(#paint1_radial_169_9972)" style=""/>
<path d="M63.6 118.8C35.7 118.8 5.59998 101.3 5.59998 62.9C5.59998 24.5 35.7 7 63.6 7C79.1 7 93.4 12.1 104 21.4C115.5 31.6 121.6 46 121.6 62.9C121.6 79.8 115.5 94.1 104 104.3C93.4 113.6 79 118.8 63.6 118.8Z" fill="url(#paint2_radial_169_9972)" style=""/>
<path d="M112.07 30C117.4 38.6 120.18 48.84 120.18 60.23C120.18 77.13 114.08 91.43 102.58 101.63C91.9799 110.93 77.5799 116.13 62.1799 116.13C44.1199 116.13 25.1799 108.78 13.9999 93.19C24.7599 110.85 44.9999 119.13 64.1799 119.13C79.5799 119.13 93.9799 113.93 104.58 104.63C116.08 94.43 122.18 80.13 122.18 63.23C122.18 50.49 118.71 39.17 112.07 30Z" fill="#EB8F00" style="fill:#EB8F00;fill:color(display-p3 0.9216 0.5608 0.0000);fill-opacity:1;"/>
<path d="M112.07 30C117.4 38.6 120.18 48.84 120.18 60.23C120.18 77.13 114.08 91.43 102.58 101.63C91.9799 110.93 77.5799 116.13 62.1799 116.13C44.1199 116.13 25.1799 108.78 13.9999 93.19C24.7599 110.85 44.9999 119.13 64.1799 119.13C79.5799 119.13 93.9799 113.93 104.58 104.63C116.08 94.43 122.18 80.13 122.18 63.23C122.18 50.49 118.71 39.17 112.07 30Z" fill="#4A2F27" style="fill:#4A2F27;fill:color(display-p3 0.2902 0.1843 0.1529);fill-opacity:1;"/>
<path d="M83.7895 92.436C83.4567 92.4682 83.1236 92.4257 82.8169 92.29C77.3331 90.0078 71.351 89.2172 65.4664 89.9811C59.5504 90.6364 53.9236 92.844 49.1413 96.3789C48.8796 96.583 48.5754 96.7139 48.2454 96.7561C47.5205 96.8378 46.8096 96.4877 46.4249 95.8613C46.0431 95.2447 46.0642 94.4687 46.4683 93.8704C54.4104 82.1593 70.3359 79.1067 82.047 87.0488C83.006 87.7013 83.92 88.4202 84.7835 89.186C85.327 89.6594 85.5442 90.4092 85.3379 91.0998C85.1275 91.8131 84.5186 92.3317 83.7895 92.436Z" fill="#422B0D" style="fill:#422B0D;fill:color(display-p3 0.2588 0.1686 0.0510);fill-opacity:1;"/>
<path d="M83.7895 92.436C83.4567 92.4682 83.1236 92.4257 82.8169 92.29C77.3331 90.0078 71.351 89.2172 65.4664 89.9811C59.5504 90.6364 53.9236 92.844 49.1413 96.3789C48.8796 96.583 48.5754 96.7139 48.2454 96.7561C47.5205 96.8378 46.8096 96.4877 46.4249 95.8613C46.0431 95.2447 46.0642 94.4687 46.4683 93.8704C54.4104 82.1593 70.3359 79.1067 82.047 87.0488C83.006 87.7013 83.92 88.4202 84.7835 89.186C85.327 89.6594 85.5442 90.4092 85.3379 91.0998C85.1275 91.8131 84.5186 92.3317 83.7895 92.436Z" fill="#1A1717" style="fill:#1A1717;fill:color(display-p3 0.1020 0.0902 0.0902);fill-opacity:1;"/>
<path d="M80.3502 52.7759C84.5303 53.0641 88.0877 56.8578 87.6832 62.7239C87.2788 68.59 83.235 71.8495 79.0549 71.5613C74.8748 71.2731 71.3174 67.4794 71.7212 61.6233C72.1249 55.7672 76.1701 52.4877 80.3502 52.7759Z" fill="#422B0D" style="fill:#422B0D;fill:color(display-p3 0.2588 0.1686 0.0510);fill-opacity:1;"/>
<path d="M80.3502 52.7759C84.5303 53.0641 88.0877 56.8578 87.6832 62.7239C87.2788 68.59 83.235 71.8495 79.0549 71.5613C74.8748 71.2731 71.3174 67.4794 71.7212 61.6233C72.1249 55.7672 76.1701 52.4877 80.3502 52.7759Z" fill="#1A1717" style="fill:#1A1717;fill:color(display-p3 0.1020 0.0902 0.0902);fill-opacity:1;"/>
<path d="M44.5497 52.0365C40.3696 51.7483 36.3251 55.0178 35.9213 60.8739C35.5175 66.73 39.0743 70.5337 43.2544 70.8219C47.4444 71.1108 51.4789 67.8406 51.8834 61.9746C52.2879 56.1085 48.7397 52.3254 44.5497 52.0365Z" fill="#422B0D" style="fill:#422B0D;fill:color(display-p3 0.2588 0.1686 0.0510);fill-opacity:1;"/>
<path d="M44.5497 52.0365C40.3696 51.7483 36.3251 55.0178 35.9213 60.8739C35.5175 66.73 39.0743 70.5337 43.2544 70.8219C47.4444 71.1108 51.4789 67.8406 51.8834 61.9746C52.2879 56.1085 48.7397 52.3254 44.5497 52.0365Z" fill="#1A1717" style="fill:#1A1717;fill:color(display-p3 0.1020 0.0902 0.0902);fill-opacity:1;"/>
<path d="M44.8591 54.4715C46.2791 53.7915 47.9891 54.3915 48.6791 55.8115C49.2091 56.9215 48.969 58.2515 48.079 59.1115C46.659 59.7915 44.949 59.1915 44.259 57.7715C43.729 56.6615 43.9691 55.3315 44.8591 54.4715Z" fill="#555050" style="fill:#555050;fill:color(display-p3 0.3333 0.3125 0.3125);fill-opacity:1;"/>
<path d="M81.679 55.9904C83.109 55.3204 84.809 55.9304 85.489 57.3604C86.009 58.4704 85.769 59.7804 84.889 60.6304C83.459 61.3004 81.759 60.6904 81.079 59.2604C80.559 58.1604 80.799 56.8404 81.679 55.9904Z" fill="#555050" style="fill:#555050;fill:color(display-p3 0.3333 0.3125 0.3125);fill-opacity:1;"/>
<path d="M32.7991 39.3215C32.1882 38.7075 31.9142 37.8272 32.0693 36.9772C32.2535 36.1201 32.8561 35.4194 33.6761 35.1085C38.775 33.0048 44.4825 32.9557 49.6149 34.9585C51.5297 35.6901 53.3161 36.6995 54.928 37.9669C55.0293 38.0454 55.1231 38.1359 55.2193 38.2362C56.1288 39.1073 56.2333 40.5222 55.4658 41.5199C54.649 42.6118 53.1448 42.9435 51.9473 42.2859L52.1962 41.5264L51.8411 42.2292C46.7252 39.6978 40.908 38.9505 35.327 40.1212C34.4034 40.3439 33.4307 40.0641 32.7719 39.3794L32.7991 39.3215Z" fill="#422B0D" style="fill:#422B0D;fill:color(display-p3 0.2588 0.1686 0.0510);fill-opacity:1;"/>
<path d="M32.7991 39.3215C32.1882 38.7075 31.9142 37.8272 32.0693 36.9772C32.2535 36.1201 32.8561 35.4194 33.6761 35.1085C38.775 33.0048 44.4825 32.9557 49.6149 34.9585C51.5297 35.6901 53.3161 36.6995 54.928 37.9669C55.0293 38.0454 55.1231 38.1359 55.2193 38.2362C56.1288 39.1073 56.2333 40.5222 55.4658 41.5199C54.649 42.6118 53.1448 42.9435 51.9473 42.2859L52.1962 41.5264L51.8411 42.2292C46.7252 39.6978 40.908 38.9505 35.327 40.1212C34.4034 40.3439 33.4307 40.0641 32.7719 39.3794L32.7991 39.3215Z" fill="#1A1717" style="fill:#1A1717;fill:color(display-p3 0.1020 0.0902 0.0902);fill-opacity:1;"/>
<path d="M89.2728 47.6316C89.8961 47.0595 90.2064 46.2132 90.1067 45.3732C89.9611 44.5134 89.4045 43.7835 88.6095 43.43C83.5915 41.091 77.858 40.7761 72.6234 42.5731C70.68 43.2165 68.8483 44.1519 67.1817 45.3458L66.8715 45.5954C65.9307 46.4292 65.7661 47.837 66.4876 48.8666C67.2616 49.9863 68.7233 50.3745 69.9483 49.7809L69.7608 49.0032L70.0797 49.7286C75.2799 47.405 81.1125 46.8937 86.6407 48.2765C87.5577 48.5388 88.5396 48.3021 89.2363 47.6507L89.2728 47.6316Z" fill="#422B0D" style="fill:#422B0D;fill:color(display-p3 0.2588 0.1686 0.0510);fill-opacity:1;"/>
<path d="M89.2728 47.6316C89.8961 47.0595 90.2064 46.2132 90.1067 45.3732C89.9611 44.5134 89.4045 43.7835 88.6095 43.43C83.5915 41.091 77.858 40.7761 72.6234 42.5731C70.68 43.2165 68.8483 44.1519 67.1817 45.3458L66.8715 45.5954C65.9307 46.4292 65.7661 47.837 66.4876 48.8666C67.2616 49.9863 68.7233 50.3745 69.9483 49.7809L69.7608 49.0032L70.0797 49.7286C75.2799 47.405 81.1125 46.8937 86.6407 48.2765C87.5577 48.5388 88.5396 48.3021 89.2363 47.6507L89.2728 47.6316Z" fill="#1A1717" style="fill:#1A1717;fill:color(display-p3 0.1020 0.0902 0.0902);fill-opacity:1;"/>
<defs>
<radialGradient id="paint0_radial_169_9972" cx="0" cy="0" r="1" gradientUnits="userSpaceOnUse" gradientTransform="translate(63.6 62.9) scale(56.9597 56.9597)">
<stop offset="0.5" stop-color="#FDE030" style="stop-color:#FDE030;stop-color:color(display-p3 0.9922 0.8784 0.1882);stop-opacity:1;"/>
<stop offset="0.92" stop-color="#F7C02B" style="stop-color:#F7C02B;stop-color:color(display-p3 0.9686 0.7529 0.1686);stop-opacity:1;"/>
<stop offset="1" stop-color="#F4A223" style="stop-color:#F4A223;stop-color:color(display-p3 0.9569 0.6353 0.1373);stop-opacity:1;"/>
</radialGradient>
<radialGradient id="paint1_radial_169_9972" cx="0" cy="0" r="1" gradientUnits="userSpaceOnUse" gradientTransform="translate(38.599 34.5377) rotate(-43.2082) scale(102.024 101.825)">
<stop offset="0.3533" stop-color="#F9DDBD" style="stop-color:#F9DDBD;stop-color:color(display-p3 0.9765 0.8667 0.7412);stop-opacity:1;"/>
<stop offset="0.8723" stop-color="#FFD29C" style="stop-color:#FFD29C;stop-color:color(display-p3 1.0000 0.8235 0.6118);stop-opacity:1;"/>
</radialGradient>
<radialGradient id="paint2_radial_169_9972" cx="0" cy="0" r="1" gradientUnits="userSpaceOnUse" gradientTransform="translate(38.599 34.5377) rotate(-43.2082) scale(102.024 101.825)">
<stop offset="0.3533" stop-color="#70534A" style="stop-color:#70534A;stop-color:color(display-p3 0.4392 0.3255 0.2902);stop-opacity:1;"/>
<stop offset="0.8723" stop-color="#5C4037" style="stop-color:#5C4037;stop-color:color(display-p3 0.3608 0.2510 0.2157);stop-opacity:1;"/>
</radialGradient>
</defs>
</svg>
