<svg width="128" height="129" viewBox="0 0 128 129" fill="none" xmlns="http://www.w3.org/2000/svg">
<path d="M63.9297 124.5C97.0668 124.5 123.93 97.6371 123.93 64.5C123.93 31.3629 97.0668 4.5 63.9297 4.5C30.7926 4.5 3.92969 31.3629 3.92969 64.5C3.92969 97.6371 30.7926 124.5 63.9297 124.5Z" fill="#BDBDBD" style="fill:#BDBDBD;fill:color(display-p3 0.7412 0.7412 0.7412);fill-opacity:1;"/>
<path d="M60.0297 119.7C91.0129 119.7 116.13 94.5832 116.13 63.6C116.13 32.6168 91.0129 7.5 60.0297 7.5C29.0465 7.5 3.92969 32.6168 3.92969 63.6C3.92969 94.5832 29.0465 119.7 60.0297 119.7Z" fill="#F1F1F1" style="fill:#F1F1F1;fill:color(display-p3 0.9451 0.9451 0.9451);fill-opacity:1;"/>
<path d="M23.93 30.2C28.43 23.1 38.03 17.2 48.03 15.4C50.53 15 53.03 14.8 55.13 15.6C56.73 16.2 58.03 17.7 57.13 19.4C56.43 20.8 54.53 21.4 53.03 21.9C43.65 25 35.56 31.11 30.03 39.3C28.03 42.3 25.03 50.6 21.33 48.5C17.43 46.2 18.23 39 23.93 30.2Z" fill="white" style="fill:white;fill-opacity:1;"/>
<path d="M103.607 77.7086L93.3601 95.2979C91.3516 98.7914 87.6217 100.619 83.8508 100.376H75.6533V108.5L65.4063 90.2202L75.6533 71.9403V80.0647H87.2119L78.1125 64.4253L95.8603 54.2698L103.238 66.9438C105.37 70.0717 105.656 74.2558 103.607 77.7086ZM51.9212 27.5H72.4152C76.432 27.5 79.916 29.8154 81.5965 33.1464L85.6953 40.2146L92.7862 36.1525L81.9654 54.0667L60.8566 54.4323L67.9475 50.3701L62.1682 40.4178L53.1099 56.0572L35.3211 45.9017L42.6989 33.2277C44.3794 29.8561 47.8634 27.5 51.9212 27.5ZM34.8702 95.3385L24.6232 77.7492C22.6148 74.2964 22.9017 70.153 24.9921 67.0251L29.0909 59.9975L22 55.9353L43.0678 56.2603L53.9296 74.2151L46.8387 70.153L41.0594 80.0647H59.2581V100.376H44.5024C40.6905 100.66 36.9196 98.7914 34.8702 95.3385Z" fill="#66BB6A" style="fill:#66BB6A;fill:color(display-p3 0.4000 0.7333 0.4157);fill-opacity:1;"/>
</svg>
