<svg width="128" height="128" viewBox="0 0 128 128" fill="none" xmlns="http://www.w3.org/2000/svg">
<g clip-path="url(#clip0_2658_135)">
<path d="M105.251 88.3731L65.5 92L26.5 91L26.9189 94.6348C26.9189 94.6348 55.5552 122.4 56.5444 123.03C58.0419 123.994 69.9289 124.299 71.3975 123.347C72.5731 122.576 105.126 95.4612 105.126 95.4612C105.126 95.4612 105.491 90.1437 105.251 88.3731Z" fill="#FF5252" style="fill:#FF5252;fill:color(display-p3 1.0000 0.3216 0.3216);fill-opacity:1;"/>
<path d="M41.4288 24.1497C41.4288 24.1497 60.1122 47.1216 62.7206 59.318C62.7206 59.318 41.8252 61.0241 23.6356 57.149C23.6356 57.149 25.459 34.693 41.4288 24.1497Z" fill="#FF5252" style="fill:#FF5252;fill:color(display-p3 1.0000 0.3216 0.3216);fill-opacity:1;"/>
<path d="M92.8175 25.4505C77.6413 35.5563 66.7513 59.5914 66.7513 59.5914C72.0749 61.7438 107.792 58.3236 107.792 58.3236C108.54 50.1063 92.8175 25.4505 92.8175 25.4505Z" fill="#FF5252" style="fill:#FF5252;fill:color(display-p3 1.0000 0.3216 0.3216);fill-opacity:1;"/>
<path d="M91.5 26L83 -2" stroke="#D52B2B" style="stroke:#D52B2B;stroke:color(display-p3 0.8353 0.1686 0.1686);stroke-opacity:1;" stroke-width="3.6"/>
<path d="M49.5 -2L41 26" stroke="#D52B2B" style="stroke:#D52B2B;stroke:color(display-p3 0.8353 0.1686 0.1686);stroke-opacity:1;" stroke-width="3.6"/>
<path d="M36.4342 40.732C38.3919 40.4977 39.7846 38.6851 39.545 36.6835C39.3054 34.682 37.5241 33.2494 35.5664 33.4838C33.6087 33.7182 32.216 35.5308 32.4556 37.5323C32.6953 39.5339 34.4765 40.9664 36.4342 40.732Z" fill="#FFADA6" style="fill:#FFADA6;fill:color(display-p3 1.0000 0.6784 0.6510);fill-opacity:1;"/>
<path d="M47.9569 50.5817C49.9146 50.3473 51.3073 48.5347 51.0677 46.5331C50.8281 44.5316 49.0468 43.099 47.0891 43.3334C45.1314 43.5678 43.7387 45.3804 43.9783 47.3819C44.218 49.3835 45.9993 50.816 47.9569 50.5817Z" fill="#FFADA6" style="fill:#FFADA6;fill:color(display-p3 1.0000 0.6784 0.6510);fill-opacity:1;"/>
<path d="M59.4809 60.4415C61.4385 60.2071 62.8313 58.3945 62.5916 56.393C62.352 54.3915 60.5707 52.9589 58.613 53.1933C56.6554 53.4277 55.2626 55.2402 55.5023 57.2418C55.7419 59.2433 57.5232 60.6759 59.4809 60.4415Z" fill="#FFADA6" style="fill:#FFADA6;fill:color(display-p3 1.0000 0.6784 0.6510);fill-opacity:1;"/>
<path d="M89.52 98.8601C91.4916 98.8601 93.09 97.2259 93.09 95.2101C93.09 93.1942 91.4916 91.5601 89.52 91.5601C87.5483 91.5601 85.95 93.1942 85.95 95.2101C85.95 97.2259 87.5483 98.8601 89.52 98.8601Z" fill="#FFADA6" style="fill:#FFADA6;fill:color(display-p3 1.0000 0.6784 0.6510);fill-opacity:1;"/>
<path d="M100.16 90.2598C100.56 87.8798 104.32 87.3398 104.32 87.3398C104.68 89.5798 104.55 94.8098 104.55 94.8098C101.1 94.6898 99.8201 92.2498 100.16 90.2598Z" fill="#FFADA6" style="fill:#FFADA6;fill:color(display-p3 1.0000 0.6784 0.6510);fill-opacity:1;"/>
<path d="M75.4496 52.0738C77.4073 51.8395 78.8 50.0269 78.5604 48.0253C78.3207 46.0238 76.5395 44.5912 74.5818 44.8256C72.6241 45.06 71.2314 46.8726 71.471 48.8741C71.7107 50.8757 73.4919 52.3082 75.4496 52.0738Z" fill="#FFADA6" style="fill:#FFADA6;fill:color(display-p3 1.0000 0.6784 0.6510);fill-opacity:1;"/>
<path d="M86.5502 61.5113C88.5079 61.277 89.9006 59.4644 89.661 57.4628C89.4213 55.4613 87.6401 54.0287 85.6824 54.2631C83.7247 54.4975 82.332 56.3101 82.5716 58.3116C82.8112 60.3132 84.5925 61.7457 86.5502 61.5113Z" fill="#FFADA6" style="fill:#FFADA6;fill:color(display-p3 1.0000 0.6784 0.6510);fill-opacity:1;"/>
<path d="M90.3937 46.3365C92.3514 46.1021 93.7441 44.2896 93.5045 42.288C93.2648 40.2865 91.4836 38.8539 89.5259 39.0883C87.5682 39.3227 86.1755 41.1353 86.4151 43.1368C86.6547 45.1384 88.436 46.5709 90.3937 46.3365Z" fill="#FFADA6" style="fill:#FFADA6;fill:color(display-p3 1.0000 0.6784 0.6510);fill-opacity:1;"/>
<path d="M101.918 56.1964C103.875 55.962 105.268 54.1494 105.028 52.1479C104.789 50.1463 103.007 48.7138 101.05 48.9482C99.0921 49.1826 97.6994 50.9951 97.939 52.9967C98.1787 54.9982 99.9599 56.4308 101.918 56.1964Z" fill="#FFADA6" style="fill:#FFADA6;fill:color(display-p3 1.0000 0.6784 0.6510);fill-opacity:1;"/>
<path d="M93.4186 33.6671C95.3763 33.4327 96.769 31.6201 96.5294 29.6186C96.2897 27.617 94.5085 26.1845 92.5508 26.4189C90.5931 26.6533 89.2004 28.4658 89.44 30.4674C89.6796 32.4689 91.4609 33.9015 93.4186 33.6671Z" fill="#FFADA6" style="fill:#FFADA6;fill:color(display-p3 1.0000 0.6784 0.6510);fill-opacity:1;"/>
<path d="M35.3034 57.4444C37.261 57.2101 38.6538 55.3975 38.4141 53.3959C38.1745 51.3944 36.3932 49.9618 34.4356 50.1962C32.4779 50.4306 31.0851 52.2432 31.3248 54.2447C31.5644 56.2463 33.3457 57.6788 35.3034 57.4444Z" fill="#FFADA6" style="fill:#FFADA6;fill:color(display-p3 1.0000 0.6784 0.6510);fill-opacity:1;"/>
<path d="M75.4899 103.41C77.4616 103.41 79.0599 101.776 79.0599 99.7599C79.0599 97.744 77.4616 96.1099 75.4899 96.1099C73.5183 96.1099 71.9199 97.744 71.9199 99.7599C71.9199 101.776 73.5183 103.41 75.4899 103.41Z" fill="#FFADA6" style="fill:#FFADA6;fill:color(display-p3 1.0000 0.6784 0.6510);fill-opacity:1;"/>
<path d="M81.3099 108.06C81.6699 106.08 83.5399 104.77 85.4699 105.14C87.4099 105.51 88.3299 106.71 87.9599 108.7L84.1499 112.32C82.2299 111.94 80.9499 110.04 81.3099 108.06Z" fill="#FFADA6" style="fill:#FFADA6;fill:color(display-p3 1.0000 0.6784 0.6510);fill-opacity:1;"/>
<path d="M50.03 96.9099C52.0016 96.9099 53.6 95.2757 53.6 93.2599C53.6 91.244 52.0016 89.6099 50.03 89.6099C48.0583 89.6099 46.46 91.244 46.46 93.2599C46.46 95.2757 48.0583 96.9099 50.03 96.9099Z" fill="#FFADA6" style="fill:#FFADA6;fill:color(display-p3 1.0000 0.6784 0.6510);fill-opacity:1;"/>
<path d="M59.8801 107.05C61.8517 107.05 63.4501 105.416 63.4501 103.4C63.4501 101.384 61.8517 99.75 59.8801 99.75C57.9084 99.75 56.3101 101.384 56.3101 103.4C56.3101 105.416 57.9084 107.05 59.8801 107.05Z" fill="#FFADA6" style="fill:#FFADA6;fill:color(display-p3 1.0000 0.6784 0.6510);fill-opacity:1;"/>
<path d="M70.1501 118.71C72.1217 118.71 73.7201 117.076 73.7201 115.06C73.7201 113.044 72.1217 111.41 70.1501 111.41C68.1784 111.41 66.5801 113.044 66.5801 115.06C66.5801 117.076 68.1784 118.71 70.1501 118.71Z" fill="#FFADA6" style="fill:#FFADA6;fill:color(display-p3 1.0000 0.6784 0.6510);fill-opacity:1;"/>
<path d="M33.77 99.3601C35.7416 99.3601 37.34 97.7259 37.34 95.7101C37.34 93.6942 35.7416 92.0601 33.77 92.0601C31.7983 92.0601 30.2 93.6942 30.2 95.7101C30.2 97.7259 31.7983 99.3601 33.77 99.3601Z" fill="#FFADA6" style="fill:#FFADA6;fill:color(display-p3 1.0000 0.6784 0.6510);fill-opacity:1;"/>
<path d="M44.04 110.51C46.0116 110.51 47.61 108.876 47.61 106.86C47.61 104.844 46.0116 103.21 44.04 103.21C42.0683 103.21 40.47 104.844 40.47 106.86C40.47 108.876 42.0683 110.51 44.04 110.51Z" fill="#FFADA6" style="fill:#FFADA6;fill:color(display-p3 1.0000 0.6784 0.6510);fill-opacity:1;"/>
<path d="M54.31 121.66C56.2816 121.66 57.88 120.026 57.88 118.01C57.88 115.994 56.2816 114.36 54.31 114.36C52.3383 114.36 50.74 115.994 50.74 118.01C50.74 120.026 52.3383 121.66 54.31 121.66Z" fill="#FFADA6" style="fill:#FFADA6;fill:color(display-p3 1.0000 0.6784 0.6510);fill-opacity:1;"/>
<path d="M22.9717 59.0115C26.0696 40.9753 33.5111 31.5438 40.705 23.2397C49.3703 33.9556 58.7863 47.4922 64.075 59.9518" stroke="#D52B2B" style="stroke:#D52B2B;stroke:color(display-p3 0.8353 0.1686 0.1686);stroke-opacity:1;" stroke-width="3.4449" stroke-miterlimit="10"/>
<path d="M65.9508 58.9621C72.7618 46.2826 81.6699 34.631 92.2618 24.51C99.3423 34.6905 103.833 42.1697 108.624 57.3679" stroke="#D52B2B" style="stroke:#D52B2B;stroke:color(display-p3 0.8353 0.1686 0.1686);stroke-opacity:1;" stroke-width="3.4449" stroke-miterlimit="10"/>
<path d="M110.39 61.8637C75.0425 66.0152 46.1447 65.7386 21.3295 61.5388C20.8461 61.4556 20.5297 61 20.6129 60.5167L21.7035 56.322C21.7878 55.8486 22.2335 55.5334 22.7057 55.6078C46.6881 59.6656 74.7773 59.9182 109.29 55.8666C109.767 55.8095 110.191 56.071 110.31 57.0639L111.158 60.8754C111.227 61.3707 110.876 61.8055 110.39 61.8637Z" fill="#D52B2B" style="fill:#D52B2B;fill:color(display-p3 0.8353 0.1686 0.1686);fill-opacity:1;"/>
<path d="M50.0528 120.489C47.0785 117.238 38.6813 108.583 27.5459 98.7874C27.5459 98.7874 27.2315 97.964 27.066 96.8701C26.9105 95.7769 26.9187 94.6348 26.9187 94.6348C26.9187 94.6348 41.2777 102.737 57.159 123.272C57.159 123.272 55.2496 123.051 53.6567 122.601C53.4599 122.547 53.2831 122.495 53.1063 122.443C51.9289 122.071 50.8826 121.398 50.0528 120.489Z" fill="#D52B2B" style="fill:#D52B2B;fill:color(display-p3 0.8353 0.1686 0.1686);fill-opacity:1;"/>
<path d="M77.5428 121.143C76.6604 122.024 75.5821 122.692 74.3768 123.02C74.3661 123.03 74.3462 123.028 74.3355 123.038C72.8241 123.445 71.3974 123.347 71.3974 123.347C71.3974 123.347 87.8631 102.796 105.135 95.0306C105.135 95.0306 105.184 96.2167 104.973 97.5454C104.761 98.874 104.447 99.504 104.447 99.504C94.9987 104.128 81.0925 117.618 77.5428 121.143Z" fill="#D52B2B" style="fill:#D52B2B;fill:color(display-p3 0.8353 0.1686 0.1686);fill-opacity:1;"/>
<path d="M27.3184 92.0257C26.7631 91.9375 26.367 91.4292 26.406 90.8605L26.9069 87.2145C26.9428 86.5454 27.5471 86.0656 28.2015 86.1707C34.1656 87.1914 61.2242 90.622 104.17 86.4526C104.806 86.386 105.375 86.866 105.412 87.5L105.412 91.1503C105.441 91.7437 104.994 92.2644 104.399 92.3237C79.7032 94.919 48.666 95.2749 27.3184 92.0257Z" fill="#D52B2B" style="fill:#D52B2B;fill:color(display-p3 0.8353 0.1686 0.1686);fill-opacity:1;"/>
</g>
<defs>
<clipPath id="clip0_2658_135">
<rect width="128" height="128" fill="white" style="fill:white;fill-opacity:1;"/>
</clipPath>
</defs>
</svg>
