<svg width="128" height="129" viewBox="0 0 128 129" fill="none" xmlns="http://www.w3.org/2000/svg">
<path d="M75.96 75.9L78.29 73.52C78.46 73.4 79.39 73.38 79.58 73.44C79.64 73.44 80.03 74.13 80.09 74.14L80.99 74.3C81.37 74.39 81.62 74.78 81.53 75.17L81.49 75.38C81.41 75.77 81.03 76.02 80.65 75.93L79.28 75.61L76.9 77.29C76.58 77.52 76.14 77.43 75.91 77.1L75.79 76.92C75.56 76.57 75.64 76.12 75.96 75.9Z" fill="#EDA600" style="fill:#EDA600;fill:color(display-p3 0.9294 0.6510 0.0000);fill-opacity:1;"/>
<path d="M75.96 75.9L78.29 73.52C78.46 73.4 79.39 73.38 79.58 73.44C79.64 73.44 80.03 74.13 80.09 74.14L80.99 74.3C81.37 74.39 81.62 74.78 81.53 75.17L81.49 75.38C81.41 75.77 81.03 76.02 80.65 75.93L79.28 75.61L76.9 77.29C76.58 77.52 76.14 77.43 75.91 77.1L75.79 76.92C75.56 76.57 75.64 76.12 75.96 75.9Z" fill="#EDBD82" style="fill:#EDBD82;fill:color(display-p3 0.9294 0.7412 0.5098);fill-opacity:1;"/>
<path d="M75.96 75.9L78.29 73.52C78.46 73.4 79.39 73.38 79.58 73.44C79.64 73.44 80.03 74.13 80.09 74.14L80.99 74.3C81.37 74.39 81.62 74.78 81.53 75.17L81.49 75.38C81.41 75.77 81.03 76.02 80.65 75.93L79.28 75.61L76.9 77.29C76.58 77.52 76.14 77.43 75.91 77.1L75.79 76.92C75.56 76.57 75.64 76.12 75.96 75.9Z" fill="#3C2B24" style="fill:#3C2B24;fill:color(display-p3 0.2353 0.1686 0.1412);fill-opacity:1;"/>
<path d="M90.5099 16.8301C74.2099 16.8301 74.3399 31.9401 74.3399 32.1801C74.3399 41.9701 75.0899 55.8001 78.9899 61.2401C80.5399 63.4001 83.5299 63.5201 83.5299 63.5201L90.2799 63.5001L97.0199 63.5101C97.0199 63.5101 100.01 63.3901 101.56 61.2301C105.47 55.7901 106.21 41.9601 106.21 32.1701C106.22 31.9401 106.81 16.8301 90.5099 16.8301Z" fill="#262626" style="fill:#262626;fill:color(display-p3 0.1490 0.1490 0.1490);fill-opacity:1;"/>
<path d="M120.84 113.67C120.28 111.24 117.6 108.55 114.97 105.95C113.27 104.27 110.21 104.62 108.54 106.33C106.87 108.04 106.57 111.11 108.27 112.79C110.9 115.39 113.63 118.03 116.06 118.55C117.97 118.96 119.56 118.35 120.13 117.77C120.7 117.18 121.28 115.58 120.84 113.67Z" fill="#504F4F" style="fill:#504F4F;fill:color(display-p3 0.3137 0.3098 0.3098);fill-opacity:1;"/>
<path d="M91.3 124.32H85.24L81.96 105.04C82.61 106.74 84.26 107.95 86.2 107.95C88.7 107.95 90.73 105.93 90.74 103.44L91.3 124.32Z" fill="url(#paint0_linear_201_1446)" style=""/>
<path d="M91.3 124.32H85.24L81.96 105.04C82.61 106.74 84.26 107.95 86.2 107.95C88.7 107.95 90.73 105.93 90.74 103.44L91.3 124.32Z" fill="url(#paint1_linear_201_1446)" style=""/>
<path d="M91.3 124.32H85.24L81.96 105.04C82.61 106.74 84.26 107.95 86.2 107.95C88.7 107.95 90.73 105.93 90.74 103.44L91.3 124.32Z" fill="url(#paint2_linear_201_1446)" style=""/>
<path d="M115.56 113.97C114.56 114.53 113.32 114.46 112.39 113.78L100.24 103.14C100.13 103.04 100.02 102.94 99.9199 102.83C100.76 103.66 101.91 104.18 103.19 104.18C105.76 104.18 107.84 102.1 107.84 99.53C107.84 99.03 107.76 98.54 107.61 98.09C107.62 98.1 107.63 98.12 107.64 98.13L116.19 109.29C117.58 110.67 117.27 113.01 115.56 113.97Z" fill="url(#paint3_linear_201_1446)" style=""/>
<path d="M115.56 113.97C114.56 114.53 113.32 114.46 112.39 113.78L100.24 103.14C100.13 103.04 100.02 102.94 99.9199 102.83C100.76 103.66 101.91 104.18 103.19 104.18C105.76 104.18 107.84 102.1 107.84 99.53C107.84 99.03 107.76 98.54 107.61 98.09C107.62 98.1 107.63 98.12 107.64 98.13L116.19 109.29C117.58 110.67 117.27 113.01 115.56 113.97Z" fill="url(#paint4_linear_201_1446)" style=""/>
<path d="M115.56 113.97C114.56 114.53 113.32 114.46 112.39 113.78L100.24 103.14C100.13 103.04 100.02 102.94 99.9199 102.83C100.76 103.66 101.91 104.18 103.19 104.18C105.76 104.18 107.84 102.1 107.84 99.53C107.84 99.03 107.76 98.54 107.61 98.09C107.62 98.1 107.63 98.12 107.64 98.13L116.19 109.29C117.58 110.67 117.27 113.01 115.56 113.97Z" fill="url(#paint5_linear_201_1446)" style=""/>
<path d="M107.84 99.53C107.84 102.1 105.76 104.18 103.19 104.18C101.91 104.18 100.76 103.66 99.9202 102.83C99.7902 102.7 99.6702 102.57 99.5602 102.43C99.3502 102.18 99.1602 101.9 99.0002 101.62L92.1702 88.97C92.1302 88.75 90.9602 88.6 90.7602 88.6C90.5602 88.6 90.3902 88.76 90.3502 88.97L90.7402 103.31V103.42C90.7402 103.43 90.7402 103.43 90.7402 103.44C90.7302 105.93 88.7002 107.95 86.2002 107.95C84.2602 107.95 82.6102 106.74 81.9602 105.04L81.6702 103.28L78.2402 83.12L89.5802 75.09L102.28 83.11L106.95 96.81L107.05 97.1C107.19 97.45 107.37 97.79 107.61 98.09C107.76 98.54 107.84 99.03 107.84 99.53Z" fill="url(#paint6_linear_201_1446)" style=""/>
<path d="M107.84 99.53C107.84 102.1 105.76 104.18 103.19 104.18C101.91 104.18 100.76 103.66 99.9202 102.83C99.7902 102.7 99.6702 102.57 99.5602 102.43C99.3502 102.18 99.1602 101.9 99.0002 101.62L92.1702 88.97C92.1302 88.75 90.9602 88.6 90.7602 88.6C90.5602 88.6 90.3902 88.76 90.3502 88.97L90.7402 103.31V103.42C90.7402 103.43 90.7402 103.43 90.7402 103.44C90.7302 105.93 88.7002 107.95 86.2002 107.95C84.2602 107.95 82.6102 106.74 81.9602 105.04L81.6702 103.28L78.2402 83.12L89.5802 75.09L102.28 83.11L106.95 96.81L107.05 97.1C107.19 97.45 107.37 97.79 107.61 98.09C107.76 98.54 107.84 99.03 107.84 99.53Z" fill="url(#paint7_linear_201_1446)" style=""/>
<path d="M107.84 99.53C107.84 102.1 105.76 104.18 103.19 104.18C101.91 104.18 100.76 103.66 99.9202 102.83C99.7902 102.7 99.6702 102.57 99.5602 102.43C99.3502 102.18 99.1602 101.9 99.0002 101.62L92.1702 88.97C92.1302 88.75 90.9602 88.6 90.7602 88.6C90.5602 88.6 90.3902 88.76 90.3502 88.97L90.7402 103.31V103.42C90.7402 103.43 90.7402 103.43 90.7402 103.44C90.7302 105.93 88.7002 107.95 86.2002 107.95C84.2602 107.95 82.6102 106.74 81.9602 105.04L81.6702 103.28L78.2402 83.12L89.5802 75.09L102.28 83.11L106.95 96.81L107.05 97.1C107.19 97.45 107.37 97.79 107.61 98.09C107.76 98.54 107.84 99.03 107.84 99.53Z" fill="url(#paint8_linear_201_1446)" style=""/>
<path d="M107.84 99.53C107.84 102.1 105.76 104.18 103.19 104.18C101.91 104.18 100.76 103.66 99.9202 102.83C99.7902 102.7 99.6702 102.57 99.5602 102.43C99.3502 102.18 99.1602 101.9 99.0002 101.62L92.1702 88.97C92.1302 88.75 90.9602 88.6 90.7602 88.6C90.5602 88.6 90.3902 88.76 90.3502 88.97L90.7402 103.31V103.42C90.7402 103.43 90.7402 103.43 90.7402 103.44C90.7302 105.93 88.7002 107.95 86.2002 107.95C84.2602 107.95 82.6102 106.74 81.9602 105.04L81.6702 103.28L78.2402 83.12L89.5802 75.09L102.28 83.11L106.95 96.81L107.05 97.1C107.19 97.45 107.37 97.79 107.61 98.09C107.76 98.54 107.84 99.03 107.84 99.53Z" fill="url(#paint9_linear_201_1446)" style=""/>
<path d="M104.89 75.64L102.25 73.42C102.08 73.3 101.53 73.66 101.34 73.71C101.28 73.71 100.82 73.86 100.76 73.87L99.8601 74.03C99.4801 74.12 99.2301 74.51 99.3201 74.9L99.3601 75.11C99.4401 75.5 99.8201 75.75 100.2 75.66L101.57 75.34L103.95 77.02C104.27 77.25 104.71 77.16 104.94 76.83L105.06 76.65C105.29 76.32 105.21 75.87 104.89 75.64Z" fill="#EDA600" style="fill:#EDA600;fill:color(display-p3 0.9294 0.6510 0.0000);fill-opacity:1;"/>
<path d="M104.89 75.64L102.25 73.42C102.08 73.3 101.53 73.66 101.34 73.71C101.28 73.71 100.82 73.86 100.76 73.87L99.8601 74.03C99.4801 74.12 99.2301 74.51 99.3201 74.9L99.3601 75.11C99.4401 75.5 99.8201 75.75 100.2 75.66L101.57 75.34L103.95 77.02C104.27 77.25 104.71 77.16 104.94 76.83L105.06 76.65C105.29 76.32 105.21 75.87 104.89 75.64Z" fill="#EDBD82" style="fill:#EDBD82;fill:color(display-p3 0.9294 0.7412 0.5098);fill-opacity:1;"/>
<path d="M104.89 75.64L102.25 73.42C102.08 73.3 101.53 73.66 101.34 73.71C101.28 73.71 100.82 73.86 100.76 73.87L99.8601 74.03C99.4801 74.12 99.2301 74.51 99.3201 74.9L99.3601 75.11C99.4401 75.5 99.8201 75.75 100.2 75.66L101.57 75.34L103.95 77.02C104.27 77.25 104.71 77.16 104.94 76.83L105.06 76.65C105.29 76.32 105.21 75.87 104.89 75.64Z" fill="#3C2B24" style="fill:#3C2B24;fill:color(display-p3 0.2353 0.1686 0.1412);fill-opacity:1;"/>
<path d="M108.77 60.8401C108.77 60.8401 106.7 53.4301 89.7295 53.4301C72.7595 53.4301 71.7695 60.8401 71.7695 60.8401L78.1195 65.6701H101.37L108.77 60.8401Z" fill="#444444" style="fill:#444444;fill:color(display-p3 0.2667 0.2667 0.2667);fill-opacity:1;"/>
<path d="M109.74 60.8401C109.74 60.8401 106.67 53.4301 89.7002 53.4301C72.7302 53.4301 70.7402 60.8401 70.7402 60.8401L78.1602 67.7301V83.1501L87.9002 89.5801C88.6702 89.9701 89.5202 90.1701 90.3802 90.1701C91.2702 90.1701 92.1502 89.9501 92.9402 89.5401L102.25 83.1501V67.7301L109.74 60.8401Z" fill="url(#paint10_linear_201_1446)" style=""/>
<path d="M115.71 69.51L108.32 59.74L102.14 64.1L109.56 71.05L104.37 75.36C103.83 75.34 102.9 75.2 101.71 75.2H101.32L101.3 75.19C101.3 75.19 99.6297 75.31 99.1897 75.65C98.7897 75.96 98.8297 76.5 99.0097 76.7C99.2197 76.94 99.1697 77.36 98.9597 77.59C98.7497 77.83 98.6197 78.12 98.6397 78.42C98.6597 78.71 98.7897 78.88 99.0797 79.1C99.2197 79.2 99.2897 79.48 99.2197 79.63C99.0997 79.87 98.9097 80.28 98.9497 80.5C99.0397 80.93 99.4797 81.02 99.5797 81.35C99.6197 81.48 99.2097 81.92 99.6297 82.29C100.02 82.64 100.69 82.92 101.71 82.92C102.62 82.92 103.81 82.7 105.32 82.1C105.36 82.08 115.71 73.66 115.71 73.66C116.76 72.55 116.71 70.67 115.71 69.51Z" fill="url(#paint11_linear_201_1446)" style=""/>
<path d="M115.71 69.51L108.32 59.74L102.14 64.1L109.56 71.05L104.37 75.36C103.83 75.34 102.9 75.2 101.71 75.2H101.32L101.3 75.19C101.3 75.19 99.6297 75.31 99.1897 75.65C98.7897 75.96 98.8297 76.5 99.0097 76.7C99.2197 76.94 99.1697 77.36 98.9597 77.59C98.7497 77.83 98.6197 78.12 98.6397 78.42C98.6597 78.71 98.7897 78.88 99.0797 79.1C99.2197 79.2 99.2897 79.48 99.2197 79.63C99.0997 79.87 98.9097 80.28 98.9497 80.5C99.0397 80.93 99.4797 81.02 99.5797 81.35C99.6197 81.48 99.2097 81.92 99.6297 82.29C100.02 82.64 100.69 82.92 101.71 82.92C102.62 82.92 103.81 82.7 105.32 82.1C105.36 82.08 115.71 73.66 115.71 73.66C116.76 72.55 116.71 70.67 115.71 69.51Z" fill="url(#paint12_linear_201_1446)" style=""/>
<path d="M115.71 69.51L108.32 59.74L102.14 64.1L109.56 71.05L104.37 75.36C103.83 75.34 102.9 75.2 101.71 75.2H101.32L101.3 75.19C101.3 75.19 99.6297 75.31 99.1897 75.65C98.7897 75.96 98.8297 76.5 99.0097 76.7C99.2197 76.94 99.1697 77.36 98.9597 77.59C98.7497 77.83 98.6197 78.12 98.6397 78.42C98.6597 78.71 98.7897 78.88 99.0797 79.1C99.2197 79.2 99.2897 79.48 99.2197 79.63C99.0997 79.87 98.9097 80.28 98.9497 80.5C99.0397 80.93 99.4797 81.02 99.5797 81.35C99.6197 81.48 99.2097 81.92 99.6297 82.29C100.02 82.64 100.69 82.92 101.71 82.92C102.62 82.92 103.81 82.7 105.32 82.1C105.36 82.08 115.71 73.66 115.71 73.66C116.76 72.55 116.71 70.67 115.71 69.51Z" fill="url(#paint13_linear_201_1446)" style=""/>
<path d="M82.2197 78.44C82.2397 78.14 82.1097 77.85 81.8997 77.61C81.6897 77.37 81.6397 76.95 81.8497 76.72C82.0297 76.52 82.0597 75.97 81.6697 75.67C81.2297 75.33 79.5597 75.21 79.5597 75.21L79.5397 75.22H79.1497C77.9597 75.22 77.0297 75.35 76.4897 75.38L71.2997 71.07L78.7197 64.12L72.5297 59.74L65.1497 69.53C64.1497 70.68 64.0997 72.57 65.1497 73.68C65.1497 73.68 75.4997 82.1 75.5397 82.12C77.0497 82.71 78.2397 82.94 79.1497 82.94C80.1597 82.94 80.8397 82.66 81.2297 82.31C81.6497 81.93 81.2397 81.5 81.2797 81.37C81.3797 81.04 81.8097 80.95 81.9097 80.52C81.9597 80.31 81.7597 79.89 81.6397 79.65C81.5597 79.5 81.6397 79.22 81.7797 79.12C82.0697 78.9 82.1997 78.73 82.2197 78.44Z" fill="url(#paint14_linear_201_1446)" style=""/>
<path d="M82.2197 78.44C82.2397 78.14 82.1097 77.85 81.8997 77.61C81.6897 77.37 81.6397 76.95 81.8497 76.72C82.0297 76.52 82.0597 75.97 81.6697 75.67C81.2297 75.33 79.5597 75.21 79.5597 75.21L79.5397 75.22H79.1497C77.9597 75.22 77.0297 75.35 76.4897 75.38L71.2997 71.07L78.7197 64.12L72.5297 59.74L65.1497 69.53C64.1497 70.68 64.0997 72.57 65.1497 73.68C65.1497 73.68 75.4997 82.1 75.5397 82.12C77.0497 82.71 78.2397 82.94 79.1497 82.94C80.1597 82.94 80.8397 82.66 81.2297 82.31C81.6497 81.93 81.2397 81.5 81.2797 81.37C81.3797 81.04 81.8097 80.95 81.9097 80.52C81.9597 80.31 81.7597 79.89 81.6397 79.65C81.5597 79.5 81.6397 79.22 81.7797 79.12C82.0697 78.9 82.1997 78.73 82.2197 78.44Z" fill="url(#paint15_linear_201_1446)" style=""/>
<path d="M82.2197 78.44C82.2397 78.14 82.1097 77.85 81.8997 77.61C81.6897 77.37 81.6397 76.95 81.8497 76.72C82.0297 76.52 82.0597 75.97 81.6697 75.67C81.2297 75.33 79.5597 75.21 79.5597 75.21L79.5397 75.22H79.1497C77.9597 75.22 77.0297 75.35 76.4897 75.38L71.2997 71.07L78.7197 64.12L72.5297 59.74L65.1497 69.53C64.1497 70.68 64.0997 72.57 65.1497 73.68C65.1497 73.68 75.4997 82.1 75.5397 82.12C77.0497 82.71 78.2397 82.94 79.1497 82.94C80.1597 82.94 80.8397 82.66 81.2297 82.31C81.6497 81.93 81.2397 81.5 81.2797 81.37C81.3797 81.04 81.8097 80.95 81.9097 80.52C81.9597 80.31 81.7597 79.89 81.6397 79.65C81.5597 79.5 81.6397 79.22 81.7797 79.12C82.0697 78.9 82.1997 78.73 82.2197 78.44Z" fill="url(#paint16_linear_201_1446)" style=""/>
<path d="M109.77 60.8401C109.77 60.8401 106.7 53.4301 89.7295 53.4301C72.7595 53.4301 70.7695 60.8401 70.7695 60.8401L78.1195 67.6701H102.37L109.77 60.8401Z" fill="url(#paint17_linear_201_1446)" style=""/>
<path d="M100.76 54.8501C100.67 57.8501 96.9398 62.0701 90.2598 62.0701C83.4998 62.0701 79.7598 57.7401 79.7598 54.7401C79.7598 54.6901 79.7598 54.6401 79.7698 54.5901C82.2498 53.8901 85.4898 53.4301 89.7298 53.4301C94.4798 53.4301 98.0698 54.0101 100.76 54.8501Z" fill="#FFCA28" style="fill:#FFCA28;fill:color(display-p3 1.0000 0.7922 0.1569);fill-opacity:1;"/>
<path d="M100.76 54.8501C100.67 57.8501 96.9398 62.0701 90.2598 62.0701C83.4998 62.0701 79.7598 57.7401 79.7598 54.7401C79.7598 54.6901 79.7598 54.6401 79.7698 54.5901C82.2498 53.8901 85.4898 53.4301 89.7298 53.4301C94.4798 53.4301 98.0698 54.0101 100.76 54.8501Z" fill="#F9DDBD" style="fill:#F9DDBD;fill:color(display-p3 0.9765 0.8667 0.7412);fill-opacity:1;"/>
<path d="M100.76 54.8501C100.67 57.8501 96.9398 62.0701 90.2598 62.0701C83.4998 62.0701 79.7598 57.7401 79.7598 54.7401C79.7598 54.6901 79.7598 54.6401 79.7698 54.5901C82.2498 53.8901 85.4898 53.4301 89.7298 53.4301C94.4798 53.4301 98.0698 54.0101 100.76 54.8501Z" fill="#70534A" style="fill:#70534A;fill:color(display-p3 0.4392 0.3255 0.2902);fill-opacity:1;"/>
<path d="M89.8503 57.8C87.8803 57.8 86.2803 56.28 86.2803 54.4V50.14H94.2403V54.4C94.2403 56.27 92.6403 57.8 90.6703 57.8H89.8503Z" fill="#E59600" style="fill:#E59600;fill:color(display-p3 0.8980 0.5882 0.0000);fill-opacity:1;"/>
<path d="M89.8503 57.8C87.8803 57.8 86.2803 56.28 86.2803 54.4V50.14H94.2403V54.4C94.2403 56.27 92.6403 57.8 90.6703 57.8H89.8503Z" fill="#3C2B24" style="fill:#3C2B24;fill:color(display-p3 0.2353 0.1686 0.1412);fill-opacity:1;"/>
<path d="M90.2999 20.77C83.4599 20.77 77.1299 25.87 77.1299 36.68C77.1299 45.36 82.4899 50.5 87.1599 52.16C88.2699 52.55 89.3499 52.75 90.2999 52.75C91.2499 52.75 92.3099 52.55 93.4199 52.16C98.0899 50.51 103.47 45.37 103.47 36.68C103.47 25.87 97.1399 20.77 90.2999 20.77Z" fill="#FFCA28" style="fill:#FFCA28;fill:color(display-p3 1.0000 0.7922 0.1569);fill-opacity:1;"/>
<path d="M90.2999 20.77C83.4599 20.77 77.1299 25.87 77.1299 36.68C77.1299 45.36 82.4899 50.5 87.1599 52.16C88.2699 52.55 89.3499 52.75 90.2999 52.75C91.2499 52.75 92.3099 52.55 93.4199 52.16C98.0899 50.51 103.47 45.37 103.47 36.68C103.47 25.87 97.1399 20.77 90.2999 20.77Z" fill="#F9DDBD" style="fill:#F9DDBD;fill:color(display-p3 0.9765 0.8667 0.7412);fill-opacity:1;"/>
<path d="M90.2999 20.77C83.4599 20.77 77.1299 25.87 77.1299 36.68C77.1299 45.36 82.4899 50.5 87.1599 52.16C88.2699 52.55 89.3499 52.75 90.2999 52.75C91.2499 52.75 92.3099 52.55 93.4199 52.16C98.0899 50.51 103.47 45.37 103.47 36.68C103.47 25.87 97.1399 20.77 90.2999 20.77Z" fill="#70534A" style="fill:#70534A;fill:color(display-p3 0.4392 0.3255 0.2902);fill-opacity:1;"/>
<path d="M83.9095 40.53C84.9754 40.53 85.8395 39.6301 85.8395 38.52C85.8395 37.4099 84.9754 36.51 83.9095 36.51C82.8436 36.51 81.9795 37.4099 81.9795 38.52C81.9795 39.6301 82.8436 40.53 83.9095 40.53Z" fill="#6D4C41" style="fill:#6D4C41;fill:color(display-p3 0.4275 0.2980 0.2549);fill-opacity:1;"/>
<path d="M83.9095 40.53C84.9754 40.53 85.8395 39.6301 85.8395 38.52C85.8395 37.4099 84.9754 36.51 83.9095 36.51C82.8436 36.51 81.9795 37.4099 81.9795 38.52C81.9795 39.6301 82.8436 40.53 83.9095 40.53Z" fill="#454140" style="fill:#454140;fill:color(display-p3 0.2706 0.2549 0.2510);fill-opacity:1;"/>
<path d="M83.9095 40.53C84.9754 40.53 85.8395 39.6301 85.8395 38.52C85.8395 37.4099 84.9754 36.51 83.9095 36.51C82.8436 36.51 81.9795 37.4099 81.9795 38.52C81.9795 39.6301 82.8436 40.53 83.9095 40.53Z" fill="#1A1717" style="fill:#1A1717;fill:color(display-p3 0.1020 0.0902 0.0902);fill-opacity:1;"/>
<path d="M96.8196 40.53C97.8856 40.53 98.7496 39.6301 98.7496 38.52C98.7496 37.4099 97.8856 36.51 96.8196 36.51C95.7537 36.51 94.8896 37.4099 94.8896 38.52C94.8896 39.6301 95.7537 40.53 96.8196 40.53Z" fill="#6D4C41" style="fill:#6D4C41;fill:color(display-p3 0.4275 0.2980 0.2549);fill-opacity:1;"/>
<path d="M96.8196 40.53C97.8856 40.53 98.7496 39.6301 98.7496 38.52C98.7496 37.4099 97.8856 36.51 96.8196 36.51C95.7537 36.51 94.8896 37.4099 94.8896 38.52C94.8896 39.6301 95.7537 40.53 96.8196 40.53Z" fill="#454140" style="fill:#454140;fill:color(display-p3 0.2706 0.2549 0.2510);fill-opacity:1;"/>
<path d="M96.8196 40.53C97.8856 40.53 98.7496 39.6301 98.7496 38.52C98.7496 37.4099 97.8856 36.51 96.8196 36.51C95.7537 36.51 94.8896 37.4099 94.8896 38.52C94.8896 39.6301 95.7537 40.53 96.8196 40.53Z" fill="#1A1717" style="fill:#1A1717;fill:color(display-p3 0.1020 0.0902 0.0902);fill-opacity:1;"/>
<path d="M91.7794 42.1701C91.7394 42.1501 91.6994 42.1401 91.6494 42.1401H88.8694C88.8294 42.1501 88.7894 42.1601 88.7394 42.1701C88.4894 42.2701 88.3494 42.5301 88.4694 42.8101C88.5894 43.0901 89.1394 43.8701 90.2594 43.8701C91.3694 43.8701 91.9294 43.0901 92.0494 42.8101C92.1694 42.5401 92.0294 42.2801 91.7794 42.1701Z" fill="#E59600" style="fill:#E59600;fill:color(display-p3 0.8980 0.5882 0.0000);fill-opacity:1;"/>
<path d="M91.7794 42.1701C91.7394 42.1501 91.6994 42.1401 91.6494 42.1401H88.8694C88.8294 42.1501 88.7894 42.1601 88.7394 42.1701C88.4894 42.2701 88.3494 42.5301 88.4694 42.8101C88.5894 43.0901 89.1394 43.8701 90.2594 43.8701C91.3694 43.8701 91.9294 43.0901 92.0494 42.8101C92.1694 42.5401 92.0294 42.2801 91.7794 42.1701Z" fill="#DBA689" style="fill:#DBA689;fill:color(display-p3 0.8588 0.6510 0.5373);fill-opacity:1;"/>
<path d="M91.7794 42.1701C91.7394 42.1501 91.6994 42.1401 91.6494 42.1401H88.8694C88.8294 42.1501 88.7894 42.1601 88.7394 42.1701C88.4894 42.2701 88.3494 42.5301 88.4694 42.8101C88.5894 43.0901 89.1394 43.8701 90.2594 43.8701C91.3694 43.8701 91.9294 43.0901 92.0494 42.8101C92.1694 42.5401 92.0294 42.2801 91.7794 42.1701Z" fill="#33251F" style="fill:#33251F;fill:color(display-p3 0.2000 0.1451 0.1216);fill-opacity:1;"/>
<path d="M86.7802 34.91C86.4102 34.42 85.5602 33.71 83.9102 33.71C82.2602 33.71 81.4002 34.42 81.0402 34.91C80.8802 35.13 80.9202 35.38 81.0302 35.53C81.1302 35.67 81.4402 35.8 81.7902 35.68C82.1302 35.56 82.8002 35.22 83.9202 35.21C85.0402 35.22 85.7102 35.56 86.0502 35.68C86.3902 35.8 86.7002 35.67 86.8102 35.53C86.9102 35.37 86.9502 35.12 86.7802 34.91Z" fill="#6D4C41" style="fill:#6D4C41;fill:color(display-p3 0.4275 0.2980 0.2549);fill-opacity:1;"/>
<path d="M86.7802 34.91C86.4102 34.42 85.5602 33.71 83.9102 33.71C82.2602 33.71 81.4002 34.42 81.0402 34.91C80.8802 35.13 80.9202 35.38 81.0302 35.53C81.1302 35.67 81.4402 35.8 81.7902 35.68C82.1302 35.56 82.8002 35.22 83.9202 35.21C85.0402 35.22 85.7102 35.56 86.0502 35.68C86.3902 35.8 86.7002 35.67 86.8102 35.53C86.9102 35.37 86.9502 35.12 86.7802 34.91Z" fill="#454140" style="fill:#454140;fill:color(display-p3 0.2706 0.2549 0.2510);fill-opacity:1;"/>
<path d="M86.7802 34.91C86.4102 34.42 85.5602 33.71 83.9102 33.71C82.2602 33.71 81.4002 34.42 81.0402 34.91C80.8802 35.13 80.9202 35.38 81.0302 35.53C81.1302 35.67 81.4402 35.8 81.7902 35.68C82.1302 35.56 82.8002 35.22 83.9202 35.21C85.0402 35.22 85.7102 35.56 86.0502 35.68C86.3902 35.8 86.7002 35.67 86.8102 35.53C86.9102 35.37 86.9502 35.12 86.7802 34.91Z" fill="#1A1717" style="fill:#1A1717;fill:color(display-p3 0.1020 0.0902 0.0902);fill-opacity:1;"/>
<path d="M99.7001 34.91C99.3301 34.42 98.4801 33.71 96.8301 33.71C95.1801 33.71 94.3201 34.42 93.9601 34.91C93.8001 35.13 93.8401 35.38 93.9501 35.53C94.0501 35.67 94.3601 35.8 94.7101 35.68C95.0501 35.56 95.7201 35.22 96.8401 35.21C97.9601 35.22 98.6301 35.56 98.9701 35.68C99.3101 35.8 99.6201 35.67 99.7301 35.53C99.8201 35.37 99.8601 35.12 99.7001 34.91Z" fill="#6D4C41" style="fill:#6D4C41;fill:color(display-p3 0.4275 0.2980 0.2549);fill-opacity:1;"/>
<path d="M99.7001 34.91C99.3301 34.42 98.4801 33.71 96.8301 33.71C95.1801 33.71 94.3201 34.42 93.9601 34.91C93.8001 35.13 93.8401 35.38 93.9501 35.53C94.0501 35.67 94.3601 35.8 94.7101 35.68C95.0501 35.56 95.7201 35.22 96.8401 35.21C97.9601 35.22 98.6301 35.56 98.9701 35.68C99.3101 35.8 99.6201 35.67 99.7301 35.53C99.8201 35.37 99.8601 35.12 99.7001 34.91Z" fill="#454140" style="fill:#454140;fill:color(display-p3 0.2706 0.2549 0.2510);fill-opacity:1;"/>
<path d="M99.7001 34.91C99.3301 34.42 98.4801 33.71 96.8301 33.71C95.1801 33.71 94.3201 34.42 93.9601 34.91C93.8001 35.13 93.8401 35.38 93.9501 35.53C94.0501 35.67 94.3601 35.8 94.7101 35.68C95.0501 35.56 95.7201 35.22 96.8401 35.21C97.9601 35.22 98.6301 35.56 98.9701 35.68C99.3101 35.8 99.6201 35.67 99.7301 35.53C99.8201 35.37 99.8601 35.12 99.7001 34.91Z" fill="#1A1717" style="fill:#1A1717;fill:color(display-p3 0.1020 0.0902 0.0902);fill-opacity:1;"/>
<path d="M90.4698 16.8301C74.1298 16.8301 74.2598 31.9401 74.2598 32.1801C74.2598 39.4801 74.6798 49.0301 76.5198 55.6701C77.1198 55.4001 77.7798 55.1501 78.4998 54.9201C78.7598 54.8301 79.0298 54.7501 79.3098 54.6701C79.1598 52.6301 78.5198 43.8501 78.4398 39.4301C78.4198 38.2601 78.0698 33.9101 80.4898 33.3601C89.3798 31.3401 94.3998 26.5701 94.3998 26.5701C95.7098 29.4601 99.7998 32.2801 101.26 33.3501C102.47 34.2301 102.3 37.8401 102.27 39.3901L101.08 54.8801C101.24 54.9301 101.4 54.9801 101.56 55.0301C102.42 55.3101 103.19 55.6201 103.89 55.9301C105.8 49.2801 106.22 39.5801 106.22 32.1801C106.22 31.9401 106.81 16.8301 90.4698 16.8301Z" fill="#543930" style="fill:#543930;fill:color(display-p3 0.3294 0.2235 0.1882);fill-opacity:1;"/>
<path d="M90.4698 16.8301C74.1298 16.8301 74.2598 31.9401 74.2598 32.1801C74.2598 39.4801 74.6798 49.0301 76.5198 55.6701C77.1198 55.4001 77.7798 55.1501 78.4998 54.9201C78.7598 54.8301 79.0298 54.7501 79.3098 54.6701C79.1598 52.6301 78.5198 43.8501 78.4398 39.4301C78.4198 38.2601 78.0698 33.9101 80.4898 33.3601C89.3798 31.3401 94.3998 26.5701 94.3998 26.5701C95.7098 29.4601 99.7998 32.2801 101.26 33.3501C102.47 34.2301 102.3 37.8401 102.27 39.3901L101.08 54.8801C101.24 54.9301 101.4 54.9801 101.56 55.0301C102.42 55.3101 103.19 55.6201 103.89 55.9301C105.8 49.2801 106.22 39.5801 106.22 32.1801C106.22 31.9401 106.81 16.8301 90.4698 16.8301Z" fill="#312D2D" style="fill:#312D2D;fill:color(display-p3 0.1922 0.1765 0.1765);fill-opacity:1;"/>
<path d="M93.5701 45.5801C92.3201 46.3301 88.2201 46.3301 86.9701 45.5801C86.2501 45.1501 85.5201 45.8101 85.8201 46.4601C86.1101 47.1001 88.3501 48.6001 90.2801 48.6001C92.2101 48.6001 94.4201 47.1101 94.7201 46.4601C95.0201 45.8001 94.2901 45.1501 93.5701 45.5801Z" fill="#6D4C41" style="fill:#6D4C41;fill:color(display-p3 0.4275 0.2980 0.2549);fill-opacity:1;"/>
<path d="M93.5701 45.5801C92.3201 46.3301 88.2201 46.3301 86.9701 45.5801C86.2501 45.1501 85.5201 45.8101 85.8201 46.4601C86.1101 47.1001 88.3501 48.6001 90.2801 48.6001C92.2101 48.6001 94.4201 47.1101 94.7201 46.4601C95.0201 45.8001 94.2901 45.1501 93.5701 45.5801Z" fill="#454140" style="fill:#454140;fill:color(display-p3 0.2706 0.2549 0.2510);fill-opacity:1;"/>
<path d="M93.5701 45.5801C92.3201 46.3301 88.2201 46.3301 86.9701 45.5801C86.2501 45.1501 85.5201 45.8101 85.8201 46.4601C86.1101 47.1001 88.3501 48.6001 90.2801 48.6001C92.2101 48.6001 94.4201 47.1101 94.7201 46.4601C95.0201 45.8001 94.2901 45.1501 93.5701 45.5801Z" fill="#1A1717" style="fill:#1A1717;fill:color(display-p3 0.1020 0.0902 0.0902);fill-opacity:1;"/>
<path d="M87.99 124.5H83.61C82.8 124.48 82.22 123.55 82.46 122.75C83.19 120.29 85.41 118.48 87.99 118.48C90.63 118.48 92.88 120.36 93.56 122.89C93.78 123.7 93.18 124.5 92.37 124.5H87.99Z" fill="#504F4F" style="fill:#504F4F;fill:color(display-p3 0.3137 0.3098 0.3098);fill-opacity:1;"/>
<path d="M90.4698 16.8301C74.1298 16.8301 74.2598 31.9401 74.2598 32.1801C74.2598 35.2701 74.3298 38.7601 74.5598 42.2701L77.2398 42.2601C77.2198 41.1001 78.0298 33.9101 80.4598 33.3601C89.3698 31.3601 94.4098 26.6301 94.4098 26.6301C95.7198 29.4901 99.8198 32.2901 101.29 33.3501C102.5 34.2201 102.87 40.7401 102.85 42.2701H105.92C105.92 42.2501 105.93 42.2301 105.93 42.2101C106.15 38.7201 106.23 35.2501 106.23 32.1801C106.22 31.9401 106.81 16.8301 90.4698 16.8301Z" fill="url(#paint18_radial_201_1446)" style=""/>
<path d="M105.84 5.84007C105.67 4.84007 104.64 4.25007 103.7 4.60007C101.48 5.42007 97.7196 7.23007 95.8196 10.5301C94.3896 13.0101 93.7896 16.6901 93.5496 19.7101C93.4596 20.8101 92.5096 21.6301 91.4096 21.5501C91.0396 21.5201 89.4696 21.5201 89.0996 21.5501C87.9996 21.6301 87.0396 20.8201 86.9596 19.7101C86.7196 16.6901 86.1196 13.0101 84.6896 10.5301C82.7896 7.22007 79.0096 5.42007 76.7996 4.60007C75.8596 4.25007 74.8496 4.84007 74.6796 5.83007C74.2796 8.16007 73.9496 12.3501 75.8596 15.6501C77.2896 18.1401 80.1596 20.4901 82.6496 22.2101C83.2096 22.6001 83.2096 23.4101 82.6696 23.8301C81.6596 24.6001 80.8996 25.5001 80.3096 26.4001C79.7296 27.3001 80.7596 28.3901 81.6596 27.8101C83.4396 26.6601 86.1496 25.7201 90.2496 25.7201C94.3496 25.7201 97.0596 26.6601 98.8396 27.8101C99.7396 28.3901 100.78 27.3001 100.19 26.4001C99.5996 25.4901 98.8396 24.6001 97.8396 23.8201C97.2996 23.4001 97.2996 22.5901 97.8596 22.2001C100.34 20.4801 103.21 18.1301 104.65 15.6401C106.56 12.3501 106.24 8.18007 105.84 5.84007Z" fill="url(#paint19_linear_201_1446)" style=""/>
<path d="M98.1596 12.2701C97.1196 14.0701 96.9096 17.1301 96.8596 18.4501C96.8496 18.7401 97.1496 18.9201 97.3996 18.7601C98.5196 18.0601 101.05 16.3501 102.09 14.5401C103 12.9601 102.92 11.0001 102.77 9.91011C102.71 9.44011 102.25 9.18011 101.82 9.36011C100.8 9.78011 99.0696 10.6901 98.1596 12.2701Z" fill="#FF4081" style="fill:#FF4081;fill:color(display-p3 1.0000 0.2510 0.5059);fill-opacity:1;"/>
<path d="M82.3499 12.2701C83.3899 14.0701 83.6099 17.1301 83.6499 18.4601C83.6599 18.7501 83.3599 18.9301 83.1199 18.7701C81.9999 18.0701 79.4699 16.3601 78.4299 14.5501C77.5199 12.9701 77.5999 11.0101 77.7399 9.92012C77.7999 9.45012 78.2599 9.19012 78.6899 9.37012C79.6999 9.78012 81.4399 10.6901 82.3499 12.2701Z" fill="#FF4081" style="fill:#FF4081;fill:color(display-p3 1.0000 0.2510 0.5059);fill-opacity:1;"/>
<path d="M20.1104 75.9L22.4404 73.52C22.6104 73.4 23.5404 73.38 23.7304 73.44C23.7904 73.44 24.1804 74.13 24.2404 74.14L25.1404 74.3C25.5204 74.39 25.7704 74.78 25.6804 75.17L25.6404 75.38C25.5604 75.77 25.1804 76.02 24.8004 75.93L23.4304 75.61L21.0504 77.29C20.7304 77.52 20.2904 77.43 20.0604 77.1L19.9404 76.92C19.7104 76.57 19.7904 76.12 20.1104 75.9Z" fill="#EDA600" style="fill:#EDA600;fill:color(display-p3 0.9294 0.6510 0.0000);fill-opacity:1;"/>
<path d="M20.1104 75.9L22.4404 73.52C22.6104 73.4 23.5404 73.38 23.7304 73.44C23.7904 73.44 24.1804 74.13 24.2404 74.14L25.1404 74.3C25.5204 74.39 25.7704 74.78 25.6804 75.17L25.6404 75.38C25.5604 75.77 25.1804 76.02 24.8004 75.93L23.4304 75.61L21.0504 77.29C20.7304 77.52 20.2904 77.43 20.0604 77.1L19.9404 76.92C19.7104 76.57 19.7904 76.12 20.1104 75.9Z" fill="#EDBD82" style="fill:#EDBD82;fill:color(display-p3 0.9294 0.7412 0.5098);fill-opacity:1;"/>
<path d="M20.1104 75.9L22.4404 73.52C22.6104 73.4 23.5404 73.38 23.7304 73.44C23.7904 73.44 24.1804 74.13 24.2404 74.14L25.1404 74.3C25.5204 74.39 25.7704 74.78 25.6804 75.17L25.6404 75.38C25.5604 75.77 25.1804 76.02 24.8004 75.93L23.4304 75.61L21.0504 77.29C20.7304 77.52 20.2904 77.43 20.0604 77.1L19.9404 76.92C19.7104 76.57 19.7904 76.12 20.1104 75.9Z" fill="#3C2B24" style="fill:#3C2B24;fill:color(display-p3 0.2353 0.1686 0.1412);fill-opacity:1;"/>
<path d="M34.6603 16.8301C18.3603 16.8301 18.4903 31.9401 18.4903 32.1801C18.4903 41.9701 19.2403 55.8001 23.1403 61.2401C24.6903 63.4001 27.6803 63.5201 27.6803 63.5201L34.4303 63.5001L41.1703 63.5101C41.1703 63.5101 44.1603 63.3901 45.7103 61.2301C49.6203 55.7901 50.3603 41.9601 50.3603 32.1701C50.3703 31.9401 50.9603 16.8301 34.6603 16.8301Z" fill="#262626" style="fill:#262626;fill:color(display-p3 0.1490 0.1490 0.1490);fill-opacity:1;"/>
<path d="M64.99 113.67C64.43 111.24 61.75 108.55 59.12 105.95C57.42 104.27 54.36 104.62 52.69 106.33C51.02 108.04 50.72 111.11 52.42 112.79C55.05 115.39 57.78 118.03 60.21 118.55C62.12 118.96 63.71 118.35 64.28 117.77C64.85 117.18 65.43 115.58 64.99 113.67Z" fill="#504F4F" style="fill:#504F4F;fill:color(display-p3 0.3137 0.3098 0.3098);fill-opacity:1;"/>
<path d="M35.4504 124.32H29.3904L26.1104 105.04C26.7604 106.74 28.4104 107.95 30.3504 107.95C32.8504 107.95 34.8804 105.93 34.8904 103.44L35.4504 124.32Z" fill="url(#paint20_linear_201_1446)" style=""/>
<path d="M35.4504 124.32H29.3904L26.1104 105.04C26.7604 106.74 28.4104 107.95 30.3504 107.95C32.8504 107.95 34.8804 105.93 34.8904 103.44L35.4504 124.32Z" fill="url(#paint21_linear_201_1446)" style=""/>
<path d="M35.4504 124.32H29.3904L26.1104 105.04C26.7604 106.74 28.4104 107.95 30.3504 107.95C32.8504 107.95 34.8804 105.93 34.8904 103.44L35.4504 124.32Z" fill="url(#paint22_linear_201_1446)" style=""/>
<path d="M59.7103 113.97C58.7103 114.53 57.4703 114.46 56.5403 113.78L44.3903 103.14C44.2803 103.04 44.1703 102.94 44.0703 102.83C44.9103 103.66 46.0603 104.18 47.3403 104.18C49.9103 104.18 51.9903 102.1 51.9903 99.53C51.9903 99.03 51.9103 98.54 51.7603 98.09C51.7703 98.1 51.7803 98.12 51.7903 98.13L60.3403 109.29C61.7303 110.67 61.4203 113.01 59.7103 113.97Z" fill="url(#paint23_linear_201_1446)" style=""/>
<path d="M59.7103 113.97C58.7103 114.53 57.4703 114.46 56.5403 113.78L44.3903 103.14C44.2803 103.04 44.1703 102.94 44.0703 102.83C44.9103 103.66 46.0603 104.18 47.3403 104.18C49.9103 104.18 51.9903 102.1 51.9903 99.53C51.9903 99.03 51.9103 98.54 51.7603 98.09C51.7703 98.1 51.7803 98.12 51.7903 98.13L60.3403 109.29C61.7303 110.67 61.4203 113.01 59.7103 113.97Z" fill="url(#paint24_linear_201_1446)" style=""/>
<path d="M59.7103 113.97C58.7103 114.53 57.4703 114.46 56.5403 113.78L44.3903 103.14C44.2803 103.04 44.1703 102.94 44.0703 102.83C44.9103 103.66 46.0603 104.18 47.3403 104.18C49.9103 104.18 51.9903 102.1 51.9903 99.53C51.9903 99.03 51.9103 98.54 51.7603 98.09C51.7703 98.1 51.7803 98.12 51.7903 98.13L60.3403 109.29C61.7303 110.67 61.4203 113.01 59.7103 113.97Z" fill="url(#paint25_linear_201_1446)" style=""/>
<path d="M51.9897 99.53C51.9897 102.1 49.9096 104.18 47.3396 104.18C46.0596 104.18 44.9096 103.66 44.0696 102.83C43.9396 102.7 43.8196 102.57 43.7096 102.43C43.4996 102.18 43.3097 101.9 43.1497 101.62L36.3196 88.97C36.2796 88.75 35.1096 88.6 34.9096 88.6C34.7096 88.6 34.5396 88.76 34.4996 88.97L34.8896 103.31V103.42C34.8896 103.43 34.8896 103.43 34.8896 103.44C34.8796 105.93 32.8496 107.95 30.3496 107.95C28.4096 107.95 26.7596 106.74 26.1096 105.04L25.8196 103.28L22.3896 83.12L33.7296 75.09L46.4296 83.11L51.0996 96.81L51.1996 97.1C51.3396 97.45 51.5196 97.79 51.7596 98.09C51.9096 98.54 51.9897 99.03 51.9897 99.53Z" fill="url(#paint26_linear_201_1446)" style=""/>
<path d="M51.9897 99.53C51.9897 102.1 49.9096 104.18 47.3396 104.18C46.0596 104.18 44.9096 103.66 44.0696 102.83C43.9396 102.7 43.8196 102.57 43.7096 102.43C43.4996 102.18 43.3097 101.9 43.1497 101.62L36.3196 88.97C36.2796 88.75 35.1096 88.6 34.9096 88.6C34.7096 88.6 34.5396 88.76 34.4996 88.97L34.8896 103.31V103.42C34.8896 103.43 34.8896 103.43 34.8896 103.44C34.8796 105.93 32.8496 107.95 30.3496 107.95C28.4096 107.95 26.7596 106.74 26.1096 105.04L25.8196 103.28L22.3896 83.12L33.7296 75.09L46.4296 83.11L51.0996 96.81L51.1996 97.1C51.3396 97.45 51.5196 97.79 51.7596 98.09C51.9096 98.54 51.9897 99.03 51.9897 99.53Z" fill="url(#paint27_linear_201_1446)" style=""/>
<path d="M51.9897 99.53C51.9897 102.1 49.9096 104.18 47.3396 104.18C46.0596 104.18 44.9096 103.66 44.0696 102.83C43.9396 102.7 43.8196 102.57 43.7096 102.43C43.4996 102.18 43.3097 101.9 43.1497 101.62L36.3196 88.97C36.2796 88.75 35.1096 88.6 34.9096 88.6C34.7096 88.6 34.5396 88.76 34.4996 88.97L34.8896 103.31V103.42C34.8896 103.43 34.8896 103.43 34.8896 103.44C34.8796 105.93 32.8496 107.95 30.3496 107.95C28.4096 107.95 26.7596 106.74 26.1096 105.04L25.8196 103.28L22.3896 83.12L33.7296 75.09L46.4296 83.11L51.0996 96.81L51.1996 97.1C51.3396 97.45 51.5196 97.79 51.7596 98.09C51.9096 98.54 51.9897 99.03 51.9897 99.53Z" fill="url(#paint28_linear_201_1446)" style=""/>
<path d="M49.0396 75.64L46.3996 73.42C46.2296 73.3 45.6796 73.66 45.4896 73.71C45.4296 73.71 44.9696 73.86 44.9096 73.87L44.0096 74.03C43.6296 74.12 43.3796 74.51 43.4696 74.9L43.5096 75.11C43.5896 75.5 43.9696 75.75 44.3496 75.66L45.7196 75.34L48.0996 77.02C48.4196 77.25 48.8596 77.16 49.0896 76.83L49.2096 76.65C49.4396 76.32 49.3596 75.87 49.0396 75.64Z" fill="#EDA600" style="fill:#EDA600;fill:color(display-p3 0.9294 0.6510 0.0000);fill-opacity:1;"/>
<path d="M49.0396 75.64L46.3996 73.42C46.2296 73.3 45.6796 73.66 45.4896 73.71C45.4296 73.71 44.9696 73.86 44.9096 73.87L44.0096 74.03C43.6296 74.12 43.3796 74.51 43.4696 74.9L43.5096 75.11C43.5896 75.5 43.9696 75.75 44.3496 75.66L45.7196 75.34L48.0996 77.02C48.4196 77.25 48.8596 77.16 49.0896 76.83L49.2096 76.65C49.4396 76.32 49.3596 75.87 49.0396 75.64Z" fill="#EDBD82" style="fill:#EDBD82;fill:color(display-p3 0.9294 0.7412 0.5098);fill-opacity:1;"/>
<path d="M49.0396 75.64L46.3996 73.42C46.2296 73.3 45.6796 73.66 45.4896 73.71C45.4296 73.71 44.9696 73.86 44.9096 73.87L44.0096 74.03C43.6296 74.12 43.3796 74.51 43.4696 74.9L43.5096 75.11C43.5896 75.5 43.9696 75.75 44.3496 75.66L45.7196 75.34L48.0996 77.02C48.4196 77.25 48.8596 77.16 49.0896 76.83L49.2096 76.65C49.4396 76.32 49.3596 75.87 49.0396 75.64Z" fill="#3C2B24" style="fill:#3C2B24;fill:color(display-p3 0.2353 0.1686 0.1412);fill-opacity:1;"/>
<path d="M52.9199 60.8401C52.9199 60.8401 50.8499 53.4301 33.8799 53.4301C16.9099 53.4301 15.9199 60.8401 15.9199 60.8401L22.2699 65.6701H45.5199L52.9199 60.8401Z" fill="#444444" style="fill:#444444;fill:color(display-p3 0.2667 0.2667 0.2667);fill-opacity:1;"/>
<path d="M53.8896 60.8401C53.8896 60.8401 50.8196 53.4301 33.8496 53.4301C16.8796 53.4301 14.8896 60.8401 14.8896 60.8401L22.3096 67.7301V83.1501L32.0496 89.5801C32.8196 89.9701 33.6696 90.1701 34.5296 90.1701C35.4196 90.1701 36.2996 89.9501 37.0896 89.5401L46.3997 83.1501V67.7301L53.8896 60.8401Z" fill="url(#paint29_linear_201_1446)" style=""/>
<path d="M59.8601 69.51L52.4701 59.74L46.2901 64.1L53.7101 71.05L48.5201 75.36C47.9801 75.34 47.0501 75.2 45.8601 75.2H45.4701L45.4501 75.19C45.4501 75.19 43.7801 75.31 43.3401 75.65C42.9401 75.96 42.9801 76.5 43.1601 76.7C43.3701 76.94 43.3201 77.36 43.1101 77.59C42.9001 77.83 42.7701 78.12 42.7901 78.42C42.8101 78.71 42.9401 78.88 43.2301 79.1C43.3701 79.2 43.4401 79.48 43.3701 79.63C43.2501 79.87 43.0601 80.28 43.1001 80.5C43.1901 80.93 43.6301 81.02 43.7301 81.35C43.7701 81.48 43.3601 81.92 43.7801 82.29C44.1701 82.64 44.8401 82.92 45.8601 82.92C46.7701 82.92 47.9601 82.7 49.4701 82.1C49.5101 82.08 59.8601 73.66 59.8601 73.66C60.9101 72.55 60.8601 70.67 59.8601 69.51Z" fill="url(#paint30_linear_201_1446)" style=""/>
<path d="M59.8601 69.51L52.4701 59.74L46.2901 64.1L53.7101 71.05L48.5201 75.36C47.9801 75.34 47.0501 75.2 45.8601 75.2H45.4701L45.4501 75.19C45.4501 75.19 43.7801 75.31 43.3401 75.65C42.9401 75.96 42.9801 76.5 43.1601 76.7C43.3701 76.94 43.3201 77.36 43.1101 77.59C42.9001 77.83 42.7701 78.12 42.7901 78.42C42.8101 78.71 42.9401 78.88 43.2301 79.1C43.3701 79.2 43.4401 79.48 43.3701 79.63C43.2501 79.87 43.0601 80.28 43.1001 80.5C43.1901 80.93 43.6301 81.02 43.7301 81.35C43.7701 81.48 43.3601 81.92 43.7801 82.29C44.1701 82.64 44.8401 82.92 45.8601 82.92C46.7701 82.92 47.9601 82.7 49.4701 82.1C49.5101 82.08 59.8601 73.66 59.8601 73.66C60.9101 72.55 60.8601 70.67 59.8601 69.51Z" fill="url(#paint31_linear_201_1446)" style=""/>
<path d="M59.8601 69.51L52.4701 59.74L46.2901 64.1L53.7101 71.05L48.5201 75.36C47.9801 75.34 47.0501 75.2 45.8601 75.2H45.4701L45.4501 75.19C45.4501 75.19 43.7801 75.31 43.3401 75.65C42.9401 75.96 42.9801 76.5 43.1601 76.7C43.3701 76.94 43.3201 77.36 43.1101 77.59C42.9001 77.83 42.7701 78.12 42.7901 78.42C42.8101 78.71 42.9401 78.88 43.2301 79.1C43.3701 79.2 43.4401 79.48 43.3701 79.63C43.2501 79.87 43.0601 80.28 43.1001 80.5C43.1901 80.93 43.6301 81.02 43.7301 81.35C43.7701 81.48 43.3601 81.92 43.7801 82.29C44.1701 82.64 44.8401 82.92 45.8601 82.92C46.7701 82.92 47.9601 82.7 49.4701 82.1C49.5101 82.08 59.8601 73.66 59.8601 73.66C60.9101 72.55 60.8601 70.67 59.8601 69.51Z" fill="url(#paint32_linear_201_1446)" style=""/>
<path d="M26.3701 78.44C26.3901 78.14 26.2601 77.85 26.0501 77.61C25.8401 77.37 25.7901 76.95 26.0001 76.72C26.1801 76.52 26.2101 75.97 25.8201 75.67C25.3801 75.33 23.7101 75.21 23.7101 75.21L23.6901 75.22H23.3001C22.1101 75.22 21.1801 75.35 20.6401 75.38L15.4501 71.07L22.8701 64.12L16.6801 59.74L9.30011 69.53C8.30011 70.68 8.25011 72.57 9.30011 73.68C9.30011 73.68 19.6501 82.1 19.6901 82.12C21.2001 82.71 22.3901 82.94 23.3001 82.94C24.3101 82.94 24.9901 82.66 25.3801 82.31C25.8001 81.93 25.3901 81.5 25.4301 81.37C25.5301 81.04 25.9601 80.95 26.0601 80.52C26.1101 80.31 25.9101 79.89 25.7901 79.65C25.7101 79.5 25.7901 79.22 25.9301 79.12C26.2201 78.9 26.3501 78.73 26.3701 78.44Z" fill="url(#paint33_linear_201_1446)" style=""/>
<path d="M26.3701 78.44C26.3901 78.14 26.2601 77.85 26.0501 77.61C25.8401 77.37 25.7901 76.95 26.0001 76.72C26.1801 76.52 26.2101 75.97 25.8201 75.67C25.3801 75.33 23.7101 75.21 23.7101 75.21L23.6901 75.22H23.3001C22.1101 75.22 21.1801 75.35 20.6401 75.38L15.4501 71.07L22.8701 64.12L16.6801 59.74L9.30011 69.53C8.30011 70.68 8.25011 72.57 9.30011 73.68C9.30011 73.68 19.6501 82.1 19.6901 82.12C21.2001 82.71 22.3901 82.94 23.3001 82.94C24.3101 82.94 24.9901 82.66 25.3801 82.31C25.8001 81.93 25.3901 81.5 25.4301 81.37C25.5301 81.04 25.9601 80.95 26.0601 80.52C26.1101 80.31 25.9101 79.89 25.7901 79.65C25.7101 79.5 25.7901 79.22 25.9301 79.12C26.2201 78.9 26.3501 78.73 26.3701 78.44Z" fill="url(#paint34_linear_201_1446)" style=""/>
<path d="M26.3701 78.44C26.3901 78.14 26.2601 77.85 26.0501 77.61C25.8401 77.37 25.7901 76.95 26.0001 76.72C26.1801 76.52 26.2101 75.97 25.8201 75.67C25.3801 75.33 23.7101 75.21 23.7101 75.21L23.6901 75.22H23.3001C22.1101 75.22 21.1801 75.35 20.6401 75.38L15.4501 71.07L22.8701 64.12L16.6801 59.74L9.30011 69.53C8.30011 70.68 8.25011 72.57 9.30011 73.68C9.30011 73.68 19.6501 82.1 19.6901 82.12C21.2001 82.71 22.3901 82.94 23.3001 82.94C24.3101 82.94 24.9901 82.66 25.3801 82.31C25.8001 81.93 25.3901 81.5 25.4301 81.37C25.5301 81.04 25.9601 80.95 26.0601 80.52C26.1101 80.31 25.9101 79.89 25.7901 79.65C25.7101 79.5 25.7901 79.22 25.9301 79.12C26.2201 78.9 26.3501 78.73 26.3701 78.44Z" fill="url(#paint35_linear_201_1446)" style=""/>
<path d="M53.9199 60.8401C53.9199 60.8401 50.8499 53.4301 33.8799 53.4301C16.9099 53.4301 14.9199 60.8401 14.9199 60.8401L22.2699 67.6701H46.5199L53.9199 60.8401Z" fill="url(#paint36_linear_201_1446)" style=""/>
<path d="M44.9102 54.8501C44.8202 57.8501 41.0902 62.0701 34.4102 62.0701C27.6502 62.0701 23.9102 57.7401 23.9102 54.7401C23.9102 54.6901 23.9102 54.6401 23.9202 54.5901C26.4002 53.8901 29.6402 53.4301 33.8802 53.4301C38.6302 53.4301 42.2202 54.0101 44.9102 54.8501Z" fill="#FFCA28" style="fill:#FFCA28;fill:color(display-p3 1.0000 0.7922 0.1569);fill-opacity:1;"/>
<path d="M44.9102 54.8501C44.8202 57.8501 41.0902 62.0701 34.4102 62.0701C27.6502 62.0701 23.9102 57.7401 23.9102 54.7401C23.9102 54.6901 23.9102 54.6401 23.9202 54.5901C26.4002 53.8901 29.6402 53.4301 33.8802 53.4301C38.6302 53.4301 42.2202 54.0101 44.9102 54.8501Z" fill="#F9DDBD" style="fill:#F9DDBD;fill:color(display-p3 0.9765 0.8667 0.7412);fill-opacity:1;"/>
<path d="M44.9102 54.8501C44.8202 57.8501 41.0902 62.0701 34.4102 62.0701C27.6502 62.0701 23.9102 57.7401 23.9102 54.7401C23.9102 54.6901 23.9102 54.6401 23.9202 54.5901C26.4002 53.8901 29.6402 53.4301 33.8802 53.4301C38.6302 53.4301 42.2202 54.0101 44.9102 54.8501Z" fill="#70534A" style="fill:#70534A;fill:color(display-p3 0.4392 0.3255 0.2902);fill-opacity:1;"/>
<path d="M33.9997 57.8C32.0297 57.8 30.4297 56.28 30.4297 54.4V50.14H38.3897V54.4C38.3897 56.27 36.7897 57.8 34.8197 57.8H33.9997Z" fill="#E59600" style="fill:#E59600;fill:color(display-p3 0.8980 0.5882 0.0000);fill-opacity:1;"/>
<path d="M33.9997 57.8C32.0297 57.8 30.4297 56.28 30.4297 54.4V50.14H38.3897V54.4C38.3897 56.27 36.7897 57.8 34.8197 57.8H33.9997Z" fill="#3C2B24" style="fill:#3C2B24;fill:color(display-p3 0.2353 0.1686 0.1412);fill-opacity:1;"/>
<path d="M34.4503 20.77C27.6103 20.77 21.2803 25.87 21.2803 36.68C21.2803 45.36 26.6403 50.5 31.3103 52.16C32.4203 52.55 33.5003 52.75 34.4503 52.75C35.4003 52.75 36.4603 52.55 37.5703 52.16C42.2403 50.51 47.6203 45.37 47.6203 36.68C47.6203 25.87 41.2903 20.77 34.4503 20.77Z" fill="#FFCA28" style="fill:#FFCA28;fill:color(display-p3 1.0000 0.7922 0.1569);fill-opacity:1;"/>
<path d="M34.4503 20.77C27.6103 20.77 21.2803 25.87 21.2803 36.68C21.2803 45.36 26.6403 50.5 31.3103 52.16C32.4203 52.55 33.5003 52.75 34.4503 52.75C35.4003 52.75 36.4603 52.55 37.5703 52.16C42.2403 50.51 47.6203 45.37 47.6203 36.68C47.6203 25.87 41.2903 20.77 34.4503 20.77Z" fill="#F9DDBD" style="fill:#F9DDBD;fill:color(display-p3 0.9765 0.8667 0.7412);fill-opacity:1;"/>
<path d="M34.4503 20.77C27.6103 20.77 21.2803 25.87 21.2803 36.68C21.2803 45.36 26.6403 50.5 31.3103 52.16C32.4203 52.55 33.5003 52.75 34.4503 52.75C35.4003 52.75 36.4603 52.55 37.5703 52.16C42.2403 50.51 47.6203 45.37 47.6203 36.68C47.6203 25.87 41.2903 20.77 34.4503 20.77Z" fill="#70534A" style="fill:#70534A;fill:color(display-p3 0.4392 0.3255 0.2902);fill-opacity:1;"/>
<path d="M28.0599 40.53C29.1258 40.53 29.9899 39.6301 29.9899 38.52C29.9899 37.4099 29.1258 36.51 28.0599 36.51C26.994 36.51 26.1299 37.4099 26.1299 38.52C26.1299 39.6301 26.994 40.53 28.0599 40.53Z" fill="#6D4C41" style="fill:#6D4C41;fill:color(display-p3 0.4275 0.2980 0.2549);fill-opacity:1;"/>
<path d="M28.0599 40.53C29.1258 40.53 29.9899 39.6301 29.9899 38.52C29.9899 37.4099 29.1258 36.51 28.0599 36.51C26.994 36.51 26.1299 37.4099 26.1299 38.52C26.1299 39.6301 26.994 40.53 28.0599 40.53Z" fill="#454140" style="fill:#454140;fill:color(display-p3 0.2706 0.2549 0.2510);fill-opacity:1;"/>
<path d="M28.0599 40.53C29.1258 40.53 29.9899 39.6301 29.9899 38.52C29.9899 37.4099 29.1258 36.51 28.0599 36.51C26.994 36.51 26.1299 37.4099 26.1299 38.52C26.1299 39.6301 26.994 40.53 28.0599 40.53Z" fill="#1A1717" style="fill:#1A1717;fill:color(display-p3 0.1020 0.0902 0.0902);fill-opacity:1;"/>
<path d="M40.97 40.53C42.0359 40.53 42.9 39.6301 42.9 38.52C42.9 37.4099 42.0359 36.51 40.97 36.51C39.9041 36.51 39.04 37.4099 39.04 38.52C39.04 39.6301 39.9041 40.53 40.97 40.53Z" fill="#6D4C41" style="fill:#6D4C41;fill:color(display-p3 0.4275 0.2980 0.2549);fill-opacity:1;"/>
<path d="M40.97 40.53C42.0359 40.53 42.9 39.6301 42.9 38.52C42.9 37.4099 42.0359 36.51 40.97 36.51C39.9041 36.51 39.04 37.4099 39.04 38.52C39.04 39.6301 39.9041 40.53 40.97 40.53Z" fill="#454140" style="fill:#454140;fill:color(display-p3 0.2706 0.2549 0.2510);fill-opacity:1;"/>
<path d="M40.97 40.53C42.0359 40.53 42.9 39.6301 42.9 38.52C42.9 37.4099 42.0359 36.51 40.97 36.51C39.9041 36.51 39.04 37.4099 39.04 38.52C39.04 39.6301 39.9041 40.53 40.97 40.53Z" fill="#1A1717" style="fill:#1A1717;fill:color(display-p3 0.1020 0.0902 0.0902);fill-opacity:1;"/>
<path d="M35.9298 42.1701C35.8898 42.1501 35.8498 42.1401 35.7998 42.1401H33.0198C32.9798 42.1501 32.9398 42.1601 32.8898 42.1701C32.6398 42.2701 32.4998 42.5301 32.6198 42.8101C32.7398 43.0901 33.2898 43.8701 34.4098 43.8701C35.5198 43.8701 36.0798 43.0901 36.1998 42.8101C36.3198 42.5401 36.1798 42.2801 35.9298 42.1701Z" fill="#E59600" style="fill:#E59600;fill:color(display-p3 0.8980 0.5882 0.0000);fill-opacity:1;"/>
<path d="M35.9298 42.1701C35.8898 42.1501 35.8498 42.1401 35.7998 42.1401H33.0198C32.9798 42.1501 32.9398 42.1601 32.8898 42.1701C32.6398 42.2701 32.4998 42.5301 32.6198 42.8101C32.7398 43.0901 33.2898 43.8701 34.4098 43.8701C35.5198 43.8701 36.0798 43.0901 36.1998 42.8101C36.3198 42.5401 36.1798 42.2801 35.9298 42.1701Z" fill="#DBA689" style="fill:#DBA689;fill:color(display-p3 0.8588 0.6510 0.5373);fill-opacity:1;"/>
<path d="M35.9298 42.1701C35.8898 42.1501 35.8498 42.1401 35.7998 42.1401H33.0198C32.9798 42.1501 32.9398 42.1601 32.8898 42.1701C32.6398 42.2701 32.4998 42.5301 32.6198 42.8101C32.7398 43.0901 33.2898 43.8701 34.4098 43.8701C35.5198 43.8701 36.0798 43.0901 36.1998 42.8101C36.3198 42.5401 36.1798 42.2801 35.9298 42.1701Z" fill="#33251F" style="fill:#33251F;fill:color(display-p3 0.2000 0.1451 0.1216);fill-opacity:1;"/>
<path d="M30.9305 34.91C30.5605 34.42 29.7105 33.71 28.0605 33.71C26.4105 33.71 25.5505 34.42 25.1905 34.91C25.0305 35.13 25.0705 35.38 25.1805 35.53C25.2805 35.67 25.5905 35.8 25.9405 35.68C26.2805 35.56 26.9505 35.22 28.0705 35.21C29.1905 35.22 29.8605 35.56 30.2005 35.68C30.5405 35.8 30.8505 35.67 30.9605 35.53C31.0605 35.37 31.1005 35.12 30.9305 34.91Z" fill="#6D4C41" style="fill:#6D4C41;fill:color(display-p3 0.4275 0.2980 0.2549);fill-opacity:1;"/>
<path d="M30.9305 34.91C30.5605 34.42 29.7105 33.71 28.0605 33.71C26.4105 33.71 25.5505 34.42 25.1905 34.91C25.0305 35.13 25.0705 35.38 25.1805 35.53C25.2805 35.67 25.5905 35.8 25.9405 35.68C26.2805 35.56 26.9505 35.22 28.0705 35.21C29.1905 35.22 29.8605 35.56 30.2005 35.68C30.5405 35.8 30.8505 35.67 30.9605 35.53C31.0605 35.37 31.1005 35.12 30.9305 34.91Z" fill="#454140" style="fill:#454140;fill:color(display-p3 0.2706 0.2549 0.2510);fill-opacity:1;"/>
<path d="M30.9305 34.91C30.5605 34.42 29.7105 33.71 28.0605 33.71C26.4105 33.71 25.5505 34.42 25.1905 34.91C25.0305 35.13 25.0705 35.38 25.1805 35.53C25.2805 35.67 25.5905 35.8 25.9405 35.68C26.2805 35.56 26.9505 35.22 28.0705 35.21C29.1905 35.22 29.8605 35.56 30.2005 35.68C30.5405 35.8 30.8505 35.67 30.9605 35.53C31.0605 35.37 31.1005 35.12 30.9305 34.91Z" fill="#1A1717" style="fill:#1A1717;fill:color(display-p3 0.1020 0.0902 0.0902);fill-opacity:1;"/>
<path d="M43.8505 34.91C43.4805 34.42 42.6305 33.71 40.9805 33.71C39.3305 33.71 38.4705 34.42 38.1105 34.91C37.9505 35.13 37.9905 35.38 38.1005 35.53C38.2005 35.67 38.5105 35.8 38.8605 35.68C39.2005 35.56 39.8705 35.22 40.9905 35.21C42.1105 35.22 42.7805 35.56 43.1205 35.68C43.4605 35.8 43.7705 35.67 43.8805 35.53C43.9705 35.37 44.0105 35.12 43.8505 34.91Z" fill="#6D4C41" style="fill:#6D4C41;fill:color(display-p3 0.4275 0.2980 0.2549);fill-opacity:1;"/>
<path d="M43.8505 34.91C43.4805 34.42 42.6305 33.71 40.9805 33.71C39.3305 33.71 38.4705 34.42 38.1105 34.91C37.9505 35.13 37.9905 35.38 38.1005 35.53C38.2005 35.67 38.5105 35.8 38.8605 35.68C39.2005 35.56 39.8705 35.22 40.9905 35.21C42.1105 35.22 42.7805 35.56 43.1205 35.68C43.4605 35.8 43.7705 35.67 43.8805 35.53C43.9705 35.37 44.0105 35.12 43.8505 34.91Z" fill="#454140" style="fill:#454140;fill:color(display-p3 0.2706 0.2549 0.2510);fill-opacity:1;"/>
<path d="M43.8505 34.91C43.4805 34.42 42.6305 33.71 40.9805 33.71C39.3305 33.71 38.4705 34.42 38.1105 34.91C37.9505 35.13 37.9905 35.38 38.1005 35.53C38.2005 35.67 38.5105 35.8 38.8605 35.68C39.2005 35.56 39.8705 35.22 40.9905 35.21C42.1105 35.22 42.7805 35.56 43.1205 35.68C43.4605 35.8 43.7705 35.67 43.8805 35.53C43.9705 35.37 44.0105 35.12 43.8505 34.91Z" fill="#1A1717" style="fill:#1A1717;fill:color(display-p3 0.1020 0.0902 0.0902);fill-opacity:1;"/>
<path d="M34.6202 16.8301C18.2802 16.8301 18.4102 31.9401 18.4102 32.1801C18.4102 39.4801 18.8302 49.0301 20.6702 55.6701C21.2702 55.4001 21.9302 55.1501 22.6502 54.9201C22.9102 54.8301 23.1802 54.7501 23.4602 54.6701C23.3102 52.6301 22.6702 43.8501 22.5902 39.4301C22.5702 38.2601 22.2202 33.9101 24.6402 33.3601C33.5302 31.3401 38.5502 26.5701 38.5502 26.5701C39.8602 29.4601 43.9502 32.2801 45.4102 33.3501C46.6202 34.2301 46.4502 37.8401 46.4202 39.3901L45.2302 54.8801C45.3902 54.9301 45.5502 54.9801 45.7102 55.0301C46.5702 55.3101 47.3402 55.6201 48.0402 55.9301C49.9502 49.2801 50.3702 39.5801 50.3702 32.1801C50.3702 31.9401 50.9602 16.8301 34.6202 16.8301Z" fill="#543930" style="fill:#543930;fill:color(display-p3 0.3294 0.2235 0.1882);fill-opacity:1;"/>
<path d="M34.6202 16.8301C18.2802 16.8301 18.4102 31.9401 18.4102 32.1801C18.4102 39.4801 18.8302 49.0301 20.6702 55.6701C21.2702 55.4001 21.9302 55.1501 22.6502 54.9201C22.9102 54.8301 23.1802 54.7501 23.4602 54.6701C23.3102 52.6301 22.6702 43.8501 22.5902 39.4301C22.5702 38.2601 22.2202 33.9101 24.6402 33.3601C33.5302 31.3401 38.5502 26.5701 38.5502 26.5701C39.8602 29.4601 43.9502 32.2801 45.4102 33.3501C46.6202 34.2301 46.4502 37.8401 46.4202 39.3901L45.2302 54.8801C45.3902 54.9301 45.5502 54.9801 45.7102 55.0301C46.5702 55.3101 47.3402 55.6201 48.0402 55.9301C49.9502 49.2801 50.3702 39.5801 50.3702 32.1801C50.3702 31.9401 50.9602 16.8301 34.6202 16.8301Z" fill="#312D2D" style="fill:#312D2D;fill:color(display-p3 0.1922 0.1765 0.1765);fill-opacity:1;"/>
<path d="M37.7205 45.5801C36.4705 46.3301 32.3705 46.3301 31.1205 45.5801C30.4005 45.1501 29.6705 45.8101 29.9705 46.4601C30.2605 47.1001 32.5005 48.6001 34.4305 48.6001C36.3605 48.6001 38.5705 47.1101 38.8705 46.4601C39.1705 45.8001 38.4405 45.1501 37.7205 45.5801Z" fill="#6D4C41" style="fill:#6D4C41;fill:color(display-p3 0.4275 0.2980 0.2549);fill-opacity:1;"/>
<path d="M37.7205 45.5801C36.4705 46.3301 32.3705 46.3301 31.1205 45.5801C30.4005 45.1501 29.6705 45.8101 29.9705 46.4601C30.2605 47.1001 32.5005 48.6001 34.4305 48.6001C36.3605 48.6001 38.5705 47.1101 38.8705 46.4601C39.1705 45.8001 38.4405 45.1501 37.7205 45.5801Z" fill="#454140" style="fill:#454140;fill:color(display-p3 0.2706 0.2549 0.2510);fill-opacity:1;"/>
<path d="M37.7205 45.5801C36.4705 46.3301 32.3705 46.3301 31.1205 45.5801C30.4005 45.1501 29.6705 45.8101 29.9705 46.4601C30.2605 47.1001 32.5005 48.6001 34.4305 48.6001C36.3605 48.6001 38.5705 47.1101 38.8705 46.4601C39.1705 45.8001 38.4405 45.1501 37.7205 45.5801Z" fill="#1A1717" style="fill:#1A1717;fill:color(display-p3 0.1020 0.0902 0.0902);fill-opacity:1;"/>
<path d="M32.1404 124.5H27.7604C26.9504 124.48 26.3704 123.55 26.6104 122.75C27.3404 120.29 29.5604 118.48 32.1404 118.48C34.7804 118.48 37.0304 120.36 37.7104 122.89C37.9304 123.7 37.3304 124.5 36.5204 124.5H32.1404Z" fill="#504F4F" style="fill:#504F4F;fill:color(display-p3 0.3137 0.3098 0.3098);fill-opacity:1;"/>
<path d="M34.6202 16.8301C18.2802 16.8301 18.4102 31.9401 18.4102 32.1801C18.4102 35.2701 18.4902 38.7601 18.7102 42.2701L21.3902 42.2601C21.3702 41.1001 22.1802 33.9101 24.6102 33.3601C33.5202 31.3601 38.5602 26.6301 38.5602 26.6301C39.8702 29.4901 43.9702 32.2901 45.4402 33.3501C46.6502 34.2201 47.0202 40.7401 47.0002 42.2701H50.0702C50.0702 42.2501 50.0802 42.2301 50.0802 42.2101C50.3002 38.7201 50.3802 35.2501 50.3802 32.1801C50.3702 31.9401 50.9602 16.8301 34.6202 16.8301Z" fill="url(#paint37_radial_201_1446)" style=""/>
<path d="M49.99 5.84007C49.82 4.84007 48.79 4.25007 47.85 4.60007C45.63 5.42007 41.87 7.23007 39.97 10.5301C38.54 13.0101 37.94 16.6901 37.7 19.7101C37.61 20.8101 36.66 21.6301 35.56 21.5501C35.19 21.5201 33.62 21.5201 33.25 21.5501C32.15 21.6301 31.19 20.8201 31.11 19.7101C30.87 16.6901 30.27 13.0101 28.84 10.5301C26.94 7.22007 23.16 5.42007 20.95 4.60007C20.01 4.25007 19 4.84007 18.83 5.83007C18.43 8.16007 18.1 12.3501 20.01 15.6501C21.44 18.1401 24.31 20.4901 26.8 22.2101C27.36 22.6001 27.36 23.4101 26.82 23.8301C25.81 24.6001 25.05 25.5001 24.46 26.4001C23.88 27.3001 24.91 28.3901 25.81 27.8101C27.59 26.6601 30.3 25.7201 34.4 25.7201C38.5 25.7201 41.21 26.6601 42.99 27.8101C43.89 28.3901 44.93 27.3001 44.34 26.4001C43.75 25.4901 42.99 24.6001 41.99 23.8201C41.45 23.4001 41.45 22.5901 42.01 22.2001C44.49 20.4801 47.36 18.1301 48.8 15.6401C50.71 12.3501 50.39 8.18007 49.99 5.84007Z" fill="url(#paint38_linear_201_1446)" style=""/>
<path d="M42.31 12.2701C41.27 14.0701 41.06 17.1301 41.01 18.4501C41 18.7401 41.3 18.9201 41.55 18.7601C42.67 18.0601 45.2 16.3501 46.24 14.5401C47.15 12.9601 47.07 11.0001 46.92 9.91011C46.86 9.44011 46.4 9.18011 45.97 9.36011C44.95 9.78011 43.22 10.6901 42.31 12.2701Z" fill="#FF4081" style="fill:#FF4081;fill:color(display-p3 1.0000 0.2510 0.5059);fill-opacity:1;"/>
<path d="M26.5003 12.2701C27.5403 14.0701 27.7603 17.1301 27.8003 18.4601C27.8103 18.7501 27.5103 18.9301 27.2703 18.7701C26.1503 18.0701 23.6203 16.3601 22.5803 14.5501C21.6703 12.9701 21.7503 11.0101 21.8903 9.92012C21.9503 9.45012 22.4103 9.19012 22.8403 9.37012C23.8503 9.78012 25.5903 10.6901 26.5003 12.2701Z" fill="#FF4081" style="fill:#FF4081;fill:color(display-p3 1.0000 0.2510 0.5059);fill-opacity:1;"/>
<path d="M75.96 75.9L78.29 73.52C78.46 73.4 79.39 73.38 79.58 73.44C79.64 73.44 80.03 74.13 80.09 74.14L80.99 74.3C81.37 74.39 81.62 74.78 81.53 75.17L81.49 75.38C81.41 75.77 81.03 76.02 80.65 75.93L79.28 75.61L76.9 77.29C76.58 77.52 76.14 77.43 75.91 77.1L75.79 76.92C75.56 76.57 75.64 76.12 75.96 75.9Z" fill="#EDA600" style="fill:#EDA600;fill:color(display-p3 0.9294 0.6510 0.0000);fill-opacity:1;"/>
<path d="M75.96 75.9L78.29 73.52C78.46 73.4 79.39 73.38 79.58 73.44C79.64 73.44 80.03 74.13 80.09 74.14L80.99 74.3C81.37 74.39 81.62 74.78 81.53 75.17L81.49 75.38C81.41 75.77 81.03 76.02 80.65 75.93L79.28 75.61L76.9 77.29C76.58 77.52 76.14 77.43 75.91 77.1L75.79 76.92C75.56 76.57 75.64 76.12 75.96 75.9Z" fill="url(#paint39_linear_201_1446)" style=""/>
<path d="M90.5099 16.8301C74.2099 16.8301 74.3399 31.9401 74.3399 32.1801C74.3399 41.9701 75.0899 55.8001 78.9899 61.2401C80.5399 63.4001 83.5299 63.5201 83.5299 63.5201L90.2799 63.5001L97.0199 63.5101C97.0199 63.5101 100.01 63.3901 101.56 61.2301C105.47 55.7901 106.21 41.9601 106.21 32.1701C106.22 31.9401 106.81 16.8301 90.5099 16.8301Z" fill="#543930" style="fill:#543930;fill:color(display-p3 0.3294 0.2235 0.1882);fill-opacity:1;"/>
<path d="M90.5099 16.8301C74.2099 16.8301 74.3399 31.9401 74.3399 32.1801C74.3399 41.9701 75.0899 55.8001 78.9899 61.2401C80.5399 63.4001 83.5299 63.5201 83.5299 63.5201L90.2799 63.5001L97.0199 63.5101C97.0199 63.5101 100.01 63.3901 101.56 61.2301C105.47 55.7901 106.21 41.9601 106.21 32.1701C106.22 31.9401 106.81 16.8301 90.5099 16.8301Z" fill="#AB872F" style="fill:#AB872F;fill:color(display-p3 0.6706 0.5294 0.1843);fill-opacity:1;"/>
<path d="M120.841 113.67C120.281 111.24 117.601 108.55 114.971 105.95C113.271 104.27 110.211 104.62 108.541 106.33C106.871 108.04 106.571 111.11 108.271 112.79C110.901 115.39 113.631 118.03 116.061 118.55C117.971 118.96 119.561 118.35 120.131 117.77C120.701 117.18 121.281 115.58 120.841 113.67Z" fill="#504F4F" style="fill:#504F4F;fill:color(display-p3 0.3137 0.3098 0.3098);fill-opacity:1;"/>
<path d="M91.3 124.32H85.24L81.96 105.04C82.61 106.74 84.26 107.95 86.2 107.95C88.7 107.95 90.73 105.93 90.74 103.44L91.3 124.32Z" fill="url(#paint40_linear_201_1446)" style=""/>
<path d="M91.3 124.32H85.24L81.96 105.04C82.61 106.74 84.26 107.95 86.2 107.95C88.7 107.95 90.73 105.93 90.74 103.44L91.3 124.32Z" fill="url(#paint41_linear_201_1446)" style=""/>
<path d="M115.56 113.97C114.56 114.53 113.32 114.46 112.39 113.78L100.24 103.14C100.13 103.04 100.02 102.94 99.9199 102.83C100.76 103.66 101.91 104.18 103.19 104.18C105.76 104.18 107.84 102.1 107.84 99.5298C107.84 99.0298 107.76 98.5398 107.61 98.0898C107.62 98.0998 107.63 98.1198 107.64 98.1298L116.19 109.29C117.58 110.67 117.27 113.01 115.56 113.97Z" fill="url(#paint42_linear_201_1446)" style=""/>
<path d="M115.56 113.97C114.56 114.53 113.32 114.46 112.39 113.78L100.24 103.14C100.13 103.04 100.02 102.94 99.9199 102.83C100.76 103.66 101.91 104.18 103.19 104.18C105.76 104.18 107.84 102.1 107.84 99.5298C107.84 99.0298 107.76 98.5398 107.61 98.0898C107.62 98.0998 107.63 98.1198 107.64 98.1298L116.19 109.29C117.58 110.67 117.27 113.01 115.56 113.97Z" fill="url(#paint43_linear_201_1446)" style=""/>
<path d="M107.84 99.5298C107.84 102.1 105.76 104.18 103.19 104.18C101.91 104.18 100.76 103.66 99.9202 102.83C99.7902 102.7 99.6702 102.57 99.5602 102.43C99.3502 102.18 99.1602 101.9 99.0002 101.62L92.1702 88.9698C92.1302 88.7498 90.9602 88.5998 90.7602 88.5998C90.5602 88.5998 90.3902 88.7598 90.3502 88.9698L90.7402 103.31V103.42C90.7402 103.43 90.7402 103.43 90.7402 103.44C90.7302 105.93 88.7002 107.95 86.2002 107.95C84.2602 107.95 82.6102 106.74 81.9602 105.04L81.6702 103.28L78.2402 83.1199L89.5802 75.0898L102.28 83.1098L106.95 96.8098L107.05 97.0998C107.19 97.4498 107.37 97.7898 107.61 98.0898C107.76 98.5398 107.84 99.0298 107.84 99.5298Z" fill="url(#paint44_linear_201_1446)" style=""/>
<path d="M107.84 99.5298C107.84 102.1 105.76 104.18 103.19 104.18C101.91 104.18 100.76 103.66 99.9202 102.83C99.7902 102.7 99.6702 102.57 99.5602 102.43C99.3502 102.18 99.1602 101.9 99.0002 101.62L92.1702 88.9698C92.1302 88.7498 90.9602 88.5998 90.7602 88.5998C90.5602 88.5998 90.3902 88.7598 90.3502 88.9698L90.7402 103.31V103.42C90.7402 103.43 90.7402 103.43 90.7402 103.44C90.7302 105.93 88.7002 107.95 86.2002 107.95C84.2602 107.95 82.6102 106.74 81.9602 105.04L81.6702 103.28L78.2402 83.1199L89.5802 75.0898L102.28 83.1098L106.95 96.8098L107.05 97.0998C107.19 97.4498 107.37 97.7898 107.61 98.0898C107.76 98.5398 107.84 99.0298 107.84 99.5298Z" fill="url(#paint45_linear_201_1446)" style=""/>
<path d="M104.89 75.6399L102.25 73.4199C102.08 73.2999 101.53 73.6599 101.34 73.7099C101.28 73.7099 100.82 73.8599 100.76 73.8699L99.8601 74.0299C99.4801 74.1199 99.2301 74.5099 99.3201 74.8999L99.3601 75.1099C99.4401 75.4999 99.8201 75.7499 100.2 75.6599L101.57 75.3399L103.95 77.0199C104.27 77.2499 104.71 77.1599 104.94 76.8299L105.06 76.6499C105.29 76.3199 105.21 75.8699 104.89 75.6399Z" fill="#EDA600" style="fill:#EDA600;fill:color(display-p3 0.9294 0.6510 0.0000);fill-opacity:1;"/>
<path d="M104.89 75.6399L102.25 73.4199C102.08 73.2999 101.53 73.6599 101.34 73.7099C101.28 73.7099 100.82 73.8599 100.76 73.8699L99.8601 74.0299C99.4801 74.1199 99.2301 74.5099 99.3201 74.8999L99.3601 75.1099C99.4401 75.4999 99.8201 75.7499 100.2 75.6599L101.57 75.3399L103.95 77.0199C104.27 77.2499 104.71 77.1599 104.94 76.8299L105.06 76.6499C105.29 76.3199 105.21 75.8699 104.89 75.6399Z" fill="url(#paint46_linear_201_1446)" style=""/>
<path d="M108.77 60.8402C108.77 60.8402 106.7 53.4302 89.7295 53.4302C72.7595 53.4302 71.7695 60.8402 71.7695 60.8402L78.1195 65.6702H101.37L108.77 60.8402Z" fill="#444444" style="fill:#444444;fill:color(display-p3 0.2667 0.2667 0.2667);fill-opacity:1;"/>
<path d="M109.74 60.8402C109.74 60.8402 106.67 53.4302 89.7002 53.4302C72.7302 53.4302 70.7402 60.8402 70.7402 60.8402L78.1602 67.7302V83.1502L87.9002 89.5802C88.6702 89.9702 89.5202 90.1702 90.3802 90.1702C91.2702 90.1702 92.1502 89.9502 92.9402 89.5402L102.25 83.1502V67.7302L109.74 60.8402Z" fill="url(#paint47_linear_201_1446)" style=""/>
<path d="M115.71 69.5102L108.32 59.7402L102.14 64.1002L109.56 71.0502L104.37 75.3602C103.83 75.3402 102.9 75.2002 101.71 75.2002H101.32L101.3 75.1902C101.3 75.1902 99.6297 75.3102 99.1897 75.6502C98.7897 75.9602 98.8297 76.5002 99.0097 76.7002C99.2197 76.9402 99.1697 77.3602 98.9597 77.5902C98.7497 77.8302 98.6197 78.1202 98.6397 78.4202C98.6597 78.7102 98.7897 78.8802 99.0797 79.1002C99.2197 79.2002 99.2897 79.4802 99.2197 79.6302C99.0997 79.8702 98.9097 80.2802 98.9497 80.5002C99.0397 80.9302 99.4797 81.0202 99.5797 81.3502C99.6197 81.4802 99.2097 81.9202 99.6297 82.2902C100.02 82.6402 100.69 82.9202 101.71 82.9202C102.62 82.9202 103.81 82.7002 105.32 82.1002C105.36 82.0802 115.71 73.6602 115.71 73.6602C116.76 72.5502 116.71 70.6702 115.71 69.5102Z" fill="url(#paint48_linear_201_1446)" style=""/>
<path d="M115.71 69.5102L108.32 59.7402L102.14 64.1002L109.56 71.0502L104.37 75.3602C103.83 75.3402 102.9 75.2002 101.71 75.2002H101.32L101.3 75.1902C101.3 75.1902 99.6297 75.3102 99.1897 75.6502C98.7897 75.9602 98.8297 76.5002 99.0097 76.7002C99.2197 76.9402 99.1697 77.3602 98.9597 77.5902C98.7497 77.8302 98.6197 78.1202 98.6397 78.4202C98.6597 78.7102 98.7897 78.8802 99.0797 79.1002C99.2197 79.2002 99.2897 79.4802 99.2197 79.6302C99.0997 79.8702 98.9097 80.2802 98.9497 80.5002C99.0397 80.9302 99.4797 81.0202 99.5797 81.3502C99.6197 81.4802 99.2097 81.9202 99.6297 82.2902C100.02 82.6402 100.69 82.9202 101.71 82.9202C102.62 82.9202 103.81 82.7002 105.32 82.1002C105.36 82.0802 115.71 73.6602 115.71 73.6602C116.76 72.5502 116.71 70.6702 115.71 69.5102Z" fill="url(#paint49_linear_201_1446)" style=""/>
<path d="M82.2197 78.4402C82.2397 78.1402 82.1097 77.8502 81.8997 77.6102C81.6897 77.3702 81.6397 76.9502 81.8497 76.7202C82.0297 76.5202 82.0597 75.9702 81.6697 75.6702C81.2297 75.3302 79.5597 75.2102 79.5597 75.2102L79.5397 75.2202H79.1497C77.9597 75.2202 77.0297 75.3502 76.4897 75.3802L71.2997 71.0702L78.7197 64.1202L72.5297 59.7402L65.1497 69.5302C64.1497 70.6802 64.0997 72.5702 65.1497 73.6802C65.1497 73.6802 75.4997 82.1002 75.5397 82.1202C77.0497 82.7102 78.2397 82.9402 79.1497 82.9402C80.1597 82.9402 80.8397 82.6602 81.2297 82.3102C81.6497 81.9302 81.2397 81.5002 81.2797 81.3702C81.3797 81.0402 81.8097 80.9502 81.9097 80.5202C81.9597 80.3102 81.7597 79.8902 81.6397 79.6502C81.5597 79.5002 81.6397 79.2202 81.7797 79.1202C82.0697 78.9002 82.1997 78.7302 82.2197 78.4402Z" fill="url(#paint50_linear_201_1446)" style=""/>
<path d="M82.2197 78.4402C82.2397 78.1402 82.1097 77.8502 81.8997 77.6102C81.6897 77.3702 81.6397 76.9502 81.8497 76.7202C82.0297 76.5202 82.0597 75.9702 81.6697 75.6702C81.2297 75.3302 79.5597 75.2102 79.5597 75.2102L79.5397 75.2202H79.1497C77.9597 75.2202 77.0297 75.3502 76.4897 75.3802L71.2997 71.0702L78.7197 64.1202L72.5297 59.7402L65.1497 69.5302C64.1497 70.6802 64.0997 72.5702 65.1497 73.6802C65.1497 73.6802 75.4997 82.1002 75.5397 82.1202C77.0497 82.7102 78.2397 82.9402 79.1497 82.9402C80.1597 82.9402 80.8397 82.6602 81.2297 82.3102C81.6497 81.9302 81.2397 81.5002 81.2797 81.3702C81.3797 81.0402 81.8097 80.9502 81.9097 80.5202C81.9597 80.3102 81.7597 79.8902 81.6397 79.6502C81.5597 79.5002 81.6397 79.2202 81.7797 79.1202C82.0697 78.9002 82.1997 78.7302 82.2197 78.4402Z" fill="url(#paint51_linear_201_1446)" style=""/>
<path d="M109.77 60.8402C109.77 60.8402 106.7 53.4302 89.7295 53.4302C72.7595 53.4302 70.7695 60.8402 70.7695 60.8402L78.1195 67.6702H102.37L109.77 60.8402Z" fill="url(#paint52_linear_201_1446)" style=""/>
<path d="M100.76 54.8502C100.67 57.8502 96.9398 62.0702 90.2598 62.0702C83.4998 62.0702 79.7598 57.7402 79.7598 54.7402C79.7598 54.6902 79.7598 54.6402 79.7698 54.5902C82.2498 53.8902 85.4898 53.4302 89.7298 53.4302C94.4798 53.4302 98.0698 54.0102 100.76 54.8502Z" fill="url(#paint53_linear_201_1446)" style=""/>
<path d="M100.76 54.8502C100.67 57.8502 96.9398 62.0702 90.2598 62.0702C83.4998 62.0702 79.7598 57.7402 79.7598 54.7402C79.7598 54.6902 79.7598 54.6402 79.7698 54.5902C82.2498 53.8902 85.4898 53.4302 89.7298 53.4302C94.4798 53.4302 98.0698 54.0102 100.76 54.8502Z" fill="#E0BB95" style="fill:#E0BB95;fill:color(display-p3 0.8784 0.7333 0.5843);fill-opacity:1;"/>
<path d="M89.8503 57.8001C87.8803 57.8001 86.2803 56.2801 86.2803 54.4001V50.1401H94.2403V54.4001C94.2403 56.2701 92.6403 57.8001 90.6703 57.8001H89.8503Z" fill="#E59600" style="fill:#E59600;fill:color(display-p3 0.8980 0.5882 0.0000);fill-opacity:1;"/>
<path d="M89.8503 57.8001C87.8803 57.8001 86.2803 56.2801 86.2803 54.4001V50.1401H94.2403V54.4001C94.2403 56.2701 92.6403 57.8001 90.6703 57.8001H89.8503Z" fill="#C48E6A" style="fill:#C48E6A;fill:color(display-p3 0.7686 0.5569 0.4157);fill-opacity:1;"/>
<path d="M90.2999 20.77C83.4599 20.77 77.1299 25.87 77.1299 36.68C77.1299 45.36 82.4899 50.5 87.1599 52.16C88.2699 52.55 89.3499 52.75 90.2999 52.75C91.2499 52.75 92.3099 52.55 93.4199 52.16C98.0899 50.51 103.47 45.37 103.47 36.68C103.47 25.87 97.1399 20.77 90.2999 20.77Z" fill="#FFCA28" style="fill:#FFCA28;fill:color(display-p3 1.0000 0.7922 0.1569);fill-opacity:1;"/>
<path d="M90.2999 20.77C83.4599 20.77 77.1299 25.87 77.1299 36.68C77.1299 45.36 82.4899 50.5 87.1599 52.16C88.2699 52.55 89.3499 52.75 90.2999 52.75C91.2499 52.75 92.3099 52.55 93.4199 52.16C98.0899 50.51 103.47 45.37 103.47 36.68C103.47 25.87 97.1399 20.77 90.2999 20.77Z" fill="#E0BB95" style="fill:#E0BB95;fill:color(display-p3 0.8784 0.7333 0.5843);fill-opacity:1;"/>
<path d="M83.9095 40.53C84.9754 40.53 85.8395 39.6301 85.8395 38.52C85.8395 37.4099 84.9754 36.51 83.9095 36.51C82.8436 36.51 81.9795 37.4099 81.9795 38.52C81.9795 39.6301 82.8436 40.53 83.9095 40.53Z" fill="#404040" style="fill:#404040;fill:color(display-p3 0.2510 0.2510 0.2510);fill-opacity:1;"/>
<path d="M96.8196 40.53C97.8856 40.53 98.7496 39.6301 98.7496 38.52C98.7496 37.4099 97.8856 36.51 96.8196 36.51C95.7537 36.51 94.8896 37.4099 94.8896 38.52C94.8896 39.6301 95.7537 40.53 96.8196 40.53Z" fill="#404040" style="fill:#404040;fill:color(display-p3 0.2510 0.2510 0.2510);fill-opacity:1;"/>
<path d="M91.7794 42.1701C91.7394 42.1501 91.6994 42.1401 91.6494 42.1401H88.8694C88.8294 42.1501 88.7894 42.1601 88.7394 42.1701C88.4894 42.2701 88.3494 42.5301 88.4694 42.8101C88.5894 43.0901 89.1394 43.8701 90.2594 43.8701C91.3694 43.8701 91.9294 43.0901 92.0494 42.8101C92.1694 42.5401 92.0294 42.2801 91.7794 42.1701Z" fill="#E59600" style="fill:#E59600;fill:color(display-p3 0.8980 0.5882 0.0000);fill-opacity:1;"/>
<path d="M91.7794 42.1701C91.7394 42.1501 91.6994 42.1401 91.6494 42.1401H88.8694C88.8294 42.1501 88.7894 42.1601 88.7394 42.1701C88.4894 42.2701 88.3494 42.5301 88.4694 42.8101C88.5894 43.0901 89.1394 43.8701 90.2594 43.8701C91.3694 43.8701 91.9294 43.0901 92.0494 42.8101C92.1694 42.5401 92.0294 42.2801 91.7794 42.1701Z" fill="#C48E6A" style="fill:#C48E6A;fill:color(display-p3 0.7686 0.5569 0.4157);fill-opacity:1;"/>
<path d="M86.7802 34.91C86.4102 34.42 85.5602 33.71 83.9102 33.71C82.2602 33.71 81.4002 34.42 81.0402 34.91C80.8802 35.13 80.9202 35.38 81.0302 35.53C81.1302 35.67 81.4402 35.8 81.7902 35.68C82.1302 35.56 82.8002 35.22 83.9202 35.21C85.0402 35.22 85.7102 35.56 86.0502 35.68C86.3902 35.8 86.7002 35.67 86.8102 35.53C86.9102 35.37 86.9502 35.12 86.7802 34.91Z" fill="#6D4C41" style="fill:#6D4C41;fill:color(display-p3 0.4275 0.2980 0.2549);fill-opacity:1;"/>
<path d="M86.7802 34.91C86.4102 34.42 85.5602 33.71 83.9102 33.71C82.2602 33.71 81.4002 34.42 81.0402 34.91C80.8802 35.13 80.9202 35.38 81.0302 35.53C81.1302 35.67 81.4402 35.8 81.7902 35.68C82.1302 35.56 82.8002 35.22 83.9202 35.21C85.0402 35.22 85.7102 35.56 86.0502 35.68C86.3902 35.8 86.7002 35.67 86.8102 35.53C86.9102 35.37 86.9502 35.12 86.7802 34.91Z" fill="#AB872F" style="fill:#AB872F;fill:color(display-p3 0.6706 0.5294 0.1843);fill-opacity:1;"/>
<path d="M99.7001 34.91C99.3301 34.42 98.4801 33.71 96.8301 33.71C95.1801 33.71 94.3201 34.42 93.9601 34.91C93.8001 35.13 93.8401 35.38 93.9501 35.53C94.0501 35.67 94.3601 35.8 94.7101 35.68C95.0501 35.56 95.7201 35.22 96.8401 35.21C97.9601 35.22 98.6301 35.56 98.9701 35.68C99.3101 35.8 99.6201 35.67 99.7301 35.53C99.8201 35.37 99.8601 35.12 99.7001 34.91Z" fill="#6D4C41" style="fill:#6D4C41;fill:color(display-p3 0.4275 0.2980 0.2549);fill-opacity:1;"/>
<path d="M99.7001 34.91C99.3301 34.42 98.4801 33.71 96.8301 33.71C95.1801 33.71 94.3201 34.42 93.9601 34.91C93.8001 35.13 93.8401 35.38 93.9501 35.53C94.0501 35.67 94.3601 35.8 94.7101 35.68C95.0501 35.56 95.7201 35.22 96.8401 35.21C97.9601 35.22 98.6301 35.56 98.9701 35.68C99.3101 35.8 99.6201 35.67 99.7301 35.53C99.8201 35.37 99.8601 35.12 99.7001 34.91Z" fill="#AB872F" style="fill:#AB872F;fill:color(display-p3 0.6706 0.5294 0.1843);fill-opacity:1;"/>
<path d="M90.4698 16.8301C74.1298 16.8301 74.2598 31.9401 74.2598 32.1801C74.2598 39.4801 74.6798 49.0301 76.5198 55.6701C77.1198 55.4001 77.7798 55.1501 78.4998 54.9201C78.7598 54.8301 79.0298 54.7501 79.3098 54.6701C79.1598 52.6301 78.5198 43.8501 78.4398 39.4301C78.4198 38.2601 78.0698 33.9101 80.4898 33.3601C89.3798 31.3401 94.3998 26.5701 94.3998 26.5701C95.7098 29.4601 99.7998 32.2801 101.26 33.3501C102.47 34.2301 102.3 37.8401 102.27 39.3901L101.08 54.8801C101.24 54.9301 101.4 54.9801 101.56 55.0301C102.42 55.3101 103.19 55.6201 103.89 55.9301C105.8 49.2801 106.22 39.5801 106.22 32.1801C106.22 31.9401 106.81 16.8301 90.4698 16.8301Z" fill="#543930" style="fill:#543930;fill:color(display-p3 0.3294 0.2235 0.1882);fill-opacity:1;"/>
<path d="M90.4698 16.8301C74.1298 16.8301 74.2598 31.9401 74.2598 32.1801C74.2598 39.4801 74.6798 49.0301 76.5198 55.6701C77.1198 55.4001 77.7798 55.1501 78.4998 54.9201C78.7598 54.8301 79.0298 54.7501 79.3098 54.6701C79.1598 52.6301 78.5198 43.8501 78.4398 39.4301C78.4198 38.2601 78.0698 33.9101 80.4898 33.3601C89.3798 31.3401 94.3998 26.5701 94.3998 26.5701C95.7098 29.4601 99.7998 32.2801 101.26 33.3501C102.47 34.2301 102.3 37.8401 102.27 39.3901L101.08 54.8801C101.24 54.9301 101.4 54.9801 101.56 55.0301C102.42 55.3101 103.19 55.6201 103.89 55.9301C105.8 49.2801 106.22 39.5801 106.22 32.1801C106.22 31.9401 106.81 16.8301 90.4698 16.8301Z" fill="#AB872F" style="fill:#AB872F;fill:color(display-p3 0.6706 0.5294 0.1843);fill-opacity:1;"/>
<path d="M90.4698 16.8301C74.1298 16.8301 74.2598 31.9401 74.2598 32.1801C74.2598 39.4801 74.6798 49.0301 76.5198 55.6701C77.1198 55.4001 77.7798 55.1501 78.4998 54.9201C78.7598 54.8301 79.0298 54.7501 79.3098 54.6701C79.1598 52.6301 78.5198 43.8501 78.4398 39.4301C78.4198 38.2601 78.0698 33.9101 80.4898 33.3601C89.3798 31.3401 94.3998 26.5701 94.3998 26.5701C95.7098 29.4601 99.7998 32.2801 101.26 33.3501C102.47 34.2301 102.3 37.8401 102.27 39.3901L101.08 54.8801C101.24 54.9301 101.4 54.9801 101.56 55.0301C102.42 55.3101 103.19 55.6201 103.89 55.9301C105.8 49.2801 106.22 39.5801 106.22 32.1801C106.22 31.9401 106.81 16.8301 90.4698 16.8301Z" fill="url(#paint54_radial_201_1446)" style=""/>
<path d="M93.5701 45.5801C92.3201 46.3301 88.2201 46.3301 86.9701 45.5801C86.2501 45.1501 85.5201 45.8101 85.8201 46.4601C86.1101 47.1001 88.3501 48.6001 90.2801 48.6001C92.2101 48.6001 94.4201 47.1101 94.7201 46.4601C95.0201 45.8001 94.2901 45.1501 93.5701 45.5801Z" fill="#795548" style="fill:#795548;fill:color(display-p3 0.4745 0.3333 0.2824);fill-opacity:1;"/>
<path d="M87.99 124.5H83.61C82.8 124.48 82.22 123.55 82.46 122.75C83.19 120.29 85.41 118.48 87.99 118.48C90.63 118.48 92.88 120.36 93.56 122.89C93.78 123.7 93.18 124.5 92.37 124.5H87.99Z" fill="#504F4F" style="fill:#504F4F;fill:color(display-p3 0.3137 0.3098 0.3098);fill-opacity:1;"/>
<path d="M90.4698 16.8301C74.1298 16.8301 74.2598 31.9401 74.2598 32.1801C74.2598 35.2701 74.3298 38.7601 74.5598 42.2701L77.2398 42.2601C77.2198 41.1001 78.0298 33.9101 80.4598 33.3601C89.3698 31.3601 94.4098 26.6301 94.4098 26.6301C95.7198 29.4901 99.8198 32.2901 101.29 33.3501C102.5 34.2201 102.87 40.7401 102.85 42.2701H105.92C105.92 42.2501 105.93 42.2301 105.93 42.2101C106.15 38.7201 106.23 35.2501 106.23 32.1801C106.22 31.9401 106.81 16.8301 90.4698 16.8301Z" fill="url(#paint55_radial_201_1446)" style=""/>
<path d="M90.4698 16.8301C74.1298 16.8301 74.2598 31.9401 74.2598 32.1801C74.2598 35.2701 74.3298 38.7601 74.5598 42.2701L77.2398 42.2601C77.2198 41.1001 78.0298 33.9101 80.4598 33.3601C89.3698 31.3601 94.4098 26.6301 94.4098 26.6301C95.7198 29.4901 99.8198 32.2901 101.29 33.3501C102.5 34.2201 102.87 40.7401 102.85 42.2701H105.92C105.92 42.2501 105.93 42.2301 105.93 42.2101C106.15 38.7201 106.23 35.2501 106.23 32.1801C106.22 31.9401 106.81 16.8301 90.4698 16.8301Z" fill="#AB872F" style="fill:#AB872F;fill:color(display-p3 0.6706 0.5294 0.1843);fill-opacity:1;"/>
<path d="M90.4698 16.8301C74.1298 16.8301 74.2598 31.9401 74.2598 32.1801C74.2598 35.2701 74.3298 38.7601 74.5598 42.2701L77.2398 42.2601C77.2198 41.1001 78.0298 33.9101 80.4598 33.3601C89.3698 31.3601 94.4098 26.6301 94.4098 26.6301C95.7198 29.4901 99.8198 32.2901 101.29 33.3501C102.5 34.2201 102.87 40.7401 102.85 42.2701H105.92C105.92 42.2501 105.93 42.2301 105.93 42.2101C106.15 38.7201 106.23 35.2501 106.23 32.1801C106.22 31.9401 106.81 16.8301 90.4698 16.8301Z" fill="url(#paint56_radial_201_1446)" style=""/>
<path d="M106.239 32.1601C106.239 39.5701 105.809 49.2801 103.899 55.9301C100.869 54.5401 96.3593 53.4101 89.7193 53.4101C83.5493 53.4101 79.3593 54.3901 76.5293 55.6301C74.6993 48.9901 74.2793 39.4601 74.2793 32.1601C74.2793 31.9201 74.1493 16.8101 90.4893 16.8101C106.829 16.8101 106.239 31.9201 106.239 32.1601Z" fill="url(#paint57_radial_201_1446)" style=""/>
<path d="M105.841 5.84007C105.671 4.84007 104.641 4.25007 103.701 4.60007C101.481 5.42007 97.7206 7.23007 95.8206 10.5301C94.3906 13.0101 93.7906 16.6901 93.5506 19.7101C93.4606 20.8101 92.5106 21.6301 91.4106 21.5501C91.0406 21.5201 89.4706 21.5201 89.1006 21.5501C88.0006 21.6301 87.0406 20.8201 86.9606 19.7101C86.7206 16.6901 86.1206 13.0101 84.6906 10.5301C82.7906 7.22007 79.0106 5.42007 76.8006 4.60007C75.8606 4.25007 74.8506 4.84007 74.6806 5.83007C74.2806 8.16007 73.9506 12.3501 75.8606 15.6501C77.2906 18.1401 80.1606 20.4901 82.6506 22.2101C83.2106 22.6001 83.2106 23.4101 82.6706 23.8301C81.6606 24.6001 80.9006 25.5001 80.3106 26.4001C79.7306 27.3001 80.7606 28.3901 81.6606 27.8101C83.4406 26.6601 86.1506 25.7201 90.2506 25.7201C94.3506 25.7201 97.0606 26.6601 98.8406 27.8101C99.7406 28.3901 100.781 27.3001 100.191 26.4001C99.6006 25.4901 98.8406 24.6001 97.8406 23.8201C97.3006 23.4001 97.3006 22.5901 97.8606 22.2001C100.341 20.4801 103.211 18.1301 104.651 15.6401C106.561 12.3501 106.241 8.18007 105.841 5.84007Z" fill="url(#paint58_linear_201_1446)" style=""/>
<path d="M98.1606 12.2701C97.1206 14.0701 96.9106 17.1301 96.8606 18.4501C96.8506 18.7401 97.1506 18.9201 97.4006 18.7601C98.5206 18.0601 101.051 16.3501 102.091 14.5401C103.001 12.9601 102.921 11.0001 102.771 9.91011C102.711 9.44011 102.251 9.18011 101.821 9.36011C100.801 9.78011 99.0706 10.6901 98.1606 12.2701Z" fill="#FF4081" style="fill:#FF4081;fill:color(display-p3 1.0000 0.2510 0.5059);fill-opacity:1;"/>
<path d="M82.3509 12.2701C83.3909 14.0701 83.6109 17.1301 83.6509 18.4601C83.6609 18.7501 83.3609 18.9301 83.1209 18.7701C82.0009 18.0701 79.4709 16.3601 78.4309 14.5501C77.5209 12.9701 77.6009 11.0101 77.7409 9.92012C77.8009 9.45012 78.2609 9.19012 78.6909 9.37012C79.7009 9.78012 81.4409 10.6901 82.3509 12.2701Z" fill="#FF4081" style="fill:#FF4081;fill:color(display-p3 1.0000 0.2510 0.5059);fill-opacity:1;"/>
<defs>
<linearGradient id="paint0_linear_201_1446" x1="86.3008" y1="103.411" x2="89.6176" y2="124.336" gradientUnits="userSpaceOnUse">
<stop stop-color="#FFB300" style="stop-color:#FFB300;stop-color:color(display-p3 1.0000 0.7020 0.0000);stop-opacity:1;"/>
<stop offset="0.4007" stop-color="#FFCA28" style="stop-color:#FFCA28;stop-color:color(display-p3 1.0000 0.7922 0.1569);stop-opacity:1;"/>
</linearGradient>
<linearGradient id="paint1_linear_201_1446" x1="86.633" y1="103.443" x2="86.633" y2="124.324" gradientUnits="userSpaceOnUse">
<stop stop-color="#FFD29C" style="stop-color:#FFD29C;stop-color:color(display-p3 1.0000 0.8235 0.6118);stop-opacity:1;"/>
<stop offset="0.5" stop-color="#F9DDBD" style="stop-color:#F9DDBD;stop-color:color(display-p3 0.9765 0.8667 0.7412);stop-opacity:1;"/>
</linearGradient>
<linearGradient id="paint2_linear_201_1446" x1="86.6284" y1="103.443" x2="86.6284" y2="124.324" gradientUnits="userSpaceOnUse">
<stop stop-color="#5C4037" style="stop-color:#5C4037;stop-color:color(display-p3 0.3608 0.2510 0.2157);stop-opacity:1;"/>
<stop offset="0.5" stop-color="#70534A" style="stop-color:#70534A;stop-color:color(display-p3 0.4392 0.3255 0.2902);stop-opacity:1;"/>
</linearGradient>
<linearGradient id="paint3_linear_201_1446" x1="107.888" y1="98.0673" x2="109.005" y2="114.692" gradientUnits="userSpaceOnUse">
<stop stop-color="#FFB300" style="stop-color:#FFB300;stop-color:color(display-p3 1.0000 0.7020 0.0000);stop-opacity:1;"/>
<stop offset="0.4007" stop-color="#FFCA28" style="stop-color:#FFCA28;stop-color:color(display-p3 1.0000 0.7922 0.1569);stop-opacity:1;"/>
</linearGradient>
<linearGradient id="paint4_linear_201_1446" x1="108.498" y1="98.0921" x2="108.498" y2="114.348" gradientUnits="userSpaceOnUse">
<stop stop-color="#FFD29C" style="stop-color:#FFD29C;stop-color:color(display-p3 1.0000 0.8235 0.6118);stop-opacity:1;"/>
<stop offset="0.5" stop-color="#F9DDBD" style="stop-color:#F9DDBD;stop-color:color(display-p3 0.9765 0.8667 0.7412);stop-opacity:1;"/>
</linearGradient>
<linearGradient id="paint5_linear_201_1446" x1="108.489" y1="98.0921" x2="108.489" y2="114.348" gradientUnits="userSpaceOnUse">
<stop stop-color="#5C4037" style="stop-color:#5C4037;stop-color:color(display-p3 0.3608 0.2510 0.2157);stop-opacity:1;"/>
<stop offset="0.5" stop-color="#70534A" style="stop-color:#70534A;stop-color:color(display-p3 0.4392 0.3255 0.2902);stop-opacity:1;"/>
</linearGradient>
<linearGradient id="paint6_linear_201_1446" x1="90.7178" y1="90.9173" x2="96.2062" y2="103.289" gradientUnits="userSpaceOnUse">
<stop stop-color="#FFB300" style="stop-color:#FFB300;stop-color:color(display-p3 1.0000 0.7020 0.0000);stop-opacity:1;"/>
<stop offset="0.4007" stop-color="#FFCA28" style="stop-color:#FFCA28;stop-color:color(display-p3 1.0000 0.7922 0.1569);stop-opacity:1;"/>
</linearGradient>
<linearGradient id="paint7_linear_201_1446" x1="93.0499" y1="75.0944" x2="93.0499" y2="107.956" gradientUnits="userSpaceOnUse">
<stop stop-color="#FFD29C" style="stop-color:#FFD29C;stop-color:color(display-p3 1.0000 0.8235 0.6118);stop-opacity:1;"/>
<stop offset="0.5" stop-color="#F9DDBD" style="stop-color:#F9DDBD;stop-color:color(display-p3 0.9765 0.8667 0.7412);stop-opacity:1;"/>
</linearGradient>
<linearGradient id="paint8_linear_201_1446" x1="93.0351" y1="75.0944" x2="93.0351" y2="107.956" gradientUnits="userSpaceOnUse">
<stop stop-color="#5C4037" style="stop-color:#5C4037;stop-color:color(display-p3 0.3608 0.2510 0.2157);stop-opacity:1;"/>
<stop offset="0.5" stop-color="#70534A" style="stop-color:#70534A;stop-color:color(display-p3 0.4392 0.3255 0.2902);stop-opacity:1;"/>
</linearGradient>
<linearGradient id="paint9_linear_201_1446" x1="93.0351" y1="75.0944" x2="93.0351" y2="107.956" gradientUnits="userSpaceOnUse">
<stop stop-color="#5C4037" style="stop-color:#5C4037;stop-color:color(display-p3 0.3608 0.2510 0.2157);stop-opacity:1;"/>
<stop offset="0.5" stop-color="#70534A" style="stop-color:#70534A;stop-color:color(display-p3 0.4392 0.3255 0.2902);stop-opacity:1;"/>
</linearGradient>
<linearGradient id="paint10_linear_201_1446" x1="90.2402" y1="52.3638" x2="90.2402" y2="98.9678" gradientUnits="userSpaceOnUse">
<stop stop-color="#515151" style="stop-color:#515151;stop-color:color(display-p3 0.3176 0.3176 0.3176);stop-opacity:1;"/>
<stop offset="0.9439" stop-color="#313131" style="stop-color:#313131;stop-color:color(display-p3 0.1922 0.1922 0.1922);stop-opacity:1;"/>
</linearGradient>
<linearGradient id="paint11_linear_201_1446" x1="100.184" y1="66.5742" x2="109.859" y2="77.923" gradientUnits="userSpaceOnUse">
<stop offset="0.1719" stop-color="#FFB300" style="stop-color:#FFB300;stop-color:color(display-p3 1.0000 0.7020 0.0000);stop-opacity:1;"/>
<stop offset="0.518" stop-color="#FFCA28" style="stop-color:#FFCA28;stop-color:color(display-p3 1.0000 0.7922 0.1569);stop-opacity:1;"/>
</linearGradient>
<linearGradient id="paint12_linear_201_1446" x1="107.564" y1="59.7431" x2="107.564" y2="82.9241" gradientUnits="userSpaceOnUse">
<stop stop-color="#FFD29C" style="stop-color:#FFD29C;stop-color:color(display-p3 1.0000 0.8235 0.6118);stop-opacity:1;"/>
<stop offset="0.5" stop-color="#F9DDBD" style="stop-color:#F9DDBD;stop-color:color(display-p3 0.9765 0.8667 0.7412);stop-opacity:1;"/>
</linearGradient>
<linearGradient id="paint13_linear_201_1446" x1="107.555" y1="59.7431" x2="107.555" y2="82.9241" gradientUnits="userSpaceOnUse">
<stop stop-color="#5C4037" style="stop-color:#5C4037;stop-color:color(display-p3 0.3608 0.2510 0.2157);stop-opacity:1;"/>
<stop offset="0.5" stop-color="#70534A" style="stop-color:#70534A;stop-color:color(display-p3 0.4392 0.3255 0.2902);stop-opacity:1;"/>
</linearGradient>
<linearGradient id="paint14_linear_201_1446" x1="80.7275" y1="67.1779" x2="70.3102" y2="77.5952" gradientUnits="userSpaceOnUse">
<stop offset="0.1719" stop-color="#FFB300" style="stop-color:#FFB300;stop-color:color(display-p3 1.0000 0.7020 0.0000);stop-opacity:1;"/>
<stop offset="0.518" stop-color="#FFCA28" style="stop-color:#FFCA28;stop-color:color(display-p3 1.0000 0.7922 0.1569);stop-opacity:1;"/>
</linearGradient>
<linearGradient id="paint15_linear_201_1446" x1="73.3071" y1="59.7431" x2="73.3071" y2="82.9441" gradientUnits="userSpaceOnUse">
<stop stop-color="#FFD29C" style="stop-color:#FFD29C;stop-color:color(display-p3 1.0000 0.8235 0.6118);stop-opacity:1;"/>
<stop offset="0.5" stop-color="#F9DDBD" style="stop-color:#F9DDBD;stop-color:color(display-p3 0.9765 0.8667 0.7412);stop-opacity:1;"/>
</linearGradient>
<linearGradient id="paint16_linear_201_1446" x1="73.2982" y1="59.7431" x2="73.2982" y2="82.9441" gradientUnits="userSpaceOnUse">
<stop stop-color="#5C4037" style="stop-color:#5C4037;stop-color:color(display-p3 0.3608 0.2510 0.2157);stop-opacity:1;"/>
<stop offset="0.5" stop-color="#70534A" style="stop-color:#70534A;stop-color:color(display-p3 0.4392 0.3255 0.2902);stop-opacity:1;"/>
</linearGradient>
<linearGradient id="paint17_linear_201_1446" x1="90.2695" y1="51.3086" x2="90.2695" y2="97.9125" gradientUnits="userSpaceOnUse">
<stop stop-color="#515151" style="stop-color:#515151;stop-color:color(display-p3 0.3176 0.3176 0.3176);stop-opacity:1;"/>
<stop offset="0.9439" stop-color="#313131" style="stop-color:#313131;stop-color:color(display-p3 0.1922 0.1922 0.1922);stop-opacity:1;"/>
</linearGradient>
<radialGradient id="paint18_radial_201_1446" cx="0" cy="0" r="1" gradientUnits="userSpaceOnUse" gradientTransform="translate(90.3726 40.5752) scale(19.8371 24.0723)">
<stop offset="0.7945" stop-color="#505050" stop-opacity="0" style="stop-color:none;stop-opacity:0;"/>
<stop offset="1" stop-color="#484848" style="stop-color:#484848;stop-color:color(display-p3 0.2833 0.2833 0.2833);stop-opacity:1;"/>
</radialGradient>
<linearGradient id="paint19_linear_201_1446" x1="90.2579" y1="8.58597" x2="90.2579" y2="33.9635" gradientUnits="userSpaceOnUse">
<stop stop-color="#504F4F" style="stop-color:#504F4F;stop-color:color(display-p3 0.3137 0.3098 0.3098);stop-opacity:1;"/>
<stop offset="1" stop-color="#212121" style="stop-color:#212121;stop-color:color(display-p3 0.1294 0.1294 0.1294);stop-opacity:1;"/>
</linearGradient>
<linearGradient id="paint20_linear_201_1446" x1="30.4512" y1="103.411" x2="33.7679" y2="124.336" gradientUnits="userSpaceOnUse">
<stop stop-color="#FFB300" style="stop-color:#FFB300;stop-color:color(display-p3 1.0000 0.7020 0.0000);stop-opacity:1;"/>
<stop offset="0.4007" stop-color="#FFCA28" style="stop-color:#FFCA28;stop-color:color(display-p3 1.0000 0.7922 0.1569);stop-opacity:1;"/>
</linearGradient>
<linearGradient id="paint21_linear_201_1446" x1="30.7834" y1="103.443" x2="30.7834" y2="124.324" gradientUnits="userSpaceOnUse">
<stop stop-color="#FFD29C" style="stop-color:#FFD29C;stop-color:color(display-p3 1.0000 0.8235 0.6118);stop-opacity:1;"/>
<stop offset="0.5" stop-color="#F9DDBD" style="stop-color:#F9DDBD;stop-color:color(display-p3 0.9765 0.8667 0.7412);stop-opacity:1;"/>
</linearGradient>
<linearGradient id="paint22_linear_201_1446" x1="30.7787" y1="103.443" x2="30.7787" y2="124.324" gradientUnits="userSpaceOnUse">
<stop stop-color="#5C4037" style="stop-color:#5C4037;stop-color:color(display-p3 0.3608 0.2510 0.2157);stop-opacity:1;"/>
<stop offset="0.5" stop-color="#70534A" style="stop-color:#70534A;stop-color:color(display-p3 0.4392 0.3255 0.2902);stop-opacity:1;"/>
</linearGradient>
<linearGradient id="paint23_linear_201_1446" x1="52.0381" y1="98.0673" x2="53.1557" y2="114.692" gradientUnits="userSpaceOnUse">
<stop stop-color="#FFB300" style="stop-color:#FFB300;stop-color:color(display-p3 1.0000 0.7020 0.0000);stop-opacity:1;"/>
<stop offset="0.4007" stop-color="#FFCA28" style="stop-color:#FFCA28;stop-color:color(display-p3 1.0000 0.7922 0.1569);stop-opacity:1;"/>
</linearGradient>
<linearGradient id="paint24_linear_201_1446" x1="52.6479" y1="98.0921" x2="52.6479" y2="114.348" gradientUnits="userSpaceOnUse">
<stop stop-color="#FFD29C" style="stop-color:#FFD29C;stop-color:color(display-p3 1.0000 0.8235 0.6118);stop-opacity:1;"/>
<stop offset="0.5" stop-color="#F9DDBD" style="stop-color:#F9DDBD;stop-color:color(display-p3 0.9765 0.8667 0.7412);stop-opacity:1;"/>
</linearGradient>
<linearGradient id="paint25_linear_201_1446" x1="52.6394" y1="98.0921" x2="52.6394" y2="114.348" gradientUnits="userSpaceOnUse">
<stop stop-color="#5C4037" style="stop-color:#5C4037;stop-color:color(display-p3 0.3608 0.2510 0.2157);stop-opacity:1;"/>
<stop offset="0.5" stop-color="#70534A" style="stop-color:#70534A;stop-color:color(display-p3 0.4392 0.3255 0.2902);stop-opacity:1;"/>
</linearGradient>
<linearGradient id="paint26_linear_201_1446" x1="34.8673" y1="90.9173" x2="40.3557" y2="103.289" gradientUnits="userSpaceOnUse">
<stop stop-color="#FFB300" style="stop-color:#FFB300;stop-color:color(display-p3 1.0000 0.7020 0.0000);stop-opacity:1;"/>
<stop offset="0.4007" stop-color="#FFCA28" style="stop-color:#FFCA28;stop-color:color(display-p3 1.0000 0.7922 0.1569);stop-opacity:1;"/>
</linearGradient>
<linearGradient id="paint27_linear_201_1446" x1="37.1993" y1="75.0944" x2="37.1993" y2="107.956" gradientUnits="userSpaceOnUse">
<stop stop-color="#FFD29C" style="stop-color:#FFD29C;stop-color:color(display-p3 1.0000 0.8235 0.6118);stop-opacity:1;"/>
<stop offset="0.5" stop-color="#F9DDBD" style="stop-color:#F9DDBD;stop-color:color(display-p3 0.9765 0.8667 0.7412);stop-opacity:1;"/>
</linearGradient>
<linearGradient id="paint28_linear_201_1446" x1="37.1845" y1="75.0944" x2="37.1845" y2="107.956" gradientUnits="userSpaceOnUse">
<stop stop-color="#5C4037" style="stop-color:#5C4037;stop-color:color(display-p3 0.3608 0.2510 0.2157);stop-opacity:1;"/>
<stop offset="0.5" stop-color="#70534A" style="stop-color:#70534A;stop-color:color(display-p3 0.4392 0.3255 0.2902);stop-opacity:1;"/>
</linearGradient>
<linearGradient id="paint29_linear_201_1446" x1="34.3896" y1="52.3638" x2="34.3896" y2="98.9678" gradientUnits="userSpaceOnUse">
<stop stop-color="#515151" style="stop-color:#515151;stop-color:color(display-p3 0.3176 0.3176 0.3176);stop-opacity:1;"/>
<stop offset="0.9439" stop-color="#313131" style="stop-color:#313131;stop-color:color(display-p3 0.1922 0.1922 0.1922);stop-opacity:1;"/>
</linearGradient>
<linearGradient id="paint30_linear_201_1446" x1="44.3347" y1="66.5742" x2="54.0091" y2="77.923" gradientUnits="userSpaceOnUse">
<stop offset="0.1719" stop-color="#FFB300" style="stop-color:#FFB300;stop-color:color(display-p3 1.0000 0.7020 0.0000);stop-opacity:1;"/>
<stop offset="0.518" stop-color="#FFCA28" style="stop-color:#FFCA28;stop-color:color(display-p3 1.0000 0.7922 0.1569);stop-opacity:1;"/>
</linearGradient>
<linearGradient id="paint31_linear_201_1446" x1="51.7143" y1="59.7431" x2="51.7143" y2="82.9241" gradientUnits="userSpaceOnUse">
<stop stop-color="#FFD29C" style="stop-color:#FFD29C;stop-color:color(display-p3 1.0000 0.8235 0.6118);stop-opacity:1;"/>
<stop offset="0.5" stop-color="#F9DDBD" style="stop-color:#F9DDBD;stop-color:color(display-p3 0.9765 0.8667 0.7412);stop-opacity:1;"/>
</linearGradient>
<linearGradient id="paint32_linear_201_1446" x1="51.7055" y1="59.7431" x2="51.7055" y2="82.9241" gradientUnits="userSpaceOnUse">
<stop stop-color="#5C4037" style="stop-color:#5C4037;stop-color:color(display-p3 0.3608 0.2510 0.2157);stop-opacity:1;"/>
<stop offset="0.5" stop-color="#70534A" style="stop-color:#70534A;stop-color:color(display-p3 0.4392 0.3255 0.2902);stop-opacity:1;"/>
</linearGradient>
<linearGradient id="paint33_linear_201_1446" x1="10.0779" y1="66.5801" x2="19.7619" y2="77.9304" gradientUnits="userSpaceOnUse">
<stop offset="0.1719" stop-color="#FFB300" style="stop-color:#FFB300;stop-color:color(display-p3 1.0000 0.7020 0.0000);stop-opacity:1;"/>
<stop offset="0.518" stop-color="#FFCA28" style="stop-color:#FFCA28;stop-color:color(display-p3 1.0000 0.7922 0.1569);stop-opacity:1;"/>
</linearGradient>
<linearGradient id="paint34_linear_201_1446" x1="17.4575" y1="59.7431" x2="17.4575" y2="82.9441" gradientUnits="userSpaceOnUse">
<stop stop-color="#FFD29C" style="stop-color:#FFD29C;stop-color:color(display-p3 1.0000 0.8235 0.6118);stop-opacity:1;"/>
<stop offset="0.5" stop-color="#F9DDBD" style="stop-color:#F9DDBD;stop-color:color(display-p3 0.9765 0.8667 0.7412);stop-opacity:1;"/>
</linearGradient>
<linearGradient id="paint35_linear_201_1446" x1="17.4486" y1="59.7431" x2="17.4486" y2="82.9441" gradientUnits="userSpaceOnUse">
<stop stop-color="#5C4037" style="stop-color:#5C4037;stop-color:color(display-p3 0.3608 0.2510 0.2157);stop-opacity:1;"/>
<stop offset="0.5" stop-color="#70534A" style="stop-color:#70534A;stop-color:color(display-p3 0.4392 0.3255 0.2902);stop-opacity:1;"/>
</linearGradient>
<linearGradient id="paint36_linear_201_1446" x1="34.4199" y1="51.3086" x2="34.4199" y2="97.9125" gradientUnits="userSpaceOnUse">
<stop stop-color="#515151" style="stop-color:#515151;stop-color:color(display-p3 0.3176 0.3176 0.3176);stop-opacity:1;"/>
<stop offset="0.9439" stop-color="#313131" style="stop-color:#313131;stop-color:color(display-p3 0.1922 0.1922 0.1922);stop-opacity:1;"/>
</linearGradient>
<radialGradient id="paint37_radial_201_1446" cx="0" cy="0" r="1" gradientUnits="userSpaceOnUse" gradientTransform="translate(34.523 40.5752) scale(19.8371 24.0723)">
<stop offset="0.7945" stop-color="#686868" stop-opacity="0" style="stop-color:none;stop-opacity:0;"/>
<stop offset="1" stop-color="#444444" style="stop-color:#444444;stop-color:color(display-p3 0.2667 0.2667 0.2667);stop-opacity:1;"/>
</radialGradient>
<linearGradient id="paint38_linear_201_1446" x1="34.4083" y1="8.58597" x2="34.4083" y2="33.9635" gradientUnits="userSpaceOnUse">
<stop stop-color="#504F4F" style="stop-color:#504F4F;stop-color:color(display-p3 0.3137 0.3098 0.3098);stop-opacity:1;"/>
<stop offset="1" stop-color="#212121" style="stop-color:#212121;stop-color:color(display-p3 0.1294 0.1294 0.1294);stop-opacity:1;"/>
</linearGradient>
<linearGradient id="paint39_linear_201_1446" x1="78.6052" y1="73.4078" x2="78.6052" y2="77.4187" gradientUnits="userSpaceOnUse">
<stop stop-color="#CCA47A" style="stop-color:#CCA47A;stop-color:color(display-p3 0.8000 0.6431 0.4784);stop-opacity:1;"/>
<stop offset="0.5" stop-color="#E0BB95" style="stop-color:#E0BB95;stop-color:color(display-p3 0.8784 0.7333 0.5843);stop-opacity:1;"/>
</linearGradient>
<linearGradient id="paint40_linear_201_1446" x1="86.4154" y1="105.209" x2="87.1596" y2="116.278" gradientUnits="userSpaceOnUse">
<stop stop-color="#FFB300" style="stop-color:#FFB300;stop-color:color(display-p3 1.0000 0.7020 0.0000);stop-opacity:1;"/>
<stop offset="0.4007" stop-color="#FFCA28" style="stop-color:#FFCA28;stop-color:color(display-p3 1.0000 0.7922 0.1569);stop-opacity:1;"/>
</linearGradient>
<linearGradient id="paint41_linear_201_1446" x1="86.633" y1="103.443" x2="86.633" y2="124.324" gradientUnits="userSpaceOnUse">
<stop stop-color="#CCA47A" style="stop-color:#CCA47A;stop-color:color(display-p3 0.8000 0.6431 0.4784);stop-opacity:1;"/>
<stop offset="0.5" stop-color="#E0BB95" style="stop-color:#E0BB95;stop-color:color(display-p3 0.8784 0.7333 0.5843);stop-opacity:1;"/>
</linearGradient>
<linearGradient id="paint42_linear_201_1446" x1="108.098" y1="99.4667" x2="108.345" y2="108.116" gradientUnits="userSpaceOnUse">
<stop stop-color="#FFB300" style="stop-color:#FFB300;stop-color:color(display-p3 1.0000 0.7020 0.0000);stop-opacity:1;"/>
<stop offset="0.4007" stop-color="#FFCA28" style="stop-color:#FFCA28;stop-color:color(display-p3 1.0000 0.7922 0.1569);stop-opacity:1;"/>
</linearGradient>
<linearGradient id="paint43_linear_201_1446" x1="108.498" y1="98.092" x2="108.498" y2="114.348" gradientUnits="userSpaceOnUse">
<stop stop-color="#CCA47A" style="stop-color:#CCA47A;stop-color:color(display-p3 0.8000 0.6431 0.4784);stop-opacity:1;"/>
<stop offset="0.5" stop-color="#E0BB95" style="stop-color:#E0BB95;stop-color:color(display-p3 0.8784 0.7333 0.5843);stop-opacity:1;"/>
</linearGradient>
<linearGradient id="paint44_linear_201_1446" x1="92.3601" y1="77.8732" x2="92.9437" y2="95.3534" gradientUnits="userSpaceOnUse">
<stop stop-color="#FFB300" style="stop-color:#FFB300;stop-color:color(display-p3 1.0000 0.7020 0.0000);stop-opacity:1;"/>
<stop offset="0.4007" stop-color="#FFCA28" style="stop-color:#FFCA28;stop-color:color(display-p3 1.0000 0.7922 0.1569);stop-opacity:1;"/>
</linearGradient>
<linearGradient id="paint45_linear_201_1446" x1="93.0499" y1="75.0942" x2="93.0499" y2="107.956" gradientUnits="userSpaceOnUse">
<stop stop-color="#CCA47A" style="stop-color:#CCA47A;stop-color:color(display-p3 0.8000 0.6431 0.4784);stop-opacity:1;"/>
<stop offset="0.5" stop-color="#E0BB95" style="stop-color:#E0BB95;stop-color:color(display-p3 0.8784 0.7333 0.5843);stop-opacity:1;"/>
</linearGradient>
<linearGradient id="paint46_linear_201_1446" x1="102.249" y1="73.396" x2="102.249" y2="77.1485" gradientUnits="userSpaceOnUse">
<stop stop-color="#CCA47A" style="stop-color:#CCA47A;stop-color:color(display-p3 0.8000 0.6431 0.4784);stop-opacity:1;"/>
<stop offset="0.5" stop-color="#E0BB95" style="stop-color:#E0BB95;stop-color:color(display-p3 0.8784 0.7333 0.5843);stop-opacity:1;"/>
</linearGradient>
<linearGradient id="paint47_linear_201_1446" x1="90.2402" y1="52.3639" x2="90.2402" y2="98.9679" gradientUnits="userSpaceOnUse">
<stop stop-color="#515151" style="stop-color:#515151;stop-color:color(display-p3 0.3176 0.3176 0.3176);stop-opacity:1;"/>
<stop offset="0.9439" stop-color="#313131" style="stop-color:#313131;stop-color:color(display-p3 0.1922 0.1922 0.1922);stop-opacity:1;"/>
</linearGradient>
<linearGradient id="paint48_linear_201_1446" x1="100.184" y1="66.5744" x2="109.859" y2="77.9232" gradientUnits="userSpaceOnUse">
<stop offset="0.1719" stop-color="#FFB300" style="stop-color:#FFB300;stop-color:color(display-p3 1.0000 0.7020 0.0000);stop-opacity:1;"/>
<stop offset="0.518" stop-color="#FFCA28" style="stop-color:#FFCA28;stop-color:color(display-p3 1.0000 0.7922 0.1569);stop-opacity:1;"/>
</linearGradient>
<linearGradient id="paint49_linear_201_1446" x1="107.564" y1="59.7433" x2="107.564" y2="82.9244" gradientUnits="userSpaceOnUse">
<stop stop-color="#CCA47A" style="stop-color:#CCA47A;stop-color:color(display-p3 0.8000 0.6431 0.4784);stop-opacity:1;"/>
<stop offset="0.5" stop-color="#E0BB95" style="stop-color:#E0BB95;stop-color:color(display-p3 0.8784 0.7333 0.5843);stop-opacity:1;"/>
</linearGradient>
<linearGradient id="paint50_linear_201_1446" x1="65.9275" y1="66.5803" x2="75.6115" y2="77.9307" gradientUnits="userSpaceOnUse">
<stop offset="0.1719" stop-color="#FFB300" style="stop-color:#FFB300;stop-color:color(display-p3 1.0000 0.7020 0.0000);stop-opacity:1;"/>
<stop offset="0.518" stop-color="#FFCA28" style="stop-color:#FFCA28;stop-color:color(display-p3 1.0000 0.7922 0.1569);stop-opacity:1;"/>
</linearGradient>
<linearGradient id="paint51_linear_201_1446" x1="73.3071" y1="59.7433" x2="73.3071" y2="82.9444" gradientUnits="userSpaceOnUse">
<stop stop-color="#CCA47A" style="stop-color:#CCA47A;stop-color:color(display-p3 0.8000 0.6431 0.4784);stop-opacity:1;"/>
<stop offset="0.5" stop-color="#E0BB95" style="stop-color:#E0BB95;stop-color:color(display-p3 0.8784 0.7333 0.5843);stop-opacity:1;"/>
</linearGradient>
<linearGradient id="paint52_linear_201_1446" x1="90.2695" y1="51.3087" x2="90.2695" y2="97.9127" gradientUnits="userSpaceOnUse">
<stop stop-color="#515151" style="stop-color:#515151;stop-color:color(display-p3 0.3176 0.3176 0.3176);stop-opacity:1;"/>
<stop offset="0.9439" stop-color="#313131" style="stop-color:#313131;stop-color:color(display-p3 0.1922 0.1922 0.1922);stop-opacity:1;"/>
</linearGradient>
<linearGradient id="paint53_linear_201_1446" x1="90.2598" y1="53.3571" x2="90.2598" y2="60.1942" gradientUnits="userSpaceOnUse">
<stop stop-color="#FFB300" style="stop-color:#FFB300;stop-color:color(display-p3 1.0000 0.7020 0.0000);stop-opacity:1;"/>
<stop offset="0.6846" stop-color="#FFCA28" style="stop-color:#FFCA28;stop-color:color(display-p3 1.0000 0.7922 0.1569);stop-opacity:1;"/>
</linearGradient>
<radialGradient id="paint54_radial_201_1446" cx="0" cy="0" r="1" gradientUnits="userSpaceOnUse" gradientTransform="translate(90.2409 44.8388) scale(16.479 27.9494)">
<stop offset="0.7945" stop-color="#BFA055" stop-opacity="0" style="stop-color:none;stop-opacity:0;"/>
<stop offset="1" stop-color="#BFA055" style="stop-color:#BFA055;stop-color:color(display-p3 0.7490 0.6275 0.3333);stop-opacity:1;"/>
</radialGradient>
<radialGradient id="paint55_radial_201_1446" cx="0" cy="0" r="1" gradientUnits="userSpaceOnUse" gradientTransform="translate(90.3726 40.5752) scale(19.8371 24.0723)">
<stop offset="0.7945" stop-color="#6D4C41" stop-opacity="0" style="stop-color:none;stop-opacity:0;"/>
<stop offset="1" stop-color="#6D4C41" style="stop-color:#6D4C41;stop-color:color(display-p3 0.4275 0.2980 0.2549);stop-opacity:1;"/>
</radialGradient>
<radialGradient id="paint56_radial_201_1446" cx="0" cy="0" r="1" gradientUnits="userSpaceOnUse" gradientTransform="translate(90.2452 37.1946) rotate(-12.7512) scale(16.3897 18.0817)">
<stop offset="0.7945" stop-color="#BFA055" stop-opacity="0" style="stop-color:none;stop-opacity:0;"/>
<stop offset="1" stop-color="#BFA055" style="stop-color:#BFA055;stop-color:color(display-p3 0.7490 0.6275 0.3333);stop-opacity:1;"/>
</radialGradient>
<radialGradient id="paint57_radial_201_1446" cx="0" cy="0" r="1" gradientUnits="userSpaceOnUse" gradientTransform="translate(90.2604 44.8332) scale(16.479 27.9637)">
<stop offset="0.7945" stop-color="#BFA055" stop-opacity="0" style="stop-color:none;stop-opacity:0;"/>
<stop offset="1" stop-color="#BFA055" style="stop-color:#BFA055;stop-color:color(display-p3 0.7490 0.6275 0.3333);stop-opacity:1;"/>
</radialGradient>
<linearGradient id="paint58_linear_201_1446" x1="90.2589" y1="8.58597" x2="90.2589" y2="33.9635" gradientUnits="userSpaceOnUse">
<stop stop-color="#504F4F" style="stop-color:#504F4F;stop-color:color(display-p3 0.3137 0.3098 0.3098);stop-opacity:1;"/>
<stop offset="1" stop-color="#212121" style="stop-color:#212121;stop-color:color(display-p3 0.1294 0.1294 0.1294);stop-opacity:1;"/>
</linearGradient>
</defs>
</svg>
