<svg width="129" height="128" viewBox="0 0 129 128" fill="none" xmlns="http://www.w3.org/2000/svg">
<path d="M28.5 109V19H44.852V60.3525H45.954L81.1701 19H101.136L66.2286 59.3857L101.445 109H81.7871L54.8572 70.416L44.852 82.1934V109H28.5Z" fill="#DFE6EB" style="fill:#DFE6EB;fill:color(display-p3 0.8745 0.9020 0.9216);fill-opacity:1;"/>
<path d="M28.5 109V19H44.852V60.3525H45.954L81.1701 19H101.136L66.2286 59.3857L101.445 109H81.7871L54.8572 70.416L44.852 82.1934V109H28.5Z" fill="#8CAFBF" style="fill:#8CAFBF;fill:color(display-p3 0.5490 0.6863 0.7490);fill-opacity:1;"/>
<path fill-rule="evenodd" clip-rule="evenodd" d="M25.5 112V16H47.852V53.4967L79.7845 16H107.695L70.0367 59.5677L107.253 112H80.2225L54.6242 75.3239L47.852 83.2956V112H25.5ZM44.852 82.1934L54.8572 70.416L81.7871 109H101.445L66.2286 59.3857L101.136 19H81.1701L45.954 60.3525H44.852V19H28.5V109H44.852V82.1934Z" fill="#427687" style="fill:#427687;fill:color(display-p3 0.2588 0.4627 0.5294);fill-opacity:1;"/>
</svg>
