<svg width="128" height="128" viewBox="0 0 128 128" fill="none" xmlns="http://www.w3.org/2000/svg">
<path d="M64 6.25C32.9 6.25 4.09998 26.95 4.09998 63.95C4.09998 101.25 32.9 121.75 64 121.75C95.1 121.75 123.9 101.75 123.9 63.95C123.8 26.45 95 6.25 64 6.25Z" fill="url(#paint0_radial_169_6883)" style=""/>
<path d="M64 6.25C32.9 6.25 4.09998 26.95 4.09998 63.95C4.09998 101.25 32.9 121.75 64 121.75C95.1 121.75 123.9 101.75 123.9 63.95C123.8 26.45 95 6.25 64 6.25Z" fill="url(#paint1_radial_169_6883)" style=""/>
<path d="M64 6.25C32.9 6.25 4.09998 26.95 4.09998 63.95C4.09998 101.25 32.9 121.75 64 121.75C95.1 121.75 123.9 101.75 123.9 63.95C123.8 26.45 95 6.25 64 6.25Z" fill="url(#paint2_radial_169_6883)" style=""/>
<path d="M96.68 86.83C97.01 84.25 96.1 81.44 94.58 79.4C94.38 79.13 93.95 79.26 93.94 79.59C93.87 81.3 93.26 84.75 89.57 86.03C82.6 88.45 79.15 76.65 69.06 77.6C66.87 77.81 65.2 78.78 63.99 80.22C63.98 80.21 63.97 80.2 63.97 80.2C63.96 80.21 63.95 80.22 63.95 80.22C62.74 78.78 61.07 77.8 58.88 77.6C48.78 76.65 45.33 88.45 38.37 86.03C34.68 84.75 34.07 81.3 34 79.59C33.99 79.26 33.56 79.13 33.36 79.4C31.84 81.44 30.92 84.25 31.26 86.83C31.91 91.83 36.73 93.31 36.73 93.31C35.39 94.57 34.1 94.9 32.55 94.78C32.05 94.74 31.73 95.34 32.04 95.73C35.67 100.41 42.34 101.88 47.21 98.83C46.92 99.77 46.46 100.65 45.87 101.39C45.63 101.7 45.74 102.16 46.11 102.31C52.33 104.82 58.79 103.67 63.98 98.63C69.16 103.67 75.63 104.82 81.85 102.31C82.21 102.16 82.33 101.7 82.09 101.39C81.5 100.65 81.04 99.77 80.75 98.83C85.61 101.88 92.29 100.41 95.92 95.73C96.23 95.33 95.91 94.74 95.41 94.78C93.85 94.9 92.57 94.57 91.23 93.31C91.21 93.31 96.04 91.83 96.68 86.83Z" fill="url(#paint3_radial_169_6883)" style=""/>
<path d="M27.4599 19.9699C29.6199 21.2299 30.7099 23.7899 30.7099 23.7899C30.7099 23.7899 27.6199 21.4999 22.5699 24.8599C19.8699 26.6499 19.7699 28.0399 16.5599 29.1999C16.1999 29.3299 16.0899 29.8099 16.3799 30.0699C18.1399 31.6299 20.1199 32.9399 22.3299 33.7499C26.0299 35.1099 29.7999 33.1199 33.6199 32.9999C38.7399 32.8299 45.3699 34.2799 49.9199 36.8599C51.2099 33.1799 51.1499 29.0499 49.7599 25.4099C48.4999 22.1199 46.1699 19.2599 43.2199 17.3399C42.8399 17.0899 42.3499 17.3999 42.4099 17.8499L43.2099 23.2699C40.9099 19.7799 37.2999 17.6799 33.0899 17.8199C31.3699 17.8799 29.1399 18.2099 27.4699 19.0499C27.1099 19.2399 27.1099 19.7599 27.4599 19.9699Z" fill="url(#paint4_radial_169_6883)" style=""/>
<path d="M100.54 19.9699C98.3799 21.2299 97.2899 23.7899 97.2899 23.7899C97.2899 23.7899 100.38 21.4999 105.43 24.8599C108.13 26.6499 108.23 28.0399 111.44 29.1999C111.8 29.3299 111.91 29.8099 111.62 30.0699C109.86 31.6299 107.88 32.9399 105.67 33.7499C101.97 35.1099 98.1999 33.1199 94.3799 32.9999C89.2599 32.8299 82.6299 34.2799 78.0799 36.8599C76.7899 33.1799 76.8499 29.0499 78.2399 25.4099C79.4999 22.1199 81.8299 19.2599 84.7799 17.3399C85.1599 17.0899 85.6499 17.3999 85.5899 17.8499L84.7899 23.2699C87.0899 19.7799 90.6999 17.6799 94.9099 17.8199C96.6299 17.8799 98.8599 18.2099 100.53 19.0499C100.89 19.2399 100.89 19.7599 100.54 19.9699Z" fill="url(#paint5_radial_169_6883)" style=""/>
<path d="M34.56 34.37C44.27 34.37 52.18 42.27 52.18 51.99C52.18 61.71 44.28 69.61 34.56 69.61C24.84 69.61 16.94 61.71 16.94 51.99C16.94 42.27 24.84 34.37 34.56 34.37ZM34.56 29.03C21.88 29.03 11.6 39.31 11.6 51.99C11.6 64.67 21.88 74.95 34.56 74.95C47.24 74.95 57.52 64.67 57.52 51.99C57.52 39.31 47.24 29.03 34.56 29.03Z" fill="#212121" style="fill:#212121;fill:color(display-p3 0.1294 0.1294 0.1294);fill-opacity:1;"/>
<path d="M93.3899 34.37C103.1 34.37 111.01 42.27 111.01 51.99C111.01 61.71 103.11 69.61 93.3899 69.61C83.6699 69.61 75.7699 61.71 75.7699 51.99C75.7699 42.27 83.6799 34.37 93.3899 34.37ZM93.3899 29.03C80.7099 29.03 70.4299 39.31 70.4299 51.99C70.4299 64.67 80.7099 74.95 93.3899 74.95C106.07 74.95 116.35 64.67 116.35 51.99C116.35 39.31 106.07 29.03 93.3899 29.03Z" fill="#212121" style="fill:#212121;fill:color(display-p3 0.1294 0.1294 0.1294);fill-opacity:1;"/>
<path d="M115.17 59.44C116.19 56.53 120.85 55.06 123.09 54.51C123.8 54.34 124.31 53.7 124.31 52.97V49.82C124.31 48.97 123.65 48.28 122.8 48.24C120.54 48.13 116.41 47.56 115.3 44.92C113.73 41.22 113.82 63.31 115.17 59.44Z" fill="url(#paint6_linear_169_6883)" style=""/>
<path d="M72.39 42.8C72.38 42.8 72.05 44.11 70.22 44.11C68.43 44.11 67.59 42.63 64 42.63C60.41 42.63 59.57 44.11 57.78 44.11C55.95 44.11 55.61 42.81 55.61 42.8C55.05 42.46 55.36 48.87 55.36 48.87C55.55 49.5 56.62 55.74 57.21 55.82C57.21 55.82 59.66 51.51 64 51.46C68.33 51.51 70.79 55.82 70.79 55.82C71.38 55.74 72.45 49.5 72.64 48.87C72.64 48.87 72.94 42.46 72.39 42.8Z" fill="#212121" style="fill:#212121;fill:color(display-p3 0.1294 0.1294 0.1294);fill-opacity:1;"/>
<path d="M12.8299 59.44C11.8099 56.53 7.14994 55.06 4.90994 54.51C4.19994 54.34 3.68994 53.7 3.68994 52.97V49.82C3.68994 48.97 4.34994 48.28 5.19994 48.24C7.45994 48.13 11.5899 47.56 12.6999 44.92C14.2699 41.22 14.1799 63.31 12.8299 59.44Z" fill="url(#paint7_linear_169_6883)" style=""/>
<path d="M72.5699 61.58C70.2499 53.83 69.0199 49.24 64.0199 49.22C64.0099 49.22 63.9999 49.22 63.9899 49.22C63.9799 49.22 63.9699 49.22 63.9599 49.22C58.9699 49.23 57.7399 53.83 55.4099 61.58C52.6099 70.9 43.2599 77.59 47.9299 83.9C49.6099 86.16 51.9399 86.12 53.3599 86.48C54.7599 86.84 57.5399 93.32 63.9599 93.32C63.9699 93.32 63.9799 93.32 63.9899 93.32C63.9999 93.32 64.0099 93.32 64.0199 93.32C70.4399 93.32 73.2199 86.85 74.6199 86.48C76.0399 86.11 78.3699 86.16 80.0499 83.9C84.7199 77.58 75.3699 70.9 72.5699 61.58Z" fill="url(#paint8_linear_169_6883)" style=""/>
<path d="M72.5699 61.58C70.2499 53.83 69.0199 49.24 64.0199 49.22C64.0099 49.22 63.9999 49.22 63.9899 49.22C63.9799 49.22 63.9699 49.22 63.9599 49.22C58.9699 49.23 57.7399 53.83 55.4099 61.58C52.6099 70.9 43.2599 77.59 47.9299 83.9C49.6099 86.16 51.9399 86.12 53.3599 86.48C54.7599 86.84 57.5399 93.32 63.9599 93.32C63.9699 93.32 63.9799 93.32 63.9899 93.32C63.9999 93.32 64.0099 93.32 64.0199 93.32C70.4399 93.32 73.2199 86.85 74.6199 86.48C76.0399 86.11 78.3699 86.16 80.0499 83.9C84.7199 77.58 75.3699 70.9 72.5699 61.58Z" fill="url(#paint9_radial_169_6883)" style=""/>
<path d="M57.2499 68.5C58.9999 64.79 59.4599 58.21 59.4599 58.21C59.4599 58.21 57.8299 60.02 54.5099 64.83C53.8399 65.81 52.5299 67.91 51.7599 69.2C48.6999 74.37 44.6699 79.47 47.9499 83.89C49.6299 86.15 51.9599 86.11 53.3799 86.47C53.8099 86.58 54.3699 87.26 55.1099 88.15C55.1099 88.15 52.9199 84.24 53.3799 80.24C53.8399 76.24 55.4999 72.21 57.2499 68.5Z" fill="url(#paint10_radial_169_6883)" style=""/>
<path d="M70.7799 68.5C69.0299 64.79 68.5699 58.21 68.5699 58.21C68.5699 58.21 70.1999 60.02 73.5199 64.83C74.1899 65.81 75.4999 67.91 76.2699 69.2C79.3299 74.37 83.3599 79.47 80.0799 83.89C78.3999 86.15 76.0699 86.11 74.6499 86.47C74.2199 86.58 73.6599 87.26 72.9199 88.15C72.9199 88.15 75.1099 84.24 74.6499 80.24C74.1899 76.24 72.5299 72.21 70.7799 68.5Z" fill="url(#paint11_radial_169_6883)" style=""/>
<path d="M90.02 41.9399C85.83 41.9399 82.02 45.4799 82.02 51.3599C82.02 57.2399 85.83 60.7799 90.02 60.7799C94.21 60.7799 98.02 57.2399 98.02 51.3599C98.02 45.4799 94.21 41.9399 90.02 41.9399Z" fill="#5D4037" style="fill:#5D4037;fill:color(display-p3 0.3647 0.2510 0.2157);fill-opacity:1;"/>
<path d="M89.63 45.8702C88.6 45.1502 87.05 45.3802 86.05 46.8202C85.05 48.2702 85.38 49.7902 86.41 50.5102C87.44 51.2302 88.99 51.0002 89.99 49.5602C91 48.1102 90.67 46.5902 89.63 45.8702Z" fill="#836258" style="fill:#836258;fill:color(display-p3 0.5125 0.3838 0.3438);fill-opacity:1;"/>
<path d="M37.67 41.9399C33.48 41.9399 29.67 45.4799 29.67 51.3599C29.67 57.2399 33.48 60.7799 37.67 60.7799C41.86 60.7799 45.67 57.2399 45.67 51.3599C45.67 45.4799 41.86 41.9399 37.67 41.9399Z" fill="#5D4037" style="fill:#5D4037;fill:color(display-p3 0.3647 0.2510 0.2157);fill-opacity:1;"/>
<path d="M37.28 45.8697C36.25 45.1497 34.7 45.3797 33.7 46.8197C32.7 48.2697 33.03 49.7897 34.06 50.5097C35.09 51.2297 36.64 50.9997 37.64 49.5597C38.64 48.1097 38.31 46.5897 37.28 45.8697Z" fill="#836258" style="fill:#836258;fill:color(display-p3 0.5125 0.3838 0.3438);fill-opacity:1;"/>
<defs>
<radialGradient id="paint0_radial_169_6883" cx="0" cy="0" r="1" gradientUnits="userSpaceOnUse" gradientTransform="translate(64 64) scale(58.8348 58.8348)">
<stop offset="0.5" stop-color="#FDE030" style="stop-color:#FDE030;stop-color:color(display-p3 0.9922 0.8784 0.1882);stop-opacity:1;"/>
<stop offset="0.9188" stop-color="#F7C02B" style="stop-color:#F7C02B;stop-color:color(display-p3 0.9686 0.7529 0.1686);stop-opacity:1;"/>
<stop offset="1" stop-color="#F4A223" style="stop-color:#F4A223;stop-color:color(display-p3 0.9569 0.6353 0.1373);stop-opacity:1;"/>
</radialGradient>
<radialGradient id="paint1_radial_169_6883" cx="0" cy="0" r="1" gradientUnits="userSpaceOnUse" gradientTransform="translate(38.18 34.6991) rotate(-43.2175) scale(105.382 105.178)">
<stop offset="0.3533" stop-color="#F9DDBD" style="stop-color:#F9DDBD;stop-color:color(display-p3 0.9765 0.8667 0.7412);stop-opacity:1;"/>
<stop offset="0.8723" stop-color="#FFD29C" style="stop-color:#FFD29C;stop-color:color(display-p3 1.0000 0.8235 0.6118);stop-opacity:1;"/>
</radialGradient>
<radialGradient id="paint2_radial_169_6883" cx="0" cy="0" r="1" gradientUnits="userSpaceOnUse" gradientTransform="translate(38.18 34.6991) rotate(-43.2175) scale(105.382 105.178)">
<stop offset="0.3533" stop-color="#E0BB95" style="stop-color:#E0BB95;stop-color:color(display-p3 0.8784 0.7333 0.5843);stop-opacity:1;"/>
<stop offset="0.8723" stop-color="#CCA47A" style="stop-color:#CCA47A;stop-color:color(display-p3 0.8000 0.6431 0.4784);stop-opacity:1;"/>
</radialGradient>
<radialGradient id="paint3_radial_169_6883" cx="0" cy="0" r="1" gradientUnits="userSpaceOnUse" gradientTransform="translate(63.9723 88.405) scale(33.8219 15.6156)">
<stop offset="0.0323" style="stop-color:black;stop-opacity:1;"/>
<stop offset="1" stop-color="#424242" style="stop-color:#424242;stop-color:color(display-p3 0.2588 0.2588 0.2588);stop-opacity:1;"/>
</radialGradient>
<radialGradient id="paint4_radial_169_6883" cx="0" cy="0" r="1" gradientUnits="userSpaceOnUse" gradientTransform="translate(37.6027 33.4378) rotate(0.358753) scale(22.0674 14.986)">
<stop offset="0.0323" style="stop-color:black;stop-opacity:1;"/>
<stop offset="0.9664" stop-color="#424242" style="stop-color:#424242;stop-color:color(display-p3 0.2588 0.2588 0.2588);stop-opacity:1;"/>
</radialGradient>
<radialGradient id="paint5_radial_169_6883" cx="0" cy="0" r="1" gradientUnits="userSpaceOnUse" gradientTransform="translate(91.0993 32.9694) rotate(179.641) scale(20.4491 10.6172)">
<stop offset="0.0323" style="stop-color:black;stop-opacity:1;"/>
<stop offset="1" stop-color="#424242" style="stop-color:#424242;stop-color:color(display-p3 0.2588 0.2588 0.2588);stop-opacity:1;"/>
</radialGradient>
<linearGradient id="paint6_linear_169_6883" x1="113.663" y1="52.1947" x2="123.835" y2="52.1947" gradientUnits="userSpaceOnUse">
<stop offset="0.4463" stop-color="#212121" style="stop-color:#212121;stop-color:color(display-p3 0.1294 0.1294 0.1294);stop-opacity:1;"/>
<stop offset="0.7484" stop-color="#323232" style="stop-color:#323232;stop-color:color(display-p3 0.1961 0.1961 0.1961);stop-opacity:1;"/>
<stop offset="0.9664" stop-color="#424242" style="stop-color:#424242;stop-color:color(display-p3 0.2588 0.2588 0.2588);stop-opacity:1;"/>
</linearGradient>
<linearGradient id="paint7_linear_169_6883" x1="14.3366" y1="52.1947" x2="4.16514" y2="52.1947" gradientUnits="userSpaceOnUse">
<stop offset="0.4463" stop-color="#212121" style="stop-color:#212121;stop-color:color(display-p3 0.1294 0.1294 0.1294);stop-opacity:1;"/>
<stop offset="0.7484" stop-color="#323232" style="stop-color:#323232;stop-color:color(display-p3 0.1961 0.1961 0.1961);stop-opacity:1;"/>
<stop offset="0.9664" stop-color="#424242" style="stop-color:#424242;stop-color:color(display-p3 0.2588 0.2588 0.2588);stop-opacity:1;"/>
</linearGradient>
<linearGradient id="paint8_linear_169_6883" x1="63.9999" y1="20.8333" x2="63.9999" y2="56.8888" gradientUnits="userSpaceOnUse">
<stop offset="0.5" stop-color="#F9DDBD" style="stop-color:#F9DDBD;stop-color:color(display-p3 0.9765 0.8667 0.7412);stop-opacity:1;"/>
<stop offset="1" stop-color="#FCD7AB" style="stop-color:#FCD7AB;stop-color:color(display-p3 0.9882 0.8431 0.6706);stop-opacity:1;"/>
</linearGradient>
<radialGradient id="paint9_radial_169_6883" cx="0" cy="0" r="1" gradientUnits="userSpaceOnUse" gradientTransform="translate(56.5133 60.0824) rotate(-51.0926) scale(35.4078 34.6101)">
<stop offset="0.3533" stop-color="#E0BB95" style="stop-color:#E0BB95;stop-color:color(display-p3 0.8784 0.7333 0.5843);stop-opacity:1;"/>
<stop offset="0.8723" stop-color="#CCA47A" style="stop-color:#CCA47A;stop-color:color(display-p3 0.8000 0.6431 0.4784);stop-opacity:1;"/>
</radialGradient>
<radialGradient id="paint10_radial_169_6883" cx="0" cy="0" r="1" gradientUnits="userSpaceOnUse" gradientTransform="translate(58.3371 82.8513) rotate(15.7959) scale(11.5069 13.6846)">
<stop offset="0.000198287" stop-color="#BA8F63" style="stop-color:#BA8F63;stop-color:color(display-p3 0.7294 0.5608 0.3882);stop-opacity:1;"/>
<stop offset="0.7126" stop-color="#BA8F63" stop-opacity="0.2874" style="stop-color:#BA8F63;stop-color:color(display-p3 0.7294 0.5608 0.3882);stop-opacity:0.2874;"/>
<stop offset="1" stop-color="#BA8F63" stop-opacity="0" style="stop-color:none;stop-opacity:0;"/>
</radialGradient>
<radialGradient id="paint11_radial_169_6883" cx="0" cy="0" r="1" gradientUnits="userSpaceOnUse" gradientTransform="translate(69.6904 82.8515) rotate(164.204) scale(11.507 13.6846)">
<stop offset="0.000198287" stop-color="#BA8F63" style="stop-color:#BA8F63;stop-color:color(display-p3 0.7294 0.5608 0.3882);stop-opacity:1;"/>
<stop offset="0.7126" stop-color="#BA8F63" stop-opacity="0.2874" style="stop-color:#BA8F63;stop-color:color(display-p3 0.7294 0.5608 0.3882);stop-opacity:0.2874;"/>
<stop offset="1" stop-color="#BA8F63" stop-opacity="0" style="stop-color:none;stop-opacity:0;"/>
</radialGradient>
</defs>
</svg>
