<svg width="128" height="129" viewBox="0 0 128 129" fill="none" xmlns="http://www.w3.org/2000/svg">
<g clip-path="url(#clip0_47_30)">
<path d="M124 35.825C122.15 36.945 120.34 37.885 118.57 38.675C116.79 39.475 115.05 40.125 113.33 40.655C111.61 41.185 109.93 41.605 108.27 41.915C106.61 42.235 104.98 42.455 103.38 42.595C101.78 42.735 100.19 42.795 98.63 42.795C97.07 42.795 95.53 42.735 94.01 42.615C92.49 42.495 90.99 42.335 89.51 42.135C88.03 41.925 86.56 41.685 85.11 41.405C83.66 41.125 82.22 40.825 80.79 40.495C79.36 40.165 77.94 39.815 76.54 39.445C75.13 39.075 73.73 38.685 72.33 38.295C70.93 37.905 69.54 37.485 68.16 37.075C66.77 36.665 65.39 36.245 64 35.825C62.62 35.405 61.23 34.985 59.84 34.575C58.45 34.165 57.06 33.755 55.67 33.355C54.27 32.955 52.87 32.575 51.46 32.205C50.05 31.835 48.63 31.485 47.21 31.155C45.79 30.825 44.34 30.515 42.89 30.245C41.44 29.965 39.97 29.725 38.49 29.515C37.01 29.305 35.51 29.145 33.99 29.035C32.47 28.925 30.93 28.855 29.37 28.855C27.81 28.855 26.23 28.915 24.62 29.055C23.01 29.195 21.38 29.415 19.73 29.735C18.07 30.055 16.39 30.465 14.67 30.995C12.95 31.525 11.21 32.175 9.43 32.975C7.66 33.775 5.85 34.715 4 35.825V30.815C4 30.815 4 27.935 4 26.445V21.435C5.85 20.315 7.66 19.375 9.43 18.585C11.2 17.795 12.95 17.135 14.67 16.605C16.39 16.075 18.07 15.655 19.73 15.345C21.39 15.025 23.02 14.805 24.62 14.665C26.23 14.525 27.81 14.465 29.37 14.465C30.93 14.465 32.47 14.525 33.99 14.645C35.51 14.755 37.01 14.925 38.49 15.125C39.97 15.325 41.44 15.575 42.89 15.855C44.34 16.135 45.78 16.435 47.21 16.765C48.64 17.095 50.06 17.445 51.46 17.815C52.87 18.185 54.27 18.575 55.67 18.965C57.07 19.355 58.46 19.775 59.84 20.185C61.22 20.595 62.61 21.015 64 21.435C65.38 21.855 66.77 22.275 68.16 22.685C69.55 23.095 70.94 23.505 72.33 23.905C73.72 24.305 75.13 24.685 76.54 25.055C77.95 25.425 79.37 25.775 80.79 26.105C82.22 26.435 83.66 26.745 85.11 27.015C86.56 27.295 88.03 27.535 89.51 27.745C90.99 27.955 92.49 28.115 94.01 28.225C95.53 28.335 97.07 28.405 98.63 28.405C100.19 28.405 101.77 28.345 103.38 28.205C104.99 28.065 106.62 27.845 108.27 27.525C109.93 27.205 111.61 26.795 113.33 26.265C115.05 25.735 116.79 25.085 118.57 24.285C120.35 23.485 122.16 22.545 124 21.435V26.445V30.815C124 30.815 124 33.905 124 35.825Z" fill="#333333" style="fill:#333333;fill:color(display-p3 0.2000 0.2000 0.2000);fill-opacity:1;"/>
<path d="M124 43.495C122.15 44.615 120.34 45.555 118.57 46.345C116.79 47.145 115.05 47.795 113.33 48.325C111.61 48.855 109.93 49.275 108.27 49.585C106.61 49.905 104.98 50.125 103.38 50.265C101.78 50.405 100.19 50.465 98.63 50.465C97.07 50.465 95.53 50.405 94.01 50.285C92.49 50.165 90.99 50.005 89.51 49.805C88.03 49.595 86.56 49.355 85.11 49.075C83.66 48.795 82.22 48.495 80.79 48.165C79.36 47.835 77.94 47.485 76.54 47.115C75.13 46.745 73.73 46.355 72.33 45.965C70.93 45.575 69.54 45.155 68.16 44.745C66.77 44.335 65.39 43.915 64 43.495C62.61 43.075 61.23 42.655 59.84 42.245C58.45 41.835 57.06 41.425 55.67 41.025C54.27 40.625 52.87 40.245 51.46 39.875C50.05 39.505 48.63 39.155 47.21 38.825C45.78 38.495 44.34 38.185 42.89 37.915C41.44 37.635 39.97 37.395 38.49 37.185C37.01 36.975 35.51 36.815 33.99 36.705C32.47 36.595 30.93 36.525 29.37 36.525C27.81 36.525 26.23 36.585 24.62 36.725C23.01 36.865 21.38 37.085 19.73 37.405C18.07 37.725 16.39 38.135 14.67 38.665C12.95 39.195 11.21 39.845 9.43 40.645C7.65 41.445 5.85 42.375 4 43.495V38.485C4 38.485 4 35.605 4 34.115C4 32.625 4 31.025 4 29.105C5.85 27.985 7.66 27.045 9.43 26.255C11.21 25.455 12.95 24.805 14.67 24.275C16.39 23.745 18.07 23.325 19.73 23.015C21.39 22.695 23.02 22.475 24.62 22.335C26.23 22.195 27.81 22.135 29.37 22.135C30.93 22.135 32.47 22.195 33.99 22.315C35.51 22.425 37.01 22.595 38.49 22.795C39.97 22.995 41.44 23.245 42.89 23.525C44.34 23.805 45.78 24.105 47.21 24.435C48.64 24.765 50.06 25.115 51.46 25.485C52.87 25.855 54.27 26.245 55.67 26.635C57.07 27.035 58.46 27.445 59.84 27.855C61.23 28.265 62.61 28.685 64 29.105C65.38 29.525 66.77 29.945 68.16 30.355C69.55 30.765 70.94 31.175 72.33 31.575C73.72 31.975 75.13 32.355 76.54 32.725C77.95 33.095 79.37 33.445 80.79 33.775C82.22 34.105 83.66 34.415 85.11 34.685C86.56 34.965 88.03 35.205 89.51 35.415C90.99 35.625 92.49 35.785 94.01 35.895C95.53 36.005 97.07 36.075 98.63 36.075C100.19 36.075 101.77 36.015 103.38 35.875C104.99 35.735 106.62 35.515 108.27 35.195C109.93 34.875 111.61 34.465 113.33 33.935C115.05 33.405 116.79 32.755 118.57 31.955C120.35 31.155 122.16 30.215 124 29.105V34.115C124 34.115 124 36.995 124 38.485C124 39.975 124 41.575 124 43.495Z" fill="#333333" style="fill:#333333;fill:color(display-p3 0.2000 0.2000 0.2000);fill-opacity:1;"/>
<path d="M124 57.66C122.15 58.7801 120.34 59.72 118.57 60.51C116.79 61.31 115.05 61.9601 113.33 62.4901C111.61 63.0201 109.93 63.44 108.27 63.75C106.61 64.07 104.98 64.29 103.38 64.43C101.78 64.57 100.19 64.6301 98.63 64.6301C97.07 64.6301 95.53 64.5701 94.01 64.4501C92.49 64.33 90.99 64.17 89.51 63.97C88.03 63.76 86.56 63.5201 85.11 63.2401C83.66 62.9601 82.22 62.66 80.79 62.33C79.36 62 77.94 61.6501 76.54 61.2801C75.13 60.9101 73.73 60.5201 72.33 60.1301C70.93 59.7401 69.54 59.32 68.16 58.91C66.77 58.5 65.38 58.08 64 57.66C62.62 57.24 61.23 56.82 59.84 56.41C58.45 56 57.06 55.59 55.67 55.19C54.27 54.79 52.87 54.4101 51.46 54.0401C50.05 53.67 48.63 53.3201 47.21 52.9901C45.79 52.6601 44.34 52.35 42.89 52.08C41.44 51.8 39.97 51.56 38.49 51.35C37.01 51.14 35.51 50.98 33.99 50.87C32.47 50.76 30.93 50.69 29.37 50.69C27.81 50.69 26.23 50.75 24.62 50.89C23.01 51.03 21.38 51.25 19.73 51.57C18.07 51.89 16.39 52.3 14.67 52.83C12.95 53.36 11.21 54.0101 9.43 54.8101C7.66 55.6001 5.85 56.54 4 57.66V52.6501C4 52.6501 4 49.77 4 48.28V43.2701C5.85 42.1501 7.66 41.21 9.43 40.42C11.2 39.63 12.95 38.97 14.67 38.44C16.39 37.91 18.07 37.49 19.73 37.18C21.39 36.86 23.02 36.64 24.62 36.5C26.23 36.36 27.81 36.3 29.37 36.3C30.93 36.3 32.47 36.36 33.99 36.48C35.51 36.59 37.01 36.76 38.49 36.96C39.97 37.17 41.44 37.41 42.89 37.69C44.34 37.97 45.78 38.27 47.21 38.6C48.64 38.93 50.06 39.2801 51.46 39.6501C52.87 40.0201 54.27 40.41 55.67 40.8C57.07 41.2 58.46 41.6101 59.84 42.0201C61.23 42.43 62.61 42.85 64 43.2701C65.39 43.6901 66.77 44.1101 68.16 44.5201C69.55 44.93 70.94 45.3401 72.33 45.7401C73.72 46.1401 75.13 46.52 76.54 46.89C77.95 47.26 79.37 47.61 80.79 47.94C82.22 48.27 83.66 48.58 85.11 48.85C86.56 49.13 88.03 49.37 89.51 49.58C90.99 49.79 92.49 49.9501 94.01 50.0601C95.53 50.1701 97.07 50.2401 98.63 50.2401C100.19 50.2401 101.77 50.1801 103.38 50.0401C104.99 49.9001 106.62 49.68 108.27 49.3601C109.93 49.0401 111.61 48.63 113.33 48.1C115.05 47.57 116.79 46.92 118.57 46.12C120.35 45.32 122.16 44.38 124 43.2701V48.28V52.6501C124 52.6501 124 55.74 124 57.66Z" fill="#747474" style="fill:#747474;fill:color(display-p3 0.4549 0.4549 0.4549);fill-opacity:1;"/>
<path d="M124 64.86C122.15 65.98 120.34 66.92 118.57 67.71C116.79 68.51 115.05 69.16 113.33 69.69C111.61 70.22 109.93 70.64 108.27 70.95C106.61 71.26 104.98 71.49 103.38 71.63C101.77 71.77 100.19 71.83 98.63 71.83C97.07 71.83 95.53 71.77 94.01 71.65C92.49 71.54 90.99 71.37 89.51 71.17C88.03 70.96 86.56 70.72 85.11 70.44C83.66 70.16 82.22 69.86 80.79 69.53C79.36 69.2 77.94 68.85 76.54 68.48C75.13 68.11 73.73 67.72 72.33 67.33C70.93 66.94 69.54 66.52 68.16 66.11C66.77 65.7 65.39 65.28 64 64.86C62.62 64.44 61.23 64.02 59.84 63.61C58.45 63.2 57.06 62.79 55.67 62.39C54.27 61.99 52.87 61.61 51.46 61.24C50.05 60.87 48.63 60.52 47.21 60.19C45.79 59.86 44.34 59.55 42.89 59.28C41.44 59 39.97 58.76 38.49 58.55C37.01 58.34 35.51 58.18 33.99 58.07C32.47 57.96 30.93 57.89 29.37 57.89C27.81 57.89 26.23 57.95 24.62 58.09C23.01 58.23 21.38 58.45 19.73 58.77C18.07 59.09 16.39 59.5 14.67 60.03C12.95 60.56 11.21 61.21 9.43 62.01C7.66 62.81 5.85 63.75 4 64.86V59.85C4 59.85 4 56.97 4 55.48V50.47C5.85 49.35 7.66 48.41 9.43 47.62C11.21 46.82 12.95 46.17 14.67 45.64C16.39 45.11 18.07 44.69 19.73 44.38C21.39 44.06 23.02 43.84 24.62 43.7C26.23 43.56 27.81 43.5 29.37 43.5C30.93 43.5 32.47 43.56 33.99 43.68C35.51 43.79 37.01 43.96 38.49 44.16C39.97 44.37 41.44 44.61 42.89 44.89C44.34 45.17 45.78 45.47 47.21 45.8C48.64 46.13 50.06 46.48 51.46 46.85C52.87 47.22 54.27 47.61 55.67 48C57.07 48.4 58.46 48.81 59.84 49.22C61.23 49.63 62.61 50.05 64 50.47C65.38 50.89 66.77 51.31 68.16 51.72C69.55 52.13 70.94 52.54 72.33 52.94C73.72 53.34 75.13 53.72 76.54 54.09C77.95 54.46 79.37 54.81 80.79 55.14C82.22 55.47 83.66 55.78 85.11 56.05C86.56 56.33 88.03 56.57 89.51 56.78C90.99 56.99 92.49 57.15 94.01 57.26C95.53 57.37 97.07 57.44 98.63 57.44C100.19 57.44 101.77 57.38 103.38 57.24C104.99 57.1 106.62 56.88 108.27 56.56C109.93 56.24 111.61 55.83 113.33 55.3C115.05 54.77 116.79 54.12 118.57 53.32C120.35 52.52 122.16 51.58 124 50.47V55.48V59.85C124 59.85 124 62.94 124 64.86Z" fill="#747474" style="fill:#747474;fill:color(display-p3 0.4549 0.4549 0.4549);fill-opacity:1;"/>
<path d="M124 78.7901C122.15 79.9101 120.34 80.8501 118.57 81.6401C116.79 82.4401 115.05 83.0901 113.33 83.6201C111.61 84.1501 109.93 84.5701 108.27 84.8801C106.61 85.2001 104.98 85.4201 103.38 85.5601C101.78 85.7001 100.19 85.7601 98.63 85.7601C97.07 85.7601 95.53 85.7001 94.01 85.5801C92.49 85.4601 90.99 85.3001 89.51 85.1001C88.03 84.8901 86.56 84.6501 85.11 84.3701C83.66 84.0901 82.22 83.7901 80.79 83.4601C79.36 83.1301 77.94 82.7801 76.54 82.4101C75.13 82.0401 73.73 81.6501 72.33 81.2601C70.93 80.8701 69.54 80.4501 68.16 80.0401C66.77 79.6301 65.38 79.2101 64 78.7901C62.62 78.3701 61.23 77.9501 59.84 77.5401C58.45 77.1301 57.06 76.7201 55.67 76.3201C54.27 75.9201 52.87 75.5401 51.46 75.1701C50.05 74.8001 48.63 74.4501 47.21 74.1201C45.79 73.7901 44.34 73.4801 42.89 73.2101C41.44 72.9301 39.97 72.6901 38.49 72.4801C37.01 72.2701 35.51 72.1101 33.99 72.0001C32.47 71.8901 30.93 71.8201 29.37 71.8201C27.81 71.8201 26.23 71.8801 24.62 72.0201C23.01 72.1601 21.38 72.3801 19.73 72.7001C18.07 73.0201 16.39 73.4301 14.67 73.9601C12.95 74.4901 11.21 75.1401 9.43 75.9401C7.66 76.7301 5.85 77.6701 4 78.7901V73.7801C4 73.7801 4 70.9001 4 69.4101V64.4001C5.85 63.2801 7.66 62.3401 9.43 61.5501C11.2 60.7601 12.95 60.1001 14.67 59.5701C16.39 59.0401 18.07 58.6201 19.73 58.3101C21.39 57.9901 23.02 57.7701 24.62 57.6301C26.23 57.4901 27.81 57.4301 29.37 57.4301C30.93 57.4301 32.47 57.4901 33.99 57.6101C35.51 57.7201 37.01 57.8901 38.49 58.0901C39.97 58.3001 41.44 58.5401 42.89 58.8201C44.34 59.1001 45.78 59.4001 47.21 59.7301C48.64 60.0601 50.06 60.4101 51.46 60.7801C52.87 61.1501 54.27 61.5401 55.67 61.9301C57.07 62.3301 58.46 62.7401 59.84 63.1501C61.23 63.5601 62.61 63.9801 64 64.4001C65.39 64.8201 66.77 65.2401 68.16 65.6501C69.55 66.0601 70.94 66.4701 72.33 66.8701C73.72 67.2701 75.13 67.6501 76.54 68.0201C77.95 68.3901 79.37 68.7401 80.79 69.0701C82.22 69.4001 83.66 69.7101 85.11 69.9801C86.56 70.2601 88.03 70.5001 89.51 70.7101C90.99 70.9201 92.49 71.0801 94.01 71.1901C95.53 71.3001 97.07 71.3701 98.63 71.3701C100.19 71.3701 101.77 71.3101 103.38 71.1701C104.99 71.0301 106.62 70.8101 108.27 70.4901C109.93 70.1701 111.61 69.7601 113.33 69.2301C115.05 68.7001 116.79 68.0501 118.57 67.2501C120.35 66.4501 122.16 65.5101 124 64.4001V69.4101V73.7801C124 73.7801 124 76.8701 124 78.7901Z" fill="white" style="fill:white;fill-opacity:1;"/>
<path d="M124 85.99C122.15 87.11 120.34 88.05 118.57 88.84C116.79 89.64 115.05 90.29 113.33 90.82C111.61 91.35 109.93 91.77 108.27 92.08C106.61 92.39 104.98 92.62 103.38 92.76C101.77 92.9 100.19 92.96 98.63 92.96C97.07 92.96 95.53 92.9 94.01 92.78C92.49 92.67 90.99 92.5 89.51 92.3C88.03 92.09 86.56 91.85 85.11 91.57C83.66 91.29 82.22 90.99 80.79 90.66C79.36 90.33 77.94 89.98 76.54 89.61C75.13 89.24 73.73 88.85 72.33 88.46C70.93 88.07 69.54 87.65 68.16 87.24C66.77 86.83 65.39 86.41 64 85.99C62.62 85.57 61.23 85.15 59.84 84.74C58.45 84.33 57.06 83.92 55.67 83.52C54.27 83.12 52.87 82.74 51.46 82.37C50.05 82 48.63 81.65 47.21 81.32C45.79 80.99 44.34 80.68 42.89 80.41C41.44 80.13 39.97 79.89 38.49 79.68C37.01 79.47 35.51 79.31 33.99 79.2C32.47 79.09 30.93 79.02 29.37 79.02C27.81 79.02 26.23 79.08 24.62 79.22C23.01 79.36 21.38 79.58 19.73 79.9C18.07 80.22 16.39 80.63 14.67 81.16C12.95 81.69 11.21 82.34 9.43 83.14C7.66 83.94 5.85 84.88 4 85.99V80.98C4 80.98 4 78.1 4 76.61V71.6C5.85 70.48 7.66 69.54 9.43 68.75C11.21 67.95 12.95 67.3 14.67 66.77C16.39 66.24 18.07 65.82 19.73 65.51C21.39 65.19 23.02 64.97 24.62 64.83C26.23 64.69 27.81 64.63 29.37 64.63C30.93 64.63 32.47 64.69 33.99 64.81C35.51 64.92 37.01 65.09 38.49 65.29C39.97 65.5 41.44 65.74 42.89 66.02C44.34 66.3 45.78 66.6 47.21 66.93C48.64 67.26 50.06 67.61 51.46 67.98C52.87 68.35 54.27 68.74 55.67 69.13C57.07 69.53 58.46 69.94 59.84 70.35C61.23 70.76 62.61 71.18 64 71.6C65.38 72.02 66.77 72.44 68.16 72.85C69.55 73.26 70.94 73.67 72.33 74.07C73.72 74.47 75.13 74.85 76.54 75.22C77.95 75.59 79.37 75.94 80.79 76.27C82.22 76.6 83.66 76.91 85.11 77.18C86.56 77.46 88.03 77.7 89.51 77.91C90.99 78.12 92.49 78.28 94.01 78.39C95.53 78.5 97.07 78.57 98.63 78.57C100.19 78.57 101.77 78.51 103.38 78.37C104.99 78.23 106.62 78.01 108.27 77.69C109.93 77.37 111.61 76.96 113.33 76.43C115.05 75.9 116.79 75.25 118.57 74.45C120.35 73.65 122.16 72.71 124 71.6V76.61V80.98C124 80.98 124 84.07 124 85.99Z" fill="white" style="fill:white;fill-opacity:1;"/>
<path d="M124 100.155C122.15 101.275 120.34 102.215 118.57 103.005C116.79 103.805 115.05 104.455 113.33 104.985C111.61 105.515 109.93 105.935 108.27 106.245C106.61 106.555 104.98 106.785 103.38 106.925C101.77 107.065 100.19 107.125 98.63 107.125C97.07 107.125 95.53 107.065 94.01 106.945C92.49 106.835 90.99 106.665 89.51 106.465C88.03 106.255 86.56 106.015 85.11 105.735C83.66 105.455 82.22 105.155 80.79 104.825C79.36 104.495 77.94 104.145 76.54 103.775C75.13 103.405 73.73 103.015 72.33 102.625C70.93 102.225 69.54 101.815 68.16 101.405C66.77 100.995 65.39 100.575 64 100.155C62.62 99.735 61.23 99.315 59.84 98.905C58.45 98.495 57.06 98.085 55.67 97.685C54.27 97.285 52.87 96.905 51.46 96.535C50.05 96.165 48.63 95.815 47.21 95.485C45.79 95.155 44.34 94.845 42.89 94.575C41.44 94.295 39.97 94.055 38.49 93.845C37.01 93.635 35.51 93.475 33.99 93.365C32.47 93.255 30.93 93.185 29.37 93.185C27.81 93.185 26.23 93.245 24.62 93.385C23.01 93.525 21.38 93.745 19.73 94.065C18.08 94.385 16.39 94.795 14.67 95.325C12.95 95.855 11.21 96.505 9.43 97.305C7.65 98.105 5.85 99.035 4 100.155V95.145C4 95.145 4 92.265 4 90.775V85.765C5.85 84.645 7.66 83.705 9.43 82.915C11.21 82.115 12.95 81.465 14.67 80.935C16.39 80.405 18.07 79.985 19.73 79.675C21.39 79.355 23.02 79.135 24.62 78.995C26.23 78.855 27.81 78.795 29.37 78.795C30.93 78.795 32.47 78.855 33.99 78.975C35.51 79.085 37.01 79.255 38.49 79.455C39.97 79.665 41.44 79.905 42.89 80.185C44.34 80.465 45.78 80.765 47.21 81.095C48.64 81.425 50.06 81.775 51.46 82.145C52.87 82.515 54.27 82.905 55.67 83.295C57.07 83.695 58.46 84.105 59.84 84.515C61.23 84.925 62.61 85.345 64 85.765C65.38 86.185 66.77 86.605 68.16 87.015C69.55 87.425 70.94 87.835 72.33 88.235C73.72 88.635 75.13 89.015 76.54 89.385C77.95 89.755 79.37 90.105 80.79 90.435C82.22 90.765 83.66 91.075 85.11 91.345C86.56 91.625 88.03 91.865 89.51 92.075C90.99 92.285 92.49 92.445 94.01 92.555C95.53 92.665 97.07 92.735 98.63 92.735C100.19 92.735 101.77 92.675 103.38 92.535C104.99 92.395 106.62 92.175 108.27 91.855C109.93 91.535 111.61 91.125 113.33 90.595C115.05 90.065 116.79 89.415 118.57 88.615C120.35 87.815 122.16 86.875 124 85.765V90.775V95.145C124 95.145 124 98.235 124 100.155Z" fill="#80179A" style="fill:#80179A;fill:color(display-p3 0.5020 0.0902 0.6039);fill-opacity:1;"/>
<path d="M124 107.825C122.15 108.945 120.34 109.885 118.57 110.675C116.79 111.475 115.05 112.125 113.33 112.655C111.61 113.185 109.93 113.605 108.27 113.915C106.61 114.235 104.98 114.455 103.38 114.595C101.77 114.735 100.19 114.795 98.63 114.795C97.07 114.795 95.53 114.735 94.01 114.615C92.49 114.505 90.99 114.335 89.51 114.135C88.03 113.925 86.56 113.685 85.11 113.405C83.66 113.125 82.22 112.825 80.79 112.495C79.36 112.165 77.94 111.815 76.54 111.445C75.14 111.075 73.73 110.685 72.33 110.295C70.93 109.895 69.54 109.485 68.16 109.075C66.77 108.665 65.39 108.245 64 107.825C62.62 107.405 61.23 106.985 59.84 106.575C58.45 106.165 57.06 105.755 55.67 105.355C54.27 104.955 52.87 104.575 51.46 104.205C50.05 103.835 48.63 103.485 47.21 103.155C45.79 102.825 44.34 102.515 42.89 102.245C41.44 101.965 39.97 101.725 38.49 101.515C37.01 101.305 35.51 101.145 33.99 101.035C32.47 100.925 30.93 100.855 29.37 100.855C27.81 100.855 26.23 100.915 24.62 101.055C23.01 101.195 21.38 101.415 19.73 101.735C18.07 102.055 16.39 102.465 14.67 102.995C12.95 103.525 11.21 104.175 9.43 104.975C7.65 105.775 5.84 106.715 4 107.825V102.815C4 102.815 4 99.935 4 98.445V93.435C5.85 92.315 7.66 91.375 9.43 90.585C11.2 89.795 12.95 89.135 14.67 88.605C16.39 88.075 18.07 87.655 19.73 87.345C21.39 87.035 23.02 86.805 24.62 86.665C26.23 86.525 27.81 86.465 29.37 86.465C30.93 86.465 32.47 86.525 33.99 86.645C35.51 86.755 37.01 86.925 38.49 87.125C39.97 87.325 41.44 87.575 42.89 87.855C44.34 88.135 45.78 88.435 47.21 88.765C48.64 89.095 50.06 89.445 51.46 89.815C52.87 90.185 54.27 90.575 55.67 90.965C57.07 91.365 58.46 91.775 59.84 92.185C61.23 92.595 62.61 93.015 64 93.435C65.38 93.855 66.77 94.275 68.16 94.685C69.55 95.095 70.94 95.505 72.33 95.905C73.73 96.305 75.13 96.685 76.54 97.055C77.95 97.425 79.37 97.775 80.79 98.105C82.22 98.435 83.66 98.745 85.11 99.015C86.56 99.295 88.03 99.535 89.51 99.745C90.99 99.955 92.49 100.115 94.01 100.225C95.53 100.335 97.07 100.405 98.63 100.405C100.19 100.405 101.77 100.345 103.38 100.205C104.99 100.065 106.62 99.845 108.27 99.525C109.92 99.205 111.61 98.795 113.33 98.265C115.05 97.735 116.79 97.085 118.57 96.285C120.35 95.485 122.16 94.545 124 93.435V98.445V102.815C124 102.815 124 105.905 124 107.825Z" fill="#80179A" style="fill:#80179A;fill:color(display-p3 0.5020 0.0902 0.6039);fill-opacity:1;"/>
<path opacity="0.3" d="M124 107.825C122.15 108.945 120.34 109.885 118.57 110.675C116.79 111.475 115.05 112.125 113.33 112.655C111.61 113.185 109.93 113.605 108.27 113.915C106.61 114.235 104.98 114.455 103.38 114.595C101.77 114.735 100.19 114.795 98.63 114.795C97.07 114.795 95.53 114.735 94.01 114.615C92.49 114.505 90.99 114.335 89.51 114.135C88.03 113.925 86.56 113.685 85.11 113.405C83.66 113.125 82.22 112.825 80.79 112.495C79.36 112.165 77.94 111.815 76.54 111.445C75.14 111.075 73.73 110.685 72.33 110.295C70.93 109.895 69.54 109.485 68.16 109.075C66.77 108.665 65.39 108.245 64 107.825C62.62 107.405 61.23 106.985 59.84 106.575C58.45 106.165 57.06 105.755 55.67 105.355C54.27 104.955 52.87 104.575 51.46 104.205C50.05 103.835 48.63 103.485 47.21 103.155C45.79 102.825 44.34 102.515 42.89 102.245C41.44 101.965 39.97 101.725 38.49 101.515C37.01 101.305 35.51 101.145 33.99 101.035C32.47 100.925 30.93 100.855 29.37 100.855C27.81 100.855 26.23 100.915 24.62 101.055C23.01 101.195 21.38 101.415 19.73 101.735C18.07 102.055 16.39 102.465 14.67 102.995C12.95 103.525 11.21 104.175 9.43 104.975C7.65 105.775 5.84 106.715 4 107.825V102.215V96.895V91.825V86.965V82.285C4 82.285 4 79.235 4 77.745V73.315C4 73.315 4 70.395 4 68.955C4 67.515 4 66.065 4 64.625V60.295V55.935V51.505C4 51.505 4 48.505 4 46.965C4 45.425 4 43.875 4 42.285V37.425C4 37.425 4 34.085 4 32.355V27.035V21.425C5.85 20.305 7.66 19.365 9.43 18.575C11.2 17.785 12.95 17.125 14.67 16.595C16.39 16.065 18.07 15.645 19.73 15.335C21.39 15.015 23.02 14.795 24.62 14.655C26.23 14.515 27.81 14.455 29.37 14.455C30.93 14.455 32.47 14.515 33.99 14.635C35.51 14.745 37.01 14.915 38.49 15.115C39.97 15.315 41.44 15.565 42.89 15.845C44.34 16.125 45.78 16.425 47.21 16.755C48.64 17.085 50.06 17.435 51.46 17.805C52.87 18.175 54.27 18.565 55.67 18.955C57.07 19.345 58.46 19.765 59.84 20.175C61.22 20.585 62.61 21.005 64 21.425C65.38 21.845 66.77 22.265 68.16 22.675C69.55 23.085 70.94 23.495 72.33 23.895C73.72 24.295 75.13 24.675 76.54 25.045C77.95 25.415 79.37 25.765 80.79 26.095C82.22 26.425 83.66 26.735 85.11 27.005C86.56 27.285 88.03 27.525 89.51 27.735C90.99 27.945 92.49 28.105 94.01 28.215C95.53 28.325 97.07 28.395 98.63 28.395C100.19 28.395 101.77 28.335 103.38 28.195C104.99 28.055 106.62 27.835 108.27 27.515C109.93 27.195 111.61 26.785 113.33 26.255C115.05 25.725 116.79 25.075 118.57 24.275C120.35 23.475 122.16 22.535 124 21.425V27.035V32.355V37.425C124 37.425 124 40.695 124 42.285V46.965C124 46.965 124 50.015 124 51.505C124 52.995 124 54.475 124 55.935V60.295V64.625V68.955C124 68.955 124 71.855 124 73.315C124 74.775 124 76.255 124 77.745V82.285C124 82.285 124 85.375 124 86.965V91.825V96.895V102.215V107.825Z" fill="url(#paint0_linear_47_30)" style=""/>
</g>
<defs>
<linearGradient id="paint0_linear_47_30" x1="5.3703" y1="23.284" x2="122.37" y2="105.785" gradientUnits="userSpaceOnUse">
<stop stop-color="white" stop-opacity="0" style="stop-color:none;stop-opacity:0;"/>
<stop offset="0.1646" stop-color="#C8C8C8" stop-opacity="0.1646" style="stop-color:#C8C8C8;stop-color:color(display-p3 0.7843 0.7843 0.7843);stop-opacity:0.1646;"/>
<stop offset="0.3934" stop-color="#828282" stop-opacity="0.3934" style="stop-color:#828282;stop-color:color(display-p3 0.5098 0.5098 0.5098);stop-opacity:0.3934;"/>
<stop offset="0.5997" stop-color="#4A4A4A" stop-opacity="0.5997" style="stop-color:#4A4A4A;stop-color:color(display-p3 0.2902 0.2902 0.2902);stop-opacity:0.5997;"/>
<stop offset="0.7759" stop-color="#222222" stop-opacity="0.7759" style="stop-color:#222222;stop-color:color(display-p3 0.1333 0.1333 0.1333);stop-opacity:0.7759;"/>
<stop offset="0.9151" stop-color="#090909" stop-opacity="0.9151" style="stop-color:#090909;stop-color:color(display-p3 0.0353 0.0353 0.0353);stop-opacity:0.9151;"/>
<stop offset="1" style="stop-color:black;stop-opacity:1;"/>
</linearGradient>
<clipPath id="clip0_47_30">
<rect width="128" height="128" fill="white" style="fill:white;fill-opacity:1;" transform="translate(0 0.625)"/>
</clipPath>
</defs>
</svg>
