<svg width="128" height="128" viewBox="0 0 128 128" fill="none" xmlns="http://www.w3.org/2000/svg">
<path d="M63.6 118.8C35.7 118.8 5.59998 101.3 5.59998 62.9C5.59998 24.5 35.7 7 63.6 7C79.1 7 93.4 12.1 104 21.4C115.5 31.6 121.6 46 121.6 62.9C121.6 79.8 115.5 94.1 104 104.3C93.4 113.6 79 118.8 63.6 118.8Z" fill="url(#paint0_radial_169_10889)" style=""/>
<path d="M63.6 118.8C35.7 118.8 5.59998 101.3 5.59998 62.9C5.59998 24.5 35.7 7 63.6 7C79.1 7 93.4 12.1 104 21.4C115.5 31.6 121.6 46 121.6 62.9C121.6 79.8 115.5 94.1 104 104.3C93.4 113.6 79 118.8 63.6 118.8Z" fill="url(#paint1_radial_169_10889)" style=""/>
<path d="M63.6 118.8C35.7 118.8 5.59998 101.3 5.59998 62.9C5.59998 24.5 35.7 7 63.6 7C79.1 7 93.4 12.1 104 21.4C115.5 31.6 121.6 46 121.6 62.9C121.6 79.8 115.5 94.1 104 104.3C93.4 113.6 79 118.8 63.6 118.8Z" fill="url(#paint2_radial_169_10889)" style=""/>
<path d="M63.6 118.8C35.7 118.8 5.59998 101.3 5.59998 62.9C5.59998 24.5 35.7 7 63.6 7C79.1 7 93.4 12.1 104 21.4C115.5 31.6 121.6 46 121.6 62.9C121.6 79.8 115.5 94.1 104 104.3C93.4 113.6 79 118.8 63.6 118.8Z" fill="url(#paint3_radial_169_10889)" style=""/>
<path d="M111.49 29.67C116.82 38.27 119.6 48.51 119.6 59.9C119.6 76.8 113.5 91.1 102 101.3C91.3999 110.6 76.9999 115.8 61.5999 115.8C43.5399 115.8 24.5999 108.45 13.4199 92.86C24.1799 110.52 44.4199 118.8 63.5999 118.8C78.9999 118.8 93.3999 113.6 104 104.3C115.5 94.1 121.6 79.8 121.6 62.9C121.6 50.16 118.13 38.84 111.49 29.67Z" fill="#EB8F00" style="fill:#EB8F00;fill:color(display-p3 0.9216 0.5608 0.0000);fill-opacity:1;"/>
<path d="M111.49 29.67C116.82 38.27 119.6 48.51 119.6 59.9C119.6 76.8 113.5 91.1 102 101.3C91.3999 110.6 76.9999 115.8 61.5999 115.8C43.5399 115.8 24.5999 108.45 13.4199 92.86C24.1799 110.52 44.4199 118.8 63.5999 118.8C78.9999 118.8 93.3999 113.6 104 104.3C115.5 94.1 121.6 79.8 121.6 62.9C121.6 50.16 118.13 38.84 111.49 29.67Z" fill="#F3B872" style="fill:#F3B872;fill:color(display-p3 0.9542 0.7229 0.4453);fill-opacity:1;"/>
<path d="M111.49 29.67C116.82 38.27 119.6 48.51 119.6 59.9C119.6 76.8 113.5 91.1 102 101.3C91.3999 110.6 76.9999 115.8 61.5999 115.8C43.5399 115.8 24.5999 108.45 13.4199 92.86C24.1799 110.52 44.4199 118.8 63.5999 118.8C78.9999 118.8 93.3999 113.6 104 104.3C115.5 94.1 121.6 79.8 121.6 62.9C121.6 50.16 118.13 38.84 111.49 29.67Z" fill="#4A2F27" style="fill:#4A2F27;fill:color(display-p3 0.2902 0.1843 0.1529);fill-opacity:1;"/>
<path d="M65.8001 76.5C54.9101 80.26 43.7001 83.01 32.3001 84.7C30.3801 84.95 29.0301 86.72 29.2801 88.64C29.3401 89.08 29.4801 89.51 29.7001 89.9C37.9001 104.1 57.1 111.5 75.5 105.3C95.7001 98.5 104.9 81.1 102.7 65.2C102.43 63.3 100.67 61.98 98.7801 62.25C98.3301 62.31 97.9001 62.47 97.5001 62.7C87.3601 68.22 76.7501 72.83 65.8001 76.5Z" fill="url(#paint4_linear_169_10889)" style=""/>
<path d="M65.8001 76.5C54.9101 80.26 43.7001 83.01 32.3001 84.7C30.3801 84.95 29.0301 86.72 29.2801 88.64C29.3401 89.08 29.4801 89.51 29.7001 89.9C37.9001 104.1 57.1 111.5 75.5 105.3C95.7001 98.5 104.9 81.1 102.7 65.2C102.43 63.3 100.67 61.98 98.7801 62.25C98.3301 62.31 97.9001 62.47 97.5001 62.7C87.3601 68.22 76.7501 72.83 65.8001 76.5Z" fill="#42312C" style="fill:#42312C;fill:color(display-p3 0.2588 0.1922 0.1725);fill-opacity:1;"/>
<path d="M80.4001 22.9C90.3401 22.99 98.3301 31.12 98.2401 41.06C98.1801 48.25 93.8301 54.72 87.2001 57.5C85.0401 58.38 82.7301 58.82 80.4001 58.8C70.4601 58.71 62.4701 50.58 62.5601 40.64C62.6201 33.45 66.9701 26.98 73.6001 24.2C75.7601 23.34 78.0701 22.9 80.4001 22.9Z" fill="white" style="fill:white;fill-opacity:1;"/>
<path d="M80.4 48C84.266 48 87.4 44.866 87.4 41C87.4 37.134 84.266 34 80.4 34C76.534 34 73.4 37.134 73.4 41C73.4 44.866 76.534 48 80.4 48Z" fill="#42312C" style="fill:#42312C;fill:color(display-p3 0.2588 0.1922 0.1725);fill-opacity:1;"/>
<path d="M80.4 48C84.266 48 87.4 44.866 87.4 41C87.4 37.134 84.266 34 80.4 34C76.534 34 73.4 37.134 73.4 41C73.4 44.866 76.534 48 80.4 48Z" fill="#42312C" style="fill:#42312C;fill:color(display-p3 0.2588 0.1922 0.1725);fill-opacity:1;"/>
<path d="M35.9 44.78C29.21 44.77 23.78 50.19 23.77 56.87C23.76 63.56 29.18 68.99 35.87 69C42.56 69.01 47.99 63.59 48 56.91C48 55.35 47.7 53.8 47.12 52.35C45.26 47.78 40.83 44.79 35.9 44.78Z" fill="white" style="fill:white;fill-opacity:1;"/>
<path d="M36 64C39.866 64 43 60.866 43 57C43 53.134 39.866 50 36 50C32.134 50 29 53.134 29 57C29 60.866 32.134 64 36 64Z" fill="#42312C" style="fill:#42312C;fill:color(display-p3 0.2588 0.1922 0.1725);fill-opacity:1;"/>
<path d="M36 64C39.866 64 43 60.866 43 57C43 53.134 39.866 50 36 50C32.134 50 29 53.134 29 57C29 60.866 32.134 64 36 64Z" fill="#42312C" style="fill:#42312C;fill:color(display-p3 0.2588 0.1922 0.1725);fill-opacity:1;"/>
<path d="M44.74 90.85V108.85C44.75 118.32 52.44 126 61.91 126H65.18C74.66 126 82.35 118.31 82.35 108.83L82.11 80L44.74 90.85Z" fill="#FF4081" style="fill:#FF4081;fill:color(display-p3 1.0000 0.2510 0.5059);fill-opacity:1;"/>
<path d="M82.08 75.91L44.74 87.1V90.85L82.11 79.95L82.08 75.91Z" fill="#FF4081" style="fill:#FF4081;fill:color(display-p3 1.0000 0.2510 0.5059);fill-opacity:1;"/>
<path opacity="0.3" d="M63.55 106.25C64.65 106.25 65.5501 105.35 65.5501 104.25V80.85L61.55 81.99V104.25C61.55 105.35 62.45 106.25 63.55 106.25Z" fill="#AB3F2E" style="fill:#AB3F2E;fill:color(display-p3 0.6706 0.2471 0.1804);fill-opacity:1;"/>
<path opacity="0.3" d="M82.08 75.91L44.74 87.1V90.85L82.11 79.95L82.08 75.91Z" fill="#AB3F2E" style="fill:#AB3F2E;fill:color(display-p3 0.6706 0.2471 0.1804);fill-opacity:1;"/>
<defs>
<radialGradient id="paint0_radial_169_10889" cx="0" cy="0" r="1" gradientUnits="userSpaceOnUse" gradientTransform="translate(63.6 62.9) scale(56.9597 56.9597)">
<stop offset="0.5" stop-color="#FDE030" style="stop-color:#FDE030;stop-color:color(display-p3 0.9922 0.8784 0.1882);stop-opacity:1;"/>
<stop offset="0.92" stop-color="#F7C02B" style="stop-color:#F7C02B;stop-color:color(display-p3 0.9686 0.7529 0.1686);stop-opacity:1;"/>
<stop offset="1" stop-color="#F4A223" style="stop-color:#F4A223;stop-color:color(display-p3 0.9569 0.6353 0.1373);stop-opacity:1;"/>
</radialGradient>
<radialGradient id="paint1_radial_169_10889" cx="0" cy="0" r="1" gradientUnits="userSpaceOnUse" gradientTransform="translate(38.599 34.5377) rotate(-43.2082) scale(102.024 101.825)">
<stop offset="0.3533" stop-color="#F9DDBD" style="stop-color:#F9DDBD;stop-color:color(display-p3 0.9765 0.8667 0.7412);stop-opacity:1;"/>
<stop offset="0.8723" stop-color="#FFD29C" style="stop-color:#FFD29C;stop-color:color(display-p3 1.0000 0.8235 0.6118);stop-opacity:1;"/>
</radialGradient>
<radialGradient id="paint2_radial_169_10889" cx="0" cy="0" r="1" gradientUnits="userSpaceOnUse" gradientTransform="translate(38.599 34.5377) rotate(-43.2082) scale(102.024 101.825)">
<stop offset="0.3533" stop-color="#70534A" style="stop-color:#70534A;stop-color:color(display-p3 0.4392 0.3255 0.2902);stop-opacity:1;"/>
<stop offset="0.8723" stop-color="#5C4037" style="stop-color:#5C4037;stop-color:color(display-p3 0.3608 0.2510 0.2157);stop-opacity:1;"/>
</radialGradient>
<radialGradient id="paint3_radial_169_10889" cx="0" cy="0" r="1" gradientUnits="userSpaceOnUse" gradientTransform="translate(38.599 34.5377) rotate(-43.2082) scale(102.024 101.825)">
<stop offset="0.3533" stop-color="#A56C43" style="stop-color:#A56C43;stop-color:color(display-p3 0.6471 0.4235 0.2627);stop-opacity:1;"/>
<stop offset="0.8723" stop-color="#8D5738" style="stop-color:#8D5738;stop-color:color(display-p3 0.5529 0.3412 0.2196);stop-opacity:1;"/>
</radialGradient>
<linearGradient id="paint4_linear_169_10889" x1="29.2493" y1="84.8628" x2="103.019" y2="84.8628" gradientUnits="userSpaceOnUse">
<stop stop-color="#404040" style="stop-color:#404040;stop-color:color(display-p3 0.2510 0.2510 0.2510);stop-opacity:1;"/>
<stop offset="0.12" stop-color="#3E3A35" style="stop-color:#3E3A35;stop-color:color(display-p3 0.2431 0.2275 0.2078);stop-opacity:1;"/>
<stop offset="0.44" stop-color="#392D1E" style="stop-color:#392D1E;stop-color:color(display-p3 0.2235 0.1765 0.1176);stop-opacity:1;"/>
<stop offset="0.74" stop-color="#362510" style="stop-color:#362510;stop-color:color(display-p3 0.2118 0.1451 0.0627);stop-opacity:1;"/>
<stop offset="1" stop-color="#35220B" style="stop-color:#35220B;stop-color:color(display-p3 0.2078 0.1333 0.0431);stop-opacity:1;"/>
</linearGradient>
</defs>
</svg>
