<svg width="128" height="128" viewBox="0 0 128 128" fill="none" xmlns="http://www.w3.org/2000/svg">
<path d="M63.6 118.8C35.7 118.8 5.59998 101.3 5.59998 62.9C5.59998 24.5 35.7 7 63.6 7C79.1 7 93.4 12.1 104 21.4C115.5 31.6 121.6 46 121.6 62.9C121.6 79.8 115.5 94.1 104 104.3C93.4 113.6 79 118.8 63.6 118.8Z" fill="url(#paint0_radial_169_6436)" style=""/>
<path d="M63.6 118.8C35.7 118.8 5.59998 101.3 5.59998 62.9C5.59998 24.5 35.7 7 63.6 7C79.1 7 93.4 12.1 104 21.4C115.5 31.6 121.6 46 121.6 62.9C121.6 79.8 115.5 94.1 104 104.3C93.4 113.6 79 118.8 63.6 118.8Z" fill="url(#paint1_radial_169_6436)" style=""/>
<path d="M63.6 118.8C35.7 118.8 5.59998 101.3 5.59998 62.9C5.59998 24.5 35.7 7 63.6 7C79.1 7 93.4 12.1 104 21.4C115.5 31.6 121.6 46 121.6 62.9C121.6 79.8 115.5 94.1 104 104.3C93.4 113.6 79 118.8 63.6 118.8Z" fill="url(#paint2_radial_169_6436)" style=""/>
<path d="M111.49 29.67C116.82 38.27 119.6 48.51 119.6 59.9C119.6 76.8 113.5 91.1 102 101.3C91.3999 110.6 76.9999 115.8 61.5999 115.8C43.5399 115.8 24.5999 108.45 13.4199 92.86C24.1799 110.52 44.4199 118.8 63.5999 118.8C78.9999 118.8 93.3999 113.6 104 104.3C115.5 94.1001 121.6 79.8 121.6 62.9C121.6 50.16 118.13 38.84 111.49 29.67Z" fill="#F3B872" style="fill:#F3B872;fill:color(display-p3 0.9542 0.7229 0.4453);fill-opacity:1;"/>
<path d="M111.49 29.67C116.82 38.27 119.6 48.51 119.6 59.9C119.6 76.8 113.5 91.1 102 101.3C91.3999 110.6 76.9999 115.8 61.5999 115.8C43.5399 115.8 24.5999 108.45 13.4199 92.86C24.1799 110.52 44.4199 118.8 63.5999 118.8C78.9999 118.8 93.3999 113.6 104 104.3C115.5 94.1001 121.6 79.8 121.6 62.9C121.6 50.16 118.13 38.84 111.49 29.67Z" fill="#BA8F63" style="fill:#BA8F63;fill:color(display-p3 0.7294 0.5608 0.3882);fill-opacity:1;"/>
<g opacity="0.9">
<path opacity="0.9" d="M101.65 87.75C111.282 87.75 119.09 80.5866 119.09 71.75C119.09 62.9134 111.282 55.75 101.65 55.75C92.0181 55.75 84.21 62.9134 84.21 71.75C84.21 80.5866 92.0181 87.75 101.65 87.75Z" fill="url(#paint3_radial_169_6436)" style=""/>
</g>
<path d="M122.24 44C120.34 42.1 117.27 42.1 115.37 44L80.76 78.5599L75.83 83.5C79.58 84.0499 83.26 84.96 86.83 86.23L90.3 82.75L111 62.31L112.24 61.2099L122.24 50.83C124.1 48.93 124.1 45.9 122.24 44Z" fill="#E6E6E6" style="fill:#E6E6E6;fill:color(display-p3 0.9020 0.9020 0.9020);fill-opacity:1;"/>
<path d="M109.05 58.0001C107.79 56.7401 105.75 56.7401 104.49 58.0001L78.1 83.8901C80.47 84.3201 82.8 84.9001 85.1 85.6201L109.1 62.6201C110.36 61.3501 110.36 59.3001 109.09 58.0401C109.08 58.0301 109.06 58.0101 109.05 58.0001Z" fill="#FF0000" style="fill:#FF0000;fill:color(display-p3 1.0000 0.0000 0.0000);fill-opacity:1;"/>
<path d="M64.11 75.9301C56.03 75.8601 48.07 77.8901 41 81.8001C38.37 83.1901 40.14 86.7201 42.35 85.9401C49.32 83.5801 56.64 82.4501 64 82.6101C67.96 82.6001 71.92 82.9001 75.83 83.5001L80.76 78.5601C75.38 76.8201 69.76 75.9301 64.11 75.9301Z" fill="#5D4037" style="fill:#5D4037;fill:color(display-p3 0.3647 0.2510 0.2157);fill-opacity:1;"/>
<path d="M90.9 86.33C91.77 85.44 91.75 84.02 90.87 83.15C90.74 83.02 90.59 82.91 90.42 82.81L90.32 82.75L86.85 86.23C87.46 86.45 87.98 86.66 88.4 86.84C89.26 87.2 90.25 87 90.9 86.33Z" fill="#5D4037" style="fill:#5D4037;fill:color(display-p3 0.3647 0.2510 0.2157);fill-opacity:1;"/>
<path d="M86.84 86.23L90.32 82.75L86.84 86.23Z" fill="#E6E6E6" style="fill:#E6E6E6;fill:color(display-p3 0.9020 0.9020 0.9020);fill-opacity:1;"/>
<path d="M118.69 54.52L115.94 51.78C115.6 51.44 115.6 50.89 115.94 50.55C116.28 50.21 116.83 50.21 117.17 50.55L119.89 53.27L118.69 54.52Z" fill="#404040" style="fill:#404040;fill:color(display-p3 0.2510 0.2510 0.2510);fill-opacity:1;"/>
<path d="M113.62 59.79L112.1 58.26C111.77 57.92 111.77 57.37 112.1 57.03C112.44 56.69 112.99 56.69 113.33 57.03L114.82 58.53L113.62 59.79Z" fill="#404040" style="fill:#404040;fill:color(display-p3 0.2510 0.2510 0.2510);fill-opacity:1;"/>
<path d="M103.86 69.45L102.37 68C102.03 67.66 102.03 67.11 102.37 66.77C102.71 66.43 103.26 66.43 103.6 66.77L105.1 68.23L103.86 69.45Z" fill="#404040" style="fill:#404040;fill:color(display-p3 0.2510 0.2510 0.2510);fill-opacity:1;"/>
<path d="M94 79.13L92.62 77.74C92.28 77.4 92.28 76.85 92.62 76.51C92.96 76.17 93.51 76.17 93.85 76.51L95.24 77.91L94 79.13Z" fill="#404040" style="fill:#404040;fill:color(display-p3 0.2510 0.2510 0.2510);fill-opacity:1;"/>
<path d="M109 64.42L106.29 61.66C105.95 61.32 105.95 60.77 106.29 60.43C106.63 60.09 107.18 60.09 107.52 60.43L110.24 63.2L109 64.42Z" fill="#404040" style="fill:#404040;fill:color(display-p3 0.2510 0.2510 0.2510);fill-opacity:1;"/>
<path d="M99.2301 74L96.4601 71.26C96.1201 70.92 96.1201 70.37 96.4601 70.03C96.8001 69.69 97.3501 69.69 97.6901 70.03L100.47 72.78L99.2301 74Z" fill="#404040" style="fill:#404040;fill:color(display-p3 0.2510 0.2510 0.2510);fill-opacity:1;"/>
<path d="M89.39 83.68L86.72 81C86.38 80.66 86.38 80.11 86.72 79.77C87.06 79.43 87.61 79.43 87.95 79.77L90.63 82.45L89.39 83.68Z" fill="#404040" style="fill:#404040;fill:color(display-p3 0.2510 0.2510 0.2510);fill-opacity:1;"/>
<path d="M46 38.59C47.01 38.63 47.86 37.84 47.9 36.83C47.94 35.82 47.15 34.97 46.14 34.93C44.2 34.68 42.23 34.76 40.32 35.17C35.12 36.14 30.48 39.03 27.32 43.27C25.9 45.33 28.57 47.1 30.22 45.58C34.51 41.48 40.1 39.01 46.02 38.58" fill="#5D4037" style="fill:#5D4037;fill:color(display-p3 0.3647 0.2510 0.2157);fill-opacity:1;"/>
<path d="M81.92 38.79C80.91 38.83 80.06 38.04 80.03 37.02C79.99 36.01 80.78 35.16 81.79 35.13C83.73 34.89 85.7 34.97 87.61 35.38C92.81 36.35 97.45 39.25 100.61 43.49C102.03 45.55 99.36 47.31 97.71 45.8C93.42 41.7 87.84 39.23 81.92 38.8" fill="#5D4037" style="fill:#5D4037;fill:color(display-p3 0.3647 0.2510 0.2157);fill-opacity:1;"/>
<path d="M44 45.9401C39.81 45.9401 36 49.4801 36 55.3601C36 61.2401 39.81 64.7701 44 64.7701C48.2 64.7701 52 61.2301 52 55.3601C52 49.4901 48.24 45.9401 44 45.9401Z" fill="#5D4037" style="fill:#5D4037;fill:color(display-p3 0.3647 0.2510 0.2157);fill-opacity:1;"/>
<path d="M43.65 49.87C42.23 49.19 40.52 49.79 39.83 51.21C39.3 52.32 39.54 53.65 40.43 54.51C41.85 55.19 43.56 54.59 44.25 53.17C44.78 52.06 44.54 50.73 43.65 49.87Z" fill="#836258" style="fill:#836258;fill:color(display-p3 0.5125 0.3838 0.3438);fill-opacity:1;"/>
<path d="M82.4 45.9401C78.21 45.9401 74.4 49.4801 74.4 55.3601C74.4 61.2401 78.21 64.7701 82.4 64.7701C86.59 64.7701 90.4 61.2301 90.4 55.3601C90.4 49.4901 86.59 45.9401 82.4 45.9401Z" fill="#5D4037" style="fill:#5D4037;fill:color(display-p3 0.3647 0.2510 0.2157);fill-opacity:1;"/>
<path d="M82.0001 49.87C80.5801 49.19 78.8701 49.79 78.1801 51.21C77.6501 52.32 77.8901 53.65 78.7801 54.51C80.2001 55.19 81.9101 54.59 82.6001 53.17C83.1301 52.06 82.8901 50.73 82.0001 49.87Z" fill="#836258" style="fill:#836258;fill:color(display-p3 0.5125 0.3838 0.3438);fill-opacity:1;"/>
<g opacity="0.9">
<path opacity="0.9" d="M27.45 90.4401C37.0819 90.4401 44.89 83.2766 44.89 74.4401C44.89 65.6035 37.0819 58.4401 27.45 58.4401C17.8182 58.4401 10.01 65.6035 10.01 74.4401C10.01 83.2766 17.8182 90.4401 27.45 90.4401Z" fill="url(#paint4_radial_169_6436)" style=""/>
</g>
<defs>
<radialGradient id="paint0_radial_169_6436" cx="0" cy="0" r="1" gradientUnits="userSpaceOnUse" gradientTransform="translate(63.6 62.8999) scale(56.9597 56.9597)">
<stop offset="0.5" stop-color="#FDE030" style="stop-color:#FDE030;stop-color:color(display-p3 0.9922 0.8784 0.1882);stop-opacity:1;"/>
<stop offset="0.92" stop-color="#F7C02B" style="stop-color:#F7C02B;stop-color:color(display-p3 0.9686 0.7529 0.1686);stop-opacity:1;"/>
<stop offset="1" stop-color="#F4A223" style="stop-color:#F4A223;stop-color:color(display-p3 0.9569 0.6353 0.1373);stop-opacity:1;"/>
</radialGradient>
<radialGradient id="paint1_radial_169_6436" cx="0" cy="0" r="1" gradientUnits="userSpaceOnUse" gradientTransform="translate(38.599 34.5377) rotate(-43.2082) scale(102.024 101.825)">
<stop offset="0.3533" stop-color="#F9DDBD" style="stop-color:#F9DDBD;stop-color:color(display-p3 0.9765 0.8667 0.7412);stop-opacity:1;"/>
<stop offset="0.8723" stop-color="#FFD29C" style="stop-color:#FFD29C;stop-color:color(display-p3 1.0000 0.8235 0.6118);stop-opacity:1;"/>
</radialGradient>
<radialGradient id="paint2_radial_169_6436" cx="0" cy="0" r="1" gradientUnits="userSpaceOnUse" gradientTransform="translate(38.599 34.5377) rotate(-43.2082) scale(102.024 101.825)">
<stop offset="0.3533" stop-color="#E0BB95" style="stop-color:#E0BB95;stop-color:color(display-p3 0.8784 0.7333 0.5843);stop-opacity:1;"/>
<stop offset="0.8723" stop-color="#CCA47A" style="stop-color:#CCA47A;stop-color:color(display-p3 0.8000 0.6431 0.4784);stop-opacity:1;"/>
</radialGradient>
<radialGradient id="paint3_radial_169_6436" cx="0" cy="0" r="1" gradientUnits="userSpaceOnUse" gradientTransform="translate(101.6 71.8978) scale(18.9659 16.6218)">
<stop stop-color="#ED7770" style="stop-color:#ED7770;stop-color:color(display-p3 0.9294 0.4667 0.4392);stop-opacity:1;"/>
<stop offset="0.08" stop-color="#ED7770" stop-opacity="0.97" style="stop-color:#ED7770;stop-color:color(display-p3 0.9294 0.4667 0.4392);stop-opacity:0.97;"/>
<stop offset="0.21" stop-color="#ED7770" stop-opacity="0.88" style="stop-color:#ED7770;stop-color:color(display-p3 0.9294 0.4667 0.4392);stop-opacity:0.88;"/>
<stop offset="0.35" stop-color="#ED7770" stop-opacity="0.74" style="stop-color:#ED7770;stop-color:color(display-p3 0.9294 0.4667 0.4392);stop-opacity:0.74;"/>
<stop offset="0.52" stop-color="#ED7770" stop-opacity="0.55" style="stop-color:#ED7770;stop-color:color(display-p3 0.9294 0.4667 0.4392);stop-opacity:0.55;"/>
<stop offset="0.71" stop-color="#ED7770" stop-opacity="0.29" style="stop-color:#ED7770;stop-color:color(display-p3 0.9294 0.4667 0.4392);stop-opacity:0.29;"/>
<stop offset="0.9" stop-color="#ED7770" stop-opacity="0" style="stop-color:none;stop-opacity:0;"/>
</radialGradient>
<radialGradient id="paint4_radial_169_6436" cx="0" cy="0" r="1" gradientUnits="userSpaceOnUse" gradientTransform="translate(27.4501 74.5843) scale(18.9545 16.6118)">
<stop stop-color="#ED7770" style="stop-color:#ED7770;stop-color:color(display-p3 0.9294 0.4667 0.4392);stop-opacity:1;"/>
<stop offset="0.08" stop-color="#ED7770" stop-opacity="0.97" style="stop-color:#ED7770;stop-color:color(display-p3 0.9294 0.4667 0.4392);stop-opacity:0.97;"/>
<stop offset="0.21" stop-color="#ED7770" stop-opacity="0.88" style="stop-color:#ED7770;stop-color:color(display-p3 0.9294 0.4667 0.4392);stop-opacity:0.88;"/>
<stop offset="0.35" stop-color="#ED7770" stop-opacity="0.74" style="stop-color:#ED7770;stop-color:color(display-p3 0.9294 0.4667 0.4392);stop-opacity:0.74;"/>
<stop offset="0.52" stop-color="#ED7770" stop-opacity="0.55" style="stop-color:#ED7770;stop-color:color(display-p3 0.9294 0.4667 0.4392);stop-opacity:0.55;"/>
<stop offset="0.71" stop-color="#ED7770" stop-opacity="0.29" style="stop-color:#ED7770;stop-color:color(display-p3 0.9294 0.4667 0.4392);stop-opacity:0.29;"/>
<stop offset="0.9" stop-color="#ED7770" stop-opacity="0" style="stop-color:none;stop-opacity:0;"/>
</radialGradient>
</defs>
</svg>
