<svg width="128" height="129" viewBox="0 0 128 129" fill="none" xmlns="http://www.w3.org/2000/svg">
<path d="M103.07 38.17C103.07 16.61 85.5502 4.5 64.0002 4.5C42.4502 4.5 24.9302 16.61 24.9302 38.17V85.44C24.9302 106.99 42.4502 124.5 64.0002 124.5C85.5502 124.5 103.07 106.99 103.07 85.43V38.17Z" fill="#E0E0E0" style="fill:#E0E0E0;fill:color(display-p3 0.8784 0.8784 0.8784);fill-opacity:1;"/>
<g opacity="0.51">
<path d="M61 106.275C61 111.446 64.9281 115.5 70.0992 115.5C86.0607 115.5 99 99.2179 99 79.1329V44.8671C99 24.7821 86.0607 8.5 70.0992 8.5C64.9281 8.5 61 12.5535 61 17.7247V106.275Z" fill="#C4C4C4" style="fill:#C4C4C4;fill:color(display-p3 0.7686 0.7686 0.7686);fill-opacity:1;"/>
<path d="M61 106.275C61 111.446 64.9281 115.5 70.0992 115.5C86.0607 115.5 99 99.2179 99 79.1329V44.8671C99 24.7821 86.0607 8.5 70.0992 8.5C64.9281 8.5 61 12.5535 61 17.7247V106.275Z" fill="white" style="fill:white;fill-opacity:1;"/>
</g>
<path d="M87.6545 44.3094C90.9248 45.6334 93.7104 47.138 96.0699 48.51C100.42 51.04 103.07 55.72 103.06 60.75V61.95C102.383 60.7161 98.6605 54.2632 88.3926 49.8609C80.509 46.4808 71.6895 46.5049 63.1128 46.6355C54.2074 46.7711 44.9922 46.983 37.0748 51.0622C28.7079 55.3732 25.5261 60.8921 24.9399 61.95V60.75C24.9399 55.7 27.6099 51.01 31.9899 48.48C33.7882 47.4357 35.8336 46.2938 38.1516 45.2175C45.876 41.631 54.5961 41.3469 63.1118 41.2425C71.4325 41.1405 79.9413 41.1867 87.6545 44.3094Z" fill="#B5B5B5" style="fill:#B5B5B5;fill:color(display-p3 0.7098 0.7098 0.7098);fill-opacity:1;"/>
<rect x="60.7227" y="4.40808" width="4.3907" height="38.2565" fill="#B5B5B5" style="fill:#B5B5B5;fill:color(display-p3 0.7098 0.7098 0.7098);fill-opacity:1;"/>
</svg>
