<svg width="128" height="129" viewBox="0 0 128 129" fill="none" xmlns="http://www.w3.org/2000/svg">
<path d="M75.96 75.9L78.29 73.52C78.46 73.4 79.39 73.38 79.58 73.44C79.64 73.44 80.03 74.13 80.09 74.14L80.99 74.3C81.37 74.39 81.62 74.78 81.53 75.17L81.49 75.38C81.41 75.77 81.03 76.02 80.65 75.93L79.28 75.61L76.9 77.29C76.58 77.52 76.14 77.43 75.91 77.1L75.79 76.92C75.56 76.57 75.64 76.12 75.96 75.9Z" fill="#EDA600" style="fill:#EDA600;fill:color(display-p3 0.9294 0.6510 0.0000);fill-opacity:1;"/>
<path d="M75.96 75.9L78.29 73.52C78.46 73.4 79.39 73.38 79.58 73.44C79.64 73.44 80.03 74.13 80.09 74.14L80.99 74.3C81.37 74.39 81.62 74.78 81.53 75.17L81.49 75.38C81.41 75.77 81.03 76.02 80.65 75.93L79.28 75.61L76.9 77.29C76.58 77.52 76.14 77.43 75.91 77.1L75.79 76.92C75.56 76.57 75.64 76.12 75.96 75.9Z" fill="url(#paint0_linear_201_3924)" style=""/>
<path d="M90.5099 16.83C74.2099 16.83 74.3399 31.94 74.3399 32.18C74.3399 41.97 75.0899 55.8 78.9899 61.24C80.5399 63.4 83.5299 63.52 83.5299 63.52L90.2799 63.5L97.0199 63.51C97.0199 63.51 100.01 63.39 101.56 61.23C105.47 55.79 106.21 41.96 106.21 32.17C106.22 31.94 106.81 16.83 90.5099 16.83Z" fill="#543930" style="fill:#543930;fill:color(display-p3 0.3294 0.2235 0.1882);fill-opacity:1;"/>
<path d="M90.5099 16.83C74.2099 16.83 74.3399 31.94 74.3399 32.18C74.3399 41.97 75.0899 55.8 78.9899 61.24C80.5399 63.4 83.5299 63.52 83.5299 63.52L90.2799 63.5L97.0199 63.51C97.0199 63.51 100.01 63.39 101.56 61.23C105.47 55.79 106.21 41.96 106.21 32.17C106.22 31.94 106.81 16.83 90.5099 16.83Z" fill="#AB872F" style="fill:#AB872F;fill:color(display-p3 0.6706 0.5294 0.1843);fill-opacity:1;"/>
<path d="M120.84 113.67C120.28 111.24 117.6 108.55 114.97 105.95C113.27 104.27 110.21 104.62 108.54 106.33C106.87 108.04 106.57 111.11 108.27 112.79C110.9 115.39 113.63 118.03 116.06 118.55C117.97 118.96 119.56 118.35 120.13 117.77C120.7 117.18 121.28 115.58 120.84 113.67Z" fill="#504F4F" style="fill:#504F4F;fill:color(display-p3 0.3137 0.3098 0.3098);fill-opacity:1;"/>
<path d="M91.3 124.32H85.24L81.96 105.04C82.61 106.74 84.26 107.95 86.2 107.95C88.7 107.95 90.73 105.93 90.74 103.44L91.3 124.32Z" fill="url(#paint1_linear_201_3924)" style=""/>
<path d="M91.3 124.32H85.24L81.96 105.04C82.61 106.74 84.26 107.95 86.2 107.95C88.7 107.95 90.73 105.93 90.74 103.44L91.3 124.32Z" fill="url(#paint2_linear_201_3924)" style=""/>
<path d="M115.56 113.97C114.56 114.53 113.32 114.46 112.39 113.78L100.24 103.14C100.13 103.04 100.02 102.94 99.9199 102.83C100.76 103.66 101.91 104.18 103.19 104.18C105.76 104.18 107.84 102.1 107.84 99.53C107.84 99.03 107.76 98.54 107.61 98.09C107.62 98.1 107.63 98.12 107.64 98.13L116.19 109.29C117.58 110.67 117.27 113.01 115.56 113.97Z" fill="url(#paint3_linear_201_3924)" style=""/>
<path d="M115.56 113.97C114.56 114.53 113.32 114.46 112.39 113.78L100.24 103.14C100.13 103.04 100.02 102.94 99.9199 102.83C100.76 103.66 101.91 104.18 103.19 104.18C105.76 104.18 107.84 102.1 107.84 99.53C107.84 99.03 107.76 98.54 107.61 98.09C107.62 98.1 107.63 98.12 107.64 98.13L116.19 109.29C117.58 110.67 117.27 113.01 115.56 113.97Z" fill="url(#paint4_linear_201_3924)" style=""/>
<path d="M107.84 99.53C107.84 102.1 105.76 104.18 103.19 104.18C101.91 104.18 100.76 103.66 99.9202 102.83C99.7902 102.7 99.6702 102.57 99.5602 102.43C99.3502 102.18 99.1602 101.9 99.0002 101.62L92.1702 88.97C92.1302 88.75 90.9602 88.6 90.7602 88.6C90.5602 88.6 90.3902 88.76 90.3502 88.97L90.7402 103.31V103.42C90.7402 103.43 90.7402 103.43 90.7402 103.44C90.7302 105.93 88.7002 107.95 86.2002 107.95C84.2602 107.95 82.6102 106.74 81.9602 105.04L81.6702 103.28L78.2402 83.12L89.5802 75.09L102.28 83.11L106.95 96.81L107.05 97.1C107.19 97.45 107.37 97.79 107.61 98.09C107.76 98.54 107.84 99.03 107.84 99.53Z" fill="url(#paint5_linear_201_3924)" style=""/>
<path d="M107.84 99.53C107.84 102.1 105.76 104.18 103.19 104.18C101.91 104.18 100.76 103.66 99.9202 102.83C99.7902 102.7 99.6702 102.57 99.5602 102.43C99.3502 102.18 99.1602 101.9 99.0002 101.62L92.1702 88.97C92.1302 88.75 90.9602 88.6 90.7602 88.6C90.5602 88.6 90.3902 88.76 90.3502 88.97L90.7402 103.31V103.42C90.7402 103.43 90.7402 103.43 90.7402 103.44C90.7302 105.93 88.7002 107.95 86.2002 107.95C84.2602 107.95 82.6102 106.74 81.9602 105.04L81.6702 103.28L78.2402 83.12L89.5802 75.09L102.28 83.11L106.95 96.81L107.05 97.1C107.19 97.45 107.37 97.79 107.61 98.09C107.76 98.54 107.84 99.03 107.84 99.53Z" fill="url(#paint6_linear_201_3924)" style=""/>
<path d="M104.89 75.64L102.25 73.42C102.08 73.3 101.53 73.66 101.34 73.71C101.28 73.71 100.82 73.86 100.76 73.87L99.8601 74.03C99.4801 74.12 99.2301 74.51 99.3201 74.9L99.3601 75.11C99.4401 75.5 99.8201 75.75 100.2 75.66L101.57 75.34L103.95 77.02C104.27 77.25 104.71 77.16 104.94 76.83L105.06 76.65C105.29 76.32 105.21 75.87 104.89 75.64Z" fill="#EDA600" style="fill:#EDA600;fill:color(display-p3 0.9294 0.6510 0.0000);fill-opacity:1;"/>
<path d="M104.89 75.64L102.25 73.42C102.08 73.3 101.53 73.66 101.34 73.71C101.28 73.71 100.82 73.86 100.76 73.87L99.8601 74.03C99.4801 74.12 99.2301 74.51 99.3201 74.9L99.3601 75.11C99.4401 75.5 99.8201 75.75 100.2 75.66L101.57 75.34L103.95 77.02C104.27 77.25 104.71 77.16 104.94 76.83L105.06 76.65C105.29 76.32 105.21 75.87 104.89 75.64Z" fill="url(#paint7_linear_201_3924)" style=""/>
<path d="M108.77 60.8401C108.77 60.8401 106.7 53.4301 89.73 53.4301C72.76 53.4301 71.77 60.8401 71.77 60.8401L78.12 65.6701H101.37L108.77 60.8401Z" fill="#444444" style="fill:#444444;fill:color(display-p3 0.2667 0.2667 0.2667);fill-opacity:1;"/>
<path d="M109.74 60.8401C109.74 60.8401 106.67 53.4301 89.7002 53.4301C72.7302 53.4301 70.7402 60.8401 70.7402 60.8401L78.1602 67.7301V83.1501L87.9002 89.5801C88.6702 89.9701 89.5202 90.1701 90.3802 90.1701C91.2702 90.1701 92.1502 89.9501 92.9402 89.5401L102.25 83.1501V67.7301L109.74 60.8401Z" fill="url(#paint8_linear_201_3924)" style=""/>
<path d="M115.71 69.51L108.32 59.74L102.14 64.1L109.56 71.05L104.37 75.36C103.83 75.34 102.9 75.2 101.71 75.2H101.32L101.3 75.19C101.3 75.19 99.6302 75.31 99.1902 75.65C98.7902 75.96 98.8302 76.5 99.0102 76.7C99.2202 76.94 99.1702 77.36 98.9602 77.59C98.7502 77.83 98.6202 78.12 98.6402 78.42C98.6602 78.71 98.7902 78.88 99.0802 79.1C99.2202 79.2 99.2902 79.48 99.2202 79.63C99.1002 79.87 98.9102 80.28 98.9502 80.5C99.0402 80.93 99.4802 81.02 99.5802 81.35C99.6202 81.48 99.2102 81.92 99.6302 82.29C100.02 82.64 100.69 82.92 101.71 82.92C102.62 82.92 103.81 82.7 105.32 82.1C105.36 82.08 115.71 73.66 115.71 73.66C116.76 72.55 116.71 70.67 115.71 69.51Z" fill="url(#paint9_linear_201_3924)" style=""/>
<path d="M115.71 69.51L108.32 59.74L102.14 64.1L109.56 71.05L104.37 75.36C103.83 75.34 102.9 75.2 101.71 75.2H101.32L101.3 75.19C101.3 75.19 99.6302 75.31 99.1902 75.65C98.7902 75.96 98.8302 76.5 99.0102 76.7C99.2202 76.94 99.1702 77.36 98.9602 77.59C98.7502 77.83 98.6202 78.12 98.6402 78.42C98.6602 78.71 98.7902 78.88 99.0802 79.1C99.2202 79.2 99.2902 79.48 99.2202 79.63C99.1002 79.87 98.9102 80.28 98.9502 80.5C99.0402 80.93 99.4802 81.02 99.5802 81.35C99.6202 81.48 99.2102 81.92 99.6302 82.29C100.02 82.64 100.69 82.92 101.71 82.92C102.62 82.92 103.81 82.7 105.32 82.1C105.36 82.08 115.71 73.66 115.71 73.66C116.76 72.55 116.71 70.67 115.71 69.51Z" fill="url(#paint10_linear_201_3924)" style=""/>
<path d="M82.2202 78.44C82.2402 78.14 82.1102 77.85 81.9002 77.61C81.6902 77.37 81.6402 76.95 81.8502 76.72C82.0302 76.52 82.0602 75.97 81.6702 75.67C81.2302 75.33 79.5602 75.21 79.5602 75.21L79.5402 75.22H79.1502C77.9602 75.22 77.0302 75.35 76.4902 75.38L71.3002 71.07L78.7202 64.12L72.5302 59.74L65.1502 69.53C64.1502 70.68 64.1002 72.57 65.1502 73.68C65.1502 73.68 75.5002 82.1 75.5402 82.12C77.0502 82.71 78.2402 82.94 79.1502 82.94C80.1602 82.94 80.8402 82.66 81.2302 82.31C81.6502 81.93 81.2402 81.5 81.2802 81.37C81.3802 81.04 81.8102 80.95 81.9102 80.52C81.9602 80.31 81.7602 79.89 81.6402 79.65C81.5602 79.5 81.6402 79.22 81.7802 79.12C82.0702 78.9 82.2002 78.73 82.2202 78.44Z" fill="url(#paint11_linear_201_3924)" style=""/>
<path d="M82.2202 78.44C82.2402 78.14 82.1102 77.85 81.9002 77.61C81.6902 77.37 81.6402 76.95 81.8502 76.72C82.0302 76.52 82.0602 75.97 81.6702 75.67C81.2302 75.33 79.5602 75.21 79.5602 75.21L79.5402 75.22H79.1502C77.9602 75.22 77.0302 75.35 76.4902 75.38L71.3002 71.07L78.7202 64.12L72.5302 59.74L65.1502 69.53C64.1502 70.68 64.1002 72.57 65.1502 73.68C65.1502 73.68 75.5002 82.1 75.5402 82.12C77.0502 82.71 78.2402 82.94 79.1502 82.94C80.1602 82.94 80.8402 82.66 81.2302 82.31C81.6502 81.93 81.2402 81.5 81.2802 81.37C81.3802 81.04 81.8102 80.95 81.9102 80.52C81.9602 80.31 81.7602 79.89 81.6402 79.65C81.5602 79.5 81.6402 79.22 81.7802 79.12C82.0702 78.9 82.2002 78.73 82.2202 78.44Z" fill="url(#paint12_linear_201_3924)" style=""/>
<path d="M109.77 60.8401C109.77 60.8401 106.7 53.4301 89.73 53.4301C72.76 53.4301 70.77 60.8401 70.77 60.8401L78.12 67.6701H102.37L109.77 60.8401Z" fill="url(#paint13_linear_201_3924)" style=""/>
<path d="M100.76 54.8501C100.67 57.8501 96.9398 62.0701 90.2598 62.0701C83.4998 62.0701 79.7598 57.7401 79.7598 54.7401C79.7598 54.6901 79.7598 54.6401 79.7698 54.5901C82.2498 53.8901 85.4898 53.4301 89.7298 53.4301C94.4798 53.4301 98.0698 54.0101 100.76 54.8501Z" fill="url(#paint14_linear_201_3924)" style=""/>
<path d="M100.76 54.8501C100.67 57.8501 96.9398 62.0701 90.2598 62.0701C83.4998 62.0701 79.7598 57.7401 79.7598 54.7401C79.7598 54.6901 79.7598 54.6401 79.7698 54.5901C82.2498 53.8901 85.4898 53.4301 89.7298 53.4301C94.4798 53.4301 98.0698 54.0101 100.76 54.8501Z" fill="#E0BB95" style="fill:#E0BB95;fill:color(display-p3 0.8784 0.7333 0.5843);fill-opacity:1;"/>
<path d="M89.8498 57.8C87.8798 57.8 86.2798 56.28 86.2798 54.4V50.14H94.2398V54.4C94.2398 56.27 92.6398 57.8 90.6698 57.8H89.8498Z" fill="#E59600" style="fill:#E59600;fill:color(display-p3 0.8980 0.5882 0.0000);fill-opacity:1;"/>
<path d="M89.8498 57.8C87.8798 57.8 86.2798 56.28 86.2798 54.4V50.14H94.2398V54.4C94.2398 56.27 92.6398 57.8 90.6698 57.8H89.8498Z" fill="#C48E6A" style="fill:#C48E6A;fill:color(display-p3 0.7686 0.5569 0.4157);fill-opacity:1;"/>
<path d="M90.2999 20.7699C83.4599 20.7699 77.1299 25.8699 77.1299 36.6799C77.1299 45.3599 82.4899 50.4999 87.1599 52.1599C88.2699 52.5499 89.3499 52.7499 90.2999 52.7499C91.2499 52.7499 92.3099 52.5499 93.4199 52.1599C98.0899 50.5099 103.47 45.3699 103.47 36.6799C103.47 25.8699 97.1399 20.7699 90.2999 20.7699Z" fill="#FFCA28" style="fill:#FFCA28;fill:color(display-p3 1.0000 0.7922 0.1569);fill-opacity:1;"/>
<path d="M90.2999 20.7699C83.4599 20.7699 77.1299 25.8699 77.1299 36.6799C77.1299 45.3599 82.4899 50.4999 87.1599 52.1599C88.2699 52.5499 89.3499 52.7499 90.2999 52.7499C91.2499 52.7499 92.3099 52.5499 93.4199 52.1599C98.0899 50.5099 103.47 45.3699 103.47 36.6799C103.47 25.8699 97.1399 20.7699 90.2999 20.7699Z" fill="#E0BB95" style="fill:#E0BB95;fill:color(display-p3 0.8784 0.7333 0.5843);fill-opacity:1;"/>
<path d="M83.91 40.53C84.9759 40.53 85.84 39.6301 85.84 38.52C85.84 37.4099 84.9759 36.51 83.91 36.51C82.8441 36.51 81.98 37.4099 81.98 38.52C81.98 39.6301 82.8441 40.53 83.91 40.53Z" fill="#404040" style="fill:#404040;fill:color(display-p3 0.2510 0.2510 0.2510);fill-opacity:1;"/>
<path d="M96.8201 40.53C97.886 40.53 98.7501 39.6301 98.7501 38.52C98.7501 37.4099 97.886 36.51 96.8201 36.51C95.7542 36.51 94.8901 37.4099 94.8901 38.52C94.8901 39.6301 95.7542 40.53 96.8201 40.53Z" fill="#404040" style="fill:#404040;fill:color(display-p3 0.2510 0.2510 0.2510);fill-opacity:1;"/>
<path d="M91.7799 42.17C91.7399 42.15 91.6999 42.14 91.6499 42.14H88.8699C88.8299 42.15 88.7899 42.16 88.7399 42.17C88.4899 42.27 88.3499 42.53 88.4699 42.81C88.5899 43.09 89.1399 43.87 90.2599 43.87C91.3699 43.87 91.9299 43.09 92.0499 42.81C92.1699 42.54 92.0299 42.28 91.7799 42.17Z" fill="#E59600" style="fill:#E59600;fill:color(display-p3 0.8980 0.5882 0.0000);fill-opacity:1;"/>
<path d="M91.7799 42.17C91.7399 42.15 91.6999 42.14 91.6499 42.14H88.8699C88.8299 42.15 88.7899 42.16 88.7399 42.17C88.4899 42.27 88.3499 42.53 88.4699 42.81C88.5899 43.09 89.1399 43.87 90.2599 43.87C91.3699 43.87 91.9299 43.09 92.0499 42.81C92.1699 42.54 92.0299 42.28 91.7799 42.17Z" fill="#C48E6A" style="fill:#C48E6A;fill:color(display-p3 0.7686 0.5569 0.4157);fill-opacity:1;"/>
<path d="M86.7797 34.91C86.4097 34.42 85.5597 33.71 83.9097 33.71C82.2597 33.71 81.3997 34.42 81.0397 34.91C80.8797 35.13 80.9197 35.38 81.0297 35.53C81.1297 35.67 81.4397 35.8 81.7897 35.68C82.1297 35.56 82.7997 35.22 83.9197 35.21C85.0397 35.22 85.7097 35.56 86.0497 35.68C86.3897 35.8 86.6997 35.67 86.8097 35.53C86.9097 35.37 86.9497 35.12 86.7797 34.91Z" fill="#6D4C41" style="fill:#6D4C41;fill:color(display-p3 0.4275 0.2980 0.2549);fill-opacity:1;"/>
<path d="M86.7797 34.91C86.4097 34.42 85.5597 33.71 83.9097 33.71C82.2597 33.71 81.3997 34.42 81.0397 34.91C80.8797 35.13 80.9197 35.38 81.0297 35.53C81.1297 35.67 81.4397 35.8 81.7897 35.68C82.1297 35.56 82.7997 35.22 83.9197 35.21C85.0397 35.22 85.7097 35.56 86.0497 35.68C86.3897 35.8 86.6997 35.67 86.8097 35.53C86.9097 35.37 86.9497 35.12 86.7797 34.91Z" fill="#AB872F" style="fill:#AB872F;fill:color(display-p3 0.6706 0.5294 0.1843);fill-opacity:1;"/>
<path d="M99.6996 34.91C99.3296 34.42 98.4796 33.71 96.8296 33.71C95.1796 33.71 94.3196 34.42 93.9596 34.91C93.7996 35.13 93.8396 35.38 93.9496 35.53C94.0496 35.67 94.3596 35.8 94.7096 35.68C95.0496 35.56 95.7196 35.22 96.8396 35.21C97.9596 35.22 98.6296 35.56 98.9696 35.68C99.3096 35.8 99.6196 35.67 99.7296 35.53C99.8196 35.37 99.8596 35.12 99.6996 34.91Z" fill="#6D4C41" style="fill:#6D4C41;fill:color(display-p3 0.4275 0.2980 0.2549);fill-opacity:1;"/>
<path d="M99.6996 34.91C99.3296 34.42 98.4796 33.71 96.8296 33.71C95.1796 33.71 94.3196 34.42 93.9596 34.91C93.7996 35.13 93.8396 35.38 93.9496 35.53C94.0496 35.67 94.3596 35.8 94.7096 35.68C95.0496 35.56 95.7196 35.22 96.8396 35.21C97.9596 35.22 98.6296 35.56 98.9696 35.68C99.3096 35.8 99.6196 35.67 99.7296 35.53C99.8196 35.37 99.8596 35.12 99.6996 34.91Z" fill="#AB872F" style="fill:#AB872F;fill:color(display-p3 0.6706 0.5294 0.1843);fill-opacity:1;"/>
<path d="M90.4698 16.83C74.1298 16.83 74.2598 31.94 74.2598 32.18C74.2598 39.48 74.6798 49.03 76.5198 55.67C77.1198 55.4 77.7798 55.15 78.4998 54.92C78.7598 54.83 79.0298 54.75 79.3098 54.67C79.1598 52.63 78.5198 43.85 78.4398 39.43C78.4198 38.26 78.0698 33.91 80.4898 33.36C89.3798 31.34 94.3998 26.57 94.3998 26.57C95.7098 29.46 99.7998 32.28 101.26 33.35C102.47 34.23 102.3 37.84 102.27 39.39L101.08 54.88C101.24 54.93 101.4 54.98 101.56 55.03C102.42 55.31 103.19 55.62 103.89 55.93C105.8 49.28 106.22 39.58 106.22 32.18C106.22 31.94 106.81 16.83 90.4698 16.83Z" fill="#543930" style="fill:#543930;fill:color(display-p3 0.3294 0.2235 0.1882);fill-opacity:1;"/>
<path d="M90.4698 16.83C74.1298 16.83 74.2598 31.94 74.2598 32.18C74.2598 39.48 74.6798 49.03 76.5198 55.67C77.1198 55.4 77.7798 55.15 78.4998 54.92C78.7598 54.83 79.0298 54.75 79.3098 54.67C79.1598 52.63 78.5198 43.85 78.4398 39.43C78.4198 38.26 78.0698 33.91 80.4898 33.36C89.3798 31.34 94.3998 26.57 94.3998 26.57C95.7098 29.46 99.7998 32.28 101.26 33.35C102.47 34.23 102.3 37.84 102.27 39.39L101.08 54.88C101.24 54.93 101.4 54.98 101.56 55.03C102.42 55.31 103.19 55.62 103.89 55.93C105.8 49.28 106.22 39.58 106.22 32.18C106.22 31.94 106.81 16.83 90.4698 16.83Z" fill="#AB872F" style="fill:#AB872F;fill:color(display-p3 0.6706 0.5294 0.1843);fill-opacity:1;"/>
<path d="M90.4698 16.83C74.1298 16.83 74.2598 31.94 74.2598 32.18C74.2598 39.48 74.6798 49.03 76.5198 55.67C77.1198 55.4 77.7798 55.15 78.4998 54.92C78.7598 54.83 79.0298 54.75 79.3098 54.67C79.1598 52.63 78.5198 43.85 78.4398 39.43C78.4198 38.26 78.0698 33.91 80.4898 33.36C89.3798 31.34 94.3998 26.57 94.3998 26.57C95.7098 29.46 99.7998 32.28 101.26 33.35C102.47 34.23 102.3 37.84 102.27 39.39L101.08 54.88C101.24 54.93 101.4 54.98 101.56 55.03C102.42 55.31 103.19 55.62 103.89 55.93C105.8 49.28 106.22 39.58 106.22 32.18C106.22 31.94 106.81 16.83 90.4698 16.83Z" fill="url(#paint15_radial_201_3924)" style=""/>
<path d="M93.5697 45.5799C92.3197 46.3299 88.2197 46.3299 86.9697 45.5799C86.2497 45.1499 85.5197 45.8099 85.8197 46.4599C86.1097 47.0999 88.3497 48.5999 90.2797 48.5999C92.2097 48.5999 94.4197 47.1099 94.7197 46.4599C95.0197 45.7999 94.2897 45.1499 93.5697 45.5799Z" fill="#795548" style="fill:#795548;fill:color(display-p3 0.4745 0.3333 0.2824);fill-opacity:1;"/>
<path d="M87.99 124.5H83.61C82.8 124.48 82.22 123.55 82.46 122.75C83.19 120.29 85.41 118.48 87.99 118.48C90.63 118.48 92.88 120.36 93.56 122.89C93.78 123.7 93.18 124.5 92.37 124.5H87.99Z" fill="#504F4F" style="fill:#504F4F;fill:color(display-p3 0.3137 0.3098 0.3098);fill-opacity:1;"/>
<path d="M90.4698 16.83C74.1298 16.83 74.2598 31.94 74.2598 32.18C74.2598 35.27 74.3298 38.76 74.5598 42.27L77.2398 42.26C77.2198 41.1 78.0298 33.91 80.4598 33.36C89.3698 31.36 94.4098 26.63 94.4098 26.63C95.7198 29.49 99.8198 32.29 101.29 33.35C102.5 34.22 102.87 40.74 102.85 42.27H105.92C105.92 42.25 105.93 42.23 105.93 42.21C106.15 38.72 106.23 35.25 106.23 32.18C106.22 31.94 106.81 16.83 90.4698 16.83Z" fill="url(#paint16_radial_201_3924)" style=""/>
<path d="M90.4698 16.83C74.1298 16.83 74.2598 31.94 74.2598 32.18C74.2598 35.27 74.3298 38.76 74.5598 42.27L77.2398 42.26C77.2198 41.1 78.0298 33.91 80.4598 33.36C89.3698 31.36 94.4098 26.63 94.4098 26.63C95.7198 29.49 99.8198 32.29 101.29 33.35C102.5 34.22 102.87 40.74 102.85 42.27H105.92C105.92 42.25 105.93 42.23 105.93 42.21C106.15 38.72 106.23 35.25 106.23 32.18C106.22 31.94 106.81 16.83 90.4698 16.83Z" fill="#AB872F" style="fill:#AB872F;fill:color(display-p3 0.6706 0.5294 0.1843);fill-opacity:1;"/>
<path d="M90.4698 16.83C74.1298 16.83 74.2598 31.94 74.2598 32.18C74.2598 35.27 74.3298 38.76 74.5598 42.27L77.2398 42.26C77.2198 41.1 78.0298 33.91 80.4598 33.36C89.3698 31.36 94.4098 26.63 94.4098 26.63C95.7198 29.49 99.8198 32.29 101.29 33.35C102.5 34.22 102.87 40.74 102.85 42.27H105.92C105.92 42.25 105.93 42.23 105.93 42.21C106.15 38.72 106.23 35.25 106.23 32.18C106.22 31.94 106.81 16.83 90.4698 16.83Z" fill="url(#paint17_radial_201_3924)" style=""/>
<path d="M106.239 32.1601C106.239 39.5701 105.809 49.2801 103.899 55.9301C100.869 54.5401 96.3588 53.4101 89.7188 53.4101C83.5488 53.4101 79.3588 54.3901 76.5288 55.6301C74.6988 48.9901 74.2788 39.4601 74.2788 32.1601C74.2788 31.9201 74.1488 16.8101 90.4888 16.8101C106.829 16.8101 106.239 31.9201 106.239 32.1601Z" fill="url(#paint18_radial_201_3924)" style=""/>
<path d="M105.84 5.83995C105.67 4.83995 104.64 4.24995 103.7 4.59995C101.48 5.41995 97.7201 7.22995 95.8201 10.53C94.3901 13.01 93.7901 16.6899 93.5501 19.7099C93.4601 20.8099 92.5101 21.6299 91.4101 21.5499C91.0401 21.5199 89.4701 21.5199 89.1001 21.5499C88.0001 21.6299 87.0401 20.82 86.9601 19.7099C86.7201 16.6899 86.1201 13.01 84.6901 10.53C82.7901 7.21995 79.0101 5.41995 76.8001 4.59995C75.8601 4.24995 74.8501 4.83995 74.6801 5.82995C74.2801 8.15995 73.9501 12.3499 75.8601 15.65C77.2901 18.1399 80.1601 20.4899 82.6501 22.2099C83.2101 22.5999 83.2101 23.41 82.6701 23.83C81.6601 24.6 80.9001 25.5 80.3101 26.4C79.7301 27.2999 80.7601 28.3899 81.6601 27.8099C83.4401 26.66 86.1501 25.7199 90.2501 25.7199C94.3501 25.7199 97.0601 26.66 98.8401 27.8099C99.7401 28.3899 100.78 27.2999 100.19 26.4C99.6001 25.49 98.8401 24.6 97.8401 23.82C97.3001 23.4 97.3001 22.59 97.8601 22.2C100.34 20.48 103.21 18.13 104.65 15.64C106.56 12.35 106.24 8.17995 105.84 5.83995Z" fill="url(#paint19_linear_201_3924)" style=""/>
<path d="M98.1601 12.27C97.1201 14.07 96.9101 17.13 96.8601 18.45C96.8501 18.74 97.1501 18.92 97.4001 18.76C98.5201 18.06 101.05 16.35 102.09 14.54C103 12.96 102.92 11 102.77 9.90999C102.71 9.43999 102.25 9.17999 101.82 9.35999C100.8 9.77999 99.0701 10.69 98.1601 12.27Z" fill="#FF4081" style="fill:#FF4081;fill:color(display-p3 1.0000 0.2510 0.5059);fill-opacity:1;"/>
<path d="M82.3499 12.27C83.3899 14.07 83.6099 17.13 83.6499 18.46C83.6599 18.75 83.3599 18.93 83.1199 18.77C81.9999 18.07 79.4699 16.36 78.4299 14.55C77.5199 12.97 77.5999 11.01 77.7399 9.92C77.7999 9.45 78.2599 9.18999 78.6899 9.36999C79.6999 9.77999 81.4399 10.69 82.3499 12.27Z" fill="#FF4081" style="fill:#FF4081;fill:color(display-p3 1.0000 0.2510 0.5059);fill-opacity:1;"/>
<path d="M20.1099 75.9L22.4399 73.52C22.6099 73.4 23.5399 73.38 23.7299 73.44C23.7899 73.44 24.1799 74.13 24.2399 74.14L25.1399 74.3C25.5199 74.39 25.7699 74.78 25.6799 75.17L25.6399 75.38C25.5599 75.77 25.1799 76.02 24.7999 75.93L23.4299 75.61L21.0499 77.29C20.7299 77.52 20.2899 77.43 20.0599 77.1L19.9399 76.92C19.7099 76.57 19.7899 76.12 20.1099 75.9Z" fill="#EDA600" style="fill:#EDA600;fill:color(display-p3 0.9294 0.6510 0.0000);fill-opacity:1;"/>
<path d="M20.1099 75.9L22.4399 73.52C22.6099 73.4 23.5399 73.38 23.7299 73.44C23.7899 73.44 24.1799 74.13 24.2399 74.14L25.1399 74.3C25.5199 74.39 25.7699 74.78 25.6799 75.17L25.6399 75.38C25.5599 75.77 25.1799 76.02 24.7999 75.93L23.4299 75.61L21.0499 77.29C20.7299 77.52 20.2899 77.43 20.0599 77.1L19.9399 76.92C19.7099 76.57 19.7899 76.12 20.1099 75.9Z" fill="url(#paint20_linear_201_3924)" style=""/>
<path d="M34.6598 16.83C18.3598 16.83 18.4898 31.94 18.4898 32.18C18.4898 41.97 19.2398 55.8 23.1398 61.24C24.6898 63.4 27.6798 63.52 27.6798 63.52L34.4298 63.5L41.1698 63.51C41.1698 63.51 44.1598 63.39 45.7098 61.23C49.6198 55.79 50.3598 41.96 50.3598 32.17C50.3698 31.94 50.9598 16.83 34.6598 16.83Z" fill="#543930" style="fill:#543930;fill:color(display-p3 0.3294 0.2235 0.1882);fill-opacity:1;"/>
<path d="M34.6598 16.83C18.3598 16.83 18.4898 31.94 18.4898 32.18C18.4898 41.97 19.2398 55.8 23.1398 61.24C24.6898 63.4 27.6798 63.52 27.6798 63.52L34.4298 63.5L41.1698 63.51C41.1698 63.51 44.1598 63.39 45.7098 61.23C49.6198 55.79 50.3598 41.96 50.3598 32.17C50.3698 31.94 50.9598 16.83 34.6598 16.83Z" fill="#AB872F" style="fill:#AB872F;fill:color(display-p3 0.6706 0.5294 0.1843);fill-opacity:1;"/>
<path d="M64.99 113.67C64.43 111.24 61.75 108.55 59.12 105.95C57.42 104.27 54.36 104.62 52.69 106.33C51.02 108.04 50.72 111.11 52.42 112.79C55.05 115.39 57.78 118.03 60.21 118.55C62.12 118.96 63.71 118.35 64.28 117.77C64.85 117.18 65.43 115.58 64.99 113.67Z" fill="#504F4F" style="fill:#504F4F;fill:color(display-p3 0.3137 0.3098 0.3098);fill-opacity:1;"/>
<path d="M35.4499 124.32H29.3899L26.1099 105.04C26.7599 106.74 28.4099 107.95 30.3499 107.95C32.8499 107.95 34.8799 105.93 34.8899 103.44L35.4499 124.32Z" fill="url(#paint21_linear_201_3924)" style=""/>
<path d="M35.4499 124.32H29.3899L26.1099 105.04C26.7599 106.74 28.4099 107.95 30.3499 107.95C32.8499 107.95 34.8799 105.93 34.8899 103.44L35.4499 124.32Z" fill="url(#paint22_linear_201_3924)" style=""/>
<path d="M59.7098 113.97C58.7098 114.53 57.4698 114.46 56.5398 113.78L44.3898 103.14C44.2798 103.04 44.1698 102.94 44.0698 102.83C44.9098 103.66 46.0598 104.18 47.3398 104.18C49.9098 104.18 51.9898 102.1 51.9898 99.53C51.9898 99.03 51.9098 98.54 51.7598 98.09C51.7698 98.1 51.7798 98.12 51.7898 98.13L60.3398 109.29C61.7298 110.67 61.4198 113.01 59.7098 113.97Z" fill="url(#paint23_linear_201_3924)" style=""/>
<path d="M59.7098 113.97C58.7098 114.53 57.4698 114.46 56.5398 113.78L44.3898 103.14C44.2798 103.04 44.1698 102.94 44.0698 102.83C44.9098 103.66 46.0598 104.18 47.3398 104.18C49.9098 104.18 51.9898 102.1 51.9898 99.53C51.9898 99.03 51.9098 98.54 51.7598 98.09C51.7698 98.1 51.7798 98.12 51.7898 98.13L60.3398 109.29C61.7298 110.67 61.4198 113.01 59.7098 113.97Z" fill="url(#paint24_linear_201_3924)" style=""/>
<path d="M51.9901 99.53C51.9901 102.1 49.9101 104.18 47.3401 104.18C46.0601 104.18 44.9101 103.66 44.0701 102.83C43.9401 102.7 43.8201 102.57 43.7101 102.43C43.5001 102.18 43.3101 101.9 43.1501 101.62L36.3201 88.97C36.2801 88.75 35.1101 88.6 34.9101 88.6C34.7101 88.6 34.5401 88.76 34.5001 88.97L34.8901 103.31V103.42C34.8901 103.43 34.8901 103.43 34.8901 103.44C34.8801 105.93 32.8501 107.95 30.3501 107.95C28.4101 107.95 26.7601 106.74 26.1101 105.04L25.8201 103.28L22.3901 83.12L33.7301 75.09L46.4301 83.11L51.1001 96.81L51.2001 97.1C51.3401 97.45 51.5201 97.79 51.7601 98.09C51.9101 98.54 51.9901 99.03 51.9901 99.53Z" fill="url(#paint25_linear_201_3924)" style=""/>
<path d="M51.9901 99.53C51.9901 102.1 49.9101 104.18 47.3401 104.18C46.0601 104.18 44.9101 103.66 44.0701 102.83C43.9401 102.7 43.8201 102.57 43.7101 102.43C43.5001 102.18 43.3101 101.9 43.1501 101.62L36.3201 88.97C36.2801 88.75 35.1101 88.6 34.9101 88.6C34.7101 88.6 34.5401 88.76 34.5001 88.97L34.8901 103.31V103.42C34.8901 103.43 34.8901 103.43 34.8901 103.44C34.8801 105.93 32.8501 107.95 30.3501 107.95C28.4101 107.95 26.7601 106.74 26.1101 105.04L25.8201 103.28L22.3901 83.12L33.7301 75.09L46.4301 83.11L51.1001 96.81L51.2001 97.1C51.3401 97.45 51.5201 97.79 51.7601 98.09C51.9101 98.54 51.9901 99.03 51.9901 99.53Z" fill="url(#paint26_linear_201_3924)" style=""/>
<path d="M49.04 75.64L46.4 73.42C46.23 73.3 45.68 73.66 45.49 73.71C45.43 73.71 44.97 73.86 44.91 73.87L44.01 74.03C43.63 74.12 43.38 74.51 43.47 74.9L43.51 75.11C43.59 75.5 43.97 75.75 44.35 75.66L45.72 75.34L48.1 77.02C48.42 77.25 48.86 77.16 49.09 76.83L49.21 76.65C49.44 76.32 49.36 75.87 49.04 75.64Z" fill="#EDA600" style="fill:#EDA600;fill:color(display-p3 0.9294 0.6510 0.0000);fill-opacity:1;"/>
<path d="M49.04 75.64L46.4 73.42C46.23 73.3 45.68 73.66 45.49 73.71C45.43 73.71 44.97 73.86 44.91 73.87L44.01 74.03C43.63 74.12 43.38 74.51 43.47 74.9L43.51 75.11C43.59 75.5 43.97 75.75 44.35 75.66L45.72 75.34L48.1 77.02C48.42 77.25 48.86 77.16 49.09 76.83L49.21 76.65C49.44 76.32 49.36 75.87 49.04 75.64Z" fill="url(#paint27_linear_201_3924)" style=""/>
<path d="M52.9199 60.8401C52.9199 60.8401 50.8499 53.4301 33.8799 53.4301C16.9099 53.4301 15.9199 60.8401 15.9199 60.8401L22.2699 65.6701H45.5199L52.9199 60.8401Z" fill="#444444" style="fill:#444444;fill:color(display-p3 0.2667 0.2667 0.2667);fill-opacity:1;"/>
<path d="M53.8901 60.8401C53.8901 60.8401 50.8201 53.4301 33.8501 53.4301C16.8801 53.4301 14.8901 60.8401 14.8901 60.8401L22.3101 67.7301V83.1501L32.0501 89.5801C32.8201 89.9701 33.6701 90.1701 34.5301 90.1701C35.4201 90.1701 36.3001 89.9501 37.0901 89.5401L46.4001 83.1501V67.7301L53.8901 60.8401Z" fill="url(#paint28_linear_201_3924)" style=""/>
<path d="M59.8601 69.51L52.4701 59.74L46.2901 64.1L53.7101 71.05L48.5201 75.36C47.9801 75.34 47.0501 75.2 45.8601 75.2H45.4701L45.4501 75.19C45.4501 75.19 43.7801 75.31 43.3401 75.65C42.9401 75.96 42.9801 76.5 43.1601 76.7C43.3701 76.94 43.3201 77.36 43.1101 77.59C42.9001 77.83 42.7701 78.12 42.7901 78.42C42.8101 78.71 42.9401 78.88 43.2301 79.1C43.3701 79.2 43.4401 79.48 43.3701 79.63C43.2501 79.87 43.0601 80.28 43.1001 80.5C43.1901 80.93 43.6301 81.02 43.7301 81.35C43.7701 81.48 43.3601 81.92 43.7801 82.29C44.1701 82.64 44.8401 82.92 45.8601 82.92C46.7701 82.92 47.9601 82.7 49.4701 82.1C49.5101 82.08 59.8601 73.66 59.8601 73.66C60.9101 72.55 60.8601 70.67 59.8601 69.51Z" fill="url(#paint29_linear_201_3924)" style=""/>
<path d="M59.8601 69.51L52.4701 59.74L46.2901 64.1L53.7101 71.05L48.5201 75.36C47.9801 75.34 47.0501 75.2 45.8601 75.2H45.4701L45.4501 75.19C45.4501 75.19 43.7801 75.31 43.3401 75.65C42.9401 75.96 42.9801 76.5 43.1601 76.7C43.3701 76.94 43.3201 77.36 43.1101 77.59C42.9001 77.83 42.7701 78.12 42.7901 78.42C42.8101 78.71 42.9401 78.88 43.2301 79.1C43.3701 79.2 43.4401 79.48 43.3701 79.63C43.2501 79.87 43.0601 80.28 43.1001 80.5C43.1901 80.93 43.6301 81.02 43.7301 81.35C43.7701 81.48 43.3601 81.92 43.7801 82.29C44.1701 82.64 44.8401 82.92 45.8601 82.92C46.7701 82.92 47.9601 82.7 49.4701 82.1C49.5101 82.08 59.8601 73.66 59.8601 73.66C60.9101 72.55 60.8601 70.67 59.8601 69.51Z" fill="url(#paint30_linear_201_3924)" style=""/>
<path d="M26.3701 78.44C26.3901 78.14 26.2601 77.85 26.0501 77.61C25.8401 77.37 25.7901 76.95 26.0001 76.72C26.1801 76.52 26.2101 75.97 25.8201 75.67C25.3801 75.33 23.7101 75.21 23.7101 75.21L23.6901 75.22H23.3001C22.1101 75.22 21.1801 75.35 20.6401 75.38L15.4501 71.07L22.8701 64.12L16.6801 59.74L9.30011 69.53C8.30011 70.68 8.25011 72.57 9.30011 73.68C9.30011 73.68 19.6501 82.1 19.6901 82.12C21.2001 82.71 22.3901 82.94 23.3001 82.94C24.3101 82.94 24.9901 82.66 25.3801 82.31C25.8001 81.93 25.3901 81.5 25.4301 81.37C25.5301 81.04 25.9601 80.95 26.0601 80.52C26.1101 80.31 25.9101 79.89 25.7901 79.65C25.7101 79.5 25.7901 79.22 25.9301 79.12C26.2201 78.9 26.3501 78.73 26.3701 78.44Z" fill="url(#paint31_linear_201_3924)" style=""/>
<path d="M26.3701 78.44C26.3901 78.14 26.2601 77.85 26.0501 77.61C25.8401 77.37 25.7901 76.95 26.0001 76.72C26.1801 76.52 26.2101 75.97 25.8201 75.67C25.3801 75.33 23.7101 75.21 23.7101 75.21L23.6901 75.22H23.3001C22.1101 75.22 21.1801 75.35 20.6401 75.38L15.4501 71.07L22.8701 64.12L16.6801 59.74L9.30011 69.53C8.30011 70.68 8.25011 72.57 9.30011 73.68C9.30011 73.68 19.6501 82.1 19.6901 82.12C21.2001 82.71 22.3901 82.94 23.3001 82.94C24.3101 82.94 24.9901 82.66 25.3801 82.31C25.8001 81.93 25.3901 81.5 25.4301 81.37C25.5301 81.04 25.9601 80.95 26.0601 80.52C26.1101 80.31 25.9101 79.89 25.7901 79.65C25.7101 79.5 25.7901 79.22 25.9301 79.12C26.2201 78.9 26.3501 78.73 26.3701 78.44Z" fill="url(#paint32_linear_201_3924)" style=""/>
<path d="M53.9199 60.8401C53.9199 60.8401 50.8499 53.4301 33.8799 53.4301C16.9099 53.4301 14.9199 60.8401 14.9199 60.8401L22.2699 67.6701H46.5199L53.9199 60.8401Z" fill="url(#paint33_linear_201_3924)" style=""/>
<path d="M44.9102 54.8501C44.8202 57.8501 41.0902 62.0701 34.4102 62.0701C27.6502 62.0701 23.9102 57.7401 23.9102 54.7401C23.9102 54.6901 23.9102 54.6401 23.9202 54.5901C26.4002 53.8901 29.6402 53.4301 33.8802 53.4301C38.6302 53.4301 42.2202 54.0101 44.9102 54.8501Z" fill="url(#paint34_linear_201_3924)" style=""/>
<path d="M44.9102 54.8501C44.8202 57.8501 41.0902 62.0701 34.4102 62.0701C27.6502 62.0701 23.9102 57.7401 23.9102 54.7401C23.9102 54.6901 23.9102 54.6401 23.9202 54.5901C26.4002 53.8901 29.6402 53.4301 33.8802 53.4301C38.6302 53.4301 42.2202 54.0101 44.9102 54.8501Z" fill="#E0BB95" style="fill:#E0BB95;fill:color(display-p3 0.8784 0.7333 0.5843);fill-opacity:1;"/>
<path d="M34.0002 57.8C32.0302 57.8 30.4302 56.28 30.4302 54.4V50.14H38.3902V54.4C38.3902 56.27 36.7902 57.8 34.8202 57.8H34.0002Z" fill="#E59600" style="fill:#E59600;fill:color(display-p3 0.8980 0.5882 0.0000);fill-opacity:1;"/>
<path d="M34.0002 57.8C32.0302 57.8 30.4302 56.28 30.4302 54.4V50.14H38.3902V54.4C38.3902 56.27 36.7902 57.8 34.8202 57.8H34.0002Z" fill="#C48E6A" style="fill:#C48E6A;fill:color(display-p3 0.7686 0.5569 0.4157);fill-opacity:1;"/>
<path d="M34.4503 20.7699C27.6103 20.7699 21.2803 25.8699 21.2803 36.6799C21.2803 45.3599 26.6403 50.4999 31.3103 52.1599C32.4203 52.5499 33.5003 52.7499 34.4503 52.7499C35.4003 52.7499 36.4603 52.5499 37.5703 52.1599C42.2403 50.5099 47.6203 45.3699 47.6203 36.6799C47.6203 25.8699 41.2903 20.7699 34.4503 20.7699Z" fill="#FFCA28" style="fill:#FFCA28;fill:color(display-p3 1.0000 0.7922 0.1569);fill-opacity:1;"/>
<path d="M34.4503 20.7699C27.6103 20.7699 21.2803 25.8699 21.2803 36.6799C21.2803 45.3599 26.6403 50.4999 31.3103 52.1599C32.4203 52.5499 33.5003 52.7499 34.4503 52.7499C35.4003 52.7499 36.4603 52.5499 37.5703 52.1599C42.2403 50.5099 47.6203 45.3699 47.6203 36.6799C47.6203 25.8699 41.2903 20.7699 34.4503 20.7699Z" fill="#E0BB95" style="fill:#E0BB95;fill:color(display-p3 0.8784 0.7333 0.5843);fill-opacity:1;"/>
<path d="M28.0604 40.53C29.1263 40.53 29.9904 39.6301 29.9904 38.52C29.9904 37.4099 29.1263 36.51 28.0604 36.51C26.9945 36.51 26.1304 37.4099 26.1304 38.52C26.1304 39.6301 26.9945 40.53 28.0604 40.53Z" fill="#404040" style="fill:#404040;fill:color(display-p3 0.2510 0.2510 0.2510);fill-opacity:1;"/>
<path d="M40.9705 40.53C42.0364 40.53 42.9005 39.6301 42.9005 38.52C42.9005 37.4099 42.0364 36.51 40.9705 36.51C39.9046 36.51 39.0405 37.4099 39.0405 38.52C39.0405 39.6301 39.9046 40.53 40.9705 40.53Z" fill="#404040" style="fill:#404040;fill:color(display-p3 0.2510 0.2510 0.2510);fill-opacity:1;"/>
<path d="M35.9303 42.17C35.8903 42.15 35.8503 42.14 35.8003 42.14H33.0203C32.9803 42.15 32.9403 42.16 32.8903 42.17C32.6403 42.27 32.5003 42.53 32.6203 42.81C32.7403 43.09 33.2903 43.87 34.4103 43.87C35.5203 43.87 36.0803 43.09 36.2003 42.81C36.3203 42.54 36.1803 42.28 35.9303 42.17Z" fill="#E59600" style="fill:#E59600;fill:color(display-p3 0.8980 0.5882 0.0000);fill-opacity:1;"/>
<path d="M35.9303 42.17C35.8903 42.15 35.8503 42.14 35.8003 42.14H33.0203C32.9803 42.15 32.9403 42.16 32.8903 42.17C32.6403 42.27 32.5003 42.53 32.6203 42.81C32.7403 43.09 33.2903 43.87 34.4103 43.87C35.5203 43.87 36.0803 43.09 36.2003 42.81C36.3203 42.54 36.1803 42.28 35.9303 42.17Z" fill="#C48E6A" style="fill:#C48E6A;fill:color(display-p3 0.7686 0.5569 0.4157);fill-opacity:1;"/>
<path d="M30.9301 34.91C30.5601 34.42 29.7101 33.71 28.0601 33.71C26.4101 33.71 25.5501 34.42 25.1901 34.91C25.0301 35.13 25.0701 35.38 25.1801 35.53C25.2801 35.67 25.5901 35.8 25.9401 35.68C26.2801 35.56 26.9501 35.22 28.0701 35.21C29.1901 35.22 29.8601 35.56 30.2001 35.68C30.5401 35.8 30.8501 35.67 30.9601 35.53C31.0601 35.37 31.1001 35.12 30.9301 34.91Z" fill="#6D4C41" style="fill:#6D4C41;fill:color(display-p3 0.4275 0.2980 0.2549);fill-opacity:1;"/>
<path d="M30.9301 34.91C30.5601 34.42 29.7101 33.71 28.0601 33.71C26.4101 33.71 25.5501 34.42 25.1901 34.91C25.0301 35.13 25.0701 35.38 25.1801 35.53C25.2801 35.67 25.5901 35.8 25.9401 35.68C26.2801 35.56 26.9501 35.22 28.0701 35.21C29.1901 35.22 29.8601 35.56 30.2001 35.68C30.5401 35.8 30.8501 35.67 30.9601 35.53C31.0601 35.37 31.1001 35.12 30.9301 34.91Z" fill="#AB872F" style="fill:#AB872F;fill:color(display-p3 0.6706 0.5294 0.1843);fill-opacity:1;"/>
<path d="M43.85 34.91C43.48 34.42 42.63 33.71 40.98 33.71C39.33 33.71 38.47 34.42 38.11 34.91C37.95 35.13 37.99 35.38 38.1 35.53C38.2 35.67 38.51 35.8 38.86 35.68C39.2 35.56 39.87 35.22 40.99 35.21C42.11 35.22 42.78 35.56 43.12 35.68C43.46 35.8 43.77 35.67 43.88 35.53C43.97 35.37 44.01 35.12 43.85 34.91Z" fill="#6D4C41" style="fill:#6D4C41;fill:color(display-p3 0.4275 0.2980 0.2549);fill-opacity:1;"/>
<path d="M43.85 34.91C43.48 34.42 42.63 33.71 40.98 33.71C39.33 33.71 38.47 34.42 38.11 34.91C37.95 35.13 37.99 35.38 38.1 35.53C38.2 35.67 38.51 35.8 38.86 35.68C39.2 35.56 39.87 35.22 40.99 35.21C42.11 35.22 42.78 35.56 43.12 35.68C43.46 35.8 43.77 35.67 43.88 35.53C43.97 35.37 44.01 35.12 43.85 34.91Z" fill="#AB872F" style="fill:#AB872F;fill:color(display-p3 0.6706 0.5294 0.1843);fill-opacity:1;"/>
<path d="M34.6202 16.83C18.2802 16.83 18.4102 31.94 18.4102 32.18C18.4102 39.48 18.8302 49.03 20.6702 55.67C21.2702 55.4 21.9302 55.15 22.6502 54.92C22.9102 54.83 23.1802 54.75 23.4602 54.67C23.3102 52.63 22.6702 43.85 22.5902 39.43C22.5702 38.26 22.2202 33.91 24.6402 33.36C33.5302 31.34 38.5502 26.57 38.5502 26.57C39.8602 29.46 43.9502 32.28 45.4102 33.35C46.6202 34.23 46.4502 37.84 46.4202 39.39L45.2302 54.88C45.3902 54.93 45.5502 54.98 45.7102 55.03C46.5702 55.31 47.3402 55.62 48.0402 55.93C49.9502 49.28 50.3702 39.58 50.3702 32.18C50.3702 31.94 50.9602 16.83 34.6202 16.83Z" fill="#543930" style="fill:#543930;fill:color(display-p3 0.3294 0.2235 0.1882);fill-opacity:1;"/>
<path d="M34.6202 16.83C18.2802 16.83 18.4102 31.94 18.4102 32.18C18.4102 39.48 18.8302 49.03 20.6702 55.67C21.2702 55.4 21.9302 55.15 22.6502 54.92C22.9102 54.83 23.1802 54.75 23.4602 54.67C23.3102 52.63 22.6702 43.85 22.5902 39.43C22.5702 38.26 22.2202 33.91 24.6402 33.36C33.5302 31.34 38.5502 26.57 38.5502 26.57C39.8602 29.46 43.9502 32.28 45.4102 33.35C46.6202 34.23 46.4502 37.84 46.4202 39.39L45.2302 54.88C45.3902 54.93 45.5502 54.98 45.7102 55.03C46.5702 55.31 47.3402 55.62 48.0402 55.93C49.9502 49.28 50.3702 39.58 50.3702 32.18C50.3702 31.94 50.9602 16.83 34.6202 16.83Z" fill="#AB872F" style="fill:#AB872F;fill:color(display-p3 0.6706 0.5294 0.1843);fill-opacity:1;"/>
<path d="M37.72 45.5799C36.47 46.3299 32.37 46.3299 31.12 45.5799C30.4 45.1499 29.67 45.8099 29.97 46.4599C30.26 47.0999 32.5 48.5999 34.43 48.5999C36.36 48.5999 38.57 47.1099 38.87 46.4599C39.17 45.7999 38.44 45.1499 37.72 45.5799Z" fill="#795548" style="fill:#795548;fill:color(display-p3 0.4745 0.3333 0.2824);fill-opacity:1;"/>
<path d="M50.38 32.1601C50.38 39.5701 49.95 49.2801 48.04 55.9301C45.01 54.5401 40.5 53.4101 33.86 53.4101C27.69 53.4101 23.5 54.3901 20.67 55.6301C18.84 48.9901 18.42 39.4601 18.42 32.1601C18.42 31.9201 18.29 16.8101 34.63 16.8101C50.97 16.8101 50.38 31.9201 50.38 32.1601Z" fill="url(#paint35_radial_201_3924)" style=""/>
<path d="M50.38 32.1601C50.38 39.5701 49.95 49.2801 48.04 55.9301C45.01 54.5401 40.5 53.4101 33.86 53.4101C27.69 53.4101 23.5 54.3901 20.67 55.6301C18.84 48.9901 18.42 39.4601 18.42 32.1601C18.42 31.9201 18.29 16.8101 34.63 16.8101C50.97 16.8101 50.38 31.9201 50.38 32.1601Z" fill="url(#paint36_radial_201_3924)" style=""/>
<path d="M32.1399 124.5H27.7599C26.9499 124.48 26.3699 123.55 26.6099 122.75C27.3399 120.29 29.5599 118.48 32.1399 118.48C34.7799 118.48 37.0299 120.36 37.7099 122.89C37.9299 123.7 37.3299 124.5 36.5199 124.5H32.1399Z" fill="#504F4F" style="fill:#504F4F;fill:color(display-p3 0.3137 0.3098 0.3098);fill-opacity:1;"/>
<path d="M34.6202 16.83C18.2802 16.83 18.4102 31.94 18.4102 32.18C18.4102 35.27 18.4902 38.76 18.7102 42.27L21.3902 42.26C21.3702 41.1 22.1802 33.91 24.6102 33.36C33.5202 31.36 38.5602 26.63 38.5602 26.63C39.8702 29.49 43.9702 32.29 45.4402 33.35C46.6502 34.22 47.0202 40.74 47.0002 42.27H50.0702C50.0702 42.25 50.0802 42.23 50.0802 42.21C50.3002 38.72 50.3802 35.25 50.3802 32.18C50.3702 31.94 50.9602 16.83 34.6202 16.83Z" fill="#AB872F" style="fill:#AB872F;fill:color(display-p3 0.6706 0.5294 0.1843);fill-opacity:1;"/>
<path d="M34.6202 16.83C18.2802 16.83 18.4102 31.94 18.4102 32.18C18.4102 35.27 18.4902 38.76 18.7102 42.27L21.3902 42.26C21.3702 41.1 22.1802 33.91 24.6102 33.36C33.5202 31.36 38.5602 26.63 38.5602 26.63C39.8702 29.49 43.9702 32.29 45.4402 33.35C46.6502 34.22 47.0202 40.74 47.0002 42.27H50.0702C50.0702 42.25 50.0802 42.23 50.0802 42.21C50.3002 38.72 50.3802 35.25 50.3802 32.18C50.3702 31.94 50.9602 16.83 34.6202 16.83Z" fill="url(#paint37_radial_201_3924)" style=""/>
<path d="M49.99 5.83995C49.82 4.83995 48.79 4.24995 47.85 4.59995C45.63 5.41995 41.87 7.22995 39.97 10.53C38.54 13.01 37.94 16.6899 37.7 19.7099C37.61 20.8099 36.66 21.6299 35.56 21.5499C35.19 21.5199 33.62 21.5199 33.25 21.5499C32.15 21.6299 31.19 20.82 31.11 19.7099C30.87 16.6899 30.27 13.01 28.84 10.53C26.94 7.21995 23.16 5.41995 20.95 4.59995C20.01 4.24995 19 4.83995 18.83 5.82995C18.43 8.15995 18.1 12.3499 20.01 15.65C21.44 18.1399 24.31 20.4899 26.8 22.2099C27.36 22.5999 27.36 23.41 26.82 23.83C25.81 24.6 25.05 25.5 24.46 26.4C23.88 27.2999 24.91 28.3899 25.81 27.8099C27.59 26.66 30.3 25.7199 34.4 25.7199C38.5 25.7199 41.21 26.66 42.99 27.8099C43.89 28.3899 44.93 27.2999 44.34 26.4C43.75 25.49 42.99 24.6 41.99 23.82C41.45 23.4 41.45 22.59 42.01 22.2C44.49 20.48 47.36 18.13 48.8 15.64C50.71 12.35 50.39 8.17995 49.99 5.83995Z" fill="url(#paint38_linear_201_3924)" style=""/>
<path d="M42.31 12.27C41.27 14.07 41.06 17.13 41.01 18.45C41 18.74 41.3 18.92 41.55 18.76C42.67 18.06 45.2 16.35 46.24 14.54C47.15 12.96 47.07 11 46.92 9.90999C46.86 9.43999 46.4 9.17999 45.97 9.35999C44.95 9.77999 43.22 10.69 42.31 12.27Z" fill="#FF4081" style="fill:#FF4081;fill:color(display-p3 1.0000 0.2510 0.5059);fill-opacity:1;"/>
<path d="M26.4998 12.27C27.5398 14.07 27.7598 17.13 27.7998 18.46C27.8098 18.75 27.5098 18.93 27.2698 18.77C26.1498 18.07 23.6198 16.36 22.5798 14.55C21.6698 12.97 21.7498 11.01 21.8898 9.92C21.9498 9.45 22.4098 9.18999 22.8398 9.36999C23.8498 9.77999 25.5898 10.69 26.4998 12.27Z" fill="#FF4081" style="fill:#FF4081;fill:color(display-p3 1.0000 0.2510 0.5059);fill-opacity:1;"/>
<path d="M75.96 75.9L78.29 73.52C78.46 73.4 79.39 73.38 79.58 73.44C79.64 73.44 80.03 74.13 80.09 74.14L80.99 74.3C81.37 74.39 81.62 74.78 81.53 75.17L81.49 75.38C81.41 75.77 81.03 76.02 80.65 75.93L79.28 75.61L76.9 77.29C76.58 77.52 76.14 77.43 75.91 77.1L75.79 76.92C75.56 76.57 75.64 76.12 75.96 75.9Z" fill="#EDA600" style="fill:#EDA600;fill:color(display-p3 0.9294 0.6510 0.0000);fill-opacity:1;"/>
<path d="M75.96 75.9L78.29 73.52C78.46 73.4 79.39 73.38 79.58 73.44C79.64 73.44 80.03 74.13 80.09 74.14L80.99 74.3C81.37 74.39 81.62 74.78 81.53 75.17L81.49 75.38C81.41 75.77 81.03 76.02 80.65 75.93L79.28 75.61L76.9 77.29C76.58 77.52 76.14 77.43 75.91 77.1L75.79 76.92C75.56 76.57 75.64 76.12 75.96 75.9Z" fill="url(#paint39_linear_201_3924)" style=""/>
<path d="M75.96 75.9L78.29 73.52C78.46 73.4 79.39 73.38 79.58 73.44C79.64 73.44 80.03 74.13 80.09 74.14L80.99 74.3C81.37 74.39 81.62 74.78 81.53 75.17L81.49 75.38C81.41 75.77 81.03 76.02 80.65 75.93L79.28 75.61L76.9 77.29C76.58 77.52 76.14 77.43 75.91 77.1L75.79 76.92C75.56 76.57 75.64 76.12 75.96 75.9Z" fill="url(#paint40_linear_201_3924)" style=""/>
<path d="M90.5099 16.8301C74.2099 16.8301 74.3399 31.9401 74.3399 32.1801C74.3399 41.9701 75.0899 55.8001 78.9899 61.2401C80.5399 63.4001 83.5299 63.5201 83.5299 63.5201L90.2799 63.5001L97.0199 63.5101C97.0199 63.5101 100.01 63.3901 101.56 61.2301C105.47 55.7901 106.21 41.9601 106.21 32.1701C106.22 31.9401 106.81 16.8301 90.5099 16.8301Z" fill="#543930" style="fill:#543930;fill:color(display-p3 0.3294 0.2235 0.1882);fill-opacity:1;"/>
<path d="M120.84 113.67C120.28 111.24 117.6 108.55 114.97 105.95C113.27 104.27 110.21 104.62 108.54 106.33C106.87 108.04 106.57 111.11 108.27 112.79C110.9 115.39 113.63 118.03 116.06 118.55C117.97 118.96 119.56 118.35 120.13 117.77C120.7 117.18 121.28 115.58 120.84 113.67Z" fill="#504F4F" style="fill:#504F4F;fill:color(display-p3 0.3137 0.3098 0.3098);fill-opacity:1;"/>
<path d="M91.3 124.32H85.24L81.96 105.04C82.61 106.74 84.26 107.95 86.2 107.95C88.7 107.95 90.73 105.93 90.74 103.44L91.3 124.32Z" fill="url(#paint41_linear_201_3924)" style=""/>
<path d="M91.3 124.32H85.24L81.96 105.04C82.61 106.74 84.26 107.95 86.2 107.95C88.7 107.95 90.73 105.93 90.74 103.44L91.3 124.32Z" fill="url(#paint42_linear_201_3924)" style=""/>
<path d="M115.56 113.97C114.56 114.53 113.32 114.46 112.39 113.78L100.24 103.14C100.13 103.04 100.02 102.94 99.9199 102.83C100.76 103.66 101.91 104.18 103.19 104.18C105.76 104.18 107.84 102.1 107.84 99.5298C107.84 99.0298 107.76 98.5398 107.61 98.0898C107.62 98.0998 107.63 98.1198 107.64 98.1298L116.19 109.29C117.58 110.67 117.27 113.01 115.56 113.97Z" fill="url(#paint43_linear_201_3924)" style=""/>
<path d="M115.56 113.97C114.56 114.53 113.32 114.46 112.39 113.78L100.24 103.14C100.13 103.04 100.02 102.94 99.9199 102.83C100.76 103.66 101.91 104.18 103.19 104.18C105.76 104.18 107.84 102.1 107.84 99.5298C107.84 99.0298 107.76 98.5398 107.61 98.0898C107.62 98.0998 107.63 98.1198 107.64 98.1298L116.19 109.29C117.58 110.67 117.27 113.01 115.56 113.97Z" fill="url(#paint44_linear_201_3924)" style=""/>
<path d="M107.84 99.5298C107.84 102.1 105.76 104.18 103.19 104.18C101.91 104.18 100.76 103.66 99.9202 102.83C99.7902 102.7 99.6702 102.57 99.5602 102.43C99.3502 102.18 99.1602 101.9 99.0002 101.62L92.1702 88.9698C92.1302 88.7498 90.9602 88.5998 90.7602 88.5998C90.5602 88.5998 90.3902 88.7598 90.3502 88.9698L90.7402 103.31V103.42C90.7402 103.43 90.7402 103.43 90.7402 103.44C90.7302 105.93 88.7002 107.95 86.2002 107.95C84.2602 107.95 82.6102 106.74 81.9602 105.04L81.6702 103.28L78.2402 83.1199L89.5802 75.0898L102.28 83.1098L106.95 96.8098L107.05 97.0998C107.19 97.4498 107.37 97.7898 107.61 98.0898C107.76 98.5398 107.84 99.0298 107.84 99.5298Z" fill="url(#paint45_linear_201_3924)" style=""/>
<path d="M107.84 99.5298C107.84 102.1 105.76 104.18 103.19 104.18C101.91 104.18 100.76 103.66 99.9202 102.83C99.7902 102.7 99.6702 102.57 99.5602 102.43C99.3502 102.18 99.1602 101.9 99.0002 101.62L92.1702 88.9698C92.1302 88.7498 90.9602 88.5998 90.7602 88.5998C90.5602 88.5998 90.3902 88.7598 90.3502 88.9698L90.7402 103.31V103.42C90.7402 103.43 90.7402 103.43 90.7402 103.44C90.7302 105.93 88.7002 107.95 86.2002 107.95C84.2602 107.95 82.6102 106.74 81.9602 105.04L81.6702 103.28L78.2402 83.1199L89.5802 75.0898L102.28 83.1098L106.95 96.8098L107.05 97.0998C107.19 97.4498 107.37 97.7898 107.61 98.0898C107.76 98.5398 107.84 99.0298 107.84 99.5298Z" fill="url(#paint46_linear_201_3924)" style=""/>
<path d="M104.89 75.6399L102.25 73.4199C102.08 73.2999 101.53 73.6599 101.34 73.7099C101.28 73.7099 100.82 73.8599 100.76 73.8699L99.8601 74.0299C99.4801 74.1199 99.2301 74.5099 99.3201 74.8999L99.3601 75.1099C99.4401 75.4999 99.8201 75.7499 100.2 75.6599L101.57 75.3399L103.95 77.0199C104.27 77.2499 104.71 77.1599 104.94 76.8299L105.06 76.6499C105.29 76.3199 105.21 75.8699 104.89 75.6399Z" fill="#EDA600" style="fill:#EDA600;fill:color(display-p3 0.9294 0.6510 0.0000);fill-opacity:1;"/>
<path d="M104.89 75.6399L102.25 73.4199C102.08 73.2999 101.53 73.6599 101.34 73.7099C101.28 73.7099 100.82 73.8599 100.76 73.8699L99.8601 74.0299C99.4801 74.1199 99.2301 74.5099 99.3201 74.8999L99.3601 75.1099C99.4401 75.4999 99.8201 75.7499 100.2 75.6599L101.57 75.3399L103.95 77.0199C104.27 77.2499 104.71 77.1599 104.94 76.8299L105.06 76.6499C105.29 76.3199 105.21 75.8699 104.89 75.6399Z" fill="url(#paint47_linear_201_3924)" style=""/>
<path d="M104.89 75.6399L102.25 73.4199C102.08 73.2999 101.53 73.6599 101.34 73.7099C101.28 73.7099 100.82 73.8599 100.76 73.8699L99.8601 74.0299C99.4801 74.1199 99.2301 74.5099 99.3201 74.8999L99.3601 75.1099C99.4401 75.4999 99.8201 75.7499 100.2 75.6599L101.57 75.3399L103.95 77.0199C104.27 77.2499 104.71 77.1599 104.94 76.8299L105.06 76.6499C105.29 76.3199 105.21 75.8699 104.89 75.6399Z" fill="url(#paint48_linear_201_3924)" style=""/>
<path d="M108.77 60.8397C108.77 60.8397 106.7 53.4297 89.73 53.4297C72.76 53.4297 71.77 60.8397 71.77 60.8397L78.12 65.6697H101.37L108.77 60.8397Z" fill="#444444" style="fill:#444444;fill:color(display-p3 0.2667 0.2667 0.2667);fill-opacity:1;"/>
<path d="M109.74 60.8397C109.74 60.8397 106.67 53.4297 89.7002 53.4297C72.7302 53.4297 70.7402 60.8397 70.7402 60.8397L78.1602 67.7297V83.1497L87.9002 89.5797C88.6702 89.9697 89.5202 90.1697 90.3802 90.1697C91.2702 90.1697 92.1502 89.9497 92.9402 89.5397L102.25 83.1497V67.7297L109.74 60.8397Z" fill="url(#paint49_linear_201_3924)" style=""/>
<path d="M115.71 69.5102L108.32 59.7402L102.14 64.1002L109.56 71.0502L104.37 75.3602C103.83 75.3402 102.9 75.2002 101.71 75.2002H101.32L101.3 75.1902C101.3 75.1902 99.6297 75.3102 99.1897 75.6502C98.7897 75.9602 98.8297 76.5002 99.0097 76.7002C99.2197 76.9402 99.1697 77.3602 98.9597 77.5902C98.7497 77.8302 98.6197 78.1202 98.6397 78.4202C98.6597 78.7102 98.7897 78.8802 99.0797 79.1002C99.2197 79.2002 99.2897 79.4802 99.2197 79.6302C99.0997 79.8702 98.9097 80.2802 98.9497 80.5002C99.0397 80.9302 99.4797 81.0202 99.5797 81.3502C99.6197 81.4802 99.2097 81.9202 99.6297 82.2902C100.02 82.6402 100.69 82.9202 101.71 82.9202C102.62 82.9202 103.81 82.7002 105.32 82.1002C105.36 82.0802 115.71 73.6602 115.71 73.6602C116.76 72.5502 116.71 70.6702 115.71 69.5102Z" fill="url(#paint50_linear_201_3924)" style=""/>
<path d="M115.71 69.5102L108.32 59.7402L102.14 64.1002L109.56 71.0502L104.37 75.3602C103.83 75.3402 102.9 75.2002 101.71 75.2002H101.32L101.3 75.1902C101.3 75.1902 99.6297 75.3102 99.1897 75.6502C98.7897 75.9602 98.8297 76.5002 99.0097 76.7002C99.2197 76.9402 99.1697 77.3602 98.9597 77.5902C98.7497 77.8302 98.6197 78.1202 98.6397 78.4202C98.6597 78.7102 98.7897 78.8802 99.0797 79.1002C99.2197 79.2002 99.2897 79.4802 99.2197 79.6302C99.0997 79.8702 98.9097 80.2802 98.9497 80.5002C99.0397 80.9302 99.4797 81.0202 99.5797 81.3502C99.6197 81.4802 99.2097 81.9202 99.6297 82.2902C100.02 82.6402 100.69 82.9202 101.71 82.9202C102.62 82.9202 103.81 82.7002 105.32 82.1002C105.36 82.0802 115.71 73.6602 115.71 73.6602C116.76 72.5502 116.71 70.6702 115.71 69.5102Z" fill="url(#paint51_linear_201_3924)" style=""/>
<path d="M82.2197 78.4402C82.2397 78.1402 82.1097 77.8502 81.8997 77.6102C81.6897 77.3702 81.6397 76.9502 81.8497 76.7202C82.0297 76.5202 82.0597 75.9702 81.6697 75.6702C81.2297 75.3302 79.5597 75.2102 79.5597 75.2102L79.5397 75.2202H79.1497C77.9597 75.2202 77.0297 75.3502 76.4897 75.3802L71.2997 71.0702L78.7197 64.1202L72.5297 59.7402L65.1497 69.5302C64.1497 70.6802 64.0997 72.5702 65.1497 73.6802C65.1497 73.6802 75.4997 82.1002 75.5397 82.1202C77.0497 82.7102 78.2397 82.9402 79.1497 82.9402C80.1597 82.9402 80.8397 82.6602 81.2297 82.3102C81.6497 81.9302 81.2397 81.5002 81.2797 81.3702C81.3797 81.0402 81.8097 80.9502 81.9097 80.5202C81.9597 80.3102 81.7597 79.8902 81.6397 79.6502C81.5597 79.5002 81.6397 79.2202 81.7797 79.1202C82.0697 78.9002 82.1997 78.7302 82.2197 78.4402Z" fill="url(#paint52_linear_201_3924)" style=""/>
<path d="M82.2197 78.4402C82.2397 78.1402 82.1097 77.8502 81.8997 77.6102C81.6897 77.3702 81.6397 76.9502 81.8497 76.7202C82.0297 76.5202 82.0597 75.9702 81.6697 75.6702C81.2297 75.3302 79.5597 75.2102 79.5597 75.2102L79.5397 75.2202H79.1497C77.9597 75.2202 77.0297 75.3502 76.4897 75.3802L71.2997 71.0702L78.7197 64.1202L72.5297 59.7402L65.1497 69.5302C64.1497 70.6802 64.0997 72.5702 65.1497 73.6802C65.1497 73.6802 75.4997 82.1002 75.5397 82.1202C77.0497 82.7102 78.2397 82.9402 79.1497 82.9402C80.1597 82.9402 80.8397 82.6602 81.2297 82.3102C81.6497 81.9302 81.2397 81.5002 81.2797 81.3702C81.3797 81.0402 81.8097 80.9502 81.9097 80.5202C81.9597 80.3102 81.7597 79.8902 81.6397 79.6502C81.5597 79.5002 81.6397 79.2202 81.7797 79.1202C82.0697 78.9002 82.1997 78.7302 82.2197 78.4402Z" fill="url(#paint53_linear_201_3924)" style=""/>
<path d="M109.77 60.8397C109.77 60.8397 106.7 53.4297 89.73 53.4297C72.76 53.4297 70.77 60.8397 70.77 60.8397L78.12 67.6697H102.37L109.77 60.8397Z" fill="url(#paint54_linear_201_3924)" style=""/>
<path d="M100.76 54.8497C100.67 57.8497 96.9398 62.0697 90.2598 62.0697C83.4998 62.0697 79.7598 57.7397 79.7598 54.7397C79.7598 54.6897 79.7598 54.6397 79.7698 54.5897C82.2498 53.8897 85.4898 53.4297 89.7298 53.4297C94.4798 53.4297 98.0698 54.0097 100.76 54.8497Z" fill="url(#paint55_linear_201_3924)" style=""/>
<path d="M100.76 54.8497C100.67 57.8497 96.9398 62.0697 90.2598 62.0697C83.4998 62.0697 79.7598 57.7397 79.7598 54.7397C79.7598 54.6897 79.7598 54.6397 79.7698 54.5897C82.2498 53.8897 85.4898 53.4297 89.7298 53.4297C94.4798 53.4297 98.0698 54.0097 100.76 54.8497Z" fill="#A56C43" style="fill:#A56C43;fill:color(display-p3 0.6471 0.4235 0.2627);fill-opacity:1;"/>
<path d="M89.8503 57.7996C87.8803 57.7996 86.2803 56.2797 86.2803 54.3997V50.1396H94.2403V54.3997C94.2403 56.2697 92.6403 57.7996 90.6703 57.7996H89.8503Z" fill="#E59600" style="fill:#E59600;fill:color(display-p3 0.8980 0.5882 0.0000);fill-opacity:1;"/>
<path d="M89.8503 57.7996C87.8803 57.7996 86.2803 56.2797 86.2803 54.3997V50.1396H94.2403V54.3997C94.2403 56.2697 92.6403 57.7996 90.6703 57.7996H89.8503Z" fill="#7A4C32" style="fill:#7A4C32;fill:color(display-p3 0.4784 0.2980 0.1961);fill-opacity:1;"/>
<path d="M90.2999 20.77C83.4599 20.77 77.1299 25.87 77.1299 36.68C77.1299 45.36 82.4899 50.5 87.1599 52.16C88.2699 52.55 89.3499 52.75 90.2999 52.75C91.2499 52.75 92.3099 52.55 93.4199 52.16C98.0899 50.51 103.47 45.37 103.47 36.68C103.47 25.87 97.1399 20.77 90.2999 20.77Z" fill="#FFCA28" style="fill:#FFCA28;fill:color(display-p3 1.0000 0.7922 0.1569);fill-opacity:1;"/>
<path d="M90.2999 20.77C83.4599 20.77 77.1299 25.87 77.1299 36.68C77.1299 45.36 82.4899 50.5 87.1599 52.16C88.2699 52.55 89.3499 52.75 90.2999 52.75C91.2499 52.75 92.3099 52.55 93.4199 52.16C98.0899 50.51 103.47 45.37 103.47 36.68C103.47 25.87 97.1399 20.77 90.2999 20.77Z" fill="#A56C43" style="fill:#A56C43;fill:color(display-p3 0.6471 0.4235 0.2627);fill-opacity:1;"/>
<path d="M83.91 40.5301C84.9759 40.5301 85.84 39.6302 85.84 38.5201C85.84 37.41 84.9759 36.5101 83.91 36.5101C82.8441 36.5101 81.98 37.41 81.98 38.5201C81.98 39.6302 82.8441 40.5301 83.91 40.5301Z" fill="#404040" style="fill:#404040;fill:color(display-p3 0.2510 0.2510 0.2510);fill-opacity:1;"/>
<path d="M83.91 40.5301C84.9759 40.5301 85.84 39.6302 85.84 38.5201C85.84 37.41 84.9759 36.5101 83.91 36.5101C82.8441 36.5101 81.98 37.41 81.98 38.5201C81.98 39.6302 82.8441 40.5301 83.91 40.5301Z" fill="#473530" style="fill:#473530;fill:color(display-p3 0.2784 0.2078 0.1882);fill-opacity:1;"/>
<path d="M96.8201 40.5301C97.886 40.5301 98.7501 39.6302 98.7501 38.5201C98.7501 37.41 97.886 36.5101 96.8201 36.5101C95.7542 36.5101 94.8901 37.41 94.8901 38.5201C94.8901 39.6302 95.7542 40.5301 96.8201 40.5301Z" fill="#404040" style="fill:#404040;fill:color(display-p3 0.2510 0.2510 0.2510);fill-opacity:1;"/>
<path d="M96.8201 40.5301C97.886 40.5301 98.7501 39.6302 98.7501 38.5201C98.7501 37.41 97.886 36.5101 96.8201 36.5101C95.7542 36.5101 94.8901 37.41 94.8901 38.5201C94.8901 39.6302 95.7542 40.5301 96.8201 40.5301Z" fill="#473530" style="fill:#473530;fill:color(display-p3 0.2784 0.2078 0.1882);fill-opacity:1;"/>
<path d="M91.7799 42.1701C91.7399 42.1501 91.6999 42.1401 91.6499 42.1401H88.8699C88.8299 42.1501 88.7899 42.1601 88.7399 42.1701C88.4899 42.2701 88.3499 42.5301 88.4699 42.8101C88.5899 43.0901 89.1399 43.8701 90.2599 43.8701C91.3699 43.8701 91.9299 43.0901 92.0499 42.8101C92.1699 42.5401 92.0299 42.2801 91.7799 42.1701Z" fill="#E59600" style="fill:#E59600;fill:color(display-p3 0.8980 0.5882 0.0000);fill-opacity:1;"/>
<path d="M91.7799 42.1701C91.7399 42.1501 91.6999 42.1401 91.6499 42.1401H88.8699C88.8299 42.1501 88.7899 42.1601 88.7399 42.1701C88.4899 42.2701 88.3499 42.5301 88.4699 42.8101C88.5899 43.0901 89.1399 43.8701 90.2599 43.8701C91.3699 43.8701 91.9299 43.0901 92.0499 42.8101C92.1699 42.5401 92.0299 42.2801 91.7799 42.1701Z" fill="#875334" style="fill:#875334;fill:color(display-p3 0.5294 0.3255 0.2039);fill-opacity:1;"/>
<path d="M86.7797 34.9101C86.4097 34.4201 85.5597 33.7101 83.9097 33.7101C82.2597 33.7101 81.3997 34.4201 81.0397 34.9101C80.8797 35.1301 80.9197 35.3801 81.0297 35.5301C81.1297 35.6701 81.4397 35.8001 81.7897 35.6801C82.1297 35.5601 82.7997 35.2201 83.9197 35.2101C85.0397 35.2201 85.7097 35.5601 86.0497 35.6801C86.3897 35.8001 86.6997 35.6701 86.8097 35.5301C86.9097 35.3701 86.9497 35.1201 86.7797 34.9101Z" fill="#6D4C41" style="fill:#6D4C41;fill:color(display-p3 0.4275 0.2980 0.2549);fill-opacity:1;"/>
<path d="M99.6996 34.9101C99.3296 34.4201 98.4796 33.7101 96.8296 33.7101C95.1796 33.7101 94.3196 34.4201 93.9596 34.9101C93.7996 35.1301 93.8396 35.3801 93.9496 35.5301C94.0496 35.6701 94.3596 35.8001 94.7096 35.6801C95.0496 35.5601 95.7196 35.2201 96.8396 35.2101C97.9596 35.2201 98.6296 35.5601 98.9696 35.6801C99.3096 35.8001 99.6196 35.6701 99.7296 35.5301C99.8196 35.3701 99.8596 35.1201 99.6996 34.9101Z" fill="#6D4C41" style="fill:#6D4C41;fill:color(display-p3 0.4275 0.2980 0.2549);fill-opacity:1;"/>
<path d="M90.4698 16.8301C74.1298 16.8301 74.2598 31.9401 74.2598 32.1801C74.2598 39.4801 74.6798 49.0301 76.5198 55.6701C77.1198 55.4001 77.7798 55.1501 78.4998 54.9201C78.7598 54.8301 79.0298 54.7501 79.3098 54.6701C79.1598 52.6301 78.5198 43.8501 78.4398 39.4301C78.4198 38.2601 78.0698 33.9101 80.4898 33.3601C89.3798 31.3401 94.3998 26.5701 94.3998 26.5701C95.7098 29.4601 99.7998 32.2801 101.26 33.3501C102.47 34.2301 102.3 37.8401 102.27 39.3901L101.08 54.8801C101.24 54.9301 101.4 54.9801 101.56 55.0301C102.42 55.3101 103.19 55.6201 103.89 55.9301C105.8 49.2801 106.22 39.5801 106.22 32.1801C106.22 31.9401 106.81 16.8301 90.4698 16.8301Z" fill="#543930" style="fill:#543930;fill:color(display-p3 0.3294 0.2235 0.1882);fill-opacity:1;"/>
<path d="M93.5697 45.5801C92.3197 46.3301 88.2197 46.3301 86.9697 45.5801C86.2497 45.1501 85.5197 45.8101 85.8197 46.4601C86.1097 47.1001 88.3497 48.6001 90.2797 48.6001C92.2097 48.6001 94.4197 47.1101 94.7197 46.4601C95.0197 45.8001 94.2897 45.1501 93.5697 45.5801Z" fill="#795548" style="fill:#795548;fill:color(display-p3 0.4745 0.3333 0.2824);fill-opacity:1;"/>
<path d="M93.5697 45.5801C92.3197 46.3301 88.2197 46.3301 86.9697 45.5801C86.2497 45.1501 85.5197 45.8101 85.8197 46.4601C86.1097 47.1001 88.3497 48.6001 90.2797 48.6001C92.2097 48.6001 94.4197 47.1101 94.7197 46.4601C95.0197 45.8001 94.2897 45.1501 93.5697 45.5801Z" fill="#473530" style="fill:#473530;fill:color(display-p3 0.2784 0.2078 0.1882);fill-opacity:1;"/>
<path d="M106.23 32.1596C106.23 39.5696 105.8 49.2796 103.89 55.9296C100.86 54.5396 96.3501 53.4096 89.7101 53.4096C83.5401 53.4096 79.3501 54.3896 76.5201 55.6296C74.6901 48.9896 74.2701 39.4596 74.2701 32.1596C74.2701 31.9196 74.1401 16.8096 90.4801 16.8096C106.82 16.8096 106.23 31.9196 106.23 32.1596Z" fill="url(#paint56_radial_201_3924)" style=""/>
<path d="M87.99 124.5H83.61C82.8 124.48 82.22 123.55 82.46 122.75C83.19 120.29 85.41 118.48 87.99 118.48C90.63 118.48 92.88 120.36 93.56 122.89C93.78 123.7 93.18 124.5 92.37 124.5H87.99Z" fill="#504F4F" style="fill:#504F4F;fill:color(display-p3 0.3137 0.3098 0.3098);fill-opacity:1;"/>
<path d="M90.4698 16.8301C74.1298 16.8301 74.2598 31.9401 74.2598 32.1801C74.2598 35.2701 74.3298 38.7601 74.5598 42.2701L77.2398 42.2601C77.2198 41.1001 78.0298 33.9101 80.4598 33.3601C89.3698 31.3601 94.4098 26.6301 94.4098 26.6301C95.7198 29.4901 99.8198 32.2901 101.29 33.3501C102.5 34.2201 102.87 40.7401 102.85 42.2701H105.92C105.92 42.2501 105.93 42.2301 105.93 42.2101C106.15 38.7201 106.23 35.2501 106.23 32.1801C106.22 31.9401 106.81 16.8301 90.4698 16.8301Z" fill="url(#paint57_radial_201_3924)" style=""/>
<path d="M105.84 5.83958C105.67 4.83958 104.64 4.24958 103.7 4.59958C101.48 5.41958 97.7201 7.22958 95.8201 10.5296C94.3901 13.0096 93.7901 16.6896 93.5501 19.7096C93.4601 20.8096 92.5101 21.6296 91.4101 21.5496C91.0401 21.5196 89.4701 21.5196 89.1001 21.5496C88.0001 21.6296 87.0401 20.8196 86.9601 19.7096C86.7201 16.6896 86.1201 13.0096 84.6901 10.5296C82.7901 7.21958 79.0101 5.41958 76.8001 4.59958C75.8601 4.24958 74.8501 4.83958 74.6801 5.82958C74.2801 8.15958 73.9501 12.3496 75.8601 15.6496C77.2901 18.1396 80.1601 20.4896 82.6501 22.2096C83.2101 22.5996 83.2101 23.4096 82.6701 23.8296C81.6601 24.5996 80.9001 25.4996 80.3101 26.3996C79.7301 27.2996 80.7601 28.3896 81.6601 27.8096C83.4401 26.6596 86.1501 25.7196 90.2501 25.7196C94.3501 25.7196 97.0601 26.6596 98.8401 27.8096C99.7401 28.3896 100.78 27.2996 100.19 26.3996C99.6001 25.4896 98.8401 24.5996 97.8401 23.8196C97.3001 23.3996 97.3001 22.5896 97.8601 22.1996C100.34 20.4796 103.21 18.1296 104.65 15.6396C106.56 12.3496 106.24 8.17958 105.84 5.83958Z" fill="url(#paint58_linear_201_3924)" style=""/>
<path d="M98.1601 12.2696C97.1201 14.0696 96.9101 17.1296 96.8601 18.4496C96.8501 18.7396 97.1501 18.9196 97.4001 18.7596C98.5201 18.0596 101.05 16.3496 102.09 14.5396C103 12.9596 102.92 10.9996 102.77 9.90962C102.71 9.43962 102.25 9.17962 101.82 9.35962C100.8 9.77962 99.0701 10.6896 98.1601 12.2696Z" fill="#FF4081" style="fill:#FF4081;fill:color(display-p3 1.0000 0.2510 0.5059);fill-opacity:1;"/>
<path d="M82.3499 12.2696C83.3899 14.0696 83.6099 17.1296 83.6499 18.4596C83.6599 18.7496 83.3599 18.9296 83.1199 18.7696C81.9999 18.0696 79.4699 16.3596 78.4299 14.5496C77.5199 12.9696 77.5999 11.0096 77.7399 9.91963C77.7999 9.44963 78.2599 9.18963 78.6899 9.36963C79.6999 9.77963 81.4399 10.6896 82.3499 12.2696Z" fill="#FF4081" style="fill:#FF4081;fill:color(display-p3 1.0000 0.2510 0.5059);fill-opacity:1;"/>
<defs>
<linearGradient id="paint0_linear_201_3924" x1="78.6052" y1="73.4078" x2="78.6052" y2="77.4187" gradientUnits="userSpaceOnUse">
<stop stop-color="#CCA47A" style="stop-color:#CCA47A;stop-color:color(display-p3 0.8000 0.6431 0.4784);stop-opacity:1;"/>
<stop offset="0.5" stop-color="#E0BB95" style="stop-color:#E0BB95;stop-color:color(display-p3 0.8784 0.7333 0.5843);stop-opacity:1;"/>
</linearGradient>
<linearGradient id="paint1_linear_201_3924" x1="86.4154" y1="105.209" x2="87.1596" y2="116.278" gradientUnits="userSpaceOnUse">
<stop stop-color="#FFB300" style="stop-color:#FFB300;stop-color:color(display-p3 1.0000 0.7020 0.0000);stop-opacity:1;"/>
<stop offset="0.4007" stop-color="#FFCA28" style="stop-color:#FFCA28;stop-color:color(display-p3 1.0000 0.7922 0.1569);stop-opacity:1;"/>
</linearGradient>
<linearGradient id="paint2_linear_201_3924" x1="86.633" y1="103.443" x2="86.633" y2="124.324" gradientUnits="userSpaceOnUse">
<stop stop-color="#CCA47A" style="stop-color:#CCA47A;stop-color:color(display-p3 0.8000 0.6431 0.4784);stop-opacity:1;"/>
<stop offset="0.5" stop-color="#E0BB95" style="stop-color:#E0BB95;stop-color:color(display-p3 0.8784 0.7333 0.5843);stop-opacity:1;"/>
</linearGradient>
<linearGradient id="paint3_linear_201_3924" x1="108.098" y1="99.4668" x2="108.345" y2="108.117" gradientUnits="userSpaceOnUse">
<stop stop-color="#FFB300" style="stop-color:#FFB300;stop-color:color(display-p3 1.0000 0.7020 0.0000);stop-opacity:1;"/>
<stop offset="0.4007" stop-color="#FFCA28" style="stop-color:#FFCA28;stop-color:color(display-p3 1.0000 0.7922 0.1569);stop-opacity:1;"/>
</linearGradient>
<linearGradient id="paint4_linear_201_3924" x1="108.498" y1="98.0921" x2="108.498" y2="114.348" gradientUnits="userSpaceOnUse">
<stop stop-color="#CCA47A" style="stop-color:#CCA47A;stop-color:color(display-p3 0.8000 0.6431 0.4784);stop-opacity:1;"/>
<stop offset="0.5" stop-color="#E0BB95" style="stop-color:#E0BB95;stop-color:color(display-p3 0.8784 0.7333 0.5843);stop-opacity:1;"/>
</linearGradient>
<linearGradient id="paint5_linear_201_3924" x1="92.3601" y1="77.8733" x2="92.9437" y2="95.3536" gradientUnits="userSpaceOnUse">
<stop stop-color="#FFB300" style="stop-color:#FFB300;stop-color:color(display-p3 1.0000 0.7020 0.0000);stop-opacity:1;"/>
<stop offset="0.4007" stop-color="#FFCA28" style="stop-color:#FFCA28;stop-color:color(display-p3 1.0000 0.7922 0.1569);stop-opacity:1;"/>
</linearGradient>
<linearGradient id="paint6_linear_201_3924" x1="93.0499" y1="75.0944" x2="93.0499" y2="107.956" gradientUnits="userSpaceOnUse">
<stop stop-color="#CCA47A" style="stop-color:#CCA47A;stop-color:color(display-p3 0.8000 0.6431 0.4784);stop-opacity:1;"/>
<stop offset="0.5" stop-color="#E0BB95" style="stop-color:#E0BB95;stop-color:color(display-p3 0.8784 0.7333 0.5843);stop-opacity:1;"/>
</linearGradient>
<linearGradient id="paint7_linear_201_3924" x1="102.249" y1="73.3961" x2="102.249" y2="77.1486" gradientUnits="userSpaceOnUse">
<stop stop-color="#CCA47A" style="stop-color:#CCA47A;stop-color:color(display-p3 0.8000 0.6431 0.4784);stop-opacity:1;"/>
<stop offset="0.5" stop-color="#E0BB95" style="stop-color:#E0BB95;stop-color:color(display-p3 0.8784 0.7333 0.5843);stop-opacity:1;"/>
</linearGradient>
<linearGradient id="paint8_linear_201_3924" x1="90.2402" y1="52.3638" x2="90.2402" y2="98.9678" gradientUnits="userSpaceOnUse">
<stop stop-color="#515151" style="stop-color:#515151;stop-color:color(display-p3 0.3176 0.3176 0.3176);stop-opacity:1;"/>
<stop offset="0.9439" stop-color="#313131" style="stop-color:#313131;stop-color:color(display-p3 0.1922 0.1922 0.1922);stop-opacity:1;"/>
</linearGradient>
<linearGradient id="paint9_linear_201_3924" x1="100.185" y1="66.5742" x2="109.859" y2="77.923" gradientUnits="userSpaceOnUse">
<stop offset="0.1719" stop-color="#FFB300" style="stop-color:#FFB300;stop-color:color(display-p3 1.0000 0.7020 0.0000);stop-opacity:1;"/>
<stop offset="0.518" stop-color="#FFCA28" style="stop-color:#FFCA28;stop-color:color(display-p3 1.0000 0.7922 0.1569);stop-opacity:1;"/>
</linearGradient>
<linearGradient id="paint10_linear_201_3924" x1="107.564" y1="59.7431" x2="107.564" y2="82.9241" gradientUnits="userSpaceOnUse">
<stop stop-color="#CCA47A" style="stop-color:#CCA47A;stop-color:color(display-p3 0.8000 0.6431 0.4784);stop-opacity:1;"/>
<stop offset="0.5" stop-color="#E0BB95" style="stop-color:#E0BB95;stop-color:color(display-p3 0.8784 0.7333 0.5843);stop-opacity:1;"/>
</linearGradient>
<linearGradient id="paint11_linear_201_3924" x1="65.928" y1="66.5801" x2="75.612" y2="77.9304" gradientUnits="userSpaceOnUse">
<stop offset="0.1719" stop-color="#FFB300" style="stop-color:#FFB300;stop-color:color(display-p3 1.0000 0.7020 0.0000);stop-opacity:1;"/>
<stop offset="0.518" stop-color="#FFCA28" style="stop-color:#FFCA28;stop-color:color(display-p3 1.0000 0.7922 0.1569);stop-opacity:1;"/>
</linearGradient>
<linearGradient id="paint12_linear_201_3924" x1="73.3076" y1="59.7431" x2="73.3076" y2="82.9441" gradientUnits="userSpaceOnUse">
<stop stop-color="#CCA47A" style="stop-color:#CCA47A;stop-color:color(display-p3 0.8000 0.6431 0.4784);stop-opacity:1;"/>
<stop offset="0.5" stop-color="#E0BB95" style="stop-color:#E0BB95;stop-color:color(display-p3 0.8784 0.7333 0.5843);stop-opacity:1;"/>
</linearGradient>
<linearGradient id="paint13_linear_201_3924" x1="90.27" y1="51.3086" x2="90.27" y2="97.9125" gradientUnits="userSpaceOnUse">
<stop stop-color="#515151" style="stop-color:#515151;stop-color:color(display-p3 0.3176 0.3176 0.3176);stop-opacity:1;"/>
<stop offset="0.9439" stop-color="#313131" style="stop-color:#313131;stop-color:color(display-p3 0.1922 0.1922 0.1922);stop-opacity:1;"/>
</linearGradient>
<linearGradient id="paint14_linear_201_3924" x1="90.2598" y1="53.357" x2="90.2598" y2="60.1941" gradientUnits="userSpaceOnUse">
<stop stop-color="#FFB300" style="stop-color:#FFB300;stop-color:color(display-p3 1.0000 0.7020 0.0000);stop-opacity:1;"/>
<stop offset="0.6846" stop-color="#FFCA28" style="stop-color:#FFCA28;stop-color:color(display-p3 1.0000 0.7922 0.1569);stop-opacity:1;"/>
</linearGradient>
<radialGradient id="paint15_radial_201_3924" cx="0" cy="0" r="1" gradientUnits="userSpaceOnUse" gradientTransform="translate(90.2409 44.8387) scale(16.479 27.9494)">
<stop offset="0.7945" stop-color="#BFA055" stop-opacity="0" style="stop-color:none;stop-opacity:0;"/>
<stop offset="1" stop-color="#BFA055" style="stop-color:#BFA055;stop-color:color(display-p3 0.7490 0.6275 0.3333);stop-opacity:1;"/>
</radialGradient>
<radialGradient id="paint16_radial_201_3924" cx="0" cy="0" r="1" gradientUnits="userSpaceOnUse" gradientTransform="translate(90.3726 40.5751) scale(19.8371 24.0723)">
<stop offset="0.7945" stop-color="#6D4C41" stop-opacity="0" style="stop-color:none;stop-opacity:0;"/>
<stop offset="1" stop-color="#6D4C41" style="stop-color:#6D4C41;stop-color:color(display-p3 0.4275 0.2980 0.2549);stop-opacity:1;"/>
</radialGradient>
<radialGradient id="paint17_radial_201_3924" cx="0" cy="0" r="1" gradientUnits="userSpaceOnUse" gradientTransform="translate(90.2452 37.1945) rotate(-12.7512) scale(16.3897 18.0817)">
<stop offset="0.7945" stop-color="#BFA055" stop-opacity="0" style="stop-color:none;stop-opacity:0;"/>
<stop offset="1" stop-color="#BFA055" style="stop-color:#BFA055;stop-color:color(display-p3 0.7490 0.6275 0.3333);stop-opacity:1;"/>
</radialGradient>
<radialGradient id="paint18_radial_201_3924" cx="0" cy="0" r="1" gradientUnits="userSpaceOnUse" gradientTransform="translate(90.2599 44.8332) scale(16.479 27.9637)">
<stop offset="0.7945" stop-color="#BFA055" stop-opacity="0" style="stop-color:none;stop-opacity:0;"/>
<stop offset="1" stop-color="#BFA055" style="stop-color:#BFA055;stop-color:color(display-p3 0.7490 0.6275 0.3333);stop-opacity:1;"/>
</radialGradient>
<linearGradient id="paint19_linear_201_3924" x1="90.2584" y1="8.58585" x2="90.2584" y2="33.9633" gradientUnits="userSpaceOnUse">
<stop stop-color="#504F4F" style="stop-color:#504F4F;stop-color:color(display-p3 0.3137 0.3098 0.3098);stop-opacity:1;"/>
<stop offset="1" stop-color="#212121" style="stop-color:#212121;stop-color:color(display-p3 0.1294 0.1294 0.1294);stop-opacity:1;"/>
</linearGradient>
<linearGradient id="paint20_linear_201_3924" x1="22.7551" y1="73.4078" x2="22.7551" y2="77.4187" gradientUnits="userSpaceOnUse">
<stop stop-color="#CCA47A" style="stop-color:#CCA47A;stop-color:color(display-p3 0.8000 0.6431 0.4784);stop-opacity:1;"/>
<stop offset="0.5" stop-color="#E0BB95" style="stop-color:#E0BB95;stop-color:color(display-p3 0.8784 0.7333 0.5843);stop-opacity:1;"/>
</linearGradient>
<linearGradient id="paint21_linear_201_3924" x1="30.5653" y1="105.209" x2="31.3095" y2="116.278" gradientUnits="userSpaceOnUse">
<stop stop-color="#FFB300" style="stop-color:#FFB300;stop-color:color(display-p3 1.0000 0.7020 0.0000);stop-opacity:1;"/>
<stop offset="0.4007" stop-color="#FFCA28" style="stop-color:#FFCA28;stop-color:color(display-p3 1.0000 0.7922 0.1569);stop-opacity:1;"/>
</linearGradient>
<linearGradient id="paint22_linear_201_3924" x1="30.7829" y1="103.443" x2="30.7829" y2="124.324" gradientUnits="userSpaceOnUse">
<stop stop-color="#CCA47A" style="stop-color:#CCA47A;stop-color:color(display-p3 0.8000 0.6431 0.4784);stop-opacity:1;"/>
<stop offset="0.5" stop-color="#E0BB95" style="stop-color:#E0BB95;stop-color:color(display-p3 0.8784 0.7333 0.5843);stop-opacity:1;"/>
</linearGradient>
<linearGradient id="paint23_linear_201_3924" x1="52.248" y1="99.4668" x2="52.4946" y2="108.117" gradientUnits="userSpaceOnUse">
<stop stop-color="#FFB300" style="stop-color:#FFB300;stop-color:color(display-p3 1.0000 0.7020 0.0000);stop-opacity:1;"/>
<stop offset="0.4007" stop-color="#FFCA28" style="stop-color:#FFCA28;stop-color:color(display-p3 1.0000 0.7922 0.1569);stop-opacity:1;"/>
</linearGradient>
<linearGradient id="paint24_linear_201_3924" x1="52.6474" y1="98.0921" x2="52.6474" y2="114.348" gradientUnits="userSpaceOnUse">
<stop stop-color="#CCA47A" style="stop-color:#CCA47A;stop-color:color(display-p3 0.8000 0.6431 0.4784);stop-opacity:1;"/>
<stop offset="0.5" stop-color="#E0BB95" style="stop-color:#E0BB95;stop-color:color(display-p3 0.8784 0.7333 0.5843);stop-opacity:1;"/>
</linearGradient>
<linearGradient id="paint25_linear_201_3924" x1="36.51" y1="77.8733" x2="37.0936" y2="95.3536" gradientUnits="userSpaceOnUse">
<stop stop-color="#FFB300" style="stop-color:#FFB300;stop-color:color(display-p3 1.0000 0.7020 0.0000);stop-opacity:1;"/>
<stop offset="0.4007" stop-color="#FFCA28" style="stop-color:#FFCA28;stop-color:color(display-p3 1.0000 0.7922 0.1569);stop-opacity:1;"/>
</linearGradient>
<linearGradient id="paint26_linear_201_3924" x1="37.1998" y1="75.0944" x2="37.1998" y2="107.956" gradientUnits="userSpaceOnUse">
<stop stop-color="#CCA47A" style="stop-color:#CCA47A;stop-color:color(display-p3 0.8000 0.6431 0.4784);stop-opacity:1;"/>
<stop offset="0.5" stop-color="#E0BB95" style="stop-color:#E0BB95;stop-color:color(display-p3 0.8784 0.7333 0.5843);stop-opacity:1;"/>
</linearGradient>
<linearGradient id="paint27_linear_201_3924" x1="46.3987" y1="73.3961" x2="46.3987" y2="77.1486" gradientUnits="userSpaceOnUse">
<stop stop-color="#CCA47A" style="stop-color:#CCA47A;stop-color:color(display-p3 0.8000 0.6431 0.4784);stop-opacity:1;"/>
<stop offset="0.5" stop-color="#E0BB95" style="stop-color:#E0BB95;stop-color:color(display-p3 0.8784 0.7333 0.5843);stop-opacity:1;"/>
</linearGradient>
<linearGradient id="paint28_linear_201_3924" x1="34.3901" y1="52.3638" x2="34.3901" y2="98.9678" gradientUnits="userSpaceOnUse">
<stop stop-color="#515151" style="stop-color:#515151;stop-color:color(display-p3 0.3176 0.3176 0.3176);stop-opacity:1;"/>
<stop offset="0.9439" stop-color="#313131" style="stop-color:#313131;stop-color:color(display-p3 0.1922 0.1922 0.1922);stop-opacity:1;"/>
</linearGradient>
<linearGradient id="paint29_linear_201_3924" x1="44.3347" y1="66.5742" x2="54.0091" y2="77.923" gradientUnits="userSpaceOnUse">
<stop offset="0.1719" stop-color="#FFB300" style="stop-color:#FFB300;stop-color:color(display-p3 1.0000 0.7020 0.0000);stop-opacity:1;"/>
<stop offset="0.518" stop-color="#FFCA28" style="stop-color:#FFCA28;stop-color:color(display-p3 1.0000 0.7922 0.1569);stop-opacity:1;"/>
</linearGradient>
<linearGradient id="paint30_linear_201_3924" x1="51.7143" y1="59.7431" x2="51.7143" y2="82.9241" gradientUnits="userSpaceOnUse">
<stop stop-color="#CCA47A" style="stop-color:#CCA47A;stop-color:color(display-p3 0.8000 0.6431 0.4784);stop-opacity:1;"/>
<stop offset="0.5" stop-color="#E0BB95" style="stop-color:#E0BB95;stop-color:color(display-p3 0.8784 0.7333 0.5843);stop-opacity:1;"/>
</linearGradient>
<linearGradient id="paint31_linear_201_3924" x1="10.0779" y1="66.5801" x2="19.7619" y2="77.9304" gradientUnits="userSpaceOnUse">
<stop offset="0.1719" stop-color="#FFB300" style="stop-color:#FFB300;stop-color:color(display-p3 1.0000 0.7020 0.0000);stop-opacity:1;"/>
<stop offset="0.518" stop-color="#FFCA28" style="stop-color:#FFCA28;stop-color:color(display-p3 1.0000 0.7922 0.1569);stop-opacity:1;"/>
</linearGradient>
<linearGradient id="paint32_linear_201_3924" x1="17.4575" y1="59.7431" x2="17.4575" y2="82.9441" gradientUnits="userSpaceOnUse">
<stop stop-color="#CCA47A" style="stop-color:#CCA47A;stop-color:color(display-p3 0.8000 0.6431 0.4784);stop-opacity:1;"/>
<stop offset="0.5" stop-color="#E0BB95" style="stop-color:#E0BB95;stop-color:color(display-p3 0.8784 0.7333 0.5843);stop-opacity:1;"/>
</linearGradient>
<linearGradient id="paint33_linear_201_3924" x1="34.4199" y1="51.3086" x2="34.4199" y2="97.9125" gradientUnits="userSpaceOnUse">
<stop stop-color="#515151" style="stop-color:#515151;stop-color:color(display-p3 0.3176 0.3176 0.3176);stop-opacity:1;"/>
<stop offset="0.9439" stop-color="#313131" style="stop-color:#313131;stop-color:color(display-p3 0.1922 0.1922 0.1922);stop-opacity:1;"/>
</linearGradient>
<linearGradient id="paint34_linear_201_3924" x1="34.4102" y1="53.357" x2="34.4102" y2="60.1941" gradientUnits="userSpaceOnUse">
<stop stop-color="#FFB300" style="stop-color:#FFB300;stop-color:color(display-p3 1.0000 0.7020 0.0000);stop-opacity:1;"/>
<stop offset="0.6846" stop-color="#FFCA28" style="stop-color:#FFCA28;stop-color:color(display-p3 1.0000 0.7922 0.1569);stop-opacity:1;"/>
</linearGradient>
<radialGradient id="paint35_radial_201_3924" cx="0" cy="0" r="1" gradientUnits="userSpaceOnUse" gradientTransform="translate(34.4011 44.8332) scale(16.479 27.9637)">
<stop offset="0.7945" stop-color="#BFA055" stop-opacity="0" style="stop-color:none;stop-opacity:0;"/>
<stop offset="1" stop-color="#BFA055" style="stop-color:#BFA055;stop-color:color(display-p3 0.7490 0.6275 0.3333);stop-opacity:1;"/>
</radialGradient>
<radialGradient id="paint36_radial_201_3924" cx="0" cy="0" r="1" gradientUnits="userSpaceOnUse" gradientTransform="translate(34.4011 44.8332) scale(16.479 27.9637)">
<stop offset="0.7945" stop-color="#BFA055" stop-opacity="0" style="stop-color:none;stop-opacity:0;"/>
<stop offset="1" stop-color="#BFA055" style="stop-color:#BFA055;stop-color:color(display-p3 0.7490 0.6275 0.3333);stop-opacity:1;"/>
</radialGradient>
<radialGradient id="paint37_radial_201_3924" cx="0" cy="0" r="1" gradientUnits="userSpaceOnUse" gradientTransform="translate(34.3956 37.1945) rotate(-12.7512) scale(16.3897 18.0817)">
<stop offset="0.7945" stop-color="#BFA055" stop-opacity="0" style="stop-color:none;stop-opacity:0;"/>
<stop offset="1" stop-color="#BFA055" style="stop-color:#BFA055;stop-color:color(display-p3 0.7490 0.6275 0.3333);stop-opacity:1;"/>
</radialGradient>
<linearGradient id="paint38_linear_201_3924" x1="34.4083" y1="8.58585" x2="34.4083" y2="33.9633" gradientUnits="userSpaceOnUse">
<stop stop-color="#504F4F" style="stop-color:#504F4F;stop-color:color(display-p3 0.3137 0.3098 0.3098);stop-opacity:1;"/>
<stop offset="1" stop-color="#212121" style="stop-color:#212121;stop-color:color(display-p3 0.1294 0.1294 0.1294);stop-opacity:1;"/>
</linearGradient>
<linearGradient id="paint39_linear_201_3924" x1="78.6023" y1="73.4078" x2="78.6023" y2="77.4187" gradientUnits="userSpaceOnUse">
<stop stop-color="#8D5738" style="stop-color:#8D5738;stop-color:color(display-p3 0.5529 0.3412 0.2196);stop-opacity:1;"/>
<stop offset="0.5" stop-color="#A56C43" style="stop-color:#A56C43;stop-color:color(display-p3 0.6471 0.4235 0.2627);stop-opacity:1;"/>
</linearGradient>
<linearGradient id="paint40_linear_201_3924" x1="78.6023" y1="73.4078" x2="78.6023" y2="77.4187" gradientUnits="userSpaceOnUse">
<stop stop-color="#8D5738" style="stop-color:#8D5738;stop-color:color(display-p3 0.5529 0.3412 0.2196);stop-opacity:1;"/>
<stop offset="0.5" stop-color="#A56C43" style="stop-color:#A56C43;stop-color:color(display-p3 0.6471 0.4235 0.2627);stop-opacity:1;"/>
</linearGradient>
<linearGradient id="paint41_linear_201_3924" x1="85.8984" y1="113.497" x2="90.5729" y2="118.73" gradientUnits="userSpaceOnUse">
<stop stop-color="#FFB300" style="stop-color:#FFB300;stop-color:color(display-p3 1.0000 0.7020 0.0000);stop-opacity:1;"/>
<stop offset="0.4007" stop-color="#FFCA28" style="stop-color:#FFCA28;stop-color:color(display-p3 1.0000 0.7922 0.1569);stop-opacity:1;"/>
</linearGradient>
<linearGradient id="paint42_linear_201_3924" x1="86.6284" y1="103.443" x2="86.6284" y2="124.324" gradientUnits="userSpaceOnUse">
<stop stop-color="#8D5738" style="stop-color:#8D5738;stop-color:color(display-p3 0.5529 0.3412 0.2196);stop-opacity:1;"/>
<stop offset="0.5" stop-color="#A56C43" style="stop-color:#A56C43;stop-color:color(display-p3 0.6471 0.4235 0.2627);stop-opacity:1;"/>
</linearGradient>
<linearGradient id="paint43_linear_201_3924" x1="107.149" y1="105.919" x2="109.576" y2="112.324" gradientUnits="userSpaceOnUse">
<stop stop-color="#FFB300" style="stop-color:#FFB300;stop-color:color(display-p3 1.0000 0.7020 0.0000);stop-opacity:1;"/>
<stop offset="0.4007" stop-color="#FFCA28" style="stop-color:#FFCA28;stop-color:color(display-p3 1.0000 0.7922 0.1569);stop-opacity:1;"/>
</linearGradient>
<linearGradient id="paint44_linear_201_3924" x1="108.489" y1="98.092" x2="108.489" y2="114.348" gradientUnits="userSpaceOnUse">
<stop stop-color="#8D5738" style="stop-color:#8D5738;stop-color:color(display-p3 0.5529 0.3412 0.2196);stop-opacity:1;"/>
<stop offset="0.5" stop-color="#A56C43" style="stop-color:#A56C43;stop-color:color(display-p3 0.6471 0.4235 0.2627);stop-opacity:1;"/>
</linearGradient>
<linearGradient id="paint45_linear_201_3924" x1="90.7218" y1="90.917" x2="96.2102" y2="103.289" gradientUnits="userSpaceOnUse">
<stop stop-color="#FFB300" style="stop-color:#FFB300;stop-color:color(display-p3 1.0000 0.7020 0.0000);stop-opacity:1;"/>
<stop offset="0.4007" stop-color="#FFCA28" style="stop-color:#FFCA28;stop-color:color(display-p3 1.0000 0.7922 0.1569);stop-opacity:1;"/>
</linearGradient>
<linearGradient id="paint46_linear_201_3924" x1="93.0351" y1="75.0942" x2="93.0351" y2="107.956" gradientUnits="userSpaceOnUse">
<stop stop-color="#8D5738" style="stop-color:#8D5738;stop-color:color(display-p3 0.5529 0.3412 0.2196);stop-opacity:1;"/>
<stop offset="0.5" stop-color="#A56C43" style="stop-color:#A56C43;stop-color:color(display-p3 0.6471 0.4235 0.2627);stop-opacity:1;"/>
</linearGradient>
<linearGradient id="paint47_linear_201_3924" x1="102.246" y1="73.396" x2="102.246" y2="77.1485" gradientUnits="userSpaceOnUse">
<stop stop-color="#8D5738" style="stop-color:#8D5738;stop-color:color(display-p3 0.5529 0.3412 0.2196);stop-opacity:1;"/>
<stop offset="0.5" stop-color="#A56C43" style="stop-color:#A56C43;stop-color:color(display-p3 0.6471 0.4235 0.2627);stop-opacity:1;"/>
</linearGradient>
<linearGradient id="paint48_linear_201_3924" x1="102.246" y1="73.396" x2="102.246" y2="77.1485" gradientUnits="userSpaceOnUse">
<stop stop-color="#8D5738" style="stop-color:#8D5738;stop-color:color(display-p3 0.5529 0.3412 0.2196);stop-opacity:1;"/>
<stop offset="0.5" stop-color="#A56C43" style="stop-color:#A56C43;stop-color:color(display-p3 0.6471 0.4235 0.2627);stop-opacity:1;"/>
</linearGradient>
<linearGradient id="paint49_linear_201_3924" x1="90.2402" y1="52.3634" x2="90.2402" y2="98.9674" gradientUnits="userSpaceOnUse">
<stop stop-color="#515151" style="stop-color:#515151;stop-color:color(display-p3 0.3176 0.3176 0.3176);stop-opacity:1;"/>
<stop offset="0.9439" stop-color="#313131" style="stop-color:#313131;stop-color:color(display-p3 0.1922 0.1922 0.1922);stop-opacity:1;"/>
</linearGradient>
<linearGradient id="paint50_linear_201_3924" x1="106.161" y1="70.905" x2="110.432" y2="79.1323" gradientUnits="userSpaceOnUse">
<stop stop-color="#FFB300" style="stop-color:#FFB300;stop-color:color(display-p3 1.0000 0.7020 0.0000);stop-opacity:1;"/>
<stop offset="0.4007" stop-color="#FFCA28" style="stop-color:#FFCA28;stop-color:color(display-p3 1.0000 0.7922 0.1569);stop-opacity:1;"/>
</linearGradient>
<linearGradient id="paint51_linear_201_3924" x1="107.555" y1="59.7433" x2="107.555" y2="82.9244" gradientUnits="userSpaceOnUse">
<stop stop-color="#8D5738" style="stop-color:#8D5738;stop-color:color(display-p3 0.5529 0.3412 0.2196);stop-opacity:1;"/>
<stop offset="0.5" stop-color="#A56C43" style="stop-color:#A56C43;stop-color:color(display-p3 0.6471 0.4235 0.2627);stop-opacity:1;"/>
</linearGradient>
<linearGradient id="paint52_linear_201_3924" x1="71.9039" y1="70.9146" x2="76.1812" y2="79.146" gradientUnits="userSpaceOnUse">
<stop stop-color="#FFB300" style="stop-color:#FFB300;stop-color:color(display-p3 1.0000 0.7020 0.0000);stop-opacity:1;"/>
<stop offset="0.4007" stop-color="#FFCA28" style="stop-color:#FFCA28;stop-color:color(display-p3 1.0000 0.7922 0.1569);stop-opacity:1;"/>
</linearGradient>
<linearGradient id="paint53_linear_201_3924" x1="73.2982" y1="59.7433" x2="73.2982" y2="82.9444" gradientUnits="userSpaceOnUse">
<stop stop-color="#8D5738" style="stop-color:#8D5738;stop-color:color(display-p3 0.5529 0.3412 0.2196);stop-opacity:1;"/>
<stop offset="0.5" stop-color="#A56C43" style="stop-color:#A56C43;stop-color:color(display-p3 0.6471 0.4235 0.2627);stop-opacity:1;"/>
</linearGradient>
<linearGradient id="paint54_linear_201_3924" x1="90.27" y1="51.3082" x2="90.27" y2="97.9122" gradientUnits="userSpaceOnUse">
<stop stop-color="#515151" style="stop-color:#515151;stop-color:color(display-p3 0.3176 0.3176 0.3176);stop-opacity:1;"/>
<stop offset="0.9439" stop-color="#313131" style="stop-color:#313131;stop-color:color(display-p3 0.1922 0.1922 0.1922);stop-opacity:1;"/>
</linearGradient>
<linearGradient id="paint55_linear_201_3924" x1="90.2598" y1="53.3565" x2="90.2598" y2="60.1937" gradientUnits="userSpaceOnUse">
<stop stop-color="#FFB300" style="stop-color:#FFB300;stop-color:color(display-p3 1.0000 0.7020 0.0000);stop-opacity:1;"/>
<stop offset="0.6846" stop-color="#FFCA28" style="stop-color:#FFCA28;stop-color:color(display-p3 1.0000 0.7922 0.1569);stop-opacity:1;"/>
</linearGradient>
<radialGradient id="paint56_radial_201_3924" cx="0" cy="0" r="1" gradientUnits="userSpaceOnUse" gradientTransform="translate(90.3256 39.9137) scale(16.9553 22.3895)">
<stop offset="0.7936" stop-color="#6D4C41" stop-opacity="0" style="stop-color:none;stop-opacity:0;"/>
<stop offset="1" stop-color="#6D4C41" style="stop-color:#6D4C41;stop-color:color(display-p3 0.4275 0.2980 0.2549);stop-opacity:1;"/>
</radialGradient>
<radialGradient id="paint57_radial_201_3924" cx="0" cy="0" r="1" gradientUnits="userSpaceOnUse" gradientTransform="translate(90.3726 40.5752) scale(19.8371 24.0723)">
<stop offset="0.7945" stop-color="#6D4C41" stop-opacity="0" style="stop-color:none;stop-opacity:0;"/>
<stop offset="1" stop-color="#6D4C41" style="stop-color:#6D4C41;stop-color:color(display-p3 0.4275 0.2980 0.2549);stop-opacity:1;"/>
</radialGradient>
<linearGradient id="paint58_linear_201_3924" x1="90.2584" y1="8.58548" x2="90.2584" y2="33.963" gradientUnits="userSpaceOnUse">
<stop stop-color="#504F4F" style="stop-color:#504F4F;stop-color:color(display-p3 0.3137 0.3098 0.3098);stop-opacity:1;"/>
<stop offset="1" stop-color="#212121" style="stop-color:#212121;stop-color:color(display-p3 0.1294 0.1294 0.1294);stop-opacity:1;"/>
</linearGradient>
</defs>
</svg>
