<svg width="128" height="128" viewBox="0 0 128 128" fill="none" xmlns="http://www.w3.org/2000/svg">
<path d="M63.6 118.8C35.7 118.8 5.59998 101.3 5.59998 62.9C5.59998 24.5 35.7 7 63.6 7C79.1 7 93.4 12.1 104 21.4C115.5 31.6 121.6 46 121.6 62.9C121.6 79.8 115.5 94.1 104 104.3C93.4 113.6 79 118.8 63.6 118.8Z" fill="url(#paint0_radial_169_9390)" style=""/>
<path d="M63.6 118.8C35.7 118.8 5.59998 101.3 5.59998 62.9C5.59998 24.5 35.7 7 63.6 7C79.1 7 93.4 12.1 104 21.4C115.5 31.6 121.6 46 121.6 62.9C121.6 79.8 115.5 94.1 104 104.3C93.4 113.6 79 118.8 63.6 118.8Z" fill="url(#paint1_radial_169_9390)" style=""/>
<path d="M63.6 118.8C35.7 118.8 5.59998 101.3 5.59998 62.9C5.59998 24.5 35.7 7 63.6 7C79.1 7 93.4 12.1 104 21.4C115.5 31.6 121.6 46 121.6 62.9C121.6 79.8 115.5 94.1 104 104.3C93.4 113.6 79 118.8 63.6 118.8Z" fill="url(#paint2_radial_169_9390)" style=""/>
<path d="M111.49 29.67C116.82 38.27 119.6 48.51 119.6 59.9C119.6 76.8 113.5 91.1 102 101.3C91.3999 110.6 76.9999 115.8 61.5999 115.8C43.5399 115.8 24.5999 108.45 13.4199 92.86C24.1799 110.52 44.4199 118.8 63.5999 118.8C78.9999 118.8 93.3999 113.6 104 104.3C115.5 94.1 121.6 79.8 121.6 62.9C121.6 50.16 118.13 38.84 111.49 29.67Z" fill="#EB8F00" style="fill:#EB8F00;fill:color(display-p3 0.9216 0.5608 0.0000);fill-opacity:1;"/>
<path d="M111.49 29.67C116.82 38.27 119.6 48.51 119.6 59.9C119.6 76.8 113.5 91.1 102 101.3C91.3999 110.6 76.9999 115.8 61.5999 115.8C43.5399 115.8 24.5999 108.45 13.4199 92.86C24.1799 110.52 44.4199 118.8 63.5999 118.8C78.9999 118.8 93.3999 113.6 104 104.3C115.5 94.1 121.6 79.8 121.6 62.9C121.6 50.16 118.13 38.84 111.49 29.67Z" fill="#4A2F27" style="fill:#4A2F27;fill:color(display-p3 0.2902 0.1843 0.1529);fill-opacity:1;"/>
<path d="M63.8899 82C53.3999 82 45.8899 88.29 43.6599 91.78C42.8099 92.91 42.6399 94.4 43.1999 95.69C43.6299 96.51 44.4799 97.02 45.3999 97C45.7399 96.99 46.0799 96.94 46.3999 96.84C51.6799 95.15 56.2999 92.7 63.8899 92.7C71.4799 92.7 76.0999 95.15 81.3799 96.84C81.6999 96.95 82.0399 97 82.3799 97C83.2999 97.02 84.1499 96.51 84.5799 95.69C85.1399 94.4 84.9699 92.91 84.1199 91.78C81.86 88.29 74.3699 82 63.8899 82Z" fill="#422B0D" style="fill:#422B0D;fill:color(display-p3 0.2588 0.1686 0.0510);fill-opacity:1;"/>
<path d="M63.8899 82C53.3999 82 45.8899 88.29 43.6599 91.78C42.8099 92.91 42.6399 94.4 43.1999 95.69C43.6299 96.51 44.4799 97.02 45.3999 97C45.7399 96.99 46.0799 96.94 46.3999 96.84C51.6799 95.15 56.2999 92.7 63.8899 92.7C71.4799 92.7 76.0999 95.15 81.3799 96.84C81.6999 96.95 82.0399 97 82.3799 97C83.2999 97.02 84.1499 96.51 84.5799 95.69C85.1399 94.4 84.9699 92.91 84.1199 91.78C81.86 88.29 74.3699 82 63.8899 82Z" fill="#1A1717" style="fill:#1A1717;fill:color(display-p3 0.1020 0.0902 0.0902);fill-opacity:1;"/>
<path d="M48.1599 55.81C42.1099 54.23 35.7199 54.47 29.7999 56.5C28.7399 56.91 28.2099 58.09 28.6199 59.15C28.9999 60.14 30.0599 60.67 31.0799 60.39C33.4499 59.93 35.8699 59.8 38.2799 59.99C38.2799 60.05 38.2799 60.38 38.2799 60.38C38.2799 65.27 41.4499 68.23 44.9499 68.23C46.7399 68.21 48.4499 67.47 49.6899 66.17C51.7699 63.96 52.1999 60.66 50.7399 58C50.1899 56.97 49.2699 56.18 48.1599 55.81Z" fill="#422B0D" style="fill:#422B0D;fill:color(display-p3 0.2588 0.1686 0.0510);fill-opacity:1;"/>
<path d="M48.1599 55.81C42.1099 54.23 35.7199 54.47 29.7999 56.5C28.7399 56.91 28.2099 58.09 28.6199 59.15C28.9999 60.14 30.0599 60.67 31.0799 60.39C33.4499 59.93 35.8699 59.8 38.2799 59.99C38.2799 60.05 38.2799 60.38 38.2799 60.38C38.2799 65.27 41.4499 68.23 44.9499 68.23C46.7399 68.21 48.4499 67.47 49.6899 66.17C51.7699 63.96 52.1999 60.66 50.7399 58C50.1899 56.97 49.2699 56.18 48.1599 55.81Z" fill="#1A1717" style="fill:#1A1717;fill:color(display-p3 0.1020 0.0902 0.0902);fill-opacity:1;"/>
<path d="M96 55.81C89.95 54.23 83.56 54.47 77.64 56.5C76.57 56.88 76 58.05 76.38 59.12C76.76 60.19 77.93 60.76 79 60.38C81.37 59.92 83.79 59.79 86.19 59.98C86.19 60.04 86.19 60.37 86.19 60.37C86.19 65.26 89.37 68.22 92.86 68.22C94.66 68.2 96.37 67.46 97.61 66.16C99.66 63.95 100.06 60.67 98.61 58.03C98.06 56.99 97.12 56.19 96 55.81Z" fill="#422B0D" style="fill:#422B0D;fill:color(display-p3 0.2588 0.1686 0.0510);fill-opacity:1;"/>
<path d="M96 55.81C89.95 54.23 83.56 54.47 77.64 56.5C76.57 56.88 76 58.05 76.38 59.12C76.76 60.19 77.93 60.76 79 60.38C81.37 59.92 83.79 59.79 86.19 59.98C86.19 60.04 86.19 60.37 86.19 60.37C86.19 65.26 89.37 68.22 92.86 68.22C94.66 68.2 96.37 67.46 97.61 66.16C99.66 63.95 100.06 60.67 98.61 58.03C98.06 56.99 97.12 56.19 96 55.81Z" fill="#1A1717" style="fill:#1A1717;fill:color(display-p3 0.1020 0.0902 0.0902);fill-opacity:1;"/>
<path d="M87.6799 44C86.6699 44.02 85.8399 43.21 85.8199 42.2C85.7999 41.19 86.6099 40.36 87.6199 40.34C89.5599 40.13 91.5299 40.25 93.4299 40.69C98.6099 41.74 103.21 44.71 106.29 49C107.67 51.08 104.97 52.8 103.35 51.25C99.1199 47.09 93.5899 44.53 87.6799 44Z" fill="#422B0D" style="fill:#422B0D;fill:color(display-p3 0.2588 0.1686 0.0510);fill-opacity:1;"/>
<path d="M87.6799 44C86.6699 44.02 85.8399 43.21 85.8199 42.2C85.7999 41.19 86.6099 40.36 87.6199 40.34C89.5599 40.13 91.5299 40.25 93.4299 40.69C98.6099 41.74 103.21 44.71 106.29 49C107.67 51.08 104.97 52.8 103.35 51.25C99.1199 47.09 93.5899 44.53 87.6799 44Z" fill="#1A1717" style="fill:#1A1717;fill:color(display-p3 0.1020 0.0902 0.0902);fill-opacity:1;"/>
<path d="M37.8799 44C38.8899 44.02 39.7199 43.21 39.7399 42.2C39.7599 41.19 38.9499 40.36 37.9399 40.34C35.9999 40.13 34.0299 40.25 32.1299 40.69C26.9499 41.74 22.3499 44.71 19.2699 49C17.8799 51.08 20.5899 52.8 22.2099 51.25C26.4399 47.09 31.9699 44.53 37.8799 44Z" fill="#422B0D" style="fill:#422B0D;fill:color(display-p3 0.2588 0.1686 0.0510);fill-opacity:1;"/>
<path d="M37.8799 44C38.8899 44.02 39.7199 43.21 39.7399 42.2C39.7599 41.19 38.9499 40.36 37.9399 40.34C35.9999 40.13 34.0299 40.25 32.1299 40.69C26.9499 41.74 22.3499 44.71 19.2699 49C17.8799 51.08 20.5899 52.8 22.2099 51.25C26.4399 47.09 31.9699 44.53 37.8799 44Z" fill="#1A1717" style="fill:#1A1717;fill:color(display-p3 0.1020 0.0902 0.0902);fill-opacity:1;"/>
<path d="M45.06 59.18C46.48 58.5 48.19 59.1 48.88 60.52C49.41 61.63 49.17 62.96 48.28 63.82C46.86 64.5 45.15 63.9 44.46 62.48C43.93 61.37 44.17 60.04 45.06 59.18Z" fill="#555050" style="fill:#555050;fill:color(display-p3 0.3333 0.3125 0.3125);fill-opacity:1;"/>
<path d="M93.06 59.18C94.49 58.51 96.19 59.12 96.87 60.55C97.39 61.66 97.15 62.97 96.27 63.82C94.84 64.49 93.14 63.88 92.46 62.45C91.94 61.35 92.18 60.03 93.06 59.18Z" fill="#555050" style="fill:#555050;fill:color(display-p3 0.3333 0.3125 0.3125);fill-opacity:1;"/>
<defs>
<radialGradient id="paint0_radial_169_9390" cx="0" cy="0" r="1" gradientUnits="userSpaceOnUse" gradientTransform="translate(63.6 62.9) scale(56.9597 56.9597)">
<stop offset="0.5" stop-color="#FDE030" style="stop-color:#FDE030;stop-color:color(display-p3 0.9922 0.8784 0.1882);stop-opacity:1;"/>
<stop offset="0.92" stop-color="#F7C02B" style="stop-color:#F7C02B;stop-color:color(display-p3 0.9686 0.7529 0.1686);stop-opacity:1;"/>
<stop offset="1" stop-color="#F4A223" style="stop-color:#F4A223;stop-color:color(display-p3 0.9569 0.6353 0.1373);stop-opacity:1;"/>
</radialGradient>
<radialGradient id="paint1_radial_169_9390" cx="0" cy="0" r="1" gradientUnits="userSpaceOnUse" gradientTransform="translate(38.599 34.5377) rotate(-43.2082) scale(102.024 101.825)">
<stop offset="0.3533" stop-color="#F9DDBD" style="stop-color:#F9DDBD;stop-color:color(display-p3 0.9765 0.8667 0.7412);stop-opacity:1;"/>
<stop offset="0.8723" stop-color="#FFD29C" style="stop-color:#FFD29C;stop-color:color(display-p3 1.0000 0.8235 0.6118);stop-opacity:1;"/>
</radialGradient>
<radialGradient id="paint2_radial_169_9390" cx="0" cy="0" r="1" gradientUnits="userSpaceOnUse" gradientTransform="translate(38.599 34.5377) rotate(-43.2082) scale(102.024 101.825)">
<stop offset="0.3533" stop-color="#70534A" style="stop-color:#70534A;stop-color:color(display-p3 0.4392 0.3255 0.2902);stop-opacity:1;"/>
<stop offset="0.8723" stop-color="#5C4037" style="stop-color:#5C4037;stop-color:color(display-p3 0.3608 0.2510 0.2157);stop-opacity:1;"/>
</radialGradient>
</defs>
</svg>
