<svg width="128" height="128" viewBox="0 0 128 128" fill="none" xmlns="http://www.w3.org/2000/svg">
<path d="M120.44 51.2301C122.34 47.2901 123.4 42.8801 123.4 38.2101C123.4 21.6101 109.95 8.1601 93.35 8.1601C89.46 8.1601 85.74 8.9101 82.32 10.2601C77.95 6.4501 72.22 4.1001 66 4.1001C58.4 4.1001 51.6 7.5001 47.1 12.8001C43.6 10.9001 39.6 9.8001 35.4 9.8001C22 9.9001 11.1 20.7001 11.1 34.1001C11.1 39.1001 12.6 43.8001 15.3 47.7001C10.3 51.7001 6.80003 57.6001 6.10003 64.5001C4.80003 77.9001 14.7 90.0001 28.3 91.3001C31.5 91.6001 34.5 91.3001 37.4 90.5001C38.5 101.2 47.5 109.5 58.5 109.5C65.5 109.5 71.7 106.1 75.5 100.9C79.1 103.7 83.6 105.5 88.6 105.5C99.6 105.5 108.7 97.0001 109.5 86.3001C118 82.4001 124 73.8001 124 63.8001C124 59.2101 122.67 54.8801 120.44 51.2301Z" fill="white" stroke="black" style="fill:white;fill-opacity:1;stroke:black;stroke-opacity:1;" stroke-width="6" stroke-miterlimit="10"/>
<path d="M24.3001 97.3001C19.8001 96.8001 15.8001 100.1 15.3001 104.6C14.8001 109.1 18.1001 113.1 22.6001 113.5C27.1001 114 31.1001 110.7 31.6001 106.2C32.1001 101.7 28.8001 97.7001 24.3001 97.3001Z" fill="white" stroke="black" style="fill:white;fill-opacity:1;stroke:black;stroke-opacity:1;" stroke-width="4.5" stroke-miterlimit="10"/>
<path d="M9.00004 114.3C6.00004 114 3.30004 116.2 3.00004 119.2C2.70004 122.2 4.90004 124.8 7.90004 125.1C10.9 125.4 13.6 123.2 13.9 120.2C14.2 117.3 12 114.6 9.00004 114.3Z" fill="white" stroke="black" style="fill:white;fill-opacity:1;stroke:black;stroke-opacity:1;" stroke-width="4.5" stroke-miterlimit="10"/>
</svg>
