<svg width="128" height="128" viewBox="0 0 128 128" fill="none" xmlns="http://www.w3.org/2000/svg">
<path d="M63.6 118.8C35.7 118.8 5.59998 101.3 5.59998 62.9C5.59998 24.5 35.7 7 63.6 7C79.1 7 93.4 12.1 104 21.4C115.5 31.6 121.6 46 121.6 62.9C121.6 79.8 115.5 94.1 104 104.3C93.4 113.6 79 118.8 63.6 118.8Z" fill="url(#paint0_radial_169_6223)" style=""/>
<path d="M63.6 118.8C35.7 118.8 5.59998 101.3 5.59998 62.9C5.59998 24.5 35.7 7 63.6 7C79.1 7 93.4 12.1 104 21.4C115.5 31.6 121.6 46 121.6 62.9C121.6 79.8 115.5 94.1 104 104.3C93.4 113.6 79 118.8 63.6 118.8Z" fill="url(#paint1_radial_169_6223)" style=""/>
<path d="M44 40.9399C39.81 40.9399 36 44.4799 36 50.3599C36 56.2399 39.81 59.7699 44 59.7699C48.2 59.7699 52 56.2299 52 50.3599C52 44.4899 48.24 40.9399 44 40.9399Z" fill="#312D2D" style="fill:#312D2D;fill:color(display-p3 0.1922 0.1765 0.1765);fill-opacity:1;"/>
<path d="M43.6501 44.8698C42.2301 44.1898 40.5201 44.7898 39.8301 46.2098C39.3001 47.3198 39.5401 48.6498 40.4301 49.5098C41.8501 50.1898 43.5601 49.5898 44.2501 48.1698C44.7801 47.0598 44.5401 45.7298 43.6501 44.8698Z" fill="#767070" style="fill:#767070;fill:color(display-p3 0.4625 0.4374 0.4374);fill-opacity:1;"/>
<path d="M82.4 40.9399C78.21 40.9399 74.4 44.4799 74.4 50.3599C74.4 56.2399 78.21 59.7699 82.4 59.7699C86.59 59.7699 90.4 56.2299 90.4 50.3599C90.4 44.4899 86.59 40.9399 82.4 40.9399Z" fill="#312D2D" style="fill:#312D2D;fill:color(display-p3 0.1922 0.1765 0.1765);fill-opacity:1;"/>
<path d="M82.0001 44.8698C80.5801 44.1898 78.8701 44.7898 78.1801 46.2098C77.6501 47.3198 77.8901 48.6498 78.7801 49.5098C80.2001 50.1898 81.9101 49.5898 82.6001 48.1698C83.1301 47.0598 82.8901 45.7298 82.0001 44.8698Z" fill="#767070" style="fill:#767070;fill:color(display-p3 0.4625 0.4374 0.4374);fill-opacity:1;"/>
<path d="M63 91.6099C53.93 91.6799 45.27 87.8699 39.2 81.1299C38.74 80.5999 38.63 79.8499 38.92 79.2099C39.21 78.5599 39.85 78.1399 40.56 78.1299C40.88 78.1299 41.2 78.2199 41.48 78.3799C46.3 81.1499 54.36 84.5899 63 84.5899H63.14C71.77 84.5899 79.84 81.1499 84.65 78.3799C84.93 78.2199 85.25 78.1299 85.57 78.1299C86.28 78.1399 86.92 78.5599 87.21 79.2099C87.51 79.8499 87.4 80.5999 86.93 81.1299C80.86 87.8699 72.18 91.6899 63.11 91.6099" fill="#312D2D" style="fill:#312D2D;fill:color(display-p3 0.1922 0.1765 0.1765);fill-opacity:1;"/>
<path d="M111.49 29.6699C116.82 38.2699 119.6 48.5099 119.6 59.8999C119.6 76.7999 113.5 91.0999 102 101.3C91.4 110.6 77 115.8 61.6 115.8C43.54 115.8 24.6 108.45 13.42 92.8599C24.18 110.52 44.42 118.8 63.6 118.8C79 118.8 93.4 113.6 104 104.3C115.5 94.0999 121.6 79.7999 121.6 62.8999C121.6 50.1599 118.13 38.8399 111.49 29.6699Z" fill="#EB8F00" style="fill:#EB8F00;fill:color(display-p3 0.9216 0.5608 0.0000);fill-opacity:1;"/>
<path d="M111.49 29.6699C116.82 38.2699 119.6 48.5099 119.6 59.8999C119.6 76.7999 113.5 91.0999 102 101.3C91.4 110.6 77 115.8 61.6 115.8C43.54 115.8 24.6 108.45 13.42 92.8599C24.18 110.52 44.42 118.8 63.6 118.8C79 118.8 93.4 113.6 104 104.3C115.5 94.0999 121.6 79.7999 121.6 62.8999C121.6 50.1599 118.13 38.8399 111.49 29.6699Z" fill="#F3B872" style="fill:#F3B872;fill:color(display-p3 0.9542 0.7229 0.4453);fill-opacity:1;"/>
<defs>
<radialGradient id="paint0_radial_169_6223" cx="0" cy="0" r="1" gradientUnits="userSpaceOnUse" gradientTransform="translate(63.6 62.9) scale(56.9597 56.9597)">
<stop offset="0.5" stop-color="#FDE030" style="stop-color:#FDE030;stop-color:color(display-p3 0.9922 0.8784 0.1882);stop-opacity:1;"/>
<stop offset="0.92" stop-color="#F7C02B" style="stop-color:#F7C02B;stop-color:color(display-p3 0.9686 0.7529 0.1686);stop-opacity:1;"/>
<stop offset="1" stop-color="#F4A223" style="stop-color:#F4A223;stop-color:color(display-p3 0.9569 0.6353 0.1373);stop-opacity:1;"/>
</radialGradient>
<radialGradient id="paint1_radial_169_6223" cx="0" cy="0" r="1" gradientUnits="userSpaceOnUse" gradientTransform="translate(38.599 34.5377) rotate(-43.2082) scale(102.024 101.825)">
<stop offset="0.3533" stop-color="#F9DDBD" style="stop-color:#F9DDBD;stop-color:color(display-p3 0.9765 0.8667 0.7412);stop-opacity:1;"/>
<stop offset="0.8723" stop-color="#FFD29C" style="stop-color:#FFD29C;stop-color:color(display-p3 1.0000 0.8235 0.6118);stop-opacity:1;"/>
</radialGradient>
</defs>
</svg>
