<svg width="128" height="128" viewBox="0 0 128 128" fill="none" xmlns="http://www.w3.org/2000/svg">
<path d="M63.6001 118.8C35.7001 118.8 5.6001 101.3 5.6001 62.9C5.6001 24.5 35.7001 7 63.6001 7C79.1001 7 93.4001 12.1 104 21.4C115.5 31.6 121.6 46 121.6 62.9C121.6 79.8 115.5 94.1 104 104.3C93.4001 113.6 79.0001 118.8 63.6001 118.8Z" fill="url(#paint0_radial_169_13215)" style=""/>
<path d="M63.6001 118.8C35.7001 118.8 5.6001 101.3 5.6001 62.9C5.6001 24.5 35.7001 7 63.6001 7C79.1001 7 93.4001 12.1 104 21.4C115.5 31.6 121.6 46 121.6 62.9C121.6 79.8 115.5 94.1 104 104.3C93.4001 113.6 79.0001 118.8 63.6001 118.8Z" fill="url(#paint1_radial_169_13215)" style=""/>
<path d="M63.6001 118.8C35.7001 118.8 5.6001 101.3 5.6001 62.9C5.6001 24.5 35.7001 7 63.6001 7C79.1001 7 93.4001 12.1 104 21.4C115.5 31.6 121.6 46 121.6 62.9C121.6 79.8 115.5 94.1 104 104.3C93.4001 113.6 79.0001 118.8 63.6001 118.8Z" fill="url(#paint2_radial_169_13215)" style=""/>
<path d="M63.6001 118.8C35.7001 118.8 5.6001 101.3 5.6001 62.9C5.6001 24.5 35.7001 7 63.6001 7C79.1001 7 93.4001 12.1 104 21.4C115.5 31.6 121.6 46 121.6 62.9C121.6 79.8 115.5 94.1 104 104.3C93.4001 113.6 79.0001 118.8 63.6001 118.8Z" fill="url(#paint3_radial_169_13215)" style=""/>
<path d="M63.6001 118.8C35.7001 118.8 5.6001 101.3 5.6001 62.9C5.6001 24.5 35.7001 7 63.6001 7C79.1001 7 93.4001 12.1 104 21.4C115.5 31.6 121.6 46 121.6 62.9C121.6 79.8 115.5 94.1 104 104.3C93.4001 113.6 79.0001 118.8 63.6001 118.8Z" fill="url(#paint4_radial_169_13215)" style=""/>
<path d="M72.8601 84.9301C74.5701 83.4201 75.6401 81.3301 75.8601 79.0601C76.0501 75.4601 75.1301 74.2201 73.9501 72.6501C71.2401 69.0001 63.5501 69.8701 63.5501 69.8701C61.5501 69.9501 59.1101 70.9301 59.4001 73.3101C59.7901 74.6601 60.8901 75.6901 62.2701 76.0001C65.2701 76.7301 69.6401 76.0001 69.7601 79.0901C69.9001 82.5501 64.5801 81.0901 64.1601 84.7901C63.7401 88.4901 69.7601 87.9801 69.7601 90.5001C69.7601 92.4301 67.7601 92.7601 65.6901 93.2001C63.9001 93.5701 60.4601 94.1301 60.1801 96.2001C59.9001 98.2701 61.0901 100.77 65.9301 100.04C73.5401 98.8901 76.1001 94.7201 76.1001 92.1601C76.1501 89.3901 74.9601 86.7401 72.8601 84.9301Z" fill="#49362E" style="fill:#49362E;fill:color(display-p3 0.2863 0.2118 0.1804);fill-opacity:1;"/>
<path d="M72.8601 84.9301C74.5701 83.4201 75.6401 81.3301 75.8601 79.0601C76.0501 75.4601 75.1301 74.2201 73.9501 72.6501C71.2401 69.0001 63.5501 69.8701 63.5501 69.8701C61.5501 69.9501 59.1101 70.9301 59.4001 73.3101C59.7901 74.6601 60.8901 75.6901 62.2701 76.0001C65.2701 76.7301 69.6401 76.0001 69.7601 79.0901C69.9001 82.5501 64.5801 81.0901 64.1601 84.7901C63.7401 88.4901 69.7601 87.9801 69.7601 90.5001C69.7601 92.4301 67.7601 92.7601 65.6901 93.2001C63.9001 93.5701 60.4601 94.1301 60.1801 96.2001C59.9001 98.2701 61.0901 100.77 65.9301 100.04C73.5401 98.8901 76.1001 94.7201 76.1001 92.1601C76.1501 89.3901 74.9601 86.7401 72.8601 84.9301Z" fill="#1A1717" style="fill:#1A1717;fill:color(display-p3 0.1020 0.0902 0.0902);fill-opacity:1;"/>
<path d="M72.8601 84.9301C74.5701 83.4201 75.6401 81.3301 75.8601 79.0601C76.0501 75.4601 75.1301 74.2201 73.9501 72.6501C71.2401 69.0001 63.5501 69.8701 63.5501 69.8701C61.5501 69.9501 59.1101 70.9301 59.4001 73.3101C59.7901 74.6601 60.8901 75.6901 62.2701 76.0001C65.2701 76.7301 69.6401 76.0001 69.7601 79.0901C69.9001 82.5501 64.5801 81.0901 64.1601 84.7901C63.7401 88.4901 69.7601 87.9801 69.7601 90.5001C69.7601 92.4301 67.7601 92.7601 65.6901 93.2001C63.9001 93.5701 60.4601 94.1301 60.1801 96.2001C59.9001 98.2701 61.0901 100.77 65.9301 100.04C73.5401 98.8901 76.1001 94.7201 76.1001 92.1601C76.1501 89.3901 74.9601 86.7401 72.8601 84.9301Z" fill="#5D4037" style="fill:#5D4037;fill:color(display-p3 0.3647 0.2510 0.2157);fill-opacity:1;"/>
<path d="M44 40.9401C39.81 40.9401 36 44.4801 36 50.3601C36 56.2401 39.81 59.7701 44 59.7701C48.2 59.7701 52 56.2301 52 50.3601C52 44.4901 48.24 40.9401 44 40.9401Z" fill="#49362E" style="fill:#49362E;fill:color(display-p3 0.2863 0.2118 0.1804);fill-opacity:1;"/>
<path d="M44 40.9401C39.81 40.9401 36 44.4801 36 50.3601C36 56.2401 39.81 59.7701 44 59.7701C48.2 59.7701 52 56.2301 52 50.3601C52 44.4901 48.24 40.9401 44 40.9401Z" fill="#1A1717" style="fill:#1A1717;fill:color(display-p3 0.1020 0.0902 0.0902);fill-opacity:1;"/>
<path d="M44 40.9401C39.81 40.9401 36 44.4801 36 50.3601C36 56.2401 39.81 59.7701 44 59.7701C48.2 59.7701 52 56.2301 52 50.3601C52 44.4901 48.24 40.9401 44 40.9401Z" fill="#49362E" style="fill:#49362E;fill:color(display-p3 0.2863 0.2118 0.1804);fill-opacity:1;"/>
<path d="M43.65 44.8701C42.23 44.1901 40.52 44.7901 39.83 46.2101C39.3 47.3201 39.54 48.6501 40.43 49.5101C41.85 50.1901 43.56 49.5901 44.25 48.1701C44.78 47.0601 44.54 45.7301 43.65 44.8701Z" fill="#555050" style="fill:#555050;fill:color(display-p3 0.3333 0.3125 0.3125);fill-opacity:1;"/>
<path d="M43.65 44.8701C42.23 44.1901 40.52 44.7901 39.83 46.2101C39.3 47.3201 39.54 48.6501 40.43 49.5101C41.85 50.1901 43.56 49.5901 44.25 48.1701C44.78 47.0601 44.54 45.7301 43.65 44.8701Z" fill="#6A564E" style="fill:#6A564E;fill:color(display-p3 0.4167 0.3385 0.3056);fill-opacity:1;"/>
<path d="M82.3999 40.9401C78.2099 40.9401 74.3999 44.4801 74.3999 50.3601C74.3999 56.2401 78.2099 59.7701 82.3999 59.7701C86.5899 59.7701 90.3999 56.2301 90.3999 50.3601C90.3999 44.4901 86.5899 40.9401 82.3999 40.9401Z" fill="#49362E" style="fill:#49362E;fill:color(display-p3 0.2863 0.2118 0.1804);fill-opacity:1;"/>
<path d="M82.3999 40.9401C78.2099 40.9401 74.3999 44.4801 74.3999 50.3601C74.3999 56.2401 78.2099 59.7701 82.3999 59.7701C86.5899 59.7701 90.3999 56.2301 90.3999 50.3601C90.3999 44.4901 86.5899 40.9401 82.3999 40.9401Z" fill="#1A1717" style="fill:#1A1717;fill:color(display-p3 0.1020 0.0902 0.0902);fill-opacity:1;"/>
<path d="M82.3999 40.9401C78.2099 40.9401 74.3999 44.4801 74.3999 50.3601C74.3999 56.2401 78.2099 59.7701 82.3999 59.7701C86.5899 59.7701 90.3999 56.2301 90.3999 50.3601C90.3999 44.4901 86.5899 40.9401 82.3999 40.9401Z" fill="#49362E" style="fill:#49362E;fill:color(display-p3 0.2863 0.2118 0.1804);fill-opacity:1;"/>
<path d="M82.0001 44.8701C80.5801 44.1901 78.8701 44.7901 78.1801 46.2101C77.6501 47.3201 77.8901 48.6501 78.7801 49.5101C80.2001 50.1901 81.9101 49.5901 82.6001 48.1701C83.1301 47.0601 82.8901 45.7301 82.0001 44.8701Z" fill="#555050" style="fill:#555050;fill:color(display-p3 0.3333 0.3125 0.3125);fill-opacity:1;"/>
<path d="M82.0001 44.8701C80.5801 44.1901 78.8701 44.7901 78.1801 46.2101C77.6501 47.3201 77.8901 48.6501 78.7801 49.5101C80.2001 50.1901 81.9101 49.5901 82.6001 48.1701C83.1301 47.0601 82.8901 45.7301 82.0001 44.8701Z" fill="#6A564E" style="fill:#6A564E;fill:color(display-p3 0.4167 0.3385 0.3056);fill-opacity:1;"/>
<path d="M111.49 29.67C116.82 38.27 119.6 48.51 119.6 59.9C119.6 76.8 113.5 91.1 102 101.3C91.3999 110.6 76.9999 115.8 61.5999 115.8C43.5399 115.8 24.5999 108.45 13.4199 92.86C24.1799 110.52 44.4199 118.8 63.5999 118.8C78.9999 118.8 93.3999 113.6 104 104.3C115.5 94.1001 121.6 79.8 121.6 62.9C121.6 50.16 118.13 38.84 111.49 29.67Z" fill="#EB8F00" style="fill:#EB8F00;fill:color(display-p3 0.9216 0.5608 0.0000);fill-opacity:1;"/>
<path d="M111.49 29.67C116.82 38.27 119.6 48.51 119.6 59.9C119.6 76.8 113.5 91.1 102 101.3C91.3999 110.6 76.9999 115.8 61.5999 115.8C43.5399 115.8 24.5999 108.45 13.4199 92.86C24.1799 110.52 44.4199 118.8 63.5999 118.8C78.9999 118.8 93.3999 113.6 104 104.3C115.5 94.1001 121.6 79.8 121.6 62.9C121.6 50.16 118.13 38.84 111.49 29.67Z" fill="#F3B872" style="fill:#F3B872;fill:color(display-p3 0.9542 0.7229 0.4453);fill-opacity:1;"/>
<path d="M111.49 29.67C116.82 38.27 119.6 48.51 119.6 59.9C119.6 76.8 113.5 91.1 102 101.3C91.3999 110.6 76.9999 115.8 61.5999 115.8C43.5399 115.8 24.5999 108.45 13.4199 92.86C24.1799 110.52 44.4199 118.8 63.5999 118.8C78.9999 118.8 93.3999 113.6 104 104.3C115.5 94.1001 121.6 79.8 121.6 62.9C121.6 50.16 118.13 38.84 111.49 29.67Z" fill="#91674D" style="fill:#91674D;fill:color(display-p3 0.5686 0.4039 0.3020);fill-opacity:1;"/>
<defs>
<radialGradient id="paint0_radial_169_13215" cx="0" cy="0" r="1" gradientUnits="userSpaceOnUse" gradientTransform="translate(63.6001 62.9) scale(56.9597 56.9597)">
<stop offset="0.5" stop-color="#FDE030" style="stop-color:#FDE030;stop-color:color(display-p3 0.9922 0.8784 0.1882);stop-opacity:1;"/>
<stop offset="0.92" stop-color="#F7C02B" style="stop-color:#F7C02B;stop-color:color(display-p3 0.9686 0.7529 0.1686);stop-opacity:1;"/>
<stop offset="1" stop-color="#F4A223" style="stop-color:#F4A223;stop-color:color(display-p3 0.9569 0.6353 0.1373);stop-opacity:1;"/>
</radialGradient>
<radialGradient id="paint1_radial_169_13215" cx="0" cy="0" r="1" gradientUnits="userSpaceOnUse" gradientTransform="translate(38.5991 34.5377) rotate(-43.2082) scale(102.024 101.825)">
<stop offset="0.3533" stop-color="#F9DDBD" style="stop-color:#F9DDBD;stop-color:color(display-p3 0.9765 0.8667 0.7412);stop-opacity:1;"/>
<stop offset="0.8723" stop-color="#FFD29C" style="stop-color:#FFD29C;stop-color:color(display-p3 1.0000 0.8235 0.6118);stop-opacity:1;"/>
</radialGradient>
<radialGradient id="paint2_radial_169_13215" cx="0" cy="0" r="1" gradientUnits="userSpaceOnUse" gradientTransform="translate(38.5991 34.5377) rotate(-43.2082) scale(102.024 101.825)">
<stop offset="0.3533" stop-color="#70534A" style="stop-color:#70534A;stop-color:color(display-p3 0.4392 0.3255 0.2902);stop-opacity:1;"/>
<stop offset="0.8723" stop-color="#5C4037" style="stop-color:#5C4037;stop-color:color(display-p3 0.3608 0.2510 0.2157);stop-opacity:1;"/>
</radialGradient>
<radialGradient id="paint3_radial_169_13215" cx="0" cy="0" r="1" gradientUnits="userSpaceOnUse" gradientTransform="translate(38.5991 34.5377) rotate(-43.2082) scale(102.024 101.825)">
<stop offset="0.3533" stop-color="#A37A58" style="stop-color:#A37A58;stop-color:color(display-p3 0.6375 0.4772 0.3453);stop-opacity:1;"/>
<stop offset="0.8723" stop-color="#8D5738" style="stop-color:#8D5738;stop-color:color(display-p3 0.5529 0.3412 0.2196);stop-opacity:1;"/>
</radialGradient>
<radialGradient id="paint4_radial_169_13215" cx="0" cy="0" r="1" gradientUnits="userSpaceOnUse" gradientTransform="translate(38.5991 34.5377) rotate(-43.2082) scale(102.024 101.825)">
<stop offset="0.3533" stop-color="#AD8264" style="stop-color:#AD8264;stop-color:color(display-p3 0.6784 0.5098 0.3922);stop-opacity:1;"/>
<stop offset="0.8723" stop-color="#A47B62" style="stop-color:#A47B62;stop-color:color(display-p3 0.6431 0.4824 0.3843);stop-opacity:1;"/>
</radialGradient>
</defs>
</svg>
