<svg width="128" height="128" viewBox="0 0 128 128" fill="none" xmlns="http://www.w3.org/2000/svg">
<path d="M63.6001 118.8C35.7001 118.8 5.6001 101.3 5.6001 62.9C5.6001 24.5 35.7001 7 63.6001 7C79.1001 7 93.4001 12.1 104 21.4C115.5 31.6 121.6 46 121.6 62.9C121.6 79.8 115.5 94.1 104 104.3C93.4001 113.6 79.0001 118.8 63.6001 118.8Z" fill="url(#paint0_radial_169_5845)" style=""/>
<path d="M63.6001 118.8C35.7001 118.8 5.6001 101.3 5.6001 62.9C5.6001 24.5 35.7001 7 63.6001 7C79.1001 7 93.4001 12.1 104 21.4C115.5 31.6 121.6 46 121.6 62.9C121.6 79.8 115.5 94.1 104 104.3C93.4001 113.6 79.0001 118.8 63.6001 118.8Z" fill="url(#paint1_radial_169_5845)" style=""/>
<path d="M111.49 29.67C116.82 38.27 119.6 48.51 119.6 59.9C119.6 76.8 113.5 91.1 102 101.3C91.4002 110.6 77.0002 115.8 61.6002 115.8C43.5402 115.8 24.6002 108.45 13.4202 92.86C24.1802 110.52 44.4202 118.8 63.6002 118.8C79.0002 118.8 93.4002 113.6 104 104.3C115.5 94.1001 121.6 79.8 121.6 62.9C121.6 50.16 118.13 38.84 111.49 29.67Z" fill="#EB8F00" style="fill:#EB8F00;fill:color(display-p3 0.9216 0.5608 0.0000);fill-opacity:1;"/>
<path d="M111.49 29.67C116.82 38.27 119.6 48.51 119.6 59.9C119.6 76.8 113.5 91.1 102 101.3C91.4002 110.6 77.0002 115.8 61.6002 115.8C43.5402 115.8 24.6002 108.45 13.4202 92.86C24.1802 110.52 44.4202 118.8 63.6002 118.8C79.0002 118.8 93.4002 113.6 104 104.3C115.5 94.1001 121.6 79.8 121.6 62.9C121.6 50.16 118.13 38.84 111.49 29.67Z" fill="#F3B872" style="fill:#F3B872;fill:color(display-p3 0.9542 0.7229 0.4453);fill-opacity:1;"/>
<path d="M120.39 82.08C119.28 76.56 113.9 72.98 108.37 74.1C107.55 74.27 106.75 74.53 106 74.89C106.35 69.28 102.09 64.44 96.4801 64.09C92.9101 63.87 89.4901 65.53 87.4601 68.47C83.8101 73.93 84.7801 81.71 86.4601 87.83C87.4601 91.44 86.2301 95.31 83.3301 97.68C103.61 101.57 113.56 97.78 118.88 89.68C120.38 87.45 120.92 84.71 120.39 82.08Z" fill="#E53935" style="fill:#E53935;fill:color(display-p3 0.8980 0.2235 0.2078);fill-opacity:1;"/>
<path d="M98.09 100.78C96.95 100.78 87.18 99.87 83.25 97.67C83.4 97.44 89.25 97.61 97.86 97.75C100.79 97.81 103.71 97.5 106.55 96.81C110.55 95.81 114.31 93.81 116.55 90.28C117.85 88.28 119.2 85.54 118.95 83.13C118.49 80.02 117.04 77.14 114.82 74.92C116.53 75.44 118.07 76.4 119.29 77.7C122.57 81.64 122.09 87.28 119.06 91.92C115.25 97.84 108.32 100.78 98.09 100.78Z" fill="#C62828" style="fill:#C62828;fill:color(display-p3 0.7765 0.1569 0.1569);fill-opacity:1;"/>
<path d="M90.56 67.63C91.74 66.58 93.22 65.91 94.8 65.74C96.42 65.62 98.3 66.43 98.64 68.02C98.77 69.12 98.41 70.22 97.64 71.02C96.91 71.87 96.01 72.5401 95.32 73.4101C93.45 75.7501 93.38 79.04 91.97 81.68C91.47 82.6101 90.46 83.5501 89.5 83.1201C89.2 82.9701 88.95 82.7501 88.76 82.4801C85.38 78.3601 86.6 71 90.56 67.63Z" fill="#EF5350" style="fill:#EF5350;fill:color(display-p3 0.9373 0.3255 0.3137);fill-opacity:1;"/>
<path d="M104.73 79.1C104.36 79.36 103.91 79.47 103.46 79.41C103 79.31 102.62 78.98 102.46 78.54C102.29 78.06 102.42 77.53 102.79 77.19C103.15 76.74 103.4 76.22 103.54 75.67C103.84 74.52 103.92 73.33 103.79 72.15C103.64 70.26 102.27 67.5 101.49 65.77C103.25 66.86 104.66 68.44 105.55 70.31C106.17 71.87 106.46 73.53 106.42 75.21C106.5 76.64 105.94 78.03 104.89 79.01L104.73 79.1Z" fill="#C62828" style="fill:#C62828;fill:color(display-p3 0.7765 0.1569 0.1569);fill-opacity:1;"/>
<path d="M97.4301 55.43L97.2401 55.16C97.0601 54.9 96.8601 54.65 96.6501 54.41C95.9401 53.59 95.1201 52.86 94.2301 52.24C93.0301 51.4 91.7301 50.71 90.3601 50.19C89.6101 49.9 88.8401 49.65 88.0601 49.46C87.6701 49.36 87.2401 49.26 86.8101 49.18L86.2101 49.07C86.4001 48.96 86.5901 48.85 86.7901 48.75L88.5401 47.83C89.6801 47.25 90.7401 46.75 91.6401 46.34C92.5401 45.93 93.2801 45.65 93.7801 45.46L94.5401 45.18L94.7601 45.1C96.1901 44.58 96.9301 42.99 96.4001 41.56C96.0101 40.51 95.0301 39.79 93.9101 39.75C93.4901 39.73 93.0801 39.73 92.6601 39.75C91.6501 39.84 90.6401 40.01 89.6601 40.26C88.3201 40.59 87.0101 41.03 85.7301 41.56C85.0501 41.85 84.3301 42.14 83.6401 42.49C82.9501 42.84 82.2001 43.23 81.5801 43.57C80.9601 43.91 80.2101 44.38 79.5801 44.81C78.9501 45.24 78.3001 45.69 77.7001 46.13C76.5901 46.95 75.5501 47.86 74.5701 48.83C73.8401 49.55 73.1701 50.33 72.5701 51.17C72.3601 51.43 72.1601 51.71 72.0001 52L71.8601 52.23C71.4901 52.88 71.4001 53.65 71.6101 54.37C71.6401 54.61 71.7001 54.84 71.7801 55.06C72.3501 56.47 73.9601 57.16 75.3801 56.59L75.6301 56.49L75.9201 56.37L76.1601 56.32L76.9601 56.12C77.2801 56.04 77.6701 55.98 78.0901 55.91C79.0801 55.77 80.0901 55.69 81.0901 55.69C82.2801 55.69 83.4601 55.78 84.6401 55.94C84.8401 55.94 85.3701 56.04 85.5801 56.09L86.4201 56.26C87.0101 56.39 87.5801 56.51 88.1101 56.68C89.0701 56.94 90.0201 57.28 90.9301 57.68C91.5401 57.95 92.1201 58.27 92.6901 58.62C93.0901 58.86 93.2901 59 93.2901 59L93.5701 59.21C94.7801 60.11 96.4901 59.85 97.3901 58.64C98.1001 57.68 98.1101 56.38 97.4101 55.42L97.4301 55.43Z" fill="#312D2D" style="fill:#312D2D;fill:color(display-p3 0.1922 0.1765 0.1765);fill-opacity:1;"/>
<path d="M72.8601 84.93C74.5701 83.42 75.6401 81.33 75.8601 79.06C76.0501 75.46 75.1301 74.22 73.9501 72.65C71.2401 69 63.5501 69.87 63.5501 69.87C61.5501 69.95 59.1101 70.93 59.4001 73.31C59.7901 74.66 60.8901 75.69 62.2701 76C65.2701 76.73 69.6401 76 69.7601 79.09C69.9001 82.55 64.5801 81.09 64.1601 84.79C63.7401 88.49 69.7601 87.98 69.7601 90.5C69.7601 92.43 67.7601 92.76 65.6901 93.2C63.9001 93.57 60.4601 94.13 60.1801 96.2C59.9001 98.27 61.0901 100.77 65.9301 100.04C73.5401 98.89 76.1001 94.72 76.1001 92.16C76.1501 89.39 74.9601 86.74 72.8601 84.93Z" fill="#312D2D" style="fill:#312D2D;fill:color(display-p3 0.1922 0.1765 0.1765);fill-opacity:1;"/>
<path d="M43.4001 31.0601C45.6101 30.3901 45.2901 27.1701 42.8001 27.4201C40.8601 27.6501 38.9701 28.1801 37.2001 29.0001C32.3601 31.1601 28.5401 35.1001 26.5201 40.0001C25.6201 42.3001 28.6601 43.4501 29.8501 41.5701C33.0601 36.6501 37.8301 32.9401 43.4001 31.0601Z" fill="#312D2D" style="fill:#312D2D;fill:color(display-p3 0.1922 0.1765 0.1765);fill-opacity:1;"/>
<path d="M43.6702 40.9399C39.4802 40.9399 35.6702 44.4799 35.6702 50.3599C35.6702 56.2399 39.4802 59.7699 43.6702 59.7699C47.8602 59.7699 51.6702 56.2299 51.6702 50.3599C51.6702 44.4899 47.8602 40.9399 43.6702 40.9399Z" fill="#312D2D" style="fill:#312D2D;fill:color(display-p3 0.1922 0.1765 0.1765);fill-opacity:1;"/>
<path d="M43.2801 44.87C41.8601 44.19 40.1501 44.79 39.4601 46.21C38.9301 47.32 39.1701 48.65 40.0601 49.51C41.4801 50.19 43.1901 49.59 43.8801 48.17C44.4101 47.06 44.1701 45.73 43.2801 44.87Z" fill="#767070" style="fill:#767070;fill:color(display-p3 0.4625 0.4374 0.4374);fill-opacity:1;"/>
<defs>
<radialGradient id="paint0_radial_169_5845" cx="0" cy="0" r="1" gradientUnits="userSpaceOnUse" gradientTransform="translate(63.6001 62.9) scale(56.9597 56.9597)">
<stop offset="0.5" stop-color="#FDE030" style="stop-color:#FDE030;stop-color:color(display-p3 0.9922 0.8784 0.1882);stop-opacity:1;"/>
<stop offset="0.92" stop-color="#F7C02B" style="stop-color:#F7C02B;stop-color:color(display-p3 0.9686 0.7529 0.1686);stop-opacity:1;"/>
<stop offset="1" stop-color="#F4A223" style="stop-color:#F4A223;stop-color:color(display-p3 0.9569 0.6353 0.1373);stop-opacity:1;"/>
</radialGradient>
<radialGradient id="paint1_radial_169_5845" cx="0" cy="0" r="1" gradientUnits="userSpaceOnUse" gradientTransform="translate(38.5991 34.5377) rotate(-43.2082) scale(102.024 101.825)">
<stop offset="0.3533" stop-color="#F9DDBD" style="stop-color:#F9DDBD;stop-color:color(display-p3 0.9765 0.8667 0.7412);stop-opacity:1;"/>
<stop offset="0.8723" stop-color="#FFD29C" style="stop-color:#FFD29C;stop-color:color(display-p3 1.0000 0.8235 0.6118);stop-opacity:1;"/>
</radialGradient>
</defs>
</svg>
