<svg width="128" height="128" viewBox="0 0 128 128" fill="none" xmlns="http://www.w3.org/2000/svg">
<path d="M36.4401 103.55C57.0101 116.54 87.3401 117.65 105.22 89.34C123.1 61.03 109.05 34.12 88.4801 21.13C77.0601 13.92 64.1401 11.02 52.0001 12.94C38.7701 15.11 27.5801 22.88 19.7101 35.34C11.8401 47.8 9.68008 61.18 13.4101 74.05C16.9001 85.85 25.0901 96.38 36.4401 103.55Z" fill="url(#paint0_radial_2354_56)" style=""/>
<path d="M67.92 118.82C67.98 119.33 68.43 119.71 68.94 119.67C74.84 119.2 80.75 117.77 86.2 115.21C91.98 112.6 97.16 108.76 101.68 104.35C106.18 99.8798 109.89 94.7398 113 89.2798C116.03 83.7698 118.38 77.7898 119.61 71.5498C120.8 65.3198 121.07 58.8498 119.9 52.6098C119.46 49.8798 118.74 47.2098 117.86 44.6098C117.65 43.9898 116.97 43.6498 116.35 43.8498C115.73 44.0498 115.38 44.7098 115.56 45.3398C116.27 47.8498 116.88 50.3898 117.18 52.9898C118.03 58.9298 117.69 65.0098 116.41 70.8598C115.14 76.7198 112.91 82.3598 109.96 87.5798C104.19 98.0598 95.71 107.29 84.97 112.74C79.91 115.34 74.38 116.99 68.75 117.77C68.22 117.84 67.85 118.31 67.92 118.82Z" fill="#EEBA4B" style="fill:#EEBA4B;fill:color(display-p3 0.9333 0.7294 0.2941);fill-opacity:1;"/>
<path d="M124.1 69.6798C123.58 69.7298 123.17 70.1098 123.08 70.6198C122.69 72.7198 122.18 74.7898 121.56 76.8298C119.32 84.2898 115.68 91.2698 111.23 97.6398C107.04 103.62 102.01 109.06 96.1199 113.39C95.4899 113.85 95.3399 114.71 95.7799 115.35C96.2099 115.98 97.0699 116.17 97.7199 115.75C100.77 113.79 103.56 111.43 106.2 108.94C109.12 106.08 111.73 102.93 114.11 99.6398C116.36 96.2698 118.46 92.7898 120.18 89.0998C121.85 85.3998 123.31 81.5798 124.21 77.5998C124.75 75.4098 125.14 73.1698 125.38 70.9298C125.43 70.2198 124.82 69.6098 124.1 69.6798Z" fill="#EEBA4B" style="fill:#EEBA4B;fill:color(display-p3 0.9333 0.7294 0.2941);fill-opacity:1;"/>
<path d="M6.27011 63.2801C7.01012 63.2901 7.62012 62.7101 7.68012 61.9701C8.10012 56.6501 9.23012 51.4101 11.1601 46.4401C13.1401 41.0201 16.0201 35.9001 19.3501 31.1501C22.6301 26.3601 26.5301 22.0301 31.0101 18.4401C35.1101 15.0801 39.7201 12.3501 44.6701 10.3901C45.3601 10.1201 45.7301 9.36014 45.5001 8.65014C45.2601 7.91014 44.4501 7.49014 43.7101 7.75014C32.6101 11.6301 23.1201 19.5101 16.4701 29.1401C13.0201 34.1601 10.0401 39.5501 8.03012 45.3201C6.15012 50.6201 5.03011 56.2001 4.84011 61.8201C4.84011 62.6201 5.48011 63.2801 6.27011 63.2801Z" fill="#EEBA4B" style="fill:#EEBA4B;fill:color(display-p3 0.9333 0.7294 0.2941);fill-opacity:1;"/>
<path d="M30.32 7.29983C30.17 6.63983 29.42 6.30983 28.84 6.65983C25.9 8.47983 23.12 10.5598 20.55 12.8798C14.69 18.1098 9.86 24.4098 5.94 31.1998C4.31 34.1298 2.85999 37.1698 1.63 40.2998C1.29 41.1698 1.75 42.1498 2.62 42.4698C3.46 42.7798 4.39 42.3598 4.73 41.5298C5.96 38.5798 7.37 35.7098 8.98 32.9298C10.81 29.6498 12.86 26.4998 15.1 23.4898C17.29 20.4398 19.78 17.6398 22.38 14.9298C24.72 12.5398 27.25 10.3398 29.95 8.29983C30.25 8.05983 30.4 7.67983 30.32 7.29983Z" fill="#EEBA4B" style="fill:#EEBA4B;fill:color(display-p3 0.9333 0.7294 0.2941);fill-opacity:1;"/>
<path d="M42.63 15.5498C34.7 19.4098 27.88 25.6698 22.58 34.0598C14.71 46.5198 12.55 59.8998 16.28 72.7698C19.77 84.5598 27.96 95.0998 39.31 102.26C52.63 110.67 70.03 114.08 85.5 107.78C69.35 115.79 50.58 112.48 36.44 103.54C25.09 96.3698 16.89 85.8398 13.41 74.0498C9.68 61.1798 11.84 47.7998 19.71 35.3398C25.64 25.9498 33.47 19.2198 42.63 15.5498Z" fill="#EB8F00" style="fill:#EB8F00;fill:color(display-p3 0.9216 0.5608 0.0000);fill-opacity:1;"/>
<path d="M62.0801 34.6801C59.5301 33.0701 54.8301 35.3901 50.8801 41.6601C46.9301 47.93 46.8501 53.17 49.4001 54.78C51.9501 56.39 56.6501 54.07 60.6001 47.8C64.5501 41.53 64.6301 36.2801 62.0801 34.6801Z" fill="#422B0D" style="fill:#422B0D;fill:color(display-p3 0.2588 0.1686 0.0510);fill-opacity:1;"/>
<path d="M87.1201 50.4799C89.8401 52.1999 89.9201 57.5299 85.9601 63.7999C82.0001 70.0699 77.1501 72.2899 74.4301 70.5699C71.7101 68.8499 71.6301 63.5199 75.5901 57.2499C79.5501 50.9799 84.4001 48.7699 87.1201 50.4799Z" fill="#422B0D" style="fill:#422B0D;fill:color(display-p3 0.2588 0.1686 0.0510);fill-opacity:1;"/>
<path d="M85.72 53.04C86.71 53 87.66 53.8 87.72 55.19C87.78 56.58 86.91 57.46 85.92 57.51C84.93 57.55 83.98 56.75 83.92 55.36C83.86 53.97 84.72 53.08 85.72 53.04Z" fill="#896024" style="fill:#896024;fill:color(display-p3 0.5373 0.3765 0.1412);fill-opacity:1;"/>
<path d="M60.1602 36.8999C61.1502 36.8599 62.1002 37.6599 62.1602 39.0499C62.2202 40.4399 61.3502 41.3199 60.3602 41.3699C59.3702 41.4099 58.4202 40.6099 58.3602 39.2199C58.3002 37.8199 59.1702 36.9399 60.1602 36.8999Z" fill="#896024" style="fill:#896024;fill:color(display-p3 0.5373 0.3765 0.1412);fill-opacity:1;"/>
<path d="M90.3101 77.48C93.0401 75.11 95.2601 72.38 96.9201 69.42C98.4101 66.75 99.4401 63.9 99.9501 60.95C100.01 60.58 100.46 59.93 101.2 59.96C101.94 59.99 102.17 60.68 102.19 60.98C102.35 64.29 101.45 67.49 99.6301 70.63C97.4701 74.37 94.9601 76.9 91.8501 79.06C91.5101 79.3 90.7301 79.65 90.1501 78.96C89.5701 78.27 90.0401 77.71 90.3101 77.48Z" fill="#BF9052" style="fill:#BF9052;fill:color(display-p3 0.7490 0.5647 0.3216);fill-opacity:1;"/>
<path d="M88.43 65.3598C90.88 61.4898 91.78 57.9698 91.47 55.4398C92.96 54.9398 94.31 55.0198 95.35 55.6698C98.07 57.3898 98.15 62.7198 94.19 68.9898C90.23 75.2598 85.38 77.4798 82.66 75.7598C81.62 75.1098 80.97 73.9198 80.78 72.3598C83.19 71.5598 85.98 69.2398 88.43 65.3598Z" fill="#896024" style="fill:#896024;fill:color(display-p3 0.5373 0.3765 0.1412);fill-opacity:1;"/>
<path d="M37.25 43.9699C38.22 40.4899 39.73 37.3099 41.69 34.5399C43.46 32.0499 45.59 29.8899 48.04 28.1699C48.35 27.9499 48.74 27.2799 48.4 26.6199C48.06 25.9599 47.33 26.0499 47.05 26.1699C43.99 27.4399 41.49 29.6299 39.43 32.6299C36.99 36.1899 35.78 39.5399 35.17 43.2799C35.1 43.6899 35.12 44.5499 35.99 44.7699C36.86 44.9899 37.15 44.3099 37.25 43.9699Z" fill="#BF9052" style="fill:#BF9052;fill:color(display-p3 0.7490 0.5647 0.3216);fill-opacity:1;"/>
<path d="M48.9901 40.4597C51.4401 36.5897 54.2301 34.2597 56.6401 33.4497C56.4501 31.8897 55.8001 30.6997 54.7601 30.0497C52.0401 28.3297 47.1901 30.5597 43.2301 36.8197C39.2701 43.0797 39.3601 48.4197 42.0701 50.1397C43.1101 50.7897 44.4601 50.8697 45.9501 50.3697C45.6501 47.8497 46.5501 44.3397 48.9901 40.4597Z" fill="#896024" style="fill:#896024;fill:color(display-p3 0.5373 0.3765 0.1412);fill-opacity:1;"/>
<path d="M59.4501 86.5697C60.6601 84.5697 61.4201 81.6197 60.9301 78.4297C59.9501 71.9897 54.0801 68.2797 47.8401 70.1197C41.9301 71.8597 37.7501 78.2397 38.5001 84.3697C39.3801 91.5197 46.2501 95.4197 52.9501 92.5497C55.5101 91.4397 57.5201 89.6797 59.4501 86.5697Z" fill="#422B0D" style="fill:#422B0D;fill:color(display-p3 0.2588 0.1686 0.0510);fill-opacity:1;"/>
<defs>
<radialGradient id="paint0_radial_2354_56" cx="0" cy="0" r="1" gradientUnits="userSpaceOnUse" gradientTransform="translate(62.4729 62.2122) rotate(-147.729) scale(49.6572 49.6572)">
<stop offset="0.5" stop-color="#FDE030" style="stop-color:#FDE030;stop-color:color(display-p3 0.9922 0.8784 0.1882);stop-opacity:1;"/>
<stop offset="0.9188" stop-color="#F7C02B" style="stop-color:#F7C02B;stop-color:color(display-p3 0.9686 0.7529 0.1686);stop-opacity:1;"/>
<stop offset="1" stop-color="#F4A223" style="stop-color:#F4A223;stop-color:color(display-p3 0.9569 0.6353 0.1373);stop-opacity:1;"/>
</radialGradient>
</defs>
</svg>
