<svg width="128" height="128" viewBox="0 0 128 128" fill="none" xmlns="http://www.w3.org/2000/svg">
<g opacity="0.2">
<path d="M99.73 7.09009C102.49 7.09009 104.73 9.33009 104.73 12.0901V116.09C104.73 118.85 102.49 121.09 99.73 121.09H27.73C24.97 121.09 22.73 118.85 22.73 116.09V12.0901C22.73 9.33009 24.97 7.09009 27.73 7.09009H99.73ZM99.73 4.09009H27.73C23.31 4.09009 19.73 7.67009 19.73 12.0901V116.09C19.73 120.51 23.31 124.09 27.73 124.09H99.73C104.15 124.09 107.73 120.51 107.73 116.09V12.0901C107.73 7.67009 104.15 4.09009 99.73 4.09009Z" fill="#212121" style="fill:#212121;fill:color(display-p3 0.1294 0.1294 0.1294);fill-opacity:1;"/>
<path d="M99.73 7.09009C102.49 7.09009 104.73 9.33009 104.73 12.0901V116.09C104.73 118.85 102.49 121.09 99.73 121.09H27.73C24.97 121.09 22.73 118.85 22.73 116.09V12.0901C22.73 9.33009 24.97 7.09009 27.73 7.09009H99.73ZM99.73 4.09009H27.73C23.31 4.09009 19.73 7.67009 19.73 12.0901V116.09C19.73 120.51 23.31 124.09 27.73 124.09H99.73C104.15 124.09 107.73 120.51 107.73 116.09V12.0901C107.73 7.67009 104.15 4.09009 99.73 4.09009Z" fill="#212121" style="fill:#212121;fill:color(display-p3 0.1294 0.1294 0.1294);fill-opacity:1;"/>
<path d="M99.73 7.09009C102.49 7.09009 104.73 9.33009 104.73 12.0901V116.09C104.73 118.85 102.49 121.09 99.73 121.09H27.73C24.97 121.09 22.73 118.85 22.73 116.09V12.0901C22.73 9.33009 24.97 7.09009 27.73 7.09009H99.73ZM99.73 4.09009H27.73C23.31 4.09009 19.73 7.67009 19.73 12.0901V116.09C19.73 120.51 23.31 124.09 27.73 124.09H99.73C104.15 124.09 107.73 120.51 107.73 116.09V12.0901C107.73 7.67009 104.15 4.09009 99.73 4.09009Z" fill="#212121" style="fill:#212121;fill:color(display-p3 0.1294 0.1294 0.1294);fill-opacity:1;"/>
</g>
<path d="M102.439 125.43L26.4194 125.06C22.9694 125.06 20.1694 122.26 20.1694 118.81L32.3694 26.6801L102.559 4.5001C108.689 4.1701 109.039 7.0301 109.039 10.4801L108.669 119.17C108.689 122.64 105.889 125.43 102.439 125.43Z" fill="#D9CDC9" style="fill:#D9CDC9;fill:color(display-p3 0.8510 0.8039 0.7882);fill-opacity:1;"/>
<path d="M101.98 122.06C101.98 122.06 44.2195 123.04 25.5095 121.98C21.9295 121.78 20.1795 120.36 20.1695 118.82L19.9995 10.3301C19.9995 6.88008 22.7995 4.08008 26.2495 4.08008L101.89 4.40008C105.34 4.40008 106.65 7.26008 106.65 10.7101L106.08 116.11C106.06 119.56 105.43 122.06 101.98 122.06Z" fill="#F1EDEC" style="fill:#F1EDEC;fill:color(display-p3 0.9451 0.9294 0.9255);fill-opacity:1;"/>
<path d="M42.2668 105.2C42.6501 104 44.1834 101 46.8668 101C50.3168 101 51.8501 103.4 51.8501 106.4C51.8501 108.5 50.8615 109.884 49.9334 111.5C48.9452 113.221 47.488 114.757 46.1001 116.3C44.3194 118.279 40.3501 122 40.3501 122C40.3501 122 36.3808 118.279 34.6001 116.3C33.2122 114.757 31.755 113.221 30.7668 111.5C29.8387 109.884 28.8501 108.5 28.8501 106.4C28.8501 103.4 30.3834 101 33.8334 101C36.5168 101 38.0501 104 38.4334 105.2C38.8168 105.5 38.8168 105.2 38.8168 104.9C38.4334 102.5 38.4334 101.9 38.0501 100.1C37.6668 98.3 36.5168 95 36.5168 95C38.4334 95.6 42.2668 95.6 44.1834 95C44.1834 95 43.0334 98.3 42.6501 100.1C42.2668 101.9 42.2668 102.5 41.8834 104.9C41.8834 105.2 41.8834 105.5 42.2668 105.2Z" fill="#212121" style="fill:#212121;fill:color(display-p3 0.1294 0.1294 0.1294);fill-opacity:1;"/>
<path d="M42.2668 105.2C42.6501 104 44.1834 101 46.8668 101C50.3168 101 51.8501 103.4 51.8501 106.4C51.8501 108.5 50.8615 109.884 49.9334 111.5C48.9452 113.221 47.488 114.757 46.1001 116.3C44.3194 118.279 40.3501 122 40.3501 122C40.3501 122 36.3808 118.279 34.6001 116.3C33.2122 114.757 31.755 113.221 30.7668 111.5C29.8387 109.884 28.8501 108.5 28.8501 106.4C28.8501 103.4 30.3834 101 33.8334 101C36.5168 101 38.0501 104 38.4334 105.2C38.8168 105.5 38.8168 105.2 38.8168 104.9C38.4334 102.5 38.4334 101.9 38.0501 100.1C37.6668 98.3 36.5168 95 36.5168 95C38.4334 95.6 42.2668 95.6 44.1834 95C44.1834 95 43.0334 98.3 42.6501 100.1C42.2668 101.9 42.2668 102.5 41.8834 104.9C41.8834 105.2 41.8834 105.5 42.2668 105.2Z" fill="#212121" style="fill:#212121;fill:color(display-p3 0.1294 0.1294 0.1294);fill-opacity:1;"/>
<path d="M42.2668 105.2C42.6501 104 44.1834 101 46.8668 101C50.3168 101 51.8501 103.4 51.8501 106.4C51.8501 108.5 50.8615 109.884 49.9334 111.5C48.9452 113.221 47.488 114.757 46.1001 116.3C44.3194 118.279 40.3501 122 40.3501 122C40.3501 122 36.3808 118.279 34.6001 116.3C33.2122 114.757 31.755 113.221 30.7668 111.5C29.8387 109.884 28.8501 108.5 28.8501 106.4C28.8501 103.4 30.3834 101 33.8334 101C36.5168 101 38.0501 104 38.4334 105.2C38.8168 105.5 38.8168 105.2 38.8168 104.9C38.4334 102.5 38.4334 101.9 38.0501 100.1C37.6668 98.3 36.5168 95 36.5168 95C38.4334 95.6 42.2668 95.6 44.1834 95C44.1834 95 43.0334 98.3 42.6501 100.1C42.2668 101.9 42.2668 102.5 41.8834 104.9C41.8834 105.2 41.8834 105.5 42.2668 105.2Z" fill="#212121" style="fill:#212121;fill:color(display-p3 0.1294 0.1294 0.1294);fill-opacity:1;"/>
<path d="M85.4167 103.2C85.8 102 87.3333 99 90.0167 99C93.4667 99 95 101.4 95 104.4C95 106.5 94.0114 107.884 93.0833 109.5C92.0951 111.221 90.6379 112.757 89.25 114.3C87.4693 116.279 83.5 120 83.5 120C83.5 120 79.5307 116.279 77.75 114.3C76.3621 112.757 74.9049 111.221 73.9167 109.5C72.9886 107.884 72 106.5 72 104.4C72 101.4 73.5333 99 76.9833 99C79.6667 99 81.2 102 81.5833 103.2C81.9667 103.5 81.9667 103.2 81.9667 102.9C81.5833 100.5 81.5833 99.9 81.2 98.1C80.8167 96.3 79.6667 93 79.6667 93C81.5833 93.6 85.4167 93.6 87.3333 93C87.3333 93 86.1833 96.3 85.8 98.1C85.4167 99.9 85.4167 100.5 85.0333 102.9C85.0333 103.2 85.0333 103.5 85.4167 103.2Z" fill="#212121" style="fill:#212121;fill:color(display-p3 0.1294 0.1294 0.1294);fill-opacity:1;"/>
<path d="M85.4167 103.2C85.8 102 87.3333 99 90.0167 99C93.4667 99 95 101.4 95 104.4C95 106.5 94.0114 107.884 93.0833 109.5C92.0951 111.221 90.6379 112.757 89.25 114.3C87.4693 116.279 83.5 120 83.5 120C83.5 120 79.5307 116.279 77.75 114.3C76.3621 112.757 74.9049 111.221 73.9167 109.5C72.9886 107.884 72 106.5 72 104.4C72 101.4 73.5333 99 76.9833 99C79.6667 99 81.2 102 81.5833 103.2C81.9667 103.5 81.9667 103.2 81.9667 102.9C81.5833 100.5 81.5833 99.9 81.2 98.1C80.8167 96.3 79.6667 93 79.6667 93C81.5833 93.6 85.4167 93.6 87.3333 93C87.3333 93 86.1833 96.3 85.8 98.1C85.4167 99.9 85.4167 100.5 85.0333 102.9C85.0333 103.2 85.0333 103.5 85.4167 103.2Z" fill="#212121" style="fill:#212121;fill:color(display-p3 0.1294 0.1294 0.1294);fill-opacity:1;"/>
<path d="M85.4167 103.2C85.8 102 87.3333 99 90.0167 99C93.4667 99 95 101.4 95 104.4C95 106.5 94.0114 107.884 93.0833 109.5C92.0951 111.221 90.6379 112.757 89.25 114.3C87.4693 116.279 83.5 120 83.5 120C83.5 120 79.5307 116.279 77.75 114.3C76.3621 112.757 74.9049 111.221 73.9167 109.5C72.9886 107.884 72 106.5 72 104.4C72 101.4 73.5333 99 76.9833 99C79.6667 99 81.2 102 81.5833 103.2C81.9667 103.5 81.9667 103.2 81.9667 102.9C81.5833 100.5 81.5833 99.9 81.2 98.1C80.8167 96.3 79.6667 93 79.6667 93C81.5833 93.6 85.4167 93.6 87.3333 93C87.3333 93 86.1833 96.3 85.8 98.1C85.4167 99.9 85.4167 100.5 85.0333 102.9C85.0333 103.2 85.0333 103.5 85.4167 103.2Z" fill="#212121" style="fill:#212121;fill:color(display-p3 0.1294 0.1294 0.1294);fill-opacity:1;"/>
<path d="M42.4167 51.8C42.8 53 44.3333 56 47.0167 56C50.4667 56 52 53.6 52 50.6C52 48.5 51.0114 47.1163 50.0833 45.5C49.0951 43.779 47.6379 42.2428 46.25 40.7C44.4693 38.7206 40.5 35 40.5 35C40.5 35 36.5307 38.7206 34.75 40.7C33.3621 42.2428 31.9049 43.779 30.9167 45.5C29.9886 47.1163 29 48.5 29 50.6C29 53.6 30.5333 56 33.9833 56C36.6667 56 38.2 53 38.5833 51.8C38.9667 51.5 38.9667 51.8 38.9667 52.1C38.5833 54.5 38.5833 55.1 38.2 56.9C37.8167 58.7 36.6667 62 36.6667 62C38.5833 61.4 42.4167 61.4 44.3333 62C44.3333 62 43.1833 58.7 42.8 56.9C42.4167 55.1 42.4167 54.5 42.0333 52.1C42.0333 51.8 42.0333 51.5 42.4167 51.8Z" fill="#212121" style="fill:#212121;fill:color(display-p3 0.1294 0.1294 0.1294);fill-opacity:1;"/>
<path d="M42.4167 51.8C42.8 53 44.3333 56 47.0167 56C50.4667 56 52 53.6 52 50.6C52 48.5 51.0114 47.1163 50.0833 45.5C49.0951 43.779 47.6379 42.2428 46.25 40.7C44.4693 38.7206 40.5 35 40.5 35C40.5 35 36.5307 38.7206 34.75 40.7C33.3621 42.2428 31.9049 43.779 30.9167 45.5C29.9886 47.1163 29 48.5 29 50.6C29 53.6 30.5333 56 33.9833 56C36.6667 56 38.2 53 38.5833 51.8C38.9667 51.5 38.9667 51.8 38.9667 52.1C38.5833 54.5 38.5833 55.1 38.2 56.9C37.8167 58.7 36.6667 62 36.6667 62C38.5833 61.4 42.4167 61.4 44.3333 62C44.3333 62 43.1833 58.7 42.8 56.9C42.4167 55.1 42.4167 54.5 42.0333 52.1C42.0333 51.8 42.0333 51.5 42.4167 51.8Z" fill="#212121" style="fill:#212121;fill:color(display-p3 0.1294 0.1294 0.1294);fill-opacity:1;"/>
<path d="M42.4167 51.8C42.8 53 44.3333 56 47.0167 56C50.4667 56 52 53.6 52 50.6C52 48.5 51.0114 47.1163 50.0833 45.5C49.0951 43.779 47.6379 42.2428 46.25 40.7C44.4693 38.7206 40.5 35 40.5 35C40.5 35 36.5307 38.7206 34.75 40.7C33.3621 42.2428 31.9049 43.779 30.9167 45.5C29.9886 47.1163 29 48.5 29 50.6C29 53.6 30.5333 56 33.9833 56C36.6667 56 38.2 53 38.5833 51.8C38.9667 51.5 38.9667 51.8 38.9667 52.1C38.5833 54.5 38.5833 55.1 38.2 56.9C37.8167 58.7 36.6667 62 36.6667 62C38.5833 61.4 42.4167 61.4 44.3333 62C44.3333 62 43.1833 58.7 42.8 56.9C42.4167 55.1 42.4167 54.5 42.0333 52.1C42.0333 51.8 42.0333 51.5 42.4167 51.8Z" fill="#212121" style="fill:#212121;fill:color(display-p3 0.1294 0.1294 0.1294);fill-opacity:1;"/>
<path d="M85.4167 51.8C85.8 53 87.3333 56 90.0167 56C93.4667 56 95 53.6 95 50.6C95 48.5 94.0114 47.1163 93.0833 45.5C92.0951 43.779 90.6379 42.2428 89.25 40.7C87.4693 38.7206 83.5 35 83.5 35C83.5 35 79.5307 38.7206 77.75 40.7C76.3621 42.2428 74.9049 43.779 73.9167 45.5C72.9886 47.1163 72 48.5 72 50.6C72 53.6 73.5333 56 76.9833 56C79.6667 56 81.2 53 81.5833 51.8C81.9667 51.5 81.9667 51.8 81.9667 52.1C81.5833 54.5 81.5833 55.1 81.2 56.9C80.8167 58.7 79.6667 62 79.6667 62C81.5833 61.4 85.4167 61.4 87.3333 62C87.3333 62 86.1833 58.7 85.8 56.9C85.4167 55.1 85.4167 54.5 85.0333 52.1C85.0333 51.8 85.0333 51.5 85.4167 51.8Z" fill="#212121" style="fill:#212121;fill:color(display-p3 0.1294 0.1294 0.1294);fill-opacity:1;"/>
<path d="M85.4167 51.8C85.8 53 87.3333 56 90.0167 56C93.4667 56 95 53.6 95 50.6C95 48.5 94.0114 47.1163 93.0833 45.5C92.0951 43.779 90.6379 42.2428 89.25 40.7C87.4693 38.7206 83.5 35 83.5 35C83.5 35 79.5307 38.7206 77.75 40.7C76.3621 42.2428 74.9049 43.779 73.9167 45.5C72.9886 47.1163 72 48.5 72 50.6C72 53.6 73.5333 56 76.9833 56C79.6667 56 81.2 53 81.5833 51.8C81.9667 51.5 81.9667 51.8 81.9667 52.1C81.5833 54.5 81.5833 55.1 81.2 56.9C80.8167 58.7 79.6667 62 79.6667 62C81.5833 61.4 85.4167 61.4 87.3333 62C87.3333 62 86.1833 58.7 85.8 56.9C85.4167 55.1 85.4167 54.5 85.0333 52.1C85.0333 51.8 85.0333 51.5 85.4167 51.8Z" fill="#212121" style="fill:#212121;fill:color(display-p3 0.1294 0.1294 0.1294);fill-opacity:1;"/>
<path d="M85.4167 51.8C85.8 53 87.3333 56 90.0167 56C93.4667 56 95 53.6 95 50.6C95 48.5 94.0114 47.1163 93.0833 45.5C92.0951 43.779 90.6379 42.2428 89.25 40.7C87.4693 38.7206 83.5 35 83.5 35C83.5 35 79.5307 38.7206 77.75 40.7C76.3621 42.2428 74.9049 43.779 73.9167 45.5C72.9886 47.1163 72 48.5 72 50.6C72 53.6 73.5333 56 76.9833 56C79.6667 56 81.2 53 81.5833 51.8C81.9667 51.5 81.9667 51.8 81.9667 52.1C81.5833 54.5 81.5833 55.1 81.2 56.9C80.8167 58.7 79.6667 62 79.6667 62C81.5833 61.4 85.4167 61.4 87.3333 62C87.3333 62 86.1833 58.7 85.8 56.9C85.4167 55.1 85.4167 54.5 85.0333 52.1C85.0333 51.8 85.0333 51.5 85.4167 51.8Z" fill="#212121" style="fill:#212121;fill:color(display-p3 0.1294 0.1294 0.1294);fill-opacity:1;"/>
<path d="M42.4167 24.8C42.8 26 44.3333 29 47.0167 29C50.4667 29 52 26.6 52 23.6C52 21.5 51.0114 20.1163 50.0833 18.5C49.0951 16.779 47.6379 15.2428 46.25 13.7C44.4693 11.7206 40.5 8 40.5 8C40.5 8 36.5307 11.7206 34.75 13.7C33.3621 15.2428 31.9049 16.779 30.9167 18.5C29.9886 20.1163 29 21.5 29 23.6C29 26.6 30.5333 29 33.9833 29C36.6667 29 38.2 26 38.5833 24.8C38.9667 24.5 38.9667 24.8 38.9667 25.1C38.5833 27.5 38.5833 28.1 38.2 29.9C37.8167 31.7 36.6667 35 36.6667 35C38.5833 34.4 42.4167 34.4 44.3333 35C44.3333 35 43.1833 31.7 42.8 29.9C42.4167 28.1 42.4167 27.5 42.0333 25.1C42.0333 24.8 42.0333 24.5 42.4167 24.8Z" fill="#212121" style="fill:#212121;fill:color(display-p3 0.1294 0.1294 0.1294);fill-opacity:1;"/>
<path d="M42.4167 24.8C42.8 26 44.3333 29 47.0167 29C50.4667 29 52 26.6 52 23.6C52 21.5 51.0114 20.1163 50.0833 18.5C49.0951 16.779 47.6379 15.2428 46.25 13.7C44.4693 11.7206 40.5 8 40.5 8C40.5 8 36.5307 11.7206 34.75 13.7C33.3621 15.2428 31.9049 16.779 30.9167 18.5C29.9886 20.1163 29 21.5 29 23.6C29 26.6 30.5333 29 33.9833 29C36.6667 29 38.2 26 38.5833 24.8C38.9667 24.5 38.9667 24.8 38.9667 25.1C38.5833 27.5 38.5833 28.1 38.2 29.9C37.8167 31.7 36.6667 35 36.6667 35C38.5833 34.4 42.4167 34.4 44.3333 35C44.3333 35 43.1833 31.7 42.8 29.9C42.4167 28.1 42.4167 27.5 42.0333 25.1C42.0333 24.8 42.0333 24.5 42.4167 24.8Z" fill="#212121" style="fill:#212121;fill:color(display-p3 0.1294 0.1294 0.1294);fill-opacity:1;"/>
<path d="M42.4167 24.8C42.8 26 44.3333 29 47.0167 29C50.4667 29 52 26.6 52 23.6C52 21.5 51.0114 20.1163 50.0833 18.5C49.0951 16.779 47.6379 15.2428 46.25 13.7C44.4693 11.7206 40.5 8 40.5 8C40.5 8 36.5307 11.7206 34.75 13.7C33.3621 15.2428 31.9049 16.779 30.9167 18.5C29.9886 20.1163 29 21.5 29 23.6C29 26.6 30.5333 29 33.9833 29C36.6667 29 38.2 26 38.5833 24.8C38.9667 24.5 38.9667 24.8 38.9667 25.1C38.5833 27.5 38.5833 28.1 38.2 29.9C37.8167 31.7 36.6667 35 36.6667 35C38.5833 34.4 42.4167 34.4 44.3333 35C44.3333 35 43.1833 31.7 42.8 29.9C42.4167 28.1 42.4167 27.5 42.0333 25.1C42.0333 24.8 42.0333 24.5 42.4167 24.8Z" fill="#212121" style="fill:#212121;fill:color(display-p3 0.1294 0.1294 0.1294);fill-opacity:1;"/>
<path d="M85.4167 24.8C85.8 26 87.3333 29 90.0167 29C93.4667 29 95 26.6 95 23.6C95 21.5 94.0114 20.1163 93.0833 18.5C92.0951 16.779 90.6379 15.2428 89.25 13.7C87.4693 11.7206 83.5 8 83.5 8C83.5 8 79.5307 11.7206 77.75 13.7C76.3621 15.2428 74.9049 16.779 73.9167 18.5C72.9886 20.1163 72 21.5 72 23.6C72 26.6 73.5333 29 76.9833 29C79.6667 29 81.2 26 81.5833 24.8C81.9667 24.5 81.9667 24.8 81.9667 25.1C81.5833 27.5 81.5833 28.1 81.2 29.9C80.8167 31.7 79.6667 35 79.6667 35C81.5833 34.4 85.4167 34.4 87.3333 35C87.3333 35 86.1833 31.7 85.8 29.9C85.4167 28.1 85.4167 27.5 85.0333 25.1C85.0333 24.8 85.0333 24.5 85.4167 24.8Z" fill="#212121" style="fill:#212121;fill:color(display-p3 0.1294 0.1294 0.1294);fill-opacity:1;"/>
<path d="M85.4167 24.8C85.8 26 87.3333 29 90.0167 29C93.4667 29 95 26.6 95 23.6C95 21.5 94.0114 20.1163 93.0833 18.5C92.0951 16.779 90.6379 15.2428 89.25 13.7C87.4693 11.7206 83.5 8 83.5 8C83.5 8 79.5307 11.7206 77.75 13.7C76.3621 15.2428 74.9049 16.779 73.9167 18.5C72.9886 20.1163 72 21.5 72 23.6C72 26.6 73.5333 29 76.9833 29C79.6667 29 81.2 26 81.5833 24.8C81.9667 24.5 81.9667 24.8 81.9667 25.1C81.5833 27.5 81.5833 28.1 81.2 29.9C80.8167 31.7 79.6667 35 79.6667 35C81.5833 34.4 85.4167 34.4 87.3333 35C87.3333 35 86.1833 31.7 85.8 29.9C85.4167 28.1 85.4167 27.5 85.0333 25.1C85.0333 24.8 85.0333 24.5 85.4167 24.8Z" fill="#212121" style="fill:#212121;fill:color(display-p3 0.1294 0.1294 0.1294);fill-opacity:1;"/>
<path d="M85.4167 24.8C85.8 26 87.3333 29 90.0167 29C93.4667 29 95 26.6 95 23.6C95 21.5 94.0114 20.1163 93.0833 18.5C92.0951 16.779 90.6379 15.2428 89.25 13.7C87.4693 11.7206 83.5 8 83.5 8C83.5 8 79.5307 11.7206 77.75 13.7C76.3621 15.2428 74.9049 16.779 73.9167 18.5C72.9886 20.1163 72 21.5 72 23.6C72 26.6 73.5333 29 76.9833 29C79.6667 29 81.2 26 81.5833 24.8C81.9667 24.5 81.9667 24.8 81.9667 25.1C81.5833 27.5 81.5833 28.1 81.2 29.9C80.8167 31.7 79.6667 35 79.6667 35C81.5833 34.4 85.4167 34.4 87.3333 35C87.3333 35 86.1833 31.7 85.8 29.9C85.4167 28.1 85.4167 27.5 85.0333 25.1C85.0333 24.8 85.0333 24.5 85.4167 24.8Z" fill="#212121" style="fill:#212121;fill:color(display-p3 0.1294 0.1294 0.1294);fill-opacity:1;"/>
<path d="M42.4167 75.2C42.8 74 44.3333 71 47.0167 71C50.4667 71 52 73.4 52 76.4C52 78.5 51.0114 79.8837 50.0833 81.5C49.0951 83.221 47.6379 84.7572 46.25 86.3C44.4693 88.2794 40.5 92 40.5 92C40.5 92 36.5307 88.2794 34.75 86.3C33.3621 84.7572 31.9049 83.221 30.9167 81.5C29.9886 79.8837 29 78.5 29 76.4C29 73.4 30.5333 71 33.9833 71C36.6667 71 38.2 74 38.5833 75.2C38.9667 75.5 38.9667 75.2 38.9667 74.9C38.5833 72.5 38.5833 71.9 38.2 70.1C37.8167 68.3 36.6667 65 36.6667 65C38.5833 65.6 42.4167 65.6 44.3333 65C44.3333 65 43.1833 68.3 42.8 70.1C42.4167 71.9 42.4167 72.5 42.0333 74.9C42.0333 75.2 42.0333 75.5 42.4167 75.2Z" fill="#212121" style="fill:#212121;fill:color(display-p3 0.1294 0.1294 0.1294);fill-opacity:1;"/>
<path d="M42.4167 75.2C42.8 74 44.3333 71 47.0167 71C50.4667 71 52 73.4 52 76.4C52 78.5 51.0114 79.8837 50.0833 81.5C49.0951 83.221 47.6379 84.7572 46.25 86.3C44.4693 88.2794 40.5 92 40.5 92C40.5 92 36.5307 88.2794 34.75 86.3C33.3621 84.7572 31.9049 83.221 30.9167 81.5C29.9886 79.8837 29 78.5 29 76.4C29 73.4 30.5333 71 33.9833 71C36.6667 71 38.2 74 38.5833 75.2C38.9667 75.5 38.9667 75.2 38.9667 74.9C38.5833 72.5 38.5833 71.9 38.2 70.1C37.8167 68.3 36.6667 65 36.6667 65C38.5833 65.6 42.4167 65.6 44.3333 65C44.3333 65 43.1833 68.3 42.8 70.1C42.4167 71.9 42.4167 72.5 42.0333 74.9C42.0333 75.2 42.0333 75.5 42.4167 75.2Z" fill="#212121" style="fill:#212121;fill:color(display-p3 0.1294 0.1294 0.1294);fill-opacity:1;"/>
<path d="M42.4167 75.2C42.8 74 44.3333 71 47.0167 71C50.4667 71 52 73.4 52 76.4C52 78.5 51.0114 79.8837 50.0833 81.5C49.0951 83.221 47.6379 84.7572 46.25 86.3C44.4693 88.2794 40.5 92 40.5 92C40.5 92 36.5307 88.2794 34.75 86.3C33.3621 84.7572 31.9049 83.221 30.9167 81.5C29.9886 79.8837 29 78.5 29 76.4C29 73.4 30.5333 71 33.9833 71C36.6667 71 38.2 74 38.5833 75.2C38.9667 75.5 38.9667 75.2 38.9667 74.9C38.5833 72.5 38.5833 71.9 38.2 70.1C37.8167 68.3 36.6667 65 36.6667 65C38.5833 65.6 42.4167 65.6 44.3333 65C44.3333 65 43.1833 68.3 42.8 70.1C42.4167 71.9 42.4167 72.5 42.0333 74.9C42.0333 75.2 42.0333 75.5 42.4167 75.2Z" fill="#212121" style="fill:#212121;fill:color(display-p3 0.1294 0.1294 0.1294);fill-opacity:1;"/>
<path d="M85.4167 75.2C85.8 74 87.3333 71 90.0167 71C93.4667 71 95 73.4 95 76.4C95 78.5 94.0114 79.8837 93.0833 81.5C92.0951 83.221 90.6379 84.7572 89.25 86.3C87.4693 88.2794 83.5 92 83.5 92C83.5 92 79.5307 88.2794 77.75 86.3C76.3621 84.7572 74.9049 83.221 73.9167 81.5C72.9886 79.8837 72 78.5 72 76.4C72 73.4 73.5333 71 76.9833 71C79.6667 71 81.2 74 81.5833 75.2C81.9667 75.5 81.9667 75.2 81.9667 74.9C81.5833 72.5 81.5833 71.9 81.2 70.1C80.8167 68.3 79.6667 65 79.6667 65C81.5833 65.6 85.4167 65.6 87.3333 65C87.3333 65 86.1833 68.3 85.8 70.1C85.4167 71.9 85.4167 72.5 85.0333 74.9C85.0333 75.2 85.0333 75.5 85.4167 75.2Z" fill="#212121" style="fill:#212121;fill:color(display-p3 0.1294 0.1294 0.1294);fill-opacity:1;"/>
<path d="M85.4167 75.2C85.8 74 87.3333 71 90.0167 71C93.4667 71 95 73.4 95 76.4C95 78.5 94.0114 79.8837 93.0833 81.5C92.0951 83.221 90.6379 84.7572 89.25 86.3C87.4693 88.2794 83.5 92 83.5 92C83.5 92 79.5307 88.2794 77.75 86.3C76.3621 84.7572 74.9049 83.221 73.9167 81.5C72.9886 79.8837 72 78.5 72 76.4C72 73.4 73.5333 71 76.9833 71C79.6667 71 81.2 74 81.5833 75.2C81.9667 75.5 81.9667 75.2 81.9667 74.9C81.5833 72.5 81.5833 71.9 81.2 70.1C80.8167 68.3 79.6667 65 79.6667 65C81.5833 65.6 85.4167 65.6 87.3333 65C87.3333 65 86.1833 68.3 85.8 70.1C85.4167 71.9 85.4167 72.5 85.0333 74.9C85.0333 75.2 85.0333 75.5 85.4167 75.2Z" fill="#212121" style="fill:#212121;fill:color(display-p3 0.1294 0.1294 0.1294);fill-opacity:1;"/>
<path d="M85.4167 75.2C85.8 74 87.3333 71 90.0167 71C93.4667 71 95 73.4 95 76.4C95 78.5 94.0114 79.8837 93.0833 81.5C92.0951 83.221 90.6379 84.7572 89.25 86.3C87.4693 88.2794 83.5 92 83.5 92C83.5 92 79.5307 88.2794 77.75 86.3C76.3621 84.7572 74.9049 83.221 73.9167 81.5C72.9886 79.8837 72 78.5 72 76.4C72 73.4 73.5333 71 76.9833 71C79.6667 71 81.2 74 81.5833 75.2C81.9667 75.5 81.9667 75.2 81.9667 74.9C81.5833 72.5 81.5833 71.9 81.2 70.1C80.8167 68.3 79.6667 65 79.6667 65C81.5833 65.6 85.4167 65.6 87.3333 65C87.3333 65 86.1833 68.3 85.8 70.1C85.4167 71.9 85.4167 72.5 85.0333 74.9C85.0333 75.2 85.0333 75.5 85.4167 75.2Z" fill="#212121" style="fill:#212121;fill:color(display-p3 0.1294 0.1294 0.1294);fill-opacity:1;"/>
</svg>
