<svg width="128" height="128" viewBox="0 0 128 128" fill="none" xmlns="http://www.w3.org/2000/svg">
<g opacity="0.2">
<path d="M99.73 7.09009C102.49 7.09009 104.73 9.33009 104.73 12.0901V116.09C104.73 118.85 102.49 121.09 99.73 121.09H27.73C24.97 121.09 22.73 118.85 22.73 116.09V12.0901C22.73 9.33009 24.97 7.09009 27.73 7.09009H99.73ZM99.73 4.09009H27.73C23.31 4.09009 19.73 7.67009 19.73 12.0901V116.09C19.73 120.51 23.31 124.09 27.73 124.09H99.73C104.15 124.09 107.73 120.51 107.73 116.09V12.0901C107.73 7.67009 104.15 4.09009 99.73 4.09009Z" fill="#212121" style="fill:#212121;fill:color(display-p3 0.1294 0.1294 0.1294);fill-opacity:1;"/>
<path d="M99.73 7.09009C102.49 7.09009 104.73 9.33009 104.73 12.0901V116.09C104.73 118.85 102.49 121.09 99.73 121.09H27.73C24.97 121.09 22.73 118.85 22.73 116.09V12.0901C22.73 9.33009 24.97 7.09009 27.73 7.09009H99.73ZM99.73 4.09009H27.73C23.31 4.09009 19.73 7.67009 19.73 12.0901V116.09C19.73 120.51 23.31 124.09 27.73 124.09H99.73C104.15 124.09 107.73 120.51 107.73 116.09V12.0901C107.73 7.67009 104.15 4.09009 99.73 4.09009Z" fill="#212121" style="fill:#212121;fill:color(display-p3 0.1294 0.1294 0.1294);fill-opacity:1;"/>
<path d="M99.73 7.09009C102.49 7.09009 104.73 9.33009 104.73 12.0901V116.09C104.73 118.85 102.49 121.09 99.73 121.09H27.73C24.97 121.09 22.73 118.85 22.73 116.09V12.0901C22.73 9.33009 24.97 7.09009 27.73 7.09009H99.73ZM99.73 4.09009H27.73C23.31 4.09009 19.73 7.67009 19.73 12.0901V116.09C19.73 120.51 23.31 124.09 27.73 124.09H99.73C104.15 124.09 107.73 120.51 107.73 116.09V12.0901C107.73 7.67009 104.15 4.09009 99.73 4.09009Z" fill="#212121" style="fill:#212121;fill:color(display-p3 0.1294 0.1294 0.1294);fill-opacity:1;"/>
</g>
<path d="M102.29 125.43L26.2695 125.06C22.8195 125.06 20.0195 122.26 20.0195 118.81L32.2195 26.6801L102.41 4.5001C108.54 4.1701 108.89 7.0301 108.89 10.4801L108.52 119.17C108.54 122.64 105.74 125.43 102.29 125.43Z" fill="#D9CDC9" style="fill:#D9CDC9;fill:color(display-p3 0.8510 0.8039 0.7882);fill-opacity:1;"/>
<path d="M101.83 122.06C101.83 122.06 44.0696 123.04 25.3596 121.98C21.7796 121.78 20.0296 120.36 20.0196 118.82L19.8496 10.3301C19.8496 6.88008 22.6496 4.08008 26.0996 4.08008L101.74 4.40008C105.19 4.40008 106.5 7.26008 106.5 10.7101L105.93 116.11C105.91 119.56 105.28 122.06 101.83 122.06Z" fill="#F1EDEC" style="fill:#F1EDEC;fill:color(display-p3 0.9451 0.9294 0.9255);fill-opacity:1;"/>
<path d="M40.3501 114C40.3501 114 42.2501 109.333 44.4668 106.222C46.6834 103.111 49.8501 100 49.8501 100C49.8501 100 46.6834 96.8889 44.4668 93.7778C42.2501 90.6667 40.3501 86 40.3501 86C40.3501 86 38.4501 90.6667 36.2334 93.7778C34.0168 96.8889 30.8501 100 30.8501 100C30.8501 100 34.0168 103.111 36.2334 106.222C38.4501 109.333 40.3501 114 40.3501 114Z" fill="#F44336" style="fill:#F44336;fill:color(display-p3 0.9569 0.2627 0.2118);fill-opacity:1;"/>
<path d="M83.3501 114C83.3501 114 85.2501 109.333 87.4668 106.222C89.6834 103.111 92.8501 100 92.8501 100C92.8501 100 89.6834 96.8889 87.4668 93.7778C85.2501 90.6667 83.3501 86 83.3501 86C83.3501 86 81.4501 90.6667 79.2334 93.7778C77.0168 96.8889 73.8501 100 73.8501 100C73.8501 100 77.0168 103.111 79.2334 106.222C81.4501 109.333 83.3501 114 83.3501 114Z" fill="#F44336" style="fill:#F44336;fill:color(display-p3 0.9569 0.2627 0.2118);fill-opacity:1;"/>
<path d="M40.3501 17C40.3501 17 42.2501 21.6667 44.4668 24.7778C46.6834 27.8889 49.8501 31 49.8501 31C49.8501 31 46.6834 34.1111 44.4668 37.2222C42.2501 40.3333 40.3501 45 40.3501 45C40.3501 45 38.4501 40.3333 36.2334 37.2222C34.0168 34.1111 30.8501 31 30.8501 31C30.8501 31 34.0168 27.8889 36.2334 24.7778C38.4501 21.6667 40.3501 17 40.3501 17Z" fill="#F44336" style="fill:#F44336;fill:color(display-p3 0.9569 0.2627 0.2118);fill-opacity:1;"/>
<path d="M83.3501 17C83.3501 17 85.2501 21.6667 87.4668 24.7778C89.6834 27.8889 92.8501 31 92.8501 31C92.8501 31 89.6834 34.1111 87.4668 37.2222C85.2501 40.3333 83.3501 45 83.3501 45C83.3501 45 81.4501 40.3333 79.2334 37.2222C77.0168 34.1111 73.8501 31 73.8501 31C73.8501 31 77.0168 27.8889 79.2334 24.7778C81.4501 21.6667 83.3501 17 83.3501 17Z" fill="#F44336" style="fill:#F44336;fill:color(display-p3 0.9569 0.2627 0.2118);fill-opacity:1;"/>
</svg>
