<svg width="129" height="129" viewBox="0 0 129 129" fill="none" xmlns="http://www.w3.org/2000/svg">
<path d="M57.6601 8.92005L5.66005 112.92C3.72005 116.94 5.40005 121.77 9.41005 123.71C10.4901 124.23 11.6601 124.51 12.8601 124.52H116.86C121.32 124.48 124.91 120.83 124.87 116.37C124.86 115.18 124.58 114 124.06 112.92L72.0601 8.92005C70.05 4.94005 65.1901 3.35005 61.2201 5.36005C59.6801 6.14005 58.4401 7.39005 57.6601 8.92005Z" fill="#F2A600" style="fill:#F2A600;fill:color(display-p3 0.9490 0.6510 0.0000);fill-opacity:1;"/>
<path d="M54.0601 16.2201L5.26006 113.62C3.43006 117.39 5.01006 121.93 8.78006 123.76C9.77006 124.24 10.8601 124.5 11.9601 124.52H109.46C113.63 124.48 116.98 121.07 116.94 116.9C116.93 115.76 116.66 114.64 116.16 113.62L67.4601 16.2201C65.6701 12.5201 61.2301 10.9701 57.5301 12.7501C56.0101 13.4901 54.7901 14.7101 54.0601 16.2201Z" fill="#FFCC32" style="fill:#FFCC32;fill:color(display-p3 1.0000 0.8000 0.1961);fill-opacity:1;"/>
<g opacity="0.2">
<path opacity="0.2" d="M64.8598 34.52C69.4598 34.52 73.1598 38.22 72.8598 42.52L69.4598 90.52C69.0798 93.06 66.7198 94.82 64.1798 94.44C62.1498 94.14 60.5598 92.55 60.2598 90.52L56.8598 42.52C56.5598 38.22 60.2598 34.52 64.8598 34.52Z" fill="#424242" style="fill:#424242;fill:color(display-p3 0.2588 0.2588 0.2588);fill-opacity:1;"/>
<path opacity="0.2" d="M64.8594 98.52C68.1694 98.52 70.8594 101.21 70.8594 104.52C70.8594 107.83 68.1694 110.52 64.8594 110.52C61.5494 110.52 58.8594 107.83 58.8594 104.52C58.8594 101.21 61.5494 98.52 64.8594 98.52Z" fill="#424242" style="fill:#424242;fill:color(display-p3 0.2588 0.2588 0.2588);fill-opacity:1;"/>
</g>
<path d="M64.8598 34.52C69.4598 34.52 73.1598 38.22 72.8598 42.52L69.4598 90.52C69.0798 93.06 66.7198 94.82 64.1798 94.44C62.1498 94.14 60.5598 92.55 60.2598 90.52L56.8598 42.52C56.5598 38.22 60.2598 34.52 64.8598 34.52Z" fill="black" style="fill:black;fill-opacity:1;"/>
<path d="M64.8604 110.52C68.1741 110.52 70.8604 107.834 70.8604 104.52C70.8604 101.206 68.1741 98.52 64.8604 98.52C61.5466 98.52 58.8604 101.206 58.8604 104.52C58.8604 107.834 61.5466 110.52 64.8604 110.52Z" fill="black" style="fill:black;fill-opacity:1;"/>
<path d="M54.0601 23.5202C52.8601 25.0202 32.6601 64.5202 32.6601 64.5202C32.6601 64.5202 30.8601 67.5202 33.3601 69.2202C35.6601 70.8202 37.7601 68.9202 38.6601 67.4202C39.5601 65.9202 57.8601 30.5202 58.5601 28.8202C59.1601 26.9502 58.7401 24.9102 57.4601 23.4202C56.1601 22.2202 54.8601 22.4202 54.0601 23.5202Z" fill="#FFF170" style="fill:#FFF170;fill:color(display-p3 1.0000 0.9451 0.4392);fill-opacity:1;"/>
<path d="M31.8605 79.13C33.6831 79.13 35.1605 77.6526 35.1605 75.83C35.1605 74.0075 33.6831 72.53 31.8605 72.53C30.038 72.53 28.5605 74.0075 28.5605 75.83C28.5605 77.6526 30.038 79.13 31.8605 79.13Z" fill="#FFF170" style="fill:#FFF170;fill:color(display-p3 1.0000 0.9451 0.4392);fill-opacity:1;"/>
</svg>
