<svg width="128" height="129" viewBox="0 0 128 129" fill="none" xmlns="http://www.w3.org/2000/svg">
<path d="M91.7595 45.0968C91.7595 35.0968 51.6003 34.7653 51.6003 9.08978" stroke="#3E4C50" style="stroke:#3E4C50;stroke:color(display-p3 0.2431 0.2980 0.3137);stroke-opacity:1;" stroke-width="4"/>
<path d="M112.955 87.7436H18.7687C17.2676 87.7436 16 86.476 16 84.9749L18.4518 43.0187C18.4518 41.4342 19.7194 40.25 21.2205 40.25H110.512C112.013 40.25 113.281 41.5176 113.281 43.0187L115.732 84.9749C115.732 86.476 114.465 87.7436 112.955 87.7436Z" fill="#C3D2D9" style="fill:#C3D2D9;fill:color(display-p3 0.7647 0.8235 0.8510);fill-opacity:1;"/>
<path d="M23.1362 51.2158C23.1362 52.033 23.7117 52.6085 24.4455 52.6085H28.3401C29.074 52.6085 29.6494 51.958 29.6494 51.2158L29.7662 49.2977H23.3114L23.1362 51.2158Z" fill="#2F7889" style="fill:#2F7889;fill:color(display-p3 0.1843 0.4706 0.5373);fill-opacity:1;"/>
<path d="M32.9436 51.2158C32.9436 52.0331 33.519 52.6085 34.2529 52.6085H38.0891C38.9147 52.6085 39.3984 52.0248 39.3984 51.2158V49.2977H32.9686L32.9436 51.2158Z" fill="#2F7889" style="fill:#2F7889;fill:color(display-p3 0.1843 0.4706 0.5373);fill-opacity:1;"/>
<path d="M42.1748 51.2158C42.1748 52.033 42.8253 52.6085 43.5675 52.6085H47.4037C48.1376 52.6085 48.7964 52.0664 48.7964 51.2158V49.2977H42.1748V51.2158Z" fill="#2F7889" style="fill:#2F7889;fill:color(display-p3 0.1843 0.4706 0.5373);fill-opacity:1;"/>
<path d="M51.5652 51.2158C51.5652 52.033 52.2157 52.6085 52.9579 52.6085H56.7941C57.528 52.6085 58.1868 52.1081 58.1868 51.2158V49.2977H51.5652V51.2158Z" fill="#2F7889" style="fill:#2F7889;fill:color(display-p3 0.1843 0.4706 0.5373);fill-opacity:1;"/>
<path d="M60.8809 51.2158C60.8809 52.033 61.4229 52.6085 62.2736 52.6085H66.1097C66.8436 52.6085 67.5024 52.1831 67.5024 51.2158V49.2977H60.8809V51.2158Z" fill="#2F7889" style="fill:#2F7889;fill:color(display-p3 0.1843 0.4706 0.5373);fill-opacity:1;"/>
<path d="M70.2793 51.2157C70.2793 52.033 70.9298 52.6084 71.672 52.6084H75.5082C76.2421 52.6084 76.9009 52.1831 76.9009 51.2157V49.2976H70.2793V51.2157Z" fill="#2F7889" style="fill:#2F7889;fill:color(display-p3 0.1843 0.4706 0.5373);fill-opacity:1;"/>
<path d="M79.5945 51.2156C79.5945 52.0329 80.245 52.6083 80.9872 52.6083H84.8234C85.5573 52.6083 86.1744 52.2581 86.2161 51.2156V49.2975H79.5945V51.2156Z" fill="#2F7889" style="fill:#2F7889;fill:color(display-p3 0.1843 0.4706 0.5373);fill-opacity:1;"/>
<path d="M88.9019 51.2157C88.9019 52.033 89.5523 52.6084 90.2946 52.6084H94.3059C95.1648 52.6084 95.8487 52.0413 95.7736 51.1406L95.6652 49.2976H88.9019V51.2157Z" fill="#2F7889" style="fill:#2F7889;fill:color(display-p3 0.1843 0.4706 0.5373);fill-opacity:1;"/>
<path d="M98.7087 51.2156C98.7087 52.0329 99.3592 52.6083 100.101 52.6083H107.499C108.232 52.6083 108.891 52.0329 108.891 51.2156L108.758 49.2975H98.7171V51.2156H98.7087Z" fill="#2F7889" style="fill:#2F7889;fill:color(display-p3 0.1843 0.4706 0.5373);fill-opacity:1;"/>
<path d="M102.161 61.0147C102.161 61.7486 102.812 62.4074 103.554 62.4074H108.091C108.825 62.4074 109.483 61.832 109.483 61.0147L109.4 59.7722H102.17V61.0147H102.161Z" fill="#2F7889" style="fill:#2F7889;fill:color(display-p3 0.1843 0.4706 0.5373);fill-opacity:1;"/>
<path d="M92.6628 61.0146C92.6628 61.7485 93.2383 62.4073 94.0555 62.4073H97.8917C98.6256 62.4073 99.2844 61.8319 99.2844 61.0146V59.772H92.6628V61.0146Z" fill="#2F7889" style="fill:#2F7889;fill:color(display-p3 0.1843 0.4706 0.5373);fill-opacity:1;"/>
<path d="M83.2639 61.0146C83.3473 61.7484 83.9144 62.4073 84.6566 62.4073H88.4928C89.2267 62.4073 89.8855 61.8318 89.8855 61.0146V59.772H83.2639V61.0146Z" fill="#2F7889" style="fill:#2F7889;fill:color(display-p3 0.1843 0.4706 0.5373);fill-opacity:1;"/>
<path d="M73.9575 61.0148C73.9575 61.7487 74.608 62.4075 75.3502 62.4075H79.1864C79.9203 62.4075 80.5791 61.8321 80.5791 61.0148V59.7722H73.9575V61.0148Z" fill="#2F7889" style="fill:#2F7889;fill:color(display-p3 0.1843 0.4706 0.5373);fill-opacity:1;"/>
<path d="M64.5586 61.0147C64.642 61.7486 65.2091 62.4074 65.9513 62.4074H69.7875C70.5214 62.4074 71.1802 61.832 71.1802 61.0147V59.7721H64.5586V61.0147Z" fill="#2F7889" style="fill:#2F7889;fill:color(display-p3 0.1843 0.4706 0.5373);fill-opacity:1;"/>
<path d="M55.2434 61.0146C55.2434 61.7484 55.8939 62.4073 56.6361 62.4073H60.4723C61.2062 62.4073 61.865 61.8318 61.865 61.0146V59.772H55.2434V61.0146Z" fill="#2F7889" style="fill:#2F7889;fill:color(display-p3 0.1843 0.4706 0.5373);fill-opacity:1;"/>
<path d="M45.9282 61.0147C45.9282 61.7486 46.5787 62.4074 47.3209 62.4074H51.1571C51.891 62.4074 52.5498 61.832 52.5498 61.0147V59.7721H45.9282V61.0147Z" fill="#2F7889" style="fill:#2F7889;fill:color(display-p3 0.1843 0.4706 0.5373);fill-opacity:1;"/>
<path d="M36.6125 61.0146C36.6125 61.7485 37.188 62.4073 37.9219 62.4073H41.758C42.4919 62.4073 43.1507 61.8319 43.1507 61.0146V59.772H36.6125V61.0146Z" fill="#2F7889" style="fill:#2F7889;fill:color(display-p3 0.1843 0.4706 0.5373);fill-opacity:1;"/>
<path d="M22.594 61.0146C22.594 61.7484 23.1694 62.4073 23.9033 62.4073H31.9593C32.6932 62.4073 33.2686 61.8318 33.2686 61.0146V59.772L22.6023 59.7469L22.594 61.0146Z" fill="#2F7889" style="fill:#2F7889;fill:color(display-p3 0.1843 0.4706 0.5373);fill-opacity:1;"/>
<path d="M79.1865 71.0723C79.1865 71.7478 79.762 72.4233 80.4958 72.4233H84.332C85.0659 72.4233 85.6413 71.8312 85.6413 71.0723V69.9297H79.1865V71.0723Z" fill="#2F7889" style="fill:#2F7889;fill:color(display-p3 0.1843 0.4706 0.5373);fill-opacity:1;"/>
<path d="M69.3787 71.0721C69.3787 71.7476 69.9541 72.4231 70.688 72.4231H74.5242C75.258 72.4231 75.8335 71.831 75.8335 71.0721L75.8251 69.9296H69.3787V71.0721Z" fill="#2F7889" style="fill:#2F7889;fill:color(display-p3 0.1843 0.4706 0.5373);fill-opacity:1;"/>
<path d="M59.5715 71.0721C59.5715 71.7476 60.147 72.4231 60.8808 72.4231H64.717C65.4509 72.4231 66.0263 71.831 66.0263 71.0721V69.9296H59.5715V71.0721Z" fill="#2F7889" style="fill:#2F7889;fill:color(display-p3 0.1843 0.4706 0.5373);fill-opacity:1;"/>
<path d="M49.7728 71.0723C49.6894 71.7478 50.3482 72.4233 51.0821 72.4233H54.9183C55.6521 72.4233 56.2276 71.8312 56.2276 71.0723V69.9297H49.7728V71.0723Z" fill="#2F7889" style="fill:#2F7889;fill:color(display-p3 0.1843 0.4706 0.5373);fill-opacity:1;"/>
<path d="M39.9654 71.0723C39.882 71.7478 40.5408 72.4233 41.2747 72.4233H45.1109C45.8448 72.4233 46.4202 71.8312 46.4202 71.0723V70.1549H39.9654V71.0723Z" fill="#2F7889" style="fill:#2F7889;fill:color(display-p3 0.1843 0.4706 0.5373);fill-opacity:1;"/>
<path d="M22.2356 70.9888C22.2356 71.7477 22.811 72.4232 23.5449 72.4232H34.7949C35.5288 72.4232 36.1042 71.8311 36.1042 70.9888L36.2043 69.8964H22.2523L22.2356 70.9888Z" fill="#2F7889" style="fill:#2F7889;fill:color(display-p3 0.1843 0.4706 0.5373);fill-opacity:1;"/>
<path d="M89.4188 71.0721C89.5022 71.9144 90.0693 72.5065 90.8115 72.5065H108.6C109.334 72.5065 109.992 71.9144 109.992 71.0721L109.984 69.8962L89.4021 69.9379L89.4188 71.0721Z" fill="#2F7889" style="fill:#2F7889;fill:color(display-p3 0.1843 0.4706 0.5373);fill-opacity:1;"/>
<path d="M103.955 82.3057H109.067C109.801 82.3057 110.46 81.7052 110.46 80.8546V79.562H102.562V80.8546C102.562 81.6302 103.221 82.3057 103.955 82.3057Z" fill="#2F7889" style="fill:#2F7889;fill:color(display-p3 0.1843 0.4706 0.5373);fill-opacity:1;"/>
<path d="M93.238 82.3054H97.5745C98.3084 82.3054 98.9672 81.7049 98.9672 80.8543V79.4949L91.8536 79.5617V80.8543C91.8453 81.6299 92.4207 82.3054 93.238 82.3054Z" fill="#2F7889" style="fill:#2F7889;fill:color(display-p3 0.1843 0.4706 0.5373);fill-opacity:1;"/>
<path d="M45.194 82.3054H86.8583C87.5922 82.3054 88.251 81.705 88.251 80.8543V79.5617H43.8013L43.8096 80.8543C43.8096 81.8467 44.4601 82.3054 45.194 82.3054Z" fill="#2F7889" style="fill:#2F7889;fill:color(display-p3 0.1843 0.4706 0.5373);fill-opacity:1;"/>
<path d="M34.6864 82.3055H38.9062C39.64 82.3055 40.2989 81.705 40.2989 80.8544V79.5618L33.4604 79.7119L33.4688 80.8544C33.4354 81.68 33.9525 82.3055 34.6864 82.3055Z" fill="#2F7889" style="fill:#2F7889;fill:color(display-p3 0.1843 0.4706 0.5373);fill-opacity:1;"/>
<path d="M22.8943 82.3056H28.24C28.9738 82.3056 29.5493 81.7051 29.5493 80.8545V79.5619H21.5934V80.8545C21.585 81.6301 22.1521 82.3056 22.8943 82.3056Z" fill="#2F7889" style="fill:#2F7889;fill:color(display-p3 0.1843 0.4706 0.5373);fill-opacity:1;"/>
<path d="M28.1501 51.9758H24.3139C23.5801 51.9758 23.0046 51.4337 23.0046 50.6498L23.3799 46.9888C23.3799 46.2882 23.9553 45.6628 24.6892 45.6628H28.5254C29.2593 45.6628 29.8347 46.2048 29.8347 46.9888L29.4594 50.6498C29.4594 51.3503 28.884 51.9758 28.1501 51.9758Z" fill="white" style="fill:white;fill-opacity:1;"/>
<path d="M37.8406 51.9753H34.0044C33.2705 51.9753 32.6951 51.4332 32.6951 50.6493L32.8368 46.9882C32.8368 46.2877 33.4123 45.6622 34.1461 45.6622H37.8406C38.5744 45.6622 39.1499 46.2043 39.1499 46.9882V50.6493C39.1499 51.4665 38.6578 51.9753 37.8406 51.9753Z" fill="white" style="fill:white;fill-opacity:1;"/>
<path d="M47.1559 51.9754H43.3197C42.5858 51.9754 41.927 51.4333 41.927 50.6494V46.9883C41.927 46.2878 42.5024 45.6624 43.3197 45.6624H47.1559C47.8898 45.6624 48.5486 46.2044 48.5486 46.9883V50.6494C48.5403 51.3499 47.8898 51.9754 47.1559 51.9754Z" fill="white" style="fill:white;fill-opacity:1;"/>
<path d="M56.5463 51.9753H52.7101C51.9762 51.9753 51.3174 51.4332 51.3174 50.6493V46.9883C51.3174 46.2878 51.8928 45.6623 52.7101 45.6623H56.5463C57.2801 45.6623 57.939 46.2044 57.939 46.9883V50.6493C57.939 51.4416 57.2801 51.9753 56.5463 51.9753Z" fill="white" style="fill:white;fill-opacity:1;"/>
<path d="M65.8615 51.9753H62.0253C61.2914 51.9753 60.6326 51.4332 60.6326 50.6493V46.9882C60.6326 46.2877 61.208 45.6622 62.0253 45.6622H65.8615C66.5953 45.6622 67.2542 46.2043 67.2542 46.9882V50.6493C67.2542 51.3498 66.5953 51.9753 65.8615 51.9753Z" fill="white" style="fill:white;fill-opacity:1;"/>
<path d="M75.2601 51.9753H71.424C70.6901 51.9753 70.0312 51.4332 70.0312 50.6493V46.9883C70.0312 46.2878 70.6067 45.6623 71.424 45.6623H75.2601C75.994 45.6623 76.6528 46.2044 76.6528 46.9883V50.6493C76.6445 51.4749 75.994 51.9753 75.2601 51.9753Z" fill="white" style="fill:white;fill-opacity:1;"/>
<path d="M84.5753 51.9754H80.7391C80.0053 51.9754 79.3464 51.4333 79.3464 50.6494V46.9883C79.3464 46.2878 79.9219 45.6624 80.7391 45.6624H84.5753C85.3092 45.6624 85.968 46.2044 85.968 46.9883V50.6494C85.9597 51.4917 85.3092 51.9754 84.5753 51.9754Z" fill="white" style="fill:white;fill-opacity:1;"/>
<path d="M94.0573 51.9752H90.046C89.3121 51.9752 88.6533 51.4331 88.6533 50.6492V46.9882C88.6533 46.2876 89.2287 45.6622 90.046 45.6622H93.8822C94.6161 45.6622 95.2749 46.2042 95.2749 46.9882L95.4417 50.6492C95.4417 51.3497 94.7912 51.9752 94.0573 51.9752Z" fill="white" style="fill:white;fill-opacity:1;"/>
<path d="M107.142 51.9752H99.8532C99.1193 51.9752 98.4604 51.4331 98.4604 50.6492V46.9882C98.4604 46.2876 99.0359 45.6622 99.8532 45.6622H106.958C107.692 45.6622 108.351 46.2042 108.351 46.9882L108.535 50.6492C108.526 51.3497 107.876 51.9752 107.142 51.9752Z" fill="white" style="fill:white;fill-opacity:1;"/>
<path d="M103.297 61.8827H107.834C108.568 61.8827 109.227 61.3407 109.227 60.5567L108.968 56.8957C108.968 56.1952 108.393 55.5697 107.576 55.5697H103.306C102.572 55.5697 101.913 56.1118 101.913 56.8957V60.5567C101.913 61.2573 102.564 61.8827 103.297 61.8827Z" fill="white" style="fill:white;fill-opacity:1;"/>
<path d="M93.8073 61.8828H97.6434C98.3773 61.8828 99.0361 61.3407 99.0361 60.5568V56.8957C99.0361 56.1952 98.4607 55.5698 97.6434 55.5698H93.8073C93.0734 55.5698 92.4146 56.1118 92.4146 56.8957V60.5568C92.4146 61.2573 92.99 61.8828 93.8073 61.8828Z" fill="white" style="fill:white;fill-opacity:1;"/>
<path d="M84.4086 61.8828H88.2448C88.9786 61.8828 89.6375 61.3407 89.6375 60.5568V56.8957C89.6375 56.1952 89.062 55.5698 88.2448 55.5698H84.4086C83.6747 55.5698 83.0159 56.1118 83.0159 56.8957V60.5568C83.0993 61.2573 83.6747 61.8828 84.4086 61.8828Z" fill="white" style="fill:white;fill-opacity:1;"/>
<path d="M75.0934 61.8827H78.9296C79.6634 61.8827 80.3223 61.3406 80.3223 60.5567V56.8956C80.3223 56.1951 79.7468 55.5696 78.9296 55.5696H75.0934C74.3595 55.5696 73.7007 56.1117 73.7007 56.8956V60.5567C73.709 61.2572 74.3595 61.8827 75.0934 61.8827Z" fill="white" style="fill:white;fill-opacity:1;"/>
<path d="M65.703 61.8827H69.5392C70.2731 61.8827 70.9319 61.3407 70.9319 60.5567V56.8957C70.9319 56.1952 70.3565 55.5697 69.5392 55.5697H65.703C64.9691 55.5697 64.3103 56.1118 64.3103 56.8957V60.5567C64.3937 61.2573 64.9608 61.8827 65.703 61.8827Z" fill="white" style="fill:white;fill-opacity:1;"/>
<path d="M56.3878 61.8828H60.224C60.9579 61.8828 61.6167 61.3407 61.6167 60.5568V56.8957C61.6167 56.1952 61.0413 55.5698 60.224 55.5698H56.3878C55.6539 55.5698 54.9951 56.1118 54.9951 56.8957V60.5568C54.9951 61.2573 55.6539 61.8828 56.3878 61.8828Z" fill="white" style="fill:white;fill-opacity:1;"/>
<path d="M47.0726 61.8827H50.9088C51.6427 61.8827 52.3015 61.3406 52.3015 60.5567V56.8956C52.3015 56.1951 51.7261 55.5696 50.9088 55.5696H47.0726C46.3388 55.5696 45.6799 56.1117 45.6799 56.8956V60.5567C45.6799 61.2572 46.3388 61.8827 47.0726 61.8827Z" fill="white" style="fill:white;fill-opacity:1;"/>
<path d="M37.6741 61.8828H41.5102C42.2441 61.8828 42.9029 61.3407 42.9029 60.5568V56.8957C42.9029 56.1952 42.3275 55.5698 41.5102 55.5698H37.6741C36.9402 55.5698 36.3647 56.1118 36.3647 56.8957V60.5568C36.3647 61.2573 36.9402 61.8828 37.6741 61.8828Z" fill="white" style="fill:white;fill-opacity:1;"/>
<path d="M23.6553 61.8831H31.7112C32.4451 61.8831 33.0206 61.341 33.0206 60.5571V56.8961C33.0206 56.1955 32.4451 55.5701 31.7112 55.5701H23.9471C23.2133 55.5701 22.6378 56.1121 22.6378 56.8961L22.3459 60.5571C22.3459 61.2576 22.9214 61.8831 23.6553 61.8831Z" fill="white" style="fill:white;fill-opacity:1;"/>
<path d="M80.239 71.8234H84.0752C84.8091 71.8234 85.3845 71.2813 85.3845 70.5808V66.9198C85.3845 66.2193 84.8091 65.6772 84.0752 65.6772H80.239C79.5051 65.6772 78.9297 66.2193 78.9297 66.9198V70.5808C78.938 71.198 79.5051 71.8234 80.239 71.8234Z" fill="white" style="fill:white;fill-opacity:1;"/>
<path d="M70.4397 71.8234H74.2759C75.0097 71.8234 75.5852 71.2813 75.5852 70.5808V66.9197C75.5852 66.2192 75.0097 65.6771 74.2759 65.6771H70.4397C69.7058 65.6771 69.1304 66.2192 69.1304 66.9197V70.5808C69.1304 71.1979 69.7058 71.8234 70.4397 71.8234Z" fill="white" style="fill:white;fill-opacity:1;"/>
<path d="M60.6325 71.8234H64.4687C65.2026 71.8234 65.778 71.2813 65.778 70.5808V66.9198C65.778 66.2193 65.2026 65.6772 64.4687 65.6772H60.6325C59.8987 65.6772 59.3232 66.2193 59.3232 66.9198V70.5808C59.3232 71.198 59.8987 71.8234 60.6325 71.8234Z" fill="white" style="fill:white;fill-opacity:1;"/>
<path d="M50.8252 71.8234H54.6614C55.3952 71.8234 55.9707 71.2813 55.9707 70.5808V66.9198C55.9707 66.2193 55.3952 65.6772 54.6614 65.6772H50.8252C50.0913 65.6772 49.5159 66.2193 49.5159 66.9198V70.5808C49.5242 71.2313 50.0913 71.8234 50.8252 71.8234Z" fill="white" style="fill:white;fill-opacity:1;"/>
<path d="M41.0264 71.8234H44.8626C45.5965 71.8234 46.1719 71.2813 46.1719 70.5808V66.9198C46.1719 66.2193 45.5965 65.6772 44.8626 65.6772H41.0264C40.2925 65.6772 39.7171 66.2193 39.7171 66.9198V70.5808C39.6337 71.198 40.2925 71.8234 41.0264 71.8234Z" fill="white" style="fill:white;fill-opacity:1;"/>
<path d="M23.2964 71.8239H34.6548C35.3887 71.8239 35.9641 71.2818 35.9641 70.4979L36.206 66.8369C36.206 66.1363 35.6305 65.5109 34.8967 65.5109H23.4882C22.7543 65.5109 22.1789 66.0529 22.1789 66.8369L21.9871 70.4979C21.9871 71.1984 22.5625 71.8239 23.2964 71.8239Z" fill="white" style="fill:white;fill-opacity:1;"/>
<path d="M90.5131 71.8985H108.343C109.077 71.8985 109.736 71.3565 109.736 70.5725L109.452 66.678C109.452 65.9775 108.877 65.352 108.059 65.352H90.3046C89.5707 65.352 88.9119 65.8941 88.9119 66.678L89.1204 70.5725C89.2037 71.3565 89.7792 71.8985 90.5131 71.8985Z" fill="white" style="fill:white;fill-opacity:1;"/>
<path d="M103.706 81.689H108.818C109.552 81.689 110.211 81.1469 110.211 80.363L109.969 76.702C109.969 76.0014 109.393 75.376 108.576 75.376H103.706C102.972 75.376 102.313 75.918 102.313 76.702V80.363C102.313 81.0635 102.972 81.689 103.706 81.689Z" fill="white" style="fill:white;fill-opacity:1;"/>
<path d="M92.9899 81.689H97.3264C98.0603 81.689 98.7191 81.1469 98.7191 80.363V76.702C98.7191 76.0014 98.1437 75.376 97.3264 75.376H92.9899C92.256 75.376 91.5972 75.918 91.5972 76.702V80.363C91.5972 81.0635 92.1726 81.689 92.9899 81.689Z" fill="white" style="fill:white;fill-opacity:1;"/>
<path d="M44.9458 81.6889H86.6101C87.344 81.6889 88.0028 81.1469 88.0028 80.363V76.7019C88.0028 76.0014 87.4274 75.3759 86.6101 75.3759H44.9458C44.2119 75.3759 43.5531 75.918 43.5531 76.7019V80.363C43.4864 81.2136 44.2119 81.6889 44.9458 81.6889Z" fill="white" style="fill:white;fill-opacity:1;"/>
<path d="M34.4377 81.6891H38.6575C39.3914 81.6891 40.0502 81.147 40.0502 80.3631V76.702C40.0502 76.0015 39.4748 75.376 38.7409 75.376L34.4961 75.3927C33.7622 75.3927 33.1868 75.9348 33.1868 76.7187L33.2118 80.3631C33.1868 81.1053 33.7038 81.6891 34.4377 81.6891Z" fill="white" style="fill:white;fill-opacity:1;"/>
<path d="M22.6457 81.6894H27.9914C28.7253 81.6894 29.3007 81.1473 29.3007 80.3634V76.7023C29.3007 76.0018 28.7253 75.3763 27.9914 75.3763H23.0043C22.2705 75.3763 21.695 75.9184 21.695 76.7023L21.3364 80.3634C21.3364 81.0639 21.9035 81.6894 22.6457 81.6894Z" fill="white" style="fill:white;fill-opacity:1;"/>
</svg>
