<svg width="129" height="128" viewBox="0 0 129 128" fill="none" xmlns="http://www.w3.org/2000/svg">
<g filter="url(#filter0_i_911_471)">
<path fill-rule="evenodd" clip-rule="evenodd" d="M39.9105 36.5638C38.018 39.9028 36.9274 43.5699 36.6262 47.558C36.5984 47.9212 36.6197 48.2752 36.6842 48.6143L39.0362 91.4685C38.3537 92.2121 37.9804 93.186 37.9804 94.19V99.97C37.9804 102.195 39.7859 104 42.0104 104H88.3604C90.585 104 92.3904 102.195 92.3904 99.97V94.04C92.3904 91.8154 90.585 90.01 88.3604 90.01H60.2504C60.2439 90.01 60.2388 90.0097 60.235 90.0094C60.2331 90.0066 60.2309 90.0031 60.2289 89.9989C60.2282 89.9977 60.2276 89.9964 60.2271 89.995C60.2242 89.9884 60.2225 89.9823 60.2217 89.9778C60.2242 89.9743 60.2286 89.9689 60.2344 89.9626L75.3625 73.7547L75.3712 73.7453C80.245 68.456 83.8348 63.6465 86.0588 59.3252L86.0597 59.3234C88.2802 54.9982 89.4504 50.7656 89.4504 46.64C89.4504 39.7096 87.1589 34.0719 82.4544 29.9722L82.4523 29.9704C77.7892 25.9179 71.5324 24 63.9204 24C58.609 24 53.8217 25.066 49.6331 27.258C45.4455 29.4494 42.1881 32.556 39.9116 36.5618L39.9105 36.5638ZM36.6842 48.6143L39.0378 91.4668L63.4682 64.8172C67.0302 60.839 69.4865 57.6168 70.9104 55.104L70.912 55.1012C72.2933 52.6726 72.9404 50.3 72.9404 47.98C72.9404 44.8032 72.0619 42.439 70.4539 40.679C68.8774 38.9535 66.745 38.03 63.8204 38.03C60.2064 38.03 57.6573 39.1179 55.8862 41.0788C54.3447 42.792 53.384 45.1019 53.1232 48.16C52.9492 50.2048 51.2687 51.88 49.1104 51.88H40.6504C38.6871 51.88 37.0376 50.4721 36.6842 48.6143ZM36.6842 48.6143C36.6842 48.6142 36.6842 48.6144 36.6842 48.6143V48.6143Z" fill="#606265" style="fill:#606265;fill:color(display-p3 0.3765 0.3843 0.3961);fill-opacity:1;"/>
</g>
<defs>
<filter id="filter0_i_911_471" x="36.6143" y="24" width="55.7764" height="80" filterUnits="userSpaceOnUse" color-interpolation-filters="sRGB">
<feFlood flood-opacity="0" result="BackgroundImageFix"/>
<feBlend mode="normal" in="SourceGraphic" in2="BackgroundImageFix" result="shape"/>
<feColorMatrix in="SourceAlpha" type="matrix" values="0 0 0 0 0 0 0 0 0 0 0 0 0 0 0 0 0 0 127 0" result="hardAlpha"/>
<feOffset dx="-3" dy="-5"/>
<feComposite in2="hardAlpha" operator="arithmetic" k2="-1" k3="1"/>
<feColorMatrix type="matrix" values="0 0 0 0 0 0 0 0 0 0 0 0 0 0 0 0 0 0 0.25 0"/>
<feBlend mode="normal" in2="shape" result="effect1_innerShadow_911_471"/>
</filter>
</defs>
</svg>
