<svg width="128" height="128" viewBox="0 0 128 128" fill="none" xmlns="http://www.w3.org/2000/svg">
<path d="M63.6001 118.8C35.7001 118.8 5.6001 101.3 5.6001 62.9C5.6001 24.5 35.7001 7 63.6001 7C79.1001 7 93.4001 12.1 104 21.4C115.5 31.6 121.6 46 121.6 62.9C121.6 79.8 115.5 94.1 104 104.3C93.4001 113.6 79.0001 118.8 63.6001 118.8Z" fill="url(#paint0_radial_169_8826)" style=""/>
<path d="M63.6001 118.8C35.7001 118.8 5.6001 101.3 5.6001 62.9C5.6001 24.5 35.7001 7 63.6001 7C79.1001 7 93.4001 12.1 104 21.4C115.5 31.6 121.6 46 121.6 62.9C121.6 79.8 115.5 94.1 104 104.3C93.4001 113.6 79.0001 118.8 63.6001 118.8Z" fill="url(#paint1_radial_169_8826)" style=""/>
<path d="M63.6001 118.8C35.7001 118.8 5.6001 101.3 5.6001 62.9C5.6001 24.5 35.7001 7 63.6001 7C79.1001 7 93.4001 12.1 104 21.4C115.5 31.6 121.6 46 121.6 62.9C121.6 79.8 115.5 94.1 104 104.3C93.4001 113.6 79.0001 118.8 63.6001 118.8Z" fill="url(#paint2_radial_169_8826)" style=""/>
<path d="M111.49 29.67C116.82 38.27 119.6 48.51 119.6 59.9C119.6 76.8 113.5 91.1 102 101.3C91.4002 110.6 77.0002 115.8 61.6002 115.8C43.5402 115.8 24.6002 108.45 13.4202 92.86C24.1802 110.52 44.4202 118.8 63.6002 118.8C79.0002 118.8 93.4002 113.6 104 104.3C115.5 94.1 121.6 79.8 121.6 62.9C121.6 50.16 118.13 38.84 111.49 29.67Z" fill="#EB8F00" style="fill:#EB8F00;fill:color(display-p3 0.9216 0.5608 0.0000);fill-opacity:1;"/>
<path d="M111.49 29.67C116.82 38.27 119.6 48.51 119.6 59.9C119.6 76.8 113.5 91.1 102 101.3C91.4002 110.6 77.0002 115.8 61.6002 115.8C43.5402 115.8 24.6002 108.45 13.4202 92.86C24.1802 110.52 44.4202 118.8 63.6002 118.8C79.0002 118.8 93.4002 113.6 104 104.3C115.5 94.1 121.6 79.8 121.6 62.9C121.6 50.16 118.13 38.84 111.49 29.67Z" fill="#4A2F27" style="fill:#4A2F27;fill:color(display-p3 0.2902 0.1843 0.1529);fill-opacity:1;"/>
<path d="M63.9999 93.81C52.4899 93.81 44.2699 87.81 41.7999 84.07C40.8699 82.86 40.6799 81.24 41.2999 79.85C41.7699 78.96 42.6999 78.41 43.7099 78.44C44.0799 78.44 44.4499 78.5 44.7999 78.61C51.0299 80.49 57.4999 81.43 63.9999 81.39C70.4999 81.43 76.9799 80.49 83.1999 78.61C83.5499 78.5 83.9199 78.44 84.2899 78.44C85.2999 78.41 86.2299 78.96 86.6999 79.85C87.3199 81.24 87.1299 82.86 86.1999 84.07C83.7299 87.83 75.5099 93.81 63.9999 93.81Z" fill="#422B0D" style="fill:#422B0D;fill:color(display-p3 0.2588 0.1686 0.0510);fill-opacity:1;"/>
<path d="M63.9999 93.81C52.4899 93.81 44.2699 87.81 41.7999 84.07C40.8699 82.86 40.6799 81.24 41.2999 79.85C41.7699 78.96 42.6999 78.41 43.7099 78.44C44.0799 78.44 44.4499 78.5 44.7999 78.61C51.0299 80.49 57.4999 81.43 63.9999 81.39C70.4999 81.43 76.9799 80.49 83.1999 78.61C83.5499 78.5 83.9199 78.44 84.2899 78.44C85.2999 78.41 86.2299 78.96 86.6999 79.85C87.3199 81.24 87.1299 82.86 86.1999 84.07C83.7299 87.83 75.5099 93.81 63.9999 93.81Z" fill="#1A1717" style="fill:#1A1717;fill:color(display-p3 0.1020 0.0902 0.0902);fill-opacity:1;"/>
<path d="M124 45.42C124 45.42 119.74 45.51 119.74 48.92C119.74 57.34 119.84 75.41 97.74 75.41C80.08 75.41 71.65 66.29 70.23 56.22C69.65 52.03 68.23 47.47 63.96 47.47C59.69 47.47 58.31 52 57.73 56.22C56.31 66.29 47.88 75.41 30.22 75.41C8.15996 75.41 8.21996 57.34 8.21996 48.92C8.21996 45.51 3.95996 45.42 3.95996 45.42V37.08C10.81 36.18 17.71 35.76 24.61 35.82C37.09 35.82 42.06 35.82 51.99 36.82C57.86 37.4 63.99 37.47 63.99 37.47C63.99 37.47 70.09 37.4 75.99 36.82C85.92 35.82 90.89 35.82 103.37 35.82C110.27 35.76 117.16 36.19 124 37.08V45.42Z" fill="#422B0D" style="fill:#422B0D;fill:color(display-p3 0.2588 0.1686 0.0510);fill-opacity:1;"/>
<path d="M124 45.42C124 45.42 119.74 45.51 119.74 48.92C119.74 57.34 119.84 75.41 97.74 75.41C80.08 75.41 71.65 66.29 70.23 56.22C69.65 52.03 68.23 47.47 63.96 47.47C59.69 47.47 58.31 52 57.73 56.22C56.31 66.29 47.88 75.41 30.22 75.41C8.15996 75.41 8.21996 57.34 8.21996 48.92C8.21996 45.51 3.95996 45.42 3.95996 45.42V37.08C10.81 36.18 17.71 35.76 24.61 35.82C37.09 35.82 42.06 35.82 51.99 36.82C57.86 37.4 63.99 37.47 63.99 37.47C63.99 37.47 70.09 37.4 75.99 36.82C85.92 35.82 90.89 35.82 103.37 35.82C110.27 35.76 117.16 36.19 124 37.08V45.42Z" fill="#212121" style="fill:#212121;fill:color(display-p3 0.1294 0.1294 0.1294);fill-opacity:1;"/>
<path d="M21.1199 52C21.0199 53.6 20.3799 55.08 18.8099 55.38C18.6299 55.41 18.4599 55.43 18.2799 55.43C16.8699 55.42 15.6599 54.4 15.4399 53C14.8299 50.24 15.4999 47.35 17.2599 45.14C18.8799 43.18 21.2999 42.05 23.8399 42.06C25.3499 41.92 26.6899 43.03 26.8299 44.54C26.8299 44.57 26.8399 44.6 26.8399 44.64C26.8399 46.52 25.3399 47.32 23.8399 47.84C22.1999 48.58 21.1399 50.2 21.1199 52Z" fill="#585858" style="fill:#585858;fill:color(display-p3 0.3458 0.3458 0.3458);fill-opacity:1;"/>
<path d="M84.7 52C84.61 53.6 83.96 55.08 82.4 55.38C82.22 55.41 82.04 55.43 81.86 55.43C80.44 55.43 79.23 54.4 79 53C78.39 50.24 79.06 47.35 80.82 45.14C82.45 43.18 84.86 42.05 87.41 42.06C88.92 41.92 90.26 43.03 90.4 44.54C90.4 44.57 90.41 44.6 90.41 44.64C90.41 46.52 88.91 47.32 87.41 47.84C85.78 48.58 84.72 50.2 84.7 52Z" fill="#585858" style="fill:#585858;fill:color(display-p3 0.3458 0.3458 0.3458);fill-opacity:1;"/>
<defs>
<radialGradient id="paint0_radial_169_8826" cx="0" cy="0" r="1" gradientUnits="userSpaceOnUse" gradientTransform="translate(63.6001 62.8999) scale(56.9597 56.9597)">
<stop offset="0.5" stop-color="#FDE030" style="stop-color:#FDE030;stop-color:color(display-p3 0.9922 0.8784 0.1882);stop-opacity:1;"/>
<stop offset="0.92" stop-color="#F7C02B" style="stop-color:#F7C02B;stop-color:color(display-p3 0.9686 0.7529 0.1686);stop-opacity:1;"/>
<stop offset="1" stop-color="#F4A223" style="stop-color:#F4A223;stop-color:color(display-p3 0.9569 0.6353 0.1373);stop-opacity:1;"/>
</radialGradient>
<radialGradient id="paint1_radial_169_8826" cx="0" cy="0" r="1" gradientUnits="userSpaceOnUse" gradientTransform="translate(38.5991 34.5377) rotate(-43.2082) scale(102.024 101.825)">
<stop offset="0.3533" stop-color="#F9DDBD" style="stop-color:#F9DDBD;stop-color:color(display-p3 0.9765 0.8667 0.7412);stop-opacity:1;"/>
<stop offset="0.8723" stop-color="#FFD29C" style="stop-color:#FFD29C;stop-color:color(display-p3 1.0000 0.8235 0.6118);stop-opacity:1;"/>
</radialGradient>
<radialGradient id="paint2_radial_169_8826" cx="0" cy="0" r="1" gradientUnits="userSpaceOnUse" gradientTransform="translate(38.5991 34.5377) rotate(-43.2082) scale(102.024 101.825)">
<stop offset="0.3533" stop-color="#70534A" style="stop-color:#70534A;stop-color:color(display-p3 0.4392 0.3255 0.2902);stop-opacity:1;"/>
<stop offset="0.8723" stop-color="#5C4037" style="stop-color:#5C4037;stop-color:color(display-p3 0.3608 0.2510 0.2157);stop-opacity:1;"/>
</radialGradient>
</defs>
</svg>
