<svg width="128" height="128" viewBox="0 0 128 128" fill="none" xmlns="http://www.w3.org/2000/svg">
<path d="M63.6 118.8C35.7 118.8 5.59998 101.3 5.59998 62.9C5.59998 24.5 35.7 7 63.6 7C79.1 7 93.4 12.1 104 21.4C115.5 31.6 121.6 46 121.6 62.9C121.6 79.8 115.5 94.1 104 104.3C93.4 113.6 79 118.8 63.6 118.8Z" fill="url(#paint0_radial_169_10316)" style=""/>
<path d="M63.6 118.8C35.7 118.8 5.59998 101.3 5.59998 62.9C5.59998 24.5 35.7 7 63.6 7C79.1 7 93.4 12.1 104 21.4C115.5 31.6 121.6 46 121.6 62.9C121.6 79.8 115.5 94.1 104 104.3C93.4 113.6 79 118.8 63.6 118.8Z" fill="url(#paint1_radial_169_10316)" style=""/>
<path d="M63.6 118.8C35.7 118.8 5.59998 101.3 5.59998 62.9C5.59998 24.5 35.7 7 63.6 7C79.1 7 93.4 12.1 104 21.4C115.5 31.6 121.6 46 121.6 62.9C121.6 79.8 115.5 94.1 104 104.3C93.4 113.6 79 118.8 63.6 118.8Z" fill="url(#paint2_radial_169_10316)" style=""/>
<path d="M63.6 118.8C35.7 118.8 5.59998 101.3 5.59998 62.9C5.59998 24.5 35.7 7 63.6 7C79.1 7 93.4 12.1 104 21.4C115.5 31.6 121.6 46 121.6 62.9C121.6 79.8 115.5 94.1 104 104.3C93.4 113.6 79 118.8 63.6 118.8Z" fill="url(#paint3_radial_169_10316)" style=""/>
<path d="M111.49 29.67C116.82 38.27 119.6 48.51 119.6 59.9C119.6 76.8 113.5 91.1 102 101.3C91.3999 110.6 76.9999 115.8 61.5999 115.8C43.5399 115.8 24.5999 108.45 13.4199 92.86C24.1799 110.52 44.4199 118.8 63.5999 118.8C78.9999 118.8 93.3999 113.6 104 104.3C115.5 94.1 121.6 79.8 121.6 62.9C121.6 50.16 118.13 38.84 111.49 29.67Z" fill="#EB8F00" style="fill:#EB8F00;fill:color(display-p3 0.9216 0.5608 0.0000);fill-opacity:1;"/>
<path d="M111.49 29.67C116.82 38.27 119.6 48.51 119.6 59.9C119.6 76.8 113.5 91.1 102 101.3C91.3999 110.6 76.9999 115.8 61.5999 115.8C43.5399 115.8 24.5999 108.45 13.4199 92.86C24.1799 110.52 44.4199 118.8 63.5999 118.8C78.9999 118.8 93.3999 113.6 104 104.3C115.5 94.1 121.6 79.8 121.6 62.9C121.6 50.16 118.13 38.84 111.49 29.67Z" fill="#F3B872" style="fill:#F3B872;fill:color(display-p3 0.9542 0.7229 0.4453);fill-opacity:1;"/>
<path d="M111.49 29.67C116.82 38.27 119.6 48.51 119.6 59.9C119.6 76.8 113.5 91.1 102 101.3C91.3999 110.6 76.9999 115.8 61.5999 115.8C43.5399 115.8 24.5999 108.45 13.4199 92.86C24.1799 110.52 44.4199 118.8 63.5999 118.8C78.9999 118.8 93.3999 113.6 104 104.3C115.5 94.1 121.6 79.8 121.6 62.9C121.6 50.16 118.13 38.84 111.49 29.67Z" fill="#4A2F27" style="fill:#4A2F27;fill:color(display-p3 0.2902 0.1843 0.1529);fill-opacity:1;"/>
<path d="M75 96H53C50.79 96 49 94.21 49 92C49 89.79 50.79 88 53 88H75C77.21 88 79 89.79 79 92C79 94.21 77.21 96 75 96Z" fill="#42312C" style="fill:#42312C;fill:color(display-p3 0.2588 0.1922 0.1725);fill-opacity:1;"/>
<path d="M75 96H53C50.79 96 49 94.21 49 92C49 89.79 50.79 88 53 88H75C77.21 88 79 89.79 79 92C79 94.21 77.21 96 75 96Z" fill="#42312C" style="fill:#42312C;fill:color(display-p3 0.2588 0.1922 0.1725);fill-opacity:1;"/>
<path d="M83.5 46C87.2 46 90.5 50.3 90.5 57.5C90.5 64.7 87.2 69 83.5 69C79.8 69 76.5 64.7 76.5 57.5C76.5 50.3 79.8 46.1 83.5 46Z" fill="#42312C" style="fill:#42312C;fill:color(display-p3 0.2588 0.1922 0.1725);fill-opacity:1;"/>
<path d="M83.5 46C87.2 46 90.5 50.3 90.5 57.5C90.5 64.7 87.2 69 83.5 69C79.8 69 76.5 64.7 76.5 57.5C76.5 50.3 79.8 46.1 83.5 46Z" fill="#42312C" style="fill:#42312C;fill:color(display-p3 0.2588 0.1922 0.1725);fill-opacity:1;"/>
<path d="M27.1 45.6C27.5 44.8 27.8 44.2 28.2 43.5C28.64 42.88 29.1 42.28 29.6 41.7C30.74 40.49 32.1 39.51 33.6 38.8C35.19 38.06 36.94 37.71 38.7 37.8C40.36 37.88 42 38.29 43.5 39L44.5 39.5C44.8 39.6 45 39.8 45.3 39.9C45.8 40.1 46.4 40.4 46.9 40.6C47.94 41.01 49.01 41.34 50.1 41.6C50.62 41.72 51.16 41.79 51.7 41.8H53C53.42 41.74 53.83 41.61 54.2 41.4C54.64 41.19 55.04 40.92 55.4 40.6L55.6 40.4C56.6 39.69 57.98 39.91 58.7 40.9C59.34 41.79 59.26 43.01 58.5 43.8C57.92 44.39 57.28 44.93 56.6 45.4C55.86 45.89 55.05 46.26 54.2 46.5C53.8 46.6 53.2 46.7 52.8 46.8C52.42 46.96 52.01 47.03 51.6 47C50.83 47.02 50.06 46.99 49.3 46.9C47.83 46.73 46.39 46.4 45 45.9C44.31 45.69 43.64 45.43 43 45.1C42.38 44.87 41.78 44.6 41.2 44.3C39.53 43.56 37.64 43.45 35.9 44C35.01 44.35 34.17 44.82 33.4 45.4C33 45.7 32.6 46.1 32.2 46.4C31.81 46.74 31.44 47.11 31.1 47.5L30.7 48C29.9 48.86 28.56 48.9 27.7 48.1C27.66 48.07 27.63 48.03 27.6 48C26.95 47.38 26.75 46.43 27.1 45.6Z" fill="#42312C" style="fill:#42312C;fill:color(display-p3 0.2588 0.1922 0.1725);fill-opacity:1;"/>
<path d="M27.1 45.6C27.5 44.8 27.8 44.2 28.2 43.5C28.64 42.88 29.1 42.28 29.6 41.7C30.74 40.49 32.1 39.51 33.6 38.8C35.19 38.06 36.94 37.71 38.7 37.8C40.36 37.88 42 38.29 43.5 39L44.5 39.5C44.8 39.6 45 39.8 45.3 39.9C45.8 40.1 46.4 40.4 46.9 40.6C47.94 41.01 49.01 41.34 50.1 41.6C50.62 41.72 51.16 41.79 51.7 41.8H53C53.42 41.74 53.83 41.61 54.2 41.4C54.64 41.19 55.04 40.92 55.4 40.6L55.6 40.4C56.6 39.69 57.98 39.91 58.7 40.9C59.34 41.79 59.26 43.01 58.5 43.8C57.92 44.39 57.28 44.93 56.6 45.4C55.86 45.89 55.05 46.26 54.2 46.5C53.8 46.6 53.2 46.7 52.8 46.8C52.42 46.96 52.01 47.03 51.6 47C50.83 47.02 50.06 46.99 49.3 46.9C47.83 46.73 46.39 46.4 45 45.9C44.31 45.69 43.64 45.43 43 45.1C42.38 44.87 41.78 44.6 41.2 44.3C39.53 43.56 37.64 43.45 35.9 44C35.01 44.35 34.17 44.82 33.4 45.4C33 45.7 32.6 46.1 32.2 46.4C31.81 46.74 31.44 47.11 31.1 47.5L30.7 48C29.9 48.86 28.56 48.9 27.7 48.1C27.66 48.07 27.63 48.03 27.6 48C26.95 47.38 26.75 46.43 27.1 45.6Z" fill="#42312C" style="fill:#42312C;fill:color(display-p3 0.2588 0.1922 0.1725);fill-opacity:1;"/>
<path d="M94.6 35.7C93.8 34.6 93.3 33.6 92.7 32.7C92.26 31.91 91.69 31.19 91 30.6C90.7 30.4 90.5 30.2 90.3 30.1C90.09 29.97 89.85 29.91 89.6 29.9C88.89 29.82 88.16 29.92 87.5 30.2C86.58 30.52 85.68 30.88 84.8 31.3C83.9 31.8 83 32.3 82 32.9C80.2 34.1 78.3 35.4 76.4 36.7C75.38 37.38 74 37.11 73.3 36.1C72.7 35.27 72.79 34.13 73.5 33.4C75.09 31.56 76.87 29.88 78.8 28.4C80.88 26.75 83.21 25.43 85.7 24.5C87.25 24 88.89 23.87 90.5 24.1C91.42 24.28 92.3 24.62 93.1 25.1C93.87 25.53 94.55 26.11 95.1 26.8C96.05 27.89 96.8 29.14 97.3 30.5C97.8 31.7 98.2 32.8 98.5 33.7V33.8C98.92 34.98 98.3 36.28 97.11 36.7H97.1C96.14 36.88 95.17 36.49 94.6 35.7Z" fill="#42312C" style="fill:#42312C;fill:color(display-p3 0.2588 0.1922 0.1725);fill-opacity:1;"/>
<path d="M94.6 35.7C93.8 34.6 93.3 33.6 92.7 32.7C92.26 31.91 91.69 31.19 91 30.6C90.7 30.4 90.5 30.2 90.3 30.1C90.09 29.97 89.85 29.91 89.6 29.9C88.89 29.82 88.16 29.92 87.5 30.2C86.58 30.52 85.68 30.88 84.8 31.3C83.9 31.8 83 32.3 82 32.9C80.2 34.1 78.3 35.4 76.4 36.7C75.38 37.38 74 37.11 73.3 36.1C72.7 35.27 72.79 34.13 73.5 33.4C75.09 31.56 76.87 29.88 78.8 28.4C80.88 26.75 83.21 25.43 85.7 24.5C87.25 24 88.89 23.87 90.5 24.1C91.42 24.28 92.3 24.62 93.1 25.1C93.87 25.53 94.55 26.11 95.1 26.8C96.05 27.89 96.8 29.14 97.3 30.5C97.8 31.7 98.2 32.8 98.5 33.7V33.8C98.92 34.98 98.3 36.28 97.11 36.7H97.1C96.14 36.88 95.17 36.49 94.6 35.7Z" fill="#42312C" style="fill:#42312C;fill:color(display-p3 0.2588 0.1922 0.1725);fill-opacity:1;"/>
<path d="M43.6699 50.94C39.4799 50.94 35.6699 54.48 35.6699 60.36C35.6699 66.24 39.4799 69.77 43.6699 69.77C47.8599 69.77 51.6699 66.23 51.6699 60.36C51.6699 54.49 47.8599 50.94 43.6699 50.94Z" fill="#42312C" style="fill:#42312C;fill:color(display-p3 0.2588 0.1922 0.1725);fill-opacity:1;"/>
<path d="M43.6699 50.94C39.4799 50.94 35.6699 54.48 35.6699 60.36C35.6699 66.24 39.4799 69.77 43.6699 69.77C47.8599 69.77 51.6699 66.23 51.6699 60.36C51.6699 54.49 47.8599 50.94 43.6699 50.94Z" fill="#42312C" style="fill:#42312C;fill:color(display-p3 0.2588 0.1922 0.1725);fill-opacity:1;"/>
<path d="M43.28 54.87C41.86 54.19 40.15 54.79 39.46 56.21C38.93 57.32 39.17 58.65 40.06 59.51C41.48 60.19 43.19 59.59 43.88 58.17C44.41 57.06 44.17 55.73 43.28 54.87Z" fill="#555050" style="fill:#555050;fill:color(display-p3 0.3333 0.3125 0.3125);fill-opacity:1;"/>
<path d="M82.76 50.05C81.35 49.96 80.14 51.03 80.05 52.43C80.05 52.48 80.05 52.53 80.05 52.58C79.74 53.96 80.61 55.33 81.99 55.64C82.03 55.65 82.07 55.66 82.11 55.66C83.53 55.74 84.74 54.65 84.82 53.23C84.82 53.2 84.82 53.16 84.82 53.13C85.13 51.75 84.26 50.38 82.88 50.07C82.84 50.06 82.8 50.06 82.76 50.05Z" fill="#555050" style="fill:#555050;fill:color(display-p3 0.3333 0.3125 0.3125);fill-opacity:1;"/>
<defs>
<radialGradient id="paint0_radial_169_10316" cx="0" cy="0" r="1" gradientUnits="userSpaceOnUse" gradientTransform="translate(63.6 62.9) scale(56.9597 56.9597)">
<stop offset="0.5" stop-color="#FDE030" style="stop-color:#FDE030;stop-color:color(display-p3 0.9922 0.8784 0.1882);stop-opacity:1;"/>
<stop offset="0.92" stop-color="#F7C02B" style="stop-color:#F7C02B;stop-color:color(display-p3 0.9686 0.7529 0.1686);stop-opacity:1;"/>
<stop offset="1" stop-color="#F4A223" style="stop-color:#F4A223;stop-color:color(display-p3 0.9569 0.6353 0.1373);stop-opacity:1;"/>
</radialGradient>
<radialGradient id="paint1_radial_169_10316" cx="0" cy="0" r="1" gradientUnits="userSpaceOnUse" gradientTransform="translate(38.599 34.5377) rotate(-43.2082) scale(102.024 101.825)">
<stop offset="0.3533" stop-color="#F9DDBD" style="stop-color:#F9DDBD;stop-color:color(display-p3 0.9765 0.8667 0.7412);stop-opacity:1;"/>
<stop offset="0.8723" stop-color="#FFD29C" style="stop-color:#FFD29C;stop-color:color(display-p3 1.0000 0.8235 0.6118);stop-opacity:1;"/>
</radialGradient>
<radialGradient id="paint2_radial_169_10316" cx="0" cy="0" r="1" gradientUnits="userSpaceOnUse" gradientTransform="translate(38.599 34.5377) rotate(-43.2082) scale(102.024 101.825)">
<stop offset="0.3533" stop-color="#70534A" style="stop-color:#70534A;stop-color:color(display-p3 0.4392 0.3255 0.2902);stop-opacity:1;"/>
<stop offset="0.8723" stop-color="#5C4037" style="stop-color:#5C4037;stop-color:color(display-p3 0.3608 0.2510 0.2157);stop-opacity:1;"/>
</radialGradient>
<radialGradient id="paint3_radial_169_10316" cx="0" cy="0" r="1" gradientUnits="userSpaceOnUse" gradientTransform="translate(38.599 34.5377) rotate(-43.2082) scale(102.024 101.825)">
<stop offset="0.3533" stop-color="#A56C43" style="stop-color:#A56C43;stop-color:color(display-p3 0.6471 0.4235 0.2627);stop-opacity:1;"/>
<stop offset="0.8723" stop-color="#8D5738" style="stop-color:#8D5738;stop-color:color(display-p3 0.5529 0.3412 0.2196);stop-opacity:1;"/>
</radialGradient>
</defs>
</svg>
