<svg width="128" height="128" viewBox="0 0 128 128" fill="none" xmlns="http://www.w3.org/2000/svg">
<path d="M63.6001 118.8C35.7001 118.8 5.6001 101.3 5.6001 62.9C5.6001 24.5 35.7001 7 63.6001 7C79.1001 7 93.4001 12.1 104 21.4C115.5 31.6 121.6 46 121.6 62.9C121.6 79.8 115.5 94.1 104 104.3C93.4001 113.6 79.0001 118.8 63.6001 118.8Z" fill="url(#paint0_radial_169_13645)" style=""/>
<path d="M63.6001 118.8C35.7001 118.8 5.6001 101.3 5.6001 62.9C5.6001 24.5 35.7001 7 63.6001 7C79.1001 7 93.4001 12.1 104 21.4C115.5 31.6 121.6 46 121.6 62.9C121.6 79.8 115.5 94.1 104 104.3C93.4001 113.6 79.0001 118.8 63.6001 118.8Z" fill="url(#paint1_linear_169_13645)" style=""/>
<path d="M63.6001 118.8C35.7001 118.8 5.6001 101.3 5.6001 62.9C5.6001 24.5 35.7001 7 63.6001 7C79.1001 7 93.4001 12.1 104 21.4C115.5 31.6 121.6 46 121.6 62.9C121.6 79.8 115.5 94.1 104 104.3C93.4001 113.6 79.0001 118.8 63.6001 118.8Z" fill="url(#paint2_radial_169_13645)" style=""/>
<path d="M63.6001 118.8C35.7001 118.8 5.6001 101.3 5.6001 62.9C5.6001 24.5 35.7001 7 63.6001 7C79.1001 7 93.4001 12.1 104 21.4C115.5 31.6 121.6 46 121.6 62.9C121.6 79.8 115.5 94.1 104 104.3C93.4001 113.6 79.0001 118.8 63.6001 118.8Z" fill="url(#paint3_radial_169_13645)" style=""/>
<path d="M63.6001 118.8C35.7001 118.8 5.6001 101.3 5.6001 62.9C5.6001 24.5 35.7001 7 63.6001 7C79.1001 7 93.4001 12.1 104 21.4C115.5 31.6 121.6 46 121.6 62.9C121.6 79.8 115.5 94.1 104 104.3C93.4001 113.6 79.0001 118.8 63.6001 118.8Z" fill="url(#paint4_radial_169_13645)" style=""/>
<path d="M63.6001 118.8C35.7001 118.8 5.6001 101.3 5.6001 62.9C5.6001 24.5 35.7001 7 63.6001 7C79.1001 7 93.4001 12.1 104 21.4C115.5 31.6 121.6 46 121.6 62.9C121.6 79.8 115.5 94.1 104 104.3C93.4001 113.6 79.0001 118.8 63.6001 118.8Z" fill="url(#paint5_radial_169_13645)" style=""/>
<path d="M63.6001 118.8C35.7001 118.8 5.6001 101.3 5.6001 62.9C5.6001 24.5 35.7001 7 63.6001 7C79.1001 7 93.4001 12.1 104 21.4C115.5 31.6 121.6 46 121.6 62.9C121.6 79.8 115.5 94.1 104 104.3C93.4001 113.6 79.0001 118.8 63.6001 118.8Z" fill="url(#paint6_radial_169_13645)" style=""/>
<path d="M111.49 29.67C116.82 38.27 119.6 48.51 119.6 59.9C119.6 76.8 113.5 91.1 102 101.3C91.3999 110.6 76.9999 115.8 61.5999 115.8C43.5399 115.8 24.5599 108.45 13.4199 92.86C24.1799 110.52 44.4099 118.8 63.5999 118.8C78.9999 118.8 93.3999 113.6 104 104.3C115.5 94.1001 121.6 79.8 121.6 62.9C121.6 50.16 118.13 38.84 111.49 29.67Z" fill="#EB8F00" style="fill:#EB8F00;fill:color(display-p3 0.9216 0.5608 0.0000);fill-opacity:1;"/>
<path d="M111.49 29.67C116.82 38.27 119.6 48.51 119.6 59.9C119.6 76.8 113.5 91.1 102 101.3C91.3999 110.6 76.9999 115.8 61.5999 115.8C43.5399 115.8 24.5599 108.45 13.4199 92.86C24.1799 110.52 44.4099 118.8 63.5999 118.8C78.9999 118.8 93.3999 113.6 104 104.3C115.5 94.1001 121.6 79.8 121.6 62.9C121.6 50.16 118.13 38.84 111.49 29.67Z" fill="#F3B872" style="fill:#F3B872;fill:color(display-p3 0.9542 0.7229 0.4453);fill-opacity:1;"/>
<path d="M111.49 29.67C116.82 38.27 119.6 48.51 119.6 59.9C119.6 76.8 113.5 91.1 102 101.3C91.3999 110.6 76.9999 115.8 61.5999 115.8C43.5399 115.8 24.5599 108.45 13.4199 92.86C24.1799 110.52 44.4099 118.8 63.5999 118.8C78.9999 118.8 93.3999 113.6 104 104.3C115.5 94.1001 121.6 79.8 121.6 62.9C121.6 50.16 118.13 38.84 111.49 29.67Z" fill="#91674D" style="fill:#91674D;fill:color(display-p3 0.5686 0.4039 0.3020);fill-opacity:1;"/>
<path opacity="0.5" d="M29.6999 80.4001C38.7021 80.4001 45.9999 73.1023 45.9999 64.1C45.9999 55.0978 38.7021 47.8 29.6999 47.8C20.6977 47.8 13.3999 55.0978 13.3999 64.1C13.3999 73.1023 20.6977 80.4001 29.6999 80.4001Z" fill="url(#paint7_radial_169_13645)" style=""/>
<path opacity="0.5" d="M96.9001 67.8001C105.902 67.8001 113.2 60.5023 113.2 51.5001C113.2 42.4978 105.902 35.2001 96.9001 35.2001C87.8979 35.2001 80.6001 42.4978 80.6001 51.5001C80.6001 60.5023 87.8979 67.8001 96.9001 67.8001Z" fill="url(#paint8_radial_169_13645)" style=""/>
<path d="M96.9 49.4C89.2 56.5 79 62.1 67.2 64.8C55.4 67.5 43.8 67 33.8 63.9C32 63.3 30.7 65.7 32.3 66.9C42.4 74.4 55.9 77.6 69.4 74.4C82.9 71.3 93.7 62.6 99.5 51.4C100.5 49.7 98.3 48.1 96.9 49.4Z" fill="#49362E" style="fill:#49362E;fill:color(display-p3 0.2863 0.2118 0.1804);fill-opacity:1;"/>
<path d="M96.9 49.4C89.2 56.5 79 62.1 67.2 64.8C55.4 67.5 43.8 67 33.8 63.9C32 63.3 30.7 65.7 32.3 66.9C42.4 74.4 55.9 77.6 69.4 74.4C82.9 71.3 93.7 62.6 99.5 51.4C100.5 49.7 98.3 48.1 96.9 49.4Z" fill="#1A1717" style="fill:#1A1717;fill:color(display-p3 0.1020 0.0902 0.0902);fill-opacity:1;"/>
<path d="M96.9 49.4C89.2 56.5 79 62.1 67.2 64.8C55.4 67.5 43.8 67 33.8 63.9C32 63.3 30.7 65.7 32.3 66.9C42.4 74.4 55.9 77.6 69.4 74.4C82.9 71.3 93.7 62.6 99.5 51.4C100.5 49.7 98.3 48.1 96.9 49.4Z" fill="#5D4037" style="fill:#5D4037;fill:color(display-p3 0.3647 0.2510 0.2157);fill-opacity:1;"/>
<path d="M48.5001 47.2001C48.5001 47.2001 48.4001 47.1001 48.3001 47.0001C48.2001 46.9001 48.0001 46.8001 47.8001 46.6001C47.6001 46.5001 47.4001 46.3001 47.2001 46.2001C47.0001 46.0001 46.7001 45.8001 46.4001 45.6001C46.1001 45.4001 45.8001 45.2001 45.5001 45.1001C45.2001 44.9001 44.9001 44.8001 44.6001 44.8001C44.3001 44.7001 44.1001 44.7001 44.0001 44.7001C43.9001 44.7001 43.9001 44.7001 43.8001 44.7001C43.8001 44.7001 43.8001 44.7001 43.7001 44.7001C43.8001 44.7001 43.5001 44.7001 43.9001 44.7001L43.4001 44.8001C43.3001 44.8001 43.4001 44.8001 43.4001 44.8001C43.4001 44.8001 43.4001 44.8001 43.5001 44.8001C43.5001 44.8001 43.6001 44.8001 43.5001 44.8001H43.4001C43.3001 44.9001 43.1001 45.0001 42.9001 45.1001C42.7001 45.3001 42.4001 45.5001 42.2001 45.7001C42.0001 45.9001 41.8001 46.2001 41.6001 46.5001C41.2001 47.1001 40.9001 47.6001 40.7001 48.0001C40.5001 48.4001 40.3001 48.6001 40.3001 48.6001L40.1001 49.0001C39.1001 50.7001 36.9001 51.4001 35.1001 50.5001C33.9001 49.9001 33.2001 48.8001 33.1001 47.6001C33.1001 47.6001 33.1001 47.2001 33.1001 46.5001C33.2001 45.8001 33.3001 44.8001 33.7001 43.6001C34.1001 42.4001 34.8001 40.9001 36.1001 39.5001C36.8001 38.8001 37.6001 38.0001 38.6001 37.5001C38.8001 37.3001 39.1001 37.2001 39.4001 37.1001C39.7001 37.0001 39.9001 36.8001 40.3001 36.7001L40.8001 36.5001C41.0001 36.4001 41.2001 36.4001 41.3001 36.4001L41.8001 36.3001L42.1001 36.2001H42.3001H42.5001L43.0001 36.1001C43.3001 36.1001 43.6001 36.1001 43.9001 36.1001C44.5001 36.1001 45.1001 36.1001 45.7001 36.2001C46.9001 36.4001 47.9001 36.8001 48.8001 37.2001C50.6001 38.1001 51.7001 39.2001 52.6001 40.1001C53.0001 40.6001 53.4001 41.0001 53.6001 41.4001C53.9001 41.8001 54.1001 42.2001 54.3001 42.5001C54.5001 42.8001 54.5001 43.0001 54.6001 43.1001C54.6001 43.2001 54.7001 43.3001 54.7001 43.3001C55.4001 45.1001 54.4001 47.1001 52.4001 47.8001C51.0001 48.3001 49.5001 48.0001 48.5001 47.2001Z" fill="#49362E" style="fill:#49362E;fill:color(display-p3 0.2863 0.2118 0.1804);fill-opacity:1;"/>
<path d="M48.5001 47.2001C48.5001 47.2001 48.4001 47.1001 48.3001 47.0001C48.2001 46.9001 48.0001 46.8001 47.8001 46.6001C47.6001 46.5001 47.4001 46.3001 47.2001 46.2001C47.0001 46.0001 46.7001 45.8001 46.4001 45.6001C46.1001 45.4001 45.8001 45.2001 45.5001 45.1001C45.2001 44.9001 44.9001 44.8001 44.6001 44.8001C44.3001 44.7001 44.1001 44.7001 44.0001 44.7001C43.9001 44.7001 43.9001 44.7001 43.8001 44.7001C43.8001 44.7001 43.8001 44.7001 43.7001 44.7001C43.8001 44.7001 43.5001 44.7001 43.9001 44.7001L43.4001 44.8001C43.3001 44.8001 43.4001 44.8001 43.4001 44.8001C43.4001 44.8001 43.4001 44.8001 43.5001 44.8001C43.5001 44.8001 43.6001 44.8001 43.5001 44.8001H43.4001C43.3001 44.9001 43.1001 45.0001 42.9001 45.1001C42.7001 45.3001 42.4001 45.5001 42.2001 45.7001C42.0001 45.9001 41.8001 46.2001 41.6001 46.5001C41.2001 47.1001 40.9001 47.6001 40.7001 48.0001C40.5001 48.4001 40.3001 48.6001 40.3001 48.6001L40.1001 49.0001C39.1001 50.7001 36.9001 51.4001 35.1001 50.5001C33.9001 49.9001 33.2001 48.8001 33.1001 47.6001C33.1001 47.6001 33.1001 47.2001 33.1001 46.5001C33.2001 45.8001 33.3001 44.8001 33.7001 43.6001C34.1001 42.4001 34.8001 40.9001 36.1001 39.5001C36.8001 38.8001 37.6001 38.0001 38.6001 37.5001C38.8001 37.3001 39.1001 37.2001 39.4001 37.1001C39.7001 37.0001 39.9001 36.8001 40.3001 36.7001L40.8001 36.5001C41.0001 36.4001 41.2001 36.4001 41.3001 36.4001L41.8001 36.3001L42.1001 36.2001H42.3001H42.5001L43.0001 36.1001C43.3001 36.1001 43.6001 36.1001 43.9001 36.1001C44.5001 36.1001 45.1001 36.1001 45.7001 36.2001C46.9001 36.4001 47.9001 36.8001 48.8001 37.2001C50.6001 38.1001 51.7001 39.2001 52.6001 40.1001C53.0001 40.6001 53.4001 41.0001 53.6001 41.4001C53.9001 41.8001 54.1001 42.2001 54.3001 42.5001C54.5001 42.8001 54.5001 43.0001 54.6001 43.1001C54.6001 43.2001 54.7001 43.3001 54.7001 43.3001C55.4001 45.1001 54.4001 47.1001 52.4001 47.8001C51.0001 48.3001 49.5001 48.0001 48.5001 47.2001Z" fill="#1A1717" style="fill:#1A1717;fill:color(display-p3 0.1020 0.0902 0.0902);fill-opacity:1;"/>
<path d="M48.5001 47.2001C48.5001 47.2001 48.4001 47.1001 48.3001 47.0001C48.2001 46.9001 48.0001 46.8001 47.8001 46.6001C47.6001 46.5001 47.4001 46.3001 47.2001 46.2001C47.0001 46.0001 46.7001 45.8001 46.4001 45.6001C46.1001 45.4001 45.8001 45.2001 45.5001 45.1001C45.2001 44.9001 44.9001 44.8001 44.6001 44.8001C44.3001 44.7001 44.1001 44.7001 44.0001 44.7001C43.9001 44.7001 43.9001 44.7001 43.8001 44.7001C43.8001 44.7001 43.8001 44.7001 43.7001 44.7001C43.8001 44.7001 43.5001 44.7001 43.9001 44.7001L43.4001 44.8001C43.3001 44.8001 43.4001 44.8001 43.4001 44.8001C43.4001 44.8001 43.4001 44.8001 43.5001 44.8001C43.5001 44.8001 43.6001 44.8001 43.5001 44.8001H43.4001C43.3001 44.9001 43.1001 45.0001 42.9001 45.1001C42.7001 45.3001 42.4001 45.5001 42.2001 45.7001C42.0001 45.9001 41.8001 46.2001 41.6001 46.5001C41.2001 47.1001 40.9001 47.6001 40.7001 48.0001C40.5001 48.4001 40.3001 48.6001 40.3001 48.6001L40.1001 49.0001C39.1001 50.7001 36.9001 51.4001 35.1001 50.5001C33.9001 49.9001 33.2001 48.8001 33.1001 47.6001C33.1001 47.6001 33.1001 47.2001 33.1001 46.5001C33.2001 45.8001 33.3001 44.8001 33.7001 43.6001C34.1001 42.4001 34.8001 40.9001 36.1001 39.5001C36.8001 38.8001 37.6001 38.0001 38.6001 37.5001C38.8001 37.3001 39.1001 37.2001 39.4001 37.1001C39.7001 37.0001 39.9001 36.8001 40.3001 36.7001L40.8001 36.5001C41.0001 36.4001 41.2001 36.4001 41.3001 36.4001L41.8001 36.3001L42.1001 36.2001H42.3001H42.5001L43.0001 36.1001C43.3001 36.1001 43.6001 36.1001 43.9001 36.1001C44.5001 36.1001 45.1001 36.1001 45.7001 36.2001C46.9001 36.4001 47.9001 36.8001 48.8001 37.2001C50.6001 38.1001 51.7001 39.2001 52.6001 40.1001C53.0001 40.6001 53.4001 41.0001 53.6001 41.4001C53.9001 41.8001 54.1001 42.2001 54.3001 42.5001C54.5001 42.8001 54.5001 43.0001 54.6001 43.1001C54.6001 43.2001 54.7001 43.3001 54.7001 43.3001C55.4001 45.1001 54.4001 47.1001 52.4001 47.8001C51.0001 48.3001 49.5001 48.0001 48.5001 47.2001Z" fill="#49362E" style="fill:#49362E;fill:color(display-p3 0.2863 0.2118 0.1804);fill-opacity:1;"/>
<path d="M82.7999 40.5C82.7999 40.5 82.6999 40.4 82.5999 40.3C82.4999 40.2 82.2999 40.1001 82.0999 39.9001C81.8999 39.8001 81.6999 39.6 81.4999 39.5C81.2999 39.3 80.9999 39.1001 80.6999 38.9001C80.3999 38.7001 80.0999 38.5001 79.7999 38.4001C79.4999 38.2001 79.1999 38.1 78.8999 38.1C78.6999 38 78.4999 38 78.3999 38C78.2999 38 78.2999 38 78.1999 38H78.0999C78.1999 38 77.8999 38 78.2999 38L77.7999 38.1C77.6999 38.1 77.7999 38.1 77.7999 38.1H77.8999C77.8999 38.1 77.9999 38.1 77.8999 38.1H77.7999C77.6999 38.2 77.4999 38.3001 77.1999 38.4001C76.9999 38.6001 76.7999 38.8 76.4999 39C76.2999 39.2 76.0999 39.5 75.8999 39.8C75.4999 40.4 75.1999 40.9 74.9999 41.3C74.7999 41.7 74.5999 41.9001 74.5999 41.9001L74.3999 42.2001C73.3999 43.9001 71.1999 44.6 69.3999 43.7001C68.1999 43.1 67.4999 42 67.3999 40.8C67.3999 40.8 67.3999 40.4001 67.4999 39.7001C67.5999 39.0001 67.6999 38 68.0999 36.8C68.4999 35.6 69.1999 34.1001 70.4999 32.7001C71.1999 32.0001 71.9999 31.2001 72.9999 30.7001C73.1999 30.6001 73.4999 30.4 73.7999 30.3C74.0999 30.2 74.2999 30 74.6999 29.9L75.2999 29.7001C75.4999 29.6001 75.6999 29.6 75.7999 29.6L76.2999 29.5L76.5999 29.4H76.7999H76.9999L77.4999 29.3C77.7999 29.3 78.0999 29.3 78.3999 29.3C78.9999 29.3 79.5999 29.3 80.1999 29.4C81.3999 29.6 82.3999 30 83.2999 30.4C85.0999 31.3 86.1999 32.4 87.0999 33.3C87.4999 33.8 87.8999 34.2 88.0999 34.6C88.3999 35 88.5999 35.4001 88.7999 35.7001C88.9999 36.0001 88.9999 36.2 89.0999 36.3C89.1999 36.4 89.1999 36.5 89.1999 36.5C89.8999 38.3 88.8999 40.3 86.8999 41C85.2999 41.7 83.7999 41.4 82.7999 40.5Z" fill="#49362E" style="fill:#49362E;fill:color(display-p3 0.2863 0.2118 0.1804);fill-opacity:1;"/>
<path d="M82.7999 40.5C82.7999 40.5 82.6999 40.4 82.5999 40.3C82.4999 40.2 82.2999 40.1001 82.0999 39.9001C81.8999 39.8001 81.6999 39.6 81.4999 39.5C81.2999 39.3 80.9999 39.1001 80.6999 38.9001C80.3999 38.7001 80.0999 38.5001 79.7999 38.4001C79.4999 38.2001 79.1999 38.1 78.8999 38.1C78.6999 38 78.4999 38 78.3999 38C78.2999 38 78.2999 38 78.1999 38H78.0999C78.1999 38 77.8999 38 78.2999 38L77.7999 38.1C77.6999 38.1 77.7999 38.1 77.7999 38.1H77.8999C77.8999 38.1 77.9999 38.1 77.8999 38.1H77.7999C77.6999 38.2 77.4999 38.3001 77.1999 38.4001C76.9999 38.6001 76.7999 38.8 76.4999 39C76.2999 39.2 76.0999 39.5 75.8999 39.8C75.4999 40.4 75.1999 40.9 74.9999 41.3C74.7999 41.7 74.5999 41.9001 74.5999 41.9001L74.3999 42.2001C73.3999 43.9001 71.1999 44.6 69.3999 43.7001C68.1999 43.1 67.4999 42 67.3999 40.8C67.3999 40.8 67.3999 40.4001 67.4999 39.7001C67.5999 39.0001 67.6999 38 68.0999 36.8C68.4999 35.6 69.1999 34.1001 70.4999 32.7001C71.1999 32.0001 71.9999 31.2001 72.9999 30.7001C73.1999 30.6001 73.4999 30.4 73.7999 30.3C74.0999 30.2 74.2999 30 74.6999 29.9L75.2999 29.7001C75.4999 29.6001 75.6999 29.6 75.7999 29.6L76.2999 29.5L76.5999 29.4H76.7999H76.9999L77.4999 29.3C77.7999 29.3 78.0999 29.3 78.3999 29.3C78.9999 29.3 79.5999 29.3 80.1999 29.4C81.3999 29.6 82.3999 30 83.2999 30.4C85.0999 31.3 86.1999 32.4 87.0999 33.3C87.4999 33.8 87.8999 34.2 88.0999 34.6C88.3999 35 88.5999 35.4001 88.7999 35.7001C88.9999 36.0001 88.9999 36.2 89.0999 36.3C89.1999 36.4 89.1999 36.5 89.1999 36.5C89.8999 38.3 88.8999 40.3 86.8999 41C85.2999 41.7 83.7999 41.4 82.7999 40.5Z" fill="#1A1717" style="fill:#1A1717;fill:color(display-p3 0.1020 0.0902 0.0902);fill-opacity:1;"/>
<path d="M82.7999 40.5C82.7999 40.5 82.6999 40.4 82.5999 40.3C82.4999 40.2 82.2999 40.1001 82.0999 39.9001C81.8999 39.8001 81.6999 39.6 81.4999 39.5C81.2999 39.3 80.9999 39.1001 80.6999 38.9001C80.3999 38.7001 80.0999 38.5001 79.7999 38.4001C79.4999 38.2001 79.1999 38.1 78.8999 38.1C78.6999 38 78.4999 38 78.3999 38C78.2999 38 78.2999 38 78.1999 38H78.0999C78.1999 38 77.8999 38 78.2999 38L77.7999 38.1C77.6999 38.1 77.7999 38.1 77.7999 38.1H77.8999C77.8999 38.1 77.9999 38.1 77.8999 38.1H77.7999C77.6999 38.2 77.4999 38.3001 77.1999 38.4001C76.9999 38.6001 76.7999 38.8 76.4999 39C76.2999 39.2 76.0999 39.5 75.8999 39.8C75.4999 40.4 75.1999 40.9 74.9999 41.3C74.7999 41.7 74.5999 41.9001 74.5999 41.9001L74.3999 42.2001C73.3999 43.9001 71.1999 44.6 69.3999 43.7001C68.1999 43.1 67.4999 42 67.3999 40.8C67.3999 40.8 67.3999 40.4001 67.4999 39.7001C67.5999 39.0001 67.6999 38 68.0999 36.8C68.4999 35.6 69.1999 34.1001 70.4999 32.7001C71.1999 32.0001 71.9999 31.2001 72.9999 30.7001C73.1999 30.6001 73.4999 30.4 73.7999 30.3C74.0999 30.2 74.2999 30 74.6999 29.9L75.2999 29.7001C75.4999 29.6001 75.6999 29.6 75.7999 29.6L76.2999 29.5L76.5999 29.4H76.7999H76.9999L77.4999 29.3C77.7999 29.3 78.0999 29.3 78.3999 29.3C78.9999 29.3 79.5999 29.3 80.1999 29.4C81.3999 29.6 82.3999 30 83.2999 30.4C85.0999 31.3 86.1999 32.4 87.0999 33.3C87.4999 33.8 87.8999 34.2 88.0999 34.6C88.3999 35 88.5999 35.4001 88.7999 35.7001C88.9999 36.0001 88.9999 36.2 89.0999 36.3C89.1999 36.4 89.1999 36.5 89.1999 36.5C89.8999 38.3 88.8999 40.3 86.8999 41C85.2999 41.7 83.7999 41.4 82.7999 40.5Z" fill="#49362E" style="fill:#49362E;fill:color(display-p3 0.2863 0.2118 0.1804);fill-opacity:1;"/>
<path opacity="0.66" d="M38.87 84.46C37.78 81.38 37 113.28 37 113.28C39.92 114.51 42.87 115.59 45.93 116.41C47.14 113.68 48.72 108.65 47.89 102.95C46.55 93.84 41.11 90.81 38.87 84.46Z" fill="url(#paint9_linear_169_13645)" style=""/>
<path d="M39.4998 81.23C39.0098 79.9 38.3898 78.91 36.8198 78.91C36.0998 78.91 34.8798 79.09 34.2298 80.08C32.9498 82 33.4498 85.6 34.4298 88.73C34.9798 90.5 34.8298 91.15 34.8298 91.15C32.1098 90.98 28.9498 87.27 25.7998 83.57C23.8698 81.3 22.7498 79.21 20.8698 76.89C19.7298 75.48 18.0598 74.06 16.0998 74.78C10.7298 76.77 17.3698 84.5 19.0298 86.62C20.9198 89.03 22.7898 91.34 22.7898 91.34C21.0298 90.93 19.9198 90.46 16.8198 87.28C14.1698 84.56 12.1998 81.05 10.7598 79.74C7.48982 76.77 5.48982 77.74 4.61982 79.72C3.80982 81.56 5.14982 84.81 6.05982 86.33C10.5698 93.81 16.3298 96.74 16.3298 96.74C11.5898 96.53 7.84982 91.45 6.33982 89.91C1.95982 85.46 -0.0401758 90.97 2.34982 94.96C3.44982 96.79 4.54982 98.08 6.55982 100.15C9.80982 103.48 12.8698 104.99 12.8698 104.99C12.8698 104.99 11.5598 105.19 10.2398 104.5C8.45982 103.57 6.46982 102.17 5.43982 101.37C2.48982 99.1 -0.320176 101.05 0.809824 104.07C2.11982 107.56 6.89982 110.52 9.78982 112.67C15.4098 116.83 22.4198 120.16 29.5198 119.93C37.4198 119.68 42.8598 114.25 44.9998 106.62C46.2398 102.18 43.2798 95.12 42.5298 93.34C40.0598 87.58 39.9898 82.56 39.4998 81.23Z" fill="url(#paint10_radial_169_13645)" style=""/>
<path d="M39.4998 81.23C39.0098 79.9 38.3898 78.91 36.8198 78.91C36.0998 78.91 34.8798 79.09 34.2298 80.08C32.9498 82 33.4498 85.6 34.4298 88.73C34.9798 90.5 34.8298 91.15 34.8298 91.15C32.1098 90.98 28.9498 87.27 25.7998 83.57C23.8698 81.3 22.7498 79.21 20.8698 76.89C19.7298 75.48 18.0598 74.06 16.0998 74.78C10.7298 76.77 17.3698 84.5 19.0298 86.62C20.9198 89.03 22.7898 91.34 22.7898 91.34C21.0298 90.93 19.9198 90.46 16.8198 87.28C14.1698 84.56 12.1998 81.05 10.7598 79.74C7.48982 76.77 5.48982 77.74 4.61982 79.72C3.80982 81.56 5.14982 84.81 6.05982 86.33C10.5698 93.81 16.3298 96.74 16.3298 96.74C11.5898 96.53 7.84982 91.45 6.33982 89.91C1.95982 85.46 -0.0401758 90.97 2.34982 94.96C3.44982 96.79 4.54982 98.08 6.55982 100.15C9.80982 103.48 12.8698 104.99 12.8698 104.99C12.8698 104.99 11.5598 105.19 10.2398 104.5C8.45982 103.57 6.46982 102.17 5.43982 101.37C2.48982 99.1 -0.320176 101.05 0.809824 104.07C2.11982 107.56 6.89982 110.52 9.78982 112.67C15.4098 116.83 22.4198 120.16 29.5198 119.93C37.4198 119.68 42.8598 114.25 44.9998 106.62C46.2398 102.18 43.2798 95.12 42.5298 93.34C40.0598 87.58 39.9898 82.56 39.4998 81.23Z" fill="url(#paint11_radial_169_13645)" style=""/>
<path d="M39.4998 81.23C39.0098 79.9 38.3898 78.91 36.8198 78.91C36.0998 78.91 34.8798 79.09 34.2298 80.08C32.9498 82 33.4498 85.6 34.4298 88.73C34.9798 90.5 34.8298 91.15 34.8298 91.15C32.1098 90.98 28.9498 87.27 25.7998 83.57C23.8698 81.3 22.7498 79.21 20.8698 76.89C19.7298 75.48 18.0598 74.06 16.0998 74.78C10.7298 76.77 17.3698 84.5 19.0298 86.62C20.9198 89.03 22.7898 91.34 22.7898 91.34C21.0298 90.93 19.9198 90.46 16.8198 87.28C14.1698 84.56 12.1998 81.05 10.7598 79.74C7.48982 76.77 5.48982 77.74 4.61982 79.72C3.80982 81.56 5.14982 84.81 6.05982 86.33C10.5698 93.81 16.3298 96.74 16.3298 96.74C11.5898 96.53 7.84982 91.45 6.33982 89.91C1.95982 85.46 -0.0401758 90.97 2.34982 94.96C3.44982 96.79 4.54982 98.08 6.55982 100.15C9.80982 103.48 12.8698 104.99 12.8698 104.99C12.8698 104.99 11.5598 105.19 10.2398 104.5C8.45982 103.57 6.46982 102.17 5.43982 101.37C2.48982 99.1 -0.320176 101.05 0.809824 104.07C2.11982 107.56 6.89982 110.52 9.78982 112.67C15.4098 116.83 22.4198 120.16 29.5198 119.93C37.4198 119.68 42.8598 114.25 44.9998 106.62C46.2398 102.18 43.2798 95.12 42.5298 93.34C40.0598 87.58 39.9898 82.56 39.4998 81.23Z" fill="url(#paint12_radial_169_13645)" style=""/>
<path d="M39.4998 81.23C39.0098 79.9 38.3898 78.91 36.8198 78.91C36.0998 78.91 34.8798 79.09 34.2298 80.08C32.9498 82 33.4498 85.6 34.4298 88.73C34.9798 90.5 34.8298 91.15 34.8298 91.15C32.1098 90.98 28.9498 87.27 25.7998 83.57C23.8698 81.3 22.7498 79.21 20.8698 76.89C19.7298 75.48 18.0598 74.06 16.0998 74.78C10.7298 76.77 17.3698 84.5 19.0298 86.62C20.9198 89.03 22.7898 91.34 22.7898 91.34C21.0298 90.93 19.9198 90.46 16.8198 87.28C14.1698 84.56 12.1998 81.05 10.7598 79.74C7.48982 76.77 5.48982 77.74 4.61982 79.72C3.80982 81.56 5.14982 84.81 6.05982 86.33C10.5698 93.81 16.3298 96.74 16.3298 96.74C11.5898 96.53 7.84982 91.45 6.33982 89.91C1.95982 85.46 -0.0401758 90.97 2.34982 94.96C3.44982 96.79 4.54982 98.08 6.55982 100.15C9.80982 103.48 12.8698 104.99 12.8698 104.99C12.8698 104.99 11.5598 105.19 10.2398 104.5C8.45982 103.57 6.46982 102.17 5.43982 101.37C2.48982 99.1 -0.320176 101.05 0.809824 104.07C2.11982 107.56 6.89982 110.52 9.78982 112.67C15.4098 116.83 22.4198 120.16 29.5198 119.93C37.4198 119.68 42.8598 114.25 44.9998 106.62C46.2398 102.18 43.2798 95.12 42.5298 93.34C40.0598 87.58 39.9898 82.56 39.4998 81.23Z" fill="url(#paint13_radial_169_13645)" style=""/>
<path d="M39.4998 81.23C39.0098 79.9 38.3898 78.91 36.8198 78.91C36.0998 78.91 34.8798 79.09 34.2298 80.08C32.9498 82 33.4498 85.6 34.4298 88.73C34.9798 90.5 34.8298 91.15 34.8298 91.15C32.1098 90.98 28.9498 87.27 25.7998 83.57C23.8698 81.3 22.7498 79.21 20.8698 76.89C19.7298 75.48 18.0598 74.06 16.0998 74.78C10.7298 76.77 17.3698 84.5 19.0298 86.62C20.9198 89.03 22.7898 91.34 22.7898 91.34C21.0298 90.93 19.9198 90.46 16.8198 87.28C14.1698 84.56 12.1998 81.05 10.7598 79.74C7.48982 76.77 5.48982 77.74 4.61982 79.72C3.80982 81.56 5.14982 84.81 6.05982 86.33C10.5698 93.81 16.3298 96.74 16.3298 96.74C11.5898 96.53 7.84982 91.45 6.33982 89.91C1.95982 85.46 -0.0401758 90.97 2.34982 94.96C3.44982 96.79 4.54982 98.08 6.55982 100.15C9.80982 103.48 12.8698 104.99 12.8698 104.99C12.8698 104.99 11.5598 105.19 10.2398 104.5C8.45982 103.57 6.46982 102.17 5.43982 101.37C2.48982 99.1 -0.320176 101.05 0.809824 104.07C2.11982 107.56 6.89982 110.52 9.78982 112.67C15.4098 116.83 22.4198 120.16 29.5198 119.93C37.4198 119.68 42.8598 114.25 44.9998 106.62C46.2398 102.18 43.2798 95.12 42.5298 93.34C40.0598 87.58 39.9898 82.56 39.4998 81.23Z" fill="url(#paint14_radial_169_13645)" style=""/>
<path d="M23.6196 99.08C23.7596 107.46 29.0196 110.96 33.0996 111.73C31.4596 109.34 30.6096 106.42 30.7096 103.53C30.8096 100.63 31.9296 97.02 33.5896 95.06C35.2496 93.1 34.8296 91.17 34.8296 91.17C34.8296 91.17 33.7096 91.08 33.2896 90.83C31.9496 90.01 30.4096 89.35 29.2496 88.28C28.3996 87.49 23.4796 90.7 23.6196 99.08Z" fill="url(#paint15_radial_169_13645)" style=""/>
<path d="M6.39993 78.54C5.57993 79.07 5.12993 79.98 5.11993 80.89C5.09993 81.8 5.36993 82.71 5.69993 83.57C6.39993 85.3 7.49993 86.85 8.62993 88.34C9.78993 89.82 11.0399 91.25 12.3399 92.63C13.6399 94.02 14.9699 95.39 16.3199 96.76C14.6499 95.78 13.0999 94.6 11.6699 93.3C10.2499 91.99 8.89993 90.57 7.75993 88.99C6.58993 87.42 5.65993 85.67 5.04993 83.79C4.76993 82.85 4.56993 81.84 4.73993 80.84C4.85993 79.85 5.49993 78.9 6.39993 78.54Z" fill="url(#paint16_linear_169_13645)" style=""/>
<path d="M0.549805 102.67C0.579805 102.39 0.619805 102.15 0.669805 101.94C0.599805 102.17 0.559805 102.41 0.549805 102.67Z" fill="url(#paint17_radial_169_13645)" style=""/>
<path d="M4.30976 106.78C3.58976 106.09 3.09976 105.51 2.72976 104.9C2.30976 104.2 2.06976 103.46 2.04976 102.77C2.02976 102 2.09976 101.43 2.82976 100.87C3.18976 100.59 4.19976 100.69 4.17976 100.68C4.16976 100.67 4.14976 100.67 4.13976 100.66C3.52976 100.42 2.95976 100.36 2.44976 100.44C2.44976 100.44 2.44976 100.44 2.45976 100.43L2.44976 100.44C1.58976 100.58 0.929756 101.13 0.669756 101.94C0.619756 102.15 0.579756 102.39 0.549756 102.67C0.539756 103.1 0.609756 103.58 0.799756 104.09C1.08976 104.86 1.55976 105.61 2.12976 106.33C2.46976 106.85 2.86976 107.34 3.23976 107.81C3.82976 108.51 4.42976 109.2 5.09976 109.82C6.40976 111.1 7.85976 112.22 9.39976 113.2C10.1498 113.66 17.5698 118.21 24.0698 119.46C24.0898 119.44 11.6798 114.32 4.30976 106.78Z" fill="#91674D" style="fill:#91674D;fill:color(display-p3 0.5686 0.4039 0.3020);fill-opacity:1;"/>
<path d="M13.2496 105.53C13.1796 105.53 13.0996 105.52 13.0396 105.49C11.4596 104.83 9.88959 103.89 8.22959 102.61C6.70959 101.4 5.35959 100.08 4.21959 98.7001C3.57959 97.9601 3.00959 97.1501 2.54959 96.4601L2.40959 96.2401C1.93959 95.5101 1.45959 94.7601 1.15959 93.8801C0.769589 92.8401 0.669589 91.7701 0.889589 90.7801C1.13959 89.5901 1.81959 88.7801 2.76959 88.3701C4.12959 87.7801 5.64959 89.2801 5.55959 89.2401C4.50959 88.7701 3.58959 89.0301 3.34959 89.1901C2.79959 89.5701 2.44959 90.2301 2.37959 91.0001C2.32959 91.6901 2.48959 92.4501 2.83959 93.1901C3.13959 93.8401 3.55959 94.4701 4.20959 95.2301C4.76959 95.9501 5.34959 96.6101 5.91959 97.2601C7.11959 98.6101 8.35959 99.8701 9.59959 101.03C10.6696 102.02 12.0896 103.31 13.6196 104.53C13.8396 104.7 13.8996 105.01 13.7496 105.25C13.6296 105.43 13.4496 105.53 13.2496 105.53Z" fill="#91674D" style="fill:#91674D;fill:color(display-p3 0.5686 0.4039 0.3020);fill-opacity:1;"/>
<path d="M16.7796 96.91C16.9696 96.7 16.9296 96.57 16.7296 96.37C15.2396 94.86 13.9396 93.51 12.7596 92.25C11.3896 90.8 10.1896 89.41 9.08958 88.01C7.99958 86.58 6.89958 85.04 6.21958 83.37C5.95958 82.69 5.65958 81.79 5.67958 80.9C5.67958 80.5 5.78958 80.13 5.96958 79.8C6.13958 79.49 6.38958 79.22 6.69958 79.02C6.70958 79.02 6.70958 79.01 6.70958 79.01C7.21958 78.7 8.04958 78.47 9.37958 78.7C7.04958 77.13 5.29958 78.02 4.55958 79.71C3.74958 81.55 5.12958 84.84 6.04958 86.36C10.5596 93.84 16.0696 96.83 16.0696 96.83C16.3396 97 16.6396 97.05 16.7796 96.91Z" fill="#91674D" style="fill:#91674D;fill:color(display-p3 0.5686 0.4039 0.3020);fill-opacity:1;"/>
<path d="M23.5396 91.61C21.8496 89.37 15.0696 82.26 15.2396 77.61C15.2896 76.12 17.6696 74.59 20.0496 75.98C20.0796 76 18.3096 73.98 16.0896 74.77C14.1596 75.45 13.8796 77.23 13.8596 77.55C13.7596 78.56 14.0396 79.53 14.3096 80.27C14.8696 81.67 15.5796 83.03 16.5996 84.66C17.3596 85.9 18.2496 87.16 19.3896 88.65C20.0196 89.46 20.6596 90.2 21.3096 90.9C21.7496 91.38 22.1996 91.84 22.6596 92.29C22.7696 92.39 22.9096 92.45 23.0496 92.45C23.1696 92.45 23.2896 92.41 23.3896 92.34C23.5996 92.16 23.6996 91.83 23.5396 91.61Z" fill="#91674D" style="fill:#91674D;fill:color(display-p3 0.5686 0.4039 0.3020);fill-opacity:1;"/>
<path d="M36.8196 78.92C36.0996 78.92 34.8796 79.1 34.2296 80.09C32.9496 82.01 33.4496 85.61 34.4296 88.74C34.5896 89.25 34.6896 89.66 34.7496 90C34.8696 90.62 34.2696 91.12 33.6896 90.9C31.2396 89.98 28.5196 86.77 25.7996 83.58C25.6596 83.41 25.5296 83.25 25.3896 83.08C25.4196 83.54 26.9796 86.04 29.1096 88.73C29.6796 89.46 33.4697 93.59 35.4897 92.41C36.7397 91.69 34.6996 86.09 34.6796 84.64C34.6696 83.85 34.5597 82.83 34.8097 81.89C34.8597 81.65 35.0097 81.4 35.1996 81.15C36.2896 79.69 38.5496 79.63 39.4796 81.2L39.5096 81.24C39.0096 79.9 38.3896 78.92 36.8196 78.92Z" fill="#91674D" style="fill:#91674D;fill:color(display-p3 0.5686 0.4039 0.3020);fill-opacity:1;"/>
<path opacity="0.66" d="M88.3098 84.46C89.3998 81.38 90.1798 113.28 90.1798 113.28C87.2598 114.51 84.3098 115.59 81.2498 116.41C80.0398 113.68 78.4598 108.65 79.2898 102.95C80.6298 93.84 86.0598 90.81 88.3098 84.46Z" fill="url(#paint18_linear_169_13645)" style=""/>
<path d="M87.6796 81.23C88.1696 79.9 88.7896 78.91 90.3596 78.91C91.0796 78.91 92.2996 79.09 92.9496 80.08C94.2296 82 93.7296 85.6 92.7496 88.73C92.1996 90.5 92.3496 91.15 92.3496 91.15C95.0696 90.98 98.2296 87.27 101.38 83.57C103.31 81.3 104.43 79.21 106.31 76.89C107.45 75.48 109.12 74.06 111.08 74.78C116.45 76.77 109.81 84.5 108.15 86.62C106.26 89.03 104.39 91.34 104.39 91.34C106.15 90.93 107.26 90.46 110.36 87.28C113.01 84.56 114.98 81.05 116.42 79.74C119.69 76.77 121.69 77.74 122.56 79.72C123.37 81.56 122.03 84.81 121.12 86.33C116.61 93.81 110.85 96.74 110.85 96.74C115.59 96.53 119.33 91.45 120.84 89.91C125.22 85.46 127.22 90.97 124.83 94.96C123.73 96.79 122.63 98.08 120.62 100.15C117.37 103.48 114.31 104.99 114.31 104.99C114.31 104.99 115.62 105.19 116.94 104.5C118.72 103.57 120.71 102.17 121.74 101.37C124.69 99.1 127.5 101.05 126.37 104.07C125.06 107.56 120.28 110.52 117.39 112.67C111.77 116.83 104.76 120.16 97.6596 119.93C89.7596 119.68 84.3196 114.25 82.1796 106.62C80.9396 102.18 83.8996 95.12 84.6496 93.34C87.1096 87.58 87.1896 82.56 87.6796 81.23Z" fill="url(#paint19_radial_169_13645)" style=""/>
<path d="M87.6796 81.23C88.1696 79.9 88.7896 78.91 90.3596 78.91C91.0796 78.91 92.2996 79.09 92.9496 80.08C94.2296 82 93.7296 85.6 92.7496 88.73C92.1996 90.5 92.3496 91.15 92.3496 91.15C95.0696 90.98 98.2296 87.27 101.38 83.57C103.31 81.3 104.43 79.21 106.31 76.89C107.45 75.48 109.12 74.06 111.08 74.78C116.45 76.77 109.81 84.5 108.15 86.62C106.26 89.03 104.39 91.34 104.39 91.34C106.15 90.93 107.26 90.46 110.36 87.28C113.01 84.56 114.98 81.05 116.42 79.74C119.69 76.77 121.69 77.74 122.56 79.72C123.37 81.56 122.03 84.81 121.12 86.33C116.61 93.81 110.85 96.74 110.85 96.74C115.59 96.53 119.33 91.45 120.84 89.91C125.22 85.46 127.22 90.97 124.83 94.96C123.73 96.79 122.63 98.08 120.62 100.15C117.37 103.48 114.31 104.99 114.31 104.99C114.31 104.99 115.62 105.19 116.94 104.5C118.72 103.57 120.71 102.17 121.74 101.37C124.69 99.1 127.5 101.05 126.37 104.07C125.06 107.56 120.28 110.52 117.39 112.67C111.77 116.83 104.76 120.16 97.6596 119.93C89.7596 119.68 84.3196 114.25 82.1796 106.62C80.9396 102.18 83.8996 95.12 84.6496 93.34C87.1096 87.58 87.1896 82.56 87.6796 81.23Z" fill="url(#paint20_radial_169_13645)" style=""/>
<path d="M87.6796 81.23C88.1696 79.9 88.7896 78.91 90.3596 78.91C91.0796 78.91 92.2996 79.09 92.9496 80.08C94.2296 82 93.7296 85.6 92.7496 88.73C92.1996 90.5 92.3496 91.15 92.3496 91.15C95.0696 90.98 98.2296 87.27 101.38 83.57C103.31 81.3 104.43 79.21 106.31 76.89C107.45 75.48 109.12 74.06 111.08 74.78C116.45 76.77 109.81 84.5 108.15 86.62C106.26 89.03 104.39 91.34 104.39 91.34C106.15 90.93 107.26 90.46 110.36 87.28C113.01 84.56 114.98 81.05 116.42 79.74C119.69 76.77 121.69 77.74 122.56 79.72C123.37 81.56 122.03 84.81 121.12 86.33C116.61 93.81 110.85 96.74 110.85 96.74C115.59 96.53 119.33 91.45 120.84 89.91C125.22 85.46 127.22 90.97 124.83 94.96C123.73 96.79 122.63 98.08 120.62 100.15C117.37 103.48 114.31 104.99 114.31 104.99C114.31 104.99 115.62 105.19 116.94 104.5C118.72 103.57 120.71 102.17 121.74 101.37C124.69 99.1 127.5 101.05 126.37 104.07C125.06 107.56 120.28 110.52 117.39 112.67C111.77 116.83 104.76 120.16 97.6596 119.93C89.7596 119.68 84.3196 114.25 82.1796 106.62C80.9396 102.18 83.8996 95.12 84.6496 93.34C87.1096 87.58 87.1896 82.56 87.6796 81.23Z" fill="url(#paint21_radial_169_13645)" style=""/>
<path d="M87.6796 81.23C88.1696 79.9 88.7896 78.91 90.3596 78.91C91.0796 78.91 92.2996 79.09 92.9496 80.08C94.2296 82 93.7296 85.6 92.7496 88.73C92.1996 90.5 92.3496 91.15 92.3496 91.15C95.0696 90.98 98.2296 87.27 101.38 83.57C103.31 81.3 104.43 79.21 106.31 76.89C107.45 75.48 109.12 74.06 111.08 74.78C116.45 76.77 109.81 84.5 108.15 86.62C106.26 89.03 104.39 91.34 104.39 91.34C106.15 90.93 107.26 90.46 110.36 87.28C113.01 84.56 114.98 81.05 116.42 79.74C119.69 76.77 121.69 77.74 122.56 79.72C123.37 81.56 122.03 84.81 121.12 86.33C116.61 93.81 110.85 96.74 110.85 96.74C115.59 96.53 119.33 91.45 120.84 89.91C125.22 85.46 127.22 90.97 124.83 94.96C123.73 96.79 122.63 98.08 120.62 100.15C117.37 103.48 114.31 104.99 114.31 104.99C114.31 104.99 115.62 105.19 116.94 104.5C118.72 103.57 120.71 102.17 121.74 101.37C124.69 99.1 127.5 101.05 126.37 104.07C125.06 107.56 120.28 110.52 117.39 112.67C111.77 116.83 104.76 120.16 97.6596 119.93C89.7596 119.68 84.3196 114.25 82.1796 106.62C80.9396 102.18 83.8996 95.12 84.6496 93.34C87.1096 87.58 87.1896 82.56 87.6796 81.23Z" fill="url(#paint22_radial_169_13645)" style=""/>
<path d="M87.6796 81.23C88.1696 79.9 88.7896 78.91 90.3596 78.91C91.0796 78.91 92.2996 79.09 92.9496 80.08C94.2296 82 93.7296 85.6 92.7496 88.73C92.1996 90.5 92.3496 91.15 92.3496 91.15C95.0696 90.98 98.2296 87.27 101.38 83.57C103.31 81.3 104.43 79.21 106.31 76.89C107.45 75.48 109.12 74.06 111.08 74.78C116.45 76.77 109.81 84.5 108.15 86.62C106.26 89.03 104.39 91.34 104.39 91.34C106.15 90.93 107.26 90.46 110.36 87.28C113.01 84.56 114.98 81.05 116.42 79.74C119.69 76.77 121.69 77.74 122.56 79.72C123.37 81.56 122.03 84.81 121.12 86.33C116.61 93.81 110.85 96.74 110.85 96.74C115.59 96.53 119.33 91.45 120.84 89.91C125.22 85.46 127.22 90.97 124.83 94.96C123.73 96.79 122.63 98.08 120.62 100.15C117.37 103.48 114.31 104.99 114.31 104.99C114.31 104.99 115.62 105.19 116.94 104.5C118.72 103.57 120.71 102.17 121.74 101.37C124.69 99.1 127.5 101.05 126.37 104.07C125.06 107.56 120.28 110.52 117.39 112.67C111.77 116.83 104.76 120.16 97.6596 119.93C89.7596 119.68 84.3196 114.25 82.1796 106.62C80.9396 102.18 83.8996 95.12 84.6496 93.34C87.1096 87.58 87.1896 82.56 87.6796 81.23Z" fill="url(#paint23_radial_169_13645)" style=""/>
<path d="M103.56 99.08C103.42 107.46 98.1597 110.96 94.0797 111.73C95.7197 109.34 96.5697 106.42 96.4697 103.53C96.3697 100.63 95.2497 97.02 93.5897 95.06C91.9297 93.1 92.3497 91.17 92.3497 91.17C92.3497 91.17 93.4697 91.08 93.8897 90.83C95.2297 90.01 96.7697 89.35 97.9297 88.28C98.7697 87.49 103.7 90.7 103.56 99.08Z" fill="url(#paint24_radial_169_13645)" style=""/>
<path d="M120.77 78.54C121.59 79.07 122.04 79.98 122.05 80.89C122.08 81.81 121.81 82.71 121.48 83.57C120.78 85.3 119.68 86.85 118.55 88.34C117.39 89.82 116.14 91.25 114.84 92.63C113.54 94.02 112.21 95.39 110.86 96.76C112.53 95.78 114.08 94.6 115.51 93.3C116.93 91.99 118.28 90.57 119.42 88.99C120.59 87.42 121.52 85.67 122.13 83.79C122.41 82.85 122.61 81.84 122.44 80.84C122.31 79.85 121.68 78.9 120.77 78.54Z" fill="url(#paint25_linear_169_13645)" style=""/>
<path d="M126.63 102.67C126.6 102.39 126.56 102.15 126.51 101.94C126.57 102.17 126.62 102.41 126.63 102.67Z" fill="url(#paint26_radial_169_13645)" style=""/>
<path d="M122.86 106.78C123.58 106.09 124.07 105.51 124.44 104.9C124.86 104.2 125.1 103.46 125.12 102.77C125.14 102 125.07 101.43 124.34 100.87C123.98 100.59 122.97 100.69 122.99 100.68C123 100.67 123.02 100.67 123.03 100.66C123.64 100.42 124.21 100.36 124.72 100.44C124.72 100.44 124.72 100.44 124.71 100.43L124.72 100.44C125.58 100.58 126.24 101.13 126.5 101.94C126.55 102.15 126.59 102.39 126.62 102.67C126.63 103.1 126.56 103.58 126.37 104.09C126.08 104.86 125.61 105.61 125.04 106.33C124.7 106.85 124.3 107.34 123.93 107.81C123.34 108.51 122.74 109.2 122.07 109.82C120.76 111.1 119.31 112.22 117.77 113.2C117.02 113.66 109.6 118.21 103.1 119.46C103.09 119.44 115.5 114.32 122.86 106.78Z" fill="#91674D" style="fill:#91674D;fill:color(display-p3 0.5686 0.4039 0.3020);fill-opacity:1;"/>
<path d="M113.92 105.53C113.99 105.53 114.07 105.52 114.13 105.49C115.71 104.83 117.28 103.89 118.94 102.61C120.46 101.4 121.81 100.08 122.95 98.7001C123.59 97.9601 124.16 97.1501 124.62 96.4601L124.76 96.2401C125.23 95.5101 125.71 94.7601 126.01 93.8801C126.4 92.8401 126.5 91.7701 126.28 90.7801C126.03 89.5901 125.35 88.7801 124.4 88.3701C123.04 87.7801 121.52 89.2801 121.61 89.2401C122.66 88.7701 123.58 89.0301 123.82 89.1901C124.37 89.5701 124.73 90.2301 124.8 91.0001C124.85 91.6901 124.69 92.4501 124.34 93.1901C124.04 93.8401 123.62 94.4701 122.97 95.2301C122.41 95.9501 121.83 96.6101 121.26 97.2601C120.06 98.6101 118.82 99.8701 117.58 101.03C116.51 102.02 115.09 103.31 113.56 104.53C113.34 104.7 113.28 105.01 113.43 105.25C113.54 105.43 113.73 105.53 113.92 105.53Z" fill="#91674D" style="fill:#91674D;fill:color(display-p3 0.5686 0.4039 0.3020);fill-opacity:1;"/>
<path d="M110.4 96.91C110.21 96.7 110.25 96.57 110.45 96.37C111.94 94.86 113.24 93.51 114.42 92.25C115.79 90.8 116.99 89.41 118.09 88.01C119.17 86.59 120.27 85.05 120.95 83.38C121.21 82.7 121.51 81.8 121.49 80.91C121.49 80.51 121.38 80.14 121.2 79.81C121.03 79.5 120.78 79.23 120.47 79.03C120.46 79.03 120.46 79.02 120.46 79.02C119.95 78.71 119.12 78.48 117.79 78.71C120.12 77.14 121.87 78.03 122.61 79.72C123.42 81.56 122.04 84.85 121.12 86.37C116.61 93.85 111.1 96.84 111.1 96.84C110.84 97 110.53 97.05 110.4 96.91Z" fill="#91674D" style="fill:#91674D;fill:color(display-p3 0.5686 0.4039 0.3020);fill-opacity:1;"/>
<path d="M103.64 91.61C105.33 89.37 112.11 82.26 111.94 77.61C111.89 76.12 109.51 74.59 107.13 75.98C107.1 76 108.87 73.98 111.09 74.77C113.02 75.45 113.3 77.23 113.32 77.55C113.42 78.56 113.14 79.53 112.87 80.27C112.31 81.67 111.6 83.03 110.58 84.66C109.82 85.9 108.93 87.16 107.79 88.65C107.16 89.46 106.52 90.2 105.87 90.9C105.43 91.38 104.98 91.84 104.52 92.29C104.41 92.39 104.27 92.45 104.13 92.45C104.01 92.45 103.89 92.41 103.79 92.34C103.57 92.16 103.47 91.83 103.64 91.61Z" fill="#91674D" style="fill:#91674D;fill:color(display-p3 0.5686 0.4039 0.3020);fill-opacity:1;"/>
<path d="M90.3599 78.92C91.0799 78.92 92.2999 79.1 92.9499 80.09C94.2299 82.01 93.7299 85.61 92.7499 88.74C92.5899 89.25 92.4899 89.66 92.4299 90C92.3099 90.62 92.9099 91.12 93.4899 90.9C95.9399 89.98 98.6599 86.77 101.38 83.58C101.52 83.41 101.65 83.25 101.79 83.08C101.76 83.54 100.2 86.04 98.0699 88.73C97.4999 89.46 93.7099 93.59 91.6899 92.41C90.4399 91.69 92.4799 86.09 92.4999 84.64C92.5099 83.85 92.6199 82.83 92.3699 81.89C92.3199 81.65 92.1699 81.4 91.9799 81.15C90.8899 79.69 88.6299 79.63 87.6999 81.2L87.6699 81.24C88.1699 79.9 88.7799 78.92 90.3599 78.92Z" fill="#91674D" style="fill:#91674D;fill:color(display-p3 0.5686 0.4039 0.3020);fill-opacity:1;"/>
<defs>
<radialGradient id="paint0_radial_169_13645" cx="0" cy="0" r="1" gradientUnits="userSpaceOnUse" gradientTransform="translate(63.6001 62.8999) scale(56.9597 56.9597)">
<stop offset="0.5" stop-color="#FDE030" style="stop-color:#FDE030;stop-color:color(display-p3 0.9922 0.8784 0.1882);stop-opacity:1;"/>
<stop offset="0.9188" stop-color="#F7C02B" style="stop-color:#F7C02B;stop-color:color(display-p3 0.9686 0.7529 0.1686);stop-opacity:1;"/>
<stop offset="1" stop-color="#F4A223" style="stop-color:#F4A223;stop-color:color(display-p3 0.9569 0.6353 0.1373);stop-opacity:1;"/>
</radialGradient>
<linearGradient id="paint1_linear_169_13645" x1="63.6001" y1="118.8" x2="63.6001" y2="7" gradientUnits="userSpaceOnUse">
<stop offset="0.1579" stop-color="#F4A223" style="stop-color:#F4A223;stop-color:color(display-p3 0.9569 0.6353 0.1373);stop-opacity:1;"/>
<stop offset="0.333" stop-color="#F7C02B" style="stop-color:#F7C02B;stop-color:color(display-p3 0.9686 0.7529 0.1686);stop-opacity:1;"/>
<stop offset="0.8071" stop-color="#FDE030" stop-opacity="0" style="stop-color:none;stop-opacity:0;"/>
</linearGradient>
<radialGradient id="paint2_radial_169_13645" cx="0" cy="0" r="1" gradientUnits="userSpaceOnUse" gradientTransform="translate(53 33.5) rotate(79.6952) scale(61.4919 100.858)">
<stop offset="0.3533" stop-color="#F9DDBD" style="stop-color:#F9DDBD;stop-color:color(display-p3 0.9765 0.8667 0.7412);stop-opacity:1;"/>
<stop offset="0.8723" stop-color="#FECD92" style="stop-color:#FECD92;stop-color:color(display-p3 0.9958 0.8035 0.5726);stop-opacity:1;"/>
</radialGradient>
<radialGradient id="paint3_radial_169_13645" cx="0" cy="0" r="1" gradientUnits="userSpaceOnUse" gradientTransform="translate(64 24) rotate(94.514) scale(76.2365 76.0874)">
<stop offset="0.3533" stop-color="#70534A" style="stop-color:#70534A;stop-color:color(display-p3 0.4392 0.3255 0.2902);stop-opacity:1;"/>
<stop offset="0.8723" stop-color="#52372F" style="stop-color:#52372F;stop-color:color(display-p3 0.3208 0.2166 0.1831);stop-opacity:1;"/>
</radialGradient>
<radialGradient id="paint4_radial_169_13645" cx="0" cy="0" r="1" gradientUnits="userSpaceOnUse" gradientTransform="translate(38.5991 34.5377) rotate(-43.2082) scale(102.024 101.825)">
<stop offset="0.3533" stop-color="#A37A58" style="stop-color:#A37A58;stop-color:color(display-p3 0.6375 0.4772 0.3453);stop-opacity:1;"/>
<stop offset="0.8723" stop-color="#8D5738" style="stop-color:#8D5738;stop-color:color(display-p3 0.5529 0.3412 0.2196);stop-opacity:1;"/>
</radialGradient>
<radialGradient id="paint5_radial_169_13645" cx="0" cy="0" r="1" gradientUnits="userSpaceOnUse" gradientTransform="translate(38.5991 34.5377) rotate(-43.2082) scale(102.024 101.825)">
<stop offset="0.3533" stop-color="#AD8264" style="stop-color:#AD8264;stop-color:color(display-p3 0.6784 0.5098 0.3922);stop-opacity:1;"/>
<stop offset="0.8723" stop-color="#A47B62" style="stop-color:#A47B62;stop-color:color(display-p3 0.6431 0.4824 0.3843);stop-opacity:1;"/>
</radialGradient>
<radialGradient id="paint6_radial_169_13645" cx="0" cy="0" r="1" gradientUnits="userSpaceOnUse" gradientTransform="translate(38.5991 34.5377) rotate(-43.2082) scale(102.024 101.825)">
<stop offset="0.3533" stop-color="#AD8264" style="stop-color:#AD8264;stop-color:color(display-p3 0.6784 0.5098 0.3922);stop-opacity:1;"/>
<stop offset="0.8723" stop-color="#9E6F52" style="stop-color:#9E6F52;stop-color:color(display-p3 0.6208 0.4360 0.3234);stop-opacity:1;"/>
</radialGradient>
<radialGradient id="paint7_radial_169_13645" cx="0" cy="0" r="1" gradientUnits="userSpaceOnUse" gradientTransform="translate(29.6655 64.1065) rotate(-10.6121) scale(17.7371 16.8505)">
<stop stop-color="#ED7770" style="stop-color:#ED7770;stop-color:color(display-p3 0.9294 0.4667 0.4392);stop-opacity:1;"/>
<stop offset="0.9" stop-color="#ED7770" stop-opacity="0" style="stop-color:none;stop-opacity:0;"/>
</radialGradient>
<radialGradient id="paint8_radial_169_13645" cx="0" cy="0" r="1" gradientUnits="userSpaceOnUse" gradientTransform="translate(96.9065 51.5345) rotate(-10.6121) scale(17.7352 16.8488)">
<stop stop-color="#ED7770" style="stop-color:#ED7770;stop-color:color(display-p3 0.9294 0.4667 0.4392);stop-opacity:1;"/>
<stop offset="0.9" stop-color="#ED7770" stop-opacity="0" style="stop-color:none;stop-opacity:0;"/>
</radialGradient>
<linearGradient id="paint9_linear_169_13645" x1="42.6032" y1="123.808" x2="40.8271" y2="84.3923" gradientUnits="userSpaceOnUse">
<stop stop-color="#140905" style="stop-color:#140905;stop-color:color(display-p3 0.0792 0.0350 0.0214);stop-opacity:1;"/>
<stop offset="1" stop-color="#2C1109" stop-opacity="0.2" style="stop-color:#2C1109;stop-color:color(display-p3 0.1708 0.0679 0.0363);stop-opacity:0.2;"/>
</linearGradient>
<radialGradient id="paint10_radial_169_13645" cx="0" cy="0" r="1" gradientUnits="userSpaceOnUse" gradientTransform="translate(29.1853 93.8659) scale(38.9038 38.9038)">
<stop offset="0.3302" stop-color="#FFF176" style="stop-color:#FFF176;stop-color:color(display-p3 1.0000 0.9451 0.4627);stop-opacity:1;"/>
<stop offset="1" stop-color="#FFC400" style="stop-color:#FFC400;stop-color:color(display-p3 1.0000 0.7686 0.0000);stop-opacity:1;"/>
</radialGradient>
<radialGradient id="paint11_radial_169_13645" cx="0" cy="0" r="1" gradientUnits="userSpaceOnUse" gradientTransform="translate(18.838 85.337) rotate(80.1916) scale(24.9076 38.9644)">
<stop offset="0.3533" stop-color="#F9DDBD" style="stop-color:#F9DDBD;stop-color:color(display-p3 0.9765 0.8667 0.7412);stop-opacity:1;"/>
<stop offset="0.8723" stop-color="#FECD92" style="stop-color:#FECD92;stop-color:color(display-p3 0.9958 0.8035 0.5726);stop-opacity:1;"/>
</radialGradient>
<radialGradient id="paint12_radial_169_13645" cx="0" cy="0" r="1" gradientUnits="userSpaceOnUse" gradientTransform="translate(13.2831 85.758) rotate(-44.6511) scale(40.3208 40.3178)">
<stop offset="0.3533" stop-color="#70534A" style="stop-color:#70534A;stop-color:color(display-p3 0.4392 0.3255 0.2902);stop-opacity:1;"/>
<stop offset="0.8723" stop-color="#5C4037" style="stop-color:#5C4037;stop-color:color(display-p3 0.3608 0.2510 0.2157);stop-opacity:1;"/>
</radialGradient>
<radialGradient id="paint13_radial_169_13645" cx="0" cy="0" r="1" gradientUnits="userSpaceOnUse" gradientTransform="translate(13.2831 85.758) rotate(-44.6511) scale(40.3208 40.3178)">
<stop offset="0.3533" stop-color="#A37A58" style="stop-color:#A37A58;stop-color:color(display-p3 0.6375 0.4772 0.3453);stop-opacity:1;"/>
<stop offset="0.8723" stop-color="#8D5738" style="stop-color:#8D5738;stop-color:color(display-p3 0.5529 0.3412 0.2196);stop-opacity:1;"/>
</radialGradient>
<radialGradient id="paint14_radial_169_13645" cx="0" cy="0" r="1" gradientUnits="userSpaceOnUse" gradientTransform="translate(13.2831 85.758) rotate(-44.6511) scale(40.3208 40.3178)">
<stop offset="0.3533" stop-color="#AD8264" style="stop-color:#AD8264;stop-color:color(display-p3 0.6784 0.5098 0.3922);stop-opacity:1;"/>
<stop offset="0.8723" stop-color="#A47B62" style="stop-color:#A47B62;stop-color:color(display-p3 0.6431 0.4824 0.3843);stop-opacity:1;"/>
</radialGradient>
<radialGradient id="paint15_radial_169_13645" cx="0" cy="0" r="1" gradientUnits="userSpaceOnUse" gradientTransform="translate(36.7944 102.449) rotate(-42.2887) scale(11.728 11.7438)">
<stop stop-color="#4A2F27" style="stop-color:#4A2F27;stop-color:color(display-p3 0.2902 0.1843 0.1529);stop-opacity:1;"/>
<stop offset="1" stop-color="#4A2F27" stop-opacity="0" style="stop-color:none;stop-opacity:0;"/>
</radialGradient>
<linearGradient id="paint16_linear_169_13645" x1="18.5169" y1="95.2554" x2="5.82643" y2="82.7753" gradientUnits="userSpaceOnUse">
<stop offset="0.1273" stop-color="#B7537A" style="stop-color:#B7537A;stop-color:color(display-p3 0.7176 0.3255 0.4784);stop-opacity:1;"/>
<stop offset="1" stop-color="#FFC400" style="stop-color:#FFC400;stop-color:color(display-p3 1.0000 0.7686 0.0000);stop-opacity:1;"/>
</linearGradient>
<radialGradient id="paint17_radial_169_13645" cx="0" cy="0" r="1" gradientUnits="userSpaceOnUse" gradientTransform="translate(29.1853 93.866) scale(38.9038 38.9036)">
<stop offset="0.3302" stop-color="#FFF176" style="stop-color:#FFF176;stop-color:color(display-p3 1.0000 0.9451 0.4627);stop-opacity:1;"/>
<stop offset="1" stop-color="#FFC400" style="stop-color:#FFC400;stop-color:color(display-p3 1.0000 0.7686 0.0000);stop-opacity:1;"/>
</radialGradient>
<linearGradient id="paint18_linear_169_13645" x1="84.6618" y1="123.808" x2="82.8857" y2="84.3923" gradientUnits="userSpaceOnUse">
<stop stop-color="#140905" style="stop-color:#140905;stop-color:color(display-p3 0.0792 0.0350 0.0214);stop-opacity:1;"/>
<stop offset="1" stop-color="#2C1109" stop-opacity="0.2" style="stop-color:#2C1109;stop-color:color(display-p3 0.1708 0.0679 0.0363);stop-opacity:0.2;"/>
</linearGradient>
<radialGradient id="paint19_radial_169_13645" cx="0" cy="0" r="1" gradientUnits="userSpaceOnUse" gradientTransform="translate(97.9912 93.8659) rotate(180) scale(38.9038 38.9038)">
<stop offset="0.3302" stop-color="#FFF176" style="stop-color:#FFF176;stop-color:color(display-p3 1.0000 0.9451 0.4627);stop-opacity:1;"/>
<stop offset="1" stop-color="#FFC400" style="stop-color:#FFC400;stop-color:color(display-p3 1.0000 0.7686 0.0000);stop-opacity:1;"/>
</radialGradient>
<radialGradient id="paint20_radial_169_13645" cx="0" cy="0" r="1" gradientUnits="userSpaceOnUse" gradientTransform="translate(100.164 85.337) rotate(80.1916) scale(24.9076 38.9644)">
<stop offset="0.3533" stop-color="#F9DDBD" style="stop-color:#F9DDBD;stop-color:color(display-p3 0.9765 0.8667 0.7412);stop-opacity:1;"/>
<stop offset="0.8723" stop-color="#FECD92" style="stop-color:#FECD92;stop-color:color(display-p3 0.9958 0.8035 0.5726);stop-opacity:1;"/>
</radialGradient>
<radialGradient id="paint21_radial_169_13645" cx="0" cy="0" r="1" gradientUnits="userSpaceOnUse" gradientTransform="translate(94.6088 85.758) rotate(-44.6511) scale(40.3208 40.3178)">
<stop offset="0.3533" stop-color="#70534A" style="stop-color:#70534A;stop-color:color(display-p3 0.4392 0.3255 0.2902);stop-opacity:1;"/>
<stop offset="0.8723" stop-color="#5C4037" style="stop-color:#5C4037;stop-color:color(display-p3 0.3608 0.2510 0.2157);stop-opacity:1;"/>
</radialGradient>
<radialGradient id="paint22_radial_169_13645" cx="0" cy="0" r="1" gradientUnits="userSpaceOnUse" gradientTransform="translate(94.6088 85.758) rotate(-44.6511) scale(40.3208 40.3178)">
<stop offset="0.3533" stop-color="#A37A58" style="stop-color:#A37A58;stop-color:color(display-p3 0.6375 0.4772 0.3453);stop-opacity:1;"/>
<stop offset="0.8723" stop-color="#8D5738" style="stop-color:#8D5738;stop-color:color(display-p3 0.5529 0.3412 0.2196);stop-opacity:1;"/>
</radialGradient>
<radialGradient id="paint23_radial_169_13645" cx="0" cy="0" r="1" gradientUnits="userSpaceOnUse" gradientTransform="translate(94.6088 85.758) rotate(-44.6511) scale(40.3208 40.3178)">
<stop offset="0.3533" stop-color="#AD8264" style="stop-color:#AD8264;stop-color:color(display-p3 0.6784 0.5098 0.3922);stop-opacity:1;"/>
<stop offset="0.8723" stop-color="#A47B62" style="stop-color:#A47B62;stop-color:color(display-p3 0.6431 0.4824 0.3843);stop-opacity:1;"/>
</radialGradient>
<radialGradient id="paint24_radial_169_13645" cx="0" cy="0" r="1" gradientUnits="userSpaceOnUse" gradientTransform="translate(90.4179 102.502) rotate(-137.711) scale(11.728 11.7438)">
<stop stop-color="#4A2F27" style="stop-color:#4A2F27;stop-color:color(display-p3 0.2902 0.1843 0.1529);stop-opacity:1;"/>
<stop offset="1" stop-color="#4A2F27" stop-opacity="0" style="stop-color:none;stop-opacity:0;"/>
</radialGradient>
<linearGradient id="paint25_linear_169_13645" x1="108.66" y1="95.2554" x2="121.35" y2="82.7753" gradientUnits="userSpaceOnUse">
<stop offset="0.1273" stop-color="#B7537A" style="stop-color:#B7537A;stop-color:color(display-p3 0.7176 0.3255 0.4784);stop-opacity:1;"/>
<stop offset="1" stop-color="#FFC400" style="stop-color:#FFC400;stop-color:color(display-p3 1.0000 0.7686 0.0000);stop-opacity:1;"/>
</linearGradient>
<radialGradient id="paint26_radial_169_13645" cx="0" cy="0" r="1" gradientUnits="userSpaceOnUse" gradientTransform="translate(97.9925 93.866) rotate(180) scale(38.9022 38.9036)">
<stop offset="0.3302" stop-color="#FFF176" style="stop-color:#FFF176;stop-color:color(display-p3 1.0000 0.9451 0.4627);stop-opacity:1;"/>
<stop offset="1" stop-color="#FFC400" style="stop-color:#FFC400;stop-color:color(display-p3 1.0000 0.7686 0.0000);stop-opacity:1;"/>
</radialGradient>
</defs>
</svg>
