<svg width="128" height="128" viewBox="0 0 128 128" fill="none" xmlns="http://www.w3.org/2000/svg">
<g opacity="0.2">
<path d="M99.73 7.09009C102.49 7.09009 104.73 9.33009 104.73 12.0901V116.09C104.73 118.85 102.49 121.09 99.73 121.09H27.73C24.97 121.09 22.73 118.85 22.73 116.09V12.0901C22.73 9.33009 24.97 7.09009 27.73 7.09009H99.73ZM99.73 4.09009H27.73C23.31 4.09009 19.73 7.67009 19.73 12.0901V116.09C19.73 120.51 23.31 124.09 27.73 124.09H99.73C104.15 124.09 107.73 120.51 107.73 116.09V12.0901C107.73 7.67009 104.15 4.09009 99.73 4.09009Z" fill="#212121" style="fill:#212121;fill:color(display-p3 0.1294 0.1294 0.1294);fill-opacity:1;"/>
<path d="M99.73 7.09009C102.49 7.09009 104.73 9.33009 104.73 12.0901V116.09C104.73 118.85 102.49 121.09 99.73 121.09H27.73C24.97 121.09 22.73 118.85 22.73 116.09V12.0901C22.73 9.33009 24.97 7.09009 27.73 7.09009H99.73ZM99.73 4.09009H27.73C23.31 4.09009 19.73 7.67009 19.73 12.0901V116.09C19.73 120.51 23.31 124.09 27.73 124.09H99.73C104.15 124.09 107.73 120.51 107.73 116.09V12.0901C107.73 7.67009 104.15 4.09009 99.73 4.09009Z" fill="#212121" style="fill:#212121;fill:color(display-p3 0.1294 0.1294 0.1294);fill-opacity:1;"/>
<path d="M99.73 7.09009C102.49 7.09009 104.73 9.33009 104.73 12.0901V116.09C104.73 118.85 102.49 121.09 99.73 121.09H27.73C24.97 121.09 22.73 118.85 22.73 116.09V12.0901C22.73 9.33009 24.97 7.09009 27.73 7.09009H99.73ZM99.73 4.09009H27.73C23.31 4.09009 19.73 7.67009 19.73 12.0901V116.09C19.73 120.51 23.31 124.09 27.73 124.09H99.73C104.15 124.09 107.73 120.51 107.73 116.09V12.0901C107.73 7.67009 104.15 4.09009 99.73 4.09009Z" fill="#212121" style="fill:#212121;fill:color(display-p3 0.1294 0.1294 0.1294);fill-opacity:1;"/>
</g>
<path d="M102.439 125.43L26.4194 125.06C22.9694 125.06 20.1694 122.26 20.1694 118.81L32.3694 26.6801L102.559 4.5001C108.689 4.1701 109.039 7.0301 109.039 10.4801L108.669 119.17C108.689 122.64 105.889 125.43 102.439 125.43Z" fill="#D9CDC9" style="fill:#D9CDC9;fill:color(display-p3 0.8510 0.8039 0.7882);fill-opacity:1;"/>
<path d="M101.98 122.06C101.98 122.06 44.2195 123.04 25.5095 121.98C21.9295 121.78 20.1795 120.36 20.1695 118.82L19.9995 10.3301C19.9995 6.88008 22.7995 4.08008 26.2495 4.08008L101.89 4.40008C105.34 4.40008 106.65 7.26008 106.65 10.7101L106.08 116.11C106.06 119.56 105.43 122.06 101.98 122.06Z" fill="#F1EDEC" style="fill:#F1EDEC;fill:color(display-p3 0.9451 0.9294 0.9255);fill-opacity:1;"/>
<path d="M65.2668 97.2C65.6501 96 67.1834 93 69.8668 93C73.3168 93 74.8501 95.4 74.8501 98.4C74.8501 100.5 73.8615 101.884 72.9334 103.5C71.9452 105.221 70.488 106.757 69.1001 108.3C67.3194 110.279 63.3501 114 63.3501 114C63.3501 114 59.3808 110.279 57.6001 108.3C56.2122 106.757 54.755 105.221 53.7668 103.5C52.8387 101.884 51.8501 100.5 51.8501 98.4C51.8501 95.4 53.3834 93 56.8334 93C59.5168 93 61.0501 96 61.4334 97.2C61.8168 97.5 61.8168 97.2 61.8168 96.9C61.4334 94.5 61.4334 93.9 61.0501 92.1C60.6668 90.3 59.5168 87 59.5168 87C61.4334 87.6 65.2668 87.6 67.1834 87C67.1834 87 66.0334 90.3 65.6501 92.1C65.2668 93.9 65.2668 94.5 64.8834 96.9C64.8834 97.2 64.8834 97.5 65.2668 97.2Z" fill="#212121" style="fill:#212121;fill:color(display-p3 0.1294 0.1294 0.1294);fill-opacity:1;"/>
<path d="M65.2668 97.2C65.6501 96 67.1834 93 69.8668 93C73.3168 93 74.8501 95.4 74.8501 98.4C74.8501 100.5 73.8615 101.884 72.9334 103.5C71.9452 105.221 70.488 106.757 69.1001 108.3C67.3194 110.279 63.3501 114 63.3501 114C63.3501 114 59.3808 110.279 57.6001 108.3C56.2122 106.757 54.755 105.221 53.7668 103.5C52.8387 101.884 51.8501 100.5 51.8501 98.4C51.8501 95.4 53.3834 93 56.8334 93C59.5168 93 61.0501 96 61.4334 97.2C61.8168 97.5 61.8168 97.2 61.8168 96.9C61.4334 94.5 61.4334 93.9 61.0501 92.1C60.6668 90.3 59.5168 87 59.5168 87C61.4334 87.6 65.2668 87.6 67.1834 87C67.1834 87 66.0334 90.3 65.6501 92.1C65.2668 93.9 65.2668 94.5 64.8834 96.9C64.8834 97.2 64.8834 97.5 65.2668 97.2Z" fill="#212121" style="fill:#212121;fill:color(display-p3 0.1294 0.1294 0.1294);fill-opacity:1;"/>
<path d="M65.2668 97.2C65.6501 96 67.1834 93 69.8668 93C73.3168 93 74.8501 95.4 74.8501 98.4C74.8501 100.5 73.8615 101.884 72.9334 103.5C71.9452 105.221 70.488 106.757 69.1001 108.3C67.3194 110.279 63.3501 114 63.3501 114C63.3501 114 59.3808 110.279 57.6001 108.3C56.2122 106.757 54.755 105.221 53.7668 103.5C52.8387 101.884 51.8501 100.5 51.8501 98.4C51.8501 95.4 53.3834 93 56.8334 93C59.5168 93 61.0501 96 61.4334 97.2C61.8168 97.5 61.8168 97.2 61.8168 96.9C61.4334 94.5 61.4334 93.9 61.0501 92.1C60.6668 90.3 59.5168 87 59.5168 87C61.4334 87.6 65.2668 87.6 67.1834 87C67.1834 87 66.0334 90.3 65.6501 92.1C65.2668 93.9 65.2668 94.5 64.8834 96.9C64.8834 97.2 64.8834 97.5 65.2668 97.2Z" fill="#212121" style="fill:#212121;fill:color(display-p3 0.1294 0.1294 0.1294);fill-opacity:1;"/>
<path d="M65.2668 36.8C65.6501 38 67.1834 41 69.8668 41C73.3168 41 74.8501 38.6 74.8501 35.6C74.8501 33.5 73.8615 32.1163 72.9334 30.5C71.9452 28.779 70.488 27.2428 69.1001 25.7C67.3194 23.7206 63.3501 20 63.3501 20C63.3501 20 59.3808 23.7206 57.6001 25.7C56.2122 27.2428 54.755 28.779 53.7668 30.5C52.8387 32.1163 51.8501 33.5 51.8501 35.6C51.8501 38.6 53.3834 41 56.8334 41C59.5168 41 61.0501 38 61.4334 36.8C61.8168 36.5 61.8168 36.8 61.8168 37.1C61.4334 39.5 61.4334 40.1 61.0501 41.9C60.6668 43.7 59.5168 47 59.5168 47C61.4334 46.4 65.2668 46.4 67.1834 47C67.1834 47 66.0334 43.7 65.6501 41.9C65.2668 40.1 65.2668 39.5 64.8834 37.1C64.8834 36.8 64.8834 36.5 65.2668 36.8Z" fill="#212121" style="fill:#212121;fill:color(display-p3 0.1294 0.1294 0.1294);fill-opacity:1;"/>
<path d="M65.2668 36.8C65.6501 38 67.1834 41 69.8668 41C73.3168 41 74.8501 38.6 74.8501 35.6C74.8501 33.5 73.8615 32.1163 72.9334 30.5C71.9452 28.779 70.488 27.2428 69.1001 25.7C67.3194 23.7206 63.3501 20 63.3501 20C63.3501 20 59.3808 23.7206 57.6001 25.7C56.2122 27.2428 54.755 28.779 53.7668 30.5C52.8387 32.1163 51.8501 33.5 51.8501 35.6C51.8501 38.6 53.3834 41 56.8334 41C59.5168 41 61.0501 38 61.4334 36.8C61.8168 36.5 61.8168 36.8 61.8168 37.1C61.4334 39.5 61.4334 40.1 61.0501 41.9C60.6668 43.7 59.5168 47 59.5168 47C61.4334 46.4 65.2668 46.4 67.1834 47C67.1834 47 66.0334 43.7 65.6501 41.9C65.2668 40.1 65.2668 39.5 64.8834 37.1C64.8834 36.8 64.8834 36.5 65.2668 36.8Z" fill="#212121" style="fill:#212121;fill:color(display-p3 0.1294 0.1294 0.1294);fill-opacity:1;"/>
<path d="M65.2668 36.8C65.6501 38 67.1834 41 69.8668 41C73.3168 41 74.8501 38.6 74.8501 35.6C74.8501 33.5 73.8615 32.1163 72.9334 30.5C71.9452 28.779 70.488 27.2428 69.1001 25.7C67.3194 23.7206 63.3501 20 63.3501 20C63.3501 20 59.3808 23.7206 57.6001 25.7C56.2122 27.2428 54.755 28.779 53.7668 30.5C52.8387 32.1163 51.8501 33.5 51.8501 35.6C51.8501 38.6 53.3834 41 56.8334 41C59.5168 41 61.0501 38 61.4334 36.8C61.8168 36.5 61.8168 36.8 61.8168 37.1C61.4334 39.5 61.4334 40.1 61.0501 41.9C60.6668 43.7 59.5168 47 59.5168 47C61.4334 46.4 65.2668 46.4 67.1834 47C67.1834 47 66.0334 43.7 65.6501 41.9C65.2668 40.1 65.2668 39.5 64.8834 37.1C64.8834 36.8 64.8834 36.5 65.2668 36.8Z" fill="#212121" style="fill:#212121;fill:color(display-p3 0.1294 0.1294 0.1294);fill-opacity:1;"/>
</svg>
