<svg width="128" height="128" viewBox="0 0 128 128" fill="none" xmlns="http://www.w3.org/2000/svg">
<path d="M63.6001 118.8C35.7001 118.8 5.6001 101.3 5.6001 62.9C5.6001 24.5 35.7001 7 63.6001 7C79.1001 7 93.4001 12.1 104 21.4C115.5 31.6 121.6 46 121.6 62.9C121.6 79.8 115.5 94.1 104 104.3C93.4001 113.6 79.0001 118.8 63.6001 118.8Z" fill="url(#paint0_radial_169_12699)" style=""/>
<path d="M63.6001 118.8C35.7001 118.8 5.6001 101.3 5.6001 62.9C5.6001 24.5 35.7001 7 63.6001 7C79.1001 7 93.4001 12.1 104 21.4C115.5 31.6 121.6 46 121.6 62.9C121.6 79.8 115.5 94.1 104 104.3C93.4001 113.6 79.0001 118.8 63.6001 118.8Z" fill="url(#paint1_radial_169_12699)" style=""/>
<path d="M63.6001 118.8C35.7001 118.8 5.6001 101.3 5.6001 62.9C5.6001 24.5 35.7001 7 63.6001 7C79.1001 7 93.4001 12.1 104 21.4C115.5 31.6 121.6 46 121.6 62.9C121.6 79.8 115.5 94.1 104 104.3C93.4001 113.6 79.0001 118.8 63.6001 118.8Z" fill="url(#paint2_radial_169_12699)" style=""/>
<path d="M63.6001 118.8C35.7001 118.8 5.6001 101.3 5.6001 62.9C5.6001 24.5 35.7001 7 63.6001 7C79.1001 7 93.4001 12.1 104 21.4C115.5 31.6 121.6 46 121.6 62.9C121.6 79.8 115.5 94.1 104 104.3C93.4001 113.6 79.0001 118.8 63.6001 118.8Z" fill="url(#paint3_radial_169_12699)" style=""/>
<path d="M63.6001 118.8C35.7001 118.8 5.6001 101.3 5.6001 62.9C5.6001 24.5 35.7001 7 63.6001 7C79.1001 7 93.4001 12.1 104 21.4C115.5 31.6 121.6 46 121.6 62.9C121.6 79.8 115.5 94.1 104 104.3C93.4001 113.6 79.0001 118.8 63.6001 118.8Z" fill="url(#paint4_radial_169_12699)" style=""/>
<path d="M111.49 29.67C116.82 38.27 119.6 48.51 119.6 59.9C119.6 76.8 113.5 91.1 102 101.3C91.4002 110.6 77.0002 115.8 61.6002 115.8C43.5402 115.8 24.6002 108.45 13.4202 92.86C24.1802 110.52 44.4202 118.8 63.6002 118.8C79.0002 118.8 93.4002 113.6 104 104.3C115.5 94.1 121.6 79.8 121.6 62.9C121.6 50.16 118.13 38.84 111.49 29.67Z" fill="#EB8F00" style="fill:#EB8F00;fill:color(display-p3 0.9216 0.5608 0.0000);fill-opacity:1;"/>
<path d="M111.49 29.67C116.82 38.27 119.6 48.51 119.6 59.9C119.6 76.8 113.5 91.1 102 101.3C91.4002 110.6 77.0002 115.8 61.6002 115.8C43.5402 115.8 24.6002 108.45 13.4202 92.86C24.1802 110.52 44.4202 118.8 63.6002 118.8C79.0002 118.8 93.4002 113.6 104 104.3C115.5 94.1 121.6 79.8 121.6 62.9C121.6 50.16 118.13 38.84 111.49 29.67Z" fill="#F3B872" style="fill:#F3B872;fill:color(display-p3 0.9542 0.7229 0.4453);fill-opacity:1;"/>
<path d="M111.49 29.67C116.82 38.27 119.6 48.51 119.6 59.9C119.6 76.8 113.5 91.1 102 101.3C91.4002 110.6 77.0002 115.8 61.6002 115.8C43.5402 115.8 24.6002 108.45 13.4202 92.86C24.1802 110.52 44.4202 118.8 63.6002 118.8C79.0002 118.8 93.4002 113.6 104 104.3C115.5 94.1 121.6 79.8 121.6 62.9C121.6 50.16 118.13 38.84 111.49 29.67Z" fill="#91674D" style="fill:#91674D;fill:color(display-p3 0.5686 0.4039 0.3020);fill-opacity:1;"/>
<path d="M63.9 82C53.4 82 45.9 88.3 43.7 91.8C42.86 92.92 42.67 94.4 43.2 95.7C43.62 96.53 44.48 97.03 45.4 97C45.74 96.98 46.08 96.91 46.4 96.8C51.7 95.1 56.3 92.7 63.9 92.7C71.5 92.7 76.1 95.2 81.4 96.8C81.72 96.91 82.06 96.98 82.4 97C83.32 97.03 84.18 96.53 84.6 95.7C85.18 94.41 84.98 92.9 84.1 91.8C81.9 88.3 74.4 82 63.9 82Z" fill="#49362E" style="fill:#49362E;fill:color(display-p3 0.2863 0.2118 0.1804);fill-opacity:1;"/>
<path d="M63.9 82C53.4 82 45.9 88.3 43.7 91.8C42.86 92.92 42.67 94.4 43.2 95.7C43.62 96.53 44.48 97.03 45.4 97C45.74 96.98 46.08 96.91 46.4 96.8C51.7 95.1 56.3 92.7 63.9 92.7C71.5 92.7 76.1 95.2 81.4 96.8C81.72 96.91 82.06 96.98 82.4 97C83.32 97.03 84.18 96.53 84.6 95.7C85.18 94.41 84.98 92.9 84.1 91.8C81.9 88.3 74.4 82 63.9 82Z" fill="#1A1717" style="fill:#1A1717;fill:color(display-p3 0.1020 0.0902 0.0902);fill-opacity:1;"/>
<path d="M63.9 82C53.4 82 45.9 88.3 43.7 91.8C42.86 92.92 42.67 94.4 43.2 95.7C43.62 96.53 44.48 97.03 45.4 97C45.74 96.98 46.08 96.91 46.4 96.8C51.7 95.1 56.3 92.7 63.9 92.7C71.5 92.7 76.1 95.2 81.4 96.8C81.72 96.91 82.06 96.98 82.4 97C83.32 97.03 84.18 96.53 84.6 95.7C85.18 94.41 84.98 92.9 84.1 91.8C81.9 88.3 74.4 82 63.9 82Z" fill="#5D4037" style="fill:#5D4037;fill:color(display-p3 0.3647 0.2510 0.2157);fill-opacity:1;"/>
<path d="M44 49.94C39.81 49.94 36 53.48 36 59.36C36 65.24 39.81 68.77 44 68.77C48.2 68.77 52 65.23 52 59.36C52 53.49 48.24 49.94 44 49.94Z" fill="#49362E" style="fill:#49362E;fill:color(display-p3 0.2863 0.2118 0.1804);fill-opacity:1;"/>
<path d="M44 49.94C39.81 49.94 36 53.48 36 59.36C36 65.24 39.81 68.77 44 68.77C48.2 68.77 52 65.23 52 59.36C52 53.49 48.24 49.94 44 49.94Z" fill="#1A1717" style="fill:#1A1717;fill:color(display-p3 0.1020 0.0902 0.0902);fill-opacity:1;"/>
<path d="M44 49.94C39.81 49.94 36 53.48 36 59.36C36 65.24 39.81 68.77 44 68.77C48.2 68.77 52 65.23 52 59.36C52 53.49 48.24 49.94 44 49.94Z" fill="#49362E" style="fill:#49362E;fill:color(display-p3 0.2863 0.2118 0.1804);fill-opacity:1;"/>
<path d="M43.6502 53.87C42.2302 53.19 40.5202 53.79 39.8302 55.21C39.3002 56.32 39.5402 57.65 40.4302 58.51C41.8502 59.19 43.5602 58.59 44.2502 57.17C44.7802 56.06 44.5402 54.73 43.6502 53.87Z" fill="#555050" style="fill:#555050;fill:color(display-p3 0.3333 0.3125 0.3125);fill-opacity:1;"/>
<path d="M43.6502 53.87C42.2302 53.19 40.5202 53.79 39.8302 55.21C39.3002 56.32 39.5402 57.65 40.4302 58.51C41.8502 59.19 43.5602 58.59 44.2502 57.17C44.7802 56.06 44.5402 54.73 43.6502 53.87Z" fill="#6A564E" style="fill:#6A564E;fill:color(display-p3 0.4167 0.3385 0.3056);fill-opacity:1;"/>
<path d="M82.4001 49.94C78.2101 49.94 74.4001 53.48 74.4001 59.36C74.4001 65.24 78.2101 68.77 82.4001 68.77C86.5901 68.77 90.4001 65.23 90.4001 59.36C90.4001 53.49 86.5901 49.94 82.4001 49.94Z" fill="#49362E" style="fill:#49362E;fill:color(display-p3 0.2863 0.2118 0.1804);fill-opacity:1;"/>
<path d="M82.4001 49.94C78.2101 49.94 74.4001 53.48 74.4001 59.36C74.4001 65.24 78.2101 68.77 82.4001 68.77C86.5901 68.77 90.4001 65.23 90.4001 59.36C90.4001 53.49 86.5901 49.94 82.4001 49.94Z" fill="#1A1717" style="fill:#1A1717;fill:color(display-p3 0.1020 0.0902 0.0902);fill-opacity:1;"/>
<path d="M82.4001 49.94C78.2101 49.94 74.4001 53.48 74.4001 59.36C74.4001 65.24 78.2101 68.77 82.4001 68.77C86.5901 68.77 90.4001 65.23 90.4001 59.36C90.4001 53.49 86.5901 49.94 82.4001 49.94Z" fill="#49362E" style="fill:#49362E;fill:color(display-p3 0.2863 0.2118 0.1804);fill-opacity:1;"/>
<path d="M82.0001 53.87C80.5801 53.19 78.8701 53.79 78.1801 55.21C77.6501 56.32 77.8901 57.65 78.7801 58.51C80.2001 59.19 81.9101 58.59 82.6001 57.17C83.1301 56.06 82.8901 54.73 82.0001 53.87Z" fill="#555050" style="fill:#555050;fill:color(display-p3 0.3333 0.3125 0.3125);fill-opacity:1;"/>
<path d="M82.0001 53.87C80.5801 53.19 78.8701 53.79 78.1801 55.21C77.6501 56.32 77.8901 57.65 78.7801 58.51C80.2001 59.19 81.9101 58.59 82.6001 57.17C83.1301 56.06 82.8901 54.73 82.0001 53.87Z" fill="#6A564E" style="fill:#6A564E;fill:color(display-p3 0.4167 0.3385 0.3056);fill-opacity:1;"/>
<path d="M27.4001 34.8C25.2001 35.2 25.1001 38.4 27.5001 38.5C32.8001 38.57 37.9201 36.6 41.8001 33C43.2801 31.72 44.5301 30.2 45.5001 28.5C46.0801 27.67 45.8801 26.53 45.0501 25.95C44.2201 25.37 43.0801 25.57 42.5001 26.4L42.4001 26.5C38.4801 30.88 33.1901 33.81 27.4001 34.8Z" fill="#49362E" style="fill:#49362E;fill:color(display-p3 0.2863 0.2118 0.1804);fill-opacity:1;"/>
<path d="M27.4001 34.8C25.2001 35.2 25.1001 38.4 27.5001 38.5C32.8001 38.57 37.9201 36.6 41.8001 33C43.2801 31.72 44.5301 30.2 45.5001 28.5C46.0801 27.67 45.8801 26.53 45.0501 25.95C44.2201 25.37 43.0801 25.57 42.5001 26.4L42.4001 26.5C38.4801 30.88 33.1901 33.81 27.4001 34.8Z" fill="#1A1717" style="fill:#1A1717;fill:color(display-p3 0.1020 0.0902 0.0902);fill-opacity:1;"/>
<path d="M27.4001 34.8C25.2001 35.2 25.1001 38.4 27.5001 38.5C32.8001 38.57 37.9201 36.6 41.8001 33C43.2801 31.72 44.5301 30.2 45.5001 28.5C46.0801 27.67 45.8801 26.53 45.0501 25.95C44.2201 25.37 43.0801 25.57 42.5001 26.4L42.4001 26.5C38.4801 30.88 33.1901 33.81 27.4001 34.8Z" fill="#613E31" style="fill:#613E31;fill:color(display-p3 0.3804 0.2431 0.1922);fill-opacity:1;"/>
<path d="M84.5001 26.4C83.9201 25.57 82.7801 25.37 81.9501 25.95C81.1201 26.53 80.9201 27.67 81.5001 28.5C82.4701 30.2 83.7201 31.72 85.2001 33C89.1001 36.57 94.2101 38.54 99.5001 38.5C102 38.4 101.8 35.2 99.6001 34.8C93.7401 33.84 88.4101 30.87 84.5001 26.4Z" fill="#49362E" style="fill:#49362E;fill:color(display-p3 0.2863 0.2118 0.1804);fill-opacity:1;"/>
<path d="M84.5001 26.4C83.9201 25.57 82.7801 25.37 81.9501 25.95C81.1201 26.53 80.9201 27.67 81.5001 28.5C82.4701 30.2 83.7201 31.72 85.2001 33C89.1001 36.57 94.2101 38.54 99.5001 38.5C102 38.4 101.8 35.2 99.6001 34.8C93.7401 33.84 88.4101 30.87 84.5001 26.4Z" fill="#1A1717" style="fill:#1A1717;fill:color(display-p3 0.1020 0.0902 0.0902);fill-opacity:1;"/>
<path d="M84.5001 26.4C83.9201 25.57 82.7801 25.37 81.9501 25.95C81.1201 26.53 80.9201 27.67 81.5001 28.5C82.4701 30.2 83.7201 31.72 85.2001 33C89.1001 36.57 94.2101 38.54 99.5001 38.5C102 38.4 101.8 35.2 99.6001 34.8C93.7401 33.84 88.4101 30.87 84.5001 26.4Z" fill="#613E31" style="fill:#613E31;fill:color(display-p3 0.3804 0.2431 0.1922);fill-opacity:1;"/>
<defs>
<radialGradient id="paint0_radial_169_12699" cx="0" cy="0" r="1" gradientUnits="userSpaceOnUse" gradientTransform="translate(63.6001 62.9) scale(56.9597 56.9597)">
<stop offset="0.5" stop-color="#FDE030" style="stop-color:#FDE030;stop-color:color(display-p3 0.9922 0.8784 0.1882);stop-opacity:1;"/>
<stop offset="0.92" stop-color="#F7C02B" style="stop-color:#F7C02B;stop-color:color(display-p3 0.9686 0.7529 0.1686);stop-opacity:1;"/>
<stop offset="1" stop-color="#F4A223" style="stop-color:#F4A223;stop-color:color(display-p3 0.9569 0.6353 0.1373);stop-opacity:1;"/>
</radialGradient>
<radialGradient id="paint1_radial_169_12699" cx="0" cy="0" r="1" gradientUnits="userSpaceOnUse" gradientTransform="translate(38.5991 34.5377) rotate(-43.2082) scale(102.024 101.825)">
<stop offset="0.3533" stop-color="#F9DDBD" style="stop-color:#F9DDBD;stop-color:color(display-p3 0.9765 0.8667 0.7412);stop-opacity:1;"/>
<stop offset="0.8723" stop-color="#FFD29C" style="stop-color:#FFD29C;stop-color:color(display-p3 1.0000 0.8235 0.6118);stop-opacity:1;"/>
</radialGradient>
<radialGradient id="paint2_radial_169_12699" cx="0" cy="0" r="1" gradientUnits="userSpaceOnUse" gradientTransform="translate(38.5991 34.5377) rotate(-43.2082) scale(102.024 101.825)">
<stop offset="0.3533" stop-color="#70534A" style="stop-color:#70534A;stop-color:color(display-p3 0.4392 0.3255 0.2902);stop-opacity:1;"/>
<stop offset="0.8723" stop-color="#5C4037" style="stop-color:#5C4037;stop-color:color(display-p3 0.3608 0.2510 0.2157);stop-opacity:1;"/>
</radialGradient>
<radialGradient id="paint3_radial_169_12699" cx="0" cy="0" r="1" gradientUnits="userSpaceOnUse" gradientTransform="translate(38.5991 34.5377) rotate(-43.2082) scale(102.024 101.825)">
<stop offset="0.3533" stop-color="#A37A58" style="stop-color:#A37A58;stop-color:color(display-p3 0.6375 0.4772 0.3453);stop-opacity:1;"/>
<stop offset="0.8723" stop-color="#8D5738" style="stop-color:#8D5738;stop-color:color(display-p3 0.5529 0.3412 0.2196);stop-opacity:1;"/>
</radialGradient>
<radialGradient id="paint4_radial_169_12699" cx="0" cy="0" r="1" gradientUnits="userSpaceOnUse" gradientTransform="translate(38.5991 34.5377) rotate(-43.2082) scale(102.024 101.825)">
<stop offset="0.3533" stop-color="#AD8264" style="stop-color:#AD8264;stop-color:color(display-p3 0.6784 0.5098 0.3922);stop-opacity:1;"/>
<stop offset="0.8723" stop-color="#A47B62" style="stop-color:#A47B62;stop-color:color(display-p3 0.6431 0.4824 0.3843);stop-opacity:1;"/>
</radialGradient>
</defs>
</svg>
