<svg width="128" height="128" viewBox="0 0 128 128" fill="none" xmlns="http://www.w3.org/2000/svg">
<g clip-path="url(#clip0_21_201)">
<path d="M9.39404 84.7999L25.8839 73L101.824 73L118.097 84.7999V117C118.097 120.866 114.963 124 111.097 124H16.394C12.5281 124 9.39404 120.866 9.39404 117V84.7999Z" fill="#444F56" style="fill:#444F56;fill:color(display-p3 0.2658 0.3093 0.3375);fill-opacity:1;"/>
<path d="M101.966 124H26.0339V18.6558C26.0339 15.9735 27.748 13.5913 30.2913 12.739C52.1659 5.40821 75.8341 5.40821 97.7088 12.739C100.252 13.5913 101.966 15.9735 101.966 18.6558L101.966 124Z" fill="url(#paint0_radial_21_201)" style=""/>
<path fill-rule="evenodd" clip-rule="evenodd" d="M101.966 115.682C101.093 115.281 100.158 114.983 99.1753 114.806C98.409 114.667 97.642 114.534 96.8745 114.404V124H92.2907V113.687C87.0412 112.928 81.7687 112.382 76.4861 112.048V124H71.9024V111.812C66.6363 111.601 61.3639 111.601 56.0978 111.812V124H51.514V112.048C46.2315 112.382 40.959 112.928 35.7095 113.687V124H31.1257V114.404C30.3582 114.534 29.5912 114.667 28.8248 114.806C27.8423 114.983 26.9073 115.281 26.0339 115.682V110.857C26.9073 110.456 27.8423 110.158 28.8248 109.981C29.5912 109.842 30.3582 109.708 31.1257 109.579V97.3184C30.3582 97.4478 29.5912 97.5817 28.8248 97.7201C27.8423 97.8977 26.9073 98.1954 26.0339 98.5965V93.7714C26.9073 93.3703 27.8423 93.0726 28.8248 92.8951C29.5912 92.7566 30.3582 92.6227 31.1257 92.4934V80.2326C30.3582 80.362 29.5912 80.4959 28.8248 80.6344C27.8423 80.8119 26.9073 81.1096 26.0339 81.5107V76.6857C26.9073 76.2845 27.8423 75.9868 28.8248 75.8093C29.5912 75.6708 30.3582 75.5369 31.1257 75.4076V46.0607C30.3582 46.1901 29.5912 46.324 28.8248 46.4624C27.8423 46.64 26.9073 46.9377 26.0339 47.3388V42.5137C26.9073 42.1126 27.8423 41.8149 28.8248 41.6374C29.5912 41.4989 30.3582 41.365 31.1257 41.2357V28.9749C30.3582 29.1043 29.5912 29.2382 28.8248 29.3767C27.8423 29.5542 26.9073 29.8519 26.0339 30.253V25.428C26.9073 25.0269 27.8423 24.7291 28.8248 24.5516C29.5912 24.4131 30.3582 24.2792 31.1257 24.1499V12.4632C32.6456 11.9678 34.1739 11.5076 35.7095 11.0827V23.4326C40.959 22.6742 46.2315 22.1279 51.514 21.7938V7.97816C53.0393 7.7974 54.5676 7.64987 56.0978 7.53558V21.5573C61.3639 21.3468 66.6363 21.3468 71.9024 21.5573V7.53559C73.4325 7.64988 74.9608 7.79741 76.4861 7.97818V21.7938C81.7687 22.1279 87.0412 22.6742 92.2907 23.4327V11.0827C93.8262 11.5076 95.3546 11.9678 96.8745 12.4632V24.1499C97.642 24.2792 98.409 24.4132 99.1753 24.5516C100.158 24.7291 101.093 25.0268 101.966 25.428V30.253C101.093 29.8519 100.158 29.5542 99.1753 29.3767C98.409 29.2382 97.642 29.1043 96.8745 28.975V41.2357C97.642 41.365 98.409 41.4989 99.1753 41.6374C100.158 41.8149 101.093 42.1126 101.966 42.5137V47.3388C101.093 46.9377 100.158 46.64 99.1753 46.4624C98.409 46.324 97.642 46.1901 96.8745 46.0607V75.4076C97.642 75.5369 98.409 75.6708 99.1753 75.8093C100.158 75.9868 101.093 76.2845 101.966 76.6856V81.5107C101.093 81.1096 100.158 80.8119 99.1753 80.6344C98.409 80.4959 97.642 80.362 96.8745 80.2326V92.4934C97.642 92.6227 98.409 92.7566 99.1753 92.8951C100.158 93.0726 101.093 93.3703 101.966 93.7714V98.5965C101.093 98.1954 100.158 97.8976 99.1753 97.7201C98.409 97.5817 97.642 97.4478 96.8745 97.3184V109.579C97.642 109.708 98.409 109.842 99.1753 109.981C100.158 110.158 101.093 110.456 101.966 110.857V115.682ZM51.514 107.223C46.2315 107.557 40.959 108.103 35.7095 108.862V96.6012C40.959 95.8427 46.2315 95.2964 51.514 94.9623V107.223ZM71.9024 106.987C66.6363 106.776 61.3639 106.776 56.0978 106.987V94.7258C61.3639 94.5153 66.6363 94.5153 71.9024 94.7258V106.987ZM92.2907 108.862C87.0412 108.103 81.7687 107.557 76.4861 107.223V94.9623C81.7687 95.2964 87.0412 95.8427 92.2907 96.6012V108.862ZM35.7095 91.7761C40.959 91.0176 46.2315 90.4714 51.514 90.1373V77.8766C46.2315 78.2106 40.959 78.7569 35.7095 79.5154V91.7761ZM56.0978 89.9008C61.3639 89.6903 66.6363 89.6903 71.9024 89.9008V77.6401C66.6363 77.4295 61.3639 77.4295 56.0978 77.64V89.9008ZM71.9024 72.815C66.6363 72.6045 61.3639 72.6045 56.0978 72.815V43.4681C61.3639 43.2576 66.6363 43.2576 71.9024 43.4681V72.815ZM76.4861 90.1373C81.7687 90.4714 87.0412 91.0176 92.2907 91.7761V79.5154C87.0412 78.7569 81.7687 78.2106 76.4861 77.8766V90.1373ZM92.2907 74.6903C87.0412 73.9319 81.7687 73.3856 76.4861 73.0515V43.7047C81.7687 44.0387 87.0412 44.585 92.2907 45.3435V74.6903ZM51.514 43.7047C46.2315 44.0387 40.959 44.585 35.7095 45.3435V74.6903C40.959 73.9318 46.2315 73.3856 51.514 73.0515V43.7047ZM35.7095 40.5184C40.959 39.7599 46.2315 39.2137 51.514 38.8796V26.6189C46.2315 26.9529 40.959 27.4992 35.7095 28.2577V40.5184ZM56.0978 38.6431C61.3639 38.4326 66.6363 38.4326 71.9024 38.6431V26.3824C66.6363 26.1718 61.3639 26.1718 56.0978 26.3824V38.6431ZM76.4861 38.8796C81.7687 39.2137 87.0412 39.7599 92.2907 40.5184V28.2577C87.0412 27.4992 81.7687 26.9529 76.4861 26.6189V38.8796Z" fill="url(#paint1_linear_21_201)" fill-opacity="0.3" style=""/>
<path fill-rule="evenodd" clip-rule="evenodd" d="M101.966 64.3602C101.003 63.8786 99.9599 63.5259 98.8558 63.3264C75.8052 59.1617 52.1948 59.1617 29.1443 63.3264C28.0402 63.5259 26.9966 63.8786 26.0339 64.3602V59.579C26.9966 59.0974 28.0402 58.7447 29.1443 58.5452C52.1948 54.3804 75.8052 54.3804 98.8558 58.5452C99.9599 58.7447 101.003 59.0974 101.966 59.579V64.3602Z" fill="url(#paint2_radial_21_201)" style=""/>
<path d="M49.1139 46.129H44.7793V29.4205L39.6047 31.0254V27.5007L48.6489 24.2609H49.1139V46.129Z" fill="black" style="fill:black;fill-opacity:1;"/>
<path d="M49.1139 46.129H44.7793V29.4205L39.6047 31.0254V27.5007L48.6489 24.2609H49.1139V46.129Z" fill="#FF2028" style="fill:#FF2028;fill:color(display-p3 1.0000 0.1250 0.1585);fill-opacity:1;"/>
<path d="M70.3646 35.9768C70.3646 38.9965 69.7397 41.3063 68.4898 42.9062C67.2399 44.506 65.4101 45.3059 63.0003 45.3059C60.6205 45.3059 58.8007 44.521 57.5408 42.9511C56.2809 41.3813 55.6359 39.1315 55.6059 36.2017V32.1821C55.6059 29.1324 56.2359 26.8176 57.4958 25.2377C58.7657 23.6579 60.5905 22.8679 62.9703 22.8679C65.3501 22.8679 67.1699 23.6529 68.4298 25.2227C69.6897 26.7826 70.3346 29.0274 70.3646 31.9571V35.9768ZM66.03 31.5672C66.03 29.7573 65.78 28.4424 65.2801 27.6225C64.7901 26.7926 64.0202 26.3776 62.9703 26.3776C61.9504 26.3776 61.1954 26.7726 60.7055 27.5625C60.2255 28.3424 59.9706 29.5673 59.9406 31.2372V36.5467C59.9406 38.3266 60.1805 39.6514 60.6605 40.5214C61.1504 41.3813 61.9304 41.8112 63.0003 41.8112C64.0602 41.8112 64.8251 41.3963 65.2951 40.5664C65.765 39.7364 66.01 38.4665 66.03 36.7567V31.5672Z" fill="black" style="fill:black;fill-opacity:1;"/>
<path d="M70.3646 35.9768C70.3646 38.9965 69.7397 41.3063 68.4898 42.9062C67.2399 44.506 65.4101 45.3059 63.0003 45.3059C60.6205 45.3059 58.8007 44.521 57.5408 42.9511C56.2809 41.3813 55.6359 39.1315 55.6059 36.2017V32.1821C55.6059 29.1324 56.2359 26.8176 57.4958 25.2377C58.7657 23.6579 60.5905 22.8679 62.9703 22.8679C65.3501 22.8679 67.1699 23.6529 68.4298 25.2227C69.6897 26.7826 70.3346 29.0274 70.3646 31.9571V35.9768ZM66.03 31.5672C66.03 29.7573 65.78 28.4424 65.2801 27.6225C64.7901 26.7926 64.0202 26.3776 62.9703 26.3776C61.9504 26.3776 61.1954 26.7726 60.7055 27.5625C60.2255 28.3424 59.9706 29.5673 59.9406 31.2372V36.5467C59.9406 38.3266 60.1805 39.6514 60.6605 40.5214C61.1504 41.3813 61.9304 41.8112 63.0003 41.8112C64.0602 41.8112 64.8251 41.3963 65.2951 40.5664C65.765 39.7364 66.01 38.4665 66.03 36.7567V31.5672Z" fill="#FF2028" style="fill:#FF2028;fill:color(display-p3 1.0000 0.1250 0.1585);fill-opacity:1;"/>
<path d="M84.0008 37.3998C82.8709 38.5097 81.551 39.0646 80.0412 39.0646C78.1113 39.0646 76.5665 38.4047 75.4066 37.0848C74.2467 35.7549 73.6667 33.9651 73.6667 31.7153C73.6667 30.2854 73.9767 28.9755 74.5966 27.7856C75.2266 26.5857 76.1015 25.6558 77.2214 24.9959C78.3413 24.3259 79.6012 23.991 81.0011 23.991C82.441 23.991 83.7208 24.3509 84.8407 25.0709C85.9606 25.7908 86.8306 26.8257 87.4505 28.1756C88.0705 29.5255 88.3854 31.0703 88.3954 32.8102V34.4151C88.3954 38.0547 87.4905 40.9145 85.6807 42.9943C83.8708 45.0741 81.3061 46.184 77.9863 46.324L76.9214 46.339V42.7243L77.8814 42.7093C81.651 42.5393 83.6908 40.7695 84.0008 37.3998ZM81.1061 35.7499C81.806 35.7499 82.406 35.57 82.9059 35.21C83.4159 34.85 83.8008 34.4151 84.0608 33.9051V32.1203C84.0608 30.6504 83.7808 29.5105 83.2209 28.7006C82.6609 27.8906 81.911 27.4857 80.9711 27.4857C80.1012 27.4857 79.3862 27.8856 78.8263 28.6856C78.2663 29.4755 77.9863 30.4704 77.9863 31.6703C77.9863 32.8602 78.2563 33.8401 78.7963 34.61C79.3462 35.37 80.1162 35.7499 81.1061 35.7499Z" fill="black" style="fill:black;fill-opacity:1;"/>
<path d="M84.0008 37.3998C82.8709 38.5097 81.551 39.0646 80.0412 39.0646C78.1113 39.0646 76.5665 38.4047 75.4066 37.0848C74.2467 35.7549 73.6667 33.9651 73.6667 31.7153C73.6667 30.2854 73.9767 28.9755 74.5966 27.7856C75.2266 26.5857 76.1015 25.6558 77.2214 24.9959C78.3413 24.3259 79.6012 23.991 81.0011 23.991C82.441 23.991 83.7208 24.3509 84.8407 25.0709C85.9606 25.7908 86.8306 26.8257 87.4505 28.1756C88.0705 29.5255 88.3854 31.0703 88.3954 32.8102V34.4151C88.3954 38.0547 87.4905 40.9145 85.6807 42.9943C83.8708 45.0741 81.3061 46.184 77.9863 46.324L76.9214 46.339V42.7243L77.8814 42.7093C81.651 42.5393 83.6908 40.7695 84.0008 37.3998ZM81.1061 35.7499C81.806 35.7499 82.406 35.57 82.9059 35.21C83.4159 34.85 83.8008 34.4151 84.0608 33.9051V32.1203C84.0608 30.6504 83.7808 29.5105 83.2209 28.7006C82.6609 27.8906 81.911 27.4857 80.9711 27.4857C80.1012 27.4857 79.3862 27.8856 78.8263 28.6856C78.2663 29.4755 77.9863 30.4704 77.9863 31.6703C77.9863 32.8602 78.2563 33.8401 78.7963 34.61C79.3462 35.37 80.1162 35.7499 81.1061 35.7499Z" fill="#FF2028" style="fill:#FF2028;fill:color(display-p3 1.0000 0.1250 0.1585);fill-opacity:1;"/>
</g>
<defs>
<radialGradient id="paint0_radial_21_201" cx="0" cy="0" r="1" gradientUnits="userSpaceOnUse" gradientTransform="translate(65.054 11.9324) rotate(90) scale(89.9018 96.4913)">
<stop stop-color="#E1EEF1" style="stop-color:#E1EEF1;stop-color:color(display-p3 0.8828 0.9345 0.9458);stop-opacity:1;"/>
<stop offset="0.5278" stop-color="#E3F2F5" style="stop-color:#E3F2F5;stop-color:color(display-p3 0.8903 0.9495 0.9625);stop-opacity:1;"/>
<stop offset="1" stop-color="#BFCFD2" style="stop-color:#BFCFD2;stop-color:color(display-p3 0.7494 0.8114 0.8250);stop-opacity:1;"/>
</radialGradient>
<linearGradient id="paint1_linear_21_201" x1="64.0001" y1="21.3994" x2="64.0001" y2="115.849" gradientUnits="userSpaceOnUse">
<stop stop-color="#BCC8CA" style="stop-color:#BCC8CA;stop-color:color(display-p3 0.7373 0.7843 0.7922);stop-opacity:1;"/>
<stop offset="1" stop-color="#83999D" style="stop-color:#83999D;stop-color:color(display-p3 0.5137 0.6000 0.6157);stop-opacity:1;"/>
</linearGradient>
<radialGradient id="paint2_radial_21_201" cx="0" cy="0" r="1" gradientUnits="userSpaceOnUse" gradientTransform="translate(65.2309 59.6649) rotate(90) scale(81.3125 112.683)">
<stop stop-color="#384351" style="stop-color:#384351;stop-color:color(display-p3 0.2177 0.2627 0.3167);stop-opacity:1;"/>
<stop offset="0.5278" stop-color="#13181F" style="stop-color:#13181F;stop-color:color(display-p3 0.0740 0.0955 0.1208);stop-opacity:1;"/>
<stop offset="1" stop-color="#063771" style="stop-color:#063771;stop-color:color(display-p3 0.0221 0.2151 0.4417);stop-opacity:1;"/>
</radialGradient>
<clipPath id="clip0_21_201">
<rect width="128" height="128" fill="white" style="fill:white;fill-opacity:1;"/>
</clipPath>
</defs>
</svg>
