<svg width="128" height="129" viewBox="0 0 128 129" fill="none" xmlns="http://www.w3.org/2000/svg">
<path d="M117.306 32.9384C117.926 32.151 117.074 31.0854 116.129 31.4191C114.415 32.0244 112.655 32.5308 110.854 32.9325C109.8 33.1676 109.191 31.6495 109.987 30.9201C112.219 28.8743 114.042 26.3928 115.314 23.6103C115.696 22.7742 114.78 22.0093 113.962 22.4302C110.33 24.3005 106.416 25.704 102.299 26.5611C101.963 26.631 101.617 26.5178 101.376 26.2741C97.2319 22.0931 91.4564 19.5 85.0853 19.5C72.4697 19.5 62.2418 29.6657 62.2418 42.2043C62.2418 43.5242 62.3532 44.8185 62.5696 46.0771C62.6823 46.7326 62.1704 47.3454 61.507 47.2989C43.5742 46.0425 27.6553 37.5586 16.6732 24.7555C16.22 24.2272 15.3781 24.2946 15.0648 24.9161C13.5249 27.9716 12.6582 31.4208 12.6582 35.0706C12.6582 41.6914 15.5075 47.657 20.056 51.809C20.7994 52.4877 20.3224 53.7758 19.3329 53.5912C16.9837 53.1529 14.7603 52.3565 12.7244 51.2653C12.6103 51.2041 12.4721 51.2848 12.4721 51.4143C12.4721 60.9315 18.3655 69.0835 26.7216 72.4596C27.7011 72.8554 27.6596 74.3189 26.6064 74.4019C26.0031 74.4494 25.3931 74.4736 24.7774 74.4736C23.8854 74.4736 23.0083 74.4214 22.1453 74.3213C21.3912 74.2338 20.7702 74.9465 21.0567 75.6495C24.057 83.0136 30.8373 88.4568 39.002 89.611C39.9353 89.7429 40.3143 90.9694 39.5366 91.5021C32.1218 96.5807 23.1345 99.5537 13.4491 99.5537C13.0822 99.5537 12.7162 99.5494 12.3513 99.541C11.2893 99.5163 10.8233 100.948 11.7552 101.458C21.0309 106.534 31.6787 109.437 43.016 109.437C85.032 109.437 108.008 74.8404 108.008 44.8371C108.008 44.0351 107.993 43.2365 107.964 42.4417C107.952 42.1037 108.108 41.7816 108.381 41.5813C111.73 39.1179 114.737 36.2017 117.306 32.9384Z" fill="#6ABEFE" style="fill:#6ABEFE;fill:color(display-p3 0.4149 0.7452 0.9958);fill-opacity:1;"/>
</svg>
