<svg width="128" height="128" viewBox="0 0 128 128" fill="none" xmlns="http://www.w3.org/2000/svg">
<path d="M63.6 7C91.5 7 121.6 24.5 121.6 62.9C121.6 101.3 91.5 118.8 63.6 118.8C48.1 118.8 33.8 113.7 23.2 104.4C11.7 94.2 5.59998 79.8 5.59998 62.9C5.59998 46 11.7 31.7 23.2 21.5C33.8 12.2 48.2 7 63.6 7Z" fill="url(#paint0_radial_169_11671)" style=""/>
<path d="M63.6 7C91.5 7 121.6 24.5 121.6 62.9C121.6 101.3 91.5 118.8 63.6 118.8C48.1 118.8 33.8 113.7 23.2 104.4C11.7 94.2 5.59998 79.8 5.59998 62.9C5.59998 46 11.7 31.7 23.2 21.5C33.8 12.2 48.2 7 63.6 7Z" fill="url(#paint1_radial_169_11671)" style=""/>
<path d="M63.6 7C91.5 7 121.6 24.5 121.6 62.9C121.6 101.3 91.5 118.8 63.6 118.8C48.1 118.8 33.8 113.7 23.2 104.4C11.7 94.2 5.59998 79.8 5.59998 62.9C5.59998 46 11.7 31.7 23.2 21.5C33.8 12.2 48.2 7 63.6 7Z" fill="url(#paint2_radial_169_11671)" style=""/>
<path d="M63.6 7C91.5 7 121.6 24.5 121.6 62.9C121.6 101.3 91.5 118.8 63.6 118.8C48.1 118.8 33.8 113.7 23.2 104.4C11.7 94.2 5.59998 79.8 5.59998 62.9C5.59998 46 11.7 31.7 23.2 21.5C33.8 12.2 48.2 7 63.6 7Z" fill="url(#paint3_radial_169_11671)" style=""/>
<path d="M83.16 84.86C87.35 84.86 91.16 81.32 91.16 75.44C91.16 69.57 87.35 66.02 83.16 66.02C78.97 66.02 75.16 69.56 75.16 75.44C75.16 81.32 78.96 84.86 83.16 84.86Z" fill="#42312C" style="fill:#42312C;fill:color(display-p3 0.2588 0.1922 0.1725);fill-opacity:1;"/>
<path d="M83.16 84.86C87.35 84.86 91.16 81.32 91.16 75.44C91.16 69.57 87.35 66.02 83.16 66.02C78.97 66.02 75.16 69.56 75.16 75.44C75.16 81.32 78.96 84.86 83.16 84.86Z" fill="#42312C" style="fill:#42312C;fill:color(display-p3 0.2588 0.1922 0.1725);fill-opacity:1;"/>
<path d="M83.55 80.93C84.58 81.65 86.13 81.42 87.13 79.98C88.13 78.53 87.8 77.01 86.77 76.29C85.74 75.57 84.19 75.8 83.19 77.24C82.19 78.68 82.51 80.21 83.55 80.93Z" fill="#654F48" style="fill:#654F48;fill:color(display-p3 0.3958 0.3092 0.2837);fill-opacity:1;"/>
<path d="M83.55 80.93C84.58 81.65 86.13 81.42 87.13 79.98C88.13 78.53 87.8 77.01 86.77 76.29C85.74 75.57 84.19 75.8 83.19 77.24C82.19 78.68 82.51 80.21 83.55 80.93Z" fill="#555050" style="fill:#555050;fill:color(display-p3 0.3333 0.3125 0.3125);fill-opacity:1;"/>
<path d="M44.8 84.86C48.99 84.86 52.8 81.32 52.8 75.44C52.8 69.57 48.99 66.02 44.8 66.02C40.61 66.02 36.8 69.56 36.8 75.44C36.8 81.32 40.61 84.86 44.8 84.86Z" fill="#42312C" style="fill:#42312C;fill:color(display-p3 0.2588 0.1922 0.1725);fill-opacity:1;"/>
<path d="M44.8 84.86C48.99 84.86 52.8 81.32 52.8 75.44C52.8 69.57 48.99 66.02 44.8 66.02C40.61 66.02 36.8 69.56 36.8 75.44C36.8 81.32 40.61 84.86 44.8 84.86Z" fill="#42312C" style="fill:#42312C;fill:color(display-p3 0.2588 0.1922 0.1725);fill-opacity:1;"/>
<path d="M45.19 80.93C46.22 81.65 47.77 81.42 48.77 79.98C49.77 78.54 49.44 77.01 48.41 76.29C47.38 75.57 45.83 75.8 44.83 77.24C43.83 78.68 44.16 80.21 45.19 80.93Z" fill="#654F48" style="fill:#654F48;fill:color(display-p3 0.3958 0.3092 0.2837);fill-opacity:1;"/>
<path d="M45.19 80.93C46.22 81.65 47.77 81.42 48.77 79.98C49.77 78.54 49.44 77.01 48.41 76.29C47.38 75.57 45.83 75.8 44.83 77.24C43.83 78.68 44.16 80.21 45.19 80.93Z" fill="#555050" style="fill:#555050;fill:color(display-p3 0.3333 0.3125 0.3125);fill-opacity:1;"/>
<path d="M64.18 34.19C74.87 34.19 83.33 39.26 88 44.67C88.47 45.21 88.58 45.95 88.28 46.59C87.98 47.24 87.34 47.67 86.63 47.67C86.31 47.67 86 47.58 85.71 47.42C80.9 44.65 72.83 41.21 64.2 41.21H64.06C55.43 41.21 47.36 44.64 42.55 47.42C42.26 47.58 41.95 47.67 41.63 47.67C40.93 47.67 40.28 47.24 39.98 46.59C39.69 45.95 39.8 45.21 40.26 44.67C44.93 39.25 53.39 34.19 64.08 34.19" fill="#42312C" style="fill:#42312C;fill:color(display-p3 0.2588 0.1922 0.1725);fill-opacity:1;"/>
<path d="M64.18 34.19C74.87 34.19 83.33 39.26 88 44.67C88.47 45.21 88.58 45.95 88.28 46.59C87.98 47.24 87.34 47.67 86.63 47.67C86.31 47.67 86 47.58 85.71 47.42C80.9 44.65 72.83 41.21 64.2 41.21H64.06C55.43 41.21 47.36 44.64 42.55 47.42C42.26 47.58 41.95 47.67 41.63 47.67C40.93 47.67 40.28 47.24 39.98 46.59C39.69 45.95 39.8 45.21 40.26 44.67C44.93 39.25 53.39 34.19 64.08 34.19" fill="#42312C" style="fill:#42312C;fill:color(display-p3 0.2588 0.1922 0.1725);fill-opacity:1;"/>
<path d="M111.49 29.67C116.82 38.27 119.6 48.51 119.6 59.9C119.6 76.8 113.5 91.1 102 101.3C91.4 110.6 77 115.8 61.6 115.8C43.54 115.8 24.56 108.45 13.42 92.86C24.18 110.52 44.41 118.8 63.6 118.8C79 118.8 93.4 113.6 104 104.3C115.5 94.1 121.6 79.8 121.6 62.9C121.6 50.16 118.13 38.84 111.49 29.67Z" fill="#EB8F00" style="fill:#EB8F00;fill:color(display-p3 0.9216 0.5608 0.0000);fill-opacity:1;"/>
<path d="M111.49 29.67C116.82 38.27 119.6 48.51 119.6 59.9C119.6 76.8 113.5 91.1 102 101.3C91.4 110.6 77 115.8 61.6 115.8C43.54 115.8 24.56 108.45 13.42 92.86C24.18 110.52 44.41 118.8 63.6 118.8C79 118.8 93.4 113.6 104 104.3C115.5 94.1 121.6 79.8 121.6 62.9C121.6 50.16 118.13 38.84 111.49 29.67Z" fill="#F3B872" style="fill:#F3B872;fill:color(display-p3 0.9542 0.7229 0.4453);fill-opacity:1;"/>
<path d="M111.49 29.67C116.82 38.27 119.6 48.51 119.6 59.9C119.6 76.8 113.5 91.1 102 101.3C91.4 110.6 77 115.8 61.6 115.8C43.54 115.8 24.56 108.45 13.42 92.86C24.18 110.52 44.41 118.8 63.6 118.8C79 118.8 93.4 113.6 104 104.3C115.5 94.1 121.6 79.8 121.6 62.9C121.6 50.16 118.13 38.84 111.49 29.67Z" fill="#4A2F27" style="fill:#4A2F27;fill:color(display-p3 0.2902 0.1843 0.1529);fill-opacity:1;"/>
<defs>
<radialGradient id="paint0_radial_169_11671" cx="0" cy="0" r="1" gradientUnits="userSpaceOnUse" gradientTransform="translate(63.6 62.9) rotate(180) scale(56.9597 56.9597)">
<stop offset="0.5" stop-color="#FDE030" style="stop-color:#FDE030;stop-color:color(display-p3 0.9922 0.8784 0.1882);stop-opacity:1;"/>
<stop offset="0.9188" stop-color="#F7C02B" style="stop-color:#F7C02B;stop-color:color(display-p3 0.9686 0.7529 0.1686);stop-opacity:1;"/>
<stop offset="1" stop-color="#F4A223" style="stop-color:#F4A223;stop-color:color(display-p3 0.9569 0.6353 0.1373);stop-opacity:1;"/>
</radialGradient>
<radialGradient id="paint1_radial_169_11671" cx="0" cy="0" r="1" gradientUnits="userSpaceOnUse" gradientTransform="translate(38.599 34.5377) rotate(-43.2082) scale(102.024 101.825)">
<stop offset="0.3533" stop-color="#F9DDBD" style="stop-color:#F9DDBD;stop-color:color(display-p3 0.9765 0.8667 0.7412);stop-opacity:1;"/>
<stop offset="0.8723" stop-color="#FFD29C" style="stop-color:#FFD29C;stop-color:color(display-p3 1.0000 0.8235 0.6118);stop-opacity:1;"/>
</radialGradient>
<radialGradient id="paint2_radial_169_11671" cx="0" cy="0" r="1" gradientUnits="userSpaceOnUse" gradientTransform="translate(38.599 34.5377) rotate(-43.2082) scale(102.024 101.825)">
<stop offset="0.3533" stop-color="#70534A" style="stop-color:#70534A;stop-color:color(display-p3 0.4392 0.3255 0.2902);stop-opacity:1;"/>
<stop offset="0.8723" stop-color="#5C4037" style="stop-color:#5C4037;stop-color:color(display-p3 0.3608 0.2510 0.2157);stop-opacity:1;"/>
</radialGradient>
<radialGradient id="paint3_radial_169_11671" cx="0" cy="0" r="1" gradientUnits="userSpaceOnUse" gradientTransform="translate(38.599 34.5377) rotate(-43.2082) scale(102.024 101.825)">
<stop offset="0.3533" stop-color="#A56C43" style="stop-color:#A56C43;stop-color:color(display-p3 0.6471 0.4235 0.2627);stop-opacity:1;"/>
<stop offset="0.8723" stop-color="#8D5738" style="stop-color:#8D5738;stop-color:color(display-p3 0.5529 0.3412 0.2196);stop-opacity:1;"/>
</radialGradient>
</defs>
</svg>
