<svg width="128" height="128" viewBox="0 0 128 128" fill="none" xmlns="http://www.w3.org/2000/svg">
<path d="M63.6001 118.8C35.7001 118.8 5.6001 101.3 5.6001 62.9C5.6001 24.5 35.7001 7 63.6001 7C79.1001 7 93.4001 12.1 104 21.4C115.5 31.6 121.6 46 121.6 62.9C121.6 79.8 115.5 94.1 104 104.3C93.4001 113.6 79.0001 118.8 63.6001 118.8Z" fill="url(#paint0_radial_169_13524)" style=""/>
<path d="M63.6001 118.8C35.7001 118.8 5.6001 101.3 5.6001 62.9C5.6001 24.5 35.7001 7 63.6001 7C79.1001 7 93.4001 12.1 104 21.4C115.5 31.6 121.6 46 121.6 62.9C121.6 79.8 115.5 94.1 104 104.3C93.4001 113.6 79.0001 118.8 63.6001 118.8Z" fill="url(#paint1_radial_169_13524)" style=""/>
<path d="M63.6001 118.8C35.7001 118.8 5.6001 101.3 5.6001 62.9C5.6001 24.5 35.7001 7 63.6001 7C79.1001 7 93.4001 12.1 104 21.4C115.5 31.6 121.6 46 121.6 62.9C121.6 79.8 115.5 94.1 104 104.3C93.4001 113.6 79.0001 118.8 63.6001 118.8Z" fill="url(#paint2_radial_169_13524)" style=""/>
<path d="M63.6001 118.8C35.7001 118.8 5.6001 101.3 5.6001 62.9C5.6001 24.5 35.7001 7 63.6001 7C79.1001 7 93.4001 12.1 104 21.4C115.5 31.6 121.6 46 121.6 62.9C121.6 79.8 115.5 94.1 104 104.3C93.4001 113.6 79.0001 118.8 63.6001 118.8Z" fill="url(#paint3_radial_169_13524)" style=""/>
<path d="M63.6001 118.8C35.7001 118.8 5.6001 101.3 5.6001 62.9C5.6001 24.5 35.7001 7 63.6001 7C79.1001 7 93.4001 12.1 104 21.4C115.5 31.6 121.6 46 121.6 62.9C121.6 79.8 115.5 94.1 104 104.3C93.4001 113.6 79.0001 118.8 63.6001 118.8Z" fill="url(#paint4_radial_169_13524)" style=""/>
<path d="M111.49 29.67C116.82 38.27 119.6 48.51 119.6 59.9C119.6 76.8 113.5 91.1 102 101.3C91.3999 110.6 76.9999 115.8 61.5999 115.8C43.5399 115.8 24.5999 108.45 13.4199 92.86C24.1799 110.52 44.4199 118.8 63.5999 118.8C78.9999 118.8 93.3999 113.6 104 104.3C115.5 94.1001 121.6 79.8 121.6 62.9C121.6 50.16 118.13 38.84 111.49 29.67Z" fill="#EB8F00" style="fill:#EB8F00;fill:color(display-p3 0.9216 0.5608 0.0000);fill-opacity:1;"/>
<path d="M111.49 29.67C116.82 38.27 119.6 48.51 119.6 59.9C119.6 76.8 113.5 91.1 102 101.3C91.3999 110.6 76.9999 115.8 61.5999 115.8C43.5399 115.8 24.5999 108.45 13.4199 92.86C24.1799 110.52 44.4199 118.8 63.5999 118.8C78.9999 118.8 93.3999 113.6 104 104.3C115.5 94.1001 121.6 79.8 121.6 62.9C121.6 50.16 118.13 38.84 111.49 29.67Z" fill="#F3B872" style="fill:#F3B872;fill:color(display-p3 0.9542 0.7229 0.4453);fill-opacity:1;"/>
<path d="M111.49 29.67C116.82 38.27 119.6 48.51 119.6 59.9C119.6 76.8 113.5 91.1 102 101.3C91.3999 110.6 76.9999 115.8 61.5999 115.8C43.5399 115.8 24.5999 108.45 13.4199 92.86C24.1799 110.52 44.4199 118.8 63.5999 118.8C78.9999 118.8 93.3999 113.6 104 104.3C115.5 94.1001 121.6 79.8 121.6 62.9C121.6 50.16 118.13 38.84 111.49 29.67Z" fill="#91674D" style="fill:#91674D;fill:color(display-p3 0.5686 0.4039 0.3020);fill-opacity:1;"/>
<path d="M82.5599 92.85C82.5599 100.43 74.2499 104.85 63.9999 104.85C53.7499 104.85 45.4399 100.4 45.4399 92.85C45.4399 85.3 53.7499 77 63.9999 77C74.2499 77 82.5599 85.27 82.5599 92.85Z" fill="#49362E" style="fill:#49362E;fill:color(display-p3 0.2863 0.2118 0.1804);fill-opacity:1;"/>
<path d="M82.5599 92.85C82.5599 100.43 74.2499 104.85 63.9999 104.85C53.7499 104.85 45.4399 100.4 45.4399 92.85C45.4399 85.3 53.7499 77 63.9999 77C74.2499 77 82.5599 85.27 82.5599 92.85Z" fill="#1A1717" style="fill:#1A1717;fill:color(display-p3 0.1020 0.0902 0.0902);fill-opacity:1;"/>
<path d="M82.5599 92.85C82.5599 100.43 74.2499 104.85 63.9999 104.85C53.7499 104.85 45.4399 100.4 45.4399 92.85C45.4399 85.3 53.7499 77 63.9999 77C74.2499 77 82.5599 85.27 82.5599 92.85Z" fill="#5D4037" style="fill:#5D4037;fill:color(display-p3 0.3647 0.2510 0.2157);fill-opacity:1;"/>
<path d="M46.27 56.6001L54.73 48.7301C55.93 47.2401 56.11 45.2301 54.9 44.0301C53.31 42.4301 50.49 42.8201 48.96 44.6401C48.88 44.7901 48.82 44.8301 48.74 44.9801L42.74 53.7001L34.62 46.1301C34.5 46.0001 34.43 45.9801 34.32 45.8501C32.43 44.4101 29.59 44.6501 28.4 46.5601C27.47 48.0001 28.09 49.9101 29.59 51.1101L40 57.2801L31.18 65.5301C30 67.0001 29.78 69.0001 31 70.2301C32.58 71.8401 35.4 71.4701 36.94 69.6601C37.02 69.5101 37.08 69.4701 37.17 69.3201L43.49 60.1801L51.17 67.4201C51.29 67.5501 51.36 67.5801 51.47 67.7101C53.35 69.1601 56.19 68.9401 57.4 67.0401C58.33 65.6001 57.72 63.6801 56.23 62.4801L46.27 56.6001Z" fill="#49362E" style="fill:#49362E;fill:color(display-p3 0.2863 0.2118 0.1804);fill-opacity:1;"/>
<path d="M46.27 56.6001L54.73 48.7301C55.93 47.2401 56.11 45.2301 54.9 44.0301C53.31 42.4301 50.49 42.8201 48.96 44.6401C48.88 44.7901 48.82 44.8301 48.74 44.9801L42.74 53.7001L34.62 46.1301C34.5 46.0001 34.43 45.9801 34.32 45.8501C32.43 44.4101 29.59 44.6501 28.4 46.5601C27.47 48.0001 28.09 49.9101 29.59 51.1101L40 57.2801L31.18 65.5301C30 67.0001 29.78 69.0001 31 70.2301C32.58 71.8401 35.4 71.4701 36.94 69.6601C37.02 69.5101 37.08 69.4701 37.17 69.3201L43.49 60.1801L51.17 67.4201C51.29 67.5501 51.36 67.5801 51.47 67.7101C53.35 69.1601 56.19 68.9401 57.4 67.0401C58.33 65.6001 57.72 63.6801 56.23 62.4801L46.27 56.6001Z" fill="#1A1717" style="fill:#1A1717;fill:color(display-p3 0.1020 0.0902 0.0902);fill-opacity:1;"/>
<path d="M46.27 56.6001L54.73 48.7301C55.93 47.2401 56.11 45.2301 54.9 44.0301C53.31 42.4301 50.49 42.8201 48.96 44.6401C48.88 44.7901 48.82 44.8301 48.74 44.9801L42.74 53.7001L34.62 46.1301C34.5 46.0001 34.43 45.9801 34.32 45.8501C32.43 44.4101 29.59 44.6501 28.4 46.5601C27.47 48.0001 28.09 49.9101 29.59 51.1101L40 57.2801L31.18 65.5301C30 67.0001 29.78 69.0001 31 70.2301C32.58 71.8401 35.4 71.4701 36.94 69.6601C37.02 69.5101 37.08 69.4701 37.17 69.3201L43.49 60.1801L51.17 67.4201C51.29 67.5501 51.36 67.5801 51.47 67.7101C53.35 69.1601 56.19 68.9401 57.4 67.0401C58.33 65.6001 57.72 63.6801 56.23 62.4801L46.27 56.6001Z" fill="#49362E" style="fill:#49362E;fill:color(display-p3 0.2863 0.2118 0.1804);fill-opacity:1;"/>
<path d="M84.7502 56.6001L76.2902 48.7301C75.0902 47.2401 74.9102 45.2301 76.1302 44.0301C77.7202 42.4301 80.5302 42.8201 82.0602 44.6401C82.1402 44.7901 82.2102 44.8301 82.2902 44.9801L88.2902 53.7001L96.4202 46.1301C96.5302 46.0001 96.6002 45.9801 96.7102 45.8501C98.6102 44.4101 101.44 44.6501 102.64 46.5601C103.56 48.0001 102.94 49.9101 101.44 51.1101L91.0002 57.2801L99.8202 65.5301C101.03 67.0201 101.23 69.0201 100.01 70.2301C98.4402 71.8401 95.6202 71.4701 94.0802 69.6601C93.9902 69.5101 93.9302 69.4701 93.8502 69.3201L87.5302 60.1801L79.8402 67.4201C79.7302 67.5501 79.6602 67.5801 79.5402 67.7101C77.6602 69.1601 74.8302 68.9401 73.6202 67.0401C72.6802 65.6001 73.2902 63.6801 74.7802 62.4801L84.7502 56.6001Z" fill="#49362E" style="fill:#49362E;fill:color(display-p3 0.2863 0.2118 0.1804);fill-opacity:1;"/>
<path d="M84.7502 56.6001L76.2902 48.7301C75.0902 47.2401 74.9102 45.2301 76.1302 44.0301C77.7202 42.4301 80.5302 42.8201 82.0602 44.6401C82.1402 44.7901 82.2102 44.8301 82.2902 44.9801L88.2902 53.7001L96.4202 46.1301C96.5302 46.0001 96.6002 45.9801 96.7102 45.8501C98.6102 44.4101 101.44 44.6501 102.64 46.5601C103.56 48.0001 102.94 49.9101 101.44 51.1101L91.0002 57.2801L99.8202 65.5301C101.03 67.0201 101.23 69.0201 100.01 70.2301C98.4402 71.8401 95.6202 71.4701 94.0802 69.6601C93.9902 69.5101 93.9302 69.4701 93.8502 69.3201L87.5302 60.1801L79.8402 67.4201C79.7302 67.5501 79.6602 67.5801 79.5402 67.7101C77.6602 69.1601 74.8302 68.9401 73.6202 67.0401C72.6802 65.6001 73.2902 63.6801 74.7802 62.4801L84.7502 56.6001Z" fill="#1A1717" style="fill:#1A1717;fill:color(display-p3 0.1020 0.0902 0.0902);fill-opacity:1;"/>
<path d="M84.7502 56.6001L76.2902 48.7301C75.0902 47.2401 74.9102 45.2301 76.1302 44.0301C77.7202 42.4301 80.5302 42.8201 82.0602 44.6401C82.1402 44.7901 82.2102 44.8301 82.2902 44.9801L88.2902 53.7001L96.4202 46.1301C96.5302 46.0001 96.6002 45.9801 96.7102 45.8501C98.6102 44.4101 101.44 44.6501 102.64 46.5601C103.56 48.0001 102.94 49.9101 101.44 51.1101L91.0002 57.2801L99.8202 65.5301C101.03 67.0201 101.23 69.0201 100.01 70.2301C98.4402 71.8401 95.6202 71.4701 94.0802 69.6601C93.9902 69.5101 93.9302 69.4701 93.8502 69.3201L87.5302 60.1801L79.8402 67.4201C79.7302 67.5501 79.6602 67.5801 79.5402 67.7101C77.6602 69.1601 74.8302 68.9401 73.6202 67.0401C72.6802 65.6001 73.2902 63.6801 74.7802 62.4801L84.7502 56.6001Z" fill="#49362E" style="fill:#49362E;fill:color(display-p3 0.2863 0.2118 0.1804);fill-opacity:1;"/>
<path d="M45.6 28.9C47.9 29.1 48.8 26 46.4 25.3C44.51 24.79 42.55 24.5901 40.6 24.7001C35.31 24.9001 30.3 27.12 26.6 30.9C24.9 32.7 27.3 34.9 29.1 33.6C33.92 30.23 39.73 28.57 45.6 28.9Z" fill="#49362E" style="fill:#49362E;fill:color(display-p3 0.2863 0.2118 0.1804);fill-opacity:1;"/>
<path d="M45.6 28.9C47.9 29.1 48.8 26 46.4 25.3C44.51 24.79 42.55 24.5901 40.6 24.7001C35.31 24.9001 30.3 27.12 26.6 30.9C24.9 32.7 27.3 34.9 29.1 33.6C33.92 30.23 39.73 28.57 45.6 28.9Z" fill="#613E31" style="fill:#613E31;fill:color(display-p3 0.3804 0.2431 0.1922);fill-opacity:1;"/>
<path d="M82.2 28.9C88.1 28.56 93.95 30.21 98.8 33.6C100.6 34.9 103 32.7 101.3 30.9C97.59 27.14 92.58 24.9201 87.3 24.7001C85.35 24.5901 83.39 24.79 81.5 25.3C80.52 25.58 79.95 26.59 80.23 27.57C80.47 28.44 81.31 29 82.2 28.9Z" fill="#49362E" style="fill:#49362E;fill:color(display-p3 0.2863 0.2118 0.1804);fill-opacity:1;"/>
<path d="M82.2 28.9C88.1 28.56 93.95 30.21 98.8 33.6C100.6 34.9 103 32.7 101.3 30.9C97.59 27.14 92.58 24.9201 87.3 24.7001C85.35 24.5901 83.39 24.79 81.5 25.3C80.52 25.58 79.95 26.59 80.23 27.57C80.47 28.44 81.31 29 82.2 28.9Z" fill="#613E31" style="fill:#613E31;fill:color(display-p3 0.3804 0.2431 0.1922);fill-opacity:1;"/>
<defs>
<radialGradient id="paint0_radial_169_13524" cx="0" cy="0" r="1" gradientUnits="userSpaceOnUse" gradientTransform="translate(63.6001 62.9) scale(56.9597 56.9597)">
<stop offset="0.5" stop-color="#FDE030" style="stop-color:#FDE030;stop-color:color(display-p3 0.9922 0.8784 0.1882);stop-opacity:1;"/>
<stop offset="0.92" stop-color="#F7C02B" style="stop-color:#F7C02B;stop-color:color(display-p3 0.9686 0.7529 0.1686);stop-opacity:1;"/>
<stop offset="1" stop-color="#F4A223" style="stop-color:#F4A223;stop-color:color(display-p3 0.9569 0.6353 0.1373);stop-opacity:1;"/>
</radialGradient>
<radialGradient id="paint1_radial_169_13524" cx="0" cy="0" r="1" gradientUnits="userSpaceOnUse" gradientTransform="translate(38.5991 34.5377) rotate(-43.2082) scale(102.024 101.825)">
<stop offset="0.3533" stop-color="#F9DDBD" style="stop-color:#F9DDBD;stop-color:color(display-p3 0.9765 0.8667 0.7412);stop-opacity:1;"/>
<stop offset="0.8723" stop-color="#FFD29C" style="stop-color:#FFD29C;stop-color:color(display-p3 1.0000 0.8235 0.6118);stop-opacity:1;"/>
</radialGradient>
<radialGradient id="paint2_radial_169_13524" cx="0" cy="0" r="1" gradientUnits="userSpaceOnUse" gradientTransform="translate(38.5991 34.5377) rotate(-43.2082) scale(102.024 101.825)">
<stop offset="0.3533" stop-color="#70534A" style="stop-color:#70534A;stop-color:color(display-p3 0.4392 0.3255 0.2902);stop-opacity:1;"/>
<stop offset="0.8723" stop-color="#5C4037" style="stop-color:#5C4037;stop-color:color(display-p3 0.3608 0.2510 0.2157);stop-opacity:1;"/>
</radialGradient>
<radialGradient id="paint3_radial_169_13524" cx="0" cy="0" r="1" gradientUnits="userSpaceOnUse" gradientTransform="translate(38.5991 34.5377) rotate(-43.2082) scale(102.024 101.825)">
<stop offset="0.3533" stop-color="#A37A58" style="stop-color:#A37A58;stop-color:color(display-p3 0.6375 0.4772 0.3453);stop-opacity:1;"/>
<stop offset="0.8723" stop-color="#8D5738" style="stop-color:#8D5738;stop-color:color(display-p3 0.5529 0.3412 0.2196);stop-opacity:1;"/>
</radialGradient>
<radialGradient id="paint4_radial_169_13524" cx="0" cy="0" r="1" gradientUnits="userSpaceOnUse" gradientTransform="translate(38.5991 34.5377) rotate(-43.2082) scale(102.024 101.825)">
<stop offset="0.3533" stop-color="#AD8264" style="stop-color:#AD8264;stop-color:color(display-p3 0.6784 0.5098 0.3922);stop-opacity:1;"/>
<stop offset="0.8723" stop-color="#A47B62" style="stop-color:#A47B62;stop-color:color(display-p3 0.6431 0.4824 0.3843);stop-opacity:1;"/>
</radialGradient>
</defs>
</svg>
