<svg width="129" height="128" viewBox="0 0 129 128" fill="none" xmlns="http://www.w3.org/2000/svg">
<g filter="url(#filter0_i_911_485)">
<path d="M75.8399 74.48C76.0799 73.17 74.5499 72.22 73.4999 73.03C69.9999 75.73 66.0699 77.08 61.7099 77.08C55.1499 77.08 49.9199 74.78 46.0199 70.18C42.1199 65.58 40.1699 59.54 40.1699 52.05C40.1699 47.13 41.1599 42.67 43.1399 38.67C45.1199 34.67 47.9399 31.56 51.5999 29.34C55.2599 27.11 59.4999 26 64.3199 26C71.8399 26 77.8099 28.8 82.2199 34.41C86.6299 40.02 88.8399 47.52 88.8399 56.92V60.41C88.8399 73.88 85.7999 84.15 79.7099 91.23C73.6199 98.31 64.5399 101.9 52.4699 102C51.6499 102 50.9899 101.34 50.9899 100.52V93.18C50.9899 92.36 51.6499 91.7 52.4699 91.7H52.7799C60.1299 91.6 65.7699 89.83 69.6999 86.39C72.8599 83.62 74.9099 79.66 75.8399 74.48ZM64.5899 67.3C66.9599 67.25 69.1899 66.54 71.2799 65.17C71.2999 65.16 71.3199 65.14 71.3399 65.13C74.5199 63.02 76.2999 59.35 76.2999 55.53V54.45C76.2999 49 75.1799 44.62 72.9499 41.3C70.7199 37.98 67.8199 36.32 64.2699 36.32C60.7199 36.32 57.8799 37.78 55.7599 40.71C53.6399 43.64 52.5899 47.34 52.5899 51.81C52.5899 56.51 53.6899 60.29 55.8799 63.15C57.9299 65.83 61.2199 67.37 64.5899 67.3Z" fill="#606265" style="fill:#606265;fill:color(display-p3 0.3765 0.3843 0.3961);fill-opacity:1;"/>
<path fill-rule="evenodd" clip-rule="evenodd" d="M75.8399 74.48C76.0799 73.17 74.5499 72.22 73.4999 73.03C69.9999 75.73 66.0699 77.08 61.7099 77.08C55.1499 77.08 49.9199 74.78 46.0199 70.18C42.1199 65.58 40.1699 59.54 40.1699 52.05C40.1699 47.13 41.1599 42.67 43.1399 38.67C45.1199 34.67 47.9399 31.56 51.5999 29.34C55.2599 27.11 59.4999 26 64.3199 26C71.8399 26 77.8099 28.8 82.2199 34.41C86.6299 40.02 88.8399 47.52 88.8399 56.92V60.41C88.8399 73.88 85.7999 84.15 79.7099 91.23C73.6199 98.31 64.5399 101.9 52.4699 102C51.6499 102 50.9899 101.34 50.9899 100.52V93.18C50.9899 92.36 51.6499 91.7 52.4699 91.7H52.7799C60.1299 91.6 65.7699 89.83 69.6999 86.39C72.8599 83.62 74.9099 79.66 75.8399 74.48ZM68.3821 84.8856C70.874 82.701 72.6512 79.6039 73.6077 75.422C70.0415 77.852 66.06 79.08 61.7099 79.08C54.6207 79.08 48.8106 76.5643 44.4944 71.4734C40.2195 66.4312 38.1699 59.8957 38.1699 52.05C38.1699 46.8542 39.2175 42.0859 41.3475 37.7827C43.4881 33.4582 46.5628 30.0566 50.561 27.631C54.5731 25.1869 59.1821 24 64.3199 24C72.4137 24 78.9792 27.0512 83.7923 33.174C88.5556 39.2335 90.8399 47.2131 90.8399 56.92V60.41C90.8399 74.1502 87.7416 84.9596 81.2262 92.5342C74.6566 100.172 64.9532 103.897 52.4865 104L52.4782 104H52.4699C50.5453 104 48.9899 102.445 48.9899 100.52V93.18C48.9899 91.2554 50.5453 89.7 52.4699 89.7H52.7663C59.8253 89.6019 64.9335 87.9038 68.3821 84.8856ZM70.1709 63.5056C68.3809 64.6759 66.5177 65.2588 64.5484 65.3004C61.7984 65.3576 59.1208 64.095 57.4685 61.9349L57.4679 61.9341C55.6158 59.5154 54.5899 56.2029 54.5899 51.81C54.5899 47.6563 55.5621 44.3953 57.3803 41.8824C59.1307 39.4632 61.3725 38.32 64.2699 38.32C67.0628 38.32 69.3775 39.5683 71.2897 42.4152C73.232 45.3069 74.2999 49.2591 74.2999 54.45V55.53C74.2999 58.7355 72.8129 61.7351 70.2672 63.4415C70.2372 63.4603 70.2118 63.4773 70.1918 63.491C70.1844 63.4961 70.1774 63.501 70.1709 63.5056ZM64.5899 67.3C66.9599 67.25 69.1899 66.54 71.2799 65.17C71.2899 65.165 71.2999 65.1575 71.3099 65.15C71.3199 65.1425 71.3299 65.135 71.3399 65.13C74.5199 63.02 76.2999 59.35 76.2999 55.53V54.45C76.2999 49 75.1799 44.62 72.9499 41.3C70.7199 37.98 67.8199 36.32 64.2699 36.32C60.7199 36.32 57.8799 37.78 55.7599 40.71C53.6399 43.64 52.5899 47.34 52.5899 51.81C52.5899 56.51 53.6899 60.29 55.8799 63.15C57.9299 65.83 61.2199 67.37 64.5899 67.3Z" fill="#606265" style="fill:#606265;fill:color(display-p3 0.3765 0.3843 0.3961);fill-opacity:1;"/>
</g>
<defs>
<filter id="filter0_i_911_485" x="38.1699" y="24" width="52.6699" height="80" filterUnits="userSpaceOnUse" color-interpolation-filters="sRGB">
<feFlood flood-opacity="0" result="BackgroundImageFix"/>
<feBlend mode="normal" in="SourceGraphic" in2="BackgroundImageFix" result="shape"/>
<feColorMatrix in="SourceAlpha" type="matrix" values="0 0 0 0 0 0 0 0 0 0 0 0 0 0 0 0 0 0 127 0" result="hardAlpha"/>
<feOffset dy="-5"/>
<feComposite in2="hardAlpha" operator="arithmetic" k2="-1" k3="1"/>
<feColorMatrix type="matrix" values="0 0 0 0 0 0 0 0 0 0 0 0 0 0 0 0 0 0 0.25 0"/>
<feBlend mode="normal" in2="shape" result="effect1_innerShadow_911_485"/>
</filter>
</defs>
</svg>
