<svg width="128" height="128" viewBox="0 0 128 128" fill="none" xmlns="http://www.w3.org/2000/svg">
<g opacity="0.2">
<path d="M99.73 7.09009C102.49 7.09009 104.73 9.33009 104.73 12.0901V116.09C104.73 118.85 102.49 121.09 99.73 121.09H27.73C24.97 121.09 22.73 118.85 22.73 116.09V12.0901C22.73 9.33009 24.97 7.09009 27.73 7.09009H99.73ZM99.73 4.09009H27.73C23.31 4.09009 19.73 7.67009 19.73 12.0901V116.09C19.73 120.51 23.31 124.09 27.73 124.09H99.73C104.15 124.09 107.73 120.51 107.73 116.09V12.0901C107.73 7.67009 104.15 4.09009 99.73 4.09009Z" fill="#424242" style="fill:#424242;fill:color(display-p3 0.2588 0.2588 0.2588);fill-opacity:1;"/>
<path d="M99.73 7.09009C102.49 7.09009 104.73 9.33009 104.73 12.0901V116.09C104.73 118.85 102.49 121.09 99.73 121.09H27.73C24.97 121.09 22.73 118.85 22.73 116.09V12.0901C22.73 9.33009 24.97 7.09009 27.73 7.09009H99.73ZM99.73 4.09009H27.73C23.31 4.09009 19.73 7.67009 19.73 12.0901V116.09C19.73 120.51 23.31 124.09 27.73 124.09H99.73C104.15 124.09 107.73 120.51 107.73 116.09V12.0901C107.73 7.67009 104.15 4.09009 99.73 4.09009Z" fill="#212121" style="fill:#212121;fill:color(display-p3 0.1294 0.1294 0.1294);fill-opacity:1;"/>
</g>
<path d="M102.44 125.43L26.4199 125.06C22.9699 125.06 20.1699 122.26 20.1699 118.81L32.3699 26.6801L102.56 4.5001C108.69 4.1701 109.04 7.0301 109.04 10.4801L108.67 119.17C108.69 122.64 105.89 125.43 102.44 125.43Z" fill="#D9CDC9" style="fill:#D9CDC9;fill:color(display-p3 0.8510 0.8039 0.7882);fill-opacity:1;"/>
<path d="M101.98 122.06C101.98 122.06 44.22 123.04 25.51 121.98C21.93 121.78 20.18 120.36 20.17 118.82L20 10.3301C20 6.88008 22.8 4.08008 26.25 4.08008L101.89 4.40008C105.34 4.40008 106.65 7.26008 106.65 10.7101L106.08 116.11C106.06 119.56 105.43 122.06 101.98 122.06Z" fill="#F1EDEC" style="fill:#F1EDEC;fill:color(display-p3 0.9451 0.9294 0.9255);fill-opacity:1;"/>
<path d="M44.4167 105.444C45.1833 104.333 47.1 102.667 49.0167 102.667C52.4667 102.667 54 104.889 54 107.667C54 110.444 52.4667 112.944 49.0167 112.944C47.1 112.944 45.95 111.556 44.8 110.722C44.4167 110.444 44.0333 110.722 44.4167 111C45.5667 111.833 47.4833 114.056 47.4833 116C47.4833 118.222 45.5667 121 42.5 121C39.4333 121 37.5167 118.222 37.5167 116C37.5167 114.056 39.4333 111.833 40.5833 111C40.9667 110.722 40.5833 110.444 40.2 110.722C39.05 111.556 37.9 112.944 35.9833 112.944C32.5333 112.944 31 110.444 31 107.667C31 104.889 32.5333 102.667 35.9833 102.667C37.9 102.667 39.8167 104.333 40.5833 105.444C40.9667 105.722 40.9667 105.444 40.9667 105.167C40.5833 102.944 40.5833 102.389 40.2 100.722C39.8167 99.0556 38.6667 96 38.6667 96C40.5833 96.5556 44.4167 96.5556 46.3333 96C46.3333 96 45.1833 99.0556 44.8 100.722C44.4167 102.389 44.4167 102.944 44.0333 105.167C44.0333 105.444 44.0333 105.722 44.4167 105.444Z" fill="#212121" style="fill:#212121;fill:color(display-p3 0.1294 0.1294 0.1294);fill-opacity:1;"/>
<path d="M44.4167 105.444C45.1833 104.333 47.1 102.667 49.0167 102.667C52.4667 102.667 54 104.889 54 107.667C54 110.444 52.4667 112.944 49.0167 112.944C47.1 112.944 45.95 111.556 44.8 110.722C44.4167 110.444 44.0333 110.722 44.4167 111C45.5667 111.833 47.4833 114.056 47.4833 116C47.4833 118.222 45.5667 121 42.5 121C39.4333 121 37.5167 118.222 37.5167 116C37.5167 114.056 39.4333 111.833 40.5833 111C40.9667 110.722 40.5833 110.444 40.2 110.722C39.05 111.556 37.9 112.944 35.9833 112.944C32.5333 112.944 31 110.444 31 107.667C31 104.889 32.5333 102.667 35.9833 102.667C37.9 102.667 39.8167 104.333 40.5833 105.444C40.9667 105.722 40.9667 105.444 40.9667 105.167C40.5833 102.944 40.5833 102.389 40.2 100.722C39.8167 99.0556 38.6667 96 38.6667 96C40.5833 96.5556 44.4167 96.5556 46.3333 96C46.3333 96 45.1833 99.0556 44.8 100.722C44.4167 102.389 44.4167 102.944 44.0333 105.167C44.0333 105.444 44.0333 105.722 44.4167 105.444Z" fill="#212121" style="fill:#212121;fill:color(display-p3 0.1294 0.1294 0.1294);fill-opacity:1;"/>
<path d="M87.4167 105.444C88.1833 104.333 90.1 102.667 92.0167 102.667C95.4667 102.667 97 104.889 97 107.667C97 110.444 95.4667 112.944 92.0167 112.944C90.1 112.944 88.95 111.556 87.8 110.722C87.4167 110.444 87.0333 110.722 87.4167 111C88.5667 111.833 90.4833 114.056 90.4833 116C90.4833 118.222 88.5667 121 85.5 121C82.4333 121 80.5167 118.222 80.5167 116C80.5167 114.056 82.4333 111.833 83.5833 111C83.9667 110.722 83.5833 110.444 83.2 110.722C82.05 111.556 80.9 112.944 78.9833 112.944C75.5333 112.944 74 110.444 74 107.667C74 104.889 75.5333 102.667 78.9833 102.667C80.9 102.667 82.8167 104.333 83.5833 105.444C83.9667 105.722 83.9667 105.444 83.9667 105.167C83.5833 102.944 83.5833 102.389 83.2 100.722C82.8167 99.0556 81.6667 96 81.6667 96C83.5833 96.5556 87.4167 96.5556 89.3333 96C89.3333 96 88.1833 99.0556 87.8 100.722C87.4167 102.389 87.4167 102.944 87.0333 105.167C87.0333 105.444 87.0333 105.722 87.4167 105.444Z" fill="#212121" style="fill:#212121;fill:color(display-p3 0.1294 0.1294 0.1294);fill-opacity:1;"/>
<path d="M87.4167 105.444C88.1833 104.333 90.1 102.667 92.0167 102.667C95.4667 102.667 97 104.889 97 107.667C97 110.444 95.4667 112.944 92.0167 112.944C90.1 112.944 88.95 111.556 87.8 110.722C87.4167 110.444 87.0333 110.722 87.4167 111C88.5667 111.833 90.4833 114.056 90.4833 116C90.4833 118.222 88.5667 121 85.5 121C82.4333 121 80.5167 118.222 80.5167 116C80.5167 114.056 82.4333 111.833 83.5833 111C83.9667 110.722 83.5833 110.444 83.2 110.722C82.05 111.556 80.9 112.944 78.9833 112.944C75.5333 112.944 74 110.444 74 107.667C74 104.889 75.5333 102.667 78.9833 102.667C80.9 102.667 82.8167 104.333 83.5833 105.444C83.9667 105.722 83.9667 105.444 83.9667 105.167C83.5833 102.944 83.5833 102.389 83.2 100.722C82.8167 99.0556 81.6667 96 81.6667 96C83.5833 96.5556 87.4167 96.5556 89.3333 96C89.3333 96 88.1833 99.0556 87.8 100.722C87.4167 102.389 87.4167 102.944 87.0333 105.167C87.0333 105.444 87.0333 105.722 87.4167 105.444Z" fill="#212121" style="fill:#212121;fill:color(display-p3 0.1294 0.1294 0.1294);fill-opacity:1;"/>
<path d="M44.4167 78.4444C45.1833 77.3333 47.1 75.6667 49.0167 75.6667C52.4667 75.6667 54 77.8889 54 80.6667C54 83.4444 52.4667 85.9444 49.0167 85.9444C47.1 85.9444 45.95 84.5556 44.8 83.7222C44.4167 83.4444 44.0333 83.7222 44.4167 84C45.5667 84.8333 47.4833 87.0556 47.4833 89C47.4833 91.2222 45.5667 94 42.5 94C39.4333 94 37.5167 91.2222 37.5167 89C37.5167 87.0556 39.4333 84.8333 40.5833 84C40.9667 83.7222 40.5833 83.4444 40.2 83.7222C39.05 84.5556 37.9 85.9444 35.9833 85.9444C32.5333 85.9444 31 83.4444 31 80.6667C31 77.8889 32.5333 75.6667 35.9833 75.6667C37.9 75.6667 39.8167 77.3333 40.5833 78.4444C40.9667 78.7222 40.9667 78.4444 40.9667 78.1667C40.5833 75.9444 40.5833 75.3889 40.2 73.7222C39.8167 72.0556 38.6667 69 38.6667 69C40.5833 69.5556 44.4167 69.5556 46.3333 69C46.3333 69 45.1833 72.0556 44.8 73.7222C44.4167 75.3889 44.4167 75.9444 44.0333 78.1667C44.0333 78.4444 44.0333 78.7222 44.4167 78.4444Z" fill="#212121" style="fill:#212121;fill:color(display-p3 0.1294 0.1294 0.1294);fill-opacity:1;"/>
<path d="M44.4167 78.4444C45.1833 77.3333 47.1 75.6667 49.0167 75.6667C52.4667 75.6667 54 77.8889 54 80.6667C54 83.4444 52.4667 85.9444 49.0167 85.9444C47.1 85.9444 45.95 84.5556 44.8 83.7222C44.4167 83.4444 44.0333 83.7222 44.4167 84C45.5667 84.8333 47.4833 87.0556 47.4833 89C47.4833 91.2222 45.5667 94 42.5 94C39.4333 94 37.5167 91.2222 37.5167 89C37.5167 87.0556 39.4333 84.8333 40.5833 84C40.9667 83.7222 40.5833 83.4444 40.2 83.7222C39.05 84.5556 37.9 85.9444 35.9833 85.9444C32.5333 85.9444 31 83.4444 31 80.6667C31 77.8889 32.5333 75.6667 35.9833 75.6667C37.9 75.6667 39.8167 77.3333 40.5833 78.4444C40.9667 78.7222 40.9667 78.4444 40.9667 78.1667C40.5833 75.9444 40.5833 75.3889 40.2 73.7222C39.8167 72.0556 38.6667 69 38.6667 69C40.5833 69.5556 44.4167 69.5556 46.3333 69C46.3333 69 45.1833 72.0556 44.8 73.7222C44.4167 75.3889 44.4167 75.9444 44.0333 78.1667C44.0333 78.4444 44.0333 78.7222 44.4167 78.4444Z" fill="#212121" style="fill:#212121;fill:color(display-p3 0.1294 0.1294 0.1294);fill-opacity:1;"/>
<path d="M87.4167 78.4444C88.1833 77.3333 90.1 75.6667 92.0167 75.6667C95.4667 75.6667 97 77.8889 97 80.6667C97 83.4444 95.4667 85.9444 92.0167 85.9444C90.1 85.9444 88.95 84.5556 87.8 83.7222C87.4167 83.4444 87.0333 83.7222 87.4167 84C88.5667 84.8333 90.4833 87.0556 90.4833 89C90.4833 91.2222 88.5667 94 85.5 94C82.4333 94 80.5167 91.2222 80.5167 89C80.5167 87.0556 82.4333 84.8333 83.5833 84C83.9667 83.7222 83.5833 83.4444 83.2 83.7222C82.05 84.5556 80.9 85.9444 78.9833 85.9444C75.5333 85.9444 74 83.4444 74 80.6667C74 77.8889 75.5333 75.6667 78.9833 75.6667C80.9 75.6667 82.8167 77.3333 83.5833 78.4444C83.9667 78.7222 83.9667 78.4444 83.9667 78.1667C83.5833 75.9444 83.5833 75.3889 83.2 73.7222C82.8167 72.0556 81.6667 69 81.6667 69C83.5833 69.5556 87.4167 69.5556 89.3333 69C89.3333 69 88.1833 72.0556 87.8 73.7222C87.4167 75.3889 87.4167 75.9444 87.0333 78.1667C87.0333 78.4444 87.0333 78.7222 87.4167 78.4444Z" fill="#212121" style="fill:#212121;fill:color(display-p3 0.1294 0.1294 0.1294);fill-opacity:1;"/>
<path d="M87.4167 78.4444C88.1833 77.3333 90.1 75.6667 92.0167 75.6667C95.4667 75.6667 97 77.8889 97 80.6667C97 83.4444 95.4667 85.9444 92.0167 85.9444C90.1 85.9444 88.95 84.5556 87.8 83.7222C87.4167 83.4444 87.0333 83.7222 87.4167 84C88.5667 84.8333 90.4833 87.0556 90.4833 89C90.4833 91.2222 88.5667 94 85.5 94C82.4333 94 80.5167 91.2222 80.5167 89C80.5167 87.0556 82.4333 84.8333 83.5833 84C83.9667 83.7222 83.5833 83.4444 83.2 83.7222C82.05 84.5556 80.9 85.9444 78.9833 85.9444C75.5333 85.9444 74 83.4444 74 80.6667C74 77.8889 75.5333 75.6667 78.9833 75.6667C80.9 75.6667 82.8167 77.3333 83.5833 78.4444C83.9667 78.7222 83.9667 78.4444 83.9667 78.1667C83.5833 75.9444 83.5833 75.3889 83.2 73.7222C82.8167 72.0556 81.6667 69 81.6667 69C83.5833 69.5556 87.4167 69.5556 89.3333 69C89.3333 69 88.1833 72.0556 87.8 73.7222C87.4167 75.3889 87.4167 75.9444 87.0333 78.1667C87.0333 78.4444 87.0333 78.7222 87.4167 78.4444Z" fill="#212121" style="fill:#212121;fill:color(display-p3 0.1294 0.1294 0.1294);fill-opacity:1;"/>
<path d="M44.4167 27.5556C45.1833 28.6667 47.1 30.3333 49.0167 30.3333C52.4667 30.3333 54 28.1111 54 25.3333C54 22.5556 52.4667 20.0556 49.0167 20.0556C47.1 20.0556 45.95 21.4444 44.8 22.2778C44.4167 22.5556 44.0333 22.2778 44.4167 22C45.5667 21.1667 47.4833 18.9444 47.4833 17C47.4833 14.7778 45.5667 12 42.5 12C39.4333 12 37.5167 14.7778 37.5167 17C37.5167 18.9444 39.4333 21.1667 40.5833 22C40.9667 22.2778 40.5833 22.5556 40.2 22.2778C39.05 21.4444 37.9 20.0556 35.9833 20.0556C32.5333 20.0556 31 22.5556 31 25.3333C31 28.1111 32.5333 30.3333 35.9833 30.3333C37.9 30.3333 39.8167 28.6667 40.5833 27.5556C40.9667 27.2778 40.9667 27.5556 40.9667 27.8333C40.5833 30.0556 40.5833 30.6111 40.2 32.2778C39.8167 33.9444 38.6667 37 38.6667 37C40.5833 36.4444 44.4167 36.4444 46.3333 37C46.3333 37 45.1833 33.9444 44.8 32.2778C44.4167 30.6111 44.4167 30.0556 44.0333 27.8333C44.0333 27.5556 44.0333 27.2778 44.4167 27.5556Z" fill="#212121" style="fill:#212121;fill:color(display-p3 0.1294 0.1294 0.1294);fill-opacity:1;"/>
<path d="M44.4167 27.5556C45.1833 28.6667 47.1 30.3333 49.0167 30.3333C52.4667 30.3333 54 28.1111 54 25.3333C54 22.5556 52.4667 20.0556 49.0167 20.0556C47.1 20.0556 45.95 21.4444 44.8 22.2778C44.4167 22.5556 44.0333 22.2778 44.4167 22C45.5667 21.1667 47.4833 18.9444 47.4833 17C47.4833 14.7778 45.5667 12 42.5 12C39.4333 12 37.5167 14.7778 37.5167 17C37.5167 18.9444 39.4333 21.1667 40.5833 22C40.9667 22.2778 40.5833 22.5556 40.2 22.2778C39.05 21.4444 37.9 20.0556 35.9833 20.0556C32.5333 20.0556 31 22.5556 31 25.3333C31 28.1111 32.5333 30.3333 35.9833 30.3333C37.9 30.3333 39.8167 28.6667 40.5833 27.5556C40.9667 27.2778 40.9667 27.5556 40.9667 27.8333C40.5833 30.0556 40.5833 30.6111 40.2 32.2778C39.8167 33.9444 38.6667 37 38.6667 37C40.5833 36.4444 44.4167 36.4444 46.3333 37C46.3333 37 45.1833 33.9444 44.8 32.2778C44.4167 30.6111 44.4167 30.0556 44.0333 27.8333C44.0333 27.5556 44.0333 27.2778 44.4167 27.5556Z" fill="#212121" style="fill:#212121;fill:color(display-p3 0.1294 0.1294 0.1294);fill-opacity:1;"/>
<path d="M87.4167 27.5556C88.1833 28.6667 90.1 30.3333 92.0167 30.3333C95.4667 30.3333 97 28.1111 97 25.3333C97 22.5556 95.4667 20.0556 92.0167 20.0556C90.1 20.0556 88.95 21.4444 87.8 22.2778C87.4167 22.5556 87.0333 22.2778 87.4167 22C88.5667 21.1667 90.4833 18.9444 90.4833 17C90.4833 14.7778 88.5667 12 85.5 12C82.4333 12 80.5167 14.7778 80.5167 17C80.5167 18.9444 82.4333 21.1667 83.5833 22C83.9667 22.2778 83.5833 22.5556 83.2 22.2778C82.05 21.4444 80.9 20.0556 78.9833 20.0556C75.5333 20.0556 74 22.5556 74 25.3333C74 28.1111 75.5333 30.3333 78.9833 30.3333C80.9 30.3333 82.8167 28.6667 83.5833 27.5556C83.9667 27.2778 83.9667 27.5556 83.9667 27.8333C83.5833 30.0556 83.5833 30.6111 83.2 32.2778C82.8167 33.9444 81.6667 37 81.6667 37C83.5833 36.4444 87.4167 36.4444 89.3333 37C89.3333 37 88.1833 33.9444 87.8 32.2778C87.4167 30.6111 87.4167 30.0556 87.0333 27.8333C87.0333 27.5556 87.0333 27.2778 87.4167 27.5556Z" fill="#212121" style="fill:#212121;fill:color(display-p3 0.1294 0.1294 0.1294);fill-opacity:1;"/>
<path d="M87.4167 27.5556C88.1833 28.6667 90.1 30.3333 92.0167 30.3333C95.4667 30.3333 97 28.1111 97 25.3333C97 22.5556 95.4667 20.0556 92.0167 20.0556C90.1 20.0556 88.95 21.4444 87.8 22.2778C87.4167 22.5556 87.0333 22.2778 87.4167 22C88.5667 21.1667 90.4833 18.9444 90.4833 17C90.4833 14.7778 88.5667 12 85.5 12C82.4333 12 80.5167 14.7778 80.5167 17C80.5167 18.9444 82.4333 21.1667 83.5833 22C83.9667 22.2778 83.5833 22.5556 83.2 22.2778C82.05 21.4444 80.9 20.0556 78.9833 20.0556C75.5333 20.0556 74 22.5556 74 25.3333C74 28.1111 75.5333 30.3333 78.9833 30.3333C80.9 30.3333 82.8167 28.6667 83.5833 27.5556C83.9667 27.2778 83.9667 27.5556 83.9667 27.8333C83.5833 30.0556 83.5833 30.6111 83.2 32.2778C82.8167 33.9444 81.6667 37 81.6667 37C83.5833 36.4444 87.4167 36.4444 89.3333 37C89.3333 37 88.1833 33.9444 87.8 32.2778C87.4167 30.6111 87.4167 30.0556 87.0333 27.8333C87.0333 27.5556 87.0333 27.2778 87.4167 27.5556Z" fill="#212121" style="fill:#212121;fill:color(display-p3 0.1294 0.1294 0.1294);fill-opacity:1;"/>
<path d="M44.4167 55.5556C45.1833 56.6667 47.1 58.3333 49.0167 58.3333C52.4667 58.3333 54 56.1111 54 53.3333C54 50.5556 52.4667 48.0556 49.0167 48.0556C47.1 48.0556 45.95 49.4444 44.8 50.2778C44.4167 50.5556 44.0333 50.2778 44.4167 50C45.5667 49.1667 47.4833 46.9444 47.4833 45C47.4833 42.7778 45.5667 40 42.5 40C39.4333 40 37.5167 42.7778 37.5167 45C37.5167 46.9444 39.4333 49.1667 40.5833 50C40.9667 50.2778 40.5833 50.5556 40.2 50.2778C39.05 49.4444 37.9 48.0556 35.9833 48.0556C32.5333 48.0556 31 50.5556 31 53.3333C31 56.1111 32.5333 58.3333 35.9833 58.3333C37.9 58.3333 39.8167 56.6667 40.5833 55.5556C40.9667 55.2778 40.9667 55.5556 40.9667 55.8333C40.5833 58.0556 40.5833 58.6111 40.2 60.2778C39.8167 61.9444 38.6667 65 38.6667 65C40.5833 64.4444 44.4167 64.4444 46.3333 65C46.3333 65 45.1833 61.9444 44.8 60.2778C44.4167 58.6111 44.4167 58.0556 44.0333 55.8333C44.0333 55.5556 44.0333 55.2778 44.4167 55.5556Z" fill="#212121" style="fill:#212121;fill:color(display-p3 0.1294 0.1294 0.1294);fill-opacity:1;"/>
<path d="M44.4167 55.5556C45.1833 56.6667 47.1 58.3333 49.0167 58.3333C52.4667 58.3333 54 56.1111 54 53.3333C54 50.5556 52.4667 48.0556 49.0167 48.0556C47.1 48.0556 45.95 49.4444 44.8 50.2778C44.4167 50.5556 44.0333 50.2778 44.4167 50C45.5667 49.1667 47.4833 46.9444 47.4833 45C47.4833 42.7778 45.5667 40 42.5 40C39.4333 40 37.5167 42.7778 37.5167 45C37.5167 46.9444 39.4333 49.1667 40.5833 50C40.9667 50.2778 40.5833 50.5556 40.2 50.2778C39.05 49.4444 37.9 48.0556 35.9833 48.0556C32.5333 48.0556 31 50.5556 31 53.3333C31 56.1111 32.5333 58.3333 35.9833 58.3333C37.9 58.3333 39.8167 56.6667 40.5833 55.5556C40.9667 55.2778 40.9667 55.5556 40.9667 55.8333C40.5833 58.0556 40.5833 58.6111 40.2 60.2778C39.8167 61.9444 38.6667 65 38.6667 65C40.5833 64.4444 44.4167 64.4444 46.3333 65C46.3333 65 45.1833 61.9444 44.8 60.2778C44.4167 58.6111 44.4167 58.0556 44.0333 55.8333C44.0333 55.5556 44.0333 55.2778 44.4167 55.5556Z" fill="#212121" style="fill:#212121;fill:color(display-p3 0.1294 0.1294 0.1294);fill-opacity:1;"/>
<path d="M66.5666 42.5556C67.3332 43.6667 69.2499 45.3333 71.1666 45.3333C74.6166 45.3333 76.1499 43.1111 76.1499 40.3333C76.1499 37.5556 74.6166 35.0556 71.1666 35.0556C69.2499 35.0556 68.0999 36.4444 66.9499 37.2778C66.5666 37.5556 66.1832 37.2778 66.5666 37C67.7166 36.1667 69.6332 33.9444 69.6332 32C69.6332 29.7778 67.7166 27 64.6499 27C61.5832 27 59.6666 29.7778 59.6666 32C59.6666 33.9444 61.5832 36.1667 62.7332 37C63.1166 37.2778 62.7332 37.5556 62.3499 37.2778C61.1999 36.4444 60.0499 35.0556 58.1332 35.0556C54.6832 35.0556 53.1499 37.5556 53.1499 40.3333C53.1499 43.1111 54.6832 45.3333 58.1332 45.3333C60.0499 45.3333 61.9666 43.6667 62.7332 42.5556C63.1166 42.2778 63.1166 42.5556 63.1166 42.8333C62.7332 45.0556 62.7332 45.6111 62.3499 47.2778C61.9666 48.9444 60.8166 52 60.8166 52C62.7332 51.4444 66.5666 51.4444 68.4832 52C68.4832 52 67.3332 48.9444 66.9499 47.2778C66.5666 45.6111 66.5666 45.0556 66.1832 42.8333C66.1832 42.5556 66.1832 42.2778 66.5666 42.5556Z" fill="#212121" style="fill:#212121;fill:color(display-p3 0.1294 0.1294 0.1294);fill-opacity:1;"/>
<path d="M66.5666 42.5556C67.3332 43.6667 69.2499 45.3333 71.1666 45.3333C74.6166 45.3333 76.1499 43.1111 76.1499 40.3333C76.1499 37.5556 74.6166 35.0556 71.1666 35.0556C69.2499 35.0556 68.0999 36.4444 66.9499 37.2778C66.5666 37.5556 66.1832 37.2778 66.5666 37C67.7166 36.1667 69.6332 33.9444 69.6332 32C69.6332 29.7778 67.7166 27 64.6499 27C61.5832 27 59.6666 29.7778 59.6666 32C59.6666 33.9444 61.5832 36.1667 62.7332 37C63.1166 37.2778 62.7332 37.5556 62.3499 37.2778C61.1999 36.4444 60.0499 35.0556 58.1332 35.0556C54.6832 35.0556 53.1499 37.5556 53.1499 40.3333C53.1499 43.1111 54.6832 45.3333 58.1332 45.3333C60.0499 45.3333 61.9666 43.6667 62.7332 42.5556C63.1166 42.2778 63.1166 42.5556 63.1166 42.8333C62.7332 45.0556 62.7332 45.6111 62.3499 47.2778C61.9666 48.9444 60.8166 52 60.8166 52C62.7332 51.4444 66.5666 51.4444 68.4832 52C68.4832 52 67.3332 48.9444 66.9499 47.2778C66.5666 45.6111 66.5666 45.0556 66.1832 42.8333C66.1832 42.5556 66.1832 42.2778 66.5666 42.5556Z" fill="#212121" style="fill:#212121;fill:color(display-p3 0.1294 0.1294 0.1294);fill-opacity:1;"/>
<path d="M66.5666 86.4444C67.3332 85.3333 69.2499 83.6667 71.1666 83.6667C74.6166 83.6667 76.1499 85.8889 76.1499 88.6667C76.1499 91.4444 74.6166 93.9444 71.1666 93.9444C69.2499 93.9444 68.0999 92.5556 66.9499 91.7222C66.5666 91.4444 66.1832 91.7222 66.5666 92C67.7166 92.8333 69.6332 95.0556 69.6332 97C69.6332 99.2222 67.7166 102 64.6499 102C61.5832 102 59.6666 99.2222 59.6666 97C59.6666 95.0556 61.5832 92.8333 62.7332 92C63.1166 91.7222 62.7332 91.4444 62.3499 91.7222C61.1999 92.5556 60.0499 93.9444 58.1332 93.9444C54.6832 93.9444 53.1499 91.4444 53.1499 88.6667C53.1499 85.8889 54.6832 83.6667 58.1332 83.6667C60.0499 83.6667 61.9666 85.3333 62.7332 86.4444C63.1166 86.7222 63.1166 86.4444 63.1166 86.1667C62.7332 83.9444 62.7332 83.3889 62.3499 81.7222C61.9666 80.0556 60.8166 77 60.8166 77C62.7332 77.5556 66.5666 77.5556 68.4832 77C68.4832 77 67.3332 80.0556 66.9499 81.7222C66.5666 83.3889 66.5666 83.9444 66.1832 86.1667C66.1832 86.4444 66.1832 86.7222 66.5666 86.4444Z" fill="#212121" style="fill:#212121;fill:color(display-p3 0.1294 0.1294 0.1294);fill-opacity:1;"/>
<path d="M66.5666 86.4444C67.3332 85.3333 69.2499 83.6667 71.1666 83.6667C74.6166 83.6667 76.1499 85.8889 76.1499 88.6667C76.1499 91.4444 74.6166 93.9444 71.1666 93.9444C69.2499 93.9444 68.0999 92.5556 66.9499 91.7222C66.5666 91.4444 66.1832 91.7222 66.5666 92C67.7166 92.8333 69.6332 95.0556 69.6332 97C69.6332 99.2222 67.7166 102 64.6499 102C61.5832 102 59.6666 99.2222 59.6666 97C59.6666 95.0556 61.5832 92.8333 62.7332 92C63.1166 91.7222 62.7332 91.4444 62.3499 91.7222C61.1999 92.5556 60.0499 93.9444 58.1332 93.9444C54.6832 93.9444 53.1499 91.4444 53.1499 88.6667C53.1499 85.8889 54.6832 83.6667 58.1332 83.6667C60.0499 83.6667 61.9666 85.3333 62.7332 86.4444C63.1166 86.7222 63.1166 86.4444 63.1166 86.1667C62.7332 83.9444 62.7332 83.3889 62.3499 81.7222C61.9666 80.0556 60.8166 77 60.8166 77C62.7332 77.5556 66.5666 77.5556 68.4832 77C68.4832 77 67.3332 80.0556 66.9499 81.7222C66.5666 83.3889 66.5666 83.9444 66.1832 86.1667C66.1832 86.4444 66.1832 86.7222 66.5666 86.4444Z" fill="#212121" style="fill:#212121;fill:color(display-p3 0.1294 0.1294 0.1294);fill-opacity:1;"/>
<path d="M87.4167 55.5556C88.1833 56.6667 90.1 58.3333 92.0167 58.3333C95.4667 58.3333 97 56.1111 97 53.3333C97 50.5556 95.4667 48.0556 92.0167 48.0556C90.1 48.0556 88.95 49.4444 87.8 50.2778C87.4167 50.5556 87.0333 50.2778 87.4167 50C88.5667 49.1667 90.4833 46.9444 90.4833 45C90.4833 42.7778 88.5667 40 85.5 40C82.4333 40 80.5167 42.7778 80.5167 45C80.5167 46.9444 82.4333 49.1667 83.5833 50C83.9667 50.2778 83.5833 50.5556 83.2 50.2778C82.05 49.4444 80.9 48.0556 78.9833 48.0556C75.5333 48.0556 74 50.5556 74 53.3333C74 56.1111 75.5333 58.3333 78.9833 58.3333C80.9 58.3333 82.8167 56.6667 83.5833 55.5556C83.9667 55.2778 83.9667 55.5556 83.9667 55.8333C83.5833 58.0556 83.5833 58.6111 83.2 60.2778C82.8167 61.9444 81.6667 65 81.6667 65C83.5833 64.4444 87.4167 64.4444 89.3333 65C89.3333 65 88.1833 61.9444 87.8 60.2778C87.4167 58.6111 87.4167 58.0556 87.0333 55.8333C87.0333 55.5556 87.0333 55.2778 87.4167 55.5556Z" fill="#212121" style="fill:#212121;fill:color(display-p3 0.1294 0.1294 0.1294);fill-opacity:1;"/>
<path d="M87.4167 55.5556C88.1833 56.6667 90.1 58.3333 92.0167 58.3333C95.4667 58.3333 97 56.1111 97 53.3333C97 50.5556 95.4667 48.0556 92.0167 48.0556C90.1 48.0556 88.95 49.4444 87.8 50.2778C87.4167 50.5556 87.0333 50.2778 87.4167 50C88.5667 49.1667 90.4833 46.9444 90.4833 45C90.4833 42.7778 88.5667 40 85.5 40C82.4333 40 80.5167 42.7778 80.5167 45C80.5167 46.9444 82.4333 49.1667 83.5833 50C83.9667 50.2778 83.5833 50.5556 83.2 50.2778C82.05 49.4444 80.9 48.0556 78.9833 48.0556C75.5333 48.0556 74 50.5556 74 53.3333C74 56.1111 75.5333 58.3333 78.9833 58.3333C80.9 58.3333 82.8167 56.6667 83.5833 55.5556C83.9667 55.2778 83.9667 55.5556 83.9667 55.8333C83.5833 58.0556 83.5833 58.6111 83.2 60.2778C82.8167 61.9444 81.6667 65 81.6667 65C83.5833 64.4444 87.4167 64.4444 89.3333 65C89.3333 65 88.1833 61.9444 87.8 60.2778C87.4167 58.6111 87.4167 58.0556 87.0333 55.8333C87.0333 55.5556 87.0333 55.2778 87.4167 55.5556Z" fill="#212121" style="fill:#212121;fill:color(display-p3 0.1294 0.1294 0.1294);fill-opacity:1;"/>
</svg>
