<svg width="128" height="128" viewBox="0 0 128 128" fill="none" xmlns="http://www.w3.org/2000/svg">
<path d="M64.2401 86.9499C61.0101 86.9499 58.0301 85.7899 56.1501 82.3599C53.9801 78.3899 54.6401 73.9699 58.0601 69.5799C60.5001 66.4599 62.9501 64.9599 63.0801 64.8799C63.7601 64.4299 64.6801 64.6099 65.1301 65.2899C65.5801 65.9699 65.4001 66.8899 64.7201 67.3499C64.6201 67.4199 54.8901 73.8899 58.7501 80.9399C61.4401 85.8499 67.5201 84.2999 75.8201 80.4699C79.6101 78.7199 82.7501 78.5799 85.5101 78.4499C87.8601 78.3399 89.8901 78.2499 92.0901 77.2499C97.0101 75.0099 97.8701 70.6199 98.7801 65.9699C99.2601 63.5299 99.7501 61.0199 100.86 58.7999C103.14 54.2399 106.71 51.6899 107.36 51.2899C108.12 50.8199 108.95 50.2599 109.48 50.8999C110 51.5299 109.25 52.3499 108.62 52.8699C108.58 52.8999 105.55 55.1599 103.37 59.6799C102.47 61.5499 102.15 64.1999 101.69 66.5499C100.72 71.4899 99.6301 77.0799 93.3201 79.9599C90.6001 81.1999 88.0801 81.3099 85.6501 81.4299C83.0401 81.5499 80.3301 81.6699 77.0701 83.1799C73.9401 84.5899 68.8401 86.9499 64.2401 86.9499Z" fill="#0042EB" style="fill:#0042EB;fill:color(display-p3 0.0000 0.2580 0.9216);fill-opacity:1;"/>
<path d="M80.87 123.51C79.93 123.04 71.17 118.5 62.86 115.39C61.33 114.82 59.7399 114.29 58.0499 113.73C51.2899 111.49 42.87 108.71 33.29 100.84C20.49 90.3298 18.97 80.4498 19.2 75.4998C19.39 71.5198 20.94 68.5098 22.58 65.3198C23.27 63.9798 23.98 62.5998 24.6 61.1098C26.4 56.7998 25.7299 50.0998 25.7199 50.0298C25.6399 49.2198 26.23 48.4898 27.04 48.3998C27.86 48.3198 28.58 48.9098 28.67 49.7198C28.7 50.0198 29.42 57.2398 27.33 62.2498C26.66 63.8498 25.9199 65.2898 25.2099 66.6798C23.6599 69.6998 22.31 72.3098 22.16 75.6398C22 79.1798 22.9299 88.4998 35.1699 98.5498C44.3299 106.07 52.12 108.65 58.99 110.92C60.71 111.49 62.3299 112.03 63.91 112.62C72.4599 115.83 80.1699 120.55 81.2799 121.15C82.3999 121.76 83.89 123.17 83.47 123.88C83.19 124.34 81.81 123.98 80.87 123.51Z" fill="#0042EB" style="fill:#0042EB;fill:color(display-p3 0.0000 0.2580 0.9216);fill-opacity:1;"/>
<path d="M60.7201 99.1199C59.4001 99.1199 58.0601 99.0099 56.6901 98.7699C43.5701 96.4899 35.5901 86.6999 37.2801 74.9699C39.0501 62.7299 47.5001 53.4199 47.8601 53.0299C48.4101 52.4299 49.3501 52.3899 49.9501 52.9399C50.5501 53.4899 50.5901 54.4299 50.0401 55.0299C49.9601 55.1199 41.8401 64.0799 40.2101 75.3799C38.5101 87.1799 47.5101 94.1499 57.1901 95.8399C65.9401 97.3599 73.7701 92.8799 79.4901 89.5999C80.7601 88.8699 81.9501 88.1899 83.0101 87.6599C85.6101 86.3599 88.0001 86.0299 90.3001 85.7199C93.3601 85.2999 96.5801 85.1299 100.24 82.5599C104.77 79.3699 106.61 74.3599 106.63 74.2999C106.89 73.4199 107.38 72.2899 108.16 72.5399C108.94 72.7899 108.76 74.5799 108.51 75.3599C108.15 76.4499 106.98 80.9899 101.61 84.7699C97.3601 87.7599 93.8201 88.2399 90.7001 88.6699C88.5401 88.9699 86.4901 89.2499 84.3301 90.3299C83.3501 90.8199 82.1801 91.4899 80.9501 92.1899C76.0001 95.0299 68.8501 99.1199 60.7201 99.1199Z" fill="#0042EB" style="fill:#0042EB;fill:color(display-p3 0.0000 0.2580 0.9216);fill-opacity:1;"/>
<path opacity="0.7" d="M31.36 51.1099C31.4 52.7199 32.25 56.9499 30.47 62.0899C27.48 70.7599 15.24 73.4299 19.79 87.3099C22.27 94.8799 27.29 95.0099 27.59 96.0199C27.89 97.0299 26.19 111.78 44.1 115.93C60.93 119.83 68.94 105.31 73.86 104.06C78.93 102.77 78.69 107.89 79.77 112.84C80.68 116.99 83.13 119.92 87.07 121.55C91.22 123.27 93.66 120.84 93.66 120.84C93.66 120.84 97.58 123.82 103.08 122.46C113.31 119.93 112.1 109.19 111.39 109.09C110.68 108.99 106.45 115.75 99.43 113.04C93.25 110.66 93.65 104.02 95.07 99.9699C96.49 95.9199 96.08 91.8599 94.06 89.7399C92.03 87.6099 88.28 88.9299 88.28 88.9299C88.28 88.9299 88.18 81.9399 83.72 79.2999C79.26 76.6699 73.41 80.5599 69.96 83.8699C65.1 88.5299 59.71 87.6099 55.86 82.9499C52.39 78.7499 51.76 73.1899 55.44 68.4599C58.96 63.9399 61.74 63.7999 61.74 63.7999C61.74 63.7999 58.7 62.4799 56.57 62.1799C54.44 61.8799 47.5 64.4999 42.59 61.4699C35.26 56.9499 34.77 52.0099 31.36 51.1099Z" fill="url(#paint0_radial_2452_55)" style=""/>
<path d="M31.36 51.1099C31.4 52.7199 32.25 56.9499 30.47 62.0899C27.48 70.7599 15.24 73.4299 19.79 87.3099C22.27 94.8799 27.29 95.0099 27.59 96.0199C27.89 97.0299 26.19 111.78 44.1 115.93C60.93 119.83 68.94 105.31 73.86 104.06C78.93 102.77 78.69 107.89 79.77 112.84C80.68 116.99 83.13 119.92 87.07 121.55C91.22 123.27 93.66 120.84 93.66 120.84C93.66 120.84 97.58 123.82 103.08 122.46C113.31 119.93 112.1 109.19 111.39 109.09C110.68 108.99 106.45 115.75 99.43 113.04C93.25 110.66 93.65 104.02 95.07 99.9699C96.49 95.9199 96.08 91.8599 94.06 89.7399C92.03 87.6099 88.28 88.9299 88.28 88.9299C88.28 88.9299 88.18 81.9399 83.72 79.2999C79.26 76.6699 73.41 80.5599 69.96 83.8699C65.1 88.5299 59.71 87.6099 55.86 82.9499C52.39 78.7499 51.76 73.1899 55.44 68.4599C58.96 63.9399 61.74 63.7999 61.74 63.7999C61.74 63.7999 58.7 62.4799 56.57 62.1799C54.44 61.8799 47.5 64.4999 42.59 61.4699C35.26 56.9499 34.77 52.0099 31.36 51.1099Z" fill="url(#paint1_radial_2452_55)" style=""/>
<path d="M17.5699 43.34C16.8499 41.75 15.6299 34.39 20.4899 23.55C25.3499 12.71 43.2499 -4.44003 70.5999 8.31997C96.6999 20.5 89.5499 49.52 84.5699 57.93C79.9099 65.79 75.7499 67.77 71.6799 68.16C68.9899 68.41 61.6499 62.69 58.5099 62.49C55.3699 62.29 46.7599 63.71 42.5999 61.48C38.4499 59.25 32.9699 51.75 31.1499 51.04C29.3299 50.33 20.4099 49.62 17.5699 43.34Z" fill="url(#paint2_radial_2452_55)" style=""/>
<path d="M40.8999 68.7102C39.6799 68.6402 38.7599 69.4602 38.6899 70.7802C38.6199 72.1002 39.5099 72.8802 40.6499 72.9502C41.7899 73.0202 42.7199 72.3402 42.8199 70.9602C42.9199 69.6002 42.0699 68.7802 40.8999 68.7102Z" fill="#D2EFF5" style="fill:#D2EFF5;fill:color(display-p3 0.8221 0.9372 0.9625);fill-opacity:1;"/>
<path d="M37.08 83.1699C35.69 83.2399 35.03 84.1599 35.05 85.5299C35.07 86.8999 36.13 87.5599 37.39 87.5199C38.65 87.4799 39.35 86.5699 39.35 85.2699C39.35 83.9699 38.38 83.1099 37.08 83.1699Z" fill="#D2EFF5" style="fill:#D2EFF5;fill:color(display-p3 0.8221 0.9372 0.9625);fill-opacity:1;"/>
<path d="M26.12 73.0898C24.76 73.2198 24.12 74.2298 24.21 75.2198C24.31 76.2098 24.75 77.1298 26.12 77.0998C27.26 77.0698 28.05 76.4698 28.12 75.1598C28.19 73.9798 27.43 72.9698 26.12 73.0898Z" fill="#D2EFF5" style="fill:#D2EFF5;fill:color(display-p3 0.8221 0.9372 0.9625);fill-opacity:1;"/>
<path d="M55.0199 87.1602C53.7499 87.1702 53.1699 88.2202 53.2499 89.1302C53.3399 90.0402 53.8799 90.9402 55.0199 90.9502C56.0799 90.9602 56.8099 90.2802 56.8699 89.0702C56.9299 87.9802 56.2999 87.1502 55.0199 87.1602Z" fill="#D2EFF5" style="fill:#D2EFF5;fill:color(display-p3 0.8221 0.9372 0.9625);fill-opacity:1;"/>
<path d="M39.3801 99.4301C38.1301 99.3601 37.2101 100.15 37.1401 101.47C37.0701 102.79 37.9601 103.6 39.1201 103.67C40.2801 103.74 41.2301 103.06 41.3401 101.68C41.4501 100.32 40.5801 99.5001 39.3801 99.4301Z" fill="#D2EFF5" style="fill:#D2EFF5;fill:color(display-p3 0.8221 0.9372 0.9625);fill-opacity:1;"/>
<path d="M52.88 107.14C51.8 107.07 50.99 107.8 50.93 108.96C50.87 110.12 51.65 110.82 52.66 110.88C53.67 110.94 54.48 110.35 54.58 109.12C54.67 107.93 53.92 107.2 52.88 107.14Z" fill="#D2EFF5" style="fill:#D2EFF5;fill:color(display-p3 0.8221 0.9372 0.9625);fill-opacity:1;"/>
<path d="M69.3599 93.5699C68.2199 93.8799 67.8899 95.2799 68.2499 96.2099C68.6099 97.1399 69.3899 97.9099 70.5899 97.6299C71.6799 97.3799 72.1899 96.4099 71.8999 95.1299C71.6499 93.9699 70.5899 93.2299 69.3599 93.5699Z" fill="#D2EFF5" style="fill:#D2EFF5;fill:color(display-p3 0.8221 0.9372 0.9625);fill-opacity:1;"/>
<path d="M79.2199 85.1798C77.9899 85.1898 77.4199 86.1598 77.5099 86.9998C77.5999 87.8398 78.1199 88.6698 79.2199 88.6798C80.2499 88.6898 80.9599 88.0598 81.0199 86.9398C81.0799 85.9398 80.4699 85.1698 79.2199 85.1798Z" fill="#D2EFF5" style="fill:#D2EFF5;fill:color(display-p3 0.8221 0.9372 0.9625);fill-opacity:1;"/>
<path d="M29.42 48.91C28.31 48.81 24.24 47.3 23.63 41.02C23.02 34.74 26.94 31.23 32.26 29.22C36.21 27.73 39.19 25.69 42.75 22.95C46.03 20.43 52.59 16.35 61.94 20.53C72.65 25.32 71.95 33.5 72.38 37.15C72.99 42.32 74.26 44.37 76.29 48.57C78.35 52.84 77.07 59.12 73.76 62.17C69.81 65.82 62.86 64.5 61.74 63.79C60.63 63.08 58.29 62.37 56.57 62.17C54.85 61.97 45.22 63.28 42.59 61.46C39.96 59.64 34.38 53.56 33.27 52.75C32.16 51.95 29.42 48.91 29.42 48.91Z" fill="url(#paint3_radial_2452_55)" style=""/>
<path d="M33.2 49.7898C28.83 47.2098 26.19 48.1598 23.01 46.2198C18.39 43.3998 19.07 40.4198 17.84 40.8798C16.72 41.3098 17.34 47.5498 22.8 50.3798C28.26 53.2098 29.48 51.4098 32.56 54.1098C35.64 56.8098 35.87 60.7798 42.9 63.2898C49.13 65.5198 53.44 62.9698 57.32 63.8198C62.44 64.9398 60.63 67.4498 66.5 68.6698C71.07 69.6298 74.97 67.8798 74.72 67.1198C74.47 66.3698 71.15 67.4898 67.35 65.7298C64.66 64.4798 62.32 61.5398 59.14 60.7098C52.79 59.0598 49.19 62.4098 42.97 59.2698C36.74 56.1498 38.1 52.6798 33.2 49.7898Z" fill="#0042EB" style="fill:#0042EB;fill:color(display-p3 0.0000 0.2580 0.9216);fill-opacity:1;"/>
<path d="M48.14 9.02022C48.39 10.9102 50.43 10.8502 51.53 10.7902C52.83 10.7202 54.99 10.1402 54.73 8.08022C54.54 6.58022 53.23 6.05022 51.29 6.20022C49.49 6.33022 47.92 7.30022 48.14 9.02022Z" fill="#FFFEFE" style="fill:#FFFEFE;fill:color(display-p3 1.0000 0.9961 0.9961);fill-opacity:1;"/>
<path d="M32.1399 13.7198C38.4499 8.52977 41.9599 8.36977 43.1499 8.49977C44.2499 8.61977 45.4699 9.38977 45.1699 10.8498C44.8699 12.3098 43.3899 12.6898 42.2899 13.1098C41.1899 13.5298 39.3199 13.9998 35.1699 17.2998C31.9899 19.8198 29.0799 24.1598 27.6899 25.2598C26.9399 25.8498 24.6899 25.6798 25.1099 23.0898C25.5299 20.4998 28.3099 16.8698 32.1399 13.7198Z" fill="#FFFEFE" style="fill:#FFFEFE;fill:color(display-p3 1.0000 0.9961 0.9961);fill-opacity:1;"/>
<path d="M48.7901 121.64C42.9301 121.64 32.5201 120.12 26.2001 109.56C18.5401 96.7599 23.7301 87.9199 28.5501 79.5299C30.4301 76.2599 32.2001 73.1699 33.2801 69.8199C36.1301 60.8999 34.9801 55.7999 34.9701 55.7499C34.7801 54.9599 35.2701 54.1599 36.0601 53.9599C36.8501 53.7699 37.8801 55.0899 37.9801 55.8999C38.1101 56.9399 39.2401 60.9199 36.1001 70.7299C34.9301 74.3799 33.0001 77.7499 31.1201 81.0099C26.5301 89.0099 22.1901 96.5699 28.9501 107.87C37.1001 121.5 50.5801 118.98 51.5501 118.93C52.3701 118.89 54.2801 118.71 54.4501 119.52C54.6201 120.32 53.5601 121.01 52.7601 121.18C52.7101 121.18 51.4801 121.64 48.7901 121.64Z" fill="#0042EB" style="fill:#0042EB;fill:color(display-p3 0.0000 0.2580 0.9216);fill-opacity:1;"/>
<path d="M74.0799 110.08C69.9799 110.08 65.4199 109.26 60.2799 107.26C47.8299 102.42 41.8499 89.4102 42.5499 79.6302C43.3499 68.4702 49.7699 61.8602 50.0399 61.5802C50.6199 61.0002 51.5499 60.9902 52.1399 61.5702C52.7199 62.1502 52.7299 63.0802 52.1499 63.6702C52.0499 63.7702 46.2199 69.8602 45.4999 79.8502C44.9999 86.8102 49.0399 99.2902 61.5299 104.15C78.4799 110.74 88.1499 103.89 96.8299 97.5202C100.14 95.0902 103.27 92.7902 106.46 91.6302C115.29 88.4202 119.71 92.7802 119.93 92.9702C120.55 93.5102 121.41 94.4802 120.87 95.1002C120.33 95.7202 119.5 94.8902 118.62 94.4302C117.13 93.6602 114.26 91.6202 107.14 94.2102C104.35 95.2202 101.71 97.6002 98.5699 99.9002C92.2099 104.58 84.7099 110.08 74.0799 110.08Z" fill="#0042EB" style="fill:#0042EB;fill:color(display-p3 0.0000 0.2580 0.9216);fill-opacity:1;"/>
<defs>
<radialGradient id="paint0_radial_2452_55" cx="0" cy="0" r="1" gradientUnits="userSpaceOnUse" gradientTransform="translate(35.1453 76.8975) scale(73.6997 73.6997)">
<stop offset="0.1223" stop-color="#A8D5FF" style="stop-color:#A8D5FF;stop-color:color(display-p3 0.6588 0.8362 1.0000);stop-opacity:1;"/>
<stop offset="0.3647" stop-color="#B0CEF1" style="stop-color:#B0CEF1;stop-color:color(display-p3 0.6902 0.8075 0.9451);stop-opacity:1;"/>
<stop offset="0.7812" stop-color="#7FAFE8" style="stop-color:#7FAFE8;stop-color:color(display-p3 0.4996 0.6876 0.9083);stop-opacity:1;"/>
</radialGradient>
<radialGradient id="paint1_radial_2452_55" cx="0" cy="0" r="1" gradientUnits="userSpaceOnUse" gradientTransform="translate(35.1453 76.8975) scale(73.6997 73.6997)">
<stop offset="0.1746" stop-color="#7CC0E6" style="stop-color:#7CC0E6;stop-color:color(display-p3 0.4875 0.7515 0.9000);stop-opacity:1;"/>
<stop offset="0.4543" stop-color="#65ACDF" stop-opacity="0.5388" style="stop-color:#65ACDF;stop-color:color(display-p3 0.3974 0.6744 0.8750);stop-opacity:0.5388;"/>
<stop offset="0.734275" stop-color="#4684DC" stop-opacity="0.0200393" style="stop-color:#4684DC;stop-color:color(display-p3 0.2731 0.5174 0.8625);stop-opacity:0.0200393;"/>
<stop offset="0.734375" stop-color="#BBD1F1" stop-opacity="0" style="stop-color:none;stop-opacity:0;"/>
</radialGradient>
<radialGradient id="paint2_radial_2452_55" cx="0" cy="0" r="1" gradientUnits="userSpaceOnUse" gradientTransform="translate(63.635 11.5185) rotate(109.731) scale(50.2259 126.881)">
<stop offset="0.0479" stop-color="#5D9DFE" style="stop-color:#5D9DFE;stop-color:color(display-p3 0.3647 0.6173 0.9961);stop-opacity:1;"/>
<stop offset="0.1278" stop-color="#5397FE" style="stop-color:#5397FE;stop-color:color(display-p3 0.3255 0.5937 0.9961);stop-opacity:1;"/>
<stop offset="0.4401" stop-color="#3485FF" style="stop-color:#3485FF;stop-color:color(display-p3 0.2039 0.5224 1.0000);stop-opacity:1;"/>
<stop offset="0.825" stop-color="#3B37F9" style="stop-color:#3B37F9;stop-color:color(display-p3 0.2309 0.2157 0.9765);stop-opacity:1;"/>
</radialGradient>
<radialGradient id="paint3_radial_2452_55" cx="0" cy="0" r="1" gradientUnits="userSpaceOnUse" gradientTransform="translate(63.5768 17.5813) rotate(112.297) scale(45.0277 81.6349)">
<stop offset="0.3617" stop-color="#87E2FF" style="stop-color:#87E2FF;stop-color:color(display-p3 0.5294 0.8871 1.0000);stop-opacity:1;"/>
<stop offset="0.5872" stop-color="#74B4FF" style="stop-color:#74B4FF;stop-color:color(display-p3 0.4549 0.7056 1.0000);stop-opacity:1;"/>
<stop offset="0.812" stop-color="#5AA6FF" style="stop-color:#5AA6FF;stop-color:color(display-p3 0.3529 0.6506 1.0000);stop-opacity:1;"/>
</radialGradient>
</defs>
</svg>
