<svg width="129" height="128" viewBox="0 0 129 128" fill="none" xmlns="http://www.w3.org/2000/svg">
<path d="M84.5528 19H100.661V76.9221C100.661 83.2713 99.1556 88.8557 96.1453 93.6753C93.1639 98.495 88.967 102.261 83.5542 104.974C78.1414 107.658 71.8166 109 64.5803 109C57.315 109 50.9761 107.658 45.5634 104.974C40.1506 102.261 35.9535 98.495 32.9721 93.6753C29.9907 88.8557 28.5 83.2713 28.5 76.9221V19H44.6082V75.5801C44.6082 79.2742 45.4186 82.5642 47.0396 85.4502C48.6895 88.3362 51.0051 90.6017 53.9865 92.2468C56.9679 93.8629 60.499 94.671 64.5803 94.671C68.6616 94.671 72.1931 93.8629 75.1745 92.2468C78.1848 90.6017 80.5003 88.3362 82.1212 85.4502C83.7422 82.5642 84.5528 79.2742 84.5528 75.5801V19Z" fill="#DFE6EB" style="fill:#DFE6EB;fill:color(display-p3 0.8745 0.9020 0.9216);fill-opacity:1;"/>
<path d="M84.5528 19H100.661V76.9221C100.661 83.2713 99.1556 88.8557 96.1453 93.6753C93.1639 98.495 88.967 102.261 83.5542 104.974C78.1414 107.658 71.8166 109 64.5803 109C57.315 109 50.9761 107.658 45.5634 104.974C40.1506 102.261 35.9535 98.495 32.9721 93.6753C29.9907 88.8557 28.5 83.2713 28.5 76.9221V19H44.6082V75.5801C44.6082 79.2742 45.4186 82.5642 47.0396 85.4502C48.6895 88.3362 51.0051 90.6017 53.9865 92.2468C56.9679 93.8629 60.499 94.671 64.5803 94.671C68.6616 94.671 72.1931 93.8629 75.1745 92.2468C78.1848 90.6017 80.5003 88.3362 82.1212 85.4502C83.7422 82.5642 84.5528 79.2742 84.5528 75.5801V19Z" fill="#8CAFBF" style="fill:#8CAFBF;fill:color(display-p3 0.5490 0.6863 0.7490);fill-opacity:1;"/>
<path fill-rule="evenodd" clip-rule="evenodd" d="M81.5528 16H103.661V76.9221C103.661 83.7633 102.033 89.9101 98.6928 95.2597C95.3992 100.582 90.7705 104.713 84.8984 107.656L84.887 107.662C78.9858 110.588 72.1885 112 64.5803 112C56.9452 112 50.1333 110.589 44.2306 107.662L44.2191 107.656C38.3449 104.712 33.7147 100.578 30.4208 95.2535C27.1118 89.9043 25.5 83.7599 25.5 76.9221V16H47.6082V75.5801C47.6082 78.8159 48.3125 81.5862 49.6495 83.9709C51.017 86.359 52.9226 88.2312 55.426 89.6146C57.8856 90.9456 60.9021 91.671 64.5803 91.671C68.2607 91.671 71.2791 90.9447 73.7395 89.6122C76.2731 88.2269 78.1711 86.3571 79.5056 83.9811C80.8463 81.5939 81.5528 78.8204 81.5528 75.5801V16ZM75.1745 92.2468C72.1931 93.8629 68.6616 94.671 64.5803 94.671C60.499 94.671 56.9679 93.8629 53.9865 92.2468C51.0051 90.6017 48.6895 88.3362 47.0396 85.4502C45.4186 82.5642 44.6082 79.2742 44.6082 75.5801V19H28.5V76.9221C28.5 83.2713 29.9907 88.8557 32.9721 93.6753C35.9535 98.495 40.1506 102.261 45.5634 104.974C50.9761 107.658 57.315 109 64.5803 109C71.8166 109 78.1414 107.658 83.5542 104.974C88.967 102.261 93.1639 98.495 96.1453 93.6753C99.1556 88.8557 100.661 83.2713 100.661 76.9221V19H84.5528V75.5801C84.5528 79.2742 83.7422 82.5642 82.1212 85.4502C80.5003 88.3362 78.1848 90.6017 75.1745 92.2468Z" fill="#427687" style="fill:#427687;fill:color(display-p3 0.2588 0.4627 0.5294);fill-opacity:1;"/>
</svg>
