<svg width="128" height="128" viewBox="0 0 128 128" fill="none" xmlns="http://www.w3.org/2000/svg">
<path d="M63.6 118.8C35.7 118.8 5.59998 101.3 5.59998 62.9C5.59998 24.5 35.7 7 63.6 7C79.1 7 93.4 12.1 104 21.4C115.5 31.6 121.6 46 121.6 62.9C121.6 79.8 115.5 94.1 104 104.3C93.4 113.6 79 118.8 63.6 118.8Z" fill="url(#paint0_radial_169_7046)" style=""/>
<path d="M63.6 118.8C35.7 118.8 5.59998 101.3 5.59998 62.9C5.59998 24.5 35.7 7 63.6 7C79.1 7 93.4 12.1 104 21.4C115.5 31.6 121.6 46 121.6 62.9C121.6 79.8 115.5 94.1 104 104.3C93.4 113.6 79 118.8 63.6 118.8Z" fill="url(#paint1_radial_169_7046)" style=""/>
<path d="M63.6 118.8C35.7 118.8 5.59998 101.3 5.59998 62.9C5.59998 24.5 35.7 7 63.6 7C79.1 7 93.4 12.1 104 21.4C115.5 31.6 121.6 46 121.6 62.9C121.6 79.8 115.5 94.1 104 104.3C93.4 113.6 79 118.8 63.6 118.8Z" fill="url(#paint2_radial_169_7046)" style=""/>
<path opacity="0.8" d="M27.25 91.66C36.915 91.66 44.75 83.825 44.75 74.16C44.75 64.4951 36.915 56.66 27.25 56.66C17.585 56.66 9.75 64.4951 9.75 74.16C9.75 83.825 17.585 91.66 27.25 91.66Z" fill="url(#paint3_radial_169_7046)" style=""/>
<path d="M50.15 59.1001L50 58.8801L49.79 58.6101C49.71 58.5001 49.63 58.4101 49.53 58.3201L48.91 57.7001C48.66 57.4501 48.36 57.1801 48.05 56.9101C47.39 56.3401 46.65 55.8801 45.85 55.5201C45.07 55.1701 44.22 55.0001 43.37 55.0001H43C42.9 54.9801 42.81 54.9801 42.71 55.0001C42.53 55.0201 42.35 55.0501 42.17 55.0901C41.75 55.1901 41.35 55.3201 40.95 55.4801C40.15 55.8401 39.41 56.3001 38.75 56.8701C38.21 57.3301 37.71 57.8201 37.24 58.3401L36.67 58.9801L36.37 59.3201C35.18 60.7201 33.08 60.9001 31.68 59.7101C30.61 58.8001 30.22 57.3201 30.71 56.0001L30.82 55.6801C30.92 55.3701 31.04 55.0701 31.17 54.7701C31.65 53.6801 32.26 52.6601 33 51.7301C34.75 49.4201 37.21 47.7401 40 46.9401C40.57 46.7901 41.15 46.6801 41.74 46.6001C42.04 46.6001 42.48 46.5101 42.61 46.5101H43.37C44.51 46.5301 45.64 46.6901 46.74 46.9801C47.79 47.2701 48.8 47.6901 49.74 48.2301C51.29 49.1301 52.65 50.3401 53.74 51.7701C54.16 52.3101 54.54 52.8701 54.87 53.4701C55.14 53.9401 55.38 54.4201 55.59 54.9101C55.67 55.0701 55.74 55.2401 55.79 55.4101C55.79 55.5401 55.87 55.6501 55.9 55.7401L56 56.0001C56.57 57.7701 55.6 59.6701 53.83 60.2401C52.49 60.6601 51.02 60.2001 50.15 59.1001Z" fill="#5D4037" style="fill:#5D4037;fill:color(display-p3 0.3647 0.2510 0.2157);fill-opacity:1;"/>
<path d="M93.48 59.1001L93.3 58.8801L93.09 58.6101C93.01 58.5001 92.93 58.4101 92.83 58.3201L92.21 57.7001C91.96 57.4501 91.66 57.1801 91.35 56.9101C90.69 56.3401 89.95 55.8801 89.15 55.5201C88.38 55.1801 87.54 55.0001 86.7 55.0001H86.29C86.19 54.9801 86.1 54.9801 86 55.0001C85.82 55.0201 85.64 55.0501 85.46 55.0901C85.04 55.1901 84.64 55.3201 84.24 55.4801C83.43 55.8501 82.67 56.3301 82 56.9101C81.46 57.3701 80.96 57.8601 80.48 58.3801L80 59.0001L79.7 59.3401C78.58 60.8001 76.49 61.0701 75.03 59.9401C73.83 59.0201 73.4 57.4001 74 56.0001L74.11 55.6801C74.21 55.3701 74.33 55.0701 74.46 54.7701C74.93 53.6701 75.55 52.6401 76.28 51.6901C78.03 49.3801 80.49 47.7001 83.28 46.9001C83.85 46.7501 84.43 46.6401 85.02 46.5601C85.32 46.5601 85.75 46.4701 85.89 46.4701H86.65C87.79 46.4901 88.92 46.6501 90.02 46.9401C91.07 47.2301 92.08 47.6501 93.02 48.1901C94.57 49.0901 95.93 50.3001 97.02 51.7301C97.44 52.2701 97.82 52.8301 98.15 53.4301C98.42 53.9001 98.66 54.3801 98.87 54.8701C98.95 55.0301 99.02 55.2001 99.07 55.3701L99.18 55.7001L99.27 55.9701C99.84 57.7401 98.87 59.6301 97.1 60.2001C95.77 60.6301 94.32 60.1901 93.45 59.1001H93.48Z" fill="#5D4037" style="fill:#5D4037;fill:color(display-p3 0.3647 0.2510 0.2157);fill-opacity:1;"/>
<path d="M72.8599 84.9301C74.5699 83.4201 75.6399 81.3301 75.8599 79.0601C76.0499 75.4601 75.1299 74.2201 73.9499 72.6501C71.2399 69.0001 63.5499 69.8701 63.5499 69.8701C61.5499 69.9501 59.1099 70.9301 59.3999 73.3101C59.7899 74.6601 60.8899 75.6901 62.2699 76.0001C65.2699 76.7301 69.6399 76.0001 69.7599 79.0901C69.8999 82.5501 64.5799 81.0901 64.1599 84.7901C63.7399 88.4901 69.7599 87.9801 69.7599 90.5001C69.7599 92.4301 67.7599 92.7601 65.6899 93.2001C63.8999 93.5701 60.4599 94.1301 60.1799 96.2001C59.8999 98.2701 61.0899 100.77 65.9299 100.04C73.5399 98.8901 76.0999 94.7201 76.0999 92.1601C76.1499 89.3901 74.9599 86.7401 72.8599 84.9301Z" fill="#5D4037" style="fill:#5D4037;fill:color(display-p3 0.3647 0.2510 0.2157);fill-opacity:1;"/>
<path d="M47.18 32.6101C49.49 32.6101 50.18 29.4801 47.71 28.9601C45.79 28.6001 43.82 28.5401 41.88 28.7901C36.63 29.3801 31.8 31.9601 28.38 36.0001C26.81 37.9201 29.38 39.9401 31.07 38.5101C35.63 34.8001 41.3 32.7201 47.18 32.6101Z" fill="#5D4037" style="fill:#5D4037;fill:color(display-p3 0.3647 0.2510 0.2157);fill-opacity:1;"/>
<path d="M80 33.29C77.71 33.55 76.73 30.47 79.11 29.71C81 29.17 82.97 28.93 84.94 29C90.23 29.07 95.29 31.17 99.08 34.86C100.83 36.62 98.48 38.86 96.65 37.62C91.74 34.35 85.88 32.82 80 33.29Z" fill="#5D4037" style="fill:#5D4037;fill:color(display-p3 0.3647 0.2510 0.2157);fill-opacity:1;"/>
<path d="M111.49 29.67C116.82 38.27 119.6 48.51 119.6 59.9C119.6 76.8 113.5 91.1 102 101.3C91.4 110.6 77 115.8 61.6 115.8C43.54 115.8 24.6 108.45 13.42 92.86C24.18 110.52 44.42 118.8 63.6 118.8C79 118.8 93.4 113.6 104 104.3C115.5 94.1001 121.6 79.8 121.6 62.9C121.6 50.16 118.13 38.84 111.49 29.67Z" fill="#EB8F00" style="fill:#EB8F00;fill:color(display-p3 0.9216 0.5608 0.0000);fill-opacity:1;"/>
<path d="M111.49 29.67C116.82 38.27 119.6 48.51 119.6 59.9C119.6 76.8 113.5 91.1 102 101.3C91.4 110.6 77 115.8 61.6 115.8C43.54 115.8 24.6 108.45 13.42 92.86C24.18 110.52 44.42 118.8 63.6 118.8C79 118.8 93.4 113.6 104 104.3C115.5 94.1001 121.6 79.8 121.6 62.9C121.6 50.16 118.13 38.84 111.49 29.67Z" fill="#F3B872" style="fill:#F3B872;fill:color(display-p3 0.9542 0.7229 0.4453);fill-opacity:1;"/>
<path d="M111.49 29.67C116.82 38.27 119.6 48.51 119.6 59.9C119.6 76.8 113.5 91.1 102 101.3C91.4 110.6 77 115.8 61.6 115.8C43.54 115.8 24.6 108.45 13.42 92.86C24.18 110.52 44.42 118.8 63.6 118.8C79 118.8 93.4 113.6 104 104.3C115.5 94.1001 121.6 79.8 121.6 62.9C121.6 50.16 118.13 38.84 111.49 29.67Z" fill="#BA8F63" style="fill:#BA8F63;fill:color(display-p3 0.7294 0.5608 0.3882);fill-opacity:1;"/>
<path opacity="0.8" d="M100.63 91.66C110.295 91.66 118.13 83.825 118.13 74.16C118.13 64.4951 110.295 56.66 100.63 56.66C90.965 56.66 83.13 64.4951 83.13 74.16C83.13 83.825 90.965 91.66 100.63 91.66Z" fill="url(#paint4_radial_169_7046)" style=""/>
<defs>
<radialGradient id="paint0_radial_169_7046" cx="0" cy="0" r="1" gradientUnits="userSpaceOnUse" gradientTransform="translate(63.6 62.9) scale(56.9597 56.9597)">
<stop offset="0.5" stop-color="#FDE030" style="stop-color:#FDE030;stop-color:color(display-p3 0.9922 0.8784 0.1882);stop-opacity:1;"/>
<stop offset="0.92" stop-color="#F7C02B" style="stop-color:#F7C02B;stop-color:color(display-p3 0.9686 0.7529 0.1686);stop-opacity:1;"/>
<stop offset="1" stop-color="#F4A223" style="stop-color:#F4A223;stop-color:color(display-p3 0.9569 0.6353 0.1373);stop-opacity:1;"/>
</radialGradient>
<radialGradient id="paint1_radial_169_7046" cx="0" cy="0" r="1" gradientUnits="userSpaceOnUse" gradientTransform="translate(38.599 34.5377) rotate(-43.2082) scale(102.024 101.825)">
<stop offset="0.3533" stop-color="#F9DDBD" style="stop-color:#F9DDBD;stop-color:color(display-p3 0.9765 0.8667 0.7412);stop-opacity:1;"/>
<stop offset="0.8723" stop-color="#FFD29C" style="stop-color:#FFD29C;stop-color:color(display-p3 1.0000 0.8235 0.6118);stop-opacity:1;"/>
</radialGradient>
<radialGradient id="paint2_radial_169_7046" cx="0" cy="0" r="1" gradientUnits="userSpaceOnUse" gradientTransform="translate(38.599 34.5377) rotate(-43.2082) scale(102.024 101.825)">
<stop offset="0.3533" stop-color="#E0BB95" style="stop-color:#E0BB95;stop-color:color(display-p3 0.8784 0.7333 0.5843);stop-opacity:1;"/>
<stop offset="0.8723" stop-color="#CCA47A" style="stop-color:#CCA47A;stop-color:color(display-p3 0.8000 0.6431 0.4784);stop-opacity:1;"/>
</radialGradient>
<radialGradient id="paint3_radial_169_7046" cx="0" cy="0" r="1" gradientUnits="userSpaceOnUse" gradientTransform="translate(27.25 74.1223) scale(19.0628 18.0902)">
<stop stop-color="#ED7770" style="stop-color:#ED7770;stop-color:color(display-p3 0.9294 0.4667 0.4392);stop-opacity:1;"/>
<stop offset="0.08" stop-color="#ED7770" stop-opacity="0.96" style="stop-color:#ED7770;stop-color:color(display-p3 0.9294 0.4667 0.4392);stop-opacity:0.96;"/>
<stop offset="0.22" stop-color="#ED7770" stop-opacity="0.85" style="stop-color:#ED7770;stop-color:color(display-p3 0.9294 0.4667 0.4392);stop-opacity:0.85;"/>
<stop offset="0.39" stop-color="#ED7770" stop-opacity="0.68" style="stop-color:#ED7770;stop-color:color(display-p3 0.9294 0.4667 0.4392);stop-opacity:0.68;"/>
<stop offset="0.59" stop-color="#ED7770" stop-opacity="0.43" style="stop-color:#ED7770;stop-color:color(display-p3 0.9294 0.4667 0.4392);stop-opacity:0.43;"/>
<stop offset="0.81" stop-color="#ED7770" stop-opacity="0.13" style="stop-color:#ED7770;stop-color:color(display-p3 0.9294 0.4667 0.4392);stop-opacity:0.13;"/>
<stop offset="0.9" stop-color="#ED7770" stop-opacity="0" style="stop-color:none;stop-opacity:0;"/>
</radialGradient>
<radialGradient id="paint4_radial_169_7046" cx="0" cy="0" r="1" gradientUnits="userSpaceOnUse" gradientTransform="translate(100.635 74.1223) scale(19.0628 18.0902)">
<stop stop-color="#ED7770" style="stop-color:#ED7770;stop-color:color(display-p3 0.9294 0.4667 0.4392);stop-opacity:1;"/>
<stop offset="0.08" stop-color="#ED7770" stop-opacity="0.96" style="stop-color:#ED7770;stop-color:color(display-p3 0.9294 0.4667 0.4392);stop-opacity:0.96;"/>
<stop offset="0.22" stop-color="#ED7770" stop-opacity="0.85" style="stop-color:#ED7770;stop-color:color(display-p3 0.9294 0.4667 0.4392);stop-opacity:0.85;"/>
<stop offset="0.39" stop-color="#ED7770" stop-opacity="0.68" style="stop-color:#ED7770;stop-color:color(display-p3 0.9294 0.4667 0.4392);stop-opacity:0.68;"/>
<stop offset="0.59" stop-color="#ED7770" stop-opacity="0.43" style="stop-color:#ED7770;stop-color:color(display-p3 0.9294 0.4667 0.4392);stop-opacity:0.43;"/>
<stop offset="0.81" stop-color="#ED7770" stop-opacity="0.13" style="stop-color:#ED7770;stop-color:color(display-p3 0.9294 0.4667 0.4392);stop-opacity:0.13;"/>
<stop offset="0.9" stop-color="#ED7770" stop-opacity="0" style="stop-color:none;stop-opacity:0;"/>
</radialGradient>
</defs>
</svg>
