<svg width="128" height="128" viewBox="0 0 128 128" fill="none" xmlns="http://www.w3.org/2000/svg">
<path d="M63.22 118.8C35.32 118.8 5.21997 101.3 5.21997 62.9C5.21997 24.5 35.32 7 63.22 7C78.72 7 93.02 12.1 103.62 21.4C115.12 31.6 121.22 46 121.22 62.9C121.22 79.8 115.12 94.1 103.62 104.3C93 113.6 78.62 118.8 63.22 118.8Z" fill="url(#paint0_radial_169_7425)" style=""/>
<path d="M63.22 118.8C35.32 118.8 5.21997 101.3 5.21997 62.9C5.21997 24.5 35.32 7 63.22 7C78.72 7 93.02 12.1 103.62 21.4C115.12 31.6 121.22 46 121.22 62.9C121.22 79.8 115.12 94.1 103.62 104.3C93 113.6 78.62 118.8 63.22 118.8Z" fill="url(#paint1_radial_169_7425)" style=""/>
<path d="M63.22 118.8C35.32 118.8 5.21997 101.3 5.21997 62.9C5.21997 24.5 35.32 7 63.22 7C78.72 7 93.02 12.1 103.62 21.4C115.12 31.6 121.22 46 121.22 62.9C121.22 79.8 115.12 94.1 103.62 104.3C93 113.6 78.62 118.8 63.22 118.8Z" fill="url(#paint2_radial_169_7425)" style=""/>
<path d="M44 40.9399C39.81 40.9399 36 44.4799 36 50.3599C36 56.2399 39.81 59.7699 44 59.7699C48.2 59.7699 52 56.2299 52 50.3599C52 44.4899 48.24 40.9399 44 40.9399Z" fill="#5D4037" style="fill:#5D4037;fill:color(display-p3 0.3647 0.2510 0.2157);fill-opacity:1;"/>
<path d="M43.65 44.87C42.23 44.19 40.52 44.79 39.83 46.21C39.3 47.32 39.54 48.65 40.43 49.51C41.85 50.19 43.56 49.59 44.25 48.17C44.78 47.06 44.54 45.73 43.65 44.87Z" fill="#836258" style="fill:#836258;fill:color(display-p3 0.5125 0.3838 0.3438);fill-opacity:1;"/>
<path d="M82.4 40.9399C78.21 40.9399 74.4 44.4799 74.4 50.3599C74.4 56.2399 78.21 59.7699 82.4 59.7699C86.59 59.7699 90.4 56.2299 90.4 50.3599C90.4 44.4899 86.59 40.9399 82.4 40.9399Z" fill="#5D4037" style="fill:#5D4037;fill:color(display-p3 0.3647 0.2510 0.2157);fill-opacity:1;"/>
<path d="M81.9999 44.87C80.5799 44.19 78.8699 44.79 78.1799 46.21C77.6499 47.32 77.8899 48.65 78.7799 49.51C80.1999 50.19 81.9099 49.59 82.5999 48.17C83.1299 47.06 82.8899 45.73 81.9999 44.87Z" fill="#836258" style="fill:#836258;fill:color(display-p3 0.5125 0.3838 0.3438);fill-opacity:1;"/>
<path d="M111.49 29.67C116.82 38.27 119.6 48.51 119.6 59.9C119.6 76.8 113.5 91.1 102 101.3C91.4 110.6 77 115.8 61.6 115.8C43.54 115.8 24.6 108.45 13.42 92.86C24.18 110.52 44.42 118.8 63.6 118.8C79 118.8 93.4 113.6 104 104.3C115.5 94.1001 121.6 79.8 121.6 62.9C121.6 50.16 118.13 38.84 111.49 29.67Z" fill="#EB8F00" style="fill:#EB8F00;fill:color(display-p3 0.9216 0.5608 0.0000);fill-opacity:1;"/>
<path d="M111.49 29.67C116.82 38.27 119.6 48.51 119.6 59.9C119.6 76.8 113.5 91.1 102 101.3C91.4 110.6 77 115.8 61.6 115.8C43.54 115.8 24.6 108.45 13.42 92.86C24.18 110.52 44.42 118.8 63.6 118.8C79 118.8 93.4 113.6 104 104.3C115.5 94.1001 121.6 79.8 121.6 62.9C121.6 50.16 118.13 38.84 111.49 29.67Z" fill="#F3B872" style="fill:#F3B872;fill:color(display-p3 0.9542 0.7229 0.4453);fill-opacity:1;"/>
<path d="M111.49 29.67C116.82 38.27 119.6 48.51 119.6 59.9C119.6 76.8 113.5 91.1 102 101.3C91.4 110.6 77 115.8 61.6 115.8C43.54 115.8 24.6 108.45 13.42 92.86C24.18 110.52 44.42 118.8 63.6 118.8C79 118.8 93.4 113.6 104 104.3C115.5 94.1001 121.6 79.8 121.6 62.9C121.6 50.16 118.13 38.84 111.49 29.67Z" fill="#BA8F63" style="fill:#BA8F63;fill:color(display-p3 0.7294 0.5608 0.3882);fill-opacity:1;"/>
<path d="M102.07 71.62C100.67 69.09 97.63 67.98 94.93 69C84.67 71.99 74.03 73.48 63.34 73.43C52.65 73.48 42.01 71.99 31.75 69C29.06 67.98 26.02 69.08 24.62 71.6C23.26 74.11 24.24 77.02 25.39 79.53C31.81 93.63 45.96 102.07 63.26 102.12H63.42C80.72 102.12 94.87 93.63 101.3 79.53C102.44 77 103.43 74.13 102.07 71.62Z" fill="#5D4037" style="fill:#5D4037;fill:color(display-p3 0.3647 0.2510 0.2157);fill-opacity:1;"/>
<path d="M79.35 98.14C78.98 97.8 78.6 97.49 78.22 97.14C74.14 93.55 68.86 91.62 63.42 91.73C57.82 91.64 52.37 93.5 48 97C47.62 97.31 47.22 97.61 46.85 98C46.48 98.39 46.28 98.67 46.04 99C51.54 101.15 57.4 102.25 63.31 102.22H63.47C69.13 102.22 74.74 101.21 80.04 99.22C79.84 98.84 79.61 98.48 79.35 98.14Z" fill="#ED7770" style="fill:#ED7770;fill:color(display-p3 0.9294 0.4667 0.4392);fill-opacity:1;"/>
<path d="M94.93 69C84.67 71.99 74.03 73.48 63.34 73.43C52.65 73.48 42.01 71.99 31.75 69C29.06 67.98 26.02 69.08 24.62 71.6C24.42 71.98 24.26 72.38 24.16 72.79C24.49 72.96 24.87 73.13 25.32 73.31C37.36 79.34 50.67 82.4 64.13 82.24C77.04 82.39 89.8 79.58 101.46 74.04C101.93 73.84 102.32 73.65 102.67 73.47C102.59 72.82 102.38 72.18 102.07 71.6C100.67 69.08 97.63 67.97 94.93 69Z" fill="white" style="fill:white;fill-opacity:1;"/>
<path d="M102.11 71.63C100.69 69.1 97.64 67.98 94.92 69C84.66 71.99 74.02 73.48 63.34 73.43C52.65 73.48 42.01 71.99 31.75 69C29.06 67.98 26.02 69.08 24.62 71.6C23.26 74.11 24.24 77.02 25.39 79.53C25.9 80.66 26.47 81.77 27.1 82.84C27.1 82.84 25 75.06 26.82 72.8C27.44 71.84 28.48 71.24 29.62 71.18C30.09 71.18 30.55 71.26 31 71.4C41.44 74.47 52.27 76.02 63.16 76H63.51C74.4 76.02 85.23 74.47 95.67 71.4C96.12 71.26 96.58 71.18 97.05 71.18C98.19 71.24 99.24 71.84 99.86 72.8C101.71 75.06 99.58 82.87 99.58 82.87C100.2 81.8 100.82 80.7 101.34 79.56C102.48 77.05 103.47 74.15 102.11 71.63Z" fill="#EB8F00" style="fill:#EB8F00;fill:color(display-p3 0.9216 0.5608 0.0000);fill-opacity:1;"/>
<path d="M102.11 71.63C100.69 69.1 97.64 67.98 94.92 69C84.66 71.99 74.02 73.48 63.34 73.43C52.65 73.48 42.01 71.99 31.75 69C29.06 67.98 26.02 69.08 24.62 71.6C23.26 74.11 24.24 77.02 25.39 79.53C25.9 80.66 26.47 81.77 27.1 82.84C27.1 82.84 25 75.06 26.82 72.8C27.44 71.84 28.48 71.24 29.62 71.18C30.09 71.18 30.55 71.26 31 71.4C41.44 74.47 52.27 76.02 63.16 76H63.51C74.4 76.02 85.23 74.47 95.67 71.4C96.12 71.26 96.58 71.18 97.05 71.18C98.19 71.24 99.24 71.84 99.86 72.8C101.71 75.06 99.58 82.87 99.58 82.87C100.2 81.8 100.82 80.7 101.34 79.56C102.48 77.05 103.47 74.15 102.11 71.63Z" fill="#F3B872" style="fill:#F3B872;fill:color(display-p3 0.9542 0.7229 0.4453);fill-opacity:1;"/>
<path d="M102.11 71.63C100.69 69.1 97.64 67.98 94.92 69C84.66 71.99 74.02 73.48 63.34 73.43C52.65 73.48 42.01 71.99 31.75 69C29.06 67.98 26.02 69.08 24.62 71.6C23.26 74.11 24.24 77.02 25.39 79.53C25.9 80.66 26.47 81.77 27.1 82.84C27.1 82.84 25 75.06 26.82 72.8C27.44 71.84 28.48 71.24 29.62 71.18C30.09 71.18 30.55 71.26 31 71.4C41.44 74.47 52.27 76.02 63.16 76H63.51C74.4 76.02 85.23 74.47 95.67 71.4C96.12 71.26 96.58 71.18 97.05 71.18C98.19 71.24 99.24 71.84 99.86 72.8C101.71 75.06 99.58 82.87 99.58 82.87C100.2 81.8 100.82 80.7 101.34 79.56C102.48 77.05 103.47 74.15 102.11 71.63Z" fill="#BA8F63" style="fill:#BA8F63;fill:color(display-p3 0.7294 0.5608 0.3882);fill-opacity:1;"/>
<defs>
<radialGradient id="paint0_radial_169_7425" cx="0" cy="0" r="1" gradientUnits="userSpaceOnUse" gradientTransform="translate(63.22 62.9) scale(56.9597 56.9597)">
<stop offset="0.5" stop-color="#FDE030" style="stop-color:#FDE030;stop-color:color(display-p3 0.9922 0.8784 0.1882);stop-opacity:1;"/>
<stop offset="0.92" stop-color="#F7C02B" style="stop-color:#F7C02B;stop-color:color(display-p3 0.9686 0.7529 0.1686);stop-opacity:1;"/>
<stop offset="1" stop-color="#F4A223" style="stop-color:#F4A223;stop-color:color(display-p3 0.9569 0.6353 0.1373);stop-opacity:1;"/>
</radialGradient>
<radialGradient id="paint1_radial_169_7425" cx="0" cy="0" r="1" gradientUnits="userSpaceOnUse" gradientTransform="translate(38.219 34.5377) rotate(-43.2082) scale(102.024 101.825)">
<stop offset="0.3533" stop-color="#F9DDBD" style="stop-color:#F9DDBD;stop-color:color(display-p3 0.9765 0.8667 0.7412);stop-opacity:1;"/>
<stop offset="0.8723" stop-color="#FFD29C" style="stop-color:#FFD29C;stop-color:color(display-p3 1.0000 0.8235 0.6118);stop-opacity:1;"/>
</radialGradient>
<radialGradient id="paint2_radial_169_7425" cx="0" cy="0" r="1" gradientUnits="userSpaceOnUse" gradientTransform="translate(38.219 34.5377) rotate(-43.2082) scale(102.024 101.825)">
<stop offset="0.3533" stop-color="#E0BB95" style="stop-color:#E0BB95;stop-color:color(display-p3 0.8784 0.7333 0.5843);stop-opacity:1;"/>
<stop offset="0.8723" stop-color="#CCA47A" style="stop-color:#CCA47A;stop-color:color(display-p3 0.8000 0.6431 0.4784);stop-opacity:1;"/>
</radialGradient>
</defs>
</svg>
