<svg width="129" height="128" viewBox="0 0 129 128" fill="none" xmlns="http://www.w3.org/2000/svg">
<path d="M81.3524 44.2444C80.9526 40.514 79.2675 37.6094 76.2972 35.5306C73.3554 33.4518 69.5283 32.4124 64.8157 32.4124C61.5027 32.4124 58.6609 32.9108 56.2904 33.9075C53.9198 34.9041 52.1063 36.2568 50.8497 37.9654C49.593 39.6739 48.9504 41.6246 48.9218 43.8173C48.9218 45.6398 49.3358 47.2202 50.164 48.5586C51.0209 49.897 52.1778 51.0361 53.6344 51.9758C55.091 52.887 56.7047 53.6559 58.4755 54.2824C60.2462 54.9089 62.0311 55.4357 63.8304 55.8628L72.0558 57.9131C75.3689 58.682 78.5535 59.7214 81.6095 61.0313C84.694 62.3412 87.4503 63.9929 89.878 65.9862C92.3342 67.9796 94.2761 70.3859 95.7042 73.205C97.1322 76.0242 97.8464 79.3275 97.8464 83.1149C97.8464 88.2406 96.5326 92.7542 93.905 96.6554C91.2774 100.528 87.4786 103.561 82.5091 105.754C77.5681 107.918 71.5848 109 64.5589 109C57.7329 109 51.8065 107.946 46.7798 105.839C41.7817 103.732 37.8688 100.656 35.0413 96.6127C32.2423 92.5691 30.7285 87.6426 30.5 81.8334H46.1371C46.3656 84.8804 47.308 87.4148 48.9645 89.4366C50.621 91.4585 52.7775 92.9677 55.4336 93.9644C58.1183 94.9611 61.1172 95.4594 64.4303 95.4594C67.8861 95.4594 70.9136 94.9469 73.5126 93.9217C76.1402 92.8681 78.1965 91.4158 79.6816 89.5648C81.1668 87.6853 81.9237 85.4926 81.9523 82.9867C81.9237 80.7086 81.2525 78.8291 79.9387 77.3484C78.6249 75.8391 76.7828 74.5861 74.4122 73.5895C72.0703 72.5643 69.3285 71.6531 66.1868 70.8557L56.2048 68.2928C48.9789 66.4419 43.2667 63.6369 39.0683 59.878C34.8984 56.0907 32.8135 51.0645 32.8135 44.7997C32.8135 39.6455 34.2131 35.1319 37.012 31.2591C39.8395 27.3863 43.681 24.3821 48.5364 22.2463C53.3917 20.0821 58.8896 19 65.0301 19C71.2564 19 76.7113 20.0821 81.3953 22.2463C86.1078 24.3821 89.8065 27.3579 92.4913 31.1737C95.176 34.9611 96.561 39.318 96.6467 44.2444H81.3524Z" fill="#DFE6EB" style="fill:#DFE6EB;fill:color(display-p3 0.8745 0.9020 0.9216);fill-opacity:1;"/>
<path d="M81.3524 44.2444C80.9526 40.514 79.2675 37.6094 76.2972 35.5306C73.3554 33.4518 69.5283 32.4124 64.8157 32.4124C61.5027 32.4124 58.6609 32.9108 56.2904 33.9075C53.9198 34.9041 52.1063 36.2568 50.8497 37.9654C49.593 39.6739 48.9504 41.6246 48.9218 43.8173C48.9218 45.6398 49.3358 47.2202 50.164 48.5586C51.0209 49.897 52.1778 51.0361 53.6344 51.9758C55.091 52.887 56.7047 53.6559 58.4755 54.2824C60.2462 54.9089 62.0311 55.4357 63.8304 55.8628L72.0558 57.9131C75.3689 58.682 78.5535 59.7214 81.6095 61.0313C84.694 62.3412 87.4503 63.9929 89.878 65.9862C92.3342 67.9796 94.2761 70.3859 95.7042 73.205C97.1322 76.0242 97.8464 79.3275 97.8464 83.1149C97.8464 88.2406 96.5326 92.7542 93.905 96.6554C91.2774 100.528 87.4786 103.561 82.5091 105.754C77.5681 107.918 71.5848 109 64.5589 109C57.7329 109 51.8065 107.946 46.7798 105.839C41.7817 103.732 37.8688 100.656 35.0413 96.6127C32.2423 92.5691 30.7285 87.6426 30.5 81.8334H46.1371C46.3656 84.8804 47.308 87.4148 48.9645 89.4366C50.621 91.4585 52.7775 92.9677 55.4336 93.9644C58.1183 94.9611 61.1172 95.4594 64.4303 95.4594C67.8861 95.4594 70.9136 94.9469 73.5126 93.9217C76.1402 92.8681 78.1965 91.4158 79.6816 89.5648C81.1668 87.6853 81.9237 85.4926 81.9523 82.9867C81.9237 80.7086 81.2525 78.8291 79.9387 77.3484C78.6249 75.8391 76.7828 74.5861 74.4122 73.5895C72.0703 72.5643 69.3285 71.6531 66.1868 70.8557L56.2048 68.2928C48.9789 66.4419 43.2667 63.6369 39.0683 59.878C34.8984 56.0907 32.8135 51.0645 32.8135 44.7997C32.8135 39.6455 34.2131 35.1319 37.012 31.2591C39.8395 27.3863 43.681 24.3821 48.5364 22.2463C53.3917 20.0821 58.8896 19 65.0301 19C71.2564 19 76.7113 20.0821 81.3953 22.2463C86.1078 24.3821 89.8065 27.3579 92.4913 31.1737C95.176 34.9611 96.561 39.318 96.6467 44.2444H81.3524Z" fill="#8CAFBF" style="fill:#8CAFBF;fill:color(display-p3 0.5490 0.6863 0.7490);fill-opacity:1;"/>
<path fill-rule="evenodd" clip-rule="evenodd" d="M78.657 47.2444L78.3697 44.5642C78.0585 41.6611 76.8098 39.5509 74.5773 37.9885L74.5661 37.9807C72.2663 36.3555 69.0982 35.4124 64.8159 35.4124C61.792 35.4124 59.3662 35.8687 57.4533 36.673C55.4762 37.5042 54.1402 38.5551 53.2666 39.7429C52.3977 40.9242 51.9462 42.2562 51.9221 43.8369C51.9249 45.1712 52.2221 46.1747 52.7037 46.9612C53.3041 47.8924 54.1319 48.7234 55.2439 49.4438C56.4938 50.2238 57.9008 50.8968 59.4763 51.4542C61.1478 52.0456 62.83 52.5419 64.5235 52.944L64.5399 52.9478L72.7583 54.9964C76.2297 55.8035 79.5736 56.8949 82.7873 58.2721C86.1129 59.6849 89.1147 61.4787 91.7749 63.6619C94.5554 65.9198 96.7631 68.6561 98.3806 71.8494C100.06 75.1642 100.847 78.949 100.847 83.1149C100.847 88.7817 99.3845 93.8903 96.3934 98.3313L96.3877 98.3398C93.3961 102.749 89.1205 106.116 83.7203 108.498L83.7129 108.502C78.2962 110.874 71.8796 112 64.5591 112C57.4319 112 51.0942 110.901 45.6202 108.606L45.6145 108.603C40.1491 106.299 35.7662 102.884 32.5829 98.3319L32.5788 98.326L32.5748 98.3201C29.3963 93.7282 27.7493 88.2248 27.5025 81.9513L27.3799 78.8334H48.9207L49.1289 81.6091C49.3193 84.1484 50.0822 86.067 51.2853 87.5353C52.5775 89.1125 54.28 90.3263 56.4825 91.1536C58.784 92.0074 61.4208 92.4594 64.4305 92.4594C67.5921 92.4594 70.2295 91.9905 72.4043 91.134C74.6363 90.2377 76.2313 89.068 77.3348 87.6961C78.3776 86.3729 78.9243 84.8438 78.9522 82.9887C78.925 81.3353 78.4534 80.1944 77.6948 79.3394L77.6854 79.3288L77.6761 79.3181C76.7366 78.2388 75.3141 77.2229 73.2497 76.355L73.2295 76.3465L73.2095 76.3377C71.0514 75.3931 68.4716 74.5306 65.449 73.7635L65.4409 73.7615L55.4606 71.199C47.9132 69.2657 41.7219 66.2803 37.0674 62.1131L37.0594 62.106L37.0514 62.0988C32.1815 57.6755 29.8137 51.8047 29.8137 44.7997C29.8137 39.0669 31.3826 33.927 34.5807 29.5019L34.585 29.496L34.5893 29.4902C37.7596 25.1479 42.0384 21.8285 47.3219 19.5032C52.615 17.1451 58.5366 16 65.0303 16C71.5986 16 77.4948 17.1413 82.6438 19.5183C87.7833 21.8494 91.9192 25.1482 94.9425 29.4438C97.996 33.7536 99.5509 38.7034 99.6464 44.1923L99.6995 47.2444H78.657ZM92.4915 31.1737C89.8067 27.3579 86.108 24.3821 81.3955 22.2463C76.7115 20.0821 71.2566 19 65.0303 19C58.8898 19 53.3919 20.0821 48.5365 22.2463C43.6812 24.3821 39.8397 27.3863 37.0122 31.2591C34.2133 35.1319 32.8137 39.6455 32.8137 44.7997C32.8137 51.0645 34.8986 56.0907 39.0685 59.878C43.2669 63.6369 48.9791 66.4419 56.205 68.2928L66.187 70.8557C69.3287 71.6531 72.0705 72.5643 74.4124 73.5895C76.783 74.5861 78.6251 75.8391 79.9389 77.3484C81.2527 78.8291 81.9239 80.7086 81.9525 82.9867C81.9239 85.4926 81.167 87.6853 79.6818 89.5648C78.1967 91.4158 76.1404 92.8681 73.5128 93.9217C70.9138 94.9469 67.8863 95.4594 64.4305 95.4594C61.1174 95.4594 58.1185 94.9611 55.4338 93.9644C52.7777 92.9677 50.6212 91.4585 48.9647 89.4366C47.3082 87.4148 46.3657 84.8804 46.1373 81.8334H30.5002C30.5406 82.861 30.6213 83.861 30.7421 84.8334C31.3045 89.3579 32.7377 93.2844 35.0415 96.6127C37.869 100.656 41.7819 103.732 46.78 105.839C51.8067 107.946 57.7331 109 64.5591 109C71.585 109 77.5683 107.918 82.5093 105.754C87.4788 103.561 91.2776 100.528 93.9052 96.6554C96.5328 92.7542 97.8466 88.2406 97.8466 83.1149C97.8466 79.3275 97.1324 76.0242 95.7044 73.205C94.2763 70.3859 92.3344 67.9796 89.8782 65.9862C87.4505 63.9929 84.6942 62.3412 81.6097 61.0313C78.5537 59.7214 75.3691 58.682 72.056 57.9131L63.8306 55.8628C62.0313 55.4357 60.2464 54.9089 58.4757 54.2824C56.7049 53.6559 55.0912 52.887 53.6346 51.9758C52.178 51.0361 51.0211 49.897 50.1642 48.5586C49.336 47.2202 48.922 45.6398 48.922 43.8173C48.9506 41.6246 49.5932 39.6739 50.8499 37.9654C52.1065 36.2568 53.92 34.9041 56.2906 33.9075C58.6611 32.9108 61.5029 32.4124 64.8159 32.4124C69.5285 32.4124 73.3556 33.4518 76.2974 35.5306C79.2677 37.6094 80.9528 40.514 81.3526 44.2444H96.6469C96.629 43.2198 96.555 42.2198 96.4248 41.2444C95.9288 37.5303 94.6178 34.1734 92.4915 31.1737Z" fill="#427687" style="fill:#427687;fill:color(display-p3 0.2588 0.4627 0.5294);fill-opacity:1;"/>
</svg>
