<svg width="129" height="128" viewBox="0 0 129 128" fill="none" xmlns="http://www.w3.org/2000/svg">
<path fill-rule="evenodd" clip-rule="evenodd" d="M81.8036 22.6035C77.1023 20.2012 71.2844 19 64.3499 19H30.5V109H46.8519V76.041H63.4913L81.2306 109H99.4778L79.9538 73.3694C80.5413 73.133 81.1139 72.881 81.6715 72.6133C86.4317 70.2988 90.0312 67.0322 92.47 62.8135C94.9382 58.5654 96.1723 53.5557 96.1723 47.7842C96.1723 42.042 94.9527 37.0176 92.5139 32.7109C90.1045 28.375 86.5344 25.0059 81.8036 22.6035ZM46.8519 62.5059H61.9258C65.9807 62.5059 69.301 61.9492 71.8868 60.8359C74.4725 59.6934 76.3822 58.0381 77.6163 55.8701C78.8798 53.6729 79.5117 50.9775 79.5117 47.7842C79.5117 44.5908 78.8798 41.8662 77.6163 39.6104C76.3528 37.3252 74.4284 35.5967 71.8427 34.4248C69.2569 33.2236 65.9219 32.623 61.8376 32.623H46.8519V62.5059Z" fill="#DFE6EB" style="fill:#DFE6EB;fill:color(display-p3 0.8745 0.9020 0.9216);fill-opacity:1;"/>
<path fill-rule="evenodd" clip-rule="evenodd" d="M81.8036 22.6035C77.1023 20.2012 71.2844 19 64.3499 19H30.5V109H46.8519V76.041H63.4913L81.2306 109H99.4778L79.9538 73.3694C80.5413 73.133 81.1139 72.881 81.6715 72.6133C86.4317 70.2988 90.0312 67.0322 92.47 62.8135C94.9382 58.5654 96.1723 53.5557 96.1723 47.7842C96.1723 42.042 94.9527 37.0176 92.5139 32.7109C90.1045 28.375 86.5344 25.0059 81.8036 22.6035ZM46.8519 62.5059H61.9258C65.9807 62.5059 69.301 61.9492 71.8868 60.8359C74.4725 59.6934 76.3822 58.0381 77.6163 55.8701C78.8798 53.6729 79.5117 50.9775 79.5117 47.7842C79.5117 44.5908 78.8798 41.8662 77.6163 39.6104C76.3528 37.3252 74.4284 35.5967 71.8427 34.4248C69.2569 33.2236 65.9219 32.623 61.8376 32.623H46.8519V62.5059Z" fill="#8CAFBF" style="fill:#8CAFBF;fill:color(display-p3 0.5490 0.6863 0.7490);fill-opacity:1;"/>
<path fill-rule="evenodd" clip-rule="evenodd" d="M81.2306 109L63.4913 76.041H46.8519V109H30.5V19H64.3499C71.2844 19 77.1023 20.2012 81.8036 22.6035C86.5344 25.0059 90.1045 28.375 92.5139 32.7109C94.9527 37.0176 96.1723 42.042 96.1723 47.7842C96.1723 53.5557 94.9382 58.5654 92.47 62.8135C90.2063 66.7293 86.9427 69.8248 82.6791 72.0999C82.3492 72.276 82.0134 72.4471 81.6715 72.6133C81.1139 72.881 80.5413 73.133 79.9538 73.3694L99.4778 109H81.2306ZM84.1208 74.731L104.542 112H79.4383L61.699 79.041H49.8519V112H27.5V16H64.3499C71.6143 16 77.9307 17.2564 83.1654 19.9304C88.3851 22.5818 92.4107 26.3538 95.1306 31.2436C97.8589 36.0662 99.1723 41.6123 99.1723 47.7842C99.1723 53.9897 97.8422 59.5367 95.0667 64.3159C92.5054 68.746 88.8235 72.215 84.1208 74.731ZM75.0156 54.3746C75.9579 52.7361 76.5117 50.587 76.5117 47.7842C76.5117 44.9849 75.9591 42.7906 74.9989 41.0764L74.9949 41.0692L74.9909 41.062C74.0675 39.3918 72.6561 38.0872 70.6043 37.1573L70.5915 37.1515L70.5788 37.1456C68.5219 36.1901 65.6604 35.6231 61.8376 35.6231H49.8519V59.5059H61.9258C65.7303 59.5059 68.6042 58.98 70.6873 58.0861C72.7597 57.1677 74.1363 55.9193 75.0092 54.386L75.0156 54.3746ZM71.8868 60.8359C69.301 61.9492 65.9807 62.5059 61.9258 62.5059H46.8519V32.6231H61.8376C65.9219 32.6231 69.2569 33.2236 71.8427 34.4248C74.4284 35.5967 76.3528 37.3252 77.6163 39.6104C78.8798 41.8662 79.5117 44.5908 79.5117 47.7842C79.5117 50.9775 78.8798 53.6729 77.6163 55.8701C76.3822 58.0381 74.4725 59.6934 71.8868 60.8359Z" fill="#427687" style="fill:#427687;fill:color(display-p3 0.2588 0.4627 0.5294);fill-opacity:1;"/>
</svg>
