<svg width="128" height="128" viewBox="0 0 128 128" fill="none" xmlns="http://www.w3.org/2000/svg">
<path d="M4.27992 86.4L4.00992 90.77C3.86992 93.25 5.71992 94.15 7.51992 94.15H120.47C122.27 94.15 124.13 93.5 124 90.62L123.73 86.4H4.27992Z" fill="#2F7889" style="fill:#2F7889;fill:color(display-p3 0.1843 0.4706 0.5373);fill-opacity:1;"/>
<path d="M120.47 90.79H7.52996C5.72996 90.79 4.20996 89.27 4.20996 87.47L7.14996 37.16C7.14996 35.26 8.66996 33.84 10.47 33.84H117.54C119.34 33.84 120.86 35.36 120.86 37.16L123.8 87.47C123.8 89.27 122.28 90.79 120.47 90.79Z" fill="#C3D2D9" style="fill:#C3D2D9;fill:color(display-p3 0.7647 0.8235 0.8510);fill-opacity:1;"/>
<path d="M12.47 47.95C12.47 48.93 13.16 49.62 14.04 49.62H18.71C19.59 49.62 20.28 48.84 20.28 47.95L20.42 45.65H12.68L12.47 47.95Z" fill="#2F7889" style="fill:#2F7889;fill:color(display-p3 0.1843 0.4706 0.5373);fill-opacity:1;"/>
<path d="M24.23 47.95C24.23 48.93 24.92 49.62 25.8 49.62H30.4C31.39 49.62 31.97 48.92 31.97 47.95V45.65H24.26L24.23 47.95Z" fill="#2F7889" style="fill:#2F7889;fill:color(display-p3 0.1843 0.4706 0.5373);fill-opacity:1;"/>
<path d="M35.3 47.95C35.3 48.93 36.0801 49.62 36.9701 49.62H41.57C42.45 49.62 43.2401 48.97 43.2401 47.95V45.65H35.3V47.95Z" fill="#2F7889" style="fill:#2F7889;fill:color(display-p3 0.1843 0.4706 0.5373);fill-opacity:1;"/>
<path d="M46.5601 47.95C46.5601 48.93 47.3401 49.62 48.2301 49.62H52.8301C53.7101 49.62 54.5001 49.02 54.5001 47.95V45.65H46.5601V47.95Z" fill="#2F7889" style="fill:#2F7889;fill:color(display-p3 0.1843 0.4706 0.5373);fill-opacity:1;"/>
<path d="M57.73 47.95C57.73 48.93 58.38 49.62 59.4 49.62H64C64.88 49.62 65.67 49.11 65.67 47.95V45.65H57.73V47.95Z" fill="#2F7889" style="fill:#2F7889;fill:color(display-p3 0.1843 0.4706 0.5373);fill-opacity:1;"/>
<path d="M69 47.95C69 48.93 69.78 49.62 70.67 49.62H75.27C76.15 49.62 76.94 49.11 76.94 47.95V45.65H69V47.95Z" fill="#2F7889" style="fill:#2F7889;fill:color(display-p3 0.1843 0.4706 0.5373);fill-opacity:1;"/>
<path d="M80.1699 47.95C80.1699 48.93 80.9499 49.62 81.8399 49.62H86.4399C87.3199 49.62 88.0599 49.2 88.1099 47.95V45.65H80.1699V47.95Z" fill="#2F7889" style="fill:#2F7889;fill:color(display-p3 0.1843 0.4706 0.5373);fill-opacity:1;"/>
<path d="M91.3301 47.95C91.3301 48.93 92.1101 49.62 93.0001 49.62H97.8101C98.8401 49.62 99.6601 48.94 99.5701 47.86L99.4401 45.65H91.3301V47.95Z" fill="#2F7889" style="fill:#2F7889;fill:color(display-p3 0.1843 0.4706 0.5373);fill-opacity:1;"/>
<path d="M103.09 47.95C103.09 48.93 103.87 49.62 104.76 49.62H113.63C114.51 49.62 115.3 48.93 115.3 47.95L115.14 45.65H103.1V47.95H103.09Z" fill="#2F7889" style="fill:#2F7889;fill:color(display-p3 0.1843 0.4706 0.5373);fill-opacity:1;"/>
<path d="M107.23 59.7C107.23 60.58 108.01 61.37 108.9 61.37H114.34C115.22 61.37 116.01 60.68 116.01 59.7L115.91 58.21H107.24V59.7H107.23Z" fill="#2F7889" style="fill:#2F7889;fill:color(display-p3 0.1843 0.4706 0.5373);fill-opacity:1;"/>
<path d="M95.8401 59.7C95.8401 60.58 96.5301 61.37 97.5101 61.37H102.11C102.99 61.37 103.78 60.68 103.78 59.7V58.21H95.8401V59.7Z" fill="#2F7889" style="fill:#2F7889;fill:color(display-p3 0.1843 0.4706 0.5373);fill-opacity:1;"/>
<path d="M84.5701 59.7C84.6701 60.58 85.3501 61.37 86.2401 61.37H90.8401C91.7201 61.37 92.5101 60.68 92.5101 59.7V58.21H84.5701V59.7Z" fill="#2F7889" style="fill:#2F7889;fill:color(display-p3 0.1843 0.4706 0.5373);fill-opacity:1;"/>
<path d="M73.4099 59.7C73.4099 60.58 74.1899 61.37 75.0799 61.37H79.6799C80.5599 61.37 81.3499 60.68 81.3499 59.7V58.21H73.4099V59.7Z" fill="#2F7889" style="fill:#2F7889;fill:color(display-p3 0.1843 0.4706 0.5373);fill-opacity:1;"/>
<path d="M62.1399 59.7C62.2399 60.58 62.9199 61.37 63.8099 61.37H68.4099C69.2899 61.37 70.0799 60.68 70.0799 59.7V58.21H62.1399V59.7Z" fill="#2F7889" style="fill:#2F7889;fill:color(display-p3 0.1843 0.4706 0.5373);fill-opacity:1;"/>
<path d="M50.97 59.7C50.97 60.58 51.75 61.37 52.64 61.37H57.24C58.12 61.37 58.91 60.68 58.91 59.7V58.21H50.97V59.7Z" fill="#2F7889" style="fill:#2F7889;fill:color(display-p3 0.1843 0.4706 0.5373);fill-opacity:1;"/>
<path d="M39.8 59.7C39.8 60.58 40.5801 61.37 41.4701 61.37H46.07C46.95 61.37 47.7401 60.68 47.7401 59.7V58.21H39.8V59.7Z" fill="#2F7889" style="fill:#2F7889;fill:color(display-p3 0.1843 0.4706 0.5373);fill-opacity:1;"/>
<path d="M28.6299 59.7C28.6299 60.58 29.3199 61.37 30.1999 61.37H34.7999C35.6799 61.37 36.4699 60.68 36.4699 59.7V58.21H28.6299V59.7Z" fill="#2F7889" style="fill:#2F7889;fill:color(display-p3 0.1843 0.4706 0.5373);fill-opacity:1;"/>
<path d="M11.8201 59.7C11.8201 60.58 12.5101 61.37 13.3901 61.37H23.0501C23.9301 61.37 24.6201 60.68 24.6201 59.7V58.21L11.8301 58.18L11.8201 59.7Z" fill="#2F7889" style="fill:#2F7889;fill:color(display-p3 0.1843 0.4706 0.5373);fill-opacity:1;"/>
<path d="M79.6799 71.76C79.6799 72.57 80.3699 73.38 81.2499 73.38H85.8499C86.7299 73.38 87.4199 72.67 87.4199 71.76V70.39H79.6799V71.76Z" fill="#2F7889" style="fill:#2F7889;fill:color(display-p3 0.1843 0.4706 0.5373);fill-opacity:1;"/>
<path d="M67.9199 71.76C67.9199 72.57 68.6099 73.38 69.4899 73.38H74.0899C74.9699 73.38 75.6599 72.67 75.6599 71.76L75.6499 70.39H67.9199V71.76Z" fill="#2F7889" style="fill:#2F7889;fill:color(display-p3 0.1843 0.4706 0.5373);fill-opacity:1;"/>
<path d="M56.1599 71.76C56.1599 72.57 56.8499 73.38 57.7299 73.38H62.3299C63.2099 73.38 63.8999 72.67 63.8999 71.76V70.39H56.1599V71.76Z" fill="#2F7889" style="fill:#2F7889;fill:color(display-p3 0.1843 0.4706 0.5373);fill-opacity:1;"/>
<path d="M44.4099 71.76C44.3099 72.57 45.0999 73.38 45.9799 73.38H50.5799C51.4599 73.38 52.1499 72.67 52.1499 71.76V70.39H44.4099V71.76Z" fill="#2F7889" style="fill:#2F7889;fill:color(display-p3 0.1843 0.4706 0.5373);fill-opacity:1;"/>
<path d="M32.6499 71.76C32.5499 72.57 33.3399 73.38 34.2199 73.38H38.8199C39.6999 73.38 40.3899 72.67 40.3899 71.76V70.66H32.6499V71.76Z" fill="#2F7889" style="fill:#2F7889;fill:color(display-p3 0.1843 0.4706 0.5373);fill-opacity:1;"/>
<path d="M11.3899 71.66C11.3899 72.57 12.0799 73.38 12.9599 73.38H26.4499C27.3299 73.38 28.0199 72.67 28.0199 71.66L28.1399 70.35H11.4099L11.3899 71.66Z" fill="#2F7889" style="fill:#2F7889;fill:color(display-p3 0.1843 0.4706 0.5373);fill-opacity:1;"/>
<path d="M91.9499 71.76C92.0499 72.77 92.7299 73.48 93.6199 73.48H114.95C115.83 73.48 116.62 72.77 116.62 71.76L116.61 70.35L91.9299 70.4L91.9499 71.76Z" fill="#2F7889" style="fill:#2F7889;fill:color(display-p3 0.1843 0.4706 0.5373);fill-opacity:1;"/>
<path d="M109.38 85.23H115.51C116.39 85.23 117.18 84.51 117.18 83.49V81.94H107.71V83.49C107.71 84.42 108.5 85.23 109.38 85.23Z" fill="#2F7889" style="fill:#2F7889;fill:color(display-p3 0.1843 0.4706 0.5373);fill-opacity:1;"/>
<path d="M96.53 85.23H101.73C102.61 85.23 103.4 84.51 103.4 83.49V81.86L94.87 81.94V83.49C94.86 84.42 95.55 85.23 96.53 85.23Z" fill="#2F7889" style="fill:#2F7889;fill:color(display-p3 0.1843 0.4706 0.5373);fill-opacity:1;"/>
<path d="M38.92 85.23H88.88C89.76 85.23 90.55 84.51 90.55 83.49V81.94H37.25L37.26 83.49C37.26 84.68 38.04 85.23 38.92 85.23Z" fill="#2F7889" style="fill:#2F7889;fill:color(display-p3 0.1843 0.4706 0.5373);fill-opacity:1;"/>
<path d="M26.3201 85.23H31.3801C32.2601 85.23 33.0501 84.51 33.0501 83.49V81.94L24.8501 82.12L24.8601 83.49C24.8201 84.48 25.4401 85.23 26.3201 85.23Z" fill="#2F7889" style="fill:#2F7889;fill:color(display-p3 0.1843 0.4706 0.5373);fill-opacity:1;"/>
<path d="M12.18 85.23H18.59C19.47 85.23 20.16 84.51 20.16 83.49V81.94H10.62V83.49C10.61 84.42 11.29 85.23 12.18 85.23Z" fill="#2F7889" style="fill:#2F7889;fill:color(display-p3 0.1843 0.4706 0.5373);fill-opacity:1;"/>
<path d="M18.7799 47.9H14.1799C13.2999 47.9 12.6099 47.25 12.6099 46.31L13.0599 41.92C13.0599 41.08 13.7499 40.33 14.6299 40.33H19.2299C20.1099 40.33 20.7999 40.98 20.7999 41.92L20.3499 46.31C20.3499 47.15 19.6599 47.9 18.7799 47.9Z" fill="white" style="fill:white;fill-opacity:1;"/>
<path d="M30.4 47.9H25.8C24.92 47.9 24.23 47.25 24.23 46.31L24.4 41.92C24.4 41.08 25.09 40.33 25.97 40.33H30.4C31.28 40.33 31.97 40.98 31.97 41.92V46.31C31.97 47.29 31.38 47.9 30.4 47.9Z" fill="white" style="fill:white;fill-opacity:1;"/>
<path d="M41.5698 47.9H36.9698C36.0898 47.9 35.2998 47.25 35.2998 46.31V41.92C35.2998 41.08 35.9898 40.33 36.9698 40.33H41.5698C42.4498 40.33 43.2398 40.98 43.2398 41.92V46.31C43.2298 47.15 42.4498 47.9 41.5698 47.9Z" fill="white" style="fill:white;fill-opacity:1;"/>
<path d="M52.8298 47.9H48.2298C47.3498 47.9 46.5598 47.25 46.5598 46.31V41.92C46.5598 41.08 47.2498 40.33 48.2298 40.33H52.8298C53.7098 40.33 54.4998 40.98 54.4998 41.92V46.31C54.4998 47.26 53.7098 47.9 52.8298 47.9Z" fill="white" style="fill:white;fill-opacity:1;"/>
<path d="M64 47.9H59.4C58.52 47.9 57.73 47.25 57.73 46.31V41.92C57.73 41.08 58.42 40.33 59.4 40.33H64C64.88 40.33 65.67 40.98 65.67 41.92V46.31C65.67 47.15 64.88 47.9 64 47.9Z" fill="white" style="fill:white;fill-opacity:1;"/>
<path d="M75.2698 47.9H70.6698C69.7898 47.9 68.9998 47.25 68.9998 46.31V41.92C68.9998 41.08 69.6898 40.33 70.6698 40.33H75.2698C76.1498 40.33 76.9398 40.98 76.9398 41.92V46.31C76.9298 47.3 76.1498 47.9 75.2698 47.9Z" fill="white" style="fill:white;fill-opacity:1;"/>
<path d="M86.4399 47.9H81.8399C80.9599 47.9 80.1699 47.25 80.1699 46.31V41.92C80.1699 41.08 80.8599 40.33 81.8399 40.33H86.4399C87.3199 40.33 88.1099 40.98 88.1099 41.92V46.31C88.0999 47.32 87.3199 47.9 86.4399 47.9Z" fill="white" style="fill:white;fill-opacity:1;"/>
<path d="M97.8098 47.9H92.9998C92.1198 47.9 91.3298 47.25 91.3298 46.31V41.92C91.3298 41.08 92.0198 40.33 92.9998 40.33H97.5998C98.4798 40.33 99.2698 40.98 99.2698 41.92L99.4698 46.31C99.4698 47.15 98.6898 47.9 97.8098 47.9Z" fill="white" style="fill:white;fill-opacity:1;"/>
<path d="M113.5 47.9H104.76C103.88 47.9 103.09 47.25 103.09 46.31V41.92C103.09 41.08 103.78 40.33 104.76 40.33H113.28C114.16 40.33 114.95 40.98 114.95 41.92L115.17 46.31C115.16 47.15 114.38 47.9 113.5 47.9Z" fill="white" style="fill:white;fill-opacity:1;"/>
<path d="M108.89 59.78H114.33C115.21 59.78 116 59.13 116 58.19L115.69 53.8C115.69 52.96 115 52.21 114.02 52.21H108.9C108.02 52.21 107.23 52.86 107.23 53.8V58.19C107.23 59.03 108.01 59.78 108.89 59.78Z" fill="white" style="fill:white;fill-opacity:1;"/>
<path d="M97.5098 59.78H102.11C102.99 59.78 103.78 59.13 103.78 58.19V53.8C103.78 52.96 103.09 52.21 102.11 52.21H97.5098C96.6298 52.21 95.8398 52.86 95.8398 53.8V58.19C95.8398 59.03 96.5298 59.78 97.5098 59.78Z" fill="white" style="fill:white;fill-opacity:1;"/>
<path d="M86.2398 59.78H90.8398C91.7198 59.78 92.5098 59.13 92.5098 58.19V53.8C92.5098 52.96 91.8198 52.21 90.8398 52.21H86.2398C85.3598 52.21 84.5698 52.86 84.5698 53.8V58.19C84.6698 59.03 85.3598 59.78 86.2398 59.78Z" fill="white" style="fill:white;fill-opacity:1;"/>
<path d="M75.0699 59.78H79.6699C80.5499 59.78 81.3399 59.13 81.3399 58.19V53.8C81.3399 52.96 80.6499 52.21 79.6699 52.21H75.0699C74.1899 52.21 73.3999 52.86 73.3999 53.8V58.19C73.4099 59.03 74.1899 59.78 75.0699 59.78Z" fill="white" style="fill:white;fill-opacity:1;"/>
<path d="M63.8099 59.78H68.4099C69.2899 59.78 70.0799 59.13 70.0799 58.19V53.8C70.0799 52.96 69.3899 52.21 68.4099 52.21H63.8099C62.9299 52.21 62.1399 52.86 62.1399 53.8V58.19C62.2399 59.03 62.9199 59.78 63.8099 59.78Z" fill="white" style="fill:white;fill-opacity:1;"/>
<path d="M52.6397 59.78H57.2397C58.1197 59.78 58.9097 59.13 58.9097 58.19V53.8C58.9097 52.96 58.2197 52.21 57.2397 52.21H52.6397C51.7597 52.21 50.9697 52.86 50.9697 53.8V58.19C50.9697 59.03 51.7597 59.78 52.6397 59.78Z" fill="white" style="fill:white;fill-opacity:1;"/>
<path d="M41.4698 59.78H46.0698C46.9498 59.78 47.7398 59.13 47.7398 58.19V53.8C47.7398 52.96 47.0498 52.21 46.0698 52.21H41.4698C40.5898 52.21 39.7998 52.86 39.7998 53.8V58.19C39.7998 59.03 40.5898 59.78 41.4698 59.78Z" fill="white" style="fill:white;fill-opacity:1;"/>
<path d="M30.1999 59.78H34.7999C35.6799 59.78 36.4699 59.13 36.4699 58.19V53.8C36.4699 52.96 35.7799 52.21 34.7999 52.21H30.1999C29.3199 52.21 28.6299 52.86 28.6299 53.8V58.19C28.6299 59.03 29.3199 59.78 30.1999 59.78Z" fill="white" style="fill:white;fill-opacity:1;"/>
<path d="M13.3898 59.78H23.0498C23.9298 59.78 24.6198 59.13 24.6198 58.19V53.8C24.6198 52.96 23.9298 52.21 23.0498 52.21H13.7398C12.8598 52.21 12.1698 52.86 12.1698 53.8L11.8198 58.19C11.8198 59.03 12.5098 59.78 13.3898 59.78Z" fill="white" style="fill:white;fill-opacity:1;"/>
<path d="M81.2399 71.7H85.8399C86.7199 71.7 87.4099 71.05 87.4099 70.21V65.82C87.4099 64.98 86.7199 64.33 85.8399 64.33H81.2399C80.3599 64.33 79.6699 64.98 79.6699 65.82V70.21C79.6799 70.95 80.3599 71.7 81.2399 71.7Z" fill="white" style="fill:white;fill-opacity:1;"/>
<path d="M69.4899 71.7H74.0899C74.9699 71.7 75.6599 71.05 75.6599 70.21V65.82C75.6599 64.98 74.9699 64.33 74.0899 64.33H69.4899C68.6099 64.33 67.9199 64.98 67.9199 65.82V70.21C67.9199 70.95 68.6099 71.7 69.4899 71.7Z" fill="white" style="fill:white;fill-opacity:1;"/>
<path d="M57.7299 71.7H62.3299C63.2099 71.7 63.8999 71.05 63.8999 70.21V65.82C63.8999 64.98 63.2099 64.33 62.3299 64.33H57.7299C56.8499 64.33 56.1599 64.98 56.1599 65.82V70.21C56.1599 70.95 56.8499 71.7 57.7299 71.7Z" fill="white" style="fill:white;fill-opacity:1;"/>
<path d="M45.9699 71.7H50.5699C51.4499 71.7 52.1399 71.05 52.1399 70.21V65.82C52.1399 64.98 51.4499 64.33 50.5699 64.33H45.9699C45.0899 64.33 44.3999 64.98 44.3999 65.82V70.21C44.4099 70.99 45.0899 71.7 45.9699 71.7Z" fill="white" style="fill:white;fill-opacity:1;"/>
<path d="M34.2199 71.7H38.8199C39.6999 71.7 40.3899 71.05 40.3899 70.21V65.82C40.3899 64.98 39.6999 64.33 38.8199 64.33H34.2199C33.3399 64.33 32.6499 64.98 32.6499 65.82V70.21C32.5499 70.95 33.3399 71.7 34.2199 71.7Z" fill="white" style="fill:white;fill-opacity:1;"/>
<path d="M12.9599 71.7H26.5799C27.4599 71.7 28.1499 71.05 28.1499 70.11L28.4399 65.72C28.4399 64.88 27.7499 64.13 26.8699 64.13H13.1899C12.3099 64.13 11.6199 64.78 11.6199 65.72L11.3899 70.11C11.3899 70.95 12.0799 71.7 12.9599 71.7Z" fill="white" style="fill:white;fill-opacity:1;"/>
<path d="M93.5599 71.79H114.94C115.82 71.79 116.61 71.14 116.61 70.2L116.27 65.53C116.27 64.69 115.58 63.94 114.6 63.94H93.3099C92.4299 63.94 91.6399 64.59 91.6399 65.53L91.8899 70.2C91.9899 71.14 92.6799 71.79 93.5599 71.79Z" fill="white" style="fill:white;fill-opacity:1;"/>
<path d="M109.38 83.53H115.51C116.39 83.53 117.18 82.88 117.18 81.94L116.89 77.55C116.89 76.71 116.2 75.96 115.22 75.96H109.38C108.5 75.96 107.71 76.61 107.71 77.55V81.94C107.71 82.78 108.5 83.53 109.38 83.53Z" fill="white" style="fill:white;fill-opacity:1;"/>
<path d="M96.5299 83.53H101.73C102.61 83.53 103.4 82.88 103.4 81.94V77.55C103.4 76.71 102.71 75.96 101.73 75.96H96.5299C95.6499 75.96 94.8599 76.61 94.8599 77.55V81.94C94.8599 82.78 95.5499 83.53 96.5299 83.53Z" fill="white" style="fill:white;fill-opacity:1;"/>
<path d="M38.9198 83.53H88.8798C89.7598 83.53 90.5498 82.88 90.5498 81.94V77.55C90.5498 76.71 89.8598 75.96 88.8798 75.96H38.9198C38.0398 75.96 37.2498 76.61 37.2498 77.55V81.94C37.1698 82.96 38.0398 83.53 38.9198 83.53Z" fill="white" style="fill:white;fill-opacity:1;"/>
<path d="M26.3198 83.53H31.3798C32.2598 83.53 33.0498 82.88 33.0498 81.94V77.55C33.0498 76.71 32.3598 75.96 31.4798 75.96L26.3898 75.98C25.5098 75.98 24.8198 76.63 24.8198 77.57L24.8498 81.94C24.8198 82.83 25.4398 83.53 26.3198 83.53Z" fill="white" style="fill:white;fill-opacity:1;"/>
<path d="M12.1799 83.53H18.5899C19.4699 83.53 20.1599 82.88 20.1599 81.94V77.55C20.1599 76.71 19.4699 75.96 18.5899 75.96H12.6099C11.7299 75.96 11.0399 76.61 11.0399 77.55L10.6099 81.94C10.6099 82.78 11.2899 83.53 12.1799 83.53Z" fill="white" style="fill:white;fill-opacity:1;"/>
</svg>
