<svg width="128" height="128" viewBox="0 0 128 128" fill="none" xmlns="http://www.w3.org/2000/svg">
<path d="M63.6001 118.8C35.7001 118.8 5.6001 101.3 5.6001 62.9C5.6001 24.5 35.7001 7 63.6001 7C79.1001 7 93.4001 12.1 104 21.4C115.5 31.6 121.6 46 121.6 62.9C121.6 79.8 115.5 94.1 104 104.3C93.4001 113.6 79.0001 118.8 63.6001 118.8Z" fill="url(#paint0_radial_169_12917)" style=""/>
<path d="M63.6001 118.8C35.7001 118.8 5.6001 101.3 5.6001 62.9C5.6001 24.5 35.7001 7 63.6001 7C79.1001 7 93.4001 12.1 104 21.4C115.5 31.6 121.6 46 121.6 62.9C121.6 79.8 115.5 94.1 104 104.3C93.4001 113.6 79.0001 118.8 63.6001 118.8Z" fill="url(#paint1_radial_169_12917)" style=""/>
<path d="M63.6001 118.8C35.7001 118.8 5.6001 101.3 5.6001 62.9C5.6001 24.5 35.7001 7 63.6001 7C79.1001 7 93.4001 12.1 104 21.4C115.5 31.6 121.6 46 121.6 62.9C121.6 79.8 115.5 94.1 104 104.3C93.4001 113.6 79.0001 118.8 63.6001 118.8Z" fill="url(#paint2_radial_169_12917)" style=""/>
<path d="M63.6001 118.8C35.7001 118.8 5.6001 101.3 5.6001 62.9C5.6001 24.5 35.7001 7 63.6001 7C79.1001 7 93.4001 12.1 104 21.4C115.5 31.6 121.6 46 121.6 62.9C121.6 79.8 115.5 94.1 104 104.3C93.4001 113.6 79.0001 118.8 63.6001 118.8Z" fill="url(#paint3_radial_169_12917)" style=""/>
<path d="M63.6001 118.8C35.7001 118.8 5.6001 101.3 5.6001 62.9C5.6001 24.5 35.7001 7 63.6001 7C79.1001 7 93.4001 12.1 104 21.4C115.5 31.6 121.6 46 121.6 62.9C121.6 79.8 115.5 94.1 104 104.3C93.4001 113.6 79.0001 118.8 63.6001 118.8Z" fill="url(#paint4_radial_169_12917)" style=""/>
<path d="M111.49 29.67C116.82 38.27 119.6 48.51 119.6 59.9C119.6 76.8 113.5 91.1 102 101.3C91.3999 110.6 76.9999 115.8 61.5999 115.8C43.5399 115.8 24.5999 108.45 13.4199 92.86C24.1799 110.52 44.4199 118.8 63.5999 118.8C78.9999 118.8 93.3999 113.6 104 104.3C115.5 94.1 121.6 79.8 121.6 62.9C121.6 50.16 118.13 38.84 111.49 29.67Z" fill="#EB8F00" style="fill:#EB8F00;fill:color(display-p3 0.9216 0.5608 0.0000);fill-opacity:1;"/>
<path d="M111.49 29.67C116.82 38.27 119.6 48.51 119.6 59.9C119.6 76.8 113.5 91.1 102 101.3C91.3999 110.6 76.9999 115.8 61.5999 115.8C43.5399 115.8 24.5999 108.45 13.4199 92.86C24.1799 110.52 44.4199 118.8 63.5999 118.8C78.9999 118.8 93.3999 113.6 104 104.3C115.5 94.1 121.6 79.8 121.6 62.9C121.6 50.16 118.13 38.84 111.49 29.67Z" fill="#F3B872" style="fill:#F3B872;fill:color(display-p3 0.9542 0.7229 0.4453);fill-opacity:1;"/>
<path d="M111.49 29.67C116.82 38.27 119.6 48.51 119.6 59.9C119.6 76.8 113.5 91.1 102 101.3C91.3999 110.6 76.9999 115.8 61.5999 115.8C43.5399 115.8 24.5999 108.45 13.4199 92.86C24.1799 110.52 44.4199 118.8 63.5999 118.8C78.9999 118.8 93.3999 113.6 104 104.3C115.5 94.1 121.6 79.8 121.6 62.9C121.6 50.16 118.13 38.84 111.49 29.67Z" fill="#91674D" style="fill:#91674D;fill:color(display-p3 0.5686 0.4039 0.3020);fill-opacity:1;"/>
<path d="M93.7004 84.59C84.0004 82.11 74.0104 80.9 64.0004 81C53.8604 80.89 43.7504 82.12 33.9404 84.67C30.5904 89.26 28.7504 94.78 28.6704 100.47C28.6704 105.36 34.2804 108.21 39.2904 106.22C47.1604 103.1 55.5304 101.44 64.0004 101.32C72.4704 101.45 80.8404 103.11 88.7104 106.24C93.7104 108.24 99.3304 105.38 99.3304 100.49C99.2204 94.72 97.2404 89.14 93.7004 84.59Z" fill="#49362E" style="fill:#49362E;fill:color(display-p3 0.2863 0.2118 0.1804);fill-opacity:1;"/>
<path d="M93.7004 84.59C84.0004 82.11 74.0104 80.9 64.0004 81C53.8604 80.89 43.7504 82.12 33.9404 84.67C30.5904 89.26 28.7504 94.78 28.6704 100.47C28.6704 105.36 34.2804 108.21 39.2904 106.22C47.1604 103.1 55.5304 101.44 64.0004 101.32C72.4704 101.45 80.8404 103.11 88.7104 106.24C93.7104 108.24 99.3304 105.38 99.3304 100.49C99.2204 94.72 97.2404 89.14 93.7004 84.59Z" fill="#1A1717" style="fill:#1A1717;fill:color(display-p3 0.1020 0.0902 0.0902);fill-opacity:1;"/>
<path d="M93.7004 84.59C84.0004 82.11 74.0104 80.9 64.0004 81C53.8604 80.89 43.7504 82.12 33.9404 84.67C30.5904 89.26 28.7504 94.78 28.6704 100.47C28.6704 105.36 34.2804 108.21 39.2904 106.22C47.1604 103.1 55.5304 101.44 64.0004 101.32C72.4704 101.45 80.8404 103.11 88.7104 106.24C93.7104 108.24 99.3304 105.38 99.3304 100.49C99.2204 94.72 97.2404 89.14 93.7004 84.59Z" fill="#5D4037" style="fill:#5D4037;fill:color(display-p3 0.3647 0.2510 0.2157);fill-opacity:1;"/>
<path d="M93.7004 84.59C86.7004 75.16 74.4704 68.82 64.0004 68.82C52.6304 68.82 40.6204 75.21 33.9404 84.69C43.7504 82.14 53.8604 80.9 64.0004 81C74.0104 80.9 84.0004 82.11 93.7004 84.59Z" fill="white" style="fill:white;fill-opacity:1;"/>
<path d="M96.7 119.17C101.56 117.7 103.35 116 103.12 114.78C102.82 113.2 96 112.96 88 114.11V83.5C88 83.5 79.89 81.08 63.5 81.08C45.31 81.08 39 83.5 39 83.5V111.36C34 111.07 30.21 111.69 30 113.04C29.86 114.11 33 115.4 36.92 116.5C29.34 117.28 24.79 118.5 24.79 119.87C24.79 122.22 39.23 124.12 56.84 124.12C63.76 124.16 70.68 123.83 77.56 123.12C81.38 123.67 85.23 123.92 89.09 123.89C97.93 123.89 105.09 122.77 105.09 121.39C105.14 120.42 101.73 119.59 96.7 119.17Z" fill="url(#paint5_linear_169_12917)" style=""/>
<path d="M110.331 114.163C111.778 113.947 112.849 113.081 112.722 112.229C112.595 111.377 111.319 110.861 109.871 111.077C108.424 111.292 107.353 112.158 107.48 113.01C107.607 113.862 108.883 114.378 110.331 114.163Z" fill="#368231" style="fill:#368231;fill:color(display-p3 0.2118 0.5098 0.1922);fill-opacity:1;"/>
<path d="M25.6263 111.97C25.9808 110.831 24.6994 109.42 22.7641 108.817C20.8288 108.215 18.9726 108.65 18.618 109.789C18.2635 110.928 19.5449 112.34 21.4802 112.942C23.4155 113.544 25.2717 113.109 25.6263 111.97Z" fill="#368231" style="fill:#368231;fill:color(display-p3 0.2118 0.5098 0.1922);fill-opacity:1;"/>
<path d="M58.2501 115.25C59.5866 115.25 60.6701 113.141 60.6701 110.54C60.6701 107.939 59.5866 105.83 58.2501 105.83C56.9135 105.83 55.8301 107.939 55.8301 110.54C55.8301 113.141 56.9135 115.25 58.2501 115.25Z" fill="#368231" style="fill:#368231;fill:color(display-p3 0.2118 0.5098 0.1922);fill-opacity:1;"/>
<path d="M62.75 98C63.9926 98 65 96.1734 65 93.92C65 91.6667 63.9926 89.84 62.75 89.84C61.5074 89.84 60.5 91.6667 60.5 93.92C60.5 96.1734 61.5074 98 62.75 98Z" fill="#368231" style="fill:#368231;fill:color(display-p3 0.2118 0.5098 0.1922);fill-opacity:1;"/>
<path d="M76.3804 111.08C78.5675 111.08 80.3404 107.834 80.3404 103.83C80.3404 99.826 78.5675 96.58 76.3804 96.58C74.1934 96.58 72.4204 99.826 72.4204 103.83C72.4204 107.834 74.1934 111.08 76.3804 111.08Z" fill="#368231" style="fill:#368231;fill:color(display-p3 0.2118 0.5098 0.1922);fill-opacity:1;"/>
<path d="M48.2101 101.58C49.2484 101.58 50.0901 100.116 50.0901 98.31C50.0901 96.5041 49.2484 95.04 48.2101 95.04C47.1718 95.04 46.3301 96.5041 46.3301 98.31C46.3301 100.116 47.1718 101.58 48.2101 101.58Z" fill="#368231" style="fill:#368231;fill:color(display-p3 0.2118 0.5098 0.1922);fill-opacity:1;"/>
<path d="M33.1902 60.55L45.3702 58.19L32.8202 53L32.4002 52.77C30.3502 51.69 29.5702 49.16 30.6502 47.11C30.9102 46.62 31.2602 46.19 31.6802 45.84C33.6802 44.31 36.4202 44.19 38.5502 45.54L59.8302 58.54C60.3502 58.73 60.6102 59.31 60.4202 59.82C60.2902 60.17 59.9802 60.42 59.6102 60.47L36.7002 69.09C36.5402 69.15 36.3802 69.21 36.2202 69.25C33.2202 70.09 29.8902 68.36 29.4202 65.47C29.0702 63.27 30.7702 61.22 33.1902 60.55Z" fill="#49362E" style="fill:#49362E;fill:color(display-p3 0.2863 0.2118 0.1804);fill-opacity:1;"/>
<path d="M33.1902 60.55L45.3702 58.19L32.8202 53L32.4002 52.77C30.3502 51.69 29.5702 49.16 30.6502 47.11C30.9102 46.62 31.2602 46.19 31.6802 45.84C33.6802 44.31 36.4202 44.19 38.5502 45.54L59.8302 58.54C60.3502 58.73 60.6102 59.31 60.4202 59.82C60.2902 60.17 59.9802 60.42 59.6102 60.47L36.7002 69.09C36.5402 69.15 36.3802 69.21 36.2202 69.25C33.2202 70.09 29.8902 68.36 29.4202 65.47C29.0702 63.27 30.7702 61.22 33.1902 60.55Z" fill="#1A1717" style="fill:#1A1717;fill:color(display-p3 0.1020 0.0902 0.0902);fill-opacity:1;"/>
<path d="M33.1902 60.55L45.3702 58.19L32.8202 53L32.4002 52.77C30.3502 51.69 29.5702 49.16 30.6502 47.11C30.9102 46.62 31.2602 46.19 31.6802 45.84C33.6802 44.31 36.4202 44.19 38.5502 45.54L59.8302 58.54C60.3502 58.73 60.6102 59.31 60.4202 59.82C60.2902 60.17 59.9802 60.42 59.6102 60.47L36.7002 69.09C36.5402 69.15 36.3802 69.21 36.2202 69.25C33.2202 70.09 29.8902 68.36 29.4202 65.47C29.0702 63.27 30.7702 61.22 33.1902 60.55Z" fill="#49362E" style="fill:#49362E;fill:color(display-p3 0.2863 0.2118 0.1804);fill-opacity:1;"/>
<path d="M95.8101 60.3L83.6301 57.94L96.1802 52.73L96.6001 52.5C98.6501 51.42 99.4301 48.89 98.3501 46.84C98.0901 46.35 97.7402 45.92 97.3202 45.57C95.3202 44.04 92.5801 43.92 90.4501 45.27L69.1701 58.27C68.6501 58.46 68.3902 59.04 68.5802 59.55C68.7102 59.9 69.0202 60.15 69.3902 60.2L92.3002 68.8C92.4602 68.86 92.6201 68.92 92.7801 68.96C95.7801 69.8 99.1102 68.07 99.5802 65.18C99.9302 63 98.2301 61 95.8101 60.3Z" fill="#49362E" style="fill:#49362E;fill:color(display-p3 0.2863 0.2118 0.1804);fill-opacity:1;"/>
<path d="M95.8101 60.3L83.6301 57.94L96.1802 52.73L96.6001 52.5C98.6501 51.42 99.4301 48.89 98.3501 46.84C98.0901 46.35 97.7402 45.92 97.3202 45.57C95.3202 44.04 92.5801 43.92 90.4501 45.27L69.1701 58.27C68.6501 58.46 68.3902 59.04 68.5802 59.55C68.7102 59.9 69.0202 60.15 69.3902 60.2L92.3002 68.8C92.4602 68.86 92.6201 68.92 92.7801 68.96C95.7801 69.8 99.1102 68.07 99.5802 65.18C99.9302 63 98.2301 61 95.8101 60.3Z" fill="#1A1717" style="fill:#1A1717;fill:color(display-p3 0.1020 0.0902 0.0902);fill-opacity:1;"/>
<path d="M95.8101 60.3L83.6301 57.94L96.1802 52.73L96.6001 52.5C98.6501 51.42 99.4301 48.89 98.3501 46.84C98.0901 46.35 97.7402 45.92 97.3202 45.57C95.3202 44.04 92.5801 43.92 90.4501 45.27L69.1701 58.27C68.6501 58.46 68.3902 59.04 68.5802 59.55C68.7102 59.9 69.0202 60.15 69.3902 60.2L92.3002 68.8C92.4602 68.86 92.6201 68.92 92.7801 68.96C95.7801 69.8 99.1102 68.07 99.5802 65.18C99.9302 63 98.2301 61 95.8101 60.3Z" fill="#49362E" style="fill:#49362E;fill:color(display-p3 0.2863 0.2118 0.1804);fill-opacity:1;"/>
<path d="M31.4001 34.8C29.2001 35.2 29.1001 38.4 31.5001 38.5C36.8001 38.57 41.9201 36.6 45.8001 33C47.2801 31.72 48.5301 30.2 49.5001 28.5C50.0801 27.67 49.8801 26.53 49.0501 25.95C48.2201 25.37 47.0801 25.57 46.5001 26.4L46.4001 26.5C42.4801 30.88 37.1901 33.81 31.4001 34.8Z" fill="#49362E" style="fill:#49362E;fill:color(display-p3 0.2863 0.2118 0.1804);fill-opacity:1;"/>
<path d="M31.4001 34.8C29.2001 35.2 29.1001 38.4 31.5001 38.5C36.8001 38.57 41.9201 36.6 45.8001 33C47.2801 31.72 48.5301 30.2 49.5001 28.5C50.0801 27.67 49.8801 26.53 49.0501 25.95C48.2201 25.37 47.0801 25.57 46.5001 26.4L46.4001 26.5C42.4801 30.88 37.1901 33.81 31.4001 34.8Z" fill="#1A1717" style="fill:#1A1717;fill:color(display-p3 0.1020 0.0902 0.0902);fill-opacity:1;"/>
<path d="M31.4001 34.8C29.2001 35.2 29.1001 38.4 31.5001 38.5C36.8001 38.57 41.9201 36.6 45.8001 33C47.2801 31.72 48.5301 30.2 49.5001 28.5C50.0801 27.67 49.8801 26.53 49.0501 25.95C48.2201 25.37 47.0801 25.57 46.5001 26.4L46.4001 26.5C42.4801 30.88 37.1901 33.81 31.4001 34.8Z" fill="#613E31" style="fill:#613E31;fill:color(display-p3 0.3804 0.2431 0.1922);fill-opacity:1;"/>
<path d="M80.5001 26.4C79.9201 25.57 78.7801 25.37 77.9501 25.95C77.1201 26.53 76.9201 27.67 77.5001 28.5C78.4701 30.2 79.7201 31.72 81.2001 33C85.1001 36.57 90.2101 38.54 95.5001 38.5C98.0001 38.4 97.8001 35.2 95.6001 34.8C89.7401 33.84 84.4101 30.87 80.5001 26.4Z" fill="#49362E" style="fill:#49362E;fill:color(display-p3 0.2863 0.2118 0.1804);fill-opacity:1;"/>
<path d="M80.5001 26.4C79.9201 25.57 78.7801 25.37 77.9501 25.95C77.1201 26.53 76.9201 27.67 77.5001 28.5C78.4701 30.2 79.7201 31.72 81.2001 33C85.1001 36.57 90.2101 38.54 95.5001 38.5C98.0001 38.4 97.8001 35.2 95.6001 34.8C89.7401 33.84 84.4101 30.87 80.5001 26.4Z" fill="#1A1717" style="fill:#1A1717;fill:color(display-p3 0.1020 0.0902 0.0902);fill-opacity:1;"/>
<path d="M80.5001 26.4C79.9201 25.57 78.7801 25.37 77.9501 25.95C77.1201 26.53 76.9201 27.67 77.5001 28.5C78.4701 30.2 79.7201 31.72 81.2001 33C85.1001 36.57 90.2101 38.54 95.5001 38.5C98.0001 38.4 97.8001 35.2 95.6001 34.8C89.7401 33.84 84.4101 30.87 80.5001 26.4Z" fill="#613E31" style="fill:#613E31;fill:color(display-p3 0.3804 0.2431 0.1922);fill-opacity:1;"/>
<defs>
<radialGradient id="paint0_radial_169_12917" cx="0" cy="0" r="1" gradientUnits="userSpaceOnUse" gradientTransform="translate(63.6001 62.8999) scale(56.9597 56.9597)">
<stop offset="0.5" stop-color="#FDE030" style="stop-color:#FDE030;stop-color:color(display-p3 0.9922 0.8784 0.1882);stop-opacity:1;"/>
<stop offset="0.92" stop-color="#F7C02B" style="stop-color:#F7C02B;stop-color:color(display-p3 0.9686 0.7529 0.1686);stop-opacity:1;"/>
<stop offset="1" stop-color="#F4A223" style="stop-color:#F4A223;stop-color:color(display-p3 0.9569 0.6353 0.1373);stop-opacity:1;"/>
</radialGradient>
<radialGradient id="paint1_radial_169_12917" cx="0" cy="0" r="1" gradientUnits="userSpaceOnUse" gradientTransform="translate(38.5991 34.5377) rotate(-43.2082) scale(102.024 101.825)">
<stop offset="0.3533" stop-color="#F9DDBD" style="stop-color:#F9DDBD;stop-color:color(display-p3 0.9765 0.8667 0.7412);stop-opacity:1;"/>
<stop offset="0.8723" stop-color="#FFD29C" style="stop-color:#FFD29C;stop-color:color(display-p3 1.0000 0.8235 0.6118);stop-opacity:1;"/>
</radialGradient>
<radialGradient id="paint2_radial_169_12917" cx="0" cy="0" r="1" gradientUnits="userSpaceOnUse" gradientTransform="translate(38.5991 34.5377) rotate(-43.2082) scale(102.024 101.825)">
<stop offset="0.3533" stop-color="#70534A" style="stop-color:#70534A;stop-color:color(display-p3 0.4392 0.3255 0.2902);stop-opacity:1;"/>
<stop offset="0.8723" stop-color="#5C4037" style="stop-color:#5C4037;stop-color:color(display-p3 0.3608 0.2510 0.2157);stop-opacity:1;"/>
</radialGradient>
<radialGradient id="paint3_radial_169_12917" cx="0" cy="0" r="1" gradientUnits="userSpaceOnUse" gradientTransform="translate(38.5991 34.5377) rotate(-43.2082) scale(102.024 101.825)">
<stop offset="0.3533" stop-color="#A37A58" style="stop-color:#A37A58;stop-color:color(display-p3 0.6375 0.4772 0.3453);stop-opacity:1;"/>
<stop offset="0.8723" stop-color="#8D5738" style="stop-color:#8D5738;stop-color:color(display-p3 0.5529 0.3412 0.2196);stop-opacity:1;"/>
</radialGradient>
<radialGradient id="paint4_radial_169_12917" cx="0" cy="0" r="1" gradientUnits="userSpaceOnUse" gradientTransform="translate(38.5991 34.5377) rotate(-43.2082) scale(102.024 101.825)">
<stop offset="0.3533" stop-color="#AD8264" style="stop-color:#AD8264;stop-color:color(display-p3 0.6784 0.5098 0.3922);stop-opacity:1;"/>
<stop offset="0.8723" stop-color="#A47B62" style="stop-color:#A47B62;stop-color:color(display-p3 0.6431 0.4824 0.3843);stop-opacity:1;"/>
</radialGradient>
<linearGradient id="paint5_linear_169_12917" x1="64.9403" y1="81.36" x2="64.9403" y2="125.46" gradientUnits="userSpaceOnUse">
<stop stop-color="#469643" style="stop-color:#469643;stop-color:color(display-p3 0.2745 0.5882 0.2627);stop-opacity:1;"/>
<stop offset="0.02" stop-color="#489743" style="stop-color:#489743;stop-color:color(display-p3 0.2824 0.5922 0.2627);stop-opacity:1;"/>
<stop offset="0.44" stop-color="#6DB141" style="stop-color:#6DB141;stop-color:color(display-p3 0.4275 0.6941 0.2549);stop-opacity:1;"/>
<stop offset="0.78" stop-color="#84C03F" style="stop-color:#84C03F;stop-color:color(display-p3 0.5176 0.7529 0.2471);stop-opacity:1;"/>
<stop offset="1" stop-color="#8CC63F" style="stop-color:#8CC63F;stop-color:color(display-p3 0.5490 0.7765 0.2471);stop-opacity:1;"/>
</linearGradient>
</defs>
</svg>
