<svg width="128" height="128" viewBox="0 0 128 128" fill="none" xmlns="http://www.w3.org/2000/svg">
<path d="M63.6001 118.8C35.7001 118.8 5.6001 101.3 5.6001 62.9C5.6001 24.5 35.7001 7 63.6001 7C79.1001 7 93.4001 12.1 104 21.4C115.5 31.6 121.6 46 121.6 62.9C121.6 79.8 115.5 94.1 104 104.3C93.4001 113.6 79.0001 118.8 63.6001 118.8Z" fill="url(#paint0_radial_169_9352)" style=""/>
<path d="M63.6001 118.8C35.7001 118.8 5.6001 101.3 5.6001 62.9C5.6001 24.5 35.7001 7 63.6001 7C79.1001 7 93.4001 12.1 104 21.4C115.5 31.6 121.6 46 121.6 62.9C121.6 79.8 115.5 94.1 104 104.3C93.4001 113.6 79.0001 118.8 63.6001 118.8Z" fill="url(#paint1_radial_169_9352)" style=""/>
<path d="M63.6001 118.8C35.7001 118.8 5.6001 101.3 5.6001 62.9C5.6001 24.5 35.7001 7 63.6001 7C79.1001 7 93.4001 12.1 104 21.4C115.5 31.6 121.6 46 121.6 62.9C121.6 79.8 115.5 94.1 104 104.3C93.4001 113.6 79.0001 118.8 63.6001 118.8Z" fill="url(#paint2_radial_169_9352)" style=""/>
<path d="M111.49 29.67C116.82 38.27 119.6 48.51 119.6 59.9C119.6 76.8 113.5 91.1 102 101.3C91.4002 110.6 77.0002 115.8 61.6002 115.8C43.5402 115.8 24.6002 108.45 13.4202 92.86C24.1802 110.52 44.4202 118.8 63.6002 118.8C79.0002 118.8 93.4002 113.6 104 104.3C115.5 94.1 121.6 79.8 121.6 62.9C121.6 50.16 118.13 38.84 111.49 29.67Z" fill="#EB8F00" style="fill:#EB8F00;fill:color(display-p3 0.9216 0.5608 0.0000);fill-opacity:1;"/>
<path d="M111.49 29.67C116.82 38.27 119.6 48.51 119.6 59.9C119.6 76.8 113.5 91.1 102 101.3C91.4002 110.6 77.0002 115.8 61.6002 115.8C43.5402 115.8 24.6002 108.45 13.4202 92.86C24.1802 110.52 44.4202 118.8 63.6002 118.8C79.0002 118.8 93.4002 113.6 104 104.3C115.5 94.1 121.6 79.8 121.6 62.9C121.6 50.16 118.13 38.84 111.49 29.67Z" fill="#4A2F27" style="fill:#4A2F27;fill:color(display-p3 0.2902 0.1843 0.1529);fill-opacity:1;"/>
<path d="M64.25 95.44C51.51 95.44 42.43 88.83 39.7 84.67C38.67 83.34 38.45 81.54 39.14 80C39.67 79.03 40.7 78.43 41.81 78.44C42.22 78.44 42.63 78.51 43.02 78.64C49.92 80.72 57.09 81.75 64.3 81.71C71.47 81.75 78.61 80.71 85.48 78.64C85.87 78.51 86.28 78.45 86.69 78.44C87.8 78.43 88.83 79.03 89.36 80C90.05 81.54 89.83 83.34 88.8 84.67C86.07 88.83 77 95.44 64.25 95.44Z" fill="#422B0D" style="fill:#422B0D;fill:color(display-p3 0.2588 0.1686 0.0510);fill-opacity:1;"/>
<path d="M64.25 95.44C51.51 95.44 42.43 88.83 39.7 84.67C38.67 83.34 38.45 81.54 39.14 80C39.67 79.03 40.7 78.43 41.81 78.44C42.22 78.44 42.63 78.51 43.02 78.64C49.92 80.72 57.09 81.75 64.3 81.71C71.47 81.75 78.61 80.71 85.48 78.64C85.87 78.51 86.28 78.45 86.69 78.44C87.8 78.43 88.83 79.03 89.36 80C90.05 81.54 89.83 83.34 88.8 84.67C86.07 88.83 77 95.44 64.25 95.44Z" fill="#1A1717" style="fill:#1A1717;fill:color(display-p3 0.1020 0.0902 0.0902);fill-opacity:1;"/>
<path d="M97.5099 62L97.3099 61.72C97.1299 61.46 96.9399 61.21 96.7299 60.97C96.0099 60.16 95.1999 59.43 94.3099 58.81C93.1099 57.97 91.8099 57.28 90.4399 56.76C89.6899 56.47 88.9199 56.22 88.1399 56.02C87.7499 55.92 87.3199 55.83 86.8799 55.74L86.2799 55.63L86.8699 55.32L88.6199 54.4C89.7499 53.82 90.8199 53.32 91.7199 52.91C92.6199 52.5 93.3599 52.21 93.8599 52.02L94.6199 51.75L94.8399 51.66C96.2499 51.08 96.9099 49.46 96.3299 48.05C95.9299 47.09 95.0299 46.44 93.9999 46.36C93.5899 46.34 93.1699 46.34 92.7599 46.36C91.7499 46.45 90.7399 46.63 89.7599 46.88C88.4199 47.22 87.1099 47.65 85.8299 48.17C85.1499 48.47 84.4299 48.75 83.7399 49.11C83.0499 49.47 82.2999 49.85 81.6799 50.18C81.0599 50.51 80.3099 51 79.6799 51.43C79.0499 51.86 78.4099 52.31 77.8099 52.75C76.6999 53.57 75.6499 54.47 74.6799 55.45C73.9499 56.17 73.2899 56.95 72.6799 57.78C72.4999 58.02 72.3299 58.28 72.1799 58.54C72.0999 58.7 72.0499 58.78 72.0499 58.78C71.6799 59.68 71.6499 60.68 71.9699 61.6C72.5299 63.01 74.1299 63.7 75.5399 63.14C75.5499 63.14 75.5599 63.13 75.5699 63.13L75.8099 63.04L75.9999 63L76.2399 62.94C76.4099 62.94 76.7199 62.82 77.0399 62.75C77.3599 62.68 77.7499 62.61 78.1699 62.54C79.1599 62.4 80.1699 62.32 81.1699 62.32C82.3499 62.32 83.5399 62.4 84.7099 62.57C84.9199 62.57 85.4499 62.67 85.7099 62.72C85.9699 62.77 86.2499 62.81 86.5499 62.88C87.1299 63.02 87.6999 63.14 88.2399 63.3C89.1999 63.57 90.1399 63.9 91.0599 64.3C91.6599 64.58 92.2499 64.89 92.8199 65.24C93.2199 65.48 93.4199 65.63 93.4199 65.63L93.6999 65.84C94.8999 66.75 96.6199 66.51 97.5199 65.3C98.2599 64.32 98.2499 62.97 97.5099 62Z" fill="#422B0D" style="fill:#422B0D;fill:color(display-p3 0.2588 0.1686 0.0510);fill-opacity:1;"/>
<path d="M97.5099 62L97.3099 61.72C97.1299 61.46 96.9399 61.21 96.7299 60.97C96.0099 60.16 95.1999 59.43 94.3099 58.81C93.1099 57.97 91.8099 57.28 90.4399 56.76C89.6899 56.47 88.9199 56.22 88.1399 56.02C87.7499 55.92 87.3199 55.83 86.8799 55.74L86.2799 55.63L86.8699 55.32L88.6199 54.4C89.7499 53.82 90.8199 53.32 91.7199 52.91C92.6199 52.5 93.3599 52.21 93.8599 52.02L94.6199 51.75L94.8399 51.66C96.2499 51.08 96.9099 49.46 96.3299 48.05C95.9299 47.09 95.0299 46.44 93.9999 46.36C93.5899 46.34 93.1699 46.34 92.7599 46.36C91.7499 46.45 90.7399 46.63 89.7599 46.88C88.4199 47.22 87.1099 47.65 85.8299 48.17C85.1499 48.47 84.4299 48.75 83.7399 49.11C83.0499 49.47 82.2999 49.85 81.6799 50.18C81.0599 50.51 80.3099 51 79.6799 51.43C79.0499 51.86 78.4099 52.31 77.8099 52.75C76.6999 53.57 75.6499 54.47 74.6799 55.45C73.9499 56.17 73.2899 56.95 72.6799 57.78C72.4999 58.02 72.3299 58.28 72.1799 58.54C72.0999 58.7 72.0499 58.78 72.0499 58.78C71.6799 59.68 71.6499 60.68 71.9699 61.6C72.5299 63.01 74.1299 63.7 75.5399 63.14C75.5499 63.14 75.5599 63.13 75.5699 63.13L75.8099 63.04L75.9999 63L76.2399 62.94C76.4099 62.94 76.7199 62.82 77.0399 62.75C77.3599 62.68 77.7499 62.61 78.1699 62.54C79.1599 62.4 80.1699 62.32 81.1699 62.32C82.3499 62.32 83.5399 62.4 84.7099 62.57C84.9199 62.57 85.4499 62.67 85.7099 62.72C85.9699 62.77 86.2499 62.81 86.5499 62.88C87.1299 63.02 87.6999 63.14 88.2399 63.3C89.1999 63.57 90.1399 63.9 91.0599 64.3C91.6599 64.58 92.2499 64.89 92.8199 65.24C93.2199 65.48 93.4199 65.63 93.4199 65.63L93.6999 65.84C94.8999 66.75 96.6199 66.51 97.5199 65.3C98.2599 64.32 98.2499 62.97 97.5099 62Z" fill="#1A1717" style="fill:#1A1717;fill:color(display-p3 0.1020 0.0902 0.0902);fill-opacity:1;"/>
<path d="M44.6699 46.94C40.4799 46.94 36.6699 50.48 36.6699 56.36C36.6699 62.24 40.4799 65.77 44.6699 65.77C48.8599 65.77 52.6699 62.23 52.6699 56.36C52.6699 50.49 48.8599 46.94 44.6699 46.94Z" fill="#422B0D" style="fill:#422B0D;fill:color(display-p3 0.2588 0.1686 0.0510);fill-opacity:1;"/>
<path d="M44.6699 46.94C40.4799 46.94 36.6699 50.48 36.6699 56.36C36.6699 62.24 40.4799 65.77 44.6699 65.77C48.8599 65.77 52.6699 62.23 52.6699 56.36C52.6699 50.49 48.8599 46.94 44.6699 46.94Z" fill="#1A1717" style="fill:#1A1717;fill:color(display-p3 0.1020 0.0902 0.0902);fill-opacity:1;"/>
<path d="M29.84 44.8C28.97 44.81 28.16 44.39 27.65 43.69C27.17 42.97 27.08 42.05 27.42 41.25C29.46 36.13 33.4 31.99 38.42 29.71C40.27 28.85 42.24 28.27 44.27 28C44.4 27.99 44.53 27.99 44.66 28C45.92 27.95 47.01 28.86 47.19 30.11C47.37 31.44 46.58 32.7 45.3 33.11L44.93 32.41L45.18 33.15C39.81 35.03 35.23 38.67 32.18 43.47C31.7 44.29 30.82 44.79 29.87 44.79L29.84 44.8Z" fill="#1A1717" style="fill:#1A1717;fill:color(display-p3 0.1020 0.0902 0.0902);fill-opacity:1;"/>
<path d="M44.2801 50.87C42.8601 50.19 41.1501 50.79 40.4601 52.21C39.9301 53.32 40.1701 54.65 41.0601 55.51C42.4801 56.19 44.1901 55.59 44.8801 54.17C45.4101 53.06 45.1701 51.73 44.2801 50.87Z" fill="#555050" style="fill:#555050;fill:color(display-p3 0.3333 0.3125 0.3125);fill-opacity:1;"/>
<defs>
<radialGradient id="paint0_radial_169_9352" cx="0" cy="0" r="1" gradientUnits="userSpaceOnUse" gradientTransform="translate(63.6001 62.9) scale(56.9597 56.9597)">
<stop offset="0.5" stop-color="#FDE030" style="stop-color:#FDE030;stop-color:color(display-p3 0.9922 0.8784 0.1882);stop-opacity:1;"/>
<stop offset="0.92" stop-color="#F7C02B" style="stop-color:#F7C02B;stop-color:color(display-p3 0.9686 0.7529 0.1686);stop-opacity:1;"/>
<stop offset="1" stop-color="#F4A223" style="stop-color:#F4A223;stop-color:color(display-p3 0.9569 0.6353 0.1373);stop-opacity:1;"/>
</radialGradient>
<radialGradient id="paint1_radial_169_9352" cx="0" cy="0" r="1" gradientUnits="userSpaceOnUse" gradientTransform="translate(38.5991 34.5377) rotate(-43.2082) scale(102.024 101.825)">
<stop offset="0.3533" stop-color="#F9DDBD" style="stop-color:#F9DDBD;stop-color:color(display-p3 0.9765 0.8667 0.7412);stop-opacity:1;"/>
<stop offset="0.8723" stop-color="#FFD29C" style="stop-color:#FFD29C;stop-color:color(display-p3 1.0000 0.8235 0.6118);stop-opacity:1;"/>
</radialGradient>
<radialGradient id="paint2_radial_169_9352" cx="0" cy="0" r="1" gradientUnits="userSpaceOnUse" gradientTransform="translate(38.5991 34.5377) rotate(-43.2082) scale(102.024 101.825)">
<stop offset="0.3533" stop-color="#70534A" style="stop-color:#70534A;stop-color:color(display-p3 0.4392 0.3255 0.2902);stop-opacity:1;"/>
<stop offset="0.8723" stop-color="#5C4037" style="stop-color:#5C4037;stop-color:color(display-p3 0.3608 0.2510 0.2157);stop-opacity:1;"/>
</radialGradient>
</defs>
</svg>
