<svg width="128" height="128" viewBox="0 0 128 128" fill="none" xmlns="http://www.w3.org/2000/svg">
<path d="M64.0001 6.25C32.9001 6.25 4.1001 26.95 4.1001 63.95C4.1001 101.25 32.9001 121.75 64.0001 121.75C95.1001 121.75 123.9 101.75 123.9 63.95C123.8 26.45 95.0001 6.25 64.0001 6.25Z" fill="url(#paint0_radial_169_12454)" style=""/>
<path d="M64.0001 6.25C32.9001 6.25 4.1001 26.95 4.1001 63.95C4.1001 101.25 32.9001 121.75 64.0001 121.75C95.1001 121.75 123.9 101.75 123.9 63.95C123.8 26.45 95.0001 6.25 64.0001 6.25Z" fill="url(#paint1_radial_169_12454)" style=""/>
<path d="M64.0001 6.25C32.9001 6.25 4.1001 26.95 4.1001 63.95C4.1001 101.25 32.9001 121.75 64.0001 121.75C95.1001 121.75 123.9 101.75 123.9 63.95C123.8 26.45 95.0001 6.25 64.0001 6.25Z" fill="url(#paint2_radial_169_12454)" style=""/>
<path d="M64.0001 6.25C32.9001 6.25 4.1001 26.95 4.1001 63.95C4.1001 101.25 32.9001 121.75 64.0001 121.75C95.1001 121.75 123.9 101.75 123.9 63.95C123.8 26.45 95.0001 6.25 64.0001 6.25Z" fill="url(#paint3_radial_169_12454)" style=""/>
<path d="M64.0001 6.25C32.9001 6.25 4.1001 26.95 4.1001 63.95C4.1001 101.25 32.9001 121.75 64.0001 121.75C95.1001 121.75 123.9 101.75 123.9 63.95C123.8 26.45 95.0001 6.25 64.0001 6.25Z" fill="url(#paint4_radial_169_12454)" style=""/>
<path d="M96.68 86.83C97.01 84.25 96.1 81.44 94.58 79.4C94.38 79.13 93.95 79.26 93.94 79.59C93.87 81.3 93.26 84.75 89.57 86.03C82.6 88.45 79.15 76.65 69.06 77.6C66.87 77.81 65.2 78.78 63.99 80.22C63.98 80.21 63.97 80.2 63.97 80.2C63.96 80.21 63.95 80.22 63.95 80.22C62.74 78.78 61.07 77.8 58.88 77.6C48.78 76.65 45.33 88.45 38.37 86.03C34.68 84.75 34.07 81.3 34 79.59C33.99 79.26 33.56 79.13 33.36 79.4C31.84 81.44 30.92 84.25 31.26 86.83C31.91 91.83 36.73 93.31 36.73 93.31C35.39 94.57 34.1 94.9 32.55 94.78C32.05 94.74 31.73 95.34 32.04 95.73C35.67 100.41 42.34 101.88 47.21 98.83C46.92 99.77 46.46 100.65 45.87 101.39C45.63 101.7 45.74 102.16 46.11 102.31C52.33 104.82 58.79 103.67 63.98 98.63C69.16 103.67 75.63 104.82 81.85 102.31C82.21 102.16 82.33 101.7 82.09 101.39C81.5 100.65 81.04 99.77 80.75 98.83C85.61 101.88 92.29 100.41 95.92 95.73C96.23 95.33 95.91 94.74 95.41 94.78C93.85 94.9 92.57 94.57 91.23 93.31C91.21 93.31 96.04 91.83 96.68 86.83Z" fill="url(#paint5_radial_169_12454)" style=""/>
<path d="M27.46 19.97C29.62 21.23 30.71 23.79 30.71 23.79C30.71 23.79 27.62 21.5 22.57 24.86C19.87 26.65 19.77 28.04 16.56 29.2C16.2 29.33 16.09 29.81 16.38 30.07C18.14 31.63 20.12 32.94 22.33 33.75C26.03 35.11 29.8 33.12 33.62 33C38.74 32.83 45.37 34.28 49.92 36.86C51.21 33.18 51.15 29.05 49.76 25.41C48.5 22.12 46.17 19.26 43.22 17.34C42.84 17.09 42.35 17.4 42.41 17.85L43.21 23.27C40.91 19.78 37.3 17.68 33.09 17.82C31.37 17.88 29.14 18.21 27.47 19.05C27.11 19.24 27.11 19.76 27.46 19.97Z" fill="url(#paint6_radial_169_12454)" style=""/>
<path d="M100.54 19.97C98.38 21.23 97.29 23.79 97.29 23.79C97.29 23.79 100.38 21.5 105.43 24.86C108.13 26.65 108.23 28.04 111.44 29.2C111.8 29.33 111.91 29.81 111.62 30.07C109.86 31.63 107.88 32.94 105.67 33.75C101.97 35.11 98.2 33.12 94.38 33C89.26 32.83 82.63 34.28 78.08 36.86C76.79 33.18 76.85 29.05 78.24 25.41C79.5 22.12 81.83 19.26 84.78 17.34C85.16 17.09 85.65 17.4 85.59 17.85L84.79 23.27C87.09 19.78 90.7 17.68 94.91 17.82C96.63 17.88 98.86 18.21 100.53 19.05C100.89 19.24 100.89 19.76 100.54 19.97Z" fill="url(#paint7_radial_169_12454)" style=""/>
<path d="M34.5601 34.37C44.2701 34.37 52.1801 42.27 52.1801 51.99C52.1801 61.71 44.2801 69.61 34.5601 69.61C24.8401 69.61 16.9401 61.71 16.9401 51.99C16.9401 42.27 24.8401 34.37 34.5601 34.37ZM34.5601 29.03C21.8801 29.03 11.6001 39.31 11.6001 51.99C11.6001 64.67 21.8801 74.95 34.5601 74.95C47.2401 74.95 57.5201 64.67 57.5201 51.99C57.5201 39.31 47.2401 29.03 34.5601 29.03Z" fill="#212121" style="fill:#212121;fill:color(display-p3 0.1294 0.1294 0.1294);fill-opacity:1;"/>
<path d="M93.3902 34.37C103.1 34.37 111.01 42.27 111.01 51.99C111.01 61.71 103.11 69.61 93.3902 69.61C83.6702 69.61 75.7702 61.71 75.7702 51.99C75.7702 42.27 83.6802 34.37 93.3902 34.37ZM93.3902 29.03C80.7102 29.03 70.4302 39.31 70.4302 51.99C70.4302 64.67 80.7102 74.95 93.3902 74.95C106.07 74.95 116.35 64.67 116.35 51.99C116.35 39.31 106.07 29.03 93.3902 29.03Z" fill="#212121" style="fill:#212121;fill:color(display-p3 0.1294 0.1294 0.1294);fill-opacity:1;"/>
<path d="M115.17 59.44C116.19 56.53 120.85 55.06 123.09 54.51C123.8 54.34 124.31 53.7 124.31 52.97V49.82C124.31 48.97 123.65 48.28 122.8 48.24C120.54 48.13 116.41 47.56 115.3 44.92C113.73 41.22 113.82 63.31 115.17 59.44Z" fill="url(#paint8_linear_169_12454)" style=""/>
<path d="M72.39 42.8C72.38 42.8 72.05 44.11 70.22 44.11C68.43 44.11 67.59 42.63 64 42.63C60.41 42.63 59.57 44.11 57.78 44.11C55.95 44.11 55.61 42.81 55.61 42.8C55.05 42.46 55.36 48.87 55.36 48.87C55.55 49.5 56.62 55.74 57.21 55.82C57.21 55.82 59.66 51.51 64 51.46C68.33 51.51 70.79 55.82 70.79 55.82C71.38 55.74 72.45 49.5 72.64 48.87C72.64 48.87 72.94 42.46 72.39 42.8Z" fill="#212121" style="fill:#212121;fill:color(display-p3 0.1294 0.1294 0.1294);fill-opacity:1;"/>
<path d="M12.8299 59.44C11.8099 56.53 7.14994 55.06 4.90994 54.51C4.19994 54.34 3.68994 53.7 3.68994 52.97V49.82C3.68994 48.97 4.34994 48.28 5.19994 48.24C7.45994 48.13 11.5899 47.56 12.6999 44.92C14.2699 41.22 14.1799 63.31 12.8299 59.44Z" fill="url(#paint9_linear_169_12454)" style=""/>
<path d="M72.5702 61.58C70.2502 53.83 69.0202 49.24 64.0202 49.22C64.0102 49.22 64.0002 49.22 63.9902 49.22C63.9802 49.22 63.9702 49.22 63.9602 49.22C58.9702 49.23 57.7402 53.83 55.4102 61.58C52.6102 70.9 43.2602 77.59 47.9302 83.9C49.6102 86.16 51.9402 86.12 53.3602 86.48C54.7602 86.84 57.5402 93.32 63.9602 93.32C63.9702 93.32 63.9802 93.32 63.9902 93.32C64.0002 93.32 64.0102 93.32 64.0202 93.32C70.4402 93.32 73.2202 86.85 74.6202 86.48C76.0402 86.11 78.3702 86.16 80.0502 83.9C84.7202 77.58 75.3702 70.9 72.5702 61.58Z" fill="url(#paint10_linear_169_12454)" style=""/>
<path d="M72.5702 61.58C70.2502 53.83 69.0202 49.24 64.0202 49.22C64.0102 49.22 64.0002 49.22 63.9902 49.22C63.9802 49.22 63.9702 49.22 63.9602 49.22C58.9702 49.23 57.7402 53.83 55.4102 61.58C52.6102 70.9 43.2602 77.59 47.9302 83.9C49.6102 86.16 51.9402 86.12 53.3602 86.48C54.7602 86.84 57.5402 93.32 63.9602 93.32C63.9702 93.32 63.9802 93.32 63.9902 93.32C64.0002 93.32 64.0102 93.32 64.0202 93.32C70.4402 93.32 73.2202 86.85 74.6202 86.48C76.0402 86.11 78.3702 86.16 80.0502 83.9C84.7202 77.58 75.3702 70.9 72.5702 61.58Z" fill="url(#paint11_radial_169_12454)" style=""/>
<path d="M72.5702 61.58C70.2502 53.83 69.0202 49.24 64.0202 49.22C64.0102 49.22 64.0002 49.22 63.9902 49.22C63.9802 49.22 63.9702 49.22 63.9602 49.22C58.9702 49.23 57.7402 53.83 55.4102 61.58C52.6102 70.9 43.2602 77.59 47.9302 83.9C49.6102 86.16 51.9402 86.12 53.3602 86.48C54.7602 86.84 57.5402 93.32 63.9602 93.32C63.9702 93.32 63.9802 93.32 63.9902 93.32C64.0002 93.32 64.0102 93.32 64.0202 93.32C70.4402 93.32 73.2202 86.85 74.6202 86.48C76.0402 86.11 78.3702 86.16 80.0502 83.9C84.7202 77.58 75.3702 70.9 72.5702 61.58Z" fill="url(#paint12_radial_169_12454)" style=""/>
<path d="M72.5702 61.58C70.2502 53.83 69.0202 49.24 64.0202 49.22C64.0102 49.22 64.0002 49.22 63.9902 49.22C63.9802 49.22 63.9702 49.22 63.9602 49.22C58.9702 49.23 57.7402 53.83 55.4102 61.58C52.6102 70.9 43.2602 77.59 47.9302 83.9C49.6102 86.16 51.9402 86.12 53.3602 86.48C54.7602 86.84 57.5402 93.32 63.9602 93.32C63.9702 93.32 63.9802 93.32 63.9902 93.32C64.0002 93.32 64.0102 93.32 64.0202 93.32C70.4402 93.32 73.2202 86.85 74.6202 86.48C76.0402 86.11 78.3702 86.16 80.0502 83.9C84.7202 77.58 75.3702 70.9 72.5702 61.58Z" fill="url(#paint13_radial_169_12454)" style=""/>
<path d="M57.2502 68.5C59.0002 64.79 59.4602 58.21 59.4602 58.21C59.4602 58.21 57.8302 60.02 54.5102 64.83C53.8402 65.81 52.5302 67.91 51.7602 69.2C48.7002 74.37 44.6702 79.47 47.9502 83.89C49.6302 86.15 51.9602 86.11 53.3802 86.47C53.8102 86.58 54.3702 87.26 55.1102 88.15C55.1102 88.15 52.9202 84.24 53.3802 80.24C53.8402 76.24 55.5002 72.21 57.2502 68.5Z" fill="url(#paint14_radial_169_12454)" style=""/>
<path d="M70.7803 68.5C69.0303 64.79 68.5703 58.21 68.5703 58.21C68.5703 58.21 70.2003 60.02 73.5203 64.83C74.1903 65.81 75.5003 67.91 76.2703 69.2C79.3303 74.37 83.3603 79.47 80.0803 83.89C78.4003 86.15 76.0703 86.11 74.6503 86.47C74.2203 86.58 73.6603 87.26 72.9203 88.15C72.9203 88.15 75.1103 84.24 74.6503 80.24C74.1903 76.24 72.5303 72.21 70.7803 68.5Z" fill="url(#paint15_radial_169_12454)" style=""/>
<path d="M90.02 41.9399C85.83 41.9399 82.02 45.4799 82.02 51.3599C82.02 57.2399 85.83 60.7799 90.02 60.7799C94.21 60.7799 98.02 57.2399 98.02 51.3599C98.02 45.4799 94.21 41.9399 90.02 41.9399Z" fill="#35220B" style="fill:#35220B;fill:color(display-p3 0.2078 0.1333 0.0431);fill-opacity:1;"/>
<path d="M90.02 41.9399C85.83 41.9399 82.02 45.4799 82.02 51.3599C82.02 57.2399 85.83 60.7799 90.02 60.7799C94.21 60.7799 98.02 57.2399 98.02 51.3599C98.02 45.4799 94.21 41.9399 90.02 41.9399Z" fill="#1A1717" style="fill:#1A1717;fill:color(display-p3 0.1020 0.0902 0.0902);fill-opacity:1;"/>
<path d="M90.02 41.9399C85.83 41.9399 82.02 45.4799 82.02 51.3599C82.02 57.2399 85.83 60.7799 90.02 60.7799C94.21 60.7799 98.02 57.2399 98.02 51.3599C98.02 45.4799 94.21 41.9399 90.02 41.9399Z" fill="#49362E" style="fill:#49362E;fill:color(display-p3 0.2863 0.2118 0.1804);fill-opacity:1;"/>
<path d="M89.6301 45.87C88.6001 45.15 87.0501 45.38 86.0501 46.82C85.0501 48.27 85.3801 49.79 86.4101 50.51C87.4401 51.23 88.9901 51 89.9901 49.56C91.0001 48.11 90.6701 46.59 89.6301 45.87Z" fill="#555050" style="fill:#555050;fill:color(display-p3 0.3333 0.3125 0.3125);fill-opacity:1;"/>
<path d="M89.6301 45.87C88.6001 45.15 87.0501 45.38 86.0501 46.82C85.0501 48.27 85.3801 49.79 86.4101 50.51C87.4401 51.23 88.9901 51 89.9901 49.56C91.0001 48.11 90.6701 46.59 89.6301 45.87Z" fill="#6A564E" style="fill:#6A564E;fill:color(display-p3 0.4167 0.3385 0.3056);fill-opacity:1;"/>
<path d="M37.6699 41.9399C33.4799 41.9399 29.6699 45.4799 29.6699 51.3599C29.6699 57.2399 33.4799 60.7799 37.6699 60.7799C41.8599 60.7799 45.6699 57.2399 45.6699 51.3599C45.6699 45.4799 41.8599 41.9399 37.6699 41.9399Z" fill="#35220B" style="fill:#35220B;fill:color(display-p3 0.2078 0.1333 0.0431);fill-opacity:1;"/>
<path d="M37.6699 41.9399C33.4799 41.9399 29.6699 45.4799 29.6699 51.3599C29.6699 57.2399 33.4799 60.7799 37.6699 60.7799C41.8599 60.7799 45.6699 57.2399 45.6699 51.3599C45.6699 45.4799 41.8599 41.9399 37.6699 41.9399Z" fill="#1A1717" style="fill:#1A1717;fill:color(display-p3 0.1020 0.0902 0.0902);fill-opacity:1;"/>
<path d="M37.6699 41.9399C33.4799 41.9399 29.6699 45.4799 29.6699 51.3599C29.6699 57.2399 33.4799 60.7799 37.6699 60.7799C41.8599 60.7799 45.6699 57.2399 45.6699 51.3599C45.6699 45.4799 41.8599 41.9399 37.6699 41.9399Z" fill="#49362E" style="fill:#49362E;fill:color(display-p3 0.2863 0.2118 0.1804);fill-opacity:1;"/>
<path d="M37.28 45.87C36.25 45.15 34.7 45.38 33.7 46.82C32.7 48.27 33.03 49.79 34.06 50.51C35.09 51.23 36.64 51 37.64 49.56C38.64 48.11 38.31 46.59 37.28 45.87Z" fill="#555050" style="fill:#555050;fill:color(display-p3 0.3333 0.3125 0.3125);fill-opacity:1;"/>
<path d="M37.28 45.87C36.25 45.15 34.7 45.38 33.7 46.82C32.7 48.27 33.03 49.79 34.06 50.51C35.09 51.23 36.64 51 37.64 49.56C38.64 48.11 38.31 46.59 37.28 45.87Z" fill="#6A564E" style="fill:#6A564E;fill:color(display-p3 0.4167 0.3385 0.3056);fill-opacity:1;"/>
<defs>
<radialGradient id="paint0_radial_169_12454" cx="0" cy="0" r="1" gradientUnits="userSpaceOnUse" gradientTransform="translate(64.0001 64) scale(58.8348 58.8348)">
<stop offset="0.5" stop-color="#FDE030" style="stop-color:#FDE030;stop-color:color(display-p3 0.9922 0.8784 0.1882);stop-opacity:1;"/>
<stop offset="0.9188" stop-color="#F7C02B" style="stop-color:#F7C02B;stop-color:color(display-p3 0.9686 0.7529 0.1686);stop-opacity:1;"/>
<stop offset="1" stop-color="#F4A223" style="stop-color:#F4A223;stop-color:color(display-p3 0.9569 0.6353 0.1373);stop-opacity:1;"/>
</radialGradient>
<radialGradient id="paint1_radial_169_12454" cx="0" cy="0" r="1" gradientUnits="userSpaceOnUse" gradientTransform="translate(38.1801 34.6991) rotate(-43.2175) scale(105.382 105.178)">
<stop offset="0.3533" stop-color="#F9DDBD" style="stop-color:#F9DDBD;stop-color:color(display-p3 0.9765 0.8667 0.7412);stop-opacity:1;"/>
<stop offset="0.8723" stop-color="#FFD29C" style="stop-color:#FFD29C;stop-color:color(display-p3 1.0000 0.8235 0.6118);stop-opacity:1;"/>
</radialGradient>
<radialGradient id="paint2_radial_169_12454" cx="0" cy="0" r="1" gradientUnits="userSpaceOnUse" gradientTransform="translate(38.1801 34.6991) rotate(-43.2175) scale(105.382 105.178)">
<stop offset="0.3533" stop-color="#70534A" style="stop-color:#70534A;stop-color:color(display-p3 0.4392 0.3255 0.2902);stop-opacity:1;"/>
<stop offset="0.8723" stop-color="#5C4037" style="stop-color:#5C4037;stop-color:color(display-p3 0.3608 0.2510 0.2157);stop-opacity:1;"/>
</radialGradient>
<radialGradient id="paint3_radial_169_12454" cx="0" cy="0" r="1" gradientUnits="userSpaceOnUse" gradientTransform="translate(38.1801 34.6991) rotate(-43.2175) scale(105.382 105.178)">
<stop offset="0.3533" stop-color="#A37A58" style="stop-color:#A37A58;stop-color:color(display-p3 0.6375 0.4772 0.3453);stop-opacity:1;"/>
<stop offset="0.8723" stop-color="#8D5738" style="stop-color:#8D5738;stop-color:color(display-p3 0.5529 0.3412 0.2196);stop-opacity:1;"/>
</radialGradient>
<radialGradient id="paint4_radial_169_12454" cx="0" cy="0" r="1" gradientUnits="userSpaceOnUse" gradientTransform="translate(38.1801 34.6991) rotate(-43.2175) scale(105.382 105.178)">
<stop offset="0.3533" stop-color="#AD8264" style="stop-color:#AD8264;stop-color:color(display-p3 0.6784 0.5098 0.3922);stop-opacity:1;"/>
<stop offset="0.8723" stop-color="#A47B62" style="stop-color:#A47B62;stop-color:color(display-p3 0.6431 0.4824 0.3843);stop-opacity:1;"/>
</radialGradient>
<radialGradient id="paint5_radial_169_12454" cx="0" cy="0" r="1" gradientUnits="userSpaceOnUse" gradientTransform="translate(63.9723 88.405) scale(33.8219 15.6156)">
<stop offset="0.0323" style="stop-color:black;stop-opacity:1;"/>
<stop offset="1" stop-color="#424242" style="stop-color:#424242;stop-color:color(display-p3 0.2588 0.2588 0.2588);stop-opacity:1;"/>
</radialGradient>
<radialGradient id="paint6_radial_169_12454" cx="0" cy="0" r="1" gradientUnits="userSpaceOnUse" gradientTransform="translate(37.6029 33.4379) rotate(0.358753) scale(22.0674 14.986)">
<stop offset="0.0323" style="stop-color:black;stop-opacity:1;"/>
<stop offset="0.9664" stop-color="#424242" style="stop-color:#424242;stop-color:color(display-p3 0.2588 0.2588 0.2588);stop-opacity:1;"/>
</radialGradient>
<radialGradient id="paint7_radial_169_12454" cx="0" cy="0" r="1" gradientUnits="userSpaceOnUse" gradientTransform="translate(91.0994 32.9695) rotate(179.641) scale(20.4491 10.6172)">
<stop offset="0.0323" style="stop-color:black;stop-opacity:1;"/>
<stop offset="1" stop-color="#424242" style="stop-color:#424242;stop-color:color(display-p3 0.2588 0.2588 0.2588);stop-opacity:1;"/>
</radialGradient>
<linearGradient id="paint8_linear_169_12454" x1="113.663" y1="52.1947" x2="123.834" y2="52.1947" gradientUnits="userSpaceOnUse">
<stop offset="0.4463" stop-color="#212121" style="stop-color:#212121;stop-color:color(display-p3 0.1294 0.1294 0.1294);stop-opacity:1;"/>
<stop offset="0.7484" stop-color="#323232" style="stop-color:#323232;stop-color:color(display-p3 0.1961 0.1961 0.1961);stop-opacity:1;"/>
<stop offset="0.9664" stop-color="#424242" style="stop-color:#424242;stop-color:color(display-p3 0.2588 0.2588 0.2588);stop-opacity:1;"/>
</linearGradient>
<linearGradient id="paint9_linear_169_12454" x1="14.3366" y1="52.1947" x2="4.16514" y2="52.1947" gradientUnits="userSpaceOnUse">
<stop offset="0.4463" stop-color="#212121" style="stop-color:#212121;stop-color:color(display-p3 0.1294 0.1294 0.1294);stop-opacity:1;"/>
<stop offset="0.7484" stop-color="#323232" style="stop-color:#323232;stop-color:color(display-p3 0.1961 0.1961 0.1961);stop-opacity:1;"/>
<stop offset="0.9664" stop-color="#424242" style="stop-color:#424242;stop-color:color(display-p3 0.2588 0.2588 0.2588);stop-opacity:1;"/>
</linearGradient>
<linearGradient id="paint10_linear_169_12454" x1="64.0002" y1="20.8333" x2="64.0002" y2="56.8888" gradientUnits="userSpaceOnUse">
<stop offset="0.5" stop-color="#F9DDBD" style="stop-color:#F9DDBD;stop-color:color(display-p3 0.9765 0.8667 0.7412);stop-opacity:1;"/>
<stop offset="1" stop-color="#FCD7AB" style="stop-color:#FCD7AB;stop-color:color(display-p3 0.9882 0.8431 0.6706);stop-opacity:1;"/>
</linearGradient>
<radialGradient id="paint11_radial_169_12454" cx="0" cy="0" r="1" gradientUnits="userSpaceOnUse" gradientTransform="translate(56.5135 60.0824) rotate(-51.0926) scale(35.4078 34.6101)">
<stop offset="0.3533" stop-color="#7B5E55" style="stop-color:#7B5E55;stop-color:color(display-p3 0.4833 0.3681 0.3323);stop-opacity:1;"/>
<stop offset="0.8723" stop-color="#65473D" style="stop-color:#65473D;stop-color:color(display-p3 0.3958 0.2785 0.2408);stop-opacity:1;"/>
</radialGradient>
<radialGradient id="paint12_radial_169_12454" cx="0" cy="0" r="1" gradientUnits="userSpaceOnUse" gradientTransform="translate(56.5135 60.0824) rotate(-51.0926) scale(35.4078 34.6101)">
<stop offset="0.3533" stop-color="#A37A58" style="stop-color:#A37A58;stop-color:color(display-p3 0.6375 0.4772 0.3453);stop-opacity:1;"/>
<stop offset="0.8723" stop-color="#8D5738" style="stop-color:#8D5738;stop-color:color(display-p3 0.5529 0.3412 0.2196);stop-opacity:1;"/>
</radialGradient>
<radialGradient id="paint13_radial_169_12454" cx="0" cy="0" r="1" gradientUnits="userSpaceOnUse" gradientTransform="translate(56.5135 60.0824) rotate(-51.0926) scale(35.4078 34.6101)">
<stop offset="0.3533" stop-color="#AD8264" style="stop-color:#AD8264;stop-color:color(display-p3 0.6784 0.5098 0.3922);stop-opacity:1;"/>
<stop offset="0.8723" stop-color="#A47B62" style="stop-color:#A47B62;stop-color:color(display-p3 0.6431 0.4824 0.3843);stop-opacity:1;"/>
</radialGradient>
<radialGradient id="paint14_radial_169_12454" cx="0" cy="0" r="1" gradientUnits="userSpaceOnUse" gradientTransform="translate(58.3373 82.8514) rotate(15.7959) scale(11.5069 13.6846)">
<stop offset="0.000198287" stop-color="#4A2F27" style="stop-color:#4A2F27;stop-color:color(display-p3 0.2902 0.1843 0.1529);stop-opacity:1;"/>
<stop offset="0.7126" stop-color="#4A2F27" stop-opacity="0.2874" style="stop-color:#4A2F27;stop-color:color(display-p3 0.2902 0.1843 0.1529);stop-opacity:0.2874;"/>
<stop offset="1" stop-color="#4A2F27" stop-opacity="0" style="stop-color:none;stop-opacity:0;"/>
</radialGradient>
<radialGradient id="paint15_radial_169_12454" cx="0" cy="0" r="1" gradientUnits="userSpaceOnUse" gradientTransform="translate(69.6908 82.8515) rotate(164.204) scale(11.507 13.6846)">
<stop offset="0.000198287" stop-color="#4A2F27" style="stop-color:#4A2F27;stop-color:color(display-p3 0.2902 0.1843 0.1529);stop-opacity:1;"/>
<stop offset="0.7126" stop-color="#4A2F27" stop-opacity="0.2874" style="stop-color:#4A2F27;stop-color:color(display-p3 0.2902 0.1843 0.1529);stop-opacity:0.2874;"/>
<stop offset="1" stop-color="#4A2F27" stop-opacity="0" style="stop-color:none;stop-opacity:0;"/>
</radialGradient>
</defs>
</svg>
