<svg width="128" height="128" viewBox="0 0 128 128" fill="none" xmlns="http://www.w3.org/2000/svg">
<path d="M63.6 118.8C35.7 118.8 5.59998 101.3 5.59998 62.9C5.59998 24.5 35.7 7 63.6 7C79.1 7 93.4 12.1 104 21.4C115.5 31.6 121.6 46 121.6 62.9C121.6 79.8 115.5 94.1 104 104.3C93.4 113.6 79 118.8 63.6 118.8Z" fill="url(#paint0_radial_169_7081)" style=""/>
<path d="M63.6 118.8C35.7 118.8 5.59998 101.3 5.59998 62.9C5.59998 24.5 35.7 7 63.6 7C79.1 7 93.4 12.1 104 21.4C115.5 31.6 121.6 46 121.6 62.9C121.6 79.8 115.5 94.1 104 104.3C93.4 113.6 79 118.8 63.6 118.8Z" fill="url(#paint1_radial_169_7081)" style=""/>
<path d="M63.6 118.8C35.7 118.8 5.59998 101.3 5.59998 62.9C5.59998 24.5 35.7 7 63.6 7C79.1 7 93.4 12.1 104 21.4C115.5 31.6 121.6 46 121.6 62.9C121.6 79.8 115.5 94.1 104 104.3C93.4 113.6 79 118.8 63.6 118.8Z" fill="url(#paint2_radial_169_7081)" style=""/>
<path d="M111.49 29.67C116.82 38.27 119.6 48.51 119.6 59.9C119.6 76.8 113.5 91.1 102 101.3C91.3999 110.6 76.9999 115.8 61.5999 115.8C43.5399 115.8 24.5999 108.45 13.4199 92.86C24.1799 110.52 44.4199 118.8 63.5999 118.8C78.9999 118.8 93.3999 113.6 104 104.3C115.5 94.1001 121.6 79.8 121.6 62.9C121.6 50.16 118.13 38.84 111.49 29.67Z" fill="#EB8F00" style="fill:#EB8F00;fill:color(display-p3 0.9216 0.5608 0.0000);fill-opacity:1;"/>
<path d="M111.49 29.67C116.82 38.27 119.6 48.51 119.6 59.9C119.6 76.8 113.5 91.1 102 101.3C91.3999 110.6 76.9999 115.8 61.5999 115.8C43.5399 115.8 24.5999 108.45 13.4199 92.86C24.1799 110.52 44.4199 118.8 63.5999 118.8C78.9999 118.8 93.3999 113.6 104 104.3C115.5 94.1001 121.6 79.8 121.6 62.9C121.6 50.16 118.13 38.84 111.49 29.67Z" fill="#F3B872" style="fill:#F3B872;fill:color(display-p3 0.9542 0.7229 0.4453);fill-opacity:1;"/>
<path d="M111.49 29.67C116.82 38.27 119.6 48.51 119.6 59.9C119.6 76.8 113.5 91.1 102 101.3C91.3999 110.6 76.9999 115.8 61.5999 115.8C43.5399 115.8 24.5999 108.45 13.4199 92.86C24.1799 110.52 44.4199 118.8 63.5999 118.8C78.9999 118.8 93.3999 113.6 104 104.3C115.5 94.1001 121.6 79.8 121.6 62.9C121.6 50.16 118.13 38.84 111.49 29.67Z" fill="#BA8F63" style="fill:#BA8F63;fill:color(display-p3 0.7294 0.5608 0.3882);fill-opacity:1;"/>
<path d="M82.56 71.1901C92.1918 71.1901 100 63.3819 100 53.7501C100 44.1182 92.1918 36.3101 82.56 36.3101C72.9281 36.3101 65.12 44.1182 65.12 53.7501C65.12 63.3819 72.9281 71.1901 82.56 71.1901Z" fill="white" style="fill:white;fill-opacity:1;"/>
<path d="M83.3101 61.35C87.4412 61.35 90.7901 57.9474 90.7901 53.75C90.7901 49.5527 87.4412 46.15 83.3101 46.15C79.179 46.15 75.8301 49.5527 75.8301 53.75C75.8301 57.9474 79.179 61.35 83.3101 61.35Z" fill="#5D4037" style="fill:#5D4037;fill:color(display-p3 0.3647 0.2510 0.2157);fill-opacity:1;"/>
<path d="M52.56 56.8901L52.41 56.6401C52.24 56.3701 52.06 56.1001 51.87 55.8501C51.21 54.9801 50.49 54.1601 49.71 53.4001C48.65 52.3801 47.52 51.4201 46.34 50.5401C45.69 50.0801 45.02 49.5401 44.34 49.1401C43.66 48.7401 42.94 48.2601 42.16 47.8101C41.38 47.3601 40.69 47.0101 39.94 46.6401C39.19 46.2701 38.43 45.9401 37.7 45.6401C36.34 45.0701 34.94 44.5901 33.51 44.2101C32.46 43.9301 31.39 43.7301 30.31 43.6201C29.98 43.5801 29.64 43.5601 29.31 43.5601H29C27.64 43.5401 26.52 44.6201 26.5 45.9801C26.48 47.0501 27.16 48.0101 28.17 48.3501L28.43 48.4401L29.3 48.7201C29.87 48.9101 30.69 49.2201 31.71 49.6401C32.73 50.0601 33.9 50.6401 35.16 51.2401L37.09 52.2401C37.75 52.5801 38.37 52.9301 39.09 53.3501L39.5 53.5801C39.05 53.5801 38.6 53.6601 38.15 53.7201C37.7 53.7801 37.39 53.8401 36.89 53.9401C36.39 54.0401 35.98 54.1301 35.57 54.2301C34.74 54.4401 33.92 54.7001 33.12 55.0001C31.67 55.5401 30.29 56.2501 29 57.1101C28.47 57.4701 27.97 57.8601 27.5 58.2901C27.12 58.6201 26.77 58.9701 26.44 59.3501C26.21 59.6001 26 59.8601 25.81 60.1301L25.6 60.4101C24.84 61.5301 25.13 63.0601 26.25 63.8301C27.08 64.3901 28.17 64.4001 29 63.8401L29.27 63.6301L29.44 63.5001L29.94 63.1501C30.58 62.7201 31.25 62.3401 31.94 62.0101C32.96 61.5201 34.02 61.1201 35.1 60.8001C35.71 60.6101 36.35 60.4601 37 60.3101C37.33 60.2301 37.65 60.1701 37.95 60.1201C38.25 60.0701 38.74 60.0001 39 60.0001C40.33 59.8201 41.66 59.7301 43 59.7401C44.13 59.7601 45.26 59.8601 46.38 60.0401C46.85 60.1301 47.29 60.2201 47.65 60.3201C48.01 60.4201 48.36 60.5201 48.57 60.5801L48.86 60.6701L49.17 60.8001L49.43 60.9201C50.45 61.3601 51.65 61.0701 52.35 60.2001C52.68 59.7901 52.87 59.2901 52.89 58.7701C53.04 58.1201 52.92 57.4501 52.56 56.8901Z" fill="#5D4037" style="fill:#5D4037;fill:color(display-p3 0.3647 0.2510 0.2157);fill-opacity:1;"/>
<path d="M62.82 80.4301C51.32 80.4901 39.84 79.5301 28.51 77.5401C26.61 77.1801 24.77 78.4301 24.41 80.3301C24.33 80.7701 24.33 81.2301 24.41 81.6701C27.67 97.6701 43.41 110.8 62.81 110.8C84.02 110.8 98.29 97.2301 101.26 81.6101C101.6 79.7001 100.34 77.8801 98.43 77.5301C98.01 77.4501 97.57 77.4601 97.15 77.5401C85.82 79.5301 74.33 80.4901 62.82 80.4301Z" fill="#5D4037" style="fill:#5D4037;fill:color(display-p3 0.3647 0.2510 0.2157);fill-opacity:1;"/>
<path d="M65.54 85.0001H62.81H61.55C55.82 85.0001 50.17 84.7301 44.74 84.2801V108.85C44.75 118.32 52.44 126 61.91 126H65.18C74.66 126 82.35 118.31 82.35 108.83V84.1501C76.93 84.6401 71.29 84.9301 65.54 85.0001Z" fill="#FF4081" style="fill:#FF4081;fill:color(display-p3 1.0000 0.2510 0.5059);fill-opacity:1;"/>
<path opacity="0.3" d="M63.55 106.25C64.65 106.25 65.55 105.35 65.55 104.25V85.0001H62.82H61.55V104.24C61.54 105.34 62.44 106.24 63.54 106.25H63.55Z" fill="#AB3F2E" style="fill:#AB3F2E;fill:color(display-p3 0.6706 0.2471 0.1804);fill-opacity:1;"/>
<path opacity="0.3" d="M65.54 85H61.54C55.81 85 50.16 84.73 44.73 84.28V87.83C49.47 88.9 63.53 91.31 82.34 87.61V84.15C76.93 84.64 71.29 84.93 65.54 85Z" fill="#AB3F2E" style="fill:#AB3F2E;fill:color(display-p3 0.6706 0.2471 0.1804);fill-opacity:1;"/>
<defs>
<radialGradient id="paint0_radial_169_7081" cx="0" cy="0" r="1" gradientUnits="userSpaceOnUse" gradientTransform="translate(63.6 62.9) scale(56.9597 56.9597)">
<stop offset="0.5" stop-color="#FDE030" style="stop-color:#FDE030;stop-color:color(display-p3 0.9922 0.8784 0.1882);stop-opacity:1;"/>
<stop offset="0.92" stop-color="#F7C02B" style="stop-color:#F7C02B;stop-color:color(display-p3 0.9686 0.7529 0.1686);stop-opacity:1;"/>
<stop offset="1" stop-color="#F4A223" style="stop-color:#F4A223;stop-color:color(display-p3 0.9569 0.6353 0.1373);stop-opacity:1;"/>
</radialGradient>
<radialGradient id="paint1_radial_169_7081" cx="0" cy="0" r="1" gradientUnits="userSpaceOnUse" gradientTransform="translate(38.599 34.5377) rotate(-43.2082) scale(102.024 101.825)">
<stop offset="0.3533" stop-color="#F9DDBD" style="stop-color:#F9DDBD;stop-color:color(display-p3 0.9765 0.8667 0.7412);stop-opacity:1;"/>
<stop offset="0.8723" stop-color="#FFD29C" style="stop-color:#FFD29C;stop-color:color(display-p3 1.0000 0.8235 0.6118);stop-opacity:1;"/>
</radialGradient>
<radialGradient id="paint2_radial_169_7081" cx="0" cy="0" r="1" gradientUnits="userSpaceOnUse" gradientTransform="translate(38.599 34.5377) rotate(-43.2082) scale(102.024 101.825)">
<stop offset="0.3533" stop-color="#E0BB95" style="stop-color:#E0BB95;stop-color:color(display-p3 0.8784 0.7333 0.5843);stop-opacity:1;"/>
<stop offset="0.8723" stop-color="#CCA47A" style="stop-color:#CCA47A;stop-color:color(display-p3 0.8000 0.6431 0.4784);stop-opacity:1;"/>
</radialGradient>
</defs>
</svg>
