<svg width="128" height="128" viewBox="0 0 128 128" fill="none" xmlns="http://www.w3.org/2000/svg">
<path d="M119.43 86.9609C122.446 79.6814 123.997 71.8793 123.997 64C123.997 56.1207 122.446 48.3185 119.43 41.039C116.415 33.7594 111.996 27.1451 106.425 21.5736C100.853 16.0021 94.2392 11.5825 86.96 8.56722C79.6808 5.55194 71.8789 4 63.9999 4C56.121 4 48.3191 5.55194 41.0399 8.56722C33.7607 11.5825 27.1466 16.0021 21.5753 21.5736C16.004 27.1451 11.5846 33.7594 8.56947 41.039C5.55431 48.3185 4.00244 56.1207 4.00244 64C4.00244 71.8793 5.55431 79.6814 8.56947 86.9609C11.5846 94.2405 16.004 100.855 21.5753 106.426C27.1466 111.998 33.7607 116.417 41.0399 119.433C48.3191 122.448 56.121 124 63.9999 124C71.8789 124 79.6808 122.448 86.96 119.433C94.2392 116.417 100.853 111.998 106.425 106.426C111.996 100.855 116.415 94.2405 119.43 86.9609Z" fill="url(#paint0_radial_83_17)" style=""/>
<path d="M64 124C97.1371 124 124 97.1371 124 64C124 30.8629 97.1371 4 64 4C30.8629 4 4 30.8629 4 64C4 97.1371 30.8629 124 64 124Z" fill="#CB3205" style="fill:#CB3205;fill:color(display-p3 0.7958 0.1969 0.0199);fill-opacity:1;"/>
<path d="M60.1 119.2C91.0832 119.2 116.2 94.0832 116.2 63.1C116.2 32.1168 91.0832 7 60.1 7C29.1168 7 4 32.1168 4 63.1C4 94.0832 29.1168 119.2 60.1 119.2Z" fill="#E7633C" style="fill:#E7633C;fill:color(display-p3 0.9059 0.3882 0.2353);fill-opacity:1;"/>
<path opacity="0.3" d="M24.0003 29.7C28.5003 22.6 38.1003 16.7 48.1003 14.9C50.6003 14.5 53.1003 14.3 55.2003 15.1C56.8003 15.7 58.1003 17.2 57.2003 18.9C56.5003 20.3 54.6003 20.9 53.1003 21.4C43.8003 24.4 35.2003 27.8001 30.0003 35.7001C28.0003 38.7001 25.1003 50.1 21.4003 48C17.5003 45.7001 18.3003 38.5 24.0003 29.7Z" fill="white" style="fill:white;fill-opacity:1;"/>
<path d="M21.2476 55.8693C16.6917 55.8693 13 59.5092 13 64.0014C13 68.4918 16.6917 72.1321 21.2476 72.1321C25.8018 72.1321 29.4939 68.4918 29.4939 64.0014C29.4939 59.5088 25.8023 55.8693 21.2476 55.8693ZM80.1342 92.8282C76.1893 95.0736 74.839 100.045 77.1155 103.933C79.3932 107.822 84.4347 109.155 88.3796 106.909C92.3232 104.664 93.6743 99.6929 91.397 95.8037C89.1201 91.9158 84.0778 90.5832 80.1342 92.8282ZM39.162 64.0001C39.162 55.9634 43.2123 48.8649 49.4062 44.5666L43.3767 34.6081C36.159 39.3628 30.7901 46.6315 28.5599 55.1448C31.165 57.2385 32.8295 60.4267 32.8295 64.0009C32.8295 67.5742 31.165 70.7625 28.5595 72.8558C30.7893 81.3699 36.1585 88.6386 43.3762 93.3929L49.4062 83.4335C43.2123 79.1361 39.162 72.038 39.162 64.0001ZM63.2537 40.2459C75.8397 40.2459 86.1637 49.7609 87.246 61.8935L99 61.7241C98.4216 52.7665 94.4532 44.7226 88.3543 38.8106C85.2188 39.9786 81.5965 39.8016 78.4657 38.019C75.3311 36.2347 73.3641 33.2248 72.8254 29.9583C69.7779 29.1267 66.5705 28.6734 63.2541 28.6734C57.5505 28.6734 52.1621 29.9935 47.3756 32.3313L53.1053 42.4561C56.1898 41.041 59.6269 40.2459 63.2537 40.2459ZM63.2537 87.7546C59.6265 87.7546 56.1898 86.9596 53.1049 85.5444L47.3743 95.6701C52.1612 98.007 57.5501 99.3276 63.2537 99.3276C66.57 99.3276 69.7775 98.8743 72.8254 98.0427C73.3641 94.7762 75.3315 91.7663 78.4666 89.9807C81.5973 88.199 85.2197 88.0219 88.3552 89.1904C94.4536 83.278 98.4221 75.234 98.9996 66.2764L87.2455 66.1071C86.1642 78.2414 75.8397 87.7546 63.2537 87.7546ZM80.1329 35.1715C84.0773 37.4178 89.1197 36.0852 91.3961 32.1973C93.6739 28.3076 92.3236 23.3364 88.3787 21.0905C84.4347 18.8455 79.3928 20.1777 77.115 24.0674C74.8381 27.9553 76.1893 32.927 80.1329 35.1715Z" fill="#DD4814" style="fill:#DD4814;fill:color(display-p3 0.8667 0.2824 0.0784);fill-opacity:1;"/>
<path d="M21.2476 55.8693C16.6917 55.8693 13 59.5092 13 64.0014C13 68.4918 16.6917 72.1321 21.2476 72.1321C25.8018 72.1321 29.4939 68.4918 29.4939 64.0014C29.4939 59.5088 25.8023 55.8693 21.2476 55.8693ZM80.1342 92.8282C76.1893 95.0736 74.839 100.045 77.1155 103.933C79.3932 107.822 84.4347 109.155 88.3796 106.909C92.3232 104.664 93.6743 99.6929 91.397 95.8037C89.1201 91.9158 84.0778 90.5832 80.1342 92.8282ZM39.162 64.0001C39.162 55.9634 43.2123 48.8649 49.4062 44.5666L43.3767 34.6081C36.159 39.3628 30.7901 46.6315 28.5599 55.1448C31.165 57.2385 32.8295 60.4267 32.8295 64.0009C32.8295 67.5742 31.165 70.7625 28.5595 72.8558C30.7893 81.3699 36.1585 88.6386 43.3762 93.3929L49.4062 83.4335C43.2123 79.1361 39.162 72.038 39.162 64.0001ZM63.2537 40.2459C75.8397 40.2459 86.1637 49.7609 87.246 61.8935L99 61.7241C98.4216 52.7665 94.4532 44.7226 88.3543 38.8106C85.2188 39.9786 81.5965 39.8016 78.4657 38.019C75.3311 36.2347 73.3641 33.2248 72.8254 29.9583C69.7779 29.1267 66.5705 28.6734 63.2541 28.6734C57.5505 28.6734 52.1621 29.9935 47.3756 32.3313L53.1053 42.4561C56.1898 41.041 59.6269 40.2459 63.2537 40.2459ZM63.2537 87.7546C59.6265 87.7546 56.1898 86.9596 53.1049 85.5444L47.3743 95.6701C52.1612 98.007 57.5501 99.3276 63.2537 99.3276C66.57 99.3276 69.7775 98.8743 72.8254 98.0427C73.3641 94.7762 75.3315 91.7663 78.4666 89.9807C81.5973 88.199 85.2197 88.0219 88.3552 89.1904C94.4536 83.278 98.4221 75.234 98.9996 66.2764L87.2455 66.1071C86.1642 78.2414 75.8397 87.7546 63.2537 87.7546ZM80.1329 35.1715C84.0773 37.4178 89.1197 36.0852 91.3961 32.1973C93.6739 28.3076 92.3236 23.3364 88.3787 21.0905C84.4347 18.8455 79.3928 20.1777 77.115 24.0674C74.8381 27.9553 76.1893 32.927 80.1329 35.1715Z" fill="url(#paint1_linear_83_17)" style=""/>
<defs>
<radialGradient id="paint0_radial_83_17" cx="0" cy="0" r="1" gradientUnits="userSpaceOnUse" gradientTransform="translate(63.9999 49.053) rotate(88.1762) scale(78.4488 78.4455)">
<stop stop-color="#E2765E" style="stop-color:#E2765E;stop-color:color(display-p3 0.8875 0.4630 0.3698);stop-opacity:1;"/>
<stop offset="0.0001" stop-color="#E2765E" style="stop-color:#E2765E;stop-color:color(display-p3 0.8875 0.4630 0.3698);stop-opacity:1;"/>
<stop offset="0.807292" stop-color="#E95F33" style="stop-color:#E95F33;stop-color:color(display-p3 0.9125 0.3721 0.2015);stop-opacity:1;"/>
<stop offset="1" stop-color="#FF6B57" style="stop-color:#FF6B57;stop-color:color(display-p3 1.0000 0.4207 0.3417);stop-opacity:1;"/>
</radialGradient>
<linearGradient id="paint1_linear_83_17" x1="56" y1="20" x2="56" y2="108" gradientUnits="userSpaceOnUse">
<stop stop-color="#F7EADE" style="stop-color:#F7EADE;stop-color:color(display-p3 0.9667 0.9164 0.8700);stop-opacity:1;"/>
<stop offset="1" stop-color="#FFFDFD" style="stop-color:#FFFDFD;stop-color:color(display-p3 1.0000 0.9917 0.9917);stop-opacity:1;"/>
</linearGradient>
</defs>
</svg>
