<svg width="128" height="128" viewBox="0 0 128 128" fill="none" xmlns="http://www.w3.org/2000/svg">
<path d="M63.4301 4.50984C95.1101 4.43984 115.1 55.9698 107.21 88.6298C100.23 117.55 80.1801 123.54 64.1301 123.54C48.0801 123.54 28.5901 115.76 21.0501 89.7498C12.3301 59.6298 33.8701 4.57984 63.4301 4.50984Z" fill="#F1E8DC" style="fill:#F1E8DC;fill:color(display-p3 0.9458 0.9110 0.8631);fill-opacity:1;"/>
<path d="M39.2601 29.0301C35.4601 35.1001 31.6301 42.7401 30.8101 49.1101C29.3101 60.8401 37.9401 62.1601 40.9501 56.3401C43.9601 50.5201 47.0401 44.6301 51.9301 36.8201C58.6901 26.0301 69.7601 18.8001 64.3201 14.1101C58.8801 9.4201 47.2401 16.2701 39.2601 29.0301Z" fill="white" style="fill:white;fill-opacity:1;"/>
</svg>
