<svg width="128" height="128" viewBox="0 0 128 128" fill="none" xmlns="http://www.w3.org/2000/svg">
<path d="M63.6 118.8C35.7 118.8 5.59998 101.3 5.59998 62.9C5.59998 24.5 35.7 7 63.6 7C79.1 7 93.4 12.1 104 21.4C115.5 31.6 121.6 46 121.6 62.9C121.6 79.8 115.5 94.1 104 104.3C93.4 113.6 79 118.8 63.6 118.8Z" fill="url(#paint0_radial_169_5185)" style=""/>
<path d="M63.6 118.8C35.7 118.8 5.59998 101.3 5.59998 62.9C5.59998 24.5 35.7 7 63.6 7C79.1 7 93.4 12.1 104 21.4C115.5 31.6 121.6 46 121.6 62.9C121.6 79.8 115.5 94.1 104 104.3C93.4 113.6 79 118.8 63.6 118.8Z" fill="url(#paint1_radial_169_5185)" style=""/>
<path d="M111.49 29.67C116.82 38.27 119.6 48.51 119.6 59.9C119.6 76.8 113.5 91.1 102 101.3C91.3999 110.6 76.9999 115.8 61.5999 115.8C43.5399 115.8 24.5999 108.45 13.4199 92.86C24.1799 110.52 44.4199 118.8 63.5999 118.8C78.9999 118.8 93.3999 113.6 104 104.3C115.5 94.1001 121.6 79.8 121.6 62.9C121.6 50.16 118.13 38.84 111.49 29.67Z" fill="#EB8F00" style="fill:#EB8F00;fill:color(display-p3 0.9216 0.5608 0.0000);fill-opacity:1;"/>
<path d="M111.49 29.67C116.82 38.27 119.6 48.51 119.6 59.9C119.6 76.8 113.5 91.1 102 101.3C91.3999 110.6 76.9999 115.8 61.5999 115.8C43.5399 115.8 24.5999 108.45 13.4199 92.86C24.1799 110.52 44.4199 118.8 63.5999 118.8C78.9999 118.8 93.3999 113.6 104 104.3C115.5 94.1001 121.6 79.8 121.6 62.9C121.6 50.16 118.13 38.84 111.49 29.67Z" fill="#F3B872" style="fill:#F3B872;fill:color(display-p3 0.9542 0.7229 0.4453);fill-opacity:1;"/>
<path d="M64.3999 83.3C60.8199 83.3 57.2699 82.7 53.8999 81.5C49.7499 80.07 45.2399 82.28 43.8099 86.42C42.9999 88.76 43.3299 91.34 44.6999 93.4C48.9999 100 55.7999 103.6 64.3999 103.6C72.9999 103.6 79.7999 100 84.0999 93.4C86.5299 89.75 85.5299 84.82 81.8799 82.39C79.8199 81.02 77.2399 80.69 74.8999 81.5C71.5299 82.7 67.9799 83.3 64.3999 83.3Z" fill="#312D2D" style="fill:#312D2D;fill:color(display-p3 0.1922 0.1765 0.1765);fill-opacity:1;"/>
<path opacity="0.8" d="M34.2 89.1999C43.8649 89.1999 51.7 81.8126 51.7 72.6999C51.7 63.5872 43.8649 56.2 34.2 56.2C24.535 56.2 16.7 63.5872 16.7 72.6999C16.7 81.8126 24.535 89.1999 34.2 89.1999Z" fill="url(#paint2_radial_169_5185)" style=""/>
<path opacity="0.8" d="M94.4998 89.1999C104.165 89.1999 112 81.8126 112 72.6999C112 63.5872 104.165 56.2 94.4998 56.2C84.8348 56.2 76.9998 63.5872 76.9998 72.6999C76.9998 81.8126 84.8348 89.1999 94.4998 89.1999Z" fill="url(#paint3_radial_169_5185)" style=""/>
<path opacity="0.8" d="M94.6 89.1999C104.265 89.1999 112.1 81.8126 112.1 72.6999C112.1 63.5872 104.265 56.2 94.6 56.2C84.935 56.2 77.1 63.5872 77.1 72.6999C77.1 81.8126 84.935 89.1999 94.6 89.1999Z" fill="url(#paint4_radial_169_5185)" style=""/>
<path d="M107.59 34.37C99.38 32.06 93.35 38.77 93.35 38.77C93.35 38.77 92.65 31.16 85.63 28.77C77.21 25.88 68.32 30.48 67.79 42.41C67.19 56 85.17 73.84 85.17 73.84C85.17 73.84 107.49 67.84 114.8 55.12C120.75 44.77 113.8 36.11 107.59 34.37Z" fill="#F44336" style="fill:#F44336;fill:color(display-p3 0.9569 0.2627 0.2118);fill-opacity:1;"/>
<path d="M107.59 34.3699C106.58 34.0999 105.54 33.9799 104.5 33.9999C107.44 35.9699 109.77 38.7199 111.22 41.9399C112.63 45.3299 113 49.7099 110.32 54.9399C104.51 66.3099 86.6199 73.3499 85.3199 73.8399C86.9499 73.3799 107.81 67.3799 114.84 55.1499C120.75 44.7699 113.8 36.1099 107.59 34.3699Z" fill="#C62828" style="fill:#C62828;fill:color(display-p3 0.7765 0.1569 0.1569);fill-opacity:1;"/>
<path d="M93.34 40C93.28 38.96 93.12 37.92 92.88 36.9C92.3 33.96 90.48 31.41 87.88 29.9C86.1 28.86 84.13 28.2 82.09 27.95C82.09 27.95 85.09 28.8599 87.23 33.0099C88.32 35.1899 88.97 37.57 89.13 40C89.12 40.89 89.28 41.76 89.6 42.59C89.96 43.42 90.84 43.91 91.74 43.77C93.11 43.42 93.41 41.71 93.34 40Z" fill="#C62828" style="fill:#C62828;fill:color(display-p3 0.7765 0.1569 0.1569);fill-opacity:1;"/>
<path d="M73.9 35.23C75.77 32.91 78.84 30.7 81.78 32.74C83.34 33.83 83.36 36.92 81.45 38.31C78.23 40.67 78.08 42.22 77.72 43.52C77.28 45.07 77 46.92 75.59 47.7C74.18 48.48 72.94 47.7 72.2 45.47C70.94 41.99 71.58 38.11 73.9 35.23Z" fill="#FF847A" style="fill:#FF847A;fill:color(display-p3 1.0000 0.5176 0.4784);fill-opacity:1;"/>
<path d="M40.72 28.57C32.61 31.2 31.31 40.13 31.31 40.13C31.31 40.13 26.51 34.13 19.31 36.07C10.72 38.33 5.86998 47.09 12 57.3C19.1 69 43.94 73.85 43.94 73.85C43.94 73.85 59.19 56.49 58.23 41.85C57.44 29.93 46.85 26.58 40.72 28.57Z" fill="#F44336" style="fill:#F44336;fill:color(display-p3 0.9569 0.2627 0.2118);fill-opacity:1;"/>
<path d="M40.72 28.57C39.73 28.89 38.78 29.35 37.91 29.93C41.45 29.94 44.91 30.94 47.91 32.82C50.97 34.82 53.7 38.3 54.38 44.15C55.85 56.84 44.85 72.61 44 73.76C45.11 72.48 59.14 55.92 58.22 41.84C57.44 29.93 46.85 26.58 40.72 28.57Z" fill="#C62828" style="fill:#C62828;fill:color(display-p3 0.7765 0.1569 0.1569);fill-opacity:1;"/>
<path d="M32 41.1801C31.38 40.3301 30.68 39.55 29.9 38.85C27.8 36.71 24.89 35.57 21.9 35.73C19.85 35.85 17.84 36.3801 16 37.3101C16 37.3101 19 36.4001 23.08 38.6801C25.21 39.9101 27.06 41.5601 28.54 43.5201C29.02 44.2701 29.64 44.91 30.37 45.42C31.13 45.91 32.13 45.82 32.8 45.21C33.69 44.13 33 42.5501 32 41.1801Z" fill="#C62828" style="fill:#C62828;fill:color(display-p3 0.7765 0.1569 0.1569);fill-opacity:1;"/>
<path d="M13.1999 48C13.2399 47.16 13.3899 46.33 13.6399 45.53C14.0499 43.85 15.2399 42.46 16.8299 41.79C18.3599 41.31 20.4799 41.65 21.2999 43.18C22.0299 44.54 21.4999 46.18 21.0999 47.68C20.7399 49.4 20.5399 51.16 20.4999 52.92C20.5099 54.36 19.3599 55.53 17.9199 55.55C16.5599 55.55 15.4999 54.37 14.7399 53.24C13.6799 51.7 13.1399 49.87 13.1999 48Z" fill="#FF847A" style="fill:#FF847A;fill:color(display-p3 1.0000 0.5176 0.4784);fill-opacity:1;"/>
<defs>
<radialGradient id="paint0_radial_169_5185" cx="0" cy="0" r="1" gradientUnits="userSpaceOnUse" gradientTransform="translate(63.6 62.9) scale(56.9597 56.9597)">
<stop offset="0.5" stop-color="#FDE030" style="stop-color:#FDE030;stop-color:color(display-p3 0.9922 0.8784 0.1882);stop-opacity:1;"/>
<stop offset="0.92" stop-color="#F7C02B" style="stop-color:#F7C02B;stop-color:color(display-p3 0.9686 0.7529 0.1686);stop-opacity:1;"/>
<stop offset="1" stop-color="#F4A223" style="stop-color:#F4A223;stop-color:color(display-p3 0.9569 0.6353 0.1373);stop-opacity:1;"/>
</radialGradient>
<radialGradient id="paint1_radial_169_5185" cx="0" cy="0" r="1" gradientUnits="userSpaceOnUse" gradientTransform="translate(38.599 34.5377) rotate(-43.2082) scale(102.024 101.825)">
<stop offset="0.3533" stop-color="#F9DDBD" style="stop-color:#F9DDBD;stop-color:color(display-p3 0.9765 0.8667 0.7412);stop-opacity:1;"/>
<stop offset="0.8723" stop-color="#FFD29C" style="stop-color:#FFD29C;stop-color:color(display-p3 1.0000 0.8235 0.6118);stop-opacity:1;"/>
</radialGradient>
<radialGradient id="paint2_radial_169_5185" cx="0" cy="0" r="1" gradientUnits="userSpaceOnUse" gradientTransform="translate(34.2 65.1105) scale(19.0719 17.1258)">
<stop stop-color="#ED7770" style="stop-color:#ED7770;stop-color:color(display-p3 0.9294 0.4667 0.4392);stop-opacity:1;"/>
<stop offset="0.9" stop-color="#ED7770" stop-opacity="0" style="stop-color:none;stop-opacity:0;"/>
</radialGradient>
<radialGradient id="paint3_radial_169_5185" cx="0" cy="0" r="1" gradientUnits="userSpaceOnUse" gradientTransform="translate(94.4998 65.1105) scale(19.0719 17.1258)">
<stop stop-color="#ED7770" style="stop-color:#ED7770;stop-color:color(display-p3 0.9294 0.4667 0.4392);stop-opacity:1;"/>
<stop offset="0.9" stop-color="#ED7770" stop-opacity="0" style="stop-color:none;stop-opacity:0;"/>
</radialGradient>
<radialGradient id="paint4_radial_169_5185" cx="0" cy="0" r="1" gradientUnits="userSpaceOnUse" gradientTransform="translate(123.12 2527.59) scale(19.46 19.46)">
<stop stop-color="#ED7770" style="stop-color:#ED7770;stop-color:color(display-p3 0.9294 0.4667 0.4392);stop-opacity:1;"/>
<stop offset="0.9" stop-color="#ED7770" stop-opacity="0" style="stop-color:none;stop-opacity:0;"/>
</radialGradient>
</defs>
</svg>
