<svg width="128" height="128" viewBox="0 0 128 128" fill="none" xmlns="http://www.w3.org/2000/svg">
<path d="M116 4H12C7.58172 4 4 7.58172 4 12V116C4 120.418 7.58172 124 12 124H116C120.418 124 124 120.418 124 116V12C124 7.58172 120.418 4 116 4Z" fill="url(#paint0_linear_183_113)" style=""/>
<path d="M116 4H12C7.58172 4 4 7.58172 4 12V116C4 120.418 7.58172 124 12 124H116C120.418 124 124 120.418 124 116V12C124 7.58172 120.418 4 116 4Z" stroke="#4A2F27" style="stroke:#4A2F27;stroke:color(display-p3 0.2902 0.1843 0.1529);stroke-opacity:1;"/>
<path d="M116 4H12C7.58 4 4 7.58 4 12V116C4 120.42 7.58 124 12 124H116C120.42 124 124 120.42 124 116V12C124 7.58 120.42 4 116 4Z" fill="#5C4037" style="fill:#5C4037;fill:color(display-p3 0.3608 0.2510 0.2157);fill-opacity:1;"/>
<path d="M116 4H12C7.58 4 4 7.58 4 12V116C4 120.42 7.58 124 12 124H116C120.42 124 124 120.42 124 116V12C124 7.58 120.42 4 116 4Z" fill="#4A2F27" style="fill:#4A2F27;fill:color(display-p3 0.2902 0.1843 0.1529);fill-opacity:1;"/>
<path d="M109.7 4H11.5C7.37002 4.03 4.03002 7.37 4.00002 11.5V109.4C3.99002 113.54 7.34002 116.89 11.48 116.9C11.49 116.9 11.49 116.9 11.5 116.9H109.6C113.74 116.91 117.09 113.56 117.1 109.42C117.1 109.41 117.1 109.41 117.1 109.4V11.5C117.19 7.45 113.97 4.09 109.92 4C109.85 4 109.77 4 109.7 4Z" fill="#AB47BC" style="fill:#AB47BC;fill:color(display-p3 0.6706 0.2784 0.7373);fill-opacity:1;"/>
<path d="M109.7 4H11.5C7.37002 4.03 4.03002 7.37 4.00002 11.5V109.4C3.99002 113.54 7.34002 116.89 11.48 116.9C11.49 116.9 11.49 116.9 11.5 116.9H109.6C113.74 116.91 117.09 113.56 117.1 109.42C117.1 109.41 117.1 109.41 117.1 109.4V11.5C117.19 7.45 113.97 4.09 109.92 4C109.85 4 109.77 4 109.7 4Z" fill="#70534A" style="fill:#70534A;fill:color(display-p3 0.4392 0.3255 0.2902);fill-opacity:1;"/>
<path d="M109.7 4H11.5C7.37002 4.03 4.03002 7.37 4.00002 11.5V109.4C3.99002 113.54 7.34002 116.89 11.48 116.9C11.49 116.9 11.49 116.9 11.5 116.9H109.6C113.74 116.91 117.09 113.56 117.1 109.42C117.1 109.41 117.1 109.41 117.1 109.4V11.5C117.19 7.45 113.97 4.09 109.92 4C109.85 4 109.77 4 109.7 4Z" fill="#70534A" style="fill:#70534A;fill:color(display-p3 0.4392 0.3255 0.2902);fill-opacity:1;"/>
<defs>
<linearGradient id="paint0_linear_183_113" x1="64" y1="4.3704" x2="64" y2="123.52" gradientUnits="userSpaceOnUse">
<stop stop-color="#70534A" style="stop-color:#70534A;stop-color:color(display-p3 0.4392 0.3255 0.2902);stop-opacity:1;"/>
<stop offset="0.4665" stop-color="#6D5047" style="stop-color:#6D5047;stop-color:color(display-p3 0.4275 0.3137 0.2784);stop-opacity:1;"/>
<stop offset="0.8416" stop-color="#63463D" style="stop-color:#63463D;stop-color:color(display-p3 0.3882 0.2745 0.2392);stop-opacity:1;"/>
<stop offset="1" stop-color="#5C4037" style="stop-color:#5C4037;stop-color:color(display-p3 0.3608 0.2510 0.2157);stop-opacity:1;"/>
</linearGradient>
</defs>
</svg>
