<svg width="128" height="128" viewBox="0 0 128 128" fill="none" xmlns="http://www.w3.org/2000/svg">
<g clip-path="url(#clip0_905_651)">
<path d="M56.9062 56.4522C43.3295 64.176 37.6955 79.6064 45.7887 98.5022C53.9279 117.511 72.7535 129.31 93.3641 116.057C115.275 101.977 110.981 79.737 97.7436 64.8632C82.6868 47.975 68.5317 49.8507 56.9062 56.4522Z" fill="#FFBE1F" style="fill:#FFBE1F;fill:color(display-p3 1.0000 0.7451 0.1216);fill-opacity:1;"/>
<path d="M77.1996 65.242C75.3046 66.3414 73.7574 72.8201 73.5091 74.2074C73.0114 77.0179 75.3111 78.0779 76.6177 76.0255C77.8772 74.0491 79.4724 70.4082 80.1649 69.969C80.9085 69.4982 83.9523 69.5934 85.2883 69.7205C89.1173 70.0595 89.3063 67.1106 86.4846 66.1379C84.905 65.597 79.3721 63.983 77.1996 65.242Z" fill="#F79429" style="fill:#F79429;fill:color(display-p3 0.9686 0.5804 0.1608);fill-opacity:1;"/>
<path d="M55.0312 78.9992C52.8357 80.2019 51.0768 87.9748 50.9896 88.4047C50.5507 90.7205 52.866 91.6534 54.1971 89.7738C54.962 88.6905 56.8911 84.4674 57.6982 84.0044C58.2959 83.6589 60.1606 83.8239 62.7392 83.889C66.9597 83.9864 67.3686 80.9369 64.0432 80.0048C60.6902 79.0663 56.9354 77.9528 55.0312 78.9992Z" fill="#F79429" style="fill:#F79429;fill:color(display-p3 0.9686 0.5804 0.1608);fill-opacity:1;"/>
<path d="M53.1551 96.5756C51.8687 97.2522 50.7684 101.105 50.5455 102.323C50.3225 103.542 50.178 104.584 51.2236 105.078C51.9362 105.414 53.1007 104.73 53.6639 103.701C54.3898 102.383 55.1551 101.052 55.5995 100.802C56.3268 100.4 60.6549 101.147 61.9799 101.352C65.4253 101.869 65.2768 98.4114 63.1119 97.703C60.7989 96.9451 55.5353 95.3294 53.1551 96.5756Z" fill="#F79429" style="fill:#F79429;fill:color(display-p3 0.9686 0.5804 0.1608);fill-opacity:1;"/>
<path d="M73.7369 84.1507C71.3504 85.5771 69.8478 93.0038 69.6589 94.2016C69.2052 97.1025 71.9992 98.8679 73.4337 95.5378C73.86 94.5342 75.3561 89.8381 76.5574 89.214C77.3259 88.8218 81.0273 89.2396 83.4783 89.3835C86.7516 89.5838 87.1465 86.778 84.2695 85.6396C82.9749 85.1227 76.3702 82.572 73.7369 84.1507Z" fill="#F79429" style="fill:#F79429;fill:color(display-p3 0.9686 0.5804 0.1608);fill-opacity:1;"/>
<path d="M93.1637 71.4168C91.7465 72.186 90.1322 79.8696 89.9798 81.374C89.7196 83.9791 92.2403 84.7499 93.4076 81.996C94.2336 80.0406 95.8646 75.8487 96.169 75.6373C96.5989 75.3249 98.3693 75.4893 99.6277 75.4528C100.981 75.4168 102.089 74.6618 102.034 73.7912C101.964 72.6121 100.722 72.1802 99.5834 71.9545C97.6712 71.5603 94.397 70.7494 93.1637 71.4168Z" fill="#F79429" style="fill:#F79429;fill:color(display-p3 0.9686 0.5804 0.1608);fill-opacity:1;"/>
<path d="M92.3574 90.7644C89.916 92.3304 88.9576 98.7159 88.9781 100.196C89.0261 103.034 91.4595 102.73 92.1974 101.546C93.3065 99.7448 93.8814 96.7926 95.4058 95.4166C96.0621 94.8234 99.6331 95.2395 100.504 95.2422C104.844 95.266 104.342 91.921 101.008 91.1469C98.6103 90.5942 94.1147 89.6324 92.3574 90.7644Z" fill="#F79429" style="fill:#F79429;fill:color(display-p3 0.9686 0.5804 0.1608);fill-opacity:1;"/>
<path d="M71.2588 103.685C69.4704 104.671 67.6452 111.004 67.227 112.649C66.6721 114.872 69.082 116.511 70.6324 114.073C71.9861 111.944 73.418 109.086 74.0857 108.721C74.9288 108.259 77.536 108.541 79.0238 108.61C83.462 108.832 83.3512 105.644 80.0243 104.596C77.655 103.861 73.1885 102.623 71.2588 103.685Z" fill="#F79429" style="fill:#F79429;fill:color(display-p3 0.9686 0.5804 0.1608);fill-opacity:1;"/>
<path d="M7.89082 50.9747C6.50187 50.4572 9.34649 45.5279 13.7604 42.6265C19.3021 38.9819 25.4001 37.2855 25.4001 37.2855C25.4001 37.2855 23.5777 33.2866 18.036 30.9729C14.234 29.3832 12.4344 28.5433 11.8689 27.4939C11.298 26.4361 15.3392 23.0832 22.8592 22.072C29.1413 21.2256 35.5549 23.0481 35.5549 23.0481C35.5549 23.0481 35.9795 16.7688 38.7833 12.135C42.0459 6.75957 47.6257 2.73888 48.7298 3.3852C49.573 3.87532 49.0419 7.16481 49.5272 10.6729C50.2813 16.1775 52.5931 19.6745 52.5931 19.6745C52.5931 19.6745 54.7721 14.3334 58.5013 10.8559C60.3947 9.08756 66.5263 4.76144 67.0622 6.58125C67.1464 6.87004 60.9776 21.2438 60.9776 21.2438L64.2642 30.2031C64.2642 30.2031 68.0036 23.3346 73.5245 20.7606C76.3822 19.4311 76.4545 20.5382 76.4545 20.5382L68.4282 35.1773L70.3358 42.379C70.3358 42.379 73.2631 39.373 76.6064 37.2501C78.2212 36.2297 81.1471 35.0109 81.7843 35.7575C82.6112 36.716 77.3176 45.1787 77.3176 45.1787L61.9466 66.1386L38.1368 71.1074C38.1368 71.1074 28.547 75.1241 27.9587 74.1711C27.365 73.2096 28.6471 71.3838 31.0157 69.3574C33.7507 67.0107 36.9701 65.2582 36.9701 65.2582L24.2935 64.8461C24.2935 64.8461 18.4422 67.7417 17.2986 66.9552C16.1549 66.1688 17.8973 62.3666 19.384 60.72C23.1403 56.5441 29.0267 54.3907 29.0267 54.3907L21.1938 48.3088C21.161 48.2937 9.40038 51.5353 7.89082 50.9747Z" fill="#2F7C31" style="fill:#2F7C31;fill:color(display-p3 0.1843 0.4863 0.1922);fill-opacity:1;"/>
<path d="M37.6284 44.2619C38.2297 44.208 37.6769 40.6475 38.03 37.9263C38.5405 33.9562 40.1074 30.2505 40.5924 29.9511C41.0604 29.6621 44.2716 29.9713 47.5718 31.0717C51.5712 32.4103 54.0245 34.0805 54.3225 34.0493C55.4308 33.9409 55.1881 27.3802 57.9657 20.0009C60.3614 13.6211 66.0175 5.74554 67.0793 6.57077C67.4223 6.84084 65.1032 11.8218 64.5742 19.3408C63.9893 27.5876 68.1874 33.4927 68.1874 33.4927C68.1874 33.4927 70.8073 27.2096 71.8386 25.4917C72.7019 24.0538 76.3696 19.2392 76.4606 20.605C76.521 21.5784 74.7524 28.993 73.6643 33.1317C71.939 39.6265 74.3332 46.2456 74.938 46.3306C75.6339 46.4298 77.3095 42.234 78.5268 40.0369C79.682 37.9486 81.6846 35.5958 81.7727 35.7765C82.4343 37.0956 79.9313 43.1303 78.5173 47.9403C77.4663 51.4919 76.6261 60.296 63.5526 68.0735C52.7517 74.5067 43.0409 72.769 37.8515 73.0817C34.2696 73.2953 28.2682 74.7675 28.0231 74.2372C27.889 73.9439 30.1219 72.3068 31.8254 71.5254C36.5247 69.3527 40.147 68.9381 40.2084 68.3713C40.2731 67.7908 32.8276 65.0775 23.6262 66.3159C19.1847 66.9073 17.4147 67.4478 17.052 66.708C16.8884 66.3859 18.8198 64.6411 21.5359 62.835C26.3543 59.6369 32.1059 58.4834 32.5714 58.2666C33.6713 57.7638 25.1264 53.1556 21.0634 51.8093C14.6165 49.6665 8.10017 52.056 7.65024 50.7942C7.40489 50.1113 14.0915 45.8656 20.9041 44.5272C27.9886 43.115 36.3281 44.383 37.6284 44.2619Z" fill="#709921" style="fill:#709921;fill:color(display-p3 0.4392 0.6000 0.1294);fill-opacity:1;"/>
<path d="M48.5965 42.9547C48.1195 43.3433 46.7518 45.7155 45.8038 50.2143C44.6774 55.5283 45.7869 59.838 46.9054 59.9936C48.4053 60.1959 48.8309 57.7824 49.9069 55.2613C51.1761 52.2918 52.4665 50.3081 52.8579 50.0665C53.2493 49.8248 55.6851 49.8488 57.8453 50.0547C60.5363 50.3207 63.0488 50.8497 63.542 49.8401C64.3833 48.1572 59.7731 44.9157 56.1592 43.821C52.3093 42.6487 49.0107 42.6168 48.5965 42.9547Z" fill="#2F7C31" style="fill:#2F7C31;fill:color(display-p3 0.1843 0.4863 0.1922);fill-opacity:1;"/>
</g>
<defs>
<clipPath id="clip0_905_651">
<rect width="128" height="128" fill="white" style="fill:white;fill-opacity:1;"/>
</clipPath>
</defs>
</svg>
