<svg width="128" height="129" viewBox="0 0 128 129" fill="none" xmlns="http://www.w3.org/2000/svg">
<path d="M124 38.6935C122.2 39.7935 120.3 40.7935 118.6 41.4935C116.8 42.2935 115.1 42.8935 113.4 43.4935C111.7 44.0935 110 44.3935 108.3 44.7935C106.6 45.1935 105 45.2935 103.4 45.4935C101.8 45.5935 100.2 45.6935 98.6 45.6935C97 45.6935 95.5 45.5935 94 45.4935C92.5 45.3935 91 45.1935 89.5 44.9935C88 44.7935 86.6 44.5935 85.1 44.2935C83.6 43.9935 82.2 43.6935 80.8 43.3935C79.4 43.0935 78 42.6935 76.6 42.2935C75.2 41.8935 73.8 41.4935 72.4 41.0935C71 40.6935 69.6 40.2935 68.2 39.8935C66.8 39.4935 65.4 39.0935 64 38.6935C62.6 38.2935 61.2 37.8935 59.8 37.4935C58.4 37.0935 57 36.6935 55.6 36.2935C54.2 35.8935 52.8 35.4935 51.4 35.0935C50 34.6935 48.6 34.3935 47.2 33.9935C45.8 33.5935 44.3 33.3935 42.9 33.0935C41.4 32.7935 40 32.5935 38.5 32.3935C37 32.1935 35.5 31.9935 34 31.8935C32.5 31.7935 30.9 31.6935 29.4 31.6935C27.9 31.6935 26.3 31.7935 24.6 31.8935C22.9 31.9935 21.4 32.2935 19.7 32.5935C18 32.8935 16.4 33.2935 14.6 33.8935C12.8 34.4935 11.1 35.0935 9.4 35.8935C7.7 36.6935 5.8 37.5935 4 38.6935V33.6935C4 33.6935 4 27.7935 4 26.2935V21.2935C5.8 20.1935 7.7 19.1935 9.4 18.4935C11.2 17.6935 12.9 17.0935 14.6 16.4935C16.3 15.8935 18 15.5935 19.7 15.1935C21.4 14.8935 23 14.6935 24.6 14.4935C26.2 14.3935 27.8 14.2935 29.4 14.2935C31 14.2935 32.5 14.3935 34 14.4935C35.5 14.5935 37 14.7935 38.5 14.9935C40 15.1935 41.5 15.3935 42.9 15.6935C44.3 15.9935 45.8 16.2935 47.2 16.5935C48.6 16.8935 50 17.2935 51.4 17.6935C52.8 18.0935 54.2 18.4935 55.6 18.8935C57 19.2935 58.4 19.6935 59.8 20.0935C61.2 20.4935 62.6 20.8935 64 21.2935C65.4 21.6935 66.8 22.0935 68.2 22.4935C69.6 22.8935 71 23.2935 72.4 23.6935C73.8 24.0935 75.2 24.4935 76.6 24.8935C78 25.2935 79.4 25.5935 80.8 25.9935C82.2 26.2935 83.7 26.5935 85.1 26.8935C86.5 27.1935 88 27.3935 89.5 27.5935C91 27.7935 92.5 27.9935 94 28.0935C95.5 28.1935 97.1 28.2935 98.6 28.2935C100.1 28.2935 101.7 28.1935 103.4 28.0935C105.1 27.9935 106.6 27.6935 108.3 27.3935C110 27.0935 111.6 26.6935 113.4 26.0935C115.2 25.4935 116.9 24.8935 118.6 24.0935C120.3 23.2935 122.2 22.3935 124 21.2935V26.2935V33.6935C124 33.6935 124 36.7935 124 38.6935Z" fill="#253381" style="fill:#253381;fill:color(display-p3 0.1451 0.2000 0.5059);fill-opacity:1;"/>
<path d="M124 50.2817C122.2 51.3817 120.3 52.3817 118.6 53.0817C116.8 53.8817 115.1 54.4817 113.4 55.0817C111.7 55.6817 110 55.9817 108.3 56.3817C106.6 56.7817 105 56.8817 103.4 57.0817C101.8 57.1817 100.2 57.2817 98.6 57.2817C97 57.2817 95.5 57.1817 94 57.0817C92.5 56.9817 91 56.7817 89.5 56.5817C88 56.3817 86.6 56.1817 85.1 55.8817C83.6 55.5817 82.2 55.2817 80.8 54.9817C79.4 54.6817 78 54.2817 76.6 53.8817C75.2 53.4817 73.8 53.0817 72.4 52.6817C71 52.2817 69.6 51.8817 68.2 51.4817C66.8 51.0817 65.4 50.6817 64 50.2817C62.6 49.8817 61.2 49.4817 59.8 49.0817C58.4 48.6817 57 48.2817 55.6 47.8817C54.2 47.4817 52.8 47.0817 51.4 46.6817C50 46.2817 48.6 45.9817 47.2 45.5817C45.8 45.1817 44.3 44.9817 42.9 44.6817C41.4 44.3817 40 44.1817 38.5 43.9817C37 43.7817 35.5 43.5817 34 43.4817C32.5 43.3817 30.9 43.2817 29.4 43.2817C27.9 43.2817 26.3 43.3817 24.6 43.4817C22.9 43.5817 21.4 43.8817 19.7 44.1817C18 44.4817 16.4 44.8817 14.6 45.4817C12.8 46.0817 11.1 46.6817 9.4 47.4817C7.7 48.2817 5.8 49.1817 4 50.2817V45.2817C4 45.2817 4 39.3817 4 37.8817V32.8817C5.8 31.7817 7.7 30.7817 9.4 30.0817C11.2 29.2817 12.9 28.6817 14.6 28.0817C16.3 27.4817 18 27.1817 19.7 26.7817C21.4 26.4817 23 26.2817 24.6 26.0817C26.2 25.9817 27.8 25.8817 29.4 25.8817C31 25.8817 32.5 25.9817 34 26.0817C35.5 26.1817 37 26.3817 38.5 26.5817C40 26.7817 41.5 26.9817 42.9 27.2817C44.3 27.5817 45.8 27.8817 47.2 28.1817C48.6 28.4817 50 28.8817 51.4 29.2817C52.8 29.6817 54.2 30.0817 55.6 30.4817C57 30.8817 58.4 31.2817 59.8 31.6817C61.2 32.0817 62.6 32.4817 64 32.8817C65.4 33.2817 66.8 33.6817 68.2 34.0817C69.6 34.4817 71 34.8817 72.4 35.2817C73.8 35.6817 75.2 36.0817 76.6 36.4817C78 36.8817 79.4 37.1817 80.8 37.5817C82.2 37.8817 83.7 38.1817 85.1 38.4817C86.5 38.7817 88 38.9817 89.5 39.1817C91 39.3817 92.5 39.5817 94 39.6817C95.5 39.7817 97.1 39.8817 98.6 39.8817C100.1 39.8817 101.7 39.7817 103.4 39.6817C105.1 39.5817 106.6 39.2817 108.3 38.9817C110 38.6817 111.6 38.2817 113.4 37.6817C115.2 37.0817 116.9 36.4817 118.6 35.6817C120.3 34.8817 122.2 33.9817 124 32.8817V37.8817V45.2817C124 45.2817 124 48.3817 124 50.2817Z" fill="#253381" style="fill:#253381;fill:color(display-p3 0.1451 0.2000 0.5059);fill-opacity:1;"/>
<path d="M124 61.87C122.2 62.97 120.3 63.97 118.6 64.67C116.8 65.47 115.1 66.07 113.4 66.67C111.7 67.27 110 67.57 108.3 67.97C106.6 68.37 105 68.47 103.4 68.67C101.8 68.77 100.2 68.87 98.6 68.87C97 68.87 95.5 68.77 94 68.67C92.5 68.57 91 68.37 89.5 68.17C88 67.97 86.6 67.77 85.1 67.47C83.6 67.17 82.2 66.87 80.8 66.57C79.4 66.27 78 65.87 76.6 65.47C75.2 65.07 73.8 64.67 72.4 64.27C71 63.87 69.6 63.47 68.2 63.07C66.8 62.67 65.4 62.27 64 61.87C62.6 61.47 61.2 61.07 59.8 60.67C58.4 60.27 57 59.87 55.6 59.47C54.2 59.07 52.8 58.67 51.4 58.27C50 57.87 48.6 57.57 47.2 57.17C45.8 56.77 44.3 56.57 42.9 56.27C41.4 55.97 40 55.77 38.5 55.57C37 55.37 35.5 55.17 34 55.07C32.5 54.97 30.9 54.87 29.4 54.87C27.9 54.87 26.3 54.97 24.6 55.07C22.9 55.17 21.4 55.47 19.7 55.77C18 56.07 16.4 56.47 14.6 57.07C12.8 57.67 11.1 58.27 9.4 59.07C7.7 59.87 5.8 60.77 4 61.87V56.87C4 56.87 4 50.97 4 49.47V44.47C5.8 43.37 7.7 42.37 9.4 41.67C11.2 40.87 12.9 40.27 14.6 39.67C16.3 39.07 18 38.77 19.7 38.37C21.4 38.07 23 37.87 24.6 37.67C26.2 37.57 27.8 37.47 29.4 37.47C31 37.47 32.5 37.57 34 37.67C35.5 37.77 37 37.97 38.5 38.17C40 38.37 41.5 38.57 42.9 38.87C44.3 39.17 45.8 39.47 47.2 39.77C48.6 40.07 50 40.47 51.4 40.87C52.8 41.27 54.2 41.67 55.6 42.07C57 42.47 58.4 42.87 59.8 43.27C61.2 43.67 62.6 44.07 64 44.47C65.4 44.87 66.8 45.27 68.2 45.67C69.6 46.07 71 46.47 72.4 46.87C73.8 47.27 75.2 47.67 76.6 48.07C78 48.47 79.4 48.77 80.8 49.17C82.2 49.47 83.7 49.77 85.1 50.07C86.5 50.37 88 50.57 89.5 50.77C91 50.97 92.5 51.17 94 51.27C95.5 51.37 97.1 51.47 98.6 51.47C100.1 51.47 101.7 51.37 103.4 51.27C105.1 51.17 106.6 50.87 108.3 50.57C110 50.27 111.6 49.87 113.4 49.27C115.2 48.67 116.9 48.07 118.6 47.27C120.3 46.47 122.2 45.57 124 44.47V49.47V56.87C124 56.87 124 59.97 124 61.87Z" fill="#253381" style="fill:#253381;fill:color(display-p3 0.1451 0.2000 0.5059);fill-opacity:1;"/>
<path d="M124 73.4584C122.2 74.5584 120.3 75.5583 118.6 76.2583C116.8 77.0583 115.1 77.6583 113.4 78.2583C111.7 78.8583 110 79.1583 108.3 79.5583C106.6 79.9583 105 80.0583 103.4 80.2583C101.8 80.3583 100.2 80.4584 98.6 80.4584C97 80.4584 95.5 80.3583 94 80.2583C92.5 80.1583 91 79.9583 89.5 79.7583C88 79.5583 86.6 79.3583 85.1 79.0583C83.6 78.7584 82.2 78.4583 80.8 78.1583C79.4 77.8583 78 77.4583 76.6 77.0583C75.2 76.6583 73.8 76.2583 72.4 75.8583C71 75.4583 69.6 75.0583 68.2 74.6583C66.8 74.2583 65.4 73.8584 64 73.4584C62.6 73.0584 61.2 72.6583 59.8 72.2583C58.4 71.8583 57 71.4583 55.6 71.0583C54.2 70.6583 52.8 70.2583 51.4 69.8583C50 69.4583 48.6 69.1583 47.2 68.7583C45.8 68.3583 44.3 68.1583 42.9 67.8583C41.4 67.5583 40 67.3583 38.5 67.1583C37 66.9583 35.5 66.7583 34 66.6583C32.5 66.5583 30.9 66.4584 29.4 66.4584C27.9 66.4584 26.3 66.5583 24.6 66.6583C22.9 66.7583 21.4 67.0583 19.7 67.3583C18 67.6583 16.4 68.0583 14.6 68.6583C12.8 69.2583 11.1 69.8583 9.4 70.6583C7.7 71.4583 5.8 72.3584 4 73.4584V68.4584C4 68.4584 4 62.5583 4 61.0583V56.0583C5.8 54.9583 7.7 53.9583 9.4 53.2583C11.2 52.4583 12.9 51.8583 14.6 51.2583C16.3 50.6583 18 50.3584 19.7 49.9584C21.4 49.6584 23 49.4583 24.6 49.2583C26.2 49.1583 27.8 49.0583 29.4 49.0583C31 49.0583 32.5 49.1583 34 49.2583C35.5 49.3583 37 49.5583 38.5 49.7583C40 49.9583 41.5 50.1584 42.9 50.4584C44.3 50.7584 45.8 51.0583 47.2 51.3583C48.6 51.6583 50 52.0584 51.4 52.4584C52.8 52.8584 54.2 53.2583 55.6 53.6583C57 54.0583 58.4 54.4583 59.8 54.8583C61.2 55.2583 62.6 55.6583 64 56.0583C65.4 56.4583 66.8 56.8583 68.2 57.2583C69.6 57.6583 71 58.0584 72.4 58.4584C73.8 58.8584 75.2 59.2583 76.6 59.6583C78 60.0583 79.4 60.3583 80.8 60.7583C82.2 61.0583 83.7 61.3583 85.1 61.6583C86.5 61.9583 88 62.1583 89.5 62.3583C91 62.5583 92.5 62.7583 94 62.8583C95.5 62.9583 97.1 63.0583 98.6 63.0583C100.1 63.0583 101.7 62.9583 103.4 62.8583C105.1 62.7583 106.6 62.4583 108.3 62.1583C110 61.8583 111.6 61.4583 113.4 60.8583C115.2 60.2583 116.9 59.6583 118.6 58.8583C120.3 58.0583 122.2 57.1583 124 56.0583V61.0583V68.4584C124 68.4584 124 71.5584 124 73.4584Z" fill="#253381" style="fill:#253381;fill:color(display-p3 0.1451 0.2000 0.5059);fill-opacity:1;"/>
<path d="M124 85.0466C122.2 86.1466 120.3 87.1466 118.6 87.8466C116.8 88.6466 115.1 89.2466 113.4 89.8466C111.7 90.4466 110 90.7466 108.3 91.1466C106.6 91.5466 105 91.6466 103.4 91.8466C101.8 91.9466 100.2 92.0466 98.6 92.0466C97 92.0466 95.5 91.9466 94 91.8466C92.5 91.7466 91 91.5466 89.5 91.3466C88 91.1466 86.6 90.9466 85.1 90.6466C83.6 90.3466 82.2 90.0466 80.8 89.7466C79.4 89.4466 78 89.0466 76.6 88.6466C75.2 88.2466 73.8 87.8466 72.4 87.4466C71 87.0466 69.6 86.6466 68.2 86.2466C66.8 85.8466 65.4 85.4466 64 85.0466C62.6 84.6466 61.2 84.2466 59.8 83.8466C58.4 83.4466 57 83.0466 55.6 82.6466C54.2 82.2466 52.8 81.8466 51.4 81.4466C50 81.0466 48.6 80.7466 47.2 80.3466C45.8 79.9466 44.3 79.7466 42.9 79.4466C41.4 79.1466 40 78.9466 38.5 78.7466C37 78.5466 35.5 78.3466 34 78.2466C32.5 78.1466 30.9 78.0466 29.4 78.0466C27.9 78.0466 26.3 78.1466 24.6 78.2466C22.9 78.3466 21.4 78.6466 19.7 78.9466C18 79.2466 16.4 79.6466 14.6 80.2466C12.8 80.8466 11.1 81.4466 9.4 82.2466C7.7 83.0466 5.8 83.9466 4 85.0466V80.0466C4 80.0466 4 74.1466 4 72.6466V67.6466C5.8 66.5466 7.7 65.5466 9.4 64.8466C11.2 64.0466 12.9 63.4466 14.6 62.8466C16.3 62.2466 18 61.9466 19.7 61.5466C21.4 61.2466 23 61.0466 24.6 60.8466C26.2 60.7466 27.8 60.6466 29.4 60.6466C31 60.6466 32.5 60.7466 34 60.8466C35.5 60.9466 37 61.1466 38.5 61.3466C40 61.5466 41.5 61.7466 42.9 62.0466C44.3 62.3466 45.8 62.6466 47.2 62.9466C48.6 63.2466 50 63.6466 51.4 64.0466C52.8 64.4466 54.2 64.8466 55.6 65.2466C57 65.6466 58.4 66.0466 59.8 66.4466C61.2 66.8466 62.6 67.2466 64 67.6466C65.4 68.0466 66.8 68.4466 68.2 68.8466C69.6 69.2466 71 69.6466 72.4 70.0466C73.8 70.4466 75.2 70.8466 76.6 71.2466C78 71.6466 79.4 71.9466 80.8 72.3466C82.2 72.6466 83.7 72.9466 85.1 73.2466C86.5 73.5466 88 73.7466 89.5 73.9466C91 74.1466 92.5 74.3466 94 74.4466C95.5 74.5466 97.1 74.6466 98.6 74.6466C100.1 74.6466 101.7 74.5466 103.4 74.4466C105.1 74.3466 106.6 74.0466 108.3 73.7466C110 73.4466 111.6 73.0466 113.4 72.4466C115.2 71.8466 116.9 71.2466 118.6 70.4466C120.3 69.6466 122.2 68.7466 124 67.6466V72.6466V80.0466C124 80.0466 124 83.1466 124 85.0466Z" fill="#253381" style="fill:#253381;fill:color(display-p3 0.1451 0.2000 0.5059);fill-opacity:1;"/>
<path d="M124 96.6349C122.2 97.7349 120.3 98.7349 118.6 99.4349C116.8 100.235 115.1 100.835 113.4 101.435C111.7 102.035 110 102.335 108.3 102.735C106.6 103.135 105 103.235 103.4 103.435C101.8 103.535 100.2 103.635 98.6 103.635C97 103.635 95.5 103.535 94 103.435C92.5 103.335 91 103.135 89.5 102.935C88 102.735 86.6 102.535 85.1 102.235C83.6 101.935 82.2 101.635 80.8 101.335C79.4 101.035 78 100.635 76.6 100.235C75.2 99.8349 73.8 99.4349 72.4 99.0349C71 98.6349 69.6 98.2349 68.2 97.8349C66.8 97.4349 65.4 97.0349 64 96.6349C62.6 96.2349 61.2 95.8349 59.8 95.4349C58.4 95.0349 57 94.6349 55.6 94.2349C54.2 93.8349 52.8 93.4349 51.4 93.0349C50 92.6349 48.6 92.3349 47.2 91.9349C45.8 91.5349 44.3 91.3349 42.9 91.0349C41.4 90.7349 40 90.5349 38.5 90.3349C37 90.1349 35.5 89.9349 34 89.8349C32.5 89.7349 30.9 89.6349 29.4 89.6349C27.9 89.6349 26.3 89.7349 24.6 89.8349C22.9 89.9349 21.4 90.2349 19.7 90.5349C18 90.8349 16.4 91.2349 14.6 91.8349C12.8 92.4349 11.1 93.0349 9.4 93.8349C7.7 94.6349 5.8 95.5349 4 96.6349V91.6349C4 91.6349 4 86.9952 4 85.4952V80.4952C5.8 79.3952 7.7 78.3952 9.4 77.6952C11.2 76.8952 12.9 76.2952 14.6 75.6952C16.3 75.0952 18 74.7952 19.7 74.3952C21.4 74.0952 23 73.8952 24.6 73.6952C26.2 73.5952 27.8 73.4952 29.4 73.4952C31 73.4952 32.5 73.5952 34 73.6952C35.5 73.7952 37 73.9952 38.5 74.1952C40 74.3952 41.5 74.5952 42.9 74.8952C44.3 75.1952 45.8 75.4952 47.2 75.7952C48.6 76.0952 50 76.4952 51.4 76.8952C52.8 77.2952 54.2 77.6952 55.6 78.0952C57 78.4952 58.4 78.8952 59.8 79.2952C61.2 79.6952 62.6 80.0952 64 80.4952C65.4 80.8952 66.8 81.2952 68.2 81.6952C69.6 82.0952 71 82.4952 72.4 82.8952C73.8 83.2952 75.2 83.6952 76.6 84.0952C78 84.4952 79.4 84.7952 80.8 85.1952C82.2 85.4952 83.7 85.7952 85.1 86.0952C86.5 86.3952 88 86.5952 89.5 86.7952C91 86.9952 92.5 87.1952 94 87.2952C95.5 87.3952 97.1 87.4952 98.6 87.4952C100.1 87.4952 101.7 87.3952 103.4 87.2952C105.1 87.1952 106.6 86.8952 108.3 86.5952C110 86.2952 111.6 85.8952 113.4 85.2952C115.2 84.6952 116.9 84.0952 118.6 83.2952C120.3 82.4952 122.2 81.5952 124 80.4952V85.4952V91.6349C124 91.6349 124 94.7349 124 96.6349Z" fill="#253381" style="fill:#253381;fill:color(display-p3 0.1451 0.2000 0.5059);fill-opacity:1;"/>
<path d="M124 108.223C122.2 109.323 120.3 110.323 118.6 111.023C116.8 111.823 115.1 112.423 113.4 113.023C111.7 113.623 110 113.923 108.3 114.323C106.6 114.723 105 114.823 103.4 115.023C101.8 115.123 100.2 115.223 98.6 115.223C97 115.223 95.5 115.123 94 115.023C92.5 114.923 91 114.723 89.5 114.523C88 114.323 86.6 114.123 85.1 113.823C83.6 113.523 82.2 113.223 80.8 112.923C79.4 112.623 78 112.223 76.6 111.823C75.2 111.423 73.8 111.023 72.4 110.623C71 110.223 69.6 109.823 68.2 109.423C66.8 109.023 65.4 108.623 64 108.223C62.6 107.823 61.2 107.423 59.8 107.023C58.4 106.623 57 106.223 55.6 105.823C54.2 105.423 52.8 105.023 51.4 104.623C50 104.223 48.6 103.923 47.2 103.523C45.8 103.123 44.3 102.923 42.9 102.623C41.4 102.323 40 102.123 38.5 101.923C37 101.723 35.5 101.523 34 101.423C32.5 101.323 30.9 101.223 29.4 101.223C27.9 101.223 26.3 101.323 24.6 101.423C22.9 101.523 21.4 101.823 19.7 102.123C18 102.423 16.4 102.823 14.6 103.423C12.8 104.023 11.1 104.623 9.4 105.423C7.7 106.223 5.8 107.123 4 108.223V103.223C4 103.223 4 100.125 4 98.6252V93.6252C5.8 92.5252 7.7 91.5252 9.4 90.8252C11.2 90.0252 12.9 89.4252 14.6 88.8252C16.3 88.2252 18 87.9252 19.7 87.5252C21.4 87.2252 23 87.0252 24.6 86.8252C26.2 86.7252 27.8 86.6252 29.4 86.6252C31 86.6252 32.5 86.7252 34 86.8252C35.5 86.9252 37 87.1252 38.5 87.3252C40 87.5252 41.5 87.7252 42.9 88.0252C44.3 88.3252 45.8 88.6252 47.2 88.9252C48.6 89.2252 50 89.6252 51.4 90.0252C52.8 90.4252 54.2 90.8252 55.6 91.2252C57 91.6252 58.4 92.0252 59.8 92.4252C61.2 92.8252 62.6 93.2252 64 93.6252C65.4 94.0252 66.8 94.4252 68.2 94.8252C69.6 95.2252 71 95.6252 72.4 96.0252C73.8 96.4252 75.2 96.8252 76.6 97.2252C78 97.6252 79.4 97.9252 80.8 98.3252C82.2 98.6252 83.7 98.9252 85.1 99.2252C86.5 99.5252 88 99.7252 89.5 99.9252C91 100.125 92.5 100.325 94 100.425C95.5 100.525 97.1 100.625 98.6 100.625C100.1 100.625 101.7 100.525 103.4 100.425C105.1 100.325 106.6 100.025 108.3 99.7252C110 99.4252 111.6 99.0252 113.4 98.4252C115.2 97.8252 116.9 97.2252 118.6 96.4252C120.3 95.6252 122.2 94.7252 124 93.6252V98.6252L124 103.223C124 103.223 124 106.323 124 108.223Z" fill="#253381" style="fill:#253381;fill:color(display-p3 0.1451 0.2000 0.5059);fill-opacity:1;"/>
<path opacity="0.3" d="M124 107.45C122.15 108.57 120.34 109.51 118.57 110.3C116.79 111.1 115.05 111.75 113.33 112.28C111.61 112.81 109.93 113.23 108.27 113.54C106.61 113.86 104.98 114.08 103.38 114.22C101.77 114.36 100.19 114.42 98.63 114.42C97.07 114.42 95.53 114.36 94.01 114.24C92.49 114.13 90.99 113.96 89.51 113.76C88.03 113.55 86.56 113.31 85.11 113.03C83.66 112.75 82.22 112.45 80.79 112.12C79.36 111.79 77.94 111.44 76.54 111.07C75.14 110.7 73.73 110.31 72.33 109.92C70.93 109.52 69.54 109.11 68.16 108.7C66.77 108.29 65.39 107.87 64 107.45C62.62 107.03 61.23 106.61 59.84 106.2C58.45 105.79 57.06 105.38 55.67 104.98C54.27 104.58 52.87 104.2 51.46 103.83C50.05 103.46 48.63 103.11 47.21 102.78C45.79 102.45 44.34 102.14 42.89 101.87C41.44 101.59 39.97 101.35 38.49 101.14C37.01 100.93 35.51 100.77 33.99 100.66C32.47 100.55 30.93 100.48 29.37 100.48C27.81 100.48 26.23 100.54 24.62 100.68C23.01 100.82 21.38 101.04 19.73 101.36C18.07 101.68 16.39 102.09 14.67 102.62C12.95 103.15 11.21 103.8 9.43 104.6C7.65 105.4 5.84 106.34 4 107.45V101.84V96.52V91.45V86.59V81.91C4 81.91 4 78.86 4 77.37V72.94C4 72.94 4 70.02 4 68.58C4 67.14 4 65.69 4 64.25V59.92V55.56V51.13C4 51.13 4 48.13 4 46.59C4 45.05 4 43.5 4 41.91V37.05C4 37.05 4 33.71 4 31.98V26.66V21.05C5.85 19.93 7.66 18.99 9.43 18.2C11.2 17.41 12.95 16.75 14.67 16.22C16.39 15.69 18.07 15.27 19.73 14.96C21.39 14.64 23.02 14.42 24.62 14.28C26.23 14.14 27.81 14.08 29.37 14.08C30.93 14.08 32.47 14.14 33.99 14.26C35.51 14.37 37.01 14.54 38.49 14.74C39.97 14.94 41.44 15.19 42.89 15.47C44.34 15.75 45.78 16.05 47.21 16.38C48.64 16.71 50.06 17.06 51.46 17.43C52.87 17.8 54.27 18.19 55.67 18.58C57.07 18.97 58.46 19.39 59.84 19.8C61.22 20.21 62.61 20.63 64 21.05C65.38 21.47 66.77 21.89 68.16 22.3C69.55 22.71 70.94 23.12 72.33 23.52C73.72 23.92 75.13 24.3 76.54 24.67C77.95 25.04 79.37 25.39 80.79 25.72C82.22 26.05 83.66 26.36 85.11 26.63C86.56 26.91 88.03 27.15 89.51 27.36C90.99 27.57 92.49 27.73 94.01 27.84C95.53 27.95 97.07 28.02 98.63 28.02C100.19 28.02 101.77 27.96 103.38 27.82C104.99 27.68 106.62 27.46 108.27 27.14C109.93 26.82 111.61 26.41 113.33 25.88C115.05 25.35 116.79 24.7 118.57 23.9C120.35 23.1 122.16 22.16 124 21.05V26.66V31.98V37.05C124 37.05 124 40.32 124 41.91V46.59C124 46.59 124 49.64 124 51.13C124 52.62 124 54.1 124 55.56V59.92V64.25V68.58C124 68.58 124 71.48 124 72.94C124 74.4 124 75.88 124 77.37V81.91C124 81.91 124 85 124 86.59V91.45V96.52V101.84V107.45Z" fill="url(#paint0_linear_96_296)" style=""/>
<path d="M68.4347 41.3725C60.0352 40.7044 52.701 47.1889 52.0535 55.8563C51.4061 64.5235 57.6905 72.0914 66.0901 72.7595C74.4898 73.4275 81.824 66.9429 82.4714 58.2753C83.1187 49.6082 76.8343 42.0405 68.4347 41.3725ZM66.1474 71.9929C58.1581 71.3575 52.1806 64.1593 52.7964 55.9153C53.4122 47.6715 60.3883 41.5036 68.3774 42.139C76.3669 42.7744 82.3444 49.9728 81.7286 58.2164C81.1128 66.4602 74.1368 72.6284 66.1474 71.9929Z" fill="white" style="fill:white;fill-opacity:1;"/>
<path d="M66.0328 73.5325C57.2194 72.8315 50.6252 64.891 51.3045 55.7966C51.9839 46.7021 59.6795 39.8984 68.4928 40.5993C77.3065 41.3003 83.9004 49.2409 83.2211 58.335C82.5417 67.4295 74.8463 74.2335 66.0328 73.5325Z" stroke="white" style="stroke:white;stroke-opacity:1;" stroke-width="2.15"/>
<path d="M53.8904 44.1844C55.375 43.0184 57.1091 40.4704 57.1091 40.4704C57.1091 40.4704 56.5806 40.4802 55.8639 40.8521C54.9717 41.3152 53.8527 42.1605 53.8527 42.1605L53.996 41.066C53.996 41.066 53.1051 41.7414 52.5198 42.6586C51.9229 43.5938 51.6321 44.7709 51.6321 44.7709C51.6321 44.7709 52.6605 45.15 53.8904 44.1844ZM51.0332 47.6378C51.8781 46.9044 52.5024 45.8496 52.5024 45.8496C52.5024 45.8496 51.9935 46.0874 51.5249 46.1471C51.184 46.1903 50.8424 46.061 50.8424 46.061C50.8424 46.061 50.6756 45.6675 50.7339 45.0095C50.8031 44.2257 51.0999 43.1554 51.0999 43.1554C51.0999 43.1554 50.0932 44.1981 49.63 45.4807C49.4997 45.8411 49.399 46.2166 49.3199 46.5813C49.0215 47.8071 49.0421 48.852 49.0421 48.852C49.0421 48.852 50.1488 48.4051 51.0332 47.6378ZM49.3642 51.6043C50.0546 50.8739 50.5055 49.7339 50.5055 49.7339C50.5055 49.7339 49.9316 50.0365 49.348 50.1522C48.904 50.24 48.4122 50.1488 48.4122 50.1488C48.4122 50.1488 48.2731 49.6726 48.2339 48.9973C48.1642 47.7938 48.2878 45.908 48.2878 45.908C48.2878 45.908 47.2229 47.7478 47.1245 49.4437C47.0337 51.0085 47.7967 52.6001 47.7967 52.6001C47.7967 52.6001 48.7007 52.3065 49.3642 51.6043ZM47.3002 56.2671C47.3002 56.2671 48.2998 55.5465 48.8552 54.682C49.367 53.8852 49.4381 52.9383 49.4381 52.9383C49.4381 52.9383 48.9597 53.1852 48.453 53.3666C47.9898 53.5323 47.4952 53.6338 47.4952 53.6338C47.4952 53.6338 46.9719 53.0005 46.665 52.1832C46.1988 50.9426 45.8796 49.336 45.8796 49.336C45.8796 49.336 45.2696 51.4473 45.6276 53.1954C45.9797 54.9127 47.3002 56.2671 47.3002 56.2671ZM47.4262 60.4527C47.4262 60.4527 48.1226 59.7478 48.5154 58.8414C48.9311 57.8825 49.0445 56.719 49.0445 56.719L47.4525 58.0881C47.4525 58.0881 46.6419 57.4891 45.9617 56.4889C45.0306 55.119 44.1498 53.2303 44.1498 53.2303C44.1498 53.2303 43.9335 56.1252 44.759 57.9451C45.5715 59.7362 47.4262 60.4527 47.4262 60.4527ZM48.3088 64.3373C48.3088 64.3373 48.9256 63.6517 49.1426 62.7466C49.4153 61.6075 49.3012 60.1946 49.3012 60.1946C49.3012 60.1946 49.0115 60.7671 48.6493 61.2868C48.3443 61.7246 47.9569 62.1234 47.9569 62.1234C47.9569 62.1234 47.0021 61.6838 46.0873 60.7275C44.8004 59.3818 43.3759 57.2163 43.3759 57.2163C43.3759 57.2163 43.4082 60.3655 44.6189 62.0889C45.8504 63.8424 48.3088 64.3373 48.3088 64.3373ZM50.2622 68.098C50.2622 68.098 50.6561 67.1207 50.6804 66.0237C50.707 64.8172 50.3639 63.4808 50.3639 63.4808L49.0578 65.8511C49.0578 65.8511 47.9059 65.8452 46.7779 65.1776C45.3963 64.3602 43.9865 62.8508 43.9865 62.8508C43.9865 62.8508 44.8488 65.6352 46.4597 66.9819C47.9843 68.2569 50.2622 68.098 50.2622 68.098ZM52.658 71.3808C52.658 71.3808 52.8652 70.27 52.739 69.2461C52.5941 68.07 52.1134 66.959 52.1134 66.959C52.1134 66.959 51.9885 67.7535 51.7323 68.4626C51.523 69.0426 51.1727 69.5633 51.1727 69.5633C51.1727 69.5633 50.5128 69.6379 49.6787 69.5298C48.4821 69.374 46.9785 69.0173 46.9785 69.0173C46.9785 69.0173 47.7569 70.2157 49.211 70.8208C50.595 71.3966 52.658 71.3808 52.658 71.3808ZM53.8941 69.5027L53.5871 72.2964C53.5871 72.2964 52.9615 72.5233 52.1378 72.5266C51.0517 72.531 49.6937 72.312 49.6937 72.312C49.6937 72.312 50.8513 73.4076 52.2615 73.8017C53.7036 74.2047 55.3992 73.9065 55.3992 73.9065C55.3992 73.9065 55.6117 72.9225 55.264 71.9605C54.8601 70.8426 53.8941 69.5027 53.8941 69.5027ZM63.6866 75.6584C62.7939 75.1053 61.4499 74.7436 61.4499 74.7436C61.4499 74.7436 60.0932 74.4616 58.8121 74.0226C57.5635 73.5943 56.3892 73.0092 56.3892 73.0092C56.3892 73.0092 56.6339 73.7071 56.474 74.1768C56.3405 74.5688 55.7977 74.7465 55.7977 74.7465L56.9561 75.1761C56.9561 75.1761 59.9111 75.3785 61.6307 75.7352C63.1563 76.0513 63.4698 76.5262 63.4698 76.5262C63.4698 76.5262 63.2759 76.7223 62.6132 76.8065C61.667 76.927 60.2597 76.8433 60.2597 76.8433L61.238 77.8711C61.238 77.8711 62.3424 78.0532 63.3097 77.8038C64.1945 77.5756 64.9497 76.9132 64.9497 76.9132C64.9497 76.9132 64.5433 76.1896 63.6866 75.6584ZM81.265 45.2356C82.4267 46.293 83.4782 45.9938 83.4782 45.9938C83.4782 45.9938 83.2671 44.7974 82.7344 43.8186C82.2124 42.8591 81.3685 42.1168 81.3685 42.1168L81.4381 43.2195C81.4381 43.2195 80.3786 42.2904 79.5198 41.7603C78.8301 41.3342 78.3036 41.2841 78.3036 41.2841C78.3036 41.2841 79.8623 43.9588 81.265 45.2356ZM83.8832 48.8992C84.7138 49.7322 85.7874 50.2633 85.7874 50.2633C85.7874 50.2633 85.8784 49.2238 85.6632 47.9793C85.609 47.6088 85.5329 47.2253 85.4275 46.8554C85.0511 45.5404 84.117 44.4234 84.117 44.4234C84.117 44.4234 84.3409 45.5139 84.3577 46.301C84.3715 46.9619 84.1789 47.3414 84.1789 47.3414C84.1789 47.3414 83.8291 47.4442 83.4924 47.375C83.0292 47.2794 82.5375 47.0033 82.5375 47.0033C82.5375 47.0033 83.0893 48.103 83.8832 48.8992ZM84.2686 51.0304C84.2686 51.0304 84.6419 52.202 85.2816 52.9835C85.8965 53.7351 86.7786 54.0972 86.7786 54.0972C86.7786 54.0972 87.6463 52.5679 87.6608 51.0004C87.676 49.3013 86.7376 47.3845 86.7376 47.3845C86.7376 47.3845 86.7341 49.275 86.5841 50.47C86.4997 51.1404 86.3292 51.6047 86.3292 51.6047C86.3292 51.6047 85.8323 51.6582 85.3952 51.5363C84.8209 51.3762 84.2686 51.0304 84.2686 51.0304ZM86.0722 54.8111C85.5796 54.5914 85.1182 54.3083 85.1182 54.3083C85.1182 54.3083 85.1259 55.2579 85.5828 56.0923C86.0789 56.9971 87.0276 57.7926 87.0276 57.7926C87.0276 57.7926 88.4353 56.5429 88.9011 54.857C89.3754 53.1408 88.9087 50.9882 88.9087 50.9882C88.9087 50.9882 88.483 52.5662 87.9344 53.7676C87.5732 54.5595 87.0092 55.1511 87.0092 55.1511C87.0092 55.1511 86.5232 55.0119 86.0722 54.8111ZM86.7538 59.5975L85.2574 58.11C85.2574 58.11 85.2925 59.2793 85.6428 60.2674C85.9739 61.2018 86.6212 61.9582 86.6212 61.9582C86.6212 61.9582 88.5192 61.3857 89.4495 59.6617C90.3953 57.9098 90.3738 55.0058 90.3738 55.0058C90.3738 55.0058 89.3685 56.8223 88.3477 58.1171C87.6024 59.0621 86.7538 59.5975 86.7538 59.5975ZM87.9382 62.3348C86.9615 63.2185 85.9798 63.5837 85.9798 63.5837C85.9798 63.5837 85.6202 63.1561 85.3451 62.6962C85.0186 62.1503 84.7682 61.5568 84.7682 61.5568C84.7682 61.5568 84.5595 62.9572 84.7554 64.1145C84.9108 65.0338 85.48 65.765 85.48 65.765C85.48 65.765 87.9653 65.4597 89.3118 63.8054C90.6352 62.1794 90.8784 59.0409 90.8784 59.0409C90.8784 59.0409 89.3125 61.0911 87.9382 62.3348ZM84.6314 67.2172L83.4877 64.7528C83.4877 64.7528 83.0564 66.0593 83.0019 67.265C82.9525 68.3609 83.2796 69.366 83.2796 69.366C83.2796 69.366 85.5409 69.6992 87.1474 68.5446C88.8445 67.3248 89.8915 64.6139 89.8915 64.6139C89.8915 64.6139 88.3837 66.0112 86.9512 66.7206C85.7804 67.2997 84.6314 67.2172 84.6314 67.2172ZM82.2731 70.7573C82.2731 70.7573 81.9591 70.2111 81.7887 69.6165C81.5807 68.8896 81.5095 68.0876 81.5095 68.0876C81.5095 68.0876 80.9554 69.1586 80.7321 70.3208C80.5374 71.3327 80.6695 72.4561 80.6695 72.4561C80.6695 72.4561 82.7263 72.6302 84.1452 72.1619C85.6362 71.6699 86.4931 70.5343 86.4931 70.5343C86.4931 70.5343 84.9691 70.7745 83.765 70.838C82.9261 70.8825 82.2731 70.7573 82.2731 70.7573ZM81.1117 73.6392C80.2901 73.5725 79.6815 73.2984 79.6815 73.2984L79.5625 70.4883C79.5625 70.4883 78.5092 71.7504 78.0307 72.8346C77.6194 73.7675 77.7655 74.7651 77.7655 74.7651C77.7655 74.7651 79.4366 75.193 80.9019 74.9012C82.3349 74.6161 83.5629 73.6124 83.5629 73.6124C83.5629 73.6124 82.1946 73.7268 81.1117 73.6392ZM76.6759 74.9525C76.548 74.4712 76.8388 73.7946 76.8388 73.7946C76.8388 73.7946 75.6283 74.2881 74.3541 74.6194C73.0468 74.959 71.6748 75.1362 71.6748 75.1362C71.6748 75.1362 70.3099 75.3937 69.3829 75.8772C68.4928 76.3412 68.0386 77.0323 68.0386 77.0323C68.0386 77.0323 68.7477 77.7508 69.6145 78.0463C70.5626 78.3697 71.6763 78.2723 71.6763 78.2723L72.7212 77.3222C72.7212 77.3222 71.312 77.2978 70.3763 77.1053C69.7209 76.9702 69.5408 76.76 69.5408 76.76C69.5408 76.76 69.8852 76.3103 71.4282 76.112C73.1672 75.8882 76.1279 75.9129 76.1279 75.9129L77.3124 75.5732C77.3123 75.5728 76.7828 75.3538 76.6759 74.9525Z" fill="white" style="fill:white;fill-opacity:1;"/>
<path d="M66.6395 57.4599C66.64 57.4599 66.6401 57.4599 66.6401 57.4599L66.6389 57.4598C66.5744 57.4535 63.6487 57.1724 63.2019 56.6346C62.7554 56.097 62.9345 53.0706 62.9386 53.0038L62.9387 53.0025C62.9387 53.0025 62.9387 53.0027 62.9387 53.0033C62.9387 53.0027 62.9387 53.0025 62.9387 53.0025L62.9386 53.0038C62.9325 53.0704 62.6602 56.0893 62.1389 56.5501C61.6207 57.0086 58.7156 56.8281 58.6217 56.8222L58.6193 56.822C58.6193 56.822 58.6199 56.822 58.6206 56.8221C58.6199 56.822 58.6193 56.822 58.6193 56.822L58.6217 56.8222C58.7156 56.8309 61.613 57.1121 62.057 57.6469C62.5037 58.1845 62.3244 61.2111 62.3206 61.2777L62.3205 61.2791C62.3205 61.2791 62.3205 61.2789 62.3205 61.2783C62.3205 61.2787 62.3205 61.2791 62.3205 61.2791L62.3206 61.2777C62.3266 61.2112 62.5989 58.1925 63.1202 57.7315C63.6412 57.2708 66.5742 57.4556 66.6389 57.4598L66.6401 57.4599C66.64 57.4599 66.6398 57.4599 66.6395 57.4599Z" fill="white" style="fill:white;fill-opacity:1;"/>
<path d="M73.7268 53.1283C73.7272 53.1283 73.7274 53.1284 73.7274 53.1284L73.7263 53.1283C73.6767 53.1236 71.4197 52.9069 71.0753 52.492C70.7309 52.0771 70.8691 49.7427 70.8721 49.6916L70.8721 49.6908C70.8721 49.6908 70.8721 49.6908 70.8721 49.6912C70.8721 49.691 70.8721 49.6908 70.8721 49.6908L70.8721 49.6916C70.8675 49.7426 70.6574 52.0713 70.2556 52.4268C69.8559 52.7803 67.615 52.6411 67.5424 52.6364L67.5404 52.6363C67.5404 52.6363 67.5409 52.6363 67.5417 52.6364C67.5409 52.6363 67.5404 52.6363 67.5404 52.6363L67.5424 52.6364C67.6148 52.6435 69.8499 52.8601 70.1924 53.2728C70.5369 53.6875 70.3986 56.0223 70.3953 56.0734L70.3953 56.0745C70.3953 56.0745 70.3953 56.0743 70.3953 56.0739C70.3953 56.0743 70.3953 56.0745 70.3953 56.0745L70.3953 56.0734C70.4 56.0224 70.6102 53.6934 71.0123 53.338C71.4142 52.9827 73.6766 53.1251 73.7263 53.1283L73.7274 53.1284C73.7272 53.1283 73.727 53.1283 73.7268 53.1283Z" fill="white" style="fill:white;fill-opacity:1;"/>
<path d="M74.5204 61.5761C74.5206 61.5762 74.5209 61.5762 74.5209 61.5762L74.5198 61.5761C74.4738 61.5717 72.367 61.369 72.0454 60.9821C71.7238 60.5949 71.8527 58.4157 71.8556 58.3675L71.8557 58.3666C71.8557 58.3666 71.8557 58.3668 71.8556 58.3672C71.8556 58.367 71.8557 58.3666 71.8557 58.3666L71.8556 58.3675C71.8511 58.4153 71.6552 60.5891 71.2797 60.921C70.9067 61.2508 68.8149 61.1212 68.7473 61.117L68.7454 61.1168C68.7454 61.1168 68.7458 61.1169 68.7464 61.1169C68.7458 61.1169 68.7454 61.1168 68.7454 61.1168L68.7473 61.117C68.8147 61.1236 70.9009 61.3259 71.2207 61.7109C71.5424 62.0982 71.4134 64.2773 71.4106 64.3251L71.4105 64.3263C71.4105 64.3263 71.4105 64.3263 71.4105 64.3259C71.4105 64.3261 71.4105 64.3263 71.4105 64.3263L71.4106 64.3251C71.4151 64.2776 71.6111 62.1037 71.9864 61.7717C72.3617 61.44 74.4736 61.5732 74.5198 61.5761L74.5209 61.5762C74.5209 61.5762 74.5206 61.5762 74.5204 61.5761Z" fill="white" style="fill:white;fill-opacity:1;"/>
<path d="M73.0511 57.4351C73.0226 57.8173 72.6992 58.1034 72.3287 58.0739C71.9582 58.0444 71.6811 57.7106 71.7096 57.3284C71.7382 56.9462 72.0616 56.6601 72.4321 56.6896C72.8026 56.719 73.0797 57.0528 73.0511 57.4351Z" fill="white" style="fill:white;fill-opacity:1;"/>
<path d="M68.86 59.7749C68.8314 60.1572 68.5079 60.4432 68.1375 60.4138C67.767 60.3843 67.4898 60.0505 67.5184 59.6682C67.5469 59.2859 67.8704 59 68.2409 59.0294C68.6113 59.0589 68.8885 59.3926 68.86 59.7749Z" fill="white" style="fill:white;fill-opacity:1;"/>
<path d="M64.0736 64.4014C64.045 64.7836 63.7215 65.0697 63.351 65.0402C62.9806 65.0107 62.7034 64.6769 62.732 64.2947C62.7605 63.9124 63.084 63.6264 63.4544 63.6559C63.8249 63.6854 64.1021 64.0191 64.0736 64.4014Z" fill="white" style="fill:white;fill-opacity:1;"/>
<path d="M68.017 55.3703C67.9905 55.7254 67.69 55.9911 67.3458 55.9637C67.0017 55.9364 66.7442 55.6263 66.7707 55.2712C66.7972 54.9161 67.0977 54.6504 67.4419 54.6777C67.7861 54.7051 68.0435 55.0152 68.017 55.3703Z" fill="white" style="fill:white;fill-opacity:1;"/>
<path d="M67.5022 63.2884C67.474 63.6656 67.1549 63.9478 66.7893 63.9187C66.4238 63.8896 66.1503 63.5603 66.1785 63.1831C66.2067 62.806 66.5259 62.5238 66.8913 62.5529C67.2569 62.582 67.5304 62.9113 67.5022 63.2884Z" fill="white" style="fill:white;fill-opacity:1;"/>
<path d="M58.6624 63.0657C58.6338 63.4479 58.3104 63.7339 57.9399 63.7044C57.5694 63.675 57.2923 63.3413 57.3209 62.959C57.3494 62.5767 57.6728 62.2907 58.0433 62.3202C58.4138 62.3497 58.6909 62.6834 58.6624 63.0657Z" fill="white" style="fill:white;fill-opacity:1;"/>
<path d="M80.7809 52.6731C80.7523 53.0554 80.4289 53.3413 80.0584 53.3119C79.688 53.2824 79.4108 52.9487 79.4394 52.5664C79.4679 52.1841 79.7914 51.8981 80.1618 51.9276C80.5323 51.9571 80.8095 52.2908 80.7809 52.6731Z" fill="white" style="fill:white;fill-opacity:1;"/>
<path d="M77.2313 50.9264C77.2025 51.3121 76.8761 51.6006 76.5023 51.5709C76.1286 51.5412 75.8488 51.2044 75.8776 50.8187C75.9065 50.433 76.2329 50.1445 76.6067 50.1742C76.9805 50.2039 77.2601 50.5407 77.2313 50.9264Z" fill="white" style="fill:white;fill-opacity:1;"/>
<path d="M67.6605 57.275C67.6395 57.5555 67.4022 57.7654 67.1304 57.7437C66.8586 57.7221 66.6552 57.4772 66.6762 57.1967C66.6971 56.9163 66.9345 56.7065 67.2063 56.7281C67.4781 56.7497 67.6814 56.9946 67.6605 57.275Z" fill="white" style="fill:white;fill-opacity:1;"/>
<path d="M60.4776 62.9081C60.4566 63.1885 60.2193 63.3984 59.9475 63.3768C59.6757 63.3552 59.4724 63.1103 59.4933 62.8298C59.5143 62.5494 59.7515 62.3395 60.0234 62.3612C60.2952 62.3828 60.4985 62.6277 60.4776 62.9081Z" fill="white" style="fill:white;fill-opacity:1;"/>
<path d="M54.9743 60.0002C54.9533 60.2807 54.716 60.4905 54.4442 60.4688C54.1724 60.4472 53.9691 60.2024 53.99 59.9219C54.011 59.6415 54.2483 59.4316 54.5201 59.4532C54.7919 59.4748 54.9952 59.7197 54.9743 60.0002Z" fill="white" style="fill:white;fill-opacity:1;"/>
<path d="M70.7901 44.3697C70.7692 44.6502 70.5319 44.8601 70.2601 44.8385C69.9883 44.8168 69.785 44.5719 69.8059 44.2915C69.8269 44.011 70.0642 43.8012 70.336 43.8228C70.6078 43.8444 70.8111 44.0893 70.7901 44.3697Z" fill="white" style="fill:white;fill-opacity:1;"/>
<path d="M73.4439 44.1648C73.4229 44.4452 73.1856 44.655 72.9139 44.6334C72.6421 44.6118 72.4387 44.3669 72.4596 44.0865C72.4806 43.806 72.7179 43.5961 72.9897 43.6178C73.2615 43.6394 73.4648 43.8843 73.4439 44.1648Z" fill="white" style="fill:white;fill-opacity:1;"/>
<path d="M56.313 54.4525C56.2899 54.7623 56.0277 54.9941 55.7275 54.9702C55.4273 54.9463 55.2027 54.6759 55.2258 54.366C55.2489 54.0563 55.5111 53.8245 55.8113 53.8484C56.1115 53.8723 56.3362 54.1427 56.313 54.4525Z" fill="white" style="fill:white;fill-opacity:1;"/>
<path d="M54.9234 58.3493C54.9002 58.659 54.6382 58.8906 54.338 58.8668C54.038 58.8429 53.8134 58.5725 53.8365 58.2628C53.8597 57.9532 54.1217 57.7215 54.4218 57.7454C54.7219 57.7692 54.9465 58.0396 54.9234 58.3493Z" fill="white" style="fill:white;fill-opacity:1;"/>
<path d="M65.5145 48.9855C65.4913 49.2953 65.2293 49.527 64.9291 49.5031C64.6288 49.4793 64.4042 49.2088 64.4273 48.8991C64.4505 48.5893 64.7126 48.3575 65.0128 48.3814C65.3131 48.4052 65.5376 48.6758 65.5145 48.9855Z" fill="white" style="fill:white;fill-opacity:1;"/>
<path d="M62.9759 48.95C62.9602 49.1598 62.7826 49.3169 62.5792 49.3007C62.3759 49.2845 62.2238 49.1013 62.2394 48.8914C62.2551 48.6815 62.4327 48.5246 62.636 48.5408C62.8394 48.5569 62.9916 48.7401 62.9759 48.95Z" fill="white" style="fill:white;fill-opacity:1;"/>
<path d="M67.4979 47.1016C67.4823 47.3114 67.3047 47.4685 67.1013 47.4523C66.8979 47.4361 66.7457 47.2529 66.7614 47.043C66.7771 46.8332 66.9547 46.6762 67.1581 46.6924C67.3614 46.7086 67.5136 46.8917 67.4979 47.1016Z" fill="white" style="fill:white;fill-opacity:1;"/>
<path d="M67.9697 53.5132C67.954 53.7231 67.7764 53.8801 67.573 53.8639C67.3696 53.8477 67.2175 53.6645 67.2332 53.4546C67.2489 53.2448 67.4264 53.0878 67.6298 53.104C67.8332 53.1202 67.9853 53.3033 67.9697 53.5132Z" fill="white" style="fill:white;fill-opacity:1;"/>
<path d="M64.1812 55.3294C64.1655 55.5392 63.9879 55.6963 63.7846 55.6801C63.5812 55.6639 63.4291 55.4806 63.4448 55.2708C63.4604 55.0609 63.638 54.904 63.8413 54.9202C64.0447 54.9363 64.1969 55.1195 64.1812 55.3294Z" fill="white" style="fill:white;fill-opacity:1;"/>
<path d="M65.5151 58.6416C65.4994 58.8516 65.3217 59.0087 65.1183 58.9925C64.9148 58.9763 64.7626 58.793 64.7782 58.583C64.7939 58.373 64.9716 58.216 65.1751 58.2322C65.3785 58.2484 65.5308 58.4316 65.5151 58.6416Z" fill="white" style="fill:white;fill-opacity:1;"/>
<path d="M65.9036 61.8784C65.888 62.0883 65.7104 62.2453 65.507 62.2291C65.3037 62.213 65.1515 62.0297 65.1672 61.8199C65.1829 61.61 65.3604 61.4531 65.5637 61.4692C65.7671 61.4854 65.9193 61.6686 65.9036 61.8784Z" fill="white" style="fill:white;fill-opacity:1;"/>
<path d="M66.1122 59.8206C66.0966 60.0305 65.9189 60.1876 65.7154 60.1714C65.512 60.1553 65.3597 59.9719 65.3754 59.762C65.3911 59.552 65.5688 59.395 65.7722 59.4111C65.9757 59.4273 66.1279 59.6106 66.1122 59.8206Z" fill="white" style="fill:white;fill-opacity:1;"/>
<path d="M67.4232 60.3772C67.4075 60.5871 67.23 60.7441 67.0266 60.7279C66.8232 60.7118 66.671 60.5285 66.6867 60.3186C66.7024 60.1088 66.88 59.9518 67.0834 59.968C67.2867 59.9842 67.4388 60.1674 67.4232 60.3772Z" fill="white" style="fill:white;fill-opacity:1;"/>
<path d="M72.8134 59.2971C72.7977 59.507 72.6201 59.664 72.4168 59.6479C72.2134 59.6317 72.0613 59.4484 72.077 59.2386C72.0926 59.0287 72.2702 58.8718 72.4735 58.8879C72.6769 58.9041 72.8291 59.0873 72.8134 59.2971Z" fill="white" style="fill:white;fill-opacity:1;"/>
<path d="M70.5982 60.0218C70.5825 60.2315 70.405 60.3888 70.2014 60.3726C69.9977 60.3564 69.8457 60.1733 69.8614 59.9632C69.877 59.7535 70.0543 59.5961 70.2582 59.6123C70.4616 59.6285 70.6139 59.8118 70.5982 60.0218Z" fill="white" style="fill:white;fill-opacity:1;"/>
<path d="M75.5415 55.4407C75.5258 55.6506 75.3482 55.8076 75.1448 55.7914C74.9414 55.7752 74.7893 55.592 74.805 55.3821C74.8207 55.1723 74.9982 55.0153 75.2016 55.0315C75.405 55.0477 75.5571 55.2308 75.5415 55.4407Z" fill="white" style="fill:white;fill-opacity:1;"/>
<path d="M67.7017 58.6079C67.686 58.8179 67.5084 58.975 67.3049 58.9588C67.1015 58.9426 66.9492 58.7593 66.9649 58.5493C66.9806 58.3394 67.1582 58.1823 67.3617 58.1985C67.5652 58.2147 67.7174 58.398 67.7017 58.6079Z" fill="white" style="fill:white;fill-opacity:1;"/>
<path d="M69.251 61.8429C69.2354 62.0526 69.0578 62.2097 68.8545 62.1935C68.6511 62.1773 68.4989 61.9941 68.5146 61.7843C68.5303 61.5744 68.7079 61.4174 68.9112 61.4336C69.1146 61.4498 69.2667 61.633 69.251 61.8429Z" fill="white" style="fill:white;fill-opacity:1;"/>
<path d="M76.5057 55.7437C76.49 55.9537 76.3123 56.1107 76.1089 56.0945C75.9054 56.0784 75.7532 55.8951 75.7688 55.6851C75.7845 55.4752 75.9622 55.3181 76.1657 55.3342C76.3691 55.3504 76.5214 55.5338 76.5057 55.7437Z" fill="white" style="fill:white;fill-opacity:1;"/>
<path d="M79.5618 53.9781C79.5462 54.188 79.3686 54.3449 79.1653 54.3288C78.9619 54.3126 78.8097 54.1294 78.8254 53.9196C78.8411 53.7097 79.0187 53.5527 79.222 53.5688C79.4254 53.585 79.5775 53.7683 79.5618 53.9781Z" fill="white" style="fill:white;fill-opacity:1;"/>
<path d="M79.1771 59.1273C79.1592 59.3666 78.9566 59.5459 78.7244 59.5275C78.4921 59.509 78.3183 59.2999 78.3362 59.0604C78.3541 58.8207 78.5568 58.6412 78.7892 58.6597C79.021 58.6785 79.195 58.8878 79.1771 59.1273Z" fill="white" style="fill:white;fill-opacity:1;"/>
<path d="M75.1809 52.4325C75.1652 52.6423 74.9877 52.7993 74.7843 52.7831C74.5809 52.7669 74.4287 52.5838 74.4444 52.3739C74.4601 52.164 74.6377 52.007 74.8411 52.0232C75.0444 52.0394 75.1965 52.2226 75.1809 52.4325Z" fill="white" style="fill:white;fill-opacity:1;"/>
<path d="M77.5586 51.9237C77.543 52.1335 77.3655 52.2905 77.1621 52.2743C76.9587 52.2581 76.8065 52.0749 76.8222 51.8651C76.8379 51.6553 77.0155 51.4982 77.2188 51.5144C77.4222 51.5306 77.5743 51.7138 77.5586 51.9237Z" fill="white" style="fill:white;fill-opacity:1;"/>
<path d="M77.7702 53.1287C77.7545 53.3385 77.577 53.4956 77.3736 53.4794C77.1703 53.4632 77.0181 53.28 77.0338 53.0701C77.0494 52.8603 77.227 52.7033 77.4304 52.7195C77.6338 52.7357 77.7859 52.9188 77.7702 53.1287Z" fill="white" style="fill:white;fill-opacity:1;"/>
<path d="M76.0571 49.032C76.0414 49.2419 75.8637 49.3991 75.6603 49.3829C75.4568 49.3667 75.3046 49.1833 75.3202 48.9734C75.3359 48.7634 75.5136 48.6064 75.717 48.6226C75.9205 48.6387 76.0727 48.822 76.0571 49.032Z" fill="white" style="fill:white;fill-opacity:1;"/>
<path d="M78.4602 50.1285C78.4445 50.3384 78.267 50.4953 78.0636 50.4792C77.8602 50.463 77.708 50.2798 77.7237 50.0699C77.7394 49.8601 77.917 49.7031 78.1203 49.7192C78.3237 49.7354 78.4759 49.9187 78.4602 50.1285Z" fill="white" style="fill:white;fill-opacity:1;"/>
<path d="M77.2043 47.1243C77.1886 47.3341 77.0111 47.4912 76.8077 47.475C76.6043 47.4588 76.4522 47.2756 76.4678 47.0657C76.4835 46.8559 76.6611 46.6989 76.8645 46.7151C77.0678 46.7313 77.22 46.9144 77.2043 47.1243Z" fill="white" style="fill:white;fill-opacity:1;"/>
<path d="M63.6667 60.2671C63.651 60.4771 63.4734 60.6342 63.2699 60.618C63.0664 60.6018 62.9142 60.4185 62.9299 60.2085C62.9455 59.9986 63.1232 59.8415 63.3267 59.8577C63.5302 59.8739 63.6824 60.0572 63.6667 60.2671Z" fill="white" style="fill:white;fill-opacity:1;"/>
<path d="M63.1509 63.0174C63.1353 63.2273 62.9576 63.3844 62.7541 63.3682C62.5506 63.352 62.3984 63.1687 62.4141 62.9588C62.4298 62.7488 62.6074 62.5917 62.8109 62.6079C63.0144 62.6241 63.1666 62.8074 63.1509 63.0174Z" fill="white" style="fill:white;fill-opacity:1;"/>
<path d="M61.384 63.4237C61.3684 63.6336 61.1907 63.7907 60.9872 63.7746C60.7837 63.7584 60.6315 63.575 60.6471 63.3651C60.6628 63.1551 60.8405 62.998 61.044 63.0142C61.2475 63.0304 61.3997 63.2137 61.384 63.4237Z" fill="white" style="fill:white;fill-opacity:1;"/>
<path d="M60.7524 61.1104C60.7367 61.3202 60.5591 61.4773 60.3557 61.4611C60.1524 61.4449 60.0003 61.2617 60.0159 61.0518C60.0316 60.8419 60.2091 60.685 60.4125 60.7012C60.6159 60.7173 60.7681 60.9005 60.7524 61.1104Z" fill="white" style="fill:white;fill-opacity:1;"/>
<path d="M62.0787 61.2159C62.063 61.4258 61.8854 61.5827 61.682 61.5666C61.4787 61.5504 61.3265 61.3672 61.3422 61.1573C61.3579 60.9475 61.5354 60.7905 61.7388 60.8066C61.9422 60.8228 62.0944 61.0061 62.0787 61.2159Z" fill="white" style="fill:white;fill-opacity:1;"/>
<path d="M58.9627 59.6289C58.947 59.8388 58.7694 59.9958 58.5661 59.9796C58.3627 59.9635 58.2106 59.7802 58.2263 59.5704C58.2419 59.3605 58.4195 59.2035 58.6228 59.2197C58.8262 59.2359 58.9784 59.4191 58.9627 59.6289Z" fill="white" style="fill:white;fill-opacity:1;"/>
<path d="M60.325 57.6534C60.3093 57.8633 60.1317 58.0202 59.9284 58.0041C59.725 57.9879 59.5729 57.8047 59.5886 57.5948C59.6042 57.385 59.7818 57.228 59.9851 57.2441C60.1885 57.2603 60.3407 57.4436 60.325 57.6534Z" fill="white" style="fill:white;fill-opacity:1;"/>
<path d="M58.0441 56.2556C58.0285 56.4655 57.8509 56.6225 57.6476 56.6064C57.4442 56.5902 57.292 56.4069 57.3077 56.1971C57.3234 55.9872 57.501 55.8303 57.7043 55.8464C57.9076 55.8626 58.0598 56.0458 58.0441 56.2556Z" fill="white" style="fill:white;fill-opacity:1;"/>
<path d="M55.1879 51.9265C55.1723 52.1364 54.9947 52.2934 54.7914 52.2773C54.588 52.2611 54.4358 52.0778 54.4515 51.868C54.4672 51.6581 54.6448 51.5012 54.8481 51.5173C55.0515 51.5335 55.2036 51.7167 55.1879 51.9265Z" fill="white" style="fill:white;fill-opacity:1;"/>
<path d="M55.2802 63.2371C55.2645 63.4469 55.0869 63.604 54.8836 63.5878C54.6802 63.5716 54.5281 63.3884 54.5438 63.1785C54.5594 62.9687 54.737 62.8117 54.9403 62.8279C55.1437 62.844 55.2959 63.0272 55.2802 63.2371Z" fill="white" style="fill:white;fill-opacity:1;"/>
<path d="M57.4906 65.6316C57.4749 65.8415 57.2973 65.9985 57.0939 65.9823C56.8905 65.9662 56.7384 65.7829 56.7541 65.573C56.7698 65.3633 56.9473 65.2062 57.1507 65.2224C57.354 65.2386 57.5062 65.4218 57.4906 65.6316Z" fill="white" style="fill:white;fill-opacity:1;"/>
<path d="M59.769 64.0023C59.7533 64.2121 59.5757 64.3691 59.3723 64.3529C59.169 64.3368 59.0169 64.1536 59.0325 63.9437C59.0482 63.7339 59.2258 63.5768 59.4291 63.593C59.6325 63.6092 59.7847 63.7924 59.769 64.0023Z" fill="white" style="fill:white;fill-opacity:1;"/>
<path d="M68.6634 71.1783C68.6477 71.3882 68.4702 71.5451 68.2668 71.529C68.0635 71.5128 67.9113 71.3296 67.9269 71.1198C67.9426 70.9099 68.1202 70.7529 68.3236 70.769C68.527 70.7852 68.6791 70.9685 68.6634 71.1783Z" fill="white" style="fill:white;fill-opacity:1;"/>
<path d="M58.6372 65.9398C58.6215 66.1497 58.4439 66.3066 58.2406 66.2904C58.0372 66.2743 57.885 66.0911 57.9007 65.8812C57.9164 65.6714 58.094 65.5143 58.2973 65.5305C58.5006 65.5467 58.6528 65.7299 58.6372 65.9398Z" fill="white" style="fill:white;fill-opacity:1;"/>
<path d="M58.8803 68.0618C58.8646 68.2716 58.6871 68.4287 58.4837 68.4125C58.2804 68.3963 58.1282 68.2131 58.1439 68.0032C58.1595 67.7934 58.3371 67.6364 58.5405 67.6526C58.7439 67.6688 58.896 67.852 58.8803 68.0618Z" fill="white" style="fill:white;fill-opacity:1;"/>
<path d="M61.0742 66.586C61.0585 66.7958 60.881 66.9528 60.6776 66.9367C60.4742 66.9205 60.322 66.7372 60.3377 66.5275C60.3534 66.3176 60.531 66.1606 60.7344 66.1768C60.9377 66.1929 61.0898 66.3762 61.0742 66.586Z" fill="white" style="fill:white;fill-opacity:1;"/>
<path d="M68.2867 67.8954C68.271 68.1052 68.0935 68.2622 67.8901 68.246C67.6867 68.2298 67.5346 68.0466 67.5502 67.8368C67.5659 67.6269 67.7435 67.4699 67.9469 67.4861C68.1503 67.5023 68.3024 67.6855 68.2867 67.8954Z" fill="white" style="fill:white;fill-opacity:1;"/>
<path d="M69.0353 65.4654C69.0197 65.6753 68.8421 65.8322 68.6387 65.8161C68.4353 65.7999 68.2832 65.6167 68.2989 65.4069C68.3146 65.197 68.4921 65.04 68.6955 65.0561C68.8988 65.0723 69.051 65.2556 69.0353 65.4654Z" fill="white" style="fill:white;fill-opacity:1;"/>
<path d="M77.1589 66.451C77.1432 66.6609 76.9657 66.8178 76.7623 66.8017C76.5589 66.7855 76.4067 66.6023 76.4224 66.3925C76.4381 66.1826 76.6157 66.0256 76.8191 66.0417C77.0225 66.0579 77.1746 66.2412 77.1589 66.451Z" fill="white" style="fill:white;fill-opacity:1;"/>
<path d="M75.7482 60.3792C75.7326 60.5891 75.555 60.7461 75.3516 60.7299C75.1482 60.7137 74.9961 60.5305 75.0118 60.3207C75.0275 60.1108 75.205 59.9538 75.4084 59.97C75.6117 59.9861 75.7639 60.1694 75.7482 60.3792Z" fill="white" style="fill:white;fill-opacity:1;"/>
<path d="M74.4334 58.266C74.4162 58.4954 74.2221 58.667 73.9998 58.6493C73.7774 58.6316 73.6111 58.4314 73.6283 58.2019C73.6454 57.9726 73.8395 57.801 74.0619 57.8186C74.2841 57.8363 74.4505 58.0366 74.4334 58.266Z" fill="white" style="fill:white;fill-opacity:1;"/>
<path d="M73.7672 56.8013C73.7504 57.0254 73.5608 57.1931 73.3436 57.1758C73.1264 57.1586 72.9639 56.9629 72.9807 56.7387C72.9974 56.5147 73.1871 56.347 73.4042 56.3643C73.6214 56.3816 73.7839 56.5772 73.7672 56.8013Z" fill="white" style="fill:white;fill-opacity:1;"/>
<path d="M70.0436 56.9198C70.0259 57.1568 69.8253 57.3341 69.5957 57.3159C69.3659 57.2976 69.1941 57.0906 69.2118 56.8537C69.2295 56.6167 69.4301 56.4394 69.6598 56.4576C69.8894 56.4759 70.0613 56.6829 70.0436 56.9198Z" fill="white" style="fill:white;fill-opacity:1;"/>
<path d="M73.629 52.2262C73.6113 52.4632 73.4108 52.6405 73.1811 52.6223C72.9515 52.604 72.7796 52.397 72.7973 52.1601C72.815 51.9231 73.0156 51.7458 73.2452 51.764C73.4749 51.7823 73.6467 51.9893 73.629 52.2262Z" fill="white" style="fill:white;fill-opacity:1;"/>
<path d="M72.6216 54.2467C72.6033 54.4914 72.3963 54.6744 72.1591 54.6555C71.922 54.6367 71.7445 54.4231 71.7628 54.1784C71.7811 53.9337 71.9882 53.7506 72.2253 53.7695C72.4625 53.7884 72.6398 54.002 72.6216 54.2467Z" fill="white" style="fill:white;fill-opacity:1;"/>
<path d="M67.5352 67.1942C67.5196 67.404 67.342 67.561 67.1387 67.5448C66.9353 67.5287 66.7831 67.3454 66.7988 67.1356C66.8144 66.9258 66.992 66.7687 67.1954 66.7849C67.3988 66.8011 67.5509 66.9843 67.5352 67.1942Z" fill="white" style="fill:white;fill-opacity:1;"/>
<path d="M69.8951 64.9679C69.8794 65.1777 69.7018 65.3347 69.4984 65.3185C69.2951 65.3023 69.143 65.1191 69.1586 64.9093C69.1743 64.6994 69.3519 64.5424 69.5552 64.5586C69.7586 64.5748 69.9108 64.758 69.8951 64.9679Z" fill="white" style="fill:white;fill-opacity:1;"/>
<path d="M76.5688 53.4293C76.5531 53.6391 76.3755 53.7961 76.1721 53.7799C75.9688 53.7638 75.8167 53.5806 75.8323 53.3707C75.848 53.1609 76.0255 53.0038 76.2289 53.02C76.4323 53.0362 76.5845 53.2194 76.5688 53.4293Z" fill="white" style="fill:white;fill-opacity:1;"/>
<path d="M73.9281 54.035C73.9111 54.2628 73.7183 54.4331 73.4977 54.4156C73.2769 54.398 73.1119 54.1992 73.1289 53.9714C73.1459 53.7437 73.3385 53.5733 73.5593 53.5909C73.7799 53.6084 73.9451 53.8073 73.9281 54.035Z" fill="white" style="fill:white;fill-opacity:1;"/>
<path d="M60.6972 48.3479C60.6762 48.6283 60.4389 48.8381 60.1672 48.8165C59.8954 48.7949 59.692 48.55 59.7129 48.2696C59.7339 47.9891 59.9712 47.7792 60.243 47.8009C60.5148 47.8225 60.7181 48.0674 60.6972 48.3479Z" fill="white" style="fill:white;fill-opacity:1;"/>
<path d="M68.7753 64.4923C68.7544 64.7728 68.517 64.9826 68.2452 64.961C67.9734 64.9394 67.7701 64.6945 67.791 64.414C67.812 64.1336 68.0493 63.9238 68.3211 63.9454C68.5929 63.967 68.7963 64.2118 68.7753 64.4923Z" fill="white" style="fill:white;fill-opacity:1;"/>
<path d="M69.9971 67.1073C69.9762 67.3878 69.7388 67.5976 69.467 67.5759C69.1952 67.5543 68.9919 67.3095 69.0129 67.029C69.0338 66.7486 69.2711 66.5388 69.5429 66.5604C69.8147 66.582 70.0181 66.8268 69.9971 67.1073Z" fill="white" style="fill:white;fill-opacity:1;"/>
<path d="M62.0511 67.0409C62.0301 67.3214 61.7928 67.5312 61.521 67.5096C61.2492 67.488 61.0459 67.2431 61.0668 66.9626C61.0878 66.6821 61.3251 66.4724 61.5968 66.494C61.8686 66.5156 62.072 66.7604 62.0511 67.0409Z" fill="white" style="fill:white;fill-opacity:1;"/>
<path d="M61.9697 65.5629C61.9472 65.8639 61.6925 66.089 61.4009 66.0658C61.1092 66.0426 60.891 65.7799 60.9135 65.4789C60.936 65.178 61.1906 64.9529 61.4823 64.9761C61.7739 64.9993 61.9922 65.262 61.9697 65.5629Z" fill="white" style="fill:white;fill-opacity:1;"/>
<path d="M63.5873 43.8193C63.5642 44.1289 63.3023 44.3605 63.0022 44.3367C62.7022 44.3128 62.4777 44.0425 62.5009 43.7329C62.524 43.4233 62.786 43.1917 63.086 43.2156C63.386 43.2394 63.6105 43.5097 63.5873 43.8193Z" fill="white" style="fill:white;fill-opacity:1;"/>
<path d="M74.5041 55.1696C74.4809 55.4793 74.2189 55.711 73.9188 55.6871C73.6187 55.6632 73.3941 55.3929 73.4172 55.0832C73.4404 54.7735 73.7024 54.5418 74.0026 54.5657C74.3027 54.5896 74.5272 54.8599 74.5041 55.1696Z" fill="white" style="fill:white;fill-opacity:1;"/>
<path d="M78.9301 55.0032C78.907 55.3128 78.645 55.5444 78.345 55.5205C78.0449 55.4966 77.8205 55.2264 77.8436 54.9167C77.8667 54.6072 78.1287 54.3755 78.4287 54.3994C78.7287 54.4233 78.9532 54.6936 78.9301 55.0032Z" fill="white" style="fill:white;fill-opacity:1;"/>
<path d="M79.8807 62.8298C79.8576 63.1394 79.5957 63.371 79.2956 63.3472C78.9956 63.3233 78.7712 63.053 78.7943 62.7434C78.8174 62.4339 79.0794 62.2022 79.3793 62.2261C79.6794 62.2499 79.9038 62.5203 79.8807 62.8298Z" fill="white" style="fill:white;fill-opacity:1;"/>
<path d="M80.7059 56.1911C80.6828 56.5008 80.4208 56.7325 80.1206 56.7086C79.8205 56.6848 79.596 56.4143 79.6191 56.1046C79.6423 55.795 79.9043 55.5633 80.2044 55.5872C80.5045 55.611 80.729 55.8815 80.7059 56.1911Z" fill="white" style="fill:white;fill-opacity:1;"/>
<path d="M70.9771 57.8359C70.9562 58.1164 70.7188 58.3261 70.447 58.3045C70.1752 58.2829 69.9719 58.0381 69.9928 57.7576C70.0138 57.4771 70.2511 57.2673 70.5229 57.2889C70.7947 57.3105 70.9981 57.5554 70.9771 57.8359Z" fill="white" style="fill:white;fill-opacity:1;"/>
<path d="M16.6264 92.8367C16.2605 93.0173 15.9378 93.1142 15.6584 93.1275C15.3826 93.1391 15.1436 93.0836 14.9413 92.961C14.7427 92.8366 14.5751 92.6591 14.4387 92.4284L13.3423 90.5744L12.9276 90.6723C12.8929 90.6137 12.8706 90.5603 12.8605 90.5119C12.852 90.4583 12.856 90.3985 12.8726 90.3325L14.2016 89.6767C14.2952 89.8351 14.3185 89.937 14.2713 89.9826L14.0242 90.2112L15.0595 91.962C15.2468 92.2788 15.4524 92.4775 15.6763 92.5583C15.9001 92.6391 16.1466 92.6131 16.4156 92.4804C16.7313 92.3246 16.9189 92.1364 16.9784 91.9158C17.0395 91.69 16.9753 91.417 16.786 91.0968L15.7781 89.3925L15.2735 89.5147C15.2389 89.4562 15.2165 89.4027 15.2065 89.3543C15.1943 89.3025 15.1948 89.2444 15.2078 89.1802L16.3216 88.6306C16.4152 88.789 16.4384 88.891 16.3912 88.9365L16.1364 89.1756L17.2329 91.0297C17.355 91.2363 17.4224 91.4521 17.435 91.6772C17.4456 91.8988 17.3884 92.1116 17.2634 92.3156C17.1364 92.5161 16.9241 92.6898 16.6264 92.8367Z" fill="white" style="fill:white;fill-opacity:1;"/>
<path d="M21.8104 90.6854C21.6979 90.7272 21.6009 90.7546 21.5194 90.7679L18.4221 88.9027L19.4 91.101L19.9501 91.0118C19.9778 91.0739 19.9947 91.1315 20.0008 91.1846C20.0053 91.234 19.9975 91.2902 19.9774 91.353L18.7399 91.8123C18.6651 91.6442 18.6536 91.5399 18.7055 91.4993L19.0128 91.2767L17.7886 88.5247L17.3108 88.5998C17.2832 88.5377 17.2671 88.4819 17.2626 88.4325C17.2565 88.3794 17.2635 88.3215 17.2836 88.2587L18.1892 87.9225L21.2841 89.7821L20.3135 87.6003L19.7577 87.6916C19.7301 87.6295 19.714 87.5737 19.7095 87.5243C19.7034 87.4712 19.7122 87.4126 19.7361 87.3483L20.9736 86.889C21.0484 87.0571 21.0598 87.1614 21.008 87.202L20.6982 87.4192L22.0297 90.4124C22.0476 90.4526 22.0416 90.4931 22.0118 90.534C21.984 90.5699 21.9501 90.6016 21.91 90.6293C21.8698 90.6569 21.8366 90.6757 21.8104 90.6854Z" fill="white" style="fill:white;fill-opacity:1;"/>
<path d="M22.9445 90.3257C22.8796 90.1578 22.8733 90.0529 22.9256 90.0109L23.1879 89.8256L22.1 87.0105L21.6771 87.0461C21.6525 86.9827 21.6393 86.9262 21.6372 86.8765C21.6337 86.8231 21.6454 86.7647 21.6723 86.7015L23.0828 86.2467C23.1491 86.4183 23.1554 86.5233 23.1017 86.5616L22.8258 86.7449L23.9181 89.5712L24.3502 89.5263C24.3748 89.5897 24.388 89.6463 24.3901 89.6959C24.396 89.7444 24.3862 89.8021 24.3607 89.8691L22.9445 90.3257Z" fill="white" style="fill:white;fill-opacity:1;"/>
<path d="M26.0012 89.4809C25.9574 89.3022 25.9645 89.1967 26.0225 89.1645L26.4305 88.9404L25.7342 86.0964L24.8736 86.1865L24.8381 86.6466C24.8388 86.6832 24.818 86.716 24.7757 86.745C24.7374 86.7733 24.6673 86.7978 24.5654 86.8186L24.3399 85.8978L27.6554 85.2204L27.8809 86.1412C27.779 86.162 27.7022 86.1675 27.6504 86.1577C27.6025 86.1471 27.5684 86.1255 27.5481 86.0929L27.3073 85.6893L26.4925 85.9414L27.1874 88.7796L27.8332 88.7701C27.8494 88.8361 27.8554 88.894 27.8511 88.9439C27.8468 88.9937 27.8298 89.0502 27.8 89.1134L26.0012 89.4809Z" fill="white" style="fill:white;fill-opacity:1;"/>
<path d="M28.754 88.88C28.7278 88.7019 28.7447 88.5971 28.8047 88.5656L29.1004 88.4325L28.6602 85.4468L28.2413 85.4016C28.2313 85.3343 28.2308 85.276 28.2397 85.2265C28.248 85.1731 28.2722 85.1178 28.3122 85.0605L31.0039 84.7294L31.137 85.6316C31.0337 85.6443 30.9588 85.6435 30.9122 85.629C30.8656 85.6146 30.8338 85.5903 30.8166 85.5562L30.6142 85.1701L29.4354 85.3997L29.6139 86.6107L30.4953 86.5022L30.5346 86.1106C30.5862 86.1043 30.6429 86.1054 30.7048 86.1139C30.7667 86.1224 30.8244 86.1435 30.8778 86.1772L31.017 87.121C30.9758 87.1704 30.9265 87.2066 30.8693 87.2298C30.8115 87.249 30.7568 87.2618 30.7052 87.2681L30.5462 86.8888L29.6708 86.9965L29.8554 88.249L31.2102 88.185L31.2697 87.519C31.3927 87.5039 31.5075 87.528 31.6138 87.5915L31.7495 88.5115L28.754 88.88Z" fill="white" style="fill:white;fill-opacity:1;"/>
<path d="M32.2476 88.4562C32.2367 88.2766 32.2625 88.1731 32.325 88.146L32.6309 88.0345L32.4493 85.0219L32.036 84.9466C32.0319 84.8787 32.0344 84.8205 32.0435 84.772C32.0564 84.7193 32.0812 84.666 32.1181 84.6121L34.0177 84.5166C34.3133 84.5017 34.574 84.5386 34.7997 84.6274C35.0252 84.7122 35.2149 84.8348 35.3688 84.9953C35.5265 85.1515 35.6457 85.3338 35.7264 85.542C35.811 85.75 35.8603 85.9698 35.8743 86.2013C35.8894 86.4529 35.8624 86.7025 35.7932 86.9503C35.728 87.1979 35.6215 87.4255 35.4737 87.6332C35.326 87.8409 35.1398 88.0104 34.9153 88.1419C34.6909 88.2733 34.4308 88.3464 34.1352 88.3613L32.2476 88.4562ZM34.0327 87.958C34.2844 87.9453 34.4879 87.865 34.6433 87.717C34.8024 87.5648 34.9151 87.3729 34.9813 87.1413C35.0512 86.9055 35.0779 86.6499 35.0613 86.3744C35.0451 86.1069 34.9863 85.8615 34.8847 85.6384C34.7871 85.415 34.6502 85.2377 34.4739 85.1064C34.3017 84.9748 34.0918 84.9153 33.8441 84.9278C33.7242 84.9338 33.6109 84.9475 33.504 84.9689C33.4011 84.9901 33.3084 85.0148 33.2259 85.043L33.3985 87.9058C33.492 87.9291 33.5932 87.946 33.7021 87.9566C33.8106 87.9631 33.9209 87.9636 34.0327 87.958Z" fill="white" style="fill:white;fill-opacity:1;"/>
<path d="M38.4499 88.2877C38.462 88.1081 38.5008 88.0081 38.5663 87.9877L38.8842 87.9094L39.0865 84.8982L38.6856 84.7796C38.6901 84.7117 38.702 84.6543 38.7212 84.6073C38.7407 84.5563 38.7761 84.5062 38.8275 84.457L41.5353 84.6088L41.4741 85.5187C41.3703 85.5129 41.2971 85.4988 41.2545 85.4764C41.2119 85.454 41.1858 85.4245 41.1762 85.3879L41.0594 84.9787L39.8557 84.9954L39.77 86.2705L40.6866 86.3219L40.8022 85.9438C40.8581 85.9469 40.9135 85.958 40.9683 85.9771C41.0271 85.9964 41.0812 86.0275 41.1304 86.0703L41.0665 87.0222C41.0116 87.0632 40.9537 87.09 40.8927 87.1026C40.836 87.1114 40.7797 87.1143 40.7237 87.1111L40.6544 86.7107L39.7439 86.6596L39.6586 87.9288L40.1434 88.0521C40.1388 88.1199 40.127 88.1773 40.1078 88.2243C40.0926 88.2716 40.0591 88.3218 40.0075 88.375L38.4499 88.2877Z" fill="white" style="fill:white;fill-opacity:1;"/>
<path d="M42.0064 88.484C42.0305 88.3056 42.0759 88.2081 42.1428 88.1915L42.4656 88.1313L42.8697 85.1405L42.4771 84.9996C42.4863 84.9322 42.502 84.8756 42.5243 84.8299C42.5472 84.7801 42.5859 84.7322 42.6406 84.686L45.3355 84.9898L45.2134 85.8936C45.1101 85.882 45.0379 85.8638 44.9968 85.839C44.9558 85.8143 44.9317 85.7834 44.9246 85.7464L44.8361 85.3259L43.6324 85.2747L43.4685 86.4877L44.351 86.5872L44.4978 86.2174C44.5494 86.2232 44.604 86.2374 44.6615 86.26C44.719 86.2826 44.7689 86.3164 44.8112 86.3614L44.6835 87.3068C44.6299 87.345 44.5722 87.3687 44.5105 87.3778C44.4492 87.383 44.3928 87.3827 44.3411 87.3769L44.2928 86.973L43.4163 86.8742L43.2468 88.1288L44.5747 88.3811L44.8173 87.7505C44.9405 87.7644 45.0447 87.8143 45.1299 87.9004L45.0054 88.822L42.0064 88.484Z" fill="white" style="fill:white;fill-opacity:1;"/>
<path d="M45.5934 88.8687C45.6252 88.6915 45.6749 88.5959 45.7425 88.5818L46.068 88.5336L46.602 85.5632L46.2155 85.4082C46.2276 85.3413 46.2438 85.2851 46.2641 85.2396C46.2891 85.1908 46.326 85.1438 46.3748 85.0985L48.2558 85.3807C48.5485 85.4246 48.7948 85.5121 48.9946 85.6432C49.1952 85.7703 49.3519 85.9272 49.4645 86.1139C49.5819 86.2973 49.6554 86.4983 49.6851 86.7171C49.7188 86.9364 49.7152 87.1603 49.6741 87.3886C49.6295 87.6366 49.5441 87.8745 49.4178 88.1022C49.2956 88.3304 49.1376 88.5311 48.944 88.7042C48.7504 88.8773 48.5282 89.0057 48.2776 89.0894C48.0269 89.1731 47.7552 89.193 47.4625 89.1491L45.5934 88.8687ZM47.4575 88.736C47.7067 88.7733 47.9248 88.7353 48.1118 88.6219C48.3034 88.505 48.4589 88.3404 48.5784 88.1278C48.7025 87.912 48.789 87.6682 48.8378 87.3966C48.8853 87.1328 48.8856 86.8822 48.839 86.6447C48.7962 86.4079 48.7042 86.2081 48.5628 86.0454C48.4254 85.8832 48.2341 85.7838 47.9888 85.747C47.8701 85.7292 47.756 85.7201 47.6463 85.7199C47.5407 85.7202 47.4442 85.7259 47.3569 85.7371L46.8494 88.5598C46.9354 88.601 47.0304 88.6375 47.1344 88.6693C47.239 88.6971 47.3468 88.7193 47.4575 88.736Z" fill="white" style="fill:white;fill-opacity:1;"/>
<path d="M50.0436 89.5839C50.0844 89.4086 50.1389 89.3153 50.2071 89.3041L50.5351 89.27L51.2182 86.3303L50.8394 86.1591C50.8548 86.0929 50.8758 86.0379 50.9023 85.9942C50.9298 85.9466 50.973 85.9021 51.0319 85.8605L53.6943 86.3767L53.4879 87.2651C53.3858 87.2453 53.3154 87.2214 53.2767 87.1936C53.2381 87.1657 53.2169 87.1331 53.2133 87.0958L53.1643 86.671L51.9672 86.5244L51.6902 87.7166L52.5619 87.8856L52.7431 87.5299C52.7941 87.5398 52.8473 87.5582 52.9026 87.5852C52.9579 87.6122 53.0045 87.6498 53.0426 87.6979L52.8267 88.6271C52.7696 88.6608 52.7098 88.6798 52.6473 88.684C52.5857 88.6842 52.5293 88.6794 52.4783 88.6695L52.4678 88.2644L51.6019 88.0965L51.3154 89.3296L52.6176 89.686L52.9188 89.0786C53.0405 89.1022 53.1399 89.1602 53.2169 89.2525L53.0064 90.1583L50.0436 89.5839Z" fill="white" style="fill:white;fill-opacity:1;"/>
<path d="M53.5381 90.2247C53.5905 90.0525 53.6513 89.9628 53.7203 89.9556L54.0565 89.9421L54.9358 87.055L54.5684 86.8627C54.608 86.7326 54.6769 86.6367 54.775 86.5751L56.4788 87.0081C56.851 87.1027 57.1113 87.2699 57.2596 87.5096C57.4119 87.7503 57.4443 88.0141 57.3569 88.3011C57.2904 88.5192 57.1692 88.7048 56.993 88.858C56.8169 89.0111 56.6084 89.1127 56.3676 89.1628C56.4554 89.5603 56.5645 89.922 56.695 90.2478C56.8266 90.5699 56.9655 90.8133 57.1116 90.9783C57.0115 91.0188 56.9072 91.0459 56.7986 91.0595C56.6939 91.0741 56.5989 91.0706 56.5137 91.0489C56.378 91.0144 56.2516 90.9287 56.1346 90.7918C56.0188 90.6511 55.9221 90.4472 55.8447 90.1801C55.7674 89.9131 55.7158 89.5681 55.6901 89.1452C55.6746 89.1413 55.6591 89.1373 55.6436 89.1334C55.566 89.1137 55.4858 89.0892 55.4028 89.0598C55.321 89.0267 55.2423 88.9902 55.1667 88.9504L54.8101 90.1213L55.2101 90.3095C55.188 90.3822 55.1622 90.4396 55.1327 90.4815C55.1032 90.5235 55.0601 90.562 55.0035 90.5971L53.5381 90.2247ZM56.0733 87.3318C56.0112 87.316 55.9461 87.3036 55.8779 87.2945C55.8135 87.2864 55.746 87.2816 55.6755 87.2801L55.2891 88.5486C55.4 88.6098 55.5213 88.6571 55.6531 88.6906C55.878 88.7477 56.067 88.7236 56.2202 88.6183C56.3773 88.5139 56.4867 88.3603 56.5485 88.1575C56.6138 87.9432 56.6052 87.7658 56.5227 87.6253C56.4402 87.4848 56.2904 87.3869 56.0733 87.3318Z" fill="white" style="fill:white;fill-opacity:1;"/>
<path d="M57.6762 91.2869C57.7299 91.1151 57.7913 91.0259 57.8604 91.0191L58.1503 90.9957L60.3395 88.0923C60.3669 88.0581 60.4093 88.0362 60.4668 88.0264C60.5243 88.0166 60.5833 88.0155 60.6437 88.023C60.7053 88.0267 60.7555 88.0336 60.7942 88.0437C60.8755 88.0649 60.9577 88.0967 61.0407 88.139L61.3063 91.807L61.6644 91.9872C61.6441 92.0521 61.619 92.1054 61.5892 92.1472C61.5594 92.1889 61.511 92.23 61.444 92.2703L59.9984 91.893C60.0521 91.7212 60.1135 91.6319 60.1826 91.6252L60.5266 91.6097L60.4647 90.7635L59.1062 90.409L58.6099 91.0723L59.0751 91.3114C59.0548 91.3763 59.0298 91.4296 59 91.4714C58.9702 91.5132 58.9217 91.5542 58.8547 91.5945L57.6762 91.2869ZM59.3544 90.0774L60.4342 90.3592L60.3193 88.7993L59.3544 90.0774Z" fill="white" style="fill:white;fill-opacity:1;"/>
<path d="M63.0719 92.6952C63.1268 92.5196 63.1882 92.4303 63.2561 92.4274L63.7327 92.4093L64.6068 89.6149L63.8017 89.318L63.5298 89.7054C63.5113 89.7377 63.4759 89.7574 63.4235 89.7644C63.3749 89.7723 63.3003 89.7632 63.1997 89.7369L63.4827 88.8322L66.757 89.6867L66.474 90.5915C66.3734 90.5652 66.3028 90.5365 66.2624 90.5053C66.2258 90.4751 66.207 90.4413 66.2062 90.4039L66.2052 89.9453L65.3557 89.8103L64.4834 92.5991L65.0572 92.8727C65.0369 92.9376 65.0119 92.9909 64.982 93.0327C64.9522 93.0745 64.9077 93.1165 64.8484 93.1589L63.0719 92.6952Z" fill="white" style="fill:white;fill-opacity:1;"/>
<path d="M65.9729 93.4522C66.0266 93.2804 66.088 93.1912 66.1571 93.1844L66.4877 93.1716L67.3886 90.2912L67.0225 90.0965C67.0428 90.0316 67.0678 89.9783 67.0976 89.9365C67.1286 89.8909 67.1751 89.8494 67.2371 89.8119L68.6711 90.1861C68.6161 90.3618 68.5547 90.451 68.4868 90.4539L68.1465 90.458L67.2419 93.3499L67.6215 93.5418C67.6012 93.6067 67.5761 93.6601 67.5463 93.7018C67.5204 93.7446 67.4758 93.7867 67.4127 93.828L65.9729 93.4522Z" fill="white" style="fill:white;fill-opacity:1;"/>
<path d="M70.2934 94.6542C69.9451 94.5633 69.6632 94.4071 69.4478 94.1858C69.2362 93.9654 69.0981 93.7043 69.0334 93.4025C68.9738 93.0979 68.9977 92.7738 69.1052 92.4302C69.1972 92.1362 69.3323 91.8783 69.5105 91.6564C69.6887 91.4346 69.8955 91.2552 70.1309 91.1184C70.3713 90.9789 70.6276 90.8888 70.8998 90.8484C71.1759 90.809 71.4513 90.8251 71.7261 90.8968C72.0706 90.9867 72.3486 91.1419 72.5601 91.3622C72.7756 91.5836 72.9131 91.8466 72.9727 92.1512C73.0374 92.453 73.016 92.7757 72.9085 93.1193C72.819 93.4056 72.6851 93.6597 72.5068 93.8816C72.3324 94.1045 72.127 94.2863 71.8904 94.4269C71.6539 94.5675 71.3989 94.6599 71.1255 94.7042C70.8533 94.7446 70.5759 94.728 70.2934 94.6542ZM70.5809 94.2771C70.786 94.3306 70.9826 94.3179 71.1705 94.239C71.3585 94.16 71.5285 94.0248 71.6805 93.8332C71.8325 93.6416 71.9527 93.4046 72.0411 93.1221C72.1915 92.6411 72.2117 92.2355 72.1014 91.9053C71.9924 91.5713 71.7695 91.3603 71.4328 91.2724C71.2354 91.2209 71.0408 91.2341 70.849 91.3121C70.6622 91.3872 70.4909 91.52 70.335 91.7106C70.1842 91.8983 70.0634 92.1373 69.9726 92.4274C69.8222 92.9084 69.7995 93.3154 69.9047 93.6485C70.0149 93.9787 70.2403 94.1882 70.5809 94.2771Z" fill="white" style="fill:white;fill-opacity:1;"/>
<path d="M76.247 96.146C76.1309 96.1157 76.0365 96.0828 75.9638 96.0474L74.8005 92.8202L74.0823 95.1165L74.5726 95.356C74.5523 95.4209 74.5266 95.4761 74.4956 95.5217C74.4658 95.5635 74.4218 95.6036 74.3637 95.6421L73.0865 95.3088C73.1415 95.1332 73.2029 95.0439 73.2708 95.041L73.6612 95.0376L74.5603 92.1629L74.1361 91.9531C74.1564 91.8882 74.1815 91.8349 74.2113 91.7931C74.2423 91.7475 74.2868 91.7055 74.3449 91.6669L75.2796 91.9109L76.4447 95.1323L77.1576 92.8532L76.6615 92.6122C76.6818 92.5473 76.7069 92.494 76.7367 92.4522C76.7677 92.4066 76.8142 92.3651 76.8762 92.3276L78.1534 92.6609C78.0984 92.8365 78.037 92.9258 77.9691 92.9287L77.5805 92.9264L76.6026 96.053C76.5894 96.095 76.5574 96.1238 76.5065 96.1394C76.4606 96.1522 76.4127 96.1583 76.3626 96.1576C76.3126 96.157 76.2741 96.1531 76.247 96.146Z" fill="white" style="fill:white;fill-opacity:1;"/>
<path d="M80.501 97.32C80.1003 97.2243 79.8184 97.04 79.6555 96.7669C79.4936 96.49 79.4671 96.1612 79.576 95.7804C79.6596 95.4881 79.7975 95.2458 79.9897 95.0534C80.1869 94.8581 80.4165 94.7239 80.6784 94.6508C80.9454 94.5748 81.2286 94.5726 81.5282 94.6441C81.9251 94.7388 82.2078 94.9275 82.3763 95.2101C82.5488 95.4936 82.5805 95.8258 82.4716 96.2065C82.3891 96.495 82.2498 96.7349 82.0538 96.9264C81.8616 97.1188 81.6306 97.2506 81.3608 97.3218C81.0911 97.393 80.8045 97.3924 80.501 97.32ZM80.7128 97.0809C80.9151 97.1292 81.0971 97.074 81.2589 96.9154C81.4256 96.7539 81.5579 96.502 81.6558 96.1597C81.757 95.8059 81.7793 95.5175 81.7225 95.2944C81.6697 95.0723 81.5421 94.9371 81.3398 94.8888C81.1375 94.8405 80.9549 94.8976 80.7921 95.06C80.6303 95.2186 80.4994 95.4729 80.3993 95.8229C80.2981 96.1767 80.2725 96.4622 80.3226 96.6796C80.3765 96.8979 80.5066 97.0316 80.7128 97.0809Z" fill="white" style="fill:white;fill-opacity:1;"/>
<path d="M82.8791 97.7908C82.9301 97.6223 82.9907 97.5325 83.0608 97.5214L83.3597 97.4857L83.904 95.6883L83.4986 95.5796C83.5206 95.5069 83.5492 95.4399 83.5844 95.3788C83.6247 95.3148 83.6658 95.2757 83.7076 95.2615L84.0252 95.3294C84.1536 95.0157 84.3253 94.7521 84.5403 94.5385C84.7553 94.3249 84.987 94.1733 85.2354 94.0836C85.4889 93.991 85.73 93.9737 85.9588 94.0315C86.0984 94.0668 86.1958 94.1243 86.2509 94.2042C86.3072 94.2802 86.3203 94.368 86.2902 94.4676C86.2647 94.5518 86.219 94.6268 86.1531 94.6926L85.8274 94.6103C85.5598 94.5426 85.3452 94.5688 85.1837 94.6887C85.0271 94.8058 84.8927 95.05 84.7802 95.4213L84.7628 95.4787L85.5254 95.6282C85.532 95.6752 85.5278 95.7236 85.5127 95.7733C85.4861 95.8614 85.448 95.9321 85.3984 95.9855C85.3527 96.0399 85.3023 96.0684 85.2473 96.071L84.6359 95.8979L84.1072 97.6436L84.4988 97.86C84.4605 97.9864 84.3938 98.0828 84.2985 98.1494L82.8791 97.7908Z" fill="white" style="fill:white;fill-opacity:1;"/>
<path d="M87.6178 98.8036C87.6514 98.6268 87.702 98.5316 87.7696 98.518L88.1016 98.4733L88.6634 95.5081L88.2783 95.35C88.3036 95.2164 88.3617 95.1143 88.4524 95.0436L90.1888 95.3181C90.576 95.3794 90.8569 95.529 91.0315 95.7671C91.2101 96.0058 91.27 96.2804 91.2111 96.5909C91.168 96.8188 91.0685 97.0217 90.9127 97.1995C90.7617 97.3739 90.5683 97.5032 90.3326 97.5874C90.1016 97.6683 89.8458 97.6865 89.5653 97.6422C89.3994 97.616 89.2352 97.5698 89.0728 97.5036L88.8706 98.5706L89.3209 98.739C89.3067 98.8136 89.2873 98.8733 89.2626 98.918C89.2418 98.9632 89.2032 99.0057 89.1469 99.0454L87.6178 98.8036ZM89.8213 95.679C89.7581 95.669 89.6922 95.6626 89.6235 95.6599C89.5588 95.6577 89.4914 95.6592 89.4212 95.6643L89.1509 97.0909C89.2635 97.1411 89.3889 97.1771 89.5272 97.199C89.7643 97.2365 89.9562 97.1899 90.103 97.0593C90.2499 96.9287 90.3449 96.7494 90.3881 96.5215C90.4335 96.2818 90.4065 96.0913 90.3071 95.9501C90.2124 95.8056 90.0505 95.7152 89.8213 95.679Z" fill="white" style="fill:white;fill-opacity:1;"/>
<path d="M91.3584 99.3647C91.384 99.1865 91.4303 99.0893 91.4972 99.0732L91.8207 99.0153L92.2501 96.0281L91.8587 95.8844C91.8684 95.8171 91.8846 95.7607 91.9073 95.7151C91.9306 95.6655 91.9697 95.6178 92.0248 95.5721L93.5379 95.7536C93.5118 95.9357 93.4655 96.0329 93.3991 96.0451L93.0212 96.1024L92.602 99.0184L93.8751 99.2678L94.1043 98.6429C94.2354 98.6586 94.3432 98.7098 94.4277 98.7964L94.2953 99.717L91.3584 99.3647Z" fill="white" style="fill:white;fill-opacity:1;"/>
<path d="M94.8704 99.8084C94.8829 99.6289 94.922 99.529 94.9875 99.5087L95.2637 99.4286L96.7193 96.1417C96.7381 96.1027 96.7743 96.0728 96.8278 96.0518C96.8814 96.0309 96.9384 96.0182 96.9989 96.0137C97.0596 96.0052 97.11 96.0021 97.1499 96.0044C97.2337 96.0093 97.3209 96.0244 97.4114 96.0497L98.5171 99.6055L98.9066 99.7123C98.9019 99.7801 98.8898 99.8375 98.8705 99.8845C98.8512 99.9314 98.8137 99.9813 98.7579 100.034L97.2664 99.9476C97.2789 99.768 97.3179 99.6681 97.3835 99.6479L97.714 99.5649L97.4584 98.7448L96.0567 98.6634L95.7279 99.4135L96.2351 99.5571C96.2304 99.625 96.2183 99.6824 96.199 99.7293C96.1797 99.7763 96.1422 99.8262 96.0864 99.879L94.8704 99.8084ZM96.2211 98.2883L97.3353 98.353L96.8631 96.8412L96.2211 98.2883Z" fill="white" style="fill:white;fill-opacity:1;"/>
<path d="M103.267 100.034C103.147 100.037 103.047 100.032 102.967 100.018L100.802 97.2423L100.878 99.6471L101.421 99.7408C101.423 99.8088 101.417 99.8689 101.403 99.9213C101.388 99.9697 101.36 100.021 101.318 100.074L99.9982 100.108C99.9923 99.9246 100.021 99.8218 100.084 99.8001L100.453 99.6883L100.358 96.6778L99.887 96.5942C99.8849 96.5263 99.891 96.4681 99.9055 96.4197C99.9199 96.3673 99.9482 96.3145 99.9906 96.2614L100.956 96.2359L103.121 99.0057L103.045 96.6189L102.496 96.5254C102.494 96.4574 102.5 96.3992 102.515 96.3508C102.529 96.2984 102.559 96.2456 102.606 96.1924L103.925 96.1576C103.931 96.3415 103.902 96.4443 103.839 96.4659L103.47 96.5717L103.574 99.8461C103.575 99.89 103.554 99.9266 103.511 99.9557C103.472 99.9808 103.428 99.9999 103.381 100.013C103.333 100.026 103.295 100.033 103.267 100.034Z" fill="white" style="fill:white;fill-opacity:1;"/>
<path d="M104.78 99.9679C104.76 99.789 104.781 99.6847 104.842 99.655L105.142 99.5312L104.814 96.5311L104.397 96.4728C104.389 96.4052 104.391 96.3468 104.402 96.2976C104.412 96.2445 104.438 96.1899 104.48 96.1338L107.181 95.887L107.28 96.7936C107.177 96.8031 107.102 96.7999 107.056 96.784C107.01 96.7681 106.979 96.7428 106.963 96.7081L106.775 96.3157L105.59 96.5084L105.723 97.7251L106.607 97.6443L106.661 97.2538C106.713 97.2491 106.769 97.2519 106.831 97.2624C106.892 97.2728 106.949 97.2958 107.001 97.3311L107.105 98.2795C107.062 98.3276 107.012 98.3623 106.954 98.3837C106.895 98.4011 106.84 98.4121 106.788 98.4169L106.644 98.0325L105.765 98.1128L105.903 99.3712L107.259 99.3498L107.343 98.6855C107.466 98.6742 107.58 98.7019 107.684 98.7688L107.785 99.6932L104.78 99.9679Z" fill="white" style="fill:white;fill-opacity:1;"/>
<path d="M109.275 99.4114C109.24 99.2308 109.252 99.1255 109.311 99.0957L109.729 98.8884L109.172 96.0139L108.309 96.0684L108.251 96.5272C108.25 96.5639 108.228 96.5958 108.185 96.6231C108.145 96.6498 108.074 96.6714 107.971 96.688L107.791 95.7573L111.131 95.2171L111.312 96.1478C111.209 96.1644 111.132 96.1667 111.081 96.1547C111.034 96.1421 111.001 96.1191 110.982 96.0857L110.761 95.6718L109.936 95.8903L110.492 98.7589L111.137 98.7762C111.15 98.8429 111.153 98.9011 111.146 98.9508C111.14 99.0005 111.12 99.0563 111.087 99.1183L109.275 99.4114Z" fill="white" style="fill:white;fill-opacity:1;"/>
<path d="M113.826 98.5362C113.691 98.5728 113.54 98.5991 113.373 98.6153C113.206 98.6315 113.039 98.6395 112.871 98.6395C112.702 98.6356 112.547 98.6194 112.408 98.5909L112.268 97.654C112.283 97.6211 112.307 97.5938 112.342 97.5719C112.381 97.549 112.422 97.5318 112.464 97.5203C112.522 97.5046 112.568 97.4983 112.603 97.5014L112.858 98.1338C112.989 98.1731 113.128 98.1954 113.277 98.2007C113.424 98.2022 113.562 98.1857 113.689 98.1512C113.878 98.1001 114.017 98.0088 114.104 97.8775C114.192 97.7462 114.21 97.6026 114.16 97.4465C114.129 97.3514 114.081 97.2754 114.017 97.2183C113.951 97.1575 113.848 97.1066 113.709 97.0657C113.57 97.0247 113.375 96.9864 113.124 96.9508C112.845 96.9063 112.614 96.8487 112.431 96.778C112.251 96.7025 112.107 96.607 111.998 96.4916C111.892 96.3713 111.81 96.2217 111.752 96.0429C111.653 95.7385 111.681 95.4682 111.836 95.2319C111.993 94.9907 112.251 94.8216 112.61 94.7245C112.791 94.6754 112.991 94.6485 113.207 94.6436C113.423 94.635 113.625 94.6506 113.815 94.6904L113.99 95.5618C113.901 95.5858 113.825 95.5962 113.761 95.5928C113.7 95.5884 113.663 95.5696 113.648 95.5364L113.44 95.1084C113.228 95.0375 112.998 95.0354 112.751 95.1022C112.57 95.1513 112.439 95.2342 112.359 95.351C112.282 95.4629 112.267 95.5911 112.314 95.7357C112.342 95.8233 112.389 95.8955 112.454 95.9525C112.518 96.0095 112.62 96.0566 112.758 96.0938C112.896 96.1309 113.084 96.1689 113.324 96.2076C113.633 96.2563 113.884 96.3168 114.075 96.3892C114.266 96.4578 114.415 96.5498 114.524 96.6652C114.633 96.7806 114.716 96.9258 114.772 97.1009C114.88 97.4319 114.85 97.7277 114.682 97.9882C114.513 98.245 114.228 98.4276 113.826 98.5362Z" fill="white" style="fill:white;fill-opacity:1;"/>
<defs>
<linearGradient id="paint0_linear_96_296" x1="5.3703" y1="22.909" x2="122.37" y2="105.41" gradientUnits="userSpaceOnUse">
<stop stop-color="white" stop-opacity="0" style="stop-color:none;stop-opacity:0;"/>
<stop offset="0.1646" stop-color="#C8C8C8" stop-opacity="0.1646" style="stop-color:#C8C8C8;stop-color:color(display-p3 0.7843 0.7843 0.7843);stop-opacity:0.1646;"/>
<stop offset="0.3934" stop-color="#828282" stop-opacity="0.3934" style="stop-color:#828282;stop-color:color(display-p3 0.5098 0.5098 0.5098);stop-opacity:0.3934;"/>
<stop offset="0.5997" stop-color="#4A4A4A" stop-opacity="0.5997" style="stop-color:#4A4A4A;stop-color:color(display-p3 0.2902 0.2902 0.2902);stop-opacity:0.5997;"/>
<stop offset="0.7759" stop-color="#222222" stop-opacity="0.7759" style="stop-color:#222222;stop-color:color(display-p3 0.1333 0.1333 0.1333);stop-opacity:0.7759;"/>
<stop offset="0.9151" stop-color="#090909" stop-opacity="0.9151" style="stop-color:#090909;stop-color:color(display-p3 0.0353 0.0353 0.0353);stop-opacity:0.9151;"/>
<stop offset="1" style="stop-color:black;stop-opacity:1;"/>
</linearGradient>
</defs>
</svg>
