<svg width="128" height="128" viewBox="0 0 128 128" fill="none" xmlns="http://www.w3.org/2000/svg">
<path d="M63.6 118.8C35.7 118.8 5.59998 101.3 5.59998 62.9C5.59998 24.5 35.7 7 63.6 7C79.1 7 93.4 12.1 104 21.4C115.5 31.6 121.6 46 121.6 62.9C121.6 79.8 115.5 94.1 104 104.3C93.4 113.6 79 118.8 63.6 118.8Z" fill="url(#paint0_radial_169_8060)" style=""/>
<path d="M63.6 118.8C35.7 118.8 5.59998 101.3 5.59998 62.9C5.59998 24.5 35.7 7 63.6 7C79.1 7 93.4 12.1 104 21.4C115.5 31.6 121.6 46 121.6 62.9C121.6 79.8 115.5 94.1 104 104.3C93.4 113.6 79 118.8 63.6 118.8Z" fill="url(#paint1_radial_169_8060)" style=""/>
<path d="M63.6 118.8C35.7 118.8 5.59998 101.3 5.59998 62.9C5.59998 24.5 35.7 7 63.6 7C79.1 7 93.4 12.1 104 21.4C115.5 31.6 121.6 46 121.6 62.9C121.6 79.8 115.5 94.1 104 104.3C93.4 113.6 79 118.8 63.6 118.8Z" fill="url(#paint2_radial_169_8060)" style=""/>
<path d="M49.52 41C49.18 40.81 48.85 40.62 48.52 40.46C40.17 36.31 30.04 39.71 25.89 48.06C21.74 56.41 25.14 66.54 33.49 70.69C41.84 74.84 51.97 71.44 56.12 63.09C60.07 55.14 57.19 45.48 49.52 41Z" fill="white" style="fill:white;fill-opacity:1;"/>
<path d="M94.1599 40.9999C93.8199 40.8099 93.4799 40.6199 93.1599 40.4599C84.8399 36.3199 74.7499 39.7199 70.6099 48.0299C66.4699 56.3499 69.8699 66.4399 78.1799 70.5799C86.4999 74.7199 96.5899 71.3199 100.73 63.0099C104.67 55.0899 101.8 45.4699 94.1599 40.9999Z" fill="white" style="fill:white;fill-opacity:1;"/>
<path d="M69.71 55.84C70.32 59.97 72.35 63.76 75.45 66.56C76.92 67.85 78.62 68.87 80.45 69.56C82.27 70.25 84.2 70.59 86.14 70.56C90.09 70.56 93.91 69.11 96.86 66.49C99.96 63.69 101.99 59.9 102.6 55.77H102.8C102.8 64.97 95.34 72.43 86.14 72.43C76.94 72.43 69.48 64.97 69.48 55.77C69.48 55.77 69.48 55.77 69.48 55.76L69.71 55.84Z" fill="#F4A223" style="fill:#F4A223;fill:color(display-p3 0.9569 0.6353 0.1373);fill-opacity:1;"/>
<path d="M69.71 55.84C70.32 59.97 72.35 63.76 75.45 66.56C76.92 67.85 78.62 68.87 80.45 69.56C82.27 70.25 84.2 70.59 86.14 70.56C90.09 70.56 93.91 69.11 96.86 66.49C99.96 63.69 101.99 59.9 102.6 55.77H102.8C102.8 64.97 95.34 72.43 86.14 72.43C76.94 72.43 69.48 64.97 69.48 55.77C69.48 55.77 69.48 55.77 69.48 55.76L69.71 55.84Z" fill="#F3B872" style="fill:#F3B872;fill:color(display-p3 0.9542 0.7229 0.4453);fill-opacity:1;"/>
<path d="M69.71 55.84C70.32 59.97 72.35 63.76 75.45 66.56C76.92 67.85 78.62 68.87 80.45 69.56C82.27 70.25 84.2 70.59 86.14 70.56C90.09 70.56 93.91 69.11 96.86 66.49C99.96 63.69 101.99 59.9 102.6 55.77H102.8C102.8 64.97 95.34 72.43 86.14 72.43C76.94 72.43 69.48 64.97 69.48 55.77C69.48 55.77 69.48 55.77 69.48 55.76L69.71 55.84Z" fill="#BA8F63" style="fill:#BA8F63;fill:color(display-p3 0.7294 0.5608 0.3882);fill-opacity:1;"/>
<path d="M25.13 55.84C25.74 59.97 27.77 63.76 30.87 66.56C32.34 67.85 34.04 68.87 35.87 69.56C37.69 70.25 39.62 70.59 41.56 70.56C45.51 70.56 49.32 69.11 52.28 66.49C55.38 63.69 57.41 59.9 58.02 55.77H58.22C58.22 64.97 50.76 72.43 41.56 72.43C32.36 72.43 24.9 64.98 24.9 55.78C24.9 55.78 24.9 55.78 24.9 55.77L25.13 55.84Z" fill="#F4A223" style="fill:#F4A223;fill:color(display-p3 0.9569 0.6353 0.1373);fill-opacity:1;"/>
<path d="M25.13 55.84C25.74 59.97 27.77 63.76 30.87 66.56C32.34 67.85 34.04 68.87 35.87 69.56C37.69 70.25 39.62 70.59 41.56 70.56C45.51 70.56 49.32 69.11 52.28 66.49C55.38 63.69 57.41 59.9 58.02 55.77H58.22C58.22 64.97 50.76 72.43 41.56 72.43C32.36 72.43 24.9 64.98 24.9 55.78C24.9 55.78 24.9 55.78 24.9 55.77L25.13 55.84Z" fill="#F3B872" style="fill:#F3B872;fill:color(display-p3 0.9542 0.7229 0.4453);fill-opacity:1;"/>
<path d="M25.13 55.84C25.74 59.97 27.77 63.76 30.87 66.56C32.34 67.85 34.04 68.87 35.87 69.56C37.69 70.25 39.62 70.59 41.56 70.56C45.51 70.56 49.32 69.11 52.28 66.49C55.38 63.69 57.41 59.9 58.02 55.77H58.22C58.22 64.97 50.76 72.43 41.56 72.43C32.36 72.43 24.9 64.98 24.9 55.78C24.9 55.78 24.9 55.78 24.9 55.77L25.13 55.84Z" fill="#BA8F63" style="fill:#BA8F63;fill:color(display-p3 0.7294 0.5608 0.3882);fill-opacity:1;"/>
<path d="M111.49 29.6699C116.82 38.2699 119.6 48.5099 119.6 59.8999C119.6 76.7999 113.5 91.0999 102 101.3C91.3999 110.6 76.9999 115.8 61.5999 115.8C43.5399 115.8 24.5999 108.45 13.4199 92.8599C24.1799 110.52 44.4199 118.8 63.5999 118.8C78.9999 118.8 93.3999 113.6 104 104.3C115.5 94.0999 121.6 79.7999 121.6 62.8999C121.6 50.1599 118.13 38.8399 111.49 29.6699Z" fill="#EB8F00" style="fill:#EB8F00;fill:color(display-p3 0.9216 0.5608 0.0000);fill-opacity:1;"/>
<path d="M111.49 29.6699C116.82 38.2699 119.6 48.5099 119.6 59.8999C119.6 76.7999 113.5 91.0999 102 101.3C91.3999 110.6 76.9999 115.8 61.5999 115.8C43.5399 115.8 24.5999 108.45 13.4199 92.8599C24.1799 110.52 44.4199 118.8 63.5999 118.8C78.9999 118.8 93.3999 113.6 104 104.3C115.5 94.0999 121.6 79.7999 121.6 62.8999C121.6 50.1599 118.13 38.8399 111.49 29.6699Z" fill="#F3B872" style="fill:#F3B872;fill:color(display-p3 0.9542 0.7229 0.4453);fill-opacity:1;"/>
<path d="M111.49 29.6699C116.82 38.2699 119.6 48.5099 119.6 59.8999C119.6 76.7999 113.5 91.0999 102 101.3C91.3999 110.6 76.9999 115.8 61.5999 115.8C43.5399 115.8 24.5999 108.45 13.4199 92.8599C24.1799 110.52 44.4199 118.8 63.5999 118.8C78.9999 118.8 93.3999 113.6 104 104.3C115.5 94.0999 121.6 79.7999 121.6 62.8999C121.6 50.1599 118.13 38.8399 111.49 29.6699Z" fill="#BA8F63" style="fill:#BA8F63;fill:color(display-p3 0.7294 0.5608 0.3882);fill-opacity:1;"/>
<path d="M75 98H53C50.79 98 49 96.21 49 94C49 91.79 50.79 90 53 90H75C77.21 90 79 91.79 79 94C79 96.21 77.21 98 75 98Z" fill="#5D4037" style="fill:#5D4037;fill:color(display-p3 0.3647 0.2510 0.2157);fill-opacity:1;"/>
<path fill-rule="evenodd" clip-rule="evenodd" d="M49.0599 43.52C49.0599 47.5572 45.7871 50.83 41.7499 50.83C37.7127 50.83 34.4399 47.5572 34.4399 43.52C34.4399 42.2128 34.783 40.9858 35.3841 39.924C39.5099 38.5029 44.1815 38.6729 48.399 40.7691C48.4513 40.7944 48.5036 40.8205 48.5559 40.8473C48.8813 41.6751 49.0599 42.5767 49.0599 43.52ZM93.6899 43.52C93.6899 47.5572 90.4171 50.83 86.3799 50.83C82.3427 50.83 79.0699 47.5572 79.0699 43.52C79.0699 42.2249 79.4067 41.0086 79.9974 39.9536C84.1263 38.5086 88.8112 38.6654 93.039 40.7691C93.087 40.7931 93.1354 40.8178 93.1843 40.843C93.5107 41.672 93.6899 42.5751 93.6899 43.52Z" fill="#5D4037" style="fill:#5D4037;fill:color(display-p3 0.3647 0.2510 0.2157);fill-opacity:1;"/>
<defs>
<radialGradient id="paint0_radial_169_8060" cx="0" cy="0" r="1" gradientUnits="userSpaceOnUse" gradientTransform="translate(63.6 62.9) scale(56.9597 56.9597)">
<stop offset="0.5" stop-color="#FDE030" style="stop-color:#FDE030;stop-color:color(display-p3 0.9922 0.8784 0.1882);stop-opacity:1;"/>
<stop offset="0.92" stop-color="#F7C02B" style="stop-color:#F7C02B;stop-color:color(display-p3 0.9686 0.7529 0.1686);stop-opacity:1;"/>
<stop offset="1" stop-color="#F4A223" style="stop-color:#F4A223;stop-color:color(display-p3 0.9569 0.6353 0.1373);stop-opacity:1;"/>
</radialGradient>
<radialGradient id="paint1_radial_169_8060" cx="0" cy="0" r="1" gradientUnits="userSpaceOnUse" gradientTransform="translate(38.599 34.5377) rotate(-43.2082) scale(102.024 101.825)">
<stop offset="0.3533" stop-color="#F9DDBD" style="stop-color:#F9DDBD;stop-color:color(display-p3 0.9765 0.8667 0.7412);stop-opacity:1;"/>
<stop offset="0.8723" stop-color="#FFD29C" style="stop-color:#FFD29C;stop-color:color(display-p3 1.0000 0.8235 0.6118);stop-opacity:1;"/>
</radialGradient>
<radialGradient id="paint2_radial_169_8060" cx="0" cy="0" r="1" gradientUnits="userSpaceOnUse" gradientTransform="translate(38.599 34.5377) rotate(-43.2082) scale(102.024 101.825)">
<stop offset="0.3533" stop-color="#E0BB95" style="stop-color:#E0BB95;stop-color:color(display-p3 0.8784 0.7333 0.5843);stop-opacity:1;"/>
<stop offset="0.8723" stop-color="#CCA47A" style="stop-color:#CCA47A;stop-color:color(display-p3 0.8000 0.6431 0.4784);stop-opacity:1;"/>
</radialGradient>
</defs>
</svg>
