<svg width="128" height="129" viewBox="0 0 128 129" fill="none" xmlns="http://www.w3.org/2000/svg">
<path d="M71.4899 79.82H65.0699H58.6499C58.6499 100.18 54.4399 108.34 54.4399 108.34H75.6999C75.6999 108.33 71.4899 100.17 71.4899 79.82Z" fill="#B7D5E5" style="fill:#B7D5E5;fill:color(display-p3 0.7176 0.8353 0.8980);fill-opacity:1;"/>
<path d="M39.3101 109.41C39.2401 108.27 39.4101 106.77 39.4101 106.77C39.4101 106.77 84.6501 104.89 88.2401 106.68C88.2401 106.68 88.7201 108.34 88.3901 109.42C87.6001 111.95 77.4001 114.22 63.8401 114.22C50.2801 114.22 39.4701 112.06 39.3101 109.41Z" fill="#2F7889" style="fill:#2F7889;fill:color(display-p3 0.1843 0.4706 0.5373);fill-opacity:1;"/>
<path d="M63.9001 112C77.4587 112 88.4501 109.851 88.4501 107.2C88.4501 104.549 77.4587 102.4 63.9001 102.4C50.3415 102.4 39.3501 104.549 39.3501 107.2C39.3501 109.851 50.3415 112 63.9001 112Z" fill="#B7D5E5" style="fill:#B7D5E5;fill:color(display-p3 0.7176 0.8353 0.8980);fill-opacity:1;"/>
<path d="M71.4901 79.82H65.0701H58.6501C58.6501 86.46 58.2001 91.8 57.6001 95.98L72.9101 98.28C72.1301 93.81 71.4901 87.74 71.4901 79.82Z" fill="#69A1BA" style="fill:#69A1BA;fill:color(display-p3 0.4118 0.6314 0.7294);fill-opacity:1;"/>
<path d="M55.3901 102.7C55.3901 102.7 51.6701 104.22 52.5101 105.33C53.8101 107.07 57.4401 108.16 66.2201 108.75C72.3901 109.16 69.9701 110.88 64.1701 111.23C60.1001 111.47 40.5901 111.63 39.4301 107.56C38.4901 104.25 52.6101 102.7 55.3901 102.7Z" fill="#EEEEEE" style="fill:#EEEEEE;fill:color(display-p3 0.9333 0.9333 0.9333);fill-opacity:1;"/>
<path d="M113.36 90.9H14.44C12.54 90.9 11 89.36 11 87.46V20.46C11 18.56 12.54 17.02 14.44 17.02H113.35C115.25 17.02 116.79 18.56 116.79 20.46V87.46C116.8 89.36 115.26 90.9 113.36 90.9Z" fill="#69A1BA" style="fill:#69A1BA;fill:color(display-p3 0.4118 0.6314 0.7294);fill-opacity:1;"/>
<path d="M113.36 89.13H14.44C12.54 89.13 11 87.59 11 85.69V18.69C11 16.79 12.54 15.25 14.44 15.25H113.35C115.25 15.25 116.79 16.79 116.79 18.69V85.69C116.8 87.58 115.26 89.13 113.36 89.13Z" fill="#B7D5E5" style="fill:#B7D5E5;fill:color(display-p3 0.7176 0.8353 0.8980);fill-opacity:1;"/>
<path d="M112.65 20.62H15.1499V83.74H112.65V20.62Z" fill="#303532" style="fill:#303532;fill:color(display-p3 0.1882 0.2078 0.1961);fill-opacity:1;"/>
<path d="M16.29 18.23H27.48" stroke="#EEEEEE" style="stroke:#EEEEEE;stroke:color(display-p3 0.9333 0.9333 0.9333);stroke-opacity:1;" stroke-width="3.0142" stroke-miterlimit="10" stroke-linecap="round"/>
</svg>
