<svg width="129" height="129" viewBox="0 0 129 129" fill="none" xmlns="http://www.w3.org/2000/svg">
<path d="M64.9001 92.7C64.8601 92.7 64.8101 92.7 64.7701 92.7C38.9501 92.74 12.5801 102.01 12.5801 124.07V124.44H14.0801H15.6501H113.22H114.66H116.16V124.07C116.17 103.27 90.8301 92.7 64.9001 92.7Z" fill="url(#paint0_linear_33_452)" style=""/>
<path d="M89.6202 124.44V115.74C89.6202 113.55 87.8302 111.75 85.6302 111.75H45.1902C43.0002 111.75 41.2002 113.54 41.2002 115.74V124.44H89.6202Z" fill="#A6A6A6" style="fill:#A6A6A6;fill:color(display-p3 0.6510 0.6510 0.6510);fill-opacity:1;"/>
<path d="M116.67 124.44V124.09C116.67 118.97 114.42 115.75 113.27 112.84L105.21 115.65L108.5 124.45H116.67V124.44Z" fill="#757575" style="fill:#757575;fill:color(display-p3 0.4588 0.4588 0.4588);fill-opacity:1;"/>
<path d="M21.0097 124.44C21.1997 123.41 21.3097 122.36 21.3097 121.28C21.3097 117.26 19.6897 113.55 16.8797 110.51C14.1497 114.11 12.6797 118.18 12.6797 122.73V124.44H21.0097Z" fill="#757575" style="fill:#757575;fill:color(display-p3 0.4588 0.4588 0.4588);fill-opacity:1;"/>
<path d="M97.9505 103C86.5105 107.91 74.0106 110.24 61.5706 109.81C55.4506 109.6 49.3506 108.72 43.4206 107.2C40.3306 106.41 37.2806 105.44 34.3006 104.31C31.6306 103.29 28.9306 102.28 26.9606 100.11C25.2106 98.18 24.1106 95.49 24.7006 92.87C25.2906 90.27 27.2806 88.05 29.7206 87.04C32.5106 85.88 35.4906 86.15 38.2206 87.28C41.0206 88.45 43.8806 89.45 46.8006 90.24C58.7006 93.47 71.4305 93.36 83.2806 89.94C84.9706 89.45 86.6406 88.9 88.2906 88.28C89.9206 87.67 91.5005 86.83 93.2105 86.48C96.1305 85.88 99.4506 86.51 101.721 88.53C104.021 90.58 105.061 93.81 104.061 96.76C103.091 99.62 100.681 101.83 97.9505 103Z" fill="url(#paint1_linear_33_452)" style=""/>
<path d="M64.5001 102.13C91.6559 102.13 113.67 80.3307 113.67 53.44C113.67 26.5493 91.6559 4.75 64.5001 4.75C37.3442 4.75 15.3301 26.5493 15.3301 53.44C15.3301 80.3307 37.3442 102.13 64.5001 102.13Z" fill="#4C4C4C" style="fill:#4C4C4C;fill:color(display-p3 0.2980 0.2980 0.2980);fill-opacity:1;"/>
<path d="M64.4996 99.4C90.1477 99.4 110.94 78.823 110.94 53.44C110.94 28.057 90.1477 7.47998 64.4996 7.47998C38.8515 7.47998 18.0596 28.057 18.0596 53.44C18.0596 78.823 38.8515 99.4 64.4996 99.4Z" fill="#212121" style="fill:#212121;fill:color(display-p3 0.1294 0.1294 0.1294);fill-opacity:1;"/>
<path d="M49.3496 66.95C51.8569 66.95 53.8896 64.8457 53.8896 62.25C53.8896 59.6543 51.8569 57.55 49.3496 57.55C46.8422 57.55 44.8096 59.6543 44.8096 62.25C44.8096 64.8457 46.8422 66.95 49.3496 66.95Z" fill="#404040" style="fill:#404040;fill:color(display-p3 0.2510 0.2510 0.2510);fill-opacity:1;"/>
<path d="M79.6494 66.95C82.1567 66.95 84.1894 64.8457 84.1894 62.25C84.1894 59.6543 82.1567 57.55 79.6494 57.55C77.142 57.55 75.1094 59.6543 75.1094 62.25C75.1094 64.8457 77.142 66.95 79.6494 66.95Z" fill="#404040" style="fill:#404040;fill:color(display-p3 0.2510 0.2510 0.2510);fill-opacity:1;"/>
<path d="M68.0593 70.77C67.9593 70.73 67.8594 70.71 67.7594 70.69H61.2394C61.1394 70.7 61.0393 70.73 60.9393 70.77C60.3493 71.01 60.0194 71.62 60.2994 72.27C60.5794 72.92 61.8794 74.75 64.4894 74.75C67.1094 74.75 68.3994 72.92 68.6794 72.27C68.9694 71.62 68.6493 71.01 68.0593 70.77Z" fill="#E59600" style="fill:#E59600;fill:color(display-p3 0.8980 0.5882 0.0000);fill-opacity:1;"/>
<path d="M58.0303 16.28C57.0203 16.77 56.1403 17.25 55.3703 17.67C54.4903 18.15 48.7903 21.31 44.8003 19.04C42.3403 17.64 42.3503 13.92 42.3503 13.78C41.2203 15.22 37.8003 25.52 47.7903 26.2C52.1003 26.5 54.7503 22.74 56.3303 19.56C56.8903 18.41 57.7903 16.73 58.0303 16.28Z" fill="url(#paint2_radial_33_452)" style=""/>
<path d="M42.3099 13.79C42.2999 13.8 42.2799 13.8 42.2499 13.81C42.2499 13.81 42.2499 13.81 42.2399 13.81C41.3799 14.17 34.6699 17.28 37.1799 25.07L44.3299 26.22C38.0099 19.81 42.3299 13.78 42.3299 13.78C42.3299 13.78 42.3299 13.78 42.3099 13.79Z" fill="url(#paint3_radial_33_452)" style=""/>
<path d="M95.8084 56.8411C102.137 40.3168 98.2374 27.6723 96.0014 24.0453C95.1162 22.6078 93.4126 22.2085 91.842 22.701C87.7026 24.0054 76.5288 33.136 71.5908 45.9136" fill="#FFC022" style="fill:#FFC022;fill:color(display-p3 1.0000 0.7529 0.1333);fill-opacity:1;"/>
<path d="M95.8084 56.8411C102.137 40.3168 98.2374 27.6723 96.0014 24.0453C95.1162 22.6078 93.4126 22.2085 91.842 22.701C87.7026 24.0054 76.5288 33.136 71.5908 45.9136" fill="#5D6265" style="fill:#5D6265;fill:color(display-p3 0.3647 0.3843 0.3961);fill-opacity:1;"/>
<path d="M33.9571 56.8411C27.6282 40.3168 31.528 27.6723 33.7641 24.0453C34.6492 22.6078 36.3529 22.2085 37.9235 22.701C42.0629 24.0054 53.2366 33.136 58.1746 45.9136" fill="#FFC022" style="fill:#FFC022;fill:color(display-p3 1.0000 0.7529 0.1333);fill-opacity:1;"/>
<path d="M33.9571 56.8411C27.6282 40.3168 31.528 27.6723 33.7641 24.0453C34.6492 22.6078 36.3529 22.2085 37.9235 22.701C42.0629 24.0054 53.2366 33.136 58.1746 45.9136" fill="#5D6265" style="fill:#5D6265;fill:color(display-p3 0.3647 0.3843 0.3961);fill-opacity:1;"/>
<path d="M98.4226 65.3652C97.2221 47.9136 85.3031 35.5 65 35.5C44.697 35.5 32.778 47.9136 31.5775 65.3652C30.8771 75.5352 34.9457 84.1804 42.9762 89.6886C42.9762 89.6886 51.1201 96.3253 65 96.5C78.88 96.3253 87.0239 89.6886 87.0239 89.6886C95.0477 84.1804 99.123 75.5352 98.4226 65.3652Z" fill="#FFC022" style="fill:#FFC022;fill:color(display-p3 1.0000 0.7529 0.1333);fill-opacity:1;"/>
<path d="M98.4226 65.3652C97.2221 47.9136 85.3031 35.5 65 35.5C44.697 35.5 32.778 47.9136 31.5775 65.3652C30.8771 75.5352 34.9457 84.1804 42.9762 89.6886C42.9762 89.6886 51.1201 96.3253 65 96.5C78.88 96.3253 87.0239 89.6886 87.0239 89.6886C95.0477 84.1804 99.123 75.5352 98.4226 65.3652Z" fill="#5D6265" style="fill:#5D6265;fill:color(display-p3 0.3647 0.3843 0.3961);fill-opacity:1;"/>
<path d="M45.2041 60.9473C45.1509 57.9725 47.2406 55.5302 49.8626 55.4836C52.4847 55.437 54.1285 57.8727 54.1817 60.8475C54.235 63.8223 52.1453 66.2647 49.5232 66.3113C46.9011 66.3578 45.2574 63.9221 45.2041 60.9473Z" fill="black" style="fill:black;fill-opacity:1;"/>
<path d="M84.5616 60.9472C84.6148 57.9724 82.5252 55.53 79.9031 55.4834C77.281 55.4369 75.6372 57.8726 75.584 60.8474C75.5308 63.8222 77.6204 66.2645 80.2425 66.3111C82.8646 66.3577 84.5084 63.922 84.5616 60.9472Z" fill="black" style="fill:black;fill-opacity:1;"/>
<path d="M26.5 63.67C26.5 63.67 32.5424 62.4592 39.5 66.5" stroke="#9E9E9E" style="stroke:#9E9E9E;stroke:color(display-p3 0.6196 0.6196 0.6196);stroke-opacity:1;" stroke-width="3" stroke-miterlimit="10" stroke-linecap="round"/>
<path d="M26.5 71.5C26.5 71.5 31.6206 69.9037 38.5 70.7448" stroke="#9E9E9E" style="stroke:#9E9E9E;stroke:color(display-p3 0.6196 0.6196 0.6196);stroke-opacity:1;" stroke-width="3" stroke-miterlimit="10" stroke-linecap="round"/>
<path d="M28.5 79.5C28.5 79.5 33.3462 76.0809 39.5 75.5" stroke="#9E9E9E" style="stroke:#9E9E9E;stroke:color(display-p3 0.6196 0.6196 0.6196);stroke-opacity:1;" stroke-width="3" stroke-miterlimit="10" stroke-linecap="round"/>
<path d="M102.5 62.5864C102.5 62.5864 96.3793 61.7161 89.5 65.5" stroke="#9E9E9E" style="stroke:#9E9E9E;stroke:color(display-p3 0.6196 0.6196 0.6196);stroke-opacity:1;" stroke-width="3" stroke-miterlimit="10" stroke-linecap="round"/>
<path d="M102.5 70.5C102.5 70.5 97.318 68.708 90.5 69.9218" stroke="#9E9E9E" style="stroke:#9E9E9E;stroke:color(display-p3 0.6196 0.6196 0.6196);stroke-opacity:1;" stroke-width="3" stroke-miterlimit="10" stroke-linecap="round"/>
<path d="M101.5 77.5C101.5 77.5 96.1555 74.7917 89.5 74.5" stroke="#9E9E9E" style="stroke:#9E9E9E;stroke:color(display-p3 0.6196 0.6196 0.6196);stroke-opacity:1;" stroke-width="3" stroke-miterlimit="10" stroke-linecap="round"/>
<path d="M59.5316 68.9332C59.4983 67.0299 62.2335 66.1115 64.8223 66.0716C67.4111 66.025 70.1929 66.8702 70.2261 68.7735C70.2594 70.6768 66.9918 73.1924 64.9354 73.1924C62.879 73.1924 59.5648 70.8366 59.5316 68.9332Z" fill="black" style="fill:black;fill-opacity:1;"/>
<path d="M70.1329 76.3603C70.1995 76.3736 70.266 76.3869 70.3392 76.4002C71.2044 76.5599 72.003 76.693 72.8016 77.1323C72.9081 77.1922 73.0279 77.2654 73.0678 77.3918C73.1144 77.5183 73.0678 77.6647 73.0212 77.7911C72.735 78.4766 72.2026 78.989 71.6702 79.4549C69.5673 81.265 67.0117 82.6359 64.3631 82.4762C62.0737 82.3431 59.8643 81.0055 58.5067 78.9424C58.4401 78.8426 58.3802 78.7361 58.3736 78.6163C58.3669 78.4899 58.4268 78.3701 58.4933 78.2703C58.886 77.678 59.5448 77.4118 60.1371 77.099C61.1687 76.5666 62.1137 75.8279 62.9189 74.9295C63.2916 74.5168 63.6443 74.0643 64.1301 73.838C64.9886 73.4387 65.3347 74.1508 65.927 74.6167C66.5925 75.1358 67.4377 75.5617 68.223 75.7879C68.8618 75.9676 69.5007 76.2205 70.1329 76.3603Z" fill="#EF7F9D" style="fill:#EF7F9D;fill:color(display-p3 0.9373 0.4980 0.6157);fill-opacity:1;"/>
<path d="M73.6465 76.6996C73.6465 76.6996 70.705 82.9753 65.0615 82.9753C59.651 82.9753 56.4766 76.6996 56.4766 76.6996" stroke="black" style="stroke:black;stroke-opacity:1;" stroke-width="3.7747" stroke-miterlimit="10"/>
<path d="M49.4229 74.0444C49.4229 74.0444 52.1115 77.3186 57.3623 77.3186C63.6845 77.3186 65.3017 70.3442 65.3017 70.3442" stroke="black" style="stroke:black;stroke-opacity:1;" stroke-width="4" stroke-miterlimit="10" stroke-linecap="round"/>
<path d="M80.3417 74.0444C80.3417 74.0444 77.6531 77.3186 72.4023 77.3186C66.0801 77.3186 64.4629 70.3442 64.4629 70.3442" stroke="black" style="stroke:black;stroke-opacity:1;" stroke-width="4" stroke-miterlimit="10" stroke-linecap="round"/>
<path d="M83.6233 41.6744C82.5985 40.8159 82.6251 39.4317 83.224 38.2404C84.6615 35.3721 88.1022 32.3973 89.32 31.4324C91.3165 29.8485 92.8605 29.3161 93.4528 31.8649C94.5508 36.5767 94.4643 42.9721 93.2864 46.4993C92.8738 47.7438 91.596 48.4026 90.6111 47.5441L83.6233 41.6744Z" fill="#FFD1D1" style="fill:#FFD1D1;fill:color(display-p3 1.0000 0.8196 0.8196);fill-opacity:1;"/>
<path d="M46.1414 41.6744C47.1663 40.8159 47.1397 39.4317 46.5407 38.2404C45.1033 35.3721 41.6626 32.3973 40.4448 31.4324C38.4483 29.8485 36.9043 29.3161 36.312 31.8649C35.2139 36.5767 35.3005 42.9721 36.4784 46.4993C36.891 47.7438 38.1688 48.4026 39.1537 47.5441L46.1414 41.6744Z" fill="#FFD1D1" style="fill:#FFD1D1;fill:color(display-p3 1.0000 0.8196 0.8196);fill-opacity:1;"/>
<path d="M64.5101 23.11C86.2601 23.11 105.02 35.92 113.67 54.4C113.67 54.16 113.69 53.91 113.69 53.67C113.69 26.52 91.6701 4.5 64.5101 4.5C37.0501 4.5 14.9101 26.88 15.3301 53.68C15.3301 53.92 15.3501 54.17 15.3501 54.41C24.0001 35.92 42.7601 23.11 64.5101 23.11Z" fill="url(#paint4_radial_33_452)" style=""/>
<path fill-rule="evenodd" clip-rule="evenodd" d="M15.709 47.3671L45.5193 46.8182C51.1361 46.4048 57.2979 46.4088 63.6342 46.4128C64.2586 46.4132 64.8848 46.4136 65.5122 46.4136C66.1397 46.4136 66.7658 46.4132 67.3902 46.4128C73.7303 46.4088 79.8957 46.4048 85.5153 46.819L113.287 47.3304C112.749 43.0721 111.655 38.9848 110.08 35.1418L65.497 33.5L18.8901 35.2164C17.327 39.0487 16.2422 43.1232 15.709 47.3671Z" fill="#C4C4C4" style="fill:#C4C4C4;fill:color(display-p3 0.7686 0.7686 0.7686);fill-opacity:1;"/>
<path fill-rule="evenodd" clip-rule="evenodd" d="M15.709 47.3671L45.5193 46.8182C51.1361 46.4048 57.2979 46.4088 63.6342 46.4128C64.2586 46.4132 64.8848 46.4136 65.5122 46.4136C66.1397 46.4136 66.7658 46.4132 67.3902 46.4128C73.7303 46.4088 79.8957 46.4048 85.5153 46.819L113.287 47.3304C112.749 43.0721 111.655 38.9848 110.08 35.1418L65.497 33.5L18.8901 35.2164C17.327 39.0487 16.2422 43.1232 15.709 47.3671Z" fill="url(#paint5_linear_33_452)" style=""/>
<defs>
<linearGradient id="paint0_linear_33_452" x1="64.3741" y1="124.088" x2="64.3741" y2="92.8123" gradientUnits="userSpaceOnUse">
<stop stop-color="#B3B3B3" style="stop-color:#B3B3B3;stop-color:color(display-p3 0.7020 0.7020 0.7020);stop-opacity:1;"/>
<stop offset="0.0332" stop-color="#B7B7B7" style="stop-color:#B7B7B7;stop-color:color(display-p3 0.7176 0.7176 0.7176);stop-opacity:1;"/>
<stop offset="0.3745" stop-color="#D9D9D9" style="stop-color:#D9D9D9;stop-color:color(display-p3 0.8510 0.8510 0.8510);stop-opacity:1;"/>
<stop offset="0.5592" stop-color="#E6E6E6" style="stop-color:#E6E6E6;stop-color:color(display-p3 0.9020 0.9020 0.9020);stop-opacity:1;"/>
</linearGradient>
<linearGradient id="paint1_linear_33_452" x1="64.4831" y1="92.3327" x2="64.4831" y2="110.361" gradientUnits="userSpaceOnUse">
<stop offset="0.0041" stop-color="#E6E6E6" style="stop-color:#E6E6E6;stop-color:color(display-p3 0.9020 0.9020 0.9020);stop-opacity:1;"/>
<stop offset="0.3332" stop-color="#D9D9D9" style="stop-color:#D9D9D9;stop-color:color(display-p3 0.8510 0.8510 0.8510);stop-opacity:1;"/>
<stop offset="0.9409" stop-color="#B7B7B7" style="stop-color:#B7B7B7;stop-color:color(display-p3 0.7176 0.7176 0.7176);stop-opacity:1;"/>
<stop offset="1" stop-color="#B3B3B3" style="stop-color:#B3B3B3;stop-color:color(display-p3 0.7020 0.7020 0.7020);stop-opacity:1;"/>
</linearGradient>
<radialGradient id="paint2_radial_33_452" cx="0" cy="0" r="1" gradientUnits="userSpaceOnUse" gradientTransform="translate(49.1467 13.3507) rotate(28.2026) scale(8.57987 10.1732)">
<stop offset="0.58" stop-color="#6D4C41" style="stop-color:#6D4C41;stop-color:color(display-p3 0.4275 0.2980 0.2549);stop-opacity:1;"/>
<stop offset="1" stop-color="#6D4C41" stop-opacity="0" style="stop-color:none;stop-opacity:0;"/>
</radialGradient>
<radialGradient id="paint3_radial_33_452" cx="0" cy="0" r="1" gradientUnits="userSpaceOnUse" gradientTransform="translate(45.7003 21.1776) scale(7.8753 9.63385)">
<stop offset="0.7016" stop-color="#6D4C41" stop-opacity="0" style="stop-color:none;stop-opacity:0;"/>
<stop offset="1" stop-color="#6D4C41" style="stop-color:#6D4C41;stop-color:color(display-p3 0.4275 0.2980 0.2549);stop-opacity:1;"/>
</radialGradient>
<radialGradient id="paint4_radial_33_452" cx="0" cy="0" r="1" gradientUnits="userSpaceOnUse" gradientTransform="translate(65.275 8) scale(26.0008 26.0008)">
<stop offset="0.005" stop-color="#F2F2F2" style="stop-color:#F2F2F2;stop-color:color(display-p3 0.9490 0.9490 0.9490);stop-opacity:1;"/>
<stop offset="0.4222" stop-color="#E5E5E5" style="stop-color:#E5E5E5;stop-color:color(display-p3 0.8980 0.8980 0.8980);stop-opacity:1;"/>
<stop offset="1" stop-color="#CCCCCC" style="stop-color:#CCCCCC;stop-color:color(display-p3 0.8000 0.8000 0.8000);stop-opacity:1;"/>
</radialGradient>
<linearGradient id="paint5_linear_33_452" x1="62.3617" y1="89.5392" x2="62.3617" y2="34.5" gradientUnits="userSpaceOnUse">
<stop stop-color="#E9333A" style="stop-color:#E9333A;stop-color:color(display-p3 0.9125 0.2015 0.2287);stop-opacity:1;"/>
<stop offset="1" stop-color="#FF575E" style="stop-color:#FF575E;stop-color:color(display-p3 1.0000 0.3417 0.3669);stop-opacity:1;"/>
</linearGradient>
</defs>
</svg>
