<svg width="128" height="128" viewBox="0 0 128 128" fill="none" xmlns="http://www.w3.org/2000/svg">
<path d="M63.4301 4.50996C95.1101 4.43996 115.1 55.97 107.21 88.63C100.23 117.55 80.1801 123.54 64.1301 123.54C48.0801 123.54 28.5901 115.76 21.0501 89.75C12.3301 59.63 33.8701 4.57996 63.4301 4.50996Z" fill="#F2A05B" style="fill:#F2A05B;fill:color(display-p3 0.9490 0.6275 0.3569);fill-opacity:1;"/>
<mask id="mask0_2601_1231" style="mask-type:alpha" maskUnits="userSpaceOnUse" x="19" y="4" width="90" height="120">
<path d="M63.4301 4.50984C95.1101 4.43984 115.1 55.9698 107.21 88.6298C100.23 117.55 80.1801 123.54 64.1301 123.54C48.0801 123.54 28.5901 115.76 21.0501 89.7498C12.3301 59.6298 33.8701 4.57984 63.4301 4.50984Z" fill="#F2A05B" style="fill:#F2A05B;fill:color(display-p3 0.9490 0.6275 0.3569);fill-opacity:1;"/>
</mask>
<g mask="url(#mask0_2601_1231)">
<path d="M179.389 30.1659C176.078 32.1146 172.839 33.7502 169.671 35.1248C166.485 36.5168 163.37 37.6477 160.292 38.5699C157.213 39.4921 154.206 40.2229 151.235 40.7623C148.264 41.3191 145.347 41.7019 142.483 41.9455C139.619 42.1891 136.774 42.2935 133.981 42.2935C131.189 42.2935 128.433 42.1891 125.713 41.9803C122.992 41.7715 120.307 41.4931 117.658 41.1451C115.009 40.7797 112.378 40.3621 109.783 39.8749C107.188 39.3877 104.611 38.8657 102.051 38.2915C99.4916 37.7173 96.9501 37.1084 94.4443 36.4646C91.9207 35.8208 89.4149 35.1422 86.9092 34.4636C84.4034 33.785 81.9156 33.0542 79.4456 32.3408C76.9577 31.6274 74.4878 30.8966 71.9999 30.1659C69.53 29.4351 67.0421 28.7043 64.5543 27.9909C62.0664 27.2775 59.5786 26.5641 57.0907 25.8681C54.585 25.1721 52.0792 24.5109 49.5556 23.8671C47.0319 23.2234 44.4904 22.6144 41.9488 22.0402C39.4073 21.466 36.812 20.9266 34.2168 20.4568C31.6215 19.9696 28.9905 19.552 26.3416 19.1866C23.6926 18.8212 21.0079 18.5428 18.2874 18.3514C15.5668 18.16 12.8105 18.0382 10.0184 18.0382C7.22627 18.0382 4.39835 18.1426 1.51674 18.3862C-1.36488 18.6298 -4.28229 19.0126 -7.2355 19.5694C-10.2066 20.1262 -13.2135 20.8396 -16.292 21.7618C-19.3705 22.684 -22.4848 23.8149 -25.6707 25.2069C-28.8387 26.5989 -32.0782 28.2345 -35.3894 30.1659V21.4486C-35.3894 21.4486 -35.3894 16.4375 -35.3894 13.8449V5.12762C-32.0782 3.17885 -28.8387 1.54327 -25.6707 0.168694C-22.5027 -1.20589 -19.3705 -2.35427 -16.292 -3.27646C-13.2135 -4.19864 -10.2066 -4.92943 -7.2355 -5.46882C-4.26439 -6.02561 -1.34698 -6.40841 1.51674 -6.65201C4.39835 -6.8956 7.22627 -7 10.0184 -7C12.8105 -7 15.5668 -6.8956 18.2874 -6.6868C21.0079 -6.49541 23.6926 -6.19961 26.3416 -5.85162C28.9905 -5.50362 31.6215 -5.06863 34.2168 -4.58144C36.812 -4.09424 39.3894 -3.57225 41.9488 -2.99806C44.5083 -2.42387 47.0498 -1.81488 49.5556 -1.17108C52.0792 -0.527294 54.585 0.151296 57.0907 0.829886C59.5965 1.50848 62.0843 2.23926 64.5543 2.95265C67.0242 3.66604 69.5121 4.39683 71.9999 5.12762C74.4699 5.85841 76.9577 6.5892 79.4456 7.30259C81.9335 8.01598 84.4213 8.72937 86.9092 9.42536C89.397 10.1214 91.9207 10.7825 94.4443 11.4263C96.968 12.0701 99.5095 12.6791 102.051 13.2533C104.611 13.8275 107.188 14.3669 109.783 14.8367C112.378 15.3239 115.009 15.7415 117.658 16.1069C120.307 16.4723 122.992 16.7507 125.713 16.9421C128.433 17.1334 131.189 17.2552 133.981 17.2552C136.774 17.2552 139.602 17.1508 142.483 16.9073C145.365 16.6637 148.282 16.2809 151.235 15.7241C154.206 15.1673 157.213 14.4539 160.292 13.5317C163.37 12.6095 166.485 11.4785 169.671 10.0865C172.856 8.69457 176.096 7.05899 179.389 5.12762V13.8449V21.4486C179.389 21.4486 179.389 26.8251 179.389 30.1659Z" fill="#FF0000" style="fill:#FF0000;fill:color(display-p3 1.0000 0.0000 0.0000);fill-opacity:1;"/>
<path d="M179.389 49.9785C176.078 51.9969 172.839 53.6909 169.671 55.1146C166.485 56.5563 163.37 57.7276 160.292 58.6828C157.213 59.6379 154.206 60.3948 151.235 60.9534C148.264 61.5301 145.347 61.9266 142.483 62.1789C139.619 62.4312 136.774 62.5393 133.981 62.5393C131.189 62.5393 128.433 62.4312 125.713 62.2149C122.992 61.9987 120.307 61.7103 117.658 61.3499C115.009 60.9715 112.378 60.539 109.783 60.0344C107.188 59.5298 104.611 58.9891 102.051 58.3944C99.4916 57.7997 96.9501 57.169 94.4443 56.5022C91.9207 55.8354 89.4149 55.1326 86.9092 54.4298C84.4034 53.727 81.9156 52.9701 79.4456 52.2312C76.9577 51.4923 74.4878 50.7354 71.9999 49.9785C69.5121 49.2217 67.0421 48.4648 64.5543 47.7259C62.0664 46.987 59.5786 46.2482 57.0907 45.5273C54.585 44.8065 52.0792 44.1217 49.5556 43.4549C47.0319 42.7881 44.4904 42.1574 41.9488 41.5627C39.3894 40.968 36.812 40.4093 34.2168 39.9227C31.6215 39.4182 28.9905 38.9856 26.3416 38.6072C23.6926 38.2288 21.0079 37.9404 18.2874 37.7422C15.5668 37.544 12.8105 37.4178 10.0184 37.4178C7.22627 37.4178 4.39835 37.5259 1.51674 37.7782C-1.36488 38.0305 -4.28229 38.427 -7.2355 39.0037C-10.2066 39.5803 -13.2135 40.3192 -16.292 41.2743C-19.3705 42.2295 -22.4848 43.4008 -25.6707 44.8425C-28.8566 46.2842 -32.0782 47.9602 -35.3894 49.9785V40.9499C-35.3894 40.9499 -35.3894 35.7599 -35.3894 33.0747C-35.3894 30.3896 -35.3894 27.5062 -35.3894 24.0461C-32.0782 22.0277 -28.8387 20.3337 -25.6707 18.9101C-22.4848 17.4684 -19.3705 16.297 -16.292 15.3419C-13.2135 14.3868 -10.2066 13.6299 -7.2355 13.0712C-4.26439 12.4945 -1.34698 12.0981 1.51674 11.8458C4.39835 11.5935 7.22627 11.4854 10.0184 11.4854C12.8105 11.4854 15.5668 11.5935 18.2874 11.8097C21.0079 12.008 23.6926 12.3143 26.3416 12.6747C28.9905 13.0352 31.6215 13.4857 34.2168 13.9903C36.812 14.4949 39.3894 15.0355 41.9488 15.6302C44.5083 16.2249 47.0498 16.8557 49.5556 17.5224C52.0792 18.1892 54.585 18.8921 57.0907 19.5949C59.5965 20.3157 62.0843 21.0546 64.5543 21.7935C67.0421 22.5323 69.5121 23.2892 71.9999 24.0461C74.4699 24.803 76.9577 25.5599 79.4456 26.2987C81.9335 27.0376 84.4213 27.7765 86.9092 28.4973C89.397 29.2182 91.9207 29.903 94.4443 30.5698C96.968 31.2365 99.5095 31.8673 102.051 32.462C104.611 33.0567 107.188 33.6153 109.783 34.1019C112.378 34.6065 115.009 35.039 117.658 35.4175C120.307 35.7959 122.992 36.0842 125.713 36.2825C128.433 36.4807 131.189 36.6068 133.981 36.6068C136.774 36.6068 139.602 36.4987 142.483 36.2464C145.365 35.9941 148.282 35.5977 151.235 35.021C154.206 34.4443 157.213 33.7054 160.292 32.7503C163.37 31.7952 166.485 30.6238 169.671 29.1821C172.856 27.7404 176.096 26.0464 179.389 24.0461V33.0747C179.389 33.0747 179.389 38.2648 179.389 40.9499C179.389 43.6351 179.389 46.5185 179.389 49.9785Z" fill="#FB8D00" style="fill:#FB8D00;fill:color(display-p3 0.9843 0.5529 0.0000);fill-opacity:1;"/>
<path d="M179.389 68.2328C176.078 70.1467 172.839 71.7531 169.671 73.1031C166.485 74.4703 163.37 75.5811 160.292 76.4868C157.213 77.3925 154.206 78.1102 151.235 78.64C148.264 79.1868 145.347 79.5628 142.483 79.802C139.619 80.0413 136.774 80.1438 133.981 80.1438C131.189 80.1438 128.433 80.0413 125.713 79.8362C122.992 79.6311 120.307 79.3577 117.658 79.0159C115.009 78.6571 112.378 78.2469 109.783 77.7684C107.188 77.29 104.611 76.7773 102.051 76.2133C99.4916 75.6494 96.9501 75.0513 94.4443 74.419C91.9207 73.7867 89.4149 73.1202 86.9092 72.4538C84.4034 71.7873 81.9156 71.0695 79.4456 70.3689C76.9577 69.6682 74.4699 68.9505 71.9999 68.2328C69.53 67.515 67.0421 66.7973 64.5543 66.0966C62.0664 65.396 59.5786 64.6953 57.0907 64.0118C54.585 63.3282 52.0792 62.6788 49.5556 62.0465C47.0319 61.4142 44.4904 60.8161 41.9488 60.2522C39.4073 59.6883 36.812 59.1585 34.2168 58.6971C31.6215 58.2186 28.9905 57.8085 26.3416 57.4496C23.6926 57.0907 21.0079 56.8173 18.2874 56.6293C15.5668 56.4413 12.8105 56.3217 10.0184 56.3217C7.22627 56.3217 4.39835 56.4242 1.51674 56.6635C-1.36488 56.9027 -4.28229 57.2787 -7.2355 57.8255C-10.2066 58.3724 -13.2135 59.073 -16.292 59.9788C-19.3705 60.8845 -22.4848 61.9953 -25.6707 63.3624C-28.8387 64.7124 -32.0782 66.3188 -35.3894 68.2328V59.6712C-35.3894 59.6712 -35.3894 54.7495 -35.3894 52.2033V43.6416C-32.0782 41.7277 -28.8387 40.1213 -25.6707 38.7713C-22.5027 37.4212 -19.3705 36.2934 -16.292 35.3876C-13.2135 34.4819 -10.2066 33.7642 -7.2355 33.2344C-4.26439 32.6876 -1.34698 32.3116 1.51674 32.0724C4.39835 31.8331 7.22627 31.7306 10.0184 31.7306C12.8105 31.7306 15.5668 31.8331 18.2874 32.0382C21.0079 32.2262 23.6926 32.5167 26.3416 32.8585C28.9905 33.2173 31.6215 33.6275 34.2168 34.106C36.812 34.5845 39.3894 35.0971 41.9488 35.6611C44.5083 36.225 47.0498 36.8231 49.5556 37.4554C52.0792 38.0877 54.585 38.7542 57.0907 39.4207C59.5965 40.1042 62.0843 40.8049 64.5543 41.5055C67.0421 42.2062 69.5121 42.9239 71.9999 43.6416C74.4878 44.3594 76.9577 45.0771 79.4456 45.7778C81.9335 46.4784 84.4213 47.1791 86.9092 47.8626C89.397 48.5462 91.9207 49.1956 94.4443 49.8279C96.968 50.4602 99.5095 51.0583 102.051 51.6222C104.611 52.1862 107.188 52.7159 109.783 53.1773C112.378 53.6558 115.009 54.066 117.658 54.4248C120.307 54.7837 122.992 55.0571 125.713 55.2451C128.433 55.4331 131.189 55.5527 133.981 55.5527C136.774 55.5527 139.602 55.4502 142.483 55.2109C145.365 54.9717 148.282 54.5957 151.235 54.0489C154.206 53.502 157.213 52.8014 160.292 51.8956C163.37 50.9899 166.485 49.8791 169.671 48.512C172.856 47.1449 176.096 45.5385 179.389 43.6416V52.2033V59.6712C179.389 59.6712 179.389 64.9517 179.389 68.2328Z" fill="#FFE000" style="fill:#FFE000;fill:color(display-p3 1.0000 0.8784 0.0000);fill-opacity:1;"/>
<path d="M179.389 88.4922C176.078 90.5454 172.839 92.2686 169.671 93.7168C166.485 95.1833 163.37 96.3749 160.292 97.3465C157.213 98.3181 154.206 99.088 151.235 99.6563C148.264 100.225 145.347 100.646 142.483 100.903C139.602 101.16 136.774 101.27 133.981 101.27C131.189 101.27 128.433 101.16 125.713 100.94C122.992 100.738 120.307 100.426 117.658 100.06C115.009 99.6746 112.378 99.2347 109.783 98.7214C107.188 98.2081 104.611 97.6581 102.051 97.0532C99.4916 96.4482 96.9501 95.8066 94.4443 95.1283C91.9207 94.4501 89.4149 93.7351 86.9092 93.0202C84.4034 92.3052 81.9156 91.5353 79.4456 90.7837C76.9577 90.0321 74.4878 89.2621 71.9999 88.4922C69.53 87.7223 67.0421 86.9523 64.5543 86.2007C62.0664 85.4491 59.5786 84.6975 57.0907 83.9642C54.585 83.231 52.0792 82.5343 49.5556 81.8561C47.0319 81.1778 44.4904 80.5362 41.9488 79.9312C39.4073 79.3263 36.812 78.758 34.2168 78.263C31.6215 77.7497 28.9905 77.3098 26.3416 76.9248C23.6926 76.5398 21.0079 76.2465 18.2874 76.0449C15.5668 75.8432 12.8105 75.7149 10.0184 75.7149C7.22627 75.7149 4.39835 75.8249 1.51674 76.0815C-1.36488 76.3382 -4.28229 76.7415 -7.2355 77.3281C-10.2066 77.9147 -13.2135 78.6663 -16.292 79.6379C-19.3705 80.6095 -22.4848 81.8011 -25.6707 83.2676C-28.8387 84.7342 -32.0782 86.4574 -35.3894 88.4922V79.3079C-35.3894 79.3079 -35.3894 74.0283 -35.3894 71.2969V62.1126C-32.0782 60.0595 -28.8387 58.3363 -25.6707 56.8881C-22.4848 55.4215 -19.3705 54.2299 -16.292 53.2583C-13.2135 52.2868 -10.2066 51.5168 -7.2355 50.9485C-4.26439 50.3619 -1.34698 49.9586 1.51674 49.702C4.39835 49.4453 7.22627 49.3353 10.0184 49.3353C12.8105 49.3353 15.5668 49.4453 18.2874 49.6653C21.0079 49.867 23.6926 50.1786 26.3416 50.5452C28.9905 50.9302 31.6215 51.3702 34.2168 51.8835C36.812 52.3967 39.3894 52.9467 41.9488 53.5517C44.5083 54.1566 47.0498 54.7982 49.5556 55.4765C52.0792 56.1548 54.585 56.8697 57.0907 57.5847C59.5965 58.3179 62.0843 59.0695 64.5543 59.8212C67.0421 60.5728 69.5121 61.3427 71.9999 62.1126C74.4699 62.8826 76.9577 63.6525 79.4456 64.4041C81.9335 65.1557 84.4213 65.9073 86.9092 66.6406C89.397 67.3739 91.9207 68.0705 94.4443 68.7488C96.968 69.4271 99.5095 70.0687 102.051 70.6736C104.611 71.2786 107.188 71.8469 109.783 72.3418C112.378 72.8551 115.009 73.2951 117.658 73.68C120.307 74.065 122.992 74.3583 125.713 74.56C128.433 74.7616 131.189 74.89 133.981 74.89C136.774 74.89 139.602 74.78 142.483 74.5233C145.365 74.2667 148.282 73.8634 151.235 73.2767C154.206 72.6901 157.213 71.9385 160.292 70.9669C163.37 69.9953 166.485 68.8038 169.671 67.3372C172.856 65.8707 176.096 64.1475 179.389 62.1126V71.2969V79.3079C179.389 79.3079 179.389 84.9725 179.389 88.4922Z" fill="#43A047" style="fill:#43A047;fill:color(display-p3 0.2627 0.6275 0.2784);fill-opacity:1;"/>
<path d="M179.389 108.954C176.078 110.973 172.839 112.667 169.671 114.09C166.485 115.532 163.37 116.703 160.292 117.659C157.213 118.614 154.206 119.371 151.235 119.929C148.264 120.488 145.347 120.902 142.483 121.155C139.602 121.407 136.774 121.515 133.981 121.515C131.189 121.515 128.433 121.407 125.713 121.191C122.992 120.992 120.307 120.686 117.658 120.326C115.009 119.947 112.378 119.515 109.783 119.01C107.188 118.506 104.611 117.965 102.051 117.37C99.4916 116.776 96.9501 116.145 94.4443 115.478C91.9207 114.811 89.4149 114.108 86.9092 113.406C84.4034 112.685 81.9156 111.946 79.4456 111.207C76.9577 110.468 74.4878 109.711 71.9999 108.954C69.53 108.197 67.0421 107.441 64.5543 106.702C62.0664 105.963 59.5786 105.224 57.0907 104.503C54.585 103.782 52.0792 103.097 49.5556 102.431C47.0319 101.764 44.4904 101.133 41.9488 100.538C39.4073 99.9437 36.812 99.3851 34.2168 98.8985C31.6215 98.3939 28.9905 97.9614 26.3416 97.583C23.6926 97.2045 21.0079 96.9162 18.2874 96.718C15.5668 96.5197 12.8105 96.3936 10.0184 96.3936C7.22627 96.3936 4.39835 96.5017 1.51674 96.754C-1.36488 97.0063 -4.28229 97.4028 -7.2355 97.9794C-10.1887 98.5561 -13.2135 99.295 -16.292 100.25C-19.3705 101.205 -22.4848 102.377 -25.6707 103.818C-28.8566 105.26 -32.0782 106.936 -35.3894 108.954V99.9257C-35.3894 99.9257 -35.3894 94.7356 -35.3894 92.0505V83.0219C-32.0782 81.0035 -28.8387 79.3095 -25.6707 77.8858C-22.4848 76.4441 -19.3705 75.2728 -16.292 74.3176C-13.2135 73.3625 -10.2066 72.6056 -7.2355 72.047C-4.26439 71.4703 -1.34698 71.0738 1.51674 70.8215C4.39835 70.5692 7.22627 70.4611 10.0184 70.4611C12.8105 70.4611 15.5668 70.5692 18.2874 70.7855C21.0079 70.9837 23.6926 71.2901 26.3416 71.6505C28.9905 72.029 31.6215 72.4615 34.2168 72.9661C36.812 73.4707 39.3894 74.0113 41.9488 74.606C44.5083 75.2007 47.0498 75.8314 49.5556 76.4982C52.0792 77.165 54.585 77.8678 57.0907 78.5706C59.5965 79.2915 62.0843 80.0304 64.5543 80.7692C67.0421 81.5081 69.5121 82.265 71.9999 83.0219C74.4699 83.7788 76.9577 84.5357 79.4456 85.2745C81.9335 86.0134 84.4213 86.7522 86.9092 87.4731C89.397 88.1939 91.9207 88.8787 94.4443 89.5455C96.968 90.2123 99.5095 90.8431 102.051 91.4378C104.611 92.0325 107.188 92.5911 109.783 93.0777C112.378 93.5823 115.009 94.0148 117.658 94.3932C120.307 94.7717 122.992 95.06 125.713 95.2582C128.433 95.4565 131.189 95.5826 133.981 95.5826C136.774 95.5826 139.602 95.4745 142.483 95.2222C145.365 94.9699 148.282 94.5734 151.235 93.9968C154.206 93.4201 157.213 92.6812 160.292 91.7261C163.37 90.771 166.485 89.5996 169.671 88.1579C172.856 86.7162 176.096 85.0222 179.389 83.0219V92.0505V99.9257C179.389 99.9257 179.389 105.494 179.389 108.954Z" fill="#1565C0" style="fill:#1565C0;fill:color(display-p3 0.0824 0.3961 0.7529);fill-opacity:1;"/>
<path d="M179.389 127.872C176.078 129.821 172.839 131.457 169.671 132.831C166.485 134.223 163.37 135.354 160.292 136.276C157.213 137.198 154.206 137.929 151.235 138.469C148.264 139.025 145.347 139.408 142.483 139.652C139.602 139.895 136.774 140 133.981 140C131.189 140 128.433 139.895 125.713 139.687C122.992 139.495 120.307 139.199 117.658 138.851C115.009 138.486 112.378 138.068 109.783 137.581C107.188 137.094 104.611 136.572 102.051 135.998C99.4916 135.424 96.9501 134.815 94.4443 134.171C91.9386 133.527 89.4149 132.848 86.9092 132.17C84.4034 131.474 81.9156 130.761 79.4456 130.047C76.9577 129.334 74.4878 128.603 71.9999 127.872C69.53 127.141 67.0421 126.411 64.5543 125.697C62.0664 124.984 59.5786 124.27 57.0907 123.574C54.585 122.878 52.0792 122.217 49.5556 121.573C47.0319 120.93 44.4904 120.321 41.9488 119.746C39.4073 119.172 36.812 118.633 34.2168 118.163C31.6215 117.676 28.9905 117.258 26.3416 116.893C23.6926 116.528 21.0079 116.249 18.2874 116.058C15.5668 115.866 12.8105 115.745 10.0184 115.745C7.22627 115.745 4.39835 115.849 1.51674 116.093C-1.36488 116.336 -4.28229 116.719 -7.2355 117.276C-10.2066 117.833 -13.2135 118.546 -16.292 119.468C-19.3705 120.39 -22.4848 121.521 -25.6707 122.913C-28.8566 124.305 -32.0961 125.941 -35.3894 127.872V119.155C-35.3894 119.155 -35.3894 114.144 -35.3894 111.551V102.834C-32.0782 100.885 -28.8387 99.2496 -25.6707 97.875C-22.5027 96.5004 -19.3705 95.352 -16.292 94.4299C-13.2135 93.5077 -10.2066 92.7769 -7.2355 92.2375C-4.26439 91.6981 -1.34698 91.2979 1.51674 91.0543C4.39835 90.8107 7.22627 90.7063 10.0184 90.7063C12.8105 90.7063 15.5668 90.8107 18.2874 91.0195C21.0079 91.2109 23.6926 91.5067 26.3416 91.8547C28.9905 92.2027 31.6215 92.6377 34.2168 93.1249C36.812 93.6121 39.3894 94.1341 41.9488 94.7082C44.5083 95.2824 47.0498 95.8914 49.5556 96.5352C52.0792 97.179 54.585 97.8576 57.0907 98.5362C59.5965 99.2322 62.0843 99.9456 64.5543 100.659C67.0421 101.372 69.5121 102.103 71.9999 102.834C74.4699 103.565 76.9577 104.296 79.4456 105.009C81.9335 105.722 84.4213 106.436 86.9092 107.132C89.4149 107.828 91.9207 108.489 94.4443 109.133C96.968 109.776 99.5095 110.385 102.051 110.96C104.611 111.534 107.188 112.073 109.783 112.543C112.378 113.03 115.009 113.448 117.658 113.813C120.307 114.179 122.992 114.457 125.713 114.648C128.433 114.84 131.189 114.962 133.981 114.962C136.774 114.962 139.602 114.857 142.483 114.614C145.365 114.37 148.282 113.987 151.235 113.43C154.189 112.874 157.213 112.16 160.292 111.238C163.37 110.316 166.485 109.185 169.671 107.793C172.856 106.401 176.096 104.765 179.389 102.834V111.551V119.155C179.389 119.155 179.389 124.531 179.389 127.872Z" fill="#7A1FA6" style="fill:#7A1FA6;fill:color(display-p3 0.4784 0.1216 0.6510);fill-opacity:1;"/>
</g>
<path d="M39.2601 29.03C35.4601 35.1 31.6301 42.74 30.8101 49.11C29.3101 60.84 37.9401 62.16 40.9501 56.34C43.9601 50.52 47.0401 44.63 51.9301 36.82C58.6901 26.03 69.7601 18.8 64.3201 14.11C58.8801 9.41998 47.2401 16.27 39.2601 29.03Z" fill="white" fill-opacity="0.65" style="fill:white;fill-opacity:0.65;"/>
</svg>
