<svg width="129" height="129" viewBox="0 0 129 129" fill="none" xmlns="http://www.w3.org/2000/svg">
<path d="M80.1436 120.5C80.1436 122.71 73.2936 124.5 64.8436 124.5C56.3936 124.5 49.5436 122.71 49.5436 120.5C49.5436 118.29 56.3936 116.49 64.8436 116.49C73.2936 116.49 80.1436 118.28 80.1436 120.5Z" fill="url(#paint0_radial_2634_1055)" style=""/>
<path d="M77.3436 31.1501C76.9036 30.3201 77.4636 29.4701 78.4336 28.4201C79.9736 26.7501 81.6436 22.8901 80.0936 18.9601C80.1036 18.9401 79.7836 18.2801 79.7936 18.2601L79.1536 18.2301C78.9436 18.2001 71.9136 18.1801 64.8736 18.1801C57.8336 18.1801 50.7936 18.1901 50.5936 18.2301C50.5936 18.2301 49.6436 18.9501 49.6536 18.9701C48.0936 22.8901 49.7736 26.7601 51.3136 28.4301C52.2836 29.4801 52.8536 30.3301 52.4036 31.1601C51.9736 31.9701 50.6836 32.0901 50.6836 32.0901C50.6836 32.0901 50.9836 32.9201 51.6936 33.3701C52.3536 33.7801 53.1736 33.8801 53.7336 33.8901C53.7336 33.8901 55.9336 37.0101 61.6736 37.0101H64.8736H68.0736C73.8236 37.0101 76.0136 33.8901 76.0136 33.8901C76.5736 33.8801 77.3936 33.7801 78.0536 33.3701C78.7736 32.9201 79.0636 32.0901 79.0636 32.0901C79.0636 32.0901 77.7736 31.9601 77.3436 31.1501Z" fill="#232020" style="fill:#232020;fill:color(display-p3 0.1373 0.1255 0.1255);fill-opacity:1;"/>
<path d="M64.8737 37.0101V33.5401L75.0837 32.7101L76.0137 33.8801C76.0137 33.8801 73.8137 37.0001 68.0737 37.0001L64.8737 37.0101Z" fill="url(#paint1_radial_2634_1055)" style=""/>
<path d="M75.9836 32.3701C74.4536 29.9801 77.8436 29.0901 77.8436 29.0901C77.2536 29.8401 76.9836 30.5001 77.3336 31.1501C77.7636 31.9601 79.0536 32.0801 79.0536 32.0801C79.0536 32.0801 77.3036 33.6801 75.9836 32.3701Z" fill="url(#paint2_radial_2634_1055)" style=""/>
<path d="M80.1037 18.9601C81.6237 22.7601 80.0237 26.6701 78.5237 28.3201C78.3137 28.5501 77.4437 29.4201 77.2537 30.1301C77.2537 30.1301 73.8437 25.2401 72.8237 22.3701C72.6137 21.7901 72.4337 21.1901 72.4037 20.5801C72.3837 20.1201 72.4537 19.5701 72.7137 19.1801C73.0337 18.7001 79.9237 18.5601 79.9237 18.5601L80.1037 18.9601Z" fill="url(#paint3_radial_2634_1055)" style=""/>
<path d="M49.6537 18.9601C48.1337 22.7601 49.7337 26.6701 51.2337 28.3201C51.4437 28.5501 52.3137 29.4201 52.5037 30.1301C52.5037 30.1301 55.9137 25.2401 56.9337 22.3701C57.1437 21.7901 57.3237 21.1901 57.3537 20.5801C57.3737 20.1201 57.3037 19.5701 57.0437 19.1801C56.7237 18.7001 56.3537 18.8301 55.8137 18.8301C54.7837 18.8301 50.2837 18.5601 49.9337 18.5601C49.9237 18.5601 49.6537 18.9601 49.6537 18.9601Z" fill="url(#paint4_radial_2634_1055)" style=""/>
<path d="M64.8837 37.0101V33.5401L54.6737 32.7101L53.7437 33.8801C53.7437 33.8801 55.9437 37.0001 61.6837 37.0001L64.8837 37.0101Z" fill="url(#paint5_radial_2634_1055)" style=""/>
<path d="M53.7736 32.3701C55.3036 29.9801 51.9136 29.0901 51.9136 29.0901C52.5036 29.8401 52.7736 30.5001 52.4236 31.1501C51.9936 31.9601 50.7036 32.0801 50.7036 32.0801C50.7036 32.0801 52.4436 33.6801 53.7736 32.3701Z" fill="url(#paint6_radial_2634_1055)" style=""/>
<path d="M64.8436 36.35H60.8036V40.63C60.8036 42.57 62.4536 44.14 64.4736 44.14H65.2036C67.2336 44.14 68.8836 42.57 68.8836 40.63V36.35H64.8436Z" fill="#3C2B24" style="fill:#3C2B24;fill:color(display-p3 0.2353 0.1686 0.1412);fill-opacity:1;"/>
<path d="M49.5436 70.62C49.7736 71.83 50.2836 72.96 51.0236 73.94C52.2836 75.61 54.6136 75.48 55.4736 75.5C57.0636 75.54 56.3736 71.43 56.3536 71.3C56.3536 71.3 56.0136 64.85 51.7736 64.85C50.0436 64.89 48.7636 66.47 49.0836 68.17L49.5436 70.62Z" fill="url(#paint7_linear_2634_1055)" style=""/>
<path d="M80.1437 70.62C79.9137 71.83 79.4037 72.96 78.6637 73.94C77.4037 75.61 75.0737 75.48 74.2137 75.5C72.6237 75.54 73.3137 71.43 73.3337 71.3C73.3337 71.3 73.6737 64.85 77.9137 64.85C79.6437 64.89 80.9237 66.47 80.6037 68.17L80.1437 70.62Z" fill="url(#paint8_linear_2634_1055)" style=""/>
<path d="M64.7737 108.98C64.7637 110.52 64.7037 112.62 62.4337 112.62C59.7737 112.62 58.4237 106.76 58.2437 105.31C58.0637 103.87 58.0637 101.17 58.0637 101.17L64.8337 101.16L64.7737 108.98Z" fill="url(#paint9_linear_2634_1055)" style=""/>
<path d="M63.8837 105.75C63.8737 106.84 63.0937 108.32 62.2337 108.32C60.3637 108.32 59.4037 104.19 59.2837 103.18C59.1637 102.17 59.1537 100.98 59.1537 100.98L63.9237 100.97L63.8837 105.75Z" fill="url(#paint10_linear_2634_1055)" style=""/>
<path d="M64.7637 108.98C64.7737 110.52 64.9537 112.62 67.1037 112.62C69.7637 112.62 71.1137 106.76 71.2937 105.31C71.4737 103.86 71.4737 101.17 71.4737 101.17L64.7037 101.16L64.7637 108.98Z" fill="url(#paint11_linear_2634_1055)" style=""/>
<path d="M65.6536 105.75C65.6636 106.84 66.4436 108.32 67.3036 108.32C69.1736 108.32 70.1237 104.19 70.2537 103.18C70.3837 102.17 70.3837 100.98 70.3837 100.98L65.6136 100.97L65.6536 105.75Z" fill="url(#paint12_linear_2634_1055)" style=""/>
<path d="M70.5037 102.46H59.1337C58.0937 102.46 57.2237 101.67 57.1237 100.63L54.0637 68.22H75.5837L72.5137 100.63C72.4237 101.67 71.5537 102.46 70.5037 102.46Z" fill="url(#paint13_linear_2634_1055)" style=""/>
<path opacity="0.5" d="M64.0037 72.57C63.5537 72.84 63.2837 73.34 63.2937 73.86L64.2437 101.44H65.4337L66.2137 73.85C66.2237 73.32 65.9537 72.83 65.5037 72.56H65.4937C65.0437 72.3 64.4637 72.3 64.0037 72.57Z" fill="url(#paint14_linear_2634_1055)" style=""/>
<path d="M74.2537 69.36H79.8137C80.8637 69.36 81.7337 68.56 81.8237 67.52L82.0837 64.64H74.2537V69.36Z" fill="#E5E5E5" style="fill:#E5E5E5;fill:color(display-p3 0.8980 0.8980 0.8980);fill-opacity:1;"/>
<path d="M55.7237 69.36H50.1637C49.1137 69.36 48.2437 68.56 48.1537 67.52L47.8937 64.64H55.7237V69.36Z" fill="#E5E5E5" style="fill:#E5E5E5;fill:color(display-p3 0.8980 0.8980 0.8980);fill-opacity:1;"/>
<path d="M80.3437 38.3C80.3437 38.3 74.3937 36.56 68.5937 35.97L64.9037 40.91L61.1337 36.02C55.3437 36.65 49.3337 38.31 49.3337 38.31C46.6037 39.05 45.5137 41.68 45.8437 45.73L47.7137 66H53.8337L54.5337 73.29H75.1637L75.8637 66H81.9837L83.8437 45.72C84.1637 41.67 83.0837 39.04 80.3437 38.3Z" fill="url(#paint15_linear_2634_1055)" style=""/>
<path d="M69.4637 50.98L64.8737 57.05L60.7637 50.98V41.98H69.4637V50.98Z" fill="#E5E5E5" style="fill:#E5E5E5;fill:color(display-p3 0.8980 0.8980 0.8980);fill-opacity:1;"/>
<path d="M64.9436 57.5999L62.6036 53.7099L63.8536 44.2999H66.0436L67.2936 53.6999L64.9436 57.5999Z" fill="#D32F2F" style="fill:#D32F2F;fill:color(display-p3 0.8275 0.1843 0.1843);fill-opacity:1;"/>
<path d="M66.0437 44.38H63.8537L62.8837 42.17L63.2937 40.89H66.5937L67.0037 42.17L66.0437 44.38Z" fill="#D32F2F" style="fill:#D32F2F;fill:color(display-p3 0.8275 0.1843 0.1843);fill-opacity:1;"/>
<path d="M61.1437 36.01L64.9137 40.9L61.1837 44.15L58.6937 36.33L61.1437 36.01Z" fill="white" style="fill:white;fill-opacity:1;"/>
<path d="M68.5637 35.96L64.9137 40.9L68.5837 44.12L71.1437 36.29C70.2237 36.13 68.5637 35.96 68.5637 35.96Z" fill="white" style="fill:white;fill-opacity:1;"/>
<path d="M75.2336 51.42H70.0836V50.79L72.6636 48.77L75.2336 50.79V51.42Z" fill="#D32F2F" style="fill:#D32F2F;fill:color(display-p3 0.8275 0.1843 0.1843);fill-opacity:1;"/>
<path d="M53.5837 37.35L55.5937 41L52.1937 41.44L64.8437 59.59L64.8337 55.59L58.6237 36.13L53.5837 37.35Z" fill="url(#paint16_linear_2634_1055)" style=""/>
<path d="M76.2037 37.35L74.2037 41L77.6037 41.44L64.8337 59.62V55.62L71.1637 36.13L76.2037 37.35Z" fill="url(#paint17_linear_2634_1055)" style=""/>
<path opacity="0.5" d="M52.5136 48.0799L53.5236 65.0199H54.7236L54.4136 47.8799C54.3936 47.5499 54.0536 47.0499 53.3536 47.1199C52.6536 47.1799 52.4636 47.7499 52.5136 48.0799Z" fill="url(#paint18_linear_2634_1055)" style=""/>
<path opacity="0.5" d="M77.2236 48.0799L76.1836 64.9699L75.0836 65.0099L75.3236 47.8799C75.3436 47.5499 75.6836 47.0499 76.3836 47.1199C77.0836 47.1799 77.2736 47.7499 77.2236 48.0799Z" fill="url(#paint19_linear_2634_1055)" style=""/>
<path d="M65.0737 65.76C66.1893 65.76 67.0937 64.8556 67.0937 63.74C67.0937 62.6244 66.1893 61.72 65.0737 61.72C63.9581 61.72 63.0537 62.6244 63.0537 63.74C63.0537 64.8556 63.9581 65.76 65.0737 65.76Z" fill="#212121" style="fill:#212121;fill:color(display-p3 0.1294 0.1294 0.1294);fill-opacity:1;"/>
<path d="M74.5237 21.8H71.9137H57.7737H55.1637C53.0737 21.8 51.3737 23.62 51.3737 25.84C51.3737 28.0601 53.0837 29.88 55.1637 29.88H57.7737H71.9137H74.5237C76.6137 29.88 78.3137 28.0601 78.3137 25.84C78.3137 23.62 76.6137 21.8 74.5237 21.8Z" fill="#3C2B24" style="fill:#3C2B24;fill:color(display-p3 0.2353 0.1686 0.1412);fill-opacity:1;"/>
<path d="M64.8436 7.5C58.6736 7.5 52.9636 14.09 52.9636 23.58C52.9636 33.02 58.8436 37.68 64.8436 37.68C70.8436 37.68 76.7236 33.01 76.7236 23.58C76.7236 14.09 71.0136 7.5 64.8436 7.5Z" fill="#70534A" style="fill:#70534A;fill:color(display-p3 0.4392 0.3255 0.2902);fill-opacity:1;"/>
<path d="M56.3736 21.9C57.0736 20.84 58.5736 20.48 59.7536 20.72C60.3836 20.84 61.0236 21.14 61.4736 21.62C61.8536 22.03 62.0436 22.78 61.2236 22.79C60.9236 22.8 60.5836 22.57 60.3036 22.48C59.6636 22.29 58.9736 22.24 58.3136 22.35C57.9936 22.4 57.6736 22.51 57.3636 22.61C57.1336 22.69 56.9836 22.84 56.7236 22.78C56.3636 22.69 56.1436 22.25 56.3736 21.9Z" fill="#1A1717" style="fill:#1A1717;fill:color(display-p3 0.1020 0.0902 0.0902);fill-opacity:1;"/>
<path d="M72.6936 22.7501C71.8236 22.2901 70.7436 22.1701 69.7936 22.3801C69.3336 22.4801 67.3336 23.3101 68.0536 21.8901C68.6336 20.7501 70.5036 20.4801 71.5736 20.7401C72.1436 20.8801 72.7836 21.1701 73.1736 21.6301C73.5536 22.0501 73.5336 23.0901 72.6936 22.7501Z" fill="#1A1717" style="fill:#1A1717;fill:color(display-p3 0.1020 0.0902 0.0902);fill-opacity:1;"/>
<path d="M67.8236 31.65C66.6936 32.32 62.9936 32.32 61.8636 31.65C61.2136 31.26 60.5536 31.85 60.8236 32.44C61.0836 33.02 63.1036 34.36 64.8536 34.36C66.6036 34.36 68.5936 33.02 68.8536 32.44C69.1236 31.86 68.4736 31.27 67.8236 31.65Z" fill="#1A1717" style="fill:#1A1717;fill:color(display-p3 0.1020 0.0902 0.0902);fill-opacity:1;"/>
<path d="M66.2137 28.31C66.1737 28.3 66.1337 28.29 66.1037 28.28H63.5937C63.5537 28.28 63.5137 28.29 63.4837 28.31C63.2537 28.4 63.1337 28.64 63.2437 28.89C63.3537 29.14 63.8537 29.84 64.8537 29.84C65.8637 29.84 66.3537 29.14 66.4637 28.89C66.5637 28.64 66.4337 28.41 66.2137 28.31Z" fill="#33251F" style="fill:#33251F;fill:color(display-p3 0.2000 0.1451 0.1216);fill-opacity:1;"/>
<path d="M76.2036 27.66C76.1836 27.49 77.4536 25.37 77.6736 23.22C77.7536 22.47 78.2836 19.96 77.7436 18.38C76.1236 11.9 71.7836 8 64.7936 8C57.4536 8 52.9436 11.9 51.7036 18.88C51.7036 20.17 52.2536 22.15 52.2536 22.15C52.0336 26 53.2436 27.86 53.2436 27.86C53.2436 27.86 54.7536 21.25 54.6136 20.24C54.6136 20.24 57.3936 19.69 60.5436 17.88C62.6736 16.66 64.1336 15.23 66.5236 14.69C70.1636 13.87 70.9836 16.51 70.9836 16.51C70.9836 16.51 74.3536 15.86 75.3736 20.55C75.7936 22.48 75.9736 25.7 76.2036 27.66Z" fill="#232020" style="fill:#232020;fill:color(display-p3 0.1373 0.1255 0.1255);fill-opacity:1;"/>
<path d="M77.9336 15.38C77.9336 15.38 76.6936 8.04 75.2536 6.39C73.8236 4.76 68.2136 4.51 64.8436 4.5C61.4736 4.51 55.8636 4.76 54.4336 6.39C52.9836 8.04 51.7536 15.38 51.7536 15.38C51.7536 15.38 46.2536 17.01 48.6436 18.41C49.8136 19.09 54.9236 19.52 64.8436 19.53C74.7636 19.52 79.8736 19.1 81.0436 18.41C83.4436 17.01 77.9336 15.38 77.9336 15.38Z" fill="url(#paint20_linear_2634_1055)" style=""/>
<path d="M76.4936 22.62L76.2336 22.56C74.5736 22.17 72.8836 21.98 71.1936 21.98C70.5636 21.98 69.5236 22.13 68.4736 22.31C66.0936 22.73 63.6536 22.73 61.2836 22.31C60.2136 22.12 59.1636 21.97 58.5236 21.97C56.8236 21.97 55.1336 22.17 53.4736 22.55L53.2136 22.61C53.0036 22.66 52.8336 22.84 52.8336 23.04V24.12C52.8336 24.39 53.1036 24.6 53.3936 24.56L53.8336 27.33C54.1236 29.22 55.7736 30.91 58.5836 30.91C61.4936 30.91 62.9436 28.24 63.6336 26.01C63.8036 25.48 64.2936 25.11 64.8536 25.11C64.8636 25.11 64.8636 25.11 64.8736 25.11C65.4336 25.11 65.9236 25.48 66.0936 26.01C66.7936 28.24 68.2336 30.91 71.1436 30.91C73.9536 30.91 75.6036 29.22 75.8936 27.33L76.3136 24.56C76.5936 24.59 76.8536 24.39 76.8536 24.12V23.04C76.8636 22.85 76.7136 22.67 76.4936 22.62Z" fill="url(#paint21_linear_2634_1055)" style=""/>
<defs>
<radialGradient id="paint0_radial_2634_1055" cx="0" cy="0" r="1" gradientUnits="userSpaceOnUse" gradientTransform="translate(64.8431 120.494) scale(15.2017 4.63652)">
<stop offset="0.1396" stop-color="#504F4F" stop-opacity="0.8" style="stop-color:#504F4F;stop-color:color(display-p3 0.3137 0.3098 0.3098);stop-opacity:0.8;"/>
<stop offset="0.8722" stop-color="#616161" stop-opacity="0" style="stop-color:none;stop-opacity:0;"/>
</radialGradient>
<radialGradient id="paint1_radial_2634_1055" cx="0" cy="0" r="1" gradientUnits="userSpaceOnUse" gradientTransform="translate(70.086 31.9986) scale(8.3693 4.22315)">
<stop offset="0.7275" stop-color="#444140" stop-opacity="0" style="stop-color:none;stop-opacity:0;"/>
<stop offset="1" stop-color="#444140" style="stop-color:#444140;stop-color:color(display-p3 0.2667 0.2549 0.2510);stop-opacity:1;"/>
</radialGradient>
<radialGradient id="paint2_radial_2634_1055" cx="0" cy="0" r="1" gradientUnits="userSpaceOnUse" gradientTransform="translate(78.3333 30.724) rotate(154.325) scale(2.48547 1.87566)">
<stop offset="0.6628" stop-color="#444140" style="stop-color:#444140;stop-color:color(display-p3 0.2667 0.2549 0.2510);stop-opacity:1;"/>
<stop offset="1" stop-color="#444140" stop-opacity="0" style="stop-color:none;stop-opacity:0;"/>
</radialGradient>
<radialGradient id="paint3_radial_2634_1055" cx="0" cy="0" r="1" gradientUnits="userSpaceOnUse" gradientTransform="translate(71.9216 23.5348) rotate(-94.1651) scale(11.1583 9.05548)">
<stop offset="0.7247" stop-color="#444140" stop-opacity="0" style="stop-color:none;stop-opacity:0;"/>
<stop offset="1" stop-color="#444140" style="stop-color:#444140;stop-color:color(display-p3 0.2667 0.2549 0.2510);stop-opacity:1;"/>
</radialGradient>
<radialGradient id="paint4_radial_2634_1055" cx="0" cy="0" r="1" gradientUnits="userSpaceOnUse" gradientTransform="translate(57.8363 23.534) rotate(-85.8349) scale(11.1583 9.05548)">
<stop offset="0.7247" stop-color="#444140" stop-opacity="0" style="stop-color:none;stop-opacity:0;"/>
<stop offset="1" stop-color="#444140" style="stop-color:#444140;stop-color:color(display-p3 0.2667 0.2549 0.2510);stop-opacity:1;"/>
</radialGradient>
<radialGradient id="paint5_radial_2634_1055" cx="0" cy="0" r="1" gradientUnits="userSpaceOnUse" gradientTransform="translate(59.6709 31.9986) rotate(180) scale(8.3693 4.22315)">
<stop offset="0.7275" stop-color="#444140" stop-opacity="0" style="stop-color:none;stop-opacity:0;"/>
<stop offset="1" stop-color="#444140" style="stop-color:#444140;stop-color:color(display-p3 0.2667 0.2549 0.2510);stop-opacity:1;"/>
</radialGradient>
<radialGradient id="paint6_radial_2634_1055" cx="0" cy="0" r="1" gradientUnits="userSpaceOnUse" gradientTransform="translate(51.4257 30.723) rotate(25.6751) scale(2.48547 1.87566)">
<stop offset="0.6628" stop-color="#444140" style="stop-color:#444140;stop-color:color(display-p3 0.2667 0.2549 0.2510);stop-opacity:1;"/>
<stop offset="1" stop-color="#444140" stop-opacity="0" style="stop-color:none;stop-opacity:0;"/>
</radialGradient>
<linearGradient id="paint7_linear_2634_1055" x1="52.7775" y1="69.8961" x2="52.7775" y2="80.5433" gradientUnits="userSpaceOnUse">
<stop stop-color="#5C4037" style="stop-color:#5C4037;stop-color:color(display-p3 0.3608 0.2510 0.2157);stop-opacity:1;"/>
<stop offset="0.5" stop-color="#70534A" style="stop-color:#70534A;stop-color:color(display-p3 0.4392 0.3255 0.2902);stop-opacity:1;"/>
</linearGradient>
<linearGradient id="paint8_linear_2634_1055" x1="76.9098" y1="69.5527" x2="76.9098" y2="80.1999" gradientUnits="userSpaceOnUse">
<stop stop-color="#5C4037" style="stop-color:#5C4037;stop-color:color(display-p3 0.3608 0.2510 0.2157);stop-opacity:1;"/>
<stop offset="0.5" stop-color="#70534A" style="stop-color:#70534A;stop-color:color(display-p3 0.4392 0.3255 0.2902);stop-opacity:1;"/>
</linearGradient>
<linearGradient id="paint9_linear_2634_1055" x1="61.4417" y1="100.928" x2="61.4417" y2="112.294" gradientUnits="userSpaceOnUse">
<stop stop-color="#212121" style="stop-color:#212121;stop-color:color(display-p3 0.1294 0.1294 0.1294);stop-opacity:1;"/>
<stop offset="0.7876" stop-color="#616161" style="stop-color:#616161;stop-color:color(display-p3 0.3804 0.3804 0.3804);stop-opacity:1;"/>
</linearGradient>
<linearGradient id="paint10_linear_2634_1055" x1="61.5357" y1="101.172" x2="61.5357" y2="108.024" gradientUnits="userSpaceOnUse">
<stop offset="0.1222" stop-color="#BDBDBD" style="stop-color:#BDBDBD;stop-color:color(display-p3 0.7412 0.7412 0.7412);stop-opacity:1;"/>
<stop offset="0.7213" stop-color="#EEEEEE" style="stop-color:#EEEEEE;stop-color:color(display-p3 0.9333 0.9333 0.9333);stop-opacity:1;"/>
</linearGradient>
<linearGradient id="paint11_linear_2634_1055" x1="68.0897" y1="100.928" x2="68.0897" y2="112.294" gradientUnits="userSpaceOnUse">
<stop stop-color="#212121" style="stop-color:#212121;stop-color:color(display-p3 0.1294 0.1294 0.1294);stop-opacity:1;"/>
<stop offset="0.7876" stop-color="#616161" style="stop-color:#616161;stop-color:color(display-p3 0.3804 0.3804 0.3804);stop-opacity:1;"/>
</linearGradient>
<linearGradient id="paint12_linear_2634_1055" x1="67.9966" y1="101.172" x2="67.9966" y2="108.024" gradientUnits="userSpaceOnUse">
<stop offset="0.1222" stop-color="#BDBDBD" style="stop-color:#BDBDBD;stop-color:color(display-p3 0.7412 0.7412 0.7412);stop-opacity:1;"/>
<stop offset="0.7213" stop-color="#EEEEEE" style="stop-color:#EEEEEE;stop-color:color(display-p3 0.9333 0.9333 0.9333);stop-opacity:1;"/>
</linearGradient>
<linearGradient id="paint13_linear_2634_1055" x1="64.8272" y1="65.1353" x2="64.8272" y2="99.1392" gradientUnits="userSpaceOnUse">
<stop stop-color="#212121" style="stop-color:#212121;stop-color:color(display-p3 0.1294 0.1294 0.1294);stop-opacity:1;"/>
<stop offset="0.8778" stop-color="#616161" style="stop-color:#616161;stop-color:color(display-p3 0.3804 0.3804 0.3804);stop-opacity:1;"/>
</linearGradient>
<linearGradient id="paint14_linear_2634_1055" x1="64.7566" y1="101.454" x2="64.7566" y2="72.365" gradientUnits="userSpaceOnUse">
<stop stop-color="#616161" stop-opacity="0.2" style="stop-color:#616161;stop-color:color(display-p3 0.3804 0.3804 0.3804);stop-opacity:0.2;"/>
<stop offset="0.7537" stop-color="#212121" style="stop-color:#212121;stop-color:color(display-p3 0.1294 0.1294 0.1294);stop-opacity:1;"/>
</linearGradient>
<linearGradient id="paint15_linear_2634_1055" x1="64.8435" y1="39.9267" x2="64.8435" y2="77.8369" gradientUnits="userSpaceOnUse">
<stop offset="0.3285" stop-color="#5F5F5F" style="stop-color:#5F5F5F;stop-color:color(display-p3 0.3725 0.3725 0.3725);stop-opacity:1;"/>
<stop offset="1" stop-color="#212121" style="stop-color:#212121;stop-color:color(display-p3 0.1294 0.1294 0.1294);stop-opacity:1;"/>
</linearGradient>
<linearGradient id="paint16_linear_2634_1055" x1="58.5187" y1="29.6041" x2="58.5187" y2="55.9703" gradientUnits="userSpaceOnUse">
<stop offset="0.1709" stop-color="#616161" style="stop-color:#616161;stop-color:color(display-p3 0.3804 0.3804 0.3804);stop-opacity:1;"/>
<stop offset="0.8364" stop-color="#212121" style="stop-color:#212121;stop-color:color(display-p3 0.1294 0.1294 0.1294);stop-opacity:1;"/>
</linearGradient>
<linearGradient id="paint17_linear_2634_1055" x1="71.2152" y1="29.5969" x2="71.2152" y2="55.9923" gradientUnits="userSpaceOnUse">
<stop offset="0.1709" stop-color="#616161" style="stop-color:#616161;stop-color:color(display-p3 0.3804 0.3804 0.3804);stop-opacity:1;"/>
<stop offset="0.8364" stop-color="#212121" style="stop-color:#212121;stop-color:color(display-p3 0.1294 0.1294 0.1294);stop-opacity:1;"/>
</linearGradient>
<linearGradient id="paint18_linear_2634_1055" x1="53.6146" y1="65.0189" x2="53.6146" y2="47.1053" gradientUnits="userSpaceOnUse">
<stop stop-color="#616161" stop-opacity="0.2" style="stop-color:#616161;stop-color:color(display-p3 0.3804 0.3804 0.3804);stop-opacity:0.2;"/>
<stop offset="0.7537" stop-color="#212121" style="stop-color:#212121;stop-color:color(display-p3 0.1294 0.1294 0.1294);stop-opacity:1;"/>
</linearGradient>
<linearGradient id="paint19_linear_2634_1055" x1="76.1585" y1="65.0069" x2="76.1585" y2="47.1063" gradientUnits="userSpaceOnUse">
<stop stop-color="#616161" stop-opacity="0.2" style="stop-color:#616161;stop-color:color(display-p3 0.3804 0.3804 0.3804);stop-opacity:0.2;"/>
<stop offset="0.7537" stop-color="#212121" style="stop-color:#212121;stop-color:color(display-p3 0.1294 0.1294 0.1294);stop-opacity:1;"/>
</linearGradient>
<linearGradient id="paint20_linear_2634_1055" x1="64.8439" y1="3.1618" x2="64.8439" y2="22.4204" gradientUnits="userSpaceOnUse">
<stop offset="0.4429" stop-color="#5F5F5F" style="stop-color:#5F5F5F;stop-color:color(display-p3 0.3725 0.3725 0.3725);stop-opacity:1;"/>
<stop offset="1" stop-color="#212121" style="stop-color:#212121;stop-color:color(display-p3 0.1294 0.1294 0.1294);stop-opacity:1;"/>
</linearGradient>
<linearGradient id="paint21_linear_2634_1055" x1="64.8456" y1="21.7643" x2="64.8456" y2="30.7857" gradientUnits="userSpaceOnUse">
<stop offset="0.005" stop-color="#616161" style="stop-color:#616161;stop-color:color(display-p3 0.3804 0.3804 0.3804);stop-opacity:1;"/>
<stop offset="0.4" stop-color="#212121" style="stop-color:#212121;stop-color:color(display-p3 0.1294 0.1294 0.1294);stop-opacity:1;"/>
</linearGradient>
</defs>
</svg>
