<svg width="128" height="128" viewBox="0 0 128 128" fill="none" xmlns="http://www.w3.org/2000/svg">
<path d="M63.6001 118.8C35.7001 118.8 5.6001 101.3 5.6001 62.9C5.6001 24.5 35.7001 7 63.6001 7C79.1001 7 93.4001 12.1 104 21.4C115.5 31.6 121.6 46 121.6 62.9C121.6 79.8 115.5 94.1 104 104.3C93.4001 113.6 79.0001 118.8 63.6001 118.8Z" fill="url(#paint0_radial_169_12670)" style=""/>
<path d="M63.6001 118.8C35.7001 118.8 5.6001 101.3 5.6001 62.9C5.6001 24.5 35.7001 7 63.6001 7C79.1001 7 93.4001 12.1 104 21.4C115.5 31.6 121.6 46 121.6 62.9C121.6 79.8 115.5 94.1 104 104.3C93.4001 113.6 79.0001 118.8 63.6001 118.8Z" fill="url(#paint1_radial_169_12670)" style=""/>
<path d="M63.6001 118.8C35.7001 118.8 5.6001 101.3 5.6001 62.9C5.6001 24.5 35.7001 7 63.6001 7C79.1001 7 93.4001 12.1 104 21.4C115.5 31.6 121.6 46 121.6 62.9C121.6 79.8 115.5 94.1 104 104.3C93.4001 113.6 79.0001 118.8 63.6001 118.8Z" fill="url(#paint2_radial_169_12670)" style=""/>
<path d="M63.6001 118.8C35.7001 118.8 5.6001 101.3 5.6001 62.9C5.6001 24.5 35.7001 7 63.6001 7C79.1001 7 93.4001 12.1 104 21.4C115.5 31.6 121.6 46 121.6 62.9C121.6 79.8 115.5 94.1 104 104.3C93.4001 113.6 79.0001 118.8 63.6001 118.8Z" fill="url(#paint3_radial_169_12670)" style=""/>
<path d="M63.6001 118.8C35.7001 118.8 5.6001 101.3 5.6001 62.9C5.6001 24.5 35.7001 7 63.6001 7C79.1001 7 93.4001 12.1 104 21.4C115.5 31.6 121.6 46 121.6 62.9C121.6 79.8 115.5 94.1 104 104.3C93.4001 113.6 79.0001 118.8 63.6001 118.8Z" fill="url(#paint4_radial_169_12670)" style=""/>
<path d="M111.49 29.67C116.82 38.27 119.6 48.51 119.6 59.9C119.6 76.8 113.5 91.1 102 101.3C91.3999 110.6 76.9999 115.8 61.5999 115.8C43.5399 115.8 24.5999 108.45 13.4199 92.86C24.1799 110.52 44.4199 118.8 63.5999 118.8C78.9999 118.8 93.3999 113.6 104 104.3C115.5 94.1 121.6 79.8 121.6 62.9C121.6 50.16 118.13 38.84 111.49 29.67Z" fill="#EB8F00" style="fill:#EB8F00;fill:color(display-p3 0.9216 0.5608 0.0000);fill-opacity:1;"/>
<path d="M111.49 29.67C116.82 38.27 119.6 48.51 119.6 59.9C119.6 76.8 113.5 91.1 102 101.3C91.3999 110.6 76.9999 115.8 61.5999 115.8C43.5399 115.8 24.5999 108.45 13.4199 92.86C24.1799 110.52 44.4199 118.8 63.5999 118.8C78.9999 118.8 93.3999 113.6 104 104.3C115.5 94.1 121.6 79.8 121.6 62.9C121.6 50.16 118.13 38.84 111.49 29.67Z" fill="#F3B872" style="fill:#F3B872;fill:color(display-p3 0.9542 0.7229 0.4453);fill-opacity:1;"/>
<path d="M111.49 29.67C116.82 38.27 119.6 48.51 119.6 59.9C119.6 76.8 113.5 91.1 102 101.3C91.3999 110.6 76.9999 115.8 61.5999 115.8C43.5399 115.8 24.5999 108.45 13.4199 92.86C24.1799 110.52 44.4199 118.8 63.5999 118.8C78.9999 118.8 93.3999 113.6 104 104.3C115.5 94.1 121.6 79.8 121.6 62.9C121.6 50.16 118.13 38.84 111.49 29.67Z" fill="#91674D" style="fill:#91674D;fill:color(display-p3 0.5686 0.4039 0.3020);fill-opacity:1;"/>
<path d="M31.5304 60.38L43.7004 58L31.1504 52.82L30.7304 52.59C28.6904 51.5 27.9104 48.97 29.0004 46.92C29.2404 46.43 29.5804 46 30.0004 45.65C32.0004 44.11 34.7504 43.99 36.8804 45.35L58.1504 58.35C58.6704 58.54 58.9304 59.11 58.7404 59.63C58.6104 59.98 58.3004 60.23 57.9304 60.28L35.0004 68.93C34.8404 68.96 34.6704 69.01 34.5204 69.08C31.5204 69.92 28.1904 68.2 27.7304 65.3C27.4004 63.1 29.1004 61.05 31.5304 60.38Z" fill="#49362E" style="fill:#49362E;fill:color(display-p3 0.2863 0.2118 0.1804);fill-opacity:1;"/>
<path d="M31.5304 60.38L43.7004 58L31.1504 52.82L30.7304 52.59C28.6904 51.5 27.9104 48.97 29.0004 46.92C29.2404 46.43 29.5804 46 30.0004 45.65C32.0004 44.11 34.7504 43.99 36.8804 45.35L58.1504 58.35C58.6704 58.54 58.9304 59.11 58.7404 59.63C58.6104 59.98 58.3004 60.23 57.9304 60.28L35.0004 68.93C34.8404 68.96 34.6704 69.01 34.5204 69.08C31.5204 69.92 28.1904 68.2 27.7304 65.3C27.4004 63.1 29.1004 61.05 31.5304 60.38Z" fill="#1A1717" style="fill:#1A1717;fill:color(display-p3 0.1020 0.0902 0.0902);fill-opacity:1;"/>
<path d="M31.5304 60.38L43.7004 58L31.1504 52.82L30.7304 52.59C28.6904 51.5 27.9104 48.97 29.0004 46.92C29.2404 46.43 29.5804 46 30.0004 45.65C32.0004 44.11 34.7504 43.99 36.8804 45.35L58.1504 58.35C58.6704 58.54 58.9304 59.11 58.7404 59.63C58.6104 59.98 58.3004 60.23 57.9304 60.28L35.0004 68.93C34.8404 68.96 34.6704 69.01 34.5204 69.08C31.5204 69.92 28.1904 68.2 27.7304 65.3C27.4004 63.1 29.1004 61.05 31.5304 60.38Z" fill="#49362E" style="fill:#49362E;fill:color(display-p3 0.2863 0.2118 0.1804);fill-opacity:1;"/>
<path d="M96.4703 60.13L84.3003 57.78L96.8503 52.57L97.2703 52.34C99.3103 51.25 100.09 48.72 99.0003 46.67C98.7603 46.18 98.4203 45.75 98.0003 45.4C96.0003 43.86 93.2503 43.74 91.1203 45.1L69.8503 58.1C69.3303 58.29 69.0703 58.86 69.2603 59.38C69.3903 59.73 69.7003 59.98 70.0703 60.03L93.0003 68.68C93.1603 68.71 93.3303 68.76 93.4803 68.83C96.4803 69.67 99.8103 67.95 100.27 65.05C100.6 62.85 98.9003 60.8 96.4703 60.13Z" fill="#49362E" style="fill:#49362E;fill:color(display-p3 0.2863 0.2118 0.1804);fill-opacity:1;"/>
<path d="M96.4703 60.13L84.3003 57.78L96.8503 52.57L97.2703 52.34C99.3103 51.25 100.09 48.72 99.0003 46.67C98.7603 46.18 98.4203 45.75 98.0003 45.4C96.0003 43.86 93.2503 43.74 91.1203 45.1L69.8503 58.1C69.3303 58.29 69.0703 58.86 69.2603 59.38C69.3903 59.73 69.7003 59.98 70.0703 60.03L93.0003 68.68C93.1603 68.71 93.3303 68.76 93.4803 68.83C96.4803 69.67 99.8103 67.95 100.27 65.05C100.6 62.85 98.9003 60.8 96.4703 60.13Z" fill="#1A1717" style="fill:#1A1717;fill:color(display-p3 0.1020 0.0902 0.0902);fill-opacity:1;"/>
<path d="M96.4703 60.13L84.3003 57.78L96.8503 52.57L97.2703 52.34C99.3103 51.25 100.09 48.72 99.0003 46.67C98.7603 46.18 98.4203 45.75 98.0003 45.4C96.0003 43.86 93.2503 43.74 91.1203 45.1L69.8503 58.1C69.3303 58.29 69.0703 58.86 69.2603 59.38C69.3903 59.73 69.7003 59.98 70.0703 60.03L93.0003 68.68C93.1603 68.71 93.3303 68.76 93.4803 68.83C96.4803 69.67 99.8103 67.95 100.27 65.05C100.6 62.85 98.9003 60.8 96.4703 60.13Z" fill="#49362E" style="fill:#49362E;fill:color(display-p3 0.2863 0.2118 0.1804);fill-opacity:1;"/>
<path d="M62.8203 80.43C51.3203 80.49 39.8403 79.53 28.5103 77.54C26.6103 77.18 24.7703 78.43 24.4103 80.33C24.3203 80.77 24.3203 81.23 24.4103 81.67C27.6703 97.67 43.4103 110.8 62.8103 110.8C84.0203 110.8 98.2903 97.23 101.26 81.61C101.6 79.7 100.34 77.88 98.4303 77.53C98.0103 77.46 97.5703 77.46 97.1503 77.53C85.8203 79.52 74.3303 80.49 62.8203 80.43Z" fill="#49362E" style="fill:#49362E;fill:color(display-p3 0.2863 0.2118 0.1804);fill-opacity:1;"/>
<path d="M62.8203 80.43C51.3203 80.49 39.8403 79.53 28.5103 77.54C26.6103 77.18 24.7703 78.43 24.4103 80.33C24.3203 80.77 24.3203 81.23 24.4103 81.67C27.6703 97.67 43.4103 110.8 62.8103 110.8C84.0203 110.8 98.2903 97.23 101.26 81.61C101.6 79.7 100.34 77.88 98.4303 77.53C98.0103 77.46 97.5703 77.46 97.1503 77.53C85.8203 79.52 74.3303 80.49 62.8203 80.43Z" fill="#49362E" style="fill:#49362E;fill:color(display-p3 0.2863 0.2118 0.1804);fill-opacity:1;"/>
<path d="M62.8203 80.43C51.3203 80.49 39.8403 79.53 28.5103 77.54C26.6103 77.18 24.7703 78.43 24.4103 80.33C24.3203 80.77 24.3203 81.23 24.4103 81.67C27.6703 97.67 43.4103 110.8 62.8103 110.8C84.0203 110.8 98.2903 97.23 101.26 81.61C101.6 79.7 100.34 77.88 98.4303 77.53C98.0103 77.46 97.5703 77.46 97.1503 77.53C85.8203 79.52 74.3303 80.49 62.8203 80.43Z" fill="#1A1717" style="fill:#1A1717;fill:color(display-p3 0.1020 0.0902 0.0902);fill-opacity:1;"/>
<path d="M62.8203 80.43C51.3203 80.49 39.8403 79.53 28.5103 77.54C26.6103 77.18 24.7703 78.43 24.4103 80.33C24.3203 80.77 24.3203 81.23 24.4103 81.67C27.6703 97.67 43.4103 110.8 62.8103 110.8C84.0203 110.8 98.2903 97.23 101.26 81.61C101.6 79.7 100.34 77.88 98.4303 77.53C98.0103 77.46 97.5703 77.46 97.1503 77.53C85.8203 79.52 74.3303 80.49 62.8203 80.43Z" fill="#5D4037" style="fill:#5D4037;fill:color(display-p3 0.3647 0.2510 0.2157);fill-opacity:1;"/>
<path d="M44.7402 87.83V108.83C44.7502 118.31 52.4302 125.99 61.9102 126H65.1802C74.6602 126 82.3502 118.31 82.3502 108.83V87.61C63.5402 91.31 49.4802 88.9 44.7402 87.83Z" fill="#FF4081" style="fill:#FF4081;fill:color(display-p3 1.0000 0.2510 0.5059);fill-opacity:1;"/>
<path d="M65.5405 85H61.5405C55.8105 85 50.1605 84.73 44.7305 84.28V87.83C49.4705 88.9 63.5305 91.31 82.3405 87.61V84.15C76.9305 84.64 71.2905 84.93 65.5405 85Z" fill="#FF4081" style="fill:#FF4081;fill:color(display-p3 1.0000 0.2510 0.5059);fill-opacity:1;"/>
<path opacity="0.3" d="M65.5405 85H61.5405C55.8105 85 50.1605 84.73 44.7305 84.28V87.83C49.4705 88.9 63.5305 91.31 82.3405 87.61V84.15C76.9305 84.64 71.2905 84.93 65.5405 85Z" fill="#AB3F2E" style="fill:#AB3F2E;fill:color(display-p3 0.6706 0.2471 0.1804);fill-opacity:1;"/>
<path opacity="0.3" d="M63.55 106.25C64.65 106.25 65.5501 105.35 65.5501 104.25V85H61.55V104.24C61.55 105.34 62.45 106.24 63.55 106.24V106.25Z" fill="#AB3F2E" style="fill:#AB3F2E;fill:color(display-p3 0.6706 0.2471 0.1804);fill-opacity:1;"/>
<defs>
<radialGradient id="paint0_radial_169_12670" cx="0" cy="0" r="1" gradientUnits="userSpaceOnUse" gradientTransform="translate(63.6001 62.9) scale(56.9597 56.9597)">
<stop offset="0.5" stop-color="#FDE030" style="stop-color:#FDE030;stop-color:color(display-p3 0.9922 0.8784 0.1882);stop-opacity:1;"/>
<stop offset="0.92" stop-color="#F7C02B" style="stop-color:#F7C02B;stop-color:color(display-p3 0.9686 0.7529 0.1686);stop-opacity:1;"/>
<stop offset="1" stop-color="#F4A223" style="stop-color:#F4A223;stop-color:color(display-p3 0.9569 0.6353 0.1373);stop-opacity:1;"/>
</radialGradient>
<radialGradient id="paint1_radial_169_12670" cx="0" cy="0" r="1" gradientUnits="userSpaceOnUse" gradientTransform="translate(38.5991 34.5377) rotate(-43.2082) scale(102.024 101.825)">
<stop offset="0.3533" stop-color="#F9DDBD" style="stop-color:#F9DDBD;stop-color:color(display-p3 0.9765 0.8667 0.7412);stop-opacity:1;"/>
<stop offset="0.8723" stop-color="#FFD29C" style="stop-color:#FFD29C;stop-color:color(display-p3 1.0000 0.8235 0.6118);stop-opacity:1;"/>
</radialGradient>
<radialGradient id="paint2_radial_169_12670" cx="0" cy="0" r="1" gradientUnits="userSpaceOnUse" gradientTransform="translate(38.5991 34.5377) rotate(-43.2082) scale(102.024 101.825)">
<stop offset="0.3533" stop-color="#70534A" style="stop-color:#70534A;stop-color:color(display-p3 0.4392 0.3255 0.2902);stop-opacity:1;"/>
<stop offset="0.8723" stop-color="#5C4037" style="stop-color:#5C4037;stop-color:color(display-p3 0.3608 0.2510 0.2157);stop-opacity:1;"/>
</radialGradient>
<radialGradient id="paint3_radial_169_12670" cx="0" cy="0" r="1" gradientUnits="userSpaceOnUse" gradientTransform="translate(38.5991 34.5377) rotate(-43.2082) scale(102.024 101.825)">
<stop offset="0.3533" stop-color="#A37A58" style="stop-color:#A37A58;stop-color:color(display-p3 0.6375 0.4772 0.3453);stop-opacity:1;"/>
<stop offset="0.8723" stop-color="#8D5738" style="stop-color:#8D5738;stop-color:color(display-p3 0.5529 0.3412 0.2196);stop-opacity:1;"/>
</radialGradient>
<radialGradient id="paint4_radial_169_12670" cx="0" cy="0" r="1" gradientUnits="userSpaceOnUse" gradientTransform="translate(38.5991 34.5377) rotate(-43.2082) scale(102.024 101.825)">
<stop offset="0.3533" stop-color="#AD8264" style="stop-color:#AD8264;stop-color:color(display-p3 0.6784 0.5098 0.3922);stop-opacity:1;"/>
<stop offset="0.8723" stop-color="#A47B62" style="stop-color:#A47B62;stop-color:color(display-p3 0.6431 0.4824 0.3843);stop-opacity:1;"/>
</radialGradient>
</defs>
</svg>
