<svg width="128" height="128" viewBox="0 0 128 128" fill="none" xmlns="http://www.w3.org/2000/svg">
<path d="M63.6 118.8C35.7 118.8 5.59998 101.3 5.59998 62.9C5.59998 24.5 35.7 7 63.6 7C79.1 7 93.4 12.1 104 21.4C115.5 31.6 121.6 46 121.6 62.9C121.6 79.8 115.5 94.1 104 104.3C93.4 113.6 79 118.8 63.6 118.8Z" fill="url(#paint0_radial_169_7540)" style=""/>
<path d="M63.6 118.8C35.7 118.8 5.59998 101.3 5.59998 62.9C5.59998 24.5 35.7 7 63.6 7C79.1 7 93.4 12.1 104 21.4C115.5 31.6 121.6 46 121.6 62.9C121.6 79.8 115.5 94.1 104 104.3C93.4 113.6 79 118.8 63.6 118.8Z" fill="url(#paint1_radial_169_7540)" style=""/>
<path d="M63.6 118.8C35.7 118.8 5.59998 101.3 5.59998 62.9C5.59998 24.5 35.7 7 63.6 7C79.1 7 93.4 12.1 104 21.4C115.5 31.6 121.6 46 121.6 62.9C121.6 79.8 115.5 94.1 104 104.3C93.4 113.6 79 118.8 63.6 118.8Z" fill="url(#paint2_radial_169_7540)" style=""/>
<path d="M111.49 29.67C116.82 38.27 119.6 48.51 119.6 59.9C119.6 76.8 113.5 91.1 102 101.3C91.4 110.6 77 115.8 61.6 115.8C43.54 115.8 24.6 108.45 13.42 92.86C24.18 110.52 44.42 118.8 63.6 118.8C79 118.8 93.4 113.6 104 104.3C115.5 94.1001 121.6 79.8 121.6 62.9C121.6 50.16 118.13 38.84 111.49 29.67Z" fill="#EB8F00" style="fill:#EB8F00;fill:color(display-p3 0.9216 0.5608 0.0000);fill-opacity:1;"/>
<path d="M111.49 29.67C116.82 38.27 119.6 48.51 119.6 59.9C119.6 76.8 113.5 91.1 102 101.3C91.4 110.6 77 115.8 61.6 115.8C43.54 115.8 24.6 108.45 13.42 92.86C24.18 110.52 44.42 118.8 63.6 118.8C79 118.8 93.4 113.6 104 104.3C115.5 94.1001 121.6 79.8 121.6 62.9C121.6 50.16 118.13 38.84 111.49 29.67Z" fill="#F3B872" style="fill:#F3B872;fill:color(display-p3 0.9542 0.7229 0.4453);fill-opacity:1;"/>
<path d="M111.49 29.67C116.82 38.27 119.6 48.51 119.6 59.9C119.6 76.8 113.5 91.1 102 101.3C91.4 110.6 77 115.8 61.6 115.8C43.54 115.8 24.6 108.45 13.42 92.86C24.18 110.52 44.42 118.8 63.6 118.8C79 118.8 93.4 113.6 104 104.3C115.5 94.1001 121.6 79.8 121.6 62.9C121.6 50.16 118.13 38.84 111.49 29.67Z" fill="#BA8F63" style="fill:#BA8F63;fill:color(display-p3 0.7294 0.5608 0.3882);fill-opacity:1;"/>
<path d="M64.25 95.4401C51.51 95.4401 42.43 88.8301 39.7 84.6701C38.67 83.3401 38.45 81.5401 39.14 80.0001C39.67 79.0301 40.7 78.4301 41.81 78.4401C42.22 78.4401 42.63 78.5101 43.02 78.6401C49.92 80.7201 57.09 81.7501 64.3 81.7101C71.47 81.7501 78.61 80.7101 85.48 78.6401C85.87 78.5101 86.28 78.4501 86.69 78.4401C87.8 78.4301 88.83 79.0301 89.36 80.0001C90.05 81.5401 89.83 83.3401 88.8 84.6701C86.07 88.8301 77 95.4401 64.25 95.4401Z" fill="#5D4037" style="fill:#5D4037;fill:color(display-p3 0.3647 0.2510 0.2157);fill-opacity:1;"/>
<path d="M97.51 62.0001L97.31 61.7201C97.13 61.4601 96.94 61.2101 96.73 60.9701C96.01 60.1601 95.2 59.4301 94.31 58.8101C93.11 57.9701 91.81 57.2801 90.44 56.7601C89.69 56.4701 88.92 56.2201 88.14 56.0201C87.75 55.9201 87.32 55.8301 86.88 55.7401L86.28 55.6301L86.87 55.3201L88.62 54.4001C89.75 53.8201 90.82 53.3201 91.72 52.9101C92.62 52.5001 93.36 52.2101 93.86 52.0201L94.62 51.7501L94.84 51.6601C96.25 51.0801 96.91 49.4601 96.33 48.0501C95.93 47.0901 95.03 46.4401 94 46.3601C93.59 46.3401 93.17 46.3401 92.76 46.3601C91.75 46.4501 90.74 46.6301 89.76 46.8801C88.42 47.2201 87.11 47.6501 85.83 48.1701C85.15 48.4701 84.43 48.7501 83.74 49.1101C83.05 49.4701 82.3 49.8501 81.68 50.1801C81.06 50.5101 80.31 51.0001 79.68 51.4301C79.05 51.8601 78.41 52.3101 77.81 52.7501C76.7 53.5701 75.65 54.4701 74.68 55.4501C73.95 56.1701 73.29 56.9501 72.68 57.7801C72.5 58.0201 72.33 58.2801 72.18 58.5401C72.1 58.7001 72.05 58.7801 72.05 58.7801C71.68 59.6801 71.65 60.6801 71.97 61.6001C72.53 63.0101 74.13 63.7001 75.54 63.1401C75.55 63.1401 75.56 63.1301 75.57 63.1301L75.81 63.0401L76 63.0001L76.24 62.9401C76.41 62.9401 76.72 62.8201 77.04 62.7501C77.36 62.6801 77.75 62.6101 78.17 62.5401C79.16 62.4001 80.17 62.3201 81.17 62.3201C82.35 62.3201 83.54 62.4001 84.71 62.5701C84.92 62.5701 85.45 62.6701 85.71 62.7201C85.97 62.7701 86.25 62.8101 86.55 62.8801C87.13 63.0201 87.7 63.1401 88.24 63.3001C89.2 63.5701 90.14 63.9001 91.06 64.3001C91.66 64.5801 92.25 64.8901 92.82 65.2401C93.22 65.4801 93.42 65.6301 93.42 65.6301L93.7 65.8401C94.9 66.7501 96.62 66.5101 97.52 65.3001C98.26 64.3201 98.25 62.9701 97.51 62.0001Z" fill="#5D4037" style="fill:#5D4037;fill:color(display-p3 0.3647 0.2510 0.2157);fill-opacity:1;"/>
<path d="M44.67 46.9401C40.48 46.9401 36.67 50.4801 36.67 56.3601C36.67 62.2401 40.48 65.7701 44.67 65.7701C48.86 65.7701 52.67 62.2301 52.67 56.3601C52.67 50.4901 48.86 46.9401 44.67 46.9401Z" fill="#5D4037" style="fill:#5D4037;fill:color(display-p3 0.3647 0.2510 0.2157);fill-opacity:1;"/>
<path d="M29.84 44.8001C28.97 44.8101 28.16 44.3901 27.65 43.6901C27.17 42.9701 27.08 42.0501 27.42 41.2501C29.46 36.1301 33.4 31.9901 38.42 29.7101C40.27 28.8501 42.24 28.2701 44.27 28.0001C44.4 27.9901 44.53 27.9901 44.66 28.0001C45.92 27.9501 47.01 28.8601 47.19 30.1101C47.37 31.4401 46.58 32.7001 45.3 33.1101L44.93 32.4101L45.18 33.1501C39.81 35.0301 35.23 38.6701 32.18 43.4701C31.7 44.2901 30.82 44.7901 29.87 44.7901L29.84 44.8001Z" fill="#5D4037" style="fill:#5D4037;fill:color(display-p3 0.3647 0.2510 0.2157);fill-opacity:1;"/>
<path d="M44.28 50.8701C42.86 50.1901 41.15 50.7901 40.46 52.2101C39.93 53.3201 40.17 54.6501 41.06 55.5101C42.48 56.1901 44.19 55.5901 44.88 54.1701C45.41 53.0601 45.17 51.7301 44.28 50.8701Z" fill="#836258" style="fill:#836258;fill:color(display-p3 0.5125 0.3838 0.3438);fill-opacity:1;"/>
<defs>
<radialGradient id="paint0_radial_169_7540" cx="0" cy="0" r="1" gradientUnits="userSpaceOnUse" gradientTransform="translate(63.6 62.9) scale(56.9597 56.9597)">
<stop offset="0.5" stop-color="#FDE030" style="stop-color:#FDE030;stop-color:color(display-p3 0.9922 0.8784 0.1882);stop-opacity:1;"/>
<stop offset="0.92" stop-color="#F7C02B" style="stop-color:#F7C02B;stop-color:color(display-p3 0.9686 0.7529 0.1686);stop-opacity:1;"/>
<stop offset="1" stop-color="#F4A223" style="stop-color:#F4A223;stop-color:color(display-p3 0.9569 0.6353 0.1373);stop-opacity:1;"/>
</radialGradient>
<radialGradient id="paint1_radial_169_7540" cx="0" cy="0" r="1" gradientUnits="userSpaceOnUse" gradientTransform="translate(38.599 34.5377) rotate(-43.2082) scale(102.024 101.825)">
<stop offset="0.3533" stop-color="#F9DDBD" style="stop-color:#F9DDBD;stop-color:color(display-p3 0.9765 0.8667 0.7412);stop-opacity:1;"/>
<stop offset="0.8723" stop-color="#FFD29C" style="stop-color:#FFD29C;stop-color:color(display-p3 1.0000 0.8235 0.6118);stop-opacity:1;"/>
</radialGradient>
<radialGradient id="paint2_radial_169_7540" cx="0" cy="0" r="1" gradientUnits="userSpaceOnUse" gradientTransform="translate(38.599 34.5377) rotate(-43.2082) scale(102.024 101.825)">
<stop offset="0.3533" stop-color="#E0BB95" style="stop-color:#E0BB95;stop-color:color(display-p3 0.8784 0.7333 0.5843);stop-opacity:1;"/>
<stop offset="0.8723" stop-color="#CCA47A" style="stop-color:#CCA47A;stop-color:color(display-p3 0.8000 0.6431 0.4784);stop-opacity:1;"/>
</radialGradient>
</defs>
</svg>
