<svg width="128" height="128" viewBox="0 0 128 128" fill="none" xmlns="http://www.w3.org/2000/svg">
<path d="M63.6 118.8C35.7 118.8 5.59998 101.3 5.59998 62.9C5.59998 24.5 35.7 7 63.6 7C79.1 7 93.4 12.1 104 21.4C115.5 31.6 121.6 46 121.6 62.9C121.6 79.8 115.5 94.1 104 104.3C93.4 113.6 79 118.8 63.6 118.8Z" fill="url(#paint0_radial_169_8793)" style=""/>
<path d="M63.6 118.8C35.7 118.8 5.59998 101.3 5.59998 62.9C5.59998 24.5 35.7 7 63.6 7C79.1 7 93.4 12.1 104 21.4C115.5 31.6 121.6 46 121.6 62.9C121.6 79.8 115.5 94.1 104 104.3C93.4 113.6 79 118.8 63.6 118.8Z" fill="url(#paint1_radial_169_8793)" style=""/>
<path d="M63.6 118.8C35.7 118.8 5.59998 101.3 5.59998 62.9C5.59998 24.5 35.7 7 63.6 7C79.1 7 93.4 12.1 104 21.4C115.5 31.6 121.6 46 121.6 62.9C121.6 79.8 115.5 94.1 104 104.3C93.4 113.6 79 118.8 63.6 118.8Z" fill="url(#paint2_radial_169_8793)" style=""/>
<path d="M111.49 29.67C116.82 38.27 119.6 48.51 119.6 59.9C119.6 76.8 113.5 91.1 102 101.3C91.3999 110.6 76.9999 115.8 61.5999 115.8C43.5399 115.8 24.5999 108.45 13.4199 92.86C24.1799 110.52 44.4199 118.8 63.5999 118.8C78.9999 118.8 93.3999 113.6 104 104.3C115.5 94.1 121.6 79.8 121.6 62.9C121.6 50.16 118.13 38.84 111.49 29.67Z" fill="#EB8F00" style="fill:#EB8F00;fill:color(display-p3 0.9216 0.5608 0.0000);fill-opacity:1;"/>
<path d="M111.49 29.67C116.82 38.27 119.6 48.51 119.6 59.9C119.6 76.8 113.5 91.1 102 101.3C91.3999 110.6 76.9999 115.8 61.5999 115.8C43.5399 115.8 24.5999 108.45 13.4199 92.86C24.1799 110.52 44.4199 118.8 63.5999 118.8C78.9999 118.8 93.3999 113.6 104 104.3C115.5 94.1 121.6 79.8 121.6 62.9C121.6 50.16 118.13 38.84 111.49 29.67Z" fill="#4A2F27" style="fill:#4A2F27;fill:color(display-p3 0.2902 0.1843 0.1529);fill-opacity:1;"/>
<path d="M64.0001 101C55.4601 101 49.3701 94.71 47.5301 91.22C46.8301 90.04 46.7001 88.6 47.1601 87.31C47.4401 86.54 48.1801 86.02 49.0001 86C49.2801 86.01 49.5501 86.06 49.8101 86.16C54.1101 87.85 57.8801 90.3 64.0501 90.3C70.2201 90.3 74.0501 87.85 78.2901 86.16C78.5501 86.06 78.8201 86 79.1001 86C79.9101 86.04 80.6101 86.55 80.8901 87.31C81.3501 88.6 81.2201 90.04 80.5201 91.22C78.6301 94.71 72.5401 101 64.0001 101Z" fill="#1A1717" style="fill:#1A1717;fill:color(display-p3 0.1020 0.0902 0.0902);fill-opacity:1;"/>
<path d="M49.51 54.37L49.31 54.57C49.15 54.75 48.98 54.92 48.8 55.07L48.11 55.64C47.82 55.86 47.49 56.1 47.11 56.34C46.73 56.58 46.34 56.81 45.91 57.03C45.47 57.25 45.01 57.44 44.54 57.6C44.05 57.75 43.55 57.87 43.04 57.97C42.52 58.05 42 58.09 41.47 58.09H41C40.74 58.09 40.69 58.09 40.59 58.09L39.89 58C39.38 57.9 38.88 57.78 38.39 57.63C37.91 57.45 37.45 57.24 37 57C36.57 56.78 36.17 56.54 35.8 56.31C35.21 55.92 34.66 55.48 34.14 55L33.51 54.42L33.26 54.17C31.98 53 30.05 52.93 28.69 54C27.7 54.76 27.37 56.12 27.91 57.25L28.06 57.55C28.19 57.84 28.34 58.12 28.5 58.39C29.53 60.11 30.93 61.58 32.59 62.71C33.38 63.26 34.22 63.73 35.1 64.11C36.07 64.54 37.07 64.87 38.1 65.11C38.65 65.21 39.16 65.31 39.83 65.37C40.14 65.37 40.5 65.43 40.66 65.43H41.44C42.56 65.41 43.67 65.3 44.77 65.08C45.8 64.84 46.8 64.51 47.77 64.08C48.65 63.7 49.49 63.23 50.28 62.68C51.52 61.84 52.62 60.8 53.53 59.61L54.01 58.94L54.41 58.31C54.56 58.07 54.69 57.81 54.8 57.54L54.91 57.29C55.51 55.86 54.83 54.21 53.4 53.61C53.3 53.57 53.2 53.53 53.1 53.51C51.84 53.11 50.45 53.44 49.51 54.37Z" fill="#422B0D" style="fill:#422B0D;fill:color(display-p3 0.2588 0.1686 0.0510);fill-opacity:1;"/>
<path d="M49.51 54.37L49.31 54.57C49.15 54.75 48.98 54.92 48.8 55.07L48.11 55.64C47.82 55.86 47.49 56.1 47.11 56.34C46.73 56.58 46.34 56.81 45.91 57.03C45.47 57.25 45.01 57.44 44.54 57.6C44.05 57.75 43.55 57.87 43.04 57.97C42.52 58.05 42 58.09 41.47 58.09H41C40.74 58.09 40.69 58.09 40.59 58.09L39.89 58C39.38 57.9 38.88 57.78 38.39 57.63C37.91 57.45 37.45 57.24 37 57C36.57 56.78 36.17 56.54 35.8 56.31C35.21 55.92 34.66 55.48 34.14 55L33.51 54.42L33.26 54.17C31.98 53 30.05 52.93 28.69 54C27.7 54.76 27.37 56.12 27.91 57.25L28.06 57.55C28.19 57.84 28.34 58.12 28.5 58.39C29.53 60.11 30.93 61.58 32.59 62.71C33.38 63.26 34.22 63.73 35.1 64.11C36.07 64.54 37.07 64.87 38.1 65.11C38.65 65.21 39.16 65.31 39.83 65.37C40.14 65.37 40.5 65.43 40.66 65.43H41.44C42.56 65.41 43.67 65.3 44.77 65.08C45.8 64.84 46.8 64.51 47.77 64.08C48.65 63.7 49.49 63.23 50.28 62.68C51.52 61.84 52.62 60.8 53.53 59.61L54.01 58.94L54.41 58.31C54.56 58.07 54.69 57.81 54.8 57.54L54.91 57.29C55.51 55.86 54.83 54.21 53.4 53.61C53.3 53.57 53.2 53.53 53.1 53.51C51.84 53.11 50.45 53.44 49.51 54.37Z" fill="#1A1717" style="fill:#1A1717;fill:color(display-p3 0.1020 0.0902 0.0902);fill-opacity:1;"/>
<path d="M94.51 54.37L94.31 54.57C94.15 54.75 93.98 54.92 93.8 55.07L93.11 55.64C92.82 55.86 92.49 56.1 92.11 56.34C91.73 56.58 91.34 56.81 90.91 57.03C90.47 57.25 90.01 57.44 89.54 57.6C89.05 57.75 88.55 57.87 88.04 57.97C87.52 58.05 87 58.09 86.47 58.09H86C85.74 58.09 85.69 58.09 85.59 58.09L84.89 58C84.38 57.9 83.88 57.78 83.39 57.63C82.91 57.45 82.45 57.24 82 57C81.57 56.78 81.17 56.54 80.8 56.31C80.21 55.92 79.66 55.48 79.14 55L78.51 54.42L78.26 54.17C76.98 53 75.05 52.93 73.69 54C72.7 54.76 72.37 56.12 72.91 57.25L73.06 57.55C73.19 57.84 73.34 58.12 73.5 58.39C74.53 60.11 75.93 61.58 77.59 62.71C78.38 63.26 79.22 63.73 80.1 64.11C81.08 64.54 82.1 64.88 83.15 65.11C83.7 65.21 84.21 65.31 84.88 65.37C85.19 65.37 85.55 65.43 85.71 65.43H86.49C87.61 65.41 88.72 65.3 89.82 65.08C90.87 64.85 91.89 64.51 92.87 64.08C93.75 63.7 94.59 63.23 95.38 62.68C96.62 61.84 97.72 60.8 98.63 59.61L99.11 58.94L99.51 58.31C99.66 58.07 99.79 57.81 99.9 57.54L100.01 57.29C100.61 55.86 99.93 54.21 98.5 53.61C98.4 53.57 98.3 53.53 98.2 53.51C96.91 53.06 95.47 53.4 94.51 54.37Z" fill="#422B0D" style="fill:#422B0D;fill:color(display-p3 0.2588 0.1686 0.0510);fill-opacity:1;"/>
<path d="M94.51 54.37L94.31 54.57C94.15 54.75 93.98 54.92 93.8 55.07L93.11 55.64C92.82 55.86 92.49 56.1 92.11 56.34C91.73 56.58 91.34 56.81 90.91 57.03C90.47 57.25 90.01 57.44 89.54 57.6C89.05 57.75 88.55 57.87 88.04 57.97C87.52 58.05 87 58.09 86.47 58.09H86C85.74 58.09 85.69 58.09 85.59 58.09L84.89 58C84.38 57.9 83.88 57.78 83.39 57.63C82.91 57.45 82.45 57.24 82 57C81.57 56.78 81.17 56.54 80.8 56.31C80.21 55.92 79.66 55.48 79.14 55L78.51 54.42L78.26 54.17C76.98 53 75.05 52.93 73.69 54C72.7 54.76 72.37 56.12 72.91 57.25L73.06 57.55C73.19 57.84 73.34 58.12 73.5 58.39C74.53 60.11 75.93 61.58 77.59 62.71C78.38 63.26 79.22 63.73 80.1 64.11C81.08 64.54 82.1 64.88 83.15 65.11C83.7 65.21 84.21 65.31 84.88 65.37C85.19 65.37 85.55 65.43 85.71 65.43H86.49C87.61 65.41 88.72 65.3 89.82 65.08C90.87 64.85 91.89 64.51 92.87 64.08C93.75 63.7 94.59 63.23 95.38 62.68C96.62 61.84 97.72 60.8 98.63 59.61L99.11 58.94L99.51 58.31C99.66 58.07 99.79 57.81 99.9 57.54L100.01 57.29C100.61 55.86 99.93 54.21 98.5 53.61C98.4 53.57 98.3 53.53 98.2 53.51C96.91 53.06 95.47 53.4 94.51 54.37Z" fill="#1A1717" style="fill:#1A1717;fill:color(display-p3 0.1020 0.0902 0.0902);fill-opacity:1;"/>
<path d="M28.42 43.28C27.72 44.01 26.55 44.04 25.82 43.33C25.16 42.7 25.07 41.67 25.6 40.93C26.72 39.33 28.09 37.92 29.67 36.76C33.86 33.53 39.11 32 44.38 32.49C46.86 32.8 46.38 35.97 44.17 36.18C38.25 36.65 32.69 39.16 28.42 43.28Z" fill="#422B0D" style="fill:#422B0D;fill:color(display-p3 0.2588 0.1686 0.0510);fill-opacity:1;"/>
<path d="M28.42 43.28C27.72 44.01 26.55 44.04 25.82 43.33C25.16 42.7 25.07 41.67 25.6 40.93C26.72 39.33 28.09 37.92 29.67 36.76C33.86 33.53 39.11 32 44.38 32.49C46.86 32.8 46.38 35.97 44.17 36.18C38.25 36.65 32.69 39.16 28.42 43.28Z" fill="#1A1717" style="fill:#1A1717;fill:color(display-p3 0.1020 0.0902 0.0902);fill-opacity:1;"/>
<path d="M98.49 43.28C99.19 44.01 100.36 44.04 101.09 43.33C101.75 42.7 101.84 41.67 101.31 40.93C100.19 39.33 98.82 37.92 97.24 36.76C93.05 33.53 87.8 32 82.53 32.49C80.05 32.8 80.53 35.97 82.74 36.18C88.66 36.65 94.22 39.16 98.49 43.28Z" fill="#422B0D" style="fill:#422B0D;fill:color(display-p3 0.2588 0.1686 0.0510);fill-opacity:1;"/>
<path d="M98.49 43.28C99.19 44.01 100.36 44.04 101.09 43.33C101.75 42.7 101.84 41.67 101.31 40.93C100.19 39.33 98.82 37.92 97.24 36.76C93.05 33.53 87.8 32 82.53 32.49C80.05 32.8 80.53 35.97 82.74 36.18C88.66 36.65 94.22 39.16 98.49 43.28Z" fill="#1A1717" style="fill:#1A1717;fill:color(display-p3 0.1020 0.0902 0.0902);fill-opacity:1;"/>
<defs>
<radialGradient id="paint0_radial_169_8793" cx="0" cy="0" r="1" gradientUnits="userSpaceOnUse" gradientTransform="translate(63.6 62.9) scale(56.9597 56.9597)">
<stop offset="0.5" stop-color="#FDE030" style="stop-color:#FDE030;stop-color:color(display-p3 0.9922 0.8784 0.1882);stop-opacity:1;"/>
<stop offset="0.92" stop-color="#F7C02B" style="stop-color:#F7C02B;stop-color:color(display-p3 0.9686 0.7529 0.1686);stop-opacity:1;"/>
<stop offset="1" stop-color="#F4A223" style="stop-color:#F4A223;stop-color:color(display-p3 0.9569 0.6353 0.1373);stop-opacity:1;"/>
</radialGradient>
<radialGradient id="paint1_radial_169_8793" cx="0" cy="0" r="1" gradientUnits="userSpaceOnUse" gradientTransform="translate(38.599 34.5377) rotate(-43.2082) scale(102.024 101.825)">
<stop offset="0.3533" stop-color="#F9DDBD" style="stop-color:#F9DDBD;stop-color:color(display-p3 0.9765 0.8667 0.7412);stop-opacity:1;"/>
<stop offset="0.8723" stop-color="#FFD29C" style="stop-color:#FFD29C;stop-color:color(display-p3 1.0000 0.8235 0.6118);stop-opacity:1;"/>
</radialGradient>
<radialGradient id="paint2_radial_169_8793" cx="0" cy="0" r="1" gradientUnits="userSpaceOnUse" gradientTransform="translate(38.599 34.5377) rotate(-43.2082) scale(102.024 101.825)">
<stop offset="0.3533" stop-color="#70534A" style="stop-color:#70534A;stop-color:color(display-p3 0.4392 0.3255 0.2902);stop-opacity:1;"/>
<stop offset="0.8723" stop-color="#5C4037" style="stop-color:#5C4037;stop-color:color(display-p3 0.3608 0.2510 0.2157);stop-opacity:1;"/>
</radialGradient>
</defs>
</svg>
