<svg width="129" height="129" viewBox="0 0 129 129" fill="none" xmlns="http://www.w3.org/2000/svg">
<path d="M88.3498 6.69H17.2998V122.14H111.92V29.3L88.3498 6.69Z" fill="white" style="fill:white;fill-opacity:1;"/>
<path d="M109.95 24.09L93.29 7.38C91.33 5.53 88.74 4.5 86.04 4.5H17.54C15.99 4.5 14.73 5.76 14.73 7.31V121.69C14.73 123.24 15.99 124.5 17.54 124.5H111.47C113.02 124.5 114.28 123.24 114.28 121.69V31.78C114.27 28.87 112.07 26.09 109.95 24.09ZM110.27 120.5H18.73V8.5H83.39C85.51 8.5 87.24 10.22 87.24 12.35V30.23H104.58C107.72 30.23 110.27 31.96 110.27 35.92V120.5Z" fill="#6FBFF0" style="fill:#6FBFF0;fill:color(display-p3 0.4353 0.7490 0.9412);fill-opacity:1;"/>
<rect x="33.5" y="34.5" width="39" height="42" rx="2" fill="#6FBFF0" style="fill:#6FBFF0;fill:color(display-p3 0.4353 0.7490 0.9412);fill-opacity:1;"/>
</svg>
