<svg width="128" height="128" viewBox="0 0 128 128" fill="none" xmlns="http://www.w3.org/2000/svg">
<path d="M63.6001 118.8C35.7001 118.8 5.6001 101.3 5.6001 62.9C5.6001 24.5 35.7001 7 63.6001 7C79.1001 7 93.4001 12.1 104 21.4C115.5 31.6 121.6 46 121.6 62.9C121.6 79.8 115.5 94.1 104 104.3C93.4001 113.6 79.0001 118.8 63.6001 118.8Z" fill="url(#paint0_radial_169_9765)" style=""/>
<path d="M63.6001 118.8C35.7001 118.8 5.6001 101.3 5.6001 62.9C5.6001 24.5 35.7001 7 63.6001 7C79.1001 7 93.4001 12.1 104 21.4C115.5 31.6 121.6 46 121.6 62.9C121.6 79.8 115.5 94.1 104 104.3C93.4001 113.6 79.0001 118.8 63.6001 118.8Z" fill="url(#paint1_radial_169_9765)" style=""/>
<path d="M63.6001 118.8C35.7001 118.8 5.6001 101.3 5.6001 62.9C5.6001 24.5 35.7001 7 63.6001 7C79.1001 7 93.4001 12.1 104 21.4C115.5 31.6 121.6 46 121.6 62.9C121.6 79.8 115.5 94.1 104 104.3C93.4001 113.6 79.0001 118.8 63.6001 118.8Z" fill="url(#paint2_radial_169_9765)" style=""/>
<path d="M111.49 29.67C116.82 38.27 119.6 48.51 119.6 59.9C119.6 76.8 113.5 91.1 102 101.3C91.4002 110.6 77.0002 115.8 61.6002 115.8C43.5402 115.8 24.6002 108.45 13.4202 92.86C24.1802 110.52 44.4202 118.8 63.6002 118.8C79.0002 118.8 93.4002 113.6 104 104.3C115.5 94.1 121.6 79.8 121.6 62.9C121.6 50.16 118.13 38.84 111.49 29.67Z" fill="#EB8F00" style="fill:#EB8F00;fill:color(display-p3 0.9216 0.5608 0.0000);fill-opacity:1;"/>
<path d="M111.49 29.67C116.82 38.27 119.6 48.51 119.6 59.9C119.6 76.8 113.5 91.1 102 101.3C91.4002 110.6 77.0002 115.8 61.6002 115.8C43.5402 115.8 24.6002 108.45 13.4202 92.86C24.1802 110.52 44.4202 118.8 63.6002 118.8C79.0002 118.8 93.4002 113.6 104 104.3C115.5 94.1 121.6 79.8 121.6 62.9C121.6 50.16 118.13 38.84 111.49 29.67Z" fill="#4A2F27" style="fill:#4A2F27;fill:color(display-p3 0.2902 0.1843 0.1529);fill-opacity:1;"/>
<path d="M82.5599 92.85C82.5599 100.43 74.2499 104.85 63.9999 104.85C53.7499 104.85 45.4399 100.4 45.4399 92.85C45.4399 85.3 53.7499 77 63.9999 77C74.2499 77 82.5599 85.27 82.5599 92.85Z" fill="#422B0D" style="fill:#422B0D;fill:color(display-p3 0.2588 0.1686 0.0510);fill-opacity:1;"/>
<path d="M82.5599 92.85C82.5599 100.43 74.2499 104.85 63.9999 104.85C53.7499 104.85 45.4399 100.4 45.4399 92.85C45.4399 85.3 53.7499 77 63.9999 77C74.2499 77 82.5599 85.27 82.5599 92.85Z" fill="#1A1717" style="fill:#1A1717;fill:color(display-p3 0.1020 0.0902 0.0902);fill-opacity:1;"/>
<path d="M46.27 56.6L54.73 48.73C55.93 47.24 56.11 45.23 54.9 44.03C53.31 42.43 50.49 42.82 48.96 44.64C48.88 44.79 48.82 44.83 48.74 44.98L42.74 53.7L34.62 46.13C34.5 46 34.43 45.98 34.32 45.85C32.43 44.41 29.59 44.65 28.4 46.56C27.47 48 28.09 49.91 29.59 51.11L40 57.28L31.18 65.53C30 67 29.78 69 31 70.23C32.58 71.84 35.4 71.47 36.94 69.66C37.02 69.51 37.08 69.47 37.17 69.32L43.49 60.18L51.17 67.42C51.29 67.55 51.36 67.58 51.47 67.71C53.35 69.16 56.19 68.94 57.4 67.04C58.33 65.6 57.72 63.68 56.23 62.48L46.27 56.6Z" fill="#422B0D" style="fill:#422B0D;fill:color(display-p3 0.2588 0.1686 0.0510);fill-opacity:1;"/>
<path d="M46.27 56.6L54.73 48.73C55.93 47.24 56.11 45.23 54.9 44.03C53.31 42.43 50.49 42.82 48.96 44.64C48.88 44.79 48.82 44.83 48.74 44.98L42.74 53.7L34.62 46.13C34.5 46 34.43 45.98 34.32 45.85C32.43 44.41 29.59 44.65 28.4 46.56C27.47 48 28.09 49.91 29.59 51.11L40 57.28L31.18 65.53C30 67 29.78 69 31 70.23C32.58 71.84 35.4 71.47 36.94 69.66C37.02 69.51 37.08 69.47 37.17 69.32L43.49 60.18L51.17 67.42C51.29 67.55 51.36 67.58 51.47 67.71C53.35 69.16 56.19 68.94 57.4 67.04C58.33 65.6 57.72 63.68 56.23 62.48L46.27 56.6Z" fill="#1A1717" style="fill:#1A1717;fill:color(display-p3 0.1020 0.0902 0.0902);fill-opacity:1;"/>
<path d="M84.75 56.6L76.29 48.73C75.09 47.24 74.91 45.23 76.13 44.03C77.72 42.43 80.53 42.82 82.06 44.64C82.14 44.79 82.21 44.83 82.29 44.98L88.29 53.7L96.42 46.13C96.53 46 96.6 45.98 96.71 45.85C98.61 44.41 101.44 44.65 102.64 46.56C103.56 48 102.94 49.91 101.44 51.11L91 57.28L99.82 65.53C101.03 67.02 101.23 69.02 100.01 70.23C98.44 71.84 95.62 71.47 94.08 69.66C93.99 69.51 93.93 69.47 93.85 69.32L87.53 60.18L79.84 67.42C79.73 67.55 79.66 67.58 79.54 67.71C77.66 69.16 74.83 68.94 73.62 67.04C72.68 65.6 73.29 63.68 74.78 62.48L84.75 56.6Z" fill="#422B0D" style="fill:#422B0D;fill:color(display-p3 0.2588 0.1686 0.0510);fill-opacity:1;"/>
<path d="M84.75 56.6L76.29 48.73C75.09 47.24 74.91 45.23 76.13 44.03C77.72 42.43 80.53 42.82 82.06 44.64C82.14 44.79 82.21 44.83 82.29 44.98L88.29 53.7L96.42 46.13C96.53 46 96.6 45.98 96.71 45.85C98.61 44.41 101.44 44.65 102.64 46.56C103.56 48 102.94 49.91 101.44 51.11L91 57.28L99.82 65.53C101.03 67.02 101.23 69.02 100.01 70.23C98.44 71.84 95.62 71.47 94.08 69.66C93.99 69.51 93.93 69.47 93.85 69.32L87.53 60.18L79.84 67.42C79.73 67.55 79.66 67.58 79.54 67.71C77.66 69.16 74.83 68.94 73.62 67.04C72.68 65.6 73.29 63.68 74.78 62.48L84.75 56.6Z" fill="#1A1717" style="fill:#1A1717;fill:color(display-p3 0.1020 0.0902 0.0902);fill-opacity:1;"/>
<path d="M45.6 28.9C47.9 29.1 48.8 26 46.4 25.3C44.51 24.79 42.55 24.59 40.6 24.7C35.31 24.9 30.3 27.12 26.6 30.9C24.9 32.7 27.3 34.9 29.1 33.6C33.92 30.23 39.73 28.57 45.6 28.9Z" fill="#422B0D" style="fill:#422B0D;fill:color(display-p3 0.2588 0.1686 0.0510);fill-opacity:1;"/>
<path d="M45.6 28.9C47.9 29.1 48.8 26 46.4 25.3C44.51 24.79 42.55 24.59 40.6 24.7C35.31 24.9 30.3 27.12 26.6 30.9C24.9 32.7 27.3 34.9 29.1 33.6C33.92 30.23 39.73 28.57 45.6 28.9Z" fill="#1A1717" style="fill:#1A1717;fill:color(display-p3 0.1020 0.0902 0.0902);fill-opacity:1;"/>
<path d="M82.2 28.9C88.1 28.56 93.95 30.21 98.8 33.6C100.6 34.9 103 32.7 101.3 30.9C97.59 27.14 92.58 24.92 87.3 24.7C85.35 24.59 83.39 24.79 81.5 25.3C80.52 25.58 79.95 26.59 80.23 27.57C80.47 28.44 81.31 29 82.2 28.9Z" fill="#422B0D" style="fill:#422B0D;fill:color(display-p3 0.2588 0.1686 0.0510);fill-opacity:1;"/>
<path d="M82.2 28.9C88.1 28.56 93.95 30.21 98.8 33.6C100.6 34.9 103 32.7 101.3 30.9C97.59 27.14 92.58 24.92 87.3 24.7C85.35 24.59 83.39 24.79 81.5 25.3C80.52 25.58 79.95 26.59 80.23 27.57C80.47 28.44 81.31 29 82.2 28.9Z" fill="#1A1717" style="fill:#1A1717;fill:color(display-p3 0.1020 0.0902 0.0902);fill-opacity:1;"/>
<defs>
<radialGradient id="paint0_radial_169_9765" cx="0" cy="0" r="1" gradientUnits="userSpaceOnUse" gradientTransform="translate(63.6001 62.9) scale(56.9597 56.9597)">
<stop offset="0.5" stop-color="#FDE030" style="stop-color:#FDE030;stop-color:color(display-p3 0.9922 0.8784 0.1882);stop-opacity:1;"/>
<stop offset="0.92" stop-color="#F7C02B" style="stop-color:#F7C02B;stop-color:color(display-p3 0.9686 0.7529 0.1686);stop-opacity:1;"/>
<stop offset="1" stop-color="#F4A223" style="stop-color:#F4A223;stop-color:color(display-p3 0.9569 0.6353 0.1373);stop-opacity:1;"/>
</radialGradient>
<radialGradient id="paint1_radial_169_9765" cx="0" cy="0" r="1" gradientUnits="userSpaceOnUse" gradientTransform="translate(38.5991 34.5377) rotate(-43.2082) scale(102.024 101.825)">
<stop offset="0.3533" stop-color="#F9DDBD" style="stop-color:#F9DDBD;stop-color:color(display-p3 0.9765 0.8667 0.7412);stop-opacity:1;"/>
<stop offset="0.8723" stop-color="#FFD29C" style="stop-color:#FFD29C;stop-color:color(display-p3 1.0000 0.8235 0.6118);stop-opacity:1;"/>
</radialGradient>
<radialGradient id="paint2_radial_169_9765" cx="0" cy="0" r="1" gradientUnits="userSpaceOnUse" gradientTransform="translate(38.5991 34.5377) rotate(-43.2082) scale(102.024 101.825)">
<stop offset="0.3533" stop-color="#70534A" style="stop-color:#70534A;stop-color:color(display-p3 0.4392 0.3255 0.2902);stop-opacity:1;"/>
<stop offset="0.8723" stop-color="#5C4037" style="stop-color:#5C4037;stop-color:color(display-p3 0.3608 0.2510 0.2157);stop-opacity:1;"/>
</radialGradient>
</defs>
</svg>
