<svg width="128" height="128" viewBox="0 0 128 128" fill="none" xmlns="http://www.w3.org/2000/svg">
<path d="M39.79 108.22L39.95 115.25C39.95 115.25 43.23 121.03 63.68 121.03C83.67 121.03 88.5 116.35 88.5 116.35L88.97 107.3L39.79 108.22Z" fill="#B0B0B0" style="fill:#B0B0B0;fill:color(display-p3 0.6902 0.6902 0.6902);fill-opacity:1;"/>
<path d="M63.43 44.2901C14.65 44.4001 4.23998 60.5401 3.97998 62.7301C3.71998 64.9201 5.10999 113.09 63.61 114.02C120.5 114.93 123.47 67.3101 123.88 64.3901C124.22 61.9801 114.43 44.1801 63.43 44.2901Z" fill="#D4D2D6" style="fill:#D4D2D6;fill:color(display-p3 0.8314 0.8235 0.8392);fill-opacity:1;"/>
<path d="M7.63 63.2599C7.63 68.2899 11.69 110.25 64.77 110.25C117.7 110.25 120.66 64.5099 120.19 65.2899C119.72 66.0699 108.32 75.2799 108.32 75.2799C108.32 75.2799 92.71 80.8999 91.46 81.2099C90.21 81.5199 58.83 83.3999 58.83 83.3999L27.61 78.5599C27.61 78.5599 13.87 70.7499 12.93 69.8199C11.99 68.8899 7.63 62.7899 7.63 63.2599Z" fill="#F6F6F6" style="fill:#F6F6F6;fill:color(display-p3 0.9647 0.9647 0.9647);fill-opacity:1;"/>
<path d="M65.55 90.9199C65.25 90.9199 64.95 90.9199 64.65 90.9199C36.34 90.7699 20.45 84.6299 11.83 78.7299C8.82996 76.6799 6.46996 74.3299 5.01996 72.5999C4.98996 72.5599 4.83996 71.4999 4.44996 68.9999C4.09996 66.7699 3.95996 64.4399 3.95996 64.4399C4.05996 64.6399 12.84 86.7999 64.67 86.9099C64.96 86.9099 65.26 86.9199 65.54 86.9099C113.44 86.2899 123.51 66.5399 123.63 66.3599C123.63 66.3599 123.28 68.8699 122.99 70.5799C122.71 72.1699 122.33 73.5799 122.29 73.6199C119.78 76.0499 116.1 79.6299 110.6 82.4499C101.82 86.9699 88.05 90.9199 65.55 90.9199Z" fill="#FF635F" style="fill:#FF635F;fill:color(display-p3 1.0000 0.3882 0.3725);fill-opacity:1;"/>
<path d="M11.35 67.0999C11.35 67.0999 13.95 61.1599 31.15 57.7399C55.4 52.9099 78.66 54.6699 91.72 57.8499C102.09 60.3799 115.2 68.2699 115.2 68.2699L109.17 74.4099L80.75 82.5299C80.75 82.5299 55.07 83.5199 54.09 83.5199C53.1 83.5199 43.01 81.3299 39.28 80.6699C35.55 80.0099 22.71 76.6099 22.71 76.6099L11.35 67.0999Z" fill="#FEC56C" style="fill:#FEC56C;fill:color(display-p3 0.9961 0.7725 0.4235);fill-opacity:1;"/>
<path d="M89.7299 73.5701C89.7299 73.5701 92.5299 73.7601 92.6299 75.9901C92.7299 78.4101 91.0599 79.0801 91.0599 79.0801L86.4099 79.7901L89.7299 73.5701Z" fill="#FCA72E" style="fill:#FCA72E;fill:color(display-p3 0.9882 0.6549 0.1804);fill-opacity:1;"/>
<path d="M96.1401 77.79C96.1401 77.79 94.6201 77.79 94.7601 76.41C94.9001 75.03 97.8901 74.7 99.8901 74.08C101.89 73.46 103.97 72.66 104.69 73.23C105.4 73.8 104.69 75.22 104.69 75.22L96.1401 77.79Z" fill="#FCA72E" style="fill:#FCA72E;fill:color(display-p3 0.9882 0.6549 0.1804);fill-opacity:1;"/>
<path d="M48.2699 76.0201C47.1599 76.2101 47.3499 81.0201 51.4299 81.2901C55.5099 81.5501 54.4799 78.8701 57.0499 79.1301C59.6199 79.3901 59.5299 82.2101 61.3699 82.2701C63.2099 82.3301 66.8999 80.4301 66.8999 80.4301L60.9799 76.8801C60.9799 76.8801 58.1799 74.2301 55.0999 75.4801C53.0799 76.3001 53.4899 78.5301 51.5699 78.3101C49.2699 78.0401 50.8999 75.5601 48.2699 76.0201Z" fill="#FCA72E" style="fill:#FCA72E;fill:color(display-p3 0.9882 0.6549 0.1804);fill-opacity:1;"/>
<path d="M15.7999 69.1401C15.9599 69.7501 18.0599 70.6801 21.9899 70.0401C25.9199 69.4101 25.6499 69.0901 27.9499 69.3201C30.2499 69.5501 32.1999 70.0401 33.4099 69.7701C34.6299 69.5001 33.9099 67.1101 33.9099 67.1101C33.9099 67.1101 28.7599 66.8401 27.3599 66.7901C25.9599 66.7401 21.2199 67.9201 19.6399 67.9201C18.0599 67.9201 15.3899 67.6001 15.7999 69.1401Z" fill="#FCA72E" style="fill:#FCA72E;fill:color(display-p3 0.9882 0.6549 0.1804);fill-opacity:1;"/>
<path d="M16.07 65.9301C16.58 66.7801 18.15 66.4701 19.5 65.7501C20.85 65.0301 22.07 63.8501 21.49 63.0001C20.9 62.1401 19.1 62.7301 18.06 63.3201C17.02 63.9001 15.44 64.8901 16.07 65.9301Z" fill="#FCA72E" style="fill:#FCA72E;fill:color(display-p3 0.9882 0.6549 0.1804);fill-opacity:1;"/>
<path d="M22.66 63.4C22.93 63.99 23.83 64.08 25.1 63.4C26.36 62.72 26.59 62.14 26.27 61.5C25.95 60.86 24.92 61.05 24.06 61.41C23.2 61.78 22.26 62.5 22.66 63.4Z" fill="#FCA72E" style="fill:#FCA72E;fill:color(display-p3 0.9882 0.6549 0.1804);fill-opacity:1;"/>
<path d="M107.095 69.3209C107.365 69.9109 108.265 70.0009 109.535 69.3209C110.795 68.6409 111.025 68.0609 110.705 67.4209C110.385 66.7809 109.355 66.9709 108.495 67.3309C107.635 67.7009 106.695 68.4209 107.095 69.3209Z" fill="#FCA72E" style="fill:#FCA72E;fill:color(display-p3 0.9882 0.6549 0.1804);fill-opacity:1;"/>
<path d="M29.84 63.18C29.43 62.64 29.34 61.55 30.47 60.47C31.6 59.39 32.86 58.98 34.44 59.02C36.02 59.07 37.51 59.11 37.29 59.97C37.06 60.83 35.13 60.69 34.44 60.74C33.04 60.83 33.09 62 33.09 62L31.06 63.76L29.84 63.18Z" fill="#FCA72E" style="fill:#FCA72E;fill:color(display-p3 0.9882 0.6549 0.1804);fill-opacity:1;"/>
<path d="M39.78 59.16C39.9 60.48 41.41 60.33 43.17 60.11C44.93 59.88 45.97 59.3 45.79 58.17C45.61 57.04 43.98 57.09 42.81 57.27C41.63 57.44 39.64 57.62 39.78 59.16Z" fill="#FCA72E" style="fill:#FCA72E;fill:color(display-p3 0.9882 0.6549 0.1804);fill-opacity:1;"/>
<path d="M71.007 78.9886C71.127 80.3086 72.637 80.1586 74.397 79.9386C76.157 79.7086 77.197 79.1286 77.017 77.9986C76.837 76.8686 75.207 76.9186 74.037 77.0986C72.857 77.2686 70.867 77.4486 71.007 78.9886Z" fill="#FCA72E" style="fill:#FCA72E;fill:color(display-p3 0.9882 0.6549 0.1804);fill-opacity:1;"/>
<path d="M48.6799 57.5299C48.4099 58.2999 48.9499 59.0199 50.2199 59.1599C51.4799 59.2999 51.7999 58.6999 51.8899 58.2099C52.0299 57.4399 51.1199 57.3499 50.5399 57.1699C49.7999 56.9399 48.9599 56.7099 48.6799 57.5299Z" fill="#FCA72E" style="fill:#FCA72E;fill:color(display-p3 0.9882 0.6549 0.1804);fill-opacity:1;"/>
<path d="M41.0679 70.5753C40.7979 71.3453 41.3379 72.0653 42.6079 72.2053C43.8679 72.3453 44.1879 71.7453 44.2779 71.2553C44.4179 70.4853 43.5079 70.3953 42.9279 70.2153C42.1879 69.9853 41.3479 69.7553 41.0679 70.5753Z" fill="#FCA72E" style="fill:#FCA72E;fill:color(display-p3 0.9882 0.6549 0.1804);fill-opacity:1;"/>
<path d="M99.0679 70.5753C98.7979 71.3453 99.3379 72.0653 100.608 72.2053C101.868 72.3453 102.188 71.7453 102.278 71.2553C102.418 70.4853 101.508 70.3953 100.928 70.2153C100.188 69.9853 99.3479 69.7553 99.0679 70.5753Z" fill="#FCA72E" style="fill:#FCA72E;fill:color(display-p3 0.9882 0.6549 0.1804);fill-opacity:1;"/>
<path d="M70.0679 69.5753C69.7979 70.3453 70.3379 71.0653 71.6079 71.2053C72.8679 71.3453 73.1879 70.7453 73.2779 70.2553C73.4179 69.4853 72.5079 69.3953 71.9279 69.2153C71.1879 68.9853 70.3479 68.7553 70.0679 69.5753Z" fill="#FCA72E" style="fill:#FCA72E;fill:color(display-p3 0.9882 0.6549 0.1804);fill-opacity:1;"/>
<path d="M80.29 62.8101C80.57 63.3701 82.64 63.4001 83.81 62.7601C84.4946 62.3915 85.9254 61.7422 86.9949 61.2668C87.637 60.9814 87.7994 60.1411 87.3065 59.6404L85.8 58.1101C85.8 58.1101 83.81 58.3801 82.14 59.5101C80.47 60.6401 79.75 61.7301 80.29 62.8101Z" fill="#FCA72E" style="fill:#FCA72E;fill:color(display-p3 0.9882 0.6549 0.1804);fill-opacity:1;"/>
<path d="M74.01 57.4399C73.06 58.2399 74.46 59.5599 75.77 60.1899C77.08 60.8199 77.8 61.2299 78.84 60.4599C79.88 59.6899 78.16 58.6099 77.26 57.9799C76.36 57.3499 75.14 56.4899 74.01 57.4399Z" fill="#FCA72E" style="fill:#FCA72E;fill:color(display-p3 0.9882 0.6549 0.1804);fill-opacity:1;"/>
<path d="M68.8199 59.6999C67.8399 59.9999 68.2899 61.8699 69.5899 62.4099C70.9899 62.9999 71.8499 62.2299 72.9799 63.1299C73.2344 63.3326 73.4133 63.5976 73.5378 63.8867C73.9412 64.8235 74.9536 65.6973 75.9057 65.3314C76.384 65.1475 76.7146 64.6991 76.6329 64.1933C76.5307 63.56 76.2605 62.6721 75.5599 61.9099C73.9299 60.1499 72.6699 60.1899 71.0899 60.2399C69.2199 60.2899 69.3999 59.5199 68.8199 59.6999Z" fill="#FCA72E" style="fill:#FCA72E;fill:color(display-p3 0.9882 0.6549 0.1804);fill-opacity:1;"/>
<path d="M95.873 60.0273C96.853 60.3273 96.403 62.1973 95.103 62.7373C93.703 63.3273 92.8429 62.5573 91.7129 63.4573C91.4585 63.66 91.2796 63.925 91.1551 64.2141C90.7517 65.1509 89.7393 66.0247 88.7872 65.6587C88.3089 65.4749 87.9783 65.0265 88.0599 64.5206C88.1621 63.8874 88.4324 62.9995 89.133 62.2373C90.763 60.4773 92.023 60.5173 93.603 60.5673C95.473 60.6173 95.293 59.8473 95.873 60.0273Z" fill="#FCA72E" style="fill:#FCA72E;fill:color(display-p3 0.9882 0.6549 0.1804);fill-opacity:1;"/>
<path d="M36.0299 66.0701C36.0299 66.0701 35.6199 64.8501 36.3899 63.4501C37.1599 62.0501 38.8299 61.4601 40.9099 61.3701C42.9899 61.2801 47.4999 62.0001 48.6299 61.6401C49.7599 61.2801 49.9399 60.2901 50.7499 60.6501C51.5599 61.0101 50.9799 63.5001 49.3499 63.8101C47.7199 64.1301 44.6099 63.9001 42.9799 63.7201C41.3499 63.5401 39.5899 63.7701 39.2799 64.7601C38.9699 65.7501 39.5099 67.2001 39.5099 67.2001C39.5099 67.2001 35.7999 65.6601 36.0299 66.0701Z" fill="#FCA72E" style="fill:#FCA72E;fill:color(display-p3 0.9882 0.6549 0.1804);fill-opacity:1;"/>
<path d="M66.0569 69.8462C66.0569 69.8462 67.2317 70.372 67.7387 71.8872C68.2457 73.4024 67.5471 75.03 66.203 76.6199C64.8589 78.2098 61.2719 81.0368 60.7704 82.1115C60.2688 83.1862 60.8745 83.9897 60.0607 84.341C59.2469 84.6923 57.8098 82.5778 58.6871 81.1694C59.5571 79.7543 61.8347 77.6243 63.0722 76.5482C64.3096 75.4721 65.3339 74.0224 64.8163 73.1233C64.2988 72.2242 62.8669 71.638 62.8669 71.638C62.8669 71.638 66.5142 69.9551 66.0569 69.8462Z" fill="#FCA72E" style="fill:#FCA72E;fill:color(display-p3 0.9882 0.6549 0.1804);fill-opacity:1;"/>
<path d="M20.73 73.06C20.73 73.06 22.19 70.96 24.22 71.4C26.25 71.84 26.28 73.53 26.22 74.28C26.18 74.69 25.88 75.63 25.88 75.63L24.02 75.05C24.02 75.05 24.49 73.76 23.61 73.46C22.73 73.16 22.39 74.17 22.39 74.17L20.73 73.06Z" fill="#FCA72E" style="fill:#FCA72E;fill:color(display-p3 0.9882 0.6549 0.1804);fill-opacity:1;"/>
<path d="M34.7286 73.5634C35.4086 72.8834 34.2186 71.0934 34.5586 69.9434C34.8586 68.9234 36.3486 68.1534 37.2286 68.7634C38.1086 69.3734 37.1286 70.2834 36.8186 70.7634C36.5086 71.2434 36.3086 72.3234 37.6686 71.9834C39.0186 71.6434 39.9386 70.8034 40.1386 69.5834C40.3386 68.3634 39.6286 66.9734 38.4086 66.3634C37.3286 65.8234 34.4186 65.5534 32.5486 68.0234C31.5386 69.3634 32.0786 71.3034 32.9186 72.5934C33.7786 73.8734 34.3186 73.9734 34.7286 73.5634Z" fill="#FCA72E" style="fill:#FCA72E;fill:color(display-p3 0.9882 0.6549 0.1804);fill-opacity:1;"/>
<path d="M75.0423 69.3515C75.2023 69.9615 77.3023 70.8915 81.2323 70.2515C85.1623 69.6215 84.8923 69.3015 87.1923 69.5315C89.4923 69.7615 91.4423 70.2515 92.6523 69.9815C93.8723 69.7115 93.1523 67.3215 93.1523 67.3215C93.1523 67.3215 88.0023 67.0515 86.6023 67.0015C85.2023 66.9515 80.4623 68.1315 78.8823 68.1315C77.3023 68.1315 74.6323 67.8115 75.0423 69.3515Z" fill="#FCA72E" style="fill:#FCA72E;fill:color(display-p3 0.9882 0.6549 0.1804);fill-opacity:1;"/>
<path d="M48.2713 73.2746C48.283 73.9052 46.5145 75.3705 42.5584 75.8219C38.605 76.2828 38.7779 75.9015 36.6268 76.7475C34.4757 77.5935 32.7321 78.5946 31.4942 78.6634C30.2467 78.7349 30.2906 76.2392 30.2906 76.2392C30.2906 76.2392 35.1737 74.5807 36.5076 74.1524C37.8414 73.724 42.7237 73.5724 44.2443 73.1433C45.7649 72.7143 48.2477 71.6812 48.2713 73.2746Z" fill="#FCA72E" style="fill:#FCA72E;fill:color(display-p3 0.9882 0.6549 0.1804);fill-opacity:1;"/>
<path d="M91.109 69.4976C91.109 69.4976 90.699 68.2776 91.469 66.8776C92.239 65.4776 93.909 64.8876 95.989 64.7976C98.069 64.7076 102.579 65.4276 103.709 65.0676C104.839 64.7076 105.019 63.7176 105.829 64.0776C106.639 64.4376 106.059 66.9276 104.429 67.2376C102.799 67.5576 99.689 67.3276 98.059 67.1476C96.429 66.9676 94.669 67.1976 94.359 68.1876C94.0764 69.0902 93.1621 70.0431 92.2695 69.7304C91.574 69.4867 91.0155 69.3308 91.109 69.4976Z" fill="#FCA72E" style="fill:#FCA72E;fill:color(display-p3 0.9882 0.6549 0.1804);fill-opacity:1;"/>
<path d="M73.7096 75.759C74.9296 75.929 75.5396 75.759 75.5396 75.759C75.5396 75.759 75.6896 74.899 77.2296 75.119C78.0596 75.229 78.5496 75.559 79.6696 74.979C80.3896 74.609 80.5796 74.029 81.1596 73.899C81.7396 73.759 82.5496 73.899 82.7496 73.529C82.9496 73.159 82.4296 71.749 80.6496 72.039C79.5996 72.209 79.4696 72.649 78.5496 72.779C77.1196 72.989 76.8996 72.369 75.2996 72.849C73.2696 73.459 73.2396 74.909 73.0296 75.349C72.8296 75.789 73.7096 75.759 73.7096 75.759Z" fill="#FCA72E" style="fill:#FCA72E;fill:color(display-p3 0.9882 0.6549 0.1804);fill-opacity:1;"/>
<path d="M63.16 84.99C30.23 84.99 16.8 75.97 11.7 70.55C9.26005 67.95 7.50005 65.13 7.63005 63.29V63.23C8.08005 56.77 28.19 47.23 62.88 46.84C94.33 46.48 112.65 54.07 118.75 60.68C120.15 62.19 120.8 63.59 120.68 64.83C120.3 69 109.65 84.65 64.47 84.98C64.03 84.99 63.59 84.99 63.16 84.99ZM11.68 63.5C11.75 64.29 13.58 68.75 21.17 73.02C27.94 76.84 40.93 81.39 64.44 81.18C105.57 80.88 116.43 67.32 116.88 64.57C116.3 62.58 103.45 50.17 62.91 50.63C28.4 51.03 12.19 60.51 11.68 63.5Z" fill="white" style="fill:white;fill-opacity:1;"/>
<path d="M120.05 6.76001C120.27 7.31001 121.3 15.17 121.3 15.17L52.56 27.07C52.56 27.07 121.69 25.7 121.91 26.14C122.13 26.58 122 34.45 122 34.45C122 34.45 50.53 32.32 48.56 32.22C45.95 32.09 44.17 31.51 44.23 29.8C44.3 27.95 46.52 27.77 46.52 27.77C46.52 27.77 44.1 28.34 43.6 26.36C43.09 24.39 45.54 23.38 49.6 22.39C53.64 21.42 120.05 6.76001 120.05 6.76001Z" fill="#AE5731" style="fill:#AE5731;fill:color(display-p3 0.6824 0.3412 0.1922);fill-opacity:1;"/>
<path d="M58.62 32.49C58.62 32.49 57.28 36.2 56.57 37.42C55.86 38.64 54.86 41.06 55.98 42.27C57.1 43.49 58.8 46.85 58.9 48.07C59 49.29 57.48 55.78 57.48 55.78L58.9 63.89C58.9 63.89 61.23 63.38 61.23 62.98C61.23 62.58 64.98 51.82 64.98 51.82L65.08 47.15C65.08 47.15 60.31 41.06 60.52 39.85C60.72 38.63 61.81 33.55 61.81 32.64C60.15 32.57 58.62 32.49 58.62 32.49Z" fill="#FEC56C" style="fill:#FEC56C;fill:color(display-p3 0.9961 0.7725 0.4235);fill-opacity:1;"/>
<path d="M47.2299 66.0699C47.2299 66.0699 48.4499 65.2099 49.8499 65.7499C51.2499 66.2899 52.9999 68.0499 52.9999 68.0499C52.9999 68.0499 52.2499 59.6099 52.5499 55.8599C52.7299 53.6399 53.7699 51.2099 53.3799 49.6699C52.8899 47.7899 50.1299 46.7999 49.6799 43.1499C49.2199 39.4999 51.6399 37.0999 51.9799 34.1699C52.4299 30.2699 52.2299 28.5499 52.1599 27.6999C52.0899 26.8499 52.5099 25.6799 53.4799 25.6799C54.4599 25.6799 54.7599 26.3299 54.8899 27.1799C55.0199 28.0299 55.4099 31.7199 54.4299 35.7199C53.6999 38.6999 52.3099 39.3299 52.6199 42.5399C52.9999 46.4399 55.9199 45.5199 56.2599 49.4299C56.4899 52.0299 55.5899 53.9899 55.4099 56.4899C55.2799 58.3799 56.3399 70.1999 56.2099 70.8599C56.0799 71.5199 54.2999 72.2299 53.3799 71.7699C52.4699 71.3099 50.5799 68.4399 49.3399 68.1199C48.0999 67.7999 45.8799 68.4499 45.8799 68.4499L47.2299 66.0699Z" fill="#FCA72E" style="fill:#FCA72E;fill:color(display-p3 0.9882 0.6549 0.1804);fill-opacity:1;"/>
<path d="M58.12 18.75C56.94 19.17 56.96 21.12 56.96 21.12L58.07 27.01L61.63 26.95C61.63 26.95 61.04 23.07 61.1 22.22C61.16 21.37 60.19 18.02 58.12 18.75Z" fill="#FEC56C" style="fill:#FEC56C;fill:color(display-p3 0.9961 0.7725 0.4235);fill-opacity:1;"/>
<path d="M65.31 17.8699C64.05 18.2699 64.91 20.3499 65.26 22.5799C66.18 28.4499 65.99 33.0399 65.58 35.2699C65.16 37.4999 64.28 39.7399 64.08 40.8499C63.87 41.9699 63.96 43.5699 63.96 43.5699C63.96 43.5699 62.36 41.6799 62.36 39.9099C62.36 37.4299 63.63 35.57 63.81 29.36C63.91 25.99 63.65 25.0799 63.23 22.1699C62.74 18.8199 61.6 18.5699 60.55 18.9199C59.5 19.2699 60.36 21.6099 60.68 22.9999C61.19 25.1799 61.37 27.13 61.37 28.95C61.37 30.7699 61.17 33.7999 60.53 35.8599C59.54 39.0999 58.98 40.5899 60.04 42.7999C60.78 44.3299 63.57 46.53 63.43 49.84C63.36 51.54 62.8 53.02 62.15 54.2999C61.55 55.4699 60.55 57.19 60.11 59.47C59.97 60.21 59.87 62.7999 59.87 62.7999C59.87 62.7999 58.75 58.4799 59.59 54.7799C60.43 51.09 60.81 49.6899 60.25 47.5999C59.69 45.5099 57.03 44.1499 56.88 41.1899C56.71 37.8399 58.51 36.7399 58.97 33.5699C59.49 29.9999 58.96 26.8099 58.46 24.5699C58.15 23.1699 57.13 19.9399 57.13 19.9399C57.13 19.9399 55.65 19.2999 55.12 20.6699C54.78 21.5399 55.49 23.7499 55.8 25.1099C56.06 26.2499 56.46 29.8099 56.47 31.78C56.48 33.8899 55.75 35.2499 55.05 36.7799C54.35 38.3099 53.57 40.2099 54.56 43.0399C55.39 45.3899 57.67 47.3899 57.74 49.1299C57.81 50.8699 56.98 53.53 56.68 56.04C56.26 59.46 56.7 62.3099 56.96 65.1699C57.0888 66.5657 57.2279 69.3397 57.2966 70.8037C57.3217 71.3387 57.7623 71.76 58.2978 71.76H59.6449C60.2183 71.76 60.6742 71.2789 60.6435 70.7064L60.44 66.91C60.44 66.91 60.41 68.51 61.49 70.05C62.06 70.86 63.72 72.07 63.72 72.07L66.14 70.0899C66.14 70.0899 64.54 69.3099 63.45 66.3499C62.8 64.59 62.63 61.99 63.26 59.9C63.89 57.81 64.29 57.1899 64.59 56.5299C64.98 55.68 65.35 54.9 65.35 54.9C65.35 54.9 65.06 56.2599 64.64 57.8699C64.22 59.4699 64.04 61.7799 64.13 63.0099C64.25 64.59 64.77 66.84 65.89 67.9599C66.3513 68.4213 66.7516 68.7978 67.0628 69.081C67.4703 69.452 68.0789 69.4635 68.5166 69.1285C69.2541 68.564 69.1503 67.2376 68.5785 66.5057C68.0387 65.8147 67.5171 64.8019 67.29 63.3499C66.88 60.7199 68.33 54.85 68.68 53.04C69.03 51.2299 69.06 49.1499 68.28 47.0899C67.84 45.9199 66.5 43.7999 66.85 41.6399C67.2 39.4799 68.87 37.1399 68.94 31.8399C69.01 26.5399 68.45 22.9699 67.58 20.1099C67.17 18.7799 66.64 17.4499 65.31 17.8699Z" fill="#FCA72E" style="fill:#FCA72E;fill:color(display-p3 0.9882 0.6549 0.1804);fill-opacity:1;"/>
<path d="M20.77 85.75C19.53 86.82 20.55 91.96 26.92 96.58C33.29 101.2 37.91 101.14 39.06 99.27C39.93 97.86 34.99 94.54 30.49 91.3C26 88.06 22.37 84.38 20.77 85.75Z" fill="white" style="fill:white;fill-opacity:1;"/>
</svg>
