<svg width="129" height="128" viewBox="0 0 129 128" fill="none" xmlns="http://www.w3.org/2000/svg">
<g clip-path="url(#clip0_159_281)">
<path d="M46.5508 37.943V42.5876H82.5468V37.943H46.5508Z" fill="#212121" style="fill:#212121;fill:color(display-p3 0.1294 0.1294 0.1294);fill-opacity:1;"/>
<path d="M82.0849 46.8277L82.6323 46.8277C83.727 46.8277 84.5481 46.0067 84.5481 44.9119V35.7433C84.5481 34.6485 83.727 33.8274 82.6323 33.8274L82.0849 33.8274C80.9901 33.8274 80.1691 34.6485 80.1691 35.7433L80.1691 44.9119C80.1006 45.9382 80.9901 46.8277 82.0849 46.8277Z" fill="#757575" style="fill:#757575;fill:color(display-p3 0.4588 0.4588 0.4588);fill-opacity:1;"/>
<path d="M46.5048 46.9647L47.0522 46.9647C48.147 46.9647 48.968 46.1436 48.968 45.0489L48.968 35.8802C48.968 34.7855 48.147 33.9644 47.0522 33.9644L46.5048 33.9644C45.4101 33.9644 44.589 34.7855 44.589 35.8802V45.0489C44.589 46.1436 45.4101 46.9647 46.5048 46.9647Z" fill="#757575" style="fill:#757575;fill:color(display-p3 0.4588 0.4588 0.4588);fill-opacity:1;"/>
<path d="M122.774 69.3389L73.0308 72.9653L56.1304 73.3074L6.31867 69.3389C4.47125 69.2704 3.30807 67.6967 3.92387 66.2598L9.67138 54.2174C10.6293 52.1648 13.0925 50.7963 15.8294 50.7963L113.263 50.7963C116 50.7963 118.464 52.1648 119.421 54.2174L125.169 66.2598C125.853 67.7651 124.69 69.202 122.774 69.3389Z" fill="url(#paint0_linear_159_281)" style=""/>
<path d="M122.774 69.3389L73.0308 72.9653L56.1304 73.3074L6.31867 69.3389C4.47125 69.2704 3.30807 67.6967 3.92387 66.2598L9.67138 54.2174C10.6293 52.1648 13.0925 50.7963 15.8294 50.7963L113.263 50.7963C116 50.7963 118.464 52.1648 119.421 54.2174L125.169 66.2598C125.853 67.7651 124.69 69.202 122.774 69.3389Z" fill="#00C1E9" style="fill:#00C1E9;fill:color(display-p3 0.0000 0.7569 0.9137);fill-opacity:1;"/>
<path d="M58.0124 55.5682C57.7057 54.2162 55.6054 54.1149 53.6536 54.1633C51.7019 54.2118 15.189 53.8241 13.9043 53.8816C12.6196 53.9392 11.3808 54.179 11.5587 55.4685C11.7366 56.7581 13.367 56.8697 15.0112 56.8406C16.6541 56.8255 54.8684 57.2537 55.9013 57.2991C56.9342 57.3445 58.4316 57.4358 58.0124 55.5682Z" fill="#B4DDFA" style="fill:#B4DDFA;fill:color(display-p3 0.7059 0.8667 0.9804);fill-opacity:1;"/>
<path d="M114.893 55.5682C114.587 54.2162 112.486 54.1149 110.534 54.1633C108.583 54.2118 72.0698 53.8241 70.7851 53.8816C69.5004 53.9392 68.2616 54.179 68.4396 55.4685C68.6175 56.7581 70.2478 56.8697 71.8921 56.8406C73.535 56.8255 111.749 57.2537 112.782 57.2991C113.815 57.3445 115.312 57.4358 114.893 55.5682Z" fill="#B4DDFA" style="fill:#B4DDFA;fill:color(display-p3 0.7059 0.8667 0.9804);fill-opacity:1;"/>
<path d="M62.3101 18.2956L66.7576 18.364L65.9365 6.18474C65.8681 4.88471 65.2523 3.85837 64.4996 3.78994C63.6786 3.78994 63.0627 4.81629 63.0627 6.18474C63.1312 6.11632 62.3101 18.2956 62.3101 18.2956Z" fill="#799FAE" style="fill:#799FAE;fill:color(display-p3 0.4745 0.6235 0.6824);fill-opacity:1;"/>
<path d="M44.3153 11.5217L64.5684 9.33221L84.8216 11.5217C85.9163 11.5217 86.8058 10.6322 86.8058 9.53748V8.9901C86.8058 7.89534 85.9163 7.00584 84.8216 7.00584L64.5684 9.33221L44.3153 7.14269C43.2205 7.14269 42.331 8.03218 42.331 9.12694L42.3995 9.60591C42.3995 10.7007 43.2205 11.5217 44.3153 11.5217Z" fill="#799FAE" style="fill:#799FAE;fill:color(display-p3 0.4745 0.6235 0.6824);fill-opacity:1;"/>
<path d="M64.4998 115.593C70.1105 115.593 75.2422 50.1122 76.4738 32.8697C76.6791 30.2012 76.0633 27.5327 74.7632 25.4116L73.1895 22.7431C72.2316 21.101 70.6579 20.0747 68.9473 20.1431L60.1892 20.1431C58.5471 20.1431 57.1102 21.0326 56.0838 22.6063L54.3733 25.2748C53.0048 27.4643 52.3206 30.2012 52.5943 32.9381C53.8943 50.5228 58.8892 115.593 64.4998 115.593Z" fill="#C8C8C8" style="fill:#C8C8C8;fill:color(display-p3 0.7833 0.7833 0.7833);fill-opacity:1;"/>
<path d="M73.2576 22.8114L74.8313 25.4799C75.0366 25.822 75.2419 26.1641 75.3787 26.5746L53.8256 26.5062C53.9624 26.0957 54.2361 25.6851 54.4414 25.343L56.1519 22.6746C57.1783 21.1008 58.6151 18.3421 60.2572 18.3421L69.0153 18.3421C70.6575 18.3421 72.2997 21.1692 73.2576 22.8114Z" fill="#C8C8C8" style="fill:#C8C8C8;fill:color(display-p3 0.7833 0.7833 0.7833);fill-opacity:1;"/>
<path d="M57.2474 38.9592C57.5895 39.8487 58.6159 40.3277 59.4369 39.9172C60.8054 39.3698 62.8581 39.2329 64.6371 39.2329C66.2792 39.2329 68.0582 39.3698 69.2214 39.9856C70.1109 40.4646 71.2741 39.9856 71.5478 39.0277L72.5057 36.0171C72.9162 34.9223 71.9583 33.6907 70.2477 33.2117L70.0425 33.1433C66.4845 32.0486 62.3791 32.0486 58.8896 33.0749L58.6843 33.1433C56.9053 33.6907 55.9474 34.7855 56.2895 35.9486L57.2474 38.9592Z" fill="#4FC3F7" style="fill:#4FC3F7;fill:color(display-p3 0.3098 0.7647 0.9686);fill-opacity:1;"/>
<path d="M57.2474 38.9592C57.5895 39.8487 58.6159 40.3277 59.4369 39.9172C60.8054 39.3698 62.8581 39.2329 64.6371 39.2329C66.2792 39.2329 68.0582 39.3698 69.2214 39.9856C70.1109 40.4646 71.2741 39.9856 71.5478 39.0277L72.5057 36.0171C72.9162 34.9223 71.9583 33.6907 70.2477 33.2117L70.0425 33.1433C66.4845 32.0486 62.3791 32.0486 58.8896 33.0749L58.6843 33.1433C56.9053 33.6907 55.9474 34.7855 56.2895 35.9486L57.2474 38.9592Z" fill="#546E7A" style="fill:#546E7A;fill:color(display-p3 0.3294 0.4314 0.4784);fill-opacity:1;"/>
<g opacity="0.2">
<g opacity="0.2">
<path d="M58.2051 35.538C58.2735 35.4696 58.5472 35.1959 59.163 34.9907L59.3683 34.9222C62.5157 33.9643 66.3474 33.9643 69.4264 34.9907L69.6317 35.0591C70.1791 35.1959 70.4528 35.4696 70.5896 35.6065L69.7001 38.1381C68.058 37.4539 66.1421 37.317 64.5 37.317C61.8999 37.317 60.1209 37.5907 58.8209 38.0697L58.2051 35.538ZM56.8366 34.1696C56.2892 34.717 56.084 35.3328 56.2893 35.9486L57.2472 38.9592C57.5893 39.8487 58.6156 40.3276 59.4367 39.9171C60.8052 39.3697 62.8578 39.2329 64.6368 39.2329C66.279 39.2329 68.058 39.3697 69.2212 39.9855C69.837 40.3276 70.658 40.1908 71.137 39.7118C71.2738 39.575 71.4791 39.3697 71.4791 39.096L72.437 36.0854C72.8476 34.9907 71.8896 33.7591 70.1791 33.2801L69.9738 33.2117C66.4158 32.1169 62.3105 32.1169 58.8209 33.1432L58.6156 33.2117C57.9314 33.3485 57.2472 33.7591 56.8366 34.1696Z" fill="#424242" style="fill:#424242;fill:color(display-p3 0.2588 0.2588 0.2588);fill-opacity:1;"/>
<path d="M58.2051 35.538C58.2735 35.4696 58.5472 35.1959 59.163 34.9907L59.3683 34.9222C62.5157 33.9643 66.3474 33.9643 69.4264 34.9907L69.6317 35.0591C70.1791 35.1959 70.4528 35.4696 70.5896 35.6065L69.7001 38.1381C68.058 37.4539 66.1421 37.317 64.5 37.317C61.8999 37.317 60.1209 37.5907 58.8209 38.0697L58.2051 35.538ZM56.8366 34.1696C56.2892 34.717 56.084 35.3328 56.2893 35.9486L57.2472 38.9592C57.5893 39.8487 58.6156 40.3276 59.4367 39.9171C60.8052 39.3697 62.8578 39.2329 64.6368 39.2329C66.279 39.2329 68.058 39.3697 69.2212 39.9855C69.837 40.3276 70.658 40.1908 71.137 39.7118C71.2738 39.575 71.4791 39.3697 71.4791 39.096L72.437 36.0854C72.8476 34.9907 71.8896 33.7591 70.1791 33.2801L69.9738 33.2117C66.4158 32.1169 62.3105 32.1169 58.8209 33.1432L58.6156 33.2117C57.9314 33.3485 57.2472 33.7591 56.8366 34.1696Z" fill="#546E7A" style="fill:#546E7A;fill:color(display-p3 0.3294 0.4314 0.4784);fill-opacity:1;"/>
</g>
</g>
<path d="M41.0311 116.345L64.5685 114.156L88.1059 116.345C90.0902 116.551 91.5955 115.045 91.1165 113.608L88.8586 104.371C88.3112 102.866 86.8059 101.634 84.8216 101.292L64.3632 97.5291L43.8364 101.361C41.8521 101.703 40.3468 102.935 39.7995 104.44L38.0889 113.677C37.5415 115.182 39.0468 116.551 41.0311 116.345Z" fill="#00C1E9" style="fill:#00C1E9;fill:color(display-p3 0.0000 0.7569 0.9137);fill-opacity:1;"/>
<path d="M67.0802 107.321C67.0802 99.3051 65.7805 92.8067 64.1773 92.8067C62.5741 92.8067 61.2744 99.3051 61.2744 107.321C61.2744 115.337 62.5741 121.836 64.1773 121.836C65.7805 121.836 67.0802 115.337 67.0802 107.321Z" fill="#EEEEEE" style="fill:#EEEEEE;fill:color(display-p3 0.9333 0.9333 0.9333);fill-opacity:1;"/>
</g>
<defs>
<linearGradient id="paint0_linear_159_281" x1="115.823" y1="54.9849" x2="-0.519304" y2="67.639" gradientUnits="userSpaceOnUse">
<stop stop-color="#FB8C00" style="stop-color:#FB8C00;stop-color:color(display-p3 0.9843 0.5490 0.0000);stop-opacity:1;"/>
<stop offset="1" stop-color="#EF6C00" style="stop-color:#EF6C00;stop-color:color(display-p3 0.9373 0.4235 0.0000);stop-opacity:1;"/>
</linearGradient>
<clipPath id="clip0_159_281">
<rect width="128" height="128" fill="white" style="fill:white;fill-opacity:1;" transform="translate(0.5)"/>
</clipPath>
</defs>
</svg>
