<svg width="128" height="128" viewBox="0 0 128 128" fill="none" xmlns="http://www.w3.org/2000/svg">
<g clip-path="url(#clip0_183_49)">
<g filter="url(#filter0_i_183_49)">
<path d="M122.77 80.7502C122.79 80.4002 122.8 80.0502 122.81 79.6902C122.9 77.2902 121 75.2802 118.52 75.0702V74.9802C120.98 74.6202 122.75 72.4902 122.49 70.0902C122.45 69.7302 122.41 69.3802 122.37 69.0302C122.09 66.8102 120.16 65.1602 117.89 65.0802C117.88 64.9902 117.86 64.9102 117.84 64.8202C119.91 63.9102 121.05 61.7002 120.42 59.5402C120.32 59.1902 120.21 58.8502 120.11 58.5002C119.46 56.4202 117.38 55.1302 115.21 55.3002C115.17 55.1902 115.12 55.0802 115.07 54.9702C116.8 53.6902 117.41 51.3802 116.4 49.4202C116.23 49.1002 116.07 48.7802 115.89 48.4602C114.85 46.5402 112.57 45.6302 110.47 46.1802C110.4 46.0702 110.32 45.9602 110.25 45.8502C111.66 44.2702 111.78 41.9102 110.41 40.1902C110.18 39.9002 109.94 39.6102 109.71 39.3302C108.29 37.6402 105.86 37.1902 103.92 38.1302C103.82 38.0302 103.73 37.9402 103.63 37.8502C104.67 36.0202 104.28 33.6902 102.56 32.2802C102.27 32.0402 101.97 31.8102 101.68 31.5702C99.9502 30.2202 97.5302 30.2502 95.8402 31.4902C95.7102 31.4002 95.5702 31.3102 95.4402 31.2202C96.0102 29.2502 95.1102 27.0902 93.1502 26.0802C92.8202 25.9102 92.4902 25.7402 92.1502 25.5702C90.2302 24.6202 87.9502 25.0702 86.5502 26.5102C86.3502 26.4302 86.1602 26.3402 85.9602 26.2602C86.0002 24.3002 84.7102 22.4802 82.6602 21.8802C82.2902 21.7702 81.9302 21.6702 81.5602 21.5702C79.5502 21.0202 77.5002 21.8302 76.4002 23.3902C76.1602 23.3402 75.9202 23.2902 75.6802 23.2402C75.3102 21.1802 73.7302 19.1902 71.6302 18.9802C71.2602 18.9402 70.8802 18.9102 70.5002 18.8802C68.3202 18.7002 66.1502 20.2802 65.3602 22.2502C65.2602 22.2502 65.1602 22.2402 65.0502 22.2402H65.0302C64.3202 20.1802 62.1902 18.7702 60.0602 18.9402C59.6802 18.9702 59.3102 19.0102 58.9302 19.0402C56.8302 19.2502 54.9002 21.2002 54.3802 23.2402C54.1202 23.2902 53.8702 23.3502 53.6202 23.4002C52.5202 21.8202 50.4602 21.0102 48.4402 21.5602C48.0702 21.6602 47.7002 21.7602 47.3402 21.8702C45.2702 22.4802 43.9802 24.3202 44.0402 26.2902C43.8502 26.3702 43.6702 26.4502 43.4802 26.5302C42.0802 25.0602 39.7802 24.6002 37.8502 25.5602C37.5202 25.7302 37.1802 25.9002 36.8502 26.0702C34.8702 27.0902 33.9702 29.2802 34.5702 31.2702C34.4502 31.3502 34.3302 31.4302 34.2002 31.5202C32.5002 30.2402 30.0502 30.2002 28.3102 31.5702C28.0102 31.8002 27.7202 32.0402 27.4302 32.2802C25.6902 33.7002 25.3102 36.0702 26.3902 37.9002L26.1302 38.1602C24.1802 37.1802 21.7102 37.6302 20.2802 39.3302C20.0402 39.6102 19.8102 39.9002 19.5802 40.1902C18.1902 41.9302 18.3302 44.3302 19.7902 45.9102C19.7202 46.0102 19.6602 46.1002 19.5902 46.2002C17.4702 45.6102 15.1502 46.5102 14.1002 48.4602C13.9302 48.7802 13.7602 49.1002 13.5902 49.4202C12.5702 51.3902 13.2102 53.7302 15.0002 55.0002C14.9602 55.1002 14.9102 55.2002 14.8702 55.3002C12.6602 55.0902 10.5402 56.3802 9.88024 58.4902C9.77024 58.8302 9.67024 59.1802 9.57024 59.5302C8.93024 61.7202 10.1102 63.9602 12.2302 64.8502C12.2202 64.9302 12.2002 65.0002 12.1902 65.0802C9.89024 65.1302 7.90024 66.7802 7.62024 69.0302C7.58024 69.3802 7.54024 69.7402 7.50024 70.0902C7.24024 72.5202 9.05024 74.6802 11.5602 75.0002V75.0702C9.04024 75.2402 7.09024 77.2702 7.18024 79.7002C7.19024 80.0502 7.21024 80.4002 7.22024 80.7602C7.34024 83.1602 9.42024 85.0002 11.8802 85.0302C11.8802 85.0602 11.8802 85.0902 11.8902 85.1202C9.47024 85.6002 7.83024 87.7802 8.18024 90.1502C8.23024 90.4902 9.02024 94.4802 12.7002 94.9602C10.3402 96.0202 10.2602 98.8002 11.4202 100.89C12.4302 102.7 17.6902 106.86 18.3802 107.59V107.57C18.7602 108.12 19.1502 108.66 19.5802 109.19C19.6802 109.24 19.7402 109.26 19.7402 109.24C19.6302 104.37 20.5202 97.7302 21.8002 91.2602C22.2602 88.9602 22.7602 86.6902 23.2902 84.5202C26.2102 84.0002 28.4302 81.5202 28.4302 78.5302C28.4302 77.4102 28.1002 76.3802 27.5602 75.4802C28.2702 75.7502 29.0302 75.9102 29.8402 75.9102C32.7502 75.9102 35.1702 73.9702 35.8802 71.3502C36.9302 73.2902 38.9902 74.6202 41.4002 74.6202C44.7002 74.6202 47.3802 72.1202 47.6202 68.9702H47.6502C48.0602 71.9502 50.6602 74.2602 53.8302 74.2602C56.3002 74.2602 58.4202 72.8502 59.4402 70.8302C60.4202 72.9502 62.6002 74.4402 65.1502 74.4402C67.5702 74.4402 69.6502 73.0902 70.6902 71.1302C71.7602 72.9902 73.7902 74.2602 76.1302 74.2602C79.2902 74.2602 81.8802 71.9702 82.3102 69.0002H82.3402C82.6002 72.1402 85.2702 74.6202 88.5602 74.6202C90.9702 74.6202 93.0302 73.2902 94.0802 71.3502C94.7902 73.9702 97.2102 75.9102 100.12 75.9102C101.22 75.9102 102.23 75.6102 103.12 75.1302C102.59 76.0302 102.26 77.0602 102.26 78.1702C102.26 80.9802 104.22 83.3302 106.88 84.0302C108.94 92.3702 110.69 102.41 110.55 109.14C111.09 108.46 111.58 107.75 112.06 107.03C113.65 105.64 117.55 102.42 118.41 100.89C119.57 98.8202 119.49 96.0702 117.18 94.9902C119.39 94.9202 121.31 93.3602 121.66 91.1902C121.72 90.8502 121.77 90.5002 121.82 90.1502C122.17 87.8102 120.57 85.6602 118.2 85.1402C118.2 85.1002 118.2 85.0602 118.21 85.0202C120.62 84.9402 122.65 83.1202 122.77 80.7502Z" fill="url(#paint0_radial_183_49)" style=""/>
<path d="M122.77 80.7502C122.79 80.4002 122.8 80.0502 122.81 79.6902C122.9 77.2902 121 75.2802 118.52 75.0702V74.9802C120.98 74.6202 122.75 72.4902 122.49 70.0902C122.45 69.7302 122.41 69.3802 122.37 69.0302C122.09 66.8102 120.16 65.1602 117.89 65.0802C117.88 64.9902 117.86 64.9102 117.84 64.8202C119.91 63.9102 121.05 61.7002 120.42 59.5402C120.32 59.1902 120.21 58.8502 120.11 58.5002C119.46 56.4202 117.38 55.1302 115.21 55.3002C115.17 55.1902 115.12 55.0802 115.07 54.9702C116.8 53.6902 117.41 51.3802 116.4 49.4202C116.23 49.1002 116.07 48.7802 115.89 48.4602C114.85 46.5402 112.57 45.6302 110.47 46.1802C110.4 46.0702 110.32 45.9602 110.25 45.8502C111.66 44.2702 111.78 41.9102 110.41 40.1902C110.18 39.9002 109.94 39.6102 109.71 39.3302C108.29 37.6402 105.86 37.1902 103.92 38.1302C103.82 38.0302 103.73 37.9402 103.63 37.8502C104.67 36.0202 104.28 33.6902 102.56 32.2802C102.27 32.0402 101.97 31.8102 101.68 31.5702C99.9502 30.2202 97.5302 30.2502 95.8402 31.4902C95.7102 31.4002 95.5702 31.3102 95.4402 31.2202C96.0102 29.2502 95.1102 27.0902 93.1502 26.0802C92.8202 25.9102 92.4902 25.7402 92.1502 25.5702C90.2302 24.6202 87.9502 25.0702 86.5502 26.5102C86.3502 26.4302 86.1602 26.3402 85.9602 26.2602C86.0002 24.3002 84.7102 22.4802 82.6602 21.8802C82.2902 21.7702 81.9302 21.6702 81.5602 21.5702C79.5502 21.0202 77.5002 21.8302 76.4002 23.3902C76.1602 23.3402 75.9202 23.2902 75.6802 23.2402C75.3102 21.1802 73.7302 19.1902 71.6302 18.9802C71.2602 18.9402 70.8802 18.9102 70.5002 18.8802C68.3202 18.7002 66.1502 20.2802 65.3602 22.2502C65.2602 22.2502 65.1602 22.2402 65.0502 22.2402H65.0302C64.3202 20.1802 62.1902 18.7702 60.0602 18.9402C59.6802 18.9702 59.3102 19.0102 58.9302 19.0402C56.8302 19.2502 54.9002 21.2002 54.3802 23.2402C54.1202 23.2902 53.8702 23.3502 53.6202 23.4002C52.5202 21.8202 50.4602 21.0102 48.4402 21.5602C48.0702 21.6602 47.7002 21.7602 47.3402 21.8702C45.2702 22.4802 43.9802 24.3202 44.0402 26.2902C43.8502 26.3702 43.6702 26.4502 43.4802 26.5302C42.0802 25.0602 39.7802 24.6002 37.8502 25.5602C37.5202 25.7302 37.1802 25.9002 36.8502 26.0702C34.8702 27.0902 33.9702 29.2802 34.5702 31.2702C34.4502 31.3502 34.3302 31.4302 34.2002 31.5202C32.5002 30.2402 30.0502 30.2002 28.3102 31.5702C28.0102 31.8002 27.7202 32.0402 27.4302 32.2802C25.6902 33.7002 25.3102 36.0702 26.3902 37.9002L26.1302 38.1602C24.1802 37.1802 21.7102 37.6302 20.2802 39.3302C20.0402 39.6102 19.8102 39.9002 19.5802 40.1902C18.1902 41.9302 18.3302 44.3302 19.7902 45.9102C19.7202 46.0102 19.6602 46.1002 19.5902 46.2002C17.4702 45.6102 15.1502 46.5102 14.1002 48.4602C13.9302 48.7802 13.7602 49.1002 13.5902 49.4202C12.5702 51.3902 13.2102 53.7302 15.0002 55.0002C14.9602 55.1002 14.9102 55.2002 14.8702 55.3002C12.6602 55.0902 10.5402 56.3802 9.88024 58.4902C9.77024 58.8302 9.67024 59.1802 9.57024 59.5302C8.93024 61.7202 10.1102 63.9602 12.2302 64.8502C12.2202 64.9302 12.2002 65.0002 12.1902 65.0802C9.89024 65.1302 7.90024 66.7802 7.62024 69.0302C7.58024 69.3802 7.54024 69.7402 7.50024 70.0902C7.24024 72.5202 9.05024 74.6802 11.5602 75.0002V75.0702C9.04024 75.2402 7.09024 77.2702 7.18024 79.7002C7.19024 80.0502 7.21024 80.4002 7.22024 80.7602C7.34024 83.1602 9.42024 85.0002 11.8802 85.0302C11.8802 85.0602 11.8802 85.0902 11.8902 85.1202C9.47024 85.6002 7.83024 87.7802 8.18024 90.1502C8.23024 90.4902 9.02024 94.4802 12.7002 94.9602C10.3402 96.0202 10.2602 98.8002 11.4202 100.89C12.4302 102.7 17.6902 106.86 18.3802 107.59V107.57C18.7602 108.12 19.1502 108.66 19.5802 109.19C19.6802 109.24 19.7402 109.26 19.7402 109.24C19.6302 104.37 20.5202 97.7302 21.8002 91.2602C22.2602 88.9602 22.7602 86.6902 23.2902 84.5202C26.2102 84.0002 28.4302 81.5202 28.4302 78.5302C28.4302 77.4102 28.1002 76.3802 27.5602 75.4802C28.2702 75.7502 29.0302 75.9102 29.8402 75.9102C32.7502 75.9102 35.1702 73.9702 35.8802 71.3502C36.9302 73.2902 38.9902 74.6202 41.4002 74.6202C44.7002 74.6202 47.3802 72.1202 47.6202 68.9702H47.6502C48.0602 71.9502 50.6602 74.2602 53.8302 74.2602C56.3002 74.2602 58.4202 72.8502 59.4402 70.8302C60.4202 72.9502 62.6002 74.4402 65.1502 74.4402C67.5702 74.4402 69.6502 73.0902 70.6902 71.1302C71.7602 72.9902 73.7902 74.2602 76.1302 74.2602C79.2902 74.2602 81.8802 71.9702 82.3102 69.0002H82.3402C82.6002 72.1402 85.2702 74.6202 88.5602 74.6202C90.9702 74.6202 93.0302 73.2902 94.0802 71.3502C94.7902 73.9702 97.2102 75.9102 100.12 75.9102C101.22 75.9102 102.23 75.6102 103.12 75.1302C102.59 76.0302 102.26 77.0602 102.26 78.1702C102.26 80.9802 104.22 83.3302 106.88 84.0302C108.94 92.3702 110.69 102.41 110.55 109.14C111.09 108.46 111.58 107.75 112.06 107.03C113.65 105.64 117.55 102.42 118.41 100.89C119.57 98.8202 119.49 96.0702 117.18 94.9902C119.39 94.9202 121.31 93.3602 121.66 91.1902C121.72 90.8502 121.77 90.5002 121.82 90.1502C122.17 87.8102 120.57 85.6602 118.2 85.1402C118.2 85.1002 118.2 85.0602 118.21 85.0202C120.62 84.9402 122.65 83.1202 122.77 80.7502Z" fill="#543930" style="fill:#543930;fill:color(display-p3 0.3294 0.2235 0.1882);fill-opacity:1;"/>
</g>
</g>
<defs>
<filter id="filter0_i_183_49" x="7.17725" y="18.8662" width="115.636" height="95.3818" filterUnits="userSpaceOnUse" color-interpolation-filters="sRGB">
<feFlood flood-opacity="0" result="BackgroundImageFix"/>
<feBlend mode="normal" in="SourceGraphic" in2="BackgroundImageFix" result="shape"/>
<feColorMatrix in="SourceAlpha" type="matrix" values="0 0 0 0 0 0 0 0 0 0 0 0 0 0 0 0 0 0 127 0" result="hardAlpha"/>
<feOffset dy="5"/>
<feGaussianBlur stdDeviation="5"/>
<feComposite in2="hardAlpha" operator="arithmetic" k2="-1" k3="1"/>
<feColorMatrix type="matrix" values="0 0 0 0 0.427451 0 0 0 0 0.298039 0 0 0 0 0.254902 0 0 0 1 0"/>
<feBlend mode="normal" in2="shape" result="effect1_innerShadow_183_49"/>
</filter>
<radialGradient id="paint0_radial_183_49" cx="0" cy="0" r="1" gradientUnits="userSpaceOnUse" gradientTransform="translate(67.1212 28.8602) scale(65.349 65.349)">
<stop stop-color="#6D4C41" style="stop-color:#6D4C41;stop-color:color(display-p3 0.4275 0.2980 0.2549);stop-opacity:1;"/>
<stop offset="1" stop-color="#543930" style="stop-color:#543930;stop-color:color(display-p3 0.3294 0.2235 0.1882);stop-opacity:1;"/>
</radialGradient>
<clipPath id="clip0_183_49">
<rect width="128" height="128" fill="white" style="fill:white;fill-opacity:1;"/>
</clipPath>
</defs>
</svg>
