<svg width="129" height="128" viewBox="0 0 129 128" fill="none" xmlns="http://www.w3.org/2000/svg">
<path d="M23.5 19H41.9677L64.0493 58.8145H64.9309L87.0127 19H105.48L72.6438 75.4258V109H56.3359V75.4258L23.5 19Z" fill="#DFE6EB" style="fill:#DFE6EB;fill:color(display-p3 0.8745 0.9020 0.9216);fill-opacity:1;"/>
<path d="M23.5 19H41.9677L64.0493 58.8145H64.9309L87.0127 19H105.48L72.6438 75.4258V109H56.3359V75.4258L23.5 19Z" fill="#8CAFBF" style="fill:#8CAFBF;fill:color(display-p3 0.5490 0.6863 0.7490);fill-opacity:1;"/>
<path fill-rule="evenodd" clip-rule="evenodd" d="M18.2832 16H43.7344L64.4901 53.4239L85.246 16H110.697L75.6438 76.2352V112H53.3359V76.2351L18.2832 16ZM56.3359 75.4258V109H72.6438V75.4258L105.48 19H87.0127L64.9309 58.8145H64.0493L41.9677 19H23.5L56.3359 75.4258Z" fill="#427687" style="fill:#427687;fill:color(display-p3 0.2588 0.4627 0.5294);fill-opacity:1;"/>
</svg>
