<svg width="128" height="128" viewBox="0 0 128 128" fill="none" xmlns="http://www.w3.org/2000/svg">
<path d="M63.6 118.8C35.7 118.8 5.59998 101.3 5.59998 62.9C5.59998 24.5 35.7 7 63.6 7C79.1 7 93.4 12.1 104 21.4C115.5 31.6 121.6 46 121.6 62.9C121.6 79.8 115.5 94.1 104 104.3C93.4 113.6 79 118.8 63.6 118.8Z" fill="url(#paint0_radial_169_10545)" style=""/>
<path d="M63.6 118.8C35.7 118.8 5.59998 101.3 5.59998 62.9C5.59998 24.5 35.7 7 63.6 7C79.1 7 93.4 12.1 104 21.4C115.5 31.6 121.6 46 121.6 62.9C121.6 79.8 115.5 94.1 104 104.3C93.4 113.6 79 118.8 63.6 118.8Z" fill="url(#paint1_radial_169_10545)" style=""/>
<path d="M63.6 118.8C35.7 118.8 5.59998 101.3 5.59998 62.9C5.59998 24.5 35.7 7 63.6 7C79.1 7 93.4 12.1 104 21.4C115.5 31.6 121.6 46 121.6 62.9C121.6 79.8 115.5 94.1 104 104.3C93.4 113.6 79 118.8 63.6 118.8Z" fill="url(#paint2_radial_169_10545)" style=""/>
<path d="M63.6 118.8C35.7 118.8 5.59998 101.3 5.59998 62.9C5.59998 24.5 35.7 7 63.6 7C79.1 7 93.4 12.1 104 21.4C115.5 31.6 121.6 46 121.6 62.9C121.6 79.8 115.5 94.1 104 104.3C93.4 113.6 79 118.8 63.6 118.8Z" fill="url(#paint3_radial_169_10545)" style=""/>
<path d="M111.49 29.67C116.82 38.27 119.6 48.51 119.6 59.9C119.6 76.8 113.5 91.1 102 101.3C91.3999 110.6 76.9999 115.8 61.5999 115.8C43.5399 115.8 24.5999 108.45 13.4199 92.86C24.1799 110.52 44.4199 118.8 63.5999 118.8C78.9999 118.8 93.3999 113.6 104 104.3C115.5 94.1 121.6 79.8 121.6 62.9C121.6 50.16 118.13 38.84 111.49 29.67Z" fill="#EB8F00" style="fill:#EB8F00;fill:color(display-p3 0.9216 0.5608 0.0000);fill-opacity:1;"/>
<path d="M111.49 29.67C116.82 38.27 119.6 48.51 119.6 59.9C119.6 76.8 113.5 91.1 102 101.3C91.3999 110.6 76.9999 115.8 61.5999 115.8C43.5399 115.8 24.5999 108.45 13.4199 92.86C24.1799 110.52 44.4199 118.8 63.5999 118.8C78.9999 118.8 93.3999 113.6 104 104.3C115.5 94.1 121.6 79.8 121.6 62.9C121.6 50.16 118.13 38.84 111.49 29.67Z" fill="#F3B872" style="fill:#F3B872;fill:color(display-p3 0.9542 0.7229 0.4453);fill-opacity:1;"/>
<path d="M111.49 29.67C116.82 38.27 119.6 48.51 119.6 59.9C119.6 76.8 113.5 91.1 102 101.3C91.3999 110.6 76.9999 115.8 61.5999 115.8C43.5399 115.8 24.5999 108.45 13.4199 92.86C24.1799 110.52 44.4199 118.8 63.5999 118.8C78.9999 118.8 93.3999 113.6 104 104.3C115.5 94.1 121.6 79.8 121.6 62.9C121.6 50.16 118.13 38.84 111.49 29.67Z" fill="#4A2F27" style="fill:#4A2F27;fill:color(display-p3 0.2902 0.1843 0.1529);fill-opacity:1;"/>
<path d="M74.3 24.5C75.19 23.71 76.12 22.98 77.1 22.3C78.1 21.6 79.2 21.1 80.2 20.5C82.53 19.3 85.08 18.58 87.7 18.4C88.43 18.39 89.17 18.42 89.9 18.5C90.65 18.57 91.39 18.74 92.1 19C92.3 19.1 92.5 19.1 92.6 19.2L93.1 19.5L94.1 20C94.72 20.44 95.32 20.9 95.9 21.4C96.91 22.41 97.72 23.59 98.3 24.9C98.58 25.48 98.81 26.08 99 26.7C99.2 27.3 99.3 27.9 99.4 28.3L99.5 28.6C99.71 29.81 98.91 30.97 97.7 31.2C96.75 31.38 95.79 30.94 95.3 30.1C95 29.5 94.7 29 94.5 28.6C94.3 28.2 94 27.8 93.8 27.4C93.31 26.73 92.74 26.13 92.1 25.6C91.95 25.48 91.78 25.38 91.6 25.3C91.45 25.23 91.31 25.12 91.2 25C91 24.9 90.9 24.9 90.7 24.8L90.5 24.7H90.2C89.49 24.48 88.74 24.41 88 24.5C86.14 24.63 84.32 25.07 82.6 25.8C81.7 26.2 80.7 26.6 79.8 27C78.86 27.49 77.89 27.93 76.9 28.3L76.7 28.4C75.6 28.88 74.32 28.39 73.84 27.29C73.83 27.26 73.81 27.23 73.8 27.2C73.33 26.29 73.54 25.18 74.3 24.5Z" fill="#42312C" style="fill:#42312C;fill:color(display-p3 0.2588 0.1922 0.1725);fill-opacity:1;"/>
<path d="M74.3 24.5C75.19 23.71 76.12 22.98 77.1 22.3C78.1 21.6 79.2 21.1 80.2 20.5C82.53 19.3 85.08 18.58 87.7 18.4C88.43 18.39 89.17 18.42 89.9 18.5C90.65 18.57 91.39 18.74 92.1 19C92.3 19.1 92.5 19.1 92.6 19.2L93.1 19.5L94.1 20C94.72 20.44 95.32 20.9 95.9 21.4C96.91 22.41 97.72 23.59 98.3 24.9C98.58 25.48 98.81 26.08 99 26.7C99.2 27.3 99.3 27.9 99.4 28.3L99.5 28.6C99.71 29.81 98.91 30.97 97.7 31.2C96.75 31.38 95.79 30.94 95.3 30.1C95 29.5 94.7 29 94.5 28.6C94.3 28.2 94 27.8 93.8 27.4C93.31 26.73 92.74 26.13 92.1 25.6C91.95 25.48 91.78 25.38 91.6 25.3C91.45 25.23 91.31 25.12 91.2 25C91 24.9 90.9 24.9 90.7 24.8L90.5 24.7H90.2C89.49 24.48 88.74 24.41 88 24.5C86.14 24.63 84.32 25.07 82.6 25.8C81.7 26.2 80.7 26.6 79.8 27C78.86 27.49 77.89 27.93 76.9 28.3L76.7 28.4C75.6 28.88 74.32 28.39 73.84 27.29C73.83 27.26 73.81 27.23 73.8 27.2C73.33 26.29 73.54 25.18 74.3 24.5Z" fill="#42312C" style="fill:#42312C;fill:color(display-p3 0.2588 0.1922 0.1725);fill-opacity:1;"/>
<path d="M45.6 38.5C44.95 38.69 44.28 38.79 43.6 38.8C42.97 38.85 42.33 38.85 41.7 38.8C40.41 38.8 39.13 38.6 37.9 38.2C36.04 37.71 34.12 37.44 32.2 37.4C31.46 37.39 30.71 37.49 30 37.7C29.39 37.9 28.84 38.24 28.4 38.7C27.22 40.11 26.21 41.65 25.4 43.3C24.79 44.4 23.41 44.8 22.3 44.2C21.46 43.71 20.98 42.77 21.1 41.8C21.32 40.61 21.62 39.44 22 38.3C22.47 37 23.15 35.79 24 34.7C24.99 33.47 26.31 32.53 27.8 32C29.19 31.53 30.64 31.3 32.1 31.3C34.57 31.44 37 31.98 39.3 32.9C40.19 33.21 41.09 33.48 42 33.7C42.46 33.82 42.93 33.88 43.4 33.9C43.8 33.9 44.4 34 44.7 34H45.1C46.29 34.03 47.23 35.02 47.2 36.21C47.2 36.24 47.2 36.27 47.2 36.3C47.36 37.35 46.64 38.33 45.6 38.5Z" fill="#42312C" style="fill:#42312C;fill:color(display-p3 0.2588 0.1922 0.1725);fill-opacity:1;"/>
<path d="M45.6 38.5C44.95 38.69 44.28 38.79 43.6 38.8C42.97 38.85 42.33 38.85 41.7 38.8C40.41 38.8 39.13 38.6 37.9 38.2C36.04 37.71 34.12 37.44 32.2 37.4C31.46 37.39 30.71 37.49 30 37.7C29.39 37.9 28.84 38.24 28.4 38.7C27.22 40.11 26.21 41.65 25.4 43.3C24.79 44.4 23.41 44.8 22.3 44.2C21.46 43.71 20.98 42.77 21.1 41.8C21.32 40.61 21.62 39.44 22 38.3C22.47 37 23.15 35.79 24 34.7C24.99 33.47 26.31 32.53 27.8 32C29.19 31.53 30.64 31.3 32.1 31.3C34.57 31.44 37 31.98 39.3 32.9C40.19 33.21 41.09 33.48 42 33.7C42.46 33.82 42.93 33.88 43.4 33.9C43.8 33.9 44.4 34 44.7 34H45.1C46.29 34.03 47.23 35.02 47.2 36.21C47.2 36.24 47.2 36.27 47.2 36.3C47.36 37.35 46.64 38.33 45.6 38.5Z" fill="url(#paint4_radial_169_10545)" style=""/>
<path d="M45.6 38.5C44.95 38.69 44.28 38.79 43.6 38.8C42.97 38.85 42.33 38.85 41.7 38.8C40.41 38.8 39.13 38.6 37.9 38.2C36.04 37.71 34.12 37.44 32.2 37.4C31.46 37.39 30.71 37.49 30 37.7C29.39 37.9 28.84 38.24 28.4 38.7C27.22 40.11 26.21 41.65 25.4 43.3C24.79 44.4 23.41 44.8 22.3 44.2C21.46 43.71 20.98 42.77 21.1 41.8C21.32 40.61 21.62 39.44 22 38.3C22.47 37 23.15 35.79 24 34.7C24.99 33.47 26.31 32.53 27.8 32C29.19 31.53 30.64 31.3 32.1 31.3C34.57 31.44 37 31.98 39.3 32.9C40.19 33.21 41.09 33.48 42 33.7C42.46 33.82 42.93 33.88 43.4 33.9C43.8 33.9 44.4 34 44.7 34H45.1C46.29 34.03 47.23 35.02 47.2 36.21C47.2 36.24 47.2 36.27 47.2 36.3C47.36 37.35 46.64 38.33 45.6 38.5Z" fill="#42312C" style="fill:#42312C;fill:color(display-p3 0.2588 0.1922 0.1725);fill-opacity:1;"/>
<path d="M44 91.3C45.8 89.3 50.6 87 57.3 87.1C66.2 87.3 71 91.3 71 91.3C73.9 93.7 72.6 97.4 69.5 97.1C64.5 96.5 64.8 95.6 55.8 95.4C52.48 95.28 49.15 95.58 45.9 96.3C44.1 96.4 43.4 95.7 43.1 94.5C42.81 93.35 43.15 92.13 44 91.3Z" fill="#42312C" style="fill:#42312C;fill:color(display-p3 0.2588 0.1922 0.1725);fill-opacity:1;"/>
<path d="M82.3001 43.8C86.7001 43.8 90.7001 47.5 90.7001 53.7C90.7001 59.9 86.7001 63.6 82.3001 63.6C77.9001 63.6 73.9001 59.9 73.9001 53.7C73.9001 47.5 77.9001 43.8 82.3001 43.8Z" fill="#42312C" style="fill:#42312C;fill:color(display-p3 0.2588 0.1922 0.1725);fill-opacity:1;"/>
<path d="M37.2001 45.5C33.0001 45.5 29.2001 49 29.2001 54.9C29.2001 60.8 33.0001 64.3 37.2001 64.3C41.4001 64.3 45.2001 60.8 45.2001 54.9C45.2001 49 41.4001 45.5 37.2001 45.5Z" fill="#42312C" style="fill:#42312C;fill:color(display-p3 0.2588 0.1922 0.1725);fill-opacity:1;"/>
<path d="M37.2001 45.5C33.0001 45.5 29.2001 49 29.2001 54.9C29.2001 60.8 33.0001 64.3 37.2001 64.3C41.4001 64.3 45.2001 60.8 45.2001 54.9C45.2001 49 41.4001 45.5 37.2001 45.5Z" fill="#42312C" style="fill:#42312C;fill:color(display-p3 0.2588 0.1922 0.1725);fill-opacity:1;"/>
<path d="M106.5 49.9H100.9V58.9H106.5C109.2 58.9 111.9 57.2 111.9 54.6V54.2C111.9 51.5 109.2 49.9 106.5 49.9ZM106 57.6C104.18 57.54 102.75 56.02 102.8 54.2C102.86 52.38 104.38 50.95 106.2 51C107.98 51.05 109.4 52.51 109.4 54.3C109.37 56.15 107.85 57.63 106 57.6Z" fill="#404040" style="fill:#404040;fill:color(display-p3 0.2510 0.2510 0.2510);fill-opacity:1;"/>
<path d="M106.1 70.8C105.8 70.82 105.53 70.6 105.5 70.3V65.7C105.48 65.44 105.68 65.22 105.94 65.2C105.96 65.2 105.98 65.2 106 65.2H106.1C106.36 65.18 106.58 65.38 106.6 65.64C106.6 65.66 106.6 65.68 106.6 65.7V70.3C106.58 70.57 106.37 70.78 106.1 70.8Z" fill="#404040" style="fill:#404040;fill:color(display-p3 0.2510 0.2510 0.2510);fill-opacity:1;"/>
<path d="M106.1 78.4C105.8 78.42 105.53 78.2 105.5 77.9V73.3C105.48 73.04 105.68 72.82 105.94 72.8C105.96 72.8 105.98 72.8 106 72.8H106.1C106.36 72.78 106.58 72.98 106.6 73.24C106.6 73.26 106.6 73.28 106.6 73.3V77.9C106.62 78.16 106.42 78.38 106.16 78.4C106.14 78.4 106.12 78.4 106.1 78.4Z" fill="#404040" style="fill:#404040;fill:color(display-p3 0.2510 0.2510 0.2510);fill-opacity:1;"/>
<path d="M106.1 86.1C105.8 86.12 105.53 85.9 105.5 85.6V81C105.48 80.74 105.68 80.52 105.94 80.5C105.96 80.5 105.98 80.5 106 80.5H106.1C106.36 80.48 106.58 80.68 106.6 80.94C106.6 80.96 106.6 80.98 106.6 81V85.6C106.62 85.86 106.42 86.08 106.16 86.1C106.14 86.1 106.12 86.1 106.1 86.1Z" fill="#404040" style="fill:#404040;fill:color(display-p3 0.2510 0.2510 0.2510);fill-opacity:1;"/>
<path d="M106.1 93.8C105.8 93.82 105.53 93.6 105.5 93.3V88.7C105.48 88.44 105.68 88.22 105.94 88.2C105.96 88.2 105.98 88.2 106 88.2H106.1C106.36 88.18 106.58 88.38 106.6 88.64C106.6 88.66 106.6 88.68 106.6 88.7V93.3C106.62 93.56 106.42 93.78 106.16 93.8C106.14 93.8 106.12 93.8 106.1 93.8Z" fill="#404040" style="fill:#404040;fill:color(display-p3 0.2510 0.2510 0.2510);fill-opacity:1;"/>
<path d="M106.1 101.5C105.8 101.52 105.53 101.3 105.5 101V96.4C105.48 96.14 105.68 95.92 105.94 95.9C105.96 95.9 105.98 95.9 106 95.9H106.1C106.36 95.88 106.58 96.08 106.6 96.34C106.6 96.36 106.6 96.38 106.6 96.4V101C106.62 101.26 106.42 101.48 106.16 101.5C106.14 101.5 106.12 101.5 106.1 101.5Z" fill="#404040" style="fill:#404040;fill:color(display-p3 0.2510 0.2510 0.2510);fill-opacity:1;"/>
<path d="M106.1 109.2C105.8 109.22 105.53 109 105.5 108.7V104.1C105.48 103.84 105.68 103.62 105.94 103.6C105.96 103.6 105.98 103.6 106 103.6H106.1C106.36 103.58 106.58 103.78 106.6 104.04C106.6 104.06 106.6 104.08 106.6 104.1V108.7C106.62 108.96 106.42 109.18 106.16 109.2C106.14 109.2 106.12 109.2 106.1 109.2Z" fill="#404040" style="fill:#404040;fill:color(display-p3 0.2510 0.2510 0.2510);fill-opacity:1;"/>
<path d="M106.1 116.9C105.8 116.92 105.53 116.7 105.5 116.4V111.8C105.48 111.54 105.68 111.32 105.94 111.3C105.96 111.3 105.98 111.3 106 111.3H106.1C106.36 111.28 106.58 111.48 106.6 111.74C106.6 111.76 106.6 111.78 106.6 111.8V116.4C106.62 116.66 106.42 116.88 106.16 116.9C106.14 116.9 106.12 116.9 106.1 116.9Z" fill="#404040" style="fill:#404040;fill:color(display-p3 0.2510 0.2510 0.2510);fill-opacity:1;"/>
<path d="M106.1 62.7C105.8 62.72 105.53 62.5 105.5 62.2V57.6C105.48 57.34 105.68 57.12 105.94 57.1C105.96 57.1 105.98 57.1 106 57.1H106.1C106.36 57.08 106.58 57.28 106.6 57.54C106.6 57.56 106.6 57.58 106.6 57.6V62.2C106.58 62.47 106.37 62.68 106.1 62.7Z" fill="#404040" style="fill:#404040;fill:color(display-p3 0.2510 0.2510 0.2510);fill-opacity:1;"/>
<path d="M106.1 66.7C107.536 66.7 108.7 65.5359 108.7 64.1C108.7 62.664 107.536 61.5 106.1 61.5C104.664 61.5 103.5 62.664 103.5 64.1C103.5 65.5359 104.664 66.7 106.1 66.7Z" stroke="#404040" style="stroke:#404040;stroke:color(display-p3 0.2510 0.2510 0.2510);stroke-opacity:1;" stroke-miterlimit="10"/>
<path d="M106.1 74.4C107.536 74.4 108.7 73.2359 108.7 71.8C108.7 70.364 107.536 69.2 106.1 69.2C104.664 69.2 103.5 70.364 103.5 71.8C103.5 73.2359 104.664 74.4 106.1 74.4Z" stroke="#404040" style="stroke:#404040;stroke:color(display-p3 0.2510 0.2510 0.2510);stroke-opacity:1;" stroke-miterlimit="10"/>
<path d="M106.1 82C107.536 82 108.7 80.8359 108.7 79.4C108.7 77.964 107.536 76.8 106.1 76.8C104.664 76.8 103.5 77.964 103.5 79.4C103.5 80.8359 104.664 82 106.1 82Z" stroke="#404040" style="stroke:#404040;stroke:color(display-p3 0.2510 0.2510 0.2510);stroke-opacity:1;" stroke-miterlimit="10"/>
<path d="M106.1 89.7C107.536 89.7 108.7 88.5359 108.7 87.1C108.7 85.664 107.536 84.5 106.1 84.5C104.664 84.5 103.5 85.664 103.5 87.1C103.5 88.5359 104.664 89.7 106.1 89.7Z" stroke="#404040" style="stroke:#404040;stroke:color(display-p3 0.2510 0.2510 0.2510);stroke-opacity:1;" stroke-miterlimit="10"/>
<path d="M106.1 97.3C107.536 97.3 108.7 96.1359 108.7 94.7C108.7 93.264 107.536 92.1 106.1 92.1C104.664 92.1 103.5 93.264 103.5 94.7C103.5 96.1359 104.664 97.3 106.1 97.3Z" stroke="#404040" style="stroke:#404040;stroke:color(display-p3 0.2510 0.2510 0.2510);stroke-opacity:1;" stroke-miterlimit="10"/>
<path d="M106.1 105C107.536 105 108.7 103.836 108.7 102.4C108.7 100.964 107.536 99.8 106.1 99.8C104.664 99.8 103.5 100.964 103.5 102.4C103.5 103.836 104.664 105 106.1 105Z" stroke="#404040" style="stroke:#404040;stroke:color(display-p3 0.2510 0.2510 0.2510);stroke-opacity:1;" stroke-miterlimit="10"/>
<path d="M106.1 112.6C107.536 112.6 108.7 111.436 108.7 110C108.7 108.564 107.536 107.4 106.1 107.4C104.664 107.4 103.5 108.564 103.5 110C103.5 111.436 104.664 112.6 106.1 112.6Z" stroke="#404040" style="stroke:#404040;stroke:color(display-p3 0.2510 0.2510 0.2510);stroke-opacity:1;" stroke-miterlimit="10"/>
<path d="M106.1 120.3C107.536 120.3 108.7 119.136 108.7 117.7C108.7 116.264 107.536 115.1 106.1 115.1C104.664 115.1 103.5 116.264 103.5 117.7C103.5 119.136 104.664 120.3 106.1 120.3Z" stroke="#404040" style="stroke:#404040;stroke:color(display-p3 0.2510 0.2510 0.2510);stroke-opacity:1;" stroke-miterlimit="10"/>
<path d="M79.6001 74.3C90.9771 74.3 100.2 65.077 100.2 53.7C100.2 42.3229 90.9771 33.1 79.6001 33.1C68.223 33.1 59.0001 42.3229 59.0001 53.7C59.0001 65.077 68.223 74.3 79.6001 74.3Z" fill="#CCCCCC" fill-opacity="0.5" stroke="#404040" style="fill:#CCCCCC;fill:color(display-p3 0.8000 0.8000 0.8000);fill-opacity:0.5;stroke:#404040;stroke:color(display-p3 0.2510 0.2510 0.2510);stroke-opacity:1;" stroke-width="3.5" stroke-miterlimit="10"/>
<path d="M94.8001 52.5C94.4601 48.76 92.7101 45.29 89.9001 42.8C87.1101 40.42 83.5701 39.11 79.9001 39.1C76.2301 39.07 72.6601 40.3 69.8001 42.6C66.9401 45.01 65.1701 48.47 64.9001 52.2C64.9001 52.5 64.6001 52.7 64.4001 52.6C64.1501 52.57 63.9801 52.35 64.0001 52.1C63.9201 50.04 64.2901 47.99 65.1001 46.1C65.9201 44.19 67.1101 42.46 68.6001 41C71.7101 38.17 75.7901 36.63 80.0001 36.7C84.2101 36.69 88.2601 38.3 91.3001 41.2C92.7901 42.66 93.9801 44.39 94.8001 46.3C95.5801 48.2 95.9201 50.25 95.8001 52.3C95.8201 52.56 95.6201 52.78 95.3601 52.8C95.3401 52.8 95.3201 52.8 95.3001 52.8C95.1301 52.88 94.9201 52.81 94.8301 52.63C94.8101 52.59 94.8001 52.55 94.8001 52.5Z" fill="white" style="fill:white;fill-opacity:1;"/>
<defs>
<radialGradient id="paint0_radial_169_10545" cx="0" cy="0" r="1" gradientUnits="userSpaceOnUse" gradientTransform="translate(63.6 62.9) scale(56.9597 56.9597)">
<stop offset="0.5" stop-color="#FDE030" style="stop-color:#FDE030;stop-color:color(display-p3 0.9922 0.8784 0.1882);stop-opacity:1;"/>
<stop offset="0.92" stop-color="#F7C02B" style="stop-color:#F7C02B;stop-color:color(display-p3 0.9686 0.7529 0.1686);stop-opacity:1;"/>
<stop offset="1" stop-color="#F4A223" style="stop-color:#F4A223;stop-color:color(display-p3 0.9569 0.6353 0.1373);stop-opacity:1;"/>
</radialGradient>
<radialGradient id="paint1_radial_169_10545" cx="0" cy="0" r="1" gradientUnits="userSpaceOnUse" gradientTransform="translate(38.599 34.5377) rotate(-43.2082) scale(102.024 101.825)">
<stop offset="0.3533" stop-color="#F9DDBD" style="stop-color:#F9DDBD;stop-color:color(display-p3 0.9765 0.8667 0.7412);stop-opacity:1;"/>
<stop offset="0.8723" stop-color="#FFD29C" style="stop-color:#FFD29C;stop-color:color(display-p3 1.0000 0.8235 0.6118);stop-opacity:1;"/>
</radialGradient>
<radialGradient id="paint2_radial_169_10545" cx="0" cy="0" r="1" gradientUnits="userSpaceOnUse" gradientTransform="translate(38.599 34.5377) rotate(-43.2082) scale(102.024 101.825)">
<stop offset="0.3533" stop-color="#70534A" style="stop-color:#70534A;stop-color:color(display-p3 0.4392 0.3255 0.2902);stop-opacity:1;"/>
<stop offset="0.8723" stop-color="#5C4037" style="stop-color:#5C4037;stop-color:color(display-p3 0.3608 0.2510 0.2157);stop-opacity:1;"/>
</radialGradient>
<radialGradient id="paint3_radial_169_10545" cx="0" cy="0" r="1" gradientUnits="userSpaceOnUse" gradientTransform="translate(38.599 34.5377) rotate(-43.2082) scale(102.024 101.825)">
<stop offset="0.3533" stop-color="#A56C43" style="stop-color:#A56C43;stop-color:color(display-p3 0.6471 0.4235 0.2627);stop-opacity:1;"/>
<stop offset="0.8723" stop-color="#8D5738" style="stop-color:#8D5738;stop-color:color(display-p3 0.5529 0.3412 0.2196);stop-opacity:1;"/>
</radialGradient>
<radialGradient id="paint4_radial_169_10545" cx="0" cy="0" r="1" gradientUnits="userSpaceOnUse" gradientTransform="translate(28.5181 34.5461) rotate(-26.1674) scale(18.6711 14.7799)">
<stop offset="0.3533" stop-color="#A56C43" style="stop-color:#A56C43;stop-color:color(display-p3 0.6471 0.4235 0.2627);stop-opacity:1;"/>
<stop offset="0.8723" stop-color="#8D5738" style="stop-color:#8D5738;stop-color:color(display-p3 0.5529 0.3412 0.2196);stop-opacity:1;"/>
</radialGradient>
</defs>
</svg>
