<svg width="128" height="128" viewBox="0 0 128 128" fill="none" xmlns="http://www.w3.org/2000/svg">
<path d="M63.6001 118.8C35.7001 118.8 5.6001 101.3 5.6001 62.9C5.6001 24.5 35.7001 7 63.6001 7C79.1001 7 93.4001 12.1 104 21.4C115.5 31.6 121.6 46 121.6 62.9C121.6 79.8 115.5 94.1 104 104.3C93.4001 113.6 79.0001 118.8 63.6001 118.8Z" fill="url(#paint0_radial_169_9926)" style=""/>
<path d="M63.6001 118.8C35.7001 118.8 5.6001 101.3 5.6001 62.9C5.6001 24.5 35.7001 7 63.6001 7C79.1001 7 93.4001 12.1 104 21.4C115.5 31.6 121.6 46 121.6 62.9C121.6 79.8 115.5 94.1 104 104.3C93.4001 113.6 79.0001 118.8 63.6001 118.8Z" fill="url(#paint1_radial_169_9926)" style=""/>
<path d="M63.6001 118.8C35.7001 118.8 5.6001 101.3 5.6001 62.9C5.6001 24.5 35.7001 7 63.6001 7C79.1001 7 93.4001 12.1 104 21.4C115.5 31.6 121.6 46 121.6 62.9C121.6 79.8 115.5 94.1 104 104.3C93.4001 113.6 79.0001 118.8 63.6001 118.8Z" fill="url(#paint2_radial_169_9926)" style=""/>
<path d="M111.49 29.67C116.82 38.27 119.6 48.51 119.6 59.9C119.6 76.8 113.5 91.1 102 101.3C91.4002 110.6 77.0002 115.8 61.6002 115.8C43.5402 115.8 24.6002 108.45 13.4202 92.86C24.1802 110.52 44.4202 118.8 63.6002 118.8C79.0002 118.8 93.4002 113.6 104 104.3C115.5 94.1 121.6 79.8 121.6 62.9C121.6 50.16 118.13 38.84 111.49 29.67Z" fill="#EB8F00" style="fill:#EB8F00;fill:color(display-p3 0.9216 0.5608 0.0000);fill-opacity:1;"/>
<path d="M111.49 29.67C116.82 38.27 119.6 48.51 119.6 59.9C119.6 76.8 113.5 91.1 102 101.3C91.4002 110.6 77.0002 115.8 61.6002 115.8C43.5402 115.8 24.6002 108.45 13.4202 92.86C24.1802 110.52 44.4202 118.8 63.6002 118.8C79.0002 118.8 93.4002 113.6 104 104.3C115.5 94.1 121.6 79.8 121.6 62.9C121.6 50.16 118.13 38.84 111.49 29.67Z" fill="#4A2F27" style="fill:#4A2F27;fill:color(display-p3 0.2902 0.1843 0.1529);fill-opacity:1;"/>
<path d="M121.21 93.48L112.43 86.8C110.67 85.47 108.32 85.24 106.33 86.19C106.25 86.09 106.16 86 106.05 85.92L103.63 84C102.08 82.77 101.18 80.9 101.18 78.92V76.36C101.18 74.94 100.02 73.78 98.6001 73.78H95.2701C93.8501 73.78 92.6901 74.94 92.6901 76.36V79.76C92.6901 81.18 91.5301 82.34 90.1101 82.34H86.7801C85.3601 82.33 84.2101 81.18 84.2101 79.76V76.36C84.2101 74.94 83.0501 73.78 81.6301 73.78H78.3001C76.8801 73.78 75.7201 74.94 75.7201 76.36V79.76C75.7201 81.18 74.5601 82.34 73.1401 82.34H69.8201C68.4001 82.34 67.2401 81.18 67.2401 79.76V76.36C67.2401 74.94 66.0801 73.78 64.6601 73.78H61.3301C59.9101 73.78 58.7501 74.94 58.7501 76.36V79.76C58.7501 81.18 57.5901 82.34 56.1701 82.34H52.8501C51.4301 82.34 50.2701 81.18 50.2701 79.76V76.36C50.2701 74.94 49.1101 73.78 47.6901 73.78H44.3601C42.9401 73.78 41.7801 74.94 41.7801 76.36V79.76C41.7801 81.18 40.6201 82.34 39.2001 82.34H35.8801C34.4601 82.34 33.3001 81.18 33.3001 79.76V76.36C33.3001 74.94 32.1401 73.78 30.7201 73.78H27.3901C25.9701 73.78 24.8101 74.94 24.8101 76.36V85.63C24.8201 87.05 25.9701 88.2 27.3901 88.21H30.7201C32.1401 88.21 33.2901 89.36 33.3001 90.78V92.92C33.2901 94.34 34.4401 95.49 35.8601 95.5C35.8701 95.5 35.8701 95.5 35.8801 95.5H39.2001C40.6201 95.51 41.7701 94.36 41.7801 92.94C41.7801 92.93 41.7801 92.93 41.7801 92.92V90.78C41.7901 89.36 42.9401 88.21 44.3601 88.21H47.6901C49.1101 88.21 50.2601 89.36 50.2701 90.78V92.92C50.2601 94.34 51.4101 95.49 52.8301 95.5C52.8401 95.5 52.8401 95.5 52.8501 95.5H56.1701C57.5901 95.51 58.7401 94.36 58.7501 92.94C58.7501 92.93 58.7501 92.93 58.7501 92.92V90.78C58.7601 89.36 59.9101 88.21 61.3301 88.21H64.6601C66.0801 88.21 67.2301 89.36 67.2401 90.78V92.92C67.2301 94.34 68.3801 95.49 69.8001 95.5C69.8101 95.5 69.8101 95.5 69.8201 95.5H73.1401C74.5601 95.51 75.7101 94.36 75.7201 92.94C75.7201 92.93 75.7201 92.93 75.7201 92.92V90.78C75.7301 89.36 76.8801 88.21 78.3001 88.21H81.6301C83.0501 88.21 84.2001 89.36 84.2101 90.78V92.92C84.2001 94.34 85.3501 95.49 86.7701 95.5H86.7801H90.1101C91.5301 95.51 92.6801 94.36 92.6901 92.94C92.6901 92.93 92.6901 92.93 92.6901 92.92V90.78C92.7001 89.36 93.8501 88.21 95.2701 88.21H96.4201C97.2001 88.21 97.9501 88.47 98.5601 88.95L101.71 91.46L101.85 91.54C101.05 93.92 101.86 96.54 103.85 98.06L112.63 104.74C115.23 106.71 118.93 106.2 120.9 103.61L122.32 101.74C124.28 99.15 123.78 95.46 121.21 93.48ZM109.07 95.07C108.29 96.11 106.82 96.32 105.78 95.55C105.77 95.54 105.77 95.54 105.76 95.53C104.72 94.75 104.51 93.27 105.29 92.23C105.3 92.22 105.3 92.21 105.31 92.2L107.21 89.7C107.98 88.66 109.45 88.45 110.48 89.22C110.49 89.23 110.5 89.24 110.52 89.25C111.03 89.62 111.36 90.19 111.44 90.81C111.52 91.43 111.36 92.07 110.98 92.57L109.07 95.07ZM118.69 99.19L117.52 100.73C116.63 101.9 114.95 102.13 113.78 101.24L112.1 100C110.93 99.11 110.7 97.43 111.59 96.26L112.77 94.72C113.66 93.55 115.34 93.32 116.51 94.21L118.18 95.49C119.33 96.38 119.56 98.02 118.69 99.19Z" fill="#BDBDBD" style="fill:#BDBDBD;fill:color(display-p3 0.7412 0.7412 0.7412);fill-opacity:1;"/>
<path d="M83.76 38.05C87.45 38.05 90.76 42.38 90.76 49.55C90.76 56.72 87.41 61.05 83.76 61.05C80.08 61.05 76.76 56.73 76.76 49.55C76.76 42.37 80.08 38.05 83.76 38.05Z" fill="#422B0D" style="fill:#422B0D;fill:color(display-p3 0.2588 0.1686 0.0510);fill-opacity:1;"/>
<path d="M83.76 38.05C87.45 38.05 90.76 42.38 90.76 49.55C90.76 56.72 87.41 61.05 83.76 61.05C80.08 61.05 76.76 56.73 76.76 49.55C76.76 42.37 80.08 38.05 83.76 38.05Z" fill="#1A1717" style="fill:#1A1717;fill:color(display-p3 0.1020 0.0902 0.0902);fill-opacity:1;"/>
<path d="M44.22 38.05C40.53 38.05 37.22 42.38 37.22 49.55C37.22 56.72 40.57 61.05 44.22 61.05C47.91 61.05 51.22 56.73 51.22 49.55C51.22 42.37 47.91 38.05 44.22 38.05Z" fill="#422B0D" style="fill:#422B0D;fill:color(display-p3 0.2588 0.1686 0.0510);fill-opacity:1;"/>
<path d="M44.22 38.05C40.53 38.05 37.22 42.38 37.22 49.55C37.22 56.72 40.57 61.05 44.22 61.05C47.91 61.05 51.22 56.73 51.22 49.55C51.22 42.37 47.91 38.05 44.22 38.05Z" fill="#1A1717" style="fill:#1A1717;fill:color(display-p3 0.1020 0.0902 0.0902);fill-opacity:1;"/>
<path d="M45.0501 42.77C43.6101 42.1 41.9101 42.73 41.2401 44.17C40.7301 45.27 40.9701 46.57 41.8301 47.42C43.2701 48.09 44.9701 47.46 45.6401 46.02C46.1501 44.92 45.9201 43.62 45.0501 42.77Z" fill="#555050" style="fill:#555050;fill:color(display-p3 0.3333 0.3125 0.3125);fill-opacity:1;"/>
<path d="M83.21 42.77C81.77 42.11 80.07 42.75 79.41 44.19C78.91 45.28 79.15 46.57 80 47.42C81.44 48.09 83.14 47.46 83.81 46.02C84.32 44.92 84.08 43.62 83.22 42.77H83.21Z" fill="#555050" style="fill:#555050;fill:color(display-p3 0.3333 0.3125 0.3125);fill-opacity:1;"/>
<defs>
<radialGradient id="paint0_radial_169_9926" cx="0" cy="0" r="1" gradientUnits="userSpaceOnUse" gradientTransform="translate(63.6001 62.9) scale(56.9597 56.9597)">
<stop offset="0.5" stop-color="#FDE030" style="stop-color:#FDE030;stop-color:color(display-p3 0.9922 0.8784 0.1882);stop-opacity:1;"/>
<stop offset="0.92" stop-color="#F7C02B" style="stop-color:#F7C02B;stop-color:color(display-p3 0.9686 0.7529 0.1686);stop-opacity:1;"/>
<stop offset="1" stop-color="#F4A223" style="stop-color:#F4A223;stop-color:color(display-p3 0.9569 0.6353 0.1373);stop-opacity:1;"/>
</radialGradient>
<radialGradient id="paint1_radial_169_9926" cx="0" cy="0" r="1" gradientUnits="userSpaceOnUse" gradientTransform="translate(38.5991 34.5377) rotate(-43.2082) scale(102.024 101.825)">
<stop offset="0.3533" stop-color="#F9DDBD" style="stop-color:#F9DDBD;stop-color:color(display-p3 0.9765 0.8667 0.7412);stop-opacity:1;"/>
<stop offset="0.8723" stop-color="#FFD29C" style="stop-color:#FFD29C;stop-color:color(display-p3 1.0000 0.8235 0.6118);stop-opacity:1;"/>
</radialGradient>
<radialGradient id="paint2_radial_169_9926" cx="0" cy="0" r="1" gradientUnits="userSpaceOnUse" gradientTransform="translate(38.5991 34.5377) rotate(-43.2082) scale(102.024 101.825)">
<stop offset="0.3533" stop-color="#70534A" style="stop-color:#70534A;stop-color:color(display-p3 0.4392 0.3255 0.2902);stop-opacity:1;"/>
<stop offset="0.8723" stop-color="#5C4037" style="stop-color:#5C4037;stop-color:color(display-p3 0.3608 0.2510 0.2157);stop-opacity:1;"/>
</radialGradient>
</defs>
</svg>
