<svg width="128" height="128" viewBox="0 0 128 128" fill="none" xmlns="http://www.w3.org/2000/svg">
<path d="M38.2901 29.14C32.2801 36.87 32.3801 50.61 40.0701 57.41C48.8001 65.13 61.0801 65.06 68.8101 57.95C78.0701 49.43 77.5401 35.24 69.3501 27.21C61.1101 19.13 46.4001 18.71 38.2901 29.14Z" fill="#FCC11A" style="fill:#FCC11A;fill:color(display-p3 0.9882 0.7569 0.1020);fill-opacity:1;"/>
<path d="M49.3653 15.5509C48.992 16.7284 49.3362 17.5177 50.5253 17.5768C51.7144 17.6359 59.0131 17.4696 59.617 17.3956C60.4952 17.2896 60.694 16.5776 60.4486 15.84C60.197 15.1035 56.4954 4.81954 56.1546 3.87677C55.8137 2.93399 54.6049 2.15259 53.8677 3.63332C53.1305 5.11406 49.6463 14.6645 49.3653 15.5509Z" fill="#FFA722" style="fill:#FFA722;fill:color(display-p3 1.0000 0.6549 0.1333);fill-opacity:1;"/>
<path d="M69.0769 19.5022C68.0269 20.054 68.1847 20.7315 68.9431 21.4884C69.7016 22.2453 74.9795 27.753 75.4362 28.1202C75.898 28.4801 76.5649 28.4708 76.9852 27.7176C77.4067 26.9706 82.4027 16.2348 82.7853 15.5523C83.4169 14.4287 82.7395 13.4912 81.5557 14.0425C80.6547 14.4711 69.7385 19.1563 69.0769 19.5022Z" fill="#FFA722" style="fill:#FFA722;fill:color(display-p3 1.0000 0.6549 0.1333);fill-opacity:1;"/>
<path d="M80.9625 36.161C80.0777 35.8543 79.0615 36.1769 78.9818 37.2552C78.9021 38.3335 79.1024 46.0207 79.1129 46.6938C79.1234 47.3669 79.736 47.9216 80.5126 47.6116C81.2892 47.3017 92.1469 43.5698 92.8574 43.2467C94.0955 42.6789 94.2849 41.3001 92.7561 40.5782C91.7641 40.1067 81.7998 36.4511 80.9625 36.161Z" fill="#FFA722" style="fill:#FFA722;fill:color(display-p3 1.0000 0.6549 0.1333);fill-opacity:1;"/>
<path d="M75.32 55.5121C76.0959 54.8903 76.9244 55.0992 77.3218 56.0378C77.7181 56.9703 81.952 66.4866 82.6758 68.2561C83.0383 69.1439 82.1204 70.0979 81.1579 69.7164C80.1893 69.3361 69.5652 64.5295 68.8624 64.1062C67.8537 63.5105 68.3104 62.6104 68.6608 62.1314C69.3703 61.1525 74.5888 56.1002 75.32 55.5121Z" fill="#FFA722" style="fill:#FFA722;fill:color(display-p3 1.0000 0.6549 0.1333);fill-opacity:1;"/>
<path d="M50.1462 65.847C49.0373 65.945 48.898 66.977 49.2244 67.8078C49.5458 68.646 53.2114 79.3187 53.4745 80.1167C53.8554 81.2749 55.1965 81.535 55.7808 80.191C56.3651 78.8469 60.2745 68.9118 60.5682 67.9911C61.0992 66.3259 60.4414 66.1107 59.5591 65.8863C58.683 65.6607 51.3055 65.7461 50.1462 65.847Z" fill="#FFA722" style="fill:#FFA722;fill:color(display-p3 1.0000 0.6549 0.1333);fill-opacity:1;"/>
<path d="M32.2229 56.1385C32.7488 54.7543 33.782 54.8997 34.7107 55.9561C35.3419 56.6793 40.4207 61.3898 40.9122 61.9098C41.4048 62.4359 41.7754 63.5387 40.6378 64.0304C39.4891 64.5306 30.2795 68.873 28.8156 69.4254C27.3518 69.9777 26.263 68.9511 26.9941 67.4716C27.4184 66.603 31.9236 56.9265 32.2229 56.1385Z" fill="#FFA722" style="fill:#FFA722;fill:color(display-p3 1.0000 0.6549 0.1333);fill-opacity:1;"/>
<path d="M28.4161 47.1034C29.9155 47.4614 30.5267 47.1185 30.6318 46.0737C30.7719 44.704 30.7978 38.5413 30.6014 37.1768C30.4747 36.2897 29.9536 35.5078 28.6395 35.9751C27.3254 36.4423 17.8406 39.6132 16.6774 40.2752C15.3247 41.0489 15.7247 42.6175 16.7787 42.9437C18.0285 43.329 27.3573 46.8545 28.4161 47.1034Z" fill="#FFA722" style="fill:#FFA722;fill:color(display-p3 1.0000 0.6549 0.1333);fill-opacity:1;"/>
<path d="M41.0191 21.2487C41.6852 20.4816 41.2792 19.6337 40.4871 19.2779C39.695 18.9221 29.8352 14.2536 28.5732 13.5968C27.4599 13.0205 26.3162 13.5133 26.964 15.1823C27.4291 16.3822 32.2224 26.7497 32.5528 27.4652C32.9296 28.293 33.6622 28.6025 34.3186 27.9201C34.9638 27.2461 40.3279 22.0522 41.0191 21.2487Z" fill="#FFA722" style="fill:#FFA722;fill:color(display-p3 1.0000 0.6549 0.1333);fill-opacity:1;"/>
<path d="M47.95 26.49C45.57 25.43 42.97 28.3 41.83 30.27C40.7 32.23 39.64 36.08 42.06 37.07C44.48 38.05 46.21 36.39 47.95 33.52C49.69 30.64 50.67 27.7 47.95 26.49Z" fill="#FEE269" style="fill:#FEE269;fill:color(display-p3 0.9961 0.8863 0.4118);fill-opacity:1;"/>
<path d="M93.3542 65.8048C93.3542 65.8048 96.6419 44.008 77.0089 38.8443C55.695 33.2349 50.6985 53.0258 50.6985 53.0258C50.6985 53.0258 44.4947 51.3355 38.7646 55.9419C34.2789 59.5453 33.5081 65.8977 33.5081 65.8977C33.5081 65.8977 24.7689 65.6005 21.0169 71.6279C17.4506 77.358 21.0169 81.1193 21.0169 81.1193L72.5975 79.0483L104.35 79.234C104.35 79.234 106.644 73.2717 102.233 69.1389C97.812 65.0154 93.3542 65.8048 93.3542 65.8048Z" fill="#E2EBEE" style="fill:#E2EBEE;fill:color(display-p3 0.8863 0.9216 0.9333);fill-opacity:1;"/>
<path d="M58.1281 67.9689C58.1281 67.9689 62.0751 71.916 72.4117 71.2566C82.7482 70.5972 88.1905 66.9381 89.4164 66.3716C90.6423 65.805 92.0446 64.4956 92.5183 65.4336C92.9919 66.3716 91.9518 68.9998 90.5494 70.8851C89.1378 72.7611 88.3484 73.9034 88.1069 74.7392C87.9212 75.3986 91.0231 76.3366 96.8461 76.6152C101.824 76.8567 104.963 75.8537 104.963 75.8537C104.963 75.8537 105.102 78.9835 103.886 81.426C102.753 83.6827 101.573 84.4164 99.6972 84.7972C98.7314 84.9922 80.5008 84.9829 64.8148 85.3544C49.1289 85.7259 28.6415 86.3853 25.1681 85.2616C21.6947 84.1378 20.8403 81.9368 20.3946 81.0823C19.6144 79.615 19.4473 77.3211 19.4473 77.3211C19.4473 77.3211 23.2921 79.2528 28.7437 78.5005C34.1952 77.7483 37.1021 74.9343 37.8543 74.6464C38.6066 74.3678 42.1728 76.1509 47.8101 74.7392C55.6856 72.7611 58.1281 67.9689 58.1281 67.9689Z" fill="#B9CED3" style="fill:#B9CED3;fill:color(display-p3 0.7255 0.8078 0.8275);fill-opacity:1;"/>
<path d="M44.2379 90.4668C42.9776 90.0085 37.5064 93.9328 35.5395 99.1653C32.6368 106.89 42.9776 109.468 45.1546 102.03C45.9853 99.2035 45.9757 91.097 44.2379 90.4668Z" fill="#4FC2F7" style="fill:#4FC2F7;fill:color(display-p3 0.3098 0.7608 0.9686);fill-opacity:1;"/>
<path d="M85.1141 96.1004C83.9969 95.6039 79.557 98.984 77.5423 101.82C75.6136 104.532 73.8949 109.115 78.6308 111.464C83.7964 114.013 86.1453 108.465 86.3649 104.436C86.5654 100.789 86.0976 96.5397 85.1141 96.1004Z" fill="#4FC2F7" style="fill:#4FC2F7;fill:color(display-p3 0.3098 0.7608 0.9686);fill-opacity:1;"/>
<path d="M62.6281 105.257C61.2245 104.923 55.8393 109.296 53.9105 113.373C50.0435 121.547 61.9216 124.43 63.392 116.591C64.3277 111.616 63.7739 105.525 62.6281 105.257Z" fill="#4FC2F7" style="fill:#4FC2F7;fill:color(display-p3 0.3098 0.7608 0.9686);fill-opacity:1;"/>
<path d="M57.5865 111.607C56.4694 111.158 54.2924 113.898 54.5311 116.333C54.7793 118.768 56.7845 118.988 57.7393 117.641C59.0188 115.856 58.6941 112.046 57.5865 111.607Z" fill="#AFE6F8" style="fill:#AFE6F8;fill:color(display-p3 0.6863 0.9020 0.9725);fill-opacity:1;"/>
<path d="M38.91 96.8167C37.8502 96.3202 36.036 99.2229 36.0551 100.722C36.1028 103.777 38.3562 103.978 39.4065 102.469C40.4568 100.97 40.4091 97.5233 38.91 96.8167Z" fill="#AFE6F8" style="fill:#AFE6F8;fill:color(display-p3 0.6863 0.9020 0.9725);fill-opacity:1;"/>
<path d="M80.1108 102.746C78.8504 102.145 76.683 104.923 76.8453 106.938C77.1317 110.413 79.8912 110.203 80.8174 108.303C81.7436 106.403 81.2471 103.29 80.1108 102.746Z" fill="#AFE6F8" style="fill:#AFE6F8;fill:color(display-p3 0.6863 0.9020 0.9725);fill-opacity:1;"/>
</svg>
