<svg width="128" height="128" viewBox="0 0 128 128" fill="none" xmlns="http://www.w3.org/2000/svg">
<path fill-rule="evenodd" clip-rule="evenodd" d="M26.6 16H31H35.4V20.3636V24.7273H31H26.6V20.3636V16ZM92.6 16H97H101.4V20.3636V24.7273H97H92.6V20.3636V16ZM44.2 24.7273H48.6H53.0001V29.0909V33.4545V37.8182H57.4001H61.8001H66.2001H70.6001H75.0001V33.4545V29.0909V24.7273H79.3999H79.4001H83.8V29.0909V33.4545V37.8182H88.2V42.1818H92.6V46.5455H97H101.4V50.9091V55.2727V59.6364V64H105.8H110.2V59.6364V55.2727V50.9091V46.5455V42.1818H114.6H119V46.5455V50.9091V55.2727V59.6364V64V68.3636H114.6H110.2V72.7273H105.8H101.4V77.0909V81.4545V85.8182H97H92.6H88.2V90.1818V94.5455V98.9091H83.8H79.4001H79.3999H75.0001V94.5455V90.1818V85.8182H70.6001H66.2001H61.8001H57.4001H53.0001V90.1818V94.5455V98.9091H48.6H44.2H39.8V94.5455V90.1818V85.8182H35.4H31H26.6V81.4545V77.0909V72.7273H22.2H17.8H13.4V68.3636H9V64V59.6364V55.2727V50.9091V46.5455V42.1818H13.4H17.8V46.5455V50.9091V55.2727V59.6364V64H22.2H26.6V59.6364V55.2727V50.9091V46.5455H31H35.4V42.1818H39.8V37.8182H44.2V33.4545V29.0909V24.7273ZM88.2 72.7273H83.8H79.4001H79.3999H75.0001V68.3636V64V59.6364V55.2727H79.3999H79.4001H83.8H88.2V59.6364V64V68.3636V72.7273ZM53.0001 72.7273H48.6H44.2H39.8V68.3636V64V59.6364V55.2727H44.2H48.6H53.0001V59.6364V64V68.3636V72.7273ZM22.2 29.0909H26.6H31H35.4V33.4545V37.8182H31V42.1818H26.6H22.2V37.8182V33.4545V29.0909ZM97 29.0909H92.6V33.4545V37.8182H97V42.1818H101.4H105.8V37.8182V33.4545V29.0909H101.4H97ZM26.6 103.273H31H35.4V107.636V112H31H26.6V107.636V103.273ZM92.6 103.273H97H101.4V107.636V112H97H92.6V107.636V103.273Z" fill="#7E5CAD" style="fill:#7E5CAD;fill:color(display-p3 0.4941 0.3608 0.6784);fill-opacity:1;"/>
<path fill-rule="evenodd" clip-rule="evenodd" d="M26.6 16H31H35.4V20.3636V24.7273H31H26.6V20.3636V16ZM92.6 16H97H101.4V20.3636V24.7273H97H92.6V20.3636V16ZM44.2 24.7273H48.6H53.0001V29.0909V33.4545V37.8182H57.4001H61.8001H66.2001H70.6001H75.0001V33.4545V29.0909V24.7273H79.3999H79.4001H83.8V29.0909V33.4545V37.8182H88.2V42.1818H92.6V46.5455H97H101.4V50.9091V55.2727V59.6364V64H105.8H110.2V59.6364V55.2727V50.9091V46.5455V42.1818H114.6H119V46.5455V50.9091V55.2727V59.6364V64V68.3636H114.6H110.2V72.7273H105.8H101.4V77.0909V81.4545V85.8182H97H92.6H88.2V90.1818V94.5455V98.9091H83.8H79.4001H79.3999H75.0001V94.5455V90.1818V85.8182H70.6001H66.2001H61.8001H57.4001H53.0001V90.1818V94.5455V98.9091H48.6H44.2H39.8V94.5455V90.1818V85.8182H35.4H31H26.6V81.4545V77.0909V72.7273H22.2H17.8H13.4V68.3636H9V64V59.6364V55.2727V50.9091V46.5455V42.1818H13.4H17.8V46.5455V50.9091V55.2727V59.6364V64H22.2H26.6V59.6364V55.2727V50.9091V46.5455H31H35.4V42.1818H39.8V37.8182H44.2V33.4545V29.0909V24.7273ZM88.2 72.7273H83.8H79.4001H79.3999H75.0001V68.3636V64V59.6364V55.2727H79.3999H79.4001H83.8H88.2V59.6364V64V68.3636V72.7273ZM53.0001 72.7273H48.6H44.2H39.8V68.3636V64V59.6364V55.2727H44.2H48.6H53.0001V59.6364V64V68.3636V72.7273ZM22.2 29.0909H26.6H31H35.4V33.4545V37.8182H31V42.1818H26.6H22.2V37.8182V33.4545V29.0909ZM97 29.0909H92.6V33.4545V37.8182H97V42.1818H101.4H105.8V37.8182V33.4545V29.0909H101.4H97ZM26.6 103.273H31H35.4V107.636V112H31H26.6V107.636V103.273ZM92.6 103.273H97H101.4V107.636V112H97H92.6V107.636V103.273Z" fill="url(#paint0_radial_2471_1675)" style=""/>
<path fill-rule="evenodd" clip-rule="evenodd" d="M22.4815 12H39.963V20.6667H57.4445V33.6667H70.5556V20.6667H88.037V12H105.518V25H109.889V38H123V72.6667H114.259V77H105.518V90H92.4074V98.6667H105.518V116H88.037V103H70.5556V90H57.4445V103H39.963V116H22.4815V98.6667H35.5926V90H22.4815V77H9.37038V72.6667H5V38H18.1111V25H22.4815V12ZM22.4815 42.3333H31.2223V38H35.5926V29.3333H22.4815V42.3333ZM118.63 68.3333H109.889V72.6667H101.148V85.6667H88.037V98.6667H74.926V85.6667H53.0741V98.6667H39.963V85.6667H26.8519V72.6667H13.7408V68.3333H9.37038V42.3333H18.1111V64H26.8519V46.6667H35.5926V42.3333H39.963V38H44.3334V25H53.0741V38H74.926V25H83.6666V38H88.037V42.3333H92.4074V46.6667H101.148V64H109.889V42.3333H118.63V68.3333ZM74.926 72.6667H88.037V55.3333H74.926V72.6667ZM39.963 72.6667H53.0741V55.3333H39.963V72.6667ZM26.8519 16.3333V25H35.5926V16.3333H26.8519ZM92.4074 16.3333V25H101.148V16.3333H92.4074ZM92.4074 29.3333H105.518V42.3333H96.7777V38H92.4074V29.3333ZM26.8519 103V111.667H35.5926V103H26.8519ZM92.4074 103V111.667H101.148V103H92.4074Z" fill="black" style="fill:black;fill-opacity:1;"/>
<path fill-rule="evenodd" clip-rule="evenodd" d="M22.4815 12H39.963V20.6667H57.4445V33.6667H70.5556V20.6667H88.037V12H105.518V25H109.889V38H123V72.6667H114.259V77H105.518V90H92.4074V98.6667H105.518V116H88.037V103H70.5556V90H57.4445V103H39.963V116H22.4815V98.6667H35.5926V90H22.4815V77H9.37038V72.6667H5V38H18.1111V25H22.4815V12ZM22.4815 42.3333H31.2223V38H35.5926V29.3333H22.4815V42.3333ZM118.63 68.3333H109.889V72.6667H101.148V85.6667H88.037V98.6667H74.926V85.6667H53.0741V98.6667H39.963V85.6667H26.8519V72.6667H13.7408V68.3333H9.37038V42.3333H18.1111V64H26.8519V46.6667H35.5926V42.3333H39.963V38H44.3334V25H53.0741V38H74.926V25H83.6666V38H88.037V42.3333H92.4074V46.6667H101.148V64H109.889V42.3333H118.63V68.3333ZM74.926 72.6667H88.037V55.3333H74.926V72.6667ZM39.963 72.6667H53.0741V55.3333H39.963V72.6667ZM26.8519 16.3333V25H35.5926V16.3333H26.8519ZM92.4074 16.3333V25H101.148V16.3333H92.4074ZM92.4074 29.3333H105.518V42.3333H96.7777V38H92.4074V29.3333ZM26.8519 103V111.667H35.5926V103H26.8519ZM92.4074 103V111.667H101.148V103H92.4074Z" fill="#251A26" style="fill:#251A26;fill:color(display-p3 0.1433 0.1006 0.1500);fill-opacity:1;"/>
<defs>
<radialGradient id="paint0_radial_2471_1675" cx="0" cy="0" r="1" gradientUnits="userSpaceOnUse" gradientTransform="translate(64.45 -1.32015) scale(97.463 99.2333)">
<stop offset="0.5082" stop-color="#B574C3" style="stop-color:#B574C3;stop-color:color(display-p3 0.7098 0.4549 0.7647);stop-opacity:1;"/>
<stop offset="0.684" stop-color="#B070BF" style="stop-color:#B070BF;stop-color:color(display-p3 0.6902 0.4392 0.7490);stop-opacity:1;"/>
<stop offset="0.878" stop-color="#A363B2" style="stop-color:#A363B2;stop-color:color(display-p3 0.6392 0.3882 0.6980);stop-opacity:1;"/>
<stop offset="0.9813" stop-color="#995AA8" style="stop-color:#995AA8;stop-color:color(display-p3 0.6000 0.3529 0.6588);stop-opacity:1;"/>
</radialGradient>
</defs>
</svg>
