<svg width="128" height="128" viewBox="0 0 128 128" fill="none" xmlns="http://www.w3.org/2000/svg">
<path d="M63.6001 118.8C35.7001 118.8 5.6001 101.3 5.6001 62.9C5.6001 24.5 35.7001 7 63.6001 7C79.1001 7 93.4001 12.1 104 21.4C115.5 31.6 121.6 46 121.6 62.9C121.6 79.8 115.5 94.1 104 104.3C93.4001 113.6 79.0001 118.8 63.6001 118.8Z" fill="url(#paint0_radial_169_9299)" style=""/>
<path d="M63.6001 118.8C35.7001 118.8 5.6001 101.3 5.6001 62.9C5.6001 24.5 35.7001 7 63.6001 7C79.1001 7 93.4001 12.1 104 21.4C115.5 31.6 121.6 46 121.6 62.9C121.6 79.8 115.5 94.1 104 104.3C93.4001 113.6 79.0001 118.8 63.6001 118.8Z" fill="url(#paint1_radial_169_9299)" style=""/>
<path d="M63.6001 118.8C35.7001 118.8 5.6001 101.3 5.6001 62.9C5.6001 24.5 35.7001 7 63.6001 7C79.1001 7 93.4001 12.1 104 21.4C115.5 31.6 121.6 46 121.6 62.9C121.6 79.8 115.5 94.1 104 104.3C93.4001 113.6 79.0001 118.8 63.6001 118.8Z" fill="url(#paint2_radial_169_9299)" style=""/>
<path d="M111.49 29.67C116.82 38.27 119.6 48.51 119.6 59.9C119.6 76.8 113.5 91.1 102 101.3C91.4002 110.6 77.0002 115.8 61.6002 115.8C43.5402 115.8 24.6002 108.45 13.4202 92.86C24.1802 110.52 44.4202 118.8 63.6002 118.8C79.0002 118.8 93.4002 113.6 104 104.3C115.5 94.1 121.6 79.8 121.6 62.9C121.6 50.16 118.13 38.84 111.49 29.67Z" fill="#EB8F00" style="fill:#EB8F00;fill:color(display-p3 0.9216 0.5608 0.0000);fill-opacity:1;"/>
<path d="M111.49 29.67C116.82 38.27 119.6 48.51 119.6 59.9C119.6 76.8 113.5 91.1 102 101.3C91.4002 110.6 77.0002 115.8 61.6002 115.8C43.5402 115.8 24.6002 108.45 13.4202 92.86C24.1802 110.52 44.4202 118.8 63.6002 118.8C79.0002 118.8 93.4002 113.6 104 104.3C115.5 94.1 121.6 79.8 121.6 62.9C121.6 50.16 118.13 38.84 111.49 29.67Z" fill="#4A2F27" style="fill:#4A2F27;fill:color(display-p3 0.2902 0.1843 0.1529);fill-opacity:1;"/>
<path d="M48.9999 56.89L48.8499 56.69L48.4199 56.14L47.8899 55.57C47.6699 55.32 47.4099 55.08 47.1599 54.82C46.9099 54.56 46.5999 54.31 46.3199 54.1C46.0599 53.9 45.7799 53.71 45.4799 53.56C45.2799 53.45 45.0599 53.36 44.8299 53.31C44.7599 53.3 44.6899 53.3 44.6199 53.31C44.6199 53.31 44.5599 53.31 44.5299 53.31H44.4499C44.5699 53.31 44.1799 53.31 44.7199 53.31H44.1699C44.0199 53.31 44.1199 53.31 44.1699 53.31H44.2499C44.2499 53.31 44.3299 53.31 44.2499 53.31H44.1399C43.9099 53.36 43.6899 53.44 43.4799 53.56C43.1899 53.72 42.8999 53.9 42.6399 54.1C42.3499 54.32 42.0699 54.56 41.8099 54.82C41.2799 55.33 40.8099 55.82 40.5099 56.21L39.9899 56.81L39.7599 57.08C38.3199 58.69 35.8899 58.95 34.1399 57.69C33.0199 56.91 32.4499 55.56 32.6699 54.21C32.6699 54.21 32.7399 53.81 32.9299 53.1C33.2299 52.09 33.6499 51.11 34.1799 50.19C35.0299 48.69 36.1799 47.38 37.5599 46.34C38.4699 45.64 39.4799 45.08 40.5599 44.69C40.8599 44.57 41.1699 44.48 41.4799 44.4C41.8099 44.3 42.1399 44.23 42.4799 44.17L43.0899 44.08L43.5999 44.02H44.1499H44.9399H45.4499C45.7899 44.02 46.1199 44.11 46.4499 44.16C47.0899 44.27 47.7299 44.44 48.3399 44.67C49.4199 45.06 50.4299 45.62 51.3399 46.32C52.7199 47.36 53.8699 48.67 54.7199 50.17C55.0299 50.69 55.2999 51.24 55.5199 51.8C55.7099 52.25 55.8699 52.7 55.9999 53.17C56.0699 53.41 56.1299 53.65 56.1599 53.89V54.14C56.4599 56.18 55.0399 58.08 52.9999 58.38C52.9499 58.39 52.8999 58.39 52.8499 58.4C51.3899 58.61 49.9299 58.03 48.9999 56.89Z" fill="#422B0D" style="fill:#422B0D;fill:color(display-p3 0.2588 0.1686 0.0510);fill-opacity:1;"/>
<path d="M48.9999 56.89L48.8499 56.69L48.4199 56.14L47.8899 55.57C47.6699 55.32 47.4099 55.08 47.1599 54.82C46.9099 54.56 46.5999 54.31 46.3199 54.1C46.0599 53.9 45.7799 53.71 45.4799 53.56C45.2799 53.45 45.0599 53.36 44.8299 53.31C44.7599 53.3 44.6899 53.3 44.6199 53.31C44.6199 53.31 44.5599 53.31 44.5299 53.31H44.4499C44.5699 53.31 44.1799 53.31 44.7199 53.31H44.1699C44.0199 53.31 44.1199 53.31 44.1699 53.31H44.2499C44.2499 53.31 44.3299 53.31 44.2499 53.31H44.1399C43.9099 53.36 43.6899 53.44 43.4799 53.56C43.1899 53.72 42.8999 53.9 42.6399 54.1C42.3499 54.32 42.0699 54.56 41.8099 54.82C41.2799 55.33 40.8099 55.82 40.5099 56.21L39.9899 56.81L39.7599 57.08C38.3199 58.69 35.8899 58.95 34.1399 57.69C33.0199 56.91 32.4499 55.56 32.6699 54.21C32.6699 54.21 32.7399 53.81 32.9299 53.1C33.2299 52.09 33.6499 51.11 34.1799 50.19C35.0299 48.69 36.1799 47.38 37.5599 46.34C38.4699 45.64 39.4799 45.08 40.5599 44.69C40.8599 44.57 41.1699 44.48 41.4799 44.4C41.8099 44.3 42.1399 44.23 42.4799 44.17L43.0899 44.08L43.5999 44.02H44.1499H44.9399H45.4499C45.7899 44.02 46.1199 44.11 46.4499 44.16C47.0899 44.27 47.7299 44.44 48.3399 44.67C49.4199 45.06 50.4299 45.62 51.3399 46.32C52.7199 47.36 53.8699 48.67 54.7199 50.17C55.0299 50.69 55.2999 51.24 55.5199 51.8C55.7099 52.25 55.8699 52.7 55.9999 53.17C56.0699 53.41 56.1299 53.65 56.1599 53.89V54.14C56.4599 56.18 55.0399 58.08 52.9999 58.38C52.9499 58.39 52.8999 58.39 52.8499 58.4C51.3899 58.61 49.9299 58.03 48.9999 56.89Z" fill="#1A1717" style="fill:#1A1717;fill:color(display-p3 0.1020 0.0902 0.0902);fill-opacity:1;"/>
<path d="M88.4599 56.89L88.2999 56.69L87.8699 56.14L87.3399 55.57C87.1199 55.32 86.8599 55.08 86.6099 54.82C86.3599 54.56 86.0499 54.31 85.7699 54.1C85.5099 53.9 85.2299 53.71 84.9299 53.56C84.7299 53.45 84.5099 53.36 84.2799 53.31C84.2099 53.3 84.1399 53.3 84.0699 53.31C84.0699 53.31 84.0099 53.31 83.9799 53.31H83.8999C84.0199 53.31 83.6299 53.31 84.1699 53.31H83.6199C83.4699 53.31 83.5699 53.31 83.6199 53.31H83.6999C83.6999 53.31 83.7799 53.31 83.6999 53.31H83.5899C83.3599 53.36 83.1399 53.44 82.9299 53.56C82.6399 53.71 82.3599 53.9 82.0999 54.1C81.7999 54.32 81.5199 54.56 81.2599 54.82C80.7299 55.33 80.2599 55.82 79.9599 56.21L79.4399 56.81L79.2199 57.08C77.7699 58.69 75.3499 58.95 73.5899 57.69C72.4699 56.91 71.8999 55.56 72.1199 54.21C72.1199 54.21 72.1899 53.81 72.3899 53.1C72.6899 52.08 73.0999 51.1 73.6399 50.19C74.4899 48.69 75.6299 47.38 77.0099 46.34C77.9199 45.64 78.9299 45.08 80.0099 44.69C80.3099 44.57 80.6199 44.48 80.9299 44.4C81.2599 44.3 81.5899 44.23 81.9299 44.17L82.5499 44.08L83.0499 44.02H83.5999H84.3899H84.8999C85.2399 44.02 85.5699 44.11 85.8999 44.16C86.5499 44.27 87.1799 44.44 87.7899 44.67C88.8699 45.06 89.8799 45.62 90.7899 46.32C92.1699 47.36 93.3199 48.67 94.1699 50.17C94.4799 50.69 94.7499 51.24 94.9699 51.8C95.1599 52.24 95.3199 52.69 95.4499 53.15C95.5199 53.39 95.5799 53.63 95.6099 53.87V54.12C95.9299 56.16 94.5299 58.07 92.4899 58.39C92.4599 58.39 92.4299 58.4 92.3999 58.4C90.9099 58.65 89.3999 58.07 88.4599 56.89Z" fill="#422B0D" style="fill:#422B0D;fill:color(display-p3 0.2588 0.1686 0.0510);fill-opacity:1;"/>
<path d="M88.4599 56.89L88.2999 56.69L87.8699 56.14L87.3399 55.57C87.1199 55.32 86.8599 55.08 86.6099 54.82C86.3599 54.56 86.0499 54.31 85.7699 54.1C85.5099 53.9 85.2299 53.71 84.9299 53.56C84.7299 53.45 84.5099 53.36 84.2799 53.31C84.2099 53.3 84.1399 53.3 84.0699 53.31C84.0699 53.31 84.0099 53.31 83.9799 53.31H83.8999C84.0199 53.31 83.6299 53.31 84.1699 53.31H83.6199C83.4699 53.31 83.5699 53.31 83.6199 53.31H83.6999C83.6999 53.31 83.7799 53.31 83.6999 53.31H83.5899C83.3599 53.36 83.1399 53.44 82.9299 53.56C82.6399 53.71 82.3599 53.9 82.0999 54.1C81.7999 54.32 81.5199 54.56 81.2599 54.82C80.7299 55.33 80.2599 55.82 79.9599 56.21L79.4399 56.81L79.2199 57.08C77.7699 58.69 75.3499 58.95 73.5899 57.69C72.4699 56.91 71.8999 55.56 72.1199 54.21C72.1199 54.21 72.1899 53.81 72.3899 53.1C72.6899 52.08 73.0999 51.1 73.6399 50.19C74.4899 48.69 75.6299 47.38 77.0099 46.34C77.9199 45.64 78.9299 45.08 80.0099 44.69C80.3099 44.57 80.6199 44.48 80.9299 44.4C81.2599 44.3 81.5899 44.23 81.9299 44.17L82.5499 44.08L83.0499 44.02H83.5999H84.3899H84.8999C85.2399 44.02 85.5699 44.11 85.8999 44.16C86.5499 44.27 87.1799 44.44 87.7899 44.67C88.8699 45.06 89.8799 45.62 90.7899 46.32C92.1699 47.36 93.3199 48.67 94.1699 50.17C94.4799 50.69 94.7499 51.24 94.9699 51.8C95.1599 52.24 95.3199 52.69 95.4499 53.15C95.5199 53.39 95.5799 53.63 95.6099 53.87V54.12C95.9299 56.16 94.5299 58.07 92.4899 58.39C92.4599 58.39 92.4299 58.4 92.3999 58.4C90.9099 58.65 89.3999 58.07 88.4599 56.89Z" fill="#1A1717" style="fill:#1A1717;fill:color(display-p3 0.1020 0.0902 0.0902);fill-opacity:1;"/>
<path d="M102.07 71.62C100.67 69.09 97.6299 67.98 94.9299 69C84.6699 71.99 74.0299 73.48 63.3399 73.43C52.6499 73.48 42.0099 71.99 31.7499 69C29.0599 67.98 26.0199 69.08 24.6199 71.6C23.2599 74.11 24.2399 77.02 25.3899 79.53C31.8099 93.63 45.9599 102.07 63.2599 102.12H63.4199C80.7199 102.12 94.8699 93.63 101.3 79.53C102.44 77 103.43 74.13 102.07 71.62Z" fill="#422B0D" style="fill:#422B0D;fill:color(display-p3 0.2588 0.1686 0.0510);fill-opacity:1;"/>
<path d="M102.07 71.62C100.67 69.09 97.6299 67.98 94.9299 69C84.6699 71.99 74.0299 73.48 63.3399 73.43C52.6499 73.48 42.0099 71.99 31.7499 69C29.0599 67.98 26.0199 69.08 24.6199 71.6C23.2599 74.11 24.2399 77.02 25.3899 79.53C31.8099 93.63 45.9599 102.07 63.2599 102.12H63.4199C80.7199 102.12 94.8699 93.63 101.3 79.53C102.44 77 103.43 74.13 102.07 71.62Z" fill="#1A1717" style="fill:#1A1717;fill:color(display-p3 0.1020 0.0902 0.0902);fill-opacity:1;"/>
<path d="M79.3498 98.14C78.9798 97.8 78.5998 97.49 78.2198 97.14C74.1398 93.55 68.8598 91.62 63.4198 91.73C57.8198 91.64 52.3698 93.5 47.9998 97C47.6198 97.31 47.2198 97.61 46.8498 98C46.4798 98.39 46.2798 98.67 46.0398 99C51.5398 101.15 57.3998 102.25 63.3098 102.22H63.4698C69.1298 102.22 74.7398 101.21 80.0398 99.22C79.8398 98.84 79.6098 98.48 79.3498 98.14Z" fill="#ED7770" style="fill:#ED7770;fill:color(display-p3 0.9294 0.4667 0.4392);fill-opacity:1;"/>
<path d="M94.9299 69C84.6699 71.99 74.0299 73.48 63.3399 73.43C52.6499 73.48 42.0099 71.99 31.7499 69C29.0599 67.98 26.0199 69.08 24.6199 71.6C24.4199 71.98 24.2599 72.38 24.1599 72.79C24.4899 72.96 24.8699 73.13 25.3199 73.31C37.3599 79.34 50.6699 82.4 64.1299 82.24C77.0399 82.39 89.7999 79.58 101.46 74.04C101.93 73.84 102.32 73.65 102.67 73.47C102.59 72.82 102.38 72.18 102.07 71.6C100.67 69.08 97.6299 67.97 94.9299 69Z" fill="white" style="fill:white;fill-opacity:1;"/>
<path d="M102.11 71.63C100.69 69.1 97.6399 67.98 94.9199 69C84.6599 71.99 74.0199 73.48 63.3399 73.43C52.6499 73.48 42.0099 71.99 31.7499 69C29.0599 67.98 26.0199 69.08 24.6199 71.6C23.2599 74.11 24.2399 77.02 25.3899 79.53C25.8999 80.66 26.4699 81.77 27.0999 82.84C27.0999 82.84 24.9999 75.06 26.8199 72.8C27.4399 71.84 28.4799 71.24 29.6199 71.18C30.0899 71.18 30.5499 71.26 30.9999 71.4C41.4399 74.47 52.2699 76.02 63.1599 76H63.5099C74.3999 76.02 85.2299 74.47 95.6699 71.4C96.1199 71.26 96.5799 71.18 97.0499 71.18C98.1899 71.24 99.2399 71.84 99.8599 72.8C101.71 75.06 99.5799 82.87 99.5799 82.87C100.2 81.8 100.82 80.7 101.34 79.56C102.48 77.05 103.47 74.15 102.11 71.63Z" fill="#EB8F00" style="fill:#EB8F00;fill:color(display-p3 0.9216 0.5608 0.0000);fill-opacity:1;"/>
<path d="M102.11 71.63C100.69 69.1 97.6399 67.98 94.9199 69C84.6599 71.99 74.0199 73.48 63.3399 73.43C52.6499 73.48 42.0099 71.99 31.7499 69C29.0599 67.98 26.0199 69.08 24.6199 71.6C23.2599 74.11 24.2399 77.02 25.3899 79.53C25.8999 80.66 26.4699 81.77 27.0999 82.84C27.0999 82.84 24.9999 75.06 26.8199 72.8C27.4399 71.84 28.4799 71.24 29.6199 71.18C30.0899 71.18 30.5499 71.26 30.9999 71.4C41.4399 74.47 52.2699 76.02 63.1599 76H63.5099C74.3999 76.02 85.2299 74.47 95.6699 71.4C96.1199 71.26 96.5799 71.18 97.0499 71.18C98.1899 71.24 99.2399 71.84 99.8599 72.8C101.71 75.06 99.5799 82.87 99.5799 82.87C100.2 81.8 100.82 80.7 101.34 79.56C102.48 77.05 103.47 74.15 102.11 71.63Z" fill="#4A2F27" style="fill:#4A2F27;fill:color(display-p3 0.2902 0.1843 0.1529);fill-opacity:1;"/>
<defs>
<radialGradient id="paint0_radial_169_9299" cx="0" cy="0" r="1" gradientUnits="userSpaceOnUse" gradientTransform="translate(63.6001 62.9) scale(56.9597 56.9597)">
<stop offset="0.5" stop-color="#FDE030" style="stop-color:#FDE030;stop-color:color(display-p3 0.9922 0.8784 0.1882);stop-opacity:1;"/>
<stop offset="0.92" stop-color="#F7C02B" style="stop-color:#F7C02B;stop-color:color(display-p3 0.9686 0.7529 0.1686);stop-opacity:1;"/>
<stop offset="1" stop-color="#F4A223" style="stop-color:#F4A223;stop-color:color(display-p3 0.9569 0.6353 0.1373);stop-opacity:1;"/>
</radialGradient>
<radialGradient id="paint1_radial_169_9299" cx="0" cy="0" r="1" gradientUnits="userSpaceOnUse" gradientTransform="translate(38.5991 34.5377) rotate(-43.2082) scale(102.024 101.825)">
<stop offset="0.3533" stop-color="#F9DDBD" style="stop-color:#F9DDBD;stop-color:color(display-p3 0.9765 0.8667 0.7412);stop-opacity:1;"/>
<stop offset="0.8723" stop-color="#FFD29C" style="stop-color:#FFD29C;stop-color:color(display-p3 1.0000 0.8235 0.6118);stop-opacity:1;"/>
</radialGradient>
<radialGradient id="paint2_radial_169_9299" cx="0" cy="0" r="1" gradientUnits="userSpaceOnUse" gradientTransform="translate(38.5991 34.5377) rotate(-43.2082) scale(102.024 101.825)">
<stop offset="0.3533" stop-color="#70534A" style="stop-color:#70534A;stop-color:color(display-p3 0.4392 0.3255 0.2902);stop-opacity:1;"/>
<stop offset="0.8723" stop-color="#5C4037" style="stop-color:#5C4037;stop-color:color(display-p3 0.3608 0.2510 0.2157);stop-opacity:1;"/>
</radialGradient>
</defs>
</svg>
