<svg width="128" height="129" viewBox="0 0 128 129" fill="none" xmlns="http://www.w3.org/2000/svg">
<path d="M23.9902 19.4657C23.9902 19.4657 24.9602 12.8757 26.2202 10.2357C27.4802 7.59569 29.4602 4.81569 33.2602 4.07569C37.7902 3.19569 90.3102 3.65569 93.9502 3.88569C97.6202 4.12569 100.03 5.27569 101.41 7.53569C102.46 9.26569 102.83 11.3757 103.32 14.5057C103.58 16.1557 104.12 20.6757 104.12 20.6757L23.9902 19.4657Z" fill="#FFA828" style="fill:#FFA828;fill:color(display-p3 1.0000 0.6588 0.1569);fill-opacity:1;"/>
<path d="M50.6302 37.3156L22.4702 32.6356C22.4702 32.6356 23.0602 20.9856 24.2802 17.9356C25.5002 14.8856 27.0102 13.0656 31.4402 12.3056C35.8702 11.5456 46.9702 11.8556 63.6202 11.7056C80.2702 11.5556 94.9302 12.5656 97.5302 12.7156C100.13 12.8656 102.57 14.1456 103.33 16.5856C104.09 19.0256 104.46 22.3256 105.01 28.1956C105.21 30.3256 105.03 34.3556 105.03 34.3556L72.7602 36.5556L50.6302 37.3156Z" fill="#F1EDEC" style="fill:#F1EDEC;fill:color(display-p3 0.9451 0.9294 0.9255);fill-opacity:1;"/>
<path d="M22.2302 35.6857C22.4202 32.6357 22.4802 29.3357 24.8002 27.3657C26.7902 25.6857 30.1502 25.9957 34.1202 25.8357C37.7902 25.6957 47.1002 25.7757 64.6702 25.7757C82.2402 25.7757 97.0302 26.0357 99.7802 26.0357C102.53 26.0357 104.87 28.1857 105.17 30.1757C105.48 32.1657 104.1 116.326 103.95 118.156C103.8 119.986 103.19 123.656 99.2102 123.956C95.2402 124.266 32.7702 124.266 30.1702 123.956C27.5702 123.646 25.2802 121.356 24.8202 117.086C24.3602 112.816 22.0702 38.1257 22.2302 35.6857Z" fill="#D8CDC9" style="fill:#D8CDC9;fill:color(display-p3 0.8471 0.8039 0.7882);fill-opacity:1;"/>
<path d="M29.61 50.0259C31.91 50.3259 33.82 40.4159 36.82 38.1059C39.82 35.8059 45.43 34.5959 45.43 32.2959C45.43 31.1459 41.79 31.1559 38.42 31.1959C35.05 31.2359 32.15 30.9559 30.51 32.6959C28.71 34.5959 28.53 37.6459 28.41 40.7059C28.2 45.6159 28.19 49.8359 29.61 50.0259Z" fill="#F1EDEC" style="fill:#F1EDEC;fill:color(display-p3 0.9451 0.9294 0.9255);fill-opacity:1;"/>
<path d="M79.3398 117.656C79.3398 119.336 80.5698 119.886 87.2198 119.656C92.8398 119.466 95.6198 118.756 97.2898 116.746C98.9598 114.746 99.4198 110.546 99.4898 105.506C99.5298 102.016 99.4398 98.6562 97.6798 98.6562C95.1598 98.6562 95.1699 104.406 93.1599 107.636C89.2199 113.976 79.3398 115.416 79.3398 117.656Z" fill="#F1EDEC" style="fill:#F1EDEC;fill:color(display-p3 0.9451 0.9294 0.9255);fill-opacity:1;"/>
<path d="M63.012 111.099C57.3188 111.055 51.9814 109.826 47.0506 107.28C43.0857 105.217 39.7816 102.539 37.24 99.2472C34.6984 95.9988 33.0718 92.3993 32.3601 88.4925C32.0551 86.9123 31.9026 85.332 31.9535 83.7517C32.0043 81.1618 32.4618 78.6597 33.3768 76.2015C34.4951 73.1287 36.2234 70.3194 38.46 67.7734C41.0524 64.8323 44.204 62.5058 47.9656 60.7499C51.3714 59.1258 54.9805 58.1161 58.8437 57.6333C61.5887 57.326 64.3336 57.2821 67.0785 57.6772C67.3327 57.7211 67.3327 57.765 67.3327 57.9406C67.1802 58.8185 67.0785 59.6525 66.926 60.5304C66.926 60.706 66.8244 60.7499 66.5702 60.7499C63.9269 60.6182 61.2837 60.5305 58.6912 60.8377C56.3529 61.1011 54.1672 61.7596 51.9814 62.5497C48.5756 63.8227 45.6273 65.6224 43.0857 67.949C39.8833 70.89 37.6975 74.3139 36.5284 78.2207C35.8676 80.4156 35.5117 82.6543 35.6134 84.893C35.7659 88.2291 36.63 91.3897 38.3075 94.4186C39.5783 96.7012 41.2558 98.7643 43.2382 100.564C45.729 102.847 48.6773 104.603 52.0322 105.876C54.6246 106.841 57.3188 107.456 60.1654 107.719C65.1469 108.158 69.8743 107.456 74.3984 105.7C77.6008 104.471 80.3966 102.715 82.8365 100.476C86.6489 97.0084 89.038 92.9261 89.953 88.273C90.4613 85.727 90.5122 83.1371 90.0547 80.5473C89.4955 77.3867 88.2247 74.4456 86.2931 71.7241C85.9881 71.2851 85.9881 71.2412 86.4964 70.9778C87.2081 70.5388 87.9706 70.0999 88.6822 69.6609C88.9364 69.5292 89.038 69.5292 89.2414 69.7487C91.6305 72.8654 93.1046 76.2893 93.7654 79.9327C94.0196 81.1618 94.1213 82.4348 94.1213 83.6639C94.2229 87.7024 93.3079 91.5653 91.4272 95.2526C90.1563 97.7108 88.4281 99.9495 86.3439 101.969C81.8199 106.358 76.2792 109.168 69.6201 110.441C67.4344 110.924 65.1977 111.099 63.012 111.099Z" fill="#426FE4" style="fill:#426FE4;fill:color(display-p3 0.2576 0.4363 0.8958);fill-opacity:1;"/>
<path fill-rule="evenodd" clip-rule="evenodd" d="M58.9846 58.5257C55.2402 58.9944 51.7543 59.9713 48.4672 61.5389L48.4591 61.5428C44.8273 63.238 41.7896 65.4805 39.2872 68.3192C37.1186 70.7879 35.4485 73.5051 34.3686 76.4723L34.3666 76.4778C33.4846 78.8473 33.0425 81.2611 32.9933 83.767L32.9931 83.7768C32.9444 85.2902 33.0901 86.8118 33.3859 88.3441L33.3874 88.3522C34.0757 92.1306 35.6466 95.6051 38.101 98.742L38.1046 98.7466C40.5565 101.923 43.7452 104.509 47.5841 106.507C52.3475 108.967 57.501 110.155 63.0167 110.199C65.1387 110.198 67.2836 110.027 69.363 109.568L69.3794 109.564L69.3959 109.561C75.8421 108.329 81.1897 105.617 85.568 101.369C87.5871 99.4128 89.254 97.2514 90.4768 94.8866C92.2968 91.3178 93.1797 87.5863 93.0815 83.6836L93.0812 83.6737V83.6639C93.0812 82.4759 92.9828 81.2574 92.7417 80.0915L92.7397 80.082L92.738 80.0725C92.133 76.7371 90.8256 73.6013 88.7351 70.7291C88.5504 70.84 88.3654 70.9502 88.1824 71.0592L88.1786 71.0615C87.9072 71.2231 87.6404 71.382 87.3802 71.5399C89.2696 74.2803 90.5215 77.2389 91.0826 80.4109C91.5576 83.0999 91.5045 85.7872 90.9782 88.4246C90.0278 93.2572 87.5422 97.5014 83.5916 101.096C81.0643 103.414 78.1577 105.242 74.8221 106.522C70.1378 108.34 65.2284 109.071 60.06 108.615L60.0548 108.615C57.1046 108.342 54.3092 107.704 51.6212 106.703L51.6148 106.7C48.1409 105.382 45.076 103.559 42.4842 101.184C40.4307 99.3199 38.6903 97.18 37.3707 94.8097L37.3697 94.8081C35.6279 91.6629 34.732 88.3812 34.5742 84.9286C34.4677 82.5844 34.8409 80.2559 35.5218 77.9942C36.735 73.9406 39.0069 70.3821 42.329 67.3311L42.3302 67.33C44.9671 64.9162 48.0317 63.045 51.5692 61.7228L51.5807 61.7185C53.7978 60.917 56.0817 60.2238 58.5536 59.945C61.038 59.6509 63.5484 59.7067 65.9922 59.82C66.0284 59.5879 66.0629 59.3559 66.0978 59.1207L66.0984 59.1164C66.1299 58.9048 66.1617 58.6905 66.1953 58.4733C63.8111 58.1979 61.4107 58.2545 58.9846 58.5257ZM89.2451 70.4194C89.2452 70.4194 89.2453 70.4194 89.2451 70.4194V70.4194ZM58.7104 56.7401C61.5296 56.4245 64.3801 56.3758 67.249 56.7887L67.2655 56.7911L67.2819 56.7939C67.3644 56.8082 67.4947 56.8331 67.629 56.8821C67.7759 56.9357 67.9832 57.0378 68.1464 57.235C68.3057 57.4277 68.3474 57.621 68.3617 57.7272C68.3732 57.8125 68.3728 57.8995 68.3727 57.9329C68.3727 57.9359 68.3727 57.9385 68.3727 57.9406V58.0079L68.3611 58.0745C68.2868 58.5024 68.2246 58.921 68.1608 59.3504L68.1602 59.3546C68.0993 59.7651 68.0368 60.1856 67.9625 60.6177C67.9434 60.8567 67.8369 61.2156 67.4191 61.4561C67.0809 61.6508 66.7058 61.6507 66.5762 61.6506L66.5403 61.6506L66.5104 61.6491C63.8685 61.5175 61.3149 61.4358 58.8322 61.7301L58.8253 61.7309C56.624 61.9788 54.5391 62.6013 52.3878 63.3788C49.1164 64.6023 46.2864 66.3298 43.8416 68.5676C40.7595 71.3983 38.6601 74.6873 37.5351 78.4467L37.5347 78.448C36.8941 80.5756 36.5557 82.7245 36.6526 84.8574C36.7997 88.077 37.6321 91.1163 39.245 94.0287C40.4666 96.2226 42.0804 98.2081 43.9907 99.9424L43.9941 99.9455C46.3827 102.134 49.2127 103.822 52.4465 105.049C54.9415 105.979 57.5324 106.57 60.2731 106.823C65.0663 107.245 69.6103 106.571 73.973 104.878L73.9769 104.877C77.0447 103.699 79.7285 102.016 82.0802 99.8581L82.0833 99.8553C85.7563 96.5142 88.0483 92.5943 88.9277 88.1219L88.9282 88.1196C89.4181 85.6657 89.4665 83.1737 89.0266 80.6837C88.4892 77.6458 87.2684 74.8182 85.407 72.1957L85.4019 72.1884C85.3327 72.0889 85.2375 71.9518 85.1702 71.8169C85.1028 71.682 84.9911 71.4138 85.0746 71.0892C85.1601 70.757 85.4007 70.5533 85.5426 70.4511C85.6668 70.3617 85.8116 70.2835 85.9265 70.2236C86.2789 70.0067 86.6415 69.7908 86.9963 69.5795L87 69.5773C87.3698 69.357 87.7312 69.1418 88.0788 68.9273L88.1126 68.9065L88.1482 68.8881C88.1521 68.886 88.1564 68.8838 88.1612 68.8813C88.2813 68.8185 88.6616 68.6195 89.1385 68.6829C89.6503 68.7509 89.9464 69.0705 90.0517 69.1842L90.0819 69.2168L90.1078 69.2506C92.5825 72.4789 94.1076 76.0232 94.7911 79.7834C95.0562 81.0693 95.1607 82.39 95.1612 83.6541C95.2646 87.824 94.3178 91.8143 92.3784 95.6165L92.3763 95.6206C91.0577 98.1712 89.2681 100.487 87.1198 102.568C82.4537 107.096 76.7253 110.002 69.8607 111.317C67.5755 111.82 65.2546 112 63.0119 112H63.0027C57.134 111.955 51.6146 110.685 46.518 108.054L46.515 108.052C42.4259 105.925 39.0078 103.157 36.3772 99.75C33.7503 96.3919 32.0688 92.6696 31.3335 88.6369C31.0201 87.0117 30.8612 85.3757 30.9137 83.7315C30.9666 81.0603 31.4391 78.4725 32.3859 75.928C33.5426 72.7509 35.3285 69.8505 37.6323 67.2281L37.6333 67.2269C40.3147 64.1849 43.5787 61.7752 47.468 59.959C50.989 58.2805 54.7175 57.239 58.6951 56.7419L58.7027 56.7409L58.7104 56.7401Z" fill="#426FE4" style="fill:#426FE4;fill:color(display-p3 0.2588 0.4353 0.8941);fill-opacity:1;"/>
<path d="M49.3899 79.4533C50.4164 80.002 51.4428 80.2974 52.567 80.4663C54.131 80.6773 55.6462 80.3818 57.1614 80.1286C58.5788 79.8753 59.9963 79.6221 61.4626 79.4955C63.7109 79.3266 65.8126 79.6221 67.6211 80.8461C69.0874 81.8591 69.6739 83.2098 69.3807 84.8559C69.2829 85.3624 69.0385 85.5735 68.6475 85.6157C68.2565 85.6579 67.7677 85.4046 67.5722 85.0247C67.3767 84.6871 67.3278 84.3072 67.2789 83.9695C67.1323 82.7033 66.3014 81.9013 64.9329 81.4793C63.7109 81.0994 62.4401 81.015 61.0716 81.3104C61.9513 81.7747 62.7334 82.1546 63.5643 82.5767C64.2974 82.9566 64.884 83.4208 65.1284 84.1384C65.275 84.5605 65.2261 84.9825 64.8351 85.3202C64.4441 85.6579 63.9553 85.7001 63.4665 85.5735C62.489 85.3624 61.7558 84.8137 61.0227 84.265C60.1918 83.6319 59.4097 82.9143 58.7743 82.0702C58.6277 81.8591 58.4322 81.7747 58.1389 81.8591C57.5035 82.028 56.8193 82.1546 56.1839 82.2812C55.9395 82.3234 55.9395 82.4078 56.0372 82.5767C56.4282 83.252 56.9659 83.8851 57.5524 84.476C58.6277 85.5312 59.8985 86.3332 61.1693 87.1352C61.6092 87.4306 62.0491 87.7261 62.4401 88.0215C62.88 88.3592 62.9289 88.6124 62.7334 88.9923C62.4401 89.4566 62.0002 89.6677 61.4626 89.5832C60.9738 89.4988 60.5339 89.2878 60.1429 89.0345C58.6766 88.1904 57.2103 87.304 55.9395 86.1644C54.913 85.2358 54.0333 84.2228 53.6422 82.9566C53.5445 82.6189 53.3001 82.4501 52.9091 82.4078C51.7849 82.3234 50.6607 82.1546 49.5854 81.8169C47.777 81.2682 46.4084 80.213 45.2354 78.9468C44.7466 78.4403 44.2578 77.8916 43.9646 77.2584C43.1825 75.6545 43.3781 74.0928 44.5022 72.6578C45.773 70.9272 47.1416 69.2389 48.4613 67.5506C48.6079 67.3395 48.8034 67.1707 49.0967 67.1285C49.5854 67.0441 49.781 67.1285 49.8298 67.5506C49.9276 68.2681 49.7321 68.9012 49.2922 69.5344C48.4124 70.7584 47.4349 71.9402 46.6528 73.2065C46.0174 74.3039 45.7242 75.4013 46.3596 76.5831C46.5062 76.8364 46.6528 77.0474 46.8483 77.2584C46.9461 77.3851 47.0927 77.4273 47.2882 77.4273C48.7057 77.3429 50.0742 77.1318 51.2961 76.3721C52.1271 75.8656 52.6647 75.148 53.1046 74.3461C53.4956 73.5863 53.8378 72.8266 53.9844 72.0246C54.2288 70.885 55.1574 70.1253 56.1839 69.4921C58.2856 68.1837 60.5339 67.0441 62.8311 66.0311C65.0795 65.0603 67.4745 64.385 70.0161 64.3005C70.1138 64.3005 70.2116 64.3005 70.3093 64.3005C71.1891 64.385 71.2869 64.5538 70.8959 65.2291C70.5537 65.82 69.9672 66.1999 69.234 66.3687C67.7188 66.7064 66.2037 67.0441 64.7862 67.5928C62.489 68.3947 60.4362 69.5766 58.4811 70.885C57.5524 71.4759 56.7704 72.1935 56.2327 73.0798C55.9395 73.5863 55.6951 74.0928 55.4018 74.5993C54.8642 75.4435 54.1799 76.2032 53.5934 76.963C53.4467 77.174 53.3979 77.2584 53.6911 77.3851C54.2776 77.5961 54.8642 77.8916 55.4018 78.1448C55.9883 78.3981 55.9883 78.8202 55.4996 79.2C54.4732 79.9598 53.349 79.8754 52.3714 79.3266C51.2473 78.8624 50.4164 79.1578 49.3899 79.4533Z" fill="#40A940" style="fill:#40A940;fill:color(display-p3 0.2512 0.6625 0.2512);fill-opacity:1;"/>
<path d="M73.9756 71.856C76.3706 71.856 78.3745 72.4891 79.9875 73.9664C80.3296 74.2618 80.3785 74.5151 80.1341 74.9371C79.6453 75.7391 78.8633 76.33 78.1302 76.9209C76.9571 77.8495 75.4908 78.4826 74.1222 79.2002C73.7801 79.4112 73.438 79.6223 73.0958 79.8333C72.8514 79.9599 72.8026 80.171 72.8514 80.4242C73.0958 81.184 73.0469 81.1839 73.9756 80.9729C75.5397 80.593 77.1037 80.1287 78.4723 79.3268C79.3521 78.8203 80.0364 78.0606 80.6718 77.343C81.8448 75.9924 83.2134 74.8527 84.6308 73.7553C84.7774 73.6287 84.9729 73.5443 85.1685 73.5021C85.364 73.4599 85.6084 73.3754 85.755 73.5865C85.9016 73.7975 85.9994 73.9664 85.9016 74.2196C85.6083 74.8949 85.0707 75.4436 84.5331 75.9501C83.0179 77.343 81.5516 78.7359 80.2808 80.2976C79.6942 81.0151 78.8144 81.395 77.8858 81.606C76.5172 81.9015 75.1487 82.2392 73.7801 82.5346C73.438 82.619 73.3891 82.7457 73.3891 82.9989C73.438 83.9697 73.3891 84.8983 73.1447 85.8691C72.8026 87.0087 72.3627 88.1061 71.2874 88.8658C69.8699 89.8788 68.3059 89.8366 66.6929 89.2457C65.9109 88.9502 65.2266 88.5282 64.6401 87.9373C64.3468 87.6418 64.2002 87.3041 64.3468 86.882C64.4934 86.4178 64.8845 86.2911 65.3732 86.46C66.0575 86.7132 66.644 87.1353 67.2794 87.4308C68.5502 88.0217 69.8699 87.7262 70.5053 86.671C70.7986 86.2067 70.9941 85.7002 71.043 85.1937C71.1896 83.8009 70.8963 82.4924 70.4565 81.1839C69.9188 79.6222 68.5991 78.8203 66.7907 78.4826C65.5199 78.2716 64.2491 78.3982 62.9294 78.4404C61.3164 78.5248 59.7035 78.6093 58.2372 77.9339C57.7484 77.7229 57.504 77.4274 57.6507 77.0898C57.6995 76.9631 57.7484 76.8787 57.895 77.0053C58.4327 77.4274 59.117 77.3852 59.7524 77.343C61.9518 77.132 64.2002 76.8787 66.3997 76.7943C68.1592 76.7099 69.7233 77.0054 71.1407 77.9761C71.1896 78.0183 71.2874 78.0605 71.3362 78.1028C71.9228 78.567 71.9228 78.5671 72.5582 78.1872C73.4868 77.6385 74.4155 77.0898 75.3442 76.5411C75.6374 76.3722 75.9796 76.1612 75.9307 75.8235C75.8818 75.4436 75.4419 75.4014 75.0998 75.3592C73.829 75.0638 72.5582 75.2326 71.2874 75.4436C70.3098 75.6125 69.43 75.9923 68.4525 76.1612C67.8171 76.2878 67.6705 76.1612 67.7193 75.5703C67.7682 73.9664 68.8924 73.0378 70.5053 72.4469C71.5806 71.9826 72.8026 71.856 73.9756 71.856Z" fill="#40A940" style="fill:#40A940;fill:color(display-p3 0.2512 0.6625 0.2512);fill-opacity:1;"/>
<path d="M42.1567 83.2096C42.1567 83.885 42.2544 84.5603 42.3522 85.2356C42.401 85.4889 42.4499 85.7843 42.1078 85.9532C41.7656 86.122 41.4235 85.9954 41.1791 85.8265C40.3482 85.32 39.8594 84.6447 39.6639 83.8005C39.3218 82.3655 39.4684 80.9726 40.2016 79.6219C40.6903 78.6934 41.5213 78.2713 42.5477 78.4823C42.9387 78.5667 43.1342 78.7778 43.1342 79.1154C43.1342 79.4109 43.0853 79.6641 42.9876 79.9174C42.9387 80.044 42.9387 80.1706 43.1342 80.2129C44.4539 80.5505 45.3337 81.3947 46.1646 82.2811C46.4578 82.5765 46.7511 82.872 46.9955 83.2096C47.4354 83.6739 47.973 83.9272 48.7062 83.9272C49.6348 83.9272 50.5146 83.885 51.4433 84.1382C52.763 84.5181 53.4473 85.1934 53.3984 86.3752C53.3495 87.0928 53.6916 87.4304 54.3759 87.7259C56.2821 88.5279 57.8462 89.7097 59.3125 91.0181C59.5569 91.2292 59.7035 91.2292 60.0457 91.1448C61.1698 90.8493 62.1963 91.0181 63.1738 91.5246C63.6137 91.7357 63.6626 91.9889 63.4182 92.3688C63.076 92.8331 62.5384 93.0019 62.0008 93.213C61.0721 93.5084 60.0945 93.635 59.1659 93.7195C57.6507 93.8883 56.1355 94.0571 54.5714 94.1838C53.154 94.2682 51.8832 93.8461 51.0034 92.8331C50.8079 92.622 50.6124 92.3266 50.759 92.1156C50.8568 91.9467 51.2478 91.9889 51.4922 92.0311C52.4208 92.1156 53.3006 92.2422 54.2293 92.3266C55.0113 92.411 55.7934 92.2422 56.5754 92.1156C56.722 92.1156 56.8198 92.0311 56.6731 91.9045C55.5001 90.9337 54.2782 90.0474 52.763 89.4986C51.8832 89.2032 51.0523 89.2876 50.2214 89.5831C49.3416 89.9207 48.5107 90.2162 47.6309 90.5539C46.2623 91.0604 44.9915 90.9337 43.9162 90.0473C43.1342 89.4142 42.1567 88.9499 41.2769 88.4434C41.0814 88.3168 40.8858 88.1902 40.6903 88.0214C40.3971 87.7681 40.4948 87.3882 40.837 87.3038C41.9123 86.9662 42.9387 86.7973 44.014 87.2616C44.5516 87.5149 44.9426 87.8947 45.3825 88.2746C45.9691 88.7811 46.0179 88.7811 46.6533 88.4434C47.8753 87.7681 49.195 87.3882 50.6124 87.1772C50.9545 87.135 51.0034 87.0506 50.9056 86.7973C50.8079 86.5019 50.7101 86.2064 50.6124 85.911C50.5146 85.6155 50.2702 85.4889 49.9281 85.5733C49.4393 85.6577 48.9994 85.7421 48.5107 85.8687C47.6798 86.0376 46.9466 85.8265 46.2623 85.32C45.4803 84.7291 44.8938 83.9694 44.405 83.1674C44.014 82.5343 43.4275 82.07 42.5477 81.9434C42.3033 81.9012 42.2055 81.9434 42.2055 82.1544C42.2055 82.4499 42.1567 82.8298 42.1567 83.2096Z" fill="#40A940" style="fill:#40A940;fill:color(display-p3 0.2512 0.6625 0.2512);fill-opacity:1;"/>
<path d="M57.5528 97.5604C57.9927 98.0247 58.5792 98.3201 59.1658 98.6156C60.0455 99.0376 60.9742 99.3753 61.854 99.7974C62.0006 99.8396 62.0984 99.8396 62.1961 99.7552C62.2939 99.6708 62.4405 99.5441 62.5383 99.4597C62.7827 99.2909 63.0759 99.2487 63.3203 99.3753C63.6136 99.5019 63.7602 99.6708 63.8091 99.9662C63.8091 100.177 63.7602 100.346 63.7113 100.557C63.5158 101.317 63.7602 101.739 64.5911 102.034C65.422 102.33 65.422 102.33 65.5687 101.57C65.6664 100.979 65.7153 100.346 66.0086 99.7552C66.1552 99.4175 66.3996 99.2065 66.7906 99.2065C67.2305 99.2065 67.4749 99.4175 67.6704 99.7552C68.0125 100.473 67.9148 101.19 67.817 101.908C67.817 101.95 67.817 101.992 67.7681 102.077C68.4035 101.95 68.9901 101.739 69.5277 101.486C71.1406 100.853 72.5581 100.008 73.8289 98.9532C74.0733 98.7422 74.3665 98.5734 74.6598 98.4467C74.9042 98.3201 75.1486 98.2357 75.393 98.4045C75.6373 98.6156 75.5885 98.8266 75.4907 99.0799C75.0997 99.8396 74.4643 100.473 73.7311 101.021C71.6294 102.625 69.1856 103.681 66.3507 104.018C65.3243 104.145 64.249 104.103 63.2714 103.849C62.1473 103.554 61.5119 102.879 61.3164 101.908C61.2675 101.655 61.1697 101.444 60.8276 101.401C60.5343 101.359 60.2411 101.317 59.9967 101.19C59.1169 100.81 58.2371 100.979 57.4062 101.317C56.6242 101.612 55.8421 101.823 55.0601 102.077C54.4247 102.245 53.8382 102.119 53.4471 101.697C53.105 101.317 53.1539 100.979 53.5938 100.726C54.2292 100.346 54.9135 100.093 55.5977 99.7552C55.7932 99.6708 55.9888 99.5864 56.1843 99.5019C56.4775 99.3753 56.4775 99.2065 56.1843 99.0799C56.0865 99.0377 55.9399 98.9954 55.8421 98.9532C55.1578 98.8266 54.5224 98.6578 53.8382 98.5311C53.5938 98.4889 53.3494 98.4889 53.105 98.6156C52.4207 98.911 51.6876 99.2065 51.0033 99.5019C50.6123 99.6708 50.2701 99.8818 49.9769 100.219C49.7814 100.431 49.5859 100.642 49.2437 100.557C48.9016 100.473 48.8527 100.262 48.7549 100.008C48.6083 99.5441 48.2662 99.2065 47.924 98.8688C47.3864 98.4045 46.7999 97.9824 46.3111 97.4759C45.969 97.1383 45.9201 96.8428 46.1645 96.5896C46.4088 96.3363 46.7999 96.2519 47.2398 96.4207C47.6308 96.5474 47.924 96.8428 48.2662 97.0961C48.8038 97.4759 49.2926 97.8558 49.7814 98.2357C49.928 98.3623 50.0746 98.3623 50.2213 98.2357C50.5634 97.898 50.9055 97.6026 51.2966 97.3071C51.5409 97.1383 51.4921 97.0116 51.2966 96.8428C50.71 96.2941 50.2213 95.7454 49.7325 95.1545C49.5859 94.9857 49.3903 94.7324 49.537 94.5636C49.6836 94.3525 50.0257 94.4792 50.319 94.5214C51.2477 94.7746 52.1275 95.1123 52.9584 95.4922C54.0337 95.9142 55.2067 96.0409 56.3798 95.9987C57.895 95.9987 59.3613 95.5766 60.7787 95.1123C61.1697 94.9857 61.5607 94.859 61.9518 94.7746C63.0271 94.5214 64.1512 95.1967 64.2001 96.1253C64.249 96.9694 64.0535 97.7292 63.2714 98.3201C62.8804 98.6156 62.4405 98.6156 62.0006 98.6156C61.8051 98.6156 61.7074 98.4889 61.7074 98.3201C61.6585 98.1091 61.6585 97.8558 61.6585 97.6448C61.6585 97.0961 61.4141 96.9272 60.8276 97.0539C59.9478 97.2227 59.068 97.4759 58.1393 97.6026C57.9438 97.5182 57.7483 97.4759 57.5528 97.5604Z" fill="#40A940" style="fill:#40A940;fill:color(display-p3 0.2512 0.6625 0.2512);fill-opacity:1;"/>
<path d="M91.6729 54.5868C90.6953 54.1647 89.7666 53.7426 88.838 53.3628C88.6425 53.2783 88.6425 53.1095 88.6914 52.9407C88.7402 51.7588 88.7891 50.5348 88.838 49.353C88.838 48.9309 88.838 48.551 88.8869 48.1289C88.9357 47.9601 88.7891 47.8335 88.6425 47.7913C88.2515 47.6225 87.8604 47.4536 87.4694 47.2848C87.225 47.1582 87.0784 47.2004 86.9807 47.4114C86.2475 48.6777 85.5143 49.9017 84.7812 51.1679C84.6346 51.4212 84.5368 51.5056 84.1947 51.3368C83.5593 51.0413 82.875 50.7459 82.1907 50.4926C81.8974 50.366 81.8974 50.2394 82.0441 50.0283C83.8036 47.0315 85.5632 44.0348 87.3228 41.038C87.6161 40.5737 87.8604 40.1094 88.1537 39.6451C88.2515 39.4763 88.3492 39.3919 88.5936 39.5185C90.2554 40.2782 91.9661 40.9536 93.6768 41.7555C94.9476 42.3464 95.8763 43.1906 96.1207 44.499C96.5117 46.6095 94.6055 48.6354 92.1616 48.6354C91.8195 48.6354 91.7706 48.7199 91.7706 49.0153C91.7706 50.7036 91.7706 52.392 91.7217 54.0803C91.6729 54.1647 91.6729 54.3336 91.6729 54.5868ZM91.5262 46.2718C92.2594 46.2718 92.7481 45.9341 93.0414 45.2166C93.2858 44.5835 93.0903 44.077 92.5038 43.6971C91.7706 43.2328 90.8908 42.9374 90.1088 42.5575C89.9622 42.4731 89.8644 42.5575 89.8155 42.6841C89.3756 43.4438 88.9357 44.1614 88.4958 44.8789C88.3981 45.09 88.3981 45.1744 88.6425 45.2588C89.229 45.512 89.7666 45.7653 90.3532 45.9763C90.6464 46.1452 91.0375 46.314 91.5262 46.2718Z" fill="#F44336" style="fill:#F44336;fill:color(display-p3 0.9569 0.2627 0.2118);fill-opacity:1;"/>
<path d="M53.3534 44.4566C53.4023 45.8072 53.0602 46.9468 52.1315 47.9598C51.2028 48.9728 49.8832 49.4793 48.4168 49.6904C45.5331 50.1547 43.2847 48.9306 42.1117 46.7358C41.3785 45.3851 40.9875 43.9501 40.9386 42.4306C40.792 39.8559 42.4538 37.9143 45.3376 37.3234C46.8528 36.9857 48.368 37.0279 49.7365 37.7454C50.9584 38.3786 51.6916 39.3072 52.2781 40.4468C52.9624 41.7974 53.3534 43.2325 53.3534 44.4566ZM50.4208 44.8364C50.323 43.3591 49.9809 41.9663 49.15 40.7C48.4657 39.6448 47.5371 39.2227 46.3151 39.3916C44.8977 39.6026 44.1157 40.3201 43.969 41.5864C43.9201 42.1351 43.969 42.6838 44.0668 43.1903C44.3112 44.3721 44.6533 45.5118 45.4842 46.5248C46.1685 47.3267 47.0483 47.6222 48.1725 47.4111C49.2966 47.2001 50.0787 46.6514 50.2742 45.6384C50.3719 45.3851 50.3719 45.0897 50.4208 44.8364Z" fill="#F44336" style="fill:#F44336;fill:color(display-p3 0.9569 0.2627 0.2118);fill-opacity:1;"/>
<path d="M59.7073 40.4469C60.2939 39.7293 60.8804 39.0118 61.4669 38.2942C62.2001 37.4079 62.8843 36.5637 63.6175 35.6773C63.7641 35.5085 63.9108 35.4241 64.1063 35.4241C65.1327 35.4241 66.208 35.4241 67.2344 35.4241C66.6968 36.0572 66.1102 36.7747 65.5726 37.4923C64.9372 38.2942 64.3018 39.0962 63.6175 39.8559C63.4709 40.067 63.4709 40.1936 63.5686 40.4046C65.1327 42.6417 66.6479 44.8787 68.1631 47.1157C68.2119 47.2002 68.2608 47.2846 68.3097 47.369C68.4075 47.5378 68.3586 47.58 68.1631 47.6222C67.1367 47.6644 66.1591 47.6644 65.1327 47.7066C64.9372 47.7066 64.8883 47.58 64.8394 47.4956C63.7641 45.8917 62.7377 44.2456 61.6624 42.6417C61.418 42.2618 61.418 42.2618 61.1248 42.5995C60.9293 42.8527 60.7338 43.106 60.4894 43.317C59.7073 43.9079 59.7073 44.6677 59.8051 45.5118C59.854 46.2294 59.854 46.9891 59.9028 47.7066C59.9028 47.8755 59.854 47.8755 59.7073 47.8755C58.8764 47.8755 58.0455 47.9177 57.2146 47.9599C57.0191 47.9599 56.9213 47.9177 56.9213 47.7066C56.8725 46.3138 56.8236 44.9209 56.7747 43.5703C56.677 41.5443 56.6281 39.4761 56.5303 37.4501C56.5303 36.9436 56.4814 36.4371 56.4814 35.9728C56.4814 35.804 56.5303 35.6773 56.7747 35.6773C57.5567 35.6773 58.2899 35.6351 59.0719 35.5929C59.3652 35.5929 59.5118 35.6773 59.5118 35.9306C59.5607 37.239 59.6096 38.5053 59.6585 39.8137C59.6096 39.9826 59.6096 40.1936 59.7073 40.4469Z" fill="#F44336" style="fill:#F44336;fill:color(display-p3 0.9569 0.2627 0.2118);fill-opacity:1;"/>
<path d="M82.4838 37.7032C82.3372 38.3786 82.1905 38.9695 82.0439 39.5604C81.995 39.8136 81.8484 39.7292 81.6529 39.687C80.2843 39.4338 78.9158 39.1805 77.5472 38.9273C77.0096 38.8429 76.4719 38.7584 75.9343 38.6318C75.6899 38.5896 75.5432 38.6318 75.4944 38.8429C75.3477 39.476 75.2011 40.1513 75.0056 40.7844C74.9567 40.9955 75.0545 41.0799 75.25 41.1221C76.5697 41.3331 77.8405 41.5864 79.1601 41.8396C79.4534 41.8818 79.6 41.9663 79.5023 42.2617C79.3557 42.7682 79.209 43.3169 79.1113 43.8234C79.0624 44.0345 78.9646 44.0767 78.7203 44.0345C77.4494 43.7812 76.1786 43.5702 74.9567 43.3591C74.4191 43.2747 74.4191 43.2747 74.2724 43.739C74.0769 44.4988 73.9303 45.2585 73.7348 45.976C73.6859 46.1871 73.7348 46.2715 74.0281 46.3137C75.9831 46.6514 77.9382 47.0312 79.8444 47.3689C80.1866 47.4111 80.2843 47.4955 80.1866 47.8332C80.0399 48.3397 79.9422 48.8462 79.7955 49.3527C79.7467 49.5637 79.6978 49.6059 79.4045 49.5637C76.423 49.015 73.4415 48.4663 70.46 47.9598C70.1668 47.9176 70.1668 47.8332 70.2156 47.5799C70.9977 44.4565 71.7308 41.2909 72.5129 38.1675C72.6595 37.4922 72.855 36.8591 73.0016 36.1837C73.0505 35.8883 73.1971 35.8461 73.4904 35.9305C76.3742 36.437 79.209 36.9857 82.0928 37.4922C82.3372 37.5766 82.5327 37.5344 82.4838 37.7032Z" fill="#F44336" style="fill:#F44336;fill:color(display-p3 0.9569 0.2627 0.2118);fill-opacity:1;"/>
<path d="M85.7548 83.5476C85.6081 82.6612 85.1682 81.8593 84.7283 81.1417C84.4351 80.6352 84.0929 80.171 83.8486 79.6645C83.4575 78.9047 83.6531 78.5248 84.5817 78.2716C84.9239 78.1872 85.4126 78.1872 85.6081 77.9761C85.8036 77.7651 85.5593 77.3852 85.6081 77.0898C85.6081 76.8787 85.6081 76.6677 85.657 76.4566C85.7548 75.8657 86.1458 75.7391 86.7323 76.0768C87.5143 76.541 87.9054 77.2164 88.1497 77.9761C88.5408 79.2846 88.3453 80.5508 88.1009 81.8593C87.9054 82.8301 87.7587 83.8008 87.5143 84.7716C87.27 85.7424 87.5632 86.5022 88.2964 87.2197C88.5896 87.5152 88.8829 87.8106 89.1273 88.1483C89.3717 88.5704 89.2739 88.8236 88.7851 89.0769C88.3941 89.2457 88.0031 89.3723 87.6121 89.4567C86.7812 89.6256 86.2924 90.1321 85.9014 90.723C84.7283 92.5801 83.5553 94.5217 82.2356 96.3367C81.5513 97.2653 80.7204 98.1516 79.7429 98.8692C79.3519 99.1224 78.9609 99.3334 78.4721 99.3757C78.1299 99.4179 77.7389 99.4179 77.5434 99.1646C77.299 98.8692 77.5434 98.6159 77.7389 98.3627C78.2277 97.7295 78.7653 97.0964 79.2541 96.4633C80.8671 94.3529 82.3822 92.2425 83.7508 90.0055C84.5817 88.6548 84.6306 87.2197 84.2396 85.7846C83.9952 84.9405 83.7997 84.0541 83.5553 83.1677C83.5064 82.9989 83.4575 82.8723 83.6042 82.7456C83.7997 82.619 83.9463 82.7456 84.0929 82.7879C84.5328 83.0411 85.1194 83.2943 85.7548 83.5476Z" fill="#40A940" style="fill:#40A940;fill:color(display-p3 0.2512 0.6625 0.2512);fill-opacity:1;"/>
<path d="M79.0589 90.0051C79.4499 89.5408 79.8409 89.1609 80.1831 88.7388C80.3786 88.57 80.5252 88.4012 80.7696 88.2323C81.1117 87.9791 81.405 88.0635 81.5516 88.4012C81.7471 88.8232 81.6983 89.2875 81.5028 89.6674C80.1831 92.4531 78.0814 94.6058 74.7577 95.7032C74.269 95.872 73.7313 96.0408 73.2425 96.2097C72.9004 96.2941 72.7049 96.4629 72.5583 96.7584C72.265 97.4759 71.7273 98.0668 70.9453 98.4889C70.652 98.6577 70.3099 98.7844 69.9678 98.6155C69.6256 98.4467 69.6256 98.109 69.6745 97.8136C69.7234 97.5603 69.7723 97.3071 69.87 97.096C70.3099 96.1252 70.5054 95.1122 70.4077 94.057C70.3099 92.2421 70.8476 90.596 72.1672 89.2031C72.4116 88.9499 72.656 88.6966 73.1448 88.781C73.5358 88.8654 73.8779 89.0343 73.9757 89.4141C74.0734 89.6252 73.9268 89.8784 73.8779 90.0895C73.7313 90.7226 73.438 91.3135 73.1448 91.9044C72.7049 92.7908 72.7538 93.6772 72.7538 94.6058C72.7538 94.8168 72.8515 94.8168 73.047 94.7324C74.1223 94.3947 75.051 93.846 75.9308 93.1707C76.2729 92.8752 76.6151 92.5798 76.9572 92.3265C77.2016 92.1155 77.2505 91.9044 77.1038 91.6512C76.0774 89.9629 76.3218 88.3167 77.3482 86.755C77.837 85.9953 78.3746 85.2355 79.1078 84.6446C79.5477 84.2648 80.0364 83.8849 80.7207 83.7583C81.0629 83.7161 81.405 83.7161 81.6005 84.0115C81.796 84.2648 81.7471 84.518 81.5516 84.7713C81.014 85.5732 80.2808 86.2063 79.5966 86.9239C79.1567 87.3882 78.7168 87.8947 78.6679 88.57C78.6679 89.0765 78.8145 89.4986 79.0589 90.0051Z" fill="#40A940" style="fill:#40A940;fill:color(display-p3 0.2512 0.6625 0.2512);fill-opacity:1;"/>
<path d="M39.6677 50.1975C39.6188 51.4637 38.8368 52.2657 37.6149 52.8566C36.1974 53.4897 34.8289 53.4475 33.4603 52.7722C33.2159 52.6456 33.1182 52.5611 33.3137 52.3079C33.6558 51.8436 33.998 51.3371 34.2912 50.8306C34.389 50.6618 34.4867 50.6196 34.7311 50.7462C35.0244 50.915 35.3177 51.0839 35.7087 51.0839C36.393 51.0416 36.784 50.6618 36.6373 50.0709C36.4418 49.4377 36.0997 48.889 35.8064 48.2981C34.7311 46.0611 33.607 43.8241 32.4828 41.587C32.385 41.3338 32.385 41.2494 32.6783 41.1227C33.3626 40.8695 34.0469 40.6162 34.78 40.363C35.0244 40.2786 35.171 40.2786 35.2688 40.5318C36.5885 43.2331 37.957 45.9345 39.2767 48.6358C39.5211 49.1423 39.7166 49.6488 39.6677 50.1975Z" fill="#F44336" style="fill:#F44336;fill:color(display-p3 0.9569 0.2627 0.2118);fill-opacity:1;"/>
<path d="M71.58 55.6053C71.58 55.8586 71.5311 56.154 71.6777 56.4495C71.971 57.0826 72.5087 57.1248 72.9485 56.6183C73.3884 56.0696 73.8772 55.5631 74.3171 55.0144C74.9036 54.2547 75.539 53.5371 76.2233 52.8618C76.8587 52.2287 77.6896 52.2287 78.0806 52.8618C78.2762 53.1573 78.325 53.4949 78.2761 53.8748C78.1295 54.8878 77.3964 55.6475 76.6632 56.3651C75.8323 57.2514 74.8059 58.0112 73.8772 58.8131C72.8508 59.6995 71.9221 60.6703 71.2378 61.7677C70.8468 62.4008 70.2603 62.9495 69.7227 63.4983C69.5271 63.7093 69.2828 63.8359 68.9895 63.9203C68.5496 64.047 68.403 63.9625 68.4519 63.5405C68.5985 62.9073 68.8429 62.2742 69.0384 61.6411C69.5272 60.1638 69.4783 58.6443 69.4783 57.1248C69.4783 56.2807 69.4294 55.3521 70.0648 54.6345C70.3092 54.3391 70.6513 54.1703 71.0423 54.2969C71.4334 54.4235 71.58 54.719 71.58 55.0566C71.58 55.2255 71.58 55.3943 71.58 55.6053Z" fill="#40A940" style="fill:#40A940;fill:color(display-p3 0.2512 0.6625 0.2512);fill-opacity:1;"/>
<path d="M72.998 64.6381C72.7537 64.5959 72.5093 64.5959 72.3138 64.5537C71.9716 64.4693 71.8739 64.2583 72.0694 64.005C72.3138 63.7095 72.607 63.4141 72.9003 63.1186C73.4868 62.5277 73.7801 61.8524 74.0245 61.1348C74.0733 60.9238 74.1711 60.7128 74.22 60.5017C74.3666 59.9952 74.7576 59.6998 75.2953 59.5309C76.3217 59.2355 77.3481 58.9822 78.3256 58.6024C79.8897 57.9692 81.2583 57.1251 82.4802 56.0699C82.9201 55.69 83.4088 55.2679 83.8487 54.888C84.3864 54.4238 85.1684 54.5082 85.5594 55.0569C85.9016 55.5212 85.8527 55.9854 85.6572 56.4919C85.3151 57.3361 84.5819 57.927 83.8487 58.5179C82.5779 59.4465 81.1116 60.0796 79.6453 60.755C79.0099 61.0504 78.3745 61.3459 77.7391 61.6413C76.9571 62.0212 76.2728 62.5277 75.7352 63.1608C75.0997 63.9206 74.3177 64.5115 73.1935 64.6381C73.1447 64.6381 73.0469 64.6381 72.998 64.6381Z" fill="#40A940" style="fill:#40A940;fill:color(display-p3 0.2512 0.6625 0.2512);fill-opacity:1;"/>
<path d="M64.0047 63.8361C64.0047 64.0049 63.858 64.1315 63.7114 64.3003C62.5384 65.2711 61.1698 65.862 59.6057 66.2419C58.8726 66.4529 58.0905 66.5374 57.3085 66.664C56.2332 66.8328 55.4023 67.3393 54.8647 68.1413C54.3759 68.8588 53.8871 69.6186 53.4472 70.3361C53.0073 71.0114 52.5186 71.6023 51.8832 72.151C50.9056 72.9952 50.3191 74.0082 49.6837 75.0634C49.5371 75.2745 49.3904 75.4855 49.1949 75.6543C48.9505 75.8232 48.755 75.8654 48.5595 75.5699C48.364 75.2745 48.2663 74.979 48.4129 74.6413C48.9017 73.4173 49.4393 72.1933 50.2702 71.0958C50.6123 70.6316 51.0522 70.1673 51.4921 69.7874C52.6652 68.7744 53.2517 67.466 53.8382 66.1575C53.9849 65.862 54.1315 65.5666 54.2781 65.2711C54.4736 64.8913 54.8647 64.6802 55.3046 64.6802C57.113 64.8068 58.7259 64.3425 60.4366 63.9205C61.2676 63.7094 62.0985 63.5828 62.9294 63.414C63.2226 63.3718 63.467 63.414 63.7603 63.4562C63.9558 63.4984 64.0047 63.625 64.0047 63.8361Z" fill="#40A940" style="fill:#40A940;fill:color(display-p3 0.2512 0.6625 0.2512);fill-opacity:1;"/>
<path d="M66.1062 73.2487C66.1062 75.1903 64.4932 76.752 62.1471 76.752C59.801 76.752 58.0903 75.2325 58.1392 73.2065C58.1881 71.3493 59.801 69.8298 62.1471 69.8298C64.6887 69.8298 66.1551 71.6026 66.1062 73.2487ZM62.1471 71.4338C61.023 71.4338 59.9965 72.2779 59.9965 73.2487C59.9965 74.2617 60.9252 75.1059 62.1471 75.1059C63.2713 75.1059 64.2488 74.2617 64.2488 73.2909C64.2488 72.3201 63.2713 71.4338 62.1471 71.4338Z" fill="#40A940" style="fill:#40A940;fill:color(display-p3 0.2512 0.6625 0.2512);fill-opacity:1;"/>
<path d="M73.4378 68.0153C73.1934 68.3108 72.949 68.6063 72.7047 68.8595C72.2648 69.3238 71.776 69.4926 71.3361 69.2816C70.8473 69.0705 70.6029 68.5218 70.7984 67.9731C71.3361 66.4114 73.7311 64.7231 76.2238 65.3562C76.9081 65.5251 77.1036 65.8205 76.9081 66.4114C76.3704 67.9309 75.5395 69.3238 74.3665 70.5478C74.171 70.7589 73.9755 70.9277 73.6822 70.9277C73.0957 71.0121 72.7535 70.7167 72.9002 70.168C73.0957 69.577 73.2912 68.9861 73.4867 68.3952C73.4867 68.2686 73.5844 68.142 73.4378 68.0153Z" fill="#40A940" style="fill:#40A940;fill:color(display-p3 0.2512 0.6625 0.2512);fill-opacity:1;"/>
<path d="M76.6636 70.0829C76.6636 69.4498 77.1523 69.1121 77.7389 69.4076C78.9119 69.9141 79.9383 69.8297 81.0625 69.2809C81.649 68.9855 82.2356 68.7322 82.871 68.5634C83.2131 68.479 83.5552 68.4368 83.7996 68.7322C83.9951 68.9855 83.9951 69.3232 83.653 69.6186C83.2131 70.0407 82.7243 70.4628 82.2356 70.8849C81.8445 71.2225 81.8445 71.4336 82.1867 71.7712C82.6266 72.2355 83.0665 72.6576 83.4086 73.1641C83.6041 73.4173 83.7019 73.7128 83.4575 73.9661C83.2131 74.2193 82.8221 74.2615 82.4311 74.1349C81.3558 73.7972 80.5249 73.1219 79.5962 72.5732C79.0586 72.2777 78.5698 71.9401 78.0321 71.6024C77.4945 71.3069 77.1523 70.8849 76.7613 70.4628C76.7124 70.3361 76.6636 70.2095 76.6636 70.0829Z" fill="#40A940" style="fill:#40A940;fill:color(display-p3 0.2512 0.6625 0.2512);fill-opacity:1;"/>
<path d="M46.9956 94.6062C46.8489 95.5348 46.3113 96.1679 45.0405 95.7036C44.3073 95.4504 43.7208 95.0705 43.232 94.5218C42.3522 93.5932 41.5702 92.6224 40.7882 91.6094C40.3483 91.0185 40.7393 90.301 41.5702 90.2166C41.7657 90.2166 41.9612 90.2165 42.1078 90.301C44.014 90.9341 45.5292 92.0315 46.6045 93.5088C46.8489 93.8464 46.9467 94.2263 46.9956 94.6062Z" fill="#40A940" style="fill:#40A940;fill:color(display-p3 0.2512 0.6625 0.2512);fill-opacity:1;"/>
<path d="M79.1076 65.989C78.4722 65.989 77.9835 65.7358 77.8368 65.3981C77.6902 65.0604 77.8368 64.765 78.1301 64.5117C79.5964 63.1188 81.2093 61.8526 82.8712 60.6286C83.3111 60.2909 83.7998 60.0377 84.3863 60.1643C84.9729 60.2909 85.2173 60.6708 84.8751 61.1351C84.3863 61.8948 83.7509 62.5279 83.0667 63.1611C82.1869 63.963 81.3071 64.765 80.2318 65.4403C79.8897 65.7358 79.4498 65.9468 79.1076 65.989Z" fill="#40A940" style="fill:#40A940;fill:color(display-p3 0.2512 0.6625 0.2512);fill-opacity:1;"/>
<path d="M81.9915 68.2261C81.6493 68.1839 81.405 68.0573 81.2583 67.804C81.1117 67.5508 81.1117 67.2553 81.3072 67.0443C81.9426 66.3689 82.578 65.6936 83.36 65.1027C84.191 64.4274 85.0219 63.752 85.8528 63.0767C86.146 62.8657 86.4882 62.6124 86.9281 62.6968C87.6612 62.8657 87.9545 63.4566 87.5635 64.0053C86.9281 64.8917 85.9994 65.567 85.1196 66.3267C84.5331 66.8332 83.9954 67.2975 83.3112 67.7196C82.9202 67.9306 82.4803 68.1417 81.9915 68.2261Z" fill="#40A940" style="fill:#40A940;fill:color(display-p3 0.2512 0.6625 0.2512);fill-opacity:1;"/>
<path d="M65.6664 68.2265C66.3018 68.1843 66.8884 68.3954 67.3283 68.733C67.7193 69.0285 68.1592 69.0707 68.6479 68.9863C69.0878 68.9019 69.4789 68.8175 69.9188 68.8175C70.3586 68.8175 70.5542 68.9441 70.4564 69.324C70.2609 70.1681 69.6255 70.6746 68.7946 71.0123C67.3771 71.561 66.1552 71.0967 65.0799 70.2525C64.8844 70.0837 64.6889 69.8727 64.5423 69.7038C64.0046 69.0707 64.3956 68.3532 65.3243 68.2688C65.4221 68.2265 65.5687 68.2265 65.6664 68.2265Z" fill="#40A940" style="fill:#40A940;fill:color(display-p3 0.2512 0.6625 0.2512);fill-opacity:1;"/>
<path d="M67.1329 91.6516C67.5728 91.6938 68.0615 91.736 68.5014 91.9049C69.3812 92.2425 69.6256 93.3821 68.9902 93.9731C68.7947 94.1419 68.5992 94.2263 68.3548 94.1419C67.6216 93.8464 66.8396 93.762 66.0576 93.7198C65.4222 93.6776 64.7868 93.551 64.2002 93.3399C63.907 93.2555 63.6626 93.1289 63.6137 92.8334C63.5648 92.4958 63.8092 92.3269 64.0536 92.1581C64.5424 91.8626 65.08 91.8204 65.6666 91.7782C66.1064 91.6938 66.6441 91.6938 67.1329 91.6516Z" fill="#40A940" style="fill:#40A940;fill:color(display-p3 0.2512 0.6625 0.2512);fill-opacity:1;"/>
<path d="M63.1249 73.0799C63.1249 73.6708 62.6361 74.0929 61.9518 74.0929C61.3164 74.0929 60.8276 73.6708 60.8276 73.1221C60.8276 72.5312 61.3164 72.0669 62.0007 72.1091C62.6361 72.1091 63.1249 72.5312 63.1249 73.0799Z" fill="#40A940" style="fill:#40A940;fill:color(display-p3 0.2512 0.6625 0.2512);fill-opacity:1;"/>
</svg>
