<svg width="128" height="128" viewBox="0 0 128 128" fill="none" xmlns="http://www.w3.org/2000/svg">
<path d="M63.6001 118.8C35.7001 118.8 5.6001 101.3 5.6001 62.9C5.6001 24.5 35.7001 7 63.6001 7C79.1001 7 93.4001 12.1 104 21.4C115.5 31.6 121.6 46 121.6 62.9C121.6 79.8 115.5 94.1 104 104.3C93.4001 113.6 79.0001 118.8 63.6001 118.8Z" fill="url(#paint0_radial_169_13312)" style=""/>
<path d="M63.6001 118.8C35.7001 118.8 5.6001 101.3 5.6001 62.9C5.6001 24.5 35.7001 7 63.6001 7C79.1001 7 93.4001 12.1 104 21.4C115.5 31.6 121.6 46 121.6 62.9C121.6 79.8 115.5 94.1 104 104.3C93.4001 113.6 79.0001 118.8 63.6001 118.8Z" fill="url(#paint1_radial_169_13312)" style=""/>
<path d="M63.6001 118.8C35.7001 118.8 5.6001 101.3 5.6001 62.9C5.6001 24.5 35.7001 7 63.6001 7C79.1001 7 93.4001 12.1 104 21.4C115.5 31.6 121.6 46 121.6 62.9C121.6 79.8 115.5 94.1 104 104.3C93.4001 113.6 79.0001 118.8 63.6001 118.8Z" fill="url(#paint2_radial_169_13312)" style=""/>
<path d="M63.6001 118.8C35.7001 118.8 5.6001 101.3 5.6001 62.9C5.6001 24.5 35.7001 7 63.6001 7C79.1001 7 93.4001 12.1 104 21.4C115.5 31.6 121.6 46 121.6 62.9C121.6 79.8 115.5 94.1 104 104.3C93.4001 113.6 79.0001 118.8 63.6001 118.8Z" fill="url(#paint3_radial_169_13312)" style=""/>
<path d="M63.6001 118.8C35.7001 118.8 5.6001 101.3 5.6001 62.9C5.6001 24.5 35.7001 7 63.6001 7C79.1001 7 93.4001 12.1 104 21.4C115.5 31.6 121.6 46 121.6 62.9C121.6 79.8 115.5 94.1 104 104.3C93.4001 113.6 79.0001 118.8 63.6001 118.8Z" fill="url(#paint4_radial_169_13312)" style=""/>
<path d="M111.49 29.67C116.82 38.27 119.6 48.51 119.6 59.9C119.6 76.8 113.5 91.1 102 101.3C91.4004 110.6 77.0004 115.8 61.6004 115.8C43.5404 115.8 24.6004 108.45 13.4204 92.86C24.1804 110.52 44.4204 118.8 63.6004 118.8C79.0004 118.8 93.4004 113.6 104 104.3C115.5 94.1001 121.6 79.8 121.6 62.9C121.6 50.16 118.13 38.84 111.49 29.67Z" fill="#EB8F00" style="fill:#EB8F00;fill:color(display-p3 0.9216 0.5608 0.0000);fill-opacity:1;"/>
<path d="M111.49 29.67C116.82 38.27 119.6 48.51 119.6 59.9C119.6 76.8 113.5 91.1 102 101.3C91.4004 110.6 77.0004 115.8 61.6004 115.8C43.5404 115.8 24.6004 108.45 13.4204 92.86C24.1804 110.52 44.4204 118.8 63.6004 118.8C79.0004 118.8 93.4004 113.6 104 104.3C115.5 94.1001 121.6 79.8 121.6 62.9C121.6 50.16 118.13 38.84 111.49 29.67Z" fill="#F3B872" style="fill:#F3B872;fill:color(display-p3 0.9542 0.7229 0.4453);fill-opacity:1;"/>
<path d="M111.49 29.67C116.82 38.27 119.6 48.51 119.6 59.9C119.6 76.8 113.5 91.1 102 101.3C91.4004 110.6 77.0004 115.8 61.6004 115.8C43.5404 115.8 24.6004 108.45 13.4204 92.86C24.1804 110.52 44.4204 118.8 63.6004 118.8C79.0004 118.8 93.4004 113.6 104 104.3C115.5 94.1001 121.6 79.8 121.6 62.9C121.6 50.16 118.13 38.84 111.49 29.67Z" fill="#91674D" style="fill:#91674D;fill:color(display-p3 0.5686 0.4039 0.3020);fill-opacity:1;"/>
<path d="M83.9004 90.7001C83.5104 90.6901 83.1404 90.5901 82.8004 90.4001C77.0704 87.1601 70.5804 85.5001 64.0004 85.6001C57.4204 85.5501 50.9504 87.2001 45.2004 90.4001C44.9004 90.5901 44.5504 90.6901 44.2004 90.7001C43.4004 90.6701 42.6704 90.2101 42.3004 89.5001C41.9904 88.7701 42.1104 87.9201 42.6004 87.3001C52.9604 75.4801 70.9404 74.3001 82.7604 84.6601C83.7004 85.4801 84.5804 86.3601 85.4004 87.3001C86.1404 88.1801 86.0204 89.4801 85.1504 90.2201C84.8004 90.5101 84.3604 90.6801 83.9004 90.7001Z" fill="#35220B" style="fill:#35220B;fill:color(display-p3 0.2078 0.1333 0.0431);fill-opacity:1;"/>
<path d="M83.9004 90.7001C83.5104 90.6901 83.1404 90.5901 82.8004 90.4001C77.0704 87.1601 70.5804 85.5001 64.0004 85.6001C57.4204 85.5501 50.9504 87.2001 45.2004 90.4001C44.9004 90.5901 44.5504 90.6901 44.2004 90.7001C43.4004 90.6701 42.6704 90.2101 42.3004 89.5001C41.9904 88.7701 42.1104 87.9201 42.6004 87.3001C52.9604 75.4801 70.9404 74.3001 82.7604 84.6601C83.7004 85.4801 84.5804 86.3601 85.4004 87.3001C86.1404 88.1801 86.0204 89.4801 85.1504 90.2201C84.8004 90.5101 84.3604 90.6801 83.9004 90.7001Z" fill="#1A1717" style="fill:#1A1717;fill:color(display-p3 0.1020 0.0902 0.0902);fill-opacity:1;"/>
<path d="M83.9004 90.7001C83.5104 90.6901 83.1404 90.5901 82.8004 90.4001C77.0704 87.1601 70.5804 85.5001 64.0004 85.6001C57.4204 85.5501 50.9504 87.2001 45.2004 90.4001C44.9004 90.5901 44.5504 90.6901 44.2004 90.7001C43.4004 90.6701 42.6704 90.2101 42.3004 89.5001C41.9904 88.7701 42.1104 87.9201 42.6004 87.3001C52.9604 75.4801 70.9404 74.3001 82.7604 84.6601C83.7004 85.4801 84.5804 86.3601 85.4004 87.3001C86.1404 88.1801 86.0204 89.4801 85.1504 90.2201C84.8004 90.5101 84.3604 90.6801 83.9004 90.7001Z" fill="#5D4037" style="fill:#5D4037;fill:color(display-p3 0.3647 0.2510 0.2157);fill-opacity:1;"/>
<path d="M73.9004 50.1C73.9804 50.11 74.0504 50.14 74.1004 50.2C74.2104 50.21 74.2904 50.29 74.3004 50.4C74.4004 50.4 74.4004 50.4 74.5004 50.5C74.7304 50.62 74.9604 50.72 75.2004 50.8L76.1004 51.1C76.9204 51.37 77.7504 51.57 78.6004 51.7C79.1004 51.8 79.6004 51.8 80.1004 51.9C80.6304 51.98 81.1604 52.02 81.7004 52H83.3004C83.8104 51.98 84.3104 51.92 84.8004 51.8C85.8004 51.6 86.6004 51.4 87.3004 51.2C88.0004 51 88.5004 50.7 88.9004 50.6C89.1204 50.55 89.3304 50.45 89.5004 50.3L90.0004 50.1C91.4404 49.35 93.2104 49.89 94.0004 51.3C94.5704 52.36 94.4504 53.66 93.7004 54.6C93.6204 54.69 93.5504 54.79 93.5004 54.9C93.3304 55.16 93.1304 55.4 92.9004 55.6C92.1404 56.36 91.3004 57.03 90.4004 57.6C89.1604 58.13 87.8904 58.6 86.6004 59C85.8404 59.21 85.0804 59.38 84.3004 59.5C83.9004 59.5 83.5004 59.6 83.0004 59.6H81.8004C81.0004 59.58 80.2004 59.52 79.4004 59.4C78.6204 59.29 77.8504 59.12 77.1004 58.9C75.7204 58.54 74.4104 57.96 73.2004 57.2C72.6004 56.9 72.2004 56.5 71.7004 56.2C71.3104 55.89 70.9404 55.56 70.6004 55.2L70.2004 54.8C70.1004 54.7 70.1004 54.6 70.0004 54.6L69.8004 54.4C68.8104 53.07 69.0704 51.19 70.4004 50.2C71.4604 49.52 72.8104 49.48 73.9004 50.1Z" fill="#35220B" style="fill:#35220B;fill:color(display-p3 0.2078 0.1333 0.0431);fill-opacity:1;"/>
<path d="M73.9004 50.1C73.9804 50.11 74.0504 50.14 74.1004 50.2C74.2104 50.21 74.2904 50.29 74.3004 50.4C74.4004 50.4 74.4004 50.4 74.5004 50.5C74.7304 50.62 74.9604 50.72 75.2004 50.8L76.1004 51.1C76.9204 51.37 77.7504 51.57 78.6004 51.7C79.1004 51.8 79.6004 51.8 80.1004 51.9C80.6304 51.98 81.1604 52.02 81.7004 52H83.3004C83.8104 51.98 84.3104 51.92 84.8004 51.8C85.8004 51.6 86.6004 51.4 87.3004 51.2C88.0004 51 88.5004 50.7 88.9004 50.6C89.1204 50.55 89.3304 50.45 89.5004 50.3L90.0004 50.1C91.4404 49.35 93.2104 49.89 94.0004 51.3C94.5704 52.36 94.4504 53.66 93.7004 54.6C93.6204 54.69 93.5504 54.79 93.5004 54.9C93.3304 55.16 93.1304 55.4 92.9004 55.6C92.1404 56.36 91.3004 57.03 90.4004 57.6C89.1604 58.13 87.8904 58.6 86.6004 59C85.8404 59.21 85.0804 59.38 84.3004 59.5C83.9004 59.5 83.5004 59.6 83.0004 59.6H81.8004C81.0004 59.58 80.2004 59.52 79.4004 59.4C78.6204 59.29 77.8504 59.12 77.1004 58.9C75.7204 58.54 74.4104 57.96 73.2004 57.2C72.6004 56.9 72.2004 56.5 71.7004 56.2C71.3104 55.89 70.9404 55.56 70.6004 55.2L70.2004 54.8C70.1004 54.7 70.1004 54.6 70.0004 54.6L69.8004 54.4C68.8104 53.07 69.0704 51.19 70.4004 50.2C71.4604 49.52 72.8104 49.48 73.9004 50.1Z" fill="#1A1717" style="fill:#1A1717;fill:color(display-p3 0.1020 0.0902 0.0902);fill-opacity:1;"/>
<path d="M73.9004 50.1C73.9804 50.11 74.0504 50.14 74.1004 50.2C74.2104 50.21 74.2904 50.29 74.3004 50.4C74.4004 50.4 74.4004 50.4 74.5004 50.5C74.7304 50.62 74.9604 50.72 75.2004 50.8L76.1004 51.1C76.9204 51.37 77.7504 51.57 78.6004 51.7C79.1004 51.8 79.6004 51.8 80.1004 51.9C80.6304 51.98 81.1604 52.02 81.7004 52H83.3004C83.8104 51.98 84.3104 51.92 84.8004 51.8C85.8004 51.6 86.6004 51.4 87.3004 51.2C88.0004 51 88.5004 50.7 88.9004 50.6C89.1204 50.55 89.3304 50.45 89.5004 50.3L90.0004 50.1C91.4404 49.35 93.2104 49.89 94.0004 51.3C94.5704 52.36 94.4504 53.66 93.7004 54.6C93.6204 54.69 93.5504 54.79 93.5004 54.9C93.3304 55.16 93.1304 55.4 92.9004 55.6C92.1404 56.36 91.3004 57.03 90.4004 57.6C89.1604 58.13 87.8904 58.6 86.6004 59C85.8404 59.21 85.0804 59.38 84.3004 59.5C83.9004 59.5 83.5004 59.6 83.0004 59.6H81.8004C81.0004 59.58 80.2004 59.52 79.4004 59.4C78.6204 59.29 77.8504 59.12 77.1004 58.9C75.7204 58.54 74.4104 57.96 73.2004 57.2C72.6004 56.9 72.2004 56.5 71.7004 56.2C71.3104 55.89 70.9404 55.56 70.6004 55.2L70.2004 54.8C70.1004 54.7 70.1004 54.6 70.0004 54.6L69.8004 54.4C68.8104 53.07 69.0704 51.19 70.4004 50.2C71.4604 49.52 72.8104 49.48 73.9004 50.1Z" fill="#49362E" style="fill:#49362E;fill:color(display-p3 0.2863 0.2118 0.1804);fill-opacity:1;"/>
<path d="M37.1003 50.1001C37.1803 50.1101 37.2503 50.1401 37.3003 50.2001C37.4103 50.2101 37.4903 50.2901 37.5003 50.4001C37.6003 50.4001 37.6003 50.4001 37.7003 50.5001C37.9303 50.6201 38.1603 50.7201 38.4003 50.8001L39.3003 51.1001C40.1203 51.3701 40.9503 51.5701 41.8003 51.7001C42.3003 51.8001 42.8003 51.8001 43.3003 51.9001C43.8303 51.9901 44.3603 52.0201 44.9003 52.0001H46.5003C47.0103 51.9801 47.5103 51.9201 48.0003 51.8001C49.0003 51.6001 49.8003 51.4001 50.5003 51.2001C51.2003 51.0001 51.7003 50.7001 52.1003 50.6001C52.3203 50.5501 52.5303 50.4501 52.7003 50.3001L53.2003 50.1001C54.6403 49.3501 56.4103 49.8901 57.2003 51.3001C57.7703 52.3601 57.6503 53.6601 56.9003 54.6001C56.8203 54.6901 56.7503 54.7901 56.7003 54.9001C56.5303 55.1601 56.3303 55.4001 56.1003 55.6001C55.3603 56.3801 54.5203 57.0501 53.6003 57.6001C52.3603 58.3601 51.0103 58.9401 49.6003 59.3001C48.8403 59.5101 48.0803 59.6801 47.3003 59.8001C46.9003 59.8001 46.5003 59.9001 46.0003 59.9001H44.8003C44.0003 59.8801 43.2003 59.8201 42.4003 59.7001C41.6203 59.5901 40.8503 59.4201 40.1003 59.2001C38.7003 58.8201 37.3503 58.2501 36.1003 57.5001C35.6003 57.2001 35.1003 56.8001 34.6003 56.5001C34.2103 56.1901 33.8403 55.8601 33.5003 55.5001L33.1003 55.1001C33.0003 55.0001 33.0003 54.9001 32.9003 54.9001L32.7003 54.7001C31.7103 53.3701 31.9703 51.4901 33.3003 50.5001C34.3603 49.6001 35.8703 49.4401 37.1003 50.1001Z" fill="#35220B" style="fill:#35220B;fill:color(display-p3 0.2078 0.1333 0.0431);fill-opacity:1;"/>
<path d="M37.1003 50.1001C37.1803 50.1101 37.2503 50.1401 37.3003 50.2001C37.4103 50.2101 37.4903 50.2901 37.5003 50.4001C37.6003 50.4001 37.6003 50.4001 37.7003 50.5001C37.9303 50.6201 38.1603 50.7201 38.4003 50.8001L39.3003 51.1001C40.1203 51.3701 40.9503 51.5701 41.8003 51.7001C42.3003 51.8001 42.8003 51.8001 43.3003 51.9001C43.8303 51.9901 44.3603 52.0201 44.9003 52.0001H46.5003C47.0103 51.9801 47.5103 51.9201 48.0003 51.8001C49.0003 51.6001 49.8003 51.4001 50.5003 51.2001C51.2003 51.0001 51.7003 50.7001 52.1003 50.6001C52.3203 50.5501 52.5303 50.4501 52.7003 50.3001L53.2003 50.1001C54.6403 49.3501 56.4103 49.8901 57.2003 51.3001C57.7703 52.3601 57.6503 53.6601 56.9003 54.6001C56.8203 54.6901 56.7503 54.7901 56.7003 54.9001C56.5303 55.1601 56.3303 55.4001 56.1003 55.6001C55.3603 56.3801 54.5203 57.0501 53.6003 57.6001C52.3603 58.3601 51.0103 58.9401 49.6003 59.3001C48.8403 59.5101 48.0803 59.6801 47.3003 59.8001C46.9003 59.8001 46.5003 59.9001 46.0003 59.9001H44.8003C44.0003 59.8801 43.2003 59.8201 42.4003 59.7001C41.6203 59.5901 40.8503 59.4201 40.1003 59.2001C38.7003 58.8201 37.3503 58.2501 36.1003 57.5001C35.6003 57.2001 35.1003 56.8001 34.6003 56.5001C34.2103 56.1901 33.8403 55.8601 33.5003 55.5001L33.1003 55.1001C33.0003 55.0001 33.0003 54.9001 32.9003 54.9001L32.7003 54.7001C31.7103 53.3701 31.9703 51.4901 33.3003 50.5001C34.3603 49.6001 35.8703 49.4401 37.1003 50.1001Z" fill="#1A1717" style="fill:#1A1717;fill:color(display-p3 0.1020 0.0902 0.0902);fill-opacity:1;"/>
<path d="M37.1003 50.1001C37.1803 50.1101 37.2503 50.1401 37.3003 50.2001C37.4103 50.2101 37.4903 50.2901 37.5003 50.4001C37.6003 50.4001 37.6003 50.4001 37.7003 50.5001C37.9303 50.6201 38.1603 50.7201 38.4003 50.8001L39.3003 51.1001C40.1203 51.3701 40.9503 51.5701 41.8003 51.7001C42.3003 51.8001 42.8003 51.8001 43.3003 51.9001C43.8303 51.9901 44.3603 52.0201 44.9003 52.0001H46.5003C47.0103 51.9801 47.5103 51.9201 48.0003 51.8001C49.0003 51.6001 49.8003 51.4001 50.5003 51.2001C51.2003 51.0001 51.7003 50.7001 52.1003 50.6001C52.3203 50.5501 52.5303 50.4501 52.7003 50.3001L53.2003 50.1001C54.6403 49.3501 56.4103 49.8901 57.2003 51.3001C57.7703 52.3601 57.6503 53.6601 56.9003 54.6001C56.8203 54.6901 56.7503 54.7901 56.7003 54.9001C56.5303 55.1601 56.3303 55.4001 56.1003 55.6001C55.3603 56.3801 54.5203 57.0501 53.6003 57.6001C52.3603 58.3601 51.0103 58.9401 49.6003 59.3001C48.8403 59.5101 48.0803 59.6801 47.3003 59.8001C46.9003 59.8001 46.5003 59.9001 46.0003 59.9001H44.8003C44.0003 59.8801 43.2003 59.8201 42.4003 59.7001C41.6203 59.5901 40.8503 59.4201 40.1003 59.2001C38.7003 58.8201 37.3503 58.2501 36.1003 57.5001C35.6003 57.2001 35.1003 56.8001 34.6003 56.5001C34.2103 56.1901 33.8403 55.8601 33.5003 55.5001L33.1003 55.1001C33.0003 55.0001 33.0003 54.9001 32.9003 54.9001L32.7003 54.7001C31.7103 53.3701 31.9703 51.4901 33.3003 50.5001C34.3603 49.6001 35.8703 49.4401 37.1003 50.1001Z" fill="#49362E" style="fill:#49362E;fill:color(display-p3 0.2863 0.2118 0.1804);fill-opacity:1;"/>
<path d="M75.5204 37.89L75.4204 38.01C73.9604 40.01 70.6404 38.53 71.7904 36.01C72.7604 34 74.0304 32.15 75.5504 30.52C79.6204 26.1 85.2304 23.41 91.2204 23C92.3604 22.9 93.3704 23.76 93.4704 24.9C93.5604 25.99 92.7904 26.97 91.7004 27.13C85.2504 28.79 79.5404 32.58 75.5204 37.89Z" fill="#49362E" style="fill:#49362E;fill:color(display-p3 0.2863 0.2118 0.1804);fill-opacity:1;"/>
<path d="M75.5204 37.89L75.4204 38.01C73.9604 40.01 70.6404 38.53 71.7904 36.01C72.7604 34 74.0304 32.15 75.5504 30.52C79.6204 26.1 85.2304 23.41 91.2204 23C92.3604 22.9 93.3704 23.76 93.4704 24.9C93.5604 25.99 92.7904 26.97 91.7004 27.13C85.2504 28.79 79.5404 32.58 75.5204 37.89Z" fill="#613E31" style="fill:#613E31;fill:color(display-p3 0.3804 0.2431 0.1922);fill-opacity:1;"/>
<path d="M54.4202 38.8899L54.5102 39.0099C55.9802 41.0099 59.3002 39.5299 58.1502 37.0099C57.1802 34.9999 55.9002 33.1499 54.3802 31.5199C50.3102 27.0999 44.7102 24.4099 38.7202 23.9999C37.5802 23.8899 36.5602 24.7299 36.4502 25.8699C36.3402 26.9799 37.1302 27.9699 38.2302 28.1299C44.6902 29.7899 50.3902 33.5799 54.4202 38.8899Z" fill="#49362E" style="fill:#49362E;fill:color(display-p3 0.2863 0.2118 0.1804);fill-opacity:1;"/>
<path d="M54.4202 38.8899L54.5102 39.0099C55.9802 41.0099 59.3002 39.5299 58.1502 37.0099C57.1802 34.9999 55.9002 33.1499 54.3802 31.5199C50.3102 27.0999 44.7102 24.4099 38.7202 23.9999C37.5802 23.8899 36.5602 24.7299 36.4502 25.8699C36.3402 26.9799 37.1302 27.9699 38.2302 28.1299C44.6902 29.7899 50.3902 33.5799 54.4202 38.8899Z" fill="#613E31" style="fill:#613E31;fill:color(display-p3 0.3804 0.2431 0.1922);fill-opacity:1;"/>
<path d="M5.77023 92C6.57023 91.04 6.69023 89.69 6.07023 88.6C4.71023 86.28 4.32023 83.51 5.00023 80.9C6.07023 76.45 9.93023 73.24 14.5002 73H15.1002C16.8102 73.01 18.4902 73.44 20.0002 74.25C21.6002 75.17 23.0202 76.4 24.1602 77.85C27.6802 76.39 42.6602 70.85 46.5302 69.42H46.5902L36.3302 91.17C40.9702 94.6 41.9502 101.15 38.5202 105.79C36.6902 108.27 33.8502 109.81 30.7702 110H30.1602C27.7202 110.02 25.3502 109.17 23.4702 107.6C22.9102 107.14 22.2002 106.89 21.4702 106.9C20.8702 106.91 20.2802 107.08 19.7702 107.4C18.0202 108.56 15.9602 109.19 13.8602 109.2C13.0502 109.2 12.2502 109.1 11.4702 108.9C6.96023 107.88 3.67023 104.01 3.36023 99.4C3.16023 96.71 4.03023 94.05 5.77023 92Z" fill="white" style="fill:white;fill-opacity:1;"/>
<path d="M46.5602 69.4L31.1802 89.69L36.3302 91.17L46.5602 69.4Z" fill="#92CBEB" style="fill:#92CBEB;fill:color(display-p3 0.5725 0.7961 0.9216);fill-opacity:1;"/>
<path d="M31.6502 89.34C31.2702 89.36 30.9802 89.67 31.0002 90.05C31.0102 90.3 31.1602 90.52 31.3802 90.63C33.4402 91.53 34.9302 93.37 35.3802 95.57C35.8002 97.89 35.1802 100.89 33.3802 102.57C31.5802 104.25 28.6002 104.57 26.3102 103.97C24.0202 103.37 21.3102 100.97 19.5402 99.18C19.2402 98.87 18.7402 98.86 18.4202 99.16C18.2902 99.28 18.2102 99.44 18.1902 99.62C18.0902 100.58 18.1702 101.55 18.4502 102.47C18.5902 103.38 13.9402 106.88 8.67023 104.06C1.18023 100 7.11023 91.5 6.26023 91.17C6.14023 91.47 5.98023 91.75 5.77023 92C4.03023 94.05 3.16023 96.71 3.36023 99.4C3.67023 104.01 6.96023 107.88 11.4702 108.9C12.2502 109.1 13.0502 109.2 13.8602 109.2C15.9602 109.19 18.0202 108.56 19.7702 107.4C20.2802 107.08 20.8702 106.91 21.4702 106.9C22.2002 106.89 22.9102 107.14 23.4702 107.6C25.3502 109.17 27.7202 110.02 30.1602 110H30.7702C36.5302 109.64 40.9102 104.68 40.5402 98.92C40.3502 95.84 38.8002 93.01 36.3302 91.17L36.9402 89.86C35.2202 89.36 33.4302 89.19 31.6502 89.34Z" fill="#92CBEB" style="fill:#92CBEB;fill:color(display-p3 0.5725 0.7961 0.9216);fill-opacity:1;"/>
<path d="M5.00041 80.9C4.33041 83.51 4.7304 86.28 6.1004 88.6C6.5204 89.39 6.5904 90.32 6.29041 91.16C7.55041 90.22 8.40041 88.83 8.68041 87.28C8.78041 85.59 8.59041 83.9 8.10041 82.28C7.65041 80.91 7.7304 79.43 8.3304 78.12C9.4204 75.51 12.6804 73.99 12.9604 73.88C13.6404 73.6 13.7804 73.29 13.7504 73.08C9.49041 73.61 6.00041 76.73 5.00041 80.9Z" fill="#92CBEB" style="fill:#92CBEB;fill:color(display-p3 0.5725 0.7961 0.9216);fill-opacity:1;"/>
<path d="M122.23 92C121.43 91.04 121.31 89.69 121.93 88.6C123.3 86.28 123.7 83.51 123.03 80.9C121.96 76.45 118.1 73.24 113.53 73H112.93C111.21 73 109.51 73.43 108 74.25C106.4 75.17 104.98 76.4 103.84 77.85C100.32 76.39 85.3402 70.85 81.4702 69.42H81.4102L91.6702 91.17C87.0302 94.6 86.0502 101.15 89.4802 105.79C91.3102 108.27 94.1502 109.81 97.2302 110H97.8401C100.28 110.02 102.65 109.17 104.53 107.6C105.09 107.14 105.8 106.89 106.53 106.9C107.13 106.91 107.72 107.08 108.23 107.4C109.98 108.56 112.04 109.19 114.14 109.2C114.95 109.2 115.75 109.1 116.53 108.9C121.04 107.88 124.33 104.01 124.64 99.4C124.84 96.71 123.97 94.05 122.23 92Z" fill="white" style="fill:white;fill-opacity:1;"/>
<path d="M81.4404 69.4L96.8104 89.69L91.6704 91.17L81.4404 69.4Z" fill="#92CBEB" style="fill:#92CBEB;fill:color(display-p3 0.5725 0.7961 0.9216);fill-opacity:1;"/>
<path d="M96.3503 89.34C96.7303 89.36 97.0203 89.67 97.0003 90.05C96.9903 90.3 96.8403 90.52 96.6203 90.63C94.5603 91.53 93.0703 93.37 92.6203 95.57C92.2003 97.89 92.8203 100.89 94.6203 102.57C96.4203 104.25 99.4003 104.57 101.69 103.97C103.98 103.37 106.69 100.97 108.46 99.18C108.76 98.87 109.26 98.86 109.58 99.16C109.71 99.28 109.79 99.44 109.81 99.62C109.91 100.58 109.83 101.55 109.55 102.47C109.41 103.38 114.06 106.88 119.33 104.06C126.84 100.06 120.91 91.55 121.76 91.22C121.88 91.52 122.04 91.8 122.25 92.05C123.99 94.1 124.86 96.76 124.66 99.45C124.35 104.06 121.06 107.93 116.55 108.95C115.77 109.15 114.97 109.25 114.16 109.25C112.06 109.24 110 108.61 108.25 107.45C107.74 107.13 107.15 106.96 106.55 106.95C105.82 106.94 105.11 107.19 104.55 107.65C102.67 109.22 100.3 110.07 97.8603 110.05H97.2503C91.4903 109.69 87.1103 104.73 87.4803 98.97C87.6703 95.89 89.2203 93.06 91.6903 91.22L91.0803 89.91C92.7903 89.4 94.5703 89.21 96.3503 89.34Z" fill="#92CBEB" style="fill:#92CBEB;fill:color(display-p3 0.5725 0.7961 0.9216);fill-opacity:1;"/>
<path d="M123 80.9C123.67 83.51 123.27 86.28 121.9 88.6C121.48 89.39 121.41 90.32 121.71 91.16C120.45 90.22 119.6 88.83 119.32 87.28C119.22 85.59 119.41 83.9 119.9 82.28C120.35 80.91 120.27 79.43 119.67 78.12C118.58 75.51 115.32 73.99 115.04 73.88C114.36 73.6 114.22 73.29 114.25 73.08C118.51 73.61 122 76.73 123 80.9Z" fill="#92CBEB" style="fill:#92CBEB;fill:color(display-p3 0.5725 0.7961 0.9216);fill-opacity:1;"/>
<defs>
<radialGradient id="paint0_radial_169_13312" cx="0" cy="0" r="1" gradientUnits="userSpaceOnUse" gradientTransform="translate(63.6001 62.8999) scale(56.9597 56.9597)">
<stop offset="0.5" stop-color="#FDE030" style="stop-color:#FDE030;stop-color:color(display-p3 0.9922 0.8784 0.1882);stop-opacity:1;"/>
<stop offset="0.92" stop-color="#F7C02B" style="stop-color:#F7C02B;stop-color:color(display-p3 0.9686 0.7529 0.1686);stop-opacity:1;"/>
<stop offset="1" stop-color="#F4A223" style="stop-color:#F4A223;stop-color:color(display-p3 0.9569 0.6353 0.1373);stop-opacity:1;"/>
</radialGradient>
<radialGradient id="paint1_radial_169_13312" cx="0" cy="0" r="1" gradientUnits="userSpaceOnUse" gradientTransform="translate(38.5991 34.5377) rotate(-43.2082) scale(102.024 101.825)">
<stop offset="0.3533" stop-color="#F9DDBD" style="stop-color:#F9DDBD;stop-color:color(display-p3 0.9765 0.8667 0.7412);stop-opacity:1;"/>
<stop offset="0.8723" stop-color="#FFD29C" style="stop-color:#FFD29C;stop-color:color(display-p3 1.0000 0.8235 0.6118);stop-opacity:1;"/>
</radialGradient>
<radialGradient id="paint2_radial_169_13312" cx="0" cy="0" r="1" gradientUnits="userSpaceOnUse" gradientTransform="translate(38.5991 34.5377) rotate(-43.2082) scale(102.024 101.825)">
<stop offset="0.3533" stop-color="#70534A" style="stop-color:#70534A;stop-color:color(display-p3 0.4392 0.3255 0.2902);stop-opacity:1;"/>
<stop offset="0.8723" stop-color="#5C4037" style="stop-color:#5C4037;stop-color:color(display-p3 0.3608 0.2510 0.2157);stop-opacity:1;"/>
</radialGradient>
<radialGradient id="paint3_radial_169_13312" cx="0" cy="0" r="1" gradientUnits="userSpaceOnUse" gradientTransform="translate(38.5991 34.5377) rotate(-43.2082) scale(102.024 101.825)">
<stop offset="0.3533" stop-color="#A37A58" style="stop-color:#A37A58;stop-color:color(display-p3 0.6375 0.4772 0.3453);stop-opacity:1;"/>
<stop offset="0.8723" stop-color="#8D5738" style="stop-color:#8D5738;stop-color:color(display-p3 0.5529 0.3412 0.2196);stop-opacity:1;"/>
</radialGradient>
<radialGradient id="paint4_radial_169_13312" cx="0" cy="0" r="1" gradientUnits="userSpaceOnUse" gradientTransform="translate(38.5991 34.5377) rotate(-43.2082) scale(102.024 101.825)">
<stop offset="0.3533" stop-color="#AD8264" style="stop-color:#AD8264;stop-color:color(display-p3 0.6784 0.5098 0.3922);stop-opacity:1;"/>
<stop offset="0.8723" stop-color="#A47B62" style="stop-color:#A47B62;stop-color:color(display-p3 0.6431 0.4824 0.3843);stop-opacity:1;"/>
</radialGradient>
</defs>
</svg>
