<svg width="128" height="128" viewBox="0 0 128 128" fill="none" xmlns="http://www.w3.org/2000/svg">
<path d="M91.0102 19.05C86.1802 19.05 81.3302 20.5701 77.5002 23.5201C75.1502 25.33 65.3602 36.7401 62.4002 40.2001C58.4102 44.85 53.6402 49.89 47.5102 49.96H47.3702C39.4502 49.96 32.9102 41.8401 25.3102 41.8301C24.6702 41.8301 24.0302 41.89 23.3702 42.01C15.5102 43.51 8.2402 56.2901 3.9502 65.5V66.7201V67.92V124H123.95V49.39V48.5V47.53C117.31 37.43 103.51 19.05 91.0102 19.05Z" fill="url(#paint0_linear_1015_778)" style=""/>
<path d="M80.2902 80.9901L78.6602 78.6501C77.5602 77.0601 74.6802 76.3701 74.6802 76.3701L68.8302 80.4301L64.7702 85.8301C63.8402 87.2201 63.8502 89.0301 64.8002 90.4001L65.5302 91.4601C65.7302 91.7501 66.0502 91.9001 66.3702 91.9001C66.5702 91.9001 66.7702 91.8401 66.9502 91.7201L80.0002 82.6201C80.5302 82.2501 80.6502 81.5201 80.2902 80.9901Z" fill="#4568AD" style="fill:#4568AD;fill:color(display-p3 0.2706 0.4078 0.6784);fill-opacity:1;"/>
<path d="M51.6902 10.36C48.4502 6.99002 42.3602 5.12002 37.9902 6.80002C33.1002 8.68002 31.1402 12.87 31.3902 17.61C31.4802 19.33 31.8802 20.98 32.4202 22.1C32.4802 22.23 32.9802 23.2 33.0702 23.52C33.5202 24.72 31.3702 26.45 31.3702 27.88C31.3702 28.95 33.6802 29.16 33.8802 29.31C34.9202 30.06 34.5102 34.7 40.5402 33.93C42.5702 33.67 42.6702 33.46 43.4002 33.42C45.3002 33.3 50.6602 35.05 50.6602 35.05L52.7802 30.61C52.7802 30.61 51.0402 29.81 52.7402 24.44C54.0402 20.32 53.7602 12.52 51.6902 10.36Z" fill="#FFCA28" style="fill:#FFCA28;fill:color(display-p3 1.0000 0.7922 0.1569);fill-opacity:1;"/>
<path d="M35.01 31.6401C35.84 31.5201 36.62 31.1601 37.2 30.5001C37.84 29.7801 37.19 29.2701 36.4 29.8101C35.92 30.1401 35.2 30.4101 34.5 30.4201L35.01 31.6401Z" fill="#795548" style="fill:#795548;fill:color(display-p3 0.4745 0.3333 0.2824);fill-opacity:1;"/>
<path d="M37.2872 25.0813C37.8821 24.9335 38.182 24.0793 37.957 23.1735C37.732 22.2677 37.0672 21.6532 36.4723 21.801C35.8773 21.9488 35.5774 22.8029 35.8025 23.7087C36.0275 24.6146 36.6922 25.2291 37.2872 25.0813Z" fill="#404040" style="fill:#404040;fill:color(display-p3 0.2510 0.2510 0.2510);fill-opacity:1;"/>
<path d="M35.65 21.3499C34.72 21.9899 34.26 21.3999 34.42 20.7399C34.54 20.2599 35.05 19.7199 36.33 19.5499C37.53 19.3999 38.22 19.8899 38.65 20.1799C39.09 20.4699 39.18 20.8799 38.93 20.9999C38.6 21.1699 36.81 20.5599 35.65 21.3499Z" fill="#6D4C41" style="fill:#6D4C41;fill:color(display-p3 0.4275 0.2980 0.2549);fill-opacity:1;"/>
<path d="M53.1301 12.17C52.7001 11.59 52.2301 11.05 51.6901 10.57C50.9301 9.88998 50.0501 9.35999 49.1301 8.92999C46.6901 7.79999 43.8901 7.42998 41.2501 7.96998C38.6101 8.50998 36.1701 9.98998 34.5201 12.12C33.2501 13.77 32.4701 16.03 33.2701 17.95C34.2601 17.66 34.9901 16.8 36.0701 16.58C37.4701 16.28 39.0001 16.26 40.1901 15.47C40.6501 15.17 41.0401 14.76 41.4701 14.42C41.5801 14.39 41.6501 14.38 41.6501 14.38C43.5601 14.93 42.1501 19.41 44.5601 21.36C45.0401 21.75 45.6001 22.07 45.6001 22.07C45.6001 22.07 45.1901 18.91 47.2101 18.88C49.3101 18.85 49.4801 21 48.8801 22.83C48.2601 24.73 47.1901 24.06 47.5701 24.69C48.1901 25.72 51.3801 26.02 52.3801 25.81C53.7201 25.54 54.5801 24.08 55.3801 22.97C56.3101 21.69 56.2301 20.17 56.0901 18.59C55.9301 16.85 55.1001 15.24 54.1801 13.75C53.8501 13.2 53.5101 12.67 53.1301 12.17Z" fill="#543930" style="fill:#543930;fill:color(display-p3 0.3294 0.2235 0.1882);fill-opacity:1;"/>
<path d="M48.5798 25.36L49.3398 24.58C49.2498 24.55 49.1498 24.53 49.0698 24.5C49.3398 24.2 49.6098 23.76 49.8198 23.11C50.0798 22.32 50.5698 20.34 49.5698 18.96C49.2098 18.47 48.5198 17.87 47.2698 17.87H47.1998C46.4798 17.88 45.8498 18.16 45.3998 18.69C45.0498 19.09 44.8498 19.59 44.7298 20.09C44.2898 19.46 44.0998 18.62 43.9698 17.75L43.0498 18.17C43.2498 19.35 43.5998 20.55 44.5598 21.33C45.0398 21.72 45.5998 22.04 45.5998 22.04C45.5998 22.04 45.1898 18.88 47.2098 18.85H47.2598C49.3098 18.85 49.4798 20.98 48.8898 22.8C48.2698 24.7 47.1998 24.03 47.5798 24.66C47.7398 24.96 48.1198 25.18 48.5798 25.36Z" fill="#543930" style="fill:#543930;fill:color(display-p3 0.3294 0.2235 0.1882);fill-opacity:1;"/>
<path d="M83.57 49.63L77.36 37.96L53.31 51.87V51.88C50.57 53.33 49.54 56.73 50.99 59.47C51.14 59.76 51.32 60.02 51.52 60.27L51.56 60.32C51.61 60.38 51.66 60.44 51.71 60.51L68.57 80.78L75.65 75.57L64.27 59.02L83.57 49.63Z" fill="#EDA600" style="fill:#EDA600;fill:color(display-p3 0.9294 0.6510 0.0000);fill-opacity:1;"/>
<path d="M87.5102 40.0301C86.1102 37.3901 83.3802 35.8701 80.5702 35.8701C79.3202 35.8701 78.0602 36.1701 76.8802 36.7901V36.7801L59.9102 46.6401L66.9502 59.8801L84.2602 50.6701C88.1102 48.6301 89.5602 43.8701 87.5102 40.0301Z" fill="#646464" style="fill:#646464;fill:color(display-p3 0.3922 0.3922 0.3922);fill-opacity:1;"/>
<path d="M71.3099 69.27L63.6699 74.89L68.5699 80.78L75.6399 75.57L71.3099 69.27Z" fill="#E0E0E0" style="fill:#E0E0E0;fill:color(display-p3 0.8784 0.8784 0.8784);fill-opacity:1;"/>
<path d="M97.5299 76.4199C84.6599 76.4199 74.1899 86.8899 74.1899 99.7499C74.1899 112.62 84.6599 123.08 97.5299 123.08C110.39 123.08 120.86 112.61 120.86 99.7499C120.86 86.8799 110.39 76.4199 97.5299 76.4199ZM97.5299 114.75C89.2699 114.75 82.5199 108.02 82.5199 99.7499C82.5199 91.4799 89.2599 84.7499 97.5299 84.7499C105.8 84.7499 112.53 91.4799 112.53 99.7499C112.53 108.02 105.79 114.75 97.5299 114.75Z" fill="#484D50" style="fill:#484D50;fill:color(display-p3 0.2824 0.3020 0.3137);fill-opacity:1;"/>
<path d="M30.4899 76.4199C17.6199 76.4199 7.1499 86.8899 7.1499 99.7499C7.1499 112.62 17.6199 123.08 30.4899 123.08C43.3499 123.08 53.8199 112.61 53.8199 99.7499C53.8099 86.8799 43.3499 76.4199 30.4899 76.4199ZM30.4899 114.75C22.2299 114.75 15.4799 108.02 15.4799 99.7499C15.4799 91.4799 22.2199 84.7499 30.4899 84.7499C38.7599 84.7499 45.4899 91.4799 45.4899 99.7499C45.4899 108.02 38.7599 114.75 30.4899 114.75Z" fill="#484D50" style="fill:#484D50;fill:color(display-p3 0.2824 0.3020 0.3137);fill-opacity:1;"/>
<path d="M99.9201 98.0799C99.8301 97.8399 99.7101 97.6199 99.5501 97.4099L90.3801 85.0699L80.2001 71.3299L83.9401 63.1999C84.0201 63.0299 84.0801 62.8499 84.1201 62.6699C84.1601 62.4899 84.1901 62.3099 84.1901 62.1299C84.2001 61.9499 84.1801 61.7699 84.1501 61.5999C84.0901 61.2499 83.9701 60.9199 83.7801 60.6199C83.5001 60.1699 83.1001 59.7899 82.5801 59.5599C82.4001 59.4799 82.2201 59.4199 82.0301 59.3799C81.9601 59.3699 81.9001 59.3599 81.8301 59.3499C81.7101 59.3299 81.5901 59.3099 81.4701 59.3099C81.4601 59.3099 81.4501 59.3099 81.4301 59.3099C81.4001 59.3099 81.3701 59.3199 81.3501 59.3199C81.1501 59.3299 80.9501 59.3499 80.7601 59.3999C80.7101 59.4099 80.6601 59.4199 80.6101 59.4399C80.3901 59.5099 80.1801 59.5999 79.9801 59.7199C79.9701 59.7299 79.9501 59.7399 79.9401 59.7499C79.7601 59.8699 79.6001 60.0099 79.4501 60.1599C79.4101 60.1999 79.3701 60.2499 79.3301 60.2899C79.1801 60.4699 79.0401 60.6699 78.9401 60.8899L78.9201 60.9299L75.3101 68.7799L43.3401 64.1599L44.4101 60.1099C44.8001 58.6499 43.9201 57.1499 42.4501 56.7599C42.4401 56.7599 42.4201 56.7599 42.4101 56.7499C42.1901 56.6899 41.9701 56.6599 41.7501 56.6599C40.5401 56.6599 39.4301 57.4699 39.1001 58.6999L36.8401 67.2499L28.3401 99.4199C27.9601 100.88 28.8301 102.38 30.2901 102.77C30.5301 102.83 30.7601 102.86 31.0001 102.86C31.0001 102.86 31.0001 102.86 31.0101 102.86C32.2201 102.86 33.3301 102.05 33.6601 100.82L41.2801 71.9599L62.2201 100.65C62.2701 100.72 62.3401 100.78 62.4001 100.84C62.4601 100.9 62.5101 100.96 62.5701 101.02C62.6301 101.08 62.6901 101.13 62.7601 101.18L62.7801 101.2C62.7901 101.21 62.8101 101.22 62.8201 101.23C62.8801 101.28 62.9401 101.32 63.0101 101.36C63.0401 101.38 63.0601 101.4 63.0901 101.41C63.1201 101.42 63.1501 101.44 63.1801 101.46C63.1901 101.46 63.2001 101.47 63.2101 101.48C63.2301 101.49 63.2501 101.5 63.2701 101.51C63.3001 101.52 63.3201 101.53 63.3501 101.54C63.3801 101.55 63.4201 101.57 63.4501 101.58C63.5201 101.61 63.6001 101.64 63.6701 101.66C63.7201 101.68 63.7701 101.7 63.8301 101.71C64.0201 101.75 64.2301 101.78 64.4301 101.78H97.3501C98.3901 101.78 99.3401 101.2 99.8001 100.27C100.16 99.5999 100.19 98.7899 99.9201 98.0799ZM46.8001 70.2199L63.2701 72.5999L72.9301 73.9999L63.9001 93.6499L46.8001 70.2199ZM68.7201 96.2999L77.5801 77.0299L91.9001 96.2999H68.7201Z" fill="url(#paint1_linear_1015_778)" style=""/>
<path d="M71.0498 99.4899C70.5798 98.4699 69.7198 97.7499 68.7998 97.5999C67.6198 97.3999 62.7398 98.9899 62.0198 99.3199C60.2698 100.1 58.1398 102.32 59.1098 104.63C59.7198 106.05 60.5898 106.48 61.5198 106.48C62.2998 106.48 63.1098 106.18 63.8498 105.91L64.4098 105.71C64.7798 105.58 65.2098 105.45 65.6598 105.32C67.6198 104.74 70.0598 104.01 71.0598 102.33C71.5098 101.55 71.5098 100.49 71.0498 99.4899Z" fill="#504F4F" style="fill:#504F4F;fill:color(display-p3 0.3137 0.3098 0.3098);fill-opacity:1;"/>
<path d="M43.1701 56.2599L34.6301 54.2099C34.4201 54.1499 34.2001 54.1299 33.9901 54.1299C32.7501 54.1299 31.6201 54.9699 31.3201 56.2299C30.9701 57.7099 31.8701 59.1899 33.3501 59.5399L41.8901 61.5899C42.1001 61.6399 42.3101 61.6699 42.5301 61.6699C43.7701 61.6699 44.8901 60.8299 45.2001 59.5699C45.5401 58.0999 44.6301 56.6199 43.1701 56.2599Z" fill="#405966" style="fill:#405966;fill:color(display-p3 0.2510 0.3490 0.4000);fill-opacity:1;"/>
<path d="M88.4397 56.7798C88.3097 56.6798 88.1697 56.5798 88.0297 56.4998C86.8797 55.8498 85.5897 55.9998 84.2697 55.9398C82.6697 55.8598 81.0497 55.7898 79.4497 55.6898C78.5697 55.6298 77.6897 55.6198 76.8097 55.6198C75.7797 55.6198 74.7397 55.6398 73.7197 55.6398C72.9397 55.6398 72.1697 55.6298 71.3997 55.5898C71.3597 55.5798 71.2997 55.5798 71.2397 55.5798C69.7697 55.5798 68.3797 56.6898 67.8697 58.0098C67.1497 59.8798 68.4197 61.0598 70.0097 61.9198C71.9597 62.9798 74.1497 63.4798 76.2797 63.9998C78.5997 64.5598 80.9197 65.2998 83.2997 65.6198C83.5997 65.6598 83.8997 65.6798 84.2097 65.6798C86.2697 65.6798 88.3997 64.7698 89.5697 63.0598C90.9697 61.0198 90.3897 58.2998 88.4397 56.7798Z" fill="#504F4F" style="fill:#504F4F;fill:color(display-p3 0.3137 0.3098 0.3098);fill-opacity:1;"/>
<path d="M116.3 124H11.1199C11.0699 123.66 11.0599 123.41 11.0999 123.27C11.7699 122.88 12.6999 122.06 13.6799 121.19C14.5999 120.37 15.5599 119.53 16.1399 119.21L16.6899 118.9C17.9399 118.2 19.2199 117.48 20.5699 117.48C20.7299 117.48 20.8899 117.49 21.0599 117.51C21.9699 117.63 22.9199 117.97 23.8399 118.29C24.3699 118.48 24.8999 118.66 25.4199 118.81C25.9399 118.96 26.4599 119.11 26.9799 119.27C28.1299 119.62 29.3099 119.97 30.4999 120.22C30.8899 120.3 31.3099 120.34 31.7499 120.34C33.3699 120.34 35.1099 119.81 36.6399 119.34C37.0199 119.22 37.3899 119.11 37.7399 119.01C38.4099 118.82 39.0699 118.62 39.7399 118.42C41.6499 117.84 43.6299 117.25 45.6299 116.97C45.8199 116.94 45.9999 116.93 46.1799 116.93C46.9799 116.93 47.6599 117.18 48.4499 117.48C48.7599 117.6 49.0799 117.72 49.4299 117.83C50.9499 118.32 52.5099 118.69 54.0099 119.04C54.9899 119.27 55.9799 119.5 56.9499 119.77C58.1799 120.1 59.3799 120.26 60.6299 120.26C63.1499 120.26 65.5799 119.56 67.6299 118.87L68.0399 118.73C69.1499 118.36 70.3999 117.94 71.4199 117.75C71.6799 117.7 71.9599 117.68 72.2599 117.68C73.4399 117.68 74.7099 118.06 75.9399 118.43C76.4499 118.58 76.9499 118.73 77.4299 118.85C78.9499 119.22 80.3899 119.48 81.8299 119.63C82.1699 119.67 82.5099 119.72 82.8499 119.78C83.2999 119.86 83.7699 119.94 84.2399 119.97C84.3199 119.97 84.3899 119.98 84.4699 119.98C85.1399 119.98 85.7299 119.78 86.3099 119.6L86.6099 119.5C88.3299 118.95 89.9999 118.18 91.6199 117.44L92.6599 116.96C93.0499 116.78 93.3899 116.7 93.7299 116.7C94.2899 116.7 94.8299 116.93 95.4799 117.23C96.3899 117.65 97.3399 117.98 98.2599 118.29C98.7399 118.46 99.2299 118.62 99.7099 118.8C100.12 118.95 100.53 119.14 100.94 119.34C101.82 119.75 102.74 120.17 103.73 120.3C103.86 120.32 103.99 120.33 104.12 120.33C105.01 120.33 105.79 119.94 106.54 119.55C106.98 119.33 107.4 119.12 107.81 119C108.05 118.93 108.29 118.9 108.54 118.9C109.58 118.9 110.61 119.5 111.57 120.12C112.05 120.42 112.56 120.68 113.04 120.93C113.76 121.3 114.45 121.65 115.03 122.13C115.53 122.54 115.97 123.24 116.3 124Z" fill="#6D4C41" style="fill:#6D4C41;fill:color(display-p3 0.4275 0.2980 0.2549);fill-opacity:1;"/>
<path d="M86.5401 46.68L75.3001 39.72L61.5301 63.86H61.5401C60.7801 65.09 60.5601 66.49 60.8001 67.81L63.5701 93.65L70.3601 93.56L71.8401 68.66L86.5401 46.68Z" fill="url(#paint2_linear_1015_778)" style=""/>
<path d="M62.6001 85.9999L63.5801 93.6399L70.3601 93.5499L70.9601 85.9099L62.6001 85.9999Z" fill="#E0E0E0" style="fill:#E0E0E0;fill:color(display-p3 0.8784 0.8784 0.8784);fill-opacity:1;"/>
<path d="M85.1402 36.39C83.8502 35.6 82.4202 35.22 81.0102 35.22C78.3802 35.22 75.8002 36.54 74.3102 38.95L64.1802 56.36L76.9302 64.25C76.9302 64.25 86.4902 49.45 87.6902 47.22C89.6102 43.62 88.8302 38.68 85.1402 36.39Z" fill="#7C7C7C" style="fill:#7C7C7C;fill:color(display-p3 0.4863 0.4863 0.4863);fill-opacity:1;"/>
<path d="M74.1099 97.53L73.3399 94.78C72.8299 92.9 70.3399 91.29 70.3399 91.29L63.4799 93.19L57.8699 96.94C56.5399 97.94 55.9499 99.65 56.3799 101.27L56.7199 102.52C56.8399 102.97 57.2599 103.27 57.6999 103.27C57.7899 103.27 57.8799 103.26 57.9699 103.23L73.2999 98.97C73.9299 98.8 74.2899 98.15 74.1099 97.53Z" fill="#4568AD" style="fill:#4568AD;fill:color(display-p3 0.2706 0.4078 0.6784);fill-opacity:1;"/>
<path d="M61.0998 23.5499C59.9198 23.2999 58.7398 23.1499 57.6298 23.1499C55.1098 23.1499 52.9998 23.9299 52.0998 25.9699C51.3698 27.5899 50.6098 29.2399 49.8198 30.8899C48.4098 33.8799 49.5598 38.4699 53.0598 39.5699C62.1498 42.4599 61.8998 45.1599 67.1798 47.6099C68.7098 48.3199 70.1598 48.6299 71.5198 48.6299C78.1798 48.6299 82.8898 41.2299 85.6698 36.5099C79.5698 30.2799 71.4298 25.8199 61.0998 23.5499Z" fill="url(#paint3_radial_1015_778)" style=""/>
<path d="M57.4602 31.32L49.6802 29.02L45.0502 46.24L36.7302 53.25C35.2902 52.76 33.3902 52.5 32.0402 52.5C32.0402 52.5 32.0402 52.5 32.0302 52.5C32.0202 52.5 32.0202 52.5 32.0102 52.5C31.8702 52.5 31.7402 52.5 31.6202 52.51C31.5602 52.51 31.5102 52.52 31.4602 52.52C31.3902 52.53 31.3202 52.53 31.2602 52.54C31.1902 52.55 31.1102 52.56 31.0502 52.57C31.0302 52.57 31.0102 52.58 30.9802 52.58C30.8002 52.61 30.6402 52.66 30.5402 52.72C30.1702 52.94 29.6002 53.44 29.0602 53.93C28.2302 54.7 27.8002 55.81 27.8902 56.94L27.9502 57.76C27.8802 58.01 28.2602 58.59 28.8302 58.93C28.8602 58.95 28.9002 58.97 28.9302 58.99C28.9602 59.01 29.0002 59.02 29.0402 59.04C29.4802 59.25 30.0102 59.3 30.5302 58.94C31.2102 58.49 30.4802 57.24 30.8002 56.71C31.1702 56.08 31.8102 55.44 31.8102 55.44C31.8102 55.44 33.7902 55.29 34.2202 55.6C35.0002 56.24 35.2202 56.8 34.7902 58C34.4802 58.86 33.7702 59.75 34.1302 60.04C34.2602 60.15 34.3902 60.24 34.5102 60.32C34.5202 60.33 34.5302 60.33 34.5402 60.34C34.6302 60.4 34.7202 60.46 34.8102 60.5C34.8602 60.53 34.9202 60.54 34.9702 60.57C35.0102 60.59 35.0502 60.6 35.1002 60.61C35.1802 60.63 35.2602 60.64 35.3402 60.64C35.3502 60.64 35.3602 60.64 35.3702 60.64H35.3802C35.8402 60.65 36.3402 60.36 37.0702 59.63C38.1002 58.59 39.0802 58.94 39.8702 58.15L49.7702 51.5L49.8902 51.42C50.0802 51.32 50.2702 51.2 50.4402 51.07L50.4802 51.05C51.0502 50.6 51.4702 49.98 51.6802 49.27H51.6902L57.5102 31.32H57.4602Z" fill="url(#paint4_linear_1015_778)" style=""/>
<path d="M32.9401 53.72C31.3701 53.72 30.1001 54.99 30.1001 56.56C30.1001 58.13 31.3701 59.4 32.9401 59.4C34.5101 59.4 35.7801 58.13 35.7801 56.56C35.7801 54.99 34.5101 53.72 32.9401 53.72Z" fill="url(#paint5_radial_1015_778)" style=""/>
<path d="M55.1202 26.24C54.6102 26.09 54.1002 26.02 53.6002 26.02C51.3002 26.02 49.1802 27.52 48.5002 29.83L45.9502 39.32L55.6802 42.2L58.7102 32.85C59.5302 30.03 57.9402 27.07 55.1202 26.24Z" fill="#ED6D23" style="fill:#ED6D23;fill:color(display-p3 0.9294 0.4275 0.1373);fill-opacity:1;"/>
<path d="M62.9002 18.1499C62.8702 18.0099 62.7802 17.8999 62.6502 17.8499C62.5902 17.8299 62.5402 17.8099 62.4702 17.8099C62.4002 17.8099 62.3202 17.8299 62.2502 17.8699C61.7902 18.1299 61.4102 18.2099 61.1302 18.2099C61.0102 18.2099 60.9002 18.1899 60.8102 18.1699C61.4902 17.2399 61.4802 15.6699 60.7102 14.4699C60.6702 14.3499 60.5402 14.2799 60.3902 14.2799C60.3602 14.2799 60.3402 14.2799 60.3102 14.2899C60.1402 14.3199 60.0002 14.4599 59.9602 14.6299C59.9602 14.6299 59.1902 15.3699 58.2302 15.3699C57.9702 15.3699 57.6902 15.3099 57.4002 15.1699C55.8902 13.7199 52.0602 8.67991 50.5802 8.62991C49.9202 8.60991 51.0402 18.1899 51.1302 18.9999C51.3202 20.7999 51.2302 22.9499 51.3402 24.8299C51.2302 24.7999 51.1402 24.7799 51.1002 24.7699L50.6802 25.7899C50.8302 25.8399 51.6202 26.1899 52.7502 26.1899C53.4302 26.1899 54.2302 26.0599 55.0902 25.6699C55.9402 25.2899 56.3202 24.5899 56.5102 24.1299C56.8602 24.2499 57.3602 24.3699 57.8902 24.3699C58.2702 24.3699 58.6602 24.3099 59.0202 24.1299C60.0402 23.6299 60.3602 22.7699 60.4502 22.2999C61.6702 21.8999 63.4402 20.6399 62.9002 18.1499Z" fill="#543930" style="fill:#543930;fill:color(display-p3 0.3294 0.2235 0.1882);fill-opacity:1;"/>
<path d="M62.9002 18.1499C62.8702 18.0099 62.7802 17.8999 62.6502 17.8499C62.5902 17.8299 62.5402 17.8099 62.4702 17.8099C62.4002 17.8099 62.3202 17.8299 62.2502 17.8699C61.7902 18.1299 61.4102 18.2099 61.1302 18.2099C61.0102 18.2099 60.9002 18.1899 60.8102 18.1699C61.4902 17.2399 61.4802 15.6699 60.7102 14.4699C60.6702 14.3499 60.5402 14.2799 60.3902 14.2799C60.3602 14.2799 60.3402 14.2799 60.3102 14.2899C60.1402 14.3199 60.0002 14.4599 59.9602 14.6299C59.9602 14.6299 59.1902 15.3699 58.2302 15.3699C57.9702 15.3699 57.6902 15.3099 57.4002 15.1699C55.8902 13.7199 52.0602 8.67991 50.5802 8.62991C49.9202 8.60991 51.0402 18.1899 51.1302 18.9999C51.3202 20.7999 51.2302 22.9499 51.3402 24.8299C51.2302 24.7999 51.1402 24.7799 51.1002 24.7699L50.6802 25.7899C50.8302 25.8399 51.6202 26.1899 52.7502 26.1899C53.4302 26.1899 54.2302 26.0599 55.0902 25.6699C55.9402 25.2899 56.3202 24.5899 56.5102 24.1299C56.8602 24.2499 57.3602 24.3699 57.8902 24.3699C58.2702 24.3699 58.6602 24.3099 59.0202 24.1299C60.0402 23.6299 60.3602 22.7699 60.4502 22.2999C61.6702 21.8999 63.4402 20.6399 62.9002 18.1499Z" fill="url(#paint6_radial_1015_778)" style=""/>
<path d="M45.9404 27.8101C46.0504 29.4701 43.1404 33.2301 43.0604 33.4601C42.9004 33.8401 44.4904 33.9001 44.8404 33.5401C45.1904 33.1801 48.4104 30.0101 50.4804 26.0501C51.4104 24.2701 53.5104 19.5401 53.5104 19.5401L50.5804 18.1101C50.5804 18.1101 49.7204 26.3301 47.6504 26.3001C45.5704 26.2701 45.6104 18.3101 45.6104 18.3101L40.9404 20.2501C40.9304 20.2501 45.8804 26.7801 45.9404 27.8101Z" fill="url(#paint7_linear_1015_778)" style=""/>
<path d="M53.6502 7.64C51.0402 5.2 47.5602 4 44.0602 4C42.4202 4 40.7602 4.26 39.1902 4.79C37.7502 5.27 33.2202 7.5 31.2802 11.36C30.4702 12.98 29.8302 14.75 29.6702 16.55C29.5802 17.53 29.5702 19.28 30.3602 20.14C30.7102 20.52 31.1302 20.64 31.5302 20.64C31.7402 20.64 31.9502 20.61 32.1502 20.57C33.2002 20.34 35.8502 19.22 36.6402 19.14C36.7502 19.13 36.8502 19.13 36.9602 19.13C38.6202 19.13 39.8502 20.32 40.1802 20.56C40.8502 21.04 41.5202 21.42 42.3002 21.42C42.9702 21.42 43.7302 21.15 44.6602 20.43C45.8702 19.5 46.1402 18.78 47.2202 18.59C47.3402 18.57 47.4802 18.55 47.6202 18.55C48.3502 18.55 49.3502 18.93 50.5202 20.75C51.5102 22.29 52.6602 22.94 53.6402 22.94C54.2102 22.94 54.7202 22.73 55.1102 22.35C56.6002 20.93 59.5102 13.08 53.6502 7.64Z" fill="url(#paint8_radial_1015_778)" style=""/>
<defs>
<linearGradient id="paint0_linear_1015_778" x1="63.9542" y1="19.8906" x2="63.9542" y2="122.298" gradientUnits="userSpaceOnUse">
<stop offset="0.2149" stop-color="#BCAAA4" style="stop-color:#BCAAA4;stop-color:color(display-p3 0.7373 0.6667 0.6431);stop-opacity:1;"/>
<stop offset="1" stop-color="#8D6E63" style="stop-color:#8D6E63;stop-color:color(display-p3 0.5529 0.4314 0.3882);stop-opacity:1;"/>
</linearGradient>
<linearGradient id="paint1_linear_1015_778" x1="34.6863" y1="79.7784" x2="99.0965" y2="79.7784" gradientUnits="userSpaceOnUse">
<stop stop-color="#D8EB21" style="stop-color:#D8EB21;stop-color:color(display-p3 0.8471 0.9216 0.1294);stop-opacity:1;"/>
<stop offset="0.4414" stop-color="#D6E921" style="stop-color:#D6E921;stop-color:color(display-p3 0.8392 0.9137 0.1294);stop-opacity:1;"/>
<stop offset="0.6058" stop-color="#B8C721" style="stop-color:#B8C721;stop-color:color(display-p3 0.7216 0.7804 0.1294);stop-opacity:1;"/>
<stop offset="0.8038" stop-color="#ADBA21" style="stop-color:#ADBA21;stop-color:color(display-p3 0.6784 0.7294 0.1294);stop-opacity:1;"/>
</linearGradient>
<linearGradient id="paint2_linear_1015_778" x1="102.033" y1="3.23027" x2="36.2046" y2="140.884" gradientUnits="userSpaceOnUse">
<stop offset="0.1952" stop-color="#FFB300" style="stop-color:#FFB300;stop-color:color(display-p3 1.0000 0.7020 0.0000);stop-opacity:1;"/>
<stop offset="0.6908" stop-color="#FFCA28" style="stop-color:#FFCA28;stop-color:color(display-p3 1.0000 0.7922 0.1569);stop-opacity:1;"/>
</linearGradient>
<radialGradient id="paint3_radial_1015_778" cx="0" cy="0" r="1" gradientUnits="userSpaceOnUse" gradientTransform="translate(67.4564 35.8899) scale(15.7197)">
<stop offset="0.3666" stop-color="#F78C1F" style="stop-color:#F78C1F;stop-color:color(display-p3 0.9686 0.5490 0.1216);stop-opacity:1;"/>
<stop offset="0.6798" stop-color="#F37F21" style="stop-color:#F37F21;stop-color:color(display-p3 0.9529 0.4980 0.1294);stop-opacity:1;"/>
<stop offset="1" stop-color="#ED6D23" style="stop-color:#ED6D23;stop-color:color(display-p3 0.9294 0.4275 0.1373);stop-opacity:1;"/>
</radialGradient>
<linearGradient id="paint4_linear_1015_778" x1="27.896" y1="44.8345" x2="57.4882" y2="44.8345" gradientUnits="userSpaceOnUse">
<stop offset="0.5" stop-color="#FFCA28" style="stop-color:#FFCA28;stop-color:color(display-p3 1.0000 0.7922 0.1569);stop-opacity:1;"/>
<stop offset="1" stop-color="#FFB300" style="stop-color:#FFB300;stop-color:color(display-p3 1.0000 0.7020 0.0000);stop-opacity:1;"/>
</linearGradient>
<radialGradient id="paint5_radial_1015_778" cx="0" cy="0" r="1" gradientUnits="userSpaceOnUse" gradientTransform="translate(32.9451 56.56) scale(2.84)">
<stop stop-color="#78909C" style="stop-color:#78909C;stop-color:color(display-p3 0.4706 0.5647 0.6118);stop-opacity:1;"/>
<stop offset="0.5619" stop-color="#617A86" style="stop-color:#617A86;stop-color:color(display-p3 0.3804 0.4784 0.5255);stop-opacity:1;"/>
<stop offset="1" stop-color="#546E7A" style="stop-color:#546E7A;stop-color:color(display-p3 0.3294 0.4314 0.4784);stop-opacity:1;"/>
</radialGradient>
<radialGradient id="paint6_radial_1015_778" cx="0" cy="0" r="1" gradientUnits="userSpaceOnUse" gradientTransform="translate(43.5919 20.1414) scale(17.1874 17.1874)">
<stop offset="0.7836" stop-color="#6D4C41" stop-opacity="0" style="stop-color:none;stop-opacity:0;"/>
<stop offset="1" stop-color="#6D4C41" style="stop-color:#6D4C41;stop-color:color(display-p3 0.4275 0.2980 0.2549);stop-opacity:1;"/>
</radialGradient>
<linearGradient id="paint7_linear_1015_778" x1="46.9743" y1="22.72" x2="46.2931" y2="30.5382" gradientUnits="userSpaceOnUse">
<stop stop-color="#646464" style="stop-color:#646464;stop-color:color(display-p3 0.3922 0.3922 0.3922);stop-opacity:1;"/>
<stop offset="0.9947" stop-color="#262626" style="stop-color:#262626;stop-color:color(display-p3 0.1490 0.1490 0.1490);stop-opacity:1;"/>
</linearGradient>
<radialGradient id="paint8_radial_1015_778" cx="0" cy="0" r="1" gradientUnits="userSpaceOnUse" gradientTransform="translate(38.9493 12.0968) scale(11.8136)">
<stop stop-color="#81D4FA" style="stop-color:#81D4FA;stop-color:color(display-p3 0.5059 0.8314 0.9804);stop-opacity:1;"/>
<stop offset="0.3601" stop-color="#5EB3E7" style="stop-color:#5EB3E7;stop-color:color(display-p3 0.3686 0.7020 0.9059);stop-opacity:1;"/>
<stop offset="0.7751" stop-color="#3C92D3" style="stop-color:#3C92D3;stop-color:color(display-p3 0.2353 0.5725 0.8275);stop-opacity:1;"/>
<stop offset="1" stop-color="#2F85CC" style="stop-color:#2F85CC;stop-color:color(display-p3 0.1843 0.5216 0.8000);stop-opacity:1;"/>
</radialGradient>
</defs>
</svg>
