<svg width="128" height="128" viewBox="0 0 128 128" fill="none" xmlns="http://www.w3.org/2000/svg">
<path d="M63.6001 118.8C35.7001 118.8 5.6001 101.3 5.6001 62.9C5.6001 24.5 35.7001 7 63.6001 7C79.1001 7 93.4001 12.1 104 21.4C115.5 31.6 121.6 46 121.6 62.9C121.6 79.8 115.5 94.1 104 104.3C93.4001 113.6 79.0001 118.8 63.6001 118.8Z" fill="url(#paint0_radial_169_9059)" style=""/>
<path d="M63.6001 118.8C35.7001 118.8 5.6001 101.3 5.6001 62.9C5.6001 24.5 35.7001 7 63.6001 7C79.1001 7 93.4001 12.1 104 21.4C115.5 31.6 121.6 46 121.6 62.9C121.6 79.8 115.5 94.1 104 104.3C93.4001 113.6 79.0001 118.8 63.6001 118.8Z" fill="url(#paint1_radial_169_9059)" style=""/>
<path d="M63.6001 118.8C35.7001 118.8 5.6001 101.3 5.6001 62.9C5.6001 24.5 35.7001 7 63.6001 7C79.1001 7 93.4001 12.1 104 21.4C115.5 31.6 121.6 46 121.6 62.9C121.6 79.8 115.5 94.1 104 104.3C93.4001 113.6 79.0001 118.8 63.6001 118.8Z" fill="url(#paint2_radial_169_9059)" style=""/>
<path d="M111.49 29.67C116.82 38.27 119.6 48.51 119.6 59.9C119.6 76.8 113.5 91.1 102 101.3C91.4002 110.6 77.0002 115.8 61.6002 115.8C43.5402 115.8 24.6002 108.45 13.4202 92.86C24.1802 110.52 44.4202 118.8 63.6002 118.8C79.0002 118.8 93.4002 113.6 104 104.3C115.5 94.1 121.6 79.8 121.6 62.9C121.6 50.16 118.13 38.84 111.49 29.67Z" fill="#EB8F00" style="fill:#EB8F00;fill:color(display-p3 0.9216 0.5608 0.0000);fill-opacity:1;"/>
<path d="M111.49 29.67C116.82 38.27 119.6 48.51 119.6 59.9C119.6 76.8 113.5 91.1 102 101.3C91.4002 110.6 77.0002 115.8 61.6002 115.8C43.5402 115.8 24.6002 108.45 13.4202 92.86C24.1802 110.52 44.4202 118.8 63.6002 118.8C79.0002 118.8 93.4002 113.6 104 104.3C115.5 94.1 121.6 79.8 121.6 62.9C121.6 50.16 118.13 38.84 111.49 29.67Z" fill="#4A2F27" style="fill:#4A2F27;fill:color(display-p3 0.2902 0.1843 0.1529);fill-opacity:1;"/>
<path d="M77.6 92.4C77.6 99.47 71.87 105.2 64.8 105.2C57.73 105.2 52 99.47 52 92.4C52 85.33 57.73 79.6 64.8 79.6C71.85 79.58 77.58 85.27 77.6 92.32C77.6 92.35 77.6 92.37 77.6 92.4Z" fill="#422B0D" style="fill:#422B0D;fill:color(display-p3 0.2588 0.1686 0.0510);fill-opacity:1;"/>
<path d="M77.6 92.4C77.6 99.47 71.87 105.2 64.8 105.2C57.73 105.2 52 99.47 52 92.4C52 85.33 57.73 79.6 64.8 79.6C71.85 79.58 77.58 85.27 77.6 92.32C77.6 92.35 77.6 92.37 77.6 92.4Z" fill="#1A1717" style="fill:#1A1717;fill:color(display-p3 0.1020 0.0902 0.0902);fill-opacity:1;"/>
<path d="M42.6699 46.94C38.4799 46.94 34.6699 50.48 34.6699 56.36C34.6699 62.24 38.4799 65.77 42.6699 65.77C46.8599 65.77 50.6699 62.23 50.6699 56.36C50.6699 50.49 46.8599 46.94 42.6699 46.94Z" fill="#422B0D" style="fill:#422B0D;fill:color(display-p3 0.2588 0.1686 0.0510);fill-opacity:1;"/>
<path d="M42.6699 46.94C38.4799 46.94 34.6699 50.48 34.6699 56.36C34.6699 62.24 38.4799 65.77 42.6699 65.77C46.8599 65.77 50.6699 62.23 50.6699 56.36C50.6699 50.49 46.8599 46.94 42.6699 46.94Z" fill="#1A1717" style="fill:#1A1717;fill:color(display-p3 0.1020 0.0902 0.0902);fill-opacity:1;"/>
<path d="M42.2799 50.87C40.8599 50.19 39.1499 50.79 38.4599 52.21C37.9299 53.32 38.1699 54.65 39.0599 55.51C40.4799 56.19 42.1899 55.59 42.8799 54.17C43.4099 53.06 43.1699 51.73 42.2799 50.87Z" fill="#555050" style="fill:#555050;fill:color(display-p3 0.3333 0.3125 0.3125);fill-opacity:1;"/>
<path d="M86 46.94C81.81 46.94 78 50.48 78 56.36C78 62.24 81.81 65.77 86 65.77C90.19 65.77 94 62.23 94 56.36C94 50.49 90.21 46.94 86 46.94Z" fill="#422B0D" style="fill:#422B0D;fill:color(display-p3 0.2588 0.1686 0.0510);fill-opacity:1;"/>
<path d="M86 46.94C81.81 46.94 78 50.48 78 56.36C78 62.24 81.81 65.77 86 65.77C90.19 65.77 94 62.23 94 56.36C94 50.49 90.21 46.94 86 46.94Z" fill="#1A1717" style="fill:#1A1717;fill:color(display-p3 0.1020 0.0902 0.0902);fill-opacity:1;"/>
<path d="M85.63 50.87C84.21 50.19 82.5 50.79 81.81 52.21C81.28 53.32 81.52 54.65 82.41 55.51C83.83 56.19 85.54 55.59 86.23 54.17C86.76 53.06 86.52 51.73 85.63 50.87Z" fill="#555050" style="fill:#555050;fill:color(display-p3 0.3333 0.3125 0.3125);fill-opacity:1;"/>
<path d="M28.6999 38C27.9999 38.73 26.8299 38.76 26.0999 38.05C25.4399 37.42 25.3499 36.39 25.8799 35.65C27.0099 34.02 28.3999 32.6 29.9999 31.43C34.1899 28.2 39.4399 26.67 44.7099 27.15C47.1999 27.46 46.7099 30.64 44.4999 30.85C38.5599 31.32 32.9699 33.85 28.6999 38Z" fill="#422B0D" style="fill:#422B0D;fill:color(display-p3 0.2588 0.1686 0.0510);fill-opacity:1;"/>
<path d="M28.6999 38C27.9999 38.73 26.8299 38.76 26.0999 38.05C25.4399 37.42 25.3499 36.39 25.8799 35.65C27.0099 34.02 28.3999 32.6 29.9999 31.43C34.1899 28.2 39.4399 26.67 44.7099 27.15C47.1999 27.46 46.7099 30.64 44.4999 30.85C38.5599 31.32 32.9699 33.85 28.6999 38Z" fill="#1A1717" style="fill:#1A1717;fill:color(display-p3 0.1020 0.0902 0.0902);fill-opacity:1;"/>
<path d="M99.7699 38.23C100.47 38.96 101.64 38.99 102.37 38.28C103.03 37.65 103.12 36.62 102.59 35.88C101.48 34.27 100.1 32.86 98.5199 31.71C94.3299 28.48 89.0799 26.95 83.8099 27.44C81.3299 27.75 81.8099 30.92 84.0199 31.13C89.9399 31.6 95.4999 34.11 99.7699 38.23Z" fill="#422B0D" style="fill:#422B0D;fill:color(display-p3 0.2588 0.1686 0.0510);fill-opacity:1;"/>
<path d="M99.7699 38.23C100.47 38.96 101.64 38.99 102.37 38.28C103.03 37.65 103.12 36.62 102.59 35.88C101.48 34.27 100.1 32.86 98.5199 31.71C94.3299 28.48 89.0799 26.95 83.8099 27.44C81.3299 27.75 81.8099 30.92 84.0199 31.13C89.9399 31.6 95.4999 34.11 99.7699 38.23Z" fill="#1A1717" style="fill:#1A1717;fill:color(display-p3 0.1020 0.0902 0.0902);fill-opacity:1;"/>
<defs>
<radialGradient id="paint0_radial_169_9059" cx="0" cy="0" r="1" gradientUnits="userSpaceOnUse" gradientTransform="translate(63.6001 62.9) scale(56.9597 56.9597)">
<stop offset="0.5" stop-color="#FDE030" style="stop-color:#FDE030;stop-color:color(display-p3 0.9922 0.8784 0.1882);stop-opacity:1;"/>
<stop offset="0.92" stop-color="#F7C02B" style="stop-color:#F7C02B;stop-color:color(display-p3 0.9686 0.7529 0.1686);stop-opacity:1;"/>
<stop offset="1" stop-color="#F4A223" style="stop-color:#F4A223;stop-color:color(display-p3 0.9569 0.6353 0.1373);stop-opacity:1;"/>
</radialGradient>
<radialGradient id="paint1_radial_169_9059" cx="0" cy="0" r="1" gradientUnits="userSpaceOnUse" gradientTransform="translate(38.5991 34.5377) rotate(-43.2082) scale(102.024 101.825)">
<stop offset="0.3533" stop-color="#F9DDBD" style="stop-color:#F9DDBD;stop-color:color(display-p3 0.9765 0.8667 0.7412);stop-opacity:1;"/>
<stop offset="0.8723" stop-color="#FFD29C" style="stop-color:#FFD29C;stop-color:color(display-p3 1.0000 0.8235 0.6118);stop-opacity:1;"/>
</radialGradient>
<radialGradient id="paint2_radial_169_9059" cx="0" cy="0" r="1" gradientUnits="userSpaceOnUse" gradientTransform="translate(38.5991 34.5377) rotate(-43.2082) scale(102.024 101.825)">
<stop offset="0.3533" stop-color="#70534A" style="stop-color:#70534A;stop-color:color(display-p3 0.4392 0.3255 0.2902);stop-opacity:1;"/>
<stop offset="0.8723" stop-color="#5C4037" style="stop-color:#5C4037;stop-color:color(display-p3 0.3608 0.2510 0.2157);stop-opacity:1;"/>
</radialGradient>
</defs>
</svg>
