<svg width="128" height="128" viewBox="0 0 128 128" fill="none" xmlns="http://www.w3.org/2000/svg">
<path d="M63.6001 118.8C35.7001 118.8 5.6001 101.3 5.6001 62.9C5.6001 24.5 35.7001 7 63.6001 7C79.1001 7 93.4001 12.1 104 21.4C115.5 31.6 121.6 46 121.6 62.9C121.6 79.8 115.5 94.1 104 104.3C93.4001 113.6 79.0001 118.8 63.6001 118.8Z" fill="url(#paint0_radial_169_8490)" style=""/>
<path d="M63.6001 118.8C35.7001 118.8 5.6001 101.3 5.6001 62.9C5.6001 24.5 35.7001 7 63.6001 7C79.1001 7 93.4001 12.1 104 21.4C115.5 31.6 121.6 46 121.6 62.9C121.6 79.8 115.5 94.1 104 104.3C93.4001 113.6 79.0001 118.8 63.6001 118.8Z" fill="url(#paint1_radial_169_8490)" style=""/>
<path d="M63.6001 118.8C35.7001 118.8 5.6001 101.3 5.6001 62.9C5.6001 24.5 35.7001 7 63.6001 7C79.1001 7 93.4001 12.1 104 21.4C115.5 31.6 121.6 46 121.6 62.9C121.6 79.8 115.5 94.1 104 104.3C93.4001 113.6 79.0001 118.8 63.6001 118.8Z" fill="url(#paint2_radial_169_8490)" style=""/>
<path d="M111.49 29.67C116.82 38.27 119.6 48.51 119.6 59.9C119.6 76.8 113.5 91.1 102 101.3C91.4002 110.6 77.0002 115.8 61.6002 115.8C43.5402 115.8 24.6002 108.45 13.4202 92.86C24.1802 110.52 44.4202 118.8 63.6002 118.8C79.0002 118.8 93.4002 113.6 104 104.3C115.5 94.1 121.6 79.8 121.6 62.9C121.6 50.16 118.13 38.84 111.49 29.67Z" fill="#EB8F00" style="fill:#EB8F00;fill:color(display-p3 0.9216 0.5608 0.0000);fill-opacity:1;"/>
<path d="M111.49 29.67C116.82 38.27 119.6 48.51 119.6 59.9C119.6 76.8 113.5 91.1 102 101.3C91.4002 110.6 77.0002 115.8 61.6002 115.8C43.5402 115.8 24.6002 108.45 13.4202 92.86C24.1802 110.52 44.4202 118.8 63.6002 118.8C79.0002 118.8 93.4002 113.6 104 104.3C115.5 94.1 121.6 79.8 121.6 62.9C121.6 50.16 118.13 38.84 111.49 29.67Z" fill="#4A2F27" style="fill:#4A2F27;fill:color(display-p3 0.2902 0.1843 0.1529);fill-opacity:1;"/>
<path d="M104.75 79.63L93.15 76.63C91.01 76.07 88.83 77.35 88.27 79.49C88.21 79.73 88.17 79.97 88.15 80.21L87.59 87.66L81 83.9C79.08 82.81 76.64 83.47 75.54 85.39C75.45 85.55 75.37 85.72 75.3 85.9L72.64 92.74L67.42 86.61C66.64 85.69 65.49 85.18 64.29 85.2H64.01H63.74C62.54 85.18 61.39 85.69 60.61 86.61L55.39 92.74L52.7 85.92C51.89 83.87 49.56 82.86 47.51 83.68C47.34 83.75 47.17 83.83 47 83.92L40.37 87.68L39.81 80.23C39.65 78.03 37.73 76.37 35.53 76.53C35.29 76.55 35.05 76.59 34.81 76.65L23.21 79.65C21.05 80.12 19.68 82.25 20.15 84.41C20.62 86.5701 22.75 87.94 24.91 87.47C25.01 87.45 25.11 87.42 25.2 87.39L32.2 85.59L32.87 94.59C33.02 96.79 34.93 98.46 37.14 98.3C37.75 98.26 38.34 98.08 38.87 97.77L46.97 93.18L50.38 101.94C50.89 103.25 52.05 104.2 53.44 104.43C53.66 104.47 53.89 104.49 54.11 104.49C55.27 104.48 56.36 103.96 57.11 103.08L64.19 94.8L64.49 95.59L70.86 103C71.61 103.88 72.7 104.4 73.86 104.41C74.08 104.41 74.31 104.39 74.53 104.35C75.92 104.12 77.08 103.17 77.59 101.86L81 93.1L89.1 97.69C91.01 98.8 93.46 98.15 94.57 96.24C94.88 95.71 95.06 95.12 95.1 94.51L95.77 85.51L102.77 87.31C104.89 87.94 107.12 86.74 107.75 84.63C108.38 82.51 107.18 80.28 105.07 79.65C104.97 79.62 104.87 79.6 104.78 79.57L104.75 79.63Z" fill="#422B0D" style="fill:#422B0D;fill:color(display-p3 0.2588 0.1686 0.0510);fill-opacity:1;"/>
<path d="M104.75 79.63L93.15 76.63C91.01 76.07 88.83 77.35 88.27 79.49C88.21 79.73 88.17 79.97 88.15 80.21L87.59 87.66L81 83.9C79.08 82.81 76.64 83.47 75.54 85.39C75.45 85.55 75.37 85.72 75.3 85.9L72.64 92.74L67.42 86.61C66.64 85.69 65.49 85.18 64.29 85.2H64.01H63.74C62.54 85.18 61.39 85.69 60.61 86.61L55.39 92.74L52.7 85.92C51.89 83.87 49.56 82.86 47.51 83.68C47.34 83.75 47.17 83.83 47 83.92L40.37 87.68L39.81 80.23C39.65 78.03 37.73 76.37 35.53 76.53C35.29 76.55 35.05 76.59 34.81 76.65L23.21 79.65C21.05 80.12 19.68 82.25 20.15 84.41C20.62 86.5701 22.75 87.94 24.91 87.47C25.01 87.45 25.11 87.42 25.2 87.39L32.2 85.59L32.87 94.59C33.02 96.79 34.93 98.46 37.14 98.3C37.75 98.26 38.34 98.08 38.87 97.77L46.97 93.18L50.38 101.94C50.89 103.25 52.05 104.2 53.44 104.43C53.66 104.47 53.89 104.49 54.11 104.49C55.27 104.48 56.36 103.96 57.11 103.08L64.19 94.8L64.49 95.59L70.86 103C71.61 103.88 72.7 104.4 73.86 104.41C74.08 104.41 74.31 104.39 74.53 104.35C75.92 104.12 77.08 103.17 77.59 101.86L81 93.1L89.1 97.69C91.01 98.8 93.46 98.15 94.57 96.24C94.88 95.71 95.06 95.12 95.1 94.51L95.77 85.51L102.77 87.31C104.89 87.94 107.12 86.74 107.75 84.63C108.38 82.51 107.18 80.28 105.07 79.65C104.97 79.62 104.87 79.6 104.78 79.57L104.75 79.63Z" fill="#1A1717" style="fill:#1A1717;fill:color(display-p3 0.1020 0.0902 0.0902);fill-opacity:1;"/>
<path d="M33.9998 57.4L46.2098 55L33.6598 49.83L33.2398 49.6C31.1898 48.52 30.4098 45.99 31.4898 43.94C31.7498 43.45 32.0998 43.02 32.5198 42.67C34.5198 41.13 37.2698 41.01 39.3998 42.37L60.6698 55.37C61.1898 55.56 61.4498 56.14 61.2598 56.65C61.1298 57 60.8198 57.25 60.4498 57.3L37.5398 65.9C37.3898 65.96 37.2198 66.01 37.0598 66.06C34.0598 66.9 30.7298 65.17 30.2698 62.28C29.9098 60.11 31.6098 58.07 33.9998 57.4Z" fill="#422B0D" style="fill:#422B0D;fill:color(display-p3 0.2588 0.1686 0.0510);fill-opacity:1;"/>
<path d="M33.9998 57.4L46.2098 55L33.6598 49.83L33.2398 49.6C31.1898 48.52 30.4098 45.99 31.4898 43.94C31.7498 43.45 32.0998 43.02 32.5198 42.67C34.5198 41.13 37.2698 41.01 39.3998 42.37L60.6698 55.37C61.1898 55.56 61.4498 56.14 61.2598 56.65C61.1298 57 60.8198 57.25 60.4498 57.3L37.5398 65.9C37.3898 65.96 37.2198 66.01 37.0598 66.06C34.0598 66.9 30.7298 65.17 30.2698 62.28C29.9098 60.11 31.6098 58.07 33.9998 57.4Z" fill="#1A1717" style="fill:#1A1717;fill:color(display-p3 0.1020 0.0902 0.0902);fill-opacity:1;"/>
<path d="M96.6497 57.15L84.4797 54.79L96.9997 49.58L97.4097 49.35C99.4597 48.27 100.25 45.74 99.1697 43.69C98.9097 43.2 98.5597 42.77 98.1397 42.42C96.1397 40.88 93.3897 40.76 91.2597 42.12L69.9997 55.16C69.4797 55.35 69.2097 55.92 69.3997 56.44C69.5297 56.79 69.8397 57.04 70.2097 57.09L93.1197 65.69L93.6097 65.85C96.6097 66.69 99.9297 64.96 100.4 62.07C100.78 59.86 99.0697 57.82 96.6497 57.15Z" fill="#422B0D" style="fill:#422B0D;fill:color(display-p3 0.2588 0.1686 0.0510);fill-opacity:1;"/>
<path d="M96.6497 57.15L84.4797 54.79L96.9997 49.58L97.4097 49.35C99.4597 48.27 100.25 45.74 99.1697 43.69C98.9097 43.2 98.5597 42.77 98.1397 42.42C96.1397 40.88 93.3897 40.76 91.2597 42.12L69.9997 55.16C69.4797 55.35 69.2097 55.92 69.3997 56.44C69.5297 56.79 69.8397 57.04 70.2097 57.09L93.1197 65.69L93.6097 65.85C96.6097 66.69 99.9297 64.96 100.4 62.07C100.78 59.86 99.0697 57.82 96.6497 57.15Z" fill="#1A1717" style="fill:#1A1717;fill:color(display-p3 0.1020 0.0902 0.0902);fill-opacity:1;"/>
<path d="M57.6699 64.62C40.9999 75.25 20.4299 77.64 6.16986 80.55C4.28986 80.93 3.16986 83.67 4.60986 87.81C7.33986 95.71 12.5399 95.58 11.1399 99.25C6.99986 110.12 15.4399 114.8 22.7299 114.93C32.5899 115.12 31.6399 118.41 35.7299 121.62C39.6399 124.68 44.3899 122.56 44.3899 122.56C62.7199 111.45 69.7899 86.12 69.7799 73.86C69.7699 64.45 62.7299 61.39 57.6699 64.62Z" fill="#F5F5F5" style="fill:#F5F5F5;fill:color(display-p3 0.9608 0.9608 0.9608);fill-opacity:1;"/>
<path d="M6.16993 80.55C5.46993 80.78 4.90993 81.31 4.64993 82C4.38993 82.63 4.26993 83.32 4.29993 84C4.34993 85.4 4.68993 86.78 5.29993 88.05C5.84993 89.34 6.56993 90.56 7.42993 91.67C8.33993 92.76 9.33993 93.76 10.4299 94.67C11.0999 95.21 11.6699 95.85 12.1199 96.58C12.2399 96.82 12.3399 97.07 12.4199 97.32C12.4899 97.59 12.5299 97.86 12.5399 98.14C12.5399 98.4 12.5199 98.67 12.4799 98.93L12.2999 99.64L11.7599 101.64C11.6399 102.3 11.5599 102.97 11.5099 103.64C11.4099 104.89 11.5799 106.15 11.9999 107.34C12.4499 108.46 13.1699 109.46 14.0799 110.25C15.0299 111.08 16.1299 111.72 17.3099 112.15C18.5199 112.63 19.7999 112.93 21.0999 113.04C21.4299 113.09 21.7699 113.11 22.0999 113.11H23.0999C23.8699 113.11 24.6299 113.11 25.4199 113.21C27.0799 113.3 28.7099 113.66 30.2599 114.27C31.1099 114.63 31.8999 115.1 32.6199 115.68C33.2599 116.23 33.8499 116.83 34.3899 117.48C35.1799 118.51 36.0999 119.43 37.1399 120.22C38.0199 120.84 39.0599 121.21 40.1399 121.29C40.7199 121.33 41.2999 121.3 41.8799 121.21C42.1699 121.21 42.4699 121.1 42.7499 121.03C43.0299 120.96 43.3599 120.84 43.5099 120.79L43.2899 120.9C47.1499 118.5 50.6299 115.52 53.5899 112.07C53.9699 111.63 54.3599 111.22 54.7199 110.77L55.7199 109.39L56.7199 108.02C57.0599 107.55 57.3499 107.02 57.7199 106.58C58.3599 105.58 59.0299 104.68 59.5899 103.66C60.1499 102.64 60.7999 101.66 61.2999 100.66C63.4799 96.52 65.2899 92.2 66.7099 87.74C68.1899 83.25 69.1999 78.61 69.7099 73.91C69.9599 78.71 69.5499 83.51 68.4899 88.2C68.2499 89.38 67.9399 90.54 67.6499 91.71C67.3599 92.88 66.9499 94.02 66.6499 95.18C66.3499 96.34 65.8399 97.45 65.4399 98.59C65.0399 99.73 64.4399 100.82 64.0199 101.94C63.5999 103.06 62.9499 104.12 62.4199 105.22C61.8899 106.32 61.2499 107.35 60.6299 108.41C60.3199 108.93 60.0099 109.41 59.6799 109.97L58.6199 111.48L57.6199 112.98C57.2499 113.47 56.8399 113.98 56.4599 114.42C53.3799 118.31 49.6599 121.64 45.4599 124.29L45.3499 124.35H45.2399C44.8099 124.53 44.3699 124.68 43.9199 124.81C43.4999 124.92 43.0799 125.02 42.6499 125.09C41.7799 125.24 40.8999 125.29 40.0199 125.24C39.1099 125.18 38.2099 125.01 37.3499 124.72C36.4799 124.41 35.6599 123.98 34.9099 123.44C33.5999 122.45 32.4199 121.3 31.4199 120C31.0399 119.52 30.6099 119.07 30.1599 118.66C29.7399 118.32 29.2699 118.03 28.7699 117.82C27.5899 117.37 26.3399 117.08 25.0799 116.98C24.4199 116.89 23.7199 116.86 23.0199 116.82L21.8699 116.74C21.4699 116.74 21.0699 116.68 20.6699 116.61C19.0599 116.39 17.4899 115.96 15.9999 115.32C14.4499 114.69 13.0299 113.77 11.8299 112.6C10.5999 111.39 9.66993 109.91 9.12993 108.27C8.64993 106.65 8.51993 104.95 8.73993 103.27C8.84993 102.5 9.00993 101.75 9.21993 101C9.46993 100.27 9.75993 99.51 10.0099 98.82C10.2099 98.46 10.2499 98.02 10.0999 97.63C9.80993 97.08 9.43993 96.58 8.99993 96.15C7.91993 95.08 6.95993 93.9 6.12993 92.62C5.30993 91.33 4.66993 89.93 4.22993 88.47C3.72993 87.03 3.52993 85.51 3.63993 84C3.70993 83.23 3.95993 82.49 4.35993 81.83C4.73993 81.15 5.40993 80.69 6.16993 80.55Z" fill="#BDBDBD" style="fill:#BDBDBD;fill:color(display-p3 0.7412 0.7412 0.7412);fill-opacity:1;"/>
<path d="M30.4998 90.7801C27.6498 91.4901 24.7498 92.0001 21.8298 92.2901C20.3598 92.3401 19.1198 91.1801 19.0698 89.7101C19.0298 88.3801 19.9698 87.2201 21.2898 86.9901C34.0498 85.6901 40.2898 83.0801 50.6698 76.2301C53.5498 74.3701 56.2298 72.2301 58.6698 69.8201C56.1798 74.9701 52.4898 79.4501 47.9098 82.8901C42.8798 86.7001 37.4798 89.0001 30.4998 90.7801Z" fill="#B3B3B3" style="fill:#B3B3B3;fill:color(display-p3 0.7020 0.7020 0.7020);fill-opacity:1;"/>
<path d="M42.2099 103.87C41.0999 104.21 39.8999 103.76 39.2899 102.77C38.4999 101.55 38.8199 99.92 39.9999 99.08C45.7999 95.39 50.8099 90.58 54.7199 84.92C56.6399 82.07 59.4899 76.92 59.4899 76.92C59.1499 79.84 58.5599 82.72 57.7099 85.53C54.2199 96.5 44.6699 103.09 42.2099 103.87Z" fill="#B3B3B3" style="fill:#B3B3B3;fill:color(display-p3 0.7020 0.7020 0.7020);fill-opacity:1;"/>
<defs>
<radialGradient id="paint0_radial_169_8490" cx="0" cy="0" r="1" gradientUnits="userSpaceOnUse" gradientTransform="translate(63.6001 62.8999) scale(56.9597 56.9597)">
<stop offset="0.5" stop-color="#FDE030" style="stop-color:#FDE030;stop-color:color(display-p3 0.9922 0.8784 0.1882);stop-opacity:1;"/>
<stop offset="0.92" stop-color="#F7C02B" style="stop-color:#F7C02B;stop-color:color(display-p3 0.9686 0.7529 0.1686);stop-opacity:1;"/>
<stop offset="1" stop-color="#F4A223" style="stop-color:#F4A223;stop-color:color(display-p3 0.9569 0.6353 0.1373);stop-opacity:1;"/>
</radialGradient>
<radialGradient id="paint1_radial_169_8490" cx="0" cy="0" r="1" gradientUnits="userSpaceOnUse" gradientTransform="translate(38.5991 34.5377) rotate(-43.2082) scale(102.024 101.825)">
<stop offset="0.3533" stop-color="#F9DDBD" style="stop-color:#F9DDBD;stop-color:color(display-p3 0.9765 0.8667 0.7412);stop-opacity:1;"/>
<stop offset="0.8723" stop-color="#FFD29C" style="stop-color:#FFD29C;stop-color:color(display-p3 1.0000 0.8235 0.6118);stop-opacity:1;"/>
</radialGradient>
<radialGradient id="paint2_radial_169_8490" cx="0" cy="0" r="1" gradientUnits="userSpaceOnUse" gradientTransform="translate(38.5991 34.5377) rotate(-43.2082) scale(102.024 101.825)">
<stop offset="0.3533" stop-color="#70534A" style="stop-color:#70534A;stop-color:color(display-p3 0.4392 0.3255 0.2902);stop-opacity:1;"/>
<stop offset="0.8723" stop-color="#5C4037" style="stop-color:#5C4037;stop-color:color(display-p3 0.3608 0.2510 0.2157);stop-opacity:1;"/>
</radialGradient>
</defs>
</svg>
