<svg width="128" height="129" viewBox="0 0 128 129" fill="none" xmlns="http://www.w3.org/2000/svg">
<path opacity="0.8" d="M106.64 52.8C106.64 47.41 106.54 43.04 104.12 38.1C102.65 35.09 96.78 26.87 95.61 25.84H33.04C31.87 26.87 26 35.09 24.53 38.1C22.11 43.03 22.01 47.41 22.01 52.8C22.01 60.53 22.04 109.02 22 109.85C21.89 112.57 23.83 114.7 26.93 116.69C36.88 123.07 55.57 124.5 64.32 124.5C73.07 124.5 91.76 123.07 101.71 116.69C104.82 114.7 106.75 112.57 106.64 109.85C106.61 109.02 106.64 60.53 106.64 52.8Z" fill="#9FE1EA" style="fill:#9FE1EA;fill:color(display-p3 0.6235 0.8824 0.9176);fill-opacity:1;"/>
<path d="M99.7909 50.5C99.8368 50.3247 99.86 50.148 99.86 49.97C99.86 45.2921 83.8049 41.5 64 41.5C44.1951 41.5 28.14 45.2921 28.14 49.97C28.14 50.148 28.1633 50.3247 28.2091 50.5H27.9999V111.5H28.2144C29.4143 115.922 44.9774 119.42 64 119.42C83.0226 119.42 98.5858 115.922 99.7856 111.5H99.9999V50.5H99.7909Z" fill="#CA8761" style="fill:#CA8761;fill:color(display-p3 0.7917 0.5278 0.3793);fill-opacity:1;"/>
<path opacity="0.6" d="M64.0001 58.44C83.805 58.44 99.8601 54.6478 99.8601 49.97C99.8601 45.2921 83.805 41.5 64.0001 41.5C44.1951 41.5 28.1401 45.2921 28.1401 49.97C28.1401 54.6478 44.1951 58.44 64.0001 58.44Z" fill="white" fill-opacity="0.51" style="fill:white;fill-opacity:0.51;"/>
<path opacity="0.6" d="M33.05 25.59L30.05 29.62C30.05 29.62 48.05 42.88 82.8 37.53C102.38 34.52 97.48 28.68 97.48 28.68L94.66 24.35L33.05 25.59Z" fill="#1492C4" style="fill:#1492C4;fill:color(display-p3 0.0784 0.5725 0.7686);fill-opacity:1;"/>
<g opacity="0.8">
<path d="M40.99 92.1C41.63 100.28 32.24 103.62 29.65 95.42C28.79 92.69 29.22 89.75 29.49 86.9C30.14 80.21 29.98 73.45 29.03 66.8C28.13 60.95 27.02 47.33 32.91 44.36C35.49 43.06 37.53 43.69 39.48 44.68C42.33 46.34 42.66 50.26 42.58 53.55C42.43 59.21 41.82 64.85 41.38 70.49C40.9 76.72 39.49 81.34 40.21 86.33C40.48 88.25 40.9 90.18 40.99 92.1Z" fill="white" style="fill:white;fill-opacity:1;"/>
</g>
<path d="M99.79 12.6H28.17C28.17 12.6 27.35 14.78 27.4 18.5C27.47 25.22 29.34 25.76 31.76 26.9C37.65 29.67 48.88 31.58 63.93 31.58C78.98 31.58 90.21 29.68 96.1 26.9C98.52 25.76 100.39 25.22 100.46 18.5C100.5 14.78 99.79 12.6 99.79 12.6Z" fill="#E2A610" style="fill:#E2A610;fill:color(display-p3 0.8863 0.6510 0.0627);fill-opacity:1;"/>
<path d="M64 21.44C83.8049 21.44 99.86 17.6479 99.86 12.97C99.86 8.29215 83.8049 4.5 64 4.5C44.1951 4.5 28.14 8.29215 28.14 12.97C28.14 17.6479 44.1951 21.44 64 21.44Z" fill="#9E740B" style="fill:#9E740B;fill:color(display-p3 0.6196 0.4549 0.0431);fill-opacity:1;"/>
<path d="M40.94 21.44C46.29 22.09 47.17 22.09 47.66 23.71C47.88 24.46 47.71 25.34 47.13 25.85C44.34 28.31 37.66 27.13 34.9 25.05C33.92 24.31 32.67 22.31 34.19 20.96C35.62 19.7 38.69 21.17 40.94 21.44Z" fill="#FFE36C" style="fill:#FFE36C;fill:color(display-p3 1.0000 0.8902 0.4235);fill-opacity:1;"/>
</svg>
