<svg width="129" height="128" viewBox="0 0 129 128" fill="none" xmlns="http://www.w3.org/2000/svg">
<path d="M116.5 124H12.5C8.08 124 4.5 120.42 4.5 116V12C4.5 7.58 8.08 4 12.5 4H116.5C120.92 4 124.5 7.58 124.5 12V116C124.5 120.42 120.92 124 116.5 124Z" fill="url(#paint0_linear_124_10782)" style=""/>
<path d="M116.5 124H12.5C8.08 124 4.5 120.42 4.5 116V12C4.5 7.58 8.08 4 12.5 4H116.5C120.92 4 124.5 7.58 124.5 12V116C124.5 120.42 120.92 124 116.5 124Z" fill="url(#paint1_radial_124_10782)" style=""/>
<path d="M116.5 124H12.5C8.08 124 4.5 120.42 4.5 116V12C4.5 7.58 8.08 4 12.5 4H116.5C120.92 4 124.5 7.58 124.5 12V116C124.5 120.42 120.92 124 116.5 124Z" fill="url(#paint2_linear_124_10782)" style=""/>
<path opacity="0.2" d="M116.5 7C119.26 7 121.5 9.24 121.5 12V116C121.5 118.76 119.26 121 116.5 121H12.5C9.74 121 7.5 118.76 7.5 116V12C7.5 9.24 9.74 7 12.5 7H116.5ZM116.5 4H12.5C8.08 4 4.5 7.58 4.5 12V116C4.5 120.42 8.08 124 12.5 124H116.5C120.92 124 124.5 120.42 124.5 116V12C124.5 7.58 120.92 4 116.5 4Z" fill="#424242" style="fill:#424242;fill:color(display-p3 0.2588 0.2588 0.2588);fill-opacity:1;"/>
<path d="M116.5 4H12.5C8.08 4 4.5 7.58 4.5 12V116C4.5 120.42 8.08 124 12.5 124H116.5C120.92 124 124.5 120.42 124.5 116V12C124.5 7.58 120.92 4 116.5 4Z" fill="#F1A003" style="fill:#F1A003;fill:color(display-p3 0.9458 0.6283 0.0118);fill-opacity:1;"/>
<path d="M116.5 4H12.5C8.08 4 4.5 7.58 4.5 12V116C4.5 120.42 8.08 124 12.5 124H116.5C120.92 124 124.5 120.42 124.5 116V12C124.5 7.58 120.92 4 116.5 4Z" fill="#F2A600" style="fill:#F2A600;fill:color(display-p3 0.9490 0.6510 0.0000);fill-opacity:1;"/>
<path d="M110.2 4H12C7.87002 4.03 4.53002 7.37 4.50002 11.5V109.4C4.49002 113.54 7.84002 116.89 11.98 116.9C11.99 116.9 11.99 116.9 12 116.9H110.1C114.24 116.91 117.59 113.56 117.6 109.42C117.6 109.41 117.6 109.41 117.6 109.4V11.5C117.69 7.45 114.47 4.09 110.42 4C110.35 4 110.27 4 110.2 4Z" fill="#FFD33A" style="fill:#FFD33A;fill:color(display-p3 1.0000 0.8275 0.2275);fill-opacity:1;"/>
<path d="M110.2 4H12C7.87002 4.03 4.53002 7.37 4.50002 11.5V109.4C4.49002 113.54 7.84002 116.89 11.98 116.9C11.99 116.9 11.99 116.9 12 116.9H110.1C114.24 116.91 117.59 113.56 117.6 109.42C117.6 109.41 117.6 109.41 117.6 109.4V11.5C117.69 7.45 114.47 4.09 110.42 4C110.35 4 110.27 4 110.2 4Z" fill="#FFCC32" style="fill:#FFCC32;fill:color(display-p3 1.0000 0.8000 0.1961);fill-opacity:1;"/>
<path opacity="0.75" d="M40.2001 12.8999C40.2001 10.5999 38.6001 9.89988 29.4001 10.1999C21.7001 10.4999 17.9001 11.3999 15.6001 14.1999C13.3001 16.9999 12.7001 22.6999 12.6001 29.4999C12.6001 34.2999 12.6001 38.7999 15.1001 38.7999C18.5001 38.7999 18.5001 30.8999 21.3001 26.4999C26.7001 17.7999 40.2001 15.8999 40.2001 12.8999Z" fill="#FFF6D9" style="fill:#FFF6D9;fill:color(display-p3 1.0000 0.9665 0.8500);fill-opacity:1;"/>
<path d="M84.2902 69.65L80.2402 73.95C79.8802 74.33 79.6802 74.84 79.6802 75.36V89.95C79.6802 91.08 78.7602 92 77.6302 92H72.0002C70.8702 92 69.9502 91.08 69.9502 89.95V38.05C69.9502 36.92 70.8702 36 72.0002 36H77.6202C78.7502 36 79.6702 36.92 79.6702 38.05V56.46C79.6702 58.4 82.1002 59.26 83.3202 57.75L85.0502 55.61L100.82 36.73C101.21 36.26 101.79 35.99 102.4 35.99H108.8C110.55 35.99 111.5 38.03 110.37 39.37L93.4202 59.6C92.8202 60.31 92.7802 61.34 93.3202 62.11L112.12 88.77C113.08 90.13 112.11 92.01 110.44 92.01H103.94C103.27 92.01 102.64 91.68 102.25 91.13L87.4702 69.88C86.7202 68.81 85.1802 68.7 84.2902 69.65Z" fill="black" style="fill:black;fill-opacity:1;"/>
<path d="M84.2902 69.65L80.2402 73.95C79.8802 74.33 79.6802 74.84 79.6802 75.36V89.95C79.6802 91.08 78.7602 92 77.6302 92H72.0002C70.8702 92 69.9502 91.08 69.9502 89.95V38.05C69.9502 36.92 70.8702 36 72.0002 36H77.6202C78.7502 36 79.6702 36.92 79.6702 38.05V56.46C79.6702 58.4 82.1002 59.26 83.3202 57.75L85.0502 55.61L100.82 36.73C101.21 36.26 101.79 35.99 102.4 35.99H108.8C110.55 35.99 111.5 38.03 110.37 39.37L93.4202 59.6C92.8202 60.31 92.7802 61.34 93.3202 62.11L112.12 88.77C113.08 90.13 112.11 92.01 110.44 92.01H103.94C103.27 92.01 102.64 91.68 102.25 91.13L87.4702 69.88C86.7202 68.81 85.1802 68.7 84.2902 69.65Z" fill="black" style="fill:black;fill-opacity:1;"/>
<path d="M51.4991 70.0385C51.4991 71.143 52.3945 72.0385 53.4991 72.0385H56.5C57.6046 72.0385 58.5 72.9339 58.5 74.0385V77.5385C58.5 78.643 57.6046 79.5385 56.5 79.5385H53.4991C52.3945 79.5385 51.4991 80.4339 51.4991 81.5385V90C51.4991 91.1046 50.6036 92 49.4991 92H44.1C42.9954 92 42.1 91.1046 42.1 90V81.5385C42.1 80.4339 41.2046 79.5385 40.1 79.5385H19.6779C18.6103 79.5385 17.7309 78.6999 17.6801 77.6335L17.5303 74.484C17.5106 74.0691 17.6206 73.6583 17.8449 73.3087L41.2003 36.9197C41.5681 36.3466 42.2024 36 42.8834 36H49.4991C50.6036 36 51.4991 36.8954 51.4991 38V70.0385ZM29.3093 68.9678C28.4654 70.2994 29.4221 72.0385 30.9986 72.0385H40.1C41.2046 72.0385 42.1 71.143 42.1 70.0385V50.0679C42.1 49.6853 41.5921 49.5516 41.4038 49.8846L29.3093 68.9678Z" fill="black" style="fill:black;fill-opacity:1;"/>
<path d="M51.4991 70.0385C51.4991 71.143 52.3945 72.0385 53.4991 72.0385H56.5C57.6046 72.0385 58.5 72.9339 58.5 74.0385V77.5385C58.5 78.643 57.6046 79.5385 56.5 79.5385H53.4991C52.3945 79.5385 51.4991 80.4339 51.4991 81.5385V90C51.4991 91.1046 50.6036 92 49.4991 92H44.1C42.9954 92 42.1 91.1046 42.1 90V81.5385C42.1 80.4339 41.2046 79.5385 40.1 79.5385H19.6779C18.6103 79.5385 17.7309 78.6999 17.6801 77.6335L17.5303 74.484C17.5106 74.0691 17.6206 73.6583 17.8449 73.3087L41.2003 36.9197C41.5681 36.3466 42.2024 36 42.8834 36H49.4991C50.6036 36 51.4991 36.8954 51.4991 38V70.0385ZM29.3093 68.9678C28.4654 70.2994 29.4221 72.0385 30.9986 72.0385H40.1C41.2046 72.0385 42.1 71.143 42.1 70.0385V50.0679C42.1 49.6853 41.5921 49.5516 41.4038 49.8846L29.3093 68.9678Z" fill="black" style="fill:black;fill-opacity:1;"/>
<defs>
<linearGradient id="paint0_linear_124_10782" x1="64.5" y1="-0.3333" x2="64.5" y2="128.1" gradientUnits="userSpaceOnUse">
<stop stop-color="#29B6F6" style="stop-color:#29B6F6;stop-color:color(display-p3 0.1608 0.7137 0.9647);stop-opacity:1;"/>
<stop offset="0.5369" stop-color="#169FE4" style="stop-color:#169FE4;stop-color:color(display-p3 0.0863 0.6235 0.8941);stop-opacity:1;"/>
<stop offset="0.9954" stop-color="#0288D1" style="stop-color:#0288D1;stop-color:color(display-p3 0.0078 0.5333 0.8196);stop-opacity:1;"/>
</linearGradient>
<radialGradient id="paint1_radial_124_10782" cx="0" cy="0" r="1" gradientUnits="userSpaceOnUse" gradientTransform="translate(64.3073 2.95884) scale(119.4 147.647)">
<stop stop-color="#FFD740" style="stop-color:#FFD740;stop-color:color(display-p3 1.0000 0.8431 0.2510);stop-opacity:1;"/>
<stop offset="0.203" stop-color="#FFD43C" style="stop-color:#FFD43C;stop-color:color(display-p3 1.0000 0.8314 0.2353);stop-opacity:1;"/>
<stop offset="0.4162" stop-color="#FFCB2F" style="stop-color:#FFCB2F;stop-color:color(display-p3 1.0000 0.7961 0.1843);stop-opacity:1;"/>
<stop offset="0.6332" stop-color="#FFBD1A" style="stop-color:#FFBD1A;stop-color:color(display-p3 1.0000 0.7412 0.1020);stop-opacity:1;"/>
<stop offset="0.8336" stop-color="#FFAB00" style="stop-color:#FFAB00;stop-color:color(display-p3 1.0000 0.6706 0.0000);stop-opacity:1;"/>
<stop offset="1" stop-color="#FFAB00" style="stop-color:#FFAB00;stop-color:color(display-p3 1.0000 0.6706 0.0000);stop-opacity:1;"/>
</radialGradient>
<linearGradient id="paint2_linear_124_10782" x1="64.5" y1="5.6667" x2="64.5" y2="121.92" gradientUnits="userSpaceOnUse">
<stop stop-color="#FFAB40" style="stop-color:#FFAB40;stop-color:color(display-p3 1.0000 0.6706 0.2510);stop-opacity:1;"/>
<stop offset="1" stop-color="#FF6D00" style="stop-color:#FF6D00;stop-color:color(display-p3 1.0000 0.4275 0.0000);stop-opacity:1;"/>
</linearGradient>
</defs>
</svg>
