<svg width="128" height="128" viewBox="0 0 128 128" fill="none" xmlns="http://www.w3.org/2000/svg">
<path d="M63.6001 118.8C35.7001 118.8 5.6001 101.3 5.6001 62.9C5.6001 24.5 35.7001 7 63.6001 7C79.1001 7 93.4001 12.1 104 21.4C115.5 31.6 121.6 46 121.6 62.9C121.6 79.8 115.5 94.1 104 104.3C93.4001 113.6 79.0001 118.8 63.6001 118.8Z" fill="url(#paint0_radial_169_5595)" style=""/>
<path d="M63.6001 118.8C35.7001 118.8 5.6001 101.3 5.6001 62.9C5.6001 24.5 35.7001 7 63.6001 7C79.1001 7 93.4001 12.1 104 21.4C115.5 31.6 121.6 46 121.6 62.9C121.6 79.8 115.5 94.1 104 104.3C93.4001 113.6 79.0001 118.8 63.6001 118.8Z" fill="url(#paint1_radial_169_5595)" style=""/>
<path d="M111.49 29.67C116.82 38.27 119.6 48.51 119.6 59.9C119.6 76.8 113.5 91.1 102 101.3C91.4002 110.6 77.0002 115.8 61.6002 115.8C43.5402 115.8 24.6002 108.45 13.4202 92.86C24.1802 110.52 44.4202 118.8 63.6002 118.8C79.0002 118.8 93.4002 113.6 104 104.3C115.5 94.1001 121.6 79.8 121.6 62.9C121.6 50.16 118.13 38.84 111.49 29.67Z" fill="#EB8F00" style="fill:#EB8F00;fill:color(display-p3 0.9216 0.5608 0.0000);fill-opacity:1;"/>
<path d="M111.49 29.67C116.82 38.27 119.6 48.51 119.6 59.9C119.6 76.8 113.5 91.1 102 101.3C91.4002 110.6 77.0002 115.8 61.6002 115.8C43.5402 115.8 24.6002 108.45 13.4202 92.86C24.1802 110.52 44.4202 118.8 63.6002 118.8C79.0002 118.8 93.4002 113.6 104 104.3C115.5 94.1001 121.6 79.8 121.6 62.9C121.6 50.16 118.13 38.84 111.49 29.67Z" fill="#F3B872" style="fill:#F3B872;fill:color(display-p3 0.9542 0.7229 0.4453);fill-opacity:1;"/>
<path d="M70.9999 101C70.4299 101 69.8599 100.88 69.3399 100.64C65.6599 99.0101 61.4699 98.9801 57.7799 100.58C55.8099 101.57 53.3999 100.77 52.4099 98.8001C51.4199 96.8301 52.2199 94.4201 54.1899 93.4301C60.0599 90.7701 66.7699 90.7501 72.6599 93.3601C74.6699 94.2801 75.5599 96.6501 74.6399 98.6601C73.9899 100.09 72.5699 101 70.9999 101Z" fill="#312D2D" style="fill:#312D2D;fill:color(display-p3 0.1922 0.1765 0.1765);fill-opacity:1;"/>
<path d="M42.9999 47.7001C52.5799 47.7301 60.3299 55.5201 60.2999 65.1001C60.2699 74.6801 52.4799 82.4301 42.8999 82.4001C33.3199 82.3701 25.5699 74.5801 25.5999 65.0001C25.6599 55.4301 33.4299 47.7101 42.9999 47.7001Z" fill="white" style="fill:white;fill-opacity:1;"/>
<path d="M42.7001 78.2C51.2052 78.2 58.1 71.3052 58.1 62.8C58.1 54.2948 51.2052 47.4 42.7001 47.4C34.1949 47.4 27.3 54.2948 27.3 62.8C27.3 71.3052 34.1949 78.2 42.7001 78.2Z" fill="#312D2D" style="fill:#312D2D;fill:color(display-p3 0.1922 0.1765 0.1765);fill-opacity:1;"/>
<path d="M49.6673 70.4591C50.7671 69.536 50.9679 67.9646 50.1157 66.9494C49.2636 65.9342 47.6812 65.8596 46.5814 66.7828C45.4816 67.706 45.2809 69.2773 46.133 70.2925C46.9852 71.3077 48.5676 71.3823 49.6673 70.4591Z" fill="white" style="fill:white;fill-opacity:1;"/>
<path d="M43.0515 63.8681C47.0389 60.9002 48.3198 55.8724 45.9124 52.6382C43.5051 49.404 38.3212 49.1881 34.3338 52.156C30.3464 55.1239 29.0655 60.1518 31.4728 63.386C33.8802 66.6202 39.0641 66.8361 43.0515 63.8681Z" fill="white" style="fill:white;fill-opacity:1;"/>
<path d="M85.9999 47.7001C95.5799 47.7301 103.33 55.5201 103.3 65.1001C103.27 74.6801 95.4799 82.4301 85.8999 82.4001C76.3199 82.3701 68.5699 74.5801 68.5999 65.0001C68.6599 55.4301 76.4299 47.7101 85.9999 47.7001Z" fill="white" style="fill:white;fill-opacity:1;"/>
<path d="M85.7 78.2C94.2052 78.2 101.1 71.3052 101.1 62.8C101.1 54.2948 94.2052 47.4 85.7 47.4C77.1949 47.4 70.3 54.2948 70.3 62.8C70.3 71.3052 77.1949 78.2 85.7 78.2Z" fill="#312D2D" style="fill:#312D2D;fill:color(display-p3 0.1922 0.1765 0.1765);fill-opacity:1;"/>
<path d="M92.7474 70.3978C93.8472 69.4747 94.048 67.9033 93.1958 66.8881C92.3436 65.873 90.7613 65.7984 89.6615 66.7215C88.5617 67.6447 88.361 69.216 89.2131 70.2312C90.0653 71.2464 91.6476 71.321 92.7474 70.3978Z" fill="white" style="fill:white;fill-opacity:1;"/>
<path d="M86.0625 63.8753C90.0498 60.9074 91.3307 55.8796 88.9234 52.6454C86.5161 49.4112 81.3322 49.1953 77.3448 52.1632C73.3574 55.1311 72.0765 60.159 74.4838 63.3932C76.8911 66.6274 82.0751 66.8433 86.0625 63.8753Z" fill="white" style="fill:white;fill-opacity:1;"/>
<path d="M27.3999 39.8C25.1999 40.2 25.0999 43.4 27.4999 43.5C32.7999 43.57 37.9199 41.6 41.7999 38C43.2799 36.72 44.5299 35.2 45.4999 33.5C46.0799 32.67 45.8799 31.53 45.0499 30.95C44.2199 30.37 43.0799 30.57 42.4999 31.4L42.3999 31.5C38.4799 35.88 33.1899 38.81 27.3999 39.8Z" fill="#312D2D" style="fill:#312D2D;fill:color(display-p3 0.1922 0.1765 0.1765);fill-opacity:1;"/>
<path d="M84.4998 31.4C83.9198 30.57 82.7798 30.37 81.9498 30.95C81.1198 31.53 80.9198 32.67 81.4998 33.5C82.4698 35.2 83.7198 36.72 85.1998 38C89.0998 41.57 94.2098 43.54 99.4998 43.5C102 43.4 101.8 40.2 99.5998 39.8C93.7398 38.84 88.4098 35.87 84.4998 31.4Z" fill="#312D2D" style="fill:#312D2D;fill:color(display-p3 0.1922 0.1765 0.1765);fill-opacity:1;"/>
<defs>
<radialGradient id="paint0_radial_169_5595" cx="0" cy="0" r="1" gradientUnits="userSpaceOnUse" gradientTransform="translate(63.6001 62.9) scale(56.9597 56.9597)">
<stop offset="0.5" stop-color="#FDE030" style="stop-color:#FDE030;stop-color:color(display-p3 0.9922 0.8784 0.1882);stop-opacity:1;"/>
<stop offset="0.92" stop-color="#F7C02B" style="stop-color:#F7C02B;stop-color:color(display-p3 0.9686 0.7529 0.1686);stop-opacity:1;"/>
<stop offset="1" stop-color="#F4A223" style="stop-color:#F4A223;stop-color:color(display-p3 0.9569 0.6353 0.1373);stop-opacity:1;"/>
</radialGradient>
<radialGradient id="paint1_radial_169_5595" cx="0" cy="0" r="1" gradientUnits="userSpaceOnUse" gradientTransform="translate(38.5991 34.5377) rotate(-43.2082) scale(102.024 101.825)">
<stop offset="0.3533" stop-color="#F9DDBD" style="stop-color:#F9DDBD;stop-color:color(display-p3 0.9765 0.8667 0.7412);stop-opacity:1;"/>
<stop offset="0.8723" stop-color="#FFD29C" style="stop-color:#FFD29C;stop-color:color(display-p3 1.0000 0.8235 0.6118);stop-opacity:1;"/>
</radialGradient>
</defs>
</svg>
