<svg width="128" height="128" viewBox="0 0 128 128" fill="none" xmlns="http://www.w3.org/2000/svg">
<path d="M7.0463 50.6163C5.14629 46.6763 4.0863 42.2663 4.0863 37.5963C4.0863 20.9963 17.5363 7.54633 34.1363 7.54633C38.0263 7.54633 41.7463 8.29633 45.1663 9.64633C49.5363 5.83633 55.2663 3.48633 61.4863 3.48633C69.0863 3.48633 75.8863 6.88633 80.3863 12.1863C83.8863 10.2863 87.8863 9.18633 92.0863 9.18633C105.486 9.28633 116.386 20.0863 116.386 33.4863C116.386 38.4863 114.886 43.1863 112.186 47.0863C117.186 51.0863 120.686 56.9863 121.386 63.8863C122.686 77.2863 112.786 89.3863 99.1863 90.6863C95.9863 90.9863 92.9863 90.6863 90.0863 89.8863C88.9863 100.586 79.9863 108.886 68.9863 108.886C61.9863 108.886 55.7863 105.486 51.9863 100.286C48.3863 103.086 43.8863 104.886 38.8863 104.886C27.8863 104.886 18.7863 96.3863 17.9863 85.6863C9.4863 81.7863 3.4863 73.1863 3.4863 63.1863C3.4863 58.5963 4.81629 54.2663 7.0463 50.6163Z" fill="white" stroke="black" style="fill:white;fill-opacity:1;stroke:black;stroke-opacity:1;" stroke-width="6" stroke-miterlimit="10"/>
<path d="M103.186 96.6863C107.686 96.1863 111.686 99.4863 112.186 103.986C112.686 108.486 109.386 112.486 104.886 112.886C100.386 113.386 96.3862 110.086 95.8862 105.586C95.3862 101.086 98.6862 97.0863 103.186 96.6863Z" fill="white" stroke="black" style="fill:white;fill-opacity:1;stroke:black;stroke-opacity:1;" stroke-width="4.5" stroke-miterlimit="10"/>
<path d="M118.486 113.686C121.486 113.386 124.186 115.586 124.486 118.586C124.786 121.586 122.586 124.186 119.586 124.486C116.586 124.786 113.886 122.586 113.586 119.586C113.286 116.686 115.486 113.986 118.486 113.686Z" fill="white" stroke="black" style="fill:white;fill-opacity:1;stroke:black;stroke-opacity:1;" stroke-width="4.5" stroke-miterlimit="10"/>
</svg>
