<svg width="128" height="128" viewBox="0 0 128 128" fill="none" xmlns="http://www.w3.org/2000/svg">
<path d="M63.6001 118.8C35.7001 118.8 5.6001 101.3 5.6001 62.9C5.6001 24.5 35.7001 7 63.6001 7C79.1001 7 93.4001 12.1 104 21.4C115.5 31.6 121.6 46 121.6 62.9C121.6 79.8 115.5 94.1 104 104.3C93.4001 113.6 79.0001 118.8 63.6001 118.8Z" fill="url(#paint0_radial_169_13731)" style=""/>
<path d="M63.6001 118.8C35.7001 118.8 5.6001 101.3 5.6001 62.9C5.6001 24.5 35.7001 7 63.6001 7C79.1001 7 93.4001 12.1 104 21.4C115.5 31.6 121.6 46 121.6 62.9C121.6 79.8 115.5 94.1 104 104.3C93.4001 113.6 79.0001 118.8 63.6001 118.8Z" fill="url(#paint1_radial_169_13731)" style=""/>
<path d="M63.6001 118.8C35.7001 118.8 5.6001 101.3 5.6001 62.9C5.6001 24.5 35.7001 7 63.6001 7C79.1001 7 93.4001 12.1 104 21.4C115.5 31.6 121.6 46 121.6 62.9C121.6 79.8 115.5 94.1 104 104.3C93.4001 113.6 79.0001 118.8 63.6001 118.8Z" fill="url(#paint2_radial_169_13731)" style=""/>
<path d="M63.6001 118.8C35.7001 118.8 5.6001 101.3 5.6001 62.9C5.6001 24.5 35.7001 7 63.6001 7C79.1001 7 93.4001 12.1 104 21.4C115.5 31.6 121.6 46 121.6 62.9C121.6 79.8 115.5 94.1 104 104.3C93.4001 113.6 79.0001 118.8 63.6001 118.8Z" fill="url(#paint3_radial_169_13731)" style=""/>
<path d="M63.6001 118.8C35.7001 118.8 5.6001 101.3 5.6001 62.9C5.6001 24.5 35.7001 7 63.6001 7C79.1001 7 93.4001 12.1 104 21.4C115.5 31.6 121.6 46 121.6 62.9C121.6 79.8 115.5 94.1 104 104.3C93.4001 113.6 79.0001 118.8 63.6001 118.8Z" fill="url(#paint4_radial_169_13731)" style=""/>
<path d="M112.07 30C117.4 38.6 120.18 48.84 120.18 60.23C120.18 77.13 114.08 91.43 102.58 101.63C91.98 110.93 77.58 116.13 62.18 116.13C44.12 116.13 25.18 108.78 14 93.19C24.76 110.85 45 119.13 64.18 119.13C79.58 119.13 93.98 113.93 104.58 104.63C116.08 94.43 122.18 80.13 122.18 63.23C122.18 50.49 118.71 39.17 112.07 30Z" fill="#EB8F00" style="fill:#EB8F00;fill:color(display-p3 0.9216 0.5608 0.0000);fill-opacity:1;"/>
<path d="M112.07 30C117.4 38.6 120.18 48.84 120.18 60.23C120.18 77.13 114.08 91.43 102.58 101.63C91.98 110.93 77.58 116.13 62.18 116.13C44.12 116.13 25.18 108.78 14 93.19C24.76 110.85 45 119.13 64.18 119.13C79.58 119.13 93.98 113.93 104.58 104.63C116.08 94.43 122.18 80.13 122.18 63.23C122.18 50.49 118.71 39.17 112.07 30Z" fill="#F3B872" style="fill:#F3B872;fill:color(display-p3 0.9542 0.7229 0.4453);fill-opacity:1;"/>
<path d="M112.07 30C117.4 38.6 120.18 48.84 120.18 60.23C120.18 77.13 114.08 91.43 102.58 101.63C91.98 110.93 77.58 116.13 62.18 116.13C44.12 116.13 25.18 108.78 14 93.19C24.76 110.85 45 119.13 64.18 119.13C79.58 119.13 93.98 113.93 104.58 104.63C116.08 94.43 122.18 80.13 122.18 63.23C122.18 50.49 118.71 39.17 112.07 30Z" fill="#91674D" style="fill:#91674D;fill:color(display-p3 0.5686 0.4039 0.3020);fill-opacity:1;"/>
<path d="M83.7897 92.436C83.4568 92.4683 83.1237 92.4258 82.8171 92.2901C77.3332 90.0078 71.3511 89.2173 65.4665 89.9811C59.5505 90.6365 53.9238 92.844 49.1414 96.3789C48.8797 96.5831 48.5755 96.714 48.2455 96.7561C47.5206 96.8378 46.8097 96.4877 46.425 95.8613C46.0432 95.2448 46.0644 94.4687 46.4685 93.8705C54.4105 82.1594 70.3361 79.1068 82.0471 87.0488C83.0061 87.7013 83.9201 88.4203 84.7836 89.186C85.3271 89.6594 85.5443 90.4092 85.3381 91.0999C85.1277 91.8131 84.5187 92.3317 83.7897 92.436Z" fill="#49362E" style="fill:#49362E;fill:color(display-p3 0.2863 0.2118 0.1804);fill-opacity:1;"/>
<path d="M83.7897 92.436C83.4568 92.4683 83.1237 92.4258 82.8171 92.2901C77.3332 90.0078 71.3511 89.2173 65.4665 89.9811C59.5505 90.6365 53.9238 92.844 49.1414 96.3789C48.8797 96.5831 48.5755 96.714 48.2455 96.7561C47.5206 96.8378 46.8097 96.4877 46.425 95.8613C46.0432 95.2448 46.0644 94.4687 46.4685 93.8705C54.4105 82.1594 70.3361 79.1068 82.0471 87.0488C83.0061 87.7013 83.9201 88.4203 84.7836 89.186C85.3271 89.6594 85.5443 90.4092 85.3381 91.0999C85.1277 91.8131 84.5187 92.3317 83.7897 92.436Z" fill="#1A1717" style="fill:#1A1717;fill:color(display-p3 0.1020 0.0902 0.0902);fill-opacity:1;"/>
<path d="M83.7897 92.436C83.4568 92.4683 83.1237 92.4258 82.8171 92.2901C77.3332 90.0078 71.3511 89.2173 65.4665 89.9811C59.5505 90.6365 53.9238 92.844 49.1414 96.3789C48.8797 96.5831 48.5755 96.714 48.2455 96.7561C47.5206 96.8378 46.8097 96.4877 46.425 95.8613C46.0432 95.2448 46.0644 94.4687 46.4685 93.8705C54.4105 82.1594 70.3361 79.1068 82.0471 87.0488C83.0061 87.7013 83.9201 88.4203 84.7836 89.186C85.3271 89.6594 85.5443 90.4092 85.3381 91.0999C85.1277 91.8131 84.5187 92.3317 83.7897 92.436Z" fill="#5D4037" style="fill:#5D4037;fill:color(display-p3 0.3647 0.2510 0.2157);fill-opacity:1;"/>
<path d="M80.3504 52.776C84.5305 53.0642 88.088 56.8579 87.6835 62.724C87.279 68.59 83.2352 71.8496 79.0551 71.5613C74.8751 71.2731 71.3176 67.4794 71.7214 61.6233C72.1252 55.7672 76.1704 52.4877 80.3504 52.776Z" fill="#49362E" style="fill:#49362E;fill:color(display-p3 0.2863 0.2118 0.1804);fill-opacity:1;"/>
<path d="M80.3504 52.776C84.5305 53.0642 88.088 56.8579 87.6835 62.724C87.279 68.59 83.2352 71.8496 79.0551 71.5613C74.8751 71.2731 71.3176 67.4794 71.7214 61.6233C72.1252 55.7672 76.1704 52.4877 80.3504 52.776Z" fill="#1A1717" style="fill:#1A1717;fill:color(display-p3 0.1020 0.0902 0.0902);fill-opacity:1;"/>
<path d="M80.3504 52.776C84.5305 53.0642 88.088 56.8579 87.6835 62.724C87.279 68.59 83.2352 71.8496 79.0551 71.5613C74.8751 71.2731 71.3176 67.4794 71.7214 61.6233C72.1252 55.7672 76.1704 52.4877 80.3504 52.776Z" fill="#49362E" style="fill:#49362E;fill:color(display-p3 0.2863 0.2118 0.1804);fill-opacity:1;"/>
<path d="M44.5499 52.0366C40.3698 51.7484 36.3253 55.0179 35.9215 60.874C35.5178 66.7301 39.0745 70.5337 43.2546 70.822C47.4447 71.1109 51.4792 67.8407 51.8836 61.9746C52.2881 56.1085 48.7399 52.3255 44.5499 52.0366Z" fill="#49362E" style="fill:#49362E;fill:color(display-p3 0.2863 0.2118 0.1804);fill-opacity:1;"/>
<path d="M44.5499 52.0366C40.3698 51.7484 36.3253 55.0179 35.9215 60.874C35.5178 66.7301 39.0745 70.5337 43.2546 70.822C47.4447 71.1109 51.4792 67.8407 51.8836 61.9746C52.2881 56.1085 48.7399 52.3255 44.5499 52.0366Z" fill="#1A1717" style="fill:#1A1717;fill:color(display-p3 0.1020 0.0902 0.0902);fill-opacity:1;"/>
<path d="M44.5499 52.0366C40.3698 51.7484 36.3253 55.0179 35.9215 60.874C35.5178 66.7301 39.0745 70.5337 43.2546 70.822C47.4447 71.1109 51.4792 67.8407 51.8836 61.9746C52.2881 56.1085 48.7399 52.3255 44.5499 52.0366Z" fill="#49362E" style="fill:#49362E;fill:color(display-p3 0.2863 0.2118 0.1804);fill-opacity:1;"/>
<path d="M44.8592 54.4715C46.2792 53.7915 47.9892 54.3915 48.6792 55.8115C49.2092 56.9215 48.9692 58.2515 48.0792 59.1115C46.6592 59.7915 44.9492 59.1915 44.2592 57.7715C43.7292 56.6615 43.9692 55.3315 44.8592 54.4715Z" fill="#555050" style="fill:#555050;fill:color(display-p3 0.3333 0.3125 0.3125);fill-opacity:1;"/>
<path d="M44.8592 54.4715C46.2792 53.7915 47.9892 54.3915 48.6792 55.8115C49.2092 56.9215 48.9692 58.2515 48.0792 59.1115C46.6592 59.7915 44.9492 59.1915 44.2592 57.7715C43.7292 56.6615 43.9692 55.3315 44.8592 54.4715Z" fill="#6A564E" style="fill:#6A564E;fill:color(display-p3 0.4167 0.3385 0.3056);fill-opacity:1;"/>
<path d="M81.6792 55.9904C83.1092 55.3204 84.8092 55.9304 85.4892 57.3604C86.0092 58.4704 85.7692 59.7804 84.8892 60.6304C83.4592 61.3004 81.7592 60.6904 81.0792 59.2604C80.5592 58.1604 80.7992 56.8404 81.6792 55.9904Z" fill="#555050" style="fill:#555050;fill:color(display-p3 0.3333 0.3125 0.3125);fill-opacity:1;"/>
<path d="M81.6792 55.9904C83.1092 55.3204 84.8092 55.9304 85.4892 57.3604C86.0092 58.4704 85.7692 59.7804 84.8892 60.6304C83.4592 61.3004 81.7592 60.6904 81.0792 59.2604C80.5592 58.1604 80.7992 56.8404 81.6792 55.9904Z" fill="#6A564E" style="fill:#6A564E;fill:color(display-p3 0.4167 0.3385 0.3056);fill-opacity:1;"/>
<path d="M32.7992 39.3215C32.1883 38.7076 31.9143 37.8273 32.0694 36.9772C32.2537 36.1202 32.8562 35.4194 33.6762 35.1086C38.7751 33.0048 44.4826 32.9557 49.615 34.9585C51.5298 35.6901 53.3162 36.6995 54.9282 37.967C55.0294 38.0454 55.1232 38.136 55.2194 38.2362C56.1289 39.1073 56.2334 40.5222 55.4659 41.5199C54.6491 42.6118 53.145 42.9436 51.9475 42.2859L52.1964 41.5264L51.8412 42.2292C46.7254 39.6978 40.9081 38.9505 35.3271 40.1212C34.4035 40.3439 33.4309 40.0641 32.772 39.3795L32.7992 39.3215Z" fill="#49362E" style="fill:#49362E;fill:color(display-p3 0.2863 0.2118 0.1804);fill-opacity:1;"/>
<path d="M89.2727 47.6315C89.896 47.0595 90.2063 46.2132 90.1066 45.3732C89.961 44.5133 89.4044 43.7835 88.6094 43.4299C83.5914 41.091 77.8579 40.7761 72.6232 42.573C70.6799 43.2165 68.8481 44.1519 67.1815 45.3458L66.8714 45.5954C65.9306 46.4291 65.766 47.8369 66.4874 48.8665C67.2615 49.9863 68.7232 50.3745 69.9481 49.7808L69.7606 49.0031L70.0796 49.7286C75.2798 47.405 81.1124 46.8936 86.6405 48.2764C87.5576 48.5388 88.5394 48.3021 89.2361 47.6506L89.2727 47.6315Z" fill="#49362E" style="fill:#49362E;fill:color(display-p3 0.2863 0.2118 0.1804);fill-opacity:1;"/>
<defs>
<radialGradient id="paint0_radial_169_13731" cx="0" cy="0" r="1" gradientUnits="userSpaceOnUse" gradientTransform="translate(63.6001 62.9) scale(56.9597 56.9597)">
<stop offset="0.5" stop-color="#FDE030" style="stop-color:#FDE030;stop-color:color(display-p3 0.9922 0.8784 0.1882);stop-opacity:1;"/>
<stop offset="0.92" stop-color="#F7C02B" style="stop-color:#F7C02B;stop-color:color(display-p3 0.9686 0.7529 0.1686);stop-opacity:1;"/>
<stop offset="1" stop-color="#F4A223" style="stop-color:#F4A223;stop-color:color(display-p3 0.9569 0.6353 0.1373);stop-opacity:1;"/>
</radialGradient>
<radialGradient id="paint1_radial_169_13731" cx="0" cy="0" r="1" gradientUnits="userSpaceOnUse" gradientTransform="translate(38.5991 34.5377) rotate(-43.2082) scale(102.024 101.825)">
<stop offset="0.3533" stop-color="#F9DDBD" style="stop-color:#F9DDBD;stop-color:color(display-p3 0.9765 0.8667 0.7412);stop-opacity:1;"/>
<stop offset="0.8723" stop-color="#FFD29C" style="stop-color:#FFD29C;stop-color:color(display-p3 1.0000 0.8235 0.6118);stop-opacity:1;"/>
</radialGradient>
<radialGradient id="paint2_radial_169_13731" cx="0" cy="0" r="1" gradientUnits="userSpaceOnUse" gradientTransform="translate(38.5991 34.5377) rotate(-43.2082) scale(102.024 101.825)">
<stop offset="0.3533" stop-color="#70534A" style="stop-color:#70534A;stop-color:color(display-p3 0.4392 0.3255 0.2902);stop-opacity:1;"/>
<stop offset="0.8723" stop-color="#5C4037" style="stop-color:#5C4037;stop-color:color(display-p3 0.3608 0.2510 0.2157);stop-opacity:1;"/>
</radialGradient>
<radialGradient id="paint3_radial_169_13731" cx="0" cy="0" r="1" gradientUnits="userSpaceOnUse" gradientTransform="translate(38.5991 34.5377) rotate(-43.2082) scale(102.024 101.825)">
<stop offset="0.3533" stop-color="#A37A58" style="stop-color:#A37A58;stop-color:color(display-p3 0.6375 0.4772 0.3453);stop-opacity:1;"/>
<stop offset="0.8723" stop-color="#8D5738" style="stop-color:#8D5738;stop-color:color(display-p3 0.5529 0.3412 0.2196);stop-opacity:1;"/>
</radialGradient>
<radialGradient id="paint4_radial_169_13731" cx="0" cy="0" r="1" gradientUnits="userSpaceOnUse" gradientTransform="translate(38.5991 34.5377) rotate(-43.2082) scale(102.024 101.825)">
<stop offset="0.3533" stop-color="#AD8264" style="stop-color:#AD8264;stop-color:color(display-p3 0.6784 0.5098 0.3922);stop-opacity:1;"/>
<stop offset="0.8723" stop-color="#A47B62" style="stop-color:#A47B62;stop-color:color(display-p3 0.6431 0.4824 0.3843);stop-opacity:1;"/>
</radialGradient>
</defs>
</svg>
