<svg width="128" height="128" viewBox="0 0 128 128" fill="none" xmlns="http://www.w3.org/2000/svg">
<path d="M24.35 62.6999H24.36C24.48 60.2499 27.08 57.9599 31.57 56.6099C41.18 53.7199 51.84 52.0299 64 51.9299C76.15 52.0299 86.81 53.7199 96.43 56.6099C100.92 57.9599 103.5 60.2499 103.63 62.6999H103.65V63.0199C103.65 63.0399 103.65 63.0499 103.65 63.0699V112.78C103.76 115.58 100.63 118.58 93.39 120.63C85.91 122.75 75.79 124.12 64.01 124.12C52.23 124.12 42.11 122.75 34.63 120.63C27.04 118.48 23.97 115.29 24.41 112.38H24.37V62.6999H24.35Z" fill="#E2A610" style="fill:#E2A610;fill:color(display-p3 0.8863 0.6510 0.0627);fill-opacity:1;"/>
<path d="M56.1003 108.24L60.5903 97.6599C58.0303 96.4199 56.2603 93.7998 56.2603 90.7598C56.2603 86.5198 59.7003 83.0898 63.9303 83.0898C68.1603 83.0898 71.6003 86.5298 71.6003 90.7598C71.6003 93.6098 70.0403 96.0998 67.7303 97.4198L71.9103 108.31C72.4403 109.69 71.4203 111.16 69.9503 111.16H58.0303C56.5303 111.16 55.5203 109.62 56.1003 108.24Z" fill="#4E342E" style="fill:#4E342E;fill:color(display-p3 0.3059 0.2039 0.1804);fill-opacity:1;"/>
<path d="M56.53 107.26H71.52L71.92 108.31C72.45 109.69 71.43 111.16 69.96 111.16H58.04C56.53 111.16 55.52 109.62 56.11 108.24L56.53 107.26Z" fill="#9E740B" style="fill:#9E740B;fill:color(display-p3 0.6196 0.4549 0.0431);fill-opacity:1;"/>
<path d="M67.0499 95.3998C66.8699 94.8798 67.0599 94.3198 67.4999 93.9998C68.0999 93.5598 68.9099 92.7798 69.4199 91.5398C71.2799 87.0598 69.0699 85.0698 69.0699 85.0698C70.6299 86.4698 71.6099 88.4998 71.6099 90.7598C71.6099 93.6098 70.0499 96.0998 67.7399 97.4198L67.0499 95.3998Z" fill="#9E740B" style="fill:#9E740B;fill:color(display-p3 0.6196 0.4549 0.0431);fill-opacity:1;"/>
<path d="M58.5401 85.2998C58.5401 85.2998 56.3401 89.7198 58.8601 92.5498C59.7201 93.5098 60.4501 94.0198 60.9901 94.2698C61.5201 94.5198 61.7601 95.1498 61.5101 95.6798L60.5801 97.6398C58.0201 96.3998 56.2501 93.7798 56.2501 90.7398C56.2701 87.4898 58.5401 85.2998 58.5401 85.2998Z" fill="#9E740B" style="fill:#9E740B;fill:color(display-p3 0.6196 0.4549 0.0431);fill-opacity:1;"/>
<path d="M33.2602 55.9499C42.3702 53.2999 52.4802 51.7599 64.0002 51.6599C75.5202 51.7499 85.6302 53.2999 94.7402 55.9399C103.87 58.5899 104.78 65.1999 91.8502 68.7399C84.7602 70.6799 75.1602 71.9299 64.0002 71.9299C52.8402 71.9299 43.2402 70.6799 36.1502 68.7399C23.2202 65.2099 24.1302 58.5899 33.2602 55.9499Z" fill="#FDD835" style="fill:#FDD835;fill:color(display-p3 0.9922 0.8471 0.2078);fill-opacity:1;"/>
<path d="M36.8502 42.2099C36.8502 42.2099 37.2202 43.9299 42.0702 43.9299C46.9202 43.9299 45.9502 42.2099 45.9502 42.2099V36.1499C45.9502 25.2599 52.4602 14.9899 64.0102 14.9899C73.4102 14.9899 81.0702 23.1399 81.0702 33.1499V62.2099C81.0702 62.2099 83.1802 63.9299 87.0202 63.9299C90.8602 63.9299 92.1602 62.2099 92.1602 62.2099V33.1599C92.1502 17.0199 79.5202 3.88989 64.0002 3.88989C48.4802 3.88989 36.8502 18.6599 36.8502 36.1499V42.2099Z" fill="#84B0C1" stroke="#84B0C1" style="fill:#84B0C1;fill:color(display-p3 0.5176 0.6902 0.7569);fill-opacity:1;stroke:#84B0C1;stroke:color(display-p3 0.5176 0.6902 0.7569);stroke-opacity:1;" stroke-width="1.9584" stroke-miterlimit="10"/>
<path d="M42.8816 32.17C42.4916 34.14 41.9216 38.65 40.4216 38.54C39.1716 38.45 38.9916 35.91 38.9816 33.91C38.9716 31.91 39.5816 25.69 42.0016 19.96C42.9116 17.8 46.7416 11.83 50.4816 13.75C52.9316 15.01 49.4216 19.4 47.9516 21.2C45.9916 23.61 43.7216 27.92 42.8816 32.17Z" fill="#B9E4EA" style="fill:#B9E4EA;fill:color(display-p3 0.7255 0.8941 0.9176);fill-opacity:1;"/>
<path d="M42.2602 65.0698C38.7145 65.0698 35.8402 63.6058 35.8402 61.7998C35.8402 59.9938 38.7145 58.5298 42.2602 58.5298C45.8058 58.5298 48.6802 59.9938 48.6802 61.7998C48.6802 63.6058 45.8058 65.0698 42.2602 65.0698Z" fill="#9E740B" style="fill:#9E740B;fill:color(display-p3 0.6196 0.4549 0.0431);fill-opacity:1;"/>
</svg>
