<svg width="128" height="128" viewBox="0 0 128 128" fill="none" xmlns="http://www.w3.org/2000/svg">
<path d="M63.6 124.8C38.79 124.8 12 109.24 12 75.09C12 40.94 38.79 25.38 63.6 25.38C77.38 25.38 90.1 29.91 99.53 38.18C109.75 47.26 115.18 60.06 115.18 75.09C115.18 90.12 109.75 102.84 99.53 111.91C90.1 120.18 77.29 124.8 63.6 124.8Z" fill="url(#paint0_radial_169_6778)" style=""/>
<path d="M63.6 124.8C38.79 124.8 12 109.24 12 75.09C12 40.94 38.79 25.38 63.6 25.38C77.38 25.38 90.1 29.91 99.53 38.18C109.75 47.26 115.18 60.06 115.18 75.09C115.18 90.12 109.75 102.84 99.53 111.91C90.1 120.18 77.29 124.8 63.6 124.8Z" fill="url(#paint1_radial_169_6778)" style=""/>
<path d="M63.6 124.8C38.79 124.8 12 109.24 12 75.09C12 40.94 38.79 25.38 63.6 25.38C77.38 25.38 90.1 29.91 99.53 38.18C109.75 47.26 115.18 60.06 115.18 75.09C115.18 90.12 109.75 102.84 99.53 111.91C90.1 120.18 77.29 124.8 63.6 124.8Z" fill="url(#paint2_radial_169_6778)" style=""/>
<path d="M106.19 45.54C111.07 53.64 113.57 62.96 113.4 72.42C113.4 87.42 107.97 100.17 97.75 109.24C88.32 117.51 75.52 122.13 61.82 122.13C45.76 122.13 28.89 115.6 18.98 101.73C28.55 117.44 46.54 124.8 63.6 124.8C77.29 124.8 90.1 120.18 99.53 111.91C109.75 102.83 115.18 90.12 115.18 75.09C115.18 63.76 112.09 53.69 106.19 45.54Z" fill="#EB8F00" style="fill:#EB8F00;fill:color(display-p3 0.9216 0.5608 0.0000);fill-opacity:1;"/>
<path d="M106.19 45.54C111.07 53.64 113.57 62.96 113.4 72.42C113.4 87.42 107.97 100.17 97.75 109.24C88.32 117.51 75.52 122.13 61.82 122.13C45.76 122.13 28.89 115.6 18.98 101.73C28.55 117.44 46.54 124.8 63.6 124.8C77.29 124.8 90.1 120.18 99.53 111.91C109.75 102.83 115.18 90.12 115.18 75.09C115.18 63.76 112.09 53.69 106.19 45.54Z" fill="#F3B872" style="fill:#F3B872;fill:color(display-p3 0.9542 0.7229 0.4453);fill-opacity:1;"/>
<path d="M106.19 45.54C111.07 53.64 113.57 62.96 113.4 72.42C113.4 87.42 107.97 100.17 97.75 109.24C88.32 117.51 75.52 122.13 61.82 122.13C45.76 122.13 28.89 115.6 18.98 101.73C28.55 117.44 46.54 124.8 63.6 124.8C77.29 124.8 90.1 120.18 99.53 111.91C109.75 102.83 115.18 90.12 115.18 75.09C115.18 63.76 112.09 53.69 106.19 45.54Z" fill="#BA8F63" style="fill:#BA8F63;fill:color(display-p3 0.7294 0.5608 0.3882);fill-opacity:1;"/>
<path opacity="0.8" d="M33.8 88.1C43.465 88.1 51.3 80.7127 51.3 71.6C51.3 62.4873 43.465 55.1 33.8 55.1C24.135 55.1 16.3 62.4873 16.3 71.6C16.3 80.7127 24.135 88.1 33.8 88.1Z" fill="url(#paint3_radial_169_6778)" style=""/>
<path opacity="0.8" d="M94.2 88.1C103.865 88.1 111.7 80.7127 111.7 71.6C111.7 62.4873 103.865 55.1 94.2 55.1C84.535 55.1 76.7 62.4873 76.7 71.6C76.7 80.7127 84.535 88.1 94.2 88.1Z" fill="url(#paint4_radial_169_6778)" style=""/>
<path d="M24 19.9999C27.866 19.9999 31 17.7613 31 14.9999C31 12.2385 27.866 9.99988 24 9.99988C20.134 9.99988 17 12.2385 17 14.9999C17 17.7613 20.134 19.9999 24 19.9999Z" fill="#FF00A2" style="fill:#FF00A2;fill:color(display-p3 1.0000 0.0000 0.6353);fill-opacity:1;"/>
<path d="M53.4472 29.2702C55.0874 27.63 54.6759 24.5592 52.528 22.4113C50.3801 20.2635 47.3093 19.8519 45.6691 21.4921C44.0289 23.1323 44.4405 26.2031 46.5884 28.351C48.7362 30.4988 51.807 30.9104 53.4472 29.2702Z" fill="#FD3B3B" style="fill:#FD3B3B;fill:color(display-p3 0.9922 0.2314 0.2314);fill-opacity:1;"/>
<path d="M74.8974 21.2959C78.566 18.4562 80.4713 14.7734 79.1529 13.0701C77.8345 11.3668 73.7916 12.288 70.123 15.1276C66.4543 17.9673 64.549 21.6501 65.8674 23.3534C67.1859 25.0567 71.2287 24.1355 74.8974 21.2959Z" fill="#00EEFF" style="fill:#00EEFF;fill:color(display-p3 0.0000 0.9333 1.0000);fill-opacity:1;"/>
<path d="M25.9581 87.3058C27.3451 86.505 27.0144 83.3356 25.2195 80.2268C23.4245 77.118 20.8451 75.247 19.4581 76.0478C18.071 76.8486 18.4017 80.018 20.1967 83.1268C21.9916 86.2356 24.571 88.1066 25.9581 87.3058Z" fill="#0048FF" style="fill:#0048FF;fill:color(display-p3 0.0000 0.2824 1.0000);fill-opacity:1;"/>
<path d="M96.5 116C98.433 116 100 113.537 100 110.5C100 107.462 98.433 105 96.5 105C94.567 105 93 107.462 93 110.5C93 113.537 94.567 116 96.5 116Z" fill="#F63BBE" style="fill:#F63BBE;fill:color(display-p3 0.9647 0.2314 0.7451);fill-opacity:1;"/>
<path d="M116.53 58.7297C119.465 56.6634 121.33 54.2561 120.694 53.3529C120.058 52.4497 117.163 53.3926 114.228 55.4589C111.292 57.5252 109.428 59.9325 110.064 60.8357C110.7 61.7389 113.595 60.796 116.53 58.7297Z" fill="#00CC00" style="fill:#00CC00;fill:color(display-p3 0.0000 0.8000 0.0000);fill-opacity:1;"/>
<path d="M22.4803 121.036C23.6347 120.279 23.0969 117.418 21.279 114.648C19.4611 111.877 17.0515 110.245 15.8971 111.003C14.7427 111.76 15.2806 114.62 17.0985 117.391C18.9164 120.161 21.3259 121.793 22.4803 121.036Z" fill="#0048FF" style="fill:#0048FF;fill:color(display-p3 0.0000 0.2824 1.0000);fill-opacity:1;"/>
<path d="M15.1771 101.495C18.4825 101.26 21.0829 99.9535 20.9851 98.5763C20.8873 97.199 18.1285 96.2727 14.8231 96.5073C11.5177 96.7419 8.91735 98.0486 9.0151 99.4259C9.11286 100.803 11.8717 101.729 15.1771 101.495Z" fill="#7ACDED" style="fill:#7ACDED;fill:color(display-p3 0.4784 0.8039 0.9294);fill-opacity:1;"/>
<path d="M24.1188 88.3981C28.0865 88.134 31.2524 87.1606 31.19 86.2237C31.1277 85.2869 27.8607 84.7415 23.893 85.0056C19.9253 85.2696 16.7594 86.2431 16.8217 87.1799C16.8841 88.1167 20.1511 88.6621 24.1188 88.3981Z" fill="#FF82B2" style="fill:#FF82B2;fill:color(display-p3 1.0000 0.5098 0.6980);fill-opacity:1;"/>
<path d="M118.9 78.1999C118.05 75.2599 116.02 72.7999 113.3 71.3999C108.7 68.8999 102.94 70.6099 100.45 75.2099C100.43 75.2399 100.42 75.2699 100.4 75.2999C98.32 79.2199 99.79 84.0899 103.7 86.1999C105.25 87.0699 107.07 87.3199 108.8 86.8999C110.58 86.4999 112.08 85.3299 112.9 83.6999C113.79 81.8199 113.71 79.6199 112.7 77.7999C111.88 76.1999 110.29 75.1399 108.5 74.9999C107.47 74.9799 106.63 75.7999 106.61 76.8299C106.6 77.7599 107.28 78.5599 108.2 78.6999C108.71 78.7299 109.17 79.0399 109.4 79.4999C109.75 80.2099 109.82 81.0399 109.6 81.7999C109.26 82.4699 108.64 82.9499 107.9 83.0999C107.09 83.3099 106.23 83.1999 105.5 82.7999C104.5 82.2699 103.75 81.3699 103.4 80.2999C103.1 79.1999 103.21 78.0299 103.7 76.9999C104.4 75.6399 105.63 74.6199 107.1 74.1999C108.57 73.7799 110.13 73.9199 111.5 74.5999C113.29 75.5799 114.62 77.2399 115.2 79.1999C115.81 81.1699 115.59 83.2999 114.6 85.0999C112.7 88.6999 109 91.0999 103.6 91.0999C100.5 91.0999 82.05 90.5999 82.05 90.5999L82.27 95.1999L103.4 94.8999C109.7 94.8999 114.9 92.3999 117.9 86.7999C119.48 84.2199 119.84 81.0699 118.9 78.1999Z" fill="url(#paint5_linear_169_6778)" style=""/>
<path d="M70 92.9999C70.61 93.6499 71.08 94.4099 71.4 95.2399L82.85 95.1699C82.85 93.6699 82.65 92.1699 82.65 90.5699C79.65 90.4699 73.47 90.3699 71.55 90.2999C71.27 91.3299 70.72 92.2699 69.94 92.9999H70Z" fill="#7F0099" style="fill:#7F0099;fill:color(display-p3 0.4980 0.0000 0.6000);fill-opacity:1;"/>
<path d="M104.8 54.8L108.3 55.3L109.2 51.8L109.7 49.8L89.6 47C98.7 53.9 104.2 54.8 104.8 54.8Z" fill="#FF4545" style="fill:#FF4545;fill:color(display-p3 1.0000 0.2706 0.2706);fill-opacity:1;"/>
<path d="M120.9 5.3999L112.8 9.9999L110.8 11.0999L119.2 12.2999C119.8 9.7999 120.9 5.3999 120.9 5.3999Z" fill="#FF4545" style="fill:#FF4545;fill:color(display-p3 1.0000 0.2706 0.2706);fill-opacity:1;"/>
<path d="M103 15.5L94.7 20.2L116.4 23.3L117.8 17.6L103 15.5Z" fill="#FF4545" style="fill:#FF4545;fill:color(display-p3 1.0000 0.2706 0.2706);fill-opacity:1;"/>
<path d="M79.3 28.9H79.2L113.7 33.9L115 28.6L86.9 24.6L79.3 28.9Z" fill="#FF4545" style="fill:#FF4545;fill:color(display-p3 1.0000 0.2706 0.2706);fill-opacity:1;"/>
<path d="M82.2 40.4L111 44.5L112.4 39.1L77.7 34.1C78.1 35.2 79.3 37.4 82.2 40.4Z" fill="#FF4545" style="fill:#FF4545;fill:color(display-p3 1.0000 0.2706 0.2706);fill-opacity:1;"/>
<path d="M86.9 24.6L115 28.6L116.4 23.2999L94.7 20.2L86.9 24.6Z" fill="#FF9C9C" style="fill:#FF9C9C;fill:color(display-p3 1.0000 0.6118 0.6118);fill-opacity:1;"/>
<path d="M118.6 14.5C118.6 14.5 118.9 13.1 119.1 12.4L110.7 11.2L102.9 15.6L117.7 17.7L118.6 14.5Z" fill="#FF9C9C" style="fill:#FF9C9C;fill:color(display-p3 1.0000 0.6118 0.6118);fill-opacity:1;"/>
<path d="M76.3 30.5L77.4 33.7C77.44 33.88 77.51 34.05 77.6 34.2L112.3 39.2L113.6 33.9L79.1 29L76.3 30.5Z" fill="#FF9C9C" style="fill:#FF9C9C;fill:color(display-p3 1.0000 0.6118 0.6118);fill-opacity:1;"/>
<path d="M89.2 46.7C89.3 46.8 89.5 46.9 89.6 47L109.7 49.9L111 44.6L82.2 40.5C84.39 42.72 86.73 44.79 89.2 46.7Z" fill="#FF9C9C" style="fill:#FF9C9C;fill:color(display-p3 1.0000 0.6118 0.6118);fill-opacity:1;"/>
<path d="M120.8 11.3C123.451 11.3 125.6 9.15092 125.6 6.49995C125.6 3.84898 123.451 1.69995 120.8 1.69995C118.149 1.69995 116 3.84898 116 6.49995C116 9.15092 118.149 11.3 120.8 11.3Z" fill="#C93737" style="fill:#C93737;fill:color(display-p3 0.7882 0.2157 0.2157);fill-opacity:1;"/>
<path d="M71.84 91.83C73.31 90.56 74.23 88.77 74.41 86.83C74.69 84.88 74.11 82.91 72.81 81.43C70.48 78.37 64 79.13 64 79.13C62.26 79.2 60.25 80.03 60.5 82.03C60.83 83.18 61.76 84.06 62.92 84.32C65.48 84.93 69.13 84.32 69.23 86.92C69.35 89.84 64.87 88.64 64.51 91.73C64.15 94.82 69.23 94.41 69.23 96.54C69.23 98.17 67.56 98.45 65.8 98.82C64.29 99.13 61.39 99.6 61.16 101.33C60.93 103.06 61.92 105.19 66 104.57C72.42 103.57 74.58 100.08 74.58 97.92C74.62 95.58 73.62 93.35 71.84 91.83Z" fill="#5D4037" style="fill:#5D4037;fill:color(display-p3 0.3647 0.2510 0.2157);fill-opacity:1;"/>
<path d="M49.86 65.43L49.71 65.24L49.31 64.73L48.8 64.18C48.6 63.96 48.36 63.72 48.12 63.48C47.87 63.24 47.61 63.01 47.33 62.8C47.08 62.61 46.82 62.44 46.54 62.29C46.35 62.18 46.14 62.1 45.92 62.06C45.85 62.05 45.79 62.05 45.72 62.06C45.72 62.06 45.72 62.06 45.64 62.06H45.82H45.3C45.17 62.06 45.3 62.06 45.3 62.06H45.37C45.37 62.06 45.45 62.06 45.37 62.06C45.33 62.05 45.3 62.05 45.26 62.06C45.04 62.1 44.83 62.18 44.64 62.29C44.36 62.44 44.1 62.61 43.85 62.8C43.59 63 43.32 63.24 43.06 63.48C42.57 63.96 42.14 64.48 41.84 64.79L41.36 65.36L41.14 65.61C39.78 67.12 37.5 67.36 35.85 66.18C34.8 65.45 34.26 64.18 34.46 62.91C34.46 62.91 34.53 62.53 34.71 61.91C34.99 60.95 35.39 60.03 35.89 59.17C36.67 57.75 37.73 56.5 39 55.5C39.87 54.84 40.83 54.31 41.86 53.94C42.14 53.83 42.44 53.74 42.73 53.67C43.06 53.57 43.39 53.5 43.73 53.45L44.31 53.37H44.79H45.31H46.05H46.53C46.84 53.37 47.16 53.45 47.47 53.5C48.08 53.61 48.67 53.77 49.25 53.98C50.28 54.35 51.24 54.88 52.11 55.54C53.4 56.52 54.49 57.75 55.29 59.16C55.58 59.65 55.84 60.17 56.05 60.7C56.24 61.14 56.38 61.61 56.5 61.96C56.62 62.31 56.61 62.48 56.65 62.65V62.88C56.92 64.81 55.57 66.6 53.64 66.87C53.6 66.88 53.56 66.88 53.53 66.88C52.14 67.09 50.73 66.54 49.86 65.43Z" fill="#5D4037" style="fill:#5D4037;fill:color(display-p3 0.3647 0.2510 0.2157);fill-opacity:1;"/>
<path d="M87 65.43L86.85 65.24L86.45 64.73L86 64.18C85.8 63.96 85.56 63.72 85.32 63.48C85.07 63.24 84.81 63.01 84.53 62.8C84.28 62.61 84.02 62.44 83.74 62.29C83.55 62.18 83.34 62.1 83.13 62.06C83.06 62.05 83 62.05 82.93 62.06C82.93 62.06 82.87 62.06 82.85 62.06H83H82.48C82.34 62.06 82.48 62.06 82.48 62.06H82.55C82.55 62.06 82.63 62.06 82.55 62.06H82.44C82.23 62.1 82.02 62.18 81.83 62.29C81.55 62.44 81.29 62.61 81.04 62.8C80.76 63.01 80.5 63.24 80.25 63.48C79.75 63.96 79.33 64.48 79.02 64.79L78.54 65.36L78.32 65.61C76.96 67.12 74.68 67.36 73.03 66.18C71.98 65.45 71.44 64.18 71.64 62.91C71.64 62.91 71.71 62.53 71.9 61.91C72.15 60.94 72.52 60 73 59.12C73.8 57.71 74.89 56.48 76.18 55.5C77.05 54.84 78.02 54.31 79.05 53.94C79.33 53.83 79.62 53.74 79.91 53.67C80.24 53.57 80.57 53.5 80.91 53.45L81.49 53.37H81.97H82.49H83.23H83.71C84.03 53.37 84.34 53.45 84.65 53.5C86.34 53.79 87.93 54.48 89.3 55.5C90.59 56.48 91.67 57.71 92.48 59.12C92.77 59.61 93.02 60.13 93.23 60.66C93.41 61.07 93.56 61.49 93.68 61.92C93.75 62.15 93.8 62.38 93.83 62.61V62.84C94.11 64.76 92.77 66.55 90.85 66.82C90.81 66.83 90.77 66.83 90.72 66.84C89.32 67.06 87.9 66.53 87 65.43Z" fill="#5D4037" style="fill:#5D4037;fill:color(display-p3 0.3647 0.2510 0.2157);fill-opacity:1;"/>
<defs>
<radialGradient id="paint0_radial_169_6778" cx="0" cy="0" r="1" gradientUnits="userSpaceOnUse" gradientTransform="translate(63.59 75.0901) scale(50.6587 50.6587)">
<stop offset="0.5" stop-color="#FDE030" style="stop-color:#FDE030;stop-color:color(display-p3 0.9922 0.8784 0.1882);stop-opacity:1;"/>
<stop offset="0.92" stop-color="#F7C02B" style="stop-color:#F7C02B;stop-color:color(display-p3 0.9686 0.7529 0.1686);stop-opacity:1;"/>
<stop offset="1" stop-color="#F4A223" style="stop-color:#F4A223;stop-color:color(display-p3 0.9569 0.6353 0.1373);stop-opacity:1;"/>
</radialGradient>
<radialGradient id="paint1_radial_169_6778" cx="0" cy="0" r="1" gradientUnits="userSpaceOnUse" gradientTransform="translate(41.3521 49.8684) rotate(-43.2013) scale(90.7383 90.5595)">
<stop offset="0.3533" stop-color="#F9DDBD" style="stop-color:#F9DDBD;stop-color:color(display-p3 0.9765 0.8667 0.7412);stop-opacity:1;"/>
<stop offset="0.8723" stop-color="#FFD29C" style="stop-color:#FFD29C;stop-color:color(display-p3 1.0000 0.8235 0.6118);stop-opacity:1;"/>
</radialGradient>
<radialGradient id="paint2_radial_169_6778" cx="0" cy="0" r="1" gradientUnits="userSpaceOnUse" gradientTransform="translate(41.3521 49.8684) rotate(-43.2013) scale(90.7383 90.5595)">
<stop offset="0.3533" stop-color="#E0BB95" style="stop-color:#E0BB95;stop-color:color(display-p3 0.8784 0.7333 0.5843);stop-opacity:1;"/>
<stop offset="0.8723" stop-color="#CCA47A" style="stop-color:#CCA47A;stop-color:color(display-p3 0.8000 0.6431 0.4784);stop-opacity:1;"/>
</radialGradient>
<radialGradient id="paint3_radial_169_6778" cx="0" cy="0" r="1" gradientUnits="userSpaceOnUse" gradientTransform="translate(33.7999 75.1191) scale(19.0478 17.1041)">
<stop stop-color="#ED7770" style="stop-color:#ED7770;stop-color:color(display-p3 0.9294 0.4667 0.4392);stop-opacity:1;"/>
<stop offset="0.9" stop-color="#ED7770" stop-opacity="0" style="stop-color:none;stop-opacity:0;"/>
</radialGradient>
<radialGradient id="paint4_radial_169_6778" cx="0" cy="0" r="1" gradientUnits="userSpaceOnUse" gradientTransform="translate(126.52 1172.59) scale(19.43)">
<stop stop-color="#ED7770" style="stop-color:#ED7770;stop-color:color(display-p3 0.9294 0.4667 0.4392);stop-opacity:1;"/>
<stop offset="0.9" stop-color="#ED7770" stop-opacity="0" style="stop-color:none;stop-opacity:0;"/>
</radialGradient>
<linearGradient id="paint5_linear_169_6778" x1="82.19" y1="82.7254" x2="119.38" y2="82.7254" gradientUnits="userSpaceOnUse">
<stop stop-color="#004054" style="stop-color:#004054;stop-color:color(display-p3 0.0000 0.2510 0.3294);stop-opacity:1;"/>
<stop offset="0.99" stop-color="#45A4FF" style="stop-color:#45A4FF;stop-color:color(display-p3 0.2706 0.6431 1.0000);stop-opacity:1;"/>
</linearGradient>
</defs>
</svg>
