<svg width="128" height="128" viewBox="0 0 128 128" fill="none" xmlns="http://www.w3.org/2000/svg">
<path d="M63.6 118.8C35.7 118.8 5.59998 101.3 5.59998 62.9C5.59998 24.5 35.7 7 63.6 7C79.1 7 93.4 12.1 104 21.4C115.5 31.6 121.6 46 121.6 62.9C121.6 79.8 115.5 94.1 104 104.3C93.4 113.6 79 118.8 63.6 118.8Z" fill="url(#paint0_radial_169_10787)" style=""/>
<path d="M63.6 118.8C35.7 118.8 5.59998 101.3 5.59998 62.9C5.59998 24.5 35.7 7 63.6 7C79.1 7 93.4 12.1 104 21.4C115.5 31.6 121.6 46 121.6 62.9C121.6 79.8 115.5 94.1 104 104.3C93.4 113.6 79 118.8 63.6 118.8Z" fill="url(#paint1_radial_169_10787)" style=""/>
<path d="M63.6 118.8C35.7 118.8 5.59998 101.3 5.59998 62.9C5.59998 24.5 35.7 7 63.6 7C79.1 7 93.4 12.1 104 21.4C115.5 31.6 121.6 46 121.6 62.9C121.6 79.8 115.5 94.1 104 104.3C93.4 113.6 79 118.8 63.6 118.8Z" fill="url(#paint2_radial_169_10787)" style=""/>
<path d="M63.6 118.8C35.7 118.8 5.59998 101.3 5.59998 62.9C5.59998 24.5 35.7 7 63.6 7C79.1 7 93.4 12.1 104 21.4C115.5 31.6 121.6 46 121.6 62.9C121.6 79.8 115.5 94.1 104 104.3C93.4 113.6 79 118.8 63.6 118.8Z" fill="url(#paint3_radial_169_10787)" style=""/>
<path d="M111.49 29.67C116.82 38.27 119.6 48.51 119.6 59.9C119.6 76.8 113.5 91.1 102 101.3C91.4 110.6 77 115.8 61.6 115.8C43.54 115.8 24.6 108.45 13.42 92.86C24.18 110.52 44.42 118.8 63.6 118.8C79 118.8 93.4 113.6 104 104.3C115.5 94.1 121.6 79.8 121.6 62.9C121.6 50.16 118.13 38.84 111.49 29.67Z" fill="#EB8F00" style="fill:#EB8F00;fill:color(display-p3 0.9216 0.5608 0.0000);fill-opacity:1;"/>
<path d="M111.49 29.67C116.82 38.27 119.6 48.51 119.6 59.9C119.6 76.8 113.5 91.1 102 101.3C91.4 110.6 77 115.8 61.6 115.8C43.54 115.8 24.6 108.45 13.42 92.86C24.18 110.52 44.42 118.8 63.6 118.8C79 118.8 93.4 113.6 104 104.3C115.5 94.1 121.6 79.8 121.6 62.9C121.6 50.16 118.13 38.84 111.49 29.67Z" fill="#F3B872" style="fill:#F3B872;fill:color(display-p3 0.9542 0.7229 0.4453);fill-opacity:1;"/>
<path d="M111.49 29.67C116.82 38.27 119.6 48.51 119.6 59.9C119.6 76.8 113.5 91.1 102 101.3C91.4 110.6 77 115.8 61.6 115.8C43.54 115.8 24.6 108.45 13.42 92.86C24.18 110.52 44.42 118.8 63.6 118.8C79 118.8 93.4 113.6 104 104.3C115.5 94.1 121.6 79.8 121.6 62.9C121.6 50.16 118.13 38.84 111.49 29.67Z" fill="#4A2F27" style="fill:#4A2F27;fill:color(display-p3 0.2902 0.1843 0.1529);fill-opacity:1;"/>
<path d="M89.7399 79.1C81.3899 76.6 72.7099 75.39 63.9999 75.5C55.1699 75.42 46.3799 76.68 37.9299 79.25C34.9999 84.02 33.4399 89.5 33.3999 95.1C33.3499 98.62 36.1599 101.51 39.6799 101.56C40.6899 101.57 41.6999 101.35 42.5999 100.9C49.3099 97.76 56.5999 96.06 63.9999 95.9C71.4099 96.04 78.6999 97.75 85.3999 100.9C88.5499 102.46 92.3699 101.18 93.9399 98.02C94.3899 97.11 94.6199 96.11 94.5999 95.1C94.5399 89.41 92.8499 83.86 89.7399 79.1Z" fill="#42312C" style="fill:#42312C;fill:color(display-p3 0.2588 0.1922 0.1725);fill-opacity:1;"/>
<path d="M89.7399 79.1C81.3899 76.6 72.7099 75.39 63.9999 75.5C55.1699 75.42 46.3799 76.68 37.9299 79.25C34.9999 84.02 33.4399 89.5 33.3999 95.1C33.3499 98.62 36.1599 101.51 39.6799 101.56C40.6899 101.57 41.6999 101.35 42.5999 100.9C49.3099 97.76 56.5999 96.06 63.9999 95.9C71.4099 96.04 78.6999 97.75 85.3999 100.9C88.5499 102.46 92.3699 101.18 93.9399 98.02C94.3899 97.11 94.6199 96.11 94.5999 95.1C94.5399 89.41 92.8499 83.86 89.7399 79.1Z" fill="#42312C" style="fill:#42312C;fill:color(display-p3 0.2588 0.1922 0.1725);fill-opacity:1;"/>
<path d="M89.7399 79.1C83.6999 69.6 73.0899 67.2 63.9999 67.2C54.1199 67.2 43.6999 69.67 37.9299 79.2C46.3799 76.65 55.1699 75.4 63.9999 75.5C72.7099 75.39 81.3899 76.6 89.7399 79.1Z" fill="white" style="fill:white;fill-opacity:1;"/>
<path d="M33.73 30.91C31.53 31.31 31.43 34.51 33.83 34.61C39.13 34.68 44.25 32.71 48.13 29.11C49.61 27.83 50.86 26.31 51.83 24.61C52.41 23.78 52.21 22.64 51.38 22.06C50.55 21.48 49.41 21.68 48.83 22.51L48.73 22.61C44.81 26.99 39.52 29.92 33.73 30.91Z" fill="#42312C" style="fill:#42312C;fill:color(display-p3 0.2588 0.1922 0.1725);fill-opacity:1;"/>
<path d="M33.73 30.91C31.53 31.31 31.43 34.51 33.83 34.61C39.13 34.68 44.25 32.71 48.13 29.11C49.61 27.83 50.86 26.31 51.83 24.61C52.41 23.78 52.21 22.64 51.38 22.06C50.55 21.48 49.41 21.68 48.83 22.51L48.73 22.61C44.81 26.99 39.52 29.92 33.73 30.91Z" fill="#42312C" style="fill:#42312C;fill:color(display-p3 0.2588 0.1922 0.1725);fill-opacity:1;"/>
<path d="M78.44 22.51C77.86 21.68 76.72 21.48 75.89 22.06C75.06 22.64 74.86 23.78 75.44 24.61C76.41 26.31 77.66 27.83 79.14 29.11C83.04 32.68 88.15 34.65 93.44 34.61C95.94 34.51 95.74 31.31 93.54 30.91C87.68 29.95 82.35 26.98 78.44 22.51Z" fill="#42312C" style="fill:#42312C;fill:color(display-p3 0.2588 0.1922 0.1725);fill-opacity:1;"/>
<path d="M78.44 22.51C77.86 21.68 76.72 21.48 75.89 22.06C75.06 22.64 74.86 23.78 75.44 24.61C76.41 26.31 77.66 27.83 79.14 29.11C83.04 32.68 88.15 34.65 93.44 34.61C95.94 34.51 95.74 31.31 93.54 30.91C87.68 29.95 82.35 26.98 78.44 22.51Z" fill="#42312C" style="fill:#42312C;fill:color(display-p3 0.2588 0.1922 0.1725);fill-opacity:1;"/>
<path d="M34.47 41.22C34.47 41.22 47.52 42.58 56.54 52.08C57.53 53.09 57.51 54.71 56.49 55.7C56.08 56.1 55.56 56.35 55 56.41C51.51 56.73 46.29 58.52 39 64.05C39 64.05 35.06 67.8 31.94 64.05C29.48 61.05 33.94 57.65 33.94 57.65C33.94 57.65 39.19 52.89 45.43 52.56L33.85 49.94C32.67 49.78 31.56 49.25 30.7 48.42C29.56 47.46 29.16 45.89 29.7 44.5C30.43 42.5 32.34 41.19 34.47 41.22Z" fill="#42312C" style="fill:#42312C;fill:color(display-p3 0.2588 0.1922 0.1725);fill-opacity:1;"/>
<path d="M34.47 41.22C34.47 41.22 47.52 42.58 56.54 52.08C57.53 53.09 57.51 54.71 56.49 55.7C56.08 56.1 55.56 56.35 55 56.41C51.51 56.73 46.29 58.52 39 64.05C39 64.05 35.06 67.8 31.94 64.05C29.48 61.05 33.94 57.65 33.94 57.65C33.94 57.65 39.19 52.89 45.43 52.56L33.85 49.94C32.67 49.78 31.56 49.25 30.7 48.42C29.56 47.46 29.16 45.89 29.7 44.5C30.43 42.5 32.34 41.19 34.47 41.22Z" fill="#42312C" style="fill:#42312C;fill:color(display-p3 0.2588 0.1922 0.1725);fill-opacity:1;"/>
<path d="M94 41.22C94 41.22 81 42.58 71.94 52.08C70.95 53.09 70.98 54.71 71.99 55.7C72.4 56.1 72.94 56.35 73.51 56.41C77 56.73 82.21 58.52 89.51 64.05C89.51 64.05 93.44 67.8 96.57 64.05C99.03 61.05 94.57 57.65 94.57 57.65C94.57 57.65 89.32 52.89 83.08 52.56L94.54 49.94C95.73 49.78 96.83 49.25 97.7 48.42C98.83 47.46 99.24 45.89 98.7 44.5C97.98 42.53 96.1 41.22 94 41.22Z" fill="#42312C" style="fill:#42312C;fill:color(display-p3 0.2588 0.1922 0.1725);fill-opacity:1;"/>
<path d="M94 41.22C94 41.22 81 42.58 71.94 52.08C70.95 53.09 70.98 54.71 71.99 55.7C72.4 56.1 72.94 56.35 73.51 56.41C77 56.73 82.21 58.52 89.51 64.05C89.51 64.05 93.44 67.8 96.57 64.05C99.03 61.05 94.57 57.65 94.57 57.65C94.57 57.65 89.32 52.89 83.08 52.56L94.54 49.94C95.73 49.78 96.83 49.25 97.7 48.42C98.83 47.46 99.24 45.89 98.7 44.5C97.98 42.53 96.1 41.22 94 41.22Z" fill="#42312C" style="fill:#42312C;fill:color(display-p3 0.2588 0.1922 0.1725);fill-opacity:1;"/>
<path d="M63.94 65.7C67.46 65.73 70.97 66.17 74.4 67C77.88 67.83 81.17 69.3 84.11 71.34C87.01 73.45 89.4 76.19 91.11 79.34C92.82 82.41 94.03 85.74 94.67 89.19C94.99 90.91 95.16 92.65 95.16 94.4C95.2 95.32 95.1 96.23 94.86 97.12C94.59 98.02 94.14 98.85 93.55 99.57C92.35 100.99 90.62 101.87 88.76 102C87.85 102.05 86.93 101.93 86.06 101.65C85.19 101.33 84.47 100.94 83.68 100.65C77.48 97.79 70.77 96.17 63.94 95.9C70.8 95.91 77.6 97.27 83.94 99.9C84.74 100.21 85.54 100.6 86.28 100.84C87.05 101.05 87.85 101.12 88.64 101.05C90.22 100.89 91.66 100.1 92.64 98.85C93.11 98.24 93.45 97.53 93.64 96.78C93.82 96.01 93.88 95.21 93.81 94.42C93.74 92.74 93.52 91.06 93.16 89.42C92.43 86.17 91.18 83.06 89.44 80.22C87.77 77.4 85.49 74.99 82.77 73.16C80.02 71.4 76.97 70.16 73.77 69.52C70.52 68.87 67.21 68.58 63.9 68.67L63.94 65.7Z" fill="#EB8F00" style="fill:#EB8F00;fill:color(display-p3 0.9216 0.5608 0.0000);fill-opacity:1;"/>
<path d="M63.94 65.7C67.46 65.73 70.97 66.17 74.4 67C77.88 67.83 81.17 69.3 84.11 71.34C87.01 73.45 89.4 76.19 91.11 79.34C92.82 82.41 94.03 85.74 94.67 89.19C94.99 90.91 95.16 92.65 95.16 94.4C95.2 95.32 95.1 96.23 94.86 97.12C94.59 98.02 94.14 98.85 93.55 99.57C92.35 100.99 90.62 101.87 88.76 102C87.85 102.05 86.93 101.93 86.06 101.65C85.19 101.33 84.47 100.94 83.68 100.65C77.48 97.79 70.77 96.17 63.94 95.9C70.8 95.91 77.6 97.27 83.94 99.9C84.74 100.21 85.54 100.6 86.28 100.84C87.05 101.05 87.85 101.12 88.64 101.05C90.22 100.89 91.66 100.1 92.64 98.85C93.11 98.24 93.45 97.53 93.64 96.78C93.82 96.01 93.88 95.21 93.81 94.42C93.74 92.74 93.52 91.06 93.16 89.42C92.43 86.17 91.18 83.06 89.44 80.22C87.77 77.4 85.49 74.99 82.77 73.16C80.02 71.4 76.97 70.16 73.77 69.52C70.52 68.87 67.21 68.58 63.9 68.67L63.94 65.7Z" fill="#F3B872" style="fill:#F3B872;fill:color(display-p3 0.9542 0.7229 0.4453);fill-opacity:1;"/>
<path d="M63.94 65.7C67.46 65.73 70.97 66.17 74.4 67C77.88 67.83 81.17 69.3 84.11 71.34C87.01 73.45 89.4 76.19 91.11 79.34C92.82 82.41 94.03 85.74 94.67 89.19C94.99 90.91 95.16 92.65 95.16 94.4C95.2 95.32 95.1 96.23 94.86 97.12C94.59 98.02 94.14 98.85 93.55 99.57C92.35 100.99 90.62 101.87 88.76 102C87.85 102.05 86.93 101.93 86.06 101.65C85.19 101.33 84.47 100.94 83.68 100.65C77.48 97.79 70.77 96.17 63.94 95.9C70.8 95.91 77.6 97.27 83.94 99.9C84.74 100.21 85.54 100.6 86.28 100.84C87.05 101.05 87.85 101.12 88.64 101.05C90.22 100.89 91.66 100.1 92.64 98.85C93.11 98.24 93.45 97.53 93.64 96.78C93.82 96.01 93.88 95.21 93.81 94.42C93.74 92.74 93.52 91.06 93.16 89.42C92.43 86.17 91.18 83.06 89.44 80.22C87.77 77.4 85.49 74.99 82.77 73.16C80.02 71.4 76.97 70.16 73.77 69.52C70.52 68.87 67.21 68.58 63.9 68.67L63.94 65.7Z" fill="#4A2F27" style="fill:#4A2F27;fill:color(display-p3 0.2902 0.1843 0.1529);fill-opacity:1;"/>
<path d="M64.19 68.7C60.88 68.61 57.57 68.9 54.33 69.55C51.13 70.19 48.08 71.43 45.33 73.19C42.61 75.02 40.3299 77.43 38.6599 80.25C36.9299 83.09 35.6699 86.2 34.9399 89.45C34.5799 91.09 34.36 92.77 34.29 94.45C34.22 95.24 34.2799 96.04 34.4599 96.81C34.6599 97.56 34.9999 98.26 35.4599 98.88C36.4399 100.13 37.8799 100.92 39.4599 101.08C40.2499 101.15 41.0499 101.08 41.82 100.87C42.57 100.63 43.37 100.24 44.16 99.93C50.5 97.3 57.3 95.94 64.16 95.93C57.34 96.18 50.6299 97.77 44.4199 100.61C43.6399 100.95 42.91 101.34 42.04 101.61C41.17 101.89 40.2499 102.01 39.34 101.96C37.47 101.83 35.74 100.95 34.54 99.52C33.94 98.8 33.49 97.97 33.22 97.07C32.98 96.18 32.8799 95.27 32.9199 94.35C32.9299 92.6 33.0999 90.86 33.4099 89.14C34.0699 85.69 35.2799 82.37 36.9999 79.31C38.7099 76.16 41.1 73.42 44 71.31C46.95 69.28 50.25 67.82 53.7299 67C57.16 66.17 60.67 65.73 64.19 65.7V68.7Z" fill="#EB8F00" style="fill:#EB8F00;fill:color(display-p3 0.9216 0.5608 0.0000);fill-opacity:1;"/>
<path d="M64.19 68.7C60.88 68.61 57.57 68.9 54.33 69.55C51.13 70.19 48.08 71.43 45.33 73.19C42.61 75.02 40.3299 77.43 38.6599 80.25C36.9299 83.09 35.6699 86.2 34.9399 89.45C34.5799 91.09 34.36 92.77 34.29 94.45C34.22 95.24 34.2799 96.04 34.4599 96.81C34.6599 97.56 34.9999 98.26 35.4599 98.88C36.4399 100.13 37.8799 100.92 39.4599 101.08C40.2499 101.15 41.0499 101.08 41.82 100.87C42.57 100.63 43.37 100.24 44.16 99.93C50.5 97.3 57.3 95.94 64.16 95.93C57.34 96.18 50.6299 97.77 44.4199 100.61C43.6399 100.95 42.91 101.34 42.04 101.61C41.17 101.89 40.2499 102.01 39.34 101.96C37.47 101.83 35.74 100.95 34.54 99.52C33.94 98.8 33.49 97.97 33.22 97.07C32.98 96.18 32.8799 95.27 32.9199 94.35C32.9299 92.6 33.0999 90.86 33.4099 89.14C34.0699 85.69 35.2799 82.37 36.9999 79.31C38.7099 76.16 41.1 73.42 44 71.31C46.95 69.28 50.25 67.82 53.7299 67C57.16 66.17 60.67 65.73 64.19 65.7V68.7Z" fill="#F3B872" style="fill:#F3B872;fill:color(display-p3 0.9542 0.7229 0.4453);fill-opacity:1;"/>
<path d="M64.19 68.7C60.88 68.61 57.57 68.9 54.33 69.55C51.13 70.19 48.08 71.43 45.33 73.19C42.61 75.02 40.3299 77.43 38.6599 80.25C36.9299 83.09 35.6699 86.2 34.9399 89.45C34.5799 91.09 34.36 92.77 34.29 94.45C34.22 95.24 34.2799 96.04 34.4599 96.81C34.6599 97.56 34.9999 98.26 35.4599 98.88C36.4399 100.13 37.8799 100.92 39.4599 101.08C40.2499 101.15 41.0499 101.08 41.82 100.87C42.57 100.63 43.37 100.24 44.16 99.93C50.5 97.3 57.3 95.94 64.16 95.93C57.34 96.18 50.6299 97.77 44.4199 100.61C43.6399 100.95 42.91 101.34 42.04 101.61C41.17 101.89 40.2499 102.01 39.34 101.96C37.47 101.83 35.74 100.95 34.54 99.52C33.94 98.8 33.49 97.97 33.22 97.07C32.98 96.18 32.8799 95.27 32.9199 94.35C32.9299 92.6 33.0999 90.86 33.4099 89.14C34.0699 85.69 35.2799 82.37 36.9999 79.31C38.7099 76.16 41.1 73.42 44 71.31C46.95 69.28 50.25 67.82 53.7299 67C57.16 66.17 60.67 65.73 64.19 65.7V68.7Z" fill="#4A2F27" style="fill:#4A2F27;fill:color(display-p3 0.2902 0.1843 0.1529);fill-opacity:1;"/>
<defs>
<radialGradient id="paint0_radial_169_10787" cx="0" cy="0" r="1" gradientUnits="userSpaceOnUse" gradientTransform="translate(63.6 62.9) scale(56.9597 56.9597)">
<stop offset="0.5" stop-color="#FDE030" style="stop-color:#FDE030;stop-color:color(display-p3 0.9922 0.8784 0.1882);stop-opacity:1;"/>
<stop offset="0.92" stop-color="#F7C02B" style="stop-color:#F7C02B;stop-color:color(display-p3 0.9686 0.7529 0.1686);stop-opacity:1;"/>
<stop offset="1" stop-color="#F4A223" style="stop-color:#F4A223;stop-color:color(display-p3 0.9569 0.6353 0.1373);stop-opacity:1;"/>
</radialGradient>
<radialGradient id="paint1_radial_169_10787" cx="0" cy="0" r="1" gradientUnits="userSpaceOnUse" gradientTransform="translate(38.599 34.5377) rotate(-43.2082) scale(102.024 101.825)">
<stop offset="0.3533" stop-color="#F9DDBD" style="stop-color:#F9DDBD;stop-color:color(display-p3 0.9765 0.8667 0.7412);stop-opacity:1;"/>
<stop offset="0.8723" stop-color="#FFD29C" style="stop-color:#FFD29C;stop-color:color(display-p3 1.0000 0.8235 0.6118);stop-opacity:1;"/>
</radialGradient>
<radialGradient id="paint2_radial_169_10787" cx="0" cy="0" r="1" gradientUnits="userSpaceOnUse" gradientTransform="translate(38.599 34.5377) rotate(-43.2082) scale(102.024 101.825)">
<stop offset="0.3533" stop-color="#70534A" style="stop-color:#70534A;stop-color:color(display-p3 0.4392 0.3255 0.2902);stop-opacity:1;"/>
<stop offset="0.8723" stop-color="#5C4037" style="stop-color:#5C4037;stop-color:color(display-p3 0.3608 0.2510 0.2157);stop-opacity:1;"/>
</radialGradient>
<radialGradient id="paint3_radial_169_10787" cx="0" cy="0" r="1" gradientUnits="userSpaceOnUse" gradientTransform="translate(38.599 34.5377) rotate(-43.2082) scale(102.024 101.825)">
<stop offset="0.3533" stop-color="#A56C43" style="stop-color:#A56C43;stop-color:color(display-p3 0.6471 0.4235 0.2627);stop-opacity:1;"/>
<stop offset="0.8723" stop-color="#8D5738" style="stop-color:#8D5738;stop-color:color(display-p3 0.5529 0.3412 0.2196);stop-opacity:1;"/>
</radialGradient>
</defs>
</svg>
