<svg width="128" height="129" viewBox="0 0 128 129" fill="none" xmlns="http://www.w3.org/2000/svg">
<path d="M23.9902 20.4657C23.9902 20.4657 24.9602 13.8757 26.2202 11.2357C27.4802 8.59569 29.4602 5.81569 33.2602 5.07569C37.7902 4.19569 90.3102 4.65569 93.9502 4.88569C97.6202 5.12569 100.03 6.27569 101.41 8.53569C102.46 10.2657 102.83 12.3757 103.32 15.5057C103.58 17.1557 104.12 21.6757 104.12 21.6757L23.9902 20.4657Z" fill="#FFA828" style="fill:#FFA828;fill:color(display-p3 1.0000 0.6588 0.1569);fill-opacity:1;"/>
<path d="M50.6302 38.3156L22.4702 33.6356C22.4702 33.6356 23.0602 21.9856 24.2802 18.9356C25.5002 15.8856 27.0102 14.0656 31.4402 13.3056C35.8702 12.5456 46.9702 12.8556 63.6202 12.7056C80.2702 12.5556 94.9302 13.5656 97.5302 13.7156C100.13 13.8656 102.57 15.1456 103.33 17.5856C104.09 20.0256 104.46 23.3256 105.01 29.1956C105.21 31.3256 105.03 35.3556 105.03 35.3556L72.7602 37.5556L50.6302 38.3156Z" fill="#F1EDEC" style="fill:#F1EDEC;fill:color(display-p3 0.9451 0.9294 0.9255);fill-opacity:1;"/>
<path d="M22.2302 36.6857C22.4202 33.6357 22.4802 30.3357 24.8002 28.3657C26.7902 26.6857 30.1502 26.9957 34.1202 26.8357C37.7902 26.6957 47.1002 26.7757 64.6702 26.7757C82.2402 26.7757 97.0302 27.0357 99.7802 27.0357C102.53 27.0357 104.87 29.1857 105.17 31.1757C105.48 33.1657 104.1 117.326 103.95 119.156C103.8 120.986 103.19 124.656 99.2102 124.956C95.2402 125.266 32.7702 125.266 30.1702 124.956C27.5702 124.646 25.2802 122.356 24.8202 118.086C24.3602 113.816 22.0702 39.1257 22.2302 36.6857Z" fill="#D8CDC9" style="fill:#D8CDC9;fill:color(display-p3 0.8471 0.8039 0.7882);fill-opacity:1;"/>
<path d="M29.61 51.0259C31.91 51.3259 33.82 41.4159 36.82 39.1059C39.82 36.8059 45.43 35.5959 45.43 33.2959C45.43 32.1459 41.79 32.1559 38.42 32.1959C35.05 32.2359 32.15 31.9559 30.51 33.6959C28.71 35.5959 28.53 38.6459 28.41 41.7059C28.2 46.6159 28.19 50.8359 29.61 51.0259Z" fill="#F1EDEC" style="fill:#F1EDEC;fill:color(display-p3 0.9451 0.9294 0.9255);fill-opacity:1;"/>
<path d="M79.3398 118.656C79.3398 120.336 80.5698 120.886 87.2198 120.656C92.8398 120.466 95.6198 119.756 97.2898 117.746C98.9598 115.746 99.4198 111.546 99.4898 106.506C99.5298 103.016 99.4398 99.6562 97.6798 99.6562C95.1598 99.6562 95.1699 105.406 93.1599 108.636C89.2199 114.976 79.3398 116.416 79.3398 118.656Z" fill="#F1EDEC" style="fill:#F1EDEC;fill:color(display-p3 0.9451 0.9294 0.9255);fill-opacity:1;"/>
<path fill-rule="evenodd" clip-rule="evenodd" d="M59.2746 57.8147C59.2746 58.7425 59.6883 59.5504 60.5156 60.2383C61.343 60.9262 62.3279 61.2701 63.4705 61.2701C66.9768 61.2701 70.2764 61.814 73.3691 62.9018C76.4618 63.9897 79.1703 65.4694 81.4948 67.3411C83.8192 69.2128 85.6512 71.4044 86.9907 73.916C88.3302 76.4276 89 79.1072 89 81.9547V109.55C89 110.51 88.7735 111.406 88.3204 112.238C87.8673 113.07 87.2567 113.797 86.4884 114.421C85.7202 115.045 84.8239 115.541 83.7995 115.909C82.7752 116.277 81.6721 116.461 80.4901 116.461C79.5052 116.461 78.5597 116.325 77.6535 116.053C76.7474 115.781 75.9299 115.405 75.201 114.925C74.4722 114.445 73.8517 113.877 73.3395 113.222C72.8273 112.566 72.4531 111.854 72.2167 111.086C70.562 110.798 69.1732 110.198 68.0504 109.286C66.9276 108.374 66.1889 107.247 65.8343 105.903C64.8888 105.711 64.0122 105.407 63.2045 104.991C62.3969 104.575 61.6976 104.071 61.1066 103.479C60.5156 102.887 60.0626 102.223 59.7474 101.487C59.4322 100.752 59.2746 99.9837 59.2746 99.1838V92.177C58.5655 92.113 57.8465 92.017 57.1176 91.889C56.3888 91.7611 55.6895 91.6011 55.0197 91.4091V106.095H56.3789C57.1669 106.095 57.8465 106.199 58.4177 106.407C58.989 106.615 59.2746 107.087 59.2746 107.822C59.2746 108.59 58.92 109.078 58.2109 109.286C57.5017 109.494 56.7335 109.598 55.9061 109.598C55.4728 109.598 55.0689 109.59 54.6947 109.574C54.3204 109.558 53.9757 109.55 53.6605 109.55C52.7543 110.19 52.0452 110.966 51.533 111.878C51.0209 112.79 50.7648 113.741 50.7648 114.733C50.7648 115.181 50.5481 115.581 50.1147 115.933C49.6813 116.285 49.1889 116.461 48.6373 116.461C48.0857 116.461 47.5933 116.285 47.1599 115.933C46.7265 115.581 46.5099 115.181 46.5099 114.733C46.5099 113.549 46.7462 112.43 47.219 111.374C46.7856 111.694 46.372 112.046 45.978 112.43C45.584 112.814 45.0521 113.006 44.3824 113.006C43.8308 113.006 43.3384 112.83 42.905 112.478C42.4716 112.126 42.2549 111.726 42.2549 111.278C42.2549 110.702 42.58 110.134 43.23 109.574C43.8801 109.014 44.668 108.502 45.5939 108.038C46.5197 107.574 47.4652 107.183 48.4305 106.863C49.3957 106.543 50.1738 106.335 50.7648 106.239V89.6814L49.4056 88.8655C48.4994 89.5054 47.7903 90.2733 47.2781 91.1692C46.7659 92.065 46.5099 93.0089 46.5099 94.0007C46.5099 94.4806 46.303 94.8885 45.8893 95.2245C45.4757 95.5604 44.9733 95.7284 44.3824 95.7284C43.7914 95.7284 43.2891 95.5604 42.8754 95.2245C42.4618 94.8885 42.2549 94.4806 42.2549 94.0007C42.2549 92.8169 42.4913 91.6971 42.9641 90.6412C42.5307 90.9932 42.117 91.3531 41.7231 91.7211C41.3291 92.089 40.7972 92.273 40.1275 92.273C39.5365 92.273 39.0342 92.113 38.6205 91.7931C38.2068 91.4731 38 91.0732 38 90.5933C38 90.0813 38.3053 89.5534 38.916 89.0095C39.5267 88.4656 40.2457 87.9617 41.073 87.4978C41.9003 87.0339 42.7474 86.6419 43.6141 86.322C44.4809 86.002 45.19 85.7941 45.7416 85.6981C44.5991 84.3863 43.7323 82.9705 43.1414 81.4508C42.5504 79.931 42.2549 78.3713 42.2549 76.7715V45.7207C42.2549 44.6649 42.4716 43.665 42.905 42.7212C43.3384 41.7773 43.9392 40.9295 44.7074 40.1776C45.4757 39.4257 46.3917 38.7938 47.4554 38.2819C48.5191 37.77 49.6813 37.4181 50.9421 37.2261C51.1784 36.2342 51.6217 35.3064 52.2717 34.4425C52.9218 33.5787 53.7097 32.8348 54.6356 32.2109C55.5614 31.587 56.6054 31.0991 57.7677 30.7472C58.9299 30.3952 60.1414 30.2192 61.4021 30.2192C61.9537 30.2192 62.4363 30.3952 62.8499 30.7472C63.2636 31.0991 63.4705 31.499 63.4705 31.947C63.4705 32.4589 63.3129 32.8268 62.9977 33.0508C62.6825 33.2747 62.2787 33.4507 61.7862 33.5787C61.2937 33.7067 60.7422 33.8186 60.1315 33.9146C59.5209 34.0106 58.9102 34.1706 58.2995 34.3946C57.6889 34.6185 57.1176 34.9545 56.5857 35.4024C56.0539 35.8503 55.6107 36.4902 55.2561 37.3221C56.3592 37.514 57.3835 37.85 58.3291 38.3299C59.2746 38.8098 60.1118 39.3857 60.8407 40.0576C61.5695 40.7295 62.1605 41.4814 62.6136 42.3132C63.0666 43.1451 63.3523 44.009 63.4705 44.9048C64.416 45.3847 65.1744 45.8966 65.7457 46.4406C66.3169 46.9845 66.7503 47.5604 67.0458 48.1683C67.3412 48.7762 67.5284 49.4241 67.6072 50.1119C67.686 50.7998 67.7254 51.5277 67.7254 52.2956V54.3592H65.4797C64.6918 54.3592 63.9334 54.3912 63.2045 54.4552C62.4757 54.5192 61.8158 54.6712 61.2248 54.9112C60.6338 55.1511 60.1611 55.5031 59.8065 55.967C59.4519 56.4309 59.2746 57.0468 59.2746 57.8147ZM56.1132 75.0919C56.842 77.3635 57.8959 79.5232 59.2748 81.5709V88.7217C57.6595 88.5297 56.1329 88.1378 54.6949 87.5459C53.2569 86.954 51.9863 86.2101 50.8832 85.3142C49.78 84.4184 48.864 83.3866 48.1352 82.2188C47.4063 81.0509 46.9237 79.8111 46.6873 78.4994H47.3374C47.7314 78.4994 48.1253 78.4914 48.5193 78.4754C48.9133 78.4594 49.2777 78.3954 49.6126 78.2834C49.9475 78.1714 50.2233 77.9954 50.4399 77.7555C50.6566 77.5155 50.765 77.1876 50.765 76.7716C50.765 76.0358 50.4793 75.5638 49.9081 75.3559C49.3368 75.1479 48.6572 75.0439 47.8693 75.0439H46.51V71.5885H47.7511C48.4996 71.5885 49.1891 71.5005 49.8194 71.3246C50.4498 71.1486 50.765 70.6607 50.765 69.8608C50.765 69.1249 50.4793 68.653 49.9081 68.445C49.3368 68.2371 48.6572 68.1331 47.8693 68.1331H46.51V45.7208C46.51 45.0169 46.6775 44.353 47.0124 43.7291C47.3472 43.1052 47.8102 42.5533 48.4011 42.0734C48.9921 41.5935 49.6717 41.2175 50.4399 40.9456C51.2082 40.6736 52.0257 40.5376 52.8924 40.5376C53.7592 40.5376 54.5767 40.6736 55.3449 40.9456C56.1132 41.2175 56.7928 41.5935 57.3837 42.0734C57.9747 42.5533 58.4376 43.1052 58.7725 43.7291C59.1074 44.353 59.2748 45.0169 59.2748 45.7208V47.4485C60.4173 47.4485 61.4023 47.7924 62.2296 48.4803C63.057 49.1682 63.4706 49.9761 63.4706 50.9039C62.2887 50.9039 61.1856 51.0879 60.1613 51.4558C59.1369 51.8238 58.2406 52.3197 57.4724 52.9436C56.7041 53.5675 56.1033 54.2954 55.67 55.1272C55.2366 55.9591 55.0199 56.8549 55.0199 57.8148C55.0199 58.8066 55.276 59.7505 55.7881 60.6463C56.3003 61.5422 57.0095 62.31 57.9156 62.9499C57.0095 63.5898 56.3003 64.3657 55.7881 65.2775C55.276 66.1894 55.0199 67.1412 55.0199 68.1331C55.0199 70.5007 55.3843 72.8203 56.1132 75.0919ZM83.061 75.2599C84.1839 77.3556 84.7453 79.5872 84.7453 81.9548V92.0331C81.6329 91.6812 78.6584 90.9453 75.8217 89.8255C72.9851 88.7057 70.444 87.2339 68.1983 85.4102H78.3629C78.9538 85.4102 79.4562 85.2422 79.8698 84.9063C80.2835 84.5704 80.4903 84.1624 80.4903 83.6825C80.4903 83.2026 80.2835 82.7947 79.8698 82.4587C79.4562 82.1228 78.9538 81.9548 78.3629 81.9548H64.5935C63.6479 80.867 62.8206 79.7152 62.1114 78.4994H69.853C70.444 78.4994 70.9463 78.3314 71.36 77.9954C71.7737 77.6595 71.9805 77.2516 71.9805 76.7716C71.9805 76.2917 71.7737 75.8838 71.36 75.5478C70.9463 75.2119 70.444 75.0439 69.853 75.0439H60.5158C60.3188 74.468 60.1317 73.8921 59.9544 73.3162C59.7771 72.7403 59.6491 72.1644 59.5703 71.5885H65.5981C66.1891 71.5885 66.6914 71.4205 67.1051 71.0846C67.5187 70.7486 67.7256 70.3407 67.7256 69.8608C67.7256 69.3809 67.5187 68.9729 67.1051 68.637C66.6914 68.3011 66.1891 68.1331 65.5981 68.1331H59.2748C59.2748 67.2052 59.6885 66.3974 60.5158 65.7095C61.3432 65.0216 62.3281 64.6776 63.4706 64.6776C66.3861 64.6776 69.134 65.1336 71.7146 66.0454C74.2951 66.9573 76.5506 68.1971 78.4811 69.7648C80.4116 71.3325 81.9382 73.1642 83.061 75.2599ZM84.7453 95.5365C80.6085 95.0886 76.718 94.0808 73.0738 92.513C69.4295 90.9453 66.2285 88.8976 63.4706 86.3701V99.1839C63.4706 100.112 63.8942 100.92 64.7412 101.608C65.5883 102.295 66.583 102.639 67.7256 102.639C68.3165 102.639 68.8188 102.807 69.2325 103.143C69.6462 103.479 69.853 103.887 69.853 104.367C69.853 105.327 70.2667 106.143 71.0941 106.815C71.9214 107.487 72.926 107.823 74.108 107.823C74.6989 107.823 75.2012 107.99 75.6149 108.326C76.0286 108.662 76.2354 109.07 76.2354 109.55C76.2354 110.478 76.659 111.286 77.506 111.974C78.353 112.662 79.3478 113.006 80.4903 113.006C81.6329 113.006 82.6277 112.662 83.4747 111.974C84.3217 111.286 84.7453 110.478 84.7453 109.55V95.5365Z" fill="#426FE4" style="fill:#426FE4;fill:color(display-p3 0.2588 0.4353 0.8941);fill-opacity:1;"/>
<path d="M72.9369 105.705C73.3525 106.043 73.8571 106.213 74.4508 106.213C75.0445 106.213 75.5492 106.043 75.9648 105.705C76.3803 105.366 76.5881 104.955 76.5881 104.471C76.5881 103.988 76.3803 103.576 75.9648 103.238C75.5492 102.899 75.0445 102.73 74.4508 102.73C73.8571 102.73 73.3525 102.899 72.9369 103.238C72.5213 103.576 72.3135 103.988 72.3135 104.471C72.3135 104.955 72.5213 105.366 72.9369 105.705Z" fill="#DF0B26" style="fill:#DF0B26;fill:color(display-p3 0.8745 0.0431 0.1490);fill-opacity:1;"/>
<path d="M54.6512 44.124C54.2356 43.7854 53.731 43.6161 53.1373 43.6161C52.5436 43.6161 52.039 43.7854 51.6234 44.124C51.2078 44.4626 51 44.8738 51 45.3576C51 45.8413 51.2078 46.2525 51.6234 46.5911C52.039 46.9297 52.5436 47.0991 53.1373 47.0991C53.731 47.0991 54.2356 46.9297 54.6512 46.5911C55.0668 46.2525 55.2746 45.8413 55.2746 45.3576C55.2746 44.8738 55.0668 44.4626 54.6512 44.124Z" fill="#DF0B26" style="fill:#DF0B26;fill:color(display-p3 0.8745 0.0431 0.1490);fill-opacity:1;"/>
<path d="M79.3488 110.929C79.7644 111.268 80.269 111.437 80.8627 111.437C81.4564 111.437 81.961 111.268 82.3766 110.929C82.7922 110.591 83 110.18 83 109.696C83 109.212 82.7922 108.801 82.3766 108.462C81.961 108.124 81.4564 107.954 80.8627 107.954C80.269 107.954 79.7644 108.124 79.3488 108.462C78.9332 108.801 78.7254 109.212 78.7254 109.696C78.7254 110.18 78.9332 110.591 79.3488 110.929Z" fill="#DF0B26" style="fill:#DF0B26;fill:color(display-p3 0.8745 0.0431 0.1490);fill-opacity:1;"/>
<path d="M66.525 100.48C66.9406 100.819 67.4453 100.988 68.039 100.988C68.6327 100.988 69.1373 100.819 69.5529 100.48C69.9685 100.142 70.1763 99.7306 70.1763 99.2469C70.1763 98.7631 69.9685 98.3519 69.5529 98.0133C69.1373 97.6747 68.6327 97.5054 68.039 97.5054C67.4453 97.5054 66.9406 97.6747 66.525 98.0133C66.1095 98.3519 65.9017 98.7631 65.9017 99.2469C65.9017 99.7306 66.1095 100.142 66.525 100.48Z" fill="#DF0B26" style="fill:#DF0B26;fill:color(display-p3 0.8745 0.0431 0.1490);fill-opacity:1;"/>
</svg>
