<svg width="128" height="128" viewBox="0 0 128 128" fill="none" xmlns="http://www.w3.org/2000/svg">
<path d="M63.6001 118.8C35.7001 118.8 5.6001 101.3 5.6001 62.9C5.6001 24.5 35.7001 7 63.6001 7C79.1001 7 93.4001 12.1 104 21.4C115.5 31.6 121.6 46 121.6 62.9C121.6 79.8 115.5 94.1 104 104.3C93.4001 113.6 79.0001 118.8 63.6001 118.8Z" fill="url(#paint0_radial_169_8837)" style=""/>
<path d="M63.6001 118.8C35.7001 118.8 5.6001 101.3 5.6001 62.9C5.6001 24.5 35.7001 7 63.6001 7C79.1001 7 93.4001 12.1 104 21.4C115.5 31.6 121.6 46 121.6 62.9C121.6 79.8 115.5 94.1 104 104.3C93.4001 113.6 79.0001 118.8 63.6001 118.8Z" fill="url(#paint1_radial_169_8837)" style=""/>
<path d="M63.6001 118.8C35.7001 118.8 5.6001 101.3 5.6001 62.9C5.6001 24.5 35.7001 7 63.6001 7C79.1001 7 93.4001 12.1 104 21.4C115.5 31.6 121.6 46 121.6 62.9C121.6 79.8 115.5 94.1 104 104.3C93.4001 113.6 79.0001 118.8 63.6001 118.8Z" fill="url(#paint2_radial_169_8837)" style=""/>
<path d="M39.3699 42.45C40.3799 42.45 41.2 41.63 41.2 40.62C41.2 39.61 40.3799 38.79 39.3699 38.79C37.4199 38.59 35.46 38.73 33.56 39.19C28.39 40.3 23.83 43.33 20.79 47.66C19.42 49.75 22.14 51.44 23.74 49.88C27.92 45.67 33.44 43.04 39.34 42.45" fill="#422B0D" style="fill:#422B0D;fill:color(display-p3 0.2588 0.1686 0.0510);fill-opacity:1;"/>
<path d="M39.3699 42.45C40.3799 42.45 41.2 41.63 41.2 40.62C41.2 39.61 40.3799 38.79 39.3699 38.79C37.4199 38.59 35.46 38.73 33.56 39.19C28.39 40.3 23.83 43.33 20.79 47.66C19.42 49.75 22.14 51.44 23.74 49.88C27.92 45.67 33.44 43.04 39.34 42.45" fill="#1A1717" style="fill:#1A1717;fill:color(display-p3 0.1020 0.0902 0.0902);fill-opacity:1;"/>
<path d="M88.2199 42.45C87.2099 42.45 86.3899 41.63 86.3899 40.62C86.3899 39.61 87.2099 38.79 88.2199 38.79C90.1699 38.59 92.1299 38.73 94.0299 39.19C99.1999 40.3 103.77 43.32 106.8 47.66C108.17 49.75 105.45 51.44 103.8 49.88C99.6199 45.67 94.1099 43.04 88.1999 42.45" fill="#422B0D" style="fill:#422B0D;fill:color(display-p3 0.2588 0.1686 0.0510);fill-opacity:1;"/>
<path d="M88.2199 42.45C87.2099 42.45 86.3899 41.63 86.3899 40.62C86.3899 39.61 87.2099 38.79 88.2199 38.79C90.1699 38.59 92.1299 38.73 94.0299 39.19C99.1999 40.3 103.77 43.32 106.8 47.66C108.17 49.75 105.45 51.44 103.8 49.88C99.6199 45.67 94.1099 43.04 88.1999 42.45" fill="#1A1717" style="fill:#1A1717;fill:color(display-p3 0.1020 0.0902 0.0902);fill-opacity:1;"/>
<path d="M46.63 94.31C50.55 93.8 54.37 93.64 58.1 93.43C61.83 93.22 65.5 93.01 68.95 92.43C72.15 92.09 75.26 91.19 78.14 89.77C80.56 88.48 82.32 86.23 83 83.58V83.45C83.51 81.65 85.38 80.61 87.18 81.12C88.66 81.54 89.67 82.91 89.63 84.45C89.58 86.9 88.94 89.3 87.76 91.45C86.53 93.66 84.81 95.56 82.73 97C78.73 99.75 74.34 100.76 70.25 101.42C66.27 101.94 62.26 102.12 58.25 101.95C54.33 101.83 50.49 101.49 46.75 101.06C44.9 100.83 43.58 99.15 43.81 97.29C44 95.75 45.21 94.53 46.75 94.35L46.63 94.31Z" fill="#35220B" style="fill:#35220B;fill:color(display-p3 0.2078 0.1333 0.0431);fill-opacity:1;"/>
<path d="M46.63 94.31C50.55 93.8 54.37 93.64 58.1 93.43C61.83 93.22 65.5 93.01 68.95 92.43C72.15 92.09 75.26 91.19 78.14 89.77C80.56 88.48 82.32 86.23 83 83.58V83.45C83.51 81.65 85.38 80.61 87.18 81.12C88.66 81.54 89.67 82.91 89.63 84.45C89.58 86.9 88.94 89.3 87.76 91.45C86.53 93.66 84.81 95.56 82.73 97C78.73 99.75 74.34 100.76 70.25 101.42C66.27 101.94 62.26 102.12 58.25 101.95C54.33 101.83 50.49 101.49 46.75 101.06C44.9 100.83 43.58 99.15 43.81 97.29C44 95.75 45.21 94.53 46.75 94.35L46.63 94.31Z" fill="#1A1717" style="fill:#1A1717;fill:color(display-p3 0.1020 0.0902 0.0902);fill-opacity:1;"/>
<path d="M48.1599 55.81C42.1099 54.23 35.7199 54.47 29.7999 56.5C28.7399 56.91 28.2099 58.09 28.6199 59.15C28.9999 60.14 30.0599 60.67 31.0799 60.39C33.4499 59.93 35.8699 59.8 38.2799 59.99C38.2799 60.05 38.2799 60.38 38.2799 60.38C38.2799 65.27 41.4499 68.23 44.9499 68.23C46.7399 68.21 48.4499 67.47 49.6899 66.17C51.7699 63.96 52.1999 60.66 50.7399 58C50.1899 56.97 49.2699 56.18 48.1599 55.81Z" fill="#422B0D" style="fill:#422B0D;fill:color(display-p3 0.2588 0.1686 0.0510);fill-opacity:1;"/>
<path d="M48.1599 55.81C42.1099 54.23 35.7199 54.47 29.7999 56.5C28.7399 56.91 28.2099 58.09 28.6199 59.15C28.9999 60.14 30.0599 60.67 31.0799 60.39C33.4499 59.93 35.8699 59.8 38.2799 59.99C38.2799 60.05 38.2799 60.38 38.2799 60.38C38.2799 65.27 41.4499 68.23 44.9499 68.23C46.7399 68.21 48.4499 67.47 49.6899 66.17C51.7699 63.96 52.1999 60.66 50.7399 58C50.1899 56.97 49.2699 56.18 48.1599 55.81Z" fill="#1A1717" style="fill:#1A1717;fill:color(display-p3 0.1020 0.0902 0.0902);fill-opacity:1;"/>
<path d="M95.9998 55.81C89.9498 54.23 83.5598 54.47 77.6398 56.5C76.5698 56.88 75.9998 58.05 76.3798 59.12C76.7598 60.19 77.9298 60.76 78.9998 60.38C81.3698 59.92 83.7899 59.79 86.1899 59.98C86.1899 60.04 86.1899 60.37 86.1899 60.37C86.1899 65.26 89.3699 68.22 92.8598 68.22C94.6598 68.2 96.3699 67.46 97.6098 66.16C99.6598 63.95 100.06 60.67 98.6098 58.03C98.0599 56.99 97.1199 56.19 95.9998 55.81Z" fill="#422B0D" style="fill:#422B0D;fill:color(display-p3 0.2588 0.1686 0.0510);fill-opacity:1;"/>
<path d="M95.9998 55.81C89.9498 54.23 83.5598 54.47 77.6398 56.5C76.5698 56.88 75.9998 58.05 76.3798 59.12C76.7598 60.19 77.9298 60.76 78.9998 60.38C81.3698 59.92 83.7899 59.79 86.1899 59.98C86.1899 60.04 86.1899 60.37 86.1899 60.37C86.1899 65.26 89.3699 68.22 92.8598 68.22C94.6598 68.2 96.3699 67.46 97.6098 66.16C99.6598 63.95 100.06 60.67 98.6098 58.03C98.0599 56.99 97.1199 56.19 95.9998 55.81Z" fill="#1A1717" style="fill:#1A1717;fill:color(display-p3 0.1020 0.0902 0.0902);fill-opacity:1;"/>
<path d="M45.0599 59.18C46.4799 58.5 48.1899 59.1 48.8799 60.52C49.4099 61.63 49.1699 62.96 48.2799 63.82C46.8599 64.5 45.1499 63.9 44.4599 62.48C43.9299 61.37 44.1699 60.04 45.0599 59.18Z" fill="#555050" style="fill:#555050;fill:color(display-p3 0.3333 0.3125 0.3125);fill-opacity:1;"/>
<path d="M93.0598 59.18C94.4898 58.51 96.1898 59.12 96.8698 60.55C97.3898 61.66 97.1498 62.97 96.2698 63.82C94.8398 64.49 93.1398 63.88 92.4598 62.45C91.9398 61.35 92.1798 60.03 93.0598 59.18Z" fill="#555050" style="fill:#555050;fill:color(display-p3 0.3333 0.3125 0.3125);fill-opacity:1;"/>
<path d="M111.49 29.67C116.82 38.27 119.6 48.51 119.6 59.9C119.6 76.8 113.5 91.1 102 101.3C91.3999 110.6 76.9999 115.8 61.5999 115.8C43.5399 115.8 24.5999 108.45 13.4199 92.86C24.1799 110.52 44.4199 118.8 63.5999 118.8C78.9999 118.8 93.3999 113.6 104 104.3C115.5 94.1 121.6 79.8 121.6 62.9C121.6 50.16 118.13 38.84 111.49 29.67Z" fill="#EB8F00" style="fill:#EB8F00;fill:color(display-p3 0.9216 0.5608 0.0000);fill-opacity:1;"/>
<path d="M111.49 29.67C116.82 38.27 119.6 48.51 119.6 59.9C119.6 76.8 113.5 91.1 102 101.3C91.3999 110.6 76.9999 115.8 61.5999 115.8C43.5399 115.8 24.5999 108.45 13.4199 92.86C24.1799 110.52 44.4199 118.8 63.5999 118.8C78.9999 118.8 93.3999 113.6 104 104.3C115.5 94.1 121.6 79.8 121.6 62.9C121.6 50.16 118.13 38.84 111.49 29.67Z" fill="#4A2F27" style="fill:#4A2F27;fill:color(display-p3 0.2902 0.1843 0.1529);fill-opacity:1;"/>
<defs>
<radialGradient id="paint0_radial_169_8837" cx="0" cy="0" r="1" gradientUnits="userSpaceOnUse" gradientTransform="translate(63.6001 62.9) scale(56.9597 56.9597)">
<stop offset="0.5" stop-color="#FDE030" style="stop-color:#FDE030;stop-color:color(display-p3 0.9922 0.8784 0.1882);stop-opacity:1;"/>
<stop offset="0.92" stop-color="#F7C02B" style="stop-color:#F7C02B;stop-color:color(display-p3 0.9686 0.7529 0.1686);stop-opacity:1;"/>
<stop offset="1" stop-color="#F4A223" style="stop-color:#F4A223;stop-color:color(display-p3 0.9569 0.6353 0.1373);stop-opacity:1;"/>
</radialGradient>
<radialGradient id="paint1_radial_169_8837" cx="0" cy="0" r="1" gradientUnits="userSpaceOnUse" gradientTransform="translate(38.5991 34.5377) rotate(-43.2082) scale(102.024 101.825)">
<stop offset="0.3533" stop-color="#F9DDBD" style="stop-color:#F9DDBD;stop-color:color(display-p3 0.9765 0.8667 0.7412);stop-opacity:1;"/>
<stop offset="0.8723" stop-color="#FFD29C" style="stop-color:#FFD29C;stop-color:color(display-p3 1.0000 0.8235 0.6118);stop-opacity:1;"/>
</radialGradient>
<radialGradient id="paint2_radial_169_8837" cx="0" cy="0" r="1" gradientUnits="userSpaceOnUse" gradientTransform="translate(38.5991 34.5377) rotate(-43.2082) scale(102.024 101.825)">
<stop offset="0.3533" stop-color="#70534A" style="stop-color:#70534A;stop-color:color(display-p3 0.4392 0.3255 0.2902);stop-opacity:1;"/>
<stop offset="0.8723" stop-color="#5C4037" style="stop-color:#5C4037;stop-color:color(display-p3 0.3608 0.2510 0.2157);stop-opacity:1;"/>
</radialGradient>
</defs>
</svg>
