<svg width="128" height="129" viewBox="0 0 128 129" fill="none" xmlns="http://www.w3.org/2000/svg">
<path d="M23.9902 19.4657C23.9902 19.4657 24.9602 12.8757 26.2202 10.2357C27.4802 7.59569 29.4602 4.81569 33.2602 4.07569C37.7902 3.19569 90.3102 3.65569 93.9502 3.88569C97.6202 4.12569 100.03 5.27569 101.41 7.53569C102.46 9.26569 102.83 11.3757 103.32 14.5057C103.58 16.1557 104.12 20.6757 104.12 20.6757L23.9902 19.4657Z" fill="#FFA828" style="fill:#FFA828;fill:color(display-p3 1.0000 0.6588 0.1569);fill-opacity:1;"/>
<path d="M50.6302 37.3156L22.4702 32.6356C22.4702 32.6356 23.0602 20.9856 24.2802 17.9356C25.5002 14.8856 27.0102 13.0656 31.4402 12.3056C35.8702 11.5456 46.9702 11.8556 63.6202 11.7056C80.2702 11.5556 94.9302 12.5656 97.5302 12.7156C100.13 12.8656 102.57 14.1456 103.33 16.5856C104.09 19.0256 104.46 22.3256 105.01 28.1956C105.21 30.3256 105.03 34.3556 105.03 34.3556L72.7602 36.5556L50.6302 37.3156Z" fill="#F1EDEC" style="fill:#F1EDEC;fill:color(display-p3 0.9451 0.9294 0.9255);fill-opacity:1;"/>
<path d="M22.2302 35.6857C22.4202 32.6357 22.4802 29.3357 24.8002 27.3657C26.7902 25.6857 30.1502 25.9957 34.1202 25.8357C37.7902 25.6957 47.1002 25.7757 64.6702 25.7757C82.2402 25.7757 97.0302 26.0357 99.7802 26.0357C102.53 26.0357 104.87 28.1857 105.17 30.1757C105.48 32.1657 104.1 116.326 103.95 118.156C103.8 119.986 103.19 123.656 99.2102 123.956C95.2402 124.266 32.7702 124.266 30.1702 123.956C27.5702 123.646 25.2802 121.356 24.8202 117.086C24.3602 112.816 22.0702 38.1257 22.2302 35.6857Z" fill="#D8CDC9" style="fill:#D8CDC9;fill:color(display-p3 0.8471 0.8039 0.7882);fill-opacity:1;"/>
<path d="M29.61 50.0259C31.91 50.3259 33.82 40.4159 36.82 38.1059C39.82 35.8059 45.43 34.5959 45.43 32.2959C45.43 31.1459 41.79 31.1559 38.42 31.1959C35.05 31.2359 32.15 30.9559 30.51 32.6959C28.71 34.5959 28.53 37.6459 28.41 40.7059C28.2 45.6159 28.19 49.8359 29.61 50.0259Z" fill="#F1EDEC" style="fill:#F1EDEC;fill:color(display-p3 0.9451 0.9294 0.9255);fill-opacity:1;"/>
<path d="M79.3398 117.656C79.3398 119.336 80.5698 119.886 87.2198 119.656C92.8398 119.466 95.6198 118.756 97.2898 116.746C98.9598 114.746 99.4198 110.546 99.4898 105.506C99.5298 102.016 99.4398 98.6562 97.6798 98.6562C95.1598 98.6562 95.1699 104.406 93.1599 107.636C89.2199 113.976 79.3398 115.416 79.3398 117.656Z" fill="#F1EDEC" style="fill:#F1EDEC;fill:color(display-p3 0.9451 0.9294 0.9255);fill-opacity:1;"/>
<path d="M66.676 95.9295C66.676 96.6625 67.2702 97.2567 68.0032 97.2567H90.5946C91.6991 97.2567 92.5946 98.1521 92.5946 99.2567V111.619C92.5946 112.661 92.3841 113.483 91.9631 114.083C91.5422 114.684 90.9809 115.142 90.2793 115.458C89.5778 115.774 88.7459 115.979 87.7837 116.074C86.8215 116.169 85.7992 116.216 84.7168 116.216H83.1883C82.4299 116.216 81.7367 115.787 81.3984 115.108L81.3723 115.056C80.7182 113.744 81.6518 112.197 83.1177 112.164L86.3404 112.093C86.8215 112.093 87.1623 112.029 87.3628 111.903C87.5632 111.777 87.6634 111.508 87.6634 111.097V103.096C87.6634 101.991 86.768 101.096 85.6634 101.096H68.676C67.5715 101.096 66.676 101.991 66.676 103.096V103.586C66.676 104.732 67.6369 105.645 68.78 105.566C69.2731 105.533 69.7645 105.496 70.2541 105.457C70.9063 105.404 71.5616 105.347 72.2199 105.285C72.8438 105.227 73.0964 104.457 72.6324 104.036C72.2548 103.693 72.3395 103.078 72.7957 102.85L74.7942 101.852C75.5805 101.459 76.5301 101.626 77.1419 102.258C78.1279 103.275 79.1194 104.27 80.1164 105.243C80.8717 105.981 81.5859 106.751 82.2588 107.554C83.0707 108.522 82.677 109.968 81.5236 110.484L80.9272 110.75C80.0018 111.164 78.919 110.816 78.3454 109.98C78.3244 109.95 78.3034 109.919 78.2822 109.889C78.1127 109.644 77.9343 109.404 77.7471 109.169C77.3465 108.668 76.7023 108.443 76.0649 108.52C71.3116 109.093 66.5583 109.549 61.805 109.889C57.1168 110.223 52.4116 110.404 47.6894 110.43C46.9454 110.434 46.2684 110.004 45.952 109.33L45.408 108.173C45.0629 107.438 45.5988 106.594 46.4103 106.594C48.936 106.594 51.4717 106.555 54.0175 106.476C55.9337 106.416 57.8442 106.334 59.7491 106.23C60.8036 106.173 61.6246 105.298 61.6246 104.242V103.096C61.6246 101.991 60.7292 101.096 59.6246 101.096H44.0204C42.9158 101.096 42.0204 101.991 42.0204 103.096V113.979C42.0204 115.084 41.1249 115.979 40.0204 115.979H39.0291C37.9245 115.979 37.0291 115.084 37.0291 113.979V103.096C37.0291 101.991 36.1337 101.096 35.0291 101.096H34.9197C33.8595 101.096 33 100.237 33 99.1763C33 98.1161 33.8595 97.2567 34.9197 97.2567H36.1996C36.6577 97.2567 37.0291 96.8853 37.0291 96.4272C37.0291 95.9691 37.4005 95.5977 37.8586 95.5977H41.1909C41.649 95.5977 42.0204 95.9691 42.0204 96.4272C42.0204 96.8853 42.3917 97.2567 42.8499 97.2567H60.2975C61.0304 97.2567 61.6246 96.6625 61.6246 95.9295C61.6246 95.1965 61.0304 94.6023 60.2975 94.6023H43.1183C42.0138 94.6023 41.1183 93.7069 41.1183 92.6023V80.0126C41.1183 78.9081 42.0138 78.0126 43.1183 78.0126H85.1222C86.2268 78.0126 87.1222 78.9081 87.1222 80.0126V92.6023C87.1222 93.7069 86.2268 94.6023 85.1222 94.6023H68.0032C67.2702 94.6023 66.676 95.1965 66.676 95.9295ZM50.3191 75.9034C50.3191 75.1573 49.7143 74.5525 48.9682 74.5525H34.9925C33.9585 74.5525 33.1203 73.7143 33.1203 72.6802C33.1203 71.6462 33.9585 70.808 34.9925 70.808H48.3757C49.449 70.808 50.3191 69.9379 50.3191 68.8646C50.3191 67.7913 51.1892 66.9213 52.2625 66.9213H53.4272C54.5004 66.9213 55.3705 67.7913 55.3705 68.8646C55.3705 69.9379 56.2406 70.808 57.3139 70.808H61.376C62.4101 70.808 63.2483 71.6462 63.2483 72.6802C63.2483 73.7143 62.4101 74.5525 61.376 74.5525H56.7214C55.9753 74.5525 55.3705 75.1573 55.3705 75.9034C55.3705 76.6495 54.7657 77.2543 54.0196 77.2543H51.67C50.9239 77.2543 50.3191 76.6495 50.3191 75.9034ZM93.1277 70.808C94.1618 70.808 95 71.6462 95 72.6802C95 73.7143 94.1618 74.5525 93.1277 74.5525H80.8358C80.0898 74.5525 79.485 75.1573 79.485 75.9034C79.485 76.6495 78.8802 77.2543 78.1341 77.2543H75.9648C75.2188 77.2543 74.614 76.6495 74.614 75.9034C74.614 75.1573 74.0092 74.5525 73.2631 74.5525H66.8044C65.7703 74.5525 64.9321 73.7143 64.9321 72.6802C64.9321 71.6462 65.7703 70.808 66.8044 70.808H72.6706C73.7439 70.808 74.614 69.9379 74.614 68.8646C74.614 67.7913 75.484 66.9213 76.5573 66.9213H77.5416C78.6149 66.9213 79.485 67.7913 79.485 68.8646C79.485 69.9379 80.355 70.808 81.4283 70.808H93.1277ZM47.4368 88.1087C46.7038 88.1087 46.1096 88.7028 46.1096 89.4358C46.1096 90.1688 46.7038 90.763 47.4368 90.763H60.2975C61.0304 90.763 61.6246 90.1688 61.6246 89.4358C61.6246 88.7028 61.0304 88.1087 60.2975 88.1087H47.4368ZM68.0032 88.1087C67.2702 88.1087 66.676 88.7028 66.676 89.4358C66.676 90.1688 67.2702 90.763 68.0032 90.763H80.8038C81.5367 90.763 82.1309 90.1688 82.1309 89.4358C82.1309 88.7028 81.5367 88.1087 80.8038 88.1087H68.0032ZM47.3894 81.8046C46.6826 81.8046 46.1096 82.3775 46.1096 83.0843C46.1096 83.7911 46.6826 84.3641 47.3894 84.3641H60.3449C61.0517 84.3641 61.6246 83.7911 61.6246 83.0843C61.6246 82.3775 61.0517 81.8046 60.3449 81.8046H47.3894ZM67.9558 81.8046C67.249 81.8046 66.676 82.3775 66.676 83.0843C66.676 83.7911 67.249 84.3641 67.9558 84.3641H80.8512C81.558 84.3641 82.1309 83.7911 82.1309 83.0843C82.1309 82.3775 81.558 81.8046 80.8512 81.8046H67.9558Z" fill="#DF0B26" style="fill:#DF0B26;fill:color(display-p3 0.8745 0.0431 0.1490);fill-opacity:1;"/>
<path d="M91 55.541V54.3644C91 53.435 90.0608 52.6815 88.9021 52.6815H40.0979C38.9392 52.6815 38 53.435 38 54.3644V55.541C38 56.4704 38.9392 57.2239 40.0979 57.2239H88.9021C90.0608 57.2239 91 56.4704 91 55.541Z" fill="#426FE4" style="fill:#426FE4;fill:color(display-p3 0.2588 0.4353 0.8941);fill-opacity:1;"/>
<path d="M86.2264 36.648V35.4714C86.2264 34.542 85.2871 33.7885 84.1285 33.7885H44.5545C43.3959 33.7885 42.4567 34.542 42.4567 35.4714V36.648C42.4567 37.5774 43.3959 38.3309 44.5545 38.3309H84.1285C85.2871 38.3309 86.2264 37.5774 86.2264 36.648Z" fill="#426FE4" style="fill:#426FE4;fill:color(display-p3 0.2588 0.4353 0.8941);fill-opacity:1;"/>
<path d="M84 45.5264V45.4858C84 44.3812 83.1046 43.4858 82 43.4858H46C44.8954 43.4858 44 44.3812 44 45.4858V45.5264C44 46.6309 44.8954 47.5264 46 47.5264H82C83.1046 47.5264 84 46.6309 84 45.5264Z" fill="#426FE4" style="fill:#426FE4;fill:color(display-p3 0.2588 0.4353 0.8941);fill-opacity:1;"/>
</svg>
