<svg width="128" height="129" viewBox="0 0 128 129" fill="none" xmlns="http://www.w3.org/2000/svg">
<path d="M4 21.5C5.8 20.4 7.7 19.4 9.4 18.7C11.2 17.9 12.9 17.3 14.6 16.7C15.875 16.25 17.15 15.9688 18.425 15.6875C18.85 15.5938 19.275 15.5 19.7 15.4C21.4 15.1 23 14.9 24.6 14.7C26.2 14.6 27.8 14.5 29.4 14.5C31 14.5 32.5 14.6 34 14.7C35.5 14.8 37 15 38.5 15.2C40 15.4 41.5 15.6 42.9 15.9C43.5999 16.05 44.3248 16.2 45.0497 16.3499C45.7747 16.4999 46.5 16.65 47.2 16.8C48.5999 17.1 49.9998 17.4999 51.3997 17.8999L76.6 25.1C77.3 25.3 78 25.475 78.7 25.65C79.4 25.825 80.1 26 80.8 26.2C81.5 26.35 82.225 26.5 82.95 26.65C83.675 26.8 84.4 26.95 85.1 27.1C86.5 27.4 87.9999 27.6 89.4999 27.8C90.9999 28 92.5 28.2 94 28.3C95.5 28.4 97.1 28.5 98.6 28.5C100.011 28.5 101.511 28.4115 103.1 28.3177L103.4 28.3C104.876 28.2132 106.201 27.9757 107.637 27.7183C107.855 27.6792 108.076 27.6396 108.3 27.6C110 27.3 111.6 26.9 113.4 26.3C115.2 25.7 116.9 25.1 118.6 24.3C120.3 23.5 122.2 22.6 124 21.5L124 108.43C122.2 109.53 120.3 110.53 118.6 111.23C116.8 112.03 115.1 112.63 113.4 113.23C112.125 113.68 110.85 113.961 109.575 114.242C109.15 114.336 108.725 114.43 108.3 114.53C107.037 114.827 105.829 114.958 104.635 115.088C104.222 115.133 103.811 115.178 103.4 115.23C101.8 115.33 100.2 115.43 98.6 115.43C97 115.43 95.5 115.33 94 115.23C92.5 115.13 91 114.93 89.5 114.73C88 114.53 86.6 114.33 85.1 114.03C83.6001 113.73 82.2002 113.43 80.8003 113.13C79.4004 112.83 78.0002 112.43 76.6003 112.03L51.4 104.83C50.7 104.63 50 104.455 49.3 104.28C48.6 104.105 47.9 103.93 47.2 103.73C46.2922 103.47 45.3424 103.295 44.4051 103.122C43.8968 103.028 43.3922 102.935 42.9 102.83C41.4 102.53 40 102.33 38.5 102.13C37.0001 101.93 35.4999 101.73 34 101.63C32.5 101.53 30.9 101.43 29.4 101.43C27.9886 101.43 26.4888 101.518 24.9003 101.612C24.8006 101.618 24.7005 101.624 24.6 101.63C23.1244 101.716 21.7994 101.954 20.3635 102.211C20.1452 102.25 19.9244 102.29 19.7 102.33C18 102.63 16.4 103.03 14.6 103.63C12.8 104.23 11.1 104.83 9.4 105.63C7.7 106.43 5.8 107.33 4 108.43V21.5Z" fill="#41A54B" style="fill:#41A54B;fill:color(display-p3 0.2556 0.6458 0.2947);fill-opacity:1;"/>
<path d="M4 21.5C5.8 20.4 7.7 19.4 9.4 18.7C11.2 17.9 12.9 17.3 14.6 16.7C15.875 16.25 17.15 15.9688 18.425 15.6875C18.85 15.5938 19.275 15.5 19.7 15.4C21.4 15.1 23 14.9 24.6 14.7C26.2 14.6 27.8 14.5 29.4 14.5C31 14.5 32.5 14.6 34 14.7C35.5 14.8 37 15 38.5 15.2C40 15.4 41.5 15.6 42.9 15.9C43.5999 16.05 44.3248 16.2 45.0497 16.3499C45.7747 16.4999 46.5 16.65 47.2 16.8C48.5999 17.1 49.9998 17.4999 51.3997 17.8999L76.6 25.1C77.3 25.3 78 25.475 78.7 25.65C79.4 25.825 80.1 26 80.8 26.2C81.5 26.35 82.225 26.5 82.95 26.65C83.675 26.8 84.4 26.95 85.1 27.1C86.5 27.4 87.9999 27.6 89.4999 27.8C90.9999 28 92.5 28.2 94 28.3C95.5 28.4 97.1 28.5 98.6 28.5C100.011 28.5 101.511 28.4115 103.1 28.3177L103.4 28.3C104.876 28.2132 106.201 27.9757 107.637 27.7183C107.855 27.6792 108.076 27.6396 108.3 27.6C110 27.3 111.6 26.9 113.4 26.3C115.2 25.7 116.9 25.1 118.6 24.3C120.3 23.5 122.2 22.6 124 21.5L124 108.43C122.2 109.53 120.3 110.53 118.6 111.23C116.8 112.03 115.1 112.63 113.4 113.23C112.125 113.68 110.85 113.961 109.575 114.242C109.15 114.336 108.725 114.43 108.3 114.53C107.037 114.827 105.829 114.958 104.635 115.088C104.222 115.133 103.811 115.178 103.4 115.23C101.8 115.33 100.2 115.43 98.6 115.43C97 115.43 95.5 115.33 94 115.23C92.5 115.13 91 114.93 89.5 114.73C88 114.53 86.6 114.33 85.1 114.03C83.6001 113.73 82.2002 113.43 80.8003 113.13C79.4004 112.83 78.0002 112.43 76.6003 112.03L51.4 104.83C50.7 104.63 50 104.455 49.3 104.28C48.6 104.105 47.9 103.93 47.2 103.73C46.2922 103.47 45.3424 103.295 44.4051 103.122C43.8968 103.028 43.3922 102.935 42.9 102.83C41.4 102.53 40 102.33 38.5 102.13C37.0001 101.93 35.4999 101.73 34 101.63C32.5 101.53 30.9 101.43 29.4 101.43C27.9886 101.43 26.4888 101.518 24.9003 101.612C24.8006 101.618 24.7005 101.624 24.6 101.63C23.1244 101.716 21.7994 101.954 20.3635 102.211C20.1452 102.25 19.9244 102.29 19.7 102.33C18 102.63 16.4 103.03 14.6 103.63C12.8 104.23 11.1 104.83 9.4 105.63C7.7 106.43 5.8 107.33 4 108.43V21.5Z" fill="#865641" style="fill:#865641;fill:color(display-p3 0.5255 0.3373 0.2549);fill-opacity:1;"/>
<path opacity="0.3" d="M124 107.87C122.15 108.99 120.34 109.93 118.57 110.72C116.79 111.52 115.05 112.17 113.33 112.7C111.61 113.23 109.93 113.65 108.27 113.96C106.61 114.28 104.98 114.5 103.38 114.64C101.77 114.78 100.19 114.84 98.63 114.84C97.07 114.84 95.53 114.78 94.01 114.66C92.49 114.55 90.99 114.38 89.51 114.18C88.03 113.97 86.56 113.73 85.11 113.45C83.66 113.17 82.22 112.87 80.79 112.54C79.36 112.21 77.94 111.86 76.54 111.49C75.14 111.12 73.73 110.73 72.33 110.34C70.93 109.94 69.54 109.53 68.16 109.12C66.77 108.71 65.39 108.29 64 107.87C62.62 107.45 61.23 107.03 59.84 106.62C58.45 106.21 57.06 105.8 55.67 105.4C54.27 105 52.87 104.62 51.46 104.25C50.05 103.88 48.63 103.53 47.21 103.2C45.79 102.87 44.34 102.56 42.89 102.29C41.44 102.01 39.97 101.77 38.49 101.56C37.01 101.35 35.51 101.19 33.99 101.08C32.47 100.97 30.93 100.9 29.37 100.9C27.81 100.9 26.23 100.96 24.62 101.1C23.01 101.24 21.38 101.46 19.73 101.78C18.07 102.1 16.39 102.51 14.67 103.04C12.95 103.57 11.21 104.22 9.43 105.02C7.65 105.82 5.84 106.76 4 107.87V102.26V96.94V91.87V87.01V82.33C4 82.33 4 79.28 4 77.79V73.36C4 73.36 4 70.44 4 69C4 67.56 4 66.11 4 64.67V60.34V55.98V51.55C4 51.55 4 48.55 4 47.01C4 45.47 4 43.92 4 42.33V37.47C4 37.47 4 34.13 4 32.4V27.08V21.47C5.85 20.35 7.66 19.41 9.43 18.62C11.2 17.83 12.95 17.17 14.67 16.64C16.39 16.11 18.07 15.69 19.73 15.38C21.39 15.06 23.02 14.84 24.62 14.7C26.23 14.56 27.81 14.5 29.37 14.5C30.93 14.5 32.47 14.56 33.99 14.68C35.51 14.79 37.01 14.96 38.49 15.16C39.97 15.36 41.44 15.61 42.89 15.89C44.34 16.17 45.78 16.47 47.21 16.8C48.64 17.13 50.06 17.48 51.46 17.85C52.87 18.22 54.27 18.61 55.67 19C57.07 19.39 58.46 19.81 59.84 20.22C61.22 20.63 62.61 21.05 64 21.47C65.38 21.89 66.77 22.31 68.16 22.72C69.55 23.13 70.94 23.54 72.33 23.94C73.72 24.34 75.13 24.72 76.54 25.09C77.95 25.46 79.37 25.81 80.79 26.14C82.22 26.47 83.66 26.78 85.11 27.05C86.56 27.33 88.03 27.57 89.51 27.78C90.99 27.99 92.49 28.15 94.01 28.26C95.53 28.37 97.07 28.44 98.63 28.44C100.19 28.44 101.77 28.38 103.38 28.24C104.99 28.1 106.62 27.88 108.27 27.56C109.93 27.24 111.61 26.83 113.33 26.3C115.05 25.77 116.79 25.12 118.57 24.32C120.35 23.52 122.16 22.58 124 21.47V27.08V32.4V37.47C124 37.47 124 40.74 124 42.33V47.01C124 47.01 124 50.06 124 51.55C124 53.04 124 54.52 124 55.98V60.34V64.67V69C124 69 124 71.9 124 73.36C124 74.82 124 76.3 124 77.79V82.33C124 82.33 124 85.42 124 87.01V91.87V96.94V102.26V107.87Z" fill="url(#paint0_linear_177_563)" style=""/>
<defs>
<linearGradient id="paint0_linear_177_563" x1="5.3703" y1="23.329" x2="122.37" y2="105.83" gradientUnits="userSpaceOnUse">
<stop stop-color="white" stop-opacity="0" style="stop-color:none;stop-opacity:0;"/>
<stop offset="0.1646" stop-color="#C8C8C8" stop-opacity="0.1646" style="stop-color:#C8C8C8;stop-color:color(display-p3 0.7843 0.7843 0.7843);stop-opacity:0.1646;"/>
<stop offset="0.3934" stop-color="#828282" stop-opacity="0.3934" style="stop-color:#828282;stop-color:color(display-p3 0.5098 0.5098 0.5098);stop-opacity:0.3934;"/>
<stop offset="0.5997" stop-color="#4A4A4A" stop-opacity="0.5997" style="stop-color:#4A4A4A;stop-color:color(display-p3 0.2902 0.2902 0.2902);stop-opacity:0.5997;"/>
<stop offset="0.7759" stop-color="#222222" stop-opacity="0.7759" style="stop-color:#222222;stop-color:color(display-p3 0.1333 0.1333 0.1333);stop-opacity:0.7759;"/>
<stop offset="0.9151" stop-color="#090909" stop-opacity="0.9151" style="stop-color:#090909;stop-color:color(display-p3 0.0353 0.0353 0.0353);stop-opacity:0.9151;"/>
<stop offset="1" style="stop-color:black;stop-opacity:1;"/>
</linearGradient>
</defs>
</svg>
