<svg width="128" height="128" viewBox="0 0 128 128" fill="none" xmlns="http://www.w3.org/2000/svg">
<path d="M63.6 118.8C35.7 118.8 5.59998 101.3 5.59998 62.9C5.59998 24.5 35.7 7 63.6 7C79.1 7 93.4 12.1 104 21.4C115.5 31.6 121.6 46 121.6 62.9C121.6 79.8 115.5 94.1 104 104.3C93.4 113.6 79 118.8 63.6 118.8Z" fill="url(#paint0_radial_169_5351)" style=""/>
<path d="M63.6 118.8C35.7 118.8 5.59998 101.3 5.59998 62.9C5.59998 24.5 35.7 7 63.6 7C79.1 7 93.4 12.1 104 21.4C115.5 31.6 121.6 46 121.6 62.9C121.6 79.8 115.5 94.1 104 104.3C93.4 113.6 79 118.8 63.6 118.8Z" fill="url(#paint1_radial_169_5351)" style=""/>
<path d="M111.49 29.67C116.82 38.27 119.6 48.51 119.6 59.9C119.6 76.8 113.5 91.1 102 101.3C91.3999 110.6 76.9999 115.8 61.5999 115.8C43.5399 115.8 24.5999 108.45 13.4199 92.86C24.1799 110.52 44.4199 118.8 63.5999 118.8C78.9999 118.8 93.3999 113.6 104 104.3C115.5 94.1001 121.6 79.8 121.6 62.9C121.6 50.16 118.13 38.84 111.49 29.67Z" fill="#EB8F00" style="fill:#EB8F00;fill:color(display-p3 0.9216 0.5608 0.0000);fill-opacity:1;"/>
<path d="M111.49 29.67C116.82 38.27 119.6 48.51 119.6 59.9C119.6 76.8 113.5 91.1 102 101.3C91.3999 110.6 76.9999 115.8 61.5999 115.8C43.5399 115.8 24.5999 108.45 13.4199 92.86C24.1799 110.52 44.4199 118.8 63.5999 118.8C78.9999 118.8 93.3999 113.6 104 104.3C115.5 94.1001 121.6 79.8 121.6 62.9C121.6 50.16 118.13 38.84 111.49 29.67Z" fill="#F3B872" style="fill:#F3B872;fill:color(display-p3 0.9542 0.7229 0.4453);fill-opacity:1;"/>
<path d="M89.7401 79.0999C81.3901 76.5999 72.7101 75.3899 64.0001 75.4999C55.1701 75.4199 46.3801 76.6799 37.9301 79.2499C35.0001 84.0199 33.4401 89.4999 33.4001 95.0999C33.3501 98.6199 36.1601 101.51 39.6801 101.56C40.6901 101.57 41.7001 101.35 42.6001 100.9C49.3101 97.7599 56.6001 96.0599 64.0001 95.8999C71.4101 96.0399 78.7001 97.7499 85.4001 100.9C88.5501 102.46 92.3701 101.18 93.9401 98.0199C94.3901 97.1099 94.6201 96.1099 94.6001 95.0999C94.5401 89.4099 92.8501 83.8599 89.7401 79.0999Z" fill="#312D2D" style="fill:#312D2D;fill:color(display-p3 0.1922 0.1765 0.1765);fill-opacity:1;"/>
<path d="M89.7401 79.1C83.7001 69.6 73.0901 67.2 64.0001 67.2C54.1201 67.2 43.7001 69.67 37.9301 79.2C46.3801 76.65 55.1701 75.4 64.0001 75.5C72.7101 75.39 81.3901 76.6 89.7401 79.1Z" fill="white" style="fill:white;fill-opacity:1;"/>
<path d="M33.7301 30.91C31.5301 31.31 31.4301 34.51 33.8301 34.61C39.1301 34.68 44.2501 32.71 48.1301 29.11C49.6101 27.83 50.8601 26.31 51.8301 24.61C52.4101 23.78 52.2101 22.64 51.3801 22.06C50.5501 21.48 49.4101 21.68 48.8301 22.51L48.7301 22.61C44.8101 26.99 39.5201 29.92 33.7301 30.91Z" fill="#312D2D" style="fill:#312D2D;fill:color(display-p3 0.1922 0.1765 0.1765);fill-opacity:1;"/>
<path d="M78.44 22.51C77.86 21.68 76.72 21.48 75.89 22.06C75.06 22.64 74.86 23.78 75.44 24.61C76.41 26.31 77.66 27.83 79.14 29.11C83.04 32.68 88.15 34.65 93.44 34.61C95.94 34.51 95.74 31.31 93.54 30.91C87.68 29.95 82.35 26.98 78.44 22.51Z" fill="#312D2D" style="fill:#312D2D;fill:color(display-p3 0.1922 0.1765 0.1765);fill-opacity:1;"/>
<path d="M34.47 41.22C34.47 41.22 47.52 42.58 56.54 52.08C57.53 53.09 57.51 54.71 56.49 55.7C56.08 56.1 55.56 56.35 55 56.41C51.51 56.73 46.29 58.52 39 64.05C39 64.05 35.06 67.8 31.94 64.05C29.48 61.05 33.94 57.65 33.94 57.65C33.94 57.65 39.19 52.89 45.43 52.56L33.85 49.94C32.67 49.78 31.56 49.25 30.7 48.42C29.56 47.46 29.16 45.89 29.7 44.5C30.43 42.5 32.34 41.19 34.47 41.22Z" fill="#312D2D" style="fill:#312D2D;fill:color(display-p3 0.1922 0.1765 0.1765);fill-opacity:1;"/>
<path d="M94 41.22C94 41.22 81 42.58 71.94 52.08C70.95 53.09 70.98 54.71 71.99 55.7C72.4 56.1 72.94 56.35 73.51 56.41C77 56.73 82.21 58.52 89.51 64.05C89.51 64.05 93.44 67.8 96.57 64.05C99.03 61.05 94.57 57.65 94.57 57.65C94.57 57.65 89.32 52.89 83.08 52.56L94.54 49.94C95.73 49.78 96.83 49.25 97.7 48.42C98.83 47.46 99.24 45.89 98.7 44.5C97.98 42.53 96.1 41.22 94 41.22Z" fill="#312D2D" style="fill:#312D2D;fill:color(display-p3 0.1922 0.1765 0.1765);fill-opacity:1;"/>
<path d="M63.94 65.7C67.46 65.73 70.97 66.17 74.4 67C77.88 67.83 81.17 69.3 84.11 71.34C87.01 73.45 89.4 76.19 91.11 79.34C92.82 82.41 94.03 85.74 94.67 89.19C94.99 90.91 95.16 92.65 95.16 94.4C95.2 95.32 95.1 96.23 94.86 97.12C94.59 98.02 94.14 98.85 93.55 99.57C92.35 100.99 90.62 101.87 88.76 102C87.85 102.05 86.93 101.93 86.06 101.65C85.19 101.33 84.47 100.94 83.68 100.65C77.48 97.79 70.77 96.17 63.94 95.9C70.8 95.91 77.6 97.27 83.94 99.9C84.74 100.21 85.54 100.6 86.28 100.84C87.05 101.05 87.85 101.12 88.64 101.05C90.22 100.89 91.66 100.1 92.64 98.85C93.11 98.24 93.45 97.53 93.64 96.78C93.82 96.01 93.88 95.21 93.81 94.42C93.74 92.74 93.52 91.06 93.16 89.42C92.43 86.17 91.18 83.06 89.44 80.22C87.77 77.4 85.49 74.99 82.77 73.16C80.02 71.4 76.97 70.16 73.77 69.52C70.52 68.87 67.21 68.58 63.9 68.67L63.94 65.7Z" fill="#EB8F00" style="fill:#EB8F00;fill:color(display-p3 0.9216 0.5608 0.0000);fill-opacity:1;"/>
<path d="M63.94 65.7C67.46 65.73 70.97 66.17 74.4 67C77.88 67.83 81.17 69.3 84.11 71.34C87.01 73.45 89.4 76.19 91.11 79.34C92.82 82.41 94.03 85.74 94.67 89.19C94.99 90.91 95.16 92.65 95.16 94.4C95.2 95.32 95.1 96.23 94.86 97.12C94.59 98.02 94.14 98.85 93.55 99.57C92.35 100.99 90.62 101.87 88.76 102C87.85 102.05 86.93 101.93 86.06 101.65C85.19 101.33 84.47 100.94 83.68 100.65C77.48 97.79 70.77 96.17 63.94 95.9C70.8 95.91 77.6 97.27 83.94 99.9C84.74 100.21 85.54 100.6 86.28 100.84C87.05 101.05 87.85 101.12 88.64 101.05C90.22 100.89 91.66 100.1 92.64 98.85C93.11 98.24 93.45 97.53 93.64 96.78C93.82 96.01 93.88 95.21 93.81 94.42C93.74 92.74 93.52 91.06 93.16 89.42C92.43 86.17 91.18 83.06 89.44 80.22C87.77 77.4 85.49 74.99 82.77 73.16C80.02 71.4 76.97 70.16 73.77 69.52C70.52 68.87 67.21 68.58 63.9 68.67L63.94 65.7Z" fill="#F3B872" style="fill:#F3B872;fill:color(display-p3 0.9542 0.7229 0.4453);fill-opacity:1;"/>
<path d="M64.1901 68.7C60.8801 68.61 57.5701 68.9 54.3301 69.55C51.1301 70.19 48.0801 71.43 45.3301 73.19C42.6101 75.02 40.3301 77.43 38.6601 80.25C36.9301 83.09 35.6701 86.2 34.9401 89.45C34.5801 91.09 34.3601 92.77 34.2901 94.45C34.2201 95.24 34.2801 96.04 34.4601 96.81C34.6601 97.56 35.0001 98.26 35.4601 98.88C36.4401 100.13 37.8801 100.92 39.4601 101.08C40.2501 101.15 41.0501 101.08 41.8201 100.87C42.5701 100.63 43.3701 100.24 44.1601 99.93C50.5001 97.3 57.3001 95.94 64.1601 95.93C57.3401 96.18 50.6301 97.77 44.4201 100.61C43.6401 100.95 42.9101 101.34 42.0401 101.61C41.1701 101.89 40.2501 102.01 39.3401 101.96C37.4701 101.83 35.7401 100.95 34.5401 99.52C33.9401 98.7999 33.4901 97.97 33.2201 97.07C32.9801 96.18 32.8801 95.27 32.9201 94.35C32.9301 92.6 33.1001 90.86 33.4101 89.14C34.0701 85.69 35.2801 82.37 37.0001 79.31C38.7101 76.16 41.1001 73.42 44.0001 71.31C46.9501 69.28 50.2501 67.82 53.7301 67C57.1601 66.17 60.6701 65.73 64.1901 65.7V68.7Z" fill="#EB8F00" style="fill:#EB8F00;fill:color(display-p3 0.9216 0.5608 0.0000);fill-opacity:1;"/>
<path d="M64.1901 68.7C60.8801 68.61 57.5701 68.9 54.3301 69.55C51.1301 70.19 48.0801 71.43 45.3301 73.19C42.6101 75.02 40.3301 77.43 38.6601 80.25C36.9301 83.09 35.6701 86.2 34.9401 89.45C34.5801 91.09 34.3601 92.77 34.2901 94.45C34.2201 95.24 34.2801 96.04 34.4601 96.81C34.6601 97.56 35.0001 98.26 35.4601 98.88C36.4401 100.13 37.8801 100.92 39.4601 101.08C40.2501 101.15 41.0501 101.08 41.8201 100.87C42.5701 100.63 43.3701 100.24 44.1601 99.93C50.5001 97.3 57.3001 95.94 64.1601 95.93C57.3401 96.18 50.6301 97.77 44.4201 100.61C43.6401 100.95 42.9101 101.34 42.0401 101.61C41.1701 101.89 40.2501 102.01 39.3401 101.96C37.4701 101.83 35.7401 100.95 34.5401 99.52C33.9401 98.7999 33.4901 97.97 33.2201 97.07C32.9801 96.18 32.8801 95.27 32.9201 94.35C32.9301 92.6 33.1001 90.86 33.4101 89.14C34.0701 85.69 35.2801 82.37 37.0001 79.31C38.7101 76.16 41.1001 73.42 44.0001 71.31C46.9501 69.28 50.2501 67.82 53.7301 67C57.1601 66.17 60.6701 65.73 64.1901 65.7V68.7Z" fill="#F3B872" style="fill:#F3B872;fill:color(display-p3 0.9542 0.7229 0.4453);fill-opacity:1;"/>
<defs>
<radialGradient id="paint0_radial_169_5351" cx="0" cy="0" r="1" gradientUnits="userSpaceOnUse" gradientTransform="translate(63.6 62.9) scale(56.9597 56.9597)">
<stop offset="0.5" stop-color="#FDE030" style="stop-color:#FDE030;stop-color:color(display-p3 0.9922 0.8784 0.1882);stop-opacity:1;"/>
<stop offset="0.92" stop-color="#F7C02B" style="stop-color:#F7C02B;stop-color:color(display-p3 0.9686 0.7529 0.1686);stop-opacity:1;"/>
<stop offset="1" stop-color="#F4A223" style="stop-color:#F4A223;stop-color:color(display-p3 0.9569 0.6353 0.1373);stop-opacity:1;"/>
</radialGradient>
<radialGradient id="paint1_radial_169_5351" cx="0" cy="0" r="1" gradientUnits="userSpaceOnUse" gradientTransform="translate(38.599 34.5377) rotate(-43.2082) scale(102.024 101.825)">
<stop offset="0.3533" stop-color="#F9DDBD" style="stop-color:#F9DDBD;stop-color:color(display-p3 0.9765 0.8667 0.7412);stop-opacity:1;"/>
<stop offset="0.8723" stop-color="#FFD29C" style="stop-color:#FFD29C;stop-color:color(display-p3 1.0000 0.8235 0.6118);stop-opacity:1;"/>
</radialGradient>
</defs>
</svg>
