<svg width="128" height="128" viewBox="0 0 128 128" fill="none" xmlns="http://www.w3.org/2000/svg">
<path d="M63.6 118.8C35.7 118.8 5.59998 101.3 5.59998 62.9C5.59998 24.5 35.7 7 63.6 7C79.1 7 93.4 12.1 104 21.4C115.5 31.6 121.6 46 121.6 62.9C121.6 79.8 115.5 94.1 104 104.3C93.4 113.6 79 118.8 63.6 118.8Z" fill="url(#paint0_radial_169_6678)" style=""/>
<path d="M63.6 118.8C35.7 118.8 5.59998 101.3 5.59998 62.9C5.59998 24.5 35.7 7 63.6 7C79.1 7 93.4 12.1 104 21.4C115.5 31.6 121.6 46 121.6 62.9C121.6 79.8 115.5 94.1 104 104.3C93.4 113.6 79 118.8 63.6 118.8Z" fill="url(#paint1_radial_169_6678)" style=""/>
<path d="M63.6 118.8C35.7 118.8 5.59998 101.3 5.59998 62.9C5.59998 24.5 35.7 7 63.6 7C79.1 7 93.4 12.1 104 21.4C115.5 31.6 121.6 46 121.6 62.9C121.6 79.8 115.5 94.1 104 104.3C93.4 113.6 79 118.8 63.6 118.8Z" fill="url(#paint2_radial_169_6678)" style=""/>
<path d="M111.49 29.67C116.82 38.27 119.6 48.51 119.6 59.9C119.6 76.8 113.5 91.1 102 101.3C91.3999 110.6 76.9999 115.8 61.5999 115.8C43.5399 115.8 24.5999 108.45 13.4199 92.86C24.1799 110.52 44.4199 118.8 63.5999 118.8C78.9999 118.8 93.3999 113.6 104 104.3C115.5 94.1001 121.6 79.8 121.6 62.9C121.6 50.16 118.13 38.84 111.49 29.67Z" fill="#EB8F00" style="fill:#EB8F00;fill:color(display-p3 0.9216 0.5608 0.0000);fill-opacity:1;"/>
<path d="M111.49 29.67C116.82 38.27 119.6 48.51 119.6 59.9C119.6 76.8 113.5 91.1 102 101.3C91.3999 110.6 76.9999 115.8 61.5999 115.8C43.5399 115.8 24.5999 108.45 13.4199 92.86C24.1799 110.52 44.4199 118.8 63.5999 118.8C78.9999 118.8 93.3999 113.6 104 104.3C115.5 94.1001 121.6 79.8 121.6 62.9C121.6 50.16 118.13 38.84 111.49 29.67Z" fill="#F3B872" style="fill:#F3B872;fill:color(display-p3 0.9542 0.7229 0.4453);fill-opacity:1;"/>
<path d="M111.49 29.67C116.82 38.27 119.6 48.51 119.6 59.9C119.6 76.8 113.5 91.1 102 101.3C91.3999 110.6 76.9999 115.8 61.5999 115.8C43.5399 115.8 24.5999 108.45 13.4199 92.86C24.1799 110.52 44.4199 118.8 63.5999 118.8C78.9999 118.8 93.3999 113.6 104 104.3C115.5 94.1001 121.6 79.8 121.6 62.9C121.6 50.16 118.13 38.84 111.49 29.67Z" fill="#BA8F63" style="fill:#BA8F63;fill:color(display-p3 0.7294 0.5608 0.3882);fill-opacity:1;"/>
<path d="M104.75 79.6299L93.1501 76.6299C91.0101 76.0699 88.8301 77.3499 88.2701 79.4899C88.2101 79.7299 88.1701 79.9699 88.1501 80.2099L87.5901 87.6599L81.0001 83.8999C79.0801 82.8099 76.6401 83.4699 75.5401 85.3899C75.4501 85.5499 75.3701 85.7199 75.3001 85.8999L72.6401 92.7399L67.4201 86.6099C66.6401 85.6899 65.4901 85.1799 64.2901 85.1999H64.0101H63.7401C62.5401 85.1799 61.3901 85.6899 60.6101 86.6099L55.3901 92.7399L52.7001 85.9199C51.8901 83.8699 49.5601 82.8599 47.5101 83.6799C47.3401 83.7499 47.1701 83.8299 47.0001 83.9199L40.3701 87.6799L39.8101 80.2299C39.6501 78.0299 37.7301 76.3699 35.5301 76.5299C35.2901 76.5499 35.0501 76.5899 34.8101 76.6499L23.2101 79.6499C21.0501 80.1199 19.6801 82.2499 20.1501 84.4099C20.6201 86.5699 22.7501 87.9399 24.9101 87.4699C25.0101 87.4499 25.1101 87.4199 25.2001 87.3899L32.2001 85.5899L32.8701 94.5899C33.0201 96.7899 34.9301 98.4599 37.1401 98.2999C37.7501 98.2599 38.3401 98.0799 38.8701 97.7699L46.9701 93.1799L50.3801 101.94C50.8901 103.25 52.0501 104.2 53.4401 104.43C53.6601 104.47 53.8901 104.49 54.1101 104.49C55.2701 104.48 56.3601 103.96 57.1101 103.08L64.1901 94.7999L64.4901 95.5899L70.8601 103C71.6101 103.88 72.7001 104.4 73.8601 104.41C74.0801 104.41 74.3101 104.39 74.5301 104.35C75.9201 104.12 77.0801 103.17 77.5901 101.86L81.0001 93.0999L89.1001 97.6899C91.0101 98.7999 93.4601 98.1499 94.5701 96.2399C94.8801 95.7099 95.0601 95.1199 95.1001 94.5099L95.7701 85.5099L102.77 87.3099C104.89 87.9399 107.12 86.7399 107.75 84.6299C108.38 82.5099 107.18 80.2799 105.07 79.6499C104.97 79.6199 104.87 79.5999 104.78 79.5699L104.75 79.6299Z" fill="#5D4037" style="fill:#5D4037;fill:color(display-p3 0.3647 0.2510 0.2157);fill-opacity:1;"/>
<path d="M34.0001 57.4L46.2101 55L33.6601 49.83L33.2401 49.6C31.1901 48.52 30.4101 45.99 31.4901 43.94C31.7501 43.45 32.1001 43.02 32.5201 42.67C34.5201 41.13 37.2701 41.01 39.4001 42.37L60.6701 55.37C61.1901 55.56 61.4501 56.14 61.2601 56.65C61.1301 57 60.8201 57.25 60.4501 57.3L37.5401 65.9C37.3901 65.96 37.2201 66.01 37.0601 66.06C34.0601 66.9 30.7301 65.17 30.2701 62.28C29.9101 60.11 31.6101 58.07 34.0001 57.4Z" fill="#5D4037" style="fill:#5D4037;fill:color(display-p3 0.3647 0.2510 0.2157);fill-opacity:1;"/>
<path d="M96.6501 57.15L84.4801 54.79L97.0001 49.58L97.4101 49.35C99.4601 48.27 100.25 45.74 99.1701 43.69C98.9101 43.2 98.5601 42.77 98.1401 42.42C96.1401 40.88 93.3901 40.76 91.2601 42.12L70.0001 55.16C69.4801 55.35 69.2101 55.92 69.4001 56.44C69.5301 56.79 69.8401 57.04 70.2101 57.09L93.1201 65.69L93.6101 65.85C96.6101 66.69 99.9301 64.96 100.4 62.07C100.78 59.86 99.0701 57.82 96.6501 57.15Z" fill="#5D4037" style="fill:#5D4037;fill:color(display-p3 0.3647 0.2510 0.2157);fill-opacity:1;"/>
<path d="M57.6701 64.6199C41.0001 75.2499 20.4301 77.6399 6.1701 80.5499C4.2901 80.9299 3.1701 83.6699 4.6101 87.8099C7.3401 95.7099 12.5401 95.5799 11.1401 99.2499C7.0001 110.12 15.4401 114.8 22.7301 114.93C32.5901 115.12 31.6401 118.41 35.7301 121.62C39.6401 124.68 44.3901 122.56 44.3901 122.56C62.7201 111.45 69.7901 86.1199 69.7801 73.8599C69.7701 64.4499 62.7301 61.3899 57.6701 64.6199Z" fill="#F5F5F5" style="fill:#F5F5F5;fill:color(display-p3 0.9608 0.9608 0.9608);fill-opacity:1;"/>
<path d="M6.17005 80.5499C5.47005 80.7799 4.91005 81.3099 4.65005 81.9999C4.39005 82.6299 4.27005 83.3199 4.30005 83.9999C4.35005 85.3999 4.69005 86.7799 5.30005 88.0499C5.85005 89.3399 6.57005 90.5599 7.43005 91.6699C8.34005 92.7599 9.34005 93.7599 10.43 94.6699C11.1 95.2099 11.67 95.8499 12.12 96.5799C12.24 96.8199 12.34 97.0699 12.42 97.3199C12.49 97.5899 12.53 97.8599 12.54 98.1399C12.54 98.3999 12.52 98.6699 12.48 98.9299L12.3 99.6399L11.76 101.64C11.64 102.3 11.56 102.97 11.51 103.64C11.41 104.89 11.58 106.15 12 107.34C12.45 108.46 13.17 109.46 14.08 110.25C15.03 111.08 16.13 111.72 17.31 112.15C18.52 112.63 19.8 112.93 21.1 113.04C21.43 113.09 21.77 113.11 22.1 113.11H23.1C23.87 113.11 24.63 113.11 25.42 113.21C27.08 113.3 28.71 113.66 30.26 114.27C31.11 114.63 31.9 115.1 32.62 115.68C33.26 116.23 33.85 116.83 34.39 117.48C35.18 118.51 36.1 119.43 37.14 120.22C38.0201 120.84 39.06 121.21 40.14 121.29C40.7201 121.33 41.3 121.3 41.8801 121.21C42.1701 121.21 42.4701 121.1 42.75 121.03C43.03 120.96 43.36 120.84 43.51 120.79L43.2901 120.9C47.1501 118.5 50.6301 115.52 53.59 112.07C53.9701 111.63 54.3601 111.22 54.7201 110.77L55.7201 109.39L56.7201 108.02C57.0601 107.55 57.3501 107.02 57.7201 106.58C58.3601 105.58 59.03 104.68 59.59 103.66C60.1501 102.64 60.8 101.66 61.3 100.66C63.48 96.5199 65.2901 92.1999 66.71 87.7399C68.19 83.2499 69.2 78.6099 69.71 73.9099C69.96 78.7099 69.55 83.5099 68.49 88.1999C68.25 89.3799 67.94 90.5399 67.65 91.7099C67.36 92.8799 66.9501 94.0199 66.6501 95.1799C66.3501 96.3399 65.8401 97.4499 65.4401 98.5899C65.0401 99.7299 64.44 100.82 64.02 101.94C63.6 103.06 62.95 104.12 62.42 105.22C61.89 106.32 61.25 107.35 60.6301 108.41C60.32 108.93 60.0101 109.41 59.68 109.97L58.62 111.48L57.62 112.98C57.25 113.47 56.84 113.98 56.46 114.42C53.3801 118.31 49.66 121.64 45.46 124.29L45.35 124.35H45.2401C44.8101 124.53 44.37 124.68 43.92 124.81C43.5 124.92 43.0801 125.02 42.6501 125.09C41.7801 125.24 40.9001 125.29 40.0201 125.24C39.1101 125.18 38.21 125.01 37.35 124.72C36.48 124.41 35.66 123.98 34.91 123.44C33.6 122.45 32.42 121.3 31.42 120C31.04 119.52 30.61 119.07 30.16 118.66C29.74 118.32 29.27 118.03 28.77 117.82C27.59 117.37 26.34 117.08 25.08 116.98C24.42 116.89 23.72 116.86 23.02 116.82L21.87 116.74C21.47 116.74 21.07 116.68 20.67 116.61C19.06 116.39 17.49 115.96 16 115.32C14.45 114.69 13.03 113.77 11.83 112.6C10.6 111.39 9.67005 109.91 9.13005 108.27C8.65005 106.65 8.52005 104.95 8.74005 103.27C8.85005 102.5 9.01005 101.75 9.22005 101C9.47005 100.27 9.76005 99.5099 10.01 98.8199C10.21 98.4599 10.25 98.0199 10.1 97.6299C9.81005 97.0799 9.44005 96.5799 9.00005 96.1499C7.92005 95.0799 6.96005 93.8999 6.13005 92.6199C5.31005 91.3299 4.67005 89.9299 4.23005 88.4699C3.73005 87.0299 3.53005 85.5099 3.64005 83.9999C3.71005 83.2299 3.96005 82.4899 4.36005 81.8299C4.74005 81.1499 5.41005 80.6899 6.17005 80.5499Z" fill="#BDBDBD" style="fill:#BDBDBD;fill:color(display-p3 0.7412 0.7412 0.7412);fill-opacity:1;"/>
<path d="M30.5001 90.7799C27.6501 91.4899 24.7501 91.9999 21.8301 92.2899C20.3601 92.3399 19.1201 91.1799 19.0701 89.7099C19.0301 88.3799 19.9701 87.2199 21.2901 86.9899C34.0501 85.6899 40.2901 83.08 50.6701 76.2299C53.5501 74.3699 56.2301 72.2299 58.6701 69.8199C56.1801 74.9699 52.4901 79.4499 47.9101 82.8899C42.8801 86.6999 37.4801 88.9999 30.5001 90.7799Z" fill="#B3B3B3" style="fill:#B3B3B3;fill:color(display-p3 0.7020 0.7020 0.7020);fill-opacity:1;"/>
<path d="M42.21 103.87C41.1 104.21 39.9 103.76 39.29 102.77C38.5 101.55 38.82 99.9199 40 99.0799C45.8 95.3899 50.81 90.5799 54.72 84.9199C56.64 82.0699 59.49 76.9199 59.49 76.9199C59.15 79.8399 58.56 82.7199 57.71 85.5299C54.22 96.4999 44.67 103.09 42.21 103.87Z" fill="#B3B3B3" style="fill:#B3B3B3;fill:color(display-p3 0.7020 0.7020 0.7020);fill-opacity:1;"/>
<defs>
<radialGradient id="paint0_radial_169_6678" cx="0" cy="0" r="1" gradientUnits="userSpaceOnUse" gradientTransform="translate(63.6 62.8999) scale(56.9597 56.9597)">
<stop offset="0.5" stop-color="#FDE030" style="stop-color:#FDE030;stop-color:color(display-p3 0.9922 0.8784 0.1882);stop-opacity:1;"/>
<stop offset="0.92" stop-color="#F7C02B" style="stop-color:#F7C02B;stop-color:color(display-p3 0.9686 0.7529 0.1686);stop-opacity:1;"/>
<stop offset="1" stop-color="#F4A223" style="stop-color:#F4A223;stop-color:color(display-p3 0.9569 0.6353 0.1373);stop-opacity:1;"/>
</radialGradient>
<radialGradient id="paint1_radial_169_6678" cx="0" cy="0" r="1" gradientUnits="userSpaceOnUse" gradientTransform="translate(38.599 34.5377) rotate(-43.2082) scale(102.024 101.825)">
<stop offset="0.3533" stop-color="#F9DDBD" style="stop-color:#F9DDBD;stop-color:color(display-p3 0.9765 0.8667 0.7412);stop-opacity:1;"/>
<stop offset="0.8723" stop-color="#FFD29C" style="stop-color:#FFD29C;stop-color:color(display-p3 1.0000 0.8235 0.6118);stop-opacity:1;"/>
</radialGradient>
<radialGradient id="paint2_radial_169_6678" cx="0" cy="0" r="1" gradientUnits="userSpaceOnUse" gradientTransform="translate(38.599 34.5377) rotate(-43.2082) scale(102.024 101.825)">
<stop offset="0.3533" stop-color="#E0BB95" style="stop-color:#E0BB95;stop-color:color(display-p3 0.8784 0.7333 0.5843);stop-opacity:1;"/>
<stop offset="0.8723" stop-color="#CCA47A" style="stop-color:#CCA47A;stop-color:color(display-p3 0.8000 0.6431 0.4784);stop-opacity:1;"/>
</radialGradient>
</defs>
</svg>
