<svg width="128" height="128" viewBox="0 0 128 128" fill="none" xmlns="http://www.w3.org/2000/svg">
<path d="M63.6001 118.8C35.7001 118.8 5.6001 101.3 5.6001 62.9C5.6001 24.5 35.7001 7 63.6001 7C79.1001 7 93.4001 12.1 104 21.4C115.5 31.6 121.6 46 121.6 62.9C121.6 79.8 115.5 94.1 104 104.3C93.4001 113.6 79.0001 118.8 63.6001 118.8Z" fill="url(#paint0_radial_169_9751)" style=""/>
<path d="M63.6001 118.8C35.7001 118.8 5.6001 101.3 5.6001 62.9C5.6001 24.5 35.7001 7 63.6001 7C79.1001 7 93.4001 12.1 104 21.4C115.5 31.6 121.6 46 121.6 62.9C121.6 79.8 115.5 94.1 104 104.3C93.4001 113.6 79.0001 118.8 63.6001 118.8Z" fill="url(#paint1_radial_169_9751)" style=""/>
<path d="M63.6001 118.8C35.7001 118.8 5.6001 101.3 5.6001 62.9C5.6001 24.5 35.7001 7 63.6001 7C79.1001 7 93.4001 12.1 104 21.4C115.5 31.6 121.6 46 121.6 62.9C121.6 79.8 115.5 94.1 104 104.3C93.4001 113.6 79.0001 118.8 63.6001 118.8Z" fill="url(#paint2_radial_169_9751)" style=""/>
<path d="M111.49 29.67C116.82 38.27 119.6 48.51 119.6 59.9C119.6 76.8 113.5 91.1 102 101.3C91.3999 110.6 76.9999 115.8 61.5999 115.8C43.5399 115.8 24.5999 108.45 13.4199 92.86C24.1799 110.52 44.4199 118.8 63.5999 118.8C78.9999 118.8 93.3999 113.6 104 104.3C115.5 94.1 121.6 79.8 121.6 62.9C121.6 50.16 118.13 38.84 111.49 29.67Z" fill="#EB8F00" style="fill:#EB8F00;fill:color(display-p3 0.9216 0.5608 0.0000);fill-opacity:1;"/>
<path d="M111.49 29.67C116.82 38.27 119.6 48.51 119.6 59.9C119.6 76.8 113.5 91.1 102 101.3C91.3999 110.6 76.9999 115.8 61.5999 115.8C43.5399 115.8 24.5999 108.45 13.4199 92.86C24.1799 110.52 44.4199 118.8 63.5999 118.8C78.9999 118.8 93.3999 113.6 104 104.3C115.5 94.1 121.6 79.8 121.6 62.9C121.6 50.16 118.13 38.84 111.49 29.67Z" fill="#4A2F27" style="fill:#4A2F27;fill:color(display-p3 0.2902 0.1843 0.1529);fill-opacity:1;"/>
<path d="M48.5998 54.7L48.3998 54.9L47.8998 55.4C47.6998 55.6 47.4998 55.7 47.1998 56C46.8798 56.26 46.5498 56.49 46.1998 56.7C45.7998 56.9 45.3998 57.2 44.9998 57.4C44.5998 57.6 44.0998 57.8 43.5998 58C43.1098 58.18 42.6098 58.31 42.0998 58.4C41.5698 58.49 41.0398 58.52 40.4998 58.5H39.5998C39.3598 58.52 39.1198 58.48 38.8998 58.4C38.3898 58.31 37.8898 58.18 37.3998 58C36.9198 57.84 36.4498 57.64 35.9998 57.4C35.5998 57.2 35.1998 56.9 34.7998 56.7C34.0998 56.2 33.4998 55.7 33.0998 55.4L32.4998 54.8L32.2998 54.6C31.0098 53.44 29.0798 53.36 27.6998 54.4C26.7298 55.16 26.3998 56.48 26.8998 57.6L27.0998 57.9C27.2098 58.18 27.3498 58.44 27.4998 58.7C28.1098 59.73 28.8498 60.67 29.6998 61.5C30.2898 62.08 30.9298 62.62 31.5998 63.1C32.3898 63.65 33.2198 64.12 34.0998 64.5C35.0598 64.94 36.0698 65.27 37.0998 65.5L38.7998 65.8C39.0998 65.8 39.4998 65.9 39.5998 65.9H40.3998C41.5098 65.9 42.6098 65.8 43.6998 65.6C44.7398 65.39 45.7398 65.05 46.6998 64.6C47.5798 64.22 48.4098 63.75 49.1998 63.2C49.8998 62.75 50.5398 62.21 51.0998 61.6C51.5898 61.15 52.0298 60.65 52.3998 60.1C52.5998 59.9 52.6998 59.6 52.8998 59.4C53.0998 59.2 53.1998 59 53.2998 58.8C53.4698 58.56 53.6098 58.29 53.6998 58L53.7998 57.8C54.4198 56.4 53.7798 54.75 52.3798 54.13C52.2598 54.08 52.1298 54.03 51.9998 54C50.8298 53.49 49.4698 53.77 48.5998 54.7Z" fill="#422B0D" style="fill:#422B0D;fill:color(display-p3 0.2588 0.1686 0.0510);fill-opacity:1;"/>
<path d="M48.5998 54.7L48.3998 54.9L47.8998 55.4C47.6998 55.6 47.4998 55.7 47.1998 56C46.8798 56.26 46.5498 56.49 46.1998 56.7C45.7998 56.9 45.3998 57.2 44.9998 57.4C44.5998 57.6 44.0998 57.8 43.5998 58C43.1098 58.18 42.6098 58.31 42.0998 58.4C41.5698 58.49 41.0398 58.52 40.4998 58.5H39.5998C39.3598 58.52 39.1198 58.48 38.8998 58.4C38.3898 58.31 37.8898 58.18 37.3998 58C36.9198 57.84 36.4498 57.64 35.9998 57.4C35.5998 57.2 35.1998 56.9 34.7998 56.7C34.0998 56.2 33.4998 55.7 33.0998 55.4L32.4998 54.8L32.2998 54.6C31.0098 53.44 29.0798 53.36 27.6998 54.4C26.7298 55.16 26.3998 56.48 26.8998 57.6L27.0998 57.9C27.2098 58.18 27.3498 58.44 27.4998 58.7C28.1098 59.73 28.8498 60.67 29.6998 61.5C30.2898 62.08 30.9298 62.62 31.5998 63.1C32.3898 63.65 33.2198 64.12 34.0998 64.5C35.0598 64.94 36.0698 65.27 37.0998 65.5L38.7998 65.8C39.0998 65.8 39.4998 65.9 39.5998 65.9H40.3998C41.5098 65.9 42.6098 65.8 43.6998 65.6C44.7398 65.39 45.7398 65.05 46.6998 64.6C47.5798 64.22 48.4098 63.75 49.1998 63.2C49.8998 62.75 50.5398 62.21 51.0998 61.6C51.5898 61.15 52.0298 60.65 52.3998 60.1C52.5998 59.9 52.6998 59.6 52.8998 59.4C53.0998 59.2 53.1998 59 53.2998 58.8C53.4698 58.56 53.6098 58.29 53.6998 58L53.7998 57.8C54.4198 56.4 53.7798 54.75 52.3798 54.13C52.2598 54.08 52.1298 54.03 51.9998 54C50.8298 53.49 49.4698 53.77 48.5998 54.7Z" fill="#1A1717" style="fill:#1A1717;fill:color(display-p3 0.1020 0.0902 0.0902);fill-opacity:1;"/>
<path d="M93.4997 54.7L93.2997 54.9L92.7997 55.4C92.5997 55.6 92.3997 55.7 92.0997 56C91.7797 56.26 91.4497 56.49 91.0997 56.7C90.6997 56.9 90.2997 57.2 89.8997 57.4C89.4997 57.6 88.9997 57.8 88.4997 58C88.0097 58.18 87.5097 58.31 86.9997 58.4C86.4697 58.49 85.9397 58.52 85.3997 58.5H84.4997C84.2597 58.51 84.0297 58.47 83.7997 58.4C83.2897 58.31 82.7897 58.18 82.2997 58C81.8197 57.84 81.3497 57.64 80.8997 57.4C80.4997 57.2 80.0997 56.9 79.6997 56.7C78.9997 56.2 78.3997 55.7 77.9997 55.4L77.3997 54.8L77.1997 54.6C75.9097 53.44 73.9797 53.36 72.5997 54.4C71.6297 55.16 71.2997 56.48 71.7997 57.6L71.9997 57.9C72.1097 58.18 72.2497 58.44 72.3997 58.7C73.0097 59.73 73.7497 60.67 74.5997 61.5C75.1897 62.08 75.8297 62.62 76.4997 63.1C77.2897 63.65 78.1197 64.12 78.9997 64.5C79.9597 64.94 80.9697 65.27 81.9997 65.5L83.6997 65.8C83.9997 65.8 84.3997 65.9 84.4997 65.9H85.2997C86.4097 65.9 87.5097 65.8 88.5997 65.6C89.6397 65.39 90.6397 65.05 91.5997 64.6C92.4797 64.22 93.3097 63.75 94.0997 63.2C94.8197 62.77 95.4597 62.23 95.9997 61.6C96.4897 61.15 96.9297 60.65 97.2997 60.1C97.4997 59.9 97.5997 59.6 97.7997 59.4C97.9997 59.2 98.0997 59 98.1997 58.8C98.3697 58.56 98.5097 58.29 98.5997 58L98.6997 57.8C99.3197 56.4 98.6797 54.75 97.2797 54.13C97.1597 54.08 97.0297 54.03 96.8997 54C95.7297 53.49 94.3697 53.77 93.4997 54.7Z" fill="#422B0D" style="fill:#422B0D;fill:color(display-p3 0.2588 0.1686 0.0510);fill-opacity:1;"/>
<path d="M93.4997 54.7L93.2997 54.9L92.7997 55.4C92.5997 55.6 92.3997 55.7 92.0997 56C91.7797 56.26 91.4497 56.49 91.0997 56.7C90.6997 56.9 90.2997 57.2 89.8997 57.4C89.4997 57.6 88.9997 57.8 88.4997 58C88.0097 58.18 87.5097 58.31 86.9997 58.4C86.4697 58.49 85.9397 58.52 85.3997 58.5H84.4997C84.2597 58.51 84.0297 58.47 83.7997 58.4C83.2897 58.31 82.7897 58.18 82.2997 58C81.8197 57.84 81.3497 57.64 80.8997 57.4C80.4997 57.2 80.0997 56.9 79.6997 56.7C78.9997 56.2 78.3997 55.7 77.9997 55.4L77.3997 54.8L77.1997 54.6C75.9097 53.44 73.9797 53.36 72.5997 54.4C71.6297 55.16 71.2997 56.48 71.7997 57.6L71.9997 57.9C72.1097 58.18 72.2497 58.44 72.3997 58.7C73.0097 59.73 73.7497 60.67 74.5997 61.5C75.1897 62.08 75.8297 62.62 76.4997 63.1C77.2897 63.65 78.1197 64.12 78.9997 64.5C79.9597 64.94 80.9697 65.27 81.9997 65.5L83.6997 65.8C83.9997 65.8 84.3997 65.9 84.4997 65.9H85.2997C86.4097 65.9 87.5097 65.8 88.5997 65.6C89.6397 65.39 90.6397 65.05 91.5997 64.6C92.4797 64.22 93.3097 63.75 94.0997 63.2C94.8197 62.77 95.4597 62.23 95.9997 61.6C96.4897 61.15 96.9297 60.65 97.2997 60.1C97.4997 59.9 97.5997 59.6 97.7997 59.4C97.9997 59.2 98.0997 59 98.1997 58.8C98.3697 58.56 98.5097 58.29 98.5997 58L98.6997 57.8C99.3197 56.4 98.6797 54.75 97.2797 54.13C97.1597 54.08 97.0297 54.03 96.8997 54C95.7297 53.49 94.3697 53.77 93.4997 54.7Z" fill="#1A1717" style="fill:#1A1717;fill:color(display-p3 0.1020 0.0902 0.0902);fill-opacity:1;"/>
<path d="M77.1997 21.6C76.8597 21.41 76.4897 21.27 76.0997 21.2C75.6997 21 75.1997 20.9 74.7997 20.7L72.6997 20.1C71.8997 19.8 70.9997 19.6 70.1997 19.3C68.5997 18.8 66.5997 17.5 65.5997 19.8C65.3297 20.29 65.1897 20.84 65.1997 21.4C65.1997 22.2 65.7997 22.6 66.4997 22.9C67.2397 23.23 68.0097 23.49 68.7997 23.7C69.0497 23.83 69.3197 23.89 69.5997 23.9C69.7997 23.9 69.9997 24 69.9997 24.2C69.9997 24.4 69.7997 24.4 69.6997 24.5C69.5997 24.6 69.2997 24.8 69.0997 24.9L68.7997 25.1C68.2597 25.5 67.6897 25.87 67.0997 26.2C66.6997 26.5 66.1997 26.8 65.7997 27.1C65.5797 27.2 65.3797 27.33 65.1997 27.5C64.6097 27.9 64.0397 28.34 63.4997 28.8L63.2997 29C62.7597 29.43 62.3697 30.03 62.1997 30.7C62.0997 31.6 62.7997 32 63.5997 32.4L64.4997 32.7C65.5497 33.09 66.6197 33.43 67.6997 33.7C68.4997 34 69.3997 34.2 70.1997 34.5C71.7997 35 73.7997 36.3 74.7997 34C75.0697 33.51 75.2097 32.96 75.1997 32.4C75.0997 31.69 74.5897 31.1 73.8997 30.9C73.1597 30.57 72.3897 30.31 71.5997 30.1C71.3997 30.1 71.2997 30 71.0997 29.9C70.8997 29.8 70.7997 29.8 70.6997 29.8C70.4997 29.6 70.8997 29.4 70.9997 29.3C71.4197 29.07 71.8197 28.8 72.1997 28.5C72.6197 28.23 73.0197 27.93 73.3997 27.6C73.5997 27.5 73.7997 27.3 73.9997 27.2C74.3997 26.9 74.8997 26.6 75.2997 26.3C76.3997 25.4 78.8997 24.3 78.0997 22.6C77.8897 22.2 77.5797 21.85 77.1997 21.6Z" fill="#5F7AFF" style="fill:#5F7AFF;fill:color(display-p3 0.3725 0.4784 1.0000);fill-opacity:1;"/>
<path d="M97.0997 12.1C96.7197 11.92 96.3097 11.79 95.8997 11.7C95.3997 11.6 94.8997 11.4 94.3997 11.3C93.5997 11.1 92.7997 11 92.0997 10.8C91.1997 10.6 90.1997 10.3 89.2997 10.1C87.4997 9.70001 85.1997 8.50001 84.2997 11.1C84.0597 11.67 83.9497 12.28 83.9997 12.9C84.0997 13.8 84.7997 14.2 85.5997 14.4C86.4197 14.68 87.2497 14.91 88.0997 15.1C88.3997 15.2 88.6997 15.2 88.9997 15.3C89.2997 15.4 89.3997 15.4 89.3997 15.6C89.3997 15.8 89.1997 15.9 89.0997 16C88.9997 16.1 88.6997 16.3 88.4997 16.5C88.2997 16.7 88.2997 16.6 88.1997 16.7C87.5997 17.2 86.9997 17.6 86.3997 18.1L84.9997 19.2C84.7997 19.3 84.5997 19.5 84.3997 19.6C83.7997 20.1 83.1997 20.6 82.6997 21.1C82.5997 21.2 82.4997 21.2 82.4997 21.3C81.8897 21.8 81.4997 22.52 81.3997 23.3C81.3997 24.3 82.1997 24.7 83.0997 25.1L84.0997 25.4C85.2497 25.76 86.4197 26.06 87.5997 26.3C88.4997 26.5 89.4997 26.8 90.3997 27C92.1997 27.4 94.4997 28.6 95.3997 26C95.6397 25.43 95.7497 24.82 95.6997 24.2C95.5997 23.3 94.8997 22.9 94.0997 22.7C93.2497 22.41 92.3797 22.17 91.4997 22C91.2997 22 91.0997 21.9 90.8997 21.9C90.6997 21.9 90.4997 21.9 90.3997 21.8C90.2997 21.7 90.5997 21.4 90.6997 21.3C91.0997 21 91.4997 20.7 91.9997 20.3L93.2997 19.3C93.5197 19.11 93.7497 18.94 93.9997 18.8C94.4897 18.46 94.9497 18.09 95.3997 17.7C96.4997 16.6 99.1997 15.3 98.0997 13.4C97.9697 12.84 97.5997 12.37 97.0997 12.1Z" fill="#5F7AFF" style="fill:#5F7AFF;fill:color(display-p3 0.3725 0.4784 1.0000);fill-opacity:1;"/>
<path d="M123.6 9.00001C123.22 8.36001 122.67 7.83001 122 7.50001C121.48 7.29001 120.95 7.12001 120.4 7.00001C119.75 6.79001 119.08 6.62001 118.4 6.50001C117.4 6.20001 116.3 6.00001 115.3 5.80001C114.1 5.50001 112.8 5.10001 111.6 4.80001C109.2 4.20001 106.2 2.60001 104.9 6.10001C104.57 6.86001 104.44 7.68001 104.5 8.50001C104.68 9.56001 105.54 10.37 106.6 10.5C107.72 10.86 108.85 11.16 110 11.4C110.4 11.5 110.8 11.6 111.1 11.7C111.4 11.8 111.7 11.8 111.7 12.1C111.66 12.32 111.51 12.51 111.3 12.6C111 12.8 110.8 13 110.5 13.2C110.39 13.32 110.25 13.43 110.1 13.5C109.3 14.1 108.5 14.7 107.8 15.3L106 16.8C105.75 17.02 105.48 17.22 105.2 17.4C104.4 18 103.7 18.7 102.9 19.4L102.6 19.7C101.8 20.34 101.29 21.28 101.2 22.3C101.2 23.6 102.3 24.2 103.5 24.7C103.92 24.88 104.35 25.01 104.8 25.1H104.9C106.4 25.6 108 25.9 109.6 26.3L113.3 27.2C115.7 27.8 118.8 29.4 120 25.9C120.33 25.14 120.46 24.32 120.4 23.5C120.22 22.44 119.36 21.63 118.3 21.5C117.2 21.08 116.06 20.74 114.9 20.5C114.6 20.4 114.4 20.4 114.1 20.3C113.88 20.3 113.68 20.23 113.5 20.1C113.2 19.8 113.7 19.5 113.9 19.4C114.49 19 115.06 18.56 115.6 18.1C116.2 17.6 116.8 17.2 117.3 16.7C117.62 16.5 117.93 16.26 118.2 16C118.84 15.56 119.45 15.05 120 14.5C121.5 13.2 125 11.4 123.6 9.00001Z" fill="#5F7AFF" style="fill:#5F7AFF;fill:color(display-p3 0.3725 0.4784 1.0000);fill-opacity:1;"/>
<path d="M55.6999 99.3C51.8699 99.23 48.8199 96.06 48.8899 92.23C48.9099 90.94 49.2999 89.68 49.9999 88.6C53.0999 83.8 57.9999 81.3 63.9999 81.3C69.9999 81.3 74.8999 83.8 77.9999 88.6C79.3899 90.7 79.4999 93.39 78.2999 95.6C77.1099 97.82 74.8199 99.24 72.2999 99.3C71.5099 99.32 70.7299 99.19 69.9999 98.9C68.0699 98.23 66.0399 97.89 63.9999 97.9C61.9599 97.88 59.9299 98.22 57.9999 98.9C57.2599 99.17 56.4799 99.31 55.6999 99.3Z" fill="#422B0D" style="fill:#422B0D;fill:color(display-p3 0.2588 0.1686 0.0510);fill-opacity:1;"/>
<path d="M55.6999 99.3C51.8699 99.23 48.8199 96.06 48.8899 92.23C48.9099 90.94 49.2999 89.68 49.9999 88.6C53.0999 83.8 57.9999 81.3 63.9999 81.3C69.9999 81.3 74.8999 83.8 77.9999 88.6C79.3899 90.7 79.4999 93.39 78.2999 95.6C77.1099 97.82 74.8199 99.24 72.2999 99.3C71.5099 99.32 70.7299 99.19 69.9999 98.9C68.0699 98.23 66.0399 97.89 63.9999 97.9C61.9599 97.88 59.9299 98.22 57.9999 98.9C57.2599 99.17 56.4799 99.31 55.6999 99.3Z" fill="#1A1717" style="fill:#1A1717;fill:color(display-p3 0.1020 0.0902 0.0902);fill-opacity:1;"/>
<defs>
<radialGradient id="paint0_radial_169_9751" cx="0" cy="0" r="1" gradientUnits="userSpaceOnUse" gradientTransform="translate(63.6001 62.8999) scale(56.9597 56.9597)">
<stop offset="0.5" stop-color="#FDE030" style="stop-color:#FDE030;stop-color:color(display-p3 0.9922 0.8784 0.1882);stop-opacity:1;"/>
<stop offset="0.92" stop-color="#F7C02B" style="stop-color:#F7C02B;stop-color:color(display-p3 0.9686 0.7529 0.1686);stop-opacity:1;"/>
<stop offset="1" stop-color="#F4A223" style="stop-color:#F4A223;stop-color:color(display-p3 0.9569 0.6353 0.1373);stop-opacity:1;"/>
</radialGradient>
<radialGradient id="paint1_radial_169_9751" cx="0" cy="0" r="1" gradientUnits="userSpaceOnUse" gradientTransform="translate(38.5991 34.5377) rotate(-43.2082) scale(102.024 101.825)">
<stop offset="0.3533" stop-color="#F9DDBD" style="stop-color:#F9DDBD;stop-color:color(display-p3 0.9765 0.8667 0.7412);stop-opacity:1;"/>
<stop offset="0.8723" stop-color="#FFD29C" style="stop-color:#FFD29C;stop-color:color(display-p3 1.0000 0.8235 0.6118);stop-opacity:1;"/>
</radialGradient>
<radialGradient id="paint2_radial_169_9751" cx="0" cy="0" r="1" gradientUnits="userSpaceOnUse" gradientTransform="translate(38.5991 34.5377) rotate(-43.2082) scale(102.024 101.825)">
<stop offset="0.3533" stop-color="#70534A" style="stop-color:#70534A;stop-color:color(display-p3 0.4392 0.3255 0.2902);stop-opacity:1;"/>
<stop offset="0.8723" stop-color="#5C4037" style="stop-color:#5C4037;stop-color:color(display-p3 0.3608 0.2510 0.2157);stop-opacity:1;"/>
</radialGradient>
</defs>
</svg>
