<svg width="128" height="128" viewBox="0 0 128 128" fill="none" xmlns="http://www.w3.org/2000/svg">
<path d="M63.6 118.8C35.7 118.8 5.59998 101.3 5.59998 62.9C5.59998 24.5 35.7 7 63.6 7C79.1 7 93.4 12.1 104 21.4C115.5 31.6 121.6 46 121.6 62.9C121.6 79.8 115.5 94.1 104 104.3C93.4 113.6 79 118.8 63.6 118.8Z" fill="url(#paint0_radial_169_7831)" style=""/>
<path d="M63.6 118.8C35.7 118.8 5.59998 101.3 5.59998 62.9C5.59998 24.5 35.7 7 63.6 7C79.1 7 93.4 12.1 104 21.4C115.5 31.6 121.6 46 121.6 62.9C121.6 79.8 115.5 94.1 104 104.3C93.4 113.6 79 118.8 63.6 118.8Z" fill="url(#paint1_radial_169_7831)" style=""/>
<path d="M63.6 118.8C35.7 118.8 5.59998 101.3 5.59998 62.9C5.59998 24.5 35.7 7 63.6 7C79.1 7 93.4 12.1 104 21.4C115.5 31.6 121.6 46 121.6 62.9C121.6 79.8 115.5 94.1 104 104.3C93.4 113.6 79 118.8 63.6 118.8Z" fill="url(#paint2_radial_169_7831)" style=""/>
<path d="M111.49 29.6699C116.82 38.2699 119.6 48.5099 119.6 59.8999C119.6 76.7999 113.5 91.0999 102 101.3C91.4 110.6 77 115.8 61.6 115.8C43.54 115.8 24.6 108.45 13.42 92.8599C24.18 110.52 44.42 118.8 63.6 118.8C79 118.8 93.4 113.6 104 104.3C115.5 94.0999 121.6 79.7999 121.6 62.8999C121.6 50.1599 118.13 38.8399 111.49 29.6699Z" fill="#EB8F00" style="fill:#EB8F00;fill:color(display-p3 0.9216 0.5608 0.0000);fill-opacity:1;"/>
<path d="M111.49 29.6699C116.82 38.2699 119.6 48.5099 119.6 59.8999C119.6 76.7999 113.5 91.0999 102 101.3C91.4 110.6 77 115.8 61.6 115.8C43.54 115.8 24.6 108.45 13.42 92.8599C24.18 110.52 44.42 118.8 63.6 118.8C79 118.8 93.4 113.6 104 104.3C115.5 94.0999 121.6 79.7999 121.6 62.8999C121.6 50.1599 118.13 38.8399 111.49 29.6699Z" fill="#F3B872" style="fill:#F3B872;fill:color(display-p3 0.9542 0.7229 0.4453);fill-opacity:1;"/>
<path d="M111.49 29.6699C116.82 38.2699 119.6 48.5099 119.6 59.8999C119.6 76.7999 113.5 91.0999 102 101.3C91.4 110.6 77 115.8 61.6 115.8C43.54 115.8 24.6 108.45 13.42 92.8599C24.18 110.52 44.42 118.8 63.6 118.8C79 118.8 93.4 113.6 104 104.3C115.5 94.0999 121.6 79.7999 121.6 62.8999C121.6 50.1599 118.13 38.8399 111.49 29.6699Z" fill="#BA8F63" style="fill:#BA8F63;fill:color(display-p3 0.7294 0.5608 0.3882);fill-opacity:1;"/>
<path d="M35.9 51.6999C36.24 51.7099 36.57 51.7399 36.9 51.7999C37.07 51.7799 37.25 51.8199 37.4 51.8999H38.8C39.2 51.9199 39.61 51.8799 40 51.7999C40.4 51.7999 40.8 51.5999 41.3 51.5999C41.72 51.5299 42.12 51.3899 42.5 51.1999C43.31 50.9599 44.06 50.5499 44.7 49.9999C45.02 49.7599 45.33 49.4899 45.6 49.1999C45.8 48.8999 46.1 48.5999 46.3 48.2999L46.9 47.3999C47.07 47.1199 47.21 46.8199 47.3 46.4999C47.4 46.1999 47.5 45.9999 47.6 45.6999C47.69 45.4399 47.83 45.2099 48 44.9999L48.4 44.1999C49.26 42.3299 51.46 41.5099 53.33 42.3699C53.35 42.3799 53.38 42.3899 53.4 42.3999C54.58 42.9799 55.4 44.0999 55.6 45.3999C55.61 45.8299 55.64 46.2699 55.7 46.6999V48.1999C55.64 48.8699 55.54 49.5399 55.4 50.1999C55.21 50.9899 54.94 51.7599 54.6 52.4999C54.04 53.8699 53.22 55.1299 52.2 56.1999L51.7 56.7999L51 57.1999C50.18 57.8899 49.31 58.5199 48.4 59.0999C47.47 59.5799 46.5 59.9899 45.5 60.2999L44.8 60.4999L44.1 60.5999C43.64 60.7099 43.17 60.7799 42.7 60.7999C41.8 60.8999 40.9 60.8999 40 60.7999C39.23 60.7599 38.46 60.6599 37.7 60.4999C37.02 60.3599 36.35 60.1599 35.7 59.8999C35.43 59.8199 35.16 59.7199 34.9 59.5999C34.7 59.4999 34.6 59.3999 34.4 59.2999C34.09 59.1499 33.79 58.9799 33.5 58.7999C31.71 57.6599 31.18 55.2999 32.3 53.4999C33.09 52.2999 34.46 51.6099 35.9 51.6999Z" fill="#5D4037" style="fill:#5D4037;fill:color(display-p3 0.3647 0.2510 0.2157);fill-opacity:1;"/>
<path d="M89.74 79.1C81.39 76.6 72.71 75.39 64 75.5C55.17 75.42 46.38 76.68 37.93 79.25C35 84.02 33.44 89.5 33.4 95.1C33.35 98.62 36.16 101.51 39.68 101.56C40.69 101.57 41.7 101.35 42.6 100.9C49.31 97.76 56.6 96.06 64 95.9C71.41 96.04 78.7 97.75 85.4 100.9C88.55 102.46 92.37 101.18 93.94 98.02C94.39 97.11 94.62 96.11 94.6 95.1C94.54 89.41 92.85 83.86 89.74 79.1Z" fill="#5D4037" style="fill:#5D4037;fill:color(display-p3 0.3647 0.2510 0.2157);fill-opacity:1;"/>
<path d="M89.74 79.1C83.7 69.6 73.09 67.2 64 67.2C54.12 67.2 43.7 69.67 37.93 79.2C46.38 76.65 55.17 75.4 64 75.5C72.71 75.39 81.39 76.6 89.74 79.1Z" fill="white" style="fill:white;fill-opacity:1;"/>
<path d="M63.94 65.7C67.46 65.73 70.97 66.17 74.4 67C77.88 67.83 81.17 69.3 84.11 71.34C87.01 73.45 89.4 76.19 91.11 79.34C92.82 82.41 94.03 85.74 94.67 89.19C94.99 90.91 95.16 92.65 95.16 94.4C95.2 95.32 95.1 96.23 94.86 97.12C94.59 98.02 94.14 98.85 93.55 99.57C92.35 100.99 90.62 101.87 88.76 102C87.85 102.05 86.93 101.93 86.06 101.65C85.19 101.33 84.47 100.94 83.68 100.65C77.48 97.79 70.77 96.17 63.94 95.9C70.8 95.91 77.6 97.27 83.94 99.9C84.74 100.21 85.54 100.6 86.28 100.84C87.05 101.05 87.85 101.12 88.64 101.05C90.22 100.89 91.66 100.1 92.64 98.85C93.11 98.24 93.45 97.53 93.64 96.78C93.82 96.01 93.88 95.21 93.81 94.42C93.74 92.74 93.52 91.06 93.16 89.42C92.43 86.17 91.18 83.06 89.44 80.22C87.77 77.4 85.49 74.99 82.77 73.16C80.02 71.4 76.97 70.16 73.77 69.52C70.52 68.87 67.21 68.58 63.9 68.67L63.94 65.7Z" fill="#EB8F00" style="fill:#EB8F00;fill:color(display-p3 0.9216 0.5608 0.0000);fill-opacity:1;"/>
<path d="M63.94 65.7C67.46 65.73 70.97 66.17 74.4 67C77.88 67.83 81.17 69.3 84.11 71.34C87.01 73.45 89.4 76.19 91.11 79.34C92.82 82.41 94.03 85.74 94.67 89.19C94.99 90.91 95.16 92.65 95.16 94.4C95.2 95.32 95.1 96.23 94.86 97.12C94.59 98.02 94.14 98.85 93.55 99.57C92.35 100.99 90.62 101.87 88.76 102C87.85 102.05 86.93 101.93 86.06 101.65C85.19 101.33 84.47 100.94 83.68 100.65C77.48 97.79 70.77 96.17 63.94 95.9C70.8 95.91 77.6 97.27 83.94 99.9C84.74 100.21 85.54 100.6 86.28 100.84C87.05 101.05 87.85 101.12 88.64 101.05C90.22 100.89 91.66 100.1 92.64 98.85C93.11 98.24 93.45 97.53 93.64 96.78C93.82 96.01 93.88 95.21 93.81 94.42C93.74 92.74 93.52 91.06 93.16 89.42C92.43 86.17 91.18 83.06 89.44 80.22C87.77 77.4 85.49 74.99 82.77 73.16C80.02 71.4 76.97 70.16 73.77 69.52C70.52 68.87 67.21 68.58 63.9 68.67L63.94 65.7Z" fill="#F3B872" style="fill:#F3B872;fill:color(display-p3 0.9542 0.7229 0.4453);fill-opacity:1;"/>
<path d="M63.94 65.7C67.46 65.73 70.97 66.17 74.4 67C77.88 67.83 81.17 69.3 84.11 71.34C87.01 73.45 89.4 76.19 91.11 79.34C92.82 82.41 94.03 85.74 94.67 89.19C94.99 90.91 95.16 92.65 95.16 94.4C95.2 95.32 95.1 96.23 94.86 97.12C94.59 98.02 94.14 98.85 93.55 99.57C92.35 100.99 90.62 101.87 88.76 102C87.85 102.05 86.93 101.93 86.06 101.65C85.19 101.33 84.47 100.94 83.68 100.65C77.48 97.79 70.77 96.17 63.94 95.9C70.8 95.91 77.6 97.27 83.94 99.9C84.74 100.21 85.54 100.6 86.28 100.84C87.05 101.05 87.85 101.12 88.64 101.05C90.22 100.89 91.66 100.1 92.64 98.85C93.11 98.24 93.45 97.53 93.64 96.78C93.82 96.01 93.88 95.21 93.81 94.42C93.74 92.74 93.52 91.06 93.16 89.42C92.43 86.17 91.18 83.06 89.44 80.22C87.77 77.4 85.49 74.99 82.77 73.16C80.02 71.4 76.97 70.16 73.77 69.52C70.52 68.87 67.21 68.58 63.9 68.67L63.94 65.7Z" fill="#BA8F63" style="fill:#BA8F63;fill:color(display-p3 0.7294 0.5608 0.3882);fill-opacity:1;"/>
<path d="M64.19 68.7C60.88 68.61 57.57 68.9 54.33 69.55C51.13 70.19 48.08 71.43 45.33 73.19C42.61 75.02 40.33 77.43 38.66 80.25C36.93 83.09 35.67 86.2 34.94 89.45C34.58 91.09 34.36 92.77 34.29 94.45C34.22 95.24 34.28 96.04 34.46 96.81C34.66 97.56 35 98.26 35.46 98.88C36.44 100.13 37.88 100.92 39.46 101.08C40.25 101.15 41.05 101.08 41.82 100.87C42.57 100.63 43.37 100.24 44.16 99.93C50.5 97.3 57.3 95.94 64.16 95.93C57.34 96.18 50.63 97.77 44.42 100.61C43.64 100.95 42.91 101.34 42.04 101.61C41.17 101.89 40.25 102.01 39.34 101.96C37.47 101.83 35.74 100.95 34.54 99.52C33.94 98.7999 33.49 97.97 33.22 97.07C32.98 96.18 32.88 95.27 32.92 94.35C32.93 92.6 33.1 90.86 33.41 89.14C34.07 85.69 35.28 82.37 37 79.31C38.71 76.16 41.1 73.42 44 71.31C46.95 69.28 50.25 67.82 53.73 67C57.16 66.17 60.67 65.73 64.19 65.7V68.7Z" fill="#EB8F00" style="fill:#EB8F00;fill:color(display-p3 0.9216 0.5608 0.0000);fill-opacity:1;"/>
<path d="M64.19 68.7C60.88 68.61 57.57 68.9 54.33 69.55C51.13 70.19 48.08 71.43 45.33 73.19C42.61 75.02 40.33 77.43 38.66 80.25C36.93 83.09 35.67 86.2 34.94 89.45C34.58 91.09 34.36 92.77 34.29 94.45C34.22 95.24 34.28 96.04 34.46 96.81C34.66 97.56 35 98.26 35.46 98.88C36.44 100.13 37.88 100.92 39.46 101.08C40.25 101.15 41.05 101.08 41.82 100.87C42.57 100.63 43.37 100.24 44.16 99.93C50.5 97.3 57.3 95.94 64.16 95.93C57.34 96.18 50.63 97.77 44.42 100.61C43.64 100.95 42.91 101.34 42.04 101.61C41.17 101.89 40.25 102.01 39.34 101.96C37.47 101.83 35.74 100.95 34.54 99.52C33.94 98.7999 33.49 97.97 33.22 97.07C32.98 96.18 32.88 95.27 32.92 94.35C32.93 92.6 33.1 90.86 33.41 89.14C34.07 85.69 35.28 82.37 37 79.31C38.71 76.16 41.1 73.42 44 71.31C46.95 69.28 50.25 67.82 53.73 67C57.16 66.17 60.67 65.73 64.19 65.7V68.7Z" fill="#F3B872" style="fill:#F3B872;fill:color(display-p3 0.9542 0.7229 0.4453);fill-opacity:1;"/>
<path d="M64.19 68.7C60.88 68.61 57.57 68.9 54.33 69.55C51.13 70.19 48.08 71.43 45.33 73.19C42.61 75.02 40.33 77.43 38.66 80.25C36.93 83.09 35.67 86.2 34.94 89.45C34.58 91.09 34.36 92.77 34.29 94.45C34.22 95.24 34.28 96.04 34.46 96.81C34.66 97.56 35 98.26 35.46 98.88C36.44 100.13 37.88 100.92 39.46 101.08C40.25 101.15 41.05 101.08 41.82 100.87C42.57 100.63 43.37 100.24 44.16 99.93C50.5 97.3 57.3 95.94 64.16 95.93C57.34 96.18 50.63 97.77 44.42 100.61C43.64 100.95 42.91 101.34 42.04 101.61C41.17 101.89 40.25 102.01 39.34 101.96C37.47 101.83 35.74 100.95 34.54 99.52C33.94 98.7999 33.49 97.97 33.22 97.07C32.98 96.18 32.88 95.27 32.92 94.35C32.93 92.6 33.1 90.86 33.41 89.14C34.07 85.69 35.28 82.37 37 79.31C38.71 76.16 41.1 73.42 44 71.31C46.95 69.28 50.25 67.82 53.73 67C57.16 66.17 60.67 65.73 64.19 65.7V68.7Z" fill="#BA8F63" style="fill:#BA8F63;fill:color(display-p3 0.7294 0.5608 0.3882);fill-opacity:1;"/>
<path d="M36.72 34.48C34.65 35.34 35.24 38.48 37.61 38.07C42.8 37 47.38 33.99 50.4 29.64C51.57 28.07 52.47 26.32 53.06 24.46C53.45 23.53 53.01 22.45 52.07 22.06C51.13 21.67 50.06 22.11 49.67 23.05L49.59 23.17C46.71 28.29 42.17 32.27 36.72 34.48Z" fill="#5D4037" style="fill:#5D4037;fill:color(display-p3 0.3647 0.2510 0.2157);fill-opacity:1;"/>
<path d="M92.06 51.6999C91.72 51.7099 91.39 51.7399 91.06 51.7999C90.89 51.7799 90.71 51.8199 90.56 51.8999H89.16C88.76 51.9199 88.35 51.8799 87.96 51.7999C87.56 51.7999 87.16 51.5999 86.66 51.5999C86.24 51.5299 85.84 51.3899 85.46 51.1999C84.65 50.9599 83.9 50.5499 83.26 49.9999C82.94 49.7599 82.63 49.4899 82.36 49.1999C82.16 48.8999 81.86 48.5999 81.66 48.2999L81.06 47.3999C80.89 47.1199 80.75 46.8199 80.66 46.4999C80.56 46.1999 80.46 45.9999 80.36 45.6999C80.28 45.4499 80.16 45.2099 80 44.9999L79.6 44.1999C78.74 42.3299 76.54 41.5099 74.67 42.3699C74.65 42.3799 74.62 42.3899 74.6 42.3999C73.42 42.9799 72.6 44.0999 72.4 45.3999C72.39 45.8299 72.36 46.2699 72.3 46.6999V48.1999C72.36 48.8699 72.46 49.5399 72.6 50.1999C72.79 50.9899 73.06 51.7599 73.4 52.4999C73.96 53.8699 74.78 55.1299 75.8 56.1999L76.3 56.7999L77 57.1999C77.82 57.8899 78.69 58.5199 79.6 59.0999C80.53 59.5799 81.5 59.9899 82.5 60.2999L83.2 60.4999L83.9 60.5999C84.36 60.7099 84.83 60.7799 85.3 60.7999C86.2 60.8999 87.1 60.8999 88 60.7999C88.77 60.7599 89.54 60.6599 90.3 60.4999C90.98 60.3599 91.65 60.1599 92.3 59.8999C92.57 59.8199 92.84 59.7199 93.1 59.5999C93.3 59.4999 93.4 59.3999 93.6 59.2999C93.91 59.1499 94.21 58.9799 94.5 58.7999C96.29 57.6599 96.82 55.2999 95.7 53.4999C94.9 52.2799 93.51 51.5899 92.06 51.6999Z" fill="#5D4037" style="fill:#5D4037;fill:color(display-p3 0.3647 0.2510 0.2157);fill-opacity:1;"/>
<path d="M91.24 34.4801C93.31 35.3401 92.72 38.4801 90.35 38.0701C85.16 37.0001 80.58 33.9901 77.56 29.6401C76.39 28.0801 75.49 26.3201 74.91 24.4601C74.58 23.5101 75.08 22.4601 76.04 22.1301C76.91 21.8301 77.87 22.2201 78.28 23.0501L78.36 23.1701C81.25 28.2901 85.79 32.2701 91.24 34.4801Z" fill="#5D4037" style="fill:#5D4037;fill:color(display-p3 0.3647 0.2510 0.2157);fill-opacity:1;"/>
<defs>
<radialGradient id="paint0_radial_169_7831" cx="0" cy="0" r="1" gradientUnits="userSpaceOnUse" gradientTransform="translate(63.6 62.9) scale(56.9597 56.9597)">
<stop offset="0.5" stop-color="#FDE030" style="stop-color:#FDE030;stop-color:color(display-p3 0.9922 0.8784 0.1882);stop-opacity:1;"/>
<stop offset="0.92" stop-color="#F7C02B" style="stop-color:#F7C02B;stop-color:color(display-p3 0.9686 0.7529 0.1686);stop-opacity:1;"/>
<stop offset="1" stop-color="#F4A223" style="stop-color:#F4A223;stop-color:color(display-p3 0.9569 0.6353 0.1373);stop-opacity:1;"/>
</radialGradient>
<radialGradient id="paint1_radial_169_7831" cx="0" cy="0" r="1" gradientUnits="userSpaceOnUse" gradientTransform="translate(38.599 34.5377) rotate(-43.2082) scale(102.024 101.825)">
<stop offset="0.3533" stop-color="#F9DDBD" style="stop-color:#F9DDBD;stop-color:color(display-p3 0.9765 0.8667 0.7412);stop-opacity:1;"/>
<stop offset="0.8723" stop-color="#FFD29C" style="stop-color:#FFD29C;stop-color:color(display-p3 1.0000 0.8235 0.6118);stop-opacity:1;"/>
</radialGradient>
<radialGradient id="paint2_radial_169_7831" cx="0" cy="0" r="1" gradientUnits="userSpaceOnUse" gradientTransform="translate(38.599 34.5377) rotate(-43.2082) scale(102.024 101.825)">
<stop offset="0.3533" stop-color="#E0BB95" style="stop-color:#E0BB95;stop-color:color(display-p3 0.8784 0.7333 0.5843);stop-opacity:1;"/>
<stop offset="0.8723" stop-color="#CCA47A" style="stop-color:#CCA47A;stop-color:color(display-p3 0.8000 0.6431 0.4784);stop-opacity:1;"/>
</radialGradient>
</defs>
</svg>
