<svg width="128" height="128" viewBox="0 0 128 128" fill="none" xmlns="http://www.w3.org/2000/svg">
<path d="M63.6001 118.8C35.7001 118.8 5.6001 101.3 5.6001 62.9C5.6001 24.5 35.7001 7 63.6001 7C79.1001 7 93.4001 12.1 104 21.4C115.5 31.6 121.6 46 121.6 62.9C121.6 79.8 115.5 94.1 104 104.3C93.4001 113.6 79.0001 118.8 63.6001 118.8Z" fill="url(#paint0_radial_169_12896)" style=""/>
<path d="M63.6001 118.8C35.7001 118.8 5.6001 101.3 5.6001 62.9C5.6001 24.5 35.7001 7 63.6001 7C79.1001 7 93.4001 12.1 104 21.4C115.5 31.6 121.6 46 121.6 62.9C121.6 79.8 115.5 94.1 104 104.3C93.4001 113.6 79.0001 118.8 63.6001 118.8Z" fill="url(#paint1_linear_169_12896)" style=""/>
<path d="M63.6001 118.8C35.7001 118.8 5.6001 101.3 5.6001 62.9C5.6001 24.5 35.7001 7 63.6001 7C79.1001 7 93.4001 12.1 104 21.4C115.5 31.6 121.6 46 121.6 62.9C121.6 79.8 115.5 94.1 104 104.3C93.4001 113.6 79.0001 118.8 63.6001 118.8Z" fill="url(#paint2_radial_169_12896)" style=""/>
<path d="M63.6001 118.8C35.7001 118.8 5.6001 101.3 5.6001 62.9C5.6001 24.5 35.7001 7 63.6001 7C79.1001 7 93.4001 12.1 104 21.4C115.5 31.6 121.6 46 121.6 62.9C121.6 79.8 115.5 94.1 104 104.3C93.4001 113.6 79.0001 118.8 63.6001 118.8Z" fill="url(#paint3_radial_169_12896)" style=""/>
<path d="M63.6001 118.8C35.7001 118.8 5.6001 101.3 5.6001 62.9C5.6001 24.5 35.7001 7 63.6001 7C79.1001 7 93.4001 12.1 104 21.4C115.5 31.6 121.6 46 121.6 62.9C121.6 79.8 115.5 94.1 104 104.3C93.4001 113.6 79.0001 118.8 63.6001 118.8Z" fill="url(#paint4_radial_169_12896)" style=""/>
<path d="M63.6001 118.8C35.7001 118.8 5.6001 101.3 5.6001 62.9C5.6001 24.5 35.7001 7 63.6001 7C79.1001 7 93.4001 12.1 104 21.4C115.5 31.6 121.6 46 121.6 62.9C121.6 79.8 115.5 94.1 104 104.3C93.4001 113.6 79.0001 118.8 63.6001 118.8Z" fill="url(#paint5_radial_169_12896)" style=""/>
<path d="M111.49 29.67C116.82 38.27 119.6 48.51 119.6 59.9C119.6 76.8 113.5 91.1 102 101.3C91.3999 110.6 76.9999 115.8 61.5999 115.8C43.5399 115.8 24.5999 108.45 13.4199 92.86C24.1799 110.52 44.4199 118.8 63.5999 118.8C78.9999 118.8 93.3999 113.6 104 104.3C115.5 94.1 121.6 79.8 121.6 62.9C121.6 50.16 118.13 38.84 111.49 29.67Z" fill="#EB8F00" style="fill:#EB8F00;fill:color(display-p3 0.9216 0.5608 0.0000);fill-opacity:1;"/>
<path d="M111.49 29.67C116.82 38.27 119.6 48.51 119.6 59.9C119.6 76.8 113.5 91.1 102 101.3C91.3999 110.6 76.9999 115.8 61.5999 115.8C43.5399 115.8 24.5999 108.45 13.4199 92.86C24.1799 110.52 44.4199 118.8 63.5999 118.8C78.9999 118.8 93.3999 113.6 104 104.3C115.5 94.1 121.6 79.8 121.6 62.9C121.6 50.16 118.13 38.84 111.49 29.67Z" fill="#F3B872" style="fill:#F3B872;fill:color(display-p3 0.9542 0.7229 0.4453);fill-opacity:1;"/>
<path d="M111.49 29.67C116.82 38.27 119.6 48.51 119.6 59.9C119.6 76.8 113.5 91.1 102 101.3C91.3999 110.6 76.9999 115.8 61.5999 115.8C43.5399 115.8 24.5999 108.45 13.4199 92.86C24.1799 110.52 44.4199 118.8 63.5999 118.8C78.9999 118.8 93.3999 113.6 104 104.3C115.5 94.1 121.6 79.8 121.6 62.9C121.6 50.16 118.13 38.84 111.49 29.67Z" fill="#91674D" style="fill:#91674D;fill:color(display-p3 0.5686 0.4039 0.3020);fill-opacity:1;"/>
<path opacity="0.5" d="M27.25 85.66C36.915 85.66 44.75 77.825 44.75 68.16C44.75 58.495 36.915 50.66 27.25 50.66C17.585 50.66 9.75 58.495 9.75 68.16C9.75 77.825 17.585 85.66 27.25 85.66Z" fill="url(#paint6_radial_169_12896)" style=""/>
<path opacity="0.5" d="M100.36 85.66C110.025 85.66 117.86 77.825 117.86 68.16C117.86 58.495 110.025 50.66 100.36 50.66C90.6949 50.66 82.8599 58.495 82.8599 68.16C82.8599 77.825 90.6949 85.66 100.36 85.66Z" fill="url(#paint7_radial_169_12896)" style=""/>
<path d="M49.5602 49.1199L49.4102 48.9199L49.0002 48.38L48.4702 47.7999C48.2502 47.5599 47.9902 47.3099 47.7402 47.0499C47.4902 46.7899 47.1802 46.55 46.9002 46.33C46.6402 46.13 46.3602 45.94 46.0602 45.79C45.8602 45.68 45.6402 45.59 45.4102 45.54C45.3402 45.53 45.2702 45.53 45.2002 45.54H45.3002H44.7502C44.6002 45.54 44.7502 45.54 44.7502 45.54H44.8302C44.8302 45.54 44.9102 45.54 44.8302 45.54C44.7902 45.53 44.7602 45.53 44.7202 45.54C44.4902 45.59 44.2702 45.67 44.0602 45.79C43.7702 45.95 43.4802 46.13 43.2202 46.33C42.9402 46.55 42.6502 46.7999 42.3902 47.0499C41.8602 47.5599 41.3902 48.0499 41.0902 48.4399L40.5702 49.04L40.3402 49.31C38.9002 50.92 36.4702 51.1799 34.7202 49.9199C33.6002 49.1399 33.0302 47.79 33.2502 46.45C33.2502 46.45 33.3202 46.04 33.5102 45.33C33.8202 44.32 34.2402 43.3399 34.7602 42.4199C35.6202 40.9199 36.7702 39.62 38.1402 38.58C39.0602 37.87 40.0902 37.3099 41.1902 36.9199C41.4902 36.7999 41.8002 36.71 42.1102 36.63C42.4402 36.54 42.7702 36.46 43.1102 36.4L43.7202 36.31L44.2302 36.2599H44.7802H45.3102H45.5702H46.0802C46.4202 36.2599 46.7502 36.35 47.0802 36.4C48.8702 36.73 50.5602 37.47 52.0002 38.58C53.3802 39.62 54.5302 40.9199 55.3802 42.4199C55.6902 42.9399 55.9602 43.49 56.1802 44.06C56.3702 44.5 56.5302 44.94 56.6602 45.4C56.7302 45.64 56.7902 45.8799 56.8202 46.1199V46.3699C57.1202 48.4199 55.7002 50.3199 53.6502 50.6199C53.6002 50.6299 53.5602 50.6299 53.5102 50.6399C52.0202 50.8799 50.5102 50.2999 49.5602 49.1199Z" fill="#49362E" style="fill:#49362E;fill:color(display-p3 0.2863 0.2118 0.1804);fill-opacity:1;"/>
<path d="M49.5602 49.1199L49.4102 48.9199L49.0002 48.38L48.4702 47.7999C48.2502 47.5599 47.9902 47.3099 47.7402 47.0499C47.4902 46.7899 47.1802 46.55 46.9002 46.33C46.6402 46.13 46.3602 45.94 46.0602 45.79C45.8602 45.68 45.6402 45.59 45.4102 45.54C45.3402 45.53 45.2702 45.53 45.2002 45.54H45.3002H44.7502C44.6002 45.54 44.7502 45.54 44.7502 45.54H44.8302C44.8302 45.54 44.9102 45.54 44.8302 45.54C44.7902 45.53 44.7602 45.53 44.7202 45.54C44.4902 45.59 44.2702 45.67 44.0602 45.79C43.7702 45.95 43.4802 46.13 43.2202 46.33C42.9402 46.55 42.6502 46.7999 42.3902 47.0499C41.8602 47.5599 41.3902 48.0499 41.0902 48.4399L40.5702 49.04L40.3402 49.31C38.9002 50.92 36.4702 51.1799 34.7202 49.9199C33.6002 49.1399 33.0302 47.79 33.2502 46.45C33.2502 46.45 33.3202 46.04 33.5102 45.33C33.8202 44.32 34.2402 43.3399 34.7602 42.4199C35.6202 40.9199 36.7702 39.62 38.1402 38.58C39.0602 37.87 40.0902 37.3099 41.1902 36.9199C41.4902 36.7999 41.8002 36.71 42.1102 36.63C42.4402 36.54 42.7702 36.46 43.1102 36.4L43.7202 36.31L44.2302 36.2599H44.7802H45.3102H45.5702H46.0802C46.4202 36.2599 46.7502 36.35 47.0802 36.4C48.8702 36.73 50.5602 37.47 52.0002 38.58C53.3802 39.62 54.5302 40.9199 55.3802 42.4199C55.6902 42.9399 55.9602 43.49 56.1802 44.06C56.3702 44.5 56.5302 44.94 56.6602 45.4C56.7302 45.64 56.7902 45.8799 56.8202 46.1199V46.3699C57.1202 48.4199 55.7002 50.3199 53.6502 50.6199C53.6002 50.6299 53.5602 50.6299 53.5102 50.6399C52.0202 50.8799 50.5102 50.2999 49.5602 49.1199Z" fill="#1A1717" style="fill:#1A1717;fill:color(display-p3 0.1020 0.0902 0.0902);fill-opacity:1;"/>
<path d="M49.5602 49.1199L49.4102 48.9199L49.0002 48.38L48.4702 47.7999C48.2502 47.5599 47.9902 47.3099 47.7402 47.0499C47.4902 46.7899 47.1802 46.55 46.9002 46.33C46.6402 46.13 46.3602 45.94 46.0602 45.79C45.8602 45.68 45.6402 45.59 45.4102 45.54C45.3402 45.53 45.2702 45.53 45.2002 45.54H45.3002H44.7502C44.6002 45.54 44.7502 45.54 44.7502 45.54H44.8302C44.8302 45.54 44.9102 45.54 44.8302 45.54C44.7902 45.53 44.7602 45.53 44.7202 45.54C44.4902 45.59 44.2702 45.67 44.0602 45.79C43.7702 45.95 43.4802 46.13 43.2202 46.33C42.9402 46.55 42.6502 46.7999 42.3902 47.0499C41.8602 47.5599 41.3902 48.0499 41.0902 48.4399L40.5702 49.04L40.3402 49.31C38.9002 50.92 36.4702 51.1799 34.7202 49.9199C33.6002 49.1399 33.0302 47.79 33.2502 46.45C33.2502 46.45 33.3202 46.04 33.5102 45.33C33.8202 44.32 34.2402 43.3399 34.7602 42.4199C35.6202 40.9199 36.7702 39.62 38.1402 38.58C39.0602 37.87 40.0902 37.3099 41.1902 36.9199C41.4902 36.7999 41.8002 36.71 42.1102 36.63C42.4402 36.54 42.7702 36.46 43.1102 36.4L43.7202 36.31L44.2302 36.2599H44.7802H45.3102H45.5702H46.0802C46.4202 36.2599 46.7502 36.35 47.0802 36.4C48.8702 36.73 50.5602 37.47 52.0002 38.58C53.3802 39.62 54.5302 40.9199 55.3802 42.4199C55.6902 42.9399 55.9602 43.49 56.1802 44.06C56.3702 44.5 56.5302 44.94 56.6602 45.4C56.7302 45.64 56.7902 45.8799 56.8202 46.1199V46.3699C57.1202 48.4199 55.7002 50.3199 53.6502 50.6199C53.6002 50.6299 53.5602 50.6299 53.5102 50.6399C52.0202 50.8799 50.5102 50.2999 49.5602 49.1199Z" fill="#49362E" style="fill:#49362E;fill:color(display-p3 0.2863 0.2118 0.1804);fill-opacity:1;"/>
<path d="M87.0604 49.12L86.9004 48.92L86.4704 48.38L85.9404 47.8C85.7204 47.56 85.4604 47.31 85.2104 47.05C84.9604 46.79 84.6504 46.55 84.3704 46.33C84.1104 46.13 83.8304 45.94 83.5304 45.79C83.3304 45.68 83.1104 45.59 82.8804 45.54C82.8104 45.53 82.7404 45.53 82.6704 45.54H82.7704H82.2204C82.0704 45.54 82.2204 45.54 82.2204 45.54H82.3004C82.3004 45.54 82.3804 45.54 82.3004 45.54C82.2604 45.53 82.2304 45.53 82.1904 45.54C81.9604 45.59 81.7404 45.67 81.5304 45.79C81.2404 45.94 80.9604 46.13 80.7004 46.33C80.4104 46.55 80.1304 46.79 79.8604 47.05C79.3304 47.56 78.8604 48.05 78.5604 48.44L78.0004 49L77.7804 49.27C76.3304 50.88 73.9104 51.14 72.1504 49.88C71.0304 49.1 70.4604 47.75 70.6804 46.41C70.6804 46.41 70.7504 46 70.9504 45.29C71.2504 44.27 71.6704 43.3 72.2004 42.38C73.0504 40.88 74.2004 39.58 75.5704 38.54C76.4804 37.84 77.4904 37.28 78.5704 36.88C78.8704 36.76 79.1804 36.67 79.4904 36.59C79.8204 36.5 80.1504 36.42 80.4904 36.36L81.1104 36.27L81.6104 36.22H82.1604H82.6904H82.9504H83.4604C83.8004 36.22 84.1304 36.31 84.4604 36.36C85.1004 36.47 85.7404 36.64 86.3504 36.87C87.4304 37.26 88.4404 37.82 89.3504 38.53C90.7304 39.57 91.8804 40.87 92.7304 42.37C93.0404 42.89 93.3104 43.44 93.5304 44.01C93.7204 44.45 93.8804 44.89 94.0104 45.35C94.0804 45.59 94.1404 45.83 94.1704 46.07V46.32C94.5104 48.36 93.1204 50.29 91.0804 50.63C91.0504 50.63 91.0304 50.64 91.0004 50.64C89.5104 50.88 88.0004 50.3 87.0604 49.12Z" fill="#49362E" style="fill:#49362E;fill:color(display-p3 0.2863 0.2118 0.1804);fill-opacity:1;"/>
<path d="M87.0604 49.12L86.9004 48.92L86.4704 48.38L85.9404 47.8C85.7204 47.56 85.4604 47.31 85.2104 47.05C84.9604 46.79 84.6504 46.55 84.3704 46.33C84.1104 46.13 83.8304 45.94 83.5304 45.79C83.3304 45.68 83.1104 45.59 82.8804 45.54C82.8104 45.53 82.7404 45.53 82.6704 45.54H82.7704H82.2204C82.0704 45.54 82.2204 45.54 82.2204 45.54H82.3004C82.3004 45.54 82.3804 45.54 82.3004 45.54C82.2604 45.53 82.2304 45.53 82.1904 45.54C81.9604 45.59 81.7404 45.67 81.5304 45.79C81.2404 45.94 80.9604 46.13 80.7004 46.33C80.4104 46.55 80.1304 46.79 79.8604 47.05C79.3304 47.56 78.8604 48.05 78.5604 48.44L78.0004 49L77.7804 49.27C76.3304 50.88 73.9104 51.14 72.1504 49.88C71.0304 49.1 70.4604 47.75 70.6804 46.41C70.6804 46.41 70.7504 46 70.9504 45.29C71.2504 44.27 71.6704 43.3 72.2004 42.38C73.0504 40.88 74.2004 39.58 75.5704 38.54C76.4804 37.84 77.4904 37.28 78.5704 36.88C78.8704 36.76 79.1804 36.67 79.4904 36.59C79.8204 36.5 80.1504 36.42 80.4904 36.36L81.1104 36.27L81.6104 36.22H82.1604H82.6904H82.9504H83.4604C83.8004 36.22 84.1304 36.31 84.4604 36.36C85.1004 36.47 85.7404 36.64 86.3504 36.87C87.4304 37.26 88.4404 37.82 89.3504 38.53C90.7304 39.57 91.8804 40.87 92.7304 42.37C93.0404 42.89 93.3104 43.44 93.5304 44.01C93.7204 44.45 93.8804 44.89 94.0104 45.35C94.0804 45.59 94.1404 45.83 94.1704 46.07V46.32C94.5104 48.36 93.1204 50.29 91.0804 50.63C91.0504 50.63 91.0304 50.64 91.0004 50.64C89.5104 50.88 88.0004 50.3 87.0604 49.12Z" fill="#1A1717" style="fill:#1A1717;fill:color(display-p3 0.1020 0.0902 0.0902);fill-opacity:1;"/>
<path d="M87.0604 49.12L86.9004 48.92L86.4704 48.38L85.9404 47.8C85.7204 47.56 85.4604 47.31 85.2104 47.05C84.9604 46.79 84.6504 46.55 84.3704 46.33C84.1104 46.13 83.8304 45.94 83.5304 45.79C83.3304 45.68 83.1104 45.59 82.8804 45.54C82.8104 45.53 82.7404 45.53 82.6704 45.54H82.7704H82.2204C82.0704 45.54 82.2204 45.54 82.2204 45.54H82.3004C82.3004 45.54 82.3804 45.54 82.3004 45.54C82.2604 45.53 82.2304 45.53 82.1904 45.54C81.9604 45.59 81.7404 45.67 81.5304 45.79C81.2404 45.94 80.9604 46.13 80.7004 46.33C80.4104 46.55 80.1304 46.79 79.8604 47.05C79.3304 47.56 78.8604 48.05 78.5604 48.44L78.0004 49L77.7804 49.27C76.3304 50.88 73.9104 51.14 72.1504 49.88C71.0304 49.1 70.4604 47.75 70.6804 46.41C70.6804 46.41 70.7504 46 70.9504 45.29C71.2504 44.27 71.6704 43.3 72.2004 42.38C73.0504 40.88 74.2004 39.58 75.5704 38.54C76.4804 37.84 77.4904 37.28 78.5704 36.88C78.8704 36.76 79.1804 36.67 79.4904 36.59C79.8204 36.5 80.1504 36.42 80.4904 36.36L81.1104 36.27L81.6104 36.22H82.1604H82.6904H82.9504H83.4604C83.8004 36.22 84.1304 36.31 84.4604 36.36C85.1004 36.47 85.7404 36.64 86.3504 36.87C87.4304 37.26 88.4404 37.82 89.3504 38.53C90.7304 39.57 91.8804 40.87 92.7304 42.37C93.0404 42.89 93.3104 43.44 93.5304 44.01C93.7204 44.45 93.8804 44.89 94.0104 45.35C94.0804 45.59 94.1404 45.83 94.1704 46.07V46.32C94.5104 48.36 93.1204 50.29 91.0804 50.63C91.0504 50.63 91.0304 50.64 91.0004 50.64C89.5104 50.88 88.0004 50.3 87.0604 49.12Z" fill="#49362E" style="fill:#49362E;fill:color(display-p3 0.2863 0.2118 0.1804);fill-opacity:1;"/>
<path opacity="0.66" d="M79.1699 75C79.6199 73 79.9599 73.91 80.2499 71.92C80.4699 70.42 82.9299 67.1 82.9599 65.59C82.9599 64.48 83.4999 62.72 82.8699 61.81C80.6699 58.67 76.9899 60.18 75.8699 60.56C72.0099 61.84 68.6999 64.26 65.1199 66.12C60.5699 68.45 55.7399 70.2 50.7499 71.33C52.8899 67.17 55.5899 55.51 48.6899 57.12C45.5399 57.85 43.4899 62.77 42.7699 64.2C38.8599 72 33.4299 75.71 29.2099 83.09C24.9899 90.47 24.8299 98.43 29.4999 105.83C31.1999 108.67 33.5399 111.07 36.3399 112.83C39.2799 114.55 42.4499 113.27 45.2099 111.83C52.0299 108.34 58.4199 104.07 64.2599 99.11C69.9999 94.06 74.8399 87.86 77.4999 80.7C78.1799 78.84 78.7399 76.93 79.1699 75Z" fill="url(#paint8_linear_169_12896)" style=""/>
<path d="M94.8001 78.85C92.5801 75.67 86.8001 78.92 86.8001 78.92C86.8001 78.92 89.8001 76.31 92.3001 73.92C93.9001 72.39 95.3001 69.13 93.9901 66.92C92.6801 64.71 88.8701 64.85 87.0001 66L79.6701 70.5C79.6701 70.5 82.4201 69.3 83.2501 64.58C83.7701 62.67 82.6501 60.7 80.7401 60.18C80.3801 60.08 80.0101 60.04 79.6401 60.06C77.9101 60.21 76.2601 60.85 74.8701 61.9C69.5701 65.66 55.4201 75.25 52.2501 75C51.0201 74.9 50.9101 74.71 53.5001 69.17C55.2401 65.85 55.4001 61.92 53.9401 58.47C53.0901 56.47 49.1701 55.92 47.9401 57.85C47.0101 59.27 46.3401 62.75 44.7201 66.25C42.0001 72 35.7301 79.72 35.2201 80.48C31.4901 86 24.5401 96.29 31.8201 107.83C38.2601 118.05 52.9601 118.53 60.4901 115.83C74.8801 110.73 88.1301 100.93 88.3801 100.73C91.0001 98.65 93.3801 95.6 92.3001 92.82C90.9701 89.38 86.5601 91.42 86.5601 91.42C89.1101 89.87 91.4001 87.92 93.3301 85.64C95.1601 83.28 96.2901 81 94.8001 78.85Z" fill="url(#paint9_radial_169_12896)" style=""/>
<path d="M94.8001 78.85C92.5801 75.67 86.8001 78.92 86.8001 78.92C86.8001 78.92 89.8001 76.31 92.3001 73.92C93.9001 72.39 95.3001 69.13 93.9901 66.92C92.6801 64.71 88.8701 64.85 87.0001 66L79.6701 70.5C79.6701 70.5 82.4201 69.3 83.2501 64.58C83.7701 62.67 82.6501 60.7 80.7401 60.18C80.3801 60.08 80.0101 60.04 79.6401 60.06C77.9101 60.21 76.2601 60.85 74.8701 61.9C69.5701 65.66 55.4201 75.25 52.2501 75C51.0201 74.9 50.9101 74.71 53.5001 69.17C55.2401 65.85 55.4001 61.92 53.9401 58.47C53.0901 56.47 49.1701 55.92 47.9401 57.85C47.0101 59.27 46.3401 62.75 44.7201 66.25C42.0001 72 35.7301 79.72 35.2201 80.48C31.4901 86 24.5401 96.29 31.8201 107.83C38.2601 118.05 52.9601 118.53 60.4901 115.83C74.8801 110.73 88.1301 100.93 88.3801 100.73C91.0001 98.65 93.3801 95.6 92.3001 92.82C90.9701 89.38 86.5601 91.42 86.5601 91.42C89.1101 89.87 91.4001 87.92 93.3301 85.64C95.1601 83.28 96.2901 81 94.8001 78.85Z" fill="url(#paint10_radial_169_12896)" style=""/>
<path d="M94.8001 78.85C92.5801 75.67 86.8001 78.92 86.8001 78.92C86.8001 78.92 89.8001 76.31 92.3001 73.92C93.9001 72.39 95.3001 69.13 93.9901 66.92C92.6801 64.71 88.8701 64.85 87.0001 66L79.6701 70.5C79.6701 70.5 82.4201 69.3 83.2501 64.58C83.7701 62.67 82.6501 60.7 80.7401 60.18C80.3801 60.08 80.0101 60.04 79.6401 60.06C77.9101 60.21 76.2601 60.85 74.8701 61.9C69.5701 65.66 55.4201 75.25 52.2501 75C51.0201 74.9 50.9101 74.71 53.5001 69.17C55.2401 65.85 55.4001 61.92 53.9401 58.47C53.0901 56.47 49.1701 55.92 47.9401 57.85C47.0101 59.27 46.3401 62.75 44.7201 66.25C42.0001 72 35.7301 79.72 35.2201 80.48C31.4901 86 24.5401 96.29 31.8201 107.83C38.2601 118.05 52.9601 118.53 60.4901 115.83C74.8801 110.73 88.1301 100.93 88.3801 100.73C91.0001 98.65 93.3801 95.6 92.3001 92.82C90.9701 89.38 86.5601 91.42 86.5601 91.42C89.1101 89.87 91.4001 87.92 93.3301 85.64C95.1601 83.28 96.2901 81 94.8001 78.85Z" fill="url(#paint11_radial_169_12896)" style=""/>
<path d="M94.8001 78.85C92.5801 75.67 86.8001 78.92 86.8001 78.92C86.8001 78.92 89.8001 76.31 92.3001 73.92C93.9001 72.39 95.3001 69.13 93.9901 66.92C92.6801 64.71 88.8701 64.85 87.0001 66L79.6701 70.5C79.6701 70.5 82.4201 69.3 83.2501 64.58C83.7701 62.67 82.6501 60.7 80.7401 60.18C80.3801 60.08 80.0101 60.04 79.6401 60.06C77.9101 60.21 76.2601 60.85 74.8701 61.9C69.5701 65.66 55.4201 75.25 52.2501 75C51.0201 74.9 50.9101 74.71 53.5001 69.17C55.2401 65.85 55.4001 61.92 53.9401 58.47C53.0901 56.47 49.1701 55.92 47.9401 57.85C47.0101 59.27 46.3401 62.75 44.7201 66.25C42.0001 72 35.7301 79.72 35.2201 80.48C31.4901 86 24.5401 96.29 31.8201 107.83C38.2601 118.05 52.9601 118.53 60.4901 115.83C74.8801 110.73 88.1301 100.93 88.3801 100.73C91.0001 98.65 93.3801 95.6 92.3001 92.82C90.9701 89.38 86.5601 91.42 86.5601 91.42C89.1101 89.87 91.4001 87.92 93.3301 85.64C95.1601 83.28 96.2901 81 94.8001 78.85Z" fill="url(#paint12_radial_169_12896)" style=""/>
<path d="M94.8001 78.85C92.5801 75.67 86.8001 78.92 86.8001 78.92C86.8001 78.92 89.8001 76.31 92.3001 73.92C93.9001 72.39 95.3001 69.13 93.9901 66.92C92.6801 64.71 88.8701 64.85 87.0001 66L79.6701 70.5C79.6701 70.5 82.4201 69.3 83.2501 64.58C83.7701 62.67 82.6501 60.7 80.7401 60.18C80.3801 60.08 80.0101 60.04 79.6401 60.06C77.9101 60.21 76.2601 60.85 74.8701 61.9C69.5701 65.66 55.4201 75.25 52.2501 75C51.0201 74.9 50.9101 74.71 53.5001 69.17C55.2401 65.85 55.4001 61.92 53.9401 58.47C53.0901 56.47 49.1701 55.92 47.9401 57.85C47.0101 59.27 46.3401 62.75 44.7201 66.25C42.0001 72 35.7301 79.72 35.2201 80.48C31.4901 86 24.5401 96.29 31.8201 107.83C38.2601 118.05 52.9601 118.53 60.4901 115.83C74.8801 110.73 88.1301 100.93 88.3801 100.73C91.0001 98.65 93.3801 95.6 92.3001 92.82C90.9701 89.38 86.5601 91.42 86.5601 91.42C89.1101 89.87 91.4001 87.92 93.3301 85.64C95.1601 83.28 96.2901 81 94.8001 78.85Z" fill="url(#paint13_radial_169_12896)" style=""/>
<path d="M62.06 82.25C61.06 81.17 66.06 79.25 68.06 77.79L74.32 73.79C76.38 72.46 78.29 70.92 80.03 69.2C81.83 67.55 82.96 65.3 83.2 62.87C83.47 64.15 83.4 65.48 83 66.72C82.58 67.97 81.95 69.14 81.12 70.16C79.46 72.12 77.53 73.83 75.38 75.24C73.34 76.72 71.21 78.05 68.99 79.24C66.77 80.41 62.63 83.35 62.06 82.25Z" fill="#ED6C30" style="fill:#ED6C30;fill:color(display-p3 0.9294 0.4235 0.1882);fill-opacity:1;"/>
<path d="M62.06 82.25C61.06 81.17 66.06 79.25 68.06 77.79L74.32 73.79C76.38 72.46 78.29 70.92 80.03 69.2C81.83 67.55 82.96 65.3 83.2 62.87C83.47 64.15 83.4 65.48 83 66.72C82.58 67.97 81.95 69.14 81.12 70.16C79.46 72.12 77.53 73.83 75.38 75.24C73.34 76.72 71.21 78.05 68.99 79.24C66.77 80.41 62.63 83.35 62.06 82.25Z" fill="#91674D" style="fill:#91674D;fill:color(display-p3 0.5686 0.4039 0.3020);fill-opacity:1;"/>
<path d="M74.38 97.75C73.93 97.13 78.29 95.6 80.19 94.48C82.08 93.38 83.91 92.19 85.67 90.91C87.44 89.6 89.21 88.33 90.85 86.91C92.55 85.51 94.1 83.94 95.49 82.24C94.8 84.44 93.6 86.45 92 88.11C90.44 89.77 88.69 91.24 86.8 92.51C85 93.82 75.4 99.3 74.38 97.75Z" fill="#ED6C30" style="fill:#ED6C30;fill:color(display-p3 0.9294 0.4235 0.1882);fill-opacity:1;"/>
<path d="M74.38 97.75C73.93 97.13 78.29 95.6 80.19 94.48C82.08 93.38 83.91 92.19 85.67 90.91C87.44 89.6 89.21 88.33 90.85 86.91C92.55 85.51 94.1 83.94 95.49 82.24C94.8 84.44 93.6 86.45 92 88.11C90.44 89.77 88.69 91.24 86.8 92.51C85 93.82 75.4 99.3 74.38 97.75Z" fill="#91674D" style="fill:#91674D;fill:color(display-p3 0.5686 0.4039 0.3020);fill-opacity:1;"/>
<path d="M68.9997 90C68.1497 89 73.9997 86.83 76.3697 85.26C78.7397 83.69 81.1097 82.2 83.5197 80.53C85.8997 78.95 88.1597 77.21 90.2797 75.31C91.3097 74.36 92.2197 73.29 92.9997 72.13C93.8097 70.94 94.2997 69.56 94.4197 68.13C94.6697 69.62 94.4497 71.16 93.7897 72.52C93.1597 73.9 92.3197 75.17 91.3097 76.29C90.3397 77.42 89.2697 78.46 88.1197 79.41C86.9897 80.41 85.8097 81.26 84.6197 82.11C82.2697 83.87 79.7797 85.43 77.1797 86.8C74.5397 88.15 69.8797 91.15 68.9997 90Z" fill="#ED6C30" style="fill:#ED6C30;fill:color(display-p3 0.9294 0.4235 0.1882);fill-opacity:1;"/>
<path d="M68.9997 90C68.1497 89 73.9997 86.83 76.3697 85.26C78.7397 83.69 81.1097 82.2 83.5197 80.53C85.8997 78.95 88.1597 77.21 90.2797 75.31C91.3097 74.36 92.2197 73.29 92.9997 72.13C93.8097 70.94 94.2997 69.56 94.4197 68.13C94.6697 69.62 94.4497 71.16 93.7897 72.52C93.1597 73.9 92.3197 75.17 91.3097 76.29C90.3397 77.42 89.2697 78.46 88.1197 79.41C86.9897 80.41 85.8097 81.26 84.6197 82.11C82.2697 83.87 79.7797 85.43 77.1797 86.8C74.5397 88.15 69.8797 91.15 68.9997 90Z" fill="#91674D" style="fill:#91674D;fill:color(display-p3 0.5686 0.4039 0.3020);fill-opacity:1;"/>
<path d="M38.5801 114C41.1001 114.96 43.7401 115.58 46.4301 115.84C49.0901 116.14 51.7701 116.14 54.4301 115.84C57.0601 115.54 59.6501 114.96 62.1601 114.11C64.6801 113.24 67.1301 112.18 69.4901 110.93C74.3401 108.56 79.1501 106.11 83.7501 103.33C86.0501 101.99 88.2001 100.39 90.1501 98.57C91.1101 97.67 91.8301 96.55 92.2601 95.3C92.6901 94.02 92.4001 92.6 91.5101 91.59C92.5601 92.55 93.0101 94.01 92.6701 95.39C92.3201 96.76 91.6701 98.03 90.7601 99.11C89.8901 100.21 88.9101 101.21 87.8401 102.11C86.7901 103 85.7001 103.84 84.5701 104.62C80.0401 107.68 75.3001 110.41 70.3701 112.77C67.9201 114.05 65.3701 115.12 62.7501 115.98C60.0901 116.8 57.3401 117.3 54.5601 117.46C49.0101 117.84 43.4701 116.64 38.5801 114Z" fill="#ED6C30" style="fill:#ED6C30;fill:color(display-p3 0.9294 0.4235 0.1882);fill-opacity:1;"/>
<path d="M38.5801 114C41.1001 114.96 43.7401 115.58 46.4301 115.84C49.0901 116.14 51.7701 116.14 54.4301 115.84C57.0601 115.54 59.6501 114.96 62.1601 114.11C64.6801 113.24 67.1301 112.18 69.4901 110.93C74.3401 108.56 79.1501 106.11 83.7501 103.33C86.0501 101.99 88.2001 100.39 90.1501 98.57C91.1101 97.67 91.8301 96.55 92.2601 95.3C92.6901 94.02 92.4001 92.6 91.5101 91.59C92.5601 92.55 93.0101 94.01 92.6701 95.39C92.3201 96.76 91.6701 98.03 90.7601 99.11C89.8901 100.21 88.9101 101.21 87.8401 102.11C86.7901 103 85.7001 103.84 84.5701 104.62C80.0401 107.68 75.3001 110.41 70.3701 112.77C67.9201 114.05 65.3701 115.12 62.7501 115.98C60.0901 116.8 57.3401 117.3 54.5601 117.46C49.0101 117.84 43.4701 116.64 38.5801 114Z" fill="#91674D" style="fill:#91674D;fill:color(display-p3 0.5686 0.4039 0.3020);fill-opacity:1;"/>
<defs>
<radialGradient id="paint0_radial_169_12896" cx="0" cy="0" r="1" gradientUnits="userSpaceOnUse" gradientTransform="translate(63.6001 62.9) scale(56.9597 56.9597)">
<stop offset="0.5" stop-color="#FDE030" style="stop-color:#FDE030;stop-color:color(display-p3 0.9922 0.8784 0.1882);stop-opacity:1;"/>
<stop offset="0.92" stop-color="#F7C02B" style="stop-color:#F7C02B;stop-color:color(display-p3 0.9686 0.7529 0.1686);stop-opacity:1;"/>
<stop offset="1" stop-color="#F4A223" style="stop-color:#F4A223;stop-color:color(display-p3 0.9569 0.6353 0.1373);stop-opacity:1;"/>
</radialGradient>
<linearGradient id="paint1_linear_169_12896" x1="63.6001" y1="118.8" x2="63.6001" y2="7" gradientUnits="userSpaceOnUse">
<stop offset="0.16" stop-color="#F4A223" style="stop-color:#F4A223;stop-color:color(display-p3 0.9569 0.6353 0.1373);stop-opacity:1;"/>
<stop offset="0.33" stop-color="#F7C02B" style="stop-color:#F7C02B;stop-color:color(display-p3 0.9686 0.7529 0.1686);stop-opacity:1;"/>
<stop offset="0.81" stop-color="#FDE030" stop-opacity="0" style="stop-color:none;stop-opacity:0;"/>
</linearGradient>
<radialGradient id="paint2_radial_169_12896" cx="0" cy="0" r="1" gradientUnits="userSpaceOnUse" gradientTransform="translate(53 33.5) rotate(79.6952) scale(61.4919 100.858)">
<stop offset="0.3533" stop-color="#F9DDBD" style="stop-color:#F9DDBD;stop-color:color(display-p3 0.9765 0.8667 0.7412);stop-opacity:1;"/>
<stop offset="0.8723" stop-color="#FECD92" style="stop-color:#FECD92;stop-color:color(display-p3 0.9958 0.8035 0.5726);stop-opacity:1;"/>
</radialGradient>
<radialGradient id="paint3_radial_169_12896" cx="0" cy="0" r="1" gradientUnits="userSpaceOnUse" gradientTransform="translate(64 24) rotate(94.514) scale(76.2365 76.0874)">
<stop offset="0.3533" stop-color="#70534A" style="stop-color:#70534A;stop-color:color(display-p3 0.4392 0.3255 0.2902);stop-opacity:1;"/>
<stop offset="0.8723" stop-color="#52372F" style="stop-color:#52372F;stop-color:color(display-p3 0.3208 0.2166 0.1831);stop-opacity:1;"/>
</radialGradient>
<radialGradient id="paint4_radial_169_12896" cx="0" cy="0" r="1" gradientUnits="userSpaceOnUse" gradientTransform="translate(38.5991 34.5377) rotate(-43.2082) scale(102.024 101.825)">
<stop offset="0.3533" stop-color="#A37A58" style="stop-color:#A37A58;stop-color:color(display-p3 0.6375 0.4772 0.3453);stop-opacity:1;"/>
<stop offset="0.8723" stop-color="#8D5738" style="stop-color:#8D5738;stop-color:color(display-p3 0.5529 0.3412 0.2196);stop-opacity:1;"/>
</radialGradient>
<radialGradient id="paint5_radial_169_12896" cx="0" cy="0" r="1" gradientUnits="userSpaceOnUse" gradientTransform="translate(38.5991 34.5377) rotate(-43.2082) scale(102.024 101.825)">
<stop offset="0.3533" stop-color="#AD8264" style="stop-color:#AD8264;stop-color:color(display-p3 0.6784 0.5098 0.3922);stop-opacity:1;"/>
<stop offset="0.8723" stop-color="#A56F4E" style="stop-color:#A56F4E;stop-color:color(display-p3 0.6458 0.4352 0.3068);stop-opacity:1;"/>
</radialGradient>
<radialGradient id="paint6_radial_169_12896" cx="0" cy="0" r="1" gradientUnits="userSpaceOnUse" gradientTransform="translate(27.25 68.16) scale(19.0831 18.1094)">
<stop stop-color="#ED7770" style="stop-color:#ED7770;stop-color:color(display-p3 0.9294 0.4667 0.4392);stop-opacity:1;"/>
<stop offset="0.08" stop-color="#ED7770" stop-opacity="0.96" style="stop-color:#ED7770;stop-color:color(display-p3 0.9294 0.4667 0.4392);stop-opacity:0.96;"/>
<stop offset="0.22" stop-color="#ED7770" stop-opacity="0.85" style="stop-color:#ED7770;stop-color:color(display-p3 0.9294 0.4667 0.4392);stop-opacity:0.85;"/>
<stop offset="0.39" stop-color="#ED7770" stop-opacity="0.68" style="stop-color:#ED7770;stop-color:color(display-p3 0.9294 0.4667 0.4392);stop-opacity:0.68;"/>
<stop offset="0.59" stop-color="#ED7770" stop-opacity="0.43" style="stop-color:#ED7770;stop-color:color(display-p3 0.9294 0.4667 0.4392);stop-opacity:0.43;"/>
<stop offset="0.81" stop-color="#ED7770" stop-opacity="0.13" style="stop-color:#ED7770;stop-color:color(display-p3 0.9294 0.4667 0.4392);stop-opacity:0.13;"/>
<stop offset="0.9" stop-color="#ED7770" stop-opacity="0" style="stop-color:none;stop-opacity:0;"/>
</radialGradient>
<radialGradient id="paint7_radial_169_12896" cx="0" cy="0" r="1" gradientUnits="userSpaceOnUse" gradientTransform="translate(100.356 68.16) scale(19.0831 18.1094)">
<stop stop-color="#ED7770" style="stop-color:#ED7770;stop-color:color(display-p3 0.9294 0.4667 0.4392);stop-opacity:1;"/>
<stop offset="0.08" stop-color="#ED7770" stop-opacity="0.96" style="stop-color:#ED7770;stop-color:color(display-p3 0.9294 0.4667 0.4392);stop-opacity:0.96;"/>
<stop offset="0.22" stop-color="#ED7770" stop-opacity="0.85" style="stop-color:#ED7770;stop-color:color(display-p3 0.9294 0.4667 0.4392);stop-opacity:0.85;"/>
<stop offset="0.39" stop-color="#ED7770" stop-opacity="0.68" style="stop-color:#ED7770;stop-color:color(display-p3 0.9294 0.4667 0.4392);stop-opacity:0.68;"/>
<stop offset="0.59" stop-color="#ED7770" stop-opacity="0.43" style="stop-color:#ED7770;stop-color:color(display-p3 0.9294 0.4667 0.4392);stop-opacity:0.43;"/>
<stop offset="0.81" stop-color="#ED7770" stop-opacity="0.13" style="stop-color:#ED7770;stop-color:color(display-p3 0.9294 0.4667 0.4392);stop-opacity:0.13;"/>
<stop offset="0.9" stop-color="#ED7770" stop-opacity="0" style="stop-color:none;stop-opacity:0;"/>
</radialGradient>
<linearGradient id="paint8_linear_169_12896" x1="54.817" y1="126.695" x2="53.7413" y2="57.0941" gradientUnits="userSpaceOnUse">
<stop stop-color="#140905" style="stop-color:#140905;stop-color:color(display-p3 0.0792 0.0350 0.0214);stop-opacity:1;"/>
<stop offset="1" stop-color="#2C1109" stop-opacity="0.2" style="stop-color:#2C1109;stop-color:color(display-p3 0.1708 0.0679 0.0363);stop-opacity:0.2;"/>
</linearGradient>
<radialGradient id="paint9_radial_169_12896" cx="0" cy="0" r="1" gradientUnits="userSpaceOnUse" gradientTransform="translate(63.0601 73.94) scale(65.06 65.06)">
<stop offset="0.27" stop-color="#FFF176" style="stop-color:#FFF176;stop-color:color(display-p3 1.0000 0.9451 0.4627);stop-opacity:1;"/>
<stop offset="1" stop-color="#FFC400" style="stop-color:#FFC400;stop-color:color(display-p3 1.0000 0.7686 0.0000);stop-opacity:1;"/>
</radialGradient>
<radialGradient id="paint10_radial_169_12896" cx="0" cy="0" r="1" gradientUnits="userSpaceOnUse" gradientTransform="translate(47.6502 71.5747) rotate(-41.4461) scale(57.1781 56.7387)">
<stop offset="0.3533" stop-color="#F9DDBD" style="stop-color:#F9DDBD;stop-color:color(display-p3 0.9765 0.8667 0.7412);stop-opacity:1;"/>
<stop offset="0.8723" stop-color="#FFD29C" style="stop-color:#FFD29C;stop-color:color(display-p3 1.0000 0.8235 0.6118);stop-opacity:1;"/>
</radialGradient>
<radialGradient id="paint11_radial_169_12896" cx="0" cy="0" r="1" gradientUnits="userSpaceOnUse" gradientTransform="translate(47.6502 71.5747) rotate(-41.4461) scale(57.1781 56.7387)">
<stop offset="0.3533" stop-color="#7D5B50" style="stop-color:#7D5B50;stop-color:color(display-p3 0.4917 0.3572 0.3155);stop-opacity:1;"/>
<stop offset="0.8723" stop-color="#6D4C41" style="stop-color:#6D4C41;stop-color:color(display-p3 0.4292 0.2966 0.2539);stop-opacity:1;"/>
</radialGradient>
<radialGradient id="paint12_radial_169_12896" cx="0" cy="0" r="1" gradientUnits="userSpaceOnUse" gradientTransform="translate(47.6502 71.5747) rotate(-41.4461) scale(57.1781 56.7387)">
<stop offset="0.3533" stop-color="#A37A58" style="stop-color:#A37A58;stop-color:color(display-p3 0.6375 0.4772 0.3453);stop-opacity:1;"/>
<stop offset="0.8723" stop-color="#8D5738" style="stop-color:#8D5738;stop-color:color(display-p3 0.5529 0.3412 0.2196);stop-opacity:1;"/>
</radialGradient>
<radialGradient id="paint13_radial_169_12896" cx="0" cy="0" r="1" gradientUnits="userSpaceOnUse" gradientTransform="translate(47.6502 71.5747) rotate(-41.4461) scale(57.1781 56.7387)">
<stop offset="0.3533" stop-color="#C09679" style="stop-color:#C09679;stop-color:color(display-p3 0.7542 0.5894 0.4745);stop-opacity:1;"/>
<stop offset="0.8723" stop-color="#A47B62" style="stop-color:#A47B62;stop-color:color(display-p3 0.6431 0.4824 0.3843);stop-opacity:1;"/>
</radialGradient>
</defs>
</svg>
