<svg width="128" height="128" viewBox="0 0 128 128" fill="none" xmlns="http://www.w3.org/2000/svg">
<path d="M63.6001 118.8C35.7001 118.8 5.6001 101.3 5.6001 62.9C5.6001 24.5 35.7001 7 63.6001 7C79.1001 7 93.4001 12.1 104 21.4C115.5 31.6 121.6 46 121.6 62.9C121.6 79.8 115.5 94.1 104 104.3C93.4001 113.6 79.0001 118.8 63.6001 118.8Z" fill="url(#paint0_radial_169_5288)" style=""/>
<path d="M63.6001 118.8C35.7001 118.8 5.6001 101.3 5.6001 62.9C5.6001 24.5 35.7001 7 63.6001 7C79.1001 7 93.4001 12.1 104 21.4C115.5 31.6 121.6 46 121.6 62.9C121.6 79.8 115.5 94.1 104 104.3C93.4001 113.6 79.0001 118.8 63.6001 118.8Z" fill="url(#paint1_radial_169_5288)" style=""/>
<path d="M111.49 29.67C116.82 38.27 119.6 48.51 119.6 59.9C119.6 76.8 113.5 91.1 102 101.3C91.4002 110.6 77.0002 115.8 61.6002 115.8C43.5402 115.8 24.6002 108.45 13.4202 92.86C24.1802 110.52 44.4202 118.8 63.6002 118.8C79.0002 118.8 93.4002 113.6 104 104.3C115.5 94.1001 121.6 79.8 121.6 62.9C121.6 50.16 118.13 38.84 111.49 29.67Z" fill="#EB8F00" style="fill:#EB8F00;fill:color(display-p3 0.9216 0.5608 0.0000);fill-opacity:1;"/>
<path d="M111.49 29.67C116.82 38.27 119.6 48.51 119.6 59.9C119.6 76.8 113.5 91.1 102 101.3C91.4002 110.6 77.0002 115.8 61.6002 115.8C43.5402 115.8 24.6002 108.45 13.4202 92.86C24.1802 110.52 44.4202 118.8 63.6002 118.8C79.0002 118.8 93.4002 113.6 104 104.3C115.5 94.1001 121.6 79.8 121.6 62.9C121.6 50.16 118.13 38.84 111.49 29.67Z" fill="#F3B872" style="fill:#F3B872;fill:color(display-p3 0.9542 0.7229 0.4453);fill-opacity:1;"/>
<path d="M31.5299 60.3799L43.6999 57.9999L31.1499 52.8199L30.7299 52.5899C28.6899 51.4999 27.9099 48.9699 28.9999 46.9199C29.2399 46.4299 29.5799 45.9999 29.9999 45.6499C31.9999 44.1099 34.7499 43.9899 36.8799 45.3499L58.1499 58.3499C58.6699 58.5399 58.9299 59.1099 58.7399 59.6299C58.6099 59.9799 58.2999 60.2299 57.9299 60.2799L34.9999 68.9299C34.8399 68.9599 34.6699 69.0099 34.5199 69.0799C31.5199 69.9199 28.1899 68.1999 27.7299 65.2999C27.3999 63.0999 29.0999 61.0499 31.5299 60.3799Z" fill="#312D2D" style="fill:#312D2D;fill:color(display-p3 0.1922 0.1765 0.1765);fill-opacity:1;"/>
<path d="M96.4698 60.1299L84.2998 57.7799L96.8498 52.5699L97.2698 52.3399C99.3098 51.2499 100.09 48.7199 98.9998 46.6699C98.7598 46.1799 98.4198 45.7499 97.9998 45.3999C95.9998 43.8599 93.2498 43.7399 91.1198 45.0999L69.8498 58.0999C69.3298 58.2899 69.0698 58.8599 69.2598 59.3799C69.3898 59.7299 69.6998 59.9799 70.0698 60.0299L92.9998 68.6799C93.1598 68.7099 93.3298 68.7599 93.4798 68.8299C96.4798 69.6699 99.8098 67.9499 100.27 65.0499C100.6 62.8499 98.8998 60.7999 96.4698 60.1299Z" fill="#312D2D" style="fill:#312D2D;fill:color(display-p3 0.1922 0.1765 0.1765);fill-opacity:1;"/>
<path d="M62.82 80.4299C51.32 80.4899 39.84 79.5299 28.51 77.5399C26.61 77.1799 24.77 78.4299 24.41 80.3299C24.32 80.7699 24.32 81.2299 24.41 81.6699C27.67 97.6699 43.41 110.8 62.81 110.8C84.02 110.8 98.29 97.2299 101.26 81.6099C101.6 79.6999 100.34 77.8799 98.43 77.5299C98.01 77.4599 97.57 77.4599 97.15 77.5299C85.82 79.5199 74.33 80.4899 62.82 80.4299Z" fill="#312D2D" style="fill:#312D2D;fill:color(display-p3 0.1922 0.1765 0.1765);fill-opacity:1;"/>
<path d="M62.82 80.4299C51.32 80.4899 39.84 79.5299 28.51 77.5399C26.61 77.1799 24.77 78.4299 24.41 80.3299C24.32 80.7699 24.32 81.2299 24.41 81.6699C27.67 97.6699 43.41 110.8 62.81 110.8C84.02 110.8 98.29 97.2299 101.26 81.6099C101.6 79.6999 100.34 77.8799 98.43 77.5299C98.01 77.4599 97.57 77.4599 97.15 77.5299C85.82 79.5199 74.33 80.4899 62.82 80.4299Z" fill="#312D2D" style="fill:#312D2D;fill:color(display-p3 0.1922 0.1765 0.1765);fill-opacity:1;"/>
<path d="M44.74 87.83V108.83C44.75 118.31 52.43 125.99 61.91 126H65.18C74.66 126 82.35 118.31 82.35 108.83V87.61C63.54 91.31 49.48 88.9 44.74 87.83Z" fill="#FF4081" style="fill:#FF4081;fill:color(display-p3 1.0000 0.2510 0.5059);fill-opacity:1;"/>
<path d="M65.54 84.9999H61.54C55.81 84.9999 50.16 84.7299 44.73 84.2799V87.8299C49.47 88.8999 63.53 91.3099 82.34 87.6099V84.1499C76.93 84.6399 71.29 84.9299 65.54 84.9999Z" fill="#FF4081" style="fill:#FF4081;fill:color(display-p3 1.0000 0.2510 0.5059);fill-opacity:1;"/>
<path opacity="0.3" d="M65.54 84.9999H61.54C55.81 84.9999 50.16 84.7299 44.73 84.2799V87.8299C49.47 88.8999 63.53 91.3099 82.34 87.6099V84.1499C76.93 84.6399 71.29 84.9299 65.54 84.9999Z" fill="#AB3F2E" style="fill:#AB3F2E;fill:color(display-p3 0.6706 0.2471 0.1804);fill-opacity:1;"/>
<path opacity="0.3" d="M63.55 106.25C64.65 106.25 65.5501 105.35 65.5501 104.25V85H61.55V104.24C61.55 105.34 62.45 106.24 63.55 106.24V106.25Z" fill="#AB3F2E" style="fill:#AB3F2E;fill:color(display-p3 0.6706 0.2471 0.1804);fill-opacity:1;"/>
<defs>
<radialGradient id="paint0_radial_169_5288" cx="0" cy="0" r="1" gradientUnits="userSpaceOnUse" gradientTransform="translate(63.6001 62.9) scale(56.9597 56.9597)">
<stop offset="0.5" stop-color="#FDE030" style="stop-color:#FDE030;stop-color:color(display-p3 0.9922 0.8784 0.1882);stop-opacity:1;"/>
<stop offset="0.92" stop-color="#F7C02B" style="stop-color:#F7C02B;stop-color:color(display-p3 0.9686 0.7529 0.1686);stop-opacity:1;"/>
<stop offset="1" stop-color="#F4A223" style="stop-color:#F4A223;stop-color:color(display-p3 0.9569 0.6353 0.1373);stop-opacity:1;"/>
</radialGradient>
<radialGradient id="paint1_radial_169_5288" cx="0" cy="0" r="1" gradientUnits="userSpaceOnUse" gradientTransform="translate(38.5991 34.5377) rotate(-43.2082) scale(102.024 101.825)">
<stop offset="0.3533" stop-color="#F9DDBD" style="stop-color:#F9DDBD;stop-color:color(display-p3 0.9765 0.8667 0.7412);stop-opacity:1;"/>
<stop offset="0.8723" stop-color="#FFD29C" style="stop-color:#FFD29C;stop-color:color(display-p3 1.0000 0.8235 0.6118);stop-opacity:1;"/>
</radialGradient>
</defs>
</svg>
