<svg width="128" height="129" viewBox="0 0 128 129" fill="none" xmlns="http://www.w3.org/2000/svg">
<g clip-path="url(#clip0_194_23)">
<path d="M124 35.7C122.15 36.82 120.34 37.76 118.57 38.55C116.79 39.35 115.05 40 113.33 40.53C111.61 41.06 109.93 41.48 108.27 41.79C106.61 42.11 104.98 42.33 103.38 42.47C101.78 42.61 100.19 42.67 98.63 42.67C97.07 42.67 95.53 42.61 94.01 42.49C92.49 42.37 90.99 42.21 89.51 42.01C88.03 41.8 86.56 41.56 85.11 41.28C83.66 41 82.22 40.7 80.79 40.37C79.36 40.04 77.94 39.69 76.54 39.32C75.13 38.95 73.73 38.56 72.33 38.17C70.93 37.78 69.54 37.36 68.16 36.95C66.77 36.54 65.39 36.12 64 35.7C62.62 35.28 61.23 34.86 59.84 34.45C58.45 34.04 57.06 33.63 55.67 33.23C54.27 32.83 52.87 32.45 51.46 32.08C50.05 31.71 48.63 31.36 47.21 31.03C45.79 30.7 44.34 30.39 42.89 30.12C41.44 29.84 39.97 29.6 38.49 29.39C37.01 29.18 35.51 29.02 33.99 28.91C32.47 28.8 30.93 28.73 29.37 28.73C27.81 28.73 26.23 28.79 24.62 28.93C23.01 29.07 21.38 29.29 19.73 29.61C18.07 29.93 16.39 30.34 14.67 30.87C12.95 31.4 11.21 32.05 9.43 32.85C7.66 33.65 5.85 34.59 4 35.7V30.69C4 30.69 4 27.81 4 26.32V21.31C5.85 20.19 7.66 19.25 9.43 18.46C11.2 17.67 12.95 17.01 14.67 16.48C16.39 15.95 18.07 15.53 19.73 15.22C21.39 14.9 23.02 14.68 24.62 14.54C26.23 14.4 27.81 14.34 29.37 14.34C30.93 14.34 32.47 14.4 33.99 14.52C35.51 14.63 37.01 14.8 38.49 15C39.97 15.2 41.44 15.45 42.89 15.73C44.34 16.01 45.78 16.31 47.21 16.64C48.64 16.97 50.06 17.32 51.46 17.69C52.87 18.06 54.27 18.45 55.67 18.84C57.07 19.23 58.46 19.65 59.84 20.06C61.22 20.47 62.61 20.89 64 21.31C65.38 21.73 66.77 22.15 68.16 22.56C69.55 22.97 70.94 23.38 72.33 23.78C73.72 24.18 75.13 24.56 76.54 24.93C77.95 25.3 79.37 25.65 80.79 25.98C82.22 26.31 83.66 26.62 85.11 26.89C86.56 27.17 88.03 27.41 89.51 27.62C90.99 27.83 92.49 27.99 94.01 28.1C95.53 28.21 97.07 28.28 98.63 28.28C100.19 28.28 101.77 28.22 103.38 28.08C104.99 27.94 106.62 27.72 108.27 27.4C109.93 27.08 111.61 26.67 113.33 26.14C115.05 25.61 116.79 24.96 118.57 24.16C120.35 23.36 122.16 22.42 124 21.31V26.32V30.69C124 30.69 124 33.78 124 35.7Z" fill="#FFC803" style="fill:#FFC803;fill:color(display-p3 1.0000 0.7826 0.0118);fill-opacity:1;"/>
<path d="M124 43.37C122.15 44.49 120.34 45.43 118.57 46.22C116.79 47.02 115.05 47.67 113.33 48.2C111.61 48.73 109.93 49.15 108.27 49.46C106.61 49.78 104.98 50 103.38 50.14C101.78 50.28 100.19 50.34 98.63 50.34C97.07 50.34 95.53 50.28 94.01 50.16C92.49 50.04 90.99 49.88 89.51 49.68C88.03 49.47 86.56 49.23 85.11 48.95C83.66 48.67 82.22 48.37 80.79 48.04C79.36 47.71 77.94 47.36 76.54 46.99C75.13 46.62 73.73 46.23 72.33 45.84C70.93 45.45 69.54 45.03 68.16 44.62C66.77 44.21 65.39 43.79 64 43.37C62.61 42.95 61.23 42.53 59.84 42.12C58.45 41.71 57.06 41.3 55.67 40.9C54.27 40.5 52.87 40.12 51.46 39.75C50.05 39.38 48.63 39.03 47.21 38.7C45.78 38.37 44.34 38.06 42.89 37.79C41.44 37.51 39.97 37.27 38.49 37.06C37.01 36.85 35.51 36.69 33.99 36.58C32.47 36.47 30.93 36.4 29.37 36.4C27.81 36.4 26.23 36.46 24.62 36.6C23.01 36.74 21.38 36.96 19.73 37.28C18.07 37.6 16.39 38.01 14.67 38.54C12.95 39.07 11.21 39.72 9.43 40.52C7.65 41.32 5.85 42.25 4 43.37V38.36C4 38.36 4 35.48 4 33.99C4 32.5 4 30.9 4 28.98C5.85 27.86 7.66 26.92 9.43 26.13C11.21 25.33 12.95 24.68 14.67 24.15C16.39 23.62 18.07 23.2 19.73 22.89C21.39 22.57 23.02 22.35 24.62 22.21C26.23 22.07 27.81 22.01 29.37 22.01C30.93 22.01 32.47 22.07 33.99 22.19C35.51 22.3 37.01 22.47 38.49 22.67C39.97 22.87 41.44 23.12 42.89 23.4C44.34 23.68 45.78 23.98 47.21 24.31C48.64 24.64 50.06 24.99 51.46 25.36C52.87 25.73 54.27 26.12 55.67 26.51C57.07 26.91 58.46 27.32 59.84 27.73C61.23 28.14 62.61 28.56 64 28.98C65.38 29.4 66.77 29.82 68.16 30.23C69.55 30.64 70.94 31.05 72.33 31.45C73.72 31.85 75.13 32.23 76.54 32.6C77.95 32.97 79.37 33.32 80.79 33.65C82.22 33.98 83.66 34.29 85.11 34.56C86.56 34.84 88.03 35.08 89.51 35.29C90.99 35.5 92.49 35.66 94.01 35.77C95.53 35.88 97.07 35.95 98.63 35.95C100.19 35.95 101.77 35.89 103.38 35.75C104.99 35.61 106.62 35.39 108.27 35.07C109.93 34.75 111.61 34.34 113.33 33.81C115.05 33.28 116.79 32.63 118.57 31.83C120.35 31.03 122.16 30.09 124 28.98V33.99C124 33.99 124 36.87 124 38.36C124 39.85 124 41.45 124 43.37Z" fill="#FFC803" style="fill:#FFC803;fill:color(display-p3 1.0000 0.7826 0.0118);fill-opacity:1;"/>
<path d="M124 57.535C122.15 58.6551 120.34 59.595 118.57 60.385C116.79 61.185 115.05 61.8351 113.33 62.3651C111.61 62.8951 109.93 63.315 108.27 63.625C106.61 63.945 104.98 64.165 103.38 64.305C101.78 64.445 100.19 64.5051 98.63 64.5051C97.07 64.5051 95.53 64.4451 94.01 64.3251C92.49 64.205 90.99 64.045 89.51 63.845C88.03 63.635 86.56 63.3951 85.11 63.1151C83.66 62.8351 82.22 62.535 80.79 62.205C79.36 61.875 77.94 61.5251 76.54 61.1551C75.13 60.7851 73.73 60.3951 72.33 60.0051C70.93 59.6151 69.54 59.195 68.16 58.785C66.77 58.375 65.38 57.955 64 57.535C62.62 57.115 61.23 56.695 59.84 56.285C58.45 55.875 57.06 55.465 55.67 55.065C54.27 54.665 52.87 54.2851 51.46 53.9151C50.05 53.545 48.63 53.1951 47.21 52.8651C45.79 52.5351 44.34 52.225 42.89 51.955C41.44 51.675 39.97 51.435 38.49 51.225C37.01 51.015 35.51 50.855 33.99 50.745C32.47 50.635 30.93 50.565 29.37 50.565C27.81 50.565 26.23 50.625 24.62 50.765C23.01 50.905 21.38 51.125 19.73 51.445C18.07 51.765 16.39 52.175 14.67 52.705C12.95 53.235 11.21 53.8851 9.43 54.6851C7.66 55.4751 5.85 56.415 4 57.535V52.5251C4 52.5251 4 49.645 4 48.155V43.1451C5.85 42.0251 7.66 41.085 9.43 40.295C11.2 39.505 12.95 38.845 14.67 38.315C16.39 37.785 18.07 37.365 19.73 37.055C21.39 36.735 23.02 36.515 24.62 36.375C26.23 36.235 27.81 36.175 29.37 36.175C30.93 36.175 32.47 36.235 33.99 36.355C35.51 36.465 37.01 36.635 38.49 36.835C39.97 37.045 41.44 37.285 42.89 37.565C44.34 37.845 45.78 38.145 47.21 38.475C48.64 38.805 50.06 39.1551 51.46 39.5251C52.87 39.8951 54.27 40.285 55.67 40.675C57.07 41.075 58.46 41.4851 59.84 41.8951C61.23 42.305 62.61 42.725 64 43.1451C65.39 43.5651 66.77 43.9851 68.16 44.3951C69.55 44.805 70.94 45.2151 72.33 45.6151C73.72 46.0151 75.13 46.395 76.54 46.765C77.95 47.135 79.37 47.485 80.79 47.815C82.22 48.145 83.66 48.455 85.11 48.725C86.56 49.005 88.03 49.245 89.51 49.455C90.99 49.665 92.49 49.8251 94.01 49.9351C95.53 50.0451 97.07 50.1151 98.63 50.1151C100.19 50.1151 101.77 50.0551 103.38 49.9151C104.99 49.7751 106.62 49.555 108.27 49.2351C109.93 48.9151 111.61 48.505 113.33 47.975C115.05 47.445 116.79 46.795 118.57 45.995C120.35 45.195 122.16 44.255 124 43.1451V48.155V52.5251C124 52.5251 124 55.615 124 57.535Z" fill="#FFC803" style="fill:#FFC803;fill:color(display-p3 1.0000 0.7826 0.0118);fill-opacity:1;"/>
<path d="M124 64.735C122.15 65.855 120.34 66.795 118.57 67.585C116.79 68.385 115.05 69.035 113.33 69.565C111.61 70.095 109.93 70.515 108.27 70.825C106.61 71.135 104.98 71.365 103.38 71.505C101.77 71.645 100.19 71.705 98.63 71.705C97.07 71.705 95.53 71.645 94.01 71.525C92.49 71.415 90.99 71.245 89.51 71.045C88.03 70.835 86.56 70.595 85.11 70.315C83.66 70.035 82.22 69.735 80.79 69.405C79.36 69.075 77.94 68.725 76.54 68.355C75.13 67.985 73.73 67.595 72.33 67.205C70.93 66.815 69.54 66.395 68.16 65.985C66.77 65.575 65.39 65.155 64 64.735C62.62 64.315 61.23 63.895 59.84 63.485C58.45 63.075 57.06 62.665 55.67 62.265C54.27 61.865 52.87 61.485 51.46 61.115C50.05 60.745 48.63 60.395 47.21 60.065C45.79 59.735 44.34 59.425 42.89 59.155C41.44 58.875 39.97 58.635 38.49 58.425C37.01 58.215 35.51 58.055 33.99 57.945C32.47 57.835 30.93 57.765 29.37 57.765C27.81 57.765 26.23 57.825 24.62 57.965C23.01 58.105 21.38 58.325 19.73 58.645C18.07 58.965 16.39 59.375 14.67 59.905C12.95 60.435 11.21 61.085 9.43 61.885C7.66 62.685 5.85 63.625 4 64.735V59.725C4 59.725 4 56.845 4 55.355V50.345C5.85 49.225 7.66 48.285 9.43 47.495C11.21 46.695 12.95 46.045 14.67 45.515C16.39 44.985 18.07 44.565 19.73 44.255C21.39 43.935 23.02 43.715 24.62 43.575C26.23 43.435 27.81 43.375 29.37 43.375C30.93 43.375 32.47 43.435 33.99 43.555C35.51 43.665 37.01 43.835 38.49 44.035C39.97 44.245 41.44 44.485 42.89 44.765C44.34 45.045 45.78 45.345 47.21 45.675C48.64 46.005 50.06 46.355 51.46 46.725C52.87 47.095 54.27 47.485 55.67 47.875C57.07 48.275 58.46 48.685 59.84 49.095C61.23 49.505 62.61 49.925 64 50.345C65.38 50.765 66.77 51.185 68.16 51.595C69.55 52.005 70.94 52.415 72.33 52.815C73.72 53.215 75.13 53.595 76.54 53.965C77.95 54.335 79.37 54.685 80.79 55.015C82.22 55.345 83.66 55.655 85.11 55.925C86.56 56.205 88.03 56.445 89.51 56.655C90.99 56.865 92.49 57.025 94.01 57.135C95.53 57.245 97.07 57.315 98.63 57.315C100.19 57.315 101.77 57.255 103.38 57.115C104.99 56.975 106.62 56.755 108.27 56.435C109.93 56.115 111.61 55.705 113.33 55.175C115.05 54.645 116.79 53.995 118.57 53.195C120.35 52.395 122.16 51.455 124 50.345V55.355V59.725C124 59.725 124 62.815 124 64.735Z" fill="#FFC803" style="fill:#FFC803;fill:color(display-p3 1.0000 0.7826 0.0118);fill-opacity:1;"/>
<path d="M124 78.6651C122.15 79.7851 120.34 80.7251 118.57 81.5151C116.79 82.3151 115.05 82.9651 113.33 83.4951C111.61 84.0251 109.93 84.4451 108.27 84.7551C106.61 85.0751 104.98 85.2951 103.38 85.4351C101.78 85.5751 100.19 85.6351 98.63 85.6351C97.07 85.6351 95.53 85.5751 94.01 85.4551C92.49 85.3351 90.99 85.1751 89.51 84.9751C88.03 84.7651 86.56 84.5251 85.11 84.2451C83.66 83.9651 82.22 83.6651 80.79 83.3351C79.36 83.0051 77.94 82.6551 76.54 82.2851C75.13 81.9151 73.73 81.5251 72.33 81.1351C70.93 80.7451 69.54 80.3251 68.16 79.9151C66.77 79.5051 65.38 79.0851 64 78.6651C62.62 78.2451 61.23 77.8251 59.84 77.4151C58.45 77.0051 57.06 76.5951 55.67 76.1951C54.27 75.7951 52.87 75.4151 51.46 75.0451C50.05 74.6751 48.63 74.3251 47.21 73.9951C45.79 73.6651 44.34 73.3551 42.89 73.0851C41.44 72.8051 39.97 72.5651 38.49 72.3551C37.01 72.1451 35.51 71.9851 33.99 71.8751C32.47 71.7651 30.93 71.6951 29.37 71.6951C27.81 71.6951 26.23 71.7551 24.62 71.8951C23.01 72.0351 21.38 72.2551 19.73 72.5751C18.07 72.8951 16.39 73.3051 14.67 73.8351C12.95 74.3651 11.21 75.0151 9.43 75.8151C7.66 76.6051 5.85 77.5451 4 78.6651V73.6551C4 73.6551 4 70.7751 4 69.2851V64.2751C5.85 63.1551 7.66 62.2151 9.43 61.4251C11.2 60.6351 12.95 59.9751 14.67 59.4451C16.39 58.9151 18.07 58.4951 19.73 58.1851C21.39 57.8651 23.02 57.6451 24.62 57.5051C26.23 57.3651 27.81 57.3051 29.37 57.3051C30.93 57.3051 32.47 57.3651 33.99 57.4851C35.51 57.5951 37.01 57.7651 38.49 57.9651C39.97 58.1751 41.44 58.4151 42.89 58.6951C44.34 58.9751 45.78 59.2751 47.21 59.6051C48.64 59.9351 50.06 60.2851 51.46 60.6551C52.87 61.0251 54.27 61.4151 55.67 61.8051C57.07 62.2051 58.46 62.6151 59.84 63.0251C61.23 63.4351 62.61 63.8551 64 64.2751C65.39 64.6951 66.77 65.1151 68.16 65.5251C69.55 65.9351 70.94 66.3451 72.33 66.7451C73.72 67.1451 75.13 67.5251 76.54 67.8951C77.95 68.2651 79.37 68.6151 80.79 68.9451C82.22 69.2751 83.66 69.5851 85.11 69.8551C86.56 70.1351 88.03 70.3751 89.51 70.5851C90.99 70.7951 92.49 70.9551 94.01 71.0651C95.53 71.1751 97.07 71.2451 98.63 71.2451C100.19 71.2451 101.77 71.1851 103.38 71.0451C104.99 70.9051 106.62 70.6851 108.27 70.3651C109.93 70.0451 111.61 69.6351 113.33 69.1051C115.05 68.5751 116.79 67.9251 118.57 67.1251C120.35 66.3251 122.16 65.3851 124 64.2751V69.2851V73.6551C124 73.6551 124 76.7451 124 78.6651Z" fill="#FFC803" style="fill:#FFC803;fill:color(display-p3 1.0000 0.7826 0.0118);fill-opacity:1;"/>
<path d="M124 85.865C122.15 86.985 120.34 87.925 118.57 88.715C116.79 89.515 115.05 90.165 113.33 90.695C111.61 91.225 109.93 91.645 108.27 91.955C106.61 92.265 104.98 92.495 103.38 92.635C101.77 92.775 100.19 92.835 98.63 92.835C97.07 92.835 95.53 92.775 94.01 92.655C92.49 92.545 90.99 92.375 89.51 92.175C88.03 91.965 86.56 91.725 85.11 91.445C83.66 91.165 82.22 90.865 80.79 90.535C79.36 90.205 77.94 89.855 76.54 89.485C75.13 89.115 73.73 88.725 72.33 88.335C70.93 87.945 69.54 87.525 68.16 87.115C66.77 86.705 65.39 86.285 64 85.865C62.62 85.445 61.23 85.025 59.84 84.615C58.45 84.205 57.06 83.795 55.67 83.395C54.27 82.995 52.87 82.615 51.46 82.245C50.05 81.875 48.63 81.525 47.21 81.195C45.79 80.865 44.34 80.555 42.89 80.285C41.44 80.005 39.97 79.765 38.49 79.555C37.01 79.345 35.51 79.185 33.99 79.075C32.47 78.965 30.93 78.895 29.37 78.895C27.81 78.895 26.23 78.955 24.62 79.095C23.01 79.235 21.38 79.455 19.73 79.775C18.07 80.095 16.39 80.505 14.67 81.035C12.95 81.565 11.21 82.215 9.43 83.015C7.66 83.815 5.85 84.755 4 85.865V80.855C4 80.855 4 77.975 4 76.485V71.475C5.85 70.355 7.66 69.415 9.43 68.625C11.21 67.825 12.95 67.175 14.67 66.645C16.39 66.115 18.07 65.695 19.73 65.385C21.39 65.065 23.02 64.845 24.62 64.705C26.23 64.565 27.81 64.505 29.37 64.505C30.93 64.505 32.47 64.565 33.99 64.685C35.51 64.795 37.01 64.965 38.49 65.165C39.97 65.375 41.44 65.615 42.89 65.895C44.34 66.175 45.78 66.475 47.21 66.805C48.64 67.135 50.06 67.485 51.46 67.855C52.87 68.225 54.27 68.615 55.67 69.005C57.07 69.405 58.46 69.815 59.84 70.225C61.23 70.635 62.61 71.055 64 71.475C65.38 71.895 66.77 72.315 68.16 72.725C69.55 73.135 70.94 73.545 72.33 73.945C73.72 74.345 75.13 74.725 76.54 75.095C77.95 75.465 79.37 75.815 80.79 76.145C82.22 76.475 83.66 76.785 85.11 77.055C86.56 77.335 88.03 77.575 89.51 77.785C90.99 77.995 92.49 78.155 94.01 78.265C95.53 78.375 97.07 78.445 98.63 78.445C100.19 78.445 101.77 78.385 103.38 78.245C104.99 78.105 106.62 77.885 108.27 77.565C109.93 77.245 111.61 76.835 113.33 76.305C115.05 75.775 116.79 75.125 118.57 74.325C120.35 73.525 122.16 72.585 124 71.475V76.485V80.855C124 80.855 124 83.945 124 85.865Z" fill="#FFC803" style="fill:#FFC803;fill:color(display-p3 1.0000 0.7826 0.0118);fill-opacity:1;"/>
<path d="M124 100.03C122.15 101.15 120.34 102.09 118.57 102.88C116.79 103.68 115.05 104.33 113.33 104.86C111.61 105.39 109.93 105.81 108.27 106.12C106.61 106.43 104.98 106.66 103.38 106.8C101.77 106.94 100.19 107 98.63 107C97.07 107 95.53 106.94 94.01 106.82C92.49 106.71 90.99 106.54 89.51 106.34C88.03 106.13 86.56 105.89 85.11 105.61C83.66 105.33 82.22 105.03 80.79 104.7C79.36 104.37 77.94 104.02 76.54 103.65C75.13 103.28 73.73 102.89 72.33 102.5C70.93 102.1 69.54 101.69 68.16 101.28C66.77 100.87 65.39 100.45 64 100.03C62.62 99.61 61.23 99.19 59.84 98.78C58.45 98.37 57.06 97.96 55.67 97.56C54.27 97.16 52.87 96.78 51.46 96.41C50.05 96.04 48.63 95.69 47.21 95.36C45.79 95.03 44.34 94.72 42.89 94.45C41.44 94.17 39.97 93.93 38.49 93.72C37.01 93.51 35.51 93.35 33.99 93.24C32.47 93.13 30.93 93.06 29.37 93.06C27.81 93.06 26.23 93.12 24.62 93.26C23.01 93.4 21.38 93.62 19.73 93.94C18.08 94.26 16.39 94.67 14.67 95.2C12.95 95.73 11.21 96.38 9.43 97.18C7.65 97.98 5.85 98.91 4 100.03V95.02C4 95.02 4 92.14 4 90.65V85.64C5.85 84.52 7.66 83.58 9.43 82.79C11.21 81.99 12.95 81.34 14.67 80.81C16.39 80.28 18.07 79.86 19.73 79.55C21.39 79.23 23.02 79.01 24.62 78.87C26.23 78.73 27.81 78.67 29.37 78.67C30.93 78.67 32.47 78.73 33.99 78.85C35.51 78.96 37.01 79.13 38.49 79.33C39.97 79.54 41.44 79.78 42.89 80.06C44.34 80.34 45.78 80.64 47.21 80.97C48.64 81.3 50.06 81.65 51.46 82.02C52.87 82.39 54.27 82.78 55.67 83.17C57.07 83.57 58.46 83.98 59.84 84.39C61.23 84.8 62.61 85.22 64 85.64C65.38 86.06 66.77 86.48 68.16 86.89C69.55 87.3 70.94 87.71 72.33 88.11C73.72 88.51 75.13 88.89 76.54 89.26C77.95 89.63 79.37 89.98 80.79 90.31C82.22 90.64 83.66 90.95 85.11 91.22C86.56 91.5 88.03 91.74 89.51 91.95C90.99 92.16 92.49 92.32 94.01 92.43C95.53 92.54 97.07 92.61 98.63 92.61C100.19 92.61 101.77 92.55 103.38 92.41C104.99 92.27 106.62 92.05 108.27 91.73C109.93 91.41 111.61 91 113.33 90.47C115.05 89.94 116.79 89.29 118.57 88.49C120.35 87.69 122.16 86.75 124 85.64V90.65V95.02C124 95.02 124 98.11 124 100.03Z" fill="#4868D9" style="fill:#4868D9;fill:color(display-p3 0.2833 0.4080 0.8500);fill-opacity:1;"/>
<path d="M124 107.7C122.15 108.82 120.34 109.76 118.57 110.55C116.79 111.35 115.05 112 113.33 112.53C111.61 113.06 109.93 113.48 108.27 113.79C106.61 114.11 104.98 114.33 103.38 114.47C101.77 114.61 100.19 114.67 98.63 114.67C97.07 114.67 95.53 114.61 94.01 114.49C92.49 114.38 90.99 114.21 89.51 114.01C88.03 113.8 86.56 113.56 85.11 113.28C83.66 113 82.22 112.7 80.79 112.37C79.36 112.04 77.94 111.69 76.54 111.32C75.14 110.95 73.73 110.56 72.33 110.17C70.93 109.77 69.54 109.36 68.16 108.95C66.77 108.54 65.39 108.12 64 107.7C62.62 107.28 61.23 106.86 59.84 106.45C58.45 106.04 57.06 105.63 55.67 105.23C54.27 104.83 52.87 104.45 51.46 104.08C50.05 103.71 48.63 103.36 47.21 103.03C45.79 102.7 44.34 102.39 42.89 102.12C41.44 101.84 39.97 101.6 38.49 101.39C37.01 101.18 35.51 101.02 33.99 100.91C32.47 100.8 30.93 100.73 29.37 100.73C27.81 100.73 26.23 100.79 24.62 100.93C23.01 101.07 21.38 101.29 19.73 101.61C18.07 101.93 16.39 102.34 14.67 102.87C12.95 103.4 11.21 104.05 9.43 104.85C7.65 105.65 5.84 106.59 4 107.7V102.69C4 102.69 4 99.81 4 98.32V93.31C5.85 92.19 7.66 91.25 9.43 90.46C11.2 89.67 12.95 89.01 14.67 88.48C16.39 87.95 18.07 87.53 19.73 87.22C21.39 86.91 23.02 86.68 24.62 86.54C26.23 86.4 27.81 86.34 29.37 86.34C30.93 86.34 32.47 86.4 33.99 86.52C35.51 86.63 37.01 86.8 38.49 87C39.97 87.2 41.44 87.45 42.89 87.73C44.34 88.01 45.78 88.31 47.21 88.64C48.64 88.97 50.06 89.32 51.46 89.69C52.87 90.06 54.27 90.45 55.67 90.84C57.07 91.24 58.46 91.65 59.84 92.06C61.23 92.47 62.61 92.89 64 93.31C65.38 93.73 66.77 94.15 68.16 94.56C69.55 94.97 70.94 95.38 72.33 95.78C73.73 96.18 75.13 96.56 76.54 96.93C77.95 97.3 79.37 97.65 80.79 97.98C82.22 98.31 83.66 98.62 85.11 98.89C86.56 99.17 88.03 99.41 89.51 99.62C90.99 99.83 92.49 99.99 94.01 100.1C95.53 100.21 97.07 100.28 98.63 100.28C100.19 100.28 101.77 100.22 103.38 100.08C104.99 99.94 106.62 99.72 108.27 99.4C109.92 99.08 111.61 98.67 113.33 98.14C115.05 97.61 116.79 96.96 118.57 96.16C120.35 95.36 122.16 94.42 124 93.31V98.32V102.69C124 102.69 124 105.78 124 107.7Z" fill="#4868D9" style="fill:#4868D9;fill:color(display-p3 0.2833 0.4080 0.8500);fill-opacity:1;"/>
<path opacity="0.3" d="M124 107.7C122.15 108.82 120.34 109.76 118.57 110.55C116.79 111.35 115.05 112 113.33 112.53C111.61 113.06 109.93 113.48 108.27 113.79C106.61 114.11 104.98 114.33 103.38 114.47C101.77 114.61 100.19 114.67 98.63 114.67C97.07 114.67 95.53 114.61 94.01 114.49C92.49 114.38 90.99 114.21 89.51 114.01C88.03 113.8 86.56 113.56 85.11 113.28C83.66 113 82.22 112.7 80.79 112.37C79.36 112.04 77.94 111.69 76.54 111.32C75.14 110.95 73.73 110.56 72.33 110.17C70.93 109.77 69.54 109.36 68.16 108.95C66.77 108.54 65.39 108.12 64 107.7C62.62 107.28 61.23 106.86 59.84 106.45C58.45 106.04 57.06 105.63 55.67 105.23C54.27 104.83 52.87 104.45 51.46 104.08C50.05 103.71 48.63 103.36 47.21 103.03C45.79 102.7 44.34 102.39 42.89 102.12C41.44 101.84 39.97 101.6 38.49 101.39C37.01 101.18 35.51 101.02 33.99 100.91C32.47 100.8 30.93 100.73 29.37 100.73C27.81 100.73 26.23 100.79 24.62 100.93C23.01 101.07 21.38 101.29 19.73 101.61C18.07 101.93 16.39 102.34 14.67 102.87C12.95 103.4 11.21 104.05 9.43 104.85C7.65 105.65 5.84 106.59 4 107.7V102.09V96.77V91.7V86.84V82.16C4 82.16 4 79.11 4 77.62V73.19C4 73.19 4 70.27 4 68.83C4 67.39 4 65.94 4 64.5V60.17V55.81V51.38C4 51.38 4 48.38 4 46.84C4 45.3 4 43.75 4 42.16V37.3C4 37.3 4 33.96 4 32.23V26.91V21.3C5.85 20.18 7.66 19.24 9.43 18.45C11.2 17.66 12.95 17 14.67 16.47C16.39 15.94 18.07 15.52 19.73 15.21C21.39 14.89 23.02 14.67 24.62 14.53C26.23 14.39 27.81 14.33 29.37 14.33C30.93 14.33 32.47 14.39 33.99 14.51C35.51 14.62 37.01 14.79 38.49 14.99C39.97 15.19 41.44 15.44 42.89 15.72C44.34 16 45.78 16.3 47.21 16.63C48.64 16.96 50.06 17.31 51.46 17.68C52.87 18.05 54.27 18.44 55.67 18.83C57.07 19.22 58.46 19.64 59.84 20.05C61.22 20.46 62.61 20.88 64 21.3C65.38 21.72 66.77 22.14 68.16 22.55C69.55 22.96 70.94 23.37 72.33 23.77C73.72 24.17 75.13 24.55 76.54 24.92C77.95 25.29 79.37 25.64 80.79 25.97C82.22 26.3 83.66 26.61 85.11 26.88C86.56 27.16 88.03 27.4 89.51 27.61C90.99 27.82 92.49 27.98 94.01 28.09C95.53 28.2 97.07 28.27 98.63 28.27C100.19 28.27 101.77 28.21 103.38 28.07C104.99 27.93 106.62 27.71 108.27 27.39C109.93 27.07 111.61 26.66 113.33 26.13C115.05 25.6 116.79 24.95 118.57 24.15C120.35 23.35 122.16 22.41 124 21.3V26.91V32.23V37.3C124 37.3 124 40.57 124 42.16V46.84C124 46.84 124 49.89 124 51.38C124 52.87 124 54.35 124 55.81V60.17V64.5V68.83C124 68.83 124 71.73 124 73.19C124 74.65 124 76.13 124 77.62V82.16C124 82.16 124 85.25 124 86.84V91.7V96.77V102.09V107.7Z" fill="url(#paint0_linear_194_23)" style=""/>
</g>
<defs>
<linearGradient id="paint0_linear_194_23" x1="5.3703" y1="23.159" x2="122.37" y2="105.66" gradientUnits="userSpaceOnUse">
<stop stop-color="white" stop-opacity="0" style="stop-color:none;stop-opacity:0;"/>
<stop offset="0.1646" stop-color="#C8C8C8" stop-opacity="0.1646" style="stop-color:#C8C8C8;stop-color:color(display-p3 0.7843 0.7843 0.7843);stop-opacity:0.1646;"/>
<stop offset="0.3934" stop-color="#828282" stop-opacity="0.3934" style="stop-color:#828282;stop-color:color(display-p3 0.5098 0.5098 0.5098);stop-opacity:0.3934;"/>
<stop offset="0.5997" stop-color="#4A4A4A" stop-opacity="0.5997" style="stop-color:#4A4A4A;stop-color:color(display-p3 0.2902 0.2902 0.2902);stop-opacity:0.5997;"/>
<stop offset="0.7759" stop-color="#222222" stop-opacity="0.7759" style="stop-color:#222222;stop-color:color(display-p3 0.1333 0.1333 0.1333);stop-opacity:0.7759;"/>
<stop offset="0.9151" stop-color="#090909" stop-opacity="0.9151" style="stop-color:#090909;stop-color:color(display-p3 0.0353 0.0353 0.0353);stop-opacity:0.9151;"/>
<stop offset="1" style="stop-color:black;stop-opacity:1;"/>
</linearGradient>
<clipPath id="clip0_194_23">
<rect width="128" height="128" fill="white" style="fill:white;fill-opacity:1;" transform="translate(0 0.5)"/>
</clipPath>
</defs>
</svg>
