<svg width="128" height="128" viewBox="0 0 128 128" fill="none" xmlns="http://www.w3.org/2000/svg">
<path d="M124 4H4V124H124V4Z" fill="white" style="fill:white;fill-opacity:1;"/>
<path d="M24.7 4.20001V123.8" stroke="#B0BEC5" style="stroke:#B0BEC5;stroke:color(display-p3 0.6902 0.7451 0.7725);stroke-opacity:1;" stroke-width="1.9931" stroke-miterlimit="10"/>
<path d="M44.3499 4.20001V123.8" stroke="#B0BEC5" style="stroke:#B0BEC5;stroke:color(display-p3 0.6902 0.7451 0.7725);stroke-opacity:1;" stroke-width="1.9931" stroke-miterlimit="10"/>
<path d="M64 4.20001V123.8" stroke="#B0BEC5" style="stroke:#B0BEC5;stroke:color(display-p3 0.6902 0.7451 0.7725);stroke-opacity:1;" stroke-width="1.9931" stroke-miterlimit="10"/>
<path d="M83.6499 4.20001V123.8" stroke="#B0BEC5" style="stroke:#B0BEC5;stroke:color(display-p3 0.6902 0.7451 0.7725);stroke-opacity:1;" stroke-width="1.9931" stroke-miterlimit="10"/>
<path d="M103.3 4.20001V123.8" stroke="#B0BEC5" style="stroke:#B0BEC5;stroke:color(display-p3 0.6902 0.7451 0.7725);stroke-opacity:1;" stroke-width="1.9931" stroke-miterlimit="10"/>
<path d="M123.8 24.66H4.1499" stroke="#B0BEC5" style="stroke:#B0BEC5;stroke:color(display-p3 0.6902 0.7451 0.7725);stroke-opacity:1;" stroke-width="2" stroke-miterlimit="10"/>
<path d="M123.81 44.33H4.15991" stroke="#B0BEC5" style="stroke:#B0BEC5;stroke:color(display-p3 0.6902 0.7451 0.7725);stroke-opacity:1;" stroke-width="2" stroke-miterlimit="10"/>
<path d="M123.83 64H4.16992" stroke="#B0BEC5" style="stroke:#B0BEC5;stroke:color(display-p3 0.6902 0.7451 0.7725);stroke-opacity:1;" stroke-width="2" stroke-miterlimit="10"/>
<path d="M123.84 83.67H4.18994" stroke="#B0BEC5" style="stroke:#B0BEC5;stroke:color(display-p3 0.6902 0.7451 0.7725);stroke-opacity:1;" stroke-width="2" stroke-miterlimit="10"/>
<path d="M123.85 103.34H4.19995" stroke="#B0BEC5" style="stroke:#B0BEC5;stroke:color(display-p3 0.6902 0.7451 0.7725);stroke-opacity:1;" stroke-width="2" stroke-miterlimit="10"/>
<path d="M4.18596 100.473L4.10596 94.3132L31.9401 68.3L55.6401 90.21L92.8905 49.2527L123.347 76.8872V80.9011V85.6583L92.8905 59.635L56.4501 99.13L31.9401 77.1755L4.94076 101.936L4.18596 100.473Z" fill="#8BC12D" style="fill:#8BC12D;fill:color(display-p3 0.5451 0.7569 0.1765);fill-opacity:1;"/>
<path d="M122.01 5.99V122H5.99V5.99H122.01ZM124 4H4V124H124V4Z" fill="#B0BEC5" style="fill:#B0BEC5;fill:color(display-p3 0.6902 0.7451 0.7725);fill-opacity:1;"/>
</svg>
