<svg width="128" height="128" viewBox="0 0 128 128" fill="none" xmlns="http://www.w3.org/2000/svg">
<path d="M63.6001 118.8C35.7001 118.8 5.6001 101.3 5.6001 62.9C5.6001 24.5 35.7001 7 63.6001 7C79.1001 7 93.4001 12.1 104 21.4C115.5 31.6 121.6 46 121.6 62.9C121.6 79.8 115.5 94.1 104 104.3C93.4001 113.6 79.0001 118.8 63.6001 118.8Z" fill="url(#paint0_radial_169_4867)" style=""/>
<path d="M63.6001 118.8C35.7001 118.8 5.6001 101.3 5.6001 62.9C5.6001 24.5 35.7001 7 63.6001 7C79.1001 7 93.4001 12.1 104 21.4C115.5 31.6 121.6 46 121.6 62.9C121.6 79.8 115.5 94.1 104 104.3C93.4001 113.6 79.0001 118.8 63.6001 118.8Z" fill="url(#paint1_radial_169_4867)" style=""/>
<path d="M111.49 29.67C116.82 38.27 119.6 48.51 119.6 59.9C119.6 76.8 113.5 91.1 102 101.3C91.4002 110.6 77.0002 115.8 61.6002 115.8C43.5402 115.8 24.6002 108.45 13.4202 92.86C24.1802 110.52 44.4202 118.8 63.6002 118.8C79.0002 118.8 93.4002 113.6 104 104.3C115.5 94.1001 121.6 79.8 121.6 62.9C121.6 50.16 118.13 38.84 111.49 29.67Z" fill="#EB8F00" style="fill:#EB8F00;fill:color(display-p3 0.9216 0.5608 0.0000);fill-opacity:1;"/>
<path d="M111.49 29.67C116.82 38.27 119.6 48.51 119.6 59.9C119.6 76.8 113.5 91.1 102 101.3C91.4002 110.6 77.0002 115.8 61.6002 115.8C43.5402 115.8 24.6002 108.45 13.4202 92.86C24.1802 110.52 44.4202 118.8 63.6002 118.8C79.0002 118.8 93.4002 113.6 104 104.3C115.5 94.1001 121.6 79.8 121.6 62.9C121.6 50.16 118.13 38.84 111.49 29.67Z" fill="#F3B872" style="fill:#F3B872;fill:color(display-p3 0.9542 0.7229 0.4453);fill-opacity:1;"/>
<path d="M104.75 79.6299L93.15 76.6299C91.01 76.0699 88.83 77.3499 88.27 79.4899C88.21 79.7299 88.17 79.9699 88.15 80.2099L87.59 87.6599L81 83.8999C79.08 82.8099 76.64 83.4699 75.54 85.3899C75.45 85.5499 75.37 85.7199 75.3 85.8999L72.64 92.7399L67.42 86.6099C66.64 85.6899 65.49 85.1799 64.29 85.1999H64.01H63.74C62.54 85.1799 61.39 85.6899 60.61 86.6099L55.39 92.7399L52.7 85.9199C51.89 83.8699 49.56 82.8599 47.51 83.6799C47.34 83.7499 47.17 83.8299 47 83.9199L40.37 87.6799L39.81 80.2299C39.65 78.0299 37.73 76.3699 35.53 76.5299C35.29 76.5499 35.05 76.5899 34.81 76.6499L23.21 79.6499C21.05 80.1199 19.68 82.2499 20.15 84.4099C20.62 86.5699 22.75 87.9399 24.91 87.4699C25.01 87.4499 25.11 87.4199 25.2 87.3899L32.2 85.5899L32.87 94.5899C33.02 96.7899 34.93 98.4599 37.14 98.2999C37.75 98.2599 38.34 98.0799 38.87 97.7699L46.97 93.1799L50.38 101.94C50.89 103.25 52.05 104.2 53.44 104.43C53.66 104.47 53.89 104.49 54.11 104.49C55.27 104.48 56.36 103.96 57.11 103.08L64.19 94.7999L64.49 95.5899L70.86 103C71.61 103.88 72.7 104.4 73.86 104.41C74.08 104.41 74.31 104.39 74.53 104.35C75.92 104.12 77.08 103.17 77.59 101.86L81 93.0999L89.1 97.6899C91.01 98.7999 93.46 98.1499 94.57 96.2399C94.88 95.7099 95.06 95.1199 95.1 94.5099L95.77 85.5099L102.77 87.3099C104.89 87.9399 107.12 86.7399 107.75 84.6299C108.38 82.5099 107.18 80.2799 105.07 79.6499C104.97 79.6199 104.87 79.5999 104.78 79.5699L104.75 79.6299Z" fill="#312D2D" style="fill:#312D2D;fill:color(display-p3 0.1922 0.1765 0.1765);fill-opacity:1;"/>
<path d="M104.75 79.6299L93.15 76.6299C91.01 76.0699 88.83 77.3499 88.27 79.4899C88.21 79.7299 88.17 79.9699 88.15 80.2099L87.59 87.6599L81 83.8999C79.08 82.8099 76.64 83.4699 75.54 85.3899C75.45 85.5499 75.37 85.7199 75.3 85.8999L72.64 92.7399L67.42 86.6099C66.64 85.6899 65.49 85.1799 64.29 85.1999H64.01H63.74C62.54 85.1799 61.39 85.6899 60.61 86.6099L55.39 92.7399L52.7 85.9199C51.89 83.8699 49.56 82.8599 47.51 83.6799C47.34 83.7499 47.17 83.8299 47 83.9199L40.37 87.6799L39.81 80.2299C39.65 78.0299 37.73 76.3699 35.53 76.5299C35.29 76.5499 35.05 76.5899 34.81 76.6499L23.21 79.6499C21.05 80.1199 19.68 82.2499 20.15 84.4099C20.62 86.5699 22.75 87.9399 24.91 87.4699C25.01 87.4499 25.11 87.4199 25.2 87.3899L32.2 85.5899L32.87 94.5899C33.02 96.7899 34.93 98.4599 37.14 98.2999C37.75 98.2599 38.34 98.0799 38.87 97.7699L46.97 93.1799L50.38 101.94C50.89 103.25 52.05 104.2 53.44 104.43C53.66 104.47 53.89 104.49 54.11 104.49C55.27 104.48 56.36 103.96 57.11 103.08L64.19 94.7999L64.49 95.5899L70.86 103C71.61 103.88 72.7 104.4 73.86 104.41C74.08 104.41 74.31 104.39 74.53 104.35C75.92 104.12 77.08 103.17 77.59 101.86L81 93.0999L89.1 97.6899C91.01 98.7999 93.46 98.1499 94.57 96.2399C94.88 95.7099 95.06 95.1199 95.1 94.5099L95.77 85.5099L102.77 87.3099C104.89 87.9399 107.12 86.7399 107.75 84.6299C108.38 82.5099 107.18 80.2799 105.07 79.6499C104.97 79.6199 104.87 79.5999 104.78 79.5699L104.75 79.6299Z" fill="#312D2D" style="fill:#312D2D;fill:color(display-p3 0.1922 0.1765 0.1765);fill-opacity:1;"/>
<path d="M33.9998 57.4L46.2098 55L33.6598 49.83L33.2398 49.6C31.1898 48.52 30.4098 45.99 31.4898 43.94C31.7498 43.45 32.0998 43.02 32.5198 42.67C34.5198 41.13 37.2698 41.01 39.3998 42.37L60.6698 55.37C61.1898 55.56 61.4498 56.14 61.2598 56.65C61.1298 57 60.8198 57.25 60.4498 57.3L37.5398 65.9C37.3898 65.96 37.2198 66.01 37.0598 66.06C34.0598 66.9 30.7298 65.17 30.2698 62.28C29.9098 60.11 31.6098 58.07 33.9998 57.4Z" fill="#312D2D" style="fill:#312D2D;fill:color(display-p3 0.1922 0.1765 0.1765);fill-opacity:1;"/>
<path d="M33.9998 57.4L46.2098 55L33.6598 49.83L33.2398 49.6C31.1898 48.52 30.4098 45.99 31.4898 43.94C31.7498 43.45 32.0998 43.02 32.5198 42.67C34.5198 41.13 37.2698 41.01 39.3998 42.37L60.6698 55.37C61.1898 55.56 61.4498 56.14 61.2598 56.65C61.1298 57 60.8198 57.25 60.4498 57.3L37.5398 65.9C37.3898 65.96 37.2198 66.01 37.0598 66.06C34.0598 66.9 30.7298 65.17 30.2698 62.28C29.9098 60.11 31.6098 58.07 33.9998 57.4Z" fill="#312D2D" style="fill:#312D2D;fill:color(display-p3 0.1922 0.1765 0.1765);fill-opacity:1;"/>
<path d="M96.6497 57.15L84.4797 54.79L96.9997 49.58L97.4097 49.35C99.4597 48.27 100.25 45.74 99.1697 43.69C98.9097 43.2 98.5597 42.77 98.1397 42.42C96.1397 40.88 93.3897 40.76 91.2597 42.12L69.9997 55.16C69.4797 55.35 69.2097 55.92 69.3997 56.44C69.5297 56.79 69.8397 57.04 70.2097 57.09L93.1197 65.69L93.6097 65.85C96.6097 66.69 99.9297 64.96 100.4 62.07C100.78 59.86 99.0697 57.82 96.6497 57.15Z" fill="#312D2D" style="fill:#312D2D;fill:color(display-p3 0.1922 0.1765 0.1765);fill-opacity:1;"/>
<path d="M96.6497 57.15L84.4797 54.79L96.9997 49.58L97.4097 49.35C99.4597 48.27 100.25 45.74 99.1697 43.69C98.9097 43.2 98.5597 42.77 98.1397 42.42C96.1397 40.88 93.3897 40.76 91.2597 42.12L69.9997 55.16C69.4797 55.35 69.2097 55.92 69.3997 56.44C69.5297 56.79 69.8397 57.04 70.2097 57.09L93.1197 65.69L93.6097 65.85C96.6097 66.69 99.9297 64.96 100.4 62.07C100.78 59.86 99.0697 57.82 96.6497 57.15Z" fill="#312D2D" style="fill:#312D2D;fill:color(display-p3 0.1922 0.1765 0.1765);fill-opacity:1;"/>
<path d="M57.6699 64.6199C40.9999 75.2499 20.4299 77.6399 6.16986 80.5499C4.28986 80.9299 3.16986 83.6699 4.60986 87.8099C7.33986 95.7099 12.5399 95.5799 11.1399 99.2499C6.99986 110.12 15.4399 114.8 22.7299 114.93C32.5899 115.12 31.6399 118.41 35.7299 121.62C39.6399 124.68 44.3899 122.56 44.3899 122.56C62.7199 111.45 69.7899 86.1199 69.7799 73.8599C69.7699 64.4499 62.7299 61.3899 57.6699 64.6199Z" fill="#F5F5F5" style="fill:#F5F5F5;fill:color(display-p3 0.9608 0.9608 0.9608);fill-opacity:1;"/>
<path d="M6.16993 80.5499C5.46993 80.7799 4.90993 81.3099 4.64993 81.9999C4.38993 82.6299 4.26993 83.3199 4.29993 83.9999C4.34993 85.3999 4.68993 86.7799 5.29993 88.0499C5.84993 89.3399 6.56993 90.5599 7.42993 91.6699C8.33993 92.7599 9.33993 93.7599 10.4299 94.6699C11.0999 95.2099 11.6699 95.8499 12.1199 96.5799C12.2399 96.8199 12.3399 97.0699 12.4199 97.3199C12.4899 97.5899 12.5299 97.8599 12.5399 98.1399C12.5399 98.3999 12.5199 98.6699 12.4799 98.9299L12.2999 99.6399L11.7599 101.64C11.6399 102.3 11.5599 102.97 11.5099 103.64C11.4099 104.89 11.5799 106.15 11.9999 107.34C12.4499 108.46 13.1699 109.46 14.0799 110.25C15.0299 111.08 16.1299 111.72 17.3099 112.15C18.5199 112.63 19.7999 112.93 21.0999 113.04C21.4299 113.09 21.7699 113.11 22.0999 113.11H23.0999C23.8699 113.11 24.6299 113.11 25.4199 113.21C27.0799 113.3 28.7099 113.66 30.2599 114.27C31.1099 114.63 31.8999 115.1 32.6199 115.68C33.2599 116.23 33.8499 116.83 34.3899 117.48C35.1799 118.51 36.0999 119.43 37.1399 120.22C38.0199 120.84 39.0599 121.21 40.1399 121.29C40.7199 121.33 41.2999 121.3 41.8799 121.21C42.1699 121.21 42.4699 121.1 42.7499 121.03C43.0299 120.96 43.3599 120.84 43.5099 120.79L43.2899 120.9C47.1499 118.5 50.6299 115.52 53.5899 112.07C53.9699 111.63 54.3599 111.22 54.7199 110.77L55.7199 109.39L56.7199 108.02C57.0599 107.55 57.3499 107.02 57.7199 106.58C58.3599 105.58 59.0299 104.68 59.5899 103.66C60.1499 102.64 60.7999 101.66 61.2999 100.66C63.4799 96.5199 65.2899 92.1999 66.7099 87.7399C68.1899 83.2499 69.1999 78.6099 69.7099 73.9099C69.9599 78.7099 69.5499 83.5099 68.4899 88.1999C68.2499 89.3799 67.9399 90.5399 67.6499 91.7099C67.3599 92.8799 66.9499 94.0199 66.6499 95.1799C66.3499 96.3399 65.8399 97.4499 65.4399 98.5899C65.0399 99.7299 64.4399 100.82 64.0199 101.94C63.5999 103.06 62.9499 104.12 62.4199 105.22C61.8899 106.32 61.2499 107.35 60.6299 108.41C60.3199 108.93 60.0099 109.41 59.6799 109.97L58.6199 111.48L57.6199 112.98C57.2499 113.47 56.8399 113.98 56.4599 114.42C53.3799 118.31 49.6599 121.64 45.4599 124.29L45.3499 124.35H45.2399C44.8099 124.53 44.3699 124.68 43.9199 124.81C43.4999 124.92 43.0799 125.02 42.6499 125.09C41.7799 125.24 40.8999 125.29 40.0199 125.24C39.1099 125.18 38.2099 125.01 37.3499 124.72C36.4799 124.41 35.6599 123.98 34.9099 123.44C33.5999 122.45 32.4199 121.3 31.4199 120C31.0399 119.52 30.6099 119.07 30.1599 118.66C29.7399 118.32 29.2699 118.03 28.7699 117.82C27.5899 117.37 26.3399 117.08 25.0799 116.98C24.4199 116.89 23.7199 116.86 23.0199 116.82L21.8699 116.74C21.4699 116.74 21.0699 116.68 20.6699 116.61C19.0599 116.39 17.4899 115.96 15.9999 115.32C14.4499 114.69 13.0299 113.77 11.8299 112.6C10.5999 111.39 9.66993 109.91 9.12993 108.27C8.64993 106.65 8.51993 104.95 8.73993 103.27C8.84993 102.5 9.00993 101.75 9.21993 101C9.46993 100.27 9.75993 99.5099 10.0099 98.8199C10.2099 98.4599 10.2499 98.0199 10.0999 97.6299C9.80993 97.0799 9.43993 96.5799 8.99993 96.1499C7.91993 95.0799 6.95993 93.8999 6.12993 92.6199C5.30993 91.3299 4.66993 89.9299 4.22993 88.4699C3.72993 87.0299 3.52993 85.5099 3.63993 83.9999C3.70993 83.2299 3.95993 82.4899 4.35993 81.8299C4.73993 81.1499 5.40993 80.6899 6.16993 80.5499Z" fill="#BDBDBD" style="fill:#BDBDBD;fill:color(display-p3 0.7412 0.7412 0.7412);fill-opacity:1;"/>
<path d="M30.4998 90.7799C27.6498 91.4899 24.7498 91.9999 21.8298 92.2899C20.3598 92.3399 19.1198 91.1799 19.0698 89.7099C19.0298 88.3799 19.9698 87.2199 21.2898 86.9899C34.0498 85.6899 40.2898 83.08 50.6698 76.2299C53.5498 74.3699 56.2298 72.2299 58.6698 69.8199C56.1798 74.9699 52.4898 79.4499 47.9098 82.8899C42.8798 86.6999 37.4798 88.9999 30.4998 90.7799Z" fill="#B3B3B3" style="fill:#B3B3B3;fill:color(display-p3 0.7020 0.7020 0.7020);fill-opacity:1;"/>
<path d="M42.2099 103.87C41.0999 104.21 39.8999 103.76 39.2899 102.77C38.4999 101.55 38.8199 99.9199 39.9999 99.0799C45.7999 95.3899 50.8099 90.5799 54.7199 84.9199C56.6399 82.0699 59.4899 76.9199 59.4899 76.9199C59.1499 79.8399 58.5599 82.7199 57.7099 85.5299C54.2199 96.4999 44.6699 103.09 42.2099 103.87Z" fill="#B3B3B3" style="fill:#B3B3B3;fill:color(display-p3 0.7020 0.7020 0.7020);fill-opacity:1;"/>
<defs>
<radialGradient id="paint0_radial_169_4867" cx="0" cy="0" r="1" gradientUnits="userSpaceOnUse" gradientTransform="translate(63.6001 62.8999) scale(56.9597 56.9597)">
<stop offset="0.5" stop-color="#FDE030" style="stop-color:#FDE030;stop-color:color(display-p3 0.9922 0.8784 0.1882);stop-opacity:1;"/>
<stop offset="0.92" stop-color="#F7C02B" style="stop-color:#F7C02B;stop-color:color(display-p3 0.9686 0.7529 0.1686);stop-opacity:1;"/>
<stop offset="1" stop-color="#F4A223" style="stop-color:#F4A223;stop-color:color(display-p3 0.9569 0.6353 0.1373);stop-opacity:1;"/>
</radialGradient>
<radialGradient id="paint1_radial_169_4867" cx="0" cy="0" r="1" gradientUnits="userSpaceOnUse" gradientTransform="translate(38.5991 34.5377) rotate(-43.2082) scale(102.024 101.825)">
<stop offset="0.3533" stop-color="#F9DDBD" style="stop-color:#F9DDBD;stop-color:color(display-p3 0.9765 0.8667 0.7412);stop-opacity:1;"/>
<stop offset="0.8723" stop-color="#FFD29C" style="stop-color:#FFD29C;stop-color:color(display-p3 1.0000 0.8235 0.6118);stop-opacity:1;"/>
</radialGradient>
</defs>
</svg>
