<svg width="128" height="128" viewBox="0 0 128 128" fill="none" xmlns="http://www.w3.org/2000/svg">
<path d="M112.074 87.0619C116.734 85.8219 118.294 78.6519 118.024 75.1319C117.634 69.9619 115.294 64.9919 111.634 64.4119C112.964 63.1819 114.134 59.7319 113.624 54.1819C113.154 49.1119 109.054 44.9519 103.554 44.6419C103.554 44.6419 97.1042 44.6819 85.0642 47.5919C81.5242 48.4519 77.2542 49.6419 79.7542 42.7119C81.0642 39.0819 82.9942 33.8919 83.2242 28.3019C83.6542 17.6219 80.0842 5.26191 71.1642 4.12191C65.4842 3.39191 61.8242 5.97191 62.1642 11.0119C62.7442 19.5919 64.1242 35.8519 47.1242 47.1419C39.9742 51.8919 38.5042 58.9519 33.1342 61.1719C25.6442 64.2719 18.6642 63.4719 15.3942 62.8019C14.2542 62.5719 13.1542 63.2519 12.8342 64.3719C6.95418 84.5019 11.7542 101.162 13.6042 106.362C13.9542 107.342 14.9442 107.932 15.9742 107.792C20.9642 107.112 24.8842 107.102 30.9642 107.672C36.8042 108.222 40.0442 112.572 44.4242 115.462C54.3142 122.722 68.7342 122.192 82.2642 121.862C85.1742 121.792 93.6142 123.212 95.2042 123.432C101.344 124.262 105.204 123.042 106.874 118.072C108.664 112.752 106.714 109.162 104.724 108.462C104.724 108.462 106.504 108.522 108.124 108.392C111.934 108.082 114.734 103.862 115.564 98.4919C116.264 94.0119 114.844 88.7919 112.074 87.0619Z" fill="white" style="fill:white;fill-opacity:1;"/>
<path d="M106.347 118.865C101.238 119.907 95.9997 120.184 90.8032 119.686L83.6501 119C83.6501 119 67.5001 119.86 54.7201 117.41C49.3086 116.376 46.3621 113.804 43.5134 111.318C40.1346 108.369 36.8934 105.54 29.8401 105.54C16.8401 105.54 10.1701 108.36 16.6101 107.71C17.3 107.64 17.9683 107.586 18.6161 107.546C22.2148 107.266 25.6464 107.363 30.3302 107.81C31.5948 107.929 32.7403 108.224 33.8029 108.642C34.9785 108.98 36.0092 109.6 37.0548 110.401C38.2086 111.184 39.296 112.071 40.3879 112.961C41.5702 113.926 42.7577 114.895 44.0402 115.74C49.0795 119.443 55.2758 121.158 61.9359 121.903C71.813 122.826 83.6501 122.1 83.6501 122.1C83.6501 122.1 83.9778 122.164 84.5394 122.271C86.5217 122.354 88.4629 122.609 90.3629 122.858C90.6496 122.896 90.9354 122.933 91.2202 122.97C92.6302 123.33 94.1302 123.62 95.7602 123.84C101.728 124.652 104.714 122.555 106.347 118.865Z" fill="#C7D0F1" style="fill:#C7D0F1;fill:color(display-p3 0.7804 0.8157 0.9451);fill-opacity:1;"/>
<path fill-rule="evenodd" clip-rule="evenodd" d="M115.52 84.5288C114.638 85.746 113.502 86.6821 112.074 87.0619C112.566 87.3689 113.015 87.7857 113.417 88.2887L100.5 86.9999L115.52 84.5288ZM109.224 108.188L97.5005 107.494L106.858 110.618C106.311 109.486 105.521 108.742 104.724 108.462C104.724 108.462 106.504 108.522 108.124 108.392C108.501 108.361 108.868 108.292 109.224 108.188ZM112.672 64.7053C112.339 64.5679 111.993 64.4688 111.634 64.4119C112.146 63.9382 112.635 63.1353 113.013 62.0099L99.1824 65.1807L112.672 64.7053Z" fill="#C7D0F1" style="fill:#C7D0F1;fill:color(display-p3 0.7804 0.8157 0.9451);fill-opacity:1;"/>
<path d="M4 53C4 49.6863 6.68629 47 10 47H33C36.3137 47 39 49.6863 39 53V112C39 115.314 36.3137 118 33 118H10C6.68629 118 4 115.314 4 112V53Z" fill="#2262DD" style="fill:#2262DD;fill:color(display-p3 0.1333 0.3843 0.8667);fill-opacity:1;"/>
<path fill-rule="evenodd" clip-rule="evenodd" d="M39 112V53C39 49.6863 36.3137 47 33 47C35.2091 47 37 49.6863 37 53V112C37 114.209 35.2091 116 33 116H10C6.68629 116 4 114.209 4 112C4 115.314 6.68629 118 10 118H33C36.3137 118 39 115.314 39 112Z" fill="#1949A6" style="fill:#1949A6;fill:color(display-p3 0.0980 0.2863 0.6510);fill-opacity:1;"/>
<circle cx="26" cy="106" r="4" fill="#F2F2F2" style="fill:#F2F2F2;fill:color(display-p3 0.9500 0.9500 0.9500);fill-opacity:1;"/>
</svg>
