<svg width="128" height="128" viewBox="0 0 128 128" fill="none" xmlns="http://www.w3.org/2000/svg">
<path d="M63.6 118.8C35.7 118.8 5.59998 101.3 5.59998 62.9C5.59998 24.5 35.7 7 63.6 7C79.1 7 93.4 12.1 104 21.4C115.5 31.6 121.6 46 121.6 62.9C121.6 79.8 115.5 94.1 104 104.3C93.4 113.6 79 118.8 63.6 118.8Z" fill="url(#paint0_radial_169_11297)" style=""/>
<path d="M63.6 118.8C35.7 118.8 5.59998 101.3 5.59998 62.9C5.59998 24.5 35.7 7 63.6 7C79.1 7 93.4 12.1 104 21.4C115.5 31.6 121.6 46 121.6 62.9C121.6 79.8 115.5 94.1 104 104.3C93.4 113.6 79 118.8 63.6 118.8Z" fill="url(#paint1_radial_169_11297)" style=""/>
<path d="M63.6 118.8C35.7 118.8 5.59998 101.3 5.59998 62.9C5.59998 24.5 35.7 7 63.6 7C79.1 7 93.4 12.1 104 21.4C115.5 31.6 121.6 46 121.6 62.9C121.6 79.8 115.5 94.1 104 104.3C93.4 113.6 79 118.8 63.6 118.8Z" fill="url(#paint2_radial_169_11297)" style=""/>
<path d="M63.6 118.8C35.7 118.8 5.59998 101.3 5.59998 62.9C5.59998 24.5 35.7 7 63.6 7C79.1 7 93.4 12.1 104 21.4C115.5 31.6 121.6 46 121.6 62.9C121.6 79.8 115.5 94.1 104 104.3C93.4 113.6 79 118.8 63.6 118.8Z" fill="url(#paint3_radial_169_11297)" style=""/>
<path d="M72.86 84.93C74.57 83.42 75.64 81.33 75.86 79.06C76.05 75.46 75.13 74.22 73.95 72.65C71.24 69 63.55 69.87 63.55 69.87C61.55 69.95 59.11 70.93 59.4 73.31C59.79 74.66 60.89 75.69 62.27 76C65.27 76.73 69.64 76 69.76 79.09C69.9 82.55 64.58 81.09 64.16 84.79C63.74 88.49 69.76 87.98 69.76 90.5C69.76 92.43 67.76 92.76 65.69 93.2C63.9 93.57 60.46 94.13 60.18 96.2C59.9 98.27 61.09 100.77 65.93 100.04C73.54 98.89 76.1 94.72 76.1 92.16C76.15 89.39 74.96 86.74 72.86 84.93Z" fill="#42312C" style="fill:#42312C;fill:color(display-p3 0.2588 0.1922 0.1725);fill-opacity:1;"/>
<path d="M72.86 84.93C74.57 83.42 75.64 81.33 75.86 79.06C76.05 75.46 75.13 74.22 73.95 72.65C71.24 69 63.55 69.87 63.55 69.87C61.55 69.95 59.11 70.93 59.4 73.31C59.79 74.66 60.89 75.69 62.27 76C65.27 76.73 69.64 76 69.76 79.09C69.9 82.55 64.58 81.09 64.16 84.79C63.74 88.49 69.76 87.98 69.76 90.5C69.76 92.43 67.76 92.76 65.69 93.2C63.9 93.57 60.46 94.13 60.18 96.2C59.9 98.27 61.09 100.77 65.93 100.04C73.54 98.89 76.1 94.72 76.1 92.16C76.15 89.39 74.96 86.74 72.86 84.93Z" fill="#42312C" style="fill:#42312C;fill:color(display-p3 0.2588 0.1922 0.1725);fill-opacity:1;"/>
<path d="M49 56.89L48.85 56.69L48.42 56.14L47.89 55.57C47.67 55.32 47.41 55.08 47.16 54.82C46.91 54.56 46.6 54.31 46.32 54.1C46.06 53.9 45.78 53.71 45.48 53.56C45.28 53.45 45.06 53.36 44.83 53.31C44.76 53.3 44.69 53.3 44.62 53.31C44.62 53.31 44.56 53.31 44.53 53.31H44.45C44.57 53.31 44.18 53.31 44.72 53.31H44.17C44.02 53.31 44.12 53.31 44.17 53.31H44.25C44.25 53.31 44.33 53.31 44.25 53.31H44.14C43.91 53.36 43.69 53.44 43.48 53.56C43.19 53.72 42.9 53.9 42.64 54.1C42.35 54.32 42.07 54.56 41.81 54.82C41.28 55.33 40.81 55.82 40.51 56.21L39.99 56.81L39.76 57.08C38.32 58.69 35.89 58.95 34.14 57.69C33.02 56.91 32.45 55.56 32.67 54.21C32.67 54.21 32.74 53.81 32.93 53.1C33.23 52.09 33.65 51.11 34.18 50.19C35.03 48.69 36.18 47.38 37.56 46.34C38.47 45.64 39.48 45.08 40.56 44.69C40.86 44.57 41.17 44.48 41.48 44.4C41.81 44.3 42.14 44.23 42.48 44.17L43.09 44.08L43.6 44.02H44.15H44.94H45.45C45.79 44.02 46.12 44.11 46.45 44.16C47.09 44.27 47.73 44.44 48.34 44.67C49.42 45.06 50.43 45.62 51.34 46.32C52.72 47.36 53.87 48.67 54.72 50.17C55.03 50.69 55.3 51.24 55.52 51.8C55.71 52.25 55.87 52.7 56 53.17C56.07 53.41 56.13 53.65 56.16 53.89V54.14C56.46 56.18 55.04 58.08 53 58.38C52.95 58.39 52.9 58.39 52.85 58.4C51.39 58.61 49.93 58.03 49 56.89Z" fill="#42312C" style="fill:#42312C;fill:color(display-p3 0.2588 0.1922 0.1725);fill-opacity:1;"/>
<path d="M49 56.89L48.85 56.69L48.42 56.14L47.89 55.57C47.67 55.32 47.41 55.08 47.16 54.82C46.91 54.56 46.6 54.31 46.32 54.1C46.06 53.9 45.78 53.71 45.48 53.56C45.28 53.45 45.06 53.36 44.83 53.31C44.76 53.3 44.69 53.3 44.62 53.31C44.62 53.31 44.56 53.31 44.53 53.31H44.45C44.57 53.31 44.18 53.31 44.72 53.31H44.17C44.02 53.31 44.12 53.31 44.17 53.31H44.25C44.25 53.31 44.33 53.31 44.25 53.31H44.14C43.91 53.36 43.69 53.44 43.48 53.56C43.19 53.72 42.9 53.9 42.64 54.1C42.35 54.32 42.07 54.56 41.81 54.82C41.28 55.33 40.81 55.82 40.51 56.21L39.99 56.81L39.76 57.08C38.32 58.69 35.89 58.95 34.14 57.69C33.02 56.91 32.45 55.56 32.67 54.21C32.67 54.21 32.74 53.81 32.93 53.1C33.23 52.09 33.65 51.11 34.18 50.19C35.03 48.69 36.18 47.38 37.56 46.34C38.47 45.64 39.48 45.08 40.56 44.69C40.86 44.57 41.17 44.48 41.48 44.4C41.81 44.3 42.14 44.23 42.48 44.17L43.09 44.08L43.6 44.02H44.15H44.94H45.45C45.79 44.02 46.12 44.11 46.45 44.16C47.09 44.27 47.73 44.44 48.34 44.67C49.42 45.06 50.43 45.62 51.34 46.32C52.72 47.36 53.87 48.67 54.72 50.17C55.03 50.69 55.3 51.24 55.52 51.8C55.71 52.25 55.87 52.7 56 53.17C56.07 53.41 56.13 53.65 56.16 53.89V54.14C56.46 56.18 55.04 58.08 53 58.38C52.95 58.39 52.9 58.39 52.85 58.4C51.39 58.61 49.93 58.03 49 56.89Z" fill="#42312C" style="fill:#42312C;fill:color(display-p3 0.2588 0.1922 0.1725);fill-opacity:1;"/>
<path d="M88.46 56.89L88.3 56.69L87.87 56.14L87.34 55.57C87.12 55.32 86.86 55.08 86.61 54.82C86.36 54.56 86.05 54.31 85.77 54.1C85.51 53.9 85.23 53.71 84.93 53.56C84.73 53.45 84.51 53.36 84.28 53.31C84.21 53.3 84.14 53.3 84.07 53.31C84.07 53.31 84.01 53.31 83.98 53.31H83.9C84.02 53.31 83.63 53.31 84.17 53.31H83.62C83.47 53.31 83.57 53.31 83.62 53.31H83.7C83.7 53.31 83.78 53.31 83.7 53.31H83.59C83.36 53.36 83.14 53.44 82.93 53.56C82.64 53.71 82.36 53.9 82.1 54.1C81.8 54.32 81.52 54.56 81.26 54.82C80.73 55.33 80.26 55.82 79.96 56.21L79.44 56.81L79.22 57.08C77.77 58.69 75.35 58.95 73.59 57.69C72.47 56.91 71.9 55.56 72.12 54.21C72.12 54.21 72.19 53.81 72.39 53.1C72.69 52.08 73.1 51.1 73.64 50.19C74.49 48.69 75.63 47.38 77.01 46.34C77.92 45.64 78.93 45.08 80.01 44.69C80.31 44.57 80.62 44.48 80.93 44.4C81.26 44.3 81.59 44.23 81.93 44.17L82.55 44.08L83.05 44.02H83.6H84.39H84.9C85.24 44.02 85.57 44.11 85.9 44.16C86.55 44.27 87.18 44.44 87.79 44.67C88.87 45.06 89.88 45.62 90.79 46.32C92.17 47.36 93.32 48.67 94.17 50.17C94.48 50.69 94.75 51.24 94.97 51.8C95.16 52.24 95.32 52.69 95.45 53.15C95.52 53.39 95.58 53.63 95.61 53.87V54.12C95.93 56.16 94.53 58.07 92.49 58.39C92.46 58.39 92.43 58.4 92.4 58.4C90.91 58.65 89.4 58.07 88.46 56.89Z" fill="#42312C" style="fill:#42312C;fill:color(display-p3 0.2588 0.1922 0.1725);fill-opacity:1;"/>
<path d="M88.46 56.89L88.3 56.69L87.87 56.14L87.34 55.57C87.12 55.32 86.86 55.08 86.61 54.82C86.36 54.56 86.05 54.31 85.77 54.1C85.51 53.9 85.23 53.71 84.93 53.56C84.73 53.45 84.51 53.36 84.28 53.31C84.21 53.3 84.14 53.3 84.07 53.31C84.07 53.31 84.01 53.31 83.98 53.31H83.9C84.02 53.31 83.63 53.31 84.17 53.31H83.62C83.47 53.31 83.57 53.31 83.62 53.31H83.7C83.7 53.31 83.78 53.31 83.7 53.31H83.59C83.36 53.36 83.14 53.44 82.93 53.56C82.64 53.71 82.36 53.9 82.1 54.1C81.8 54.32 81.52 54.56 81.26 54.82C80.73 55.33 80.26 55.82 79.96 56.21L79.44 56.81L79.22 57.08C77.77 58.69 75.35 58.95 73.59 57.69C72.47 56.91 71.9 55.56 72.12 54.21C72.12 54.21 72.19 53.81 72.39 53.1C72.69 52.08 73.1 51.1 73.64 50.19C74.49 48.69 75.63 47.38 77.01 46.34C77.92 45.64 78.93 45.08 80.01 44.69C80.31 44.57 80.62 44.48 80.93 44.4C81.26 44.3 81.59 44.23 81.93 44.17L82.55 44.08L83.05 44.02H83.6H84.39H84.9C85.24 44.02 85.57 44.11 85.9 44.16C86.55 44.27 87.18 44.44 87.79 44.67C88.87 45.06 89.88 45.62 90.79 46.32C92.17 47.36 93.32 48.67 94.17 50.17C94.48 50.69 94.75 51.24 94.97 51.8C95.16 52.24 95.32 52.69 95.45 53.15C95.52 53.39 95.58 53.63 95.61 53.87V54.12C95.93 56.16 94.53 58.07 92.49 58.39C92.46 58.39 92.43 58.4 92.4 58.4C90.91 58.65 89.4 58.07 88.46 56.89Z" fill="#42312C" style="fill:#42312C;fill:color(display-p3 0.2588 0.1922 0.1725);fill-opacity:1;"/>
<path d="M111.49 29.67C116.82 38.27 119.6 48.51 119.6 59.9C119.6 76.8 113.5 91.1 102 101.3C91.4 110.6 77 115.8 61.6 115.8C43.54 115.8 24.6 108.45 13.42 92.86C24.18 110.52 44.42 118.8 63.6 118.8C79 118.8 93.4 113.6 104 104.3C115.5 94.1 121.6 79.8 121.6 62.9C121.6 50.16 118.13 38.84 111.49 29.67Z" fill="#EB8F00" style="fill:#EB8F00;fill:color(display-p3 0.9216 0.5608 0.0000);fill-opacity:1;"/>
<path d="M111.49 29.67C116.82 38.27 119.6 48.51 119.6 59.9C119.6 76.8 113.5 91.1 102 101.3C91.4 110.6 77 115.8 61.6 115.8C43.54 115.8 24.6 108.45 13.42 92.86C24.18 110.52 44.42 118.8 63.6 118.8C79 118.8 93.4 113.6 104 104.3C115.5 94.1 121.6 79.8 121.6 62.9C121.6 50.16 118.13 38.84 111.49 29.67Z" fill="#F3B872" style="fill:#F3B872;fill:color(display-p3 0.9542 0.7229 0.4453);fill-opacity:1;"/>
<path d="M111.49 29.67C116.82 38.27 119.6 48.51 119.6 59.9C119.6 76.8 113.5 91.1 102 101.3C91.4 110.6 77 115.8 61.6 115.8C43.54 115.8 24.6 108.45 13.42 92.86C24.18 110.52 44.42 118.8 63.6 118.8C79 118.8 93.4 113.6 104 104.3C115.5 94.1 121.6 79.8 121.6 62.9C121.6 50.16 118.13 38.84 111.49 29.67Z" fill="#4A2F27" style="fill:#4A2F27;fill:color(display-p3 0.2902 0.1843 0.1529);fill-opacity:1;"/>
<defs>
<radialGradient id="paint0_radial_169_11297" cx="0" cy="0" r="1" gradientUnits="userSpaceOnUse" gradientTransform="translate(63.6 62.9) scale(56.9597 56.9597)">
<stop offset="0.5" stop-color="#FDE030" style="stop-color:#FDE030;stop-color:color(display-p3 0.9922 0.8784 0.1882);stop-opacity:1;"/>
<stop offset="0.92" stop-color="#F7C02B" style="stop-color:#F7C02B;stop-color:color(display-p3 0.9686 0.7529 0.1686);stop-opacity:1;"/>
<stop offset="1" stop-color="#F4A223" style="stop-color:#F4A223;stop-color:color(display-p3 0.9569 0.6353 0.1373);stop-opacity:1;"/>
</radialGradient>
<radialGradient id="paint1_radial_169_11297" cx="0" cy="0" r="1" gradientUnits="userSpaceOnUse" gradientTransform="translate(38.599 34.5377) rotate(-43.2082) scale(102.024 101.825)">
<stop offset="0.3533" stop-color="#F9DDBD" style="stop-color:#F9DDBD;stop-color:color(display-p3 0.9765 0.8667 0.7412);stop-opacity:1;"/>
<stop offset="0.8723" stop-color="#FFD29C" style="stop-color:#FFD29C;stop-color:color(display-p3 1.0000 0.8235 0.6118);stop-opacity:1;"/>
</radialGradient>
<radialGradient id="paint2_radial_169_11297" cx="0" cy="0" r="1" gradientUnits="userSpaceOnUse" gradientTransform="translate(38.599 34.5377) rotate(-43.2082) scale(102.024 101.825)">
<stop offset="0.3533" stop-color="#70534A" style="stop-color:#70534A;stop-color:color(display-p3 0.4392 0.3255 0.2902);stop-opacity:1;"/>
<stop offset="0.8723" stop-color="#5C4037" style="stop-color:#5C4037;stop-color:color(display-p3 0.3608 0.2510 0.2157);stop-opacity:1;"/>
</radialGradient>
<radialGradient id="paint3_radial_169_11297" cx="0" cy="0" r="1" gradientUnits="userSpaceOnUse" gradientTransform="translate(38.599 34.5377) rotate(-43.2082) scale(102.024 101.825)">
<stop offset="0.3533" stop-color="#A56C43" style="stop-color:#A56C43;stop-color:color(display-p3 0.6471 0.4235 0.2627);stop-opacity:1;"/>
<stop offset="0.8723" stop-color="#8D5738" style="stop-color:#8D5738;stop-color:color(display-p3 0.5529 0.3412 0.2196);stop-opacity:1;"/>
</radialGradient>
</defs>
</svg>
