<svg width="128" height="129" viewBox="0 0 128 129" fill="none" xmlns="http://www.w3.org/2000/svg">
<path d="M23.9902 19.4657C23.9902 19.4657 24.9602 12.8757 26.2202 10.2357C27.4802 7.59569 29.4602 4.81569 33.2602 4.07569C37.7902 3.19569 90.3102 3.65569 93.9502 3.88569C97.6202 4.12569 100.03 5.27569 101.41 7.53569C102.46 9.26569 102.83 11.3757 103.32 14.5057C103.58 16.1557 104.12 20.6757 104.12 20.6757L23.9902 19.4657Z" fill="#FFA828" style="fill:#FFA828;fill:color(display-p3 1.0000 0.6588 0.1569);fill-opacity:1;"/>
<path d="M50.6302 37.3156L22.4702 32.6356C22.4702 32.6356 23.0602 20.9856 24.2802 17.9356C25.5002 14.8856 27.0102 13.0656 31.4402 12.3056C35.8702 11.5456 46.9702 11.8556 63.6202 11.7056C80.2702 11.5556 94.9302 12.5656 97.5302 12.7156C100.13 12.8656 102.57 14.1456 103.33 16.5856C104.09 19.0256 104.46 22.3256 105.01 28.1956C105.21 30.3256 105.03 34.3556 105.03 34.3556L72.7602 36.5556L50.6302 37.3156Z" fill="#F1EDEC" style="fill:#F1EDEC;fill:color(display-p3 0.9451 0.9294 0.9255);fill-opacity:1;"/>
<path d="M22.2302 35.6857C22.4202 32.6357 22.4802 29.3357 24.8002 27.3657C26.7902 25.6857 30.1502 25.9957 34.1202 25.8357C37.7902 25.6957 47.1002 25.7757 64.6702 25.7757C82.2402 25.7757 97.0302 26.0357 99.7802 26.0357C102.53 26.0357 104.87 28.1857 105.17 30.1757C105.48 32.1657 104.1 116.326 103.95 118.156C103.8 119.986 103.19 123.656 99.2102 123.956C95.2402 124.266 32.7702 124.266 30.1702 123.956C27.5702 123.646 25.2802 121.356 24.8202 117.086C24.3602 112.816 22.0702 38.1257 22.2302 35.6857Z" fill="#D8CDC9" style="fill:#D8CDC9;fill:color(display-p3 0.8471 0.8039 0.7882);fill-opacity:1;"/>
<path d="M29.61 50.0259C31.91 50.3259 33.82 40.4159 36.82 38.1059C39.82 35.8059 45.43 34.5959 45.43 32.2959C45.43 31.1459 41.79 31.1559 38.42 31.1959C35.05 31.2359 32.15 30.9559 30.51 32.6959C28.71 34.5959 28.53 37.6459 28.41 40.7059C28.2 45.6159 28.19 49.8359 29.61 50.0259Z" fill="#F1EDEC" style="fill:#F1EDEC;fill:color(display-p3 0.9451 0.9294 0.9255);fill-opacity:1;"/>
<path d="M79.3398 117.656C79.3398 119.336 80.5698 119.886 87.2198 119.656C92.8398 119.466 95.6198 118.756 97.2898 116.746C98.9598 114.746 99.4198 110.546 99.4898 105.506C99.5298 102.016 99.4398 98.6562 97.6798 98.6562C95.1598 98.6562 95.1699 104.406 93.1599 107.636C89.2199 113.976 79.3398 115.416 79.3398 117.656Z" fill="#F1EDEC" style="fill:#F1EDEC;fill:color(display-p3 0.9451 0.9294 0.9255);fill-opacity:1;"/>
<path d="M66.8202 93.9633C66.8202 94.7633 67.4688 95.4119 68.2688 95.4119H89.3721C90.4766 95.4119 91.3721 96.3073 91.3721 97.4119V111.088C91.3721 112.226 91.1727 113.123 90.7739 113.778C90.3752 114.434 89.8435 114.934 89.1789 115.279C88.5143 115.624 87.7263 115.848 86.8149 115.951C85.9034 116.055 84.935 116.106 83.9097 116.106H82.6033C81.8056 116.106 81.0843 115.633 80.7676 114.9L80.5848 114.478C80.0224 113.178 80.9529 111.721 82.3691 111.685L85.4477 111.605C85.9034 111.605 86.2262 111.536 86.4161 111.398C86.606 111.26 86.7009 110.967 86.7009 110.519V101.603C86.7009 100.498 85.8055 99.6025 84.7009 99.6025H68.8202C67.7157 99.6025 66.8202 100.498 66.8202 101.603V102.496C66.8202 103.648 67.7913 104.564 68.9397 104.472C69.3644 104.438 69.7877 104.401 70.2096 104.362C70.7871 104.309 71.367 104.251 71.9495 104.189C72.6302 104.116 72.9247 103.295 72.4517 102.8C72.079 102.41 72.1704 101.774 72.6377 101.505L74.2995 100.549C75.145 100.062 76.2172 100.257 76.8461 101.003C77.7432 102.067 78.6451 103.109 79.5519 104.129C80.3505 105.028 81.1004 105.971 81.8018 106.958C82.4775 107.908 82.1119 109.217 81.075 109.751L80.5478 110.023C79.5725 110.526 78.3794 110.14 77.8144 109.2C77.6678 108.956 77.5142 108.716 77.3536 108.482C76.9555 107.9 76.2477 107.632 75.5496 107.728C71.1017 108.343 66.6539 108.834 62.2061 109.2C57.8278 109.56 53.4339 109.756 49.0243 109.79C48.2114 109.796 47.4794 109.303 47.1724 108.55L46.5949 107.134C46.2971 106.403 46.8343 105.604 47.6231 105.604C50.0156 105.604 52.4176 105.561 54.8291 105.475C56.6174 105.411 58.4005 105.323 60.1784 105.212C61.2251 105.146 62.0352 104.274 62.0352 103.226V101.603C62.0352 100.498 61.1397 99.6025 60.0352 99.6025H45.4646C44.3601 99.6025 43.4646 100.498 43.4646 101.603V113.848C43.4646 114.952 42.5692 115.848 41.4646 115.848H40.7366C39.632 115.848 38.7366 114.952 38.7366 113.848V101.511C38.7366 100.457 37.8822 99.6025 36.8282 99.6025C35.7743 99.6025 34.9199 98.7482 34.9199 97.6942V97.3202C34.9199 96.2663 35.7743 95.4119 36.8282 95.4119H37.8312C38.3312 95.4119 38.7366 95.0065 38.7366 94.5065C38.7366 94.0065 39.1419 93.6011 39.642 93.6011H42.5593C43.0593 93.6011 43.4646 94.0065 43.4646 94.5065C43.4646 95.0065 43.87 95.4119 44.37 95.4119H60.5866C61.3866 95.4119 62.0352 94.7633 62.0352 93.9633C62.0352 93.1632 61.3866 92.5147 60.5866 92.5147H44.6102C43.5056 92.5147 42.6102 91.6192 42.6102 90.5147V76.4069C42.6102 75.3024 43.5056 74.4069 44.6102 74.4069H84.1883C85.2928 74.4069 86.1883 75.3024 86.1883 76.4069V90.5147C86.1883 91.6192 85.2928 92.5147 84.1883 92.5147H68.2688C67.4688 92.5147 66.8202 93.1632 66.8202 93.9633ZM51.3258 72.1047C51.3258 71.2903 50.6656 70.6302 49.8513 70.6302H37.0339C35.9293 70.6302 35.0339 69.7348 35.0339 68.6302V68.543C35.0339 67.4384 35.9293 66.543 37.0339 66.543H49.3258C50.4304 66.543 51.3258 65.6476 51.3258 64.543V64.3006C51.3258 63.1961 52.2212 62.3006 53.3258 62.3006H54.1108C55.2154 62.3006 56.1108 63.1961 56.1108 64.3006V64.543C56.1108 65.6476 57.0063 66.543 58.1108 66.543H61.5732C62.6778 66.543 63.5732 67.4384 63.5732 68.543V68.6302C63.5732 69.7348 62.6778 70.6302 61.5732 70.6302H57.5853C56.771 70.6302 56.1108 71.2903 56.1108 72.1047C56.1108 72.919 55.4507 73.5792 54.6364 73.5792H52.8003C51.9859 73.5792 51.3258 72.919 51.3258 72.1047ZM91.6507 66.543C92.7552 66.543 93.6507 67.4384 93.6507 68.543V68.6302C93.6507 69.7348 92.7552 70.6302 91.6507 70.6302H80.4282C79.6139 70.6302 78.9537 71.2903 78.9537 72.1047C78.9537 72.919 78.2936 73.5792 77.4792 73.5792H75.8141C74.9997 73.5792 74.3396 72.919 74.3396 72.1047C74.3396 71.2903 73.6794 70.6302 72.8651 70.6302H67.1682C66.0637 70.6302 65.1682 69.7348 65.1682 68.6302V68.543C65.1682 67.4384 66.0637 66.543 67.1682 66.543H72.3396C73.4441 66.543 74.3396 65.6476 74.3396 64.543V64.3006C74.3396 63.1961 75.235 62.3006 76.3396 62.3006H76.9537C78.0583 62.3006 78.9537 63.1961 78.9537 64.3006V64.543C78.9537 65.6476 79.8492 66.543 80.9537 66.543H91.6507ZM48.7869 85.4268C47.9868 85.4268 47.3383 86.0754 47.3383 86.8754C47.3383 87.6755 47.9868 88.324 48.7869 88.324H60.5866C61.3866 88.324 62.0352 87.6755 62.0352 86.8754C62.0352 86.0754 61.3866 85.4268 60.5866 85.4268H48.7869ZM68.2688 85.4268C67.4688 85.4268 66.8202 86.0754 66.8202 86.8754C66.8202 87.6755 67.4688 88.324 68.2688 88.324H80.0116C80.8116 88.324 81.4602 87.6755 81.4602 86.8754C81.4602 86.0754 80.8116 85.4268 80.0116 85.4268H68.2688ZM48.7351 78.5458C47.9637 78.5458 47.3383 79.1712 47.3383 79.9427C47.3383 80.7142 47.9637 81.3396 48.7351 81.3396H60.6383C61.4098 81.3396 62.0352 80.7142 62.0352 79.9427C62.0352 79.1712 61.4098 78.5458 60.6383 78.5458H48.7351ZM68.2171 78.5458C67.4456 78.5458 66.8202 79.1712 66.8202 79.9427C66.8202 80.7142 67.4456 81.3396 68.2171 81.3396H80.0633C80.8348 81.3396 81.4602 80.7142 81.4602 79.9427C81.4602 79.1712 80.8348 78.5458 80.0633 78.5458H68.2171Z" fill="#DF0B26" style="fill:#DF0B26;fill:color(display-p3 0.8745 0.0431 0.1490);fill-opacity:1;"/>
<path d="M89.5493 50.3343V49.2163C89.5493 48.3332 88.6539 47.6173 87.5493 47.6173H41.0215C39.9169 47.6173 39.0215 48.3332 39.0215 49.2163V50.3343C39.0215 51.2174 39.9169 51.9333 41.0215 51.9333H87.5493C88.6539 51.9333 89.5493 51.2174 89.5493 50.3343Z" fill="#426FE4" style="fill:#426FE4;fill:color(display-p3 0.2588 0.4353 0.8941);fill-opacity:1;"/>
<path d="M84.9983 32.3823V31.2644C84.9983 30.3812 84.1029 29.6653 82.9983 29.6653H45.2703C44.1657 29.6653 43.2703 30.3812 43.2703 31.2644V32.3823C43.2703 33.2655 44.1657 33.9814 45.2703 33.9814H82.9983C84.1029 33.9814 84.9983 33.2655 84.9983 32.3823Z" fill="#426FE4" style="fill:#426FE4;fill:color(display-p3 0.2588 0.4353 0.8941);fill-opacity:1;"/>
</svg>
