<svg width="128" height="128" viewBox="0 0 128 128" fill="none" xmlns="http://www.w3.org/2000/svg">
<path d="M116 4H12C7.58 4 4 7.58 4 12V116C4 120.42 7.58 124 12 124H116C120.42 124 124 120.42 124 116V12C124 7.58 120.42 4 116 4Z" fill="#F77E00" style="fill:#F77E00;fill:color(display-p3 0.9686 0.4941 0.0000);fill-opacity:1;"/>
<path d="M109.7 4H11.5C7.37002 4.03 4.03002 7.37 4.00002 11.5V109.4C3.99002 113.54 7.34002 116.89 11.48 116.9C11.49 116.9 11.49 116.9 11.5 116.9H109.6C113.74 116.91 117.09 113.56 117.1 109.42C117.1 109.41 117.1 109.41 117.1 109.4V11.5C117.19 7.45 113.97 4.09 109.92 4C109.85 4 109.77 4 109.7 4Z" fill="#FF9800" style="fill:#FF9800;fill:color(display-p3 1.0000 0.5961 0.0000);fill-opacity:1;"/>
<path opacity="0.75" d="M39.7001 12.8999C39.7001 10.5999 38.1001 9.89988 28.9001 10.1999C21.2001 10.4999 17.4001 11.3999 15.1001 14.1999C12.8001 16.9999 12.2001 22.6999 12.1001 29.4999C12.1001 34.2999 12.1001 38.7999 14.6001 38.7999C18.0001 38.7999 18.0001 30.8999 20.8001 26.4999C26.2001 17.7999 39.7001 15.8999 39.7001 12.8999Z" fill="#FFBD52" style="fill:#FFBD52;fill:color(display-p3 1.0000 0.7412 0.3216);fill-opacity:1;"/>
<path d="M101.642 31.1035L78.2364 63.5982C77.9147 64.1612 77.9147 64.8047 78.2364 65.3677L101.642 99.3906C102.607 100.838 100.838 102.527 99.3901 101.643L64.8846 78.639C64.3216 78.3173 63.6781 78.3173 63.1151 78.639L28.6096 101.643C27.1618 102.608 25.4727 100.838 26.3574 99.3906L49.7633 65.3677C50.085 64.8047 50.085 64.1612 49.7633 63.5982L26.3574 31.1035C25.3923 29.6557 27.1618 27.9666 28.6096 28.8513L63.1151 50.2464C63.6781 50.5681 64.3216 50.5681 64.8846 50.2464L99.3901 28.8513C100.838 27.9666 102.527 29.6557 101.642 31.1035Z" fill="white" style="fill:white;fill-opacity:1;"/>
<path d="M65.6088 17.0276L72.3651 54.4287C72.526 55.0721 73.0086 55.5547 73.5716 55.6351L110.973 62.3915C112.662 62.7936 112.662 65.2066 110.973 65.5283L73.4912 72.2847C72.8477 72.4455 72.3651 72.9281 72.2847 73.4912L65.6088 110.973C65.287 112.662 62.7936 112.662 62.4719 110.973L55.7156 73.4912C55.5547 72.8477 55.0721 72.3651 54.5091 72.2847L17.0276 65.6088C15.3385 65.287 15.3385 62.7936 17.0276 62.4719L54.4287 55.7156C55.0721 55.5547 55.5547 55.0721 55.6351 54.5091L62.3915 17.0276C62.7936 15.3385 65.2066 15.3385 65.6088 17.0276Z" fill="white" style="fill:white;fill-opacity:1;"/>
</svg>
