<svg width="128" height="129" viewBox="0 0 128 129" fill="none" xmlns="http://www.w3.org/2000/svg">
<path d="M46.8279 75.2312C46.8279 75.2312 47.8838 76.5443 49.536 77.0322C49.8087 77.1111 49.8591 77.5076 49.6017 77.5738C48.7251 77.8004 47.2538 77.8918 45.3349 76.9662L46.8279 75.2312Z" fill="#424242" style="fill:#424242;fill:color(display-p3 0.2588 0.2588 0.2588);fill-opacity:1;"/>
<path d="M46.8279 75.2312C46.8279 75.2312 47.8838 76.5443 49.536 77.0322C49.8087 77.1111 49.8591 77.5076 49.6017 77.5738C48.7251 77.8004 47.2538 77.8918 45.3349 76.9662L46.8279 75.2312Z" fill="#444E52" style="fill:#444E52;fill:color(display-p3 0.2674 0.3041 0.3208);fill-opacity:1;"/>
<path d="M38.6008 79.899C38.4505 79.678 38.498 79.3837 38.7001 79.2056C40.3222 77.7713 40.559 75.1126 40.5928 74.19C40.5997 73.9816 40.7075 73.789 40.8787 73.6726L41.8287 73.027L46.415 69.91L46.5325 69.8301L49.7108 67.67L44.534 71.1882L46.183 70.0675L46.1654 70.0416C45.9678 69.7509 45.9772 69.3835 46.2389 69.1474L47.54 67.9691C47.6844 67.8389 47.8958 67.8758 48.0054 68.0371L48.3722 68.5767L49.2265 67.9961C49.6196 67.7348 50.1819 67.8126 50.4472 68.2029L50.6943 68.545C50.9582 68.9334 50.8587 69.5366 50.4684 69.8019L50.4256 69.8312L51.5408 71.4721C51.9739 72.1093 51.8271 73.0242 51.1899 73.4573C51.3545 73.5754 51.5066 73.7049 51.6367 73.8407C53.3862 75.6909 52.7186 77.9642 50.877 79.7223C50.5757 80.0115 50.2601 80.2668 49.9375 80.486C48.2925 81.604 46.4373 81.7528 44.965 80.2119C44.7715 80.0086 44.6101 79.801 44.47 79.5906L44.4673 79.5953L44.1576 79.1566C43.4489 78.1139 42.0233 78.9581 41.7582 79.4119L41.5217 79.7216L40.7327 83.0359L38.6008 79.899ZM45.9067 79.3186C46.8067 80.2616 47.9202 80.2937 49.2107 79.4167C49.4716 79.2394 49.7322 79.0273 49.9825 78.7873C50.7281 78.0768 51.204 77.2992 51.328 76.5949C51.4468 75.9173 51.2404 75.3094 50.695 74.734C50.515 74.5419 50.2678 74.3838 49.9924 74.2741C48.7072 75.1504 46.525 76.4915 44.965 78C45.0389 78.4214 45.5238 78.918 45.9067 79.3186Z" fill="#757575" style="fill:#757575;fill:color(display-p3 0.4588 0.4588 0.4588);fill-opacity:1;"/>
<path d="M38.6008 79.899C38.4505 79.678 38.498 79.3837 38.7001 79.2056C40.3222 77.7713 40.559 75.1126 40.5928 74.19C40.5997 73.9816 40.7075 73.789 40.8787 73.6726L41.8287 73.027L46.415 69.91L46.5325 69.8301L49.7108 67.67L44.534 71.1882L46.183 70.0675L46.1654 70.0416C45.9678 69.7509 45.9772 69.3835 46.2389 69.1474L47.54 67.9691C47.6844 67.8389 47.8958 67.8758 48.0054 68.0371L48.3722 68.5767L49.2265 67.9961C49.6196 67.7348 50.1819 67.8126 50.4472 68.2029L50.6943 68.545C50.9582 68.9334 50.8587 69.5366 50.4684 69.8019L50.4256 69.8312L51.5408 71.4721C51.9739 72.1093 51.8271 73.0242 51.1899 73.4573C51.3545 73.5754 51.5066 73.7049 51.6367 73.8407C53.3862 75.6909 52.7186 77.9642 50.877 79.7223C50.5757 80.0115 50.2601 80.2668 49.9375 80.486C48.2925 81.604 46.4373 81.7528 44.965 80.2119C44.7715 80.0086 44.6101 79.801 44.47 79.5906L44.4673 79.5953L44.1576 79.1566C43.4489 78.1139 42.0233 78.9581 41.7582 79.4119L41.5217 79.7216L40.7327 83.0359L38.6008 79.899ZM45.9067 79.3186C46.8067 80.2616 47.9202 80.2937 49.2107 79.4167C49.4716 79.2394 49.7322 79.0273 49.9825 78.7873C50.7281 78.0768 51.204 77.2992 51.328 76.5949C51.4468 75.9173 51.2404 75.3094 50.695 74.734C50.515 74.5419 50.2678 74.3838 49.9924 74.2741C48.7072 75.1504 46.525 76.4915 44.965 78C45.0389 78.4214 45.5238 78.918 45.9067 79.3186Z" fill="#6C777C" style="fill:#6C777C;fill:color(display-p3 0.4235 0.4667 0.4863);fill-opacity:1;"/>
<path d="M13.8262 115.922C11.4955 111.269 8.15137 105.969 4.45959 102.126C4.01953 101.668 4.0832 100.918 4.60854 100.561L31.4493 82.3195C31.9358 82.8498 33.4523 83.4195 35.6266 81.4556C36.1868 80.9496 36.6617 80.3139 37.061 79.6197C38.9789 76.2849 40.6994 72.6145 43.8811 70.4521L85.4978 42.1683C86.3777 41.5703 87.5838 41.9041 88.0311 42.8693C88.925 44.7982 88.281 47.0877 86.5229 48.283C71.1308 58.7478 45.546 77.4485 43.5909 79.2317C41.4995 81.1393 40.0048 85.7835 41.1652 87.4909L43.2841 90.6087C43.0999 90.7086 42.1799 91.2984 39.9734 92.8588C37.7669 94.4191 35.9134 93.7703 35.2624 93.2509L15.5046 116.141C15.0316 116.689 14.1503 116.57 13.8262 115.922Z" fill="#C4C4C4" style="fill:#C4C4C4;fill:color(display-p3 0.7686 0.7686 0.7686);fill-opacity:1;"/>
<path d="M13.8262 115.922C11.4955 111.269 8.15137 105.969 4.45959 102.126C4.01953 101.668 4.0832 100.918 4.60854 100.561L31.4493 82.3195C31.9358 82.8498 33.4523 83.4195 35.6266 81.4556C36.1868 80.9496 36.6617 80.3139 37.061 79.6197C38.9789 76.2849 40.6994 72.6145 43.8811 70.4521L85.4978 42.1683C86.3777 41.5703 87.5838 41.9041 88.0311 42.8693C88.925 44.7982 88.281 47.0877 86.5229 48.283C71.1308 58.7478 45.546 77.4485 43.5909 79.2317C41.4995 81.1393 40.0048 85.7835 41.1652 87.4909L43.2841 90.6087C43.0999 90.7086 42.1799 91.2984 39.9734 92.8588C37.7669 94.4191 35.9134 93.7703 35.2624 93.2509L15.5046 116.141C15.0316 116.689 14.1503 116.57 13.8262 115.922Z" fill="#6D4C41" style="fill:#6D4C41;fill:color(display-p3 0.4275 0.2980 0.2549);fill-opacity:1;"/>
<path d="M113.648 13.3478C113.626 12.6869 113.944 12.0606 114.491 11.6889L116.943 10.0224L120.078 12.9823L115.979 15.7684L111.367 18.9028L112.273 17.7021C113.216 16.4511 113.702 14.914 113.648 13.3478Z" fill="#C4C4C4" style="fill:#C4C4C4;fill:color(display-p3 0.7686 0.7686 0.7686);fill-opacity:1;"/>
<path d="M113.648 13.3478C113.626 12.6869 113.944 12.0606 114.491 11.6889L116.943 10.0224L120.078 12.9823L115.979 15.7684L111.367 18.9028L112.273 17.7021C113.216 16.4511 113.702 14.914 113.648 13.3478Z" fill="#565656" style="fill:#565656;fill:color(display-p3 0.3373 0.3373 0.3373);fill-opacity:1;"/>
<path d="M113.648 13.3478C113.626 12.6869 113.944 12.0606 114.491 11.6889L116.943 10.0224L120.078 12.9823L115.979 15.7684L111.367 18.9028L112.273 17.7021C113.216 16.4511 113.702 14.914 113.648 13.3478Z" fill="#444E52" style="fill:#444E52;fill:color(display-p3 0.2674 0.3041 0.3208);fill-opacity:1;"/>
<path d="M40.6605 68.9689C39.9969 68.0557 40.2201 66.7745 41.1535 66.1396L119.897 12.5722C120.79 11.9645 122.004 12.1761 122.639 13.0501L123.339 14.0127C124.003 14.926 123.779 16.2071 122.846 16.8421L42.4998 71.5L40.6605 68.9689Z" fill="#C4C4C4" style="fill:#C4C4C4;fill:color(display-p3 0.7686 0.7686 0.7686);fill-opacity:1;"/>
<path d="M40.6605 68.9689C39.9969 68.0557 40.2201 66.7745 41.1535 66.1396L119.897 12.5722C120.79 11.9645 122.004 12.1761 122.639 13.0501L123.339 14.0127C124.003 14.926 123.779 16.2071 122.846 16.8421L42.4998 71.5L40.6605 68.9689Z" fill="#636363" style="fill:#636363;fill:color(display-p3 0.3875 0.3875 0.3875);fill-opacity:1;"/>
<path d="M40.6605 68.9689C39.9969 68.0557 40.2201 66.7745 41.1535 66.1396L119.897 12.5722C120.79 11.9645 122.004 12.1761 122.639 13.0501L123.339 14.0127C124.003 14.926 123.779 16.2071 122.846 16.8421L42.4998 71.5L40.6605 68.9689Z" fill="#6C777C" style="fill:#6C777C;fill:color(display-p3 0.4225 0.4680 0.4875);fill-opacity:1;"/>
<path d="M69.5001 47L69.8937 46.5968C71.0758 45.3859 71.3323 43.5465 70.5265 42.0584C70.4477 41.913 70.4919 41.7317 70.6286 41.6388L70.6723 41.6091C70.8067 41.5177 70.9885 41.543 71.0929 41.6676C72.1778 42.9621 73.9871 43.3849 75.5333 42.7052L76.0001 42.5L73.0001 44.5L69.5001 47Z" fill="#9E9E9E" style="fill:#9E9E9E;fill:color(display-p3 0.6196 0.6196 0.6196);fill-opacity:1;"/>
<path d="M69.5001 47L69.8937 46.5968C71.0758 45.3859 71.3323 43.5465 70.5265 42.0584C70.4477 41.913 70.4919 41.7317 70.6286 41.6388L70.6723 41.6091C70.8067 41.5177 70.9885 41.543 71.0929 41.6676C72.1778 42.9621 73.9871 43.3849 75.5333 42.7052L76.0001 42.5L73.0001 44.5L69.5001 47Z" fill="#565656" style="fill:#565656;fill:color(display-p3 0.3373 0.3373 0.3373);fill-opacity:1;"/>
<path d="M69.5001 47L69.8937 46.5968C71.0758 45.3859 71.3323 43.5465 70.5265 42.0584C70.4477 41.913 70.4919 41.7317 70.6286 41.6388L70.6723 41.6091C70.8067 41.5177 70.9885 41.543 71.0929 41.6676C72.1778 42.9621 73.9871 43.3849 75.5333 42.7052L76.0001 42.5L73.0001 44.5L69.5001 47Z" fill="#444E52" style="fill:#444E52;fill:color(display-p3 0.2674 0.3041 0.3208);fill-opacity:1;"/>
</svg>
