<svg width="128" height="128" viewBox="0 0 128 128" fill="none" xmlns="http://www.w3.org/2000/svg">
<g opacity="0.2">
<path d="M99.73 7.09009C102.49 7.09009 104.73 9.33009 104.73 12.0901V116.09C104.73 118.85 102.49 121.09 99.73 121.09H27.73C24.97 121.09 22.73 118.85 22.73 116.09V12.0901C22.73 9.33009 24.97 7.09009 27.73 7.09009H99.73ZM99.73 4.09009H27.73C23.31 4.09009 19.73 7.67009 19.73 12.0901V116.09C19.73 120.51 23.31 124.09 27.73 124.09H99.73C104.15 124.09 107.73 120.51 107.73 116.09V12.0901C107.73 7.67009 104.15 4.09009 99.73 4.09009Z" fill="#212121" style="fill:#212121;fill:color(display-p3 0.1294 0.1294 0.1294);fill-opacity:1;"/>
<path d="M99.73 7.09009C102.49 7.09009 104.73 9.33009 104.73 12.0901V116.09C104.73 118.85 102.49 121.09 99.73 121.09H27.73C24.97 121.09 22.73 118.85 22.73 116.09V12.0901C22.73 9.33009 24.97 7.09009 27.73 7.09009H99.73ZM99.73 4.09009H27.73C23.31 4.09009 19.73 7.67009 19.73 12.0901V116.09C19.73 120.51 23.31 124.09 27.73 124.09H99.73C104.15 124.09 107.73 120.51 107.73 116.09V12.0901C107.73 7.67009 104.15 4.09009 99.73 4.09009Z" fill="#212121" style="fill:#212121;fill:color(display-p3 0.1294 0.1294 0.1294);fill-opacity:1;"/>
<path d="M99.73 7.09009C102.49 7.09009 104.73 9.33009 104.73 12.0901V116.09C104.73 118.85 102.49 121.09 99.73 121.09H27.73C24.97 121.09 22.73 118.85 22.73 116.09V12.0901C22.73 9.33009 24.97 7.09009 27.73 7.09009H99.73ZM99.73 4.09009H27.73C23.31 4.09009 19.73 7.67009 19.73 12.0901V116.09C19.73 120.51 23.31 124.09 27.73 124.09H99.73C104.15 124.09 107.73 120.51 107.73 116.09V12.0901C107.73 7.67009 104.15 4.09009 99.73 4.09009Z" fill="#212121" style="fill:#212121;fill:color(display-p3 0.1294 0.1294 0.1294);fill-opacity:1;"/>
</g>
<path d="M102.439 125.43L26.4194 125.06C22.9694 125.06 20.1694 122.26 20.1694 118.81L32.3694 26.6801L102.559 4.5001C108.689 4.1701 109.039 7.0301 109.039 10.4801L108.669 119.17C108.689 122.64 105.889 125.43 102.439 125.43Z" fill="#D9CDC9" style="fill:#D9CDC9;fill:color(display-p3 0.8510 0.8039 0.7882);fill-opacity:1;"/>
<path d="M101.98 122.06C101.98 122.06 44.2195 123.04 25.5095 121.98C21.9295 121.78 20.1795 120.36 20.1695 118.82L19.9995 10.3301C19.9995 6.88008 22.7995 4.08008 26.2495 4.08008L101.89 4.40008C105.34 4.40008 106.65 7.26008 106.65 10.7101L106.08 116.11C106.06 119.56 105.43 122.06 101.98 122.06Z" fill="#F1EDEC" style="fill:#F1EDEC;fill:color(display-p3 0.9451 0.9294 0.9255);fill-opacity:1;"/>
<path d="M42.2668 105.2C42.6501 104 44.1834 101 46.8668 101C50.3168 101 51.8501 103.4 51.8501 106.4C51.8501 108.5 50.8615 109.884 49.9334 111.5C48.9452 113.221 47.488 114.757 46.1001 116.3C44.3194 118.279 40.3501 122 40.3501 122C40.3501 122 36.3808 118.279 34.6001 116.3C33.2122 114.757 31.755 113.221 30.7668 111.5C29.8387 109.884 28.8501 108.5 28.8501 106.4C28.8501 103.4 30.3834 101 33.8334 101C36.5168 101 38.0501 104 38.4334 105.2C38.8168 105.5 38.8168 105.2 38.8168 104.9C38.4334 102.5 38.4334 101.9 38.0501 100.1C37.6668 98.3 36.5168 95 36.5168 95C38.4334 95.6 42.2668 95.6 44.1834 95C44.1834 95 43.0334 98.3 42.6501 100.1C42.2668 101.9 42.2668 102.5 41.8834 104.9C41.8834 105.2 41.8834 105.5 42.2668 105.2Z" fill="#212121" style="fill:#212121;fill:color(display-p3 0.1294 0.1294 0.1294);fill-opacity:1;"/>
<path d="M42.2668 105.2C42.6501 104 44.1834 101 46.8668 101C50.3168 101 51.8501 103.4 51.8501 106.4C51.8501 108.5 50.8615 109.884 49.9334 111.5C48.9452 113.221 47.488 114.757 46.1001 116.3C44.3194 118.279 40.3501 122 40.3501 122C40.3501 122 36.3808 118.279 34.6001 116.3C33.2122 114.757 31.755 113.221 30.7668 111.5C29.8387 109.884 28.8501 108.5 28.8501 106.4C28.8501 103.4 30.3834 101 33.8334 101C36.5168 101 38.0501 104 38.4334 105.2C38.8168 105.5 38.8168 105.2 38.8168 104.9C38.4334 102.5 38.4334 101.9 38.0501 100.1C37.6668 98.3 36.5168 95 36.5168 95C38.4334 95.6 42.2668 95.6 44.1834 95C44.1834 95 43.0334 98.3 42.6501 100.1C42.2668 101.9 42.2668 102.5 41.8834 104.9C41.8834 105.2 41.8834 105.5 42.2668 105.2Z" fill="#212121" style="fill:#212121;fill:color(display-p3 0.1294 0.1294 0.1294);fill-opacity:1;"/>
<path d="M42.2668 105.2C42.6501 104 44.1834 101 46.8668 101C50.3168 101 51.8501 103.4 51.8501 106.4C51.8501 108.5 50.8615 109.884 49.9334 111.5C48.9452 113.221 47.488 114.757 46.1001 116.3C44.3194 118.279 40.3501 122 40.3501 122C40.3501 122 36.3808 118.279 34.6001 116.3C33.2122 114.757 31.755 113.221 30.7668 111.5C29.8387 109.884 28.8501 108.5 28.8501 106.4C28.8501 103.4 30.3834 101 33.8334 101C36.5168 101 38.0501 104 38.4334 105.2C38.8168 105.5 38.8168 105.2 38.8168 104.9C38.4334 102.5 38.4334 101.9 38.0501 100.1C37.6668 98.3 36.5168 95 36.5168 95C38.4334 95.6 42.2668 95.6 44.1834 95C44.1834 95 43.0334 98.3 42.6501 100.1C42.2668 101.9 42.2668 102.5 41.8834 104.9C41.8834 105.2 41.8834 105.5 42.2668 105.2Z" fill="#212121" style="fill:#212121;fill:color(display-p3 0.1294 0.1294 0.1294);fill-opacity:1;"/>
<path d="M87.4167 105.2C87.8 104 89.3333 101 92.0167 101C95.4667 101 97 103.4 97 106.4C97 108.5 96.0114 109.884 95.0833 111.5C94.0951 113.221 92.6379 114.757 91.25 116.3C89.4693 118.279 85.5 122 85.5 122C85.5 122 81.5307 118.279 79.75 116.3C78.3621 114.757 76.9049 113.221 75.9167 111.5C74.9886 109.884 74 108.5 74 106.4C74 103.4 75.5333 101 78.9833 101C81.6667 101 83.2 104 83.5833 105.2C83.9667 105.5 83.9667 105.2 83.9667 104.9C83.5833 102.5 83.5833 101.9 83.2 100.1C82.8167 98.3 81.6667 95 81.6667 95C83.5833 95.6 87.4167 95.6 89.3333 95C89.3333 95 88.1833 98.3 87.8 100.1C87.4167 101.9 87.4167 102.5 87.0333 104.9C87.0333 105.2 87.0333 105.5 87.4167 105.2Z" fill="#212121" style="fill:#212121;fill:color(display-p3 0.1294 0.1294 0.1294);fill-opacity:1;"/>
<path d="M87.4167 105.2C87.8 104 89.3333 101 92.0167 101C95.4667 101 97 103.4 97 106.4C97 108.5 96.0114 109.884 95.0833 111.5C94.0951 113.221 92.6379 114.757 91.25 116.3C89.4693 118.279 85.5 122 85.5 122C85.5 122 81.5307 118.279 79.75 116.3C78.3621 114.757 76.9049 113.221 75.9167 111.5C74.9886 109.884 74 108.5 74 106.4C74 103.4 75.5333 101 78.9833 101C81.6667 101 83.2 104 83.5833 105.2C83.9667 105.5 83.9667 105.2 83.9667 104.9C83.5833 102.5 83.5833 101.9 83.2 100.1C82.8167 98.3 81.6667 95 81.6667 95C83.5833 95.6 87.4167 95.6 89.3333 95C89.3333 95 88.1833 98.3 87.8 100.1C87.4167 101.9 87.4167 102.5 87.0333 104.9C87.0333 105.2 87.0333 105.5 87.4167 105.2Z" fill="#212121" style="fill:#212121;fill:color(display-p3 0.1294 0.1294 0.1294);fill-opacity:1;"/>
<path d="M87.4167 105.2C87.8 104 89.3333 101 92.0167 101C95.4667 101 97 103.4 97 106.4C97 108.5 96.0114 109.884 95.0833 111.5C94.0951 113.221 92.6379 114.757 91.25 116.3C89.4693 118.279 85.5 122 85.5 122C85.5 122 81.5307 118.279 79.75 116.3C78.3621 114.757 76.9049 113.221 75.9167 111.5C74.9886 109.884 74 108.5 74 106.4C74 103.4 75.5333 101 78.9833 101C81.6667 101 83.2 104 83.5833 105.2C83.9667 105.5 83.9667 105.2 83.9667 104.9C83.5833 102.5 83.5833 101.9 83.2 100.1C82.8167 98.3 81.6667 95 81.6667 95C83.5833 95.6 87.4167 95.6 89.3333 95C89.3333 95 88.1833 98.3 87.8 100.1C87.4167 101.9 87.4167 102.5 87.0333 104.9C87.0333 105.2 87.0333 105.5 87.4167 105.2Z" fill="#212121" style="fill:#212121;fill:color(display-p3 0.1294 0.1294 0.1294);fill-opacity:1;"/>
<path d="M44.4167 53.8C44.8 55 46.3333 58 49.0167 58C52.4667 58 54 55.6 54 52.6C54 50.5 53.0114 49.1163 52.0833 47.5C51.0951 45.779 49.6379 44.2428 48.25 42.7C46.4693 40.7206 42.5 37 42.5 37C42.5 37 38.5307 40.7206 36.75 42.7C35.3621 44.2428 33.9049 45.779 32.9167 47.5C31.9886 49.1163 31 50.5 31 52.6C31 55.6 32.5333 58 35.9833 58C38.6667 58 40.2 55 40.5833 53.8C40.9667 53.5 40.9667 53.8 40.9667 54.1C40.5833 56.5 40.5833 57.1 40.2 58.9C39.8167 60.7 38.6667 64 38.6667 64C40.5833 63.4 44.4167 63.4 46.3333 64C46.3333 64 45.1833 60.7 44.8 58.9C44.4167 57.1 44.4167 56.5 44.0333 54.1C44.0333 53.8 44.0333 53.5 44.4167 53.8Z" fill="#212121" style="fill:#212121;fill:color(display-p3 0.1294 0.1294 0.1294);fill-opacity:1;"/>
<path d="M44.4167 53.8C44.8 55 46.3333 58 49.0167 58C52.4667 58 54 55.6 54 52.6C54 50.5 53.0114 49.1163 52.0833 47.5C51.0951 45.779 49.6379 44.2428 48.25 42.7C46.4693 40.7206 42.5 37 42.5 37C42.5 37 38.5307 40.7206 36.75 42.7C35.3621 44.2428 33.9049 45.779 32.9167 47.5C31.9886 49.1163 31 50.5 31 52.6C31 55.6 32.5333 58 35.9833 58C38.6667 58 40.2 55 40.5833 53.8C40.9667 53.5 40.9667 53.8 40.9667 54.1C40.5833 56.5 40.5833 57.1 40.2 58.9C39.8167 60.7 38.6667 64 38.6667 64C40.5833 63.4 44.4167 63.4 46.3333 64C46.3333 64 45.1833 60.7 44.8 58.9C44.4167 57.1 44.4167 56.5 44.0333 54.1C44.0333 53.8 44.0333 53.5 44.4167 53.8Z" fill="#212121" style="fill:#212121;fill:color(display-p3 0.1294 0.1294 0.1294);fill-opacity:1;"/>
<path d="M44.4167 53.8C44.8 55 46.3333 58 49.0167 58C52.4667 58 54 55.6 54 52.6C54 50.5 53.0114 49.1163 52.0833 47.5C51.0951 45.779 49.6379 44.2428 48.25 42.7C46.4693 40.7206 42.5 37 42.5 37C42.5 37 38.5307 40.7206 36.75 42.7C35.3621 44.2428 33.9049 45.779 32.9167 47.5C31.9886 49.1163 31 50.5 31 52.6C31 55.6 32.5333 58 35.9833 58C38.6667 58 40.2 55 40.5833 53.8C40.9667 53.5 40.9667 53.8 40.9667 54.1C40.5833 56.5 40.5833 57.1 40.2 58.9C39.8167 60.7 38.6667 64 38.6667 64C40.5833 63.4 44.4167 63.4 46.3333 64C46.3333 64 45.1833 60.7 44.8 58.9C44.4167 57.1 44.4167 56.5 44.0333 54.1C44.0333 53.8 44.0333 53.5 44.4167 53.8Z" fill="#212121" style="fill:#212121;fill:color(display-p3 0.1294 0.1294 0.1294);fill-opacity:1;"/>
<path d="M87.4167 53.8C87.8 55 89.3333 58 92.0167 58C95.4667 58 97 55.6 97 52.6C97 50.5 96.0114 49.1163 95.0833 47.5C94.0951 45.779 92.6379 44.2428 91.25 42.7C89.4693 40.7206 85.5 37 85.5 37C85.5 37 81.5307 40.7206 79.75 42.7C78.3621 44.2428 76.9049 45.779 75.9167 47.5C74.9886 49.1163 74 50.5 74 52.6C74 55.6 75.5333 58 78.9833 58C81.6667 58 83.2 55 83.5833 53.8C83.9667 53.5 83.9667 53.8 83.9667 54.1C83.5833 56.5 83.5833 57.1 83.2 58.9C82.8167 60.7 81.6667 64 81.6667 64C83.5833 63.4 87.4167 63.4 89.3333 64C89.3333 64 88.1833 60.7 87.8 58.9C87.4167 57.1 87.4167 56.5 87.0333 54.1C87.0333 53.8 87.0333 53.5 87.4167 53.8Z" fill="#212121" style="fill:#212121;fill:color(display-p3 0.1294 0.1294 0.1294);fill-opacity:1;"/>
<path d="M87.4167 53.8C87.8 55 89.3333 58 92.0167 58C95.4667 58 97 55.6 97 52.6C97 50.5 96.0114 49.1163 95.0833 47.5C94.0951 45.779 92.6379 44.2428 91.25 42.7C89.4693 40.7206 85.5 37 85.5 37C85.5 37 81.5307 40.7206 79.75 42.7C78.3621 44.2428 76.9049 45.779 75.9167 47.5C74.9886 49.1163 74 50.5 74 52.6C74 55.6 75.5333 58 78.9833 58C81.6667 58 83.2 55 83.5833 53.8C83.9667 53.5 83.9667 53.8 83.9667 54.1C83.5833 56.5 83.5833 57.1 83.2 58.9C82.8167 60.7 81.6667 64 81.6667 64C83.5833 63.4 87.4167 63.4 89.3333 64C89.3333 64 88.1833 60.7 87.8 58.9C87.4167 57.1 87.4167 56.5 87.0333 54.1C87.0333 53.8 87.0333 53.5 87.4167 53.8Z" fill="#212121" style="fill:#212121;fill:color(display-p3 0.1294 0.1294 0.1294);fill-opacity:1;"/>
<path d="M87.4167 53.8C87.8 55 89.3333 58 92.0167 58C95.4667 58 97 55.6 97 52.6C97 50.5 96.0114 49.1163 95.0833 47.5C94.0951 45.779 92.6379 44.2428 91.25 42.7C89.4693 40.7206 85.5 37 85.5 37C85.5 37 81.5307 40.7206 79.75 42.7C78.3621 44.2428 76.9049 45.779 75.9167 47.5C74.9886 49.1163 74 50.5 74 52.6C74 55.6 75.5333 58 78.9833 58C81.6667 58 83.2 55 83.5833 53.8C83.9667 53.5 83.9667 53.8 83.9667 54.1C83.5833 56.5 83.5833 57.1 83.2 58.9C82.8167 60.7 81.6667 64 81.6667 64C83.5833 63.4 87.4167 63.4 89.3333 64C89.3333 64 88.1833 60.7 87.8 58.9C87.4167 57.1 87.4167 56.5 87.0333 54.1C87.0333 53.8 87.0333 53.5 87.4167 53.8Z" fill="#212121" style="fill:#212121;fill:color(display-p3 0.1294 0.1294 0.1294);fill-opacity:1;"/>
<path d="M67.5666 42.8C67.9499 44 69.4832 47 72.1666 47C75.6166 47 77.1499 44.6 77.1499 41.6C77.1499 39.5 76.1613 38.1163 75.2332 36.5C74.245 34.779 72.7878 33.2428 71.3999 31.7C69.6192 29.7206 65.6499 26 65.6499 26C65.6499 26 61.6806 29.7206 59.8999 31.7C58.512 33.2428 57.0548 34.779 56.0666 36.5C55.1385 38.1163 54.1499 39.5 54.1499 41.6C54.1499 44.6 55.6832 47 59.1332 47C61.8166 47 63.3499 44 63.7332 42.8C64.1166 42.5 64.1166 42.8 64.1166 43.1C63.7332 45.5 63.7332 46.1 63.3499 47.9C62.9666 49.7 61.8166 53 61.8166 53C63.7332 52.4 67.5666 52.4 69.4832 53C69.4832 53 68.3332 49.7 67.9499 47.9C67.5666 46.1 67.5666 45.5 67.1832 43.1C67.1832 42.8 67.1832 42.5 67.5666 42.8Z" fill="#212121" style="fill:#212121;fill:color(display-p3 0.1294 0.1294 0.1294);fill-opacity:1;"/>
<path d="M67.5666 42.8C67.9499 44 69.4832 47 72.1666 47C75.6166 47 77.1499 44.6 77.1499 41.6C77.1499 39.5 76.1613 38.1163 75.2332 36.5C74.245 34.779 72.7878 33.2428 71.3999 31.7C69.6192 29.7206 65.6499 26 65.6499 26C65.6499 26 61.6806 29.7206 59.8999 31.7C58.512 33.2428 57.0548 34.779 56.0666 36.5C55.1385 38.1163 54.1499 39.5 54.1499 41.6C54.1499 44.6 55.6832 47 59.1332 47C61.8166 47 63.3499 44 63.7332 42.8C64.1166 42.5 64.1166 42.8 64.1166 43.1C63.7332 45.5 63.7332 46.1 63.3499 47.9C62.9666 49.7 61.8166 53 61.8166 53C63.7332 52.4 67.5666 52.4 69.4832 53C69.4832 53 68.3332 49.7 67.9499 47.9C67.5666 46.1 67.5666 45.5 67.1832 43.1C67.1832 42.8 67.1832 42.5 67.5666 42.8Z" fill="#212121" style="fill:#212121;fill:color(display-p3 0.1294 0.1294 0.1294);fill-opacity:1;"/>
<path d="M67.5666 42.8C67.9499 44 69.4832 47 72.1666 47C75.6166 47 77.1499 44.6 77.1499 41.6C77.1499 39.5 76.1613 38.1163 75.2332 36.5C74.245 34.779 72.7878 33.2428 71.3999 31.7C69.6192 29.7206 65.6499 26 65.6499 26C65.6499 26 61.6806 29.7206 59.8999 31.7C58.512 33.2428 57.0548 34.779 56.0666 36.5C55.1385 38.1163 54.1499 39.5 54.1499 41.6C54.1499 44.6 55.6832 47 59.1332 47C61.8166 47 63.3499 44 63.7332 42.8C64.1166 42.5 64.1166 42.8 64.1166 43.1C63.7332 45.5 63.7332 46.1 63.3499 47.9C62.9666 49.7 61.8166 53 61.8166 53C63.7332 52.4 67.5666 52.4 69.4832 53C69.4832 53 68.3332 49.7 67.9499 47.9C67.5666 46.1 67.5666 45.5 67.1832 43.1C67.1832 42.8 67.1832 42.5 67.5666 42.8Z" fill="#212121" style="fill:#212121;fill:color(display-p3 0.1294 0.1294 0.1294);fill-opacity:1;"/>
<path d="M44.4167 26.8C44.8 28 46.3333 31 49.0167 31C52.4667 31 54 28.6 54 25.6C54 23.5 53.0114 22.1163 52.0833 20.5C51.0951 18.779 49.6379 17.2428 48.25 15.7C46.4693 13.7206 42.5 10 42.5 10C42.5 10 38.5307 13.7206 36.75 15.7C35.3621 17.2428 33.9049 18.779 32.9167 20.5C31.9886 22.1163 31 23.5 31 25.6C31 28.6 32.5333 31 35.9833 31C38.6667 31 40.2 28 40.5833 26.8C40.9667 26.5 40.9667 26.8 40.9667 27.1C40.5833 29.5 40.5833 30.1 40.2 31.9C39.8167 33.7 38.6667 37 38.6667 37C40.5833 36.4 44.4167 36.4 46.3333 37C46.3333 37 45.1833 33.7 44.8 31.9C44.4167 30.1 44.4167 29.5 44.0333 27.1C44.0333 26.8 44.0333 26.5 44.4167 26.8Z" fill="#212121" style="fill:#212121;fill:color(display-p3 0.1294 0.1294 0.1294);fill-opacity:1;"/>
<path d="M44.4167 26.8C44.8 28 46.3333 31 49.0167 31C52.4667 31 54 28.6 54 25.6C54 23.5 53.0114 22.1163 52.0833 20.5C51.0951 18.779 49.6379 17.2428 48.25 15.7C46.4693 13.7206 42.5 10 42.5 10C42.5 10 38.5307 13.7206 36.75 15.7C35.3621 17.2428 33.9049 18.779 32.9167 20.5C31.9886 22.1163 31 23.5 31 25.6C31 28.6 32.5333 31 35.9833 31C38.6667 31 40.2 28 40.5833 26.8C40.9667 26.5 40.9667 26.8 40.9667 27.1C40.5833 29.5 40.5833 30.1 40.2 31.9C39.8167 33.7 38.6667 37 38.6667 37C40.5833 36.4 44.4167 36.4 46.3333 37C46.3333 37 45.1833 33.7 44.8 31.9C44.4167 30.1 44.4167 29.5 44.0333 27.1C44.0333 26.8 44.0333 26.5 44.4167 26.8Z" fill="#212121" style="fill:#212121;fill:color(display-p3 0.1294 0.1294 0.1294);fill-opacity:1;"/>
<path d="M44.4167 26.8C44.8 28 46.3333 31 49.0167 31C52.4667 31 54 28.6 54 25.6C54 23.5 53.0114 22.1163 52.0833 20.5C51.0951 18.779 49.6379 17.2428 48.25 15.7C46.4693 13.7206 42.5 10 42.5 10C42.5 10 38.5307 13.7206 36.75 15.7C35.3621 17.2428 33.9049 18.779 32.9167 20.5C31.9886 22.1163 31 23.5 31 25.6C31 28.6 32.5333 31 35.9833 31C38.6667 31 40.2 28 40.5833 26.8C40.9667 26.5 40.9667 26.8 40.9667 27.1C40.5833 29.5 40.5833 30.1 40.2 31.9C39.8167 33.7 38.6667 37 38.6667 37C40.5833 36.4 44.4167 36.4 46.3333 37C46.3333 37 45.1833 33.7 44.8 31.9C44.4167 30.1 44.4167 29.5 44.0333 27.1C44.0333 26.8 44.0333 26.5 44.4167 26.8Z" fill="#212121" style="fill:#212121;fill:color(display-p3 0.1294 0.1294 0.1294);fill-opacity:1;"/>
<path d="M87.4167 26.8C87.8 28 89.3333 31 92.0167 31C95.4667 31 97 28.6 97 25.6C97 23.5 96.0114 22.1163 95.0833 20.5C94.0951 18.779 92.6379 17.2428 91.25 15.7C89.4693 13.7206 85.5 10 85.5 10C85.5 10 81.5307 13.7206 79.75 15.7C78.3621 17.2428 76.9049 18.779 75.9167 20.5C74.9886 22.1163 74 23.5 74 25.6C74 28.6 75.5333 31 78.9833 31C81.6667 31 83.2 28 83.5833 26.8C83.9667 26.5 83.9667 26.8 83.9667 27.1C83.5833 29.5 83.5833 30.1 83.2 31.9C82.8167 33.7 81.6667 37 81.6667 37C83.5833 36.4 87.4167 36.4 89.3333 37C89.3333 37 88.1833 33.7 87.8 31.9C87.4167 30.1 87.4167 29.5 87.0333 27.1C87.0333 26.8 87.0333 26.5 87.4167 26.8Z" fill="#212121" style="fill:#212121;fill:color(display-p3 0.1294 0.1294 0.1294);fill-opacity:1;"/>
<path d="M87.4167 26.8C87.8 28 89.3333 31 92.0167 31C95.4667 31 97 28.6 97 25.6C97 23.5 96.0114 22.1163 95.0833 20.5C94.0951 18.779 92.6379 17.2428 91.25 15.7C89.4693 13.7206 85.5 10 85.5 10C85.5 10 81.5307 13.7206 79.75 15.7C78.3621 17.2428 76.9049 18.779 75.9167 20.5C74.9886 22.1163 74 23.5 74 25.6C74 28.6 75.5333 31 78.9833 31C81.6667 31 83.2 28 83.5833 26.8C83.9667 26.5 83.9667 26.8 83.9667 27.1C83.5833 29.5 83.5833 30.1 83.2 31.9C82.8167 33.7 81.6667 37 81.6667 37C83.5833 36.4 87.4167 36.4 89.3333 37C89.3333 37 88.1833 33.7 87.8 31.9C87.4167 30.1 87.4167 29.5 87.0333 27.1C87.0333 26.8 87.0333 26.5 87.4167 26.8Z" fill="#212121" style="fill:#212121;fill:color(display-p3 0.1294 0.1294 0.1294);fill-opacity:1;"/>
<path d="M87.4167 26.8C87.8 28 89.3333 31 92.0167 31C95.4667 31 97 28.6 97 25.6C97 23.5 96.0114 22.1163 95.0833 20.5C94.0951 18.779 92.6379 17.2428 91.25 15.7C89.4693 13.7206 85.5 10 85.5 10C85.5 10 81.5307 13.7206 79.75 15.7C78.3621 17.2428 76.9049 18.779 75.9167 20.5C74.9886 22.1163 74 23.5 74 25.6C74 28.6 75.5333 31 78.9833 31C81.6667 31 83.2 28 83.5833 26.8C83.9667 26.5 83.9667 26.8 83.9667 27.1C83.5833 29.5 83.5833 30.1 83.2 31.9C82.8167 33.7 81.6667 37 81.6667 37C83.5833 36.4 87.4167 36.4 89.3333 37C89.3333 37 88.1833 33.7 87.8 31.9C87.4167 30.1 87.4167 29.5 87.0333 27.1C87.0333 26.8 87.0333 26.5 87.4167 26.8Z" fill="#212121" style="fill:#212121;fill:color(display-p3 0.1294 0.1294 0.1294);fill-opacity:1;"/>
<path d="M44.4167 77.2C44.8 76 46.3333 73 49.0167 73C52.4667 73 54 75.4 54 78.4C54 80.5 53.0114 81.8837 52.0833 83.5C51.0951 85.221 49.6379 86.7572 48.25 88.3C46.4693 90.2794 42.5 94 42.5 94C42.5 94 38.5307 90.2794 36.75 88.3C35.3621 86.7572 33.9049 85.221 32.9167 83.5C31.9886 81.8837 31 80.5 31 78.4C31 75.4 32.5333 73 35.9833 73C38.6667 73 40.2 76 40.5833 77.2C40.9667 77.5 40.9667 77.2 40.9667 76.9C40.5833 74.5 40.5833 73.9 40.2 72.1C39.8167 70.3 38.6667 67 38.6667 67C40.5833 67.6 44.4167 67.6 46.3333 67C46.3333 67 45.1833 70.3 44.8 72.1C44.4167 73.9 44.4167 74.5 44.0333 76.9C44.0333 77.2 44.0333 77.5 44.4167 77.2Z" fill="#212121" style="fill:#212121;fill:color(display-p3 0.1294 0.1294 0.1294);fill-opacity:1;"/>
<path d="M44.4167 77.2C44.8 76 46.3333 73 49.0167 73C52.4667 73 54 75.4 54 78.4C54 80.5 53.0114 81.8837 52.0833 83.5C51.0951 85.221 49.6379 86.7572 48.25 88.3C46.4693 90.2794 42.5 94 42.5 94C42.5 94 38.5307 90.2794 36.75 88.3C35.3621 86.7572 33.9049 85.221 32.9167 83.5C31.9886 81.8837 31 80.5 31 78.4C31 75.4 32.5333 73 35.9833 73C38.6667 73 40.2 76 40.5833 77.2C40.9667 77.5 40.9667 77.2 40.9667 76.9C40.5833 74.5 40.5833 73.9 40.2 72.1C39.8167 70.3 38.6667 67 38.6667 67C40.5833 67.6 44.4167 67.6 46.3333 67C46.3333 67 45.1833 70.3 44.8 72.1C44.4167 73.9 44.4167 74.5 44.0333 76.9C44.0333 77.2 44.0333 77.5 44.4167 77.2Z" fill="#212121" style="fill:#212121;fill:color(display-p3 0.1294 0.1294 0.1294);fill-opacity:1;"/>
<path d="M44.4167 77.2C44.8 76 46.3333 73 49.0167 73C52.4667 73 54 75.4 54 78.4C54 80.5 53.0114 81.8837 52.0833 83.5C51.0951 85.221 49.6379 86.7572 48.25 88.3C46.4693 90.2794 42.5 94 42.5 94C42.5 94 38.5307 90.2794 36.75 88.3C35.3621 86.7572 33.9049 85.221 32.9167 83.5C31.9886 81.8837 31 80.5 31 78.4C31 75.4 32.5333 73 35.9833 73C38.6667 73 40.2 76 40.5833 77.2C40.9667 77.5 40.9667 77.2 40.9667 76.9C40.5833 74.5 40.5833 73.9 40.2 72.1C39.8167 70.3 38.6667 67 38.6667 67C40.5833 67.6 44.4167 67.6 46.3333 67C46.3333 67 45.1833 70.3 44.8 72.1C44.4167 73.9 44.4167 74.5 44.0333 76.9C44.0333 77.2 44.0333 77.5 44.4167 77.2Z" fill="#212121" style="fill:#212121;fill:color(display-p3 0.1294 0.1294 0.1294);fill-opacity:1;"/>
<path d="M67.5666 86.2C67.9499 85 69.4832 82 72.1666 82C75.6166 82 77.1499 84.4 77.1499 87.4C77.1499 89.5 76.1613 90.8837 75.2332 92.5C74.245 94.221 72.7878 95.7572 71.3999 97.3C69.6192 99.2794 65.6499 103 65.6499 103C65.6499 103 61.6806 99.2794 59.8999 97.3C58.512 95.7572 57.0548 94.221 56.0666 92.5C55.1385 90.8837 54.1499 89.5 54.1499 87.4C54.1499 84.4 55.6832 82 59.1332 82C61.8166 82 63.3499 85 63.7332 86.2C64.1166 86.5 64.1166 86.2 64.1166 85.9C63.7332 83.5 63.7332 82.9 63.3499 81.1C62.9666 79.3 61.8166 76 61.8166 76C63.7332 76.6 67.5666 76.6 69.4832 76C69.4832 76 68.3332 79.3 67.9499 81.1C67.5666 82.9 67.5666 83.5 67.1832 85.9C67.1832 86.2 67.1832 86.5 67.5666 86.2Z" fill="#212121" style="fill:#212121;fill:color(display-p3 0.1294 0.1294 0.1294);fill-opacity:1;"/>
<path d="M67.5666 86.2C67.9499 85 69.4832 82 72.1666 82C75.6166 82 77.1499 84.4 77.1499 87.4C77.1499 89.5 76.1613 90.8837 75.2332 92.5C74.245 94.221 72.7878 95.7572 71.3999 97.3C69.6192 99.2794 65.6499 103 65.6499 103C65.6499 103 61.6806 99.2794 59.8999 97.3C58.512 95.7572 57.0548 94.221 56.0666 92.5C55.1385 90.8837 54.1499 89.5 54.1499 87.4C54.1499 84.4 55.6832 82 59.1332 82C61.8166 82 63.3499 85 63.7332 86.2C64.1166 86.5 64.1166 86.2 64.1166 85.9C63.7332 83.5 63.7332 82.9 63.3499 81.1C62.9666 79.3 61.8166 76 61.8166 76C63.7332 76.6 67.5666 76.6 69.4832 76C69.4832 76 68.3332 79.3 67.9499 81.1C67.5666 82.9 67.5666 83.5 67.1832 85.9C67.1832 86.2 67.1832 86.5 67.5666 86.2Z" fill="#212121" style="fill:#212121;fill:color(display-p3 0.1294 0.1294 0.1294);fill-opacity:1;"/>
<path d="M67.5666 86.2C67.9499 85 69.4832 82 72.1666 82C75.6166 82 77.1499 84.4 77.1499 87.4C77.1499 89.5 76.1613 90.8837 75.2332 92.5C74.245 94.221 72.7878 95.7572 71.3999 97.3C69.6192 99.2794 65.6499 103 65.6499 103C65.6499 103 61.6806 99.2794 59.8999 97.3C58.512 95.7572 57.0548 94.221 56.0666 92.5C55.1385 90.8837 54.1499 89.5 54.1499 87.4C54.1499 84.4 55.6832 82 59.1332 82C61.8166 82 63.3499 85 63.7332 86.2C64.1166 86.5 64.1166 86.2 64.1166 85.9C63.7332 83.5 63.7332 82.9 63.3499 81.1C62.9666 79.3 61.8166 76 61.8166 76C63.7332 76.6 67.5666 76.6 69.4832 76C69.4832 76 68.3332 79.3 67.9499 81.1C67.5666 82.9 67.5666 83.5 67.1832 85.9C67.1832 86.2 67.1832 86.5 67.5666 86.2Z" fill="#212121" style="fill:#212121;fill:color(display-p3 0.1294 0.1294 0.1294);fill-opacity:1;"/>
<path d="M87.4167 77.2C87.8 76 89.3333 73 92.0167 73C95.4667 73 97 75.4 97 78.4C97 80.5 96.0114 81.8837 95.0833 83.5C94.0951 85.221 92.6379 86.7572 91.25 88.3C89.4693 90.2794 85.5 94 85.5 94C85.5 94 81.5307 90.2794 79.75 88.3C78.3621 86.7572 76.9049 85.221 75.9167 83.5C74.9886 81.8837 74 80.5 74 78.4C74 75.4 75.5333 73 78.9833 73C81.6667 73 83.2 76 83.5833 77.2C83.9667 77.5 83.9667 77.2 83.9667 76.9C83.5833 74.5 83.5833 73.9 83.2 72.1C82.8167 70.3 81.6667 67 81.6667 67C83.5833 67.6 87.4167 67.6 89.3333 67C89.3333 67 88.1833 70.3 87.8 72.1C87.4167 73.9 87.4167 74.5 87.0333 76.9C87.0333 77.2 87.0333 77.5 87.4167 77.2Z" fill="#212121" style="fill:#212121;fill:color(display-p3 0.1294 0.1294 0.1294);fill-opacity:1;"/>
<path d="M87.4167 77.2C87.8 76 89.3333 73 92.0167 73C95.4667 73 97 75.4 97 78.4C97 80.5 96.0114 81.8837 95.0833 83.5C94.0951 85.221 92.6379 86.7572 91.25 88.3C89.4693 90.2794 85.5 94 85.5 94C85.5 94 81.5307 90.2794 79.75 88.3C78.3621 86.7572 76.9049 85.221 75.9167 83.5C74.9886 81.8837 74 80.5 74 78.4C74 75.4 75.5333 73 78.9833 73C81.6667 73 83.2 76 83.5833 77.2C83.9667 77.5 83.9667 77.2 83.9667 76.9C83.5833 74.5 83.5833 73.9 83.2 72.1C82.8167 70.3 81.6667 67 81.6667 67C83.5833 67.6 87.4167 67.6 89.3333 67C89.3333 67 88.1833 70.3 87.8 72.1C87.4167 73.9 87.4167 74.5 87.0333 76.9C87.0333 77.2 87.0333 77.5 87.4167 77.2Z" fill="#212121" style="fill:#212121;fill:color(display-p3 0.1294 0.1294 0.1294);fill-opacity:1;"/>
<path d="M87.4167 77.2C87.8 76 89.3333 73 92.0167 73C95.4667 73 97 75.4 97 78.4C97 80.5 96.0114 81.8837 95.0833 83.5C94.0951 85.221 92.6379 86.7572 91.25 88.3C89.4693 90.2794 85.5 94 85.5 94C85.5 94 81.5307 90.2794 79.75 88.3C78.3621 86.7572 76.9049 85.221 75.9167 83.5C74.9886 81.8837 74 80.5 74 78.4C74 75.4 75.5333 73 78.9833 73C81.6667 73 83.2 76 83.5833 77.2C83.9667 77.5 83.9667 77.2 83.9667 76.9C83.5833 74.5 83.5833 73.9 83.2 72.1C82.8167 70.3 81.6667 67 81.6667 67C83.5833 67.6 87.4167 67.6 89.3333 67C89.3333 67 88.1833 70.3 87.8 72.1C87.4167 73.9 87.4167 74.5 87.0333 76.9C87.0333 77.2 87.0333 77.5 87.4167 77.2Z" fill="#212121" style="fill:#212121;fill:color(display-p3 0.1294 0.1294 0.1294);fill-opacity:1;"/>
</svg>
