<svg width="128" height="128" viewBox="0 0 128 128" fill="none" xmlns="http://www.w3.org/2000/svg">
<path d="M86.9899 114.68L97.1599 83.46L82.1399 84.35L81.3999 93.13C80.4799 94.86 78.3099 95.65 77.3899 97.38C76.9199 98.27 76.8399 99.32 76.9699 100.32C77.2399 102.39 78.3299 104.63 77.2699 106.44C76.0199 108.57 72.8999 109.18 72.9999 112.11C73.0999 114.79 85.6899 118.43 86.9899 114.68Z" fill="#C62828" style="fill:#C62828;fill:color(display-p3 0.7765 0.1569 0.1569);fill-opacity:1;"/>
<path d="M86.9899 114.68L97.1599 83.46L82.1399 84.35L81.3999 93.13C80.4799 94.86 78.3099 95.65 77.3899 97.38C76.9199 98.27 76.8399 99.32 76.9699 100.32C77.2399 102.39 78.3299 104.63 77.2699 106.44C76.0199 108.57 72.8999 109.18 72.9999 112.11C73.0999 114.79 85.6899 118.43 86.9899 114.68Z" fill="#738A97" style="fill:#738A97;fill:color(display-p3 0.4510 0.5412 0.5922);fill-opacity:1;"/>
<path d="M88.5099 121.41L89.4599 121.74C93.2099 123.04 97.2999 121.06 98.5999 117.31L110.4 83.2798H94.1399C93.5599 84.9398 93.3599 85.5498 92.7699 87.2098C92.2299 88.7198 91.4899 89.4698 91.9699 91.0698C92.4499 92.6498 92.8499 94.4498 92.0299 95.9898C91.1099 97.7198 88.9399 98.5098 88.0199 100.24C87.5499 101.13 87.4699 102.18 87.5999 103.18C87.8699 105.25 88.9599 107.49 87.8999 109.3C86.6499 111.43 83.5299 112.04 83.6299 114.97C83.7199 117.65 85.9899 120.54 88.5099 121.41Z" fill="#F44336" style="fill:#F44336;fill:color(display-p3 0.9569 0.2627 0.2118);fill-opacity:1;"/>
<path d="M88.5099 121.41L89.4599 121.74C93.2099 123.04 97.2999 121.06 98.5999 117.31L110.4 83.2798H94.1399C93.5599 84.9398 93.3599 85.5498 92.7699 87.2098C92.2299 88.7198 91.4899 89.4698 91.9699 91.0698C92.4499 92.6498 92.8499 94.4498 92.0299 95.9898C91.1099 97.7198 88.9399 98.5098 88.0199 100.24C87.5499 101.13 87.4699 102.18 87.5999 103.18C87.8699 105.25 88.9599 107.49 87.8999 109.3C86.6499 111.43 83.5299 112.04 83.6299 114.97C83.7199 117.65 85.9899 120.54 88.5099 121.41Z" fill="#8CAFBF" style="fill:#8CAFBF;fill:color(display-p3 0.5490 0.6863 0.7490);fill-opacity:1;"/>
<path d="M88.22 106.18C88.6 107.74 87.67 107.95 86.73 107.97C84.44 108.03 81.42 107.11 79.93 106.44C79.36 106.19 78.83 105.86 78.35 105.49C77.99 105.21 77.75 104.8 77.72 104.35C77.65 103.04 77.15 101.65 76.98 100.32C76.91 99.7701 76.91 99.2001 77 98.6601C77.07 98.2301 77.57 98.0101 77.95 98.2201C78.91 98.7501 80.62 99.6301 81.76 99.8601C84.02 100.32 85.41 100.28 86.39 100.3C87.12 100.31 87.7 100.96 87.6 101.68C87.53 102.18 87.54 102.69 87.6 103.18C87.73 104.16 87.98 105.19 88.22 106.18Z" fill="#A12524" style="fill:#A12524;fill:color(display-p3 0.6314 0.1451 0.1412);fill-opacity:1;"/>
<path d="M88.22 106.18C88.6 107.74 87.67 107.95 86.73 107.97C84.44 108.03 81.42 107.11 79.93 106.44C79.36 106.19 78.83 105.86 78.35 105.49C77.99 105.21 77.75 104.8 77.72 104.35C77.65 103.04 77.15 101.65 76.98 100.32C76.91 99.7701 76.91 99.2001 77 98.6601C77.07 98.2301 77.57 98.0101 77.95 98.2201C78.91 98.7501 80.62 99.6301 81.76 99.8601C84.02 100.32 85.41 100.28 86.39 100.3C87.12 100.31 87.7 100.96 87.6 101.68C87.53 102.18 87.54 102.69 87.6 103.18C87.73 104.16 87.98 105.19 88.22 106.18Z" fill="#476373" style="fill:#476373;fill:color(display-p3 0.2794 0.3884 0.4500);fill-opacity:1;"/>
<path d="M83.63 114.96C84.97 119.22 88.31 120.7 91.8 120.93C95.18 121.16 97.52 119.27 97.52 119.27C92.68 126.55 80.26 122.02 77.74 120.64C73.89 118.53 73.25 116.39 73 112.36C72.98 112.11 73.4 111.26 74.19 111.9C75.39 112.86 76.75 113.21 78.27 113.52C80.14 113.9 81.14 113.79 81.9 113.84C82.88 113.9 83.37 114.12 83.63 114.96Z" fill="#A12524" style="fill:#A12524;fill:color(display-p3 0.6314 0.1451 0.1412);fill-opacity:1;"/>
<path d="M83.63 114.96C84.97 119.22 88.31 120.7 91.8 120.93C95.18 121.16 97.52 119.27 97.52 119.27C92.68 126.55 80.26 122.02 77.74 120.64C73.89 118.53 73.25 116.39 73 112.36C72.98 112.11 73.4 111.26 74.19 111.9C75.39 112.86 76.75 113.21 78.27 113.52C80.14 113.9 81.14 113.79 81.9 113.84C82.88 113.9 83.37 114.12 83.63 114.96Z" fill="#476373" style="fill:#476373;fill:color(display-p3 0.2794 0.3884 0.4500);fill-opacity:1;"/>
<path d="M110.4 83.2798L107.27 92.3598C107.27 92.3598 105.36 88.1098 97.7599 88.8898C92.6099 89.4198 91.0699 91.2198 91.0699 91.2198L90.7399 83.5398L110.4 83.2798Z" fill="#C62828" style="fill:#C62828;fill:color(display-p3 0.7765 0.1569 0.1569);fill-opacity:1;"/>
<path d="M110.4 83.2798L107.27 92.3598C107.27 92.3598 105.36 88.1098 97.7599 88.8898C92.6099 89.4198 91.0699 91.2198 91.0699 91.2198L90.7399 83.5398L110.4 83.2798Z" fill="#738A97" style="fill:#738A97;fill:color(display-p3 0.4510 0.5412 0.5922);fill-opacity:1;"/>
<path d="M24.84 110.64C24.84 110.64 58.65 85.61 86.76 84.86C98.85 84.54 107.62 84.51 109.73 84.51C116.35 84.52 124 75.11 124 58.55C124 41.99 115.39 30.82 108.77 30.82C107.79 30.82 97.32 31.44 84.66 31.08C54.88 30.24 24.84 6.45996 24.84 6.45996V110.64Z" fill="#E0E0E0" style="fill:#E0E0E0;fill:color(display-p3 0.8784 0.8784 0.8784);fill-opacity:1;"/>
<path d="M47.86 73.46C48.99 75.48 49.01 80.08 48.71 84.34C48.49 87.39 51.54 89.65 54.39 88.53C73.83 80.95 89.79 81.63 89.79 81.63L89.02 84.8C88.28 84.82 87.53 84.84 86.77 84.86C69.79 85.31 50.73 94.62 38.3 101.93C38.3 101.93 42.14 96.41 44.1 88.87C46.13 81.01 47.86 73.46 47.86 73.46Z" fill="#BDBDBD" style="fill:#BDBDBD;fill:color(display-p3 0.7412 0.7412 0.7412);fill-opacity:1;"/>
<path d="M93.73 58.5498C93.73 49.0998 90.64 38.4998 86.77 31.1298C98.46 31.3698 107.84 30.8198 108.77 30.8198C115.39 30.8198 124 41.9898 124 58.5498C124 75.1098 116.35 84.5098 109.72 84.5098C107.61 84.5098 98.84 84.5398 86.75 84.8598C86.68 84.8598 86.6 84.8698 86.53 84.8698C91.01 76.8298 93.73 67.9698 93.73 58.5498Z" fill="#F44336" style="fill:#F44336;fill:color(display-p3 0.9569 0.2627 0.2118);fill-opacity:1;"/>
<path d="M93.73 58.5498C93.73 49.0998 90.64 38.4998 86.77 31.1298C98.46 31.3698 107.84 30.8198 108.77 30.8198C115.39 30.8198 124 41.9898 124 58.5498C124 75.1098 116.35 84.5098 109.72 84.5098C107.61 84.5098 98.84 84.5398 86.75 84.8598C86.68 84.8598 86.6 84.8698 86.53 84.8698C91.01 76.8298 93.73 67.9698 93.73 58.5498Z" fill="#8CAFBF" style="fill:#8CAFBF;fill:color(display-p3 0.5490 0.6863 0.7490);fill-opacity:1;"/>
<path d="M24.8399 110.64C13.3303 110.64 3.99993 87.3185 3.99993 58.55C3.99993 29.7814 13.3303 6.45996 24.8399 6.45996C36.3495 6.45996 45.6799 29.7814 45.6799 58.55C45.6799 87.3185 36.3495 110.64 24.8399 110.64Z" fill="#2F7889" style="fill:#2F7889;fill:color(display-p3 0.1843 0.4706 0.5373);fill-opacity:1;"/>
<path d="M44.7599 43.3101C45.3499 48.1301 45.6699 53.2501 45.6699 58.5601C45.6699 87.3301 36.3399 110.65 24.8299 110.65C13.3199 110.65 3.98992 87.3301 3.98992 58.5601C3.98992 53.2501 4.30993 48.1401 4.89993 43.3101H44.7599Z" fill="url(#paint0_linear_2658_67)" style=""/>
<path d="M24.8399 113.64C38.4299 113.64 48.6799 89.96 48.6799 58.55C48.6799 27.14 38.4299 3.45996 24.8399 3.45996C11.2499 3.45996 3.99993 27.15 3.99993 58.55C3.99993 89.96 11.2499 113.64 24.8399 113.64ZM24.8399 9.45996C33.2799 9.45996 42.6799 29.62 42.6799 58.55C42.6799 87.48 33.2799 107.64 24.8399 107.64C16.3999 107.64 6.99993 87.48 6.99993 58.55C6.99993 29.62 16.3999 9.45996 24.8399 9.45996Z" fill="#E0E0E0" style="fill:#E0E0E0;fill:color(display-p3 0.8784 0.8784 0.8784);fill-opacity:1;"/>
<path d="M38.44 23.2398C39.34 25.6798 42.59 31.0898 44.09 48.8898C44.14 49.4898 44.47 52.1299 45.94 52.1299C46.92 52.1299 47.21 50.6498 47.21 48.6098C47.21 40.6599 45.89 31.8898 42.82 23.2298C41.08 18.3398 37.19 19.8798 38.44 23.2398Z" fill="white" style="fill:white;fill-opacity:1;"/>
<path d="M42.0999 46.4897L23.1999 48.6897V68.5897L41.9599 71.9697C43.1999 56.2397 42.0999 46.4897 42.0999 46.4897Z" fill="url(#paint1_radial_2658_67)" style=""/>
<path d="M23.1999 68.6002C20.5931 68.6002 18.4799 64.1454 18.4799 58.6502C18.4799 53.155 20.5931 48.7002 23.1999 48.7002C25.8067 48.7002 27.9199 53.155 27.9199 58.6502C27.9199 64.1454 25.8067 68.6002 23.1999 68.6002Z" fill="#E0E0E0" style="fill:#E0E0E0;fill:color(display-p3 0.8784 0.8784 0.8784);fill-opacity:1;"/>
<path d="M89.77 87.3999L90.52 88.6999L87.31 94.9699C86.92 95.7299 86.08 96.1499 85.24 95.9899L79.82 94.8999C79.82 94.8999 78.31 92.7499 78.02 92.2599C77.73 91.7699 77.84 91.4799 77.84 91.4799L84 92.6599C84.01 92.6599 89.57 87.4599 89.77 87.3999Z" fill="#353738" style="fill:#353738;fill:color(display-p3 0.2078 0.2157 0.2196);fill-opacity:1;"/>
<path d="M85.6701 91.9599L89.8301 87.4299L82.3401 87.3999L78.1001 91.0699C77.5901 91.6099 77.9201 92.2799 78.6501 92.3999L82.8601 93.0599C83.9201 93.2199 84.9901 92.8099 85.6701 91.9599Z" fill="#616161" style="fill:#616161;fill:color(display-p3 0.3804 0.3804 0.3804);fill-opacity:1;"/>
<path d="M70.4901 37.53C64.1501 36.69 57.8901 34.76 52.5301 31.27C55.6401 39.62 57.1201 49.68 55.9701 58.53C58.9301 57.07 61.9201 55.61 65.0801 54.67C67.7201 53.89 70.4501 53.48 73.1801 53.16C80.0501 52.33 86.4101 52.2 93.3201 52.33C93.1201 52.33 92.5701 47.66 91.7301 44.18C90.8901 40.7 90.0301 38.68 90.0301 38.68C90.0301 38.68 76.5001 38.33 70.4901 37.53Z" fill="white" style="fill:white;fill-opacity:1;"/>
<path d="M92.72 38.25C102.42 38.54 113.25 38.67 113.25 38.67C113.25 38.67 118.14 42.93 119.01 52.32C119.01 52.32 107.46 52.32 96.97 52.51C96.23 45.75 94.05 40.76 92.72 38.25Z" fill="#FF7555" style="fill:#FF7555;fill:color(display-p3 1.0000 0.4588 0.3333);fill-opacity:1;"/>
<path d="M92.72 38.25C102.42 38.54 113.25 38.67 113.25 38.67C113.25 38.67 118.14 42.93 119.01 52.32C119.01 52.32 107.46 52.32 96.97 52.51C96.23 45.75 94.05 40.76 92.72 38.25Z" fill="#B2DFEC" style="fill:#B2DFEC;fill:color(display-p3 0.6980 0.8745 0.9255);fill-opacity:1;"/>
<defs>
<linearGradient id="paint0_linear_2658_67" x1="24.8358" y1="103.827" x2="24.8358" y2="45.2217" gradientUnits="userSpaceOnUse">
<stop stop-color="#353738" style="stop-color:#353738;stop-color:color(display-p3 0.2078 0.2157 0.2196);stop-opacity:1;"/>
<stop offset="1" stop-color="#353738" stop-opacity="0" style="stop-color:none;stop-opacity:0;"/>
</linearGradient>
<radialGradient id="paint1_radial_2658_67" cx="0" cy="0" r="1" gradientUnits="userSpaceOnUse" gradientTransform="translate(26.7933 60.2472) rotate(180) scale(20.9176 35.5913)">
<stop offset="0.4156" stop-color="#82AEC0" style="stop-color:#82AEC0;stop-color:color(display-p3 0.5098 0.6824 0.7529);stop-opacity:1;"/>
<stop offset="1" stop-color="#7FA9BB" stop-opacity="0" style="stop-color:none;stop-opacity:0;"/>
</radialGradient>
</defs>
</svg>
