<svg width="128" height="128" viewBox="0 0 128 128" fill="none" xmlns="http://www.w3.org/2000/svg">
<path d="M63.6 118.8C35.7 118.8 5.59998 101.3 5.59998 62.9C5.59998 24.5 35.7 7 63.6 7C79.1 7 93.4 12.1 104 21.4C115.5 31.6 121.6 46 121.6 62.9C121.6 79.8 115.5 94.1 104 104.3C93.4 113.6 79 118.8 63.6 118.8Z" fill="url(#paint0_radial_169_10671)" style=""/>
<path d="M63.6 118.8C35.7 118.8 5.59998 101.3 5.59998 62.9C5.59998 24.5 35.7 7 63.6 7C79.1 7 93.4 12.1 104 21.4C115.5 31.6 121.6 46 121.6 62.9C121.6 79.8 115.5 94.1 104 104.3C93.4 113.6 79 118.8 63.6 118.8Z" fill="url(#paint1_radial_169_10671)" style=""/>
<path d="M63.6 118.8C35.7 118.8 5.59998 101.3 5.59998 62.9C5.59998 24.5 35.7 7 63.6 7C79.1 7 93.4 12.1 104 21.4C115.5 31.6 121.6 46 121.6 62.9C121.6 79.8 115.5 94.1 104 104.3C93.4 113.6 79 118.8 63.6 118.8Z" fill="url(#paint2_radial_169_10671)" style=""/>
<path d="M63.6 118.8C35.7 118.8 5.59998 101.3 5.59998 62.9C5.59998 24.5 35.7 7 63.6 7C79.1 7 93.4 12.1 104 21.4C115.5 31.6 121.6 46 121.6 62.9C121.6 79.8 115.5 94.1 104 104.3C93.4 113.6 79 118.8 63.6 118.8Z" fill="url(#paint3_radial_169_10671)" style=""/>
<path opacity="0.5" d="M27.25 91.66C36.915 91.66 44.75 83.825 44.75 74.16C44.75 64.495 36.915 56.66 27.25 56.66C17.585 56.66 9.75 64.495 9.75 74.16C9.75 83.825 17.585 91.66 27.25 91.66Z" fill="url(#paint4_radial_169_10671)" style=""/>
<path d="M50.15 59.1L50 58.88L49.79 58.61C49.71 58.5 49.63 58.41 49.53 58.32L48.91 57.7C48.66 57.45 48.36 57.18 48.05 56.91C47.39 56.34 46.65 55.88 45.85 55.52C45.07 55.17 44.22 55 43.37 55H43C42.9 54.98 42.81 54.98 42.71 55C42.53 55.02 42.35 55.05 42.17 55.09C41.75 55.19 41.35 55.32 40.95 55.48C40.15 55.84 39.41 56.3 38.75 56.87C38.21 57.33 37.71 57.82 37.24 58.34L36.67 58.98L36.37 59.32C35.18 60.72 33.08 60.9 31.68 59.71C30.61 58.8 30.22 57.32 30.71 56L30.82 55.68C30.92 55.37 31.04 55.07 31.17 54.77C31.65 53.68 32.26 52.66 33 51.73C34.75 49.42 37.21 47.74 40 46.94C40.57 46.79 41.15 46.68 41.74 46.6C42.04 46.6 42.48 46.51 42.61 46.51H43.37C44.51 46.53 45.64 46.69 46.74 46.98C47.79 47.27 48.8 47.69 49.74 48.23C51.29 49.13 52.65 50.34 53.74 51.77C54.16 52.31 54.54 52.87 54.87 53.47C55.14 53.94 55.38 54.42 55.59 54.91C55.67 55.07 55.74 55.24 55.79 55.41C55.79 55.54 55.87 55.65 55.9 55.74L56 56C56.57 57.77 55.6 59.67 53.83 60.24C52.49 60.66 51.02 60.2 50.15 59.1Z" fill="#42312C" style="fill:#42312C;fill:color(display-p3 0.2588 0.1922 0.1725);fill-opacity:1;"/>
<path d="M50.15 59.1L50 58.88L49.79 58.61C49.71 58.5 49.63 58.41 49.53 58.32L48.91 57.7C48.66 57.45 48.36 57.18 48.05 56.91C47.39 56.34 46.65 55.88 45.85 55.52C45.07 55.17 44.22 55 43.37 55H43C42.9 54.98 42.81 54.98 42.71 55C42.53 55.02 42.35 55.05 42.17 55.09C41.75 55.19 41.35 55.32 40.95 55.48C40.15 55.84 39.41 56.3 38.75 56.87C38.21 57.33 37.71 57.82 37.24 58.34L36.67 58.98L36.37 59.32C35.18 60.72 33.08 60.9 31.68 59.71C30.61 58.8 30.22 57.32 30.71 56L30.82 55.68C30.92 55.37 31.04 55.07 31.17 54.77C31.65 53.68 32.26 52.66 33 51.73C34.75 49.42 37.21 47.74 40 46.94C40.57 46.79 41.15 46.68 41.74 46.6C42.04 46.6 42.48 46.51 42.61 46.51H43.37C44.51 46.53 45.64 46.69 46.74 46.98C47.79 47.27 48.8 47.69 49.74 48.23C51.29 49.13 52.65 50.34 53.74 51.77C54.16 52.31 54.54 52.87 54.87 53.47C55.14 53.94 55.38 54.42 55.59 54.91C55.67 55.07 55.74 55.24 55.79 55.41C55.79 55.54 55.87 55.65 55.9 55.74L56 56C56.57 57.77 55.6 59.67 53.83 60.24C52.49 60.66 51.02 60.2 50.15 59.1Z" fill="#42312C" style="fill:#42312C;fill:color(display-p3 0.2588 0.1922 0.1725);fill-opacity:1;"/>
<path d="M93.48 59.1L93.3 58.88L93.09 58.61C93.01 58.5 92.93 58.41 92.83 58.32L92.21 57.7C91.96 57.45 91.66 57.18 91.35 56.91C90.69 56.34 89.95 55.88 89.15 55.52C88.38 55.18 87.54 55 86.7 55H86.29C86.19 54.98 86.1 54.98 86 55C85.82 55.02 85.64 55.05 85.46 55.09C85.04 55.19 84.64 55.32 84.24 55.48C83.43 55.85 82.67 56.33 82 56.91C81.46 57.37 80.96 57.86 80.48 58.38L80 59L79.7 59.34C78.58 60.8 76.49 61.07 75.03 59.94C73.83 59.02 73.4 57.4 74 56L74.11 55.68C74.21 55.37 74.33 55.07 74.46 54.77C74.93 53.67 75.55 52.64 76.28 51.69C78.03 49.38 80.49 47.7 83.28 46.9C83.85 46.75 84.43 46.64 85.02 46.56C85.32 46.56 85.75 46.47 85.89 46.47H86.65C87.79 46.49 88.92 46.65 90.02 46.94C91.07 47.23 92.08 47.65 93.02 48.19C94.57 49.09 95.93 50.3 97.02 51.73C97.44 52.27 97.82 52.83 98.15 53.43C98.42 53.9 98.66 54.38 98.87 54.87C98.95 55.03 99.02 55.2 99.07 55.37L99.18 55.7L99.27 55.97C99.84 57.74 98.87 59.63 97.1 60.2C95.77 60.63 94.32 60.19 93.45 59.1H93.48Z" fill="#42312C" style="fill:#42312C;fill:color(display-p3 0.2588 0.1922 0.1725);fill-opacity:1;"/>
<path d="M93.48 59.1L93.3 58.88L93.09 58.61C93.01 58.5 92.93 58.41 92.83 58.32L92.21 57.7C91.96 57.45 91.66 57.18 91.35 56.91C90.69 56.34 89.95 55.88 89.15 55.52C88.38 55.18 87.54 55 86.7 55H86.29C86.19 54.98 86.1 54.98 86 55C85.82 55.02 85.64 55.05 85.46 55.09C85.04 55.19 84.64 55.32 84.24 55.48C83.43 55.85 82.67 56.33 82 56.91C81.46 57.37 80.96 57.86 80.48 58.38L80 59L79.7 59.34C78.58 60.8 76.49 61.07 75.03 59.94C73.83 59.02 73.4 57.4 74 56L74.11 55.68C74.21 55.37 74.33 55.07 74.46 54.77C74.93 53.67 75.55 52.64 76.28 51.69C78.03 49.38 80.49 47.7 83.28 46.9C83.85 46.75 84.43 46.64 85.02 46.56C85.32 46.56 85.75 46.47 85.89 46.47H86.65C87.79 46.49 88.92 46.65 90.02 46.94C91.07 47.23 92.08 47.65 93.02 48.19C94.57 49.09 95.93 50.3 97.02 51.73C97.44 52.27 97.82 52.83 98.15 53.43C98.42 53.9 98.66 54.38 98.87 54.87C98.95 55.03 99.02 55.2 99.07 55.37L99.18 55.7L99.27 55.97C99.84 57.74 98.87 59.63 97.1 60.2C95.77 60.63 94.32 60.19 93.45 59.1H93.48Z" fill="#42312C" style="fill:#42312C;fill:color(display-p3 0.2588 0.1922 0.1725);fill-opacity:1;"/>
<path d="M72.8599 84.93C74.5699 83.42 75.6399 81.33 75.8599 79.06C76.0499 75.46 75.1299 74.22 73.9499 72.65C71.2399 69 63.5499 69.87 63.5499 69.87C61.5499 69.95 59.1099 70.93 59.3999 73.31C59.7899 74.66 60.8899 75.69 62.2699 76C65.2699 76.73 69.6399 76 69.7599 79.09C69.8999 82.55 64.5799 81.09 64.1599 84.79C63.7399 88.49 69.7599 87.98 69.7599 90.5C69.7599 92.43 67.7599 92.76 65.6899 93.2C63.8999 93.57 60.4599 94.13 60.1799 96.2C59.8999 98.27 61.0899 100.77 65.9299 100.04C73.5399 98.89 76.0999 94.72 76.0999 92.16C76.1499 89.39 74.9599 86.74 72.8599 84.93Z" fill="#42312C" style="fill:#42312C;fill:color(display-p3 0.2588 0.1922 0.1725);fill-opacity:1;"/>
<path d="M72.8599 84.93C74.5699 83.42 75.6399 81.33 75.8599 79.06C76.0499 75.46 75.1299 74.22 73.9499 72.65C71.2399 69 63.5499 69.87 63.5499 69.87C61.5499 69.95 59.1099 70.93 59.3999 73.31C59.7899 74.66 60.8899 75.69 62.2699 76C65.2699 76.73 69.6399 76 69.7599 79.09C69.8999 82.55 64.5799 81.09 64.1599 84.79C63.7399 88.49 69.7599 87.98 69.7599 90.5C69.7599 92.43 67.7599 92.76 65.6899 93.2C63.8999 93.57 60.4599 94.13 60.1799 96.2C59.8999 98.27 61.0899 100.77 65.9299 100.04C73.5399 98.89 76.0999 94.72 76.0999 92.16C76.1499 89.39 74.9599 86.74 72.8599 84.93Z" fill="#42312C" style="fill:#42312C;fill:color(display-p3 0.2588 0.1922 0.1725);fill-opacity:1;"/>
<path d="M47.18 32.61C49.49 32.61 50.18 29.48 47.71 28.96C45.79 28.6 43.82 28.54 41.88 28.79C36.63 29.38 31.8 31.96 28.38 36C26.81 37.92 29.38 39.94 31.07 38.51C35.63 34.8 41.3 32.72 47.18 32.61Z" fill="#42312C" style="fill:#42312C;fill:color(display-p3 0.2588 0.1922 0.1725);fill-opacity:1;"/>
<path d="M47.18 32.61C49.49 32.61 50.18 29.48 47.71 28.96C45.79 28.6 43.82 28.54 41.88 28.79C36.63 29.38 31.8 31.96 28.38 36C26.81 37.92 29.38 39.94 31.07 38.51C35.63 34.8 41.3 32.72 47.18 32.61Z" fill="#42312C" style="fill:#42312C;fill:color(display-p3 0.2588 0.1922 0.1725);fill-opacity:1;"/>
<path d="M80 33.29C77.71 33.55 76.73 30.47 79.11 29.71C81 29.17 82.97 28.93 84.94 29C90.23 29.07 95.29 31.17 99.08 34.86C100.83 36.62 98.48 38.86 96.65 37.62C91.74 34.35 85.88 32.82 80 33.29Z" fill="#42312C" style="fill:#42312C;fill:color(display-p3 0.2588 0.1922 0.1725);fill-opacity:1;"/>
<path d="M80 33.29C77.71 33.55 76.73 30.47 79.11 29.71C81 29.17 82.97 28.93 84.94 29C90.23 29.07 95.29 31.17 99.08 34.86C100.83 36.62 98.48 38.86 96.65 37.62C91.74 34.35 85.88 32.82 80 33.29Z" fill="#42312C" style="fill:#42312C;fill:color(display-p3 0.2588 0.1922 0.1725);fill-opacity:1;"/>
<path d="M111.49 29.67C116.82 38.27 119.6 48.51 119.6 59.9C119.6 76.8 113.5 91.1 102 101.3C91.4 110.6 77 115.8 61.6 115.8C43.54 115.8 24.6 108.45 13.42 92.86C24.18 110.52 44.42 118.8 63.6 118.8C79 118.8 93.4 113.6 104 104.3C115.5 94.1 121.6 79.8 121.6 62.9C121.6 50.16 118.13 38.84 111.49 29.67Z" fill="#EB8F00" style="fill:#EB8F00;fill:color(display-p3 0.9216 0.5608 0.0000);fill-opacity:1;"/>
<path d="M111.49 29.67C116.82 38.27 119.6 48.51 119.6 59.9C119.6 76.8 113.5 91.1 102 101.3C91.4 110.6 77 115.8 61.6 115.8C43.54 115.8 24.6 108.45 13.42 92.86C24.18 110.52 44.42 118.8 63.6 118.8C79 118.8 93.4 113.6 104 104.3C115.5 94.1 121.6 79.8 121.6 62.9C121.6 50.16 118.13 38.84 111.49 29.67Z" fill="#F3B872" style="fill:#F3B872;fill:color(display-p3 0.9542 0.7229 0.4453);fill-opacity:1;"/>
<path d="M111.49 29.67C116.82 38.27 119.6 48.51 119.6 59.9C119.6 76.8 113.5 91.1 102 101.3C91.4 110.6 77 115.8 61.6 115.8C43.54 115.8 24.6 108.45 13.42 92.86C24.18 110.52 44.42 118.8 63.6 118.8C79 118.8 93.4 113.6 104 104.3C115.5 94.1 121.6 79.8 121.6 62.9C121.6 50.16 118.13 38.84 111.49 29.67Z" fill="#4A2F27" style="fill:#4A2F27;fill:color(display-p3 0.2902 0.1843 0.1529);fill-opacity:1;"/>
<path opacity="0.5" d="M100.63 91.66C110.295 91.66 118.13 83.825 118.13 74.16C118.13 64.495 110.295 56.66 100.63 56.66C90.965 56.66 83.13 64.495 83.13 74.16C83.13 83.825 90.965 91.66 100.63 91.66Z" fill="url(#paint5_radial_169_10671)" style=""/>
<defs>
<radialGradient id="paint0_radial_169_10671" cx="0" cy="0" r="1" gradientUnits="userSpaceOnUse" gradientTransform="translate(63.6 62.9) scale(56.9597 56.9597)">
<stop offset="0.5" stop-color="#FDE030" style="stop-color:#FDE030;stop-color:color(display-p3 0.9922 0.8784 0.1882);stop-opacity:1;"/>
<stop offset="0.92" stop-color="#F7C02B" style="stop-color:#F7C02B;stop-color:color(display-p3 0.9686 0.7529 0.1686);stop-opacity:1;"/>
<stop offset="1" stop-color="#F4A223" style="stop-color:#F4A223;stop-color:color(display-p3 0.9569 0.6353 0.1373);stop-opacity:1;"/>
</radialGradient>
<radialGradient id="paint1_radial_169_10671" cx="0" cy="0" r="1" gradientUnits="userSpaceOnUse" gradientTransform="translate(38.599 34.5377) rotate(-43.2082) scale(102.024 101.825)">
<stop offset="0.3533" stop-color="#F9DDBD" style="stop-color:#F9DDBD;stop-color:color(display-p3 0.9765 0.8667 0.7412);stop-opacity:1;"/>
<stop offset="0.8723" stop-color="#FFD29C" style="stop-color:#FFD29C;stop-color:color(display-p3 1.0000 0.8235 0.6118);stop-opacity:1;"/>
</radialGradient>
<radialGradient id="paint2_radial_169_10671" cx="0" cy="0" r="1" gradientUnits="userSpaceOnUse" gradientTransform="translate(38.599 34.5377) rotate(-43.2082) scale(102.024 101.825)">
<stop offset="0.3533" stop-color="#70534A" style="stop-color:#70534A;stop-color:color(display-p3 0.4392 0.3255 0.2902);stop-opacity:1;"/>
<stop offset="0.8723" stop-color="#5C4037" style="stop-color:#5C4037;stop-color:color(display-p3 0.3608 0.2510 0.2157);stop-opacity:1;"/>
</radialGradient>
<radialGradient id="paint3_radial_169_10671" cx="0" cy="0" r="1" gradientUnits="userSpaceOnUse" gradientTransform="translate(38.599 34.5377) rotate(-43.2082) scale(102.024 101.825)">
<stop offset="0.3533" stop-color="#A56C43" style="stop-color:#A56C43;stop-color:color(display-p3 0.6471 0.4235 0.2627);stop-opacity:1;"/>
<stop offset="0.8723" stop-color="#8D5738" style="stop-color:#8D5738;stop-color:color(display-p3 0.5529 0.3412 0.2196);stop-opacity:1;"/>
</radialGradient>
<radialGradient id="paint4_radial_169_10671" cx="0" cy="0" r="1" gradientUnits="userSpaceOnUse" gradientTransform="translate(27.25 74.1222) scale(19.0628 18.0902)">
<stop stop-color="#ED7770" style="stop-color:#ED7770;stop-color:color(display-p3 0.9294 0.4667 0.4392);stop-opacity:1;"/>
<stop offset="0.08" stop-color="#ED7770" stop-opacity="0.96" style="stop-color:#ED7770;stop-color:color(display-p3 0.9294 0.4667 0.4392);stop-opacity:0.96;"/>
<stop offset="0.22" stop-color="#ED7770" stop-opacity="0.85" style="stop-color:#ED7770;stop-color:color(display-p3 0.9294 0.4667 0.4392);stop-opacity:0.85;"/>
<stop offset="0.39" stop-color="#ED7770" stop-opacity="0.68" style="stop-color:#ED7770;stop-color:color(display-p3 0.9294 0.4667 0.4392);stop-opacity:0.68;"/>
<stop offset="0.59" stop-color="#ED7770" stop-opacity="0.43" style="stop-color:#ED7770;stop-color:color(display-p3 0.9294 0.4667 0.4392);stop-opacity:0.43;"/>
<stop offset="0.81" stop-color="#ED7770" stop-opacity="0.13" style="stop-color:#ED7770;stop-color:color(display-p3 0.9294 0.4667 0.4392);stop-opacity:0.13;"/>
<stop offset="0.9" stop-color="#ED7770" stop-opacity="0" style="stop-color:none;stop-opacity:0;"/>
</radialGradient>
<radialGradient id="paint5_radial_169_10671" cx="0" cy="0" r="1" gradientUnits="userSpaceOnUse" gradientTransform="translate(100.635 74.1222) scale(19.0628 18.0902)">
<stop stop-color="#ED7770" style="stop-color:#ED7770;stop-color:color(display-p3 0.9294 0.4667 0.4392);stop-opacity:1;"/>
<stop offset="0.08" stop-color="#ED7770" stop-opacity="0.96" style="stop-color:#ED7770;stop-color:color(display-p3 0.9294 0.4667 0.4392);stop-opacity:0.96;"/>
<stop offset="0.22" stop-color="#ED7770" stop-opacity="0.85" style="stop-color:#ED7770;stop-color:color(display-p3 0.9294 0.4667 0.4392);stop-opacity:0.85;"/>
<stop offset="0.39" stop-color="#ED7770" stop-opacity="0.68" style="stop-color:#ED7770;stop-color:color(display-p3 0.9294 0.4667 0.4392);stop-opacity:0.68;"/>
<stop offset="0.59" stop-color="#ED7770" stop-opacity="0.43" style="stop-color:#ED7770;stop-color:color(display-p3 0.9294 0.4667 0.4392);stop-opacity:0.43;"/>
<stop offset="0.81" stop-color="#ED7770" stop-opacity="0.13" style="stop-color:#ED7770;stop-color:color(display-p3 0.9294 0.4667 0.4392);stop-opacity:0.13;"/>
<stop offset="0.9" stop-color="#ED7770" stop-opacity="0" style="stop-color:none;stop-opacity:0;"/>
</radialGradient>
</defs>
</svg>
