<svg width="128" height="128" viewBox="0 0 128 128" fill="none" xmlns="http://www.w3.org/2000/svg">
<path d="M63.6001 118.8C35.7001 118.8 5.6001 101.3 5.6001 62.9C5.6001 24.5 35.7001 7 63.6001 7C79.1001 7 93.4001 12.1 104 21.4C115.5 31.6 121.6 46 121.6 62.9C121.6 79.8 115.5 94.1 104 104.3C93.4001 113.6 79.0001 118.8 63.6001 118.8Z" fill="url(#paint0_radial_169_9446)" style=""/>
<path d="M63.6001 118.8C35.7001 118.8 5.6001 101.3 5.6001 62.9C5.6001 24.5 35.7001 7 63.6001 7C79.1001 7 93.4001 12.1 104 21.4C115.5 31.6 121.6 46 121.6 62.9C121.6 79.8 115.5 94.1 104 104.3C93.4001 113.6 79.0001 118.8 63.6001 118.8Z" fill="url(#paint1_radial_169_9446)" style=""/>
<path d="M63.6001 118.8C35.7001 118.8 5.6001 101.3 5.6001 62.9C5.6001 24.5 35.7001 7 63.6001 7C79.1001 7 93.4001 12.1 104 21.4C115.5 31.6 121.6 46 121.6 62.9C121.6 79.8 115.5 94.1 104 104.3C93.4001 113.6 79.0001 118.8 63.6001 118.8Z" fill="url(#paint2_radial_169_9446)" style=""/>
<path d="M111.49 29.67C116.82 38.27 119.6 48.51 119.6 59.9C119.6 76.8 113.5 91.1 102 101.3C91.4002 110.6 77.0002 115.8 61.6002 115.8C43.5402 115.8 24.6002 108.45 13.4202 92.86C24.1802 110.52 44.4202 118.8 63.6002 118.8C79.0002 118.8 93.4002 113.6 104 104.3C115.5 94.1 121.6 79.8 121.6 62.9C121.6 50.16 118.13 38.84 111.49 29.67Z" fill="#EB8F00" style="fill:#EB8F00;fill:color(display-p3 0.9216 0.5608 0.0000);fill-opacity:1;"/>
<path d="M111.49 29.67C116.82 38.27 119.6 48.51 119.6 59.9C119.6 76.8 113.5 91.1 102 101.3C91.4002 110.6 77.0002 115.8 61.6002 115.8C43.5402 115.8 24.6002 108.45 13.4202 92.86C24.1802 110.52 44.4202 118.8 63.6002 118.8C79.0002 118.8 93.4002 113.6 104 104.3C115.5 94.1 121.6 79.8 121.6 62.9C121.6 50.16 118.13 38.84 111.49 29.67Z" fill="#4A2F27" style="fill:#4A2F27;fill:color(display-p3 0.2902 0.1843 0.1529);fill-opacity:1;"/>
<path d="M38.77 91.57L44.9 97.3L54.4 88.1L64 97.3L73.5 88.1L83.1 97.3L89.33 91.47" fill="#1A1717" style="fill:#1A1717;fill:color(display-p3 0.1020 0.0902 0.0902);fill-opacity:1;"/>
<path d="M38.77 91.57L44.9 97.3L54.4 88.1L64 97.3L73.5 88.1L83.1 97.3L89.33 91.47" stroke="#1A1717" style="stroke:#1A1717;stroke:color(display-p3 0.1020 0.0902 0.0902);stroke-opacity:1;" stroke-width="8" stroke-linecap="round" stroke-linejoin="round"/>
<path d="M32.2 69.1L44.4 66.7L31.9 61.5C31.79 61.39 31.65 61.33 31.5 61.3C28.9 59.7 28.4 56.4 30.8 54.4C32.81 52.85 35.57 52.73 37.7 54.1C42.7 57.1 54.4 64.3 59 67.1C59.51 67.32 59.74 67.91 59.52 68.41C59.39 68.71 59.12 68.93 58.8 69L35.9 77.6C35.7 77.7 35.6 77.7 35.4 77.8C32.4 78.6 29.1 76.9 28.6 74C28.1 71.8 29.8 69.7 32.2 69.1Z" fill="#422B0D" style="fill:#422B0D;fill:color(display-p3 0.2588 0.1686 0.0510);fill-opacity:1;"/>
<path d="M32.2 69.1L44.4 66.7L31.9 61.5C31.79 61.39 31.65 61.33 31.5 61.3C28.9 59.7 28.4 56.4 30.8 54.4C32.81 52.85 35.57 52.73 37.7 54.1C42.7 57.1 54.4 64.3 59 67.1C59.51 67.32 59.74 67.91 59.52 68.41C59.39 68.71 59.12 68.93 58.8 69L35.9 77.6C35.7 77.7 35.6 77.7 35.4 77.8C32.4 78.6 29.1 76.9 28.6 74C28.1 71.8 29.8 69.7 32.2 69.1Z" fill="#1A1717" style="fill:#1A1717;fill:color(display-p3 0.1020 0.0902 0.0902);fill-opacity:1;"/>
<path d="M95.7999 68.8L83.5999 66.4L96.1999 61.2C96.3099 61.09 96.4499 61.03 96.5999 61C99.1999 59.4 99.6999 56.1 97.2999 54.1C95.2899 52.55 92.5299 52.43 90.3999 53.8C85.3999 56.8 73.6999 64 69.0999 66.8C68.5899 67.02 68.3599 67.61 68.5799 68.11C68.7099 68.41 68.9799 68.63 69.2999 68.7L92.1999 77.3C92.3999 77.4 92.4999 77.4 92.6999 77.5C95.6999 78.3 98.9999 76.6 99.4999 73.7C99.8999 71.5 98.1999 69.5 95.7999 68.8Z" fill="#422B0D" style="fill:#422B0D;fill:color(display-p3 0.2588 0.1686 0.0510);fill-opacity:1;"/>
<path d="M95.7999 68.8L83.5999 66.4L96.1999 61.2C96.3099 61.09 96.4499 61.03 96.5999 61C99.1999 59.4 99.6999 56.1 97.2999 54.1C95.2899 52.55 92.5299 52.43 90.3999 53.8C85.3999 56.8 73.6999 64 69.0999 66.8C68.5899 67.02 68.3599 67.61 68.5799 68.11C68.7099 68.41 68.9799 68.63 69.2999 68.7L92.1999 77.3C92.3999 77.4 92.4999 77.4 92.6999 77.5C95.6999 78.3 98.9999 76.6 99.4999 73.7C99.8999 71.5 98.1999 69.5 95.7999 68.8Z" fill="#1A1717" style="fill:#1A1717;fill:color(display-p3 0.1020 0.0902 0.0902);fill-opacity:1;"/>
<defs>
<radialGradient id="paint0_radial_169_9446" cx="0" cy="0" r="1" gradientUnits="userSpaceOnUse" gradientTransform="translate(63.6001 62.9) scale(56.9597 56.9597)">
<stop offset="0.5" stop-color="#FDE030" style="stop-color:#FDE030;stop-color:color(display-p3 0.9922 0.8784 0.1882);stop-opacity:1;"/>
<stop offset="0.92" stop-color="#F7C02B" style="stop-color:#F7C02B;stop-color:color(display-p3 0.9686 0.7529 0.1686);stop-opacity:1;"/>
<stop offset="1" stop-color="#F4A223" style="stop-color:#F4A223;stop-color:color(display-p3 0.9569 0.6353 0.1373);stop-opacity:1;"/>
</radialGradient>
<radialGradient id="paint1_radial_169_9446" cx="0" cy="0" r="1" gradientUnits="userSpaceOnUse" gradientTransform="translate(38.5991 34.5377) rotate(-43.2082) scale(102.024 101.825)">
<stop offset="0.3533" stop-color="#F9DDBD" style="stop-color:#F9DDBD;stop-color:color(display-p3 0.9765 0.8667 0.7412);stop-opacity:1;"/>
<stop offset="0.8723" stop-color="#FFD29C" style="stop-color:#FFD29C;stop-color:color(display-p3 1.0000 0.8235 0.6118);stop-opacity:1;"/>
</radialGradient>
<radialGradient id="paint2_radial_169_9446" cx="0" cy="0" r="1" gradientUnits="userSpaceOnUse" gradientTransform="translate(38.5991 34.5377) rotate(-43.2082) scale(102.024 101.825)">
<stop offset="0.3533" stop-color="#70534A" style="stop-color:#70534A;stop-color:color(display-p3 0.4392 0.3255 0.2902);stop-opacity:1;"/>
<stop offset="0.8723" stop-color="#5C4037" style="stop-color:#5C4037;stop-color:color(display-p3 0.3608 0.2510 0.2157);stop-opacity:1;"/>
</radialGradient>
</defs>
</svg>
