<svg width="128" height="128" viewBox="0 0 128 128" fill="none" xmlns="http://www.w3.org/2000/svg">
<path d="M63.6 118.8C35.7 118.8 5.59998 101.3 5.59998 62.9C5.59998 24.5 35.7 7 63.6 7C79.1 7 93.4 12.1 104 21.4C115.5 31.6 121.6 46 121.6 62.9C121.6 79.8 115.5 94.1 104 104.3C93.4 113.6 79 118.8 63.6 118.8Z" fill="url(#paint0_radial_169_11064)" style=""/>
<path d="M63.6 118.8C35.7 118.8 5.59998 101.3 5.59998 62.9C5.59998 24.5 35.7 7 63.6 7C79.1 7 93.4 12.1 104 21.4C115.5 31.6 121.6 46 121.6 62.9C121.6 79.8 115.5 94.1 104 104.3C93.4 113.6 79 118.8 63.6 118.8Z" fill="url(#paint1_radial_169_11064)" style=""/>
<path d="M63.6 118.8C35.7 118.8 5.59998 101.3 5.59998 62.9C5.59998 24.5 35.7 7 63.6 7C79.1 7 93.4 12.1 104 21.4C115.5 31.6 121.6 46 121.6 62.9C121.6 79.8 115.5 94.1 104 104.3C93.4 113.6 79 118.8 63.6 118.8Z" fill="url(#paint2_radial_169_11064)" style=""/>
<path d="M63.6 118.8C35.7 118.8 5.59998 101.3 5.59998 62.9C5.59998 24.5 35.7 7 63.6 7C79.1 7 93.4 12.1 104 21.4C115.5 31.6 121.6 46 121.6 62.9C121.6 79.8 115.5 94.1 104 104.3C93.4 113.6 79 118.8 63.6 118.8Z" fill="url(#paint3_radial_169_11064)" style=""/>
<path d="M111.49 29.67C116.82 38.27 119.6 48.51 119.6 59.9C119.6 76.8 113.5 91.1 102 101.3C91.4 110.6 77 115.8 61.6 115.8C43.54 115.8 24.6 108.45 13.42 92.86C24.18 110.52 44.42 118.8 63.6 118.8C79 118.8 93.4 113.6 104 104.3C115.5 94.1 121.6 79.8 121.6 62.9C121.6 50.16 118.13 38.84 111.49 29.67Z" fill="#EB8F00" style="fill:#EB8F00;fill:color(display-p3 0.9216 0.5608 0.0000);fill-opacity:1;"/>
<path d="M111.49 29.67C116.82 38.27 119.6 48.51 119.6 59.9C119.6 76.8 113.5 91.1 102 101.3C91.4 110.6 77 115.8 61.6 115.8C43.54 115.8 24.6 108.45 13.42 92.86C24.18 110.52 44.42 118.8 63.6 118.8C79 118.8 93.4 113.6 104 104.3C115.5 94.1 121.6 79.8 121.6 62.9C121.6 50.16 118.13 38.84 111.49 29.67Z" fill="#F3B872" style="fill:#F3B872;fill:color(display-p3 0.9542 0.7229 0.4453);fill-opacity:1;"/>
<path d="M111.49 29.67C116.82 38.27 119.6 48.51 119.6 59.9C119.6 76.8 113.5 91.1 102 101.3C91.4 110.6 77 115.8 61.6 115.8C43.54 115.8 24.6 108.45 13.42 92.86C24.18 110.52 44.42 118.8 63.6 118.8C79 118.8 93.4 113.6 104 104.3C115.5 94.1 121.6 79.8 121.6 62.9C121.6 50.16 118.13 38.84 111.49 29.67Z" fill="#4A2F27" style="fill:#4A2F27;fill:color(display-p3 0.2902 0.1843 0.1529);fill-opacity:1;"/>
<path d="M101.7 72.21C100.3 69.69 97.26 68.58 94.56 69.61C85.56 72.41 74.56 73.44 63.48 73.45C52.79 73.49 42.15 72 31.89 69C29.19 67.97 26.15 69.08 24.75 71.6C23.39 74.11 24.38 77.02 25.52 79.53C32 93.65 46.1 102.09 63.4 102.14H63.56C80.86 102.14 94.5 94.24 100.93 80.14C102.07 77.63 103.06 74.72 101.7 72.21Z" fill="white" style="fill:white;fill-opacity:1;"/>
<path d="M49 56.89L48.85 56.69L48.42 56.14L47.89 55.57C47.67 55.32 47.41 55.08 47.16 54.82C46.91 54.56 46.6 54.31 46.32 54.1C46.06 53.9 45.78 53.71 45.48 53.56C45.28 53.45 45.06 53.36 44.83 53.31C44.76 53.3 44.69 53.3 44.62 53.31C44.62 53.31 44.56 53.31 44.53 53.31H44.45C44.57 53.31 44.18 53.31 44.72 53.31H44.17C44.02 53.31 44.12 53.31 44.17 53.31H44.25C44.25 53.31 44.33 53.31 44.25 53.31H44.14C43.91 53.36 43.69 53.44 43.48 53.56C43.19 53.72 42.9 53.9 42.64 54.1C42.35 54.32 42.07 54.56 41.81 54.82C41.28 55.33 40.81 55.82 40.51 56.21L39.99 56.81L39.76 57.08C38.32 58.69 35.89 58.95 34.14 57.69C33.02 56.91 32.45 55.56 32.67 54.21C32.67 54.21 32.74 53.81 32.93 53.1C33.23 52.09 33.65 51.11 34.18 50.19C35.03 48.69 36.18 47.38 37.56 46.34C38.47 45.64 39.48 45.08 40.56 44.69C40.86 44.57 41.17 44.48 41.48 44.4C41.81 44.3 42.14 44.23 42.48 44.17L43.09 44.08L43.6 44.02H44.15H44.94H45.45C45.79 44.02 46.12 44.11 46.45 44.16C47.09 44.27 47.73 44.44 48.34 44.67C49.42 45.06 50.43 45.62 51.34 46.32C52.72 47.36 53.87 48.67 54.72 50.17C55.03 50.69 55.3 51.24 55.52 51.8C55.71 52.25 55.87 52.7 56 53.17C56.07 53.41 56.13 53.65 56.16 53.89V54.14C56.46 56.18 55.04 58.08 53 58.38C52.95 58.39 52.9 58.39 52.85 58.4C51.39 58.61 49.93 58.03 49 56.89Z" fill="#42312C" style="fill:#42312C;fill:color(display-p3 0.2588 0.1922 0.1725);fill-opacity:1;"/>
<path d="M49 56.89L48.85 56.69L48.42 56.14L47.89 55.57C47.67 55.32 47.41 55.08 47.16 54.82C46.91 54.56 46.6 54.31 46.32 54.1C46.06 53.9 45.78 53.71 45.48 53.56C45.28 53.45 45.06 53.36 44.83 53.31C44.76 53.3 44.69 53.3 44.62 53.31C44.62 53.31 44.56 53.31 44.53 53.31H44.45C44.57 53.31 44.18 53.31 44.72 53.31H44.17C44.02 53.31 44.12 53.31 44.17 53.31H44.25C44.25 53.31 44.33 53.31 44.25 53.31H44.14C43.91 53.36 43.69 53.44 43.48 53.56C43.19 53.72 42.9 53.9 42.64 54.1C42.35 54.32 42.07 54.56 41.81 54.82C41.28 55.33 40.81 55.82 40.51 56.21L39.99 56.81L39.76 57.08C38.32 58.69 35.89 58.95 34.14 57.69C33.02 56.91 32.45 55.56 32.67 54.21C32.67 54.21 32.74 53.81 32.93 53.1C33.23 52.09 33.65 51.11 34.18 50.19C35.03 48.69 36.18 47.38 37.56 46.34C38.47 45.64 39.48 45.08 40.56 44.69C40.86 44.57 41.17 44.48 41.48 44.4C41.81 44.3 42.14 44.23 42.48 44.17L43.09 44.08L43.6 44.02H44.15H44.94H45.45C45.79 44.02 46.12 44.11 46.45 44.16C47.09 44.27 47.73 44.44 48.34 44.67C49.42 45.06 50.43 45.62 51.34 46.32C52.72 47.36 53.87 48.67 54.72 50.17C55.03 50.69 55.3 51.24 55.52 51.8C55.71 52.25 55.87 52.7 56 53.17C56.07 53.41 56.13 53.65 56.16 53.89V54.14C56.46 56.18 55.04 58.08 53 58.38C52.95 58.39 52.9 58.39 52.85 58.4C51.39 58.61 49.93 58.03 49 56.89Z" fill="#42312C" style="fill:#42312C;fill:color(display-p3 0.2588 0.1922 0.1725);fill-opacity:1;"/>
<path d="M88.46 56.89L88.3 56.69L87.87 56.14L87.34 55.57C87.12 55.32 86.86 55.08 86.61 54.82C86.36 54.56 86.05 54.31 85.77 54.1C85.51 53.9 85.23 53.71 84.93 53.56C84.73 53.45 84.51 53.36 84.28 53.31C84.21 53.3 84.14 53.3 84.07 53.31C84.07 53.31 84.01 53.31 83.98 53.31H83.9C84.02 53.31 83.63 53.31 84.17 53.31H83.62C83.47 53.31 83.57 53.31 83.62 53.31H83.7C83.7 53.31 83.78 53.31 83.7 53.31H83.59C83.36 53.36 83.14 53.44 82.93 53.56C82.64 53.71 82.36 53.9 82.1 54.1C81.8 54.32 81.52 54.56 81.26 54.82C80.73 55.33 80.26 55.82 79.96 56.21L79.44 56.81L79.22 57.08C77.77 58.69 75.35 58.95 73.59 57.69C72.47 56.91 71.9 55.56 72.12 54.21C72.12 54.21 72.19 53.81 72.39 53.1C72.69 52.08 73.1 51.1 73.64 50.19C74.49 48.69 75.63 47.38 77.01 46.34C77.92 45.64 78.93 45.08 80.01 44.69C80.31 44.57 80.62 44.48 80.93 44.4C81.26 44.3 81.59 44.23 81.93 44.17L82.55 44.08L83.05 44.02H83.6H84.39H84.9C85.24 44.02 85.57 44.11 85.9 44.16C86.55 44.27 87.18 44.44 87.79 44.67C88.87 45.06 89.88 45.62 90.79 46.32C92.17 47.36 93.32 48.67 94.17 50.17C94.48 50.69 94.75 51.24 94.97 51.8C95.16 52.24 95.32 52.69 95.45 53.15C95.52 53.39 95.58 53.63 95.61 53.87V54.12C95.93 56.16 94.53 58.07 92.49 58.39C92.46 58.39 92.43 58.4 92.4 58.4C90.91 58.65 89.4 58.07 88.46 56.89Z" fill="#42312C" style="fill:#42312C;fill:color(display-p3 0.2588 0.1922 0.1725);fill-opacity:1;"/>
<path d="M88.46 56.89L88.3 56.69L87.87 56.14L87.34 55.57C87.12 55.32 86.86 55.08 86.61 54.82C86.36 54.56 86.05 54.31 85.77 54.1C85.51 53.9 85.23 53.71 84.93 53.56C84.73 53.45 84.51 53.36 84.28 53.31C84.21 53.3 84.14 53.3 84.07 53.31C84.07 53.31 84.01 53.31 83.98 53.31H83.9C84.02 53.31 83.63 53.31 84.17 53.31H83.62C83.47 53.31 83.57 53.31 83.62 53.31H83.7C83.7 53.31 83.78 53.31 83.7 53.31H83.59C83.36 53.36 83.14 53.44 82.93 53.56C82.64 53.71 82.36 53.9 82.1 54.1C81.8 54.32 81.52 54.56 81.26 54.82C80.73 55.33 80.26 55.82 79.96 56.21L79.44 56.81L79.22 57.08C77.77 58.69 75.35 58.95 73.59 57.69C72.47 56.91 71.9 55.56 72.12 54.21C72.12 54.21 72.19 53.81 72.39 53.1C72.69 52.08 73.1 51.1 73.64 50.19C74.49 48.69 75.63 47.38 77.01 46.34C77.92 45.64 78.93 45.08 80.01 44.69C80.31 44.57 80.62 44.48 80.93 44.4C81.26 44.3 81.59 44.23 81.93 44.17L82.55 44.08L83.05 44.02H83.6H84.39H84.9C85.24 44.02 85.57 44.11 85.9 44.16C86.55 44.27 87.18 44.44 87.79 44.67C88.87 45.06 89.88 45.62 90.79 46.32C92.17 47.36 93.32 48.67 94.17 50.17C94.48 50.69 94.75 51.24 94.97 51.8C95.16 52.24 95.32 52.69 95.45 53.15C95.52 53.39 95.58 53.63 95.61 53.87V54.12C95.93 56.16 94.53 58.07 92.49 58.39C92.46 58.39 92.43 58.4 92.4 58.4C90.91 58.65 89.4 58.07 88.46 56.89Z" fill="#42312C" style="fill:#42312C;fill:color(display-p3 0.2588 0.1922 0.1725);fill-opacity:1;"/>
<path d="M100.89 75.83C100.8 75.89 94.69 80.46 83.2 83.42V72.12C81.89 72.32 80.55 72.49 79.2 72.64V84.32C74.55 85.24 69.82 85.75 65.08 85.85V73.43H63.5C62.69 73.43 61.89 73.43 61.08 73.43V85.85C61.51 85.86 61.51 85.87 61.08 85.87L61.06 85.85C56.43 85.77 51.82 85.33 47.26 84.52V72.33C45.9 72.15 44.57 71.94 43.26 71.71V83.68C31.44 80.87 25.5 76.38 25.42 76.31C25.09 76.05 24.68 75.9 24.26 75.89C24.54 77.15 24.96 78.38 25.52 79.55C25.87 80.32 26.25 81.06 26.65 81.8C31.88 84.57 37.47 86.59 43.26 87.8V87.82V97.66C44.56 98.29 45.9 98.86 47.26 99.35V88.6C51.82 89.36 56.44 89.78 61.06 89.85L61.08 89.87C61.07 89.87 61.07 89.87 61.06 89.87V102.08C61.83 102.08 62.61 102.16 63.4 102.16H63.56C64.07 102.16 64.56 102.16 65.06 102.16V89.85H65H65.06C69.8 89.76 74.53 89.28 79.2 88.42V99.63C80.56 99.17 81.9 98.63 83.2 98.02V87.57C89.3 86.17 95.17 83.88 100.61 80.78C100.71 80.56 100.83 80.36 100.93 80.14C101.66 78.66 102.14 77.07 102.33 75.43C101.82 75.37 101.3 75.52 100.89 75.83Z" fill="#B3B3B3" style="fill:#B3B3B3;fill:color(display-p3 0.7020 0.7020 0.7020);fill-opacity:1;"/>
<path d="M102.11 71.63C100.69 69.1 97.64 67.98 94.92 69C84.66 71.99 74.02 73.48 63.34 73.43C52.65 73.48 42.01 71.99 31.75 69C29.06 67.98 26.02 69.08 24.62 71.6C23.26 74.11 24.24 77.02 25.39 79.53C25.9 80.66 26.47 81.77 27.1 82.84C27.1 82.84 25 75.06 26.82 72.8C27.44 71.84 28.48 71.24 29.62 71.18C30.09 71.18 30.55 71.26 31 71.4C41.44 74.47 52.27 76.02 63.16 76H63.51C74.4 76.02 85.23 74.47 95.67 71.4C96.12 71.26 96.58 71.18 97.05 71.18C98.19 71.24 99.24 71.84 99.86 72.8C101.71 75.06 99.58 82.87 99.58 82.87C100.2 81.8 100.82 80.7 101.34 79.56C102.48 77.05 103.47 74.15 102.11 71.63Z" fill="#EB8F00" style="fill:#EB8F00;fill:color(display-p3 0.9216 0.5608 0.0000);fill-opacity:1;"/>
<path d="M102.11 71.63C100.69 69.1 97.64 67.98 94.92 69C84.66 71.99 74.02 73.48 63.34 73.43C52.65 73.48 42.01 71.99 31.75 69C29.06 67.98 26.02 69.08 24.62 71.6C23.26 74.11 24.24 77.02 25.39 79.53C25.9 80.66 26.47 81.77 27.1 82.84C27.1 82.84 25 75.06 26.82 72.8C27.44 71.84 28.48 71.24 29.62 71.18C30.09 71.18 30.55 71.26 31 71.4C41.44 74.47 52.27 76.02 63.16 76H63.51C74.4 76.02 85.23 74.47 95.67 71.4C96.12 71.26 96.58 71.18 97.05 71.18C98.19 71.24 99.24 71.84 99.86 72.8C101.71 75.06 99.58 82.87 99.58 82.87C100.2 81.8 100.82 80.7 101.34 79.56C102.48 77.05 103.47 74.15 102.11 71.63Z" fill="#F3B872" style="fill:#F3B872;fill:color(display-p3 0.9542 0.7229 0.4453);fill-opacity:1;"/>
<path d="M102.11 71.63C100.69 69.1 97.64 67.98 94.92 69C84.66 71.99 74.02 73.48 63.34 73.43C52.65 73.48 42.01 71.99 31.75 69C29.06 67.98 26.02 69.08 24.62 71.6C23.26 74.11 24.24 77.02 25.39 79.53C25.9 80.66 26.47 81.77 27.1 82.84C27.1 82.84 25 75.06 26.82 72.8C27.44 71.84 28.48 71.24 29.62 71.18C30.09 71.18 30.55 71.26 31 71.4C41.44 74.47 52.27 76.02 63.16 76H63.51C74.4 76.02 85.23 74.47 95.67 71.4C96.12 71.26 96.58 71.18 97.05 71.18C98.19 71.24 99.24 71.84 99.86 72.8C101.71 75.06 99.58 82.87 99.58 82.87C100.2 81.8 100.82 80.7 101.34 79.56C102.48 77.05 103.47 74.15 102.11 71.63Z" fill="#4A2F27" style="fill:#4A2F27;fill:color(display-p3 0.2902 0.1843 0.1529);fill-opacity:1;"/>
<defs>
<radialGradient id="paint0_radial_169_11064" cx="0" cy="0" r="1" gradientUnits="userSpaceOnUse" gradientTransform="translate(63.6 62.9) scale(56.9597 56.9597)">
<stop offset="0.5" stop-color="#FDE030" style="stop-color:#FDE030;stop-color:color(display-p3 0.9922 0.8784 0.1882);stop-opacity:1;"/>
<stop offset="0.92" stop-color="#F7C02B" style="stop-color:#F7C02B;stop-color:color(display-p3 0.9686 0.7529 0.1686);stop-opacity:1;"/>
<stop offset="1" stop-color="#F4A223" style="stop-color:#F4A223;stop-color:color(display-p3 0.9569 0.6353 0.1373);stop-opacity:1;"/>
</radialGradient>
<radialGradient id="paint1_radial_169_11064" cx="0" cy="0" r="1" gradientUnits="userSpaceOnUse" gradientTransform="translate(38.599 34.5377) rotate(-43.2082) scale(102.024 101.825)">
<stop offset="0.3533" stop-color="#F9DDBD" style="stop-color:#F9DDBD;stop-color:color(display-p3 0.9765 0.8667 0.7412);stop-opacity:1;"/>
<stop offset="0.8723" stop-color="#FFD29C" style="stop-color:#FFD29C;stop-color:color(display-p3 1.0000 0.8235 0.6118);stop-opacity:1;"/>
</radialGradient>
<radialGradient id="paint2_radial_169_11064" cx="0" cy="0" r="1" gradientUnits="userSpaceOnUse" gradientTransform="translate(38.599 34.5377) rotate(-43.2082) scale(102.024 101.825)">
<stop offset="0.3533" stop-color="#70534A" style="stop-color:#70534A;stop-color:color(display-p3 0.4392 0.3255 0.2902);stop-opacity:1;"/>
<stop offset="0.8723" stop-color="#5C4037" style="stop-color:#5C4037;stop-color:color(display-p3 0.3608 0.2510 0.2157);stop-opacity:1;"/>
</radialGradient>
<radialGradient id="paint3_radial_169_11064" cx="0" cy="0" r="1" gradientUnits="userSpaceOnUse" gradientTransform="translate(38.599 34.5377) rotate(-43.2082) scale(102.024 101.825)">
<stop offset="0.3533" stop-color="#A56C43" style="stop-color:#A56C43;stop-color:color(display-p3 0.6471 0.4235 0.2627);stop-opacity:1;"/>
<stop offset="0.8723" stop-color="#8D5738" style="stop-color:#8D5738;stop-color:color(display-p3 0.5529 0.3412 0.2196);stop-opacity:1;"/>
</radialGradient>
</defs>
</svg>
