<svg width="128" height="128" viewBox="0 0 128 128" fill="none" xmlns="http://www.w3.org/2000/svg">
<path d="M63.6 118.8C35.7 118.8 5.59998 101.3 5.59998 62.9C5.59998 24.5 35.7 7 63.6 7C79.1 7 93.4 12.1 104 21.4C115.5 31.6 121.6 46 121.6 62.9C121.6 79.8 115.5 94.1 104 104.3C93.4 113.6 79 118.8 63.6 118.8Z" fill="url(#paint0_radial_169_11600)" style=""/>
<path d="M63.6 118.8C35.7 118.8 5.59998 101.3 5.59998 62.9C5.59998 24.5 35.7 7 63.6 7C79.1 7 93.4 12.1 104 21.4C115.5 31.6 121.6 46 121.6 62.9C121.6 79.8 115.5 94.1 104 104.3C93.4 113.6 79 118.8 63.6 118.8Z" fill="url(#paint1_radial_169_11600)" style=""/>
<path d="M63.6 118.8C35.7 118.8 5.59998 101.3 5.59998 62.9C5.59998 24.5 35.7 7 63.6 7C79.1 7 93.4 12.1 104 21.4C115.5 31.6 121.6 46 121.6 62.9C121.6 79.8 115.5 94.1 104 104.3C93.4 113.6 79 118.8 63.6 118.8Z" fill="url(#paint2_radial_169_11600)" style=""/>
<path d="M63.6 118.8C35.7 118.8 5.59998 101.3 5.59998 62.9C5.59998 24.5 35.7 7 63.6 7C79.1 7 93.4 12.1 104 21.4C115.5 31.6 121.6 46 121.6 62.9C121.6 79.8 115.5 94.1 104 104.3C93.4 113.6 79 118.8 63.6 118.8Z" fill="url(#paint3_radial_169_11600)" style=""/>
<path d="M111.49 29.67C116.82 38.27 119.6 48.51 119.6 59.9C119.6 76.8 113.5 91.1 102 101.3C91.3999 110.6 76.9999 115.8 61.5999 115.8C43.5399 115.8 24.5999 108.45 13.4199 92.86C24.1799 110.52 44.4199 118.8 63.5999 118.8C78.9999 118.8 93.3999 113.6 104 104.3C115.5 94.1 121.6 79.8 121.6 62.9C121.6 50.16 118.13 38.84 111.49 29.67Z" fill="#EB8F00" style="fill:#EB8F00;fill:color(display-p3 0.9216 0.5608 0.0000);fill-opacity:1;"/>
<path d="M111.49 29.67C116.82 38.27 119.6 48.51 119.6 59.9C119.6 76.8 113.5 91.1 102 101.3C91.3999 110.6 76.9999 115.8 61.5999 115.8C43.5399 115.8 24.5999 108.45 13.4199 92.86C24.1799 110.52 44.4199 118.8 63.5999 118.8C78.9999 118.8 93.3999 113.6 104 104.3C115.5 94.1 121.6 79.8 121.6 62.9C121.6 50.16 118.13 38.84 111.49 29.67Z" fill="#F3B872" style="fill:#F3B872;fill:color(display-p3 0.9542 0.7229 0.4453);fill-opacity:1;"/>
<path d="M111.49 29.67C116.82 38.27 119.6 48.51 119.6 59.9C119.6 76.8 113.5 91.1 102 101.3C91.3999 110.6 76.9999 115.8 61.5999 115.8C43.5399 115.8 24.5999 108.45 13.4199 92.86C24.1799 110.52 44.4199 118.8 63.5999 118.8C78.9999 118.8 93.3999 113.6 104 104.3C115.5 94.1 121.6 79.8 121.6 62.9C121.6 50.16 118.13 38.84 111.49 29.67Z" fill="#4A2F27" style="fill:#4A2F27;fill:color(display-p3 0.2902 0.1843 0.1529);fill-opacity:1;"/>
<path d="M28.19 91.17C23.89 93.34 19.11 94.39 14.29 94.23C15.87 97.08 17.93 99.64 20.38 101.79C23.21 101.88 26.03 101.32 28.61 100.15C33.13 98.17 35.54 87.54 28.19 91.17Z" fill="#EEEEEE" style="fill:#EEEEEE;fill:color(display-p3 0.9333 0.9333 0.9333);fill-opacity:1;"/>
<path d="M28.5 69.22C20.1 68.56 12.11 65.27 5.67999 59.82C5.40999 63.05 5.48999 66.3 5.90999 69.51C5.90999 69.51 12.43 77.62 28.24 78.51C40.29 79.2 40 70 28.5 69.22Z" fill="#EEEEEE" style="fill:#EEEEEE;fill:color(display-p3 0.9333 0.9333 0.9333);fill-opacity:1;"/>
<path d="M98.93 91.17C103.23 93.34 108.01 94.39 112.83 94.23C111.24 97.07 109.18 99.63 106.74 101.79C103.91 101.88 101.09 101.32 98.51 100.15C94 98.17 91.58 87.54 98.93 91.17Z" fill="#EEEEEE" style="fill:#EEEEEE;fill:color(display-p3 0.9333 0.9333 0.9333);fill-opacity:1;"/>
<path d="M98.62 69.22C107.02 68.56 115.01 65.27 121.44 59.82C121.71 63.05 121.63 66.3 121.21 69.51C121.21 69.51 114.69 77.62 98.88 78.51C86.83 79.2 87.13 70 98.62 69.22Z" fill="#EEEEEE" style="fill:#EEEEEE;fill:color(display-p3 0.9333 0.9333 0.9333);fill-opacity:1;"/>
<path d="M101 96.87V70.63C100.92 68.9 99.84 68.32 97.61 67.5C92.61 65.69 77.47 61.17 64.03 61.17C50.59 61.17 35.45 65.69 30.45 67.5C28.22 68.32 27.14 68.9 27.06 70.63V96.87C26.95 99.01 28.22 100.98 30.22 101.77C33.91 103.55 48.98 109.12 64.05 109.12C79.12 109.12 94.2 103.55 97.88 101.77C99.86 100.97 101.11 99 101 96.87Z" fill="#F5F5F5" style="fill:#F5F5F5;fill:color(display-p3 0.9608 0.9608 0.9608);fill-opacity:1;"/>
<path d="M30.3999 67.5C29.6799 67.62 29.0199 67.97 28.5199 68.5C28.0999 69 27.8599 69.62 27.8299 70.27C27.7999 70.98 27.8099 71.7 27.8799 72.41L27.9999 74.65C28.1899 77.65 28.3099 80.71 28.3399 83.75C28.3699 86.79 28.3399 89.83 28.1399 92.87C28.1399 93.64 28.0699 94.39 27.9899 95.18C27.8899 95.9 27.8399 96.63 27.8299 97.36C27.6599 98.81 28.1899 100.26 29.2599 101.26C28.4699 101.03 27.7799 100.52 27.3299 99.83C26.8599 99.13 26.5199 98.36 26.3299 97.54C26.1699 96.76 26.0599 95.97 25.9999 95.17C25.9199 94.44 25.8599 93.66 25.7799 92.91C25.4999 89.91 25.3599 86.83 25.3199 83.78C25.2799 80.73 25.3199 77.68 25.6399 74.62C25.7399 73.03 25.9799 71.45 26.3699 69.91C26.6599 69.05 27.2299 68.31 27.9999 67.83C28.7299 67.41 29.5899 67.29 30.3999 67.5Z" fill="#808080" style="fill:#808080;fill:color(display-p3 0.5020 0.5020 0.5020);fill-opacity:1;"/>
<path d="M97.4 67.5C98.21 67.29 99.07 67.41 99.79 67.83C100.55 68.32 101.12 69.05 101.4 69.91C101.79 71.45 102.03 73.03 102.13 74.62C102.41 77.68 102.47 80.73 102.45 83.78C102.43 86.83 102.27 89.87 101.99 92.91C101.91 93.66 101.86 94.44 101.77 95.17C101.7 95.97 101.59 96.76 101.43 97.54C101.23 98.36 100.89 99.13 100.43 99.83C99.98 100.52 99.29 101.03 98.5 101.26C99.57 100.26 100.1 98.81 99.93 97.36C99.92 96.63 99.87 95.9 99.77 95.18C99.7 94.39 99.67 93.64 99.62 92.87C99.43 89.87 99.39 86.79 99.42 83.75C99.45 80.71 99.57 77.67 99.76 74.65L99.9 72.39C99.94 71.68 99.94 70.96 99.9 70.25C99.87 69.6 99.63 68.98 99.21 68.48C98.73 67.97 98.09 67.62 97.4 67.5Z" fill="#808080" style="fill:#808080;fill:color(display-p3 0.5020 0.5020 0.5020);fill-opacity:1;"/>
<path d="M74.4 45.7C73.04 46.96 72.96 49.08 74.22 50.43C74.42 50.65 74.65 50.84 74.9 51C77.82 53.17 81.1 54.8 84.6 55.8C88.13 56.68 91.78 56.95 95.4 56.6C97.28 56.55 98.77 54.98 98.72 53.1C98.71 52.83 98.67 52.56 98.6 52.3C98.01 50.57 96.32 49.46 94.5 49.6C91.82 49.86 89.12 49.7 86.5 49.1C83.92 48.31 81.48 47.09 79.3 45.5C77.82 44.41 75.78 44.49 74.4 45.7Z" fill="#42312C" style="fill:#42312C;fill:color(display-p3 0.2588 0.1922 0.1725);fill-opacity:1;"/>
<path d="M74.4 45.7C73.04 46.96 72.96 49.08 74.22 50.43C74.42 50.65 74.65 50.84 74.9 51C77.82 53.17 81.1 54.8 84.6 55.8C88.13 56.68 91.78 56.95 95.4 56.6C97.28 56.55 98.77 54.98 98.72 53.1C98.71 52.83 98.67 52.56 98.6 52.3C98.01 50.57 96.32 49.46 94.5 49.6C91.82 49.86 89.12 49.7 86.5 49.1C83.92 48.31 81.48 47.09 79.3 45.5C77.82 44.41 75.78 44.49 74.4 45.7Z" fill="#42312C" style="fill:#42312C;fill:color(display-p3 0.2588 0.1922 0.1725);fill-opacity:1;"/>
<path d="M53.5999 45.7C54.9599 46.96 55.0399 49.08 53.7799 50.43C53.5799 50.65 53.3499 50.84 53.0999 51C50.1799 53.17 46.8999 54.8 43.3999 55.8C39.8699 56.68 36.2199 56.95 32.5999 56.6C30.7699 56.57 29.3199 55.06 29.3499 53.23C29.3599 52.91 29.4099 52.6 29.4999 52.3C30.0899 50.57 31.7799 49.46 33.5999 49.6C36.2799 49.86 38.9799 49.7 41.5999 49.1C44.1799 48.31 46.6199 47.09 48.7999 45.5C50.2399 44.41 52.2599 44.49 53.5999 45.7Z" fill="#42312C" style="fill:#42312C;fill:color(display-p3 0.2588 0.1922 0.1725);fill-opacity:1;"/>
<path d="M53.5999 45.7C54.9599 46.96 55.0399 49.08 53.7799 50.43C53.5799 50.65 53.3499 50.84 53.0999 51C50.1799 53.17 46.8999 54.8 43.3999 55.8C39.8699 56.68 36.2199 56.95 32.5999 56.6C30.7699 56.57 29.3199 55.06 29.3499 53.23C29.3599 52.91 29.4099 52.6 29.4999 52.3C30.0899 50.57 31.7799 49.46 33.5999 49.6C36.2799 49.86 38.9799 49.7 41.5999 49.1C44.1799 48.31 46.6199 47.09 48.7999 45.5C50.2399 44.41 52.2599 44.49 53.5999 45.7Z" fill="#42312C" style="fill:#42312C;fill:color(display-p3 0.2588 0.1922 0.1725);fill-opacity:1;"/>
<defs>
<radialGradient id="paint0_radial_169_11600" cx="0" cy="0" r="1" gradientUnits="userSpaceOnUse" gradientTransform="translate(63.6 62.8999) scale(56.9597 56.9597)">
<stop offset="0.5" stop-color="#FDE030" style="stop-color:#FDE030;stop-color:color(display-p3 0.9922 0.8784 0.1882);stop-opacity:1;"/>
<stop offset="0.92" stop-color="#F7C02B" style="stop-color:#F7C02B;stop-color:color(display-p3 0.9686 0.7529 0.1686);stop-opacity:1;"/>
<stop offset="1" stop-color="#F4A223" style="stop-color:#F4A223;stop-color:color(display-p3 0.9569 0.6353 0.1373);stop-opacity:1;"/>
</radialGradient>
<radialGradient id="paint1_radial_169_11600" cx="0" cy="0" r="1" gradientUnits="userSpaceOnUse" gradientTransform="translate(38.599 34.5377) rotate(-43.2082) scale(102.024 101.825)">
<stop offset="0.3533" stop-color="#F9DDBD" style="stop-color:#F9DDBD;stop-color:color(display-p3 0.9765 0.8667 0.7412);stop-opacity:1;"/>
<stop offset="0.8723" stop-color="#FFD29C" style="stop-color:#FFD29C;stop-color:color(display-p3 1.0000 0.8235 0.6118);stop-opacity:1;"/>
</radialGradient>
<radialGradient id="paint2_radial_169_11600" cx="0" cy="0" r="1" gradientUnits="userSpaceOnUse" gradientTransform="translate(38.599 34.5377) rotate(-43.2082) scale(102.024 101.825)">
<stop offset="0.3533" stop-color="#70534A" style="stop-color:#70534A;stop-color:color(display-p3 0.4392 0.3255 0.2902);stop-opacity:1;"/>
<stop offset="0.8723" stop-color="#5C4037" style="stop-color:#5C4037;stop-color:color(display-p3 0.3608 0.2510 0.2157);stop-opacity:1;"/>
</radialGradient>
<radialGradient id="paint3_radial_169_11600" cx="0" cy="0" r="1" gradientUnits="userSpaceOnUse" gradientTransform="translate(38.599 34.5377) rotate(-43.2082) scale(102.024 101.825)">
<stop offset="0.3533" stop-color="#A56C43" style="stop-color:#A56C43;stop-color:color(display-p3 0.6471 0.4235 0.2627);stop-opacity:1;"/>
<stop offset="0.8723" stop-color="#8D5738" style="stop-color:#8D5738;stop-color:color(display-p3 0.5529 0.3412 0.2196);stop-opacity:1;"/>
</radialGradient>
</defs>
</svg>
