<svg width="128" height="128" viewBox="0 0 128 128" fill="none" xmlns="http://www.w3.org/2000/svg">
<g clip-path="url(#clip0_154_157)">
<path d="M23.9902 19.4657C23.9902 19.4657 24.9602 12.8757 26.2202 10.2357C27.4802 7.59569 29.4602 4.81569 33.2602 4.07569C37.7902 3.19569 90.3102 3.65569 93.9502 3.88569C97.6202 4.12569 100.03 5.27569 101.41 7.53569C102.46 9.26569 102.83 11.3757 103.32 14.5057C103.58 16.1557 104.12 20.6757 104.12 20.6757L23.9902 19.4657Z" fill="#FFA828" style="fill:#FFA828;fill:color(display-p3 1.0000 0.6588 0.1569);fill-opacity:1;"/>
<path d="M50.6302 37.3156L22.4702 32.6356C22.4702 32.6356 23.0602 20.9856 24.2802 17.9356C25.5002 14.8856 27.0102 13.0656 31.4402 12.3056C35.8702 11.5456 46.9702 11.8556 63.6202 11.7056C80.2702 11.5556 94.9302 12.5656 97.5302 12.7156C100.13 12.8656 102.57 14.1456 103.33 16.5856C104.09 19.0256 104.46 22.3256 105.01 28.1956C105.21 30.3256 105.03 34.3556 105.03 34.3556L72.7602 36.5556L50.6302 37.3156Z" fill="#F1EDEC" style="fill:#F1EDEC;fill:color(display-p3 0.9451 0.9294 0.9255);fill-opacity:1;"/>
<path d="M22.2302 35.6857C22.4202 32.6357 22.4802 29.3357 24.8002 27.3657C26.7902 25.6857 30.1502 25.9957 34.1202 25.8357C37.7902 25.6957 47.1002 25.7757 64.6702 25.7757C82.2402 25.7757 97.0302 26.0357 99.7802 26.0357C102.53 26.0357 104.87 28.1857 105.17 30.1757C105.48 32.1657 104.1 116.326 103.95 118.156C103.8 119.986 103.19 123.656 99.2102 123.956C95.2402 124.266 32.7702 124.266 30.1702 123.956C27.5702 123.646 25.2802 121.356 24.8202 117.086C24.3602 112.816 22.0702 38.1257 22.2302 35.6857Z" fill="#D8CDC9" style="fill:#D8CDC9;fill:color(display-p3 0.8471 0.8039 0.7882);fill-opacity:1;"/>
<path d="M29.61 50.0259C31.91 50.3259 33.82 40.4159 36.82 38.1059C39.82 35.8059 45.43 34.5959 45.43 32.2959C45.43 31.1459 41.79 31.1559 38.42 31.1959C35.05 31.2359 32.15 30.9559 30.51 32.6959C28.71 34.5959 28.53 37.6459 28.41 40.7059C28.2 45.6159 28.19 49.8359 29.61 50.0259Z" fill="#F1EDEC" style="fill:#F1EDEC;fill:color(display-p3 0.9451 0.9294 0.9255);fill-opacity:1;"/>
<path d="M79.3398 117.656C79.3398 119.336 80.5698 119.886 87.2198 119.656C92.8398 119.466 95.6198 118.756 97.2898 116.746C98.9598 114.746 99.4198 110.546 99.4898 105.506C99.5298 102.016 99.4398 98.6562 97.6798 98.6562C95.1598 98.6562 95.1699 104.406 93.1599 107.636C89.2199 113.976 79.3398 115.416 79.3398 117.656Z" fill="#F1EDEC" style="fill:#F1EDEC;fill:color(display-p3 0.9451 0.9294 0.9255);fill-opacity:1;"/>
<path d="M95.0614 98.4229L95.0474 98.4099C92.151 95.7077 88.5263 94.3321 84.0632 94.332L95.0614 98.4229ZM95.0614 98.4229L95.0757 98.4356M95.0614 98.4229L95.0757 98.4356M95.0757 98.4356C98.0657 101.086 99.4999 104.198 99.5 107.844C99.4999 111.725 98.0149 114.938 94.9635 117.575M95.0757 98.4356L94.9635 117.575M94.9635 117.575C91.9689 120.161 88.3637 121.467 84.0632 121.467C79.5932 121.467 75.9154 120.124 72.9314 117.482M94.9635 117.575L72.9314 117.482M72.9314 117.482C69.9408 114.76 68.5 111.572 68.5 107.844V107.844C68.5 104.117 69.9387 100.973 72.9173 98.3298C75.9967 95.6715 79.6848 94.3321 84.0632 94.332L72.9314 117.482Z" stroke="#426FE4" style="stroke:#426FE4;stroke:color(display-p3 0.2588 0.4353 0.8941);stroke-opacity:1;" stroke-width="3"/>
<ellipse cx="84" cy="107.9" rx="4" ry="3.5453" fill="#426FE4" style="fill:#426FE4;fill:color(display-p3 0.2588 0.4353 0.8941);fill-opacity:1;"/>
<path d="M56.0614 98.4229L56.0474 98.4099C53.151 95.7077 49.5263 94.3321 45.0632 94.332L56.0614 98.4229ZM56.0614 98.4229L56.0757 98.4356M56.0614 98.4229L56.0757 98.4356M56.0757 98.4356C59.0657 101.086 60.4999 104.198 60.5 107.844C60.4999 111.725 59.0149 114.938 55.9635 117.575M56.0757 98.4356L55.9635 117.575M55.9635 117.575C52.9689 120.161 49.3637 121.467 45.0632 121.467C40.5932 121.467 36.9154 120.124 33.9314 117.482M55.9635 117.575L33.9314 117.482M33.9314 117.482C30.9408 114.76 29.5 111.572 29.5 107.844V107.844C29.5 104.117 30.9387 100.973 33.9173 98.3298C36.9967 95.6715 40.6848 94.3321 45.0632 94.332L33.9314 117.482Z" stroke="#40A940" style="stroke:#40A940;stroke:color(display-p3 0.2512 0.6625 0.2512);stroke-opacity:1;" stroke-width="3"/>
<ellipse cx="44.5" cy="108.343" rx="3.5" ry="3.10214" fill="#40A940" style="fill:#40A940;fill:color(display-p3 0.2512 0.6625 0.2512);fill-opacity:1;"/>
<path d="M95.0614 38.1534L95.0474 38.1403C92.151 35.4382 88.5263 34.0625 84.0632 34.0625L95.0614 38.1534ZM95.0614 38.1534L95.0757 38.1661M95.0614 38.1534L95.0757 38.1661M95.0757 38.1661C98.0657 40.8163 99.4999 43.928 99.5 47.574C99.4999 51.456 98.0149 54.6686 94.9635 57.3056M95.0757 38.1661L94.9635 57.3056M94.9635 57.3056C91.9689 59.8915 88.3637 61.1976 84.0632 61.1976C79.5932 61.1976 75.9154 59.8541 72.9314 57.2123M94.9635 57.3056L72.9314 57.2123M72.9314 57.2123C69.9408 54.4908 68.5 51.3022 68.5 47.574V47.574C68.5 43.8476 69.9387 40.7032 72.9173 38.0603C75.9967 35.402 79.6848 34.0625 84.0632 34.0625L72.9314 57.2123Z" stroke="#40A940" style="stroke:#40A940;stroke:color(display-p3 0.2512 0.6625 0.2512);stroke-opacity:1;" stroke-width="3"/>
<path d="M84.5 50.4027C86.0308 50.4027 87 48.9983 87 47.6301C87 46.2618 86.0308 44.8574 84.5 44.8574C82.9692 44.8574 82 46.2618 82 47.6301C82 48.9983 82.9692 50.4027 84.5 50.4027Z" fill="#40A940" stroke="#40A940" style="fill:#40A940;fill:color(display-p3 0.2512 0.6625 0.2512);fill-opacity:1;stroke:#40A940;stroke:color(display-p3 0.2512 0.6625 0.2512);stroke-opacity:1;" stroke-width="2"/>
<path d="M56.0614 38.1534L56.0474 38.1403C53.151 35.4382 49.5263 34.0625 45.0632 34.0625L56.0614 38.1534ZM56.0614 38.1534L56.0757 38.1661M56.0614 38.1534L56.0757 38.1661M56.0757 38.1661C59.0657 40.8163 60.4999 43.928 60.5 47.574C60.4999 51.456 59.0149 54.6686 55.9635 57.3056M56.0757 38.1661L55.9635 57.3056M55.9635 57.3056C52.9689 59.8915 49.3637 61.1976 45.0632 61.1976C40.5932 61.1976 36.9154 59.8541 33.9314 57.2123M55.9635 57.3056L33.9314 57.2123M33.9314 57.2123C30.9408 54.4908 29.5 51.3022 29.5 47.574V47.574C29.5 43.8476 30.9387 40.7032 33.9173 38.0603C36.9967 35.402 40.6848 34.0625 45.0632 34.0625L33.9314 57.2123Z" stroke="#426FE4" style="stroke:#426FE4;stroke:color(display-p3 0.2588 0.4353 0.8941);stroke-opacity:1;" stroke-width="3"/>
<ellipse cx="44.5" cy="47.6297" rx="3.5" ry="2.65898" fill="#426FE4" style="fill:#426FE4;fill:color(display-p3 0.2588 0.4353 0.8941);fill-opacity:1;"/>
<path d="M74.8607 68.401L74.8467 68.388C71.9451 65.6809 68.3138 64.3028 63.8428 64.3027L74.8607 68.401ZM74.8607 68.401L74.875 68.4137M74.8607 68.401L74.875 68.4137M74.875 68.4137C77.8705 71.0687 79.3074 74.1862 79.3075 77.8389C79.3074 81.7281 77.8196 84.9467 74.7626 87.5885M74.875 68.4137L74.7626 87.5885M74.7626 87.5885C71.7626 90.1791 68.1509 91.4874 63.8428 91.4874C59.3648 91.4874 55.6804 90.1415 52.691 87.4949C49.6949 84.7685 48.2514 81.5741 48.2515 77.839V77.839C48.2514 74.1057 49.6929 70.9554 52.6769 68.3077C55.7619 65.6446 59.4566 64.3028 63.8427 64.3027L74.7626 87.5885Z" stroke="#DF0B26" style="stroke:#DF0B26;stroke:color(display-p3 0.8745 0.0431 0.1490);stroke-opacity:1;" stroke-width="3"/>
<ellipse cx="64" cy="77.7644" rx="3" ry="2.65898" fill="#DF0B26" style="fill:#DF0B26;fill:color(display-p3 0.8745 0.0431 0.1490);fill-opacity:1;"/>
</g>
<defs>
<clipPath id="clip0_154_157">
<rect width="128" height="128" fill="white" style="fill:white;fill-opacity:1;"/>
</clipPath>
</defs>
</svg>
