<svg width="128" height="128" viewBox="0 0 128 128" fill="none" xmlns="http://www.w3.org/2000/svg">
<path opacity="0.2" d="M99.73 7.09009C102.49 7.09009 104.73 9.33009 104.73 12.0901V116.09C104.73 118.85 102.49 121.09 99.73 121.09H27.73C24.97 121.09 22.73 118.85 22.73 116.09V12.0901C22.73 9.33009 24.97 7.09009 27.73 7.09009H99.73ZM99.73 4.09009H27.73C23.31 4.09009 19.73 7.67009 19.73 12.0901V116.09C19.73 120.51 23.31 124.09 27.73 124.09H99.73C104.15 124.09 107.73 120.51 107.73 116.09V12.0901C107.73 7.67009 104.15 4.09009 99.73 4.09009Z" fill="#212121" style="fill:#212121;fill:color(display-p3 0.1294 0.1294 0.1294);fill-opacity:1;"/>
<path d="M102.439 125.43L26.4194 125.06C22.9694 125.06 20.1694 122.26 20.1694 118.81L32.3694 26.6801L102.559 4.5001C108.689 4.1701 109.039 7.0301 109.039 10.4801L108.669 119.17C108.689 122.64 105.889 125.43 102.439 125.43Z" fill="#D9CDC9" style="fill:#D9CDC9;fill:color(display-p3 0.8510 0.8039 0.7882);fill-opacity:1;"/>
<path d="M101.98 122.06C101.98 122.06 44.2195 123.04 25.5095 121.98C21.9295 121.78 20.1795 120.36 20.1695 118.82L19.9995 10.3301C19.9995 6.88008 22.7995 4.08008 26.2495 4.08008L101.89 4.40008C105.34 4.40008 106.65 7.26008 106.65 10.7101L106.08 116.11C106.06 119.56 105.43 122.06 101.98 122.06Z" fill="#F1EDEC" style="fill:#F1EDEC;fill:color(display-p3 0.9451 0.9294 0.9255);fill-opacity:1;"/>
<path d="M42.1167 111C42.1167 114.068 39.9256 116 36.75 116C33.5744 116 31 113.513 31 110.444C31.0134 110.179 31.007 109.919 31 109.663C31 107.636 32.0261 105.67 32.9167 103.83C33.8325 101.938 35.1529 100.28 36.3906 98.5868C38.3078 95.9647 42.5 91 42.5 91C42.5 91 46.6922 95.9647 48.6094 98.5868C49.8471 100.28 51.1675 101.938 52.0833 103.83C52.9739 105.67 54 107.636 54 109.663C53.9891 109.934 53.9929 110.195 54 110.444C54 113.513 51.4256 116 48.25 116C45.0744 116 42.8833 114.068 42.8833 111C42.8833 110.444 42.1167 110.444 42.1167 111Z" fill="#F44336" style="fill:#F44336;fill:color(display-p3 0.9569 0.2627 0.2118);fill-opacity:1;"/>
<path d="M85.1167 111C85.1167 114.068 82.9256 116 79.75 116C76.5744 116 74 113.513 74 110.444C74.0134 110.179 74.007 109.919 74 109.663C74 107.636 75.0261 105.67 75.9167 103.83C76.8325 101.938 78.1529 100.28 79.3906 98.5868C81.3078 95.9647 85.5 91 85.5 91C85.5 91 89.6922 95.9647 91.6094 98.5868C92.8471 100.28 94.1675 101.938 95.0833 103.83C95.9739 105.67 97 107.636 97 109.663C96.9891 109.934 96.9929 110.195 97 110.444C97 113.513 94.4256 116 91.25 116C88.0744 116 85.8833 114.068 85.8833 111C85.8833 110.444 85.1167 110.444 85.1167 111Z" fill="#F44336" style="fill:#F44336;fill:color(display-p3 0.9569 0.2627 0.2118);fill-opacity:1;"/>
<path d="M42.1167 85C42.1167 88.0682 39.9256 90 36.75 90C33.5744 90 31 87.5127 31 84.4444C31.0134 84.179 31.007 83.9191 31 83.6632C31 81.6358 32.0261 79.6696 32.9167 77.8299C33.8325 75.9379 35.1529 74.2797 36.3906 72.5868C38.3078 69.9647 42.5 65 42.5 65C42.5 65 46.6922 69.9647 48.6094 72.5868C49.8471 74.2797 51.1675 75.9379 52.0833 77.8299C52.9739 79.6696 54 81.6358 54 83.6632C53.9891 83.9339 53.9929 84.195 54 84.4444C54 87.5127 51.4256 90 48.25 90C45.0744 90 42.8833 88.0682 42.8833 85C42.8833 84.4444 42.1167 84.4444 42.1167 85Z" fill="#F44336" style="fill:#F44336;fill:color(display-p3 0.9569 0.2627 0.2118);fill-opacity:1;"/>
<path d="M85.1167 85C85.1167 88.0682 82.9256 90 79.75 90C76.5744 90 74 87.5127 74 84.4444C74.0134 84.179 74.007 83.9191 74 83.6632C74 81.6358 75.0261 79.6696 75.9167 77.8299C76.8325 75.9379 78.1529 74.2797 79.3906 72.5868C81.3078 69.9647 85.5 65 85.5 65C85.5 65 89.6922 69.9647 91.6094 72.5868C92.8471 74.2797 94.1675 75.9379 95.0833 77.8299C95.9739 79.6696 97 81.6358 97 83.6632C96.9891 83.9339 96.9929 84.195 97 84.4444C97 87.5127 94.4256 90 91.25 90C88.0744 90 85.8833 88.0682 85.8833 85C85.8833 84.4444 85.1167 84.4444 85.1167 85Z" fill="#F44336" style="fill:#F44336;fill:color(display-p3 0.9569 0.2627 0.2118);fill-opacity:1;"/>
<path d="M42.1167 16C42.1167 12.9318 39.9256 11 36.75 11C33.5744 11 31 13.4873 31 16.5556C31.0134 16.821 31.007 17.0809 31 17.3368C31 19.3642 32.0261 21.3304 32.9167 23.1701C33.8325 25.0621 35.1529 26.7203 36.3906 28.4132C38.3078 31.0353 42.5 36 42.5 36C42.5 36 46.6922 31.0353 48.6094 28.4132C49.8471 26.7203 51.1675 25.0621 52.0833 23.1701C52.9739 21.3304 54 19.3642 54 17.3368C53.9891 17.0661 53.9929 16.805 54 16.5556C54 13.4873 51.4256 11 48.25 11C45.0744 11 42.8833 12.9318 42.8833 16C42.8833 16.5556 42.1167 16.5556 42.1167 16Z" fill="#F44336" style="fill:#F44336;fill:color(display-p3 0.9569 0.2627 0.2118);fill-opacity:1;"/>
<path d="M85.1167 16C85.1167 12.9318 82.9256 11 79.75 11C76.5744 11 74 13.4873 74 16.5556C74.0134 16.821 74.007 17.0809 74 17.3368C74 19.3642 75.0261 21.3304 75.9167 23.1701C76.8325 25.0621 78.1529 26.7203 79.3906 28.4132C81.3078 31.0353 85.5 36 85.5 36C85.5 36 89.6922 31.0353 91.6094 28.4132C92.8471 26.7203 94.1675 25.0621 95.0833 23.1701C95.9739 21.3304 97 19.3642 97 17.3368C96.9891 17.0661 96.9929 16.805 97 16.5556C97 13.4873 94.4256 11 91.25 11C88.0744 11 85.8833 12.9318 85.8833 16C85.8833 16.5556 85.1167 16.5556 85.1167 16Z" fill="#F44336" style="fill:#F44336;fill:color(display-p3 0.9569 0.2627 0.2118);fill-opacity:1;"/>
<path d="M42.1167 42C42.1167 38.9318 39.9256 37 36.75 37C33.5744 37 31 39.4873 31 42.5556C31.0134 42.821 31.007 43.0809 31 43.3368C31 45.3642 32.0261 47.3304 32.9167 49.1701C33.8325 51.0621 35.1529 52.7203 36.3906 54.4132C38.3078 57.0353 42.5 62 42.5 62C42.5 62 46.6922 57.0353 48.6094 54.4132C49.8471 52.7203 51.1675 51.0621 52.0833 49.1701C52.9739 47.3304 54 45.3642 54 43.3368C53.9891 43.0661 53.9929 42.805 54 42.5556C54 39.4873 51.4256 37 48.25 37C45.0744 37 42.8833 38.9318 42.8833 42C42.8833 42.5556 42.1167 42.5556 42.1167 42Z" fill="#F44336" style="fill:#F44336;fill:color(display-p3 0.9569 0.2627 0.2118);fill-opacity:1;"/>
<path d="M85.1167 42C85.1167 38.9318 82.9256 37 79.75 37C76.5744 37 74 39.4873 74 42.5556C74.0134 42.821 74.007 43.0809 74 43.3368C74 45.3642 75.0261 47.3304 75.9167 49.1701C76.8325 51.0621 78.1529 52.7203 79.3906 54.4132C81.3078 57.0353 85.5 62 85.5 62C85.5 62 89.6922 57.0353 91.6094 54.4132C92.8471 52.7203 94.1675 51.0621 95.0833 49.1701C95.9739 47.3304 97 45.3642 97 43.3368C96.9891 43.0661 96.9929 42.805 97 42.5556C97 39.4873 94.4256 37 91.25 37C88.0744 37 85.8833 38.9318 85.8833 42C85.8833 42.5556 85.1167 42.5556 85.1167 42Z" fill="#F44336" style="fill:#F44336;fill:color(display-p3 0.9569 0.2627 0.2118);fill-opacity:1;"/>
</svg>
