<svg width="128" height="128" viewBox="0 0 128 128" fill="none" xmlns="http://www.w3.org/2000/svg">
<g clip-path="url(#clip0_2354_98)">
<path d="M25.2491 31.7971C20.5855 46.1121 26.9763 62.1425 26.0549 65.7123C23.8802 74.0991 14.405 82.3258 16.7167 97.8626C18.7802 111.715 29.5051 116.811 36.7567 117.332C44.0083 117.853 50.1714 108.247 50.1714 108.247C50.1714 108.247 57.735 89.2665 57.1174 88.4789C56.4999 87.6913 55.0022 66.0874 55.8865 58.0765C56.7708 50.0655 67.4711 27.9801 67.4711 27.9801C67.4711 27.9801 60.0788 12.137 57.7055 10.6476C54.8766 8.87952 32.7676 8.70425 25.2491 31.7971Z" fill="#E69A29" style="fill:#E69A29;fill:color(display-p3 0.9000 0.6045 0.1612);fill-opacity:1;"/>
<path d="M49.691 63.1147C49.9478 77.3016 55.2247 85.0847 51.5167 97.3501C47.8087 109.616 36.7579 117.322 36.7579 117.322C36.7579 117.322 47.2829 119.016 56.1275 108C66.0066 95.6884 63.4356 84.8441 61.3347 73.6312C60.4213 68.7382 59.5921 66.9302 59.7741 65.3829C59.9619 63.831 67.1686 51.4037 69.2717 44.8383C71.3749 38.2729 71.2242 29.2324 67.1791 22.04C62.4335 13.6031 57.6891 10.651 57.6891 10.651C57.6891 10.651 64.9931 20.8498 63.4224 31.4109C61.6612 43.3268 49.5412 54.3296 49.691 63.1147Z" fill="#D97A08" style="fill:#D97A08;fill:color(display-p3 0.8510 0.4784 0.0314);fill-opacity:1;"/>
<path d="M20.2921 95.0869C20.5884 97.8252 21.5954 99.3515 23.0659 99.1571C24.7302 98.9435 25.1089 96.4731 24.8511 94.6917C24.5932 92.9103 23.7341 90.8221 22.34 90.9566C20.7743 91.1023 20.0249 92.5915 20.2921 95.0869Z" fill="#F7C875" style="fill:#F7C875;fill:color(display-p3 0.9686 0.7843 0.4588);fill-opacity:1;"/>
<path d="M23.4102 85.1923C25.4125 85.9666 26.6756 83.8373 27.4263 81.5023C28.1771 79.1674 28.136 77.0452 26.6809 76.4967C25.2304 75.9541 23.7193 78.1545 23.115 80.0709C22.5212 81.9887 21.5149 84.4576 23.4102 85.1923Z" fill="#F7C875" style="fill:#F7C875;fill:color(display-p3 0.9686 0.7843 0.4588);fill-opacity:1;"/>
<path d="M31.4204 61.5523C33.284 61.3629 33.4805 59.0353 33.1475 56.4681C32.8191 53.9068 31.9842 51.4864 30.2133 51.7455C28.5511 51.9859 28.0203 53.7783 28.5729 57.037C29.2038 60.7467 29.9235 61.701 31.4204 61.5523Z" fill="#F7C875" style="fill:#F7C875;fill:color(display-p3 0.9686 0.7843 0.4588);fill-opacity:1;"/>
<path d="M34.6127 111.136C35.9315 112.019 37.3319 110.646 38.1187 109.507C39.4084 107.641 39.2405 106.084 38.3364 105.379C37.4322 104.673 35.7186 105.514 34.7579 107.254C34.1439 108.372 33.3089 110.26 34.6127 111.136Z" fill="#D97A08" style="fill:#D97A08;fill:color(display-p3 0.8510 0.4784 0.0314);fill-opacity:1;"/>
<path d="M40.517 102.349C42.1052 102.765 43.2747 101.496 44.0909 98.3129C44.7251 95.8415 44.059 93.6969 42.6855 93.3977C41.3119 93.0984 41.059 94.3978 40.3428 97.0188C39.6763 99.4491 39.2068 102.01 40.517 102.349Z" fill="#D97A08" style="fill:#D97A08;fill:color(display-p3 0.8510 0.4784 0.0314);fill-opacity:1;"/>
<path d="M36.6068 93.9977C38.0925 94.5126 39.3497 92.872 39.9463 90.3162C40.5003 87.9362 40.1366 86.2377 38.4455 85.9692C36.8278 85.7096 36.3713 88.2504 36.0638 89.5166C35.6906 91.062 34.8351 93.3843 36.6068 93.9977Z" fill="#D97A08" style="fill:#D97A08;fill:color(display-p3 0.8510 0.4784 0.0314);fill-opacity:1;"/>
<path d="M43.0878 86.4672C42.7183 88.9493 42.7856 90.8992 44.643 90.9803C46.5004 91.0615 46.9123 88.1854 47.0871 87.0043C47.2574 85.8174 47.4967 83.0481 45.6463 82.7338C43.8063 82.4207 43.2627 85.2861 43.0878 86.4672Z" fill="#D97A08" style="fill:#D97A08;fill:color(display-p3 0.8510 0.4784 0.0314);fill-opacity:1;"/>
<path d="M39.0223 72.3249C38.9885 74.2306 38.7129 76.772 40.111 77.1753C41.5662 77.5908 43.0269 75.895 43.02 72.7874C43.0123 70.8288 42.0004 68.8604 40.6304 68.7957C39.2663 68.7264 39.055 70.6478 39.0223 72.3249Z" fill="#D97A08" style="fill:#D97A08;fill:color(display-p3 0.8510 0.4784 0.0314);fill-opacity:1;"/>
<path d="M43.3639 56.9335C44.9965 57.8173 46.5216 55.5016 47.3492 53.41C48.1723 51.3125 48.4861 49.1588 47.131 48.5319C45.8919 47.9564 44.2277 49.3563 43.2738 51.8315C42.3094 54.3056 41.9657 56.1791 43.3639 56.9335Z" fill="#D97A08" style="fill:#D97A08;fill:color(display-p3 0.8510 0.4784 0.0314);fill-opacity:1;"/>
<path d="M51.9395 42.2937C53.4209 42.8879 54.6117 41.3563 55.3039 38.8015C55.9852 36.2932 55.8132 34.5488 54.2478 34.0774C52.6764 33.6106 52.0913 35.5879 51.4275 37.8642C50.7726 40.0671 50.5079 41.7268 51.9395 42.2937Z" fill="#D97A08" style="fill:#D97A08;fill:color(display-p3 0.8510 0.4784 0.0314);fill-opacity:1;"/>
<path d="M56.3011 32.4964C57.7742 32.6321 58.5088 30.8697 58.7293 28.4759C58.9638 25.9668 58.4002 24.558 57.1948 24.3642C55.9952 24.1659 55.1884 25.5577 54.9184 28.3605C54.6679 30.9581 55.0331 32.3802 56.3011 32.4964Z" fill="#D97A08" style="fill:#D97A08;fill:color(display-p3 0.8510 0.4784 0.0314);fill-opacity:1;"/>
<path d="M49.1208 22.7701C49.1305 25.2396 48.7763 27.4629 50.6732 27.5701C52.0943 27.6517 53.0236 25.4235 52.9761 23.0025C52.9309 20.8266 51.6591 18.5874 50.3634 18.92C49.0723 19.2585 49.1151 20.4872 49.1208 22.7701Z" fill="#D97A08" style="fill:#D97A08;fill:color(display-p3 0.8510 0.4784 0.0314);fill-opacity:1;"/>
<path d="M54.7892 17.9553C55.6027 19.9369 55.4235 21.6814 57.0426 21.7976C58.9612 21.9446 59.4667 19.3938 58.1251 16.545C56.8839 13.9211 55.63 13.2054 54.5631 14.1084C53.4917 15.0054 54.133 16.3438 54.7892 17.9553Z" fill="#D97A08" style="fill:#D97A08;fill:color(display-p3 0.8510 0.4784 0.0314);fill-opacity:1;"/>
<path d="M67.3806 21.4079C55.1901 35.1421 54.5243 56.1813 51.7544 59.7239C45.2357 68.0421 30.6317 72.6237 25.6453 91.1232C21.2022 107.618 30.7112 118.543 38.5659 122.66C46.4205 126.776 57.9933 119.038 57.9933 119.038C57.9933 119.038 75.7002 101.5 75.3935 100.318C75.0868 99.1367 83.9399 74.2498 88.8326 65.723C93.7253 57.1963 116.453 37.7152 116.453 37.7152C116.453 37.7152 115.907 16.3973 113.979 13.5753C111.678 10.2198 87.0412 -0.750226 67.3806 21.4079Z" fill="#F3AE38" style="fill:#F3AE38;fill:color(display-p3 0.9529 0.6824 0.2196);fill-opacity:1;"/>
<path d="M79.4497 68.3377C72.8233 84.3264 74.9311 95.6007 64.8078 107.509C54.6844 119.417 38.5723 122.649 38.5723 122.649C38.5723 122.649 49.5156 129.672 64.7738 121.664C81.82 112.712 84.2296 99.333 87.3446 85.7712C88.7078 79.8548 88.6616 77.4291 89.6191 75.7876C90.5854 74.1437 104.7 63.7597 110.251 57.4433C115.802 51.1269 120.039 40.9445 119.021 30.9308C117.826 19.1842 113.959 13.5713 113.959 13.5713C113.959 13.5713 117.157 28.5347 110.254 39.5786C102.477 52.0445 83.5633 58.4414 79.4497 68.3377Z" fill="#D97A08" style="fill:#D97A08;fill:color(display-p3 0.8510 0.4784 0.0314);fill-opacity:1;"/>
<path d="M30.9957 89.762C29.9927 92.9683 30.3748 95.1656 32.1139 95.6648C34.0789 96.2371 35.7063 93.6593 36.2861 91.5417C36.8658 89.4241 36.9228 86.6704 35.2984 86.1415C33.4767 85.5414 31.9129 86.8415 30.9957 89.762Z" fill="#F7C875" style="fill:#F7C875;fill:color(display-p3 0.9686 0.7843 0.4588);fill-opacity:1;"/>
<path d="M39.3043 80.2169C41.1658 82.0584 43.6159 80.293 45.5932 78.0479C47.5705 75.8028 48.5587 73.4097 47.199 72.0874C45.8415 70.7738 43.0795 72.4979 41.4699 74.3463C39.8713 76.2013 37.543 78.4717 39.3043 80.2169Z" fill="#F7C875" style="fill:#F7C875;fill:color(display-p3 0.9686 0.7843 0.4588);fill-opacity:1;"/>
<path d="M59.7814 57.6872C61.9575 58.3836 63.3116 55.8767 64.1902 52.8439C65.0712 49.8198 65.3171 46.7065 63.2106 46.1333C61.2348 45.592 59.7679 47.3375 58.7977 51.2507C57.6954 55.7063 58.0352 57.124 59.7814 57.6872Z" fill="#F7C875" style="fill:#F7C875;fill:color(display-p3 0.9686 0.7843 0.4588);fill-opacity:1;"/>
<path d="M39.188 114.686C40.2324 116.316 42.4674 115.463 43.9023 114.573C46.2535 113.116 46.8248 111.292 46.1575 110.063C45.4902 108.834 43.1644 108.939 41.2421 110.416C40.011 111.367 38.1571 113.071 39.188 114.686Z" fill="#D97A08" style="fill:#D97A08;fill:color(display-p3 0.8510 0.4784 0.0314);fill-opacity:1;"/>
<path d="M50.072 107.738C51.6453 108.977 53.5711 108.129 56.0351 104.967C57.9486 102.512 58.2489 99.7895 56.8589 98.7856C55.4689 97.7817 54.5528 99.1113 52.4747 101.693C50.5451 104.086 48.7724 106.72 50.072 107.738Z" fill="#D97A08" style="fill:#D97A08;fill:color(display-p3 0.8510 0.4784 0.0314);fill-opacity:1;"/>
<path d="M49.7696 96.4942C51.18 97.794 53.3852 96.5722 55.2977 94.0051C57.077 91.6137 57.4981 89.5373 55.7379 88.413C54.0556 87.3344 52.307 89.953 51.3462 91.219C50.1757 92.7652 48.0874 94.945 49.7696 96.4942Z" fill="#D97A08" style="fill:#D97A08;fill:color(display-p3 0.8510 0.4784 0.0314);fill-opacity:1;"/>
<path d="M60.6863 91.2317C59.0635 93.8271 58.1886 96.0402 60.2259 97.0361C62.2633 98.0319 64.1254 95.0167 64.8965 93.7813C65.6653 92.537 67.2824 89.5571 65.3665 88.3038C63.4616 87.0571 61.4574 89.9962 60.6863 91.2317Z" fill="#D97A08" style="fill:#D97A08;fill:color(display-p3 0.8510 0.4784 0.0314);fill-opacity:1;"/>
<path d="M63.0318 73.4376C62.0654 75.5521 60.5187 78.2595 61.8856 79.3918C63.3103 80.5655 65.77 79.3811 67.2766 75.9029C68.2225 73.7091 68.0502 71.0149 66.5498 70.2749C65.0583 69.5327 63.8857 71.5783 63.0318 73.4376Z" fill="#D97A08" style="fill:#D97A08;fill:color(display-p3 0.8510 0.4784 0.0314);fill-opacity:1;"/>
<path d="M75.3871 58.3427C76.7819 60.1265 79.6157 58.2803 81.5604 56.3449C83.5028 54.4006 84.9033 52.1453 83.6935 50.784C82.5885 49.5367 80.0454 50.2909 77.7725 52.5939C75.4886 54.8904 74.1912 56.8178 75.3871 58.3427Z" fill="#D97A08" style="fill:#D97A08;fill:color(display-p3 0.8510 0.4784 0.0314);fill-opacity:1;"/>
<path d="M92.1102 46.1523C93.4772 47.5386 95.5551 46.4063 97.5741 43.8868C99.5582 41.4141 100.216 39.3798 98.6952 38.0898C97.1657 36.8021 95.5479 38.728 93.6963 40.9498C91.8905 43.0939 90.7858 44.8207 92.1102 46.1523Z" fill="#D97A08" style="fill:#D97A08;fill:color(display-p3 0.8510 0.4784 0.0314);fill-opacity:1;"/>
<path d="M101.762 37.3216C103.343 38.1913 105.023 36.5786 106.436 34.0094C107.921 31.3179 107.978 29.468 106.724 28.6639C105.479 27.8576 103.899 29.0208 102.231 32.0232C100.685 34.8057 100.401 36.5738 101.762 37.3216Z" fill="#D97A08" style="fill:#D97A08;fill:color(display-p3 0.8510 0.4784 0.0314);fill-opacity:1;"/>
<path d="M98.4727 22.947C97.2801 25.7131 95.8006 28.0267 97.8693 29.0709C99.4187 29.8546 101.544 27.8159 102.67 25.0857C103.68 22.6306 103.349 19.507 101.738 19.2475C100.13 18.9968 99.5788 20.3916 98.4727 22.947Z" fill="#D97A08" style="fill:#D97A08;fill:color(display-p3 0.8510 0.4784 0.0314);fill-opacity:1;"/>
<path d="M107.157 20.3249C107.101 22.9372 106.051 24.8005 107.805 25.7194C109.878 26.8188 111.687 24.2128 111.575 20.3735C111.465 16.8347 110.412 15.4234 108.779 15.9132C107.144 16.3941 107.209 18.2032 107.157 20.3249Z" fill="#D97A08" style="fill:#D97A08;fill:color(display-p3 0.8510 0.4784 0.0314);fill-opacity:1;"/>
</g>
<defs>
<clipPath id="clip0_2354_98">
<rect width="128" height="128" fill="white" style="fill:white;fill-opacity:1;"/>
</clipPath>
</defs>
</svg>
