<svg width="128" height="128" viewBox="0 0 128 128" fill="none" xmlns="http://www.w3.org/2000/svg">
<path d="M63.6001 118.8C35.7001 118.8 5.6001 101.3 5.6001 62.9C5.6001 24.5 35.7001 7 63.6001 7C79.1001 7 93.4001 12.1 104 21.4C115.5 31.6 121.6 46 121.6 62.9C121.6 79.8 115.5 94.1 104 104.3C93.4001 113.6 79.0001 118.8 63.6001 118.8Z" fill="url(#paint0_radial_169_12229)" style=""/>
<path d="M63.6001 118.8C35.7001 118.8 5.6001 101.3 5.6001 62.9C5.6001 24.5 35.7001 7 63.6001 7C79.1001 7 93.4001 12.1 104 21.4C115.5 31.6 121.6 46 121.6 62.9C121.6 79.8 115.5 94.1 104 104.3C93.4001 113.6 79.0001 118.8 63.6001 118.8Z" fill="url(#paint1_radial_169_12229)" style=""/>
<path d="M63.6001 118.8C35.7001 118.8 5.6001 101.3 5.6001 62.9C5.6001 24.5 35.7001 7 63.6001 7C79.1001 7 93.4001 12.1 104 21.4C115.5 31.6 121.6 46 121.6 62.9C121.6 79.8 115.5 94.1 104 104.3C93.4001 113.6 79.0001 118.8 63.6001 118.8Z" fill="url(#paint2_radial_169_12229)" style=""/>
<path d="M63.6001 118.8C35.7001 118.8 5.6001 101.3 5.6001 62.9C5.6001 24.5 35.7001 7 63.6001 7C79.1001 7 93.4001 12.1 104 21.4C115.5 31.6 121.6 46 121.6 62.9C121.6 79.8 115.5 94.1 104 104.3C93.4001 113.6 79.0001 118.8 63.6001 118.8Z" fill="url(#paint3_radial_169_12229)" style=""/>
<path d="M63.6001 118.8C35.7001 118.8 5.6001 101.3 5.6001 62.9C5.6001 24.5 35.7001 7 63.6001 7C79.1001 7 93.4001 12.1 104 21.4C115.5 31.6 121.6 46 121.6 62.9C121.6 79.8 115.5 94.1 104 104.3C93.4001 113.6 79.0001 118.8 63.6001 118.8Z" fill="url(#paint4_radial_169_12229)" style=""/>
<path d="M111.49 29.67C116.82 38.27 119.6 48.51 119.6 59.9C119.6 76.8 113.5 91.1 102 101.3C91.3999 110.6 76.9999 115.8 61.5999 115.8C43.5399 115.8 24.5999 108.45 13.4199 92.86C24.1799 110.52 44.4199 118.8 63.5999 118.8C78.9999 118.8 93.3999 113.6 104 104.3C115.5 94.1 121.6 79.8 121.6 62.9C121.6 50.16 118.13 38.84 111.49 29.67Z" fill="#EB8F00" style="fill:#EB8F00;fill:color(display-p3 0.9216 0.5608 0.0000);fill-opacity:1;"/>
<path d="M111.49 29.67C116.82 38.27 119.6 48.51 119.6 59.9C119.6 76.8 113.5 91.1 102 101.3C91.3999 110.6 76.9999 115.8 61.5999 115.8C43.5399 115.8 24.5999 108.45 13.4199 92.86C24.1799 110.52 44.4199 118.8 63.5999 118.8C78.9999 118.8 93.3999 113.6 104 104.3C115.5 94.1 121.6 79.8 121.6 62.9C121.6 50.16 118.13 38.84 111.49 29.67Z" fill="#F3B872" style="fill:#F3B872;fill:color(display-p3 0.9542 0.7229 0.4453);fill-opacity:1;"/>
<path d="M111.49 29.67C116.82 38.27 119.6 48.51 119.6 59.9C119.6 76.8 113.5 91.1 102 101.3C91.3999 110.6 76.9999 115.8 61.5999 115.8C43.5399 115.8 24.5999 108.45 13.4199 92.86C24.1799 110.52 44.4199 118.8 63.5999 118.8C78.9999 118.8 93.3999 113.6 104 104.3C115.5 94.1 121.6 79.8 121.6 62.9C121.6 50.16 118.13 38.84 111.49 29.67Z" fill="#91674D" style="fill:#91674D;fill:color(display-p3 0.5686 0.4039 0.3020);fill-opacity:1;"/>
<path d="M95.92 17.13L87.86 27.83C87.46 28.35 86.84 28.65 86.18 28.62L72.8 28.05C71.7 28 70.76 28.86 70.71 29.96C70.69 30.4 70.82 30.83 71.07 31.19L78.76 42.19C79.13 42.72 79.22 43.39 79 44L74.32 56.56C73.94 57.6 74.47 58.75 75.5 59.13C75.91 59.28 76.35 59.29 76.77 59.17L89.58 55.25C90.21 55.06 90.89 55.19 91.41 55.6L101.9 63.93C102.77 64.61 104.02 64.47 104.71 63.6C104.98 63.25 105.13 62.83 105.14 62.39L105.37 49C105.38 48.34 105.72 47.73 106.27 47.37L117.43 40C118.35 39.39 118.61 38.15 118 37.23C117.76 36.86 117.4 36.58 116.98 36.44L104.31 32.08C103.67 31.87 103.18 31.35 103 30.7L99.44 17.79C99.14 16.73 98.03 16.11 96.97 16.41C96.55 16.53 96.18 16.78 95.92 17.13Z" fill="url(#paint5_radial_169_12229)" style=""/>
<path d="M99.81 16.89L102.81 30.81C103.04 31.88 103.83 32.74 104.88 33.05L118.26 37.05C119.26 37.41 119.78 38.51 119.42 39.51C119.28 39.91 119.01 40.24 118.65 40.47L106.65 46.99C105.64 47.5 105 48.54 105 49.67L105.12 64.26C105.09 65.31 104.21 66.14 103.15 66.11C102.73 66.1 102.32 65.95 102 65.68L91.52 56.27C90.71 55.53 89.56 55.3 88.52 55.66L75.22 60.19C74.2 60.48 73.14 59.89 72.84 58.87C72.72 58.47 72.74 58.04 72.9 57.65L78.76 44.28C79.2 43.26 79.05 42.09 78.36 41.22L69.85 30.49C69.26 29.6 69.5 28.41 70.38 27.81C70.72 27.58 71.13 27.47 71.55 27.49L85.44 29.07C86.53 29.19 87.59 28.71 88.22 27.82L96.44 16.2C97.09 15.36 98.3 15.21 99.13 15.87C99.47 16.13 99.7 16.48 99.81 16.89Z" fill="#F44336" style="fill:#F44336;fill:color(display-p3 0.9569 0.2627 0.2118);fill-opacity:1;"/>
<path d="M96.63 30.34L97.63 20.74C97.7 20.21 97.78 19.29 98.63 19.46C99.3 19.6 99.37 21.05 99.37 21.05L100.67 29.19C101.15 32.28 100.51 33.19 99.35 33.55C98 34 96.35 33.09 96.63 30.34Z" fill="#FF847A" style="fill:#FF847A;fill:color(display-p3 1.0000 0.5176 0.4784);fill-opacity:1;"/>
<path d="M105.65 46L115.12 41.31C115.59 41.05 116.43 40.66 115.98 39.93C115.61 39.36 114.22 39.79 114.22 39.79L106.51 41.12C104.23 41.42 102.59 42.22 102.18 43.57C101.65 45.31 103 47.06 105.65 46Z" fill="#C62828" style="fill:#C62828;fill:color(display-p3 0.7765 0.1569 0.1569);fill-opacity:1;"/>
<path d="M32.4998 14.5L40.4998 26.24C41.1198 27.14 42.1698 27.63 43.2598 27.53L57.1798 26.16C58.2398 26.13 59.1298 26.96 59.1598 28.02C59.1698 28.43 59.0598 28.83 58.8298 29.16L50.1998 39.79C49.4998 40.65 49.3298 41.82 49.7598 42.84L55.4098 56.29C55.7798 57.28 55.2798 58.39 54.2898 58.76C53.8898 58.91 53.4598 58.92 53.0498 58.8L39.7798 54.07C38.7498 53.7 37.5998 53.91 36.7798 54.63L26.1998 63.88C25.3798 64.54 24.1798 64.41 23.5098 63.59C23.2398 63.26 23.0898 62.84 23.0898 62.42L23.4198 47.83C23.4498 46.72 22.8598 45.7 21.8998 45.15L9.99978 38.45C9.09978 37.91 8.79978 36.73 9.34978 35.83C9.57978 35.44 9.94978 35.14 10.3798 35L23.8298 31.18C24.8698 30.89 25.6698 30.05 25.9298 29L29.1198 15.13C29.4098 14.11 30.4698 13.52 31.4898 13.81C31.8898 13.92 32.2498 14.17 32.4998 14.5Z" fill="#F44336" style="fill:#F44336;fill:color(display-p3 0.9569 0.2627 0.2118);fill-opacity:1;"/>
<path d="M34.6596 28.15L31.9196 18.89C31.7896 18.37 31.5096 17.49 32.3496 17.33C33.0196 17.2 33.6496 18.52 33.6496 18.52L37.9296 25.52C39.5596 28.2 39.2996 29.27 38.3696 30.05C37.4396 30.83 35.4396 30.8 34.6596 28.15Z" fill="#FF847A" style="fill:#FF847A;fill:color(display-p3 1.0000 0.5176 0.4784);fill-opacity:1;"/>
<path d="M48.9398 39.16L55.9398 31.22C56.2798 30.81 56.9398 30.13 56.1998 29.63C55.6498 29.23 54.5298 30.16 54.5298 30.16L47.8998 34.32C45.8998 35.46 44.6898 36.82 44.8298 38.23C44.9998 40.09 46.8998 41.19 48.9398 39.16Z" fill="#C62828" style="fill:#C62828;fill:color(display-p3 0.7765 0.1569 0.1569);fill-opacity:1;"/>
<path d="M102.07 71.62C100.67 69.09 97.6297 67.98 94.9297 69C84.6697 71.99 74.0297 73.48 63.3397 73.43C52.6497 73.48 42.0097 71.99 31.7497 69C29.0597 67.98 26.0197 69.08 24.6197 71.6C23.2597 74.11 24.2397 77.02 25.3897 79.53C31.8097 93.63 45.9597 102.07 63.2597 102.12H63.4197C80.7197 102.12 94.8697 93.63 101.3 79.53C102.44 77 103.43 74.13 102.07 71.62Z" fill="#49362E" style="fill:#49362E;fill:color(display-p3 0.2863 0.2118 0.1804);fill-opacity:1;"/>
<path d="M102.07 71.62C100.67 69.09 97.6297 67.98 94.9297 69C84.6697 71.99 74.0297 73.48 63.3397 73.43C52.6497 73.48 42.0097 71.99 31.7497 69C29.0597 67.98 26.0197 69.08 24.6197 71.6C23.2597 74.11 24.2397 77.02 25.3897 79.53C31.8097 93.63 45.9597 102.07 63.2597 102.12H63.4197C80.7197 102.12 94.8697 93.63 101.3 79.53C102.44 77 103.43 74.13 102.07 71.62Z" fill="#1A1717" style="fill:#1A1717;fill:color(display-p3 0.1020 0.0902 0.0902);fill-opacity:1;"/>
<path d="M102.07 71.62C100.67 69.09 97.6297 67.98 94.9297 69C84.6697 71.99 74.0297 73.48 63.3397 73.43C52.6497 73.48 42.0097 71.99 31.7497 69C29.0597 67.98 26.0197 69.08 24.6197 71.6C23.2597 74.11 24.2397 77.02 25.3897 79.53C31.8097 93.63 45.9597 102.07 63.2597 102.12H63.4197C80.7197 102.12 94.8697 93.63 101.3 79.53C102.44 77 103.43 74.13 102.07 71.62Z" fill="#5D4037" style="fill:#5D4037;fill:color(display-p3 0.3647 0.2510 0.2157);fill-opacity:1;"/>
<path d="M79.3495 98.14C78.9795 97.8 78.5996 97.49 78.2196 97.14C74.1396 93.55 68.8595 91.62 63.4195 91.73C57.8195 91.64 52.3695 93.5 47.9995 97C47.6195 97.31 47.2195 97.61 46.8495 98C46.4795 98.39 46.2796 98.67 46.0396 99C51.5396 101.15 57.3996 102.25 63.3096 102.22H63.4696C69.1296 102.22 74.7396 101.21 80.0396 99.22C79.8396 98.84 79.6095 98.48 79.3495 98.14Z" fill="#ED7770" style="fill:#ED7770;fill:color(display-p3 0.9294 0.4667 0.4392);fill-opacity:1;"/>
<path d="M94.9297 69C84.6697 71.99 74.0297 73.48 63.3397 73.43C52.6497 73.48 42.0097 71.99 31.7497 69C29.0597 67.98 26.0197 69.08 24.6197 71.6C24.4197 71.98 24.2597 72.38 24.1597 72.79C24.4897 72.96 24.8697 73.13 25.3197 73.31C37.3597 79.34 50.6697 82.4 64.1297 82.24C77.0397 82.39 89.7997 79.58 101.46 74.04C101.93 73.84 102.32 73.65 102.67 73.47C102.59 72.82 102.38 72.18 102.07 71.6C100.67 69.08 97.6297 67.97 94.9297 69Z" fill="white" style="fill:white;fill-opacity:1;"/>
<path d="M102.11 71.63C100.69 69.1 97.6397 67.98 94.9197 69C84.6597 71.99 74.0197 73.48 63.3397 73.43C52.6497 73.48 42.0097 71.99 31.7497 69C29.0597 67.98 26.0197 69.08 24.6197 71.6C23.2597 74.11 24.2397 77.02 25.3897 79.53C25.8997 80.66 26.4697 81.77 27.0997 82.84C27.0997 82.84 24.9997 75.06 26.8197 72.8C27.4397 71.84 28.4797 71.24 29.6197 71.18C30.0897 71.18 30.5497 71.26 30.9997 71.4C41.4397 74.47 52.2697 76.02 63.1597 76H63.5097C74.3997 76.02 85.2297 74.47 95.6697 71.4C96.1197 71.26 96.5797 71.18 97.0497 71.18C98.1897 71.24 99.2397 71.84 99.8597 72.8C101.71 75.06 99.5797 82.87 99.5797 82.87C100.2 81.8 100.82 80.7 101.34 79.56C102.48 77.05 103.47 74.15 102.11 71.63Z" fill="#EB8F00" style="fill:#EB8F00;fill:color(display-p3 0.9216 0.5608 0.0000);fill-opacity:1;"/>
<path d="M102.11 71.63C100.69 69.1 97.6397 67.98 94.9197 69C84.6597 71.99 74.0197 73.48 63.3397 73.43C52.6497 73.48 42.0097 71.99 31.7497 69C29.0597 67.98 26.0197 69.08 24.6197 71.6C23.2597 74.11 24.2397 77.02 25.3897 79.53C25.8997 80.66 26.4697 81.77 27.0997 82.84C27.0997 82.84 24.9997 75.06 26.8197 72.8C27.4397 71.84 28.4797 71.24 29.6197 71.18C30.0897 71.18 30.5497 71.26 30.9997 71.4C41.4397 74.47 52.2697 76.02 63.1597 76H63.5097C74.3997 76.02 85.2297 74.47 95.6697 71.4C96.1197 71.26 96.5797 71.18 97.0497 71.18C98.1897 71.24 99.2397 71.84 99.8597 72.8C101.71 75.06 99.5797 82.87 99.5797 82.87C100.2 81.8 100.82 80.7 101.34 79.56C102.48 77.05 103.47 74.15 102.11 71.63Z" fill="#91674D" style="fill:#91674D;fill:color(display-p3 0.5686 0.4039 0.3020);fill-opacity:1;"/>
<defs>
<radialGradient id="paint0_radial_169_12229" cx="0" cy="0" r="1" gradientUnits="userSpaceOnUse" gradientTransform="translate(63.6001 62.9) scale(56.9597 56.9597)">
<stop offset="0.5" stop-color="#FDE030" style="stop-color:#FDE030;stop-color:color(display-p3 0.9922 0.8784 0.1882);stop-opacity:1;"/>
<stop offset="0.92" stop-color="#F7C02B" style="stop-color:#F7C02B;stop-color:color(display-p3 0.9686 0.7529 0.1686);stop-opacity:1;"/>
<stop offset="1" stop-color="#F4A223" style="stop-color:#F4A223;stop-color:color(display-p3 0.9569 0.6353 0.1373);stop-opacity:1;"/>
</radialGradient>
<radialGradient id="paint1_radial_169_12229" cx="0" cy="0" r="1" gradientUnits="userSpaceOnUse" gradientTransform="translate(38.5991 34.5377) rotate(-43.2082) scale(102.024 101.825)">
<stop offset="0.3533" stop-color="#F9DDBD" style="stop-color:#F9DDBD;stop-color:color(display-p3 0.9765 0.8667 0.7412);stop-opacity:1;"/>
<stop offset="0.8723" stop-color="#FFD29C" style="stop-color:#FFD29C;stop-color:color(display-p3 1.0000 0.8235 0.6118);stop-opacity:1;"/>
</radialGradient>
<radialGradient id="paint2_radial_169_12229" cx="0" cy="0" r="1" gradientUnits="userSpaceOnUse" gradientTransform="translate(38.5991 34.5377) rotate(-43.2082) scale(102.024 101.825)">
<stop offset="0.3533" stop-color="#70534A" style="stop-color:#70534A;stop-color:color(display-p3 0.4392 0.3255 0.2902);stop-opacity:1;"/>
<stop offset="0.8723" stop-color="#5C4037" style="stop-color:#5C4037;stop-color:color(display-p3 0.3608 0.2510 0.2157);stop-opacity:1;"/>
</radialGradient>
<radialGradient id="paint3_radial_169_12229" cx="0" cy="0" r="1" gradientUnits="userSpaceOnUse" gradientTransform="translate(38.5991 34.5377) rotate(-43.2082) scale(102.024 101.825)">
<stop offset="0.3533" stop-color="#A37A58" style="stop-color:#A37A58;stop-color:color(display-p3 0.6375 0.4772 0.3453);stop-opacity:1;"/>
<stop offset="0.8723" stop-color="#8D5738" style="stop-color:#8D5738;stop-color:color(display-p3 0.5529 0.3412 0.2196);stop-opacity:1;"/>
</radialGradient>
<radialGradient id="paint4_radial_169_12229" cx="0" cy="0" r="1" gradientUnits="userSpaceOnUse" gradientTransform="translate(38.5991 34.5377) rotate(-43.2082) scale(102.024 101.825)">
<stop offset="0.3533" stop-color="#AD8264" style="stop-color:#AD8264;stop-color:color(display-p3 0.6784 0.5098 0.3922);stop-opacity:1;"/>
<stop offset="0.8723" stop-color="#A47B62" style="stop-color:#A47B62;stop-color:color(display-p3 0.6431 0.4824 0.3843);stop-opacity:1;"/>
</radialGradient>
<radialGradient id="paint5_radial_169_12229" cx="0" cy="0" r="1" gradientUnits="userSpaceOnUse" gradientTransform="translate(94.5202 40.348) scale(23.9109 23.9109)">
<stop offset="0.2" stop-color="#FF4081" style="stop-color:#FF4081;stop-color:color(display-p3 1.0000 0.2510 0.5059);stop-opacity:1;"/>
<stop offset="0.88" stop-color="#CC1775" style="stop-color:#CC1775;stop-color:color(display-p3 0.8000 0.0902 0.4588);stop-opacity:1;"/>
</radialGradient>
</defs>
</svg>
