<svg width="128" height="128" viewBox="0 0 128 128" fill="none" xmlns="http://www.w3.org/2000/svg">
<path d="M63.6001 118.8C35.7001 118.8 5.6001 101.3 5.6001 62.9C5.6001 24.5 35.7001 7 63.6001 7C79.1001 7 93.4001 12.1 104 21.4C115.5 31.6 121.6 46 121.6 62.9C121.6 79.8 115.5 94.1 104 104.3C93.4001 113.6 79.0001 118.8 63.6001 118.8Z" fill="url(#paint0_radial_169_13439)" style=""/>
<path d="M111.49 29.67C116.82 38.27 119.6 48.51 119.6 59.9C119.6 76.8 113.5 91.1 102 101.3C91.4002 110.6 77.0002 115.8 61.6002 115.8C43.5402 115.8 24.6002 108.45 13.4202 92.86C24.1802 110.52 44.4202 118.8 63.6002 118.8C79.0002 118.8 93.4002 113.6 104 104.3C115.5 94.1001 121.6 79.8 121.6 62.9C121.6 50.16 118.13 38.84 111.49 29.67Z" fill="#EB8F00" style="fill:#EB8F00;fill:color(display-p3 0.9216 0.5608 0.0000);fill-opacity:1;"/>
<path d="M63.6001 118.8C35.7001 118.8 5.6001 101.3 5.6001 62.9C5.6001 24.5 35.7001 7 63.6001 7C79.1001 7 93.4001 12.1 104 21.4C115.5 31.6 121.6 46 121.6 62.9C121.6 79.8 115.5 94.1 104 104.3C93.4001 113.6 79.0001 118.8 63.6001 118.8Z" fill="url(#paint1_linear_169_13439)" style=""/>
<path d="M63.6001 118.8C35.7001 118.8 5.6001 101.3 5.6001 62.9C5.6001 24.5 35.7001 7 63.6001 7C79.1001 7 93.4001 12.1 104 21.4C115.5 31.6 121.6 46 121.6 62.9C121.6 79.8 115.5 94.1 104 104.3C93.4001 113.6 79.0001 118.8 63.6001 118.8Z" fill="url(#paint2_linear_169_13439)" style=""/>
<path d="M63.6001 118.8C35.7001 118.8 5.6001 101.3 5.6001 62.9C5.6001 24.5 35.7001 7 63.6001 7C79.1001 7 93.4001 12.1 104 21.4C115.5 31.6 121.6 46 121.6 62.9C121.6 79.8 115.5 94.1 104 104.3C93.4001 113.6 79.0001 118.8 63.6001 118.8Z" fill="url(#paint3_radial_169_13439)" style=""/>
<path d="M63.6001 118.8C35.7001 118.8 5.6001 101.3 5.6001 62.9C5.6001 24.5 35.7001 7 63.6001 7C79.1001 7 93.4001 12.1 104 21.4C115.5 31.6 121.6 46 121.6 62.9C121.6 79.8 115.5 94.1 104 104.3C93.4001 113.6 79.0001 118.8 63.6001 118.8Z" fill="url(#paint4_radial_169_13439)" style=""/>
<path d="M63.6001 118.8C35.7001 118.8 5.6001 101.3 5.6001 62.9C5.6001 24.5 35.7001 7 63.6001 7C79.1001 7 93.4001 12.1 104 21.4C115.5 31.6 121.6 46 121.6 62.9C121.6 79.8 115.5 94.1 104 104.3C93.4001 113.6 79.0001 118.8 63.6001 118.8Z" fill="url(#paint5_radial_169_13439)" style=""/>
<path d="M63.6001 118.8C35.7001 118.8 5.6001 101.3 5.6001 62.9C5.6001 24.5 35.7001 7 63.6001 7C79.1001 7 93.4001 12.1 104 21.4C115.5 31.6 121.6 46 121.6 62.9C121.6 79.8 115.5 94.1 104 104.3C93.4001 113.6 79.0001 118.8 63.6001 118.8Z" fill="url(#paint6_radial_169_13439)" style=""/>
<path d="M63.6001 118.8C35.7001 118.8 5.6001 101.3 5.6001 62.9C5.6001 24.5 35.7001 7 63.6001 7C79.1001 7 93.4001 12.1 104 21.4C115.5 31.6 121.6 46 121.6 62.9C121.6 79.8 115.5 94.1 104 104.3C93.4001 113.6 79.0001 118.8 63.6001 118.8Z" fill="url(#paint7_linear_169_13439)" style=""/>
<path d="M111.49 29.67C116.82 38.27 119.6 48.51 119.6 59.9C119.6 76.8 113.5 91.1 102 101.3C91.4002 110.6 77.0002 115.8 61.6002 115.8C43.5402 115.8 24.6002 108.45 13.4202 92.86C24.1802 110.52 44.4202 118.8 63.6002 118.8C79.0002 118.8 93.4002 113.6 104 104.3C115.5 94.1001 121.6 79.8 121.6 62.9C121.6 50.16 118.13 38.84 111.49 29.67Z" fill="#EB8F00" style="fill:#EB8F00;fill:color(display-p3 0.9216 0.5608 0.0000);fill-opacity:1;"/>
<path d="M111.49 29.67C116.82 38.27 119.6 48.51 119.6 59.9C119.6 76.8 113.5 91.1 102 101.3C91.4002 110.6 77.0002 115.8 61.6002 115.8C43.5402 115.8 24.6002 108.45 13.4202 92.86C24.1802 110.52 44.4202 118.8 63.6002 118.8C79.0002 118.8 93.4002 113.6 104 104.3C115.5 94.1001 121.6 79.8 121.6 62.9C121.6 50.16 118.13 38.84 111.49 29.67Z" fill="#F3B872" style="fill:#F3B872;fill:color(display-p3 0.9542 0.7229 0.4453);fill-opacity:1;"/>
<path d="M111.49 29.67C116.82 38.27 119.6 48.51 119.6 59.9C119.6 76.8 113.5 91.1 102 101.3C91.4002 110.6 77.0002 115.8 61.6002 115.8C43.5402 115.8 24.6002 108.45 13.4202 92.86C24.1802 110.52 44.4202 118.8 63.6002 118.8C79.0002 118.8 93.4002 113.6 104 104.3C115.5 94.1001 121.6 79.8 121.6 62.9C121.6 50.16 118.13 38.84 111.49 29.67Z" fill="#91674D" style="fill:#91674D;fill:color(display-p3 0.5686 0.4039 0.3020);fill-opacity:1;"/>
<path d="M64.0001 109.73C57.9801 109.69 53.1101 104.82 53.0701 98.8V86.2C53.0701 80.16 57.9601 75.27 64.0001 75.27C70.0401 75.27 74.9301 80.16 74.9301 86.2V98.81C74.8901 104.83 70.0201 109.69 64.0001 109.73Z" fill="#49362E" style="fill:#49362E;fill:color(display-p3 0.2863 0.2118 0.1804);fill-opacity:1;"/>
<path d="M64.0001 109.73C57.9801 109.69 53.1101 104.82 53.0701 98.8V86.2C53.0701 80.16 57.9601 75.27 64.0001 75.27C70.0401 75.27 74.9301 80.16 74.9301 86.2V98.81C74.8901 104.83 70.0201 109.69 64.0001 109.73Z" fill="#1A1717" style="fill:#1A1717;fill:color(display-p3 0.1020 0.0902 0.0902);fill-opacity:1;"/>
<path d="M64.0001 109.73C57.9801 109.69 53.1101 104.82 53.0701 98.8V86.2C53.0701 80.16 57.9601 75.27 64.0001 75.27C70.0401 75.27 74.9301 80.16 74.9301 86.2V98.81C74.8901 104.83 70.0201 109.69 64.0001 109.73Z" fill="#5D4037" style="fill:#5D4037;fill:color(display-p3 0.3647 0.2510 0.2157);fill-opacity:1;"/>
<path d="M43.29 41.8201C45.33 41.8201 47.33 42.4101 49.05 43.5101C54.69 47.0801 57.05 55.5101 52.5 64.2201C49.36 70.2201 44.64 72.9901 40.17 72.9901C38.13 72.9901 36.13 72.4001 34.41 71.3001C28.77 67.7301 26.41 59.3001 30.96 50.5901C34.1 44.5901 38.81 41.8201 43.29 41.8201Z" fill="white" style="fill:white;fill-opacity:1;"/>
<path opacity="0.66" d="M118.94 73C117.57 72 117.74 70.89 113.94 72.42C112.37 73.06 110.57 76.66 110.57 76.66C110.57 76.66 107.86 71.24 102.5 78.45C92.76 91.53 88.4999 90.93 82.7699 96.93C79.0799 100.77 75.89 104.43 77.12 111.7C77.81 115.76 79.7399 116.87 79.7399 116.87C79.7399 116.87 80.92 116.87 92.5 110.87C104.08 104.87 114.19 96.38 119.75 82.78" fill="url(#paint8_linear_169_13439)" style=""/>
<path d="M87.7399 99.52C92.0899 96.22 96.2899 93.19 98.2699 90.58C100.25 87.97 102.38 82.5 103.66 78.92C104.94 75.34 108.66 73.59 110.66 76.65C111.18 77.47 110.77 80.65 110.66 81.87C111.75 80.06 112.52 78.07 112.94 76C113.94 71.12 119.04 69.54 119.94 76.1C119.94 76.1 123.73 76.25 122.05 88.01C121.21 92.59 119.7 97.03 117.55 101.16C112.16 111.32 107.94 116.03 102.48 119.77C93.9399 125.61 85.8499 124.22 83.3199 120.9C78.9999 115.19 80.1599 105.27 87.7399 99.52Z" fill="url(#paint9_radial_169_13439)" style=""/>
<path d="M87.7399 99.52C92.0899 96.22 96.2899 93.19 98.2699 90.58C100.25 87.97 102.38 82.5 103.66 78.92C104.94 75.34 108.66 73.59 110.66 76.65C111.18 77.47 110.77 80.65 110.66 81.87C111.75 80.06 112.52 78.07 112.94 76C113.94 71.12 119.04 69.54 119.94 76.1C119.94 76.1 123.73 76.25 122.05 88.01C121.21 92.59 119.7 97.03 117.55 101.16C112.16 111.32 107.94 116.03 102.48 119.77C93.9399 125.61 85.8499 124.22 83.3199 120.9C78.9999 115.19 80.1599 105.27 87.7399 99.52Z" fill="url(#paint10_radial_169_13439)" style=""/>
<path d="M87.7399 99.52C92.0899 96.22 96.2899 93.19 98.2699 90.58C100.25 87.97 102.38 82.5 103.66 78.92C104.94 75.34 108.66 73.59 110.66 76.65C111.18 77.47 110.77 80.65 110.66 81.87C111.75 80.06 112.52 78.07 112.94 76C113.94 71.12 119.04 69.54 119.94 76.1C119.94 76.1 123.73 76.25 122.05 88.01C121.21 92.59 119.7 97.03 117.55 101.16C112.16 111.32 107.94 116.03 102.48 119.77C93.9399 125.61 85.8499 124.22 83.3199 120.9C78.9999 115.19 80.1599 105.27 87.7399 99.52Z" fill="url(#paint11_radial_169_13439)" style=""/>
<path d="M87.7399 99.52C92.0899 96.22 96.2899 93.19 98.2699 90.58C100.25 87.97 102.38 82.5 103.66 78.92C104.94 75.34 108.66 73.59 110.66 76.65C111.18 77.47 110.77 80.65 110.66 81.87C111.75 80.06 112.52 78.07 112.94 76C113.94 71.12 119.04 69.54 119.94 76.1C119.94 76.1 123.73 76.25 122.05 88.01C121.21 92.59 119.7 97.03 117.55 101.16C112.16 111.32 107.94 116.03 102.48 119.77C93.9399 125.61 85.8499 124.22 83.3199 120.9C78.9999 115.19 80.1599 105.27 87.7399 99.52Z" fill="url(#paint12_radial_169_13439)" style=""/>
<path d="M87.7399 99.52C92.0899 96.22 96.2899 93.19 98.2699 90.58C100.25 87.97 102.38 82.5 103.66 78.92C104.94 75.34 108.66 73.59 110.66 76.65C111.18 77.47 110.77 80.65 110.66 81.87C111.75 80.06 112.52 78.07 112.94 76C113.94 71.12 119.04 69.54 119.94 76.1C119.94 76.1 123.73 76.25 122.05 88.01C121.21 92.59 119.7 97.03 117.55 101.16C112.16 111.32 107.94 116.03 102.48 119.77C93.9399 125.61 85.8499 124.22 83.3199 120.9C78.9999 115.19 80.1599 105.27 87.7399 99.52Z" fill="url(#paint13_radial_169_13439)" style=""/>
<path d="M87.7399 99.52C92.0899 96.22 96.2899 93.19 98.2699 90.58C100.25 87.97 102.38 82.5 103.66 78.92C104.94 75.34 108.66 73.59 110.66 76.65C111.18 77.47 110.77 80.65 110.66 81.87C111.75 80.06 112.52 78.07 112.94 76C113.94 71.12 119.04 69.54 119.94 76.1C119.94 76.1 123.73 76.25 122.05 88.01C121.21 92.59 119.7 97.03 117.55 101.16C112.16 111.32 107.94 116.03 102.48 119.77C93.9399 125.61 85.8499 124.22 83.3199 120.9C78.9999 115.19 80.1599 105.27 87.7399 99.52Z" fill="url(#paint14_radial_169_13439)" style=""/>
<path d="M110.62 76.65C110.62 78.6 108.74 85.39 108.03 87.13C105.58 93.58 101.11 96.58 102.36 97.6C103.61 98.62 106 96.45 109.45 88.26C110.51 85.47 111.13 82.54 111.27 79.56C111.26 78.55 111.04 77.56 110.62 76.65Z" fill="#46281F" style="fill:#46281F;fill:color(display-p3 0.2750 0.1574 0.1226);fill-opacity:1;"/>
<path d="M117.2 71.71C118.47 72.26 120.36 75.88 117.53 86.02C115.78 93.68 109.96 99.64 111.36 100.31C113.01 101.42 116.78 95.17 119.45 86.51C120.15 83.89 120.59 81.21 120.74 78.51C120.78 77.15 120.32 72.08 117.2 71.71Z" fill="#46281F" style="fill:#46281F;fill:color(display-p3 0.2750 0.1574 0.1226);fill-opacity:1;"/>
<path opacity="0.66" d="M8.52997 73C9.89997 72 9.72997 70.89 13.53 72.42C15.1 73.06 16.9 76.66 16.9 76.66C16.9 76.66 19.61 71.24 24.97 78.45C34.71 91.53 38.97 90.93 44.7 96.93C48.38 100.77 51.57 104.43 50.34 111.7C49.66 115.76 47.73 116.87 47.73 116.87C47.73 116.87 45.81 116.87 36.6 112.17C35.81 111.77 35.88 111.36 34.97 110.88C23.39 104.88 13.28 96.39 7.71997 82.79" fill="url(#paint15_linear_169_13439)" style=""/>
<path d="M39.73 99.52C35.38 96.22 31.18 93.19 29.2 90.58C27.22 87.97 25.09 82.5 23.8 78.92C22.51 75.34 18.8 73.59 16.85 76.65C16.33 77.47 16.74 80.65 16.85 81.87C15.75 80.06 14.96 78.07 14.53 76C13.53 71.12 8.43002 69.54 7.53002 76.1C7.53002 76.1 3.74002 76.25 5.42002 88.01C6.26002 92.59 7.77002 97.03 9.92002 101.16C15.3 111.32 19.53 116.03 24.99 119.77C33.52 125.61 41.61 124.22 44.15 120.9C48.44 115.19 47.31 105.27 39.73 99.52Z" fill="url(#paint16_radial_169_13439)" style=""/>
<path d="M39.73 99.52C35.38 96.22 31.18 93.19 29.2 90.58C27.22 87.97 25.09 82.5 23.8 78.92C22.51 75.34 18.8 73.59 16.85 76.65C16.33 77.47 16.74 80.65 16.85 81.87C15.75 80.06 14.96 78.07 14.53 76C13.53 71.12 8.43002 69.54 7.53002 76.1C7.53002 76.1 3.74002 76.25 5.42002 88.01C6.26002 92.59 7.77002 97.03 9.92002 101.16C15.3 111.32 19.53 116.03 24.99 119.77C33.52 125.61 41.61 124.22 44.15 120.9C48.44 115.19 47.31 105.27 39.73 99.52Z" fill="url(#paint17_radial_169_13439)" style=""/>
<path d="M39.73 99.52C35.38 96.22 31.18 93.19 29.2 90.58C27.22 87.97 25.09 82.5 23.8 78.92C22.51 75.34 18.8 73.59 16.85 76.65C16.33 77.47 16.74 80.65 16.85 81.87C15.75 80.06 14.96 78.07 14.53 76C13.53 71.12 8.43002 69.54 7.53002 76.1C7.53002 76.1 3.74002 76.25 5.42002 88.01C6.26002 92.59 7.77002 97.03 9.92002 101.16C15.3 111.32 19.53 116.03 24.99 119.77C33.52 125.61 41.61 124.22 44.15 120.9C48.44 115.19 47.31 105.27 39.73 99.52Z" fill="url(#paint18_radial_169_13439)" style=""/>
<path d="M39.73 99.52C35.38 96.22 31.18 93.19 29.2 90.58C27.22 87.97 25.09 82.5 23.8 78.92C22.51 75.34 18.8 73.59 16.85 76.65C16.33 77.47 16.74 80.65 16.85 81.87C15.75 80.06 14.96 78.07 14.53 76C13.53 71.12 8.43002 69.54 7.53002 76.1C7.53002 76.1 3.74002 76.25 5.42002 88.01C6.26002 92.59 7.77002 97.03 9.92002 101.16C15.3 111.32 19.53 116.03 24.99 119.77C33.52 125.61 41.61 124.22 44.15 120.9C48.44 115.19 47.31 105.27 39.73 99.52Z" fill="url(#paint19_radial_169_13439)" style=""/>
<path d="M39.73 99.52C35.38 96.22 31.18 93.19 29.2 90.58C27.22 87.97 25.09 82.5 23.8 78.92C22.51 75.34 18.8 73.59 16.85 76.65C16.33 77.47 16.74 80.65 16.85 81.87C15.75 80.06 14.96 78.07 14.53 76C13.53 71.12 8.43002 69.54 7.53002 76.1C7.53002 76.1 3.74002 76.25 5.42002 88.01C6.26002 92.59 7.77002 97.03 9.92002 101.16C15.3 111.32 19.53 116.03 24.99 119.77C33.52 125.61 41.61 124.22 44.15 120.9C48.44 115.19 47.31 105.27 39.73 99.52Z" fill="url(#paint20_radial_169_13439)" style=""/>
<path d="M39.73 99.52C35.38 96.22 31.18 93.19 29.2 90.58C27.22 87.97 25.09 82.5 23.8 78.92C22.51 75.34 18.8 73.59 16.85 76.65C16.33 77.47 16.74 80.65 16.85 81.87C15.75 80.06 14.96 78.07 14.53 76C13.53 71.12 8.43002 69.54 7.53002 76.1C7.53002 76.1 3.74002 76.25 5.42002 88.01C6.26002 92.59 7.77002 97.03 9.92002 101.16C15.3 111.32 19.53 116.03 24.99 119.77C33.52 125.61 41.61 124.22 44.15 120.9C48.44 115.19 47.31 105.27 39.73 99.52Z" fill="url(#paint21_radial_169_13439)" style=""/>
<path d="M16.85 76.65C16.85 78.6 18.73 85.39 19.44 87.13C21.89 93.58 26.35 96.58 25.11 97.6C23.87 98.62 21.46 96.45 18.01 88.26C16.95 85.47 16.34 82.54 16.2 79.56C16.2 78.55 16.42 77.56 16.85 76.65Z" fill="#46281F" style="fill:#46281F;fill:color(display-p3 0.2750 0.1574 0.1226);fill-opacity:1;"/>
<path d="M10.2601 71.71C9.00006 72.26 7.11006 75.88 9.94006 86C11.6901 93.66 17.5101 99.62 16.1101 100.29C14.4601 101.4 10.6901 95.15 8.02006 86.49C7.32006 83.87 6.88006 81.19 6.73006 78.49C6.69006 77.15 7.15006 72.08 10.2601 71.71Z" fill="#46281F" style="fill:#46281F;fill:color(display-p3 0.2750 0.1574 0.1226);fill-opacity:1;"/>
<path d="M52.6299 64.2901C51.8899 66.9001 50.5199 69.2801 48.6299 71.2301C46.5899 73.3401 43.8999 74.7001 40.9999 75.1001C37.8899 75.4901 34.7399 74.6801 32.1999 72.8501C29.6999 71.0301 27.8199 68.4701 26.8299 65.5401C26.5999 64.8301 26.4099 64.1001 26.2699 63.3601C26.1399 62.6301 26.0499 61.8901 25.9999 61.1501L25.9299 60.0001L25.9799 58.9001C26.0099 58.1701 26.0899 57.4501 26.2299 56.7301C26.7799 53.9701 27.8699 51.3401 29.4299 49.0001C30.9399 46.6101 32.9999 44.6201 35.4299 43.1801C37.7999 41.7501 40.6099 41.2301 43.3399 41.7101V42.0001C40.8099 42.0501 38.3499 42.9101 36.3399 44.4501C34.3399 45.9801 32.6899 47.9301 31.4999 50.1501C30.2499 52.3301 29.4099 54.7101 28.9999 57.1901C28.6199 59.6701 28.8299 62.2001 29.6199 64.5801C30.3799 66.9601 31.8499 69.0601 33.8399 70.5801C35.8299 72.1301 38.3199 72.9001 40.8399 72.7401C43.3399 72.5601 45.7299 71.6001 47.6599 70.0001C49.6099 68.3901 51.2099 66.4101 52.3699 64.1601L52.6299 64.2901Z" fill="#EB8F00" style="fill:#EB8F00;fill:color(display-p3 0.9216 0.5608 0.0000);fill-opacity:1;"/>
<path d="M52.6299 64.2901C51.8899 66.9001 50.5199 69.2801 48.6299 71.2301C46.5899 73.3401 43.8999 74.7001 40.9999 75.1001C37.8899 75.4901 34.7399 74.6801 32.1999 72.8501C29.6999 71.0301 27.8199 68.4701 26.8299 65.5401C26.5999 64.8301 26.4099 64.1001 26.2699 63.3601C26.1399 62.6301 26.0499 61.8901 25.9999 61.1501L25.9299 60.0001L25.9799 58.9001C26.0099 58.1701 26.0899 57.4501 26.2299 56.7301C26.7799 53.9701 27.8699 51.3401 29.4299 49.0001C30.9399 46.6101 32.9999 44.6201 35.4299 43.1801C37.7999 41.7501 40.6099 41.2301 43.3399 41.7101V42.0001C40.8099 42.0501 38.3499 42.9101 36.3399 44.4501C34.3399 45.9801 32.6899 47.9301 31.4999 50.1501C30.2499 52.3301 29.4099 54.7101 28.9999 57.1901C28.6199 59.6701 28.8299 62.2001 29.6199 64.5801C30.3799 66.9601 31.8499 69.0601 33.8399 70.5801C35.8299 72.1301 38.3199 72.9001 40.8399 72.7401C43.3399 72.5601 45.7299 71.6001 47.6599 70.0001C49.6099 68.3901 51.2099 66.4101 52.3699 64.1601L52.6299 64.2901Z" fill="#F3B872" style="fill:#F3B872;fill:color(display-p3 0.9542 0.7229 0.4453);fill-opacity:1;"/>
<path d="M52.6299 64.2901C51.8899 66.9001 50.5199 69.2801 48.6299 71.2301C46.5899 73.3401 43.8999 74.7001 40.9999 75.1001C37.8899 75.4901 34.7399 74.6801 32.1999 72.8501C29.6999 71.0301 27.8199 68.4701 26.8299 65.5401C26.5999 64.8301 26.4099 64.1001 26.2699 63.3601C26.1399 62.6301 26.0499 61.8901 25.9999 61.1501L25.9299 60.0001L25.9799 58.9001C26.0099 58.1701 26.0899 57.4501 26.2299 56.7301C26.7799 53.9701 27.8699 51.3401 29.4299 49.0001C30.9399 46.6101 32.9999 44.6201 35.4299 43.1801C37.7999 41.7501 40.6099 41.2301 43.3399 41.7101V42.0001C40.8099 42.0501 38.3499 42.9101 36.3399 44.4501C34.3399 45.9801 32.6899 47.9301 31.4999 50.1501C30.2499 52.3301 29.4099 54.7101 28.9999 57.1901C28.6199 59.6701 28.8299 62.2001 29.6199 64.5801C30.3799 66.9601 31.8499 69.0601 33.8399 70.5801C35.8299 72.1301 38.3199 72.9001 40.8399 72.7401C43.3399 72.5601 45.7299 71.6001 47.6599 70.0001C49.6099 68.3901 51.2099 66.4101 52.3699 64.1601L52.6299 64.2901Z" fill="#91674D" style="fill:#91674D;fill:color(display-p3 0.5686 0.4039 0.3020);fill-opacity:1;"/>
<path d="M84.81 41.8201C89.29 41.8201 94 44.6201 97.14 50.5901C101.71 59.2601 99.33 67.7301 93.69 71.3001C91.97 72.4101 89.97 73.0001 87.93 73.0001C83.46 73.0001 78.74 70.2001 75.6 64.2301C71 55.5501 73.41 47.0801 79.05 43.5101C80.77 42.4101 82.77 41.8201 84.81 41.8201Z" fill="white" style="fill:white;fill-opacity:1;"/>
<path d="M84.81 41.67C87.54 41.19 90.35 41.71 92.72 43.14C95.15 44.58 97.21 46.57 98.72 48.96C100.29 51.33 101.38 53.98 101.92 56.77C102.05 57.49 102.14 58.21 102.17 58.94V60.04V61.15C102.11 62.64 101.83 64.12 101.35 65.54C100.36 68.47 98.49 71.02 95.98 72.84C93.44 74.68 90.3 75.48 87.19 75.09C84.26 74.7 81.55 73.34 79.5 71.22C77.61 69.28 76.23 66.9 75.5 64.29L75.76 64.15C76.91 66.39 78.5 68.38 80.44 70C82.38 71.61 84.77 72.57 87.28 72.75C89.8 72.91 92.29 72.14 94.28 70.59C96.26 69.06 97.73 66.97 98.49 64.59C99.28 62.21 99.49 59.68 99.11 57.2C98.72 54.72 97.89 52.32 96.65 50.13C95.46 47.91 93.81 45.96 91.81 44.43C89.8 42.89 87.34 42.03 84.81 41.98V41.67Z" fill="#EB8F00" style="fill:#EB8F00;fill:color(display-p3 0.9216 0.5608 0.0000);fill-opacity:1;"/>
<path d="M84.81 41.67C87.54 41.19 90.35 41.71 92.72 43.14C95.15 44.58 97.21 46.57 98.72 48.96C100.29 51.33 101.38 53.98 101.92 56.77C102.05 57.49 102.14 58.21 102.17 58.94V60.04V61.15C102.11 62.64 101.83 64.12 101.35 65.54C100.36 68.47 98.49 71.02 95.98 72.84C93.44 74.68 90.3 75.48 87.19 75.09C84.26 74.7 81.55 73.34 79.5 71.22C77.61 69.28 76.23 66.9 75.5 64.29L75.76 64.15C76.91 66.39 78.5 68.38 80.44 70C82.38 71.61 84.77 72.57 87.28 72.75C89.8 72.91 92.29 72.14 94.28 70.59C96.26 69.06 97.73 66.97 98.49 64.59C99.28 62.21 99.49 59.68 99.11 57.2C98.72 54.72 97.89 52.32 96.65 50.13C95.46 47.91 93.81 45.96 91.81 44.43C89.8 42.89 87.34 42.03 84.81 41.98V41.67Z" fill="#F3B872" style="fill:#F3B872;fill:color(display-p3 0.9542 0.7229 0.4453);fill-opacity:1;"/>
<path d="M84.81 41.67C87.54 41.19 90.35 41.71 92.72 43.14C95.15 44.58 97.21 46.57 98.72 48.96C100.29 51.33 101.38 53.98 101.92 56.77C102.05 57.49 102.14 58.21 102.17 58.94V60.04V61.15C102.11 62.64 101.83 64.12 101.35 65.54C100.36 68.47 98.49 71.02 95.98 72.84C93.44 74.68 90.3 75.48 87.19 75.09C84.26 74.7 81.55 73.34 79.5 71.22C77.61 69.28 76.23 66.9 75.5 64.29L75.76 64.15C76.91 66.39 78.5 68.38 80.44 70C82.38 71.61 84.77 72.57 87.28 72.75C89.8 72.91 92.29 72.14 94.28 70.59C96.26 69.06 97.73 66.97 98.49 64.59C99.28 62.21 99.49 59.68 99.11 57.2C98.72 54.72 97.89 52.32 96.65 50.13C95.46 47.91 93.81 45.96 91.81 44.43C89.8 42.89 87.34 42.03 84.81 41.98V41.67Z" fill="#91674D" style="fill:#91674D;fill:color(display-p3 0.5686 0.4039 0.3020);fill-opacity:1;"/>
<defs>
<radialGradient id="paint0_radial_169_13439" cx="0" cy="0" r="1" gradientUnits="userSpaceOnUse" gradientTransform="translate(63.6001 62.9) scale(56.9597 56.9597)">
<stop offset="0.5" stop-color="#FDE030" style="stop-color:#FDE030;stop-color:color(display-p3 0.9922 0.8784 0.1882);stop-opacity:1;"/>
<stop offset="0.92" stop-color="#F7C02B" style="stop-color:#F7C02B;stop-color:color(display-p3 0.9686 0.7529 0.1686);stop-opacity:1;"/>
<stop offset="1" stop-color="#F4A223" style="stop-color:#F4A223;stop-color:color(display-p3 0.9569 0.6353 0.1373);stop-opacity:1;"/>
</radialGradient>
<linearGradient id="paint1_linear_169_13439" x1="63.6001" y1="118.8" x2="63.6001" y2="7" gradientUnits="userSpaceOnUse">
<stop offset="0.39" stop-color="#40C0E7" stop-opacity="0" style="stop-color:none;stop-opacity:0;"/>
<stop offset="1" stop-color="#5F7AFF" style="stop-color:#5F7AFF;stop-color:color(display-p3 0.3725 0.4784 1.0000);stop-opacity:1;"/>
</linearGradient>
<linearGradient id="paint2_linear_169_13439" x1="63.6001" y1="118.8" x2="63.6001" y2="7" gradientUnits="userSpaceOnUse">
<stop offset="0.16" stop-color="#F4A223" style="stop-color:#F4A223;stop-color:color(display-p3 0.9569 0.6353 0.1373);stop-opacity:1;"/>
<stop offset="0.33" stop-color="#F7C02B" style="stop-color:#F7C02B;stop-color:color(display-p3 0.9686 0.7529 0.1686);stop-opacity:1;"/>
<stop offset="0.81" stop-color="#FDE030" stop-opacity="0" style="stop-color:none;stop-opacity:0;"/>
</linearGradient>
<radialGradient id="paint3_radial_169_13439" cx="0" cy="0" r="1" gradientUnits="userSpaceOnUse" gradientTransform="translate(38.5991 34.5377) rotate(-43.2082) scale(102.024 101.825)">
<stop offset="0.3533" stop-color="#F9DDBD" style="stop-color:#F9DDBD;stop-color:color(display-p3 0.9765 0.8667 0.7412);stop-opacity:1;"/>
<stop offset="0.8723" stop-color="#FFD29C" style="stop-color:#FFD29C;stop-color:color(display-p3 1.0000 0.8235 0.6118);stop-opacity:1;"/>
</radialGradient>
<radialGradient id="paint4_radial_169_13439" cx="0" cy="0" r="1" gradientUnits="userSpaceOnUse" gradientTransform="translate(38.5991 34.5377) rotate(-43.2082) scale(102.024 101.825)">
<stop offset="0.3533" stop-color="#70534A" style="stop-color:#70534A;stop-color:color(display-p3 0.4392 0.3255 0.2902);stop-opacity:1;"/>
<stop offset="0.8723" stop-color="#5C4037" style="stop-color:#5C4037;stop-color:color(display-p3 0.3608 0.2510 0.2157);stop-opacity:1;"/>
</radialGradient>
<radialGradient id="paint5_radial_169_13439" cx="0" cy="0" r="1" gradientUnits="userSpaceOnUse" gradientTransform="translate(38.5991 34.5377) rotate(-43.2082) scale(102.024 101.825)">
<stop offset="0.3533" stop-color="#A37A58" style="stop-color:#A37A58;stop-color:color(display-p3 0.6375 0.4772 0.3453);stop-opacity:1;"/>
<stop offset="0.8723" stop-color="#8D5738" style="stop-color:#8D5738;stop-color:color(display-p3 0.5529 0.3412 0.2196);stop-opacity:1;"/>
</radialGradient>
<radialGradient id="paint6_radial_169_13439" cx="0" cy="0" r="1" gradientUnits="userSpaceOnUse" gradientTransform="translate(38.5991 34.5377) rotate(-43.2082) scale(102.024 101.825)">
<stop offset="0.3533" stop-color="#AD8264" style="stop-color:#AD8264;stop-color:color(display-p3 0.6784 0.5098 0.3922);stop-opacity:1;"/>
<stop offset="0.8723" stop-color="#A47B62" style="stop-color:#A47B62;stop-color:color(display-p3 0.6431 0.4824 0.3843);stop-opacity:1;"/>
</radialGradient>
<linearGradient id="paint7_linear_169_13439" x1="63.6001" y1="118.8" x2="63.6001" y2="7" gradientUnits="userSpaceOnUse">
<stop offset="0.39" stop-color="#40C0E7" stop-opacity="0" style="stop-color:none;stop-opacity:0;"/>
<stop offset="1" stop-color="#5F7AFF" style="stop-color:#5F7AFF;stop-color:color(display-p3 0.3725 0.4784 1.0000);stop-opacity:1;"/>
</linearGradient>
<linearGradient id="paint8_linear_169_13439" x1="98.465" y1="127.268" x2="97.5537" y2="71.7675" gradientUnits="userSpaceOnUse">
<stop stop-color="#140905" style="stop-color:#140905;stop-color:color(display-p3 0.0792 0.0350 0.0214);stop-opacity:1;"/>
<stop offset="1" stop-color="#2C1109" stop-opacity="0.2" style="stop-color:#2C1109;stop-color:color(display-p3 0.1708 0.0679 0.0363);stop-opacity:0.2;"/>
</linearGradient>
<radialGradient id="paint9_radial_169_13439" cx="0" cy="0" r="1" gradientUnits="userSpaceOnUse" gradientTransform="translate(91.5006 94.2822) rotate(141.52) scale(44.6982 41.1955)">
<stop offset="0.27" stop-color="#FFF176" style="stop-color:#FFF176;stop-color:color(display-p3 1.0000 0.9451 0.4627);stop-opacity:1;"/>
<stop offset="1" stop-color="#FFC400" style="stop-color:#FFC400;stop-color:color(display-p3 1.0000 0.7686 0.0000);stop-opacity:1;"/>
</radialGradient>
<radialGradient id="paint10_radial_169_13439" cx="0" cy="0" r="1" gradientUnits="userSpaceOnUse" gradientTransform="translate(97.8432 84.0745) rotate(82.013) scale(28.4307 36.4577)">
<stop offset="0.3533" stop-color="#F9DDBD" style="stop-color:#F9DDBD;stop-color:color(display-p3 0.9765 0.8667 0.7412);stop-opacity:1;"/>
<stop offset="0.8723" stop-color="#FECD92" style="stop-color:#FECD92;stop-color:color(display-p3 0.9958 0.8035 0.5726);stop-opacity:1;"/>
</radialGradient>
<radialGradient id="paint11_radial_169_13439" cx="0" cy="0" r="1" gradientUnits="userSpaceOnUse" gradientTransform="translate(92.6714 84.5575) rotate(-50.5954) scale(42.0698 41.2699)">
<stop offset="0.3533" stop-color="#70534A" style="stop-color:#70534A;stop-color:color(display-p3 0.4392 0.3255 0.2902);stop-opacity:1;"/>
<stop offset="0.8723" stop-color="#5C4037" style="stop-color:#5C4037;stop-color:color(display-p3 0.3608 0.2510 0.2157);stop-opacity:1;"/>
</radialGradient>
<radialGradient id="paint12_radial_169_13439" cx="0" cy="0" r="1" gradientUnits="userSpaceOnUse" gradientTransform="translate(92.6714 84.5575) rotate(-50.5954) scale(42.0698 41.2699)">
<stop offset="0.3533" stop-color="#A37A58" style="stop-color:#A37A58;stop-color:color(display-p3 0.6375 0.4772 0.3453);stop-opacity:1;"/>
<stop offset="0.8723" stop-color="#8D5738" style="stop-color:#8D5738;stop-color:color(display-p3 0.5529 0.3412 0.2196);stop-opacity:1;"/>
</radialGradient>
<radialGradient id="paint13_radial_169_13439" cx="0" cy="0" r="1" gradientUnits="userSpaceOnUse" gradientTransform="translate(92.6714 84.5575) rotate(-50.5954) scale(42.0698 41.2699)">
<stop offset="0.3533" stop-color="#AD8264" style="stop-color:#AD8264;stop-color:color(display-p3 0.6784 0.5098 0.3922);stop-opacity:1;"/>
<stop offset="0.8723" stop-color="#A47B62" style="stop-color:#A47B62;stop-color:color(display-p3 0.6431 0.4824 0.3843);stop-opacity:1;"/>
</radialGradient>
<radialGradient id="paint14_radial_169_13439" cx="0" cy="0" r="1" gradientUnits="userSpaceOnUse" gradientTransform="translate(92.6714 84.5575) rotate(-50.5954) scale(42.0698 41.2699)">
<stop offset="0.3533" stop-color="#C09679" style="stop-color:#C09679;stop-color:color(display-p3 0.7542 0.5894 0.4745);stop-opacity:1;"/>
<stop offset="0.8723" stop-color="#A47B62" style="stop-color:#A47B62;stop-color:color(display-p3 0.6431 0.4824 0.3843);stop-opacity:1;"/>
</radialGradient>
<linearGradient id="paint15_linear_169_13439" x1="29.3284" y1="127.268" x2="28.4168" y2="71.7675" gradientUnits="userSpaceOnUse">
<stop stop-color="#140905" style="stop-color:#140905;stop-color:color(display-p3 0.0792 0.0350 0.0214);stop-opacity:1;"/>
<stop offset="1" stop-color="#2C1109" stop-opacity="0.2" style="stop-color:#2C1109;stop-color:color(display-p3 0.1708 0.0679 0.0363);stop-opacity:0.2;"/>
</linearGradient>
<radialGradient id="paint16_radial_169_13439" cx="0" cy="0" r="1" gradientUnits="userSpaceOnUse" gradientTransform="translate(35.9192 94.2068) rotate(38.4802) scale(44.6982 41.1955)">
<stop offset="0.27" stop-color="#FFF176" style="stop-color:#FFF176;stop-color:color(display-p3 1.0000 0.9451 0.4627);stop-opacity:1;"/>
<stop offset="1" stop-color="#FFC400" style="stop-color:#FFC400;stop-color:color(display-p3 1.0000 0.7686 0.0000);stop-opacity:1;"/>
</radialGradient>
<radialGradient id="paint17_radial_169_13439" cx="0" cy="0" r="1" gradientUnits="userSpaceOnUse" gradientTransform="translate(22.0078 84.0745) rotate(82.0155) scale(28.4306 36.4464)">
<stop offset="0.3533" stop-color="#F9DDBD" style="stop-color:#F9DDBD;stop-color:color(display-p3 0.9765 0.8667 0.7412);stop-opacity:1;"/>
<stop offset="0.8723" stop-color="#FECD92" style="stop-color:#FECD92;stop-color:color(display-p3 0.9958 0.8035 0.5726);stop-opacity:1;"/>
</radialGradient>
<radialGradient id="paint18_radial_169_13439" cx="0" cy="0" r="1" gradientUnits="userSpaceOnUse" gradientTransform="translate(16.8376 84.5575) rotate(-50.6042) scale(42.0645 41.2621)">
<stop offset="0.3533" stop-color="#70534A" style="stop-color:#70534A;stop-color:color(display-p3 0.4392 0.3255 0.2902);stop-opacity:1;"/>
<stop offset="0.8723" stop-color="#5C4037" style="stop-color:#5C4037;stop-color:color(display-p3 0.3608 0.2510 0.2157);stop-opacity:1;"/>
</radialGradient>
<radialGradient id="paint19_radial_169_13439" cx="0" cy="0" r="1" gradientUnits="userSpaceOnUse" gradientTransform="translate(16.8376 84.5575) rotate(-50.6042) scale(42.0645 41.2621)">
<stop offset="0.3533" stop-color="#A37A58" style="stop-color:#A37A58;stop-color:color(display-p3 0.6375 0.4772 0.3453);stop-opacity:1;"/>
<stop offset="0.8723" stop-color="#8D5738" style="stop-color:#8D5738;stop-color:color(display-p3 0.5529 0.3412 0.2196);stop-opacity:1;"/>
</radialGradient>
<radialGradient id="paint20_radial_169_13439" cx="0" cy="0" r="1" gradientUnits="userSpaceOnUse" gradientTransform="translate(16.8376 84.5575) rotate(-50.6042) scale(42.0645 41.2621)">
<stop offset="0.3533" stop-color="#AD8264" style="stop-color:#AD8264;stop-color:color(display-p3 0.6784 0.5098 0.3922);stop-opacity:1;"/>
<stop offset="0.8723" stop-color="#A47B62" style="stop-color:#A47B62;stop-color:color(display-p3 0.6431 0.4824 0.3843);stop-opacity:1;"/>
</radialGradient>
<radialGradient id="paint21_radial_169_13439" cx="0" cy="0" r="1" gradientUnits="userSpaceOnUse" gradientTransform="translate(16.8376 84.5575) rotate(-50.6042) scale(42.0645 41.2621)">
<stop offset="0.3533" stop-color="#C09679" style="stop-color:#C09679;stop-color:color(display-p3 0.7542 0.5894 0.4745);stop-opacity:1;"/>
<stop offset="0.8723" stop-color="#A47B62" style="stop-color:#A47B62;stop-color:color(display-p3 0.6431 0.4824 0.3843);stop-opacity:1;"/>
</radialGradient>
</defs>
</svg>
