<svg width="128" height="128" viewBox="0 0 128 128" fill="none" xmlns="http://www.w3.org/2000/svg">
<path d="M63.6 118.8C35.7 118.8 5.59998 101.3 5.59998 62.9C5.59998 24.5 35.7 7 63.6 7C79.1 7 93.4 12.1 104 21.4C115.5 31.6 121.6 46 121.6 62.9C121.6 79.8 115.5 94.1 104 104.3C93.4 113.6 79 118.8 63.6 118.8Z" fill="url(#paint0_radial_169_9846)" style=""/>
<path d="M63.6 118.8C35.7 118.8 5.59998 101.3 5.59998 62.9C5.59998 24.5 35.7 7 63.6 7C79.1 7 93.4 12.1 104 21.4C115.5 31.6 121.6 46 121.6 62.9C121.6 79.8 115.5 94.1 104 104.3C93.4 113.6 79 118.8 63.6 118.8Z" fill="url(#paint1_radial_169_9846)" style=""/>
<path d="M63.6 118.8C35.7 118.8 5.59998 101.3 5.59998 62.9C5.59998 24.5 35.7 7 63.6 7C79.1 7 93.4 12.1 104 21.4C115.5 31.6 121.6 46 121.6 62.9C121.6 79.8 115.5 94.1 104 104.3C93.4 113.6 79 118.8 63.6 118.8Z" fill="url(#paint2_radial_169_9846)" style=""/>
<path d="M44 40.94C39.81 40.94 36 44.48 36 50.36C36 56.24 39.81 59.77 44 59.77C48.2 59.77 52 56.23 52 50.36C52 44.49 48.24 40.94 44 40.94Z" fill="#422B0D" style="fill:#422B0D;fill:color(display-p3 0.2588 0.1686 0.0510);fill-opacity:1;"/>
<path d="M44 40.94C39.81 40.94 36 44.48 36 50.36C36 56.24 39.81 59.77 44 59.77C48.2 59.77 52 56.23 52 50.36C52 44.49 48.24 40.94 44 40.94Z" fill="#1A1717" style="fill:#1A1717;fill:color(display-p3 0.1020 0.0902 0.0902);fill-opacity:1;"/>
<path d="M43.6501 44.87C42.2301 44.19 40.5201 44.79 39.8301 46.21C39.3001 47.32 39.5401 48.65 40.4301 49.51C41.8501 50.19 43.5601 49.59 44.2501 48.17C44.7801 47.06 44.5401 45.73 43.6501 44.87Z" fill="#555050" style="fill:#555050;fill:color(display-p3 0.3333 0.3125 0.3125);fill-opacity:1;"/>
<path d="M82.4 40.94C78.21 40.94 74.4 44.48 74.4 50.36C74.4 56.24 78.21 59.77 82.4 59.77C86.59 59.77 90.4 56.23 90.4 50.36C90.4 44.49 86.59 40.94 82.4 40.94Z" fill="#422B0D" style="fill:#422B0D;fill:color(display-p3 0.2588 0.1686 0.0510);fill-opacity:1;"/>
<path d="M82.4 40.94C78.21 40.94 74.4 44.48 74.4 50.36C74.4 56.24 78.21 59.77 82.4 59.77C86.59 59.77 90.4 56.23 90.4 50.36C90.4 44.49 86.59 40.94 82.4 40.94Z" fill="#1A1717" style="fill:#1A1717;fill:color(display-p3 0.1020 0.0902 0.0902);fill-opacity:1;"/>
<path d="M82.0001 44.87C80.5801 44.19 78.8701 44.79 78.1801 46.21C77.6501 47.32 77.8901 48.65 78.7801 49.51C80.2001 50.19 81.9101 49.59 82.6001 48.17C83.1301 47.06 82.8901 45.73 82.0001 44.87Z" fill="#555050" style="fill:#555050;fill:color(display-p3 0.3333 0.3125 0.3125);fill-opacity:1;"/>
<path d="M63 91.61C53.93 91.68 45.27 87.87 39.2 81.13C38.74 80.6 38.63 79.85 38.92 79.21C39.21 78.56 39.85 78.14 40.56 78.13C40.88 78.13 41.2 78.22 41.48 78.38C46.3 81.15 54.36 84.59 63 84.59H63.14C71.77 84.59 79.84 81.15 84.65 78.38C84.93 78.22 85.25 78.13 85.57 78.13C86.28 78.14 86.92 78.56 87.21 79.21C87.51 79.85 87.4 80.6 86.93 81.13C80.86 87.87 72.18 91.69 63.11 91.61" fill="#422B0D" style="fill:#422B0D;fill:color(display-p3 0.2588 0.1686 0.0510);fill-opacity:1;"/>
<path d="M63 91.61C53.93 91.68 45.27 87.87 39.2 81.13C38.74 80.6 38.63 79.85 38.92 79.21C39.21 78.56 39.85 78.14 40.56 78.13C40.88 78.13 41.2 78.22 41.48 78.38C46.3 81.15 54.36 84.59 63 84.59H63.14C71.77 84.59 79.84 81.15 84.65 78.38C84.93 78.22 85.25 78.13 85.57 78.13C86.28 78.14 86.92 78.56 87.21 79.21C87.51 79.85 87.4 80.6 86.93 81.13C80.86 87.87 72.18 91.69 63.11 91.61" fill="#1A1717" style="fill:#1A1717;fill:color(display-p3 0.1020 0.0902 0.0902);fill-opacity:1;"/>
<path d="M111.49 29.67C116.82 38.27 119.6 48.51 119.6 59.9C119.6 76.8 113.5 91.1 102 101.3C91.4 110.6 77 115.8 61.6 115.8C43.54 115.8 24.6 108.45 13.42 92.86C24.18 110.52 44.42 118.8 63.6 118.8C79 118.8 93.4 113.6 104 104.3C115.5 94.1 121.6 79.8 121.6 62.9C121.6 50.16 118.13 38.84 111.49 29.67Z" fill="#EB8F00" style="fill:#EB8F00;fill:color(display-p3 0.9216 0.5608 0.0000);fill-opacity:1;"/>
<path d="M111.49 29.67C116.82 38.27 119.6 48.51 119.6 59.9C119.6 76.8 113.5 91.1 102 101.3C91.4 110.6 77 115.8 61.6 115.8C43.54 115.8 24.6 108.45 13.42 92.86C24.18 110.52 44.42 118.8 63.6 118.8C79 118.8 93.4 113.6 104 104.3C115.5 94.1 121.6 79.8 121.6 62.9C121.6 50.16 118.13 38.84 111.49 29.67Z" fill="#4A2F27" style="fill:#4A2F27;fill:color(display-p3 0.2902 0.1843 0.1529);fill-opacity:1;"/>
<defs>
<radialGradient id="paint0_radial_169_9846" cx="0" cy="0" r="1" gradientUnits="userSpaceOnUse" gradientTransform="translate(63.6 62.9) scale(56.9597 56.9597)">
<stop offset="0.5" stop-color="#FDE030" style="stop-color:#FDE030;stop-color:color(display-p3 0.9922 0.8784 0.1882);stop-opacity:1;"/>
<stop offset="0.92" stop-color="#F7C02B" style="stop-color:#F7C02B;stop-color:color(display-p3 0.9686 0.7529 0.1686);stop-opacity:1;"/>
<stop offset="1" stop-color="#F4A223" style="stop-color:#F4A223;stop-color:color(display-p3 0.9569 0.6353 0.1373);stop-opacity:1;"/>
</radialGradient>
<radialGradient id="paint1_radial_169_9846" cx="0" cy="0" r="1" gradientUnits="userSpaceOnUse" gradientTransform="translate(38.599 34.5377) rotate(-43.2082) scale(102.024 101.825)">
<stop offset="0.3533" stop-color="#F9DDBD" style="stop-color:#F9DDBD;stop-color:color(display-p3 0.9765 0.8667 0.7412);stop-opacity:1;"/>
<stop offset="0.8723" stop-color="#FFD29C" style="stop-color:#FFD29C;stop-color:color(display-p3 1.0000 0.8235 0.6118);stop-opacity:1;"/>
</radialGradient>
<radialGradient id="paint2_radial_169_9846" cx="0" cy="0" r="1" gradientUnits="userSpaceOnUse" gradientTransform="translate(38.599 34.5377) rotate(-43.2082) scale(102.024 101.825)">
<stop offset="0.3533" stop-color="#70534A" style="stop-color:#70534A;stop-color:color(display-p3 0.4392 0.3255 0.2902);stop-opacity:1;"/>
<stop offset="0.8723" stop-color="#5C4037" style="stop-color:#5C4037;stop-color:color(display-p3 0.3608 0.2510 0.2157);stop-opacity:1;"/>
</radialGradient>
</defs>
</svg>
