<svg width="128" height="128" viewBox="0 0 128 128" fill="none" xmlns="http://www.w3.org/2000/svg">
<path d="M16.7701 19.75C15.7701 19.75 15.0701 20.55 15.0701 21.55V21.65C13.5701 47.56 18.1001 80.92 39.0801 105.17C51.1801 119.87 62.9901 123.7 63.5901 123.9C63.5901 123.9 63.8701 123.99 64.1301 123.99C64.3901 123.99 64.7001 123.89 64.7001 123.89C65.2001 123.69 77.1801 119.87 89.1901 105.17C109.1 80.96 113.2 46.35 113.2 21.65V21.55C113.2 20.55 112.4 19.75 111.5 19.75C111.2 19.75 82.3901 18.75 65.4901 4.45C64.7901 3.85 63.7901 3.85 63.0901 4.45C45.9801 18.65 17.0701 19.65 16.7701 19.75Z" fill="#B0BEC5" style="fill:#B0BEC5;fill:color(display-p3 0.6902 0.7451 0.7725);fill-opacity:1;"/>
<path d="M111.49 19.75C111.19 19.75 82.3801 18.75 65.4801 4.45C65.0801 4.1 64.6501 4 64.2401 4C64.2101 4 64.1701 4 64.1301 4V124C64.4001 123.99 64.7501 123.89 64.7501 123.88C65.3501 123.63 77.1901 119.88 89.1901 105.18C109.1 80.97 113.2 46.36 113.2 21.66V21.56C113.2 20.55 112.4 19.75 111.49 19.75Z" fill="#84B0C1" style="fill:#84B0C1;fill:color(display-p3 0.5176 0.6902 0.7569);fill-opacity:1;"/>
<path d="M26.3301 28.31C25.5101 28.31 25.3101 29.33 25.3101 30.05V30.15C25.3101 49.87 28.3701 77.55 44.3101 96.86C53.9101 108.61 63.3101 111.67 63.7201 111.77L64.1301 111.87L64.5401 111.77C64.9501 111.67 74.3501 108.6 83.9501 96.86C99.8901 77.55 102.95 49.97 102.95 30.15V30.05C102.95 29.23 102.54 28.62 101.72 28.62H101.82C101.62 28.62 78.6301 27.8 65.1501 16.46C63.9601 15.48 63.2101 16.26 63.2101 16.26C49.6301 27.6 26.6401 28.31 26.3301 28.31Z" fill="#2F7889" style="fill:#2F7889;fill:color(display-p3 0.1843 0.4706 0.5373);fill-opacity:1;"/>
<path d="M29.18 30.0699C28.42 30.0699 28.24 31.0299 28.24 31.7099V31.8099C28.24 50.3799 31.07 76.4599 45.81 94.6499C54.69 105.72 63.38 108.6 63.76 108.7L64.14 108.8L64.52 108.7C64.9 108.6 73.59 105.72 82.47 94.6499C97.2 76.4599 100.04 50.4799 100.04 31.8099V31.7099C100.04 30.9399 99.66 30.3599 98.91 30.3599H99C98.81 30.3599 77.56 29.5899 65.09 18.9099C64.15 17.9599 63.3 18.7199 63.3 18.7199C50.72 29.3999 29.47 30.0699 29.18 30.0699Z" fill="#C9E3E6" style="fill:#C9E3E6;fill:color(display-p3 0.7882 0.8902 0.9020);fill-opacity:1;"/>
<path d="M98.8901 30.3599H98.9801C98.7901 30.3599 77.5401 29.5899 65.0701 18.9099C64.7301 18.5699 64.4101 18.4499 64.1301 18.4399V108.79L64.5101 108.69C64.8901 108.59 73.5801 105.71 82.4601 94.6399C97.1901 76.4499 100.03 50.4699 100.03 31.7999V31.6999C100.02 30.9399 99.6501 30.3599 98.8901 30.3599Z" fill="#B0BEC5" style="fill:#B0BEC5;fill:color(display-p3 0.6902 0.7451 0.7725);fill-opacity:1;"/>
<path d="M98.8901 30.3599H98.9801C98.7901 30.3599 77.5401 29.5899 65.0701 18.9099C64.7301 18.5699 64.4101 18.4499 64.1301 18.4399V108.79L64.5101 108.69C64.8901 108.59 73.5801 105.71 82.4601 94.6399C97.1901 76.4499 100.03 50.4699 100.03 31.7999V31.6999C100.02 30.9399 99.6501 30.3599 98.8901 30.3599Z" fill="#C9E3E6" style="fill:#C9E3E6;fill:color(display-p3 0.7882 0.8902 0.9020);fill-opacity:1;"/>
<path d="M98.8901 30.3599H98.9801C98.7901 30.3599 77.5401 29.5899 65.0701 18.9099C64.7301 18.5699 64.4101 18.4499 64.1301 18.4399V108.79L64.5101 108.69C64.8901 108.59 73.5801 105.71 82.4601 94.6399C97.1901 76.4499 100.03 50.4699 100.03 31.7999V31.6999C100.02 30.9399 99.6501 30.3599 98.8901 30.3599Z" fill="#B0BEC5" style="fill:#B0BEC5;fill:color(display-p3 0.6902 0.7451 0.7725);fill-opacity:1;"/>
<path d="M70.6302 16.37C71.6961 16.37 72.5602 15.5059 72.5602 14.44C72.5602 13.3741 71.6961 12.51 70.6302 12.51C69.5643 12.51 68.7002 13.3741 68.7002 14.44C68.7002 15.5059 69.5643 16.37 70.6302 16.37Z" fill="#37474F" style="fill:#37474F;fill:color(display-p3 0.2157 0.2784 0.3098);fill-opacity:1;"/>
<path d="M82.2103 21.6002C83.2762 21.6002 84.1403 20.7361 84.1403 19.6702C84.1403 18.6043 83.2762 17.7402 82.2103 17.7402C81.1444 17.7402 80.2803 18.6043 80.2803 19.6702C80.2803 20.7361 81.1444 21.6002 82.2103 21.6002Z" fill="#37474F" style="fill:#37474F;fill:color(display-p3 0.2157 0.2784 0.3098);fill-opacity:1;"/>
<path d="M95.0101 25.14C96.076 25.14 96.9401 24.2759 96.9401 23.21C96.9401 22.1441 96.076 21.28 95.0101 21.28C93.9442 21.28 93.0801 22.1441 93.0801 23.21C93.0801 24.2759 93.9442 25.14 95.0101 25.14Z" fill="#37474F" style="fill:#37474F;fill:color(display-p3 0.2157 0.2784 0.3098);fill-opacity:1;"/>
<path d="M108.15 27.0702C109.216 27.0702 110.08 26.2061 110.08 25.1402C110.08 24.0743 109.216 23.2102 108.15 23.2102C107.084 23.2102 106.22 24.0743 106.22 25.1402C106.22 26.2061 107.084 27.0702 108.15 27.0702Z" fill="#37474F" style="fill:#37474F;fill:color(display-p3 0.2157 0.2784 0.3098);fill-opacity:1;"/>
<path d="M108.57 38.87C109.636 38.87 110.5 38.0059 110.5 36.94C110.5 35.8741 109.636 35.01 108.57 35.01C107.504 35.01 106.64 35.8741 106.64 36.94C106.64 38.0059 107.504 38.87 108.57 38.87Z" fill="#37474F" style="fill:#37474F;fill:color(display-p3 0.2157 0.2784 0.3098);fill-opacity:1;"/>
<path d="M107.02 52.6901C108.086 52.6901 108.95 51.826 108.95 50.7601C108.95 49.6942 108.086 48.8301 107.02 48.8301C105.954 48.8301 105.09 49.6942 105.09 50.7601C105.09 51.826 105.954 52.6901 107.02 52.6901Z" fill="#37474F" style="fill:#37474F;fill:color(display-p3 0.2157 0.2784 0.3098);fill-opacity:1;"/>
<path d="M64.0801 120.04C65.1461 120.04 66.0101 119.176 66.0101 118.11C66.0101 117.044 65.1461 116.18 64.0801 116.18C63.0142 116.18 62.1501 117.044 62.1501 118.11C62.1501 119.176 63.0142 120.04 64.0801 120.04Z" fill="#37474F" style="fill:#37474F;fill:color(display-p3 0.2157 0.2784 0.3098);fill-opacity:1;"/>
<path d="M75.4002 114.64C76.4661 114.64 77.3302 113.776 77.3302 112.71C77.3302 111.644 76.4661 110.78 75.4002 110.78C74.3343 110.78 73.4702 111.644 73.4702 112.71C73.4702 113.776 74.3343 114.64 75.4002 114.64Z" fill="#37474F" style="fill:#37474F;fill:color(display-p3 0.2157 0.2784 0.3098);fill-opacity:1;"/>
<path d="M85.7401 104.64C86.806 104.64 87.6701 103.776 87.6701 102.71C87.6701 101.644 86.806 100.78 85.7401 100.78C84.6741 100.78 83.8101 101.644 83.8101 102.71C83.8101 103.776 84.6741 104.64 85.7401 104.64Z" fill="#37474F" style="fill:#37474F;fill:color(display-p3 0.2157 0.2784 0.3098);fill-opacity:1;"/>
<path d="M93.8101 93.2001C94.876 93.2001 95.7401 92.336 95.7401 91.2701C95.7401 90.2042 94.876 89.3401 93.8101 89.3401C92.7442 89.3401 91.8801 90.2042 91.8801 91.2701C91.8801 92.336 92.7442 93.2001 93.8101 93.2001Z" fill="#37474F" style="fill:#37474F;fill:color(display-p3 0.2157 0.2784 0.3098);fill-opacity:1;"/>
<path d="M99.6702 80.9301C100.736 80.9301 101.6 80.066 101.6 79.0001C101.6 77.9342 100.736 77.0701 99.6702 77.0701C98.6043 77.0701 97.7402 77.9342 97.7402 79.0001C97.7402 80.066 98.6043 80.9301 99.6702 80.9301Z" fill="#37474F" style="fill:#37474F;fill:color(display-p3 0.2157 0.2784 0.3098);fill-opacity:1;"/>
<path d="M104.27 66.5802C105.336 66.5802 106.2 65.7161 106.2 64.6502C106.2 63.5843 105.336 62.7202 104.27 62.7202C103.204 62.7202 102.34 63.5843 102.34 64.6502C102.34 65.7161 103.204 66.5802 104.27 66.5802Z" fill="#37474F" style="fill:#37474F;fill:color(display-p3 0.2157 0.2784 0.3098);fill-opacity:1;"/>
<path d="M70.1502 15.7301C71.2161 15.7301 72.0802 14.866 72.0802 13.8001C72.0802 12.7342 71.2161 11.8701 70.1502 11.8701C69.0843 11.8701 68.2202 12.7342 68.2202 13.8001C68.2202 14.866 69.0843 15.7301 70.1502 15.7301Z" fill="#B9E4EA" style="fill:#B9E4EA;fill:color(display-p3 0.7255 0.8941 0.9176);fill-opacity:1;"/>
<path d="M81.73 20.9601C82.796 20.9601 83.66 20.096 83.66 19.0301C83.66 17.9642 82.796 17.1001 81.73 17.1001C80.6641 17.1001 79.8 17.9642 79.8 19.0301C79.8 20.096 80.6641 20.9601 81.73 20.9601Z" fill="#B9E4EA" style="fill:#B9E4EA;fill:color(display-p3 0.7255 0.8941 0.9176);fill-opacity:1;"/>
<path d="M94.5301 24.5001C95.596 24.5001 96.4601 23.636 96.4601 22.5701C96.4601 21.5042 95.596 20.6401 94.5301 20.6401C93.4642 20.6401 92.6001 21.5042 92.6001 22.5701C92.6001 23.636 93.4642 24.5001 94.5301 24.5001Z" fill="#B9E4EA" style="fill:#B9E4EA;fill:color(display-p3 0.7255 0.8941 0.9176);fill-opacity:1;"/>
<path d="M107.66 26.4301C108.726 26.4301 109.59 25.566 109.59 24.5001C109.59 23.4342 108.726 22.5701 107.66 22.5701C106.594 22.5701 105.73 23.4342 105.73 24.5001C105.73 25.566 106.594 26.4301 107.66 26.4301Z" fill="#B9E4EA" style="fill:#B9E4EA;fill:color(display-p3 0.7255 0.8941 0.9176);fill-opacity:1;"/>
<path d="M108.09 38.2301C109.156 38.2301 110.02 37.366 110.02 36.3001C110.02 35.2342 109.156 34.3701 108.09 34.3701C107.024 34.3701 106.16 35.2342 106.16 36.3001C106.16 37.366 107.024 38.2301 108.09 38.2301Z" fill="#B9E4EA" style="fill:#B9E4EA;fill:color(display-p3 0.7255 0.8941 0.9176);fill-opacity:1;"/>
<path d="M106.53 52.0502C107.596 52.0502 108.46 51.1861 108.46 50.1202C108.46 49.0543 107.596 48.1902 106.53 48.1902C105.464 48.1902 104.6 49.0543 104.6 50.1202C104.6 51.1861 105.464 52.0502 106.53 52.0502Z" fill="#B9E4EA" style="fill:#B9E4EA;fill:color(display-p3 0.7255 0.8941 0.9176);fill-opacity:1;"/>
<path d="M63.6002 119.4C64.6661 119.4 65.5302 118.536 65.5302 117.47C65.5302 116.404 64.6661 115.54 63.6002 115.54C62.5343 115.54 61.6702 116.404 61.6702 117.47C61.6702 118.536 62.5343 119.4 63.6002 119.4Z" fill="#EEEEEE" style="fill:#EEEEEE;fill:color(display-p3 0.9333 0.9333 0.9333);fill-opacity:1;"/>
<path d="M74.9202 114C75.9861 114 76.8502 113.136 76.8502 112.07C76.8502 111.004 75.9861 110.14 74.9202 110.14C73.8543 110.14 72.9902 111.004 72.9902 112.07C72.9902 113.136 73.8543 114 74.9202 114Z" fill="#B9E4EA" style="fill:#B9E4EA;fill:color(display-p3 0.7255 0.8941 0.9176);fill-opacity:1;"/>
<path d="M85.2601 104C86.326 104 87.1901 103.136 87.1901 102.07C87.1901 101.004 86.326 100.14 85.2601 100.14C84.1942 100.14 83.3301 101.004 83.3301 102.07C83.3301 103.136 84.1942 104 85.2601 104Z" fill="#B9E4EA" style="fill:#B9E4EA;fill:color(display-p3 0.7255 0.8941 0.9176);fill-opacity:1;"/>
<path d="M93.3301 92.5602C94.3961 92.5602 95.2601 91.6961 95.2601 90.6302C95.2601 89.5643 94.3961 88.7002 93.3301 88.7002C92.2642 88.7002 91.4001 89.5643 91.4001 90.6302C91.4001 91.6961 92.2642 92.5602 93.3301 92.5602Z" fill="#B9E4EA" style="fill:#B9E4EA;fill:color(display-p3 0.7255 0.8941 0.9176);fill-opacity:1;"/>
<path d="M99.1903 80.2902C100.256 80.2902 101.12 79.4261 101.12 78.3602C101.12 77.2943 100.256 76.4302 99.1903 76.4302C98.1243 76.4302 97.2603 77.2943 97.2603 78.3602C97.2603 79.4261 98.1243 80.2902 99.1903 80.2902Z" fill="#B9E4EA" style="fill:#B9E4EA;fill:color(display-p3 0.7255 0.8941 0.9176);fill-opacity:1;"/>
<path d="M103.79 65.9401C104.856 65.9401 105.72 65.076 105.72 64.0101C105.72 62.9442 104.856 62.0801 103.79 62.0801C102.724 62.0801 101.86 62.9442 101.86 64.0101C101.86 65.076 102.724 65.9401 103.79 65.9401Z" fill="#B9E4EA" style="fill:#B9E4EA;fill:color(display-p3 0.7255 0.8941 0.9176);fill-opacity:1;"/>
<path d="M57.97 16.37C59.0359 16.37 59.9 15.5059 59.9 14.44C59.9 13.3741 59.0359 12.51 57.97 12.51C56.9041 12.51 56.04 13.3741 56.04 14.44C56.04 15.5059 56.9041 16.37 57.97 16.37Z" fill="#2F7889" style="fill:#2F7889;fill:color(display-p3 0.1843 0.4706 0.5373);fill-opacity:1;"/>
<path d="M46.3902 21.6002C47.4561 21.6002 48.3202 20.7361 48.3202 19.6702C48.3202 18.6043 47.4561 17.7402 46.3902 17.7402C45.3243 17.7402 44.4602 18.6043 44.4602 19.6702C44.4602 20.7361 45.3243 21.6002 46.3902 21.6002Z" fill="#2F7889" style="fill:#2F7889;fill:color(display-p3 0.1843 0.4706 0.5373);fill-opacity:1;"/>
<path d="M33.5902 25.14C34.6561 25.14 35.5202 24.2759 35.5202 23.21C35.5202 22.1441 34.6561 21.28 33.5902 21.28C32.5242 21.28 31.6602 22.1441 31.6602 23.21C31.6602 24.2759 32.5242 25.14 33.5902 25.14Z" fill="#2F7889" style="fill:#2F7889;fill:color(display-p3 0.1843 0.4706 0.5373);fill-opacity:1;"/>
<path d="M20.4503 27.0702C21.5162 27.0702 22.3803 26.2061 22.3803 25.1402C22.3803 24.0743 21.5162 23.2102 20.4503 23.2102C19.3844 23.2102 18.5203 24.0743 18.5203 25.1402C18.5203 26.2061 19.3844 27.0702 20.4503 27.0702Z" fill="#2F7889" style="fill:#2F7889;fill:color(display-p3 0.1843 0.4706 0.5373);fill-opacity:1;"/>
<path d="M20.0201 38.87C21.086 38.87 21.9501 38.0059 21.9501 36.94C21.9501 35.8741 21.086 35.01 20.0201 35.01C18.9542 35.01 18.0901 35.8741 18.0901 36.94C18.0901 38.0059 18.9542 38.87 20.0201 38.87Z" fill="#2F7889" style="fill:#2F7889;fill:color(display-p3 0.1843 0.4706 0.5373);fill-opacity:1;"/>
<path d="M21.5801 52.6901C22.6461 52.6901 23.5101 51.826 23.5101 50.7601C23.5101 49.6942 22.6461 48.8301 21.5801 48.8301C20.5142 48.8301 19.6501 49.6942 19.6501 50.7601C19.6501 51.826 20.5142 52.6901 21.5801 52.6901Z" fill="#2F7889" style="fill:#2F7889;fill:color(display-p3 0.1843 0.4706 0.5373);fill-opacity:1;"/>
<path d="M53.1903 114.64C54.2562 114.64 55.1203 113.776 55.1203 112.71C55.1203 111.644 54.2562 110.78 53.1903 110.78C52.1243 110.78 51.2603 111.644 51.2603 112.71C51.2603 113.776 52.1243 114.64 53.1903 114.64Z" fill="#2F7889" style="fill:#2F7889;fill:color(display-p3 0.1843 0.4706 0.5373);fill-opacity:1;"/>
<path d="M42.8602 104.64C43.9261 104.64 44.7902 103.776 44.7902 102.71C44.7902 101.644 43.9261 100.78 42.8602 100.78C41.7943 100.78 40.9302 101.644 40.9302 102.71C40.9302 103.776 41.7943 104.64 42.8602 104.64Z" fill="#2F7889" style="fill:#2F7889;fill:color(display-p3 0.1843 0.4706 0.5373);fill-opacity:1;"/>
<path d="M34.7901 93.2001C35.856 93.2001 36.7201 92.336 36.7201 91.2701C36.7201 90.2042 35.856 89.3401 34.7901 89.3401C33.7242 89.3401 32.8601 90.2042 32.8601 91.2701C32.8601 92.336 33.7242 93.2001 34.7901 93.2001Z" fill="#2F7889" style="fill:#2F7889;fill:color(display-p3 0.1843 0.4706 0.5373);fill-opacity:1;"/>
<path d="M28.9202 80.9301C29.9861 80.9301 30.8502 80.066 30.8502 79.0001C30.8502 77.9342 29.9861 77.0701 28.9202 77.0701C27.8543 77.0701 26.9902 77.9342 26.9902 79.0001C26.9902 80.066 27.8543 80.9301 28.9202 80.9301Z" fill="#2F7889" style="fill:#2F7889;fill:color(display-p3 0.1843 0.4706 0.5373);fill-opacity:1;"/>
<path d="M24.3301 66.5802C25.3961 66.5802 26.2601 65.7161 26.2601 64.6502C26.2601 63.5843 25.3961 62.7202 24.3301 62.7202C23.2642 62.7202 22.4001 63.5843 22.4001 64.6502C22.4001 65.7161 23.2642 66.5802 24.3301 66.5802Z" fill="#2F7889" style="fill:#2F7889;fill:color(display-p3 0.1843 0.4706 0.5373);fill-opacity:1;"/>
<path d="M57.5401 15.7301C58.606 15.7301 59.4701 14.866 59.4701 13.8001C59.4701 12.7342 58.606 11.8701 57.5401 11.8701C56.4742 11.8701 55.6101 12.7342 55.6101 13.8001C55.6101 14.866 56.4742 15.7301 57.5401 15.7301Z" fill="#EEEEEE" style="fill:#EEEEEE;fill:color(display-p3 0.9333 0.9333 0.9333);fill-opacity:1;"/>
<path d="M45.9503 20.9601C47.0162 20.9601 47.8803 20.096 47.8803 19.0301C47.8803 17.9642 47.0162 17.1001 45.9503 17.1001C44.8844 17.1001 44.0203 17.9642 44.0203 19.0301C44.0203 20.096 44.8844 20.9601 45.9503 20.9601Z" fill="#EEEEEE" style="fill:#EEEEEE;fill:color(display-p3 0.9333 0.9333 0.9333);fill-opacity:1;"/>
<path d="M33.1602 24.5001C34.2261 24.5001 35.0902 23.636 35.0902 22.5701C35.0902 21.5042 34.2261 20.6401 33.1602 20.6401C32.0943 20.6401 31.2302 21.5042 31.2302 22.5701C31.2302 23.636 32.0943 24.5001 33.1602 24.5001Z" fill="#EEEEEE" style="fill:#EEEEEE;fill:color(display-p3 0.9333 0.9333 0.9333);fill-opacity:1;"/>
<path d="M20.0201 26.4301C21.086 26.4301 21.9501 25.566 21.9501 24.5001C21.9501 23.4342 21.086 22.5701 20.0201 22.5701C18.9542 22.5701 18.0901 23.4342 18.0901 24.5001C18.0901 25.566 18.9542 26.4301 20.0201 26.4301Z" fill="#EEEEEE" style="fill:#EEEEEE;fill:color(display-p3 0.9333 0.9333 0.9333);fill-opacity:1;"/>
<path d="M19.5902 38.2301C20.6561 38.2301 21.5202 37.366 21.5202 36.3001C21.5202 35.2342 20.6561 34.3701 19.5902 34.3701C18.5242 34.3701 17.6602 35.2342 17.6602 36.3001C17.6602 37.366 18.5242 38.2301 19.5902 38.2301Z" fill="#EEEEEE" style="fill:#EEEEEE;fill:color(display-p3 0.9333 0.9333 0.9333);fill-opacity:1;"/>
<path d="M21.1502 52.0502C22.2161 52.0502 23.0802 51.1861 23.0802 50.1202C23.0802 49.0543 22.2161 48.1902 21.1502 48.1902C20.0843 48.1902 19.2202 49.0543 19.2202 50.1202C19.2202 51.1861 20.0843 52.0502 21.1502 52.0502Z" fill="#EEEEEE" style="fill:#EEEEEE;fill:color(display-p3 0.9333 0.9333 0.9333);fill-opacity:1;"/>
<path d="M52.7601 114C53.826 114 54.6901 113.136 54.6901 112.07C54.6901 111.004 53.826 110.14 52.7601 110.14C51.6942 110.14 50.8301 111.004 50.8301 112.07C50.8301 113.136 51.6942 114 52.7601 114Z" fill="#EEEEEE" style="fill:#EEEEEE;fill:color(display-p3 0.9333 0.9333 0.9333);fill-opacity:1;"/>
<path d="M42.4202 104C43.4861 104 44.3502 103.136 44.3502 102.07C44.3502 101.004 43.4861 100.14 42.4202 100.14C41.3543 100.14 40.4902 101.004 40.4902 102.07C40.4902 103.136 41.3543 104 42.4202 104Z" fill="#EEEEEE" style="fill:#EEEEEE;fill:color(display-p3 0.9333 0.9333 0.9333);fill-opacity:1;"/>
<path d="M34.3602 92.5602C35.4261 92.5602 36.2902 91.6961 36.2902 90.6302C36.2902 89.5643 35.4261 88.7002 34.3602 88.7002C33.2943 88.7002 32.4302 89.5643 32.4302 90.6302C32.4302 91.6961 33.2943 92.5602 34.3602 92.5602Z" fill="#EEEEEE" style="fill:#EEEEEE;fill:color(display-p3 0.9333 0.9333 0.9333);fill-opacity:1;"/>
<path d="M28.4901 80.2902C29.556 80.2902 30.4201 79.4261 30.4201 78.3602C30.4201 77.2943 29.556 76.4302 28.4901 76.4302C27.4241 76.4302 26.5601 77.2943 26.5601 78.3602C26.5601 79.4261 27.4241 80.2902 28.4901 80.2902Z" fill="#EEEEEE" style="fill:#EEEEEE;fill:color(display-p3 0.9333 0.9333 0.9333);fill-opacity:1;"/>
<path d="M23.8902 65.9401C24.9561 65.9401 25.8202 65.076 25.8202 64.0101C25.8202 62.9442 24.9561 62.0801 23.8902 62.0801C22.8243 62.0801 21.9602 62.9442 21.9602 64.0101C21.9602 65.076 22.8243 65.9401 23.8902 65.9401Z" fill="#EEEEEE" style="fill:#EEEEEE;fill:color(display-p3 0.9333 0.9333 0.9333);fill-opacity:1;"/>
<path d="M67.5588 20.8232L56.188 27.4457L73.9651 37.7915L56.188 48.8658L73.9651 60.0858L56.188 72.1801L73.9651 85.8773L56.188 97.9716L68.1654 107.053C66.0335 108.214 64.6657 108.662 64.52 108.7L64.14 108.8L63.76 108.7C63.38 108.6 54.69 105.72 45.81 94.6499C31.07 76.4599 28.24 50.3799 28.24 31.8099V31.7099C28.24 31.0299 28.42 30.0699 29.18 30.0699C29.47 30.0699 50.72 29.3999 63.3 18.7199C63.3 18.7199 64.15 17.9599 65.09 18.9099C65.8802 19.5867 66.7057 20.2237 67.5588 20.8232Z" fill="#DB3D3D" style="fill:#DB3D3D;fill:color(display-p3 0.8583 0.2396 0.2396);fill-opacity:1;"/>
<path fill-rule="evenodd" clip-rule="evenodd" d="M64.051 108.777L64 108.763V103.895L68.0991 107.003C65.9251 108.194 64.5274 108.651 64.38 108.69L64.051 108.777ZM67.4769 20.871C66.5996 20.2575 65.7512 19.6047 64.94 18.9099C64.6 18.5699 64.28 18.4499 64 18.4399V22.8959L67.4769 20.871ZM64 31.9921V43.9993L73.9651 37.7915L64 31.9921ZM64 53.7963V66.8654L73.9651 60.0858L64 53.7963ZM64 78.1992V92.6568L73.9651 85.8773L64 78.1992Z" fill="#C72E2E" style="fill:#C72E2E;fill:color(display-p3 0.7792 0.1818 0.1818);fill-opacity:1;"/>
</svg>
