<svg width="128" height="128" viewBox="0 0 128 128" fill="none" xmlns="http://www.w3.org/2000/svg">
<path d="M63.6 118.8C35.7 118.8 5.59998 101.3 5.59998 62.9C5.59998 24.5 35.7 7 63.6 7C79.1 7 93.4 12.1 104 21.4C115.5 31.6 121.6 46 121.6 62.9C121.6 79.8 115.5 94.1 104 104.3C93.4 113.6 79 118.8 63.6 118.8Z" fill="url(#paint0_radial_169_7727)" style=""/>
<path d="M63.6 118.8C35.7 118.8 5.59998 101.3 5.59998 62.9C5.59998 24.5 35.7 7 63.6 7C79.1 7 93.4 12.1 104 21.4C115.5 31.6 121.6 46 121.6 62.9C121.6 79.8 115.5 94.1 104 104.3C93.4 113.6 79 118.8 63.6 118.8Z" fill="url(#paint1_radial_169_7727)" style=""/>
<path d="M63.6 118.8C35.7 118.8 5.59998 101.3 5.59998 62.9C5.59998 24.5 35.7 7 63.6 7C79.1 7 93.4 12.1 104 21.4C115.5 31.6 121.6 46 121.6 62.9C121.6 79.8 115.5 94.1 104 104.3C93.4 113.6 79 118.8 63.6 118.8Z" fill="url(#paint2_radial_169_7727)" style=""/>
<path d="M111.49 29.6699C116.82 38.2699 119.6 48.5099 119.6 59.8999C119.6 76.7999 113.5 91.0999 102 101.3C91.3999 110.6 76.9999 115.8 61.5999 115.8C43.5399 115.8 24.5999 108.45 13.4199 92.8599C24.1799 110.52 44.4199 118.8 63.5999 118.8C78.9999 118.8 93.3999 113.6 104 104.3C115.5 94.0999 121.6 79.7999 121.6 62.8999C121.6 50.1599 118.13 38.8399 111.49 29.6699Z" fill="#EB8F00" style="fill:#EB8F00;fill:color(display-p3 0.9216 0.5608 0.0000);fill-opacity:1;"/>
<path d="M111.49 29.6699C116.82 38.2699 119.6 48.5099 119.6 59.8999C119.6 76.7999 113.5 91.0999 102 101.3C91.3999 110.6 76.9999 115.8 61.5999 115.8C43.5399 115.8 24.5999 108.45 13.4199 92.8599C24.1799 110.52 44.4199 118.8 63.5999 118.8C78.9999 118.8 93.3999 113.6 104 104.3C115.5 94.0999 121.6 79.7999 121.6 62.8999C121.6 50.1599 118.13 38.8399 111.49 29.6699Z" fill="#BA8F63" style="fill:#BA8F63;fill:color(display-p3 0.7294 0.5608 0.3882);fill-opacity:1;"/>
<path d="M57.38 66.4101L57.18 66.2701L57.08 66.1901C53.47 63.6001 44.58 56.4401 40.88 53.9101C39.3 52.7501 37.12 52.8701 35.68 54.2101C34.14 55.8001 34.19 58.3301 35.77 59.8701C35.9 59.9901 36.03 60.1101 36.18 60.2101C36.28 60.3101 36.38 60.3101 36.48 60.4101L47.37 65.2201C46.55 65.2201 45.74 65.2201 44.98 65.3101L41.48 65.6101C40.28 65.8101 38.98 66.0101 37.68 66.2101C36.38 66.4101 34.88 66.8101 33.38 67.2101C32.14 67.5601 31 68.2101 30.08 69.1101C29.21 69.8901 28.65 70.9501 28.48 72.1101C28.36 73.2201 28.61 74.3501 29.18 75.3101C29.66 76.1701 30.45 76.8101 31.38 77.1101C32.31 77.4101 33.3 77.5101 34.28 77.4101C35.35 77.2701 36.37 76.8901 37.28 76.3101C38.58 75.6101 39.88 74.9101 41.08 74.4101C42.22 73.8701 43.4 73.4001 44.6 73.0001C45.72 72.6101 46.85 72.2701 48 72.0001C49.22 71.7001 50.45 71.4701 51.7 71.3001C53 71.1001 54.5 71.0001 56.1 70.9001C57.25 70.6701 58.08 69.6701 58.1 68.5001C58.19 67.7301 57.93 66.9601 57.38 66.4101Z" fill="#5D4037" style="fill:#5D4037;fill:color(display-p3 0.3647 0.2510 0.2157);fill-opacity:1;"/>
<path d="M99.4999 72.1001C99.3299 70.9401 98.7699 69.8801 97.8999 69.1001C96.9799 68.2001 95.8399 67.5501 94.5999 67.2001C93.0999 66.8001 91.6999 66.5001 90.2999 66.2001C88.8999 65.9001 87.6999 65.8001 86.4999 65.6001L82.9999 65.3001C82.2099 65.2301 81.3699 65.2101 80.5199 65.2101L91.3999 60.4001C91.4999 60.3001 91.5999 60.3001 91.6999 60.2001C93.4799 58.8901 93.8599 56.3801 92.5399 54.6101C92.4299 54.4701 92.3199 54.3301 92.1999 54.2001C90.7599 52.8601 88.5799 52.7401 86.9999 53.9001C83.3999 56.4301 74.5099 63.5901 70.8999 66.1801L70.7999 66.2601L70.5999 66.4001C70.0499 66.9501 69.7899 67.7201 69.8799 68.4901C69.8999 69.6601 70.7299 70.6601 71.8799 70.8901C73.4799 70.9901 74.9799 71.0901 76.2799 71.2901C77.5299 71.4601 78.7699 71.7001 79.9999 72.0001C81.1499 72.2701 82.2799 72.6101 83.3999 73.0001C84.5899 73.4001 85.7599 73.8601 86.8999 74.4001C88.0999 74.9001 89.3999 75.6001 90.6999 76.3001C91.5999 76.9001 92.6299 77.2701 93.6999 77.4001C94.6799 77.5001 95.6699 77.4001 96.5999 77.1001C97.5299 76.8001 98.3199 76.1601 98.7999 75.3001C99.3699 74.3401 99.6199 73.2101 99.4999 72.1001Z" fill="#5D4037" style="fill:#5D4037;fill:color(display-p3 0.3647 0.2510 0.2157);fill-opacity:1;"/>
<path d="M63.9999 83.2C74.7999 83.2 81.7999 91.1 83.6999 94.8C84.3999 96.2 84.3999 97.4 83.7999 97.9C83.1599 98.3 82.3399 98.3 81.6999 97.9C81.3799 97.77 81.0799 97.6 80.7999 97.4C75.8999 93.88 70.0299 91.96 63.9999 91.9C57.9899 91.98 52.1299 93.86 47.1999 97.3C46.9199 97.5 46.6199 97.67 46.2999 97.8C45.6599 98.2 44.8399 98.2 44.1999 97.8C43.5999 97.2 43.5999 96.1 44.2999 94.7C46.1999 91.1 53.1999 83.2 63.9999 83.2Z" fill="#5D4037" style="fill:#5D4037;fill:color(display-p3 0.3647 0.2510 0.2157);fill-opacity:1;"/>
<path d="M27.4 42.8C25.2 43.2 25.1 46.4 27.5 46.5C32.8 46.57 37.92 44.6 41.8 41C43.28 39.72 44.53 38.2 45.5 36.5C46.08 35.67 45.88 34.53 45.05 33.95C44.22 33.37 43.08 33.57 42.5 34.4L42.4 34.5C38.48 38.88 33.19 41.81 27.4 42.8Z" fill="#5D4037" style="fill:#5D4037;fill:color(display-p3 0.3647 0.2510 0.2157);fill-opacity:1;"/>
<path d="M84.5 34.4C83.92 33.57 82.7799 33.37 81.9499 33.95C81.1199 34.53 80.92 35.67 81.5 36.5C82.47 38.2 83.7199 39.72 85.1999 41C89.0999 44.57 94.21 46.54 99.5 46.5C102 46.4 101.8 43.2 99.6 42.8C93.74 41.84 88.41 38.87 84.5 34.4Z" fill="#5D4037" style="fill:#5D4037;fill:color(display-p3 0.3647 0.2510 0.2157);fill-opacity:1;"/>
<defs>
<radialGradient id="paint0_radial_169_7727" cx="0" cy="0" r="1" gradientUnits="userSpaceOnUse" gradientTransform="translate(63.6 62.9) scale(56.9597 56.9597)">
<stop offset="0.5" stop-color="#FDE030" style="stop-color:#FDE030;stop-color:color(display-p3 0.9922 0.8784 0.1882);stop-opacity:1;"/>
<stop offset="0.92" stop-color="#F7C02B" style="stop-color:#F7C02B;stop-color:color(display-p3 0.9686 0.7529 0.1686);stop-opacity:1;"/>
<stop offset="1" stop-color="#F4A223" style="stop-color:#F4A223;stop-color:color(display-p3 0.9569 0.6353 0.1373);stop-opacity:1;"/>
</radialGradient>
<radialGradient id="paint1_radial_169_7727" cx="0" cy="0" r="1" gradientUnits="userSpaceOnUse" gradientTransform="translate(38.599 34.5377) rotate(-43.2082) scale(102.024 101.825)">
<stop offset="0.3533" stop-color="#F9DDBD" style="stop-color:#F9DDBD;stop-color:color(display-p3 0.9765 0.8667 0.7412);stop-opacity:1;"/>
<stop offset="0.8723" stop-color="#FFD29C" style="stop-color:#FFD29C;stop-color:color(display-p3 1.0000 0.8235 0.6118);stop-opacity:1;"/>
</radialGradient>
<radialGradient id="paint2_radial_169_7727" cx="0" cy="0" r="1" gradientUnits="userSpaceOnUse" gradientTransform="translate(38.599 34.5377) rotate(-43.2082) scale(102.024 101.825)">
<stop offset="0.3533" stop-color="#E0BB95" style="stop-color:#E0BB95;stop-color:color(display-p3 0.8784 0.7333 0.5843);stop-opacity:1;"/>
<stop offset="0.8723" stop-color="#CCA47A" style="stop-color:#CCA47A;stop-color:color(display-p3 0.8000 0.6431 0.4784);stop-opacity:1;"/>
</radialGradient>
</defs>
</svg>
