<svg width="128" height="128" viewBox="0 0 128 128" fill="none" xmlns="http://www.w3.org/2000/svg">
<path d="M71.2813 32.1359C71.2813 32.1359 99.2829 88.3618 101.986 95.4921L101.467 107.1C101.467 107.1 81.9963 76.9411 75.7591 67.2589C69.522 57.5767 65.062 53.2032 65.062 53.2032L71.2813 32.1359Z" fill="#039BE5" style="fill:#039BE5;fill:color(display-p3 0.0118 0.6078 0.8980);fill-opacity:1;"/>
<path d="M71.2813 32.1359C71.2813 32.1359 99.2829 88.3618 101.986 95.4921L101.467 107.1C101.467 107.1 81.9963 76.9411 75.7591 67.2589C69.522 57.5767 65.062 53.2032 65.062 53.2032L71.2813 32.1359Z" fill="#D3D8DA" style="fill:#D3D8DA;fill:color(display-p3 0.8293 0.8463 0.8542);fill-opacity:1;"/>
<path d="M83.8597 113.384L84.2005 116.91C84.3185 118.169 83.1978 119.119 81.9591 118.798L66.2427 114.721C65.4103 114.505 64.8008 113.751 64.7615 112.899L64.3486 101.869C64.2896 100.342 66.0002 99.4834 67.2651 100.408L83.0536 111.988C83.5124 112.329 83.8073 112.834 83.8597 113.384Z" fill="#039BE5" style="fill:#039BE5;fill:color(display-p3 0.0118 0.6078 0.8980);fill-opacity:1;"/>
<path d="M83.8597 113.384L84.2005 116.91C84.3185 118.169 83.1978 119.119 81.9591 118.798L66.2427 114.721C65.4103 114.505 64.8008 113.751 64.7615 112.899L64.3486 101.869C64.2896 100.342 66.0002 99.4834 67.2651 100.408L83.0536 111.988C83.5124 112.329 83.8073 112.834 83.8597 113.384Z" fill="url(#paint0_linear_159_305)" style=""/>
<g opacity="0.2">
<g opacity="0.2">
<path d="M66.5702 102.623L81.6902 113.706L81.9655 116.537L66.9504 112.637L66.5702 102.623ZM64.8531 100.552C64.532 100.873 64.3288 101.338 64.3484 101.869L64.7613 112.899C64.7941 113.758 65.4036 114.512 66.2425 114.721L81.959 118.798C82.6275 118.968 83.2697 118.772 83.6958 118.346C84.0497 117.992 84.2594 117.481 84.2004 116.91L83.8596 113.384C83.8072 112.834 83.5122 112.316 83.0535 111.988L67.265 100.408C66.4457 99.8112 65.443 99.9619 64.8531 100.552Z" fill="#039BE5" style="fill:#039BE5;fill:color(display-p3 0.0118 0.6078 0.8980);fill-opacity:1;"/>
<path d="M66.5702 102.623L81.6902 113.706L81.9655 116.537L66.9504 112.637L66.5702 102.623ZM64.8531 100.552C64.532 100.873 64.3288 101.338 64.3484 101.869L64.7613 112.899C64.7941 113.758 65.4036 114.512 66.2425 114.721L81.959 118.798C82.6275 118.968 83.2697 118.772 83.6958 118.346C84.0497 117.992 84.2594 117.481 84.2004 116.91L83.8596 113.384C83.8072 112.834 83.5122 112.316 83.0535 111.988L67.265 100.408C66.4457 99.8112 65.443 99.9619 64.8531 100.552Z" fill="#D3D8DA" style="fill:#D3D8DA;fill:color(display-p3 0.8293 0.8463 0.8542);fill-opacity:1;"/>
</g>
</g>
<path d="M43.9066 113.214L43.5658 116.74C43.4478 117.998 44.5686 118.949 45.8073 118.628L61.5237 114.551C62.356 114.335 62.9655 113.581 63.0049 112.729L63.4178 101.699C63.4767 100.172 61.7662 99.313 60.5013 100.237L44.7127 111.818C44.2474 112.152 43.959 112.663 43.9066 113.214Z" fill="#039BE5" style="fill:#039BE5;fill:color(display-p3 0.0118 0.6078 0.8980);fill-opacity:1;"/>
<path d="M43.9066 113.214L43.5658 116.74C43.4478 117.998 44.5686 118.949 45.8073 118.628L61.5237 114.551C62.356 114.335 62.9655 113.581 63.0049 112.729L63.4178 101.699C63.4767 100.172 61.7662 99.313 60.5013 100.237L44.7127 111.818C44.2474 112.152 43.959 112.663 43.9066 113.214Z" fill="#D3D8DA" style="fill:#D3D8DA;fill:color(display-p3 0.8293 0.8463 0.8542);fill-opacity:1;"/>
<path d="M56.5241 31.1361C56.5241 31.1361 28.5225 87.3621 25.8197 94.4923L26.3388 106.1C26.3388 106.1 45.8091 75.9414 52.0463 66.2592C58.2834 56.577 62.7434 52.2034 62.7434 52.2034L56.5241 31.1361Z" fill="#039BE5" style="fill:#039BE5;fill:color(display-p3 0.0118 0.6078 0.8980);fill-opacity:1;"/>
<path d="M56.5241 31.1361C56.5241 31.1361 28.5225 87.3621 25.8197 94.4923L26.3388 106.1C26.3388 106.1 45.8091 75.9414 52.0463 66.2592C58.2834 56.577 62.7434 52.2034 62.7434 52.2034L56.5241 31.1361Z" fill="#D3D8DA" style="fill:#D3D8DA;fill:color(display-p3 0.8293 0.8463 0.8542);fill-opacity:1;"/>
<path d="M63.5947 1.9888C61.1895 1.98868 55.0002 29.0285 55.0002 36.5C55.0002 44.0633 54.3274 106 54.3274 106L59.5002 111.5L67.5001 111.5L72.862 106C72.862 106 71.5002 43.9584 71.5002 36.5C71.5002 29.0285 66.0001 1.98892 63.5947 1.9888Z" fill="white" style="fill:white;fill-opacity:1;"/>
<path d="M69.998 35.3449C69.8669 32.8806 68.0712 30.0624 63.6538 30.0624C59.2364 30.0624 57.4341 32.8872 57.3095 35.3449C57.2899 35.7054 57.1654 36.5508 57.5914 36.7278C57.9846 36.8982 58.5745 36.387 58.8432 36.1707C60.2326 35.0565 61.9366 34.5191 63.6538 34.5322C65.3644 34.5257 67.0815 35.0631 68.4644 36.1707C68.7331 36.387 69.323 36.8982 69.7162 36.7278C70.1422 36.5508 70.0177 35.7054 69.998 35.3449Z" fill="#4FC3F7" style="fill:#4FC3F7;fill:color(display-p3 0.3098 0.7647 0.9686);fill-opacity:1;"/>
<path d="M69.998 35.3449C69.8669 32.8806 68.0712 30.0624 63.6538 30.0624C59.2364 30.0624 57.4341 32.8872 57.3095 35.3449C57.2899 35.7054 57.1654 36.5508 57.5914 36.7278C57.9846 36.8982 58.5745 36.387 58.8432 36.1707C60.2326 35.0565 61.9366 34.5191 63.6538 34.5322C65.3644 34.5257 67.0815 35.0631 68.4644 36.1707C68.7331 36.387 69.323 36.8982 69.7162 36.7278C70.1422 36.5508 70.0177 35.7054 69.998 35.3449Z" fill="#546E7A" style="fill:#546E7A;fill:color(display-p3 0.3294 0.4314 0.4784);fill-opacity:1;"/>
<path d="M66.2505 103.991C66.2505 96.0467 65.1467 89.6064 63.785 89.6064C62.4234 89.6064 61.3196 96.0467 61.3196 103.991C61.3196 111.936 62.4234 118.376 63.785 118.376C65.1467 118.376 66.2505 111.936 66.2505 103.991Z" fill="#616161" style="fill:#616161;fill:color(display-p3 0.3804 0.3804 0.3804);fill-opacity:1;"/>
<defs>
<linearGradient id="paint0_linear_159_305" x1="74.8038" y1="118.13" x2="79.2666" y2="101.836" gradientUnits="userSpaceOnUse">
<stop offset="0.0062124" stop-color="#BDBDBD" style="stop-color:#BDBDBD;stop-color:color(display-p3 0.7412 0.7412 0.7412);stop-opacity:1;"/>
<stop offset="0.0936" stop-color="#C4C4C4" style="stop-color:#C4C4C4;stop-color:color(display-p3 0.7686 0.7686 0.7686);stop-opacity:1;"/>
<stop offset="0.4215" stop-color="#DBDBDB" style="stop-color:#DBDBDB;stop-color:color(display-p3 0.8588 0.8588 0.8588);stop-opacity:1;"/>
<stop offset="0.7308" stop-color="#E9E9E9" style="stop-color:#E9E9E9;stop-color:color(display-p3 0.9137 0.9137 0.9137);stop-opacity:1;"/>
<stop offset="1" stop-color="#EEEEEE" style="stop-color:#EEEEEE;stop-color:color(display-p3 0.9333 0.9333 0.9333);stop-opacity:1;"/>
</linearGradient>
</defs>
</svg>
