<svg width="129" height="129" viewBox="0 0 129 129" fill="none" xmlns="http://www.w3.org/2000/svg">
<path d="M110.285 110.861C110.285 111.472 109.708 112.166 108.755 112.166L20.3352 112.166C19.3795 112.166 18.8052 111.478 18.8052 110.861V18.2293C18.8052 17.6118 19.3795 16.9236 20.3352 16.9236H108.755C109.708 16.9236 110.285 17.6179 110.285 18.2292V110.861Z" fill="url(#paint0_linear_79_918)" style=""/>
<path d="M110.285 110.861C110.285 111.472 109.708 112.166 108.755 112.166L20.3352 112.166C19.3795 112.166 18.8052 111.478 18.8052 110.861V18.2293C18.8052 17.6118 19.3795 16.9236 20.3352 16.9236H108.755C109.708 16.9236 110.285 17.6179 110.285 18.2292V110.861Z" fill="url(#paint1_linear_79_918)" style=""/>
<path d="M110.285 110.861C110.285 111.472 109.708 112.166 108.755 112.166L20.3352 112.166C19.3795 112.166 18.8052 111.478 18.8052 110.861V18.2293C18.8052 17.6118 19.3795 16.9236 20.3352 16.9236H108.755C109.708 16.9236 110.285 17.6179 110.285 18.2292V110.861Z" fill="white" style="fill:white;fill-opacity:1;"/>
<path d="M110.285 110.861C110.285 111.472 109.708 112.166 108.755 112.166L20.3352 112.166C19.3795 112.166 18.8052 111.478 18.8052 110.861V18.2293C18.8052 17.6118 19.3795 16.9236 20.3352 16.9236H108.755C109.708 16.9236 110.285 17.6179 110.285 18.2292V110.861Z" stroke="#6FBFF0" style="stroke:#6FBFF0;stroke:color(display-p3 0.4353 0.7490 0.9412);stroke-opacity:1;" stroke-width="3"/>
<defs>
<linearGradient id="paint0_linear_79_918" x1="64.5402" y1="113.208" x2="64.5402" y2="2.01648" gradientUnits="userSpaceOnUse">
<stop stop-color="white" style="stop-color:white;stop-opacity:1;"/>
<stop offset="0.3912" stop-color="#FDFDFD" style="stop-color:#FDFDFD;stop-color:color(display-p3 0.9922 0.9922 0.9922);stop-opacity:1;"/>
<stop offset="0.547" stop-color="#F6F6F6" style="stop-color:#F6F6F6;stop-color:color(display-p3 0.9647 0.9647 0.9647);stop-opacity:1;"/>
<stop offset="0.661" stop-color="#EAEAEA" style="stop-color:#EAEAEA;stop-color:color(display-p3 0.9176 0.9176 0.9176);stop-opacity:1;"/>
<stop offset="0.7545" stop-color="#D8D8D8" style="stop-color:#D8D8D8;stop-color:color(display-p3 0.8471 0.8471 0.8471);stop-opacity:1;"/>
<stop offset="0.8355" stop-color="#C2C2C2" style="stop-color:#C2C2C2;stop-color:color(display-p3 0.7608 0.7608 0.7608);stop-opacity:1;"/>
<stop offset="0.9078" stop-color="#A6A6A6" style="stop-color:#A6A6A6;stop-color:color(display-p3 0.6510 0.6510 0.6510);stop-opacity:1;"/>
<stop offset="0.9722" stop-color="#868686" style="stop-color:#868686;stop-color:color(display-p3 0.5255 0.5255 0.5255);stop-opacity:1;"/>
<stop offset="1" stop-color="#757575" style="stop-color:#757575;stop-color:color(display-p3 0.4588 0.4588 0.4588);stop-opacity:1;"/>
</linearGradient>
<linearGradient id="paint1_linear_79_918" x1="64.5402" y1="15.8815" x2="64.5402" y2="127.074" gradientUnits="userSpaceOnUse">
<stop stop-color="white" style="stop-color:white;stop-opacity:1;"/>
<stop offset="0.3912" stop-color="#FDFDFD" style="stop-color:#FDFDFD;stop-color:color(display-p3 0.9922 0.9922 0.9922);stop-opacity:1;"/>
<stop offset="0.547" stop-color="#F6F6F6" style="stop-color:#F6F6F6;stop-color:color(display-p3 0.9647 0.9647 0.9647);stop-opacity:1;"/>
<stop offset="0.661" stop-color="#EAEAEA" style="stop-color:#EAEAEA;stop-color:color(display-p3 0.9176 0.9176 0.9176);stop-opacity:1;"/>
<stop offset="0.7545" stop-color="#D8D8D8" style="stop-color:#D8D8D8;stop-color:color(display-p3 0.8471 0.8471 0.8471);stop-opacity:1;"/>
<stop offset="0.8355" stop-color="#C2C2C2" style="stop-color:#C2C2C2;stop-color:color(display-p3 0.7608 0.7608 0.7608);stop-opacity:1;"/>
<stop offset="0.9078" stop-color="#A6A6A6" style="stop-color:#A6A6A6;stop-color:color(display-p3 0.6510 0.6510 0.6510);stop-opacity:1;"/>
<stop offset="0.9722" stop-color="#868686" style="stop-color:#868686;stop-color:color(display-p3 0.5255 0.5255 0.5255);stop-opacity:1;"/>
<stop offset="1" stop-color="#757575" style="stop-color:#757575;stop-color:color(display-p3 0.4588 0.4588 0.4588);stop-opacity:1;"/>
</linearGradient>
</defs>
</svg>
