<svg width="129" height="128" viewBox="0 0 129 128" fill="none" xmlns="http://www.w3.org/2000/svg">
<path d="M84.0836 101H43.4665L38.7959 109H88.7959L84.0836 101Z" fill="url(#paint0_linear_124_10552)" style=""/>
<g opacity="0.2">
<path opacity="0.2" d="M44.8588 100.277H82.5904L87.5174 108.573H39.9739L44.8588 100.277ZM44.3535 99.4352L38.5 109.416H88.9913L83.0537 99.4352C83.0537 99.4352 44.3535 99.4352 44.3535 99.4352Z" fill="#424242" style="fill:#424242;fill:color(display-p3 0.2588 0.2588 0.2588);fill-opacity:1;"/>
</g>
<path d="M87.8785 111H39.6716C39.1712 111 38.7959 110.487 38.7959 109.923V109H88.7959V109.923C88.7959 110.487 88.3789 111 87.8785 111Z" fill="#9E9E9E" style="fill:#9E9E9E;fill:color(display-p3 0.6196 0.6196 0.6196);fill-opacity:1;"/>
<g opacity="0.2">
<path opacity="0.2" d="M88.5702 109.837V110.174C88.5702 110.426 88.3597 110.637 88.107 110.637H39.3843C39.1317 110.637 38.9211 110.426 38.9211 110.174V109.837H88.5702ZM88.9913 109.416H38.5V110.174C38.5 110.679 38.9211 111.058 39.3843 111.058H88.0649C88.5702 111.058 88.9492 110.637 88.9492 110.174V109.416H88.9913Z" fill="#424242" style="fill:#424242;fill:color(display-p3 0.2588 0.2588 0.2588);fill-opacity:1;"/>
</g>
<path d="M83.7959 101H42.7959V75.1613C42.7959 74.4977 43.3431 74 43.9745 74H82.5752C83.2487 74 83.7538 74.5392 83.7538 75.1613L83.7959 101Z" fill="url(#paint1_linear_124_10552)" style=""/>
<g opacity="0.2">
<path opacity="0.2" d="M83.0119 74.8422C83.2224 74.8422 83.3488 75.0107 83.3488 75.1791V100.572H44.059V75.1791C44.059 74.9686 44.2275 74.8422 44.3959 74.8422H83.0119ZM83.0119 74H44.3959C43.7221 74 43.2168 74.5474 43.2168 75.1791V101.414H84.2331V75.1791C84.2331 74.5053 83.6857 74 83.0119 74Z" fill="#424242" style="fill:#424242;fill:color(display-p3 0.2588 0.2588 0.2588);fill-opacity:1;"/>
</g>
<path d="M80.7959 77H46.7959V98H80.7959V77Z" fill="#616161" style="fill:#616161;fill:color(display-p3 0.3804 0.3804 0.3804);fill-opacity:1;"/>
<path d="M80.7959 77H46.7959V98H80.7959V77Z" fill="#546E7A" style="fill:#546E7A;fill:color(display-p3 0.3294 0.4314 0.4784);fill-opacity:1;"/>
<path d="M52.0836 44H11.4665L6.7959 52H56.7959L52.0836 44Z" fill="url(#paint2_linear_124_10552)" style=""/>
<g opacity="0.2">
<path opacity="0.2" d="M12.8588 43.2774H50.5904L55.5174 51.5733H7.97389L12.8588 43.2774ZM12.3535 42.4352L6.5 52.4155H56.9913L51.0537 42.4352C51.0537 42.4352 12.3535 42.4352 12.3535 42.4352Z" fill="#424242" style="fill:#424242;fill:color(display-p3 0.2588 0.2588 0.2588);fill-opacity:1;"/>
</g>
<path d="M55.8785 54H7.67163C7.17121 54 6.7959 53.4872 6.7959 52.9231V52H56.7959V52.9231C56.7959 53.4872 56.3789 54 55.8785 54Z" fill="#9E9E9E" style="fill:#9E9E9E;fill:color(display-p3 0.6196 0.6196 0.6196);fill-opacity:1;"/>
<g opacity="0.2">
<path opacity="0.2" d="M56.5702 52.8366V53.1735C56.5702 53.4262 56.3597 53.6368 56.107 53.6368H7.38434C7.13167 53.6368 6.92111 53.4262 6.92111 53.1735V52.8366H56.5702ZM56.9913 52.4155H6.5V53.1735C6.5 53.6789 6.92111 54.0579 7.38434 54.0579H56.0649C56.5702 54.0579 56.9492 53.6368 56.9492 53.1735V52.4155H56.9913Z" fill="#424242" style="fill:#424242;fill:color(display-p3 0.2588 0.2588 0.2588);fill-opacity:1;"/>
</g>
<path d="M51.7959 44H10.7959V18.1613C10.7959 17.4977 11.3431 17 11.9745 17H50.5752C51.2487 17 51.7538 17.5392 51.7538 18.1613L51.7959 44Z" fill="url(#paint3_linear_124_10552)" style=""/>
<g opacity="0.2">
<path opacity="0.2" d="M51.0119 17.8422C51.2224 17.8422 51.3488 18.0107 51.3488 18.1791V43.5722H12.059V18.1791C12.059 17.9686 12.2275 17.8422 12.3959 17.8422H51.0119ZM51.0119 17H12.3959C11.7221 17 11.2168 17.5474 11.2168 18.1791V44.4144H52.2331V18.1791C52.2331 17.5053 51.6857 17 51.0119 17Z" fill="#424242" style="fill:#424242;fill:color(display-p3 0.2588 0.2588 0.2588);fill-opacity:1;"/>
</g>
<path d="M48.7959 20H14.7959V41H48.7959V20Z" fill="#616161" style="fill:#616161;fill:color(display-p3 0.3804 0.3804 0.3804);fill-opacity:1;"/>
<path d="M48.7959 20H14.7959V41H48.7959V20Z" fill="#546E7A" style="fill:#546E7A;fill:color(display-p3 0.3294 0.4314 0.4784);fill-opacity:1;"/>
<path d="M118.084 44H77.4665L72.7959 52H122.796L118.084 44Z" fill="url(#paint4_linear_124_10552)" style=""/>
<g opacity="0.2">
<path opacity="0.2" d="M78.8588 43.2774H116.59L121.517 51.5733H73.9739L78.8588 43.2774ZM78.3535 42.4352L72.5 52.4155H122.991L117.054 42.4352C117.054 42.4352 78.3535 42.4352 78.3535 42.4352Z" fill="#424242" style="fill:#424242;fill:color(display-p3 0.2588 0.2588 0.2588);fill-opacity:1;"/>
</g>
<path d="M121.878 54H73.6716C73.1712 54 72.7959 53.4872 72.7959 52.9231V52H122.796V52.9231C122.796 53.4872 122.379 54 121.878 54Z" fill="#9E9E9E" style="fill:#9E9E9E;fill:color(display-p3 0.6196 0.6196 0.6196);fill-opacity:1;"/>
<g opacity="0.2">
<path opacity="0.2" d="M122.57 52.8366V53.1735C122.57 53.4262 122.36 53.6368 122.107 53.6368H73.3843C73.1317 53.6368 72.9211 53.4262 72.9211 53.1735V52.8366H122.57ZM122.991 52.4155H72.5V53.1735C72.5 53.6789 72.9211 54.0579 73.3843 54.0579H122.065C122.57 54.0579 122.949 53.6368 122.949 53.1735V52.4155H122.991Z" fill="#424242" style="fill:#424242;fill:color(display-p3 0.2588 0.2588 0.2588);fill-opacity:1;"/>
</g>
<path d="M117.796 44H76.7959V18.1613C76.7959 17.4977 77.3431 17 77.9745 17H116.575C117.249 17 117.754 17.5392 117.754 18.1613L117.796 44Z" fill="url(#paint5_linear_124_10552)" style=""/>
<g opacity="0.2">
<path opacity="0.2" d="M117.012 17.8422C117.222 17.8422 117.349 18.0107 117.349 18.1791V43.5722H78.059V18.1791C78.059 17.9686 78.2275 17.8422 78.3959 17.8422H117.012ZM117.012 17H78.3959C77.7221 17 77.2168 17.5474 77.2168 18.1791V44.4144H118.233V18.1791C118.233 17.5053 117.686 17 117.012 17Z" fill="#424242" style="fill:#424242;fill:color(display-p3 0.2588 0.2588 0.2588);fill-opacity:1;"/>
</g>
<path d="M114.796 20H80.7959V41H114.796V20Z" fill="#616161" style="fill:#616161;fill:color(display-p3 0.3804 0.3804 0.3804);fill-opacity:1;"/>
<path d="M114.796 20H80.7959V41H114.796V20Z" fill="#546E7A" style="fill:#546E7A;fill:color(display-p3 0.3294 0.4314 0.4784);fill-opacity:1;"/>
<defs>
<linearGradient id="paint0_linear_124_10552" x1="63.7959" y1="108.989" x2="63.7959" y2="101.044" gradientUnits="userSpaceOnUse">
<stop stop-color="#E0E0E0" style="stop-color:#E0E0E0;stop-color:color(display-p3 0.8784 0.8784 0.8784);stop-opacity:1;"/>
<stop offset="1" stop-color="#9E9E9E" style="stop-color:#9E9E9E;stop-color:color(display-p3 0.6196 0.6196 0.6196);stop-opacity:1;"/>
</linearGradient>
<linearGradient id="paint1_linear_124_10552" x1="63.2959" y1="74.0468" x2="63.2959" y2="100.822" gradientUnits="userSpaceOnUse">
<stop offset="0.0056401" stop-color="#E0E0E0" style="stop-color:#E0E0E0;stop-color:color(display-p3 0.8784 0.8784 0.8784);stop-opacity:1;"/>
<stop offset="0.9988" stop-color="#9E9E9E" style="stop-color:#9E9E9E;stop-color:color(display-p3 0.6196 0.6196 0.6196);stop-opacity:1;"/>
</linearGradient>
<linearGradient id="paint2_linear_124_10552" x1="31.7959" y1="51.9895" x2="31.7959" y2="44.0439" gradientUnits="userSpaceOnUse">
<stop stop-color="#E0E0E0" style="stop-color:#E0E0E0;stop-color:color(display-p3 0.8784 0.8784 0.8784);stop-opacity:1;"/>
<stop offset="1" stop-color="#9E9E9E" style="stop-color:#9E9E9E;stop-color:color(display-p3 0.6196 0.6196 0.6196);stop-opacity:1;"/>
</linearGradient>
<linearGradient id="paint3_linear_124_10552" x1="31.2959" y1="17.0468" x2="31.2959" y2="43.8221" gradientUnits="userSpaceOnUse">
<stop offset="0.0056401" stop-color="#E0E0E0" style="stop-color:#E0E0E0;stop-color:color(display-p3 0.8784 0.8784 0.8784);stop-opacity:1;"/>
<stop offset="0.9988" stop-color="#9E9E9E" style="stop-color:#9E9E9E;stop-color:color(display-p3 0.6196 0.6196 0.6196);stop-opacity:1;"/>
</linearGradient>
<linearGradient id="paint4_linear_124_10552" x1="97.7959" y1="51.9895" x2="97.7959" y2="44.0439" gradientUnits="userSpaceOnUse">
<stop stop-color="#E0E0E0" style="stop-color:#E0E0E0;stop-color:color(display-p3 0.8784 0.8784 0.8784);stop-opacity:1;"/>
<stop offset="1" stop-color="#9E9E9E" style="stop-color:#9E9E9E;stop-color:color(display-p3 0.6196 0.6196 0.6196);stop-opacity:1;"/>
</linearGradient>
<linearGradient id="paint5_linear_124_10552" x1="97.2959" y1="17.0468" x2="97.2959" y2="43.8221" gradientUnits="userSpaceOnUse">
<stop offset="0.0056401" stop-color="#E0E0E0" style="stop-color:#E0E0E0;stop-color:color(display-p3 0.8784 0.8784 0.8784);stop-opacity:1;"/>
<stop offset="0.9988" stop-color="#9E9E9E" style="stop-color:#9E9E9E;stop-color:color(display-p3 0.6196 0.6196 0.6196);stop-opacity:1;"/>
</linearGradient>
</defs>
</svg>
