<svg width="128" height="128" viewBox="0 0 128 128" fill="none" xmlns="http://www.w3.org/2000/svg">
<path d="M63.6001 118.8C35.7001 118.8 5.6001 101.3 5.6001 62.9C5.6001 24.5 35.7001 7 63.6001 7C79.1001 7 93.4001 12.1 104 21.4C115.5 31.6 121.6 46 121.6 62.9C121.6 79.8 115.5 94.1 104 104.3C93.4001 113.6 79.0001 118.8 63.6001 118.8Z" fill="url(#paint0_radial_169_9572)" style=""/>
<path d="M63.6001 118.8C35.7001 118.8 5.6001 101.3 5.6001 62.9C5.6001 24.5 35.7001 7 63.6001 7C79.1001 7 93.4001 12.1 104 21.4C115.5 31.6 121.6 46 121.6 62.9C121.6 79.8 115.5 94.1 104 104.3C93.4001 113.6 79.0001 118.8 63.6001 118.8Z" fill="url(#paint1_radial_169_9572)" style=""/>
<path d="M63.6001 118.8C35.7001 118.8 5.6001 101.3 5.6001 62.9C5.6001 24.5 35.7001 7 63.6001 7C79.1001 7 93.4001 12.1 104 21.4C115.5 31.6 121.6 46 121.6 62.9C121.6 79.8 115.5 94.1 104 104.3C93.4001 113.6 79.0001 118.8 63.6001 118.8Z" fill="url(#paint2_radial_169_9572)" style=""/>
<path d="M111.49 29.67C116.82 38.27 119.6 48.51 119.6 59.9C119.6 76.8 113.5 91.1 102 101.3C91.4002 110.6 77.0002 115.8 61.6002 115.8C43.5402 115.8 24.6002 108.45 13.4202 92.86C24.1802 110.52 44.4202 118.8 63.6002 118.8C79.0002 118.8 93.4002 113.6 104 104.3C115.5 94.1 121.6 79.8 121.6 62.9C121.6 50.16 118.13 38.84 111.49 29.67Z" fill="#EB8F00" style="fill:#EB8F00;fill:color(display-p3 0.9216 0.5608 0.0000);fill-opacity:1;"/>
<path d="M111.49 29.67C116.82 38.27 119.6 48.51 119.6 59.9C119.6 76.8 113.5 91.1 102 101.3C91.4002 110.6 77.0002 115.8 61.6002 115.8C43.5402 115.8 24.6002 108.45 13.4202 92.86C24.1802 110.52 44.4202 118.8 63.6002 118.8C79.0002 118.8 93.4002 113.6 104 104.3C115.5 94.1 121.6 79.8 121.6 62.9C121.6 50.16 118.13 38.84 111.49 29.67Z" fill="#4A2F27" style="fill:#4A2F27;fill:color(display-p3 0.2902 0.1843 0.1529);fill-opacity:1;"/>
<path d="M63.9999 87.15C74.8199 87.15 81.8299 95.07 83.6499 98.72C84.3499 100.13 84.3899 101.3 83.7899 101.85C83.1599 102.26 82.3399 102.26 81.7099 101.85C81.3999 101.7 81.0899 101.53 80.8099 101.33C70.7599 94.13 57.2499 94.13 47.1999 101.33C46.9199 101.53 46.6199 101.7 46.2999 101.85C45.6699 102.27 44.8499 102.27 44.2199 101.85C43.6199 101.3 43.6599 100.13 44.3599 98.72C46.1699 95.08 53.1799 87.15 63.9999 87.15Z" fill="#422B0D" style="fill:#422B0D;fill:color(display-p3 0.2588 0.1686 0.0510);fill-opacity:1;"/>
<path d="M63.9999 87.15C74.8199 87.15 81.8299 95.07 83.6499 98.72C84.3499 100.13 84.3899 101.3 83.7899 101.85C83.1599 102.26 82.3399 102.26 81.7099 101.85C81.3999 101.7 81.0899 101.53 80.8099 101.33C70.7599 94.13 57.2499 94.13 47.1999 101.33C46.9199 101.53 46.6199 101.7 46.2999 101.85C45.6699 102.27 44.8499 102.27 44.2199 101.85C43.6199 101.3 43.6599 100.13 44.3599 98.72C46.1699 95.08 53.1799 87.15 63.9999 87.15Z" fill="#1A1717" style="fill:#1A1717;fill:color(display-p3 0.1020 0.0902 0.0902);fill-opacity:1;"/>
<path d="M27.39 39.77C25.19 40.16 25.08 43.36 27.48 43.47C32.78 43.55 37.9 41.59 41.8 38C43.28 36.72 44.54 35.21 45.51 33.51C46.09 32.68 45.89 31.54 45.07 30.95C44.25 30.36 43.1 30.57 42.51 31.39L42.41 31.49C38.48 35.88 33.19 38.79 27.39 39.77Z" fill="#422B0D" style="fill:#422B0D;fill:color(display-p3 0.2588 0.1686 0.0510);fill-opacity:1;"/>
<path d="M27.39 39.77C25.19 40.16 25.08 43.36 27.48 43.47C32.78 43.55 37.9 41.59 41.8 38C43.28 36.72 44.54 35.21 45.51 33.51C46.09 32.68 45.89 31.54 45.07 30.95C44.25 30.36 43.1 30.57 42.51 31.39L42.41 31.49C38.48 35.88 33.19 38.79 27.39 39.77Z" fill="#1A1717" style="fill:#1A1717;fill:color(display-p3 0.1020 0.0902 0.0902);fill-opacity:1;"/>
<path d="M86.12 31.52L86.02 31.42C85.44 30.59 84.29 30.39 83.46 30.97C82.63 31.55 82.43 32.7 83.02 33.53C84 35.22 85.26 36.73 86.75 38C90.65 41.59 95.77 43.54 101.07 43.45C103.47 43.34 103.36 40.14 101.15 39.75C95.35 38.78 90.06 35.88 86.12 31.52Z" fill="#422B0D" style="fill:#422B0D;fill:color(display-p3 0.2588 0.1686 0.0510);fill-opacity:1;"/>
<path d="M86.12 31.52L86.02 31.42C85.44 30.59 84.29 30.39 83.46 30.97C82.63 31.55 82.43 32.7 83.02 33.53C84 35.22 85.26 36.73 86.75 38C90.65 41.59 95.77 43.54 101.07 43.45C103.47 43.34 103.36 40.14 101.15 39.75C95.35 38.78 90.06 35.88 86.12 31.52Z" fill="#1A1717" style="fill:#1A1717;fill:color(display-p3 0.1020 0.0902 0.0902);fill-opacity:1;"/>
<path d="M19.52 107C11.06 107 4.52002 98.79 4.52002 91.76C4.52002 86.82 6.73002 81.09 9.86002 73.15C10.25 71.98 10.77 70.8 11.29 69.5C12.78 65.78 14.09 61.75 16.09 58.26C17.04 56.56 19.19 55.96 20.88 56.91C21.44 57.23 21.91 57.69 22.23 58.26C24.09 61.69 25.37 65.4 27.3 69.73C32.77 81.97 34.3 86.92 34.3 91.86C34.49 98.83 27.85 107 19.52 107Z" fill="url(#paint3_radial_169_9572)" style=""/>
<path d="M28.6699 97.65C26.7599 100.65 22.4199 100.05 22.4199 95.14C22.4199 92 23.0599 75.88 25.7599 78.14C30.1399 81.81 31.3899 93.47 28.6699 97.65Z" fill="#81D4FA" style="fill:#81D4FA;fill:color(display-p3 0.5059 0.8314 0.9804);fill-opacity:1;"/>
<path d="M44.6699 54.94C40.4799 54.94 36.6699 58.48 36.6699 64.36C36.6699 70.24 40.4799 73.77 44.6699 73.77C48.8599 73.77 52.6699 70.23 52.6699 64.36C52.6699 58.49 48.8599 54.94 44.6699 54.94Z" fill="#422B0D" style="fill:#422B0D;fill:color(display-p3 0.2588 0.1686 0.0510);fill-opacity:1;"/>
<path d="M44.6699 54.94C40.4799 54.94 36.6699 58.48 36.6699 64.36C36.6699 70.24 40.4799 73.77 44.6699 73.77C48.8599 73.77 52.6699 70.23 52.6699 64.36C52.6699 58.49 48.8599 54.94 44.6699 54.94Z" fill="#1A1717" style="fill:#1A1717;fill:color(display-p3 0.1020 0.0902 0.0902);fill-opacity:1;"/>
<path d="M44.2801 58.87C42.8601 58.19 41.1501 58.79 40.4601 60.21C39.9301 61.32 40.1701 62.65 41.0601 63.51C42.4801 64.19 44.1901 63.59 44.8801 62.17C45.4101 61.06 45.1701 59.73 44.2801 58.87Z" fill="#896024" style="fill:#896024;fill:color(display-p3 0.5373 0.3765 0.1412);fill-opacity:1;"/>
<path d="M44.2801 58.87C42.8601 58.19 41.1501 58.79 40.4601 60.21C39.9301 61.32 40.1701 62.65 41.0601 63.51C42.4801 64.19 44.1901 63.59 44.8801 62.17C45.4101 61.06 45.1701 59.73 44.2801 58.87Z" fill="#555050" style="fill:#555050;fill:color(display-p3 0.3333 0.3125 0.3125);fill-opacity:1;"/>
<path d="M83 54.94C78.81 54.94 75 58.48 75 64.36C75 70.24 78.81 73.77 83 73.77C87.19 73.77 91 70.23 91 64.36C91 58.49 87.21 54.94 83 54.94Z" fill="#422B0D" style="fill:#422B0D;fill:color(display-p3 0.2588 0.1686 0.0510);fill-opacity:1;"/>
<path d="M83 54.94C78.81 54.94 75 58.48 75 64.36C75 70.24 78.81 73.77 83 73.77C87.19 73.77 91 70.23 91 64.36C91 58.49 87.21 54.94 83 54.94Z" fill="#1A1717" style="fill:#1A1717;fill:color(display-p3 0.1020 0.0902 0.0902);fill-opacity:1;"/>
<path d="M82.63 58.87C81.21 58.19 79.5 58.79 78.81 60.21C78.28 61.32 78.52 62.65 79.41 63.51C80.83 64.19 82.54 63.59 83.23 62.17C83.76 61.06 83.52 59.73 82.63 58.87Z" fill="#896024" style="fill:#896024;fill:color(display-p3 0.5373 0.3765 0.1412);fill-opacity:1;"/>
<path d="M82.63 58.87C81.21 58.19 79.5 58.79 78.81 60.21C78.28 61.32 78.52 62.65 79.41 63.51C80.83 64.19 82.54 63.59 83.23 62.17C83.76 61.06 83.52 59.73 82.63 58.87Z" fill="#555050" style="fill:#555050;fill:color(display-p3 0.3333 0.3125 0.3125);fill-opacity:1;"/>
<defs>
<radialGradient id="paint0_radial_169_9572" cx="0" cy="0" r="1" gradientUnits="userSpaceOnUse" gradientTransform="translate(63.6001 62.9) scale(56.9597 56.9597)">
<stop offset="0.5" stop-color="#FDE030" style="stop-color:#FDE030;stop-color:color(display-p3 0.9922 0.8784 0.1882);stop-opacity:1;"/>
<stop offset="0.92" stop-color="#F7C02B" style="stop-color:#F7C02B;stop-color:color(display-p3 0.9686 0.7529 0.1686);stop-opacity:1;"/>
<stop offset="1" stop-color="#F4A223" style="stop-color:#F4A223;stop-color:color(display-p3 0.9569 0.6353 0.1373);stop-opacity:1;"/>
</radialGradient>
<radialGradient id="paint1_radial_169_9572" cx="0" cy="0" r="1" gradientUnits="userSpaceOnUse" gradientTransform="translate(38.5991 34.5377) rotate(-43.2082) scale(102.024 101.825)">
<stop offset="0.3533" stop-color="#F9DDBD" style="stop-color:#F9DDBD;stop-color:color(display-p3 0.9765 0.8667 0.7412);stop-opacity:1;"/>
<stop offset="0.8723" stop-color="#FFD29C" style="stop-color:#FFD29C;stop-color:color(display-p3 1.0000 0.8235 0.6118);stop-opacity:1;"/>
</radialGradient>
<radialGradient id="paint2_radial_169_9572" cx="0" cy="0" r="1" gradientUnits="userSpaceOnUse" gradientTransform="translate(38.5991 34.5377) rotate(-43.2082) scale(102.024 101.825)">
<stop offset="0.3533" stop-color="#70534A" style="stop-color:#70534A;stop-color:color(display-p3 0.4392 0.3255 0.2902);stop-opacity:1;"/>
<stop offset="0.8723" stop-color="#5C4037" style="stop-color:#5C4037;stop-color:color(display-p3 0.3608 0.2510 0.2157);stop-opacity:1;"/>
</radialGradient>
<radialGradient id="paint3_radial_169_9572" cx="0" cy="0" r="1" gradientUnits="userSpaceOnUse" gradientTransform="translate(20.59 62.9404) scale(33.4 51.436)">
<stop offset="0.46" stop-color="#29B6F6" style="stop-color:#29B6F6;stop-color:color(display-p3 0.1608 0.7137 0.9647);stop-opacity:1;"/>
<stop offset="1" stop-color="#1E88E5" style="stop-color:#1E88E5;stop-color:color(display-p3 0.1176 0.5333 0.8980);stop-opacity:1;"/>
</radialGradient>
</defs>
</svg>
