<svg width="128" height="128" viewBox="0 0 128 128" fill="none" xmlns="http://www.w3.org/2000/svg">
<path d="M116 4H12C7.58 4 4 7.58 4 12V116C4 120.42 7.58 124 12 124H116C120.42 124 124 120.42 124 116V12C124 7.58 120.42 4 116 4Z" fill="#F77E00" style="fill:#F77E00;fill:color(display-p3 0.9686 0.4941 0.0000);fill-opacity:1;"/>
<path d="M116 4H12C7.58 4 4 7.58 4 12V116C4 120.42 7.58 124 12 124H116C120.42 124 124 120.42 124 116V12C124 7.58 120.42 4 116 4Z" fill="#F77E00" style="fill:#F77E00;fill:color(display-p3 0.9686 0.4941 0.0000);fill-opacity:1;"/>
<path d="M109.7 4H11.5C7.37002 4.03 4.03002 7.37 4.00002 11.5V109.4C3.99002 113.54 7.34002 116.89 11.48 116.9C11.49 116.9 11.49 116.9 11.5 116.9H109.6C113.74 116.91 117.09 113.56 117.1 109.42C117.1 109.41 117.1 109.41 117.1 109.4V11.5C117.19 7.45 113.97 4.09 109.92 4C109.85 4 109.77 4 109.7 4Z" fill="#FF9800" style="fill:#FF9800;fill:color(display-p3 1.0000 0.5961 0.0000);fill-opacity:1;"/>
<path opacity="0.75" d="M39.7001 12.8999C39.7001 10.5999 38.1001 9.89988 28.9001 10.1999C21.2001 10.4999 17.4001 11.3999 15.1001 14.1999C12.8001 16.9999 12.2001 22.6999 12.1001 29.4999C12.1001 34.2999 12.1001 38.7999 14.6001 38.7999C18.0001 38.7999 18.0001 30.8999 20.8001 26.4999C26.2001 17.7999 39.7001 15.8999 39.7001 12.8999Z" fill="#FFBD52" style="fill:#FFBD52;fill:color(display-p3 1.0000 0.7412 0.3216);fill-opacity:1;"/>
<path d="M46.362 75.3164C44.3673 74.1625 42.793 72.5793 41.6481 70.5667C40.5031 68.5541 39.9307 66.3536 39.9307 63.9475C39.9307 61.5413 40.5031 59.3319 41.6481 57.3283C42.793 55.3157 44.3673 53.7324 46.362 52.5786C48.3567 51.4247 50.584 50.8433 53.0349 50.8433C55.4858 50.8433 57.713 51.4247 59.7077 52.5786C61.7024 53.7324 63.2767 55.3157 64.4217 57.3283C65.5666 59.3409 66.1391 61.5413 66.1391 63.9475C66.1391 66.3536 65.5666 68.563 64.4217 70.5667C63.2767 72.5703 61.7024 74.1536 59.7077 75.3164C57.713 76.4703 55.4858 77.0517 53.0349 77.0517C50.584 77.0517 48.3567 76.4792 46.362 75.3164ZM57.2747 71.479C58.5628 70.7545 59.5736 69.7348 60.307 68.4288C61.0405 67.1229 61.4073 65.6291 61.4073 63.9475C61.4073 62.2658 61.0405 60.772 60.307 59.4661C59.5736 58.1602 58.5628 57.1404 57.2747 56.4159C55.9867 55.6914 54.5734 55.3336 53.0349 55.3336C51.4964 55.3336 50.0831 55.7003 48.8129 56.4159C47.5427 57.1404 46.532 58.1602 45.7985 59.4661C45.065 60.772 44.6983 62.2658 44.6983 63.9475C44.6983 65.6291 45.065 67.1229 45.7985 68.4288C46.532 69.7348 47.5427 70.7545 48.8129 71.479C50.0831 72.2036 51.4964 72.5614 53.0349 72.5614C54.5734 72.5614 55.9956 72.2036 57.2747 71.479Z" fill="#FAFAFA" style="fill:#FAFAFA;fill:color(display-p3 0.9804 0.9804 0.9804);fill-opacity:1;"/>
<path d="M68.8413 51.5527H84.6755V56.012H73.5497V62.0822H83.5541V66.5414H73.5497V76.5101H68.8413V51.5527Z" fill="#FAFAFA" style="fill:#FAFAFA;fill:color(display-p3 0.9804 0.9804 0.9804);fill-opacity:1;"/>
<path d="M87.3774 51.5527H103.212V56.012H92.0859V62.0822H102.09V66.5414H92.0859V76.5101H87.3774V51.5527Z" fill="#FAFAFA" style="fill:#FAFAFA;fill:color(display-p3 0.9804 0.9804 0.9804);fill-opacity:1;"/>
<path fill-rule="evenodd" clip-rule="evenodd" d="M31.352 109.791H67.0691C70.656 109.791 73.6325 106.891 73.6325 103.304V85.5806H68.748V101.521C68.748 102.218 67.7697 104.907 65.1214 104.907H32.3911C30.8887 104.907 29.6729 103.604 29.6729 101.993V26.0337C29.6729 24.4308 30.8887 23.1276 32.3841 23.1276H66.0298C67.5321 23.1276 68.748 24.4308 68.748 26.0412V43.4374H73.6325V24.7724C73.6325 21.1091 70.656 18.209 67.0691 18.209H31.352C27.765 18.209 24.7886 21.1854 24.7886 24.7724V103.228C24.7886 106.891 27.765 109.791 31.352 109.791ZM41.922 26.604H56.5752C57.0331 26.604 57.4147 26.1461 57.4147 25.6882C57.4147 25.2303 57.0331 24.7724 56.4988 24.7724H41.922C41.4641 24.7724 41.0062 25.2303 41.0062 25.6882C41.0062 26.1461 41.3878 26.604 41.922 26.604Z" fill="#FAFAFA" style="fill:#FAFAFA;fill:color(display-p3 0.9804 0.9804 0.9804);fill-opacity:1;"/>
</svg>
