<svg width="128" height="129" viewBox="0 0 128 129" fill="none" xmlns="http://www.w3.org/2000/svg">
<path d="M36.1136 109.299C36.1136 109.299 40.1436 107.699 42.1536 106.159C44.0336 104.719 45.7336 102.759 46.9036 101.719C47.6636 101.029 48.3336 100.719 48.9236 100.719C49.5236 100.719 50.0536 101.029 50.5036 101.579L53.0836 104.819C54.1636 106.599 53.2436 108.929 53.2436 108.929C53.2436 108.929 55.9436 111.789 51.4436 112.769C46.8336 113.779 41.3136 114.329 41.3136 114.329C41.0236 114.379 40.6736 114.409 40.2936 114.409C38.3936 114.409 35.6936 113.719 34.8336 111.749C34.8336 111.749 33.5436 110.319 36.1136 109.299Z" fill="#4568AC" style="fill:#4568AC;fill:color(display-p3 0.2706 0.4078 0.6745);fill-opacity:1;"/>
<path d="M53.4816 104.697L69.3535 103.256C69.3635 103.256 44.0326 104.189 46.8618 89.7344C46.8618 89.7344 62.9135 90.6412 69.3535 90.6412C69.3535 90.6412 93.0175 95.2915 93.4827 106.21C93.8899 115.769 77.7563 114.715 76.4484 114.715C75.3714 114.715 74.3824 114.715 73.1824 114.715C67.8624 114.715 60.3335 113.816 54.2135 113.096C51.8635 112.816 51.8016 105.787 53.4816 104.697Z" fill="#616161" style="fill:#616161;fill:color(display-p3 0.3804 0.3804 0.3804);fill-opacity:1;"/>
<path d="M55.415 40.2187C54.325 36.4987 53.725 31.8887 54.225 29.1187C54.335 28.4987 54.495 27.9587 54.715 27.5487C55.345 26.4387 56.185 25.3687 57.175 24.4087C57.195 24.3887 57.215 24.3687 57.235 24.3587C57.455 24.1387 57.685 23.9287 57.925 23.7287C57.965 23.6987 58.005 23.6587 58.045 23.6287C58.265 23.4387 58.485 23.2587 58.715 23.0887C58.765 23.0487 58.825 23.0087 58.875 22.9687C59.095 22.7987 59.325 22.6387 59.555 22.4887C59.615 22.4487 59.675 22.4087 59.735 22.3687C59.965 22.2187 60.205 22.0687 60.445 21.9287C60.505 21.8887 60.565 21.8587 60.625 21.8187C60.875 21.6787 61.125 21.5487 61.375 21.4187C61.425 21.3887 61.485 21.3587 61.535 21.3387C61.805 21.2087 62.085 21.0787 62.365 20.9587C62.395 20.9487 62.435 20.9287 62.465 20.9187C64.015 20.2787 65.635 19.9087 67.205 19.9087C67.245 19.9087 67.285 19.9187 67.315 19.9187C67.665 19.9187 68.005 19.9387 68.345 19.9787C74.085 20.6587 77.335 24.6287 78.385 29.7887C78.765 31.6587 78.795 33.5487 78.535 34.8887C78.505 35.0487 78.245 36.2287 78.235 36.5887C78.085 37.9987 80.865 39.2687 81.255 40.8087C81.545 41.9587 79.145 42.8187 78.965 43.0287C78.055 44.1187 79.795 49.0287 73.145 49.8287C70.585 50.1387 70.345 50.0687 69.545 50.1787C67.955 50.4087 68.425 56.8587 68.425 56.8587H68.415L56.895 54.5487C56.895 54.5487 58.425 47.0987 56.775 43.8487C56.285 42.8587 55.815 41.5987 55.415 40.2187Z" fill="#FFCA28" style="fill:#FFCA28;fill:color(display-p3 1.0000 0.7922 0.1569);fill-opacity:1;"/>
<path d="M55.415 40.2187C54.325 36.4987 53.725 31.8887 54.225 29.1187C54.335 28.4987 54.495 27.9587 54.715 27.5487C55.345 26.4387 56.185 25.3687 57.175 24.4087C57.195 24.3887 57.215 24.3687 57.235 24.3587C57.455 24.1387 57.685 23.9287 57.925 23.7287C57.965 23.6987 58.005 23.6587 58.045 23.6287C58.265 23.4387 58.485 23.2587 58.715 23.0887C58.765 23.0487 58.825 23.0087 58.875 22.9687C59.095 22.7987 59.325 22.6387 59.555 22.4887C59.615 22.4487 59.675 22.4087 59.735 22.3687C59.965 22.2187 60.205 22.0687 60.445 21.9287C60.505 21.8887 60.565 21.8587 60.625 21.8187C60.875 21.6787 61.125 21.5487 61.375 21.4187C61.425 21.3887 61.485 21.3587 61.535 21.3387C61.805 21.2087 62.085 21.0787 62.365 20.9587C62.395 20.9487 62.435 20.9287 62.465 20.9187C64.015 20.2787 65.635 19.9087 67.205 19.9087C67.245 19.9087 67.285 19.9187 67.315 19.9187C67.665 19.9187 68.005 19.9387 68.345 19.9787C74.085 20.6587 77.335 24.6287 78.385 29.7887C78.765 31.6587 78.795 33.5487 78.535 34.8887C78.505 35.0487 78.245 36.2287 78.235 36.5887C78.085 37.9987 80.865 39.2687 81.255 40.8087C81.545 41.9587 79.145 42.8187 78.965 43.0287C78.055 44.1187 79.795 49.0287 73.145 49.8287C70.585 50.1387 70.345 50.0687 69.545 50.1787C67.955 50.4087 68.425 56.8587 68.425 56.8587H68.415L56.895 54.5487C56.895 54.5487 58.425 47.0987 56.775 43.8487C56.285 42.8587 55.815 41.5987 55.415 40.2187Z" fill="#E0BB95" style="fill:#E0BB95;fill:color(display-p3 0.8784 0.7333 0.5843);fill-opacity:1;"/>
<path d="M78.415 45.8785C77.495 45.9685 76.565 45.7985 75.755 45.2585C74.875 44.6585 75.425 43.9285 76.425 44.2985C77.025 44.5285 77.865 44.6085 78.625 44.4285L78.415 45.8785Z" fill="#795548" style="fill:#795548;fill:color(display-p3 0.4745 0.3333 0.2824);fill-opacity:1;"/>
<path d="M72.9152 37.5958C72.9008 36.5576 73.4354 35.7084 74.1091 35.6991C74.7828 35.6898 75.3406 36.5239 75.3549 37.5621C75.3692 38.6003 74.8347 39.4494 74.161 39.4587C73.4873 39.468 72.9295 38.6339 72.9152 37.5958Z" fill="#404040" style="fill:#404040;fill:color(display-p3 0.2510 0.2510 0.2510);fill-opacity:1;"/>
<path d="M74.9643 34.7585C76.1843 34.9885 76.3843 34.1785 75.9243 33.5885C75.5843 33.1485 74.8243 32.8385 73.4643 33.2485C72.1843 33.6385 71.7143 34.4385 71.4143 34.9385C71.1143 35.4385 71.1943 35.8885 71.5043 35.8885C71.9243 35.8985 73.4543 34.4785 74.9643 34.7585Z" fill="#6D4C41" style="fill:#6D4C41;fill:color(display-p3 0.4275 0.2980 0.2549);fill-opacity:1;"/>
<path d="M74.9643 34.7585C76.1843 34.9885 76.3843 34.1785 75.9243 33.5885C75.5843 33.1485 74.8243 32.8385 73.4643 33.2485C72.1843 33.6385 71.7143 34.4385 71.4143 34.9385C71.1143 35.4385 71.1943 35.8885 71.5043 35.8885C71.9243 35.8985 73.4543 34.4785 74.9643 34.7585Z" fill="#AB872F" style="fill:#AB872F;fill:color(display-p3 0.6706 0.5294 0.1843);fill-opacity:1;"/>
<path d="M53.0747 59.9985C54.9347 53.6285 58.1047 51.9985 60.8747 51.9985C63.7547 51.9985 66.1947 53.7785 66.1947 53.7785C71.0947 57.1485 71.1047 62.2885 71.5547 69.1985C72.0147 76.1085 72.3447 90.1885 72.3447 90.1885C72.3447 90.1885 66.9047 92.4385 58.6347 92.4385H57.9847C49.3447 92.3185 46.1447 89.3285 46.1447 89.3285C46.1447 89.3285 50.7447 67.9585 53.0747 59.9985Z" fill="url(#paint0_radial_2637_146)" style=""/>
<path d="M53.0747 59.9985C54.9347 53.6285 58.1047 51.9985 60.8747 51.9985C63.7547 51.9985 66.1947 53.7785 66.1947 53.7785C71.0947 57.1485 71.1047 62.2885 71.5547 69.1985C72.0147 76.1085 72.3447 90.1885 72.3447 90.1885C72.3447 90.1885 66.9047 92.4385 58.6347 92.4385H57.9847C49.3447 92.3185 46.1447 89.3285 46.1447 89.3285C46.1447 89.3285 50.7447 67.9585 53.0747 59.9985Z" fill="url(#paint1_radial_2637_146)" style=""/>
<path d="M50.7499 76.0752C51.5298 73.1185 54.9384 62.0139 54.9693 61.9064C55.0441 61.6627 55.2899 61.5165 55.5466 61.5625L65.6471 63.5635C65.7854 63.5874 65.9067 63.68 65.9842 63.8084C66.0518 63.9359 66.0677 64.0782 66.0238 64.2144L60.9593 78.9917C62.5954 80.2116 70.6716 86.1498 73.0772 86.9144C74.7038 87.4298 77.5094 88.1141 80.7487 88.8821C83.3395 89.5046 85.6199 93.2114 86.75 95.3654C87.0869 96.0123 86.968 96.7944 86.4742 97.3075C86.1028 97.7023 85.5833 97.8712 85.0858 97.8211C84.7575 97.7881 84.4391 97.6556 84.1806 97.4285L80.8407 94.9619C80.3262 94.9805 78.8158 95.0094 76.795 94.7157C74.2987 94.354 71.9691 93.0342 71.8935 92.9864C71.0231 92.5471 66.772 91.3456 62.6582 90.178C59.59 89.3065 56.4233 88.4151 54.2904 87.7382C48.1929 85.8082 50.0499 78.7385 50.7499 76.0752Z" fill="url(#paint2_linear_2637_146)" style=""/>
<path d="M50.7499 76.0752C51.5298 73.1185 54.9384 62.0139 54.9693 61.9064C55.0441 61.6627 55.2899 61.5165 55.5466 61.5625L65.6471 63.5635C65.7854 63.5874 65.9067 63.68 65.9842 63.8084C66.0518 63.9359 66.0677 64.0782 66.0238 64.2144L60.9593 78.9917C62.5954 80.2116 70.6716 86.1498 73.0772 86.9144C74.7038 87.4298 77.5094 88.1141 80.7487 88.8821C83.3395 89.5046 85.6199 93.2114 86.75 95.3654C87.0869 96.0123 86.968 96.7944 86.4742 97.3075C86.1028 97.7023 85.5833 97.8712 85.0858 97.8211C84.7575 97.7881 84.4391 97.6556 84.1806 97.4285L80.8407 94.9619C80.3262 94.9805 78.8158 95.0094 76.795 94.7157C74.2987 94.354 71.9691 93.0342 71.8935 92.9864C71.0231 92.5471 66.772 91.3456 62.6582 90.178C59.59 89.3065 56.4233 88.4151 54.2904 87.7382C48.1929 85.8082 50.0499 78.7385 50.7499 76.0752Z" fill="url(#paint3_linear_2637_146)" style=""/>
<path d="M53.8914 62.3303C54.6802 59.485 57.4125 56.1015 61.293 56.4918C61.6313 56.5259 61.9864 56.5918 62.3486 56.6885C66.7818 57.8782 67.6316 62.8181 66.7681 65.9071L63.8939 75.2966L51.0172 71.7198L53.8914 62.3303Z" fill="#04A287" style="fill:#04A287;fill:color(display-p3 0.0157 0.6353 0.5294);fill-opacity:1;"/>
<path d="M53.8914 62.3303C54.6802 59.485 57.4125 56.1015 61.293 56.4918C61.6313 56.5259 61.9864 56.5918 62.3486 56.6885C66.7818 57.8782 67.6316 62.8181 66.7681 65.9071L63.8939 75.2966L51.0172 71.7198L53.8914 62.3303Z" fill="#EC6E24" style="fill:#EC6E24;fill:color(display-p3 0.9255 0.4314 0.1412);fill-opacity:1;"/>
<path d="M50.7308 28.5793C52.0308 24.9293 54.9008 23.7393 55.8408 23.4393C56.2408 22.1193 58.3008 17.0993 66.5108 18.1393C68.5108 18.3893 70.0008 19.2893 71.3108 20.0693C71.8708 20.4093 72.4108 20.7293 72.9108 20.9393C73.3108 21.1093 74.0208 21.2593 74.5908 21.0393C75.8908 20.5593 75.4008 18.5793 75.4008 18.5793C75.4008 18.5793 80.2508 19.3493 78.3508 24.0893C79.9908 24.7393 80.8108 26.4293 81.1608 28.0293C81.6408 30.2193 80.6408 32.3493 78.5608 33.3793C78.5608 33.3793 78.8508 29.8293 73.7508 30.2193C72.1708 30.3393 70.5208 30.6493 69.0308 30.1193C68.4608 29.9093 67.9208 29.5793 67.3708 29.3293C67.2508 29.3293 67.1708 29.3293 67.1708 29.3293C65.2708 30.4393 67.9908 34.9093 65.9308 37.6593C65.5208 38.1993 65.1608 38.0193 65.1608 38.0193L64.2508 36.7793C63.5608 35.9393 62.9408 35.1993 62.1308 35.4093C59.7408 36.0293 60.3408 40.3093 63.2308 41.1493C63.5208 41.2293 63.0408 46.0493 57.1208 46.2693C54.0608 46.3893 52.8908 43.8793 52.8908 43.8793C52.8908 43.8793 54.2108 44.1593 54.4508 43.0393C54.5808 42.4593 54.0208 41.6993 53.0308 40.8893C50.1808 38.5393 51.0708 35.6793 51.4508 34.7893C50.9708 34.0093 49.7108 31.4293 50.7308 28.5793Z" fill="#AB872F" style="fill:#AB872F;fill:color(display-p3 0.6706 0.5294 0.1843);fill-opacity:1;"/>
<path d="M51.421 34.8093C51.371 34.7193 52.351 36.9593 56.251 36.4393C57.861 36.3793 60.241 40.1693 57.991 42.8193C55.991 45.1593 52.871 43.9093 52.871 43.9093C52.871 43.9093 53.301 44.0193 53.911 43.7793C54.301 43.6193 54.431 43.0893 54.431 43.0693C54.561 42.4893 54.001 41.7293 53.011 40.9193C50.161 38.5593 51.051 35.6993 51.421 34.8093Z" fill="url(#paint4_radial_2637_146)" style=""/>
<path d="M50.7306 28.5792C51.4106 26.6592 52.7306 25.0092 54.5206 24.0192C54.7806 23.8692 55.4106 23.5392 55.8606 23.4392C55.6806 24.2892 55.7406 25.1792 56.1306 26.0992C56.1406 26.1292 56.6006 27.4892 57.8306 28.5492C57.0106 29.7692 56.6306 31.2392 56.2806 32.6692C55.9706 33.9192 55.6806 35.2992 56.2706 36.4392C55.5206 36.4192 54.3406 36.6792 53.0006 36.1392C51.7206 35.6192 51.0106 34.1992 50.6506 32.8992C50.2406 31.4792 50.2306 29.9692 50.7306 28.5792Z" fill="url(#paint5_radial_2637_146)" style=""/>
<path d="M56.1208 26.0992C55.0908 23.7092 56.3308 21.4292 58.2908 19.8592C60.5908 18.0292 63.6908 17.7692 66.5108 18.1292C68.5108 18.3792 70.0008 19.2792 71.3108 20.0592C71.8708 20.3992 72.4108 20.7192 72.9108 20.9292C73.3108 21.0992 74.0208 21.2492 74.5908 21.0292C75.8908 20.5492 75.4008 18.5692 75.4008 18.5692C75.4008 18.5692 80.2508 19.3392 78.3508 24.0792C79.9908 24.7292 80.8108 26.4192 81.1608 28.0192C81.6408 30.2092 80.6408 32.3392 78.5608 33.3692C78.5608 33.3692 78.8508 29.8192 73.7508 30.2092C72.1708 30.3292 70.5208 30.6392 69.0308 30.1092C67.7108 29.6292 67.2408 28.9492 65.7908 29.0792C64.2208 29.2292 62.1508 29.8992 60.5208 29.7192C57.2108 29.3492 56.1408 26.1392 56.1208 26.0992Z" fill="url(#paint6_radial_2637_146)" style=""/>
<path d="M57.9908 42.8093C59.0008 41.6493 59.2108 39.7993 60.8308 38.7493C61.1708 39.8093 61.9908 40.7993 63.2208 41.1593C63.5108 41.2393 63.0308 46.0593 57.1108 46.2793C54.0508 46.3993 52.8808 43.8893 52.8808 43.8893C52.8808 43.8893 55.9508 45.1393 57.9908 42.8093Z" fill="url(#paint7_radial_2637_146)" style=""/>
<defs>
<radialGradient id="paint0_radial_2637_146" cx="0" cy="0" r="1" gradientUnits="userSpaceOnUse" gradientTransform="translate(62.328 67.0101) rotate(180) scale(17.0361 17.0361)">
<stop offset="0.3637" stop-color="#00BFA5" style="stop-color:#00BFA5;stop-color:color(display-p3 0.0000 0.7490 0.6471);stop-opacity:1;"/>
<stop offset="0.8121" stop-color="#00B29A" style="stop-color:#00B29A;stop-color:color(display-p3 0.0000 0.6980 0.6039);stop-opacity:1;"/>
<stop offset="1" stop-color="#00AB94" style="stop-color:#00AB94;stop-color:color(display-p3 0.0000 0.6706 0.5804);stop-opacity:1;"/>
</radialGradient>
<radialGradient id="paint1_radial_2637_146" cx="0" cy="0" r="1" gradientUnits="userSpaceOnUse" gradientTransform="translate(62.3253 67.0139) rotate(180) scale(17.0361 17.0361)">
<stop offset="0.3666" stop-color="#F58B21" style="stop-color:#F58B21;stop-color:color(display-p3 0.9608 0.5451 0.1294);stop-opacity:1;"/>
<stop offset="0.6967" stop-color="#F17E22" style="stop-color:#F17E22;stop-color:color(display-p3 0.9451 0.4941 0.1333);stop-opacity:1;"/>
<stop offset="1" stop-color="#EC6E24" style="stop-color:#EC6E24;stop-color:color(display-p3 0.9255 0.4314 0.1412);stop-opacity:1;"/>
</radialGradient>
<linearGradient id="paint2_linear_2637_146" x1="67.6296" y1="91.029" x2="71.1827" y2="76.9389" gradientUnits="userSpaceOnUse">
<stop offset="0.5" stop-color="#FFCA28" style="stop-color:#FFCA28;stop-color:color(display-p3 1.0000 0.7922 0.1569);stop-opacity:1;"/>
<stop offset="1" stop-color="#FFB300" style="stop-color:#FFB300;stop-color:color(display-p3 1.0000 0.7020 0.0000);stop-opacity:1;"/>
</linearGradient>
<linearGradient id="paint3_linear_2637_146" x1="67.6296" y1="91.029" x2="71.1827" y2="76.9389" gradientUnits="userSpaceOnUse">
<stop offset="0.5" stop-color="#E0BB95" style="stop-color:#E0BB95;stop-color:color(display-p3 0.8784 0.7333 0.5843);stop-opacity:1;"/>
<stop offset="1" stop-color="#CCA47A" style="stop-color:#CCA47A;stop-color:color(display-p3 0.8000 0.6431 0.4784);stop-opacity:1;"/>
</linearGradient>
<radialGradient id="paint4_radial_2637_146" cx="0" cy="0" r="1" gradientUnits="userSpaceOnUse" gradientTransform="translate(59.0149 40.1834) rotate(157.587) scale(7.73725 11.1419)">
<stop offset="0.45" stop-color="#BFA055" stop-opacity="0" style="stop-color:none;stop-opacity:0;"/>
<stop offset="1" stop-color="#BFA055" style="stop-color:#BFA055;stop-color:color(display-p3 0.7490 0.6275 0.3333);stop-opacity:1;"/>
</radialGradient>
<radialGradient id="paint5_radial_2637_146" cx="0" cy="0" r="1" gradientUnits="userSpaceOnUse" gradientTransform="translate(57.8081 32.423) rotate(-174.428) scale(7.8426 9.89609)">
<stop offset="0.45" stop-color="#BFA055" stop-opacity="0" style="stop-color:none;stop-opacity:0;"/>
<stop offset="1" stop-color="#BFA055" style="stop-color:#BFA055;stop-color:color(display-p3 0.7490 0.6275 0.3333);stop-opacity:1;"/>
</radialGradient>
<radialGradient id="paint6_radial_2637_146" cx="0" cy="0" r="1" gradientUnits="userSpaceOnUse" gradientTransform="translate(66.4524 29.3898) rotate(-173.327) scale(16.1408 12.1333)">
<stop offset="0.45" stop-color="#BFA055" stop-opacity="0" style="stop-color:none;stop-opacity:0;"/>
<stop offset="1" stop-color="#BFA055" style="stop-color:#BFA055;stop-color:color(display-p3 0.7490 0.6275 0.3333);stop-opacity:1;"/>
</radialGradient>
<radialGradient id="paint7_radial_2637_146" cx="0" cy="0" r="1" gradientUnits="userSpaceOnUse" gradientTransform="translate(57.2703 41.1954) rotate(163.591) scale(8.68967 5.58626)">
<stop offset="0.45" stop-color="#BFA055" stop-opacity="0" style="stop-color:none;stop-opacity:0;"/>
<stop offset="1" stop-color="#BFA055" style="stop-color:#BFA055;stop-color:color(display-p3 0.7490 0.6275 0.3333);stop-opacity:1;"/>
</radialGradient>
</defs>
</svg>
