<svg width="128" height="128" viewBox="0 0 128 128" fill="none" xmlns="http://www.w3.org/2000/svg">
<path d="M63.6001 118.8C35.7001 118.8 5.6001 101.3 5.6001 62.9C5.6001 24.5 35.7001 7 63.6001 7C79.1001 7 93.4001 12.1 104 21.4C115.5 31.6 121.6 46 121.6 62.9C121.6 79.8 115.5 94.1 104 104.3C93.4001 113.6 79.0001 118.8 63.6001 118.8Z" fill="url(#paint0_radial_169_8990)" style=""/>
<path d="M63.6001 118.8C35.7001 118.8 5.6001 101.3 5.6001 62.9C5.6001 24.5 35.7001 7 63.6001 7C79.1001 7 93.4001 12.1 104 21.4C115.5 31.6 121.6 46 121.6 62.9C121.6 79.8 115.5 94.1 104 104.3C93.4001 113.6 79.0001 118.8 63.6001 118.8Z" fill="url(#paint1_linear_169_8990)" style=""/>
<path d="M63.6001 118.8C35.7001 118.8 5.6001 101.3 5.6001 62.9C5.6001 24.5 35.7001 7 63.6001 7C79.1001 7 93.4001 12.1 104 21.4C115.5 31.6 121.6 46 121.6 62.9C121.6 79.8 115.5 94.1 104 104.3C93.4001 113.6 79.0001 118.8 63.6001 118.8Z" fill="url(#paint2_radial_169_8990)" style=""/>
<path d="M63.6001 118.8C35.7001 118.8 5.6001 101.3 5.6001 62.9C5.6001 24.5 35.7001 7 63.6001 7C79.1001 7 93.4001 12.1 104 21.4C115.5 31.6 121.6 46 121.6 62.9C121.6 79.8 115.5 94.1 104 104.3C93.4001 113.6 79.0001 118.8 63.6001 118.8Z" fill="url(#paint3_radial_169_8990)" style=""/>
<path d="M111.49 29.67C116.82 38.27 119.6 48.51 119.6 59.9C119.6 76.8 113.5 91.1 102 101.3C91.4002 110.6 77.0002 115.8 61.6002 115.8C43.5402 115.8 24.6002 108.45 13.4202 92.86C24.1802 110.52 44.4202 118.8 63.6002 118.8C79.0002 118.8 93.4002 113.6 104 104.3C115.5 94.1 121.6 79.8 121.6 62.9C121.6 50.16 118.13 38.84 111.49 29.67Z" fill="#EB8F00" style="fill:#EB8F00;fill:color(display-p3 0.9216 0.5608 0.0000);fill-opacity:1;"/>
<path d="M111.49 29.67C116.82 38.27 119.6 48.51 119.6 59.9C119.6 76.8 113.5 91.1 102 101.3C91.4002 110.6 77.0002 115.8 61.6002 115.8C43.5402 115.8 24.6002 108.45 13.4202 92.86C24.1802 110.52 44.4202 118.8 63.6002 118.8C79.0002 118.8 93.4002 113.6 104 104.3C115.5 94.1 121.6 79.8 121.6 62.9C121.6 50.16 118.13 38.84 111.49 29.67Z" fill="#4A2F27" style="fill:#4A2F27;fill:color(display-p3 0.2902 0.1843 0.1529);fill-opacity:1;"/>
<path d="M44 40.94C39.81 40.94 36 44.48 36 50.36C36 56.24 39.81 59.77 44 59.77C48.2 59.77 52 56.23 52 50.36C52 44.49 48.24 40.94 44 40.94Z" fill="#422B0D" style="fill:#422B0D;fill:color(display-p3 0.2588 0.1686 0.0510);fill-opacity:1;"/>
<path d="M44 40.94C39.81 40.94 36 44.48 36 50.36C36 56.24 39.81 59.77 44 59.77C48.2 59.77 52 56.23 52 50.36C52 44.49 48.24 40.94 44 40.94Z" fill="#1A1717" style="fill:#1A1717;fill:color(display-p3 0.1020 0.0902 0.0902);fill-opacity:1;"/>
<path d="M43.6502 44.87C42.2302 44.19 40.5202 44.79 39.8302 46.21C39.3002 47.32 39.5402 48.65 40.4302 49.51C41.8502 50.19 43.5602 49.59 44.2502 48.17C44.7802 47.06 44.5402 45.73 43.6502 44.87Z" fill="#555050" style="fill:#555050;fill:color(display-p3 0.3333 0.3125 0.3125);fill-opacity:1;"/>
<path d="M82.4001 40.94C78.2101 40.94 74.4001 44.48 74.4001 50.36C74.4001 56.24 78.2101 59.77 82.4001 59.77C86.5901 59.77 90.4001 56.23 90.4001 50.36C90.4001 44.49 86.5901 40.94 82.4001 40.94Z" fill="#422B0D" style="fill:#422B0D;fill:color(display-p3 0.2588 0.1686 0.0510);fill-opacity:1;"/>
<path d="M82.4001 40.94C78.2101 40.94 74.4001 44.48 74.4001 50.36C74.4001 56.24 78.2101 59.77 82.4001 59.77C86.5901 59.77 90.4001 56.23 90.4001 50.36C90.4001 44.49 86.5901 40.94 82.4001 40.94Z" fill="#1A1717" style="fill:#1A1717;fill:color(display-p3 0.1020 0.0902 0.0902);fill-opacity:1;"/>
<path d="M82.0001 44.87C80.5801 44.19 78.8701 44.79 78.1801 46.21C77.6501 47.32 77.8901 48.65 78.7801 49.51C80.2001 50.19 81.9101 49.59 82.6001 48.17C83.1301 47.06 82.8901 45.73 82.0001 44.87Z" fill="#555050" style="fill:#555050;fill:color(display-p3 0.3333 0.3125 0.3125);fill-opacity:1;"/>
<path d="M39.3702 71.1H89.4602C95.7802 71.1 100.9 76.22 100.9 82.54V82.55C100.9 88.87 95.7802 93.99 89.4602 93.99H39.3702C33.0502 93.99 27.9302 88.87 27.9302 82.55V82.54C27.9302 76.22 33.0502 71.1 39.3702 71.1Z" fill="white" style="fill:white;fill-opacity:1;"/>
<path d="M100.74 80.67H28.1001C27.8501 81.99 27.8501 83.35 28.1001 84.67H100.7C100.95 83.35 100.95 81.99 100.7 80.67H100.74Z" fill="#B3B3B3" style="fill:#B3B3B3;fill:color(display-p3 0.7020 0.7020 0.7020);fill-opacity:1;"/>
<path d="M89.4602 71.1H88.9102V94H89.4602C90.3502 94 91.2402 93.89 92.1102 93.68V71.42C91.2402 71.21 90.3502 71.1 89.4602 71.1Z" fill="#B3B3B3" style="fill:#B3B3B3;fill:color(display-p3 0.7020 0.7020 0.7020);fill-opacity:1;"/>
<path d="M65.7801 71.1H62.5801V93.99H65.7801V71.1Z" fill="#B3B3B3" style="fill:#B3B3B3;fill:color(display-p3 0.7020 0.7020 0.7020);fill-opacity:1;"/>
<path d="M39.38 71.1C38.32 71.1 37.26 71.25 36.24 71.55V93.55C37.26 93.85 38.32 94 39.38 94H39.44V71.1H39.38Z" fill="#B3B3B3" style="fill:#B3B3B3;fill:color(display-p3 0.7020 0.7020 0.7020);fill-opacity:1;"/>
<path d="M52.6102 71.1H49.4102V93.99H52.6102V71.1Z" fill="#B3B3B3" style="fill:#B3B3B3;fill:color(display-p3 0.7020 0.7020 0.7020);fill-opacity:1;"/>
<path d="M78.94 71.1H75.74V93.99H78.94V71.1Z" fill="#B3B3B3" style="fill:#B3B3B3;fill:color(display-p3 0.7020 0.7020 0.7020);fill-opacity:1;"/>
<path d="M100.91 82.55C100.62 79.03 98.7201 75.85 95.7801 73.9C94.3901 72.98 92.8001 72.41 91.1401 72.23C89.4001 72.14 87.6701 72.14 85.9301 72.23C82.3401 72.37 78.7601 72.4 75.1801 72.48L64.4201 72.56L53.6701 72.48C50.0801 72.4 46.5001 72.37 42.9101 72.23C41.1701 72.14 39.4401 72.14 37.7001 72.23C36.0401 72.4 34.4501 72.98 33.0701 73.91C30.1201 75.85 28.2301 79.03 27.9301 82.55C27.6401 78.77 29.2401 75.09 32.2001 72.72C33.7101 71.5 35.4901 70.67 37.3901 70.29L38.1101 70.15L38.8401 70.09C39.3401 70.09 39.7801 70.03 40.2301 70.02L42.9101 69.93C46.5001 69.79 50.0801 69.76 53.6701 69.68L64.4201 69.6L75.1801 69.69C78.7601 69.77 82.3401 69.8 85.9301 69.94L88.6201 70.02C89.0701 70.02 89.5001 70.02 90.0101 70.09L90.7301 70.16L91.4501 70.3C93.3501 70.67 95.1301 71.5 96.6401 72.72C99.6001 75.09 101.2 78.77 100.91 82.55Z" fill="#EB8F00" style="fill:#EB8F00;fill:color(display-p3 0.9216 0.5608 0.0000);fill-opacity:1;"/>
<path d="M100.91 82.55C100.62 79.03 98.7201 75.85 95.7801 73.9C94.3901 72.98 92.8001 72.41 91.1401 72.23C89.4001 72.14 87.6701 72.14 85.9301 72.23C82.3401 72.37 78.7601 72.4 75.1801 72.48L64.4201 72.56L53.6701 72.48C50.0801 72.4 46.5001 72.37 42.9101 72.23C41.1701 72.14 39.4401 72.14 37.7001 72.23C36.0401 72.4 34.4501 72.98 33.0701 73.91C30.1201 75.85 28.2301 79.03 27.9301 82.55C27.6401 78.77 29.2401 75.09 32.2001 72.72C33.7101 71.5 35.4901 70.67 37.3901 70.29L38.1101 70.15L38.8401 70.09C39.3401 70.09 39.7801 70.03 40.2301 70.02L42.9101 69.93C46.5001 69.79 50.0801 69.76 53.6701 69.68L64.4201 69.6L75.1801 69.69C78.7601 69.77 82.3401 69.8 85.9301 69.94L88.6201 70.02C89.0701 70.02 89.5001 70.02 90.0101 70.09L90.7301 70.16L91.4501 70.3C93.3501 70.67 95.1301 71.5 96.6401 72.72C99.6001 75.09 101.2 78.77 100.91 82.55Z" fill="#4A2F27" style="fill:#4A2F27;fill:color(display-p3 0.2902 0.1843 0.1529);fill-opacity:1;"/>
<defs>
<radialGradient id="paint0_radial_169_8990" cx="0" cy="0" r="1" gradientUnits="userSpaceOnUse" gradientTransform="translate(63.6001 62.9) scale(56.9597 56.9597)">
<stop offset="0.5" stop-color="#FDE030" style="stop-color:#FDE030;stop-color:color(display-p3 0.9922 0.8784 0.1882);stop-opacity:1;"/>
<stop offset="0.92" stop-color="#F7C02B" style="stop-color:#F7C02B;stop-color:color(display-p3 0.9686 0.7529 0.1686);stop-opacity:1;"/>
<stop offset="1" stop-color="#F4A223" style="stop-color:#F4A223;stop-color:color(display-p3 0.9569 0.6353 0.1373);stop-opacity:1;"/>
</radialGradient>
<linearGradient id="paint1_linear_169_8990" x1="63.6001" y1="118.8" x2="63.6001" y2="7" gradientUnits="userSpaceOnUse">
<stop stop-color="#F4A223" style="stop-color:#F4A223;stop-color:color(display-p3 0.9569 0.6353 0.1373);stop-opacity:1;"/>
<stop offset="0.08" stop-color="#F7C02B" style="stop-color:#F7C02B;stop-color:color(display-p3 0.9686 0.7529 0.1686);stop-opacity:1;"/>
<stop offset="0.54" stop-color="#FDE030" stop-opacity="0" style="stop-color:none;stop-opacity:0;"/>
</linearGradient>
<radialGradient id="paint2_radial_169_8990" cx="0" cy="0" r="1" gradientUnits="userSpaceOnUse" gradientTransform="translate(38.5991 34.5377) rotate(-43.2082) scale(102.024 101.825)">
<stop offset="0.3533" stop-color="#F9DDBD" style="stop-color:#F9DDBD;stop-color:color(display-p3 0.9765 0.8667 0.7412);stop-opacity:1;"/>
<stop offset="0.8723" stop-color="#FFD29C" style="stop-color:#FFD29C;stop-color:color(display-p3 1.0000 0.8235 0.6118);stop-opacity:1;"/>
</radialGradient>
<radialGradient id="paint3_radial_169_8990" cx="0" cy="0" r="1" gradientUnits="userSpaceOnUse" gradientTransform="translate(38.5991 34.5377) rotate(-43.2082) scale(102.024 101.825)">
<stop offset="0.3533" stop-color="#70534A" style="stop-color:#70534A;stop-color:color(display-p3 0.4392 0.3255 0.2902);stop-opacity:1;"/>
<stop offset="0.8723" stop-color="#5C4037" style="stop-color:#5C4037;stop-color:color(display-p3 0.3608 0.2510 0.2157);stop-opacity:1;"/>
</radialGradient>
</defs>
</svg>
