<svg width="128" height="128" viewBox="0 0 128 128" fill="none" xmlns="http://www.w3.org/2000/svg">
<path d="M63.6001 118.8C35.7001 118.8 5.6001 101.3 5.6001 62.9C5.6001 24.5 35.7001 7 63.6001 7C79.1001 7 93.4001 12.1 104 21.4C115.5 31.6 121.6 46 121.6 62.9C121.6 79.8 115.5 94.1 104 104.3C93.4001 113.6 79.0001 118.8 63.6001 118.8Z" fill="url(#paint0_radial_169_9871)" style=""/>
<path d="M63.6001 118.8C35.7001 118.8 5.6001 101.3 5.6001 62.9C5.6001 24.5 35.7001 7 63.6001 7C79.1001 7 93.4001 12.1 104 21.4C115.5 31.6 121.6 46 121.6 62.9C121.6 79.8 115.5 94.1 104 104.3C93.4001 113.6 79.0001 118.8 63.6001 118.8Z" fill="url(#paint1_radial_169_9871)" style=""/>
<path d="M63.6001 118.8C35.7001 118.8 5.6001 101.3 5.6001 62.9C5.6001 24.5 35.7001 7 63.6001 7C79.1001 7 93.4001 12.1 104 21.4C115.5 31.6 121.6 46 121.6 62.9C121.6 79.8 115.5 94.1 104 104.3C93.4001 113.6 79.0001 118.8 63.6001 118.8Z" fill="url(#paint2_radial_169_9871)" style=""/>
<path d="M49.5202 41C49.1802 40.81 48.8502 40.62 48.5202 40.46C40.1702 36.31 30.0402 39.71 25.8902 48.06C21.7402 56.41 25.1402 66.54 33.4902 70.69C41.8402 74.84 51.9702 71.44 56.1202 63.09C60.0702 55.14 57.1902 45.48 49.5202 41Z" fill="white" style="fill:white;fill-opacity:1;"/>
<path d="M94.1601 41C93.8201 40.81 93.4801 40.62 93.1601 40.46C84.8401 36.32 74.7501 39.72 70.6101 48.03C66.4701 56.35 69.8701 66.44 78.1801 70.58C86.5001 74.72 96.5901 71.32 100.73 63.01C104.67 55.09 101.8 45.47 94.1601 41Z" fill="white" style="fill:white;fill-opacity:1;"/>
<path d="M69.2347 56.0816C69.8571 60.2933 71.9286 64.1584 75.0918 67.0138C76.5918 68.3293 78.3265 69.3695 80.1939 70.0732C82.051 70.7768 84.0204 71.1236 86 71.093C90.0306 71.093 93.9286 69.6143 96.9388 66.9424C100.102 64.087 102.173 60.222 102.796 56.0102H103C103 65.3923 95.3878 73 86 73C76.6122 73 69 65.3923 69 56.0102C69 56.0102 69 56.0102 69 56L69.2347 56.0816Z" fill="#EB8F00" style="fill:#EB8F00;fill:color(display-p3 0.9216 0.5608 0.0000);fill-opacity:1;"/>
<path d="M69.2347 56.0816C69.8571 60.2933 71.9286 64.1584 75.0918 67.0138C76.5918 68.3293 78.3265 69.3695 80.1939 70.0732C82.051 70.7768 84.0204 71.1236 86 71.093C90.0306 71.093 93.9286 69.6143 96.9388 66.9424C100.102 64.087 102.173 60.222 102.796 56.0102H103C103 65.3923 95.3878 73 86 73C76.6122 73 69 65.3923 69 56.0102C69 56.0102 69 56.0102 69 56L69.2347 56.0816Z" fill="#4A2F27" style="fill:#4A2F27;fill:color(display-p3 0.2902 0.1843 0.1529);fill-opacity:1;"/>
<path d="M24.2347 56.0714C24.8571 60.2857 26.9286 64.1531 30.0918 67.0102C31.5918 68.3265 33.3265 69.3673 35.1939 70.0714C37.051 70.7755 39.0204 71.1224 41 71.0918C45.0306 71.0918 48.9184 69.6122 51.9388 66.9388C55.102 64.0816 57.1735 60.2143 57.7959 56H58C58 65.3878 50.3878 73 41 73C31.6122 73 24 65.398 24 56.0102C24 56.0102 24 56.0102 24 56L24.2347 56.0714Z" fill="#EB8F00" style="fill:#EB8F00;fill:color(display-p3 0.9216 0.5608 0.0000);fill-opacity:1;"/>
<path d="M24.2347 56.0714C24.8571 60.2857 26.9286 64.1531 30.0918 67.0102C31.5918 68.3265 33.3265 69.3673 35.1939 70.0714C37.051 70.7755 39.0204 71.1224 41 71.0918C45.0306 71.0918 48.9184 69.6122 51.9388 66.9388C55.102 64.0816 57.1735 60.2143 57.7959 56H58C58 65.3878 50.3878 73 41 73C31.6122 73 24 65.398 24 56.0102C24 56.0102 24 56.0102 24 56L24.2347 56.0714Z" fill="#4A2F27" style="fill:#4A2F27;fill:color(display-p3 0.2902 0.1843 0.1529);fill-opacity:1;"/>
<path d="M111.49 29.67C116.82 38.27 119.6 48.51 119.6 59.9C119.6 76.8 113.5 91.1 102 101.3C91.4002 110.6 77.0002 115.8 61.6002 115.8C43.5402 115.8 24.6002 108.45 13.4202 92.86C24.1802 110.52 44.4202 118.8 63.6002 118.8C79.0002 118.8 93.4002 113.6 104 104.3C115.5 94.1 121.6 79.8 121.6 62.9C121.6 50.16 118.13 38.84 111.49 29.67Z" fill="#EB8F00" style="fill:#EB8F00;fill:color(display-p3 0.9216 0.5608 0.0000);fill-opacity:1;"/>
<path d="M111.49 29.67C116.82 38.27 119.6 48.51 119.6 59.9C119.6 76.8 113.5 91.1 102 101.3C91.4002 110.6 77.0002 115.8 61.6002 115.8C43.5402 115.8 24.6002 108.45 13.4202 92.86C24.1802 110.52 44.4202 118.8 63.6002 118.8C79.0002 118.8 93.4002 113.6 104 104.3C115.5 94.1 121.6 79.8 121.6 62.9C121.6 50.16 118.13 38.84 111.49 29.67Z" fill="#4A2F27" style="fill:#4A2F27;fill:color(display-p3 0.2902 0.1843 0.1529);fill-opacity:1;"/>
<path d="M75 98H53C50.79 98 49 96.21 49 94C49 91.79 50.79 90 53 90H75C77.21 90 79 91.79 79 94C79 96.21 77.21 98 75 98Z" fill="#422B0D" style="fill:#422B0D;fill:color(display-p3 0.2588 0.1686 0.0510);fill-opacity:1;"/>
<path d="M75 98H53C50.79 98 49 96.21 49 94C49 91.79 50.79 90 53 90H75C77.21 90 79 91.79 79 94C79 96.21 77.21 98 75 98Z" fill="#1A1717" style="fill:#1A1717;fill:color(display-p3 0.1020 0.0902 0.0902);fill-opacity:1;"/>
<path fill-rule="evenodd" clip-rule="evenodd" d="M49.0599 43.52C49.0599 47.5572 45.7871 50.83 41.7499 50.83C37.7127 50.83 34.4399 47.5572 34.4399 43.52C34.4399 42.2128 34.783 40.9858 35.3841 39.924C39.5099 38.5029 44.1815 38.6729 48.399 40.7691C48.4513 40.7944 48.5036 40.8205 48.5559 40.8473C48.8813 41.6751 49.0599 42.5767 49.0599 43.52ZM93.6899 43.52C93.6899 47.5572 90.4171 50.83 86.3799 50.83C82.3427 50.83 79.0699 47.5572 79.0699 43.52C79.0699 42.2249 79.4067 41.0086 79.9974 39.9536C84.1263 38.5086 88.8112 38.6654 93.039 40.7691C93.087 40.7931 93.1354 40.8178 93.1843 40.843C93.5107 41.672 93.6899 42.5751 93.6899 43.52Z" fill="#422B0D" style="fill:#422B0D;fill:color(display-p3 0.2588 0.1686 0.0510);fill-opacity:1;"/>
<path fill-rule="evenodd" clip-rule="evenodd" d="M49.0599 43.52C49.0599 47.5572 45.7871 50.83 41.7499 50.83C37.7127 50.83 34.4399 47.5572 34.4399 43.52C34.4399 42.2128 34.783 40.9858 35.3841 39.924C39.5099 38.5029 44.1815 38.6729 48.399 40.7691C48.4513 40.7944 48.5036 40.8205 48.5559 40.8473C48.8813 41.6751 49.0599 42.5767 49.0599 43.52ZM93.6899 43.52C93.6899 47.5572 90.4171 50.83 86.3799 50.83C82.3427 50.83 79.0699 47.5572 79.0699 43.52C79.0699 42.2249 79.4067 41.0086 79.9974 39.9536C84.1263 38.5086 88.8112 38.6654 93.039 40.7691C93.087 40.7931 93.1354 40.8178 93.1843 40.843C93.5107 41.672 93.6899 42.5751 93.6899 43.52Z" fill="#1A1717" style="fill:#1A1717;fill:color(display-p3 0.1020 0.0902 0.0902);fill-opacity:1;"/>
<defs>
<radialGradient id="paint0_radial_169_9871" cx="0" cy="0" r="1" gradientUnits="userSpaceOnUse" gradientTransform="translate(63.6001 62.9) scale(56.9597 56.9597)">
<stop offset="0.5" stop-color="#FDE030" style="stop-color:#FDE030;stop-color:color(display-p3 0.9922 0.8784 0.1882);stop-opacity:1;"/>
<stop offset="0.92" stop-color="#F7C02B" style="stop-color:#F7C02B;stop-color:color(display-p3 0.9686 0.7529 0.1686);stop-opacity:1;"/>
<stop offset="1" stop-color="#F4A223" style="stop-color:#F4A223;stop-color:color(display-p3 0.9569 0.6353 0.1373);stop-opacity:1;"/>
</radialGradient>
<radialGradient id="paint1_radial_169_9871" cx="0" cy="0" r="1" gradientUnits="userSpaceOnUse" gradientTransform="translate(38.5991 34.5377) rotate(-43.2082) scale(102.024 101.825)">
<stop offset="0.3533" stop-color="#F9DDBD" style="stop-color:#F9DDBD;stop-color:color(display-p3 0.9765 0.8667 0.7412);stop-opacity:1;"/>
<stop offset="0.8723" stop-color="#FFD29C" style="stop-color:#FFD29C;stop-color:color(display-p3 1.0000 0.8235 0.6118);stop-opacity:1;"/>
</radialGradient>
<radialGradient id="paint2_radial_169_9871" cx="0" cy="0" r="1" gradientUnits="userSpaceOnUse" gradientTransform="translate(38.5991 34.5377) rotate(-43.2082) scale(102.024 101.825)">
<stop offset="0.3533" stop-color="#70534A" style="stop-color:#70534A;stop-color:color(display-p3 0.4392 0.3255 0.2902);stop-opacity:1;"/>
<stop offset="0.8723" stop-color="#5C4037" style="stop-color:#5C4037;stop-color:color(display-p3 0.3608 0.2510 0.2157);stop-opacity:1;"/>
</radialGradient>
</defs>
</svg>
