<svg width="128" height="128" viewBox="0 0 128 128" fill="none" xmlns="http://www.w3.org/2000/svg">
<path d="M46.9101 39.4298C46.6101 26.2198 44.4001 23.6098 32.5601 15.9298C27.0201 12.3298 26.5401 8.90977 25.0901 8.55977C24.2401 8.34977 23.4301 8.99977 23.4501 9.84977L24.4201 52.0498C24.4301 52.6198 23.9401 53.0598 23.3801 52.9798C18.5801 52.2598 12.7801 54.4098 8.36015 59.0398C2.01015 65.6898 0.900146 74.9598 5.90015 79.7298C10.9001 84.4998 20.1001 82.9698 26.4701 76.3098C30.5301 72.0498 32.1601 67.3298 32.0001 62.2098L31.2001 27.2398C31.1801 26.5598 31.8501 26.1798 32.5001 26.3698C34.9401 27.0798 41.7501 29.2998 43.9301 40.8398C44.3401 42.9998 46.9901 42.8498 46.9101 39.4298Z" fill="#616266" style="fill:#616266;fill:color(display-p3 0.3804 0.3843 0.4000);fill-opacity:1;"/>
<path d="M124.94 46.6501C124.22 33.4601 121.93 30.9201 109.87 23.6001C104.22 20.1801 103.63 16.7701 102.18 16.4601C101.33 16.2801 100.53 16.9501 100.58 17.8001L102.87 59.9501C102.9 60.5101 102.42 60.9801 101.86 60.9101C97.0402 60.3401 91.3102 62.6701 87.0402 67.4401C80.8902 74.3001 80.0702 83.6001 85.2202 88.2101C90.3602 92.8201 99.5202 91.0001 105.67 84.1501C109.6 79.7701 111.08 75.0001 110.75 69.8801L108.87 34.9601C108.83 34.2801 109.49 33.8801 110.14 34.0501C112.6 34.6801 119.48 36.6901 122.01 48.1601C122.48 50.3001 125.12 50.0701 124.94 46.6501Z" fill="#616266" style="fill:#616266;fill:color(display-p3 0.3804 0.3843 0.4000);fill-opacity:1;"/>
<path d="M77.5 68.46C78.11 55.26 76.0799 52.5 64.8099 44.02C59.5299 40.05 59.2799 36.6 57.8699 36.15C57.0399 35.88 56.18 36.47 56.1399 37.33L54.2099 79.5C54.1799 80.0601 53.66 80.48 53.11 80.35C48.37 79.3 42.4399 81.05 37.7099 85.3601C30.8999 91.57 29.1599 100.74 33.8199 105.84C38.4799 110.94 47.77 110.05 54.57 103.84C58.92 99.87 60.8699 95.2701 61.0499 90.1501L62.6699 55.22C62.6999 54.54 63.3899 54.21 64.0299 54.45C66.41 55.33 73.06 58.01 74.43 69.67C74.6899 71.85 77.3499 71.89 77.5 68.46Z" fill="#616266" style="fill:#616266;fill:color(display-p3 0.3804 0.3843 0.4000);fill-opacity:1;"/>
</svg>
