<svg width="128" height="128" viewBox="0 0 128 128" fill="none" xmlns="http://www.w3.org/2000/svg">
<path d="M63.6001 118.8C35.7001 118.8 5.6001 101.3 5.6001 62.9C5.6001 24.5 35.7001 7 63.6001 7C79.1001 7 93.4001 12.1 104 21.4C115.5 31.6 121.6 46 121.6 62.9C121.6 79.8 115.5 94.1 104 104.3C93.4001 113.6 79.0001 118.8 63.6001 118.8Z" fill="url(#paint0_radial_169_5659)" style=""/>
<path d="M63.6001 118.8C35.7001 118.8 5.6001 101.3 5.6001 62.9C5.6001 24.5 35.7001 7 63.6001 7C79.1001 7 93.4001 12.1 104 21.4C115.5 31.6 121.6 46 121.6 62.9C121.6 79.8 115.5 94.1 104 104.3C93.4001 113.6 79.0001 118.8 63.6001 118.8Z" fill="url(#paint1_radial_169_5659)" style=""/>
<path d="M111.49 29.67C116.82 38.27 119.6 48.51 119.6 59.9C119.6 76.8 113.5 91.1 102 101.3C91.4002 110.6 77.0002 115.8 61.6002 115.8C43.5402 115.8 24.6002 108.45 13.4202 92.86C24.1802 110.52 44.4202 118.8 63.6002 118.8C79.0002 118.8 93.4002 113.6 104 104.3C115.5 94.1001 121.6 79.8 121.6 62.9C121.6 50.16 118.13 38.84 111.49 29.67Z" fill="#EB8F00" style="fill:#EB8F00;fill:color(display-p3 0.9216 0.5608 0.0000);fill-opacity:1;"/>
<path d="M111.49 29.67C116.82 38.27 119.6 48.51 119.6 59.9C119.6 76.8 113.5 91.1 102 101.3C91.4002 110.6 77.0002 115.8 61.6002 115.8C43.5402 115.8 24.6002 108.45 13.4202 92.86C24.1802 110.52 44.4202 118.8 63.6002 118.8C79.0002 118.8 93.4002 113.6 104 104.3C115.5 94.1001 121.6 79.8 121.6 62.9C121.6 50.16 118.13 38.84 111.49 29.67Z" fill="#F3B871" style="fill:#F3B871;fill:color(display-p3 0.9529 0.7216 0.4431);fill-opacity:1;"/>
<path d="M82.6499 33.62C86.4599 33.62 89.9099 39.27 89.9099 48.62C89.9099 57.97 86.4599 63.62 82.6499 63.62C78.8499 63.62 75.3999 57.98 75.3999 48.62C75.3999 39.26 78.8499 33.62 82.6499 33.62Z" fill="#312D2D" style="fill:#312D2D;fill:color(display-p3 0.1922 0.1765 0.1765);fill-opacity:1;"/>
<path d="M45.2698 33.62C41.2198 33.62 37.5298 39.27 37.5298 48.62C37.5298 57.97 41.2198 63.62 45.2698 63.62C49.3298 63.62 53.0198 57.98 53.0198 48.62C53.0198 39.26 49.3298 33.62 45.2698 33.62Z" fill="#312D2D" style="fill:#312D2D;fill:color(display-p3 0.1922 0.1765 0.1765);fill-opacity:1;"/>
<path d="M45.0499 37.29C43.8399 36.56 42.2699 36.96 41.5399 38.17C41.5199 38.21 41.4899 38.25 41.4699 38.29C40.5499 39.36 40.6599 40.98 41.7299 41.9C41.7599 41.93 41.7899 41.95 41.8299 41.98C43.0299 42.71 44.5999 42.32 45.3299 41.12C45.3599 41.07 45.3799 41.03 45.4099 40.98C46.3299 39.9 46.2099 38.28 45.1299 37.36C45.0999 37.33 45.0799 37.31 45.0499 37.29Z" fill="#767070" style="fill:#767070;fill:color(display-p3 0.4625 0.4374 0.4374);fill-opacity:1;"/>
<path d="M83.21 37.2899C81.99 36.5699 80.41 36.9699 79.69 38.1899C79.67 38.2199 79.65 38.2599 79.63 38.2899C78.72 39.3799 78.87 40.9899 79.96 41.8999C79.97 41.9099 79.99 41.9199 80 41.9299C81.2 42.6599 82.77 42.2699 83.5 41.0699C83.53 41.0199 83.55 40.9799 83.58 40.9299C84.49 39.8399 84.34 38.2299 83.25 37.3199C83.24 37.3099 83.22 37.2999 83.21 37.2899Z" fill="#767070" style="fill:#767070;fill:color(display-p3 0.4625 0.4374 0.4374);fill-opacity:1;"/>
<path d="M102.07 71.62C100.67 69.09 97.6299 67.98 94.9299 69C84.6699 71.99 74.0299 73.48 63.3399 73.43C52.6499 73.48 42.0099 71.99 31.7499 69C29.0599 67.98 26.0199 69.08 24.6199 71.6C23.2599 74.11 24.2399 77.02 25.3899 79.53C31.8099 93.63 45.9599 102.07 63.2599 102.12H63.4199C80.7199 102.12 94.8699 93.63 101.3 79.53C102.44 77 103.43 74.13 102.07 71.62Z" fill="#312D2D" style="fill:#312D2D;fill:color(display-p3 0.1922 0.1765 0.1765);fill-opacity:1;"/>
<path d="M79.3498 98.14C78.9798 97.8 78.5998 97.49 78.2198 97.14C74.1398 93.55 68.8598 91.62 63.4198 91.73C57.8198 91.64 52.3698 93.5 47.9998 97C47.6198 97.31 47.2198 97.61 46.8498 98C46.4798 98.39 46.2798 98.67 46.0398 99C51.5398 101.15 57.3998 102.25 63.3098 102.22H63.4698C69.1298 102.22 74.7398 101.21 80.0398 99.22C79.8398 98.84 79.6098 98.48 79.3498 98.14Z" fill="#ED7770" style="fill:#ED7770;fill:color(display-p3 0.9294 0.4667 0.4392);fill-opacity:1;"/>
<path d="M94.9299 69C84.6699 71.99 74.0299 73.48 63.3399 73.43C52.6499 73.48 42.0099 71.99 31.7499 69C29.0599 67.98 26.0199 69.08 24.6199 71.6C24.4199 71.98 24.2599 72.38 24.1599 72.79C24.4899 72.96 24.8699 73.13 25.3199 73.31C37.3599 79.34 50.6699 82.4 64.1299 82.24C77.0399 82.39 89.7999 79.58 101.46 74.04C101.93 73.84 102.32 73.65 102.67 73.47C102.59 72.82 102.38 72.18 102.07 71.6C100.67 69.08 97.6299 67.97 94.9299 69Z" fill="white" style="fill:white;fill-opacity:1;"/>
<path d="M102.11 71.63C100.69 69.1 97.6399 67.98 94.9199 69C84.6599 71.99 74.0199 73.48 63.3399 73.43C52.6499 73.48 42.0099 71.99 31.7499 69C29.0599 67.98 26.0199 69.08 24.6199 71.6C23.2599 74.11 24.2399 77.02 25.3899 79.53C25.8999 80.66 26.4699 81.77 27.0999 82.84C27.0999 82.84 24.9999 75.06 26.8199 72.8C27.4399 71.84 28.4799 71.24 29.6199 71.18C30.0899 71.18 30.5499 71.26 30.9999 71.4C41.4399 74.47 52.2699 76.02 63.1599 76H63.5099C74.3999 76.02 85.2299 74.47 95.6699 71.4C96.1199 71.26 96.5799 71.18 97.0499 71.18C98.1899 71.24 99.2399 71.84 99.8599 72.8C101.71 75.06 99.5799 82.87 99.5799 82.87C100.2 81.8 100.82 80.7 101.34 79.56C102.48 77.05 103.47 74.15 102.11 71.63Z" fill="#EB8F00" style="fill:#EB8F00;fill:color(display-p3 0.9216 0.5608 0.0000);fill-opacity:1;"/>
<path d="M102.11 71.63C100.69 69.1 97.6399 67.98 94.9199 69C84.6599 71.99 74.0199 73.48 63.3399 73.43C52.6499 73.48 42.0099 71.99 31.7499 69C29.0599 67.98 26.0199 69.08 24.6199 71.6C23.2599 74.11 24.2399 77.02 25.3899 79.53C25.8999 80.66 26.4699 81.77 27.0999 82.84C27.0999 82.84 24.9999 75.06 26.8199 72.8C27.4399 71.84 28.4799 71.24 29.6199 71.18C30.0899 71.18 30.5499 71.26 30.9999 71.4C41.4399 74.47 52.2699 76.02 63.1599 76H63.5099C74.3999 76.02 85.2299 74.47 95.6699 71.4C96.1199 71.26 96.5799 71.18 97.0499 71.18C98.1899 71.24 99.2399 71.84 99.8599 72.8C101.71 75.06 99.5799 82.87 99.5799 82.87C100.2 81.8 100.82 80.7 101.34 79.56C102.48 77.05 103.47 74.15 102.11 71.63Z" fill="#F3B872" style="fill:#F3B872;fill:color(display-p3 0.9542 0.7229 0.4453);fill-opacity:1;"/>
<defs>
<radialGradient id="paint0_radial_169_5659" cx="0" cy="0" r="1" gradientUnits="userSpaceOnUse" gradientTransform="translate(63.6001 62.9) scale(56.9597 56.9597)">
<stop offset="0.5" stop-color="#FDE030" style="stop-color:#FDE030;stop-color:color(display-p3 0.9922 0.8784 0.1882);stop-opacity:1;"/>
<stop offset="0.92" stop-color="#F7C02B" style="stop-color:#F7C02B;stop-color:color(display-p3 0.9686 0.7529 0.1686);stop-opacity:1;"/>
<stop offset="1" stop-color="#F4A223" style="stop-color:#F4A223;stop-color:color(display-p3 0.9569 0.6353 0.1373);stop-opacity:1;"/>
</radialGradient>
<radialGradient id="paint1_radial_169_5659" cx="0" cy="0" r="1" gradientUnits="userSpaceOnUse" gradientTransform="translate(38.5991 34.5377) rotate(-43.2082) scale(102.024 101.825)">
<stop offset="0.3533" stop-color="#F9DDBD" style="stop-color:#F9DDBD;stop-color:color(display-p3 0.9765 0.8667 0.7412);stop-opacity:1;"/>
<stop offset="0.8723" stop-color="#FFD29C" style="stop-color:#FFD29C;stop-color:color(display-p3 1.0000 0.8235 0.6118);stop-opacity:1;"/>
</radialGradient>
</defs>
</svg>
