<svg width="128" height="128" viewBox="0 0 128 128" fill="none" xmlns="http://www.w3.org/2000/svg">
<path d="M114.67 70.1901C112.71 44.2201 94.4399 26.3 63.9999 26.3C33.5599 26.3 15.2499 45.33 13.4499 71.31C12.3999 86.45 18.0299 99.94 29.3599 107.63C36.8199 112.7 47.2399 115.51 64.1299 115.51C81.3099 115.51 91.16 111.8 98.6199 106.78C111.05 98.43 115.8 85.1101 114.67 70.1901Z" fill="#D7CBC8" style="fill:#D7CBC8;fill:color(display-p3 0.8431 0.7961 0.7843);fill-opacity:1;"/>
<mask id="mask0_2600_1064" style="mask-type:alpha" maskUnits="userSpaceOnUse" x="13" y="26" width="102" height="90">
<path d="M114.67 70.1898C112.71 44.2198 94.4399 26.2998 63.9999 26.2998C33.5599 26.2998 15.2499 45.3298 13.4499 71.3098C12.3999 86.4498 18.0299 99.9398 29.3599 107.63C36.8199 112.7 47.2399 115.51 64.1299 115.51C81.3099 115.51 91.16 111.8 98.6199 106.78C111.05 98.4298 115.8 85.1098 114.67 70.1898Z" fill="#FECB80" style="fill:#FECB80;fill:color(display-p3 0.9961 0.7961 0.5020);fill-opacity:1;"/>
</mask>
<g mask="url(#mask0_2600_1064)">
<circle cx="96.5" cy="116.5" r="26.5" fill="#353332" style="fill:#353332;fill:color(display-p3 0.2078 0.2000 0.1961);fill-opacity:1;"/>
<path d="M41.9525 106.031C44.4627 117.354 53.9155 124.889 42.5924 127.399C31.2693 129.91 20.0552 122.765 17.5451 111.442C15.0349 100.119 22.1792 88.905 33.5023 86.3949C44.8253 83.8847 39.4423 94.7083 41.9525 106.031Z" fill="#454242" style="fill:#454242;fill:color(display-p3 0.2706 0.2588 0.2588);fill-opacity:1;"/>
<path d="M119.655 76.4665C130.624 80.2346 137.047 90.475 140.815 79.5062C144.583 68.5374 138.746 56.5908 127.777 52.8227C116.808 49.0546 104.862 54.892 101.094 65.8608C97.3255 76.8296 108.686 72.6984 119.655 76.4665Z" fill="#454242" style="fill:#454242;fill:color(display-p3 0.2706 0.2588 0.2588);fill-opacity:1;"/>
<path d="M82.8249 46.8115C81.5968 53.605 75.0941 58.1167 68.3007 56.8886C61.5072 55.6606 56.9955 49.1579 58.2236 42.3644C59.4516 35.571 65.2428 34.9955 72.0362 36.2236C78.8297 37.4516 84.0529 40.0181 82.8249 46.8115Z" fill="#454242" style="fill:#454242;fill:color(display-p3 0.2706 0.2588 0.2588);fill-opacity:1;"/>
<circle cx="28.5" cy="35.5" r="23.5" fill="#353332" style="fill:#353332;fill:color(display-p3 0.2078 0.2000 0.1961);fill-opacity:1;"/>
</g>
<path d="M47.5314 45.2661C50.9867 43.7774 52.6771 39.8007 50.9577 36.4541C42.8346 20.6436 29.4103 10.1238 23.8701 8.38977C21.5201 7.64977 18.5701 7.57977 17.2401 9.73977C14.1535 14.7464 10.2735 29.9224 17.0355 51.6083C18.0507 54.864 21.6994 56.3956 24.8314 55.0462L47.5314 45.2661Z" fill="#353332" style="fill:#353332;fill:color(display-p3 0.2078 0.2000 0.1961);fill-opacity:1;"/>
<path d="M36.1199 34.21C37.6599 32.92 38.4099 31.66 36.7199 29.05C34.0999 25 29.3899 20.27 27.5599 18.82C24.5599 16.44 22.2399 15.64 21.3499 19.47C19.6999 26.55 19.8299 36.16 21.5999 41.46C22.2199 43.33 24.1399 44.32 25.6199 43.03L36.1199 34.21Z" fill="#FFD1D1" style="fill:#FFD1D1;fill:color(display-p3 1.0000 0.8196 0.8196);fill-opacity:1;"/>
<path d="M79.8999 29.22C87.9799 16.81 99.2799 8.47003 103.97 6.98003C106.29 6.24003 108.99 6.36003 110.31 8.53003C113.63 13.98 116.44 30.77 109.89 54.28L85.9599 42.74L79.8999 29.22Z" fill="#D7CBC8" style="fill:#D7CBC8;fill:color(display-p3 0.8431 0.7961 0.7843);fill-opacity:1;"/>
<path d="M97.55 38.2299C99.98 40.6599 101.96 42.2899 103.39 43.8399C104.34 44.8699 106.08 44.3999 106.36 43.0199C108.81 31.2199 108.03 21.1599 106.36 18.5199C105.56 17.2599 104.07 16.9299 102.71 17.3899C100.27 18.1999 94.05 22.8399 89.66 29.6099C89.15 30.3999 89.34 31.4599 90.12 31.9899C91.7 33.0599 94.46 35.1299 97.55 38.2299Z" fill="#FFD1D1" style="fill:#FFD1D1;fill:color(display-p3 1.0000 0.8196 0.8196);fill-opacity:1;"/>
<path d="M55.6701 77.75C55.6201 74.67 60.0401 73.2 64.2101 73.13C68.3901 73.06 72.8901 74.42 72.9401 77.5C72.9901 80.58 67.7201 84.63 64.4001 84.63C61.0901 84.63 55.7301 80.82 55.6701 77.75Z" fill="black" style="fill:black;fill-opacity:1;"/>
<path d="M6.69995 71.03C7.03995 71.44 11.11 71.38 21.06 76.1" stroke="#9E9E9E" style="stroke:#9E9E9E;stroke:color(display-p3 0.6196 0.6196 0.6196);stroke-opacity:1;" stroke-width="3" stroke-miterlimit="10" stroke-linecap="round"/>
<path d="M2.8999 82.86C2.8999 82.86 9.3199 80.62 20.3599 82.58" stroke="#9E9E9E" style="stroke:#9E9E9E;stroke:color(display-p3 0.6196 0.6196 0.6196);stroke-opacity:1;" stroke-width="3" stroke-miterlimit="10" stroke-linecap="round"/>
<path d="M8.80981 92.29C8.80981 92.29 11.5498 90.91 21.4798 90.04" stroke="#9E9E9E" style="stroke:#9E9E9E;stroke:color(display-p3 0.6196 0.6196 0.6196);stroke-opacity:1;" stroke-width="3" stroke-miterlimit="10" stroke-linecap="round"/>
<path d="M120.87 67.51C120.87 67.51 117.46 67.84 106.93 73.85" stroke="#9E9E9E" style="stroke:#9E9E9E;stroke:color(display-p3 0.6196 0.6196 0.6196);stroke-opacity:1;" stroke-width="3" stroke-miterlimit="10" stroke-linecap="round"/>
<path d="M122.42 78.49C122.42 78.49 117.33 78.13 106.37 80.46" stroke="#9E9E9E" style="stroke:#9E9E9E;stroke:color(display-p3 0.6196 0.6196 0.6196);stroke-opacity:1;" stroke-width="3" stroke-miterlimit="10" stroke-linecap="round"/>
<path d="M120.45 89.05C120.45 89.05 115.62 87.34 105.67 86.8" stroke="#9E9E9E" style="stroke:#9E9E9E;stroke:color(display-p3 0.6196 0.6196 0.6196);stroke-opacity:1;" stroke-width="3" stroke-miterlimit="10" stroke-linecap="round"/>
<path d="M96.0899 66.37C95.7499 71.88 92.3299 74.91 88.4399 74.91C84.5499 74.91 81.3999 71.03 81.3999 66.25C81.3999 61.47 84.6799 57.54 89.0499 57.78C94.1199 58.07 96.3699 61.87 96.0899 66.37Z" fill="#000200" style="fill:#000200;fill:color(display-p3 0.0000 0.0078 0.0000);fill-opacity:1;"/>
<path d="M46 65.8099C46.78 71.4199 44.42 74.8399 40.51 75.6299C36.6 76.4199 33.25 73.7899 32.28 68.9899C31.3 64.1799 33.18 59.6699 37.62 59.0199C42.77 58.2699 45.36 61.2199 46 65.8099Z" fill="#000200" style="fill:#000200;fill:color(display-p3 0.0000 0.0078 0.0000);fill-opacity:1;"/>
<path d="M44.9901 85.16C42.4201 86.83 45.4601 90.7 47.2401 92.01C49.0201 93.32 52.2201 94.93 56.9101 94.45C62.4501 93.89 64.0401 89.76 64.0401 89.76C64.0401 89.76 66.0101 94.36 72.8601 94.55C79.8101 94.74 81.9601 90.98 82.9001 89.86C83.8401 88.73 84.7801 85.82 83.1801 84.7C81.5801 83.57 80.4601 84.98 78.7701 87.33C77.0801 89.68 73.6101 90.99 70.2301 89.39C66.8501 87.79 66.6601 82.35 66.6601 82.35L61.8701 82.63C61.8701 82.63 61.1201 87.32 58.9601 88.82C56.8001 90.32 51.6401 90.7 49.4801 87.41C48.5301 85.95 47.1501 83.75 44.9901 85.16Z" fill="black" style="fill:black;fill-opacity:1;"/>
</svg>
