<svg width="128" height="128" viewBox="0 0 128 128" fill="none" xmlns="http://www.w3.org/2000/svg">
<path d="M63.6001 118.8C35.7001 118.8 5.6001 101.3 5.6001 62.9C5.6001 24.5 35.7001 7 63.6001 7C79.1001 7 93.4001 12.1 104 21.4C115.5 31.6 121.6 46 121.6 62.9C121.6 79.8 115.5 94.1 104 104.3C93.4001 113.6 79.0001 118.8 63.6001 118.8Z" fill="url(#paint0_radial_169_12733)" style=""/>
<path d="M63.6001 118.8C35.7001 118.8 5.6001 101.3 5.6001 62.9C5.6001 24.5 35.7001 7 63.6001 7C79.1001 7 93.4001 12.1 104 21.4C115.5 31.6 121.6 46 121.6 62.9C121.6 79.8 115.5 94.1 104 104.3C93.4001 113.6 79.0001 118.8 63.6001 118.8Z" fill="url(#paint1_radial_169_12733)" style=""/>
<path d="M63.6001 118.8C35.7001 118.8 5.6001 101.3 5.6001 62.9C5.6001 24.5 35.7001 7 63.6001 7C79.1001 7 93.4001 12.1 104 21.4C115.5 31.6 121.6 46 121.6 62.9C121.6 79.8 115.5 94.1 104 104.3C93.4001 113.6 79.0001 118.8 63.6001 118.8Z" fill="url(#paint2_radial_169_12733)" style=""/>
<path d="M63.6001 118.8C35.7001 118.8 5.6001 101.3 5.6001 62.9C5.6001 24.5 35.7001 7 63.6001 7C79.1001 7 93.4001 12.1 104 21.4C115.5 31.6 121.6 46 121.6 62.9C121.6 79.8 115.5 94.1 104 104.3C93.4001 113.6 79.0001 118.8 63.6001 118.8Z" fill="url(#paint3_radial_169_12733)" style=""/>
<path d="M63.6001 118.8C35.7001 118.8 5.6001 101.3 5.6001 62.9C5.6001 24.5 35.7001 7 63.6001 7C79.1001 7 93.4001 12.1 104 21.4C115.5 31.6 121.6 46 121.6 62.9C121.6 79.8 115.5 94.1 104 104.3C93.4001 113.6 79.0001 118.8 63.6001 118.8Z" fill="url(#paint4_radial_169_12733)" style=""/>
<path d="M111.49 29.67C116.82 38.27 119.6 48.51 119.6 59.9C119.6 76.8 113.5 91.1 102 101.3C91.4002 110.6 77.0002 115.8 61.6002 115.8C43.5402 115.8 24.6002 108.45 13.4202 92.86C24.1802 110.52 44.4202 118.8 63.6002 118.8C79.0002 118.8 93.4002 113.6 104 104.3C115.5 94.1 121.6 79.8 121.6 62.9C121.6 50.16 118.13 38.84 111.49 29.67Z" fill="#EB8F00" style="fill:#EB8F00;fill:color(display-p3 0.9216 0.5608 0.0000);fill-opacity:1;"/>
<path d="M111.49 29.67C116.82 38.27 119.6 48.51 119.6 59.9C119.6 76.8 113.5 91.1 102 101.3C91.4002 110.6 77.0002 115.8 61.6002 115.8C43.5402 115.8 24.6002 108.45 13.4202 92.86C24.1802 110.52 44.4202 118.8 63.6002 118.8C79.0002 118.8 93.4002 113.6 104 104.3C115.5 94.1 121.6 79.8 121.6 62.9C121.6 50.16 118.13 38.84 111.49 29.67Z" fill="#F3B872" style="fill:#F3B872;fill:color(display-p3 0.9542 0.7229 0.4453);fill-opacity:1;"/>
<path d="M111.49 29.67C116.82 38.27 119.6 48.51 119.6 59.9C119.6 76.8 113.5 91.1 102 101.3C91.4002 110.6 77.0002 115.8 61.6002 115.8C43.5402 115.8 24.6002 108.45 13.4202 92.86C24.1802 110.52 44.4202 118.8 63.6002 118.8C79.0002 118.8 93.4002 113.6 104 104.3C115.5 94.1 121.6 79.8 121.6 62.9C121.6 50.16 118.13 38.84 111.49 29.67Z" fill="#91674D" style="fill:#91674D;fill:color(display-p3 0.5686 0.4039 0.3020);fill-opacity:1;"/>
<path d="M89.7401 79.1C81.3901 76.6 72.7101 75.39 64.0001 75.5C55.1701 75.42 46.3801 76.68 37.9301 79.25C35.0001 84.02 33.4401 89.5 33.4001 95.1C33.3501 98.62 36.1601 101.51 39.6801 101.56C40.6901 101.57 41.7001 101.35 42.6001 100.9C49.3101 97.76 56.6001 96.06 64.0001 95.9C71.4101 96.04 78.7001 97.75 85.4001 100.9C88.5501 102.46 92.3701 101.18 93.9401 98.02C94.3901 97.11 94.6201 96.11 94.6001 95.1C94.5401 89.41 92.8501 83.86 89.7401 79.1Z" fill="#49362E" style="fill:#49362E;fill:color(display-p3 0.2863 0.2118 0.1804);fill-opacity:1;"/>
<path d="M89.7401 79.1C81.3901 76.6 72.7101 75.39 64.0001 75.5C55.1701 75.42 46.3801 76.68 37.9301 79.25C35.0001 84.02 33.4401 89.5 33.4001 95.1C33.3501 98.62 36.1601 101.51 39.6801 101.56C40.6901 101.57 41.7001 101.35 42.6001 100.9C49.3101 97.76 56.6001 96.06 64.0001 95.9C71.4101 96.04 78.7001 97.75 85.4001 100.9C88.5501 102.46 92.3701 101.18 93.9401 98.02C94.3901 97.11 94.6201 96.11 94.6001 95.1C94.5401 89.41 92.8501 83.86 89.7401 79.1Z" fill="#1A1717" style="fill:#1A1717;fill:color(display-p3 0.1020 0.0902 0.0902);fill-opacity:1;"/>
<path d="M89.7401 79.1C81.3901 76.6 72.7101 75.39 64.0001 75.5C55.1701 75.42 46.3801 76.68 37.9301 79.25C35.0001 84.02 33.4401 89.5 33.4001 95.1C33.3501 98.62 36.1601 101.51 39.6801 101.56C40.6901 101.57 41.7001 101.35 42.6001 100.9C49.3101 97.76 56.6001 96.06 64.0001 95.9C71.4101 96.04 78.7001 97.75 85.4001 100.9C88.5501 102.46 92.3701 101.18 93.9401 98.02C94.3901 97.11 94.6201 96.11 94.6001 95.1C94.5401 89.41 92.8501 83.86 89.7401 79.1Z" fill="#5D4037" style="fill:#5D4037;fill:color(display-p3 0.3647 0.2510 0.2157);fill-opacity:1;"/>
<path d="M89.7402 79.1C83.7002 69.6 73.0902 67.2 64.0002 67.2C54.1202 67.2 43.7002 69.67 37.9302 79.2C46.3802 76.65 55.1702 75.4 64.0002 75.5C72.7102 75.39 81.3902 76.6 89.7402 79.1Z" fill="white" style="fill:white;fill-opacity:1;"/>
<path d="M33.7299 30.91C31.5299 31.31 31.4299 34.51 33.8299 34.61C39.1299 34.68 44.2499 32.71 48.1299 29.11C49.6099 27.83 50.8599 26.31 51.8299 24.61C52.4099 23.78 52.2099 22.64 51.3799 22.06C50.5499 21.48 49.4099 21.68 48.8299 22.51L48.7299 22.61C44.8099 26.99 39.5199 29.92 33.7299 30.91Z" fill="#49362E" style="fill:#49362E;fill:color(display-p3 0.2863 0.2118 0.1804);fill-opacity:1;"/>
<path d="M33.7299 30.91C31.5299 31.31 31.4299 34.51 33.8299 34.61C39.1299 34.68 44.2499 32.71 48.1299 29.11C49.6099 27.83 50.8599 26.31 51.8299 24.61C52.4099 23.78 52.2099 22.64 51.3799 22.06C50.5499 21.48 49.4099 21.68 48.8299 22.51L48.7299 22.61C44.8099 26.99 39.5199 29.92 33.7299 30.91Z" fill="#1A1717" style="fill:#1A1717;fill:color(display-p3 0.1020 0.0902 0.0902);fill-opacity:1;"/>
<path d="M33.7299 30.91C31.5299 31.31 31.4299 34.51 33.8299 34.61C39.1299 34.68 44.2499 32.71 48.1299 29.11C49.6099 27.83 50.8599 26.31 51.8299 24.61C52.4099 23.78 52.2099 22.64 51.3799 22.06C50.5499 21.48 49.4099 21.68 48.8299 22.51L48.7299 22.61C44.8099 26.99 39.5199 29.92 33.7299 30.91Z" fill="#613E31" style="fill:#613E31;fill:color(display-p3 0.3804 0.2431 0.1922);fill-opacity:1;"/>
<path d="M78.44 22.51C77.86 21.68 76.72 21.48 75.89 22.06C75.06 22.64 74.86 23.78 75.44 24.61C76.41 26.31 77.66 27.83 79.14 29.11C83.04 32.68 88.15 34.65 93.44 34.61C95.94 34.51 95.74 31.31 93.54 30.91C87.68 29.95 82.35 26.98 78.44 22.51Z" fill="#49362E" style="fill:#49362E;fill:color(display-p3 0.2863 0.2118 0.1804);fill-opacity:1;"/>
<path d="M78.44 22.51C77.86 21.68 76.72 21.48 75.89 22.06C75.06 22.64 74.86 23.78 75.44 24.61C76.41 26.31 77.66 27.83 79.14 29.11C83.04 32.68 88.15 34.65 93.44 34.61C95.94 34.51 95.74 31.31 93.54 30.91C87.68 29.95 82.35 26.98 78.44 22.51Z" fill="#1A1717" style="fill:#1A1717;fill:color(display-p3 0.1020 0.0902 0.0902);fill-opacity:1;"/>
<path d="M78.44 22.51C77.86 21.68 76.72 21.48 75.89 22.06C75.06 22.64 74.86 23.78 75.44 24.61C76.41 26.31 77.66 27.83 79.14 29.11C83.04 32.68 88.15 34.65 93.44 34.61C95.94 34.51 95.74 31.31 93.54 30.91C87.68 29.95 82.35 26.98 78.44 22.51Z" fill="#613E31" style="fill:#613E31;fill:color(display-p3 0.3804 0.2431 0.1922);fill-opacity:1;"/>
<path d="M34.47 41.22C34.47 41.22 47.52 42.58 56.54 52.08C57.53 53.09 57.51 54.71 56.49 55.7C56.08 56.1 55.56 56.35 55 56.41C51.51 56.73 46.29 58.52 39 64.05C39 64.05 35.06 67.8 31.94 64.05C29.48 61.05 33.94 57.65 33.94 57.65C33.94 57.65 39.19 52.89 45.43 52.56L33.85 49.94C32.67 49.78 31.56 49.25 30.7 48.42C29.56 47.46 29.16 45.89 29.7 44.5C30.43 42.5 32.34 41.19 34.47 41.22Z" fill="#49362E" style="fill:#49362E;fill:color(display-p3 0.2863 0.2118 0.1804);fill-opacity:1;"/>
<path d="M34.47 41.22C34.47 41.22 47.52 42.58 56.54 52.08C57.53 53.09 57.51 54.71 56.49 55.7C56.08 56.1 55.56 56.35 55 56.41C51.51 56.73 46.29 58.52 39 64.05C39 64.05 35.06 67.8 31.94 64.05C29.48 61.05 33.94 57.65 33.94 57.65C33.94 57.65 39.19 52.89 45.43 52.56L33.85 49.94C32.67 49.78 31.56 49.25 30.7 48.42C29.56 47.46 29.16 45.89 29.7 44.5C30.43 42.5 32.34 41.19 34.47 41.22Z" fill="#1A1717" style="fill:#1A1717;fill:color(display-p3 0.1020 0.0902 0.0902);fill-opacity:1;"/>
<path d="M34.47 41.22C34.47 41.22 47.52 42.58 56.54 52.08C57.53 53.09 57.51 54.71 56.49 55.7C56.08 56.1 55.56 56.35 55 56.41C51.51 56.73 46.29 58.52 39 64.05C39 64.05 35.06 67.8 31.94 64.05C29.48 61.05 33.94 57.65 33.94 57.65C33.94 57.65 39.19 52.89 45.43 52.56L33.85 49.94C32.67 49.78 31.56 49.25 30.7 48.42C29.56 47.46 29.16 45.89 29.7 44.5C30.43 42.5 32.34 41.19 34.47 41.22Z" fill="#49362E" style="fill:#49362E;fill:color(display-p3 0.2863 0.2118 0.1804);fill-opacity:1;"/>
<path d="M94.0001 41.22C94.0001 41.22 81.0001 42.58 71.9401 52.08C70.9501 53.09 70.9801 54.71 71.9901 55.7C72.4001 56.1 72.9401 56.35 73.5101 56.41C77.0001 56.73 82.2101 58.52 89.5101 64.05C89.5101 64.05 93.4401 67.8 96.5701 64.05C99.0301 61.05 94.5701 57.65 94.5701 57.65C94.5701 57.65 89.3201 52.89 83.0801 52.56L94.5401 49.94C95.7301 49.78 96.8301 49.25 97.7001 48.42C98.8301 47.46 99.2401 45.89 98.7001 44.5C97.9801 42.53 96.1001 41.22 94.0001 41.22Z" fill="#49362E" style="fill:#49362E;fill:color(display-p3 0.2863 0.2118 0.1804);fill-opacity:1;"/>
<path d="M94.0001 41.22C94.0001 41.22 81.0001 42.58 71.9401 52.08C70.9501 53.09 70.9801 54.71 71.9901 55.7C72.4001 56.1 72.9401 56.35 73.5101 56.41C77.0001 56.73 82.2101 58.52 89.5101 64.05C89.5101 64.05 93.4401 67.8 96.5701 64.05C99.0301 61.05 94.5701 57.65 94.5701 57.65C94.5701 57.65 89.3201 52.89 83.0801 52.56L94.5401 49.94C95.7301 49.78 96.8301 49.25 97.7001 48.42C98.8301 47.46 99.2401 45.89 98.7001 44.5C97.9801 42.53 96.1001 41.22 94.0001 41.22Z" fill="#1A1717" style="fill:#1A1717;fill:color(display-p3 0.1020 0.0902 0.0902);fill-opacity:1;"/>
<path d="M94.0001 41.22C94.0001 41.22 81.0001 42.58 71.9401 52.08C70.9501 53.09 70.9801 54.71 71.9901 55.7C72.4001 56.1 72.9401 56.35 73.5101 56.41C77.0001 56.73 82.2101 58.52 89.5101 64.05C89.5101 64.05 93.4401 67.8 96.5701 64.05C99.0301 61.05 94.5701 57.65 94.5701 57.65C94.5701 57.65 89.3201 52.89 83.0801 52.56L94.5401 49.94C95.7301 49.78 96.8301 49.25 97.7001 48.42C98.8301 47.46 99.2401 45.89 98.7001 44.5C97.9801 42.53 96.1001 41.22 94.0001 41.22Z" fill="#49362E" style="fill:#49362E;fill:color(display-p3 0.2863 0.2118 0.1804);fill-opacity:1;"/>
<path d="M63.9401 65.7C67.4601 65.73 70.9701 66.17 74.4001 67C77.8801 67.83 81.1701 69.3 84.1101 71.34C87.0101 73.45 89.4001 76.19 91.1101 79.34C92.8201 82.41 94.0301 85.74 94.6701 89.19C94.9901 90.91 95.1601 92.65 95.1601 94.4C95.2001 95.32 95.1001 96.23 94.8601 97.12C94.5901 98.02 94.1401 98.85 93.5501 99.57C92.3501 100.99 90.6201 101.87 88.7601 102C87.8501 102.05 86.9301 101.93 86.0601 101.65C85.1901 101.33 84.4701 100.94 83.6801 100.65C77.4801 97.79 70.7701 96.17 63.9401 95.9C70.8001 95.91 77.6001 97.27 83.9401 99.9C84.7401 100.21 85.5401 100.6 86.2801 100.84C87.0501 101.05 87.8501 101.12 88.6401 101.05C90.2201 100.89 91.6601 100.1 92.6401 98.85C93.1101 98.24 93.4501 97.53 93.6401 96.78C93.8201 96.01 93.8801 95.21 93.8101 94.42C93.7401 92.74 93.5201 91.06 93.1601 89.42C92.4301 86.17 91.1801 83.06 89.4401 80.22C87.7701 77.4 85.4901 74.99 82.7701 73.16C80.0201 71.4 76.9701 70.16 73.7701 69.52C70.5201 68.87 67.2101 68.58 63.9001 68.67L63.9401 65.7Z" fill="#EB8F00" style="fill:#EB8F00;fill:color(display-p3 0.9216 0.5608 0.0000);fill-opacity:1;"/>
<path d="M63.9401 65.7C67.4601 65.73 70.9701 66.17 74.4001 67C77.8801 67.83 81.1701 69.3 84.1101 71.34C87.0101 73.45 89.4001 76.19 91.1101 79.34C92.8201 82.41 94.0301 85.74 94.6701 89.19C94.9901 90.91 95.1601 92.65 95.1601 94.4C95.2001 95.32 95.1001 96.23 94.8601 97.12C94.5901 98.02 94.1401 98.85 93.5501 99.57C92.3501 100.99 90.6201 101.87 88.7601 102C87.8501 102.05 86.9301 101.93 86.0601 101.65C85.1901 101.33 84.4701 100.94 83.6801 100.65C77.4801 97.79 70.7701 96.17 63.9401 95.9C70.8001 95.91 77.6001 97.27 83.9401 99.9C84.7401 100.21 85.5401 100.6 86.2801 100.84C87.0501 101.05 87.8501 101.12 88.6401 101.05C90.2201 100.89 91.6601 100.1 92.6401 98.85C93.1101 98.24 93.4501 97.53 93.6401 96.78C93.8201 96.01 93.8801 95.21 93.8101 94.42C93.7401 92.74 93.5201 91.06 93.1601 89.42C92.4301 86.17 91.1801 83.06 89.4401 80.22C87.7701 77.4 85.4901 74.99 82.7701 73.16C80.0201 71.4 76.9701 70.16 73.7701 69.52C70.5201 68.87 67.2101 68.58 63.9001 68.67L63.9401 65.7Z" fill="#F3B872" style="fill:#F3B872;fill:color(display-p3 0.9542 0.7229 0.4453);fill-opacity:1;"/>
<path d="M63.9401 65.7C67.4601 65.73 70.9701 66.17 74.4001 67C77.8801 67.83 81.1701 69.3 84.1101 71.34C87.0101 73.45 89.4001 76.19 91.1101 79.34C92.8201 82.41 94.0301 85.74 94.6701 89.19C94.9901 90.91 95.1601 92.65 95.1601 94.4C95.2001 95.32 95.1001 96.23 94.8601 97.12C94.5901 98.02 94.1401 98.85 93.5501 99.57C92.3501 100.99 90.6201 101.87 88.7601 102C87.8501 102.05 86.9301 101.93 86.0601 101.65C85.1901 101.33 84.4701 100.94 83.6801 100.65C77.4801 97.79 70.7701 96.17 63.9401 95.9C70.8001 95.91 77.6001 97.27 83.9401 99.9C84.7401 100.21 85.5401 100.6 86.2801 100.84C87.0501 101.05 87.8501 101.12 88.6401 101.05C90.2201 100.89 91.6601 100.1 92.6401 98.85C93.1101 98.24 93.4501 97.53 93.6401 96.78C93.8201 96.01 93.8801 95.21 93.8101 94.42C93.7401 92.74 93.5201 91.06 93.1601 89.42C92.4301 86.17 91.1801 83.06 89.4401 80.22C87.7701 77.4 85.4901 74.99 82.7701 73.16C80.0201 71.4 76.9701 70.16 73.7701 69.52C70.5201 68.87 67.2101 68.58 63.9001 68.67L63.9401 65.7Z" fill="#91674D" style="fill:#91674D;fill:color(display-p3 0.5686 0.4039 0.3020);fill-opacity:1;"/>
<path d="M64.19 68.7C60.88 68.61 57.57 68.9 54.33 69.55C51.13 70.19 48.08 71.43 45.33 73.19C42.61 75.02 40.3299 77.43 38.6599 80.25C36.9299 83.09 35.6699 86.2 34.9399 89.45C34.5799 91.09 34.36 92.77 34.29 94.45C34.22 95.24 34.2799 96.04 34.4599 96.81C34.6599 97.56 34.9999 98.26 35.4599 98.88C36.4399 100.13 37.8799 100.92 39.4599 101.08C40.2499 101.15 41.0499 101.08 41.82 100.87C42.57 100.63 43.37 100.24 44.16 99.93C50.5 97.3 57.3 95.94 64.16 95.93C57.34 96.18 50.6299 97.77 44.4199 100.61C43.6399 100.95 42.91 101.34 42.04 101.61C41.17 101.89 40.2499 102.01 39.34 101.96C37.47 101.83 35.74 100.95 34.54 99.52C33.94 98.8 33.49 97.97 33.22 97.07C32.98 96.18 32.8799 95.27 32.9199 94.35C32.9299 92.6 33.0999 90.86 33.4099 89.14C34.0699 85.69 35.2799 82.37 36.9999 79.31C38.7099 76.16 41.1 73.42 44 71.31C46.95 69.28 50.25 67.82 53.7299 67C57.16 66.17 60.67 65.73 64.19 65.7V68.7Z" fill="#EB8F00" style="fill:#EB8F00;fill:color(display-p3 0.9216 0.5608 0.0000);fill-opacity:1;"/>
<path d="M64.19 68.7C60.88 68.61 57.57 68.9 54.33 69.55C51.13 70.19 48.08 71.43 45.33 73.19C42.61 75.02 40.3299 77.43 38.6599 80.25C36.9299 83.09 35.6699 86.2 34.9399 89.45C34.5799 91.09 34.36 92.77 34.29 94.45C34.22 95.24 34.2799 96.04 34.4599 96.81C34.6599 97.56 34.9999 98.26 35.4599 98.88C36.4399 100.13 37.8799 100.92 39.4599 101.08C40.2499 101.15 41.0499 101.08 41.82 100.87C42.57 100.63 43.37 100.24 44.16 99.93C50.5 97.3 57.3 95.94 64.16 95.93C57.34 96.18 50.6299 97.77 44.4199 100.61C43.6399 100.95 42.91 101.34 42.04 101.61C41.17 101.89 40.2499 102.01 39.34 101.96C37.47 101.83 35.74 100.95 34.54 99.52C33.94 98.8 33.49 97.97 33.22 97.07C32.98 96.18 32.8799 95.27 32.9199 94.35C32.9299 92.6 33.0999 90.86 33.4099 89.14C34.0699 85.69 35.2799 82.37 36.9999 79.31C38.7099 76.16 41.1 73.42 44 71.31C46.95 69.28 50.25 67.82 53.7299 67C57.16 66.17 60.67 65.73 64.19 65.7V68.7Z" fill="#F3B872" style="fill:#F3B872;fill:color(display-p3 0.9542 0.7229 0.4453);fill-opacity:1;"/>
<path d="M64.19 68.7C60.88 68.61 57.57 68.9 54.33 69.55C51.13 70.19 48.08 71.43 45.33 73.19C42.61 75.02 40.3299 77.43 38.6599 80.25C36.9299 83.09 35.6699 86.2 34.9399 89.45C34.5799 91.09 34.36 92.77 34.29 94.45C34.22 95.24 34.2799 96.04 34.4599 96.81C34.6599 97.56 34.9999 98.26 35.4599 98.88C36.4399 100.13 37.8799 100.92 39.4599 101.08C40.2499 101.15 41.0499 101.08 41.82 100.87C42.57 100.63 43.37 100.24 44.16 99.93C50.5 97.3 57.3 95.94 64.16 95.93C57.34 96.18 50.6299 97.77 44.4199 100.61C43.6399 100.95 42.91 101.34 42.04 101.61C41.17 101.89 40.2499 102.01 39.34 101.96C37.47 101.83 35.74 100.95 34.54 99.52C33.94 98.8 33.49 97.97 33.22 97.07C32.98 96.18 32.8799 95.27 32.9199 94.35C32.9299 92.6 33.0999 90.86 33.4099 89.14C34.0699 85.69 35.2799 82.37 36.9999 79.31C38.7099 76.16 41.1 73.42 44 71.31C46.95 69.28 50.25 67.82 53.7299 67C57.16 66.17 60.67 65.73 64.19 65.7V68.7Z" fill="#91674D" style="fill:#91674D;fill:color(display-p3 0.5686 0.4039 0.3020);fill-opacity:1;"/>
<defs>
<radialGradient id="paint0_radial_169_12733" cx="0" cy="0" r="1" gradientUnits="userSpaceOnUse" gradientTransform="translate(63.6001 62.9) scale(56.9597 56.9597)">
<stop offset="0.5" stop-color="#FDE030" style="stop-color:#FDE030;stop-color:color(display-p3 0.9922 0.8784 0.1882);stop-opacity:1;"/>
<stop offset="0.92" stop-color="#F7C02B" style="stop-color:#F7C02B;stop-color:color(display-p3 0.9686 0.7529 0.1686);stop-opacity:1;"/>
<stop offset="1" stop-color="#F4A223" style="stop-color:#F4A223;stop-color:color(display-p3 0.9569 0.6353 0.1373);stop-opacity:1;"/>
</radialGradient>
<radialGradient id="paint1_radial_169_12733" cx="0" cy="0" r="1" gradientUnits="userSpaceOnUse" gradientTransform="translate(38.5991 34.5377) rotate(-43.2082) scale(102.024 101.825)">
<stop offset="0.3533" stop-color="#F9DDBD" style="stop-color:#F9DDBD;stop-color:color(display-p3 0.9765 0.8667 0.7412);stop-opacity:1;"/>
<stop offset="0.8723" stop-color="#FFD29C" style="stop-color:#FFD29C;stop-color:color(display-p3 1.0000 0.8235 0.6118);stop-opacity:1;"/>
</radialGradient>
<radialGradient id="paint2_radial_169_12733" cx="0" cy="0" r="1" gradientUnits="userSpaceOnUse" gradientTransform="translate(38.5991 34.5377) rotate(-43.2082) scale(102.024 101.825)">
<stop offset="0.3533" stop-color="#70534A" style="stop-color:#70534A;stop-color:color(display-p3 0.4392 0.3255 0.2902);stop-opacity:1;"/>
<stop offset="0.8723" stop-color="#5C4037" style="stop-color:#5C4037;stop-color:color(display-p3 0.3608 0.2510 0.2157);stop-opacity:1;"/>
</radialGradient>
<radialGradient id="paint3_radial_169_12733" cx="0" cy="0" r="1" gradientUnits="userSpaceOnUse" gradientTransform="translate(38.5991 34.5377) rotate(-43.2082) scale(102.024 101.825)">
<stop offset="0.3533" stop-color="#A37A58" style="stop-color:#A37A58;stop-color:color(display-p3 0.6375 0.4772 0.3453);stop-opacity:1;"/>
<stop offset="0.8723" stop-color="#8D5738" style="stop-color:#8D5738;stop-color:color(display-p3 0.5529 0.3412 0.2196);stop-opacity:1;"/>
</radialGradient>
<radialGradient id="paint4_radial_169_12733" cx="0" cy="0" r="1" gradientUnits="userSpaceOnUse" gradientTransform="translate(38.5991 34.5377) rotate(-43.2082) scale(102.024 101.825)">
<stop offset="0.3533" stop-color="#AD8264" style="stop-color:#AD8264;stop-color:color(display-p3 0.6784 0.5098 0.3922);stop-opacity:1;"/>
<stop offset="0.8723" stop-color="#A47B62" style="stop-color:#A47B62;stop-color:color(display-p3 0.6431 0.4824 0.3843);stop-opacity:1;"/>
</radialGradient>
</defs>
</svg>
