<svg width="128" height="128" viewBox="0 0 128 128" fill="none" xmlns="http://www.w3.org/2000/svg">
<path d="M63.6001 118.8C35.7001 118.8 5.6001 101.3 5.6001 62.9C5.6001 24.5 35.7001 7 63.6001 7C79.1001 7 93.4001 12.1 104 21.4C115.5 31.6 121.6 46 121.6 62.9C121.6 79.8 115.5 94.1 104 104.3C93.4001 113.6 79.0001 118.8 63.6001 118.8Z" fill="url(#paint0_radial_169_12524)" style=""/>
<path d="M63.6001 118.8C35.7001 118.8 5.6001 101.3 5.6001 62.9C5.6001 24.5 35.7001 7 63.6001 7C79.1001 7 93.4001 12.1 104 21.4C115.5 31.6 121.6 46 121.6 62.9C121.6 79.8 115.5 94.1 104 104.3C93.4001 113.6 79.0001 118.8 63.6001 118.8Z" fill="url(#paint1_radial_169_12524)" style=""/>
<path d="M63.6001 118.8C35.7001 118.8 5.6001 101.3 5.6001 62.9C5.6001 24.5 35.7001 7 63.6001 7C79.1001 7 93.4001 12.1 104 21.4C115.5 31.6 121.6 46 121.6 62.9C121.6 79.8 115.5 94.1 104 104.3C93.4001 113.6 79.0001 118.8 63.6001 118.8Z" fill="url(#paint2_radial_169_12524)" style=""/>
<path d="M63.6001 118.8C35.7001 118.8 5.6001 101.3 5.6001 62.9C5.6001 24.5 35.7001 7 63.6001 7C79.1001 7 93.4001 12.1 104 21.4C115.5 31.6 121.6 46 121.6 62.9C121.6 79.8 115.5 94.1 104 104.3C93.4001 113.6 79.0001 118.8 63.6001 118.8Z" fill="url(#paint3_radial_169_12524)" style=""/>
<path d="M63.6001 118.8C35.7001 118.8 5.6001 101.3 5.6001 62.9C5.6001 24.5 35.7001 7 63.6001 7C79.1001 7 93.4001 12.1 104 21.4C115.5 31.6 121.6 46 121.6 62.9C121.6 79.8 115.5 94.1 104 104.3C93.4001 113.6 79.0001 118.8 63.6001 118.8Z" fill="url(#paint4_radial_169_12524)" style=""/>
<path d="M25.1502 70.57C26.8402 74.34 29.0702 77.86 31.7602 81C34.4202 84.1 37.5102 86.79 40.9402 89C44.3502 91.22 48.0502 92.95 51.9402 94.13C59.7802 96.42 68.1002 96.42 75.9402 94.13C79.8302 92.95 83.5302 91.22 86.9402 89C90.4102 86.8 93.5502 84.1 96.2402 81C98.9302 77.87 101.15 74.38 102.85 70.62C103.45 69.53 104.81 69.13 105.9 69.73C106.8 70.23 107.26 71.27 107 72.27C105.39 76.59 103.12 80.64 100.28 84.27C91.5202 95.39 78.1502 101.88 64.0002 101.88C49.8402 101.87 36.4702 95.38 27.7202 84.25C24.8802 80.62 22.6102 76.57 21.0002 72.25C20.5302 71.11 21.0702 69.79 22.2102 69.32C23.3502 68.85 24.6702 69.39 25.1402 70.53L25.1502 70.57Z" fill="#1A1717" style="fill:#1A1717;fill:color(display-p3 0.1020 0.0902 0.0902);fill-opacity:1;"/>
<path d="M25.1502 70.57C26.8402 74.34 29.0702 77.86 31.7602 81C34.4202 84.1 37.5102 86.79 40.9402 89C44.3502 91.22 48.0502 92.95 51.9402 94.13C59.7802 96.42 68.1002 96.42 75.9402 94.13C79.8302 92.95 83.5302 91.22 86.9402 89C90.4102 86.8 93.5502 84.1 96.2402 81C98.9302 77.87 101.15 74.38 102.85 70.62C103.45 69.53 104.81 69.13 105.9 69.73C106.8 70.23 107.26 71.27 107 72.27C105.39 76.59 103.12 80.64 100.28 84.27C91.5202 95.39 78.1502 101.88 64.0002 101.88C49.8402 101.87 36.4702 95.38 27.7202 84.25C24.8802 80.62 22.6102 76.57 21.0002 72.25C20.5302 71.11 21.0702 69.79 22.2102 69.32C23.3502 68.85 24.6702 69.39 25.1402 70.53L25.1502 70.57Z" fill="#5D4037" style="fill:#5D4037;fill:color(display-p3 0.3647 0.2510 0.2157);fill-opacity:1;"/>
<path d="M111.49 29.67C116.82 38.27 119.6 48.51 119.6 59.9C119.6 76.8 113.5 91.1 102 101.3C91.4002 110.6 77.0002 115.8 61.6002 115.8C43.5402 115.8 24.6002 108.45 13.4202 92.86C24.1802 110.52 44.4202 118.8 63.6002 118.8C79.0002 118.8 93.4002 113.6 104 104.3C115.5 94.1 121.6 79.8 121.6 62.9C121.6 50.16 118.13 38.84 111.49 29.67Z" fill="#EB8F00" style="fill:#EB8F00;fill:color(display-p3 0.9216 0.5608 0.0000);fill-opacity:1;"/>
<path d="M111.49 29.67C116.82 38.27 119.6 48.51 119.6 59.9C119.6 76.8 113.5 91.1 102 101.3C91.4002 110.6 77.0002 115.8 61.6002 115.8C43.5402 115.8 24.6002 108.45 13.4202 92.86C24.1802 110.52 44.4202 118.8 63.6002 118.8C79.0002 118.8 93.4002 113.6 104 104.3C115.5 94.1 121.6 79.8 121.6 62.9C121.6 50.16 118.13 38.84 111.49 29.67Z" fill="#F3B872" style="fill:#F3B872;fill:color(display-p3 0.9542 0.7229 0.4453);fill-opacity:1;"/>
<path d="M111.49 29.67C116.82 38.27 119.6 48.51 119.6 59.9C119.6 76.8 113.5 91.1 102 101.3C91.4002 110.6 77.0002 115.8 61.6002 115.8C43.5402 115.8 24.6002 108.45 13.4202 92.86C24.1802 110.52 44.4202 118.8 63.6002 118.8C79.0002 118.8 93.4002 113.6 104 104.3C115.5 94.1 121.6 79.8 121.6 62.9C121.6 50.16 118.13 38.84 111.49 29.67Z" fill="#91674D" style="fill:#91674D;fill:color(display-p3 0.5686 0.4039 0.3020);fill-opacity:1;"/>
<path d="M50.1501 56.1L50.0001 55.88L49.7901 55.61C49.7101 55.5 49.6301 55.41 49.5301 55.32L48.9101 54.7C48.6601 54.45 48.3601 54.18 48.0501 53.91C47.3901 53.34 46.6501 52.88 45.8501 52.52C45.0701 52.17 44.2201 52 43.3701 52H43.0001C42.9001 51.98 42.8101 51.98 42.7101 52C42.5301 52.02 42.3501 52.05 42.1701 52.09C41.7501 52.19 41.3501 52.32 40.9501 52.48C40.1501 52.84 39.4101 53.3 38.7501 53.87C38.2101 54.33 37.7101 54.82 37.2401 55.34L36.6701 55.98L36.3701 56.32C35.1801 57.72 33.0801 57.9 31.6801 56.71C30.6101 55.8 30.2201 54.32 30.7101 53L30.8201 52.68C30.9201 52.37 31.0401 52.07 31.1701 51.77C31.6501 50.68 32.2601 49.66 33.0001 48.73C34.7501 46.42 37.2101 44.74 40.0001 43.94C40.5701 43.79 41.1501 43.68 41.7401 43.6C42.0401 43.6 42.4801 43.51 42.6101 43.51H43.3701C44.5101 43.53 45.6401 43.69 46.7401 43.98C47.7901 44.27 48.8001 44.69 49.7401 45.23C51.2901 46.13 52.6501 47.34 53.7401 48.77C54.1601 49.31 54.5401 49.87 54.8701 50.47C55.1401 50.94 55.3801 51.42 55.5901 51.91C55.6701 52.07 55.7401 52.24 55.7901 52.41C55.7901 52.54 55.8701 52.65 55.9001 52.74L56.0001 53C56.5701 54.77 55.6001 56.67 53.8301 57.24C52.4901 57.66 51.0201 57.2 50.1501 56.1Z" fill="#49362E" style="fill:#49362E;fill:color(display-p3 0.2863 0.2118 0.1804);fill-opacity:1;"/>
<path d="M50.1501 56.1L50.0001 55.88L49.7901 55.61C49.7101 55.5 49.6301 55.41 49.5301 55.32L48.9101 54.7C48.6601 54.45 48.3601 54.18 48.0501 53.91C47.3901 53.34 46.6501 52.88 45.8501 52.52C45.0701 52.17 44.2201 52 43.3701 52H43.0001C42.9001 51.98 42.8101 51.98 42.7101 52C42.5301 52.02 42.3501 52.05 42.1701 52.09C41.7501 52.19 41.3501 52.32 40.9501 52.48C40.1501 52.84 39.4101 53.3 38.7501 53.87C38.2101 54.33 37.7101 54.82 37.2401 55.34L36.6701 55.98L36.3701 56.32C35.1801 57.72 33.0801 57.9 31.6801 56.71C30.6101 55.8 30.2201 54.32 30.7101 53L30.8201 52.68C30.9201 52.37 31.0401 52.07 31.1701 51.77C31.6501 50.68 32.2601 49.66 33.0001 48.73C34.7501 46.42 37.2101 44.74 40.0001 43.94C40.5701 43.79 41.1501 43.68 41.7401 43.6C42.0401 43.6 42.4801 43.51 42.6101 43.51H43.3701C44.5101 43.53 45.6401 43.69 46.7401 43.98C47.7901 44.27 48.8001 44.69 49.7401 45.23C51.2901 46.13 52.6501 47.34 53.7401 48.77C54.1601 49.31 54.5401 49.87 54.8701 50.47C55.1401 50.94 55.3801 51.42 55.5901 51.91C55.6701 52.07 55.7401 52.24 55.7901 52.41C55.7901 52.54 55.8701 52.65 55.9001 52.74L56.0001 53C56.5701 54.77 55.6001 56.67 53.8301 57.24C52.4901 57.66 51.0201 57.2 50.1501 56.1Z" fill="#1A1717" style="fill:#1A1717;fill:color(display-p3 0.1020 0.0902 0.0902);fill-opacity:1;"/>
<path d="M50.1501 56.1L50.0001 55.88L49.7901 55.61C49.7101 55.5 49.6301 55.41 49.5301 55.32L48.9101 54.7C48.6601 54.45 48.3601 54.18 48.0501 53.91C47.3901 53.34 46.6501 52.88 45.8501 52.52C45.0701 52.17 44.2201 52 43.3701 52H43.0001C42.9001 51.98 42.8101 51.98 42.7101 52C42.5301 52.02 42.3501 52.05 42.1701 52.09C41.7501 52.19 41.3501 52.32 40.9501 52.48C40.1501 52.84 39.4101 53.3 38.7501 53.87C38.2101 54.33 37.7101 54.82 37.2401 55.34L36.6701 55.98L36.3701 56.32C35.1801 57.72 33.0801 57.9 31.6801 56.71C30.6101 55.8 30.2201 54.32 30.7101 53L30.8201 52.68C30.9201 52.37 31.0401 52.07 31.1701 51.77C31.6501 50.68 32.2601 49.66 33.0001 48.73C34.7501 46.42 37.2101 44.74 40.0001 43.94C40.5701 43.79 41.1501 43.68 41.7401 43.6C42.0401 43.6 42.4801 43.51 42.6101 43.51H43.3701C44.5101 43.53 45.6401 43.69 46.7401 43.98C47.7901 44.27 48.8001 44.69 49.7401 45.23C51.2901 46.13 52.6501 47.34 53.7401 48.77C54.1601 49.31 54.5401 49.87 54.8701 50.47C55.1401 50.94 55.3801 51.42 55.5901 51.91C55.6701 52.07 55.7401 52.24 55.7901 52.41C55.7901 52.54 55.8701 52.65 55.9001 52.74L56.0001 53C56.5701 54.77 55.6001 56.67 53.8301 57.24C52.4901 57.66 51.0201 57.2 50.1501 56.1Z" fill="#49362E" style="fill:#49362E;fill:color(display-p3 0.2863 0.2118 0.1804);fill-opacity:1;"/>
<path d="M93.4801 56.1L93.3001 55.88L93.0901 55.61C93.0101 55.5 92.9301 55.41 92.8301 55.32L92.2101 54.7C91.9601 54.45 91.6601 54.18 91.3501 53.91C90.6901 53.34 89.9501 52.88 89.1501 52.52C88.3801 52.18 87.5401 52 86.7001 52H86.2901C86.1901 51.98 86.1001 51.98 86.0001 52C85.8201 52.02 85.6401 52.05 85.4601 52.09C85.0401 52.19 84.6401 52.32 84.2401 52.48C83.4301 52.85 82.6701 53.33 82.0001 53.91C81.4601 54.37 80.9601 54.86 80.4801 55.38L80.0001 56L79.7001 56.34C78.5801 57.8 76.4901 58.07 75.0301 56.94C73.8301 56.02 73.4001 54.4 74.0001 53L74.1101 52.68C74.2101 52.37 74.3301 52.07 74.4601 51.77C74.9301 50.67 75.5501 49.64 76.2801 48.69C78.0301 46.38 80.4901 44.7 83.2801 43.9C83.8501 43.75 84.4301 43.64 85.0201 43.56C85.3201 43.56 85.7501 43.47 85.8901 43.47H86.6501C87.7901 43.49 88.9201 43.65 90.0201 43.94C91.0701 44.23 92.0801 44.65 93.0201 45.19C94.5701 46.09 95.9301 47.3 97.0201 48.73C97.4401 49.27 97.8201 49.83 98.1501 50.43C98.4201 50.9 98.6601 51.38 98.8701 51.87C98.9501 52.03 99.0201 52.2 99.0701 52.37L99.1801 52.7L99.2701 52.97C99.8401 54.74 98.8701 56.63 97.1001 57.2C95.7701 57.63 94.3201 57.19 93.4501 56.1H93.4801Z" fill="#49362E" style="fill:#49362E;fill:color(display-p3 0.2863 0.2118 0.1804);fill-opacity:1;"/>
<path d="M93.4801 56.1L93.3001 55.88L93.0901 55.61C93.0101 55.5 92.9301 55.41 92.8301 55.32L92.2101 54.7C91.9601 54.45 91.6601 54.18 91.3501 53.91C90.6901 53.34 89.9501 52.88 89.1501 52.52C88.3801 52.18 87.5401 52 86.7001 52H86.2901C86.1901 51.98 86.1001 51.98 86.0001 52C85.8201 52.02 85.6401 52.05 85.4601 52.09C85.0401 52.19 84.6401 52.32 84.2401 52.48C83.4301 52.85 82.6701 53.33 82.0001 53.91C81.4601 54.37 80.9601 54.86 80.4801 55.38L80.0001 56L79.7001 56.34C78.5801 57.8 76.4901 58.07 75.0301 56.94C73.8301 56.02 73.4001 54.4 74.0001 53L74.1101 52.68C74.2101 52.37 74.3301 52.07 74.4601 51.77C74.9301 50.67 75.5501 49.64 76.2801 48.69C78.0301 46.38 80.4901 44.7 83.2801 43.9C83.8501 43.75 84.4301 43.64 85.0201 43.56C85.3201 43.56 85.7501 43.47 85.8901 43.47H86.6501C87.7901 43.49 88.9201 43.65 90.0201 43.94C91.0701 44.23 92.0801 44.65 93.0201 45.19C94.5701 46.09 95.9301 47.3 97.0201 48.73C97.4401 49.27 97.8201 49.83 98.1501 50.43C98.4201 50.9 98.6601 51.38 98.8701 51.87C98.9501 52.03 99.0201 52.2 99.0701 52.37L99.1801 52.7L99.2701 52.97C99.8401 54.74 98.8701 56.63 97.1001 57.2C95.7701 57.63 94.3201 57.19 93.4501 56.1H93.4801Z" fill="#1A1717" style="fill:#1A1717;fill:color(display-p3 0.1020 0.0902 0.0902);fill-opacity:1;"/>
<path d="M93.4801 56.1L93.3001 55.88L93.0901 55.61C93.0101 55.5 92.9301 55.41 92.8301 55.32L92.2101 54.7C91.9601 54.45 91.6601 54.18 91.3501 53.91C90.6901 53.34 89.9501 52.88 89.1501 52.52C88.3801 52.18 87.5401 52 86.7001 52H86.2901C86.1901 51.98 86.1001 51.98 86.0001 52C85.8201 52.02 85.6401 52.05 85.4601 52.09C85.0401 52.19 84.6401 52.32 84.2401 52.48C83.4301 52.85 82.6701 53.33 82.0001 53.91C81.4601 54.37 80.9601 54.86 80.4801 55.38L80.0001 56L79.7001 56.34C78.5801 57.8 76.4901 58.07 75.0301 56.94C73.8301 56.02 73.4001 54.4 74.0001 53L74.1101 52.68C74.2101 52.37 74.3301 52.07 74.4601 51.77C74.9301 50.67 75.5501 49.64 76.2801 48.69C78.0301 46.38 80.4901 44.7 83.2801 43.9C83.8501 43.75 84.4301 43.64 85.0201 43.56C85.3201 43.56 85.7501 43.47 85.8901 43.47H86.6501C87.7901 43.49 88.9201 43.65 90.0201 43.94C91.0701 44.23 92.0801 44.65 93.0201 45.19C94.5701 46.09 95.9301 47.3 97.0201 48.73C97.4401 49.27 97.8201 49.83 98.1501 50.43C98.4201 50.9 98.6601 51.38 98.8701 51.87C98.9501 52.03 99.0201 52.2 99.0701 52.37L99.1801 52.7L99.2701 52.97C99.8401 54.74 98.8701 56.63 97.1001 57.2C95.7701 57.63 94.3201 57.19 93.4501 56.1H93.4801Z" fill="#49362E" style="fill:#49362E;fill:color(display-p3 0.2863 0.2118 0.1804);fill-opacity:1;"/>
<path d="M81.5303 92.07C82.4103 91.66 83.2803 91.22 84.1303 90.76C83.2803 91.22 82.4103 91.66 81.5303 92.07Z" fill="#FF4081" style="fill:#FF4081;fill:color(display-p3 1.0000 0.2510 0.5059);fill-opacity:1;"/>
<path d="M86.6701 89.27C85.8401 89.79 85.0001 90.27 84.1401 90.75C85.1401 90.21 86.1401 89.64 87.0601 89.03L86.6701 89.27Z" fill="#FF4081" style="fill:#FF4081;fill:color(display-p3 1.0000 0.2510 0.5059);fill-opacity:1;"/>
<path d="M74.0002 94.68C74.6702 94.52 75.3402 94.35 76.0002 94.15C75.3602 94.36 74.6902 94.51 74.0002 94.68Z" fill="#FF4081" style="fill:#FF4081;fill:color(display-p3 1.0000 0.2510 0.5059);fill-opacity:1;"/>
<path d="M94.1602 83.21C94.8702 82.48 95.5702 81.73 96.2402 80.95C95.5702 81.73 94.8702 82.48 94.1602 83.21Z" fill="#FF4081" style="fill:#FF4081;fill:color(display-p3 1.0000 0.2510 0.5059);fill-opacity:1;"/>
<path d="M78.8301 93.21C79.7201 92.87 80.6001 92.5 81.4701 92.1C80.6001 92.5 79.7201 92.87 78.8301 93.21Z" fill="#FF4081" style="fill:#FF4081;fill:color(display-p3 1.0000 0.2510 0.5059);fill-opacity:1;"/>
<path d="M76.0002 94.16C76.9302 93.89 77.8302 93.58 78.7302 93.24C77.8502 93.58 77.0002 93.89 76.0002 94.16Z" fill="#FF4081" style="fill:#FF4081;fill:color(display-p3 1.0000 0.2510 0.5059);fill-opacity:1;"/>
<path d="M92.2103 85.1C91.6003 85.64 90.9703 86.16 90.3203 86.65C90.0003 86.91 89.6703 87.15 89.3203 87.4C88.5703 87.97 87.8103 88.52 87.0303 89.03C88.0303 88.4 88.9303 87.72 89.8503 87.03C90.7703 86.34 91.4603 85.77 92.2103 85.1Z" fill="#FF4081" style="fill:#FF4081;fill:color(display-p3 1.0000 0.2510 0.5059);fill-opacity:1;"/>
<path opacity="0.3" d="M94.1602 83.21C94.0902 83.28 94.0302 83.35 93.9602 83.41C93.4002 84 92.8102 84.56 92.2102 85.1C92.8402 84.54 93.4502 83.96 94.0302 83.35L94.1602 83.21Z" fill="#AB3F2E" style="fill:#AB3F2E;fill:color(display-p3 0.6706 0.2471 0.1804);fill-opacity:1;"/>
<path d="M68.3501 95.64L72.0601 99.58L72.4201 99.95L68.3501 95.64Z" fill="#FF4081" style="fill:#FF4081;fill:color(display-p3 1.0000 0.2510 0.5059);fill-opacity:1;"/>
<path opacity="0.3" d="M72.4202 99.95L73.3102 100.91L73.3202 100.9V100.89L72.4202 99.95Z" fill="#AB3F2E" style="fill:#AB3F2E;fill:color(display-p3 0.6706 0.2471 0.1804);fill-opacity:1;"/>
<path d="M109.62 89.11L102.62 81.79L102.34 81.5L99.6601 78.7L98.8701 77.87L98.7701 77.77C97.9801 78.89 97.1401 79.97 96.2401 81C93.5801 84.1 90.4901 86.79 87.0601 89C83.6501 91.22 79.9501 92.95 76.0601 94.13C73.5601 94.87 70.9901 95.36 68.3901 95.61L72.4201 100L73.3201 100.94L74.0401 101.69L74.4501 102.12L84.7901 112.92C90.7801 119.18 100.71 119.4 106.97 113.41L109.13 111.34C115.4 105.35 115.64 95.42 109.65 89.14C109.64 89.13 109.63 89.12 109.62 89.11Z" fill="#FF4081" style="fill:#FF4081;fill:color(display-p3 1.0000 0.2510 0.5059);fill-opacity:1;"/>
<path d="M95.6703 96.63L87.8603 88.46C87.5903 88.65 87.3303 88.85 87.0603 89.03C86.2303 89.56 85.3903 90.03 84.5403 90.54L92.9003 99.28C93.2503 99.65 93.7303 99.86 94.2403 99.87C94.7503 99.89 95.2403 99.7 95.6103 99.34C96.3703 98.62 96.4103 97.42 95.6903 96.65C95.6903 96.65 95.6803 96.64 95.6703 96.63Z" fill="#E62B6B" style="fill:#E62B6B;fill:color(display-p3 0.9020 0.1686 0.4196);fill-opacity:1;"/>
<path opacity="0.3" d="M99.6101 78.66L98.8201 77.83L98.7201 77.73C97.9501 78.86 97.1201 79.95 96.2401 81C93.5801 84.1 90.4901 86.79 87.0601 89C83.6501 91.22 79.9501 92.95 76.0601 94.13C73.5601 94.87 70.9901 95.36 68.3901 95.61L72.4201 100L73.3201 100.94C91.9301 94.19 98.3801 81.71 99.6101 78.66Z" fill="#AB3F2E" style="fill:#AB3F2E;fill:color(display-p3 0.6706 0.2471 0.1804);fill-opacity:1;"/>
<defs>
<radialGradient id="paint0_radial_169_12524" cx="0" cy="0" r="1" gradientUnits="userSpaceOnUse" gradientTransform="translate(63.6001 62.9) scale(56.9597 56.9597)">
<stop offset="0.5" stop-color="#FDE030" style="stop-color:#FDE030;stop-color:color(display-p3 0.9922 0.8784 0.1882);stop-opacity:1;"/>
<stop offset="0.92" stop-color="#F7C02B" style="stop-color:#F7C02B;stop-color:color(display-p3 0.9686 0.7529 0.1686);stop-opacity:1;"/>
<stop offset="1" stop-color="#F4A223" style="stop-color:#F4A223;stop-color:color(display-p3 0.9569 0.6353 0.1373);stop-opacity:1;"/>
</radialGradient>
<radialGradient id="paint1_radial_169_12524" cx="0" cy="0" r="1" gradientUnits="userSpaceOnUse" gradientTransform="translate(38.5991 34.5377) rotate(-43.2082) scale(102.024 101.825)">
<stop offset="0.3533" stop-color="#F9DDBD" style="stop-color:#F9DDBD;stop-color:color(display-p3 0.9765 0.8667 0.7412);stop-opacity:1;"/>
<stop offset="0.8723" stop-color="#FFD29C" style="stop-color:#FFD29C;stop-color:color(display-p3 1.0000 0.8235 0.6118);stop-opacity:1;"/>
</radialGradient>
<radialGradient id="paint2_radial_169_12524" cx="0" cy="0" r="1" gradientUnits="userSpaceOnUse" gradientTransform="translate(38.5991 34.5377) rotate(-43.2082) scale(102.024 101.825)">
<stop offset="0.3533" stop-color="#70534A" style="stop-color:#70534A;stop-color:color(display-p3 0.4392 0.3255 0.2902);stop-opacity:1;"/>
<stop offset="0.8723" stop-color="#5C4037" style="stop-color:#5C4037;stop-color:color(display-p3 0.3608 0.2510 0.2157);stop-opacity:1;"/>
</radialGradient>
<radialGradient id="paint3_radial_169_12524" cx="0" cy="0" r="1" gradientUnits="userSpaceOnUse" gradientTransform="translate(38.5991 34.5377) rotate(-43.2082) scale(102.024 101.825)">
<stop offset="0.3533" stop-color="#A37A58" style="stop-color:#A37A58;stop-color:color(display-p3 0.6375 0.4772 0.3453);stop-opacity:1;"/>
<stop offset="0.8723" stop-color="#8D5738" style="stop-color:#8D5738;stop-color:color(display-p3 0.5529 0.3412 0.2196);stop-opacity:1;"/>
</radialGradient>
<radialGradient id="paint4_radial_169_12524" cx="0" cy="0" r="1" gradientUnits="userSpaceOnUse" gradientTransform="translate(38.5991 34.5377) rotate(-43.2082) scale(102.024 101.825)">
<stop offset="0.3533" stop-color="#AD8264" style="stop-color:#AD8264;stop-color:color(display-p3 0.6784 0.5098 0.3922);stop-opacity:1;"/>
<stop offset="0.8723" stop-color="#A47B62" style="stop-color:#A47B62;stop-color:color(display-p3 0.6431 0.4824 0.3843);stop-opacity:1;"/>
</radialGradient>
</defs>
</svg>
