<svg width="129" height="128" viewBox="0 0 129 128" fill="none" xmlns="http://www.w3.org/2000/svg">
<path d="M17.5 19H37.5103L64.3081 84.2148H65.3658L92.1636 19H112.174V109H96.4831V47.1689H95.6456L70.699 108.736H58.9749L34.0285 47.0371H33.1908V109H17.5V19Z" fill="#DFE6EB" style="fill:#DFE6EB;fill:color(display-p3 0.8745 0.9020 0.9216);fill-opacity:1;"/>
<path d="M17.5 19H37.5103L64.3081 84.2148H65.3658L92.1636 19H112.174V109H96.4831V47.1689H95.6456L70.699 108.736H58.9749L34.0285 47.0371H33.1908V109H17.5V19Z" fill="#8CAFBF" style="fill:#8CAFBF;fill:color(display-p3 0.5490 0.6863 0.7490);fill-opacity:1;"/>
<path fill-rule="evenodd" clip-rule="evenodd" d="M14.5 16H39.5209L64.837 77.6088L90.153 16H115.174V112H93.4831V60.4945L72.7204 111.736H56.9519L36.1908 60.3886V112H14.5V16ZM33.1908 47.0371H34.0285L58.9749 108.736H70.699L95.6456 47.1689H96.4831V109H112.174V19H92.1636L65.3658 84.2148H64.3081L37.5103 19H17.5V109H33.1908V47.0371Z" fill="#427687" style="fill:#427687;fill:color(display-p3 0.2588 0.4627 0.5294);fill-opacity:1;"/>
</svg>
