<svg width="128" height="128" viewBox="0 0 128 128" fill="none" xmlns="http://www.w3.org/2000/svg">
<path d="M63.6001 118.8C35.7001 118.8 5.6001 101.3 5.6001 62.9C5.6001 24.5 35.7001 7 63.6001 7C79.1001 7 93.4001 12.1 104 21.4C115.5 31.6 121.6 46 121.6 62.9C121.6 79.8 115.5 94.1 104 104.3C93.4001 113.6 79.0001 118.8 63.6001 118.8Z" fill="url(#paint0_radial_169_12089)" style=""/>
<path d="M63.6001 118.8C35.7001 118.8 5.6001 101.3 5.6001 62.9C5.6001 24.5 35.7001 7 63.6001 7C79.1001 7 93.4001 12.1 104 21.4C115.5 31.6 121.6 46 121.6 62.9C121.6 79.8 115.5 94.1 104 104.3C93.4001 113.6 79.0001 118.8 63.6001 118.8Z" fill="url(#paint1_radial_169_12089)" style=""/>
<path d="M63.6001 118.8C35.7001 118.8 5.6001 101.3 5.6001 62.9C5.6001 24.5 35.7001 7 63.6001 7C79.1001 7 93.4001 12.1 104 21.4C115.5 31.6 121.6 46 121.6 62.9C121.6 79.8 115.5 94.1 104 104.3C93.4001 113.6 79.0001 118.8 63.6001 118.8Z" fill="url(#paint2_radial_169_12089)" style=""/>
<path d="M63.6001 118.8C35.7001 118.8 5.6001 101.3 5.6001 62.9C5.6001 24.5 35.7001 7 63.6001 7C79.1001 7 93.4001 12.1 104 21.4C115.5 31.6 121.6 46 121.6 62.9C121.6 79.8 115.5 94.1 104 104.3C93.4001 113.6 79.0001 118.8 63.6001 118.8Z" fill="url(#paint3_radial_169_12089)" style=""/>
<path d="M63.6001 118.8C35.7001 118.8 5.6001 101.3 5.6001 62.9C5.6001 24.5 35.7001 7 63.6001 7C79.1001 7 93.4001 12.1 104 21.4C115.5 31.6 121.6 46 121.6 62.9C121.6 79.8 115.5 94.1 104 104.3C93.4001 113.6 79.0001 118.8 63.6001 118.8Z" fill="url(#paint4_radial_169_12089)" style=""/>
<path d="M111.49 29.67C116.82 38.27 119.6 48.51 119.6 59.9C119.6 76.8 113.5 91.1 102 101.3C91.3999 110.6 76.9999 115.8 61.5999 115.8C43.5399 115.8 24.5599 108.45 13.4199 92.86C24.1799 110.52 44.4099 118.8 63.5999 118.8C78.9999 118.8 93.3999 113.6 104 104.3C115.5 94.1 121.6 79.8 121.6 62.9C121.6 50.16 118.13 38.84 111.49 29.67Z" fill="#F3B872" style="fill:#F3B872;fill:color(display-p3 0.9542 0.7229 0.4453);fill-opacity:1;"/>
<path d="M111.49 29.67C116.82 38.27 119.6 48.51 119.6 59.9C119.6 76.8 113.5 91.1 102 101.3C91.3999 110.6 76.9999 115.8 61.5999 115.8C43.5399 115.8 24.5599 108.45 13.4199 92.86C24.1799 110.52 44.4099 118.8 63.5999 118.8C78.9999 118.8 93.3999 113.6 104 104.3C115.5 94.1 121.6 79.8 121.6 62.9C121.6 50.16 118.13 38.84 111.49 29.67Z" fill="#91674D" style="fill:#91674D;fill:color(display-p3 0.5686 0.4039 0.3020);fill-opacity:1;"/>
<path d="M86.11 100.49C85.79 100.43 85.49 100.28 85.24 100.06C80.98 96.38 75.65 93.76 69.73 92.43C63.82 91.1 57.88 91.17 52.45 92.67C52.13 92.76 51.79 92.76 51.48 92.68C50.79 92.5 50.25 91.93 50.12 91.22C49.99 90.53 50.28 89.84 50.87 89.43C56.79 85.35 64.15 83.96 71.27 85.57C78.39 87.17 84.45 91.58 88.04 97.81C88.4 98.43 88.37 99.18 87.95 99.75C87.54 100.34 86.81 100.62 86.11 100.49Z" fill="#49362E" style="fill:#49362E;fill:color(display-p3 0.2863 0.2118 0.1804);fill-opacity:1;"/>
<path d="M86.11 100.49C85.79 100.43 85.49 100.28 85.24 100.06C80.98 96.38 75.65 93.76 69.73 92.43C63.82 91.1 57.88 91.17 52.45 92.67C52.13 92.76 51.79 92.76 51.48 92.68C50.79 92.5 50.25 91.93 50.12 91.22C49.99 90.53 50.28 89.84 50.87 89.43C56.79 85.35 64.15 83.96 71.27 85.57C78.39 87.17 84.45 91.58 88.04 97.81C88.4 98.43 88.37 99.18 87.95 99.75C87.54 100.34 86.81 100.62 86.11 100.49Z" fill="#1A1717" style="fill:#1A1717;fill:color(display-p3 0.1020 0.0902 0.0902);fill-opacity:1;"/>
<path d="M86.11 100.49C85.79 100.43 85.49 100.28 85.24 100.06C80.98 96.38 75.65 93.76 69.73 92.43C63.82 91.1 57.88 91.17 52.45 92.67C52.13 92.76 51.79 92.76 51.48 92.68C50.79 92.5 50.25 91.93 50.12 91.22C49.99 90.53 50.28 89.84 50.87 89.43C56.79 85.35 64.15 83.96 71.27 85.57C78.39 87.17 84.45 91.58 88.04 97.81C88.4 98.43 88.37 99.18 87.95 99.75C87.54 100.34 86.81 100.62 86.11 100.49Z" fill="#5D4037" style="fill:#5D4037;fill:color(display-p3 0.3647 0.2510 0.2157);fill-opacity:1;"/>
<path d="M44.04 54.94C39.85 54.94 36.04 58.48 36.04 64.36C36.04 70.23 39.85 73.78 44.04 73.78C48.23 73.78 52.04 70.24 52.04 64.36C52.04 58.48 48.24 54.94 44.04 54.94Z" fill="#49362E" style="fill:#49362E;fill:color(display-p3 0.2863 0.2118 0.1804);fill-opacity:1;"/>
<path d="M44.04 54.94C39.85 54.94 36.04 58.48 36.04 64.36C36.04 70.23 39.85 73.78 44.04 73.78C48.23 73.78 52.04 70.24 52.04 64.36C52.04 58.48 48.24 54.94 44.04 54.94Z" fill="#1A1717" style="fill:#1A1717;fill:color(display-p3 0.1020 0.0902 0.0902);fill-opacity:1;"/>
<path d="M44.04 54.94C39.85 54.94 36.04 58.48 36.04 64.36C36.04 70.23 39.85 73.78 44.04 73.78C48.23 73.78 52.04 70.24 52.04 64.36C52.04 58.48 48.24 54.94 44.04 54.94Z" fill="#1A1717" style="fill:#1A1717;fill:color(display-p3 0.1020 0.0902 0.0902);fill-opacity:1;"/>
<path d="M44.04 54.94C39.85 54.94 36.04 58.48 36.04 64.36C36.04 70.23 39.85 73.78 44.04 73.78C48.23 73.78 52.04 70.24 52.04 64.36C52.04 58.48 48.24 54.94 44.04 54.94Z" fill="#49362E" style="fill:#49362E;fill:color(display-p3 0.2863 0.2118 0.1804);fill-opacity:1;"/>
<path d="M43.6502 58.87C42.6202 58.15 41.0702 58.38 40.0702 59.82C39.0702 61.27 39.4002 62.79 40.4302 63.51C41.4602 64.23 43.0101 64 44.0101 62.56C45.0101 61.12 44.6902 59.59 43.6502 58.87Z" fill="#555050" style="fill:#555050;fill:color(display-p3 0.3333 0.3125 0.3125);fill-opacity:1;"/>
<path d="M43.6502 58.87C42.6202 58.15 41.0702 58.38 40.0702 59.82C39.0702 61.27 39.4002 62.79 40.4302 63.51C41.4602 64.23 43.0101 64 44.0101 62.56C45.0101 61.12 44.6902 59.59 43.6502 58.87Z" fill="#6A564E" style="fill:#6A564E;fill:color(display-p3 0.4167 0.3385 0.3056);fill-opacity:1;"/>
<path d="M82.3999 54.94C78.2099 54.94 74.3999 58.48 74.3999 64.36C74.3999 70.23 78.2099 73.78 82.3999 73.78C86.5899 73.78 90.3999 70.24 90.3999 64.36C90.3999 58.48 86.5899 54.94 82.3999 54.94Z" fill="#49362E" style="fill:#49362E;fill:color(display-p3 0.2863 0.2118 0.1804);fill-opacity:1;"/>
<path d="M82.3999 54.94C78.2099 54.94 74.3999 58.48 74.3999 64.36C74.3999 70.23 78.2099 73.78 82.3999 73.78C86.5899 73.78 90.3999 70.24 90.3999 64.36C90.3999 58.48 86.5899 54.94 82.3999 54.94Z" fill="#1A1717" style="fill:#1A1717;fill:color(display-p3 0.1020 0.0902 0.0902);fill-opacity:1;"/>
<path d="M82.3999 54.94C78.2099 54.94 74.3999 58.48 74.3999 64.36C74.3999 70.23 78.2099 73.78 82.3999 73.78C86.5899 73.78 90.3999 70.24 90.3999 64.36C90.3999 58.48 86.5899 54.94 82.3999 54.94Z" fill="#1A1717" style="fill:#1A1717;fill:color(display-p3 0.1020 0.0902 0.0902);fill-opacity:1;"/>
<path d="M82.3999 54.94C78.2099 54.94 74.3999 58.48 74.3999 64.36C74.3999 70.23 78.2099 73.78 82.3999 73.78C86.5899 73.78 90.3999 70.24 90.3999 64.36C90.3999 58.48 86.5899 54.94 82.3999 54.94Z" fill="#49362E" style="fill:#49362E;fill:color(display-p3 0.2863 0.2118 0.1804);fill-opacity:1;"/>
<path d="M82.01 58.87C80.98 58.15 79.43 58.38 78.43 59.82C77.43 61.27 77.76 62.79 78.79 63.51C79.82 64.23 81.37 64 82.37 62.56C83.38 61.11 83.04 59.59 82.01 58.87Z" fill="#555050" style="fill:#555050;fill:color(display-p3 0.3333 0.3125 0.3125);fill-opacity:1;"/>
<path d="M82.01 58.87C80.98 58.15 79.43 58.38 78.43 59.82C77.43 61.27 77.76 62.79 78.79 63.51C79.82 64.23 81.37 64 82.37 62.56C83.38 61.11 83.04 59.59 82.01 58.87Z" fill="#6A564E" style="fill:#6A564E;fill:color(display-p3 0.4167 0.3385 0.3056);fill-opacity:1;"/>
<path d="M104 21.4C98.5001 16.57 91.9901 12.89 84.8401 10.45L82.9501 11.49L58.9701 22.92L18.4601 28.43L16.3601 28.66C9.7401 37.32 5.6001 48.67 5.6001 62.9C5.6001 68.32 6.2201 73.31 7.3301 77.9L66.9601 44.87L117.22 39.9C114.26 32.81 109.82 26.57 104 21.4Z" fill="#F5F5F5" style="fill:#F5F5F5;fill:color(display-p3 0.9608 0.9608 0.9608);fill-opacity:1;"/>
<path d="M7.68988 79.4L7.12988 77.22C7.12988 77.22 38.9599 52.36 70.8899 42.76L76.4899 43.61C44.3699 53.8 8.01988 79.16 7.68988 79.4Z" fill="#808080" style="fill:#808080;fill:color(display-p3 0.5020 0.5020 0.5020);fill-opacity:1;"/>
<path d="M62.2402 21.36L56.4502 24.12L62.2402 21.36Z" fill="url(#paint5_linear_169_12089)" style=""/>
<path d="M84.8401 10.45C88.3601 11.5 91.7802 12.91 95.0602 14.6C98.3401 16.29 101.5 18.27 104.35 20.72C107.15 23.19 109.65 26.01 111.81 29.06C112.89 30.59 113.89 32.17 114.81 33.8C115.73 35.44 116.57 37.08 117.32 38.88L117.94 40.39L116.26 40.56C107.13 41.51 97.9902 42.43 88.8502 43.26C84.2802 43.7 79.7102 44.1 75.1402 44.49C70.5702 44.88 65.9902 45.3 61.4202 45.64C52.2902 46.33 43.1602 47.13 34.0302 48.01L20.3402 49.39C15.7802 49.87 11.2202 50.41 6.66016 50.95C11.1402 49.94 15.6702 49.13 20.1902 48.32C24.7102 47.51 29.2502 46.79 33.8002 46.13C42.9002 44.81 52.0302 43.74 61.1802 42.87L74.8802 41.55C79.4502 41.12 84.0101 40.69 88.5901 40.31C97.7301 39.49 106.87 38.77 116.02 38.06L114.96 39.74C113.73 36.48 112.02 33.21 110.08 30.21C108.15 27.18 105.9 24.33 103.33 21.81C100.76 19.3 97.7902 17.16 94.6602 15.3C93.0902 14.37 91.4801 13.5 89.8401 12.7C88.2102 11.89 86.5501 11.12 84.8401 10.45Z" fill="#808080" style="fill:#808080;fill:color(display-p3 0.5020 0.5020 0.5020);fill-opacity:1;"/>
<path d="M104 21.45C98.8003 21.76 93.6503 21.9 88.4903 22.09C85.9103 22.21 83.3303 22.17 80.7503 22.31L73.0003 22.72C67.8403 22.99 62.6703 23.36 57.5203 23.81C52.3603 24.21 47.2103 24.72 42.0503 25.27L42.0303 25.17C52.2903 23.69 62.6003 22.64 72.9303 21.9C78.1003 21.55 83.2703 21.25 88.4503 21.13C93.6303 21.03 98.8203 21.03 103.99 21.36L104 21.45Z" fill="#808080" style="fill:#808080;fill:color(display-p3 0.5020 0.5020 0.5020);fill-opacity:1;"/>
<path d="M16.3601 28.65C14.3401 32.64 12.5001 36.64 10.9601 40.72C10.2101 42.76 9.51007 44.81 8.99007 46.9C8.41007 48.98 8.05007 51.05 7.83007 53.19C7.36007 57.55 6.98007 61.91 6.86007 66.28C6.81007 68.46 6.78007 70.65 6.91007 72.84C7.01007 75.03 7.19007 77.22 7.68007 79.4C6.56007 77.44 5.96007 75.23 5.45007 73.03C4.97007 70.82 4.68007 68.58 4.52007 66.33C4.20007 61.83 4.34007 57.32 4.85007 52.86C5.35007 48.27 6.81007 43.83 8.82007 39.8C10.8401 35.74 13.3201 31.95 16.3601 28.65Z" fill="#808080" style="fill:#808080;fill:color(display-p3 0.5020 0.5020 0.5020);fill-opacity:1;"/>
<defs>
<radialGradient id="paint0_radial_169_12089" cx="0" cy="0" r="1" gradientUnits="userSpaceOnUse" gradientTransform="translate(63.6001 62.8999) scale(56.9597 56.9597)">
<stop offset="0.5" stop-color="#FDE030" style="stop-color:#FDE030;stop-color:color(display-p3 0.9922 0.8784 0.1882);stop-opacity:1;"/>
<stop offset="0.9188" stop-color="#F7C02B" style="stop-color:#F7C02B;stop-color:color(display-p3 0.9686 0.7529 0.1686);stop-opacity:1;"/>
<stop offset="1" stop-color="#F4A223" style="stop-color:#F4A223;stop-color:color(display-p3 0.9569 0.6353 0.1373);stop-opacity:1;"/>
</radialGradient>
<radialGradient id="paint1_radial_169_12089" cx="0" cy="0" r="1" gradientUnits="userSpaceOnUse" gradientTransform="translate(38.5991 34.5377) rotate(-43.2082) scale(102.024 101.825)">
<stop offset="0.3533" stop-color="#F9DDBD" style="stop-color:#F9DDBD;stop-color:color(display-p3 0.9765 0.8667 0.7412);stop-opacity:1;"/>
<stop offset="0.8723" stop-color="#FFD29C" style="stop-color:#FFD29C;stop-color:color(display-p3 1.0000 0.8235 0.6118);stop-opacity:1;"/>
</radialGradient>
<radialGradient id="paint2_radial_169_12089" cx="0" cy="0" r="1" gradientUnits="userSpaceOnUse" gradientTransform="translate(38.5991 34.5377) rotate(-43.2082) scale(102.024 101.825)">
<stop offset="0.3533" stop-color="#70534A" style="stop-color:#70534A;stop-color:color(display-p3 0.4392 0.3255 0.2902);stop-opacity:1;"/>
<stop offset="0.8723" stop-color="#5C4037" style="stop-color:#5C4037;stop-color:color(display-p3 0.3608 0.2510 0.2157);stop-opacity:1;"/>
</radialGradient>
<radialGradient id="paint3_radial_169_12089" cx="0" cy="0" r="1" gradientUnits="userSpaceOnUse" gradientTransform="translate(38.5991 34.5377) rotate(-43.2082) scale(102.024 101.825)">
<stop offset="0.3533" stop-color="#A37A58" style="stop-color:#A37A58;stop-color:color(display-p3 0.6375 0.4772 0.3453);stop-opacity:1;"/>
<stop offset="0.8723" stop-color="#8D5738" style="stop-color:#8D5738;stop-color:color(display-p3 0.5529 0.3412 0.2196);stop-opacity:1;"/>
</radialGradient>
<radialGradient id="paint4_radial_169_12089" cx="0" cy="0" r="1" gradientUnits="userSpaceOnUse" gradientTransform="translate(38.5991 34.5377) rotate(-43.2082) scale(102.024 101.825)">
<stop offset="0.3533" stop-color="#AD8264" style="stop-color:#AD8264;stop-color:color(display-p3 0.6784 0.5098 0.3922);stop-opacity:1;"/>
<stop offset="0.8723" stop-color="#A47B62" style="stop-color:#A47B62;stop-color:color(display-p3 0.6431 0.4824 0.3843);stop-opacity:1;"/>
</radialGradient>
<linearGradient id="paint5_linear_169_12089" x1="59.5694" y1="24.5702" x2="58.3887" y2="14.9541" gradientUnits="userSpaceOnUse">
<stop offset="0.0652" stop-color="#B3B3B3" style="stop-color:#B3B3B3;stop-color:color(display-p3 0.7020 0.7020 0.7020);stop-opacity:1;"/>
<stop offset="0.2661" stop-color="#BDBDBD" stop-opacity="0.7505" style="stop-color:#BDBDBD;stop-color:color(display-p3 0.7412 0.7412 0.7412);stop-opacity:0.7505;"/>
<stop offset="0.6106" stop-color="#D9D9D9" stop-opacity="0.3227" style="stop-color:#D9D9D9;stop-color:color(display-p3 0.8510 0.8510 0.8510);stop-opacity:0.3227;"/>
<stop offset="0.8705" stop-color="#F2F2F2" stop-opacity="0" style="stop-color:none;stop-opacity:0;"/>
</linearGradient>
</defs>
</svg>
