<svg width="129" height="128" viewBox="0 0 129 128" fill="none" xmlns="http://www.w3.org/2000/svg">
<path d="M31.5 109V19H65.35C72.2845 19 78.1024 20.2891 82.8038 22.8672C87.5345 25.4453 91.1046 28.9902 93.514 33.502C95.9528 37.9844 97.1723 43.082 97.1723 48.7949C97.1723 54.5664 95.9528 59.6934 93.514 64.1758C91.0752 68.6582 87.4757 72.1885 82.7155 74.7666C77.9554 77.3154 72.0935 78.5898 65.1296 78.5898H42.6952V65.1865H62.9257C66.9806 65.1865 70.3011 64.4834 72.8869 63.0771C75.4727 61.6709 77.3826 59.7373 78.6167 57.2764C79.8802 54.8154 80.5118 51.9883 80.5118 48.7949C80.5118 45.6016 79.8802 42.7891 78.6167 40.3574C77.3826 37.9258 75.4578 36.0361 72.8427 34.6885C70.2569 33.3115 66.922 32.623 62.8377 32.623H47.8519V109H31.5Z" fill="#DFE6EB" style="fill:#DFE6EB;fill:color(display-p3 0.8745 0.9020 0.9216);fill-opacity:1;"/>
<path d="M31.5 109V19H65.35C72.2845 19 78.1024 20.2891 82.8038 22.8672C87.5345 25.4453 91.1046 28.9902 93.514 33.502C95.9528 37.9844 97.1723 43.082 97.1723 48.7949C97.1723 54.5664 95.9528 59.6934 93.514 64.1758C91.0752 68.6582 87.4757 72.1885 82.7155 74.7666C77.9554 77.3154 72.0935 78.5898 65.1296 78.5898H42.6952V65.1865H62.9257C66.9806 65.1865 70.3011 64.4834 72.8869 63.0771C75.4727 61.6709 77.3826 59.7373 78.6167 57.2764C79.8802 54.8154 80.5118 51.9883 80.5118 48.7949C80.5118 45.6016 79.8802 42.7891 78.6167 40.3574C77.3826 37.9258 75.4578 36.0361 72.8427 34.6885C70.2569 33.3115 66.922 32.623 62.8377 32.623H47.8519V109H31.5Z" fill="#8CAFBF" style="fill:#8CAFBF;fill:color(display-p3 0.5490 0.6863 0.7490);fill-opacity:1;"/>
<path fill-rule="evenodd" clip-rule="evenodd" d="M28.5 112V16H65.35C72.6431 16 78.9886 17.3546 84.2423 20.2346C89.4532 23.075 93.4549 27.0278 96.1546 32.0781C98.8567 37.0486 100.172 42.6461 100.172 48.7949C100.172 55.0008 98.8573 60.6322 96.1492 65.6096C93.4159 70.6332 89.3819 74.5678 84.1443 77.4045L84.138 77.408L84.1317 77.4113C78.8279 80.2512 72.4485 81.5898 65.1296 81.5898H50.8519V112H28.5ZM47.8519 78.5898H65.1296C72.0935 78.5898 77.9554 77.3154 82.7155 74.7666C87.4757 72.1885 91.0752 68.6582 93.514 64.1758C95.9528 59.6934 97.1723 54.5664 97.1723 48.7949C97.1723 43.082 95.9528 37.9844 93.514 33.502C91.1046 28.9902 87.5345 25.4453 82.8038 22.8672C78.1024 20.2891 72.2845 19 65.35 19H31.5V109H47.8519V78.5898ZM47.8519 65.1865H62.9257C66.9806 65.1865 70.3011 64.4834 72.8869 63.0771C75.4726 61.6709 77.3826 59.7373 78.6167 57.2764C79.8802 54.8154 80.5118 51.9883 80.5118 48.7949C80.5118 45.6016 79.8802 42.7891 78.6167 40.3574C77.3826 37.9258 75.4578 36.0361 72.8427 34.6885C70.2569 33.3115 66.922 32.6231 62.8377 32.6231H47.8519V65.1865ZM50.8519 62.1865H62.9257C66.6598 62.1865 69.4425 61.5354 71.4536 60.4417C73.5404 59.3068 74.9948 57.8063 75.935 55.9316L75.9414 55.9188L75.9479 55.9062C76.9623 53.9303 77.5118 51.5856 77.5118 48.7949C77.5118 46.0033 76.962 43.6794 75.9546 41.7407L75.948 41.7279L75.9415 41.7151C75.0156 39.8909 73.5699 38.4382 71.4684 37.3552L71.4504 37.3459L71.4326 37.3364C69.4181 36.2637 66.6135 35.6231 62.8377 35.6231H50.8519V62.1865Z" fill="#427687" style="fill:#427687;fill:color(display-p3 0.2588 0.4627 0.5294);fill-opacity:1;"/>
</svg>
