<svg width="128" height="129" viewBox="0 0 128 129" fill="none" xmlns="http://www.w3.org/2000/svg">
<path d="M23.9902 19.4657C23.9902 19.4657 24.9602 12.8757 26.2202 10.2357C27.4802 7.59569 29.4602 4.81569 33.2602 4.07569C37.7902 3.19569 90.3102 3.65569 93.9502 3.88569C97.6202 4.12569 100.03 5.27569 101.41 7.53569C102.46 9.26569 102.83 11.3757 103.32 14.5057C103.58 16.1557 104.12 20.6757 104.12 20.6757L23.9902 19.4657Z" fill="#FFA828" style="fill:#FFA828;fill:color(display-p3 1.0000 0.6588 0.1569);fill-opacity:1;"/>
<path d="M50.6302 37.3156L22.4702 32.6356C22.4702 32.6356 23.0602 20.9856 24.2802 17.9356C25.5002 14.8856 27.0102 13.0656 31.4402 12.3056C35.8702 11.5456 46.9702 11.8556 63.6202 11.7056C80.2702 11.5556 94.9302 12.5656 97.5302 12.7156C100.13 12.8656 102.57 14.1456 103.33 16.5856C104.09 19.0256 104.46 22.3256 105.01 28.1956C105.21 30.3256 105.03 34.3556 105.03 34.3556L72.7602 36.5556L50.6302 37.3156Z" fill="#F1EDEC" style="fill:#F1EDEC;fill:color(display-p3 0.9451 0.9294 0.9255);fill-opacity:1;"/>
<path d="M22.2302 35.6857C22.4202 32.6357 22.4802 29.3357 24.8002 27.3657C26.7902 25.6857 30.1502 25.9957 34.1202 25.8357C37.7902 25.6957 47.1002 25.7757 64.6702 25.7757C82.2402 25.7757 97.0302 26.0357 99.7802 26.0357C102.53 26.0357 104.87 28.1857 105.17 30.1757C105.48 32.1657 104.1 116.326 103.95 118.156C103.8 119.986 103.19 123.656 99.2102 123.956C95.2402 124.266 32.7702 124.266 30.1702 123.956C27.5702 123.646 25.2802 121.356 24.8202 117.086C24.3602 112.816 22.0702 38.1257 22.2302 35.6857Z" fill="#D8CDC9" style="fill:#D8CDC9;fill:color(display-p3 0.8471 0.8039 0.7882);fill-opacity:1;"/>
<path d="M29.61 50.0259C31.91 50.3259 33.82 40.4159 36.82 38.1059C39.82 35.8059 45.43 34.5959 45.43 32.2959C45.43 31.1459 41.79 31.1559 38.42 31.1959C35.05 31.2359 32.15 30.9559 30.51 32.6959C28.71 34.5959 28.53 37.6459 28.41 40.7059C28.2 45.6159 28.19 49.8359 29.61 50.0259Z" fill="#F1EDEC" style="fill:#F1EDEC;fill:color(display-p3 0.9451 0.9294 0.9255);fill-opacity:1;"/>
<path d="M79.3398 117.656C79.3398 119.336 80.5698 119.886 87.2198 119.656C92.8398 119.466 95.6198 118.756 97.2898 116.746C98.9598 114.746 99.4198 110.546 99.4898 105.506C99.5298 102.016 99.4398 98.6562 97.6798 98.6562C95.1598 98.6562 95.1699 104.406 93.1599 107.636C89.2199 113.976 79.3398 115.416 79.3398 117.656Z" fill="#F1EDEC" style="fill:#F1EDEC;fill:color(display-p3 0.9451 0.9294 0.9255);fill-opacity:1;"/>
<path d="M79.4667 61.2507C77.4349 61.2508 76.419 60.3473 76.4191 58.5403C76.419 57.6369 76.7237 57.0044 77.3333 56.643L87.0857 51.7643L81.4476 60.3021C81.0412 60.8442 80.3809 61.1604 79.4667 61.2507ZM66.9714 53.7971C66.9714 55.5137 65.9555 56.372 63.9238 56.372C61.9936 56.372 61.0285 55.5137 61.0286 53.7971V53.526L63.9238 36.7214L66.9714 53.7971ZM104 72.2279L84.6476 74.8028C82.819 74.8028 81.9047 73.9445 81.9048 72.2279C81.9047 70.421 82.819 69.5175 84.6476 69.5175H85.1048L104 72.2279ZM87.0857 92.6916L77.3333 87.6773C76.7237 87.3159 76.419 86.6835 76.4191 85.78C76.419 83.9731 77.4349 83.0696 79.4667 83.0696C80.3809 83.16 81.0412 83.4762 81.4476 84.0183L87.0857 92.6916ZM51.7333 58.5403C51.7333 60.3473 50.7174 61.2508 48.6857 61.2507C47.6698 61.1604 46.9587 60.8442 46.5524 60.3021L41.0667 51.7643L50.6667 56.643C51.2762 57.0044 51.6317 57.6369 51.7333 58.5403ZM63.9238 57.5917C68.5968 57.5917 72.5079 59.0373 75.6572 61.9283C78.8063 64.7291 80.3809 68.1623 80.381 72.2279C80.3809 76.2032 78.8063 79.6364 75.6572 82.5275C72.5079 85.3283 68.5968 86.7287 63.9238 86.7287C59.4539 86.7287 55.5936 85.3283 52.3429 82.5275C49.1936 79.7268 47.619 76.2936 47.6191 72.2279C47.619 68.072 49.1936 64.5936 52.3429 61.7928C55.5936 58.9921 59.4539 57.5917 63.9238 57.5917ZM46.0952 72.2279C46.0952 73.9445 45.1301 74.8028 43.2 74.8028L24 72.2279L43.3524 69.5175C45.1809 69.5175 46.0952 70.421 46.0952 72.2279ZM66.9714 90.9298L63.9238 107.734L61.0286 90.6588C61.0285 88.9422 61.9936 88.0839 63.9238 88.0839C65.9555 88.0839 66.9714 88.9422 66.9714 90.6588V90.9298ZM48.6857 83.0696C50.7174 83.0696 51.7333 83.9731 51.7333 85.78C51.6317 86.6835 51.2762 87.3159 50.6667 87.6773L41.0667 92.6916L46.5524 84.0183C46.9587 83.4762 47.6698 83.16 48.6857 83.0696ZM63.9238 83.3407C67.5809 83.3407 70.5777 82.2565 72.9143 80.0882C75.3523 77.9198 76.5714 75.2998 76.5714 72.2279C76.5714 69.1561 75.3523 66.5361 72.9143 64.3677C70.5777 62.1994 67.5809 61.1152 63.9238 61.1152C60.3682 61.1152 57.3714 62.1994 54.9333 64.3677C52.5968 66.5361 51.4285 69.1561 51.4286 72.2279C51.4285 75.3901 52.6476 78.0553 55.0857 80.2237C57.5238 82.3017 60.4698 83.3407 63.9238 83.3407Z" fill="#9C0000" style="fill:#9C0000;fill:color(display-p3 0.6118 0.0000 0.0000);fill-opacity:1;"/>
<path d="M79.4667 61.2507C77.4349 61.2508 76.419 60.3473 76.4191 58.5403C76.419 57.6369 76.7237 57.0044 77.3333 56.643L87.0857 51.7643L81.4476 60.3021C81.0412 60.8442 80.3809 61.1604 79.4667 61.2507ZM66.9714 53.7971C66.9714 55.5137 65.9555 56.372 63.9238 56.372C61.9936 56.372 61.0285 55.5137 61.0286 53.7971V53.526L63.9238 36.7214L66.9714 53.7971ZM104 72.2279L84.6476 74.8028C82.819 74.8028 81.9047 73.9445 81.9048 72.2279C81.9047 70.421 82.819 69.5175 84.6476 69.5175H85.1048L104 72.2279ZM87.0857 92.6916L77.3333 87.6773C76.7237 87.3159 76.419 86.6835 76.4191 85.78C76.419 83.9731 77.4349 83.0696 79.4667 83.0696C80.3809 83.16 81.0412 83.4762 81.4476 84.0183L87.0857 92.6916ZM51.7333 58.5403C51.7333 60.3473 50.7174 61.2508 48.6857 61.2507C47.6698 61.1604 46.9587 60.8442 46.5524 60.3021L41.0667 51.7643L50.6667 56.643C51.2762 57.0044 51.6317 57.6369 51.7333 58.5403ZM63.9238 57.5917C68.5968 57.5917 72.5079 59.0373 75.6572 61.9283C78.8063 64.7291 80.3809 68.1623 80.381 72.2279C80.3809 76.2032 78.8063 79.6364 75.6572 82.5275C72.5079 85.3283 68.5968 86.7287 63.9238 86.7287C59.4539 86.7287 55.5936 85.3283 52.3429 82.5275C49.1936 79.7268 47.619 76.2936 47.6191 72.2279C47.619 68.072 49.1936 64.5936 52.3429 61.7928C55.5936 58.9921 59.4539 57.5917 63.9238 57.5917ZM46.0952 72.2279C46.0952 73.9445 45.1301 74.8028 43.2 74.8028L24 72.2279L43.3524 69.5175C45.1809 69.5175 46.0952 70.421 46.0952 72.2279ZM66.9714 90.9298L63.9238 107.734L61.0286 90.6588C61.0285 88.9422 61.9936 88.0839 63.9238 88.0839C65.9555 88.0839 66.9714 88.9422 66.9714 90.6588V90.9298ZM48.6857 83.0696C50.7174 83.0696 51.7333 83.9731 51.7333 85.78C51.6317 86.6835 51.2762 87.3159 50.6667 87.6773L41.0667 92.6916L46.5524 84.0183C46.9587 83.4762 47.6698 83.16 48.6857 83.0696ZM63.9238 83.3407C67.5809 83.3407 70.5777 82.2565 72.9143 80.0882C75.3523 77.9198 76.5714 75.2998 76.5714 72.2279C76.5714 69.1561 75.3523 66.5361 72.9143 64.3677C70.5777 62.1994 67.5809 61.1152 63.9238 61.1152C60.3682 61.1152 57.3714 62.1994 54.9333 64.3677C52.5968 66.5361 51.4285 69.1561 51.4286 72.2279C51.4285 75.3901 52.6476 78.0553 55.0857 80.2237C57.5238 82.3017 60.4698 83.3407 63.9238 83.3407Z" fill="#F44336" style="fill:#F44336;fill:color(display-p3 0.9569 0.2627 0.2118);fill-opacity:1;"/>
</svg>
