<svg width="128" height="128" viewBox="0 0 128 128" fill="none" xmlns="http://www.w3.org/2000/svg">
<path d="M63.6001 118.8C35.7001 118.8 5.6001 101.3 5.6001 62.9C5.6001 24.5 35.7001 7 63.6001 7C79.1001 7 93.4001 12.1 104 21.4C115.5 31.6 121.6 46 121.6 62.9C121.6 79.8 115.5 94.1 104 104.3C93.4001 113.6 79.0001 118.8 63.6001 118.8Z" fill="url(#paint0_radial_169_5473)" style=""/>
<path d="M63.6001 118.8C35.7001 118.8 5.6001 101.3 5.6001 62.9C5.6001 24.5 35.7001 7 63.6001 7C79.1001 7 93.4001 12.1 104 21.4C115.5 31.6 121.6 46 121.6 62.9C121.6 79.8 115.5 94.1 104 104.3C93.4001 113.6 79.0001 118.8 63.6001 118.8Z" fill="url(#paint1_linear_169_5473)" style=""/>
<path d="M63.6001 118.8C35.7001 118.8 5.6001 101.3 5.6001 62.9C5.6001 24.5 35.7001 7 63.6001 7C79.1001 7 93.4001 12.1 104 21.4C115.5 31.6 121.6 46 121.6 62.9C121.6 79.8 115.5 94.1 104 104.3C93.4001 113.6 79.0001 118.8 63.6001 118.8Z" fill="url(#paint2_radial_169_5473)" style=""/>
<path d="M63.6001 118.8C35.7001 118.8 5.6001 101.3 5.6001 62.9C5.6001 24.5 35.7001 7 63.6001 7C79.1001 7 93.4001 12.1 104 21.4C115.5 31.6 121.6 46 121.6 62.9C121.6 79.8 115.5 94.1 104 104.3C93.4001 113.6 79.0001 118.8 63.6001 118.8Z" fill="url(#paint3_radial_169_5473)" style=""/>
<path d="M111.49 29.67C116.82 38.27 119.6 48.51 119.6 59.9C119.6 76.8 113.5 91.1 102 101.3C91.4002 110.6 77.0002 115.8 61.6002 115.8C43.5402 115.8 24.6002 108.45 13.4202 92.86C24.1802 110.52 44.4202 118.8 63.6002 118.8C79.0002 118.8 93.4002 113.6 104 104.3C115.5 94.1001 121.6 79.8 121.6 62.9C121.6 50.16 118.13 38.84 111.49 29.67Z" fill="#EB8F00" style="fill:#EB8F00;fill:color(display-p3 0.9216 0.5608 0.0000);fill-opacity:1;"/>
<path d="M111.49 29.67C116.82 38.27 119.6 48.51 119.6 59.9C119.6 76.8 113.5 91.1 102 101.3C91.4002 110.6 77.0002 115.8 61.6002 115.8C43.5402 115.8 24.6002 108.45 13.4202 92.86C24.1802 110.52 44.4202 118.8 63.6002 118.8C79.0002 118.8 93.4002 113.6 104 104.3C115.5 94.1001 121.6 79.8 121.6 62.9C121.6 50.16 118.13 38.84 111.49 29.67Z" fill="#F3B872" style="fill:#F3B872;fill:color(display-p3 0.9542 0.7229 0.4453);fill-opacity:1;"/>
<path d="M79.7 68.3C70.7 70.3 67.9 70.1 64.2 70.1H63.8C60.1 70.1 57.3 70.3 48.3 68.3C46.7 68 45.4 70 47.8 71.8C52.6 75.3 58.3 76.4 64 76.4C69.7 76.4 75.4 75.3 80.2 71.8C82.6 70 81.2999 68 79.7 68.3Z" fill="#312D2D" style="fill:#312D2D;fill:color(display-p3 0.1922 0.1765 0.1765);fill-opacity:1;"/>
<path d="M43.7 55.0999C45.55 55.0799 47.4 55.28 49.2 55.7C50.16 55.95 51.16 55.4899 51.6 54.5999C52.35 53.0399 52.73 51.3299 52.7 49.5999C52.7 43.6999 48.9 40.2 44.7 40.2C40.5 40.2 36.7 43.6999 36.7 49.5999C36.67 51.1499 36.98 52.6799 37.6 54.0999C37.96 54.9699 38.88 55.4699 39.8 55.2999C41 55.1999 42.3 55.0999 43.7 55.0999Z" fill="#312D2D" style="fill:#312D2D;fill:color(display-p3 0.1922 0.1765 0.1765);fill-opacity:1;"/>
<path d="M84.3 55.0999C82.45 55.0799 80.6 55.28 78.8 55.7C77.84 55.93 76.85 55.4699 76.4 54.5999C75.65 53.0399 75.27 51.3299 75.3 49.5999C75.3 43.6999 79.1 40.2 83.3 40.2C87.5 40.2 91.3 43.6999 91.3 49.5999C91.33 51.1499 91.02 52.6799 90.4 54.0999C90.04 54.9699 89.12 55.4699 88.2 55.2999C87 55.1999 85.7 55.0999 84.3 55.0999Z" fill="#312D2D" style="fill:#312D2D;fill:color(display-p3 0.1922 0.1765 0.1765);fill-opacity:1;"/>
<path opacity="0.66" d="M64.4299 61.66C64.4299 55.66 63.7399 52.14 58.4299 52.74C54.5299 53.14 54.2399 59.12 54.2399 65.12C54.2399 65.12 53.9899 75.75 49.9899 84.64C49.6699 85.05 49.3499 85.46 49.0599 85.9C44.9099 92.1 42.4699 99.55 43.6999 107.03C44.0699 110.25 45.7099 113.19 48.2599 115.19C50.9899 117.43 54.7799 118.26 58.2599 118.59C64.4299 119.17 64.4299 66.87 64.4299 61.66Z" fill="url(#paint4_linear_169_5473)" style=""/>
<path d="M79.6999 68.3C76.0899 69.18 72.4099 69.76 68.6999 70.04C68.4799 72.06 68.4399 74.09 68.5899 76.12C72.7699 75.71 76.7699 74.22 80.1999 71.8C82.5999 70 81.2999 68 79.6999 68.3Z" fill="#312D2D" style="fill:#312D2D;fill:color(display-p3 0.1922 0.1765 0.1765);fill-opacity:1;"/>
<path d="M68.71 70C68.02 70 67.39 70 66.78 70.06C66.48 72.12 66.36 74.2 66.42 76.28C67.15 76.28 67.88 76.17 68.6 76.08C68.45 74.05 68.49 72.02 68.71 70Z" fill="#312D2D" style="fill:#312D2D;fill:color(display-p3 0.1922 0.1765 0.1765);fill-opacity:1;"/>
<path d="M48.3 68.3C46.7 68 45.4 70 47.8 71.8C50.23 73.54 52.98 74.8 55.89 75.48C56.14 73.48 56.29 71.48 56.39 69.77C54.35 69.52 51.79 69.08 48.3 68.3Z" fill="#312D2D" style="fill:#312D2D;fill:color(display-p3 0.1922 0.1765 0.1765);fill-opacity:1;"/>
<path d="M92.3699 93.8699C92.1599 93.1499 91.7599 92.4999 91.1999 91.9999C89.3299 89.7299 86.2999 88.7699 83.4599 89.5499C83.4599 89.4599 83.3999 89.3599 83.3599 89.2799C83.9899 86.5299 83.7199 83.6499 82.5799 81.0699C81.2199 78.4999 78.5899 76.8599 75.6899 76.7699C73.3699 76.6399 71.0499 76.9199 68.8299 77.5999C68.7599 77.3299 68.7099 77.0599 68.6699 76.7799C68.6699 76.5899 68.6099 76.3799 68.5899 76.1399C67.8699 76.2299 67.1399 76.2999 66.4099 76.3399C66.3199 73.0699 66.6499 69.7999 67.4099 66.6199C69.5699 57.2099 65.6399 53.8299 64.7799 53.2199C63.3899 52.3799 61.7499 52.0499 60.1399 52.2799C56.2399 52.6799 56.4399 55.6799 56.4399 61.6799C56.4399 61.6799 57.1099 74.5399 54.0199 84.6799C53.6899 85.0899 53.3699 85.4999 53.0799 85.9399C44.3799 98.9399 46.8799 110.84 52.3799 117.34C55.7199 121.14 60.4299 123.44 65.4799 123.74C69.6299 124 74.7799 123.14 78.4799 119.99C81.3999 118.05 83.3999 114.99 83.9999 111.54C84.1599 110.1 84.1299 108.65 83.8899 107.22V106.79C84.2199 105.94 84.4299 105.05 84.5099 104.15C85.7299 104.19 86.9499 104.02 88.1099 103.63C89.6099 103.08 90.8699 102.02 91.6699 100.63C92.4599 99.2699 92.8399 97.6999 92.7599 96.1299C92.7499 95.3599 92.6199 94.5999 92.3699 93.8699ZM66.5599 78.3199C66.5599 77.7999 66.4499 77.1299 66.4299 76.3199C66.4399 77.1299 66.4999 77.7999 66.5599 78.3199Z" fill="url(#paint5_radial_169_5473)" style=""/>
<path d="M92.3699 93.8699C92.1599 93.1499 91.7599 92.4999 91.1999 91.9999C89.3299 89.7299 86.2999 88.7699 83.4599 89.5499C83.4599 89.4599 83.3999 89.3599 83.3599 89.2799C83.9899 86.5299 83.7199 83.6499 82.5799 81.0699C81.2199 78.4999 78.5899 76.8599 75.6899 76.7699C73.3699 76.6399 71.0499 76.9199 68.8299 77.5999C68.7599 77.3299 68.7099 77.0599 68.6699 76.7799C68.6699 76.5899 68.6099 76.3799 68.5899 76.1399C67.8699 76.2299 67.1399 76.2999 66.4099 76.3399C66.3199 73.0699 66.6499 69.7999 67.4099 66.6199C69.5699 57.2099 65.6399 53.8299 64.7799 53.2199C63.3899 52.3799 61.7499 52.0499 60.1399 52.2799C56.2399 52.6799 56.4399 55.6799 56.4399 61.6799C56.4399 61.6799 57.1099 74.5399 54.0199 84.6799C53.6899 85.0899 53.3699 85.4999 53.0799 85.9399C44.3799 98.9399 46.8799 110.84 52.3799 117.34C55.7199 121.14 60.4299 123.44 65.4799 123.74C69.6299 124 74.7799 123.14 78.4799 119.99C81.3999 118.05 83.3999 114.99 83.9999 111.54C84.1599 110.1 84.1299 108.65 83.8899 107.22V106.79C84.2199 105.94 84.4299 105.05 84.5099 104.15C85.7299 104.19 86.9499 104.02 88.1099 103.63C89.6099 103.08 90.8699 102.02 91.6699 100.63C92.4599 99.2699 92.8399 97.6999 92.7599 96.1299C92.7499 95.3599 92.6199 94.5999 92.3699 93.8699ZM66.5599 78.3199C66.5599 77.7999 66.4499 77.1299 66.4299 76.3199C66.4399 77.1299 66.4999 77.7999 66.5599 78.3199Z" fill="url(#paint6_radial_169_5473)" style=""/>
<path opacity="0.66" d="M68.9399 67.81C70.4199 55.44 64.8599 53.19 64.6199 53.08L64.7999 53.2C65.6599 53.81 69.5899 57.2 67.4299 66.6C67.1399 67.84 66.9399 69.01 66.7799 70.1C67.3899 70.1 68.0199 70.1 68.7099 70.04C68.7699 69.35 68.8399 68.62 68.9399 67.81Z" fill="url(#paint7_linear_169_5473)" style=""/>
<path d="M92.3699 93.8699C92.1599 93.1499 91.7599 92.4999 91.1999 91.9999C91.1999 91.9999 92.7699 96.7299 90.0099 99.8699C88.8899 101.15 87.0099 102 85.4899 101.33C84.0899 100.72 83.3699 99.2199 82.8299 97.7499C83.7099 95.7399 84.0699 93.5499 83.8999 91.3699C83.8599 90.6499 83.6799 89.9499 83.3699 89.2999C83.9999 86.5499 83.7299 83.6699 82.5899 81.0899C81.2299 78.5199 78.5999 76.8799 75.6999 76.7899C73.3799 76.6599 71.0599 76.9399 68.8399 77.6199C68.7699 77.3499 68.7199 77.0799 68.6799 76.7999C68.6799 76.6099 68.6199 76.3999 68.5999 76.1599C67.8799 76.2499 67.1499 76.3199 66.4199 76.3599C66.4199 77.1699 66.4999 77.8299 66.5599 78.3599C63.7299 79.3399 61.0499 80.7299 58.6199 82.4799C61.5599 81.6599 64.4699 80.7399 67.4299 79.9799C70.1499 79.2899 73.0999 78.4699 75.9399 78.6499C77.8799 78.6499 79.7199 79.5599 80.8799 81.1199C82.2099 83.0599 81.0899 85.5899 80.4899 86.6699C79.7799 86.3699 79.0299 86.1799 78.2699 86.1099C75.2699 85.7999 71.9799 86.6399 69.0399 87.3799C66.0999 88.1199 62.7999 88.9999 60.2599 90.7899C64.6299 89.7099 68.7199 88.7399 73.1699 88.0199C75.8099 87.5799 79.9499 87.3199 81.2899 90.4199C82.2899 92.7099 80.7599 95.5399 79.8199 96.9599C77.7799 96.4699 75.6399 96.5599 73.6499 97.2199C70.1299 98.2299 66.7599 99.6799 63.5999 101.52C67.4899 100.59 71.3499 99.4099 75.2999 98.7199C78.3699 98.1799 82.0399 99.0499 82.5199 102.72C82.7499 106.24 80.9699 109.59 77.9199 111.37C76.5399 112.28 74.7399 112.24 73.3999 111.28C72.6499 110.7 71.9399 109.18 73.0399 108.56C73.3999 108.36 73.8699 108.36 74.1899 108.1C74.5499 107.77 74.6199 107.22 74.3499 106.81C74.0599 106.41 73.5499 106.24 73.0799 106.38C72.5999 106.55 72.1999 106.91 71.9899 107.38C70.3399 110.87 73.9199 114.01 77.2699 113.2C77.9999 113.02 81.1699 111.84 81.4799 113.85C81.9099 116.6 78.4799 120 78.4799 120C81.3999 118.06 83.3999 115 83.9999 111.54C84.1799 110 84.1199 108.45 83.8399 106.93C84.1899 106.04 84.4199 105.1 84.5099 104.15C85.7299 104.19 86.9499 104.02 88.1099 103.63C89.6099 103.08 90.8699 102.02 91.6699 100.63C92.4599 99.2699 92.8399 97.6999 92.7599 96.1299C92.7499 95.3599 92.6199 94.5999 92.3699 93.8699Z" fill="url(#paint8_linear_169_5473)" style=""/>
<path d="M92.3699 93.8699C92.1599 93.1499 91.7599 92.4999 91.1999 91.9999C91.1999 91.9999 92.7699 96.7299 90.0099 99.8699C88.8899 101.15 87.0099 102 85.4899 101.33C84.0899 100.72 83.3699 99.2199 82.8299 97.7499C83.7099 95.7399 84.0699 93.5499 83.8999 91.3699C83.8599 90.6499 83.6799 89.9499 83.3699 89.2999C83.9999 86.5499 83.7299 83.6699 82.5899 81.0899C81.2299 78.5199 78.5999 76.8799 75.6999 76.7899C73.3799 76.6599 71.0599 76.9399 68.8399 77.6199C68.7699 77.3499 68.7199 77.0799 68.6799 76.7999C68.6799 76.6099 68.6199 76.3999 68.5999 76.1599C67.8799 76.2499 67.1499 76.3199 66.4199 76.3599C66.4199 77.1699 66.4999 77.8299 66.5599 78.3599C63.7299 79.3399 61.0499 80.7299 58.6199 82.4799C61.5599 81.6599 64.4699 80.7399 67.4299 79.9799C70.1499 79.2899 73.0999 78.4699 75.9399 78.6499C77.8799 78.6499 79.7199 79.5599 80.8799 81.1199C82.2099 83.0599 81.0899 85.5899 80.4899 86.6699C79.7799 86.3699 79.0299 86.1799 78.2699 86.1099C75.2699 85.7999 71.9799 86.6399 69.0399 87.3799C66.0999 88.1199 62.7999 88.9999 60.2599 90.7899C64.6299 89.7099 68.7199 88.7399 73.1699 88.0199C75.8099 87.5799 79.9499 87.3199 81.2899 90.4199C82.2899 92.7099 80.7599 95.5399 79.8199 96.9599C77.7799 96.4699 75.6399 96.5599 73.6499 97.2199C70.1299 98.2299 66.7599 99.6799 63.5999 101.52C67.4899 100.59 71.3499 99.4099 75.2999 98.7199C78.3699 98.1799 82.0399 99.0499 82.5199 102.72C82.7499 106.24 80.9699 109.59 77.9199 111.37C76.5399 112.28 74.7399 112.24 73.3999 111.28C72.6499 110.7 71.9399 109.18 73.0399 108.56C73.3999 108.36 73.8699 108.36 74.1899 108.1C74.5499 107.77 74.6199 107.22 74.3499 106.81C74.0599 106.41 73.5499 106.24 73.0799 106.38C72.5999 106.55 72.1999 106.91 71.9899 107.38C70.3399 110.87 73.9199 114.01 77.2699 113.2C77.9999 113.02 81.1699 111.84 81.4799 113.85C81.9099 116.6 78.4799 120 78.4799 120C81.3999 118.06 83.3999 115 83.9999 111.54C84.1799 110 84.1199 108.45 83.8399 106.93C84.1899 106.04 84.4199 105.1 84.5099 104.15C85.7299 104.19 86.9499 104.02 88.1099 103.63C89.6099 103.08 90.8699 102.02 91.6699 100.63C92.4599 99.2699 92.8399 97.6999 92.7599 96.1299C92.7499 95.3599 92.6199 94.5999 92.3699 93.8699Z" fill="#F3B871" style="fill:#F3B871;fill:color(display-p3 0.9529 0.7216 0.4431);fill-opacity:1;"/>
<defs>
<radialGradient id="paint0_radial_169_5473" cx="0" cy="0" r="1" gradientUnits="userSpaceOnUse" gradientTransform="translate(63.6001 62.9) scale(56.9597 56.9597)">
<stop offset="0.5" stop-color="#FDE030" style="stop-color:#FDE030;stop-color:color(display-p3 0.9922 0.8784 0.1882);stop-opacity:1;"/>
<stop offset="0.92" stop-color="#F7C02B" style="stop-color:#F7C02B;stop-color:color(display-p3 0.9686 0.7529 0.1686);stop-opacity:1;"/>
<stop offset="1" stop-color="#F4A223" style="stop-color:#F4A223;stop-color:color(display-p3 0.9569 0.6353 0.1373);stop-opacity:1;"/>
</radialGradient>
<linearGradient id="paint1_linear_169_5473" x1="63.6001" y1="118.8" x2="63.6001" y2="7" gradientUnits="userSpaceOnUse">
<stop offset="0.16" stop-color="#F4A223" style="stop-color:#F4A223;stop-color:color(display-p3 0.9569 0.6353 0.1373);stop-opacity:1;"/>
<stop offset="0.33" stop-color="#F7C02B" style="stop-color:#F7C02B;stop-color:color(display-p3 0.9686 0.7529 0.1686);stop-opacity:1;"/>
<stop offset="0.81" stop-color="#FDE030" stop-opacity="0" style="stop-color:none;stop-opacity:0;"/>
</linearGradient>
<radialGradient id="paint2_radial_169_5473" cx="0" cy="0" r="1" gradientUnits="userSpaceOnUse" gradientTransform="translate(63.6001 62.9) scale(56.9597 56.9597)">
<stop offset="0.5" stop-color="#FDE030" style="stop-color:#FDE030;stop-color:color(display-p3 0.9922 0.8784 0.1882);stop-opacity:1;"/>
<stop offset="0.92" stop-color="#F7C02B" style="stop-color:#F7C02B;stop-color:color(display-p3 0.9686 0.7529 0.1686);stop-opacity:1;"/>
<stop offset="1" stop-color="#F4A223" style="stop-color:#F4A223;stop-color:color(display-p3 0.9569 0.6353 0.1373);stop-opacity:1;"/>
</radialGradient>
<radialGradient id="paint3_radial_169_5473" cx="0" cy="0" r="1" gradientUnits="userSpaceOnUse" gradientTransform="translate(53 33.5) rotate(79.6952) scale(61.4919 100.858)">
<stop offset="0.3533" stop-color="#F9DDBD" style="stop-color:#F9DDBD;stop-color:color(display-p3 0.9765 0.8667 0.7412);stop-opacity:1;"/>
<stop offset="0.8723" stop-color="#FECD92" style="stop-color:#FECD92;stop-color:color(display-p3 0.9958 0.8035 0.5726);stop-opacity:1;"/>
</radialGradient>
<linearGradient id="paint4_linear_169_5473" x1="53.986" y1="133.759" x2="50.0445" y2="52.9928" gradientUnits="userSpaceOnUse">
<stop stop-color="#BF620C" style="stop-color:#BF620C;stop-color:color(display-p3 0.7490 0.3840 0.0471);stop-opacity:1;"/>
<stop offset="1" stop-color="#BF820C" stop-opacity="0.2" style="stop-color:#BF820C;stop-color:color(display-p3 0.7490 0.5104 0.0471);stop-opacity:0.2;"/>
</linearGradient>
<radialGradient id="paint5_radial_169_5473" cx="0" cy="0" r="1" gradientUnits="userSpaceOnUse" gradientTransform="translate(70.0767 87.9965) scale(29.9639)">
<stop offset="0.41" stop-color="#FFF176" style="stop-color:#FFF176;stop-color:color(display-p3 1.0000 0.9451 0.4627);stop-opacity:1;"/>
<stop offset="1" stop-color="#FFC400" style="stop-color:#FFC400;stop-color:color(display-p3 1.0000 0.7686 0.0000);stop-opacity:1;"/>
</radialGradient>
<radialGradient id="paint6_radial_169_5473" cx="0" cy="0" r="1" gradientUnits="userSpaceOnUse" gradientTransform="translate(60.2951 69.8384) rotate(-56.9509) scale(53.3509 48.7755)">
<stop offset="0.3533" stop-color="#F9DDBD" style="stop-color:#F9DDBD;stop-color:color(display-p3 0.9765 0.8667 0.7412);stop-opacity:1;"/>
<stop offset="0.8723" stop-color="#FFD29C" style="stop-color:#FFD29C;stop-color:color(display-p3 1.0000 0.8235 0.6118);stop-opacity:1;"/>
</radialGradient>
<linearGradient id="paint7_linear_169_5473" x1="66.905" y1="79.08" x2="66.905" y2="54.05" gradientUnits="userSpaceOnUse">
<stop stop-color="#BF360C" style="stop-color:#BF360C;stop-color:color(display-p3 0.7490 0.2118 0.0471);stop-opacity:1;"/>
<stop offset="1" stop-color="#BF360C" stop-opacity="0.2" style="stop-color:#BF360C;stop-color:color(display-p3 0.7490 0.2118 0.0471);stop-opacity:0.2;"/>
</linearGradient>
<linearGradient id="paint8_linear_169_5473" x1="87.4599" y1="98.0799" x2="-156.64" y2="98.0799" gradientUnits="userSpaceOnUse">
<stop stop-color="#DA6727" style="stop-color:#DA6727;stop-color:color(display-p3 0.8549 0.4039 0.1529);stop-opacity:1;"/>
<stop offset="0.02" stop-color="#E27C1E" style="stop-color:#E27C1E;stop-color:color(display-p3 0.8863 0.4863 0.1176);stop-opacity:1;"/>
<stop offset="0.06" stop-color="#ED9613" style="stop-color:#ED9613;stop-color:color(display-p3 0.9294 0.5882 0.0745);stop-opacity:1;"/>
<stop offset="0.1" stop-color="#F5AB0B" style="stop-color:#F5AB0B;stop-color:color(display-p3 0.9608 0.6706 0.0431);stop-opacity:1;"/>
<stop offset="0.15" stop-color="#FBB905" style="stop-color:#FBB905;stop-color:color(display-p3 0.9843 0.7255 0.0196);stop-opacity:1;"/>
<stop offset="0.21" stop-color="#FEC101" style="stop-color:#FEC101;stop-color:color(display-p3 0.9961 0.7569 0.0039);stop-opacity:1;"/>
<stop offset="0.3" stop-color="#FFC400" style="stop-color:#FFC400;stop-color:color(display-p3 1.0000 0.7686 0.0000);stop-opacity:1;"/>
</linearGradient>
</defs>
</svg>
