<svg width="128" height="128" viewBox="0 0 128 128" fill="none" xmlns="http://www.w3.org/2000/svg">
<path d="M63.6 118.8C35.7 118.8 5.59998 101.3 5.59998 62.9C5.59998 24.5 35.7 7 63.6 7C79.1 7 93.4 12.1 104 21.4C115.5 31.6 121.6 46 121.6 62.9C121.6 79.8 115.5 94.1 104 104.3C93.4 113.6 79 118.8 63.6 118.8Z" fill="url(#paint0_radial_169_7198)" style=""/>
<path d="M111.49 29.67C116.82 38.27 119.6 48.51 119.6 59.9C119.6 76.8 113.5 91.1 102 101.3C91.4 110.6 77 115.8 61.6 115.8C43.54 115.8 24.56 108.45 13.42 92.86C24.18 110.52 44.41 118.8 63.6 118.8C79 118.8 93.4 113.6 104 104.3C115.5 94.1001 121.6 79.8 121.6 62.9C121.6 50.16 118.13 38.84 111.49 29.67Z" fill="#EB8F00" style="fill:#EB8F00;fill:color(display-p3 0.9216 0.5608 0.0000);fill-opacity:1;"/>
<path d="M63.6 118.8C35.7 118.8 5.59998 101.3 5.59998 62.9C5.59998 24.5 35.7 7 63.6 7C79.1 7 93.4 12.1 104 21.4C115.5 31.6 121.6 46 121.6 62.9C121.6 79.8 115.5 94.1 104 104.3C93.4 113.6 79 118.8 63.6 118.8Z" fill="url(#paint1_radial_169_7198)" style=""/>
<path d="M63.6 118.8C35.7 118.8 5.59998 101.3 5.59998 62.9C5.59998 24.5 35.7 7 63.6 7C79.1 7 93.4 12.1 104 21.4C115.5 31.6 121.6 46 121.6 62.9C121.6 79.8 115.5 94.1 104 104.3C93.4 113.6 79 118.8 63.6 118.8Z" fill="url(#paint2_radial_169_7198)" style=""/>
<path d="M63.6 118.8C35.7 118.8 5.59998 101.3 5.59998 62.9C5.59998 24.5 35.7 7 63.6 7C79.1 7 93.4 12.1 104 21.4C115.5 31.6 121.6 46 121.6 62.9C121.6 79.8 115.5 94.1 104 104.3C93.4 113.6 79 118.8 63.6 118.8Z" fill="url(#paint3_radial_169_7198)" style=""/>
<path d="M89.74 79.1C82.42 76.75 73.53 75.5 64 75.5C54.32 75.5 45.37 76.87 37.93 79.25C35.11 83.92 33.4 89.33 33.4 95.1C33.4 100 38.3 102.9 42.6 100.9C48 98.4 55.9 95.9 64 95.9C72.1 95.9 80.1 98.4 85.4 100.9C89.7 102.9 94.6 100 94.6 95.1C94.6 89.27 92.73 83.8 89.74 79.1Z" fill="#5D4037" style="fill:#5D4037;fill:color(display-p3 0.3647 0.2510 0.2157);fill-opacity:1;"/>
<path d="M89.7401 79.1C83.7001 69.6 73.0901 67.2 64.0001 67.2C54.1201 67.2 43.7001 69.67 37.9301 79.25C45.3701 76.87 54.3201 75.5 64.0001 75.5C73.5201 75.5 82.4201 76.75 89.7401 79.1Z" fill="white" style="fill:white;fill-opacity:1;"/>
<path d="M63.9399 65.7C67.4399 65.79 70.9699 66.11 74.3999 67C77.8399 67.84 81.1799 69.28 84.1099 71.34C87.0099 73.45 89.4499 76.19 91.1199 79.31C92.8199 82.38 94.0599 85.71 94.6799 89.16C94.9999 90.88 95.1699 92.63 95.1699 94.38C95.1999 95.22 95.1199 96.21 94.8699 97.1C94.6099 98 94.1499 98.83 93.5599 99.55C92.3799 101 90.5799 101.86 88.7499 101.99C87.8399 102.04 86.9199 101.92 86.0599 101.64C85.1899 101.32 84.4599 100.93 83.6799 100.59C77.4799 97.8499 70.7699 96.07 63.9399 95.91C70.7799 95.82 77.5999 97.35 83.9799 99.9C84.7799 100.21 85.5799 100.6 86.3199 100.84C87.0899 101.06 87.8999 101.13 88.6799 101.06C90.2499 100.89 91.7499 100.09 92.6899 98.85C93.1599 98.23 93.5199 97.53 93.6999 96.78C93.8799 96.01 93.9199 95.28 93.8699 94.42C93.7999 92.75 93.5799 91.09 93.2199 89.47C92.5099 86.22 91.2199 83.1 89.5099 80.26C87.8299 77.41 85.5299 75.03 82.8399 73.21C80.1099 71.44 77.0299 70.23 73.8099 69.57C70.5999 68.87 67.2699 68.68 63.9399 68.72V65.7Z" fill="#EB8F00" style="fill:#EB8F00;fill:color(display-p3 0.9216 0.5608 0.0000);fill-opacity:1;"/>
<path d="M63.9399 65.7C67.4399 65.79 70.9699 66.11 74.3999 67C77.8399 67.84 81.1799 69.28 84.1099 71.34C87.0099 73.45 89.4499 76.19 91.1199 79.31C92.8199 82.38 94.0599 85.71 94.6799 89.16C94.9999 90.88 95.1699 92.63 95.1699 94.38C95.1999 95.22 95.1199 96.21 94.8699 97.1C94.6099 98 94.1499 98.83 93.5599 99.55C92.3799 101 90.5799 101.86 88.7499 101.99C87.8399 102.04 86.9199 101.92 86.0599 101.64C85.1899 101.32 84.4599 100.93 83.6799 100.59C77.4799 97.8499 70.7699 96.07 63.9399 95.91C70.7799 95.82 77.5999 97.35 83.9799 99.9C84.7799 100.21 85.5799 100.6 86.3199 100.84C87.0899 101.06 87.8999 101.13 88.6799 101.06C90.2499 100.89 91.7499 100.09 92.6899 98.85C93.1599 98.23 93.5199 97.53 93.6999 96.78C93.8799 96.01 93.9199 95.28 93.8699 94.42C93.7999 92.75 93.5799 91.09 93.2199 89.47C92.5099 86.22 91.2199 83.1 89.5099 80.26C87.8299 77.41 85.5299 75.03 82.8399 73.21C80.1099 71.44 77.0299 70.23 73.8099 69.57C70.5999 68.87 67.2699 68.68 63.9399 68.72V65.7Z" fill="#F3B872" style="fill:#F3B872;fill:color(display-p3 0.9542 0.7229 0.4453);fill-opacity:1;"/>
<path d="M63.9399 65.7C67.4399 65.79 70.9699 66.11 74.3999 67C77.8399 67.84 81.1799 69.28 84.1099 71.34C87.0099 73.45 89.4499 76.19 91.1199 79.31C92.8199 82.38 94.0599 85.71 94.6799 89.16C94.9999 90.88 95.1699 92.63 95.1699 94.38C95.1999 95.22 95.1199 96.21 94.8699 97.1C94.6099 98 94.1499 98.83 93.5599 99.55C92.3799 101 90.5799 101.86 88.7499 101.99C87.8399 102.04 86.9199 101.92 86.0599 101.64C85.1899 101.32 84.4599 100.93 83.6799 100.59C77.4799 97.8499 70.7699 96.07 63.9399 95.91C70.7799 95.82 77.5999 97.35 83.9799 99.9C84.7799 100.21 85.5799 100.6 86.3199 100.84C87.0899 101.06 87.8999 101.13 88.6799 101.06C90.2499 100.89 91.7499 100.09 92.6899 98.85C93.1599 98.23 93.5199 97.53 93.6999 96.78C93.8799 96.01 93.9199 95.28 93.8699 94.42C93.7999 92.75 93.5799 91.09 93.2199 89.47C92.5099 86.22 91.2199 83.1 89.5099 80.26C87.8299 77.41 85.5299 75.03 82.8399 73.21C80.1099 71.44 77.0299 70.23 73.8099 69.57C70.5999 68.87 67.2699 68.68 63.9399 68.72V65.7Z" fill="#BA8F63" style="fill:#BA8F63;fill:color(display-p3 0.7294 0.5608 0.3882);fill-opacity:1;"/>
<path d="M64.19 68.7001C60.87 68.6601 57.53 68.8501 54.32 69.5501C51.1 70.2101 48.02 71.4201 45.29 73.1901C42.6 75.0101 40.3 77.3901 38.62 80.2401C36.9 83.0801 35.62 86.1901 34.91 89.4501C34.55 91.08 34.32 92.7301 34.26 94.4001C34.2 95.2601 34.25 95.9901 34.43 96.7601C34.62 97.5101 34.98 98.2101 35.44 98.8301C36.38 100.07 37.88 100.87 39.45 101.04C40.24 101.11 41.04 101.04 41.81 100.82C42.55 100.58 43.35 100.2 44.15 99.8801C50.52 97.3301 57.35 95.8001 64.19 95.8901C57.35 96.0501 50.64 97.8301 44.45 100.57C43.67 100.91 42.94 101.3 42.07 101.62C41.21 101.9 40.29 102.02 39.38 101.97C37.56 101.85 35.76 100.98 34.57 99.5301C33.98 98.8101 33.52 97.9801 33.26 97.0801C33.01 96.2001 32.93 95.2101 32.96 94.3601C32.97 92.6101 33.14 90.8701 33.45 89.1401C34.08 85.6901 35.31 82.3601 37.01 79.2901C38.69 76.1801 41.13 73.4301 44.02 71.3201C46.95 69.2601 50.29 67.8101 53.73 66.9801C57.17 66.1001 60.7 65.7701 64.19 65.6801V68.7001Z" fill="#EB8F00" style="fill:#EB8F00;fill:color(display-p3 0.9216 0.5608 0.0000);fill-opacity:1;"/>
<path d="M64.19 68.7001C60.87 68.6601 57.53 68.8501 54.32 69.5501C51.1 70.2101 48.02 71.4201 45.29 73.1901C42.6 75.0101 40.3 77.3901 38.62 80.2401C36.9 83.0801 35.62 86.1901 34.91 89.4501C34.55 91.08 34.32 92.7301 34.26 94.4001C34.2 95.2601 34.25 95.9901 34.43 96.7601C34.62 97.5101 34.98 98.2101 35.44 98.8301C36.38 100.07 37.88 100.87 39.45 101.04C40.24 101.11 41.04 101.04 41.81 100.82C42.55 100.58 43.35 100.2 44.15 99.8801C50.52 97.3301 57.35 95.8001 64.19 95.8901C57.35 96.0501 50.64 97.8301 44.45 100.57C43.67 100.91 42.94 101.3 42.07 101.62C41.21 101.9 40.29 102.02 39.38 101.97C37.56 101.85 35.76 100.98 34.57 99.5301C33.98 98.8101 33.52 97.9801 33.26 97.0801C33.01 96.2001 32.93 95.2101 32.96 94.3601C32.97 92.6101 33.14 90.8701 33.45 89.1401C34.08 85.6901 35.31 82.3601 37.01 79.2901C38.69 76.1801 41.13 73.4301 44.02 71.3201C46.95 69.2601 50.29 67.8101 53.73 66.9801C57.17 66.1001 60.7 65.7701 64.19 65.6801V68.7001Z" fill="#F3B872" style="fill:#F3B872;fill:color(display-p3 0.9542 0.7229 0.4453);fill-opacity:1;"/>
<path d="M64.19 68.7001C60.87 68.6601 57.53 68.8501 54.32 69.5501C51.1 70.2101 48.02 71.4201 45.29 73.1901C42.6 75.0101 40.3 77.3901 38.62 80.2401C36.9 83.0801 35.62 86.1901 34.91 89.4501C34.55 91.08 34.32 92.7301 34.26 94.4001C34.2 95.2601 34.25 95.9901 34.43 96.7601C34.62 97.5101 34.98 98.2101 35.44 98.8301C36.38 100.07 37.88 100.87 39.45 101.04C40.24 101.11 41.04 101.04 41.81 100.82C42.55 100.58 43.35 100.2 44.15 99.8801C50.52 97.3301 57.35 95.8001 64.19 95.8901C57.35 96.0501 50.64 97.8301 44.45 100.57C43.67 100.91 42.94 101.3 42.07 101.62C41.21 101.9 40.29 102.02 39.38 101.97C37.56 101.85 35.76 100.98 34.57 99.5301C33.98 98.8101 33.52 97.9801 33.26 97.0801C33.01 96.2001 32.93 95.2101 32.96 94.3601C32.97 92.6101 33.14 90.8701 33.45 89.1401C34.08 85.6901 35.31 82.3601 37.01 79.2901C38.69 76.1801 41.13 73.4301 44.02 71.3201C46.95 69.2601 50.29 67.8101 53.73 66.9801C57.17 66.1001 60.7 65.7701 64.19 65.6801V68.7001Z" fill="#BA8F63" style="fill:#BA8F63;fill:color(display-p3 0.7294 0.5608 0.3882);fill-opacity:1;"/>
<path d="M111.49 29.67C116.82 38.27 119.6 48.51 119.6 59.9C119.6 76.8 113.5 91.1 102 101.3C91.4 110.6 77 115.8 61.6 115.8C43.54 115.8 24.56 108.45 13.42 92.86C24.18 110.52 44.41 118.8 63.6 118.8C79 118.8 93.4 113.6 104 104.3C115.5 94.1001 121.6 79.8 121.6 62.9C121.6 50.16 118.13 38.84 111.49 29.67Z" fill="#EB8F00" style="fill:#EB8F00;fill:color(display-p3 0.9216 0.5608 0.0000);fill-opacity:1;"/>
<path d="M111.49 29.67C116.82 38.27 119.6 48.51 119.6 59.9C119.6 76.8 113.5 91.1 102 101.3C91.4 110.6 77 115.8 61.6 115.8C43.54 115.8 24.56 108.45 13.42 92.86C24.18 110.52 44.41 118.8 63.6 118.8C79 118.8 93.4 113.6 104 104.3C115.5 94.1001 121.6 79.8 121.6 62.9C121.6 50.16 118.13 38.84 111.49 29.67Z" fill="#F3B872" style="fill:#F3B872;fill:color(display-p3 0.9542 0.7229 0.4453);fill-opacity:1;"/>
<path d="M111.49 29.67C116.82 38.27 119.6 48.51 119.6 59.9C119.6 76.8 113.5 91.1 102 101.3C91.4 110.6 77 115.8 61.6 115.8C43.54 115.8 24.56 108.45 13.42 92.86C24.18 110.52 44.41 118.8 63.6 118.8C79 118.8 93.4 113.6 104 104.3C115.5 94.1001 121.6 79.8 121.6 62.9C121.6 50.16 118.13 38.84 111.49 29.67Z" fill="#BA8F63" style="fill:#BA8F63;fill:color(display-p3 0.7294 0.5608 0.3882);fill-opacity:1;"/>
<path d="M22.19 45.9101C21.67 46.0001 21.13 45.9201 20.67 45.7001C19.76 45.2601 19.07 44.1901 19.59 42.7901C21.5 37.8501 25.45 33.7101 30.43 31.4101C32.28 30.5501 34.22 29.98 36.21 29.71C37.7 29.54 38.57 30.4501 38.78 31.4201C39.01 32.5001 38.52 33.82 37.12 34.28L37 34.3201C31.61 36.1801 26.8 39.99 23.82 44.76C23.41 45.44 22.81 45.8001 22.19 45.9101Z" fill="#5D4037" style="fill:#5D4037;fill:color(display-p3 0.3647 0.2510 0.2157);fill-opacity:1;"/>
<path d="M103.53 44.76C100.55 39.99 95.74 36.18 90.35 34.32L90.23 34.28C88.83 33.83 88.33 32.5 88.57 31.42C88.78 30.44 89.66 29.54 91.14 29.71C93.12 29.97 95.07 30.55 96.92 31.41C101.9 33.71 105.85 37.85 107.76 42.79C108.28 44.19 107.59 45.26 106.68 45.7C106.23 45.92 105.69 46 105.16 45.91C104.54 45.8 103.94 45.44 103.53 44.76Z" fill="#5D4037" style="fill:#5D4037;fill:color(display-p3 0.3647 0.2510 0.2157);fill-opacity:1;"/>
<path d="M111.74 111C111.74 107.93 106.19 105.38 99.22 105.22L97.07 52.67C96.86 52.51 96.65 52.32 96.48 52.11C96.48 52.11 96.42 52.03 96.3 51.89C96.24 51.82 96.17 51.73 96.09 51.62C96 51.51 95.91 51.39 95.83 51.33C95.66 51.16 95.45 50.95 95.21 50.71C94.96 50.46 94.66 50.19 94.35 49.92C93.71 49.38 92.95 48.88 92.15 48.53C91.35 48.2 90.54 48 89.71 48.01H89.58L89.29 48.02C89.03 48.02 89.08 48.04 89 48.05C88.93 48.04 88.65 48.11 88.46 48.14C88.06 48.24 87.64 48.36 87.24 48.53C86.44 48.88 82.15 49.07 81.87 49.24L81.41 110.49C76.88 111.86 71.92 114.16 71.92 116.73C71.92 120.92 79.75 124.33 89.41 124.33C99.07 124.33 106.9 120.94 106.9 116.75C106.9 116.33 106.8 115.93 106.65 115.53C109.75 114.47 111.74 112.84 111.74 111Z" fill="#29B6F6" style="fill:#29B6F6;fill:color(display-p3 0.1608 0.7137 0.9647);fill-opacity:1;"/>
<path d="M86.3801 106.87C86.4701 110.12 84.5101 113.06 81.4901 114.27C77.8201 115.74 74.3201 117.81 79.5601 119.05C79.5601 119.05 83.5101 120.99 85.5201 119.98C86.4201 119.53 86.1101 118.79 85.4901 118.12C84.8101 117.39 85.1501 116.21 86.1201 115.99L86.9801 115.8C89.1601 115.32 90.6901 113.35 90.6301 111.12L89.0201 45.49L85.7301 45.22L86.3801 106.87Z" fill="#81D4FA" style="fill:#81D4FA;fill:color(display-p3 0.5059 0.8314 0.9804);fill-opacity:1;"/>
<path d="M46.8801 110.49L46.4301 49.36C45.9401 49.14 45.1001 52.03 44.9801 51.88C44.9201 51.81 44.8501 51.72 44.7701 51.61C44.6801 51.5 44.5901 51.38 44.5101 51.32C44.3401 51.15 44.1301 50.94 43.8901 50.7C43.6401 50.45 43.3401 50.18 43.0301 49.91C42.3901 49.37 41.6301 48.87 40.8301 48.52C40.0301 48.19 39.2201 47.99 38.3901 48H38.2601L37.9701 48.01C37.7101 48.01 37.7601 48.03 37.6801 48.04C37.6101 48.03 37.3301 48.1 37.1401 48.13C36.7401 48.23 36.3201 48.35 35.9201 48.52C35.1201 48.87 34.3601 49.37 33.7201 49.91C33.0901 50.45 32.5601 50.98 32.2001 51.38C31.8401 51.79 31.6301 52.02 31.6301 52.02L31.3301 52.36C31.3001 52.39 31.2701 52.41 31.2401 52.44L29.0801 105.21C22.1001 105.37 16.5601 107.9 16.5601 110.97C16.5601 112.81 18.5501 114.46 21.6401 115.51C21.4901 115.91 21.3901 116.32 21.3901 116.74C21.3901 120.93 29.2201 124.33 38.8801 124.33C48.5401 124.33 56.3701 120.91 56.3701 116.72C56.3701 114.15 51.4001 111.86 46.8801 110.49Z" fill="#29B6F6" style="fill:#29B6F6;fill:color(display-p3 0.1608 0.7137 0.9647);fill-opacity:1;"/>
<path d="M35.25 49.1401L33.5 104.4C33.45 106.01 32.1 107.27 30.5 107.2C28.42 107.11 25.57 107.35 23.23 108.8C21.97 109.58 21.45 111.57 22.6 112.68C23.86 113.89 27.16 112.84 28.81 112.67C29.53 112.6 30.48 112.67 30.67 113.37C30.78 113.77 30.54 114.2 30.21 114.44C29.88 114.69 29.47 114.79 29.07 114.91C28.41 115.1 27.75 115.33 27.23 115.78C26.72 116.23 26.39 116.95 26.57 117.61C26.81 118.46 27.75 118.87 28.58 119.16C30.04 119.69 31.53 120.22 33.08 120.29C33.17 119.19 31.46 118.43 31.8 117.38C31.92 117.01 32.27 116.77 32.62 116.6C33.56 116.16 34.63 116.07 35.64 115.83C37.3 115.44 40.3 114.6 39.52 112.32C39.26 111.57 38.73 110.96 38.28 110.3C36.59 107.8 36.26 105.6 36.56 102.6C36.8 100.26 37.4 63.2301 37.8 48.0001C37.9 44.3501 36.71 47.7101 35.52 47.8001C35.42 47.9301 35.35 49.0201 35.25 49.1401Z" fill="#81D4FA" style="fill:#81D4FA;fill:color(display-p3 0.5059 0.8314 0.9804);fill-opacity:1;"/>
<path d="M48.6 54.43L48.4 54.23C48.3 54.13 48 53.83 47.9 53.73C47.7 53.53 47.5 53.43 47.2 53.13C46.9 52.93 46.6 52.63 46.2 52.43C45.8 52.23 45.4 51.93 45 51.73C44.6 51.53 44.1 51.33 43.6 51.13C43.1 50.93 42.6 50.83 42.1 50.73C41.6 50.63 41.1 50.63 40.5 50.63H40.6H40.5H40.3H40C39.7 50.63 39.7 50.63 39.6 50.63C39.4 50.63 39.1 50.73 38.9 50.73C38.4 50.83 37.9 50.93 37.4 51.13C36.9 51.33 36.4 51.43 36 51.73C35.6 51.93 35.2 52.13 34.8 52.43C34.1 52.93 33.5 53.43 33.1 53.73C32.7 54.13 32.5 54.33 32.5 54.33L32.3 54.53C31.1 55.73 29.1 55.73 27.7 54.73C26.7 53.93 26.4 52.53 26.9 51.53L27 51.23C27.1 51.03 27.2 50.73 27.4 50.43C27.8 49.73 28.5 48.73 29.6 47.63C30.1 47.13 30.8 46.53 31.5 46.03C32.2 45.53 33.1 45.03 34 44.63C34.9 44.23 36 43.83 37 43.63C37.5 43.53 38.1 43.43 38.7 43.33C39 43.33 39.4 43.23 39.5 43.23H40.3C41.4 43.23 42.5 43.33 43.6 43.53C44.7 43.73 45.7 44.13 46.6 44.53C47.5 44.93 48.4 45.43 49.1 45.93C49.9 46.43 50.5 46.93 51 47.53C51.5 48.03 52 48.53 52.3 49.03C52.5 49.23 52.6 49.53 52.8 49.73C52.9 49.93 53.1 50.13 53.2 50.33C53.5 50.73 53.5 50.93 53.6 51.13C53.7 51.33 53.7 51.33 53.7 51.33C54.4 52.83 53.6 54.53 51.9 55.13C51 55.63 49.5 55.33 48.6 54.43Z" fill="#5D4037" style="fill:#5D4037;fill:color(display-p3 0.3647 0.2510 0.2157);fill-opacity:1;"/>
<path d="M95.51 54.07C95.51 54.07 95.44 54 95.31 53.87C95.2 53.76 94.95 53.48 94.8 53.37C94.61 53.21 94.38 53.02 94.11 52.8C93.82 52.58 93.49 52.34 93.13 52.09C92.76 51.86 92.36 51.62 91.93 51.41C91.51 51.18 91.03 51.02 90.55 50.84C90.07 50.67 89.56 50.58 89.05 50.47C88.54 50.39 88.01 50.35 87.48 50.35C87.78 50.35 87.56 50.35 87.62 50.35H87.61H87.59H87.55H87.47H87.31L87 50.36C86.74 50.36 86.7 50.38 86.6 50.39C86.44 50.39 86.15 50.44 85.9 50.48C85.39 50.59 84.88 50.68 84.4 50.85C83.93 51.03 83.45 51.19 83.03 51.42C82.6 51.64 82.2 51.87 81.83 52.1C81.11 52.58 80.52 53.06 80.13 53.42C79.73 53.78 79.5 54 79.5 54L79.25 54.25C78.04 55.42 76 55.49 74.68 54.42C73.64 53.57 73.38 52.26 73.9 51.17C73.9 51.17 73.95 51.07 74.05 50.87C74.15 50.68 74.27 50.38 74.49 50.03C74.9 49.32 75.58 48.32 76.66 47.27C77.2 46.75 77.83 46.2 78.58 45.7C79.31 45.18 80.16 44.71 81.1 44.3C82.04 43.9 83.06 43.55 84.14 43.33C84.69 43.23 85.2 43.13 85.87 43.07C86.18 43.04 86.55 43.01 86.71 43L87.48 42.97C88.61 42.99 89.73 43.11 90.82 43.32C91.9 43.54 92.92 43.89 93.86 44.29C94.79 44.7 95.65 45.17 96.38 45.69C97.13 46.19 97.75 46.73 98.29 47.26C98.83 47.78 99.26 48.3 99.62 48.77C99.79 49.01 99.95 49.23 100.1 49.44C100.24 49.67 100.38 49.88 100.49 50.07C100.76 50.49 100.78 50.65 100.88 50.84C100.95 51 100.99 51.09 100.99 51.09C101.66 52.58 100.85 54.27 99.18 54.87C97.87 55.34 96.4 54.98 95.51 54.07Z" fill="#5D4037" style="fill:#5D4037;fill:color(display-p3 0.3647 0.2510 0.2157);fill-opacity:1;"/>
<defs>
<radialGradient id="paint0_radial_169_7198" cx="0" cy="0" r="1" gradientUnits="userSpaceOnUse" gradientTransform="translate(63.6 62.8999) scale(56.9597 56.9597)">
<stop offset="0.5" stop-color="#FDE030" style="stop-color:#FDE030;stop-color:color(display-p3 0.9922 0.8784 0.1882);stop-opacity:1;"/>
<stop offset="0.9188" stop-color="#F7C02B" style="stop-color:#F7C02B;stop-color:color(display-p3 0.9686 0.7529 0.1686);stop-opacity:1;"/>
<stop offset="1" stop-color="#F4A223" style="stop-color:#F4A223;stop-color:color(display-p3 0.9569 0.6353 0.1373);stop-opacity:1;"/>
</radialGradient>
<radialGradient id="paint1_radial_169_7198" cx="0" cy="0" r="1" gradientUnits="userSpaceOnUse" gradientTransform="translate(63.6 62.8999) scale(56.9597 56.9597)">
<stop offset="0.5" stop-color="#FDE030" style="stop-color:#FDE030;stop-color:color(display-p3 0.9922 0.8784 0.1882);stop-opacity:1;"/>
<stop offset="0.9188" stop-color="#F7C02B" style="stop-color:#F7C02B;stop-color:color(display-p3 0.9686 0.7529 0.1686);stop-opacity:1;"/>
<stop offset="1" stop-color="#F4A223" style="stop-color:#F4A223;stop-color:color(display-p3 0.9569 0.6353 0.1373);stop-opacity:1;"/>
</radialGradient>
<radialGradient id="paint2_radial_169_7198" cx="0" cy="0" r="1" gradientUnits="userSpaceOnUse" gradientTransform="translate(38.599 34.5377) rotate(-43.2082) scale(102.024 101.825)">
<stop offset="0.3533" stop-color="#F9DDBD" style="stop-color:#F9DDBD;stop-color:color(display-p3 0.9765 0.8667 0.7412);stop-opacity:1;"/>
<stop offset="0.8723" stop-color="#FFD29C" style="stop-color:#FFD29C;stop-color:color(display-p3 1.0000 0.8235 0.6118);stop-opacity:1;"/>
</radialGradient>
<radialGradient id="paint3_radial_169_7198" cx="0" cy="0" r="1" gradientUnits="userSpaceOnUse" gradientTransform="translate(38.599 34.5377) rotate(-43.2082) scale(102.024 101.825)">
<stop offset="0.3533" stop-color="#E0BB95" style="stop-color:#E0BB95;stop-color:color(display-p3 0.8784 0.7333 0.5843);stop-opacity:1;"/>
<stop offset="0.8723" stop-color="#CCA47A" style="stop-color:#CCA47A;stop-color:color(display-p3 0.8000 0.6431 0.4784);stop-opacity:1;"/>
</radialGradient>
</defs>
</svg>
