<svg width="128" height="128" viewBox="0 0 128 128" fill="none" xmlns="http://www.w3.org/2000/svg">
<path d="M63.6001 118.8C35.7001 118.8 5.6001 101.3 5.6001 62.9C5.6001 24.5 35.7001 7 63.6001 7C79.1001 7 93.4001 12.1 104 21.4C115.5 31.6 121.6 46 121.6 62.9C121.6 79.8 115.5 94.1 104 104.3C93.4001 113.6 79.0001 118.8 63.6001 118.8Z" fill="url(#paint0_radial_169_12211)" style=""/>
<path d="M63.6001 118.8C35.7001 118.8 5.6001 101.3 5.6001 62.9C5.6001 24.5 35.7001 7 63.6001 7C79.1001 7 93.4001 12.1 104 21.4C115.5 31.6 121.6 46 121.6 62.9C121.6 79.8 115.5 94.1 104 104.3C93.4001 113.6 79.0001 118.8 63.6001 118.8Z" fill="url(#paint1_radial_169_12211)" style=""/>
<path d="M63.6001 118.8C35.7001 118.8 5.6001 101.3 5.6001 62.9C5.6001 24.5 35.7001 7 63.6001 7C79.1001 7 93.4001 12.1 104 21.4C115.5 31.6 121.6 46 121.6 62.9C121.6 79.8 115.5 94.1 104 104.3C93.4001 113.6 79.0001 118.8 63.6001 118.8Z" fill="url(#paint2_radial_169_12211)" style=""/>
<path d="M63.6001 118.8C35.7001 118.8 5.6001 101.3 5.6001 62.9C5.6001 24.5 35.7001 7 63.6001 7C79.1001 7 93.4001 12.1 104 21.4C115.5 31.6 121.6 46 121.6 62.9C121.6 79.8 115.5 94.1 104 104.3C93.4001 113.6 79.0001 118.8 63.6001 118.8Z" fill="url(#paint3_radial_169_12211)" style=""/>
<path d="M63.6001 118.8C35.7001 118.8 5.6001 101.3 5.6001 62.9C5.6001 24.5 35.7001 7 63.6001 7C79.1001 7 93.4001 12.1 104 21.4C115.5 31.6 121.6 46 121.6 62.9C121.6 79.8 115.5 94.1 104 104.3C93.4001 113.6 79.0001 118.8 63.6001 118.8Z" fill="url(#paint4_radial_169_12211)" style=""/>
<path d="M111.49 29.67C116.82 38.27 119.6 48.51 119.6 59.9C119.6 76.8 113.5 91.1 102 101.3C91.3999 110.6 76.9999 115.8 61.5999 115.8C43.5399 115.8 24.5999 108.45 13.4199 92.86C24.1799 110.52 44.4199 118.8 63.5999 118.8C78.9999 118.8 93.3999 113.6 104 104.3C115.5 94.1 121.6 79.8 121.6 62.9C121.6 50.16 118.13 38.84 111.49 29.67Z" fill="#EB8F00" style="fill:#EB8F00;fill:color(display-p3 0.9216 0.5608 0.0000);fill-opacity:1;"/>
<path d="M111.49 29.67C116.82 38.27 119.6 48.51 119.6 59.9C119.6 76.8 113.5 91.1 102 101.3C91.3999 110.6 76.9999 115.8 61.5999 115.8C43.5399 115.8 24.5999 108.45 13.4199 92.86C24.1799 110.52 44.4199 118.8 63.5999 118.8C78.9999 118.8 93.3999 113.6 104 104.3C115.5 94.1 121.6 79.8 121.6 62.9C121.6 50.16 118.13 38.84 111.49 29.67Z" fill="#F3B872" style="fill:#F3B872;fill:color(display-p3 0.9542 0.7229 0.4453);fill-opacity:1;"/>
<path d="M111.49 29.67C116.82 38.27 119.6 48.51 119.6 59.9C119.6 76.8 113.5 91.1 102 101.3C91.3999 110.6 76.9999 115.8 61.5999 115.8C43.5399 115.8 24.5999 108.45 13.4199 92.86C24.1799 110.52 44.4199 118.8 63.5999 118.8C78.9999 118.8 93.3999 113.6 104 104.3C115.5 94.1 121.6 79.8 121.6 62.9C121.6 50.16 118.13 38.84 111.49 29.67Z" fill="#91674D" style="fill:#91674D;fill:color(display-p3 0.5686 0.4039 0.3020);fill-opacity:1;"/>
<path d="M64 97.31C50.75 97.31 41.29 89.5 38.45 85.17C37.38 83.78 37.15 81.91 37.87 80.31C38.42 79.29 39.49 78.66 40.65 78.69C41.07 78.69 41.5 78.76 41.9 78.89C48.58 81 54.42 84 64 84C73.58 84 79.44 81 86.1 78.87C86.5 78.74 86.93 78.67 87.35 78.67C88.51 78.64 89.58 79.27 90.13 80.29C90.85 81.89 90.62 83.76 89.55 85.15C86.71 89.5 77.25 97.31 64 97.31Z" fill="#49362E" style="fill:#49362E;fill:color(display-p3 0.2863 0.2118 0.1804);fill-opacity:1;"/>
<path d="M64 97.31C50.75 97.31 41.29 89.5 38.45 85.17C37.38 83.78 37.15 81.91 37.87 80.31C38.42 79.29 39.49 78.66 40.65 78.69C41.07 78.69 41.5 78.76 41.9 78.89C48.58 81 54.42 84 64 84C73.58 84 79.44 81 86.1 78.87C86.5 78.74 86.93 78.67 87.35 78.67C88.51 78.64 89.58 79.27 90.13 80.29C90.85 81.89 90.62 83.76 89.55 85.15C86.71 89.5 77.25 97.31 64 97.31Z" fill="#1A1717" style="fill:#1A1717;fill:color(display-p3 0.1020 0.0902 0.0902);fill-opacity:1;"/>
<path d="M64 97.31C50.75 97.31 41.29 89.5 38.45 85.17C37.38 83.78 37.15 81.91 37.87 80.31C38.42 79.29 39.49 78.66 40.65 78.69C41.07 78.69 41.5 78.76 41.9 78.89C48.58 81 54.42 84 64 84C73.58 84 79.44 81 86.1 78.87C86.5 78.74 86.93 78.67 87.35 78.67C88.51 78.64 89.58 79.27 90.13 80.29C90.85 81.89 90.62 83.76 89.55 85.15C86.71 89.5 77.25 97.31 64 97.31Z" fill="#5D4037" style="fill:#5D4037;fill:color(display-p3 0.3647 0.2510 0.2157);fill-opacity:1;"/>
<path d="M82.3402 110.1C81.3402 105.46 79.7602 101.04 80.1402 98.1C80.8802 92.4 84.3102 90.43 84.3102 90.43C82.5402 90 80.6802 90.21 79.0502 91.03C75.7702 92.53 77.1902 93.29 72.1402 94.33C67.8902 95.21 65.4402 93.02 60.5902 93.86C56.2602 94.62 55.1802 96.08 55.1802 96.08C57.5602 96.83 60.0202 97.34 62.5002 97.61C70.5002 98.56 69.5002 105.61 68.9302 108.61C67.7902 114.42 66.2502 124.54 75.8002 124.17C82.7302 123.93 83.7102 116.72 82.3402 110.1Z" fill="url(#paint5_linear_169_12211)" style=""/>
<path d="M29.9101 58.48C28.5501 57.19 28.4901 55.04 29.7801 53.67C29.9701 53.47 30.1801 53.29 30.4101 53.15C33.3401 51 36.6101 49.37 40.0901 48.34C43.6101 47.46 47.2501 47.19 50.8601 47.55C52.7401 47.63 54.2101 49.21 54.1301 51.09C54.1201 51.36 54.0801 51.63 54.0001 51.9C53.4301 53.63 51.7401 54.74 49.9301 54.57C47.2501 54.28 44.5501 54.46 41.9301 55.09C39.3601 55.88 36.9301 57.11 34.7701 58.71C33.3001 59.78 31.2801 59.69 29.9101 58.48Z" fill="#49362E" style="fill:#49362E;fill:color(display-p3 0.2863 0.2118 0.1804);fill-opacity:1;"/>
<path d="M29.9101 58.48C28.5501 57.19 28.4901 55.04 29.7801 53.67C29.9701 53.47 30.1801 53.29 30.4101 53.15C33.3401 51 36.6101 49.37 40.0901 48.34C43.6101 47.46 47.2501 47.19 50.8601 47.55C52.7401 47.63 54.2101 49.21 54.1301 51.09C54.1201 51.36 54.0801 51.63 54.0001 51.9C53.4301 53.63 51.7401 54.74 49.9301 54.57C47.2501 54.28 44.5501 54.46 41.9301 55.09C39.3601 55.88 36.9301 57.11 34.7701 58.71C33.3001 59.78 31.2801 59.69 29.9101 58.48Z" fill="#1A1717" style="fill:#1A1717;fill:color(display-p3 0.1020 0.0902 0.0902);fill-opacity:1;"/>
<path d="M29.9101 58.48C28.5501 57.19 28.4901 55.04 29.7801 53.67C29.9701 53.47 30.1801 53.29 30.4101 53.15C33.3401 51 36.6101 49.37 40.0901 48.34C43.6101 47.46 47.2501 47.19 50.8601 47.55C52.7401 47.63 54.2101 49.21 54.1301 51.09C54.1201 51.36 54.0801 51.63 54.0001 51.9C53.4301 53.63 51.7401 54.74 49.9301 54.57C47.2501 54.28 44.5501 54.46 41.9301 55.09C39.3601 55.88 36.9301 57.11 34.7701 58.71C33.3001 59.78 31.2801 59.69 29.9101 58.48Z" fill="#49362E" style="fill:#49362E;fill:color(display-p3 0.2863 0.2118 0.1804);fill-opacity:1;"/>
<path d="M98.0903 58.48C99.4503 57.19 99.5103 55.04 98.2203 53.67C98.0303 53.47 97.8203 53.29 97.5903 53.15C94.6603 51 91.3903 49.37 87.9103 48.34C84.3903 47.46 80.7503 47.19 77.1403 47.55C75.2603 47.63 73.7903 49.21 73.8703 51.09C73.8803 51.36 73.9203 51.63 74.0003 51.9C74.5703 53.63 76.2603 54.74 78.0703 54.57C80.7503 54.28 83.4503 54.46 86.0703 55.09C88.6403 55.88 91.0703 57.11 93.2303 58.71C94.7003 59.78 96.7203 59.69 98.0903 58.48Z" fill="#49362E" style="fill:#49362E;fill:color(display-p3 0.2863 0.2118 0.1804);fill-opacity:1;"/>
<path d="M98.0903 58.48C99.4503 57.19 99.5103 55.04 98.2203 53.67C98.0303 53.47 97.8203 53.29 97.5903 53.15C94.6603 51 91.3903 49.37 87.9103 48.34C84.3903 47.46 80.7503 47.19 77.1403 47.55C75.2603 47.63 73.7903 49.21 73.8703 51.09C73.8803 51.36 73.9203 51.63 74.0003 51.9C74.5703 53.63 76.2603 54.74 78.0703 54.57C80.7503 54.28 83.4503 54.46 86.0703 55.09C88.6403 55.88 91.0703 57.11 93.2303 58.71C94.7003 59.78 96.7203 59.69 98.0903 58.48Z" fill="#1A1717" style="fill:#1A1717;fill:color(display-p3 0.1020 0.0902 0.0902);fill-opacity:1;"/>
<path d="M98.0903 58.48C99.4503 57.19 99.5103 55.04 98.2203 53.67C98.0303 53.47 97.8203 53.29 97.5903 53.15C94.6603 51 91.3903 49.37 87.9103 48.34C84.3903 47.46 80.7503 47.19 77.1403 47.55C75.2603 47.63 73.7903 49.21 73.8703 51.09C73.8803 51.36 73.9203 51.63 74.0003 51.9C74.5703 53.63 76.2603 54.74 78.0703 54.57C80.7503 54.28 83.4503 54.46 86.0703 55.09C88.6403 55.88 91.0703 57.11 93.2303 58.71C94.7003 59.78 96.7203 59.69 98.0903 58.48Z" fill="#49362E" style="fill:#49362E;fill:color(display-p3 0.2863 0.2118 0.1804);fill-opacity:1;"/>
<path d="M79.8801 118.61C78.8101 120.27 76.3901 119.95 76.3901 117.21C76.3901 115.45 76.7501 106.44 78.2501 107.7C80.7101 109.75 81.4101 116.28 79.8801 118.61Z" fill="#81D4FA" style="fill:#81D4FA;fill:color(display-p3 0.5059 0.8314 0.9804);fill-opacity:1;"/>
<path d="M30.3199 40.57C28.9799 42.36 26.0699 41.03 27.0499 38.84C29.3299 34.06 33.3699 30.34 38.3199 28.46C40.1299 27.7 42.0499 27.26 43.9999 27.14C44.9999 26.99 45.9299 27.68 46.0799 28.67C46.2299 29.66 45.5399 30.6 44.5499 30.75H44.4199C38.7399 32.34 33.7699 35.8 30.3199 40.57Z" fill="#49362E" style="fill:#49362E;fill:color(display-p3 0.2863 0.2118 0.1804);fill-opacity:1;"/>
<path d="M30.3199 40.57C28.9799 42.36 26.0699 41.03 27.0499 38.84C29.3299 34.06 33.3699 30.34 38.3199 28.46C40.1299 27.7 42.0499 27.26 43.9999 27.14C44.9999 26.99 45.9299 27.68 46.0799 28.67C46.2299 29.66 45.5399 30.6 44.5499 30.75H44.4199C38.7399 32.34 33.7699 35.8 30.3199 40.57Z" fill="#1A1717" style="fill:#1A1717;fill:color(display-p3 0.1020 0.0902 0.0902);fill-opacity:1;"/>
<path d="M30.3199 40.57C28.9799 42.36 26.0699 41.03 27.0499 38.84C29.3299 34.06 33.3699 30.34 38.3199 28.46C40.1299 27.7 42.0499 27.26 43.9999 27.14C44.9999 26.99 45.9299 27.68 46.0799 28.67C46.2299 29.66 45.5399 30.6 44.5499 30.75H44.4199C38.7399 32.34 33.7699 35.8 30.3199 40.57Z" fill="#613E31" style="fill:#613E31;fill:color(display-p3 0.3804 0.2431 0.1922);fill-opacity:1;"/>
<path d="M97.1501 33.44C98.5901 35.15 101.42 33.66 100.32 31.53C97.7701 26.89 93.5301 23.4 88.4801 21.8C86.6401 21.15 84.7001 20.81 82.7401 20.8C81.7201 20.79 80.9001 21.61 80.8901 22.63C80.8901 23.52 81.5201 24.29 82.4001 24.45H82.5301C88.2801 25.71 93.4301 28.87 97.1501 33.44Z" fill="#49362E" style="fill:#49362E;fill:color(display-p3 0.2863 0.2118 0.1804);fill-opacity:1;"/>
<path d="M97.1501 33.44C98.5901 35.15 101.42 33.66 100.32 31.53C97.7701 26.89 93.5301 23.4 88.4801 21.8C86.6401 21.15 84.7001 20.81 82.7401 20.8C81.7201 20.79 80.9001 21.61 80.8901 22.63C80.8901 23.52 81.5201 24.29 82.4001 24.45H82.5301C88.2801 25.71 93.4301 28.87 97.1501 33.44Z" fill="#1A1717" style="fill:#1A1717;fill:color(display-p3 0.1020 0.0902 0.0902);fill-opacity:1;"/>
<path d="M97.1501 33.44C98.5901 35.15 101.42 33.66 100.32 31.53C97.7701 26.89 93.5301 23.4 88.4801 21.8C86.6401 21.15 84.7001 20.81 82.7401 20.8C81.7201 20.79 80.9001 21.61 80.8901 22.63C80.8901 23.52 81.5201 24.29 82.4001 24.45H82.5301C88.2801 25.71 93.4301 28.87 97.1501 33.44Z" fill="#613E31" style="fill:#613E31;fill:color(display-p3 0.3804 0.2431 0.1922);fill-opacity:1;"/>
<defs>
<radialGradient id="paint0_radial_169_12211" cx="0" cy="0" r="1" gradientUnits="userSpaceOnUse" gradientTransform="translate(63.6001 62.8999) scale(56.9597 56.9597)">
<stop offset="0.5" stop-color="#FDE030" style="stop-color:#FDE030;stop-color:color(display-p3 0.9922 0.8784 0.1882);stop-opacity:1;"/>
<stop offset="0.92" stop-color="#F7C02B" style="stop-color:#F7C02B;stop-color:color(display-p3 0.9686 0.7529 0.1686);stop-opacity:1;"/>
<stop offset="1" stop-color="#F4A223" style="stop-color:#F4A223;stop-color:color(display-p3 0.9569 0.6353 0.1373);stop-opacity:1;"/>
</radialGradient>
<radialGradient id="paint1_radial_169_12211" cx="0" cy="0" r="1" gradientUnits="userSpaceOnUse" gradientTransform="translate(38.5991 34.5377) rotate(-43.2082) scale(102.024 101.825)">
<stop offset="0.3533" stop-color="#F9DDBD" style="stop-color:#F9DDBD;stop-color:color(display-p3 0.9765 0.8667 0.7412);stop-opacity:1;"/>
<stop offset="0.8723" stop-color="#FFD29C" style="stop-color:#FFD29C;stop-color:color(display-p3 1.0000 0.8235 0.6118);stop-opacity:1;"/>
</radialGradient>
<radialGradient id="paint2_radial_169_12211" cx="0" cy="0" r="1" gradientUnits="userSpaceOnUse" gradientTransform="translate(38.5991 34.5377) rotate(-43.2082) scale(102.024 101.825)">
<stop offset="0.3533" stop-color="#70534A" style="stop-color:#70534A;stop-color:color(display-p3 0.4392 0.3255 0.2902);stop-opacity:1;"/>
<stop offset="0.8723" stop-color="#5C4037" style="stop-color:#5C4037;stop-color:color(display-p3 0.3608 0.2510 0.2157);stop-opacity:1;"/>
</radialGradient>
<radialGradient id="paint3_radial_169_12211" cx="0" cy="0" r="1" gradientUnits="userSpaceOnUse" gradientTransform="translate(38.5991 34.5377) rotate(-43.2082) scale(102.024 101.825)">
<stop offset="0.3533" stop-color="#A37A58" style="stop-color:#A37A58;stop-color:color(display-p3 0.6375 0.4772 0.3453);stop-opacity:1;"/>
<stop offset="0.8723" stop-color="#8D5738" style="stop-color:#8D5738;stop-color:color(display-p3 0.5529 0.3412 0.2196);stop-opacity:1;"/>
</radialGradient>
<radialGradient id="paint4_radial_169_12211" cx="0" cy="0" r="1" gradientUnits="userSpaceOnUse" gradientTransform="translate(38.5991 34.5377) rotate(-43.2082) scale(102.024 101.825)">
<stop offset="0.3533" stop-color="#AD8264" style="stop-color:#AD8264;stop-color:color(display-p3 0.6784 0.5098 0.3922);stop-opacity:1;"/>
<stop offset="0.8723" stop-color="#A47B62" style="stop-color:#A47B62;stop-color:color(display-p3 0.6431 0.4824 0.3843);stop-opacity:1;"/>
</radialGradient>
<linearGradient id="paint5_linear_169_12211" x1="69.7452" y1="124.18" x2="69.7452" y2="90.2141" gradientUnits="userSpaceOnUse">
<stop offset="0.46" stop-color="#29B6F6" style="stop-color:#29B6F6;stop-color:color(display-p3 0.1608 0.7137 0.9647);stop-opacity:1;"/>
<stop offset="1" stop-color="#1E88E5" style="stop-color:#1E88E5;stop-color:color(display-p3 0.1176 0.5333 0.8980);stop-opacity:1;"/>
</linearGradient>
</defs>
</svg>
