<svg width="128" height="128" viewBox="0 0 128 128" fill="none" xmlns="http://www.w3.org/2000/svg">
<g clip-path="url(#clip0_2017_223)">
<path d="M31.6473 54.7718C30.8619 54.6199 30.0564 54.4133 29.2801 54.1614C21.7886 51.7662 16.7489 47.9096 15.4775 43.5797C14.8518 41.4421 15.2443 39.3587 16.5987 37.7261C17.6125 36.4859 20.8672 36.0354 24.1661 36.6731C25.6094 36.952 26.9146 37.4182 27.8421 37.9947C28.6416 38.4955 29.6324 39.1658 30.773 39.9566C34.4686 42.4941 39.5314 45.968 43.8644 46.999C45.0331 47.2759 46.237 47.5289 47.4643 47.7662C49.0745 48.0774 50.4763 48.3076 51.5559 48.4654C48.3867 51.2139 40.8569 56.5519 31.6473 54.7718Z" fill="#263238" style="fill:#263238;fill:color(display-p3 0.1490 0.1961 0.2196);fill-opacity:1;"/>
<path d="M7.11646 62.6494L5.48778 74.6586C5.4315 75.0551 5.55765 75.4563 5.838 75.7448C7.28317 77.226 12.431 81.7349 23.3967 83.6507C24.1055 83.7775 24.779 83.2966 24.9138 82.5995L26.3257 75.2947L7.11646 62.6494Z" fill="#4E342E" style="fill:#4E342E;fill:color(display-p3 0.3059 0.2039 0.1804);fill-opacity:1;"/>
<path d="M23.5969 83.6691C24.149 83.8165 25.4369 83.4238 26.7271 83.0723C28.8786 82.4798 31.198 81.7568 31.198 81.7568C31.198 81.7568 24.6528 78.6278 24.6877 78.8688C24.7226 79.1098 23.5969 83.6691 23.5969 83.6691Z" fill="#263238" style="fill:#263238;fill:color(display-p3 0.1490 0.1961 0.2196);fill-opacity:1;"/>
<path d="M117.188 92.5214C114.709 89.2211 108.68 86.1613 97.3866 80.2506C86.0931 74.3399 76.7895 61.3482 73.4633 55.2664C70.137 49.1847 67.8361 41.2233 59.937 41.6215C54.467 41.8882 53.5364 46.5972 53.5364 46.5972C53.5364 46.5972 51.9199 46.5292 49.4795 47.0353C48.9082 46.935 45.3559 46.2382 44.0988 45.9443C38.6737 44.6614 31.8705 39.2316 28.4049 37.0849C27.3219 36.4173 25.8909 35.9166 24.3593 35.6205C20.9916 34.9696 17.4173 34.8083 15.5806 37.0913C13.744 39.3742 11.7514 42.4112 9.81418 47.6386C5.42665 59.4302 7.34767 64.1404 7.34767 64.1404C7.34767 64.1404 15.6536 72.0708 22.4431 74.7785C29.2228 77.4843 38.0019 82.7562 41.5566 86.8655C45.1114 90.9748 53.0801 100.439 74.8109 105.414C96.5418 110.388 115.015 106.503 117.466 105.887C119.906 105.279 120.646 97.1315 117.188 92.5214ZM17.4308 38.4267C18.8797 37.1484 20.6178 37.2195 23.9456 37.7609C26.1778 38.1211 29.034 40.0482 30.1395 40.8628C38.3806 46.9677 45.0913 48.3972 45.0913 48.3972C45.0913 48.3972 43.3626 49.1733 42.4696 49.6831C38.4386 51.99 32.7571 53.8251 24.0525 50.0648C19.5507 48.115 14.6422 40.8923 17.4308 38.4267Z" fill="#A06841" style="fill:#A06841;fill:color(display-p3 0.6275 0.4078 0.2549);fill-opacity:1;"/>
<path d="M118.903 104.566C118.288 105.588 117.787 105.806 117.454 105.895C115.12 106.483 98.3123 110.027 77.9885 106.099C76.9379 105.896 75.8715 105.669 74.7991 105.421C53.0682 100.447 45.1112 90.9746 41.5448 86.8732C37.99 82.7639 29.211 77.4921 22.4313 74.7863C21.5523 74.433 20.6395 73.9918 19.7282 73.4897L18.7447 76.6811C19.5771 77.1169 20.3975 77.5098 21.2096 77.8399C28.0935 80.5862 36.0962 85.6062 39.0601 89.0309L39.2024 89.1908C42.8994 93.46 51.5659 103.477 74.0569 108.629C75.1391 108.879 76.2546 109.115 77.3543 109.327C99.6418 113.635 117.484 109.272 118.232 109.091C118.543 109.008 119.508 108.339 119.625 107.679C119.914 106.238 119.052 104.32 118.903 104.566Z" fill="#4E342E" style="fill:#4E342E;fill:color(display-p3 0.3059 0.2039 0.1804);fill-opacity:1;"/>
<path d="M56.8232 83.0231C56.2465 83.319 55.5434 83.1627 55.142 82.6574C54.9364 82.4038 54.7229 82.1384 54.5569 81.9434C52.7727 79.8976 47.8154 74.8246 41.6327 73.4564C33.4093 71.6326 32.01 72.3909 29.9174 72.9947C27.815 73.5966 26.8675 74.1774 27.4523 73.3126C28.0389 72.4381 30.0749 70.9678 32.846 70.6478C35.0135 70.3946 38.0712 70.4356 42.1053 71.3274C48.4727 72.7415 53.473 77.4867 55.7247 79.9589C56.1533 80.4288 56.8463 80.5322 57.3954 80.2208C60.6506 78.3444 67.4394 73.9428 68.3883 69.3494C69.3256 64.7639 63.6694 55.0337 60.1812 50.0002C58.9064 48.1649 56.0839 46.9064 53.5363 46.5973L53.8414 45.8619C56.415 45.0353 60.3225 46.3711 61.9795 48.759C63.6364 51.1468 71.8408 63.3964 70.5328 69.7945C69.3311 75.6427 61.0113 80.7465 57.8416 82.4968C57.5582 82.6457 57.175 82.8365 56.8232 83.0231Z" fill="#4E342E" style="fill:#4E342E;fill:color(display-p3 0.3059 0.2039 0.1804);fill-opacity:1;"/>
<path d="M58.2409 54.137C61.92 51.3852 66.2443 49.247 70.8262 49.6234" stroke="#263238" style="stroke:#263238;stroke:color(display-p3 0.1490 0.1961 0.2196);stroke-opacity:1;" stroke-width="2.1873" stroke-miterlimit="10" stroke-linecap="round"/>
<path d="M60.5865 58.9699C64.4306 56.2602 68.7826 54.1375 73.479 54.3425" stroke="#263238" style="stroke:#263238;stroke:color(display-p3 0.1490 0.1961 0.2196);stroke-opacity:1;" stroke-width="2.1873" stroke-miterlimit="10" stroke-linecap="round"/>
<path d="M63.4474 63.7704C66.0432 61.8277 72.6434 58.2961 76.9929 59.1368" stroke="#263238" style="stroke:#263238;stroke:color(display-p3 0.1490 0.1961 0.2196);stroke-opacity:1;" stroke-width="2.1873" stroke-miterlimit="10" stroke-linecap="round"/>
<path d="M66.0641 68.9916C70.6747 66.2161 74.7581 64.4286 80.1243 64.1723" stroke="#263238" style="stroke:#263238;stroke:color(display-p3 0.1490 0.1961 0.2196);stroke-opacity:1;" stroke-width="2.1873" stroke-miterlimit="10" stroke-linecap="round"/>
<path d="M49.4796 47.0354L45.0895 48.4071C45.0895 48.4071 42.0838 47.9382 39.5093 46.5035C37.2104 45.224 43.6935 46.0392 45.8038 46.3452C47.9239 46.6532 49.4796 47.0354 49.4796 47.0354Z" fill="#784D30" style="fill:#784D30;fill:color(display-p3 0.4706 0.3020 0.1882);fill-opacity:1;"/>
<path opacity="0.7" d="M23.5293 49.8208C24.1257 50.1602 24.8869 50.4907 24.7426 51.2368C24.6572 51.6787 23.702 51.6672 23.2583 51.5916C21.0692 51.2194 19.0182 50.0794 17.5347 48.4279C16.0531 46.7665 15.4323 45.3938 15.0182 43.2156C14.8111 42.1265 15.0583 41.5326 15.4044 41.3754C16.5482 40.8326 17.0339 42.8515 17.4265 43.5079C19.7377 47.3056 21.1455 48.4536 23.5293 49.8208Z" fill="#F29657" style="fill:#F29657;fill:color(display-p3 0.9490 0.5882 0.3412);fill-opacity:1;"/>
<path opacity="0.7" d="M36.9955 68.1496C37.9174 68.175 40.2816 68.3264 40.2997 69.603C40.3155 70.8385 38.8668 70.64 38.6334 70.6356C35.9851 70.5311 34.5187 70.319 31.9754 70.6727C30.8233 70.837 30.1592 71.2689 29.1133 71.7797C28.4369 72.1174 27.6317 72.8581 27.0216 73.4327C27.0012 71.7992 28.7142 70.4192 29.7304 69.8517C31.8995 68.6414 34.5318 68.0909 36.9955 68.1496Z" fill="#F29657" style="fill:#F29657;fill:color(display-p3 0.9490 0.5882 0.3412);fill-opacity:1;"/>
<path opacity="0.7" d="M93.6341 101.087C101.208 100.789 100.853 98.9889 100.72 97.9954C100.455 95.8869 92.9998 97.6236 86.0563 97.188C79.7858 96.8009 75.0574 95.286 74.2499 95.6698C72.5801 96.4572 82.1895 101.543 93.6341 101.087Z" fill="#F29657" style="fill:#F29657;fill:color(display-p3 0.9490 0.5882 0.3412);fill-opacity:1;"/>
</g>
<defs>
<clipPath id="clip0_2017_223">
<rect width="128" height="128" fill="white" style="fill:white;fill-opacity:1;"/>
</clipPath>
</defs>
</svg>
