<svg width="128" height="128" viewBox="0 0 128 128" fill="none" xmlns="http://www.w3.org/2000/svg">
<path d="M63.6 118.8C35.7 118.8 5.59998 101.3 5.59998 62.9C5.59998 24.5 35.7 7 63.6 7C79.1 7 93.4 12.1 104 21.4C115.5 31.6 121.6 46 121.6 62.9C121.6 79.8 115.5 94.1 104 104.3C93.4 113.6 79 118.8 63.6 118.8Z" fill="url(#paint0_radial_169_5333)" style=""/>
<path d="M63.6 118.8C35.7 118.8 5.59998 101.3 5.59998 62.9C5.59998 24.5 35.7 7 63.6 7C79.1 7 93.4 12.1 104 21.4C115.5 31.6 121.6 46 121.6 62.9C121.6 79.8 115.5 94.1 104 104.3C93.4 113.6 79 118.8 63.6 118.8Z" fill="url(#paint1_radial_169_5333)" style=""/>
<path d="M111.49 29.67C116.82 38.27 119.6 48.51 119.6 59.9C119.6 76.8 113.5 91.1 102 101.3C91.3999 110.6 76.9999 115.8 61.5999 115.8C43.5399 115.8 24.5999 108.45 13.4199 92.86C24.1799 110.52 44.4199 118.8 63.5999 118.8C78.9999 118.8 93.3999 113.6 104 104.3C115.5 94.1001 121.6 79.8 121.6 62.9C121.6 50.16 118.13 38.84 111.49 29.67Z" fill="#EB8F00" style="fill:#EB8F00;fill:color(display-p3 0.9216 0.5608 0.0000);fill-opacity:1;"/>
<path d="M111.49 29.67C116.82 38.27 119.6 48.51 119.6 59.9C119.6 76.8 113.5 91.1 102 101.3C91.3999 110.6 76.9999 115.8 61.5999 115.8C43.5399 115.8 24.5999 108.45 13.4199 92.86C24.1799 110.52 44.4199 118.8 63.5999 118.8C78.9999 118.8 93.3999 113.6 104 104.3C115.5 94.1001 121.6 79.8 121.6 62.9C121.6 50.16 118.13 38.84 111.49 29.67Z" fill="#F3B872" style="fill:#F3B872;fill:color(display-p3 0.9542 0.7229 0.4453);fill-opacity:1;"/>
<path d="M49.61 54.7L49.41 54.9C49.26 55.08 49.08 55.25 48.9 55.4L48.21 55.97C47.92 56.19 47.59 56.43 47.21 56.67C46.82 56.92 46.42 57.15 46.01 57.36C45.1 57.82 44.13 58.13 43.13 58.3C42.61 58.39 42.09 58.43 41.56 58.43H41.09C40.96 58.44 40.82 58.44 40.69 58.43C40.53 58.43 40.24 58.37 39.98 58.34C39.48 58.25 38.98 58.12 38.49 57.97C38.02 57.81 37.56 57.62 37.11 57.4C36.7 57.19 36.3 56.96 35.91 56.71C35.31 56.32 34.74 55.88 34.21 55.39L33.58 54.81L33.33 54.57C32.05 53.4 30.12 53.33 28.76 54.4C27.79 55.16 27.48 56.49 28 57.61L28.14 57.91C28.27 58.2 28.42 58.48 28.59 58.75C29.18 59.77 29.91 60.69 30.75 61.51C31.34 62.09 31.98 62.61 32.67 63.07C33.46 63.62 34.3 64.09 35.19 64.47C36.15 64.9 37.16 65.24 38.19 65.47C38.74 65.57 39.25 65.67 39.92 65.73C40.23 65.73 40.6 65.79 40.76 65.79H41.53C42.65 65.77 43.77 65.66 44.87 65.44C45.9 65.21 46.91 64.87 47.87 64.44C48.75 64.06 49.6 63.59 50.39 63.04C51.07 62.58 51.71 62.06 52.3 61.48C52.82 61.02 53.3 60.53 53.74 60L54.21 59.34L54.61 58.7C54.76 58.46 54.89 58.2 55 57.94C55.07 57.77 55.11 57.69 55.11 57.69C55.71 56.26 55.03 54.61 53.6 54.01C53.5 53.97 53.4 53.93 53.3 53.91C52.02 53.44 50.59 53.75 49.61 54.7Z" fill="#312D2D" style="fill:#312D2D;fill:color(display-p3 0.1922 0.1765 0.1765);fill-opacity:1;"/>
<path d="M94.51 54.6999L94.31 54.9C94.16 55.08 93.98 55.25 93.8 55.4L93.11 55.97C92.82 56.19 92.49 56.4299 92.11 56.6699C91.72 56.9199 91.32 57.1499 90.91 57.3599C90.47 57.5799 90.01 57.7699 89.54 57.9299C89.05 58.0799 88.55 58.2099 88.04 58.2999C87.52 58.3899 87 58.4299 86.47 58.4299H86C85.86 58.4399 85.73 58.4399 85.59 58.4299C85.44 58.4299 85.15 58.3699 84.89 58.3399C84.38 58.2499 83.88 58.12 83.39 57.97C82.91 57.8 82.45 57.5899 82 57.3599C81.59 57.1499 81.19 56.9199 80.8 56.6699C80.2 56.2799 79.63 55.8399 79.1 55.3499L78.47 54.7699L78.22 54.5299C76.94 53.3599 75.01 53.2899 73.65 54.3599C72.66 55.1199 72.33 56.4799 72.87 57.61C72.87 57.61 72.87 57.7199 73.02 57.9099C73.15 58.1999 73.3 58.4799 73.46 58.7499C74.49 60.4799 75.88 61.9499 77.55 63.0699C78.34 63.6199 79.18 64.09 80.06 64.47C81.04 64.91 82.06 65.24 83.11 65.47C83.66 65.57 84.17 65.67 84.84 65.73C85.15 65.73 85.51 65.79 85.67 65.79H86.45C87.57 65.7699 88.68 65.66 89.78 65.44C90.83 65.21 91.85 64.88 92.83 64.44C93.71 64.06 94.55 63.59 95.34 63.04C96.03 62.58 96.67 62.0599 97.26 61.4799C97.75 61.0199 98.21 60.5299 98.63 59.9999L99.11 59.3399L99.51 58.7C99.66 58.46 99.79 58.1999 99.9 57.9399C99.97 57.7699 100.01 57.6899 100.01 57.6899C100.61 56.2599 99.93 54.6099 98.5 54.0099C98.4 53.9699 98.3 53.9299 98.2 53.9099C96.92 53.4399 95.49 53.7499 94.51 54.6999Z" fill="#312D2D" style="fill:#312D2D;fill:color(display-p3 0.1922 0.1765 0.1765);fill-opacity:1;"/>
<path d="M111.38 103.88C132.67 99.17 126.19 62.78 89.67 67.58C83.33 68.42 76.67 72.5799 71.92 76.7699C70.76 77.7699 71.27 79.77 72.82 79.66C88.05 78.62 87.6 109.13 111.38 103.88Z" fill="#4FC3F7" style="fill:#4FC3F7;fill:color(display-p3 0.3098 0.7647 0.9686);fill-opacity:1;"/>
<path d="M112.65 74.51C113.26 75.03 113.72 75.69 114 76.43C114.28 77.18 114.16 78.01 113.69 78.66C112.98 79.55 111.69 79.66 110.52 79.5C107.39 79.19 104.38 78.18 101.69 76.56C100.16 75.64 98.3599 74.06 98.7799 72.03C99.0699 70.68 100.39 70.36 101.61 70.34C105.67 70.34 109.6 71.82 112.65 74.51Z" fill="#B3E5FC" style="fill:#B3E5FC;fill:color(display-p3 0.7020 0.8980 0.9882);fill-opacity:1;"/>
<path d="M35.64 38.27H35.77C37.91 37.77 37.83 34.55 35.39 34.63C33.42 34.73 31.48 35.13 29.63 35.81C24.65 37.61 20.54 41.26 18.17 46C17.74 46.92 18.14 48.02 19.06 48.44C19.88 48.82 20.85 48.55 21.36 47.81C24.9 43.1 29.94 39.74 35.64 38.27Z" fill="#312D2D" style="fill:#312D2D;fill:color(display-p3 0.1922 0.1765 0.1765);fill-opacity:1;"/>
<path d="M91.49 38.27H91.36C90.36 38.15 89.64 37.25 89.75 36.24C89.86 35.25 90.75 34.54 91.74 34.63C93.71 34.73 95.64 35.13 97.49 35.81C102.49 37.61 106.61 41.25 109 46C109.43 46.92 109.03 48.02 108.11 48.44C107.29 48.82 106.32 48.55 105.81 47.81C102.26 43.1 97.21 39.73 91.49 38.27Z" fill="#312D2D" style="fill:#312D2D;fill:color(display-p3 0.1922 0.1765 0.1765);fill-opacity:1;"/>
<path d="M55.7 99.3C51.87 99.23 48.82 96.06 48.89 92.23C48.91 90.94 49.3 89.68 50 88.6C53.1 83.8 58 81.3 64 81.3C70 81.3 74.9 83.8 78 88.6C79.39 90.7 79.5 93.39 78.3 95.6C77.11 97.82 74.82 99.24 72.3 99.3C71.51 99.32 70.73 99.19 70 98.9C68.07 98.23 66.04 97.89 64 97.9C61.96 97.88 59.93 98.22 58 98.9C57.26 99.17 56.48 99.31 55.7 99.3Z" fill="#312D2D" style="fill:#312D2D;fill:color(display-p3 0.1922 0.1765 0.1765);fill-opacity:1;"/>
<defs>
<radialGradient id="paint0_radial_169_5333" cx="0" cy="0" r="1" gradientUnits="userSpaceOnUse" gradientTransform="translate(63.6 62.8999) scale(56.9597 56.9597)">
<stop offset="0.5" stop-color="#FDE030" style="stop-color:#FDE030;stop-color:color(display-p3 0.9922 0.8784 0.1882);stop-opacity:1;"/>
<stop offset="0.92" stop-color="#F7C02B" style="stop-color:#F7C02B;stop-color:color(display-p3 0.9686 0.7529 0.1686);stop-opacity:1;"/>
<stop offset="1" stop-color="#F4A223" style="stop-color:#F4A223;stop-color:color(display-p3 0.9569 0.6353 0.1373);stop-opacity:1;"/>
</radialGradient>
<radialGradient id="paint1_radial_169_5333" cx="0" cy="0" r="1" gradientUnits="userSpaceOnUse" gradientTransform="translate(38.599 34.5377) rotate(-43.2082) scale(102.024 101.825)">
<stop offset="0.3533" stop-color="#F9DDBD" style="stop-color:#F9DDBD;stop-color:color(display-p3 0.9765 0.8667 0.7412);stop-opacity:1;"/>
<stop offset="0.8723" stop-color="#FFD29C" style="stop-color:#FFD29C;stop-color:color(display-p3 1.0000 0.8235 0.6118);stop-opacity:1;"/>
</radialGradient>
</defs>
</svg>
