<svg width="128" height="128" viewBox="0 0 128 128" fill="none" xmlns="http://www.w3.org/2000/svg">
<path d="M63.9499 4.06003C28.4299 3.56003 2.04991 33.98 3.81991 66.51C5.90991 104.82 33.2999 124.07 65.3399 123.85C98.9999 123.62 124.54 99.76 123.84 63.72C123.15 27.74 96.6899 4.53003 63.9499 4.06003Z" fill="#C8C8C8" style="fill:#C8C8C8;fill:color(display-p3 0.7833 0.7833 0.7833);fill-opacity:1;"/>
<path d="M35.86 15.2099C11 29.4599 -4.77995 69.85 21.7 100.41C24.94 104.15 30.09 106.76 34 108.54C60.7 120.61 93.01 102.05 105.51 87.8999C115.43 76.67 119.08 69.2199 117.9 53.8899C116.99 41.9699 111.89 30.4599 101.32 21.9499C77.42 2.66995 51.65 6.14995 35.86 15.2099Z" fill="white" style="fill:white;fill-opacity:1;"/>
<mask id="mask0_2600_1172" style="mask-type:alpha" maskUnits="userSpaceOnUse" x="11" y="9" width="112" height="105">
<path d="M60.9001 39.7901C60.8101 39.7401 51.5601 34.4301 44.3801 31.7701C36.9001 29.0001 31.3801 27.5101 31.3201 27.5001L32.3501 23.6401C32.5801 23.7001 38.1001 25.1801 45.7701 28.0301C53.2701 30.8101 62.5101 36.1101 62.9001 36.3401L60.9001 39.7901Z" fill="#171717" style="fill:#171717;fill:color(display-p3 0.0902 0.0902 0.0902);fill-opacity:1;"/>
<path d="M82.6091 9.93213L77.1672 29.3538L81.0188 30.433L86.4607 11.0113L82.6091 9.93213Z" fill="#171717" style="fill:#171717;fill:color(display-p3 0.0902 0.0902 0.0902);fill-opacity:1;"/>
<path d="M117.6 54.5198C117.55 54.4998 112.23 52.4798 106.29 50.8698C101.82 49.6598 96.06 48.4298 96 48.4198L96.83 44.5098C97.07 44.5598 102.75 45.7698 107.33 47.0098C113.48 48.6698 118.8 50.6998 119.03 50.7798L117.6 54.5198Z" fill="#171717" style="fill:#171717;fill:color(display-p3 0.0902 0.0902 0.0902);fill-opacity:1;"/>
<path d="M86.13 93.7599C86.13 93.6999 85.63 87.5999 84.43 81.3599C83.24 75.1999 80.9699 69.3999 80.95 69.3499L84.67 67.8799C84.77 68.1299 87.1 74.0699 88.36 80.6099C89.6 87.0799 90.1 93.1899 90.12 93.4499L86.13 93.7599Z" fill="#171717" style="fill:#171717;fill:color(display-p3 0.0902 0.0902 0.0902);fill-opacity:1;"/>
<path d="M106.02 99.3198L103.38 96.3098C103.42 96.2798 107.26 92.8798 112 86.4798C116.38 80.5598 118.4 75.3798 118.42 75.3198L122.15 76.7498C122.06 76.9798 119.91 82.4998 115.21 88.8498C110.2 95.6298 106.19 99.1698 106.02 99.3198Z" fill="#171717" style="fill:#171717;fill:color(display-p3 0.0902 0.0902 0.0902);fill-opacity:1;"/>
<path d="M55.9874 58.2217L32.8464 78.8779L35.51 81.8619L58.651 61.2057L55.9874 58.2217Z" fill="#171717" style="fill:#171717;fill:color(display-p3 0.0902 0.0902 0.0902);fill-opacity:1;"/>
<path d="M12.91 73.3499C12.85 72.9599 11.53 63.7099 11.53 55.2499C11.53 46.8099 12.49 38.9999 12.54 38.6699L16.51 39.1699C16.5 39.2499 15.54 47.0699 15.54 55.2499C15.54 63.4099 16.87 72.6899 16.88 72.7799L12.91 73.3499Z" fill="#171717" style="fill:#171717;fill:color(display-p3 0.0902 0.0902 0.0902);fill-opacity:1;"/>
<path d="M71.2999 113.65C71.0499 113.62 64.9499 112.85 54.3999 109.75C47.6799 107.77 39.9999 103.71 39.6699 103.54L41.5499 100.01C41.6299 100.05 49.1999 104.06 55.5299 105.92C65.7299 108.92 71.7299 109.68 71.7899 109.69L71.2999 113.65Z" fill="#171717" style="fill:#171717;fill:color(display-p3 0.0902 0.0902 0.0902);fill-opacity:1;"/>
</mask>
<g mask="url(#mask0_2600_1172)">
<path d="M189 22.2224C185.238 24.4363 181.558 26.2944 177.959 27.856C174.34 29.4373 170.802 30.7222 167.304 31.7699C163.807 32.8175 160.391 33.6477 157.016 34.2605C153.64 34.8931 150.326 35.3279 147.073 35.6047C143.819 35.8814 140.586 36 137.414 36C134.242 36 131.111 35.8814 128.02 35.6442C124.93 35.407 121.88 35.0907 118.87 34.6954C115.861 34.2803 112.872 33.8059 109.924 33.2524C106.975 32.6989 104.047 32.1059 101.14 31.4536C98.232 30.8013 95.3447 30.1094 92.498 29.378C89.631 28.6467 86.7843 27.8758 83.9377 27.1048C81.091 26.3339 78.2647 25.5037 75.4587 24.6933C72.6323 23.8828 69.8263 23.0526 67 22.2224C64.194 21.3922 61.3677 20.562 58.5413 19.7515C55.715 18.9411 52.8887 18.1306 50.0623 17.3399C47.2157 16.5492 44.369 15.7981 41.502 15.0667C38.635 14.3353 35.7477 13.6435 32.8603 12.9912C29.973 12.3389 27.0247 11.7261 24.0763 11.1924C21.128 10.6389 18.139 10.1645 15.1297 9.74938C12.1203 9.33428 9.07034 9.018 5.97967 8.80057C2.889 8.58313 -0.242332 8.44476 -3.41433 8.44476C-6.58633 8.44476 -9.799 8.56336 -13.0727 8.8401C-16.3463 9.11684 -19.6607 9.55172 -23.0157 10.1843C-26.391 10.8168 -29.807 11.6273 -33.3043 12.6749C-36.8017 13.7226 -40.3397 15.0074 -43.959 16.5888C-47.558 18.1701 -51.2383 20.0282 -55 22.2224V12.3191C-55 12.3191 -55 6.62619 -55 3.6809V-6.22238C-51.2383 -8.43629 -47.558 -10.2944 -43.959 -11.856C-40.36 -13.4176 -36.8017 -14.7222 -33.3043 -15.7699C-29.807 -16.8175 -26.391 -17.6477 -23.0157 -18.2605C-19.6403 -18.893 -16.326 -19.3279 -13.0727 -19.6047C-9.799 -19.8814 -6.58633 -20 -3.41433 -20C-0.242332 -20 2.889 -19.8814 5.97967 -19.6442C9.07034 -19.4268 12.1203 -19.0907 15.1297 -18.6954C18.139 -18.3 21.128 -17.8059 24.0763 -17.2524C27.0247 -16.6989 29.9527 -16.1059 32.8603 -15.4536C35.768 -14.8013 38.6553 -14.1094 41.502 -13.378C44.369 -12.6467 47.2157 -11.8757 50.0623 -11.1048C52.909 -10.3339 55.7353 -9.50371 58.5413 -8.69326C61.3473 -7.88281 64.1737 -7.0526 67 -6.22238C69.806 -5.39216 72.6323 -4.56195 75.4587 -3.7515C78.285 -2.94105 81.1113 -2.1306 83.9377 -1.33992C86.764 -0.549238 89.631 0.201908 92.498 0.933289C95.365 1.66467 98.2523 2.35651 101.14 3.00883C104.047 3.66114 106.975 4.27391 109.924 4.80762C112.872 5.3611 115.861 5.83551 118.87 6.25062C121.88 6.66573 124.93 6.982 128.02 7.19944C131.111 7.41688 134.242 7.55524 137.414 7.55524C140.586 7.55524 143.799 7.43664 147.073 7.1599C150.346 6.88316 153.661 6.44829 157.016 5.81574C160.391 5.1832 163.807 4.37275 167.304 3.3251C170.802 2.27744 174.34 0.992588 177.959 -0.588774C181.578 -2.17014 185.259 -4.02824 189 -6.22238V3.6809V12.3191C189 12.3191 189 18.4271 189 22.2224Z" fill="#FF0000" style="fill:#FF0000;fill:color(display-p3 1.0000 0.0000 0.0000);fill-opacity:1;"/>
<path d="M189 44.7303C185.238 47.0233 181.558 48.9478 177.959 50.5651C174.34 52.203 170.802 53.5337 167.304 54.6188C163.807 55.7038 160.391 56.5637 157.016 57.1984C153.64 57.8535 150.326 58.3039 147.073 58.5905C143.819 58.8772 140.586 59 137.414 59C134.242 59 131.111 58.8772 128.02 58.6315C124.93 58.3858 121.88 58.0582 118.87 57.6488C115.861 57.2188 112.872 56.7275 109.924 56.1543C106.975 55.581 104.047 54.9668 101.14 54.2912C98.232 53.6156 95.3447 52.899 92.498 52.1415C89.631 51.384 86.7843 50.5856 83.9377 49.7872C81.091 48.9887 78.2647 48.1288 75.4587 47.2894C72.6323 46.4501 69.8263 45.5902 67 44.7303C64.1737 43.8705 61.3677 43.0106 58.5413 42.1712C55.715 41.3318 52.8887 40.4924 50.0623 39.6735C47.2157 38.8546 44.369 38.0766 41.502 37.3191C38.635 36.5616 35.7477 35.845 32.8603 35.1694C29.9527 34.4938 27.0247 33.8592 24.0763 33.3064C21.128 32.7331 18.139 32.2418 15.1297 31.8119C12.1203 31.3819 9.07034 31.0544 5.97967 30.8292C2.889 30.604 -0.242332 30.4606 -3.41433 30.4606C-6.58633 30.4606 -9.799 30.5835 -13.0727 30.8701C-16.3463 31.1567 -19.6607 31.6071 -23.0157 32.2623C-26.391 32.9174 -29.807 33.7568 -33.3043 34.8419C-36.8017 35.9269 -40.3397 37.2577 -43.959 38.8955C-47.5783 40.5334 -51.2383 42.4373 -55 44.7303V34.4734C-55 34.4734 -55 28.5771 -55 25.5267C-55 22.4762 -55 19.2005 -55 15.2697C-51.2383 12.9767 -47.558 11.0522 -43.959 9.43488C-40.3397 7.79704 -36.8017 6.46629 -33.3043 5.38122C-29.807 4.29615 -26.391 3.43629 -23.0157 2.80163C-19.6403 2.14649 -16.326 1.69608 -13.0727 1.40946C-9.799 1.12284 -6.58633 1 -3.41433 1C-0.242332 1 2.889 1.12284 5.97967 1.36851C9.07034 1.59372 12.1203 1.94176 15.1297 2.35122C18.139 2.76068 21.128 3.2725 24.0763 3.84575C27.0247 4.41899 29.9527 5.03318 32.8603 5.70879C35.768 6.3844 38.6553 7.10095 41.502 7.85845C44.369 8.61596 47.2157 9.41441 50.0623 10.2129C52.909 11.0318 55.7353 11.8712 58.5413 12.7106C61.3677 13.5499 64.1737 14.4098 67 15.2697C69.806 16.1295 72.6323 16.9894 75.4587 17.8288C78.285 18.6682 81.1113 19.5076 83.9377 20.3265C86.764 21.1454 89.631 21.9234 92.498 22.6809C95.365 23.4384 98.2523 24.155 101.14 24.8306C104.047 25.5062 106.975 26.1408 109.924 26.6936C112.872 27.2669 115.861 27.7582 118.87 28.1881C121.88 28.6181 124.93 28.9456 128.02 29.1708C131.111 29.396 134.242 29.5394 137.414 29.5394C140.586 29.5394 143.799 29.4165 147.073 29.1299C150.346 28.8433 153.661 28.3929 157.016 27.7377C160.391 27.0826 163.807 26.2432 167.304 25.1581C170.802 24.0731 174.34 22.7423 177.959 21.1045C181.578 19.4666 185.259 17.5422 189 15.2697V25.5267C189 25.5267 189 31.4229 189 34.4734C189 37.5238 189 40.7995 189 44.7303Z" fill="#FB8D00" style="fill:#FB8D00;fill:color(display-p3 0.9843 0.5529 0.0000);fill-opacity:1;"/>
<path d="M189 65.4684C185.238 67.6428 181.558 69.4677 177.959 71.0014C174.34 72.5545 170.802 73.8164 167.304 74.8454C163.807 75.8743 160.391 76.6897 157.016 77.2916C153.64 77.9128 150.326 78.3399 147.073 78.6117C143.819 78.8835 140.586 79 137.414 79C134.242 79 131.111 78.8835 128.02 78.6505C124.93 78.4176 121.88 78.1069 118.87 77.7187C115.861 77.311 112.872 76.845 109.924 76.3014C106.975 75.7579 104.047 75.1754 101.14 74.5348C98.232 73.8941 95.3447 73.2146 92.498 72.4963C89.631 71.778 86.7843 71.0208 83.9377 70.2637C81.091 69.5065 78.2647 68.6911 75.4587 67.8952C72.6323 67.0992 69.806 66.2838 67 65.4684C64.194 64.653 61.3677 63.8376 58.5413 63.0416C55.715 62.2457 52.8887 61.4497 50.0623 60.6731C47.2157 59.8966 44.369 59.1588 41.502 58.4405C38.635 57.7222 35.7477 57.0427 32.8603 56.4021C29.973 55.7614 27.0247 55.1595 24.0763 54.6354C21.128 54.0918 18.139 53.6258 15.1297 53.2181C12.1203 52.8104 9.07034 52.4998 5.97967 52.2863C2.889 52.0727 -0.242332 51.9368 -3.41433 51.9368C-6.58633 51.9368 -9.799 52.0533 -13.0727 52.3251C-16.3463 52.5969 -19.6607 53.024 -23.0157 53.6453C-26.391 54.2665 -29.807 55.0625 -33.3043 56.0914C-36.8017 57.1204 -40.3397 58.3823 -43.959 59.9354C-47.558 61.4691 -51.2383 63.294 -55 65.4684V55.742C-55 55.742 -55 50.1507 -55 47.258V37.5316C-51.2383 35.3572 -47.558 33.5323 -43.959 31.9986C-40.36 30.4649 -36.8017 29.1835 -33.3043 28.1546C-29.807 27.1257 -26.391 26.3103 -23.0157 25.7084C-19.6403 25.0872 -16.326 24.6601 -13.0727 24.3883C-9.799 24.1165 -6.58633 24 -3.41433 24C-0.242332 24 2.889 24.1165 5.97967 24.3495C9.07034 24.563 12.1203 24.893 15.1297 25.2813C18.139 25.689 21.128 26.155 24.0763 26.6986C27.0247 27.2421 29.9527 27.8246 32.8603 28.4652C35.768 29.1059 38.6553 29.7854 41.502 30.5037C44.369 31.222 47.2157 31.9792 50.0623 32.7363C52.909 33.5129 55.7353 34.3089 58.5413 35.1048C61.3677 35.9008 64.1737 36.7162 67 37.5316C69.8263 38.347 72.6323 39.1624 75.4587 39.9583C78.285 40.7543 81.1113 41.5503 83.9377 42.3269C86.764 43.1034 89.631 43.8412 92.498 44.5595C95.365 45.2778 98.2523 45.9573 101.14 46.5979C104.047 47.2386 106.975 47.8404 109.924 48.3646C112.872 48.9082 115.861 49.3742 118.87 49.7819C121.88 50.1895 124.93 50.5002 128.02 50.7137C131.111 50.9273 134.242 51.0632 137.414 51.0632C140.586 51.0632 143.799 50.9467 147.073 50.6749C150.346 50.4031 153.661 49.976 157.016 49.3547C160.391 48.7335 163.807 47.9375 167.304 46.9086C170.802 45.8796 174.34 44.6177 177.959 43.0646C181.578 41.5115 185.259 39.6866 189 37.5316V47.258V55.742C189 55.742 189 61.7409 189 65.4684Z" fill="#FFE000" style="fill:#FFE000;fill:color(display-p3 1.0000 0.8784 0.0000);fill-opacity:1;"/>
<path d="M189 88.4843C185.238 90.8168 181.558 92.7744 177.959 94.4197C174.34 96.0858 170.802 97.4395 167.304 98.5432C163.807 99.647 160.391 100.522 157.016 101.167C153.64 101.813 150.326 102.292 147.073 102.583C143.799 102.875 140.586 103 137.414 103C134.242 103 131.111 102.875 128.02 102.625C124.93 102.396 121.88 102.042 118.87 101.625C115.861 101.188 112.872 100.688 109.924 100.105C106.975 99.5221 104.047 98.8973 101.14 98.21C98.232 97.5228 95.3447 96.7938 92.498 96.0233C89.631 95.2527 86.7843 94.4405 83.9377 93.6283C81.091 92.8161 78.2647 91.9414 75.4587 91.0875C72.6323 90.2337 69.8263 89.359 67 88.4843C64.194 87.6096 61.3677 86.7349 58.5413 85.881C55.715 85.0272 52.8887 84.1733 50.0623 83.3403C47.2157 82.5072 44.369 81.7158 41.502 80.9453C38.635 80.1747 35.7477 79.4458 32.8603 78.7586C29.973 78.0713 27.0247 77.4257 24.0763 76.8634C21.128 76.2803 18.139 75.7804 15.1297 75.3431C12.1203 74.9057 9.07034 74.5725 5.97967 74.3434C2.889 74.1144 -0.242332 73.9686 -3.41433 73.9686C-6.58633 73.9686 -9.799 74.0935 -13.0727 74.3851C-16.3463 74.6767 -19.6607 75.1348 -23.0157 75.8013C-26.391 76.4677 -29.807 77.3216 -33.3043 78.4253C-36.8017 79.5291 -40.3397 80.8828 -43.959 82.5489C-47.558 84.215 -51.2383 86.1726 -55 88.4843V78.0505C-55 78.0505 -55 72.0526 -55 68.9495V58.5157C-51.2383 56.1832 -47.558 54.2256 -43.959 52.5803C-40.3397 50.9142 -36.8017 49.5605 -33.3043 48.4568C-29.807 47.353 -26.391 46.4783 -23.0157 45.8327C-19.6403 45.1662 -16.326 44.7081 -13.0727 44.4165C-9.799 44.125 -6.58633 44 -3.41433 44C-0.242332 44 2.889 44.125 5.97967 44.3749C9.07034 44.604 12.1203 44.958 15.1297 45.3745C18.139 45.8119 21.128 46.3117 24.0763 46.8948C27.0247 47.4779 29.9527 48.1027 32.8603 48.79C35.768 49.4772 38.6553 50.2061 41.502 50.9767C44.369 51.7473 47.2157 52.5595 50.0623 53.3717C52.909 54.2047 55.7353 55.0586 58.5413 55.9125C61.3677 56.7663 64.1737 57.641 67 58.5157C69.806 59.3904 72.6323 60.2651 75.4587 61.119C78.285 61.9728 81.1113 62.8267 83.9377 63.6597C86.764 64.4928 89.631 65.2841 92.498 66.0547C95.365 66.8253 98.2523 67.5542 101.14 68.2414C104.047 68.9287 106.975 69.5743 109.924 70.1366C112.872 70.7197 115.861 71.2195 118.87 71.6569C121.88 72.0942 124.93 72.4275 128.02 72.6565C131.111 72.8856 134.242 73.0314 137.414 73.0314C140.586 73.0314 143.799 72.9065 147.073 72.6149C150.346 72.3233 153.661 71.8652 157.016 71.1987C160.391 70.5323 163.807 69.6784 167.304 68.5746C170.802 67.4709 174.34 66.1172 177.959 64.4511C181.578 62.785 185.259 60.8274 189 58.5157V68.9495V78.0505C189 78.0505 189 84.4857 189 88.4843Z" fill="#43A047" style="fill:#43A047;fill:color(display-p3 0.2627 0.6275 0.2784);fill-opacity:1;"/>
<path d="M189 111.73C185.238 114.023 181.558 115.948 177.959 117.565C174.34 119.203 170.802 120.534 167.304 121.619C163.807 122.704 160.391 123.564 157.016 124.198C153.64 124.833 150.326 125.304 147.073 125.591C143.799 125.877 140.586 126 137.414 126C134.242 126 131.111 125.877 128.02 125.631C124.93 125.406 121.88 125.058 118.87 124.649C115.861 124.219 112.872 123.727 109.924 123.154C106.975 122.581 104.047 121.967 101.14 121.291C98.232 120.616 95.3447 119.899 92.498 119.142C89.631 118.384 86.7843 117.586 83.9377 116.787C81.091 115.968 78.2647 115.129 75.4587 114.289C72.6323 113.45 69.8263 112.59 67 111.73C64.194 110.87 61.3677 110.011 58.5413 109.171C55.715 108.332 52.8887 107.492 50.0623 106.673C47.2157 105.855 44.369 105.077 41.502 104.319C38.635 103.562 35.7477 102.845 32.8603 102.169C29.973 101.494 27.0247 100.859 24.0763 100.306C21.128 99.7331 18.139 99.2418 15.1297 98.8119C12.1203 98.3819 9.07034 98.0544 5.97967 97.8292C2.889 97.604 -0.242332 97.4606 -3.41433 97.4606C-6.58633 97.4606 -9.799 97.5835 -13.0727 97.8701C-16.3463 98.1567 -19.6607 98.6071 -23.0157 99.2623C-26.3707 99.9174 -29.807 100.757 -33.3043 101.842C-36.8017 102.927 -40.3397 104.258 -43.959 105.896C-47.5783 107.533 -51.2383 109.437 -55 111.73V101.473C-55 101.473 -55 95.5771 -55 92.5266V82.2697C-51.2383 79.9767 -47.558 78.0522 -43.959 76.4349C-40.3397 74.797 -36.8017 73.4663 -33.3043 72.3812C-29.807 71.2962 -26.391 70.4363 -23.0157 69.8016C-19.6403 69.1465 -16.326 68.6961 -13.0727 68.4095C-9.799 68.1228 -6.58633 68 -3.41433 68C-0.242332 68 2.889 68.1228 5.97967 68.3685C9.07034 68.5937 12.1203 68.9417 15.1297 69.3512C18.139 69.7811 21.128 70.2725 24.0763 70.8457C27.0247 71.419 29.9527 72.0332 32.8603 72.7088C35.768 73.3844 38.6553 74.101 41.502 74.8585C44.369 75.616 47.2157 76.4144 50.0623 77.2129C52.909 78.0318 55.7353 78.8712 58.5413 79.7106C61.3677 80.55 64.1737 81.4098 67 82.2697C69.806 83.1295 72.6323 83.9894 75.4587 84.8288C78.285 85.6682 81.1113 86.5076 83.9377 87.3265C86.764 88.1454 89.631 88.9234 92.498 89.6809C95.365 90.4384 98.2523 91.155 101.14 91.8306C104.047 92.5062 106.975 93.1408 109.924 93.6936C112.872 94.2669 115.861 94.7582 118.87 95.1881C121.88 95.6181 124.93 95.9456 128.02 96.1708C131.111 96.396 134.242 96.5394 137.414 96.5394C140.586 96.5394 143.799 96.4165 147.073 96.1299C150.346 95.8433 153.661 95.3929 157.016 94.7377C160.391 94.0826 163.807 93.2432 167.304 92.1581C170.802 91.0731 174.34 89.7423 177.959 88.1045C181.578 86.4666 185.259 84.5422 189 82.2697V92.5266V101.473C189 101.473 189 107.8 189 111.73Z" fill="#1565C0" style="fill:#1565C0;fill:color(display-p3 0.0824 0.3961 0.7529);fill-opacity:1;"/>
<path d="M189 133.222C185.238 135.436 181.558 137.294 177.959 138.856C174.34 140.437 170.802 141.722 167.304 142.77C163.807 143.818 160.391 144.648 157.016 145.261C153.64 145.893 150.326 146.328 147.073 146.605C143.799 146.881 140.586 147 137.414 147C134.242 147 131.111 146.881 128.02 146.644C124.93 146.427 121.88 146.091 118.87 145.695C115.861 145.28 112.872 144.806 109.924 144.252C106.975 143.699 104.047 143.106 101.14 142.454C98.232 141.801 95.3447 141.109 92.498 140.378C89.6513 139.647 86.7843 138.876 83.9377 138.105C81.091 137.314 78.2647 136.504 75.4587 135.693C72.6323 134.883 69.8263 134.053 67 133.222C64.194 132.392 61.3677 131.562 58.5413 130.751C55.715 129.941 52.8887 129.131 50.0623 128.34C47.2157 127.549 44.369 126.798 41.502 126.067C38.635 125.335 35.7477 124.643 32.8603 123.991C29.973 123.339 27.0247 122.726 24.0763 122.192C21.128 121.639 18.139 121.164 15.1297 120.749C12.1203 120.334 9.07034 120.018 5.97967 119.801C2.889 119.583 -0.242332 119.445 -3.41433 119.445C-6.58633 119.445 -9.799 119.563 -13.0727 119.84C-16.3463 120.117 -19.6607 120.552 -23.0157 121.184C-26.391 121.817 -29.807 122.627 -33.3043 123.675C-36.8017 124.723 -40.3397 126.007 -43.959 127.589C-47.5783 129.17 -51.2587 131.028 -55 133.222V123.319C-55 123.319 -55 117.626 -55 114.681V104.778C-51.2383 102.564 -47.558 100.706 -43.959 99.144C-40.36 97.5824 -36.8017 96.2778 -33.3043 95.2302C-29.807 94.1825 -26.391 93.3523 -23.0157 92.7395C-19.6403 92.1267 -16.326 91.6721 -13.0727 91.3953C-9.799 91.1186 -6.58633 91 -3.41433 91C-0.242332 91 2.889 91.1186 5.97967 91.3558C9.07034 91.5732 12.1203 91.9093 15.1297 92.3046C18.139 92.7 21.128 93.1942 24.0763 93.7476C27.0247 94.3011 29.9527 94.8941 32.8603 95.5464C35.768 96.1987 38.6553 96.8906 41.502 97.622C44.369 98.3533 47.2157 99.1242 50.0623 99.8952C52.909 100.686 55.7353 101.496 58.5413 102.307C61.3677 103.117 64.1737 103.947 67 104.778C69.806 105.608 72.6323 106.438 75.4587 107.249C78.285 108.059 81.1113 108.869 83.9377 109.66C86.7843 110.451 89.631 111.202 92.498 111.933C95.365 112.665 98.2523 113.357 101.14 114.009C104.047 114.661 106.975 115.274 109.924 115.808C112.872 116.361 115.861 116.836 118.87 117.251C121.88 117.666 124.93 117.982 128.02 118.199C131.111 118.417 134.242 118.555 137.414 118.555C140.586 118.555 143.799 118.437 147.073 118.16C150.346 117.883 153.661 117.448 157.016 116.816C160.371 116.183 163.807 115.373 167.304 114.325C170.802 113.277 174.34 111.993 177.959 110.411C181.578 108.83 185.259 106.972 189 104.778V114.681V123.319C189 123.319 189 129.427 189 133.222Z" fill="#7A1FA6" style="fill:#7A1FA6;fill:color(display-p3 0.4784 0.1216 0.6510);fill-opacity:1;"/>
<rect x="-34" y="-29" width="208" height="166" fill="black" fill-opacity="0.13" style="fill:black;fill-opacity:0.13;"/>
</g>
<mask id="mask1_2600_1172" style="mask-type:alpha" maskUnits="userSpaceOnUse" x="7" y="4" width="117" height="120">
<path d="M53.3701 32.7199C53.0601 33.4999 53.4701 61.3499 54.1001 62.1799C54.7301 63.0099 82.7301 72.5199 83.9801 72.2099C85.2301 71.8999 100.17 48.3899 100.17 47.4499C100.17 46.5099 81.7901 23.8399 80.8501 23.6299C79.9101 23.4199 53.7901 31.6699 53.3701 32.7199Z" fill="#474C4F" style="fill:#474C4F;fill:color(display-p3 0.2784 0.2980 0.3098);fill-opacity:1;"/>
<path d="M117.36 36.1399C117.36 36.1399 113.24 49.8499 113.24 50.8999C113.24 51.9399 115.75 57.6899 116.9 64.7899C118.05 71.8899 116.38 82.5499 117.11 82.9699C117.84 83.3899 121.46 83.1799 121.46 83.1799C121.46 83.1799 124.95 72.2099 123.48 58.1099C122.01 43.9999 117.36 36.1399 117.36 36.1399Z" fill="#474C4F" style="fill:#474C4F;fill:color(display-p3 0.2784 0.2980 0.3098);fill-opacity:1;"/>
<path d="M87.6401 90.6999C86.8001 90.7799 64.7601 109.71 64.8601 110.24C64.9601 110.76 73.4901 123.33 73.4901 123.33C73.4901 123.33 84.2101 122.48 94.0301 117.16C103.85 111.84 107.58 107.11 107.58 107.11C107.58 107.11 108.94 94.4699 108.42 94.3699C107.91 94.2499 88.6901 90.5999 87.6401 90.6999Z" fill="#474C4F" style="fill:#474C4F;fill:color(display-p3 0.2784 0.2980 0.3098);fill-opacity:1;"/>
<path d="M14.0901 67.0899C13.5201 67.5599 10.2201 74.8199 9.28007 78.8999C8.34007 82.9699 7.82007 86.8399 7.82007 86.8399C7.82007 86.8399 10.3301 94.0999 14.0901 99.4799C18.7501 106.14 24.8101 110.84 24.8101 110.84C24.8101 110.84 44.5901 104.81 44.7001 103.97C44.8101 103.13 42.4001 95.8199 40.7301 89.7599C39.0601 83.6999 38.7501 76.9099 38.1201 76.4899C37.4901 76.0699 31.1201 74.0899 26.1101 72.0999C21.1001 70.1099 14.7201 66.5699 14.0901 67.0899Z" fill="#474C4F" style="fill:#474C4F;fill:color(display-p3 0.2784 0.2980 0.3098);fill-opacity:1;"/>
<path d="M7.89007 41.8799C7.89007 41.8799 13.3601 46.6099 14.2001 46.6099C15.0401 46.6099 20.3401 39.5899 25.6901 35.3299C32.9001 29.5799 36.4501 27.6999 36.5601 26.9699C36.6601 26.2399 39.8001 8.78988 39.8001 8.78988C39.8001 8.78988 28.2001 13.1799 19.7401 22.8899C11.2801 32.5999 7.89007 41.8799 7.89007 41.8799Z" fill="#474C4F" style="fill:#474C4F;fill:color(display-p3 0.2784 0.2980 0.3098);fill-opacity:1;"/>
<path d="M67.0501 4.12988C67.0501 4.12988 73.7201 7.55988 76.1501 9.24988C78.5801 10.9399 82.1601 14.5199 83.2201 14.6299C84.2701 14.7399 98.7801 14.7499 98.7801 14.7499C98.7801 14.7499 92.2001 10.2499 84.9101 7.66988C76.1401 4.55988 67.0501 4.12988 67.0501 4.12988Z" fill="#474C4F" style="fill:#474C4F;fill:color(display-p3 0.2784 0.2980 0.3098);fill-opacity:1;"/>
</mask>
<g mask="url(#mask1_2600_1172)">
<path d="M186 21.2224C182.238 23.4363 178.558 25.2944 174.959 26.856C171.34 28.4373 167.802 29.7222 164.304 30.7699C160.807 31.8175 157.391 32.6477 154.016 33.2605C150.64 33.8931 147.326 34.3279 144.073 34.6047C140.819 34.8814 137.586 35 134.414 35C131.242 35 128.111 34.8814 125.02 34.6442C121.93 34.407 118.88 34.0907 115.87 33.6954C112.861 33.2803 109.872 32.8059 106.924 32.2524C103.975 31.6989 101.047 31.1059 98.1397 30.4536C95.232 29.8013 92.3447 29.1094 89.498 28.378C86.631 27.6467 83.7843 26.8758 80.9377 26.1048C78.091 25.3339 75.2647 24.5037 72.4587 23.6933C69.6323 22.8828 66.8263 22.0526 64 21.2224C61.194 20.3922 58.3677 19.562 55.5413 18.7515C52.715 17.9411 49.8887 17.1306 47.0623 16.3399C44.2157 15.5492 41.369 14.7981 38.502 14.0667C35.635 13.3353 32.7477 12.6435 29.8603 11.9912C26.973 11.3389 24.0247 10.7261 21.0763 10.1924C18.128 9.6389 15.139 9.16449 12.1297 8.74938C9.12034 8.33428 6.07034 8.018 2.97967 7.80057C-0.110996 7.58313 -3.24233 7.44476 -6.41433 7.44476C-9.58633 7.44476 -12.799 7.56336 -16.0727 7.8401C-19.3463 8.11684 -22.6607 8.55172 -26.0157 9.18426C-29.391 9.8168 -32.807 10.6273 -36.3043 11.6749C-39.8017 12.7226 -43.3397 14.0074 -46.959 15.5888C-50.558 17.1701 -54.2383 19.0282 -58 21.2224V11.3191C-58 11.3191 -58 5.62619 -58 2.6809V-7.22238C-54.2383 -9.43629 -50.558 -11.2944 -46.959 -12.856C-43.36 -14.4176 -39.8017 -15.7222 -36.3043 -16.7699C-32.807 -17.8175 -29.391 -18.6477 -26.0157 -19.2605C-22.6403 -19.893 -19.326 -20.3279 -16.0727 -20.6047C-12.799 -20.8814 -9.58633 -21 -6.41433 -21C-3.24233 -21 -0.110996 -20.8814 2.97967 -20.6442C6.07034 -20.4268 9.12034 -20.0907 12.1297 -19.6954C15.139 -19.3 18.128 -18.8059 21.0763 -18.2524C24.0247 -17.6989 26.9527 -17.1059 29.8603 -16.4536C32.768 -15.8013 35.6553 -15.1094 38.502 -14.378C41.369 -13.6467 44.2157 -12.8757 47.0623 -12.1048C49.909 -11.3339 52.7353 -10.5037 55.5413 -9.69326C58.3473 -8.88281 61.1737 -8.0526 64 -7.22238C66.806 -6.39216 69.6323 -5.56195 72.4587 -4.7515C75.285 -3.94105 78.1113 -3.1306 80.9377 -2.33992C83.764 -1.54924 86.631 -0.798092 89.498 -0.0667114C92.365 0.664669 95.2523 1.35651 98.1397 2.00883C101.047 2.66114 103.975 3.27391 106.924 3.80762C109.872 4.3611 112.861 4.83551 115.87 5.25062C118.88 5.66573 121.93 5.982 125.02 6.19944C128.111 6.41688 131.242 6.55524 134.414 6.55524C137.586 6.55524 140.799 6.43664 144.073 6.1599C147.346 5.88316 150.661 5.44829 154.016 4.81574C157.391 4.1832 160.807 3.37275 164.304 2.3251C167.802 1.27744 171.34 -0.00741196 174.959 -1.58877C178.578 -3.17014 182.259 -5.02824 186 -7.22238V2.6809V11.3191C186 11.3191 186 17.4271 186 21.2224Z" fill="#FF0000" style="fill:#FF0000;fill:color(display-p3 1.0000 0.0000 0.0000);fill-opacity:1;"/>
<path d="M186 43.7303C182.238 46.0233 178.558 47.9478 174.959 49.5651C171.34 51.203 167.802 52.5337 164.304 53.6188C160.807 54.7038 157.391 55.5637 154.016 56.1984C150.64 56.8535 147.326 57.3039 144.073 57.5905C140.819 57.8772 137.586 58 134.414 58C131.242 58 128.111 57.8772 125.02 57.6315C121.93 57.3858 118.88 57.0582 115.87 56.6488C112.861 56.2188 109.872 55.7275 106.924 55.1543C103.975 54.581 101.047 53.9668 98.1397 53.2912C95.232 52.6156 92.3447 51.899 89.498 51.1415C86.631 50.384 83.7843 49.5856 80.9377 48.7872C78.091 47.9887 75.2647 47.1288 72.4587 46.2894C69.6323 45.4501 66.8263 44.5902 64 43.7303C61.1737 42.8705 58.3677 42.0106 55.5413 41.1712C52.715 40.3318 49.8887 39.4924 47.0623 38.6735C44.2157 37.8546 41.369 37.0766 38.502 36.3191C35.635 35.5616 32.7477 34.845 29.8603 34.1694C26.9527 33.4938 24.0247 32.8592 21.0763 32.3064C18.128 31.7331 15.139 31.2418 12.1297 30.8119C9.12034 30.3819 6.07034 30.0544 2.97967 29.8292C-0.110996 29.604 -3.24233 29.4606 -6.41433 29.4606C-9.58633 29.4606 -12.799 29.5835 -16.0727 29.8701C-19.3463 30.1567 -22.6607 30.6071 -26.0157 31.2623C-29.391 31.9174 -32.807 32.7568 -36.3043 33.8419C-39.8017 34.9269 -43.3397 36.2577 -46.959 37.8955C-50.5783 39.5334 -54.2383 41.4373 -58 43.7303V33.4734C-58 33.4734 -58 27.5771 -58 24.5267C-58 21.4762 -58 18.2005 -58 14.2697C-54.2383 11.9767 -50.558 10.0522 -46.959 8.43488C-43.3397 6.79704 -39.8017 5.46629 -36.3043 4.38122C-32.807 3.29615 -29.391 2.43629 -26.0157 1.80163C-22.6403 1.14649 -19.326 0.696083 -16.0727 0.409461C-12.799 0.12284 -9.58633 0 -6.41433 0C-3.24233 0 -0.110996 0.122839 2.97967 0.368515C6.07034 0.593718 9.12034 0.941758 12.1297 1.35122C15.139 1.76068 18.128 2.2725 21.0763 2.84575C24.0247 3.41899 26.9527 4.03318 29.8603 4.70879C32.768 5.3844 35.6553 6.10095 38.502 6.85845C41.369 7.61596 44.2157 8.41441 47.0623 9.21285C49.909 10.0318 52.7353 10.8712 55.5413 11.7106C58.3677 12.5499 61.1737 13.4098 64 14.2697C66.806 15.1295 69.6323 15.9894 72.4587 16.8288C75.285 17.6682 78.1113 18.5076 80.9377 19.3265C83.764 20.1454 86.631 20.9234 89.498 21.6809C92.365 22.4384 95.2523 23.155 98.1397 23.8306C101.047 24.5062 103.975 25.1408 106.924 25.6936C109.872 26.2669 112.861 26.7582 115.87 27.1881C118.88 27.6181 121.93 27.9456 125.02 28.1708C128.111 28.396 131.242 28.5394 134.414 28.5394C137.586 28.5394 140.799 28.4165 144.073 28.1299C147.346 27.8433 150.661 27.3929 154.016 26.7377C157.391 26.0826 160.807 25.2432 164.304 24.1581C167.802 23.0731 171.34 21.7423 174.959 20.1045C178.578 18.4666 182.259 16.5422 186 14.2697V24.5267C186 24.5267 186 30.4229 186 33.4734C186 36.5238 186 39.7995 186 43.7303Z" fill="#FB8D00" style="fill:#FB8D00;fill:color(display-p3 0.9843 0.5529 0.0000);fill-opacity:1;"/>
<path d="M186 64.4684C182.238 66.6428 178.558 68.4677 174.959 70.0014C171.34 71.5545 167.802 72.8164 164.304 73.8454C160.807 74.8743 157.391 75.6897 154.016 76.2916C150.64 76.9128 147.326 77.3399 144.073 77.6117C140.819 77.8835 137.586 78 134.414 78C131.242 78 128.111 77.8835 125.02 77.6505C121.93 77.4176 118.88 77.1069 115.87 76.7187C112.861 76.311 109.872 75.845 106.924 75.3014C103.975 74.7579 101.047 74.1754 98.1397 73.5348C95.232 72.8941 92.3447 72.2146 89.498 71.4963C86.631 70.778 83.7843 70.0208 80.9377 69.2637C78.091 68.5065 75.2647 67.6911 72.4587 66.8952C69.6323 66.0992 66.806 65.2838 64 64.4684C61.194 63.653 58.3677 62.8376 55.5413 62.0416C52.715 61.2457 49.8887 60.4497 47.0623 59.6731C44.2157 58.8966 41.369 58.1588 38.502 57.4405C35.635 56.7222 32.7477 56.0427 29.8603 55.4021C26.973 54.7614 24.0247 54.1595 21.0763 53.6354C18.128 53.0918 15.139 52.6258 12.1297 52.2181C9.12034 51.8104 6.07034 51.4998 2.97967 51.2863C-0.110996 51.0727 -3.24233 50.9368 -6.41433 50.9368C-9.58633 50.9368 -12.799 51.0533 -16.0727 51.3251C-19.3463 51.5969 -22.6607 52.024 -26.0157 52.6453C-29.391 53.2665 -32.807 54.0625 -36.3043 55.0914C-39.8017 56.1204 -43.3397 57.3823 -46.959 58.9354C-50.558 60.4691 -54.2383 62.294 -58 64.4684V54.742C-58 54.742 -58 49.1507 -58 46.258V36.5316C-54.2383 34.3572 -50.558 32.5323 -46.959 30.9986C-43.36 29.4649 -39.8017 28.1835 -36.3043 27.1546C-32.807 26.1257 -29.391 25.3103 -26.0157 24.7084C-22.6403 24.0872 -19.326 23.6601 -16.0727 23.3883C-12.799 23.1165 -9.58633 23 -6.41433 23C-3.24233 23 -0.110996 23.1165 2.97967 23.3495C6.07034 23.563 9.12034 23.893 12.1297 24.2813C15.139 24.689 18.128 25.155 21.0763 25.6986C24.0247 26.2421 26.9527 26.8246 29.8603 27.4652C32.768 28.1059 35.6553 28.7854 38.502 29.5037C41.369 30.222 44.2157 30.9792 47.0623 31.7363C49.909 32.5129 52.7353 33.3089 55.5413 34.1048C58.3677 34.9008 61.1737 35.7162 64 36.5316C66.8263 37.347 69.6323 38.1624 72.4587 38.9583C75.285 39.7543 78.1113 40.5503 80.9377 41.3269C83.764 42.1034 86.631 42.8412 89.498 43.5595C92.365 44.2778 95.2523 44.9573 98.1397 45.5979C101.047 46.2386 103.975 46.8404 106.924 47.3646C109.872 47.9082 112.861 48.3742 115.87 48.7819C118.88 49.1895 121.93 49.5002 125.02 49.7137C128.111 49.9273 131.242 50.0632 134.414 50.0632C137.586 50.0632 140.799 49.9467 144.073 49.6749C147.346 49.4031 150.661 48.976 154.016 48.3547C157.391 47.7335 160.807 46.9375 164.304 45.9086C167.802 44.8796 171.34 43.6177 174.959 42.0646C178.578 40.5115 182.259 38.6866 186 36.5316V46.258V54.742C186 54.742 186 60.7409 186 64.4684Z" fill="#FFE000" style="fill:#FFE000;fill:color(display-p3 1.0000 0.8784 0.0000);fill-opacity:1;"/>
<path d="M186 87.4843C182.238 89.8168 178.558 91.7744 174.959 93.4197C171.34 95.0858 167.802 96.4395 164.304 97.5432C160.807 98.647 157.391 99.5217 154.016 100.167C150.64 100.813 147.326 101.292 144.073 101.583C140.799 101.875 137.586 102 134.414 102C131.242 102 128.111 101.875 125.02 101.625C121.93 101.396 118.88 101.042 115.87 100.625C112.861 100.188 109.872 99.6883 106.924 99.1052C103.975 98.5221 101.047 97.8973 98.1397 97.21C95.232 96.5228 92.3447 95.7938 89.498 95.0233C86.631 94.2527 83.7843 93.4405 80.9377 92.6283C78.091 91.8161 75.2647 90.9414 72.4587 90.0875C69.6323 89.2337 66.8263 88.359 64 87.4843C61.194 86.6096 58.3677 85.7349 55.5413 84.881C52.715 84.0272 49.8887 83.1733 47.0623 82.3403C44.2157 81.5072 41.369 80.7158 38.502 79.9453C35.635 79.1747 32.7477 78.4458 29.8603 77.7586C26.973 77.0713 24.0247 76.4257 21.0763 75.8634C18.128 75.2803 15.139 74.7804 12.1297 74.3431C9.12034 73.9057 6.07034 73.5725 2.97967 73.3434C-0.110996 73.1144 -3.24233 72.9686 -6.41433 72.9686C-9.58633 72.9686 -12.799 73.0935 -16.0727 73.3851C-19.3463 73.6767 -22.6607 74.1348 -26.0157 74.8013C-29.391 75.4677 -32.807 76.3216 -36.3043 77.4253C-39.8017 78.5291 -43.3397 79.8828 -46.959 81.5489C-50.558 83.215 -54.2383 85.1726 -58 87.4843V77.0505C-58 77.0505 -58 71.0526 -58 67.9495V57.5157C-54.2383 55.1832 -50.558 53.2256 -46.959 51.5803C-43.3397 49.9142 -39.8017 48.5605 -36.3043 47.4568C-32.807 46.353 -29.391 45.4783 -26.0157 44.8327C-22.6403 44.1662 -19.326 43.7081 -16.0727 43.4165C-12.799 43.125 -9.58633 43 -6.41433 43C-3.24233 43 -0.110996 43.125 2.97967 43.3749C6.07034 43.604 9.12034 43.958 12.1297 44.3745C15.139 44.8119 18.128 45.3117 21.0763 45.8948C24.0247 46.4779 26.9527 47.1027 29.8603 47.79C32.768 48.4772 35.6553 49.2061 38.502 49.9767C41.369 50.7473 44.2157 51.5595 47.0623 52.3717C49.909 53.2047 52.7353 54.0586 55.5413 54.9125C58.3677 55.7663 61.1737 56.641 64 57.5157C66.806 58.3904 69.6323 59.2651 72.4587 60.119C75.285 60.9728 78.1113 61.8267 80.9377 62.6597C83.764 63.4928 86.631 64.2841 89.498 65.0547C92.365 65.8253 95.2523 66.5542 98.1397 67.2414C101.047 67.9287 103.975 68.5743 106.924 69.1366C109.872 69.7197 112.861 70.2195 115.87 70.6569C118.88 71.0942 121.93 71.4275 125.02 71.6565C128.111 71.8856 131.242 72.0314 134.414 72.0314C137.586 72.0314 140.799 71.9065 144.073 71.6149C147.346 71.3233 150.661 70.8652 154.016 70.1987C157.391 69.5323 160.807 68.6784 164.304 67.5746C167.802 66.4709 171.34 65.1172 174.959 63.4511C178.578 61.785 182.259 59.8274 186 57.5157V67.9495V77.0505C186 77.0505 186 83.4857 186 87.4843Z" fill="#43A047" style="fill:#43A047;fill:color(display-p3 0.2627 0.6275 0.2784);fill-opacity:1;"/>
<path d="M186 110.73C182.238 113.023 178.558 114.948 174.959 116.565C171.34 118.203 167.802 119.534 164.304 120.619C160.807 121.704 157.391 122.564 154.016 123.198C150.64 123.833 147.326 124.304 144.073 124.591C140.799 124.877 137.586 125 134.414 125C131.242 125 128.111 124.877 125.02 124.631C121.93 124.406 118.88 124.058 115.87 123.649C112.861 123.219 109.872 122.727 106.924 122.154C103.975 121.581 101.047 120.967 98.1397 120.291C95.232 119.616 92.3447 118.899 89.498 118.142C86.631 117.384 83.7843 116.586 80.9377 115.787C78.091 114.968 75.2647 114.129 72.4587 113.289C69.6323 112.45 66.8263 111.59 64 110.73C61.194 109.87 58.3677 109.011 55.5413 108.171C52.715 107.332 49.8887 106.492 47.0623 105.673C44.2157 104.855 41.369 104.077 38.502 103.319C35.635 102.562 32.7477 101.845 29.8603 101.169C26.973 100.494 24.0247 99.8592 21.0763 99.3064C18.128 98.7331 15.139 98.2418 12.1297 97.8119C9.12034 97.3819 6.07034 97.0544 2.97967 96.8292C-0.110996 96.604 -3.24233 96.4606 -6.41433 96.4606C-9.58633 96.4606 -12.799 96.5835 -16.0727 96.8701C-19.3463 97.1567 -22.6607 97.6071 -26.0157 98.2623C-29.3707 98.9174 -32.807 99.7568 -36.3043 100.842C-39.8017 101.927 -43.3397 103.258 -46.959 104.896C-50.5783 106.533 -54.2383 108.437 -58 110.73V100.473C-58 100.473 -58 94.5771 -58 91.5266V81.2697C-54.2383 78.9767 -50.558 77.0522 -46.959 75.4349C-43.3397 73.797 -39.8017 72.4663 -36.3043 71.3812C-32.807 70.2962 -29.391 69.4363 -26.0157 68.8016C-22.6403 68.1465 -19.326 67.6961 -16.0727 67.4095C-12.799 67.1228 -9.58633 67 -6.41433 67C-3.24233 67 -0.110996 67.1228 2.97967 67.3685C6.07034 67.5937 9.12034 67.9417 12.1297 68.3512C15.139 68.7811 18.128 69.2725 21.0763 69.8457C24.0247 70.419 26.9527 71.0332 29.8603 71.7088C32.768 72.3844 35.6553 73.101 38.502 73.8585C41.369 74.616 44.2157 75.4144 47.0623 76.2129C49.909 77.0318 52.7353 77.8712 55.5413 78.7106C58.3677 79.55 61.1737 80.4098 64 81.2697C66.806 82.1295 69.6323 82.9894 72.4587 83.8288C75.285 84.6682 78.1113 85.5076 80.9377 86.3265C83.764 87.1454 86.631 87.9234 89.498 88.6809C92.365 89.4384 95.2523 90.155 98.1397 90.8306C101.047 91.5062 103.975 92.1408 106.924 92.6936C109.872 93.2669 112.861 93.7582 115.87 94.1881C118.88 94.6181 121.93 94.9456 125.02 95.1708C128.111 95.396 131.242 95.5394 134.414 95.5394C137.586 95.5394 140.799 95.4165 144.073 95.1299C147.346 94.8433 150.661 94.3929 154.016 93.7377C157.391 93.0826 160.807 92.2432 164.304 91.1581C167.802 90.0731 171.34 88.7423 174.959 87.1045C178.578 85.4666 182.259 83.5422 186 81.2697V91.5266V100.473C186 100.473 186 106.8 186 110.73Z" fill="#1565C0" style="fill:#1565C0;fill:color(display-p3 0.0824 0.3961 0.7529);fill-opacity:1;"/>
<path d="M186 132.222C182.238 134.436 178.558 136.294 174.959 137.856C171.34 139.437 167.802 140.722 164.304 141.77C160.807 142.818 157.391 143.648 154.016 144.261C150.64 144.893 147.326 145.328 144.073 145.605C140.799 145.881 137.586 146 134.414 146C131.242 146 128.111 145.881 125.02 145.644C121.93 145.427 118.88 145.091 115.87 144.695C112.861 144.28 109.872 143.806 106.924 143.252C103.975 142.699 101.047 142.106 98.1397 141.454C95.232 140.801 92.3447 140.109 89.498 139.378C86.6513 138.647 83.7843 137.876 80.9377 137.105C78.091 136.314 75.2647 135.504 72.4587 134.693C69.6323 133.883 66.8263 133.053 64 132.222C61.194 131.392 58.3677 130.562 55.5413 129.751C52.715 128.941 49.8887 128.131 47.0623 127.34C44.2157 126.549 41.369 125.798 38.502 125.067C35.635 124.335 32.7477 123.643 29.8603 122.991C26.973 122.339 24.0247 121.726 21.0763 121.192C18.128 120.639 15.139 120.164 12.1297 119.749C9.12034 119.334 6.07034 119.018 2.97967 118.801C-0.110996 118.583 -3.24233 118.445 -6.41433 118.445C-9.58633 118.445 -12.799 118.563 -16.0727 118.84C-19.3463 119.117 -22.6607 119.552 -26.0157 120.184C-29.391 120.817 -32.807 121.627 -36.3043 122.675C-39.8017 123.723 -43.3397 125.007 -46.959 126.589C-50.5783 128.17 -54.2587 130.028 -58 132.222V122.319C-58 122.319 -58 116.626 -58 113.681V103.778C-54.2383 101.564 -50.558 99.7056 -46.959 98.144C-43.36 96.5824 -39.8017 95.2778 -36.3043 94.2302C-32.807 93.1825 -29.391 92.3523 -26.0157 91.7395C-22.6403 91.1267 -19.326 90.6721 -16.0727 90.3953C-12.799 90.1186 -9.58633 90 -6.41433 90C-3.24233 90 -0.110996 90.1186 2.97967 90.3558C6.07034 90.5732 9.12034 90.9093 12.1297 91.3046C15.139 91.7 18.128 92.1942 21.0763 92.7476C24.0247 93.3011 26.9527 93.8941 29.8603 94.5464C32.768 95.1987 35.6553 95.8906 38.502 96.622C41.369 97.3533 44.2157 98.1242 47.0623 98.8952C49.909 99.6858 52.7353 100.496 55.5413 101.307C58.3677 102.117 61.1737 102.947 64 103.778C66.806 104.608 69.6323 105.438 72.4587 106.249C75.285 107.059 78.1113 107.869 80.9377 108.66C83.7843 109.451 86.631 110.202 89.498 110.933C92.365 111.665 95.2523 112.357 98.1397 113.009C101.047 113.661 103.975 114.274 106.924 114.808C109.872 115.361 112.861 115.836 115.87 116.251C118.88 116.666 121.93 116.982 125.02 117.199C128.111 117.417 131.242 117.555 134.414 117.555C137.586 117.555 140.799 117.437 144.073 117.16C147.346 116.883 150.661 116.448 154.016 115.816C157.371 115.183 160.807 114.373 164.304 113.325C167.802 112.277 171.34 110.993 174.959 109.411C178.578 107.83 182.259 105.972 186 103.778V113.681V122.319C186 122.319 186 128.427 186 132.222Z" fill="#7A1FA6" style="fill:#7A1FA6;fill:color(display-p3 0.4784 0.1216 0.6510);fill-opacity:1;"/>
</g>
</svg>
