<svg width="128" height="128" viewBox="0 0 128 128" fill="none" xmlns="http://www.w3.org/2000/svg">
<path d="M103.06 60.5C110.25 57.3 124.42 51.23 124.42 51.23C124.42 51.23 111.13 45.77 104.16 42.76C107.19 40.29 121.71 33.24 121.71 33.24L99.5601 35.07L111.78 5.54002C111.78 5.54002 92.5401 20.15 85.0701 22.02C85.1001 18.59 85.1701 9.51002 85.1701 9.51002C85.1701 9.51002 78.3601 16.97 74.9801 19.48C71.0501 13.65 63.5401 4.72002 63.5401 4.72002C63.5401 4.72002 56.8301 12.93 53.1301 18.59C50.0901 16.13 41.9401 4.58002 41.9401 4.58002C41.9401 4.58002 43.8201 18.65 43.6601 22.32C35.8601 20.45 21.4501 13.95 21.4501 13.95C21.4501 13.95 27.6901 25.79 30.0001 31.86C25.7701 31.83 11.6101 31.06 6.55008 30.75C10.6401 33.85 27.7201 46.19 27.7201 46.19L3.58008 50.87C3.58008 50.87 20.7501 55.02 27.7201 58.03C26.0201 59.41 21.5901 62.96 18.0301 65.8H109.43C107.12 63.97 104.99 62.21 103.06 60.5Z" fill="#F15A24" style="fill:#F15A24;fill:color(display-p3 0.9451 0.3529 0.1412);fill-opacity:1;"/>
<path d="M79.9503 45.33H48.2803V65.81H79.9503V45.33Z" fill="url(#paint0_linear_169_12942)" style=""/>
<path d="M120.13 54.86C120.32 54.36 120.43 53.83 120.43 53.27C120.43 50.77 118.4 48.74 115.9 48.74C113.83 48.74 112.1 50.14 111.56 52.04C109.82 52.67 108.57 54.32 108.57 56.28C108.57 58.78 110.6 60.81 113.1 60.81C113.39 60.81 113.67 60.78 113.95 60.72C114.57 61.04 115.26 61.24 116.01 61.24C118.51 61.24 120.54 59.21 120.54 56.71C120.54 56.06 120.38 55.43 120.13 54.86Z" fill="#FFEA5C" style="fill:#FFEA5C;fill:color(display-p3 1.0000 0.9176 0.3608);fill-opacity:1;"/>
<path d="M103.31 6.31001C101.14 7.13001 100.04 9.56001 100.87 11.73C101.36 13.02 102.41 13.91 103.64 14.27C104.51 16.36 106.87 17.4 109 16.6C111.17 15.78 112.27 13.35 111.44 11.18C110.95 9.89001 109.9 9.00001 108.67 8.64001C107.8 6.55001 105.44 5.50001 103.31 6.31001Z" fill="#5C5CFF" style="fill:#5C5CFF;fill:color(display-p3 0.3608 0.3608 1.0000);fill-opacity:1;"/>
<path d="M19.4199 49.18C19.4599 48.97 19.4799 48.75 19.4799 48.53C19.4799 46.63 17.9399 45.08 16.0299 45.08C14.1299 45.08 12.5799 46.62 12.5799 48.53C12.5799 49.05 12.6999 49.53 12.8999 49.97C10.8999 50.07 9.25988 51.66 9.13988 53.71C9.00988 55.9 10.6899 57.78 12.8799 57.91C14.2299 57.99 15.4599 57.38 16.2399 56.39C16.7699 56.71 17.3899 56.91 18.0499 56.95C20.2399 57.08 22.1199 55.4 22.2499 53.21C22.3599 51.34 21.1499 49.69 19.4199 49.18Z" fill="#45F9FF" style="fill:#45F9FF;fill:color(display-p3 0.2706 0.9765 1.0000);fill-opacity:1;"/>
<path d="M14.8701 21.5C17.6315 21.5 19.8701 19.4853 19.8701 17C19.8701 14.5147 17.6315 12.5 14.8701 12.5C12.1087 12.5 9.87012 14.5147 9.87012 17C9.87012 19.4853 12.1087 21.5 14.8701 21.5Z" fill="#4BFF17" style="fill:#4BFF17;fill:color(display-p3 0.2941 1.0000 0.0902);fill-opacity:1;"/>
<path d="M113.28 29.33C116.041 29.33 118.28 27.3153 118.28 24.83C118.28 22.3447 116.041 20.33 113.28 20.33C110.518 20.33 108.28 22.3447 108.28 24.83C108.28 27.3153 110.518 29.33 113.28 29.33Z" fill="#FF17C8" style="fill:#FF17C8;fill:color(display-p3 1.0000 0.0902 0.7843);fill-opacity:1;"/>
<path d="M99.74 31.65C98.88 31.17 98.63 30.03 98.98 29.11C99.51 27.73 99.84 26.26 99.92 24.74C100.38 15.96 92.69 8.76002 82.79 8.86002C79.3 8.89002 76.05 9.85002 73.3 11.45C71.01 6.97002 66.1 3.89002 60.41 3.95002C54.51 4.02002 49.53 7.45002 47.47 12.23C45.98 11.75 44.4 11.49 42.77 11.5C34.75 11.57 28.95 16.28 29.53 25.07C29.63 26.56 30.81 29.37 30.81 29.37C30.81 29.37 28.4 29.96 26.42 33.3C24.81 36.01 24.64 40.38 26.04 43.26C28.23 47.77 34.31 49.89 38.83 47.72C39.47 47.41 40.2 47.02 40.86 47.29C41.19 47.43 42.57 52.49 54.99 55.07C62.15 56.56 70.5499 51.31 71.02 51.3C71.56 51.29 72.04 51.62 72.49 51.92C72.49 51.92 75.81 55.73 83.24 53.95C90.25 52.28 90.93 47.52 91.53 47.33C92.01 47.18 100.23 49.76 103.7 41.89C105.22 38.37 102.63 33.26 99.74 31.65Z" fill="#D2EDF7" style="fill:#D2EDF7;fill:color(display-p3 0.8235 0.9294 0.9686);fill-opacity:1;"/>
<path d="M29.4499 24.11C29.5099 25.36 29.7999 28.71 31.3299 29.65C32.3599 30.28 33.2799 30.58 34.0899 30.68C35.6599 30.87 36.6099 28.93 35.5499 27.76C34.3899 26.49 33.1399 24.31 32.6599 20.66C31.9699 15.51 36.0199 12.92 36.0199 12.92C36.0199 12.92 29.0599 15.74 29.4499 24.11Z" fill="#92CBEB" style="fill:#92CBEB;fill:color(display-p3 0.5725 0.7961 0.9216);fill-opacity:1;"/>
<path d="M103.66 41.91C104.66 39.65 104.32 36.46 102.5 34.42C102.5 34.42 103.61 37.31 102.21 40.18C100.79 43.09 97.7803 45.81 94.6403 45.06C92.6803 44.59 94.6003 41.37 91.8403 36.63C91.9803 41.1 91.8903 51.23 78.7703 52.07C76.3703 52.22 70.6203 50.15 70.2803 46.67C69.5203 39.09 76.7203 40.14 77.7503 40.3C80.2203 40.67 82.9203 39.6 83.3303 37.65C83.7003 35.88 82.8403 35.18 82.0303 34.48C79.7103 32.5 76.0603 32.87 73.4803 34.51C69.5603 37.01 67.7503 43.63 64.6403 46.84C61.0103 50.58 55.1303 51.48 50.1203 50.04C41.5403 47.57 38.8603 36.63 38.8603 36.63C37.7403 39.49 38.7303 43.25 39.4203 44.93C30.8703 46.7 26.6003 42.25 25.2803 40.95C25.4203 41.75 25.6503 42.54 26.0103 43.28C28.2003 47.79 34.2803 49.91 38.8003 47.74C39.4403 47.43 40.1703 47.04 40.8303 47.31C41.1603 47.45 42.5403 52.51 54.9603 55.09C62.1203 56.58 70.5203 51.33 70.9903 51.32C71.5303 51.31 72.0103 51.64 72.4603 51.94C72.4603 51.94 75.7803 55.75 83.2103 53.97C90.2203 52.3 90.9003 47.54 91.5003 47.35C91.9803 47.19 100.2 49.77 103.66 41.91Z" fill="#78C0E8" style="fill:#78C0E8;fill:color(display-p3 0.4706 0.7529 0.9098);fill-opacity:1;"/>
<path d="M67.0601 5.42004C67.0601 5.42004 68.3901 7.32004 68.6601 8.31004C69.7101 12.18 67.7301 14.75 67.1601 15.8C66.8601 16.36 66.5901 17.01 66.8001 17.6C67.0301 18.24 67.7301 18.58 68.3901 18.68C70.1701 18.97 72.0201 17.99 73.0101 16.49C73.9801 14.99 75.7501 8.97004 67.0601 5.42004Z" fill="#92CBEB" style="fill:#92CBEB;fill:color(display-p3 0.5725 0.7961 0.9216);fill-opacity:1;"/>
<path d="M98.9802 29.11C99.5102 27.73 99.8402 26.26 99.9202 24.74C100.1 21.36 99.0602 18.23 97.1602 15.64C98.1102 17.37 98.3502 19.52 97.9502 21.48C97.4002 24.15 95.6902 26.48 93.7102 28.35C91.3002 30.62 93.0102 31.67 94.4002 31.67C97.7502 31.66 98.7902 29.6 98.9802 29.11Z" fill="#92CBEB" style="fill:#92CBEB;fill:color(display-p3 0.5725 0.7961 0.9216);fill-opacity:1;"/>
<path d="M70.5 65.8001V59.0801C70.5 57.8201 69.38 56.8 68 56.8C66.62 56.8 65.5 57.8201 65.5 59.0801V65.8001H70.5Z" fill="#039BE5" style="fill:#039BE5;fill:color(display-p3 0.0118 0.6078 0.8980);fill-opacity:1;"/>
<path d="M60.6201 65.8V55.56C60.6201 54.73 59.9501 54.06 59.1201 54.06C58.2901 54.06 57.6201 54.73 57.6201 55.56V65.8H60.6201Z" fill="#039BE5" style="fill:#039BE5;fill:color(display-p3 0.0118 0.6078 0.8980);fill-opacity:1;"/>
<path d="M63.72 118.8C79.12 118.8 93.52 113.6 104.12 104.3C114.95 94.69 120.99 81.44 121.65 65.8H5.79004C7.27004 102.18 36.53 118.8 63.72 118.8Z" fill="url(#paint1_radial_169_12942)" style=""/>
<path d="M63.72 118.8C79.12 118.8 93.52 113.6 104.12 104.3C114.95 94.69 120.99 81.44 121.65 65.8H5.79004C7.27004 102.18 36.53 118.8 63.72 118.8Z" fill="url(#paint2_radial_169_12942)" style=""/>
<path d="M63.72 118.8C79.12 118.8 93.52 113.6 104.12 104.3C114.95 94.69 120.99 81.44 121.65 65.8H5.79004C7.27004 102.18 36.53 118.8 63.72 118.8Z" fill="url(#paint3_radial_169_12942)" style=""/>
<path d="M63.72 118.8C79.12 118.8 93.52 113.6 104.12 104.3C114.95 94.69 120.99 81.44 121.65 65.8H5.79004C7.27004 102.18 36.53 118.8 63.72 118.8Z" fill="url(#paint4_radial_169_12942)" style=""/>
<path d="M63.72 118.8C79.12 118.8 93.52 113.6 104.12 104.3C114.95 94.69 120.99 81.44 121.65 65.8H5.79004C7.27004 102.18 36.53 118.8 63.72 118.8Z" fill="url(#paint5_radial_169_12942)" style=""/>
<path d="M13.54 92.86C13.69 93.11 13.87 93.34 14.03 93.59C13.93 93.42 13.82 93.25 13.72 93.09C13.66 93.01 13.59 92.94 13.54 92.86Z" fill="#EB8F00" style="fill:#EB8F00;fill:color(display-p3 0.9216 0.5608 0.0000);fill-opacity:1;"/>
<path d="M119.45 65.8C118.18 80.13 112.25 92.31 102.11 101.3C91.51 110.6 77.11 115.8 61.71 115.8C43.74 115.8 24.87 108.52 13.71 93.09C13.81 93.26 13.91 93.43 14.02 93.59C14.37 94.14 14.72 94.67 15.09 95.2C15.36 95.59 15.62 95.98 15.9 96.36C16.49 97.16 17.1 97.94 17.73 98.7C18.03 99.06 18.34 99.4 18.64 99.75C19.07 100.24 19.51 100.72 19.95 101.19C20.27 101.53 20.59 101.86 20.92 102.19C21.55 102.82 22.2 103.44 22.87 104.03C23.2 104.33 23.54 104.61 23.87 104.9C24.44 105.38 25.01 105.85 25.59 106.31C25.93 106.58 26.28 106.84 26.63 107.1C27.22 107.54 27.83 107.96 28.44 108.38C28.72 108.57 29 108.77 29.28 108.96C30.13 109.51 30.99 110.04 31.87 110.54C32.2 110.73 32.54 110.91 32.87 111.09C33.52 111.45 34.18 111.79 34.84 112.13C35.16 112.29 35.49 112.46 35.81 112.61C36.74 113.06 37.68 113.48 38.64 113.88C38.89 113.98 39.14 114.07 39.38 114.17C40.15 114.48 40.93 114.77 41.72 115.05C42.05 115.17 42.39 115.28 42.72 115.4C43.59 115.69 44.47 115.97 45.35 116.22C45.51 116.27 45.67 116.32 45.82 116.36C46.85 116.65 47.88 116.9 48.92 117.14C49.23 117.21 49.53 117.27 49.84 117.34C50.67 117.52 51.5 117.67 52.33 117.82C52.6 117.87 52.86 117.92 53.12 117.96C54.18 118.13 55.24 118.27 56.3 118.39C56.53 118.42 56.76 118.43 56.98 118.46C57.85 118.55 58.72 118.62 59.59 118.67C59.89 118.69 60.19 118.71 60.48 118.72C61.55 118.77 62.63 118.81 63.7 118.81C79.1 118.81 93.5 113.61 104.1 104.31C104.8 103.69 105.48 103.05 106.13 102.41C106.35 102.19 106.57 101.96 106.79 101.73C107.21 101.3 107.64 100.86 108.05 100.42C108.31 100.14 108.55 99.85 108.8 99.56C109.15 99.16 109.5 98.76 109.84 98.34C110.1 98.02 110.35 97.69 110.6 97.37C110.91 96.98 111.21 96.59 111.51 96.18C111.76 95.83 112.01 95.47 112.25 95.12C112.52 94.73 112.79 94.34 113.05 93.94C113.29 93.56 113.53 93.18 113.76 92.8C114 92.41 114.24 92.02 114.47 91.62C114.7 91.22 114.92 90.81 115.14 90.41C115.35 90.02 115.56 89.63 115.76 89.23C115.98 88.81 116.18 88.38 116.39 87.94C116.57 87.55 116.75 87.16 116.93 86.76C117.13 86.31 117.32 85.86 117.51 85.4C117.67 85.01 117.82 84.62 117.97 84.23C118.15 83.76 118.33 83.28 118.49 82.8C118.62 82.42 118.75 82.03 118.88 81.64C119.04 81.14 119.2 80.64 119.35 80.13C119.46 79.75 119.56 79.37 119.67 78.98C119.81 78.45 119.95 77.92 120.08 77.39C120.17 77.02 120.25 76.65 120.33 76.27C120.45 75.71 120.57 75.15 120.68 74.58C120.75 74.23 120.8 73.87 120.86 73.52C120.96 72.92 121.06 72.32 121.14 71.71C121.18 71.39 121.22 71.07 121.25 70.74C121.33 70.09 121.41 69.44 121.47 68.78C121.49 68.53 121.5 68.28 121.52 68.03C121.58 67.29 121.62 66.54 121.66 65.79H119.45V65.8Z" fill="#EB8F00" style="fill:#EB8F00;fill:color(display-p3 0.9216 0.5608 0.0000);fill-opacity:1;"/>
<path d="M119.45 65.8C118.18 80.13 112.25 92.31 102.11 101.3C91.51 110.6 77.11 115.8 61.71 115.8C43.74 115.8 24.87 108.52 13.71 93.09C13.81 93.26 13.91 93.43 14.02 93.59C14.37 94.14 14.72 94.67 15.09 95.2C15.36 95.59 15.62 95.98 15.9 96.36C16.49 97.16 17.1 97.94 17.73 98.7C18.03 99.06 18.34 99.4 18.64 99.75C19.07 100.24 19.51 100.72 19.95 101.19C20.27 101.53 20.59 101.86 20.92 102.19C21.55 102.82 22.2 103.44 22.87 104.03C23.2 104.33 23.54 104.61 23.87 104.9C24.44 105.38 25.01 105.85 25.59 106.31C25.93 106.58 26.28 106.84 26.63 107.1C27.22 107.54 27.83 107.96 28.44 108.38C28.72 108.57 29 108.77 29.28 108.96C30.13 109.51 30.99 110.04 31.87 110.54C32.2 110.73 32.54 110.91 32.87 111.09C33.52 111.45 34.18 111.79 34.84 112.13C35.16 112.29 35.49 112.46 35.81 112.61C36.74 113.06 37.68 113.48 38.64 113.88C38.89 113.98 39.14 114.07 39.38 114.17C40.15 114.48 40.93 114.77 41.72 115.05C42.05 115.17 42.39 115.28 42.72 115.4C43.59 115.69 44.47 115.97 45.35 116.22C45.51 116.27 45.67 116.32 45.82 116.36C46.85 116.65 47.88 116.9 48.92 117.14C49.23 117.21 49.53 117.27 49.84 117.34C50.67 117.52 51.5 117.67 52.33 117.82C52.6 117.87 52.86 117.92 53.12 117.96C54.18 118.13 55.24 118.27 56.3 118.39C56.53 118.42 56.76 118.43 56.98 118.46C57.85 118.55 58.72 118.62 59.59 118.67C59.89 118.69 60.19 118.71 60.48 118.72C61.55 118.77 62.63 118.81 63.7 118.81C79.1 118.81 93.5 113.61 104.1 104.31C104.8 103.69 105.48 103.05 106.13 102.41C106.35 102.19 106.57 101.96 106.79 101.73C107.21 101.3 107.64 100.86 108.05 100.42C108.31 100.14 108.55 99.85 108.8 99.56C109.15 99.16 109.5 98.76 109.84 98.34C110.1 98.02 110.35 97.69 110.6 97.37C110.91 96.98 111.21 96.59 111.51 96.18C111.76 95.83 112.01 95.47 112.25 95.12C112.52 94.73 112.79 94.34 113.05 93.94C113.29 93.56 113.53 93.18 113.76 92.8C114 92.41 114.24 92.02 114.47 91.62C114.7 91.22 114.92 90.81 115.14 90.41C115.35 90.02 115.56 89.63 115.76 89.23C115.98 88.81 116.18 88.38 116.39 87.94C116.57 87.55 116.75 87.16 116.93 86.76C117.13 86.31 117.32 85.86 117.51 85.4C117.67 85.01 117.82 84.62 117.97 84.23C118.15 83.76 118.33 83.28 118.49 82.8C118.62 82.42 118.75 82.03 118.88 81.64C119.04 81.14 119.2 80.64 119.35 80.13C119.46 79.75 119.56 79.37 119.67 78.98C119.81 78.45 119.95 77.92 120.08 77.39C120.17 77.02 120.25 76.65 120.33 76.27C120.45 75.71 120.57 75.15 120.68 74.58C120.75 74.23 120.8 73.87 120.86 73.52C120.96 72.92 121.06 72.32 121.14 71.71C121.18 71.39 121.22 71.07 121.25 70.74C121.33 70.09 121.41 69.44 121.47 68.78C121.49 68.53 121.5 68.28 121.52 68.03C121.58 67.29 121.62 66.54 121.66 65.79H119.45V65.8Z" fill="#EB8F00" style="fill:#EB8F00;fill:color(display-p3 0.9216 0.5608 0.0000);fill-opacity:1;"/>
<path d="M119.45 65.8C118.18 80.13 112.25 92.31 102.11 101.3C91.51 110.6 77.11 115.8 61.71 115.8C43.74 115.8 24.87 108.52 13.71 93.09C13.81 93.26 13.91 93.43 14.02 93.59C14.37 94.14 14.72 94.67 15.09 95.2C15.36 95.59 15.62 95.98 15.9 96.36C16.49 97.16 17.1 97.94 17.73 98.7C18.03 99.06 18.34 99.4 18.64 99.75C19.07 100.24 19.51 100.72 19.95 101.19C20.27 101.53 20.59 101.86 20.92 102.19C21.55 102.82 22.2 103.44 22.87 104.03C23.2 104.33 23.54 104.61 23.87 104.9C24.44 105.38 25.01 105.85 25.59 106.31C25.93 106.58 26.28 106.84 26.63 107.1C27.22 107.54 27.83 107.96 28.44 108.38C28.72 108.57 29 108.77 29.28 108.96C30.13 109.51 30.99 110.04 31.87 110.54C32.2 110.73 32.54 110.91 32.87 111.09C33.52 111.45 34.18 111.79 34.84 112.13C35.16 112.29 35.49 112.46 35.81 112.61C36.74 113.06 37.68 113.48 38.64 113.88C38.89 113.98 39.14 114.07 39.38 114.17C40.15 114.48 40.93 114.77 41.72 115.05C42.05 115.17 42.39 115.28 42.72 115.4C43.59 115.69 44.47 115.97 45.35 116.22C45.51 116.27 45.67 116.32 45.82 116.36C46.85 116.65 47.88 116.9 48.92 117.14C49.23 117.21 49.53 117.27 49.84 117.34C50.67 117.52 51.5 117.67 52.33 117.82C52.6 117.87 52.86 117.92 53.12 117.96C54.18 118.13 55.24 118.27 56.3 118.39C56.53 118.42 56.76 118.43 56.98 118.46C57.85 118.55 58.72 118.62 59.59 118.67C59.89 118.69 60.19 118.71 60.48 118.72C61.55 118.77 62.63 118.81 63.7 118.81C79.1 118.81 93.5 113.61 104.1 104.31C104.8 103.69 105.48 103.05 106.13 102.41C106.35 102.19 106.57 101.96 106.79 101.73C107.21 101.3 107.64 100.86 108.05 100.42C108.31 100.14 108.55 99.85 108.8 99.56C109.15 99.16 109.5 98.76 109.84 98.34C110.1 98.02 110.35 97.69 110.6 97.37C110.91 96.98 111.21 96.59 111.51 96.18C111.76 95.83 112.01 95.47 112.25 95.12C112.52 94.73 112.79 94.34 113.05 93.94C113.29 93.56 113.53 93.18 113.76 92.8C114 92.41 114.24 92.02 114.47 91.62C114.7 91.22 114.92 90.81 115.14 90.41C115.35 90.02 115.56 89.63 115.76 89.23C115.98 88.81 116.18 88.38 116.39 87.94C116.57 87.55 116.75 87.16 116.93 86.76C117.13 86.31 117.32 85.86 117.51 85.4C117.67 85.01 117.82 84.62 117.97 84.23C118.15 83.76 118.33 83.28 118.49 82.8C118.62 82.42 118.75 82.03 118.88 81.64C119.04 81.14 119.2 80.64 119.35 80.13C119.46 79.75 119.56 79.37 119.67 78.98C119.81 78.45 119.95 77.92 120.08 77.39C120.17 77.02 120.25 76.65 120.33 76.27C120.45 75.71 120.57 75.15 120.68 74.58C120.75 74.23 120.8 73.87 120.86 73.52C120.96 72.92 121.06 72.32 121.14 71.71C121.18 71.39 121.22 71.07 121.25 70.74C121.33 70.09 121.41 69.44 121.47 68.78C121.49 68.53 121.5 68.28 121.52 68.03C121.58 67.29 121.62 66.54 121.66 65.79H119.45V65.8Z" fill="#F3B872" style="fill:#F3B872;fill:color(display-p3 0.9542 0.7229 0.4453);fill-opacity:1;"/>
<path d="M119.45 65.8C118.18 80.13 112.25 92.31 102.11 101.3C91.51 110.6 77.11 115.8 61.71 115.8C43.74 115.8 24.87 108.52 13.71 93.09C13.81 93.26 13.91 93.43 14.02 93.59C14.37 94.14 14.72 94.67 15.09 95.2C15.36 95.59 15.62 95.98 15.9 96.36C16.49 97.16 17.1 97.94 17.73 98.7C18.03 99.06 18.34 99.4 18.64 99.75C19.07 100.24 19.51 100.72 19.95 101.19C20.27 101.53 20.59 101.86 20.92 102.19C21.55 102.82 22.2 103.44 22.87 104.03C23.2 104.33 23.54 104.61 23.87 104.9C24.44 105.38 25.01 105.85 25.59 106.31C25.93 106.58 26.28 106.84 26.63 107.1C27.22 107.54 27.83 107.96 28.44 108.38C28.72 108.57 29 108.77 29.28 108.96C30.13 109.51 30.99 110.04 31.87 110.54C32.2 110.73 32.54 110.91 32.87 111.09C33.52 111.45 34.18 111.79 34.84 112.13C35.16 112.29 35.49 112.46 35.81 112.61C36.74 113.06 37.68 113.48 38.64 113.88C38.89 113.98 39.14 114.07 39.38 114.17C40.15 114.48 40.93 114.77 41.72 115.05C42.05 115.17 42.39 115.28 42.72 115.4C43.59 115.69 44.47 115.97 45.35 116.22C45.51 116.27 45.67 116.32 45.82 116.36C46.85 116.65 47.88 116.9 48.92 117.14C49.23 117.21 49.53 117.27 49.84 117.34C50.67 117.52 51.5 117.67 52.33 117.82C52.6 117.87 52.86 117.92 53.12 117.96C54.18 118.13 55.24 118.27 56.3 118.39C56.53 118.42 56.76 118.43 56.98 118.46C57.85 118.55 58.72 118.62 59.59 118.67C59.89 118.69 60.19 118.71 60.48 118.72C61.55 118.77 62.63 118.81 63.7 118.81C79.1 118.81 93.5 113.61 104.1 104.31C104.8 103.69 105.48 103.05 106.13 102.41C106.35 102.19 106.57 101.96 106.79 101.73C107.21 101.3 107.64 100.86 108.05 100.42C108.31 100.14 108.55 99.85 108.8 99.56C109.15 99.16 109.5 98.76 109.84 98.34C110.1 98.02 110.35 97.69 110.6 97.37C110.91 96.98 111.21 96.59 111.51 96.18C111.76 95.83 112.01 95.47 112.25 95.12C112.52 94.73 112.79 94.34 113.05 93.94C113.29 93.56 113.53 93.18 113.76 92.8C114 92.41 114.24 92.02 114.47 91.62C114.7 91.22 114.92 90.81 115.14 90.41C115.35 90.02 115.56 89.63 115.76 89.23C115.98 88.81 116.18 88.38 116.39 87.94C116.57 87.55 116.75 87.16 116.93 86.76C117.13 86.31 117.32 85.86 117.51 85.4C117.67 85.01 117.82 84.62 117.97 84.23C118.15 83.76 118.33 83.28 118.49 82.8C118.62 82.42 118.75 82.03 118.88 81.64C119.04 81.14 119.2 80.64 119.35 80.13C119.46 79.75 119.56 79.37 119.67 78.98C119.81 78.45 119.95 77.92 120.08 77.39C120.17 77.02 120.25 76.65 120.33 76.27C120.45 75.71 120.57 75.15 120.68 74.58C120.75 74.23 120.8 73.87 120.86 73.52C120.96 72.92 121.06 72.32 121.14 71.71C121.18 71.39 121.22 71.07 121.25 70.74C121.33 70.09 121.41 69.44 121.47 68.78C121.49 68.53 121.5 68.28 121.52 68.03C121.58 67.29 121.62 66.54 121.66 65.79H119.45V65.8Z" fill="#91674D" style="fill:#91674D;fill:color(display-p3 0.5686 0.4039 0.3020);fill-opacity:1;"/>
<path d="M121.51 68.04C121.57 67.3 121.62 66.55 121.65 65.8H121.64C121.61 66.55 121.56 67.3 121.51 68.04Z" fill="#EB8F00" style="fill:#EB8F00;fill:color(display-p3 0.9216 0.5608 0.0000);fill-opacity:1;"/>
<path d="M121.51 68.04C121.57 67.3 121.62 66.55 121.65 65.8H121.64C121.61 66.55 121.56 67.3 121.51 68.04Z" fill="url(#paint6_radial_169_12942)" style=""/>
<path d="M77.93 104.94C77.93 110.54 71.74 113.83 64.11 113.83C56.48 113.83 50.29 110.54 50.29 104.94C50.29 99.34 56.48 93.25 64.11 93.25C71.74 93.25 77.93 99.34 77.93 104.94Z" fill="#49362E" style="fill:#49362E;fill:color(display-p3 0.2863 0.2118 0.1804);fill-opacity:1;"/>
<path d="M77.93 104.94C77.93 110.54 71.74 113.83 64.11 113.83C56.48 113.83 50.29 110.54 50.29 104.94C50.29 99.34 56.48 93.25 64.11 93.25C71.74 93.25 77.93 99.34 77.93 104.94Z" fill="#1A1717" style="fill:#1A1717;fill:color(display-p3 0.1020 0.0902 0.0902);fill-opacity:1;"/>
<path d="M77.93 104.94C77.93 110.54 71.74 113.83 64.11 113.83C56.48 113.83 50.29 110.54 50.29 104.94C50.29 99.34 56.48 93.25 64.11 93.25C71.74 93.25 77.93 99.34 77.93 104.94Z" fill="#5D4037" style="fill:#5D4037;fill:color(display-p3 0.3647 0.2510 0.2157);fill-opacity:1;"/>
<path d="M41.5998 90.64C50.1658 90.64 57.1098 83.6959 57.1098 75.13C57.1098 66.5641 50.1658 59.62 41.5998 59.62C33.0339 59.62 26.0898 66.5641 26.0898 75.13C26.0898 83.6959 33.0339 90.64 41.5998 90.64Z" fill="white" style="fill:white;fill-opacity:1;"/>
<path d="M41.5997 81.9C45.2834 81.9 48.2697 78.8689 48.2697 75.13C48.2697 71.391 45.2834 68.36 41.5997 68.36C37.9159 68.36 34.9297 71.391 34.9297 75.13C34.9297 78.8689 37.9159 81.9 41.5997 81.9Z" fill="#49362E" style="fill:#49362E;fill:color(display-p3 0.2863 0.2118 0.1804);fill-opacity:1;"/>
<path d="M86.5998 90.64C95.1658 90.64 102.11 83.6959 102.11 75.13C102.11 66.5641 95.1658 59.62 86.5998 59.62C78.0339 59.62 71.0898 66.5641 71.0898 75.13C71.0898 83.6959 78.0339 90.64 86.5998 90.64Z" fill="white" style="fill:white;fill-opacity:1;"/>
<path d="M86.62 81.98C90.3037 81.98 93.29 78.949 93.29 75.21C93.29 71.471 90.3037 68.44 86.62 68.44C82.9362 68.44 79.95 71.471 79.95 75.21C79.95 78.949 82.9362 81.98 86.62 81.98Z" fill="#49362E" style="fill:#49362E;fill:color(display-p3 0.2863 0.2118 0.1804);fill-opacity:1;"/>
<defs>
<linearGradient id="paint0_linear_169_12942" x1="64.1175" y1="60.7056" x2="64.1175" y2="67.8342" gradientUnits="userSpaceOnUse">
<stop stop-color="#78C0E8" style="stop-color:#78C0E8;stop-color:color(display-p3 0.4706 0.7529 0.9098);stop-opacity:1;"/>
<stop offset="1" stop-color="#31A0D6" style="stop-color:#31A0D6;stop-color:color(display-p3 0.1922 0.6275 0.8392);stop-opacity:1;"/>
</linearGradient>
<radialGradient id="paint1_radial_169_12942" cx="0" cy="0" r="1" gradientUnits="userSpaceOnUse" gradientTransform="translate(63.7199 62.8999) scale(56.957 56.957)">
<stop offset="0.5" stop-color="#FDE030" style="stop-color:#FDE030;stop-color:color(display-p3 0.9922 0.8784 0.1882);stop-opacity:1;"/>
<stop offset="0.9188" stop-color="#F7C02B" style="stop-color:#F7C02B;stop-color:color(display-p3 0.9686 0.7529 0.1686);stop-opacity:1;"/>
<stop offset="1" stop-color="#F4A223" style="stop-color:#F4A223;stop-color:color(display-p3 0.9569 0.6353 0.1373);stop-opacity:1;"/>
</radialGradient>
<radialGradient id="paint2_radial_169_12942" cx="0" cy="0" r="1" gradientUnits="userSpaceOnUse" gradientTransform="translate(38.7493 78.8546) rotate(-24.0292) scale(81.3199 60.4878)">
<stop offset="0.3533" stop-color="#F9DDBD" style="stop-color:#F9DDBD;stop-color:color(display-p3 0.9765 0.8667 0.7412);stop-opacity:1;"/>
<stop offset="0.8723" stop-color="#FFD29C" style="stop-color:#FFD29C;stop-color:color(display-p3 1.0000 0.8235 0.6118);stop-opacity:1;"/>
</radialGradient>
<radialGradient id="paint3_radial_169_12942" cx="0" cy="0" r="1" gradientUnits="userSpaceOnUse" gradientTransform="translate(38.7493 78.8546) rotate(-24.0292) scale(81.3199 60.4878)">
<stop offset="0.3533" stop-color="#70534A" style="stop-color:#70534A;stop-color:color(display-p3 0.4392 0.3255 0.2902);stop-opacity:1;"/>
<stop offset="0.8723" stop-color="#5C4037" style="stop-color:#5C4037;stop-color:color(display-p3 0.3608 0.2510 0.2157);stop-opacity:1;"/>
</radialGradient>
<radialGradient id="paint4_radial_169_12942" cx="0" cy="0" r="1" gradientUnits="userSpaceOnUse" gradientTransform="translate(38.7493 78.8546) rotate(-24.0292) scale(81.3199 60.4878)">
<stop offset="0.3533" stop-color="#A37A58" style="stop-color:#A37A58;stop-color:color(display-p3 0.6375 0.4772 0.3453);stop-opacity:1;"/>
<stop offset="0.8723" stop-color="#8D5738" style="stop-color:#8D5738;stop-color:color(display-p3 0.5529 0.3412 0.2196);stop-opacity:1;"/>
</radialGradient>
<radialGradient id="paint5_radial_169_12942" cx="0" cy="0" r="1" gradientUnits="userSpaceOnUse" gradientTransform="translate(38.7493 78.8546) rotate(-24.0292) scale(81.3199 60.4878)">
<stop offset="0.3533" stop-color="#AD8264" style="stop-color:#AD8264;stop-color:color(display-p3 0.6784 0.5098 0.3922);stop-opacity:1;"/>
<stop offset="0.8723" stop-color="#A47B62" style="stop-color:#A47B62;stop-color:color(display-p3 0.6431 0.4824 0.3843);stop-opacity:1;"/>
</radialGradient>
<radialGradient id="paint6_radial_169_12942" cx="0" cy="0" r="1" gradientUnits="userSpaceOnUse" gradientTransform="translate(63.7201 62.9) scale(56.9569 56.957)">
<stop offset="0.5" stop-color="#FDE030" style="stop-color:#FDE030;stop-color:color(display-p3 0.9922 0.8784 0.1882);stop-opacity:1;"/>
<stop offset="0.9188" stop-color="#F7C02B" style="stop-color:#F7C02B;stop-color:color(display-p3 0.9686 0.7529 0.1686);stop-opacity:1;"/>
<stop offset="1" stop-color="#F4A223" style="stop-color:#F4A223;stop-color:color(display-p3 0.9569 0.6353 0.1373);stop-opacity:1;"/>
</radialGradient>
</defs>
</svg>
