<svg width="128" height="128" viewBox="0 0 128 128" fill="none" xmlns="http://www.w3.org/2000/svg">
<path d="M63.6 118.8C35.7 118.8 5.59998 101.3 5.59998 62.9C5.59998 24.5 35.7 7 63.6 7C79.1 7 93.4 12.1 104 21.4C115.5 31.6 121.6 46 121.6 62.9C121.6 79.8 115.5 94.1 104 104.3C93.4 113.6 79 118.8 63.6 118.8Z" fill="url(#paint0_radial_169_10123)" style=""/>
<path d="M63.6 118.8C35.7 118.8 5.59998 101.3 5.59998 62.9C5.59998 24.5 35.7 7 63.6 7C79.1 7 93.4 12.1 104 21.4C115.5 31.6 121.6 46 121.6 62.9C121.6 79.8 115.5 94.1 104 104.3C93.4 113.6 79 118.8 63.6 118.8Z" fill="url(#paint1_linear_169_10123)" style=""/>
<path d="M63.6 118.8C35.7 118.8 5.59998 101.3 5.59998 62.9C5.59998 24.5 35.7 7 63.6 7C79.1 7 93.4 12.1 104 21.4C115.5 31.6 121.6 46 121.6 62.9C121.6 79.8 115.5 94.1 104 104.3C93.4 113.6 79 118.8 63.6 118.8Z" fill="url(#paint2_radial_169_10123)" style=""/>
<path d="M63.6 118.8C35.7 118.8 5.59998 101.3 5.59998 62.9C5.59998 24.5 35.7 7 63.6 7C79.1 7 93.4 12.1 104 21.4C115.5 31.6 121.6 46 121.6 62.9C121.6 79.8 115.5 94.1 104 104.3C93.4 113.6 79 118.8 63.6 118.8Z" fill="url(#paint3_radial_169_10123)" style=""/>
<path d="M63.6 118.8C35.7 118.8 5.59998 101.3 5.59998 62.9C5.59998 24.5 35.7 7 63.6 7C79.1 7 93.4 12.1 104 21.4C115.5 31.6 121.6 46 121.6 62.9C121.6 79.8 115.5 94.1 104 104.3C93.4 113.6 79 118.8 63.6 118.8Z" fill="url(#paint4_radial_169_10123)" style=""/>
<path d="M111.49 29.67C116.82 38.27 119.6 48.51 119.6 59.9C119.6 76.8 113.5 91.1 102 101.3C91.3999 110.6 76.9999 115.8 61.5999 115.8C43.5399 115.8 24.5999 108.45 13.4199 92.86C24.1799 110.52 44.4199 118.8 63.5999 118.8C78.9999 118.8 93.3999 113.6 104 104.3C115.5 94.1 121.6 79.8 121.6 62.9C121.6 50.16 118.13 38.84 111.49 29.67Z" fill="#F3B872" style="fill:#F3B872;fill:color(display-p3 0.9542 0.7229 0.4453);fill-opacity:1;"/>
<path d="M111.49 29.67C116.82 38.27 119.6 48.51 119.6 59.9C119.6 76.8 113.5 91.1 102 101.3C91.3999 110.6 76.9999 115.8 61.5999 115.8C43.5399 115.8 24.5999 108.45 13.4199 92.86C24.1799 110.52 44.4199 118.8 63.5999 118.8C78.9999 118.8 93.3999 113.6 104 104.3C115.5 94.1 121.6 79.8 121.6 62.9C121.6 50.16 118.13 38.84 111.49 29.67Z" fill="#4A2F27" style="fill:#4A2F27;fill:color(display-p3 0.2902 0.1843 0.1529);fill-opacity:1;"/>
<path opacity="0.66" d="M6.47998 75.11C7.47998 72.5 11.9 72.46 15.17 74.04C21.5 77.11 20.75 83.83 23.92 85.17C27.09 86.51 37.1 78.3 51.17 77C52.75 76.85 62.08 75.68 63 79.6C63.36 81.15 60.72 81.45 60.72 81.45C55 83.57 49.18 85.73 44.06 89.08C38.25 92.87 33.17 98.23 26.42 99.81C23.79 100.42 20.82 100.33 18.68 98.7C16.02 96.7 15.43 93.03 14.46 89.84C13.35 86.19 11.52 82.79 9.09998 79.84" fill="url(#paint5_linear_169_10123)" style=""/>
<path d="M6.36003 75.1C4.54003 77.31 8.41003 83.18 9.10003 86.17C10.76 93.39 9.10003 95.17 8.97003 101.59C8.86003 108.65 10.97 114.59 16.35 118.38C21.41 121.97 26.98 122.38 34.78 120.08C42.58 117.78 47.85 116.67 48.25 112.83C48.47 111.24 47.63 109.68 46.17 109C46.95 108.63 47.57 108 47.92 107.21C49.78 102.77 46.07 101.83 46.07 101.83C46.58 101.22 47.01 100.55 47.35 99.83C48.46 97.62 48.28 94.62 45.08 93.64C43.61 93.19 43.21 93.43 43.21 93.43C44.73 91.87 46.55 90.62 48.56 89.78C53.94 87.47 60.32 86.07 61.91 84.72C64.22 82.72 64.36 78.87 60.28 77.72C54.42 76 43.64 80 37.08 84.17C30.52 88.34 24.5 90.59 22.5 89.83C20.5 89.07 19.26 87.83 18.5 84.83C17.09 79.25 16 77.09 13.61 75C11.63 73.3 7.76003 73.4 6.36003 75.1Z" fill="url(#paint6_radial_169_10123)" style=""/>
<path d="M6.36003 75.1C4.54003 77.31 8.41003 83.18 9.10003 86.17C10.76 93.39 9.10003 95.17 8.97003 101.59C8.86003 108.65 10.97 114.59 16.35 118.38C21.41 121.97 26.98 122.38 34.78 120.08C42.58 117.78 47.85 116.67 48.25 112.83C48.47 111.24 47.63 109.68 46.17 109C46.95 108.63 47.57 108 47.92 107.21C49.78 102.77 46.07 101.83 46.07 101.83C46.58 101.22 47.01 100.55 47.35 99.83C48.46 97.62 48.28 94.62 45.08 93.64C43.61 93.19 43.21 93.43 43.21 93.43C44.73 91.87 46.55 90.62 48.56 89.78C53.94 87.47 60.32 86.07 61.91 84.72C64.22 82.72 64.36 78.87 60.28 77.72C54.42 76 43.64 80 37.08 84.17C30.52 88.34 24.5 90.59 22.5 89.83C20.5 89.07 19.26 87.83 18.5 84.83C17.09 79.25 16 77.09 13.61 75C11.63 73.3 7.76003 73.4 6.36003 75.1Z" fill="url(#paint7_radial_169_10123)" style=""/>
<path d="M6.36003 75.1C4.54003 77.31 8.41003 83.18 9.10003 86.17C10.76 93.39 9.10003 95.17 8.97003 101.59C8.86003 108.65 10.97 114.59 16.35 118.38C21.41 121.97 26.98 122.38 34.78 120.08C42.58 117.78 47.85 116.67 48.25 112.83C48.47 111.24 47.63 109.68 46.17 109C46.95 108.63 47.57 108 47.92 107.21C49.78 102.77 46.07 101.83 46.07 101.83C46.58 101.22 47.01 100.55 47.35 99.83C48.46 97.62 48.28 94.62 45.08 93.64C43.61 93.19 43.21 93.43 43.21 93.43C44.73 91.87 46.55 90.62 48.56 89.78C53.94 87.47 60.32 86.07 61.91 84.72C64.22 82.72 64.36 78.87 60.28 77.72C54.42 76 43.64 80 37.08 84.17C30.52 88.34 24.5 90.59 22.5 89.83C20.5 89.07 19.26 87.83 18.5 84.83C17.09 79.25 16 77.09 13.61 75C11.63 73.3 7.76003 73.4 6.36003 75.1Z" fill="url(#paint8_radial_169_10123)" style=""/>
<path d="M6.36003 75.1C4.54003 77.31 8.41003 83.18 9.10003 86.17C10.76 93.39 9.10003 95.17 8.97003 101.59C8.86003 108.65 10.97 114.59 16.35 118.38C21.41 121.97 26.98 122.38 34.78 120.08C42.58 117.78 47.85 116.67 48.25 112.83C48.47 111.24 47.63 109.68 46.17 109C46.95 108.63 47.57 108 47.92 107.21C49.78 102.77 46.07 101.83 46.07 101.83C46.58 101.22 47.01 100.55 47.35 99.83C48.46 97.62 48.28 94.62 45.08 93.64C43.61 93.19 43.21 93.43 43.21 93.43C44.73 91.87 46.55 90.62 48.56 89.78C53.94 87.47 60.32 86.07 61.91 84.72C64.22 82.72 64.36 78.87 60.28 77.72C54.42 76 43.64 80 37.08 84.17C30.52 88.34 24.5 90.59 22.5 89.83C20.5 89.07 19.26 87.83 18.5 84.83C17.09 79.25 16 77.09 13.61 75C11.63 73.3 7.76003 73.4 6.36003 75.1Z" fill="url(#paint9_radial_169_10123)" style=""/>
<path d="M6.36003 75.1C4.54003 77.31 8.41003 83.18 9.10003 86.17C10.76 93.39 9.10003 95.17 8.97003 101.59C8.86003 108.65 10.97 114.59 16.35 118.38C21.41 121.97 26.98 122.38 34.78 120.08C42.58 117.78 47.85 116.67 48.25 112.83C48.47 111.24 47.63 109.68 46.17 109C46.95 108.63 47.57 108 47.92 107.21C49.78 102.77 46.07 101.83 46.07 101.83C46.58 101.22 47.01 100.55 47.35 99.83C48.46 97.62 48.28 94.62 45.08 93.64C43.61 93.19 43.21 93.43 43.21 93.43C44.73 91.87 46.55 90.62 48.56 89.78C53.94 87.47 60.32 86.07 61.91 84.72C64.22 82.72 64.36 78.87 60.28 77.72C54.42 76 43.64 80 37.08 84.17C30.52 88.34 24.5 90.59 22.5 89.83C20.5 89.07 19.26 87.83 18.5 84.83C17.09 79.25 16 77.09 13.61 75C11.63 73.3 7.76003 73.4 6.36003 75.1Z" fill="url(#paint10_radial_169_10123)" style=""/>
<path d="M38.88 96.78C38.88 96.78 37.41 95.78 43.28 91.09C47.28 87.88 49.59 87.3 54.38 86.09C64.06 83.72 63.45 80.67 63.45 80.67C63.97 85.16 59.53 86.16 56.28 87.18C55.94 87.28 55.62 87.41 55.28 87.49C44.15 90.33 40.26 97.67 38.88 96.78Z" fill="url(#paint11_linear_169_10123)" style=""/>
<path d="M38.88 96.78C38.88 96.78 37.41 95.78 43.28 91.09C47.28 87.88 49.59 87.3 54.38 86.09C64.06 83.72 63.45 80.67 63.45 80.67C63.97 85.16 59.53 86.16 56.28 87.18C55.94 87.28 55.62 87.41 55.28 87.49C44.15 90.33 40.26 97.67 38.88 96.78Z" fill="#4A2F27" style="fill:#4A2F27;fill:color(display-p3 0.2902 0.1843 0.1529);fill-opacity:1;"/>
<path d="M48 107.91C48.87 106.47 49.11 104.72 48.65 103.1C48.33 102.15 47.72 101.32 46.89 100.75C47.01 100.59 47.13 100.44 47.24 100.26C48.13 98.87 48.26 97.12 47.59 95.61C46.83 94.42 45.59 93.63 44.2 93.45C45.15 93.91 45.86 94.76 46.14 95.78C46.3 97.01 46.12 98.27 45.64 99.41C45 100.97 43.57 102.06 41.9 102.28C39.48 102.76 40.22 103.76 40.22 103.76C40.43 104.56 43.29 103.82 45.46 102.2C46.07 102.52 46.53 103.07 46.75 103.72C46.98 104.73 46.84 105.8 46.36 106.72C45.69 108.19 44.39 109.29 42.83 109.72C40.68 110.31 41.27 111.1 41.27 111.1C41.27 111.1 41.37 112.8 45.79 110C46.31 111 47 113.23 45.62 114.67C40.94 119.6 27.15 121.5 27.15 121.5C34.15 121.5 43.77 118.8 46.75 116.33C47.91 115.42 48.59 114.04 48.6 112.57C48.73 111.2 48.22 109.84 47.23 108.88C47.51 108.58 47.77 108.26 48 107.91Z" fill="url(#paint12_linear_169_10123)" style=""/>
<path d="M48 107.91C48.87 106.47 49.11 104.72 48.65 103.1C48.33 102.15 47.72 101.32 46.89 100.75C47.01 100.59 47.13 100.44 47.24 100.26C48.13 98.87 48.26 97.12 47.59 95.61C46.83 94.42 45.59 93.63 44.2 93.45C45.15 93.91 45.86 94.76 46.14 95.78C46.3 97.01 46.12 98.27 45.64 99.41C45 100.97 43.57 102.06 41.9 102.28C39.48 102.76 40.22 103.76 40.22 103.76C40.43 104.56 43.29 103.82 45.46 102.2C46.07 102.52 46.53 103.07 46.75 103.72C46.98 104.73 46.84 105.8 46.36 106.72C45.69 108.19 44.39 109.29 42.83 109.72C40.68 110.31 41.27 111.1 41.27 111.1C41.27 111.1 41.37 112.8 45.79 110C46.31 111 47 113.23 45.62 114.67C40.94 119.6 27.15 121.5 27.15 121.5C34.15 121.5 43.77 118.8 46.75 116.33C47.91 115.42 48.59 114.04 48.6 112.57C48.73 111.2 48.22 109.84 47.23 108.88C47.51 108.58 47.77 108.26 48 107.91Z" fill="#4A2F27" style="fill:#4A2F27;fill:color(display-p3 0.2902 0.1843 0.1529);fill-opacity:1;"/>
<path d="M76.87 71.31C76.55 71.25 76.25 71.12 76 70.91C71.49 67.29 66.11 64.93 60.4 64.05C54.69 63.06 48.83 63.6 43.4 65.61C43.1 65.73 42.78 65.77 42.46 65.72C41.76 65.6 41.19 65.08 41 64.39C40.81 63.71 41.04 62.99 41.58 62.54C52.18 53.74 67.9 55.2 76.7 65.8C77.42 66.67 78.08 67.59 78.68 68.54C79.06 69.13 79.06 69.89 78.68 70.48C78.29 71.09 77.58 71.41 76.87 71.31Z" fill="#42312C" style="fill:#42312C;fill:color(display-p3 0.2588 0.1922 0.1725);fill-opacity:1;"/>
<path d="M76.87 71.31C76.55 71.25 76.25 71.12 76 70.91C71.49 67.29 66.11 64.93 60.4 64.05C54.69 63.06 48.83 63.6 43.4 65.61C43.1 65.73 42.78 65.77 42.46 65.72C41.76 65.6 41.19 65.08 41 64.39C40.81 63.71 41.04 62.99 41.58 62.54C52.18 53.74 67.9 55.2 76.7 65.8C77.42 66.67 78.08 67.59 78.68 68.54C79.06 69.13 79.06 69.89 78.68 70.48C78.29 71.09 77.58 71.41 76.87 71.31Z" fill="#42312C" style="fill:#42312C;fill:color(display-p3 0.2588 0.1922 0.1725);fill-opacity:1;"/>
<path d="M80.77 31.11C84.96 31.11 88.77 34.65 88.77 40.53C88.77 46.41 84.96 49.94 80.77 49.94C76.58 49.94 72.77 46.4 72.77 40.53C72.77 34.66 76.58 31.11 80.77 31.11Z" fill="#42312C" style="fill:#42312C;fill:color(display-p3 0.2588 0.1922 0.1725);fill-opacity:1;"/>
<path d="M80.77 31.11C84.96 31.11 88.77 34.65 88.77 40.53C88.77 46.41 84.96 49.94 80.77 49.94C76.58 49.94 72.77 46.4 72.77 40.53C72.77 34.66 76.58 31.11 80.77 31.11Z" fill="#42312C" style="fill:#42312C;fill:color(display-p3 0.2588 0.1922 0.1725);fill-opacity:1;"/>
<path d="M80.77 31.11C84.96 31.11 88.77 34.65 88.77 40.53C88.77 46.41 84.96 49.94 80.77 49.94C76.58 49.94 72.77 46.4 72.77 40.53C72.77 34.66 76.58 31.11 80.77 31.11Z" fill="#42312C" style="fill:#42312C;fill:color(display-p3 0.2588 0.1922 0.1725);fill-opacity:1;"/>
<path d="M46.14 22C41.95 22 38.14 25.54 38.14 31.41C38.14 37.28 41.95 40.83 46.14 40.83C50.34 40.83 54.14 37.29 54.14 31.41C54.14 25.53 50.34 22 46.14 22Z" fill="#42312C" style="fill:#42312C;fill:color(display-p3 0.2588 0.1922 0.1725);fill-opacity:1;"/>
<path d="M46.14 22C41.95 22 38.14 25.54 38.14 31.41C38.14 37.28 41.95 40.83 46.14 40.83C50.34 40.83 54.14 37.29 54.14 31.41C54.14 25.53 50.34 22 46.14 22Z" fill="#42312C" style="fill:#42312C;fill:color(display-p3 0.2588 0.1922 0.1725);fill-opacity:1;"/>
<path d="M39.73 10.63C39.28 9.89001 39.22 8.97001 39.57 8.18001C39.95 7.39001 40.7 6.85001 41.57 6.74001C47.02 5.89001 52.58 7.18001 57.1 10.33C58.79 11.49 60.29 12.89 61.56 14.5C61.64 14.6 61.71 14.71 61.78 14.83C62.46 15.89 62.23 17.29 61.25 18.08C60.2 18.95 58.66 18.92 57.65 18L58.07 17.32L57.56 17.92C53.18 14.26 47.7 12.17 42 12C41.05 12 40.17 11.5 39.69 10.68L39.73 10.63Z" fill="#42312C" style="fill:#42312C;fill:color(display-p3 0.2588 0.1922 0.1725);fill-opacity:1;"/>
<path d="M39.73 10.63C39.28 9.89001 39.22 8.97001 39.57 8.18001C39.95 7.39001 40.7 6.85001 41.57 6.74001C47.02 5.89001 52.58 7.18001 57.1 10.33C58.79 11.49 60.29 12.89 61.56 14.5C61.64 14.6 61.71 14.71 61.78 14.83C62.46 15.89 62.23 17.29 61.25 18.08C60.2 18.95 58.66 18.92 57.65 18L58.07 17.32L57.56 17.92C53.18 14.26 47.7 12.17 42 12C41.05 12 40.17 11.5 39.69 10.68L39.73 10.63Z" fill="#42312C" style="fill:#42312C;fill:color(display-p3 0.2588 0.1922 0.1725);fill-opacity:1;"/>
<path d="M93 28.52C93.74 28.11 94.24 27.36 94.34 26.52C94.4 25.65 94.03 24.81 93.34 24.28C89.01 20.83 83.51 19.18 78 19.7C75.96 19.87 73.96 20.35 72.06 21.12L71.7 21.29C70.59 21.88 70.1 23.21 70.56 24.38C71.05 25.65 72.38 26.37 73.71 26.08V25.28L73.85 26.06C79.45 25.02 85.24 25.89 90.29 28.53C91.12 29 92.13 29 92.96 28.53L93 28.52Z" fill="#42312C" style="fill:#42312C;fill:color(display-p3 0.2588 0.1922 0.1725);fill-opacity:1;"/>
<path d="M93 28.52C93.74 28.11 94.24 27.36 94.34 26.52C94.4 25.65 94.03 24.81 93.34 24.28C89.01 20.83 83.51 19.18 78 19.7C75.96 19.87 73.96 20.35 72.06 21.12L71.7 21.29C70.59 21.88 70.1 23.21 70.56 24.38C71.05 25.65 72.38 26.37 73.71 26.08V25.28L73.85 26.06C79.45 25.02 85.24 25.89 90.29 28.53C91.12 29 92.13 29 92.96 28.53L93 28.52Z" fill="#42312C" style="fill:#42312C;fill:color(display-p3 0.2588 0.1922 0.1725);fill-opacity:1;"/>
<defs>
<radialGradient id="paint0_radial_169_10123" cx="0" cy="0" r="1" gradientUnits="userSpaceOnUse" gradientTransform="translate(63.6 62.9) scale(56.9597 56.9597)">
<stop offset="0.5" stop-color="#FDE030" style="stop-color:#FDE030;stop-color:color(display-p3 0.9922 0.8784 0.1882);stop-opacity:1;"/>
<stop offset="0.92" stop-color="#F7C02B" style="stop-color:#F7C02B;stop-color:color(display-p3 0.9686 0.7529 0.1686);stop-opacity:1;"/>
<stop offset="1" stop-color="#F4A223" style="stop-color:#F4A223;stop-color:color(display-p3 0.9569 0.6353 0.1373);stop-opacity:1;"/>
</radialGradient>
<linearGradient id="paint1_linear_169_10123" x1="63.6" y1="118.8" x2="63.6" y2="7" gradientUnits="userSpaceOnUse">
<stop stop-color="#F4A223" style="stop-color:#F4A223;stop-color:color(display-p3 0.9569 0.6353 0.1373);stop-opacity:1;"/>
<stop offset="0.08" stop-color="#F7C02B" style="stop-color:#F7C02B;stop-color:color(display-p3 0.9686 0.7529 0.1686);stop-opacity:1;"/>
<stop offset="0.54" stop-color="#FDE030" stop-opacity="0" style="stop-color:none;stop-opacity:0;"/>
</linearGradient>
<radialGradient id="paint2_radial_169_10123" cx="0" cy="0" r="1" gradientUnits="userSpaceOnUse" gradientTransform="translate(38.599 34.5377) rotate(-43.2082) scale(102.024 101.825)">
<stop offset="0.3533" stop-color="#F9DDBD" style="stop-color:#F9DDBD;stop-color:color(display-p3 0.9765 0.8667 0.7412);stop-opacity:1;"/>
<stop offset="0.8723" stop-color="#FFD29C" style="stop-color:#FFD29C;stop-color:color(display-p3 1.0000 0.8235 0.6118);stop-opacity:1;"/>
</radialGradient>
<radialGradient id="paint3_radial_169_10123" cx="0" cy="0" r="1" gradientUnits="userSpaceOnUse" gradientTransform="translate(38.599 34.5377) rotate(-43.2082) scale(102.024 101.825)">
<stop offset="0.3533" stop-color="#70534A" style="stop-color:#70534A;stop-color:color(display-p3 0.4392 0.3255 0.2902);stop-opacity:1;"/>
<stop offset="0.8723" stop-color="#5C4037" style="stop-color:#5C4037;stop-color:color(display-p3 0.3608 0.2510 0.2157);stop-opacity:1;"/>
</radialGradient>
<radialGradient id="paint4_radial_169_10123" cx="0" cy="0" r="1" gradientUnits="userSpaceOnUse" gradientTransform="translate(38.599 34.5377) rotate(-43.2082) scale(102.024 101.825)">
<stop offset="0.3533" stop-color="#A56C43" style="stop-color:#A56C43;stop-color:color(display-p3 0.6471 0.4235 0.2627);stop-opacity:1;"/>
<stop offset="0.8723" stop-color="#8D5738" style="stop-color:#8D5738;stop-color:color(display-p3 0.5529 0.3412 0.2196);stop-opacity:1;"/>
</radialGradient>
<linearGradient id="paint5_linear_169_10123" x1="34.9734" y1="106.41" x2="34.7234" y2="73.03" gradientUnits="userSpaceOnUse">
<stop stop-color="#140905" style="stop-color:#140905;stop-color:color(display-p3 0.0792 0.0350 0.0214);stop-opacity:1;"/>
<stop offset="1" stop-color="#2C1109" stop-opacity="0.2" style="stop-color:#2C1109;stop-color:color(display-p3 0.1708 0.0679 0.0363);stop-opacity:0.2;"/>
</linearGradient>
<radialGradient id="paint6_radial_169_10123" cx="0" cy="0" r="1" gradientUnits="userSpaceOnUse" gradientTransform="translate(41.45 83.311) scale(59.21 55.6574)">
<stop offset="0.27" stop-color="#FFF176" style="stop-color:#FFF176;stop-color:color(display-p3 1.0000 0.9451 0.4627);stop-opacity:1;"/>
<stop offset="1" stop-color="#FFC400" style="stop-color:#FFC400;stop-color:color(display-p3 1.0000 0.7686 0.0000);stop-opacity:1;"/>
</radialGradient>
<radialGradient id="paint7_radial_169_10123" cx="0" cy="0" r="1" gradientUnits="userSpaceOnUse" gradientTransform="translate(22.2768 85.5319) rotate(-38.9059) scale(47.4884 46.418)">
<stop offset="0.3533" stop-color="#F9DDBD" style="stop-color:#F9DDBD;stop-color:color(display-p3 0.9765 0.8667 0.7412);stop-opacity:1;"/>
<stop offset="0.8723" stop-color="#FFD29C" style="stop-color:#FFD29C;stop-color:color(display-p3 1.0000 0.8235 0.6118);stop-opacity:1;"/>
</radialGradient>
<radialGradient id="paint8_radial_169_10123" cx="0" cy="0" r="1" gradientUnits="userSpaceOnUse" gradientTransform="translate(22.2768 85.5319) rotate(-38.9059) scale(47.4884 46.418)">
<stop offset="0.3533" stop-color="#70534A" style="stop-color:#70534A;stop-color:color(display-p3 0.4392 0.3255 0.2902);stop-opacity:1;"/>
<stop offset="0.8723" stop-color="#5C4037" style="stop-color:#5C4037;stop-color:color(display-p3 0.3608 0.2510 0.2157);stop-opacity:1;"/>
</radialGradient>
<radialGradient id="paint9_radial_169_10123" cx="0" cy="0" r="1" gradientUnits="userSpaceOnUse" gradientTransform="translate(22.2768 85.5319) rotate(-38.9059) scale(47.4884 46.418)">
<stop offset="0.3533" stop-color="#A56C43" style="stop-color:#A56C43;stop-color:color(display-p3 0.6471 0.4235 0.2627);stop-opacity:1;"/>
<stop offset="0.8723" stop-color="#8D5738" style="stop-color:#8D5738;stop-color:color(display-p3 0.5529 0.3412 0.2196);stop-opacity:1;"/>
</radialGradient>
<radialGradient id="paint10_radial_169_10123" cx="0" cy="0" r="1" gradientUnits="userSpaceOnUse" gradientTransform="translate(31.5082 73.7739) rotate(33.4936) scale(63.1673 61.7434)">
<stop offset="0.3533" stop-color="#BC8157" style="stop-color:#BC8157;stop-color:color(display-p3 0.7375 0.5069 0.3411);stop-opacity:1;"/>
<stop offset="0.8723" stop-color="#8D5738" style="stop-color:#8D5738;stop-color:color(display-p3 0.5529 0.3412 0.2196);stop-opacity:1;"/>
</radialGradient>
<linearGradient id="paint11_linear_169_10123" x1="39.2813" y1="94.6326" x2="64.4713" y2="82.1226" gradientUnits="userSpaceOnUse">
<stop offset="0.13" stop-color="#DA6727" style="stop-color:#DA6727;stop-color:color(display-p3 0.8549 0.4039 0.1529);stop-opacity:1;"/>
<stop offset="1" stop-color="#FFC400" style="stop-color:#FFC400;stop-color:color(display-p3 1.0000 0.7686 0.0000);stop-opacity:1;"/>
</linearGradient>
<linearGradient id="paint12_linear_169_10123" x1="37.9791" y1="119.47" x2="38.1891" y2="81.5" gradientUnits="userSpaceOnUse">
<stop offset="0.13" stop-color="#DA6727" style="stop-color:#DA6727;stop-color:color(display-p3 0.8549 0.4039 0.1529);stop-opacity:1;"/>
<stop offset="1" stop-color="#FFC400" style="stop-color:#FFC400;stop-color:color(display-p3 1.0000 0.7686 0.0000);stop-opacity:1;"/>
</linearGradient>
</defs>
</svg>
