<svg width="128" height="129" viewBox="0 0 128 129" fill="none" xmlns="http://www.w3.org/2000/svg">
<path d="M30 58.5H97L90.0303 62.5H37.3825L30 58.5Z" fill="#546F7A" style="fill:#546F7A;fill:color(display-p3 0.3294 0.4353 0.4784);fill-opacity:1;"/>
<path d="M22 73.5H104L95.4699 78.5H31.0353L22 73.5Z" fill="#546F7A" style="fill:#546F7A;fill:color(display-p3 0.3294 0.4353 0.4784);fill-opacity:1;"/>
<path d="M17 89.5H109L99.4296 94.5H27.1371L17 89.5Z" fill="#546F7A" style="fill:#546F7A;fill:color(display-p3 0.3294 0.4353 0.4784);fill-opacity:1;"/>
<path d="M12 104.5H114L103.389 109.5H23.239L12 104.5Z" fill="#546F7A" style="fill:#546F7A;fill:color(display-p3 0.3294 0.4353 0.4784);fill-opacity:1;"/>
<path d="M40.8818 42.2271H87.332L82.5 45.8306H46L40.8818 42.2271Z" fill="#546F7A" style="fill:#546F7A;fill:color(display-p3 0.3294 0.4353 0.4784);fill-opacity:1;"/>
<rect x="48.4453" y="42.4714" width="31.1096" height="9.99952" fill="#F8FDFF" style="fill:#F8FDFF;fill:color(display-p3 0.9708 0.9908 1.0000);fill-opacity:1;"/>
<path d="M56.9996 44.7158H52.3096V50.1658H56.9996V44.7158Z" fill="#2F2F2F" style="fill:#2F2F2F;fill:color(display-p3 0.1843 0.1843 0.1843);fill-opacity:1;"/>
<path d="M61.6299 44.7759H65.9499V50.2259H61.6299C61.6399 50.2159 61.7399 44.7759 61.6299 44.7759Z" fill="#2F2F2F" style="fill:#2F2F2F;fill:color(display-p3 0.1843 0.1843 0.1843);fill-opacity:1;"/>
<path d="M70.4899 44.7759H74.6899V50.1659H70.3799L70.4899 44.7759Z" fill="#2F2F2F" style="fill:#2F2F2F;fill:color(display-p3 0.1843 0.1843 0.1843);fill-opacity:1;"/>
<rect x="43" y="58.5" width="42" height="10" fill="#F8FDFF" style="fill:#F8FDFF;fill:color(display-p3 0.9708 0.9908 1.0000);fill-opacity:1;"/>
<path d="M56.9996 60.2305H52.3096V65.6805H56.9996V60.2305Z" fill="#2F2F2F" style="fill:#2F2F2F;fill:color(display-p3 0.1843 0.1843 0.1843);fill-opacity:1;"/>
<path d="M61.6899 60.29H65.9499V65.74H61.6299C61.6399 65.73 61.7999 60.29 61.6899 60.29Z" fill="#2F2F2F" style="fill:#2F2F2F;fill:color(display-p3 0.1843 0.1843 0.1843);fill-opacity:1;"/>
<path d="M70.4899 60.29H74.6899V65.68H70.3799L70.4899 60.29Z" fill="#2F2F2F" style="fill:#2F2F2F;fill:color(display-p3 0.1843 0.1843 0.1843);fill-opacity:1;"/>
<rect x="40.6675" y="73.5809" width="46.6644" height="9.99952" fill="#F8FDFF" style="fill:#F8FDFF;fill:color(display-p3 0.9708 0.9908 1.0000);fill-opacity:1;"/>
<path d="M56.9996 76H52.3096V81.45H56.9996V76Z" fill="#2F2F2F" style="fill:#2F2F2F;fill:color(display-p3 0.1843 0.1843 0.1843);fill-opacity:1;"/>
<path d="M61.6899 76.0601H65.9499V81.5101H61.6299C61.6399 81.5001 61.7999 76.0601 61.6899 76.0601Z" fill="#2F2F2F" style="fill:#2F2F2F;fill:color(display-p3 0.1843 0.1843 0.1843);fill-opacity:1;"/>
<path d="M70.4899 76.0601H74.6899V81.4501H70.3799L70.4899 76.0601Z" fill="#2F2F2F" style="fill:#2F2F2F;fill:color(display-p3 0.1843 0.1843 0.1843);fill-opacity:1;"/>
<rect x="35" y="89.5" width="55" height="10" fill="#F8FDFF" style="fill:#F8FDFF;fill:color(display-p3 0.9708 0.9908 1.0000);fill-opacity:1;"/>
<path d="M41.9891 92H45.6839V97.6326H41.9385L41.9891 92Z" fill="#2F2F2F" style="fill:#2F2F2F;fill:color(display-p3 0.1843 0.1843 0.1843);fill-opacity:1;"/>
<path d="M48.0922 92V97.6832H51.4544V92C51.4544 92 48.0488 92.0434 48.0922 92Z" fill="#2F2F2F" style="fill:#2F2F2F;fill:color(display-p3 0.1843 0.1843 0.1843);fill-opacity:1;"/>
<path d="M58.8359 92V97.7266H62.4874V92.0434L58.8359 92Z" fill="#2F2F2F" style="fill:#2F2F2F;fill:color(display-p3 0.1843 0.1843 0.1843);fill-opacity:1;"/>
<path d="M68.1136 92H64.708V97.7266H68.1136V92Z" fill="#2F2F2F" style="fill:#2F2F2F;fill:color(display-p3 0.1843 0.1843 0.1843);fill-opacity:1;"/>
<path d="M79.3785 92.0435H75.8789V97.6761H79.3785V92.0435Z" fill="#2F2F2F" style="fill:#2F2F2F;fill:color(display-p3 0.1843 0.1843 0.1843);fill-opacity:1;"/>
<path d="M81.6562 92.0435V97.6327H85.0619V92.0941L81.6562 92.0435Z" fill="#2F2F2F" style="fill:#2F2F2F;fill:color(display-p3 0.1843 0.1843 0.1843);fill-opacity:1;"/>
<rect x="31" y="104.5" width="65" height="17" fill="#F8FDFF" style="fill:#F8FDFF;fill:color(display-p3 0.9708 0.9908 1.0000);fill-opacity:1;"/>
<path d="M56.3892 113H51.6992V118.45H56.3892V113Z" fill="#2F2F2F" style="fill:#2F2F2F;fill:color(display-p3 0.1843 0.1843 0.1843);fill-opacity:1;"/>
<path d="M69.8795 113.06H74.0795V118.45H69.7695L69.8795 113.06Z" fill="#2F2F2F" style="fill:#2F2F2F;fill:color(display-p3 0.1843 0.1843 0.1843);fill-opacity:1;"/>
<path d="M64 25.5C68.2739 32.23 74.5439 37.4563 81.9334 40.4485L87 42.5H41L46.2913 40.3783C53.6305 37.4353 59.8358 32.2218 64 25.5Z" fill="#C4C4C4" style="fill:#C4C4C4;fill:color(display-p3 0.7686 0.7686 0.7686);fill-opacity:1;"/>
<path d="M64 25.5C68.2739 32.23 74.5439 37.4563 81.9334 40.4485L87 42.5H41L46.2913 40.3783C53.6305 37.4353 59.8358 32.2218 64 25.5Z" fill="url(#paint0_radial_79_752)" style=""/>
<path d="M64 25.5C68.2739 32.23 74.5439 37.4563 81.9334 40.4485L87 42.5H41L46.2913 40.3783C53.6305 37.4353 59.8358 32.2218 64 25.5Z" fill="#385661" style="fill:#385661;fill:color(display-p3 0.2196 0.3373 0.3804);fill-opacity:1;"/>
<path d="M30 58.5L40.9477 52.5H86.0523L97 58.5H30Z" fill="#C4C4C4" style="fill:#C4C4C4;fill:color(display-p3 0.7686 0.7686 0.7686);fill-opacity:1;"/>
<path d="M30 58.5L40.9477 52.5H86.0523L97 58.5H30Z" fill="url(#paint1_radial_79_752)" style=""/>
<path d="M30 58.5L40.9477 52.5H86.0523L97 58.5H30Z" fill="#385661" style="fill:#385661;fill:color(display-p3 0.2196 0.3373 0.3804);fill-opacity:1;"/>
<path d="M21 73.5L34.7255 68.5H91.2745L105 73.5H21Z" fill="#C4C4C4" style="fill:#C4C4C4;fill:color(display-p3 0.7686 0.7686 0.7686);fill-opacity:1;"/>
<path d="M21 73.5L34.7255 68.5H91.2745L105 73.5H21Z" fill="url(#paint2_radial_79_752)" style=""/>
<path d="M21 73.5L34.7255 68.5H91.2745L105 73.5H21Z" fill="#385661" style="fill:#385661;fill:color(display-p3 0.2196 0.3373 0.3804);fill-opacity:1;"/>
<path d="M16 89.5L31.3595 83.5H94.6405L110 89.5H16Z" fill="#C4C4C4" style="fill:#C4C4C4;fill:color(display-p3 0.7686 0.7686 0.7686);fill-opacity:1;"/>
<path d="M16 89.5L31.3595 83.5H94.6405L110 89.5H16Z" fill="url(#paint3_radial_79_752)" style=""/>
<path d="M16 89.5L31.3595 83.5H94.6405L110 89.5H16Z" fill="#385661" style="fill:#385661;fill:color(display-p3 0.2196 0.3373 0.3804);fill-opacity:1;"/>
<path d="M12 104.5L28.6667 99.5H97.3333L114 104.5H12Z" fill="#C4C4C4" style="fill:#C4C4C4;fill:color(display-p3 0.7686 0.7686 0.7686);fill-opacity:1;"/>
<path d="M12 104.5L28.6667 99.5H97.3333L114 104.5H12Z" fill="url(#paint4_radial_79_752)" style=""/>
<path d="M12 104.5L28.6667 99.5H97.3333L114 104.5H12Z" fill="#385661" style="fill:#385661;fill:color(display-p3 0.2196 0.3373 0.3804);fill-opacity:1;"/>
<rect x="62.8892" y="4.69545" width="2.22212" height="21.1101" fill="#946E33" style="fill:#946E33;fill:color(display-p3 0.5792 0.4308 0.2003);fill-opacity:1;"/>
<rect x="60.667" y="25.8055" width="6.66635" height="4.44423" fill="#FCC01E" style="fill:#FCC01E;fill:color(display-p3 0.9882 0.7529 0.1176);fill-opacity:1;"/>
<rect x="61.167" y="26.3055" width="5.66635" height="3.44423" stroke="white" stroke-opacity="0.05" style="stroke:white;stroke-opacity:0.05;"/>
<rect x="61.7778" y="23.5834" width="4.44423" height="1.11106" fill="#FCC01E" style="fill:#FCC01E;fill:color(display-p3 0.9882 0.7529 0.1176);fill-opacity:1;"/>
<rect x="61.7778" y="21.3613" width="4.44423" height="1.11106" fill="#FCC01E" style="fill:#FCC01E;fill:color(display-p3 0.9882 0.7529 0.1176);fill-opacity:1;"/>
<rect x="61.7778" y="19.1392" width="4.44423" height="1.11106" fill="#FCC01E" style="fill:#FCC01E;fill:color(display-p3 0.9882 0.7529 0.1176);fill-opacity:1;"/>
<rect x="61.7778" y="16.9171" width="4.44423" height="1.11106" fill="#FCC01E" style="fill:#FCC01E;fill:color(display-p3 0.9882 0.7529 0.1176);fill-opacity:1;"/>
<rect x="61.7778" y="14.695" width="4.44423" height="1.11106" fill="#FCC01E" style="fill:#FCC01E;fill:color(display-p3 0.9882 0.7529 0.1176);fill-opacity:1;"/>
<rect x="61.7778" y="12.4729" width="4.44423" height="1.11106" fill="#FCC01E" style="fill:#FCC01E;fill:color(display-p3 0.9882 0.7529 0.1176);fill-opacity:1;"/>
<rect x="61.7778" y="10.2507" width="4.44423" height="1.11106" fill="#FCC01E" style="fill:#FCC01E;fill:color(display-p3 0.9882 0.7529 0.1176);fill-opacity:1;"/>
<rect width="4.44423" height="1.11106" transform="matrix(1 0 0 -1 61.7778 9.13968)" fill="#FCC01E" style="fill:#FCC01E;fill:color(display-p3 0.9882 0.7529 0.1176);fill-opacity:1;"/>
<rect width="4.44423" height="1.11106" transform="matrix(1 0 0 -1 61.7778 6.91757)" fill="#FCC01E" style="fill:#FCC01E;fill:color(display-p3 0.9882 0.7529 0.1176);fill-opacity:1;"/>
<path d="M67.9441 121.888H59.0557V115.222C59.0557 114 60.0556 113 61.2778 113H65.722C66.9442 113 67.9441 114 67.9441 115.222V121.888Z" fill="#2F2F2F" style="fill:#2F2F2F;fill:color(display-p3 0.1843 0.1843 0.1843);fill-opacity:1;"/>
<rect x="31" y="104.5" width="4" height="17" fill="#73A0A2" style="fill:#73A0A2;fill:color(display-p3 0.4510 0.6275 0.6353);fill-opacity:1;"/>
<rect x="92" y="104.5" width="4" height="17" fill="#73A0A2" style="fill:#73A0A2;fill:color(display-p3 0.4510 0.6275 0.6353);fill-opacity:1;"/>
<rect x="35" y="89.5" width="3" height="10" fill="#73A0A2" style="fill:#73A0A2;fill:color(display-p3 0.4510 0.6275 0.6353);fill-opacity:1;"/>
<rect x="87" y="89.5" width="3" height="10" fill="#73A0A2" style="fill:#73A0A2;fill:color(display-p3 0.4510 0.6275 0.6353);fill-opacity:1;"/>
<rect x="40" y="73.5" width="3" height="10" fill="#73A0A2" style="fill:#73A0A2;fill:color(display-p3 0.4510 0.6275 0.6353);fill-opacity:1;"/>
<rect x="85" y="73.5" width="3" height="10" fill="#73A0A2" style="fill:#73A0A2;fill:color(display-p3 0.4510 0.6275 0.6353);fill-opacity:1;"/>
<rect x="43" y="58.5" width="3" height="10" fill="#73A0A2" style="fill:#73A0A2;fill:color(display-p3 0.4510 0.6275 0.6353);fill-opacity:1;"/>
<rect x="82" y="58.5" width="3" height="10" fill="#73A0A2" style="fill:#73A0A2;fill:color(display-p3 0.4510 0.6275 0.6353);fill-opacity:1;"/>
<rect x="48" y="42.5" width="3" height="10" fill="#73A0A2" style="fill:#73A0A2;fill:color(display-p3 0.4510 0.6275 0.6353);fill-opacity:1;"/>
<rect x="77" y="42.5" width="3" height="10" fill="#73A0A2" style="fill:#73A0A2;fill:color(display-p3 0.4510 0.6275 0.6353);fill-opacity:1;"/>
<path d="M24.3592 122.418C24.3592 122.418 24.1735 121.239 25.0636 120.912C25.9537 120.585 103.181 120.692 103.821 120.727C105.355 120.825 105.046 122.338 105.046 122.338L62.9785 122.418L24.3592 122.418Z" fill="#BCCED2" style="fill:#BCCED2;fill:color(display-p3 0.7373 0.8078 0.8235);fill-opacity:1;"/>
<defs>
<radialGradient id="paint0_radial_79_752" cx="0" cy="0" r="1" gradientUnits="userSpaceOnUse" gradientTransform="translate(63.7444 26.2083) rotate(90) scale(23.613 36.4905)">
<stop stop-color="#546E7A" style="stop-color:#546E7A;stop-color:color(display-p3 0.3294 0.4314 0.4784);stop-opacity:1;"/>
<stop offset="0.35" stop-color="#435761" style="stop-color:#435761;stop-color:color(display-p3 0.2627 0.3412 0.3804);stop-opacity:1;"/>
<stop offset="0.659" stop-color="#37474F" style="stop-color:#37474F;stop-color:color(display-p3 0.2157 0.2784 0.3098);stop-opacity:1;"/>
<stop offset="1" stop-color="#37474F" style="stop-color:#37474F;stop-color:color(display-p3 0.2157 0.2784 0.3098);stop-opacity:1;"/>
</radialGradient>
<radialGradient id="paint1_radial_79_752" cx="0" cy="0" r="1" gradientUnits="userSpaceOnUse" gradientTransform="translate(63.1277 52.75) rotate(90) scale(8.334 53.1492)">
<stop stop-color="#546E7A" style="stop-color:#546E7A;stop-color:color(display-p3 0.3294 0.4314 0.4784);stop-opacity:1;"/>
<stop offset="0.35" stop-color="#435761" style="stop-color:#435761;stop-color:color(display-p3 0.2627 0.3412 0.3804);stop-opacity:1;"/>
<stop offset="0.659" stop-color="#37474F" style="stop-color:#37474F;stop-color:color(display-p3 0.2157 0.2784 0.3098);stop-opacity:1;"/>
<stop offset="1" stop-color="#37474F" style="stop-color:#37474F;stop-color:color(display-p3 0.2157 0.2784 0.3098);stop-opacity:1;"/>
</radialGradient>
<radialGradient id="paint2_radial_79_752" cx="0" cy="0" r="1" gradientUnits="userSpaceOnUse" gradientTransform="translate(62.5332 68.7083) rotate(90) scale(6.945 66.6349)">
<stop stop-color="#546E7A" style="stop-color:#546E7A;stop-color:color(display-p3 0.3294 0.4314 0.4784);stop-opacity:1;"/>
<stop offset="0.35" stop-color="#435761" style="stop-color:#435761;stop-color:color(display-p3 0.2627 0.3412 0.3804);stop-opacity:1;"/>
<stop offset="0.659" stop-color="#37474F" style="stop-color:#37474F;stop-color:color(display-p3 0.2157 0.2784 0.3098);stop-opacity:1;"/>
<stop offset="1" stop-color="#37474F" style="stop-color:#37474F;stop-color:color(display-p3 0.2157 0.2784 0.3098);stop-opacity:1;"/>
</radialGradient>
<radialGradient id="paint3_radial_79_752" cx="0" cy="0" r="1" gradientUnits="userSpaceOnUse" gradientTransform="translate(62.4776 83.75) rotate(90) scale(8.334 74.5676)">
<stop stop-color="#546E7A" style="stop-color:#546E7A;stop-color:color(display-p3 0.3294 0.4314 0.4784);stop-opacity:1;"/>
<stop offset="0.35" stop-color="#435761" style="stop-color:#435761;stop-color:color(display-p3 0.2627 0.3412 0.3804);stop-opacity:1;"/>
<stop offset="0.659" stop-color="#37474F" style="stop-color:#37474F;stop-color:color(display-p3 0.2157 0.2784 0.3098);stop-opacity:1;"/>
<stop offset="1" stop-color="#37474F" style="stop-color:#37474F;stop-color:color(display-p3 0.2157 0.2784 0.3098);stop-opacity:1;"/>
</radialGradient>
<radialGradient id="paint4_radial_79_752" cx="0" cy="0" r="1" gradientUnits="userSpaceOnUse" gradientTransform="translate(62.4332 99.7083) rotate(90) scale(6.945 80.9138)">
<stop stop-color="#546E7A" style="stop-color:#546E7A;stop-color:color(display-p3 0.3294 0.4314 0.4784);stop-opacity:1;"/>
<stop offset="0.35" stop-color="#435761" style="stop-color:#435761;stop-color:color(display-p3 0.2627 0.3412 0.3804);stop-opacity:1;"/>
<stop offset="0.659" stop-color="#37474F" style="stop-color:#37474F;stop-color:color(display-p3 0.2157 0.2784 0.3098);stop-opacity:1;"/>
<stop offset="1" stop-color="#37474F" style="stop-color:#37474F;stop-color:color(display-p3 0.2157 0.2784 0.3098);stop-opacity:1;"/>
</radialGradient>
</defs>
</svg>
