<svg width="128" height="128" viewBox="0 0 128 128" fill="none" xmlns="http://www.w3.org/2000/svg">
<path d="M88.48 90.2186C88.48 90.2186 116.84 90.6286 117.98 89.8086C119.12 88.9786 124.4 81.5286 124.6 67.2386C124.8 52.9486 118.8 44.8786 117.46 44.6686C116.11 44.4586 86.51 43.9486 86.51 43.9486C86.51 43.9486 82.47 36.2886 73.36 30.9086C64.25 25.5286 51.83 21.7986 41.68 22.0086C32.57 22.1986 31.12 25.6286 29.88 27.3886C28.64 29.1486 28.84 30.9086 28.84 30.9086C28.84 30.9086 15.77 31.9086 10.41 37.4286C3.6 44.4586 4.01 55.2286 4.01 67.1286C4.01 79.2386 3.25 91.3186 14.98 99.7386C25.23 107.089 41.27 105.329 49.24 104.919C57.21 104.509 70.17 101.539 75.22 99.3286C85.17 94.9786 88.48 90.2186 88.48 90.2186Z" fill="#DC0D28" style="fill:#DC0D28;fill:color(display-p3 0.8627 0.0510 0.1569);fill-opacity:1;"/>
<path d="M108.09 83.369C112.83 83.479 116.11 81.699 116.06 67.009C116.01 52.319 113.31 51.289 108.47 51.129C104.69 50.999 102.28 52.639 102.49 58.449C102.64 62.589 102.53 72.029 102.38 77.239C102.3 80.089 103.25 83.269 108.09 83.369Z" fill="#FFC402" style="fill:#FFC402;fill:color(display-p3 1.0000 0.7686 0.0078);fill-opacity:1;"/>
<path d="M108.09 83.369C112.83 83.479 116.11 81.699 116.06 67.009C116.01 52.319 113.31 51.289 108.47 51.129C104.69 50.999 102.28 52.639 102.49 58.449C102.64 62.589 102.53 72.029 102.38 77.239C102.3 80.089 103.25 83.269 108.09 83.369Z" fill="#E0E0E0" style="fill:#E0E0E0;fill:color(display-p3 0.8784 0.8784 0.8784);fill-opacity:1;"/>
<path d="M88.48 90.2188C88.48 90.2188 91.62 80.6688 91.76 67.3488C91.9 53.7388 86.52 43.9488 86.52 43.9488L94.01 44.1388C94.01 44.1388 98.22 52.8388 98.22 67.2088C98.22 81.5788 94.78 90.2788 94.78 90.2788L88.48 90.2188Z" fill="#950D19" style="fill:#950D19;fill:color(display-p3 0.5843 0.0510 0.0980);fill-opacity:1;"/>
<path d="M26.8798 51.7789C29.3698 49.7489 27.2998 46.3789 26.7398 44.2089C26.1798 42.0389 26.2498 38.0389 26.5998 37.8989C26.9498 37.7589 27.9998 43.0189 33.8898 45.8189C38.4398 47.9889 44.0298 47.3889 45.9198 47.1789C48.6498 46.8789 52.6098 45.3989 52.6098 41.8189C52.6098 37.4689 48.7498 37.0489 46.7898 36.9089C44.8298 36.7689 35.8298 38.0589 31.9598 35.5889C28.5798 33.4389 28.8398 30.8989 28.8398 30.8989C28.8398 30.8989 26.9398 31.0889 25.6798 31.2989C24.4198 31.5089 23.0698 31.7789 23.0698 31.7789C23.0698 31.7789 21.0498 35.6389 19.8598 38.5189C18.6698 41.3989 18.1898 46.7289 20.7798 50.0989C22.8798 52.8189 26.1098 52.4089 26.8798 51.7789Z" fill="#950D19" style="fill:#950D19;fill:color(display-p3 0.5843 0.0510 0.0980);fill-opacity:1;"/>
</svg>
